999
dxfrw 0.6.3
  0
SECTION
  2
HEADER
  9
$ACADVER
  1
AC1021
  9
$DWGCODEPAGE
  3
ANSI_1252
  9
$INSBASE
 10
0
 20
0
 30
0
  9
$EXTMIN
 10
-1687.983282007689
 20
250.2154386397976
 30
0
  9
$EXTMAX
 10
-1440.34328200769
 20
335.5054386397994
 30
0
  9
$LIMMIN
 10
0
 20
0
  9
$LIMMAX
 10
420
 20
297
  9
$ORTHOMODE
 70
    0
  9
$REGENMODE
 70
    1
  9
$FILLMODE
 70
    1
  9
$QTEXTMODE
 70
    0
  9
$MIRRTEXT
 70
    0
  9
$LTSCALE
 40
1
  9
$ATTMODE
 70
    0
  9
$TEXTSIZE
 40
2.5
  9
$TRACEWID
 40
15.68
  9
$TEXTSTYLE
  7
STANDARD
  9
$CLAYER
  8
0
  9
$CELTYPE
  6
BYLAYER
  9
$CECOLOR
 62
  256
  9
$CELTSCALE
 40
1
  9
$DISPSILH
 70
    0
  9
$DIMSCALE
 40
2.5
  9
$DIMASZ
 40
2.5
  9
$DIMEXO
 40
0.625
  9
$DIMDLI
 40
3.75
  9
$DIMRND
 40
0
  9
$DIMDLE
 40
0
  9
$DIMEXE
 40
1.25
  9
$DIMTP
 40
0
  9
$DIMTM
 40
0
  9
$DIMTXT
 40
2.5
  9
$DIMCEN
 40
2.5
  9
$DIMTSZ
 40
0
  9
$DIMTOL
 70
    0
  9
$DIMLIM
 70
    0
  9
$DIMTIH
 70
    0
  9
$DIMTOH
 70
    0
  9
$DIMSE1
 70
    0
  9
$DIMSE2
 70
    0
  9
$DIMTAD
 70
    1
  9
$DIMZIN
 70
    8
  9
$DIMBLK
  1

  9
$DIMASO
 70
    1
  9
$DIMSHO
 70
    1
  9
$DIMPOST
  1

  9
$DIMAPOST
  1

  9
$DIMALT
 70
    0
  9
$DIMALTD
 70
    3
  9
$DIMALTF
 40
0.03937
  9
$DIMLFAC
 40
1
  9
$DIMTOFL
 70
    1
  9
$DIMTVP
 40
0
  9
$DIMTIX
 70
    0
  9
$DIMSOXD
 70
    0
  9
$DIMSAH
 70
    0
  9
$DIMBLK1
  1

  9
$DIMBLK2
  1

  9
$DIMSTYLE
  2
Standard
  9
$DIMCLRD
 70
    0
  9
$DIMCLRE
 70
    0
  9
$DIMCLRT
 70
    0
  9
$DIMTFAC
 40
1
  9
$DIMGAP
 40
0.625
  9
$DIMJUST
 70
    0
  9
$DIMSD1
 70
    0
  9
$DIMSD2
 70
    0
  9
$DIMTOLJ
 70
    0
  9
$DIMTZIN
 70
    8
  9
$DIMALTZ
 70
    0
  9
$DIMALTTZ
 70
    0
  9
$DIMUPT
 70
    0
  9
$DIMDEC
 70
    2
  9
$DIMTDEC
 70
    2
  9
$DIMALTU
 70
    2
  9
$DIMALTTD
 70
    3
  9
$DIMTXSTY
  7
STANDARD
  9
$DIMAUNIT
 70
    0
  9
$DIMADEC
 70
    0
  9
$DIMALTRND
 40
0
  9
$DIMAZIN
 70
    0
  9
$DIMDSEP
 70
   44
  9
$DIMATFIT
 70
    3
  9
$DIMFRAC
 70
    0
  9
$DIMLDRBLK
  1
STANDARD
  9
$DIMLUNIT
 70
    2
  9
$DIMLWD
 70
   -2
  9
$DIMLWE
 70
   -2
  9
$DIMTMOVE
 70
    0
  9
$DIMFXL
 40
1
  9
$DIMFXLON
 70
    0
  9
$DIMJOGANG
 40
0.7854
  9
$DIMTFILL
 70
    0
  9
$DIMTFILLCLR
 70
    0
  9
$DIMARCSYM
 70
    0
  9
$DIMLTYPE
  6

  9
$DIMLTEX1
  6

  9
$DIMLTEX2
  6

  9
$LUNITS
 70
    2
  9
$LUPREC
 70
    4
  9
$SKETCHINC
 40
1
  9
$FILLETRAD
 40
0
  9
$AUNITS
 70
    0
  9
$AUPREC
 70
    2
  9
$MENU
  1
.
  9
$ELEVATION
 40
0
  9
$PELEVATION
 40
0
  9
$THICKNESS
 40
0
  9
$LIMCHECK
 70
    0
  9
$CHAMFERA
 40
0
  9
$CHAMFERB
 40
0
  9
$CHAMFERC
 40
0
  9
$CHAMFERD
 40
0
  9
$SKPOLY
 70
    0
  9
$USRTIMER
 70
    1
  9
$ANGBASE
 50
0
  9
$ANGDIR
 70
    0
  9
$PDMODE
 70
   34
  9
$PDSIZE
 40
0
  9
$PLINEWID
 40
0
  9
$SPLFRAME
 70
    0
  9
$SPLINETYPE
 70
    2
  9
$SPLINESEGS
 70
    8
  9
$HANDSEED
  5
20000
  9
$SURFTAB1
 70
    6
  9
$SURFTAB2
 70
    6
  9
$SURFTYPE
 70
    6
  9
$SURFU
 70
    6
  9
$SURFV
 70
    6
  9
$UCSBASE
  2

  9
$UCSNAME
  2

  9
$UCSORG
 10
0
 20
0
 30
0
  9
$UCSXDIR
 10
1
 20
0
 30
0
  9
$UCSYDIR
 10
0
 20
1
 30
0
  9
$UCSORTHOREF
  2

  9
$UCSORTHOVIEW
 70
    0
  9
$UCSORGTOP
 10
0
 20
0
 30
0
  9
$UCSORGBOTTOM
 10
0
 20
0
 30
0
  9
$UCSORGLEFT
 10
0
 20
0
 30
0
  9
$UCSORGRIGHT
 10
0
 20
0
 30
0
  9
$UCSORGFRONT
 10
0
 20
0
 30
0
  9
$UCSORGBACK
 10
0
 20
0
 30
0
  9
$PUCSBASE
  2

  9
$PUCSNAME
  2

  9
$PUCSORG
 10
0
 20
0
 30
0
  9
$PUCSXDIR
 10
1
 20
0
 30
0
  9
$PUCSYDIR
 10
0
 20
1
 30
0
  9
$PUCSORTHOREF
  2

  9
$PUCSORTHOVIEW
 70
    0
  9
$PUCSORGTOP
 10
0
 20
0
 30
0
  9
$PUCSORGBOTTOM
 10
0
 20
0
 30
0
  9
$PUCSORGLEFT
 10
0
 20
0
 30
0
  9
$PUCSORGRIGHT
 10
0
 20
0
 30
0
  9
$PUCSORGFRONT
 10
0
 20
0
 30
0
  9
$PUCSORGBACK
 10
0
 20
0
 30
0
  9
$USERI1
 70
    0
  9
$USERI2
 70
    0
  9
$USERI3
 70
    0
  9
$USERI4
 70
    0
  9
$USERI5
 70
    0
  9
$USERR1
 40
0
  9
$USERR2
 40
0
  9
$USERR3
 40
0
  9
$USERR4
 40
0
  9
$USERR5
 40
0
  9
$WORLDVIEW
 70
    1
  9
$SHADEDGE
 70
    3
  9
$SHADEDIF
 70
   70
  9
$TILEMODE
 70
    1
  9
$MAXACTVP
 70
   64
  9
$PINSBASE
 10
0
 20
0
 30
0
  9
$PLIMCHECK
 70
    0
  9
$PEXTMIN
 10
0
 20
0
 30
0
  9
$PEXTMAX
 10
0
 20
0
 30
0
  9
$GRIDMODE
 70
    0
  9
$SNAPSTYLE
 70
    0
  9
$PLIMMIN
 10
0
 20
0
  9
$PLIMMAX
 10
210
 20
297
  9
$UNITMODE
 70
    0
  9
$VISRETAIN
 70
    1
  9
$PLINEGEN
 70
    0
  9
$PSLTSCALE
 70
    1
  9
$TREEDEPTH
 70
 3020
  9
$CMLSTYLE
  2
Standard
  9
$CMLJUST
 70
    0
  9
$CMLSCALE
 40
20
  9
$PROXYGRAPHICS
 70
    1
  9
$MEASUREMENT
 70
    1
  9
$CELWEIGHT
370
   -1
  9
$ENDCAPS
280
    0
  9
$JOINSTYLE
280
    0
  9
$LWDISPLAY
290
    0
  9
$INSUNITS
 70
    0
  9
$HYPERLINKBASE
  1

  9
$STYLESHEET
  1

  9
$XEDIT
290
    1
  9
$CEPSNTYPE
380
    0
  9
$PSTYLEMODE
290
    1
  9
$EXTNAMES
290
    1
  9
$PSVPSCALE
 40
1
  9
$OLESTARTUP
290
    0
  9
$SORTENTS
280
  127
  9
$INDEXCTL
280
    0
  9
$HIDETEXT
280
    1
  9
$XCLIPFRAME
290
    0
  9
$HALOGAP
280
    0
  9
$OBSCOLOR
 70
  257
  9
$OBSLTYPE
280
    0
  9
$INTERSECTIONDISPLAY
280
    0
  9
$INTERSECTIONCOLOR
 70
  257
  9
$DIMASSOC
280
    1
  9
$PROJECTNAME
  1

  9
$CAMERADISPLAY
290
    0
  9
$LENSLENGTH
 40
50
  9
$CAMERAHEIGHT
 40
0
  9
$STEPSPERSEC
 40
2
  9
$STEPSIZE
 40
50
  9
$3DDWFPREC
 40
2
  9
$PSOLWIDTH
 40
5
  9
$PSOLHEIGHT
 40
80
  9
$LOFTANG1
 40
1.570796326794897
  9
$LOFTANG2
 40
1.570796326794897
  9
$LOFTMAG1
 40
0
  9
$LOFTMAG2
 40
0
  9
$LOFTPARAM
 70
    7
  9
$LOFTNORMALS
280
    1
  9
$LATITUDE
 40
1
  9
$LONGITUDE
 40
1
  9
$NORTHDIRECTION
 40
0
  9
$TIMEZONE
 70
-8000
  9
$LIGHTGLYPHDISPLAY
280
    1
  9
$TILEMODELIGHTSYNCH
280
    1
  9
$SOLIDHIST
280
    1
  9
$SHOWHIST
280
    1
  9
$DWFFRAME
280
    2
  9
$DGNFRAME
280
    0
  9
$REALWORLDSCALE
290
    1
  9
$INTERFERECOLOR
 62
    1
  9
$CSHADOW
280
    0
  9
$SHADOWPLANELOCATION
 40
0
  0
ENDSEC
  0
SECTION
  2
CLASSES
  0
ENDSEC
  0
SECTION
  2
TABLES
  0
TABLE
  2
VPORT
  5
8
330
0
100
AcDbSymbolTable
 70
    1
  0
VPORT
  5
31
330
2
100
AcDbSymbolTableRecord
100
AcDbViewportTableRecord
  2
*ACTIVE
 70
    0
 10
0
 20
0
 11
1
 21
1
 12
-603.0911592780762
 22
222.5803512802701
 13
0
 23
0
 14
10
 24
10
 15
10
 25
10
 16
0
 26
0
 36
1
 17
0
 27
0
 37
0
 40
302.5615065535953
 41
1.907203907203907
 42
50
 43
0
 44
0
 50
0
 51
0
 71
    0
 72
  100
 73
    1
 74
    3
 75
    0
 76
    0
 77
    0
 78
    0
281
    0
 65
    1
110
0
120
0
130
0
111
1
121
0
131
0
112
0
122
1
132
0
 79
    0
146
0
348
10020
 60
    7
 61
    5
292
1
282
    1
141
0
142
0
 63
  250
421
3358443
  0
ENDTAB
  0
TABLE
  2
LTYPE
  5
5
330
0
100
AcDbSymbolTable
 70
    4
  0
LTYPE
  5
14
330
5
100
AcDbSymbolTableRecord
100
AcDbLinetypeTableRecord
  2
ByBlock
 70
    0
  3

 72
   65
 73
    0
 40
0
  0
LTYPE
  5
15
330
5
100
AcDbSymbolTableRecord
100
AcDbLinetypeTableRecord
  2
ByLayer
 70
    0
  3

 72
   65
 73
    0
 40
0
  0
LTYPE
  5
16
330
5
100
AcDbSymbolTableRecord
100
AcDbLinetypeTableRecord
  2
Continuous
 70
    0
  3
Solid line
 72
   65
 73
    0
 40
0
  0
LTYPE
  5
32
330
5
100
AcDbSymbolTableRecord
100
AcDbLinetypeTableRecord
  2
DOT
 70
    0
  3
Dot . . . . . . . . . . . . . . . . . . . . . .
 72
   65
 73
    2
 40
6.35
 49
0
 74
    0
 49
-6.35
 74
    0
  0
LTYPE
  5
33
330
5
100
AcDbSymbolTableRecord
100
AcDbLinetypeTableRecord
  2
DOTTINY
 70
    0
  3
Dot (.15x) .....................................
 72
   65
 73
    2
 40
0.9525
 49
0
 74
    0
 49
-0.9525
 74
    0
  0
LTYPE
  5
34
330
5
100
AcDbSymbolTableRecord
100
AcDbLinetypeTableRecord
  2
DOT2
 70
    0
  3
Dot (.5x) .....................................
 72
   65
 73
    2
 40
3.175
 49
0
 74
    0
 49
-3.175
 74
    0
  0
LTYPE
  5
35
330
5
100
AcDbSymbolTableRecord
100
AcDbLinetypeTableRecord
  2
DOTX2
 70
    0
  3
Dot (2x) .  .  .  .  .  .  .  .  .  .  .  .  .
 72
   65
 73
    2
 40
12.7
 49
0
 74
    0
 49
-12.7
 74
    0
  0
LTYPE
  5
36
330
5
100
AcDbSymbolTableRecord
100
AcDbLinetypeTableRecord
  2
DASHED
 70
    0
  3
Dashed _ _ _ _ _ _ _ _ _ _ _ _ _ _ _ _ _
 72
   65
 73
    2
 40
19.05
 49
12.7
 74
    0
 49
-6.35
 74
    0
  0
LTYPE
  5
37
330
5
100
AcDbSymbolTableRecord
100
AcDbLinetypeTableRecord
  2
DASHEDTINY
 70
    0
  3
Dashed (.15x) _ _ _ _ _ _ _ _ _ _ _ _ _ _ _ _ _
 72
   65
 73
    2
 40
2.8575
 49
1.905
 74
    0
 49
-0.9525
 74
    0
  0
LTYPE
  5
38
330
5
100
AcDbSymbolTableRecord
100
AcDbLinetypeTableRecord
  2
DASHED2
 70
    0
  3
Dashed (.5x) _ _ _ _ _ _ _ _ _ _ _ _ _ _ _ _ _
 72
   65
 73
    2
 40
9.524999999999999
 49
6.35
 74
    0
 49
-3.175
 74
    0
  0
LTYPE
  5
39
330
5
100
AcDbSymbolTableRecord
100
AcDbLinetypeTableRecord
  2
DASHEDX2
 70
    0
  3
Dashed (2x) ____  ____  ____  ____  ____  ___
 72
   65
 73
    2
 40
38.09999999999999
 49
25.4
 74
    0
 49
-12.7
 74
    0
  0
LTYPE
  5
3A
330
5
100
AcDbSymbolTableRecord
100
AcDbLinetypeTableRecord
  2
DASHDOT
 70
    0
  3
Dash dot __ . __ . __ . __ . __ . __ . __ . __
 72
   65
 73
    4
 40
25.4
 49
12.7
 74
    0
 49
-6.35
 74
    0
 49
0
 74
    0
 49
-6.35
 74
    0
  0
LTYPE
  5
3B
330
5
100
AcDbSymbolTableRecord
100
AcDbLinetypeTableRecord
  2
DASHDOTTINY
 70
    0
  3
Dash dot (.15x) _._._._._._._._._._._._._._._.
 72
   65
 73
    4
 40
3.81
 49
1.905
 74
    0
 49
-0.9525
 74
    0
 49
0
 74
    0
 49
-0.9525
 74
    0
  0
LTYPE
  5
3C
330
5
100
AcDbSymbolTableRecord
100
AcDbLinetypeTableRecord
  2
DASHDOT2
 70
    0
  3
Dash dot (.5x) _._._._._._._._._._._._._._._.
 72
   65
 73
    4
 40
12.7
 49
6.35
 74
    0
 49
-3.175
 74
    0
 49
0
 74
    0
 49
-3.175
 74
    0
  0
LTYPE
  5
3D
330
5
100
AcDbSymbolTableRecord
100
AcDbLinetypeTableRecord
  2
DASHDOTX2
 70
    0
  3
Dash dot (2x) ____  .  ____  .  ____  .  ___
 72
   65
 73
    4
 40
50.8
 49
25.4
 74
    0
 49
-12.7
 74
    0
 49
0
 74
    0
 49
-12.7
 74
    0
  0
LTYPE
  5
3E
330
5
100
AcDbSymbolTableRecord
100
AcDbLinetypeTableRecord
  2
DIVIDE
 70
    0
  3
Divide ____ . . ____ . . ____ . . ____ . . ____
 72
   65
 73
    6
 40
31.75
 49
12.7
 74
    0
 49
-6.35
 74
    0
 49
0
 74
    0
 49
-6.35
 74
    0
 49
0
 74
    0
 49
-6.35
 74
    0
  0
LTYPE
  5
3F
330
5
100
AcDbSymbolTableRecord
100
AcDbLinetypeTableRecord
  2
DIVIDETINY
 70
    0
  3
Divide (.15x) __..__..__..__..__..__..__..__.._
 72
   65
 73
    6
 40
4.7625
 49
1.905
 74
    0
 49
-0.9525
 74
    0
 49
0
 74
    0
 49
-0.9525
 74
    0
 49
0
 74
    0
 49
-0.9525
 74
    0
  0
LTYPE
  5
40
330
5
100
AcDbSymbolTableRecord
100
AcDbLinetypeTableRecord
  2
DIVIDE2
 70
    0
  3
Divide (.5x) __..__..__..__..__..__..__..__.._
 72
   65
 73
    6
 40
15.875
 49
6.35
 74
    0
 49
-3.175
 74
    0
 49
0
 74
    0
 49
-3.175
 74
    0
 49
0
 74
    0
 49
-3.175
 74
    0
  0
LTYPE
  5
41
330
5
100
AcDbSymbolTableRecord
100
AcDbLinetypeTableRecord
  2
DIVIDEX2
 70
    0
  3
Divide (2x) ________  .  .  ________  .  .  _
 72
   65
 73
    6
 40
63.5
 49
25.4
 74
    0
 49
-12.7
 74
    0
 49
0
 74
    0
 49
-12.7
 74
    0
 49
0
 74
    0
 49
-12.7
 74
    0
  0
LTYPE
  5
42
330
5
100
AcDbSymbolTableRecord
100
AcDbLinetypeTableRecord
  2
BORDER
 70
    0
  3
Border __ __ . __ __ . __ __ . __ __ . __ __ .
 72
   65
 73
    6
 40
44.45
 49
12.7
 74
    0
 49
-6.35
 74
    0
 49
12.7
 74
    0
 49
-6.35
 74
    0
 49
0
 74
    0
 49
-6.35
 74
    0
  0
LTYPE
  5
43
330
5
100
AcDbSymbolTableRecord
100
AcDbLinetypeTableRecord
  2
BORDERTINY
 70
    0
  3
Border (.15x) __.__.__.__.__.__.__.__.__.__.__.
 72
   65
 73
    6
 40
6.6675
 49
1.905
 74
    0
 49
-0.9525
 74
    0
 49
1.905
 74
    0
 49
-0.9525
 74
    0
 49
0
 74
    0
 49
-0.9525
 74
    0
  0
LTYPE
  5
44
330
5
100
AcDbSymbolTableRecord
100
AcDbLinetypeTableRecord
  2
BORDER2
 70
    0
  3
Border (.5x) __.__.__.__.__.__.__.__.__.__.__.
 72
   65
 73
    6
 40
22.225
 49
6.35
 74
    0
 49
-3.175
 74
    0
 49
6.35
 74
    0
 49
-3.175
 74
    0
 49
0
 74
    0
 49
-3.175
 74
    0
  0
LTYPE
  5
45
330
5
100
AcDbSymbolTableRecord
100
AcDbLinetypeTableRecord
  2
BORDERX2
 70
    0
  3
Border (2x) ____  ____  .  ____  ____  .  ___
 72
   65
 73
    6
 40
88.89999999999999
 49
25.4
 74
    0
 49
-12.7
 74
    0
 49
25.4
 74
    0
 49
-12.7
 74
    0
 49
0
 74
    0
 49
-12.7
 74
    0
  0
LTYPE
  5
46
330
5
100
AcDbSymbolTableRecord
100
AcDbLinetypeTableRecord
  2
CENTER
 70
    0
  3
Center ____ _ ____ _ ____ _ ____ _ ____ _ ____
 72
   65
 73
    4
 40
50.8
 49
31.75
 74
    0
 49
-6.35
 74
    0
 49
6.35
 74
    0
 49
-6.35
 74
    0
  0
LTYPE
  5
47
330
5
100
AcDbSymbolTableRecord
100
AcDbLinetypeTableRecord
  2
CENTERTINY
 70
    0
  3
Center (.15x) ___ _ ___ _ ___ _ ___ _ ___ _ ___
 72
   65
 73
    4
 40
7.62
 49
4.7625
 74
    0
 49
-0.9525
 74
    0
 49
0.9525
 74
    0
 49
-0.9525
 74
    0
  0
LTYPE
  5
48
330
5
100
AcDbSymbolTableRecord
100
AcDbLinetypeTableRecord
  2
CENTER2
 70
    0
  3
Center (.5x) ___ _ ___ _ ___ _ ___ _ ___ _ ___
 72
   65
 73
    4
 40
28.575
 49
19.05
 74
    0
 49
-3.175
 74
    0
 49
3.175
 74
    0
 49
-3.175
 74
    0
  0
LTYPE
  5
49
330
5
100
AcDbSymbolTableRecord
100
AcDbLinetypeTableRecord
  2
CENTERX2
 70
    0
  3
Center (2x) ________  __  ________  __  _____
 72
   65
 73
    4
 40
101.6
 49
63.5
 74
    0
 49
-12.7
 74
    0
 49
12.7
 74
    0
 49
-12.7
 74
    0
  0
ENDTAB
  0
TABLE
  2
LAYER
  5
2
330
0
100
AcDbSymbolTable
 70
    1
  0
LAYER
  5
10
330
2
100
AcDbSymbolTableRecord
100
AcDbLayerTableRecord
  2
0
 70
    0
 62
    7
  6
CONTINUOUS
370
   -3
390
F
  0
LAYER
  5
4A
330
2
100
AcDbSymbolTableRecord
100
AcDbLayerTableRecord
  2
默认
 70
    0
 62
  256
  6
CONTINUOUS
370
   -3
390
F
  0
ENDTAB
  0
TABLE
  2
STYLE
  5
3
330
0
100
AcDbSymbolTable
 70
    3
  0
STYLE
  5
4B
330
2
100
AcDbSymbolTableRecord
100
AcDbTextStyleTableRecord
  2
Standard
 70
    0
 40
0
 41
1
 50
0
 71
    0
 42
1
  3
txt
  4

  0
ENDTAB
  0
TABLE
  2
VIEW
  5
6
330
0
100
AcDbSymbolTable
 70
    0
  0
ENDTAB
  0
TABLE
  2
UCS
  5
7
330
0
100
AcDbSymbolTable
 70
    0
  0
ENDTAB
  0
TABLE
  2
APPID
  5
9
330
0
100
AcDbSymbolTable
 70
    1
  0
APPID
  5
12
330
9
100
AcDbSymbolTableRecord
100
AcDbRegAppTableRecord
  2
ACAD
 70
    0
  0
APPID
  5
4C
330
9
100
AcDbSymbolTableRecord
100
AcDbRegAppTableRecord
  2
LibreCad
 70
    0
  0
ENDTAB
  0
TABLE
  2
DIMSTYLE
  5
A
330
0
100
AcDbSymbolTable
 70
    1
100
AcDbDimStyleTable
 71
    1
  0
DIMSTYLE
105
4D
330
A
100
AcDbSymbolTableRecord
100
AcDbDimStyleTableRecord
  2
Standard
 70
    0
 40
1
 41
2.5
 42
0.625
 43
0.38
 44
1.25
 45
0
 46
0
 47
0
 48
0
 49
1
140
2.5
141
0.09
142
2.5
143
25.4
144
1
145
0
146
1
147
0.625
148
0
 71
    0
 72
    0
 73
    0
 74
    1
 75
    0
 76
    0
 77
    0
 78
    1
 79
    0
170
    0
171
    2
172
    0
173
    0
174
    0
175
    0
176
    0
177
    0
178
    0
179
    0
271
    2
272
    4
273
    2
274
    2
275
    0
276
    0
277
    2
278
    0
279
    0
280
    0
281
    0
282
    0
283
    1
284
    0
285
    0
286
    0
288
    0
289
    3
340
standard
341

371
   -2
372
   -2
  0
ENDTAB
  0
TABLE
  2
BLOCK_RECORD
  5
1
330
0
100
AcDbSymbolTable
 70
    2
  0
BLOCK_RECORD
  5
1F
330
1
100
AcDbSymbolTableRecord
100
AcDbBlockTableRecord
  2
*Model_Space
 70
    0
280
    1
281
    0
  0
BLOCK_RECORD
  5
1E
330
1
100
AcDbSymbolTableRecord
100
AcDbBlockTableRecord
  2
*Paper_Space
 70
    0
280
    1
281
    0
  0
ENDTAB
  0
ENDSEC
  0
SECTION
  2
BLOCKS
  0
BLOCK
  5
20
330
1F
100
AcDbEntity
  8
0
100
AcDbBlockBegin
  2
*Model_Space
 70
    0
 10
0
 20
0
 30
0
  3
*Model_Space
  1

  0
ENDBLK
  5
21
330
1F
100
AcDbEntity
  8
0
100
AcDbBlockEnd
  0
BLOCK
  5
1C
330
1B
100
AcDbEntity
  8
0
100
AcDbBlockBegin
  2
*Paper_Space
 70
    0
 10
0
 20
0
 30
0
  3
*Paper_Space
  1

  0
ENDBLK
  5
1D
330
1F
100
AcDbEntity
  8
0
100
AcDbBlockEnd
  0
ENDSEC
  0
SECTION
  2
ENTITIES
  0
SPLINE
  5
4E
100
AcDbEntity
  8
默认
  6
ByLayer
 62
  256
370
   -1
100
AcDbSpline
210
0
220
0
230
0
 70
    8
 71
    2
 72
    6
 73
    3
 74
    0
 42
1e-07
 43
1e-07
 40
0
 40
0
 40
0
 40
1
 40
1
 40
1
 10
-1510.664666493956
 20
272.8553388214099
 30
0
 10
-1510.664666493956
 20
273.3553388214107
 30
0
 10
-1511.164666493956
 20
273.3553388214099
 30
0
  0
SPLINE
  5
4F
100
AcDbEntity
  8
默认
  6
ByLayer
 62
  256
370
   -1
100
AcDbSpline
210
0
220
0
230
0
 70
    8
 71
    2
 72
    8
 73
    5
 74
    0
 42
1e-07
 43
1e-07
 40
0
 40
0
 40
0
 40
0.3333333333333333
 40
0.6666666666666666
 40
1
 40
1
 40
1
 10
-1617.123097896009
 20
273.3553384581878
 30
0
 10
-1617.348300441468
 20
273.3660778946294
 30
0
 10
-1617.509130868194
 20
273.2080744268969
 30
0
 10
-1617.669961294921
 20
273.0500709591648
 30
0
 10
-1617.663216775542
 20
272.8247133912091
 30
0
  0
SPLINE
  5
50
100
AcDbEntity
  8
默认
  6
ByLayer
 62
  256
370
   -1
100
AcDbSpline
210
0
220
0
230
0
 70
    8
 71
    2
 72
    6
 73
    3
 74
    0
 42
1e-07
 43
1e-07
 40
0
 40
0
 40
0
 40
1
 40
1
 40
1
 10
-1611.163216493956
 20
273.3553388214099
 30
0
 10
-1614.143157194982
 20
273.3553386397993
 30
0
 10
-1617.123097896009
 20
273.3553384581878
 30
0
  0
SPLINE
  5
51
100
AcDbEntity
  8
默认
  6
ByLayer
 62
  256
370
   -1
100
AcDbSpline
210
0
220
0
230
0
 70
    8
 71
    2
 72
    6
 73
    3
 74
    0
 42
1e-07
 43
1e-07
 40
0
 40
0
 40
0
 40
1
 40
1
 40
1
 10
-1610.663216493956
 20
272.8553388214099
 30
0
 10
-1610.663216493956
 20
273.3553388214107
 30
0
 10
-1611.163216493956
 20
273.3553388214099
 30
0
  0
SPLINE
  5
52
100
AcDbEntity
  8
默认
  6
ByLayer
 62
  256
370
   -1
100
AcDbSpline
210
0
220
0
230
0
 70
    8
 71
    2
 72
    6
 73
    3
 74
    0
 42
1e-07
 43
1e-07
 40
0
 40
0
 40
0
 40
1
 40
1
 40
1
 10
-1504.220018301323
 20
252.1654386397981
 30
0
 10
-1504.5698081542
 20
254.7654386398011
 30
0
 10
-1507.193232050789
 20
254.7654386397989
 30
0
  0
SPLINE
  5
53
100
AcDbEntity
  8
默认
  6
ByLayer
 62
  256
370
   -1
100
AcDbSpline
210
0
220
0
230
0
 70
    8
 71
    2
 72
    6
 73
    3
 74
    0
 42
1e-07
 43
1e-07
 40
0
 40
0
 40
0
 40
1
 40
1
 40
1
 10
-1501.990107989224
 20
250.2154386397976
 30
0
 10
-1503.957675911664
 20
250.2154386397967
 30
0
 10
-1504.220018301323
 20
252.1654386397981
 30
0
  0
SPLINE
  5
54
100
AcDbEntity
  8
默认
  6
ByLayer
 62
  256
370
   -1
100
AcDbSpline
210
0
220
0
230
0
 70
    8
 71
    2
 72
    6
 73
    3
 74
    0
 42
1e-07
 43
1e-07
 40
0
 40
0
 40
0
 40
1
 40
1
 40
1
 10
-1483.461456026154
 20
250.2154386397976
 30
0
 10
-1492.725782007689
 20
250.2154386397975
 30
0
 10
-1501.990107989224
 20
250.2154386397976
 30
0
  0
SPLINE
  5
55
100
AcDbEntity
  8
默认
  6
ByLayer
 62
  256
370
   -1
100
AcDbSpline
210
0
220
0
230
0
 70
    8
 71
    2
 72
    6
 73
    3
 74
    0
 42
1e-07
 43
1e-07
 40
0
 40
0
 40
0
 40
1
 40
1
 40
1
 10
-1561.92563200769
 20
289.8349886397987
 30
0
 10
-1561.92563200769
 20
290.3349886397992
 30
0
 10
-1562.42563200769
 20
290.3349886397987
 30
0
  0
SPLINE
  5
56
100
AcDbEntity
  8
默认
  6
ByLayer
 62
  256
370
   -1
100
AcDbSpline
210
0
220
0
230
0
 70
    8
 71
    2
 72
    6
 73
    3
 74
    0
 42
1e-07
 43
1e-07
 40
0
 40
0
 40
0
 40
1
 40
1
 40
1
 10
-1575.92563200769
 20
276.8355886397989
 30
0
 10
-1575.92563200769
 20
276.3355886397985
 30
0
 10
-1575.42563200769
 20
276.3355886397989
 30
0
  0
SPLINE
  5
57
100
AcDbEntity
  8
默认
  6
ByLayer
 62
  256
370
   -1
100
AcDbSpline
210
0
220
0
230
0
 70
    8
 71
    2
 72
    6
 73
    3
 74
    0
 42
1e-07
 43
1e-07
 40
0
 40
0
 40
0
 40
1
 40
1
 40
1
 10
-1575.92563200769
 20
289.8349886397987
 30
0
 10
-1575.92563200769
 20
283.3352886397988
 30
0
 10
-1575.92563200769
 20
276.8355886397989
 30
0
  0
SPLINE
  5
58
100
AcDbEntity
  8
默认
  6
ByLayer
 62
  256
370
   -1
100
AcDbSpline
210
0
220
0
230
0
 70
    8
 71
    2
 72
    6
 73
    3
 74
    0
 42
1e-07
 43
1e-07
 40
0
 40
0
 40
0
 40
1
 40
1
 40
1
 10
-1575.42563200769
 20
290.3349886397991
 30
0
 10
-1575.92563200769
 20
290.3349886397981
 30
0
 10
-1575.92563200769
 20
289.8349886397987
 30
0
  0
SPLINE
  5
59
100
AcDbEntity
  8
默认
  6
ByLayer
 62
  256
370
   -1
100
AcDbSpline
210
0
220
0
230
0
 70
    8
 71
    2
 72
    6
 73
    3
 74
    0
 42
1e-07
 43
1e-07
 40
0
 40
0
 40
0
 40
1
 40
1
 40
1
 10
-1495.25063200769
 20
295.8857886397991
 30
0
 10
-1495.25063200769
 20
302.3854386397988
 30
0
 10
-1495.25063200769
 20
308.8850886397986
 30
0
  0
SPLINE
  5
5A
100
AcDbEntity
  8
默认
  6
ByLayer
 62
  256
370
   -1
100
AcDbSpline
210
0
220
0
230
0
 70
    8
 71
    2
 72
    6
 73
    3
 74
    0
 42
1e-07
 43
1e-07
 40
0
 40
0
 40
0
 40
1
 40
1
 40
1
 10
-1495.75063200769
 20
295.3857886397991
 30
0
 10
-1495.25063200769
 20
295.3857886397992
 30
0
 10
-1495.25063200769
 20
295.8857886397991
 30
0
  0
SPLINE
  5
5B
100
AcDbEntity
  8
默认
  6
ByLayer
 62
  256
370
   -1
100
AcDbSpline
210
0
220
0
230
0
 70
    8
 71
    2
 72
    6
 73
    3
 74
    0
 42
1e-07
 43
1e-07
 40
0
 40
0
 40
0
 40
1
 40
1
 40
1
 10
-1508.75063200769
 20
295.3857886397991
 30
0
 10
-1502.25063200769
 20
295.3857886397991
 30
0
 10
-1495.75063200769
 20
295.3857886397991
 30
0
  0
SPLINE
  5
5C
100
AcDbEntity
  8
默认
  6
ByLayer
 62
  256
370
   -1
100
AcDbSpline
210
0
220
0
230
0
 70
    8
 71
    2
 72
    6
 73
    3
 74
    0
 42
1e-07
 43
1e-07
 40
0
 40
0
 40
0
 40
1
 40
1
 40
1
 10
-1509.25063200769
 20
295.8857886397986
 30
0
 10
-1509.25063200769
 20
295.3857886397985
 30
0
 10
-1508.75063200769
 20
295.3857886397991
 30
0
  0
SPLINE
  5
5D
100
AcDbEntity
  8
默认
  6
ByLayer
 62
  256
370
   -1
100
AcDbSpline
210
0
220
0
230
0
 70
    8
 71
    2
 72
    6
 73
    3
 74
    0
 42
1e-07
 43
1e-07
 40
0
 40
0
 40
0
 40
1
 40
1
 40
1
 10
-1509.25063200769
 20
308.8850886397991
 30
0
 10
-1509.25063200769
 20
302.3854386397988
 30
0
 10
-1509.25063200769
 20
295.8857886397986
 30
0
  0
SPLINE
  5
5E
100
AcDbEntity
  8
默认
  6
ByLayer
 62
  256
370
   -1
100
AcDbSpline
210
0
220
0
230
0
 70
    8
 71
    2
 72
    6
 73
    3
 74
    0
 42
1e-07
 43
1e-07
 40
0
 40
0
 40
0
 40
1
 40
1
 40
1
 10
-1508.75063200769
 20
309.3850886397991
 30
0
 10
-1509.25063200769
 20
309.3850886397988
 30
0
 10
-1509.25063200769
 20
308.8850886397991
 30
0
  0
SPLINE
  5
5F
100
AcDbEntity
  8
默认
  6
ByLayer
 62
  256
370
   -1
100
AcDbSpline
210
0
220
0
230
0
 70
    8
 71
    2
 72
    6
 73
    3
 74
    0
 42
1e-07
 43
1e-07
 40
0
 40
0
 40
0
 40
1
 40
1
 40
1
 10
-1495.75063200769
 20
309.3850886397991
 30
0
 10
-1502.25063200769
 20
309.3850886397991
 30
0
 10
-1508.75063200769
 20
309.3850886397991
 30
0
  0
SPLINE
  5
60
100
AcDbEntity
  8
默认
  6
ByLayer
 62
  256
370
   -1
100
AcDbSpline
210
0
220
0
230
0
 70
    8
 71
    2
 72
    6
 73
    3
 74
    0
 42
1e-07
 43
1e-07
 40
0
 40
0
 40
0
 40
1
 40
1
 40
1
 10
-1495.25063200769
 20
308.8850886397986
 30
0
 10
-1495.25063200769
 20
309.3850886397984
 30
0
 10
-1495.75063200769
 20
309.3850886397991
 30
0
  0
SPLINE
  5
61
100
AcDbEntity
  8
默认
  6
ByLayer
 62
  256
370
   -1
100
AcDbSpline
210
0
220
0
230
0
 70
    8
 71
    2
 72
    6
 73
    3
 74
    0
 42
1e-07
 43
1e-07
 40
0
 40
0
 40
0
 40
1
 40
1
 40
1
 10
-1524.32563200769
 20
290.3349886397987
 30
0
 10
-1530.82563200769
 20
290.3349886397987
 30
0
 10
-1537.32563200769
 20
290.3349886397987
 30
0
  0
SPLINE
  5
62
100
AcDbEntity
  8
默认
  6
ByLayer
 62
  256
370
   -1
100
AcDbSpline
210
0
220
0
230
0
 70
    8
 71
    2
 72
    6
 73
    3
 74
    0
 42
1e-07
 43
1e-07
 40
0
 40
0
 40
0
 40
1
 40
1
 40
1
 10
-1523.82563200769
 20
289.8349886397987
 30
0
 10
-1523.825632007691
 20
290.334988639798
 30
0
 10
-1524.32563200769
 20
290.3349886397987
 30
0
  0
SPLINE
  5
63
100
AcDbEntity
  8
默认
  6
ByLayer
 62
  256
370
   -1
100
AcDbSpline
210
0
220
0
230
0
 70
    8
 71
    2
 72
    6
 73
    3
 74
    0
 42
1e-07
 43
1e-07
 40
0
 40
0
 40
0
 40
1
 40
1
 40
1
 10
-1523.82563200769
 20
276.8355886397989
 30
0
 10
-1523.82563200769
 20
283.3352886397988
 30
0
 10
-1523.82563200769
 20
289.8349886397987
 30
0
  0
SPLINE
  5
64
100
AcDbEntity
  8
默认
  6
ByLayer
 62
  256
370
   -1
100
AcDbSpline
210
0
220
0
230
0
 70
    8
 71
    2
 72
    6
 73
    3
 74
    0
 42
1e-07
 43
1e-07
 40
0
 40
0
 40
0
 40
1
 40
1
 40
1
 10
-1524.32563200769
 20
276.3355886397989
 30
0
 10
-1523.82563200769
 20
276.3355886397992
 30
0
 10
-1523.82563200769
 20
276.8355886397989
 30
0
  0
SPLINE
  5
65
100
AcDbEntity
  8
默认
  6
ByLayer
 62
  256
370
   -1
100
AcDbSpline
210
0
220
0
230
0
 70
    8
 71
    2
 72
    6
 73
    3
 74
    0
 42
1e-07
 43
1e-07
 40
0
 40
0
 40
0
 40
1
 40
1
 40
1
 10
-1537.32563200769
 20
276.3355886397989
 30
0
 10
-1530.82563200769
 20
276.3355886397989
 30
0
 10
-1524.32563200769
 20
276.3355886397989
 30
0
  0
SPLINE
  5
66
100
AcDbEntity
  8
默认
  6
ByLayer
 62
  256
370
   -1
100
AcDbSpline
210
0
220
0
230
0
 70
    8
 71
    2
 72
    6
 73
    3
 74
    0
 42
1e-07
 43
1e-07
 40
0
 40
0
 40
0
 40
1
 40
1
 40
1
 10
-1537.82563200769
 20
276.8355886397989
 30
0
 10
-1537.825632007691
 20
276.3355886397979
 30
0
 10
-1537.32563200769
 20
276.3355886397989
 30
0
  0
SPLINE
  5
67
100
AcDbEntity
  8
默认
  6
ByLayer
 62
  256
370
   -1
100
AcDbSpline
210
0
220
0
230
0
 70
    8
 71
    2
 72
    6
 73
    3
 74
    0
 42
1e-07
 43
1e-07
 40
0
 40
0
 40
0
 40
1
 40
1
 40
1
 10
-1537.82563200769
 20
289.8349886397982
 30
0
 10
-1537.82563200769
 20
283.3352886397988
 30
0
 10
-1537.82563200769
 20
276.8355886397989
 30
0
  0
SPLINE
  5
68
100
AcDbEntity
  8
默认
  6
ByLayer
 62
  256
370
   -1
100
AcDbSpline
210
0
220
0
230
0
 70
    8
 71
    2
 72
    6
 73
    3
 74
    0
 42
1e-07
 43
1e-07
 40
0
 40
0
 40
0
 40
1
 40
1
 40
1
 10
-1537.32563200769
 20
290.3349886397987
 30
0
 10
-1537.82563200769
 20
290.3349886397992
 30
0
 10
-1537.82563200769
 20
289.8349886397982
 30
0
  0
SPLINE
  5
69
100
AcDbEntity
  8
默认
  6
ByLayer
 62
  256
370
   -1
100
AcDbSpline
210
0
220
0
230
0
 70
    8
 71
    2
 72
    6
 73
    3
 74
    0
 42
1e-07
 43
1e-07
 40
0
 40
0
 40
0
 40
1
 40
1
 40
1
 10
-1489.70063200769
 20
309.3850886397986
 30
0
 10
-1490.200632007691
 20
309.3850886397994
 30
0
 10
-1490.20063200769
 20
308.8850886397991
 30
0
  0
SPLINE
  5
6A
100
AcDbEntity
  8
默认
  6
ByLayer
 62
  256
370
   -1
100
AcDbSpline
210
0
220
0
230
0
 70
    8
 71
    2
 72
    6
 73
    3
 74
    0
 42
1e-07
 43
1e-07
 40
0
 40
0
 40
0
 40
1
 40
1
 40
1
 10
-1476.70063200769
 20
309.3850886397991
 30
0
 10
-1483.20063200769
 20
309.3850886397986
 30
0
 10
-1489.70063200769
 20
309.3850886397986
 30
0
  0
SPLINE
  5
6B
100
AcDbEntity
  8
默认
  6
ByLayer
 62
  256
370
   -1
100
AcDbSpline
210
0
220
0
230
0
 70
    8
 71
    2
 72
    6
 73
    3
 74
    0
 42
1e-07
 43
1e-07
 40
0
 40
0
 40
0
 40
1
 40
1
 40
1
 10
-1476.20063200769
 20
308.8850886397991
 30
0
 10
-1476.20063200769
 20
309.3850886397983
 30
0
 10
-1476.70063200769
 20
309.3850886397991
 30
0
  0
SPLINE
  5
6C
100
AcDbEntity
  8
默认
  6
ByLayer
 62
  256
370
   -1
100
AcDbSpline
210
0
220
0
230
0
 70
    8
 71
    2
 72
    6
 73
    3
 74
    0
 42
1e-07
 43
1e-07
 40
0
 40
0
 40
0
 40
1
 40
1
 40
1
 10
-1476.20063200769
 20
295.8857886397986
 30
0
 10
-1476.20063200769
 20
302.3854386397988
 30
0
 10
-1476.20063200769
 20
308.8850886397991
 30
0
  0
SPLINE
  5
6D
100
AcDbEntity
  8
默认
  6
ByLayer
 62
  256
370
   -1
100
AcDbSpline
210
0
220
0
230
0
 70
    8
 71
    2
 72
    6
 73
    3
 74
    0
 42
1e-07
 43
1e-07
 40
0
 40
0
 40
0
 40
1
 40
1
 40
1
 10
-1476.70063200769
 20
295.3857886397991
 30
0
 10
-1476.200632007691
 20
295.3857886397996
 30
0
 10
-1476.20063200769
 20
295.8857886397986
 30
0
  0
SPLINE
  5
6E
100
AcDbEntity
  8
默认
  6
ByLayer
 62
  256
370
   -1
100
AcDbSpline
210
0
220
0
230
0
 70
    8
 71
    2
 72
    6
 73
    3
 74
    0
 42
1e-07
 43
1e-07
 40
0
 40
0
 40
0
 40
1
 40
1
 40
1
 10
-1489.70063200769
 20
295.3857886397991
 30
0
 10
-1483.20063200769
 20
295.3857886397991
 30
0
 10
-1476.70063200769
 20
295.3857886397991
 30
0
  0
SPLINE
  5
6F
100
AcDbEntity
  8
默认
  6
ByLayer
 62
  256
370
   -1
100
AcDbSpline
210
0
220
0
230
0
 70
    8
 71
    2
 72
    6
 73
    3
 74
    0
 42
1e-07
 43
1e-07
 40
0
 40
0
 40
0
 40
1
 40
1
 40
1
 10
-1490.20063200769
 20
295.8857886397991
 30
0
 10
-1490.20063200769
 20
295.3857886397992
 30
0
 10
-1489.70063200769
 20
295.3857886397991
 30
0
  0
SPLINE
  5
70
100
AcDbEntity
  8
默认
  6
ByLayer
 62
  256
370
   -1
100
AcDbSpline
210
0
220
0
230
0
 70
    8
 71
    2
 72
    6
 73
    3
 74
    0
 42
1e-07
 43
1e-07
 40
0
 40
0
 40
0
 40
1
 40
1
 40
1
 10
-1490.20063200769
 20
308.8850886397991
 30
0
 10
-1490.20063200769
 20
302.3854386397988
 30
0
 10
-1490.20063200769
 20
295.8857886397991
 30
0
  0
SPLINE
  5
71
100
AcDbEntity
  8
默认
  6
ByLayer
 62
  256
370
   -1
100
AcDbSpline
210
0
220
0
230
0
 70
    8
 71
    2
 72
    6
 73
    3
 74
    0
 42
1e-07
 43
1e-07
 40
0
 40
0
 40
0
 40
1
 40
1
 40
1
 10
-1590.21263200769
 20
327.9350886397988
 30
0
 10
-1590.21263200769
 20
321.435438639799
 30
0
 10
-1590.21263200769
 20
314.9357886397988
 30
0
  0
SPLINE
  5
72
100
AcDbEntity
  8
默认
  6
ByLayer
 62
  256
370
   -1
100
AcDbSpline
210
0
220
0
230
0
 70
    8
 71
    2
 72
    6
 73
    3
 74
    0
 42
1e-07
 43
1e-07
 40
0
 40
0
 40
0
 40
1
 40
1
 40
1
 10
-1589.71263200769
 20
328.4350886397988
 30
0
 10
-1590.21263200769
 20
328.4350886397989
 30
0
 10
-1590.21263200769
 20
327.9350886397988
 30
0
  0
SPLINE
  5
73
100
AcDbEntity
  8
默认
  6
ByLayer
 62
  256
370
   -1
100
AcDbSpline
210
0
220
0
230
0
 70
    8
 71
    2
 72
    6
 73
    3
 74
    0
 42
1e-07
 43
1e-07
 40
0
 40
0
 40
0
 40
1
 40
1
 40
1
 10
-1576.71363200769
 20
328.4350886397988
 30
0
 10
-1583.21313200769
 20
328.4350886397988
 30
0
 10
-1589.71263200769
 20
328.4350886397988
 30
0
  0
SPLINE
  5
74
100
AcDbEntity
  8
默认
  6
ByLayer
 62
  256
370
   -1
100
AcDbSpline
210
0
220
0
230
0
 70
    8
 71
    2
 72
    6
 73
    3
 74
    0
 42
1e-07
 43
1e-07
 40
0
 40
0
 40
0
 40
1
 40
1
 40
1
 10
-1576.21363200769
 20
327.9350886397988
 30
0
 10
-1576.21363200769
 20
328.4350886397983
 30
0
 10
-1576.71363200769
 20
328.4350886397988
 30
0
  0
SPLINE
  5
75
100
AcDbEntity
  8
默认
  6
ByLayer
 62
  256
370
   -1
100
AcDbSpline
210
0
220
0
230
0
 70
    8
 71
    2
 72
    6
 73
    3
 74
    0
 42
1e-07
 43
1e-07
 40
0
 40
0
 40
0
 40
1
 40
1
 40
1
 10
-1576.21363200769
 20
314.9357886397988
 30
0
 10
-1576.21363200769
 20
321.435438639799
 30
0
 10
-1576.21363200769
 20
327.9350886397988
 30
0
  0
SPLINE
  5
76
100
AcDbEntity
  8
默认
  6
ByLayer
 62
  256
370
   -1
100
AcDbSpline
210
0
220
0
230
0
 70
    8
 71
    2
 72
    6
 73
    3
 74
    0
 42
1e-07
 43
1e-07
 40
0
 40
0
 40
0
 40
1
 40
1
 40
1
 10
-1576.71363200769
 20
314.4357886397988
 30
0
 10
-1576.21363200769
 20
314.4357886397992
 30
0
 10
-1576.21363200769
 20
314.9357886397988
 30
0
  0
SPLINE
  5
77
100
AcDbEntity
  8
默认
  6
ByLayer
 62
  256
370
   -1
100
AcDbSpline
210
0
220
0
230
0
 70
    8
 71
    2
 72
    6
 73
    3
 74
    0
 42
1e-07
 43
1e-07
 40
0
 40
0
 40
0
 40
1
 40
1
 40
1
 10
-1589.71263200769
 20
314.4357886397988
 30
0
 10
-1583.21313200769
 20
314.4357886397988
 30
0
 10
-1576.71363200769
 20
314.4357886397988
 30
0
  0
SPLINE
  5
78
100
AcDbEntity
  8
默认
  6
ByLayer
 62
  256
370
   -1
100
AcDbSpline
210
0
220
0
230
0
 70
    8
 71
    2
 72
    6
 73
    3
 74
    0
 42
1e-07
 43
1e-07
 40
0
 40
0
 40
0
 40
1
 40
1
 40
1
 10
-1590.21263200769
 20
314.9357886397988
 30
0
 10
-1590.212632007689
 20
314.4357886397992
 30
0
 10
-1589.71263200769
 20
314.4357886397988
 30
0
  0
SPLINE
  5
79
100
AcDbEntity
  8
默认
  6
ByLayer
 62
  256
370
   -1
100
AcDbSpline
210
0
220
0
230
0
 70
    8
 71
    2
 72
    6
 73
    3
 74
    0
 42
1e-07
 43
1e-07
 40
0
 40
0
 40
0
 40
1
 40
1
 40
1
 10
-1500.01363200769
 20
314.9357886397988
 30
0
 10
-1500.01363200769
 20
321.435438639799
 30
0
 10
-1500.01363200769
 20
327.9350886397988
 30
0
  0
SPLINE
  5
7A
100
AcDbEntity
  8
默认
  6
ByLayer
 62
  256
370
   -1
100
AcDbSpline
210
0
220
0
230
0
 70
    8
 71
    2
 72
    6
 73
    3
 74
    0
 42
1e-07
 43
1e-07
 40
0
 40
0
 40
0
 40
1
 40
1
 40
1
 10
-1500.51363200769
 20
314.4357886397988
 30
0
 10
-1500.01363200769
 20
314.4357886397992
 30
0
 10
-1500.01363200769
 20
314.9357886397988
 30
0
  0
SPLINE
  5
7B
100
AcDbEntity
  8
默认
  6
ByLayer
 62
  256
370
   -1
100
AcDbSpline
210
0
220
0
230
0
 70
    8
 71
    2
 72
    6
 73
    3
 74
    0
 42
1e-07
 43
1e-07
 40
0
 40
0
 40
0
 40
1
 40
1
 40
1
 10
-1513.512632007689
 20
314.4357886397988
 30
0
 10
-1507.01313200769
 20
314.4357886397988
 30
0
 10
-1500.51363200769
 20
314.4357886397988
 30
0
  0
SPLINE
  5
7C
100
AcDbEntity
  8
默认
  6
ByLayer
 62
  256
370
   -1
100
AcDbSpline
210
0
220
0
230
0
 70
    8
 71
    2
 72
    6
 73
    3
 74
    0
 42
1e-07
 43
1e-07
 40
0
 40
0
 40
0
 40
1
 40
1
 40
1
 10
-1514.01263200769
 20
314.9357886397988
 30
0
 10
-1514.01263200769
 20
314.4357886397983
 30
0
 10
-1513.512632007689
 20
314.4357886397988
 30
0
  0
SPLINE
  5
7D
100
AcDbEntity
  8
默认
  6
ByLayer
 62
  256
370
   -1
100
AcDbSpline
210
0
220
0
230
0
 70
    8
 71
    2
 72
    6
 73
    3
 74
    0
 42
1e-07
 43
1e-07
 40
0
 40
0
 40
0
 40
1
 40
1
 40
1
 10
-1514.01263200769
 20
327.9350886397988
 30
0
 10
-1514.01263200769
 20
321.435438639799
 30
0
 10
-1514.01263200769
 20
314.9357886397988
 30
0
  0
SPLINE
  5
7E
100
AcDbEntity
  8
默认
  6
ByLayer
 62
  256
370
   -1
100
AcDbSpline
210
0
220
0
230
0
 70
    8
 71
    2
 72
    6
 73
    3
 74
    0
 42
1e-07
 43
1e-07
 40
0
 40
0
 40
0
 40
1
 40
1
 40
1
 10
-1513.51263200769
 20
328.4350886397988
 30
0
 10
-1514.01263200769
 20
328.4350886397997
 30
0
 10
-1514.01263200769
 20
327.9350886397988
 30
0
  0
SPLINE
  5
7F
100
AcDbEntity
  8
默认
  6
ByLayer
 62
  256
370
   -1
100
AcDbSpline
210
0
220
0
230
0
 70
    8
 71
    2
 72
    6
 73
    3
 74
    0
 42
1e-07
 43
1e-07
 40
0
 40
0
 40
0
 40
1
 40
1
 40
1
 10
-1500.51363200769
 20
328.4350886397988
 30
0
 10
-1507.01313200769
 20
328.4350886397988
 30
0
 10
-1513.51263200769
 20
328.4350886397988
 30
0
  0
SPLINE
  5
80
100
AcDbEntity
  8
默认
  6
ByLayer
 62
  256
370
   -1
100
AcDbSpline
210
0
220
0
230
0
 70
    8
 71
    2
 72
    6
 73
    3
 74
    0
 42
1e-07
 43
1e-07
 40
0
 40
0
 40
0
 40
1
 40
1
 40
1
 10
-1500.01363200769
 20
327.9350886397988
 30
0
 10
-1500.01363200769
 20
328.4350886397986
 30
0
 10
-1500.51363200769
 20
328.4350886397988
 30
0
  0
SPLINE
  5
81
100
AcDbEntity
  8
默认
  6
ByLayer
 62
  256
370
   -1
100
AcDbSpline
210
0
220
0
230
0
 70
    8
 71
    2
 72
    6
 73
    3
 74
    0
 42
1e-07
 43
1e-07
 40
0
 40
0
 40
0
 40
1
 40
1
 40
1
 10
-1614.02543200769
 20
289.8349886397987
 30
0
 10
-1614.02543200769
 20
283.3352886397988
 30
0
 10
-1614.02543200769
 20
276.8355886397989
 30
0
  0
SPLINE
  5
82
100
AcDbEntity
  8
默认
  6
ByLayer
 62
  256
370
   -1
100
AcDbSpline
210
0
220
0
230
0
 70
    8
 71
    2
 72
    6
 73
    3
 74
    0
 42
1e-07
 43
1e-07
 40
0
 40
0
 40
0
 40
1
 40
1
 40
1
 10
-1613.52543200769
 20
290.3349886397987
 30
0
 10
-1614.02543200769
 20
290.3349886397988
 30
0
 10
-1614.02543200769
 20
289.8349886397987
 30
0
  0
SPLINE
  5
83
100
AcDbEntity
  8
默认
  6
ByLayer
 62
  256
370
   -1
100
AcDbSpline
210
0
220
0
230
0
 70
    8
 71
    2
 72
    6
 73
    3
 74
    0
 42
1e-07
 43
1e-07
 40
0
 40
0
 40
0
 40
1
 40
1
 40
1
 10
-1600.52613200769
 20
290.3349886397987
 30
0
 10
-1607.02578200769
 20
290.3349886397987
 30
0
 10
-1613.52543200769
 20
290.3349886397987
 30
0
  0
SPLINE
  5
84
100
AcDbEntity
  8
默认
  6
ByLayer
 62
  256
370
   -1
100
AcDbSpline
210
0
220
0
230
0
 70
    8
 71
    2
 72
    6
 73
    3
 74
    0
 42
1e-07
 43
1e-07
 40
0
 40
0
 40
0
 40
1
 40
1
 40
1
 10
-1600.02613200769
 20
289.8349886397987
 30
0
 10
-1600.026132007691
 20
290.3349886397978
 30
0
 10
-1600.52613200769
 20
290.3349886397987
 30
0
  0
SPLINE
  5
85
100
AcDbEntity
  8
默认
  6
ByLayer
 62
  256
370
   -1
100
AcDbSpline
210
0
220
0
230
0
 70
    8
 71
    2
 72
    6
 73
    3
 74
    0
 42
1e-07
 43
1e-07
 40
0
 40
0
 40
0
 40
1
 40
1
 40
1
 10
-1600.02613200769
 20
276.8355886397989
 30
0
 10
-1600.02613200769
 20
283.3352886397988
 30
0
 10
-1600.02613200769
 20
289.8349886397987
 30
0
  0
SPLINE
  5
86
100
AcDbEntity
  8
默认
  6
ByLayer
 62
  256
370
   -1
100
AcDbSpline
210
0
220
0
230
0
 70
    8
 71
    2
 72
    6
 73
    3
 74
    0
 42
1e-07
 43
1e-07
 40
0
 40
0
 40
0
 40
1
 40
1
 40
1
 10
-1600.52613200769
 20
276.3355886397989
 30
0
 10
-1600.02613200769
 20
276.3355886397982
 30
0
 10
-1600.02613200769
 20
276.8355886397989
 30
0
  0
SPLINE
  5
87
100
AcDbEntity
  8
默认
  6
ByLayer
 62
  256
370
   -1
100
AcDbSpline
210
0
220
0
230
0
 70
    8
 71
    2
 72
    6
 73
    3
 74
    0
 42
1e-07
 43
1e-07
 40
0
 40
0
 40
0
 40
1
 40
1
 40
1
 10
-1613.52543200769
 20
276.3355886397989
 30
0
 10
-1607.02578200769
 20
276.3355886397989
 30
0
 10
-1600.52613200769
 20
276.3355886397989
 30
0
  0
SPLINE
  5
88
100
AcDbEntity
  8
默认
  6
ByLayer
 62
  256
370
   -1
100
AcDbSpline
210
0
220
0
230
0
 70
    8
 71
    2
 72
    6
 73
    3
 74
    0
 42
1e-07
 43
1e-07
 40
0
 40
0
 40
0
 40
1
 40
1
 40
1
 10
-1614.02543200769
 20
276.8355886397989
 30
0
 10
-1614.02543200769
 20
276.3355886397979
 30
0
 10
-1613.52543200769
 20
276.3355886397989
 30
0
  0
SPLINE
  5
89
100
AcDbEntity
  8
默认
  6
ByLayer
 62
  256
370
   -1
100
AcDbSpline
210
0
220
0
230
0
 70
    8
 71
    2
 72
    6
 73
    3
 74
    0
 42
1e-07
 43
1e-07
 40
0
 40
0
 40
0
 40
1
 40
1
 40
1
 10
-1581.475632007689
 20
290.3349886397987
 30
0
 10
-1587.975632007689
 20
290.3349886397987
 30
0
 10
-1594.475632007689
 20
290.3349886397987
 30
0
  0
SPLINE
  5
8A
100
AcDbEntity
  8
默认
  6
ByLayer
 62
  256
370
   -1
100
AcDbSpline
210
0
220
0
230
0
 70
    8
 71
    2
 72
    6
 73
    3
 74
    0
 42
1e-07
 43
1e-07
 40
0
 40
0
 40
0
 40
1
 40
1
 40
1
 10
-1580.975632007689
 20
289.8349886397987
 30
0
 10
-1580.97563200769
 20
290.3349886397981
 30
0
 10
-1581.475632007689
 20
290.3349886397987
 30
0
  0
SPLINE
  5
8B
100
AcDbEntity
  8
默认
  6
ByLayer
 62
  256
370
   -1
100
AcDbSpline
210
0
220
0
230
0
 70
    8
 71
    2
 72
    6
 73
    3
 74
    0
 42
1e-07
 43
1e-07
 40
0
 40
0
 40
0
 40
1
 40
1
 40
1
 10
-1580.975632007689
 20
276.8355886397989
 30
0
 10
-1580.975632007689
 20
283.3352886397988
 30
0
 10
-1580.975632007689
 20
289.8349886397987
 30
0
  0
SPLINE
  5
8C
100
AcDbEntity
  8
默认
  6
ByLayer
 62
  256
370
   -1
100
AcDbSpline
210
0
220
0
230
0
 70
    8
 71
    2
 72
    6
 73
    3
 74
    0
 42
1e-07
 43
1e-07
 40
0
 40
0
 40
0
 40
1
 40
1
 40
1
 10
-1581.475632007689
 20
276.3355886397989
 30
0
 10
-1580.975632007689
 20
276.3355886397979
 30
0
 10
-1580.975632007689
 20
276.8355886397989
 30
0
  0
SPLINE
  5
8D
100
AcDbEntity
  8
默认
  6
ByLayer
 62
  256
370
   -1
100
AcDbSpline
210
0
220
0
230
0
 70
    8
 71
    2
 72
    6
 73
    3
 74
    0
 42
1e-07
 43
1e-07
 40
0
 40
0
 40
0
 40
1
 40
1
 40
1
 10
-1594.475632007689
 20
276.3355886397989
 30
0
 10
-1587.975632007689
 20
276.3355886397989
 30
0
 10
-1581.475632007689
 20
276.3355886397989
 30
0
  0
SPLINE
  5
8E
100
AcDbEntity
  8
默认
  6
ByLayer
 62
  256
370
   -1
100
AcDbSpline
210
0
220
0
230
0
 70
    8
 71
    2
 72
    6
 73
    3
 74
    0
 42
1e-07
 43
1e-07
 40
0
 40
0
 40
0
 40
1
 40
1
 40
1
 10
-1594.975632007689
 20
276.8355886397989
 30
0
 10
-1594.97563200769
 20
276.3355886397989
 30
0
 10
-1594.475632007689
 20
276.3355886397989
 30
0
  0
SPLINE
  5
8F
100
AcDbEntity
  8
默认
  6
ByLayer
 62
  256
370
   -1
100
AcDbSpline
210
0
220
0
230
0
 70
    8
 71
    2
 72
    6
 73
    3
 74
    0
 42
1e-07
 43
1e-07
 40
0
 40
0
 40
0
 40
1
 40
1
 40
1
 10
-1594.975632007689
 20
289.8349886397987
 30
0
 10
-1594.975632007689
 20
283.3352886397988
 30
0
 10
-1594.975632007689
 20
276.8355886397989
 30
0
  0
SPLINE
  5
90
100
AcDbEntity
  8
默认
  6
ByLayer
 62
  256
370
   -1
100
AcDbSpline
210
0
220
0
230
0
 70
    8
 71
    2
 72
    6
 73
    3
 74
    0
 42
1e-07
 43
1e-07
 40
0
 40
0
 40
0
 40
1
 40
1
 40
1
 10
-1594.475632007689
 20
290.3349886397987
 30
0
 10
-1594.97563200769
 20
290.334988639799
 30
0
 10
-1594.975632007689
 20
289.8349886397987
 30
0
  0
SPLINE
  5
91
100
AcDbEntity
  8
默认
  6
ByLayer
 62
  256
370
   -1
100
AcDbSpline
210
0
220
0
230
0
 70
    8
 71
    2
 72
    6
 73
    3
 74
    0
 42
1e-07
 43
1e-07
 40
0
 40
0
 40
0
 40
1
 40
1
 40
1
 10
-1486.225632007689
 20
290.3349886397987
 30
0
 10
-1492.725632007689
 20
290.3349886397987
 30
0
 10
-1499.225632007689
 20
290.3349886397987
 30
0
  0
SPLINE
  5
92
100
AcDbEntity
  8
默认
  6
ByLayer
 62
  256
370
   -1
100
AcDbSpline
210
0
220
0
230
0
 70
    8
 71
    2
 72
    6
 73
    3
 74
    0
 42
1e-07
 43
1e-07
 40
0
 40
0
 40
0
 40
1
 40
1
 40
1
 10
-1485.725632007689
 20
289.8349886397987
 30
0
 10
-1485.725632007689
 20
290.3349886397996
 30
0
 10
-1486.225632007689
 20
290.3349886397987
 30
0
  0
SPLINE
  5
93
100
AcDbEntity
  8
默认
  6
ByLayer
 62
  256
370
   -1
100
AcDbSpline
210
0
220
0
230
0
 70
    8
 71
    2
 72
    6
 73
    3
 74
    0
 42
1e-07
 43
1e-07
 40
0
 40
0
 40
0
 40
1
 40
1
 40
1
 10
-1485.725632007689
 20
276.8355886397989
 30
0
 10
-1485.725632007689
 20
283.3352886397988
 30
0
 10
-1485.725632007689
 20
289.8349886397987
 30
0
  0
SPLINE
  5
94
100
AcDbEntity
  8
默认
  6
ByLayer
 62
  256
370
   -1
100
AcDbSpline
210
0
220
0
230
0
 70
    8
 71
    2
 72
    6
 73
    3
 74
    0
 42
1e-07
 43
1e-07
 40
0
 40
0
 40
0
 40
1
 40
1
 40
1
 10
-1486.225632007689
 20
276.3355886397989
 30
0
 10
-1485.725632007689
 20
276.335588639799
 30
0
 10
-1485.725632007689
 20
276.8355886397989
 30
0
  0
SPLINE
  5
95
100
AcDbEntity
  8
默认
  6
ByLayer
 62
  256
370
   -1
100
AcDbSpline
210
0
220
0
230
0
 70
    8
 71
    2
 72
    6
 73
    3
 74
    0
 42
1e-07
 43
1e-07
 40
0
 40
0
 40
0
 40
1
 40
1
 40
1
 10
-1499.225632007689
 20
276.3355886397989
 30
0
 10
-1492.725632007689
 20
276.3355886397989
 30
0
 10
-1486.225632007689
 20
276.3355886397989
 30
0
  0
SPLINE
  5
96
100
AcDbEntity
  8
默认
  6
ByLayer
 62
  256
370
   -1
100
AcDbSpline
210
0
220
0
230
0
 70
    8
 71
    2
 72
    6
 73
    3
 74
    0
 42
1e-07
 43
1e-07
 40
0
 40
0
 40
0
 40
1
 40
1
 40
1
 10
-1499.725632007689
 20
276.8355886397989
 30
0
 10
-1499.725632007689
 20
276.3355886397986
 30
0
 10
-1499.225632007689
 20
276.3355886397989
 30
0
  0
SPLINE
  5
97
100
AcDbEntity
  8
默认
  6
ByLayer
 62
  256
370
   -1
100
AcDbSpline
210
0
220
0
230
0
 70
    8
 71
    2
 72
    6
 73
    3
 74
    0
 42
1e-07
 43
1e-07
 40
0
 40
0
 40
0
 40
1
 40
1
 40
1
 10
-1499.725632007689
 20
289.8349886397987
 30
0
 10
-1499.725632007689
 20
283.3352886397988
 30
0
 10
-1499.725632007689
 20
276.8355886397989
 30
0
  0
SPLINE
  5
98
100
AcDbEntity
  8
默认
  6
ByLayer
 62
  256
370
   -1
100
AcDbSpline
210
0
220
0
230
0
 70
    8
 71
    2
 72
    6
 73
    3
 74
    0
 42
1e-07
 43
1e-07
 40
0
 40
0
 40
0
 40
1
 40
1
 40
1
 10
-1499.225632007689
 20
290.3349886397987
 30
0
 10
-1499.72563200769
 20
290.3349886397992
 30
0
 10
-1499.725632007689
 20
289.8349886397987
 30
0
  0
SPLINE
  5
99
100
AcDbEntity
  8
默认
  6
ByLayer
 62
  256
370
   -1
100
AcDbSpline
210
0
220
0
230
0
 70
    8
 71
    2
 72
    6
 73
    3
 74
    0
 42
1e-07
 43
1e-07
 40
0
 40
0
 40
0
 40
1
 40
1
 40
1
 10
-1657.66328200769
 20
331.9554386397981
 30
0
 10
-1658.16328200769
 20
331.9554386397982
 30
0
 10
-1658.16328200769
 20
332.4554386397981
 30
0
  0
SPLINE
  5
9A
100
AcDbEntity
  8
默认
  6
ByLayer
 62
  256
370
   -1
100
AcDbSpline
210
0
220
0
230
0
 70
    8
 71
    2
 72
    6
 73
    3
 74
    0
 42
1e-07
 43
1e-07
 40
0
 40
0
 40
0
 40
1
 40
1
 40
1
 10
-1651.291176617696
 20
331.9554386397981
 30
0
 10
-1654.477229312693
 20
331.9554386397981
 30
0
 10
-1657.66328200769
 20
331.9554386397981
 30
0
  0
SPLINE
  5
9B
100
AcDbEntity
  8
默认
  6
ByLayer
 62
  256
370
   -1
100
AcDbSpline
210
0
220
0
230
0
 70
    8
 71
    2
 72
   10
 73
    7
 74
    0
 42
1e-07
 43
1e-07
 40
0
 40
0
 40
0
 40
0.2
 40
0.4
 40
0.6
 40
0.8
 40
1
 40
1
 40
1
 10
-1651.291176617696
 20
330.9554386397981
 30
0
 10
-1651.046731558505
 20
330.955438639798
 30
0
 10
-1650.896596494477
 20
331.1483449629491
 30
0
 10
-1650.746461430448
 20
331.3412512861001
 30
0
 10
-1650.806484374293
 20
331.5782125343555
 30
0
 10
-1650.902036796937
 20
331.9554386397983
 30
0
 10
-1651.291176617696
 20
331.9554386397981
 30
0
  0
SPLINE
  5
9C
100
AcDbEntity
  8
默认
  6
ByLayer
 62
  256
370
   -1
100
AcDbSpline
210
0
220
0
230
0
 70
    8
 71
    2
 72
    6
 73
    3
 74
    0
 42
1e-07
 43
1e-07
 40
0
 40
0
 40
0
 40
1
 40
1
 40
1
 10
-1667.53521239771
 20
330.9554386397981
 30
0
 10
-1659.413194507703
 20
330.9554386397981
 30
0
 10
-1651.291176617696
 20
330.9554386397981
 30
0
  0
SPLINE
  5
9D
100
AcDbEntity
  8
默认
  6
ByLayer
 62
  256
370
   -1
100
AcDbSpline
210
0
220
0
230
0
 70
    8
 71
    2
 72
   10
 73
    7
 74
    0
 42
1e-07
 43
1e-07
 40
0
 40
0
 40
0
 40
0.2
 40
0.4
 40
0.6
 40
0.8
 40
1
 40
1
 40
1
 10
-1667.53521239771
 20
331.9554386397981
 30
0
 10
-1667.869190205188
 20
331.9554386397982
 30
0
 10
-1667.997093131845
 20
331.646922809992
 30
0
 10
-1668.099462535446
 20
331.3999966267976
 30
0
 10
-1667.95099003365
 20
331.1777176332979
 30
0
 10
-1667.802517531855
 20
330.9554386397982
 30
0
 10
-1667.53521239771
 20
330.9554386397981
 30
0
  0
SPLINE
  5
9E
100
AcDbEntity
  8
默认
  6
ByLayer
 62
  256
370
   -1
100
AcDbSpline
210
0
220
0
230
0
 70
    8
 71
    2
 72
    6
 73
    3
 74
    0
 42
1e-07
 43
1e-07
 40
0
 40
0
 40
0
 40
1
 40
1
 40
1
 10
-1661.16328200769
 20
331.9554386397981
 30
0
 10
-1664.3492472027
 20
331.9554386397981
 30
0
 10
-1667.53521239771
 20
331.9554386397981
 30
0
  0
SPLINE
  5
9F
100
AcDbEntity
  8
默认
  6
ByLayer
 62
  256
370
   -1
100
AcDbSpline
210
0
220
0
230
0
 70
    8
 71
    2
 72
    6
 73
    3
 74
    0
 42
1e-07
 43
1e-07
 40
0
 40
0
 40
0
 40
1
 40
1
 40
1
 10
-1660.66328200769
 20
332.4554386397981
 30
0
 10
-1660.66328200769
 20
331.9554386397982
 30
0
 10
-1661.16328200769
 20
331.9554386397981
 30
0
  0
SPLINE
  5
A0
100
AcDbEntity
  8
默认
  6
ByLayer
 62
  256
370
   -1
100
AcDbSpline
210
0
220
0
230
0
 70
    8
 71
    2
 72
    6
 73
    3
 74
    0
 42
1e-07
 43
1e-07
 40
0
 40
0
 40
0
 40
1
 40
1
 40
1
 10
-1660.663282007689
 20
333.2554384533071
 30
0
 10
-1660.663282007689
 20
332.8554385465527
 30
0
 10
-1660.66328200769
 20
332.4554386397981
 30
0
  0
SPLINE
  5
A1
100
AcDbEntity
  8
默认
  6
ByLayer
 62
  256
370
   -1
100
AcDbSpline
210
0
220
0
230
0
 70
    8
 71
    2
 72
    8
 73
    5
 74
    0
 42
1e-07
 43
1e-07
 40
0
 40
0
 40
0
 40
0.3333333333333333
 40
0.6666666666666666
 40
1
 40
1
 40
1
 10
-1658.16328200769
 20
333.2554386397992
 30
0
 10
-1658.163282007689
 20
334.5054386398001
 30
0
 10
-1659.413282007689
 20
334.5054386397993
 30
0
 10
-1660.663282007689
 20
334.5054386398
 30
0
 10
-1660.663282007689
 20
333.2554384533071
 30
0
  0
SPLINE
  5
A2
100
AcDbEntity
  8
默认
  6
ByLayer
 62
  256
370
   -1
100
AcDbSpline
210
0
220
0
230
0
 70
    8
 71
    2
 72
    6
 73
    3
 74
    0
 42
1e-07
 43
1e-07
 40
0
 40
0
 40
0
 40
1
 40
1
 40
1
 10
-1658.16328200769
 20
332.4554386397981
 30
0
 10
-1658.16328200769
 20
332.8554386397986
 30
0
 10
-1658.16328200769
 20
333.2554386397992
 30
0
  0
SPLINE
  5
A3
100
AcDbEntity
  8
默认
  6
ByLayer
 62
  256
370
   -1
100
AcDbSpline
210
0
220
0
230
0
 70
    8
 71
    2
 72
    6
 73
    3
 74
    0
 42
1e-07
 43
1e-07
 40
0
 40
0
 40
0
 40
1
 40
1
 40
1
 10
-1485.725782007689
 20
257.7857886397987
 30
0
 10
-1485.725782007689
 20
264.2854386397984
 30
0
 10
-1485.725782007689
 20
270.7850886397982
 30
0
  0
SPLINE
  5
A4
100
AcDbEntity
  8
默认
  6
ByLayer
 62
  256
370
   -1
100
AcDbSpline
210
0
220
0
230
0
 70
    8
 71
    2
 72
    6
 73
    3
 74
    0
 42
1e-07
 43
1e-07
 40
0
 40
0
 40
0
 40
1
 40
1
 40
1
 10
-1486.225782007689
 20
257.2857886397982
 30
0
 10
-1485.725782007689
 20
257.2857886397986
 30
0
 10
-1485.725782007689
 20
257.7857886397987
 30
0
  0
SPLINE
  5
A5
100
AcDbEntity
  8
默认
  6
ByLayer
 62
  256
370
   -1
100
AcDbSpline
210
0
220
0
230
0
 70
    8
 71
    2
 72
    6
 73
    3
 74
    0
 42
1e-07
 43
1e-07
 40
0
 40
0
 40
0
 40
1
 40
1
 40
1
 10
-1499.225782007689
 20
257.2857886397987
 30
0
 10
-1492.725782007689
 20
257.2857886397987
 30
0
 10
-1486.225782007689
 20
257.2857886397982
 30
0
  0
SPLINE
  5
A6
100
AcDbEntity
  8
默认
  6
ByLayer
 62
  256
370
   -1
100
AcDbSpline
210
0
220
0
230
0
 70
    8
 71
    2
 72
    6
 73
    3
 74
    0
 42
1e-07
 43
1e-07
 40
0
 40
0
 40
0
 40
1
 40
1
 40
1
 10
-1499.725782007689
 20
257.7857886397987
 30
0
 10
-1499.725782007689
 20
257.2857886397989
 30
0
 10
-1499.225782007689
 20
257.2857886397987
 30
0
  0
SPLINE
  5
A7
100
AcDbEntity
  8
默认
  6
ByLayer
 62
  256
370
   -1
100
AcDbSpline
210
0
220
0
230
0
 70
    8
 71
    2
 72
    6
 73
    3
 74
    0
 42
1e-07
 43
1e-07
 40
0
 40
0
 40
0
 40
1
 40
1
 40
1
 10
-1499.725782007689
 20
270.7850886397986
 30
0
 10
-1499.725782007689
 20
264.2854386397984
 30
0
 10
-1499.725782007689
 20
257.7857886397987
 30
0
  0
SPLINE
  5
A8
100
AcDbEntity
  8
默认
  6
ByLayer
 62
  256
370
   -1
100
AcDbSpline
210
0
220
0
230
0
 70
    8
 71
    2
 72
    6
 73
    3
 74
    0
 42
1e-07
 43
1e-07
 40
0
 40
0
 40
0
 40
1
 40
1
 40
1
 10
-1499.225782007689
 20
271.2850886397986
 30
0
 10
-1499.72578200769
 20
271.2850886397993
 30
0
 10
-1499.725782007689
 20
270.7850886397986
 30
0
  0
SPLINE
  5
A9
100
AcDbEntity
  8
默认
  6
ByLayer
 62
  256
370
   -1
100
AcDbSpline
210
0
220
0
230
0
 70
    8
 71
    2
 72
    6
 73
    3
 74
    0
 42
1e-07
 43
1e-07
 40
0
 40
0
 40
0
 40
1
 40
1
 40
1
 10
-1486.225782007689
 20
271.2850886397986
 30
0
 10
-1492.725782007689
 20
271.2850886397986
 30
0
 10
-1499.225782007689
 20
271.2850886397986
 30
0
  0
SPLINE
  5
AA
100
AcDbEntity
  8
默认
  6
ByLayer
 62
  256
370
   -1
100
AcDbSpline
210
0
220
0
230
0
 70
    8
 71
    2
 72
    6
 73
    3
 74
    0
 42
1e-07
 43
1e-07
 40
0
 40
0
 40
0
 40
1
 40
1
 40
1
 10
-1485.725782007689
 20
270.7850886397982
 30
0
 10
-1485.72578200769
 20
271.2850886397981
 30
0
 10
-1486.225782007689
 20
271.2850886397986
 30
0
  0
SPLINE
  5
AB
100
AcDbEntity
  8
默认
  6
ByLayer
 62
  256
370
   -1
100
AcDbSpline
210
0
220
0
230
0
 70
    8
 71
    2
 72
    6
 73
    3
 74
    0
 42
1e-07
 43
1e-07
 40
0
 40
0
 40
0
 40
1
 40
1
 40
1
 10
-1562.413219507676
 20
331.9554386397981
 30
0
 10
-1562.913219507677
 20
331.9554386397982
 30
0
 10
-1562.913219507676
 20
332.4554386397981
 30
0
  0
SPLINE
  5
AC
100
AcDbEntity
  8
默认
  6
ByLayer
 62
  256
370
   -1
100
AcDbSpline
210
0
220
0
230
0
 70
    8
 71
    2
 72
    6
 73
    3
 74
    0
 42
1e-07
 43
1e-07
 40
0
 40
0
 40
0
 40
1
 40
1
 40
1
 10
-1556.041114117683
 20
331.9554386397981
 30
0
 10
-1559.22716681268
 20
331.9554386397981
 30
0
 10
-1562.413219507676
 20
331.9554386397981
 30
0
  0
SPLINE
  5
AD
100
AcDbEntity
  8
默认
  6
ByLayer
 62
  256
370
   -1
100
AcDbSpline
210
0
220
0
230
0
 70
    8
 71
    2
 72
   10
 73
    7
 74
    0
 42
1e-07
 43
1e-07
 40
0
 40
0
 40
0
 40
0.2
 40
0.4
 40
0.6
 40
0.8
 40
1
 40
1
 40
1
 10
-1556.041114117683
 20
330.9554386397981
 30
0
 10
-1555.796669058493
 20
330.955438639798
 30
0
 10
-1555.646533994464
 20
331.1483449629491
 30
0
 10
-1555.496398930435
 20
331.3412512861001
 30
0
 10
-1555.556421874279
 20
331.5782125343555
 30
0
 10
-1555.651974296924
 20
331.9554386397983
 30
0
 10
-1556.041114117683
 20
331.9554386397981
 30
0
  0
SPLINE
  5
AE
100
AcDbEntity
  8
默认
  6
ByLayer
 62
  256
370
   -1
100
AcDbSpline
210
0
220
0
230
0
 70
    8
 71
    2
 72
    6
 73
    3
 74
    0
 42
1e-07
 43
1e-07
 40
0
 40
0
 40
0
 40
1
 40
1
 40
1
 10
-1572.285149897697
 20
330.9554386397981
 30
0
 10
-1564.163132007689
 20
330.9554386397981
 30
0
 10
-1556.041114117683
 20
330.9554386397981
 30
0
  0
SPLINE
  5
AF
100
AcDbEntity
  8
默认
  6
ByLayer
 62
  256
370
   -1
100
AcDbSpline
210
0
220
0
230
0
 70
    8
 71
    2
 72
   10
 73
    7
 74
    0
 42
1e-07
 43
1e-07
 40
0
 40
0
 40
0
 40
0.2
 40
0.4
 40
0.6
 40
0.8
 40
1
 40
1
 40
1
 10
-1572.285149897697
 20
331.9554386397981
 30
0
 10
-1572.619127705175
 20
331.9554386397982
 30
0
 10
-1572.747030631831
 20
331.646922809992
 30
0
 10
-1572.849400035433
 20
331.3999966267976
 30
0
 10
-1572.700927533637
 20
331.1777176332979
 30
0
 10
-1572.552455031842
 20
330.9554386397982
 30
0
 10
-1572.285149897697
 20
330.9554386397981
 30
0
  0
SPLINE
  5
B0
100
AcDbEntity
  8
默认
  6
ByLayer
 62
  256
370
   -1
100
AcDbSpline
210
0
220
0
230
0
 70
    8
 71
    2
 72
    6
 73
    3
 74
    0
 42
1e-07
 43
1e-07
 40
0
 40
0
 40
0
 40
1
 40
1
 40
1
 10
-1565.913219507676
 20
331.9554386397981
 30
0
 10
-1569.099184702687
 20
331.9554386397981
 30
0
 10
-1572.285149897697
 20
331.9554386397981
 30
0
  0
SPLINE
  5
B1
100
AcDbEntity
  8
默认
  6
ByLayer
 62
  256
370
   -1
100
AcDbSpline
210
0
220
0
230
0
 70
    8
 71
    2
 72
    6
 73
    3
 74
    0
 42
1e-07
 43
1e-07
 40
0
 40
0
 40
0
 40
1
 40
1
 40
1
 10
-1565.413219507676
 20
332.4554386397981
 30
0
 10
-1565.413219507677
 20
331.9554386397982
 30
0
 10
-1565.913219507676
 20
331.9554386397981
 30
0
  0
SPLINE
  5
B2
100
AcDbEntity
  8
默认
  6
ByLayer
 62
  256
370
   -1
100
AcDbSpline
210
0
220
0
230
0
 70
    8
 71
    2
 72
    6
 73
    3
 74
    0
 42
1e-07
 43
1e-07
 40
0
 40
0
 40
0
 40
1
 40
1
 40
1
 10
-1565.413219507676
 20
333.2554384533071
 30
0
 10
-1565.413219507676
 20
332.8554385465527
 30
0
 10
-1565.413219507676
 20
332.4554386397981
 30
0
  0
SPLINE
  5
B3
100
AcDbEntity
  8
默认
  6
ByLayer
 62
  256
370
   -1
100
AcDbSpline
210
0
220
0
230
0
 70
    8
 71
    2
 72
    8
 73
    5
 74
    0
 42
1e-07
 43
1e-07
 40
0
 40
0
 40
0
 40
0.3333333333333333
 40
0.6666666666666666
 40
1
 40
1
 40
1
 10
-1562.913219507676
 20
333.2554386397992
 30
0
 10
-1562.913219507676
 20
334.5054386398001
 30
0
 10
-1564.163219507676
 20
334.5054386397993
 30
0
 10
-1565.413219507676
 20
334.5054386398
 30
0
 10
-1565.413219507676
 20
333.2554384533071
 30
0
  0
SPLINE
  5
B4
100
AcDbEntity
  8
默认
  6
ByLayer
 62
  256
370
   -1
100
AcDbSpline
210
0
220
0
230
0
 70
    8
 71
    2
 72
    6
 73
    3
 74
    0
 42
1e-07
 43
1e-07
 40
0
 40
0
 40
0
 40
1
 40
1
 40
1
 10
-1562.913219507676
 20
332.4554386397981
 30
0
 10
-1562.913219507677
 20
332.8554386397986
 30
0
 10
-1562.913219507676
 20
333.2554386397992
 30
0
  0
SPLINE
  5
B5
100
AcDbEntity
  8
默认
  6
ByLayer
 62
  256
370
   -1
100
AcDbSpline
210
0
220
0
230
0
 70
    8
 71
    2
 72
    6
 73
    3
 74
    0
 42
1e-07
 43
1e-07
 40
0
 40
0
 40
0
 40
1
 40
1
 40
1
 10
-1467.163219507676
 20
331.9554386397981
 30
0
 10
-1467.663219507676
 20
331.9554386397982
 30
0
 10
-1467.663219507676
 20
332.4554386397981
 30
0
  0
SPLINE
  5
B6
100
AcDbEntity
  8
默认
  6
ByLayer
 62
  256
370
   -1
100
AcDbSpline
210
0
220
0
230
0
 70
    8
 71
    2
 72
    6
 73
    3
 74
    0
 42
1e-07
 43
1e-07
 40
0
 40
0
 40
0
 40
1
 40
1
 40
1
 10
-1460.791114117682
 20
331.9554386397981
 30
0
 10
-1463.977166812679
 20
331.9554386397981
 30
0
 10
-1467.163219507676
 20
331.9554386397981
 30
0
  0
SPLINE
  5
B7
100
AcDbEntity
  8
默认
  6
ByLayer
 62
  256
370
   -1
100
AcDbSpline
210
0
220
0
230
0
 70
    8
 71
    2
 72
   10
 73
    7
 74
    0
 42
1e-07
 43
1e-07
 40
0
 40
0
 40
0
 40
0.2
 40
0.4
 40
0.6
 40
0.8
 40
1
 40
1
 40
1
 10
-1460.791114117682
 20
330.9554386397981
 30
0
 10
-1460.546669058492
 20
330.955438639798
 30
0
 10
-1460.396533994463
 20
331.1483449629491
 30
0
 10
-1460.246398930435
 20
331.3412512861001
 30
0
 10
-1460.306421874279
 20
331.5782125343555
 30
0
 10
-1460.401974296923
 20
331.9554386397983
 30
0
 10
-1460.791114117682
 20
331.9554386397981
 30
0
  0
SPLINE
  5
B8
100
AcDbEntity
  8
默认
  6
ByLayer
 62
  256
370
   -1
100
AcDbSpline
210
0
220
0
230
0
 70
    8
 71
    2
 72
    6
 73
    3
 74
    0
 42
1e-07
 43
1e-07
 40
0
 40
0
 40
0
 40
1
 40
1
 40
1
 10
-1477.035149897696
 20
330.9554386397981
 30
0
 10
-1468.913132007689
 20
330.9554386397981
 30
0
 10
-1460.791114117682
 20
330.9554386397981
 30
0
  0
SPLINE
  5
B9
100
AcDbEntity
  8
默认
  6
ByLayer
 62
  256
370
   -1
100
AcDbSpline
210
0
220
0
230
0
 70
    8
 71
    2
 72
   10
 73
    7
 74
    0
 42
1e-07
 43
1e-07
 40
0
 40
0
 40
0
 40
0.2
 40
0.4
 40
0.6
 40
0.8
 40
1
 40
1
 40
1
 10
-1477.035149897696
 20
331.9554386397981
 30
0
 10
-1477.369127705174
 20
331.9554386397982
 30
0
 10
-1477.497030631831
 20
331.646922809992
 30
0
 10
-1477.599400035432
 20
331.3999966267976
 30
0
 10
-1477.450927533637
 20
331.1777176332979
 30
0
 10
-1477.302455031842
 20
330.9554386397982
 30
0
 10
-1477.035149897696
 20
330.9554386397981
 30
0
  0
SPLINE
  5
BA
100
AcDbEntity
  8
默认
  6
ByLayer
 62
  256
370
   -1
100
AcDbSpline
210
0
220
0
230
0
 70
    8
 71
    2
 72
    6
 73
    3
 74
    0
 42
1e-07
 43
1e-07
 40
0
 40
0
 40
0
 40
1
 40
1
 40
1
 10
-1470.663219507676
 20
331.9554386397981
 30
0
 10
-1473.849184702686
 20
331.9554386397981
 30
0
 10
-1477.035149897696
 20
331.9554386397981
 30
0
  0
SPLINE
  5
BB
100
AcDbEntity
  8
默认
  6
ByLayer
 62
  256
370
   -1
100
AcDbSpline
210
0
220
0
230
0
 70
    8
 71
    2
 72
    6
 73
    3
 74
    0
 42
1e-07
 43
1e-07
 40
0
 40
0
 40
0
 40
1
 40
1
 40
1
 10
-1470.163219507676
 20
332.4554386397981
 30
0
 10
-1470.163219507676
 20
331.955438639798
 30
0
 10
-1470.663219507676
 20
331.9554386397981
 30
0
  0
SPLINE
  5
BC
100
AcDbEntity
  8
默认
  6
ByLayer
 62
  256
370
   -1
100
AcDbSpline
210
0
220
0
230
0
 70
    8
 71
    2
 72
    6
 73
    3
 74
    0
 42
1e-07
 43
1e-07
 40
0
 40
0
 40
0
 40
1
 40
1
 40
1
 10
-1470.163219507676
 20
333.2554384533071
 30
0
 10
-1470.163219507676
 20
332.8554385465527
 30
0
 10
-1470.163219507676
 20
332.4554386397981
 30
0
  0
SPLINE
  5
BD
100
AcDbEntity
  8
默认
  6
ByLayer
 62
  256
370
   -1
100
AcDbSpline
210
0
220
0
230
0
 70
    8
 71
    2
 72
    8
 73
    5
 74
    0
 42
1e-07
 43
1e-07
 40
0
 40
0
 40
0
 40
0.3333333333333333
 40
0.6666666666666666
 40
1
 40
1
 40
1
 10
-1467.663219507676
 20
333.2554386397992
 30
0
 10
-1467.663219507676
 20
334.5054386398001
 30
0
 10
-1468.913219507676
 20
334.5054386397993
 30
0
 10
-1470.163219507675
 20
334.5054386398
 30
0
 10
-1470.163219507676
 20
333.2554384533071
 30
0
  0
SPLINE
  5
BE
100
AcDbEntity
  8
默认
  6
ByLayer
 62
  256
370
   -1
100
AcDbSpline
210
0
220
0
230
0
 70
    8
 71
    2
 72
    6
 73
    3
 74
    0
 42
1e-07
 43
1e-07
 40
0
 40
0
 40
0
 40
1
 40
1
 40
1
 10
-1467.663219507676
 20
332.4554386397981
 30
0
 10
-1467.663219507676
 20
332.8554386397986
 30
0
 10
-1467.663219507676
 20
333.2554386397992
 30
0
  0
SPLINE
  5
BF
100
AcDbEntity
  8
默认
  6
ByLayer
 62
  256
370
   -1
100
AcDbSpline
210
0
220
0
230
0
 70
    8
 71
    2
 72
    6
 73
    3
 74
    0
 42
1e-07
 43
1e-07
 40
0
 40
0
 40
0
 40
1
 40
1
 40
1
 10
-1491.475969999382
 20
252.4654386397978
 30
0
 10
-1491.475969999383
 20
252.8654386397984
 30
0
 10
-1491.475969999382
 20
253.2654386397989
 30
0
  0
SPLINE
  5
C0
100
AcDbEntity
  8
默认
  6
ByLayer
 62
  256
370
   -1
100
AcDbSpline
210
0
220
0
230
0
 70
    8
 71
    2
 72
    8
 73
    5
 74
    0
 42
1e-07
 43
1e-07
 40
0
 40
0
 40
0
 40
0.3333333333333333
 40
0.6666666666666666
 40
1
 40
1
 40
1
 10
-1493.975969999382
 20
252.4654388262899
 30
0
 10
-1493.975969999382
 20
251.2154386397969
 30
0
 10
-1492.725969999382
 20
251.2154386397976
 30
0
 10
-1491.475969999382
 20
251.2154386397969
 30
0
 10
-1491.475969999382
 20
252.4654386397978
 30
0
  0
SPLINE
  5
C1
100
AcDbEntity
  8
默认
  6
ByLayer
 62
  256
370
   -1
100
AcDbSpline
210
0
220
0
230
0
 70
    8
 71
    2
 72
    6
 73
    3
 74
    0
 42
1e-07
 43
1e-07
 40
0
 40
0
 40
0
 40
1
 40
1
 40
1
 10
-1493.975969999382
 20
253.2654386397989
 30
0
 10
-1493.975969999382
 20
252.8654387330443
 30
0
 10
-1493.975969999382
 20
252.4654388262899
 30
0
  0
SPLINE
  5
C2
100
AcDbEntity
  8
默认
  6
ByLayer
 62
  256
370
   -1
100
AcDbSpline
210
0
220
0
230
0
 70
    8
 71
    2
 72
    6
 73
    3
 74
    0
 42
1e-07
 43
1e-07
 40
0
 40
0
 40
0
 40
1
 40
1
 40
1
 10
-1494.475969999383
 20
253.7654386397989
 30
0
 10
-1493.975969999383
 20
253.7654386397989
 30
0
 10
-1493.975969999382
 20
253.2654386397989
 30
0
  0
SPLINE
  5
C3
100
AcDbEntity
  8
默认
  6
ByLayer
 62
  256
370
   -1
100
AcDbSpline
210
0
220
0
230
0
 70
    8
 71
    2
 72
    6
 73
    3
 74
    0
 42
1e-07
 43
1e-07
 40
0
 40
0
 40
0
 40
1
 40
1
 40
1
 10
-1503.229130435649
 20
253.7654386397989
 30
0
 10
-1498.852550217516
 20
253.7654386397989
 30
0
 10
-1494.475969999383
 20
253.7654386397989
 30
0
  0
SPLINE
  5
C4
100
AcDbEntity
  8
默认
  6
ByLayer
 62
  256
370
   -1
100
AcDbSpline
210
0
220
0
230
0
 70
    8
 71
    2
 72
   10
 73
    7
 74
    0
 42
1e-07
 43
1e-07
 40
0
 40
0
 40
0
 40
0.2
 40
0.4
 40
0.6
 40
0.8
 40
1
 40
1
 40
1
 10
-1503.229130435649
 20
254.7654386397989
 30
0
 10
-1503.496435569794
 20
254.7654386397988
 30
0
 10
-1503.644908071589
 20
254.543159646299
 30
0
 10
-1503.793380573384
 20
254.3208806527995
 30
0
 10
-1503.691011169783
 20
254.073954469605
 30
0
 10
-1503.563108243127
 20
253.7654386397989
 30
0
 10
-1503.229130435649
 20
253.7654386397989
 30
0
  0
SPLINE
  5
C5
100
AcDbEntity
  8
默认
  6
ByLayer
 62
  256
370
   -1
100
AcDbSpline
210
0
220
0
230
0
 70
    8
 71
    2
 72
    6
 73
    3
 74
    0
 42
1e-07
 43
1e-07
 40
0
 40
0
 40
0
 40
1
 40
1
 40
1
 10
-1482.22243357973
 20
254.7654386397989
 30
0
 10
-1492.725782007689
 20
254.7654386397989
 30
0
 10
-1503.229130435649
 20
254.7654386397989
 30
0
  0
SPLINE
  5
C6
100
AcDbEntity
  8
默认
  6
ByLayer
 62
  256
370
   -1
100
AcDbSpline
210
0
220
0
230
0
 70
    8
 71
    2
 72
   10
 73
    7
 74
    0
 42
1e-07
 43
1e-07
 40
0
 40
0
 40
0
 40
0.2
 40
0.4
 40
0.6
 40
0.8
 40
1
 40
1
 40
1
 10
-1482.22243357973
 20
253.7654386397989
 30
0
 10
-1481.833293758971
 20
253.7654386397989
 30
0
 10
-1481.737741336327
 20
254.1426647452415
 30
0
 10
-1481.677718392483
 20
254.3796259934968
 30
0
 10
-1481.827853456512
 20
254.5725323166479
 30
0
 10
-1481.97798852054
 20
254.7654386397989
 30
0
 10
-1482.22243357973
 20
254.7654386397989
 30
0
  0
SPLINE
  5
C7
100
AcDbEntity
  8
默认
  6
ByLayer
 62
  256
370
   -1
100
AcDbSpline
210
0
220
0
230
0
 70
    8
 71
    2
 72
    6
 73
    3
 74
    0
 42
1e-07
 43
1e-07
 40
0
 40
0
 40
0
 40
1
 40
1
 40
1
 10
-1490.975969999382
 20
253.7654386397989
 30
0
 10
-1486.599201789556
 20
253.7654386397989
 30
0
 10
-1482.22243357973
 20
253.7654386397989
 30
0
  0
SPLINE
  5
C8
100
AcDbEntity
  8
默认
  6
ByLayer
 62
  256
370
   -1
100
AcDbSpline
210
0
220
0
230
0
 70
    8
 71
    2
 72
    6
 73
    3
 74
    0
 42
1e-07
 43
1e-07
 40
0
 40
0
 40
0
 40
1
 40
1
 40
1
 10
-1491.475969999382
 20
253.2654386397989
 30
0
 10
-1491.475969999383
 20
253.765438639799
 30
0
 10
-1490.975969999382
 20
253.7654386397989
 30
0
  0
SPLINE
  5
C9
100
AcDbEntity
  8
默认
  6
ByLayer
 62
  256
370
   -1
100
AcDbSpline
210
0
220
0
230
0
 70
    8
 71
    2
 72
    6
 73
    3
 74
    0
 42
1e-07
 43
1e-07
 40
0
 40
0
 40
0
 40
1
 40
1
 40
1
 10
-1634.350869507676
 20
252.4654386397978
 30
0
 10
-1634.350869507676
 20
252.8654386397984
 30
0
 10
-1634.350869507676
 20
253.2654386397989
 30
0
  0
SPLINE
  5
CA
100
AcDbEntity
  8
默认
  6
ByLayer
 62
  256
370
   -1
100
AcDbSpline
210
0
220
0
230
0
 70
    8
 71
    2
 72
    8
 73
    5
 74
    0
 42
1e-07
 43
1e-07
 40
0
 40
0
 40
0
 40
0.3333333333333333
 40
0.6666666666666666
 40
1
 40
1
 40
1
 10
-1636.850869507675
 20
252.4654388262899
 30
0
 10
-1636.850869507675
 20
251.2154386397969
 30
0
 10
-1635.600869507675
 20
251.2154386397976
 30
0
 10
-1634.350869507675
 20
251.2154386397969
 30
0
 10
-1634.350869507676
 20
252.4654386397978
 30
0
  0
SPLINE
  5
CB
100
AcDbEntity
  8
默认
  6
ByLayer
 62
  256
370
   -1
100
AcDbSpline
210
0
220
0
230
0
 70
    8
 71
    2
 72
    6
 73
    3
 74
    0
 42
1e-07
 43
1e-07
 40
0
 40
0
 40
0
 40
1
 40
1
 40
1
 10
-1636.850869507675
 20
253.2654386397989
 30
0
 10
-1636.850869507675
 20
252.8654387330443
 30
0
 10
-1636.850869507675
 20
252.4654388262899
 30
0
  0
SPLINE
  5
CC
100
AcDbEntity
  8
默认
  6
ByLayer
 62
  256
370
   -1
100
AcDbSpline
210
0
220
0
230
0
 70
    8
 71
    2
 72
    6
 73
    3
 74
    0
 42
1e-07
 43
1e-07
 40
0
 40
0
 40
0
 40
1
 40
1
 40
1
 10
-1637.350869507676
 20
253.7654386397989
 30
0
 10
-1636.850869507676
 20
253.7654386397989
 30
0
 10
-1636.850869507675
 20
253.2654386397989
 30
0
  0
SPLINE
  5
CD
100
AcDbEntity
  8
默认
  6
ByLayer
 62
  256
370
   -1
100
AcDbSpline
210
0
220
0
230
0
 70
    8
 71
    2
 72
    6
 73
    3
 74
    0
 42
1e-07
 43
1e-07
 40
0
 40
0
 40
0
 40
1
 40
1
 40
1
 10
-1646.104029943941
 20
253.7654386397989
 30
0
 10
-1641.727449725809
 20
253.7654386397989
 30
0
 10
-1637.350869507676
 20
253.7654386397989
 30
0
  0
SPLINE
  5
CE
100
AcDbEntity
  8
默认
  6
ByLayer
 62
  256
370
   -1
100
AcDbSpline
210
0
220
0
230
0
 70
    8
 71
    2
 72
   10
 73
    7
 74
    0
 42
1e-07
 43
1e-07
 40
0
 40
0
 40
0
 40
0.2
 40
0.4
 40
0.6
 40
0.8
 40
1
 40
1
 40
1
 10
-1646.104029943941
 20
254.7654386397989
 30
0
 10
-1646.371335078087
 20
254.7654386397988
 30
0
 10
-1646.519807579882
 20
254.543159646299
 30
0
 10
-1646.668280081678
 20
254.3208806527995
 30
0
 10
-1646.565910678077
 20
254.073954469605
 30
0
 10
-1646.43800775142
 20
253.7654386397989
 30
0
 10
-1646.104029943941
 20
253.7654386397989
 30
0
  0
SPLINE
  5
CF
100
AcDbEntity
  8
默认
  6
ByLayer
 62
  256
370
   -1
100
AcDbSpline
210
0
220
0
230
0
 70
    8
 71
    2
 72
    6
 73
    3
 74
    0
 42
1e-07
 43
1e-07
 40
0
 40
0
 40
0
 40
1
 40
1
 40
1
 10
-1625.097333088023
 20
254.7654386397989
 30
0
 10
-1635.600681515983
 20
254.7654386397989
 30
0
 10
-1646.104029943941
 20
254.7654386397989
 30
0
  0
SPLINE
  5
D0
100
AcDbEntity
  8
默认
  6
ByLayer
 62
  256
370
   -1
100
AcDbSpline
210
0
220
0
230
0
 70
    8
 71
    2
 72
   10
 73
    7
 74
    0
 42
1e-07
 43
1e-07
 40
0
 40
0
 40
0
 40
0.2
 40
0.4
 40
0.6
 40
0.8
 40
1
 40
1
 40
1
 10
-1625.097333088023
 20
253.7654386397989
 30
0
 10
-1624.708193267265
 20
253.7654386397989
 30
0
 10
-1624.61264084462
 20
254.1426647452415
 30
0
 10
-1624.552617900776
 20
254.3796259934968
 30
0
 10
-1624.702752964805
 20
254.5725323166479
 30
0
 10
-1624.852888028833
 20
254.7654386397989
 30
0
 10
-1625.097333088023
 20
254.7654386397989
 30
0
  0
SPLINE
  5
D1
100
AcDbEntity
  8
默认
  6
ByLayer
 62
  256
370
   -1
100
AcDbSpline
210
0
220
0
230
0
 70
    8
 71
    2
 72
    6
 73
    3
 74
    0
 42
1e-07
 43
1e-07
 40
0
 40
0
 40
0
 40
1
 40
1
 40
1
 10
-1633.850869507675
 20
253.7654386397989
 30
0
 10
-1629.474101297849
 20
253.7654386397989
 30
0
 10
-1625.097333088023
 20
253.7654386397989
 30
0
  0
SPLINE
  5
D2
100
AcDbEntity
  8
默认
  6
ByLayer
 62
  256
370
   -1
100
AcDbSpline
210
0
220
0
230
0
 70
    8
 71
    2
 72
    6
 73
    3
 74
    0
 42
1e-07
 43
1e-07
 40
0
 40
0
 40
0
 40
1
 40
1
 40
1
 10
-1634.350869507676
 20
253.2654386397989
 30
0
 10
-1634.350869507675
 20
253.765438639799
 30
0
 10
-1633.850869507675
 20
253.7654386397989
 30
0
  0
SPLINE
  5
D3
100
AcDbEntity
  8
默认
  6
ByLayer
 62
  256
370
   -1
100
AcDbSpline
210
0
220
0
230
0
 70
    8
 71
    2
 72
    6
 73
    3
 74
    0
 42
1e-07
 43
1e-07
 40
0
 40
0
 40
0
 40
1
 40
1
 40
1
 10
-1675.67750545634
 20
310.9108386397986
 30
0
 10
-1675.17750545634
 20
310.9108386397988
 30
0
 10
-1675.17750545634
 20
311.4108386397988
 30
0
  0
SPLINE
  5
D4
100
AcDbEntity
  8
默认
  6
ByLayer
 62
  256
370
   -1
100
AcDbSpline
210
0
220
0
230
0
 70
    8
 71
    2
 72
    6
 73
    3
 74
    0
 42
1e-07
 43
1e-07
 40
0
 40
0
 40
0
 40
1
 40
1
 40
1
 10
-1561.92563200769
 20
276.8355886397989
 30
0
 10
-1561.92563200769
 20
283.3352886397988
 30
0
 10
-1561.92563200769
 20
289.8349886397987
 30
0
  0
SPLINE
  5
D5
100
AcDbEntity
  8
默认
  6
ByLayer
 62
  256
370
   -1
100
AcDbSpline
210
0
220
0
230
0
 70
    8
 71
    2
 72
    6
 73
    3
 74
    0
 42
1e-07
 43
1e-07
 40
0
 40
0
 40
0
 40
1
 40
1
 40
1
 10
-1478.25833196459
 20
254.7654386397982
 30
0
 10
-1480.88175586118
 20
254.7654386398001
 30
0
 10
-1481.231545714057
 20
252.1654386397965
 30
0
  0
SPLINE
  5
D6
100
AcDbEntity
  8
默认
  6
ByLayer
 62
  256
370
   -1
100
AcDbSpline
210
0
220
0
230
0
 70
    8
 71
    2
 72
    6
 73
    3
 74
    0
 42
1e-07
 43
1e-07
 40
0
 40
0
 40
0
 40
1
 40
1
 40
1
 10
-1681.75338991174
 20
311.4108386397988
 30
0
 10
-1681.75338991174
 20
310.9108386397988
 30
0
 10
-1681.25338991174
 20
310.9108386397988
 30
0
  0
SPLINE
  5
D7
100
AcDbEntity
  8
默认
  6
ByLayer
 62
  256
370
   -1
100
AcDbSpline
210
0
220
0
230
0
 70
    8
 71
    2
 72
    6
 73
    3
 74
    0
 42
1e-07
 43
1e-07
 40
0
 40
0
 40
0
 40
1
 40
1
 40
1
 10
-1562.42563200769
 20
276.3355886397989
 30
0
 10
-1561.925632007689
 20
276.3355886397989
 30
0
 10
-1561.92563200769
 20
276.8355886397989
 30
0
  0
SPLINE
  5
D8
100
AcDbEntity
  8
默认
  6
ByLayer
 62
  256
370
   -1
100
AcDbSpline
210
0
220
0
230
0
 70
    8
 71
    2
 72
    6
 73
    3
 74
    0
 42
1e-07
 43
1e-07
 40
0
 40
0
 40
0
 40
1
 40
1
 40
1
 10
-1462.77453200769
 20
254.7654386397991
 30
0
 10
-1468.311411974322
 20
254.7654386397992
 30
0
 10
-1478.25833196459
 20
254.7654386397982
 30
0
  0
LINE
  5
D9
100
AcDbEntity
  8
默认
  6
ByLayer
 62
  256
370
   -1
100
AcDbLine
 10
-1681.75338991174
 20
312.4108386397988
 11
-1681.75338991174
 21
311.4108386397988
  0
SPLINE
  5
DA
100
AcDbEntity
  8
默认
  6
ByLayer
 62
  256
370
   -1
100
AcDbSpline
210
0
220
0
230
0
 70
    8
 71
    2
 72
    6
 73
    3
 74
    0
 42
1e-07
 43
1e-07
 40
0
 40
0
 40
0
 40
1
 40
1
 40
1
 10
-1575.42563200769
 20
276.3355886397989
 30
0
 10
-1568.92563200769
 20
276.3355886397989
 30
0
 10
-1562.42563200769
 20
276.3355886397989
 30
0
  0
SPLINE
  5
DB
100
AcDbEntity
  8
默认
  6
ByLayer
 62
  256
370
   -1
100
AcDbSpline
210
0
220
0
230
0
 70
    8
 71
    2
 72
    6
 73
    3
 74
    0
 42
1e-07
 43
1e-07
 40
0
 40
0
 40
0
 40
1
 40
1
 40
1
 10
-1461.77453200769
 20
255.7654386397989
 30
0
 10
-1461.774532007689
 20
254.765438639799
 30
0
 10
-1462.77453200769
 20
254.7654386397991
 30
0
  0
SPLINE
  5
DC
100
AcDbEntity
  8
默认
  6
ByLayer
 62
  256
370
   -1
100
AcDbSpline
210
0
220
0
230
0
 70
    8
 71
    2
 72
    6
 73
    3
 74
    0
 42
1e-07
 43
1e-07
 40
0
 40
0
 40
0
 40
1
 40
1
 40
1
 10
-1681.25338991174
 20
312.9108386397988
 30
0
 10
-1681.75338991174
 20
312.9108386397986
 30
0
 10
-1681.75338991174
 20
312.4108386397988
 30
0
  0
SPLINE
  5
DD
100
AcDbEntity
  8
默认
  6
ByLayer
 62
  256
370
   -1
100
AcDbSpline
210
0
220
0
230
0
 70
    8
 71
    2
 72
    6
 73
    3
 74
    0
 42
1e-07
 43
1e-07
 40
0
 40
0
 40
0
 40
1
 40
1
 40
1
 10
-1682.534247684039
 20
282.2854386397991
 30
0
 10
-1682.034247684039
 20
282.2854386397991
 30
0
 10
-1682.034247684039
 20
282.7854386397991
 30
0
  0
SPLINE
  5
DE
100
AcDbEntity
  8
默认
  6
ByLayer
 62
  256
370
   -1
100
AcDbSpline
210
0
220
0
230
0
 70
    8
 71
    2
 72
    6
 73
    3
 74
    0
 42
1e-07
 43
1e-07
 40
0
 40
0
 40
0
 40
1
 40
1
 40
1
 10
-1682.034247684039
 20
282.7854386397991
 30
0
 10
-1682.034247684039
 20
283.335438639799
 30
0
 10
-1682.034247684039
 20
283.885438639799
 30
0
  0
SPLINE
  5
DF
100
AcDbEntity
  8
默认
  6
ByLayer
 62
  256
370
   -1
100
AcDbSpline
210
0
220
0
230
0
 70
    8
 71
    2
 72
    6
 73
    3
 74
    0
 42
1e-07
 43
1e-07
 40
0
 40
0
 40
0
 40
1
 40
1
 40
1
 10
-1682.034247684039
 20
283.885438639799
 30
0
 10
-1682.034247684039
 20
284.3854386397989
 30
0
 10
-1682.534247684039
 20
284.385438639799
 30
0
  0
LWPOLYLINE
  5
E0
100
AcDbEntity
  8
默认
  6
ByLayer
 62
  256
370
   -1
100
AcDbPolyline
 90
    3
 70
    0
 43
0
 10
-1682.534247684039
 20
284.385438639799
 10
-1683.082032007687
 20
284.385438639799
 10
-1683.629816331335
 20
284.385438639799
  0
SPLINE
  5
E1
100
AcDbEntity
  8
默认
  6
ByLayer
 62
  256
370
   -1
100
AcDbSpline
210
0
220
0
230
0
 70
    8
 71
    2
 72
    6
 73
    3
 74
    0
 42
1e-07
 43
1e-07
 40
0
 40
0
 40
0
 40
1
 40
1
 40
1
 10
-1683.629816331335
 20
284.385438639799
 30
0
 10
-1684.129816331335
 20
284.3854386397989
 30
0
 10
-1684.129816331335
 20
283.885438639799
 30
0
  0
SPLINE
  5
E2
100
AcDbEntity
  8
默认
  6
ByLayer
 62
  256
370
   -1
100
AcDbSpline
210
0
220
0
230
0
 70
    8
 71
    2
 72
    6
 73
    3
 74
    0
 42
1e-07
 43
1e-07
 40
0
 40
0
 40
0
 40
1
 40
1
 40
1
 10
-1684.129816331335
 20
283.885438639799
 30
0
 10
-1684.129816331335
 20
283.335438639799
 30
0
 10
-1684.129816331335
 20
282.7854386397991
 30
0
  0
SPLINE
  5
E3
100
AcDbEntity
  8
默认
  6
ByLayer
 62
  256
370
   -1
100
AcDbSpline
210
0
220
0
230
0
 70
    8
 71
    2
 72
    6
 73
    3
 74
    0
 42
1e-07
 43
1e-07
 40
0
 40
0
 40
0
 40
1
 40
1
 40
1
 10
-1684.129816331335
 20
282.7854386397991
 30
0
 10
-1684.129816331335
 20
282.2854386397991
 30
0
 10
-1683.629816331335
 20
282.2854386397991
 30
0
  0
LWPOLYLINE
  5
E4
100
AcDbEntity
  8
默认
  6
ByLayer
 62
  256
370
   -1
100
AcDbPolyline
 90
    3
 70
    0
 43
0
 10
-1683.629816331335
 20
282.2854386397991
 10
-1683.082032007687
 20
282.2854386397991
 10
-1682.534247684039
 20
282.2854386397991
  0
SPLINE
  5
E5
100
AcDbEntity
  8
默认
  6
ByLayer
 62
  256
370
   -1
100
AcDbSpline
210
0
220
0
230
0
 70
    8
 71
    2
 72
    6
 73
    3
 74
    0
 42
1e-07
 43
1e-07
 40
0
 40
0
 40
0
 40
1
 40
1
 40
1
 10
-1669.081682007689
 20
308.8850886397981
 30
0
 10
-1669.081682007689
 20
309.3850886397979
 30
0
 10
-1669.581682007689
 20
309.3850886397986
 30
0
  0
SPLINE
  5
E6
100
AcDbEntity
  8
默认
  6
ByLayer
 62
  256
370
   -1
100
AcDbSpline
210
0
220
0
230
0
 70
    8
 71
    2
 72
    6
 73
    3
 74
    0
 42
1e-07
 43
1e-07
 40
0
 40
0
 40
0
 40
1
 40
1
 40
1
 10
-1669.581682007689
 20
309.3850886397986
 30
0
 10
-1676.081682007689
 20
309.3850886397986
 30
0
 10
-1682.581682007689
 20
309.3850886397986
 30
0
  0
SPLINE
  5
E7
100
AcDbEntity
  8
默认
  6
ByLayer
 62
  256
370
   -1
100
AcDbSpline
210
0
220
0
230
0
 70
    8
 71
    2
 72
    6
 73
    3
 74
    0
 42
1e-07
 43
1e-07
 40
0
 40
0
 40
0
 40
1
 40
1
 40
1
 10
-1682.581682007689
 20
309.3850886397986
 30
0
 10
-1683.08168200769
 20
309.3850886397992
 30
0
 10
-1683.081682007689
 20
308.8850886397986
 30
0
  0
SPLINE
  5
E8
100
AcDbEntity
  8
默认
  6
ByLayer
 62
  256
370
   -1
100
AcDbSpline
210
0
220
0
230
0
 70
    8
 71
    2
 72
    6
 73
    3
 74
    0
 42
1e-07
 43
1e-07
 40
0
 40
0
 40
0
 40
1
 40
1
 40
1
 10
-1683.081682007689
 20
308.8850886397986
 30
0
 10
-1683.081682007689
 20
302.3854386397984
 30
0
 10
-1683.081682007689
 20
295.8857886397986
 30
0
  0
SPLINE
  5
E9
100
AcDbEntity
  8
默认
  6
ByLayer
 62
  256
370
   -1
100
AcDbSpline
210
0
220
0
230
0
 70
    8
 71
    2
 72
    6
 73
    3
 74
    0
 42
1e-07
 43
1e-07
 40
0
 40
0
 40
0
 40
1
 40
1
 40
1
 10
-1683.081682007689
 20
295.8857886397986
 30
0
 10
-1683.081682007689
 20
295.3857886397978
 30
0
 10
-1682.581682007689
 20
295.3857886397986
 30
0
  0
SPLINE
  5
EA
100
AcDbEntity
  8
默认
  6
ByLayer
 62
  256
370
   -1
100
AcDbSpline
210
0
220
0
230
0
 70
    8
 71
    2
 72
    6
 73
    3
 74
    0
 42
1e-07
 43
1e-07
 40
0
 40
0
 40
0
 40
1
 40
1
 40
1
 10
-1682.581682007689
 20
295.3857886397986
 30
0
 10
-1676.081682007689
 20
295.3857886397986
 30
0
 10
-1669.581682007689
 20
295.3857886397982
 30
0
  0
SPLINE
  5
EB
100
AcDbEntity
  8
默认
  6
ByLayer
 62
  256
370
   -1
100
AcDbSpline
210
0
220
0
230
0
 70
    8
 71
    2
 72
    6
 73
    3
 74
    0
 42
1e-07
 43
1e-07
 40
0
 40
0
 40
0
 40
1
 40
1
 40
1
 10
-1669.581682007689
 20
295.3857886397982
 30
0
 10
-1669.081682007688
 20
295.3857886397985
 30
0
 10
-1669.081682007689
 20
295.8857886397986
 30
0
  0
SPLINE
  5
EC
100
AcDbEntity
  8
默认
  6
ByLayer
 62
  256
370
   -1
100
AcDbSpline
210
0
220
0
230
0
 70
    8
 71
    2
 72
    6
 73
    3
 74
    0
 42
1e-07
 43
1e-07
 40
0
 40
0
 40
0
 40
1
 40
1
 40
1
 10
-1669.081682007689
 20
295.8857886397986
 30
0
 10
-1669.081682007689
 20
302.3854386397984
 30
0
 10
-1669.081682007689
 20
308.8850886397981
 30
0
  0
LINE
  5
ED
100
AcDbEntity
  8
默认
  6
ByLayer
 62
  256
370
   -1
100
AcDbLine
 10
-1675.17750545634
 20
311.4108386397988
 11
-1675.17750545634
 21
312.4108386397988
  0
SPLINE
  5
EE
100
AcDbEntity
  8
默认
  6
ByLayer
 62
  256
370
   -1
100
AcDbSpline
210
0
220
0
230
0
 70
    8
 71
    2
 72
    6
 73
    3
 74
    0
 42
1e-07
 43
1e-07
 40
0
 40
0
 40
0
 40
1
 40
1
 40
1
 10
-1675.17750545634
 20
312.4108386397988
 30
0
 10
-1675.17750545634
 20
312.9108386397986
 30
0
 10
-1675.67750545634
 20
312.9108386397988
 30
0
  0
LINE
  5
EF
100
AcDbEntity
  8
默认
  6
ByLayer
 62
  256
370
   -1
100
AcDbLine
 10
-1675.67750545634
 20
312.9108386397988
 11
-1681.25338991174
 21
312.9108386397988
  0
LINE
  5
F0
100
AcDbEntity
  8
默认
  6
ByLayer
 62
  256
370
   -1
100
AcDbLine
 10
-1681.25338991174
 20
310.9108386397988
 11
-1675.67750545634
 21
310.9108386397988
  0
SPLINE
  5
F1
100
AcDbEntity
  8
默认
  6
ByLayer
 62
  256
370
   -1
100
AcDbSpline
210
0
220
0
230
0
 70
    8
 71
    2
 72
    6
 73
    3
 74
    0
 42
1e-07
 43
1e-07
 40
0
 40
0
 40
0
 40
1
 40
1
 40
1
 10
-1562.42563200769
 20
290.3349886397987
 30
0
 10
-1568.92563200769
 20
290.3349886397987
 30
0
 10
-1575.42563200769
 20
290.3349886397991
 30
0
  0
SPLINE
  5
F2
100
AcDbEntity
  8
默认
  6
ByLayer
 62
  256
370
   -1
100
AcDbSpline
210
0
220
0
230
0
 70
    8
 71
    2
 72
    6
 73
    3
 74
    0
 42
1e-07
 43
1e-07
 40
0
 40
0
 40
0
 40
1
 40
1
 40
1
 10
-1543.37563200769
 20
276.3355886397985
 30
0
 10
-1542.875632007689
 20
276.3355886397989
 30
0
 10
-1542.87563200769
 20
276.8355886397989
 30
0
  0
SPLINE
  5
F3
100
AcDbEntity
  8
默认
  6
ByLayer
 62
  256
370
   -1
100
AcDbSpline
210
0
220
0
230
0
 70
    8
 71
    2
 72
    6
 73
    3
 74
    0
 42
1e-07
 43
1e-07
 40
0
 40
0
 40
0
 40
1
 40
1
 40
1
 10
-1542.87563200769
 20
276.8355886397989
 30
0
 10
-1542.87563200769
 20
283.3352886397988
 30
0
 10
-1542.87563200769
 20
289.8349886397987
 30
0
  0
SPLINE
  5
F4
100
AcDbEntity
  8
默认
  6
ByLayer
 62
  256
370
   -1
100
AcDbSpline
210
0
220
0
230
0
 70
    8
 71
    2
 72
    6
 73
    3
 74
    0
 42
1e-07
 43
1e-07
 40
0
 40
0
 40
0
 40
1
 40
1
 40
1
 10
-1542.87563200769
 20
289.8349886397987
 30
0
 10
-1542.875632007691
 20
290.3349886397981
 30
0
 10
-1543.37563200769
 20
290.3349886397987
 30
0
  0
SPLINE
  5
F5
100
AcDbEntity
  8
默认
  6
ByLayer
 62
  256
370
   -1
100
AcDbSpline
210
0
220
0
230
0
 70
    8
 71
    2
 72
    6
 73
    3
 74
    0
 42
1e-07
 43
1e-07
 40
0
 40
0
 40
0
 40
1
 40
1
 40
1
 10
-1543.37563200769
 20
290.3349886397987
 30
0
 10
-1549.87563200769
 20
290.3349886397987
 30
0
 10
-1556.37563200769
 20
290.3349886397991
 30
0
  0
SPLINE
  5
F6
100
AcDbEntity
  8
默认
  6
ByLayer
 62
  256
370
   -1
100
AcDbSpline
210
0
220
0
230
0
 70
    8
 71
    2
 72
    6
 73
    3
 74
    0
 42
1e-07
 43
1e-07
 40
0
 40
0
 40
0
 40
1
 40
1
 40
1
 10
-1556.37563200769
 20
290.3349886397991
 30
0
 10
-1556.87563200769
 20
290.3349886397992
 30
0
 10
-1556.87563200769
 20
289.8349886397987
 30
0
  0
SPLINE
  5
F7
100
AcDbEntity
  8
默认
  6
ByLayer
 62
  256
370
   -1
100
AcDbSpline
210
0
220
0
230
0
 70
    8
 71
    2
 72
    6
 73
    3
 74
    0
 42
1e-07
 43
1e-07
 40
0
 40
0
 40
0
 40
1
 40
1
 40
1
 10
-1556.87563200769
 20
289.8349886397987
 30
0
 10
-1556.87563200769
 20
283.3352886397988
 30
0
 10
-1556.87563200769
 20
276.8355886397989
 30
0
  0
SPLINE
  5
F8
100
AcDbEntity
  8
默认
  6
ByLayer
 62
  256
370
   -1
100
AcDbSpline
210
0
220
0
230
0
 70
    8
 71
    2
 72
    6
 73
    3
 74
    0
 42
1e-07
 43
1e-07
 40
0
 40
0
 40
0
 40
1
 40
1
 40
1
 10
-1556.87563200769
 20
276.8355886397989
 30
0
 10
-1556.87563200769
 20
276.3355886397992
 30
0
 10
-1556.37563200769
 20
276.3355886397989
 30
0
  0
SPLINE
  5
F9
100
AcDbEntity
  8
默认
  6
ByLayer
 62
  256
370
   -1
100
AcDbSpline
210
0
220
0
230
0
 70
    8
 71
    2
 72
    6
 73
    3
 74
    0
 42
1e-07
 43
1e-07
 40
0
 40
0
 40
0
 40
1
 40
1
 40
1
 10
-1556.37563200769
 20
276.3355886397989
 30
0
 10
-1549.87563200769
 20
276.3355886397985
 30
0
 10
-1543.37563200769
 20
276.3355886397985
 30
0
  0
SPLINE
  5
FA
100
AcDbEntity
  8
默认
  6
ByLayer
 62
  256
370
   -1
100
AcDbSpline
210
0
220
0
230
0
 70
    8
 71
    2
 72
    6
 73
    3
 74
    0
 42
1e-07
 43
1e-07
 40
0
 40
0
 40
0
 40
1
 40
1
 40
1
 10
-1552.90063200769
 20
295.3857886397991
 30
0
 10
-1552.400632007689
 20
295.3857886397983
 30
0
 10
-1552.40063200769
 20
295.8857886397991
 30
0
  0
SPLINE
  5
FB
100
AcDbEntity
  8
默认
  6
ByLayer
 62
  256
370
   -1
100
AcDbSpline
210
0
220
0
230
0
 70
    8
 71
    2
 72
    6
 73
    3
 74
    0
 42
1e-07
 43
1e-07
 40
0
 40
0
 40
0
 40
1
 40
1
 40
1
 10
-1552.40063200769
 20
295.8857886397991
 30
0
 10
-1552.40063200769
 20
302.3854386397988
 30
0
 10
-1552.40063200769
 20
308.8850886397991
 30
0
  0
SPLINE
  5
FC
100
AcDbEntity
  8
默认
  6
ByLayer
 62
  256
370
   -1
100
AcDbSpline
210
0
220
0
230
0
 70
    8
 71
    2
 72
    6
 73
    3
 74
    0
 42
1e-07
 43
1e-07
 40
0
 40
0
 40
0
 40
1
 40
1
 40
1
 10
-1552.40063200769
 20
308.8850886397991
 30
0
 10
-1552.40063200769
 20
309.3850886397989
 30
0
 10
-1552.90063200769
 20
309.3850886397991
 30
0
  0
SPLINE
  5
FD
100
AcDbEntity
  8
默认
  6
ByLayer
 62
  256
370
   -1
100
AcDbSpline
210
0
220
0
230
0
 70
    8
 71
    2
 72
    6
 73
    3
 74
    0
 42
1e-07
 43
1e-07
 40
0
 40
0
 40
0
 40
1
 40
1
 40
1
 10
-1552.90063200769
 20
309.3850886397991
 30
0
 10
-1559.40063200769
 20
309.3850886397991
 30
0
 10
-1565.90063200769
 20
309.3850886397991
 30
0
  0
SPLINE
  5
FE
100
AcDbEntity
  8
默认
  6
ByLayer
 62
  256
370
   -1
100
AcDbSpline
210
0
220
0
230
0
 70
    8
 71
    2
 72
    6
 73
    3
 74
    0
 42
1e-07
 43
1e-07
 40
0
 40
0
 40
0
 40
1
 40
1
 40
1
 10
-1565.90063200769
 20
309.3850886397991
 30
0
 10
-1566.40063200769
 20
309.3850886397994
 30
0
 10
-1566.40063200769
 20
308.8850886397991
 30
0
  0
SPLINE
  5
FF
100
AcDbEntity
  8
默认
  6
ByLayer
 62
  256
370
   -1
100
AcDbSpline
210
0
220
0
230
0
 70
    8
 71
    2
 72
    6
 73
    3
 74
    0
 42
1e-07
 43
1e-07
 40
0
 40
0
 40
0
 40
1
 40
1
 40
1
 10
-1566.40063200769
 20
308.8850886397991
 30
0
 10
-1566.40063200769
 20
302.3854386397988
 30
0
 10
-1566.40063200769
 20
295.8857886397991
 30
0
  0
SPLINE
  5
100
100
AcDbEntity
  8
默认
  6
ByLayer
 62
  256
370
   -1
100
AcDbSpline
210
0
220
0
230
0
 70
    8
 71
    2
 72
    6
 73
    3
 74
    0
 42
1e-07
 43
1e-07
 40
0
 40
0
 40
0
 40
1
 40
1
 40
1
 10
-1566.40063200769
 20
295.8857886397991
 30
0
 10
-1566.40063200769
 20
295.3857886397993
 30
0
 10
-1565.90063200769
 20
295.3857886397991
 30
0
  0
SPLINE
  5
101
100
AcDbEntity
  8
默认
  6
ByLayer
 62
  256
370
   -1
100
AcDbSpline
210
0
220
0
230
0
 70
    8
 71
    2
 72
    6
 73
    3
 74
    0
 42
1e-07
 43
1e-07
 40
0
 40
0
 40
0
 40
1
 40
1
 40
1
 10
-1565.90063200769
 20
295.3857886397991
 30
0
 10
-1559.40063200769
 20
295.3857886397991
 30
0
 10
-1552.90063200769
 20
295.3857886397991
 30
0
  0
SPLINE
  5
102
100
AcDbEntity
  8
默认
  6
ByLayer
 62
  256
370
   -1
100
AcDbSpline
210
0
220
0
230
0
 70
    8
 71
    2
 72
    6
 73
    3
 74
    0
 42
1e-07
 43
1e-07
 40
0
 40
0
 40
0
 40
1
 40
1
 40
1
 10
-1628.60113200769
 20
308.8850886397986
 30
0
 10
-1628.60113200769
 20
309.3850886397981
 30
0
 10
-1629.10113200769
 20
309.3850886397991
 30
0
  0
SPLINE
  5
103
100
AcDbEntity
  8
默认
  6
ByLayer
 62
  256
370
   -1
100
AcDbSpline
210
0
220
0
230
0
 70
    8
 71
    2
 72
    6
 73
    3
 74
    0
 42
1e-07
 43
1e-07
 40
0
 40
0
 40
0
 40
1
 40
1
 40
1
 10
-1629.10113200769
 20
309.3850886397991
 30
0
 10
-1635.600782007689
 20
309.3850886397991
 30
0
 10
-1642.10043200769
 20
309.3850886397991
 30
0
  0
SPLINE
  5
104
100
AcDbEntity
  8
默认
  6
ByLayer
 62
  256
370
   -1
100
AcDbSpline
210
0
220
0
230
0
 70
    8
 71
    2
 72
    6
 73
    3
 74
    0
 42
1e-07
 43
1e-07
 40
0
 40
0
 40
0
 40
1
 40
1
 40
1
 10
-1642.10043200769
 20
309.3850886397991
 30
0
 10
-1642.600432007689
 20
309.3850886397985
 30
0
 10
-1642.60043200769
 20
308.8850886397991
 30
0
  0
SPLINE
  5
105
100
AcDbEntity
  8
默认
  6
ByLayer
 62
  256
370
   -1
100
AcDbSpline
210
0
220
0
230
0
 70
    8
 71
    2
 72
    6
 73
    3
 74
    0
 42
1e-07
 43
1e-07
 40
0
 40
0
 40
0
 40
1
 40
1
 40
1
 10
-1642.60043200769
 20
308.8850886397991
 30
0
 10
-1642.60043200769
 20
302.3854386397988
 30
0
 10
-1642.60043200769
 20
295.8857886397991
 30
0
  0
SPLINE
  5
106
100
AcDbEntity
  8
默认
  6
ByLayer
 62
  256
370
   -1
100
AcDbSpline
210
0
220
0
230
0
 70
    8
 71
    2
 72
    6
 73
    3
 74
    0
 42
1e-07
 43
1e-07
 40
0
 40
0
 40
0
 40
1
 40
1
 40
1
 10
-1642.60043200769
 20
295.8857886397991
 30
0
 10
-1642.60043200769
 20
295.3857886397988
 30
0
 10
-1642.100432007689
 20
295.3857886397991
 30
0
  0
SPLINE
  5
107
100
AcDbEntity
  8
默认
  6
ByLayer
 62
  256
370
   -1
100
AcDbSpline
210
0
220
0
230
0
 70
    8
 71
    2
 72
    6
 73
    3
 74
    0
 42
1e-07
 43
1e-07
 40
0
 40
0
 40
0
 40
1
 40
1
 40
1
 10
-1642.100432007689
 20
295.3857886397991
 30
0
 10
-1635.600782007689
 20
295.3857886397991
 30
0
 10
-1629.10113200769
 20
295.3857886397991
 30
0
  0
SPLINE
  5
108
100
AcDbEntity
  8
默认
  6
ByLayer
 62
  256
370
   -1
100
AcDbSpline
210
0
220
0
230
0
 70
    8
 71
    2
 72
    6
 73
    3
 74
    0
 42
1e-07
 43
1e-07
 40
0
 40
0
 40
0
 40
1
 40
1
 40
1
 10
-1629.10113200769
 20
295.3857886397991
 30
0
 10
-1628.60113200769
 20
295.3857886397996
 30
0
 10
-1628.60113200769
 20
295.8857886397991
 30
0
  0
SPLINE
  5
109
100
AcDbEntity
  8
默认
  6
ByLayer
 62
  256
370
   -1
100
AcDbSpline
210
0
220
0
230
0
 70
    8
 71
    2
 72
    6
 73
    3
 74
    0
 42
1e-07
 43
1e-07
 40
0
 40
0
 40
0
 40
1
 40
1
 40
1
 10
-1628.60113200769
 20
295.8857886397991
 30
0
 10
-1628.60113200769
 20
302.3854386397988
 30
0
 10
-1628.60113200769
 20
308.8850886397986
 30
0
  0
SPLINE
  5
10A
100
AcDbEntity
  8
默认
  6
ByLayer
 62
  256
370
   -1
100
AcDbSpline
210
0
220
0
230
0
 70
    8
 71
    2
 72
    6
 73
    3
 74
    0
 42
1e-07
 43
1e-07
 40
0
 40
0
 40
0
 40
1
 40
1
 40
1
 10
-1665.91293200769
 20
328.4350886397988
 30
0
 10
-1666.412932007689
 20
328.4350886397991
 30
0
 10
-1666.41293200769
 20
327.9350886397988
 30
0
  0
SPLINE
  5
10B
100
AcDbEntity
  8
默认
  6
ByLayer
 62
  256
370
   -1
100
AcDbSpline
210
0
220
0
230
0
 70
    8
 71
    2
 72
    6
 73
    3
 74
    0
 42
1e-07
 43
1e-07
 40
0
 40
0
 40
0
 40
1
 40
1
 40
1
 10
-1666.41293200769
 20
327.9350886397988
 30
0
 10
-1666.41293200769
 20
321.435438639799
 30
0
 10
-1666.41293200769
 20
314.9357886397988
 30
0
  0
SPLINE
  5
10C
100
AcDbEntity
  8
默认
  6
ByLayer
 62
  256
370
   -1
100
AcDbSpline
210
0
220
0
230
0
 70
    8
 71
    2
 72
    6
 73
    3
 74
    0
 42
1e-07
 43
1e-07
 40
0
 40
0
 40
0
 40
1
 40
1
 40
1
 10
-1666.41293200769
 20
314.9357886397988
 30
0
 10
-1666.412932007689
 20
314.4357886397996
 30
0
 10
-1665.91293200769
 20
314.4357886397988
 30
0
  0
SPLINE
  5
10D
100
AcDbEntity
  8
默认
  6
ByLayer
 62
  256
370
   -1
100
AcDbSpline
210
0
220
0
230
0
 70
    8
 71
    2
 72
    6
 73
    3
 74
    0
 42
1e-07
 43
1e-07
 40
0
 40
0
 40
0
 40
1
 40
1
 40
1
 10
-1665.91293200769
 20
314.4357886397988
 30
0
 10
-1659.413282007689
 20
314.4357886397988
 30
0
 10
-1652.91363200769
 20
314.4357886397988
 30
0
  0
SPLINE
  5
10E
100
AcDbEntity
  8
默认
  6
ByLayer
 62
  256
370
   -1
100
AcDbSpline
210
0
220
0
230
0
 70
    8
 71
    2
 72
    6
 73
    3
 74
    0
 42
1e-07
 43
1e-07
 40
0
 40
0
 40
0
 40
1
 40
1
 40
1
 10
-1652.91363200769
 20
314.4357886397988
 30
0
 10
-1652.41363200769
 20
314.4357886397991
 30
0
 10
-1652.41363200769
 20
314.9357886397988
 30
0
  0
SPLINE
  5
10F
100
AcDbEntity
  8
默认
  6
ByLayer
 62
  256
370
   -1
100
AcDbSpline
210
0
220
0
230
0
 70
    8
 71
    2
 72
    6
 73
    3
 74
    0
 42
1e-07
 43
1e-07
 40
0
 40
0
 40
0
 40
1
 40
1
 40
1
 10
-1652.41363200769
 20
314.9357886397988
 30
0
 10
-1652.41363200769
 20
321.435438639799
 30
0
 10
-1652.41363200769
 20
327.9350886397988
 30
0
  0
SPLINE
  5
110
100
AcDbEntity
  8
默认
  6
ByLayer
 62
  256
370
   -1
100
AcDbSpline
210
0
220
0
230
0
 70
    8
 71
    2
 72
    6
 73
    3
 74
    0
 42
1e-07
 43
1e-07
 40
0
 40
0
 40
0
 40
1
 40
1
 40
1
 10
-1652.41363200769
 20
327.9350886397988
 30
0
 10
-1652.41363200769
 20
328.4350886397995
 30
0
 10
-1652.91363200769
 20
328.4350886397988
 30
0
  0
SPLINE
  5
111
100
AcDbEntity
  8
默认
  6
ByLayer
 62
  256
370
   -1
100
AcDbSpline
210
0
220
0
230
0
 70
    8
 71
    2
 72
    6
 73
    3
 74
    0
 42
1e-07
 43
1e-07
 40
0
 40
0
 40
0
 40
1
 40
1
 40
1
 10
-1652.91363200769
 20
328.4350886397988
 30
0
 10
-1659.41328200769
 20
328.4350886397988
 30
0
 10
-1665.91293200769
 20
328.4350886397988
 30
0
  0
SPLINE
  5
112
100
AcDbEntity
  8
默认
  6
ByLayer
 62
  256
370
   -1
100
AcDbSpline
210
0
220
0
230
0
 70
    8
 71
    2
 72
    6
 73
    3
 74
    0
 42
1e-07
 43
1e-07
 40
0
 40
0
 40
0
 40
1
 40
1
 40
1
 10
-1462.41363200769
 20
314.4357886397988
 30
0
 10
-1461.91363200769
 20
314.435788639799
 30
0
 10
-1461.91363200769
 20
314.9357886397988
 30
0
  0
SPLINE
  5
113
100
AcDbEntity
  8
默认
  6
ByLayer
 62
  256
370
   -1
100
AcDbSpline
210
0
220
0
230
0
 70
    8
 71
    2
 72
    6
 73
    3
 74
    0
 42
1e-07
 43
1e-07
 40
0
 40
0
 40
0
 40
1
 40
1
 40
1
 10
-1461.91363200769
 20
314.9357886397988
 30
0
 10
-1461.91363200769
 20
321.435438639799
 30
0
 10
-1461.91363200769
 20
327.9350886397988
 30
0
  0
SPLINE
  5
114
100
AcDbEntity
  8
默认
  6
ByLayer
 62
  256
370
   -1
100
AcDbSpline
210
0
220
0
230
0
 70
    8
 71
    2
 72
    6
 73
    3
 74
    0
 42
1e-07
 43
1e-07
 40
0
 40
0
 40
0
 40
1
 40
1
 40
1
 10
-1461.91363200769
 20
327.9350886397988
 30
0
 10
-1461.91363200769
 20
328.4350886397989
 30
0
 10
-1462.41363200769
 20
328.4350886397988
 30
0
  0
SPLINE
  5
115
100
AcDbEntity
  8
默认
  6
ByLayer
 62
  256
370
   -1
100
AcDbSpline
210
0
220
0
230
0
 70
    8
 71
    2
 72
    6
 73
    3
 74
    0
 42
1e-07
 43
1e-07
 40
0
 40
0
 40
0
 40
1
 40
1
 40
1
 10
-1462.41363200769
 20
328.4350886397988
 30
0
 10
-1468.913132007689
 20
328.4350886397988
 30
0
 10
-1475.41263200769
 20
328.4350886397988
 30
0
  0
SPLINE
  5
116
100
AcDbEntity
  8
默认
  6
ByLayer
 62
  256
370
   -1
100
AcDbSpline
210
0
220
0
230
0
 70
    8
 71
    2
 72
    6
 73
    3
 74
    0
 42
1e-07
 43
1e-07
 40
0
 40
0
 40
0
 40
1
 40
1
 40
1
 10
-1475.41263200769
 20
328.4350886397988
 30
0
 10
-1475.912632007689
 20
328.4350886397987
 30
0
 10
-1475.91263200769
 20
327.9350886397988
 30
0
  0
SPLINE
  5
117
100
AcDbEntity
  8
默认
  6
ByLayer
 62
  256
370
   -1
100
AcDbSpline
210
0
220
0
230
0
 70
    8
 71
    2
 72
    6
 73
    3
 74
    0
 42
1e-07
 43
1e-07
 40
0
 40
0
 40
0
 40
1
 40
1
 40
1
 10
-1475.91263200769
 20
327.9350886397988
 30
0
 10
-1475.91263200769
 20
321.435438639799
 30
0
 10
-1475.91263200769
 20
314.9357886397988
 30
0
  0
SPLINE
  5
118
100
AcDbEntity
  8
默认
  6
ByLayer
 62
  256
370
   -1
100
AcDbSpline
210
0
220
0
230
0
 70
    8
 71
    2
 72
    6
 73
    3
 74
    0
 42
1e-07
 43
1e-07
 40
0
 40
0
 40
0
 40
1
 40
1
 40
1
 10
-1475.91263200769
 20
314.9357886397988
 30
0
 10
-1475.912632007688
 20
314.4357886397997
 30
0
 10
-1475.41263200769
 20
314.4357886397988
 30
0
  0
SPLINE
  5
119
100
AcDbEntity
  8
默认
  6
ByLayer
 62
  256
370
   -1
100
AcDbSpline
210
0
220
0
230
0
 70
    8
 71
    2
 72
    6
 73
    3
 74
    0
 42
1e-07
 43
1e-07
 40
0
 40
0
 40
0
 40
1
 40
1
 40
1
 10
-1475.41263200769
 20
314.4357886397988
 30
0
 10
-1468.913132007689
 20
314.4357886397988
 30
0
 10
-1462.41363200769
 20
314.4357886397988
 30
0
  0
SPLINE
  5
11A
100
AcDbEntity
  8
默认
  6
ByLayer
 62
  256
370
   -1
100
AcDbSpline
210
0
220
0
230
0
 70
    8
 71
    2
 72
    6
 73
    3
 74
    0
 42
1e-07
 43
1e-07
 40
0
 40
0
 40
0
 40
1
 40
1
 40
1
 10
-1610.051132007689
 20
295.3857886397991
 30
0
 10
-1609.551132007689
 20
295.3857886397992
 30
0
 10
-1609.55113200769
 20
295.8857886397991
 30
0
  0
SPLINE
  5
11B
100
AcDbEntity
  8
默认
  6
ByLayer
 62
  256
370
   -1
100
AcDbSpline
210
0
220
0
230
0
 70
    8
 71
    2
 72
    6
 73
    3
 74
    0
 42
1e-07
 43
1e-07
 40
0
 40
0
 40
0
 40
1
 40
1
 40
1
 10
-1609.55113200769
 20
295.8857886397991
 30
0
 10
-1609.55113200769
 20
302.3854386397988
 30
0
 10
-1609.55113200769
 20
308.8850886397986
 30
0
  0
SPLINE
  5
11C
100
AcDbEntity
  8
默认
  6
ByLayer
 62
  256
370
   -1
100
AcDbSpline
210
0
220
0
230
0
 70
    8
 71
    2
 72
    6
 73
    3
 74
    0
 42
1e-07
 43
1e-07
 40
0
 40
0
 40
0
 40
1
 40
1
 40
1
 10
-1609.55113200769
 20
308.8850886397986
 30
0
 10
-1609.551132007691
 20
309.3850886397984
 30
0
 10
-1610.05113200769
 20
309.3850886397991
 30
0
  0
SPLINE
  5
11D
100
AcDbEntity
  8
默认
  6
ByLayer
 62
  256
370
   -1
100
AcDbSpline
210
0
220
0
230
0
 70
    8
 71
    2
 72
    6
 73
    3
 74
    0
 42
1e-07
 43
1e-07
 40
0
 40
0
 40
0
 40
1
 40
1
 40
1
 10
-1610.05113200769
 20
309.3850886397991
 30
0
 10
-1616.55078200769
 20
309.3850886397991
 30
0
 10
-1623.05043200769
 20
309.3850886397991
 30
0
  0
SPLINE
  5
11E
100
AcDbEntity
  8
默认
  6
ByLayer
 62
  256
370
   -1
100
AcDbSpline
210
0
220
0
230
0
 70
    8
 71
    2
 72
    6
 73
    3
 74
    0
 42
1e-07
 43
1e-07
 40
0
 40
0
 40
0
 40
1
 40
1
 40
1
 10
-1623.05043200769
 20
309.3850886397991
 30
0
 10
-1623.550432007689
 20
309.3850886397987
 30
0
 10
-1623.55043200769
 20
308.8850886397991
 30
0
  0
SPLINE
  5
11F
100
AcDbEntity
  8
默认
  6
ByLayer
 62
  256
370
   -1
100
AcDbSpline
210
0
220
0
230
0
 70
    8
 71
    2
 72
    6
 73
    3
 74
    0
 42
1e-07
 43
1e-07
 40
0
 40
0
 40
0
 40
1
 40
1
 40
1
 10
-1623.55043200769
 20
308.8850886397991
 30
0
 10
-1623.55043200769
 20
302.3854386397988
 30
0
 10
-1623.55043200769
 20
295.8857886397991
 30
0
  0
SPLINE
  5
120
100
AcDbEntity
  8
默认
  6
ByLayer
 62
  256
370
   -1
100
AcDbSpline
210
0
220
0
230
0
 70
    8
 71
    2
 72
    6
 73
    3
 74
    0
 42
1e-07
 43
1e-07
 40
0
 40
0
 40
0
 40
1
 40
1
 40
1
 10
-1623.55043200769
 20
295.8857886397991
 30
0
 10
-1623.550432007689
 20
295.3857886397998
 30
0
 10
-1623.05043200769
 20
295.3857886397991
 30
0
  0
SPLINE
  5
121
100
AcDbEntity
  8
默认
  6
ByLayer
 62
  256
370
   -1
100
AcDbSpline
210
0
220
0
230
0
 70
    8
 71
    2
 72
    6
 73
    3
 74
    0
 42
1e-07
 43
1e-07
 40
0
 40
0
 40
0
 40
1
 40
1
 40
1
 10
-1623.05043200769
 20
295.3857886397991
 30
0
 10
-1616.55078200769
 20
295.3857886397991
 30
0
 10
-1610.051132007689
 20
295.3857886397991
 30
0
  0
SPLINE
  5
122
100
AcDbEntity
  8
默认
  6
ByLayer
 62
  256
370
   -1
100
AcDbSpline
210
0
220
0
230
0
 70
    8
 71
    2
 72
    6
 73
    3
 74
    0
 42
1e-07
 43
1e-07
 40
0
 40
0
 40
0
 40
1
 40
1
 40
1
 10
-1633.86363200769
 20
314.4357886397988
 30
0
 10
-1633.36363200769
 20
314.4357886397988
 30
0
 10
-1633.36363200769
 20
314.9357886397988
 30
0
  0
SPLINE
  5
123
100
AcDbEntity
  8
默认
  6
ByLayer
 62
  256
370
   -1
100
AcDbSpline
210
0
220
0
230
0
 70
    8
 71
    2
 72
    6
 73
    3
 74
    0
 42
1e-07
 43
1e-07
 40
0
 40
0
 40
0
 40
1
 40
1
 40
1
 10
-1633.36363200769
 20
314.9357886397988
 30
0
 10
-1633.363632007689
 20
321.435438639799
 30
0
 10
-1633.363632007689
 20
327.9350886397988
 30
0
  0
SPLINE
  5
124
100
AcDbEntity
  8
默认
  6
ByLayer
 62
  256
370
   -1
100
AcDbSpline
210
0
220
0
230
0
 70
    8
 71
    2
 72
    6
 73
    3
 74
    0
 42
1e-07
 43
1e-07
 40
0
 40
0
 40
0
 40
1
 40
1
 40
1
 10
-1633.363632007689
 20
327.9350886397988
 30
0
 10
-1633.363632007689
 20
328.4350886397997
 30
0
 10
-1633.86363200769
 20
328.4350886397988
 30
0
  0
SPLINE
  5
125
100
AcDbEntity
  8
默认
  6
ByLayer
 62
  256
370
   -1
100
AcDbSpline
210
0
220
0
230
0
 70
    8
 71
    2
 72
    6
 73
    3
 74
    0
 42
1e-07
 43
1e-07
 40
0
 40
0
 40
0
 40
1
 40
1
 40
1
 10
-1633.86363200769
 20
328.4350886397988
 30
0
 10
-1640.36328200769
 20
328.4350886397988
 30
0
 10
-1646.86293200769
 20
328.4350886397988
 30
0
  0
SPLINE
  5
126
100
AcDbEntity
  8
默认
  6
ByLayer
 62
  256
370
   -1
100
AcDbSpline
210
0
220
0
230
0
 70
    8
 71
    2
 72
    6
 73
    3
 74
    0
 42
1e-07
 43
1e-07
 40
0
 40
0
 40
0
 40
1
 40
1
 40
1
 10
-1646.86293200769
 20
328.4350886397988
 30
0
 10
-1647.36293200769
 20
328.4350886397988
 30
0
 10
-1647.36293200769
 20
327.9350886397988
 30
0
  0
SPLINE
  5
127
100
AcDbEntity
  8
默认
  6
ByLayer
 62
  256
370
   -1
100
AcDbSpline
210
0
220
0
230
0
 70
    8
 71
    2
 72
    6
 73
    3
 74
    0
 42
1e-07
 43
1e-07
 40
0
 40
0
 40
0
 40
1
 40
1
 40
1
 10
-1647.36293200769
 20
327.9350886397988
 30
0
 10
-1647.36293200769
 20
321.435438639799
 30
0
 10
-1647.36293200769
 20
314.9357886397988
 30
0
  0
SPLINE
  5
128
100
AcDbEntity
  8
默认
  6
ByLayer
 62
  256
370
   -1
100
AcDbSpline
210
0
220
0
230
0
 70
    8
 71
    2
 72
    6
 73
    3
 74
    0
 42
1e-07
 43
1e-07
 40
0
 40
0
 40
0
 40
1
 40
1
 40
1
 10
-1647.36293200769
 20
314.9357886397988
 30
0
 10
-1647.36293200769
 20
314.435788639798
 30
0
 10
-1646.86293200769
 20
314.4357886397988
 30
0
  0
SPLINE
  5
129
100
AcDbEntity
  8
默认
  6
ByLayer
 62
  256
370
   -1
100
AcDbSpline
210
0
220
0
230
0
 70
    8
 71
    2
 72
    6
 73
    3
 74
    0
 42
1e-07
 43
1e-07
 40
0
 40
0
 40
0
 40
1
 40
1
 40
1
 10
-1646.86293200769
 20
314.4357886397988
 30
0
 10
-1640.36328200769
 20
314.4357886397988
 30
0
 10
-1633.86363200769
 20
314.4357886397988
 30
0
  0
SPLINE
  5
12A
100
AcDbEntity
  8
默认
  6
ByLayer
 62
  256
370
   -1
100
AcDbSpline
210
0
220
0
230
0
 70
    8
 71
    2
 72
    6
 73
    3
 74
    0
 42
1e-07
 43
1e-07
 40
0
 40
0
 40
0
 40
1
 40
1
 40
1
 10
-1528.30063200769
 20
295.8857886397991
 30
0
 10
-1528.300632007691
 20
295.3857886397982
 30
0
 10
-1527.80063200769
 20
295.3857886397991
 30
0
  0
SPLINE
  5
12B
100
AcDbEntity
  8
默认
  6
ByLayer
 62
  256
370
   -1
100
AcDbSpline
210
0
220
0
230
0
 70
    8
 71
    2
 72
    6
 73
    3
 74
    0
 42
1e-07
 43
1e-07
 40
0
 40
0
 40
0
 40
1
 40
1
 40
1
 10
-1527.80063200769
 20
295.3857886397991
 30
0
 10
-1521.30063200769
 20
295.3857886397991
 30
0
 10
-1514.80063200769
 20
295.3857886397991
 30
0
  0
SPLINE
  5
12C
100
AcDbEntity
  8
默认
  6
ByLayer
 62
  256
370
   -1
100
AcDbSpline
210
0
220
0
230
0
 70
    8
 71
    2
 72
    6
 73
    3
 74
    0
 42
1e-07
 43
1e-07
 40
0
 40
0
 40
0
 40
1
 40
1
 40
1
 10
-1514.80063200769
 20
295.3857886397991
 30
0
 10
-1514.30063200769
 20
295.3857886397993
 30
0
 10
-1514.30063200769
 20
295.8857886397986
 30
0
  0
SPLINE
  5
12D
100
AcDbEntity
  8
默认
  6
ByLayer
 62
  256
370
   -1
100
AcDbSpline
210
0
220
0
230
0
 70
    8
 71
    2
 72
    6
 73
    3
 74
    0
 42
1e-07
 43
1e-07
 40
0
 40
0
 40
0
 40
1
 40
1
 40
1
 10
-1514.30063200769
 20
295.8857886397986
 30
0
 10
-1514.30063200769
 20
302.3854386397988
 30
0
 10
-1514.30063200769
 20
308.8850886397986
 30
0
  0
SPLINE
  5
12E
100
AcDbEntity
  8
默认
  6
ByLayer
 62
  256
370
   -1
100
AcDbSpline
210
0
220
0
230
0
 70
    8
 71
    2
 72
    6
 73
    3
 74
    0
 42
1e-07
 43
1e-07
 40
0
 40
0
 40
0
 40
1
 40
1
 40
1
 10
-1514.30063200769
 20
308.8850886397986
 30
0
 10
-1514.30063200769
 20
309.3850886397985
 30
0
 10
-1514.80063200769
 20
309.3850886397991
 30
0
  0
SPLINE
  5
12F
100
AcDbEntity
  8
默认
  6
ByLayer
 62
  256
370
   -1
100
AcDbSpline
210
0
220
0
230
0
 70
    8
 71
    2
 72
    6
 73
    3
 74
    0
 42
1e-07
 43
1e-07
 40
0
 40
0
 40
0
 40
1
 40
1
 40
1
 10
-1514.80063200769
 20
309.3850886397991
 30
0
 10
-1521.30063200769
 20
309.3850886397991
 30
0
 10
-1527.80063200769
 20
309.3850886397991
 30
0
  0
SPLINE
  5
130
100
AcDbEntity
  8
默认
  6
ByLayer
 62
  256
370
   -1
100
AcDbSpline
210
0
220
0
230
0
 70
    8
 71
    2
 72
    6
 73
    3
 74
    0
 42
1e-07
 43
1e-07
 40
0
 40
0
 40
0
 40
1
 40
1
 40
1
 10
-1527.80063200769
 20
309.3850886397991
 30
0
 10
-1528.30063200769
 20
309.3850886397984
 30
0
 10
-1528.30063200769
 20
308.8850886397991
 30
0
  0
SPLINE
  5
131
100
AcDbEntity
  8
默认
  6
ByLayer
 62
  256
370
   -1
100
AcDbSpline
210
0
220
0
230
0
 70
    8
 71
    2
 72
    6
 73
    3
 74
    0
 42
1e-07
 43
1e-07
 40
0
 40
0
 40
0
 40
1
 40
1
 40
1
 10
-1528.30063200769
 20
308.8850886397991
 30
0
 10
-1528.30063200769
 20
302.3854386397988
 30
0
 10
-1528.30063200769
 20
295.8857886397991
 30
0
  0
SPLINE
  5
132
100
AcDbEntity
  8
默认
  6
ByLayer
 62
  256
370
   -1
100
AcDbSpline
210
0
220
0
230
0
 70
    8
 71
    2
 72
    6
 73
    3
 74
    0
 42
1e-07
 43
1e-07
 40
0
 40
0
 40
0
 40
1
 40
1
 40
1
 10
-1590.50063200769
 20
308.8850886397986
 30
0
 10
-1590.50063200769
 20
309.3850886397985
 30
0
 10
-1591.00063200769
 20
309.3850886397991
 30
0
  0
SPLINE
  5
133
100
AcDbEntity
  8
默认
  6
ByLayer
 62
  256
370
   -1
100
AcDbSpline
210
0
220
0
230
0
 70
    8
 71
    2
 72
    6
 73
    3
 74
    0
 42
1e-07
 43
1e-07
 40
0
 40
0
 40
0
 40
1
 40
1
 40
1
 10
-1591.00063200769
 20
309.3850886397991
 30
0
 10
-1597.500532007689
 20
309.3850886397991
 30
0
 10
-1604.00043200769
 20
309.3850886397986
 30
0
  0
SPLINE
  5
134
100
AcDbEntity
  8
默认
  6
ByLayer
 62
  256
370
   -1
100
AcDbSpline
210
0
220
0
230
0
 70
    8
 71
    2
 72
    6
 73
    3
 74
    0
 42
1e-07
 43
1e-07
 40
0
 40
0
 40
0
 40
1
 40
1
 40
1
 10
-1604.00043200769
 20
309.3850886397986
 30
0
 10
-1604.500432007689
 20
309.3850886397992
 30
0
 10
-1604.50043200769
 20
308.8850886397991
 30
0
  0
SPLINE
  5
135
100
AcDbEntity
  8
默认
  6
ByLayer
 62
  256
370
   -1
100
AcDbSpline
210
0
220
0
230
0
 70
    8
 71
    2
 72
    6
 73
    3
 74
    0
 42
1e-07
 43
1e-07
 40
0
 40
0
 40
0
 40
1
 40
1
 40
1
 10
-1604.50043200769
 20
308.8850886397991
 30
0
 10
-1604.50043200769
 20
302.3854386397988
 30
0
 10
-1604.50043200769
 20
295.8857886397991
 30
0
  0
SPLINE
  5
136
100
AcDbEntity
  8
默认
  6
ByLayer
 62
  256
370
   -1
100
AcDbSpline
210
0
220
0
230
0
 70
    8
 71
    2
 72
    6
 73
    3
 74
    0
 42
1e-07
 43
1e-07
 40
0
 40
0
 40
0
 40
1
 40
1
 40
1
 10
-1604.50043200769
 20
295.8857886397991
 30
0
 10
-1604.50043200769
 20
295.3857886397984
 30
0
 10
-1604.000432007689
 20
295.3857886397991
 30
0
  0
SPLINE
  5
137
100
AcDbEntity
  8
默认
  6
ByLayer
 62
  256
370
   -1
100
AcDbSpline
210
0
220
0
230
0
 70
    8
 71
    2
 72
    6
 73
    3
 74
    0
 42
1e-07
 43
1e-07
 40
0
 40
0
 40
0
 40
1
 40
1
 40
1
 10
-1604.000432007689
 20
295.3857886397991
 30
0
 10
-1597.500532007689
 20
295.3857886397991
 30
0
 10
-1591.00063200769
 20
295.3857886397991
 30
0
  0
SPLINE
  5
138
100
AcDbEntity
  8
默认
  6
ByLayer
 62
  256
370
   -1
100
AcDbSpline
210
0
220
0
230
0
 70
    8
 71
    2
 72
    6
 73
    3
 74
    0
 42
1e-07
 43
1e-07
 40
0
 40
0
 40
0
 40
1
 40
1
 40
1
 10
-1591.00063200769
 20
295.3857886397991
 30
0
 10
-1590.50063200769
 20
295.3857886397995
 30
0
 10
-1590.50063200769
 20
295.8857886397991
 30
0
  0
SPLINE
  5
139
100
AcDbEntity
  8
默认
  6
ByLayer
 62
  256
370
   -1
100
AcDbSpline
210
0
220
0
230
0
 70
    8
 71
    2
 72
    6
 73
    3
 74
    0
 42
1e-07
 43
1e-07
 40
0
 40
0
 40
0
 40
1
 40
1
 40
1
 10
-1590.50063200769
 20
295.8857886397991
 30
0
 10
-1590.50063200769
 20
302.3854386397988
 30
0
 10
-1590.50063200769
 20
308.8850886397986
 30
0
  0
SPLINE
  5
13A
100
AcDbEntity
  8
默认
  6
ByLayer
 62
  256
370
   -1
100
AcDbSpline
210
0
220
0
230
0
 70
    8
 71
    2
 72
    6
 73
    3
 74
    0
 42
1e-07
 43
1e-07
 40
0
 40
0
 40
0
 40
1
 40
1
 40
1
 10
-1571.45063200769
 20
308.8850886397991
 30
0
 10
-1571.45063200769
 20
309.3850886397993
 30
0
 10
-1571.95063200769
 20
309.3850886397991
 30
0
  0
SPLINE
  5
13B
100
AcDbEntity
  8
默认
  6
ByLayer
 62
  256
370
   -1
100
AcDbSpline
210
0
220
0
230
0
 70
    8
 71
    2
 72
    6
 73
    3
 74
    0
 42
1e-07
 43
1e-07
 40
0
 40
0
 40
0
 40
1
 40
1
 40
1
 10
-1571.95063200769
 20
309.3850886397991
 30
0
 10
-1578.45063200769
 20
309.3850886397991
 30
0
 10
-1584.95063200769
 20
309.3850886397991
 30
0
  0
SPLINE
  5
13C
100
AcDbEntity
  8
默认
  6
ByLayer
 62
  256
370
   -1
100
AcDbSpline
210
0
220
0
230
0
 70
    8
 71
    2
 72
    6
 73
    3
 74
    0
 42
1e-07
 43
1e-07
 40
0
 40
0
 40
0
 40
1
 40
1
 40
1
 10
-1584.95063200769
 20
309.3850886397991
 30
0
 10
-1585.45063200769
 20
309.3850886397992
 30
0
 10
-1585.45063200769
 20
308.8850886397991
 30
0
  0
SPLINE
  5
13D
100
AcDbEntity
  8
默认
  6
ByLayer
 62
  256
370
   -1
100
AcDbSpline
210
0
220
0
230
0
 70
    8
 71
    2
 72
    6
 73
    3
 74
    0
 42
1e-07
 43
1e-07
 40
0
 40
0
 40
0
 40
1
 40
1
 40
1
 10
-1585.45063200769
 20
308.8850886397991
 30
0
 10
-1585.45063200769
 20
302.3854386397988
 30
0
 10
-1585.45063200769
 20
295.8857886397991
 30
0
  0
SPLINE
  5
13E
100
AcDbEntity
  8
默认
  6
ByLayer
 62
  256
370
   -1
100
AcDbSpline
210
0
220
0
230
0
 70
    8
 71
    2
 72
    6
 73
    3
 74
    0
 42
1e-07
 43
1e-07
 40
0
 40
0
 40
0
 40
1
 40
1
 40
1
 10
-1585.45063200769
 20
295.8857886397991
 30
0
 10
-1585.45063200769
 20
295.3857886397989
 30
0
 10
-1584.95063200769
 20
295.3857886397991
 30
0
  0
SPLINE
  5
13F
100
AcDbEntity
  8
默认
  6
ByLayer
 62
  256
370
   -1
100
AcDbSpline
210
0
220
0
230
0
 70
    8
 71
    2
 72
    6
 73
    3
 74
    0
 42
1e-07
 43
1e-07
 40
0
 40
0
 40
0
 40
1
 40
1
 40
1
 10
-1584.95063200769
 20
295.3857886397991
 30
0
 10
-1578.45063200769
 20
295.3857886397991
 30
0
 10
-1571.95063200769
 20
295.3857886397991
 30
0
  0
SPLINE
  5
140
100
AcDbEntity
  8
默认
  6
ByLayer
 62
  256
370
   -1
100
AcDbSpline
210
0
220
0
230
0
 70
    8
 71
    2
 72
    6
 73
    3
 74
    0
 42
1e-07
 43
1e-07
 40
0
 40
0
 40
0
 40
1
 40
1
 40
1
 10
-1571.95063200769
 20
295.3857886397991
 30
0
 10
-1571.450632007689
 20
295.3857886397978
 30
0
 10
-1571.45063200769
 20
295.8857886397991
 30
0
  0
SPLINE
  5
141
100
AcDbEntity
  8
默认
  6
ByLayer
 62
  256
370
   -1
100
AcDbSpline
210
0
220
0
230
0
 70
    8
 71
    2
 72
    6
 73
    3
 74
    0
 42
1e-07
 43
1e-07
 40
0
 40
0
 40
0
 40
1
 40
1
 40
1
 10
-1571.45063200769
 20
295.8857886397991
 30
0
 10
-1571.45063200769
 20
302.3854386397988
 30
0
 10
-1571.45063200769
 20
308.8850886397991
 30
0
  0
SPLINE
  5
142
100
AcDbEntity
  8
默认
  6
ByLayer
 62
  256
370
   -1
100
AcDbSpline
210
0
220
0
230
0
 70
    8
 71
    2
 72
    6
 73
    3
 74
    0
 42
1e-07
 43
1e-07
 40
0
 40
0
 40
0
 40
1
 40
1
 40
1
 10
-1532.56263200769
 20
328.4350886397988
 30
0
 10
-1533.06263200769
 20
328.4350886397987
 30
0
 10
-1533.06263200769
 20
327.9350886397988
 30
0
  0
SPLINE
  5
143
100
AcDbEntity
  8
默认
  6
ByLayer
 62
  256
370
   -1
100
AcDbSpline
210
0
220
0
230
0
 70
    8
 71
    2
 72
    6
 73
    3
 74
    0
 42
1e-07
 43
1e-07
 40
0
 40
0
 40
0
 40
1
 40
1
 40
1
 10
-1533.06263200769
 20
327.9350886397988
 30
0
 10
-1533.062632007689
 20
321.435438639799
 30
0
 10
-1533.062632007689
 20
314.9357886397988
 30
0
  0
SPLINE
  5
144
100
AcDbEntity
  8
默认
  6
ByLayer
 62
  256
370
   -1
100
AcDbSpline
210
0
220
0
230
0
 70
    8
 71
    2
 72
    6
 73
    3
 74
    0
 42
1e-07
 43
1e-07
 40
0
 40
0
 40
0
 40
1
 40
1
 40
1
 10
-1533.062632007689
 20
314.9357886397988
 30
0
 10
-1533.06263200769
 20
314.4357886397982
 30
0
 10
-1532.56263200769
 20
314.4357886397988
 30
0
  0
SPLINE
  5
145
100
AcDbEntity
  8
默认
  6
ByLayer
 62
  256
370
   -1
100
AcDbSpline
210
0
220
0
230
0
 70
    8
 71
    2
 72
    6
 73
    3
 74
    0
 42
1e-07
 43
1e-07
 40
0
 40
0
 40
0
 40
1
 40
1
 40
1
 10
-1532.56263200769
 20
314.4357886397988
 30
0
 10
-1526.06313200769
 20
314.4357886397988
 30
0
 10
-1519.56363200769
 20
314.4357886397988
 30
0
  0
SPLINE
  5
146
100
AcDbEntity
  8
默认
  6
ByLayer
 62
  256
370
   -1
100
AcDbSpline
210
0
220
0
230
0
 70
    8
 71
    2
 72
    6
 73
    3
 74
    0
 42
1e-07
 43
1e-07
 40
0
 40
0
 40
0
 40
1
 40
1
 40
1
 10
-1519.56363200769
 20
314.4357886397988
 30
0
 10
-1519.063632007691
 20
314.435788639799
 30
0
 10
-1519.06363200769
 20
314.9357886397988
 30
0
  0
SPLINE
  5
147
100
AcDbEntity
  8
默认
  6
ByLayer
 62
  256
370
   -1
100
AcDbSpline
210
0
220
0
230
0
 70
    8
 71
    2
 72
    6
 73
    3
 74
    0
 42
1e-07
 43
1e-07
 40
0
 40
0
 40
0
 40
1
 40
1
 40
1
 10
-1519.06363200769
 20
314.9357886397988
 30
0
 10
-1519.06363200769
 20
321.435438639799
 30
0
 10
-1519.06363200769
 20
327.9350886397988
 30
0
  0
SPLINE
  5
148
100
AcDbEntity
  8
默认
  6
ByLayer
 62
  256
370
   -1
100
AcDbSpline
210
0
220
0
230
0
 70
    8
 71
    2
 72
    6
 73
    3
 74
    0
 42
1e-07
 43
1e-07
 40
0
 40
0
 40
0
 40
1
 40
1
 40
1
 10
-1519.06363200769
 20
327.9350886397988
 30
0
 10
-1519.063632007689
 20
328.4350886397996
 30
0
 10
-1519.56363200769
 20
328.4350886397988
 30
0
  0
SPLINE
  5
149
100
AcDbEntity
  8
默认
  6
ByLayer
 62
  256
370
   -1
100
AcDbSpline
210
0
220
0
230
0
 70
    8
 71
    2
 72
    6
 73
    3
 74
    0
 42
1e-07
 43
1e-07
 40
0
 40
0
 40
0
 40
1
 40
1
 40
1
 10
-1519.56363200769
 20
328.4350886397988
 30
0
 10
-1526.06313200769
 20
328.4350886397988
 30
0
 10
-1532.56263200769
 20
328.4350886397988
 30
0
  0
SPLINE
  5
14A
100
AcDbEntity
  8
默认
  6
ByLayer
 62
  256
370
   -1
100
AcDbSpline
210
0
220
0
230
0
 70
    8
 71
    2
 72
    6
 73
    3
 74
    0
 42
1e-07
 43
1e-07
 40
0
 40
0
 40
0
 40
1
 40
1
 40
1
 10
-1467.17563200769
 20
276.3355886397985
 30
0
 10
-1466.67563200769
 20
276.335588639799
 30
0
 10
-1466.67563200769
 20
276.8355886397989
 30
0
  0
SPLINE
  5
14B
100
AcDbEntity
  8
默认
  6
ByLayer
 62
  256
370
   -1
100
AcDbSpline
210
0
220
0
230
0
 70
    8
 71
    2
 72
    6
 73
    3
 74
    0
 42
1e-07
 43
1e-07
 40
0
 40
0
 40
0
 40
1
 40
1
 40
1
 10
-1466.67563200769
 20
276.8355886397989
 30
0
 10
-1466.67563200769
 20
283.3352886397988
 30
0
 10
-1466.67563200769
 20
289.8349886397987
 30
0
  0
SPLINE
  5
14C
100
AcDbEntity
  8
默认
  6
ByLayer
 62
  256
370
   -1
100
AcDbSpline
210
0
220
0
230
0
 70
    8
 71
    2
 72
    6
 73
    3
 74
    0
 42
1e-07
 43
1e-07
 40
0
 40
0
 40
0
 40
1
 40
1
 40
1
 10
-1466.67563200769
 20
289.8349886397987
 30
0
 10
-1466.675632007689
 20
290.3349886398
 30
0
 10
-1467.17563200769
 20
290.3349886397987
 30
0
  0
SPLINE
  5
14D
100
AcDbEntity
  8
默认
  6
ByLayer
 62
  256
370
   -1
100
AcDbSpline
210
0
220
0
230
0
 70
    8
 71
    2
 72
    6
 73
    3
 74
    0
 42
1e-07
 43
1e-07
 40
0
 40
0
 40
0
 40
1
 40
1
 40
1
 10
-1467.17563200769
 20
290.3349886397987
 30
0
 10
-1473.67563200769
 20
290.3349886397987
 30
0
 10
-1480.17563200769
 20
290.3349886397987
 30
0
  0
SPLINE
  5
14E
100
AcDbEntity
  8
默认
  6
ByLayer
 62
  256
370
   -1
100
AcDbSpline
210
0
220
0
230
0
 70
    8
 71
    2
 72
    6
 73
    3
 74
    0
 42
1e-07
 43
1e-07
 40
0
 40
0
 40
0
 40
1
 40
1
 40
1
 10
-1480.17563200769
 20
290.3349886397987
 30
0
 10
-1480.67563200769
 20
290.3349886397984
 30
0
 10
-1480.67563200769
 20
289.8349886397987
 30
0
  0
SPLINE
  5
14F
100
AcDbEntity
  8
默认
  6
ByLayer
 62
  256
370
   -1
100
AcDbSpline
210
0
220
0
230
0
 70
    8
 71
    2
 72
    6
 73
    3
 74
    0
 42
1e-07
 43
1e-07
 40
0
 40
0
 40
0
 40
1
 40
1
 40
1
 10
-1480.67563200769
 20
289.8349886397987
 30
0
 10
-1480.67563200769
 20
283.3352886397988
 30
0
 10
-1480.67563200769
 20
276.8355886397989
 30
0
  0
SPLINE
  5
150
100
AcDbEntity
  8
默认
  6
ByLayer
 62
  256
370
   -1
100
AcDbSpline
210
0
220
0
230
0
 70
    8
 71
    2
 72
    6
 73
    3
 74
    0
 42
1e-07
 43
1e-07
 40
0
 40
0
 40
0
 40
1
 40
1
 40
1
 10
-1480.67563200769
 20
276.8355886397989
 30
0
 10
-1480.675632007689
 20
276.3355886397993
 30
0
 10
-1480.17563200769
 20
276.3355886397989
 30
0
  0
SPLINE
  5
151
100
AcDbEntity
  8
默认
  6
ByLayer
 62
  256
370
   -1
100
AcDbSpline
210
0
220
0
230
0
 70
    8
 71
    2
 72
    6
 73
    3
 74
    0
 42
1e-07
 43
1e-07
 40
0
 40
0
 40
0
 40
1
 40
1
 40
1
 10
-1480.17563200769
 20
276.3355886397989
 30
0
 10
-1473.67563200769
 20
276.3355886397985
 30
0
 10
-1467.17563200769
 20
276.3355886397985
 30
0
  0
SPLINE
  5
152
100
AcDbEntity
  8
默认
  6
ByLayer
 62
  256
370
   -1
100
AcDbSpline
210
0
220
0
230
0
 70
    8
 71
    2
 72
    6
 73
    3
 74
    0
 42
1e-07
 43
1e-07
 40
0
 40
0
 40
0
 40
1
 40
1
 40
1
 10
-1571.162632007689
 20
314.9357886397988
 30
0
 10
-1571.16263200769
 20
314.4357886397989
 30
0
 10
-1570.66263200769
 20
314.4357886397988
 30
0
  0
SPLINE
  5
153
100
AcDbEntity
  8
默认
  6
ByLayer
 62
  256
370
   -1
100
AcDbSpline
210
0
220
0
230
0
 70
    8
 71
    2
 72
    6
 73
    3
 74
    0
 42
1e-07
 43
1e-07
 40
0
 40
0
 40
0
 40
1
 40
1
 40
1
 10
-1570.66263200769
 20
314.4357886397988
 30
0
 10
-1564.163132007689
 20
314.4357886397988
 30
0
 10
-1557.66363200769
 20
314.4357886397988
 30
0
  0
SPLINE
  5
154
100
AcDbEntity
  8
默认
  6
ByLayer
 62
  256
370
   -1
100
AcDbSpline
210
0
220
0
230
0
 70
    8
 71
    2
 72
    6
 73
    3
 74
    0
 42
1e-07
 43
1e-07
 40
0
 40
0
 40
0
 40
1
 40
1
 40
1
 10
-1557.66363200769
 20
314.4357886397988
 30
0
 10
-1557.163632007689
 20
314.4357886397981
 30
0
 10
-1557.16363200769
 20
314.9357886397988
 30
0
  0
SPLINE
  5
155
100
AcDbEntity
  8
默认
  6
ByLayer
 62
  256
370
   -1
100
AcDbSpline
210
0
220
0
230
0
 70
    8
 71
    2
 72
    6
 73
    3
 74
    0
 42
1e-07
 43
1e-07
 40
0
 40
0
 40
0
 40
1
 40
1
 40
1
 10
-1557.16363200769
 20
314.9357886397988
 30
0
 10
-1557.16363200769
 20
321.435438639799
 30
0
 10
-1557.16363200769
 20
327.9350886397988
 30
0
  0
SPLINE
  5
156
100
AcDbEntity
  8
默认
  6
ByLayer
 62
  256
370
   -1
100
AcDbSpline
210
0
220
0
230
0
 70
    8
 71
    2
 72
    6
 73
    3
 74
    0
 42
1e-07
 43
1e-07
 40
0
 40
0
 40
0
 40
1
 40
1
 40
1
 10
-1557.16363200769
 20
327.9350886397988
 30
0
 10
-1557.16363200769
 20
328.4350886397989
 30
0
 10
-1557.66363200769
 20
328.4350886397988
 30
0
  0
SPLINE
  5
157
100
AcDbEntity
  8
默认
  6
ByLayer
 62
  256
370
   -1
100
AcDbSpline
210
0
220
0
230
0
 70
    8
 71
    2
 72
    6
 73
    3
 74
    0
 42
1e-07
 43
1e-07
 40
0
 40
0
 40
0
 40
1
 40
1
 40
1
 10
-1557.66363200769
 20
328.4350886397988
 30
0
 10
-1564.16313200769
 20
328.4350886397988
 30
0
 10
-1570.66263200769
 20
328.4350886397988
 30
0
  0
SPLINE
  5
158
100
AcDbEntity
  8
默认
  6
ByLayer
 62
  256
370
   -1
100
AcDbSpline
210
0
220
0
230
0
 70
    8
 71
    2
 72
    6
 73
    3
 74
    0
 42
1e-07
 43
1e-07
 40
0
 40
0
 40
0
 40
1
 40
1
 40
1
 10
-1570.66263200769
 20
328.4350886397988
 30
0
 10
-1571.16263200769
 20
328.4350886397993
 30
0
 10
-1571.16263200769
 20
327.9350886397988
 30
0
  0
SPLINE
  5
159
100
AcDbEntity
  8
默认
  6
ByLayer
 62
  256
370
   -1
100
AcDbSpline
210
0
220
0
230
0
 70
    8
 71
    2
 72
    6
 73
    3
 74
    0
 42
1e-07
 43
1e-07
 40
0
 40
0
 40
0
 40
1
 40
1
 40
1
 10
-1571.16263200769
 20
327.9350886397988
 30
0
 10
-1571.162632007689
 20
321.435438639799
 30
0
 10
-1571.162632007689
 20
314.9357886397988
 30
0
  0
SPLINE
  5
15A
100
AcDbEntity
  8
默认
  6
ByLayer
 62
  256
370
   -1
100
AcDbSpline
210
0
220
0
230
0
 70
    8
 71
    2
 72
    6
 73
    3
 74
    0
 42
1e-07
 43
1e-07
 40
0
 40
0
 40
0
 40
1
 40
1
 40
1
 10
-1632.57543200769
 20
290.3349886397991
 30
0
 10
-1633.07543200769
 20
290.334988639798
 30
0
 10
-1633.07543200769
 20
289.8349886397987
 30
0
  0
SPLINE
  5
15B
100
AcDbEntity
  8
默认
  6
ByLayer
 62
  256
370
   -1
100
AcDbSpline
210
0
220
0
230
0
 70
    8
 71
    2
 72
    6
 73
    3
 74
    0
 42
1e-07
 43
1e-07
 40
0
 40
0
 40
0
 40
1
 40
1
 40
1
 10
-1633.07543200769
 20
289.8349886397987
 30
0
 10
-1633.075432007689
 20
283.3352886397988
 30
0
 10
-1633.075432007689
 20
276.8355886397989
 30
0
  0
SPLINE
  5
15C
100
AcDbEntity
  8
默认
  6
ByLayer
 62
  256
370
   -1
100
AcDbSpline
210
0
220
0
230
0
 70
    8
 71
    2
 72
    6
 73
    3
 74
    0
 42
1e-07
 43
1e-07
 40
0
 40
0
 40
0
 40
1
 40
1
 40
1
 10
-1633.075432007689
 20
276.8355886397989
 30
0
 10
-1633.075432007689
 20
276.3355886397993
 30
0
 10
-1632.57543200769
 20
276.3355886397989
 30
0
  0
SPLINE
  5
15D
100
AcDbEntity
  8
默认
  6
ByLayer
 62
  256
370
   -1
100
AcDbSpline
210
0
220
0
230
0
 70
    8
 71
    2
 72
    6
 73
    3
 74
    0
 42
1e-07
 43
1e-07
 40
0
 40
0
 40
0
 40
1
 40
1
 40
1
 10
-1632.57543200769
 20
276.3355886397989
 30
0
 10
-1626.07578200769
 20
276.3355886397989
 30
0
 10
-1619.57613200769
 20
276.3355886397985
 30
0
  0
SPLINE
  5
15E
100
AcDbEntity
  8
默认
  6
ByLayer
 62
  256
370
   -1
100
AcDbSpline
210
0
220
0
230
0
 70
    8
 71
    2
 72
    6
 73
    3
 74
    0
 42
1e-07
 43
1e-07
 40
0
 40
0
 40
0
 40
1
 40
1
 40
1
 10
-1619.57613200769
 20
276.3355886397985
 30
0
 10
-1619.076132007689
 20
276.3355886397986
 30
0
 10
-1619.07613200769
 20
276.8355886397989
 30
0
  0
SPLINE
  5
15F
100
AcDbEntity
  8
默认
  6
ByLayer
 62
  256
370
   -1
100
AcDbSpline
210
0
220
0
230
0
 70
    8
 71
    2
 72
    6
 73
    3
 74
    0
 42
1e-07
 43
1e-07
 40
0
 40
0
 40
0
 40
1
 40
1
 40
1
 10
-1619.07613200769
 20
276.8355886397989
 30
0
 10
-1619.076132007689
 20
283.3352886397988
 30
0
 10
-1619.076132007689
 20
289.8349886397987
 30
0
  0
SPLINE
  5
160
100
AcDbEntity
  8
默认
  6
ByLayer
 62
  256
370
   -1
100
AcDbSpline
210
0
220
0
230
0
 70
    8
 71
    2
 72
    6
 73
    3
 74
    0
 42
1e-07
 43
1e-07
 40
0
 40
0
 40
0
 40
1
 40
1
 40
1
 10
-1619.076132007689
 20
289.8349886397987
 30
0
 10
-1619.076132007689
 20
290.3349886397991
 30
0
 10
-1619.57613200769
 20
290.3349886397987
 30
0
  0
SPLINE
  5
161
100
AcDbEntity
  8
默认
  6
ByLayer
 62
  256
370
   -1
100
AcDbSpline
210
0
220
0
230
0
 70
    8
 71
    2
 72
    6
 73
    3
 74
    0
 42
1e-07
 43
1e-07
 40
0
 40
0
 40
0
 40
1
 40
1
 40
1
 10
-1619.57613200769
 20
290.3349886397987
 30
0
 10
-1626.07578200769
 20
290.3349886397987
 30
0
 10
-1632.57543200769
 20
290.3349886397991
 30
0
  0
SPLINE
  5
162
100
AcDbEntity
  8
默认
  6
ByLayer
 62
  256
370
   -1
100
AcDbSpline
210
0
220
0
230
0
 70
    8
 71
    2
 72
    6
 73
    3
 74
    0
 42
1e-07
 43
1e-07
 40
0
 40
0
 40
0
 40
1
 40
1
 40
1
 10
-1533.850632007689
 20
295.3857886397986
 30
0
 10
-1533.350632007689
 20
295.3857886397995
 30
0
 10
-1533.350632007689
 20
295.8857886397991
 30
0
  0
SPLINE
  5
163
100
AcDbEntity
  8
默认
  6
ByLayer
 62
  256
370
   -1
100
AcDbSpline
210
0
220
0
230
0
 70
    8
 71
    2
 72
    6
 73
    3
 74
    0
 42
1e-07
 43
1e-07
 40
0
 40
0
 40
0
 40
1
 40
1
 40
1
 10
-1533.350632007689
 20
295.8857886397991
 30
0
 10
-1533.350632007689
 20
302.3854386397988
 30
0
 10
-1533.350632007689
 20
308.8850886397986
 30
0
  0
SPLINE
  5
164
100
AcDbEntity
  8
默认
  6
ByLayer
 62
  256
370
   -1
100
AcDbSpline
210
0
220
0
230
0
 70
    8
 71
    2
 72
    6
 73
    3
 74
    0
 42
1e-07
 43
1e-07
 40
0
 40
0
 40
0
 40
1
 40
1
 40
1
 10
-1533.350632007689
 20
308.8850886397986
 30
0
 10
-1533.35063200769
 20
309.3850886397985
 30
0
 10
-1533.850632007689
 20
309.3850886397991
 30
0
  0
SPLINE
  5
165
100
AcDbEntity
  8
默认
  6
ByLayer
 62
  256
370
   -1
100
AcDbSpline
210
0
220
0
230
0
 70
    8
 71
    2
 72
    6
 73
    3
 74
    0
 42
1e-07
 43
1e-07
 40
0
 40
0
 40
0
 40
1
 40
1
 40
1
 10
-1533.850632007689
 20
309.3850886397991
 30
0
 10
-1540.350632007689
 20
309.3850886397991
 30
0
 10
-1546.850632007689
 20
309.3850886397986
 30
0
  0
SPLINE
  5
166
100
AcDbEntity
  8
默认
  6
ByLayer
 62
  256
370
   -1
100
AcDbSpline
210
0
220
0
230
0
 70
    8
 71
    2
 72
    6
 73
    3
 74
    0
 42
1e-07
 43
1e-07
 40
0
 40
0
 40
0
 40
1
 40
1
 40
1
 10
-1546.850632007689
 20
309.3850886397986
 30
0
 10
-1547.35063200769
 20
309.3850886397995
 30
0
 10
-1547.350632007689
 20
308.8850886397991
 30
0
  0
SPLINE
  5
167
100
AcDbEntity
  8
默认
  6
ByLayer
 62
  256
370
   -1
100
AcDbSpline
210
0
220
0
230
0
 70
    8
 71
    2
 72
    6
 73
    3
 74
    0
 42
1e-07
 43
1e-07
 40
0
 40
0
 40
0
 40
1
 40
1
 40
1
 10
-1547.350632007689
 20
308.8850886397991
 30
0
 10
-1547.350632007689
 20
302.3854386397988
 30
0
 10
-1547.350632007689
 20
295.8857886397991
 30
0
  0
SPLINE
  5
168
100
AcDbEntity
  8
默认
  6
ByLayer
 62
  256
370
   -1
100
AcDbSpline
210
0
220
0
230
0
 70
    8
 71
    2
 72
    6
 73
    3
 74
    0
 42
1e-07
 43
1e-07
 40
0
 40
0
 40
0
 40
1
 40
1
 40
1
 10
-1547.350632007689
 20
295.8857886397991
 30
0
 10
-1547.350632007689
 20
295.3857886397989
 30
0
 10
-1546.850632007689
 20
295.3857886397991
 30
0
  0
SPLINE
  5
169
100
AcDbEntity
  8
默认
  6
ByLayer
 62
  256
370
   -1
100
AcDbSpline
210
0
220
0
230
0
 70
    8
 71
    2
 72
    6
 73
    3
 74
    0
 42
1e-07
 43
1e-07
 40
0
 40
0
 40
0
 40
1
 40
1
 40
1
 10
-1546.850632007689
 20
295.3857886397991
 30
0
 10
-1540.350632007689
 20
295.3857886397991
 30
0
 10
-1533.850632007689
 20
295.3857886397986
 30
0
  0
SPLINE
  5
16A
100
AcDbEntity
  8
默认
  6
ByLayer
 62
  256
370
   -1
100
AcDbSpline
210
0
220
0
230
0
 70
    8
 71
    2
 72
    6
 73
    3
 74
    0
 42
1e-07
 43
1e-07
 40
0
 40
0
 40
0
 40
1
 40
1
 40
1
 10
-1538.61363200769
 20
314.4357886397988
 30
0
 10
-1538.11363200769
 20
314.4357886397991
 30
0
 10
-1538.11363200769
 20
314.9357886397988
 30
0
  0
SPLINE
  5
16B
100
AcDbEntity
  8
默认
  6
ByLayer
 62
  256
370
   -1
100
AcDbSpline
210
0
220
0
230
0
 70
    8
 71
    2
 72
    6
 73
    3
 74
    0
 42
1e-07
 43
1e-07
 40
0
 40
0
 40
0
 40
1
 40
1
 40
1
 10
-1538.11363200769
 20
314.9357886397988
 30
0
 10
-1538.11363200769
 20
321.435438639799
 30
0
 10
-1538.11363200769
 20
327.9350886397988
 30
0
  0
SPLINE
  5
16C
100
AcDbEntity
  8
默认
  6
ByLayer
 62
  256
370
   -1
100
AcDbSpline
210
0
220
0
230
0
 70
    8
 71
    2
 72
    6
 73
    3
 74
    0
 42
1e-07
 43
1e-07
 40
0
 40
0
 40
0
 40
1
 40
1
 40
1
 10
-1538.11363200769
 20
327.9350886397988
 30
0
 10
-1538.11363200769
 20
328.4350886397988
 30
0
 10
-1538.61363200769
 20
328.4350886397988
 30
0
  0
SPLINE
  5
16D
100
AcDbEntity
  8
默认
  6
ByLayer
 62
  256
370
   -1
100
AcDbSpline
210
0
220
0
230
0
 70
    8
 71
    2
 72
    6
 73
    3
 74
    0
 42
1e-07
 43
1e-07
 40
0
 40
0
 40
0
 40
1
 40
1
 40
1
 10
-1538.61363200769
 20
328.4350886397988
 30
0
 10
-1545.11313200769
 20
328.4350886397988
 30
0
 10
-1551.61263200769
 20
328.4350886397988
 30
0
  0
SPLINE
  5
16E
100
AcDbEntity
  8
默认
  6
ByLayer
 62
  256
370
   -1
100
AcDbSpline
210
0
220
0
230
0
 70
    8
 71
    2
 72
    6
 73
    3
 74
    0
 42
1e-07
 43
1e-07
 40
0
 40
0
 40
0
 40
1
 40
1
 40
1
 10
-1551.61263200769
 20
328.4350886397988
 30
0
 10
-1552.11263200769
 20
328.4350886397987
 30
0
 10
-1552.11263200769
 20
327.9350886397988
 30
0
  0
SPLINE
  5
16F
100
AcDbEntity
  8
默认
  6
ByLayer
 62
  256
370
   -1
100
AcDbSpline
210
0
220
0
230
0
 70
    8
 71
    2
 72
    6
 73
    3
 74
    0
 42
1e-07
 43
1e-07
 40
0
 40
0
 40
0
 40
1
 40
1
 40
1
 10
-1552.11263200769
 20
327.9350886397988
 30
0
 10
-1552.11263200769
 20
321.435438639799
 30
0
 10
-1552.11263200769
 20
314.9357886397988
 30
0
  0
SPLINE
  5
170
100
AcDbEntity
  8
默认
  6
ByLayer
 62
  256
370
   -1
100
AcDbSpline
210
0
220
0
230
0
 70
    8
 71
    2
 72
    6
 73
    3
 74
    0
 42
1e-07
 43
1e-07
 40
0
 40
0
 40
0
 40
1
 40
1
 40
1
 10
-1552.11263200769
 20
314.9357886397988
 30
0
 10
-1552.11263200769
 20
314.4357886397989
 30
0
 10
-1551.61263200769
 20
314.4357886397988
 30
0
  0
SPLINE
  5
171
100
AcDbEntity
  8
默认
  6
ByLayer
 62
  256
370
   -1
100
AcDbSpline
210
0
220
0
230
0
 70
    8
 71
    2
 72
    6
 73
    3
 74
    0
 42
1e-07
 43
1e-07
 40
0
 40
0
 40
0
 40
1
 40
1
 40
1
 10
-1551.61263200769
 20
314.4357886397988
 30
0
 10
-1545.11313200769
 20
314.4357886397988
 30
0
 10
-1538.61363200769
 20
314.4357886397988
 30
0
  0
SPLINE
  5
172
100
AcDbEntity
  8
默认
  6
ByLayer
 62
  256
370
   -1
100
AcDbSpline
210
0
220
0
230
0
 70
    8
 71
    2
 72
    6
 73
    3
 74
    0
 42
1e-07
 43
1e-07
 40
0
 40
0
 40
0
 40
1
 40
1
 40
1
 10
-1450.007282007689
 20
308.8850886397986
 30
0
 10
-1450.00728200769
 20
309.3850886397991
 30
0
 10
-1450.507282007689
 20
309.3850886397991
 30
0
  0
SPLINE
  5
173
100
AcDbEntity
  8
默认
  6
ByLayer
 62
  256
370
   -1
100
AcDbSpline
210
0
220
0
230
0
 70
    8
 71
    2
 72
    6
 73
    3
 74
    0
 42
1e-07
 43
1e-07
 40
0
 40
0
 40
0
 40
1
 40
1
 40
1
 10
-1450.507282007689
 20
309.3850886397991
 30
0
 10
-1457.007282007689
 20
309.3850886397991
 30
0
 10
-1463.507282007689
 20
309.3850886397991
 30
0
  0
SPLINE
  5
174
100
AcDbEntity
  8
默认
  6
ByLayer
 62
  256
370
   -1
100
AcDbSpline
210
0
220
0
230
0
 70
    8
 71
    2
 72
    6
 73
    3
 74
    0
 42
1e-07
 43
1e-07
 40
0
 40
0
 40
0
 40
1
 40
1
 40
1
 10
-1463.507282007689
 20
309.3850886397991
 30
0
 10
-1464.00728200769
 20
309.3850886397994
 30
0
 10
-1464.007282007689
 20
308.8850886397991
 30
0
  0
SPLINE
  5
175
100
AcDbEntity
  8
默认
  6
ByLayer
 62
  256
370
   -1
100
AcDbSpline
210
0
220
0
230
0
 70
    8
 71
    2
 72
    6
 73
    3
 74
    0
 42
1e-07
 43
1e-07
 40
0
 40
0
 40
0
 40
1
 40
1
 40
1
 10
-1464.007282007689
 20
308.8850886397991
 30
0
 10
-1464.007282007689
 20
302.3854386397988
 30
0
 10
-1464.007282007689
 20
295.8857886397991
 30
0
  0
SPLINE
  5
176
100
AcDbEntity
  8
默认
  6
ByLayer
 62
  256
370
   -1
100
AcDbSpline
210
0
220
0
230
0
 70
    8
 71
    2
 72
    6
 73
    3
 74
    0
 42
1e-07
 43
1e-07
 40
0
 40
0
 40
0
 40
1
 40
1
 40
1
 10
-1464.007282007689
 20
295.8857886397991
 30
0
 10
-1464.007282007689
 20
295.3857886397982
 30
0
 10
-1463.507282007689
 20
295.3857886397991
 30
0
  0
SPLINE
  5
177
100
AcDbEntity
  8
默认
  6
ByLayer
 62
  256
370
   -1
100
AcDbSpline
210
0
220
0
230
0
 70
    8
 71
    2
 72
    6
 73
    3
 74
    0
 42
1e-07
 43
1e-07
 40
0
 40
0
 40
0
 40
1
 40
1
 40
1
 10
-1463.507282007689
 20
295.3857886397991
 30
0
 10
-1457.007282007689
 20
295.3857886397991
 30
0
 10
-1450.507282007689
 20
295.3857886397986
 30
0
  0
SPLINE
  5
178
100
AcDbEntity
  8
默认
  6
ByLayer
 62
  256
370
   -1
100
AcDbSpline
210
0
220
0
230
0
 70
    8
 71
    2
 72
    6
 73
    3
 74
    0
 42
1e-07
 43
1e-07
 40
0
 40
0
 40
0
 40
1
 40
1
 40
1
 10
-1450.507282007689
 20
295.3857886397986
 30
0
 10
-1450.007282007689
 20
295.385788639799
 30
0
 10
-1450.007282007689
 20
295.8857886397991
 30
0
  0
SPLINE
  5
179
100
AcDbEntity
  8
默认
  6
ByLayer
 62
  256
370
   -1
100
AcDbSpline
210
0
220
0
230
0
 70
    8
 71
    2
 72
    6
 73
    3
 74
    0
 42
1e-07
 43
1e-07
 40
0
 40
0
 40
0
 40
1
 40
1
 40
1
 10
-1450.007282007689
 20
295.8857886397991
 30
0
 10
-1450.007282007689
 20
302.3854386397988
 30
0
 10
-1450.007282007689
 20
308.8850886397986
 30
0
  0
SPLINE
  5
17A
100
AcDbEntity
  8
默认
  6
ByLayer
 62
  256
370
   -1
100
AcDbSpline
210
0
220
0
230
0
 70
    8
 71
    2
 72
    6
 73
    3
 74
    0
 42
1e-07
 43
1e-07
 40
0
 40
0
 40
0
 40
1
 40
1
 40
1
 10
-1628.31293200769
 20
314.9357886397988
 30
0
 10
-1628.312932007689
 20
314.4357886397996
 30
0
 10
-1627.81293200769
 20
314.4357886397988
 30
0
  0
SPLINE
  5
17B
100
AcDbEntity
  8
默认
  6
ByLayer
 62
  256
370
   -1
100
AcDbSpline
210
0
220
0
230
0
 70
    8
 71
    2
 72
    6
 73
    3
 74
    0
 42
1e-07
 43
1e-07
 40
0
 40
0
 40
0
 40
1
 40
1
 40
1
 10
-1627.81293200769
 20
314.4357886397988
 30
0
 10
-1621.31328200769
 20
314.4357886397988
 30
0
 10
-1614.81363200769
 20
314.4357886397988
 30
0
  0
SPLINE
  5
17C
100
AcDbEntity
  8
默认
  6
ByLayer
 62
  256
370
   -1
100
AcDbSpline
210
0
220
0
230
0
 70
    8
 71
    2
 72
    6
 73
    3
 74
    0
 42
1e-07
 43
1e-07
 40
0
 40
0
 40
0
 40
1
 40
1
 40
1
 10
-1614.81363200769
 20
314.4357886397988
 30
0
 10
-1614.31363200769
 20
314.4357886397979
 30
0
 10
-1614.31363200769
 20
314.9357886397988
 30
0
  0
SPLINE
  5
17D
100
AcDbEntity
  8
默认
  6
ByLayer
 62
  256
370
   -1
100
AcDbSpline
210
0
220
0
230
0
 70
    8
 71
    2
 72
    6
 73
    3
 74
    0
 42
1e-07
 43
1e-07
 40
0
 40
0
 40
0
 40
1
 40
1
 40
1
 10
-1614.31363200769
 20
314.9357886397988
 30
0
 10
-1614.31363200769
 20
321.435438639799
 30
0
 10
-1614.31363200769
 20
327.9350886397988
 30
0
  0
SPLINE
  5
17E
100
AcDbEntity
  8
默认
  6
ByLayer
 62
  256
370
   -1
100
AcDbSpline
210
0
220
0
230
0
 70
    8
 71
    2
 72
    6
 73
    3
 74
    0
 42
1e-07
 43
1e-07
 40
0
 40
0
 40
0
 40
1
 40
1
 40
1
 10
-1614.31363200769
 20
327.9350886397988
 30
0
 10
-1614.31363200769
 20
328.4350886397988
 30
0
 10
-1614.81363200769
 20
328.4350886397988
 30
0
  0
SPLINE
  5
17F
100
AcDbEntity
  8
默认
  6
ByLayer
 62
  256
370
   -1
100
AcDbSpline
210
0
220
0
230
0
 70
    8
 71
    2
 72
    6
 73
    3
 74
    0
 42
1e-07
 43
1e-07
 40
0
 40
0
 40
0
 40
1
 40
1
 40
1
 10
-1614.81363200769
 20
328.4350886397988
 30
0
 10
-1621.31328200769
 20
328.4350886397988
 30
0
 10
-1627.81293200769
 20
328.4350886397988
 30
0
  0
SPLINE
  5
180
100
AcDbEntity
  8
默认
  6
ByLayer
 62
  256
370
   -1
100
AcDbSpline
210
0
220
0
230
0
 70
    8
 71
    2
 72
    6
 73
    3
 74
    0
 42
1e-07
 43
1e-07
 40
0
 40
0
 40
0
 40
1
 40
1
 40
1
 10
-1627.81293200769
 20
328.4350886397988
 30
0
 10
-1628.312932007689
 20
328.4350886397989
 30
0
 10
-1628.31293200769
 20
327.9350886397988
 30
0
  0
SPLINE
  5
181
100
AcDbEntity
  8
默认
  6
ByLayer
 62
  256
370
   -1
100
AcDbSpline
210
0
220
0
230
0
 70
    8
 71
    2
 72
    6
 73
    3
 74
    0
 42
1e-07
 43
1e-07
 40
0
 40
0
 40
0
 40
1
 40
1
 40
1
 10
-1628.31293200769
 20
327.9350886397988
 30
0
 10
-1628.31293200769
 20
321.435438639799
 30
0
 10
-1628.31293200769
 20
314.9357886397988
 30
0
  0
SPLINE
  5
182
100
AcDbEntity
  8
默认
  6
ByLayer
 62
  256
370
   -1
100
AcDbSpline
210
0
220
0
230
0
 70
    8
 71
    2
 72
    6
 73
    3
 74
    0
 42
1e-07
 43
1e-07
 40
0
 40
0
 40
0
 40
1
 40
1
 40
1
 10
-1481.46363200769
 20
314.4357886397988
 30
0
 10
-1480.96363200769
 20
314.4357886397982
 30
0
 10
-1480.96363200769
 20
314.9357886397988
 30
0
  0
SPLINE
  5
183
100
AcDbEntity
  8
默认
  6
ByLayer
 62
  256
370
   -1
100
AcDbSpline
210
0
220
0
230
0
 70
    8
 71
    2
 72
    6
 73
    3
 74
    0
 42
1e-07
 43
1e-07
 40
0
 40
0
 40
0
 40
1
 40
1
 40
1
 10
-1480.96363200769
 20
314.9357886397988
 30
0
 10
-1480.96363200769
 20
321.435438639799
 30
0
 10
-1480.96363200769
 20
327.9350886397988
 30
0
  0
SPLINE
  5
184
100
AcDbEntity
  8
默认
  6
ByLayer
 62
  256
370
   -1
100
AcDbSpline
210
0
220
0
230
0
 70
    8
 71
    2
 72
    6
 73
    3
 74
    0
 42
1e-07
 43
1e-07
 40
0
 40
0
 40
0
 40
1
 40
1
 40
1
 10
-1480.96363200769
 20
327.9350886397988
 30
0
 10
-1480.96363200769
 20
328.435088639799
 30
0
 10
-1481.46363200769
 20
328.4350886397988
 30
0
  0
SPLINE
  5
185
100
AcDbEntity
  8
默认
  6
ByLayer
 62
  256
370
   -1
100
AcDbSpline
210
0
220
0
230
0
 70
    8
 71
    2
 72
    6
 73
    3
 74
    0
 42
1e-07
 43
1e-07
 40
0
 40
0
 40
0
 40
1
 40
1
 40
1
 10
-1481.46363200769
 20
328.4350886397988
 30
0
 10
-1487.96313200769
 20
328.4350886397988
 30
0
 10
-1494.46263200769
 20
328.4350886397988
 30
0
  0
SPLINE
  5
186
100
AcDbEntity
  8
默认
  6
ByLayer
 62
  256
370
   -1
100
AcDbSpline
210
0
220
0
230
0
 70
    8
 71
    2
 72
    6
 73
    3
 74
    0
 42
1e-07
 43
1e-07
 40
0
 40
0
 40
0
 40
1
 40
1
 40
1
 10
-1494.46263200769
 20
328.4350886397988
 30
0
 10
-1494.96263200769
 20
328.4350886397984
 30
0
 10
-1494.96263200769
 20
327.9350886397988
 30
0
  0
SPLINE
  5
187
100
AcDbEntity
  8
默认
  6
ByLayer
 62
  256
370
   -1
100
AcDbSpline
210
0
220
0
230
0
 70
    8
 71
    2
 72
    6
 73
    3
 74
    0
 42
1e-07
 43
1e-07
 40
0
 40
0
 40
0
 40
1
 40
1
 40
1
 10
-1494.96263200769
 20
327.9350886397988
 30
0
 10
-1494.96263200769
 20
321.435438639799
 30
0
 10
-1494.96263200769
 20
314.9357886397988
 30
0
  0
SPLINE
  5
188
100
AcDbEntity
  8
默认
  6
ByLayer
 62
  256
370
   -1
100
AcDbSpline
210
0
220
0
230
0
 70
    8
 71
    2
 72
    6
 73
    3
 74
    0
 42
1e-07
 43
1e-07
 40
0
 40
0
 40
0
 40
1
 40
1
 40
1
 10
-1494.96263200769
 20
314.9357886397988
 30
0
 10
-1494.96263200769
 20
314.435788639799
 30
0
 10
-1494.46263200769
 20
314.4357886397988
 30
0
  0
SPLINE
  5
189
100
AcDbEntity
  8
默认
  6
ByLayer
 62
  256
370
   -1
100
AcDbSpline
210
0
220
0
230
0
 70
    8
 71
    2
 72
    6
 73
    3
 74
    0
 42
1e-07
 43
1e-07
 40
0
 40
0
 40
0
 40
1
 40
1
 40
1
 10
-1494.46263200769
 20
314.4357886397988
 30
0
 10
-1487.96313200769
 20
314.4357886397988
 30
0
 10
-1481.46363200769
 20
314.4357886397988
 30
0
  0
SPLINE
  5
18A
100
AcDbEntity
  8
默认
  6
ByLayer
 62
  256
370
   -1
100
AcDbSpline
210
0
220
0
230
0
 70
    8
 71
    2
 72
    6
 73
    3
 74
    0
 42
1e-07
 43
1e-07
 40
0
 40
0
 40
0
 40
1
 40
1
 40
1
 10
-1504.77563200769
 20
289.8349886397987
 30
0
 10
-1504.775632007689
 20
290.3349886397987
 30
0
 10
-1505.27563200769
 20
290.3349886397987
 30
0
  0
SPLINE
  5
18B
100
AcDbEntity
  8
默认
  6
ByLayer
 62
  256
370
   -1
100
AcDbSpline
210
0
220
0
230
0
 70
    8
 71
    2
 72
    6
 73
    3
 74
    0
 42
1e-07
 43
1e-07
 40
0
 40
0
 40
0
 40
1
 40
1
 40
1
 10
-1505.27563200769
 20
290.3349886397987
 30
0
 10
-1511.77563200769
 20
290.3349886397987
 30
0
 10
-1518.27563200769
 20
290.3349886397987
 30
0
  0
SPLINE
  5
18C
100
AcDbEntity
  8
默认
  6
ByLayer
 62
  256
370
   -1
100
AcDbSpline
210
0
220
0
230
0
 70
    8
 71
    2
 72
    6
 73
    3
 74
    0
 42
1e-07
 43
1e-07
 40
0
 40
0
 40
0
 40
1
 40
1
 40
1
 10
-1518.27563200769
 20
290.3349886397987
 30
0
 10
-1518.775632007689
 20
290.3349886397982
 30
0
 10
-1518.77563200769
 20
289.8349886397987
 30
0
  0
SPLINE
  5
18D
100
AcDbEntity
  8
默认
  6
ByLayer
 62
  256
370
   -1
100
AcDbSpline
210
0
220
0
230
0
 70
    8
 71
    2
 72
    6
 73
    3
 74
    0
 42
1e-07
 43
1e-07
 40
0
 40
0
 40
0
 40
1
 40
1
 40
1
 10
-1518.77563200769
 20
289.8349886397987
 30
0
 10
-1518.77563200769
 20
283.3352886397988
 30
0
 10
-1518.77563200769
 20
276.8355886397989
 30
0
  0
SPLINE
  5
18E
100
AcDbEntity
  8
默认
  6
ByLayer
 62
  256
370
   -1
100
AcDbSpline
210
0
220
0
230
0
 70
    8
 71
    2
 72
    6
 73
    3
 74
    0
 42
1e-07
 43
1e-07
 40
0
 40
0
 40
0
 40
1
 40
1
 40
1
 10
-1518.77563200769
 20
276.8355886397989
 30
0
 10
-1518.77563200769
 20
276.3355886397985
 30
0
 10
-1518.27563200769
 20
276.3355886397989
 30
0
  0
SPLINE
  5
18F
100
AcDbEntity
  8
默认
  6
ByLayer
 62
  256
370
   -1
100
AcDbSpline
210
0
220
0
230
0
 70
    8
 71
    2
 72
    6
 73
    3
 74
    0
 42
1e-07
 43
1e-07
 40
0
 40
0
 40
0
 40
1
 40
1
 40
1
 10
-1518.27563200769
 20
276.3355886397989
 30
0
 10
-1511.77563200769
 20
276.3355886397989
 30
0
 10
-1505.27563200769
 20
276.3355886397989
 30
0
  0
SPLINE
  5
190
100
AcDbEntity
  8
默认
  6
ByLayer
 62
  256
370
   -1
100
AcDbSpline
210
0
220
0
230
0
 70
    8
 71
    2
 72
    6
 73
    3
 74
    0
 42
1e-07
 43
1e-07
 40
0
 40
0
 40
0
 40
1
 40
1
 40
1
 10
-1505.27563200769
 20
276.3355886397989
 30
0
 10
-1504.775632007689
 20
276.335588639799
 30
0
 10
-1504.77563200769
 20
276.8355886397989
 30
0
  0
SPLINE
  5
191
100
AcDbEntity
  8
默认
  6
ByLayer
 62
  256
370
   -1
100
AcDbSpline
210
0
220
0
230
0
 70
    8
 71
    2
 72
    6
 73
    3
 74
    0
 42
1e-07
 43
1e-07
 40
0
 40
0
 40
0
 40
1
 40
1
 40
1
 10
-1504.77563200769
 20
276.8355886397989
 30
0
 10
-1504.77563200769
 20
283.3352886397988
 30
0
 10
-1504.77563200769
 20
289.8349886397987
 30
0
  0
SPLINE
  5
192
100
AcDbEntity
  8
默认
  6
ByLayer
 62
  256
370
   -1
100
AcDbSpline
210
0
220
0
230
0
 70
    8
 71
    2
 72
    6
 73
    3
 74
    0
 42
1e-07
 43
1e-07
 40
0
 40
0
 40
0
 40
1
 40
1
 40
1
 10
-1648.151132007689
 20
295.3857886397991
 30
0
 10
-1647.65113200769
 20
295.3857886397996
 30
0
 10
-1647.65113200769
 20
295.8857886397991
 30
0
  0
SPLINE
  5
193
100
AcDbEntity
  8
默认
  6
ByLayer
 62
  256
370
   -1
100
AcDbSpline
210
0
220
0
230
0
 70
    8
 71
    2
 72
    6
 73
    3
 74
    0
 42
1e-07
 43
1e-07
 40
0
 40
0
 40
0
 40
1
 40
1
 40
1
 10
-1647.65113200769
 20
295.8857886397991
 30
0
 10
-1647.65113200769
 20
302.3854386397988
 30
0
 10
-1647.65113200769
 20
308.8850886397986
 30
0
  0
SPLINE
  5
194
100
AcDbEntity
  8
默认
  6
ByLayer
 62
  256
370
   -1
100
AcDbSpline
210
0
220
0
230
0
 70
    8
 71
    2
 72
    6
 73
    3
 74
    0
 42
1e-07
 43
1e-07
 40
0
 40
0
 40
0
 40
1
 40
1
 40
1
 10
-1647.65113200769
 20
308.8850886397986
 30
0
 10
-1647.65113200769
 20
309.3850886397981
 30
0
 10
-1648.15113200769
 20
309.3850886397991
 30
0
  0
SPLINE
  5
195
100
AcDbEntity
  8
默认
  6
ByLayer
 62
  256
370
   -1
100
AcDbSpline
210
0
220
0
230
0
 70
    8
 71
    2
 72
    6
 73
    3
 74
    0
 42
1e-07
 43
1e-07
 40
0
 40
0
 40
0
 40
1
 40
1
 40
1
 10
-1648.15113200769
 20
309.3850886397991
 30
0
 10
-1654.650782007689
 20
309.3850886397991
 30
0
 10
-1661.15043200769
 20
309.3850886397991
 30
0
  0
SPLINE
  5
196
100
AcDbEntity
  8
默认
  6
ByLayer
 62
  256
370
   -1
100
AcDbSpline
210
0
220
0
230
0
 70
    8
 71
    2
 72
    6
 73
    3
 74
    0
 42
1e-07
 43
1e-07
 40
0
 40
0
 40
0
 40
1
 40
1
 40
1
 10
-1661.15043200769
 20
309.3850886397991
 30
0
 10
-1661.65043200769
 20
309.3850886397998
 30
0
 10
-1661.65043200769
 20
308.8850886397991
 30
0
  0
SPLINE
  5
197
100
AcDbEntity
  8
默认
  6
ByLayer
 62
  256
370
   -1
100
AcDbSpline
210
0
220
0
230
0
 70
    8
 71
    2
 72
    6
 73
    3
 74
    0
 42
1e-07
 43
1e-07
 40
0
 40
0
 40
0
 40
1
 40
1
 40
1
 10
-1661.65043200769
 20
308.8850886397991
 30
0
 10
-1661.65043200769
 20
302.3854386397988
 30
0
 10
-1661.65043200769
 20
295.8857886397991
 30
0
  0
SPLINE
  5
198
100
AcDbEntity
  8
默认
  6
ByLayer
 62
  256
370
   -1
100
AcDbSpline
210
0
220
0
230
0
 70
    8
 71
    2
 72
    6
 73
    3
 74
    0
 42
1e-07
 43
1e-07
 40
0
 40
0
 40
0
 40
1
 40
1
 40
1
 10
-1661.65043200769
 20
295.8857886397991
 30
0
 10
-1661.650432007691
 20
295.3857886397984
 30
0
 10
-1661.15043200769
 20
295.3857886397991
 30
0
  0
SPLINE
  5
199
100
AcDbEntity
  8
默认
  6
ByLayer
 62
  256
370
   -1
100
AcDbSpline
210
0
220
0
230
0
 70
    8
 71
    2
 72
    6
 73
    3
 74
    0
 42
1e-07
 43
1e-07
 40
0
 40
0
 40
0
 40
1
 40
1
 40
1
 10
-1661.15043200769
 20
295.3857886397991
 30
0
 10
-1654.650782007689
 20
295.3857886397991
 30
0
 10
-1648.151132007689
 20
295.3857886397991
 30
0
  0
SPLINE
  5
19A
100
AcDbEntity
  8
默认
  6
ByLayer
 62
  256
370
   -1
100
AcDbSpline
210
0
220
0
230
0
 70
    8
 71
    2
 72
    6
 73
    3
 74
    0
 42
1e-07
 43
1e-07
 40
0
 40
0
 40
0
 40
1
 40
1
 40
1
 10
-1595.763632007689
 20
314.4357886397988
 30
0
 10
-1595.263632007689
 20
314.4357886397995
 30
0
 10
-1595.263632007689
 20
314.9357886397988
 30
0
  0
SPLINE
  5
19B
100
AcDbEntity
  8
默认
  6
ByLayer
 62
  256
370
   -1
100
AcDbSpline
210
0
220
0
230
0
 70
    8
 71
    2
 72
    6
 73
    3
 74
    0
 42
1e-07
 43
1e-07
 40
0
 40
0
 40
0
 40
1
 40
1
 40
1
 10
-1595.263632007689
 20
314.9357886397988
 30
0
 10
-1595.263632007689
 20
321.435438639799
 30
0
 10
-1595.263632007689
 20
327.9350886397988
 30
0
  0
SPLINE
  5
19C
100
AcDbEntity
  8
默认
  6
ByLayer
 62
  256
370
   -1
100
AcDbSpline
210
0
220
0
230
0
 70
    8
 71
    2
 72
    6
 73
    3
 74
    0
 42
1e-07
 43
1e-07
 40
0
 40
0
 40
0
 40
1
 40
1
 40
1
 10
-1595.263632007689
 20
327.9350886397988
 30
0
 10
-1595.263632007689
 20
328.4350886397986
 30
0
 10
-1595.763632007689
 20
328.4350886397988
 30
0
  0
SPLINE
  5
19D
100
AcDbEntity
  8
默认
  6
ByLayer
 62
  256
370
   -1
100
AcDbSpline
210
0
220
0
230
0
 70
    8
 71
    2
 72
    6
 73
    3
 74
    0
 42
1e-07
 43
1e-07
 40
0
 40
0
 40
0
 40
1
 40
1
 40
1
 10
-1595.763632007689
 20
328.4350886397988
 30
0
 10
-1602.26328200769
 20
328.4350886397988
 30
0
 10
-1608.76293200769
 20
328.4350886397988
 30
0
  0
SPLINE
  5
19E
100
AcDbEntity
  8
默认
  6
ByLayer
 62
  256
370
   -1
100
AcDbSpline
210
0
220
0
230
0
 70
    8
 71
    2
 72
    6
 73
    3
 74
    0
 42
1e-07
 43
1e-07
 40
0
 40
0
 40
0
 40
1
 40
1
 40
1
 10
-1608.76293200769
 20
328.4350886397988
 30
0
 10
-1609.262932007689
 20
328.4350886397992
 30
0
 10
-1609.26293200769
 20
327.9350886397988
 30
0
  0
SPLINE
  5
19F
100
AcDbEntity
  8
默认
  6
ByLayer
 62
  256
370
   -1
100
AcDbSpline
210
0
220
0
230
0
 70
    8
 71
    2
 72
    6
 73
    3
 74
    0
 42
1e-07
 43
1e-07
 40
0
 40
0
 40
0
 40
1
 40
1
 40
1
 10
-1609.26293200769
 20
327.9350886397988
 30
0
 10
-1609.26293200769
 20
321.435438639799
 30
0
 10
-1609.26293200769
 20
314.9357886397988
 30
0
  0
SPLINE
  5
1A0
100
AcDbEntity
  8
默认
  6
ByLayer
 62
  256
370
   -1
100
AcDbSpline
210
0
220
0
230
0
 70
    8
 71
    2
 72
    6
 73
    3
 74
    0
 42
1e-07
 43
1e-07
 40
0
 40
0
 40
0
 40
1
 40
1
 40
1
 10
-1609.26293200769
 20
314.9357886397988
 30
0
 10
-1609.26293200769
 20
314.4357886397984
 30
0
 10
-1608.76293200769
 20
314.4357886397988
 30
0
  0
SPLINE
  5
1A1
100
AcDbEntity
  8
默认
  6
ByLayer
 62
  256
370
   -1
100
AcDbSpline
210
0
220
0
230
0
 70
    8
 71
    2
 72
    6
 73
    3
 74
    0
 42
1e-07
 43
1e-07
 40
0
 40
0
 40
0
 40
1
 40
1
 40
1
 10
-1608.76293200769
 20
314.4357886397988
 30
0
 10
-1602.26328200769
 20
314.4357886397988
 30
0
 10
-1595.763632007689
 20
314.4357886397988
 30
0
  0
SPLINE
  5
1A2
100
AcDbEntity
  8
默认
  6
ByLayer
 62
  256
370
   -1
100
AcDbSpline
210
0
220
0
230
0
 70
    8
 71
    2
 72
    6
 73
    3
 74
    0
 42
1e-07
 43
1e-07
 40
0
 40
0
 40
0
 40
1
 40
1
 40
1
 10
-1651.62543200769
 20
290.3349886397991
 30
0
 10
-1652.12543200769
 20
290.3349886397993
 30
0
 10
-1652.12543200769
 20
289.8349886397987
 30
0
  0
SPLINE
  5
1A3
100
AcDbEntity
  8
默认
  6
ByLayer
 62
  256
370
   -1
100
AcDbSpline
210
0
220
0
230
0
 70
    8
 71
    2
 72
    6
 73
    3
 74
    0
 42
1e-07
 43
1e-07
 40
0
 40
0
 40
0
 40
1
 40
1
 40
1
 10
-1652.12543200769
 20
289.8349886397987
 30
0
 10
-1652.12543200769
 20
283.3352886397988
 30
0
 10
-1652.12543200769
 20
276.8355886397989
 30
0
  0
SPLINE
  5
1A4
100
AcDbEntity
  8
默认
  6
ByLayer
 62
  256
370
   -1
100
AcDbSpline
210
0
220
0
230
0
 70
    8
 71
    2
 72
    6
 73
    3
 74
    0
 42
1e-07
 43
1e-07
 40
0
 40
0
 40
0
 40
1
 40
1
 40
1
 10
-1652.12543200769
 20
276.8355886397989
 30
0
 10
-1652.12543200769
 20
276.3355886397989
 30
0
 10
-1651.62543200769
 20
276.3355886397989
 30
0
  0
SPLINE
  5
1A5
100
AcDbEntity
  8
默认
  6
ByLayer
 62
  256
370
   -1
100
AcDbSpline
210
0
220
0
230
0
 70
    8
 71
    2
 72
    6
 73
    3
 74
    0
 42
1e-07
 43
1e-07
 40
0
 40
0
 40
0
 40
1
 40
1
 40
1
 10
-1651.62543200769
 20
276.3355886397989
 30
0
 10
-1645.12578200769
 20
276.3355886397989
 30
0
 10
-1638.62613200769
 20
276.3355886397989
 30
0
  0
SPLINE
  5
1A6
100
AcDbEntity
  8
默认
  6
ByLayer
 62
  256
370
   -1
100
AcDbSpline
210
0
220
0
230
0
 70
    8
 71
    2
 72
    6
 73
    3
 74
    0
 42
1e-07
 43
1e-07
 40
0
 40
0
 40
0
 40
1
 40
1
 40
1
 10
-1638.62613200769
 20
276.3355886397989
 30
0
 10
-1638.126132007689
 20
276.3355886397979
 30
0
 10
-1638.12613200769
 20
276.8355886397989
 30
0
  0
SPLINE
  5
1A7
100
AcDbEntity
  8
默认
  6
ByLayer
 62
  256
370
   -1
100
AcDbSpline
210
0
220
0
230
0
 70
    8
 71
    2
 72
    6
 73
    3
 74
    0
 42
1e-07
 43
1e-07
 40
0
 40
0
 40
0
 40
1
 40
1
 40
1
 10
-1638.12613200769
 20
276.8355886397989
 30
0
 10
-1638.12613200769
 20
283.3352886397988
 30
0
 10
-1638.12613200769
 20
289.8349886397987
 30
0
  0
SPLINE
  5
1A8
100
AcDbEntity
  8
默认
  6
ByLayer
 62
  256
370
   -1
100
AcDbSpline
210
0
220
0
230
0
 70
    8
 71
    2
 72
    6
 73
    3
 74
    0
 42
1e-07
 43
1e-07
 40
0
 40
0
 40
0
 40
1
 40
1
 40
1
 10
-1638.12613200769
 20
289.8349886397987
 30
0
 10
-1638.126132007689
 20
290.3349886397988
 30
0
 10
-1638.62613200769
 20
290.3349886397987
 30
0
  0
SPLINE
  5
1A9
100
AcDbEntity
  8
默认
  6
ByLayer
 62
  256
370
   -1
100
AcDbSpline
210
0
220
0
230
0
 70
    8
 71
    2
 72
    6
 73
    3
 74
    0
 42
1e-07
 43
1e-07
 40
0
 40
0
 40
0
 40
1
 40
1
 40
1
 10
-1638.62613200769
 20
290.3349886397987
 30
0
 10
-1645.12578200769
 20
290.3349886397991
 30
0
 10
-1651.62543200769
 20
290.3349886397991
 30
0
  0
SPLINE
  5
1AA
100
AcDbEntity
  8
默认
  6
ByLayer
 62
  256
370
   -1
100
AcDbSpline
210
0
220
0
230
0
 70
    8
 71
    2
 72
    6
 73
    3
 74
    0
 42
1e-07
 43
1e-07
 40
0
 40
0
 40
0
 40
1
 40
1
 40
1
 10
-1442.86328200769
 20
327.9350886397988
 30
0
 10
-1442.86328200769
 20
328.4350886397981
 30
0
 10
-1443.36328200769
 20
328.4350886397988
 30
0
  0
SPLINE
  5
1AB
100
AcDbEntity
  8
默认
  6
ByLayer
 62
  256
370
   -1
100
AcDbSpline
210
0
220
0
230
0
 70
    8
 71
    2
 72
    6
 73
    3
 74
    0
 42
1e-07
 43
1e-07
 40
0
 40
0
 40
0
 40
1
 40
1
 40
1
 10
-1443.36328200769
 20
328.4350886397988
 30
0
 10
-1449.86328200769
 20
328.4350886397988
 30
0
 10
-1456.36328200769
 20
328.4350886397988
 30
0
  0
SPLINE
  5
1AC
100
AcDbEntity
  8
默认
  6
ByLayer
 62
  256
370
   -1
100
AcDbSpline
210
0
220
0
230
0
 70
    8
 71
    2
 72
    6
 73
    3
 74
    0
 42
1e-07
 43
1e-07
 40
0
 40
0
 40
0
 40
1
 40
1
 40
1
 10
-1456.36328200769
 20
328.4350886397988
 30
0
 10
-1456.86328200769
 20
328.4350886397996
 30
0
 10
-1456.86328200769
 20
327.9350886397988
 30
0
  0
SPLINE
  5
1AD
100
AcDbEntity
  8
默认
  6
ByLayer
 62
  256
370
   -1
100
AcDbSpline
210
0
220
0
230
0
 70
    8
 71
    2
 72
    6
 73
    3
 74
    0
 42
1e-07
 43
1e-07
 40
0
 40
0
 40
0
 40
1
 40
1
 40
1
 10
-1456.86328200769
 20
327.9350886397988
 30
0
 10
-1456.86328200769
 20
321.435438639799
 30
0
 10
-1456.86328200769
 20
314.9357886397988
 30
0
  0
SPLINE
  5
1AE
100
AcDbEntity
  8
默认
  6
ByLayer
 62
  256
370
   -1
100
AcDbSpline
210
0
220
0
230
0
 70
    8
 71
    2
 72
    6
 73
    3
 74
    0
 42
1e-07
 43
1e-07
 40
0
 40
0
 40
0
 40
1
 40
1
 40
1
 10
-1456.86328200769
 20
314.9357886397988
 30
0
 10
-1456.863282007689
 20
314.4357886397981
 30
0
 10
-1456.36328200769
 20
314.4357886397988
 30
0
  0
SPLINE
  5
1AF
100
AcDbEntity
  8
默认
  6
ByLayer
 62
  256
370
   -1
100
AcDbSpline
210
0
220
0
230
0
 70
    8
 71
    2
 72
    6
 73
    3
 74
    0
 42
1e-07
 43
1e-07
 40
0
 40
0
 40
0
 40
1
 40
1
 40
1
 10
-1456.36328200769
 20
314.4357886397988
 30
0
 10
-1449.86328200769
 20
314.4357886397984
 30
0
 10
-1443.36328200769
 20
314.4357886397984
 30
0
  0
SPLINE
  5
1B0
100
AcDbEntity
  8
默认
  6
ByLayer
 62
  256
370
   -1
100
AcDbSpline
210
0
220
0
230
0
 70
    8
 71
    2
 72
    6
 73
    3
 74
    0
 42
1e-07
 43
1e-07
 40
0
 40
0
 40
0
 40
1
 40
1
 40
1
 10
-1443.36328200769
 20
314.4357886397984
 30
0
 10
-1442.863282007689
 20
314.4357886397986
 30
0
 10
-1442.86328200769
 20
314.9357886397988
 30
0
  0
SPLINE
  5
1B1
100
AcDbEntity
  8
默认
  6
ByLayer
 62
  256
370
   -1
100
AcDbSpline
210
0
220
0
230
0
 70
    8
 71
    2
 72
    6
 73
    3
 74
    0
 42
1e-07
 43
1e-07
 40
0
 40
0
 40
0
 40
1
 40
1
 40
1
 10
-1442.86328200769
 20
314.9357886397988
 30
0
 10
-1442.86328200769
 20
321.4354386397986
 30
0
 10
-1442.86328200769
 20
327.9350886397988
 30
0
  0
SPLINE
  5
1B2
100
AcDbEntity
  8
默认
  6
ByLayer
 62
  256
370
   -1
100
AcDbSpline
210
0
220
0
230
0
 70
    8
 71
    2
 72
    6
 73
    3
 74
    0
 42
1e-07
 43
1e-07
 40
0
 40
0
 40
0
 40
1
 40
1
 40
1
 10
-1445.244282007689
 20
289.8350886397984
 30
0
 10
-1445.244282007689
 20
290.3350886397986
 30
0
 10
-1445.744282007689
 20
290.3350886397989
 30
0
  0
SPLINE
  5
1B3
100
AcDbEntity
  8
默认
  6
ByLayer
 62
  256
370
   -1
100
AcDbSpline
210
0
220
0
230
0
 70
    8
 71
    2
 72
    6
 73
    3
 74
    0
 42
1e-07
 43
1e-07
 40
0
 40
0
 40
0
 40
1
 40
1
 40
1
 10
-1445.744282007689
 20
290.3350886397989
 30
0
 10
-1452.244282007689
 20
290.3350886397989
 30
0
 10
-1458.744282007689
 20
290.3350886397989
 30
0
  0
SPLINE
  5
1B4
100
AcDbEntity
  8
默认
  6
ByLayer
 62
  256
370
   -1
100
AcDbSpline
210
0
220
0
230
0
 70
    8
 71
    2
 72
    6
 73
    3
 74
    0
 42
1e-07
 43
1e-07
 40
0
 40
0
 40
0
 40
1
 40
1
 40
1
 10
-1458.744282007689
 20
290.3350886397989
 30
0
 10
-1459.24428200769
 20
290.3350886397994
 30
0
 10
-1459.244282007689
 20
289.8350886397989
 30
0
  0
SPLINE
  5
1B5
100
AcDbEntity
  8
默认
  6
ByLayer
 62
  256
370
   -1
100
AcDbSpline
210
0
220
0
230
0
 70
    8
 71
    2
 72
    6
 73
    3
 74
    0
 42
1e-07
 43
1e-07
 40
0
 40
0
 40
0
 40
1
 40
1
 40
1
 10
-1459.244282007689
 20
289.8350886397989
 30
0
 10
-1459.244282007689
 20
283.3354386397986
 30
0
 10
-1459.244282007689
 20
276.8357886397989
 30
0
  0
SPLINE
  5
1B6
100
AcDbEntity
  8
默认
  6
ByLayer
 62
  256
370
   -1
100
AcDbSpline
210
0
220
0
230
0
 70
    8
 71
    2
 72
    6
 73
    3
 74
    0
 42
1e-07
 43
1e-07
 40
0
 40
0
 40
0
 40
1
 40
1
 40
1
 10
-1459.244282007689
 20
276.8357886397989
 30
0
 10
-1459.244282007689
 20
276.3357886397988
 30
0
 10
-1458.744282007689
 20
276.3357886397989
 30
0
  0
SPLINE
  5
1B7
100
AcDbEntity
  8
默认
  6
ByLayer
 62
  256
370
   -1
100
AcDbSpline
210
0
220
0
230
0
 70
    8
 71
    2
 72
    6
 73
    3
 74
    0
 42
1e-07
 43
1e-07
 40
0
 40
0
 40
0
 40
1
 40
1
 40
1
 10
-1458.744282007689
 20
276.3357886397989
 30
0
 10
-1452.244282007689
 20
276.3357886397984
 30
0
 10
-1445.744282007689
 20
276.335788639798
 30
0
  0
SPLINE
  5
1B8
100
AcDbEntity
  8
默认
  6
ByLayer
 62
  256
370
   -1
100
AcDbSpline
210
0
220
0
230
0
 70
    8
 71
    2
 72
    6
 73
    3
 74
    0
 42
1e-07
 43
1e-07
 40
0
 40
0
 40
0
 40
1
 40
1
 40
1
 10
-1445.744282007689
 20
276.335788639798
 30
0
 10
-1445.244282007689
 20
276.3357886397981
 30
0
 10
-1445.244282007689
 20
276.8357886397989
 30
0
  0
SPLINE
  5
1B9
100
AcDbEntity
  8
默认
  6
ByLayer
 62
  256
370
   -1
100
AcDbSpline
210
0
220
0
230
0
 70
    8
 71
    2
 72
    6
 73
    3
 74
    0
 42
1e-07
 43
1e-07
 40
0
 40
0
 40
0
 40
1
 40
1
 40
1
 10
-1445.244282007689
 20
276.8357886397989
 30
0
 10
-1445.244282007689
 20
283.3354386397986
 30
0
 10
-1445.244282007689
 20
289.8350886397984
 30
0
  0
SPLINE
  5
1BA
100
AcDbEntity
  8
默认
  6
ByLayer
 62
  256
370
   -1
100
AcDbSpline
210
0
220
0
230
0
 70
    8
 71
    2
 72
    6
 73
    3
 74
    0
 42
1e-07
 43
1e-07
 40
0
 40
0
 40
0
 40
1
 40
1
 40
1
 10
-1464.29428200769
 20
270.7850886397982
 30
0
 10
-1464.29428200769
 20
271.2850886397983
 30
0
 10
-1464.79428200769
 20
271.2850886397986
 30
0
  0
SPLINE
  5
1BB
100
AcDbEntity
  8
默认
  6
ByLayer
 62
  256
370
   -1
100
AcDbSpline
210
0
220
0
230
0
 70
    8
 71
    2
 72
    6
 73
    3
 74
    0
 42
1e-07
 43
1e-07
 40
0
 40
0
 40
0
 40
1
 40
1
 40
1
 10
-1464.79428200769
 20
271.2850886397986
 30
0
 10
-1471.29428200769
 20
271.2850886397986
 30
0
 10
-1477.79428200769
 20
271.2850886397986
 30
0
  0
SPLINE
  5
1BC
100
AcDbEntity
  8
默认
  6
ByLayer
 62
  256
370
   -1
100
AcDbSpline
210
0
220
0
230
0
 70
    8
 71
    2
 72
    6
 73
    3
 74
    0
 42
1e-07
 43
1e-07
 40
0
 40
0
 40
0
 40
1
 40
1
 40
1
 10
-1477.79428200769
 20
271.2850886397986
 30
0
 10
-1478.294282007691
 20
271.2850886397993
 30
0
 10
-1478.29428200769
 20
270.7850886397986
 30
0
  0
SPLINE
  5
1BD
100
AcDbEntity
  8
默认
  6
ByLayer
 62
  256
370
   -1
100
AcDbSpline
210
0
220
0
230
0
 70
    8
 71
    2
 72
    6
 73
    3
 74
    0
 42
1e-07
 43
1e-07
 40
0
 40
0
 40
0
 40
1
 40
1
 40
1
 10
-1478.29428200769
 20
270.7850886397986
 30
0
 10
-1478.29428200769
 20
264.2854386397984
 30
0
 10
-1478.29428200769
 20
257.7857886397987
 30
0
  0
SPLINE
  5
1BE
100
AcDbEntity
  8
默认
  6
ByLayer
 62
  256
370
   -1
100
AcDbSpline
210
0
220
0
230
0
 70
    8
 71
    2
 72
    6
 73
    3
 74
    0
 42
1e-07
 43
1e-07
 40
0
 40
0
 40
0
 40
1
 40
1
 40
1
 10
-1478.29428200769
 20
257.7857886397987
 30
0
 10
-1478.29428200769
 20
257.2857886397979
 30
0
 10
-1477.79428200769
 20
257.2857886397987
 30
0
  0
SPLINE
  5
1BF
100
AcDbEntity
  8
默认
  6
ByLayer
 62
  256
370
   -1
100
AcDbSpline
210
0
220
0
230
0
 70
    8
 71
    2
 72
    6
 73
    3
 74
    0
 42
1e-07
 43
1e-07
 40
0
 40
0
 40
0
 40
1
 40
1
 40
1
 10
-1477.79428200769
 20
257.2857886397987
 30
0
 10
-1471.29428200769
 20
257.2857886397987
 30
0
 10
-1464.79428200769
 20
257.2857886397982
 30
0
  0
SPLINE
  5
1C0
100
AcDbEntity
  8
默认
  6
ByLayer
 62
  256
370
   -1
100
AcDbSpline
210
0
220
0
230
0
 70
    8
 71
    2
 72
    6
 73
    3
 74
    0
 42
1e-07
 43
1e-07
 40
0
 40
0
 40
0
 40
1
 40
1
 40
1
 10
-1464.79428200769
 20
257.2857886397982
 30
0
 10
-1464.294282007689
 20
257.2857886397986
 30
0
 10
-1464.29428200769
 20
257.7857886397987
 30
0
  0
SPLINE
  5
1C1
100
AcDbEntity
  8
默认
  6
ByLayer
 62
  256
370
   -1
100
AcDbSpline
210
0
220
0
230
0
 70
    8
 71
    2
 72
    6
 73
    3
 74
    0
 42
1e-07
 43
1e-07
 40
0
 40
0
 40
0
 40
1
 40
1
 40
1
 10
-1464.29428200769
 20
257.7857886397987
 30
0
 10
-1464.29428200769
 20
264.2854386397984
 30
0
 10
-1464.29428200769
 20
270.7850886397982
 30
0
  0
SPLINE
  5
1C2
100
AcDbEntity
  8
默认
  6
ByLayer
 62
  256
370
   -1
100
AcDbSpline
210
0
220
0
230
0
 70
    8
 71
    2
 72
    6
 73
    3
 74
    0
 42
1e-07
 43
1e-07
 40
0
 40
0
 40
0
 40
1
 40
1
 40
1
 10
-1650.032032007689
 20
270.7850886397982
 30
0
 10
-1650.03203200769
 20
271.2850886397981
 30
0
 10
-1650.532032007689
 20
271.2850886397986
 30
0
  0
SPLINE
  5
1C3
100
AcDbEntity
  8
默认
  6
ByLayer
 62
  256
370
   -1
100
AcDbSpline
210
0
220
0
230
0
 70
    8
 71
    2
 72
    6
 73
    3
 74
    0
 42
1e-07
 43
1e-07
 40
0
 40
0
 40
0
 40
1
 40
1
 40
1
 10
-1650.532032007689
 20
271.2850886397986
 30
0
 10
-1657.032032007689
 20
271.2850886397986
 30
0
 10
-1663.532032007689
 20
271.2850886397986
 30
0
  0
SPLINE
  5
1C4
100
AcDbEntity
  8
默认
  6
ByLayer
 62
  256
370
   -1
100
AcDbSpline
210
0
220
0
230
0
 70
    8
 71
    2
 72
    6
 73
    3
 74
    0
 42
1e-07
 43
1e-07
 40
0
 40
0
 40
0
 40
1
 40
1
 40
1
 10
-1663.532032007689
 20
271.2850886397986
 30
0
 10
-1664.03203200769
 20
271.2850886397993
 30
0
 10
-1664.032032007689
 20
270.7850886397986
 30
0
  0
SPLINE
  5
1C5
100
AcDbEntity
  8
默认
  6
ByLayer
 62
  256
370
   -1
100
AcDbSpline
210
0
220
0
230
0
 70
    8
 71
    2
 72
    6
 73
    3
 74
    0
 42
1e-07
 43
1e-07
 40
0
 40
0
 40
0
 40
1
 40
1
 40
1
 10
-1664.032032007689
 20
270.7850886397986
 30
0
 10
-1664.032032007689
 20
264.2854386397984
 30
0
 10
-1664.032032007689
 20
257.7857886397987
 30
0
  0
SPLINE
  5
1C6
100
AcDbEntity
  8
默认
  6
ByLayer
 62
  256
370
   -1
100
AcDbSpline
210
0
220
0
230
0
 70
    8
 71
    2
 72
    6
 73
    3
 74
    0
 42
1e-07
 43
1e-07
 40
0
 40
0
 40
0
 40
1
 40
1
 40
1
 10
-1664.032032007689
 20
257.7857886397987
 30
0
 10
-1664.032032007689
 20
257.2857886397979
 30
0
 10
-1663.532032007689
 20
257.2857886397987
 30
0
  0
SPLINE
  5
1C7
100
AcDbEntity
  8
默认
  6
ByLayer
 62
  256
370
   -1
100
AcDbSpline
210
0
220
0
230
0
 70
    8
 71
    2
 72
    6
 73
    3
 74
    0
 42
1e-07
 43
1e-07
 40
0
 40
0
 40
0
 40
1
 40
1
 40
1
 10
-1663.532032007689
 20
257.2857886397987
 30
0
 10
-1657.032032007689
 20
257.2857886397987
 30
0
 10
-1650.532032007689
 20
257.2857886397982
 30
0
  0
SPLINE
  5
1C8
100
AcDbEntity
  8
默认
  6
ByLayer
 62
  256
370
   -1
100
AcDbSpline
210
0
220
0
230
0
 70
    8
 71
    2
 72
    6
 73
    3
 74
    0
 42
1e-07
 43
1e-07
 40
0
 40
0
 40
0
 40
1
 40
1
 40
1
 10
-1650.532032007689
 20
257.2857886397982
 30
0
 10
-1650.032032007689
 20
257.2857886397986
 30
0
 10
-1650.032032007689
 20
257.7857886397987
 30
0
  0
SPLINE
  5
1C9
100
AcDbEntity
  8
默认
  6
ByLayer
 62
  256
370
   -1
100
AcDbSpline
210
0
220
0
230
0
 70
    8
 71
    2
 72
    6
 73
    3
 74
    0
 42
1e-07
 43
1e-07
 40
0
 40
0
 40
0
 40
1
 40
1
 40
1
 10
-1650.032032007689
 20
257.7857886397987
 30
0
 10
-1650.032032007689
 20
264.2854386397984
 30
0
 10
-1650.032032007689
 20
270.7850886397982
 30
0
  0
SPLINE
  5
1CA
100
AcDbEntity
  8
默认
  6
ByLayer
 62
  256
370
   -1
100
AcDbSpline
210
0
220
0
230
0
 70
    8
 71
    2
 72
    6
 73
    3
 74
    0
 42
1e-07
 43
1e-07
 40
0
 40
0
 40
0
 40
1
 40
1
 40
1
 10
-1664.31948200769
 20
289.8350886397984
 30
0
 10
-1664.31948200769
 20
290.3350886397983
 30
0
 10
-1664.81948200769
 20
290.3350886397989
 30
0
  0
SPLINE
  5
1CB
100
AcDbEntity
  8
默认
  6
ByLayer
 62
  256
370
   -1
100
AcDbSpline
210
0
220
0
230
0
 70
    8
 71
    2
 72
    6
 73
    3
 74
    0
 42
1e-07
 43
1e-07
 40
0
 40
0
 40
0
 40
1
 40
1
 40
1
 10
-1664.81948200769
 20
290.3350886397989
 30
0
 10
-1671.31948200769
 20
290.3350886397989
 30
0
 10
-1677.81948200769
 20
290.3350886397989
 30
0
  0
SPLINE
  5
1CC
100
AcDbEntity
  8
默认
  6
ByLayer
 62
  256
370
   -1
100
AcDbSpline
210
0
220
0
230
0
 70
    8
 71
    2
 72
    6
 73
    3
 74
    0
 42
1e-07
 43
1e-07
 40
0
 40
0
 40
0
 40
1
 40
1
 40
1
 10
-1677.81948200769
 20
290.3350886397989
 30
0
 10
-1678.319482007691
 20
290.3350886397994
 30
0
 10
-1678.31948200769
 20
289.8350886397989
 30
0
  0
SPLINE
  5
1CD
100
AcDbEntity
  8
默认
  6
ByLayer
 62
  256
370
   -1
100
AcDbSpline
210
0
220
0
230
0
 70
    8
 71
    2
 72
    6
 73
    3
 74
    0
 42
1e-07
 43
1e-07
 40
0
 40
0
 40
0
 40
1
 40
1
 40
1
 10
-1678.31948200769
 20
289.8350886397989
 30
0
 10
-1678.31948200769
 20
283.3354386397986
 30
0
 10
-1678.31948200769
 20
276.8357886397989
 30
0
  0
SPLINE
  5
1CE
100
AcDbEntity
  8
默认
  6
ByLayer
 62
  256
370
   -1
100
AcDbSpline
210
0
220
0
230
0
 70
    8
 71
    2
 72
    6
 73
    3
 74
    0
 42
1e-07
 43
1e-07
 40
0
 40
0
 40
0
 40
1
 40
1
 40
1
 10
-1678.31948200769
 20
276.8357886397989
 30
0
 10
-1678.31948200769
 20
276.3357886397982
 30
0
 10
-1677.81948200769
 20
276.3357886397989
 30
0
  0
SPLINE
  5
1CF
100
AcDbEntity
  8
默认
  6
ByLayer
 62
  256
370
   -1
100
AcDbSpline
210
0
220
0
230
0
 70
    8
 71
    2
 72
    6
 73
    3
 74
    0
 42
1e-07
 43
1e-07
 40
0
 40
0
 40
0
 40
1
 40
1
 40
1
 10
-1677.81948200769
 20
276.3357886397989
 30
0
 10
-1671.31948200769
 20
276.3357886397984
 30
0
 10
-1664.81948200769
 20
276.335788639798
 30
0
  0
SPLINE
  5
1D0
100
AcDbEntity
  8
默认
  6
ByLayer
 62
  256
370
   -1
100
AcDbSpline
210
0
220
0
230
0
 70
    8
 71
    2
 72
    6
 73
    3
 74
    0
 42
1e-07
 43
1e-07
 40
0
 40
0
 40
0
 40
1
 40
1
 40
1
 10
-1664.81948200769
 20
276.335788639798
 30
0
 10
-1664.31948200769
 20
276.3357886397986
 30
0
 10
-1664.31948200769
 20
276.8357886397989
 30
0
  0
SPLINE
  5
1D1
100
AcDbEntity
  8
默认
  6
ByLayer
 62
  256
370
   -1
100
AcDbSpline
210
0
220
0
230
0
 70
    8
 71
    2
 72
    6
 73
    3
 74
    0
 42
1e-07
 43
1e-07
 40
0
 40
0
 40
0
 40
1
 40
1
 40
1
 10
-1664.31948200769
 20
276.8357886397989
 30
0
 10
-1664.31948200769
 20
283.3354386397986
 30
0
 10
-1664.31948200769
 20
289.8350886397984
 30
0
  0
SPLINE
  5
1D2
100
AcDbEntity
  8
默认
  6
ByLayer
 62
  256
370
   -1
100
AcDbSpline
210
0
220
0
230
0
 70
    8
 71
    2
 72
    6
 73
    3
 74
    0
 42
1e-07
 43
1e-07
 40
0
 40
0
 40
0
 40
1
 40
1
 40
1
 10
-1671.463282007689
 20
327.9350886397988
 30
0
 10
-1671.46328200769
 20
328.4350886397981
 30
0
 10
-1671.963282007689
 20
328.4350886397988
 30
0
  0
SPLINE
  5
1D3
100
AcDbEntity
  8
默认
  6
ByLayer
 62
  256
370
   -1
100
AcDbSpline
210
0
220
0
230
0
 70
    8
 71
    2
 72
    6
 73
    3
 74
    0
 42
1e-07
 43
1e-07
 40
0
 40
0
 40
0
 40
1
 40
1
 40
1
 10
-1671.963282007689
 20
328.4350886397988
 30
0
 10
-1678.463282007689
 20
328.4350886397988
 30
0
 10
-1684.963282007689
 20
328.4350886397988
 30
0
  0
SPLINE
  5
1D4
100
AcDbEntity
  8
默认
  6
ByLayer
 62
  256
370
   -1
100
AcDbSpline
210
0
220
0
230
0
 70
    8
 71
    2
 72
    6
 73
    3
 74
    0
 42
1e-07
 43
1e-07
 40
0
 40
0
 40
0
 40
1
 40
1
 40
1
 10
-1684.963282007689
 20
328.4350886397988
 30
0
 10
-1685.46328200769
 20
328.4350886397996
 30
0
 10
-1685.463282007689
 20
327.9350886397988
 30
0
  0
SPLINE
  5
1D5
100
AcDbEntity
  8
默认
  6
ByLayer
 62
  256
370
   -1
100
AcDbSpline
210
0
220
0
230
0
 70
    8
 71
    2
 72
    6
 73
    3
 74
    0
 42
1e-07
 43
1e-07
 40
0
 40
0
 40
0
 40
1
 40
1
 40
1
 10
-1685.463282007689
 20
327.9350886397988
 30
0
 10
-1685.463282007689
 20
321.435438639799
 30
0
 10
-1685.463282007689
 20
314.9357886397988
 30
0
  0
SPLINE
  5
1D6
100
AcDbEntity
  8
默认
  6
ByLayer
 62
  256
370
   -1
100
AcDbSpline
210
0
220
0
230
0
 70
    8
 71
    2
 72
    6
 73
    3
 74
    0
 42
1e-07
 43
1e-07
 40
0
 40
0
 40
0
 40
1
 40
1
 40
1
 10
-1685.463282007689
 20
314.9357886397988
 30
0
 10
-1685.463282007689
 20
314.4357886397983
 30
0
 10
-1684.963282007689
 20
314.4357886397988
 30
0
  0
SPLINE
  5
1D7
100
AcDbEntity
  8
默认
  6
ByLayer
 62
  256
370
   -1
100
AcDbSpline
210
0
220
0
230
0
 70
    8
 71
    2
 72
    6
 73
    3
 74
    0
 42
1e-07
 43
1e-07
 40
0
 40
0
 40
0
 40
1
 40
1
 40
1
 10
-1684.963282007689
 20
314.4357886397988
 30
0
 10
-1678.463282007689
 20
314.4357886397984
 30
0
 10
-1671.963282007689
 20
314.4357886397984
 30
0
  0
SPLINE
  5
1D8
100
AcDbEntity
  8
默认
  6
ByLayer
 62
  256
370
   -1
100
AcDbSpline
210
0
220
0
230
0
 70
    8
 71
    2
 72
    6
 73
    3
 74
    0
 42
1e-07
 43
1e-07
 40
0
 40
0
 40
0
 40
1
 40
1
 40
1
 10
-1671.963282007689
 20
314.4357886397984
 30
0
 10
-1671.463282007689
 20
314.4357886397986
 30
0
 10
-1671.463282007689
 20
314.9357886397988
 30
0
  0
SPLINE
  5
1D9
100
AcDbEntity
  8
默认
  6
ByLayer
 62
  256
370
   -1
100
AcDbSpline
210
0
220
0
230
0
 70
    8
 71
    2
 72
    6
 73
    3
 74
    0
 42
1e-07
 43
1e-07
 40
0
 40
0
 40
0
 40
1
 40
1
 40
1
 10
-1671.463282007689
 20
314.9357886397988
 30
0
 10
-1671.463282007689
 20
321.4354386397986
 30
0
 10
-1671.463282007689
 20
327.9350886397988
 30
0
  0
SPLINE
  5
1DA
100
AcDbEntity
  8
默认
  6
ByLayer
 62
  256
370
   -1
100
AcDbSpline
210
0
220
0
230
0
 70
    8
 71
    2
 72
    6
 73
    3
 74
    0
 42
1e-07
 43
1e-07
 40
0
 40
0
 40
0
 40
1
 40
1
 40
1
 10
-1628.60078200769
 20
270.7850886397982
 30
0
 10
-1628.60078200769
 20
271.2850886397981
 30
0
 10
-1629.10078200769
 20
271.2850886397986
 30
0
  0
SPLINE
  5
1DB
100
AcDbEntity
  8
默认
  6
ByLayer
 62
  256
370
   -1
100
AcDbSpline
210
0
220
0
230
0
 70
    8
 71
    2
 72
    6
 73
    3
 74
    0
 42
1e-07
 43
1e-07
 40
0
 40
0
 40
0
 40
1
 40
1
 40
1
 10
-1629.10078200769
 20
271.2850886397986
 30
0
 10
-1635.60078200769
 20
271.2850886397986
 30
0
 10
-1642.10078200769
 20
271.2850886397986
 30
0
  0
SPLINE
  5
1DC
100
AcDbEntity
  8
默认
  6
ByLayer
 62
  256
370
   -1
100
AcDbSpline
210
0
220
0
230
0
 70
    8
 71
    2
 72
    6
 73
    3
 74
    0
 42
1e-07
 43
1e-07
 40
0
 40
0
 40
0
 40
1
 40
1
 40
1
 10
-1642.10078200769
 20
271.2850886397986
 30
0
 10
-1642.600782007691
 20
271.2850886397993
 30
0
 10
-1642.60078200769
 20
270.7850886397986
 30
0
  0
SPLINE
  5
1DD
100
AcDbEntity
  8
默认
  6
ByLayer
 62
  256
370
   -1
100
AcDbSpline
210
0
220
0
230
0
 70
    8
 71
    2
 72
    6
 73
    3
 74
    0
 42
1e-07
 43
1e-07
 40
0
 40
0
 40
0
 40
1
 40
1
 40
1
 10
-1642.60078200769
 20
270.7850886397986
 30
0
 10
-1642.60078200769
 20
264.2854386397984
 30
0
 10
-1642.60078200769
 20
257.7857886397987
 30
0
  0
SPLINE
  5
1DE
100
AcDbEntity
  8
默认
  6
ByLayer
 62
  256
370
   -1
100
AcDbSpline
210
0
220
0
230
0
 70
    8
 71
    2
 72
    6
 73
    3
 74
    0
 42
1e-07
 43
1e-07
 40
0
 40
0
 40
0
 40
1
 40
1
 40
1
 10
-1642.60078200769
 20
257.7857886397987
 30
0
 10
-1642.60078200769
 20
257.2857886397979
 30
0
 10
-1642.10078200769
 20
257.2857886397987
 30
0
  0
SPLINE
  5
1DF
100
AcDbEntity
  8
默认
  6
ByLayer
 62
  256
370
   -1
100
AcDbSpline
210
0
220
0
230
0
 70
    8
 71
    2
 72
    6
 73
    3
 74
    0
 42
1e-07
 43
1e-07
 40
0
 40
0
 40
0
 40
1
 40
1
 40
1
 10
-1642.10078200769
 20
257.2857886397987
 30
0
 10
-1635.60078200769
 20
257.2857886397987
 30
0
 10
-1629.10078200769
 20
257.2857886397982
 30
0
  0
SPLINE
  5
1E0
100
AcDbEntity
  8
默认
  6
ByLayer
 62
  256
370
   -1
100
AcDbSpline
210
0
220
0
230
0
 70
    8
 71
    2
 72
    6
 73
    3
 74
    0
 42
1e-07
 43
1e-07
 40
0
 40
0
 40
0
 40
1
 40
1
 40
1
 10
-1629.10078200769
 20
257.2857886397982
 30
0
 10
-1628.60078200769
 20
257.2857886397986
 30
0
 10
-1628.60078200769
 20
257.7857886397987
 30
0
  0
SPLINE
  5
1E1
100
AcDbEntity
  8
默认
  6
ByLayer
 62
  256
370
   -1
100
AcDbSpline
210
0
220
0
230
0
 70
    8
 71
    2
 72
    6
 73
    3
 74
    0
 42
1e-07
 43
1e-07
 40
0
 40
0
 40
0
 40
1
 40
1
 40
1
 10
-1628.60078200769
 20
257.7857886397987
 30
0
 10
-1628.60078200769
 20
264.2854386397984
 30
0
 10
-1628.60078200769
 20
270.7850886397982
 30
0
  0
SPLINE
  5
1E2
100
AcDbEntity
  8
默认
  6
ByLayer
 62
  256
370
   -1
100
AcDbSpline
210
0
220
0
230
0
 70
    8
 71
    2
 72
    6
 73
    3
 74
    0
 42
1e-07
 43
1e-07
 40
0
 40
0
 40
0
 40
1
 40
1
 40
1
 10
-1507.193232050789
 20
254.7654386397989
 30
0
 10
-1564.163231761836
 20
254.7654386397986
 30
0
 10
-1621.133231472883
 20
254.7654386397982
 30
0
  0
SPLINE
  5
1E3
100
AcDbEntity
  8
默认
  6
ByLayer
 62
  256
370
   -1
100
AcDbSpline
210
0
220
0
230
0
 70
    8
 71
    2
 72
    6
 73
    3
 74
    0
 42
1e-07
 43
1e-07
 40
0
 40
0
 40
0
 40
1
 40
1
 40
1
 10
-1621.133231472883
 20
254.7654386397982
 30
0
 10
-1623.756655369473
 20
254.7654386398001
 30
0
 10
-1624.10644522235
 20
252.1654386397965
 30
0
  0
SPLINE
  5
1E4
100
AcDbEntity
  8
默认
  6
ByLayer
 62
  256
370
   -1
100
AcDbSpline
210
0
220
0
230
0
 70
    8
 71
    2
 72
    6
 73
    3
 74
    0
 42
1e-07
 43
1e-07
 40
0
 40
0
 40
0
 40
1
 40
1
 40
1
 10
-1624.10644522235
 20
252.1654386397965
 30
0
 10
-1624.36878761201
 20
250.2154386397968
 30
0
 10
-1626.336355534448
 20
250.2154386397976
 30
0
  0
SPLINE
  5
1E5
100
AcDbEntity
  8
默认
  6
ByLayer
 62
  256
370
   -1
100
AcDbSpline
210
0
220
0
230
0
 70
    8
 71
    2
 72
    6
 73
    3
 74
    0
 42
1e-07
 43
1e-07
 40
0
 40
0
 40
0
 40
1
 40
1
 40
1
 10
-1626.336355534448
 20
250.2154386397976
 30
0
 10
-1635.600681515982
 20
250.2154386397975
 30
0
 10
-1644.865007497517
 20
250.2154386397976
 30
0
  0
SPLINE
  5
1E6
100
AcDbEntity
  8
默认
  6
ByLayer
 62
  256
370
   -1
100
AcDbSpline
210
0
220
0
230
0
 70
    8
 71
    2
 72
    6
 73
    3
 74
    0
 42
1e-07
 43
1e-07
 40
0
 40
0
 40
0
 40
1
 40
1
 40
1
 10
-1644.865007497517
 20
250.2154386397976
 30
0
 10
-1646.832575419957
 20
250.2154386397967
 30
0
 10
-1647.094917809616
 20
252.1654386397981
 30
0
  0
SPLINE
  5
1E7
100
AcDbEntity
  8
默认
  6
ByLayer
 62
  256
370
   -1
100
AcDbSpline
210
0
220
0
230
0
 70
    8
 71
    2
 72
    6
 73
    3
 74
    0
 42
1e-07
 43
1e-07
 40
0
 40
0
 40
0
 40
1
 40
1
 40
1
 10
-1647.094917809616
 20
252.1654386397981
 30
0
 10
-1647.444707662493
 20
254.7654386398011
 30
0
 10
-1650.068131559082
 20
254.7654386397989
 30
0
  0
SPLINE
  5
1E8
100
AcDbEntity
  8
默认
  6
ByLayer
 62
  256
370
   -1
100
AcDbSpline
210
0
220
0
230
0
 70
    8
 71
    2
 72
    6
 73
    3
 74
    0
 42
1e-07
 43
1e-07
 40
0
 40
0
 40
0
 40
1
 40
1
 40
1
 10
-1650.068131559082
 20
254.7654386397989
 30
0
 10
-1657.810081783386
 20
254.7654386397987
 30
0
 10
-1665.552032007689
 20
254.7654386397989
 30
0
  0
SPLINE
  5
1E9
100
AcDbEntity
  8
默认
  6
ByLayer
 62
  256
370
   -1
100
AcDbSpline
210
0
220
0
230
0
 70
    8
 71
    2
 72
    6
 73
    3
 74
    0
 42
1e-07
 43
1e-07
 40
0
 40
0
 40
0
 40
1
 40
1
 40
1
 10
-1665.552032007689
 20
254.7654386397989
 30
0
 10
-1666.552032007689
 20
254.7654386397989
 30
0
 10
-1666.552032007689
 20
255.7654386397989
 30
0
  0
SPLINE
  5
1EA
100
AcDbEntity
  8
默认
  6
ByLayer
 62
  256
370
   -1
100
AcDbSpline
210
0
220
0
230
0
 70
    8
 71
    2
 72
    6
 73
    3
 74
    0
 42
1e-07
 43
1e-07
 40
0
 40
0
 40
0
 40
1
 40
1
 40
1
 10
-1666.552032007689
 20
255.7654386397989
 30
0
 10
-1666.552032007689
 20
264.2904386397985
 30
0
 10
-1666.552032007689
 20
272.8154386397986
 30
0
  0
SPLINE
  5
1EB
100
AcDbEntity
  8
默认
  6
ByLayer
 62
  256
370
   -1
100
AcDbSpline
210
0
220
0
230
0
 70
    8
 71
    2
 72
    6
 73
    3
 74
    0
 42
1e-07
 43
1e-07
 40
0
 40
0
 40
0
 40
1
 40
1
 40
1
 10
-1666.552032007689
 20
272.8154386397986
 30
0
 10
-1666.552032007689
 20
273.8154386397986
 30
0
 10
-1667.552032007689
 20
273.8154386397986
 30
0
  0
SPLINE
  5
1EC
100
AcDbEntity
  8
默认
  6
ByLayer
 62
  256
370
   -1
100
AcDbSpline
210
0
220
0
230
0
 70
    8
 71
    2
 72
    6
 73
    3
 74
    0
 42
1e-07
 43
1e-07
 40
0
 40
0
 40
0
 40
1
 40
1
 40
1
 10
-1667.552032007689
 20
273.8154386397986
 30
0
 10
-1677.267657007689
 20
273.8154386397986
 30
0
 10
-1686.983282007689
 20
273.8154386397986
 30
0
  0
SPLINE
  5
1ED
100
AcDbEntity
  8
默认
  6
ByLayer
 62
  256
370
   -1
100
AcDbSpline
210
0
220
0
230
0
 70
    8
 71
    2
 72
    6
 73
    3
 74
    0
 42
1e-07
 43
1e-07
 40
0
 40
0
 40
0
 40
1
 40
1
 40
1
 10
-1686.983282007689
 20
273.8154386397986
 30
0
 10
-1687.983282007689
 20
273.8154386397986
 30
0
 10
-1687.983282007689
 20
274.8154386397986
 30
0
  0
SPLINE
  5
1EE
100
AcDbEntity
  8
默认
  6
ByLayer
 62
  256
370
   -1
100
AcDbSpline
210
0
220
0
230
0
 70
    8
 71
    2
 72
    6
 73
    3
 74
    0
 42
1e-07
 43
1e-07
 40
0
 40
0
 40
0
 40
1
 40
1
 40
1
 10
-1687.983282007689
 20
274.8154386397986
 30
0
 10
-1687.983282007689
 20
302.3854386397988
 30
0
 10
-1687.983282007689
 20
329.9554386397986
 30
0
  0
SPLINE
  5
1EF
100
AcDbEntity
  8
默认
  6
ByLayer
 62
  256
370
   -1
100
AcDbSpline
210
0
220
0
230
0
 70
    8
 71
    2
 72
    6
 73
    3
 74
    0
 42
1e-07
 43
1e-07
 40
0
 40
0
 40
0
 40
1
 40
1
 40
1
 10
-1687.983282007689
 20
329.9554386397986
 30
0
 10
-1687.983282007689
 20
330.9554386397991
 30
0
 10
-1686.983282007689
 20
330.9554386397986
 30
0
  0
SPLINE
  5
1F0
100
AcDbEntity
  8
默认
  6
ByLayer
 62
  256
370
   -1
100
AcDbSpline
210
0
220
0
230
0
 70
    8
 71
    2
 72
    6
 73
    3
 74
    0
 42
1e-07
 43
1e-07
 40
0
 40
0
 40
0
 40
1
 40
1
 40
1
 10
-1686.983282007689
 20
330.9554386397986
 30
0
 10
-1685.690267446928
 20
330.9554386397986
 30
0
 10
-1671.49931401285
 20
330.9554386397981
 30
0
  0
SPLINE
  5
1F1
100
AcDbEntity
  8
默认
  6
ByLayer
 62
  256
370
   -1
100
AcDbSpline
210
0
220
0
230
0
 70
    8
 71
    2
 72
    6
 73
    3
 74
    0
 42
1e-07
 43
1e-07
 40
0
 40
0
 40
0
 40
1
 40
1
 40
1
 10
-1671.49931401285
 20
330.9554386397981
 30
0
 10
-1668.875890116261
 20
330.9554386397955
 30
0
 10
-1668.526100263384
 20
333.5554386397989
 30
0
  0
SPLINE
  5
1F2
100
AcDbEntity
  8
默认
  6
ByLayer
 62
  256
370
   -1
100
AcDbSpline
210
0
220
0
230
0
 70
    8
 71
    2
 72
    6
 73
    3
 74
    0
 42
1e-07
 43
1e-07
 40
0
 40
0
 40
0
 40
1
 40
1
 40
1
 10
-1668.526100263384
 20
333.5554386397989
 30
0
 10
-1668.263757873725
 20
335.5054386398003
 30
0
 10
-1666.296189951285
 20
335.5054386397994
 30
0
  0
SPLINE
  5
1F3
100
AcDbEntity
  8
默认
  6
ByLayer
 62
  256
370
   -1
100
AcDbSpline
210
0
220
0
230
0
 70
    8
 71
    2
 72
    6
 73
    3
 74
    0
 42
1e-07
 43
1e-07
 40
0
 40
0
 40
0
 40
1
 40
1
 40
1
 10
-1666.296189951285
 20
335.5054386397994
 30
0
 10
-1659.413194507702
 20
335.5054386397994
 30
0
 10
-1652.53019906412
 20
335.5054386397994
 30
0
  0
SPLINE
  5
1F4
100
AcDbEntity
  8
默认
  6
ByLayer
 62
  256
370
   -1
100
AcDbSpline
210
0
220
0
230
0
 70
    8
 71
    2
 72
    6
 73
    3
 74
    0
 42
1e-07
 43
1e-07
 40
0
 40
0
 40
0
 40
1
 40
1
 40
1
 10
-1652.53019906412
 20
335.5054386397994
 30
0
 10
-1650.562631141682
 20
335.5054386398003
 30
0
 10
-1650.300288752022
 20
333.5554386398005
 30
0
  0
SPLINE
  5
1F5
100
AcDbEntity
  8
默认
  6
ByLayer
 62
  256
370
   -1
100
AcDbSpline
210
0
220
0
230
0
 70
    8
 71
    2
 72
    6
 73
    3
 74
    0
 42
1e-07
 43
1e-07
 40
0
 40
0
 40
0
 40
1
 40
1
 40
1
 10
-1650.300288752022
 20
333.5554386398005
 30
0
 10
-1649.950498899145
 20
330.9554386397968
 30
0
 10
-1647.327075002556
 20
330.9554386397986
 30
0
  0
SPLINE
  5
1F6
100
AcDbEntity
  8
默认
  6
ByLayer
 62
  256
370
   -1
100
AcDbSpline
210
0
220
0
230
0
 70
    8
 71
    2
 72
    6
 73
    3
 74
    0
 42
1e-07
 43
1e-07
 40
0
 40
0
 40
0
 40
1
 40
1
 40
1
 10
-1647.327075002556
 20
330.9554386397986
 30
0
 10
-1616.555462089341
 20
330.9554386397986
 30
0
 10
-1576.249251512837
 20
330.9554386397981
 30
0
  0
SPLINE
  5
1F7
100
AcDbEntity
  8
默认
  6
ByLayer
 62
  256
370
   -1
100
AcDbSpline
210
0
220
0
230
0
 70
    8
 71
    2
 72
    6
 73
    3
 74
    0
 42
1e-07
 43
1e-07
 40
0
 40
0
 40
0
 40
1
 40
1
 40
1
 10
-1576.249251512837
 20
330.9554386397981
 30
0
 10
-1573.625827616248
 20
330.9554386397955
 30
0
 10
-1573.276037763371
 20
333.5554386397989
 30
0
  0
SPLINE
  5
1F8
100
AcDbEntity
  8
默认
  6
ByLayer
 62
  256
370
   -1
100
AcDbSpline
210
0
220
0
230
0
 70
    8
 71
    2
 72
    6
 73
    3
 74
    0
 42
1e-07
 43
1e-07
 40
0
 40
0
 40
0
 40
1
 40
1
 40
1
 10
-1573.276037763371
 20
333.5554386397989
 30
0
 10
-1573.013695373712
 20
335.5054386398003
 30
0
 10
-1571.046127451272
 20
335.5054386397994
 30
0
  0
SPLINE
  5
1F9
100
AcDbEntity
  8
默认
  6
ByLayer
 62
  256
370
   -1
100
AcDbSpline
210
0
220
0
230
0
 70
    8
 71
    2
 72
    6
 73
    3
 74
    0
 42
1e-07
 43
1e-07
 40
0
 40
0
 40
0
 40
1
 40
1
 40
1
 10
-1571.046127451272
 20
335.5054386397994
 30
0
 10
-1564.163132007689
 20
335.5054386397994
 30
0
 10
-1557.280136564107
 20
335.5054386397994
 30
0
  0
SPLINE
  5
1FA
100
AcDbEntity
  8
默认
  6
ByLayer
 62
  256
370
   -1
100
AcDbSpline
210
0
220
0
230
0
 70
    8
 71
    2
 72
    6
 73
    3
 74
    0
 42
1e-07
 43
1e-07
 40
0
 40
0
 40
0
 40
1
 40
1
 40
1
 10
-1557.280136564107
 20
335.5054386397994
 30
0
 10
-1555.312568641669
 20
335.5054386398003
 30
0
 10
-1555.050226252009
 20
333.5554386398005
 30
0
  0
SPLINE
  5
1FB
100
AcDbEntity
  8
默认
  6
ByLayer
 62
  256
370
   -1
100
AcDbSpline
210
0
220
0
230
0
 70
    8
 71
    2
 72
    6
 73
    3
 74
    0
 42
1e-07
 43
1e-07
 40
0
 40
0
 40
0
 40
1
 40
1
 40
1
 10
-1555.050226252009
 20
333.5554386398005
 30
0
 10
-1554.700436399132
 20
330.9554386397968
 30
0
 10
-1552.077012502542
 20
330.9554386397986
 30
0
  0
SPLINE
  5
1FC
100
AcDbEntity
  8
默认
  6
ByLayer
 62
  256
370
   -1
100
AcDbSpline
210
0
220
0
230
0
 70
    8
 71
    2
 72
    6
 73
    3
 74
    0
 42
1e-07
 43
1e-07
 40
0
 40
0
 40
0
 40
1
 40
1
 40
1
 10
-1552.077012502542
 20
330.9554386397986
 30
0
 10
-1511.817565157069
 20
330.9554386397986
 30
0
 10
-1480.999251512836
 20
330.9554386397981
 30
0
  0
SPLINE
  5
1FD
100
AcDbEntity
  8
默认
  6
ByLayer
 62
  256
370
   -1
100
AcDbSpline
210
0
220
0
230
0
 70
    8
 71
    2
 72
    6
 73
    3
 74
    0
 42
1e-07
 43
1e-07
 40
0
 40
0
 40
0
 40
1
 40
1
 40
1
 10
-1480.999251512836
 20
330.9554386397981
 30
0
 10
-1478.375827616248
 20
330.9554386397955
 30
0
 10
-1478.02603776337
 20
333.5554386397989
 30
0
  0
SPLINE
  5
1FE
100
AcDbEntity
  8
默认
  6
ByLayer
 62
  256
370
   -1
100
AcDbSpline
210
0
220
0
230
0
 70
    8
 71
    2
 72
    6
 73
    3
 74
    0
 42
1e-07
 43
1e-07
 40
0
 40
0
 40
0
 40
1
 40
1
 40
1
 10
-1478.02603776337
 20
333.5554386397989
 30
0
 10
-1477.763695373711
 20
335.5054386398003
 30
0
 10
-1475.796127451271
 20
335.5054386397994
 30
0
  0
SPLINE
  5
1FF
100
AcDbEntity
  8
默认
  6
ByLayer
 62
  256
370
   -1
100
AcDbSpline
210
0
220
0
230
0
 70
    8
 71
    2
 72
    6
 73
    3
 74
    0
 42
1e-07
 43
1e-07
 40
0
 40
0
 40
0
 40
1
 40
1
 40
1
 10
-1475.796127451271
 20
335.5054386397994
 30
0
 10
-1468.913132007689
 20
335.5054386397994
 30
0
 10
-1462.030136564106
 20
335.5054386397994
 30
0
  0
SPLINE
  5
200
100
AcDbEntity
  8
默认
  6
ByLayer
 62
  256
370
   -1
100
AcDbSpline
210
0
220
0
230
0
 70
    8
 71
    2
 72
    6
 73
    3
 74
    0
 42
1e-07
 43
1e-07
 40
0
 40
0
 40
0
 40
1
 40
1
 40
1
 10
-1462.030136564106
 20
335.5054386397994
 30
0
 10
-1460.062568641669
 20
335.5054386398003
 30
0
 10
-1459.800226252009
 20
333.5554386398005
 30
0
  0
SPLINE
  5
201
100
AcDbEntity
  8
默认
  6
ByLayer
 62
  256
370
   -1
100
AcDbSpline
210
0
220
0
230
0
 70
    8
 71
    2
 72
    6
 73
    3
 74
    0
 42
1e-07
 43
1e-07
 40
0
 40
0
 40
0
 40
1
 40
1
 40
1
 10
-1459.800226252009
 20
333.5554386398005
 30
0
 10
-1459.450436399132
 20
330.9554386397968
 30
0
 10
-1456.827012502542
 20
330.9554386397986
 30
0
  0
SPLINE
  5
202
100
AcDbEntity
  8
默认
  6
ByLayer
 62
  256
370
   -1
100
AcDbSpline
210
0
220
0
230
0
 70
    8
 71
    2
 72
    6
 73
    3
 74
    0
 42
1e-07
 43
1e-07
 40
0
 40
0
 40
0
 40
1
 40
1
 40
1
 10
-1456.827012502542
 20
330.9554386397986
 30
0
 10
-1447.632624574328
 20
330.9554386397987
 30
0
 10
-1441.34328200769
 20
330.9554386397986
 30
0
  0
SPLINE
  5
203
100
AcDbEntity
  8
默认
  6
ByLayer
 62
  256
370
   -1
100
AcDbSpline
210
0
220
0
230
0
 70
    8
 71
    2
 72
    6
 73
    3
 74
    0
 42
1e-07
 43
1e-07
 40
0
 40
0
 40
0
 40
1
 40
1
 40
1
 10
-1441.34328200769
 20
330.9554386397986
 30
0
 10
-1440.34328200769
 20
330.9554386397991
 30
0
 10
-1440.34328200769
 20
329.9554386397983
 30
0
  0
SPLINE
  5
204
100
AcDbEntity
  8
默认
  6
ByLayer
 62
  256
370
   -1
100
AcDbSpline
210
0
220
0
230
0
 70
    8
 71
    2
 72
    6
 73
    3
 74
    0
 42
1e-07
 43
1e-07
 40
0
 40
0
 40
0
 40
1
 40
1
 40
1
 10
-1440.34328200769
 20
329.9554386397983
 30
0
 10
-1440.343282007689
 20
302.3854386397986
 30
0
 10
-1440.34328200769
 20
274.8154386397984
 30
0
  0
SPLINE
  5
205
100
AcDbEntity
  8
默认
  6
ByLayer
 62
  256
370
   -1
100
AcDbSpline
210
0
220
0
230
0
 70
    8
 71
    2
 72
    6
 73
    3
 74
    0
 42
1e-07
 43
1e-07
 40
0
 40
0
 40
0
 40
1
 40
1
 40
1
 10
-1440.34328200769
 20
274.8154386397984
 30
0
 10
-1440.34328200769
 20
273.8154386397982
 30
0
 10
-1441.34328200769
 20
273.8154386397979
 30
0
  0
SPLINE
  5
206
100
AcDbEntity
  8
默认
  6
ByLayer
 62
  256
370
   -1
100
AcDbSpline
210
0
220
0
230
0
 70
    8
 71
    2
 72
    6
 73
    3
 74
    0
 42
1e-07
 43
1e-07
 40
0
 40
0
 40
0
 40
1
 40
1
 40
1
 10
-1441.34328200769
 20
273.8154386397979
 30
0
 10
-1451.05890700769
 20
273.8154386397987
 30
0
 10
-1460.77453200769
 20
273.8154386397979
 30
0
  0
SPLINE
  5
207
100
AcDbEntity
  8
默认
  6
ByLayer
 62
  256
370
   -1
100
AcDbSpline
210
0
220
0
230
0
 70
    8
 71
    2
 72
    6
 73
    3
 74
    0
 42
1e-07
 43
1e-07
 40
0
 40
0
 40
0
 40
1
 40
1
 40
1
 10
-1460.77453200769
 20
273.8154386397979
 30
0
 10
-1461.774532007689
 20
273.8154386397983
 30
0
 10
-1461.77453200769
 20
272.8154386397986
 30
0
  0
SPLINE
  5
208
100
AcDbEntity
  8
默认
  6
ByLayer
 62
  256
370
   -1
100
AcDbSpline
210
0
220
0
230
0
 70
    8
 71
    2
 72
    6
 73
    3
 74
    0
 42
1e-07
 43
1e-07
 40
0
 40
0
 40
0
 40
1
 40
1
 40
1
 10
-1461.77453200769
 20
272.8154386397986
 30
0
 10
-1461.77453200769
 20
264.2904386397988
 30
0
 10
-1461.77453200769
 20
255.7654386397989
 30
0
  0
SPLINE
  5
209
100
AcDbEntity
  8
默认
  6
ByLayer
 62
  256
370
   -1
100
AcDbSpline
210
0
220
0
230
0
 70
    8
 71
    2
 72
    6
 73
    3
 74
    0
 42
1e-07
 43
1e-07
 40
0
 40
0
 40
0
 40
1
 40
1
 40
1
 10
-1481.231545714057
 20
252.1654386397965
 30
0
 10
-1481.493888103717
 20
250.2154386397968
 30
0
 10
-1483.461456026154
 20
250.2154386397976
 30
0
  0
SPLINE
  5
20A
100
AcDbEntity
  8
默认
  6
ByLayer
 62
  256
370
   -1
100
AcDbSpline
210
0
220
0
230
0
 70
    8
 71
    2
 72
    6
 73
    3
 74
    0
 42
1e-07
 43
1e-07
 40
0
 40
0
 40
0
 40
1
 40
1
 40
1
 10
-1610.663216493956
 20
271.7864690976709
 30
0
 10
-1610.664598862775
 20
271.2864710086178
 30
0
 10
-1610.164600773723
 20
271.2850886397986
 30
0
  0
SPLINE
  5
20B
100
AcDbEntity
  8
默认
  6
ByLayer
 62
  256
370
   -1
100
AcDbSpline
210
0
220
0
230
0
 70
    8
 71
    2
 72
    6
 73
    3
 74
    0
 42
1e-07
 43
1e-07
 40
0
 40
0
 40
0
 40
1
 40
1
 40
1
 10
-1518.166047233414
 20
271.287853377438
 30
0
 10
-1517.666049144361
 20
271.2864710086187
 30
0
 10
-1517.664666775542
 20
271.7864690976709
 30
0
  0
SPLINE
  5
20C
100
AcDbEntity
  8
默认
  6
ByLayer
 62
  256
370
   -1
100
AcDbSpline
210
0
220
0
230
0
 70
    8
 71
    2
 72
    6
 73
    3
 74
    0
 42
1e-07
 43
1e-07
 40
0
 40
0
 40
0
 40
1
 40
1
 40
1
 10
-1517.16328631767
 20
273.3553384581878
 30
0
 10
-1517.663284406723
 20
273.3567208270071
 30
0
 10
-1517.664666775542
 20
272.8567227379548
 30
0
  0
SPLINE
  5
20D
100
AcDbEntity
  8
默认
  6
ByLayer
 62
  256
370
   -1
100
AcDbSpline
210
0
220
0
230
0
 70
    8
 71
    2
 72
    6
 73
    3
 74
    0
 42
1e-07
 43
1e-07
 40
0
 40
0
 40
0
 40
1
 40
1
 40
1
 10
-1511.164666493956
 20
273.3553388214099
 30
0
 10
-1514.144607194983
 20
273.3553386397993
 30
0
 10
-1517.16328631767
 20
273.3553384581878
 30
0
  0
SPLINE
  5
20E
100
AcDbEntity
  8
默认
  6
ByLayer
 62
  256
370
   -1
100
AcDbSpline
210
0
220
0
230
0
 70
    8
 71
    2
 72
    6
 73
    3
 74
    0
 42
1e-07
 43
1e-07
 40
0
 40
0
 40
0
 40
1
 40
1
 40
1
 10
-1517.664666775542
 20
272.8567227379548
 30
0
 10
-1517.664666775542
 20
271.7864690976709
 30
0
 10
-1517.664666775542
 20
271.7864690976709
 30
0
  0
SPLINE
  5
20F
100
AcDbEntity
  8
默认
  6
ByLayer
 62
  256
370
   -1
100
AcDbSpline
210
0
220
0
230
0
 70
    8
 71
    2
 72
    6
 73
    3
 74
    0
 42
1e-07
 43
1e-07
 40
0
 40
0
 40
0
 40
1
 40
1
 40
1
 10
-1518.166047233414
 20
271.287853377438
 30
0
 10
-1564.163282007689
 20
271.2850886397986
 30
0
 10
-1610.164600773723
 20
271.2850886397986
 30
0
  0
SPLINE
  5
210
100
AcDbEntity
  8
默认
  6
ByLayer
 62
  256
370
   -1
100
AcDbSpline
210
0
220
0
230
0
 70
    8
 71
    2
 72
    6
 73
    3
 74
    0
 42
1e-07
 43
1e-07
 40
0
 40
0
 40
0
 40
1
 40
1
 40
1
 10
-1610.663216493956
 20
271.7864690976709
 30
0
 10
-1610.663216493956
 20
271.7864690976709
 30
0
 10
-1610.663216493956
 20
272.8553388214099
 30
0
  0
SPLINE
  5
211
100
AcDbEntity
  8
默认
  6
ByLayer
 62
  256
370
   -1
100
AcDbSpline
210
0
220
0
230
0
 70
    8
 71
    2
 72
    6
 73
    3
 74
    0
 42
1e-07
 43
1e-07
 40
0
 40
0
 40
0
 40
1
 40
1
 40
1
 10
-1617.663216493956
 20
257.7857886397987
 30
0
 10
-1617.663216493956
 20
257.2857886397991
 30
0
 10
-1617.163216493956
 20
257.2857886397987
 30
0
  0
SPLINE
  5
212
100
AcDbEntity
  8
默认
  6
ByLayer
 62
  256
370
   -1
100
AcDbSpline
210
0
220
0
230
0
 70
    8
 71
    2
 72
    6
 73
    3
 74
    0
 42
1e-07
 43
1e-07
 40
0
 40
0
 40
0
 40
1
 40
1
 40
1
 10
-1617.663216775542
 20
272.8247133912091
 30
0
 10
-1617.663216634749
 20
265.7700464246981
 30
0
 10
-1617.663216493956
 20
257.7857886397987
 30
0
  0
SPLINE
  5
213
100
AcDbEntity
  8
默认
  6
ByLayer
 62
  256
370
   -1
100
AcDbSpline
210
0
220
0
230
0
 70
    8
 71
    2
 72
    6
 73
    3
 74
    0
 42
1e-07
 43
1e-07
 40
0
 40
0
 40
0
 40
1
 40
1
 40
1
 10
-1511.166046862776
 20
257.2857886397982
 30
0
 10
-1510.666048773722
 20
257.2844062709789
 30
0
 10
-1510.664666404903
 20
257.7844043600311
 30
0
  0
SPLINE
  5
214
100
AcDbEntity
  8
默认
  6
ByLayer
 62
  256
370
   -1
100
AcDbSpline
210
0
220
0
230
0
 70
    8
 71
    2
 72
    6
 73
    3
 74
    0
 42
1e-07
 43
1e-07
 40
0
 40
0
 40
0
 40
1
 40
1
 40
1
 10
-1510.664666404903
 20
257.7844043600311
 30
0
 10
-1510.66466644943
 20
265.7846669553891
 30
0
 10
-1510.664666493956
 20
272.8553388214099
 30
0
  0
SPLINE
  5
215
100
AcDbEntity
  8
默认
  6
ByLayer
 62
  256
370
   -1
100
AcDbSpline
210
0
220
0
230
0
 70
    8
 71
    2
 72
    6
 73
    3
 74
    0
 42
1e-07
 43
1e-07
 40
0
 40
0
 40
0
 40
1
 40
1
 40
1
 10
-1617.163216493956
 20
257.2857886397987
 30
0
 10
-1564.163282007689
 20
257.2857886397987
 30
0
 10
-1511.166046862776
 20
257.2857886397982
 30
0
  0
ENDSEC
  0
SECTION
  2
OBJECTS
  0
DICTIONARY
  5
C
330
0
100
AcDbDictionary
281
    1
  3
ACAD_GROUP
350
D
  0
DICTIONARY
  5
D
330
C
100
AcDbDictionary
281
    1
  0
PLOTSETTINGS
  5
216
100
AcDbPlotSettings
  6
1x1
 40
0
 41
0
 42
0
 43
0
  0
ENDSEC
  0
EOF
