0
SECTION
2
HEADER
9
$INSUNITS
70
4
9
$ACADVER
1
AC1014
9
$HANDSEED
5
FFFF
0
ENDSEC
0
SECTION
2
TABLES
0
TABLE
2
VPORT
5
8
100
AcDbSymbolTable
0
ENDTAB
0
TABLE
2
LTYPE
5
5
100
AcDbSymbolTable
0
LTYPE
5
14
100
AcDbSymbolTableRecord
100
AcDbLinetypeTableRecord
2
BYBLOCK
70
0
0
LTYPE
5
15
100
AcDbSymbolTableRecord
100
AcDbLinetypeTableRecord
2
BYLAYER
70
0
0
ENDTAB
0
TABLE
2
LAYER
5
2
100
AcDbSymbolTable
70
2
0
LAYER
5
50
100
AcDbSymbolTableRecord
100
AcDbLayerTableRecord
2
0
70
0
6
CONTINUOUS
0
ENDTAB
0
TABLE
2
STYLE
5
3
100
AcDbSymbolTable
70
1
0
STYLE
5
11
100
AcDbSymbolTableRecord
100
AcDbTextStyleTableRecord
2
STANDARD
70
0
0
ENDTAB
0
TABLE
2
VIEW
5
6
100
AcDbSymbolTable
70
0
0
ENDTAB
0
TABLE
2
UCS
5
7
100
AcDbSymbolTable
70
0
0
ENDTAB
0
TABLE
2
APPID
5
9
100
AcDbSymbolTable
70
2
0
APPID
5
12
100
AcDbSymbolTableRecord
100
AcDbRegAppTableRecord
2
ACAD
70
0
0
ENDTAB
0
TABLE
2
DIMSTYLE
5
A
100
AcDbSymbolTable
70
1
0
ENDTAB
0
TABLE
2
BLOCK_RECORD
5
1
100
AcDbSymbolTable
70
1
0
BLOCK_RECORD
5
1F
100
AcDbSymbolTableRecord
100
AcDbBlockTableRecord
2
*MODEL_SPACE
0
BLOCK_RECORD
5
1B
100
AcDbSymbolTableRecord
100
AcDbBlockTableRecord
2
*PAPER_SPACE
0
ENDTAB
0
ENDSEC
0
SECTION
2
BLOCKS
0
BLOCK
5
20
100
AcDbEntity
100
AcDbBlockBegin
2
*MODEL_SPACE
0
ENDBLK
5
21
100
AcDbEntity
100
AcDbBlockEnd
0
BLOCK
5
1C
100
AcDbEntity
100
AcDbBlockBegin
2
*PAPER_SPACE
0
ENDBLK
5
1D
100
AcDbEntity
100
AcDbBlockEnd
0
ENDSEC
0
SECTION
2
ENTITIES
0
LWPOLYLINE
5
100
100
AcDbEntity
8
0
100
AcDbPolyline
90
56
70
1
43
0.0
10
-284.75
20
1.915134717478395e-14
42
-0.41421356237310492
10
-285.75
20
0.99999999999999645
10
-285.75
20
94.25
42
-0.41421356237310542
10
-284.75
20
95.25
10
-267.8125
20
95.25
42
0.41421356237309503
10
-266.8125
20
96.25
10
-266.8125
20
100.75000000000001
42
-0.414213562373069
10
-265.8125
20
101.75
10
-197.8125
20
101.74999999999997
42
-0.41421356237308982
10
-196.81250000000003
20
100.75000000000001
10
-196.81250000000003
20
96.25
42
0.41421356237309503
10
-195.8125
20
95.25
10
-178.875
20
95.25
42
0.41421356237309503
10
-177.875
20
96.25
10
-177.875
20
100.75000000000001
42
-0.41421356237308982
10
-176.875
20
101.75
10
-108.87500000000001
20
101.75
42
-0.41421356237309503
10
-107.87500000000001
20
100.75000000000001
10
-107.875
20
96.25
42
0.41421356237309503
10
-106.875
20
95.25
10
-89.9375
20
95.25
42
0.41421356237309503
10
-88.9375
20
96.25
10
-88.9375
20
100.75000000000001
42
-0.41421356237309503
10
-87.937500000000014
20
101.75
10
-19.9375
20
101.75
42
-0.4142135623730937
10
-18.9375
20
100.75000000000001
10
-18.937500000000004
20
96.25
42
0.41421356237309503
10
-17.9375
20
95.25
10
-1.0000000000000004
20
95.25
42
-0.41421356237309681
10
0
20
94.25
10
0
20
1.0000000000000004
42
-0.41421356237309781
10
-1.0000000000000098
20
0
10
-17.9375
20
0
42
0.41421356237309498
10
-18.9375
20
-0.99999999999999978
10
-18.9375
20
-5.5
42
-0.41421356237309764
10
-19.937500000000004
20
-6.5
10
-87.937500000000014
20
-6.4999999999999938
42
-0.41421356237309404
10
-88.9375
20
-5.5
10
-88.9375
20
-1.0000000000000002
42
0.41421356237309509
10
-89.9375
20
0
10
-106.875
20
0
42
0.41421356237309498
10
-107.87500000000001
20
-0.99999999999999978
10
-107.87500000000001
20
-5.5
42
-0.41421356237309404
10
-108.87500000000001
20
-6.5
10
-176.875
20
-6.4999999999999787
42
-0.41421356237310542
10
-177.875
20
-5.5
10
-177.87499999999997
20
-1.0000000000000002
42
0.41421356237309509
10
-178.875
20
0
10
-195.8125
20
2.7755575615628914e-16
42
0.41421356237309498
10
-196.81250000000003
20
-0.99999999999999978
10
-196.81249999999994
20
-5.5
42
-0.41421356237310542
10
-197.8125
20
-6.5
10
-265.8125
20
-6.5000000000000142
42
-0.41421356237307422
10
-266.8125
20
-5.5
10
-266.8125
20
-1.0000000000000002
42
0.41421356237309509
10
-267.8125
20
0
0
LWPOLYLINE
5
101
100
AcDbEntity
8
0
100
AcDbPolyline
90
8
70
1
43
0.0
10
-280.84375
20
91.724999999999994
10
-280.84375
20
79.724999999999994
42
0.41421356237309503
10
-279.84375
20
78.724999999999994
10
-265.46249999999998
20
78.725000000000009
42
0.41421356237309503
10
-264.46249999999998
20
79.724999999999994
10
-264.46249999999998
20
91.724999999999994
42
0.41421356237309503
10
-265.46249999999998
20
92.724999999999994
10
-279.84375
20
92.724999999999994
42
0.41421356237309503
0
LWPOLYLINE
5
102
100
AcDbEntity
8
0
100
AcDbPolyline
90
8
70
1
43
0.0
10
-257.03125
20
91.724999999999994
10
-257.03125
20
79.724999999999994
42
0.41421356237309503
10
-256.03125
20
78.724999999999994
10
-241.65000000000003
20
78.725000000000009
42
0.41421356237309503
10
-240.65000000000001
20
79.724999999999994
10
-240.65000000000001
20
91.724999999999994
42
0.41421356237309503
10
-241.65000000000003
20
92.725000000000094
10
-256.03125
20
92.724999999999994
42
0.41421356237309503
0
LWPOLYLINE
5
103
100
AcDbEntity
8
0
100
AcDbPolyline
90
8
70
1
43
0.0
10
-233.21875000000003
20
91.724999999999994
10
-233.21875000000003
20
79.724999999999994
42
0.41421356237309503
10
-232.21875
20
78.724999999999994
10
-217.83750000000001
20
78.725000000000009
42
0.41421356237309503
10
-216.83750000000003
20
79.724999999999994
10
-216.83750000000001
20
91.724999999999994
42
0.41421356237309503
10
-217.83750000000001
20
92.724999999999994
10
-232.21875
20
92.724999999999994
42
0.41421356237309503
0
LWPOLYLINE
5
104
100
AcDbEntity
8
0
100
AcDbPolyline
90
8
70
1
43
0.0
10
-124.96875000000001
20
92.724999999999994
10
-148.875
20
92.724999999999994
42
0.41421356237309503
10
-149.875
20
91.724999999999994
10
-149.875
20
79.724999999999994
42
0.41421356237309503
10
-148.875
20
78.724999999999994
10
-124.96875000000001
20
78.725000000000009
42
0.41421356237309503
10
-123.96875000000001
20
79.724999999999994
10
-123.96875000000001
20
91.724999999999994
42
0.41421356237309503
0
LWPOLYLINE
5
105
100
AcDbEntity
8
0
100
AcDbPolyline
90
8
70
1
43
0.0
10
-183.47499999999999
20
76.724999999999994
10
-178.47499999999999
20
76.724999999999994
42
0.41421356237309503
10
-177.47499999999999
20
77.725000000000094
10
-177.47499999999999
20
91.724999999999994
42
0.41421356237309503
10
-178.47499999999999
20
92.724999999999994
10
-183.47499999999999
20
92.724999999999994
42
0.41421356237309503
10
-184.47500000000002
20
91.724999999999994
10
-184.47500000000002
20
77.724999999999994
42
0.41421356237309503
0
LWPOLYLINE
5
106
100
AcDbEntity
8
0
100
AcDbPolyline
90
8
70
1
43
0.0
10
-77.462500000000006
20
77.724999999999994
10
-77.462500000000006
20
91.724999999999994
42
0.41421356237309503
10
-78.462500000000006
20
92.724999999999994
10
-88.224999999999994
20
92.724999999999994
42
0.41421356237309503
10
-89.224999999999994
20
91.724999999999994
10
-89.224999999999994
20
77.724999999999994
42
0.41421356237309503
10
-88.224999999999994
20
76.724999999999994
10
-78.462500000000006
20
76.725000000000009
42
0.41421356237309503
0
LWPOLYLINE
5
107
100
AcDbEntity
8
0
100
AcDbPolyline
90
8
70
1
43
0.0
10
-67.912499999999994
20
78.724999999999994
10
-53.53125
20
78.724999999999994
42
0.41421356237309503
10
-52.531250000000007
20
79.724999999999994
10
-52.531250000000007
20
91.724999999999994
42
0.41421356237309503
10
-53.53125
20
92.724999999999994
10
-67.912499999999994
20
92.724999999999994
42
0.41421356237309503
10
-68.912499999999994
20
91.724999999999994
10
-68.912499999999994
20
79.724999999999994
42
0.41421356237309503
0
LWPOLYLINE
5
108
100
AcDbEntity
8
0
100
AcDbPolyline
90
8
70
1
43
0.0
10
-44.100000000000001
20
78.724999999999994
10
-29.718750000000004
20
78.724999999999994
42
0.41421356237309503
10
-28.71875
20
79.724999999999994
10
-28.71875
20
91.724999999999994
42
0.41421356237309503
10
-29.718750000000004
20
92.724999999999994
10
-44.100000000000001
20
92.724999999999994
42
0.41421356237309503
10
-45.100000000000009
20
91.724999999999994
10
-45.099999999999994
20
79.724999999999994
42
0.41421356237309503
0
LWPOLYLINE
5
109
100
AcDbEntity
8
0
100
AcDbPolyline
90
8
70
1
43
0.0
10
-20.287500000000001
20
78.724999999999994
10
-5.9062500000000009
20
78.724999999999994
42
0.41421356237309503
10
-4.90625
20
79.724999999999994
10
-4.9062500000000009
20
91.724999999999994
42
0.41421356237309537
10
-5.9062500000000018
20
92.724999999999994
10
-20.287500000000001
20
92.724999999999994
42
0.41421356237309503
10
-21.287500000000001
20
91.724999999999994
10
-21.287500000000001
20
79.724999999999994
42
0.41421356237309503
0
LWPOLYLINE
5
110
100
AcDbEntity
8
0
100
AcDbPolyline
90
14
70
1
43
0.0
10
-196.52500000000003
20
77.929617467640995
42
-0.28606663487961531
10
-195.96562500000002
20
78.82730873382053
42
0.28606663487960815
10
-195.40625000000003
20
79.724999999999994
10
-195.40625
20
91.724999999999994
42
0.41421356237309503
10
-196.40625
20
92.724999999999994
10
-208.40625000000003
20
92.724999999999994
42
0.41421356237309503
10
-209.40625
20
91.724999999999994
10
-209.40625000000006
20
79.724999999999994
42
0.41421356237309503
10
-208.40625000000003
20
78.724999999999994
10
-204.52500000000001
20
78.724999999999952
42
-0.41421356237310802
10
-203.52500000000003
20
77.724999999999994
42
0.41421356237309503
10
-202.52500000000001
20
76.724999999999994
10
-197.52500000000001
20
76.725000000000009
42
0.41421356237309503
10
-196.52500000000003
20
77.724999999999994
0
LWPOLYLINE
5
111
100
AcDbEntity
8
0
100
AcDbPolyline
90
8
70
1
43
0.0
10
-12.99325
20
74.674999999999997
10
-12.99325
20
60.674999999999997
42
0.41421356237309503
10
-11.99325
20
59.675000000000004
10
-6.9932500000000513
20
59.675000000000004
42
0.41421356237309503
10
-5.9932500000000397
20
60.674999999999997
10
-5.9932500000000513
20
74.674999999999997
42
0.41421356237309503
10
-6.9932500000000513
20
75.674999999999997
10
-11.99325
20
75.674999999999997
42
0.41421356237309503
0
LWPOLYLINE
5
112
100
AcDbEntity
8
0
100
AcDbPolyline
90
8
70
1
43
0.0
10
-30.869250000000005
20
75.674999999999997
10
-35.869250000000001
20
75.674999999999997
42
0.41421356237309503
10
-36.869250000000008
20
74.674999999999997
10
-36.869250000000008
20
60.674999999999997
42
0.41421356237309503
10
-35.869250000000001
20
59.675000000000004
10
-30.869250000000005
20
59.675000000000004
42
0.41421356237309503
10
-29.869250000000001
20
60.674999999999997
10
-29.869250000000001
20
74.674999999999997
42
0.41421356237309503
0
LWPOLYLINE
5
113
100
AcDbEntity
8
0
100
AcDbPolyline
90
8
70
1
43
0.0
10
-28.431250000000002
20
72.674999999999997
10
-28.431250000000002
20
60.674999999999997
42
0.41421356237309503
10
-27.431249999999999
20
59.675000000000004
10
-15.43125
20
59.675000000000004
42
0.41421356237309503
10
-14.431250000000002
20
60.674999999999997
10
-14.43125
20
72.674999999999997
42
0.41421356237309503
10
-15.43125
20
73.674999999999997
10
-27.431249999999999
20
73.674999999999997
42
0.41421356237309503
0
LWPOLYLINE
5
114
100
AcDbEntity
8
0
100
AcDbPolyline
90
8
70
1
43
0.0
10
-58.38750000000001
20
59.675000000000004
10
-46.38750000000001
20
59.675000000000004
42
0.41421356237309503
10
-45.387500000000003
20
60.674999999999997
10
-45.38750000000001
20
72.674999999999997
42
0.41421356237309503
10
-46.38750000000001
20
73.674999999999997
10
-58.38750000000001
20
73.674999999999997
42
0.41421356237309503
10
-59.387500000000003
20
72.674999999999997
10
-59.387500000000003
20
60.674999999999997
42
0.41421356237309503
0
LWPOLYLINE
5
115
100
AcDbEntity
8
0
100
AcDbPolyline
90
8
70
1
43
0.0
10
-77.4375
20
59.675000000000004
10
-65.4375
20
59.675000000000004
42
0.41421356237309503
10
-64.4375
20
60.674999999999997
10
-64.4375
20
72.674999999999997
42
0.41421356237309503
10
-65.4375
20
73.674999999999997
10
-77.4375
20
73.674999999999997
42
0.41421356237309503
10
-78.4375
20
72.674999999999997
10
-78.4375
20
60.674999999999997
42
0.41421356237309503
0
LWPOLYLINE
5
116
100
AcDbEntity
8
0
100
AcDbPolyline
90
8
70
1
43
0.0
10
-115.53750000000001
20
59.675000000000004
10
-103.53749999999999
20
59.675000000000004
42
0.41421356237309503
10
-102.53749999999999
20
60.674999999999997
10
-102.53749999999999
20
72.674999999999997
42
0.41421356237309503
10
-103.53749999999999
20
73.674999999999997
10
-115.53750000000001
20
73.674999999999997
42
0.41421356237309503
10
-116.53750000000001
20
72.674999999999997
10
-116.53750000000001
20
60.674999999999997
42
0.41421356237309503
0
LWPOLYLINE
5
117
100
AcDbEntity
8
0
100
AcDbPolyline
90
8
70
1
43
0.0
10
-96.487499999999997
20
59.675000000000004
10
-84.487500000000011
20
59.675000000000004
42
0.41421356237309503
10
-83.487500000000011
20
60.674999999999997
10
-83.487500000000011
20
72.674999999999997
42
0.41421356237309503
10
-84.487500000000011
20
73.674999999999997
10
-96.487499999999997
20
73.674999999999997
42
0.41421356237309503
10
-97.487500000000011
20
72.674999999999997
10
-97.487499999999997
20
60.674999999999997
42
0.41421356237309503
0
LWPOLYLINE
5
118
100
AcDbEntity
8
0
100
AcDbPolyline
90
8
70
1
43
0.0
10
-134.58750000000003
20
59.675000000000004
10
-122.58750000000001
20
59.675000000000004
42
0.41421356237309503
10
-121.58750000000001
20
60.674999999999997
10
-121.58750000000001
20
72.674999999999997
42
0.41421356237309503
10
-122.58750000000001
20
73.674999999999997
10
-134.58750000000003
20
73.674999999999997
42
0.41421356237309503
10
-135.58750000000001
20
72.674999999999997
10
-135.58750000000001
20
60.674999999999997
42
0.41421356237309503
0
LWPOLYLINE
5
119
100
AcDbEntity
8
0
100
AcDbPolyline
90
8
70
1
43
0.0
10
-153.63749999999999
20
59.675000000000004
10
-141.63749999999999
20
59.675000000000004
42
0.41421356237309503
10
-140.63749999999999
20
60.674999999999997
10
-140.63750000000002
20
72.674999999999997
42
0.41421356237309503
10
-141.63749999999999
20
73.674999999999997
10
-153.63749999999999
20
73.674999999999997
42
0.41421356237309503
10
-154.63749999999999
20
72.674999999999997
10
-154.63749999999999
20
60.674999999999997
42
0.41421356237309503
0
LWPOLYLINE
5
120
100
AcDbEntity
8
0
100
AcDbPolyline
90
8
70
1
43
0.0
10
-191.73750000000001
20
59.675000000000004
10
-179.73750000000001
20
59.675000000000004
42
0.41421356237309503
10
-178.73750000000001
20
60.674999999999997
10
-178.73750000000001
20
72.674999999999997
42
0.41421356237309503
10
-179.73750000000001
20
73.674999999999997
10
-191.73750000000001
20
73.674999999999997
42
0.41421356237309503
10
-192.73750000000004
20
72.674999999999997
10
-192.73750000000004
20
60.674999999999997
42
0.41421356237309503
0
LWPOLYLINE
5
121
100
AcDbEntity
8
0
100
AcDbPolyline
90
8
70
1
43
0.0
10
-210.78749999999999
20
59.675000000000004
10
-198.78749999999999
20
59.675000000000004
42
0.41421356237309503
10
-197.78750000000002
20
60.674999999999997
10
-197.78749999999999
20
72.674999999999997
42
0.41421356237309503
10
-198.78749999999999
20
73.674999999999997
10
-210.78749999999999
20
73.674999999999997
42
0.41421356237309503
10
-211.78750000000002
20
72.674999999999997
10
-211.78750000000002
20
60.674999999999997
42
0.41421356237309503
0
LWPOLYLINE
5
122
100
AcDbEntity
8
0
100
AcDbPolyline
90
8
70
1
43
0.0
10
-229.83750000000001
20
59.675000000000004
10
-217.83750000000001
20
59.675000000000004
42
0.41421356237309503
10
-216.83750000000003
20
60.674999999999997
10
-216.83750000000001
20
72.674999999999997
42
0.41421356237309503
10
-217.83750000000001
20
73.674999999999997
10
-229.83750000000001
20
73.674999999999997
42
0.41421356237309503
10
-230.83750000000003
20
72.674999999999997
10
-230.83750000000003
20
60.674999999999997
42
0.41421356237309503
0
LWPOLYLINE
5
123
100
AcDbEntity
8
0
100
AcDbPolyline
90
20
70
1
43
0.0
10
-243.57475000000005
20
73.564723412078166
42
-0.28126864662394629
10
-244.11824999999999
20
74.454446824156307
10
-244.11824999999999
20
74.674999999999997
42
0.41421356237309503
10
-245.11825000000002
20
75.674999999999997
10
-250.11825000000002
20
75.674999999999997
42
0.41421356237309503
10
-251.11824999999996
20
74.674999999999997
42
-0.41421356237308721
10
-252.11825000000002
20
73.674999999999997
10
-266.99425000000008
20
73.675000000000054
42
-0.41421356237310802
10
-267.99425000000002
20
74.674999999999997
42
0.41421356237309503
10
-268.99425000000002
20
75.674999999999997
10
-273.99425000000002
20
75.674999999999997
42
0.41421356237309503
10
-274.99425000000002
20
74.674999999999997
42
-0.41421356237310802
10
-275.99425000000002
20
73.674999999999997
10
-282.22500000000002
20
73.674999999999997
42
0.41421356237309503
10
-283.22500000000002
20
72.674999999999997
10
-283.22500000000002
20
60.674999999999997
42
0.41421356237309503
10
-282.22500000000002
20
59.675000000000004
10
-244.03125000000003
20
59.675000000000004
42
0.41421356237309503
10
-243.03125
20
60.674999999999997
10
-243.03125
20
72.674999999999997
42
0.28126864662394446
0
LWPOLYLINE
5
124
100
AcDbEntity
8
0
100
AcDbPolyline
90
8
70
1
43
0.0
10
-255.88075000000003
20
55.625
10
-255.88075000000003
20
41.625000000000007
42
0.41421356237309503
10
-254.88075000000003
20
40.625
10
-249.88075000000003
20
40.625000000000007
42
0.41421356237309503
10
-248.88075000000001
20
41.625000000000007
10
-248.88075000000001
20
55.625
42
0.41421356237309503
10
-249.88075000000003
20
56.625000000000007
10
-254.88075000000003
20
56.625
42
0.41421356237309503
0
LWPOLYLINE
5
125
100
AcDbEntity
8
0
100
AcDbPolyline
90
8
70
1
43
0.0
10
-273.75675000000001
20
56.625000000000007
10
-278.75675000000001
20
56.625000000000007
42
0.41421356237309503
10
-279.75675000000001
20
55.625
10
-279.75675000000001
20
41.625000000000007
42
0.41421356237309503
10
-278.75675000000001
20
40.625
10
-273.75675000000001
20
40.625000000000007
42
0.41421356237309503
10
-272.75675000000001
20
41.625000000000007
10
-272.75675000000001
20
55.625
42
0.41421356237309503
0
LWPOLYLINE
5
126
100
AcDbEntity
8
0
100
AcDbPolyline
90
8
70
1
43
0.0
10
-271.31875000000002
20
53.625000000000007
10
-271.31875000000002
20
41.625000000000007
42
0.41421356237309503
10
-270.31875000000002
20
40.625
10
-258.31875000000002
20
40.625000000000007
42
0.41421356237309503
10
-257.31875000000002
20
41.625000000000007
10
-257.31875000000002
20
53.625000000000007
42
0.41421356237309503
10
-258.31875000000002
20
54.625
10
-270.31875000000002
20
54.625
42
0.41421356237309503
0
LWPOLYLINE
5
127
100
AcDbEntity
8
0
100
AcDbPolyline
90
8
70
1
43
0.0
10
-239.36250000000001
20
40.625
10
-227.36250000000001
20
40.625
42
0.41421356237309503
10
-226.36250000000004
20
41.625000000000007
10
-226.36250000000001
20
53.625000000000007
42
0.41421356237309503
10
-227.36250000000001
20
54.625
10
-239.36250000000001
20
54.625
42
0.41421356237309503
10
-240.36250000000001
20
53.625000000000007
10
-240.36250000000001
20
41.625000000000007
42
0.41421356237309503
0
LWPOLYLINE
5
128
100
AcDbEntity
8
0
100
AcDbPolyline
90
8
70
1
43
0.0
10
-220.3125
20
40.625
10
-208.3125
20
40.625
42
0.41421356237309503
10
-207.31250000000003
20
41.625000000000007
10
-207.3125
20
53.625000000000007
42
0.41421356237309503
10
-208.3125
20
54.625
10
-220.3125
20
54.625
42
0.41421356237309503
10
-221.3125
20
53.625000000000007
10
-221.3125
20
41.625000000000007
42
0.41421356237309503
0
LWPOLYLINE
5
129
100
AcDbEntity
8
0
100
AcDbPolyline
90
8
70
1
43
0.0
10
-201.26249999999999
20
40.625
10
-189.26249999999999
20
40.625
42
0.41421356237309503
10
-188.26249999999999
20
41.625000000000007
10
-188.26249999999999
20
53.625000000000007
42
0.41421356237309503
10
-189.26249999999999
20
54.625
10
-201.26249999999999
20
54.625
42
0.41421356237309503
10
-202.26249999999999
20
53.625000000000007
10
-202.26249999999999
20
41.625000000000007
42
0.41421356237309503
0
LWPOLYLINE
5
130
100
AcDbEntity
8
0
100
AcDbPolyline
90
8
70
1
43
0.0
10
-182.21250000000001
20
40.625
10
-170.21250000000003
20
40.625
42
0.41421356237309503
10
-169.21250000000001
20
41.625000000000007
10
-169.21250000000001
20
53.625000000000007
42
0.41421356237309503
10
-170.21250000000003
20
54.625
10
-182.21250000000001
20
54.625
42
0.41421356237309503
10
-183.21250000000003
20
53.625000000000007
10
-183.21250000000003
20
41.625000000000007
42
0.41421356237309503
0
LWPOLYLINE
5
131
100
AcDbEntity
8
0
100
AcDbPolyline
90
8
70
1
43
0.0
10
-172.6875
20
59.675000000000004
10
-160.6875
20
59.675000000000004
42
0.41421356237309503
10
-159.6875
20
60.674999999999997
10
-159.68750000000003
20
72.674999999999997
42
0.41421356237309503
10
-160.6875
20
73.674999999999997
10
-172.6875
20
73.674999999999997
42
0.41421356237309503
10
-173.68750000000003
20
72.674999999999997
10
-173.68750000000003
20
60.674999999999997
42
0.41421356237309503
0
LWPOLYLINE
5
132
100
AcDbEntity
8
0
100
AcDbPolyline
90
8
70
1
43
0.0
10
-144.11250000000001
20
40.625
10
-132.11250000000001
20
40.625
42
0.41421356237309503
10
-131.11250000000001
20
41.625000000000007
10
-131.11250000000001
20
53.625000000000007
42
0.41421356237309503
10
-132.11250000000001
20
54.625
10
-144.11250000000001
20
54.625
42
0.41421356237309503
10
-145.11250000000001
20
53.625000000000007
10
-145.11250000000001
20
41.625000000000007
42
0.41421356237309503
0
LWPOLYLINE
5
133
100
AcDbEntity
8
0
100
AcDbPolyline
90
8
70
1
43
0.0
10
-125.06250000000001
20
40.625
10
-113.0625
20
40.625
42
0.41421356237309503
10
-112.0625
20
41.625000000000007
10
-112.0625
20
53.625000000000007
42
0.41421356237309503
10
-113.0625
20
54.625
10
-125.06250000000001
20
54.625
42
0.41421356237309503
10
-126.06250000000001
20
53.625000000000007
10
-126.06250000000001
20
41.625000000000007
42
0.41421356237309503
0
LWPOLYLINE
5
134
100
AcDbEntity
8
0
100
AcDbPolyline
90
8
70
1
43
0.0
10
-106.0125
20
40.625
10
-94.012500000000017
20
40.625
42
0.41421356237309503
10
-93.012500000000017
20
41.625000000000007
10
-93.012500000000017
20
53.625000000000007
42
0.41421356237309503
10
-94.012500000000017
20
54.625
10
-106.0125
20
54.625
42
0.41421356237309503
10
-107.01250000000002
20
53.625000000000007
10
-107.0125
20
41.625000000000007
42
0.41421356237309503
0
LWPOLYLINE
5
135
100
AcDbEntity
8
0
100
AcDbPolyline
90
8
70
1
43
0.0
10
-86.962500000000006
20
40.625
10
-74.962500000000006
20
40.625
42
0.41421356237309503
10
-73.962500000000006
20
41.625000000000007
10
-73.962500000000006
20
53.625000000000007
42
0.41421356237309503
10
-74.962500000000006
20
54.625
10
-86.962500000000006
20
54.625
42
0.41421356237309503
10
-87.962500000000006
20
53.625000000000007
10
-87.962500000000006
20
41.625000000000007
42
0.41421356237309503
0
LWPOLYLINE
5
136
100
AcDbEntity
8
0
100
AcDbPolyline
90
8
70
1
43
0.0
10
-48.862500000000004
20
40.625
10
-36.862499999999997
20
40.625
42
0.41421356237309503
10
-35.862499999999997
20
41.625000000000007
10
-35.862499999999997
20
53.625000000000007
42
0.41421356237309503
10
-36.862499999999997
20
54.625
10
-48.862500000000004
20
54.625
42
0.41421356237309503
10
-49.862499999999997
20
53.625000000000007
10
-49.862499999999997
20
41.625000000000007
42
0.41421356237309503
0
LWPOLYLINE
5
137
100
AcDbEntity
8
0
100
AcDbPolyline
90
8
70
1
43
0.0
10
-5.9062500000000302
20
54.625
10
-22.668750000000003
20
54.625
42
0.41421356237309503
10
-23.668749999999999
20
53.625000000000007
10
-23.668750000000003
20
41.625000000000007
42
0.41421356237309503
10
-22.668750000000003
20
40.625
10
-5.9062500000000302
20
40.625000000000007
42
0.41421356237309503
10
-4.9062500000000302
20
41.625000000000007
10
-4.9062500000000311
20
53.625000000000007
42
0.41421356237309503
0
LWPOLYLINE
5
138
100
AcDbEntity
8
0
100
AcDbPolyline
90
8
70
1
43
0.0
10
-21.287500000000001
20
34.575000000000003
10
-21.287500000000001
20
22.574999999999999
42
0.41421356237309503
10
-20.287500000000001
20
21.575000000000003
10
-8.2874999999999908
20
21.574999999999996
42
0.41421356237309503
10
-7.2874999999999996
20
22.574999999999999
10
-7.2874999999999908
20
34.575000000000003
42
0.4142135623730947
10
-8.2874999999999908
20
35.575000000000003
10
-20.287500000000001
20
35.575000000000003
42
0.41421356237309503
0
LWPOLYLINE
5
139
100
AcDbEntity
8
0
100
AcDbPolyline
90
8
70
1
43
0.0
10
-63.150000000000006
20
21.575000000000003
10
-51.150000000000006
20
21.575000000000003
42
0.41421356237309503
10
-50.150000000000006
20
22.574999999999999
10
-50.150000000000006
20
34.575000000000003
42
0.41421356237309503
10
-51.150000000000006
20
35.575000000000003
10
-63.150000000000006
20
35.575000000000003
42
0.41421356237309503
10
-64.150000000000006
20
34.575000000000003
10
-64.150000000000006
20
22.574999999999999
42
0.41421356237309503
0
LWPOLYLINE
5
140
100
AcDbEntity
8
0
100
AcDbPolyline
90
8
70
1
43
0.0
10
-44.100000000000001
20
21.575000000000003
10
-32.100000000000001
20
21.575000000000003
42
0.41421356237309503
10
-31.100000000000001
20
22.574999999999999
10
-31.100000000000001
20
34.575000000000003
42
0.41421356237309503
10
-32.100000000000001
20
35.575000000000003
10
-44.100000000000001
20
35.575000000000003
42
0.41421356237309503
10
-45.100000000000009
20
34.575000000000003
10
-45.099999999999994
20
22.574999999999999
42
0.41421356237309503
0
LWPOLYLINE
5
141
100
AcDbEntity
8
0
100
AcDbPolyline
90
8
70
1
43
0.0
10
-67.912499999999994
20
40.625
10
-55.912500000000009
20
40.625
42
0.41421356237309503
10
-54.912500000000009
20
41.625000000000007
10
-54.912500000000009
20
53.625000000000007
42
0.41421356237309503
10
-55.912500000000009
20
54.625
10
-67.912499999999994
20
54.625
42
0.41421356237309503
10
-68.912499999999994
20
53.625000000000007
10
-68.912499999999994
20
41.625000000000007
42
0.41421356237309503
0
LWPOLYLINE
5
142
100
AcDbEntity
8
0
100
AcDbPolyline
90
8
70
1
43
0.0
10
-82.200000000000003
20
21.575000000000003
10
-70.200000000000003
20
21.575000000000003
42
0.41421356237309503
10
-69.200000000000003
20
22.574999999999999
10
-69.200000000000003
20
34.575000000000003
42
0.41421356237309503
10
-70.200000000000003
20
35.575000000000003
10
-82.200000000000003
20
35.575000000000003
42
0.41421356237309503
10
-83.200000000000003
20
34.575000000000003
10
-83.200000000000003
20
22.574999999999999
42
0.41421356237309503
0
LWPOLYLINE
5
143
100
AcDbEntity
8
0
100
AcDbPolyline
90
8
70
1
43
0.0
10
-101.25
20
21.575000000000003
10
-89.25
20
21.575000000000003
42
0.41421356237309503
10
-88.250000000000014
20
22.574999999999999
10
-88.250000000000014
20
34.575000000000003
42
0.41421356237309503
10
-89.25
20
35.575000000000003
10
-101.25
20
35.575000000000003
42
0.41421356237309503
10
-102.25000000000001
20
34.575000000000003
10
-102.25
20
22.574999999999999
42
0.41421356237309503
0
LWPOLYLINE
5
144
100
AcDbEntity
8
0
100
AcDbPolyline
90
8
70
1
43
0.0
10
-120.30000000000001
20
21.575000000000003
10
-108.3
20
21.575000000000003
42
0.41421356237309503
10
-107.30000000000001
20
22.574999999999999
10
-107.30000000000001
20
34.575000000000003
42
0.41421356237309503
10
-108.3
20
35.575000000000003
10
-120.30000000000001
20
35.575000000000003
42
0.41421356237309503
10
-121.30000000000001
20
34.575000000000003
10
-121.30000000000001
20
22.574999999999999
42
0.41421356237309503
0
LWPOLYLINE
5
145
100
AcDbEntity
8
0
100
AcDbPolyline
90
8
70
1
43
0.0
10
-139.34999999999999
20
21.575000000000003
10
-127.34999999999999
20
21.575000000000003
42
0.41421356237309503
10
-126.34999999999999
20
22.574999999999999
10
-126.34999999999999
20
34.575000000000003
42
0.41421356237309503
10
-127.34999999999999
20
35.575000000000003
10
-139.34999999999999
20
35.575000000000003
42
0.41421356237309503
10
-140.34999999999999
20
34.575000000000003
10
-140.34999999999999
20
22.574999999999999
42
0.41421356237309503
0
LWPOLYLINE
5
146
100
AcDbEntity
8
0
100
AcDbPolyline
90
8
70
1
43
0.0
10
-158.40000000000001
20
21.575000000000003
10
-146.40000000000001
20
21.575000000000003
42
0.41421356237309503
10
-145.40000000000001
20
22.574999999999999
10
-145.40000000000001
20
34.575000000000003
42
0.41421356237309503
10
-146.40000000000001
20
35.575000000000003
10
-158.40000000000001
20
35.575000000000003
42
0.41421356237309503
10
-159.40000000000001
20
34.575000000000003
10
-159.40000000000001
20
22.574999999999999
42
0.41421356237309503
0
LWPOLYLINE
5
147
100
AcDbEntity
8
0
100
AcDbPolyline
90
8
70
1
43
0.0
10
-163.16249999999999
20
40.625
10
-151.16250000000002
20
40.625
42
0.41421356237309503
10
-150.16249999999999
20
41.625000000000007
10
-150.16250000000002
20
53.625000000000007
42
0.41421356237309503
10
-151.16250000000002
20
54.625
10
-163.16249999999999
20
54.625
42
0.41421356237309503
10
-164.16250000000002
20
53.625000000000007
10
-164.16250000000002
20
41.625000000000007
42
0.41421356237309503
0
LWPOLYLINE
5
148
100
AcDbEntity
8
0
100
AcDbPolyline
90
8
70
1
43
0.0
10
-177.45000000000002
20
21.575000000000003
10
-165.44999999999999
20
21.575000000000003
42
0.41421356237309503
10
-164.44999999999999
20
22.574999999999999
10
-164.44999999999996
20
34.575000000000003
42
0.41421356237309503
10
-165.44999999999999
20
35.575000000000003
10
-177.45000000000002
20
35.575000000000003
42
0.41421356237309503
10
-178.44999999999999
20
34.575000000000003
10
-178.45000000000002
20
22.574999999999999
42
0.41421356237309503
0
LWPOLYLINE
5
149
100
AcDbEntity
8
0
100
AcDbPolyline
90
8
70
1
43
0.0
10
-196.50000000000003
20
21.575000000000003
10
-184.5
20
21.575000000000003
42
0.41421356237309503
10
-183.5
20
22.574999999999999
10
-183.49999999999997
20
34.575000000000003
42
0.41421356237309503
10
-184.5
20
35.575000000000003
10
-196.50000000000003
20
35.575000000000003
42
0.41421356237309503
10
-197.5
20
34.575000000000003
10
-197.50000000000003
20
22.574999999999999
42
0.41421356237309503
0
LWPOLYLINE
5
150
100
AcDbEntity
8
0
100
AcDbPolyline
90
8
70
1
43
0.0
10
-215.55000000000004
20
21.575000000000003
10
-203.55000000000004
20
21.575000000000003
42
0.41421356237309503
10
-202.55000000000001
20
22.574999999999999
10
-202.55000000000001
20
34.575000000000003
42
0.41421356237309503
10
-203.55000000000004
20
35.575000000000003
10
-215.55000000000004
20
35.575000000000003
42
0.41421356237309503
10
-216.55000000000001
20
34.575000000000003
10
-216.55000000000004
20
22.574999999999999
42
0.41421356237309503
0
LWPOLYLINE
5
151
100
AcDbEntity
8
0
100
AcDbPolyline
90
8
70
1
43
0.0
10
-234.60000000000002
20
21.575000000000003
10
-222.60000000000002
20
21.575000000000003
42
0.41421356237309503
10
-221.59999999999999
20
22.574999999999999
10
-221.59999999999999
20
34.575000000000003
42
0.41421356237309503
10
-222.60000000000002
20
35.575000000000003
10
-234.60000000000002
20
35.575000000000003
42
0.41421356237309503
10
-235.60000000000002
20
34.575000000000003
10
-235.60000000000002
20
22.574999999999999
42
0.41421356237309503
0
LWPOLYLINE
5
152
100
AcDbEntity
8
0
100
AcDbPolyline
90
8
70
1
43
0.0
10
-253.65000000000003
20
21.575000000000003
10
-241.65000000000003
20
21.575000000000003
42
0.41421356237309503
10
-240.65000000000001
20
22.574999999999999
10
-240.65000000000001
20
34.575000000000003
42
0.41421356237309503
10
-241.65000000000003
20
35.575000000000003
10
-253.65000000000003
20
35.575000000000003
42
0.41421356237309503
10
-254.65000000000003
20
34.575000000000003
10
-254.65000000000003
20
22.574999999999999
42
0.41421356237309503
0
LWPOLYLINE
5
153
100
AcDbEntity
8
0
100
AcDbPolyline
90
8
70
1
43
0.0
10
-278.46249999999998
20
34.575000000000003
10
-278.46249999999998
20
22.574999999999999
42
0.41421356237309503
10
-277.46249999999998
20
21.575000000000003
10
-265.46249999999998
20
21.574999999999996
42
0.41421356237309503
10
-264.46249999999998
20
22.574999999999999
10
-264.46249999999998
20
34.575000000000003
42
0.41421356237309503
10
-265.46249999999998
20
35.575000000000003
10
-277.46249999999998
20
35.575000000000003
42
0.41421356237309503
0
LWPOLYLINE
5
154
100
AcDbEntity
8
0
100
AcDbPolyline
90
20
70
1
43
0.0
10
-250.71850000000006
20
16.41472341207815
42
-0.28126864662392093
10
-251.26200000000006
20
17.304446824156305
10
-251.262
20
17.524999999999999
42
0.41421356237309503
10
-252.26200000000003
20
18.524999999999999
10
-257.262
20
18.524999999999999
42
0.41421356237309503
10
-258.26199999999994
20
17.524999999999999
42
-0.41421356237310542
10
-259.262
20
16.524999999999999
10
-274.13799999999998
20
16.52500000000002
42
-0.41421356237307422
10
-275.13799999999998
20
17.524999999999999
42
0.41421356237309503
10
-276.13799999999998
20
18.524999999999999
10
-281.13799999999998
20
18.524999999999999
42
0.41421356237309503
10
-282.13799999999998
20
17.524999999999999
10
-282.13800000000003
20
17.304446824156301
42
-0.28126864662394824
10
-282.68150000000003
20
16.414723412078168
42
0.28126864662394446
10
-283.22500000000002
20
15.525000000000002
10
-283.22500000000002
20
3.5250000000000004
42
0.41421356237309503
10
-282.22500000000002
20
2.5249999999999999
10
-251.17500000000004
20
2.5250000000000004
42
0.41421356237309503
10
-250.17500000000001
20
3.5250000000000004
10
-250.17500000000001
20
15.525000000000002
42
0.2812686466239423
0
LWPOLYLINE
5
155
100
AcDbEntity
8
0
100
AcDbPolyline
90
8
70
1
43
0.0
10
-244.125
20
2.5249999999999999
10
-232.12500000000003
20
2.5249999999999999
42
0.41421356237309503
10
-231.125
20
3.5250000000000004
10
-231.125
20
15.525000000000002
42
0.41421356237309503
10
-232.12500000000003
20
16.524999999999999
10
-244.125
20
16.525000000000002
42
0.41421356237309503
10
-245.12500000000003
20
15.525000000000002
10
-245.12500000000003
20
3.5250000000000004
42
0.41421356237309503
0
LWPOLYLINE
5
156
100
AcDbEntity
8
0
100
AcDbPolyline
90
8
70
1
43
0.0
10
-225.07499999999999
20
2.5249999999999999
10
-213.07500000000002
20
2.5249999999999999
42
0.41421356237309503
10
-212.07499999999999
20
3.5250000000000004
10
-212.07499999999999
20
15.525000000000002
42
0.41421356237309503
10
-213.07500000000002
20
16.524999999999999
10
-225.07499999999999
20
16.525000000000002
42
0.41421356237309503
10
-226.07500000000002
20
15.525000000000002
10
-226.07500000000002
20
3.5250000000000004
42
0.41421356237309503
0
LWPOLYLINE
5
157
100
AcDbEntity
8
0
100
AcDbPolyline
90
8
70
1
43
0.0
10
-206.02500000000003
20
2.5249999999999999
10
-194.02500000000003
20
2.5249999999999999
42
0.41421356237309503
10
-193.02500000000003
20
3.5250000000000004
10
-193.02500000000003
20
15.525000000000002
42
0.41421356237309503
10
-194.02500000000003
20
16.524999999999999
10
-206.02500000000003
20
16.525000000000002
42
0.41421356237309503
10
-207.02500000000001
20
15.525000000000002
10
-207.02500000000003
20
3.5250000000000004
42
0.41421356237309503
0
LWPOLYLINE
5
158
100
AcDbEntity
8
0
100
AcDbPolyline
90
8
70
1
43
0.0
10
-186.97500000000002
20
2.5249999999999999
10
-174.97499999999999
20
2.5249999999999999
42
0.41421356237309503
10
-173.97500000000002
20
3.5250000000000004
10
-173.97499999999997
20
15.525000000000002
42
0.41421356237309503
10
-174.97499999999999
20
16.524999999999999
10
-186.97500000000002
20
16.525000000000002
42
0.41421356237309503
10
-187.97499999999999
20
15.525000000000002
10
-187.97500000000002
20
3.5250000000000004
42
0.41421356237309503
0
LWPOLYLINE
5
159
100
AcDbEntity
8
0
100
AcDbPolyline
90
8
70
1
43
0.0
10
-167.92500000000001
20
2.5249999999999999
10
-155.92500000000001
20
2.5249999999999999
42
0.41421356237309503
10
-154.92500000000001
20
3.5250000000000004
10
-154.92500000000001
20
15.525000000000002
42
0.41421356237309503
10
-155.92500000000001
20
16.524999999999999
10
-167.92500000000001
20
16.525000000000002
42
0.41421356237309503
10
-168.92500000000001
20
15.525000000000002
10
-168.92500000000001
20
3.5250000000000004
42
0.41421356237309503
0
LWPOLYLINE
5
160
100
AcDbEntity
8
0
100
AcDbPolyline
90
8
70
1
43
0.0
10
-148.875
20
2.5249999999999999
10
-136.875
20
2.5249999999999999
42
0.41421356237309503
10
-135.875
20
3.5250000000000004
10
-135.875
20
15.525000000000002
42
0.41421356237309503
10
-136.875
20
16.524999999999999
10
-148.875
20
16.525000000000002
42
0.41421356237309503
10
-149.875
20
15.525000000000002
10
-149.875
20
3.5250000000000004
42
0.41421356237309503
0
LWPOLYLINE
5
161
100
AcDbEntity
8
0
100
AcDbPolyline
90
8
70
1
43
0.0
10
-129.82499999999999
20
2.5249999999999999
10
-117.825
20
2.5249999999999999
42
0.41421356237309503
10
-116.82500000000002
20
3.5250000000000004
10
-116.82500000000002
20
15.525000000000002
42
0.41421356237309503
10
-117.825
20
16.524999999999999
10
-129.82499999999999
20
16.525000000000002
42
0.41421356237309503
10
-130.82499999999999
20
15.525000000000002
10
-130.82499999999999
20
3.5250000000000004
42
0.41421356237309503
0
LWPOLYLINE
5
162
100
AcDbEntity
8
0
100
AcDbPolyline
90
8
70
1
43
0.0
10
-110.77500000000001
20
2.5249999999999999
10
-98.775000000000006
20
2.5249999999999999
42
0.41421356237309503
10
-97.77500000000002
20
3.5250000000000004
10
-97.77500000000002
20
15.525000000000002
42
0.41421356237309503
10
-98.775000000000006
20
16.524999999999999
10
-110.77500000000001
20
16.525000000000002
42
0.41421356237309503
10
-111.77500000000002
20
15.525000000000002
10
-111.77500000000001
20
3.5250000000000004
42
0.41421356237309503
0
LWPOLYLINE
5
163
100
AcDbEntity
8
0
100
AcDbPolyline
90
8
70
1
43
0.0
10
-91.724999999999994
20
2.5249999999999999
10
-79.724999999999994
20
2.5249999999999999
42
0.41421356237309503
10
-78.724999999999994
20
3.5250000000000004
10
-78.725000000000009
20
15.525000000000002
42
0.41421356237309503
10
-79.724999999999994
20
16.524999999999999
10
-91.724999999999994
20
16.525000000000002
42
0.41421356237309503
10
-92.724999999999994
20
15.525000000000002
10
-92.724999999999994
20
3.5250000000000004
42
0.41421356237309503
0
LWPOLYLINE
5
164
100
AcDbEntity
8
0
100
AcDbPolyline
90
8
70
1
43
0.0
10
-72.674999999999997
20
2.5249999999999999
10
-60.674999999999997
20
2.5249999999999999
42
0.41421356237309503
10
-59.675000000000004
20
3.5250000000000004
10
-59.675000000000004
20
15.525000000000002
42
0.41421356237309503
10
-60.674999999999997
20
16.524999999999999
10
-72.674999999999997
20
16.525000000000002
42
0.41421356237309503
10
-73.674999999999997
20
15.525000000000002
10
-73.674999999999997
20
3.5250000000000004
42
0.41421356237309503
0
LWPOLYLINE
5
165
100
AcDbEntity
8
0
100
AcDbPolyline
90
8
70
1
43
0.0
10
-53.625000000000007
20
2.5249999999999999
10
-41.625000000000007
20
2.5249999999999999
42
0.41421356237309503
10
-40.625
20
3.5250000000000004
10
-40.625000000000007
20
15.525000000000002
42
0.41421356237309503
10
-41.625000000000007
20
16.524999999999999
10
-53.625000000000007
20
16.525000000000002
42
0.41421356237309503
10
-54.625
20
15.525000000000002
10
-54.625
20
3.5250000000000004
42
0.41421356237309503
0
LWPOLYLINE
5
166
100
AcDbEntity
8
0
100
AcDbPolyline
90
8
70
1
43
0.0
10
-34.575000000000003
20
2.5249999999999999
10
-22.574999999999999
20
2.5249999999999999
42
0.41421356237309503
10
-21.575000000000003
20
3.5250000000000004
10
-21.574999999999996
20
15.525000000000002
42
0.41421356237309503
10
-22.574999999999999
20
16.524999999999999
10
-34.575000000000003
20
16.525000000000002
42
0.41421356237309503
10
-35.575000000000003
20
15.525000000000002
10
-35.575000000000003
20
3.5250000000000004
42
0.41421356237309503
0
LWPOLYLINE
5
167
100
AcDbEntity
8
0
100
AcDbPolyline
90
8
70
1
43
0.0
10
-15.525000000000002
20
2.5249999999999999
10
-3.5250000000000004
20
2.5249999999999999
42
0.41421356237309503
10
-2.5249999999999999
20
3.5250000000000004
10
-2.5249999999999999
20
15.525000000000002
42
0.41421356237309503
10
-3.5250000000000004
20
16.524999999999999
10
-15.525000000000002
20
16.525000000000002
42
0.41421356237309503
10
-16.524999999999999
20
15.525000000000002
10
-16.525000000000002
20
3.5250000000000004
42
0.41421356237309503
0
ENDSEC
0
SECTION
2
OBJECTS
0
DICTIONARY
5
C
100
AcDbDictionary
3
ACAD_GROUP
350
D
3
ACAD_MLINESTYLE
350
17
0
DICTIONARY
5
D
100
AcDbDictionary
0
DICTIONARY
5
1A
330
C
100
AcDbDictionary
0
DICTIONARY
5
17
100
AcDbDictionary
0
ENDSEC
0
EOF
