0
SECTION
2
HEADER
9
$INSUNITS
70
4
9
$ACADVER
1
AC1014
9
$HANDSEED
5
FFFF
0
ENDSEC
0
SECTION
2
TABLES
0
TABLE
2
VPORT
5
8
100
AcDbSymbolTable
0
ENDTAB
0
TABLE
2
LTYPE
5
5
100
AcDbSymbolTable
0
LTYPE
5
14
100
AcDbSymbolTableRecord
100
AcDbLinetypeTableRecord
2
BYBLOCK
70
0
0
LTYPE
5
15
100
AcDbSymbolTableRecord
100
AcDbLinetypeTableRecord
2
BYLAYER
70
0
0
ENDTAB
0
TABLE
2
LAYER
5
2
100
AcDbSymbolTable
70
2
0
LAYER
5
50
100
AcDbSymbolTableRecord
100
AcDbLayerTableRecord
2
0
70
0
6
CONTINUOUS
0
ENDTAB
0
TABLE
2
STYLE
5
3
100
AcDbSymbolTable
70
1
0
STYLE
5
11
100
AcDbSymbolTableRecord
100
AcDbTextStyleTableRecord
2
STANDARD
70
0
0
ENDTAB
0
TABLE
2
VIEW
5
6
100
AcDbSymbolTable
70
0
0
ENDTAB
0
TABLE
2
UCS
5
7
100
AcDbSymbolTable
70
0
0
ENDTAB
0
TABLE
2
APPID
5
9
100
AcDbSymbolTable
70
2
0
APPID
5
12
100
AcDbSymbolTableRecord
100
AcDbRegAppTableRecord
2
ACAD
70
0
0
ENDTAB
0
TABLE
2
DIMSTYLE
5
A
100
AcDbSymbolTable
70
1
0
ENDTAB
0
TABLE
2
BLOCK_RECORD
5
1
100
AcDbSymbolTable
70
1
0
BLOCK_RECORD
5
1F
100
AcDbSymbolTableRecord
100
AcDbBlockTableRecord
2
*MODEL_SPACE
0
BLOCK_RECORD
5
1B
100
AcDbSymbolTableRecord
100
AcDbBlockTableRecord
2
*PAPER_SPACE
0
ENDTAB
0
ENDSEC
0
SECTION
2
BLOCKS
0
BLOCK
5
20
100
AcDbEntity
100
AcDbBlockBegin
2
*MODEL_SPACE
0
ENDBLK
5
21
100
AcDbEntity
100
AcDbBlockEnd
0
BLOCK
5
1C
100
AcDbEntity
100
AcDbBlockBegin
2
*PAPER_SPACE
0
ENDBLK
5
1D
100
AcDbEntity
100
AcDbBlockEnd
0
ENDSEC
0
SECTION
2
ENTITIES
0
LWPOLYLINE
5
100
100
AcDbEntity
8
0
100
AcDbPolyline
90
4
70
1
43
0.0
10
74.96250000000002
20
-18.112649143184349
10
129.82499999999979
20
-18.112649143184779
42
-0.99999999999999989
10
129.8250000000001
20
-20.112649143184775
10
74.962500000000048
20
-20.112649143184328
42
-0.99999999999999989
0
LWPOLYLINE
5
101
100
AcDbEntity
8
0
100
AcDbPolyline
90
4
70
1
43
0.0
10
186.97500000000002
20
-20.112649143184772
10
172.97499999999997
20
-20.112649143184804
42
-0.99999999999999989
10
172.97499999999997
20
-18.112649143184797
10
186.97500000000002
20
-18.112649143184786
42
-0.99999999999999989
0
LWPOLYLINE
5
102
100
AcDbEntity
8
0
100
AcDbPolyline
90
4
70
1
43
0.0
10
135.02144660940675
20
-18.1126491431848
42
0.99999999999999989
10
135.02144660940669
20
-20.112649143184797
10
167.92499999999995
20
-20.112649143184811
42
0.99999999999999989
10
167.92499999999995
20
-18.1126491431848
0
LWPOLYLINE
5
103
100
AcDbEntity
8
0
100
AcDbPolyline
90
40
70
1
43
0.0
10
79.231750000000062
20
-55.770381983299359
42
-0.41421356237309503
10
79.731750000000062
20
-56.270381983299352
10
79.731750000000105
20
-59.270381983299323
42
0.41421356237312623
10
80.23175000000009
20
-59.770381983299295
10
82.700000000000031
20
-59.770381983299252
42
-0.41421356237310542
10
83.200000000000045
20
-60.270381983299274
10
83.200000000000003
20
-73.286617483079084
42
-0.41421356237311063
10
82.700000000000017
20
-73.786617483079084
10
80.231750000000019
20
-73.786617483079084
42
0.414213562373069
10
79.731750000000034
20
-74.286617483079084
10
79.731750000000034
20
-77.286617483079198
42
-0.41421356237309503
10
79.231750000000034
20
-77.786617483079198
10
73.231750000000034
20
-77.786617483079212
42
-0.41421356237312101
10
72.731750000000034
20
-77.286617483079183
10
72.731750000000034
20
-74.286617483079084
42
0.41421356237309503
10
72.231750000000034
20
-73.786617483079084
10
56.355750000000029
20
-73.786617483079084
42
0.41421356237310025
10
55.855750000000022
20
-74.286617483079084
10
55.855750000000022
20
-77.286617483079198
42
-0.41421356237309503
10
55.355750000000022
20
-77.786617483079198
10
49.355750000000029
20
-77.786617483079183
42
-0.41421356237309503
10
48.855750000000029
20
-77.286617483079183
10
48.85575
20
-74.286617483079084
42
0.41421356237311585
10
48.35575
20
-73.786617483079084
10
48.268750000000004
20
-73.786617483079098
42
-0.41421356237311063
10
47.768749999999997
20
-73.286617483079084
10
47.768749999999983
20
-60.270381983299259
42
-0.4142135623730846
10
48.268750000000011
20
-59.770381983299288
10
48.355750000000043
20
-59.770381983299316
42
0.41421356237311585
10
48.855750000000036
20
-59.270381983299302
10
48.855750000000036
20
-56.270381983299352
42
-0.41421356237309503
10
49.355750000000036
20
-55.770381983299359
10
55.355750000000072
20
-55.770381983299337
42
-0.41421356237308982
10
55.855750000000064
20
-56.270381983299345
10
55.855750000000064
20
-59.270381983299302
42
0.41421356237313667
10
56.355750000000064
20
-59.770381983299295
10
72.231750000000062
20
-59.770381983299316
42
0.41421356237310542
10
72.731750000000062
20
-59.270381983299302
10
72.731750000000062
20
-56.270381983299352
42
-0.41421356237311063
10
73.231750000000062
20
-55.770381983299366
0
LWPOLYLINE
5
104
100
AcDbEntity
8
0
100
AcDbPolyline
90
8
70
1
43
0.0
10
283.22500000000025
20
-58.261617483078965
42
0.056246670272704496
10
283.44786252785997
20
-58.236467365715221
10
284.18326020324685
20
-58.236467365715242
42
0.99999999999999989
10
284.18326020324673
20
-56.236467365715157
10
280.30223253610291
20
-56.236467365715257
42
0.056246670272686677
10
280.07937000824307
20
-56.261617483079
10
240.65000000000023
20
-56.261617483079014
42
0.99999999999999989
10
240.65000000000023
20
-58.261617483079007
0
LWPOLYLINE
5
105
100
AcDbEntity
8
0
100
AcDbPolyline
90
8
70
1
43
0.0
10
207.31250000000003
20
-22.186617483079118
42
-0.41421356237313145
10
207.81250000000003
20
-21.686617483079115
10
220.81250000000011
20
-21.6866174830791
42
-0.41421356237307944
10
221.31250000000009
20
-22.186617483079118
10
221.31250000000009
20
-35.186617483079118
42
-0.41421356237298318
10
220.81250000000011
20
-35.686617483079111
10
207.8125
20
-35.686617483079111
42
-0.41421356237310542
10
207.31250000000003
20
-35.186617483079118
0
LWPOLYLINE
5
106
100
AcDbEntity
8
0
100
AcDbPolyline
90
8
70
1
43
0.0
10
111.27500000000001
20
-40.736617483079101
10
98.275000000000034
20
-40.736617483079122
42
0.41421356237305862
10
97.775000000000034
20
-41.236617483079115
10
97.775000000000034
20
-54.236617483079137
42
0.41421356237308982
10
98.275000000000034
20
-54.736617483079144
10
111.27500000000005
20
-54.736617483079122
42
0.4142135623730846
10
111.77500000000002
20
-54.236617483079137
10
111.77500000000006
20
-41.236617483079115
42
0.41421356237310542
0
LWPOLYLINE
5
107
100
AcDbEntity
8
0
100
AcDbPolyline
90
8
70
1
43
0.0
10
226.36250000000004
20
-22.186617483079118
10
226.36250000000004
20
-35.186617483079118
42
0.41421356237317047
10
226.86250000000004
20
-35.686617483079111
10
239.86250000000013
20
-35.686617483079111
42
0.4142135623730222
10
240.3625000000001
20
-35.186617483079118
10
240.3625000000001
20
-22.186617483079118
42
0.41421356237311585
10
239.8625000000001
20
-21.68661748307909
10
226.86250000000004
20
-21.686617483079122
42
0.41421356237312884
0
LWPOLYLINE
5
108
100
AcDbEntity
8
0
100
AcDbPolyline
90
4
70
1
43
0.0
10
305.49375000000009
20
-72.786617483079127
10
305.49375000000009
20
-60.786617483079119
42
0.99999999999999989
10
303.49375000000009
20
-60.786617483079119
10
303.49375000000009
20
-72.786617483079127
42
0.99999999999999989
0
LWPOLYLINE
5
109
100
AcDbEntity
8
0
100
AcDbPolyline
90
4
70
1
43
0.0
10
279.29999999999995
20
-91.836280047836212
10
279.30000000000007
20
-79.83628004783624
42
0.99999999999999989
10
277.29999999999995
20
-79.836280047836183
10
277.29999999999995
20
-91.836280047836212
42
0.99999999999999989
0
LWPOLYLINE
5
110
100
AcDbEntity
8
0
100
AcDbPolyline
90
8
70
1
43
0.0
10
281.2937500000001
20
-73.786617483079084
10
276.88145753076645
20
-73.786617483079141
42
-0.41421356237307944
10
275.88145753076645
20
-72.786617483079183
10
275.88145753076651
20
-60.786617483079148
42
-0.4142135623730846
10
276.88145753076651
20
-59.786617483079141
10
281.29375000000016
20
-59.786617483079141
42
-0.4142135623730846
10
282.2937500000001
20
-60.786617483079119
10
282.2937500000001
20
-72.786617483079127
42
-0.41421356237311846
0
LWPOLYLINE
5
111
100
AcDbEntity
8
0
100
AcDbPolyline
90
4
70
1
43
0.0
10
67.749999999999901
20
-79.836280047835842
42
-0.99999999999999989
10
69.749999999999929
20
-79.836280047835842
10
69.749999999999915
20
-91.836280047835928
42
-0.99999999999999989
10
67.749999999999901
20
-91.836280047835885
0
LWPOLYLINE
5
112
100
AcDbEntity
8
0
100
AcDbPolyline
90
8
70
1
43
0.0
10
68.750000000000014
20
-35.686617483079132
42
-0.4142135623730937
10
67.750000000000028
20
-34.686617483079118
10
67.750000000000028
20
-22.686617483079115
42
-0.41421356237309631
10
68.750000000000014
20
-21.686617483079118
10
70.980489965469289
20
-21.686617483079136
42
-0.41421356237309631
10
71.980489965469289
20
-22.686617483079146
10
71.980489965469289
20
-34.686617483079146
42
-0.41421356237309115
10
70.980489965469289
20
-35.686617483079132
0
LWPOLYLINE
5
113
100
AcDbEntity
8
0
100
AcDbPolyline
90
4
70
1
43
0.0
10
84.498954188914638
20
-72.681611649360519
42
0.99999999999999989
10
86.498954188914624
20
-72.681611649360576
10
86.498954188914681
20
-61.261396159266504
42
0.99999999999999989
10
84.498954188914652
20
-61.261396159266504
0
LWPOLYLINE
5
114
100
AcDbEntity
8
0
100
AcDbPolyline
90
8
70
1
43
0.0
10
302.72500000000025
20
-35.686617483079118
10
301.86469765696501
20
-35.686617483079146
42
-0.41421356237310675
10
300.86469765696501
20
-34.686617483079125
10
300.86469765696501
20
-22.686617483079129
42
-0.41421356237311846
10
301.86469765696501
20
-21.686617483079118
10
302.72500000000025
20
-21.686617483079111
42
-0.41421356237307555
10
303.72500000000014
20
-22.686617483079129
10
303.72500000000008
20
-34.686617483079118
42
-0.41421356237306772
0
LWPOLYLINE
5
115
100
AcDbEntity
8
0
100
AcDbPolyline
90
4
70
1
43
0.0
10
94.174999999999883
20
-79.836280047835871
10
94.174999999999898
20
-91.836280047835942
42
-0.99999999999999989
10
92.174999999999869
20
-91.836280047835942
10
92.174999999999883
20
-79.836280047835885
42
-0.99999999999999989
0
LWPOLYLINE
5
116
100
AcDbEntity
8
0
100
AcDbPolyline
90
4
70
1
43
0.0
10
256.10000000000002
20
-79.836280047836127
10
256.10000000000002
20
-91.836280047836155
42
-0.99999999999999989
10
254.09999999999999
20
-91.836280047836155
10
254.09999999999999
20
-79.836280047836127
42
-0.99999999999999989
0
LWPOLYLINE
5
117
100
AcDbEntity
8
0
100
AcDbPolyline
90
3
70
1
43
0.0
10
85.483330823882383
20
-57.072474408787357
42
-0.013106469036153425
10
85.484705830095621
20
-57.124873243011045
10
85.483330823882412
20
-57.161953268780508
0
LWPOLYLINE
5
118
100
AcDbEntity
8
0
100
AcDbPolyline
90
4
70
1
43
0.0
10
115.37499999999987
20
-91.83628004783597
10
115.37499999999987
20
-79.836280047835899
42
-0.99999999999999989
10
117.3749999999999
20
-79.836280047835899
10
117.3749999999999
20
-91.83628004783597
42
-0.99999999999999989
0
LWPOLYLINE
5
119
100
AcDbEntity
8
0
100
AcDbPolyline
90
8
70
1
43
0.0
10
66.531750000000017
20
-54.236617483079137
42
-0.41421356237311063
10
66.031750000000017
20
-54.736617483079115
10
48.268750000000011
20
-54.736617483079108
42
-0.41421356237312101
10
47.768749999999997
20
-54.236617483079137
10
47.768749999999997
20
-41.236617483079115
42
-0.41421356237309503
10
48.268750000000011
20
-40.736617483079122
10
66.031750000000002
20
-40.736617483079122
42
-0.41421356237310542
10
66.531750000000031
20
-41.236617483079137
0
LWPOLYLINE
5
120
100
AcDbEntity
8
0
100
AcDbPolyline
90
8
70
1
43
0.0
10
3.0249999999999932
20
-40.736617483079115
42
0.41421356237312495
10
2.5249999999999928
20
-41.236617483079115
10
2.524999999999999
20
-54.236617483079137
42
0.41421356237307455
10
3.0249999999999799
20
-54.736617483079115
10
16.024999999999999
20
-54.736617483079115
42
0.41421356237309764
10
16.525000000000002
20
-54.236617483079137
10
16.525000000000002
20
-41.236617483079115
42
0.41421356237309243
10
16.024999999999988
20
-40.736617483079122
0
LWPOLYLINE
5
121
100
AcDbEntity
8
0
100
AcDbPolyline
90
8
70
1
43
0.0
10
173.97500000000008
20
-41.236617483079115
10
173.97500000000002
20
-54.236617483079137
42
0.41421356237314705
10
174.47500000000005
20
-54.736617483079115
10
187.47499999999999
20
-54.736617483079108
42
0.41421356237303258
10
187.97499999999999
20
-54.236617483079137
10
187.97499999999999
20
-41.236617483079115
42
0.41421356237317308
10
187.47499999999999
20
-40.736617483079137
10
174.47500000000005
20
-40.736617483079101
42
0.4142135623730378
0
LWPOLYLINE
5
122
100
AcDbEntity
8
0
100
AcDbPolyline
90
8
70
1
43
0.0
10
297.51250000000016
20
-35.186617483079118
10
297.51250000000016
20
-22.186617483079118
42
0.41421356237311585
10
297.0125000000001
20
-21.68661748307909
10
284.0125000000001
20
-21.686617483079115
42
0.41421356237313406
10
283.5125000000001
20
-22.186617483079118
10
283.5125000000001
20
-35.186617483079118
42
0.41421356237313145
10
284.0125000000001
20
-35.686617483079111
10
297.01250000000016
20
-35.686617483079111
42
0.4142135623730222
0
LWPOLYLINE
5
123
100
AcDbEntity
8
0
100
AcDbPolyline
90
8
70
1
43
0.0
10
131.1125000000001
20
-35.186617483079118
42
0.41421356237307683
10
131.61250000000007
20
-35.686617483079118
10
144.61250000000004
20
-35.686617483079118
42
0.41421356237306123
10
145.11250000000004
20
-35.186617483079118
10
145.11250000000013
20
-22.186617483079118
42
0.41421356237310542
10
144.61250000000004
20
-21.686617483079104
10
131.61250000000007
20
-21.686617483079115
42
0.41421356237307161
10
131.11250000000007
20
-22.186617483079118
0
LWPOLYLINE
5
124
100
AcDbEntity
8
0
100
AcDbPolyline
90
8
70
1
43
0.0
10
116.82500000000005
20
-41.236617483079115
42
-0.41421356237305862
10
117.32500000000003
20
-40.736617483079122
10
130.32500000000002
20
-40.736617483079129
42
-0.41421356237311585
10
130.82500000000005
20
-41.236617483079115
10
130.82500000000005
20
-54.236617483079137
42
-0.41421356237311585
10
130.32500000000002
20
-54.736617483079115
10
117.32500000000003
20
-54.736617483079144
42
-0.41421356237306384
10
116.82500000000005
20
-54.236617483079137
0
LWPOLYLINE
5
125
100
AcDbEntity
8
0
100
AcDbPolyline
90
16
70
1
43
0.0
10
132.05574999999993
20
-75.836280047835942
10
132.05574999999993
20
-78.336280047835942
42
0.4142135623730534
10
132.55574999999993
20
-78.836280047835942
10
143.66924999999992
20
-78.836280047835942
42
0.41421356237302737
10
144.16924999999995
20
-78.336280047835942
10
144.16924999999995
20
-75.836280047835942
42
-0.4142135623730846
10
144.66924999999998
20
-75.336280047835956
10
155.43174999999994
20
-75.336280047835942
42
-0.41421356237310542
10
155.93174999999997
20
-75.836280047835942
10
155.93174999999997
20
-92.3362800478358
42
-0.41421356237312623
10
155.43174999999994
20
-92.836280047835785
10
120.83124999999988
20
-92.836280047835942
42
-0.41421356237310542
10
120.33124999999991
20
-92.336280047835956
10
120.33124999999998
20
-75.836280047835942
42
-0.41421356237306384
10
120.83124999999994
20
-75.336280047835942
10
131.55574999999993
20
-75.336280047835928
42
-0.41421356237307944
0
LWPOLYLINE
5
126
100
AcDbEntity
8
0
100
AcDbPolyline
90
4
70
1
43
0.0
10
188.26249999999999
20
-39.211617483079095
10
240.36249999999953
20
-39.21161748307901
42
0.99999999999999989
10
240.36249999999961
20
-37.211617483079024
10
188.26249999999999
20
-37.211617483079102
42
0.99999999999999989
0
LWPOLYLINE
5
127
100
AcDbEntity
8
0
100
AcDbPolyline
90
4
70
1
43
0.0
10
283.22500000000014
20
-37.211617483078982
42
-0.99999999999999989
10
283.22500000000014
20
-39.211617483078967
10
245.41250000000019
20
-39.21161748307901
42
-0.99999999999999989
10
245.41250000000014
20
-37.211617483079053
0
LWPOLYLINE
5
128
100
AcDbEntity
8
0
100
AcDbPolyline
90
4
70
1
43
0.0
10
167.68749999999994
20
-22.686617483079146
42
0.99999999999999989
10
165.68749999999997
20
-22.6866174830791
10
165.6875
20
-34.686617483079111
42
0.99999999999999989
10
167.68749999999997
20
-34.686617483079189
0
LWPOLYLINE
5
129
100
AcDbEntity
8
0
100
AcDbPolyline
90
4
70
1
43
0.0
10
191.5
20
-41.736617483079179
42
0.99999999999999989
10
189.50000000000011
20
-41.736617483079158
10
189.50000000000014
20
-53.736617483079087
42
0.99999999999999989
10
191.50000000000009
20
-53.736617483079243
0
LWPOLYLINE
5
130
100
AcDbEntity
8
0
100
AcDbPolyline
90
4
70
1
43
0.0
10
121.3000000000001
20
-58.261617483079178
10
88.250000000000085
20
-58.261617483079178
42
-0.99999999999999989
10
88.250000000000043
20
-56.261617483079185
10
121.3000000000001
20
-56.261617483079185
42
-0.99999999999999989
0
LWPOLYLINE
5
131
100
AcDbEntity
8
0
100
AcDbPolyline
90
4
70
1
43
0.0
10
126.35000000000011
20
-56.261617483079164
42
0.99999999999999989
10
126.35000000000014
20
-58.261617483079178
10
168.92500000000013
20
-58.261617483079121
42
0.99999999999999989
10
168.92500000000013
20
-56.261617483079114
0
LWPOLYLINE
5
132
100
AcDbEntity
8
0
100
AcDbPolyline
90
4
70
1
43
0.0
10
126.06250000000023
20
-39.21161748307911
42
0.99999999999999989
10
126.0624999999999
20
-37.21161748307911
10
73.962500000000006
20
-37.211617483079138
42
0.99999999999999989
10
73.962500000000063
20
-39.211617483079152
0
LWPOLYLINE
5
133
100
AcDbEntity
8
0
100
AcDbPolyline
90
4
70
1
43
0.0
10
243.88750000000002
20
-22.686617483079146
42
0.99999999999999989
10
241.88750000000005
20
-22.686617483079111
10
241.8875000000001
20
-34.686617483079118
42
0.99999999999999989
10
243.88750000000005
20
-34.686617483079189
0
LWPOLYLINE
5
134
100
AcDbEntity
8
0
100
AcDbPolyline
90
4
70
1
43
0.0
10
179.97500000000008
20
-72.786617483079127
10
179.97500000000005
20
-60.786617483079091
42
-0.99999999999999989
10
181.97500000000002
20
-60.786617483079148
10
181.97500000000005
20
-72.786617483079183
42
-0.99999999999999989
0
LWPOLYLINE
5
135
100
AcDbEntity
8
0
100
AcDbPolyline
90
4
70
1
43
0.0
10
170.45000000000005
20
-41.736617483079137
10
170.45000000000016
20
-53.736617483079073
42
0.99999999999999989
10
172.45000000000005
20
-53.736617483079215
10
172.45000000000007
20
-41.736617483079172
42
0.99999999999999989
0
LWPOLYLINE
5
136
100
AcDbEntity
8
0
100
AcDbPolyline
90
4
70
1
43
0.0
10
235.60000000000014
20
-56.26161748307905
42
-0.99999999999999989
10
235.60000000000014
20
-58.261617483079043
10
193.02500000000003
20
-58.261617483079071
42
-0.99999999999999989
10
193.02500000000009
20
-56.261617483079092
0
LWPOLYLINE
5
137
100
AcDbEntity
8
0
100
AcDbPolyline
90
4
70
1
43
0.0
10
183.21250000000006
20
-37.21161748307911
42
-0.99999999999999989
10
183.21250000000006
20
-39.211617483079102
10
169.21250000000003
20
-39.21161748307911
42
-0.99999999999999989
10
169.21250000000003
20
-37.21161748307911
0
LWPOLYLINE
5
138
100
AcDbEntity
8
0
100
AcDbPolyline
90
4
70
1
43
0.0
10
173.97500000000008
20
-56.261617483079142
10
187.97500000000011
20
-56.261617483079114
42
-0.99999999999999989
10
187.97500000000011
20
-58.261617483079121
10
173.97500000000008
20
-58.261617483079135
42
-0.99999999999999989
0
LWPOLYLINE
5
139
100
AcDbEntity
8
0
100
AcDbPolyline
90
4
70
1
43
0.0
10
244.12499999999943
20
-20.112649143184683
10
192.02500000000003
20
-20.112649143184775
42
-0.99999999999999989
10
192.02499999999989
20
-18.112649143184775
10
244.12499999999943
20
-18.112649143184726
42
-0.99999999999999989
0
LWPOLYLINE
5
140
100
AcDbEntity
8
0
100
AcDbPolyline
90
4
70
1
43
0.0
10
184.73749999999998
20
-34.686617483079054
42
0.99999999999999989
10
186.73750000000001
20
-34.686617483079203
10
186.7374999999999
20
-22.6866174830792
42
0.99999999999999989
10
184.73750000000001
20
-22.686617483079111
0
LWPOLYLINE
5
141
100
AcDbEntity
8
0
100
AcDbPolyline
90
4
70
1
43
0.0
10
237.12500000000009
20
-60.786617483079098
10
237.12500000000006
20
-72.786617483079198
42
0.99999999999999989
10
239.12500000000009
20
-72.786617483079198
10
239.12500000000011
20
-60.786617483079226
42
0.99999999999999989
0
LWPOLYLINE
5
142
100
AcDbEntity
8
0
100
AcDbPolyline
90
4
70
1
43
0.0
10
164.16250000000014
20
-39.21161748307911
42
0.99999999999999989
10
164.16250000000014
20
-37.211617483079124
10
131.25894660940682
20
-37.211617483079124
42
0.99999999999999989
10
131.25894660940685
20
-39.21161748307911
0
LWPOLYLINE
5
143
100
AcDbEntity
8
0
100
AcDbPolyline
90
4
70
1
43
0.0
10
124.82500000000003
20
-72.786617483079198
42
-0.99999999999999989
10
122.82500000000012
20
-72.786617483079141
10
122.82500000000005
20
-60.786617483079119
42
-0.99999999999999989
10
124.82500000000003
20
-60.786617483079155
0
LWPOLYLINE
5
144
100
AcDbEntity
8
0
100
AcDbPolyline
90
4
70
1
43
0.0
10
129.58750000000001
20
-22.686617483079171
42
0.99999999999999989
10
127.58750000000005
20
-22.6866174830791
10
127.58750000000005
20
-34.686617483079125
42
0.99999999999999989
10
129.58750000000003
20
-34.686617483079168
0
LWPOLYLINE
5
145
100
AcDbEntity
8
0
100
AcDbPolyline
90
76
70
1
43
0.0
10
288.27500000000009
20
-41.220381983299262
10
288.2750000000002
20
-41.236617483078426
42
-0.41421356237314183
10
287.7750000000002
20
-41.736617483078426
10
285.69075000000117
20
-41.736617483078419
42
0.41421356237310542
10
285.19075000000117
20
-42.23661748307844
10
285.19075000000129
20
-53.236617483078462
42
0.41421356237312623
10
285.69075000000117
20
-53.736617483078433
10
287.7750000000002
20
-53.73661748307849
42
-0.41421356237349044
10
288.27500000000009
20
-54.236617483079137
42
0.41421356237312101
10
288.77500000000009
20
-54.736617483079129
10
291.2432500000001
20
-54.73661748307908
42
-0.41421356237301177
10
291.7432500000001
20
-55.236617483079122
10
291.7432500000001
20
-56.236617483079115
42
0.41421356237316787
10
292.2432500000001
20
-56.736617483079108
10
298.2432500000001
20
-56.736617483079101
42
0.4142135623730378
10
298.7432500000001
20
-56.236617483079115
10
298.7432500000001
20
-55.236617483079122
42
-0.41421356237304302
10
299.2432500000001
20
-54.736617483079115
10
313.68125000000009
20
-54.736617483079129
42
0.41421356237313145
10
314.18125000000009
20
-54.236617483079137
10
314.18125000000009
20
-54.133381983299259
42
-0.4142135623730378
10
314.68125000000009
20
-53.633381983299273
10
315.11925000000008
20
-53.633381983299309
42
-0.41421356237306384
10
315.61925000000008
20
-54.133381983299259
10
315.61925000000008
20
-56.236617483079115
42
0.41421356237314705
10
316.11925000000008
20
-56.736617483079137
10
322.11925000000122
20
-56.73661748307854
42
0.41421356237311585
10
322.61925000000122
20
-56.236617483078533
10
322.61925000000122
20
-54.149617483078501
42
-0.41421356237311063
10
323.11925000000116
20
-53.649617483078529
10
326.20625000000126
20
-53.649617483078487
42
0.4142135623732095
10
326.70625000000121
20
-53.149617483078458
10
326.70625000000024
20
-47.149617483078615
42
0.41421356237332918
10
326.20625000000018
20
-46.649617483078593
10
323.11925000000116
20
-46.649617483078423
42
-0.24789180451632362
10
322.70625000000018
20
-46.431452541222662
10
322.70625000000007
20
-45.695381983299256
42
-0.41421356237312101
10
323.20625000000007
20
-45.195381983299256
42
0.41421356237305862
10
323.70625000000013
20
-44.695381983299278
10
323.7062498861377
20
-31.711280047913132
42
0.41401591122558479
10
323.20625000000018
20
-31.211617483078609
10
321.82499999998817
20
-31.211617483078523
42
-0.41421356237313145
10
321.32499999998805
20
-30.711617483078491
10
321.32499999998805
20
-30.273617483078503
42
-0.41421356237318346
10
321.82499999998817
20
-29.773617483078493
10
326.20625000000018
20
-29.773617483078464
42
0.41421356237314966
10
326.7062500000003
20
-29.2736174830784
10
326.70625000000024
20
-23.2736174830784
42
0.4142135623730222
10
326.20625000000024
20
-22.773617483078429
10
321.82499999998834
20
-22.773617483078382
42
-0.41421356237316009
10
321.32499999998828
20
-22.273617483078372
10
321.32499999998828
20
-22.186617483077381
42
0.41421356237312884
10
320.82499999998834
20
-21.686617483077338
10
307.82500000000016
20
-21.6866174830791
42
0.41421356237310281
10
307.3250000000001
20
-22.186617483079122
10
307.32500000000027
20
-22.349145505406661
42
-0.30377017437227188
10
307.01562500000023
20
-22.811381494242514
42
0.3037701743720575
10
306.70625000000018
20
-23.273617483078372
10
306.70625000000024
20
-29.273617483078567
42
0.30377017437205028
10
307.01562500000028
20
-29.735853471914343
42
-0.30377017437222309
10
307.32500000000027
20
-30.198089460750168
10
307.3250000000001
20
-35.186617483079118
42
0.41421356237310281
10
307.82500000000016
20
-35.686617483079132
10
309.20625000000007
20
-35.686617483079097
42
-0.4142135623730222
10
309.70625000000007
20
-36.186617483079118
10
309.70625000000007
20
-40.236617483079115
42
-0.3412026236571753
10
309.33263001553553
20
-40.720381983299269
10
299.11686998446839
20
-40.720381983299291
42
-0.34120262365864656
10
298.74325000000118
20
-40.236617483078454
10
298.74325000000118
20
-37.236617483078469
42
0.41421356237315748
10
298.24325000000118
20
-36.736617483078497
10
292.24325000000124
20
-36.736617483078426
42
0.41421356237314966
10
291.74325000000118
20
-37.236617483078462
10
291.74325000000118
20
-40.236617483079932
42
-0.34120262365538701
10
291.36963001553971
20
-40.720381983299291
10
288.77500000000009
20
-40.720381983299269
42
0.41421356237313145
0
LWPOLYLINE
5
146
100
AcDbEntity
8
0
100
AcDbPolyline
90
8
70
1
43
0.0
10
87.462499999999878
20
-92.836280047835928
42
0.41421356237314705
10
87.962499999999892
20
-92.336280047835885
10
87.962499999999949
20
-79.336280047835871
42
0.41421356237305862
10
87.46249999999992
20
-78.836280047835942
10
72.081249999999898
20
-78.836280047835857
42
0.41421356237311585
10
71.581249999999898
20
-79.336280047835871
10
71.581249999999855
20
-92.336280047835899
42
0.41421356237304818
10
72.081249999999869
20
-92.836280047835885
0
LWPOLYLINE
5
147
100
AcDbEntity
8
0
100
AcDbPolyline
90
4
70
1
43
0.0
10
286.9874999999999
20
-20.112649143184747
42
0.99999999999999989
10
286.9874999999999
20
-18.112649143184566
10
249.17500000000013
20
-18.112649143184726
42
0.99999999999999989
10
249.17500000000004
20
-20.112649143184697
0
LWPOLYLINE
5
148
100
AcDbEntity
8
0
100
AcDbPolyline
90
8
70
1
43
0.0
10
95.393749999999926
20
-79.336280047835942
10
95.393749999999869
20
-92.336280047835942
42
0.41421356237307422
10
95.893749999999883
20
-92.836280047835942
10
111.27499999999986
20
-92.836280047835942
42
0.41421356237309503
10
111.77499999999988
20
-92.336280047835942
10
111.77499999999995
20
-79.336280047835899
42
0.41421356237304302
10
111.27499999999998
20
-78.83628004783597
10
95.893749999999926
20
-78.836280047835913
42
0.414213562373069
0
LWPOLYLINE
5
149
100
AcDbEntity
8
0
100
AcDbPolyline
90
8
70
1
43
0.0
10
47.768749999999841
20
-92.336280047835828
42
0.41421356237305862
10
48.268749999999862
20
-92.836280047835857
10
63.649999999999885
20
-92.836280047835885
42
0.41421356237307422
10
64.149999999999892
20
-92.336280047835842
10
64.149999999999935
20
-79.336280047835871
42
0.4142135623730534
10
63.649999999999942
20
-78.836280047835899
10
48.268749999999883
20
-78.836280047835857
42
0.41421356237311063
10
47.768749999999898
20
-79.336280047835842
0
CIRCLE
5
150
100
AcDbEntity
8
0
100
AcDbCircle
10
19.08400000000001
20
2.7883825169208887
30
-3.4694469519536142e-17
40
1.5000000000000011
210
0
220
0
230
1
0
CIRCLE
5
151
100
AcDbEntity
8
0
100
AcDbCircle
10
80.996922170629944
20
2.7883825169208887
30
0
40
1.5000000000000111
210
0
220
0
230
1
0
CIRCLE
5
152
100
AcDbEntity
8
0
100
AcDbCircle
10
266.73400000000032
20
2.7883825169208905
30
0
40
1.4999999999999722
210
0
220
0
230
1
0
CIRCLE
5
153
100
AcDbEntity
8
0
100
AcDbCircle
10
266.73400000000032
20
-98.261617483079164
30
1.0755285551056204e-15
40
1.4999999999999858
210
0
220
0
230
1
0
LWPOLYLINE
5
154
100
AcDbEntity
8
0
100
AcDbPolyline
90
8
70
1
43
0.0
10
125.56250000000006
20
-35.686617483079097
42
0.414213562373069
10
126.06250000000004
20
-35.186617483079118
10
126.06250000000004
20
-22.186617483079118
42
0.41421356237304563
10
125.56250000000006
20
-21.686617483079104
10
112.56250000000006
20
-21.686617483079118
42
0.41421356237308982
10
112.06250000000004
20
-22.186617483079118
10
112.06250000000004
20
-35.186617483079118
42
0.41421356237310542
10
112.56250000000007
20
-35.686617483079118
0
LWPOLYLINE
5
155
100
AcDbEntity
8
0
100
AcDbPolyline
90
4
70
1
43
0.0
10
89.250000000000043
20
-75.312999733189216
10
117.44138581690221
20
-75.312999733189258
42
-0.99999999999999989
10
117.44138581690224
20
-77.312999733189244
10
89.250000000000085
20
-77.312999733189272
42
-0.99999999999999989
0
LWPOLYLINE
5
156
100
AcDbEntity
8
0
100
AcDbPolyline
90
8
70
1
43
0.0
10
202.26250000000007
20
-35.186617483079118
10
202.26250000000007
20
-22.186617483079118
42
0.41421356237311585
10
201.76250000000007
20
-21.68661748307909
10
188.76249999999999
20
-21.686617483079115
42
0.41421356237313406
10
188.26249999999999
20
-22.186617483079118
10
188.26249999999999
20
-35.186617483079118
42
0.41421356237313145
10
188.76249999999999
20
-35.686617483079111
10
201.7625000000001
20
-35.686617483079111
42
0.4142135623730222
0
LWPOLYLINE
5
157
100
AcDbEntity
8
0
100
AcDbPolyline
90
8
70
1
43
0.0
10
260.20000000000005
20
-78.836280047836226
42
0.4142135623730222
10
259.70000000000005
20
-79.336280047836141
10
259.69999999999999
20
-92.336280047836183
42
0.41421356237314705
10
260.19999999999999
20
-92.836280047836198
10
275.58124999999995
20
-92.836280047836198
42
0.41421356237313667
10
276.08124999999995
20
-92.336280047836183
10
276.08125000000001
20
-79.336280047836183
42
0.41421356237318868
10
275.58125000000007
20
-78.836280047836183
0
LWPOLYLINE
5
158
100
AcDbEntity
8
0
100
AcDbPolyline
90
6
70
1
43
0.0
10
39.209444444445211
20
-3.8863772299349009
10
39.209444444444458
20
-91.588686073076587
42
0.40650696152229532
10
40.471825993591288
20
-92.836481974177445
10
40.490674004478848
20
-92.836481452600083
42
0.40741708318198583
10
41.753055555555569
20
-91.584643547012647
10
41.753055555555569
20
-3.8863772299773407
42
0.98266573959998826
0
LWPOLYLINE
5
159
100
AcDbEntity
8
0
100
AcDbPolyline
90
40
70
1
43
0.0
10
318.50050000000027
20
-1.4366174830791358
10
324.50050000000027
20
-1.4366174830791927
42
-0.41421356237312362
10
325.00050000000033
20
-1.9366174830791421
10
325.00050000000022
20
-2.1366174830791165
42
0.41421356237327767
10
325.50050000000027
20
-2.636617483079184
10
325.58750000000009
20
-2.636617483079168
42
-0.41421356237303586
10
326.08749999999998
20
-3.1366174830791094
10
326.08750000000009
20
-16.136617483079117
42
-0.41421356237312362
10
325.58750000000009
20
-16.63661748307911
10
325.50049999999999
20
-16.636617483079121
42
0.41421356237319257
10
325.00049999999999
20
-17.136617483079117
10
325.0005000000001
20
-20.136617483079213
42
-0.41421356237326412
10
324.5005000000001
20
-20.636617483079206
10
318.50050000000022
20
-20.636617483079188
42
-0.41421356237312623
10
318.00050000000022
20
-20.136617483079199
10
318.0005000000001
20
-17.136617483079103
42
0.41421356237314316
10
317.5005000000001
20
-16.636617483079103
10
301.62450000000013
20
-16.636617483079107
42
0.41421356237312101
10
301.12450000000013
20
-17.136617483079085
10
301.12450000000018
20
-20.13661748307916
42
-0.41421356237300661
10
300.62450000000018
20
-20.636617483079146
10
294.62450000000018
20
-20.636617483079178
42
-0.41421356237305079
10
294.12450000000024
20
-20.136617483079139
10
294.12450000000013
20
-17.136617483079103
42
0.41421356237314316
10
293.62450000000013
20
-16.636617483079103
10
293.53750000000014
20
-16.636617483079121
42
-0.41421356237313667
10
293.03750000000014
20
-16.136617483079114
10
293.03750000000014
20
-3.1366174830791071
42
-0.41421356237304496
10
293.53750000000014
20
-2.6366174830791089
10
293.6245000000003
20
-2.6366174830791058
42
0.41421356237312623
10
294.1245000000003
20
-2.1366174830791165
10
294.1245000000003
20
-1.9366174830791161
42
-0.41421356237301082
10
294.62450000000035
20
-1.4366174830791172
10
300.62450000000024
20
-1.4366174830791296
42
-0.41421356237310869
10
301.1245000000003
20
-1.9366174830791243
10
301.1245000000003
20
-2.1366174830791165
42
0.41421356237301948
10
301.6245000000003
20
-2.6366174830791462
10
317.50050000000033
20
-2.6366174830791191
42
0.4142135623730715
10
318.00050000000027
20
-2.1366174830791165
10
318.00050000000027
20
-1.9366174830791338
42
-0.41421356237304385
0
LWPOLYLINE
5
160
100
AcDbEntity
8
0
100
AcDbPolyline
90
44
70
1
43
0.0
10
85.796922170629983
20
-95.361617483079129
10
261.93400000000031
20
-95.361617483079115
42
-0.50000000000002076
10
263.37400000000031
20
-97.281617483079131
42
1.3333333333333435
10
270.09400000000045
20
-97.281617483079131
42
-0.50000000000002076
10
271.53400000000039
20
-95.361617483079129
10
323.84700000000021
20
-95.361617483079186
42
-0.49999999999999706
10
325.28700000000021
20
-97.281617483079117
42
1.3333333333333461
10
332.0070000000004
20
-97.281617483079131
42
-0.49999999999997452
10
333.4470000000004
20
-95.361617483079129
10
345.66250000000002
20
-95.361617483079186
42
0.41421356237305601
10
347.66250000000008
20
-93.361617483079144
10
347.66250000000014
20
-2.1116174830791055
42
0.41421356237311535
10
345.66250000000019
20
-0.11161748307914998
10
333.44700000000034
20
-0.11161748307908309
42
-0.49999999999999895
10
332.0070000000004
20
1.808382516920868
42
1.3333333333333217
10
325.28700000000026
20
1.80838251692089
42
-0.49999999999993799
10
323.84700000000032
20
-0.1116174830791089
10
271.53400000000039
20
-0.11161748307909586
42
-0.5000000000000181
10
270.09400000000039
20
1.8083825169208998
42
1.3333333333333308
10
263.37400000000031
20
1.8083825169208831
42
-0.50000000000001743
10
261.93400000000031
20
-0.1116174830791089
10
178.66592217102726
20
-0.1116174830790978
42
-0.50000000000001787
10
177.22592217102729
20
1.8083825169208971
42
1.3333333333333257
10
170.50592217102724
20
1.8083825169208829
42
-0.50000000000001743
10
169.06592217102727
20
-0.1116174830791089
10
85.796922170629969
20
-0.11161748307911584
42
-0.49999999999999789
10
84.356922170629943
20
1.8083825169208965
42
1.3333333333333319
10
77.636922170629944
20
1.808382516920888
42
-0.50000000000000133
10
76.196922170629932
20
-0.11161748307911029
10
23.884000000000011
20
-0.11161748307910974
42
-0.5
10
22.44400000000001
20
1.80838251692089
42
1.3333333333333319
10
15.724000000000018
20
1.8083825169208889
42
-0.49999999999999867
10
14.284000000000013
20
-0.11161748307910974
10
2.0000000000000222
20
-0.11161748307910918
42
0.41421356237309492
10
2.1926904736346842e-14
20
-2.1116174830791046
10
-2.7755575615628914e-15
20
-93.361617483079144
42
0.41421356237309581
10
1.9999999999999951
20
-95.361617483079129
10
14.284000000000026
20
-95.361617483079129
42
-0.49999999999999772
10
15.724000000000027
20
-97.281617483079131
42
1.3333333333333532
10
22.444000000000017
20
-97.281617483079117
42
-0.49999999999999961
10
23.884
20
-95.361617483079129
10
76.196922170629975
20
-95.361617483079129
42
-0.49999999999999956
10
77.636922170629973
20
-97.281617483079131
42
1.3333333333333515
10
84.356922170629929
20
-97.281617483079131
42
-0.50000000000000699
0
LWPOLYLINE
5
161
100
AcDbEntity
8
0
100
AcDbPolyline
90
12
70
1
43
0.0
10
234.65674999999999
20
-92.336280047835487
42
0.4142135623730846
10
235.15675000000002
20
-92.836280047835501
10
251.76875000000001
20
-92.83628004783543
42
0.41421356237310542
10
252.26875000000004
20
-92.336280047835402
10
252.26875000000004
20
-79.336280047835942
42
0.41421356237317308
10
251.76874999999995
20
-78.836280047835871
10
246.88749999999999
20
-78.83628004783597
42
-0.4142135623730378
10
246.38750000000002
20
-78.336280047835942
10
246.38750000000002
20
-75.836280047835956
42
0.4142135623730534
10
245.88749999999993
20
-75.336280047835942
10
235.15674999999999
20
-75.336280047835942
42
0.41421356237309503
10
234.65674999999999
20
-75.836280047835942
0
LWPOLYLINE
5
162
100
AcDbEntity
8
0
100
AcDbPolyline
90
20
70
1
43
0.0
10
189.41300000000001
20
-78.336280047835942
10
189.41299999999998
20
-75.836280047835942
42
-0.41421356237301177
10
189.91299999999995
20
-75.336280047835956
10
198.23074999999989
20
-75.336280047835956
42
-0.41421356237312623
10
198.73074999999989
20
-75.836280047835942
10
198.73074999999989
20
-92.336280047835601
42
-0.41421356237307422
10
198.23074999999989
20
-92.836280047835643
10
162.56874999999994
20
-92.836280047835771
42
-0.4142135623730846
10
162.06874999999994
20
-92.336280047835771
10
162.06874999999997
20
-79.336280047835942
42
-0.4142135623730222
10
162.56874999999994
20
-78.836280047835942
10
162.68749999999994
20
-78.836280047835928
42
0.41421356237310025
10
163.18749999999997
20
-78.336280047835942
10
163.18749999999994
20
-75.836280047835942
42
-0.41421356237316787
10
163.68749999999994
20
-75.336280047835956
10
172.03699999999992
20
-75.336280047835956
42
-0.41421356237312623
10
172.53699999999992
20
-75.836280047835942
10
172.53699999999995
20
-78.336280047835942
42
0.41421356237295454
10
173.03699999999992
20
-78.83628004783597
10
188.91300000000001
20
-78.836280047835942
42
0.41421356237313145
0
LWPOLYLINE
5
163
100
AcDbEntity
8
0
100
AcDbPolyline
90
16
70
1
43
0.0
10
227.83124999999998
20
-78.836280047835899
10
232.71874999999994
20
-78.83628004783597
42
-0.41421356237310025
10
233.21875
20
-79.336280047835942
10
233.21874999999991
20
-92.336280047835487
42
-0.41421356237307422
10
232.71874999999994
20
-92.836280047835501
10
200.66874999999996
20
-92.836280047835587
42
-0.41421356237304302
10
200.16874999999999
20
-92.336280047835629
10
200.16874999999999
20
-79.33628004783597
42
-0.41421356237316787
10
200.66874999999996
20
-78.836280047835942
10
200.78749999999999
20
-78.836280047835942
42
0.41421356237313145
10
201.28749999999999
20
-78.336280047835942
10
201.28749999999997
20
-75.836280047835942
42
-0.41421356237316787
10
201.78749999999997
20
-75.336280047835956
10
226.83124999999995
20
-75.336280047835928
42
-0.4142135623730846
10
227.33125000000001
20
-75.836280047835942
10
227.33125000000001
20
-78.336280047835942
42
0.4142135623730378
0
LWPOLYLINE
5
164
100
AcDbEntity
8
0
100
AcDbPolyline
90
4
70
1
43
0.0
10
275.88145753076651
20
-77.312999733189272
10
255.10000000000005
20
-77.312999733189287
42
-0.99999999999999989
10
255.10000000000005
20
-75.312999733189216
10
275.88145753076651
20
-75.312999733189244
42
-0.99999999999999989
0
LWPOLYLINE
5
165
100
AcDbEntity
8
0
100
AcDbPolyline
90
8
70
1
43
0.0
10
159.40000000000003
20
-73.286617483079084
10
159.40000000000003
20
-60.286617483079119
42
0.41421356237309503
10
158.90000000000003
20
-59.786617483079112
10
145.90000000000006
20
-59.786617483079141
42
0.414213562373069
10
145.40000000000003
20
-60.286617483079119
10
145.40000000000006
20
-73.286617483079084
42
0.41421356237310025
10
145.90000000000006
20
-73.786617483079141
10
158.90000000000003
20
-73.786617483079098
42
0.41421356237310025
0
LWPOLYLINE
5
166
100
AcDbEntity
8
0
100
AcDbPolyline
90
8
70
1
43
0.0
10
76.384282054829796
20
-41.736617483079151
10
76.384282054829782
20
-53.736617483079186
42
-0.41421356237309503
10
75.384282054829782
20
-54.736617483079186
10
72.063953264200762
20
-54.736617483079186
42
-0.41421356237310025
10
71.063953264200762
20
-53.736617483079137
10
71.063953264200777
20
-41.736617483079137
42
-0.41421356237310281
10
72.063953264200762
20
-40.736617483079137
10
75.384282054829796
20
-40.736617483079129
42
-0.41421356237309503
0
LWPOLYLINE
5
167
100
AcDbEntity
8
0
100
AcDbPolyline
90
8
70
1
43
0.0
10
345.1375000000001
20
-35.186617483079118
10
345.13750000000016
20
-22.186617483079118
42
0.41421356237300661
10
344.6375000000001
20
-21.686617483079118
10
331.63750000000016
20
-21.686617483079125
42
0.41421356237314705
10
331.1375000000001
20
-22.186617483079118
10
331.1375000000001
20
-35.186617483079118
42
0.41421356237290252
10
331.63750000000016
20
-35.686617483079097
10
344.6375000000001
20
-35.686617483079061
42
0.41421356237324591
0
LWPOLYLINE
5
168
100
AcDbEntity
8
0
100
AcDbPolyline
90
8
70
1
43
0.0
10
206.52500000000006
20
-54.736617483079108
42
0.41421356237307422
10
207.02500000000009
20
-54.236617483079137
10
207.02500000000009
20
-41.236617483079115
42
0.41421356237317308
10
206.52500000000006
20
-40.736617483079122
10
193.52500000000006
20
-40.736617483079101
42
0.4142135623730378
10
193.02500000000009
20
-41.236617483079115
10
193.02500000000009
20
-54.236617483079137
42
0.41421356237311063
10
193.52500000000006
20
-54.736617483079115
0
LWPOLYLINE
5
169
100
AcDbEntity
8
0
100
AcDbPolyline
90
8
70
1
43
0.0
10
226.07500000000002
20
-54.236617483079137
10
226.07500000000005
20
-41.236617483079115
42
0.41421356237312623
10
225.57500000000005
20
-40.736617483079137
10
212.57500000000007
20
-40.736617483079115
42
0.4142135623730534
10
212.07499999999999
20
-41.236617483079115
10
212.07500000000007
20
-54.236617483079137
42
0.41421356237312623
10
212.57500000000007
20
-54.736617483079129
10
225.57500000000005
20
-54.736617483079122
42
0.41421356237306384
0
LWPOLYLINE
5
170
100
AcDbEntity
8
0
100
AcDbPolyline
90
8
70
1
43
0.0
10
63.65000000000002
20
-35.686617483079111
10
50.650000000000034
20
-35.686617483079111
42
-0.41421356237311846
10
50.150000000000013
20
-35.186617483079118
10
50.150000000000013
20
-22.186617483079118
42
-0.41421356237309764
10
50.650000000000013
20
-21.686617483079115
10
63.649999999999984
20
-21.686617483079111
42
-0.41421356237311585
10
64.150000000000006
20
-22.186617483079118
10
64.150000000000006
20
-35.186617483079118
42
-0.41421356237307944
0
LWPOLYLINE
5
171
100
AcDbEntity
8
0
100
AcDbPolyline
90
8
70
1
43
0.0
10
78.725000000000023
20
-41.236617483079115
10
78.725000000000037
20
-54.236617483079137
42
0.41421356237309503
10
79.225000000000023
20
-54.736617483079115
10
92.225000000000023
20
-54.736617483079122
42
0.4142135623730846
10
92.725000000000023
20
-54.236617483079137
10
92.725000000000051
20
-41.236617483079115
42
0.41421356237310542
10
92.224999999999994
20
-40.736617483079101
10
79.225000000000023
20
-40.736617483079122
42
0.41421356237313145
0
CIRCLE
5
172
100
AcDbEntity
8
0
100
AcDbCircle
10
80.996922170629944
20
-98.261617483079164
30
1.0755285551056204e-15
40
1.5000000000000038
210
0
220
0
230
1
0
LWPOLYLINE
5
173
100
AcDbEntity
8
0
100
AcDbPolyline
90
8
70
1
43
0.0
10
149.37500000000003
20
-54.736617483079122
42
0.41421356237311585
10
149.87500000000006
20
-54.236617483079137
10
149.87500000000009
20
-41.236617483079115
42
0.41421356237310542
10
149.37500000000003
20
-40.736617483079101
10
136.37500000000006
20
-40.736617483079129
42
0.41421356237310542
10
135.87500000000006
20
-41.236617483079115
10
135.87500000000003
20
-54.236617483079137
42
0.41421356237310025
10
136.37500000000006
20
-54.736617483079144
0
LWPOLYLINE
5
174
100
AcDbEntity
8
0
100
AcDbPolyline
90
8
70
1
43
0.0
10
163.66250000000008
20
-35.686617483079146
42
0.4142135623730846
10
164.16250000000014
20
-35.186617483079118
10
164.16250000000005
20
-22.186617483079118
42
0.41421356237314444
10
163.66250000000005
20
-21.686617483079115
10
150.66250000000008
20
-21.6866174830791
42
0.41421356237308982
10
150.16250000000008
20
-22.186617483079118
10
150.16250000000008
20
-35.186617483079118
42
0.41421356237310542
10
150.66250000000005
20
-35.686617483079118
0
LWPOLYLINE
5
175
100
AcDbEntity
8
0
100
AcDbPolyline
90
8
70
1
43
0.0
10
107.80000000000004
20
-59.786617483079134
10
120.8
20
-59.786617483079112
42
-0.41421356237307422
10
121.30000000000004
20
-60.286617483079119
10
121.30000000000007
20
-73.286617483079084
42
-0.4142135623730378
10
120.80000000000005
20
-73.786617483079084
10
107.80000000000004
20
-73.786617483079141
42
-0.41421356237307944
10
107.30000000000004
20
-73.286617483079084
10
107.30000000000004
20
-60.286617483079112
42
-0.4142135623730378
0
LWPOLYLINE
5
176
100
AcDbEntity
8
0
100
AcDbPolyline
90
8
70
1
43
0.0
10
264.17500000000013
20
-54.236617483079137
10
264.17500000000013
20
-41.236617483079115
42
0.41421356237313145
10
263.67500000000013
20
-40.736617483079122
10
250.6750000000001
20
-40.736617483079101
42
0.4142135623730378
10
250.17500000000013
20
-41.236617483079115
10
250.17500000000007
20
-54.236617483079137
42
0.41421356237314705
10
250.6750000000001
20
-54.736617483079115
10
263.67500000000013
20
-54.736617483079144
42
0.4142135623730534
0
LWPOLYLINE
5
177
100
AcDbEntity
8
0
100
AcDbPolyline
90
8
70
1
43
0.0
10
325.58750000000009
20
-59.786617483079141
10
312.58750000000009
20
-59.786617483079155
42
0.41421356237302737
10
312.08750000000009
20
-60.286617483079119
10
312.08750000000009
20
-73.286617483079084
42
0.41421356237314705
10
312.58750000000009
20
-73.786617483079084
10
325.58750000000009
20
-73.78661748307907
42
0.41421356237305862
10
326.08749999999998
20
-73.286617483079084
10
326.08749999999998
20
-60.286617483079119
42
0.41421356237305862
0
LWPOLYLINE
5
178
100
AcDbEntity
8
0
100
AcDbPolyline
90
8
70
1
43
0.0
10
307.03750000000008
20
-92.336617483079124
10
307.03750000000008
20
-79.33661748307911
42
0.41421356237312623
10
306.53750000000008
20
-78.836617483079138
10
293.53750000000014
20
-78.836617483079138
42
0.4142135623730378
10
293.03750000000014
20
-79.336617483079124
10
293.03750000000014
20
-92.336617483079124
42
0.41421356237314705
10
293.53750000000014
20
-92.836617483079152
10
306.53750000000008
20
-92.836617483079138
42
0.41421356237313667
0
LWPOLYLINE
5
179
100
AcDbEntity
8
0
100
AcDbPolyline
90
8
70
1
43
0.0
10
277.96250000000015
20
-35.686617483079111
42
0.4142135623730222
10
278.46250000000009
20
-35.186617483079118
10
278.46250000000009
20
-22.186617483079118
42
0.41421356237311585
10
277.96250000000009
20
-21.68661748307909
10
264.96250000000009
20
-21.686617483079115
42
0.41421356237313406
10
264.46250000000009
20
-22.186617483079118
10
264.46250000000009
20
-35.186617483079118
42
0.41421356237313145
10
264.96250000000009
20
-35.686617483079111
0
LWPOLYLINE
5
180
100
AcDbEntity
8
0
100
AcDbPolyline
90
8
70
1
43
0.0
10
254.65000000000006
20
-60.286617483079119
42
0.41421356237313145
10
254.15000000000006
20
-59.786617483079134
10
241.15000000000009
20
-59.786617483079127
42
0.41421356237300661
10
240.65000000000009
20
-60.286617483079119
10
240.65000000000009
20
-73.286617483079084
42
0.41421356237301699
10
241.15000000000009
20
-73.786617483079084
10
254.15000000000006
20
-73.786617483079112
42
0.41421356237302737
10
254.65000000000015
20
-73.286617483079084
0
LWPOLYLINE
5
181
100
AcDbEntity
8
0
100
AcDbPolyline
90
8
70
1
43
0.0
10
331.63750000000005
20
-78.836617483079181
42
0.41421356237315748
10
331.1375000000001
20
-79.33661748307911
10
331.1375000000001
20
-92.336617483079124
42
0.41421356237306384
10
331.63750000000016
20
-92.836617483079124
10
344.6375000000001
20
-92.836617483079152
42
0.41421356237316787
10
345.13750000000016
20
-92.336617483079124
10
345.13750000000016
20
-79.33661748307911
42
0.41421356237300139
10
344.6375000000001
20
-78.836617483079124
0
LWPOLYLINE
5
182
100
AcDbEntity
8
0
100
AcDbPolyline
90
8
70
1
43
0.0
10
35.075000000000003
20
-78.836617483079124
10
22.074999999999999
20
-78.836617483079124
42
0.41421356237309503
10
21.575000000000006
20
-79.33661748307911
10
21.575000000000017
20
-92.336617483079124
42
0.41421356237311324
10
22.074999999999999
20
-92.836617483079152
10
35.075000000000003
20
-92.836617483079152
42
0.41421356237310542
10
35.57500000000001
20
-92.336617483079124
10
35.57500000000001
20
-79.33661748307911
42
0.41421356237309503
0
LWPOLYLINE
5
183
100
AcDbEntity
8
0
100
AcDbPolyline
90
8
70
1
43
0.0
10
184.00000000000009
20
-59.786617483079155
42
0.41421356237302737
10
183.50000000000009
20
-60.286617483079119
10
183.50000000000009
20
-73.286617483079084
42
0.41421356237314705
10
184.00000000000009
20
-73.786617483079084
10
197.00000000000011
20
-73.78661748307907
42
0.41421356237312623
10
197.50000000000011
20
-73.286617483079084
10
197.50000000000011
20
-60.286617483079119
42
0.41421356237313145
10
197.00000000000011
20
-59.786617483079134
0
LWPOLYLINE
5
184
100
AcDbEntity
8
0
100
AcDbPolyline
90
8
70
1
43
0.0
10
244.62500000000009
20
-54.736617483079115
42
0.41421356237310025
10
245.12500000000014
20
-54.236617483079137
10
245.12500000000011
20
-41.236617483079115
42
0.41421356237316787
10
244.62500000000009
20
-40.736617483079122
10
231.62500000000009
20
-40.736617483079115
42
0.4142135623730534
10
231.125
20
-41.236617483079115
10
231.12500000000011
20
-54.236617483079137
42
0.41421356237318868
10
231.62500000000009
20
-54.736617483079129
0
LWPOLYLINE
5
185
100
AcDbEntity
8
0
100
AcDbPolyline
90
8
70
1
43
0.0
10
88.250000000000014
20
-60.286617483079112
10
88.25
20
-73.286617483079084
42
0.41421356237309503
10
88.750000000000057
20
-73.786617483079141
10
101.75000000000004
20
-73.786617483079084
42
0.414213562373069
10
102.25000000000001
20
-73.286617483079084
10
102.25000000000006
20
-60.286617483079119
42
0.41421356237308982
10
101.75000000000004
20
-59.786617483079112
10
88.75
20
-59.786617483079134
42
0.41421356237302737
0
LWPOLYLINE
5
186
100
AcDbEntity
8
0
100
AcDbPolyline
90
8
70
1
43
0.0
10
325.58750000000009
20
-92.836617483079095
42
0.41421356237326151
10
326.08750000000009
20
-92.336617483079124
10
326.08749999999998
20
-79.33661748307911
42
0.41421356237306384
10
325.58750000000009
20
-78.836617483079124
10
312.58750000000009
20
-78.836617483079152
42
0.41421356237302737
10
312.08750000000009
20
-79.33661748307911
10
312.08750000000009
20
-92.336617483079124
42
0.41421356237314705
10
312.58750000000009
20
-92.836617483079152
0
LWPOLYLINE
5
187
100
AcDbEntity
8
0
100
AcDbPolyline
90
8
70
1
43
0.0
10
259.41250000000014
20
-22.186617483079118
42
0.41421356237308204
10
258.91250000000008
20
-21.686617483079115
10
245.91250000000008
20
-21.686617483079115
42
0.41421356237305079
10
245.41250000000008
20
-22.186617483079118
10
245.41250000000008
20
-35.186617483079118
42
0.41421356237310281
10
245.91250000000008
20
-35.686617483079132
10
258.91250000000008
20
-35.686617483079132
42
0.41421356237307683
10
259.41250000000014
20
-35.186617483079118
0
LWPOLYLINE
5
188
100
AcDbEntity
8
0
100
AcDbPolyline
90
8
70
1
43
0.0
10
299.89375000000007
20
-73.286617483079084
42
-0.41421356237313667
10
299.39375000000007
20
-73.786617483079084
10
286.39375000000007
20
-73.786617483079141
42
-0.41421356237312623
10
285.89375000000007
20
-73.286617483079084
10
285.89375000000007
20
-60.286617483079112
42
-0.41421356237299617
10
286.39375000000007
20
-59.786617483079134
10
299.39375000000007
20
-59.786617483079127
42
-0.41421356237313145
10
299.89375000000007
20
-60.286617483079119
0
LWPOLYLINE
5
189
100
AcDbEntity
8
0
100
AcDbPolyline
90
8
70
1
43
0.0
10
345.1375000000001
20
-73.286617483079084
10
345.1375000000001
20
-60.286617483079119
42
0.41421356237300139
10
344.6375000000001
20
-59.786617483079141
10
331.63750000000005
20
-59.786617483079183
42
0.41421356237315748
10
331.1375000000001
20
-60.286617483079119
10
331.1375000000001
20
-73.286617483079084
42
0.41421356237305862
10
331.63750000000016
20
-73.786617483079084
10
344.63750000000016
20
-73.786617483079084
42
0.41421356237315748
0
LWPOLYLINE
5
190
100
AcDbEntity
8
0
100
AcDbPolyline
90
8
70
1
43
0.0
10
16.024999999999999
20
-35.686617483079111
42
0.41421356237310281
10
16.524999999999999
20
-35.186617483079118
10
16.524999999999999
20
-22.186617483079118
42
0.4142135623730937
10
16.024999999999988
20
-21.686617483079115
10
3.0249999999999932
20
-21.686617483079118
42
0.41421356237309925
10
2.524999999999995
20
-22.186617483079118
10
2.5249999999999915
20
-35.186617483079118
42
0.41421356237308138
10
3.0249999999999799
20
-35.686617483079111
0
LWPOLYLINE
5
191
100
AcDbEntity
8
0
100
AcDbPolyline
90
8
70
1
43
0.0
10
235.60000000000002
20
-60.286617483079119
42
0.41421356237301177
10
235.10000000000005
20
-59.786617483079141
10
222.10000000000008
20
-59.786617483079134
42
0.41421356237304302
10
221.59999999999999
20
-60.286617483079119
10
221.59999999999999
20
-73.286617483079084
42
0.41421356237315227
10
222.10000000000008
20
-73.786617483079127
10
235.10000000000005
20
-73.786617483079098
42
0.4142135623730378
10
235.60000000000002
20
-73.286617483079084
0
LWPOLYLINE
5
192
100
AcDbEntity
8
0
100
AcDbPolyline
90
8
70
1
43
0.0
10
59.387500000000003
20
-3.1366174830791094
42
0.41421356237307877
10
58.887500000000017
20
-2.636617483079112
10
45.887500000000003
20
-2.6366174830791063
42
0.41421356237309664
10
45.387500000000003
20
-3.1366174830791071
10
45.387500000000003
20
-16.136617483079114
42
0.41421356237308854
10
45.88750000000001
20
-16.636617483079107
10
58.887500000000017
20
-16.63661748307911
42
0.41421356237308593
10
59.387500000000003
20
-16.136617483079117
0
LWPOLYLINE
5
193
100
AcDbEntity
8
0
100
AcDbPolyline
90
8
70
1
43
0.0
10
273.7000000000001
20
-73.286617483079084
42
-0.41421356237306384
10
273.20000000000005
20
-73.786617483079084
10
260.2000000000001
20
-73.786617483079112
42
-0.41421356237310542
10
259.70000000000005
20
-73.286617483079084
10
259.70000000000005
20
-60.286617483079112
42
-0.414213562373069
10
260.20000000000005
20
-59.786617483079134
10
273.20000000000005
20
-59.786617483079098
42
-0.4142135623730846
10
273.7000000000001
20
-60.286617483079119
0
LWPOLYLINE
5
194
100
AcDbEntity
8
0
100
AcDbPolyline
90
8
70
1
43
0.0
10
216.55000000000015
20
-73.286617483079084
10
216.55000000000007
20
-60.286617483079119
42
0.41421356237317308
10
216.05000000000007
20
-59.786617483079134
10
203.05000000000007
20
-59.786617483079105
42
0.4142135623730378
10
202.5500000000001
20
-60.286617483079119
10
202.5500000000001
20
-73.286617483079084
42
0.41421356237307944
10
203.05000000000007
20
-73.786617483079084
10
216.05000000000007
20
-73.786617483079098
42
0.41421356237310025
0
LWPOLYLINE
5
195
100
AcDbEntity
8
0
100
AcDbPolyline
90
8
70
1
43
0.0
10
126.85000000000004
20
-59.786617483079134
10
139.85000000000002
20
-59.786617483079112
42
-0.41421356237309503
10
140.35000000000002
20
-60.286617483079119
10
140.35000000000002
20
-73.286617483079084
42
-0.41421356237310025
10
139.85000000000002
20
-73.786617483079084
10
126.85000000000004
20
-73.786617483079084
42
-0.41421356237306384
10
126.35000000000005
20
-73.286617483079084
10
126.35000000000005
20
-60.286617483079112
42
-0.414213562373069
0
LWPOLYLINE
5
196
100
AcDbEntity
8
0
100
AcDbPolyline
90
8
70
1
43
0.0
10
83.98750000000004
20
-2.6366174830791111
42
0.41421356237308982
10
83.487500000000026
20
-3.1366174830791094
10
83.487500000000011
20
-16.136617483079114
42
0.41421356237308854
10
83.98750000000004
20
-16.636617483079121
10
96.98750000000004
20
-16.63661748307911
42
0.41421356237308593
10
97.487500000000011
20
-16.136617483079117
10
97.487500000000026
20
-3.1366174830791094
42
0.41421356237304335
10
96.98750000000004
20
-2.6366174830791027
0
LWPOLYLINE
5
197
100
AcDbEntity
8
0
100
AcDbPolyline
90
8
70
1
43
0.0
10
344.6375000000001
20
-54.73661748307908
42
0.41421356237324591
10
345.1375000000001
20
-54.236617483079137
10
345.1375000000001
20
-41.236617483079115
42
0.41421356237300139
10
344.6375000000001
20
-40.736617483079137
10
331.63750000000016
20
-40.736617483079129
42
0.41421356237314705
10
331.1375000000001
20
-41.236617483079115
10
331.1375000000001
20
-54.236617483079137
42
0.4142135623728973
10
331.63750000000016
20
-54.736617483079115
0
LWPOLYLINE
5
198
100
AcDbEntity
8
0
100
AcDbPolyline
90
8
70
1
43
0.0
10
2.5249999999999968
20
-79.33661748307911
10
2.5249999999999924
20
-92.336617483079124
42
0.41421356237309404
10
3.0249999999999799
20
-92.836617483079152
10
16.024999999999999
20
-92.836617483079152
42
0.41421356237314838
10
16.525000000000006
20
-92.336617483079124
10
16.524999999999999
20
-79.33661748307911
42
0.41421356237310675
10
16.024999999999988
20
-78.836617483079124
10
3.0249999999999932
20
-78.836617483079124
42
0.41421356237308948
0
LWPOLYLINE
5
199
100
AcDbEntity
8
0
100
AcDbPolyline
90
8
70
1
43
0.0
10
159.68750000000006
20
-3.1366174830791071
42
-0.41421356237312135
10
160.18750000000009
20
-2.6366174830791089
10
173.18750000000009
20
-2.6366174830791254
42
-0.41421356237316459
10
173.68750000000009
20
-3.1366174830791094
10
173.68750000000009
20
-16.136617483079117
42
-0.41421356237301049
10
173.18750000000009
20
-16.63661748307911
10
160.18750000000009
20
-16.636617483079117
42
-0.41421356237307294
10
159.68750000000003
20
-16.136617483079114
0
LWPOLYLINE
5
200
100
AcDbEntity
8
0
100
AcDbPolyline
90
8
70
1
43
0.0
10
282.72500000000014
20
-40.736617483079122
10
269.72500000000014
20
-40.736617483079137
42
0.4142135623730378
10
269.22500000000014
20
-41.236617483079115
10
269.22500000000008
20
-54.236617483079137
42
0.41421356237310542
10
269.72500000000014
20
-54.736617483079115
10
282.72500000000014
20
-54.736617483079144
42
0.4142135623730534
10
283.22500000000014
20
-54.236617483079137
10
283.22500000000014
20
-41.236617483079115
42
0.41421356237313145
0
LWPOLYLINE
5
201
100
AcDbEntity
8
0
100
AcDbPolyline
90
8
70
1
43
0.0
10
182.71250000000006
20
-21.686617483079115
10
169.71250000000003
20
-21.686617483079115
42
0.41421356237305079
10
169.21250000000003
20
-22.186617483079118
10
169.21250000000003
20
-35.186617483079118
42
0.41421356237310281
10
169.71250000000003
20
-35.686617483079132
10
182.71250000000006
20
-35.686617483079118
42
0.41421356237304818
10
183.21250000000006
20
-35.186617483079118
10
183.21250000000006
20
-22.186617483079118
42
0.41421356237314444
0
LWPOLYLINE
5
202
100
AcDbEntity
8
0
100
AcDbPolyline
90
8
70
1
43
0.0
10
22.074999999999999
20
-73.786617483079084
10
35.075000000000003
20
-73.786617483079098
42
0.41421356237310025
10
35.57500000000001
20
-73.286617483079084
10
35.57500000000001
20
-60.286617483079119
42
0.41421356237309503
10
35.075000000000003
20
-59.786617483079134
10
22.074999999999999
20
-59.786617483079127
42
0.41421356237309503
10
21.575000000000006
20
-60.286617483079119
10
21.575000000000003
20
-73.286617483079084
42
0.41421356237308982
0
LWPOLYLINE
5
203
100
AcDbEntity
8
0
100
AcDbPolyline
90
8
70
1
43
0.0
10
2.5249999999999928
20
-16.136617483079114
42
0.41421356237308332
10
3.0249999999999799
20
-16.63661748307911
10
16.024999999999999
20
-16.636617483079107
42
0.41421356237309503
10
16.524999999999999
20
-16.136617483079117
10
16.524999999999999
20
-3.1366174830791094
42
0.41421356237310736
10
16.024999999999988
20
-2.6366174830791107
10
3.0249999999999932
20
-2.6366174830791089
42
0.41421356237309537
10
2.5249999999999946
20
-3.1366174830791094
0
LWPOLYLINE
5
204
100
AcDbEntity
8
0
100
AcDbPolyline
90
8
70
1
43
0.0
10
116.53750000000002
20
-16.136617483079117
10
116.53750000000002
20
-3.1366174830791094
42
0.41421356237310381
10
116.03750000000004
20
-2.6366174830791027
10
103.03750000000002
20
-2.6366174830791094
42
0.41421356237305956
10
102.53750000000004
20
-3.1366174830791094
10
102.53750000000004
20
-16.136617483079114
42
0.41421356237308854
10
103.03750000000002
20
-16.636617483079121
10
116.03750000000004
20
-16.636617483079114
42
0.41421356237309892
0
LWPOLYLINE
5
205
100
AcDbEntity
8
0
100
AcDbPolyline
90
8
70
1
43
0.0
10
331.63750000000016
20
-16.636617483079092
10
344.6375000000001
20
-16.636617483079132
42
0.41421356237320167
10
345.1375000000001
20
-16.136617483079117
10
345.1375000000001
20
-3.1366174830791094
42
0.41421356237300205
10
344.6375000000001
20
-2.636617483079124
10
331.63750000000016
20
-2.6366174830791205
42
0.41421356237314544
10
331.1375000000001
20
-3.1366174830791071
10
331.1375000000001
20
-16.136617483079114
42
0.41421356237289864
0
LWPOLYLINE
5
206
100
AcDbEntity
8
0
100
AcDbPolyline
90
8
70
1
43
0.0
10
121.58750000000005
20
-3.1366174830791071
10
121.58750000000005
20
-16.136617483079114
42
0.41421356237310414
10
122.08750000000008
20
-16.636617483079121
10
135.08750000000003
20
-16.636617483079121
42
0.4142135623730599
10
135.58750000000003
20
-16.136617483079117
10
135.58750000000006
20
-3.1366174830791094
42
0.41421356237304302
10
135.08750000000003
20
-2.6366174830791027
10
122.08750000000008
20
-2.6366174830791111
42
0.41421356237311974
0
LWPOLYLINE
5
207
100
AcDbEntity
8
0
100
AcDbPolyline
90
8
70
1
43
0.0
10
211.78750000000008
20
-16.136617483079117
10
211.78750000000008
20
-3.1366174830791094
42
0.41421356237301504
10
211.28749999999999
20
-2.6366174830790907
10
198.28749999999999
20
-2.6366174830790987
42
0.41421356237307616
10
197.78750000000002
20
-3.1366174830791094
10
197.78750000000002
20
-16.136617483079114
42
0.41421356237319129
10
198.28749999999999
20
-16.63661748307911
10
211.28749999999999
20
-16.636617483079092
42
0.41421356237303392
0
LWPOLYLINE
5
208
100
AcDbEntity
8
0
100
AcDbPolyline
90
8
70
1
43
0.0
10
106.51250000000005
20
-21.686617483079104
10
93.512500000000003
20
-21.686617483079125
42
0.41421356237311585
10
93.012500000000017
20
-22.186617483079118
10
93.012500000000017
20
-35.186617483079118
42
0.41421356237304302
10
93.512500000000003
20
-35.686617483079118
10
106.51250000000005
20
-35.686617483079111
42
0.41421356237308721
10
107.01250000000002
20
-35.186617483079118
10
107.01250000000003
20
-22.186617483079118
42
0.41421356237304563
0
LWPOLYLINE
5
209
100
AcDbEntity
8
0
100
AcDbPolyline
90
8
70
1
43
0.0
10
154.13750000000005
20
-2.6366174830791027
10
141.13750000000005
20
-2.6366174830791134
42
0.41421356237311974
10
140.63750000000002
20
-3.1366174830791094
10
140.63750000000002
20
-16.136617483079114
42
0.41421356237310414
10
141.13750000000005
20
-16.636617483079121
10
154.13750000000005
20
-16.636617483079114
42
0.41421356237309892
10
154.63750000000005
20
-16.136617483079117
10
154.63750000000005
20
-3.1366174830791094
42
0.41421356237310381
0
LWPOLYLINE
5
210
100
AcDbEntity
8
0
100
AcDbPolyline
90
8
70
1
43
0.0
10
21.575000000000006
20
-3.1366174830791094
10
21.575000000000006
20
-16.136617483079114
42
0.41421356237310281
10
22.074999999999999
20
-16.63661748307911
10
35.075000000000003
20
-16.636617483079107
42
0.41421356237308982
10
35.57500000000001
20
-16.136617483079117
10
35.57500000000001
20
-3.1366174830791094
42
0.41421356237309598
10
35.075000000000003
20
-2.6366174830791107
10
22.074999999999999
20
-2.6366174830791063
42
0.41421356237308493
0
LWPOLYLINE
5
211
100
AcDbEntity
8
0
100
AcDbPolyline
90
8
70
1
43
0.0
10
168.42500000000004
20
-54.736617483079115
42
0.41421356237310025
10
168.9250000000001
20
-54.236617483079137
10
168.9250000000001
20
-41.236617483079115
42
0.41421356237315748
10
168.42500000000004
20
-40.736617483079122
10
155.42500000000013
20
-40.736617483079129
42
0.41421356237310542
10
154.9250000000001
20
-41.236617483079115
10
154.92500000000007
20
-54.236617483079137
42
0.41421356237304818
10
155.42500000000013
20
-54.736617483079144
0
LWPOLYLINE
5
212
100
AcDbEntity
8
0
100
AcDbPolyline
90
8
70
1
43
0.0
10
178.45000000000005
20
-60.286617483079119
42
0.41421356237315748
10
177.95000000000005
20
-59.786617483079141
10
164.95000000000005
20
-59.786617483079134
42
0.41421356237300139
10
164.4500000000001
20
-60.286617483079119
10
164.45000000000005
20
-73.286617483079084
42
0.41421356237301699
10
164.95000000000005
20
-73.786617483079084
10
177.9500000000001
20
-73.786617483079112
42
0.41421356237300139
10
178.44999999999999
20
-73.286617483079084
0
LWPOLYLINE
5
213
100
AcDbEntity
8
0
100
AcDbPolyline
90
8
70
1
43
0.0
10
64.937500000000028
20
-16.636617483079107
10
77.937500000000014
20
-16.636617483079107
42
0.41421356237310025
10
78.437500000000014
20
-16.136617483079117
10
78.437500000000014
20
-3.1366174830791094
42
0.41421356237311713
10
77.9375
20
-2.6366174830791085
10
64.937500000000028
20
-2.6366174830791129
42
0.41421356237308887
10
64.437500000000014
20
-3.1366174830791094
10
64.437500000000014
20
-16.136617483079114
42
0.41421356237311713
0
LWPOLYLINE
5
214
100
AcDbEntity
8
0
100
AcDbPolyline
90
8
70
1
43
0.0
10
3.0249999999999932
20
-59.786617483079134
42
0.41421356237308948
10
2.5249999999999968
20
-60.286617483079119
10
2.5249999999999915
20
-73.286617483079084
42
0.41421356237308399
10
3.0249999999999799
20
-73.786617483079084
10
16.024999999999999
20
-73.786617483079084
42
0.41421356237308204
10
16.525000000000002
20
-73.286617483079084
10
16.524999999999999
20
-60.286617483079119
42
0.41421356237310675
10
16.024999999999988
20
-59.786617483079134
0
LWPOLYLINE
5
215
100
AcDbEntity
8
0
100
AcDbPolyline
90
8
70
1
43
0.0
10
21.57500000000001
20
-54.236617483079137
42
0.41421356237310025
10
22.074999999999999
20
-54.736617483079115
10
35.075000000000003
20
-54.736617483079115
42
0.41421356237309764
10
35.57500000000001
20
-54.236617483079137
10
35.57500000000001
20
-41.236617483079115
42
0.41421356237308982
10
35.075000000000003
20
-40.736617483079137
10
22.074999999999999
20
-40.736617483079115
42
0.41421356237313406
10
21.575000000000003
20
-41.236617483079115
0
LWPOLYLINE
5
216
100
AcDbEntity
8
0
100
AcDbPolyline
90
8
70
1
43
0.0
10
274.48750000000013
20
-16.636617483079121
42
-0.41421356237313667
10
273.98750000000013
20
-16.136617483079114
10
273.98750000000013
20
-3.1366174830791071
42
-0.41421356237304496
10
274.48750000000013
20
-2.6366174830791089
10
287.48750000000007
20
-2.6366174830791191
42
-0.4142135623731269
10
287.98750000000007
20
-3.1366174830791094
10
287.98750000000007
20
-16.136617483079117
42
-0.41421356237301049
10
287.48750000000007
20
-16.63661748307911
0
LWPOLYLINE
5
217
100
AcDbEntity
8
0
100
AcDbPolyline
90
8
70
1
43
0.0
10
249.8875000000001
20
-16.136617483079117
10
249.88750000000013
20
-3.1366174830791094
42
0.41421356237310736
10
249.38749999999999
20
-2.6366174830790907
10
236.38750000000005
20
-2.6366174830790987
42
0.41421356237307616
10
235.88750000000002
20
-3.1366174830791094
10
235.88750000000002
20
-16.136617483079114
42
0.41421356237322121
10
236.3875000000001
20
-16.63661748307911
10
249.38750000000005
20
-16.6366174830791
42
0.4142135623730599
0
LWPOLYLINE
5
218
100
AcDbEntity
8
0
100
AcDbPolyline
90
8
70
1
43
0.0
10
255.43750000000011
20
-2.6366174830790996
42
0.4142135623730121
10
254.93750000000009
20
-3.1366174830791071
10
254.93750000000009
20
-16.136617483079114
42
0.41421356237312623
10
255.43750000000011
20
-16.636617483079092
10
268.43750000000006
20
-16.636617483079124
42
0.41421356237301177
10
268.93750000000006
20
-16.136617483079117
10
268.93750000000006
20
-3.1366174830791094
42
0.41421356237299356
10
268.43750000000006
20
-2.6366174830790907
0
LWPOLYLINE
5
219
100
AcDbEntity
8
0
100
AcDbPolyline
90
8
70
1
43
0.0
10
35.57500000000001
20
-35.186617483079118
10
35.57500000000001
20
-22.186617483079118
42
0.41421356237309243
10
35.075000000000003
20
-21.686617483079115
10
22.074999999999999
20
-21.686617483079118
42
0.41421356237310281
10
21.575000000000006
20
-22.186617483079118
10
21.575000000000006
20
-35.186617483079118
42
0.41421356237308982
10
22.074999999999999
20
-35.686617483079111
10
35.075000000000003
20
-35.686617483079111
42
0.41421356237309764
0
LWPOLYLINE
5
220
100
AcDbEntity
8
0
100
AcDbPolyline
90
8
70
1
43
0.0
10
217.33750000000003
20
-16.63661748307911
10
230.33750000000003
20
-16.6366174830791
42
0.4142135623730599
10
230.83750000000009
20
-16.136617483079117
10
230.83750000000009
20
-3.1366174830791094
42
0.41421356237307555
10
230.33750000000003
20
-2.6366174830790907
10
217.33750000000003
20
-2.6366174830791138
42
0.41421356237304657
10
216.83750000000003
20
-3.1366174830791094
10
216.83750000000003
20
-16.136617483079114
42
0.41421356237321988
0
LWPOLYLINE
5
221
100
AcDbEntity
8
0
100
AcDbPolyline
90
8
70
1
43
0.0
10
192.2375000000001
20
-2.6366174830791085
10
179.2375000000001
20
-2.6366174830791058
42
0.41421356237300982
10
178.73750000000007
20
-3.1366174830791094
10
178.73750000000001
20
-16.136617483079114
42
0.41421356237313145
10
179.2375000000001
20
-16.636617483079092
10
192.2375000000001
20
-16.636617483079132
42
0.4142135623730781
10
192.73750000000007
20
-16.136617483079117
10
192.73750000000004
20
-3.1366174830791094
42
0.41421356237308138
0
LWPOLYLINE
5
222
100
AcDbEntity
8
0
100
AcDbPolyline
90
8
70
1
43
0.0
10
87.462500000000034
20
-35.686617483079118
42
0.41421356237311063
10
87.962500000000034
20
-35.186617483079118
10
87.962500000000034
20
-22.186617483079118
42
0.41421356237311846
10
87.462500000000034
20
-21.686617483079104
10
74.462500000000034
20
-21.686617483079122
42
0.41421356237310802
10
73.96250000000002
20
-22.186617483079118
10
73.96250000000002
20
-35.186617483079118
42
0.41421356237310542
10
74.462500000000034
20
-35.686617483079111
0
CIRCLE
5
223
100
AcDbEntity
8
0
100
AcDbCircle
10
19.08400000000001
20
-98.261617483079164
30
1.0755285551056204e-15
40
1.4999999999999971
210
0
220
0
230
1
0
CIRCLE
5
224
100
AcDbEntity
8
0
100
AcDbCircle
10
328.64700000000028
20
-98.261617483079135
30
1.0755285551056204e-15
40
1.4999999999999858
210
0
220
0
230
1
0
CIRCLE
5
225
100
AcDbEntity
8
0
100
AcDbCircle
10
328.64700000000028
20
2.7883825169208905
30
0
40
1.49999999999999
210
0
220
0
230
1
0
CIRCLE
5
226
100
AcDbEntity
8
0
100
AcDbCircle
10
173.86592217102731
20
2.7883825169208896
30
0
40
1.5000000000000171
210
0
220
0
230
1
0
ENDSEC
0
SECTION
2
OBJECTS
0
DICTIONARY
5
C
100
AcDbDictionary
3
ACAD_GROUP
350
D
3
ACAD_MLINESTYLE
350
17
0
DICTIONARY
5
D
100
AcDbDictionary
0
DICTIONARY
5
1A
330
C
100
AcDbDictionary
0
DICTIONARY
5
17
100
AcDbDictionary
0
ENDSEC
0
EOF
