0
SECTION
2
HEADER
9
$INSUNITS
70
4
9
$ACADVER
1
AC1014
9
$HANDSEED
5
FFFF
0
ENDSEC
0
SECTION
2
TABLES
0
TABLE
2
VPORT
5
8
100
AcDbSymbolTable
0
ENDTAB
0
TABLE
2
LTYPE
5
5
100
AcDbSymbolTable
0
LTYPE
5
14
100
AcDbSymbolTableRecord
100
AcDbLinetypeTableRecord
2
BYBLOCK
70
0
0
LTYPE
5
15
100
AcDbSymbolTableRecord
100
AcDbLinetypeTableRecord
2
BYLAYER
70
0
0
ENDTAB
0
TABLE
2
LAYER
5
2
100
AcDbSymbolTable
70
2
0
LAYER
5
50
100
AcDbSymbolTableRecord
100
AcDbLayerTableRecord
2
0
70
0
6
CONTINUOUS
0
ENDTAB
0
TABLE
2
STYLE
5
3
100
AcDbSymbolTable
70
1
0
STYLE
5
11
100
AcDbSymbolTableRecord
100
AcDbTextStyleTableRecord
2
STANDARD
70
0
0
ENDTAB
0
TABLE
2
VIEW
5
6
100
AcDbSymbolTable
70
0
0
ENDTAB
0
TABLE
2
UCS
5
7
100
AcDbSymbolTable
70
0
0
ENDTAB
0
TABLE
2
APPID
5
9
100
AcDbSymbolTable
70
2
0
APPID
5
12
100
AcDbSymbolTableRecord
100
AcDbRegAppTableRecord
2
ACAD
70
0
0
ENDTAB
0
TABLE
2
DIMSTYLE
5
A
100
AcDbSymbolTable
70
1
0
ENDTAB
0
TABLE
2
BLOCK_RECORD
5
1
100
AcDbSymbolTable
70
1
0
BLOCK_RECORD
5
1F
100
AcDbSymbolTableRecord
100
AcDbBlockTableRecord
2
*MODEL_SPACE
0
BLOCK_RECORD
5
1B
100
AcDbSymbolTableRecord
100
AcDbBlockTableRecord
2
*PAPER_SPACE
0
ENDTAB
0
ENDSEC
0
SECTION
2
BLOCKS
0
BLOCK
5
20
100
AcDbEntity
100
AcDbBlockBegin
2
*MODEL_SPACE
0
ENDBLK
5
21
100
AcDbEntity
100
AcDbBlockEnd
0
BLOCK
5
1C
100
AcDbEntity
100
AcDbBlockBegin
2
*PAPER_SPACE
0
ENDBLK
5
1D
100
AcDbEntity
100
AcDbBlockEnd
0
ENDSEC
0
SECTION
2
ENTITIES
0
CIRCLE
5
100
100
AcDbEntity
8
0
100
AcDbCircle
10
112.53758067575028
20
-111.90903216332615
30
0
40
2.7999999999999936
210
0
220
0
230
1
0
LWPOLYLINE
5
101
100
AcDbEntity
8
0
100
AcDbPolyline
90
26
70
1
43
0.0
10
166.20681742320443
20
-107.38192782931465
42
-0.3928755142333531
10
166.00669890162067
20
-106.73132317321654
10
167.43026609324477
20
-103.78653299893935
42
-0.39287551423337597
10
168.06444388100891
20
-103.53924293702015
10
178.94152973662818
20
-107.84459849369404
42
-0.37326539136835513
10
180.75489484199096
20
-111.33284301282741
42
0.26080687734902575
10
180.82124110650608
20
-111.56785394558244
10
180.93386593365648
20
-111.68047877273288
42
-0.11185331453423709
10
181.05171706385417
20
-111.8673654966595
42
0.31783724519583584
10
181.2874193242497
20
-112.03403216332612
10
181.43741932424973
20
-112.03403216332615
42
0.41421356237307422
10
181.9374193242497
20
-111.53403216332613
10
181.9374193242497
20
-111.33403216332613
42
-0.99999999999999989
10
182.43741932424967
20
-111.33403216332613
10
182.43741932424967
20
-111.53403216332613
42
-0.4142135623730846
10
181.43741932424973
20
-112.53403216332612
10
180.82139392046528
20
-112.53403216332615
42
0.13165249758744868
10
180.57139392046523
20
-112.60101946143396
10
180.54363710689884
20
-112.61704486521836
42
-0.13165249758725608
10
180.29363710689887
20
-112.68403216332615
10
180.23481374319709
20
-112.68403216332615
42
0.19091049757698098
10
179.89232882620462
20
-112.81974644904042
42
-0.2691224781469721
10
176.95942418093722
20
-113.50267723170246
42
-0.40896178353859747
10
176.62509776894944
20
-112.88684903425944
42
0.78760464033140298
10
170.61999566221107
20
-109.48378175223422
42
-0.34879281181174338
10
170.00482470484886
20
-109.57518629370367
0
LWPOLYLINE
5
102
100
AcDbEntity
8
0
100
AcDbPolyline
90
26
70
1
43
0.0
10
105.45636289310119
20
-112.68403216332615
42
-0.13165249758745465
10
105.2063628931012
20
-112.61704486521836
10
105.17860607953479
20
-112.60101946143394
42
0.13165249758744207
10
104.92860607953473
20
-112.53403216332615
10
104.3125806757503
20
-112.53403216332615
42
-0.41421356237307422
10
103.31258067575033
20
-111.53403216332613
10
103.31258067575035
20
-111.33403216332613
42
-0.99999999999999989
10
103.81258067575033
20
-111.33403216332613
10
103.81258067575033
20
-111.53403216332613
42
0.4142135623730534
10
104.3125806757503
20
-112.03403216332615
10
104.46258067575033
20
-112.03403216332615
42
0.31783724519582934
10
104.69828293614582
20
-111.8673654966595
42
-0.11185331453435411
10
104.81613406634355
20
-111.68047877273287
10
104.92875889349398
20
-111.56785394558248
42
0.2608068773490253
10
104.99510515800907
20
-111.33284301282742
42
-0.37326539136835651
10
106.80847026337185
20
-107.84459849369404
10
117.6855561189911
20
-103.53924293702019
42
-0.39287551423335781
10
118.31973390675526
20
-103.78653299893935
10
119.74330109837933
20
-106.73132317321652
42
-0.39287551423332673
10
119.54318257679559
20
-107.38192782931465
10
115.74517529515123
20
-109.57518629370369
42
-0.34879281181173205
10
115.13000433778899
20
-109.48378175223422
42
0.7876046403314062
10
109.12490223105054
20
-112.88684903425946
42
-0.40896178353856766
10
108.79057581906278
20
-113.50267723170248
42
-0.26912247814696733
10
105.85767117379541
20
-112.81974644904045
42
0.19091049757701964
10
105.51518625680293
20
-112.68403216332614
0
CIRCLE
5
103
100
AcDbEntity
8
0
100
AcDbCircle
10
173.21241932424977
20
-111.90903216332615
30
0
40
2.8000000000000114
210
0
220
0
230
1
0
LWPOLYLINE
5
104
100
AcDbEntity
8
0
100
AcDbPolyline
90
8
70
1
43
0.0
10
345.13749999999993
20
-21.874855946506667
10
345.13749999999993
20
-20.062355946506663
42
0.41421356237309503
10
344.63749999999999
20
-19.562355946506663
10
293.53749999999997
20
-19.562355946506631
42
0.41421356237308721
10
293.03749999999991
20
-20.062355946506617
10
293.03749999999985
20
-21.874855946506621
42
0.41421356237310281
10
293.53749999999985
20
-22.374855946506628
10
344.63749999999999
20
-22.374855946506663
42
0.41421356237309503
0
LWPOLYLINE
5
105
100
AcDbEntity
8
0
100
AcDbPolyline
90
8
70
1
43
0.0
10
97.48750000000004
20
-21.874855946506507
10
97.487500000000026
20
-20.062355946506507
42
0.41421356237309243
10
96.987500000000026
20
-19.562355946506507
10
26.837499999999981
20
-19.562355946506468
42
0.41421356237309503
10
26.337499999999977
20
-20.062355946506464
10
26.337499999999963
20
-21.874855946506461
42
0.41421356237309764
10
26.837499999999963
20
-22.374855946506461
10
96.98750000000004
20
-22.374855946506507
42
0.41421356237309764
0
LWPOLYLINE
5
106
100
AcDbEntity
8
0
100
AcDbPolyline
90
8
70
1
43
0.0
10
2.5250000000000119
20
-20.062355946506457
10
2.5250000000000119
20
-21.874855946506461
42
0.41421356237309631
10
3.0250000000000021
20
-22.374855946506464
10
16.024999999999974
20
-22.374855946506461
42
0.41421356237309503
10
16.524999999999984
20
-21.874855946506461
10
16.524999999999984
20
-20.062355946506464
42
0.41421356237309503
10
16.024999999999984
20
-19.562355946506464
10
3.0250000000000021
20
-19.562355946506457
42
0.41421356237309598
0
LWPOLYLINE
5
107
100
AcDbEntity
8
0
100
AcDbPolyline
90
8
70
1
43
0.0
10
283.22499999999968
20
-21.874855946506653
10
283.2249999999998
20
-20.062355946506653
42
0.41421356237311063
10
282.72499999999985
20
-19.562355946506624
10
269.72499999999991
20
-19.562355946506617
42
0.41421356237308721
10
269.22499999999991
20
-20.062355946506607
10
269.22499999999985
20
-21.874855946506603
42
0.41421356237310281
10
269.72499999999985
20
-22.374855946506614
10
282.72499999999968
20
-22.374855946506624
42
0.41421356237307944
0
LWPOLYLINE
5
108
100
AcDbEntity
8
0
100
AcDbPolyline
90
8
70
1
43
0.0
10
259.41250000000002
20
-21.874855946506614
10
259.41250000000002
20
-20.062355946506614
42
0.41421356237309503
10
258.91250000000002
20
-19.562355946506614
10
188.76249999999999
20
-19.562355946506568
42
0.41421356237309503
10
188.26249999999999
20
-20.062355946506571
10
188.26249999999999
20
-21.874855946506568
42
0.41421356237309503
10
188.76249999999999
20
-22.374855946506564
10
258.91250000000002
20
-22.37485594650661
42
0.41421356237309503
0
LWPOLYLINE
5
109
100
AcDbEntity
8
0
100
AcDbPolyline
90
8
70
1
43
0.0
10
286.72500000000008
20
-26.374855946506468
10
286.72500000000008
20
-115.07485594650645
42
0.41421356237309503
10
287.22500000000008
20
-115.57485594650643
10
289.03750000000002
20
-115.57485594650645
42
0.41421356237310542
10
289.53750000000002
20
-115.07485594650643
10
289.53750000000002
20
-26.374855946506457
42
0.41421356237309503
10
289.03750000000002
20
-25.874855946506461
10
287.22500000000008
20
-25.874855946506472
42
0.41421356237309503
0
LWPOLYLINE
5
110
100
AcDbEntity
8
0
100
AcDbPolyline
90
8
70
1
43
0.0
10
178.44999999999999
20
-21.874855946506564
10
178.44999999999999
20
-20.06235594650656
42
0.41421356237309503
10
177.94999999999999
20
-19.56235594650656
10
107.80000000000001
20
-19.562355946506514
42
0.41421356237309503
10
107.30000000000001
20
-20.062355946506514
10
107.30000000000001
20
-21.874855946506521
42
0.41421356237309503
10
107.80000000000001
20
-22.374855946506521
10
177.94999999999999
20
-22.374855946506564
42
0.41421356237309503
0
LWPOLYLINE
5
111
100
AcDbEntity
8
0
100
AcDbPolyline
90
8
70
1
43
0.0
10
287.22500000000008
20
-15.562355946506461
10
289.03750000000002
20
-15.562355946506461
42
0.41421356237309503
10
289.53750000000002
20
-15.062355946506461
10
289.53750000000002
20
-3.0623559465064609
42
0.41421356237309537
10
289.03750000000002
20
-2.5623559465064609
10
287.22500000000008
20
-2.5623559465064609
42
0.41421356237309503
10
286.72500000000008
20
-3.0623559465064609
10
286.72500000000008
20
-15.062355946506463
42
0.4142135623730937
0
LWPOLYLINE
5
112
100
AcDbEntity
8
0
100
AcDbPolyline
90
56
70
1
43
0.0
10
347.66250000000002
20
-116.59985594650647
42
-0.41421356237307422
10
345.66250000000002
20
-118.59985594650645
10
323.58749999999998
20
-118.59985594650645
42
0.41421356237309503
10
322.58749999999998
20
-119.59985594650645
10
322.58749999999998
20
-120.69985594650646
42
-0.99999999999999989
10
315.58749999999998
20
-120.69985594650646
10
315.58749999999998
20
-119.59985594650647
42
0.41421356237309503
10
314.58749999999998
20
-118.59985594650645
10
242.62500000000003
20
-118.59985594650644
42
0.41421356237309503
10
241.625
20
-119.59985594650644
10
241.62500000000006
20
-120.69985594650647
42
-0.99999999999999989
10
234.62500000000003
20
-120.69985594650647
10
234.62500000000003
20
-119.59985594650645
42
0.41421356237309503
10
233.625
20
-118.59985594650645
10
147.37467891369204
20
-118.59985594650644
42
0.41429903116111411
10
146.37467895626565
20
-119.60014774637943
10
146.37499985099248
20
-120.6998559465066
42
-1.0002918424589928
10
139.37500014900758
20
-120.69985594650647
10
139.37532104373432
20
-119.60014774637942
42
0.41429903116110894
10
138.37532108630791
20
-118.59985594650645
10
52.124999999999986
20
-118.59985594650644
42
0.41421356237309503
10
51.125
20
-119.59985594650644
10
51.125
20
-120.69985594650647
42
-0.99999999999999989
10
44.125000000000007
20
-120.69985594650647
10
44.125
20
-119.59985594650645
42
0.41421356237309503
10
43.125
20
-118.59985594650645
10
1.9999999999999933
20
-118.59985594650645
42
-0.41421356237309548
10
0
20
-116.59985594650647
10
-1.6653345369377348e-15
20
-1.5373559465064635
42
-0.41421356237309542
10
2.0000000000000018
20
0.46264405349353943
10
43.125
20
0.46264405349353943
42
0.41421356237309626
10
44.125000000000007
20
1.4626440534935436
10
44.125
20
2.5626440534935435
42
-0.99999999999999989
10
51.124999999999986
20
2.5626440534935435
10
51.124999999999986
20
1.4626440534935354
42
0.41421356237309392
10
52.124999999999986
20
0.46264405349353943
10
138.37532108630793
20
0.46264405349353943
42
0.41429903116110967
10
139.37532104373435
20
1.4629358533665355
10
139.37500014900758
20
2.5626440534936803
42
-1.0002918424589928
10
146.37499985099248
20
2.5626440534935613
10
146.37467895626568
20
1.4629358533665446
42
0.41429903116111222
10
147.37467891369209
20
0.46264405349353943
10
233.625
20
0.46264405349353943
42
0.41421356237309503
10
234.62500000000003
20
1.4626440534935394
10
234.62500000000003
20
2.5626440534935613
42
-0.99999999999999989
10
241.62500000000006
20
2.5626440534935613
10
241.625
20
1.4626440534935394
42
0.41421356237309515
10
242.62500000000003
20
0.46264405349353943
10
314.58749999999998
20
0.46264405349353943
42
0.41421356237309503
10
315.58749999999998
20
1.4626440534935394
10
315.58749999999998
20
2.5626440534935435
42
-0.99999999999999989
10
322.58749999999998
20
2.5626440534935435
10
322.58749999999998
20
1.4626440534935394
42
0.41421356237309515
10
323.58749999999998
20
0.46264405349353943
10
345.66250000000002
20
0.46264405349356691
42
-0.41421356237307433
10
347.66250000000008
20
-1.5373559465064623
0
CIRCLE
5
113
100
AcDbEntity
8
0
100
AcDbCircle
10
319.08749999999998
20
2.5626440534935435
30
0
40
1.0000000000000142
210
0
220
0
230
1
0
CIRCLE
5
114
100
AcDbEntity
8
0
100
AcDbCircle
10
47.625
20
-120.69985594650647
30
0
40
0.99999999999999645
210
0
220
0
230
1
0
CIRCLE
5
115
100
AcDbEntity
8
0
100
AcDbCircle
10
319.08749999999998
20
-120.69985594650646
30
0
40
1.0000000000000142
210
0
220
0
230
1
0
CIRCLE
5
116
100
AcDbEntity
8
0
100
AcDbCircle
10
47.624999999999993
20
2.5626440534935435
30
0
40
0.99999999999999645
210
0
220
0
230
1
0
CIRCLE
5
117
100
AcDbEntity
8
0
100
AcDbCircle
10
238.12500000000003
20
2.5626440534935613
30
0
40
1.0000000000000142
210
0
220
0
230
1
0
CIRCLE
5
118
100
AcDbEntity
8
0
100
AcDbCircle
10
142.875
20
-120.70087724606198
30
0
40
1.0000000000000142
210
0
220
0
230
1
0
CIRCLE
5
119
100
AcDbEntity
8
0
100
AcDbCircle
10
238.12500000000003
20
-120.69985594650647
30
0
40
1.0000000000000142
210
0
220
0
230
1
0
CIRCLE
5
120
100
AcDbEntity
8
0
100
AcDbCircle
10
142.875
20
2.5636653530490654
30
0
40
1.0000000000000142
210
0
220
0
230
1
0
LWPOLYLINE
5
121
100
AcDbEntity
8
0
100
AcDbPolyline
90
8
70
1
43
0.0
10
240.65000000000003
20
-102.57485594650646
42
-0.41421356237310542
10
241.15000000000003
20
-102.07485594650646
10
254.15000000000003
20
-102.07485594650646
42
-0.41421356237313667
10
254.65000000000003
20
-102.57485594650646
10
254.65000000000003
20
-115.57485594650645
42
-0.41421356237309503
10
254.15000000000003
20
-116.07485594650646
10
241.15000000000003
20
-116.07485594650643
42
-0.4142135623730846
10
240.65000000000001
20
-115.57485594650645
0
LWPOLYLINE
5
122
100
AcDbEntity
8
0
100
AcDbPolyline
90
8
70
1
43
0.0
10
69.200000000000003
20
-45.424855946506462
10
69.200000000000003
20
-58.424855946506469
42
0.41421356237310542
10
69.700000000000003
20
-58.924855946506455
10
82.700000000000017
20
-58.924855946506469
42
0.41421356237310542
10
83.200000000000003
20
-58.424855946506469
10
83.200000000000017
20
-45.424855946506462
42
0.41421356237307944
10
82.700000000000017
20
-44.924855946506469
10
69.700000000000003
20
-44.924855946506462
42
0.41421356237310542
0
LWPOLYLINE
5
123
100
AcDbEntity
8
0
100
AcDbPolyline
90
8
70
1
43
0.0
10
35.862499999999997
20
-64.474855946506452
42
-0.41421356237309764
10
36.362499999999997
20
-63.974855946506459
10
49.362500000000004
20
-63.974855946506459
42
-0.41421356237309503
10
49.862499999999997
20
-64.474855946506452
10
49.862499999999997
20
-77.474855946506466
42
-0.41421356237309503
10
49.362500000000004
20
-77.974855946506466
10
36.362499999999997
20
-77.974855946506452
42
-0.41421356237309764
10
35.862500000000004
20
-77.474855946506466
0
LWPOLYLINE
5
124
100
AcDbEntity
8
0
100
AcDbPolyline
90
8
70
1
43
0.0
10
29.869249999999997
20
-84.524855946506449
42
-0.41421356237307161
10
30.369250000000001
20
-84.024855946506435
10
36.369250000000001
20
-84.024855946506449
42
-0.4142135623730846
10
36.869250000000001
20
-84.524855946506449
10
36.869250000000008
20
-98.524855946506449
42
-0.41421356237309503
10
36.369250000000001
20
-99.024855946506449
10
30.369250000000001
20
-99.024855946506449
42
-0.41421356237310542
10
29.869250000000001
20
-98.524855946506449
0
LWPOLYLINE
5
125
100
AcDbEntity
8
0
100
AcDbPolyline
90
8
70
1
43
0.0
10
1.6874999999999947
20
-102.57485594650646
42
-0.41421356237309437
10
2.1875000000000004
20
-102.07485594650646
10
3.1875000000000009
20
-102.07485594650643
42
-0.41421356237310542
10
3.6875000000000009
20
-102.57485594650646
10
3.6875000000000071
20
-115.57485594650645
42
-0.41421356237307355
10
3.1875000000000009
20
-116.07485594650646
10
2.1875000000000004
20
-116.07485594650646
42
-0.41421356237307422
10
1.6875000000000007
20
-115.57485594650645
0
LWPOLYLINE
5
126
100
AcDbEntity
8
0
100
AcDbPolyline
90
8
70
1
43
0.0
10
154.92500000000001
20
-26.374855946506457
10
154.92500000000001
20
-39.37485594650645
42
0.41421356237307422
10
155.42500000000001
20
-39.874855946506472
10
168.42500000000001
20
-39.874855946506457
42
0.41421356237312362
10
168.92500000000001
20
-39.37485594650645
10
168.92500000000001
20
-26.374855946506457
42
0.41421356237310025
10
168.42500000000001
20
-25.874855946506461
10
155.42500000000001
20
-25.874855946506461
42
0.41421356237310025
0
LWPOLYLINE
5
127
100
AcDbEntity
8
0
100
AcDbPolyline
90
8
70
1
43
0.0
10
331.13750000000005
20
-102.57485594650646
42
-0.4142135623732095
10
331.63749999999999
20
-102.07485594650646
10
344.63749999999999
20
-102.07485594650647
42
-0.4142135623730222
10
345.13749999999993
20
-102.57485594650646
10
345.13749999999993
20
-115.57485594650645
42
-0.41421356237318868
10
344.63749999999999
20
-116.07485594650646
10
331.63749999999999
20
-116.07485594650643
42
-0.4142135623730222
10
331.13750000000005
20
-115.57485594650645
0
LWPOLYLINE
5
128
100
AcDbEntity
8
0
100
AcDbPolyline
90
8
70
1
43
0.0
10
164.44999999999999
20
-2.5623559465064605
10
164.44999999999999
20
-15.562355946506461
42
0.41421356237313406
10
164.95000000000002
20
-16.062355946506468
10
177.94999999999999
20
-16.062355946506461
42
0.4142135623730781
10
178.44999999999999
20
-15.562355946506461
10
178.44999999999999
20
-2.56235594650646
42
0.41421356237313306
10
177.94999999999999
20
-2.06235594650646
10
164.95000000000002
20
-2.06235594650646
42
0.41421356237307777
0
LWPOLYLINE
5
129
100
AcDbEntity
8
0
100
AcDbPolyline
90
8
70
1
43
0.0
10
54.912500000000001
20
-102.57485594650646
42
-0.41421356237309503
10
55.412500000000009
20
-102.07485594650646
10
68.412499999999994
20
-102.07485594650646
42
-0.41421356237308982
10
68.912499999999994
20
-102.57485594650646
10
68.912500000000009
20
-115.57485594650645
42
-0.41421356237307422
10
68.412499999999994
20
-116.07485594650646
10
55.412500000000009
20
-116.07485594650643
42
-0.41421356237310025
10
54.912500000000009
20
-115.57485594650645
0
LWPOLYLINE
5
130
100
AcDbEntity
8
0
100
AcDbPolyline
90
8
70
1
43
0.0
10
325.58749999999998
20
-25.874855946506472
42
-0.4142135623730222
10
326.08749999999992
20
-26.374855946506457
10
326.08749999999992
20
-39.37485594650645
42
-0.41421356237319129
10
325.58749999999998
20
-39.874855946506457
10
312.58749999999998
20
-39.874855946506472
42
-0.41421356237310281
10
312.08749999999998
20
-39.37485594650645
10
312.08749999999998
20
-26.374855946506457
42
-0.41421356237304563
10
312.58749999999998
20
-25.874855946506461
0
LWPOLYLINE
5
131
100
AcDbEntity
8
0
100
AcDbPolyline
90
8
70
1
43
0.0
10
188.26250000000002
20
-64.474855946506452
42
-0.4142135623730222
10
188.76249999999999
20
-63.974855946506459
10
201.76249999999999
20
-63.974855946506452
42
-0.41421356237313667
10
202.26249999999999
20
-64.474855946506452
10
202.26250000000005
20
-77.474855946506466
42
-0.41421356237307422
10
201.76249999999999
20
-77.974855946506466
10
188.76249999999999
20
-77.974855946506452
42
-0.41421356237312623
10
188.26249999999999
20
-77.474855946506466
0
LWPOLYLINE
5
132
100
AcDbEntity
8
0
100
AcDbPolyline
90
8
70
1
43
0.0
10
50.150000000000006
20
-45.424855946506462
42
-0.41421356237309503
10
50.650000000000006
20
-44.924855946506462
10
63.650000000000006
20
-44.924855946506462
42
-0.41421356237310542
10
64.150000000000006
20
-45.424855946506462
10
64.150000000000006
20
-58.424855946506469
42
-0.41421356237310542
10
63.650000000000006
20
-58.924855946506469
10
50.650000000000006
20
-58.924855946506469
42
-0.41421356237309503
10
50.150000000000006
20
-58.424855946506469
0
LWPOLYLINE
5
133
100
AcDbEntity
8
0
100
AcDbPolyline
90
8
70
1
43
0.0
10
164.44999999999996
20
-45.424855946506462
42
-0.41421356237307422
10
164.95000000000002
20
-44.924855946506462
10
177.94999999999999
20
-44.924855946506455
42
-0.41421356237313667
10
178.44999999999999
20
-45.424855946506462
10
178.45000000000002
20
-58.424855946506469
42
-0.41421356237307422
10
177.94999999999999
20
-58.924855946506469
10
164.95000000000002
20
-58.924855946506476
42
-0.41421356237313667
10
164.44999999999999
20
-58.424855946506469
0
LWPOLYLINE
5
134
100
AcDbEntity
8
0
100
AcDbPolyline
90
8
70
1
43
0.0
10
331.13750000000005
20
-26.374855946506457
10
331.13750000000005
20
-39.37485594650645
42
0.4142135623730222
10
331.63749999999999
20
-39.874855946506472
10
344.63749999999999
20
-39.874855946506457
42
0.41421356237319129
10
345.13749999999993
20
-39.37485594650645
10
345.13749999999993
20
-26.374855946506457
42
0.4142135623730222
10
344.63749999999999
20
-25.874855946506461
10
331.63749999999999
20
-25.874855946506461
42
0.4142135623731939
0
LWPOLYLINE
5
135
100
AcDbEntity
8
0
100
AcDbPolyline
90
8
70
1
43
0.0
10
306.53750000000002
20
-2.0623559465064418
42
-0.41421356237310153
10
307.03750000000002
20
-2.5623559465064605
10
307.03750000000002
20
-15.562355946506461
42
-0.41421356237304691
10
306.53750000000002
20
-16.062355946506461
10
293.53750000000002
20
-16.062355946506447
42
-0.41421356237312362
10
293.03750000000002
20
-15.562355946506461
10
293.03750000000008
20
-2.5623559465064605
42
-0.41421356237302576
10
293.53750000000002
20
-2.06235594650646
0
LWPOLYLINE
5
136
100
AcDbEntity
8
0
100
AcDbPolyline
90
8
70
1
43
0.0
10
212.07499999999999
20
-26.374855946506457
42
-0.41421356237304563
10
212.57499999999999
20
-25.874855946506461
10
225.57500000000002
20
-25.874855946506461
42
-0.41421356237313145
10
226.07500000000002
20
-26.374855946506457
10
226.07500000000002
20
-39.37485594650645
42
-0.41421356237313406
10
225.57500000000002
20
-39.874855946506457
10
212.57499999999999
20
-39.874855946506472
42
-0.41421356237310281
10
212.07499999999999
20
-39.37485594650645
0
LWPOLYLINE
5
137
100
AcDbEntity
8
0
100
AcDbPolyline
90
8
70
1
43
0.0
10
216.83750000000003
20
-83.524855946506449
42
-0.41421356237310542
10
217.33750000000001
20
-83.024855946506449
10
230.33750000000001
20
-83.024855946506449
42
-0.41421356237313667
10
230.83750000000003
20
-83.524855946506449
10
230.83750000000003
20
-96.524855946506477
42
-0.41421356237309503
10
230.33750000000001
20
-97.024855946506477
10
217.33750000000001
20
-97.024855946506463
42
-0.4142135623730846
10
216.83750000000001
20
-96.524855946506477
0
LWPOLYLINE
5
138
100
AcDbEntity
8
0
100
AcDbPolyline
90
8
70
1
43
0.0
10
107.29999999999998
20
-2.56235594650646
42
-0.41421356237310542
10
107.80000000000001
20
-2.06235594650646
10
120.8
20
-2.0623559465064538
42
-0.41421356237307355
10
121.30000000000001
20
-2.5623559465064605
10
121.29999999999998
20
-15.562355946506461
42
-0.41421356237307549
10
120.8
20
-16.062355946506461
10
107.80000000000001
20
-16.062355946506472
42
-0.41421356237309631
10
107.30000000000001
20
-15.562355946506461
0
LWPOLYLINE
5
139
100
AcDbEntity
8
0
100
AcDbPolyline
90
8
70
1
43
0.0
10
293.03750000000008
20
-45.424855946506462
42
-0.4142135623730222
10
293.53750000000002
20
-44.924855946506462
10
306.53750000000002
20
-44.924855946506469
42
-0.41421356237312623
10
307.03750000000002
20
-45.424855946506462
10
307.03750000000002
20
-58.424855946506469
42
-0.4142135623730222
10
306.53750000000002
20
-58.924855946506469
10
293.53750000000002
20
-58.924855946506455
42
-0.41421356237312623
10
293.03750000000002
20
-58.424855946506469
0
LWPOLYLINE
5
140
100
AcDbEntity
8
0
100
AcDbPolyline
90
8
70
1
43
0.0
10
27.268750000000001
20
-64.474855946506452
42
-0.41421356237309764
10
27.768750000000004
20
-63.974855946506459
10
28.768750000000001
20
-63.974855946506466
42
-0.41421356237309764
10
29.268749999999997
20
-64.474855946506452
10
29.268750000000004
20
-77.474855946506466
42
-0.41421356237309764
10
28.768750000000001
20
-77.974855946506466
10
27.768750000000004
20
-77.974855946506452
42
-0.41421356237309764
10
27.268750000000004
20
-77.474855946506466
0
LWPOLYLINE
5
141
100
AcDbEntity
8
0
100
AcDbPolyline
90
8
70
1
43
0.0
10
21.575000000000003
20
-26.374855946506457
42
-0.41421356237309503
10
22.074999999999999
20
-25.874855946506461
10
35.075000000000003
20
-25.874855946506461
42
-0.41421356237309503
10
35.575000000000003
20
-26.374855946506457
10
35.575000000000003
20
-39.37485594650645
42
-0.41421356237310281
10
35.075000000000003
20
-39.874855946506457
10
22.074999999999999
20
-39.87485594650645
42
-0.41421356237309503
10
21.575000000000003
20
-39.37485594650645
0
LWPOLYLINE
5
142
100
AcDbEntity
8
0
100
AcDbPolyline
90
8
70
1
43
0.0
10
275.13799999999998
20
-27.374855946506461
42
-0.41421356237305079
10
275.63800000000003
20
-26.874855946506461
10
281.63799999999998
20
-26.874855946506457
42
-0.41421356237313406
10
282.13799999999998
20
-27.374855946506461
10
282.13800000000003
20
-41.374855946506472
42
-0.41421356237307422
10
281.63799999999998
20
-41.874855946506464
10
275.63800000000003
20
-41.874855946506457
42
-0.41421356237312623
10
275.13799999999998
20
-41.374855946506472
0
LWPOLYLINE
5
143
100
AcDbEntity
8
0
100
AcDbPolyline
90
8
70
1
43
0.0
10
207.31250000000003
20
-2.56235594650646
42
-0.41421356237302542
10
207.8125
20
-2.06235594650646
10
220.8125
20
-2.0623559465064591
42
-0.41421356237313306
10
221.3125
20
-2.5623559465064605
10
221.31250000000006
20
-15.562355946506461
42
-0.4142135623730781
10
220.8125
20
-16.062355946506461
10
207.8125
20
-16.062355946506447
42
-0.41421356237312362
10
207.3125
20
-15.562355946506461
0
LWPOLYLINE
5
144
100
AcDbEntity
8
0
100
AcDbPolyline
90
8
70
1
43
0.0
10
54.125000000000007
20
-25.874855946506461
42
-0.41421356237309503
10
54.625
20
-26.374855946506457
10
54.625
20
-39.37485594650645
42
-0.41421356237308721
10
54.125000000000007
20
-39.874855946506457
10
41.125
20
-39.87485594650645
42
-0.41421356237309503
10
40.625
20
-39.37485594650645
10
40.625
20
-26.374855946506457
42
-0.41421356237309503
10
41.125
20
-25.874855946506461
0
LWPOLYLINE
5
145
100
AcDbEntity
8
0
100
AcDbPolyline
90
8
70
1
43
0.0
10
312.08750000000003
20
-45.424855946506462
42
-0.4142135623730222
10
312.58749999999998
20
-44.924855946506462
10
325.58749999999998
20
-44.924855946506469
42
-0.4142135623730222
10
326.08749999999992
20
-45.424855946506462
10
326.08749999999992
20
-58.424855946506469
42
-0.41421356237318868
10
325.58749999999998
20
-58.924855946506469
10
312.58749999999998
20
-58.924855946506455
42
-0.41421356237312623
10
312.08749999999998
20
-58.424855946506469
0
LWPOLYLINE
5
146
100
AcDbEntity
8
0
100
AcDbPolyline
90
8
70
1
43
0.0
10
88.250000000000014
20
-45.424855946506462
42
-0.41421356237312101
10
88.75
20
-44.924855946506462
10
101.75
20
-44.924855946506447
42
-0.41421356237310025
10
102.25000000000001
20
-45.424855946506462
10
102.25
20
-58.424855946506469
42
-0.41421356237312101
10
101.75
20
-58.924855946506469
10
88.75
20
-58.924855946506483
42
-0.41421356237310025
10
88.25
20
-58.424855946506469
0
LWPOLYLINE
5
147
100
AcDbEntity
8
0
100
AcDbPolyline
90
8
70
1
43
0.0
10
59.675000000000011
20
-26.374855946506457
42
-0.41421356237309764
10
60.174999999999997
20
-25.874855946506461
10
73.174999999999997
20
-25.874855946506461
42
-0.41421356237309503
10
73.674999999999997
20
-26.374855946506457
10
73.674999999999997
20
-39.37485594650645
42
-0.41421356237308721
10
73.174999999999997
20
-39.874855946506457
10
60.174999999999997
20
-39.874855946506457
42
-0.41421356237309764
10
59.675000000000004
20
-39.37485594650645
0
LWPOLYLINE
5
148
100
AcDbEntity
8
0
100
AcDbPolyline
90
8
70
1
43
0.0
10
16.024999999999999
20
-2.0623559465064583
42
-0.41421356237309309
10
16.525000000000002
20
-2.5623559465064605
10
16.525000000000002
20
-15.562355946506461
42
-0.41421356237309243
10
16.024999999999999
20
-16.062355946506461
10
3.0249999999999999
20
-16.062355946506461
42
-0.4142135623730947
10
2.5249999999999999
20
-15.562355946506461
10
2.5249999999999999
20
-2.5623559465064605
42
-0.4142135623730947
10
3.0249999999999999
20
-2.06235594650646
0
LWPOLYLINE
5
149
100
AcDbEntity
8
0
100
AcDbPolyline
90
8
70
1
43
0.0
10
1.6874999999999993
20
-45.424855946506462
42
-0.41421356237309687
10
2.1875000000000004
20
-44.924855946506462
10
3.1875000000000009
20
-44.924855946506462
42
-0.41421356237309664
10
3.6875000000000009
20
-45.424855946506462
10
3.6875000000000027
20
-58.424855946506469
42
-0.41421356237309698
10
3.1875000000000009
20
-58.924855946506469
10
2.1875000000000004
20
-58.924855946506469
42
-0.41421356237309687
10
1.6875000000000007
20
-58.424855946506469
0
LWPOLYLINE
5
150
100
AcDbEntity
8
0
100
AcDbPolyline
90
8
70
1
43
0.0
10
64.4375
20
-2.56235594650646
42
-0.41421356237309664
10
64.9375
20
-2.06235594650646
10
77.9375
20
-2.0623559465064627
42
-0.41421356237309437
10
78.4375
20
-2.5623559465064605
10
78.4375
20
-15.562355946506461
42
-0.4142135623730937
10
77.9375
20
-16.062355946506461
10
64.9375
20
-16.062355946506464
42
-0.41421356237309764
10
64.4375
20
-15.562355946506461
0
LWPOLYLINE
5
151
100
AcDbEntity
8
0
100
AcDbPolyline
90
8
70
1
43
0.0
10
77.9375
20
-83.024855946506449
42
-0.41421356237308982
10
78.4375
20
-83.524855946506449
10
78.437500000000014
20
-96.524855946506477
42
-0.41421356237307422
10
77.9375
20
-97.024855946506477
10
64.9375
20
-97.024855946506463
42
-0.41421356237310542
10
64.4375
20
-96.524855946506477
10
64.437499999999986
20
-83.524855946506449
42
-0.41421356237310025
10
64.9375
20
-83.024855946506449
0
LWPOLYLINE
5
152
100
AcDbEntity
8
0
100
AcDbPolyline
90
8
70
1
43
0.0
10
83.487499999999983
20
-83.524855946506449
42
-0.41421356237309503
10
83.987499999999997
20
-83.024855946506449
10
96.987500000000011
20
-83.024855946506449
42
-0.41421356237309503
10
97.487500000000011
20
-83.524855946506449
10
97.487500000000011
20
-96.524855946506477
42
-0.41421356237307422
10
96.987500000000011
20
-97.024855946506477
10
83.987499999999997
20
-97.024855946506477
42
-0.41421356237307422
10
83.487499999999983
20
-96.524855946506477
0
LWPOLYLINE
5
153
100
AcDbEntity
8
0
100
AcDbPolyline
90
8
70
1
43
0.0
10
135.08750000000001
20
-83.024855946506449
42
-0.41421356237307422
10
135.58750000000001
20
-83.524855946506449
10
135.58750000000001
20
-96.524855946506477
42
-0.4142135623730534
10
135.08750000000001
20
-97.024855946506477
10
122.08750000000002
20
-97.024855946506477
42
-0.41421356237307422
10
121.58750000000001
20
-96.524855946506477
10
121.58750000000001
20
-83.524855946506449
42
-0.41421356237309503
10
122.08750000000002
20
-83.024855946506449
0
LWPOLYLINE
5
154
100
AcDbEntity
8
0
100
AcDbPolyline
90
8
70
1
43
0.0
10
135.875
20
-102.57485594650646
42
-0.41421356237307422
10
136.375
20
-102.07485594650646
10
149.375
20
-102.07485594650646
42
-0.41421356237309503
10
149.875
20
-102.57485594650646
10
149.875
20
-115.57485594650645
42
-0.41421356237307422
10
149.375
20
-116.07485594650646
10
136.375
20
-116.07485594650646
42
-0.4142135623730534
10
135.875
20
-115.57485594650645
0
LWPOLYLINE
5
155
100
AcDbEntity
8
0
100
AcDbPolyline
90
8
70
1
43
0.0
10
159.6875
20
-83.524855946506449
42
-0.41421356237309503
10
160.1875
20
-83.024855946506449
10
173.1875
20
-83.02485594650642
42
-0.41421356237310542
10
173.68750000000003
20
-83.524855946506449
10
173.68750000000006
20
-96.524855946506477
42
-0.4142135623730846
10
173.1875
20
-97.024855946506477
10
160.18750000000006
20
-97.024855946506463
42
-0.4142135623730846
10
159.6875
20
-96.524855946506477
0
LWPOLYLINE
5
156
100
AcDbEntity
8
0
100
AcDbPolyline
90
8
70
1
43
0.0
10
45.387499999999996
20
-83.524855946506449
42
-0.41421356237309503
10
45.887500000000003
20
-83.024855946506449
10
58.88750000000001
20
-83.024855946506449
42
-0.41421356237308982
10
59.387500000000003
20
-83.524855946506449
10
59.387500000000017
20
-96.524855946506477
42
-0.41421356237307422
10
58.88750000000001
20
-97.024855946506477
10
45.887500000000003
20
-97.024855946506463
42
-0.41421356237310025
10
45.387500000000003
20
-96.524855946506477
0
LWPOLYLINE
5
157
100
AcDbEntity
8
0
100
AcDbPolyline
90
8
70
1
43
0.0
10
197.78750000000002
20
-83.524855946506449
42
-0.41421356237310542
10
198.28749999999999
20
-83.024855946506449
10
211.28749999999999
20
-83.024855946506449
42
-0.41421356237313667
10
211.78750000000002
20
-83.524855946506449
10
211.78750000000002
20
-96.524855946506477
42
-0.41421356237309503
10
211.28749999999999
20
-97.024855946506477
10
198.28749999999999
20
-97.024855946506463
42
-0.4142135623730846
10
197.78749999999999
20
-96.524855946506477
0
LWPOLYLINE
5
158
100
AcDbEntity
8
0
100
AcDbPolyline
90
8
70
1
43
0.0
10
45.387500000000003
20
-2.56235594650646
42
-0.41421356237309404
10
45.887500000000003
20
-2.06235594650646
10
58.88750000000001
20
-2.0623559465064627
42
-0.41421356237309437
10
59.387500000000003
20
-2.5623559465064605
10
59.387500000000003
20
-15.562355946506461
42
-0.4142135623730937
10
58.88750000000001
20
-16.062355946506461
10
45.887500000000003
20
-16.062355946506457
42
-0.41421356237309503
10
45.387500000000003
20
-15.562355946506461
0
LWPOLYLINE
5
159
100
AcDbEntity
8
0
100
AcDbPolyline
90
8
70
1
43
0.0
10
325.58749999999998
20
-83.024855946506463
42
-0.4142135623730222
10
326.08749999999992
20
-83.524855946506449
10
326.08749999999992
20
-96.524855946506477
42
-0.41421356237318868
10
325.58749999999998
20
-97.024855946506477
10
312.58749999999998
20
-97.024855946506463
42
-0.4142135623730846
10
312.08749999999998
20
-96.524855946506477
10
312.08750000000003
20
-83.524855946506449
42
-0.41421356237310542
10
312.58749999999998
20
-83.024855946506449
0
LWPOLYLINE
5
160
100
AcDbEntity
8
0
100
AcDbPolyline
90
8
70
1
43
0.0
10
244.11824999999999
20
-84.524855946506449
42
-0.41421356237309503
10
244.61825000000002
20
-84.024855946506435
10
250.61824999999999
20
-84.024855946506449
42
-0.4142135623730846
10
251.11824999999999
20
-84.524855946506449
10
251.11824999999996
20
-98.524855946506449
42
-0.41421356237310542
10
250.61824999999999
20
-99.024855946506449
10
244.61825000000002
20
-99.024855946506449
42
-0.41421356237313667
10
244.11824999999999
20
-98.524855946506449
0
LWPOLYLINE
5
161
100
AcDbEntity
8
0
100
AcDbPolyline
90
8
70
1
43
0.0
10
2.5250000000000004
20
-26.374855946506457
42
-0.4142135623730957
10
3.0249999999999999
20
-25.874855946506461
10
16.024999999999999
20
-25.874855946506461
42
-0.41421356237309503
10
16.525000000000002
20
-26.374855946506457
10
16.525000000000002
20
-39.37485594650645
42
-0.41421356237309892
10
16.024999999999999
20
-39.874855946506457
10
3.0249999999999999
20
-39.87485594650645
42
-0.41421356237309537
10
2.5249999999999999
20
-39.37485594650645
0
LWPOLYLINE
5
162
100
AcDbEntity
8
0
100
AcDbPolyline
90
8
70
1
43
0.0
10
89.225000000000009
20
-114.57485594650647
42
-0.4142135623730534
10
88.725000000000009
20
-115.07485594650647
10
82.724999999999994
20
-115.07485594650647
42
-0.4142135623730534
10
82.22499999999998
20
-114.57485594650647
10
82.22499999999998
20
-100.57485594650646
42
-0.41421356237307422
10
82.724999999999994
20
-100.07485594650646
10
88.725000000000009
20
-100.07485594650646
42
-0.41421356237307422
10
89.225000000000009
20
-100.57485594650646
0
LWPOLYLINE
5
163
100
AcDbEntity
8
0
100
AcDbPolyline
90
8
70
1
43
0.0
10
140.63749999999999
20
-83.524855946506449
42
-0.41421356237309503
10
141.13749999999999
20
-83.024855946506449
10
154.13749999999999
20
-83.024855946506449
42
-0.41421356237309503
10
154.63750000000002
20
-83.524855946506449
10
154.63750000000002
20
-96.524855946506477
42
-0.41421356237307422
10
154.13749999999999
20
-97.024855946506477
10
141.13749999999999
20
-97.024855946506477
42
-0.41421356237307422
10
140.63749999999999
20
-96.524855946506477
0
LWPOLYLINE
5
164
100
AcDbEntity
8
0
100
AcDbPolyline
90
8
70
1
43
0.0
10
24.887499999999999
20
-102.57485594650646
42
-0.41421356237309243
10
25.387500000000003
20
-102.07485594650646
10
26.387499999999999
20
-102.07485594650646
42
-0.41421356237310542
10
26.887499999999996
20
-102.57485594650646
10
26.887500000000003
20
-115.57485594650645
42
-0.41421356237307161
10
26.387499999999999
20
-116.07485594650646
10
25.387500000000003
20
-116.07485594650643
42
-0.41421356237310025
10
24.887500000000003
20
-115.57485594650645
0
LWPOLYLINE
5
165
100
AcDbEntity
8
0
100
AcDbPolyline
90
8
70
1
43
0.0
10
331.13750000000005
20
-45.424855946506462
10
331.13750000000005
20
-58.424855946506469
42
0.4142135623730222
10
331.63749999999999
20
-58.92485594650644
10
344.63749999999999
20
-58.924855946506469
42
0.41421356237318868
10
345.13749999999993
20
-58.424855946506469
10
345.13749999999993
20
-45.424855946506462
42
0.4142135623730222
10
344.63749999999999
20
-44.924855946506469
10
331.63749999999999
20
-44.924855946506462
42
0.41421356237318868
0
LWPOLYLINE
5
166
100
AcDbEntity
8
0
100
AcDbPolyline
90
8
70
1
43
0.0
10
331.13750000000005
20
-2.56235594650646
42
-0.4142135623731929
10
331.63749999999999
20
-2.06235594650646
10
344.63749999999999
20
-2.0623559465064756
42
-0.41421356237301926
10
345.13749999999993
20
-2.5623559465064605
10
345.13749999999993
20
-15.562355946506461
42
-0.4142135623731939
10
344.63749999999999
20
-16.062355946506461
10
331.63749999999999
20
-16.062355946506447
42
-0.41421356237301959
10
331.13750000000005
20
-15.562355946506461
0
LWPOLYLINE
5
167
100
AcDbEntity
8
0
100
AcDbPolyline
90
8
70
1
43
0.0
10
116.03749999999999
20
-83.024855946506449
42
-0.41421356237307422
10
116.53750000000001
20
-83.524855946506449
10
116.53750000000001
20
-96.524855946506477
42
-0.4142135623730534
10
116.03749999999999
20
-97.024855946506477
10
103.03750000000001
20
-97.024855946506477
42
-0.41421356237307422
10
102.53749999999999
20
-96.524855946506477
10
102.53749999999999
20
-83.524855946506449
42
-0.41421356237309503
10
103.03750000000001
20
-83.024855946506449
0
LWPOLYLINE
5
168
100
AcDbEntity
8
0
100
AcDbPolyline
90
8
70
1
43
0.0
10
269.22500000000008
20
-2.56235594650646
42
-0.41421356237302542
10
269.72500000000002
20
-2.06235594650646
10
282.72500000000002
20
-2.0623559465064591
42
-0.41421356237313306
10
283.22500000000002
20
-2.5623559465064605
10
283.22500000000008
20
-15.562355946506461
42
-0.4142135623730781
10
282.72500000000002
20
-16.062355946506461
10
269.72500000000002
20
-16.062355946506447
42
-0.41421356237312362
10
269.22500000000002
20
-15.562355946506461
0
LWPOLYLINE
5
169
100
AcDbEntity
8
0
100
AcDbPolyline
90
8
70
1
43
0.0
10
252.55625000000003
20
-83.524855946506449
42
-0.41421356237313667
10
253.05625000000003
20
-83.024855946506449
10
266.05624999999998
20
-83.024855946506449
42
-0.41421356237313667
10
266.55624999999998
20
-83.524855946506449
10
266.55624999999998
20
-96.524855946506477
42
-0.41421356237309503
10
266.05624999999998
20
-97.024855946506477
10
253.05625000000003
20
-97.024855946506477
42
-0.41421356237309503
10
252.55625000000003
20
-96.524855946506477
0
LWPOLYLINE
5
170
100
AcDbEntity
8
0
100
AcDbPolyline
90
8
70
1
43
0.0
10
202.54999999999998
20
-45.424855946506462
42
-0.41421356237307422
10
203.05000000000004
20
-44.924855946506462
10
216.05000000000004
20
-44.924855946506469
42
-0.41421356237312623
10
216.55000000000004
20
-45.424855946506462
10
216.55000000000001
20
-58.424855946506469
42
-0.4142135623730222
10
216.05000000000004
20
-58.924855946506469
10
203.05000000000004
20
-58.924855946506476
42
-0.41421356237313667
10
202.55000000000001
20
-58.424855946506469
0
LWPOLYLINE
5
171
100
AcDbEntity
8
0
100
AcDbPolyline
90
8
70
1
43
0.0
10
49.312499999999993
20
-102.57485594650646
42
-0.41421356237309503
10
49.8125
20
-102.07485594650646
10
50.812500000000007
20
-102.07485594650646
42
-0.41421356237310542
10
51.312500000000007
20
-102.57485594650646
10
51.312500000000021
20
-115.57485594650643
42
-0.41421356237307944
10
50.812500000000007
20
-116.07485594650646
10
49.8125
20
-116.07485594650643
42
-0.41421356237310025
10
49.3125
20
-115.57485594650645
0
LWPOLYLINE
5
172
100
AcDbEntity
8
0
100
AcDbPolyline
90
8
70
1
43
0.0
10
226.36250000000004
20
-64.474855946506452
42
-0.4142135623730222
10
226.86250000000001
20
-63.974855946506459
10
239.86250000000001
20
-63.974855946506452
42
-0.41421356237313667
10
240.36250000000001
20
-64.474855946506452
10
240.36250000000007
20
-77.474855946506466
42
-0.41421356237307422
10
239.86250000000001
20
-77.974855946506466
10
226.86250000000001
20
-77.974855946506452
42
-0.41421356237312623
10
226.36250000000001
20
-77.474855946506466
0
LWPOLYLINE
5
173
100
AcDbEntity
8
0
100
AcDbPolyline
90
8
70
1
43
0.0
10
173.97499999999997
20
-26.374855946506457
42
-0.41421356237307683
10
174.47500000000002
20
-25.874855946506461
10
187.47499999999999
20
-25.874855946506461
42
-0.41421356237313145
10
187.97499999999999
20
-26.374855946506457
10
187.97499999999999
20
-39.37485594650645
42
-0.41421356237313406
10
187.47499999999999
20
-39.874855946506457
10
174.47500000000002
20
-39.874855946506457
42
-0.41421356237313406
10
173.97500000000002
20
-39.37485594650645
0
LWPOLYLINE
5
174
100
AcDbEntity
8
0
100
AcDbPolyline
90
8
70
1
43
0.0
10
93.012500000000017
20
-64.474855946506452
42
-0.41421356237312101
10
93.512500000000003
20
-63.974855946506459
10
106.51250000000002
20
-63.974855946506437
42
-0.41421356237310025
10
107.01250000000002
20
-64.474855946506452
10
107.0125
20
-77.474855946506466
42
-0.41421356237312101
10
106.51250000000002
20
-77.974855946506466
10
93.512500000000003
20
-77.97485594650648
42
-0.41421356237310025
10
93.012499999999989
20
-77.474855946506466
0
LWPOLYLINE
5
175
100
AcDbEntity
8
0
100
AcDbPolyline
90
8
70
1
43
0.0
10
312.08750000000003
20
-102.57485594650646
42
-0.41421356237310542
10
312.58749999999998
20
-102.07485594650646
10
325.58749999999998
20
-102.07485594650647
42
-0.4142135623730222
10
326.08749999999992
20
-102.57485594650646
10
326.08749999999992
20
-115.57485594650645
42
-0.41421356237318868
10
325.58749999999998
20
-116.07485594650646
10
312.58749999999998
20
-116.07485594650643
42
-0.4142135623730846
10
312.08749999999998
20
-115.57485594650645
0
LWPOLYLINE
5
176
100
AcDbEntity
8
0
100
AcDbPolyline
90
8
70
1
43
0.0
10
283.5625
20
-102.07485594650643
42
-0.41421356237310542
10
284.06250000000006
20
-102.57485594650646
10
284.06250000000006
20
-115.57485594650645
42
-0.4142135623730846
10
283.5625
20
-116.07485594650646
10
282.5625
20
-116.07485594650643
42
-0.4142135623730846
10
282.0625
20
-115.57485594650645
10
282.06250000000006
20
-102.57485594650646
42
-0.41421356237310542
10
282.5625
20
-102.07485594650646
0
LWPOLYLINE
5
177
100
AcDbEntity
8
0
100
AcDbPolyline
90
8
70
1
43
0.0
10
259.69999999999993
20
-26.374855946506457
42
-0.41421356237307683
10
260.19999999999999
20
-25.874855946506461
10
273.19999999999999
20
-25.874855946506443
42
-0.41421356237310025
10
273.69999999999999
20
-26.374855946506457
10
273.70000000000005
20
-39.37485594650645
42
-0.41421356237312362
10
273.19999999999999
20
-39.874855946506457
10
260.19999999999999
20
-39.874855946506457
42
-0.41421356237313406
10
259.69999999999999
20
-39.37485594650645
0
LWPOLYLINE
5
178
100
AcDbEntity
8
0
100
AcDbPolyline
90
8
70
1
43
0.0
10
216.83750000000003
20
-102.57485594650646
42
-0.41421356237310542
10
217.33750000000001
20
-102.07485594650646
10
230.33750000000001
20
-102.07485594650646
42
-0.41421356237313667
10
230.83750000000003
20
-102.57485594650646
10
230.83750000000003
20
-115.57485594650645
42
-0.41421356237309503
10
230.33750000000001
20
-116.07485594650646
10
217.33750000000001
20
-116.07485594650643
42
-0.4142135623730846
10
216.83750000000001
20
-115.57485594650645
0
LWPOLYLINE
5
179
100
AcDbEntity
8
0
100
AcDbPolyline
90
8
70
1
43
0.0
10
149.375
20
-25.874855946506457
42
-0.41421356237309243
10
149.875
20
-26.374855946506457
10
149.875
20
-39.37485594650645
42
-0.41421356237310802
10
149.375
20
-39.874855946506457
10
136.375
20
-39.874855946506457
42
-0.41421356237307422
10
135.875
20
-39.37485594650645
10
135.87500000000003
20
-26.374855946506457
42
-0.41421356237310025
10
136.375
20
-25.874855946506461
0
LWPOLYLINE
5
180
100
AcDbEntity
8
0
100
AcDbPolyline
90
8
70
1
43
0.0
10
14.431249999999991
20
-83.524855946506449
42
-0.41421356237309631
10
14.93125
20
-83.024855946506449
10
27.931249999999999
20
-83.024855946506449
42
-0.41421356237310542
10
28.431249999999999
20
-83.524855946506449
10
28.431250000000002
20
-96.524855946506477
42
-0.41421356237307161
10
27.931249999999999
20
-97.024855946506477
10
14.93125
20
-97.024855946506463
42
-0.41421356237307549
10
14.43125
20
-96.524855946506477
0
LWPOLYLINE
5
181
100
AcDbEntity
8
0
100
AcDbPolyline
90
8
70
1
43
0.0
10
193.02499999999998
20
-26.374855946506457
42
-0.41421356237307683
10
193.52500000000003
20
-25.874855946506461
10
206.52500000000003
20
-25.874855946506443
42
-0.41421356237310025
10
207.02500000000003
20
-26.374855946506457
10
207.02500000000009
20
-39.37485594650645
42
-0.41421356237312362
10
206.52500000000003
20
-39.874855946506457
10
193.52500000000003
20
-39.874855946506457
42
-0.41421356237313406
10
193.02500000000003
20
-39.37485594650645
0
LWPOLYLINE
5
182
100
AcDbEntity
8
0
100
AcDbPolyline
90
8
70
1
43
0.0
10
258.86250000000007
20
-102.57485594650646
42
-0.41421356237310542
10
259.36250000000001
20
-102.07485594650646
10
260.36250000000001
20
-102.07485594650643
42
-0.41421356237310542
10
260.86250000000001
20
-102.57485594650646
10
260.86250000000007
20
-115.57485594650645
42
-0.4142135623730846
10
260.36250000000001
20
-116.07485594650646
10
259.36250000000001
20
-116.07485594650643
42
-0.4142135623730846
10
258.86250000000001
20
-115.57485594650645
0
LWPOLYLINE
5
183
100
AcDbEntity
8
0
100
AcDbPolyline
90
8
70
1
43
0.0
10
234.4375
20
-102.57485594650646
42
-0.41421356237313667
10
234.93750000000003
20
-102.07485594650646
10
235.9375
20
-102.07485594650643
42
-0.41421356237310542
10
236.4375
20
-102.57485594650646
10
236.43750000000006
20
-115.57485594650645
42
-0.4142135623730846
10
235.9375
20
-116.07485594650646
10
234.93750000000003
20
-116.07485594650646
42
-0.41421356237309503
10
234.4375
20
-115.57485594650645
0
LWPOLYLINE
5
184
100
AcDbEntity
8
0
100
AcDbPolyline
90
8
70
1
43
0.0
10
293.03750000000002
20
-26.374855946506457
42
-0.41421356237304563
10
293.53750000000002
20
-25.874855946506461
10
306.53750000000002
20
-25.874855946506443
42
-0.41421356237310025
10
307.03750000000002
20
-26.374855946506457
10
307.03750000000008
20
-39.37485594650645
42
-0.41421356237312362
10
306.53750000000002
20
-39.874855946506457
10
293.53750000000002
20
-39.874855946506472
42
-0.41421356237310281
10
293.03750000000002
20
-39.37485594650645
0
LWPOLYLINE
5
185
100
AcDbEntity
8
0
100
AcDbPolyline
90
8
70
1
43
0.0
10
251.262
20
-27.374855946506461
42
-0.41421356237305079
10
251.762
20
-26.874855946506461
10
257.76200000000006
20
-26.87485594650644
42
-0.41421356237310281
10
258.26200000000006
20
-27.374855946506461
10
258.262
20
-41.374855946506472
42
-0.4142135623730222
10
257.76200000000006
20
-41.874855946506464
10
251.762
20
-41.874855946506457
42
-0.41421356237312623
10
251.262
20
-41.374855946506472
0
LWPOLYLINE
5
186
100
AcDbEntity
8
0
100
AcDbPolyline
90
8
70
1
43
0.0
10
73.962500000000006
20
-64.474855946506452
42
-0.41421356237310542
10
74.462500000000006
20
-63.974855946506459
10
87.462500000000006
20
-63.974855946506437
42
-0.41421356237307944
10
87.96250000000002
20
-64.474855946506452
10
87.962500000000006
20
-77.474855946506466
42
-0.41421356237310542
10
87.46250000000002
20
-77.974855946506466
10
74.462500000000006
20
-77.974855946506466
42
-0.41421356237310542
10
73.962500000000006
20
-77.474855946506466
0
LWPOLYLINE
5
187
100
AcDbEntity
8
0
100
AcDbPolyline
90
8
70
1
43
0.0
10
169.21249999999998
20
-64.474855946506452
42
-0.41421356237307422
10
169.71250000000001
20
-63.974855946506459
10
182.71250000000003
20
-63.974855946506466
42
-0.41421356237312623
10
183.21250000000003
20
-64.474855946506452
10
183.21249999999998
20
-77.474855946506466
42
-0.4142135623730222
10
182.71250000000003
20
-77.974855946506466
10
169.71250000000001
20
-77.974855946506466
42
-0.41421356237313667
10
169.21250000000001
20
-77.474855946506466
0
LWPOLYLINE
5
188
100
AcDbEntity
8
0
100
AcDbPolyline
90
8
70
1
43
0.0
10
131.11250000000004
20
-64.474855946506452
42
-0.41421356237312101
10
131.61250000000001
20
-63.974855946506459
10
144.61250000000001
20
-63.974855946506437
42
-0.41421356237307944
10
145.11250000000001
20
-64.474855946506452
10
145.11250000000001
20
-77.474855946506466
42
-0.41421356237310542
10
144.61250000000001
20
-77.974855946506466
10
131.61250000000001
20
-77.97485594650648
42
-0.41421356237310025
10
131.11250000000001
20
-77.474855946506466
0
LWPOLYLINE
5
189
100
AcDbEntity
8
0
100
AcDbPolyline
90
8
70
1
43
0.0
10
4.0687499999999996
20
-64.474855946506452
42
-0.41421356237309664
10
4.5687500000000005
20
-63.974855946506459
10
5.5687500000000014
20
-63.974855946506459
42
-0.41421356237309631
10
6.0687500000000014
20
-64.474855946506452
10
6.0687500000000005
20
-77.474855946506466
42
-0.4142135623730957
10
5.5687500000000014
20
-77.974855946506466
10
4.5687500000000005
20
-77.974855946506466
42
-0.41421356237309664
10
4.0687500000000014
20
-77.474855946506466
0
LWPOLYLINE
5
190
100
AcDbEntity
8
0
100
AcDbPolyline
90
8
70
1
43
0.0
10
97.775000000000006
20
-26.374855946506457
10
97.775000000000006
20
-39.37485594650645
42
0.41421356237309503
10
98.275000000000006
20
-39.874855946506472
10
111.27500000000001
20
-39.874855946506457
42
0.41421356237310802
10
111.77500000000002
20
-39.37485594650645
10
111.77500000000002
20
-26.374855946506457
42
0.41421356237309243
10
111.27500000000001
20
-25.874855946506461
10
98.275000000000006
20
-25.874855946506461
42
0.41421356237311585
0
LWPOLYLINE
5
191
100
AcDbEntity
8
0
100
AcDbPolyline
90
8
70
1
43
0.0
10
150.16250000000002
20
-64.474855946506452
42
-0.41421356237312101
10
150.66249999999999
20
-63.974855946506459
10
163.66250000000002
20
-63.974855946506466
42
-0.41421356237312623
10
164.16250000000002
20
-64.474855946506452
10
164.16249999999997
20
-77.474855946506466
42
-0.4142135623730222
10
163.66250000000002
20
-77.974855946506466
10
150.66249999999999
20
-77.97485594650648
42
-0.41421356237310025
10
150.16249999999999
20
-77.474855946506466
0
LWPOLYLINE
5
192
100
AcDbEntity
8
0
100
AcDbPolyline
90
8
70
1
43
0.0
10
226.36250000000004
20
-2.56235594650646
42
-0.41421356237302542
10
226.86250000000001
20
-2.06235594650646
10
239.86250000000001
20
-2.0623559465064591
42
-0.41421356237313306
10
240.36250000000001
20
-2.5623559465064605
10
240.36250000000007
20
-15.562355946506461
42
-0.4142135623730781
10
239.86250000000001
20
-16.062355946506461
10
226.86250000000001
20
-16.062355946506447
42
-0.41421356237312362
10
226.36250000000001
20
-15.562355946506461
0
LWPOLYLINE
5
193
100
AcDbEntity
8
0
100
AcDbPolyline
90
8
70
1
43
0.0
10
158.90000000000001
20
-44.924855946506447
42
-0.41421356237310025
10
159.40000000000001
20
-45.424855946506462
10
159.40000000000001
20
-58.424855946506469
42
-0.41421356237312101
10
158.90000000000001
20
-58.924855946506469
10
145.90000000000003
20
-58.924855946506483
42
-0.41421356237307944
10
145.40000000000001
20
-58.424855946506469
10
145.40000000000003
20
-45.424855946506462
42
-0.41421356237310542
10
145.90000000000001
20
-44.924855946506462
0
LWPOLYLINE
5
194
100
AcDbEntity
8
0
100
AcDbPolyline
90
8
70
1
43
0.0
10
107.30000000000003
20
-45.424855946506462
42
-0.41421356237312101
10
107.80000000000001
20
-44.924855946506462
10
120.79999999999998
20
-44.924855946506447
42
-0.41421356237307944
10
121.30000000000001
20
-45.424855946506462
10
121.29999999999998
20
-58.424855946506469
42
-0.41421356237310542
10
120.8
20
-58.924855946506469
10
107.80000000000001
20
-58.924855946506483
42
-0.41421356237310025
10
107.30000000000001
20
-58.424855946506469
0
LWPOLYLINE
5
195
100
AcDbEntity
8
0
100
AcDbPolyline
90
8
70
1
43
0.0
10
258.86250000000007
20
-45.424855946506462
42
-0.4142135623730222
10
259.36250000000001
20
-44.924855946506462
10
260.36250000000001
20
-44.924855946506469
42
-0.41421356237312623
10
260.86250000000001
20
-45.424855946506462
10
260.86250000000001
20
-58.424855946506469
42
-0.4142135623730222
10
260.36250000000001
20
-58.924855946506469
10
259.36250000000001
20
-58.924855946506455
42
-0.41421356237312623
10
258.86250000000001
20
-58.424855946506469
0
LWPOLYLINE
5
196
100
AcDbEntity
8
0
100
AcDbPolyline
90
8
70
1
43
0.0
10
158.90000000000001
20
-2.0623559465064538
42
-0.41421356237309437
10
159.40000000000001
20
-2.5623559465064605
10
159.40000000000001
20
-15.562355946506461
42
-0.41421356237310675
10
158.90000000000001
20
-16.062355946506461
10
145.90000000000001
20
-16.062355946506472
42
-0.41421356237307549
10
145.40000000000001
20
-15.562355946506461
10
145.40000000000001
20
-2.5623559465064605
42
-0.41421356237307455
10
145.90000000000001
20
-2.06235594650646
0
LWPOLYLINE
5
197
100
AcDbEntity
8
0
100
AcDbPolyline
90
8
70
1
43
0.0
10
83.487499999999969
20
-2.56235594650646
42
-0.41421356237310542
10
83.987499999999997
20
-2.06235594650646
10
96.987500000000011
20
-2.0623559465064538
42
-0.41421356237309437
10
97.487500000000011
20
-2.5623559465064605
10
97.487500000000011
20
-15.562355946506461
42
-0.41421356237310675
10
96.987500000000011
20
-16.062355946506461
10
83.987499999999997
20
-16.062355946506472
42
-0.41421356237309631
10
83.487499999999983
20
-15.562355946506461
0
LWPOLYLINE
5
198
100
AcDbEntity
8
0
100
AcDbPolyline
90
8
70
1
43
0.0
10
183.49999999999997
20
-45.424855946506462
42
-0.41421356237307422
10
184.00000000000003
20
-44.924855946506462
10
197.00000000000003
20
-44.924855946506469
42
-0.41421356237312623
10
197.50000000000003
20
-45.424855946506462
10
197.5
20
-58.424855946506469
42
-0.4142135623730222
10
197.00000000000003
20
-58.924855946506469
10
184.00000000000003
20
-58.924855946506476
42
-0.41421356237313667
10
183.5
20
-58.424855946506469
0
LWPOLYLINE
5
199
100
AcDbEntity
8
0
100
AcDbPolyline
90
8
70
1
43
0.0
10
7.2874999999999996
20
-45.424855946506462
10
7.2874999999999996
20
-58.424855946506469
42
0.41421356237309631
10
7.7875000000000005
20
-58.924855946506455
10
20.787500000000001
20
-58.924855946506469
42
0.41421356237309764
10
21.287500000000001
20
-58.424855946506469
10
21.287500000000001
20
-45.424855946506462
42
0.41421356237309764
10
20.787500000000001
20
-44.924855946506469
10
7.7875000000000005
20
-44.924855946506462
42
0.41421356237309764
0
LWPOLYLINE
5
200
100
AcDbEntity
8
0
100
AcDbPolyline
90
8
70
1
43
0.0
10
257.31874999999997
20
-64.474855946506452
42
-0.41421356237307422
10
257.81875000000002
20
-63.974855946506459
10
270.81875000000002
20
-63.974855946506466
42
-0.41421356237312623
10
271.31875000000002
20
-64.474855946506452
10
271.31875000000002
20
-77.474855946506466
42
-0.4142135623730222
10
270.81875000000002
20
-77.974855946506466
10
257.81875000000002
20
-77.974855946506466
42
-0.41421356237313667
10
257.31875000000002
20
-77.474855946506466
0
LWPOLYLINE
5
201
100
AcDbEntity
8
0
100
AcDbPolyline
90
8
70
1
43
0.0
10
282.06250000000006
20
-45.424855946506462
42
-0.4142135623730222
10
282.5625
20
-44.924855946506462
10
283.5625
20
-44.924855946506469
42
-0.41421356237312623
10
284.06250000000006
20
-45.424855946506462
10
284.0625
20
-58.424855946506469
42
-0.4142135623730222
10
283.5625
20
-58.924855946506469
10
282.5625
20
-58.924855946506455
42
-0.41421356237312623
10
282.0625
20
-58.424855946506469
0
LWPOLYLINE
5
202
100
AcDbEntity
8
0
100
AcDbPolyline
90
8
70
1
43
0.0
10
188.26250000000002
20
-2.56235594650646
42
-0.41421356237302542
10
188.76249999999999
20
-2.06235594650646
10
201.76249999999999
20
-2.0623559465064591
42
-0.41421356237313306
10
202.26249999999999
20
-2.5623559465064605
10
202.26250000000005
20
-15.562355946506461
42
-0.4142135623730781
10
201.76249999999999
20
-16.062355946506461
10
188.76249999999999
20
-16.062355946506447
42
-0.41421356237312362
10
188.26249999999999
20
-15.562355946506461
0
LWPOLYLINE
5
203
100
AcDbEntity
8
0
100
AcDbPolyline
90
8
70
1
43
0.0
10
31.099999999999998
20
-45.424855946506462
42
-0.41421356237309764
10
31.600000000000001
20
-44.924855946506462
10
44.600000000000001
20
-44.924855946506462
42
-0.41421356237309503
10
45.099999999999994
20
-45.424855946506462
10
45.099999999999994
20
-58.424855946506469
42
-0.41421356237309503
10
44.600000000000001
20
-58.924855946506469
10
31.600000000000001
20
-58.924855946506455
42
-0.41421356237309764
10
31.100000000000001
20
-58.424855946506469
0
LWPOLYLINE
5
204
100
AcDbEntity
8
0
100
AcDbPolyline
90
8
70
1
43
0.0
10
211.23750000000001
20
-102.57485594650646
42
-0.41421356237313667
10
211.73750000000001
20
-102.07485594650646
10
212.73750000000004
20
-102.07485594650646
42
-0.41421356237313667
10
213.23750000000004
20
-102.57485594650646
10
213.23750000000004
20
-115.57485594650645
42
-0.41421356237309503
10
212.73750000000004
20
-116.07485594650646
10
211.73750000000001
20
-116.07485594650646
42
-0.41421356237309503
10
211.23750000000001
20
-115.57485594650645
0
LWPOLYLINE
5
205
100
AcDbEntity
8
0
100
AcDbPolyline
90
8
70
1
43
0.0
10
116.82500000000002
20
-26.374855946506457
42
-0.41421356237311585
10
117.32500000000002
20
-25.874855946506461
10
130.32499999999999
20
-25.874855946506457
42
-0.41421356237309243
10
130.82499999999999
20
-26.374855946506457
10
130.82499999999999
20
-39.37485594650645
42
-0.41421356237310802
10
130.32499999999999
20
-39.874855946506457
10
117.32500000000002
20
-39.874855946506457
42
-0.41421356237309503
10
116.82500000000002
20
-39.37485594650645
0
LWPOLYLINE
5
206
100
AcDbEntity
8
0
100
AcDbPolyline
90
8
70
1
43
0.0
10
126.35000000000002
20
-45.424855946506462
42
-0.41421356237310542
10
126.85000000000001
20
-44.924855946506462
10
139.84999999999999
20
-44.924855946506447
42
-0.41421356237310025
10
140.34999999999999
20
-45.424855946506462
10
140.34999999999999
20
-58.424855946506469
42
-0.41421356237312101
10
139.84999999999999
20
-58.924855946506469
10
126.85000000000002
20
-58.924855946506483
42
-0.41421356237307944
10
126.34999999999999
20
-58.424855946506469
0
LWPOLYLINE
5
207
100
AcDbEntity
8
0
100
AcDbPolyline
90
8
70
1
43
0.0
10
240.65000000000003
20
-45.424855946506462
42
-0.4142135623730222
10
241.15000000000003
20
-44.924855946506462
10
254.15000000000003
20
-44.924855946506455
42
-0.41421356237313667
10
254.65000000000003
20
-45.424855946506462
10
254.65000000000006
20
-58.424855946506469
42
-0.41421356237307422
10
254.15000000000003
20
-58.924855946506469
10
241.15000000000003
20
-58.924855946506455
42
-0.41421356237312623
10
240.65000000000001
20
-58.424855946506469
0
LWPOLYLINE
5
208
100
AcDbEntity
8
0
100
AcDbPolyline
90
8
70
1
43
0.0
10
112.06250000000003
20
-64.474855946506452
42
-0.41421356237312101
10
112.56250000000001
20
-63.974855946506459
10
125.56249999999999
20
-63.974855946506437
42
-0.41421356237307944
10
126.06250000000001
20
-64.474855946506452
10
126.0625
20
-77.474855946506466
42
-0.41421356237310542
10
125.5625
20
-77.974855946506466
10
112.56250000000001
20
-77.97485594650648
42
-0.41421356237310025
10
112.0625
20
-77.474855946506466
0
LWPOLYLINE
5
209
100
AcDbEntity
8
0
100
AcDbPolyline
90
8
70
1
43
0.0
10
277.96249999999998
20
-44.924855946506469
42
-0.41421356237312623
10
278.46250000000003
20
-45.424855946506462
10
278.46249999999998
20
-58.424855946506469
42
-0.4142135623730222
10
277.96249999999998
20
-58.924855946506469
10
264.96249999999998
20
-58.924855946506476
42
-0.41421356237313667
10
264.46249999999998
20
-58.424855946506469
10
264.46249999999998
20
-45.424855946506462
42
-0.41421356237307422
10
264.96249999999998
20
-44.924855946506462
0
LWPOLYLINE
5
210
100
AcDbEntity
8
0
100
AcDbPolyline
90
8
70
1
43
0.0
10
54.912500000000009
20
-64.474855946506452
10
54.912500000000009
20
-77.474855946506466
42
0.41421356237309503
10
55.412500000000009
20
-77.974855946506452
10
68.412499999999994
20
-77.974855946506466
42
0.41421356237309503
10
68.912499999999994
20
-77.474855946506466
10
68.912499999999994
20
-64.474855946506452
42
0.41421356237309503
10
68.412499999999994
20
-63.974855946506466
10
55.412500000000009
20
-63.974855946506459
42
0.41421356237309503
0
LWPOLYLINE
5
211
100
AcDbEntity
8
0
100
AcDbPolyline
90
8
70
1
43
0.0
10
245.41250000000005
20
-2.56235594650646
42
-0.41421356237302542
10
245.91250000000002
20
-2.06235594650646
10
258.91250000000002
20
-2.0623559465064591
42
-0.41421356237313306
10
259.41250000000002
20
-2.5623559465064605
10
259.41250000000008
20
-15.562355946506461
42
-0.4142135623730781
10
258.91250000000002
20
-16.062355946506461
10
245.91250000000002
20
-16.062355946506447
42
-0.41421356237312362
10
245.41250000000002
20
-15.562355946506461
0
LWPOLYLINE
5
212
100
AcDbEntity
8
0
100
AcDbPolyline
90
8
70
1
43
0.0
10
9.6687499999999975
20
-64.474855946506452
42
-0.41421356237309764
10
10.168749999999999
20
-63.974855946506459
10
23.168749999999999
20
-63.974855946506466
42
-0.41421356237309764
10
23.668749999999999
20
-64.474855946506452
10
23.668750000000003
20
-77.474855946506466
42
-0.41421356237309764
10
23.168749999999999
20
-77.974855946506466
10
10.168749999999999
20
-77.974855946506466
42
-0.41421356237309631
10
9.6687499999999993
20
-77.474855946506466
0
LWPOLYLINE
5
213
100
AcDbEntity
8
0
100
AcDbPolyline
90
8
70
1
43
0.0
10
178.73750000000001
20
-83.524855946506449
42
-0.41421356237313667
10
179.23750000000001
20
-83.024855946506449
10
192.23750000000001
20
-83.02485594650642
42
-0.41421356237310542
10
192.73750000000004
20
-83.524855946506449
10
192.73750000000007
20
-96.524855946506477
42
-0.4142135623730846
10
192.23750000000001
20
-97.024855946506477
10
179.23750000000001
20
-97.024855946506477
42
-0.41421356237309503
10
178.73750000000001
20
-96.524855946506477
0
LWPOLYLINE
5
214
100
AcDbEntity
8
0
100
AcDbPolyline
90
8
70
1
43
0.0
10
272.75675000000007
20
-65.474855946506452
42
-0.4142135623730222
10
273.25675000000001
20
-64.974855946506452
10
279.25675000000001
20
-64.974855946506437
42
-0.41421356237313667
10
279.75675000000001
20
-65.474855946506452
10
279.75675000000001
20
-79.474855946506452
42
-0.41421356237313667
10
279.25675000000001
20
-79.974855946506466
10
273.25675000000001
20
-79.974855946506437
42
-0.41421356237312623
10
272.75675000000001
20
-79.474855946506452
0
LWPOLYLINE
5
215
100
AcDbEntity
8
0
100
AcDbPolyline
90
8
70
1
43
0.0
10
221.60000000000002
20
-45.424855946506462
42
-0.4142135623730222
10
222.10000000000002
20
-44.924855946506462
10
235.10000000000002
20
-44.924855946506455
42
-0.41421356237313667
10
235.60000000000002
20
-45.424855946506462
10
235.60000000000005
20
-58.424855946506469
42
-0.41421356237307422
10
235.10000000000002
20
-58.924855946506469
10
222.10000000000002
20
-58.924855946506455
42
-0.41421356237312623
10
221.59999999999999
20
-58.424855946506469
0
LWPOLYLINE
5
216
100
AcDbEntity
8
0
100
AcDbPolyline
90
8
70
1
43
0.0
10
26.337499999999999
20
-2.56235594650646
42
-0.41421356237309537
10
26.837499999999999
20
-2.06235594650646
10
39.837499999999999
20
-2.0623559465064596
42
-0.41421356237310414
10
40.337500000000006
20
-2.5623559465064605
10
40.337500000000006
20
-15.562355946506461
42
-0.41421356237310414
10
39.837499999999999
20
-16.062355946506461
10
26.837499999999999
20
-16.062355946506461
42
-0.41421356237309631
10
26.337499999999999
20
-15.562355946506461
0
LWPOLYLINE
5
217
100
AcDbEntity
8
0
100
AcDbPolyline
90
8
70
1
43
0.0
10
207.31250000000003
20
-64.474855946506452
42
-0.4142135623730222
10
207.8125
20
-63.974855946506459
10
220.8125
20
-63.974855946506452
42
-0.41421356237313667
10
221.3125
20
-64.474855946506452
10
221.31250000000006
20
-77.474855946506466
42
-0.41421356237307422
10
220.8125
20
-77.974855946506466
10
207.8125
20
-77.974855946506452
42
-0.41421356237312623
10
207.3125
20
-77.474855946506466
0
LWPOLYLINE
5
218
100
AcDbEntity
8
0
100
AcDbPolyline
90
8
70
1
43
0.0
10
5.9932499999999944
20
-84.524855946506449
42
-0.41421356237307355
10
6.4932500000000006
20
-84.024855946506435
10
12.49325
20
-84.024855946506449
42
-0.41421356237307549
10
12.99325
20
-84.524855946506449
10
12.993250000000007
20
-98.524855946506449
42
-0.41421356237309503
10
12.49325
20
-99.024855946506449
10
6.4932500000000006
20
-99.024855946506477
42
-0.4142135623731048
10
5.9932499999999997
20
-98.524855946506449
0
LWPOLYLINE
5
219
100
AcDbEntity
8
0
100
AcDbPolyline
90
8
70
1
43
0.0
10
248.88074999999998
20
-65.474855946506452
42
-0.41421356237307422
10
249.38075000000001
20
-64.974855946506452
10
255.38075000000003
20
-64.974855946506437
42
-0.41421356237313667
10
255.88075000000003
20
-65.474855946506452
10
255.88075000000003
20
-79.474855946506452
42
-0.41421356237313667
10
255.38075000000003
20
-79.974855946506466
10
249.38075000000001
20
-79.974855946506466
42
-0.41421356237313667
10
248.88075000000001
20
-79.474855946506452
0
LWPOLYLINE
5
220
100
AcDbEntity
8
0
100
AcDbPolyline
90
8
70
1
43
0.0
10
264.46249999999998
20
-102.57485594650646
42
-0.41421356237313667
10
264.96249999999998
20
-102.07485594650646
10
277.96249999999998
20
-102.07485594650643
42
-0.41421356237310542
10
278.46250000000003
20
-102.57485594650646
10
278.46250000000003
20
-115.57485594650645
42
-0.4142135623730846
10
277.96249999999998
20
-116.07485594650646
10
264.96249999999998
20
-116.07485594650646
42
-0.41421356237309503
10
264.46249999999998
20
-115.57485594650645
0
LWPOLYLINE
5
221
100
AcDbEntity
8
0
100
AcDbPolyline
90
8
70
1
43
0.0
10
312.08750000000003
20
-2.56235594650646
42
-0.41421356237302542
10
312.58749999999998
20
-2.06235594650646
10
325.58749999999998
20
-2.0623559465064756
42
-0.41421356237301926
10
326.08749999999992
20
-2.5623559465064605
10
326.08749999999992
20
-15.562355946506461
42
-0.4142135623731939
10
325.58749999999998
20
-16.062355946506461
10
312.58749999999998
20
-16.062355946506447
42
-0.41421356237312362
10
312.08749999999998
20
-15.562355946506461
0
LWPOLYLINE
5
222
100
AcDbEntity
8
0
100
AcDbPolyline
90
8
70
1
43
0.0
10
7.2874999999999996
20
-102.57485594650646
10
7.2874999999999996
20
-115.57485594650645
42
0.41421356237307422
10
7.7875000000000005
20
-116.07485594650647
10
20.787500000000001
20
-116.07485594650646
42
0.41421356237307161
10
21.287500000000009
20
-115.57485594650645
10
21.287500000000001
20
-102.57485594650646
42
0.41421356237310542
10
20.787500000000001
20
-102.07485594650647
10
7.7875000000000005
20
-102.07485594650646
42
0.4142135623730937
0
LWPOLYLINE
5
223
100
AcDbEntity
8
0
100
AcDbPolyline
90
8
70
1
43
0.0
10
203.52500000000006
20
-114.57485594650647
42
-0.4142135623730846
10
203.02500000000003
20
-115.07485594650647
10
197.02500000000001
20
-115.07485594650646
42
-0.4142135623730846
10
196.52500000000001
20
-114.57485594650647
10
196.52500000000003
20
-100.57485594650646
42
-0.41421356237310542
10
197.02500000000001
20
-100.07485594650646
10
203.02500000000003
20
-100.07485594650645
42
-0.41421356237310542
10
203.52500000000003
20
-100.57485594650646
0
LWPOLYLINE
5
224
100
AcDbEntity
8
0
100
AcDbPolyline
90
8
70
1
43
0.0
10
72.512500000000003
20
-102.57485594650646
42
-0.41421356237309503
10
73.012500000000003
20
-102.07485594650646
10
74.012500000000017
20
-102.07485594650646
42
-0.41421356237310542
10
74.512500000000003
20
-102.57485594650646
10
74.512500000000031
20
-115.57485594650643
42
-0.41421356237307944
10
74.012500000000017
20
-116.07485594650646
10
73.012500000000003
20
-116.07485594650643
42
-0.41421356237310025
10
72.512500000000003
20
-115.57485594650645
0
LWPOLYLINE
5
225
100
AcDbEntity
8
0
100
AcDbPolyline
90
8
70
1
43
0.0
10
231.125
20
-26.374855946506457
10
231.125
20
-39.37485594650645
42
0.41421356237310281
10
231.625
20
-39.874855946506472
10
244.62500000000003
20
-39.874855946506457
42
0.41421356237313406
10
245.12500000000003
20
-39.37485594650645
10
245.12500000000003
20
-26.374855946506457
42
0.41421356237313145
10
244.62500000000003
20
-25.874855946506461
10
231.625
20
-25.874855946506461
42
0.41421356237304563
0
LWPOLYLINE
5
226
100
AcDbEntity
8
0
100
AcDbPolyline
90
8
70
1
43
0.0
10
126.34999999999999
20
-2.56235594650646
42
-0.41421356237307422
10
126.85000000000001
20
-2.06235594650646
10
139.84999999999999
20
-2.0623559465064538
42
-0.41421356237309437
10
140.34999999999999
20
-2.5623559465064605
10
140.34999999999999
20
-15.562355946506461
42
-0.41421356237310675
10
139.84999999999999
20
-16.062355946506461
10
126.85000000000001
20
-16.062355946506472
42
-0.41421356237307549
10
126.34999999999999
20
-15.562355946506461
0
LWPOLYLINE
5
227
100
AcDbEntity
8
0
100
AcDbPolyline
90
8
70
1
43
0.0
10
274.49425000000008
20
-84.024855946506449
42
-0.4142135623730846
10
274.99425000000008
20
-84.524855946506449
10
274.99425000000002
20
-98.524855946506449
42
-0.41421356237310542
10
274.49425000000008
20
-99.024855946506449
10
268.49425000000002
20
-99.024855946506477
42
-0.41421356237310542
10
267.99425000000002
20
-98.524855946506449
10
267.99424999999997
20
-84.524855946506449
42
-0.4142135623730846
10
268.49425000000002
20
-84.024855946506435
0
LWPOLYLINE
5
228
100
AcDbEntity
8
0
100
AcDbPolyline
90
8
70
1
43
0.0
10
293.03750000000008
20
-102.57485594650646
42
-0.41421356237310542
10
293.53750000000002
20
-102.07485594650646
10
306.53750000000002
20
-102.07485594650643
42
-0.41421356237310542
10
307.03750000000002
20
-102.57485594650646
10
307.03750000000008
20
-115.57485594650645
42
-0.4142135623730846
10
306.53750000000002
20
-116.07485594650646
10
293.53750000000002
20
-116.07485594650643
42
-0.4142135623730846
10
293.03750000000002
20
-115.57485594650645
0
LWPOLYLINE
5
229
100
AcDbEntity
8
0
100
AcDbPolyline
90
8
70
1
43
0.0
10
31.099999999999998
20
-102.57485594650646
42
-0.41421356237309243
10
31.600000000000001
20
-102.07485594650646
10
44.600000000000001
20
-102.07485594650646
42
-0.41421356237308982
10
45.099999999999994
20
-102.57485594650646
10
45.100000000000009
20
-115.57485594650645
42
-0.41421356237307422
10
44.600000000000001
20
-116.07485594650646
10
31.600000000000001
20
-116.07485594650643
42
-0.41421356237310025
10
31.100000000000001
20
-115.57485594650645
0
LWPOLYLINE
5
230
100
AcDbEntity
8
0
100
AcDbPolyline
90
8
70
1
43
0.0
10
78.725000000000009
20
-26.374855946506457
42
-0.41421356237309764
10
79.224999999999994
20
-25.874855946506461
10
92.224999999999994
20
-25.874855946506457
42
-0.41421356237309243
10
92.725000000000009
20
-26.374855946506457
10
92.725000000000009
20
-39.37485594650645
42
-0.41421356237310802
10
92.224999999999994
20
-39.874855946506457
10
79.224999999999994
20
-39.874855946506457
42
-0.41421356237309764
10
78.724999999999994
20
-39.37485594650645
0
LWPOLYLINE
5
231
100
AcDbEntity
8
0
100
AcDbPolyline
90
8
70
1
43
0.0
10
24.887499999999999
20
-45.424855946506462
42
-0.41421356237309764
10
25.387500000000003
20
-44.924855946506462
10
26.387499999999999
20
-44.924855946506469
42
-0.41421356237309764
10
26.887499999999996
20
-45.424855946506462
10
26.887500000000003
20
-58.424855946506469
42
-0.41421356237309764
10
26.387499999999999
20
-58.924855946506469
10
25.387500000000003
20
-58.924855946506455
42
-0.41421356237309764
10
24.887500000000003
20
-58.424855946506469
0
ENDSEC
0
SECTION
2
OBJECTS
0
DICTIONARY
5
C
100
AcDbDictionary
3
ACAD_GROUP
350
D
3
ACAD_MLINESTYLE
350
17
0
DICTIONARY
5
D
100
AcDbDictionary
0
DICTIONARY
5
1A
330
C
100
AcDbDictionary
0
DICTIONARY
5
17
100
AcDbDictionary
0
ENDSEC
0
EOF
