  0
SECTION
  2
HEADER
  9
$ACADVER
  1
AC1027
  9
$ACADMAINTVER
 70
   125
  9
$DWGCODEPAGE
  3
ANSI_949
  9
$LASTSAVEDBY
  1
junkibeom
  9
$REQUIREDVERSIONS
160
                 0
  9
$INSBASE
 10
0.0
 20
0.0
 30
0.0
  9
$EXTMIN
 10
-152.8511387878535
 20
94.55335425876981
 30
-0.0000000000000044
  9
$EXTMAX
 10
152.898919154145
 20
205.4682702342216
 30
0.0
  9
$LIMMIN
 10
0.0
 20
0.0
  9
$LIMMAX
 10
12.0
 20
9.0
  9
$ORTHOMODE
 70
     0
  9
$REGENMODE
 70
     1
  9
$FILLMODE
 70
     1
  9
$QTEXTMODE
 70
     0
  9
$MIRRTEXT
 70
     0
  9
$LTSCALE
 40
1.0
  9
$ATTMODE
 70
     1
  9
$TEXTSIZE
 40
0.2
  9
$TRACEWID
 40
0.05
  9
$TEXTSTYLE
  7
STANDARD
  9
$CLAYER
  8
0
  9
$CELTYPE
  6
Continuous
  9
$CECOLOR
 62
   256
  9
$CELTSCALE
 40
1.0
  9
$DISPSILH
 70
     0
  9
$DIMSCALE
 40
1.0
  9
$DIMASZ
 40
0.18
  9
$DIMEXO
 40
0.0625
  9
$DIMDLI
 40
0.38
  9
$DIMRND
 40
0.0
  9
$DIMDLE
 40
0.0
  9
$DIMEXE
 40
0.18
  9
$DIMTP
 40
0.0
  9
$DIMTM
 40
0.0
  9
$DIMTXT
 40
0.18
  9
$DIMCEN
 40
0.09
  9
$DIMTSZ
 40
0.0
  9
$DIMTOL
 70
     0
  9
$DIMLIM
 70
     0
  9
$DIMTIH
 70
     1
  9
$DIMTOH
 70
     1
  9
$DIMSE1
 70
     0
  9
$DIMSE2
 70
     0
  9
$DIMTAD
 70
     0
  9
$DIMZIN
 70
     0
  9
$DIMBLK
  1

  9
$DIMASO
 70
     1
  9
$DIMSHO
 70
     1
  9
$DIMPOST
  1

  9
$DIMAPOST
  1

  9
$DIMALT
 70
     0
  9
$DIMALTD
 70
     2
  9
$DIMALTF
 40
25.4
  9
$DIMLFAC
 40
1.0
  9
$DIMTOFL
 70
     0
  9
$DIMTVP
 40
0.0
  9
$DIMTIX
 70
     0
  9
$DIMSOXD
 70
     0
  9
$DIMSAH
 70
     0
  9
$DIMBLK1
  1

  9
$DIMBLK2
  1

  9
$DIMSTYLE
  2
Standard
  9
$DIMCLRD
 70
     0
  9
$DIMCLRE
 70
     0
  9
$DIMCLRT
 70
     0
  9
$DIMTFAC
 40
1.0
  9
$DIMGAP
 40
0.09
  9
$DIMJUST
 70
     0
  9
$DIMSD1
 70
     0
  9
$DIMSD2
 70
     0
  9
$DIMTOLJ
 70
     1
  9
$DIMTZIN
 70
     0
  9
$DIMALTZ
 70
     0
  9
$DIMALTTZ
 70
     0
  9
$DIMUPT
 70
     0
  9
$DIMDEC
 70
     4
  9
$DIMTDEC
 70
     4
  9
$DIMALTU
 70
     2
  9
$DIMALTTD
 70
     2
  9
$DIMTXSTY
  7
STANDARD
  9
$DIMAUNIT
 70
     0
  9
$DIMADEC
 70
     0
  9
$DIMALTRND
 40
0.0
  9
$DIMAZIN
 70
     0
  9
$DIMDSEP
 70
    46
  9
$DIMATFIT
 70
     3
  9
$DIMFRAC
 70
     0
  9
$DIMLDRBLK
  1

  9
$DIMLUNIT
 70
     2
  9
$DIMLWD
 70
    -2
  9
$DIMLWE
 70
    -2
  9
$DIMTMOVE
 70
     0
  9
$DIMFXL
 40
1.0
  9
$DIMFXLON
 70
     0
  9
$DIMJOGANG
 40
0.7853981633974483
  9
$DIMTFILL
 70
     0
  9
$DIMTFILLCLR
 70
     0
  9
$DIMARCSYM
 70
     0
  9
$DIMLTYPE
  6

  9
$DIMLTEX1
  6

  9
$DIMLTEX2
  6

  9
$DIMTXTDIRECTION
 70
     0
  9
$LUNITS
 70
     2
  9
$LUPREC
 70
     4
  9
$SKETCHINC
 40
0.1
  9
$FILLETRAD
 40
0.0
  9
$AUNITS
 70
     0
  9
$AUPREC
 70
     0
  9
$MENU
  1
.
  9
$ELEVATION
 40
0.0
  9
$PELEVATION
 40
0.0
  9
$THICKNESS
 40
0.0
  9
$LIMCHECK
 70
     0
  9
$CHAMFERA
 40
0.0
  9
$CHAMFERB
 40
0.0
  9
$CHAMFERC
 40
0.0
  9
$CHAMFERD
 40
0.0
  9
$SKPOLY
 70
     0
  9
$TDCREATE
 40
2461033.071539352
  9
$TDUCREATE
 40
2461032.696539352
  9
$TDUPDATE
 40
2461033.071666667
  9
$TDUUPDATE
 40
2461032.696666667
  9
$TDINDWG
 40
0.0001273148
  9
$TDUSRTIMER
 40
0.0001273148
  9
$USRTIMER
 70
     1
  9
$ANGBASE
 50
0.0
  9
$ANGDIR
 70
     0
  9
$PDMODE
 70
     0
  9
$PDSIZE
 40
0.0
  9
$PLINEWID
 40
0.0
  9
$SPLFRAME
 70
     0
  9
$SPLINETYPE
 70
     6
  9
$SPLINESEGS
 70
     8
  9
$HANDSEED
  5
10083
  9
$SURFTAB1
 70
     6
  9
$SURFTAB2
 70
     6
  9
$SURFTYPE
 70
     6
  9
$SURFU
 70
     6
  9
$SURFV
 70
     6
  9
$UCSBASE
  2

  9
$UCSNAME
  2

  9
$UCSORG
 10
0.0
 20
0.0
 30
0.0
  9
$UCSXDIR
 10
1.0
 20
0.0
 30
0.0
  9
$UCSYDIR
 10
0.0
 20
1.0
 30
0.0
  9
$UCSORTHOREF
  2

  9
$UCSORTHOVIEW
 70
     0
  9
$UCSORGTOP
 10
0.0
 20
0.0
 30
0.0
  9
$UCSORGBOTTOM
 10
0.0
 20
0.0
 30
0.0
  9
$UCSORGLEFT
 10
0.0
 20
0.0
 30
0.0
  9
$UCSORGRIGHT
 10
0.0
 20
0.0
 30
0.0
  9
$UCSORGFRONT
 10
0.0
 20
0.0
 30
0.0
  9
$UCSORGBACK
 10
0.0
 20
0.0
 30
0.0
  9
$PUCSBASE
  2

  9
$PUCSNAME
  2

  9
$PUCSORG
 10
0.0
 20
0.0
 30
0.0
  9
$PUCSXDIR
 10
1.0
 20
0.0
 30
0.0
  9
$PUCSYDIR
 10
0.0
 20
1.0
 30
0.0
  9
$PUCSORTHOREF
  2

  9
$PUCSORTHOVIEW
 70
     0
  9
$PUCSORGTOP
 10
0.0
 20
0.0
 30
0.0
  9
$PUCSORGBOTTOM
 10
0.0
 20
0.0
 30
0.0
  9
$PUCSORGLEFT
 10
0.0
 20
0.0
 30
0.0
  9
$PUCSORGRIGHT
 10
0.0
 20
0.0
 30
0.0
  9
$PUCSORGFRONT
 10
0.0
 20
0.0
 30
0.0
  9
$PUCSORGBACK
 10
0.0
 20
0.0
 30
0.0
  9
$USERI1
 70
     0
  9
$USERI2
 70
     0
  9
$USERI3
 70
     0
  9
$USERI4
 70
     0
  9
$USERI5
 70
     0
  9
$USERR1
 40
0.0
  9
$USERR2
 40
0.0
  9
$USERR3
 40
0.0
  9
$USERR4
 40
0.0
  9
$USERR5
 40
0.0
  9
$WORLDVIEW
 70
     1
  9
$SHADEDGE
 70
     3
  9
$SHADEDIF
 70
    70
  9
$TILEMODE
 70
     1
  9
$MAXACTVP
 70
    64
  9
$PINSBASE
 10
0.0
 20
0.0
 30
0.0
  9
$PLIMCHECK
 70
     0
  9
$PEXTMIN
 10
1.000000000000000E+20
 20
1.000000000000000E+20
 30
1.000000000000000E+20
  9
$PEXTMAX
 10
-1.000000000000000E+20
 20
-1.000000000000000E+20
 30
-1.000000000000000E+20
  9
$PLIMMIN
 10
0.0
 20
0.0
  9
$PLIMMAX
 10
12.0
 20
9.0
  9
$UNITMODE
 70
     0
  9
$VISRETAIN
 70
     1
  9
$PLINEGEN
 70
     0
  9
$PSLTSCALE
 70
     1
  9
$TREEDEPTH
 70
  3020
  9
$CMLSTYLE
  2
Standard
  9
$CMLJUST
 70
     0
  9
$CMLSCALE
 40
1.0
  9
$PROXYGRAPHICS
 70
     1
  9
$MEASUREMENT
 70
     0
  9
$CELWEIGHT
370
    -1
  9
$ENDCAPS
280
     0
  9
$JOINSTYLE
280
     0
  9
$LWDISPLAY
290
     0
  9
$INSUNITS
 70
     4
  9
$HYPERLINKBASE
  1

  9
$STYLESHEET
  1

  9
$XEDIT
290
     1
  9
$CEPSNTYPE
380
     0
  9
$PSTYLEMODE
290
     1
  9
$FINGERPRINTGUID
  2
{D155210E-140D-204F-9406-E848BEA8133C}
  9
$VERSIONGUID
  2
{9EF7E4A6-4B7F-4840-925C-A9098F0D2CAE}
  9
$EXTNAMES
290
     1
  9
$PSVPSCALE
 40
0.0
  9
$OLESTARTUP
290
     0
  9
$SORTENTS
280
   127
  9
$INDEXCTL
280
     0
  9
$HIDETEXT
280
     0
  9
$XCLIPFRAME
280
     2
  9
$HALOGAP
280
     0
  9
$OBSCOLOR
 70
   257
  9
$OBSLTYPE
280
     0
  9
$INTERSECTIONDISPLAY
280
     0
  9
$INTERSECTIONCOLOR
 70
   257
  9
$DIMASSOC
280
     1
  9
$PROJECTNAME
  1

  9
$CAMERADISPLAY
290
     0
  9
$LENSLENGTH
 40
50.0
  9
$CAMERAHEIGHT
 40
0.0
  9
$STEPSPERSEC
 40
2.0
  9
$STEPSIZE
 40
6.0
  9
$3DDWFPREC
 40
2.0
  9
$PSOLWIDTH
 40
0.25
  9
$PSOLHEIGHT
 40
4.0
  9
$LOFTANG1
 40
1.570796326794896
  9
$LOFTANG2
 40
1.570796326794896
  9
$LOFTMAG1
 40
0.0
  9
$LOFTMAG2
 40
0.0
  9
$LOFTPARAM
 70
     7
  9
$LOFTNORMALS
280
     1
  9
$LATITUDE
 40
37.795
  9
$LONGITUDE
 40
-122.394
  9
$NORTHDIRECTION
 40
0.0
  9
$TIMEZONE
 70
 -8000
  9
$LIGHTGLYPHDISPLAY
280
     1
  9
$TILEMODELIGHTSYNCH
280
     1
  9
$CMATERIAL
347
10005
  9
$SOLIDHIST
280
     0
  9
$SHOWHIST
280
     1
  9
$DWFFRAME
280
     2
  9
$DGNFRAME
280
     0
  9
$REALWORLDSCALE
290
     1
  9
$INTERFERECOLOR
 62
     1
  9
$INTERFEREOBJVS
345
10027
  9
$INTERFEREVPVS
346
10024
  9
$CSHADOW
280
     0
  9
$SHADOWPLANELOCATION
 40
0.0
  0
ENDSEC
  0
SECTION
  2
CLASSES
  0
CLASS
  1
ACDBDICTIONARYWDFLT
  2
AcDbDictionaryWithDefault
  3
ObjectDBX Classes
 90
        0
 91
        1
280
     0
281
     0
  0
CLASS
  1
MATERIAL
  2
AcDbMaterial
  3
ObjectDBX Classes
 90
     1153
 91
        3
280
     0
281
     0
  0
CLASS
  1
VISUALSTYLE
  2
AcDbVisualStyle
  3
ObjectDBX Classes
 90
     4095
 91
       24
280
     0
281
     0
  0
CLASS
  1
TABLESTYLE
  2
AcDbTableStyle
  3
ObjectDBX Classes
 90
     4095
 91
        1
280
     0
281
     0
  0
CLASS
  1
SCALE
  2
AcDbScale
  3
ObjectDBX Classes
 90
     1153
 91
       17
280
     0
281
     0
  0
CLASS
  1
MLEADERSTYLE
  2
AcDbMLeaderStyle
  3
ACDB_MLEADERSTYLE_CLASS
 90
     4095
 91
        1
280
     0
281
     0
  0
CLASS
  1
ACDBSECTIONVIEWSTYLE
  2
AcDbSectionViewStyle
  3
ObjectDBX Classes
 90
     1025
 91
        1
280
     0
281
     0
  0
CLASS
  1
ACDBDETAILVIEWSTYLE
  2
AcDbDetailViewStyle
  3
ObjectDBX Classes
 90
     1025
 91
        1
280
     0
281
     0
  0
CLASS
  1
SOLID_BACKGROUND
  2
AcDbSolidBackground
  3
SCENEOE
 90
     4095
 91
        1
280
     0
281
     0
  0
CLASS
  1
NPOCOLLECTION
  2
AcDbImpNonPersistentObjectsCollection
  3
ObjectDBX Classes
 90
     1153
 91
        1
280
     0
281
     0
  0
CLASS
  1
DICTIONARYVAR
  2
AcDbDictionaryVar
  3
ObjectDBX Classes
 90
        0
 91
        9
280
     0
281
     0
  0
CLASS
  1
CELLSTYLEMAP
  2
AcDbCellStyleMap
  3
ObjectDBX Classes
 90
     1152
 91
        1
280
     0
281
     0
  0
ENDSEC
  0
SECTION
  2
TABLES
  0
TABLE
  2
VPORT
  5
8
330
0
100
AcDbSymbolTable
 70
     1
1001
ACAD
1000
DbSaveVer
1071
      316
  0
VPORT
  5
10059
330
8
100
AcDbSymbolTableRecord
100
AcDbViewportTableRecord
  2
*Active
 70
     0
 10
0.0
 20
0.0
 11
1.0
 21
1.0
 12
0.0
 22
0.0
 13
0.0
 23
0.0
 14
1.0
 24
1.0
 15
0.0
 25
0.0
 16
-0.0000000000001598
 26
0.0
 36
719.8116321583387
 17
0.023895263671875
 27
150.010814666748
 37
-0.0000000000000022
 40
325.2463994063778
 41
1.509828009828009
 42
50.0
 43
0.0
 44
0.0
 50
0.0
 51
0.0
 71
     0
 72
  1000
 73
     1
 74
     3
 75
     0
 76
     0
 77
     0
 78
     0
281
     0
 65
     1
110
0.0
120
0.0
130
0.0
111
1.0
121
0.0
131
0.0
112
0.0
122
1.0
132
0.0
 79
     0
146
0.0
348
10023
 60
     3
 61
     5
292
     1
282
     1
141
0.0
142
0.0
 63
   250
421
  3355443
1001
ACAD_NAV_VCDISPLAY
1070
     3
  0
ENDTAB
  0
TABLE
  2
LTYPE
  5
5
330
0
100
AcDbSymbolTable
 70
     2
  0
LTYPE
  5
14
330
5
100
AcDbSymbolTableRecord
100
AcDbLinetypeTableRecord
  2
BYBLOCK
 70
     0
  3

 72
    65
 73
     0
 40
0.0
  0
LTYPE
  5
15
330
5
100
AcDbSymbolTableRecord
100
AcDbLinetypeTableRecord
  2
BYLAYER
 70
     0
  3

 72
    65
 73
     0
 40
0.0
  0
LTYPE
  5
10001
330
5
100
AcDbSymbolTableRecord
100
AcDbLinetypeTableRecord
  2
Continuous
 70
     0
  3
Solid line
 72
    65
 73
     0
 40
0.0
  0
LTYPE
  5
16
330
5
100
AcDbSymbolTableRecord
100
AcDbLinetypeTableRecord
  2
DASHED
 70
     0
  3
Dashed __ __ __ __ __ __ __ __ __ __ __ __ __ _
 72
    65
 73
     2
 40
0.75
 49
0.5
 74
     0
 49
-0.25
 74
     0
  0
ENDTAB
  0
TABLE
  2
LAYER
  5
2
102
{ACAD_XDICTIONARY
360
10064
102
}
330
0
100
AcDbSymbolTable
 70
     1
  0
LAYER
  5
50
102
{ACAD_XDICTIONARY
360
1005F
102
}
330
2
100
AcDbSymbolTableRecord
100
AcDbLayerTableRecord
  2
0
 70
     0
 62
     7
  6
Continuous
370
    -3
390
10003
347
10015
348
0
  0
ENDTAB
  0
TABLE
  2
STYLE
  5
3
330
0
100
AcDbSymbolTable
 70
     1
  0
STYLE
  5
11
330
3
100
AcDbSymbolTableRecord
100
AcDbTextStyleTableRecord
  2
STANDARD
 70
     0
 40
0.0
 41
1.0
 50
0.0
 71
     0
 42
0.2
  3

  4

  0
ENDTAB
  0
TABLE
  2
VIEW
  5
6
330
0
100
AcDbSymbolTable
 70
     1
  0
ENDTAB
  0
TABLE
  2
UCS
  5
7
330
0
100
AcDbSymbolTable
 70
     0
  0
ENDTAB
  0
TABLE
  2
APPID
  5
9
330
0
100
AcDbSymbolTable
 70
     2
  0
APPID
  5
12
330
9
100
AcDbSymbolTableRecord
100
AcDbRegAppTableRecord
  2
ACAD
 70
     0
  0
APPID
  5
10058
330
9
100
AcDbSymbolTableRecord
100
AcDbRegAppTableRecord
  2
ACAD_NAV_VCDISPLAY
 70
     0
  0
ENDTAB
  0
TABLE
  2
DIMSTYLE
  5
A
330
0
100
AcDbSymbolTable
 70
     1
100
AcDbDimStyleTable
 71
     0
  0
DIMSTYLE
105
10053
330
A
100
AcDbSymbolTableRecord
100
AcDbDimStyleTableRecord
  2
Standard
 70
     0
340
11
  0
ENDTAB
  0
TABLE
  2
BLOCK_RECORD
  5
1
330
0
100
AcDbSymbolTable
 70
     0
  0
BLOCK_RECORD
  5
1F
330
1
100
AcDbSymbolTableRecord
100
AcDbBlockTableRecord
  2
*MODEL_SPACE
340
10055
 70
     0
280
     1
281
     0
  0
BLOCK_RECORD
  5
1B
330
1
100
AcDbSymbolTableRecord
100
AcDbBlockTableRecord
  2
*PAPER_SPACE
340
10056
 70
     0
280
     1
281
     0
  0
ENDTAB
  0
ENDSEC
  0
SECTION
  2
BLOCKS
  0
BLOCK
  5
20
330
1F
100
AcDbEntity
  8
0
100
AcDbBlockBegin
  2
*MODEL_SPACE
 70
     0
 10
0.0
 20
0.0
 30
0.0
  3
*MODEL_SPACE
  1

  0
ENDBLK
  5
21
330
1F
100
AcDbEntity
  8
0
100
AcDbBlockEnd
  0
BLOCK
  5
1C
330
1B
100
AcDbEntity
 67
     1
  8
0
100
AcDbBlockBegin
  2
*PAPER_SPACE
 70
     0
 10
0.0
 20
0.0
 30
0.0
  3
*PAPER_SPACE
  1

  0
ENDBLK
  5
1D
330
1B
100
AcDbEntity
 67
     1
  8
0
100
AcDbBlockEnd
  0
ENDSEC
  0
SECTION
  2
ENTITIES
  0
LWPOLYLINE
  5
100
330
1F
100
AcDbEntity
  8
0
100
AcDbPolyline
 90
       48
 70
     1
 43
0.0
 10
-150.8511387759148
 20
198.6043092035446
 42
0.4142135623732148
 10
-152.8511387878535
 20
196.604309191605
 10
-152.8511387878161
 20
103.4173152894479
 42
0.4142135623729806
 10
-150.8511387878161
 20
101.4173152894487
 10
-141.3511387878154
 20
101.4173152894487
 42
-0.1989123673796619
 10
-139.9369252254426
 20
100.831528851822
 10
-134.2445370700176
 20
95.13914069639705
 42
0.1989123673797005
 10
-132.8303235076442
 20
94.55335425876988
 10
-64.98717775713671
 20
94.55335425876981
 42
0.1989123673797084
 10
-63.57296419476341
 20
95.13914069639694
 10
-57.38053348248385
 20
101.3315714086764
 42
-0.1989013077076605
 10
-55.96640503019784
 20
101.917357844492
 10
56.01410028640283
 20
101.9221231797395
 42
-0.1989234270984614
 10
57.42839895886191
 20
101.3363367439237
 10
63.6207445610545
 20
95.14399114173112
 42
0.1989123673797069
 10
65.03495812342781
 20
94.55820470410397
 10
132.8781038739354
 20
94.55820470410397
 42
0.1989123673797069
 10
134.2923174363087
 20
95.14399114173112
 10
139.9847055917337
 20
100.8363792971559
 42
-0.1989123673796541
 10
141.3989191541064
 20
101.4221657347827
 10
150.8989191541074
 20
101.4221657347827
 42
0.4142135623729728
 10
152.8989191541074
 20
103.422165734782
 10
152.898919154145
 20
196.6043091916029
 42
0.4142135623732095
 10
150.8989191422064
 20
198.6043092035424
 10
141.398919142143
 20
198.6043092035425
 42
-0.1989123673797092
 10
139.9847055797702
 20
199.1900956411694
 10
134.2923174243457
 20
204.8824837965943
 42
0.198912367379738
 10
132.8781038619721
 20
205.4682702342215
 10
65.0349581114647
 20
205.4682702342214
 42
0.1989123673796926
 10
63.62074454909137
 20
204.8824837965943
 10
57.92835639366686
 20
199.1900956411698
 42
-0.1989123673796292
 10
56.51414283129428
 20
198.6043092035432
 10
32.42970546331579
 20
198.6043092035433
 42
-0.1989123673796455
 10
31.01549190094338
 20
199.1900956411699
 10
25.32310374551887
 20
204.8824837965944
 42
0.1989123673797187
 10
23.9088901831456
 20
205.4682702342216
 10
-23.86110981685419
 20
205.4682702342214
 42
0.1989123673797162
 10
-25.27532337922767
 20
204.8824837965943
 10
-30.96771153465145
 20
199.1900956411706
 42
-0.1989123673796888
 10
-32.3819250970242
 20
198.6043092035437
 10
-56.46636246500364
 20
198.604309203544
 42
-0.1989123673797053
 10
-57.8805760273763
 20
199.1900956411707
 10
-63.5729641827999
 20
204.8824837965944
 42
0.1989123673796863
 10
-64.98717774517324
 20
205.4682702342213
 10
-132.8303234956807
 20
205.4682702342215
 42
0.1989123673796661
 10
-134.244537058054
 20
204.8824837965944
 10
-139.9369252134772
 20
199.1900956411713
 42
-0.1989123673796744
 10
-141.3511387758499
 20
198.6043092035444
  0
LWPOLYLINE
  5
101
330
1F
100
AcDbEntity
  8
0
100
AcDbPolyline
 90
       12
 70
     1
 43
0.0
 10
17.03580931605014
 20
157.0108030994255
 10
30.63580931604973
 20
157.0108030994255
 42
-0.4142135623726789
 10
30.83580931605015
 20
156.8108030994255
 10
30.83580931602833
 20
156.0444774729098
 42
-0.0084203879934481
 10
30.8363764591501
 20
156.0108030844254
 10
30.8363764951118
 20
144.0108030934709
 42
-0.0084190842443659
 10
30.83580931605011
 20
143.9771286939254
 10
30.83580931605036
 20
143.2108030994251
 42
-0.4142135623721065
 10
30.63580931605015
 20
143.0108030994254
 10
17.03580931605014
 20
143.0108030994253
 42
-0.4142135623722106
 10
16.8358093160499
 20
143.2108030994251
 10
16.83580931605011
 20
156.8108030994255
 42
-0.4142135623737194
  0
LWPOLYLINE
  5
102
330
1F
100
AcDbEntity
  8
0
100
AcDbPolyline
 90
       12
 70
     1
 43
0.0
 10
-36.03863573685007
 20
123.9602746184253
 42
0.4142135623739275
 10
-35.83863573685102
 20
124.1602746184261
 10
-35.83863573685015
 20
137.7602746184253
 42
0.4142135623740316
 10
-36.03863573685008
 20
137.9602746184256
 10
-36.80576250032196
 20
137.9602746184262
 42
0.0082215784455782
 10
-36.83864184885392
 20
137.9608152884349
 10
-48.83864175585001
 20
137.9608152904255
 42
0.0082215283481973
 10
-48.87152120138351
 20
137.9602746184583
 10
-49.6386357368502
 20
137.9602746184253
 42
0.4142135623739536
 10
-49.83863573684968
 20
137.7602746184247
 10
-49.8386357368501
 20
124.1602746184254
 42
0.4142135623739275
 10
-49.63863573684956
 20
123.9602746184254
  0
LWPOLYLINE
  5
103
330
1F
100
AcDbEntity
  8
0
100
AcDbPolyline
 90
        8
 70
     1
 43
0.0
 10
-21.26363573685025
 20
105.1102746184251
 10
-21.26363573685025
 20
118.7102746184252
 42
-0.4142135599650698
 10
-21.06363573849459
 20
118.9102746184244
 42
0.0003582800765124
 10
-3.011120544845976
 20
118.9102807214488
 42
-0.4142135632098309
 10
-2.511120540852121
 20
118.4102807214484
 10
-2.511120540852176
 20
105.4102807214495
 42
-0.4142135623731368
 10
-3.011120540852183
 20
104.9102807214495
 10
-21.06363573685029
 20
104.9102746184251
 42
-0.4142135623730431
  0
LWPOLYLINE
  5
104
330
1F
100
AcDbEntity
  8
0
100
AcDbPolyline
 90
        8
 70
     1
 43
0.0
 10
-59.65113879285007
 20
194.9108091864255
 10
-59.65113879285002
 20
181.310809186426
 42
-0.4142135623727309
 10
-59.85113879285002
 20
181.1108091864255
 10
-73.45113878784947
 20
181.1108091864262
 42
-0.4142135623757486
 10
-73.65113878784943
 20
181.3108091864267
 10
-73.65113878784981
 20
194.9108091864255
 42
-0.4142135623735113
 10
-73.45113878785015
 20
195.1108091864256
 10
-59.85113879285002
 20
195.1108091864253
 42
-0.4142135623727829
  0
LWPOLYLINE
  5
105
330
1F
100
AcDbEntity
  8
0
100
AcDbPolyline
 90
       12
 70
     1
 43
0.0
 10
59.69886426314973
 20
105.1102746184251
 42
0.4142135623730431
 10
59.89886426314984
 20
104.9102746184251
 10
80.64137343814932
 20
104.9102807384253
 42
0.4142135623744477
 10
80.84137343814992
 20
105.1102807384251
 10
80.84137343814097
 20
105.859462673214
 42
0.0127147105041645
 10
80.8426660901499
 20
105.9102929194252
 10
80.84266613116424
 20
117.9102929754232
 42
0.0127137159876456
 10
80.84137343814992
 20
117.9611231856251
 10
80.84137343814925
 20
118.7102807384238
 42
0.414213562374968
 10
80.64137343814978
 20
118.910280738425
 10
59.89886426314988
 20
118.9102746184252
 42
0.4142135623731991
 10
59.69886426314976
 20
118.7102746184252
  0
LWPOLYLINE
  5
106
330
1F
100
AcDbEntity
  8
0
100
AcDbPolyline
 90
        8
 70
     1
 43
0.0
 10
-149.1915679643503
 20
162.0608214094252
 10
-150.1915679643504
 20
162.0608214094252
 42
-0.4142135623731159
 10
-150.6915679643504
 20
162.5608214094251
 10
-150.6915679643504
 20
175.5608214094255
 42
-0.4142135623730639
 10
-150.1915679643504
 20
176.0608214094254
 10
-149.1915679643504
 20
176.0608214094254
 42
-0.4142135623730744
 10
-148.6915679643504
 20
175.5608214094255
 10
-148.6915679643504
 20
162.5608214094252
 42
-0.4142135623731159
  0
LWPOLYLINE
  5
107
330
1F
100
AcDbEntity
  8
0
100
AcDbPolyline
 90
       12
 70
     1
 43
0.0
 10
88.27385816615032
 20
162.2608214094262
 10
88.2738581661496
 20
175.8608214094255
 42
-0.4142135623740316
 10
88.47385816615018
 20
176.0608214094252
 10
102.0738581661498
 20
176.0608214094256
 42
-0.4142135623743437
 10
102.2738581661496
 20
175.860821409425
 10
102.2738581661496
 20
175.0668700020256
 10
102.27387645915
 20
175.0608214154254
 10
102.2738764661499
 20
163.0608214104254
 10
102.2738581661496
 20
163.0547727848255
 10
102.2738581661496
 20
162.2608214094261
 42
-0.4142135623747599
 10
102.0738581661498
 20
162.0608214094255
 10
88.47385816615032
 20
162.0608214094258
 42
-0.4142135623745519
  0
LWPOLYLINE
  5
108
330
1F
100
AcDbEntity
  8
0
100
AcDbPolyline
 90
        8
 70
     1
 43
0.0
 10
97.99886426314976
 20
118.9102746184252
 10
111.5988642631496
 20
118.9102746184252
 42
-0.4142135623732511
 10
111.7988642631495
 20
118.7102746184252
 10
111.7988642631497
 20
105.1102746184251
 42
-0.4142135623731991
 10
111.5988642631497
 20
104.9102746184251
 10
97.99886426314976
 20
104.9102746184251
 42
-0.4142135623731472
 10
97.79886426314973
 20
105.1102746184251
 10
97.79886426314973
 20
118.7102746184252
 42
-0.4142135623733032
  0
LWPOLYLINE
  5
109
330
1F
100
AcDbEntity
  8
0
100
AcDbPolyline
 90
        4
 70
     1
 43
0.0
 10
133.4879630812837
 20
191.5780097566816
 10
134.9534530640664
 20
191.5780097566816
 10
134.9534530640664
 20
186.1857643976105
 10
133.4454930849507
 20
186.1857643976105
  0
LWPOLYLINE
  5
110
330
1F
100
AcDbEntity
  8
0
100
AcDbPolyline
 90
        8
 70
     1
 43
0.0
 10
108.2598457510274
 20
124.3987616302341
 10
108.2598457510274
 20
137.3987616302339
 42
-0.4142135623729701
 10
108.7598457510274
 20
137.8987616302339
 10
109.7598457510274
 20
137.8987616302339
 42
-0.4142135623731991
 10
110.2598457510274
 20
137.3987616302339
 10
110.2598457510274
 20
124.3987616302341
 42
-0.4142135623730118
 10
109.7598457510274
 20
123.8987616302341
 10
108.7598457510274
 20
123.898761630234
 42
-0.4142135623732199
  0
LWPOLYLINE
  5
111
330
1F
100
AcDbEntity
  8
0
100
AcDbPolyline
 90
       12
 70
     1
 43
0.0
 10
-54.88863573685013
 20
137.7602746184253
 10
-54.88863573685073
 20
124.1602746184261
 42
-0.4142135623750202
 10
-55.08863573685007
 20
123.9602746184253
 10
-68.68863573685032
 20
123.960274618425
 42
-0.4142135623725228
 10
-68.88863573685011
 20
124.1602746184253
 10
-68.88863573684957
 20
137.7602746184245
 42
-0.4142135623760085
 10
-68.68863573685029
 20
137.9602746184254
 10
-67.92150899438086
 20
137.9602746183701
 42
-0.0082214693452109
 10
-67.88862978484996
 20
137.9608152904256
 10
-55.88862957086908
 20
137.9608152904537
 42
-0.0082214863542062
 10
-55.85575029333583
 20
137.9602746184448
 10
-55.08863573685016
 20
137.9602746184255
 42
-0.414213562374968
  0
LWPOLYLINE
  5
112
330
1F
100
AcDbEntity
  8
0
100
AcDbPolyline
 90
        8
 70
     1
 43
0.0
 10
-107.2761418338501
 20
175.8608214094254
 42
0.4142135623743958
 10
-107.4761418338507
 20
176.060821409425
 10
-121.0761418338501
 20
176.0608214094256
 42
0.414213562373121
 10
-121.2761418338501
 20
175.8608214094254
 10
-121.2761418338501
 20
162.2608214094257
 42
0.4142135623739275
 10
-121.0761418338496
 20
162.0608214094254
 10
-107.4761418338501
 20
162.0608214094255
 42
0.4142135623757486
 10
-107.2761418338506
 20
162.2608214094261
  0
LWPOLYLINE
  5
113
330
1F
100
AcDbEntity
  8
0
100
AcDbPolyline
 90
        8
 70
     1
 43
0.0
 10
-82.97614183385009
 20
176.0608214094255
 42
0.4142135623728349
 10
-83.17614183385005
 20
175.8608214094254
 10
-83.17614183385009
 20
162.2608214094261
 42
0.4142135623744999
 10
-82.97614183385013
 20
162.0608214094256
 10
-69.37614183385004
 20
162.0608214094255
 42
0.414213562374838
 10
-69.17614183385019
 20
162.260821409426
 10
-69.17614183385011
 20
175.8608214094254
 42
0.4142135623738234
 10
-69.37614183385057
 20
176.0608214094252
  0
LWPOLYLINE
  5
114
330
1F
100
AcDbEntity
  8
0
100
AcDbPolyline
 90
       12
 70
     1
 43
0.0
 10
-116.3141906839499
 20
157.0108030994255
 10
-102.7141906839498
 20
157.0108030994252
 42
-0.4142135623723146
 10
-102.51419068395
 20
156.8108030994255
 10
-102.5141906839459
 20
156.0442958496946
 42
-0.0083749533614127
 10
-102.51362964385
 20
156.0108030844255
 10
-102.513629643858
 20
144.010803113438
 42
-0.0083749611207099
 10
-102.51419068395
 20
143.9773103171253
 10
-102.5141906839495
 20
143.2108030994251
 42
-0.4142135623723146
 10
-102.7141906839498
 20
143.0108030994254
 10
-116.3141906839495
 20
143.0108030994254
 42
-0.4142135623731472
 10
-116.5141906839503
 20
143.2108030994251
 10
-116.5141906839497
 20
156.8108030994255
 42
-0.4142135623734592
  0
LWPOLYLINE
  5
115
330
1F
100
AcDbEntity
  8
0
100
AcDbPolyline
 90
       16
 70
     1
 43
0.0
 10
7.311364263149823
 20
124.1602746184253
 42
0.4142135623733032
 10
7.511364263150317
 20
123.9602746184253
 10
21.11136426314994
 20
123.9602746184253
 42
0.4142135623758526
 10
21.31136426314944
 20
124.1602746184265
 10
21.31136426314979
 20
137.7602746184253
 42
0.4142135623741876
 10
21.11136426314962
 20
137.9602746184248
 10
20.34423139565003
 20
137.9602746184254
 42
0.0082215819445795
 10
20.31135203314012
 20
137.9608152884074
 10
8.311352099149935
 20
137.9608152904254
 42
0.0082215180967344
 10
8.278472694635929
 20
137.9602746184407
 10
7.511364263149821
 20
137.9602746184254
 42
0.4142135623751241
 10
7.311364263150322
 20
137.7602746184248
 10
7.311364263149789
 20
136.9657585534254
 10
7.311352006149787
 20
136.9608152984254
 10
7.311352045150127
 20
124.9608153434253
 10
7.311364263149823
 20
124.9558720274254
  0
LWPOLYLINE
  5
116
330
1F
100
AcDbEntity
  8
0
100
AcDbPolyline
 90
       12
 70
     1
 43
0.0
 10
49.88636425214991
 20
156.0108030844254
 10
49.88636426613566
 20
144.010803093469
 42
-0.0083287526500767
 10
49.88580931605015
 20
143.9774929618253
 10
49.88580931605027
 20
143.2108030994251
 42
-0.4142135623721065
 10
49.6858093160501
 20
143.0108030994254
 10
36.0858093160506
 20
143.0108030994253
 42
-0.4142135623731991
 10
35.88580931604986
 20
143.2108030994251
 10
35.88580931605046
 20
156.8108030994255
 42
-0.4142135623733032
 10
36.08580931605014
 20
157.0108030994255
 10
49.68580931604967
 20
157.0108030994252
 42
-0.4142135623735634
 10
49.88580931605016
 20
156.8108030994255
 10
49.88580931603644
 20
156.044113205087
 42
-0.0083292635207523
  0
LWPOLYLINE
  5
117
330
1F
100
AcDbEntity
  8
0
100
AcDbPolyline
 90
       12
 70
     1
 43
0.0
 10
-131.09156796435
 20
175.8608214094254
 10
-131.0915679643875
 20
175.1372652610499
 42
-0.0191319573261145
 10
-131.0886418508499
 20
175.0608214154255
 10
-131.08864188888
 20
163.0608214104418
 42
-0.0191325742029388
 10
-131.09156796435
 20
162.9843775258257
 10
-131.0915679643503
 20
162.260821409426
 42
-0.414213562374708
 10
-131.29156796435
 20
162.0608214094255
 10
-144.8915679643494
 20
162.0608214094257
 42
-0.4142135623739795
 10
-145.0915679643495
 20
162.260821409426
 10
-145.09156796435
 20
175.8608214094254
 42
-0.4142135623730431
 10
-144.89156796435
 20
176.0608214094256
 10
-131.2915679643505
 20
176.0608214094252
 42
-0.4142135623743437
  0
LWPOLYLINE
  5
118
330
1F
100
AcDbEntity
  8
0
100
AcDbPolyline
 90
        8
 70
     1
 43
0.0
 10
21.59886121215026
 20
181.3108091864267
 10
21.59886121215019
 20
194.9108091864255
 42
-0.4142135623734592
 10
21.7988612121499
 20
195.1108091864256
 10
35.39886120714952
 20
195.1108091864253
 42
-0.4142135623744999
 10
35.59886120714994
 20
194.9108091864255
 10
35.59886120714992
 20
181.310809186426
 42
-0.4142135623739275
 10
35.39886120714984
 20
181.1108091864256
 10
21.79886121215107
 20
181.110809186426
 42
-0.4142135623765289
  0
LWPOLYLINE
  5
119
330
1F
100
AcDbEntity
  8
0
100
AcDbPolyline
 90
        8
 70
     1
 43
0.0
 10
-21.75113879284996
 20
181.1108091864255
 42
0.4142135623737714
 10
-21.55113879285014
 20
181.310809186426
 10
-21.55113879285011
 20
194.9108091864255
 42
0.4142135623741876
 10
-21.75113879285042
 20
195.1108091864253
 10
-35.35113878785015
 20
195.1108091864255
 42
0.4142135623733553
 10
-35.55113878784986
 20
194.9108091864255
 10
-35.55113878784943
 20
181.3108091864268
 42
0.4142135623759046
 10
-35.35113878784947
 20
181.1108091864264
  0
LWPOLYLINE
  5
120
330
1F
100
AcDbEntity
  8
0
100
AcDbPolyline
 90
        8
 70
     1
 43
0.0
 10
-26.02614183384965
 20
162.2608214094262
 10
-26.02614183385022
 20
175.8608214094254
 42
-0.4142135623730431
 10
-25.82614183385015
 20
176.0608214094255
 10
-12.22614183385068
 20
176.0608214094256
 42
-0.4142135623740316
 10
-12.02614183385019
 20
175.8608214094254
 10
-12.02614183385016
 20
162.2608214094259
 42
-0.4142135623742917
 10
-12.22614183385019
 20
162.0608214094256
 10
-25.82614183384969
 20
162.0608214094258
 42
-0.4142135623741356
  0
LWPOLYLINE
  5
121
330
1F
100
AcDbEntity
  8
0
100
AcDbPolyline
 90
        8
 70
     1
 43
0.0
 10
-149.6511387878505
 20
195.110809186425
 10
-136.051138792851
 20
195.110809186425
 42
-0.4142135623736674
 10
-135.8511387928505
 20
194.9108091864249
 10
-135.8511387928505
 20
181.3108091864254
 42
-0.4142135623743437
 10
-136.0511387928506
 20
181.1108091864249
 10
-149.6511387878499
 20
181.1108091864255
 42
-0.4142135623743437
 10
-149.8511387878499
 20
181.310809186426
 10
-149.8511387878506
 20
194.9108091864249
 42
-0.4142135623734592
  0
LWPOLYLINE
  5
122
330
1F
100
AcDbEntity
  8
0
100
AcDbPolyline
 90
        8
 70
     1
 43
0.0
 10
-131.0915588113531
 20
118.410277641106
 42
0.4142135623730847
 10
-131.5915585766512
 20
118.9102778758079
 10
-144.5915585766498
 20
118.9102839780583
 42
0.4142135623730118
 10
-145.0915588113516
 20
118.4102842127604
 10
-145.0915649136021
 20
105.4102842127617
 42
0.4142135623730639
 10
-144.591565148304
 20
104.9102839780598
 10
-131.5915651483054
 20
104.9102778758094
 42
0.4142135623731055
 10
-131.0915649136038
 20
105.4102776411073
  0
LWPOLYLINE
  5
123
330
1F
100
AcDbEntity
  8
0
100
AcDbPolyline
 90
        8
 70
     1
 43
0.0
 10
86.55512640814812
 20
123.960815289449
 10
85.55512640814809
 20
123.9608152894489
 42
-0.4142135623730534
 10
85.05512640814806
 20
124.4608152894489
 10
85.05512640814812
 20
137.460815289449
 42
-0.4142135623731159
 10
85.55512640814812
 20
137.9608152894489
 10
86.55512640814821
 20
137.9608152894489
 42
-0.414213562372991
 10
87.05512640814822
 20
137.4608152894489
 10
87.05512640814815
 20
124.4608152894489
 42
-0.4142135623731991
  0
LWPOLYLINE
  5
124
330
1F
100
AcDbEntity
  8
0
100
AcDbPolyline
 90
        8
 70
     1
 43
0.0
 10
38.98683602024109
 20
105.4102746976703
 42
0.4142135623200262
 10
39.48683989479638
 20
104.9102785723438
 10
50.61388591021687
 20
104.910364797363
 42
0.4142112927048176
 10
51.11388203564777
 20
105.4103647973481
 10
51.11388203564668
 20
120.4102827120091
 42
0.4142135623730744
 10
50.61388203564666
 20
120.910282712009
 10
39.48671978040247
 20
120.910282712009
 42
0.4142158320980216
 10
38.98671978041745
 20
120.4102788373493
  0
LWPOLYLINE
  5
125
330
1F
100
AcDbEntity
  8
0
100
AcDbPolyline
 90
        8
 70
     1
 43
0.0
 10
-130.6011387878506
 20
195.110809186425
 42
0.4142135623721586
 10
-130.8011387878506
 20
194.9108091864249
 10
-130.8011387878499
 20
181.310809186426
 42
0.4142135623749161
 10
-130.6011387878502
 20
181.1108091864255
 10
-117.0011387928506
 20
181.1108091864248
 42
0.4142135623744477
 10
-116.8011387928508
 20
181.3108091864254
 10
-116.8011387928505
 20
194.9108091864248
 42
0.4142135623743437
 10
-117.0011387928513
 20
195.1108091864247
  0
LWPOLYLINE
  5
126
330
1F
100
AcDbEntity
  8
0
100
AcDbPolyline
 90
        8
 70
     1
 43
0.0
 10
-78.70113879284992
 20
194.9108091864255
 10
-78.70113879285032
 20
181.310809186426
 42
-0.4142135623740055
 10
-78.90113879285016
 20
181.1108091864255
 10
-92.50113878784949
 20
181.1108091864264
 42
-0.4142135623756965
 10
-92.70113878784929
 20
181.3108091864267
 10
-92.70113878785009
 20
194.9108091864255
 42
-0.4142135623738755
 10
-92.50113878784992
 20
195.1108091864256
 10
-78.90113879285078
 20
195.1108091864254
 42
-0.4142135623746039
  0
LWPOLYLINE
  5
127
330
1F
100
AcDbEntity
  8
0
100
AcDbPolyline
 90
        8
 70
     1
 43
0.0
 10
149.8988642631495
 20
118.7102746184252
 42
0.4142135623727829
 10
149.6988642631496
 20
118.9102746184252
 10
136.0988642631498
 20
118.9102746184252
 42
0.4142135623730431
 10
135.89886426315
 20
118.7102746184252
 10
135.8988642631496
 20
105.1102746184251
 42
0.4142135623731991
 10
136.0988642631498
 20
104.9102746184251
 10
149.6988642631497
 20
104.9102746184251
 42
0.414213562372991
 10
149.8988642631498
 20
105.1102746184251
  0
LWPOLYLINE
  5
128
330
1F
100
AcDbEntity
  8
0
100
AcDbPolyline
 90
        8
 70
     1
 43
0.0
 10
-79.36656491335054
 20
118.9102868414249
 42
0.4142135623729806
 10
-79.86656491335054
 20
118.4102868414248
 10
-79.86656491335057
 20
105.4102868414249
 42
0.4142135623730951
 10
-79.36656491335053
 20
104.9102868414248
 10
-78.36656491335054
 20
104.9102868414249
 42
0.4142135623731575
 10
-77.86656491335053
 20
105.4102868414249
 10
-77.86656491335057
 20
118.4102868414248
 42
0.4142135623730118
 10
-78.36656491335054
 20
118.9102868414249
  0
LWPOLYLINE
  5
129
330
1F
100
AcDbEntity
  8
0
100
AcDbPolyline
 90
       17
 70
     1
 43
0.0
 10
147.6755382004745
 20
190.1131865081976
 10
147.6755382004745
 20
192.1512020644595
 10
149.2047417749224
 20
192.1512020644595
 10
149.2047417749224
 20
189.9494745612409
 10
151.7321622065057
 20
189.9494745612409
 10
151.7321622065057
 20
189.0092616074795
 10
149.2684553665879
 20
189.0092616074795
 10
149.2684553665879
 20
183.1287479844922
 10
146.0826210343609
 20
183.1287479844922
 10
146.0826210343609
 20
184.2326682710264
 10
148.0153583512968
 20
184.2326682710264
 10
148.0153583512968
 20
187.9690262790205
 10
143.5764356009451
 20
184.1689833129513
 10
142.7056459271391
 20
185.0181545388175
 10
147.654303202307
 20
189.0517213223187
 10
143.1091796696269
 20
189.0517213223187
 10
143.1091796696269
 20
190.0495015501226
  0
LWPOLYLINE
  5
130
330
1F
100
AcDbEntity
  8
0
100
AcDbPolyline
 90
       16
 70
     1
 43
0.0
 10
149.8988612071499
 20
156.8108091864258
 42
0.4142135623754363
 10
149.6988612071494
 20
157.0108091864247
 10
148.90386022155
 20
157.0108091864254
 10
148.8989192171501
 20
157.0108213854255
 10
136.8989190691499
 20
157.0108213934252
 10
136.8939781467496
 20
157.0108091864254
 10
136.0988612121494
 20
157.0108091864262
 42
0.4142135623714302
 10
135.8988612121491
 20
156.8108091864263
 10
135.8988612121495
 20
143.2108091864255
 42
0.4142135623743958
 10
136.0988612121503
 20
143.0108091864263
 10
149.6988612071501
 20
143.0108091864255
 42
0.4142135623743437
 10
149.8988612071492
 20
143.2108091864262
 10
149.8988612071502
 20
144.0000533555251
 42
0.0026934329096112
 10
149.8989191721046
 20
144.0108214054629
 10
149.8989191841498
 20
156.0108213994254
 42
0.0026920665096246
 10
149.8988612071695
 20
156.0215894312988
  0
LWPOLYLINE
  5
131
330
1F
100
AcDbEntity
  8
0
100
AcDbPolyline
 90
       12
 70
     1
 43
0.0
 10
45.61136426314993
 20
137.9602746184255
 10
46.37847879864414
 20
137.9602746183961
 42
-0.0082215243470551
 10
46.41135822815008
 20
137.9608152904256
 10
58.4113581451334
 20
137.960815288431
 42
-0.0082215799463842
 10
58.44423749964617
 20
137.960274618423
 10
59.21136426314992
 20
137.9602746184255
 42
-0.4142135623743958
 10
59.41136426314993
 20
137.7602746184253
 10
59.4113642631489
 20
124.1602746184265
 42
-0.4142135623764248
 10
59.21136426314992
 20
123.9602746184254
 10
45.61136426315051
 20
123.9602746184253
 42
-0.4142135623736153
 10
45.41136426315001
 20
124.1602746184253
 10
45.41136426315011
 20
137.7602746184253
 42
-0.4142135623736674
  0
LWPOLYLINE
  5
132
330
1F
100
AcDbEntity
  8
0
100
AcDbPolyline
 90
       12
 70
     1
 43
0.0
 10
-21.26419068394959
 20
143.210803099426
 42
0.4142135623741356
 10
-21.06419068394953
 20
143.0108030994259
 10
-7.464190683949958
 20
143.0108030994255
 42
0.4142135623727829
 10
-7.264190683949536
 20
143.210803099426
 10
-7.264190683950139
 20
143.9773103171254
 42
0.0083739709313228
 10
-7.263629616894959
 20
144.0108030934537
 10
-7.263629643850179
 20
156.0108030844254
 42
0.0083749533665733
 10
-7.264190683970778
 20
156.0442958496824
 10
-7.264190683950137
 20
156.8108030994255
 42
0.4142135623737194
 10
-7.464190683950419
 20
157.0108030994255
 10
-21.06419068394995
 20
157.0108030994255
 42
0.4142135623742397
 10
-21.26419068394987
 20
156.8108030994255
  0
LWPOLYLINE
  5
133
330
1F
100
AcDbEntity
  8
0
100
AcDbPolyline
 90
        8
 70
     1
 43
0.0
 10
-107.2790649133505
 20
118.4102868414249
 10
-107.2790649133504
 20
105.4102868414249
 42
-0.4142135623732199
 10
-107.7790649133504
 20
104.9102868414249
 10
-120.7790649133506
 20
104.9102868414249
 42
-0.4142135623731159
 10
-121.2790649133504
 20
105.4102868414249
 10
-121.2790649133504
 20
118.4102868414249
 42
-0.4142135623729181
 10
-120.7790649133506
 20
118.9102868414249
 10
-107.7790649133504
 20
118.9102868414249
 42
-0.4142135623731784
  0
LWPOLYLINE
  5
134
330
1F
100
AcDbEntity
  8
0
100
AcDbPolyline
 90
       24
 70
     1
 43
0.0
 10
-122.5068929348498
 20
123.9608152864253
 10
-139.3828594728501
 20
123.9582317144255
 10
-139.382869500835
 20
122.9608152914109
 42
-0.4142136106917086
 10
-140.3828694658349
 20
121.9608152904104
 10
-145.3828694348498
 20
121.9608153014254
 42
-0.4142135778295081
 10
-146.3828694508637
 20
122.9608152944114
 10
-146.3828694508498
 20
123.9587417887253
 10
-147.2927410685505
 20
123.9587417887255
 42
-0.414213562372965
 10
-147.4927410685499
 20
124.1587417887258
 10
-147.4927410685501
 20
137.7608153064255
 42
-0.4142135623730431
 10
-147.2927410685501
 20
137.9608153064253
 10
-112.2401014794501
 20
137.9608152884252
 42
-0.4142135623742136
 10
-112.0401014794505
 20
137.7608152884247
 10
-112.0401014794501
 20
137.0149384361255
 42
-0.0135382224043948
 10
-112.0386357478133
 20
136.9608153134254
 10
-112.0386357348498
 20
124.9608153084253
 42
-0.0135379391916793
 10
-112.0401014794565
 20
124.9066921447739
 10
-112.04010147945
 20
124.1608152884253
 42
-0.4142135623739536
 10
-112.2401014794505
 20
123.9608152884255
 10
-115.5068928428501
 20
123.9608152824254
 10
-115.5068928428501
 20
122.9608152914251
 42
-0.4142135321900893
 10
-116.5068929218238
 20
121.9608152903998
 10
-121.50689287885
 20
121.9608153014254
 42
-0.4142135760720497
 10
-122.5068928888637
 20
122.9608152944114
  0
LWPOLYLINE
  5
135
330
1F
100
AcDbEntity
  8
0
100
AcDbPolyline
 90
        8
 70
     1
 43
0.0
 10
-111.5511387878499
 20
195.1108091864255
 42
0.4142135623733812
 10
-111.7511387878497
 20
194.9108091864254
 10
-111.7511387878493
 20
181.3108091864267
 42
0.4142135623759046
 10
-111.5511387878492
 20
181.1108091864262
 10
-97.9511387928499
 20
181.1108091864255
 42
0.4142135623731472
 10
-97.75113879284994
 20
181.3108091864259
 10
-97.75113879284996
 20
194.9108091864255
 42
0.4142135623744477
 10
-97.95113879285038
 20
195.1108091864253
  0
LWPOLYLINE
  5
136
330
1F
100
AcDbEntity
  8
0
100
AcDbPolyline
 90
       12
 70
     1
 43
0.0
 10
64.17385816614992
 20
175.860821409425
 42
0.4142135623737714
 10
63.97385816614938
 20
176.0608214094256
 10
50.37385816614987
 20
176.0608214094255
 42
0.414213562374708
 10
50.17385816615005
 20
175.860821409425
 10
50.17385816614999
 20
162.2608214094254
 42
0.4142135623740316
 10
50.37385816615056
 20
162.0608214094258
 10
63.97385816614992
 20
162.0608214094255
 42
0.4142135623745519
 10
64.17385816614994
 20
162.2608214094257
 10
64.17385816614994
 20
163.0558837976255
 10
64.17387035415022
 20
163.0608214104254
 10
64.17387035614988
 20
175.0608214154254
 10
64.17385816614992
 20
175.0657589892256
  0
LWPOLYLINE
  5
137
330
1F
100
AcDbEntity
  8
0
100
AcDbPolyline
 90
       12
 70
     1
 43
0.0
 10
-40.60113879285005
 20
182.1052861648254
 10
-40.60113879285014
 20
181.310809186426
 42
-0.4142135623740577
 10
-40.80113879285017
 20
181.1108091864255
 10
-54.4011387878497
 20
181.1108091864258
 42
-0.4142135623746039
 10
-54.60113878784987
 20
181.3108091864261
 10
-54.60113878785008
 20
194.9108091864255
 42
-0.4142135623741096
 10
-54.40113878784972
 20
195.1108091864255
 10
-40.80113879285014
 20
195.1108091864255
 42
-0.4142135623737194
 10
-40.60113879285038
 20
194.910809186425
 10
-40.60113879285005
 20
194.1163322080253
 10
-40.60112354084991
 20
194.1108091854253
 10
-40.60112354084991
 20
182.1108092154256
  0
LWPOLYLINE
  5
138
330
1F
100
AcDbEntity
  8
0
100
AcDbPolyline
 90
       16
 70
     1
 43
0.0
 10
149.8988612071499
 20
137.7608091864254
 42
0.4142135623750202
 10
149.6988612071494
 20
137.9608091864247
 10
148.9059068449499
 20
137.9608091864254
 10
148.8989192171501
 20
137.9608336004255
 10
136.8989190691498
 20
137.9608336004255
 10
136.8919315233497
 20
137.9608091864254
 10
136.0988612121494
 20
137.9608091864257
 42
0.4142135623724187
 10
135.8988612121496
 20
137.7608091864254
 10
135.89886121215
 20
124.1608091864254
 42
0.4142135623758526
 10
136.0988612121507
 20
123.9608091864263
 10
149.6988612071496
 20
123.9608091864255
 42
0.4142135623761647
 10
149.8988612071486
 20
124.1608091864264
 10
149.8988612071499
 20
124.9500655625255
 42
0.0026934259129366
 10
149.8989191721678
 20
124.9608335844027
 10
149.8989191841503
 20
136.9608336284252
 42
0.0026920609808511
 10
149.8988612071789
 20
136.9716016383352
  0
LWPOLYLINE
  5
139
330
1F
100
AcDbEntity
  8
0
100
AcDbPolyline
 90
        8
 70
     1
 43
0.0
 10
2.548861212150658
 20
181.3108091864267
 10
2.548861212149897
 20
194.9108091864255
 42
-0.4142135623737714
 10
2.74886121215007
 20
195.1108091864256
 10
16.34886120714994
 20
195.1108091864253
 42
-0.4142135623738755
 10
16.54886120715011
 20
194.9108091864256
 10
16.54886120715009
 20
181.3108091864261
 42
-0.4142135623735113
 10
16.34886120714992
 20
181.1108091864255
 10
2.748861212150406
 20
181.1108091864262
 42
-0.4142135623758005
  0
LWPOLYLINE
  5
140
330
1F
100
AcDbEntity
  8
0
100
AcDbPolyline
 90
        8
 70
     1
 43
0.0
 10
-2.501138792849933
 20
194.9108091864255
 10
-2.501138792850166
 20
181.3108091864261
 42
-0.4142135623738234
 10
-2.701138792850019
 20
181.1108091864256
 10
-16.30113878784946
 20
181.1108091864264
 42
-0.4142135623757486
 10
-16.50113878784917
 20
181.3108091864267
 10
-16.50113878784974
 20
194.9108091864255
 42
-0.4142135623730951
 10
-16.30113878784996
 20
195.1108091864255
 10
-2.701138792850461
 20
195.1108091864253
 42
-0.4142135623742397
  0
LWPOLYLINE
  5
141
330
1F
100
AcDbEntity
  8
0
100
AcDbPolyline
 90
       12
 70
     1
 43
0.0
 10
87.7858093160502
 20
143.0108030994254
 10
74.18580931605011
 20
143.0108030994255
 42
-0.4142135623727829
 10
73.98580931604991
 20
143.2108030994259
 10
73.98580931605032
 20
156.8108030994255
 42
-0.4142135623735634
 10
74.18580931605015
 20
157.0108030994254
 10
87.78580931604967
 20
157.0108030994255
 42
-0.4142135623733553
 10
87.98580931604996
 20
156.8108030994255
 10
87.98580931606853
 20
156.0442958496612
 42
-0.0083749533782597
 10
87.98637035614987
 20
156.0108030844254
 10
87.98637037813394
 20
144.0108030933781
 42
-0.0083741533784917
 10
87.98580931605
 20
143.9773103171255
 10
87.98580931605043
 20
143.2108030994251
 42
-0.4142135623721586
  0
LWPOLYLINE
  5
142
330
1F
100
AcDbEntity
  8
0
100
AcDbPolyline
 90
       12
 70
     1
 43
0.0
 10
-102.0261418338497
 20
176.060821409425
 10
-88.42614183385
 20
176.0608214094256
 42
-0.4142135623740316
 10
-88.2261418338499
 20
175.8608214094252
 10
-88.22614183385018
 20
175.0668700020256
 10
-88.22612354084993
 20
175.0608214154254
 10
-88.22612354084995
 20
163.0608214444254
 10
-88.22614183385018
 20
163.0547727848254
 10
-88.22614183384997
 20
162.2608214094256
 42
-0.4142135623736933
 10
-88.42614183385007
 20
162.0608214094254
 10
-102.0261418338497
 20
162.0608214094258
 42
-0.414213562374708
 10
-102.2261418338497
 20
162.2608214094262
 10
-102.2261418338502
 20
175.8608214094255
 42
-0.4142135623741876
  0
LWPOLYLINE
  5
143
330
1F
100
AcDbEntity
  8
0
100
AcDbPolyline
 90
       12
 70
     1
 43
0.0
 10
40.36136426314986
 20
137.7602746184253
 10
40.36136426314941
 20
124.1602746184258
 42
-0.4142135623738234
 10
40.16136426314984
 20
123.9602746184253
 10
26.56136426314992
 20
123.9602746184253
 42
-0.4142135623727309
 10
26.36136426314996
 20
124.1602746184253
 10
26.36136426315057
 20
137.7602746184247
 42
-0.4142135623740836
 10
26.56136426314992
 20
137.9602746184254
 10
27.32849100565138
 20
137.960274618413
 42
-0.0082215413496218
 10
27.36137050314996
 20
137.9608152904254
 10
39.36137037512443
 20
137.9608152884415
 42
-0.0082215742011417
 10
39.39424970663558
 20
137.9602746184336
 10
40.16136426314984
 20
137.9602746184254
 42
-0.4142135623744477
  0
LWPOLYLINE
  5
144
330
1F
100
AcDbEntity
  8
0
100
AcDbPolyline
 90
       12
 70
     1
 43
0.0
 10
-83.46419068394984
 20
143.9772193975251
 10
-83.46419068394938
 20
143.2108030994251
 42
-0.4142135623727569
 10
-83.66419068394989
 20
143.0108030994254
 10
-97.26419068394999
 20
143.0108030994254
 42
-0.4142135623734072
 10
-97.46419068395006
 20
143.2108030994259
 10
-97.46419068394985
 20
156.8108030994255
 42
-0.4142135623728089
 10
-97.26419068395005
 20
157.0108030994255
 10
-83.66419068394982
 20
157.0108030994258
 42
-0.4142135623721065
 10
-83.46419068394991
 20
156.8108030994254
 10
-83.46419068390693
 20
156.0443867693194
 42
-0.0083976976686991
 10
-83.4636265928502
 20
156.0108030844253
 10
-83.46362659284801
 20
144.0108031134573
 42
-0.0083977054301371
  0
LWPOLYLINE
  5
145
330
1F
100
AcDbEntity
  8
0
100
AcDbPolyline
 90
       20
 70
     1
 43
0.0
 10
128.7618526251501
 20
179.1108091864255
 42
0.4142135455933893
 10
129.7618525191951
 20
180.1108091793804
 10
129.76185251915
 20
181.1108091704255
 10
130.6488612071496
 20
181.1108091864255
 42
0.414213562372887
 10
130.8488612071499
 20
181.310809186426
 10
130.8488612071498
 20
194.9108091864255
 42
0.4142135623736674
 10
130.6488612071496
 20
195.1108091864251
 10
97.99886121214953
 20
195.1108091864259
 42
0.4142135623731991
 10
97.79886121214991
 20
194.9108091864251
 10
97.79886121214998
 20
181.3108091864256
 42
0.4142135623751241
 10
97.99886121215054
 20
181.1108091864261
 10
98.88587597214982
 20
181.1108091704256
 10
98.88587597114995
 20
180.1108091664255
 42
0.4142135462458662
 10
99.88587592711937
 20
179.1108091893949
 10
104.8858760811499
 20
179.1108091864257
 42
0.4142135281051011
 10
105.8858759711496
 20
180.1108091794267
 10
105.8858859911499
 20
181.1108091864256
 10
122.7618525281499
 20
181.1108091784255
 10
122.7618525331189
 20
180.1108091663944
 42
0.4142135444882777
 10
123.7618524831188
 20
179.1108091893946
  0
LWPOLYLINE
  5
146
330
1F
100
AcDbEntity
  8
0
100
AcDbPolyline
 90
       12
 70
     1
 43
0.0
 10
2.061364263149802
 20
123.9602746184253
 42
0.4142135623756965
 10
2.261364263148945
 20
124.1602746184266
 10
2.2613642631498
 20
137.7602746184253
 42
0.4142135623746039
 10
2.061364263149768
 20
137.9602746184255
 10
1.294243602664692
 20
137.9602746184509
 42
0.0082214968448734
 10
1.261364283145311
 20
137.9608152904592
 10
-10.73863562584996
 20
137.9608152904256
 42
0.0082215350909681
 10
-10.77151509838145
 20
137.9602746184431
 10
-11.53863573685008
 20
137.9602746184254
 42
0.4142135623741356
 10
-11.73863573684972
 20
137.7602746184249
 10
-11.73863573685013
 20
124.1602746184253
 42
0.4142135623720546
 10
-11.53863573685006
 20
123.9602746184255
  0
LWPOLYLINE
  5
147
330
1F
100
AcDbEntity
  8
0
100
AcDbPolyline
 90
        8
 70
     1
 43
0.0
 10
12.07385816614962
 20
162.2608214094257
 42
0.4142135623740836
 10
12.27385816615022
 20
162.0608214094253
 10
25.87385816615003
 20
162.0608214094255
 42
0.414213562374968
 10
26.07385816614971
 20
162.2608214094262
 10
26.07385816614978
 20
175.8608214094254
 42
0.4142135623737194
 10
25.87385816614943
 20
176.0608214094252
 10
12.27385816614962
 20
176.0608214094256
 42
0.4142135623736674
 10
12.07385816614981
 20
175.8608214094255
  0
LWPOLYLINE
  5
148
330
1F
100
AcDbEntity
  8
0
100
AcDbPolyline
 90
        8
 70
     1
 43
0.0
 10
92.74886120715001
 20
194.9108091864256
 42
0.4142135623739275
 10
92.54886120714953
 20
195.1108091864253
 10
78.94886121215009
 20
195.1108091864256
 42
0.4142135623731472
 10
78.7488612121503
 20
194.9108091864255
 10
78.74886121215073
 20
181.3108091864268
 42
0.4142135623754363
 10
78.94886121215065
 20
181.1108091864262
 10
92.5488612071499
 20
181.1108091864255
 42
0.4142135623736153
 10
92.74886120714981
 20
181.3108091864261
  0
LWPOLYLINE
  5
149
330
1F
100
AcDbEntity
  8
0
100
AcDbPolyline
 90
        8
 70
     1
 43
0.0
 10
90.85980297954996
 20
137.9608336164257
 42
0.4142135623731991
 10
90.65980297954999
 20
137.7608336164257
 10
90.65980297954999
 20
124.1608336164257
 42
0.4142135623731472
 10
90.85980297954995
 20
123.9608336164257
 10
104.4598029795499
 20
123.9608336164257
 42
0.4142135623731472
 10
104.6598029795499
 20
124.1608336164257
 10
104.6598029795499
 20
137.7608336164257
 42
0.4142135623728349
 10
104.4598029795499
 20
137.9608336164257
  0
LWPOLYLINE
  5
150
330
1F
100
AcDbEntity
  8
0
100
AcDbPolyline
 90
       16
 70
     1
 43
0.0
 10
149.6988612071497
 20
162.0608091864256
 42
0.4142135623709619
 10
149.8988612071505
 20
162.2608091864248
 10
149.8988612071499
 20
163.0500716665254
 42
0.0026934256752387
 10
149.8989191721364
 20
163.0608396874272
 10
149.89891918415
 20
175.0608397304256
 42
0.0026920614641022
 10
149.8988612071106
 20
175.0716077422825
 10
149.8988612071501
 20
175.8608091864255
 42
0.4142135623705456
 10
149.6988612071501
 20
176.0608091864267
 10
148.9067316785501
 20
176.0608091864256
 10
148.8989192171501
 20
176.0608397034254
 10
136.8989190691498
 20
176.0608397044252
 10
136.8911066897497
 20
176.0608091864256
 10
136.0988612121487
 20
176.0608091864261
 42
0.4142135623707018
 10
135.8988612121491
 20
175.860809186426
 10
135.8988612121501
 20
162.2608091864255
 42
0.4142135623755405
 10
136.0988612121508
 20
162.0608091864267
  0
LWPOLYLINE
  5
151
330
1F
100
AcDbEntity
  8
0
100
AcDbPolyline
 90
       12
 70
     1
 43
0.0
 10
-2.014190683949975
 20
157.0108030994255
 42
0.4142135623730431
 10
-2.214190683949935
 20
156.8108030994255
 10
-2.214190683950363
 20
143.2108030994251
 42
0.4142135623722626
 10
-2.014190683949977
 20
143.0108030994253
 10
11.58580931605012
 20
143.0108030994254
 42
0.4142135623721065
 10
11.7858093160504
 20
143.2108030994251
 10
11.78580931605009
 20
143.9776765843254
 42
0.0082831476658238
 10
11.78635815411954
 20
144.0108030934454
 10
11.7863581491499
 20
156.0108030844254
 42
0.0082833293609971
 10
11.78580931605236
 20
156.0439295825025
 10
11.78580931605009
 20
156.8108030994255
 42
0.4142135623736674
 10
11.58580931604962
 20
157.0108030994255
  0
LWPOLYLINE
  5
152
330
1F
100
AcDbEntity
  8
0
100
AcDbPolyline
 90
        8
 70
     1
 43
0.0
 10
130.6488642631497
 20
104.9102746184251
 10
117.0488642631497
 20
104.9102746184251
 42
-0.4142135623731991
 10
116.8488642631497
 20
105.1102746184251
 10
116.8488642631498
 20
118.7102746184252
 42
-0.4142135623731472
 10
117.0488642631497
 20
118.9102746184252
 10
130.6488642631495
 20
118.9102746184252
 42
-0.414213562372991
 10
130.8488642631495
 20
118.7102746184252
 10
130.8488642631497
 20
105.1102746184251
 42
-0.4142135623731991
  0
LWPOLYLINE
  5
153
330
1F
100
AcDbEntity
  8
0
100
AcDbPolyline
 90
        8
 70
     1
 43
0.0
 10
-102.2261357368503
 20
105.1102746184251
 10
-102.2261357368503
 20
118.7102746184252
 42
-0.4142135623727829
 10
-102.0261357368503
 20
118.9102746184252
 10
-83.96306879402866
 20
118.9102746184252
 42
-0.412167046150241
 10
-83.46656491335076
 20
118.4102868414248
 10
-83.46656491335076
 20
105.4102868414249
 42
-0.4142135623730847
 10
-83.96656491335063
 20
104.9102868414248
 10
-102.0261357368503
 20
104.9102746184251
 42
-0.4142135623730951
  0
LWPOLYLINE
  5
154
330
1F
100
AcDbEntity
  8
0
100
AcDbPolyline
 90
        8
 70
     1
 43
0.0
 10
54.09088203564726
 20
105.4108514094255
 42
0.4142135623730534
 10
54.59088203564723
 20
104.9108514094254
 10
55.59088203564725
 20
104.9108514094254
 42
0.4142135623730534
 10
56.09088203564729
 20
105.4108514094255
 10
56.09088203564729
 20
118.4108514094255
 42
0.414213562372991
 10
55.59088203564725
 20
118.9108514094255
 10
54.59088203564728
 20
118.9108514094254
 42
0.4142135623731159
 10
54.09088203564726
 20
118.4108514094255
  0
LWPOLYLINE
  5
155
330
1F
100
AcDbEntity
  8
0
100
AcDbPolyline
 90
       12
 70
     1
 43
0.0
 10
-6.976141833849991
 20
162.2608214094262
 10
-6.976141833850203
 20
175.8608214094255
 42
-0.4142135623735634
 10
-6.776141833849639
 20
176.0608214094254
 10
6.823858166149928
 20
176.0608214094256
 42
-0.4142135623744999
 10
7.023858166149853
 20
175.8608214094252
 10
7.023858166149818
 20
175.0668700020256
 10
7.023876459150034
 20
175.0608214154254
 10
7.023876471149926
 20
163.0608214104254
 10
7.023858166149816
 20
163.0547727848255
 10
7.023858166149851
 20
162.2608214094262
 42
-0.414213562374864
 10
6.823858166149927
 20
162.0608214094255
 10
-6.77614183384964
 20
162.0608214094256
 42
-0.4142135623746559
  0
LWPOLYLINE
  5
156
330
1F
100
AcDbEntity
  8
0
100
AcDbPolyline
 90
       10
 70
     1
 43
0.0
 10
-63.68612054085195
 20
104.8977807215219
 10
-74.81363573685031
 20
104.9102746184257
 42
-0.4142135623731159
 10
-75.31363573685041
 20
105.4102746184257
 10
-75.31363573685029
 20
120.4102746184257
 42
-0.4142135623731262
 10
-74.81363573685024
 20
120.9102746184257
 10
-69.63859094896204
 20
120.910274618495
 42
-0.0012352097185452
 10
-69.63612054085217
 20
120.9102807214484
 10
-63.68612054085217
 20
120.9102807214484
 42
-0.4142135623731368
 10
-63.18612054085217
 20
120.4102807214485
 10
-63.18612054085195
 20
105.3977807215218
 42
-0.4142135623730744
  0
LWPOLYLINE
  5
157
330
1F
100
AcDbEntity
  8
0
100
AcDbPolyline
 90
        8
 70
     1
 43
0.0
 10
-147.4698826488499
 20
143.210803099426
 42
0.4142135623742917
 10
-147.2698826488496
 20
143.0108030994257
 10
-128.9048388748498
 20
143.0108030994254
 42
0.4142135623741356
 10
-128.7048388748497
 20
143.210803099426
 10
-128.7048388748497
 20
156.8108030819254
 42
0.4142135623737194
 10
-128.9048388748502
 20
157.0108030819252
 10
-147.26988264885
 20
157.0108030819256
 42
0.4142135623731991
 10
-147.46988264885
 20
156.8108030819254
  0
LWPOLYLINE
  5
158
330
1F
100
AcDbEntity
  8
0
100
AcDbPolyline
 90
       12
 70
     1
 43
0.0
 10
-45.56419068395
 20
143.0108030994254
 42
0.4142135623723407
 10
-45.36419068394967
 20
143.2108030994251
 10
-45.36419068394994
 20
143.9774929618251
 42
0.0083285692133203
 10
-45.36363572883414
 20
144.0108030933887
 10
-45.36363574785017
 20
156.0108030844254
 42
0.0083292635196573
 10
-45.36419068396127
 20
156.0441132050786
 10
-45.3641906839499
 20
156.8108030994256
 42
0.4142135623738234
 10
-45.56419068395036
 20
157.0108030994255
 10
-59.16419068394984
 20
157.0108030994255
 42
0.4142135623737455
 10
-59.36419068394958
 20
156.8108030994255
 10
-59.36419068395016
 20
143.2108030994251
 42
0.4142135623722626
 10
-59.16419068394991
 20
143.0108030994253
  0
LWPOLYLINE
  5
159
330
1F
100
AcDbEntity
  8
0
100
AcDbPolyline
 90
        8
 70
     1
 43
0.0
 10
30.00778203576369
 20
107.3766380573782
 42
0.4142135623446669
 10
31.00778203566671
 20
108.3766380573782
 10
31.00778203566675
 20
116.3766380573782
 42
0.4142135623446772
 10
30.00778203576372
 20
117.3766380573782
 10
2.283082035762507
 20
117.3766380573782
 42
0.4142135624014401
 10
1.283082035665611
 20
116.3766380573782
 10
1.283082035665645
 20
108.3766380573782
 42
0.4142135624014608
 10
2.283082035762507
 20
107.3766380573782
  0
LWPOLYLINE
  5
160
330
1F
100
AcDbEntity
  8
0
100
AcDbPolyline
 90
       16
 70
     1
 43
0.0
 10
-87.73863573685018
 20
137.9602746184254
 42
0.4142135623739275
 10
-87.93863573684989
 20
137.7602746184252
 10
-87.93863573685017
 20
136.9657585534254
 10
-87.93864798785005
 20
136.9608152984254
 10
-87.9386479548499
 20
124.9608153434253
 10
-87.93863573685017
 20
124.9558720274254
 10
-87.93863573685017
 20
124.160274618425
 42
0.4142135623727829
 10
-87.73863573685018
 20
123.9602746184252
 10
-74.13863573685005
 20
123.9602746184253
 42
0.4142135623740316
 10
-73.93863573685042
 20
124.1602746184258
 10
-73.93863573685019
 20
137.7602746184253
 42
0.4142135623737714
 10
-74.13863573685041
 20
137.9602746184252
 10
-74.90576860434974
 20
137.9602746184254
 42
0.0082215807009939
 10
-74.93864796185964
 20
137.9608152884526
 10
-86.93864788484997
 20
137.9608152904255
 42
0.0082215221004156
 10
-86.97152730539016
 20
137.9602746184001
  0
LWPOLYLINE
  5
161
330
1F
100
AcDbEntity
  8
0
100
AcDbPolyline
 90
       12
 70
     1
 43
0.0
 10
-93.95575639732955
 20
137.9602746183999
 10
-93.18863573685023
 20
137.9602746184255
 42
-0.4142135623743958
 10
-92.98863573685016
 20
137.7602746184253
 10
-92.98863573685101
 20
124.1602746184262
 42
-0.4142135623757224
 10
-93.18863573685026
 20
123.9602746184254
 10
-106.78863573685
 20
123.9602746184253
 42
-0.4142135623726789
 10
-106.9886357368502
 20
124.1602746184253
 10
-106.9886357368499
 20
137.7602746184253
 42
-0.4142135623737714
 10
-106.78863573685
 20
137.9602746184254
 10
-106.0215150983989
 20
137.9602746183786
 42
-0.0082215390967837
 10
-105.9886356098498
 20
137.9608152904254
 10
-93.98863573187039
 20
137.9608152884088
 42
-0.0082215749551973
  0
LWPOLYLINE
  5
162
330
1F
100
AcDbEntity
  8
0
100
AcDbPolyline
 90
       16
 70
     1
 43
0.0
 10
64.46136426314997
 20
124.1602746184253
 10
64.46136426315037
 20
137.7602746184248
 42
-0.4142135623738234
 10
64.66136426314998
 20
137.9602746184254
 10
65.42849710865984
 20
137.9602746183687
 42
-0.0082214720950422
 10
65.46137632915014
 20
137.9608152904256
 10
77.46137648714605
 20
137.9608152884723
 42
-0.0082215719390102
 10
77.49425580964983
 20
137.9602746184254
 10
78.26136426314907
 20
137.9602746184249
 42
-0.4142135623749161
 10
78.46136426314946
 20
137.7602746184248
 10
78.46136426314983
 20
136.9657541013253
 10
78.46137645915006
 20
136.9608153134252
 10
78.46137644214983
 20
124.9608153084254
 10
78.46136426314983
 20
124.9558764795254
 10
78.46136426314915
 20
124.1602746184259
 42
-0.4142135623750721
 10
78.26136426314993
 20
123.9602746184252
 10
64.66136426314993
 20
123.9602746184253
 42
-0.4142135623736153
  0
LWPOLYLINE
  5
163
330
1F
100
AcDbEntity
  8
0
100
AcDbPolyline
 90
       47
 70
     1
 43
0.0
 10
126.0863764901501
 20
167.9737704034254
 10
126.0863764901501
 20
166.5358122324253
 10
127.4363703361122
 20
166.5358122323869
 42
-0.4142135702448919
 10
128.4363703561501
 20
165.5358122494254
 10
128.4363703921779
 20
153.5358122523982
 42
-0.4142135526328178
 10
127.4363702961501
 20
152.5358122384255
 10
127.3805963921499
 20
152.5358122264255
 10
127.3805963921499
 20
151.0978239574252
 10
127.4363825241079
 20
151.0978239574035
 42
-0.4127671038218426
 10
128.4363703561501
 20
150.1027650194253
 10
128.4363703921779
 20
145.0978239443963
 42
-0.4142135447239673
 10
127.43637029615
 20
144.0978239574252
 10
127.3805963921499
 20
144.0978239544254
 10
127.3805963921422
 20
144.0108030934339
 42
-0.4142135923115685
 10
126.38059645115
 20
143.0108030834254
 10
121.3014359081031
 20
143.0108030673875
 42
-0.4015092612743714
 10
120.3449912971499
 20
144.0098541354255
 10
120.3449913221499
 20
144.0978239544254
 10
118.94260811015
 20
144.0978239544254
 10
118.9426081101514
 20
144.0108030934234
 42
-0.4142135943560099
 10
117.9426081661499
 20
143.0108030834255
 10
93.23580931605043
 20
143.0108030994253
 42
-0.414213562372887
 10
93.03580931605022
 20
143.2108030994256
 10
93.03580931604981
 20
156.8108030994259
 42
-0.4142135623734072
 10
93.23580931604993
 20
157.0108030994256
 10
96.50461984515009
 20
157.0108030884254
 10
96.50461984517662
 20
158.0108030993974
 42
-0.4142135686574356
 10
97.50461997015008
 20
159.0108030834255
 10
100.0046198911499
 20
159.0108030904255
 10
102.4690298061312
 20
159.0098662943926
 42
-0.4142179892715189
 10
103.4690448661307
 20
158.0098662933924
 10
103.4690448671502
 20
157.0108030774252
 10
114.4363703091499
 20
157.0108030744255
 10
114.4363703091499
 20
162.0608213844255
 10
112.2841379056499
 20
162.0608213934255
 42
-0.414213562374708
 10
112.0841379056501
 20
162.2608213934258
 10
112.0841379056499
 20
175.8608213934255
 42
-0.4142135623730431
 10
112.2841379056499
 20
176.0608213934254
 10
125.8841379056499
 20
176.0608213934255
 42
-0.4142135623741876
 10
126.0841379056495
 20
175.860821393425
 10
126.0841379056499
 20
175.1276951247254
 42
-0.0167324748320153
 10
126.0863764591889
 20
175.060821415434
 10
126.08637649015
 20
174.9738005044255
 10
127.4363703361499
 20
174.9738005044255
 42
-0.4142135862995734
 10
128.4363703561501
 20
173.9738005024254
 10
128.4363703561329
 20
168.9688282034651
 42
-0.4127667985262295
 10
127.4363824461499
 20
167.9737703874252
  0
LWPOLYLINE
  5
164
330
1F
100
AcDbEntity
  8
0
100
AcDbPolyline
 90
        8
 70
     1
 43
0.0
 10
59.69886121215052
 20
181.3108091864267
 42
0.4142135623756446
 10
59.89886121215031
 20
181.1108091864264
 10
73.49886120715002
 20
181.1108091864256
 42
0.4142135623737714
 10
73.69886120714983
 20
181.3108091864261
 10
73.69886120714983
 20
194.9108091864255
 42
0.4142135623745519
 10
73.49886120714962
 20
195.1108091864253
 10
59.89886121214988
 20
195.1108091864256
 42
0.4142135623734072
 10
59.69886121214999
 20
194.9108091864255
  0
LWPOLYLINE
  5
165
330
1F
100
AcDbEntity
  8
0
100
AcDbPolyline
 90
       12
 70
     1
 43
0.0
 10
-78.2141906839498
 20
157.0108030994255
 10
-64.61419068395031
 20
157.0108030994255
 42
-0.4142135623726268
 10
-64.41419068394984
 20
156.8108030994255
 10
-64.41419068394942
 20
156.04447747289
 42
-0.0084203879962729
 10
-64.41362354084994
 20
156.0108030844254
 10
-64.41362349884946
 20
144.010803093472
 42
-0.0084188664945151
 10
-64.41419068394984
 20
143.9771286939254
 10
-64.41419068394967
 20
143.2108030994251
 42
-0.4142135623725228
 10
-64.61419068394995
 20
143.0108030994254
 10
-78.21419068394985
 20
143.0108030994253
 42
-0.4142135623724187
 10
-78.41419068395023
 20
143.2108030994251
 10
-78.41419068394994
 20
156.8108030994255
 42
-0.4142135623740836
  0
LWPOLYLINE
  5
166
330
1F
100
AcDbEntity
  8
0
100
AcDbPolyline
 90
       16
 70
     1
 43
0.0
 10
-16.78862354085002
 20
136.9608153134253
 10
-16.78862355285004
 20
124.9608153084255
 10
-16.78863573685019
 20
124.9558764795254
 10
-16.78863573685105
 20
124.1602746184261
 42
-0.4142135623758005
 10
-16.98863573685015
 20
123.9602746184253
 10
-30.58863573684998
 20
123.9602746184253
 42
-0.4142135623734072
 10
-30.78863573685008
 20
124.1602746184252
 10
-30.78863573684989
 20
137.7602746184249
 42
-0.4142135623740316
 10
-30.58863573685013
 20
137.9602746184255
 10
-29.82150289136837
 20
137.9602746184542
 42
-0.0082214760960443
 10
-29.78862365484989
 20
137.9608152904255
 10
-17.78862350784667
 20
137.960815288435
 42
-0.008221570688503
 10
-17.75574419035013
 20
137.9602746184254
 10
-16.9886357368507
 20
137.9602746184249
 42
-0.4142135623741876
 10
-16.78863573685063
 20
137.7602746184248
 10
-16.78863573685025
 20
136.9657541013253
  0
LWPOLYLINE
  5
167
330
1F
100
AcDbEntity
  8
0
100
AcDbPolyline
 90
       12
 70
     1
 43
0.0
 10
-40.11419068394991
 20
157.0108030994255
 10
-26.51419068395043
 20
157.0108030994253
 42
-0.4142135623726789
 10
-26.31419068394991
 20
156.8108030994255
 10
-26.31419068394564
 20
156.0437449048991
 42
-0.0082371316160292
 10
-26.31364795484995
 20
156.0108030844254
 10
-26.3136479548071
 20
144.0108031134154
 42
-0.0082371393570906
 10
-26.31419068394995
 20
143.9778612619255
 10
-26.31419068394976
 20
143.2108030994251
 42
-0.4142135623724708
 10
-26.51419068395008
 20
143.0108030994254
 10
-40.11419068394998
 20
143.0108030994252
 42
-0.4142135623726268
 10
-40.31419068395035
 20
143.2108030994251
 10
-40.31419068394987
 20
156.8108030994255
 42
-0.4142135623738234
  0
LWPOLYLINE
  5
168
330
1F
100
AcDbEntity
  8
0
100
AcDbPolyline
 90
       10
 70
     1
 43
0.0
 10
-126.9915679643503
 20
118.9108214094252
 10
-125.9915679643503
 20
118.9108214094252
 42
-0.4142135623732199
 10
-125.4915679643503
 20
118.4108214094252
 42
-0.0002672855322205
 10
-125.4915649133505
 20
118.4102868414249
 10
-125.4915649133505
 20
105.4102868414249
 42
-0.4142135623730847
 10
-125.9915649133505
 20
104.9102868414249
 10
-126.9915649133505
 20
104.9102868414249
 42
-0.4142135623732199
 10
-127.4915649133505
 20
105.4102868414249
 10
-127.4915649133505
 20
118.4102868414248
 42
-0.0002672822653951
 10
-127.4915646275913
 20
118.4108214058578
 42
-0.414213564462787
  0
LWPOLYLINE
  5
169
330
1F
100
AcDbEntity
  8
0
100
AcDbPolyline
 90
        8
 70
     1
 43
0.0
 10
-50.32614183385004
 20
162.0608214094255
 42
0.4142135623748901
 10
-50.12614183385018
 20
162.2608214094262
 10
-50.12614183385007
 20
175.8608214094255
 42
0.4142135623743437
 10
-50.32614183385056
 20
176.0608214094252
 10
-63.92614183385003
 20
176.0608214094255
 42
0.4142135623731472
 10
-64.12614183385001
 20
175.8608214094254
 10
-64.12614183385009
 20
162.2608214094255
 42
0.4142135623739795
 10
-63.92614183384957
 20
162.0608214094253
  0
LWPOLYLINE
  5
170
330
1F
100
AcDbEntity
  8
0
100
AcDbPolyline
 90
       12
 70
     1
 43
0.0
 10
55.13580931605015
 20
157.0108030994255
 42
0.4142135623741876
 10
54.93580931605012
 20
156.8108030994255
 10
54.93580931604991
 20
143.2108030994251
 42
0.4142135623726268
 10
55.13580931605067
 20
143.0108030994253
 10
68.73580931604995
 20
143.0108030994254
 42
0.4142135623723666
 10
68.93580931605057
 20
143.2108030994251
 10
68.93580931604991
 20
143.9778612619255
 42
0.0082371393639218
 10
68.9363520451639
 20
144.0108031134399
 10
68.93635204515011
 20
156.0108030844254
 42
0.0082371316042755
 10
68.93580931605318
 20
156.0437449049158
 10
68.93580931604991
 20
156.8108030994255
 42
0.4142135623727309
 10
68.73580931604995
 20
157.0108030994261
  0
LWPOLYLINE
  5
171
330
1F
100
AcDbEntity
  8
0
100
AcDbPolyline
 90
        8
 70
     1
 43
0.0
 10
-123.6103179643504
 20
143.0108214094252
 42
0.4142135623731368
 10
-123.1103179643505
 20
143.510821409425
 10
-123.1103179643504
 20
156.5108214094252
 42
0.4142135623730847
 10
-123.6103179643504
 20
157.0108214094251
 10
-124.6103179643504
 20
157.0108214094251
 42
0.4142135623730534
 10
-125.1103179643504
 20
156.5108214094252
 10
-125.1103179643505
 20
143.510821409425
 42
0.4142135623730431
 10
-124.6103179643504
 20
143.0108214094252
  0
LWPOLYLINE
  5
172
330
1F
100
AcDbEntity
  8
0
100
AcDbPolyline
 90
        8
 70
     1
 43
0.0
 10
-127.4915679643503
 20
162.5608214094252
 10
-127.4915679643503
 20
175.5608214094255
 42
-0.4142135623730639
 10
-126.9915679643503
 20
176.0608214094254
 10
-125.9915679643503
 20
176.0608214094254
 42
-0.4142135623730951
 10
-125.4915679643503
 20
175.5608214094255
 10
-125.4915679643503
 20
162.5608214094252
 42
-0.4142135623731262
 10
-125.9915679643503
 20
162.0608214094252
 10
-126.9915679643503
 20
162.0608214094252
 42
-0.4142135623730118
  0
LWPOLYLINE
  5
173
330
1F
100
AcDbEntity
  8
0
100
AcDbPolyline
 90
       10
 70
     1
 43
0.0
 10
-149.1915649133506
 20
104.9102868414249
 10
-150.1915649133507
 20
104.9102868414249
 42
-0.4142135623731472
 10
-150.6915649133506
 20
105.4102868414249
 10
-150.6915649133506
 20
118.410286841425
 42
-0.0002672822737804
 10
-150.6915679643504
 20
118.4108214058577
 42
-0.414213564462884
 10
-150.1915679643504
 20
118.9108214094252
 10
-149.1915679643504
 20
118.9108214094252
 42
-0.4142135623730326
 10
-148.6915651991168
 20
118.4108214123816
 42
-0.0002672855330513
 10
-148.6915649133506
 20
118.4102868414251
 10
-148.6915649133506
 20
105.410286841425
 42
-0.4142135623731159
  0
LWPOLYLINE
  5
174
330
1F
100
AcDbEntity
  8
0
100
AcDbPolyline
 90
        6
 70
     1
 43
0.0
 10
138.3729067647861
 20
191.62046947152
 10
139.7746745587387
 20
191.62046947152
 10
139.7746745587384
 20
186.5466627453766
 42
-0.2373319174221718
 10
136.1428278905278
 20
182.8527644522208
 10
135.0171666557318
 20
183.7443953929262
 42
0.2381531225550014
 10
138.3729067647861
 20
186.334373399547
  0
LWPOLYLINE
  5
175
330
1F
100
AcDbEntity
  8
0
100
AcDbPolyline
 90
        8
 70
     1
 43
0.0
 10
117.0488612121495
 20
137.9608091864258
 42
0.4142135623728349
 10
116.8488612121499
 20
137.7608091864254
 10
116.8488612121513
 20
124.1608091864266
 42
0.414213562376789
 10
117.0488612121511
 20
123.9608091864267
 10
130.6488612071499
 20
123.9608091864255
 42
0.4142135623740836
 10
130.8488612071495
 20
124.1608091864258
 10
130.8488612071495
 20
137.7608091864254
 42
0.4142135623739795
 10
130.6488612071495
 20
137.9608091864258
  0
LWPOLYLINE
  5
176
330
1F
100
AcDbEntity
  8
0
100
AcDbPolyline
 90
       12
 70
     1
 43
0.0
 10
-31.07612964385005
 20
175.0608214154254
 10
-31.07612964084992
 20
163.0608214104254
 10
-31.07614183385017
 20
163.0558837976255
 10
-31.07614183385049
 20
162.2608214094262
 42
-0.4142135623750202
 10
-31.2761418338502
 20
162.0608214094255
 10
-44.87614183384962
 20
162.0608214094255
 42
-0.4142135623747599
 10
-45.07614183384986
 20
162.260821409426
 10
-45.07614183385
 20
175.8608214094255
 42
-0.4142135623734072
 10
-44.87614183384962
 20
176.0608214094254
 10
-31.2761418338502
 20
176.0608214094256
 42
-0.4142135623742917
 10
-31.07614183385046
 20
175.860821409425
 10
-31.07614183385017
 20
175.0657589892256
  0
LWPOLYLINE
  5
177
330
1F
100
AcDbEntity
  8
0
100
AcDbPolyline
 90
        8
 70
     1
 43
0.0
 10
45.12385816614997
 20
175.8608214094254
 42
0.4142135623742397
 10
44.92385816614944
 20
176.060821409425
 10
31.32385816614987
 20
176.0608214094256
 42
0.4142135623732511
 10
31.12385816614992
 20
175.8608214094254
 10
31.12385816615013
 20
162.2608214094262
 42
0.4142135623749161
 10
31.32385816615054
 20
162.0608214094255
 10
44.92385816614993
 20
162.0608214094255
 42
0.4142135623760085
 10
45.12385816614942
 20
162.2608214094262
  0
LWPOLYLINE
  5
178
330
1F
100
AcDbEntity
  8
0
100
AcDbPolyline
 90
       12
 70
     1
 43
0.0
 10
54.64886120714988
 20
194.1163322081252
 10
54.64887645915001
 20
194.1108091854253
 10
54.64887641814999
 20
182.1108091964255
 10
54.64886120714988
 20
182.1052861647254
 10
54.64886120714973
 20
181.3108091864261
 42
-0.4142135623736674
 10
54.44886120714983
 20
181.1108091864255
 10
40.8488612121503
 20
181.1108091864261
 42
-0.4142135623756446
 10
40.64886121215042
 20
181.3108091864267
 10
40.64886121214999
 20
194.9108091864255
 42
-0.4142135623737714
 10
40.84886121214991
 20
195.1108091864253
 10
54.44886120714983
 20
195.1108091864256
 42
-0.4142135623736674
 10
54.64886120714971
 20
194.9108091864251
  0
LWPOLYLINE
  5
179
330
1F
100
AcDbEntity
  8
0
100
AcDbPolyline
 90
        8
 70
     1
 43
0.0
 10
-59.54151796429708
 20
108.7244269587911
 10
-59.54151796429708
 20
116.7244269587912
 42
-0.4142135624016586
 10
-58.54151796420056
 20
117.7244269587922
 10
-30.81681796420034
 20
117.7244269587922
 42
-0.4142135623452912
 10
-29.81681796429636
 20
116.7244269587912
 10
-29.81681796429636
 20
108.7244269587911
 42
-0.4142135623447241
 10
-30.81681796420036
 20
107.724426958792
 10
-58.54151796420056
 20
107.7244269587911
 42
-0.4142135624013152
  0
LWPOLYLINE
  5
180
330
1F
100
AcDbEntity
  8
0
100
AcDbPolyline
 90
        8
 70
     1
 43
0.0
 10
83.02385816614972
 20
162.0608214094255
 10
69.42385816615048
 20
162.0608214094256
 42
-0.414213562374864
 10
69.22385816615004
 20
162.2608214094262
 10
69.22385816614966
 20
175.8608214094255
 42
-0.4142135623730431
 10
69.42385816614978
 20
176.0608214094256
 10
83.02385816614934
 20
176.060821409425
 42
-0.4142135623743437
 10
83.22385816614971
 20
175.8608214094254
 10
83.22385816614945
 20
162.2608214094261
 42
-0.4142135623761127
  0
CIRCLE
  5
181
330
1F
100
AcDbEntity
  8
0
100
AcDbCircle
 10
0.023890183145425
 20
202.6043092035425
 30
-0.0000000000000044
 40
1.299999999999998
  0
CIRCLE
  5
182
330
1F
100
AcDbEntity
  8
0
100
AcDbCircle
 10
98.95653099868152
 20
97.42216573478227
 30
-0.0000000000000044
 40
1.300000000000007
  0
CIRCLE
  5
183
330
1F
100
AcDbEntity
  8
0
100
AcDbCircle
 10
98.95653098671845
 20
202.6043092035425
 30
-0.0000000000000044
 40
1.300000000000007
  0
CIRCLE
  5
184
330
1F
100
AcDbEntity
  8
0
100
AcDbCircle
 10
-98.90875063239057
 20
97.41731528944837
 30
-0.0000000000000044
 40
1.300000000000007
  0
CIRCLE
  5
185
330
1F
100
AcDbEntity
  8
0
100
AcDbCircle
 10
-98.90875062042654
 20
202.6043092035425
 30
-0.0000000000000044
 40
1.300000000000007
  0
ENDSEC
  0
SECTION
  2
OBJECTS
  0
DICTIONARY
  5
C
330
0
100
AcDbDictionary
281
     1
  3
ACAD_BACKGROUND
350
1005B
  3
ACAD_CIP_PREVIOUS_PRODUCT_INFO
350
1005A
  3
ACAD_COLOR
350
10036
  3
ACAD_DETAILVIEWSTYLE
350
10051
  3
ACAD_GROUP
350
D
  3
ACAD_LAST_SAVED_VERSION_INFO
350
1005E
  3
ACAD_LAYOUT
350
10037
  3
ACAD_MATERIAL
350
10004
  3
ACAD_MLEADERSTYLE
350
1004D
  3
ACAD_MLINESTYLE
350
17
  3
ACAD_PLOTSETTINGS
350
10054
  3
ACAD_PLOTSTYLENAME
350
10002
  3
ACAD_SCALELIST
350
1003B
  3
ACAD_SECTIONVIEWSTYLE
350
1004F
  3
ACAD_TABLESTYLE
350
10038
  3
ACAD_VISUALSTYLE
350
1001D
  3
ACDB_RECOMPOSE_DATA
350
10076
  3
AcDbVariableDictionary
350
1006A
  3
AcDsDecomposeData
350
1007C
  0
DICTIONARY
  5
10064
330
2
100
AcDbDictionary
280
     1
281
     1
  3
ACAD_LAYERSTATES
360
10065
  0
DICTIONARY
  5
1005F
330
50
100
AcDbDictionary
280
     1
281
     1
  3
ADSK_XREC_LAYER_RECONCILED
360
10060
  0
DICTIONARY
  5
1005B
102
{ACAD_REACTORS
330
C
102
}
330
C
100
AcDbDictionary
281
     1
  0
XRECORD
  5
1005A
102
{ACAD_REACTORS
330
C
102
}
330
C
100
AcDbXrecord
280
     1
300
ACDMAC
300
2025
300

  0
DICTIONARY
  5
10036
102
{ACAD_REACTORS
330
C
102
}
330
C
100
AcDbDictionary
281
     1
  0
DICTIONARY
  5
10051
102
{ACAD_REACTORS
330
C
102
}
330
C
100
AcDbDictionary
281
     1
  3
Imperial24
350
10052
  0
DICTIONARY
  5
D
330
C
100
AcDbDictionary
281
     1
  0
XRECORD
  5
1005E
102
{ACAD_REACTORS
330
C
102
}
330
C
100
AcDbXrecord
280
     1
300
{9EF7E4A6-4B7F-4840-925C-A9098F0D2CAE}
301
{0F4FA204-1A8D-354D-97ED-1A3949CF1BCE}
302
{9EF7E4A6-4B7F-4840-925C-A9098F0D2CAE}
303
/Users/junkibeom/Downloads/Rio_Plate_Nonleafspring.dxf
  0
DICTIONARY
  5
10037
102
{ACAD_REACTORS
330
C
102
}
330
C
100
AcDbDictionary
281
     1
  3
Model
350
10055
  3
1
350
10056
  0
DICTIONARY
  5
10004
102
{ACAD_REACTORS
330
C
102
}
330
C
100
AcDbDictionary
281
     1
  3
ByBlock
350
1000D
  3
ByLayer
350
10005
  3
Global
350
10015
  0
DICTIONARY
  5
1004D
102
{ACAD_REACTORS
330
C
102
}
330
C
100
AcDbDictionary
281
     1
  3
Standard
350
1004E
  0
DICTIONARY
  5
17
330
C
100
AcDbDictionary
281
     1
  3
Standard
350
1003A
  0
DICTIONARY
  5
10054
102
{ACAD_REACTORS
330
C
102
}
330
C
100
AcDbDictionary
281
     1
  0
ACDBDICTIONARYWDFLT
  5
10002
102
{ACAD_REACTORS
330
C
102
}
330
C
100
AcDbDictionary
281
     1
  3
Normal
350
10003
100
AcDbDictionaryWithDefault
340
10003
  0
DICTIONARY
  5
1003B
102
{ACAD_REACTORS
330
C
102
}
330
C
100
AcDbDictionary
281
     1
  3
A0
350
1003C
  3
A1
350
1003D
  3
A2
350
1003E
  3
A3
350
1003F
  3
A4
350
10040
  3
A5
350
10041
  3
A6
350
10042
  3
A7
350
10043
  3
A8
350
10044
  3
A9
350
10045
  3
B0
350
10046
  3
B1
350
10047
  3
B2
350
10048
  3
B3
350
10049
  3
B4
350
1004A
  3
B5
350
1004B
  3
B6
350
1004C
  0
DICTIONARY
  5
1004F
102
{ACAD_REACTORS
330
C
102
}
330
C
100
AcDbDictionary
281
     1
  3
Imperial24
350
10050
  0
DICTIONARY
  5
10038
102
{ACAD_REACTORS
330
C
102
}
330
C
100
AcDbDictionary
281
     1
  3
Standard
350
10039
  0
DICTIONARY
  5
1001D
102
{ACAD_REACTORS
330
C
102
}
330
C
100
AcDbDictionary
281
     1
  3
2dWireframe
350
10023
  3
Basic
350
10022
  3
Brighten
350
10029
  3
ColorChange
350
1002D
  3
Conceptual
350
10026
  3
Dim
350
10028
  3
EdgeColorOff
350
10035
  3
Facepattern
350
1002C
  3
Flat
350
1001E
  3
FlatWithEdges
350
1001F
  3
Gouraud
350
10020
  3
GouraudWithEdges
350
10021
  3
Hidden
350
10025
  3
JitterOff
350
10033
  3
Linepattern
350
1002B
  3
OverhangOff
350
10034
  3
Realistic
350
10027
  3
Shaded
350
10032
  3
Shaded with edges
350
10031
  3
Shades of Gray
350
1002E
  3
Sketchy
350
1002F
  3
Thicken
350
1002A
  3
Wireframe
350
10024
  3
X-Ray
350
10030
  0
XRECORD
  5
10076
102
{ACAD_REACTORS
330
C
102
}
330
C
100
AcDbXrecord
280
     1
 90
        1
330
10039
  0
DICTIONARY
  5
1006A
102
{ACAD_REACTORS
330
C
102
}
330
C
100
AcDbDictionary
281
     1
  3
CANNOSCALE
350
10070
  3
CMLEADERSTYLE
350
1006C
  3
CTABLESTYLE
350
1006B
  3
CVIEWDETAILSTYLE
350
1006D
  3
CVIEWSECTIONSTYLE
350
1006E
  3
LAYEREVAL
350
10072
  3
LAYERNOTIFY
350
10073
  3
LIGHTINGUNITS
350
10071
  3
MSLTSCALE
350
1006F
  0
DICTIONARY
  5
1007C
102
{ACAD_REACTORS
330
C
102
}
330
C
100
AcDbDictionary
281
     1
  3
AcDsRecords
350
1007E
  3
AcDsSchemas
350
1007D
1001
ACAD
1070
     2
  0
DICTIONARY
  5
10065
102
{ACAD_REACTORS
330
10064
102
}
330
10064
100
AcDbDictionary
281
     1
  0
XRECORD
  5
10060
102
{ACAD_REACTORS
330
1005F
102
}
330
1005F
100
AcDbXrecord
280
     1
290
     1
  0
ACDBDETAILVIEWSTYLE
  5
10052
102
{ACAD_XDICTIONARY
360
10081
102
}
102
{ACAD_REACTORS
330
10051
102
}
330
10051
100
AcDbModelDocViewStyle
 70
     0
  3
Imperial24
290
     0
100
AcDbDetailViewStyle
 70
     0
 71
     0
 90
        3
 71
     1
340
11
 62
   256
 40
0.24
340
0
 62
   256
 40
0.24
300

 40
0.36
280
     3
 71
     2
340
10001
 90
       25
 62
   256
 71
     3
340
11
 62
   256
 40
0.24
 90
        1
 40
0.75
 90
        1
300
%<\AcVar ViewType \f "%tc1">% %<\AcVar ViewDetailId>%\PSCALE %<\AcVar ViewScale \f "%sn">%
 71
     4
340
10001
 90
       25
 62
   256
340
10001
 90
       25
 62
   256
280
     0
  0
LAYOUT
  5
10055
102
{ACAD_REACTORS
330
10037
102
}
330
10037
100
AcDbPlotSettings
  1

  2

  4

  6

 40
0.0
 41
0.0
 42
0.0
 43
0.0
 44
0.0
 45
0.0
 46
0.0
 47
0.0
 48
0.0
 49
0.0
140
0.0
141
0.0
142
1.0
143
1.0
 70
  1712
 72
     0
 73
     0
 74
     0
  7

 75
     0
147
1.0
 76
     0
 77
     2
 78
   300
148
0.0
149
0.0
100
AcDbLayout
  1
Model
 70
     1
 71
     0
 10
0.0
 20
0.0
 11
12.0
 21
9.0
 12
0.0
 22
0.0
 32
0.0
 14
0.0
 24
0.0
 34
0.0
 15
0.0
 25
0.0
 35
0.0
146
0.0
 13
0.0
 23
0.0
 33
0.0
 16
1.0
 26
0.0
 36
0.0
 17
0.0
 27
1.0
 37
0.0
 76
     0
330
1F
331
10059
  0
LAYOUT
  5
10056
102
{ACAD_REACTORS
330
10037
102
}
330
10037
100
AcDbPlotSettings
  1

  2

  4

  6

 40
0.0
 41
0.0
 42
0.0
 43
0.0
 44
0.0
 45
0.0
 46
0.0
 47
0.0
 48
0.0
 49
0.0
140
0.0
141
0.0
142
1.0
143
1.0
 70
   688
 72
     0
 73
     0
 74
     5
  7

 75
    16
147
1.0
 76
     0
 77
     2
 78
   300
148
0.0
149
0.0
100
AcDbLayout
  1
1
 70
     1
 71
     1
 10
0.0
 20
0.0
 11
12.0
 21
9.0
 12
0.0
 22
0.0
 32
0.0
 14
1.000000000000000E+20
 24
1.000000000000000E+20
 34
1.000000000000000E+20
 15
-1.000000000000000E+20
 25
-1.000000000000000E+20
 35
-1.000000000000000E+20
146
0.0
 13
0.0
 23
0.0
 33
0.0
 16
1.0
 26
0.0
 36
0.0
 17
0.0
 27
1.0
 37
0.0
 76
     0
330
1B
  0
MATERIAL
  5
1000D
102
{ACAD_XDICTIONARY
360
1000E
102
}
102
{ACAD_REACTORS
330
10004
102
}
330
10004
100
AcDbMaterial
  1
ByBlock
 72
     0
 43
0.0008202099737533
 43
0.0
 43
0.0
 43
0.0
 43
0.0
 43
0.0008202099737533
 43
0.0
 43
0.0
 43
0.0
 43
0.0
 43
1.0
 43
0.0
 43
0.0
 43
0.0
 43
0.0
 43
1.0
 77
     0
 47
0.0008202099737533
 47
0.0
 47
0.0
 47
0.0
 47
0.0
 47
0.0008202099737533
 47
0.0
 47
0.0
 47
0.0
 47
0.0
 47
1.0
 47
0.0
 47
0.0
 47
0.0
 47
0.0
 47
1.0
171
     0
 49
0.0008202099737533
 49
0.0
 49
0.0
 49
0.0
 49
0.0
 49
0.0008202099737533
 49
0.0
 49
0.0
 49
0.0
 49
0.0
 49
1.0
 49
0.0
 49
0.0
 49
0.0
 49
0.0
 49
1.0
175
     0
142
0.0008202099737533
142
0.0
142
0.0
142
0.0
142
0.0
142
0.0008202099737533
142
0.0
142
0.0
142
0.0
142
0.0
142
1.0
142
0.0
142
0.0
142
0.0
142
0.0
142
1.0
179
     0
144
0.0008202099737533
144
0.0
144
0.0
144
0.0
144
0.0
144
0.0008202099737533
144
0.0
144
0.0
144
0.0
144
0.0
144
1.0
144
0.0
144
0.0
144
0.0
144
0.0
144
1.0
147
0.0008202099737533
147
0.0
147
0.0
147
0.0
147
0.0
147
0.0008202099737533
147
0.0
147
0.0
147
0.0
147
0.0
147
1.0
147
0.0
147
0.0
147
0.0
147
0.0
147
1.0
  0
MATERIAL
  5
10005
102
{ACAD_XDICTIONARY
360
10006
102
}
102
{ACAD_REACTORS
330
10004
102
}
330
10004
100
AcDbMaterial
  1
ByLayer
 72
     0
 43
0.0008202099737533
 43
0.0
 43
0.0
 43
0.0
 43
0.0
 43
0.0008202099737533
 43
0.0
 43
0.0
 43
0.0
 43
0.0
 43
1.0
 43
0.0
 43
0.0
 43
0.0
 43
0.0
 43
1.0
 77
     0
 47
0.0008202099737533
 47
0.0
 47
0.0
 47
0.0
 47
0.0
 47
0.0008202099737533
 47
0.0
 47
0.0
 47
0.0
 47
0.0
 47
1.0
 47
0.0
 47
0.0
 47
0.0
 47
0.0
 47
1.0
171
     0
 49
0.0008202099737533
 49
0.0
 49
0.0
 49
0.0
 49
0.0
 49
0.0008202099737533
 49
0.0
 49
0.0
 49
0.0
 49
0.0
 49
1.0
 49
0.0
 49
0.0
 49
0.0
 49
0.0
 49
1.0
175
     0
142
0.0008202099737533
142
0.0
142
0.0
142
0.0
142
0.0
142
0.0008202099737533
142
0.0
142
0.0
142
0.0
142
0.0
142
1.0
142
0.0
142
0.0
142
0.0
142
0.0
142
1.0
179
     0
144
0.0008202099737533
144
0.0
144
0.0
144
0.0
144
0.0
144
0.0008202099737533
144
0.0
144
0.0
144
0.0
144
0.0
144
1.0
144
0.0
144
0.0
144
0.0
144
0.0
144
1.0
147
0.0008202099737533
147
0.0
147
0.0
147
0.0
147
0.0
147
0.0008202099737533
147
0.0
147
0.0
147
0.0
147
0.0
147
1.0
147
0.0
147
0.0
147
0.0
147
0.0
147
1.0
  0
MATERIAL
  5
10015
102
{ACAD_XDICTIONARY
360
10016
102
}
102
{ACAD_REACTORS
330
10004
102
}
330
10004
100
AcDbMaterial
  1
Global
 72
     0
 43
0.0008202099737533
 43
0.0
 43
0.0
 43
0.0
 43
0.0
 43
0.0008202099737533
 43
0.0
 43
0.0
 43
0.0
 43
0.0
 43
1.0
 43
0.0
 43
0.0
 43
0.0
 43
0.0
 43
1.0
 77
     0
 47
0.0008202099737533
 47
0.0
 47
0.0
 47
0.0
 47
0.0
 47
0.0008202099737533
 47
0.0
 47
0.0
 47
0.0
 47
0.0
 47
1.0
 47
0.0
 47
0.0
 47
0.0
 47
0.0
 47
1.0
171
     0
 49
0.0008202099737533
 49
0.0
 49
0.0
 49
0.0
 49
0.0
 49
0.0008202099737533
 49
0.0
 49
0.0
 49
0.0
 49
0.0
 49
1.0
 49
0.0
 49
0.0
 49
0.0
 49
0.0
 49
1.0
175
     0
142
0.0008202099737533
142
0.0
142
0.0
142
0.0
142
0.0
142
0.0008202099737533
142
0.0
142
0.0
142
0.0
142
0.0
142
1.0
142
0.0
142
0.0
142
0.0
142
0.0
142
1.0
179
     0
144
0.0008202099737533
144
0.0
144
0.0
144
0.0
144
0.0
144
0.0008202099737533
144
0.0
144
0.0
144
0.0
144
0.0
144
1.0
144
0.0
144
0.0
144
0.0
144
0.0
144
1.0
147
0.0008202099737533
147
0.0
147
0.0
147
0.0
147
0.0
147
0.0008202099737533
147
0.0
147
0.0
147
0.0
147
0.0
147
1.0
147
0.0
147
0.0
147
0.0
147
0.0
147
1.0
  0
MLEADERSTYLE
  5
1004E
102
{ACAD_REACTORS
330
1004D
102
}
330
1004D
100
AcDbMLeaderStyle
179
     2
170
     2
171
     1
172
     0
 90
        2
 40
0.0
 41
0.0
173
     1
 91
-1056964608
340
14
 92
       -2
290
     1
 42
0.09
291
     1
 43
0.36
  3
Standard
 44
0.18
300

342
11
174
     1
178
     6
175
     1
176
     0
 93
-1056964608
 45
0.18
292
     0
297
     0
 46
0.18
 94
-1056964608
 47
1.0
 49
1.0
140
1.0
293
     1
141
0.0
294
     1
177
     0
142
1.0
295
     0
296
     0
143
0.125
271
     0
272
     9
273
     9
298
     0
  0
MLINESTYLE
  5
1003A
102
{ACAD_REACTORS
330
17
102
}
330
17
100
AcDbMlineStyle
  2
STANDARD
 70
     0
  3

 62
   256
 51
90.0
 52
90.0
 71
     2
 49
0.5
 62
   256
  6
BYLAYER
 49
-0.5
 62
   256
  6
BYLAYER
  0
ACDBPLACEHOLDER
  5
10003
102
{ACAD_REACTORS
330
10002
102
}
330
10002
  0
SCALE
  5
1003C
102
{ACAD_REACTORS
330
1003B
102
}
330
1003B
100
AcDbScale
 70
     0
300
1:1
140
1.0
141
1.0
290
     1
  0
SCALE
  5
1003D
102
{ACAD_REACTORS
330
1003B
102
}
330
1003B
100
AcDbScale
 70
     0
300
1/128" = 1'-0"
140
0.0078125
141
12.0
290
     0
  0
SCALE
  5
1003E
102
{ACAD_REACTORS
330
1003B
102
}
330
1003B
100
AcDbScale
 70
     0
300
1/64" = 1'-0"
140
0.015625
141
12.0
290
     0
  0
SCALE
  5
1003F
102
{ACAD_REACTORS
330
1003B
102
}
330
1003B
100
AcDbScale
 70
     0
300
1/32" = 1'-0"
140
0.03125
141
12.0
290
     0
  0
SCALE
  5
10040
102
{ACAD_REACTORS
330
1003B
102
}
330
1003B
100
AcDbScale
 70
     0
300
1/16" = 1'-0"
140
0.0625
141
12.0
290
     0
  0
SCALE
  5
10041
102
{ACAD_REACTORS
330
1003B
102
}
330
1003B
100
AcDbScale
 70
     0
300
3/32" = 1'-0"
140
0.09375
141
12.0
290
     0
  0
SCALE
  5
10042
102
{ACAD_REACTORS
330
1003B
102
}
330
1003B
100
AcDbScale
 70
     0
300
1/8" = 1'-0"
140
0.125
141
12.0
290
     0
  0
SCALE
  5
10043
102
{ACAD_REACTORS
330
1003B
102
}
330
1003B
100
AcDbScale
 70
     0
300
3/16" = 1'-0"
140
0.1875
141
12.0
290
     0
  0
SCALE
  5
10044
102
{ACAD_REACTORS
330
1003B
102
}
330
1003B
100
AcDbScale
 70
     0
300
1/4" = 1'-0"
140
0.25
141
12.0
290
     0
  0
SCALE
  5
10045
102
{ACAD_REACTORS
330
1003B
102
}
330
1003B
100
AcDbScale
 70
     0
300
3/8" = 1'-0"
140
0.375
141
12.0
290
     0
  0
SCALE
  5
10046
102
{ACAD_REACTORS
330
1003B
102
}
330
1003B
100
AcDbScale
 70
     0
300
1/2" = 1'-0"
140
0.5
141
12.0
290
     0
  0
SCALE
  5
10047
102
{ACAD_REACTORS
330
1003B
102
}
330
1003B
100
AcDbScale
 70
     0
300
3/4" = 1'-0"
140
0.75
141
12.0
290
     0
  0
SCALE
  5
10048
102
{ACAD_REACTORS
330
1003B
102
}
330
1003B
100
AcDbScale
 70
     0
300
1" = 1'-0"
140
1.0
141
12.0
290
     0
  0
SCALE
  5
10049
102
{ACAD_REACTORS
330
1003B
102
}
330
1003B
100
AcDbScale
 70
     0
300
1-1/2" = 1'-0"
140
1.5
141
12.0
290
     0
  0
SCALE
  5
1004A
102
{ACAD_REACTORS
330
1003B
102
}
330
1003B
100
AcDbScale
 70
     0
300
3" = 1'-0"
140
3.0
141
12.0
290
     0
  0
SCALE
  5
1004B
102
{ACAD_REACTORS
330
1003B
102
}
330
1003B
100
AcDbScale
 70
     0
300
6" = 1'-0"
140
6.0
141
12.0
290
     0
  0
SCALE
  5
1004C
102
{ACAD_REACTORS
330
1003B
102
}
330
1003B
100
AcDbScale
 70
     0
300
1'-0" = 1'-0"
140
12.0
141
12.0
290
     0
  0
ACDBSECTIONVIEWSTYLE
  5
10050
102
{ACAD_XDICTIONARY
360
1007F
102
}
102
{ACAD_REACTORS
330
1004F
102
}
330
1004F
100
AcDbModelDocViewStyle
 70
     0
  3
Imperial24
290
     0
100
AcDbSectionViewStyle
 70
     0
 71
     0
 90
       78
 71
     1
340
11
 62
   256
 40
0.24
340
0
340
0
 62
   256
 40
0.24
300
I, O, Q, S, X, Z
 40
0.48
 90
        3
 40
0.18
 90
        1
 71
     2
340
10001
 90
       25
 62
   256
340
10001
 90
       50
 62
   256
 40
0.24
 40
0.0
 40
0.24
 71
     3
340
11
 62
   256
 40
0.24
 90
        1
 40
0.75
 90
        1
300
%<\AcVar ViewType \f "%tc1">% %<\AcVar ViewSectionStartId>%-%<\AcVar ViewSectionEndId>%\PSCALE %<\AcVar ViewScale \f "%sn">%
 71
     4
 62
   256
 62
   257
300
ANSI31
 40
1.0
 90
        0
290
     0
290
     0
 90
        6
 40
0.0
 40
1.570796326794896
 40
0.2617993877991494
 40
1.308996938995747
 40
-0.2617993877991494
 40
1.832595714594046
  0
TABLESTYLE
  5
10039
102
{ACAD_XDICTIONARY
360
10074
102
}
102
{ACAD_REACTORS
330
10038
102
}
330
10038
100
AcDbTableStyle
280
     0
  3
Standard
 70
     0
 71
     0
 40
0.06
 41
0.06
280
     0
281
     0
  7
STANDARD
140
0.18
170
     2
 62
     0
 63
     7
283
     0
 90
      512
 91
        0
  1

274
    -2
284
     1
 64
     0
275
    -2
285
     1
 65
     0
276
    -2
286
     1
 66
     0
277
    -2
287
     1
 67
     0
278
    -2
288
     1
 68
     0
279
    -2
289
     1
 69
     0
  7
STANDARD
140
0.25
170
     5
 62
     0
 63
     7
283
     0
 90
      512
 91
        0
  1

274
    -2
284
     1
 64
     0
275
    -2
285
     1
 65
     0
276
    -2
286
     1
 66
     0
277
    -2
287
     1
 67
     0
278
    -2
288
     1
 68
     0
279
    -2
289
     1
 69
     0
  7
STANDARD
140
0.18
170
     5
 62
     0
 63
     7
283
     0
 90
      512
 91
        0
  1

274
    -2
284
     1
 64
     0
275
    -2
285
     1
 65
     0
276
    -2
286
     1
 66
     0
277
    -2
287
     1
 67
     0
278
    -2
288
     1
 68
     0
279
    -2
289
     1
 69
     0
  0
VISUALSTYLE
  5
10023
102
{ACAD_REACTORS
330
1001D
102
}
330
1001D
100
AcDbVisualStyle
  2
2dWireframe
 70
     4
177
     3
291
     0
 70
    58
 90
        0
176
     1
 90
        2
176
     1
 90
        0
176
     1
 90
        0
176
     1
 40
0.6
176
     1
 40
30.0
176
     1
 62
     7
420
 16777215
176
     1
 90
        1
176
     1
 90
        4
176
     1
 62
     7
176
     1
 62
   257
176
     1
 90
        1
176
     1
 90
        1
176
     1
 40
1.0
176
     1
 90
        0
176
     1
 62
   257
176
     1
 40
1.0
176
     1
 90
        1
176
     1
 90
        6
176
     1
 90
        2
176
     1
 62
     7
176
     1
 90
        5
176
     1
 90
        0
176
     1
 90
        0
176
     1
290
     0
176
     1
 90
        1
176
     1
 40
0.0
176
     1
 90
        0
176
     1
290
     1
176
     1
290
     1
176
     1
290
     0
176
     1
290
     0
176
     1
290
     0
176
     1
290
     0
176
     1
290
     0
176
     1
290
     0
176
     1
290
     0
176
     1
 90
       50
176
     1
 40
0.0
176
     1
 40
1.0
176
     1
 90
        0
176
     1
 62
    18
420
        0
176
     1
 90
       50
176
     1
 90
        3
176
     1
 62
     5
420
      255
176
     1
290
     0
176
     1
 90
       50
176
     1
 90
       50
176
     1
 90
       50
176
     1
290
     0
176
     1
 90
       50
176
     1
 62
   256
176
     0
 40
1.0
176
     0
 90
        2
176
     1
  1
strokes_ogs.tif
176
     1
290
     0
176
     1
 40
1.0
176
     1
 40
1.0
176
     1
1001
ACAD
1000
AcDbSavedByObjectVersion
1070
     0
  0
VISUALSTYLE
  5
10022
102
{ACAD_REACTORS
330
1001D
102
}
330
1001D
100
AcDbVisualStyle
  2
Basic
 70
     7
177
     3
291
     1
 70
    58
 90
        1
176
     1
 90
        0
176
     1
 90
        1
176
     1
 90
        0
176
     1
 40
0.6
176
     1
 40
30.0
176
     1
 62
     7
420
 16777215
176
     1
 90
        0
176
     1
 90
        4
176
     1
 62
     7
176
     1
 62
   257
176
     1
 90
        1
176
     1
 90
        1
176
     1
 40
1.0
176
     1
 90
        8
176
     1
 62
     7
176
     1
 40
1.0
176
     1
 90
        1
176
     1
 90
        6
176
     1
 90
        2
176
     1
 62
     7
176
     1
 90
        5
176
     1
 90
        0
176
     1
 90
        0
176
     1
290
     0
176
     1
 90
        1
176
     1
 40
0.0
176
     1
 90
        0
176
     1
290
     0
176
     1
290
     1
176
     1
290
     1
176
     1
290
     0
176
     1
290
     0
176
     1
290
     0
176
     1
290
     0
176
     1
290
     0
176
     1
290
     0
176
     1
 90
       50
176
     1
 40
0.0
176
     1
 40
1.0
176
     1
 90
        0
176
     1
 62
    18
420
        0
176
     1
 90
       50
176
     1
 90
        3
176
     1
 62
     5
420
      255
176
     1
290
     0
176
     1
 90
       50
176
     1
 90
       50
176
     1
 90
       50
176
     1
290
     0
176
     1
 90
       50
176
     1
 62
   256
176
     0
 40
1.0
176
     0
 90
        2
176
     1
  1
strokes_ogs.tif
176
     1
290
     0
176
     1
 40
1.0
176
     1
 40
1.0
176
     1
1001
ACAD
1000
AcDbSavedByObjectVersion
1070
     0
  0
VISUALSTYLE
  5
10029
102
{ACAD_REACTORS
330
1001D
102
}
330
1001D
100
AcDbVisualStyle
  2
Brighten
 70
    12
177
     3
291
     1
 70
    58
 90
        2
176
     1
 90
        2
176
     1
 90
        0
176
     1
 90
        0
176
     1
 40
0.6
176
     1
 40
30.0
176
     1
 62
     7
420
 16777215
176
     1
 90
        1
176
     1
 90
        4
176
     1
 62
     7
176
     1
 62
   257
176
     1
 90
        1
176
     1
 90
        1
176
     1
 40
1.0
176
     1
 90
        8
176
     1
 62
     7
176
     1
 40
1.0
176
     1
 90
        1
176
     1
 90
        6
176
     1
 90
        2
176
     1
 62
     7
176
     1
 90
        5
176
     1
 90
        0
176
     1
 90
        0
176
     1
290
     0
176
     1
 90
        1
176
     1
 40
50.0
176
     1
 90
        0
176
     1
290
     0
176
     1
290
     1
176
     1
290
     1
176
     1
290
     0
176
     1
290
     0
176
     1
290
     0
176
     1
290
     0
176
     1
290
     0
176
     1
290
     0
176
     1
 90
       50
176
     1
 40
0.0
176
     1
 40
1.0
176
     1
 90
        0
176
     1
 62
    18
420
        0
176
     1
 90
       50
176
     1
 90
        3
176
     1
 62
     5
420
      255
176
     1
290
     0
176
     1
 90
       50
176
     1
 90
       50
176
     1
 90
       50
176
     1
290
     0
176
     1
 90
       50
176
     1
 62
   256
176
     0
 40
1.0
176
     0
 90
        2
176
     1
  1
strokes_ogs.tif
176
     1
290
     0
176
     1
 40
1.0
176
     1
 40
1.0
176
     1
1001
ACAD
1000
AcDbSavedByObjectVersion
1070
     0
  0
VISUALSTYLE
  5
1002D
102
{ACAD_REACTORS
330
1001D
102
}
330
1001D
100
AcDbVisualStyle
  2
ColorChange
 70
    16
177
     3
291
     1
 70
    58
 90
        2
176
     1
 90
        2
176
     1
 90
        3
176
     1
 90
        0
176
     1
 40
0.6
176
     1
 40
30.0
176
     1
 62
     8
420
  8421504
176
     1
 90
        1
176
     1
 90
        4
176
     1
 62
     7
176
     1
 62
   257
176
     1
 90
        1
176
     1
 90
        1
176
     1
 40
1.0
176
     1
 90
        8
176
     1
 62
     8
420
  8421504
176
     1
 40
1.0
176
     1
 90
        1
176
     1
 90
        6
176
     1
 90
        2
176
     1
 62
     7
176
     1
 90
        5
176
     1
 90
        0
176
     1
 90
        0
176
     1
290
     0
176
     1
 90
        1
176
     1
 40
0.0
176
     1
 90
        0
176
     1
290
     0
176
     1
290
     1
176
     1
290
     1
176
     1
290
     0
176
     1
290
     0
176
     1
290
     0
176
     1
290
     0
176
     1
290
     0
176
     1
290
     0
176
     1
 90
       50
176
     1
 40
0.0
176
     1
 40
1.0
176
     1
 90
        0
176
     1
 62
    18
420
        0
176
     1
 90
       50
176
     1
 90
        3
176
     1
 62
     5
420
      255
176
     1
290
     0
176
     1
 90
       50
176
     1
 90
       50
176
     1
 90
       50
176
     1
290
     0
176
     1
 90
       50
176
     1
 62
   256
176
     0
 40
1.0
176
     0
 90
        2
176
     1
  1
strokes_ogs.tif
176
     1
290
     0
176
     1
 40
1.0
176
     1
 40
1.0
176
     1
1001
ACAD
1000
AcDbSavedByObjectVersion
1070
     0
  0
VISUALSTYLE
  5
10026
102
{ACAD_REACTORS
330
1001D
102
}
330
1001D
100
AcDbVisualStyle
  2
Conceptual
 70
     9
177
     3
291
     0
 70
    58
 90
        3
176
     1
 90
        2
176
     1
 90
        0
176
     1
 90
        0
176
     1
 40
0.6
176
     1
 40
30.0
176
     1
 62
     7
420
 16777215
176
     1
 90
        2
176
     1
 90
        2
176
     1
 62
     7
176
     1
 62
   257
176
     1
 90
        1
176
     1
 90
        1
176
     1
 40
179.0
176
     1
 90
        8
176
     1
 62
     7
176
     1
 40
1.0
176
     1
 90
        1
176
     1
 90
        6
176
     1
 90
        2
176
     1
 62
     7
176
     1
 90
        3
176
     1
 90
        0
176
     1
 90
        0
176
     1
290
     0
176
     1
 90
        1
176
     1
 40
0.0
176
     1
 90
        0
176
     1
290
     0
176
     1
290
     1
176
     1
290
     1
176
     1
290
     0
176
     1
290
     0
176
     1
290
     0
176
     1
290
     0
176
     1
290
     0
176
     1
290
     0
176
     1
 90
       50
176
     1
 40
0.0
176
     1
 40
1.0
176
     1
 90
        0
176
     1
 62
    18
420
        0
176
     1
 90
       50
176
     1
 90
        3
176
     1
 62
     5
420
      255
176
     1
290
     0
176
     1
 90
       50
176
     1
 90
       50
176
     1
 90
       50
176
     1
290
     0
176
     1
 90
       50
176
     1
 62
   256
176
     0
 40
1.0
176
     0
 90
        2
176
     1
  1
strokes_ogs.tif
176
     1
290
     0
176
     1
 40
1.0
176
     1
 40
1.0
176
     1
1001
ACAD
1000
AcDbSavedByObjectVersion
1070
     0
  0
VISUALSTYLE
  5
10028
102
{ACAD_REACTORS
330
1001D
102
}
330
1001D
100
AcDbVisualStyle
  2
Dim
 70
    11
177
     3
291
     1
 70
    58
 90
        2
176
     1
 90
        2
176
     1
 90
        0
176
     1
 90
        0
176
     1
 40
0.6
176
     1
 40
30.0
176
     1
 62
     7
420
 16777215
176
     1
 90
        1
176
     1
 90
        4
176
     1
 62
     7
176
     1
 62
   257
176
     1
 90
        1
176
     1
 90
        1
176
     1
 40
1.0
176
     1
 90
        8
176
     1
 62
     7
176
     1
 40
1.0
176
     1
 90
        1
176
     1
 90
        6
176
     1
 90
        2
176
     1
 62
     7
176
     1
 90
        5
176
     1
 90
        0
176
     1
 90
        0
176
     1
290
     0
176
     1
 90
        1
176
     1
 40
-50.0
176
     1
 90
        0
176
     1
290
     0
176
     1
290
     1
176
     1
290
     1
176
     1
290
     0
176
     1
290
     0
176
     1
290
     0
176
     1
290
     0
176
     1
290
     0
176
     1
290
     0
176
     1
 90
       50
176
     1
 40
0.0
176
     1
 40
1.0
176
     1
 90
        0
176
     1
 62
    18
420
        0
176
     1
 90
       50
176
     1
 90
        3
176
     1
 62
     5
420
      255
176
     1
290
     0
176
     1
 90
       50
176
     1
 90
       50
176
     1
 90
       50
176
     1
290
     0
176
     1
 90
       50
176
     1
 62
   256
176
     0
 40
1.0
176
     0
 90
        2
176
     1
  1
strokes_ogs.tif
176
     1
290
     0
176
     1
 40
1.0
176
     1
 40
1.0
176
     1
1001
ACAD
1000
AcDbSavedByObjectVersion
1070
     0
  0
VISUALSTYLE
  5
10035
102
{ACAD_REACTORS
330
1001D
102
}
330
1001D
100
AcDbVisualStyle
  2
EdgeColorOff
 70
    22
177
     3
291
     1
 70
    58
 90
        2
176
     0
 90
        2
176
     0
 90
        0
176
     0
 90
        0
176
     0
 40
0.6
176
     0
 40
30.0
176
     0
 62
     7
420
 16777215
176
     0
 90
        1
176
     0
 90
        4
176
     0
 62
     7
176
     0
 62
   257
176
     0
 90
        1
176
     0
 90
        1
176
     0
 40
1.0
176
     0
 90
        8
176
     2
 62
     7
176
     0
 40
1.0
176
     0
 90
        1
176
     0
 90
        6
176
     0
 90
        2
176
     0
 62
     7
176
     0
 90
        5
176
     0
 90
        0
176
     0
 90
        0
176
     0
290
     0
176
     0
 90
        1
176
     0
 40
0.0
176
     0
 90
        0
176
     0
290
     0
176
     1
290
     1
176
     1
290
     1
176
     1
290
     0
176
     1
290
     0
176
     1
290
     0
176
     1
290
     0
176
     1
290
     0
176
     1
290
     0
176
     1
 90
       50
176
     0
 40
0.0
176
     0
 40
1.0
176
     0
 90
        0
176
     0
 62
    18
420
        0
176
     0
 90
       50
176
     0
 90
        3
176
     0
 62
     5
420
      255
176
     0
290
     0
176
     1
 90
       50
176
     0
 90
       50
176
     0
 90
       50
176
     0
290
     0
176
     1
 90
       50
176
     0
 62
   256
176
     0
 40
1.0
176
     0
 90
        2
176
     0
  1
strokes_ogs.tif
176
     0
290
     0
176
     1
 40
1.0
176
     0
 40
1.0
176
     0
1001
ACAD
1000
AcDbSavedByObjectVersion
1070
     0
  0
VISUALSTYLE
  5
1002C
102
{ACAD_REACTORS
330
1001D
102
}
330
1001D
100
AcDbVisualStyle
  2
Facepattern
 70
    15
177
     3
291
     1
 70
    58
 90
        2
176
     1
 90
        2
176
     1
 90
        0
176
     1
 90
        0
176
     1
 40
0.6
176
     1
 40
30.0
176
     1
 62
     7
420
 16777215
176
     1
 90
        1
176
     1
 90
        4
176
     1
 62
     7
176
     1
 62
   257
176
     1
 90
        1
176
     1
 90
        1
176
     1
 40
1.0
176
     1
 90
        8
176
     1
 62
     7
176
     1
 40
1.0
176
     1
 90
        1
176
     1
 90
        6
176
     1
 90
        2
176
     1
 62
     7
176
     1
 90
        5
176
     1
 90
        0
176
     1
 90
        0
176
     1
290
     0
176
     1
 90
        1
176
     1
 40
0.0
176
     1
 90
        0
176
     1
290
     0
176
     1
290
     1
176
     1
290
     1
176
     1
290
     0
176
     1
290
     0
176
     1
290
     0
176
     1
290
     0
176
     1
290
     0
176
     1
290
     0
176
     1
 90
       50
176
     1
 40
0.0
176
     1
 40
1.0
176
     1
 90
        0
176
     1
 62
    18
420
        0
176
     1
 90
       50
176
     1
 90
        3
176
     1
 62
     5
420
      255
176
     1
290
     0
176
     1
 90
       50
176
     1
 90
       50
176
     1
 90
       50
176
     1
290
     0
176
     1
 90
       50
176
     1
 62
   256
176
     0
 40
1.0
176
     0
 90
        2
176
     1
  1
strokes_ogs.tif
176
     1
290
     0
176
     1
 40
1.0
176
     1
 40
1.0
176
     1
1001
ACAD
1000
AcDbSavedByObjectVersion
1070
     0
  0
VISUALSTYLE
  5
1001E
102
{ACAD_REACTORS
330
1001D
102
}
330
1001D
100
AcDbVisualStyle
  2
Flat
 70
     0
177
     3
291
     1
 70
    58
 90
        2
176
     1
 90
        1
176
     1
 90
        1
176
     1
 90
        2
176
     1
 40
0.6
176
     1
 40
30.0
176
     1
 62
     7
420
 16777215
176
     1
 90
        0
176
     1
 90
        0
176
     1
 62
     7
176
     1
 62
   257
176
     1
 90
        1
176
     1
 90
        1
176
     1
 40
1.0
176
     1
 90
        8
176
     1
 62
     7
176
     1
 40
1.0
176
     1
 90
        1
176
     1
 90
        6
176
     1
 90
        2
176
     1
 62
     7
176
     1
 90
        5
176
     1
 90
        0
176
     1
 90
        0
176
     1
290
     0
176
     1
 90
       13
176
     1
 40
0.0
176
     1
 90
        0
176
     1
290
     0
176
     1
290
     1
176
     1
290
     1
176
     1
290
     0
176
     1
290
     0
176
     1
290
     0
176
     1
290
     0
176
     1
290
     0
176
     1
290
     0
176
     1
 90
       50
176
     1
 40
0.0
176
     1
 40
1.0
176
     1
 90
        0
176
     1
 62
    18
420
        0
176
     1
 90
       50
176
     1
 90
        3
176
     1
 62
     5
420
      255
176
     1
290
     0
176
     1
 90
       50
176
     1
 90
       50
176
     1
 90
       50
176
     1
290
     0
176
     1
 90
       50
176
     1
 62
   256
176
     0
 40
1.0
176
     0
 90
        2
176
     1
  1
strokes_ogs.tif
176
     1
290
     0
176
     1
 40
1.0
176
     1
 40
1.0
176
     1
1001
ACAD
1000
AcDbSavedByObjectVersion
1070
     0
  0
VISUALSTYLE
  5
1001F
102
{ACAD_REACTORS
330
1001D
102
}
330
1001D
100
AcDbVisualStyle
  2
FlatWithEdges
 70
     1
177
     3
291
     1
 70
    58
 90
        2
176
     1
 90
        1
176
     1
 90
        1
176
     1
 90
        2
176
     1
 40
0.6
176
     1
 40
30.0
176
     1
 62
     7
420
 16777215
176
     1
 90
        1
176
     1
 90
        0
176
     1
 62
     7
176
     1
 62
   257
176
     1
 90
        1
176
     1
 90
        1
176
     1
 40
1.0
176
     1
 90
        0
176
     1
 62
   257
176
     1
 40
1.0
176
     1
 90
        1
176
     1
 90
        6
176
     1
 90
        2
176
     1
 62
     7
176
     1
 90
        5
176
     1
 90
        0
176
     1
 90
        0
176
     1
290
     0
176
     1
 90
       13
176
     1
 40
0.0
176
     1
 90
        0
176
     1
290
     0
176
     1
290
     1
176
     1
290
     1
176
     1
290
     0
176
     1
290
     0
176
     1
290
     0
176
     1
290
     0
176
     1
290
     0
176
     1
290
     0
176
     1
 90
       50
176
     1
 40
0.0
176
     1
 40
1.0
176
     1
 90
        0
176
     1
 62
    18
420
        0
176
     1
 90
       50
176
     1
 90
        3
176
     1
 62
     5
420
      255
176
     1
290
     0
176
     1
 90
       50
176
     1
 90
       50
176
     1
 90
       50
176
     1
290
     0
176
     1
 90
       50
176
     1
 62
   256
176
     0
 40
1.0
176
     0
 90
        2
176
     1
  1
strokes_ogs.tif
176
     1
290
     0
176
     1
 40
1.0
176
     1
 40
1.0
176
     1
1001
ACAD
1000
AcDbSavedByObjectVersion
1070
     0
  0
VISUALSTYLE
  5
10020
102
{ACAD_REACTORS
330
1001D
102
}
330
1001D
100
AcDbVisualStyle
  2
Gouraud
 70
     2
177
     3
291
     1
 70
    58
 90
        2
176
     1
 90
        2
176
     1
 90
        1
176
     1
 90
        2
176
     1
 40
0.6
176
     1
 40
30.0
176
     1
 62
     7
420
 16777215
176
     1
 90
        0
176
     1
 90
        0
176
     1
 62
     7
176
     1
 62
   257
176
     1
 90
        1
176
     1
 90
        1
176
     1
 40
1.0
176
     1
 90
        0
176
     1
 62
     7
176
     1
 40
1.0
176
     1
 90
        1
176
     1
 90
        6
176
     1
 90
        2
176
     1
 62
     7
176
     1
 90
        5
176
     1
 90
        0
176
     1
 90
        0
176
     1
290
     0
176
     1
 90
       13
176
     1
 40
0.0
176
     1
 90
        0
176
     1
290
     0
176
     1
290
     1
176
     1
290
     1
176
     1
290
     0
176
     1
290
     0
176
     1
290
     0
176
     1
290
     0
176
     1
290
     0
176
     1
290
     0
176
     1
 90
       50
176
     1
 40
0.0
176
     1
 40
1.0
176
     1
 90
        0
176
     1
 62
    18
420
        0
176
     1
 90
       50
176
     1
 90
        3
176
     1
 62
     5
420
      255
176
     1
290
     0
176
     1
 90
       50
176
     1
 90
       50
176
     1
 90
       50
176
     1
290
     0
176
     1
 90
       50
176
     1
 62
   256
176
     0
 40
1.0
176
     0
 90
        2
176
     1
  1
strokes_ogs.tif
176
     1
290
     0
176
     1
 40
1.0
176
     1
 40
1.0
176
     1
1001
ACAD
1000
AcDbSavedByObjectVersion
1070
     0
  0
VISUALSTYLE
  5
10021
102
{ACAD_REACTORS
330
1001D
102
}
330
1001D
100
AcDbVisualStyle
  2
GouraudWithEdges
 70
     3
177
     3
291
     1
 70
    58
 90
        2
176
     1
 90
        2
176
     1
 90
        1
176
     1
 90
        2
176
     1
 40
0.6
176
     1
 40
30.0
176
     1
 62
     7
420
 16777215
176
     1
 90
        1
176
     1
 90
        0
176
     1
 62
     7
176
     1
 62
   257
176
     1
 90
        1
176
     1
 90
        1
176
     1
 40
1.0
176
     1
 90
        0
176
     1
 62
   257
176
     1
 40
1.0
176
     1
 90
        1
176
     1
 90
        6
176
     1
 90
        2
176
     1
 62
     7
176
     1
 90
        5
176
     1
 90
        0
176
     1
 90
        0
176
     1
290
     0
176
     1
 90
       13
176
     1
 40
0.0
176
     1
 90
        0
176
     1
290
     0
176
     1
290
     1
176
     1
290
     1
176
     1
290
     0
176
     1
290
     0
176
     1
290
     0
176
     1
290
     0
176
     1
290
     0
176
     1
290
     0
176
     1
 90
       50
176
     1
 40
0.0
176
     1
 40
1.0
176
     1
 90
        0
176
     1
 62
    18
420
        0
176
     1
 90
       50
176
     1
 90
        3
176
     1
 62
     5
420
      255
176
     1
290
     0
176
     1
 90
       50
176
     1
 90
       50
176
     1
 90
       50
176
     1
290
     0
176
     1
 90
       50
176
     1
 62
   256
176
     0
 40
1.0
176
     0
 90
        2
176
     1
  1
strokes_ogs.tif
176
     1
290
     0
176
     1
 40
1.0
176
     1
 40
1.0
176
     1
1001
ACAD
1000
AcDbSavedByObjectVersion
1070
     0
  0
VISUALSTYLE
  5
10025
102
{ACAD_REACTORS
330
1001D
102
}
330
1001D
100
AcDbVisualStyle
  2
Hidden
 70
     6
177
     3
291
     0
 70
    58
 90
        1
176
     1
 90
        2
176
     1
 90
        2
176
     1
 90
        0
176
     1
 40
0.6
176
     1
 40
30.0
176
     1
 62
     7
420
 16777215
176
     1
 90
        2
176
     1
 90
        2
176
     1
 62
     7
176
     1
 62
   257
176
     1
 90
        2
176
     1
 90
        1
176
     1
 40
40.0
176
     1
 90
        0
176
     1
 62
   257
176
     1
 40
1.0
176
     1
 90
        1
176
     1
 90
        6
176
     1
 90
        2
176
     1
 62
     7
176
     1
 90
        3
176
     1
 90
        0
176
     1
 90
        0
176
     1
290
     0
176
     1
 90
        1
176
     1
 40
0.0
176
     1
 90
        0
176
     1
290
     0
176
     1
290
     1
176
     1
290
     1
176
     1
290
     0
176
     1
290
     0
176
     1
290
     0
176
     1
290
     0
176
     1
290
     0
176
     1
290
     0
176
     1
 90
       50
176
     1
 40
0.0
176
     1
 40
1.0
176
     1
 90
        0
176
     1
 62
    18
420
        0
176
     1
 90
       50
176
     1
 90
        3
176
     1
 62
     5
420
      255
176
     1
290
     0
176
     1
 90
       50
176
     1
 90
       50
176
     1
 90
       50
176
     1
290
     0
176
     1
 90
       50
176
     1
 62
   256
176
     0
 40
1.0
176
     0
 90
        2
176
     1
  1
strokes_ogs.tif
176
     1
290
     0
176
     1
 40
1.0
176
     1
 40
1.0
176
     1
1001
ACAD
1000
AcDbSavedByObjectVersion
1070
     0
  0
VISUALSTYLE
  5
10033
102
{ACAD_REACTORS
330
1001D
102
}
330
1001D
100
AcDbVisualStyle
  2
JitterOff
 70
    20
177
     3
291
     1
 70
    58
 90
        2
176
     0
 90
        2
176
     0
 90
        0
176
     0
 90
        0
176
     0
 40
0.6
176
     0
 40
30.0
176
     0
 62
     7
420
 16777215
176
     0
 90
        1
176
     0
 90
        4
176
     0
 62
     7
176
     0
 62
   257
176
     0
 90
        1
176
     0
 90
        1
176
     0
 40
1.0
176
     0
 90
       10
176
     2
 62
     7
176
     0
 40
1.0
176
     0
 90
        1
176
     0
 90
        6
176
     0
 90
        2
176
     0
 62
     7
176
     0
 90
        5
176
     0
 90
        0
176
     0
 90
        0
176
     0
290
     0
176
     0
 90
        1
176
     0
 40
0.0
176
     0
 90
        0
176
     0
290
     0
176
     1
290
     1
176
     1
290
     1
176
     1
290
     0
176
     1
290
     0
176
     1
290
     0
176
     1
290
     0
176
     1
290
     0
176
     1
290
     0
176
     1
 90
       50
176
     0
 40
0.0
176
     0
 40
1.0
176
     0
 90
        0
176
     0
 62
    18
420
        0
176
     0
 90
       50
176
     0
 90
        3
176
     0
 62
     5
420
      255
176
     0
290
     0
176
     1
 90
       50
176
     0
 90
       50
176
     0
 90
       50
176
     0
290
     0
176
     1
 90
       50
176
     0
 62
   256
176
     0
 40
1.0
176
     0
 90
        2
176
     0
  1
strokes_ogs.tif
176
     0
290
     0
176
     1
 40
1.0
176
     0
 40
1.0
176
     0
1001
ACAD
1000
AcDbSavedByObjectVersion
1070
     0
  0
VISUALSTYLE
  5
1002B
102
{ACAD_REACTORS
330
1001D
102
}
330
1001D
100
AcDbVisualStyle
  2
Linepattern
 70
    14
177
     3
291
     1
 70
    58
 90
        2
176
     1
 90
        2
176
     1
 90
        0
176
     1
 90
        0
176
     1
 40
0.6
176
     1
 40
30.0
176
     1
 62
     7
420
 16777215
176
     1
 90
        1
176
     1
 90
        4
176
     1
 62
     7
176
     1
 62
   257
176
     1
 90
        7
176
     1
 90
        7
176
     1
 40
1.0
176
     1
 90
        8
176
     1
 62
     7
176
     1
 40
1.0
176
     1
 90
        1
176
     1
 90
        6
176
     1
 90
        2
176
     1
 62
     7
176
     1
 90
        5
176
     1
 90
        0
176
     1
 90
        0
176
     1
290
     0
176
     1
 90
        1
176
     1
 40
0.0
176
     1
 90
        0
176
     1
290
     0
176
     1
290
     1
176
     1
290
     1
176
     1
290
     0
176
     1
290
     0
176
     1
290
     0
176
     1
290
     0
176
     1
290
     0
176
     1
290
     0
176
     1
 90
       50
176
     1
 40
0.0
176
     1
 40
1.0
176
     1
 90
        0
176
     1
 62
    18
420
        0
176
     1
 90
       50
176
     1
 90
        3
176
     1
 62
     5
420
      255
176
     1
290
     0
176
     1
 90
       50
176
     1
 90
       50
176
     1
 90
       50
176
     1
290
     0
176
     1
 90
       50
176
     1
 62
   256
176
     0
 40
1.0
176
     0
 90
        2
176
     1
  1
strokes_ogs.tif
176
     1
290
     0
176
     1
 40
1.0
176
     1
 40
1.0
176
     1
1001
ACAD
1000
AcDbSavedByObjectVersion
1070
     0
  0
VISUALSTYLE
  5
10034
102
{ACAD_REACTORS
330
1001D
102
}
330
1001D
100
AcDbVisualStyle
  2
OverhangOff
 70
    21
177
     3
291
     1
 70
    58
 90
        2
176
     0
 90
        2
176
     0
 90
        0
176
     0
 90
        0
176
     0
 40
0.6
176
     0
 40
30.0
176
     0
 62
     7
420
 16777215
176
     0
 90
        1
176
     0
 90
        4
176
     0
 62
     7
176
     0
 62
   257
176
     0
 90
        1
176
     0
 90
        1
176
     0
 40
1.0
176
     0
 90
        9
176
     2
 62
     7
176
     0
 40
1.0
176
     0
 90
        1
176
     0
 90
        6
176
     0
 90
        2
176
     0
 62
     7
176
     0
 90
        5
176
     0
 90
        0
176
     0
 90
        0
176
     0
290
     0
176
     0
 90
        1
176
     0
 40
0.0
176
     0
 90
        0
176
     0
290
     0
176
     1
290
     1
176
     1
290
     1
176
     1
290
     0
176
     1
290
     0
176
     1
290
     0
176
     1
290
     0
176
     1
290
     0
176
     1
290
     0
176
     1
 90
       50
176
     0
 40
0.0
176
     0
 40
1.0
176
     0
 90
        0
176
     0
 62
    18
420
        0
176
     0
 90
       50
176
     0
 90
        3
176
     0
 62
     5
420
      255
176
     0
290
     0
176
     1
 90
       50
176
     0
 90
       50
176
     0
 90
       50
176
     0
290
     0
176
     1
 90
       50
176
     0
 62
   256
176
     0
 40
1.0
176
     0
 90
        2
176
     0
  1
strokes_ogs.tif
176
     0
290
     0
176
     1
 40
1.0
176
     0
 40
1.0
176
     0
1001
ACAD
1000
AcDbSavedByObjectVersion
1070
     0
  0
VISUALSTYLE
  5
10027
102
{ACAD_REACTORS
330
1001D
102
}
330
1001D
100
AcDbVisualStyle
  2
Realistic
 70
     8
177
     3
291
     0
 70
    58
 90
        2
176
     1
 90
        3
176
     1
 90
        0
176
     1
 90
        2
176
     1
 40
0.6
176
     1
 40
30.0
176
     1
 62
     7
420
 16777215
176
     1
 90
        0
176
     1
 90
        0
176
     1
 62
     7
176
     1
 62
   257
176
     1
 90
        1
176
     1
 90
        1
176
     1
 40
1.0
176
     1
 90
        8
176
     1
 62
   257
176
     1
 40
1.0
176
     1
 90
        1
176
     1
 90
        6
176
     1
 90
        2
176
     1
 62
     7
176
     1
 90
        3
176
     1
 90
        0
176
     1
 90
        0
176
     1
290
     0
176
     1
 90
       13
176
     1
 40
0.0
176
     1
 90
        0
176
     1
290
     0
176
     1
290
     1
176
     1
290
     1
176
     1
290
     0
176
     1
290
     0
176
     1
290
     0
176
     1
290
     0
176
     1
290
     0
176
     1
290
     0
176
     1
 90
       50
176
     1
 40
0.0
176
     1
 40
1.0
176
     1
 90
        0
176
     1
 62
    18
420
        0
176
     1
 90
       50
176
     1
 90
        3
176
     1
 62
     5
420
      255
176
     1
290
     0
176
     1
 90
       50
176
     1
 90
       50
176
     1
 90
       50
176
     1
290
     0
176
     1
 90
       50
176
     1
 62
   256
176
     0
 40
1.0
176
     0
 90
        2
176
     1
  1
strokes_ogs.tif
176
     1
290
     0
176
     1
 40
1.0
176
     1
 40
1.0
176
     1
1001
ACAD
1000
AcDbSavedByObjectVersion
1070
     0
  0
VISUALSTYLE
  5
10032
102
{ACAD_REACTORS
330
1001D
102
}
330
1001D
100
AcDbVisualStyle
  2
Shaded
 70
    27
177
     3
291
     0
 70
    58
 90
        2
176
     1
 90
        2
176
     1
 90
        1
176
     1
 90
        2
176
     1
 40
0.6
176
     1
 40
30.0
176
     1
 62
     7
420
 16777215
176
     1
 90
        0
176
     1
 90
        4
176
     1
 62
     7
176
     1
 62
   257
176
     1
 90
        1
176
     1
 90
        1
176
     1
 40
1.0
176
     1
 90
        8
176
     1
 62
   257
176
     1
 40
1.0
176
     1
 90
        1
176
     1
 90
        6
176
     1
 90
        2
176
     1
 62
     8
420
  7895160
176
     1
 90
        3
176
     1
 90
        0
176
     1
 90
        0
176
     1
290
     0
176
     1
 90
        5
176
     1
 40
0.0
176
     1
 90
        0
176
     1
290
     0
176
     1
290
     1
176
     1
290
     1
176
     1
290
     0
176
     1
290
     0
176
     1
290
     0
176
     1
290
     0
176
     1
290
     0
176
     1
290
     0
176
     1
 90
       50
176
     1
 40
0.0
176
     1
 40
1.0
176
     1
 90
        0
176
     1
 62
    18
420
        0
176
     1
 90
       50
176
     1
 90
        3
176
     1
 62
     5
420
      255
176
     1
290
     0
176
     1
 90
       50
176
     1
 90
       50
176
     1
 90
       50
176
     1
290
     0
176
     1
 90
       50
176
     1
 62
   256
176
     0
 40
1.0
176
     0
 90
        2
176
     1
  1
strokes_ogs.tif
176
     1
290
     0
176
     1
 40
1.0
176
     1
 40
1.0
176
     1
1001
ACAD
1000
AcDbSavedByObjectVersion
1070
     0
  0
VISUALSTYLE
  5
10031
102
{ACAD_REACTORS
330
1001D
102
}
330
1001D
100
AcDbVisualStyle
  2
Shaded with edges
 70
    26
177
     3
291
     0
 70
    58
 90
        2
176
     1
 90
        2
176
     1
 90
        1
176
     1
 90
        2
176
     1
 40
0.6
176
     1
 40
30.0
176
     1
 62
     7
420
 16777215
176
     1
 90
        1
176
     1
 90
        2
176
     1
 62
     7
176
     1
 62
   257
176
     1
 90
        2
176
     1
 90
        1
176
     1
 40
1.0
176
     1
 90
        8
176
     1
 62
   257
176
     1
 40
1.0
176
     1
 90
        1
176
     1
 90
        6
176
     1
 90
        2
176
     1
 62
     7
176
     1
 90
        3
176
     1
 90
        0
176
     1
 90
        0
176
     1
290
     0
176
     1
 90
        5
176
     1
 40
0.0
176
     1
 90
        0
176
     1
290
     0
176
     1
290
     1
176
     1
290
     1
176
     1
290
     0
176
     1
290
     0
176
     1
290
     0
176
     1
290
     0
176
     1
290
     0
176
     1
290
     0
176
     1
 90
       50
176
     1
 40
0.0
176
     1
 40
1.0
176
     1
 90
        0
176
     1
 62
    18
420
        0
176
     1
 90
       50
176
     1
 90
        3
176
     1
 62
     5
420
      255
176
     1
290
     0
176
     1
 90
       50
176
     1
 90
       50
176
     1
 90
       50
176
     1
290
     0
176
     1
 90
       50
176
     1
 62
   256
176
     0
 40
1.0
176
     0
 90
        2
176
     1
  1
strokes_ogs.tif
176
     1
290
     0
176
     1
 40
1.0
176
     1
 40
1.0
176
     1
1001
ACAD
1000
AcDbSavedByObjectVersion
1070
     0
  0
VISUALSTYLE
  5
1002E
102
{ACAD_REACTORS
330
1001D
102
}
330
1001D
100
AcDbVisualStyle
  2
Shades of Gray
 70
    23
177
     3
291
     0
 70
    58
 90
        2
176
     1
 90
        2
176
     1
 90
        3
176
     1
 90
        0
176
     1
 40
0.6
176
     1
 40
30.0
176
     1
 62
     7
420
 16777215
176
     1
 90
        2
176
     1
 90
        2
176
     1
 62
     7
176
     1
 62
     7
176
     1
 90
        1
176
     1
 90
        1
176
     1
 40
40.0
176
     1
 90
        8
176
     1
 62
     7
176
     1
 40
1.0
176
     1
 90
        1
176
     1
 90
        6
176
     1
 90
        2
176
     1
 62
     7
176
     1
 90
        3
176
     1
 90
        0
176
     1
 90
        0
176
     1
290
     0
176
     1
 90
        1
176
     1
 40
0.0
176
     1
 90
        0
176
     1
290
     0
176
     1
290
     1
176
     1
290
     1
176
     1
290
     0
176
     1
290
     0
176
     1
290
     0
176
     1
290
     0
176
     1
290
     0
176
     1
290
     0
176
     1
 90
       50
176
     1
 40
0.0
176
     1
 40
1.0
176
     1
 90
        0
176
     1
 62
    18
420
        0
176
     1
 90
       50
176
     1
 90
        3
176
     1
 62
     5
420
      255
176
     1
290
     0
176
     1
 90
       50
176
     1
 90
       50
176
     1
 90
       50
176
     1
290
     0
176
     1
 90
       50
176
     1
 62
   256
176
     0
 40
1.0
176
     0
 90
        2
176
     1
  1
strokes_ogs.tif
176
     1
290
     0
176
     1
 40
1.0
176
     1
 40
1.0
176
     1
1001
ACAD
1000
AcDbSavedByObjectVersion
1070
     0
  0
VISUALSTYLE
  5
1002F
102
{ACAD_REACTORS
330
1001D
102
}
330
1001D
100
AcDbVisualStyle
  2
Sketchy
 70
    24
177
     3
291
     0
 70
    58
 90
        1
176
     1
 90
        2
176
     1
 90
        2
176
     1
 90
        0
176
     1
 40
0.6
176
     1
 40
30.0
176
     1
 62
     7
420
 16777215
176
     1
 90
        2
176
     1
 90
        2
176
     1
 62
     7
176
     1
 62
     7
176
     1
 90
        1
176
     1
 90
        1
176
     1
 40
40.0
176
     1
 90
       11
176
     1
 62
     7
176
     1
 40
1.0
176
     1
 90
        1
176
     1
 90
        6
176
     1
 90
        2
176
     1
 62
     7
176
     1
 90
        6
176
     1
 90
        0
176
     1
 90
        0
176
     1
290
     0
176
     1
 90
        1
176
     1
 40
0.0
176
     1
 90
        0
176
     1
290
     0
176
     1
290
     1
176
     1
290
     1
176
     1
290
     0
176
     1
290
     0
176
     1
290
     0
176
     1
290
     0
176
     1
290
     0
176
     1
290
     0
176
     1
 90
       50
176
     1
 40
0.0
176
     1
 40
1.0
176
     1
 90
        0
176
     1
 62
    18
420
        0
176
     1
 90
       50
176
     1
 90
        3
176
     1
 62
     5
420
      255
176
     1
290
     0
176
     1
 90
       50
176
     1
 90
       50
176
     1
 90
       50
176
     1
290
     0
176
     1
 90
       50
176
     1
 62
   256
176
     0
 40
1.0
176
     0
 90
        2
176
     1
  1
strokes_ogs.tif
176
     1
290
     0
176
     1
 40
1.0
176
     1
 40
1.0
176
     1
1001
ACAD
1000
AcDbSavedByObjectVersion
1070
     0
  0
VISUALSTYLE
  5
1002A
102
{ACAD_REACTORS
330
1001D
102
}
330
1001D
100
AcDbVisualStyle
  2
Thicken
 70
    13
177
     3
291
     1
 70
    58
 90
        2
176
     1
 90
        2
176
     1
 90
        0
176
     1
 90
        0
176
     1
 40
0.6
176
     1
 40
30.0
176
     1
 62
     7
420
 16777215
176
     1
 90
        1
176
     1
 90
        4
176
     1
 62
     7
176
     1
 62
   257
176
     1
 90
        1
176
     1
 90
        1
176
     1
 40
1.0
176
     1
 90
       12
176
     1
 62
     7
176
     1
 40
1.0
176
     1
 90
        1
176
     1
 90
        6
176
     1
 90
        2
176
     1
 62
     7
176
     1
 90
        5
176
     1
 90
        0
176
     1
 90
        0
176
     1
290
     0
176
     1
 90
        1
176
     1
 40
0.0
176
     1
 90
        0
176
     1
290
     0
176
     1
290
     1
176
     1
290
     1
176
     1
290
     0
176
     1
290
     0
176
     1
290
     0
176
     1
290
     0
176
     1
290
     0
176
     1
290
     0
176
     1
 90
       50
176
     1
 40
0.0
176
     1
 40
1.0
176
     1
 90
        0
176
     1
 62
    18
420
        0
176
     1
 90
       50
176
     1
 90
        3
176
     1
 62
     5
420
      255
176
     1
290
     0
176
     1
 90
       50
176
     1
 90
       50
176
     1
 90
       50
176
     1
290
     0
176
     1
 90
       50
176
     1
 62
   256
176
     0
 40
1.0
176
     0
 90
        2
176
     1
  1
strokes_ogs.tif
176
     1
290
     0
176
     1
 40
1.0
176
     1
 40
1.0
176
     1
1001
ACAD
1000
AcDbSavedByObjectVersion
1070
     0
  0
VISUALSTYLE
  5
10024
102
{ACAD_REACTORS
330
1001D
102
}
330
1001D
100
AcDbVisualStyle
  2
Wireframe
 70
     5
177
     3
291
     0
 70
    58
 90
        0
176
     1
 90
        2
176
     1
 90
        0
176
     1
 90
        0
176
     1
 40
0.6
176
     1
 40
30.0
176
     1
 62
     7
420
 16777215
176
     1
 90
        1
176
     1
 90
        4
176
     1
 62
     7
176
     1
 62
   257
176
     1
 90
        1
176
     1
 90
        1
176
     1
 40
1.0
176
     1
 90
        0
176
     1
 62
   257
176
     1
 40
1.0
176
     1
 90
        1
176
     1
 90
        6
176
     1
 90
        2
176
     1
 62
     7
176
     1
 90
        3
176
     1
 90
        0
176
     1
 90
        0
176
     1
290
     0
176
     1
 90
        1
176
     1
 40
0.0
176
     1
 90
        0
176
     1
290
     0
176
     1
290
     1
176
     1
290
     1
176
     1
290
     0
176
     1
290
     0
176
     1
290
     0
176
     1
290
     0
176
     1
290
     0
176
     1
290
     0
176
     1
 90
       50
176
     1
 40
0.0
176
     1
 40
1.0
176
     1
 90
        0
176
     1
 62
    18
420
        0
176
     1
 90
       50
176
     1
 90
        3
176
     1
 62
     5
420
      255
176
     1
290
     0
176
     1
 90
       50
176
     1
 90
       50
176
     1
 90
       50
176
     1
290
     0
176
     1
 90
       50
176
     1
 62
   256
176
     0
 40
1.0
176
     0
 90
        2
176
     1
  1
strokes_ogs.tif
176
     1
290
     0
176
     1
 40
1.0
176
     1
 40
1.0
176
     1
1001
ACAD
1000
AcDbSavedByObjectVersion
1070
     0
  0
VISUALSTYLE
  5
10030
102
{ACAD_REACTORS
330
1001D
102
}
330
1001D
100
AcDbVisualStyle
  2
X-Ray
 70
    25
177
     3
291
     0
 70
    58
 90
        2
176
     1
 90
        2
176
     1
 90
        1
176
     1
 90
        1
176
     1
 40
0.5
176
     1
 40
30.0
176
     1
 62
     7
420
 16777215
176
     1
 90
        1
176
     1
 90
        0
176
     1
 62
     7
176
     1
 62
   257
176
     1
 90
        1
176
     1
 90
        1
176
     1
 40
1.0
176
     1
 90
        8
176
     1
 62
     7
176
     1
 40
1.0
176
     1
 90
        1
176
     1
 90
        6
176
     1
 90
        2
176
     1
 62
     7
176
     1
 90
        3
176
     1
 90
        0
176
     1
 90
        0
176
     1
290
     0
176
     1
 90
       13
176
     1
 40
0.0
176
     1
 90
        0
176
     1
290
     0
176
     1
290
     1
176
     1
290
     1
176
     1
290
     0
176
     1
290
     0
176
     1
290
     0
176
     1
290
     0
176
     1
290
     0
176
     1
290
     0
176
     1
 90
       50
176
     1
 40
0.0
176
     1
 40
1.0
176
     1
 90
        0
176
     1
 62
    18
420
        0
176
     1
 90
       50
176
     1
 90
        3
176
     1
 62
     5
420
      255
176
     1
290
     0
176
     1
 90
       50
176
     1
 90
       50
176
     1
 90
       50
176
     1
290
     0
176
     1
 90
       50
176
     1
 62
   256
176
     0
 40
1.0
176
     0
 90
        2
176
     1
  1
strokes_ogs.tif
176
     1
290
     0
176
     1
 40
1.0
176
     1
 40
1.0
176
     1
1001
ACAD
1000
AcDbSavedByObjectVersion
1070
     0
  0
DICTIONARYVAR
  5
10070
102
{ACAD_REACTORS
330
1006A
102
}
330
1006A
100
DictionaryVariables
280
     0
  1
1:1
  0
DICTIONARYVAR
  5
1006C
102
{ACAD_REACTORS
330
1006A
102
}
330
1006A
100
DictionaryVariables
280
     0
  1
STANDARD
  0
DICTIONARYVAR
  5
1006B
102
{ACAD_REACTORS
330
1006A
102
}
330
1006A
100
DictionaryVariables
280
     0
  1
STANDARD
  0
DICTIONARYVAR
  5
1006D
102
{ACAD_REACTORS
330
1006A
102
}
330
1006A
100
DictionaryVariables
280
     0
  1
Imperial24
  0
DICTIONARYVAR
  5
1006E
102
{ACAD_REACTORS
330
1006A
102
}
330
1006A
100
DictionaryVariables
280
     0
  1
Imperial24
  0
DICTIONARYVAR
  5
10072
102
{ACAD_REACTORS
330
1006A
102
}
330
1006A
100
DictionaryVariables
280
     0
  1
1
  0
DICTIONARYVAR
  5
10073
102
{ACAD_REACTORS
330
1006A
102
}
330
1006A
100
DictionaryVariables
280
     0
  1
15
  0
DICTIONARYVAR
  5
10071
102
{ACAD_REACTORS
330
1006A
102
}
330
1006A
100
DictionaryVariables
280
     0
  1
0
  0
DICTIONARYVAR
  5
1006F
102
{ACAD_REACTORS
330
1006A
102
}
330
1006A
100
DictionaryVariables
280
     0
  1
0
  0
DICTIONARY
  5
1007E
102
{ACAD_REACTORS
330
1007C
102
}
330
1007C
100
AcDbDictionary
281
     1
  0
DICTIONARY
  5
1007D
102
{ACAD_REACTORS
330
1007C
102
}
330
1007C
100
AcDbDictionary
281
     1
  3
140269141752944
350
10077
  3
140269141752960
350
10078
  3
140269141752976
350
10079
  3
140269141752992
350
1007A
  3
140269141753008
350
1007B
  0
DICTIONARY
  5
10081
330
10052
100
AcDbDictionary
280
     1
281
     1
  3
ACAD_XREC_ROUNDTRIP
360
10082
  0
DICTIONARY
  5
1000E
330
1000D
100
AcDbDictionary
280
     1
281
     1
  3
BUMPTILE
360
10010
  3
DIFFUSETILE
360
1000F
  3
OPACITYTILE
360
10013
  3
REFLECTIONTILE
360
10012
  3
REFRACTIONTILE
360
10014
  3
SPECULARTILE
360
10011
  0
DICTIONARY
  5
10006
330
10005
100
AcDbDictionary
280
     1
281
     1
  3
BUMPTILE
360
10008
  3
DIFFUSETILE
360
10007
  3
OPACITYTILE
360
1000B
  3
REFLECTIONTILE
360
1000A
  3
REFRACTIONTILE
360
1000C
  3
SPECULARTILE
360
10009
  0
DICTIONARY
  5
10016
330
10015
100
AcDbDictionary
280
     1
281
     1
  3
BUMPTILE
360
10018
  3
DIFFUSETILE
360
10017
  3
OPACITYTILE
360
1001B
  3
REFLECTIONTILE
360
1001A
  3
REFRACTIONTILE
360
1001C
  3
SPECULARTILE
360
10019
  0
DICTIONARY
  5
1007F
330
10050
100
AcDbDictionary
280
     1
281
     1
  3
ACAD_XREC_ROUNDTRIP
360
10080
  0
DICTIONARY
  5
10074
330
10039
100
AcDbDictionary
280
     1
281
     1
  3
ACAD_ROUNDTRIP_2008_TABLESTYLE_CELLSTYLEMAP
360
10075
  0
XRECORD
  5
10077
102
{ACAD_REACTORS
330
1007D
102
}
330
1007D
100
AcDbXrecord
280
     1
  1
AcDb_Thumbnail_Schema
102
{ATTRRECORD
341
10078
  2
AcDbDs::TreatedAsObjectData
280
     1
291
     1
102
ATTRRECORD}
102
{ATTRRECORD
341
10079
  2
AcDbDs::Legacy
280
     1
291
     1
102
ATTRRECORD}
  2
AcDbDs::ID
280
    10
 91
        8
102
{ATTRRECORD
341
1007A
  2
AcDs:Indexable
280
     1
291
     1
102
ATTRRECORD}
102
{ATTRRECORD
341
1007B
  2
AcDbDs::HandleAttribute
280
     7
282
     1
102
ATTRRECORD}
  2
Thumbnail_Data
280
    15
 91
        0
  0
XRECORD
  5
10078
102
{ACAD_REACTORS
330
1007D
102
}
330
1007D
100
AcDbXrecord
280
     1
  1
AcDbDs::TreatedAsObjectDataSchema
  2
AcDbDs::TreatedAsObjectData
280
     1
 91
        0
  0
XRECORD
  5
10079
102
{ACAD_REACTORS
330
1007D
102
}
330
1007D
100
AcDbXrecord
280
     1
  1
AcDbDs::LegacySchema
  2
AcDbDs::Legacy
280
     1
 91
        0
  0
XRECORD
  5
1007A
102
{ACAD_REACTORS
330
1007D
102
}
330
1007D
100
AcDbXrecord
280
     1
  1
AcDbDs::IndexedPropertySchema
  2
AcDs:Indexable
280
     1
 91
        0
  0
XRECORD
  5
1007B
102
{ACAD_REACTORS
330
1007D
102
}
330
1007D
100
AcDbXrecord
280
     1
  1
AcDbDs::HandleAttributeSchema
  2
AcDbDs::HandleAttribute
280
     7
 91
        1
284
     1
  0
XRECORD
  5
10082
102
{ACAD_REACTORS
330
10081
102
}
330
10081
100
AcDbXrecord
280
     1
102
DISPLAYNAME
  1
Imperial24
102
FLAGS
 90
        0
  0
XRECORD
  5
10010
102
{ACAD_REACTORS
330
1000E
102
}
330
1000E
100
AcDbXrecord
280
     1
270
     1
271
     1
  0
XRECORD
  5
1000F
102
{ACAD_REACTORS
330
1000E
102
}
330
1000E
100
AcDbXrecord
280
     1
270
     1
271
     1
  0
XRECORD
  5
10013
102
{ACAD_REACTORS
330
1000E
102
}
330
1000E
100
AcDbXrecord
280
     1
270
     1
271
     1
  0
XRECORD
  5
10012
102
{ACAD_REACTORS
330
1000E
102
}
330
1000E
100
AcDbXrecord
280
     1
270
     1
271
     1
  0
XRECORD
  5
10014
102
{ACAD_REACTORS
330
1000E
102
}
330
1000E
100
AcDbXrecord
280
     1
270
     1
271
     1
  0
XRECORD
  5
10011
102
{ACAD_REACTORS
330
1000E
102
}
330
1000E
100
AcDbXrecord
280
     1
270
     1
271
     1
  0
XRECORD
  5
10008
102
{ACAD_REACTORS
330
10006
102
}
330
10006
100
AcDbXrecord
280
     1
270
     1
271
     1
  0
XRECORD
  5
10007
102
{ACAD_REACTORS
330
10006
102
}
330
10006
100
AcDbXrecord
280
     1
270
     1
271
     1
  0
XRECORD
  5
1000B
102
{ACAD_REACTORS
330
10006
102
}
330
10006
100
AcDbXrecord
280
     1
270
     1
271
     1
  0
XRECORD
  5
1000A
102
{ACAD_REACTORS
330
10006
102
}
330
10006
100
AcDbXrecord
280
     1
270
     1
271
     1
  0
XRECORD
  5
1000C
102
{ACAD_REACTORS
330
10006
102
}
330
10006
100
AcDbXrecord
280
     1
270
     1
271
     1
  0
XRECORD
  5
10009
102
{ACAD_REACTORS
330
10006
102
}
330
10006
100
AcDbXrecord
280
     1
270
     1
271
     1
  0
XRECORD
  5
10018
102
{ACAD_REACTORS
330
10016
102
}
330
10016
100
AcDbXrecord
280
     1
270
     1
271
     1
  0
XRECORD
  5
10017
102
{ACAD_REACTORS
330
10016
102
}
330
10016
100
AcDbXrecord
280
     1
270
     1
271
     1
  0
XRECORD
  5
1001B
102
{ACAD_REACTORS
330
10016
102
}
330
10016
100
AcDbXrecord
280
     1
270
     1
271
     1
  0
XRECORD
  5
1001A
102
{ACAD_REACTORS
330
10016
102
}
330
10016
100
AcDbXrecord
280
     1
270
     1
271
     1
  0
XRECORD
  5
1001C
102
{ACAD_REACTORS
330
10016
102
}
330
10016
100
AcDbXrecord
280
     1
270
     1
271
     1
  0
XRECORD
  5
10019
102
{ACAD_REACTORS
330
10016
102
}
330
10016
100
AcDbXrecord
280
     1
270
     1
271
     1
  0
XRECORD
  5
10080
102
{ACAD_REACTORS
330
1007F
102
}
330
1007F
100
AcDbXrecord
280
     1
102
DISPLAYNAME
  1
Imperial24
102
FLAGS
 90
        0
  0
CELLSTYLEMAP
  5
10075
102
{ACAD_REACTORS
330
10074
102
}
330
10074
100
AcDbCellStyleMap
 90
        3
300
CELLSTYLE
  1
TABLEFORMAT_BEGIN
 90
        5
170
     1
 91
        0
 92
    32768
 62
   257
 93
        1
300
CONTENTFORMAT
  1
CONTENTFORMAT_BEGIN
 90
        0
 91
        0
 92
      512
 93
        0
300

 40
0.0
140
1.0
 94
        5
 62
     0
340
11
144
0.25
309
CONTENTFORMAT_END
171
     0
 94
        0
309
TABLEFORMAT_END
  1
CELLSTYLE_BEGIN
 90
        1
 91
        1
300
_TITLE
309
CELLSTYLE_END
300
CELLSTYLE
  1
TABLEFORMAT_BEGIN
 90
        5
170
     1
 91
        0
 92
        0
 62
   257
 93
        1
300
CONTENTFORMAT
  1
CONTENTFORMAT_BEGIN
 90
        0
 91
        0
 92
      512
 93
        0
300

 40
0.0
140
1.0
 94
        5
 62
     0
340
11
144
0.18
309
CONTENTFORMAT_END
171
     0
 94
        0
309
TABLEFORMAT_END
  1
CELLSTYLE_BEGIN
 90
        2
 91
        1
300
_HEADER
309
CELLSTYLE_END
300
CELLSTYLE
  1
TABLEFORMAT_BEGIN
 90
        5
170
     1
 91
        0
 92
        0
 62
   257
 93
        1
300
CONTENTFORMAT
  1
CONTENTFORMAT_BEGIN
 90
        0
 91
        0
 92
      512
 93
        0
300

 40
0.0
140
1.0
 94
        2
 62
     0
340
11
144
0.18
309
CONTENTFORMAT_END
171
     0
 94
        0
309
TABLEFORMAT_END
  1
CELLSTYLE_BEGIN
 90
        3
 91
        2
300
_DATA
309
CELLSTYLE_END
  0
ENDSEC
  0
SECTION
  2
ACDSDATA
 70
     2
 71
     8
  0
ACDSSCHEMA
 90
        0
  1
AcDb_Thumbnail_Schema
  2
AcDbDs::ID
280
    10
 91
        8
  2
Thumbnail_Data
280
    15
 91
        0
101
ACDSRECORD
 95
        0
 90
        1
  2
AcDbDs::TreatedAsObjectData
280
     1
291
     1
101
ACDSRECORD
 95
        0
 90
        2
  2
AcDbDs::Legacy
280
     1
291
     1
101
ACDSRECORD
  1
AcDbDs::ID
 90
        3
  2
AcDs:Indexable
280
     1
291
     1
101
ACDSRECORD
  1
AcDbDs::ID
 90
        4
  2
AcDbDs::HandleAttribute
280
     7
282
     1
  0
ACDSSCHEMA
 90
        1
  1
AcDbDs::TreatedAsObjectDataSchema
  2
AcDbDs::TreatedAsObjectData
280
     1
 91
        0
  0
ACDSSCHEMA
 90
        2
  1
AcDbDs::LegacySchema
  2
AcDbDs::Legacy
280
     1
 91
        0
  0
ACDSSCHEMA
 90
        3
  1
AcDbDs::IndexedPropertySchema
  2
AcDs:Indexable
280
     1
 91
        0
  0
ACDSSCHEMA
 90
        4
  1
AcDbDs::HandleAttributeSchema
  2
AcDbDs::HandleAttribute
280
     7
 91
        1
284
     1
  0
ACDSRECORD
 90
        0
  2
AcDbDs::ID
280
    10
320
10055
  2
Thumbnail_Data
280
    15
 94
     1502
310
89504E470D0A1A0A0000000D4948445200000100000000A90803000000F3C813C600000300504C5445212830FFFFFF2128300000000000000000000000000000000000000000000000000000330000660000990000CC0000FF0033000033330033660033990033CC0033FF0066000066330066660066990066CC0066FF0099
310
000099330099660099990099CC0099FF00CC0000CC3300CC6600CC9900CCCC00CCFF00FF0000FF3300FF6600FF9900FFCC00FFFF3300003300333300663300993300CC3300FF3333003333333333663333993333CC3333FF3366003366333366663366993366CC3366FF3399003399333399663399993399CC3399FF33CC00
310
33CC3333CC6633CC9933CCCC33CCFF33FF0033FF3333FF6633FF9933FFCC33FFFF6600006600336600666600996600CC6600FF6633006633336633666633996633CC6633FF6666006666336666666666996666CC6666FF6699006699336699666699996699CC6699FF66CC0066CC3366CC6666CC9966CCCC66CCFF66FF0066
310
FF3366FF6666FF9966FFCC66FFFF9900009900339900669900999900CC9900FF9933009933339933669933999933CC9933FF9966009966339966669966999966CC9966FF9999009999339999669999999999CC9999FF99CC0099CC3399CC6699CC9999CCCC99CCFF99FF0099FF3399FF6699FF9999FFCC99FFFFCC0000CC00
310
33CC0066CC0099CC00CCCC00FFCC3300CC3333CC3366CC3399CC33CCCC33FFCC6600CC6633CC6666CC6699CC66CCCC66FFCC9900CC9933CC9966CC9999CC99CCCC99FFCCCC00CCCC33CCCC66CCCC99CCCCCCCCCCFFCCFF00CCFF33CCFF66CCFF99CCFFCCCCFFFFFF0000FF0033FF0066FF0099FF00CCFF00FFFF3300FF3333
310
FF3366FF3399FF33CCFF33FFFF6600FF6633FF6666FF6699FF66CCFF66FFFF9900FF9933FF9966FF9999FF99CCFF99FFFFCC00FFCC33FFCC66FFCC99FFCCCCFFCCFFFFFF00FFFF33FFFF66FFFF99FFFFCCFFFFFF0000000D0D0D1A1A1A2828283535354343435050505D5D5D6B6B6B787878868686939393A1A1A1AEAEAEBB
310
BBBBC9C9C9D6D6D6E4E4E4F1F1F1FFFFFF0000000000000000000000000000000000000000000000000000000000002E4550F1000002994944415478DAED9BCB62E3200C45F9FFFFBDFB59A48379835D2C68386753D549805CCB922C07E7000000000000000000000000000000000000000000000000000000C0390D71EF73
310
F366B110E0D191F498EEBD7D7C9A25DFFFFE62D553E0E9340BBEFFD8B1CEFF9A34CDFB57FEE35031F3DDBF59D7CC33BF53643698E1D2DA5B1AB2DC7DAB3970C94D4C04F053298D4A4D2BFCC0A8D51A38FFD2D2A902049E8100E70AE074F225F09308CF104061B00FFE371360AB3498B8C411855014EB92B8278BD983C9D6CB
310
A1DE7DD2DB5D00F796F7B7070E5712ADCAC403548847D3E35F7B607FEE7FC432F580AD04F8FC3D5980E33D4078C02A0F5025FEAC8B015659204A4B2BD36020C055171A16428BEA427F9E35D8589F5E79C595F8E40A7F7490CBDDAD3D20BA150BA240141C524BFE73D7DD4BD152DF52E1A45BC680CABD68279685420509AC65
310
35074EAE49CB2CF04C80D9ED83A2079C29001EF0373CE09D18F0490B2B05589105F2A2CC3C0BEC5207E40D912FEF096A87E5D54EC28C366F7F10D7733DE318105D8B154B9F4EBABFD4072C05D6355C1C2B558CB45A23C09D043064B9D00A2BFE4A2B6259161812605A0980000880009B08A0F851CC9D4266561AAC96477675
310
40548D16DFF8F8D9A12A354DB71967D815D67FD7BBAAFD681DA33F0B6CF75D772C54358C53E1775BCA3BCB85D78B33652B585409761F8C385FFA15F572E9FD74ED75B9F2EF009A31733F01D2339C0B507B3D16C0C97D85002E13A0DADFF94E01749C00E993A4732E01F93BBC2C963F09823B09708BDE188534D8196AA73498
310
D4EA91636BA42E51B3127CF0D8D3CE035E7399DD778CB4A42E1ED3EC5916EF196A4CF9C6762E6DBB6BCC6C43DFB6FB068DF6746EBC731400000000000000000000000000000000000000000000000000006037FE017D832A58E85A36E30000000049454E44AE426082
  0
ENDSEC
  0
EOF
