  0
SECTION
  2
HEADER
  9
$ACADVER
  1
AC1027
  9
$ACADMAINTVER
 70
   125
  9
$DWGCODEPAGE
  3
ANSI_949
  9
$LASTSAVEDBY
  1
junkibeom
  9
$REQUIREDVERSIONS
160
                 0
  9
$INSBASE
 10
0.0
 20
0.0
 30
0.0
  9
$EXTMIN
 10
-152.8511471623892
 20
-55.44665171527001
 30
0.0
  9
$EXTMAX
 10
152.8989107796091
 20
55.46826426018365
 30
0.0
  9
$LIMMIN
 10
0.0
 20
0.0
  9
$LIMMAX
 10
12.0
 20
9.0
  9
$ORTHOMODE
 70
     0
  9
$REGENMODE
 70
     1
  9
$FILLMODE
 70
     1
  9
$QTEXTMODE
 70
     0
  9
$MIRRTEXT
 70
     0
  9
$LTSCALE
 40
1.0
  9
$ATTMODE
 70
     1
  9
$TEXTSIZE
 40
0.2
  9
$TRACEWID
 40
0.05
  9
$TEXTSTYLE
  7
STANDARD
  9
$CLAYER
  8
0
  9
$CELTYPE
  6
Continuous
  9
$CECOLOR
 62
   256
  9
$CELTSCALE
 40
1.0
  9
$DISPSILH
 70
     0
  9
$DIMSCALE
 40
1.0
  9
$DIMASZ
 40
0.18
  9
$DIMEXO
 40
0.0625
  9
$DIMDLI
 40
0.38
  9
$DIMRND
 40
0.0
  9
$DIMDLE
 40
0.0
  9
$DIMEXE
 40
0.18
  9
$DIMTP
 40
0.0
  9
$DIMTM
 40
0.0
  9
$DIMTXT
 40
0.18
  9
$DIMCEN
 40
0.09
  9
$DIMTSZ
 40
0.0
  9
$DIMTOL
 70
     0
  9
$DIMLIM
 70
     0
  9
$DIMTIH
 70
     1
  9
$DIMTOH
 70
     1
  9
$DIMSE1
 70
     0
  9
$DIMSE2
 70
     0
  9
$DIMTAD
 70
     0
  9
$DIMZIN
 70
     0
  9
$DIMBLK
  1

  9
$DIMASO
 70
     1
  9
$DIMSHO
 70
     1
  9
$DIMPOST
  1

  9
$DIMAPOST
  1

  9
$DIMALT
 70
     0
  9
$DIMALTD
 70
     2
  9
$DIMALTF
 40
25.4
  9
$DIMLFAC
 40
1.0
  9
$DIMTOFL
 70
     0
  9
$DIMTVP
 40
0.0
  9
$DIMTIX
 70
     0
  9
$DIMSOXD
 70
     0
  9
$DIMSAH
 70
     0
  9
$DIMBLK1
  1

  9
$DIMBLK2
  1

  9
$DIMSTYLE
  2
Standard
  9
$DIMCLRD
 70
     0
  9
$DIMCLRE
 70
     0
  9
$DIMCLRT
 70
     0
  9
$DIMTFAC
 40
1.0
  9
$DIMGAP
 40
0.09
  9
$DIMJUST
 70
     0
  9
$DIMSD1
 70
     0
  9
$DIMSD2
 70
     0
  9
$DIMTOLJ
 70
     1
  9
$DIMTZIN
 70
     0
  9
$DIMALTZ
 70
     0
  9
$DIMALTTZ
 70
     0
  9
$DIMUPT
 70
     0
  9
$DIMDEC
 70
     4
  9
$DIMTDEC
 70
     4
  9
$DIMALTU
 70
     2
  9
$DIMALTTD
 70
     2
  9
$DIMTXSTY
  7
STANDARD
  9
$DIMAUNIT
 70
     0
  9
$DIMADEC
 70
     0
  9
$DIMALTRND
 40
0.0
  9
$DIMAZIN
 70
     0
  9
$DIMDSEP
 70
    46
  9
$DIMATFIT
 70
     3
  9
$DIMFRAC
 70
     0
  9
$DIMLDRBLK
  1

  9
$DIMLUNIT
 70
     2
  9
$DIMLWD
 70
    -2
  9
$DIMLWE
 70
    -2
  9
$DIMTMOVE
 70
     0
  9
$DIMFXL
 40
1.0
  9
$DIMFXLON
 70
     0
  9
$DIMJOGANG
 40
0.7853981633974483
  9
$DIMTFILL
 70
     0
  9
$DIMTFILLCLR
 70
     0
  9
$DIMARCSYM
 70
     0
  9
$DIMLTYPE
  6

  9
$DIMLTEX1
  6

  9
$DIMLTEX2
  6

  9
$DIMTXTDIRECTION
 70
     0
  9
$LUNITS
 70
     2
  9
$LUPREC
 70
     4
  9
$SKETCHINC
 40
0.1
  9
$FILLETRAD
 40
0.0
  9
$AUNITS
 70
     0
  9
$AUPREC
 70
     0
  9
$MENU
  1
.
  9
$ELEVATION
 40
0.0
  9
$PELEVATION
 40
0.0
  9
$THICKNESS
 40
0.0
  9
$LIMCHECK
 70
     0
  9
$CHAMFERA
 40
0.0
  9
$CHAMFERB
 40
0.0
  9
$CHAMFERC
 40
0.0
  9
$CHAMFERD
 40
0.0
  9
$SKPOLY
 70
     0
  9
$TDCREATE
 40
2461033.071805556
  9
$TDUCREATE
 40
2461032.696805555
  9
$TDUPDATE
 40
2461033.071921296
  9
$TDUUPDATE
 40
2461032.696921297
  9
$TDINDWG
 40
0.0001157407
  9
$TDUSRTIMER
 40
0.0001157407
  9
$USRTIMER
 70
     1
  9
$ANGBASE
 50
0.0
  9
$ANGDIR
 70
     0
  9
$PDMODE
 70
     0
  9
$PDSIZE
 40
0.0
  9
$PLINEWID
 40
0.0
  9
$SPLFRAME
 70
     0
  9
$SPLINETYPE
 70
     6
  9
$SPLINESEGS
 70
     8
  9
$HANDSEED
  5
10083
  9
$SURFTAB1
 70
     6
  9
$SURFTAB2
 70
     6
  9
$SURFTYPE
 70
     6
  9
$SURFU
 70
     6
  9
$SURFV
 70
     6
  9
$UCSBASE
  2

  9
$UCSNAME
  2

  9
$UCSORG
 10
0.0
 20
0.0
 30
0.0
  9
$UCSXDIR
 10
1.0
 20
0.0
 30
0.0
  9
$UCSYDIR
 10
0.0
 20
1.0
 30
0.0
  9
$UCSORTHOREF
  2

  9
$UCSORTHOVIEW
 70
     0
  9
$UCSORGTOP
 10
0.0
 20
0.0
 30
0.0
  9
$UCSORGBOTTOM
 10
0.0
 20
0.0
 30
0.0
  9
$UCSORGLEFT
 10
0.0
 20
0.0
 30
0.0
  9
$UCSORGRIGHT
 10
0.0
 20
0.0
 30
0.0
  9
$UCSORGFRONT
 10
0.0
 20
0.0
 30
0.0
  9
$UCSORGBACK
 10
0.0
 20
0.0
 30
0.0
  9
$PUCSBASE
  2

  9
$PUCSNAME
  2

  9
$PUCSORG
 10
0.0
 20
0.0
 30
0.0
  9
$PUCSXDIR
 10
1.0
 20
0.0
 30
0.0
  9
$PUCSYDIR
 10
0.0
 20
1.0
 30
0.0
  9
$PUCSORTHOREF
  2

  9
$PUCSORTHOVIEW
 70
     0
  9
$PUCSORGTOP
 10
0.0
 20
0.0
 30
0.0
  9
$PUCSORGBOTTOM
 10
0.0
 20
0.0
 30
0.0
  9
$PUCSORGLEFT
 10
0.0
 20
0.0
 30
0.0
  9
$PUCSORGRIGHT
 10
0.0
 20
0.0
 30
0.0
  9
$PUCSORGFRONT
 10
0.0
 20
0.0
 30
0.0
  9
$PUCSORGBACK
 10
0.0
 20
0.0
 30
0.0
  9
$USERI1
 70
     0
  9
$USERI2
 70
     0
  9
$USERI3
 70
     0
  9
$USERI4
 70
     0
  9
$USERI5
 70
     0
  9
$USERR1
 40
0.0
  9
$USERR2
 40
0.0
  9
$USERR3
 40
0.0
  9
$USERR4
 40
0.0
  9
$USERR5
 40
0.0
  9
$WORLDVIEW
 70
     1
  9
$SHADEDGE
 70
     3
  9
$SHADEDIF
 70
    70
  9
$TILEMODE
 70
     1
  9
$MAXACTVP
 70
    64
  9
$PINSBASE
 10
0.0
 20
0.0
 30
0.0
  9
$PLIMCHECK
 70
     0
  9
$PEXTMIN
 10
1.000000000000000E+20
 20
1.000000000000000E+20
 30
1.000000000000000E+20
  9
$PEXTMAX
 10
-1.000000000000000E+20
 20
-1.000000000000000E+20
 30
-1.000000000000000E+20
  9
$PLIMMIN
 10
0.0
 20
0.0
  9
$PLIMMAX
 10
12.0
 20
9.0
  9
$UNITMODE
 70
     0
  9
$VISRETAIN
 70
     1
  9
$PLINEGEN
 70
     0
  9
$PSLTSCALE
 70
     1
  9
$TREEDEPTH
 70
  3020
  9
$CMLSTYLE
  2
Standard
  9
$CMLJUST
 70
     0
  9
$CMLSCALE
 40
1.0
  9
$PROXYGRAPHICS
 70
     1
  9
$MEASUREMENT
 70
     0
  9
$CELWEIGHT
370
    -1
  9
$ENDCAPS
280
     0
  9
$JOINSTYLE
280
     0
  9
$LWDISPLAY
290
     0
  9
$INSUNITS
 70
     4
  9
$HYPERLINKBASE
  1

  9
$STYLESHEET
  1

  9
$XEDIT
290
     1
  9
$CEPSNTYPE
380
     0
  9
$PSTYLEMODE
290
     1
  9
$FINGERPRINTGUID
  2
{543CB925-5075-884F-8800-748758713DB2}
  9
$VERSIONGUID
  2
{4CAE4F31-E08C-AD4C-8EAA-A088BCFEBADB}
  9
$EXTNAMES
290
     1
  9
$PSVPSCALE
 40
0.0
  9
$OLESTARTUP
290
     0
  9
$SORTENTS
280
   127
  9
$INDEXCTL
280
     0
  9
$HIDETEXT
280
     0
  9
$XCLIPFRAME
280
     2
  9
$HALOGAP
280
     0
  9
$OBSCOLOR
 70
   257
  9
$OBSLTYPE
280
     0
  9
$INTERSECTIONDISPLAY
280
     0
  9
$INTERSECTIONCOLOR
 70
   257
  9
$DIMASSOC
280
     1
  9
$PROJECTNAME
  1

  9
$CAMERADISPLAY
290
     0
  9
$LENSLENGTH
 40
50.0
  9
$CAMERAHEIGHT
 40
0.0
  9
$STEPSPERSEC
 40
2.0
  9
$STEPSIZE
 40
6.0
  9
$3DDWFPREC
 40
2.0
  9
$PSOLWIDTH
 40
0.25
  9
$PSOLHEIGHT
 40
4.0
  9
$LOFTANG1
 40
1.570796326794896
  9
$LOFTANG2
 40
1.570796326794896
  9
$LOFTMAG1
 40
0.0
  9
$LOFTMAG2
 40
0.0
  9
$LOFTPARAM
 70
     7
  9
$LOFTNORMALS
280
     1
  9
$LATITUDE
 40
37.795
  9
$LONGITUDE
 40
-122.394
  9
$NORTHDIRECTION
 40
0.0
  9
$TIMEZONE
 70
 -8000
  9
$LIGHTGLYPHDISPLAY
280
     1
  9
$TILEMODELIGHTSYNCH
280
     1
  9
$CMATERIAL
347
10005
  9
$SOLIDHIST
280
     0
  9
$SHOWHIST
280
     1
  9
$DWFFRAME
280
     2
  9
$DGNFRAME
280
     0
  9
$REALWORLDSCALE
290
     1
  9
$INTERFERECOLOR
 62
     1
  9
$INTERFEREOBJVS
345
10027
  9
$INTERFEREVPVS
346
10024
  9
$CSHADOW
280
     0
  9
$SHADOWPLANELOCATION
 40
0.0
  0
ENDSEC
  0
SECTION
  2
CLASSES
  0
CLASS
  1
ACDBDICTIONARYWDFLT
  2
AcDbDictionaryWithDefault
  3
ObjectDBX Classes
 90
        0
 91
        1
280
     0
281
     0
  0
CLASS
  1
MATERIAL
  2
AcDbMaterial
  3
ObjectDBX Classes
 90
     1153
 91
        3
280
     0
281
     0
  0
CLASS
  1
VISUALSTYLE
  2
AcDbVisualStyle
  3
ObjectDBX Classes
 90
     4095
 91
       24
280
     0
281
     0
  0
CLASS
  1
TABLESTYLE
  2
AcDbTableStyle
  3
ObjectDBX Classes
 90
     4095
 91
        1
280
     0
281
     0
  0
CLASS
  1
SCALE
  2
AcDbScale
  3
ObjectDBX Classes
 90
     1153
 91
       17
280
     0
281
     0
  0
CLASS
  1
MLEADERSTYLE
  2
AcDbMLeaderStyle
  3
ACDB_MLEADERSTYLE_CLASS
 90
     4095
 91
        1
280
     0
281
     0
  0
CLASS
  1
ACDBSECTIONVIEWSTYLE
  2
AcDbSectionViewStyle
  3
ObjectDBX Classes
 90
     1025
 91
        1
280
     0
281
     0
  0
CLASS
  1
ACDBDETAILVIEWSTYLE
  2
AcDbDetailViewStyle
  3
ObjectDBX Classes
 90
     1025
 91
        1
280
     0
281
     0
  0
CLASS
  1
SOLID_BACKGROUND
  2
AcDbSolidBackground
  3
SCENEOE
 90
     4095
 91
        1
280
     0
281
     0
  0
CLASS
  1
NPOCOLLECTION
  2
AcDbImpNonPersistentObjectsCollection
  3
ObjectDBX Classes
 90
     1153
 91
        1
280
     0
281
     0
  0
CLASS
  1
DICTIONARYVAR
  2
AcDbDictionaryVar
  3
ObjectDBX Classes
 90
        0
 91
        9
280
     0
281
     0
  0
CLASS
  1
CELLSTYLEMAP
  2
AcDbCellStyleMap
  3
ObjectDBX Classes
 90
     1152
 91
        1
280
     0
281
     0
  0
ENDSEC
  0
SECTION
  2
TABLES
  0
TABLE
  2
VPORT
  5
8
330
0
100
AcDbSymbolTable
 70
     1
1001
ACAD
1000
DbSaveVer
1071
      316
  0
VPORT
  5
10059
330
8
100
AcDbSymbolTableRecord
100
AcDbViewportTableRecord
  2
*Active
 70
     0
 10
0.0
 20
0.0
 11
1.0
 21
1.0
 12
0.0
 22
0.0
 13
0.0
 23
0.0
 14
1.0
 24
1.0
 15
0.0
 25
0.0
 16
-0.0000000000001598
 26
0.0
 36
719.8116264003088
 17
0.0238800048828125
 27
0.0108070373535156
 37
0.0
 40
325.2463968046158
 41
1.509828009828009
 42
50.0
 43
0.0
 44
0.0
 50
0.0
 51
0.0
 71
     0
 72
  1000
 73
     1
 74
     3
 75
     0
 76
     0
 77
     0
 78
     0
281
     0
 65
     1
110
0.0
120
0.0
130
0.0
111
1.0
121
0.0
131
0.0
112
0.0
122
1.0
132
0.0
 79
     0
146
0.0
348
10023
 60
     3
 61
     5
292
     1
282
     1
141
0.0
142
0.0
 63
   250
421
  3355443
1001
ACAD_NAV_VCDISPLAY
1070
     3
  0
ENDTAB
  0
TABLE
  2
LTYPE
  5
5
330
0
100
AcDbSymbolTable
 70
     2
  0
LTYPE
  5
14
330
5
100
AcDbSymbolTableRecord
100
AcDbLinetypeTableRecord
  2
BYBLOCK
 70
     0
  3

 72
    65
 73
     0
 40
0.0
  0
LTYPE
  5
15
330
5
100
AcDbSymbolTableRecord
100
AcDbLinetypeTableRecord
  2
BYLAYER
 70
     0
  3

 72
    65
 73
     0
 40
0.0
  0
LTYPE
  5
10001
330
5
100
AcDbSymbolTableRecord
100
AcDbLinetypeTableRecord
  2
Continuous
 70
     0
  3
Solid line
 72
    65
 73
     0
 40
0.0
  0
LTYPE
  5
16
330
5
100
AcDbSymbolTableRecord
100
AcDbLinetypeTableRecord
  2
DASHED
 70
     0
  3
Dashed __ __ __ __ __ __ __ __ __ __ __ __ __ _
 72
    65
 73
     2
 40
0.75
 49
0.5
 74
     0
 49
-0.25
 74
     0
  0
ENDTAB
  0
TABLE
  2
LAYER
  5
2
102
{ACAD_XDICTIONARY
360
10064
102
}
330
0
100
AcDbSymbolTable
 70
     1
  0
LAYER
  5
50
102
{ACAD_XDICTIONARY
360
1005F
102
}
330
2
100
AcDbSymbolTableRecord
100
AcDbLayerTableRecord
  2
0
 70
     0
 62
     7
  6
Continuous
370
    -3
390
10003
347
10015
348
0
  0
ENDTAB
  0
TABLE
  2
STYLE
  5
3
330
0
100
AcDbSymbolTable
 70
     1
  0
STYLE
  5
11
330
3
100
AcDbSymbolTableRecord
100
AcDbTextStyleTableRecord
  2
STANDARD
 70
     0
 40
0.0
 41
1.0
 50
0.0
 71
     0
 42
0.2
  3

  4

  0
ENDTAB
  0
TABLE
  2
VIEW
  5
6
330
0
100
AcDbSymbolTable
 70
     1
  0
ENDTAB
  0
TABLE
  2
UCS
  5
7
330
0
100
AcDbSymbolTable
 70
     0
  0
ENDTAB
  0
TABLE
  2
APPID
  5
9
330
0
100
AcDbSymbolTable
 70
     2
  0
APPID
  5
12
330
9
100
AcDbSymbolTableRecord
100
AcDbRegAppTableRecord
  2
ACAD
 70
     0
  0
APPID
  5
10058
330
9
100
AcDbSymbolTableRecord
100
AcDbRegAppTableRecord
  2
ACAD_NAV_VCDISPLAY
 70
     0
  0
ENDTAB
  0
TABLE
  2
DIMSTYLE
  5
A
330
0
100
AcDbSymbolTable
 70
     1
100
AcDbDimStyleTable
 71
     0
  0
DIMSTYLE
105
10053
330
A
100
AcDbSymbolTableRecord
100
AcDbDimStyleTableRecord
  2
Standard
 70
     0
340
11
  0
ENDTAB
  0
TABLE
  2
BLOCK_RECORD
  5
1
330
0
100
AcDbSymbolTable
 70
     0
  0
BLOCK_RECORD
  5
1F
330
1
100
AcDbSymbolTableRecord
100
AcDbBlockTableRecord
  2
*MODEL_SPACE
340
10055
 70
     0
280
     1
281
     0
  0
BLOCK_RECORD
  5
1B
330
1
100
AcDbSymbolTableRecord
100
AcDbBlockTableRecord
  2
*PAPER_SPACE
340
10056
 70
     0
280
     1
281
     0
  0
ENDTAB
  0
ENDSEC
  0
SECTION
  2
BLOCKS
  0
BLOCK
  5
20
330
1F
100
AcDbEntity
  8
0
100
AcDbBlockBegin
  2
*MODEL_SPACE
 70
     0
 10
0.0
 20
0.0
 30
0.0
  3
*MODEL_SPACE
  1

  0
ENDBLK
  5
21
330
1F
100
AcDbEntity
  8
0
100
AcDbBlockEnd
  0
BLOCK
  5
1C
330
1B
100
AcDbEntity
 67
     1
  8
0
100
AcDbBlockBegin
  2
*PAPER_SPACE
 70
     0
 10
0.0
 20
0.0
 30
0.0
  3
*PAPER_SPACE
  1

  0
ENDBLK
  5
1D
330
1B
100
AcDbEntity
 67
     1
  8
0
100
AcDbBlockEnd
  0
ENDSEC
  0
SECTION
  2
ENTITIES
  0
LWPOLYLINE
  5
100
330
1F
100
AcDbEntity
  8
0
100
AcDbPolyline
 90
       48
 70
     1
 43
0.0
 10
152.8989107796091
 20
46.6043032175653
 42
0.4142135623732095
 10
150.8989107676703
 20
48.6043032295048
 10
141.3989107676071
 20
48.60430322950477
 42
-0.1989123673796645
 10
139.9846972052344
 20
49.19008966713152
 10
134.2923090498098
 20
54.8824778225566
 42
0.1989123673796993
 10
132.8780954874364
 20
55.46826426018365
 10
65.03494973692873
 20
55.46826426018309
 42
0.1989123673796899
 10
63.62073617455543
 20
54.8824778225559
 10
57.92834801913066
 20
49.19008966713096
 42
-0.198912367379658
 10
56.51413445675793
 20
48.60430322950421
 10
32.42969708878084
 20
48.60430322950396
 42
-0.198912367379658
 10
31.01548352640827
 20
49.19008966713064
 10
25.32309537098304
 20
54.88247782255574
 42
0.1989123673797024
 10
23.90888180860974
 20
55.46826426018288
 10
-23.8611181913902
 20
55.46826426018242
 42
0.1989123673796912
 10
-25.27533175376359
 20
54.88247782255524
 10
-30.96771990918848
 20
49.19008966713025
 42
-0.1989123673796629
 10
-32.38193347156123
 20
48.60430322950346
 10
-56.46637083953804
 20
48.60430322950328
 42
-0.1989123673796548
 10
-57.88058440191075
 20
49.19008966713001
 10
-63.57297255733573
 20
54.88247782255498
 42
0.1989123673796931
 10
-64.98718611970914
 20
55.46826426018203
 10
-132.8303318702166
 20
55.46826426018165
 42
0.1989123673796925
 10
-134.2445454325899
 20
54.88247782255444
 10
-139.936933588015
 20
49.19008966712931
 42
-0.1989123673796564
 10
-141.3511471503877
 20
48.6043032295026
 10
-150.8511471504505
 20
48.60430322950252
 42
0.4142135623732199
 10
-152.8511471623892
 20
46.60430321756296
 10
-152.8511471623517
 20
-46.58269068459209
 42
0.4142135623729728
 10
-150.8511471623517
 20
-48.58269068459123
 10
-141.3511471623512
 20
-48.58269068459112
 42
-0.1989123673796626
 10
-139.9369335999785
 20
-49.16847712221783
 10
-134.2445454445534
 20
-54.86086527764292
 42
0.1989123673796907
 10
-132.8303318821801
 20
-55.44665171527
 10
-64.98718613167262
 20
-55.44665171526947
 42
0.1989123673796988
 10
-63.57297256929932
 20
-54.86086527764234
 10
-57.38054185928382
 20
-48.66843456762673
 42
-0.1989013077076721
 10
-55.96641340699758
 20
-48.08264813181093
 10
56.01409191413043
 20
-48.07788279656236
 42
-0.1989234270984637
 10
57.42839058658954
 20
-48.66366923237817
 10
63.62073618651859
 20
-54.85601483230718
 42
0.1989123673797005
 10
65.03494974889193
 20
-55.44180126993433
 10
132.8780954993995
 20
-55.44180126993376
 42
0.1989123673796956
 10
134.2923090617728
 20
-54.85601483230666
 10
139.9846972171979
 20
-49.16362667688152
 42
-0.1989123673796548
 10
141.3989107795705
 20
-48.57784023925483
 10
150.8989107795716
 20
-48.57784023925479
 42
0.4142135623729806
 10
152.8989107795716
 20
-46.57784023925557
  0
LWPOLYLINE
  5
101
330
1F
100
AcDbEntity
  8
0
100
AcDbPolyline
 90
       10
 70
     1
 43
0.0
 10
-97.60875899496141
 20
51.60430322950294
 42
0.4142135623730951
 10
-96.10875899496143
 20
50.10430322950297
 10
-65.00190474547004
 20
50.10430322950324
 42
-1.0
 10
-65.00190474547004
 20
49.10430322950323
 10
-132.8156132444548
 20
49.10430322950268
 42
-1.0
 10
-132.8156132444548
 20
50.10430322950267
 10
-101.7087589949614
 20
50.10430322950294
 42
0.4142135623730951
 10
-100.2087589949614
 20
51.60430322950291
 10
-100.2087589949619
 20
52.60430322950258
 42
-1.0
 10
-97.60875899496191
 20
52.60430322950258
  0
LWPOLYLINE
  5
102
330
1F
100
AcDbEntity
  8
0
100
AcDbPolyline
 90
       10
 70
     1
 43
0.0
 10
96.1565226121835
 20
50.10430322950444
 42
0.414213562373102
 10
97.65652261218349
 20
51.60430322950446
 10
97.65652261218308
 20
52.60430322950244
 42
-1.0
 10
100.256522612183
 20
52.60430322950244
 10
100.2565226121835
 20
51.60430322950446
 42
0.4142135623730882
 10
101.7565226121835
 20
50.10430322950451
 10
132.8633768616753
 20
50.10430322950476
 42
-1.0
 10
132.8633768616753
 20
49.10430322950473
 10
65.04966836269057
 20
49.10430322950417
 42
-1.0
 10
65.04966836269057
 20
50.10430322950419
  0
LWPOLYLINE
  5
103
330
1F
100
AcDbEntity
  8
0
100
AcDbPolyline
 90
       10
 70
     1
 43
0.0
 10
-96.10875900692718
 20
-50.08269068459084
 42
0.4142135623730951
 10
-97.60875900692719
 20
-51.58269068459084
 10
-97.60875900692681
 20
-52.58269068459169
 42
-1.0
 10
-100.2087590069268
 20
-52.5826906845916
 10
-100.2087590069272
 20
-51.58269068459091
 42
0.4142135623730951
 10
-101.7087590069272
 20
-50.08269068459091
 10
-132.8156132564183
 20
-50.08269068459116
 42
-1.0
 10
-132.8156132564183
 20
-49.08269068459116
 10
-65.00190475743352
 20
-49.08269068459057
 42
-1.0
 10
-65.00190475743355
 20
-50.08269068459063
  0
LWPOLYLINE
  5
104
330
1F
100
AcDbEntity
  8
0
100
AcDbPolyline
 90
       10
 70
     1
 43
0.0
 10
1.323881808610535
 20
51.60430322950375
 42
0.4142135623730951
 10
2.823881808610521
 20
50.10430322950377
 10
23.89416318284888
 20
50.10430322950393
 42
-1.0
 10
23.89416318284888
 20
49.10430322950393
 10
-23.84639956562935
 20
49.10430322950354
 42
-1.0
 10
-23.84639956562935
 20
50.10430322950356
 10
-2.7761181913895
 20
50.10430322950375
 42
0.414213562373102
 10
-1.276118191389515
 20
51.60430322950375
 10
-1.276118191389941
 20
52.60430322950253
 42
-1.0
 10
1.323881808610038
 20
52.60430322950245
  0
LWPOLYLINE
  5
105
330
1F
100
AcDbEntity
  8
0
100
AcDbPolyline
 90
        8
 70
     1
 43
0.0
 10
69.42384979161392
 20
26.06081543538739
 10
83.02384979161356
 20
26.06081543538688
 42
-0.4142135623743437
 10
83.22384979161382
 20
25.86081543538735
 10
83.22384979161354
 20
12.26081543538803
 42
-0.4142135623760608
 10
83.02384979161372
 20
12.06081543538743
 10
69.42384979161457
 20
12.06081543538743
 42
-0.4142135623750202
 10
69.2238497916141
 20
12.26081543538792
 10
69.22384979161377
 20
25.86081543538724
 42
-0.4142135623730951
  0
LWPOLYLINE
  5
106
330
1F
100
AcDbEntity
  8
0
100
AcDbPolyline
 90
        8
 70
     1
 43
0.0
 10
-128.7048472493856
 20
6.810797107885536
 10
-128.7048472493856
 20
-6.789202874613861
 42
-0.4142135623740836
 10
-128.9048472493857
 20
-6.989202874614354
 10
-147.2698910233855
 20
-6.989202874614282
 42
-0.4142135623744738
 10
-147.4698910233858
 20
-6.789202874614002
 10
-147.469891023386
 20
6.81079710788536
 42
-0.4142135623730431
 10
-147.2698910233859
 20
7.010797107885462
 10
-128.9048472493862
 20
7.010797107885353
 42
-0.4142135623737194
  0
LWPOLYLINE
  5
107
330
1F
100
AcDbEntity
  8
0
100
AcDbPolyline
 90
       16
 70
     1
 43
0.0
 10
136.8910983152138
 20
26.06080321238798
 10
136.8989106946139
 20
26.06083373038755
 10
148.8989108426142
 20
26.06083372938778
 10
148.9067233040142
 20
26.06080321238809
 10
149.6988528326142
 20
26.06080321238916
 42
-0.4142135623700774
 10
149.8988528326142
 20
25.86080321238813
 10
149.8988528325747
 20
25.07160176824493
 42
-0.0026920614619679
 10
149.8989108096141
 20
25.060833756388
 10
149.8989107976005
 20
13.06083371338963
 42
-0.0026934256801053
 10
149.8988528326139
 20
13.0500656924878
 10
149.8988528326146
 20
12.26080321238717
 42
-0.4142135623713262
 10
149.6988528326137
 20
12.06080321238806
 10
136.098852837615
 20
12.06080321238905
 42
-0.4142135623759046
 10
135.8988528376142
 20
12.26080321238781
 10
135.8988528376132
 20
25.86080321238837
 42
-0.4142135623708058
 10
136.0988528376128
 20
26.0608032123884
  0
LWPOLYLINE
  5
108
330
1F
100
AcDbEntity
  8
0
100
AcDbPolyline
 90
       12
 70
     1
 43
0.0
 10
-7.264199058485978
 20
-6.022695656913511
 10
-7.264199058485411
 20
-6.789202874612811
 42
-0.4142135623730951
 10
-7.464199058485762
 20
-6.989202874613303
 10
-21.06419905848547
 20
-6.989202874613018
 42
-0.4142135623740316
 10
-21.26419905848547
 20
-6.789202874612951
 10
-21.26419905848579
 20
6.810797125386545
 42
-0.4142135623740316
 10
-21.06419905848586
 20
7.010797125386541
 10
-7.464199058486328
 20
7.010797125386681
 42
-0.4142135623737194
 10
-7.264199058485976
 20
6.810797125386614
 10
-7.264199058506653
 20
6.044289875643645
 42
-0.0083749533676449
 10
-7.263638018386053
 20
6.010797110386541
 10
-7.263637991430861
 20
-5.989202880585119
 42
-0.0083739709305744
  0
LWPOLYLINE
  5
109
330
1F
100
AcDbEntity
  8
0
100
AcDbPolyline
 90
       12
 70
     1
 43
0.0
 10
-59.16419905848575
 20
7.010797125386191
 42
0.4142135623734592
 10
-59.36419905848548
 20
6.810797125386194
 10
-59.36419905848602
 20
-6.78920287461419
 42
0.4142135623724187
 10
-59.16419905848575
 20
-6.989202874614008
 10
-45.56419905848586
 20
-6.98920287461369
 42
0.4142135623724187
 10
-45.3641990584856
 20
-6.789202874614084
 10
-45.36419905848585
 20
-6.022513012213964
 42
0.0083285692127694
 10
-45.36364410337
 20
-5.989202880650482
 10
-45.363644122386
 20
6.010797110386226
 42
0.0083292635196839
 10
-45.36419905849714
 20
6.044107231039396
 10
-45.36419905848578
 20
6.810797125386299
 42
0.4142135623737714
 10
-45.5641990584863
 20
7.01079712538633
  0
LWPOLYLINE
  5
110
330
1F
100
AcDbEntity
  8
0
100
AcDbPolyline
 90
       12
 70
     1
 43
0.0
 10
30.83636808461425
 20
6.010797110386857
 42
0.0084203879941586
 10
30.83580094149241
 20
6.044471498871248
 10
30.83580094151426
 20
6.810797125386965
 42
0.4142135623727309
 10
30.63580094151377
 20
7.010797125386996
 10
17.03580094151426
 20
7.010797125386855
 42
0.4142135623737194
 10
16.83580094151427
 20
6.810797125386861
 10
16.83580094151398
 20
-6.789202874613559
 42
0.4142135623724187
 10
17.03580094151426
 20
-6.989202874613377
 10
30.63580094151427
 20
-6.989202874613059
 42
0.4142135623722626
 10
30.83580094151443
 20
-6.789202874613454
 10
30.83580094151423
 20
-6.022877280113196
 42
0.0084190842459257
 10
30.83636812057581
 20
-5.989202880567571
  0
LWPOLYLINE
  5
111
330
1F
100
AcDbEntity
  8
0
100
AcDbPolyline
 90
       12
 70
     1
 43
0.0
 10
-106.7886441113859
 20
-12.03973135561432
 10
-106.0215234729348
 20
-12.03973135566095
 42
-0.0082215390967812
 10
-105.9886439843858
 20
-12.03919068361417
 10
-93.98864410640628
 20
-12.03919068563068
 42
-0.0082215749552555
 10
-93.95576477186544
 20
-12.03973135563958
 10
-93.18864411138612
 20
-12.03973135561398
 42
-0.4142135623744477
 10
-92.98864411138605
 20
-12.23973135561428
 10
-92.98864411138687
 20
-25.83973135561346
 42
-0.4142135623754883
 10
-93.18864411138612
 20
-26.0397313556142
 10
-106.7886441113859
 20
-26.03973135561433
 42
-0.4142135623727569
 10
-106.988644111386
 20
-25.83973135561432
 10
-106.9886441113858
 20
-12.23973135561439
 42
-0.4142135623737194
  0
LWPOLYLINE
  5
112
330
1F
100
AcDbEntity
  8
0
100
AcDbPolyline
 90
       12
 70
     1
 43
0.0
 10
-83.66419905848573
 20
-6.989202874614004
 10
-97.26419905848594
 20
-6.989202874614181
 42
-0.4142135623734592
 10
-97.4641990584859
 20
-6.789202874613616
 10
-97.46419905848572
 20
6.810797125385843
 42
-0.414213562373121
 10
-97.26419905848594
 20
7.010797125385839
 10
-83.66419905848573
 20
7.010797125386495
 42
-0.4142135623721065
 10
-83.46419905848575
 20
6.810797125385986
 10
-83.46419905844278
 20
6.044380795279927
 42
-0.0083976976684264
 10
-83.46363496738611
 20
6.010797110385948
 10
-83.46363496738392
 20
-5.989202860582081
 42
-0.0083977054300751
 10
-83.46419905848573
 20
-6.022786576514381
 10
-83.46419905848525
 20
-6.789202874614435
 42
-0.4142135623726268
  0
LWPOLYLINE
  5
113
330
1F
100
AcDbEntity
  8
0
100
AcDbPolyline
 90
       24
 70
     1
 43
0.0
 10
-122.5069012633996
 20
-27.03919067962842
 10
-122.5069013093857
 20
-26.03919068761447
 10
-139.382867847386
 20
-26.04177425961444
 10
-139.3828778753709
 20
-27.03919068262897
 42
-0.4142136106917086
 10
-140.3828778403708
 20
-28.03919068362964
 10
-145.3828778093857
 20
-28.03919067261455
 42
-0.4142135778295445
 10
-146.3828778253996
 20
-27.03919067962859
 10
-146.3828778253857
 20
-26.04126418531463
 10
-147.2927494430864
 20
-26.04126418531438
 42
-0.414213562373069
 10
-147.4927494430858
 20
-25.84126418531413
 10
-147.492749443086
 20
-12.23919066761445
 42
-0.414213562373121
 10
-147.292749443086
 20
-12.03919066761467
 10
-112.240109853986
 20
-12.03919068561435
 42
-0.4142135623740836
 10
-112.0401098539864
 20
-12.23919068561498
 10
-112.040109853986
 20
-12.9850675379142
 42
-0.0135382224042342
 10
-112.0386441223492
 20
-13.03919066061431
 10
-112.0386441093857
 20
-25.03919066561433
 42
-0.013537939191866
 10
-112.0401098539923
 20
-25.09331382926566
 10
-112.0401098539859
 20
-25.83919068561435
 42
-0.4142135623737714
 10
-112.2401098539864
 20
-26.03919068561415
 10
-115.5069012173859
 20
-26.03919069161434
 10
-115.5069012173859
 20
-27.03919068261448
 42
-0.4142135321900944
 10
-116.5069012963597
 20
-28.03919068363991
 10
-121.506901253386
 20
-28.03919067261444
 42
-0.4142135760720914
  0
LWPOLYLINE
  5
114
330
1F
100
AcDbEntity
  8
0
100
AcDbPolyline
 90
        8
 70
     1
 43
0.0
 10
-117.0011471673865
 20
31.11080321238516
 10
-130.601147162386
 20
31.11080321238573
 42
-0.4142135623749942
 10
-130.8011471623858
 20
31.31080321238619
 10
-130.8011471623865
 20
44.91080321238497
 42
-0.4142135623724447
 10
-130.6011471623865
 20
45.11080321238511
 10
-117.0011471673872
 20
45.11080321238488
 42
-0.4142135623744738
 10
-116.8011471673864
 20
44.9108032123851
 10
-116.8011471673867
 20
31.31080321238576
 42
-0.414213562374812
  0
LWPOLYLINE
  5
115
330
1F
100
AcDbEntity
  8
0
100
AcDbPolyline
 90
        8
 70
     1
 43
0.0
 10
-135.8511471673864
 20
44.91080321238493
 10
-135.8511471673864
 20
31.31080321238559
 42
-0.4142135623745257
 10
-136.0511471673865
 20
31.11080321238498
 10
-149.6511471623857
 20
31.11080321238548
 42
-0.4142135623744738
 10
-149.8511471623858
 20
31.31080321238605
 10
-149.8511471623865
 20
44.91080321238483
 42
-0.4142135623734072
 10
-149.6511471623864
 20
45.11080321238494
 10
-136.0511471673869
 20
45.11080321238511
 42
-0.4142135623738234
  0
LWPOLYLINE
  5
116
330
1F
100
AcDbEntity
  8
0
100
AcDbPolyline
 90
        8
 70
     1
 43
0.0
 10
-123.6103263388863
 20
-6.989184564614581
 10
-124.6103263388863
 20
-6.989184564614581
 42
-0.4142135623730744
 10
-125.1103263388863
 20
-6.489184564614752
 10
-125.1103263388863
 20
6.510815435385361
 42
-0.4142135623731368
 10
-124.6103263388863
 20
7.010815435385297
 10
-123.6103263388863
 20
7.010815435385315
 42
-0.4142135623731159
 10
-123.1103263388863
 20
6.510815435385361
 10
-123.1103263388863
 20
-6.489184564614752
 42
-0.4142135623730639
  0
LWPOLYLINE
  5
117
330
1F
100
AcDbEntity
  8
0
100
AcDbPolyline
 90
        8
 70
     1
 43
0.0
 10
-148.6915763388863
 20
25.56081543538538
 42
0.4142135623730951
 10
-149.1915763388863
 20
26.06081543538538
 10
-150.1915763388863
 20
26.06081543538538
 42
0.4142135623730951
 10
-150.6915763388863
 20
25.56081543538538
 10
-150.6915763388863
 20
12.56081543538519
 42
0.4142135623730951
 10
-150.1915763388863
 20
12.06081543538518
 10
-149.1915763388863
 20
12.06081543538518
 42
0.4142135623730951
 10
-148.6915763388863
 20
12.56081543538519
  0
LWPOLYLINE
  5
118
330
1F
100
AcDbEntity
  8
0
100
AcDbPolyline
 90
        8
 70
     1
 43
0.0
 10
-126.9915763388862
 20
26.06081543538556
 10
-125.9915763388862
 20
26.06081543538556
 42
-0.4142135623730951
 10
-125.4915763388862
 20
25.56081543538555
 10
-125.4915763388862
 20
12.56081543538537
 42
-0.4142135623730951
 10
-125.9915763388862
 20
12.06081543538536
 10
-126.9915763388862
 20
12.06081543538536
 42
-0.4142135623730951
 10
-127.4915763388862
 20
12.56081543538537
 10
-127.4915763388862
 20
25.56081543538555
 42
-0.4142135623730951
  0
LWPOLYLINE
  5
119
330
1F
100
AcDbEntity
  8
0
100
AcDbPolyline
 90
        8
 70
     1
 43
0.0
 10
85.55511803361218
 20
-12.03919068458914
 42
0.4142135623730951
 10
85.05511803361219
 20
-12.53919068458914
 10
85.05511803361219
 20
-25.53919068458915
 42
0.4142135623730951
 10
85.55511803361218
 20
-26.03919068458916
 10
86.55511803361223
 20
-26.03919068458916
 42
0.4142135623730951
 10
87.05511803361227
 20
-25.53919068458915
 10
87.05511803361227
 20
-12.53919068458914
 42
0.4142135623730951
 10
86.55511803361223
 20
-12.03919068458914
  0
LWPOLYLINE
  5
120
330
1F
100
AcDbEntity
  8
0
100
AcDbPolyline
 90
       12
 70
     1
 43
0.0
 10
87.98580094151414
 20
-6.022695656912599
 10
87.9858009415145
 20
-6.789202874613106
 42
-0.4142135623724187
 10
87.78580094151427
 20
-6.989202874612676
 10
74.1858009415142
 20
-6.989202874612674
 42
-0.4142135623726789
 10
73.98580094151402
 20
-6.789202874612216
 10
73.9858009415143
 20
6.81079712538728
 42
-0.4142135623731991
 10
74.18580094151422
 20
7.010797125387275
 10
87.78580094151372
 20
7.010797125387487
 42
-0.4142135623733553
 10
87.98580094151406
 20
6.81079712538742
 10
87.98580094153262
 20
6.044289875623139
 42
-0.0083749533780997
 10
87.98636198161393
 20
6.010797110387311
 10
87.98636200359796
 20
-5.989202880660014
 42
-0.0083741533790885
  0
LWPOLYLINE
  5
121
330
1F
100
AcDbEntity
  8
0
100
AcDbPolyline
 90
       12
 70
     1
 43
0.0
 10
-88.22615020838609
 20
25.06686402798612
 10
-88.22613191538586
 20
25.06081544138594
 10
-88.22613191538586
 20
13.06081547038585
 10
-88.22615020838609
 20
13.05476681078599
 10
-88.22615020838581
 20
12.26081543538623
 42
-0.4142135623738234
 10
-88.42615020838591
 20
12.06081543538606
 10
-102.0261502083856
 20
12.06081543538616
 42
-0.414213562374812
 10
-102.2261502083856
 20
12.26081543538652
 10
-102.2261502083861
 20
25.86081543538584
 42
-0.4142135623741096
 10
-102.0261502083856
 20
26.06081543538546
 10
-88.42615020838591
 20
26.06081543538612
 42
-0.4142135623741356
 10
-88.22615020838577
 20
25.86081543538556
  0
LWPOLYLINE
  5
122
330
1F
100
AcDbEntity
  8
0
100
AcDbPolyline
 90
        8
 70
     1
 43
0.0
 10
-63.92615020838593
 20
26.06081543538625
 10
-50.32615020838642
 20
26.06081543538604
 42
-0.4142135623744218
 10
-50.12615020838592
 20
25.86081543538624
 10
-50.12615020838614
 20
12.26081543538687
 42
-0.4142135623747861
 10
-50.32615020838593
 20
12.06081543538638
 10
-63.92615020838549
 20
12.060815435386
 42
-0.4142135623741096
 10
-64.126150208386
 20
12.26081543538652
 10
-64.12615020838595
 20
25.86081543538615
 42
-0.4142135623731991
  0
LWPOLYLINE
  5
123
330
1F
100
AcDbEntity
  8
0
100
AcDbPolyline
 90
       12
 70
     1
 43
0.0
 10
59.41135588861399
 20
-12.23973135561302
 42
0.4142135623744477
 10
59.211355888614
 20
-12.03973135561281
 10
58.44422912511025
 20
-12.03973135561527
 42
0.0082215799467405
 10
58.41134977059753
 20
-12.03919068560734
 10
46.41134985361417
 20
-12.03919068361284
 42
0.0082215243460066
 10
46.37847042410815
 20
-12.03973135564234
 10
45.611355888614
 20
-12.03973135561302
 42
0.4142135623737714
 10
45.41135588861417
 20
-12.23973135561316
 10
45.41135588861408
 20
-25.83973135561309
 42
0.4142135623736153
 10
45.61135588861464
 20
-26.03973135561309
 10
59.21135588861403
 20
-26.03973135561294
 42
0.4142135623764248
 10
59.41135588861293
 20
-25.83973135561178
  0
LWPOLYLINE
  5
124
330
1F
100
AcDbEntity
  8
0
100
AcDbPolyline
 90
       12
 70
     1
 43
0.0
 10
39.39424133209968
 20
-12.03973135560489
 10
40.16135588861395
 20
-12.03973135561309
 42
-0.4142135623743958
 10
40.36135588861399
 20
-12.23973135561324
 10
40.36135588861348
 20
-25.83973135561262
 42
-0.4142135623737714
 10
40.16135588861402
 20
-26.03973135561312
 10
26.56135588861407
 20
-26.03973135561322
 42
-0.4142135623727829
 10
26.36135588861407
 20
-25.83973135561323
 10
26.36135588861461
 20
-12.23973135561377
 42
-0.4142135623740316
 10
26.56135588861403
 20
-12.03973135561327
 10
27.32848263111546
 20
-12.03973135562561
 42
-0.0082215413514294
 10
27.36136212861407
 20
-12.03919068361312
 10
39.36136200058854
 20
-12.03919068559698
 42
-0.0082215742007889
  0
LWPOLYLINE
  5
125
330
1F
100
AcDbEntity
  8
0
100
AcDbPolyline
 90
       12
 70
     1
 43
0.0
 10
-68.888644111386
 20
-25.83973135561401
 42
0.4142135623724187
 10
-68.68864411138618
 20
-26.03973135561429
 10
-55.08864411138592
 20
-26.03973135561392
 42
0.4142135623751241
 10
-54.88864411138657
 20
-25.83973135561322
 10
-54.888644111386
 20
-12.23973135561397
 42
0.4142135623750461
 10
-55.08864411138597
 20
-12.0397313556139
 10
-55.85575866787167
 20
-12.03973135559443
 42
0.0082214863550352
 10
-55.88863794540492
 20
-12.03919068358555
 10
-67.88863815938582
 20
-12.03919068361378
 42
0.0082214693447796
 10
-67.92151736891674
 20
-12.03973135566928
 10
-68.68864411138615
 20
-12.039731355614
 42
0.4142135623756965
 10
-68.88864411138543
 20
-12.23973135561471
  0
LWPOLYLINE
  5
126
330
1F
100
AcDbEntity
  8
0
100
AcDbPolyline
 90
       16
 70
     1
 43
0.0
 10
-16.78863192738593
 20
-25.03919066561355
 10
-16.78864411138609
 20
-25.0441294945135
 10
-16.78864411138697
 20
-25.83973135561283
 42
-0.4142135623758005
 10
-16.98864411138608
 20
-26.03973135561358
 10
-30.58864411138592
 20
-26.03973135561375
 42
-0.4142135623737455
 10
-30.78864411138597
 20
-25.83973135561372
 10
-30.78864411138573
 20
-12.23973135561418
 42
-0.4142135623738755
 10
-30.58864411138591
 20
-12.03973135561362
 10
-29.82151126590427
 20
-12.03973135558482
 42
-0.0082214760961795
 10
-29.78863202938577
 20
-12.03919068361354
 10
-17.78863188238254
 20
-12.0391906856039
 42
-0.0082215706893743
 10
-17.755752564886
 20
-12.03973135561359
 10
-16.9886441113865
 20
-12.03973135561405
 42
-0.4142135623743958
 10
-16.78864411138644
 20
-12.23973135561408
 10
-16.78864411138609
 20
-13.03425187271358
 10
-16.78863191538585
 20
-13.03919066061368
  0
LWPOLYLINE
  5
127
330
1F
100
AcDbEntity
  8
0
100
AcDbPolyline
 90
       12
 70
     1
 43
0.0
 10
-35.83864411138601
 20
-12.23973135561383
 42
0.4142135623737455
 10
-36.03864411138599
 20
-12.03973135561352
 10
-36.80577087485785
 20
-12.03973135561284
 42
0.0082215784456753
 10
-36.83865022338979
 20
-12.03919068560423
 10
-48.83865013038581
 20
-12.03919068361368
 42
0.0082215283474375
 10
-48.87152957591936
 20
-12.03973135558086
 10
-49.63864411138593
 20
-12.0397313556139
 42
0.4142135623741876
 10
-49.83864411138549
 20
-12.23973135561436
 10
-49.83864411138597
 20
-25.83973135561385
 42
0.4142135623736153
 10
-49.63864411138546
 20
-26.03973135561378
 10
-36.03864411138594
 20
-26.03973135561375
 42
0.4142135623739536
 10
-35.83864411138684
 20
-25.83973135561305
  0
LWPOLYLINE
  5
128
330
1F
100
AcDbEntity
  8
0
100
AcDbPolyline
 90
       16
 70
     1
 43
0.0
 10
78.46136806761393
 20
-25.03919066561278
 10
78.46135588861393
 20
-25.04412949451273
 10
78.46135588861328
 20
-25.83973135561214
 42
-0.414213562374968
 10
78.26135588861404
 20
-26.03973135561284
 10
64.66135588861404
 20
-26.03973135561298
 42
-0.4142135623737194
 10
64.46135588861408
 20
-25.83973135561292
 10
64.46135588861444
 20
-12.23973135561341
 42
-0.4142135623737194
 10
64.66135588861394
 20
-12.03973135561292
 10
65.42848873412395
 20
-12.03973135566949
 42
-0.0082214720951798
 10
65.46136795461414
 20
-12.0391906836127
 10
77.46136811261012
 20
-12.03919068556575
 42
-0.0082215719377777
 10
77.4942474351138
 20
-12.03973135561274
 10
78.26135588861326
 20
-12.03973135561324
 42
-0.414213562374864
 10
78.46135588861347
 20
-12.23973135561331
 10
78.46135588861393
 20
-13.03425187271281
 10
78.46136808461415
 20
-13.03919066061291
  0
LWPOLYLINE
  5
129
330
1F
100
AcDbEntity
  8
0
100
AcDbPolyline
 90
       16
 70
     1
 43
0.0
 10
148.8989108426142
 20
-12.03917237361219
 10
148.905898470414
 20
-12.03919678761212
 10
149.6988528326134
 20
-12.03919678761297
 42
-0.4142135623754363
 10
149.898852832614
 20
-12.23919678761211
 10
149.8988528326429
 20
-13.02840433570236
 42
-0.0026920609863208
 10
149.8989108096144
 20
-13.03917234561231
 10
149.8989107976319
 20
-25.03917238963503
 42
-0.0026934259178573
 10
149.8988528326139
 20
-25.04994041151201
 10
149.8988528326129
 20
-25.83919678761111
 42
-0.4142135623764248
 10
149.6988528326137
 20
-26.03919678761203
 10
136.0988528376148
 20
-26.03919678761132
 42
-0.4142135623757486
 10
135.8988528376142
 20
-25.83919678761239
 10
135.8988528376137
 20
-12.23919678761221
 42
-0.4142135623724708
 10
136.0988528376136
 20
-12.03919678761194
 10
136.8919231488137
 20
-12.03919678761222
 10
136.8989106946139
 20
-12.03917237361229
  0
LWPOLYLINE
  5
130
330
1F
100
AcDbEntity
  8
0
100
AcDbPolyline
 90
        8
 70
     1
 43
0.0
 10
130.8488528326137
 20
-12.23919678761229
 42
0.4142135623738234
 10
130.6488528326136
 20
-12.03919678761194
 10
117.0488528376135
 20
-12.03919678761204
 42
0.4142135623724708
 10
116.848852837614
 20
-12.23919678761239
 10
116.8488528376154
 20
-25.83919678761121
 42
0.414213562376477
 10
117.0488528376152
 20
-26.03919678761128
 10
130.648852832614
 20
-26.03919678761221
 42
0.4142135623744477
 10
130.8488528326137
 20
-25.83919678761193
  0
LWPOLYLINE
  5
131
330
1F
100
AcDbEntity
  8
0
100
AcDbPolyline
 90
       12
 70
     1
 43
0.0
 10
-6.776150208385512
 20
26.06081543538651
 42
0.4142135623737714
 10
-6.976150208386148
 20
25.86081543538668
 10
-6.976150208385865
 20
12.26081543538726
 42
0.414213562374812
 10
-6.776150208385514
 20
12.0608154353868
 10
6.823849791614053
 20
12.06081543538683
 42
0.4142135623749161
 10
7.023849791614013
 20
12.2608154353874
 10
7.023849791613942
 20
13.05476681078676
 10
7.023868096614053
 20
13.06081543638669
 10
7.02386808461416
 20
25.0608154413867
 10
7.023849791613943
 20
25.06686402798689
 10
7.023849791614015
 20
25.86081543538636
 42
0.4142135623745519
 10
6.823849791614055
 20
26.06081543538689
  0
LWPOLYLINE
  5
132
330
1F
100
AcDbEntity
  8
0
100
AcDbPolyline
 90
       16
 70
     1
 43
0.0
 10
7.511355888613946
 20
-12.03973135561337
 10
8.278464320100022
 20
-12.03973135559804
 42
-0.0082215180959662
 10
8.31134372461406
 20
-12.03919068361327
 10
20.31134365860417
 20
-12.03919068563128
 42
-0.0082215819453055
 10
20.34422302111416
 20
-12.03973135561327
 10
21.11135588861369
 20
-12.03973135561384
 42
-0.4142135623737194
 10
21.31135588861391
 20
-12.23973135561334
 10
21.31135588861354
 20
-25.8397313556121
 42
-0.4142135623758526
 10
21.11135588861405
 20
-26.03973135561326
 10
7.511355888614335
 20
-26.03973135561336
 42
-0.4142135623734072
 10
7.31135588861395
 20
-25.83973135561333
 10
7.311355888613913
 20
-25.04413394661327
 10
7.311343670614182
 20
-25.03919063061335
 10
7.311343631613914
 20
-13.03919067561324
 10
7.311355888613914
 20
-13.03424742061335
 10
7.311355888614377
 20
-12.23973135561387
 42
-0.4142135623750721
  0
LWPOLYLINE
  5
133
330
1F
100
AcDbEntity
  8
0
100
AcDbPolyline
 90
       16
 70
     1
 43
0.0
 10
-87.9386563293858
 20
-25.03919063061416
 10
-87.9386563623859
 20
-13.03919067561405
 10
-87.93864411138605
 20
-13.03424742061415
 10
-87.9386441113858
 20
-12.23973135561428
 42
-0.4142135623737975
 10
-87.73864411138603
 20
-12.03973135561415
 10
-86.97153567992607
 20
-12.0397313556394
 42
-0.0082215220995909
 10
-86.93865625938581
 20
-12.03919068361392
 10
-74.93865633639555
 20
-12.03919068558686
 42
-0.0082215807004341
 10
-74.90577697888562
 20
-12.03973135561404
 10
-74.13864411138625
 20
-12.03973135561416
 42
-0.4142135623736933
 10
-73.93864411138608
 20
-12.23973135561411
 10
-73.93864411138629
 20
-25.83973135561354
 42
-0.4142135623741356
 10
-74.13864411138594
 20
-26.0397313556141
 10
-87.73864411138603
 20
-26.03973135561419
 42
-0.4142135623728089
 10
-87.93864411138601
 20
-25.83973135561456
 10
-87.93864411138605
 20
-25.04413394661408
  0
LWPOLYLINE
  5
134
330
1F
100
AcDbEntity
  8
0
100
AcDbPolyline
 90
        8
 70
     1
 43
0.0
 10
25.87384979161407
 20
12.060815435387
 10
12.27384979161435
 20
12.06081543538658
 42
-0.4142135623740836
 10
12.07384979161372
 20
12.26081543538704
 10
12.07384979161397
 20
25.86081543538683
 42
-0.4142135623738234
 10
12.27384979161379
 20
26.06081543538693
 10
25.87384979161349
 20
26.06081543538671
 42
-0.4142135623737714
 10
26.07384979161399
 20
25.8608154353869
 10
26.07384979161385
 20
12.26081543538757
 42
-0.414213562374864
  0
LWPOLYLINE
  5
135
330
1F
100
AcDbEntity
  8
0
100
AcDbPolyline
 90
        8
 70
     1
 43
0.0
 10
-111.7511471623852
 20
31.31080321238704
 10
-111.7511471623856
 20
44.91080321238583
 42
-0.4142135623734333
 10
-111.5511471623858
 20
45.11080321238583
 10
-97.95114716738627
 20
45.11080321238575
 42
-0.4142135623744218
 10
-97.75114716738578
 20
44.91080321238596
 10
-97.75114716738578
 20
31.3108032123864
 42
-0.4142135623734072
 10
-97.95114716738579
 20
31.11080321238591
 10
-111.5511471623851
 20
31.11080321238655
 42
-0.4142135623761127
  0
LWPOLYLINE
  5
136
330
1F
100
AcDbEntity
  8
0
100
AcDbPolyline
 90
       12
 70
     1
 43
0.0
 10
-54.60114716238572
 20
31.31080321238682
 10
-54.60114716238599
 20
44.91080321238632
 42
-0.4142135623740836
 10
-54.40114716238554
 20
45.1108032123863
 10
-40.80114716738604
 20
45.11080321238639
 42
-0.4142135623738755
 10
-40.60114716738624
 20
44.91080321238593
 10
-40.60114716738594
 20
44.11632623398622
 10
-40.60113191538582
 20
44.11080321138621
 10
-40.60113191538582
 20
32.11080324138643
 10
-40.60114716738594
 20
32.10528019078631
 10
-40.60114716738598
 20
31.31080321238695
 42
-0.4142135623741096
 10
-40.80114716738604
 20
31.11080321238646
 10
-54.40114716238554
 20
31.11080321238657
 42
-0.4142135623745779
  0
LWPOLYLINE
  5
137
330
1F
100
AcDbEntity
  8
0
100
AcDbPolyline
 90
        8
 70
     1
 43
0.0
 10
-35.351147162386
 20
45.11080321238644
 42
0.4142135623734072
 10
-35.55114716238578
 20
44.91080321238646
 10
-35.55114716238532
 20
31.31080321238773
 42
0.4142135623761387
 10
-35.35114716238533
 20
31.11080321238724
 10
-21.75114716738584
 20
31.11080321238664
 42
0.4142135623737194
 10
-21.55114716738601
 20
31.31080321238709
 10
-21.55114716738605
 20
44.91080321238658
 42
0.4142135623743437
 10
-21.75114716738633
 20
45.11080321238637
  0
LWPOLYLINE
  5
138
330
1F
100
AcDbEntity
  8
0
100
AcDbPolyline
 90
        8
 70
     1
 43
0.0
 10
59.89885283761402
 20
45.11080321238725
 10
73.49885283261366
 20
45.11080321238714
 42
-0.4142135623743437
 10
73.69885283261393
 20
44.91080321238736
 10
73.69885283261393
 20
31.31080321238787
 42
-0.4142135623737714
 10
73.49885283261414
 20
31.1108032123874
 10
59.89885283761453
 20
31.11080321238798
 42
-0.4142135623758526
 10
59.69885283761461
 20
31.31080321238844
 10
59.69885283761415
 20
44.91080321238727
 42
-0.4142135623732511
  0
LWPOLYLINE
  5
139
330
1F
100
AcDbEntity
  8
0
100
AcDbPolyline
 90
        8
 70
     1
 43
0.0
 10
21.59885283761445
 20
31.31080321238812
 10
21.5988528376143
 20
44.91080321238701
 42
-0.4142135623733032
 10
21.79885283761398
 20
45.11080321238698
 10
35.39885283261367
 20
45.11080321238678
 42
-0.4142135623743958
 10
35.59885283261409
 20
44.91080321238704
 10
35.59885283261412
 20
31.31080321238748
 42
-0.4142135623734592
 10
35.3988528326141
 20
31.11080321238699
 10
21.79885283761525
 20
31.11080321238741
 42
-0.414213562376477
  0
LWPOLYLINE
  5
140
330
1F
100
AcDbEntity
  8
0
100
AcDbPolyline
 90
       12
 70
     1
 43
0.0
 10
54.64886804361417
 20
32.11080322238714
 10
54.64885283261402
 20
32.10528019068711
 10
54.64885283261379
 20
31.31080321238772
 42
-0.4142135623737194
 10
54.44885283261397
 20
31.11080321238727
 10
40.84885283761453
 20
31.11080321238763
 42
-0.4142135623756965
 10
40.64885283761452
 20
31.31080321238826
 10
40.64885283761406
 20
44.91080321238704
 42
-0.4142135623740836
 10
40.84885283761414
 20
45.11080321238686
 10
54.44885283261397
 20
45.11080321238725
 42
-0.4142135623738234
 10
54.64885283261379
 20
44.91080321238672
 10
54.64885283261402
 20
44.11632623408692
 10
54.64886808461415
 20
44.110803211387
  0
LWPOLYLINE
  5
141
330
1F
100
AcDbEntity
  8
0
100
AcDbPolyline
 90
        8
 70
     1
 43
0.0
 10
-78.70114716738578
 20
44.9108032123861
 10
-78.70114716738621
 20
31.31080321238661
 42
-0.4142135623741356
 10
-78.90114716738604
 20
31.11080321238608
 10
-92.50114716238545
 20
31.11080321238676
 42
-0.4142135623756705
 10
-92.7011471623852
 20
31.31080321238718
 10
-92.70114716238596
 20
44.91080321238603
 42
-0.4142135623737975
 10
-92.50114716238575
 20
45.11080321238604
 10
-78.90114716738664
 20
45.11080321238594
 42
-0.4142135623745519
  0
LWPOLYLINE
  5
142
330
1F
100
AcDbEntity
  8
0
100
AcDbPolyline
 90
        8
 70
     1
 43
0.0
 10
-59.85114716738593
 20
31.11080321238633
 42
0.4142135623726009
 10
-59.65114716738598
 20
31.31080321238674
 10
-59.65114716738597
 20
44.91080321238632
 42
0.414213562373069
 10
-59.85114716738593
 20
45.1108032123861
 10
-73.45114716238599
 20
45.11080321238622
 42
0.4142135623733293
 10
-73.65114716238569
 20
44.91080321238626
 10
-73.65114716238534
 20
31.31080321238735
 42
0.4142135623757745
 10
-73.45114716238541
 20
31.11080321238687
  0
LWPOLYLINE
  5
143
330
1F
100
AcDbEntity
  8
0
100
AcDbPolyline
 90
       12
 70
     1
 43
0.0
 10
-11.53864411138596
 20
-12.03973135561348
 42
0.4142135623740836
 10
-11.7386441113856
 20
-12.23973135561401
 10
-11.73864411138603
 20
-25.83973135561351
 42
0.4142135623724187
 10
-11.53864411138596
 20
-26.03973135561333
 10
2.061355888613857
 20
-26.03973135561343
 42
0.4142135623757486
 10
2.261355888613036
 20
-25.83973135561223
 10
2.261355888613961
 20
-12.23973135561351
 42
0.4142135623744999
 10
2.061355888613859
 20
-12.03973135561323
 10
1.294235228128817
 20
-12.03973135558787
 42
0.00822149684558
 10
1.261355908609436
 20
-12.03919068357958
 10
-10.73864400038584
 20
-12.03919068361333
 42
0.0082215350892366
 10
-10.7715234729173
 20
-12.03973135559582
  0
LWPOLYLINE
  5
144
330
1F
100
AcDbEntity
  8
0
100
AcDbPolyline
 90
       12
 70
     1
 43
0.0
 10
64.17384979161404
 20
13.0558778235873
 10
64.17384979161401
 20
12.2608154353875
 42
-0.4142135623744477
 10
63.97384979161397
 20
12.06081543538732
 10
50.37384979161455
 20
12.06081543538736
 42
-0.4142135623738234
 10
50.17384979161406
 20
12.260815435387
 10
50.17384979161424
 20
25.86081543538664
 42
-0.4142135623741356
 10
50.37384979161406
 20
26.06081543538717
 10
63.97384979161355
 20
26.06081543538739
 42
-0.4142135623741876
 10
64.17384979161404
 20
25.86081543538679
 10
64.17384979161404
 20
25.06575301518732
 10
64.17386198161408
 20
25.06081544138719
 10
64.17386197961427
 20
13.06081543638718
  0
LWPOLYLINE
  5
145
330
1F
100
AcDbEntity
  8
0
100
AcDbPolyline
 90
        8
 70
     1
 43
0.0
 10
-82.97615020838604
 20
26.06081543538605
 42
0.414213562373017
 10
-83.17615020838591
 20
25.86081543538598
 10
-83.17615020838594
 20
12.26081543538666
 42
0.4142135623744999
 10
-82.97615020838604
 20
12.06081543538613
 10
-69.37615020838595
 20
12.0608154353862
 42
0.4142135623747861
 10
-69.17615020838614
 20
12.26081543538673
 10
-69.17615020838599
 20
25.86081543538612
 42
0.4142135623737714
 10
-69.37615020838649
 20
26.06081543538594
  0
LWPOLYLINE
  5
146
330
1F
100
AcDbEntity
  8
0
100
AcDbPolyline
 90
       12
 70
     1
 43
0.0
 10
68.93580094151406
 20
6.810797125387244
 42
0.4142135623727829
 10
68.73580094151407
 20
7.010797125387809
 10
55.13580094151414
 20
7.010797125387136
 42
0.4142135623737714
 10
54.93580094151418
 20
6.810797125387138
 10
54.93580094151393
 20
-6.78920287461328
 42
0.414213562372991
 10
55.13580094151468
 20
-6.989202874613098
 10
68.73580094151414
 20
-6.98920287461278
 42
0.4142135623723666
 10
68.93580094151463
 20
-6.789202874613211
 10
68.93580094151406
 20
-6.022144712112629
 42
0.0082371393636597
 10
68.93634367062805
 20
-5.989202860598341
 10
68.93634367061415
 20
6.010797110387243
 42
0.0082371316051569
 10
68.93580094151722
 20
6.043738930877494
  0
LWPOLYLINE
  5
147
330
1F
100
AcDbEntity
  8
0
100
AcDbPolyline
 90
        8
 70
     1
 43
0.0
 10
-121.276150208386
 20
12.26081543538592
 10
-121.276150208386
 20
25.86081543538566
 42
-0.414213562373173
 10
-121.076150208386
 20
26.06081543538581
 10
-107.4761502083865
 20
26.06081543538543
 42
-0.4142135623744738
 10
-107.276150208386
 20
25.86081543538581
 10
-107.2761502083865
 20
12.26081543538645
 42
-0.4142135623758266
 10
-107.476150208386
 20
12.06081543538592
 10
-121.0761502083855
 20
12.06081543538557
 42
-0.4142135623739015
  0
LWPOLYLINE
  5
148
330
1F
100
AcDbEntity
  8
0
100
AcDbPolyline
 90
       12
 70
     1
 43
0.0
 10
102.2738497916137
 20
25.06686402798769
 10
102.2738680846142
 20
25.0608154413875
 10
102.273868091614
 20
13.06081543638749
 10
102.2738497916137
 20
13.05476681078757
 10
102.2738497916137
 20
12.26081543538813
 42
-0.4142135623746039
 10
102.073849791614
 20
12.06081543538764
 10
88.4738497916143
 20
12.06081543538764
 42
-0.4142135623746559
 10
88.27384979161438
 20
12.26081543538806
 10
88.2738497916137
 20
25.86081543538742
 42
-0.4142135623741876
 10
88.4738497916143
 20
26.06081543538703
 10
102.073849791614
 20
26.06081543538766
 42
-0.4142135623743437
 10
102.2738497916137
 20
25.8608154353871
  0
LWPOLYLINE
  5
149
330
1F
100
AcDbEntity
  8
0
100
AcDbPolyline
 90
       12
 70
     1
 43
0.0
 10
-31.27615020838604
 20
12.06081543538656
 42
0.4142135623747599
 10
-31.07615020838648
 20
12.26081543538705
 10
-31.07615020838603
 20
13.05587782358654
 10
-31.07613801538582
 20
13.06081543638641
 10
-31.07613801838594
 20
25.06081544138642
 10
-31.07615020838603
 20
25.06575301518656
 10
-31.07615020838641
 20
25.86081543538605
 42
0.4142135623741617
 10
-31.27615020838604
 20
26.06081543538658
 10
-44.87615020838553
 20
26.06081543538619
 42
0.4142135623737455
 10
-45.07615020838592
 20
25.86081543538637
 10
-45.07615020838575
 20
12.26081543538698
 42
0.414213562374838
 10
-44.87615020838553
 20
12.06081543538638
  0
LWPOLYLINE
  5
150
330
1F
100
AcDbEntity
  8
0
100
AcDbPolyline
 90
        8
 70
     1
 43
0.0
 10
-26.02615020838556
 20
12.26081543538715
 10
-26.02615020838613
 20
25.86081543538647
 42
-0.4142135623730951
 10
-25.82615020838606
 20
26.06081543538654
 10
-12.22615020838656
 20
26.06081543538675
 42
-0.4142135623740316
 10
-12.02615020838607
 20
25.86081543538661
 10
-12.0261502083861
 20
12.26081543538694
 42
-0.4142135623737714
 10
-12.22615020838606
 20
12.06081543538673
 10
-25.82615020838557
 20
12.06081543538673
 42
-0.4142135623742397
  0
LWPOLYLINE
  5
151
330
1F
100
AcDbEntity
  8
0
100
AcDbPolyline
 90
       12
 70
     1
 43
0.0
 10
-131.2915763388859
 20
12.06081543538568
 42
0.414213562374734
 10
-131.0915763388861
 20
12.26081543538621
 10
-131.0915763388859
 20
12.98437155178588
 42
0.0191325742027902
 10
-131.0886502634159
 20
13.0608154364018
 10
-131.0886502253858
 20
25.06081544138558
 42
0.0191319573261185
 10
-131.0915763389234
 20
25.13725928700998
 10
-131.0915763388859
 20
25.8608154353856
 42
0.4142135623743437
 10
-131.2915763388864
 20
26.06081543538538
 10
-144.8915763388859
 20
26.0608154353856
 42
0.4142135623731472
 10
-145.0915763388859
 20
25.8608154353855
 10
-145.0915763388854
 20
12.26081543538617
 42
0.4142135623742136
 10
-144.8915763388854
 20
12.06081543538575
  0
LWPOLYLINE
  5
152
330
1F
100
AcDbEntity
  8
0
100
AcDbPolyline
 90
       17
 70
     1
 43
0.0
 10
146.082612659825
 20
34.2326622969887
 10
148.0153499767609
 20
34.2326622969887
 10
148.0153499767609
 20
37.96902030498286
 10
143.5764272264092
 20
34.16897733891363
 10
142.7056375526033
 20
35.01814856477987
 10
147.654294827771
 20
39.05171534828119
 10
143.1091712950911
 20
39.05171534828116
 10
143.1091712950911
 20
40.04949557608493
 10
147.6755298259386
 20
40.11318053415999
 10
147.6755298259386
 20
42.15119609042188
 10
149.2047334003865
 20
42.15119609042192
 10
149.2047334003865
 20
39.94946858720327
 10
151.7321538319699
 20
39.94946858720327
 10
151.7321538319699
 20
39.0092556334419
 10
149.2684469920521
 20
39.0092556334419
 10
149.2684469920521
 20
33.12874201045469
 10
146.082612659825
 20
33.12874201045465
  0
LWPOLYLINE
  5
153
330
1F
100
AcDbEntity
  8
0
100
AcDbPolyline
 90
        4
 70
     1
 43
0.0
 10
133.4879547067479
 20
41.57800378264389
 10
134.9534446895305
 20
41.57800378264389
 10
134.9534446895305
 20
36.18575842357276
 10
133.4454847104147
 20
36.18575842357276
  0
LWPOLYLINE
  5
154
330
1F
100
AcDbEntity
  8
0
100
AcDbPolyline
 90
        8
 70
     1
 43
0.0
 10
-2.511128915388067
 20
-31.58972525259038
 42
0.4142135623730951
 10
-3.011128916001106
 20
-31.08972525259065
 42
-0.0003582800768222
 10
-21.06364411138617
 20
-31.08973135561374
 42
0.4142135623730951
 10
-21.26364411138617
 20
-31.28973135561373
 10
-21.26364411138617
 20
-44.88973135561383
 42
0.4142135623730951
 10
-21.06364411138618
 20
-45.08973135561384
 10
-3.011128915388075
 20
-45.08972525258936
 42
0.4142135623730951
 10
-2.511128915388069
 20
-44.58972525258936
  0
LWPOLYLINE
  5
155
330
1F
100
AcDbEntity
  8
0
100
AcDbPolyline
 90
        6
 70
     1
 43
0.0
 10
136.1428195159918
 20
32.85275847818303
 10
135.0171582811959
 20
33.74438941888853
 42
0.2381531225549915
 10
138.3728983902502
 20
36.33436742550936
 10
138.3728983902502
 20
41.62046349748233
 10
139.7746661842029
 20
41.62046349748233
 10
139.7746661842027
 20
36.54665677133894
 42
-0.2373319174221772
  0
LWPOLYLINE
  5
156
330
1F
100
AcDbEntity
  8
0
100
AcDbPolyline
 90
        8
 70
     1
 43
0.0
 10
-83.46657328788664
 20
-31.58971913261452
 42
0.4121670461502306
 10
-83.96307716856455
 20
-31.08973135561423
 10
-102.0261441113862
 20
-31.0897313556144
 42
0.4142135623730951
 10
-102.2261441113862
 20
-31.2897313556144
 10
-102.2261441113862
 20
-44.8897313556145
 42
0.4142135623730951
 10
-102.0261441113862
 20
-45.0897313556145
 10
-83.96657328788654
 20
-45.08971913261453
 42
0.4142135623730847
 10
-83.46657328788666
 20
-44.58971913261456
  0
LWPOLYLINE
  5
157
330
1F
100
AcDbEntity
  8
0
100
AcDbPolyline
 90
       10
 70
     1
 43
0.0
 10
-74.81364411138613
 20
-29.08973135561367
 10
-69.63859932349797
 20
-29.08973135554433
 42
-0.0012352097180565
 10
-69.63612891538804
 20
-29.08972525259092
 10
-63.68612891538805
 20
-29.08972525259088
 42
-0.4142135623730847
 10
-63.18612891538806
 20
-29.58972525259081
 10
-63.18612891538784
 20
-44.60222525251746
 42
-0.4142135623731055
 10
-63.68612891538784
 20
-45.10222525251744
 10
-74.81364411138621
 20
-45.08973135561369
 42
-0.4142135623731575
 10
-75.31364411138631
 20
-44.58973135561367
 10
-75.31364411138614
 20
-29.58973135561368
 42
-0.4142135623730951
  0
LWPOLYLINE
  5
158
330
1F
100
AcDbEntity
  8
0
100
AcDbPolyline
 90
       12
 70
     1
 43
0.0
 10
59.89885588861386
 20
-31.08973135561308
 10
80.64292966021003
 20
-31.08973135561291
 42
-0.4119240921291051
 10
80.84136506361335
 20
-31.2897252356142
 10
80.84136506361403
 20
-32.03888278841298
 42
-0.0127137159876467
 10
80.84265775662833
 20
-32.08971299861489
 10
80.84265771561401
 20
-44.08971305461286
 42
-0.0127147105041645
 10
80.84136506360509
 20
-44.14054330082401
 10
80.84136506361403
 20
-44.88972523561295
 42
-0.4142135623744477
 10
80.64136506361341
 20
-45.08972523561276
 10
59.89885588861386
 20
-45.08973135561316
 42
-0.4142135623730951
 10
59.69885588861387
 20
-44.88973135561318
 10
59.69885588861387
 20
-31.28973135561307
 42
-0.4142135623730951
  0
LWPOLYLINE
  5
159
330
1F
100
AcDbEntity
  8
0
100
AcDbPolyline
 90
       10
 70
     1
 43
0.0
 10
-150.6915732878865
 20
-44.58971913261505
 10
-150.6915732878865
 20
-31.58971913261508
 42
-0.0002672822737286
 10
-150.6915763388863
 20
-31.58918456818221
 42
-0.4142135644628564
 10
-150.1915763388863
 20
-31.08918456461479
 10
-149.1915763388863
 20
-31.08918456461478
 42
-0.4142135623730951
 10
-148.6915735736527
 20
-31.58918456165833
 42
-0.0002672855356473
 10
-148.6915732878865
 20
-31.58971913261505
 10
-148.6915732878865
 20
-44.58971913261505
 42
-0.4142135623731055
 10
-149.1915732878865
 20
-45.08971913261506
 10
-150.1915732878865
 20
-45.08971913261506
 42
-0.414213562373168
  0
LWPOLYLINE
  5
160
330
1F
100
AcDbEntity
  8
0
100
AcDbPolyline
 90
       10
 70
     1
 43
0.0
 10
-125.4915732878864
 20
-31.58971913261487
 10
-125.4915732878864
 20
-44.58971913261491
 42
-0.4142135623730847
 10
-125.9915732878864
 20
-45.08971913261488
 10
-126.9915732878864
 20
-45.08971913261488
 42
-0.4142135623731368
 10
-127.4915732878864
 20
-44.58971913261488
 10
-127.4915732878864
 20
-31.58971913261492
 42
-0.000267284057446
 10
-127.4915763388862
 20
-31.58918456461459
 42
-0.4142135623730951
 10
-126.9915763388862
 20
-31.08918456461462
 10
-125.9915763388862
 20
-31.08918456461459
 42
-0.4142135623730951
 10
-125.4915735736526
 20
-31.5891845616582
 42
-0.0002672855356214
  0
LWPOLYLINE
  5
161
330
1F
100
AcDbEntity
  8
0
100
AcDbPolyline
 90
        8
 70
     1
 43
0.0
 10
-107.2790732878865
 20
-31.5897191326147
 10
-107.2790732878863
 20
-44.58971913261473
 42
-0.4142135623730744
 10
-107.7790732878863
 20
-45.08971913261471
 10
-120.7790732878865
 20
-45.08971913261485
 42
-0.4142135623731159
 10
-121.2790732878863
 20
-44.58971913261485
 10
-121.2790732878863
 20
-31.58971913261483
 42
-0.4142135623730118
 10
-120.7790732878865
 20
-31.08971913261479
 10
-107.7790732878863
 20
-31.08971913261469
 42
-0.4142135623731575
  0
LWPOLYLINE
  5
162
330
1F
100
AcDbEntity
  8
0
100
AcDbPolyline
 90
        8
 70
     1
 43
0.0
 10
-79.86657328788645
 20
-44.58971913261449
 42
0.4142135623731472
 10
-79.36657328788642
 20
-45.0897191326145
 10
-78.36657328788645
 20
-45.08971913261446
 42
0.4142135623730951
 10
-77.86657328788642
 20
-44.58971913261446
 10
-77.86657328788642
 20
-31.58971913261446
 42
0.4142135623730847
 10
-78.36657328788645
 20
-31.08971913261441
 10
-79.36657328788642
 20
-31.08971913261448
 42
0.4142135623731055
 10
-79.86657328788645
 20
-31.58971913261449
  0
LWPOLYLINE
  5
163
330
1F
100
AcDbEntity
  8
0
100
AcDbPolyline
 90
        8
 70
     1
 43
0.0
 10
-145.091573288138
 20
-44.58972176127823
 10
-145.0915671858876
 20
-31.58972176127962
 42
-0.4142135623730534
 10
-144.5915669511857
 20
-31.08972199598162
 10
-131.5915669511871
 20
-31.08972809823197
 42
-0.4142135623731055
 10
-131.091567185889
 20
-31.58972833293389
 10
-131.0915732881395
 20
-44.58972833293255
 42
-0.4142135623730534
 10
-131.5915735228413
 20
-45.08972809823048
 10
-144.5915735228398
 20
-45.08972199598011
 42
-0.4142135623730534
  0
LWPOLYLINE
  5
164
330
1F
100
AcDbEntity
  8
0
100
AcDbPolyline
 90
        8
 70
     1
 43
0.0
 10
149.6988558886139
 20
-45.08973135561244
 10
136.0988558886139
 20
-45.08973135561258
 42
-0.4142135623730951
 10
135.8988558886139
 20
-44.88973135561255
 10
135.8988558886139
 20
-31.28973135561244
 42
-0.4142135623730951
 10
136.0988558886139
 20
-31.08973135561245
 10
149.6988558886137
 20
-31.0897313556123
 42
-0.4142135623730951
 10
149.8988558886137
 20
-31.28973135561234
 10
149.8988558886138
 20
-44.88973135561243
 42
-0.4142135623730951
  0
LWPOLYLINE
  5
165
330
1F
100
AcDbEntity
  8
0
100
AcDbPolyline
 90
        8
 70
     1
 43
0.0
 10
130.6488558886139
 20
-45.08973135561261
 10
117.0488558886138
 20
-45.08973135561272
 42
-0.4142135623730951
 10
116.8488558886138
 20
-44.88973135561272
 10
116.8488558886138
 20
-31.28973135561262
 42
-0.4142135623730951
 10
117.0488558886138
 20
-31.08973135561262
 10
130.6488558886136
 20
-31.08973135561252
 42
-0.4142135623730951
 10
130.8488558886136
 20
-31.28973135561251
 10
130.8488558886138
 20
-44.88973135561262
 42
-0.4142135623730951
  0
LWPOLYLINE
  5
166
330
1F
100
AcDbEntity
  8
0
100
AcDbPolyline
 90
        8
 70
     1
 43
0.0
 10
90.85979460501405
 20
-12.03917235761232
 10
104.4597946050139
 20
-12.03917235761222
 42
-0.4142135623730951
 10
104.6597946050139
 20
-12.23917235761222
 10
104.659794605014
 20
-25.83917235761229
 42
-0.4142135623730951
 10
104.459794605014
 20
-26.03917235761228
 10
90.85979460501405
 20
-26.03917235761239
 42
-0.4142135623730951
 10
90.65979460501408
 20
-25.83917235761239
 10
90.65979460501408
 20
-12.23917235761232
 42
-0.4142135623730951
  0
LWPOLYLINE
  5
167
330
1F
100
AcDbEntity
  8
0
100
AcDbPolyline
 90
        8
 70
     1
 43
0.0
 10
54.09087366111133
 20
-44.58915456461291
 42
0.4142135623730744
 10
54.59087366111134
 20
-45.08915456461289
 10
55.59087366111135
 20
-45.08915456461289
 42
0.4142135623730951
 10
56.09087366111136
 20
-44.58915456461289
 10
56.09087366111136
 20
-31.58915456461288
 42
0.4142135623730951
 10
55.59087366111135
 20
-31.08915456461287
 10
54.59087366111134
 20
-31.0891545646129
 42
0.4142135623731159
 10
54.09087366111137
 20
-31.58915456461292
  0
LWPOLYLINE
  5
168
330
1F
100
AcDbEntity
  8
0
100
AcDbPolyline
 90
        8
 70
     1
 43
0.0
 10
111.5988558886138
 20
-45.08973135561276
 42
0.4142135623730951
 10
111.7988558886138
 20
-44.88973135561275
 10
111.7988558886137
 20
-31.28973135561265
 42
0.4142135623730951
 10
111.5988558886137
 20
-31.08973135561266
 10
97.99885588861386
 20
-31.08973135561276
 42
0.4142135623730951
 10
97.79885588861388
 20
-31.28973135561276
 10
97.79885588861388
 20
-44.88973135561287
 42
0.4142135623730951
 10
97.99885588861386
 20
-45.08973135561285
  0
LWPOLYLINE
  5
169
330
1F
100
AcDbEntity
  8
0
100
AcDbPolyline
 90
        8
 70
     1
 43
0.0
 10
30.00777366122776
 20
-42.62336791666029
 42
0.4142135623447084
 10
31.00777366113085
 20
-41.6233679166603
 10
31.00777366113085
 20
-33.62336791666033
 42
0.4142135623447084
 10
30.00777366122776
 20
-32.62336791666031
 10
2.283073661226562
 20
-32.62336791666056
 42
0.4142135624014506
 10
1.283073661226548
 20
-33.62336791666057
 10
1.283073661129736
 20
-41.62336791666053
 42
0.4142135624014506
 10
2.283073661226561
 20
-42.62336791666054
  0
LWPOLYLINE
  5
170
330
1F
100
AcDbEntity
  8
0
100
AcDbPolyline
 90
        8
 70
     1
 43
0.0
 10
-29.81682633883223
 20
-33.27557901524787
 10
-29.81682633883222
 20
-41.27557901524791
 42
-0.4142135623447033
 10
-30.81682633873621
 20
-42.275579015247
 10
-58.54152633873642
 20
-42.27557901524813
 42
-0.4142135624013569
 10
-59.54152633883291
 20
-41.27557901524812
 10
-59.54152633883293
 20
-33.27557901524812
 42
-0.4142135624016482
 10
-58.54152633873642
 20
-32.27557901524711
 10
-30.81682633873621
 20
-32.27557901524689
 42
-0.4142135623452651
  0
LWPOLYLINE
  5
171
330
1F
100
AcDbEntity
  8
0
100
AcDbPolyline
 90
        8
 70
     1
 43
0.0
 10
108.2598373764915
 20
-25.60124434380385
 10
108.2598373764915
 20
-12.60124434380399
 42
-0.4142135623730951
 10
108.7598373764915
 20
-12.10124434380398
 10
109.7598373764915
 20
-12.10124434380398
 42
-0.4142135623730744
 10
110.2598373764915
 20
-12.60124434380395
 10
110.2598373764915
 20
-25.60124434380382
 42
-0.4142135623731159
 10
109.7598373764915
 20
-26.10124434380387
 10
108.7598373764915
 20
-26.10124434380387
 42
-0.4142135623730951
  0
LWPOLYLINE
  5
172
330
1F
100
AcDbEntity
  8
0
100
AcDbPolyline
 90
        8
 70
     1
 43
0.0
 10
78.94885283761422
 20
45.11080321238736
 42
0.4142135623734072
 10
78.74885283761443
 20
44.91080321238736
 10
78.74885283761486
 20
31.31080321238868
 42
0.4142135623757486
 10
78.94885283761469
 20
31.11080321238798
 10
92.54885283261405
 20
31.11080321238751
 42
0.4142135623737194
 10
92.7488528326139
 20
31.31080321238801
 10
92.74885283261413
 20
44.91080321238749
 42
0.4142135623743958
 10
92.54885283261366
 20
45.11080321238731
  0
LWPOLYLINE
  5
173
330
1F
100
AcDbEntity
  8
0
100
AcDbPolyline
 90
       20
 70
     1
 43
0.0
 10
129.7618441446141
 20
31.11080319638782
 10
129.7618441446591
 20
30.11080320534264
 42
-0.4142135455933997
 10
128.7618442506142
 20
29.1108032123878
 10
123.7618441085829
 20
29.11080321535673
 42
-0.4142135444882673
 10
122.761844158583
 20
30.11080319235659
 10
122.761844153614
 20
31.11080320438768
 10
105.885877616614
 20
31.11080321238762
 10
105.8858675966137
 20
30.11080320538883
 42
-0.4142135281051011
 10
104.885867706614
 20
29.11080321238766
 10
99.88586755258356
 20
29.11080321535692
 42
-0.4142135462458869
 10
98.88586759661407
 20
30.11080319238756
 10
98.88586759761398
 20
31.11080319638759
 10
97.99885283761469
 20
31.11080321238808
 42
-0.4142135623750721
 10
97.79885283761407
 20
31.31080321238765
 10
97.79885283761394
 20
44.91080321238707
 42
-0.414213562372991
 10
97.99885283761366
 20
45.11080321238784
 10
130.6488528326138
 20
45.11080321238742
 42
-0.4142135623741356
 10
130.848852832614
 20
44.91080321238781
 10
130.848852832614
 20
31.31080321238832
 42
-0.4142135623730431
 10
130.6488528326138
 20
31.11080321238782
  0
LWPOLYLINE
  5
174
330
1F
100
AcDbEntity
  8
0
100
AcDbPolyline
 90
       12
 70
     1
 43
0.0
 10
-64.41419905848575
 20
6.81079712538616
 10
-64.41419905848532
 20
6.04447149885066
 42
-0.0084203879958822
 10
-64.41363191538584
 20
6.010797110386087
 10
-64.41363187338533
 20
-5.989202880567305
 42
-0.0084188664946099
 10
-64.41419905848575
 20
-6.022877280113894
 10
-64.41419905848555
 20
-6.789202874614225
 42
-0.4142135623724187
 10
-64.61419905848583
 20
-6.989202874613829
 10
-78.21419905848573
 20
-6.989202874614111
 42
-0.4142135623724447
 10
-78.41419905848606
 20
-6.7892028746144
 10
-78.41419905848579
 20
6.810797125386018
 42
-0.4142135623738495
 10
-78.21419905848578
 20
7.01079712538605
 10
-64.61419905848622
 20
7.010797125386226
 42
-0.4142135623727569
  0
LWPOLYLINE
  5
175
330
1F
100
AcDbEntity
  8
0
100
AcDbPolyline
 90
       16
 70
     1
 43
0.0
 10
149.8988528326139
 20
6.810803212388182
 10
149.8988528326336
 20
6.02158345726123
 42
-0.0026920665038379
 10
149.898910809614
 20
6.010815425387949
 10
149.8989107975687
 20
-5.989184568574636
 42
-0.0026934329066485
 10
149.8988528326143
 20
-5.999952618512321
 10
149.8988528326133
 20
-6.789196787611349
 42
-0.4142135623743958
 10
149.6988528326142
 20
-6.989196787612056
 10
136.0988528376145
 20
-6.989196787611309
 42
-0.4142135623747599
 10
135.8988528376136
 20
-6.7891967876122
 10
135.8988528376132
 20
6.810803212388576
 42
-0.4142135623713262
 10
136.0988528376134
 20
7.010803212388535
 10
136.8939697722137
 20
7.010803212387789
 10
136.8989106946139
 20
7.010815419387574
 10
148.8989108426142
 20
7.010815411387997
 10
148.9038518470141
 20
7.010803212387894
 10
149.6988528326135
 20
7.010803212387148
 42
-0.4142135623751761
  0
LWPOLYLINE
  5
176
330
1F
100
AcDbEntity
  8
0
100
AcDbPolyline
 90
       47
 70
     1
 43
0.0
 10
126.0863681156142
 20
17.97376442938758
 10
126.0863681156142
 20
16.53580625838759
 10
127.4363619615763
 20
16.53580625834915
 42
-0.4142135702449022
 10
128.4363619816141
 20
15.5358062753877
 10
128.4363620176421
 20
3.535806278360509
 42
-0.4142135526328178
 10
127.4363619216142
 20
2.535806264387672
 10
127.380588017614
 20
2.535806252387742
 10
127.380588017614
 20
1.097817983387499
 10
127.436374149572
 20
1.097817983365768
 42
-0.4127671038218633
 10
128.4363619816141
 20
0.1027590453874992
 10
128.4363620176419
 20
-4.902182029641418
 42
-0.4142135447239985
 10
127.4363619216142
 20
-5.902182016612494
 10
127.380588017614
 20
-5.902182019612299
 10
127.3805880176062
 20
-5.989202880603786
 42
-0.4142135923116206
 10
126.380588076614
 20
-6.989202890612291
 10
121.3014275335672
 20
-6.989202906650376
 42
-0.4015092612743925
 10
120.344982922614
 20
-5.990151838612278
 10
120.344982947614
 20
-5.902182019612368
 10
118.9425997356142
 20
-5.902182019612367
 10
118.9425997356154
 20
-5.989202880614371
 42
-0.4142135943560411
 10
117.942599791614
 20
-6.989202890612325
 10
93.2358009415145
 20
-6.989202874612748
 42
-0.4142135623730951
 10
93.03580094151422
 20
-6.789202874612468
 10
93.03580094151389
 20
6.810797125387881
 42
-0.4142135623731472
 10
93.23580094151406
 20
7.010797125387486
 10
96.5046114706142
 20
7.010797114387325
 10
96.50461147064069
 20
8.010797125359468
 42
-0.4142135686573314
 10
97.50461159561412
 20
9.010797109387441
 10
100.004611516614
 20
9.010797116387566
 10
102.4690214315953
 20
9.009860320354528
 42
-0.4142179892714979
 10
103.4690364915948
 20
8.009860319354292
 10
103.4690364926142
 20
7.010797103387269
 10
114.436361934614
 20
7.010797100387677
 10
114.436361934614
 20
12.06081541038762
 10
112.284129531114
 20
12.0608154193876
 42
-0.4142135623746039
 10
112.0841295311142
 20
12.26081541938788
 10
112.0841295311141
 20
25.86081541938749
 42
-0.4142135623735113
 10
112.2841295311141
 20
26.06081541938756
 10
125.8841295311141
 20
26.06081541938773
 42
-0.4142135623742917
 10
126.0841295311136
 20
25.86081541938717
 10
126.084129531114
 20
25.12768915068753
 42
-0.0167324748313706
 10
126.086368084653
 20
25.06081544139624
 10
126.0863681156142
 20
24.97379453038763
 10
127.436361961614
 20
24.97379453038766
 42
-0.4142135862995941
 10
128.4363619816142
 20
23.97379452838765
 10
128.436361981597
 20
18.96882222942724
 42
-0.4127667985262501
 10
127.436374071614
 20
17.97376441338754
  0
LWPOLYLINE
  5
177
330
1F
100
AcDbEntity
  8
0
100
AcDbPolyline
 90
       12
 70
     1
 43
0.0
 10
49.88635587761401
 20
6.010797110386996
 10
49.88635589159972
 20
-5.989202880569414
 42
-0.00832875264909
 10
49.8858009415142
 20
-6.022513012213053
 10
49.88580094151433
 20
-6.789202874613386
 42
-0.4142135623724187
 10
49.68580094151416
 20
-6.989202874612955
 10
36.08580094151464
 20
-6.989202874613238
 42
-0.4142135623730431
 10
35.88580094151397
 20
-6.789202874613384
 10
35.88580094151449
 20
6.810797125386964
 42
-0.4142135623734592
 10
36.08580094151424
 20
7.01079712538696
 10
49.6858009415137
 20
7.010797125386851
 42
-0.4142135623734072
 10
49.88580094151423
 20
6.810797125387106
 10
49.88580094150052
 20
6.044107231048585
 42
-0.0083292635206073
  0
LWPOLYLINE
  5
178
330
1F
100
AcDbEntity
  8
0
100
AcDbPolyline
 90
        8
 70
     1
 43
0.0
 10
2.548852837614714
 20
31.31080321238794
 10
2.548852837614005
 20
44.91080321238679
 42
-0.4142135623737714
 10
2.748852837614178
 20
45.11080321238679
 10
16.34885283261405
 20
45.11080321238671
 42
-0.4142135623740836
 10
16.54885283261419
 20
44.9108032123869
 10
16.54885283261418
 20
31.31080321238738
 42
-0.4142135623734072
 10
16.34885283261405
 20
31.11080321238688
 10
2.748852837614532
 20
31.11080321238749
 42
-0.4142135623756965
  0
LWPOLYLINE
  5
179
330
1F
100
AcDbEntity
  8
0
100
AcDbPolyline
 90
        8
 70
     1
 43
0.0
 10
-16.50114716238508
 20
31.31080321238781
 10
-16.50114716238561
 20
44.91080321238664
 42
-0.4142135623730951
 10
-16.30114716238583
 20
45.11080321238662
 10
-2.701147167386318
 20
45.11080321238654
 42
-0.4142135623743958
 10
-2.501147167385825
 20
44.91080321238672
 10
-2.50114716738604
 20
31.31080321238727
 42
-0.4142135623737714
 10
-2.701147167385858
 20
31.11080321238678
 10
-16.30114716238534
 20
31.11080321238735
 42
-0.4142135623755924
  0
LWPOLYLINE
  5
180
330
1F
100
AcDbEntity
  8
0
100
AcDbPolyline
 90
       12
 70
     1
 43
0.0
 10
-40.31419905848614
 20
-6.789202874614084
 10
-40.31419905848578
 20
6.810797125386335
 42
-0.4142135623737714
 10
-40.11419905848582
 20
7.01079712538633
 10
-26.51419905848627
 20
7.010797125386329
 42
-0.4142135623727829
 10
-26.31419905848578
 20
6.810797125386475
 10
-26.31419905848155
 20
6.043738930860167
 42
-0.0082371316151883
 10
-26.31365632938586
 20
6.010797110386402
 10
-26.31365632934298
 20
-5.989202860623552
 42
-0.0082371393567014
 10
-26.31419905848578
 20
-6.022144712113468
 10
-26.31419905848567
 20
-6.789202874613945
 42
-0.4142135623723666
 10
-26.51419905848595
 20
-6.989202874613514
 10
-40.11419905848582
 20
-6.989202874613922
 42
-0.4142135623723666
  0
LWPOLYLINE
  5
181
330
1F
100
AcDbEntity
  8
0
100
AcDbPolyline
 90
       12
 70
     1
 43
0.0
 10
-2.014199058485849
 20
7.01079712538668
 10
11.58580094151375
 20
7.010797125386821
 42
-0.4142135623737194
 10
11.78580094151421
 20
6.810797125386789
 10
11.78580094151648
 20
6.043923608463823
 42
-0.0082833293603067
 10
11.78634977461407
 20
6.010797110386717
 10
11.78634977958362
 20
-5.989202880593222
 42
-0.008283147665187
 10
11.78580094151417
 20
-6.0223293897133
 10
11.78580094151453
 20
-6.789202874613595
 42
-0.4142135623724187
 10
11.58580094151425
 20
-6.9892028746132
 10
-2.014199058485851
 20
-6.989202874613553
 42
-0.4142135623725747
 10
-2.214199058486273
 20
-6.789202874613771
 10
-2.214199058485809
 20
6.810797125386649
 42
-0.4142135623731991
  0
LWPOLYLINE
  5
182
330
1F
100
AcDbEntity
  8
0
100
AcDbPolyline
 90
       12
 70
     1
 43
0.0
 10
-116.5141990584861
 20
-6.78920287461468
 10
-116.5141990584856
 20
6.810797125385774
 42
-0.4142135623734072
 10
-116.3141990584858
 20
7.010797125385771
 10
-102.7141990584857
 20
7.010797125385609
 42
-0.4142135623724187
 10
-102.5141990584859
 20
6.810797125385844
 10
-102.5141990584818
 20
6.044289875654928
 42
-0.008374953361527
 10
-102.5136380183859
 20
6.010797110385772
 10
-102.5136380183939
 20
-5.989202860601588
 42
-0.0083749611209386
 10
-102.5141990584859
 20
-6.022695656914281
 10
-102.5141990584854
 20
-6.789202874614611
 42
-0.4142135623723407
 10
-102.7141990584857
 20
-6.989202874614145
 10
-116.3141990584854
 20
-6.989202874614427
 42
-0.414213562373069
  0
LWPOLYLINE
  5
183
330
1F
100
AcDbEntity
  8
0
100
AcDbPolyline
 90
        8
 70
     1
 43
0.0
 10
31.12384979161415
 20
12.26081543538761
 10
31.12384979161402
 20
25.86081543538693
 42
-0.4142135623731991
 10
31.32384979161405
 20
26.06081543538703
 10
44.92384979161343
 20
26.06081543538664
 42
-0.4142135623746039
 10
45.12384979161407
 20
25.86081543538703
 10
45.12384979161357
 20
12.26081543538771
 42
-0.4142135623759046
 10
44.92384979161403
 20
12.06081543538711
 10
31.32384979161465
 20
12.06081543538704
 42
-0.414213562374968
  0
LWPOLYLINE
  5
184
330
1F
100
AcDbEntity
  8
0
100
AcDbPolyline
 90
       10
 70
     1
 43
0.0
 10
101.7565226241448
 20
-50.07784023925513
 42
0.4142135623730951
 10
100.2565226241449
 20
-51.57784023925512
 10
100.2565226241452
 20
-52.57784023925772
 42
-1.0
 10
97.65652262414528
 20
-52.57784023925776
 10
97.65652262414489
 20
-51.57784023925518
 42
0.4142135623730985
 10
96.15652262414485
 20
-50.07784023925516
 10
65.04966837465389
 20
-50.07784023925542
 42
-1.0
 10
65.04966837465389
 20
-49.07784023925541
 10
132.8633768736385
 20
-49.07784023925484
 42
-1.0
 10
132.8633768736385
 20
-50.07784023925487
  0
LWPOLYLINE
  5
185
330
1F
100
AcDbEntity
  8
0
100
AcDbPolyline
 90
        8
 70
     1
 43
0.0
 10
39.4867114058664
 20
-29.08972326203095
 10
50.61387366111059
 20
-29.08972326203096
 42
-0.4142135623730744
 10
51.1138736611106
 20
-29.58972326203094
 10
51.11387366111152
 20
-44.58964117669195
 42
-0.4142112927047969
 10
50.6138775356807
 20
-45.08964117667695
 10
39.48683152026021
 20
-45.08972740169618
 42
-0.414213562320047
 10
38.98682764570488
 20
-44.58973127636963
 10
38.98671140588143
 20
-29.5897271366907
 42
-0.4142158320980216
  0
ENDSEC
  0
SECTION
  2
OBJECTS
  0
DICTIONARY
  5
C
330
0
100
AcDbDictionary
281
     1
  3
ACAD_BACKGROUND
350
1005B
  3
ACAD_CIP_PREVIOUS_PRODUCT_INFO
350
1005A
  3
ACAD_COLOR
350
10036
  3
ACAD_DETAILVIEWSTYLE
350
10051
  3
ACAD_GROUP
350
D
  3
ACAD_LAST_SAVED_VERSION_INFO
350
1005E
  3
ACAD_LAYOUT
350
10037
  3
ACAD_MATERIAL
350
10004
  3
ACAD_MLEADERSTYLE
350
1004D
  3
ACAD_MLINESTYLE
350
17
  3
ACAD_PLOTSETTINGS
350
10054
  3
ACAD_PLOTSTYLENAME
350
10002
  3
ACAD_SCALELIST
350
1003B
  3
ACAD_SECTIONVIEWSTYLE
350
1004F
  3
ACAD_TABLESTYLE
350
10038
  3
ACAD_VISUALSTYLE
350
1001D
  3
ACDB_RECOMPOSE_DATA
350
10076
  3
AcDbVariableDictionary
350
1006A
  3
AcDsDecomposeData
350
1007C
  0
DICTIONARY
  5
10064
330
2
100
AcDbDictionary
280
     1
281
     1
  3
ACAD_LAYERSTATES
360
10065
  0
DICTIONARY
  5
1005F
330
50
100
AcDbDictionary
280
     1
281
     1
  3
ADSK_XREC_LAYER_RECONCILED
360
10060
  0
DICTIONARY
  5
1005B
102
{ACAD_REACTORS
330
C
102
}
330
C
100
AcDbDictionary
281
     1
  0
XRECORD
  5
1005A
102
{ACAD_REACTORS
330
C
102
}
330
C
100
AcDbXrecord
280
     1
300
ACDMAC
300
2025
300

  0
DICTIONARY
  5
10036
102
{ACAD_REACTORS
330
C
102
}
330
C
100
AcDbDictionary
281
     1
  0
DICTIONARY
  5
10051
102
{ACAD_REACTORS
330
C
102
}
330
C
100
AcDbDictionary
281
     1
  3
Imperial24
350
10052
  0
DICTIONARY
  5
D
330
C
100
AcDbDictionary
281
     1
  0
XRECORD
  5
1005E
102
{ACAD_REACTORS
330
C
102
}
330
C
100
AcDbXrecord
280
     1
300
{4CAE4F31-E08C-AD4C-8EAA-A088BCFEBADB}
301
{0F4FA204-1A8D-354D-97ED-1A3949CF1BCE}
302
{4CAE4F31-E08C-AD4C-8EAA-A088BCFEBADB}
303
/Users/junkibeom/Downloads/Rio_Plate_Leafspring.dxf
  0
DICTIONARY
  5
10037
102
{ACAD_REACTORS
330
C
102
}
330
C
100
AcDbDictionary
281
     1
  3
Model
350
10055
  3
1
350
10056
  0
DICTIONARY
  5
10004
102
{ACAD_REACTORS
330
C
102
}
330
C
100
AcDbDictionary
281
     1
  3
ByBlock
350
1000D
  3
ByLayer
350
10005
  3
Global
350
10015
  0
DICTIONARY
  5
1004D
102
{ACAD_REACTORS
330
C
102
}
330
C
100
AcDbDictionary
281
     1
  3
Standard
350
1004E
  0
DICTIONARY
  5
17
330
C
100
AcDbDictionary
281
     1
  3
Standard
350
1003A
  0
DICTIONARY
  5
10054
102
{ACAD_REACTORS
330
C
102
}
330
C
100
AcDbDictionary
281
     1
  0
ACDBDICTIONARYWDFLT
  5
10002
102
{ACAD_REACTORS
330
C
102
}
330
C
100
AcDbDictionary
281
     1
  3
Normal
350
10003
100
AcDbDictionaryWithDefault
340
10003
  0
DICTIONARY
  5
1003B
102
{ACAD_REACTORS
330
C
102
}
330
C
100
AcDbDictionary
281
     1
  3
A0
350
1003C
  3
A1
350
1003D
  3
A2
350
1003E
  3
A3
350
1003F
  3
A4
350
10040
  3
A5
350
10041
  3
A6
350
10042
  3
A7
350
10043
  3
A8
350
10044
  3
A9
350
10045
  3
B0
350
10046
  3
B1
350
10047
  3
B2
350
10048
  3
B3
350
10049
  3
B4
350
1004A
  3
B5
350
1004B
  3
B6
350
1004C
  0
DICTIONARY
  5
1004F
102
{ACAD_REACTORS
330
C
102
}
330
C
100
AcDbDictionary
281
     1
  3
Imperial24
350
10050
  0
DICTIONARY
  5
10038
102
{ACAD_REACTORS
330
C
102
}
330
C
100
AcDbDictionary
281
     1
  3
Standard
350
10039
  0
DICTIONARY
  5
1001D
102
{ACAD_REACTORS
330
C
102
}
330
C
100
AcDbDictionary
281
     1
  3
2dWireframe
350
10023
  3
Basic
350
10022
  3
Brighten
350
10029
  3
ColorChange
350
1002D
  3
Conceptual
350
10026
  3
Dim
350
10028
  3
EdgeColorOff
350
10035
  3
Facepattern
350
1002C
  3
Flat
350
1001E
  3
FlatWithEdges
350
1001F
  3
Gouraud
350
10020
  3
GouraudWithEdges
350
10021
  3
Hidden
350
10025
  3
JitterOff
350
10033
  3
Linepattern
350
1002B
  3
OverhangOff
350
10034
  3
Realistic
350
10027
  3
Shaded
350
10032
  3
Shaded with edges
350
10031
  3
Shades of Gray
350
1002E
  3
Sketchy
350
1002F
  3
Thicken
350
1002A
  3
Wireframe
350
10024
  3
X-Ray
350
10030
  0
XRECORD
  5
10076
102
{ACAD_REACTORS
330
C
102
}
330
C
100
AcDbXrecord
280
     1
 90
        1
330
10039
  0
DICTIONARY
  5
1006A
102
{ACAD_REACTORS
330
C
102
}
330
C
100
AcDbDictionary
281
     1
  3
CANNOSCALE
350
10070
  3
CMLEADERSTYLE
350
1006C
  3
CTABLESTYLE
350
1006B
  3
CVIEWDETAILSTYLE
350
1006D
  3
CVIEWSECTIONSTYLE
350
1006E
  3
LAYEREVAL
350
10072
  3
LAYERNOTIFY
350
10073
  3
LIGHTINGUNITS
350
10071
  3
MSLTSCALE
350
1006F
  0
DICTIONARY
  5
1007C
102
{ACAD_REACTORS
330
C
102
}
330
C
100
AcDbDictionary
281
     1
  3
AcDsRecords
350
1007E
  3
AcDsSchemas
350
1007D
1001
ACAD
1070
     2
  0
DICTIONARY
  5
10065
102
{ACAD_REACTORS
330
10064
102
}
330
10064
100
AcDbDictionary
281
     1
  0
XRECORD
  5
10060
102
{ACAD_REACTORS
330
1005F
102
}
330
1005F
100
AcDbXrecord
280
     1
290
     1
  0
ACDBDETAILVIEWSTYLE
  5
10052
102
{ACAD_XDICTIONARY
360
10081
102
}
102
{ACAD_REACTORS
330
10051
102
}
330
10051
100
AcDbModelDocViewStyle
 70
     0
  3
Imperial24
290
     0
100
AcDbDetailViewStyle
 70
     0
 71
     0
 90
        3
 71
     1
340
11
 62
   256
 40
0.24
340
0
 62
   256
 40
0.24
300

 40
0.36
280
     3
 71
     2
340
10001
 90
       25
 62
   256
 71
     3
340
11
 62
   256
 40
0.24
 90
        1
 40
0.75
 90
        1
300
%<\AcVar ViewType \f "%tc1">% %<\AcVar ViewDetailId>%\PSCALE %<\AcVar ViewScale \f "%sn">%
 71
     4
340
10001
 90
       25
 62
   256
340
10001
 90
       25
 62
   256
280
     0
  0
LAYOUT
  5
10055
102
{ACAD_REACTORS
330
10037
102
}
330
10037
100
AcDbPlotSettings
  1

  2

  4

  6

 40
0.0
 41
0.0
 42
0.0
 43
0.0
 44
0.0
 45
0.0
 46
0.0
 47
0.0
 48
0.0
 49
0.0
140
0.0
141
0.0
142
1.0
143
1.0
 70
  1712
 72
     0
 73
     0
 74
     0
  7

 75
     0
147
1.0
 76
     0
 77
     2
 78
   300
148
0.0
149
0.0
100
AcDbLayout
  1
Model
 70
     1
 71
     0
 10
0.0
 20
0.0
 11
12.0
 21
9.0
 12
0.0
 22
0.0
 32
0.0
 14
0.0
 24
0.0
 34
0.0
 15
0.0
 25
0.0
 35
0.0
146
0.0
 13
0.0
 23
0.0
 33
0.0
 16
1.0
 26
0.0
 36
0.0
 17
0.0
 27
1.0
 37
0.0
 76
     0
330
1F
331
10059
  0
LAYOUT
  5
10056
102
{ACAD_REACTORS
330
10037
102
}
330
10037
100
AcDbPlotSettings
  1

  2

  4

  6

 40
0.0
 41
0.0
 42
0.0
 43
0.0
 44
0.0
 45
0.0
 46
0.0
 47
0.0
 48
0.0
 49
0.0
140
0.0
141
0.0
142
1.0
143
1.0
 70
   688
 72
     0
 73
     0
 74
     5
  7

 75
    16
147
1.0
 76
     0
 77
     2
 78
   300
148
0.0
149
0.0
100
AcDbLayout
  1
1
 70
     1
 71
     1
 10
0.0
 20
0.0
 11
12.0
 21
9.0
 12
0.0
 22
0.0
 32
0.0
 14
1.000000000000000E+20
 24
1.000000000000000E+20
 34
1.000000000000000E+20
 15
-1.000000000000000E+20
 25
-1.000000000000000E+20
 35
-1.000000000000000E+20
146
0.0
 13
0.0
 23
0.0
 33
0.0
 16
1.0
 26
0.0
 36
0.0
 17
0.0
 27
1.0
 37
0.0
 76
     0
330
1B
  0
MATERIAL
  5
1000D
102
{ACAD_XDICTIONARY
360
1000E
102
}
102
{ACAD_REACTORS
330
10004
102
}
330
10004
100
AcDbMaterial
  1
ByBlock
 72
     0
 43
0.0008202099737533
 43
0.0
 43
0.0
 43
0.0
 43
0.0
 43
0.0008202099737533
 43
0.0
 43
0.0
 43
0.0
 43
0.0
 43
1.0
 43
0.0
 43
0.0
 43
0.0
 43
0.0
 43
1.0
 77
     0
 47
0.0008202099737533
 47
0.0
 47
0.0
 47
0.0
 47
0.0
 47
0.0008202099737533
 47
0.0
 47
0.0
 47
0.0
 47
0.0
 47
1.0
 47
0.0
 47
0.0
 47
0.0
 47
0.0
 47
1.0
171
     0
 49
0.0008202099737533
 49
0.0
 49
0.0
 49
0.0
 49
0.0
 49
0.0008202099737533
 49
0.0
 49
0.0
 49
0.0
 49
0.0
 49
1.0
 49
0.0
 49
0.0
 49
0.0
 49
0.0
 49
1.0
175
     0
142
0.0008202099737533
142
0.0
142
0.0
142
0.0
142
0.0
142
0.0008202099737533
142
0.0
142
0.0
142
0.0
142
0.0
142
1.0
142
0.0
142
0.0
142
0.0
142
0.0
142
1.0
179
     0
144
0.0008202099737533
144
0.0
144
0.0
144
0.0
144
0.0
144
0.0008202099737533
144
0.0
144
0.0
144
0.0
144
0.0
144
1.0
144
0.0
144
0.0
144
0.0
144
0.0
144
1.0
147
0.0008202099737533
147
0.0
147
0.0
147
0.0
147
0.0
147
0.0008202099737533
147
0.0
147
0.0
147
0.0
147
0.0
147
1.0
147
0.0
147
0.0
147
0.0
147
0.0
147
1.0
  0
MATERIAL
  5
10005
102
{ACAD_XDICTIONARY
360
10006
102
}
102
{ACAD_REACTORS
330
10004
102
}
330
10004
100
AcDbMaterial
  1
ByLayer
 72
     0
 43
0.0008202099737533
 43
0.0
 43
0.0
 43
0.0
 43
0.0
 43
0.0008202099737533
 43
0.0
 43
0.0
 43
0.0
 43
0.0
 43
1.0
 43
0.0
 43
0.0
 43
0.0
 43
0.0
 43
1.0
 77
     0
 47
0.0008202099737533
 47
0.0
 47
0.0
 47
0.0
 47
0.0
 47
0.0008202099737533
 47
0.0
 47
0.0
 47
0.0
 47
0.0
 47
1.0
 47
0.0
 47
0.0
 47
0.0
 47
0.0
 47
1.0
171
     0
 49
0.0008202099737533
 49
0.0
 49
0.0
 49
0.0
 49
0.0
 49
0.0008202099737533
 49
0.0
 49
0.0
 49
0.0
 49
0.0
 49
1.0
 49
0.0
 49
0.0
 49
0.0
 49
0.0
 49
1.0
175
     0
142
0.0008202099737533
142
0.0
142
0.0
142
0.0
142
0.0
142
0.0008202099737533
142
0.0
142
0.0
142
0.0
142
0.0
142
1.0
142
0.0
142
0.0
142
0.0
142
0.0
142
1.0
179
     0
144
0.0008202099737533
144
0.0
144
0.0
144
0.0
144
0.0
144
0.0008202099737533
144
0.0
144
0.0
144
0.0
144
0.0
144
1.0
144
0.0
144
0.0
144
0.0
144
0.0
144
1.0
147
0.0008202099737533
147
0.0
147
0.0
147
0.0
147
0.0
147
0.0008202099737533
147
0.0
147
0.0
147
0.0
147
0.0
147
1.0
147
0.0
147
0.0
147
0.0
147
0.0
147
1.0
  0
MATERIAL
  5
10015
102
{ACAD_XDICTIONARY
360
10016
102
}
102
{ACAD_REACTORS
330
10004
102
}
330
10004
100
AcDbMaterial
  1
Global
 72
     0
 43
0.0008202099737533
 43
0.0
 43
0.0
 43
0.0
 43
0.0
 43
0.0008202099737533
 43
0.0
 43
0.0
 43
0.0
 43
0.0
 43
1.0
 43
0.0
 43
0.0
 43
0.0
 43
0.0
 43
1.0
 77
     0
 47
0.0008202099737533
 47
0.0
 47
0.0
 47
0.0
 47
0.0
 47
0.0008202099737533
 47
0.0
 47
0.0
 47
0.0
 47
0.0
 47
1.0
 47
0.0
 47
0.0
 47
0.0
 47
0.0
 47
1.0
171
     0
 49
0.0008202099737533
 49
0.0
 49
0.0
 49
0.0
 49
0.0
 49
0.0008202099737533
 49
0.0
 49
0.0
 49
0.0
 49
0.0
 49
1.0
 49
0.0
 49
0.0
 49
0.0
 49
0.0
 49
1.0
175
     0
142
0.0008202099737533
142
0.0
142
0.0
142
0.0
142
0.0
142
0.0008202099737533
142
0.0
142
0.0
142
0.0
142
0.0
142
1.0
142
0.0
142
0.0
142
0.0
142
0.0
142
1.0
179
     0
144
0.0008202099737533
144
0.0
144
0.0
144
0.0
144
0.0
144
0.0008202099737533
144
0.0
144
0.0
144
0.0
144
0.0
144
1.0
144
0.0
144
0.0
144
0.0
144
0.0
144
1.0
147
0.0008202099737533
147
0.0
147
0.0
147
0.0
147
0.0
147
0.0008202099737533
147
0.0
147
0.0
147
0.0
147
0.0
147
1.0
147
0.0
147
0.0
147
0.0
147
0.0
147
1.0
  0
MLEADERSTYLE
  5
1004E
102
{ACAD_REACTORS
330
1004D
102
}
330
1004D
100
AcDbMLeaderStyle
179
     2
170
     2
171
     1
172
     0
 90
        2
 40
0.0
 41
0.0
173
     1
 91
-1056964608
340
14
 92
       -2
290
     1
 42
0.09
291
     1
 43
0.36
  3
Standard
 44
0.18
300

342
11
174
     1
178
     6
175
     1
176
     0
 93
-1056964608
 45
0.18
292
     0
297
     0
 46
0.18
 94
-1056964608
 47
1.0
 49
1.0
140
1.0
293
     1
141
0.0
294
     1
177
     0
142
1.0
295
     0
296
     0
143
0.125
271
     0
272
     9
273
     9
298
     0
  0
MLINESTYLE
  5
1003A
102
{ACAD_REACTORS
330
17
102
}
330
17
100
AcDbMlineStyle
  2
STANDARD
 70
     0
  3

 62
   256
 51
90.0
 52
90.0
 71
     2
 49
0.5
 62
   256
  6
BYLAYER
 49
-0.5
 62
   256
  6
BYLAYER
  0
ACDBPLACEHOLDER
  5
10003
102
{ACAD_REACTORS
330
10002
102
}
330
10002
  0
SCALE
  5
1003C
102
{ACAD_REACTORS
330
1003B
102
}
330
1003B
100
AcDbScale
 70
     0
300
1:1
140
1.0
141
1.0
290
     1
  0
SCALE
  5
1003D
102
{ACAD_REACTORS
330
1003B
102
}
330
1003B
100
AcDbScale
 70
     0
300
1/128" = 1'-0"
140
0.0078125
141
12.0
290
     0
  0
SCALE
  5
1003E
102
{ACAD_REACTORS
330
1003B
102
}
330
1003B
100
AcDbScale
 70
     0
300
1/64" = 1'-0"
140
0.015625
141
12.0
290
     0
  0
SCALE
  5
1003F
102
{ACAD_REACTORS
330
1003B
102
}
330
1003B
100
AcDbScale
 70
     0
300
1/32" = 1'-0"
140
0.03125
141
12.0
290
     0
  0
SCALE
  5
10040
102
{ACAD_REACTORS
330
1003B
102
}
330
1003B
100
AcDbScale
 70
     0
300
1/16" = 1'-0"
140
0.0625
141
12.0
290
     0
  0
SCALE
  5
10041
102
{ACAD_REACTORS
330
1003B
102
}
330
1003B
100
AcDbScale
 70
     0
300
3/32" = 1'-0"
140
0.09375
141
12.0
290
     0
  0
SCALE
  5
10042
102
{ACAD_REACTORS
330
1003B
102
}
330
1003B
100
AcDbScale
 70
     0
300
1/8" = 1'-0"
140
0.125
141
12.0
290
     0
  0
SCALE
  5
10043
102
{ACAD_REACTORS
330
1003B
102
}
330
1003B
100
AcDbScale
 70
     0
300
3/16" = 1'-0"
140
0.1875
141
12.0
290
     0
  0
SCALE
  5
10044
102
{ACAD_REACTORS
330
1003B
102
}
330
1003B
100
AcDbScale
 70
     0
300
1/4" = 1'-0"
140
0.25
141
12.0
290
     0
  0
SCALE
  5
10045
102
{ACAD_REACTORS
330
1003B
102
}
330
1003B
100
AcDbScale
 70
     0
300
3/8" = 1'-0"
140
0.375
141
12.0
290
     0
  0
SCALE
  5
10046
102
{ACAD_REACTORS
330
1003B
102
}
330
1003B
100
AcDbScale
 70
     0
300
1/2" = 1'-0"
140
0.5
141
12.0
290
     0
  0
SCALE
  5
10047
102
{ACAD_REACTORS
330
1003B
102
}
330
1003B
100
AcDbScale
 70
     0
300
3/4" = 1'-0"
140
0.75
141
12.0
290
     0
  0
SCALE
  5
10048
102
{ACAD_REACTORS
330
1003B
102
}
330
1003B
100
AcDbScale
 70
     0
300
1" = 1'-0"
140
1.0
141
12.0
290
     0
  0
SCALE
  5
10049
102
{ACAD_REACTORS
330
1003B
102
}
330
1003B
100
AcDbScale
 70
     0
300
1-1/2" = 1'-0"
140
1.5
141
12.0
290
     0
  0
SCALE
  5
1004A
102
{ACAD_REACTORS
330
1003B
102
}
330
1003B
100
AcDbScale
 70
     0
300
3" = 1'-0"
140
3.0
141
12.0
290
     0
  0
SCALE
  5
1004B
102
{ACAD_REACTORS
330
1003B
102
}
330
1003B
100
AcDbScale
 70
     0
300
6" = 1'-0"
140
6.0
141
12.0
290
     0
  0
SCALE
  5
1004C
102
{ACAD_REACTORS
330
1003B
102
}
330
1003B
100
AcDbScale
 70
     0
300
1'-0" = 1'-0"
140
12.0
141
12.0
290
     0
  0
ACDBSECTIONVIEWSTYLE
  5
10050
102
{ACAD_XDICTIONARY
360
1007F
102
}
102
{ACAD_REACTORS
330
1004F
102
}
330
1004F
100
AcDbModelDocViewStyle
 70
     0
  3
Imperial24
290
     0
100
AcDbSectionViewStyle
 70
     0
 71
     0
 90
       78
 71
     1
340
11
 62
   256
 40
0.24
340
0
340
0
 62
   256
 40
0.24
300
I, O, Q, S, X, Z
 40
0.48
 90
        3
 40
0.18
 90
        1
 71
     2
340
10001
 90
       25
 62
   256
340
10001
 90
       50
 62
   256
 40
0.24
 40
0.0
 40
0.24
 71
     3
340
11
 62
   256
 40
0.24
 90
        1
 40
0.75
 90
        1
300
%<\AcVar ViewType \f "%tc1">% %<\AcVar ViewSectionStartId>%-%<\AcVar ViewSectionEndId>%\PSCALE %<\AcVar ViewScale \f "%sn">%
 71
     4
 62
   256
 62
   257
300
ANSI31
 40
1.0
 90
        0
290
     0
290
     0
 90
        6
 40
0.0
 40
1.570796326794896
 40
0.2617993877991494
 40
1.308996938995747
 40
-0.2617993877991494
 40
1.832595714594046
  0
TABLESTYLE
  5
10039
102
{ACAD_XDICTIONARY
360
10074
102
}
102
{ACAD_REACTORS
330
10038
102
}
330
10038
100
AcDbTableStyle
280
     0
  3
Standard
 70
     0
 71
     0
 40
0.06
 41
0.06
280
     0
281
     0
  7
STANDARD
140
0.18
170
     2
 62
     0
 63
     7
283
     0
 90
      512
 91
        0
  1

274
    -2
284
     1
 64
     0
275
    -2
285
     1
 65
     0
276
    -2
286
     1
 66
     0
277
    -2
287
     1
 67
     0
278
    -2
288
     1
 68
     0
279
    -2
289
     1
 69
     0
  7
STANDARD
140
0.25
170
     5
 62
     0
 63
     7
283
     0
 90
      512
 91
        0
  1

274
    -2
284
     1
 64
     0
275
    -2
285
     1
 65
     0
276
    -2
286
     1
 66
     0
277
    -2
287
     1
 67
     0
278
    -2
288
     1
 68
     0
279
    -2
289
     1
 69
     0
  7
STANDARD
140
0.18
170
     5
 62
     0
 63
     7
283
     0
 90
      512
 91
        0
  1

274
    -2
284
     1
 64
     0
275
    -2
285
     1
 65
     0
276
    -2
286
     1
 66
     0
277
    -2
287
     1
 67
     0
278
    -2
288
     1
 68
     0
279
    -2
289
     1
 69
     0
  0
VISUALSTYLE
  5
10023
102
{ACAD_REACTORS
330
1001D
102
}
330
1001D
100
AcDbVisualStyle
  2
2dWireframe
 70
     4
177
     3
291
     0
 70
    58
 90
        0
176
     1
 90
        2
176
     1
 90
        0
176
     1
 90
        0
176
     1
 40
0.6
176
     1
 40
30.0
176
     1
 62
     7
420
 16777215
176
     1
 90
        1
176
     1
 90
        4
176
     1
 62
     7
176
     1
 62
   257
176
     1
 90
        1
176
     1
 90
        1
176
     1
 40
1.0
176
     1
 90
        0
176
     1
 62
   257
176
     1
 40
1.0
176
     1
 90
        1
176
     1
 90
        6
176
     1
 90
        2
176
     1
 62
     7
176
     1
 90
        5
176
     1
 90
        0
176
     1
 90
        0
176
     1
290
     0
176
     1
 90
        1
176
     1
 40
0.0
176
     1
 90
        0
176
     1
290
     1
176
     1
290
     1
176
     1
290
     0
176
     1
290
     0
176
     1
290
     0
176
     1
290
     0
176
     1
290
     0
176
     1
290
     0
176
     1
290
     0
176
     1
 90
       50
176
     1
 40
0.0
176
     1
 40
1.0
176
     1
 90
        0
176
     1
 62
    18
420
        0
176
     1
 90
       50
176
     1
 90
        3
176
     1
 62
     5
420
      255
176
     1
290
     0
176
     1
 90
       50
176
     1
 90
       50
176
     1
 90
       50
176
     1
290
     0
176
     1
 90
       50
176
     1
 62
   256
176
     0
 40
1.0
176
     0
 90
        2
176
     1
  1
strokes_ogs.tif
176
     1
290
     0
176
     1
 40
1.0
176
     1
 40
1.0
176
     1
1001
ACAD
1000
AcDbSavedByObjectVersion
1070
     0
  0
VISUALSTYLE
  5
10022
102
{ACAD_REACTORS
330
1001D
102
}
330
1001D
100
AcDbVisualStyle
  2
Basic
 70
     7
177
     3
291
     1
 70
    58
 90
        1
176
     1
 90
        0
176
     1
 90
        1
176
     1
 90
        0
176
     1
 40
0.6
176
     1
 40
30.0
176
     1
 62
     7
420
 16777215
176
     1
 90
        0
176
     1
 90
        4
176
     1
 62
     7
176
     1
 62
   257
176
     1
 90
        1
176
     1
 90
        1
176
     1
 40
1.0
176
     1
 90
        8
176
     1
 62
     7
176
     1
 40
1.0
176
     1
 90
        1
176
     1
 90
        6
176
     1
 90
        2
176
     1
 62
     7
176
     1
 90
        5
176
     1
 90
        0
176
     1
 90
        0
176
     1
290
     0
176
     1
 90
        1
176
     1
 40
0.0
176
     1
 90
        0
176
     1
290
     0
176
     1
290
     1
176
     1
290
     1
176
     1
290
     0
176
     1
290
     0
176
     1
290
     0
176
     1
290
     0
176
     1
290
     0
176
     1
290
     0
176
     1
 90
       50
176
     1
 40
0.0
176
     1
 40
1.0
176
     1
 90
        0
176
     1
 62
    18
420
        0
176
     1
 90
       50
176
     1
 90
        3
176
     1
 62
     5
420
      255
176
     1
290
     0
176
     1
 90
       50
176
     1
 90
       50
176
     1
 90
       50
176
     1
290
     0
176
     1
 90
       50
176
     1
 62
   256
176
     0
 40
1.0
176
     0
 90
        2
176
     1
  1
strokes_ogs.tif
176
     1
290
     0
176
     1
 40
1.0
176
     1
 40
1.0
176
     1
1001
ACAD
1000
AcDbSavedByObjectVersion
1070
     0
  0
VISUALSTYLE
  5
10029
102
{ACAD_REACTORS
330
1001D
102
}
330
1001D
100
AcDbVisualStyle
  2
Brighten
 70
    12
177
     3
291
     1
 70
    58
 90
        2
176
     1
 90
        2
176
     1
 90
        0
176
     1
 90
        0
176
     1
 40
0.6
176
     1
 40
30.0
176
     1
 62
     7
420
 16777215
176
     1
 90
        1
176
     1
 90
        4
176
     1
 62
     7
176
     1
 62
   257
176
     1
 90
        1
176
     1
 90
        1
176
     1
 40
1.0
176
     1
 90
        8
176
     1
 62
     7
176
     1
 40
1.0
176
     1
 90
        1
176
     1
 90
        6
176
     1
 90
        2
176
     1
 62
     7
176
     1
 90
        5
176
     1
 90
        0
176
     1
 90
        0
176
     1
290
     0
176
     1
 90
        1
176
     1
 40
50.0
176
     1
 90
        0
176
     1
290
     0
176
     1
290
     1
176
     1
290
     1
176
     1
290
     0
176
     1
290
     0
176
     1
290
     0
176
     1
290
     0
176
     1
290
     0
176
     1
290
     0
176
     1
 90
       50
176
     1
 40
0.0
176
     1
 40
1.0
176
     1
 90
        0
176
     1
 62
    18
420
        0
176
     1
 90
       50
176
     1
 90
        3
176
     1
 62
     5
420
      255
176
     1
290
     0
176
     1
 90
       50
176
     1
 90
       50
176
     1
 90
       50
176
     1
290
     0
176
     1
 90
       50
176
     1
 62
   256
176
     0
 40
1.0
176
     0
 90
        2
176
     1
  1
strokes_ogs.tif
176
     1
290
     0
176
     1
 40
1.0
176
     1
 40
1.0
176
     1
1001
ACAD
1000
AcDbSavedByObjectVersion
1070
     0
  0
VISUALSTYLE
  5
1002D
102
{ACAD_REACTORS
330
1001D
102
}
330
1001D
100
AcDbVisualStyle
  2
ColorChange
 70
    16
177
     3
291
     1
 70
    58
 90
        2
176
     1
 90
        2
176
     1
 90
        3
176
     1
 90
        0
176
     1
 40
0.6
176
     1
 40
30.0
176
     1
 62
     8
420
  8421504
176
     1
 90
        1
176
     1
 90
        4
176
     1
 62
     7
176
     1
 62
   257
176
     1
 90
        1
176
     1
 90
        1
176
     1
 40
1.0
176
     1
 90
        8
176
     1
 62
     8
420
  8421504
176
     1
 40
1.0
176
     1
 90
        1
176
     1
 90
        6
176
     1
 90
        2
176
     1
 62
     7
176
     1
 90
        5
176
     1
 90
        0
176
     1
 90
        0
176
     1
290
     0
176
     1
 90
        1
176
     1
 40
0.0
176
     1
 90
        0
176
     1
290
     0
176
     1
290
     1
176
     1
290
     1
176
     1
290
     0
176
     1
290
     0
176
     1
290
     0
176
     1
290
     0
176
     1
290
     0
176
     1
290
     0
176
     1
 90
       50
176
     1
 40
0.0
176
     1
 40
1.0
176
     1
 90
        0
176
     1
 62
    18
420
        0
176
     1
 90
       50
176
     1
 90
        3
176
     1
 62
     5
420
      255
176
     1
290
     0
176
     1
 90
       50
176
     1
 90
       50
176
     1
 90
       50
176
     1
290
     0
176
     1
 90
       50
176
     1
 62
   256
176
     0
 40
1.0
176
     0
 90
        2
176
     1
  1
strokes_ogs.tif
176
     1
290
     0
176
     1
 40
1.0
176
     1
 40
1.0
176
     1
1001
ACAD
1000
AcDbSavedByObjectVersion
1070
     0
  0
VISUALSTYLE
  5
10026
102
{ACAD_REACTORS
330
1001D
102
}
330
1001D
100
AcDbVisualStyle
  2
Conceptual
 70
     9
177
     3
291
     0
 70
    58
 90
        3
176
     1
 90
        2
176
     1
 90
        0
176
     1
 90
        0
176
     1
 40
0.6
176
     1
 40
30.0
176
     1
 62
     7
420
 16777215
176
     1
 90
        2
176
     1
 90
        2
176
     1
 62
     7
176
     1
 62
   257
176
     1
 90
        1
176
     1
 90
        1
176
     1
 40
179.0
176
     1
 90
        8
176
     1
 62
     7
176
     1
 40
1.0
176
     1
 90
        1
176
     1
 90
        6
176
     1
 90
        2
176
     1
 62
     7
176
     1
 90
        3
176
     1
 90
        0
176
     1
 90
        0
176
     1
290
     0
176
     1
 90
        1
176
     1
 40
0.0
176
     1
 90
        0
176
     1
290
     0
176
     1
290
     1
176
     1
290
     1
176
     1
290
     0
176
     1
290
     0
176
     1
290
     0
176
     1
290
     0
176
     1
290
     0
176
     1
290
     0
176
     1
 90
       50
176
     1
 40
0.0
176
     1
 40
1.0
176
     1
 90
        0
176
     1
 62
    18
420
        0
176
     1
 90
       50
176
     1
 90
        3
176
     1
 62
     5
420
      255
176
     1
290
     0
176
     1
 90
       50
176
     1
 90
       50
176
     1
 90
       50
176
     1
290
     0
176
     1
 90
       50
176
     1
 62
   256
176
     0
 40
1.0
176
     0
 90
        2
176
     1
  1
strokes_ogs.tif
176
     1
290
     0
176
     1
 40
1.0
176
     1
 40
1.0
176
     1
1001
ACAD
1000
AcDbSavedByObjectVersion
1070
     0
  0
VISUALSTYLE
  5
10028
102
{ACAD_REACTORS
330
1001D
102
}
330
1001D
100
AcDbVisualStyle
  2
Dim
 70
    11
177
     3
291
     1
 70
    58
 90
        2
176
     1
 90
        2
176
     1
 90
        0
176
     1
 90
        0
176
     1
 40
0.6
176
     1
 40
30.0
176
     1
 62
     7
420
 16777215
176
     1
 90
        1
176
     1
 90
        4
176
     1
 62
     7
176
     1
 62
   257
176
     1
 90
        1
176
     1
 90
        1
176
     1
 40
1.0
176
     1
 90
        8
176
     1
 62
     7
176
     1
 40
1.0
176
     1
 90
        1
176
     1
 90
        6
176
     1
 90
        2
176
     1
 62
     7
176
     1
 90
        5
176
     1
 90
        0
176
     1
 90
        0
176
     1
290
     0
176
     1
 90
        1
176
     1
 40
-50.0
176
     1
 90
        0
176
     1
290
     0
176
     1
290
     1
176
     1
290
     1
176
     1
290
     0
176
     1
290
     0
176
     1
290
     0
176
     1
290
     0
176
     1
290
     0
176
     1
290
     0
176
     1
 90
       50
176
     1
 40
0.0
176
     1
 40
1.0
176
     1
 90
        0
176
     1
 62
    18
420
        0
176
     1
 90
       50
176
     1
 90
        3
176
     1
 62
     5
420
      255
176
     1
290
     0
176
     1
 90
       50
176
     1
 90
       50
176
     1
 90
       50
176
     1
290
     0
176
     1
 90
       50
176
     1
 62
   256
176
     0
 40
1.0
176
     0
 90
        2
176
     1
  1
strokes_ogs.tif
176
     1
290
     0
176
     1
 40
1.0
176
     1
 40
1.0
176
     1
1001
ACAD
1000
AcDbSavedByObjectVersion
1070
     0
  0
VISUALSTYLE
  5
10035
102
{ACAD_REACTORS
330
1001D
102
}
330
1001D
100
AcDbVisualStyle
  2
EdgeColorOff
 70
    22
177
     3
291
     1
 70
    58
 90
        2
176
     0
 90
        2
176
     0
 90
        0
176
     0
 90
        0
176
     0
 40
0.6
176
     0
 40
30.0
176
     0
 62
     7
420
 16777215
176
     0
 90
        1
176
     0
 90
        4
176
     0
 62
     7
176
     0
 62
   257
176
     0
 90
        1
176
     0
 90
        1
176
     0
 40
1.0
176
     0
 90
        8
176
     2
 62
     7
176
     0
 40
1.0
176
     0
 90
        1
176
     0
 90
        6
176
     0
 90
        2
176
     0
 62
     7
176
     0
 90
        5
176
     0
 90
        0
176
     0
 90
        0
176
     0
290
     0
176
     0
 90
        1
176
     0
 40
0.0
176
     0
 90
        0
176
     0
290
     0
176
     1
290
     1
176
     1
290
     1
176
     1
290
     0
176
     1
290
     0
176
     1
290
     0
176
     1
290
     0
176
     1
290
     0
176
     1
290
     0
176
     1
 90
       50
176
     0
 40
0.0
176
     0
 40
1.0
176
     0
 90
        0
176
     0
 62
    18
420
        0
176
     0
 90
       50
176
     0
 90
        3
176
     0
 62
     5
420
      255
176
     0
290
     0
176
     1
 90
       50
176
     0
 90
       50
176
     0
 90
       50
176
     0
290
     0
176
     1
 90
       50
176
     0
 62
   256
176
     0
 40
1.0
176
     0
 90
        2
176
     0
  1
strokes_ogs.tif
176
     0
290
     0
176
     1
 40
1.0
176
     0
 40
1.0
176
     0
1001
ACAD
1000
AcDbSavedByObjectVersion
1070
     0
  0
VISUALSTYLE
  5
1002C
102
{ACAD_REACTORS
330
1001D
102
}
330
1001D
100
AcDbVisualStyle
  2
Facepattern
 70
    15
177
     3
291
     1
 70
    58
 90
        2
176
     1
 90
        2
176
     1
 90
        0
176
     1
 90
        0
176
     1
 40
0.6
176
     1
 40
30.0
176
     1
 62
     7
420
 16777215
176
     1
 90
        1
176
     1
 90
        4
176
     1
 62
     7
176
     1
 62
   257
176
     1
 90
        1
176
     1
 90
        1
176
     1
 40
1.0
176
     1
 90
        8
176
     1
 62
     7
176
     1
 40
1.0
176
     1
 90
        1
176
     1
 90
        6
176
     1
 90
        2
176
     1
 62
     7
176
     1
 90
        5
176
     1
 90
        0
176
     1
 90
        0
176
     1
290
     0
176
     1
 90
        1
176
     1
 40
0.0
176
     1
 90
        0
176
     1
290
     0
176
     1
290
     1
176
     1
290
     1
176
     1
290
     0
176
     1
290
     0
176
     1
290
     0
176
     1
290
     0
176
     1
290
     0
176
     1
290
     0
176
     1
 90
       50
176
     1
 40
0.0
176
     1
 40
1.0
176
     1
 90
        0
176
     1
 62
    18
420
        0
176
     1
 90
       50
176
     1
 90
        3
176
     1
 62
     5
420
      255
176
     1
290
     0
176
     1
 90
       50
176
     1
 90
       50
176
     1
 90
       50
176
     1
290
     0
176
     1
 90
       50
176
     1
 62
   256
176
     0
 40
1.0
176
     0
 90
        2
176
     1
  1
strokes_ogs.tif
176
     1
290
     0
176
     1
 40
1.0
176
     1
 40
1.0
176
     1
1001
ACAD
1000
AcDbSavedByObjectVersion
1070
     0
  0
VISUALSTYLE
  5
1001E
102
{ACAD_REACTORS
330
1001D
102
}
330
1001D
100
AcDbVisualStyle
  2
Flat
 70
     0
177
     3
291
     1
 70
    58
 90
        2
176
     1
 90
        1
176
     1
 90
        1
176
     1
 90
        2
176
     1
 40
0.6
176
     1
 40
30.0
176
     1
 62
     7
420
 16777215
176
     1
 90
        0
176
     1
 90
        0
176
     1
 62
     7
176
     1
 62
   257
176
     1
 90
        1
176
     1
 90
        1
176
     1
 40
1.0
176
     1
 90
        8
176
     1
 62
     7
176
     1
 40
1.0
176
     1
 90
        1
176
     1
 90
        6
176
     1
 90
        2
176
     1
 62
     7
176
     1
 90
        5
176
     1
 90
        0
176
     1
 90
        0
176
     1
290
     0
176
     1
 90
       13
176
     1
 40
0.0
176
     1
 90
        0
176
     1
290
     0
176
     1
290
     1
176
     1
290
     1
176
     1
290
     0
176
     1
290
     0
176
     1
290
     0
176
     1
290
     0
176
     1
290
     0
176
     1
290
     0
176
     1
 90
       50
176
     1
 40
0.0
176
     1
 40
1.0
176
     1
 90
        0
176
     1
 62
    18
420
        0
176
     1
 90
       50
176
     1
 90
        3
176
     1
 62
     5
420
      255
176
     1
290
     0
176
     1
 90
       50
176
     1
 90
       50
176
     1
 90
       50
176
     1
290
     0
176
     1
 90
       50
176
     1
 62
   256
176
     0
 40
1.0
176
     0
 90
        2
176
     1
  1
strokes_ogs.tif
176
     1
290
     0
176
     1
 40
1.0
176
     1
 40
1.0
176
     1
1001
ACAD
1000
AcDbSavedByObjectVersion
1070
     0
  0
VISUALSTYLE
  5
1001F
102
{ACAD_REACTORS
330
1001D
102
}
330
1001D
100
AcDbVisualStyle
  2
FlatWithEdges
 70
     1
177
     3
291
     1
 70
    58
 90
        2
176
     1
 90
        1
176
     1
 90
        1
176
     1
 90
        2
176
     1
 40
0.6
176
     1
 40
30.0
176
     1
 62
     7
420
 16777215
176
     1
 90
        1
176
     1
 90
        0
176
     1
 62
     7
176
     1
 62
   257
176
     1
 90
        1
176
     1
 90
        1
176
     1
 40
1.0
176
     1
 90
        0
176
     1
 62
   257
176
     1
 40
1.0
176
     1
 90
        1
176
     1
 90
        6
176
     1
 90
        2
176
     1
 62
     7
176
     1
 90
        5
176
     1
 90
        0
176
     1
 90
        0
176
     1
290
     0
176
     1
 90
       13
176
     1
 40
0.0
176
     1
 90
        0
176
     1
290
     0
176
     1
290
     1
176
     1
290
     1
176
     1
290
     0
176
     1
290
     0
176
     1
290
     0
176
     1
290
     0
176
     1
290
     0
176
     1
290
     0
176
     1
 90
       50
176
     1
 40
0.0
176
     1
 40
1.0
176
     1
 90
        0
176
     1
 62
    18
420
        0
176
     1
 90
       50
176
     1
 90
        3
176
     1
 62
     5
420
      255
176
     1
290
     0
176
     1
 90
       50
176
     1
 90
       50
176
     1
 90
       50
176
     1
290
     0
176
     1
 90
       50
176
     1
 62
   256
176
     0
 40
1.0
176
     0
 90
        2
176
     1
  1
strokes_ogs.tif
176
     1
290
     0
176
     1
 40
1.0
176
     1
 40
1.0
176
     1
1001
ACAD
1000
AcDbSavedByObjectVersion
1070
     0
  0
VISUALSTYLE
  5
10020
102
{ACAD_REACTORS
330
1001D
102
}
330
1001D
100
AcDbVisualStyle
  2
Gouraud
 70
     2
177
     3
291
     1
 70
    58
 90
        2
176
     1
 90
        2
176
     1
 90
        1
176
     1
 90
        2
176
     1
 40
0.6
176
     1
 40
30.0
176
     1
 62
     7
420
 16777215
176
     1
 90
        0
176
     1
 90
        0
176
     1
 62
     7
176
     1
 62
   257
176
     1
 90
        1
176
     1
 90
        1
176
     1
 40
1.0
176
     1
 90
        0
176
     1
 62
     7
176
     1
 40
1.0
176
     1
 90
        1
176
     1
 90
        6
176
     1
 90
        2
176
     1
 62
     7
176
     1
 90
        5
176
     1
 90
        0
176
     1
 90
        0
176
     1
290
     0
176
     1
 90
       13
176
     1
 40
0.0
176
     1
 90
        0
176
     1
290
     0
176
     1
290
     1
176
     1
290
     1
176
     1
290
     0
176
     1
290
     0
176
     1
290
     0
176
     1
290
     0
176
     1
290
     0
176
     1
290
     0
176
     1
 90
       50
176
     1
 40
0.0
176
     1
 40
1.0
176
     1
 90
        0
176
     1
 62
    18
420
        0
176
     1
 90
       50
176
     1
 90
        3
176
     1
 62
     5
420
      255
176
     1
290
     0
176
     1
 90
       50
176
     1
 90
       50
176
     1
 90
       50
176
     1
290
     0
176
     1
 90
       50
176
     1
 62
   256
176
     0
 40
1.0
176
     0
 90
        2
176
     1
  1
strokes_ogs.tif
176
     1
290
     0
176
     1
 40
1.0
176
     1
 40
1.0
176
     1
1001
ACAD
1000
AcDbSavedByObjectVersion
1070
     0
  0
VISUALSTYLE
  5
10021
102
{ACAD_REACTORS
330
1001D
102
}
330
1001D
100
AcDbVisualStyle
  2
GouraudWithEdges
 70
     3
177
     3
291
     1
 70
    58
 90
        2
176
     1
 90
        2
176
     1
 90
        1
176
     1
 90
        2
176
     1
 40
0.6
176
     1
 40
30.0
176
     1
 62
     7
420
 16777215
176
     1
 90
        1
176
     1
 90
        0
176
     1
 62
     7
176
     1
 62
   257
176
     1
 90
        1
176
     1
 90
        1
176
     1
 40
1.0
176
     1
 90
        0
176
     1
 62
   257
176
     1
 40
1.0
176
     1
 90
        1
176
     1
 90
        6
176
     1
 90
        2
176
     1
 62
     7
176
     1
 90
        5
176
     1
 90
        0
176
     1
 90
        0
176
     1
290
     0
176
     1
 90
       13
176
     1
 40
0.0
176
     1
 90
        0
176
     1
290
     0
176
     1
290
     1
176
     1
290
     1
176
     1
290
     0
176
     1
290
     0
176
     1
290
     0
176
     1
290
     0
176
     1
290
     0
176
     1
290
     0
176
     1
 90
       50
176
     1
 40
0.0
176
     1
 40
1.0
176
     1
 90
        0
176
     1
 62
    18
420
        0
176
     1
 90
       50
176
     1
 90
        3
176
     1
 62
     5
420
      255
176
     1
290
     0
176
     1
 90
       50
176
     1
 90
       50
176
     1
 90
       50
176
     1
290
     0
176
     1
 90
       50
176
     1
 62
   256
176
     0
 40
1.0
176
     0
 90
        2
176
     1
  1
strokes_ogs.tif
176
     1
290
     0
176
     1
 40
1.0
176
     1
 40
1.0
176
     1
1001
ACAD
1000
AcDbSavedByObjectVersion
1070
     0
  0
VISUALSTYLE
  5
10025
102
{ACAD_REACTORS
330
1001D
102
}
330
1001D
100
AcDbVisualStyle
  2
Hidden
 70
     6
177
     3
291
     0
 70
    58
 90
        1
176
     1
 90
        2
176
     1
 90
        2
176
     1
 90
        0
176
     1
 40
0.6
176
     1
 40
30.0
176
     1
 62
     7
420
 16777215
176
     1
 90
        2
176
     1
 90
        2
176
     1
 62
     7
176
     1
 62
   257
176
     1
 90
        2
176
     1
 90
        1
176
     1
 40
40.0
176
     1
 90
        0
176
     1
 62
   257
176
     1
 40
1.0
176
     1
 90
        1
176
     1
 90
        6
176
     1
 90
        2
176
     1
 62
     7
176
     1
 90
        3
176
     1
 90
        0
176
     1
 90
        0
176
     1
290
     0
176
     1
 90
        1
176
     1
 40
0.0
176
     1
 90
        0
176
     1
290
     0
176
     1
290
     1
176
     1
290
     1
176
     1
290
     0
176
     1
290
     0
176
     1
290
     0
176
     1
290
     0
176
     1
290
     0
176
     1
290
     0
176
     1
 90
       50
176
     1
 40
0.0
176
     1
 40
1.0
176
     1
 90
        0
176
     1
 62
    18
420
        0
176
     1
 90
       50
176
     1
 90
        3
176
     1
 62
     5
420
      255
176
     1
290
     0
176
     1
 90
       50
176
     1
 90
       50
176
     1
 90
       50
176
     1
290
     0
176
     1
 90
       50
176
     1
 62
   256
176
     0
 40
1.0
176
     0
 90
        2
176
     1
  1
strokes_ogs.tif
176
     1
290
     0
176
     1
 40
1.0
176
     1
 40
1.0
176
     1
1001
ACAD
1000
AcDbSavedByObjectVersion
1070
     0
  0
VISUALSTYLE
  5
10033
102
{ACAD_REACTORS
330
1001D
102
}
330
1001D
100
AcDbVisualStyle
  2
JitterOff
 70
    20
177
     3
291
     1
 70
    58
 90
        2
176
     0
 90
        2
176
     0
 90
        0
176
     0
 90
        0
176
     0
 40
0.6
176
     0
 40
30.0
176
     0
 62
     7
420
 16777215
176
     0
 90
        1
176
     0
 90
        4
176
     0
 62
     7
176
     0
 62
   257
176
     0
 90
        1
176
     0
 90
        1
176
     0
 40
1.0
176
     0
 90
       10
176
     2
 62
     7
176
     0
 40
1.0
176
     0
 90
        1
176
     0
 90
        6
176
     0
 90
        2
176
     0
 62
     7
176
     0
 90
        5
176
     0
 90
        0
176
     0
 90
        0
176
     0
290
     0
176
     0
 90
        1
176
     0
 40
0.0
176
     0
 90
        0
176
     0
290
     0
176
     1
290
     1
176
     1
290
     1
176
     1
290
     0
176
     1
290
     0
176
     1
290
     0
176
     1
290
     0
176
     1
290
     0
176
     1
290
     0
176
     1
 90
       50
176
     0
 40
0.0
176
     0
 40
1.0
176
     0
 90
        0
176
     0
 62
    18
420
        0
176
     0
 90
       50
176
     0
 90
        3
176
     0
 62
     5
420
      255
176
     0
290
     0
176
     1
 90
       50
176
     0
 90
       50
176
     0
 90
       50
176
     0
290
     0
176
     1
 90
       50
176
     0
 62
   256
176
     0
 40
1.0
176
     0
 90
        2
176
     0
  1
strokes_ogs.tif
176
     0
290
     0
176
     1
 40
1.0
176
     0
 40
1.0
176
     0
1001
ACAD
1000
AcDbSavedByObjectVersion
1070
     0
  0
VISUALSTYLE
  5
1002B
102
{ACAD_REACTORS
330
1001D
102
}
330
1001D
100
AcDbVisualStyle
  2
Linepattern
 70
    14
177
     3
291
     1
 70
    58
 90
        2
176
     1
 90
        2
176
     1
 90
        0
176
     1
 90
        0
176
     1
 40
0.6
176
     1
 40
30.0
176
     1
 62
     7
420
 16777215
176
     1
 90
        1
176
     1
 90
        4
176
     1
 62
     7
176
     1
 62
   257
176
     1
 90
        7
176
     1
 90
        7
176
     1
 40
1.0
176
     1
 90
        8
176
     1
 62
     7
176
     1
 40
1.0
176
     1
 90
        1
176
     1
 90
        6
176
     1
 90
        2
176
     1
 62
     7
176
     1
 90
        5
176
     1
 90
        0
176
     1
 90
        0
176
     1
290
     0
176
     1
 90
        1
176
     1
 40
0.0
176
     1
 90
        0
176
     1
290
     0
176
     1
290
     1
176
     1
290
     1
176
     1
290
     0
176
     1
290
     0
176
     1
290
     0
176
     1
290
     0
176
     1
290
     0
176
     1
290
     0
176
     1
 90
       50
176
     1
 40
0.0
176
     1
 40
1.0
176
     1
 90
        0
176
     1
 62
    18
420
        0
176
     1
 90
       50
176
     1
 90
        3
176
     1
 62
     5
420
      255
176
     1
290
     0
176
     1
 90
       50
176
     1
 90
       50
176
     1
 90
       50
176
     1
290
     0
176
     1
 90
       50
176
     1
 62
   256
176
     0
 40
1.0
176
     0
 90
        2
176
     1
  1
strokes_ogs.tif
176
     1
290
     0
176
     1
 40
1.0
176
     1
 40
1.0
176
     1
1001
ACAD
1000
AcDbSavedByObjectVersion
1070
     0
  0
VISUALSTYLE
  5
10034
102
{ACAD_REACTORS
330
1001D
102
}
330
1001D
100
AcDbVisualStyle
  2
OverhangOff
 70
    21
177
     3
291
     1
 70
    58
 90
        2
176
     0
 90
        2
176
     0
 90
        0
176
     0
 90
        0
176
     0
 40
0.6
176
     0
 40
30.0
176
     0
 62
     7
420
 16777215
176
     0
 90
        1
176
     0
 90
        4
176
     0
 62
     7
176
     0
 62
   257
176
     0
 90
        1
176
     0
 90
        1
176
     0
 40
1.0
176
     0
 90
        9
176
     2
 62
     7
176
     0
 40
1.0
176
     0
 90
        1
176
     0
 90
        6
176
     0
 90
        2
176
     0
 62
     7
176
     0
 90
        5
176
     0
 90
        0
176
     0
 90
        0
176
     0
290
     0
176
     0
 90
        1
176
     0
 40
0.0
176
     0
 90
        0
176
     0
290
     0
176
     1
290
     1
176
     1
290
     1
176
     1
290
     0
176
     1
290
     0
176
     1
290
     0
176
     1
290
     0
176
     1
290
     0
176
     1
290
     0
176
     1
 90
       50
176
     0
 40
0.0
176
     0
 40
1.0
176
     0
 90
        0
176
     0
 62
    18
420
        0
176
     0
 90
       50
176
     0
 90
        3
176
     0
 62
     5
420
      255
176
     0
290
     0
176
     1
 90
       50
176
     0
 90
       50
176
     0
 90
       50
176
     0
290
     0
176
     1
 90
       50
176
     0
 62
   256
176
     0
 40
1.0
176
     0
 90
        2
176
     0
  1
strokes_ogs.tif
176
     0
290
     0
176
     1
 40
1.0
176
     0
 40
1.0
176
     0
1001
ACAD
1000
AcDbSavedByObjectVersion
1070
     0
  0
VISUALSTYLE
  5
10027
102
{ACAD_REACTORS
330
1001D
102
}
330
1001D
100
AcDbVisualStyle
  2
Realistic
 70
     8
177
     3
291
     0
 70
    58
 90
        2
176
     1
 90
        3
176
     1
 90
        0
176
     1
 90
        2
176
     1
 40
0.6
176
     1
 40
30.0
176
     1
 62
     7
420
 16777215
176
     1
 90
        0
176
     1
 90
        0
176
     1
 62
     7
176
     1
 62
   257
176
     1
 90
        1
176
     1
 90
        1
176
     1
 40
1.0
176
     1
 90
        8
176
     1
 62
   257
176
     1
 40
1.0
176
     1
 90
        1
176
     1
 90
        6
176
     1
 90
        2
176
     1
 62
     7
176
     1
 90
        3
176
     1
 90
        0
176
     1
 90
        0
176
     1
290
     0
176
     1
 90
       13
176
     1
 40
0.0
176
     1
 90
        0
176
     1
290
     0
176
     1
290
     1
176
     1
290
     1
176
     1
290
     0
176
     1
290
     0
176
     1
290
     0
176
     1
290
     0
176
     1
290
     0
176
     1
290
     0
176
     1
 90
       50
176
     1
 40
0.0
176
     1
 40
1.0
176
     1
 90
        0
176
     1
 62
    18
420
        0
176
     1
 90
       50
176
     1
 90
        3
176
     1
 62
     5
420
      255
176
     1
290
     0
176
     1
 90
       50
176
     1
 90
       50
176
     1
 90
       50
176
     1
290
     0
176
     1
 90
       50
176
     1
 62
   256
176
     0
 40
1.0
176
     0
 90
        2
176
     1
  1
strokes_ogs.tif
176
     1
290
     0
176
     1
 40
1.0
176
     1
 40
1.0
176
     1
1001
ACAD
1000
AcDbSavedByObjectVersion
1070
     0
  0
VISUALSTYLE
  5
10032
102
{ACAD_REACTORS
330
1001D
102
}
330
1001D
100
AcDbVisualStyle
  2
Shaded
 70
    27
177
     3
291
     0
 70
    58
 90
        2
176
     1
 90
        2
176
     1
 90
        1
176
     1
 90
        2
176
     1
 40
0.6
176
     1
 40
30.0
176
     1
 62
     7
420
 16777215
176
     1
 90
        0
176
     1
 90
        4
176
     1
 62
     7
176
     1
 62
   257
176
     1
 90
        1
176
     1
 90
        1
176
     1
 40
1.0
176
     1
 90
        8
176
     1
 62
   257
176
     1
 40
1.0
176
     1
 90
        1
176
     1
 90
        6
176
     1
 90
        2
176
     1
 62
     8
420
  7895160
176
     1
 90
        3
176
     1
 90
        0
176
     1
 90
        0
176
     1
290
     0
176
     1
 90
        5
176
     1
 40
0.0
176
     1
 90
        0
176
     1
290
     0
176
     1
290
     1
176
     1
290
     1
176
     1
290
     0
176
     1
290
     0
176
     1
290
     0
176
     1
290
     0
176
     1
290
     0
176
     1
290
     0
176
     1
 90
       50
176
     1
 40
0.0
176
     1
 40
1.0
176
     1
 90
        0
176
     1
 62
    18
420
        0
176
     1
 90
       50
176
     1
 90
        3
176
     1
 62
     5
420
      255
176
     1
290
     0
176
     1
 90
       50
176
     1
 90
       50
176
     1
 90
       50
176
     1
290
     0
176
     1
 90
       50
176
     1
 62
   256
176
     0
 40
1.0
176
     0
 90
        2
176
     1
  1
strokes_ogs.tif
176
     1
290
     0
176
     1
 40
1.0
176
     1
 40
1.0
176
     1
1001
ACAD
1000
AcDbSavedByObjectVersion
1070
     0
  0
VISUALSTYLE
  5
10031
102
{ACAD_REACTORS
330
1001D
102
}
330
1001D
100
AcDbVisualStyle
  2
Shaded with edges
 70
    26
177
     3
291
     0
 70
    58
 90
        2
176
     1
 90
        2
176
     1
 90
        1
176
     1
 90
        2
176
     1
 40
0.6
176
     1
 40
30.0
176
     1
 62
     7
420
 16777215
176
     1
 90
        1
176
     1
 90
        2
176
     1
 62
     7
176
     1
 62
   257
176
     1
 90
        2
176
     1
 90
        1
176
     1
 40
1.0
176
     1
 90
        8
176
     1
 62
   257
176
     1
 40
1.0
176
     1
 90
        1
176
     1
 90
        6
176
     1
 90
        2
176
     1
 62
     7
176
     1
 90
        3
176
     1
 90
        0
176
     1
 90
        0
176
     1
290
     0
176
     1
 90
        5
176
     1
 40
0.0
176
     1
 90
        0
176
     1
290
     0
176
     1
290
     1
176
     1
290
     1
176
     1
290
     0
176
     1
290
     0
176
     1
290
     0
176
     1
290
     0
176
     1
290
     0
176
     1
290
     0
176
     1
 90
       50
176
     1
 40
0.0
176
     1
 40
1.0
176
     1
 90
        0
176
     1
 62
    18
420
        0
176
     1
 90
       50
176
     1
 90
        3
176
     1
 62
     5
420
      255
176
     1
290
     0
176
     1
 90
       50
176
     1
 90
       50
176
     1
 90
       50
176
     1
290
     0
176
     1
 90
       50
176
     1
 62
   256
176
     0
 40
1.0
176
     0
 90
        2
176
     1
  1
strokes_ogs.tif
176
     1
290
     0
176
     1
 40
1.0
176
     1
 40
1.0
176
     1
1001
ACAD
1000
AcDbSavedByObjectVersion
1070
     0
  0
VISUALSTYLE
  5
1002E
102
{ACAD_REACTORS
330
1001D
102
}
330
1001D
100
AcDbVisualStyle
  2
Shades of Gray
 70
    23
177
     3
291
     0
 70
    58
 90
        2
176
     1
 90
        2
176
     1
 90
        3
176
     1
 90
        0
176
     1
 40
0.6
176
     1
 40
30.0
176
     1
 62
     7
420
 16777215
176
     1
 90
        2
176
     1
 90
        2
176
     1
 62
     7
176
     1
 62
     7
176
     1
 90
        1
176
     1
 90
        1
176
     1
 40
40.0
176
     1
 90
        8
176
     1
 62
     7
176
     1
 40
1.0
176
     1
 90
        1
176
     1
 90
        6
176
     1
 90
        2
176
     1
 62
     7
176
     1
 90
        3
176
     1
 90
        0
176
     1
 90
        0
176
     1
290
     0
176
     1
 90
        1
176
     1
 40
0.0
176
     1
 90
        0
176
     1
290
     0
176
     1
290
     1
176
     1
290
     1
176
     1
290
     0
176
     1
290
     0
176
     1
290
     0
176
     1
290
     0
176
     1
290
     0
176
     1
290
     0
176
     1
 90
       50
176
     1
 40
0.0
176
     1
 40
1.0
176
     1
 90
        0
176
     1
 62
    18
420
        0
176
     1
 90
       50
176
     1
 90
        3
176
     1
 62
     5
420
      255
176
     1
290
     0
176
     1
 90
       50
176
     1
 90
       50
176
     1
 90
       50
176
     1
290
     0
176
     1
 90
       50
176
     1
 62
   256
176
     0
 40
1.0
176
     0
 90
        2
176
     1
  1
strokes_ogs.tif
176
     1
290
     0
176
     1
 40
1.0
176
     1
 40
1.0
176
     1
1001
ACAD
1000
AcDbSavedByObjectVersion
1070
     0
  0
VISUALSTYLE
  5
1002F
102
{ACAD_REACTORS
330
1001D
102
}
330
1001D
100
AcDbVisualStyle
  2
Sketchy
 70
    24
177
     3
291
     0
 70
    58
 90
        1
176
     1
 90
        2
176
     1
 90
        2
176
     1
 90
        0
176
     1
 40
0.6
176
     1
 40
30.0
176
     1
 62
     7
420
 16777215
176
     1
 90
        2
176
     1
 90
        2
176
     1
 62
     7
176
     1
 62
     7
176
     1
 90
        1
176
     1
 90
        1
176
     1
 40
40.0
176
     1
 90
       11
176
     1
 62
     7
176
     1
 40
1.0
176
     1
 90
        1
176
     1
 90
        6
176
     1
 90
        2
176
     1
 62
     7
176
     1
 90
        6
176
     1
 90
        0
176
     1
 90
        0
176
     1
290
     0
176
     1
 90
        1
176
     1
 40
0.0
176
     1
 90
        0
176
     1
290
     0
176
     1
290
     1
176
     1
290
     1
176
     1
290
     0
176
     1
290
     0
176
     1
290
     0
176
     1
290
     0
176
     1
290
     0
176
     1
290
     0
176
     1
 90
       50
176
     1
 40
0.0
176
     1
 40
1.0
176
     1
 90
        0
176
     1
 62
    18
420
        0
176
     1
 90
       50
176
     1
 90
        3
176
     1
 62
     5
420
      255
176
     1
290
     0
176
     1
 90
       50
176
     1
 90
       50
176
     1
 90
       50
176
     1
290
     0
176
     1
 90
       50
176
     1
 62
   256
176
     0
 40
1.0
176
     0
 90
        2
176
     1
  1
strokes_ogs.tif
176
     1
290
     0
176
     1
 40
1.0
176
     1
 40
1.0
176
     1
1001
ACAD
1000
AcDbSavedByObjectVersion
1070
     0
  0
VISUALSTYLE
  5
1002A
102
{ACAD_REACTORS
330
1001D
102
}
330
1001D
100
AcDbVisualStyle
  2
Thicken
 70
    13
177
     3
291
     1
 70
    58
 90
        2
176
     1
 90
        2
176
     1
 90
        0
176
     1
 90
        0
176
     1
 40
0.6
176
     1
 40
30.0
176
     1
 62
     7
420
 16777215
176
     1
 90
        1
176
     1
 90
        4
176
     1
 62
     7
176
     1
 62
   257
176
     1
 90
        1
176
     1
 90
        1
176
     1
 40
1.0
176
     1
 90
       12
176
     1
 62
     7
176
     1
 40
1.0
176
     1
 90
        1
176
     1
 90
        6
176
     1
 90
        2
176
     1
 62
     7
176
     1
 90
        5
176
     1
 90
        0
176
     1
 90
        0
176
     1
290
     0
176
     1
 90
        1
176
     1
 40
0.0
176
     1
 90
        0
176
     1
290
     0
176
     1
290
     1
176
     1
290
     1
176
     1
290
     0
176
     1
290
     0
176
     1
290
     0
176
     1
290
     0
176
     1
290
     0
176
     1
290
     0
176
     1
 90
       50
176
     1
 40
0.0
176
     1
 40
1.0
176
     1
 90
        0
176
     1
 62
    18
420
        0
176
     1
 90
       50
176
     1
 90
        3
176
     1
 62
     5
420
      255
176
     1
290
     0
176
     1
 90
       50
176
     1
 90
       50
176
     1
 90
       50
176
     1
290
     0
176
     1
 90
       50
176
     1
 62
   256
176
     0
 40
1.0
176
     0
 90
        2
176
     1
  1
strokes_ogs.tif
176
     1
290
     0
176
     1
 40
1.0
176
     1
 40
1.0
176
     1
1001
ACAD
1000
AcDbSavedByObjectVersion
1070
     0
  0
VISUALSTYLE
  5
10024
102
{ACAD_REACTORS
330
1001D
102
}
330
1001D
100
AcDbVisualStyle
  2
Wireframe
 70
     5
177
     3
291
     0
 70
    58
 90
        0
176
     1
 90
        2
176
     1
 90
        0
176
     1
 90
        0
176
     1
 40
0.6
176
     1
 40
30.0
176
     1
 62
     7
420
 16777215
176
     1
 90
        1
176
     1
 90
        4
176
     1
 62
     7
176
     1
 62
   257
176
     1
 90
        1
176
     1
 90
        1
176
     1
 40
1.0
176
     1
 90
        0
176
     1
 62
   257
176
     1
 40
1.0
176
     1
 90
        1
176
     1
 90
        6
176
     1
 90
        2
176
     1
 62
     7
176
     1
 90
        3
176
     1
 90
        0
176
     1
 90
        0
176
     1
290
     0
176
     1
 90
        1
176
     1
 40
0.0
176
     1
 90
        0
176
     1
290
     0
176
     1
290
     1
176
     1
290
     1
176
     1
290
     0
176
     1
290
     0
176
     1
290
     0
176
     1
290
     0
176
     1
290
     0
176
     1
290
     0
176
     1
 90
       50
176
     1
 40
0.0
176
     1
 40
1.0
176
     1
 90
        0
176
     1
 62
    18
420
        0
176
     1
 90
       50
176
     1
 90
        3
176
     1
 62
     5
420
      255
176
     1
290
     0
176
     1
 90
       50
176
     1
 90
       50
176
     1
 90
       50
176
     1
290
     0
176
     1
 90
       50
176
     1
 62
   256
176
     0
 40
1.0
176
     0
 90
        2
176
     1
  1
strokes_ogs.tif
176
     1
290
     0
176
     1
 40
1.0
176
     1
 40
1.0
176
     1
1001
ACAD
1000
AcDbSavedByObjectVersion
1070
     0
  0
VISUALSTYLE
  5
10030
102
{ACAD_REACTORS
330
1001D
102
}
330
1001D
100
AcDbVisualStyle
  2
X-Ray
 70
    25
177
     3
291
     0
 70
    58
 90
        2
176
     1
 90
        2
176
     1
 90
        1
176
     1
 90
        1
176
     1
 40
0.5
176
     1
 40
30.0
176
     1
 62
     7
420
 16777215
176
     1
 90
        1
176
     1
 90
        0
176
     1
 62
     7
176
     1
 62
   257
176
     1
 90
        1
176
     1
 90
        1
176
     1
 40
1.0
176
     1
 90
        8
176
     1
 62
     7
176
     1
 40
1.0
176
     1
 90
        1
176
     1
 90
        6
176
     1
 90
        2
176
     1
 62
     7
176
     1
 90
        3
176
     1
 90
        0
176
     1
 90
        0
176
     1
290
     0
176
     1
 90
       13
176
     1
 40
0.0
176
     1
 90
        0
176
     1
290
     0
176
     1
290
     1
176
     1
290
     1
176
     1
290
     0
176
     1
290
     0
176
     1
290
     0
176
     1
290
     0
176
     1
290
     0
176
     1
290
     0
176
     1
 90
       50
176
     1
 40
0.0
176
     1
 40
1.0
176
     1
 90
        0
176
     1
 62
    18
420
        0
176
     1
 90
       50
176
     1
 90
        3
176
     1
 62
     5
420
      255
176
     1
290
     0
176
     1
 90
       50
176
     1
 90
       50
176
     1
 90
       50
176
     1
290
     0
176
     1
 90
       50
176
     1
 62
   256
176
     0
 40
1.0
176
     0
 90
        2
176
     1
  1
strokes_ogs.tif
176
     1
290
     0
176
     1
 40
1.0
176
     1
 40
1.0
176
     1
1001
ACAD
1000
AcDbSavedByObjectVersion
1070
     0
  0
DICTIONARYVAR
  5
10070
102
{ACAD_REACTORS
330
1006A
102
}
330
1006A
100
DictionaryVariables
280
     0
  1
1:1
  0
DICTIONARYVAR
  5
1006C
102
{ACAD_REACTORS
330
1006A
102
}
330
1006A
100
DictionaryVariables
280
     0
  1
STANDARD
  0
DICTIONARYVAR
  5
1006B
102
{ACAD_REACTORS
330
1006A
102
}
330
1006A
100
DictionaryVariables
280
     0
  1
STANDARD
  0
DICTIONARYVAR
  5
1006D
102
{ACAD_REACTORS
330
1006A
102
}
330
1006A
100
DictionaryVariables
280
     0
  1
Imperial24
  0
DICTIONARYVAR
  5
1006E
102
{ACAD_REACTORS
330
1006A
102
}
330
1006A
100
DictionaryVariables
280
     0
  1
Imperial24
  0
DICTIONARYVAR
  5
10072
102
{ACAD_REACTORS
330
1006A
102
}
330
1006A
100
DictionaryVariables
280
     0
  1
1
  0
DICTIONARYVAR
  5
10073
102
{ACAD_REACTORS
330
1006A
102
}
330
1006A
100
DictionaryVariables
280
     0
  1
15
  0
DICTIONARYVAR
  5
10071
102
{ACAD_REACTORS
330
1006A
102
}
330
1006A
100
DictionaryVariables
280
     0
  1
0
  0
DICTIONARYVAR
  5
1006F
102
{ACAD_REACTORS
330
1006A
102
}
330
1006A
100
DictionaryVariables
280
     0
  1
0
  0
DICTIONARY
  5
1007E
102
{ACAD_REACTORS
330
1007C
102
}
330
1007C
100
AcDbDictionary
281
     1
  0
DICTIONARY
  5
1007D
102
{ACAD_REACTORS
330
1007C
102
}
330
1007C
100
AcDbDictionary
281
     1
  3
140269141740656
350
10077
  3
140269141740672
350
10078
  3
140269141740688
350
10079
  3
140269141740704
350
1007A
  3
140269141740720
350
1007B
  0
DICTIONARY
  5
10081
330
10052
100
AcDbDictionary
280
     1
281
     1
  3
ACAD_XREC_ROUNDTRIP
360
10082
  0
DICTIONARY
  5
1000E
330
1000D
100
AcDbDictionary
280
     1
281
     1
  3
BUMPTILE
360
10010
  3
DIFFUSETILE
360
1000F
  3
OPACITYTILE
360
10013
  3
REFLECTIONTILE
360
10012
  3
REFRACTIONTILE
360
10014
  3
SPECULARTILE
360
10011
  0
DICTIONARY
  5
10006
330
10005
100
AcDbDictionary
280
     1
281
     1
  3
BUMPTILE
360
10008
  3
DIFFUSETILE
360
10007
  3
OPACITYTILE
360
1000B
  3
REFLECTIONTILE
360
1000A
  3
REFRACTIONTILE
360
1000C
  3
SPECULARTILE
360
10009
  0
DICTIONARY
  5
10016
330
10015
100
AcDbDictionary
280
     1
281
     1
  3
BUMPTILE
360
10018
  3
DIFFUSETILE
360
10017
  3
OPACITYTILE
360
1001B
  3
REFLECTIONTILE
360
1001A
  3
REFRACTIONTILE
360
1001C
  3
SPECULARTILE
360
10019
  0
DICTIONARY
  5
1007F
330
10050
100
AcDbDictionary
280
     1
281
     1
  3
ACAD_XREC_ROUNDTRIP
360
10080
  0
DICTIONARY
  5
10074
330
10039
100
AcDbDictionary
280
     1
281
     1
  3
ACAD_ROUNDTRIP_2008_TABLESTYLE_CELLSTYLEMAP
360
10075
  0
XRECORD
  5
10077
102
{ACAD_REACTORS
330
1007D
102
}
330
1007D
100
AcDbXrecord
280
     1
  1
AcDb_Thumbnail_Schema
102
{ATTRRECORD
341
10078
  2
AcDbDs::TreatedAsObjectData
280
     1
291
     1
102
ATTRRECORD}
102
{ATTRRECORD
341
10079
  2
AcDbDs::Legacy
280
     1
291
     1
102
ATTRRECORD}
  2
AcDbDs::ID
280
    10
 91
        8
102
{ATTRRECORD
341
1007A
  2
AcDs:Indexable
280
     1
291
     1
102
ATTRRECORD}
102
{ATTRRECORD
341
1007B
  2
AcDbDs::HandleAttribute
280
     7
282
     1
102
ATTRRECORD}
  2
Thumbnail_Data
280
    15
 91
        0
  0
XRECORD
  5
10078
102
{ACAD_REACTORS
330
1007D
102
}
330
1007D
100
AcDbXrecord
280
     1
  1
AcDbDs::TreatedAsObjectDataSchema
  2
AcDbDs::TreatedAsObjectData
280
     1
 91
        0
  0
XRECORD
  5
10079
102
{ACAD_REACTORS
330
1007D
102
}
330
1007D
100
AcDbXrecord
280
     1
  1
AcDbDs::LegacySchema
  2
AcDbDs::Legacy
280
     1
 91
        0
  0
XRECORD
  5
1007A
102
{ACAD_REACTORS
330
1007D
102
}
330
1007D
100
AcDbXrecord
280
     1
  1
AcDbDs::IndexedPropertySchema
  2
AcDs:Indexable
280
     1
 91
        0
  0
XRECORD
  5
1007B
102
{ACAD_REACTORS
330
1007D
102
}
330
1007D
100
AcDbXrecord
280
     1
  1
AcDbDs::HandleAttributeSchema
  2
AcDbDs::HandleAttribute
280
     7
 91
        1
284
     1
  0
XRECORD
  5
10082
102
{ACAD_REACTORS
330
10081
102
}
330
10081
100
AcDbXrecord
280
     1
102
DISPLAYNAME
  1
Imperial24
102
FLAGS
 90
        0
  0
XRECORD
  5
10010
102
{ACAD_REACTORS
330
1000E
102
}
330
1000E
100
AcDbXrecord
280
     1
270
     1
271
     1
  0
XRECORD
  5
1000F
102
{ACAD_REACTORS
330
1000E
102
}
330
1000E
100
AcDbXrecord
280
     1
270
     1
271
     1
  0
XRECORD
  5
10013
102
{ACAD_REACTORS
330
1000E
102
}
330
1000E
100
AcDbXrecord
280
     1
270
     1
271
     1
  0
XRECORD
  5
10012
102
{ACAD_REACTORS
330
1000E
102
}
330
1000E
100
AcDbXrecord
280
     1
270
     1
271
     1
  0
XRECORD
  5
10014
102
{ACAD_REACTORS
330
1000E
102
}
330
1000E
100
AcDbXrecord
280
     1
270
     1
271
     1
  0
XRECORD
  5
10011
102
{ACAD_REACTORS
330
1000E
102
}
330
1000E
100
AcDbXrecord
280
     1
270
     1
271
     1
  0
XRECORD
  5
10008
102
{ACAD_REACTORS
330
10006
102
}
330
10006
100
AcDbXrecord
280
     1
270
     1
271
     1
  0
XRECORD
  5
10007
102
{ACAD_REACTORS
330
10006
102
}
330
10006
100
AcDbXrecord
280
     1
270
     1
271
     1
  0
XRECORD
  5
1000B
102
{ACAD_REACTORS
330
10006
102
}
330
10006
100
AcDbXrecord
280
     1
270
     1
271
     1
  0
XRECORD
  5
1000A
102
{ACAD_REACTORS
330
10006
102
}
330
10006
100
AcDbXrecord
280
     1
270
     1
271
     1
  0
XRECORD
  5
1000C
102
{ACAD_REACTORS
330
10006
102
}
330
10006
100
AcDbXrecord
280
     1
270
     1
271
     1
  0
XRECORD
  5
10009
102
{ACAD_REACTORS
330
10006
102
}
330
10006
100
AcDbXrecord
280
     1
270
     1
271
     1
  0
XRECORD
  5
10018
102
{ACAD_REACTORS
330
10016
102
}
330
10016
100
AcDbXrecord
280
     1
270
     1
271
     1
  0
XRECORD
  5
10017
102
{ACAD_REACTORS
330
10016
102
}
330
10016
100
AcDbXrecord
280
     1
270
     1
271
     1
  0
XRECORD
  5
1001B
102
{ACAD_REACTORS
330
10016
102
}
330
10016
100
AcDbXrecord
280
     1
270
     1
271
     1
  0
XRECORD
  5
1001A
102
{ACAD_REACTORS
330
10016
102
}
330
10016
100
AcDbXrecord
280
     1
270
     1
271
     1
  0
XRECORD
  5
1001C
102
{ACAD_REACTORS
330
10016
102
}
330
10016
100
AcDbXrecord
280
     1
270
     1
271
     1
  0
XRECORD
  5
10019
102
{ACAD_REACTORS
330
10016
102
}
330
10016
100
AcDbXrecord
280
     1
270
     1
271
     1
  0
XRECORD
  5
10080
102
{ACAD_REACTORS
330
1007F
102
}
330
1007F
100
AcDbXrecord
280
     1
102
DISPLAYNAME
  1
Imperial24
102
FLAGS
 90
        0
  0
CELLSTYLEMAP
  5
10075
102
{ACAD_REACTORS
330
10074
102
}
330
10074
100
AcDbCellStyleMap
 90
        3
300
CELLSTYLE
  1
TABLEFORMAT_BEGIN
 90
        5
170
     1
 91
        0
 92
    32768
 62
   257
 93
        1
300
CONTENTFORMAT
  1
CONTENTFORMAT_BEGIN
 90
        0
 91
        0
 92
      512
 93
        0
300

 40
0.0
140
1.0
 94
        5
 62
     0
340
11
144
0.25
309
CONTENTFORMAT_END
171
     0
 94
        0
309
TABLEFORMAT_END
  1
CELLSTYLE_BEGIN
 90
        1
 91
        1
300
_TITLE
309
CELLSTYLE_END
300
CELLSTYLE
  1
TABLEFORMAT_BEGIN
 90
        5
170
     1
 91
        0
 92
        0
 62
   257
 93
        1
300
CONTENTFORMAT
  1
CONTENTFORMAT_BEGIN
 90
        0
 91
        0
 92
      512
 93
        0
300

 40
0.0
140
1.0
 94
        5
 62
     0
340
11
144
0.18
309
CONTENTFORMAT_END
171
     0
 94
        0
309
TABLEFORMAT_END
  1
CELLSTYLE_BEGIN
 90
        2
 91
        1
300
_HEADER
309
CELLSTYLE_END
300
CELLSTYLE
  1
TABLEFORMAT_BEGIN
 90
        5
170
     1
 91
        0
 92
        0
 62
   257
 93
        1
300
CONTENTFORMAT
  1
CONTENTFORMAT_BEGIN
 90
        0
 91
        0
 92
      512
 93
        0
300

 40
0.0
140
1.0
 94
        2
 62
     0
340
11
144
0.18
309
CONTENTFORMAT_END
171
     0
 94
        0
309
TABLEFORMAT_END
  1
CELLSTYLE_BEGIN
 90
        3
 91
        2
300
_DATA
309
CELLSTYLE_END
  0
ENDSEC
  0
SECTION
  2
ACDSDATA
 70
     2
 71
     8
  0
ACDSSCHEMA
 90
        0
  1
AcDb_Thumbnail_Schema
  2
AcDbDs::ID
280
    10
 91
        8
  2
Thumbnail_Data
280
    15
 91
        0
101
ACDSRECORD
 95
        0
 90
        1
  2
AcDbDs::TreatedAsObjectData
280
     1
291
     1
101
ACDSRECORD
 95
        0
 90
        2
  2
AcDbDs::Legacy
280
     1
291
     1
101
ACDSRECORD
  1
AcDbDs::ID
 90
        3
  2
AcDs:Indexable
280
     1
291
     1
101
ACDSRECORD
  1
AcDbDs::ID
 90
        4
  2
AcDbDs::HandleAttribute
280
     7
282
     1
  0
ACDSSCHEMA
 90
        1
  1
AcDbDs::TreatedAsObjectDataSchema
  2
AcDbDs::TreatedAsObjectData
280
     1
 91
        0
  0
ACDSSCHEMA
 90
        2
  1
AcDbDs::LegacySchema
  2
AcDbDs::Legacy
280
     1
 91
        0
  0
ACDSSCHEMA
 90
        3
  1
AcDbDs::IndexedPropertySchema
  2
AcDs:Indexable
280
     1
 91
        0
  0
ACDSSCHEMA
 90
        4
  1
AcDbDs::HandleAttributeSchema
  2
AcDbDs::HandleAttribute
280
     7
 91
        1
284
     1
  0
ACDSRECORD
 90
        0
  2
AcDbDs::ID
280
    10
320
10055
  2
Thumbnail_Data
280
    15
 94
     1542
310
89504E470D0A1A0A0000000D4948445200000100000000A90803000000F3C813C600000300504C5445212830FFFFFF2128300000000000000000000000000000000000000000000000000000330000660000990000CC0000FF0033000033330033660033990033CC0033FF0066000066330066660066990066CC0066FF0099
310
000099330099660099990099CC0099FF00CC0000CC3300CC6600CC9900CCCC00CCFF00FF0000FF3300FF6600FF9900FFCC00FFFF3300003300333300663300993300CC3300FF3333003333333333663333993333CC3333FF3366003366333366663366993366CC3366FF3399003399333399663399993399CC3399FF33CC00
310
33CC3333CC6633CC9933CCCC33CCFF33FF0033FF3333FF6633FF9933FFCC33FFFF6600006600336600666600996600CC6600FF6633006633336633666633996633CC6633FF6666006666336666666666996666CC6666FF6699006699336699666699996699CC6699FF66CC0066CC3366CC6666CC9966CCCC66CCFF66FF0066
310
FF3366FF6666FF9966FFCC66FFFF9900009900339900669900999900CC9900FF9933009933339933669933999933CC9933FF9966009966339966669966999966CC9966FF9999009999339999669999999999CC9999FF99CC0099CC3399CC6699CC9999CCCC99CCFF99FF0099FF3399FF6699FF9999FFCC99FFFFCC0000CC00
310
33CC0066CC0099CC00CCCC00FFCC3300CC3333CC3366CC3399CC33CCCC33FFCC6600CC6633CC6666CC6699CC66CCCC66FFCC9900CC9933CC9966CC9999CC99CCCC99FFCCCC00CCCC33CCCC66CCCC99CCCCCCCCCCFFCCFF00CCFF33CCFF66CCFF99CCFFCCCCFFFFFF0000FF0033FF0066FF0099FF00CCFF00FFFF3300FF3333
310
FF3366FF3399FF33CCFF33FFFF6600FF6633FF6666FF6699FF66CCFF66FFFF9900FF9933FF9966FF9999FF99CCFF99FFFFCC00FFCC33FFCC66FFCC99FFCCCCFFCCFFFFFF00FFFF33FFFF66FFFF99FFFFCCFFFFFF0000000D0D0D1A1A1A2828283535354343435050505D5D5D6B6B6B787878868686939393A1A1A1AEAEAEBB
310
BBBBC9C9C9D6D6D6E4E4E4F1F1F1FFFFFF0000000000000000000000000000000000000000000000000000000000002E4550F1000002C14944415478DAED9BCB82A4200C45F3FFFF7BF7B3A81EE5111EDA4E60CA73369DAE12D46B4802166600000000000000000000000000000000000000000000000000000060A629AEB5
310
7BEE2C1102D4D75A7DA6413B9974E170A749B35DC0FDAB7E56F567DD76B2ECF1C9B993B287A249B35DC4FD3B9E38F6CEE2182B3B188F00FFB3F0913F393CEBA37AEDAE1D9D891C160DB479640E74FD44754D5976DDEA76EC8D32C5C53ED969C926ACB4C1ACD5EBB8BEE99058B0A500896720C07B0530BD7908340AB1EF1440
310
5614933FFF8709B0551A2C5CE21585503E7FC8E39E22CE9E9C6CBD1C8A9E1535A7264F7B7FBFE3F44AB2AB0AF10039F1E8F1F8D7EFF878F63F62857AC056027CFEBE5980D77B80F080551EA046FC591703A2B240969656A6C14480B8B5C1E805984E2128B7140AA8BCCAD5D8472BFCD94E4E778FF6806C2A9644812C389496
310
8E76E7ECC5B534B6E43CF4C818D0988B0E62592A5492C07A56B7E3624C4666817B023CBD7CE07AC03B05C003FE0F0FF83731E09316560AB0220BD445597816D8A50E705E8D7EF79AA076B8BCD64378629977DC898D5C2F38066463B161E9B3927E0CF5094B89757697C74AB991566B04B89200A62C4BADB4E26F2C452CCB02
310
53023C560220000220C02602287F1573A590792A0D36CBA3B83A20AB46DD036FBF3B54A3A6192EC605AE0AEBAFEB9DD57E761D934F44FD75D71D0B554D63727EB7A57A65D9F9DE3D5375058B2AC1E18B113B4A3F572FB3EAC7C2FEF732FF7700DD98B99F00E513AE05687D9F0B60B2AF10C02A019AEB3BDF29805E2740F926
310
E93D4340C70CAF8AE57782E04E025C62D4879306075DED94068B5A3D736CCDD425EA5682375E7BC67980DDDD3172D58176DB31D219BDFE761E3D7D96C57B86DA196C72D7D8F511E748123F079A196E93FB067F799A6DF60D06EDE9DC78E7280000000000000000000000000000000000000000000000000000C06EFC01AAF2
310
914AEDD8967C0000000049454E44AE426082
  0
ENDSEC
  0
EOF
