999
FreeCAD v0.21 33771 (Git)
  0
SECTION
  2
HEADER
  9
$ACADVER
  1
AC1014
  9
$ACADMAINTVER
 70
     9
  9
$DWGCODEPAGE
  3
ANSI_1252
  9
$TEXTSTYLE
  7
STANDARD
  9
$DIMSTYLE
  2
STANDARD
  9
$DIMTXSTY
  7
STANDARD
  9
$CMLSTYLE
  2
STANDARD
  9
$LUNITS
 70
2
  9
$INSUNITS
 70
4
  9
$PEXTMAX
 10
50
 20
50
 30
50
  9
$PEXTMIN
 10
0
 20
0
 30
0
  9
$HANDSEED
  5
FFFF
  0
ENDSEC
  0
SECTION
  2
CLASSES
  0
CLASS
  1
ACDBDICTIONARYWDFLT
  2
AcDbDictionaryWithDefault
  3
ObjectDBX Classes
 90
        0
280
     0
281
     0
  0
CLASS
  1
XRECORD
  2
AcDbXrecord
  3
ObjectDBX Classes
 90
        0
280
     0
281
     0
  0
CLASS
  1
LWPOLYLINE
  2
AcDbPolyline
  3
ObjectDBX Classes
 90
        0
280
     0
281
     1
  0
ENDSEC
  0
SECTION
  2
TABLES
  0
TABLE
  2
VPORT
  5
20
330
0
100
AcDbSymbolTable
 70
     1
  0
VPORT
  5
21
330
20
100
AcDbSymbolTableRecord
100
AcDbViewportTableRecord
  2
*ACTIVE
 70
     0
  0
ENDTAB
  0
TABLE
  2
LTYPE
  5
22
330
0
100
AcDbSymbolTable
 70
     1
  0
LTYPE
  5
23
330
21
100
AcDbSymbolTableRecord
100
AcDbLinetypeTableRecord
  2
BYBLOCK
 70
     0
  3

 72
    65
 73
     0
 40
0.0
  0
LTYPE
  5
24
330
21
100
AcDbSymbolTableRecord
100
AcDbLinetypeTableRecord
  2
BYLAYER
 70
     0
  3

 72
    65
 73
     0
 40
0.0
  0
LTYPE
  5
25
330
21
100
AcDbSymbolTableRecord
100
AcDbLinetypeTableRecord
  2
CONTINUOUS
 70
     0
  3
Solid line
 72
    65
 73
     0
 40
0.0
  0
ENDTAB
  0
TABLE
  2
LAYER
  5
B7B
330
0
100
AcDbSymbolTable
 70
373
  0
LAYER
  5
B7C
330
B7B
100
AcDbSymbolTableRecord
100
AcDbLayerTableRecord
  2
0
 70
   0
 62
   7
  6
CONTINUOUS
  0
LAYER
  5
B7D
330
B7B
100
AcDbSymbolTableRecord
100
AcDbLayerTableRecord
  2
none
 70
    0
 62
    7
  6
CONTINUOUS
  0
LAYER
  5
B7E
330
B7B
100
AcDbSymbolTableRecord
100
AcDbLayerTableRecord
  2
Shape
 70
    0
 62
    7
  6
CONTINUOUS
  0
LAYER
  5
B7F
330
B7B
100
AcDbSymbolTableRecord
100
AcDbLayerTableRecord
  2
Shape001
 70
    0
 62
    7
  6
CONTINUOUS
  0
LAYER
  5
B80
330
B7B
100
AcDbSymbolTableRecord
100
AcDbLayerTableRecord
  2
Shape002
 70
    0
 62
    7
  6
CONTINUOUS
  0
LAYER
  5
B81
330
B7B
100
AcDbSymbolTableRecord
100
AcDbLayerTableRecord
  2
Shape003
 70
    0
 62
    7
  6
CONTINUOUS
  0
LAYER
  5
B82
330
B7B
100
AcDbSymbolTableRecord
100
AcDbLayerTableRecord
  2
Shape004
 70
    0
 62
    7
  6
CONTINUOUS
  0
LAYER
  5
B83
330
B7B
100
AcDbSymbolTableRecord
100
AcDbLayerTableRecord
  2
Shape005
 70
    0
 62
    7
  6
CONTINUOUS
  0
LAYER
  5
B84
330
B7B
100
AcDbSymbolTableRecord
100
AcDbLayerTableRecord
  2
Shape184
 70
    0
 62
    7
  6
CONTINUOUS
  0
LAYER
  5
B85
330
B7B
100
AcDbSymbolTableRecord
100
AcDbLayerTableRecord
  2
Shape185
 70
    0
 62
    7
  6
CONTINUOUS
  0
LAYER
  5
B86
330
B7B
100
AcDbSymbolTableRecord
100
AcDbLayerTableRecord
  2
Shape186
 70
    0
 62
    7
  6
CONTINUOUS
  0
LAYER
  5
B87
330
B7B
100
AcDbSymbolTableRecord
100
AcDbLayerTableRecord
  2
Shape187
 70
    0
 62
    7
  6
CONTINUOUS
  0
LAYER
  5
B88
330
B7B
100
AcDbSymbolTableRecord
100
AcDbLayerTableRecord
  2
Shape188
 70
    0
 62
    7
  6
CONTINUOUS
  0
LAYER
  5
B89
330
B7B
100
AcDbSymbolTableRecord
100
AcDbLayerTableRecord
  2
Shape189
 70
    0
 62
    7
  6
CONTINUOUS
  0
LAYER
  5
B8A
330
B7B
100
AcDbSymbolTableRecord
100
AcDbLayerTableRecord
  2
Shape190
 70
    0
 62
    7
  6
CONTINUOUS
  0
LAYER
  5
B8B
330
B7B
100
AcDbSymbolTableRecord
100
AcDbLayerTableRecord
  2
Shape191
 70
    0
 62
    7
  6
CONTINUOUS
  0
LAYER
  5
B8C
330
B7B
100
AcDbSymbolTableRecord
100
AcDbLayerTableRecord
  2
Shape192
 70
    0
 62
    7
  6
CONTINUOUS
  0
LAYER
  5
B8D
330
B7B
100
AcDbSymbolTableRecord
100
AcDbLayerTableRecord
  2
Shape193
 70
    0
 62
    7
  6
CONTINUOUS
  0
LAYER
  5
B8E
330
B7B
100
AcDbSymbolTableRecord
100
AcDbLayerTableRecord
  2
Shape194
 70
    0
 62
    7
  6
CONTINUOUS
  0
LAYER
  5
B8F
330
B7B
100
AcDbSymbolTableRecord
100
AcDbLayerTableRecord
  2
Shape195
 70
    0
 62
    7
  6
CONTINUOUS
  0
LAYER
  5
B90
330
B7B
100
AcDbSymbolTableRecord
100
AcDbLayerTableRecord
  2
Shape196
 70
    0
 62
    7
  6
CONTINUOUS
  0
LAYER
  5
B91
330
B7B
100
AcDbSymbolTableRecord
100
AcDbLayerTableRecord
  2
Shape197
 70
    0
 62
    7
  6
CONTINUOUS
  0
LAYER
  5
B92
330
B7B
100
AcDbSymbolTableRecord
100
AcDbLayerTableRecord
  2
Shape198
 70
    0
 62
    7
  6
CONTINUOUS
  0
LAYER
  5
B93
330
B7B
100
AcDbSymbolTableRecord
100
AcDbLayerTableRecord
  2
Shape199
 70
    0
 62
    7
  6
CONTINUOUS
  0
LAYER
  5
B94
330
B7B
100
AcDbSymbolTableRecord
100
AcDbLayerTableRecord
  2
Shape200
 70
    0
 62
    7
  6
CONTINUOUS
  0
LAYER
  5
B95
330
B7B
100
AcDbSymbolTableRecord
100
AcDbLayerTableRecord
  2
Shape201
 70
    0
 62
    7
  6
CONTINUOUS
  0
LAYER
  5
B96
330
B7B
100
AcDbSymbolTableRecord
100
AcDbLayerTableRecord
  2
Shape202
 70
    0
 62
    7
  6
CONTINUOUS
  0
LAYER
  5
B97
330
B7B
100
AcDbSymbolTableRecord
100
AcDbLayerTableRecord
  2
Shape203
 70
    0
 62
    7
  6
CONTINUOUS
  0
LAYER
  5
B98
330
B7B
100
AcDbSymbolTableRecord
100
AcDbLayerTableRecord
  2
Shape204
 70
    0
 62
    7
  6
CONTINUOUS
  0
LAYER
  5
B99
330
B7B
100
AcDbSymbolTableRecord
100
AcDbLayerTableRecord
  2
Shape205
 70
    0
 62
    7
  6
CONTINUOUS
  0
LAYER
  5
B9A
330
B7B
100
AcDbSymbolTableRecord
100
AcDbLayerTableRecord
  2
Shape206
 70
    0
 62
    7
  6
CONTINUOUS
  0
LAYER
  5
B9B
330
B7B
100
AcDbSymbolTableRecord
100
AcDbLayerTableRecord
  2
Shape207
 70
    0
 62
    7
  6
CONTINUOUS
  0
LAYER
  5
B9C
330
B7B
100
AcDbSymbolTableRecord
100
AcDbLayerTableRecord
  2
Shape208
 70
    0
 62
    7
  6
CONTINUOUS
  0
LAYER
  5
B9D
330
B7B
100
AcDbSymbolTableRecord
100
AcDbLayerTableRecord
  2
Shape209
 70
    0
 62
    7
  6
CONTINUOUS
  0
LAYER
  5
B9E
330
B7B
100
AcDbSymbolTableRecord
100
AcDbLayerTableRecord
  2
Shape210
 70
    0
 62
    7
  6
CONTINUOUS
  0
LAYER
  5
B9F
330
B7B
100
AcDbSymbolTableRecord
100
AcDbLayerTableRecord
  2
Shape211
 70
    0
 62
    7
  6
CONTINUOUS
  0
LAYER
  5
BA0
330
B7B
100
AcDbSymbolTableRecord
100
AcDbLayerTableRecord
  2
Shape212
 70
    0
 62
    7
  6
CONTINUOUS
  0
LAYER
  5
BA1
330
B7B
100
AcDbSymbolTableRecord
100
AcDbLayerTableRecord
  2
Shape213
 70
    0
 62
    7
  6
CONTINUOUS
  0
LAYER
  5
BA2
330
B7B
100
AcDbSymbolTableRecord
100
AcDbLayerTableRecord
  2
Shape214
 70
    0
 62
    7
  6
CONTINUOUS
  0
LAYER
  5
BA3
330
B7B
100
AcDbSymbolTableRecord
100
AcDbLayerTableRecord
  2
Shape215
 70
    0
 62
    7
  6
CONTINUOUS
  0
LAYER
  5
BA4
330
B7B
100
AcDbSymbolTableRecord
100
AcDbLayerTableRecord
  2
Shape216
 70
    0
 62
    7
  6
CONTINUOUS
  0
LAYER
  5
BA5
330
B7B
100
AcDbSymbolTableRecord
100
AcDbLayerTableRecord
  2
Shape217
 70
    0
 62
    7
  6
CONTINUOUS
  0
LAYER
  5
BA6
330
B7B
100
AcDbSymbolTableRecord
100
AcDbLayerTableRecord
  2
Shape218
 70
    0
 62
    7
  6
CONTINUOUS
  0
LAYER
  5
BA7
330
B7B
100
AcDbSymbolTableRecord
100
AcDbLayerTableRecord
  2
Shape219
 70
    0
 62
    7
  6
CONTINUOUS
  0
LAYER
  5
BA8
330
B7B
100
AcDbSymbolTableRecord
100
AcDbLayerTableRecord
  2
Shape220
 70
    0
 62
    7
  6
CONTINUOUS
  0
LAYER
  5
BA9
330
B7B
100
AcDbSymbolTableRecord
100
AcDbLayerTableRecord
  2
Shape221
 70
    0
 62
    7
  6
CONTINUOUS
  0
LAYER
  5
BAA
330
B7B
100
AcDbSymbolTableRecord
100
AcDbLayerTableRecord
  2
Shape222
 70
    0
 62
    7
  6
CONTINUOUS
  0
LAYER
  5
BAB
330
B7B
100
AcDbSymbolTableRecord
100
AcDbLayerTableRecord
  2
Shape223
 70
    0
 62
    7
  6
CONTINUOUS
  0
LAYER
  5
BAC
330
B7B
100
AcDbSymbolTableRecord
100
AcDbLayerTableRecord
  2
Shape224
 70
    0
 62
    7
  6
CONTINUOUS
  0
LAYER
  5
BAD
330
B7B
100
AcDbSymbolTableRecord
100
AcDbLayerTableRecord
  2
Shape225
 70
    0
 62
    7
  6
CONTINUOUS
  0
LAYER
  5
BAE
330
B7B
100
AcDbSymbolTableRecord
100
AcDbLayerTableRecord
  2
Shape226
 70
    0
 62
    7
  6
CONTINUOUS
  0
LAYER
  5
BAF
330
B7B
100
AcDbSymbolTableRecord
100
AcDbLayerTableRecord
  2
Shape227
 70
    0
 62
    7
  6
CONTINUOUS
  0
LAYER
  5
BB0
330
B7B
100
AcDbSymbolTableRecord
100
AcDbLayerTableRecord
  2
Shape228
 70
    0
 62
    7
  6
CONTINUOUS
  0
LAYER
  5
BB1
330
B7B
100
AcDbSymbolTableRecord
100
AcDbLayerTableRecord
  2
Shape229
 70
    0
 62
    7
  6
CONTINUOUS
  0
LAYER
  5
BB2
330
B7B
100
AcDbSymbolTableRecord
100
AcDbLayerTableRecord
  2
Shape230
 70
    0
 62
    7
  6
CONTINUOUS
  0
LAYER
  5
BB3
330
B7B
100
AcDbSymbolTableRecord
100
AcDbLayerTableRecord
  2
Shape231
 70
    0
 62
    7
  6
CONTINUOUS
  0
LAYER
  5
BB4
330
B7B
100
AcDbSymbolTableRecord
100
AcDbLayerTableRecord
  2
Shape232
 70
    0
 62
    7
  6
CONTINUOUS
  0
LAYER
  5
BB5
330
B7B
100
AcDbSymbolTableRecord
100
AcDbLayerTableRecord
  2
Shape233
 70
    0
 62
    7
  6
CONTINUOUS
  0
LAYER
  5
BB6
330
B7B
100
AcDbSymbolTableRecord
100
AcDbLayerTableRecord
  2
Shape234
 70
    0
 62
    7
  6
CONTINUOUS
  0
LAYER
  5
BB7
330
B7B
100
AcDbSymbolTableRecord
100
AcDbLayerTableRecord
  2
Shape235
 70
    0
 62
    7
  6
CONTINUOUS
  0
LAYER
  5
BB8
330
B7B
100
AcDbSymbolTableRecord
100
AcDbLayerTableRecord
  2
Shape236
 70
    0
 62
    7
  6
CONTINUOUS
  0
LAYER
  5
BB9
330
B7B
100
AcDbSymbolTableRecord
100
AcDbLayerTableRecord
  2
Shape237
 70
    0
 62
    7
  6
CONTINUOUS
  0
LAYER
  5
BBA
330
B7B
100
AcDbSymbolTableRecord
100
AcDbLayerTableRecord
  2
Shape238
 70
    0
 62
    7
  6
CONTINUOUS
  0
LAYER
  5
BBB
330
B7B
100
AcDbSymbolTableRecord
100
AcDbLayerTableRecord
  2
Shape239
 70
    0
 62
    7
  6
CONTINUOUS
  0
LAYER
  5
BBC
330
B7B
100
AcDbSymbolTableRecord
100
AcDbLayerTableRecord
  2
Shape240
 70
    0
 62
    7
  6
CONTINUOUS
  0
LAYER
  5
BBD
330
B7B
100
AcDbSymbolTableRecord
100
AcDbLayerTableRecord
  2
Shape241
 70
    0
 62
    7
  6
CONTINUOUS
  0
LAYER
  5
BBE
330
B7B
100
AcDbSymbolTableRecord
100
AcDbLayerTableRecord
  2
Shape242
 70
    0
 62
    7
  6
CONTINUOUS
  0
LAYER
  5
BBF
330
B7B
100
AcDbSymbolTableRecord
100
AcDbLayerTableRecord
  2
Shape243
 70
    0
 62
    7
  6
CONTINUOUS
  0
LAYER
  5
BC0
330
B7B
100
AcDbSymbolTableRecord
100
AcDbLayerTableRecord
  2
Shape244
 70
    0
 62
    7
  6
CONTINUOUS
  0
LAYER
  5
BC1
330
B7B
100
AcDbSymbolTableRecord
100
AcDbLayerTableRecord
  2
Shape245
 70
    0
 62
    7
  6
CONTINUOUS
  0
LAYER
  5
BC2
330
B7B
100
AcDbSymbolTableRecord
100
AcDbLayerTableRecord
  2
Shape246
 70
    0
 62
    7
  6
CONTINUOUS
  0
LAYER
  5
BC3
330
B7B
100
AcDbSymbolTableRecord
100
AcDbLayerTableRecord
  2
Shape247
 70
    0
 62
    7
  6
CONTINUOUS
  0
LAYER
  5
BC4
330
B7B
100
AcDbSymbolTableRecord
100
AcDbLayerTableRecord
  2
Shape248
 70
    0
 62
    7
  6
CONTINUOUS
  0
LAYER
  5
BC5
330
B7B
100
AcDbSymbolTableRecord
100
AcDbLayerTableRecord
  2
Shape249
 70
    0
 62
    7
  6
CONTINUOUS
  0
LAYER
  5
BC6
330
B7B
100
AcDbSymbolTableRecord
100
AcDbLayerTableRecord
  2
Shape250
 70
    0
 62
    7
  6
CONTINUOUS
  0
LAYER
  5
BC7
330
B7B
100
AcDbSymbolTableRecord
100
AcDbLayerTableRecord
  2
Shape251
 70
    0
 62
    7
  6
CONTINUOUS
  0
LAYER
  5
BC8
330
B7B
100
AcDbSymbolTableRecord
100
AcDbLayerTableRecord
  2
Shape252
 70
    0
 62
    7
  6
CONTINUOUS
  0
LAYER
  5
BC9
330
B7B
100
AcDbSymbolTableRecord
100
AcDbLayerTableRecord
  2
Shape253
 70
    0
 62
    7
  6
CONTINUOUS
  0
LAYER
  5
BCA
330
B7B
100
AcDbSymbolTableRecord
100
AcDbLayerTableRecord
  2
Shape254
 70
    0
 62
    7
  6
CONTINUOUS
  0
LAYER
  5
BCB
330
B7B
100
AcDbSymbolTableRecord
100
AcDbLayerTableRecord
  2
Shape255
 70
    0
 62
    7
  6
CONTINUOUS
  0
LAYER
  5
BCC
330
B7B
100
AcDbSymbolTableRecord
100
AcDbLayerTableRecord
  2
Shape256
 70
    0
 62
    7
  6
CONTINUOUS
  0
LAYER
  5
BCD
330
B7B
100
AcDbSymbolTableRecord
100
AcDbLayerTableRecord
  2
Shape257
 70
    0
 62
    7
  6
CONTINUOUS
  0
LAYER
  5
BCE
330
B7B
100
AcDbSymbolTableRecord
100
AcDbLayerTableRecord
  2
Shape258
 70
    0
 62
    7
  6
CONTINUOUS
  0
LAYER
  5
BCF
330
B7B
100
AcDbSymbolTableRecord
100
AcDbLayerTableRecord
  2
Shape259
 70
    0
 62
    7
  6
CONTINUOUS
  0
LAYER
  5
BD0
330
B7B
100
AcDbSymbolTableRecord
100
AcDbLayerTableRecord
  2
Shape260
 70
    0
 62
    7
  6
CONTINUOUS
  0
LAYER
  5
BD1
330
B7B
100
AcDbSymbolTableRecord
100
AcDbLayerTableRecord
  2
Shape261
 70
    0
 62
    7
  6
CONTINUOUS
  0
LAYER
  5
BD2
330
B7B
100
AcDbSymbolTableRecord
100
AcDbLayerTableRecord
  2
Shape262
 70
    0
 62
    7
  6
CONTINUOUS
  0
LAYER
  5
BD3
330
B7B
100
AcDbSymbolTableRecord
100
AcDbLayerTableRecord
  2
Shape263
 70
    0
 62
    7
  6
CONTINUOUS
  0
LAYER
  5
BD4
330
B7B
100
AcDbSymbolTableRecord
100
AcDbLayerTableRecord
  2
Shape264
 70
    0
 62
    7
  6
CONTINUOUS
  0
LAYER
  5
BD5
330
B7B
100
AcDbSymbolTableRecord
100
AcDbLayerTableRecord
  2
Shape265
 70
    0
 62
    7
  6
CONTINUOUS
  0
LAYER
  5
BD6
330
B7B
100
AcDbSymbolTableRecord
100
AcDbLayerTableRecord
  2
Shape266
 70
    0
 62
    7
  6
CONTINUOUS
  0
LAYER
  5
BD7
330
B7B
100
AcDbSymbolTableRecord
100
AcDbLayerTableRecord
  2
Shape267
 70
    0
 62
    7
  6
CONTINUOUS
  0
LAYER
  5
BD8
330
B7B
100
AcDbSymbolTableRecord
100
AcDbLayerTableRecord
  2
Shape268
 70
    0
 62
    7
  6
CONTINUOUS
  0
LAYER
  5
BD9
330
B7B
100
AcDbSymbolTableRecord
100
AcDbLayerTableRecord
  2
Shape269
 70
    0
 62
    7
  6
CONTINUOUS
  0
LAYER
  5
BDA
330
B7B
100
AcDbSymbolTableRecord
100
AcDbLayerTableRecord
  2
Shape270
 70
    0
 62
    7
  6
CONTINUOUS
  0
LAYER
  5
BDB
330
B7B
100
AcDbSymbolTableRecord
100
AcDbLayerTableRecord
  2
Shape271
 70
    0
 62
    7
  6
CONTINUOUS
  0
LAYER
  5
BDC
330
B7B
100
AcDbSymbolTableRecord
100
AcDbLayerTableRecord
  2
Shape272
 70
    0
 62
    7
  6
CONTINUOUS
  0
LAYER
  5
BDD
330
B7B
100
AcDbSymbolTableRecord
100
AcDbLayerTableRecord
  2
Shape273
 70
    0
 62
    7
  6
CONTINUOUS
  0
LAYER
  5
BDE
330
B7B
100
AcDbSymbolTableRecord
100
AcDbLayerTableRecord
  2
Shape274
 70
    0
 62
    7
  6
CONTINUOUS
  0
LAYER
  5
BDF
330
B7B
100
AcDbSymbolTableRecord
100
AcDbLayerTableRecord
  2
Shape275
 70
    0
 62
    7
  6
CONTINUOUS
  0
LAYER
  5
BE0
330
B7B
100
AcDbSymbolTableRecord
100
AcDbLayerTableRecord
  2
Shape276
 70
    0
 62
    7
  6
CONTINUOUS
  0
LAYER
  5
BE1
330
B7B
100
AcDbSymbolTableRecord
100
AcDbLayerTableRecord
  2
Shape277
 70
    0
 62
    7
  6
CONTINUOUS
  0
LAYER
  5
BE2
330
B7B
100
AcDbSymbolTableRecord
100
AcDbLayerTableRecord
  2
Shape278
 70
    0
 62
    7
  6
CONTINUOUS
  0
LAYER
  5
BE3
330
B7B
100
AcDbSymbolTableRecord
100
AcDbLayerTableRecord
  2
Shape279
 70
    0
 62
    7
  6
CONTINUOUS
  0
LAYER
  5
BE4
330
B7B
100
AcDbSymbolTableRecord
100
AcDbLayerTableRecord
  2
Shape280
 70
    0
 62
    7
  6
CONTINUOUS
  0
LAYER
  5
BE5
330
B7B
100
AcDbSymbolTableRecord
100
AcDbLayerTableRecord
  2
Shape281
 70
    0
 62
    7
  6
CONTINUOUS
  0
LAYER
  5
BE6
330
B7B
100
AcDbSymbolTableRecord
100
AcDbLayerTableRecord
  2
Shape282
 70
    0
 62
    7
  6
CONTINUOUS
  0
LAYER
  5
BE7
330
B7B
100
AcDbSymbolTableRecord
100
AcDbLayerTableRecord
  2
Shape283
 70
    0
 62
    7
  6
CONTINUOUS
  0
LAYER
  5
BE8
330
B7B
100
AcDbSymbolTableRecord
100
AcDbLayerTableRecord
  2
Shape284
 70
    0
 62
    7
  6
CONTINUOUS
  0
LAYER
  5
BE9
330
B7B
100
AcDbSymbolTableRecord
100
AcDbLayerTableRecord
  2
Shape285
 70
    0
 62
    7
  6
CONTINUOUS
  0
LAYER
  5
BEA
330
B7B
100
AcDbSymbolTableRecord
100
AcDbLayerTableRecord
  2
Shape286
 70
    0
 62
    7
  6
CONTINUOUS
  0
LAYER
  5
BEB
330
B7B
100
AcDbSymbolTableRecord
100
AcDbLayerTableRecord
  2
Shape287
 70
    0
 62
    7
  6
CONTINUOUS
  0
LAYER
  5
BEC
330
B7B
100
AcDbSymbolTableRecord
100
AcDbLayerTableRecord
  2
Shape288
 70
    0
 62
    7
  6
CONTINUOUS
  0
LAYER
  5
BED
330
B7B
100
AcDbSymbolTableRecord
100
AcDbLayerTableRecord
  2
Shape289
 70
    0
 62
    7
  6
CONTINUOUS
  0
LAYER
  5
BEE
330
B7B
100
AcDbSymbolTableRecord
100
AcDbLayerTableRecord
  2
Shape290
 70
    0
 62
    7
  6
CONTINUOUS
  0
LAYER
  5
BEF
330
B7B
100
AcDbSymbolTableRecord
100
AcDbLayerTableRecord
  2
Shape291
 70
    0
 62
    7
  6
CONTINUOUS
  0
LAYER
  5
BF0
330
B7B
100
AcDbSymbolTableRecord
100
AcDbLayerTableRecord
  2
Shape292
 70
    0
 62
    7
  6
CONTINUOUS
  0
LAYER
  5
BF1
330
B7B
100
AcDbSymbolTableRecord
100
AcDbLayerTableRecord
  2
Shape293
 70
    0
 62
    7
  6
CONTINUOUS
  0
LAYER
  5
BF2
330
B7B
100
AcDbSymbolTableRecord
100
AcDbLayerTableRecord
  2
Shape294
 70
    0
 62
    7
  6
CONTINUOUS
  0
LAYER
  5
BF3
330
B7B
100
AcDbSymbolTableRecord
100
AcDbLayerTableRecord
  2
Shape295
 70
    0
 62
    7
  6
CONTINUOUS
  0
LAYER
  5
BF4
330
B7B
100
AcDbSymbolTableRecord
100
AcDbLayerTableRecord
  2
Shape296
 70
    0
 62
    7
  6
CONTINUOUS
  0
LAYER
  5
BF5
330
B7B
100
AcDbSymbolTableRecord
100
AcDbLayerTableRecord
  2
Shape297
 70
    0
 62
    7
  6
CONTINUOUS
  0
LAYER
  5
BF6
330
B7B
100
AcDbSymbolTableRecord
100
AcDbLayerTableRecord
  2
Shape298
 70
    0
 62
    7
  6
CONTINUOUS
  0
LAYER
  5
BF7
330
B7B
100
AcDbSymbolTableRecord
100
AcDbLayerTableRecord
  2
Shape299
 70
    0
 62
    7
  6
CONTINUOUS
  0
LAYER
  5
BF8
330
B7B
100
AcDbSymbolTableRecord
100
AcDbLayerTableRecord
  2
Shape300
 70
    0
 62
    7
  6
CONTINUOUS
  0
LAYER
  5
BF9
330
B7B
100
AcDbSymbolTableRecord
100
AcDbLayerTableRecord
  2
Shape301
 70
    0
 62
    7
  6
CONTINUOUS
  0
LAYER
  5
BFA
330
B7B
100
AcDbSymbolTableRecord
100
AcDbLayerTableRecord
  2
Shape302
 70
    0
 62
    7
  6
CONTINUOUS
  0
LAYER
  5
BFB
330
B7B
100
AcDbSymbolTableRecord
100
AcDbLayerTableRecord
  2
Shape303
 70
    0
 62
    7
  6
CONTINUOUS
  0
LAYER
  5
BFC
330
B7B
100
AcDbSymbolTableRecord
100
AcDbLayerTableRecord
  2
Shape304
 70
    0
 62
    7
  6
CONTINUOUS
  0
LAYER
  5
BFD
330
B7B
100
AcDbSymbolTableRecord
100
AcDbLayerTableRecord
  2
Shape305
 70
    0
 62
    7
  6
CONTINUOUS
  0
LAYER
  5
BFE
330
B7B
100
AcDbSymbolTableRecord
100
AcDbLayerTableRecord
  2
Shape306
 70
    0
 62
    7
  6
CONTINUOUS
  0
LAYER
  5
BFF
330
B7B
100
AcDbSymbolTableRecord
100
AcDbLayerTableRecord
  2
Shape307
 70
    0
 62
    7
  6
CONTINUOUS
  0
LAYER
  5
C00
330
B7B
100
AcDbSymbolTableRecord
100
AcDbLayerTableRecord
  2
Shape308
 70
    0
 62
    7
  6
CONTINUOUS
  0
LAYER
  5
C01
330
B7B
100
AcDbSymbolTableRecord
100
AcDbLayerTableRecord
  2
Shape309
 70
    0
 62
    7
  6
CONTINUOUS
  0
LAYER
  5
C02
330
B7B
100
AcDbSymbolTableRecord
100
AcDbLayerTableRecord
  2
Shape310
 70
    0
 62
    7
  6
CONTINUOUS
  0
LAYER
  5
C03
330
B7B
100
AcDbSymbolTableRecord
100
AcDbLayerTableRecord
  2
Shape311
 70
    0
 62
    7
  6
CONTINUOUS
  0
LAYER
  5
C04
330
B7B
100
AcDbSymbolTableRecord
100
AcDbLayerTableRecord
  2
Shape312
 70
    0
 62
    7
  6
CONTINUOUS
  0
LAYER
  5
C05
330
B7B
100
AcDbSymbolTableRecord
100
AcDbLayerTableRecord
  2
Shape313
 70
    0
 62
    7
  6
CONTINUOUS
  0
LAYER
  5
C06
330
B7B
100
AcDbSymbolTableRecord
100
AcDbLayerTableRecord
  2
Shape314
 70
    0
 62
    7
  6
CONTINUOUS
  0
LAYER
  5
C07
330
B7B
100
AcDbSymbolTableRecord
100
AcDbLayerTableRecord
  2
Shape315
 70
    0
 62
    7
  6
CONTINUOUS
  0
LAYER
  5
C08
330
B7B
100
AcDbSymbolTableRecord
100
AcDbLayerTableRecord
  2
Shape316
 70
    0
 62
    7
  6
CONTINUOUS
  0
LAYER
  5
C09
330
B7B
100
AcDbSymbolTableRecord
100
AcDbLayerTableRecord
  2
Shape317
 70
    0
 62
    7
  6
CONTINUOUS
  0
LAYER
  5
C0A
330
B7B
100
AcDbSymbolTableRecord
100
AcDbLayerTableRecord
  2
Shape318
 70
    0
 62
    7
  6
CONTINUOUS
  0
LAYER
  5
C0B
330
B7B
100
AcDbSymbolTableRecord
100
AcDbLayerTableRecord
  2
Shape319
 70
    0
 62
    7
  6
CONTINUOUS
  0
LAYER
  5
C0C
330
B7B
100
AcDbSymbolTableRecord
100
AcDbLayerTableRecord
  2
Shape320
 70
    0
 62
    7
  6
CONTINUOUS
  0
LAYER
  5
C0D
330
B7B
100
AcDbSymbolTableRecord
100
AcDbLayerTableRecord
  2
Shape321
 70
    0
 62
    7
  6
CONTINUOUS
  0
LAYER
  5
C0E
330
B7B
100
AcDbSymbolTableRecord
100
AcDbLayerTableRecord
  2
Shape322
 70
    0
 62
    7
  6
CONTINUOUS
  0
LAYER
  5
C0F
330
B7B
100
AcDbSymbolTableRecord
100
AcDbLayerTableRecord
  2
Shape323
 70
    0
 62
    7
  6
CONTINUOUS
  0
LAYER
  5
C10
330
B7B
100
AcDbSymbolTableRecord
100
AcDbLayerTableRecord
  2
Shape324
 70
    0
 62
    7
  6
CONTINUOUS
  0
LAYER
  5
C11
330
B7B
100
AcDbSymbolTableRecord
100
AcDbLayerTableRecord
  2
Shape325
 70
    0
 62
    7
  6
CONTINUOUS
  0
LAYER
  5
C12
330
B7B
100
AcDbSymbolTableRecord
100
AcDbLayerTableRecord
  2
Shape326
 70
    0
 62
    7
  6
CONTINUOUS
  0
LAYER
  5
C13
330
B7B
100
AcDbSymbolTableRecord
100
AcDbLayerTableRecord
  2
Shape327
 70
    0
 62
    7
  6
CONTINUOUS
  0
LAYER
  5
C14
330
B7B
100
AcDbSymbolTableRecord
100
AcDbLayerTableRecord
  2
Shape328
 70
    0
 62
    7
  6
CONTINUOUS
  0
LAYER
  5
C15
330
B7B
100
AcDbSymbolTableRecord
100
AcDbLayerTableRecord
  2
Shape329
 70
    0
 62
    7
  6
CONTINUOUS
  0
LAYER
  5
C16
330
B7B
100
AcDbSymbolTableRecord
100
AcDbLayerTableRecord
  2
Shape330
 70
    0
 62
    7
  6
CONTINUOUS
  0
LAYER
  5
C17
330
B7B
100
AcDbSymbolTableRecord
100
AcDbLayerTableRecord
  2
Shape331
 70
    0
 62
    7
  6
CONTINUOUS
  0
LAYER
  5
C18
330
B7B
100
AcDbSymbolTableRecord
100
AcDbLayerTableRecord
  2
Shape332
 70
    0
 62
    7
  6
CONTINUOUS
  0
LAYER
  5
C19
330
B7B
100
AcDbSymbolTableRecord
100
AcDbLayerTableRecord
  2
Shape333
 70
    0
 62
    7
  6
CONTINUOUS
  0
LAYER
  5
C1A
330
B7B
100
AcDbSymbolTableRecord
100
AcDbLayerTableRecord
  2
Shape334
 70
    0
 62
    7
  6
CONTINUOUS
  0
LAYER
  5
C1B
330
B7B
100
AcDbSymbolTableRecord
100
AcDbLayerTableRecord
  2
Shape335
 70
    0
 62
    7
  6
CONTINUOUS
  0
LAYER
  5
C1C
330
B7B
100
AcDbSymbolTableRecord
100
AcDbLayerTableRecord
  2
Shape336
 70
    0
 62
    7
  6
CONTINUOUS
  0
LAYER
  5
C1D
330
B7B
100
AcDbSymbolTableRecord
100
AcDbLayerTableRecord
  2
Shape337
 70
    0
 62
    7
  6
CONTINUOUS
  0
LAYER
  5
C1E
330
B7B
100
AcDbSymbolTableRecord
100
AcDbLayerTableRecord
  2
Shape338
 70
    0
 62
    7
  6
CONTINUOUS
  0
LAYER
  5
C1F
330
B7B
100
AcDbSymbolTableRecord
100
AcDbLayerTableRecord
  2
Shape339
 70
    0
 62
    7
  6
CONTINUOUS
  0
LAYER
  5
C20
330
B7B
100
AcDbSymbolTableRecord
100
AcDbLayerTableRecord
  2
Shape340
 70
    0
 62
    7
  6
CONTINUOUS
  0
LAYER
  5
C21
330
B7B
100
AcDbSymbolTableRecord
100
AcDbLayerTableRecord
  2
Shape341
 70
    0
 62
    7
  6
CONTINUOUS
  0
LAYER
  5
C22
330
B7B
100
AcDbSymbolTableRecord
100
AcDbLayerTableRecord
  2
Shape342
 70
    0
 62
    7
  6
CONTINUOUS
  0
LAYER
  5
C23
330
B7B
100
AcDbSymbolTableRecord
100
AcDbLayerTableRecord
  2
Shape343
 70
    0
 62
    7
  6
CONTINUOUS
  0
LAYER
  5
C24
330
B7B
100
AcDbSymbolTableRecord
100
AcDbLayerTableRecord
  2
Shape344
 70
    0
 62
    7
  6
CONTINUOUS
  0
LAYER
  5
C25
330
B7B
100
AcDbSymbolTableRecord
100
AcDbLayerTableRecord
  2
Shape345
 70
    0
 62
    7
  6
CONTINUOUS
  0
LAYER
  5
C26
330
B7B
100
AcDbSymbolTableRecord
100
AcDbLayerTableRecord
  2
Shape346
 70
    0
 62
    7
  6
CONTINUOUS
  0
LAYER
  5
C27
330
B7B
100
AcDbSymbolTableRecord
100
AcDbLayerTableRecord
  2
Shape347
 70
    0
 62
    7
  6
CONTINUOUS
  0
LAYER
  5
C28
330
B7B
100
AcDbSymbolTableRecord
100
AcDbLayerTableRecord
  2
Shape348
 70
    0
 62
    7
  6
CONTINUOUS
  0
LAYER
  5
C29
330
B7B
100
AcDbSymbolTableRecord
100
AcDbLayerTableRecord
  2
Shape349
 70
    0
 62
    7
  6
CONTINUOUS
  0
LAYER
  5
C2A
330
B7B
100
AcDbSymbolTableRecord
100
AcDbLayerTableRecord
  2
Shape350
 70
    0
 62
    7
  6
CONTINUOUS
  0
LAYER
  5
C2B
330
B7B
100
AcDbSymbolTableRecord
100
AcDbLayerTableRecord
  2
Shape351
 70
    0
 62
    7
  6
CONTINUOUS
  0
LAYER
  5
C2C
330
B7B
100
AcDbSymbolTableRecord
100
AcDbLayerTableRecord
  2
Shape352
 70
    0
 62
    7
  6
CONTINUOUS
  0
LAYER
  5
C2D
330
B7B
100
AcDbSymbolTableRecord
100
AcDbLayerTableRecord
  2
Shape353
 70
    0
 62
    7
  6
CONTINUOUS
  0
LAYER
  5
C2E
330
B7B
100
AcDbSymbolTableRecord
100
AcDbLayerTableRecord
  2
Shape354
 70
    0
 62
    7
  6
CONTINUOUS
  0
LAYER
  5
C2F
330
B7B
100
AcDbSymbolTableRecord
100
AcDbLayerTableRecord
  2
Shape355
 70
    0
 62
    7
  6
CONTINUOUS
  0
LAYER
  5
C30
330
B7B
100
AcDbSymbolTableRecord
100
AcDbLayerTableRecord
  2
Shape356
 70
    0
 62
    7
  6
CONTINUOUS
  0
LAYER
  5
C31
330
B7B
100
AcDbSymbolTableRecord
100
AcDbLayerTableRecord
  2
Shape357
 70
    0
 62
    7
  6
CONTINUOUS
  0
LAYER
  5
C32
330
B7B
100
AcDbSymbolTableRecord
100
AcDbLayerTableRecord
  2
Shape358
 70
    0
 62
    7
  6
CONTINUOUS
  0
LAYER
  5
C33
330
B7B
100
AcDbSymbolTableRecord
100
AcDbLayerTableRecord
  2
Shape359
 70
    0
 62
    7
  6
CONTINUOUS
  0
LAYER
  5
C34
330
B7B
100
AcDbSymbolTableRecord
100
AcDbLayerTableRecord
  2
Shape360
 70
    0
 62
    7
  6
CONTINUOUS
  0
LAYER
  5
C35
330
B7B
100
AcDbSymbolTableRecord
100
AcDbLayerTableRecord
  2
Shape361
 70
    0
 62
    7
  6
CONTINUOUS
  0
LAYER
  5
C36
330
B7B
100
AcDbSymbolTableRecord
100
AcDbLayerTableRecord
  2
Shape362
 70
    0
 62
    7
  6
CONTINUOUS
  0
LAYER
  5
C37
330
B7B
100
AcDbSymbolTableRecord
100
AcDbLayerTableRecord
  2
Shape363
 70
    0
 62
    7
  6
CONTINUOUS
  0
LAYER
  5
C38
330
B7B
100
AcDbSymbolTableRecord
100
AcDbLayerTableRecord
  2
Shape364
 70
    0
 62
    7
  6
CONTINUOUS
  0
LAYER
  5
C39
330
B7B
100
AcDbSymbolTableRecord
100
AcDbLayerTableRecord
  2
Shape365
 70
    0
 62
    7
  6
CONTINUOUS
  0
LAYER
  5
C3A
330
B7B
100
AcDbSymbolTableRecord
100
AcDbLayerTableRecord
  2
Shape366
 70
    0
 62
    7
  6
CONTINUOUS
  0
LAYER
  5
C3B
330
B7B
100
AcDbSymbolTableRecord
100
AcDbLayerTableRecord
  2
Shape367
 70
    0
 62
    7
  6
CONTINUOUS
  0
LAYER
  5
C3C
330
B7B
100
AcDbSymbolTableRecord
100
AcDbLayerTableRecord
  2
Shape368
 70
    0
 62
    7
  6
CONTINUOUS
  0
LAYER
  5
C3D
330
B7B
100
AcDbSymbolTableRecord
100
AcDbLayerTableRecord
  2
Shape369
 70
    0
 62
    7
  6
CONTINUOUS
  0
LAYER
  5
C3E
330
B7B
100
AcDbSymbolTableRecord
100
AcDbLayerTableRecord
  2
Shape370
 70
    0
 62
    7
  6
CONTINUOUS
  0
LAYER
  5
C3F
330
B7B
100
AcDbSymbolTableRecord
100
AcDbLayerTableRecord
  2
Shape371
 70
    0
 62
    7
  6
CONTINUOUS
  0
LAYER
  5
C40
330
B7B
100
AcDbSymbolTableRecord
100
AcDbLayerTableRecord
  2
Shape372
 70
    0
 62
    7
  6
CONTINUOUS
  0
LAYER
  5
C41
330
B7B
100
AcDbSymbolTableRecord
100
AcDbLayerTableRecord
  2
Shape373
 70
    0
 62
    7
  6
CONTINUOUS
  0
LAYER
  5
C42
330
B7B
100
AcDbSymbolTableRecord
100
AcDbLayerTableRecord
  2
Shape374
 70
    0
 62
    7
  6
CONTINUOUS
  0
LAYER
  5
C43
330
B7B
100
AcDbSymbolTableRecord
100
AcDbLayerTableRecord
  2
Shape375
 70
    0
 62
    7
  6
CONTINUOUS
  0
LAYER
  5
C44
330
B7B
100
AcDbSymbolTableRecord
100
AcDbLayerTableRecord
  2
Shape376
 70
    0
 62
    7
  6
CONTINUOUS
  0
LAYER
  5
C45
330
B7B
100
AcDbSymbolTableRecord
100
AcDbLayerTableRecord
  2
Shape377
 70
    0
 62
    7
  6
CONTINUOUS
  0
LAYER
  5
C46
330
B7B
100
AcDbSymbolTableRecord
100
AcDbLayerTableRecord
  2
Shape378
 70
    0
 62
    7
  6
CONTINUOUS
  0
LAYER
  5
C47
330
B7B
100
AcDbSymbolTableRecord
100
AcDbLayerTableRecord
  2
Shape379
 70
    0
 62
    7
  6
CONTINUOUS
  0
LAYER
  5
C48
330
B7B
100
AcDbSymbolTableRecord
100
AcDbLayerTableRecord
  2
Shape380
 70
    0
 62
    7
  6
CONTINUOUS
  0
LAYER
  5
C49
330
B7B
100
AcDbSymbolTableRecord
100
AcDbLayerTableRecord
  2
Shape381
 70
    0
 62
    7
  6
CONTINUOUS
  0
LAYER
  5
C4A
330
B7B
100
AcDbSymbolTableRecord
100
AcDbLayerTableRecord
  2
Shape382
 70
    0
 62
    7
  6
CONTINUOUS
  0
LAYER
  5
C4B
330
B7B
100
AcDbSymbolTableRecord
100
AcDbLayerTableRecord
  2
Shape383
 70
    0
 62
    7
  6
CONTINUOUS
  0
LAYER
  5
C4C
330
B7B
100
AcDbSymbolTableRecord
100
AcDbLayerTableRecord
  2
Shape384
 70
    0
 62
    7
  6
CONTINUOUS
  0
LAYER
  5
C4D
330
B7B
100
AcDbSymbolTableRecord
100
AcDbLayerTableRecord
  2
Shape385
 70
    0
 62
    7
  6
CONTINUOUS
  0
LAYER
  5
C4E
330
B7B
100
AcDbSymbolTableRecord
100
AcDbLayerTableRecord
  2
Shape386
 70
    0
 62
    7
  6
CONTINUOUS
  0
LAYER
  5
C4F
330
B7B
100
AcDbSymbolTableRecord
100
AcDbLayerTableRecord
  2
Shape387
 70
    0
 62
    7
  6
CONTINUOUS
  0
LAYER
  5
C50
330
B7B
100
AcDbSymbolTableRecord
100
AcDbLayerTableRecord
  2
Shape388
 70
    0
 62
    7
  6
CONTINUOUS
  0
LAYER
  5
C51
330
B7B
100
AcDbSymbolTableRecord
100
AcDbLayerTableRecord
  2
Shape389
 70
    0
 62
    7
  6
CONTINUOUS
  0
LAYER
  5
C52
330
B7B
100
AcDbSymbolTableRecord
100
AcDbLayerTableRecord
  2
Shape390
 70
    0
 62
    7
  6
CONTINUOUS
  0
LAYER
  5
C53
330
B7B
100
AcDbSymbolTableRecord
100
AcDbLayerTableRecord
  2
Shape391
 70
    0
 62
    7
  6
CONTINUOUS
  0
LAYER
  5
C54
330
B7B
100
AcDbSymbolTableRecord
100
AcDbLayerTableRecord
  2
Shape392
 70
    0
 62
    7
  6
CONTINUOUS
  0
LAYER
  5
C55
330
B7B
100
AcDbSymbolTableRecord
100
AcDbLayerTableRecord
  2
Shape393
 70
    0
 62
    7
  6
CONTINUOUS
  0
LAYER
  5
C56
330
B7B
100
AcDbSymbolTableRecord
100
AcDbLayerTableRecord
  2
Shape394
 70
    0
 62
    7
  6
CONTINUOUS
  0
LAYER
  5
C57
330
B7B
100
AcDbSymbolTableRecord
100
AcDbLayerTableRecord
  2
Shape395
 70
    0
 62
    7
  6
CONTINUOUS
  0
LAYER
  5
C58
330
B7B
100
AcDbSymbolTableRecord
100
AcDbLayerTableRecord
  2
Shape396
 70
    0
 62
    7
  6
CONTINUOUS
  0
LAYER
  5
C59
330
B7B
100
AcDbSymbolTableRecord
100
AcDbLayerTableRecord
  2
Shape397
 70
    0
 62
    7
  6
CONTINUOUS
  0
LAYER
  5
C5A
330
B7B
100
AcDbSymbolTableRecord
100
AcDbLayerTableRecord
  2
Shape398
 70
    0
 62
    7
  6
CONTINUOUS
  0
LAYER
  5
C5B
330
B7B
100
AcDbSymbolTableRecord
100
AcDbLayerTableRecord
  2
Shape399
 70
    0
 62
    7
  6
CONTINUOUS
  0
LAYER
  5
C5C
330
B7B
100
AcDbSymbolTableRecord
100
AcDbLayerTableRecord
  2
Shape400
 70
    0
 62
    7
  6
CONTINUOUS
  0
LAYER
  5
C5D
330
B7B
100
AcDbSymbolTableRecord
100
AcDbLayerTableRecord
  2
Shape401
 70
    0
 62
    7
  6
CONTINUOUS
  0
LAYER
  5
C5E
330
B7B
100
AcDbSymbolTableRecord
100
AcDbLayerTableRecord
  2
Shape402
 70
    0
 62
    7
  6
CONTINUOUS
  0
LAYER
  5
C5F
330
B7B
100
AcDbSymbolTableRecord
100
AcDbLayerTableRecord
  2
Shape403
 70
    0
 62
    7
  6
CONTINUOUS
  0
LAYER
  5
C60
330
B7B
100
AcDbSymbolTableRecord
100
AcDbLayerTableRecord
  2
Shape404
 70
    0
 62
    7
  6
CONTINUOUS
  0
LAYER
  5
C61
330
B7B
100
AcDbSymbolTableRecord
100
AcDbLayerTableRecord
  2
Shape405
 70
    0
 62
    7
  6
CONTINUOUS
  0
LAYER
  5
C62
330
B7B
100
AcDbSymbolTableRecord
100
AcDbLayerTableRecord
  2
Shape406
 70
    0
 62
    7
  6
CONTINUOUS
  0
LAYER
  5
C63
330
B7B
100
AcDbSymbolTableRecord
100
AcDbLayerTableRecord
  2
Shape407
 70
    0
 62
    7
  6
CONTINUOUS
  0
LAYER
  5
C64
330
B7B
100
AcDbSymbolTableRecord
100
AcDbLayerTableRecord
  2
Shape408
 70
    0
 62
    7
  6
CONTINUOUS
  0
LAYER
  5
C65
330
B7B
100
AcDbSymbolTableRecord
100
AcDbLayerTableRecord
  2
Shape409
 70
    0
 62
    7
  6
CONTINUOUS
  0
LAYER
  5
C66
330
B7B
100
AcDbSymbolTableRecord
100
AcDbLayerTableRecord
  2
Shape410
 70
    0
 62
    7
  6
CONTINUOUS
  0
LAYER
  5
C67
330
B7B
100
AcDbSymbolTableRecord
100
AcDbLayerTableRecord
  2
Shape411
 70
    0
 62
    7
  6
CONTINUOUS
  0
LAYER
  5
C68
330
B7B
100
AcDbSymbolTableRecord
100
AcDbLayerTableRecord
  2
Shape412
 70
    0
 62
    7
  6
CONTINUOUS
  0
LAYER
  5
C69
330
B7B
100
AcDbSymbolTableRecord
100
AcDbLayerTableRecord
  2
Shape413
 70
    0
 62
    7
  6
CONTINUOUS
  0
LAYER
  5
C6A
330
B7B
100
AcDbSymbolTableRecord
100
AcDbLayerTableRecord
  2
Shape414
 70
    0
 62
    7
  6
CONTINUOUS
  0
LAYER
  5
C6B
330
B7B
100
AcDbSymbolTableRecord
100
AcDbLayerTableRecord
  2
Shape415
 70
    0
 62
    7
  6
CONTINUOUS
  0
LAYER
  5
C6C
330
B7B
100
AcDbSymbolTableRecord
100
AcDbLayerTableRecord
  2
Shape416
 70
    0
 62
    7
  6
CONTINUOUS
  0
LAYER
  5
C6D
330
B7B
100
AcDbSymbolTableRecord
100
AcDbLayerTableRecord
  2
Shape417
 70
    0
 62
    7
  6
CONTINUOUS
  0
LAYER
  5
C6E
330
B7B
100
AcDbSymbolTableRecord
100
AcDbLayerTableRecord
  2
Shape418
 70
    0
 62
    7
  6
CONTINUOUS
  0
LAYER
  5
C6F
330
B7B
100
AcDbSymbolTableRecord
100
AcDbLayerTableRecord
  2
Shape419
 70
    0
 62
    7
  6
CONTINUOUS
  0
LAYER
  5
C70
330
B7B
100
AcDbSymbolTableRecord
100
AcDbLayerTableRecord
  2
Shape420
 70
    0
 62
    7
  6
CONTINUOUS
  0
LAYER
  5
C71
330
B7B
100
AcDbSymbolTableRecord
100
AcDbLayerTableRecord
  2
Shape421
 70
    0
 62
    7
  6
CONTINUOUS
  0
LAYER
  5
C72
330
B7B
100
AcDbSymbolTableRecord
100
AcDbLayerTableRecord
  2
Shape422
 70
    0
 62
    7
  6
CONTINUOUS
  0
LAYER
  5
C73
330
B7B
100
AcDbSymbolTableRecord
100
AcDbLayerTableRecord
  2
Shape423
 70
    0
 62
    7
  6
CONTINUOUS
  0
LAYER
  5
C74
330
B7B
100
AcDbSymbolTableRecord
100
AcDbLayerTableRecord
  2
Shape424
 70
    0
 62
    7
  6
CONTINUOUS
  0
LAYER
  5
C75
330
B7B
100
AcDbSymbolTableRecord
100
AcDbLayerTableRecord
  2
Shape425
 70
    0
 62
    7
  6
CONTINUOUS
  0
LAYER
  5
C76
330
B7B
100
AcDbSymbolTableRecord
100
AcDbLayerTableRecord
  2
Shape426
 70
    0
 62
    7
  6
CONTINUOUS
  0
LAYER
  5
C77
330
B7B
100
AcDbSymbolTableRecord
100
AcDbLayerTableRecord
  2
Shape427
 70
    0
 62
    7
  6
CONTINUOUS
  0
LAYER
  5
C78
330
B7B
100
AcDbSymbolTableRecord
100
AcDbLayerTableRecord
  2
Shape428
 70
    0
 62
    7
  6
CONTINUOUS
  0
LAYER
  5
C79
330
B7B
100
AcDbSymbolTableRecord
100
AcDbLayerTableRecord
  2
Shape429
 70
    0
 62
    7
  6
CONTINUOUS
  0
LAYER
  5
C7A
330
B7B
100
AcDbSymbolTableRecord
100
AcDbLayerTableRecord
  2
Shape430
 70
    0
 62
    7
  6
CONTINUOUS
  0
LAYER
  5
C7B
330
B7B
100
AcDbSymbolTableRecord
100
AcDbLayerTableRecord
  2
Shape431
 70
    0
 62
    7
  6
CONTINUOUS
  0
LAYER
  5
C7C
330
B7B
100
AcDbSymbolTableRecord
100
AcDbLayerTableRecord
  2
Shape432
 70
    0
 62
    7
  6
CONTINUOUS
  0
LAYER
  5
C7D
330
B7B
100
AcDbSymbolTableRecord
100
AcDbLayerTableRecord
  2
Shape433
 70
    0
 62
    7
  6
CONTINUOUS
  0
LAYER
  5
C7E
330
B7B
100
AcDbSymbolTableRecord
100
AcDbLayerTableRecord
  2
Shape434
 70
    0
 62
    7
  6
CONTINUOUS
  0
LAYER
  5
C7F
330
B7B
100
AcDbSymbolTableRecord
100
AcDbLayerTableRecord
  2
Shape435
 70
    0
 62
    7
  6
CONTINUOUS
  0
LAYER
  5
C80
330
B7B
100
AcDbSymbolTableRecord
100
AcDbLayerTableRecord
  2
Shape436
 70
    0
 62
    7
  6
CONTINUOUS
  0
LAYER
  5
C81
330
B7B
100
AcDbSymbolTableRecord
100
AcDbLayerTableRecord
  2
Shape437
 70
    0
 62
    7
  6
CONTINUOUS
  0
LAYER
  5
C82
330
B7B
100
AcDbSymbolTableRecord
100
AcDbLayerTableRecord
  2
Shape438
 70
    0
 62
    7
  6
CONTINUOUS
  0
LAYER
  5
C83
330
B7B
100
AcDbSymbolTableRecord
100
AcDbLayerTableRecord
  2
Shape439
 70
    0
 62
    7
  6
CONTINUOUS
  0
LAYER
  5
C84
330
B7B
100
AcDbSymbolTableRecord
100
AcDbLayerTableRecord
  2
Shape440
 70
    0
 62
    7
  6
CONTINUOUS
  0
LAYER
  5
C85
330
B7B
100
AcDbSymbolTableRecord
100
AcDbLayerTableRecord
  2
Shape441
 70
    0
 62
    7
  6
CONTINUOUS
  0
LAYER
  5
C86
330
B7B
100
AcDbSymbolTableRecord
100
AcDbLayerTableRecord
  2
Shape442
 70
    0
 62
    7
  6
CONTINUOUS
  0
LAYER
  5
C87
330
B7B
100
AcDbSymbolTableRecord
100
AcDbLayerTableRecord
  2
Shape443
 70
    0
 62
    7
  6
CONTINUOUS
  0
LAYER
  5
C88
330
B7B
100
AcDbSymbolTableRecord
100
AcDbLayerTableRecord
  2
Shape444
 70
    0
 62
    7
  6
CONTINUOUS
  0
LAYER
  5
C89
330
B7B
100
AcDbSymbolTableRecord
100
AcDbLayerTableRecord
  2
Shape445
 70
    0
 62
    7
  6
CONTINUOUS
  0
LAYER
  5
C8A
330
B7B
100
AcDbSymbolTableRecord
100
AcDbLayerTableRecord
  2
Shape446
 70
    0
 62
    7
  6
CONTINUOUS
  0
LAYER
  5
C8B
330
B7B
100
AcDbSymbolTableRecord
100
AcDbLayerTableRecord
  2
Shape447
 70
    0
 62
    7
  6
CONTINUOUS
  0
LAYER
  5
C8C
330
B7B
100
AcDbSymbolTableRecord
100
AcDbLayerTableRecord
  2
Shape448
 70
    0
 62
    7
  6
CONTINUOUS
  0
LAYER
  5
C8D
330
B7B
100
AcDbSymbolTableRecord
100
AcDbLayerTableRecord
  2
Shape449
 70
    0
 62
    7
  6
CONTINUOUS
  0
LAYER
  5
C8E
330
B7B
100
AcDbSymbolTableRecord
100
AcDbLayerTableRecord
  2
Shape450
 70
    0
 62
    7
  6
CONTINUOUS
  0
LAYER
  5
C8F
330
B7B
100
AcDbSymbolTableRecord
100
AcDbLayerTableRecord
  2
Shape451
 70
    0
 62
    7
  6
CONTINUOUS
  0
LAYER
  5
C90
330
B7B
100
AcDbSymbolTableRecord
100
AcDbLayerTableRecord
  2
Shape452
 70
    0
 62
    7
  6
CONTINUOUS
  0
LAYER
  5
C91
330
B7B
100
AcDbSymbolTableRecord
100
AcDbLayerTableRecord
  2
Shape453
 70
    0
 62
    7
  6
CONTINUOUS
  0
LAYER
  5
C92
330
B7B
100
AcDbSymbolTableRecord
100
AcDbLayerTableRecord
  2
Shape454
 70
    0
 62
    7
  6
CONTINUOUS
  0
LAYER
  5
C93
330
B7B
100
AcDbSymbolTableRecord
100
AcDbLayerTableRecord
  2
Shape455
 70
    0
 62
    7
  6
CONTINUOUS
  0
LAYER
  5
C94
330
B7B
100
AcDbSymbolTableRecord
100
AcDbLayerTableRecord
  2
Shape456
 70
    0
 62
    7
  6
CONTINUOUS
  0
LAYER
  5
C95
330
B7B
100
AcDbSymbolTableRecord
100
AcDbLayerTableRecord
  2
Shape457
 70
    0
 62
    7
  6
CONTINUOUS
  0
LAYER
  5
C96
330
B7B
100
AcDbSymbolTableRecord
100
AcDbLayerTableRecord
  2
Shape458
 70
    0
 62
    7
  6
CONTINUOUS
  0
LAYER
  5
C97
330
B7B
100
AcDbSymbolTableRecord
100
AcDbLayerTableRecord
  2
Shape459
 70
    0
 62
    7
  6
CONTINUOUS
  0
LAYER
  5
C98
330
B7B
100
AcDbSymbolTableRecord
100
AcDbLayerTableRecord
  2
Shape460
 70
    0
 62
    7
  6
CONTINUOUS
  0
LAYER
  5
C99
330
B7B
100
AcDbSymbolTableRecord
100
AcDbLayerTableRecord
  2
Shape461
 70
    0
 62
    7
  6
CONTINUOUS
  0
LAYER
  5
C9A
330
B7B
100
AcDbSymbolTableRecord
100
AcDbLayerTableRecord
  2
Shape462
 70
    0
 62
    7
  6
CONTINUOUS
  0
LAYER
  5
C9B
330
B7B
100
AcDbSymbolTableRecord
100
AcDbLayerTableRecord
  2
Shape463
 70
    0
 62
    7
  6
CONTINUOUS
  0
LAYER
  5
C9C
330
B7B
100
AcDbSymbolTableRecord
100
AcDbLayerTableRecord
  2
Shape464
 70
    0
 62
    7
  6
CONTINUOUS
  0
LAYER
  5
C9D
330
B7B
100
AcDbSymbolTableRecord
100
AcDbLayerTableRecord
  2
Shape465
 70
    0
 62
    7
  6
CONTINUOUS
  0
LAYER
  5
C9E
330
B7B
100
AcDbSymbolTableRecord
100
AcDbLayerTableRecord
  2
Shape466
 70
    0
 62
    7
  6
CONTINUOUS
  0
LAYER
  5
C9F
330
B7B
100
AcDbSymbolTableRecord
100
AcDbLayerTableRecord
  2
Shape467
 70
    0
 62
    7
  6
CONTINUOUS
  0
LAYER
  5
CA0
330
B7B
100
AcDbSymbolTableRecord
100
AcDbLayerTableRecord
  2
Shape468
 70
    0
 62
    7
  6
CONTINUOUS
  0
LAYER
  5
CA1
330
B7B
100
AcDbSymbolTableRecord
100
AcDbLayerTableRecord
  2
Shape469
 70
    0
 62
    7
  6
CONTINUOUS
  0
LAYER
  5
CA2
330
B7B
100
AcDbSymbolTableRecord
100
AcDbLayerTableRecord
  2
Shape470
 70
    0
 62
    7
  6
CONTINUOUS
  0
LAYER
  5
CA3
330
B7B
100
AcDbSymbolTableRecord
100
AcDbLayerTableRecord
  2
Shape471
 70
    0
 62
    7
  6
CONTINUOUS
  0
LAYER
  5
CA4
330
B7B
100
AcDbSymbolTableRecord
100
AcDbLayerTableRecord
  2
Shape472
 70
    0
 62
    7
  6
CONTINUOUS
  0
LAYER
  5
CA5
330
B7B
100
AcDbSymbolTableRecord
100
AcDbLayerTableRecord
  2
Shape473
 70
    0
 62
    7
  6
CONTINUOUS
  0
LAYER
  5
CA6
330
B7B
100
AcDbSymbolTableRecord
100
AcDbLayerTableRecord
  2
Shape474
 70
    0
 62
    7
  6
CONTINUOUS
  0
LAYER
  5
CA7
330
B7B
100
AcDbSymbolTableRecord
100
AcDbLayerTableRecord
  2
Shape475
 70
    0
 62
    7
  6
CONTINUOUS
  0
LAYER
  5
CA8
330
B7B
100
AcDbSymbolTableRecord
100
AcDbLayerTableRecord
  2
Shape476
 70
    0
 62
    7
  6
CONTINUOUS
  0
LAYER
  5
CA9
330
B7B
100
AcDbSymbolTableRecord
100
AcDbLayerTableRecord
  2
Shape477
 70
    0
 62
    7
  6
CONTINUOUS
  0
LAYER
  5
CAA
330
B7B
100
AcDbSymbolTableRecord
100
AcDbLayerTableRecord
  2
Shape478
 70
    0
 62
    7
  6
CONTINUOUS
  0
LAYER
  5
CAB
330
B7B
100
AcDbSymbolTableRecord
100
AcDbLayerTableRecord
  2
Shape479
 70
    0
 62
    7
  6
CONTINUOUS
  0
LAYER
  5
CAC
330
B7B
100
AcDbSymbolTableRecord
100
AcDbLayerTableRecord
  2
Shape480
 70
    0
 62
    7
  6
CONTINUOUS
  0
LAYER
  5
CAD
330
B7B
100
AcDbSymbolTableRecord
100
AcDbLayerTableRecord
  2
Shape481
 70
    0
 62
    7
  6
CONTINUOUS
  0
LAYER
  5
CAE
330
B7B
100
AcDbSymbolTableRecord
100
AcDbLayerTableRecord
  2
Shape482
 70
    0
 62
    7
  6
CONTINUOUS
  0
LAYER
  5
CAF
330
B7B
100
AcDbSymbolTableRecord
100
AcDbLayerTableRecord
  2
Shape483
 70
    0
 62
    7
  6
CONTINUOUS
  0
LAYER
  5
CB0
330
B7B
100
AcDbSymbolTableRecord
100
AcDbLayerTableRecord
  2
Shape484
 70
    0
 62
    7
  6
CONTINUOUS
  0
LAYER
  5
CB1
330
B7B
100
AcDbSymbolTableRecord
100
AcDbLayerTableRecord
  2
Shape485
 70
    0
 62
    7
  6
CONTINUOUS
  0
LAYER
  5
CB2
330
B7B
100
AcDbSymbolTableRecord
100
AcDbLayerTableRecord
  2
Shape486
 70
    0
 62
    7
  6
CONTINUOUS
  0
LAYER
  5
CB3
330
B7B
100
AcDbSymbolTableRecord
100
AcDbLayerTableRecord
  2
Shape487
 70
    0
 62
    7
  6
CONTINUOUS
  0
LAYER
  5
CB4
330
B7B
100
AcDbSymbolTableRecord
100
AcDbLayerTableRecord
  2
Shape488
 70
    0
 62
    7
  6
CONTINUOUS
  0
LAYER
  5
CB5
330
B7B
100
AcDbSymbolTableRecord
100
AcDbLayerTableRecord
  2
Shape489
 70
    0
 62
    7
  6
CONTINUOUS
  0
LAYER
  5
CB6
330
B7B
100
AcDbSymbolTableRecord
100
AcDbLayerTableRecord
  2
Shape490
 70
    0
 62
    7
  6
CONTINUOUS
  0
LAYER
  5
CB7
330
B7B
100
AcDbSymbolTableRecord
100
AcDbLayerTableRecord
  2
Shape491
 70
    0
 62
    7
  6
CONTINUOUS
  0
LAYER
  5
CB8
330
B7B
100
AcDbSymbolTableRecord
100
AcDbLayerTableRecord
  2
Shape492
 70
    0
 62
    7
  6
CONTINUOUS
  0
LAYER
  5
CB9
330
B7B
100
AcDbSymbolTableRecord
100
AcDbLayerTableRecord
  2
Shape493
 70
    0
 62
    7
  6
CONTINUOUS
  0
LAYER
  5
CBA
330
B7B
100
AcDbSymbolTableRecord
100
AcDbLayerTableRecord
  2
Shape494
 70
    0
 62
    7
  6
CONTINUOUS
  0
LAYER
  5
CBB
330
B7B
100
AcDbSymbolTableRecord
100
AcDbLayerTableRecord
  2
Shape495
 70
    0
 62
    7
  6
CONTINUOUS
  0
LAYER
  5
CBC
330
B7B
100
AcDbSymbolTableRecord
100
AcDbLayerTableRecord
  2
Shape496
 70
    0
 62
    7
  6
CONTINUOUS
  0
LAYER
  5
CBD
330
B7B
100
AcDbSymbolTableRecord
100
AcDbLayerTableRecord
  2
Shape497
 70
    0
 62
    7
  6
CONTINUOUS
  0
LAYER
  5
CBE
330
B7B
100
AcDbSymbolTableRecord
100
AcDbLayerTableRecord
  2
Shape498
 70
    0
 62
    7
  6
CONTINUOUS
  0
LAYER
  5
CBF
330
B7B
100
AcDbSymbolTableRecord
100
AcDbLayerTableRecord
  2
Shape499
 70
    0
 62
    7
  6
CONTINUOUS
  0
LAYER
  5
CC0
330
B7B
100
AcDbSymbolTableRecord
100
AcDbLayerTableRecord
  2
Shape500
 70
    0
 62
    7
  6
CONTINUOUS
  0
LAYER
  5
CC1
330
B7B
100
AcDbSymbolTableRecord
100
AcDbLayerTableRecord
  2
Shape501
 70
    0
 62
    7
  6
CONTINUOUS
  0
LAYER
  5
CC2
330
B7B
100
AcDbSymbolTableRecord
100
AcDbLayerTableRecord
  2
Shape502
 70
    0
 62
    7
  6
CONTINUOUS
  0
LAYER
  5
CC3
330
B7B
100
AcDbSymbolTableRecord
100
AcDbLayerTableRecord
  2
Shape503
 70
    0
 62
    7
  6
CONTINUOUS
  0
LAYER
  5
CC4
330
B7B
100
AcDbSymbolTableRecord
100
AcDbLayerTableRecord
  2
Shape504
 70
    0
 62
    7
  6
CONTINUOUS
  0
LAYER
  5
CC5
330
B7B
100
AcDbSymbolTableRecord
100
AcDbLayerTableRecord
  2
Shape505
 70
    0
 62
    7
  6
CONTINUOUS
  0
LAYER
  5
CC6
330
B7B
100
AcDbSymbolTableRecord
100
AcDbLayerTableRecord
  2
Shape506
 70
    0
 62
    7
  6
CONTINUOUS
  0
LAYER
  5
CC7
330
B7B
100
AcDbSymbolTableRecord
100
AcDbLayerTableRecord
  2
Shape507
 70
    0
 62
    7
  6
CONTINUOUS
  0
LAYER
  5
CC8
330
B7B
100
AcDbSymbolTableRecord
100
AcDbLayerTableRecord
  2
Shape508
 70
    0
 62
    7
  6
CONTINUOUS
  0
LAYER
  5
CC9
330
B7B
100
AcDbSymbolTableRecord
100
AcDbLayerTableRecord
  2
Shape509
 70
    0
 62
    7
  6
CONTINUOUS
  0
LAYER
  5
CCA
330
B7B
100
AcDbSymbolTableRecord
100
AcDbLayerTableRecord
  2
Shape510
 70
    0
 62
    7
  6
CONTINUOUS
  0
LAYER
  5
CCB
330
B7B
100
AcDbSymbolTableRecord
100
AcDbLayerTableRecord
  2
Shape511
 70
    0
 62
    7
  6
CONTINUOUS
  0
LAYER
  5
CCC
330
B7B
100
AcDbSymbolTableRecord
100
AcDbLayerTableRecord
  2
Shape512
 70
    0
 62
    7
  6
CONTINUOUS
  0
LAYER
  5
CCD
330
B7B
100
AcDbSymbolTableRecord
100
AcDbLayerTableRecord
  2
Shape513
 70
    0
 62
    7
  6
CONTINUOUS
  0
LAYER
  5
CCE
330
B7B
100
AcDbSymbolTableRecord
100
AcDbLayerTableRecord
  2
Shape514
 70
    0
 62
    7
  6
CONTINUOUS
  0
LAYER
  5
CCF
330
B7B
100
AcDbSymbolTableRecord
100
AcDbLayerTableRecord
  2
Shape515
 70
    0
 62
    7
  6
CONTINUOUS
  0
LAYER
  5
CD0
330
B7B
100
AcDbSymbolTableRecord
100
AcDbLayerTableRecord
  2
Shape516
 70
    0
 62
    7
  6
CONTINUOUS
  0
LAYER
  5
CD1
330
B7B
100
AcDbSymbolTableRecord
100
AcDbLayerTableRecord
  2
Shape517
 70
    0
 62
    7
  6
CONTINUOUS
  0
LAYER
  5
CD2
330
B7B
100
AcDbSymbolTableRecord
100
AcDbLayerTableRecord
  2
Shape518
 70
    0
 62
    7
  6
CONTINUOUS
  0
LAYER
  5
CD3
330
B7B
100
AcDbSymbolTableRecord
100
AcDbLayerTableRecord
  2
Shape519
 70
    0
 62
    7
  6
CONTINUOUS
  0
LAYER
  5
CD4
330
B7B
100
AcDbSymbolTableRecord
100
AcDbLayerTableRecord
  2
Shape520
 70
    0
 62
    7
  6
CONTINUOUS
  0
LAYER
  5
CD5
330
B7B
100
AcDbSymbolTableRecord
100
AcDbLayerTableRecord
  2
Shape521
 70
    0
 62
    7
  6
CONTINUOUS
  0
LAYER
  5
CD6
330
B7B
100
AcDbSymbolTableRecord
100
AcDbLayerTableRecord
  2
Shape522
 70
    0
 62
    7
  6
CONTINUOUS
  0
LAYER
  5
CD7
330
B7B
100
AcDbSymbolTableRecord
100
AcDbLayerTableRecord
  2
Shape523
 70
    0
 62
    7
  6
CONTINUOUS
  0
LAYER
  5
CD8
330
B7B
100
AcDbSymbolTableRecord
100
AcDbLayerTableRecord
  2
Shape524
 70
    0
 62
    7
  6
CONTINUOUS
  0
LAYER
  5
CD9
330
B7B
100
AcDbSymbolTableRecord
100
AcDbLayerTableRecord
  2
Shape525
 70
    0
 62
    7
  6
CONTINUOUS
  0
LAYER
  5
CDA
330
B7B
100
AcDbSymbolTableRecord
100
AcDbLayerTableRecord
  2
Shape526
 70
    0
 62
    7
  6
CONTINUOUS
  0
LAYER
  5
CDB
330
B7B
100
AcDbSymbolTableRecord
100
AcDbLayerTableRecord
  2
Shape527
 70
    0
 62
    7
  6
CONTINUOUS
  0
LAYER
  5
CDC
330
B7B
100
AcDbSymbolTableRecord
100
AcDbLayerTableRecord
  2
Shape528
 70
    0
 62
    7
  6
CONTINUOUS
  0
LAYER
  5
CDD
330
B7B
100
AcDbSymbolTableRecord
100
AcDbLayerTableRecord
  2
Shape529
 70
    0
 62
    7
  6
CONTINUOUS
  0
LAYER
  5
CDE
330
B7B
100
AcDbSymbolTableRecord
100
AcDbLayerTableRecord
  2
Shape530
 70
    0
 62
    7
  6
CONTINUOUS
  0
LAYER
  5
CDF
330
B7B
100
AcDbSymbolTableRecord
100
AcDbLayerTableRecord
  2
Shape531
 70
    0
 62
    7
  6
CONTINUOUS
  0
LAYER
  5
CE0
330
B7B
100
AcDbSymbolTableRecord
100
AcDbLayerTableRecord
  2
Shape532
 70
    0
 62
    7
  6
CONTINUOUS
  0
LAYER
  5
CE1
330
B7B
100
AcDbSymbolTableRecord
100
AcDbLayerTableRecord
  2
Shape533
 70
    0
 62
    7
  6
CONTINUOUS
  0
LAYER
  5
CE2
330
B7B
100
AcDbSymbolTableRecord
100
AcDbLayerTableRecord
  2
Shape534
 70
    0
 62
    7
  6
CONTINUOUS
  0
LAYER
  5
CE3
330
B7B
100
AcDbSymbolTableRecord
100
AcDbLayerTableRecord
  2
Shape535
 70
    0
 62
    7
  6
CONTINUOUS
  0
LAYER
  5
CE4
330
B7B
100
AcDbSymbolTableRecord
100
AcDbLayerTableRecord
  2
Shape536
 70
    0
 62
    7
  6
CONTINUOUS
  0
LAYER
  5
CE5
330
B7B
100
AcDbSymbolTableRecord
100
AcDbLayerTableRecord
  2
Shape537
 70
    0
 62
    7
  6
CONTINUOUS
  0
LAYER
  5
CE6
330
B7B
100
AcDbSymbolTableRecord
100
AcDbLayerTableRecord
  2
Shape538
 70
    0
 62
    7
  6
CONTINUOUS
  0
LAYER
  5
CE7
330
B7B
100
AcDbSymbolTableRecord
100
AcDbLayerTableRecord
  2
Shape539
 70
    0
 62
    7
  6
CONTINUOUS
  0
LAYER
  5
CE8
330
B7B
100
AcDbSymbolTableRecord
100
AcDbLayerTableRecord
  2
Shape540
 70
    0
 62
    7
  6
CONTINUOUS
  0
LAYER
  5
CE9
330
B7B
100
AcDbSymbolTableRecord
100
AcDbLayerTableRecord
  2
Shape541
 70
    0
 62
    7
  6
CONTINUOUS
  0
LAYER
  5
CEA
330
B7B
100
AcDbSymbolTableRecord
100
AcDbLayerTableRecord
  2
Shape542
 70
    0
 62
    7
  6
CONTINUOUS
  0
LAYER
  5
CEB
330
B7B
100
AcDbSymbolTableRecord
100
AcDbLayerTableRecord
  2
Shape543
 70
    0
 62
    7
  6
CONTINUOUS
  0
LAYER
  5
CEC
330
B7B
100
AcDbSymbolTableRecord
100
AcDbLayerTableRecord
  2
Shape544
 70
    0
 62
    7
  6
CONTINUOUS
  0
LAYER
  5
CED
330
B7B
100
AcDbSymbolTableRecord
100
AcDbLayerTableRecord
  2
Shape545
 70
    0
 62
    7
  6
CONTINUOUS
  0
LAYER
  5
CEE
330
B7B
100
AcDbSymbolTableRecord
100
AcDbLayerTableRecord
  2
Shape546
 70
    0
 62
    7
  6
CONTINUOUS
  0
LAYER
  5
CEF
330
B7B
100
AcDbSymbolTableRecord
100
AcDbLayerTableRecord
  2
Shape547
 70
    0
 62
    7
  6
CONTINUOUS
  0
LAYER
  5
CF0
330
B7B
100
AcDbSymbolTableRecord
100
AcDbLayerTableRecord
  2
Shape2460
 70
    0
 62
    7
  6
CONTINUOUS
  0
ENDTAB
  0
TABLE
  2
STYLE
  5
70
330
0
100
AcDbSymbolTable
 70
     2
  0
STYLE
  5
71
330
70
100
AcDbSymbolTableRecord
100
AcDbTextStyleTableRecord
  2
STANDARD
 70
     0
 40
0.0
 41
1.0
 50
0.0
 71
     0
 42
2.5
  3
arial.ttf
  4

  0
STYLE
  5
72
330
70
100
AcDbSymbolTableRecord
100
AcDbTextStyleTableRecord
  2
ANNOTATIVE
 70
     0
 40
0.0
 41
1.0
 50
0.0
 71
     0
 42
2.5
  3
arial.ttf
  4

  0
ENDTAB
  0
TABLE
  2
VIEW
  5
73
330
0
100
AcDbSymbolTable
 70
     0
  0
ENDTAB
  0
TABLE
  2
UCS
  5
74
330
0
100
AcDbSymbolTable
 70
     0
  0
ENDTAB
  0
TABLE
  2
APPID
  5
75
330
0
100
AcDbSymbolTable
 70
     2
  0
APPID
  5
76
330
75
100
AcDbSymbolTableRecord
100
AcDbRegAppTableRecord
  2
ACAD
 70
     0
  0
APPID
  5
77
330
75
100
AcDbSymbolTableRecord
100
AcDbRegAppTableRecord
  2
ACADANNOTATIVE
 70
     0
  0
ENDTAB
  0
TABLE
  2
DIMSTYLE
  5
78
330
0
100
AcDbSymbolTable
 70
     2
  0
DIMSTYLE
105
79
330
78
100
AcDbSymbolTableRecord
100
AcDbDimStyleTableRecord
  2
STANDARD
 70
     0
  3

  4

  5

  6

  7

 40
0.0
 41
2.5
 42
0.625
 43
3.75
 44
1.25
 45
0.0
 46
0.0
 47
0.0
 48
0.0
140
2.5
141
2.5
142
0.0
143
0.03937007874016
144
1.0
145
0.0
146
1.0
147
0.625
 71
     0
 72
     0
 73
     0
 74
     0
 75
     0
 76
     0
 77
     1
 78
     8
170
     0
171
     3
172
     1
173
     0
174
     0
175
     0
176
     0
177
     0
178
     0
270
     2
271
     2
272
     2
273
     2
274
     3
340
71
275
     0
280
     0
281
     0
282
     0
283
     0
284
     8
285
     0
286
     0
287
     3
288
     0
  0
ENDTAB
  0
TABLE
  2
BLOCK_RECORD
  5
A01
330
0
100
AcDbSymbolTable
  70
5
  0
BLOCK_RECORD
  5
A02
330
A01
100
AcDbSymbolTableRecord
100
AcDbBlockTableRecord
  2
*MODEL_SPACE
  0
BLOCK_RECORD
  5
A03
330
A01
100
AcDbSymbolTableRecord
100
AcDbBlockTableRecord
  2
*PAPER_SPACE
  0
ENDTAB
  0
ENDSEC
  0
SECTION
  2
BLOCKS
  0
BLOCK
  5
A04
330
A02
100
AcDbEntity
  8
0
100
AcDbBlockBegin
  2
*MODEL_SPACE
 70
   0
 10
0
 20
0
 30
0
  3
*MODEL_SPACE
  1
 
  0
ENDBLK
  5
A05
330
A02
100
AcDbEntity
  8
0
100
AcDbBlockEnd
  0
BLOCK
  5
A06
330
A03
100
AcDbEntity
 67
1
  8
0
100
AcDbBlockBegin
  2
*PAPER_SPACE
 70
   0
 10
0
 20
0
 30
0
  3
*PAPER_SPACE
  1
 
  0
ENDBLK
  5
A07
330
A03
100
AcDbEntity
 67
    1
  8
0
100
AcDbBlockEnd
  0
ENDSEC
  0
SECTION
  2
ENTITIES
  0
CIRCLE
  5
A08
330
A02
100
AcDbEntity
  8
Shape
100
AcDbCircle
 10
-223.335
 20
218.854
 40
1.1
  0
CIRCLE
  5
A09
330
A02
100
AcDbEntity
  8
Shape001
100
AcDbCircle
 10
-133.335
 20
218.854
 40
1.1
  0
CIRCLE
  5
A0A
330
A02
100
AcDbEntity
  8
Shape002
100
AcDbCircle
 10
-43.335
 20
218.854
 40
1.1
  0
CIRCLE
  5
A0B
330
A02
100
AcDbEntity
  8
Shape003
100
AcDbCircle
 10
-223.335
 20
135.456
 40
1.1
  0
CIRCLE
  5
A0C
330
A02
100
AcDbEntity
  8
Shape004
100
AcDbCircle
 10
-133.335
 20
135.456
 40
1.1
  0
CIRCLE
  5
A0D
330
A02
100
AcDbEntity
  8
Shape005
100
AcDbCircle
 10
-43.335
 20
135.456
 40
1.1
  0
LINE
  5
A0E
330
A02
100
AcDbEntity
  8
Shape184
100
AcDbLine
 10
-212.835
 20
138.955
 30
0
 11
-143.835
 21
138.955
 31
0
  0
ARC
  5
A0F
330
A02
100
AcDbEntity
  8
Shape185
100
AcDbCircle
 10
-143.835
 20
138.455
 30
0
 40
0.5
100
AcDbArc
 50
0
 51
90
  0
LINE
  5
A10
330
A02
100
AcDbEntity
  8
Shape186
100
AcDbLine
 10
-143.335
 20
138.455
 30
0
 11
-143.335
 21
138.206
 31
0
  0
ARC
  5
A11
330
A02
100
AcDbEntity
  8
Shape187
100
AcDbCircle
 10
-143.835
 20
138.206
 30
0
 40
0.5
100
AcDbArc
 50
-90
 51
0
  0
LINE
  5
A12
330
A02
100
AcDbEntity
  8
Shape188
100
AcDbLine
 10
-143.835
 20
137.706
 30
0
 11
-154.335
 21
137.706
 31
0
  0
ARC
  5
A13
330
A02
100
AcDbEntity
  8
Shape189
100
AcDbCircle
 10
-154.335
 20
136.706
 30
0
 40
1
100
AcDbArc
 50
90
 51
180
  0
LINE
  5
A14
330
A02
100
AcDbEntity
  8
Shape190
100
AcDbLine
 10
-155.335
 20
136.706
 30
0
 11
-155.335
 21
135.206
 31
0
  0
ARC
  5
A15
330
A02
100
AcDbEntity
  8
Shape191
100
AcDbCircle
 10
-154.335
 20
135.206
 30
0
 40
1
100
AcDbArc
 50
180
 51
-90
  0
LINE
  5
A16
330
A02
100
AcDbEntity
  8
Shape192
100
AcDbLine
 10
-154.335
 20
134.206
 30
0
 11
-136.335
 21
134.206
 31
0
  0
LINE
  5
A17
330
A02
100
AcDbEntity
  8
Shape193
100
AcDbLine
 10
-136.335
 20
134.206
 30
0
 11
-136.335
 21
139.456
 31
0
  0
ARC
  5
A18
330
A02
100
AcDbEntity
  8
Shape194
100
AcDbCircle
 10
-135.835
 20
139.456
 30
0
 40
0.5
100
AcDbArc
 50
0
 51
180
  0
LINE
  5
A19
330
A02
100
AcDbEntity
  8
Shape195
100
AcDbLine
 10
-135.335
 20
139.456
 30
0
 11
-135.335
 21
135.456
 31
0
  0
ARC
  5
A1A
330
A02
100
AcDbEntity
  8
Shape196
100
AcDbCircle
 10
-133.335
 20
135.456
 30
0
 40
2
100
AcDbArc
 50
180
 51
0
  0
LINE
  5
A1B
330
A02
100
AcDbEntity
  8
Shape197
100
AcDbLine
 10
-131.335
 20
135.456
 30
0
 11
-131.335
 21
139.456
 31
0
  0
ARC
  5
A1C
330
A02
100
AcDbEntity
  8
Shape198
100
AcDbCircle
 10
-130.835
 20
139.456
 30
0
 40
0.5
100
AcDbArc
 50
0
 51
180
  0
LINE
  5
A1D
330
A02
100
AcDbEntity
  8
Shape199
100
AcDbLine
 10
-130.335
 20
139.456
 30
0
 11
-130.335
 21
134.206
 31
0
  0
LINE
  5
A1E
330
A02
100
AcDbEntity
  8
Shape200
100
AcDbLine
 10
-130.335
 20
134.206
 30
0
 11
-112.335
 21
134.206
 31
0
  0
ARC
  5
A1F
330
A02
100
AcDbEntity
  8
Shape201
100
AcDbCircle
 10
-112.335
 20
135.206
 30
0
 40
1
100
AcDbArc
 50
-90
 51
0
  0
LINE
  5
A20
330
A02
100
AcDbEntity
  8
Shape202
100
AcDbLine
 10
-111.335
 20
135.206
 30
0
 11
-111.335
 21
136.706
 31
0
  0
LINE
  5
A21
330
A02
100
AcDbEntity
  8
Shape203
100
AcDbLine
 10
-22.335
 20
134.206
 30
0
 11
-40.335
 21
134.206
 31
0
  0
LINE
  5
A22
330
A02
100
AcDbEntity
  8
Shape204
100
AcDbLine
 10
-40.335
 20
134.206
 30
0
 11
-40.335
 21
139.456
 31
0
  0
ARC
  5
A23
330
A02
100
AcDbEntity
  8
Shape205
100
AcDbCircle
 10
-40.835
 20
139.456
 30
0
 40
0.5
100
AcDbArc
 50
0
 51
180
  0
LINE
  5
A24
330
A02
100
AcDbEntity
  8
Shape206
100
AcDbLine
 10
-41.335
 20
139.456
 30
0
 11
-41.335
 21
135.456
 31
0
  0
ARC
  5
A25
330
A02
100
AcDbEntity
  8
Shape207
100
AcDbCircle
 10
-43.335
 20
135.456
 30
0
 40
2
100
AcDbArc
 50
180
 51
0
  0
LINE
  5
A26
330
A02
100
AcDbEntity
  8
Shape208
100
AcDbLine
 10
-45.335
 20
135.456
 30
0
 11
-45.335
 21
139.456
 31
0
  0
ARC
  5
A27
330
A02
100
AcDbEntity
  8
Shape209
100
AcDbCircle
 10
-45.835
 20
139.456
 30
0
 40
0.5
100
AcDbArc
 50
0
 51
180
  0
LINE
  5
A28
330
A02
100
AcDbEntity
  8
Shape210
100
AcDbLine
 10
-46.335
 20
139.456
 30
0
 11
-46.335
 21
134.206
 31
0
  0
LINE
  5
A29
330
A02
100
AcDbEntity
  8
Shape211
100
AcDbLine
 10
-46.335
 20
134.206
 30
0
 11
-64.335
 21
134.206
 31
0
  0
ARC
  5
A2A
330
A02
100
AcDbEntity
  8
Shape212
100
AcDbCircle
 10
-64.335
 20
135.206
 30
0
 40
1
100
AcDbArc
 50
180
 51
-90
  0
LINE
  5
A2B
330
A02
100
AcDbEntity
  8
Shape213
100
AcDbLine
 10
-65.335
 20
135.206
 30
0
 11
-65.335
 21
136.706
 31
0
  0
ARC
  5
A2C
330
A02
100
AcDbEntity
  8
Shape214
100
AcDbCircle
 10
-64.335
 20
136.706
 30
0
 40
1
100
AcDbArc
 50
90
 51
180
  0
LINE
  5
A2D
330
A02
100
AcDbEntity
  8
Shape215
100
AcDbLine
 10
-64.335
 20
137.706
 30
0
 11
-53.835
 21
137.706
 31
0
  0
ARC
  5
A2E
330
A02
100
AcDbEntity
  8
Shape216
100
AcDbCircle
 10
-53.835
 20
138.206
 30
0
 40
0.5
100
AcDbArc
 50
-90
 51
0
  0
LINE
  5
A2F
330
A02
100
AcDbEntity
  8
Shape217
100
AcDbLine
 10
-53.335
 20
138.206
 30
0
 11
-53.335
 21
138.455
 31
0
  0
ARC
  5
A30
330
A02
100
AcDbEntity
  8
Shape218
100
AcDbCircle
 10
-53.835
 20
138.455
 30
0
 40
0.5
100
AcDbArc
 50
0
 51
90
  0
LINE
  5
A31
330
A02
100
AcDbEntity
  8
Shape219
100
AcDbLine
 10
-53.835
 20
138.955
 30
0
 11
-122.835
 21
138.955
 31
0
  0
ARC
  5
A32
330
A02
100
AcDbEntity
  8
Shape220
100
AcDbCircle
 10
-122.835
 20
138.455
 30
0
 40
0.5
100
AcDbArc
 50
90
 51
180
  0
LINE
  5
A33
330
A02
100
AcDbEntity
  8
Shape221
100
AcDbLine
 10
-123.335
 20
138.455
 30
0
 11
-123.335
 21
138.206
 31
0
  0
ARC
  5
A34
330
A02
100
AcDbEntity
  8
Shape222
100
AcDbCircle
 10
-122.835
 20
138.206
 30
0
 40
0.5
100
AcDbArc
 50
180
 51
-90
  0
LINE
  5
A35
330
A02
100
AcDbEntity
  8
Shape223
100
AcDbLine
 10
-122.835
 20
137.706
 30
0
 11
-112.335
 21
137.706
 31
0
  0
ARC
  5
A36
330
A02
100
AcDbEntity
  8
Shape224
100
AcDbCircle
 10
-112.335
 20
136.706
 30
0
 40
1
100
AcDbArc
 50
0
 51
90
  0
LINE
  5
A37
330
A02
100
AcDbEntity
  8
Shape225
100
AcDbLine
 10
-212.835
 20
215.355
 30
0
 11
-143.835
 21
215.355
 31
0
  0
ARC
  5
A38
330
A02
100
AcDbEntity
  8
Shape226
100
AcDbCircle
 10
-143.835
 20
215.855
 30
0
 40
0.5
100
AcDbArc
 50
-90
 51
0
  0
LINE
  5
A39
330
A02
100
AcDbEntity
  8
Shape227
100
AcDbLine
 10
-143.335
 20
215.855
 30
0
 11
-143.335
 21
216.104
 31
0
  0
ARC
  5
A3A
330
A02
100
AcDbEntity
  8
Shape228
100
AcDbCircle
 10
-143.835
 20
216.104
 30
0
 40
0.5
100
AcDbArc
 50
0
 51
90
  0
LINE
  5
A3B
330
A02
100
AcDbEntity
  8
Shape229
100
AcDbLine
 10
-143.835
 20
216.604
 30
0
 11
-154.335
 21
216.604
 31
0
  0
ARC
  5
A3C
330
A02
100
AcDbEntity
  8
Shape230
100
AcDbCircle
 10
-154.335
 20
217.604
 30
0
 40
1
100
AcDbArc
 50
180
 51
-90
  0
LINE
  5
A3D
330
A02
100
AcDbEntity
  8
Shape231
100
AcDbLine
 10
-155.335
 20
217.604
 30
0
 11
-155.335
 21
219.104
 31
0
  0
ARC
  5
A3E
330
A02
100
AcDbEntity
  8
Shape232
100
AcDbCircle
 10
-154.335
 20
219.104
 30
0
 40
1
100
AcDbArc
 50
90
 51
180
  0
LINE
  5
A3F
330
A02
100
AcDbEntity
  8
Shape233
100
AcDbLine
 10
-154.335
 20
220.104
 30
0
 11
-136.335
 21
220.104
 31
0
  0
LINE
  5
A40
330
A02
100
AcDbEntity
  8
Shape234
100
AcDbLine
 10
-136.335
 20
220.104
 30
0
 11
-136.335
 21
214.854
 31
0
  0
ARC
  5
A41
330
A02
100
AcDbEntity
  8
Shape235
100
AcDbCircle
 10
-135.835
 20
214.854
 30
0
 40
0.5
100
AcDbArc
 50
180
 51
0
  0
LINE
  5
A42
330
A02
100
AcDbEntity
  8
Shape236
100
AcDbLine
 10
-135.335
 20
214.854
 30
0
 11
-135.335
 21
218.854
 31
0
  0
ARC
  5
A43
330
A02
100
AcDbEntity
  8
Shape237
100
AcDbCircle
 10
-133.335
 20
218.854
 30
0
 40
2
100
AcDbArc
 50
0
 51
180
  0
LINE
  5
A44
330
A02
100
AcDbEntity
  8
Shape238
100
AcDbLine
 10
-131.335
 20
218.854
 30
0
 11
-131.335
 21
214.854
 31
0
  0
ARC
  5
A45
330
A02
100
AcDbEntity
  8
Shape239
100
AcDbCircle
 10
-130.835
 20
214.854
 30
0
 40
0.5
100
AcDbArc
 50
180
 51
0
  0
LINE
  5
A46
330
A02
100
AcDbEntity
  8
Shape240
100
AcDbLine
 10
-130.335
 20
214.854
 30
0
 11
-130.335
 21
220.104
 31
0
  0
LINE
  5
A47
330
A02
100
AcDbEntity
  8
Shape241
100
AcDbLine
 10
-130.335
 20
220.104
 30
0
 11
-112.335
 21
220.104
 31
0
  0
ARC
  5
A48
330
A02
100
AcDbEntity
  8
Shape242
100
AcDbCircle
 10
-112.335
 20
219.104
 30
0
 40
1
100
AcDbArc
 50
0
 51
90
  0
LINE
  5
A49
330
A02
100
AcDbEntity
  8
Shape243
100
AcDbLine
 10
-111.335
 20
219.104
 30
0
 11
-111.335
 21
217.604
 31
0
  0
LINE
  5
A4A
330
A02
100
AcDbEntity
  8
Shape244
100
AcDbLine
 10
-9.51498
 20
160.58
 30
0
 11
-9.51498
 21
213.355
 31
0
  0
ARC
  5
A4B
330
A02
100
AcDbEntity
  8
Shape245
100
AcDbCircle
 10
-11.515
 20
213.355
 30
0
 40
2
100
AcDbArc
 50
0
 51
90
  0
LINE
  5
A4C
330
A02
100
AcDbEntity
  8
Shape246
100
AcDbLine
 10
-11.515
 20
215.355
 30
0
 11
-32.835
 21
215.355
 31
0
  0
ARC
  5
A4D
330
A02
100
AcDbEntity
  8
Shape247
100
AcDbCircle
 10
-32.835
 20
215.855
 30
0
 40
0.5
100
AcDbArc
 50
180
 51
-90
  0
LINE
  5
A4E
330
A02
100
AcDbEntity
  8
Shape248
100
AcDbLine
 10
-33.335
 20
215.855
 30
0
 11
-33.335
 21
216.104
 31
0
  0
ARC
  5
A4F
330
A02
100
AcDbEntity
  8
Shape249
100
AcDbCircle
 10
-32.835
 20
216.104
 30
0
 40
0.5
100
AcDbArc
 50
90
 51
180
  0
LINE
  5
A50
330
A02
100
AcDbEntity
  8
Shape250
100
AcDbLine
 10
-32.835
 20
216.604
 30
0
 11
-22.335
 21
216.604
 31
0
  0
ARC
  5
A51
330
A02
100
AcDbEntity
  8
Shape251
100
AcDbCircle
 10
-22.335
 20
217.604
 30
0
 40
1
100
AcDbArc
 50
-90
 51
0
  0
LINE
  5
A52
330
A02
100
AcDbEntity
  8
Shape252
100
AcDbLine
 10
-21.335
 20
217.604
 30
0
 11
-21.335
 21
219.104
 31
0
  0
ARC
  5
A53
330
A02
100
AcDbEntity
  8
Shape253
100
AcDbCircle
 10
-22.335
 20
219.104
 30
0
 40
1
100
AcDbArc
 50
0
 51
90
  0
LINE
  5
A54
330
A02
100
AcDbEntity
  8
Shape254
100
AcDbLine
 10
-22.335
 20
220.104
 30
0
 11
-40.335
 21
220.104
 31
0
  0
LINE
  5
A55
330
A02
100
AcDbEntity
  8
Shape255
100
AcDbLine
 10
-40.335
 20
220.104
 30
0
 11
-40.335
 21
214.854
 31
0
  0
ARC
  5
A56
330
A02
100
AcDbEntity
  8
Shape256
100
AcDbCircle
 10
-40.835
 20
214.854
 30
0
 40
0.5
100
AcDbArc
 50
180
 51
0
  0
LINE
  5
A57
330
A02
100
AcDbEntity
  8
Shape257
100
AcDbLine
 10
-41.335
 20
214.854
 30
0
 11
-41.335
 21
218.854
 31
0
  0
ARC
  5
A58
330
A02
100
AcDbEntity
  8
Shape258
100
AcDbCircle
 10
-43.335
 20
218.854
 30
0
 40
2
100
AcDbArc
 50
0
 51
180
  0
LINE
  5
A59
330
A02
100
AcDbEntity
  8
Shape259
100
AcDbLine
 10
-45.335
 20
218.854
 30
0
 11
-45.335
 21
214.854
 31
0
  0
ARC
  5
A5A
330
A02
100
AcDbEntity
  8
Shape260
100
AcDbCircle
 10
-45.835
 20
214.854
 30
0
 40
0.5
100
AcDbArc
 50
180
 51
0
  0
LINE
  5
A5B
330
A02
100
AcDbEntity
  8
Shape261
100
AcDbLine
 10
-46.335
 20
214.854
 30
0
 11
-46.335
 21
220.104
 31
0
  0
LINE
  5
A5C
330
A02
100
AcDbEntity
  8
Shape262
100
AcDbLine
 10
-46.335
 20
220.104
 30
0
 11
-64.335
 21
220.104
 31
0
  0
ARC
  5
A5D
330
A02
100
AcDbEntity
  8
Shape263
100
AcDbCircle
 10
-64.335
 20
219.104
 30
0
 40
1
100
AcDbArc
 50
90
 51
180
  0
LINE
  5
A5E
330
A02
100
AcDbEntity
  8
Shape264
100
AcDbLine
 10
-65.335
 20
219.104
 30
0
 11
-65.335
 21
217.604
 31
0
  0
ARC
  5
A5F
330
A02
100
AcDbEntity
  8
Shape265
100
AcDbCircle
 10
-64.335
 20
217.604
 30
0
 40
1
100
AcDbArc
 50
180
 51
-90
  0
LINE
  5
A60
330
A02
100
AcDbEntity
  8
Shape266
100
AcDbLine
 10
-64.335
 20
216.604
 30
0
 11
-53.835
 21
216.604
 31
0
  0
ARC
  5
A61
330
A02
100
AcDbEntity
  8
Shape267
100
AcDbCircle
 10
-53.835
 20
216.104
 30
0
 40
0.5
100
AcDbArc
 50
0
 51
90
  0
LINE
  5
A62
330
A02
100
AcDbEntity
  8
Shape268
100
AcDbLine
 10
-53.335
 20
216.104
 30
0
 11
-53.335
 21
215.855
 31
0
  0
ARC
  5
A63
330
A02
100
AcDbEntity
  8
Shape269
100
AcDbCircle
 10
-53.835
 20
215.855
 30
0
 40
0.5
100
AcDbArc
 50
-90
 51
0
  0
LINE
  5
A64
330
A02
100
AcDbEntity
  8
Shape270
100
AcDbLine
 10
-53.835
 20
215.355
 30
0
 11
-122.835
 21
215.355
 31
0
  0
ARC
  5
A65
330
A02
100
AcDbEntity
  8
Shape271
100
AcDbCircle
 10
-122.835
 20
215.855
 30
0
 40
0.5
100
AcDbArc
 50
180
 51
-90
  0
LINE
  5
A66
330
A02
100
AcDbEntity
  8
Shape272
100
AcDbLine
 10
-123.335
 20
215.855
 30
0
 11
-123.335
 21
216.104
 31
0
  0
ARC
  5
A67
330
A02
100
AcDbEntity
  8
Shape273
100
AcDbCircle
 10
-122.835
 20
216.104
 30
0
 40
0.5
100
AcDbArc
 50
90
 51
180
  0
LINE
  5
A68
330
A02
100
AcDbEntity
  8
Shape274
100
AcDbLine
 10
-122.835
 20
216.604
 30
0
 11
-112.335
 21
216.604
 31
0
  0
ARC
  5
A69
330
A02
100
AcDbEntity
  8
Shape275
100
AcDbCircle
 10
-112.335
 20
217.604
 30
0
 40
1
100
AcDbArc
 50
-90
 51
0
  0
ARC
  5
A6A
330
A02
100
AcDbEntity
  8
Shape276
100
AcDbCircle
 10
-212.835
 20
215.855
 30
0
 40
0.5
100
AcDbArc
 50
180
 51
-90
  0
LINE
  5
A6B
330
A02
100
AcDbEntity
  8
Shape277
100
AcDbLine
 10
-213.335
 20
215.855
 30
0
 11
-213.335
 21
216.104
 31
0
  0
ARC
  5
A6C
330
A02
100
AcDbEntity
  8
Shape278
100
AcDbCircle
 10
-212.835
 20
216.104
 30
0
 40
0.5
100
AcDbArc
 50
90
 51
180
  0
LINE
  5
A6D
330
A02
100
AcDbEntity
  8
Shape279
100
AcDbLine
 10
-212.835
 20
216.604
 30
0
 11
-202.335
 21
216.604
 31
0
  0
ARC
  5
A6E
330
A02
100
AcDbEntity
  8
Shape280
100
AcDbCircle
 10
-202.335
 20
217.604
 30
0
 40
1
100
AcDbArc
 50
-90
 51
0
  0
LINE
  5
A6F
330
A02
100
AcDbEntity
  8
Shape281
100
AcDbLine
 10
-201.335
 20
217.604
 30
0
 11
-201.335
 21
219.104
 31
0
  0
ARC
  5
A70
330
A02
100
AcDbEntity
  8
Shape282
100
AcDbCircle
 10
-202.335
 20
219.104
 30
0
 40
1
100
AcDbArc
 50
0
 51
90
  0
LINE
  5
A71
330
A02
100
AcDbEntity
  8
Shape283
100
AcDbLine
 10
-202.335
 20
220.104
 30
0
 11
-220.335
 21
220.104
 31
0
  0
LINE
  5
A72
330
A02
100
AcDbEntity
  8
Shape284
100
AcDbLine
 10
-220.335
 20
220.104
 30
0
 11
-220.335
 21
214.854
 31
0
  0
ARC
  5
A73
330
A02
100
AcDbEntity
  8
Shape285
100
AcDbCircle
 10
-220.835
 20
214.854
 30
0
 40
0.5
100
AcDbArc
 50
180
 51
0
  0
LINE
  5
A74
330
A02
100
AcDbEntity
  8
Shape286
100
AcDbLine
 10
-221.335
 20
214.854
 30
0
 11
-221.335
 21
218.854
 31
0
  0
ARC
  5
A75
330
A02
100
AcDbEntity
  8
Shape287
100
AcDbCircle
 10
-223.335
 20
218.854
 30
0
 40
2
100
AcDbArc
 50
0
 51
180
  0
LINE
  5
A76
330
A02
100
AcDbEntity
  8
Shape288
100
AcDbLine
 10
-225.335
 20
218.854
 30
0
 11
-225.335
 21
214.854
 31
0
  0
ARC
  5
A77
330
A02
100
AcDbEntity
  8
Shape289
100
AcDbCircle
 10
-225.835
 20
214.854
 30
0
 40
0.5
100
AcDbArc
 50
180
 51
0
  0
LINE
  5
A78
330
A02
100
AcDbEntity
  8
Shape290
100
AcDbLine
 10
-226.335
 20
214.854
 30
0
 11
-226.335
 21
220.104
 31
0
  0
LINE
  5
A79
330
A02
100
AcDbEntity
  8
Shape291
100
AcDbLine
 10
-226.335
 20
220.104
 30
0
 11
-244.335
 21
220.104
 31
0
  0
ARC
  5
A7A
330
A02
100
AcDbEntity
  8
Shape292
100
AcDbCircle
 10
-244.335
 20
219.104
 30
0
 40
1
100
AcDbArc
 50
90
 51
180
  0
LINE
  5
A7B
330
A02
100
AcDbEntity
  8
Shape293
100
AcDbLine
 10
-245.335
 20
219.104
 30
0
 11
-245.335
 21
217.604
 31
0
  0
ARC
  5
A7C
330
A02
100
AcDbEntity
  8
Shape294
100
AcDbCircle
 10
-244.335
 20
217.604
 30
0
 40
1
100
AcDbArc
 50
180
 51
-90
  0
LINE
  5
A7D
330
A02
100
AcDbEntity
  8
Shape295
100
AcDbLine
 10
-244.335
 20
216.604
 30
0
 11
-233.835
 21
216.604
 31
0
  0
ARC
  5
A7E
330
A02
100
AcDbEntity
  8
Shape296
100
AcDbCircle
 10
-233.835
 20
216.104
 30
0
 40
0.5
100
AcDbArc
 50
0
 51
90
  0
LINE
  5
A7F
330
A02
100
AcDbEntity
  8
Shape297
100
AcDbLine
 10
-233.335
 20
216.104
 30
0
 11
-233.335
 21
215.855
 31
0
  0
ARC
  5
A80
330
A02
100
AcDbEntity
  8
Shape298
100
AcDbCircle
 10
-233.835
 20
215.855
 30
0
 40
0.5
100
AcDbArc
 50
-90
 51
0
  0
LINE
  5
A81
330
A02
100
AcDbEntity
  8
Shape299
100
AcDbLine
 10
-233.835
 20
215.355
 30
0
 11
-255.165
 21
215.355
 31
0
  0
ARC
  5
A82
330
A02
100
AcDbEntity
  8
Shape300
100
AcDbCircle
 10
-255.165
 20
213.355
 30
0
 40
2
100
AcDbArc
 50
90
 51
180
  0
LINE
  5
A83
330
A02
100
AcDbEntity
  8
Shape301
100
AcDbLine
 10
-257.165
 20
213.355
 30
0
 11
-257.165
 21
160.58
 31
0
  0
ARC
  5
A84
330
A02
100
AcDbEntity
  8
Shape302
100
AcDbCircle
 10
-22.335
 20
135.206
 30
0
 40
1
100
AcDbArc
 50
-90
 51
0
  0
LINE
  5
A85
330
A02
100
AcDbEntity
  8
Shape303
100
AcDbLine
 10
-21.335
 20
135.206
 30
0
 11
-21.335
 21
136.706
 31
0
  0
ARC
  5
A86
330
A02
100
AcDbEntity
  8
Shape304
100
AcDbCircle
 10
-22.335
 20
136.706
 30
0
 40
1
100
AcDbArc
 50
0
 51
90
  0
LINE
  5
A87
330
A02
100
AcDbEntity
  8
Shape305
100
AcDbLine
 10
-22.335
 20
137.706
 30
0
 11
-32.835
 21
137.706
 31
0
  0
ARC
  5
A88
330
A02
100
AcDbEntity
  8
Shape306
100
AcDbCircle
 10
-32.835
 20
138.206
 30
0
 40
0.5
100
AcDbArc
 50
180
 51
-90
  0
LINE
  5
A89
330
A02
100
AcDbEntity
  8
Shape307
100
AcDbLine
 10
-33.335
 20
138.206
 30
0
 11
-33.335
 21
138.455
 31
0
  0
ARC
  5
A8A
330
A02
100
AcDbEntity
  8
Shape308
100
AcDbCircle
 10
-32.835
 20
138.455
 30
0
 40
0.5
100
AcDbArc
 50
90
 51
180
  0
LINE
  5
A8B
330
A02
100
AcDbEntity
  8
Shape309
100
AcDbLine
 10
-32.835
 20
138.955
 30
0
 11
-31.915
 21
138.955
 31
0
  0
ARC
  5
A8C
330
A02
100
AcDbEntity
  8
Shape310
100
AcDbCircle
 10
-31.915
 20
139.455
 30
0
 40
0.5
100
AcDbArc
 50
-90
 51
0
  0
LINE
  5
A8D
330
A02
100
AcDbEntity
  8
Shape311
100
AcDbLine
 10
-31.415
 20
139.455
 30
0
 11
-31.415
 21
155.58
 31
0
  0
ARC
  5
A8E
330
A02
100
AcDbEntity
  8
Shape312
100
AcDbCircle
 10
-28.415
 20
155.58
 30
0
 40
3
100
AcDbArc
 50
90
 51
180
  0
LINE
  5
A8F
330
A02
100
AcDbEntity
  8
Shape313
100
AcDbLine
 10
-28.415
 20
158.58
 30
0
 11
-11.515
 21
158.58
 31
0
  0
ARC
  5
A90
330
A02
100
AcDbEntity
  8
Shape314
100
AcDbCircle
 10
-11.515
 20
160.58
 30
0
 40
2
100
AcDbArc
 50
-90
 51
0
  0
ARC
  5
A91
330
A02
100
AcDbEntity
  8
Shape315
100
AcDbCircle
 10
-255.165
 20
160.58
 30
0
 40
2
100
AcDbArc
 50
180
 51
-90
  0
LINE
  5
A92
330
A02
100
AcDbEntity
  8
Shape316
100
AcDbLine
 10
-255.165
 20
158.58
 30
0
 11
-238.255
 21
158.58
 31
0
  0
ARC
  5
A93
330
A02
100
AcDbEntity
  8
Shape317
100
AcDbCircle
 10
-238.255
 20
155.58
 30
0
 40
3
100
AcDbArc
 50
0
 51
90
  0
LINE
  5
A94
330
A02
100
AcDbEntity
  8
Shape318
100
AcDbLine
 10
-235.255
 20
155.58
 30
0
 11
-235.255
 21
139.455
 31
0
  0
ARC
  5
A95
330
A02
100
AcDbEntity
  8
Shape319
100
AcDbCircle
 10
-234.755
 20
139.455
 30
0
 40
0.5
100
AcDbArc
 50
180
 51
-90
  0
LINE
  5
A96
330
A02
100
AcDbEntity
  8
Shape320
100
AcDbLine
 10
-234.755
 20
138.955
 30
0
 11
-233.835
 21
138.955
 31
0
  0
ARC
  5
A97
330
A02
100
AcDbEntity
  8
Shape321
100
AcDbCircle
 10
-233.835
 20
138.455
 30
0
 40
0.5
100
AcDbArc
 50
0
 51
90
  0
LINE
  5
A98
330
A02
100
AcDbEntity
  8
Shape322
100
AcDbLine
 10
-233.335
 20
138.455
 30
0
 11
-233.335
 21
138.206
 31
0
  0
ARC
  5
A99
330
A02
100
AcDbEntity
  8
Shape323
100
AcDbCircle
 10
-233.835
 20
138.206
 30
0
 40
0.5
100
AcDbArc
 50
-90
 51
0
  0
LINE
  5
A9A
330
A02
100
AcDbEntity
  8
Shape324
100
AcDbLine
 10
-233.835
 20
137.706
 30
0
 11
-244.335
 21
137.706
 31
0
  0
ARC
  5
A9B
330
A02
100
AcDbEntity
  8
Shape325
100
AcDbCircle
 10
-244.335
 20
136.706
 30
0
 40
1
100
AcDbArc
 50
90
 51
180
  0
LINE
  5
A9C
330
A02
100
AcDbEntity
  8
Shape326
100
AcDbLine
 10
-245.335
 20
136.706
 30
0
 11
-245.335
 21
135.206
 31
0
  0
ARC
  5
A9D
330
A02
100
AcDbEntity
  8
Shape327
100
AcDbCircle
 10
-244.335
 20
135.206
 30
0
 40
1
100
AcDbArc
 50
180
 51
-90
  0
LINE
  5
A9E
330
A02
100
AcDbEntity
  8
Shape328
100
AcDbLine
 10
-244.335
 20
134.206
 30
0
 11
-226.335
 21
134.206
 31
0
  0
LINE
  5
A9F
330
A02
100
AcDbEntity
  8
Shape329
100
AcDbLine
 10
-226.335
 20
134.206
 30
0
 11
-226.335
 21
139.456
 31
0
  0
ARC
  5
AA0
330
A02
100
AcDbEntity
  8
Shape330
100
AcDbCircle
 10
-225.835
 20
139.456
 30
0
 40
0.5
100
AcDbArc
 50
0
 51
180
  0
LINE
  5
AA1
330
A02
100
AcDbEntity
  8
Shape331
100
AcDbLine
 10
-225.335
 20
139.456
 30
0
 11
-225.335
 21
135.456
 31
0
  0
ARC
  5
AA2
330
A02
100
AcDbEntity
  8
Shape332
100
AcDbCircle
 10
-223.335
 20
135.456
 30
0
 40
2
100
AcDbArc
 50
180
 51
0
  0
LINE
  5
AA3
330
A02
100
AcDbEntity
  8
Shape333
100
AcDbLine
 10
-221.335
 20
135.456
 30
0
 11
-221.335
 21
139.456
 31
0
  0
ARC
  5
AA4
330
A02
100
AcDbEntity
  8
Shape334
100
AcDbCircle
 10
-220.835
 20
139.456
 30
0
 40
0.5
100
AcDbArc
 50
0
 51
180
  0
LINE
  5
AA5
330
A02
100
AcDbEntity
  8
Shape335
100
AcDbLine
 10
-220.335
 20
139.456
 30
0
 11
-220.335
 21
134.206
 31
0
  0
LINE
  5
AA6
330
A02
100
AcDbEntity
  8
Shape336
100
AcDbLine
 10
-220.335
 20
134.206
 30
0
 11
-202.335
 21
134.206
 31
0
  0
ARC
  5
AA7
330
A02
100
AcDbEntity
  8
Shape337
100
AcDbCircle
 10
-202.335
 20
135.206
 30
0
 40
1
100
AcDbArc
 50
-90
 51
0
  0
LINE
  5
AA8
330
A02
100
AcDbEntity
  8
Shape338
100
AcDbLine
 10
-201.335
 20
135.206
 30
0
 11
-201.335
 21
136.706
 31
0
  0
ARC
  5
AA9
330
A02
100
AcDbEntity
  8
Shape339
100
AcDbCircle
 10
-202.335
 20
136.706
 30
0
 40
1
100
AcDbArc
 50
0
 51
90
  0
LINE
  5
AAA
330
A02
100
AcDbEntity
  8
Shape340
100
AcDbLine
 10
-202.335
 20
137.706
 30
0
 11
-212.835
 21
137.706
 31
0
  0
ARC
  5
AAB
330
A02
100
AcDbEntity
  8
Shape341
100
AcDbCircle
 10
-212.835
 20
138.206
 30
0
 40
0.5
100
AcDbArc
 50
180
 51
-90
  0
LINE
  5
AAC
330
A02
100
AcDbEntity
  8
Shape342
100
AcDbLine
 10
-213.335
 20
138.206
 30
0
 11
-213.335
 21
138.455
 31
0
  0
ARC
  5
AAD
330
A02
100
AcDbEntity
  8
Shape343
100
AcDbCircle
 10
-212.835
 20
138.455
 30
0
 40
0.5
100
AcDbArc
 50
90
 51
180
  0
LINE
  5
AAE
330
A02
100
AcDbEntity
  8
Shape344
100
AcDbLine
 10
-235.635
 20
198.68
 30
0
 11
-235.635
 21
212.78
 31
0
  0
LINE
  5
AAF
330
A02
100
AcDbEntity
  8
Shape345
100
AcDbLine
 10
-235.635
 20
212.78
 30
0
 11
-221.535
 21
212.78
 31
0
  0
LINE
  5
AB0
330
A02
100
AcDbEntity
  8
Shape346
100
AcDbLine
 10
-221.535
 20
212.78
 30
0
 11
-221.535
 21
198.68
 31
0
  0
LINE
  5
AB1
330
A02
100
AcDbEntity
  8
Shape347
100
AcDbLine
 10
-221.535
 20
198.68
 30
0
 11
-235.635
 21
198.68
 31
0
  0
LINE
  5
AB2
330
A02
100
AcDbEntity
  8
Shape348
100
AcDbLine
 10
-247.545
 20
160.58
 30
0
 11
-247.545
 21
174.68
 31
0
  0
LINE
  5
AB3
330
A02
100
AcDbEntity
  8
Shape349
100
AcDbLine
 10
-247.545
 20
174.68
 30
0
 11
-233.445
 21
174.68
 31
0
  0
LINE
  5
AB4
330
A02
100
AcDbEntity
  8
Shape350
100
AcDbLine
 10
-233.445
 20
174.68
 30
0
 11
-233.445
 21
160.58
 31
0
  0
LINE
  5
AB5
330
A02
100
AcDbEntity
  8
Shape351
100
AcDbLine
 10
-233.445
 20
160.58
 30
0
 11
-247.545
 21
160.58
 31
0
  0
LINE
  5
AB6
330
A02
100
AcDbEntity
  8
Shape352
100
AcDbLine
 10
-126.285
 20
212.78
 30
0
 11
-126.285
 21
198.68
 31
0
  0
LINE
  5
AB7
330
A02
100
AcDbEntity
  8
Shape353
100
AcDbLine
 10
-126.285
 20
198.68
 30
0
 11
-140.385
 21
198.68
 31
0
  0
LINE
  5
AB8
330
A02
100
AcDbEntity
  8
Shape354
100
AcDbLine
 10
-140.385
 20
198.68
 30
0
 11
-140.385
 21
212.78
 31
0
  0
LINE
  5
AB9
330
A02
100
AcDbEntity
  8
Shape355
100
AcDbLine
 10
-140.385
 20
212.78
 30
0
 11
-126.285
 21
212.78
 31
0
  0
LINE
  5
ABA
330
A02
100
AcDbEntity
  8
Shape356
100
AcDbLine
 10
-102.285
 20
212.78
 30
0
 11
-88.185
 21
212.78
 31
0
  0
LINE
  5
ABB
330
A02
100
AcDbEntity
  8
Shape357
100
AcDbLine
 10
-88.185
 20
212.78
 30
0
 11
-88.185
 21
198.68
 31
0
  0
LINE
  5
ABC
330
A02
100
AcDbEntity
  8
Shape358
100
AcDbLine
 10
-88.185
 20
198.68
 30
0
 11
-102.285
 21
198.68
 31
0
  0
LINE
  5
ABD
330
A02
100
AcDbEntity
  8
Shape359
100
AcDbLine
 10
-102.285
 20
198.68
 30
0
 11
-102.285
 21
212.78
 31
0
  0
LINE
  5
ABE
330
A02
100
AcDbEntity
  8
Shape360
100
AcDbLine
 10
-107.235
 20
198.68
 30
0
 11
-121.335
 21
198.68
 31
0
  0
LINE
  5
ABF
330
A02
100
AcDbEntity
  8
Shape361
100
AcDbLine
 10
-121.335
 20
198.68
 30
0
 11
-121.335
 21
212.78
 31
0
  0
LINE
  5
AC0
330
A02
100
AcDbEntity
  8
Shape362
100
AcDbLine
 10
-121.335
 20
212.78
 30
0
 11
-107.235
 21
212.78
 31
0
  0
LINE
  5
AC1
330
A02
100
AcDbEntity
  8
Shape363
100
AcDbLine
 10
-107.235
 20
212.78
 30
0
 11
-107.235
 21
198.68
 31
0
  0
LINE
  5
AC2
330
A02
100
AcDbEntity
  8
Shape364
100
AcDbLine
 10
-45.135
 20
212.78
 30
0
 11
-31.035
 21
212.78
 31
0
  0
LINE
  5
AC3
330
A02
100
AcDbEntity
  8
Shape365
100
AcDbLine
 10
-31.035
 20
212.78
 30
0
 11
-31.035
 21
198.68
 31
0
  0
LINE
  5
AC4
330
A02
100
AcDbEntity
  8
Shape366
100
AcDbLine
 10
-31.035
 20
198.68
 30
0
 11
-45.135
 21
198.68
 31
0
  0
LINE
  5
AC5
330
A02
100
AcDbEntity
  8
Shape367
100
AcDbLine
 10
-45.135
 20
198.68
 30
0
 11
-45.135
 21
212.78
 31
0
  0
LINE
  5
AC6
330
A02
100
AcDbEntity
  8
Shape368
100
AcDbLine
 10
-11.985
 20
212.78
 30
0
 11
-11.985
 21
198.68
 31
0
  0
LINE
  5
AC7
330
A02
100
AcDbEntity
  8
Shape369
100
AcDbLine
 10
-11.985
 20
198.68
 30
0
 11
-26.085
 21
198.68
 31
0
  0
LINE
  5
AC8
330
A02
100
AcDbEntity
  8
Shape370
100
AcDbLine
 10
-26.085
 20
198.68
 30
0
 11
-26.085
 21
212.78
 31
0
  0
LINE
  5
AC9
330
A02
100
AcDbEntity
  8
Shape371
100
AcDbLine
 10
-26.085
 20
212.78
 30
0
 11
-11.985
 21
212.78
 31
0
  0
LINE
  5
ACA
330
A02
100
AcDbEntity
  8
Shape372
100
AcDbLine
 10
-49.895
 20
174.68
 30
0
 11
-35.795
 21
174.68
 31
0
  0
LINE
  5
ACB
330
A02
100
AcDbEntity
  8
Shape373
100
AcDbLine
 10
-35.795
 20
174.68
 30
0
 11
-35.795
 21
160.58
 31
0
  0
LINE
  5
ACC
330
A02
100
AcDbEntity
  8
Shape374
100
AcDbLine
 10
-35.795
 20
160.58
 30
0
 11
-49.895
 21
160.58
 31
0
  0
LINE
  5
ACD
330
A02
100
AcDbEntity
  8
Shape375
100
AcDbLine
 10
-49.895
 20
160.58
 30
0
 11
-49.895
 21
174.68
 31
0
  0
LINE
  5
ACE
330
A02
100
AcDbEntity
  8
Shape376
100
AcDbLine
 10
-230.875
 20
179.63
 30
0
 11
-230.875
 21
193.73
 31
0
  0
LINE
  5
ACF
330
A02
100
AcDbEntity
  8
Shape377
100
AcDbLine
 10
-230.875
 20
193.73
 30
0
 11
-216.775
 21
193.73
 31
0
  0
LINE
  5
AD0
330
A02
100
AcDbEntity
  8
Shape378
100
AcDbLine
 10
-216.775
 20
193.73
 30
0
 11
-216.775
 21
179.63
 31
0
  0
LINE
  5
AD1
330
A02
100
AcDbEntity
  8
Shape379
100
AcDbLine
 10
-216.775
 20
179.63
 30
0
 11
-230.875
 21
179.63
 31
0
  0
LINE
  5
AD2
330
A02
100
AcDbEntity
  8
Shape380
100
AcDbLine
 10
-14.365
 20
174.68
 30
0
 11
-14.365
 21
160.58
 31
0
  0
LINE
  5
AD3
330
A02
100
AcDbEntity
  8
Shape381
100
AcDbLine
 10
-14.365
 20
160.58
 30
0
 11
-28.465
 21
160.58
 31
0
  0
LINE
  5
AD4
330
A02
100
AcDbEntity
  8
Shape382
100
AcDbLine
 10
-28.465
 20
160.58
 30
0
 11
-28.465
 21
174.68
 31
0
  0
LINE
  5
AD5
330
A02
100
AcDbEntity
  8
Shape383
100
AcDbLine
 10
-28.465
 20
174.68
 30
0
 11
-14.365
 21
174.68
 31
0
  0
LINE
  5
AD6
330
A02
100
AcDbEntity
  8
Shape384
100
AcDbLine
 10
-197.535
 20
198.68
 30
0
 11
-197.535
 21
212.78
 31
0
  0
LINE
  5
AD7
330
A02
100
AcDbEntity
  8
Shape385
100
AcDbLine
 10
-197.535
 20
212.78
 30
0
 11
-183.435
 21
212.78
 31
0
  0
LINE
  5
AD8
330
A02
100
AcDbEntity
  8
Shape386
100
AcDbLine
 10
-183.435
 20
212.78
 30
0
 11
-183.435
 21
198.68
 31
0
  0
LINE
  5
AD9
330
A02
100
AcDbEntity
  8
Shape387
100
AcDbLine
 10
-183.435
 20
198.68
 30
0
 11
-197.535
 21
198.68
 31
0
  0
LINE
  5
ADA
330
A02
100
AcDbEntity
  8
Shape388
100
AcDbLine
 10
-159.625
 20
179.63
 30
0
 11
-173.725
 21
179.63
 31
0
  0
LINE
  5
ADB
330
A02
100
AcDbEntity
  8
Shape389
100
AcDbLine
 10
-173.725
 20
179.63
 30
0
 11
-173.725
 21
193.73
 31
0
  0
LINE
  5
ADC
330
A02
100
AcDbEntity
  8
Shape390
100
AcDbLine
 10
-173.725
 20
193.73
 30
0
 11
-159.625
 21
193.73
 31
0
  0
LINE
  5
ADD
330
A02
100
AcDbEntity
  8
Shape391
100
AcDbLine
 10
-159.625
 20
193.73
 30
0
 11
-159.625
 21
179.63
 31
0
  0
LINE
  5
ADE
330
A02
100
AcDbEntity
  8
Shape392
100
AcDbLine
 10
-116.575
 20
179.63
 30
0
 11
-116.575
 21
193.73
 31
0
  0
LINE
  5
ADF
330
A02
100
AcDbEntity
  8
Shape393
100
AcDbLine
 10
-116.575
 20
193.73
 30
0
 11
-102.475
 21
193.73
 31
0
  0
LINE
  5
AE0
330
A02
100
AcDbEntity
  8
Shape394
100
AcDbLine
 10
-102.475
 20
193.73
 30
0
 11
-102.475
 21
179.63
 31
0
  0
LINE
  5
AE1
330
A02
100
AcDbEntity
  8
Shape395
100
AcDbLine
 10
-102.475
 20
179.63
 30
0
 11
-116.575
 21
179.63
 31
0
  0
LINE
  5
AE2
330
A02
100
AcDbEntity
  8
Shape396
100
AcDbLine
 10
-97.525
 20
179.63
 30
0
 11
-97.525
 21
193.73
 31
0
  0
LINE
  5
AE3
330
A02
100
AcDbEntity
  8
Shape397
100
AcDbLine
 10
-97.525
 20
193.73
 30
0
 11
-83.425
 21
193.73
 31
0
  0
LINE
  5
AE4
330
A02
100
AcDbEntity
  8
Shape398
100
AcDbLine
 10
-83.425
 20
193.73
 30
0
 11
-83.425
 21
179.63
 31
0
  0
LINE
  5
AE5
330
A02
100
AcDbEntity
  8
Shape399
100
AcDbLine
 10
-83.425
 20
179.63
 30
0
 11
-97.525
 21
179.63
 31
0
  0
LINE
  5
AE6
330
A02
100
AcDbEntity
  8
Shape400
100
AcDbLine
 10
-45.325
 20
193.73
 30
0
 11
-45.325
 21
179.63
 31
0
  0
LINE
  5
AE7
330
A02
100
AcDbEntity
  8
Shape401
100
AcDbLine
 10
-45.325
 20
179.63
 30
0
 11
-59.425
 21
179.63
 31
0
  0
LINE
  5
AE8
330
A02
100
AcDbEntity
  8
Shape402
100
AcDbLine
 10
-59.425
 20
179.63
 30
0
 11
-59.425
 21
193.73
 31
0
  0
LINE
  5
AE9
330
A02
100
AcDbEntity
  8
Shape403
100
AcDbLine
 10
-59.425
 20
193.73
 30
0
 11
-45.325
 21
193.73
 31
0
  0
LINE
  5
AEA
330
A02
100
AcDbEntity
  8
Shape404
100
AcDbLine
 10
-178.675
 20
179.63
 30
0
 11
-192.775
 21
179.63
 31
0
  0
LINE
  5
AEB
330
A02
100
AcDbEntity
  8
Shape405
100
AcDbLine
 10
-192.775
 20
179.63
 30
0
 11
-192.775
 21
193.73
 31
0
  0
LINE
  5
AEC
330
A02
100
AcDbEntity
  8
Shape406
100
AcDbLine
 10
-192.775
 20
193.73
 30
0
 11
-178.675
 21
193.73
 31
0
  0
LINE
  5
AED
330
A02
100
AcDbEntity
  8
Shape407
100
AcDbLine
 10
-178.675
 20
193.73
 30
0
 11
-178.675
 21
179.63
 31
0
  0
LINE
  5
AEE
330
A02
100
AcDbEntity
  8
Shape408
100
AcDbLine
 10
-111.995
 20
174.68
 30
0
 11
-111.995
 21
160.58
 31
0
  0
LINE
  5
AEF
330
A02
100
AcDbEntity
  8
Shape409
100
AcDbLine
 10
-111.995
 20
160.58
 30
0
 11
-126.095
 21
160.58
 31
0
  0
LINE
  5
AF0
330
A02
100
AcDbEntity
  8
Shape410
100
AcDbLine
 10
-126.095
 20
160.58
 30
0
 11
-126.095
 21
174.68
 31
0
  0
LINE
  5
AF1
330
A02
100
AcDbEntity
  8
Shape411
100
AcDbLine
 10
-126.095
 20
174.68
 30
0
 11
-111.995
 21
174.68
 31
0
  0
LINE
  5
AF2
330
A02
100
AcDbEntity
  8
Shape412
100
AcDbLine
 10
-202.295
 20
160.58
 30
0
 11
-202.295
 21
174.68
 31
0
  0
LINE
  5
AF3
330
A02
100
AcDbEntity
  8
Shape413
100
AcDbLine
 10
-202.295
 20
174.68
 30
0
 11
-188.195
 21
174.68
 31
0
  0
LINE
  5
AF4
330
A02
100
AcDbEntity
  8
Shape414
100
AcDbLine
 10
-188.195
 20
174.68
 30
0
 11
-188.195
 21
160.58
 31
0
  0
LINE
  5
AF5
330
A02
100
AcDbEntity
  8
Shape415
100
AcDbLine
 10
-188.195
 20
160.58
 30
0
 11
-202.295
 21
160.58
 31
0
  0
LINE
  5
AF6
330
A02
100
AcDbEntity
  8
Shape416
100
AcDbLine
 10
-145.335
 20
198.68
 30
0
 11
-159.435
 21
198.68
 31
0
  0
LINE
  5
AF7
330
A02
100
AcDbEntity
  8
Shape417
100
AcDbLine
 10
-159.435
 20
198.68
 30
0
 11
-159.435
 21
212.78
 31
0
  0
LINE
  5
AF8
330
A02
100
AcDbEntity
  8
Shape418
100
AcDbLine
 10
-159.435
 20
212.78
 30
0
 11
-145.335
 21
212.78
 31
0
  0
LINE
  5
AF9
330
A02
100
AcDbEntity
  8
Shape419
100
AcDbLine
 10
-145.335
 20
212.78
 30
0
 11
-145.335
 21
198.68
 31
0
  0
LINE
  5
AFA
330
A02
100
AcDbEntity
  8
Shape420
100
AcDbLine
 10
-202.485
 20
212.78
 30
0
 11
-202.485
 21
198.68
 31
0
  0
LINE
  5
AFB
330
A02
100
AcDbEntity
  8
Shape421
100
AcDbLine
 10
-202.485
 20
198.68
 30
0
 11
-216.585
 21
198.68
 31
0
  0
LINE
  5
AFC
330
A02
100
AcDbEntity
  8
Shape422
100
AcDbLine
 10
-216.585
 20
198.68
 30
0
 11
-216.585
 21
212.78
 31
0
  0
LINE
  5
AFD
330
A02
100
AcDbEntity
  8
Shape423
100
AcDbLine
 10
-216.585
 20
212.78
 30
0
 11
-202.485
 21
212.78
 31
0
  0
LINE
  5
AFE
330
A02
100
AcDbEntity
  8
Shape424
100
AcDbLine
 10
-164.385
 20
212.78
 30
0
 11
-164.385
 21
198.68
 31
0
  0
LINE
  5
AFF
330
A02
100
AcDbEntity
  8
Shape425
100
AcDbLine
 10
-164.385
 20
198.68
 30
0
 11
-178.485
 21
198.68
 31
0
  0
LINE
  5
B00
330
A02
100
AcDbEntity
  8
Shape426
100
AcDbLine
 10
-178.485
 20
198.68
 30
0
 11
-178.485
 21
212.78
 31
0
  0
LINE
  5
B01
330
A02
100
AcDbEntity
  8
Shape427
100
AcDbLine
 10
-178.485
 20
212.78
 30
0
 11
-164.385
 21
212.78
 31
0
  0
LINE
  5
B02
330
A02
100
AcDbEntity
  8
Shape428
100
AcDbLine
 10
-121.525
 20
193.73
 30
0
 11
-121.525
 21
179.63
 31
0
  0
LINE
  5
B03
330
A02
100
AcDbEntity
  8
Shape429
100
AcDbLine
 10
-121.525
 20
179.63
 30
0
 11
-135.625
 21
179.63
 31
0
  0
LINE
  5
B04
330
A02
100
AcDbEntity
  8
Shape430
100
AcDbLine
 10
-135.625
 20
179.63
 30
0
 11
-135.625
 21
193.73
 31
0
  0
LINE
  5
B05
330
A02
100
AcDbEntity
  8
Shape431
100
AcDbLine
 10
-135.625
 20
193.73
 30
0
 11
-121.525
 21
193.73
 31
0
  0
LINE
  5
B06
330
A02
100
AcDbEntity
  8
Shape432
100
AcDbLine
 10
-211.825
 20
179.63
 30
0
 11
-211.825
 21
193.73
 31
0
  0
LINE
  5
B07
330
A02
100
AcDbEntity
  8
Shape433
100
AcDbLine
 10
-211.825
 20
193.73
 30
0
 11
-197.725
 21
193.73
 31
0
  0
LINE
  5
B08
330
A02
100
AcDbEntity
  8
Shape434
100
AcDbLine
 10
-197.725
 20
193.73
 30
0
 11
-197.725
 21
179.63
 31
0
  0
LINE
  5
B09
330
A02
100
AcDbEntity
  8
Shape435
100
AcDbLine
 10
-197.725
 20
179.63
 30
0
 11
-211.825
 21
179.63
 31
0
  0
LINE
  5
B0A
330
A02
100
AcDbEntity
  8
Shape436
100
AcDbLine
 10
-19.125
 20
193.73
 30
0
 11
-19.125
 21
179.63
 31
0
  0
LINE
  5
B0B
330
A02
100
AcDbEntity
  8
Shape437
100
AcDbLine
 10
-19.125
 20
179.63
 30
0
 11
-33.225
 21
179.63
 31
0
  0
LINE
  5
B0C
330
A02
100
AcDbEntity
  8
Shape438
100
AcDbLine
 10
-33.225
 20
179.63
 30
0
 11
-33.225
 21
193.73
 31
0
  0
LINE
  5
B0D
330
A02
100
AcDbEntity
  8
Shape439
100
AcDbLine
 10
-33.225
 20
193.73
 30
0
 11
-19.125
 21
193.73
 31
0
  0
LINE
  5
B0E
330
A02
100
AcDbEntity
  8
Shape440
100
AcDbLine
 10
-140.575
 20
193.73
 30
0
 11
-140.575
 21
179.63
 31
0
  0
LINE
  5
B0F
330
A02
100
AcDbEntity
  8
Shape441
100
AcDbLine
 10
-140.575
 20
179.63
 30
0
 11
-154.675
 21
179.63
 31
0
  0
LINE
  5
B10
330
A02
100
AcDbEntity
  8
Shape442
100
AcDbLine
 10
-154.675
 20
179.63
 30
0
 11
-154.675
 21
193.73
 31
0
  0
LINE
  5
B11
330
A02
100
AcDbEntity
  8
Shape443
100
AcDbLine
 10
-154.675
 20
193.73
 30
0
 11
-140.575
 21
193.73
 31
0
  0
LINE
  5
B12
330
A02
100
AcDbEntity
  8
Shape444
100
AcDbLine
 10
-64.375
 20
179.63
 30
0
 11
-78.475
 21
179.63
 31
0
  0
LINE
  5
B13
330
A02
100
AcDbEntity
  8
Shape445
100
AcDbLine
 10
-78.475
 20
179.63
 30
0
 11
-78.475
 21
193.73
 31
0
  0
LINE
  5
B14
330
A02
100
AcDbEntity
  8
Shape446
100
AcDbLine
 10
-78.475
 20
193.73
 30
0
 11
-64.375
 21
193.73
 31
0
  0
LINE
  5
B15
330
A02
100
AcDbEntity
  8
Shape447
100
AcDbLine
 10
-64.375
 20
193.73
 30
0
 11
-64.375
 21
179.63
 31
0
  0
LINE
  5
B16
330
A02
100
AcDbEntity
  8
Shape448
100
AcDbLine
 10
-145.145
 20
174.68
 30
0
 11
-131.045
 21
174.68
 31
0
  0
LINE
  5
B17
330
A02
100
AcDbEntity
  8
Shape449
100
AcDbLine
 10
-131.045
 20
174.68
 30
0
 11
-131.045
 21
160.58
 31
0
  0
LINE
  5
B18
330
A02
100
AcDbEntity
  8
Shape450
100
AcDbLine
 10
-131.045
 20
160.58
 30
0
 11
-145.145
 21
160.58
 31
0
  0
LINE
  5
B19
330
A02
100
AcDbEntity
  8
Shape451
100
AcDbLine
 10
-145.145
 20
160.58
 30
0
 11
-145.145
 21
174.68
 31
0
  0
LINE
  5
B1A
330
A02
100
AcDbEntity
  8
Shape452
100
AcDbLine
 10
-73.895
 20
174.68
 30
0
 11
-73.895
 21
160.58
 31
0
  0
LINE
  5
B1B
330
A02
100
AcDbEntity
  8
Shape453
100
AcDbLine
 10
-73.895
 20
160.58
 30
0
 11
-87.995
 21
160.58
 31
0
  0
LINE
  5
B1C
330
A02
100
AcDbEntity
  8
Shape454
100
AcDbLine
 10
-87.995
 20
160.58
 30
0
 11
-87.995
 21
174.68
 31
0
  0
LINE
  5
B1D
330
A02
100
AcDbEntity
  8
Shape455
100
AcDbLine
 10
-87.995
 20
174.68
 30
0
 11
-73.895
 21
174.68
 31
0
  0
LINE
  5
B1E
330
A02
100
AcDbEntity
  8
Shape456
100
AcDbLine
 10
-150.095
 20
160.58
 30
0
 11
-164.195
 21
160.58
 31
0
  0
LINE
  5
B1F
330
A02
100
AcDbEntity
  8
Shape457
100
AcDbLine
 10
-164.195
 20
160.58
 30
0
 11
-164.195
 21
174.68
 31
0
  0
LINE
  5
B20
330
A02
100
AcDbEntity
  8
Shape458
100
AcDbLine
 10
-164.195
 20
174.68
 30
0
 11
-150.095
 21
174.68
 31
0
  0
LINE
  5
B21
330
A02
100
AcDbEntity
  8
Shape459
100
AcDbLine
 10
-150.095
 20
174.68
 30
0
 11
-150.095
 21
160.58
 31
0
  0
LINE
  5
B22
330
A02
100
AcDbEntity
  8
Shape460
100
AcDbLine
 10
-68.945
 20
160.58
 30
0
 11
-68.945
 21
174.68
 31
0
  0
LINE
  5
B23
330
A02
100
AcDbEntity
  8
Shape461
100
AcDbLine
 10
-68.945
 20
174.68
 30
0
 11
-54.845
 21
174.68
 31
0
  0
LINE
  5
B24
330
A02
100
AcDbEntity
  8
Shape462
100
AcDbLine
 10
-54.845
 20
174.68
 30
0
 11
-54.845
 21
160.58
 31
0
  0
LINE
  5
B25
330
A02
100
AcDbEntity
  8
Shape463
100
AcDbLine
 10
-54.845
 20
160.58
 30
0
 11
-68.945
 21
160.58
 31
0
  0
LINE
  5
B26
330
A02
100
AcDbEntity
  8
Shape464
100
AcDbLine
 10
-50.085
 20
212.78
 30
0
 11
-50.085
 21
198.68
 31
0
  0
LINE
  5
B27
330
A02
100
AcDbEntity
  8
Shape465
100
AcDbLine
 10
-50.085
 20
198.68
 30
0
 11
-64.185
 21
198.68
 31
0
  0
LINE
  5
B28
330
A02
100
AcDbEntity
  8
Shape466
100
AcDbLine
 10
-64.185
 20
198.68
 30
0
 11
-64.185
 21
212.78
 31
0
  0
LINE
  5
B29
330
A02
100
AcDbEntity
  8
Shape467
100
AcDbLine
 10
-64.185
 20
212.78
 30
0
 11
-50.085
 21
212.78
 31
0
  0
LINE
  5
B2A
330
A02
100
AcDbEntity
  8
Shape468
100
AcDbLine
 10
-183.245
 20
174.68
 30
0
 11
-169.145
 21
174.68
 31
0
  0
LINE
  5
B2B
330
A02
100
AcDbEntity
  8
Shape469
100
AcDbLine
 10
-169.145
 20
174.68
 30
0
 11
-169.145
 21
160.58
 31
0
  0
LINE
  5
B2C
330
A02
100
AcDbEntity
  8
Shape470
100
AcDbLine
 10
-169.145
 20
160.58
 30
0
 11
-183.245
 21
160.58
 31
0
  0
LINE
  5
B2D
330
A02
100
AcDbEntity
  8
Shape471
100
AcDbLine
 10
-183.245
 20
160.58
 30
0
 11
-183.245
 21
174.68
 31
0
  0
LINE
  5
B2E
330
A02
100
AcDbEntity
  8
Shape472
100
AcDbLine
 10
-69.135
 20
198.68
 30
0
 11
-83.235
 21
198.68
 31
0
  0
LINE
  5
B2F
330
A02
100
AcDbEntity
  8
Shape473
100
AcDbLine
 10
-83.235
 20
198.68
 30
0
 11
-83.235
 21
212.78
 31
0
  0
LINE
  5
B30
330
A02
100
AcDbEntity
  8
Shape474
100
AcDbLine
 10
-83.235
 20
212.78
 30
0
 11
-69.135
 21
212.78
 31
0
  0
LINE
  5
B31
330
A02
100
AcDbEntity
  8
Shape475
100
AcDbLine
 10
-69.135
 20
212.78
 30
0
 11
-69.135
 21
198.68
 31
0
  0
LINE
  5
B32
330
A02
100
AcDbEntity
  8
Shape476
100
AcDbLine
 10
-207.245
 20
160.58
 30
0
 11
-221.345
 21
160.58
 31
0
  0
LINE
  5
B33
330
A02
100
AcDbEntity
  8
Shape477
100
AcDbLine
 10
-221.345
 20
160.58
 30
0
 11
-221.345
 21
174.68
 31
0
  0
LINE
  5
B34
330
A02
100
AcDbEntity
  8
Shape478
100
AcDbLine
 10
-221.345
 20
174.68
 30
0
 11
-207.245
 21
174.68
 31
0
  0
LINE
  5
B35
330
A02
100
AcDbEntity
  8
Shape479
100
AcDbLine
 10
-207.245
 20
174.68
 30
0
 11
-207.245
 21
160.58
 31
0
  0
LINE
  5
B36
330
A02
100
AcDbEntity
  8
Shape480
100
AcDbLine
 10
-92.945
 20
174.68
 30
0
 11
-92.945
 21
160.58
 31
0
  0
LINE
  5
B37
330
A02
100
AcDbEntity
  8
Shape481
100
AcDbLine
 10
-92.945
 20
160.58
 30
0
 11
-107.045
 21
160.58
 31
0
  0
LINE
  5
B38
330
A02
100
AcDbEntity
  8
Shape482
100
AcDbLine
 10
-107.045
 20
160.58
 30
0
 11
-107.045
 21
174.68
 31
0
  0
LINE
  5
B39
330
A02
100
AcDbEntity
  8
Shape483
100
AcDbLine
 10
-107.045
 20
174.68
 30
0
 11
-92.945
 21
174.68
 31
0
  0
LINE
  5
B3A
330
A02
100
AcDbEntity
  8
Shape484
100
AcDbLine
 10
-240.585
 20
198.68
 30
0
 11
-254.685
 21
198.68
 31
0
  0
LINE
  5
B3B
330
A02
100
AcDbEntity
  8
Shape485
100
AcDbLine
 10
-254.685
 20
198.68
 30
0
 11
-254.685
 21
212.78
 31
0
  0
LINE
  5
B3C
330
A02
100
AcDbEntity
  8
Shape486
100
AcDbLine
 10
-254.685
 20
212.78
 30
0
 11
-240.585
 21
212.78
 31
0
  0
LINE
  5
B3D
330
A02
100
AcDbEntity
  8
Shape487
100
AcDbLine
 10
-240.585
 20
212.78
 30
0
 11
-240.585
 21
198.68
 31
0
  0
LINE
  5
B3E
330
A02
100
AcDbEntity
  8
Shape488
100
AcDbLine
 10
-244.345
 20
197.205
 30
0
 11
-244.345
 21
195.205
 31
0
  0
LINE
  5
B3F
330
A02
100
AcDbEntity
  8
Shape489
100
AcDbLine
 10
-244.345
 20
195.205
 30
0
 11
-250.925
 21
195.205
 31
0
  0
LINE
  5
B40
330
A02
100
AcDbEntity
  8
Shape490
100
AcDbLine
 10
-250.925
 20
195.205
 30
0
 11
-250.925
 21
197.205
 31
0
  0
LINE
  5
B41
330
A02
100
AcDbEntity
  8
Shape491
100
AcDbLine
 10
-250.925
 20
197.205
 30
0
 11
-244.345
 21
197.205
 31
0
  0
LINE
  5
B42
330
A02
100
AcDbEntity
  8
Shape492
100
AcDbLine
 10
-238.205
 20
179.63
 30
0
 11
-252.305
 21
179.63
 31
0
  0
LINE
  5
B43
330
A02
100
AcDbEntity
  8
Shape493
100
AcDbLine
 10
-252.305
 20
179.63
 30
0
 11
-252.305
 21
193.73
 31
0
  0
LINE
  5
B44
330
A02
100
AcDbEntity
  8
Shape494
100
AcDbLine
 10
-252.305
 20
193.73
 30
0
 11
-238.205
 21
193.73
 31
0
  0
LINE
  5
B45
330
A02
100
AcDbEntity
  8
Shape495
100
AcDbLine
 10
-238.205
 20
193.73
 30
0
 11
-238.205
 21
179.63
 31
0
  0
LINE
  5
B46
330
A02
100
AcDbEntity
  8
Shape496
100
AcDbLine
 10
-233.255
 20
141.53
 30
0
 11
-233.255
 21
155.63
 31
0
  0
LINE
  5
B47
330
A02
100
AcDbEntity
  8
Shape497
100
AcDbLine
 10
-233.255
 20
155.63
 30
0
 11
-219.155
 21
155.63
 31
0
  0
LINE
  5
B48
330
A02
100
AcDbEntity
  8
Shape498
100
AcDbLine
 10
-219.155
 20
155.63
 30
0
 11
-219.155
 21
141.53
 31
0
  0
LINE
  5
B49
330
A02
100
AcDbEntity
  8
Shape499
100
AcDbLine
 10
-219.155
 20
141.53
 30
0
 11
-233.255
 21
141.53
 31
0
  0
LINE
  5
B4A
330
A02
100
AcDbEntity
  8
Shape500
100
AcDbLine
 10
-47.515
 20
141.53
 30
0
 11
-47.515
 21
155.63
 31
0
  0
LINE
  5
B4B
330
A02
100
AcDbEntity
  8
Shape501
100
AcDbLine
 10
-47.515
 20
155.63
 30
0
 11
-33.415
 21
155.63
 31
0
  0
LINE
  5
B4C
330
A02
100
AcDbEntity
  8
Shape502
100
AcDbLine
 10
-33.415
 20
155.63
 30
0
 11
-33.415
 21
141.53
 31
0
  0
LINE
  5
B4D
330
A02
100
AcDbEntity
  8
Shape503
100
AcDbLine
 10
-33.415
 20
141.53
 30
0
 11
-47.515
 21
141.53
 31
0
  0
LINE
  5
B4E
330
A02
100
AcDbEntity
  8
Shape504
100
AcDbLine
 10
-54.845
 20
155.63
 30
0
 11
-54.845
 21
141.53
 31
0
  0
LINE
  5
B4F
330
A02
100
AcDbEntity
  8
Shape505
100
AcDbLine
 10
-54.845
 20
141.53
 30
0
 11
-68.945
 21
141.53
 31
0
  0
LINE
  5
B50
330
A02
100
AcDbEntity
  8
Shape506
100
AcDbLine
 10
-68.945
 20
141.53
 30
0
 11
-68.945
 21
155.63
 31
0
  0
LINE
  5
B51
330
A02
100
AcDbEntity
  8
Shape507
100
AcDbLine
 10
-68.945
 20
155.63
 30
0
 11
-54.845
 21
155.63
 31
0
  0
LINE
  5
B52
330
A02
100
AcDbEntity
  8
Shape508
100
AcDbLine
 10
-197.725
 20
155.63
 30
0
 11
-197.725
 21
141.53
 31
0
  0
LINE
  5
B53
330
A02
100
AcDbEntity
  8
Shape509
100
AcDbLine
 10
-197.725
 20
141.53
 30
0
 11
-211.825
 21
141.53
 31
0
  0
LINE
  5
B54
330
A02
100
AcDbEntity
  8
Shape510
100
AcDbLine
 10
-211.825
 20
141.53
 30
0
 11
-211.825
 21
155.63
 31
0
  0
LINE
  5
B55
330
A02
100
AcDbEntity
  8
Shape511
100
AcDbLine
 10
-211.825
 20
155.63
 30
0
 11
-197.725
 21
155.63
 31
0
  0
LINE
  5
B56
330
A02
100
AcDbEntity
  8
Shape512
100
AcDbLine
 10
-86.715
 20
143.001
 30
0
 11
-79.965
 21
143.001
 31
0
  0
LINE
  5
B57
330
A02
100
AcDbEntity
  8
Shape513
100
AcDbLine
 10
-79.965
 20
143.001
 30
0
 11
-79.965
 21
146.231
 31
0
  0
LINE
  5
B58
330
A02
100
AcDbEntity
  8
Shape514
100
AcDbLine
 10
-79.965
 20
146.231
 30
0
 11
-79.135
 21
146.231
 31
0
  0
LINE
  5
B59
330
A02
100
AcDbEntity
  8
Shape515
100
AcDbLine
 10
-79.135
 20
146.231
 30
0
 11
-79.135
 21
149.031
 31
0
  0
LINE
  5
B5A
330
A02
100
AcDbEntity
  8
Shape516
100
AcDbLine
 10
-79.135
 20
149.031
 30
0
 11
-79.965
 21
149.031
 31
0
  0
LINE
  5
B5B
330
A02
100
AcDbEntity
  8
Shape517
100
AcDbLine
 10
-79.965
 20
149.031
 30
0
 11
-79.965
 21
155.301
 31
0
  0
LINE
  5
B5C
330
A02
100
AcDbEntity
  8
Shape518
100
AcDbLine
 10
-79.965
 20
155.301
 30
0
 11
-81.685
 21
155.301
 31
0
  0
LINE
  5
B5D
330
A02
100
AcDbEntity
  8
Shape519
100
AcDbLine
 10
-81.685
 20
155.301
 30
0
 11
-81.685
 21
156.501
 31
0
  0
LINE
  5
B5E
330
A02
100
AcDbEntity
  8
Shape520
100
AcDbLine
 10
-81.685
 20
156.501
 30
0
 11
-84.985
 21
156.501
 31
0
  0
LINE
  5
B5F
330
A02
100
AcDbEntity
  8
Shape521
100
AcDbLine
 10
-84.985
 20
156.501
 30
0
 11
-84.985
 21
155.301
 31
0
  0
LINE
  5
B60
330
A02
100
AcDbEntity
  8
Shape522
100
AcDbLine
 10
-84.985
 20
155.301
 30
0
 11
-86.715
 21
155.301
 31
0
  0
LINE
  5
B61
330
A02
100
AcDbEntity
  8
Shape523
100
AcDbLine
 10
-86.715
 20
155.301
 30
0
 11
-86.715
 21
150.831
 31
0
  0
LINE
  5
B62
330
A02
100
AcDbEntity
  8
Shape524
100
AcDbLine
 10
-86.715
 20
150.831
 30
0
 11
-126.335
 21
150.831
 31
0
  0
LINE
  5
B63
330
A02
100
AcDbEntity
  8
Shape525
100
AcDbLine
 10
-140.335
 20
150.831
 30
0
 11
-179.965
 21
150.831
 31
0
  0
LINE
  5
B64
330
A02
100
AcDbEntity
  8
Shape526
100
AcDbLine
 10
-179.965
 20
150.831
 30
0
 11
-179.965
 21
155.301
 31
0
  0
LINE
  5
B65
330
A02
100
AcDbEntity
  8
Shape527
100
AcDbLine
 10
-179.965
 20
155.301
 30
0
 11
-181.685
 21
155.301
 31
0
  0
LINE
  5
B66
330
A02
100
AcDbEntity
  8
Shape528
100
AcDbLine
 10
-181.685
 20
155.301
 30
0
 11
-181.685
 21
156.501
 31
0
  0
LINE
  5
B67
330
A02
100
AcDbEntity
  8
Shape529
100
AcDbLine
 10
-181.685
 20
156.501
 30
0
 11
-184.985
 21
156.501
 31
0
  0
LINE
  5
B68
330
A02
100
AcDbEntity
  8
Shape530
100
AcDbLine
 10
-184.985
 20
156.501
 30
0
 11
-184.985
 21
155.301
 31
0
  0
LINE
  5
B69
330
A02
100
AcDbEntity
  8
Shape531
100
AcDbLine
 10
-184.985
 20
155.301
 30
0
 11
-186.715
 21
155.301
 31
0
  0
LINE
  5
B6A
330
A02
100
AcDbEntity
  8
Shape532
100
AcDbLine
 10
-186.715
 20
155.301
 30
0
 11
-186.715
 21
149.031
 31
0
  0
LINE
  5
B6B
330
A02
100
AcDbEntity
  8
Shape533
100
AcDbLine
 10
-186.715
 20
149.031
 30
0
 11
-187.535
 21
149.031
 31
0
  0
LINE
  5
B6C
330
A02
100
AcDbEntity
  8
Shape534
100
AcDbLine
 10
-187.535
 20
149.031
 30
0
 11
-187.535
 21
146.231
 31
0
  0
LINE
  5
B6D
330
A02
100
AcDbEntity
  8
Shape535
100
AcDbLine
 10
-187.535
 20
146.231
 30
0
 11
-186.715
 21
146.231
 31
0
  0
LINE
  5
B6E
330
A02
100
AcDbEntity
  8
Shape536
100
AcDbLine
 10
-186.715
 20
146.231
 30
0
 11
-186.715
 21
143.001
 31
0
  0
LINE
  5
B6F
330
A02
100
AcDbEntity
  8
Shape537
100
AcDbLine
 10
-186.715
 20
143.001
 30
0
 11
-179.965
 21
143.001
 31
0
  0
LINE
  5
B70
330
A02
100
AcDbEntity
  8
Shape538
100
AcDbLine
 10
-179.965
 20
143.001
 30
0
 11
-179.965
 21
146.231
 31
0
  0
LINE
  5
B71
330
A02
100
AcDbEntity
  8
Shape539
100
AcDbLine
 10
-179.965
 20
146.231
 30
0
 11
-140.335
 21
146.231
 31
0
  0
LINE
  5
B72
330
A02
100
AcDbEntity
  8
Shape540
100
AcDbLine
 10
-126.335
 20
146.231
 30
0
 11
-86.715
 21
146.231
 31
0
  0
LINE
  5
B73
330
A02
100
AcDbEntity
  8
Shape541
100
AcDbLine
 10
-86.715
 20
146.231
 30
0
 11
-86.715
 21
143.001
 31
0
  0
LINE
  5
B74
330
A02
100
AcDbEntity
  8
Shape542
100
AcDbLine
 10
-140.335
 20
150.831
 30
0
 11
-140.335
 21
155.531
 31
0
  0
LINE
  5
B75
330
A02
100
AcDbEntity
  8
Shape543
100
AcDbLine
 10
-140.335
 20
155.531
 30
0
 11
-126.335
 21
155.531
 31
0
  0
LINE
  5
B76
330
A02
100
AcDbEntity
  8
Shape544
100
AcDbLine
 10
-126.335
 20
155.531
 30
0
 11
-126.335
 21
150.831
 31
0
  0
LINE
  5
B77
330
A02
100
AcDbEntity
  8
Shape545
100
AcDbLine
 10
-126.335
 20
141.53
 30
0
 11
-140.335
 21
141.53
 31
0
  0
LINE
  5
B78
330
A02
100
AcDbEntity
  8
Shape546
100
AcDbLine
 10
-126.335
 20
146.231
 30
0
 11
-126.335
 21
141.53
 31
0
  0
LINE
  5
B79
330
A02
100
AcDbEntity
  8
Shape547
100
AcDbLine
 10
-140.335
 20
146.231
 30
0
 11
-140.335
 21
141.53
 31
0
  0
CIRCLE
  5
B7A
330
A02
100
AcDbEntity
  8
Shape2460
100
AcDbCircle
 10
-33.695
 20
196.179
 40
1.5
  0
ENDSEC
  0
SECTION
  2
OBJECTS
  0
DICTIONARY
  5
F000
330
0
100
AcDbDictionary
  3
ACAD_GROUP
350
F001
  0
DICTIONARY
  5
F001
330
F000
100
AcDbDictionary
  0
ENDSEC
  0
EOF