999
FreeCAD v0.21 33771 (Git)
  0
SECTION
  2
HEADER
  9
$ACADVER
  1
AC1014
  9
$ACADMAINTVER
 70
     9
  9
$DWGCODEPAGE
  3
ANSI_1252
  9
$TEXTSTYLE
  7
STANDARD
  9
$DIMSTYLE
  2
STANDARD
  9
$DIMTXSTY
  7
STANDARD
  9
$CMLSTYLE
  2
STANDARD
  9
$LUNITS
 70
2
  9
$INSUNITS
 70
4
  9
$PEXTMAX
 10
50
 20
50
 30
50
  9
$PEXTMIN
 10
0
 20
0
 30
0
  9
$HANDSEED
  5
FFFF
  0
ENDSEC
  0
SECTION
  2
CLASSES
  0
CLASS
  1
ACDBDICTIONARYWDFLT
  2
AcDbDictionaryWithDefault
  3
ObjectDBX Classes
 90
        0
280
     0
281
     0
  0
CLASS
  1
XRECORD
  2
AcDbXrecord
  3
ObjectDBX Classes
 90
        0
280
     0
281
     0
  0
CLASS
  1
LWPOLYLINE
  2
AcDbPolyline
  3
ObjectDBX Classes
 90
        0
280
     0
281
     1
  0
ENDSEC
  0
SECTION
  2
TABLES
  0
TABLE
  2
VPORT
  5
20
330
0
100
AcDbSymbolTable
 70
     1
  0
VPORT
  5
21
330
20
100
AcDbSymbolTableRecord
100
AcDbViewportTableRecord
  2
*ACTIVE
 70
     0
  0
ENDTAB
  0
TABLE
  2
LTYPE
  5
22
330
0
100
AcDbSymbolTable
 70
     1
  0
LTYPE
  5
23
330
21
100
AcDbSymbolTableRecord
100
AcDbLinetypeTableRecord
  2
BYBLOCK
 70
     0
  3

 72
    65
 73
     0
 40
0.0
  0
LTYPE
  5
24
330
21
100
AcDbSymbolTableRecord
100
AcDbLinetypeTableRecord
  2
BYLAYER
 70
     0
  3

 72
    65
 73
     0
 40
0.0
  0
LTYPE
  5
25
330
21
100
AcDbSymbolTableRecord
100
AcDbLinetypeTableRecord
  2
CONTINUOUS
 70
     0
  3
Solid line
 72
    65
 73
     0
 40
0.0
  0
ENDTAB
  0
TABLE
  2
LAYER
  5
BAB
330
0
100
AcDbSymbolTable
 70
421
  0
LAYER
  5
BAC
330
BAB
100
AcDbSymbolTableRecord
100
AcDbLayerTableRecord
  2
0
 70
   0
 62
   7
  6
CONTINUOUS
  0
LAYER
  5
BAD
330
BAB
100
AcDbSymbolTableRecord
100
AcDbLayerTableRecord
  2
none
 70
    0
 62
    7
  6
CONTINUOUS
  0
LAYER
  5
BAE
330
BAB
100
AcDbSymbolTableRecord
100
AcDbLayerTableRecord
  2
Shape7479
 70
    0
 62
    7
  6
CONTINUOUS
  0
LAYER
  5
BAF
330
BAB
100
AcDbSymbolTableRecord
100
AcDbLayerTableRecord
  2
Shape7480
 70
    0
 62
    7
  6
CONTINUOUS
  0
LAYER
  5
BB0
330
BAB
100
AcDbSymbolTableRecord
100
AcDbLayerTableRecord
  2
Shape7481
 70
    0
 62
    7
  6
CONTINUOUS
  0
LAYER
  5
BB1
330
BAB
100
AcDbSymbolTableRecord
100
AcDbLayerTableRecord
  2
Shape7482
 70
    0
 62
    7
  6
CONTINUOUS
  0
LAYER
  5
BB2
330
BAB
100
AcDbSymbolTableRecord
100
AcDbLayerTableRecord
  2
Shape7483
 70
    0
 62
    7
  6
CONTINUOUS
  0
LAYER
  5
BB3
330
BAB
100
AcDbSymbolTableRecord
100
AcDbLayerTableRecord
  2
Shape7484
 70
    0
 62
    7
  6
CONTINUOUS
  0
LAYER
  5
BB4
330
BAB
100
AcDbSymbolTableRecord
100
AcDbLayerTableRecord
  2
Shape7485
 70
    0
 62
    7
  6
CONTINUOUS
  0
LAYER
  5
BB5
330
BAB
100
AcDbSymbolTableRecord
100
AcDbLayerTableRecord
  2
Shape7486
 70
    0
 62
    7
  6
CONTINUOUS
  0
LAYER
  5
BB6
330
BAB
100
AcDbSymbolTableRecord
100
AcDbLayerTableRecord
  2
Shape7487
 70
    0
 62
    7
  6
CONTINUOUS
  0
LAYER
  5
BB7
330
BAB
100
AcDbSymbolTableRecord
100
AcDbLayerTableRecord
  2
Shape7488
 70
    0
 62
    7
  6
CONTINUOUS
  0
LAYER
  5
BB8
330
BAB
100
AcDbSymbolTableRecord
100
AcDbLayerTableRecord
  2
Shape7489
 70
    0
 62
    7
  6
CONTINUOUS
  0
LAYER
  5
BB9
330
BAB
100
AcDbSymbolTableRecord
100
AcDbLayerTableRecord
  2
Shape7490
 70
    0
 62
    7
  6
CONTINUOUS
  0
LAYER
  5
BBA
330
BAB
100
AcDbSymbolTableRecord
100
AcDbLayerTableRecord
  2
Shape7491
 70
    0
 62
    7
  6
CONTINUOUS
  0
LAYER
  5
BBB
330
BAB
100
AcDbSymbolTableRecord
100
AcDbLayerTableRecord
  2
Shape7492
 70
    0
 62
    7
  6
CONTINUOUS
  0
LAYER
  5
BBC
330
BAB
100
AcDbSymbolTableRecord
100
AcDbLayerTableRecord
  2
Shape7493
 70
    0
 62
    7
  6
CONTINUOUS
  0
LAYER
  5
BBD
330
BAB
100
AcDbSymbolTableRecord
100
AcDbLayerTableRecord
  2
Shape7494
 70
    0
 62
    7
  6
CONTINUOUS
  0
LAYER
  5
BBE
330
BAB
100
AcDbSymbolTableRecord
100
AcDbLayerTableRecord
  2
Shape7495
 70
    0
 62
    7
  6
CONTINUOUS
  0
LAYER
  5
BBF
330
BAB
100
AcDbSymbolTableRecord
100
AcDbLayerTableRecord
  2
Shape7496
 70
    0
 62
    7
  6
CONTINUOUS
  0
LAYER
  5
BC0
330
BAB
100
AcDbSymbolTableRecord
100
AcDbLayerTableRecord
  2
Shape7497
 70
    0
 62
    7
  6
CONTINUOUS
  0
LAYER
  5
BC1
330
BAB
100
AcDbSymbolTableRecord
100
AcDbLayerTableRecord
  2
Shape7498
 70
    0
 62
    7
  6
CONTINUOUS
  0
LAYER
  5
BC2
330
BAB
100
AcDbSymbolTableRecord
100
AcDbLayerTableRecord
  2
Shape7499
 70
    0
 62
    7
  6
CONTINUOUS
  0
LAYER
  5
BC3
330
BAB
100
AcDbSymbolTableRecord
100
AcDbLayerTableRecord
  2
Shape7500
 70
    0
 62
    7
  6
CONTINUOUS
  0
LAYER
  5
BC4
330
BAB
100
AcDbSymbolTableRecord
100
AcDbLayerTableRecord
  2
Shape7501
 70
    0
 62
    7
  6
CONTINUOUS
  0
LAYER
  5
BC5
330
BAB
100
AcDbSymbolTableRecord
100
AcDbLayerTableRecord
  2
Shape7502
 70
    0
 62
    7
  6
CONTINUOUS
  0
LAYER
  5
BC6
330
BAB
100
AcDbSymbolTableRecord
100
AcDbLayerTableRecord
  2
Shape7503
 70
    0
 62
    7
  6
CONTINUOUS
  0
LAYER
  5
BC7
330
BAB
100
AcDbSymbolTableRecord
100
AcDbLayerTableRecord
  2
Shape7504
 70
    0
 62
    7
  6
CONTINUOUS
  0
LAYER
  5
BC8
330
BAB
100
AcDbSymbolTableRecord
100
AcDbLayerTableRecord
  2
Shape7505
 70
    0
 62
    7
  6
CONTINUOUS
  0
LAYER
  5
BC9
330
BAB
100
AcDbSymbolTableRecord
100
AcDbLayerTableRecord
  2
Shape7506
 70
    0
 62
    7
  6
CONTINUOUS
  0
LAYER
  5
BCA
330
BAB
100
AcDbSymbolTableRecord
100
AcDbLayerTableRecord
  2
Shape7507
 70
    0
 62
    7
  6
CONTINUOUS
  0
LAYER
  5
BCB
330
BAB
100
AcDbSymbolTableRecord
100
AcDbLayerTableRecord
  2
Shape7508
 70
    0
 62
    7
  6
CONTINUOUS
  0
LAYER
  5
BCC
330
BAB
100
AcDbSymbolTableRecord
100
AcDbLayerTableRecord
  2
Shape7509
 70
    0
 62
    7
  6
CONTINUOUS
  0
LAYER
  5
BCD
330
BAB
100
AcDbSymbolTableRecord
100
AcDbLayerTableRecord
  2
Shape7510
 70
    0
 62
    7
  6
CONTINUOUS
  0
LAYER
  5
BCE
330
BAB
100
AcDbSymbolTableRecord
100
AcDbLayerTableRecord
  2
Shape7511
 70
    0
 62
    7
  6
CONTINUOUS
  0
LAYER
  5
BCF
330
BAB
100
AcDbSymbolTableRecord
100
AcDbLayerTableRecord
  2
Shape7512
 70
    0
 62
    7
  6
CONTINUOUS
  0
LAYER
  5
BD0
330
BAB
100
AcDbSymbolTableRecord
100
AcDbLayerTableRecord
  2
Shape7513
 70
    0
 62
    7
  6
CONTINUOUS
  0
LAYER
  5
BD1
330
BAB
100
AcDbSymbolTableRecord
100
AcDbLayerTableRecord
  2
Shape7514
 70
    0
 62
    7
  6
CONTINUOUS
  0
LAYER
  5
BD2
330
BAB
100
AcDbSymbolTableRecord
100
AcDbLayerTableRecord
  2
Shape7515
 70
    0
 62
    7
  6
CONTINUOUS
  0
LAYER
  5
BD3
330
BAB
100
AcDbSymbolTableRecord
100
AcDbLayerTableRecord
  2
Shape7516
 70
    0
 62
    7
  6
CONTINUOUS
  0
LAYER
  5
BD4
330
BAB
100
AcDbSymbolTableRecord
100
AcDbLayerTableRecord
  2
Shape7517
 70
    0
 62
    7
  6
CONTINUOUS
  0
LAYER
  5
BD5
330
BAB
100
AcDbSymbolTableRecord
100
AcDbLayerTableRecord
  2
Shape7518
 70
    0
 62
    7
  6
CONTINUOUS
  0
LAYER
  5
BD6
330
BAB
100
AcDbSymbolTableRecord
100
AcDbLayerTableRecord
  2
Shape7519
 70
    0
 62
    7
  6
CONTINUOUS
  0
LAYER
  5
BD7
330
BAB
100
AcDbSymbolTableRecord
100
AcDbLayerTableRecord
  2
Shape7520
 70
    0
 62
    7
  6
CONTINUOUS
  0
LAYER
  5
BD8
330
BAB
100
AcDbSymbolTableRecord
100
AcDbLayerTableRecord
  2
Shape7521
 70
    0
 62
    7
  6
CONTINUOUS
  0
LAYER
  5
BD9
330
BAB
100
AcDbSymbolTableRecord
100
AcDbLayerTableRecord
  2
Shape7522
 70
    0
 62
    7
  6
CONTINUOUS
  0
LAYER
  5
BDA
330
BAB
100
AcDbSymbolTableRecord
100
AcDbLayerTableRecord
  2
Shape7523
 70
    0
 62
    7
  6
CONTINUOUS
  0
LAYER
  5
BDB
330
BAB
100
AcDbSymbolTableRecord
100
AcDbLayerTableRecord
  2
Shape7524
 70
    0
 62
    7
  6
CONTINUOUS
  0
LAYER
  5
BDC
330
BAB
100
AcDbSymbolTableRecord
100
AcDbLayerTableRecord
  2
Shape7525
 70
    0
 62
    7
  6
CONTINUOUS
  0
LAYER
  5
BDD
330
BAB
100
AcDbSymbolTableRecord
100
AcDbLayerTableRecord
  2
Shape7526
 70
    0
 62
    7
  6
CONTINUOUS
  0
LAYER
  5
BDE
330
BAB
100
AcDbSymbolTableRecord
100
AcDbLayerTableRecord
  2
Shape7527
 70
    0
 62
    7
  6
CONTINUOUS
  0
LAYER
  5
BDF
330
BAB
100
AcDbSymbolTableRecord
100
AcDbLayerTableRecord
  2
Shape7528
 70
    0
 62
    7
  6
CONTINUOUS
  0
LAYER
  5
BE0
330
BAB
100
AcDbSymbolTableRecord
100
AcDbLayerTableRecord
  2
Shape7529
 70
    0
 62
    7
  6
CONTINUOUS
  0
LAYER
  5
BE1
330
BAB
100
AcDbSymbolTableRecord
100
AcDbLayerTableRecord
  2
Shape7530
 70
    0
 62
    7
  6
CONTINUOUS
  0
LAYER
  5
BE2
330
BAB
100
AcDbSymbolTableRecord
100
AcDbLayerTableRecord
  2
Shape7531
 70
    0
 62
    7
  6
CONTINUOUS
  0
LAYER
  5
BE3
330
BAB
100
AcDbSymbolTableRecord
100
AcDbLayerTableRecord
  2
Shape7532
 70
    0
 62
    7
  6
CONTINUOUS
  0
LAYER
  5
BE4
330
BAB
100
AcDbSymbolTableRecord
100
AcDbLayerTableRecord
  2
Shape7533
 70
    0
 62
    7
  6
CONTINUOUS
  0
LAYER
  5
BE5
330
BAB
100
AcDbSymbolTableRecord
100
AcDbLayerTableRecord
  2
Shape7534
 70
    0
 62
    7
  6
CONTINUOUS
  0
LAYER
  5
BE6
330
BAB
100
AcDbSymbolTableRecord
100
AcDbLayerTableRecord
  2
Shape7535
 70
    0
 62
    7
  6
CONTINUOUS
  0
LAYER
  5
BE7
330
BAB
100
AcDbSymbolTableRecord
100
AcDbLayerTableRecord
  2
Shape7536
 70
    0
 62
    7
  6
CONTINUOUS
  0
LAYER
  5
BE8
330
BAB
100
AcDbSymbolTableRecord
100
AcDbLayerTableRecord
  2
Shape7537
 70
    0
 62
    7
  6
CONTINUOUS
  0
LAYER
  5
BE9
330
BAB
100
AcDbSymbolTableRecord
100
AcDbLayerTableRecord
  2
Shape7538
 70
    0
 62
    7
  6
CONTINUOUS
  0
LAYER
  5
BEA
330
BAB
100
AcDbSymbolTableRecord
100
AcDbLayerTableRecord
  2
Shape7539
 70
    0
 62
    7
  6
CONTINUOUS
  0
LAYER
  5
BEB
330
BAB
100
AcDbSymbolTableRecord
100
AcDbLayerTableRecord
  2
Shape7540
 70
    0
 62
    7
  6
CONTINUOUS
  0
LAYER
  5
BEC
330
BAB
100
AcDbSymbolTableRecord
100
AcDbLayerTableRecord
  2
Shape7541
 70
    0
 62
    7
  6
CONTINUOUS
  0
LAYER
  5
BED
330
BAB
100
AcDbSymbolTableRecord
100
AcDbLayerTableRecord
  2
Shape7542
 70
    0
 62
    7
  6
CONTINUOUS
  0
LAYER
  5
BEE
330
BAB
100
AcDbSymbolTableRecord
100
AcDbLayerTableRecord
  2
Shape7543
 70
    0
 62
    7
  6
CONTINUOUS
  0
LAYER
  5
BEF
330
BAB
100
AcDbSymbolTableRecord
100
AcDbLayerTableRecord
  2
Shape7544
 70
    0
 62
    7
  6
CONTINUOUS
  0
LAYER
  5
BF0
330
BAB
100
AcDbSymbolTableRecord
100
AcDbLayerTableRecord
  2
Shape7545
 70
    0
 62
    7
  6
CONTINUOUS
  0
LAYER
  5
BF1
330
BAB
100
AcDbSymbolTableRecord
100
AcDbLayerTableRecord
  2
Shape7546
 70
    0
 62
    7
  6
CONTINUOUS
  0
LAYER
  5
BF2
330
BAB
100
AcDbSymbolTableRecord
100
AcDbLayerTableRecord
  2
Shape7547
 70
    0
 62
    7
  6
CONTINUOUS
  0
LAYER
  5
BF3
330
BAB
100
AcDbSymbolTableRecord
100
AcDbLayerTableRecord
  2
Shape7548
 70
    0
 62
    7
  6
CONTINUOUS
  0
LAYER
  5
BF4
330
BAB
100
AcDbSymbolTableRecord
100
AcDbLayerTableRecord
  2
Shape7549
 70
    0
 62
    7
  6
CONTINUOUS
  0
LAYER
  5
BF5
330
BAB
100
AcDbSymbolTableRecord
100
AcDbLayerTableRecord
  2
Shape7550
 70
    0
 62
    7
  6
CONTINUOUS
  0
LAYER
  5
BF6
330
BAB
100
AcDbSymbolTableRecord
100
AcDbLayerTableRecord
  2
Shape7551
 70
    0
 62
    7
  6
CONTINUOUS
  0
LAYER
  5
BF7
330
BAB
100
AcDbSymbolTableRecord
100
AcDbLayerTableRecord
  2
Shape7552
 70
    0
 62
    7
  6
CONTINUOUS
  0
LAYER
  5
BF8
330
BAB
100
AcDbSymbolTableRecord
100
AcDbLayerTableRecord
  2
Shape7553
 70
    0
 62
    7
  6
CONTINUOUS
  0
LAYER
  5
BF9
330
BAB
100
AcDbSymbolTableRecord
100
AcDbLayerTableRecord
  2
Shape7554
 70
    0
 62
    7
  6
CONTINUOUS
  0
LAYER
  5
BFA
330
BAB
100
AcDbSymbolTableRecord
100
AcDbLayerTableRecord
  2
Shape7555
 70
    0
 62
    7
  6
CONTINUOUS
  0
LAYER
  5
BFB
330
BAB
100
AcDbSymbolTableRecord
100
AcDbLayerTableRecord
  2
Shape7556
 70
    0
 62
    7
  6
CONTINUOUS
  0
LAYER
  5
BFC
330
BAB
100
AcDbSymbolTableRecord
100
AcDbLayerTableRecord
  2
Shape7557
 70
    0
 62
    7
  6
CONTINUOUS
  0
LAYER
  5
BFD
330
BAB
100
AcDbSymbolTableRecord
100
AcDbLayerTableRecord
  2
Shape7558
 70
    0
 62
    7
  6
CONTINUOUS
  0
LAYER
  5
BFE
330
BAB
100
AcDbSymbolTableRecord
100
AcDbLayerTableRecord
  2
Shape7559
 70
    0
 62
    7
  6
CONTINUOUS
  0
LAYER
  5
BFF
330
BAB
100
AcDbSymbolTableRecord
100
AcDbLayerTableRecord
  2
Shape7560
 70
    0
 62
    7
  6
CONTINUOUS
  0
LAYER
  5
C00
330
BAB
100
AcDbSymbolTableRecord
100
AcDbLayerTableRecord
  2
Shape7561
 70
    0
 62
    7
  6
CONTINUOUS
  0
LAYER
  5
C01
330
BAB
100
AcDbSymbolTableRecord
100
AcDbLayerTableRecord
  2
Shape7562
 70
    0
 62
    7
  6
CONTINUOUS
  0
LAYER
  5
C02
330
BAB
100
AcDbSymbolTableRecord
100
AcDbLayerTableRecord
  2
Shape7563
 70
    0
 62
    7
  6
CONTINUOUS
  0
LAYER
  5
C03
330
BAB
100
AcDbSymbolTableRecord
100
AcDbLayerTableRecord
  2
Shape7564
 70
    0
 62
    7
  6
CONTINUOUS
  0
LAYER
  5
C04
330
BAB
100
AcDbSymbolTableRecord
100
AcDbLayerTableRecord
  2
Shape7565
 70
    0
 62
    7
  6
CONTINUOUS
  0
LAYER
  5
C05
330
BAB
100
AcDbSymbolTableRecord
100
AcDbLayerTableRecord
  2
Shape7566
 70
    0
 62
    7
  6
CONTINUOUS
  0
LAYER
  5
C06
330
BAB
100
AcDbSymbolTableRecord
100
AcDbLayerTableRecord
  2
Shape7567
 70
    0
 62
    7
  6
CONTINUOUS
  0
LAYER
  5
C07
330
BAB
100
AcDbSymbolTableRecord
100
AcDbLayerTableRecord
  2
Shape7568
 70
    0
 62
    7
  6
CONTINUOUS
  0
LAYER
  5
C08
330
BAB
100
AcDbSymbolTableRecord
100
AcDbLayerTableRecord
  2
Shape7569
 70
    0
 62
    7
  6
CONTINUOUS
  0
LAYER
  5
C09
330
BAB
100
AcDbSymbolTableRecord
100
AcDbLayerTableRecord
  2
Shape7570
 70
    0
 62
    7
  6
CONTINUOUS
  0
LAYER
  5
C0A
330
BAB
100
AcDbSymbolTableRecord
100
AcDbLayerTableRecord
  2
Shape7571
 70
    0
 62
    7
  6
CONTINUOUS
  0
LAYER
  5
C0B
330
BAB
100
AcDbSymbolTableRecord
100
AcDbLayerTableRecord
  2
Shape7572
 70
    0
 62
    7
  6
CONTINUOUS
  0
LAYER
  5
C0C
330
BAB
100
AcDbSymbolTableRecord
100
AcDbLayerTableRecord
  2
Shape7573
 70
    0
 62
    7
  6
CONTINUOUS
  0
LAYER
  5
C0D
330
BAB
100
AcDbSymbolTableRecord
100
AcDbLayerTableRecord
  2
Shape7574
 70
    0
 62
    7
  6
CONTINUOUS
  0
LAYER
  5
C0E
330
BAB
100
AcDbSymbolTableRecord
100
AcDbLayerTableRecord
  2
Shape7575
 70
    0
 62
    7
  6
CONTINUOUS
  0
LAYER
  5
C0F
330
BAB
100
AcDbSymbolTableRecord
100
AcDbLayerTableRecord
  2
Shape7576
 70
    0
 62
    7
  6
CONTINUOUS
  0
LAYER
  5
C10
330
BAB
100
AcDbSymbolTableRecord
100
AcDbLayerTableRecord
  2
Shape7577
 70
    0
 62
    7
  6
CONTINUOUS
  0
LAYER
  5
C11
330
BAB
100
AcDbSymbolTableRecord
100
AcDbLayerTableRecord
  2
Shape7578
 70
    0
 62
    7
  6
CONTINUOUS
  0
LAYER
  5
C12
330
BAB
100
AcDbSymbolTableRecord
100
AcDbLayerTableRecord
  2
Shape7579
 70
    0
 62
    7
  6
CONTINUOUS
  0
LAYER
  5
C13
330
BAB
100
AcDbSymbolTableRecord
100
AcDbLayerTableRecord
  2
Shape7580
 70
    0
 62
    7
  6
CONTINUOUS
  0
LAYER
  5
C14
330
BAB
100
AcDbSymbolTableRecord
100
AcDbLayerTableRecord
  2
Shape7581
 70
    0
 62
    7
  6
CONTINUOUS
  0
LAYER
  5
C15
330
BAB
100
AcDbSymbolTableRecord
100
AcDbLayerTableRecord
  2
Shape7582
 70
    0
 62
    7
  6
CONTINUOUS
  0
LAYER
  5
C16
330
BAB
100
AcDbSymbolTableRecord
100
AcDbLayerTableRecord
  2
Shape7583
 70
    0
 62
    7
  6
CONTINUOUS
  0
LAYER
  5
C17
330
BAB
100
AcDbSymbolTableRecord
100
AcDbLayerTableRecord
  2
Shape7584
 70
    0
 62
    7
  6
CONTINUOUS
  0
LAYER
  5
C18
330
BAB
100
AcDbSymbolTableRecord
100
AcDbLayerTableRecord
  2
Shape7585
 70
    0
 62
    7
  6
CONTINUOUS
  0
LAYER
  5
C19
330
BAB
100
AcDbSymbolTableRecord
100
AcDbLayerTableRecord
  2
Shape7586
 70
    0
 62
    7
  6
CONTINUOUS
  0
LAYER
  5
C1A
330
BAB
100
AcDbSymbolTableRecord
100
AcDbLayerTableRecord
  2
Shape7587
 70
    0
 62
    7
  6
CONTINUOUS
  0
LAYER
  5
C1B
330
BAB
100
AcDbSymbolTableRecord
100
AcDbLayerTableRecord
  2
Shape7588
 70
    0
 62
    7
  6
CONTINUOUS
  0
LAYER
  5
C1C
330
BAB
100
AcDbSymbolTableRecord
100
AcDbLayerTableRecord
  2
Shape7589
 70
    0
 62
    7
  6
CONTINUOUS
  0
LAYER
  5
C1D
330
BAB
100
AcDbSymbolTableRecord
100
AcDbLayerTableRecord
  2
Shape7590
 70
    0
 62
    7
  6
CONTINUOUS
  0
LAYER
  5
C1E
330
BAB
100
AcDbSymbolTableRecord
100
AcDbLayerTableRecord
  2
Shape7591
 70
    0
 62
    7
  6
CONTINUOUS
  0
LAYER
  5
C1F
330
BAB
100
AcDbSymbolTableRecord
100
AcDbLayerTableRecord
  2
Shape7592
 70
    0
 62
    7
  6
CONTINUOUS
  0
LAYER
  5
C20
330
BAB
100
AcDbSymbolTableRecord
100
AcDbLayerTableRecord
  2
Shape7593
 70
    0
 62
    7
  6
CONTINUOUS
  0
LAYER
  5
C21
330
BAB
100
AcDbSymbolTableRecord
100
AcDbLayerTableRecord
  2
Shape7594
 70
    0
 62
    7
  6
CONTINUOUS
  0
LAYER
  5
C22
330
BAB
100
AcDbSymbolTableRecord
100
AcDbLayerTableRecord
  2
Shape7595
 70
    0
 62
    7
  6
CONTINUOUS
  0
LAYER
  5
C23
330
BAB
100
AcDbSymbolTableRecord
100
AcDbLayerTableRecord
  2
Shape7596
 70
    0
 62
    7
  6
CONTINUOUS
  0
LAYER
  5
C24
330
BAB
100
AcDbSymbolTableRecord
100
AcDbLayerTableRecord
  2
Shape7597
 70
    0
 62
    7
  6
CONTINUOUS
  0
LAYER
  5
C25
330
BAB
100
AcDbSymbolTableRecord
100
AcDbLayerTableRecord
  2
Shape7598
 70
    0
 62
    7
  6
CONTINUOUS
  0
LAYER
  5
C26
330
BAB
100
AcDbSymbolTableRecord
100
AcDbLayerTableRecord
  2
Shape7599
 70
    0
 62
    7
  6
CONTINUOUS
  0
LAYER
  5
C27
330
BAB
100
AcDbSymbolTableRecord
100
AcDbLayerTableRecord
  2
Shape7600
 70
    0
 62
    7
  6
CONTINUOUS
  0
LAYER
  5
C28
330
BAB
100
AcDbSymbolTableRecord
100
AcDbLayerTableRecord
  2
Shape7601
 70
    0
 62
    7
  6
CONTINUOUS
  0
LAYER
  5
C29
330
BAB
100
AcDbSymbolTableRecord
100
AcDbLayerTableRecord
  2
Shape7602
 70
    0
 62
    7
  6
CONTINUOUS
  0
LAYER
  5
C2A
330
BAB
100
AcDbSymbolTableRecord
100
AcDbLayerTableRecord
  2
Shape7603
 70
    0
 62
    7
  6
CONTINUOUS
  0
LAYER
  5
C2B
330
BAB
100
AcDbSymbolTableRecord
100
AcDbLayerTableRecord
  2
Shape7604
 70
    0
 62
    7
  6
CONTINUOUS
  0
LAYER
  5
C2C
330
BAB
100
AcDbSymbolTableRecord
100
AcDbLayerTableRecord
  2
Shape7605
 70
    0
 62
    7
  6
CONTINUOUS
  0
LAYER
  5
C2D
330
BAB
100
AcDbSymbolTableRecord
100
AcDbLayerTableRecord
  2
Shape7606
 70
    0
 62
    7
  6
CONTINUOUS
  0
LAYER
  5
C2E
330
BAB
100
AcDbSymbolTableRecord
100
AcDbLayerTableRecord
  2
Shape7607
 70
    0
 62
    7
  6
CONTINUOUS
  0
LAYER
  5
C2F
330
BAB
100
AcDbSymbolTableRecord
100
AcDbLayerTableRecord
  2
Shape7608
 70
    0
 62
    7
  6
CONTINUOUS
  0
LAYER
  5
C30
330
BAB
100
AcDbSymbolTableRecord
100
AcDbLayerTableRecord
  2
Shape7609
 70
    0
 62
    7
  6
CONTINUOUS
  0
LAYER
  5
C31
330
BAB
100
AcDbSymbolTableRecord
100
AcDbLayerTableRecord
  2
Shape7610
 70
    0
 62
    7
  6
CONTINUOUS
  0
LAYER
  5
C32
330
BAB
100
AcDbSymbolTableRecord
100
AcDbLayerTableRecord
  2
Shape7611
 70
    0
 62
    7
  6
CONTINUOUS
  0
LAYER
  5
C33
330
BAB
100
AcDbSymbolTableRecord
100
AcDbLayerTableRecord
  2
Shape7612
 70
    0
 62
    7
  6
CONTINUOUS
  0
LAYER
  5
C34
330
BAB
100
AcDbSymbolTableRecord
100
AcDbLayerTableRecord
  2
Shape7613
 70
    0
 62
    7
  6
CONTINUOUS
  0
LAYER
  5
C35
330
BAB
100
AcDbSymbolTableRecord
100
AcDbLayerTableRecord
  2
Shape7614
 70
    0
 62
    7
  6
CONTINUOUS
  0
LAYER
  5
C36
330
BAB
100
AcDbSymbolTableRecord
100
AcDbLayerTableRecord
  2
Shape7615
 70
    0
 62
    7
  6
CONTINUOUS
  0
LAYER
  5
C37
330
BAB
100
AcDbSymbolTableRecord
100
AcDbLayerTableRecord
  2
Shape7616
 70
    0
 62
    7
  6
CONTINUOUS
  0
LAYER
  5
C38
330
BAB
100
AcDbSymbolTableRecord
100
AcDbLayerTableRecord
  2
Shape7617
 70
    0
 62
    7
  6
CONTINUOUS
  0
LAYER
  5
C39
330
BAB
100
AcDbSymbolTableRecord
100
AcDbLayerTableRecord
  2
Shape7618
 70
    0
 62
    7
  6
CONTINUOUS
  0
LAYER
  5
C3A
330
BAB
100
AcDbSymbolTableRecord
100
AcDbLayerTableRecord
  2
Shape7619
 70
    0
 62
    7
  6
CONTINUOUS
  0
LAYER
  5
C3B
330
BAB
100
AcDbSymbolTableRecord
100
AcDbLayerTableRecord
  2
Shape7620
 70
    0
 62
    7
  6
CONTINUOUS
  0
LAYER
  5
C3C
330
BAB
100
AcDbSymbolTableRecord
100
AcDbLayerTableRecord
  2
Shape7621
 70
    0
 62
    7
  6
CONTINUOUS
  0
LAYER
  5
C3D
330
BAB
100
AcDbSymbolTableRecord
100
AcDbLayerTableRecord
  2
Shape7622
 70
    0
 62
    7
  6
CONTINUOUS
  0
LAYER
  5
C3E
330
BAB
100
AcDbSymbolTableRecord
100
AcDbLayerTableRecord
  2
Shape7623
 70
    0
 62
    7
  6
CONTINUOUS
  0
LAYER
  5
C3F
330
BAB
100
AcDbSymbolTableRecord
100
AcDbLayerTableRecord
  2
Shape7624
 70
    0
 62
    7
  6
CONTINUOUS
  0
LAYER
  5
C40
330
BAB
100
AcDbSymbolTableRecord
100
AcDbLayerTableRecord
  2
Shape7625
 70
    0
 62
    7
  6
CONTINUOUS
  0
LAYER
  5
C41
330
BAB
100
AcDbSymbolTableRecord
100
AcDbLayerTableRecord
  2
Shape7626
 70
    0
 62
    7
  6
CONTINUOUS
  0
LAYER
  5
C42
330
BAB
100
AcDbSymbolTableRecord
100
AcDbLayerTableRecord
  2
Shape7627
 70
    0
 62
    7
  6
CONTINUOUS
  0
LAYER
  5
C43
330
BAB
100
AcDbSymbolTableRecord
100
AcDbLayerTableRecord
  2
Shape7628
 70
    0
 62
    7
  6
CONTINUOUS
  0
LAYER
  5
C44
330
BAB
100
AcDbSymbolTableRecord
100
AcDbLayerTableRecord
  2
Shape7629
 70
    0
 62
    7
  6
CONTINUOUS
  0
LAYER
  5
C45
330
BAB
100
AcDbSymbolTableRecord
100
AcDbLayerTableRecord
  2
Shape7630
 70
    0
 62
    7
  6
CONTINUOUS
  0
LAYER
  5
C46
330
BAB
100
AcDbSymbolTableRecord
100
AcDbLayerTableRecord
  2
Shape7631
 70
    0
 62
    7
  6
CONTINUOUS
  0
LAYER
  5
C47
330
BAB
100
AcDbSymbolTableRecord
100
AcDbLayerTableRecord
  2
Shape7632
 70
    0
 62
    7
  6
CONTINUOUS
  0
LAYER
  5
C48
330
BAB
100
AcDbSymbolTableRecord
100
AcDbLayerTableRecord
  2
Shape7633
 70
    0
 62
    7
  6
CONTINUOUS
  0
LAYER
  5
C49
330
BAB
100
AcDbSymbolTableRecord
100
AcDbLayerTableRecord
  2
Shape7634
 70
    0
 62
    7
  6
CONTINUOUS
  0
LAYER
  5
C4A
330
BAB
100
AcDbSymbolTableRecord
100
AcDbLayerTableRecord
  2
Shape7635
 70
    0
 62
    7
  6
CONTINUOUS
  0
LAYER
  5
C4B
330
BAB
100
AcDbSymbolTableRecord
100
AcDbLayerTableRecord
  2
Shape7636
 70
    0
 62
    7
  6
CONTINUOUS
  0
LAYER
  5
C4C
330
BAB
100
AcDbSymbolTableRecord
100
AcDbLayerTableRecord
  2
Shape7637
 70
    0
 62
    7
  6
CONTINUOUS
  0
LAYER
  5
C4D
330
BAB
100
AcDbSymbolTableRecord
100
AcDbLayerTableRecord
  2
Shape7638
 70
    0
 62
    7
  6
CONTINUOUS
  0
LAYER
  5
C4E
330
BAB
100
AcDbSymbolTableRecord
100
AcDbLayerTableRecord
  2
Shape7639
 70
    0
 62
    7
  6
CONTINUOUS
  0
LAYER
  5
C4F
330
BAB
100
AcDbSymbolTableRecord
100
AcDbLayerTableRecord
  2
Shape7640
 70
    0
 62
    7
  6
CONTINUOUS
  0
LAYER
  5
C50
330
BAB
100
AcDbSymbolTableRecord
100
AcDbLayerTableRecord
  2
Shape7641
 70
    0
 62
    7
  6
CONTINUOUS
  0
LAYER
  5
C51
330
BAB
100
AcDbSymbolTableRecord
100
AcDbLayerTableRecord
  2
Shape7642
 70
    0
 62
    7
  6
CONTINUOUS
  0
LAYER
  5
C52
330
BAB
100
AcDbSymbolTableRecord
100
AcDbLayerTableRecord
  2
Shape7643
 70
    0
 62
    7
  6
CONTINUOUS
  0
LAYER
  5
C53
330
BAB
100
AcDbSymbolTableRecord
100
AcDbLayerTableRecord
  2
Shape7644
 70
    0
 62
    7
  6
CONTINUOUS
  0
LAYER
  5
C54
330
BAB
100
AcDbSymbolTableRecord
100
AcDbLayerTableRecord
  2
Shape7645
 70
    0
 62
    7
  6
CONTINUOUS
  0
LAYER
  5
C55
330
BAB
100
AcDbSymbolTableRecord
100
AcDbLayerTableRecord
  2
Shape7646
 70
    0
 62
    7
  6
CONTINUOUS
  0
LAYER
  5
C56
330
BAB
100
AcDbSymbolTableRecord
100
AcDbLayerTableRecord
  2
Shape7647
 70
    0
 62
    7
  6
CONTINUOUS
  0
LAYER
  5
C57
330
BAB
100
AcDbSymbolTableRecord
100
AcDbLayerTableRecord
  2
Shape7648
 70
    0
 62
    7
  6
CONTINUOUS
  0
LAYER
  5
C58
330
BAB
100
AcDbSymbolTableRecord
100
AcDbLayerTableRecord
  2
Shape7649
 70
    0
 62
    7
  6
CONTINUOUS
  0
LAYER
  5
C59
330
BAB
100
AcDbSymbolTableRecord
100
AcDbLayerTableRecord
  2
Shape7650
 70
    0
 62
    7
  6
CONTINUOUS
  0
LAYER
  5
C5A
330
BAB
100
AcDbSymbolTableRecord
100
AcDbLayerTableRecord
  2
Shape7651
 70
    0
 62
    7
  6
CONTINUOUS
  0
LAYER
  5
C5B
330
BAB
100
AcDbSymbolTableRecord
100
AcDbLayerTableRecord
  2
Shape7652
 70
    0
 62
    7
  6
CONTINUOUS
  0
LAYER
  5
C5C
330
BAB
100
AcDbSymbolTableRecord
100
AcDbLayerTableRecord
  2
Shape7653
 70
    0
 62
    7
  6
CONTINUOUS
  0
LAYER
  5
C5D
330
BAB
100
AcDbSymbolTableRecord
100
AcDbLayerTableRecord
  2
Shape7654
 70
    0
 62
    7
  6
CONTINUOUS
  0
LAYER
  5
C5E
330
BAB
100
AcDbSymbolTableRecord
100
AcDbLayerTableRecord
  2
Shape7655
 70
    0
 62
    7
  6
CONTINUOUS
  0
LAYER
  5
C5F
330
BAB
100
AcDbSymbolTableRecord
100
AcDbLayerTableRecord
  2
Shape7656
 70
    0
 62
    7
  6
CONTINUOUS
  0
LAYER
  5
C60
330
BAB
100
AcDbSymbolTableRecord
100
AcDbLayerTableRecord
  2
Shape7657
 70
    0
 62
    7
  6
CONTINUOUS
  0
LAYER
  5
C61
330
BAB
100
AcDbSymbolTableRecord
100
AcDbLayerTableRecord
  2
Shape7658
 70
    0
 62
    7
  6
CONTINUOUS
  0
LAYER
  5
C62
330
BAB
100
AcDbSymbolTableRecord
100
AcDbLayerTableRecord
  2
Shape7659
 70
    0
 62
    7
  6
CONTINUOUS
  0
LAYER
  5
C63
330
BAB
100
AcDbSymbolTableRecord
100
AcDbLayerTableRecord
  2
Shape7660
 70
    0
 62
    7
  6
CONTINUOUS
  0
LAYER
  5
C64
330
BAB
100
AcDbSymbolTableRecord
100
AcDbLayerTableRecord
  2
Shape7661
 70
    0
 62
    7
  6
CONTINUOUS
  0
LAYER
  5
C65
330
BAB
100
AcDbSymbolTableRecord
100
AcDbLayerTableRecord
  2
Shape7662
 70
    0
 62
    7
  6
CONTINUOUS
  0
LAYER
  5
C66
330
BAB
100
AcDbSymbolTableRecord
100
AcDbLayerTableRecord
  2
Shape7663
 70
    0
 62
    7
  6
CONTINUOUS
  0
LAYER
  5
C67
330
BAB
100
AcDbSymbolTableRecord
100
AcDbLayerTableRecord
  2
Shape7664
 70
    0
 62
    7
  6
CONTINUOUS
  0
LAYER
  5
C68
330
BAB
100
AcDbSymbolTableRecord
100
AcDbLayerTableRecord
  2
Shape7665
 70
    0
 62
    7
  6
CONTINUOUS
  0
LAYER
  5
C69
330
BAB
100
AcDbSymbolTableRecord
100
AcDbLayerTableRecord
  2
Shape7666
 70
    0
 62
    7
  6
CONTINUOUS
  0
LAYER
  5
C6A
330
BAB
100
AcDbSymbolTableRecord
100
AcDbLayerTableRecord
  2
Shape7667
 70
    0
 62
    7
  6
CONTINUOUS
  0
LAYER
  5
C6B
330
BAB
100
AcDbSymbolTableRecord
100
AcDbLayerTableRecord
  2
Shape7668
 70
    0
 62
    7
  6
CONTINUOUS
  0
LAYER
  5
C6C
330
BAB
100
AcDbSymbolTableRecord
100
AcDbLayerTableRecord
  2
Shape7669
 70
    0
 62
    7
  6
CONTINUOUS
  0
LAYER
  5
C6D
330
BAB
100
AcDbSymbolTableRecord
100
AcDbLayerTableRecord
  2
Shape7670
 70
    0
 62
    7
  6
CONTINUOUS
  0
LAYER
  5
C6E
330
BAB
100
AcDbSymbolTableRecord
100
AcDbLayerTableRecord
  2
Shape7671
 70
    0
 62
    7
  6
CONTINUOUS
  0
LAYER
  5
C6F
330
BAB
100
AcDbSymbolTableRecord
100
AcDbLayerTableRecord
  2
Shape7672
 70
    0
 62
    7
  6
CONTINUOUS
  0
LAYER
  5
C70
330
BAB
100
AcDbSymbolTableRecord
100
AcDbLayerTableRecord
  2
Shape7673
 70
    0
 62
    7
  6
CONTINUOUS
  0
LAYER
  5
C71
330
BAB
100
AcDbSymbolTableRecord
100
AcDbLayerTableRecord
  2
Shape7674
 70
    0
 62
    7
  6
CONTINUOUS
  0
LAYER
  5
C72
330
BAB
100
AcDbSymbolTableRecord
100
AcDbLayerTableRecord
  2
Shape7675
 70
    0
 62
    7
  6
CONTINUOUS
  0
LAYER
  5
C73
330
BAB
100
AcDbSymbolTableRecord
100
AcDbLayerTableRecord
  2
Shape7676
 70
    0
 62
    7
  6
CONTINUOUS
  0
LAYER
  5
C74
330
BAB
100
AcDbSymbolTableRecord
100
AcDbLayerTableRecord
  2
Shape7677
 70
    0
 62
    7
  6
CONTINUOUS
  0
LAYER
  5
C75
330
BAB
100
AcDbSymbolTableRecord
100
AcDbLayerTableRecord
  2
Shape7678
 70
    0
 62
    7
  6
CONTINUOUS
  0
LAYER
  5
C76
330
BAB
100
AcDbSymbolTableRecord
100
AcDbLayerTableRecord
  2
Shape7679
 70
    0
 62
    7
  6
CONTINUOUS
  0
LAYER
  5
C77
330
BAB
100
AcDbSymbolTableRecord
100
AcDbLayerTableRecord
  2
Shape7680
 70
    0
 62
    7
  6
CONTINUOUS
  0
LAYER
  5
C78
330
BAB
100
AcDbSymbolTableRecord
100
AcDbLayerTableRecord
  2
Shape7681
 70
    0
 62
    7
  6
CONTINUOUS
  0
LAYER
  5
C79
330
BAB
100
AcDbSymbolTableRecord
100
AcDbLayerTableRecord
  2
Shape7682
 70
    0
 62
    7
  6
CONTINUOUS
  0
LAYER
  5
C7A
330
BAB
100
AcDbSymbolTableRecord
100
AcDbLayerTableRecord
  2
Shape7683
 70
    0
 62
    7
  6
CONTINUOUS
  0
LAYER
  5
C7B
330
BAB
100
AcDbSymbolTableRecord
100
AcDbLayerTableRecord
  2
Shape7684
 70
    0
 62
    7
  6
CONTINUOUS
  0
LAYER
  5
C7C
330
BAB
100
AcDbSymbolTableRecord
100
AcDbLayerTableRecord
  2
Shape7685
 70
    0
 62
    7
  6
CONTINUOUS
  0
LAYER
  5
C7D
330
BAB
100
AcDbSymbolTableRecord
100
AcDbLayerTableRecord
  2
Shape7686
 70
    0
 62
    7
  6
CONTINUOUS
  0
LAYER
  5
C7E
330
BAB
100
AcDbSymbolTableRecord
100
AcDbLayerTableRecord
  2
Shape7687
 70
    0
 62
    7
  6
CONTINUOUS
  0
LAYER
  5
C7F
330
BAB
100
AcDbSymbolTableRecord
100
AcDbLayerTableRecord
  2
Shape7688
 70
    0
 62
    7
  6
CONTINUOUS
  0
LAYER
  5
C80
330
BAB
100
AcDbSymbolTableRecord
100
AcDbLayerTableRecord
  2
Shape7689
 70
    0
 62
    7
  6
CONTINUOUS
  0
LAYER
  5
C81
330
BAB
100
AcDbSymbolTableRecord
100
AcDbLayerTableRecord
  2
Shape7690
 70
    0
 62
    7
  6
CONTINUOUS
  0
LAYER
  5
C82
330
BAB
100
AcDbSymbolTableRecord
100
AcDbLayerTableRecord
  2
Shape7691
 70
    0
 62
    7
  6
CONTINUOUS
  0
LAYER
  5
C83
330
BAB
100
AcDbSymbolTableRecord
100
AcDbLayerTableRecord
  2
Shape7692
 70
    0
 62
    7
  6
CONTINUOUS
  0
LAYER
  5
C84
330
BAB
100
AcDbSymbolTableRecord
100
AcDbLayerTableRecord
  2
Shape7693
 70
    0
 62
    7
  6
CONTINUOUS
  0
LAYER
  5
C85
330
BAB
100
AcDbSymbolTableRecord
100
AcDbLayerTableRecord
  2
Shape7694
 70
    0
 62
    7
  6
CONTINUOUS
  0
LAYER
  5
C86
330
BAB
100
AcDbSymbolTableRecord
100
AcDbLayerTableRecord
  2
Shape7695
 70
    0
 62
    7
  6
CONTINUOUS
  0
LAYER
  5
C87
330
BAB
100
AcDbSymbolTableRecord
100
AcDbLayerTableRecord
  2
Shape7696
 70
    0
 62
    7
  6
CONTINUOUS
  0
LAYER
  5
C88
330
BAB
100
AcDbSymbolTableRecord
100
AcDbLayerTableRecord
  2
Shape7697
 70
    0
 62
    7
  6
CONTINUOUS
  0
LAYER
  5
C89
330
BAB
100
AcDbSymbolTableRecord
100
AcDbLayerTableRecord
  2
Shape7698
 70
    0
 62
    7
  6
CONTINUOUS
  0
LAYER
  5
C8A
330
BAB
100
AcDbSymbolTableRecord
100
AcDbLayerTableRecord
  2
Shape7699
 70
    0
 62
    7
  6
CONTINUOUS
  0
LAYER
  5
C8B
330
BAB
100
AcDbSymbolTableRecord
100
AcDbLayerTableRecord
  2
Shape7700
 70
    0
 62
    7
  6
CONTINUOUS
  0
LAYER
  5
C8C
330
BAB
100
AcDbSymbolTableRecord
100
AcDbLayerTableRecord
  2
Shape7701
 70
    0
 62
    7
  6
CONTINUOUS
  0
LAYER
  5
C8D
330
BAB
100
AcDbSymbolTableRecord
100
AcDbLayerTableRecord
  2
Shape7702
 70
    0
 62
    7
  6
CONTINUOUS
  0
LAYER
  5
C8E
330
BAB
100
AcDbSymbolTableRecord
100
AcDbLayerTableRecord
  2
Shape7703
 70
    0
 62
    7
  6
CONTINUOUS
  0
LAYER
  5
C8F
330
BAB
100
AcDbSymbolTableRecord
100
AcDbLayerTableRecord
  2
Shape7704
 70
    0
 62
    7
  6
CONTINUOUS
  0
LAYER
  5
C90
330
BAB
100
AcDbSymbolTableRecord
100
AcDbLayerTableRecord
  2
Shape7705
 70
    0
 62
    7
  6
CONTINUOUS
  0
LAYER
  5
C91
330
BAB
100
AcDbSymbolTableRecord
100
AcDbLayerTableRecord
  2
Shape7706
 70
    0
 62
    7
  6
CONTINUOUS
  0
LAYER
  5
C92
330
BAB
100
AcDbSymbolTableRecord
100
AcDbLayerTableRecord
  2
Shape7707
 70
    0
 62
    7
  6
CONTINUOUS
  0
LAYER
  5
C93
330
BAB
100
AcDbSymbolTableRecord
100
AcDbLayerTableRecord
  2
Shape7708
 70
    0
 62
    7
  6
CONTINUOUS
  0
LAYER
  5
C94
330
BAB
100
AcDbSymbolTableRecord
100
AcDbLayerTableRecord
  2
Shape7709
 70
    0
 62
    7
  6
CONTINUOUS
  0
LAYER
  5
C95
330
BAB
100
AcDbSymbolTableRecord
100
AcDbLayerTableRecord
  2
Shape7710
 70
    0
 62
    7
  6
CONTINUOUS
  0
LAYER
  5
C96
330
BAB
100
AcDbSymbolTableRecord
100
AcDbLayerTableRecord
  2
Shape7711
 70
    0
 62
    7
  6
CONTINUOUS
  0
LAYER
  5
C97
330
BAB
100
AcDbSymbolTableRecord
100
AcDbLayerTableRecord
  2
Shape7712
 70
    0
 62
    7
  6
CONTINUOUS
  0
LAYER
  5
C98
330
BAB
100
AcDbSymbolTableRecord
100
AcDbLayerTableRecord
  2
Shape7713
 70
    0
 62
    7
  6
CONTINUOUS
  0
LAYER
  5
C99
330
BAB
100
AcDbSymbolTableRecord
100
AcDbLayerTableRecord
  2
Shape7714
 70
    0
 62
    7
  6
CONTINUOUS
  0
LAYER
  5
C9A
330
BAB
100
AcDbSymbolTableRecord
100
AcDbLayerTableRecord
  2
Shape7715
 70
    0
 62
    7
  6
CONTINUOUS
  0
LAYER
  5
C9B
330
BAB
100
AcDbSymbolTableRecord
100
AcDbLayerTableRecord
  2
Shape7716
 70
    0
 62
    7
  6
CONTINUOUS
  0
LAYER
  5
C9C
330
BAB
100
AcDbSymbolTableRecord
100
AcDbLayerTableRecord
  2
Shape7717
 70
    0
 62
    7
  6
CONTINUOUS
  0
LAYER
  5
C9D
330
BAB
100
AcDbSymbolTableRecord
100
AcDbLayerTableRecord
  2
Shape7718
 70
    0
 62
    7
  6
CONTINUOUS
  0
LAYER
  5
C9E
330
BAB
100
AcDbSymbolTableRecord
100
AcDbLayerTableRecord
  2
Shape7719
 70
    0
 62
    7
  6
CONTINUOUS
  0
LAYER
  5
C9F
330
BAB
100
AcDbSymbolTableRecord
100
AcDbLayerTableRecord
  2
Shape7720
 70
    0
 62
    7
  6
CONTINUOUS
  0
LAYER
  5
CA0
330
BAB
100
AcDbSymbolTableRecord
100
AcDbLayerTableRecord
  2
Shape7937
 70
    0
 62
    7
  6
CONTINUOUS
  0
LAYER
  5
CA1
330
BAB
100
AcDbSymbolTableRecord
100
AcDbLayerTableRecord
  2
Shape7938
 70
    0
 62
    7
  6
CONTINUOUS
  0
LAYER
  5
CA2
330
BAB
100
AcDbSymbolTableRecord
100
AcDbLayerTableRecord
  2
Shape7939
 70
    0
 62
    7
  6
CONTINUOUS
  0
LAYER
  5
CA3
330
BAB
100
AcDbSymbolTableRecord
100
AcDbLayerTableRecord
  2
Shape7940
 70
    0
 62
    7
  6
CONTINUOUS
  0
LAYER
  5
CA4
330
BAB
100
AcDbSymbolTableRecord
100
AcDbLayerTableRecord
  2
Shape7941
 70
    0
 62
    7
  6
CONTINUOUS
  0
LAYER
  5
CA5
330
BAB
100
AcDbSymbolTableRecord
100
AcDbLayerTableRecord
  2
Shape7942
 70
    0
 62
    7
  6
CONTINUOUS
  0
LAYER
  5
CA6
330
BAB
100
AcDbSymbolTableRecord
100
AcDbLayerTableRecord
  2
Shape7943
 70
    0
 62
    7
  6
CONTINUOUS
  0
LAYER
  5
CA7
330
BAB
100
AcDbSymbolTableRecord
100
AcDbLayerTableRecord
  2
Shape7944
 70
    0
 62
    7
  6
CONTINUOUS
  0
LAYER
  5
CA8
330
BAB
100
AcDbSymbolTableRecord
100
AcDbLayerTableRecord
  2
Shape7945
 70
    0
 62
    7
  6
CONTINUOUS
  0
LAYER
  5
CA9
330
BAB
100
AcDbSymbolTableRecord
100
AcDbLayerTableRecord
  2
Shape7946
 70
    0
 62
    7
  6
CONTINUOUS
  0
LAYER
  5
CAA
330
BAB
100
AcDbSymbolTableRecord
100
AcDbLayerTableRecord
  2
Shape7947
 70
    0
 62
    7
  6
CONTINUOUS
  0
LAYER
  5
CAB
330
BAB
100
AcDbSymbolTableRecord
100
AcDbLayerTableRecord
  2
Shape7948
 70
    0
 62
    7
  6
CONTINUOUS
  0
LAYER
  5
CAC
330
BAB
100
AcDbSymbolTableRecord
100
AcDbLayerTableRecord
  2
Shape7949
 70
    0
 62
    7
  6
CONTINUOUS
  0
LAYER
  5
CAD
330
BAB
100
AcDbSymbolTableRecord
100
AcDbLayerTableRecord
  2
Shape7950
 70
    0
 62
    7
  6
CONTINUOUS
  0
LAYER
  5
CAE
330
BAB
100
AcDbSymbolTableRecord
100
AcDbLayerTableRecord
  2
Shape7951
 70
    0
 62
    7
  6
CONTINUOUS
  0
LAYER
  5
CAF
330
BAB
100
AcDbSymbolTableRecord
100
AcDbLayerTableRecord
  2
Shape7952
 70
    0
 62
    7
  6
CONTINUOUS
  0
LAYER
  5
CB0
330
BAB
100
AcDbSymbolTableRecord
100
AcDbLayerTableRecord
  2
Shape7953
 70
    0
 62
    7
  6
CONTINUOUS
  0
LAYER
  5
CB1
330
BAB
100
AcDbSymbolTableRecord
100
AcDbLayerTableRecord
  2
Shape7954
 70
    0
 62
    7
  6
CONTINUOUS
  0
LAYER
  5
CB2
330
BAB
100
AcDbSymbolTableRecord
100
AcDbLayerTableRecord
  2
Shape7955
 70
    0
 62
    7
  6
CONTINUOUS
  0
LAYER
  5
CB3
330
BAB
100
AcDbSymbolTableRecord
100
AcDbLayerTableRecord
  2
Shape7956
 70
    0
 62
    7
  6
CONTINUOUS
  0
LAYER
  5
CB4
330
BAB
100
AcDbSymbolTableRecord
100
AcDbLayerTableRecord
  2
Shape7957
 70
    0
 62
    7
  6
CONTINUOUS
  0
LAYER
  5
CB5
330
BAB
100
AcDbSymbolTableRecord
100
AcDbLayerTableRecord
  2
Shape7958
 70
    0
 62
    7
  6
CONTINUOUS
  0
LAYER
  5
CB6
330
BAB
100
AcDbSymbolTableRecord
100
AcDbLayerTableRecord
  2
Shape7959
 70
    0
 62
    7
  6
CONTINUOUS
  0
LAYER
  5
CB7
330
BAB
100
AcDbSymbolTableRecord
100
AcDbLayerTableRecord
  2
Shape7960
 70
    0
 62
    7
  6
CONTINUOUS
  0
LAYER
  5
CB8
330
BAB
100
AcDbSymbolTableRecord
100
AcDbLayerTableRecord
  2
Shape7961
 70
    0
 62
    7
  6
CONTINUOUS
  0
LAYER
  5
CB9
330
BAB
100
AcDbSymbolTableRecord
100
AcDbLayerTableRecord
  2
Shape7962
 70
    0
 62
    7
  6
CONTINUOUS
  0
LAYER
  5
CBA
330
BAB
100
AcDbSymbolTableRecord
100
AcDbLayerTableRecord
  2
Shape7963
 70
    0
 62
    7
  6
CONTINUOUS
  0
LAYER
  5
CBB
330
BAB
100
AcDbSymbolTableRecord
100
AcDbLayerTableRecord
  2
Shape7964
 70
    0
 62
    7
  6
CONTINUOUS
  0
LAYER
  5
CBC
330
BAB
100
AcDbSymbolTableRecord
100
AcDbLayerTableRecord
  2
Shape7965
 70
    0
 62
    7
  6
CONTINUOUS
  0
LAYER
  5
CBD
330
BAB
100
AcDbSymbolTableRecord
100
AcDbLayerTableRecord
  2
Shape7966
 70
    0
 62
    7
  6
CONTINUOUS
  0
LAYER
  5
CBE
330
BAB
100
AcDbSymbolTableRecord
100
AcDbLayerTableRecord
  2
Shape7967
 70
    0
 62
    7
  6
CONTINUOUS
  0
LAYER
  5
CBF
330
BAB
100
AcDbSymbolTableRecord
100
AcDbLayerTableRecord
  2
Shape7968
 70
    0
 62
    7
  6
CONTINUOUS
  0
LAYER
  5
CC0
330
BAB
100
AcDbSymbolTableRecord
100
AcDbLayerTableRecord
  2
Shape7969
 70
    0
 62
    7
  6
CONTINUOUS
  0
LAYER
  5
CC1
330
BAB
100
AcDbSymbolTableRecord
100
AcDbLayerTableRecord
  2
Shape7970
 70
    0
 62
    7
  6
CONTINUOUS
  0
LAYER
  5
CC2
330
BAB
100
AcDbSymbolTableRecord
100
AcDbLayerTableRecord
  2
Shape7971
 70
    0
 62
    7
  6
CONTINUOUS
  0
LAYER
  5
CC3
330
BAB
100
AcDbSymbolTableRecord
100
AcDbLayerTableRecord
  2
Shape7972
 70
    0
 62
    7
  6
CONTINUOUS
  0
LAYER
  5
CC4
330
BAB
100
AcDbSymbolTableRecord
100
AcDbLayerTableRecord
  2
Shape7973
 70
    0
 62
    7
  6
CONTINUOUS
  0
LAYER
  5
CC5
330
BAB
100
AcDbSymbolTableRecord
100
AcDbLayerTableRecord
  2
Shape7974
 70
    0
 62
    7
  6
CONTINUOUS
  0
LAYER
  5
CC6
330
BAB
100
AcDbSymbolTableRecord
100
AcDbLayerTableRecord
  2
Shape7975
 70
    0
 62
    7
  6
CONTINUOUS
  0
LAYER
  5
CC7
330
BAB
100
AcDbSymbolTableRecord
100
AcDbLayerTableRecord
  2
Shape7976
 70
    0
 62
    7
  6
CONTINUOUS
  0
LAYER
  5
CC8
330
BAB
100
AcDbSymbolTableRecord
100
AcDbLayerTableRecord
  2
Shape7977
 70
    0
 62
    7
  6
CONTINUOUS
  0
LAYER
  5
CC9
330
BAB
100
AcDbSymbolTableRecord
100
AcDbLayerTableRecord
  2
Shape7978
 70
    0
 62
    7
  6
CONTINUOUS
  0
LAYER
  5
CCA
330
BAB
100
AcDbSymbolTableRecord
100
AcDbLayerTableRecord
  2
Shape7979
 70
    0
 62
    7
  6
CONTINUOUS
  0
LAYER
  5
CCB
330
BAB
100
AcDbSymbolTableRecord
100
AcDbLayerTableRecord
  2
Shape7980
 70
    0
 62
    7
  6
CONTINUOUS
  0
LAYER
  5
CCC
330
BAB
100
AcDbSymbolTableRecord
100
AcDbLayerTableRecord
  2
Shape7981
 70
    0
 62
    7
  6
CONTINUOUS
  0
LAYER
  5
CCD
330
BAB
100
AcDbSymbolTableRecord
100
AcDbLayerTableRecord
  2
Shape7982
 70
    0
 62
    7
  6
CONTINUOUS
  0
LAYER
  5
CCE
330
BAB
100
AcDbSymbolTableRecord
100
AcDbLayerTableRecord
  2
Shape7983
 70
    0
 62
    7
  6
CONTINUOUS
  0
LAYER
  5
CCF
330
BAB
100
AcDbSymbolTableRecord
100
AcDbLayerTableRecord
  2
Shape7984
 70
    0
 62
    7
  6
CONTINUOUS
  0
LAYER
  5
CD0
330
BAB
100
AcDbSymbolTableRecord
100
AcDbLayerTableRecord
  2
Shape7985
 70
    0
 62
    7
  6
CONTINUOUS
  0
LAYER
  5
CD1
330
BAB
100
AcDbSymbolTableRecord
100
AcDbLayerTableRecord
  2
Shape7986
 70
    0
 62
    7
  6
CONTINUOUS
  0
LAYER
  5
CD2
330
BAB
100
AcDbSymbolTableRecord
100
AcDbLayerTableRecord
  2
Shape7987
 70
    0
 62
    7
  6
CONTINUOUS
  0
LAYER
  5
CD3
330
BAB
100
AcDbSymbolTableRecord
100
AcDbLayerTableRecord
  2
Shape7988
 70
    0
 62
    7
  6
CONTINUOUS
  0
LAYER
  5
CD4
330
BAB
100
AcDbSymbolTableRecord
100
AcDbLayerTableRecord
  2
Shape7989
 70
    0
 62
    7
  6
CONTINUOUS
  0
LAYER
  5
CD5
330
BAB
100
AcDbSymbolTableRecord
100
AcDbLayerTableRecord
  2
Shape7990
 70
    0
 62
    7
  6
CONTINUOUS
  0
LAYER
  5
CD6
330
BAB
100
AcDbSymbolTableRecord
100
AcDbLayerTableRecord
  2
Shape7991
 70
    0
 62
    7
  6
CONTINUOUS
  0
LAYER
  5
CD7
330
BAB
100
AcDbSymbolTableRecord
100
AcDbLayerTableRecord
  2
Shape7992
 70
    0
 62
    7
  6
CONTINUOUS
  0
LAYER
  5
CD8
330
BAB
100
AcDbSymbolTableRecord
100
AcDbLayerTableRecord
  2
Shape7993
 70
    0
 62
    7
  6
CONTINUOUS
  0
LAYER
  5
CD9
330
BAB
100
AcDbSymbolTableRecord
100
AcDbLayerTableRecord
  2
Shape7994
 70
    0
 62
    7
  6
CONTINUOUS
  0
LAYER
  5
CDA
330
BAB
100
AcDbSymbolTableRecord
100
AcDbLayerTableRecord
  2
Shape7995
 70
    0
 62
    7
  6
CONTINUOUS
  0
LAYER
  5
CDB
330
BAB
100
AcDbSymbolTableRecord
100
AcDbLayerTableRecord
  2
Shape7996
 70
    0
 62
    7
  6
CONTINUOUS
  0
LAYER
  5
CDC
330
BAB
100
AcDbSymbolTableRecord
100
AcDbLayerTableRecord
  2
Shape7997
 70
    0
 62
    7
  6
CONTINUOUS
  0
LAYER
  5
CDD
330
BAB
100
AcDbSymbolTableRecord
100
AcDbLayerTableRecord
  2
Shape7998
 70
    0
 62
    7
  6
CONTINUOUS
  0
LAYER
  5
CDE
330
BAB
100
AcDbSymbolTableRecord
100
AcDbLayerTableRecord
  2
Shape7999
 70
    0
 62
    7
  6
CONTINUOUS
  0
LAYER
  5
CDF
330
BAB
100
AcDbSymbolTableRecord
100
AcDbLayerTableRecord
  2
Shape8000
 70
    0
 62
    7
  6
CONTINUOUS
  0
LAYER
  5
CE0
330
BAB
100
AcDbSymbolTableRecord
100
AcDbLayerTableRecord
  2
Shape8001
 70
    0
 62
    7
  6
CONTINUOUS
  0
LAYER
  5
CE1
330
BAB
100
AcDbSymbolTableRecord
100
AcDbLayerTableRecord
  2
Shape8002
 70
    0
 62
    7
  6
CONTINUOUS
  0
LAYER
  5
CE2
330
BAB
100
AcDbSymbolTableRecord
100
AcDbLayerTableRecord
  2
Shape8003
 70
    0
 62
    7
  6
CONTINUOUS
  0
LAYER
  5
CE3
330
BAB
100
AcDbSymbolTableRecord
100
AcDbLayerTableRecord
  2
Shape8004
 70
    0
 62
    7
  6
CONTINUOUS
  0
LAYER
  5
CE4
330
BAB
100
AcDbSymbolTableRecord
100
AcDbLayerTableRecord
  2
Shape8005
 70
    0
 62
    7
  6
CONTINUOUS
  0
LAYER
  5
CE5
330
BAB
100
AcDbSymbolTableRecord
100
AcDbLayerTableRecord
  2
Shape8006
 70
    0
 62
    7
  6
CONTINUOUS
  0
LAYER
  5
CE6
330
BAB
100
AcDbSymbolTableRecord
100
AcDbLayerTableRecord
  2
Shape8007
 70
    0
 62
    7
  6
CONTINUOUS
  0
LAYER
  5
CE7
330
BAB
100
AcDbSymbolTableRecord
100
AcDbLayerTableRecord
  2
Shape8008
 70
    0
 62
    7
  6
CONTINUOUS
  0
LAYER
  5
CE8
330
BAB
100
AcDbSymbolTableRecord
100
AcDbLayerTableRecord
  2
Shape8009
 70
    0
 62
    7
  6
CONTINUOUS
  0
LAYER
  5
CE9
330
BAB
100
AcDbSymbolTableRecord
100
AcDbLayerTableRecord
  2
Shape8010
 70
    0
 62
    7
  6
CONTINUOUS
  0
LAYER
  5
CEA
330
BAB
100
AcDbSymbolTableRecord
100
AcDbLayerTableRecord
  2
Shape8011
 70
    0
 62
    7
  6
CONTINUOUS
  0
LAYER
  5
CEB
330
BAB
100
AcDbSymbolTableRecord
100
AcDbLayerTableRecord
  2
Shape8012
 70
    0
 62
    7
  6
CONTINUOUS
  0
LAYER
  5
CEC
330
BAB
100
AcDbSymbolTableRecord
100
AcDbLayerTableRecord
  2
Shape8013
 70
    0
 62
    7
  6
CONTINUOUS
  0
LAYER
  5
CED
330
BAB
100
AcDbSymbolTableRecord
100
AcDbLayerTableRecord
  2
Shape8014
 70
    0
 62
    7
  6
CONTINUOUS
  0
LAYER
  5
CEE
330
BAB
100
AcDbSymbolTableRecord
100
AcDbLayerTableRecord
  2
Shape8015
 70
    0
 62
    7
  6
CONTINUOUS
  0
LAYER
  5
CEF
330
BAB
100
AcDbSymbolTableRecord
100
AcDbLayerTableRecord
  2
Shape8016
 70
    0
 62
    7
  6
CONTINUOUS
  0
LAYER
  5
CF0
330
BAB
100
AcDbSymbolTableRecord
100
AcDbLayerTableRecord
  2
Shape8017
 70
    0
 62
    7
  6
CONTINUOUS
  0
LAYER
  5
CF1
330
BAB
100
AcDbSymbolTableRecord
100
AcDbLayerTableRecord
  2
Shape8018
 70
    0
 62
    7
  6
CONTINUOUS
  0
LAYER
  5
CF2
330
BAB
100
AcDbSymbolTableRecord
100
AcDbLayerTableRecord
  2
Shape8019
 70
    0
 62
    7
  6
CONTINUOUS
  0
LAYER
  5
CF3
330
BAB
100
AcDbSymbolTableRecord
100
AcDbLayerTableRecord
  2
Shape8020
 70
    0
 62
    7
  6
CONTINUOUS
  0
LAYER
  5
CF4
330
BAB
100
AcDbSymbolTableRecord
100
AcDbLayerTableRecord
  2
Shape8021
 70
    0
 62
    7
  6
CONTINUOUS
  0
LAYER
  5
CF5
330
BAB
100
AcDbSymbolTableRecord
100
AcDbLayerTableRecord
  2
Shape8022
 70
    0
 62
    7
  6
CONTINUOUS
  0
LAYER
  5
CF6
330
BAB
100
AcDbSymbolTableRecord
100
AcDbLayerTableRecord
  2
Shape8023
 70
    0
 62
    7
  6
CONTINUOUS
  0
LAYER
  5
CF7
330
BAB
100
AcDbSymbolTableRecord
100
AcDbLayerTableRecord
  2
Shape8024
 70
    0
 62
    7
  6
CONTINUOUS
  0
LAYER
  5
CF8
330
BAB
100
AcDbSymbolTableRecord
100
AcDbLayerTableRecord
  2
Shape8025
 70
    0
 62
    7
  6
CONTINUOUS
  0
LAYER
  5
CF9
330
BAB
100
AcDbSymbolTableRecord
100
AcDbLayerTableRecord
  2
Shape8026
 70
    0
 62
    7
  6
CONTINUOUS
  0
LAYER
  5
CFA
330
BAB
100
AcDbSymbolTableRecord
100
AcDbLayerTableRecord
  2
Shape8027
 70
    0
 62
    7
  6
CONTINUOUS
  0
LAYER
  5
CFB
330
BAB
100
AcDbSymbolTableRecord
100
AcDbLayerTableRecord
  2
Shape8028
 70
    0
 62
    7
  6
CONTINUOUS
  0
LAYER
  5
CFC
330
BAB
100
AcDbSymbolTableRecord
100
AcDbLayerTableRecord
  2
Shape8029
 70
    0
 62
    7
  6
CONTINUOUS
  0
LAYER
  5
CFD
330
BAB
100
AcDbSymbolTableRecord
100
AcDbLayerTableRecord
  2
Shape8030
 70
    0
 62
    7
  6
CONTINUOUS
  0
LAYER
  5
CFE
330
BAB
100
AcDbSymbolTableRecord
100
AcDbLayerTableRecord
  2
Shape8031
 70
    0
 62
    7
  6
CONTINUOUS
  0
LAYER
  5
CFF
330
BAB
100
AcDbSymbolTableRecord
100
AcDbLayerTableRecord
  2
Shape8032
 70
    0
 62
    7
  6
CONTINUOUS
  0
LAYER
  5
D00
330
BAB
100
AcDbSymbolTableRecord
100
AcDbLayerTableRecord
  2
Shape8033
 70
    0
 62
    7
  6
CONTINUOUS
  0
LAYER
  5
D01
330
BAB
100
AcDbSymbolTableRecord
100
AcDbLayerTableRecord
  2
Shape8034
 70
    0
 62
    7
  6
CONTINUOUS
  0
LAYER
  5
D02
330
BAB
100
AcDbSymbolTableRecord
100
AcDbLayerTableRecord
  2
Shape8035
 70
    0
 62
    7
  6
CONTINUOUS
  0
LAYER
  5
D03
330
BAB
100
AcDbSymbolTableRecord
100
AcDbLayerTableRecord
  2
Shape8036
 70
    0
 62
    7
  6
CONTINUOUS
  0
LAYER
  5
D04
330
BAB
100
AcDbSymbolTableRecord
100
AcDbLayerTableRecord
  2
Shape8037
 70
    0
 62
    7
  6
CONTINUOUS
  0
LAYER
  5
D05
330
BAB
100
AcDbSymbolTableRecord
100
AcDbLayerTableRecord
  2
Shape8038
 70
    0
 62
    7
  6
CONTINUOUS
  0
LAYER
  5
D06
330
BAB
100
AcDbSymbolTableRecord
100
AcDbLayerTableRecord
  2
Shape8039
 70
    0
 62
    7
  6
CONTINUOUS
  0
LAYER
  5
D07
330
BAB
100
AcDbSymbolTableRecord
100
AcDbLayerTableRecord
  2
Shape8040
 70
    0
 62
    7
  6
CONTINUOUS
  0
LAYER
  5
D08
330
BAB
100
AcDbSymbolTableRecord
100
AcDbLayerTableRecord
  2
Shape8041
 70
    0
 62
    7
  6
CONTINUOUS
  0
LAYER
  5
D09
330
BAB
100
AcDbSymbolTableRecord
100
AcDbLayerTableRecord
  2
Shape8042
 70
    0
 62
    7
  6
CONTINUOUS
  0
LAYER
  5
D0A
330
BAB
100
AcDbSymbolTableRecord
100
AcDbLayerTableRecord
  2
Shape8043
 70
    0
 62
    7
  6
CONTINUOUS
  0
LAYER
  5
D0B
330
BAB
100
AcDbSymbolTableRecord
100
AcDbLayerTableRecord
  2
Shape8044
 70
    0
 62
    7
  6
CONTINUOUS
  0
LAYER
  5
D0C
330
BAB
100
AcDbSymbolTableRecord
100
AcDbLayerTableRecord
  2
Shape8045
 70
    0
 62
    7
  6
CONTINUOUS
  0
LAYER
  5
D0D
330
BAB
100
AcDbSymbolTableRecord
100
AcDbLayerTableRecord
  2
Shape8046
 70
    0
 62
    7
  6
CONTINUOUS
  0
LAYER
  5
D0E
330
BAB
100
AcDbSymbolTableRecord
100
AcDbLayerTableRecord
  2
Shape8047
 70
    0
 62
    7
  6
CONTINUOUS
  0
LAYER
  5
D0F
330
BAB
100
AcDbSymbolTableRecord
100
AcDbLayerTableRecord
  2
Shape8048
 70
    0
 62
    7
  6
CONTINUOUS
  0
LAYER
  5
D10
330
BAB
100
AcDbSymbolTableRecord
100
AcDbLayerTableRecord
  2
Shape8049
 70
    0
 62
    7
  6
CONTINUOUS
  0
LAYER
  5
D11
330
BAB
100
AcDbSymbolTableRecord
100
AcDbLayerTableRecord
  2
Shape8050
 70
    0
 62
    7
  6
CONTINUOUS
  0
LAYER
  5
D12
330
BAB
100
AcDbSymbolTableRecord
100
AcDbLayerTableRecord
  2
Shape8051
 70
    0
 62
    7
  6
CONTINUOUS
  0
LAYER
  5
D13
330
BAB
100
AcDbSymbolTableRecord
100
AcDbLayerTableRecord
  2
Shape8052
 70
    0
 62
    7
  6
CONTINUOUS
  0
LAYER
  5
D14
330
BAB
100
AcDbSymbolTableRecord
100
AcDbLayerTableRecord
  2
Shape8053
 70
    0
 62
    7
  6
CONTINUOUS
  0
LAYER
  5
D15
330
BAB
100
AcDbSymbolTableRecord
100
AcDbLayerTableRecord
  2
Shape8054
 70
    0
 62
    7
  6
CONTINUOUS
  0
LAYER
  5
D16
330
BAB
100
AcDbSymbolTableRecord
100
AcDbLayerTableRecord
  2
Shape8055
 70
    0
 62
    7
  6
CONTINUOUS
  0
LAYER
  5
D17
330
BAB
100
AcDbSymbolTableRecord
100
AcDbLayerTableRecord
  2
Shape8056
 70
    0
 62
    7
  6
CONTINUOUS
  0
LAYER
  5
D18
330
BAB
100
AcDbSymbolTableRecord
100
AcDbLayerTableRecord
  2
Shape8057
 70
    0
 62
    7
  6
CONTINUOUS
  0
LAYER
  5
D19
330
BAB
100
AcDbSymbolTableRecord
100
AcDbLayerTableRecord
  2
Shape8058
 70
    0
 62
    7
  6
CONTINUOUS
  0
LAYER
  5
D1A
330
BAB
100
AcDbSymbolTableRecord
100
AcDbLayerTableRecord
  2
Shape8059
 70
    0
 62
    7
  6
CONTINUOUS
  0
LAYER
  5
D1B
330
BAB
100
AcDbSymbolTableRecord
100
AcDbLayerTableRecord
  2
Shape8060
 70
    0
 62
    7
  6
CONTINUOUS
  0
LAYER
  5
D1C
330
BAB
100
AcDbSymbolTableRecord
100
AcDbLayerTableRecord
  2
Shape8061
 70
    0
 62
    7
  6
CONTINUOUS
  0
LAYER
  5
D1D
330
BAB
100
AcDbSymbolTableRecord
100
AcDbLayerTableRecord
  2
Shape8062
 70
    0
 62
    7
  6
CONTINUOUS
  0
LAYER
  5
D1E
330
BAB
100
AcDbSymbolTableRecord
100
AcDbLayerTableRecord
  2
Shape8063
 70
    0
 62
    7
  6
CONTINUOUS
  0
LAYER
  5
D1F
330
BAB
100
AcDbSymbolTableRecord
100
AcDbLayerTableRecord
  2
Shape8064
 70
    0
 62
    7
  6
CONTINUOUS
  0
LAYER
  5
D20
330
BAB
100
AcDbSymbolTableRecord
100
AcDbLayerTableRecord
  2
Shape8065
 70
    0
 62
    7
  6
CONTINUOUS
  0
LAYER
  5
D21
330
BAB
100
AcDbSymbolTableRecord
100
AcDbLayerTableRecord
  2
Shape8066
 70
    0
 62
    7
  6
CONTINUOUS
  0
LAYER
  5
D22
330
BAB
100
AcDbSymbolTableRecord
100
AcDbLayerTableRecord
  2
Shape8067
 70
    0
 62
    7
  6
CONTINUOUS
  0
LAYER
  5
D23
330
BAB
100
AcDbSymbolTableRecord
100
AcDbLayerTableRecord
  2
Shape8068
 70
    0
 62
    7
  6
CONTINUOUS
  0
LAYER
  5
D24
330
BAB
100
AcDbSymbolTableRecord
100
AcDbLayerTableRecord
  2
Shape8069
 70
    0
 62
    7
  6
CONTINUOUS
  0
LAYER
  5
D25
330
BAB
100
AcDbSymbolTableRecord
100
AcDbLayerTableRecord
  2
Shape8070
 70
    0
 62
    7
  6
CONTINUOUS
  0
LAYER
  5
D26
330
BAB
100
AcDbSymbolTableRecord
100
AcDbLayerTableRecord
  2
Shape8071
 70
    0
 62
    7
  6
CONTINUOUS
  0
LAYER
  5
D27
330
BAB
100
AcDbSymbolTableRecord
100
AcDbLayerTableRecord
  2
Shape8072
 70
    0
 62
    7
  6
CONTINUOUS
  0
LAYER
  5
D28
330
BAB
100
AcDbSymbolTableRecord
100
AcDbLayerTableRecord
  2
Shape8073
 70
    0
 62
    7
  6
CONTINUOUS
  0
LAYER
  5
D29
330
BAB
100
AcDbSymbolTableRecord
100
AcDbLayerTableRecord
  2
Shape8074
 70
    0
 62
    7
  6
CONTINUOUS
  0
LAYER
  5
D2A
330
BAB
100
AcDbSymbolTableRecord
100
AcDbLayerTableRecord
  2
Shape8075
 70
    0
 62
    7
  6
CONTINUOUS
  0
LAYER
  5
D2B
330
BAB
100
AcDbSymbolTableRecord
100
AcDbLayerTableRecord
  2
Shape8076
 70
    0
 62
    7
  6
CONTINUOUS
  0
LAYER
  5
D2C
330
BAB
100
AcDbSymbolTableRecord
100
AcDbLayerTableRecord
  2
Shape8077
 70
    0
 62
    7
  6
CONTINUOUS
  0
LAYER
  5
D2D
330
BAB
100
AcDbSymbolTableRecord
100
AcDbLayerTableRecord
  2
Shape8078
 70
    0
 62
    7
  6
CONTINUOUS
  0
LAYER
  5
D2E
330
BAB
100
AcDbSymbolTableRecord
100
AcDbLayerTableRecord
  2
Shape8079
 70
    0
 62
    7
  6
CONTINUOUS
  0
LAYER
  5
D2F
330
BAB
100
AcDbSymbolTableRecord
100
AcDbLayerTableRecord
  2
Shape8080
 70
    0
 62
    7
  6
CONTINUOUS
  0
LAYER
  5
D30
330
BAB
100
AcDbSymbolTableRecord
100
AcDbLayerTableRecord
  2
Shape8081
 70
    0
 62
    7
  6
CONTINUOUS
  0
LAYER
  5
D31
330
BAB
100
AcDbSymbolTableRecord
100
AcDbLayerTableRecord
  2
Shape8082
 70
    0
 62
    7
  6
CONTINUOUS
  0
LAYER
  5
D32
330
BAB
100
AcDbSymbolTableRecord
100
AcDbLayerTableRecord
  2
Shape8083
 70
    0
 62
    7
  6
CONTINUOUS
  0
LAYER
  5
D33
330
BAB
100
AcDbSymbolTableRecord
100
AcDbLayerTableRecord
  2
Shape8084
 70
    0
 62
    7
  6
CONTINUOUS
  0
LAYER
  5
D34
330
BAB
100
AcDbSymbolTableRecord
100
AcDbLayerTableRecord
  2
Shape8085
 70
    0
 62
    7
  6
CONTINUOUS
  0
LAYER
  5
D35
330
BAB
100
AcDbSymbolTableRecord
100
AcDbLayerTableRecord
  2
Shape8086
 70
    0
 62
    7
  6
CONTINUOUS
  0
LAYER
  5
D36
330
BAB
100
AcDbSymbolTableRecord
100
AcDbLayerTableRecord
  2
Shape8087
 70
    0
 62
    7
  6
CONTINUOUS
  0
LAYER
  5
D37
330
BAB
100
AcDbSymbolTableRecord
100
AcDbLayerTableRecord
  2
Shape8088
 70
    0
 62
    7
  6
CONTINUOUS
  0
LAYER
  5
D38
330
BAB
100
AcDbSymbolTableRecord
100
AcDbLayerTableRecord
  2
Shape8089
 70
    0
 62
    7
  6
CONTINUOUS
  0
LAYER
  5
D39
330
BAB
100
AcDbSymbolTableRecord
100
AcDbLayerTableRecord
  2
Shape8090
 70
    0
 62
    7
  6
CONTINUOUS
  0
LAYER
  5
D3A
330
BAB
100
AcDbSymbolTableRecord
100
AcDbLayerTableRecord
  2
Shape8091
 70
    0
 62
    7
  6
CONTINUOUS
  0
LAYER
  5
D3B
330
BAB
100
AcDbSymbolTableRecord
100
AcDbLayerTableRecord
  2
Shape8092
 70
    0
 62
    7
  6
CONTINUOUS
  0
LAYER
  5
D3C
330
BAB
100
AcDbSymbolTableRecord
100
AcDbLayerTableRecord
  2
Shape8093
 70
    0
 62
    7
  6
CONTINUOUS
  0
LAYER
  5
D3D
330
BAB
100
AcDbSymbolTableRecord
100
AcDbLayerTableRecord
  2
Shape8094
 70
    0
 62
    7
  6
CONTINUOUS
  0
LAYER
  5
D3E
330
BAB
100
AcDbSymbolTableRecord
100
AcDbLayerTableRecord
  2
Shape8095
 70
    0
 62
    7
  6
CONTINUOUS
  0
LAYER
  5
D3F
330
BAB
100
AcDbSymbolTableRecord
100
AcDbLayerTableRecord
  2
Shape8096
 70
    0
 62
    7
  6
CONTINUOUS
  0
LAYER
  5
D40
330
BAB
100
AcDbSymbolTableRecord
100
AcDbLayerTableRecord
  2
Shape8097
 70
    0
 62
    7
  6
CONTINUOUS
  0
LAYER
  5
D41
330
BAB
100
AcDbSymbolTableRecord
100
AcDbLayerTableRecord
  2
Shape8098
 70
    0
 62
    7
  6
CONTINUOUS
  0
LAYER
  5
D42
330
BAB
100
AcDbSymbolTableRecord
100
AcDbLayerTableRecord
  2
Shape8099
 70
    0
 62
    7
  6
CONTINUOUS
  0
LAYER
  5
D43
330
BAB
100
AcDbSymbolTableRecord
100
AcDbLayerTableRecord
  2
Shape8100
 70
    0
 62
    7
  6
CONTINUOUS
  0
LAYER
  5
D44
330
BAB
100
AcDbSymbolTableRecord
100
AcDbLayerTableRecord
  2
Shape8101
 70
    0
 62
    7
  6
CONTINUOUS
  0
LAYER
  5
D45
330
BAB
100
AcDbSymbolTableRecord
100
AcDbLayerTableRecord
  2
Shape8102
 70
    0
 62
    7
  6
CONTINUOUS
  0
LAYER
  5
D46
330
BAB
100
AcDbSymbolTableRecord
100
AcDbLayerTableRecord
  2
Shape8103
 70
    0
 62
    7
  6
CONTINUOUS
  0
LAYER
  5
D47
330
BAB
100
AcDbSymbolTableRecord
100
AcDbLayerTableRecord
  2
Shape8120
 70
    0
 62
    7
  6
CONTINUOUS
  0
LAYER
  5
D48
330
BAB
100
AcDbSymbolTableRecord
100
AcDbLayerTableRecord
  2
Shape8121
 70
    0
 62
    7
  6
CONTINUOUS
  0
LAYER
  5
D49
330
BAB
100
AcDbSymbolTableRecord
100
AcDbLayerTableRecord
  2
Shape8122
 70
    0
 62
    7
  6
CONTINUOUS
  0
LAYER
  5
D4A
330
BAB
100
AcDbSymbolTableRecord
100
AcDbLayerTableRecord
  2
Shape8123
 70
    0
 62
    7
  6
CONTINUOUS
  0
LAYER
  5
D4B
330
BAB
100
AcDbSymbolTableRecord
100
AcDbLayerTableRecord
  2
Shape8124
 70
    0
 62
    7
  6
CONTINUOUS
  0
LAYER
  5
D4C
330
BAB
100
AcDbSymbolTableRecord
100
AcDbLayerTableRecord
  2
Shape8125
 70
    0
 62
    7
  6
CONTINUOUS
  0
LAYER
  5
D4D
330
BAB
100
AcDbSymbolTableRecord
100
AcDbLayerTableRecord
  2
Shape8126
 70
    0
 62
    7
  6
CONTINUOUS
  0
LAYER
  5
D4E
330
BAB
100
AcDbSymbolTableRecord
100
AcDbLayerTableRecord
  2
Shape8127
 70
    0
 62
    7
  6
CONTINUOUS
  0
LAYER
  5
D4F
330
BAB
100
AcDbSymbolTableRecord
100
AcDbLayerTableRecord
  2
Shape10722
 70
    0
 62
    7
  6
CONTINUOUS
  0
LAYER
  5
D50
330
BAB
100
AcDbSymbolTableRecord
100
AcDbLayerTableRecord
  2
Shape12749
 70
    0
 62
    7
  6
CONTINUOUS
  0
ENDTAB
  0
TABLE
  2
STYLE
  5
70
330
0
100
AcDbSymbolTable
 70
     2
  0
STYLE
  5
71
330
70
100
AcDbSymbolTableRecord
100
AcDbTextStyleTableRecord
  2
STANDARD
 70
     0
 40
0.0
 41
1.0
 50
0.0
 71
     0
 42
2.5
  3
arial.ttf
  4

  0
STYLE
  5
72
330
70
100
AcDbSymbolTableRecord
100
AcDbTextStyleTableRecord
  2
ANNOTATIVE
 70
     0
 40
0.0
 41
1.0
 50
0.0
 71
     0
 42
2.5
  3
arial.ttf
  4

  0
ENDTAB
  0
TABLE
  2
VIEW
  5
73
330
0
100
AcDbSymbolTable
 70
     0
  0
ENDTAB
  0
TABLE
  2
UCS
  5
74
330
0
100
AcDbSymbolTable
 70
     0
  0
ENDTAB
  0
TABLE
  2
APPID
  5
75
330
0
100
AcDbSymbolTable
 70
     2
  0
APPID
  5
76
330
75
100
AcDbSymbolTableRecord
100
AcDbRegAppTableRecord
  2
ACAD
 70
     0
  0
APPID
  5
77
330
75
100
AcDbSymbolTableRecord
100
AcDbRegAppTableRecord
  2
ACADANNOTATIVE
 70
     0
  0
ENDTAB
  0
TABLE
  2
DIMSTYLE
  5
78
330
0
100
AcDbSymbolTable
 70
     2
  0
DIMSTYLE
105
79
330
78
100
AcDbSymbolTableRecord
100
AcDbDimStyleTableRecord
  2
STANDARD
 70
     0
  3

  4

  5

  6

  7

 40
0.0
 41
2.5
 42
0.625
 43
3.75
 44
1.25
 45
0.0
 46
0.0
 47
0.0
 48
0.0
140
2.5
141
2.5
142
0.0
143
0.03937007874016
144
1.0
145
0.0
146
1.0
147
0.625
 71
     0
 72
     0
 73
     0
 74
     0
 75
     0
 76
     0
 77
     1
 78
     8
170
     0
171
     3
172
     1
173
     0
174
     0
175
     0
176
     0
177
     0
178
     0
270
     2
271
     2
272
     2
273
     2
274
     3
340
71
275
     0
280
     0
281
     0
282
     0
283
     0
284
     8
285
     0
286
     0
287
     3
288
     0
  0
ENDTAB
  0
TABLE
  2
BLOCK_RECORD
  5
A01
330
0
100
AcDbSymbolTable
  70
5
  0
BLOCK_RECORD
  5
A02
330
A01
100
AcDbSymbolTableRecord
100
AcDbBlockTableRecord
  2
*MODEL_SPACE
  0
BLOCK_RECORD
  5
A03
330
A01
100
AcDbSymbolTableRecord
100
AcDbBlockTableRecord
  2
*PAPER_SPACE
  0
ENDTAB
  0
ENDSEC
  0
SECTION
  2
BLOCKS
  0
BLOCK
  5
A04
330
A02
100
AcDbEntity
  8
0
100
AcDbBlockBegin
  2
*MODEL_SPACE
 70
   0
 10
0
 20
0
 30
0
  3
*MODEL_SPACE
  1
 
  0
ENDBLK
  5
A05
330
A02
100
AcDbEntity
  8
0
100
AcDbBlockEnd
  0
BLOCK
  5
A06
330
A03
100
AcDbEntity
 67
1
  8
0
100
AcDbBlockBegin
  2
*PAPER_SPACE
 70
   0
 10
0
 20
0
 30
0
  3
*PAPER_SPACE
  1
 
  0
ENDBLK
  5
A07
330
A03
100
AcDbEntity
 67
    1
  8
0
100
AcDbBlockEnd
  0
ENDSEC
  0
SECTION
  2
ENTITIES
  0
CIRCLE
  5
A08
330
A02
100
AcDbEntity
  8
Shape7479
100
AcDbCircle
 10
95.5544
 20
-163.851
 40
1.1
  0
CIRCLE
  5
A09
330
A02
100
AcDbEntity
  8
Shape7480
100
AcDbCircle
 10
5.55443
 20
-163.851
 40
1.1
  0
CIRCLE
  5
A0A
330
A02
100
AcDbEntity
  8
Shape7481
100
AcDbCircle
 10
-84.4456
 20
-163.851
 40
1.1
  0
CIRCLE
  5
A0B
330
A02
100
AcDbEntity
  8
Shape7482
100
AcDbCircle
 10
95.5544
 20
-247.25
 40
1.1
  0
CIRCLE
  5
A0C
330
A02
100
AcDbEntity
  8
Shape7483
100
AcDbCircle
 10
5.55443
 20
-247.25
 40
1.1
  0
CIRCLE
  5
A0D
330
A02
100
AcDbEntity
  8
Shape7484
100
AcDbCircle
 10
-84.4456
 20
-247.25
 40
1.1
  0
LINE
  5
A0E
330
A02
100
AcDbEntity
  8
Shape7485
100
AcDbLine
 10
106.973
 20
-243.751
 30
0
 11
106.054
 21
-243.751
 31
0
  0
ARC
  5
A0F
330
A02
100
AcDbEntity
  8
Shape7486
100
AcDbCircle
 10
106.054
 20
-244.251
 30
0
 40
0.5
100
AcDbArc
 50
90
 51
180
  0
LINE
  5
A10
330
A02
100
AcDbEntity
  8
Shape7487
100
AcDbLine
 10
105.554
 20
-244.251
 30
0
 11
105.554
 21
-244.5
 31
0
  0
ARC
  5
A11
330
A02
100
AcDbEntity
  8
Shape7488
100
AcDbCircle
 10
106.054
 20
-244.5
 30
0
 40
0.5
100
AcDbArc
 50
180
 51
-90
  0
LINE
  5
A12
330
A02
100
AcDbEntity
  8
Shape7489
100
AcDbLine
 10
106.054
 20
-245
 30
0
 11
116.554
 21
-245
 31
0
  0
ARC
  5
A13
330
A02
100
AcDbEntity
  8
Shape7490
100
AcDbCircle
 10
116.554
 20
-246
 30
0
 40
1
100
AcDbArc
 50
0
 51
90
  0
LINE
  5
A14
330
A02
100
AcDbEntity
  8
Shape7491
100
AcDbLine
 10
117.554
 20
-246
 30
0
 11
117.554
 21
-247.5
 31
0
  0
ARC
  5
A15
330
A02
100
AcDbEntity
  8
Shape7492
100
AcDbCircle
 10
116.554
 20
-247.5
 30
0
 40
1
100
AcDbArc
 50
-90
 51
0
  0
LINE
  5
A16
330
A02
100
AcDbEntity
  8
Shape7493
100
AcDbLine
 10
116.554
 20
-248.5
 30
0
 11
98.5544
 21
-248.5
 31
0
  0
LINE
  5
A17
330
A02
100
AcDbEntity
  8
Shape7494
100
AcDbLine
 10
98.5544
 20
-248.5
 30
0
 11
98.5544
 21
-243.25
 31
0
  0
ARC
  5
A18
330
A02
100
AcDbEntity
  8
Shape7495
100
AcDbCircle
 10
98.0544
 20
-243.25
 30
0
 40
0.5
100
AcDbArc
 50
0
 51
180
  0
LINE
  5
A19
330
A02
100
AcDbEntity
  8
Shape7496
100
AcDbLine
 10
97.5544
 20
-243.25
 30
0
 11
97.5544
 21
-247.25
 31
0
  0
ARC
  5
A1A
330
A02
100
AcDbEntity
  8
Shape7497
100
AcDbCircle
 10
95.5544
 20
-247.25
 30
0
 40
2
100
AcDbArc
 50
180
 51
0
  0
LINE
  5
A1B
330
A02
100
AcDbEntity
  8
Shape7498
100
AcDbLine
 10
93.5544
 20
-247.25
 30
0
 11
93.5544
 21
-243.25
 31
0
  0
ARC
  5
A1C
330
A02
100
AcDbEntity
  8
Shape7499
100
AcDbCircle
 10
93.0544
 20
-243.25
 30
0
 40
0.5
100
AcDbArc
 50
0
 51
180
  0
LINE
  5
A1D
330
A02
100
AcDbEntity
  8
Shape7500
100
AcDbLine
 10
92.5544
 20
-243.25
 30
0
 11
92.5544
 21
-248.5
 31
0
  0
LINE
  5
A1E
330
A02
100
AcDbEntity
  8
Shape7501
100
AcDbLine
 10
92.5544
 20
-248.5
 30
0
 11
74.5544
 21
-248.5
 31
0
  0
ARC
  5
A1F
330
A02
100
AcDbEntity
  8
Shape7502
100
AcDbCircle
 10
74.5544
 20
-247.5
 30
0
 40
1
100
AcDbArc
 50
180
 51
-90
  0
LINE
  5
A20
330
A02
100
AcDbEntity
  8
Shape7503
100
AcDbLine
 10
73.5544
 20
-247.5
 30
0
 11
73.5544
 21
-246
 31
0
  0
ARC
  5
A21
330
A02
100
AcDbEntity
  8
Shape7504
100
AcDbCircle
 10
74.5544
 20
-246
 30
0
 40
1
100
AcDbArc
 50
90
 51
180
  0
LINE
  5
A22
330
A02
100
AcDbEntity
  8
Shape7505
100
AcDbLine
 10
74.5544
 20
-245
 30
0
 11
85.0544
 21
-245
 31
0
  0
ARC
  5
A23
330
A02
100
AcDbEntity
  8
Shape7506
100
AcDbCircle
 10
85.0544
 20
-244.5
 30
0
 40
0.5
100
AcDbArc
 50
-90
 51
0
  0
LINE
  5
A24
330
A02
100
AcDbEntity
  8
Shape7507
100
AcDbLine
 10
85.5544
 20
-244.5
 30
0
 11
85.5544
 21
-244.251
 31
0
  0
ARC
  5
A25
330
A02
100
AcDbEntity
  8
Shape7508
100
AcDbCircle
 10
85.0544
 20
-244.251
 30
0
 40
0.5
100
AcDbArc
 50
0
 51
90
  0
LINE
  5
A26
330
A02
100
AcDbEntity
  8
Shape7509
100
AcDbLine
 10
85.0544
 20
-243.751
 30
0
 11
16.0544
 21
-243.751
 31
0
  0
ARC
  5
A27
330
A02
100
AcDbEntity
  8
Shape7510
100
AcDbCircle
 10
16.0544
 20
-244.251
 30
0
 40
0.5
100
AcDbArc
 50
90
 51
180
  0
LINE
  5
A28
330
A02
100
AcDbEntity
  8
Shape7511
100
AcDbLine
 10
15.5544
 20
-244.251
 30
0
 11
15.5544
 21
-244.5
 31
0
  0
ARC
  5
A29
330
A02
100
AcDbEntity
  8
Shape7512
100
AcDbCircle
 10
16.0544
 20
-244.5
 30
0
 40
0.5
100
AcDbArc
 50
180
 51
-90
  0
LINE
  5
A2A
330
A02
100
AcDbEntity
  8
Shape7513
100
AcDbLine
 10
16.0544
 20
-245
 30
0
 11
26.5544
 21
-245
 31
0
  0
ARC
  5
A2B
330
A02
100
AcDbEntity
  8
Shape7514
100
AcDbCircle
 10
26.5544
 20
-246
 30
0
 40
1
100
AcDbArc
 50
0
 51
90
  0
LINE
  5
A2C
330
A02
100
AcDbEntity
  8
Shape7515
100
AcDbLine
 10
27.5544
 20
-246
 30
0
 11
27.5544
 21
-247.5
 31
0
  0
ARC
  5
A2D
330
A02
100
AcDbEntity
  8
Shape7516
100
AcDbCircle
 10
26.5544
 20
-247.5
 30
0
 40
1
100
AcDbArc
 50
-90
 51
0
  0
LINE
  5
A2E
330
A02
100
AcDbEntity
  8
Shape7517
100
AcDbLine
 10
26.5544
 20
-248.5
 30
0
 11
8.55443
 21
-248.5
 31
0
  0
LINE
  5
A2F
330
A02
100
AcDbEntity
  8
Shape7518
100
AcDbLine
 10
8.55443
 20
-248.5
 30
0
 11
8.55443
 21
-243.25
 31
0
  0
ARC
  5
A30
330
A02
100
AcDbEntity
  8
Shape7519
100
AcDbCircle
 10
8.05443
 20
-243.25
 30
0
 40
0.5
100
AcDbArc
 50
0
 51
180
  0
LINE
  5
A31
330
A02
100
AcDbEntity
  8
Shape7520
100
AcDbLine
 10
7.55443
 20
-243.25
 30
0
 11
7.55443
 21
-247.25
 31
0
  0
ARC
  5
A32
330
A02
100
AcDbEntity
  8
Shape7521
100
AcDbCircle
 10
5.55443
 20
-247.25
 30
0
 40
2
100
AcDbArc
 50
180
 51
0
  0
LINE
  5
A33
330
A02
100
AcDbEntity
  8
Shape7522
100
AcDbLine
 10
3.55443
 20
-247.25
 30
0
 11
3.55443
 21
-243.25
 31
0
  0
ARC
  5
A34
330
A02
100
AcDbEntity
  8
Shape7523
100
AcDbCircle
 10
3.05443
 20
-243.25
 30
0
 40
0.5
100
AcDbArc
 50
0
 51
180
  0
LINE
  5
A35
330
A02
100
AcDbEntity
  8
Shape7524
100
AcDbLine
 10
2.55443
 20
-243.25
 30
0
 11
2.55443
 21
-248.5
 31
0
  0
LINE
  5
A36
330
A02
100
AcDbEntity
  8
Shape7525
100
AcDbLine
 10
2.55443
 20
-248.5
 30
0
 11
-15.4456
 21
-248.5
 31
0
  0
ARC
  5
A37
330
A02
100
AcDbEntity
  8
Shape7526
100
AcDbCircle
 10
-15.4456
 20
-247.5
 30
0
 40
1
100
AcDbArc
 50
180
 51
-90
  0
LINE
  5
A38
330
A02
100
AcDbEntity
  8
Shape7527
100
AcDbLine
 10
-16.4456
 20
-247.5
 30
0
 11
-16.4456
 21
-246
 31
0
  0
ARC
  5
A39
330
A02
100
AcDbEntity
  8
Shape7528
100
AcDbCircle
 10
-15.4456
 20
-246
 30
0
 40
1
100
AcDbArc
 50
90
 51
180
  0
LINE
  5
A3A
330
A02
100
AcDbEntity
  8
Shape7529
100
AcDbLine
 10
-15.4456
 20
-245
 30
0
 11
-4.94557
 21
-245
 31
0
  0
ARC
  5
A3B
330
A02
100
AcDbEntity
  8
Shape7530
100
AcDbCircle
 10
-4.94557
 20
-244.5
 30
0
 40
0.5
100
AcDbArc
 50
-90
 51
0
  0
LINE
  5
A3C
330
A02
100
AcDbEntity
  8
Shape7531
100
AcDbLine
 10
-4.44557
 20
-244.5
 30
0
 11
-4.44557
 21
-244.251
 31
0
  0
ARC
  5
A3D
330
A02
100
AcDbEntity
  8
Shape7532
100
AcDbCircle
 10
-4.94557
 20
-244.251
 30
0
 40
0.5
100
AcDbArc
 50
0
 51
90
  0
LINE
  5
A3E
330
A02
100
AcDbEntity
  8
Shape7533
100
AcDbLine
 10
-4.94557
 20
-243.751
 30
0
 11
-73.9456
 21
-243.751
 31
0
  0
ARC
  5
A3F
330
A02
100
AcDbEntity
  8
Shape7534
100
AcDbCircle
 10
-73.9456
 20
-244.251
 30
0
 40
0.5
100
AcDbArc
 50
90
 51
180
  0
LINE
  5
A40
330
A02
100
AcDbEntity
  8
Shape7535
100
AcDbLine
 10
-74.4456
 20
-244.251
 30
0
 11
-74.4456
 21
-244.5
 31
0
  0
ARC
  5
A41
330
A02
100
AcDbEntity
  8
Shape7536
100
AcDbCircle
 10
-73.9456
 20
-244.5
 30
0
 40
0.5
100
AcDbArc
 50
180
 51
-90
  0
LINE
  5
A42
330
A02
100
AcDbEntity
  8
Shape7537
100
AcDbLine
 10
-73.9456
 20
-245
 30
0
 11
-63.4456
 21
-245
 31
0
  0
ARC
  5
A43
330
A02
100
AcDbEntity
  8
Shape7538
100
AcDbCircle
 10
-63.4456
 20
-246
 30
0
 40
1
100
AcDbArc
 50
0
 51
90
  0
LINE
  5
A44
330
A02
100
AcDbEntity
  8
Shape7539
100
AcDbLine
 10
-62.4456
 20
-246
 30
0
 11
-62.4456
 21
-247.5
 31
0
  0
ARC
  5
A45
330
A02
100
AcDbEntity
  8
Shape7540
100
AcDbCircle
 10
-63.4456
 20
-247.5
 30
0
 40
1
100
AcDbArc
 50
-90
 51
0
  0
LINE
  5
A46
330
A02
100
AcDbEntity
  8
Shape7541
100
AcDbLine
 10
-63.4456
 20
-248.5
 30
0
 11
-81.4456
 21
-248.5
 31
0
  0
LINE
  5
A47
330
A02
100
AcDbEntity
  8
Shape7542
100
AcDbLine
 10
-81.4456
 20
-248.5
 30
0
 11
-81.4456
 21
-243.25
 31
0
  0
ARC
  5
A48
330
A02
100
AcDbEntity
  8
Shape7543
100
AcDbCircle
 10
-81.9456
 20
-243.25
 30
0
 40
0.5
100
AcDbArc
 50
0
 51
180
  0
LINE
  5
A49
330
A02
100
AcDbEntity
  8
Shape7544
100
AcDbLine
 10
-82.4456
 20
-243.25
 30
0
 11
-82.4456
 21
-247.25
 31
0
  0
ARC
  5
A4A
330
A02
100
AcDbEntity
  8
Shape7545
100
AcDbCircle
 10
-84.4456
 20
-247.25
 30
0
 40
2
100
AcDbArc
 50
180
 51
0
  0
LINE
  5
A4B
330
A02
100
AcDbEntity
  8
Shape7546
100
AcDbLine
 10
-86.4456
 20
-247.25
 30
0
 11
-86.4456
 21
-243.25
 31
0
  0
ARC
  5
A4C
330
A02
100
AcDbEntity
  8
Shape7547
100
AcDbCircle
 10
-86.9456
 20
-243.25
 30
0
 40
0.5
100
AcDbArc
 50
0
 51
180
  0
LINE
  5
A4D
330
A02
100
AcDbEntity
  8
Shape7548
100
AcDbLine
 10
-87.4456
 20
-243.25
 30
0
 11
-87.4456
 21
-248.5
 31
0
  0
LINE
  5
A4E
330
A02
100
AcDbEntity
  8
Shape7549
100
AcDbLine
 10
-87.4456
 20
-248.5
 30
0
 11
-105.446
 21
-248.5
 31
0
  0
ARC
  5
A4F
330
A02
100
AcDbEntity
  8
Shape7550
100
AcDbCircle
 10
-105.446
 20
-247.5
 30
0
 40
1
100
AcDbArc
 50
180
 51
-90
  0
LINE
  5
A50
330
A02
100
AcDbEntity
  8
Shape7551
100
AcDbLine
 10
-106.446
 20
-247.5
 30
0
 11
-106.446
 21
-246
 31
0
  0
ARC
  5
A51
330
A02
100
AcDbEntity
  8
Shape7552
100
AcDbCircle
 10
-105.446
 20
-246
 30
0
 40
1
100
AcDbArc
 50
90
 51
180
  0
LINE
  5
A52
330
A02
100
AcDbEntity
  8
Shape7553
100
AcDbLine
 10
-105.446
 20
-245
 30
0
 11
-94.9456
 21
-245
 31
0
  0
ARC
  5
A53
330
A02
100
AcDbEntity
  8
Shape7554
100
AcDbCircle
 10
-94.9456
 20
-244.5
 30
0
 40
0.5
100
AcDbArc
 50
-90
 51
0
  0
LINE
  5
A54
330
A02
100
AcDbEntity
  8
Shape7555
100
AcDbLine
 10
-94.4456
 20
-244.5
 30
0
 11
-94.4456
 21
-244.251
 31
0
  0
ARC
  5
A55
330
A02
100
AcDbEntity
  8
Shape7556
100
AcDbCircle
 10
-94.9456
 20
-244.251
 30
0
 40
0.5
100
AcDbArc
 50
0
 51
90
  0
LINE
  5
A56
330
A02
100
AcDbEntity
  8
Shape7557
100
AcDbLine
 10
-94.9456
 20
-243.751
 30
0
 11
-95.8643
 21
-243.751
 31
0
  0
ARC
  5
A57
330
A02
100
AcDbEntity
  8
Shape7558
100
AcDbCircle
 10
-95.8643
 20
-243.251
 30
0
 40
0.5
100
AcDbArc
 50
180
 51
-90
  0
LINE
  5
A58
330
A02
100
AcDbEntity
  8
Shape7559
100
AcDbLine
 10
-96.3643
 20
-243.251
 30
0
 11
-96.3643
 21
-227.126
 31
0
  0
ARC
  5
A59
330
A02
100
AcDbEntity
  8
Shape7560
100
AcDbCircle
 10
-99.3643
 20
-227.126
 30
0
 40
3
100
AcDbArc
 50
0
 51
90
  0
LINE
  5
A5A
330
A02
100
AcDbEntity
  8
Shape7561
100
AcDbLine
 10
-99.3643
 20
-224.126
 30
0
 11
-116.271
 21
-224.126
 31
0
  0
ARC
  5
A5B
330
A02
100
AcDbEntity
  8
Shape7562
100
AcDbCircle
 10
-116.271
 20
-222.126
 30
0
 40
2
100
AcDbArc
 50
180
 51
-90
  0
LINE
  5
A5C
330
A02
100
AcDbEntity
  8
Shape7563
100
AcDbLine
 10
-118.271
 20
-222.126
 30
0
 11
-118.271
 21
-169.351
 31
0
  0
ARC
  5
A5D
330
A02
100
AcDbEntity
  8
Shape7564
100
AcDbCircle
 10
-116.271
 20
-169.351
 30
0
 40
2
100
AcDbArc
 50
90
 51
180
  0
LINE
  5
A5E
330
A02
100
AcDbEntity
  8
Shape7565
100
AcDbLine
 10
-116.271
 20
-167.351
 30
0
 11
-94.9456
 21
-167.351
 31
0
  0
ARC
  5
A5F
330
A02
100
AcDbEntity
  8
Shape7566
100
AcDbCircle
 10
-94.9456
 20
-166.851
 30
0
 40
0.5
100
AcDbArc
 50
-90
 51
0
  0
LINE
  5
A60
330
A02
100
AcDbEntity
  8
Shape7567
100
AcDbLine
 10
-94.4456
 20
-166.851
 30
0
 11
-94.4456
 21
-166.601
 31
0
  0
ARC
  5
A61
330
A02
100
AcDbEntity
  8
Shape7568
100
AcDbCircle
 10
-94.9456
 20
-166.601
 30
0
 40
0.5
100
AcDbArc
 50
0
 51
90
  0
LINE
  5
A62
330
A02
100
AcDbEntity
  8
Shape7569
100
AcDbLine
 10
-94.9456
 20
-166.101
 30
0
 11
-105.446
 21
-166.101
 31
0
  0
ARC
  5
A63
330
A02
100
AcDbEntity
  8
Shape7570
100
AcDbCircle
 10
-105.446
 20
-165.101
 30
0
 40
1
100
AcDbArc
 50
180
 51
-90
  0
LINE
  5
A64
330
A02
100
AcDbEntity
  8
Shape7571
100
AcDbLine
 10
-106.446
 20
-165.101
 30
0
 11
-106.446
 21
-163.601
 31
0
  0
ARC
  5
A65
330
A02
100
AcDbEntity
  8
Shape7572
100
AcDbCircle
 10
-105.446
 20
-163.601
 30
0
 40
1
100
AcDbArc
 50
90
 51
180
  0
LINE
  5
A66
330
A02
100
AcDbEntity
  8
Shape7573
100
AcDbLine
 10
-105.446
 20
-162.601
 30
0
 11
-87.4456
 21
-162.601
 31
0
  0
LINE
  5
A67
330
A02
100
AcDbEntity
  8
Shape7574
100
AcDbLine
 10
-87.4456
 20
-162.601
 30
0
 11
-87.4456
 21
-167.851
 31
0
  0
ARC
  5
A68
330
A02
100
AcDbEntity
  8
Shape7575
100
AcDbCircle
 10
-86.9456
 20
-167.851
 30
0
 40
0.5
100
AcDbArc
 50
180
 51
0
  0
LINE
  5
A69
330
A02
100
AcDbEntity
  8
Shape7576
100
AcDbLine
 10
-86.4456
 20
-167.851
 30
0
 11
-86.4456
 21
-163.851
 31
0
  0
ARC
  5
A6A
330
A02
100
AcDbEntity
  8
Shape7577
100
AcDbCircle
 10
-84.4456
 20
-163.851
 30
0
 40
2
100
AcDbArc
 50
0
 51
180
  0
LINE
  5
A6B
330
A02
100
AcDbEntity
  8
Shape7578
100
AcDbLine
 10
-82.4456
 20
-163.851
 30
0
 11
-82.4456
 21
-167.851
 31
0
  0
ARC
  5
A6C
330
A02
100
AcDbEntity
  8
Shape7579
100
AcDbCircle
 10
-81.9456
 20
-167.851
 30
0
 40
0.5
100
AcDbArc
 50
180
 51
0
  0
LINE
  5
A6D
330
A02
100
AcDbEntity
  8
Shape7580
100
AcDbLine
 10
-81.4456
 20
-167.851
 30
0
 11
-81.4456
 21
-162.601
 31
0
  0
LINE
  5
A6E
330
A02
100
AcDbEntity
  8
Shape7581
100
AcDbLine
 10
-81.4456
 20
-162.601
 30
0
 11
-63.4456
 21
-162.601
 31
0
  0
ARC
  5
A6F
330
A02
100
AcDbEntity
  8
Shape7582
100
AcDbCircle
 10
-63.4456
 20
-163.601
 30
0
 40
1
100
AcDbArc
 50
0
 51
90
  0
LINE
  5
A70
330
A02
100
AcDbEntity
  8
Shape7583
100
AcDbLine
 10
-62.4456
 20
-163.601
 30
0
 11
-62.4456
 21
-165.101
 31
0
  0
ARC
  5
A71
330
A02
100
AcDbEntity
  8
Shape7584
100
AcDbCircle
 10
-63.4456
 20
-165.101
 30
0
 40
1
100
AcDbArc
 50
-90
 51
0
  0
LINE
  5
A72
330
A02
100
AcDbEntity
  8
Shape7585
100
AcDbLine
 10
-63.4456
 20
-166.101
 30
0
 11
-73.9456
 21
-166.101
 31
0
  0
ARC
  5
A73
330
A02
100
AcDbEntity
  8
Shape7586
100
AcDbCircle
 10
-73.9456
 20
-166.601
 30
0
 40
0.5
100
AcDbArc
 50
90
 51
180
  0
LINE
  5
A74
330
A02
100
AcDbEntity
  8
Shape7587
100
AcDbLine
 10
-74.4456
 20
-166.601
 30
0
 11
-74.4456
 21
-166.851
 31
0
  0
ARC
  5
A75
330
A02
100
AcDbEntity
  8
Shape7588
100
AcDbCircle
 10
-73.9456
 20
-166.851
 30
0
 40
0.5
100
AcDbArc
 50
180
 51
-90
  0
LINE
  5
A76
330
A02
100
AcDbEntity
  8
Shape7589
100
AcDbLine
 10
-73.9456
 20
-167.351
 30
0
 11
-4.94557
 21
-167.351
 31
0
  0
ARC
  5
A77
330
A02
100
AcDbEntity
  8
Shape7590
100
AcDbCircle
 10
-4.94557
 20
-166.851
 30
0
 40
0.5
100
AcDbArc
 50
-90
 51
0
  0
LINE
  5
A78
330
A02
100
AcDbEntity
  8
Shape7591
100
AcDbLine
 10
-4.44557
 20
-166.851
 30
0
 11
-4.44557
 21
-166.601
 31
0
  0
ARC
  5
A79
330
A02
100
AcDbEntity
  8
Shape7592
100
AcDbCircle
 10
-4.94557
 20
-166.601
 30
0
 40
0.5
100
AcDbArc
 50
0
 51
90
  0
LINE
  5
A7A
330
A02
100
AcDbEntity
  8
Shape7593
100
AcDbLine
 10
-4.94557
 20
-166.101
 30
0
 11
-15.4456
 21
-166.101
 31
0
  0
ARC
  5
A7B
330
A02
100
AcDbEntity
  8
Shape7594
100
AcDbCircle
 10
-15.4456
 20
-165.101
 30
0
 40
1
100
AcDbArc
 50
180
 51
-90
  0
LINE
  5
A7C
330
A02
100
AcDbEntity
  8
Shape7595
100
AcDbLine
 10
-16.4456
 20
-165.101
 30
0
 11
-16.4456
 21
-163.601
 31
0
  0
ARC
  5
A7D
330
A02
100
AcDbEntity
  8
Shape7596
100
AcDbCircle
 10
-15.4456
 20
-163.601
 30
0
 40
1
100
AcDbArc
 50
90
 51
180
  0
LINE
  5
A7E
330
A02
100
AcDbEntity
  8
Shape7597
100
AcDbLine
 10
-15.4456
 20
-162.601
 30
0
 11
2.55443
 21
-162.601
 31
0
  0
LINE
  5
A7F
330
A02
100
AcDbEntity
  8
Shape7598
100
AcDbLine
 10
2.55443
 20
-162.601
 30
0
 11
2.55443
 21
-167.851
 31
0
  0
ARC
  5
A80
330
A02
100
AcDbEntity
  8
Shape7599
100
AcDbCircle
 10
3.05443
 20
-167.851
 30
0
 40
0.5
100
AcDbArc
 50
180
 51
0
  0
LINE
  5
A81
330
A02
100
AcDbEntity
  8
Shape7600
100
AcDbLine
 10
3.55443
 20
-167.851
 30
0
 11
3.55443
 21
-163.851
 31
0
  0
ARC
  5
A82
330
A02
100
AcDbEntity
  8
Shape7601
100
AcDbCircle
 10
5.55443
 20
-163.851
 30
0
 40
2
100
AcDbArc
 50
0
 51
180
  0
LINE
  5
A83
330
A02
100
AcDbEntity
  8
Shape7602
100
AcDbLine
 10
7.55443
 20
-163.851
 30
0
 11
7.55443
 21
-167.851
 31
0
  0
ARC
  5
A84
330
A02
100
AcDbEntity
  8
Shape7603
100
AcDbCircle
 10
8.05443
 20
-167.851
 30
0
 40
0.5
100
AcDbArc
 50
180
 51
0
  0
LINE
  5
A85
330
A02
100
AcDbEntity
  8
Shape7604
100
AcDbLine
 10
8.55443
 20
-167.851
 30
0
 11
8.55443
 21
-162.601
 31
0
  0
LINE
  5
A86
330
A02
100
AcDbEntity
  8
Shape7605
100
AcDbLine
 10
8.55443
 20
-162.601
 30
0
 11
26.5544
 21
-162.601
 31
0
  0
ARC
  5
A87
330
A02
100
AcDbEntity
  8
Shape7606
100
AcDbCircle
 10
26.5544
 20
-163.601
 30
0
 40
1
100
AcDbArc
 50
0
 51
90
  0
LINE
  5
A88
330
A02
100
AcDbEntity
  8
Shape7607
100
AcDbLine
 10
27.5544
 20
-163.601
 30
0
 11
27.5544
 21
-165.101
 31
0
  0
ARC
  5
A89
330
A02
100
AcDbEntity
  8
Shape7608
100
AcDbCircle
 10
26.5544
 20
-165.101
 30
0
 40
1
100
AcDbArc
 50
-90
 51
0
  0
LINE
  5
A8A
330
A02
100
AcDbEntity
  8
Shape7609
100
AcDbLine
 10
26.5544
 20
-166.101
 30
0
 11
16.0544
 21
-166.101
 31
0
  0
ARC
  5
A8B
330
A02
100
AcDbEntity
  8
Shape7610
100
AcDbCircle
 10
16.0544
 20
-166.601
 30
0
 40
0.5
100
AcDbArc
 50
90
 51
180
  0
LINE
  5
A8C
330
A02
100
AcDbEntity
  8
Shape7611
100
AcDbLine
 10
15.5544
 20
-166.601
 30
0
 11
15.5544
 21
-166.851
 31
0
  0
ARC
  5
A8D
330
A02
100
AcDbEntity
  8
Shape7612
100
AcDbCircle
 10
16.0544
 20
-166.851
 30
0
 40
0.5
100
AcDbArc
 50
180
 51
-90
  0
LINE
  5
A8E
330
A02
100
AcDbEntity
  8
Shape7613
100
AcDbLine
 10
16.0544
 20
-167.351
 30
0
 11
85.0544
 21
-167.351
 31
0
  0
ARC
  5
A8F
330
A02
100
AcDbEntity
  8
Shape7614
100
AcDbCircle
 10
85.0544
 20
-166.851
 30
0
 40
0.5
100
AcDbArc
 50
-90
 51
0
  0
LINE
  5
A90
330
A02
100
AcDbEntity
  8
Shape7615
100
AcDbLine
 10
85.5544
 20
-166.851
 30
0
 11
85.5544
 21
-166.601
 31
0
  0
ARC
  5
A91
330
A02
100
AcDbEntity
  8
Shape7616
100
AcDbCircle
 10
85.0544
 20
-166.601
 30
0
 40
0.5
100
AcDbArc
 50
0
 51
90
  0
LINE
  5
A92
330
A02
100
AcDbEntity
  8
Shape7617
100
AcDbLine
 10
85.0544
 20
-166.101
 30
0
 11
74.5544
 21
-166.101
 31
0
  0
ARC
  5
A93
330
A02
100
AcDbEntity
  8
Shape7618
100
AcDbCircle
 10
74.5544
 20
-165.101
 30
0
 40
1
100
AcDbArc
 50
180
 51
-90
  0
LINE
  5
A94
330
A02
100
AcDbEntity
  8
Shape7619
100
AcDbLine
 10
73.5544
 20
-165.101
 30
0
 11
73.5544
 21
-163.601
 31
0
  0
ARC
  5
A95
330
A02
100
AcDbEntity
  8
Shape7620
100
AcDbCircle
 10
74.5544
 20
-163.601
 30
0
 40
1
100
AcDbArc
 50
90
 51
180
  0
LINE
  5
A96
330
A02
100
AcDbEntity
  8
Shape7621
100
AcDbLine
 10
74.5544
 20
-162.601
 30
0
 11
92.5544
 21
-162.601
 31
0
  0
LINE
  5
A97
330
A02
100
AcDbEntity
  8
Shape7622
100
AcDbLine
 10
92.5544
 20
-162.601
 30
0
 11
92.5544
 21
-167.851
 31
0
  0
ARC
  5
A98
330
A02
100
AcDbEntity
  8
Shape7623
100
AcDbCircle
 10
93.0544
 20
-167.851
 30
0
 40
0.5
100
AcDbArc
 50
180
 51
0
  0
LINE
  5
A99
330
A02
100
AcDbEntity
  8
Shape7624
100
AcDbLine
 10
93.5544
 20
-167.851
 30
0
 11
93.5544
 21
-163.851
 31
0
  0
ARC
  5
A9A
330
A02
100
AcDbEntity
  8
Shape7625
100
AcDbCircle
 10
95.5544
 20
-163.851
 30
0
 40
2
100
AcDbArc
 50
0
 51
180
  0
LINE
  5
A9B
330
A02
100
AcDbEntity
  8
Shape7626
100
AcDbLine
 10
97.5544
 20
-163.851
 30
0
 11
97.5544
 21
-167.851
 31
0
  0
ARC
  5
A9C
330
A02
100
AcDbEntity
  8
Shape7627
100
AcDbCircle
 10
98.0544
 20
-167.851
 30
0
 40
0.5
100
AcDbArc
 50
180
 51
0
  0
LINE
  5
A9D
330
A02
100
AcDbEntity
  8
Shape7628
100
AcDbLine
 10
98.5544
 20
-167.851
 30
0
 11
98.5544
 21
-162.601
 31
0
  0
LINE
  5
A9E
330
A02
100
AcDbEntity
  8
Shape7629
100
AcDbLine
 10
98.5544
 20
-162.601
 30
0
 11
116.554
 21
-162.601
 31
0
  0
ARC
  5
A9F
330
A02
100
AcDbEntity
  8
Shape7630
100
AcDbCircle
 10
116.554
 20
-163.601
 30
0
 40
1
100
AcDbArc
 50
0
 51
90
  0
LINE
  5
AA0
330
A02
100
AcDbEntity
  8
Shape7631
100
AcDbLine
 10
117.554
 20
-163.601
 30
0
 11
117.554
 21
-165.101
 31
0
  0
ARC
  5
AA1
330
A02
100
AcDbEntity
  8
Shape7632
100
AcDbCircle
 10
116.554
 20
-165.101
 30
0
 40
1
100
AcDbArc
 50
-90
 51
0
  0
LINE
  5
AA2
330
A02
100
AcDbEntity
  8
Shape7633
100
AcDbLine
 10
116.554
 20
-166.101
 30
0
 11
106.054
 21
-166.101
 31
0
  0
ARC
  5
AA3
330
A02
100
AcDbEntity
  8
Shape7634
100
AcDbCircle
 10
106.054
 20
-166.601
 30
0
 40
0.5
100
AcDbArc
 50
90
 51
180
  0
LINE
  5
AA4
330
A02
100
AcDbEntity
  8
Shape7635
100
AcDbLine
 10
105.554
 20
-166.601
 30
0
 11
105.554
 21
-166.851
 31
0
  0
ARC
  5
AA5
330
A02
100
AcDbEntity
  8
Shape7636
100
AcDbCircle
 10
106.054
 20
-166.851
 30
0
 40
0.5
100
AcDbArc
 50
180
 51
-90
  0
LINE
  5
AA6
330
A02
100
AcDbEntity
  8
Shape7637
100
AcDbLine
 10
106.054
 20
-167.351
 30
0
 11
127.379
 21
-167.351
 31
0
  0
ARC
  5
AA7
330
A02
100
AcDbEntity
  8
Shape7638
100
AcDbCircle
 10
127.379
 20
-169.351
 30
0
 40
2
100
AcDbArc
 50
0
 51
90
  0
LINE
  5
AA8
330
A02
100
AcDbEntity
  8
Shape7639
100
AcDbLine
 10
129.379
 20
-169.351
 30
0
 11
129.379
 21
-222.126
 31
0
  0
ARC
  5
AA9
330
A02
100
AcDbEntity
  8
Shape7640
100
AcDbCircle
 10
127.379
 20
-222.126
 30
0
 40
2
100
AcDbArc
 50
-90
 51
0
  0
LINE
  5
AAA
330
A02
100
AcDbEntity
  8
Shape7641
100
AcDbLine
 10
127.379
 20
-224.126
 30
0
 11
110.473
 21
-224.126
 31
0
  0
ARC
  5
AAB
330
A02
100
AcDbEntity
  8
Shape7642
100
AcDbCircle
 10
110.473
 20
-227.126
 30
0
 40
3
100
AcDbArc
 50
90
 51
180
  0
LINE
  5
AAC
330
A02
100
AcDbEntity
  8
Shape7643
100
AcDbLine
 10
107.473
 20
-227.126
 30
0
 11
107.473
 21
-243.251
 31
0
  0
ARC
  5
AAD
330
A02
100
AcDbEntity
  8
Shape7644
100
AcDbCircle
 10
106.973
 20
-243.251
 30
0
 40
0.5
100
AcDbArc
 50
-90
 51
0
  0
LINE
  5
AAE
330
A02
100
AcDbEntity
  8
Shape7645
100
AcDbLine
 10
-105.458
 20
-185.5
 30
0
 11
-105.458
 21
-187.5
 31
0
  0
LINE
  5
AAF
330
A02
100
AcDbEntity
  8
Shape7646
100
AcDbLine
 10
-105.458
 20
-187.5
 30
0
 11
-112.034
 21
-187.5
 31
0
  0
LINE
  5
AB0
330
A02
100
AcDbEntity
  8
Shape7647
100
AcDbLine
 10
-112.034
 20
-187.5
 30
0
 11
-112.034
 21
-185.5
 31
0
  0
LINE
  5
AB1
330
A02
100
AcDbEntity
  8
Shape7648
100
AcDbLine
 10
-112.034
 20
-185.5
 30
0
 11
-105.458
 21
-185.5
 31
0
  0
LINE
  5
AB2
330
A02
100
AcDbEntity
  8
Shape7649
100
AcDbLine
 10
46.1294
 20
-227.076
 30
0
 11
46.1294
 21
-241.176
 31
0
  0
LINE
  5
AB3
330
A02
100
AcDbEntity
  8
Shape7650
100
AcDbLine
 10
46.1294
 20
-241.176
 30
0
 11
60.2294
 21
-241.176
 31
0
  0
LINE
  5
AB4
330
A02
100
AcDbEntity
  8
Shape7651
100
AcDbLine
 10
60.2294
 20
-241.176
 30
0
 11
60.2294
 21
-227.076
 31
0
  0
LINE
  5
AB5
330
A02
100
AcDbEntity
  8
Shape7652
100
AcDbLine
 10
-49.1206
 20
-227.076
 30
0
 11
-49.1206
 21
-241.176
 31
0
  0
LINE
  5
AB6
330
A02
100
AcDbEntity
  8
Shape7653
100
AcDbLine
 10
-49.1206
 20
-241.176
 30
0
 11
-35.0206
 21
-241.176
 31
0
  0
LINE
  5
AB7
330
A02
100
AcDbEntity
  8
Shape7654
100
AcDbLine
 10
-35.0206
 20
-241.176
 30
0
 11
-35.0206
 21
-227.076
 31
0
  0
LINE
  5
AB8
330
A02
100
AcDbEntity
  8
Shape7655
100
AcDbLine
 10
91.3734
 20
-227.076
 30
0
 11
105.473
 21
-227.076
 31
0
  0
LINE
  5
AB9
330
A02
100
AcDbEntity
  8
Shape7656
100
AcDbLine
 10
105.473
 20
-227.076
 30
0
 11
105.473
 21
-241.176
 31
0
  0
LINE
  5
ABA
330
A02
100
AcDbEntity
  8
Shape7657
100
AcDbLine
 10
105.473
 20
-241.176
 30
0
 11
91.3734
 21
-241.176
 31
0
  0
LINE
  5
ABB
330
A02
100
AcDbEntity
  8
Shape7658
100
AcDbLine
 10
91.3734
 20
-241.176
 30
0
 11
91.3734
 21
-227.076
 31
0
  0
LINE
  5
ABC
330
A02
100
AcDbEntity
  8
Shape7659
100
AcDbLine
 10
69.9424
 20
-241.176
 30
0
 11
69.9424
 21
-227.076
 31
0
  0
LINE
  5
ABD
330
A02
100
AcDbEntity
  8
Shape7660
100
AcDbLine
 10
69.9424
 20
-227.076
 30
0
 11
84.0414
 21
-227.076
 31
0
  0
LINE
  5
ABE
330
A02
100
AcDbEntity
  8
Shape7661
100
AcDbLine
 10
84.0414
 20
-227.076
 30
0
 11
84.0414
 21
-241.176
 31
0
  0
LINE
  5
ABF
330
A02
100
AcDbEntity
  8
Shape7662
100
AcDbLine
 10
84.0414
 20
-241.176
 30
0
 11
69.9424
 21
-241.176
 31
0
  0
LINE
  5
AC0
330
A02
100
AcDbEntity
  8
Shape7663
100
AcDbLine
 10
-72.9331
 20
-241.176
 30
0
 11
-72.9331
 21
-227.076
 31
0
  0
LINE
  5
AC1
330
A02
100
AcDbEntity
  8
Shape7664
100
AcDbLine
 10
-72.9331
 20
-227.076
 30
0
 11
-58.8331
 21
-227.076
 31
0
  0
LINE
  5
AC2
330
A02
100
AcDbEntity
  8
Shape7665
100
AcDbLine
 10
-58.8331
 20
-227.076
 30
0
 11
-58.8331
 21
-241.176
 31
0
  0
LINE
  5
AC3
330
A02
100
AcDbEntity
  8
Shape7666
100
AcDbLine
 10
-58.8331
 20
-241.176
 30
0
 11
-72.9331
 21
-241.176
 31
0
  0
LINE
  5
AC4
330
A02
100
AcDbEntity
  8
Shape7667
100
AcDbLine
 10
-94.3643
 20
-227.076
 30
0
 11
-80.2644
 21
-227.076
 31
0
  0
LINE
  5
AC5
330
A02
100
AcDbEntity
  8
Shape7668
100
AcDbLine
 10
-80.2644
 20
-227.076
 30
0
 11
-80.2644
 21
-241.176
 31
0
  0
LINE
  5
AC6
330
A02
100
AcDbEntity
  8
Shape7669
100
AcDbLine
 10
-80.2644
 20
-241.176
 30
0
 11
-94.3643
 21
-241.176
 31
0
  0
LINE
  5
AC7
330
A02
100
AcDbEntity
  8
Shape7670
100
AcDbLine
 10
-94.3643
 20
-241.176
 30
0
 11
-94.3643
 21
-227.076
 31
0
  0
LINE
  5
AC8
330
A02
100
AcDbEntity
  8
Shape7671
100
AcDbLine
 10
-111.033
 20
-169.926
 30
0
 11
-96.9331
 21
-169.926
 31
0
  0
LINE
  5
AC9
330
A02
100
AcDbEntity
  8
Shape7672
100
AcDbLine
 10
-96.9331
 20
-169.926
 30
0
 11
-96.9331
 21
-184.026
 31
0
  0
LINE
  5
ACA
330
A02
100
AcDbEntity
  8
Shape7673
100
AcDbLine
 10
-96.9331
 20
-184.026
 30
0
 11
-111.033
 21
-184.026
 31
0
  0
LINE
  5
ACB
330
A02
100
AcDbEntity
  8
Shape7674
100
AcDbLine
 10
-111.033
 20
-184.026
 30
0
 11
-111.033
 21
-169.926
 31
0
  0
LINE
  5
ACC
330
A02
100
AcDbEntity
  8
Shape7675
100
AcDbLine
 10
-20.5456
 20
-227.076
 30
0
 11
-6.44557
 21
-227.076
 31
0
  0
LINE
  5
ACD
330
A02
100
AcDbEntity
  8
Shape7676
100
AcDbLine
 10
-6.44557
 20
-227.076
 30
0
 11
-6.44557
 21
-241.176
 31
0
  0
LINE
  5
ACE
330
A02
100
AcDbEntity
  8
Shape7677
100
AcDbLine
 10
-6.44557
 20
-241.176
 30
0
 11
-20.5456
 21
-241.176
 31
0
  0
LINE
  5
ACF
330
A02
100
AcDbEntity
  8
Shape7678
100
AcDbLine
 10
-20.5456
 20
-241.176
 30
0
 11
-20.5456
 21
-227.076
 31
0
  0
LINE
  5
AD0
330
A02
100
AcDbEntity
  8
Shape7679
100
AcDbLine
 10
15.2238
 20
-240.575
 30
0
 11
15.2238
 21
-236.376
 31
0
  0
ARC
  5
AD1
330
A02
100
AcDbEntity
  8
Shape7680
100
AcDbCircle
 10
15.7238
 20
-240.575
 30
0
 40
0.5
100
AcDbArc
 50
180
 51
-90
  0
LINE
  5
AD2
330
A02
100
AcDbEntity
  8
Shape7681
100
AcDbLine
 10
15.2238
 20
-236.376
 30
0
 11
13.6984
 21
-236.376
 31
0
  0
LINE
  5
AD3
330
A02
100
AcDbEntity
  8
Shape7682
100
AcDbLine
 10
13.6984
 20
-236.376
 30
0
 11
13.6984
 21
-239.605
 31
0
  0
LINE
  5
AD4
330
A02
100
AcDbEntity
  8
Shape7683
100
AcDbLine
 10
13.6984
 20
-239.605
 30
0
 11
6.94868
 21
-239.605
 31
0
  0
LINE
  5
AD5
330
A02
100
AcDbEntity
  8
Shape7684
100
AcDbLine
 10
6.94868
 20
-239.605
 30
0
 11
6.94868
 21
-236.376
 31
0
  0
LINE
  5
AD6
330
A02
100
AcDbEntity
  8
Shape7685
100
AcDbLine
 10
6.94868
 20
-236.376
 30
0
 11
6.12318
 21
-236.376
 31
0
  0
LINE
  5
AD7
330
A02
100
AcDbEntity
  8
Shape7686
100
AcDbLine
 10
6.12318
 20
-236.376
 30
0
 11
6.12318
 21
-233.576
 31
0
  0
LINE
  5
AD8
330
A02
100
AcDbEntity
  8
Shape7687
100
AcDbLine
 10
6.12318
 20
-233.576
 30
0
 11
6.94868
 21
-233.576
 31
0
  0
LINE
  5
AD9
330
A02
100
AcDbEntity
  8
Shape7688
100
AcDbLine
 10
6.94868
 20
-233.576
 30
0
 11
6.94868
 21
-227.306
 31
0
  0
LINE
  5
ADA
330
A02
100
AcDbEntity
  8
Shape7689
100
AcDbLine
 10
6.94868
 20
-227.306
 30
0
 11
8.67378
 21
-227.306
 31
0
  0
LINE
  5
ADB
330
A02
100
AcDbEntity
  8
Shape7690
100
AcDbLine
 10
8.67378
 20
-227.306
 30
0
 11
8.67378
 21
-226.105
 31
0
  0
LINE
  5
ADC
330
A02
100
AcDbEntity
  8
Shape7691
100
AcDbLine
 10
8.67378
 20
-226.105
 30
0
 11
11.9729
 21
-226.105
 31
0
  0
LINE
  5
ADD
330
A02
100
AcDbEntity
  8
Shape7692
100
AcDbLine
 10
11.9729
 20
-226.105
 30
0
 11
11.9729
 21
-227.306
 31
0
  0
LINE
  5
ADE
330
A02
100
AcDbEntity
  8
Shape7693
100
AcDbLine
 10
11.9729
 20
-227.306
 30
0
 11
13.6984
 21
-227.306
 31
0
  0
LINE
  5
ADF
330
A02
100
AcDbEntity
  8
Shape7694
100
AcDbLine
 10
13.6984
 20
-227.306
 30
0
 11
13.6984
 21
-231.775
 31
0
  0
LINE
  5
AE0
330
A02
100
AcDbEntity
  8
Shape7695
100
AcDbLine
 10
13.6984
 20
-231.775
 30
0
 11
15.2238
 21
-231.775
 31
0
  0
LINE
  5
AE1
330
A02
100
AcDbEntity
  8
Shape7696
100
AcDbLine
 10
15.2238
 20
-231.775
 30
0
 11
15.2238
 21
-227.576
 31
0
  0
LINE
  5
AE2
330
A02
100
AcDbEntity
  8
Shape7697
100
AcDbLine
 10
15.7238
 20
-227.076
 30
0
 11
28.7231
 21
-227.076
 31
0
  0
ARC
  5
AE3
330
A02
100
AcDbEntity
  8
Shape7698
100
AcDbCircle
 10
15.7238
 20
-227.576
 30
0
 40
0.5
100
AcDbArc
 50
90
 51
180
  0
LINE
  5
AE4
330
A02
100
AcDbEntity
  8
Shape7699
100
AcDbLine
 10
29.2231
 20
-227.576
 30
0
 11
29.2231
 21
-231.775
 31
0
  0
ARC
  5
AE5
330
A02
100
AcDbEntity
  8
Shape7700
100
AcDbCircle
 10
28.7231
 20
-227.576
 30
0
 40
0.5
100
AcDbArc
 50
0
 51
90
  0
LINE
  5
AE6
330
A02
100
AcDbEntity
  8
Shape7701
100
AcDbLine
 10
29.2231
 20
-231.775
 30
0
 11
30.7488
 21
-231.775
 31
0
  0
LINE
  5
AE7
330
A02
100
AcDbEntity
  8
Shape7702
100
AcDbLine
 10
30.7488
 20
-231.775
 30
0
 11
30.7488
 21
-227.306
 31
0
  0
LINE
  5
AE8
330
A02
100
AcDbEntity
  8
Shape7703
100
AcDbLine
 10
30.7488
 20
-227.306
 30
0
 11
32.4725
 21
-227.306
 31
0
  0
LINE
  5
AE9
330
A02
100
AcDbEntity
  8
Shape7704
100
AcDbLine
 10
32.4725
 20
-227.306
 30
0
 11
32.4725
 21
-226.105
 31
0
  0
LINE
  5
AEA
330
A02
100
AcDbEntity
  8
Shape7705
100
AcDbLine
 10
32.4725
 20
-226.105
 30
0
 11
35.7731
 21
-226.105
 31
0
  0
LINE
  5
AEB
330
A02
100
AcDbEntity
  8
Shape7706
100
AcDbLine
 10
35.7731
 20
-226.105
 30
0
 11
35.7731
 21
-227.306
 31
0
  0
LINE
  5
AEC
330
A02
100
AcDbEntity
  8
Shape7707
100
AcDbLine
 10
35.7731
 20
-227.306
 30
0
 11
37.4982
 21
-227.306
 31
0
  0
LINE
  5
AED
330
A02
100
AcDbEntity
  8
Shape7708
100
AcDbLine
 10
37.4982
 20
-227.306
 30
0
 11
37.4982
 21
-233.576
 31
0
  0
LINE
  5
AEE
330
A02
100
AcDbEntity
  8
Shape7709
100
AcDbLine
 10
37.4982
 20
-233.576
 30
0
 11
38.3237
 21
-233.576
 31
0
  0
LINE
  5
AEF
330
A02
100
AcDbEntity
  8
Shape7710
100
AcDbLine
 10
38.3237
 20
-233.576
 30
0
 11
38.3237
 21
-236.376
 31
0
  0
LINE
  5
AF0
330
A02
100
AcDbEntity
  8
Shape7711
100
AcDbLine
 10
38.3237
 20
-236.376
 30
0
 11
37.4982
 21
-236.376
 31
0
  0
LINE
  5
AF1
330
A02
100
AcDbEntity
  8
Shape7712
100
AcDbLine
 10
37.4982
 20
-236.376
 30
0
 11
37.4982
 21
-239.605
 31
0
  0
LINE
  5
AF2
330
A02
100
AcDbEntity
  8
Shape7713
100
AcDbLine
 10
37.4982
 20
-239.605
 30
0
 11
30.7488
 21
-239.605
 31
0
  0
LINE
  5
AF3
330
A02
100
AcDbEntity
  8
Shape7714
100
AcDbLine
 10
30.7488
 20
-239.605
 30
0
 11
30.7488
 21
-236.376
 31
0
  0
LINE
  5
AF4
330
A02
100
AcDbEntity
  8
Shape7715
100
AcDbLine
 10
30.7488
 20
-236.376
 30
0
 11
29.2231
 21
-236.376
 31
0
  0
LINE
  5
AF5
330
A02
100
AcDbEntity
  8
Shape7716
100
AcDbLine
 10
29.2231
 20
-236.376
 30
0
 11
29.2231
 21
-240.575
 31
0
  0
ARC
  5
AF6
330
A02
100
AcDbEntity
  8
Shape7717
100
AcDbCircle
 10
28.7231
 20
-240.575
 30
0
 40
0.5
100
AcDbArc
 50
-90
 51
0
  0
LINE
  5
AF7
330
A02
100
AcDbEntity
  8
Shape7718
100
AcDbLine
 10
28.7231
 20
-241.075
 30
0
 11
15.7238
 21
-241.075
 31
0
  0
LINE
  5
AF8
330
A02
100
AcDbEntity
  8
Shape7719
100
AcDbLine
 10
-49.1206
 20
-227.076
 30
0
 11
-35.0206
 21
-227.076
 31
0
  0
LINE
  5
AF9
330
A02
100
AcDbEntity
  8
Shape7720
100
AcDbLine
 10
46.1294
 20
-227.076
 30
0
 11
60.2294
 21
-227.076
 31
0
  0
LINE
  5
AFA
330
A02
100
AcDbEntity
  8
Shape7937
100
AcDbLine
 10
-113.414
 20
-197.344
 30
0
 11
-113.414
 21
-188.976
 31
0
  0
LINE
  5
AFB
330
A02
100
AcDbEntity
  8
Shape7938
100
AcDbLine
 10
-113.414
 20
-188.976
 30
0
 11
-94.5518
 21
-188.976
 31
0
  0
LINE
  5
AFC
330
A02
100
AcDbEntity
  8
Shape7939
100
AcDbLine
 10
-94.5518
 20
-188.976
 30
0
 11
-94.5518
 21
-203.076
 31
0
  0
LINE
  5
AFD
330
A02
100
AcDbEntity
  8
Shape7940
100
AcDbLine
 10
-94.5518
 20
-203.076
 30
0
 11
-113.414
 21
-203.076
 31
0
  0
LINE
  5
AFE
330
A02
100
AcDbEntity
  8
Shape7941
100
AcDbLine
 10
-113.414
 20
-203.076
 30
0
 11
-113.414
 21
-199.244
 31
0
  0
LINE
  5
AFF
330
A02
100
AcDbEntity
  8
Shape7942
100
AcDbLine
 10
-113.414
 20
-199.244
 30
0
 11
-115.453
 21
-199.244
 31
0
  0
LINE
  5
B00
330
A02
100
AcDbEntity
  8
Shape7943
100
AcDbLine
 10
-115.453
 20
-199.244
 30
0
 11
-115.453
 21
-197.344
 31
0
  0
LINE
  5
B01
330
A02
100
AcDbEntity
  8
Shape7944
100
AcDbLine
 10
-115.453
 20
-197.344
 30
0
 11
-113.414
 21
-197.344
 31
0
  0
LINE
  5
B02
330
A02
100
AcDbEntity
  8
Shape7945
100
AcDbLine
 10
103.091
 20
-188.976
 30
0
 11
103.091
 21
-203.076
 31
0
  0
LINE
  5
B03
330
A02
100
AcDbEntity
  8
Shape7946
100
AcDbLine
 10
103.091
 20
-203.076
 30
0
 11
88.9914
 21
-203.076
 31
0
  0
LINE
  5
B04
330
A02
100
AcDbEntity
  8
Shape7947
100
AcDbLine
 10
88.9914
 20
-203.076
 30
0
 11
88.9914
 21
-188.976
 31
0
  0
LINE
  5
B05
330
A02
100
AcDbEntity
  8
Shape7948
100
AcDbLine
 10
88.9914
 20
-188.976
 30
0
 11
103.091
 21
-188.976
 31
0
  0
LINE
  5
B06
330
A02
100
AcDbEntity
  8
Shape7949
100
AcDbLine
 10
69.9424
 20
-188.976
 30
0
 11
84.0414
 21
-188.976
 31
0
  0
LINE
  5
B07
330
A02
100
AcDbEntity
  8
Shape7950
100
AcDbLine
 10
84.0414
 20
-188.976
 30
0
 11
84.0414
 21
-203.076
 31
0
  0
LINE
  5
B08
330
A02
100
AcDbEntity
  8
Shape7951
100
AcDbLine
 10
84.0414
 20
-203.076
 30
0
 11
69.9424
 21
-203.076
 31
0
  0
LINE
  5
B09
330
A02
100
AcDbEntity
  8
Shape7952
100
AcDbLine
 10
69.9424
 20
-203.076
 30
0
 11
69.9424
 21
-188.976
 31
0
  0
LINE
  5
B0A
330
A02
100
AcDbEntity
  8
Shape7953
100
AcDbLine
 10
50.8914
 20
-203.076
 30
0
 11
50.8914
 21
-188.976
 31
0
  0
LINE
  5
B0B
330
A02
100
AcDbEntity
  8
Shape7954
100
AcDbLine
 10
50.8914
 20
-188.976
 30
0
 11
64.9914
 21
-188.976
 31
0
  0
LINE
  5
B0C
330
A02
100
AcDbEntity
  8
Shape7955
100
AcDbLine
 10
64.9914
 20
-188.976
 30
0
 11
64.9914
 21
-203.076
 31
0
  0
LINE
  5
B0D
330
A02
100
AcDbEntity
  8
Shape7956
100
AcDbLine
 10
64.9914
 20
-203.076
 30
0
 11
50.8914
 21
-203.076
 31
0
  0
LINE
  5
B0E
330
A02
100
AcDbEntity
  8
Shape7957
100
AcDbLine
 10
31.8424
 20
-188.976
 30
0
 11
45.9424
 21
-188.976
 31
0
  0
LINE
  5
B0F
330
A02
100
AcDbEntity
  8
Shape7958
100
AcDbLine
 10
45.9424
 20
-188.976
 30
0
 11
45.9424
 21
-203.076
 31
0
  0
LINE
  5
B10
330
A02
100
AcDbEntity
  8
Shape7959
100
AcDbLine
 10
45.9424
 20
-203.076
 30
0
 11
31.8424
 21
-203.076
 31
0
  0
LINE
  5
B11
330
A02
100
AcDbEntity
  8
Shape7960
100
AcDbLine
 10
31.8424
 20
-203.076
 30
0
 11
31.8424
 21
-188.976
 31
0
  0
LINE
  5
B12
330
A02
100
AcDbEntity
  8
Shape7961
100
AcDbLine
 10
12.7914
 20
-203.076
 30
0
 11
12.7914
 21
-188.976
 31
0
  0
LINE
  5
B13
330
A02
100
AcDbEntity
  8
Shape7962
100
AcDbLine
 10
12.7914
 20
-188.976
 30
0
 11
26.8914
 21
-188.976
 31
0
  0
LINE
  5
B14
330
A02
100
AcDbEntity
  8
Shape7963
100
AcDbLine
 10
26.8914
 20
-188.976
 30
0
 11
26.8914
 21
-203.076
 31
0
  0
LINE
  5
B15
330
A02
100
AcDbEntity
  8
Shape7964
100
AcDbLine
 10
26.8914
 20
-203.076
 30
0
 11
12.7914
 21
-203.076
 31
0
  0
LINE
  5
B16
330
A02
100
AcDbEntity
  8
Shape7965
100
AcDbLine
 10
-6.25857
 20
-203.076
 30
0
 11
-6.25857
 21
-188.976
 31
0
  0
LINE
  5
B17
330
A02
100
AcDbEntity
  8
Shape7966
100
AcDbLine
 10
-6.25857
 20
-188.976
 30
0
 11
7.84243
 21
-188.976
 31
0
  0
LINE
  5
B18
330
A02
100
AcDbEntity
  8
Shape7967
100
AcDbLine
 10
7.84243
 20
-188.976
 30
0
 11
7.84243
 21
-203.076
 31
0
  0
LINE
  5
B19
330
A02
100
AcDbEntity
  8
Shape7968
100
AcDbLine
 10
7.84243
 20
-203.076
 30
0
 11
-6.25857
 21
-203.076
 31
0
  0
LINE
  5
B1A
330
A02
100
AcDbEntity
  8
Shape7969
100
AcDbLine
 10
-25.3086
 20
-188.976
 30
0
 11
-11.2086
 21
-188.976
 31
0
  0
LINE
  5
B1B
330
A02
100
AcDbEntity
  8
Shape7970
100
AcDbLine
 10
-11.2086
 20
-188.976
 30
0
 11
-11.2086
 21
-203.076
 31
0
  0
LINE
  5
B1C
330
A02
100
AcDbEntity
  8
Shape7971
100
AcDbLine
 10
-11.2086
 20
-203.076
 30
0
 11
-25.3086
 21
-203.076
 31
0
  0
LINE
  5
B1D
330
A02
100
AcDbEntity
  8
Shape7972
100
AcDbLine
 10
-25.3086
 20
-203.076
 30
0
 11
-25.3086
 21
-188.976
 31
0
  0
LINE
  5
B1E
330
A02
100
AcDbEntity
  8
Shape7973
100
AcDbLine
 10
-44.3581
 20
-203.076
 30
0
 11
-44.3581
 21
-188.976
 31
0
  0
LINE
  5
B1F
330
A02
100
AcDbEntity
  8
Shape7974
100
AcDbLine
 10
-44.3581
 20
-188.976
 30
0
 11
-30.2586
 21
-188.976
 31
0
  0
LINE
  5
B20
330
A02
100
AcDbEntity
  8
Shape7975
100
AcDbLine
 10
-30.2586
 20
-188.976
 30
0
 11
-30.2586
 21
-203.076
 31
0
  0
LINE
  5
B21
330
A02
100
AcDbEntity
  8
Shape7976
100
AcDbLine
 10
-30.2586
 20
-203.076
 30
0
 11
-44.3581
 21
-203.076
 31
0
  0
LINE
  5
B22
330
A02
100
AcDbEntity
  8
Shape7977
100
AcDbLine
 10
-63.4081
 20
-203.076
 30
0
 11
-63.4081
 21
-188.976
 31
0
  0
LINE
  5
B23
330
A02
100
AcDbEntity
  8
Shape7978
100
AcDbLine
 10
-63.4081
 20
-188.976
 30
0
 11
-49.3081
 21
-188.976
 31
0
  0
LINE
  5
B24
330
A02
100
AcDbEntity
  8
Shape7979
100
AcDbLine
 10
-49.3081
 20
-188.976
 30
0
 11
-49.3081
 21
-203.076
 31
0
  0
LINE
  5
B25
330
A02
100
AcDbEntity
  8
Shape7980
100
AcDbLine
 10
-49.3081
 20
-203.076
 30
0
 11
-63.4081
 21
-203.076
 31
0
  0
LINE
  5
B26
330
A02
100
AcDbEntity
  8
Shape7981
100
AcDbLine
 10
-82.4581
 20
-203.076
 30
0
 11
-82.4581
 21
-188.976
 31
0
  0
LINE
  5
B27
330
A02
100
AcDbEntity
  8
Shape7982
100
AcDbLine
 10
-82.4581
 20
-188.976
 30
0
 11
-68.3581
 21
-188.976
 31
0
  0
LINE
  5
B28
330
A02
100
AcDbEntity
  8
Shape7983
100
AcDbLine
 10
-68.3581
 20
-188.976
 30
0
 11
-68.3581
 21
-203.076
 31
0
  0
LINE
  5
B29
330
A02
100
AcDbEntity
  8
Shape7984
100
AcDbLine
 10
-68.3581
 20
-203.076
 30
0
 11
-82.4581
 21
-203.076
 31
0
  0
LINE
  5
B2A
330
A02
100
AcDbEntity
  8
Shape7985
100
AcDbLine
 10
-87.2206
 20
-169.926
 30
0
 11
-73.1206
 21
-169.926
 31
0
  0
LINE
  5
B2B
330
A02
100
AcDbEntity
  8
Shape7986
100
AcDbLine
 10
-73.1206
 20
-169.926
 30
0
 11
-73.1206
 21
-184.026
 31
0
  0
LINE
  5
B2C
330
A02
100
AcDbEntity
  8
Shape7987
100
AcDbLine
 10
-73.1206
 20
-184.026
 30
0
 11
-87.2206
 21
-184.026
 31
0
  0
LINE
  5
B2D
330
A02
100
AcDbEntity
  8
Shape7988
100
AcDbLine
 10
-87.2206
 20
-184.026
 30
0
 11
-87.2206
 21
-169.926
 31
0
  0
LINE
  5
B2E
330
A02
100
AcDbEntity
  8
Shape7989
100
AcDbLine
 10
-68.1706
 20
-169.926
 30
0
 11
-54.0706
 21
-169.926
 31
0
  0
LINE
  5
B2F
330
A02
100
AcDbEntity
  8
Shape7990
100
AcDbLine
 10
-54.0706
 20
-169.926
 30
0
 11
-54.0706
 21
-184.026
 31
0
  0
LINE
  5
B30
330
A02
100
AcDbEntity
  8
Shape7991
100
AcDbLine
 10
-54.0706
 20
-184.026
 30
0
 11
-68.1706
 21
-184.026
 31
0
  0
LINE
  5
B31
330
A02
100
AcDbEntity
  8
Shape7992
100
AcDbLine
 10
-68.1706
 20
-184.026
 30
0
 11
-68.1706
 21
-169.926
 31
0
  0
LINE
  5
B32
330
A02
100
AcDbEntity
  8
Shape7993
100
AcDbLine
 10
-30.0706
 20
-169.926
 30
0
 11
-15.9706
 21
-169.926
 31
0
  0
LINE
  5
B33
330
A02
100
AcDbEntity
  8
Shape7994
100
AcDbLine
 10
-15.9706
 20
-169.926
 30
0
 11
-15.9706
 21
-184.026
 31
0
  0
LINE
  5
B34
330
A02
100
AcDbEntity
  8
Shape7995
100
AcDbLine
 10
-15.9706
 20
-184.026
 30
0
 11
-30.0706
 21
-184.026
 31
0
  0
LINE
  5
B35
330
A02
100
AcDbEntity
  8
Shape7996
100
AcDbLine
 10
-30.0706
 20
-184.026
 30
0
 11
-30.0706
 21
-169.926
 31
0
  0
LINE
  5
B36
330
A02
100
AcDbEntity
  8
Shape7997
100
AcDbLine
 10
-11.0206
 20
-169.926
 30
0
 11
3.07943
 21
-169.926
 31
0
  0
LINE
  5
B37
330
A02
100
AcDbEntity
  8
Shape7998
100
AcDbLine
 10
3.07943
 20
-169.926
 30
0
 11
3.07943
 21
-184.026
 31
0
  0
LINE
  5
B38
330
A02
100
AcDbEntity
  8
Shape7999
100
AcDbLine
 10
3.07943
 20
-184.026
 30
0
 11
-11.0206
 21
-184.026
 31
0
  0
LINE
  5
B39
330
A02
100
AcDbEntity
  8
Shape8000
100
AcDbLine
 10
-11.0206
 20
-184.026
 30
0
 11
-11.0206
 21
-169.926
 31
0
  0
LINE
  5
B3A
330
A02
100
AcDbEntity
  8
Shape8001
100
AcDbLine
 10
8.02943
 20
-169.926
 30
0
 11
22.1294
 21
-169.926
 31
0
  0
LINE
  5
B3B
330
A02
100
AcDbEntity
  8
Shape8002
100
AcDbLine
 10
22.1294
 20
-169.926
 30
0
 11
22.1294
 21
-184.026
 31
0
  0
LINE
  5
B3C
330
A02
100
AcDbEntity
  8
Shape8003
100
AcDbLine
 10
22.1294
 20
-184.026
 30
0
 11
8.02943
 21
-184.026
 31
0
  0
LINE
  5
B3D
330
A02
100
AcDbEntity
  8
Shape8004
100
AcDbLine
 10
8.02943
 20
-184.026
 30
0
 11
8.02943
 21
-169.926
 31
0
  0
LINE
  5
B3E
330
A02
100
AcDbEntity
  8
Shape8005
100
AcDbLine
 10
27.0794
 20
-169.926
 30
0
 11
41.1794
 21
-169.926
 31
0
  0
LINE
  5
B3F
330
A02
100
AcDbEntity
  8
Shape8006
100
AcDbLine
 10
41.1794
 20
-169.926
 30
0
 11
41.1794
 21
-184.026
 31
0
  0
LINE
  5
B40
330
A02
100
AcDbEntity
  8
Shape8007
100
AcDbLine
 10
41.1794
 20
-184.026
 30
0
 11
27.0794
 21
-184.026
 31
0
  0
LINE
  5
B41
330
A02
100
AcDbEntity
  8
Shape8008
100
AcDbLine
 10
27.0794
 20
-184.026
 30
0
 11
27.0794
 21
-169.926
 31
0
  0
LINE
  5
B42
330
A02
100
AcDbEntity
  8
Shape8009
100
AcDbLine
 10
46.1294
 20
-169.926
 30
0
 11
60.2294
 21
-169.926
 31
0
  0
LINE
  5
B43
330
A02
100
AcDbEntity
  8
Shape8010
100
AcDbLine
 10
60.2294
 20
-169.926
 30
0
 11
60.2294
 21
-184.026
 31
0
  0
LINE
  5
B44
330
A02
100
AcDbEntity
  8
Shape8011
100
AcDbLine
 10
60.2294
 20
-184.026
 30
0
 11
46.1294
 21
-184.026
 31
0
  0
LINE
  5
B45
330
A02
100
AcDbEntity
  8
Shape8012
100
AcDbLine
 10
46.1294
 20
-184.026
 30
0
 11
46.1294
 21
-169.926
 31
0
  0
LINE
  5
B46
330
A02
100
AcDbEntity
  8
Shape8013
100
AcDbLine
 10
65.1794
 20
-169.926
 30
0
 11
79.2794
 21
-169.926
 31
0
  0
LINE
  5
B47
330
A02
100
AcDbEntity
  8
Shape8014
100
AcDbLine
 10
79.2794
 20
-169.926
 30
0
 11
79.2794
 21
-184.026
 31
0
  0
LINE
  5
B48
330
A02
100
AcDbEntity
  8
Shape8015
100
AcDbLine
 10
79.2794
 20
-184.026
 30
0
 11
65.1794
 21
-184.026
 31
0
  0
LINE
  5
B49
330
A02
100
AcDbEntity
  8
Shape8016
100
AcDbLine
 10
65.1794
 20
-184.026
 30
0
 11
65.1794
 21
-169.926
 31
0
  0
LINE
  5
B4A
330
A02
100
AcDbEntity
  8
Shape8017
100
AcDbLine
 10
84.2294
 20
-169.926
 30
0
 11
98.3294
 21
-169.926
 31
0
  0
LINE
  5
B4B
330
A02
100
AcDbEntity
  8
Shape8018
100
AcDbLine
 10
98.3294
 20
-169.926
 30
0
 11
98.3294
 21
-184.026
 31
0
  0
LINE
  5
B4C
330
A02
100
AcDbEntity
  8
Shape8019
100
AcDbLine
 10
98.3294
 20
-184.026
 30
0
 11
84.2294
 21
-184.026
 31
0
  0
LINE
  5
B4D
330
A02
100
AcDbEntity
  8
Shape8020
100
AcDbLine
 10
84.2294
 20
-184.026
 30
0
 11
84.2294
 21
-169.926
 31
0
  0
LINE
  5
B4E
330
A02
100
AcDbEntity
  8
Shape8021
100
AcDbLine
 10
-72.9331
 20
-208.026
 30
0
 11
-58.8331
 21
-208.026
 31
0
  0
LINE
  5
B4F
330
A02
100
AcDbEntity
  8
Shape8022
100
AcDbLine
 10
-58.8331
 20
-208.026
 30
0
 11
-58.8331
 21
-222.126
 31
0
  0
LINE
  5
B50
330
A02
100
AcDbEntity
  8
Shape8023
100
AcDbLine
 10
-58.8331
 20
-222.126
 30
0
 11
-72.9331
 21
-222.126
 31
0
  0
LINE
  5
B51
330
A02
100
AcDbEntity
  8
Shape8024
100
AcDbLine
 10
-72.9331
 20
-222.126
 30
0
 11
-72.9331
 21
-208.026
 31
0
  0
LINE
  5
B52
330
A02
100
AcDbEntity
  8
Shape8025
100
AcDbLine
 10
-53.8831
 20
-208.026
 30
0
 11
-39.7831
 21
-208.026
 31
0
  0
LINE
  5
B53
330
A02
100
AcDbEntity
  8
Shape8026
100
AcDbLine
 10
-39.7831
 20
-208.026
 30
0
 11
-39.7831
 21
-222.126
 31
0
  0
LINE
  5
B54
330
A02
100
AcDbEntity
  8
Shape8027
100
AcDbLine
 10
-39.7831
 20
-222.126
 30
0
 11
-53.8831
 21
-222.126
 31
0
  0
LINE
  5
B55
330
A02
100
AcDbEntity
  8
Shape8028
100
AcDbLine
 10
-53.8831
 20
-222.126
 30
0
 11
-53.8831
 21
-208.026
 31
0
  0
LINE
  5
B56
330
A02
100
AcDbEntity
  8
Shape8029
100
AcDbLine
 10
-34.8336
 20
-208.026
 30
0
 11
-20.7336
 21
-208.026
 31
0
  0
LINE
  5
B57
330
A02
100
AcDbEntity
  8
Shape8030
100
AcDbLine
 10
-20.7336
 20
-208.026
 30
0
 11
-20.7336
 21
-222.126
 31
0
  0
LINE
  5
B58
330
A02
100
AcDbEntity
  8
Shape8031
100
AcDbLine
 10
-20.7336
 20
-222.126
 30
0
 11
-34.8336
 21
-222.126
 31
0
  0
LINE
  5
B59
330
A02
100
AcDbEntity
  8
Shape8032
100
AcDbLine
 10
-34.8336
 20
-222.126
 30
0
 11
-34.8336
 21
-208.026
 31
0
  0
LINE
  5
B5A
330
A02
100
AcDbEntity
  8
Shape8033
100
AcDbLine
 10
-15.7836
 20
-208.026
 30
0
 11
-1.68357
 21
-208.026
 31
0
  0
LINE
  5
B5B
330
A02
100
AcDbEntity
  8
Shape8034
100
AcDbLine
 10
-1.68357
 20
-208.026
 30
0
 11
-1.68357
 21
-222.126
 31
0
  0
LINE
  5
B5C
330
A02
100
AcDbEntity
  8
Shape8035
100
AcDbLine
 10
-1.68357
 20
-222.126
 30
0
 11
-15.7836
 21
-222.126
 31
0
  0
LINE
  5
B5D
330
A02
100
AcDbEntity
  8
Shape8036
100
AcDbLine
 10
-15.7836
 20
-222.126
 30
0
 11
-15.7836
 21
-208.026
 31
0
  0
LINE
  5
B5E
330
A02
100
AcDbEntity
  8
Shape8037
100
AcDbLine
 10
3.26643
 20
-208.026
 30
0
 11
17.3664
 21
-208.026
 31
0
  0
LINE
  5
B5F
330
A02
100
AcDbEntity
  8
Shape8038
100
AcDbLine
 10
17.3664
 20
-208.026
 30
0
 11
17.3664
 21
-222.126
 31
0
  0
LINE
  5
B60
330
A02
100
AcDbEntity
  8
Shape8039
100
AcDbLine
 10
17.3664
 20
-222.126
 30
0
 11
3.26643
 21
-222.126
 31
0
  0
LINE
  5
B61
330
A02
100
AcDbEntity
  8
Shape8040
100
AcDbLine
 10
3.26643
 20
-222.126
 30
0
 11
3.26643
 21
-208.026
 31
0
  0
LINE
  5
B62
330
A02
100
AcDbEntity
  8
Shape8041
100
AcDbLine
 10
22.3164
 20
-208.026
 30
0
 11
36.4164
 21
-208.026
 31
0
  0
LINE
  5
B63
330
A02
100
AcDbEntity
  8
Shape8042
100
AcDbLine
 10
36.4164
 20
-208.026
 30
0
 11
36.4164
 21
-222.126
 31
0
  0
LINE
  5
B64
330
A02
100
AcDbEntity
  8
Shape8043
100
AcDbLine
 10
36.4164
 20
-222.126
 30
0
 11
22.3164
 21
-222.126
 31
0
  0
LINE
  5
B65
330
A02
100
AcDbEntity
  8
Shape8044
100
AcDbLine
 10
22.3164
 20
-222.126
 30
0
 11
22.3164
 21
-208.026
 31
0
  0
LINE
  5
B66
330
A02
100
AcDbEntity
  8
Shape8045
100
AcDbLine
 10
41.3664
 20
-208.026
 30
0
 11
55.4664
 21
-208.026
 31
0
  0
LINE
  5
B67
330
A02
100
AcDbEntity
  8
Shape8046
100
AcDbLine
 10
55.4664
 20
-208.026
 30
0
 11
55.4664
 21
-222.126
 31
0
  0
LINE
  5
B68
330
A02
100
AcDbEntity
  8
Shape8047
100
AcDbLine
 10
55.4664
 20
-222.126
 30
0
 11
41.3664
 21
-222.126
 31
0
  0
LINE
  5
B69
330
A02
100
AcDbEntity
  8
Shape8048
100
AcDbLine
 10
41.3664
 20
-222.126
 30
0
 11
41.3664
 21
-208.026
 31
0
  0
LINE
  5
B6A
330
A02
100
AcDbEntity
  8
Shape8049
100
AcDbLine
 10
60.4164
 20
-208.026
 30
0
 11
74.5164
 21
-208.026
 31
0
  0
LINE
  5
B6B
330
A02
100
AcDbEntity
  8
Shape8050
100
AcDbLine
 10
74.5164
 20
-208.026
 30
0
 11
74.5164
 21
-222.126
 31
0
  0
LINE
  5
B6C
330
A02
100
AcDbEntity
  8
Shape8051
100
AcDbLine
 10
74.5164
 20
-222.126
 30
0
 11
60.4164
 21
-222.126
 31
0
  0
LINE
  5
B6D
330
A02
100
AcDbEntity
  8
Shape8052
100
AcDbLine
 10
60.4164
 20
-222.126
 30
0
 11
60.4164
 21
-208.026
 31
0
  0
LINE
  5
B6E
330
A02
100
AcDbEntity
  8
Shape8053
100
AcDbLine
 10
79.4664
 20
-208.026
 30
0
 11
93.5664
 21
-208.026
 31
0
  0
LINE
  5
B6F
330
A02
100
AcDbEntity
  8
Shape8054
100
AcDbLine
 10
93.5664
 20
-208.026
 30
0
 11
93.5664
 21
-222.126
 31
0
  0
LINE
  5
B70
330
A02
100
AcDbEntity
  8
Shape8055
100
AcDbLine
 10
93.5664
 20
-222.126
 30
0
 11
79.4664
 21
-222.126
 31
0
  0
LINE
  5
B71
330
A02
100
AcDbEntity
  8
Shape8056
100
AcDbLine
 10
79.4664
 20
-222.126
 30
0
 11
79.4664
 21
-208.026
 31
0
  0
LINE
  5
B72
330
A02
100
AcDbEntity
  8
Shape8057
100
AcDbLine
 10
105.66
 20
-208.026
 30
0
 11
119.76
 21
-208.026
 31
0
  0
LINE
  5
B73
330
A02
100
AcDbEntity
  8
Shape8058
100
AcDbLine
 10
119.76
 20
-208.026
 30
0
 11
119.76
 21
-222.126
 31
0
  0
LINE
  5
B74
330
A02
100
AcDbEntity
  8
Shape8059
100
AcDbLine
 10
119.76
 20
-222.126
 30
0
 11
105.66
 21
-222.126
 31
0
  0
LINE
  5
B75
330
A02
100
AcDbEntity
  8
Shape8060
100
AcDbLine
 10
105.66
 20
-222.126
 30
0
 11
105.66
 21
-208.026
 31
0
  0
LINE
  5
B76
330
A02
100
AcDbEntity
  8
Shape8061
100
AcDbLine
 10
-49.1206
 20
-169.926
 30
0
 11
-35.0206
 21
-169.926
 31
0
  0
LINE
  5
B77
330
A02
100
AcDbEntity
  8
Shape8062
100
AcDbLine
 10
-35.0206
 20
-169.926
 30
0
 11
-35.0206
 21
-184.026
 31
0
  0
LINE
  5
B78
330
A02
100
AcDbEntity
  8
Shape8063
100
AcDbLine
 10
-35.0206
 20
-184.026
 30
0
 11
-49.1206
 21
-184.026
 31
0
  0
LINE
  5
B79
330
A02
100
AcDbEntity
  8
Shape8064
100
AcDbLine
 10
-49.1206
 20
-184.026
 30
0
 11
-49.1206
 21
-169.926
 31
0
  0
LINE
  5
B7A
330
A02
100
AcDbEntity
  8
Shape8065
100
AcDbLine
 10
123.923
 20
-193.5
 30
0
 11
119.724
 21
-193.5
 31
0
  0
ARC
  5
B7B
330
A02
100
AcDbEntity
  8
Shape8066
100
AcDbCircle
 10
123.923
 20
-193
 30
0
 40
0.5
100
AcDbArc
 50
-90
 51
0
  0
LINE
  5
B7C
330
A02
100
AcDbEntity
  8
Shape8067
100
AcDbLine
 10
119.724
 20
-193.5
 30
0
 11
119.724
 21
-195.026
 31
0
  0
LINE
  5
B7D
330
A02
100
AcDbEntity
  8
Shape8068
100
AcDbLine
 10
119.724
 20
-195.026
 30
0
 11
122.953
 21
-195.026
 31
0
  0
LINE
  5
B7E
330
A02
100
AcDbEntity
  8
Shape8069
100
AcDbLine
 10
122.953
 20
-195.026
 30
0
 11
122.953
 21
-201.775
 31
0
  0
LINE
  5
B7F
330
A02
100
AcDbEntity
  8
Shape8070
100
AcDbLine
 10
122.953
 20
-201.775
 30
0
 11
119.724
 21
-201.775
 31
0
  0
LINE
  5
B80
330
A02
100
AcDbEntity
  8
Shape8071
100
AcDbLine
 10
119.724
 20
-201.775
 30
0
 11
119.724
 21
-202.601
 31
0
  0
LINE
  5
B81
330
A02
100
AcDbEntity
  8
Shape8072
100
AcDbLine
 10
119.724
 20
-202.601
 30
0
 11
116.924
 21
-202.601
 31
0
  0
LINE
  5
B82
330
A02
100
AcDbEntity
  8
Shape8073
100
AcDbLine
 10
116.924
 20
-202.601
 30
0
 11
116.924
 21
-201.775
 31
0
  0
LINE
  5
B83
330
A02
100
AcDbEntity
  8
Shape8074
100
AcDbLine
 10
116.924
 20
-201.775
 30
0
 11
110.654
 21
-201.775
 31
0
  0
LINE
  5
B84
330
A02
100
AcDbEntity
  8
Shape8075
100
AcDbLine
 10
110.654
 20
-201.775
 30
0
 11
110.654
 21
-200.05
 31
0
  0
LINE
  5
B85
330
A02
100
AcDbEntity
  8
Shape8076
100
AcDbLine
 10
110.654
 20
-200.05
 30
0
 11
109.453
 21
-200.05
 31
0
  0
LINE
  5
B86
330
A02
100
AcDbEntity
  8
Shape8077
100
AcDbLine
 10
109.453
 20
-200.05
 30
0
 11
109.453
 21
-196.751
 31
0
  0
LINE
  5
B87
330
A02
100
AcDbEntity
  8
Shape8078
100
AcDbLine
 10
109.453
 20
-196.751
 30
0
 11
110.654
 21
-196.751
 31
0
  0
LINE
  5
B88
330
A02
100
AcDbEntity
  8
Shape8079
100
AcDbLine
 10
110.654
 20
-196.751
 30
0
 11
110.654
 21
-195.026
 31
0
  0
LINE
  5
B89
330
A02
100
AcDbEntity
  8
Shape8080
100
AcDbLine
 10
110.654
 20
-195.026
 30
0
 11
115.123
 21
-195.026
 31
0
  0
LINE
  5
B8A
330
A02
100
AcDbEntity
  8
Shape8081
100
AcDbLine
 10
115.123
 20
-195.026
 30
0
 11
115.123
 21
-193.5
 31
0
  0
LINE
  5
B8B
330
A02
100
AcDbEntity
  8
Shape8082
100
AcDbLine
 10
115.123
 20
-193.5
 30
0
 11
110.923
 21
-193.5
 31
0
  0
LINE
  5
B8C
330
A02
100
AcDbEntity
  8
Shape8083
100
AcDbLine
 10
110.423
 20
-193
 30
0
 11
110.423
 21
-180.001
 31
0
  0
ARC
  5
B8D
330
A02
100
AcDbEntity
  8
Shape8084
100
AcDbCircle
 10
110.923
 20
-193
 30
0
 40
0.5
100
AcDbArc
 50
180
 51
-90
  0
LINE
  5
B8E
330
A02
100
AcDbEntity
  8
Shape8085
100
AcDbLine
 10
110.923
 20
-179.501
 30
0
 11
115.123
 21
-179.501
 31
0
  0
ARC
  5
B8F
330
A02
100
AcDbEntity
  8
Shape8086
100
AcDbCircle
 10
110.923
 20
-180.001
 30
0
 40
0.5
100
AcDbArc
 50
90
 51
180
  0
LINE
  5
B90
330
A02
100
AcDbEntity
  8
Shape8087
100
AcDbLine
 10
115.123
 20
-179.501
 30
0
 11
115.123
 21
-177.975
 31
0
  0
LINE
  5
B91
330
A02
100
AcDbEntity
  8
Shape8088
100
AcDbLine
 10
115.123
 20
-177.975
 30
0
 11
110.654
 21
-177.975
 31
0
  0
LINE
  5
B92
330
A02
100
AcDbEntity
  8
Shape8089
100
AcDbLine
 10
110.654
 20
-177.975
 30
0
 11
110.654
 21
-176.252
 31
0
  0
LINE
  5
B93
330
A02
100
AcDbEntity
  8
Shape8090
100
AcDbLine
 10
110.654
 20
-176.252
 30
0
 11
109.453
 21
-176.252
 31
0
  0
LINE
  5
B94
330
A02
100
AcDbEntity
  8
Shape8091
100
AcDbLine
 10
109.453
 20
-176.252
 30
0
 11
109.453
 21
-172.951
 31
0
  0
LINE
  5
B95
330
A02
100
AcDbEntity
  8
Shape8092
100
AcDbLine
 10
109.453
 20
-172.951
 30
0
 11
110.654
 21
-172.951
 31
0
  0
LINE
  5
B96
330
A02
100
AcDbEntity
  8
Shape8093
100
AcDbLine
 10
110.654
 20
-172.951
 30
0
 11
110.654
 21
-171.226
 31
0
  0
LINE
  5
B97
330
A02
100
AcDbEntity
  8
Shape8094
100
AcDbLine
 10
110.654
 20
-171.226
 30
0
 11
116.924
 21
-171.226
 31
0
  0
LINE
  5
B98
330
A02
100
AcDbEntity
  8
Shape8095
100
AcDbLine
 10
116.924
 20
-171.226
 30
0
 11
116.924
 21
-170.4
 31
0
  0
LINE
  5
B99
330
A02
100
AcDbEntity
  8
Shape8096
100
AcDbLine
 10
119.724
 20
-170.4
 30
0
 11
119.724
 21
-171.226
 31
0
  0
LINE
  5
B9A
330
A02
100
AcDbEntity
  8
Shape8097
100
AcDbLine
 10
119.724
 20
-171.226
 30
0
 11
122.953
 21
-171.226
 31
0
  0
LINE
  5
B9B
330
A02
100
AcDbEntity
  8
Shape8098
100
AcDbLine
 10
122.953
 20
-171.226
 30
0
 11
122.953
 21
-177.975
 31
0
  0
LINE
  5
B9C
330
A02
100
AcDbEntity
  8
Shape8099
100
AcDbLine
 10
122.953
 20
-177.975
 30
0
 11
119.724
 21
-177.975
 31
0
  0
LINE
  5
B9D
330
A02
100
AcDbEntity
  8
Shape8100
100
AcDbLine
 10
119.724
 20
-177.975
 30
0
 11
119.724
 21
-179.501
 31
0
  0
LINE
  5
B9E
330
A02
100
AcDbEntity
  8
Shape8101
100
AcDbLine
 10
119.724
 20
-179.501
 30
0
 11
123.923
 21
-179.501
 31
0
  0
ARC
  5
B9F
330
A02
100
AcDbEntity
  8
Shape8102
100
AcDbCircle
 10
123.923
 20
-180.001
 30
0
 40
0.5
100
AcDbArc
 50
0
 51
90
  0
LINE
  5
BA0
330
A02
100
AcDbEntity
  8
Shape8103
100
AcDbLine
 10
124.423
 20
-180.001
 30
0
 11
124.423
 21
-193
 31
0
  0
LINE
  5
BA1
330
A02
100
AcDbEntity
  8
Shape8120
100
AcDbLine
 10
-91.9831
 20
-222.126
 30
0
 11
-91.9831
 21
-208.026
 31
0
  0
LINE
  5
BA2
330
A02
100
AcDbEntity
  8
Shape8121
100
AcDbLine
 10
-91.9831
 20
-208.026
 30
0
 11
-77.8831
 21
-208.026
 31
0
  0
LINE
  5
BA3
330
A02
100
AcDbEntity
  8
Shape8122
100
AcDbLine
 10
-77.8831
 20
-208.026
 30
0
 11
-77.8831
 21
-222.126
 31
0
  0
LINE
  5
BA4
330
A02
100
AcDbEntity
  8
Shape8123
100
AcDbLine
 10
-77.8831
 20
-222.126
 30
0
 11
-91.9831
 21
-222.126
 31
0
  0
LINE
  5
BA5
330
A02
100
AcDbEntity
  8
Shape8124
100
AcDbLine
 10
-113.414
 20
-222.126
 30
0
 11
-113.414
 21
-208.026
 31
0
  0
LINE
  5
BA6
330
A02
100
AcDbEntity
  8
Shape8125
100
AcDbLine
 10
-113.414
 20
-208.026
 30
0
 11
-99.3143
 21
-208.026
 31
0
  0
LINE
  5
BA7
330
A02
100
AcDbEntity
  8
Shape8126
100
AcDbLine
 10
-99.3143
 20
-208.026
 30
0
 11
-99.3143
 21
-222.126
 31
0
  0
LINE
  5
BA8
330
A02
100
AcDbEntity
  8
Shape8127
100
AcDbLine
 10
-99.3143
 20
-222.126
 30
0
 11
-113.414
 21
-222.126
 31
0
  0
LINE
  5
BA9
330
A02
100
AcDbEntity
  8
Shape10722
100
AcDbLine
 10
116.924
 20
-170.4
 30
0
 11
119.724
 21
-170.4
 31
0
  0
CIRCLE
  5
BAA
330
A02
100
AcDbEntity
  8
Shape12749
100
AcDbCircle
 10
105.199
 20
-186.526
 40
1.5
  0
ENDSEC
  0
SECTION
  2
OBJECTS
  0
DICTIONARY
  5
F000
330
0
100
AcDbDictionary
  3
ACAD_GROUP
350
F001
  0
DICTIONARY
  5
F001
330
F000
100
AcDbDictionary
  0
ENDSEC
  0
EOF