0
SECTION
2
HEADER
9
$INSUNITS
70
4
9
$ACADVER
1
AC1014
9
$HANDSEED
5
FFFF
0
ENDSEC
0
SECTION
2
TABLES
0
TABLE
2
VPORT
5
8
100
AcDbSymbolTable
0
ENDTAB
0
TABLE
2
LTYPE
5
5
100
AcDbSymbolTable
0
LTYPE
5
14
100
AcDbSymbolTableRecord
100
AcDbLinetypeTableRecord
2
BYBLOCK
70
0
0
LTYPE
5
15
100
AcDbSymbolTableRecord
100
AcDbLinetypeTableRecord
2
BYLAYER
70
0
0
ENDTAB
0
TABLE
2
LAYER
5
2
100
AcDbSymbolTable
70
2
0
LAYER
5
50
100
AcDbSymbolTableRecord
100
AcDbLayerTableRecord
2
0
70
0
6
CONTINUOUS
0
ENDTAB
0
TABLE
2
STYLE
5
3
100
AcDbSymbolTable
70
1
0
STYLE
5
11
100
AcDbSymbolTableRecord
100
AcDbTextStyleTableRecord
2
STANDARD
70
0
0
ENDTAB
0
TABLE
2
VIEW
5
6
100
AcDbSymbolTable
70
0
0
ENDTAB
0
TABLE
2
UCS
5
7
100
AcDbSymbolTable
70
0
0
ENDTAB
0
TABLE
2
APPID
5
9
100
AcDbSymbolTable
70
2
0
APPID
5
12
100
AcDbSymbolTableRecord
100
AcDbRegAppTableRecord
2
ACAD
70
0
0
ENDTAB
0
TABLE
2
DIMSTYLE
5
A
100
AcDbSymbolTable
70
1
0
ENDTAB
0
TABLE
2
BLOCK_RECORD
5
1
100
AcDbSymbolTable
70
1
0
BLOCK_RECORD
5
1F
100
AcDbSymbolTableRecord
100
AcDbBlockTableRecord
2
*MODEL_SPACE
0
BLOCK_RECORD
5
1B
100
AcDbSymbolTableRecord
100
AcDbBlockTableRecord
2
*PAPER_SPACE
0
ENDTAB
0
ENDSEC
0
SECTION
2
BLOCKS
0
BLOCK
5
20
100
AcDbEntity
100
AcDbBlockBegin
2
*MODEL_SPACE
0
ENDBLK
5
21
100
AcDbEntity
100
AcDbBlockEnd
0
BLOCK
5
1C
100
AcDbEntity
100
AcDbBlockBegin
2
*PAPER_SPACE
0
ENDBLK
5
1D
100
AcDbEntity
100
AcDbBlockEnd
0
ENDSEC
0
SECTION
2
ENTITIES
0
LWPOLYLINE
5
100
100
AcDbEntity
8
0
100
AcDbPolyline
90
15
70
1
43
0.0
10
135.5233928347283
20
-23.80565309253441
42
0.41421356237307422
10
135.0233928347283
20
-24.305653092534417
10
135.02339283472833
20
-25.305653092534307
42
-0.41421356237309503
10
134.52339283472821
20
-25.80565309253441
10
128.32339283472831
20
-25.805653092534403
42
-0.41421356237309503
10
127.82339283472828
20
-25.305653092534378
10
127.82339283472831
20
-11.305653092534378
42
-0.4142135623730937
10
128.32339283472828
20
-10.805653092534406
10
128.65439283472827
20
-10.805653092534406
42
0.41421356237308982
10
129.1543928347283
20
-10.305653092534408
42
-0.41421356237308593
10
129.65439283472827
20
-9.8056530925344099
10
142.65439283472827
20
-9.8056530925344134
42
-0.41421356237311846
10
143.15439283472836
20
-10.305653092534408
10
143.15439283472836
20
-23.30565309253441
42
-0.41421356237309243
10
142.65439283472833
20
-23.80565309253441
0
LWPOLYLINE
5
101
100
AcDbEntity
8
0
100
AcDbPolyline
90
8
70
1
43
0.0
10
56.479392834728259
20
-41.355653092534396
10
56.479392834728273
20
-27.355653092534059
42
-0.41421356237309503
10
56.979392834728273
20
-26.855653092534059
10
62.929392834728269
20
-26.855653092534038
42
-0.41421356237309503
10
63.42939283472829
20
-27.355653092534055
10
63.42939283472829
20
-41.355653092534396
42
-0.41421356237309503
10
62.929392834728276
20
-41.855653092534403
10
56.979392834728266
20
-41.855653092534403
42
-0.41421356237309503
0
LINE
5
102
100
AcDbEntity
8
0
100
AcDbLine
10
51.079392834728253
20
-41.855653092534411
30
0
11
38.877214739024772
21
-41.855653092534403
31
0
0
SPLINE
5
103
100
AcDbEntity
8
0
100
AcDbSpline
70
0
71
3
72
22
73
18
74
0
42
0.000000001
43
0.0000000001
44
0.0000000001
40
-0.084938224347325744
40
-0.084938224347325744
40
-0.084938224347325744
40
-0.084938224347325744
40
-0.077627114778486855
40
-0.077627114778486855
40
-0.070316005209647467
40
-0.070316005209647467
40
-0.058596671008040099
40
-0.058596671008040099
40
-0.04687733680643185
40
-0.04687733680643185
40
-0.035158002604824372
40
-0.035158002604824372
40
-0.023438668403216369
40
-0.023438668403216369
40
-0.011719334201608077
40
-0.011719334201608077
40
0
40
0
40
0
40
0
10
38.877214739024772
20
-41.855653092534403
30
0
10
38.852844373795293
20
-41.855653092534403
30
0
10
38.828564554658655
20
-41.852683519027309
30
0
10
38.781260540019076
20
-41.840936646905448
30
0
10
38.75841209870201
20
-41.832202992830439
30
0
10
38.702346447585263
20
-41.802527780777055
30
0
10
38.671719606133436
20
-41.777684129562651
30
0
10
38.621712762236797
20
-41.717655471848154
30
0
10
38.602810852475464
20
-41.683044372033898
30
0
10
38.579337920970261
20
-41.608524940540754
30
0
10
38.574991313245313
20
-41.569329055243152
30
0
10
38.581567128881133
20
-41.491477383249347
30
0
10
38.592426683860339
20
-41.453565900969814
30
0
10
38.628066584568103
20
-41.384039491159939
30
0
10
38.652506193420635
20
-41.35308927400218
30
0
10
38.711873463526267
20
-41.302299005015726
30
0
10
38.746233541319512
20
-41.282944535841395
30
0
10
38.783336036105325
20
-41.270720137020007
30
0
0
SPLINE
5
104
100
AcDbEntity
8
0
100
AcDbSpline
70
4
71
3
72
8
73
4
74
0
42
0.000000001
43
0.0000000001
44
0.0000000001
40
0.44964559114595337
40
0.44964559114595337
40
0.44964559114595337
40
0.44964559114595337
40
0.81904478823298432
40
0.81904478823298432
40
0.81904478823298432
40
0.81904478823298432
41
1
41
1
41
1
41
1
10
38.783336036105197
20
-41.270720137020056
30
0
10
42.748833725140038
20
-39.964181976825451
30
0
10
46.905343670242779
20
-37.604118680335816
30
0
10
51.076132029190724
20
-33.761971408277475
30
0
0
SPLINE
5
105
100
AcDbEntity
8
0
100
AcDbSpline
70
0
71
3
72
18
73
14
74
0
42
0.000000001
43
0.0000000001
44
0.0000000001
40
-0.069671110966619682
40
-0.069671110966619682
40
-0.069671110966619682
40
-0.069671110966619682
40
-0.058596671008039815
40
-0.058596671008039815
40
-0.046877336806431941
40
-0.046877336806431941
40
-0.035158002604823602
40
-0.035158002604823602
40
-0.023438668403215561
40
-0.023438668403215561
40
-0.011719334201608051
40
-0.011719334201608051
40
0
40
0
40
0
40
0
10
51.076132029160831
20
-33.76197140830503
30
0
10
51.103282480340795
20
-33.736960301780712
30
0
10
51.134817599600851
20
-33.717173934966496
30
0
10
51.205480759514828
20
-33.68925326455652
30
0
10
51.244268525297407
20
-33.682131491703245
30
0
10
51.322390692704133
20
-33.683156744444915
30
0
10
51.360978203828019
20
-33.691293968064869
30
0
10
51.432862130329383
20
-33.721901569967947
30
0
10
51.465471296189733
20
-33.744079322894443
30
0
10
51.520353088799133
20
-33.799686094276097
30
0
10
51.542101015697916
20
-33.832583481688808
30
0
10
51.57176267949886
20
-33.90486286937346
30
0
10
51.579392834728253
20
-33.943553839303824
30
0
10
51.579392834728253
20
-33.98261828664252
30
0
0
LINE
5
106
100
AcDbEntity
8
0
100
AcDbLine
10
51.579392834728253
20
-33.98261828664252
30
0
11
51.579392834728253
21
-41.355653092534411
31
0
0
ARC
5
107
100
AcDbEntity
8
0
100
AcDbCircle
10
51.079392834728253
20
-41.355653092534411
30
0
40
0.49999999999999822
210
0
220
0
230
1
100
AcDbArc
50
-90
51
0
0
LINE
5
108
100
AcDbEntity
8
0
100
AcDbLine
10
21.862418587844246
20
-41.855653092534403
30
0
11
15.304392834728278
21
-41.855653092534403
31
0
0
ARC
5
109
100
AcDbEntity
8
0
100
AcDbCircle
10
15.304392834728286
20
-41.355653092534396
30
0
40
0.50000000000001155
210
0
220
0
230
1
100
AcDbArc
50
180
51
269.99999999999898
0
LINE
5
110
100
AcDbEntity
8
0
100
AcDbLine
10
14.804392834728276
20
-41.355653092534396
30
0
11
14.804392834728276
21
-38.592927517244036
31
0
0
SPLINE
5
111
100
AcDbEntity
8
0
100
AcDbSpline
70
0
71
3
72
18
73
14
74
0
42
0.000000001
43
0.0000000001
44
0.0000000001
40
-0.063522006596077873
40
-0.063522006596077873
40
-0.063522006596077873
40
-0.063522006596077873
40
-0.05519967170125456
40
-0.05519967170125456
40
-0.046877336806431691
40
-0.046877336806431691
40
-0.035158002604823838
40
-0.035158002604823838
40
-0.023438668403215776
40
-0.023438668403215776
40
-0.011719334201607978
40
-0.011719334201607978
40
0
40
0
40
0
40
0
10
14.804392834728276
20
-38.592927517244036
30
0
10
14.804392834728276
20
-38.565186400927971
30
0
10
14.808240682400589
20
-38.537578874928812
30
0
10
14.823411837554215
20
-38.484211148828173
30
0
10
14.834662086712935
20
-38.458707946727856
30
0
10
14.869804543451986
20
-38.401892534474001
30
0
10
14.896646711286314
20
-38.373001213131239
30
0
10
14.959894660718421
20
-38.327133783770712
30
0
10
14.995695757446832
20
-38.310596193377293
30
0
10
15.071621922163027
20
-38.29217496391238
30
0
10
15.111021094633168
20
-38.290467441834885
30
0
10
15.188256297243381
20
-38.302250805585103
30
0
10
15.225353916750052
20
-38.315629036032931
30
0
10
15.258843440696165
20
-38.335740794577134
30
0
0
SPLINE
5
112
100
AcDbEntity
8
0
100
AcDbSpline
70
0
71
2
72
6
73
3
74
0
42
0.000000001
43
0.0000000001
44
0.0000000001
40
0.34701685753179112
40
0.34701685753179112
40
0.34701685753179112
40
0.79202137042238618
40
0.79202137042238618
40
0.79202137042238618
10
15.258843440696165
20
-38.335740794577134
30
0
10
18.31641945866107
20
-40.171933829235378
30
0
10
21.949109578411502
20
-41.268451643801157
30
0
0
SPLINE
5
113
100
AcDbEntity
8
0
100
AcDbSpline
70
0
71
3
72
22
73
18
74
0
42
0.000000001
43
0.0000000001
44
0.0000000001
40
-0.085694894153395665
40
-0.085694894153395665
40
-0.085694894153395665
40
-0.085694894153395665
40
-0.078005449681521663
40
-0.078005449681521663
40
-0.070316005209647356
40
-0.070316005209647356
40
-0.05859667100803885
40
-0.05859667100803885
40
-0.046877336806430997
40
-0.046877336806430997
40
-0.03515800260482381
40
-0.03515800260482381
40
-0.023438668403215589
40
-0.023438668403215589
40
-0.01171933420160806
40
-0.01171933420160806
40
0
40
0
40
0
40
0
10
21.949109578411502
20
-41.268451643801157
30
0
10
21.973647573881244
20
-41.275858372225365
30
0
10
21.997135483615736
20
-41.286379382638103
30
0
10
22.040862068236574
20
-41.313135264008132
30
0
10
22.060921013569551
20
-41.329260160160636
30
0
10
22.105758636582475
20
-41.375898671932411
30
0
10
22.127072992252973
20
-41.409078615653414
30
0
10
22.155783609930253
20
-41.481741017320964
30
0
10
22.162905382783535
20
-41.520528783103536
30
0
10
22.161880130041848
20
-41.598650950510283
30
0
10
22.1537429064219
20
-41.637238461634155
30
0
10
22.123135304518826
20
-41.709122388135512
30
0
10
22.100957551592323
20
-41.741731553995869
30
0
10
22.045350780210665
20
-41.79661334660527
30
0
10
22.012453392797951
20
-41.818361273504038
30
0
10
21.940174005113295
20
-41.848022937305004
30
0
10
21.901483035182935
20
-41.855653092534403
30
0
10
21.862418587844246
20
-41.855653092534403
30
0
0
LINE
5
114
100
AcDbEntity
8
0
100
AcDbLine
10
-9.6956071652717561
20
-41.855653092534396
30
0
11
-45.470607165271772
21
-41.855653092534382
31
0
0
ARC
5
115
100
AcDbEntity
8
0
100
AcDbCircle
10
-45.47060716527178
20
-41.355653092534396
30
0
40
0.49999999999998934
210
0
220
0
230
1
100
AcDbArc
50
180
51
270.0000000000008
0
LINE
5
116
100
AcDbEntity
8
0
100
AcDbLine
10
-45.970607165271772
20
-41.355653092534382
30
0
11
-45.970607165271751
21
-40.710182632841814
31
0
0
SPLINE
5
117
100
AcDbEntity
8
0
100
AcDbSpline
70
0
71
3
72
10
73
6
74
0
42
0.000000001
43
0.0000000001
44
0.0000000001
40
-0.023029216987188614
40
-0.023029216987188614
40
-0.023029216987188614
40
-0.023029216987188614
40
-0.011514608493594616
40
-0.011514608493594616
40
0
40
0
40
0
40
0
10
-45.970607165271751
20
-40.710182632841814
30
0
10
-45.970607165271751
20
-40.671800604529828
30
0
10
-45.96324126478504
20
-40.633772791202219
30
0
10
-45.934578608881999
20
-40.562560625486313
30
0
10
-45.913546371591956
20
-40.530033466510531
30
0
10
-45.886956716331476
20
-40.502353684530334
30
0
0
SPLINE
5
118
100
AcDbEntity
8
0
100
AcDbSpline
70
4
71
3
72
8
73
4
74
0
42
0.000000001
43
0.0000000001
44
0.0000000001
40
0.12412850459058715
40
0.12412850459058715
40
0.12412850459058715
40
0.12412850459058715
40
1
40
1
40
1
40
1
41
1
41
1
41
1
41
1
10
-45.886956716331476
20
-40.502353684530341
30
0
10
-36.494140444750521
20
-30.724449306658677
30
0
10
-27.498190359197711
20
-29.566892581247764
30
0
10
-20.444547404263552
20
-30.924326736329878
30
0
0
SPLINE
5
119
100
AcDbEntity
8
0
100
AcDbSpline
70
0
71
2
72
6
73
3
74
0
42
0.000000001
43
0.0000000001
44
0.0000000001
40
0
40
0
40
0
40
0.7920110154195048
40
0.7920110154195048
40
0.7920110154195048
10
-20.444547404263552
20
-30.924326736329878
30
0
10
-14.066254485715115
20
-32.151802409991539
30
0
10
-9.3213429212383652
20
-35.53787932414437
30
0
0
SPLINE
5
120
100
AcDbEntity
8
0
100
AcDbSpline
70
0
71
3
72
12
73
8
74
0
42
0.000000001
43
0.0000000001
44
0.0000000001
40
-0.02859398555170832
40
-0.02859398555170832
40
-0.02859398555170832
40
-0.02859398555170832
40
-0.02015665987665817
40
-0.02015665987665817
40
-0.011719334201607921
40
-0.011719334201607921
40
0
40
0
40
0
40
0
10
-9.3213429212383652
20
-35.53787932414437
30
0
10
-9.298449964173594
20
-35.55421625948243
30
0
10
-9.2779676560111461
20
-35.573691586347508
30
0
10
-9.2430290040361367
20
-35.617773582171296
30
0
10
-9.2287455984598719
20
-35.642162055459032
30
0
10
-9.2032373205011382
20
-35.704320494180443
30
0
10
-9.1956071652717508
20
-35.743011464110815
30
0
10
-9.1956071652717508
20
-35.78207591144951
30
0
0
LINE
5
121
100
AcDbEntity
8
0
100
AcDbLine
10
-9.1956071652717526
20
-35.78207591144951
30
0
11
-9.1956071652717579
21
-41.355653092534396
31
0
0
ARC
5
122
100
AcDbEntity
8
0
100
AcDbCircle
10
-9.6956071652717597
20
-41.355653092534396
30
0
40
0.49999999999999822
210
0
220
0
230
1
100
AcDbArc
50
-89.999999999999588
51
0
0
LWPOLYLINE
5
123
100
AcDbEntity
8
0
100
AcDbPolyline
90
8
70
1
43
0.0
10
-51.370607165271778
20
-41.855653092534403
10
-57.320607165271738
20
-41.855653092534403
42
-0.41421356237309503
10
-57.82060716527176
20
-41.355653092534382
10
-57.820607165271753
20
-27.355653092534414
42
-0.41421356237309503
10
-57.320607165271738
20
-26.855653092534411
10
-51.370607165271792
20
-26.855653092534393
42
-0.41421356237309503
10
-50.870607165271757
20
-27.355653092534425
10
-50.870607165271757
20
-41.355653092534375
42
-0.41421356237309503
0
ARC
5
124
100
AcDbEntity
8
0
100
AcDbCircle
10
15.304392834728267
20
-29.355653092534428
30
0
40
0.49999999999999822
210
0
220
-0
230
1
100
AcDbArc
50
89.999999999999801
51
180
0
LINE
5
125
100
AcDbEntity
8
0
100
AcDbLine
10
15.304392834728269
20
-28.855653092534432
30
0
11
51.079392834728267
21
-28.855653092534418
31
0
0
ARC
5
126
100
AcDbEntity
8
0
100
AcDbCircle
10
51.079392834728267
20
-29.355653092534414
30
0
40
0.49999999999999822
210
0
220
0
230
1
100
AcDbArc
50
0
51
90
0
LINE
5
127
100
AcDbEntity
8
0
100
AcDbLine
10
51.579392834728267
20
-29.355653092534414
30
0
11
51.579392834728253
21
-30.045139431444081
31
0
0
SPLINE
5
128
100
AcDbEntity
8
0
100
AcDbSpline
70
4
71
3
72
8
73
4
74
0
42
0.000000001
43
0.0000000001
44
0.0000000001
40
0.1169932740743556
40
0.1169932740743556
40
0.1169932740743556
40
0.1169932740743556
40
1
40
1
40
1
40
1
41
1
41
1
41
1
41
1
10
51.579392834728253
20
-30.045139431444081
30
0
10
42.103646240981128
20
-40.04470166170929
30
0
10
33.018459298342101
20
-41.232342857787046
30
0
10
25.907353000246736
20
-39.863845265853122
30
0
0
SPLINE
5
129
100
AcDbEntity
8
0
100
AcDbSpline
70
0
71
2
72
6
73
3
74
0
42
0.000000001
43
0.0000000001
44
0.0000000001
40
0
40
0
40
0
40
0.77971317635046344
40
0.77971317635046344
40
0.77971317635046344
10
25.907353000246736
20
-39.863845265853122
30
0
10
19.628096978126838
20
-38.655429047176291
30
0
10
14.931892813228664
20
-35.354925902863748
30
0
0
SPLINE
5
130
100
AcDbEntity
8
0
100
AcDbSpline
70
0
71
3
72
12
73
8
74
0
42
0.000000001
43
0.0000000001
44
0.0000000001
40
-0.028811245332221125
40
-0.028811245332221125
40
-0.028811245332221125
40
-0.028811245332221125
40
-0.020265289766914739
40
-0.020265289766914739
40
-0.011719334201607923
40
-0.011719334201607923
40
0
40
0
40
0
40
0
10
14.931892813228655
20
-35.354925902863748
30
0
10
14.90858647241183
20
-35.338546152655404
30
0
10
14.887731496330346
20
-35.318929999674111
30
0
10
14.852182366777145
20
-35.274408248308745
30
0
10
14.837668739176619
20
-35.249728740634993
30
0
10
14.812022989957656
20
-35.187235312663468
30
0
10
14.804392834728276
20
-35.148544342733111
30
0
10
14.804392834728276
20
-35.109479895394408
30
0
0
LINE
5
131
100
AcDbEntity
8
0
100
AcDbLine
10
14.804392834728276
20
-35.109479895394415
30
0
11
14.804392834728269
21
-29.355653092534428
31
0
0
ARC
5
132
100
AcDbEntity
8
0
100
AcDbCircle
10
-9.6956071652717579
20
-29.355653092534432
30
0
40
0.50000000000000711
210
0
220
-0
230
1
100
AcDbArc
50
0
51
89.999999999999801
0
LINE
5
133
100
AcDbEntity
8
0
100
AcDbLine
10
-9.1956071652717508
20
-29.355653092534428
30
0
11
-9.1956071652717508
21
-32.82368284993354
31
0
0
SPLINE
5
134
100
AcDbEntity
8
0
100
AcDbSpline
70
0
71
2
72
6
73
3
74
0
42
0.000000001
43
0.0000000001
44
0.0000000001
40
0.30291199020192933
40
0.30291199020192933
40
0.30291199020192933
40
0.80766651595285344
40
0.80766651595285344
40
0.80766651595285344
10
-9.1956071652717508
20
-32.82368284993354
30
0
10
-12.599065618471119
20
-30.657794040015041
30
0
10
-16.742444793409032
20
-29.443545216908259
30
0
0
SPLINE
5
135
100
AcDbEntity
8
0
100
AcDbSpline
70
0
71
3
72
22
73
18
74
0
42
0.000000001
43
0.0000000001
44
0.0000000001
40
-0.085938155479032344
40
-0.085938155479032344
40
-0.085938155479032344
40
-0.085938155479032344
40
-0.07812708034433942
40
-0.07812708034433942
40
-0.070316005209646704
40
-0.070316005209646704
40
-0.058596671008038816
40
-0.058596671008038816
40
-0.046877336806430817
40
-0.046877336806430817
40
-0.035158002604823088
40
-0.035158002604823088
40
-0.023438668403215488
40
-0.023438668403215488
40
-0.011719334201607671
40
-0.011719334201607671
40
0
40
0
40
0
40
0
10
-16.742444793409032
20
-29.443545216908248
30
0
10
-16.767430871344256
20
-29.436222856475883
30
0
10
-16.791357712267391
20
-29.425678751664577
30
0
10
-16.835885334501484
20
-29.398679213340273
30
0
10
-16.856297251717059
20
-29.382338298481656
30
0
10
-16.901415862518967
20
-29.33540751313641
30
0
10
-16.922730218189464
20
-29.302227569415411
30
0
10
-16.951440835866745
20
-29.22956516774784
30
0
10
-16.958562608720026
20
-29.190777401965274
30
0
10
-16.957537355978339
20
-29.112655234558535
30
0
10
-16.949400132358392
20
-29.074067723434659
30
0
10
-16.918792530455313
20
-29.002183796933299
30
0
10
-16.896614777528814
20
-28.969574631072934
30
0
10
-16.84100800614716
20
-28.914692838463569
30
0
10
-16.808110618734446
20
-28.892944911564776
30
0
10
-16.735831231049794
20
-28.86328324776381
30
0
10
-16.697140261119429
20
-28.855653092534418
30
0
10
-16.658075813780734
20
-28.855653092534418
30
0
0
LINE
5
136
100
AcDbEntity
8
0
100
AcDbLine
10
-16.658075813780734
20
-28.855653092534411
30
0
11
-9.6956071652717561
21
-28.855653092534425
31
0
0
ARC
5
137
100
AcDbEntity
8
0
100
AcDbCircle
10
-45.470607165271737
20
-29.355653092534411
30
0
40
0.49999999999999378
210
0
220
-0
230
1
100
AcDbArc
50
90
51
180
0
LINE
5
138
100
AcDbEntity
8
0
100
AcDbLine
10
-45.470607165271737
20
-28.855653092534418
30
0
11
-33.177542819874319
21
-28.855653092534418
31
0
0
SPLINE
5
139
100
AcDbEntity
8
0
100
AcDbSpline
70
0
71
3
72
22
73
18
74
0
42
0.000000001
43
0.0000000001
44
0.0000000001
40
-0.08520578838206927
40
-0.08520578838206927
40
-0.08520578838206927
40
-0.08520578838206927
40
-0.077760896795858056
40
-0.077760896795858056
40
-0.070316005209645954
40
-0.070316005209645954
40
-0.058596671008038073
40
-0.058596671008038073
40
-0.046877336806430685
40
-0.046877336806430685
40
-0.035158002604822589
40
-0.035158002604822589
40
-0.023438668403215041
40
-0.023438668403215041
40
-0.01171933420160718
40
-0.01171933420160718
40
0
40
0
40
0
40
0
10
-33.177542819874319
20
-28.855653092534418
30
0
10
-33.152726514586945
20
-28.855653092534418
30
0
10
-33.128005820747966
20
-28.858732337575006
30
0
10
-33.079889833479626
20
-28.87090804296145
30
0
10
-33.056679919750444
20
-28.879957593148298
30
0
10
-33.00048788710302
20
-28.91034189868622
30
0
10
-32.970082996774522
20
-28.935456696457457
30
0
10
-32.920611496723183
20
-28.995927308048373
30
0
10
-32.902017861504852
20
-29.030704989862226
30
0
10
-32.879207980627065
20
-29.10543004267485
30
0
10
-32.875209809861154
20
-29.144663001440456
30
0
10
-32.882477097762461
20
-29.222453172478126
30
0
10
-32.893673077196397
20
-29.260266668316145
30
0
10
-32.929929330809998
20
-29.329473664042133
30
0
10
-32.954642975443946
20
-29.360205507330214
30
0
10
-33.01445918646457
20
-29.410466278142522
30
0
10
-33.048989877271516
20
-29.429514685303531
30
0
10
-33.086199524332358
20
-29.441408936498341
30
0
0
SPLINE
5
140
100
AcDbEntity
8
0
100
AcDbSpline
70
4
71
3
72
8
73
4
74
0
42
0.000000001
43
0.0000000001
44
0.0000000001
40
0.44236243335225051
40
0.44236243335225051
40
0.44236243335225051
40
0.44236243335225051
40
0.81476376538969331
40
0.81476376538969331
40
0.81476376538969331
40
0.81476376538969331
41
1
41
1
41
1
41
1
10
-33.086199524353354
20
-29.441408936505056
30
0
10
-37.07626250654635
20
-30.716852676023088
30
0
10
-41.263996605014157
20
-33.054427830737808
30
0
10
-45.468324482459494
20
-36.893227177446654
30
0
0
SPLINE
5
141
100
AcDbEntity
8
0
100
AcDbSpline
70
0
71
3
72
18
73
14
74
0
42
0.000000001
43
0.0000000001
44
0.0000000001
40
-0.069537286620285577
40
-0.069537286620285577
40
-0.069537286620285577
40
-0.069537286620285577
40
-0.058596671008037476
40
-0.058596671008037476
40
-0.046877336806430608
40
-0.046877336806430608
40
-0.03515800260482236
40
-0.03515800260482236
40
-0.0234386684032152
40
-0.0234386684032152
40
-0.011719334201607595
40
-0.011719334201607595
40
0
40
0
40
0
40
0
10
-45.468324482460183
20
-36.893227177447294
30
0
10
-45.495255894251343
20
-36.917817144976794
30
0
10
-45.526446800060967
20
-36.937291516468548
30
0
10
-45.596695090058326
20
-36.965048262052356
30
0
10
-45.635482855840905
20
-36.972170034905638
30
0
10
-45.713605023247645
20
-36.971144782163961
30
0
10
-45.752192534371517
20
-36.963007558544014
30
0
10
-45.824076460872895
20
-36.932399956640943
30
0
10
-45.856685626733253
20
-36.910222203714426
30
0
10
-45.911567419342603
20
-36.854615432332793
30
0
10
-45.933315346241379
20
-36.821718044920061
30
0
10
-45.962977010042366
20
-36.749438657235423
30
0
10
-45.970607165271751
20
-36.710747687305044
30
0
10
-45.970607165271751
20
-36.671683239966356
30
0
0
LINE
5
142
100
AcDbEntity
8
0
100
AcDbLine
10
-45.970607165271751
20
-36.671683239966363
30
0
11
-45.97060716527173
21
-29.355653092534414
31
0
0
LWPOLYLINE
5
143
100
AcDbEntity
8
0
100
AcDbPolyline
90
8
70
1
43
0.0
10
9.8043928347282474
20
-29.355653092534403
10
9.804392834728251
20
-42.355653092534396
42
-0.4142135623730866
10
9.3043928347282403
20
-42.855653092534425
10
-3.6956071652717459
20
-42.855653092534382
42
-0.41421356237309048
10
-4.195607165271749
20
-42.355653092534389
10
-4.1956071652717428
20
-29.355653092534403
42
-0.4142135623730957
10
-3.6956071652717437
20
-28.855653092534403
10
9.3043928347282403
20
-28.855653092534386
42
-0.41421356237308854
0
LWPOLYLINE
5
144
100
AcDbEntity
8
0
100
AcDbPolyline
90
50
70
1
43
0.0
10
146.17939283472828
20
-44.380653092534416
10
146.1793928347283
20
48.869346907465577
42
0.41421356237311063
10
144.67939283472828
20
50.36934690746557
10
132.49772750659142
20
50.369346907465584
42
-0.19891236737964865
10
131.08351394421834
20
50.955133345092499
10
125.89112578879316
20
56.147521500517563
42
0.19891236737966794
10
124.4769122264201
20
56.733307938144499
10
56.633766475912459
20
56.733307938144499
42
0.19891236737965326
10
55.219552913539367
20
56.147521500517563
10
50.027164758114324
20
50.955133345092499
42
-0.19891236737966053
10
48.612951195741232
20
50.369346907465591
10
8.5440897966952445
20
50.369346907465598
42
-0.19891236737965176
10
7.1298762343221433
20
50.955133345092499
10
4.7079462253215381
20
53.377063354093117
42
0.66817863791928089
10
3.8543928347282614
20
53.023509963499855
10
3.8543928347282574
20
52.169346907465552
42
-0.99999999999999989
10
1.7543928347282645
20
52.169346907465609
10
1.7543928347282634
20
53.023509963499855
42
0.66817863791928778
10
0.9008394441349854
20
53.377063354093146
10
-1.5210905648655775
20
50.955133345092527
42
-0.19891236737966977
10
-2.9353041272386888
20
50.369346907465598
10
-43.004165526284702
20
50.369346907465598
42
-0.19891236737966309
10
-44.41837908865778
20
50.955133345092527
10
-49.61076724408283
20
56.147521500517577
42
0.19891236737965862
10
-51.024980806455922
20
56.733307938144506
10
-118.86812655696357
20
56.733307938144506
42
0.19891236737967732
10
-120.28234011933664
20
56.147521500517577
10
-125.47472827476172
20
50.955133345092499
42
-0.19891236737964335
10
-126.88894183713485
20
50.369346907465626
10
-139.07060716527178
20
50.369346907465626
42
0.41421356237309337
10
-140.57060716527181
20
48.869346907465612
10
-140.57060716527178
20
-44.380653092534416
42
0.41421356237310719
10
-139.07060716527175
20
-45.880653092534409
10
-125.93894183713481
20
-45.880653092534409
42
-0.19891236737965556
10
-124.52472827476171
20
-46.466439530161303
10
-119.33234011933665
20
-51.658827685586388
42
0.19891236737966098
10
-117.91812655696354
20
-52.244614123213282
10
-50.074980806455969
20
-52.244614123213324
42
0.1989123673796491
10
-48.660767244082876
20
-51.658827685586395
10
-43.468379088657798
20
-46.466439530161303
42
-0.19891236737966791
10
-42.054165526284706
20
-45.880653092534402
10
47.662951195741208
20
-45.880653092534402
42
-0.19891236737965765
10
49.077164758114293
20
-46.46643953016131
10
54.269552913539378
20
-51.658827685586395
42
0.19891236737965257
10
55.683766475912478
20
-52.244614123213317
10
123.52691222642008
20
-52.244614123213331
42
0.19891236737965881
10
124.94112578879317
20
-51.658827685586424
10
130.13351394421821
20
-46.466439530161324
42
-0.1989123673796564
10
131.54772750659129
20
-45.880653092534438
10
144.6793928347283
20
-45.880653092534438
42
0.41421356237308982
0
LWPOLYLINE
5
145
100
AcDbEntity
8
0
100
AcDbPolyline
90
14
70
1
43
0.0
10
143.99189283472825
20
-29.355653092534411
10
143.99189283472828
20
-42.355653092534411
42
-0.4142135623730222
10
143.49189283472828
20
-42.855653092534396
10
142.49189283472828
20
-42.855653092534418
42
-0.41421356237302737
10
141.99189283472822
20
-42.355653092534396
10
141.99189283472828
20
-41.805653703482044
42
0.4142135623730534
10
141.49189283472825
20
-41.305653703482051
10
140.79189283472832
20
-41.305653703482072
42
-0.99999999999999989
10
140.79189283472832
20
-39.105653703482083
10
141.49189283472825
20
-39.105653703482034
42
0.41421356237306639
10
141.9918928347283
20
-38.605653703482048
10
141.99189283472828
20
-29.355653092534411
42
-0.41421356237307161
10
142.49189283472825
20
-28.855653092534403
10
143.49189283472828
20
-28.855653092534407
42
-0.41421356237307161
0
LWPOLYLINE
5
146
100
AcDbEntity
8
0
100
AcDbPolyline
90
8
70
1
43
0.0
10
138.39189283472822
20
-29.355653092534411
10
138.39189283472822
20
-42.355653092534411
42
-0.41421356237296497
10
137.89189283472825
20
-42.855653092534396
10
124.89189283472825
20
-42.855653092534396
42
-0.41421356237308982
10
124.39189283472825
20
-42.355653092534396
10
124.39189283472825
20
-29.355653092534393
42
-0.41421356237305601
10
124.89189283472824
20
-28.855653092534403
10
137.89189283472825
20
-28.8556530925344
42
-0.41421356237305601
0
LWPOLYLINE
5
147
100
AcDbEntity
8
0
100
AcDbPolyline
90
14
70
1
43
0.0
10
120.79189283472826
20
-41.805653703482044
10
120.79189283472829
20
-42.355653092534396
42
-0.41421356237314189
10
120.29189283472829
20
-42.855653092534411
10
119.29189283472826
20
-42.855653092534411
42
-0.41421356237313667
10
118.79189283472826
20
-42.355653092534396
10
118.79189283472826
20
-29.355653092534411
42
-0.41421356237308721
10
119.29189283472824
20
-28.855653092534407
10
120.29189283472829
20
-28.855653092534403
42
-0.4142135623730222
10
120.79189283472827
20
-29.355653092534411
10
120.79189283472822
20
-38.605653703482055
42
0.41421356237311063
10
121.29189283472827
20
-39.105653703482076
10
121.99189283472833
20
-39.105653703482083
42
-0.99999999999999989
10
121.99189283472833
20
-41.305653703482072
10
121.29189283472826
20
-41.305653703482072
42
0.41421356237307944
0
LWPOLYLINE
5
148
100
AcDbEntity
8
0
100
AcDbPolyline
90
8
70
1
43
0.0
10
114.57939283472828
20
-29.355653092534411
10
114.57939283472828
20
-42.355653092534396
42
-0.41421356237314189
10
114.07939283472828
20
-42.855653092534411
10
101.07939283472831
20
-42.855653092534396
42
-0.41421356237312101
10
100.57939283472822
20
-42.355653092534396
10
100.5793928347282
20
-29.355653092534393
42
-0.41421356237311324
10
101.0793928347283
20
-28.855653092534407
10
114.07939283472828
20
-28.855653092534407
42
-0.41421356237309243
0
LWPOLYLINE
5
149
100
AcDbEntity
8
0
100
AcDbPolyline
90
8
70
1
43
0.0
10
96.366892834728205
20
-29.355653092534403
10
96.366892834728191
20
-42.355653092534396
42
-0.4142135623730534
10
95.866892834728205
20
-42.855653092534418
10
94.866892834728247
20
-42.855653092534418
42
-0.41421356237311063
10
94.366892834728247
20
-42.355653092534396
10
94.366892834728276
20
-29.355653092534393
42
-0.41421356237311585
10
94.866892834728276
20
-28.855653092534389
10
95.866892834728205
20
-28.855653092534389
42
-0.41421356237313928
0
LWPOLYLINE
5
150
100
AcDbEntity
8
0
100
AcDbPolyline
90
8
70
1
43
0.0
10
90.766892834728282
20
-29.355653092534403
10
90.766892834728253
20
-42.355653092534396
42
-0.4142135623730534
10
90.266892834728225
20
-42.855653092534389
10
77.266892834728267
20
-42.855653092534418
42
-0.41421356237311585
10
76.766892834728225
20
-42.355653092534411
10
76.766892834728267
20
-29.355653092534411
42
-0.41421356237310542
10
77.266892834728225
20
-28.855653092534403
10
90.266892834728225
20
-28.85565309253435
42
-0.41421356237307944
0
LWPOLYLINE
5
151
100
AcDbEntity
8
0
100
AcDbPolyline
90
8
70
1
43
0.0
10
-134.05235716527176
20
-24.305653092534385
10
-134.05235716527176
20
-9.3056530925343832
42
-0.41421356237309503
10
-133.55235716527176
20
-8.8056530925343939
10
-127.60235716527174
20
-8.8056530925343939
42
-0.4142135623730957
10
-127.10235716527171
20
-9.3056530925344187
10
-127.10235716527174
20
-24.305653092534421
42
-0.41421356237309503
10
-127.60235716527174
20
-24.80565309253441
10
-133.55235716527173
20
-24.80565309253441
42
-0.41421356237309503
0
LWPOLYLINE
5
152
100
AcDbEntity
8
0
100
AcDbPolyline
90
8
70
1
43
0.0
10
73.166892834728273
20
-29.355653092534403
10
73.166892834728273
20
-42.355653092534396
42
-0.41421356237311585
10
72.666892834728273
20
-42.855653092534411
10
71.666892834728245
20
-42.855653092534418
42
-0.41421356237310542
10
71.166892834728245
20
-42.355653092534411
10
71.166892834728287
20
-29.355653092534411
42
-0.41421356237308982
10
71.666892834728273
20
-28.855653092534407
10
72.666892834728273
20
-28.855653092534407
42
-0.41421356237309243
0
LWPOLYLINE
5
153
100
AcDbEntity
8
0
100
AcDbPolyline
90
8
70
1
43
0.0
10
-125.63935716527176
20
-23.305653092534389
10
-125.6393571652717
20
-10.305653092534396
42
-0.41421356237305212
10
-125.13935716527172
20
-9.805653092534401
10
-112.13935716527176
20
-9.8056530925343708
42
-0.41421356237307549
10
-111.63935716527178
20
-10.305653092534397
10
-111.63935716527178
20
-23.305653092534389
42
-0.41421356237308204
10
-112.13935716527173
20
-23.805653092534392
10
-125.13935716527178
20
-23.805653092534381
42
-0.41421356237305601
0
LWPOLYLINE
5
154
100
AcDbEntity
8
0
100
AcDbPolyline
90
8
70
1
43
0.0
10
115.28514283472828
20
-5.7556530925344083
10
109.33514283472826
20
-5.7556530925344482
42
-0.41421356237309503
10
108.83514283472829
20
-5.2556530925344767
10
108.83514283472826
20
9.74434690746555
42
-0.41421356237309503
10
109.33514283472826
20
10.244346907465555
10
115.28514283472819
20
10.244346907465559
42
-0.41421356237309437
10
115.78514283472822
20
9.7443469074655358
10
115.78514283472821
20
-5.2556530925344713
42
-0.4142135623730957
0
LWPOLYLINE
5
155
100
AcDbEntity
8
0
100
AcDbPolyline
90
8
70
1
43
0.0
10
-94.683107165271721
20
-23.305653092534389
10
-94.683107165271693
20
-10.305653092534396
42
-0.41421356237309115
10
-94.183107165271721
20
-9.8056530925343903
10
-81.18310716527175
20
-9.8056530925343672
42
-0.4142135623730443
10
-80.683107165271736
20
-10.305653092534396
10
-80.683107165271736
20
-23.305653092534403
42
-0.41421356237309503
10
-81.183107165271679
20
-23.80565309253441
10
-94.183107165271721
20
-23.805653092534428
42
-0.41421356237302998
0
LWPOLYLINE
5
156
100
AcDbEntity
8
0
100
AcDbPolyline
90
8
70
1
43
0.0
10
-134.66485716527171
20
9.2443469074656033
42
0.41421356237304169
10
-135.16485716527174
20
8.7443469074656086
10
-135.16485716527174
20
-4.2556530925343932
42
0.41421356237300011
10
-134.66485716527174
20
-4.7556530925344092
10
-116.90185716527176
20
-4.7556530925344056
42
0.41421356237309342
10
-116.40185716527178
20
-4.2556530925343985
10
-116.40185716527174
20
8.7443469074656086
42
0.41421356237310997
10
-116.90185716527176
20
9.2443469074656157
0
LWPOLYLINE
5
157
100
AcDbEntity
8
0
100
AcDbPolyline
90
8
70
1
43
0.0
10
-112.30185716527176
20
9.2443469074655997
10
-111.30185716527177
20
9.244346907465566
42
-0.41421356237312817
10
-110.80185716527176
20
8.7443469074656086
10
-110.80185716527174
20
-4.2556530925344003
42
-0.41421356237312623
10
-111.30185716527177
20
-4.7556530925344003
10
-112.30185716527176
20
-4.7556530925344056
42
-0.41421356237310575
10
-112.80185716527174
20
-4.2556530925343985
10
-112.80185716527174
20
8.7443469074656086
42
-0.41421356237307944
0
LWPOLYLINE
5
158
100
AcDbEntity
8
0
100
AcDbPolyline
90
8
70
1
43
0.0
10
-119.28310716527177
20
14.294346907465599
10
-132.28310716527173
20
14.294346907465599
42
-0.41421356237312362
10
-132.78310716527176
20
14.7943469074656
10
-132.78310716527176
20
27.794346907465606
42
-0.41421356237306123
10
-132.28310716527173
20
28.294346907465595
10
-119.28310716527177
20
28.294346907465599
42
-0.41421356237310542
10
-118.78310716527174
20
27.794346907465592
10
-118.78310716527182
20
14.7943469074656
42
-0.4142135623730599
0
LWPOLYLINE
5
159
100
AcDbEntity
8
0
100
AcDbPolyline
90
8
70
1
43
0.0
10
-46.558107165271743
20
9.2443469074655962
42
0.4142135623731022
10
-47.058107165271743
20
8.7443469074656051
10
-47.058107165271757
20
-4.255653092534402
42
0.41421356237309959
10
-46.558107165271743
20
-4.75565309253441
10
-33.558107165271743
20
-4.7556530925343985
42
0.41421356237309859
10
-33.058107165271764
20
-4.2556530925344038
10
-33.058107165271728
20
8.7443469074656033
42
0.4142135623730957
10
-33.558107165271743
20
9.2443469074656033
0
LWPOLYLINE
5
160
100
AcDbEntity
8
0
100
AcDbPolyline
90
8
70
1
43
0.0
10
-85.44560716527171
20
46.844346907465599
42
0.41421356237314189
10
-85.945607165271696
20
47.344346907465599
10
-98.945607165271795
20
47.344346907465599
42
0.41421356237308982
10
-99.445607165271724
20
46.844346907465599
10
-99.445607165271667
20
33.844346907465599
42
0.41421356237314444
10
-98.945607165271753
20
33.344346907465628
10
-85.945607165271696
20
33.344346907465599
42
0.41421356237307422
10
-85.445607165271724
20
33.844346907465599
0
LWPOLYLINE
5
161
100
AcDbEntity
8
0
100
AcDbPolyline
90
8
70
1
43
0.0
10
-137.88310716527175
20
28.294346907465595
42
0.41421356237310542
10
-138.38310716527175
20
27.794346907465592
10
-138.38310716527175
20
14.794346907465599
42
0.41421356237305729
10
-137.88310716527175
20
14.294346907465606
10
-136.88310716527172
20
14.29434690746562
42
0.41421356237310025
10
-136.38310716527175
20
14.7943469074656
10
-136.38310716527175
20
27.794346907465592
42
0.41421356237308721
10
-136.88310716527172
20
28.294346907465588
0
LWPOLYLINE
5
162
100
AcDbEntity
8
0
100
AcDbPolyline
90
8
70
1
43
0.0
10
48.191892834728229
20
-4.2556530925344083
42
0.41421356237305113
10
48.691892834728243
20
-4.7556530925344207
10
61.69189283472825
20
-4.75565309253441
42
0.41421356237309798
10
62.19189283472825
20
-4.2556530925344083
10
62.191892834728257
20
8.744346907465598
42
0.41421356237309825
10
61.691892834728222
20
9.2443469074656033
10
48.691892834728243
20
9.2443469074655997
42
0.41421356237309698
10
48.191892834728243
20
8.744346907465598
0
LWPOLYLINE
5
163
100
AcDbEntity
8
0
100
AcDbPolyline
90
8
70
1
43
0.0
10
67.741892834728219
20
9.2443469074655944
42
0.41421356237309959
10
67.241892834728233
20
8.7443469074655962
10
67.241892834728219
20
-4.2556530925344109
42
0.41421356237309437
10
67.741892834728247
20
-4.7556530925344092
10
80.741892834728247
20
-4.7556530925344056
42
0.4142135623731022
10
81.241892834728233
20
-4.2556530925344083
10
81.24189283472829
20
8.7443469074655962
42
0.41421356237305729
10
80.741892834728276
20
9.2443469074656033
0
LWPOLYLINE
5
164
100
AcDbEntity
8
0
100
AcDbPolyline
90
8
70
1
43
0.0
10
37.879392834728229
20
14.294346907465599
42
0.41421356237308982
10
38.379392834728215
20
14.794346907465599
10
38.379392834728229
20
27.794346907465592
42
0.41421356237309243
10
37.879392834728229
20
28.294346907465595
10
24.879392834728264
20
28.294346907465595
42
0.41421356237310802
10
24.379392834728264
20
27.794346907465592
10
24.379392834728254
20
14.794346907465599
42
0.41421356237309764
10
24.879392834728264
20
14.294346907465592
0
LWPOLYLINE
5
165
100
AcDbEntity
8
0
100
AcDbPolyline
90
8
70
1
43
0.0
10
-32.270607165271741
20
28.294346907465595
10
-19.270607165271748
20
28.294346907465602
42
-0.41421356237309631
10
-18.770607165271734
20
27.794346907465602
10
-18.770607165271752
20
14.794346907465599
42
-0.41421356237309764
10
-19.270607165271748
20
14.294346907465599
10
-32.270607165271741
20
14.294346907465592
42
-0.41421356237310542
10
-32.770607165271748
20
14.794346907465599
10
-32.770607165271727
20
27.794346907465606
42
-0.41421356237309243
0
LWPOLYLINE
5
166
100
AcDbEntity
8
0
100
AcDbPolyline
90
8
70
1
43
0.0
10
86.291892834728273
20
-4.2556530925344118
10
86.291892834728245
20
8.7443469074655962
42
-0.41421356237308593
10
86.791892834728216
20
9.2443469074655891
10
99.791892834728273
20
9.2443469074655891
42
-0.41421356237303453
10
100.29189283472826
20
8.7443469074655962
10
100.29189283472824
20
-4.2556530925344127
42
-0.41421356237305701
10
99.791892834728259
20
-4.7556530925344163
10
86.791892834728245
20
-4.7556530925344171
42
-0.41421356237307294
0
LWPOLYLINE
5
167
100
AcDbEntity
8
0
100
AcDbPolyline
90
8
70
1
43
0.0
10
-52.60810716527174
20
-4.7556530925343932
42
0.41421356237309631
10
-52.108107165271747
20
-4.2556530925344003
10
-52.108107165271718
20
8.7443469074656068
42
0.41421356237308854
10
-52.608107165271718
20
9.2443469074656157
10
-65.608107165271733
20
9.244346907465598
42
0.41421356237312756
10
-66.108107165271747
20
8.7443469074656051
10
-66.108107165271733
20
-4.255653092534402
42
0.41421356237305046
10
-65.608107165271733
20
-4.7556530925344056
0
LWPOLYLINE
5
168
100
AcDbEntity
8
0
100
AcDbPolyline
90
8
70
1
43
0.0
10
-75.633107165271724
20
-23.305653092534403
10
-75.633107165271696
20
-10.305653092534397
42
-0.41421356237309764
10
-75.133107165271738
20
-9.8056530925343939
10
-62.133107165271753
20
-9.8056530925343903
42
-0.41421356237309243
10
-61.633107165271753
20
-10.305653092534401
10
-61.633107165271781
20
-23.305653092534403
42
-0.41421356237309503
10
-62.133107165271745
20
-23.805653092534399
10
-75.133107165271724
20
-23.80565309253441
42
-0.4142135623730846
0
LWPOLYLINE
5
169
100
AcDbEntity
8
0
100
AcDbPolyline
90
8
70
1
43
0.0
10
-27.508107165271735
20
9.244346907465598
42
0.41421356237310281
10
-28.008107165271735
20
8.7443469074656033
10
-28.008107165271745
20
-4.2556530925344038
42
0.41421356237309825
10
-27.508107165271735
20
-4.7556530925344109
10
-14.508107165271745
20
-4.7556530925344012
42
0.41421356237310186
10
-14.008107165271753
20
-4.2556530925344038
10
-14.008107165271738
20
8.7443469074656033
42
0.41421356237310025
10
-14.508107165271751
20
9.2443469074656122
0
LWPOLYLINE
5
170
100
AcDbEntity
8
0
100
AcDbPolyline
90
8
70
1
43
0.0
10
-18.483107165271736
20
-23.305653092534389
42
0.41421356237309243
10
-17.983107165271736
20
-23.805653092534406
10
-4.9831071652717469
20
-23.805653092534399
42
0.4142135623730957
10
-4.4831071652717478
20
-23.305653092534403
10
-4.4831071652717371
20
-10.305653092534399
42
0.41421356237309859
10
-4.9831071652717451
20
-9.8056530925343957
10
-17.983107165271736
20
-9.8056530925344063
42
0.41421356237309764
10
-18.483107165271729
20
-10.305653092534401
0
LWPOLYLINE
5
171
100
AcDbEntity
8
0
100
AcDbPolyline
90
8
70
1
43
0.0
10
29.14189283472826
20
-4.2556530925344083
10
29.14189283472826
20
8.744346907465598
42
-0.41421356237308005
10
29.64189283472825
20
9.244346907465598
10
42.641892834728253
20
9.2443469074655997
42
-0.4142135623731048
10
43.141892834728274
20
8.7443469074656033
10
43.141892834728274
20
-4.2556530925344056
42
-0.41421356237312917
10
42.641892834728253
20
-4.7556530925344056
10
29.641892834728267
20
-4.7556530925344092
42
-0.41421356237310414
0
LWPOLYLINE
5
172
100
AcDbEntity
8
0
100
AcDbPolyline
90
8
70
1
43
0.0
10
-71.65810716527173
20
-4.7556530925344056
42
0.41421356237306545
10
-71.158107165271787
20
-4.255653092534402
10
-71.158107165271772
20
8.7443469074656051
42
0.41421356237307227
10
-71.65810716527173
20
9.2443469074656033
10
-84.658107165271716
20
9.2443469074656068
42
0.41421356237305795
10
-85.158107165271701
20
8.7443469074656068
10
-85.158107165271701
20
-4.2556530925344003
42
0.41421356237311391
10
-84.658107165271716
20
-4.7556530925343852
0
LWPOLYLINE
5
173
100
AcDbEntity
8
0
100
AcDbPolyline
90
8
70
1
43
0.0
10
-24.033107165271765
20
-23.805653092534399
10
-37.033107165271758
20
-23.805653092534392
42
-0.41421356237308721
10
-37.533107165271751
20
-23.305653092534403
10
-37.533107165271744
20
-10.305653092534406
42
-0.41421356237310936
10
-37.033107165271758
20
-9.8056530925344028
10
-24.033107165271765
20
-9.8056530925343903
42
-0.41421356237309243
10
-23.533107165271751
20
-10.305653092534401
10
-23.533107165271765
20
-23.305653092534403
42
-0.41421356237309503
0
LWPOLYLINE
5
174
100
AcDbEntity
8
0
100
AcDbPolyline
90
8
70
1
43
0.0
10
15.354392834728268
20
47.344346907465599
10
28.354392834728259
20
47.344346907465599
42
-0.41421356237309764
10
28.854392834728259
20
46.844346907465599
10
28.854392834728255
20
33.844346907465599
42
-0.41421356237308982
10
28.354392834728266
20
33.344346907465592
10
15.354392834728268
20
33.344346907465585
42
-0.41421356237311063
10
14.854392834728261
20
33.844346907465599
10
14.854392834728261
20
46.844346907465599
42
-0.41421356237308982
0
LWPOLYLINE
5
175
100
AcDbEntity
8
0
100
AcDbPolyline
90
8
70
1
43
0.0
10
-42.583107165271755
20
-10.305653092534401
10
-42.583107165271763
20
-23.305653092534389
42
-0.41421356237310802
10
-43.083107165271741
20
-23.80565309253441
10
-56.083107165271748
20
-23.805653092534399
42
-0.41421356237304818
10
-56.58310716527177
20
-23.305653092534403
10
-56.583107165271755
20
-10.305653092534401
42
-0.41421356237310802
10
-56.08310716527177
20
-9.8056530925343903
10
-43.083107165271741
20
-9.8056530925343761
42
-0.4142135623730846
0
LWPOLYLINE
5
176
100
AcDbEntity
8
0
100
AcDbPolyline
90
8
70
1
43
0.0
10
-113.18310716527174
20
27.794346907465606
10
-113.18310716527176
20
14.7943469074656
42
-0.41421356237313273
10
-113.68310716527176
20
14.294346907465606
10
-114.68310716527174
20
14.294346907465609
42
-0.41421356237311713
10
-115.18310716527176
20
14.7943469074656
10
-115.18310716527175
20
27.794346907465606
42
-0.41421356237308982
10
-114.68310716527178
20
28.294346907465609
10
-113.68310716527175
20
28.294346907465592
42
-0.41421356237316526
0
LWPOLYLINE
5
177
100
AcDbEntity
8
0
100
AcDbPolyline
90
8
70
1
43
0.0
10
66.454392834728253
20
33.344346907465592
42
0.41421356237311063
10
66.954392834728296
20
33.844346907465585
10
66.954392834728296
20
46.844346907465592
42
0.41421356237314705
10
66.454392834728282
20
47.344346907465599
10
53.454392834728274
20
47.344346907465592
42
0.41421356237312623
10
52.954392834728274
20
46.844346907465592
10
52.954392834728267
20
33.844346907465599
42
0.41421356237310025
10
53.454392834728282
20
33.344346907465592
0
LWPOLYLINE
5
178
100
AcDbEntity
8
0
100
AcDbPolyline
90
8
70
1
43
0.0
10
34.404392834728256
20
47.344346907465592
10
47.404392834728228
20
47.344346907465599
42
-0.41421356237313145
10
47.904392834728242
20
46.844346907465592
10
47.904392834728213
20
33.844346907465585
42
-0.41421356237307422
10
47.404392834728242
20
33.344346907465599
10
34.404392834728256
20
33.344346907465571
42
-0.41421356237310542
10
33.904392834728256
20
33.844346907465592
10
33.90439283472827
20
46.844346907465599
42
-0.41421356237310542
0
LWPOLYLINE
5
179
100
AcDbEntity
8
0
100
AcDbPolyline
90
26
70
1
43
0.0
10
-107.10319734605164
20
-47.173546311347856
42
0.19891236737965751
10
-107.81030412723815
20
-46.880653092534359
10
-117.90340793120214
20
-46.880653092534416
42
-0.99999999999999989
10
-117.90340793120214
20
-45.880653092534416
10
-107.81030412723821
20
-45.880653092534388
42
-0.19891236737966228
10
-106.39609056486513
20
-46.466439530161317
10
-103.97416055586498
20
-48.888369539161467
42
0.66817863791929499
10
-103.12060716527169
20
-48.534816148568211
10
-103.12060716527165
20
-47.68065309253393
42
-0.99999999999999989
10
-101.02060716527176
20
-47.680653092533944
10
-101.0206071652717
20
-48.534816148568211
42
0.66817863791930165
10
-100.16705377467844
20
-48.888369539161459
10
-97.745123765678215
20
-46.466439530161296
42
-0.19891236737965695
10
-96.330910203305081
20
-45.880653092534409
10
-50.089699432217358
20
-45.880653092534409
42
-0.99999999999999989
10
-50.089699432217358
20
-46.880653092534388
10
-80.946553681709744
20
-46.880653092534388
42
0.41421356237309631
10
-82.946553681709773
20
-48.880653092534388
10
-82.946553681709773
20
-49.380653092534402
42
-0.99999999999999989
10
-85.046553681709739
20
-49.380653092534402
10
-85.046553681709739
20
-48.880653092534388
42
0.4142135623730937
10
-87.046553681709739
20
-46.880653092534402
10
-96.330910203305052
20
-46.880653092534402
42
0.1989123673796408
10
-97.038016984491549
20
-47.173546311347849
10
-99.807865465474848
20
-49.943394792330892
42
-0.41421356237308704
10
-104.33334886506859
20
-49.943394792330849
0
LWPOLYLINE
5
180
100
AcDbEntity
8
0
100
AcDbPolyline
90
8
70
1
43
0.0
10
101.07939283472824
20
28.294346907465577
10
114.07939283472828
20
28.294346907465595
42
-0.41421356237309243
10
114.57939283472828
20
27.794346907465592
10
114.57939283472827
20
14.794346907465588
42
-0.41421356237313794
10
114.07939283472828
20
14.294346907465592
10
101.0793928347283
20
14.294346907465588
42
-0.41421356237303908
10
100.57939283472822
20
14.794346907465588
10
100.57939283472831
20
27.794346907465592
42
-0.41421356237314444
0
LWPOLYLINE
5
181
100
AcDbEntity
8
0
100
AcDbPolyline
90
8
70
1
43
0.0
10
-38.320607165271738
20
14.2943469074656
10
-51.320607165271753
20
14.294346907465576
42
-0.4142135623730937
10
-51.82060716527176
20
14.794346907465599
10
-51.820607165271753
20
27.794346907465606
42
-0.41421356237307944
10
-51.320607165271753
20
28.294346907465595
10
-38.320607165271738
20
28.294346907465602
42
-0.41421356237309503
10
-37.820607165271724
20
27.794346907465592
10
-37.820607165271738
20
14.794346907465599
42
-0.41421356237309631
0
LWPOLYLINE
5
182
100
AcDbEntity
8
0
100
AcDbPolyline
90
8
70
1
43
0.0
10
0.27939283472825172
20
27.794346907465592
10
0.27939283472824183
20
14.794346907465599
42
-0.41421356237309626
10
-0.22060716527175842
20
14.2943469074656
10
-13.220607165271749
20
14.294346907465592
42
-0.41421356237310025
10
-13.720607165271757
20
14.794346907465599
10
-13.720607165271757
20
27.794346907465609
42
-0.41421356237308204
10
-13.220607165271749
20
28.294346907465595
10
-0.22060716527176011
20
28.294346907465602
42
-0.41421356237309576
0
LWPOLYLINE
5
183
100
AcDbEntity
8
0
100
AcDbPolyline
90
8
70
1
43
0.0
10
5.829392834728262
20
28.294346907465595
42
0.41421356237310675
10
5.3293928347282709
20
27.794346907465595
10
5.3293928347282549
20
14.794346907465592
42
0.41421356237309764
10
5.8293928347282638
20
14.294346907465592
10
18.829392834728253
20
14.294346907465592
42
0.41421356237310153
10
19.32939283472825
20
14.79434690746559
10
19.329392834728264
20
27.794346907465606
42
0.41421356237308593
10
18.829392834728246
20
28.294346907465602
0
LWPOLYLINE
5
184
100
AcDbEntity
8
0
100
AcDbPolyline
90
8
70
1
43
0.0
10
-95.470607165271716
20
14.294346907465611
42
0.41421356237310025
10
-94.970607165271758
20
14.7943469074656
10
-94.970607165271787
20
27.794346907465606
42
0.41421356237309503
10
-95.470607165271716
20
28.294346907465613
10
-108.47060716527176
20
28.294346907465581
42
0.4142135623730846
10
-108.97060716527172
20
27.794346907465606
10
-108.97060716527172
20
14.7943469074656
42
0.41421356237307294
10
-108.47060716527174
20
14.294346907465599
0
LWPOLYLINE
5
185
100
AcDbEntity
8
0
100
AcDbPolyline
90
8
70
1
43
0.0
10
23.591892834728259
20
-4.7556530925344029
10
10.591892834728249
20
-4.7556530925344127
42
-0.41421356237309764
10
10.091892834728238
20
-4.2556530925344056
10
10.091892834728249
20
8.744346907465598
42
-0.41421356237310086
10
10.591892834728249
20
9.244346907465598
10
23.591892834728259
20
9.2443469074656015
42
-0.41421356237308982
10
24.09189283472827
20
8.744346907465598
10
24.091892834728235
20
-4.2556530925344038
42
-0.41421356237310447
0
LWPOLYLINE
5
186
100
AcDbEntity
8
0
100
AcDbPolyline
90
20
70
1
43
0.0
10
117.56639283472822
20
32.344346907465599
42
0.41421356237313667
10
118.06639283472821
20
32.844346907465592
42
-0.41421356237308982
10
118.56639283472825
20
33.344346907465592
10
134.6923928347282
20
33.344346907465585
42
-0.4142135623730534
10
135.19239283472822
20
32.844346907465592
42
0.41421356237310281
10
135.69239283472825
20
32.344346907465592
10
141.4423928347282
20
32.344346907465606
42
0.41421356237306639
10
141.94239283472822
20
32.844346907465592
42
-0.41421356237323553
10
142.44239283472822
20
33.344346907465898
10
142.65439283472827
20
33.344346907465898
42
0.41421356237305601
10
143.15439283472827
20
33.844346907465891
10
143.15439283472827
20
46.844346907465592
42
0.41421356237310542
10
142.65439283472824
20
47.344346907465599
10
110.6043928347283
20
47.344346907465592
42
0.4142135623730846
10
110.10439283472826
20
46.844346907465592
10
110.10439283472823
20
33.844346907465578
42
0.41421356237313928
10
110.60439283472826
20
33.344346907465585
10
110.81639283472823
20
33.344346907465606
42
-0.41421356237304302
10
111.31639283472822
20
32.844346907465592
42
0.41421356237315227
10
111.81639283472821
20
32.344346907465592
0
LWPOLYLINE
5
187
100
AcDbEntity
8
0
100
AcDbPolyline
90
8
70
1
43
0.0
10
-56.870607165271721
20
27.794346907465606
10
-56.870607165271743
20
14.794346907465599
42
-0.41421356237310153
10
-57.370607165271721
20
14.294346907465608
10
-70.370607165271736
20
14.294346907465606
42
-0.41421356237310802
10
-70.870607165271736
20
14.794346907465599
10
-70.870607165271736
20
27.794346907465609
42
-0.41421356237307944
10
-70.37060716527175
20
28.294346907465602
10
-57.37060716527175
20
28.294346907465609
42
-0.41421356237310281
0
LWPOLYLINE
5
188
100
AcDbEntity
8
0
100
AcDbPolyline
90
8
70
1
43
0.0
10
81.529392834728242
20
14.79434690746559
10
81.529392834728299
20
27.794346907465592
42
-0.41421356237312884
10
82.029392834728228
20
28.294346907465595
10
95.029392834728256
20
28.294346907465613
42
-0.41421356237302998
10
95.529392834728242
20
27.794346907465592
10
95.529392834728242
20
14.79434690746559
42
-0.41421356237308982
10
95.029392834728256
20
14.294346907465576
10
82.029392834728228
20
14.29434690746559
42
-0.41421356237303908
0
LWPOLYLINE
5
189
100
AcDbEntity
8
0
100
AcDbPolyline
90
8
70
1
43
0.0
10
-75.920607165271775
20
27.794346907465606
10
-75.920607165271775
20
14.794346907465599
42
-0.4142135623730625
10
-76.420607165271775
20
14.294346907465602
10
-89.420607165271747
20
14.294346907465599
42
-0.41421356237308071
10
-89.920607165271704
20
14.794346907465599
10
-89.920607165271718
20
27.794346907465609
42
-0.41421356237307944
10
-89.420607165271747
20
28.294346907465588
10
-76.420607165271747
20
28.294346907465599
42
-0.41421356237305601
0
LWPOLYLINE
5
190
100
AcDbEntity
8
0
100
AcDbPolyline
90
8
70
1
43
0.0
10
-85.158107165271701
20
-42.355653092534396
42
0.41421356237307944
10
-84.65810716527173
20
-42.855653092534382
10
-71.658107165271772
20
-42.855653092534389
42
0.41421356237308982
10
-71.158107165271772
20
-42.355653092534396
10
-71.158107165271772
20
-29.355653092534393
42
0.41421356237310802
10
-71.65810716527173
20
-28.855653092534389
10
-84.658107165271716
20
-28.855653092534389
42
0.41421356237310281
10
-85.158107165271701
20
-29.355653092534389
0
LWPOLYLINE
5
191
100
AcDbEntity
8
0
100
AcDbPolyline
90
8
70
1
43
0.0
10
-103.70810716527176
20
9.2443469074656033
42
0.4142135623731022
10
-104.20810716527174
20
8.7443469074656086
10
-104.20810716527174
20
-4.2556530925343994
42
0.41421356237310542
10
-103.70810716527174
20
-4.7556530925343861
10
-90.708107165271755
20
-4.7556530925344003
42
0.41421356237311713
10
-90.208107165271798
20
-4.2556530925343985
10
-90.20810716527177
20
8.7443469074656086
42
0.41421356237309959
10
-90.708107165271755
20
9.2443469074656033
0
LWPOLYLINE
5
192
100
AcDbEntity
8
0
100
AcDbPolyline
90
8
70
1
43
0.0
10
5.0418928347282677
20
8.7443469074656033
10
5.0418928347282579
20
-4.2556530925344038
42
-0.41421356237309437
10
4.5418928347282606
20
-4.7556530925344029
10
-8.4581071652717288
20
-4.7556530925344171
42
-0.41421356237309015
10
-8.9581071652717359
20
-4.2556530925344047
10
-8.9581071652717252
20
8.744346907465598
42
-0.41421356237309764
10
-8.4581071652717288
20
9.244346907465598
10
4.5418928347282606
20
9.2443469074656104
42
-0.4142135623730937
0
LWPOLYLINE
5
193
100
AcDbEntity
8
0
100
AcDbPolyline
90
8
70
1
43
0.0
10
57.42939283472829
20
27.794346907465592
10
57.429392834728262
20
14.794346907465599
42
-0.41421356237305862
10
56.929392834728283
20
14.294346907465592
10
43.929392834728262
20
14.294346907465577
42
-0.41421356237308721
10
43.429392834728262
20
14.794346907465599
10
43.429392834728276
20
27.794346907465592
42
-0.41421356237308721
10
43.92939283472824
20
28.294346907465595
10
56.929392834728283
20
28.294346907465592
42
-0.41421356237311063
0
LWPOLYLINE
5
194
100
AcDbEntity
8
0
100
AcDbPolyline
90
8
70
1
43
0.0
10
141.99189283472822
20
14.79434690746559
10
141.99189283472828
20
27.794346907465581
42
-0.41421356237310802
10
142.49189283472822
20
28.294346907465595
10
143.49189283472828
20
28.294346907465602
42
-0.41421356237306384
10
143.99189283472825
20
27.794346907465581
10
143.99189283472825
20
14.794346907465588
42
-0.41421356237307422
10
143.49189283472828
20
14.294346907465581
10
142.49189283472828
20
14.294346907465574
42
-0.41421356237302737
0
LWPOLYLINE
5
195
100
AcDbEntity
8
0
100
AcDbPolyline
90
8
70
1
43
0.0
10
124.39189283472825
20
14.79434690746559
42
0.41421356237308982
10
124.89189283472825
20
14.294346907465592
10
137.89189283472825
20
14.294346907465576
42
0.41421356237307422
10
138.39189283472822
20
14.794346907465588
10
138.39189283472822
20
27.794346907465581
42
0.41421356237306384
10
137.89189283472825
20
28.294346907465595
10
124.89189283472825
20
28.294346907465595
42
0.41421356237312884
10
124.39189283472825
20
27.794346907465592
0
LWPOLYLINE
5
196
100
AcDbEntity
8
0
100
AcDbPolyline
90
26
70
1
43
0.0
10
108.93969587276131
20
51.369346907465584
42
0.19891236737967105
10
109.64680265394784
20
51.662240126279066
10
112.41665113493127
20
54.432088607262514
42
-0.41421356237309392
10
116.94213453452517
20
54.432088607262585
10
119.71198301550882
20
51.662240126279002
42
0.19891236737970991
10
120.41908979669536
20
51.369346907465577
10
124.46219360065868
20
51.36934690746557
42
-0.99999999999999989
10
124.46219360065868
20
50.369346907465555
10
120.41908979669545
20
50.369346907465591
42
-0.19891236737969711
10
119.00487623432227
20
50.955133345092477
10
116.58294622532154
20
53.377063354093146
42
0.6681786379193364
10
115.72939283472823
20
53.023509963499862
10
115.72939283472823
20
52.169346907465609
42
-0.99999999999999989
10
113.62939283472826
20
52.169346907465588
10
113.62939283472821
20
53.023509963499826
42
0.66817863791932264
10
112.77583944413499
20
53.377063354093096
10
110.35390943513441
20
50.955133345092534
42
-0.19891236737966539
10
108.93969587276132
20
50.369346907465598
10
56.648485101673892
20
50.369346907465619
42
-0.99999999999999989
10
56.648485101673877
20
51.369346907465577
10
87.505339351166299
20
51.369346907465584
42
0.41421356237309631
10
89.505339351166242
20
53.369346907465598
10
89.505339351166228
20
53.869346907465584
42
-0.99999999999999989
10
91.605339351166236
20
53.869346907465584
10
91.605339351166265
20
53.369346907465591
42
0.41421356237310025
10
93.605339351166265
20
51.369346907465598
0
LWPOLYLINE
5
197
100
AcDbEntity
8
0
100
AcDbPolyline
90
26
70
1
43
0.0
10
103.35390943513465
20
-46.466439530161303
42
0.19891236737966642
10
101.93969587276158
20
-45.880653092534438
10
55.698485101673896
20
-45.880653092534416
42
0.99999999999999989
10
55.698485101673896
20
-46.880653092534416
10
86.555339351166225
20
-46.880653092534388
42
-0.41421356237309115
10
88.555339351166268
20
-48.880653092534388
10
88.555339351166282
20
-49.380653092534445
42
0.99999999999999989
10
90.655339351166262
20
-49.380653092534402
10
90.655339351166305
20
-48.880653092534388
42
-0.41421356237309115
10
92.655339351166234
20
-46.880653092534402
10
101.93969587276158
20
-46.880653092534416
42
-0.19891236737967485
10
102.64680265394813
20
-47.173546311347827
10
105.41665113493137
20
-49.943394792330899
42
0.41421356237308987
10
109.94213453452517
20
-49.943394792330871
10
112.71198301550814
20
-47.173546311347849
42
-0.19891236737965939
10
113.41908979669472
20
-46.880653092534388
10
123.51219360065866
20
-46.88065309253443
42
0.99999999999999989
10
123.51219360065872
20
-45.880653092534438
10
113.41908979669472
20
-45.880653092534445
42
0.19891236737966109
10
112.00487623432164
20
-46.466439530161352
10
109.58294622532149
20
-48.888369539161438
42
-0.66817863791926868
10
108.7293928347282
20
-48.53481614856819
10
108.72939283472824
20
-47.680653092533952
42
0.99999999999999989
10
106.62939283472824
20
-47.680653092533937
10
106.62939283472824
20
-48.53481614856819
42
-0.66817863791926335
10
105.77583944413497
20
-48.888369539161474
0
LWPOLYLINE
5
198
100
AcDbEntity
8
0
100
AcDbPolyline
90
14
70
1
43
0.0
10
-135.18310716527179
20
-41.305653703482051
10
-135.88310716527175
20
-41.305653703482072
42
0.41421356237307422
10
-136.38310716527178
20
-41.805653703482079
10
-136.38310716527175
20
-42.355653092534396
42
-0.4142135623730846
10
-136.88310716527178
20
-42.855653092534389
10
-137.88310716527172
20
-42.855653092534382
42
-0.41421356237311585
10
-138.38310716527175
20
-42.355653092534389
10
-138.38310716527172
20
-29.355653092534389
42
-0.41421356237315227
10
-137.88310716527175
20
-28.855653092534396
10
-136.88310716527172
20
-28.855653092534382
42
-0.41421356237307422
10
-136.38310716527175
20
-29.355653092534389
10
-136.38310716527178
20
-38.605653703482062
42
0.41421356237302481
10
-135.88310716527178
20
-39.105653703482062
10
-135.18310716527185
20
-39.105653703482062
42
-0.99999999999999989
0
LWPOLYLINE
5
199
100
AcDbEntity
8
0
100
AcDbPolyline
90
8
70
1
43
0.0
10
-104.99560716527174
20
33.344346907465614
10
-117.99560716527175
20
33.344346907465614
42
-0.41421356237313406
10
-118.49560716527174
20
33.844346907465599
10
-118.49560716527176
20
46.844346907465599
42
-0.41421356237304818
10
-117.99560716527176
20
47.344346907465614
10
-104.99560716527174
20
47.344346907465614
42
-0.41421356237314189
10
-104.49560716527174
20
46.844346907465599
10
-104.49560716527174
20
33.844346907465599
42
-0.41421356237310542
0
LWPOLYLINE
5
200
100
AcDbEntity
8
0
100
AcDbPolyline
90
8
70
1
43
0.0
10
-79.89560716527177
20
47.344346907465592
10
-66.895607165271741
20
47.344346907465599
42
-0.41421356237308982
10
-66.395607165271741
20
46.844346907465621
10
-66.395607165271784
20
33.844346907465614
42
-0.41421356237308721
10
-66.895607165271741
20
33.344346907465599
10
-79.895607165271727
20
33.344346907465614
42
-0.41421356237311324
10
-80.395607165271741
20
33.844346907465599
10
-80.395607165271741
20
46.844346907465599
42
-0.41421356237314189
0
LWPOLYLINE
5
201
100
AcDbEntity
8
0
100
AcDbPolyline
90
14
70
1
43
0.0
10
-116.38310716527188
20
-39.105653703482055
10
-115.68310716527179
20
-39.105653703482048
42
0.41421356237306123
10
-115.18310716527181
20
-38.605653703482076
10
-115.18310716527175
20
-29.355653092534389
42
-0.41421356237308721
10
-114.68310716527178
20
-28.8556530925344
10
-113.68310716527175
20
-28.855653092534421
42
-0.41421356237311585
10
-113.18310716527176
20
-29.355653092534375
10
-113.18310716527172
20
-42.355653092534396
42
-0.41421356237304818
10
-113.68310716527171
20
-42.855653092534382
10
-114.68310716527171
20
-42.855653092534389
42
-0.414213562373069
10
-115.18310716527174
20
-42.355653092534389
10
-115.18310716527176
20
-41.805653703482079
42
0.41421356237307944
10
-115.68310716527179
20
-41.305653703482079
10
-116.38310716527188
20
-41.305653703482044
42
-0.99999999999999989
0
LWPOLYLINE
5
202
100
AcDbEntity
8
0
100
AcDbPolyline
90
26
70
1
43
0.0
10
-110.974160555865
20
53.377063354093117
10
-113.39609056486567
20
50.955133345092563
42
-0.19891236737963042
10
-114.81030412723882
20
50.369346907465619
10
-118.85340793120213
20
50.369346907465612
42
-0.99999999999999989
10
-118.85340793120209
20
51.369346907465584
10
-114.81030412723882
20
51.369346907465584
42
0.1989123673795653
10
-114.10319734605231
20
51.662240126278995
10
-111.3333488650687
20
54.432088607262614
42
-0.41421356237310025
10
-106.80786546547473
20
54.432088607262514
10
-104.03801698449131
20
51.662240126279059
42
0.19891236737961776
10
-103.33091020330473
20
51.369346907465626
10
-87.996553681709727
20
51.369346907465577
42
0.41421356237309243
10
-85.996553681709727
20
53.369346907465591
10
-85.996553681709713
20
53.869346907465626
42
-0.99999999999999989
10
-83.896553681709747
20
53.869346907465584
10
-83.896553681709747
20
53.369346907465591
42
0.41421356237308721
10
-81.896553681709733
20
51.36934690746557
10
-51.039699432217333
20
51.36934690746557
42
-0.99999999999999989
10
-51.039699432217361
20
50.369346907465591
10
-103.33091020330473
20
50.369346907465612
42
-0.19891236737963872
10
-104.74512376567787
20
50.955133345092499
10
-107.16705377467845
20
53.377063354093089
42
0.6681786379192769
10
-108.02060716527173
20
53.023509963499819
10
-108.02060716527177
20
52.169346907465666
42
-0.99999999999999989
10
-110.12060716527176
20
52.169346907465581
10
-110.12060716527174
20
53.023509963499862
42
0.6681786379192971
0
LWPOLYLINE
5
203
100
AcDbEntity
8
0
100
AcDbPolyline
90
8
70
1
43
0.0
10
75.979392834728301
20
14.294346907465592
10
62.979392834728287
20
14.294346907465581
42
-0.41421356237308204
10
62.479392834728252
20
14.794346907465592
10
62.47939283472828
20
27.794346907465592
42
-0.414213562373069
10
62.97939283472828
20
28.294346907465595
10
75.979392834728316
20
28.294346907465609
42
-0.41421356237310025
10
76.479392834728301
20
27.794346907465592
10
76.479392834728301
20
14.79434690746559
42
-0.4142135623730937
0
LWPOLYLINE
5
204
100
AcDbEntity
8
0
100
AcDbPolyline
90
8
70
1
43
0.0
10
-94.970607165271744
20
-29.355653092534375
42
0.41421356237314966
10
-95.470607165271716
20
-28.855653092534382
10
-108.47060716527179
20
-28.855653092534389
42
0.41421356237307422
10
-108.97060716527172
20
-29.355653092534389
10
-108.97060716527173
20
-42.355653092534396
42
0.41421356237314189
10
-108.47060716527174
20
-42.855653092534396
10
-95.470607165271716
20
-42.855653092534411
42
0.41421356237305862
10
-94.970607165271716
20
-42.355653092534396
0
LWPOLYLINE
5
205
100
AcDbEntity
8
0
100
AcDbPolyline
90
8
70
1
43
0.0
10
-28.795607165271736
20
33.344346907465606
10
-41.79560716527174
20
33.344346907465592
42
-0.41421356237310281
10
-42.295607165271733
20
33.844346907465592
10
-42.295607165271733
20
46.844346907465599
42
-0.41421356237313145
10
-41.79560716527174
20
47.344346907465599
10
-28.795607165271733
20
47.344346907465599
42
-0.41421356237309764
10
-28.29560716527174
20
46.844346907465606
10
-28.295607165271729
20
33.844346907465599
42
-0.41421356237309503
0
LWPOLYLINE
5
206
100
AcDbEntity
8
0
100
AcDbPolyline
90
8
70
1
43
0.0
10
-3.6956071652717393
20
47.344346907465599
42
0.4142135623731048
10
-4.1956071652717366
20
46.844346907465599
10
-4.1956071652717464
20
33.844346907465585
42
0.41421356237308787
10
-3.6956071652717402
20
33.344346907465585
10
9.3043928347282439
20
33.344346907465606
42
0.4142135623730957
10
9.8043928347282439
20
33.844346907465599
10
9.8043928347282634
20
46.844346907465599
42
0.4142135623730937
10
9.3043928347282474
20
47.344346907465599
0
LWPOLYLINE
5
207
100
AcDbEntity
8
0
100
AcDbPolyline
90
8
70
1
43
0.0
10
91.054392834728205
20
33.844346907465592
10
91.054392834728262
20
46.844346907465592
42
-0.41421356237305862
10
91.554392834728233
20
47.344346907465606
10
104.5543928347282
20
47.344346907465614
42
-0.41421356237304302
10
105.05439283472828
20
46.844346907465592
10
105.05439283472828
20
33.844346907465599
42
-0.41421356237313406
10
104.55439283472828
20
33.344346907465599
10
91.554392834728276
20
33.344346907465592
42
-0.41421356237308982
0
LWPOLYLINE
5
208
100
AcDbEntity
8
0
100
AcDbPolyline
90
8
70
1
43
0.0
10
120.79189283472827
20
27.794346907465592
10
120.79189283472827
20
14.794346907465588
42
-0.41421356237306639
10
120.29189283472826
20
14.294346907465592
10
119.29189283472826
20
14.294346907465588
42
-0.41421356237309243
10
118.79189283472826
20
14.79434690746559
10
118.79189283472826
20
27.794346907465592
42
-0.41421356237307683
10
119.29189283472824
20
28.294346907465577
10
120.29189283472826
20
28.294346907465599
42
-0.41421356237301177
0
LWPOLYLINE
5
209
100
AcDbEntity
8
0
100
AcDbPolyline
90
8
70
1
43
0.0
10
-47.845607165271744
20
33.344346907465621
10
-60.845607165271758
20
33.344346907465592
42
-0.414213562373069
10
-61.345607165271758
20
33.844346907465599
10
-61.345607165271751
20
46.844346907465599
42
-0.41421356237311585
10
-60.845607165271758
20
47.344346907465606
10
-47.845607165271737
20
47.344346907465621
42
-0.41421356237313145
10
-47.345607165271737
20
46.844346907465621
10
-47.345607165271758
20
33.844346907465614
42
-0.41421356237307944
0
LWPOLYLINE
5
210
100
AcDbEntity
8
0
100
AcDbPolyline
90
8
70
1
43
0.0
10
85.504392834728236
20
33.344346907465592
10
72.504392834728222
20
33.344346907465585
42
-0.41421356237305862
10
72.004392834728236
20
33.844346907465592
10
72.004392834728264
20
46.844346907465592
42
-0.41421356237311063
10
72.504392834728264
20
47.344346907465592
10
85.504392834728264
20
47.344346907465606
42
-0.41421356237312101
10
86.004392834728264
20
46.844346907465592
10
86.004392834728179
20
33.844346907465599
42
-0.41421356237310542
0
LWPOLYLINE
5
211
100
AcDbEntity
8
0
100
AcDbPolyline
90
8
70
1
43
0.0
10
-88.758107165271753
20
-29.355653092534393
42
0.41421356237302737
10
-89.258107165271696
20
-28.855653092534375
10
-90.258107165271738
20
-28.855653092534371
42
0.41421356237305862
10
-90.758107165271724
20
-29.355653092534375
10
-90.758107165271753
20
-42.355653092534396
42
0.41421356237315227
10
-90.258107165271753
20
-42.855653092534396
10
-89.258107165271738
20
-42.855653092534418
42
0.4142135623730378
10
-88.758107165271696
20
-42.355653092534396
0
LWPOLYLINE
5
212
100
AcDbEntity
8
0
100
AcDbPolyline
90
8
70
1
43
0.0
10
-118.78310716527174
20
-29.355653092534389
42
0.41421356237304563
10
-119.28310716527177
20
-28.855653092534375
10
-132.28310716527179
20
-28.855653092534389
42
0.41421356237310281
10
-132.78310716527176
20
-29.355653092534389
10
-132.78310716527176
20
-42.355653092534389
42
0.41421356237311585
10
-132.28310716527173
20
-42.855653092534389
10
-119.28310716527173
20
-42.855653092534382
42
0.41421356237304818
10
-118.78310716527176
20
-42.355653092534396
0
LWPOLYLINE
5
213
100
AcDbEntity
8
0
100
AcDbPolyline
90
8
70
1
43
0.0
10
-65.558107165271736
20
-29.355653092534393
42
0.41421356237305079
10
-66.05810716527175
20
-28.855653092534389
10
-67.05810716527175
20
-28.855653092534386
42
0.41421356237307161
10
-67.558107165271721
20
-29.355653092534393
10
-67.558107165271764
20
-42.355653092534389
42
0.41421356237311063
10
-67.058107165271764
20
-42.855653092534382
10
-66.05810716527175
20
-42.855653092534382
42
0.41421356237311585
10
-65.558107165271736
20
-42.355653092534396
0
LWPOLYLINE
5
214
100
AcDbEntity
8
0
100
AcDbPolyline
90
8
70
1
43
0.0
10
-137.54560716527175
20
33.844346907465599
10
-137.54560716527178
20
46.844346907465599
42
-0.41421356237311063
10
-137.04560716527172
20
47.344346907465592
10
-124.04560716527178
20
47.344346907465606
42
-0.4142135623730222
10
-123.54560716527178
20
46.844346907465599
10
-123.54560716527178
20
33.844346907465599
42
-0.41421356237302737
10
-124.04560716527172
20
33.344346907465599
10
-137.04560716527175
20
33.344346907465621
42
-0.41421356237304818
0
LWPOLYLINE
5
215
100
AcDbEntity
8
0
100
AcDbPolyline
90
8
70
1
43
0.0
10
-22.745607165271736
20
47.344346907465599
42
0.41421356237309764
10
-23.245607165271739
20
46.844346907465599
10
-23.24560716527175
20
33.844346907465599
42
0.41421356237310025
10
-22.745607165271732
20
33.344346907465585
10
-9.7456071652717586
20
33.344346907465614
42
0.41421356237308787
10
-9.2456071652717604
20
33.844346907465599
10
-9.2456071652717515
20
46.844346907465599
42
0.41421356237309764
10
-9.7456071652717604
20
47.344346907465592
0
LWPOLYLINE
5
216
100
AcDbEntity
8
0
100
AcDbPolyline
90
8
70
1
43
0.0
10
-110.17635716527175
20
-24.305653092534371
10
-110.17635716527175
20
-9.3056530925343743
42
-0.41421356237309503
10
-109.67635716527177
20
-8.805653092534385
10
-103.72635716527176
20
-8.8056530925343779
42
-0.41421356237309309
10
-103.22635716527182
20
-9.3056530925343104
10
-103.22635716527172
20
-24.305653092534417
42
-0.41421356237309764
10
-103.72635716527171
20
-24.80565309253441
10
-109.67635716527171
20
-24.805653092534413
42
-0.41421356237309503
0
LWPOLYLINE
5
217
100
AcDbEntity
8
0
100
AcDbPolyline
90
8
70
1
43
0.0
10
132.71114283472826
20
-5.2556530925343603
10
132.71114283472826
20
9.7443469074655695
42
-0.41421356237309503
10
133.21114283472829
20
10.244346907465594
10
139.16114283472817
20
10.244346907465607
42
-0.41421356237309698
10
139.66114283472828
20
9.7443469074654878
10
139.66114283472822
20
-5.2556530925344465
42
-0.4142135623730937
10
139.16114283472828
20
-5.7556530925343985
10
133.21114283472832
20
-5.7556530925344038
42
-0.4142135623730957
0
LWPOLYLINE
5
218
100
AcDbEntity
8
0
100
AcDbPolyline
90
8
70
1
43
0.0
10
117.2481428347283
20
-4.2556530925344118
42
0.41421356237302542
10
117.74814283472828
20
-4.7556530925344251
10
130.74814283472827
20
-4.7556530925344056
42
0.41421356237308493
10
131.24814283472824
20
-4.2556530925344163
10
131.24814283472827
20
8.7443469074655926
42
0.41421356237303519
10
130.74814283472827
20
9.2443469074655997
10
117.74814283472824
20
9.2443469074655873
42
0.41421356237313078
10
117.24814283472826
20
8.7443469074655962
0
LWPOLYLINE
5
219
100
AcDbEntity
8
0
100
AcDbPolyline
90
8
70
1
43
0.0
10
14.066892834728248
20
-23.805653092534406
10
1.0668928347282414
20
-23.80565309253441
42
-0.41421356237309309
10
0.56689283472823671
20
-23.305653092534403
10
0.56689283472824115
20
-10.305653092534401
42
-0.41421356237309948
10
1.0668928347282425
20
-9.8056530925343992
10
14.066892834728243
20
-9.8056530925343939
42
-0.41421356237310025
10
14.566892834728256
20
-10.305653092534401
10
14.566892834728247
20
-23.305653092534403
42
-0.41421356237309243
0
LWPOLYLINE
5
220
100
AcDbEntity
8
0
100
AcDbPolyline
90
15
70
1
43
0.0
10
103.94764283472823
20
-24.305568588963958
42
0.41041094908314879
10
103.45414283472827
20
-23.805610840749182
42
-0.41041094908316167
10
102.96064283472829
20
-23.30565309253441
10
102.96064283472829
20
-10.305653092534413
42
-0.41421356237312101
10
103.46064283472828
20
-9.805653092534417
10
125.98564283472825
20
-9.8056530925344312
42
-0.41421356237310802
10
126.48564283472824
20
-10.305653092534408
10
126.48564283472822
20
-23.30565309253441
42
-0.4142135623730534
10
125.98564283472827
20
-23.80565309253441
10
111.64764283472823
20
-23.80565309253441
42
0.41421356237310802
10
111.14764283472823
20
-24.305653092534406
10
111.14764283472826
20
-25.305653092534367
42
-0.41421356237309503
10
110.64764283472826
20
-25.805653092534374
10
104.44764283472821
20
-25.805653092534371
42
-0.41421356237308982
10
103.94764283472823
20
-25.305653092534392
0
LWPOLYLINE
5
221
100
AcDbEntity
8
0
100
AcDbPolyline
90
8
70
1
43
0.0
10
97.360642834728282
20
-23.30565309253441
42
0.41421356237307422
10
97.860642834728253
20
-23.805653092534417
10
98.860642834728253
20
-23.805653092534413
42
0.41421356237305601
10
99.360642834728253
20
-23.305653092534403
10
99.360642834728296
20
-10.305653092534408
42
0.41421356237310802
10
98.860642834728196
20
-9.8056530925344028
10
97.860642834728253
20
-9.805653092534417
42
0.41421356237308721
10
97.360642834728282
20
-10.30565309253441
0
LWPOLYLINE
5
222
100
AcDbEntity
8
0
100
AcDbPolyline
90
8
70
1
43
0.0
10
76.766892834728225
20
-23.30565309253441
42
0.41421356237305601
10
77.266892834728225
20
-23.805653092534413
10
90.266892834728225
20
-23.805653092534399
42
0.41421356237308721
10
90.766892834728239
20
-23.305653092534403
10
90.766892834728239
20
-10.305653092534408
42
0.4142135623730937
10
90.266892834728225
20
-9.8056530925344028
10
77.266892834728225
20
-9.8056530925344081
42
0.41421356237312756
10
76.766892834728225
20
-10.305653092534406
0
LWPOLYLINE
5
223
100
AcDbEntity
8
0
100
AcDbPolyline
90
8
70
1
43
0.0
10
57.716892834728228
20
-23.30565309253441
42
0.41421356237310025
10
58.216892834728249
20
-23.80565309253441
10
71.21689283472827
20
-23.80565309253441
42
0.41421356237308982
10
71.716892834728228
20
-23.305653092534403
10
71.716892834728228
20
-10.305653092534406
42
0.41421356237310936
10
71.216892834728228
20
-9.8056530925343885
10
58.216892834728249
20
-9.8056530925344081
42
0.41421356237309892
10
57.716892834728242
20
-10.305653092534406
0
LWPOLYLINE
5
224
100
AcDbEntity
8
0
100
AcDbPolyline
90
8
70
1
43
0.0
10
38.666892834728252
20
-23.30565309253441
42
0.41421356237309503
10
39.166892834728259
20
-23.80565309253441
10
52.166892834728259
20
-23.805653092534399
42
0.41421356237310025
10
52.666892834728259
20
-23.30565309253441
10
52.666892834728287
20
-10.305653092534406
42
0.41421356237311585
10
52.166892834728259
20
-9.8056530925343814
10
39.166892834728259
20
-9.8056530925344028
42
0.41421356237308593
10
38.666892834728273
20
-10.305653092534408
0
LWPOLYLINE
5
225
100
AcDbEntity
8
0
100
AcDbPolyline
90
8
70
1
43
0.0
10
19.616892834728247
20
-23.305653092534403
42
0.41421356237307944
10
20.116892834728247
20
-23.805653092534396
10
33.116892834728262
20
-23.80565309253441
42
0.41421356237307944
10
33.616892834728255
20
-23.30565309253441
10
33.616892834728262
20
-10.305653092534406
42
0.41421356237308721
10
33.116892834728262
20
-9.8056530925343939
10
20.116892834728258
20
-9.8056530925344063
42
0.41421356237308721
10
19.616892834728251
20
-10.305653092534401
0
ENDSEC
0
SECTION
2
OBJECTS
0
DICTIONARY
5
C
100
AcDbDictionary
3
ACAD_GROUP
350
D
3
ACAD_MLINESTYLE
350
17
0
DICTIONARY
5
D
100
AcDbDictionary
0
DICTIONARY
5
1A
330
C
100
AcDbDictionary
0
DICTIONARY
5
17
100
AcDbDictionary
0
ENDSEC
0
EOF
