  0
SECTION
  2
HEADER
  9
$ACADVER
  1
AC1027
  9
$ACADMAINTVER
 70
   125
  9
$DWGCODEPAGE
  3
ANSI_949
  9
$LASTSAVEDBY
  1
junkibeom
  9
$REQUIREDVERSIONS
160
                 0
  9
$INSBASE
 10
0.0
 20
0.0
 30
0.0
  9
$EXTMIN
 10
-286.9425926059491
 20
-6.746487213135282
 30
0.0
  9
$EXTMAX
 10
-0.4425926357495205
 20
106.505512786865
 30
0.0
  9
$LIMMIN
 10
0.0
 20
0.0
  9
$LIMMAX
 10
12.0
 20
9.0
  9
$ORTHOMODE
 70
     0
  9
$REGENMODE
 70
     1
  9
$FILLMODE
 70
     1
  9
$QTEXTMODE
 70
     0
  9
$MIRRTEXT
 70
     0
  9
$LTSCALE
 40
1.0
  9
$ATTMODE
 70
     1
  9
$TEXTSIZE
 40
0.2
  9
$TRACEWID
 40
0.05
  9
$TEXTSTYLE
  7
STANDARD
  9
$CLAYER
  8
0
  9
$CELTYPE
  6
Continuous
  9
$CECOLOR
 62
   256
  9
$CELTSCALE
 40
1.0
  9
$DISPSILH
 70
     0
  9
$DIMSCALE
 40
1.0
  9
$DIMASZ
 40
0.18
  9
$DIMEXO
 40
0.0625
  9
$DIMDLI
 40
0.38
  9
$DIMRND
 40
0.0
  9
$DIMDLE
 40
0.0
  9
$DIMEXE
 40
0.18
  9
$DIMTP
 40
0.0
  9
$DIMTM
 40
0.0
  9
$DIMTXT
 40
0.18
  9
$DIMCEN
 40
0.09
  9
$DIMTSZ
 40
0.0
  9
$DIMTOL
 70
     0
  9
$DIMLIM
 70
     0
  9
$DIMTIH
 70
     1
  9
$DIMTOH
 70
     1
  9
$DIMSE1
 70
     0
  9
$DIMSE2
 70
     0
  9
$DIMTAD
 70
     0
  9
$DIMZIN
 70
     0
  9
$DIMBLK
  1

  9
$DIMASO
 70
     1
  9
$DIMSHO
 70
     1
  9
$DIMPOST
  1

  9
$DIMAPOST
  1

  9
$DIMALT
 70
     0
  9
$DIMALTD
 70
     2
  9
$DIMALTF
 40
25.4
  9
$DIMLFAC
 40
1.0
  9
$DIMTOFL
 70
     0
  9
$DIMTVP
 40
0.0
  9
$DIMTIX
 70
     0
  9
$DIMSOXD
 70
     0
  9
$DIMSAH
 70
     0
  9
$DIMBLK1
  1

  9
$DIMBLK2
  1

  9
$DIMSTYLE
  2
Standard
  9
$DIMCLRD
 70
     0
  9
$DIMCLRE
 70
     0
  9
$DIMCLRT
 70
     0
  9
$DIMTFAC
 40
1.0
  9
$DIMGAP
 40
0.09
  9
$DIMJUST
 70
     0
  9
$DIMSD1
 70
     0
  9
$DIMSD2
 70
     0
  9
$DIMTOLJ
 70
     1
  9
$DIMTZIN
 70
     0
  9
$DIMALTZ
 70
     0
  9
$DIMALTTZ
 70
     0
  9
$DIMUPT
 70
     0
  9
$DIMDEC
 70
     4
  9
$DIMTDEC
 70
     4
  9
$DIMALTU
 70
     2
  9
$DIMALTTD
 70
     2
  9
$DIMTXSTY
  7
STANDARD
  9
$DIMAUNIT
 70
     0
  9
$DIMADEC
 70
     0
  9
$DIMALTRND
 40
0.0
  9
$DIMAZIN
 70
     0
  9
$DIMDSEP
 70
    46
  9
$DIMATFIT
 70
     3
  9
$DIMFRAC
 70
     0
  9
$DIMLDRBLK
  1

  9
$DIMLUNIT
 70
     2
  9
$DIMLWD
 70
    -2
  9
$DIMLWE
 70
    -2
  9
$DIMTMOVE
 70
     0
  9
$DIMFXL
 40
1.0
  9
$DIMFXLON
 70
     0
  9
$DIMJOGANG
 40
0.7853981633974483
  9
$DIMTFILL
 70
     0
  9
$DIMTFILLCLR
 70
     0
  9
$DIMARCSYM
 70
     0
  9
$DIMLTYPE
  6

  9
$DIMLTEX1
  6

  9
$DIMLTEX2
  6

  9
$DIMTXTDIRECTION
 70
     0
  9
$LUNITS
 70
     2
  9
$LUPREC
 70
     4
  9
$SKETCHINC
 40
0.1
  9
$FILLETRAD
 40
0.0
  9
$AUNITS
 70
     0
  9
$AUPREC
 70
     0
  9
$MENU
  1
.
  9
$ELEVATION
 40
0.0
  9
$PELEVATION
 40
0.0
  9
$THICKNESS
 40
0.0
  9
$LIMCHECK
 70
     0
  9
$CHAMFERA
 40
0.0
  9
$CHAMFERB
 40
0.0
  9
$CHAMFERC
 40
0.0
  9
$CHAMFERD
 40
0.0
  9
$SKPOLY
 70
     0
  9
$TDCREATE
 40
2461091.181168981
  9
$TDUCREATE
 40
2461090.806168982
  9
$TDUPDATE
 40
2461091.181296296
  9
$TDUUPDATE
 40
2461090.806296297
  9
$TDINDWG
 40
0.0001273148
  9
$TDUSRTIMER
 40
0.0001273148
  9
$USRTIMER
 70
     1
  9
$ANGBASE
 50
0.0
  9
$ANGDIR
 70
     0
  9
$PDMODE
 70
     0
  9
$PDSIZE
 40
0.0
  9
$PLINEWID
 40
0.0
  9
$SPLFRAME
 70
     0
  9
$SPLINETYPE
 70
     6
  9
$SPLINESEGS
 70
     8
  9
$HANDSEED
  5
10083
  9
$SURFTAB1
 70
     6
  9
$SURFTAB2
 70
     6
  9
$SURFTYPE
 70
     6
  9
$SURFU
 70
     6
  9
$SURFV
 70
     6
  9
$UCSBASE
  2

  9
$UCSNAME
  2

  9
$UCSORG
 10
0.0
 20
0.0
 30
0.0
  9
$UCSXDIR
 10
1.0
 20
0.0
 30
0.0
  9
$UCSYDIR
 10
0.0
 20
1.0
 30
0.0
  9
$UCSORTHOREF
  2

  9
$UCSORTHOVIEW
 70
     0
  9
$UCSORGTOP
 10
0.0
 20
0.0
 30
0.0
  9
$UCSORGBOTTOM
 10
0.0
 20
0.0
 30
0.0
  9
$UCSORGLEFT
 10
0.0
 20
0.0
 30
0.0
  9
$UCSORGRIGHT
 10
0.0
 20
0.0
 30
0.0
  9
$UCSORGFRONT
 10
0.0
 20
0.0
 30
0.0
  9
$UCSORGBACK
 10
0.0
 20
0.0
 30
0.0
  9
$PUCSBASE
  2

  9
$PUCSNAME
  2

  9
$PUCSORG
 10
0.0
 20
0.0
 30
0.0
  9
$PUCSXDIR
 10
1.0
 20
0.0
 30
0.0
  9
$PUCSYDIR
 10
0.0
 20
1.0
 30
0.0
  9
$PUCSORTHOREF
  2

  9
$PUCSORTHOVIEW
 70
     0
  9
$PUCSORGTOP
 10
0.0
 20
0.0
 30
0.0
  9
$PUCSORGBOTTOM
 10
0.0
 20
0.0
 30
0.0
  9
$PUCSORGLEFT
 10
0.0
 20
0.0
 30
0.0
  9
$PUCSORGRIGHT
 10
0.0
 20
0.0
 30
0.0
  9
$PUCSORGFRONT
 10
0.0
 20
0.0
 30
0.0
  9
$PUCSORGBACK
 10
0.0
 20
0.0
 30
0.0
  9
$USERI1
 70
     0
  9
$USERI2
 70
     0
  9
$USERI3
 70
     0
  9
$USERI4
 70
     0
  9
$USERI5
 70
     0
  9
$USERR1
 40
0.0
  9
$USERR2
 40
0.0
  9
$USERR3
 40
0.0
  9
$USERR4
 40
0.0
  9
$USERR5
 40
0.0
  9
$WORLDVIEW
 70
     1
  9
$SHADEDGE
 70
     3
  9
$SHADEDIF
 70
    70
  9
$TILEMODE
 70
     1
  9
$MAXACTVP
 70
    64
  9
$PINSBASE
 10
0.0
 20
0.0
 30
0.0
  9
$PLIMCHECK
 70
     0
  9
$PEXTMIN
 10
1.000000000000000E+20
 20
1.000000000000000E+20
 30
1.000000000000000E+20
  9
$PEXTMAX
 10
-1.000000000000000E+20
 20
-1.000000000000000E+20
 30
-1.000000000000000E+20
  9
$PLIMMIN
 10
0.0
 20
0.0
  9
$PLIMMAX
 10
12.0
 20
9.0
  9
$UNITMODE
 70
     0
  9
$VISRETAIN
 70
     1
  9
$PLINEGEN
 70
     0
  9
$PSLTSCALE
 70
     1
  9
$TREEDEPTH
 70
  3020
  9
$CMLSTYLE
  2
Standard
  9
$CMLJUST
 70
     0
  9
$CMLSCALE
 40
1.0
  9
$PROXYGRAPHICS
 70
     1
  9
$MEASUREMENT
 70
     0
  9
$CELWEIGHT
370
    -1
  9
$ENDCAPS
280
     0
  9
$JOINSTYLE
280
     0
  9
$LWDISPLAY
290
     0
  9
$INSUNITS
 70
     4
  9
$HYPERLINKBASE
  1

  9
$STYLESHEET
  1

  9
$XEDIT
290
     1
  9
$CEPSNTYPE
380
     0
  9
$PSTYLEMODE
290
     1
  9
$FINGERPRINTGUID
  2
{200EE7A8-B074-9840-B144-CCE000928958}
  9
$VERSIONGUID
  2
{C2AABC66-AA38-2040-8D0C-61515F5D2CF1}
  9
$EXTNAMES
290
     1
  9
$PSVPSCALE
 40
0.0
  9
$OLESTARTUP
290
     0
  9
$SORTENTS
280
   127
  9
$INDEXCTL
280
     0
  9
$HIDETEXT
280
     0
  9
$XCLIPFRAME
280
     2
  9
$HALOGAP
280
     0
  9
$OBSCOLOR
 70
   257
  9
$OBSLTYPE
280
     0
  9
$INTERSECTIONDISPLAY
280
     0
  9
$INTERSECTIONCOLOR
 70
   257
  9
$DIMASSOC
280
     1
  9
$PROJECTNAME
  1

  9
$CAMERADISPLAY
290
     0
  9
$LENSLENGTH
 40
50.0
  9
$CAMERAHEIGHT
 40
0.0
  9
$STEPSPERSEC
 40
2.0
  9
$STEPSIZE
 40
6.0
  9
$3DDWFPREC
 40
2.0
  9
$PSOLWIDTH
 40
0.25
  9
$PSOLHEIGHT
 40
4.0
  9
$LOFTANG1
 40
1.570796326794896
  9
$LOFTANG2
 40
1.570796326794896
  9
$LOFTMAG1
 40
0.0
  9
$LOFTMAG2
 40
0.0
  9
$LOFTPARAM
 70
     7
  9
$LOFTNORMALS
280
     1
  9
$LATITUDE
 40
37.795
  9
$LONGITUDE
 40
-122.394
  9
$NORTHDIRECTION
 40
0.0
  9
$TIMEZONE
 70
 -8000
  9
$LIGHTGLYPHDISPLAY
280
     1
  9
$TILEMODELIGHTSYNCH
280
     1
  9
$CMATERIAL
347
10005
  9
$SOLIDHIST
280
     0
  9
$SHOWHIST
280
     1
  9
$DWFFRAME
280
     2
  9
$DGNFRAME
280
     0
  9
$REALWORLDSCALE
290
     1
  9
$INTERFERECOLOR
 62
     1
  9
$INTERFEREOBJVS
345
10027
  9
$INTERFEREVPVS
346
10024
  9
$CSHADOW
280
     0
  9
$SHADOWPLANELOCATION
 40
0.0
  0
ENDSEC
  0
SECTION
  2
CLASSES
  0
CLASS
  1
ACDBDICTIONARYWDFLT
  2
AcDbDictionaryWithDefault
  3
ObjectDBX Classes
 90
        0
 91
        1
280
     0
281
     0
  0
CLASS
  1
MATERIAL
  2
AcDbMaterial
  3
ObjectDBX Classes
 90
     1153
 91
        3
280
     0
281
     0
  0
CLASS
  1
VISUALSTYLE
  2
AcDbVisualStyle
  3
ObjectDBX Classes
 90
     4095
 91
       24
280
     0
281
     0
  0
CLASS
  1
TABLESTYLE
  2
AcDbTableStyle
  3
ObjectDBX Classes
 90
     4095
 91
        1
280
     0
281
     0
  0
CLASS
  1
SCALE
  2
AcDbScale
  3
ObjectDBX Classes
 90
     1153
 91
       17
280
     0
281
     0
  0
CLASS
  1
MLEADERSTYLE
  2
AcDbMLeaderStyle
  3
ACDB_MLEADERSTYLE_CLASS
 90
     4095
 91
        1
280
     0
281
     0
  0
CLASS
  1
ACDBSECTIONVIEWSTYLE
  2
AcDbSectionViewStyle
  3
ObjectDBX Classes
 90
     1025
 91
        1
280
     0
281
     0
  0
CLASS
  1
ACDBDETAILVIEWSTYLE
  2
AcDbDetailViewStyle
  3
ObjectDBX Classes
 90
     1025
 91
        1
280
     0
281
     0
  0
CLASS
  1
SOLID_BACKGROUND
  2
AcDbSolidBackground
  3
SCENEOE
 90
     4095
 91
        1
280
     0
281
     0
  0
CLASS
  1
NPOCOLLECTION
  2
AcDbImpNonPersistentObjectsCollection
  3
ObjectDBX Classes
 90
     1153
 91
        1
280
     0
281
     0
  0
CLASS
  1
DICTIONARYVAR
  2
AcDbDictionaryVar
  3
ObjectDBX Classes
 90
        0
 91
        9
280
     0
281
     0
  0
CLASS
  1
CELLSTYLEMAP
  2
AcDbCellStyleMap
  3
ObjectDBX Classes
 90
     1152
 91
        1
280
     0
281
     0
  0
ENDSEC
  0
SECTION
  2
TABLES
  0
TABLE
  2
VPORT
  5
8
330
0
100
AcDbSymbolTable
 70
     1
1001
ACAD
1000
DbSaveVer
1071
      316
  0
VPORT
  5
10059
330
8
100
AcDbSymbolTableRecord
100
AcDbViewportTableRecord
  2
*Active
 70
     0
 10
0.0
 20
0.0
 11
1.0
 21
1.0
 12
0.0
 22
0.0
 13
0.0
 23
0.0
 14
1.0
 24
1.0
 15
0.0
 25
0.0
 16
-0.0000000000001421
 26
0.0
 36
659.2887630816501
 17
-143.6925945281982
 27
49.87951445579529
 37
0.0
 40
308.071855924923
 41
1.433566433566433
 42
50.0
 43
0.0
 44
0.0
 50
0.0
 51
0.0
 71
     0
 72
  1000
 73
     1
 74
     3
 75
     0
 76
     0
 77
     0
 78
     0
281
     0
 65
     1
110
0.0
120
0.0
130
0.0
111
1.0
121
0.0
131
0.0
112
0.0
122
1.0
132
0.0
 79
     0
146
0.0
348
10023
 60
     3
 61
     5
292
     1
282
     1
141
0.0
142
0.0
 63
   250
421
  3355443
1001
ACAD_NAV_VCDISPLAY
1070
     3
  0
ENDTAB
  0
TABLE
  2
LTYPE
  5
5
330
0
100
AcDbSymbolTable
 70
     2
  0
LTYPE
  5
14
330
5
100
AcDbSymbolTableRecord
100
AcDbLinetypeTableRecord
  2
BYBLOCK
 70
     0
  3

 72
    65
 73
     0
 40
0.0
  0
LTYPE
  5
15
330
5
100
AcDbSymbolTableRecord
100
AcDbLinetypeTableRecord
  2
BYLAYER
 70
     0
  3

 72
    65
 73
     0
 40
0.0
  0
LTYPE
  5
10001
330
5
100
AcDbSymbolTableRecord
100
AcDbLinetypeTableRecord
  2
Continuous
 70
     0
  3
Solid line
 72
    65
 73
     0
 40
0.0
  0
LTYPE
  5
16
330
5
100
AcDbSymbolTableRecord
100
AcDbLinetypeTableRecord
  2
DASHED
 70
     0
  3
Dashed __ __ __ __ __ __ __ __ __ __ __ __ __ _
 72
    65
 73
     2
 40
0.75
 49
0.5
 74
     0
 49
-0.25
 74
     0
  0
ENDTAB
  0
TABLE
  2
LAYER
  5
2
102
{ACAD_XDICTIONARY
360
10064
102
}
330
0
100
AcDbSymbolTable
 70
     1
  0
LAYER
  5
50
102
{ACAD_XDICTIONARY
360
1005F
102
}
330
2
100
AcDbSymbolTableRecord
100
AcDbLayerTableRecord
  2
0
 70
     0
 62
     7
  6
Continuous
370
    -3
390
10003
347
10015
348
0
  0
ENDTAB
  0
TABLE
  2
STYLE
  5
3
330
0
100
AcDbSymbolTable
 70
     1
  0
STYLE
  5
11
330
3
100
AcDbSymbolTableRecord
100
AcDbTextStyleTableRecord
  2
STANDARD
 70
     0
 40
0.0
 41
1.0
 50
0.0
 71
     0
 42
0.2
  3

  4

  0
ENDTAB
  0
TABLE
  2
VIEW
  5
6
330
0
100
AcDbSymbolTable
 70
     1
  0
ENDTAB
  0
TABLE
  2
UCS
  5
7
330
0
100
AcDbSymbolTable
 70
     0
  0
ENDTAB
  0
TABLE
  2
APPID
  5
9
330
0
100
AcDbSymbolTable
 70
     2
  0
APPID
  5
12
330
9
100
AcDbSymbolTableRecord
100
AcDbRegAppTableRecord
  2
ACAD
 70
     0
  0
APPID
  5
10058
330
9
100
AcDbSymbolTableRecord
100
AcDbRegAppTableRecord
  2
ACAD_NAV_VCDISPLAY
 70
     0
  0
ENDTAB
  0
TABLE
  2
DIMSTYLE
  5
A
330
0
100
AcDbSymbolTable
 70
     1
100
AcDbDimStyleTable
 71
     0
  0
DIMSTYLE
105
10053
330
A
100
AcDbSymbolTableRecord
100
AcDbDimStyleTableRecord
  2
Standard
 70
     0
340
11
  0
ENDTAB
  0
TABLE
  2
BLOCK_RECORD
  5
1
330
0
100
AcDbSymbolTable
 70
     0
  0
BLOCK_RECORD
  5
1F
330
1
100
AcDbSymbolTableRecord
100
AcDbBlockTableRecord
  2
*MODEL_SPACE
340
10055
 70
     0
280
     1
281
     0
  0
BLOCK_RECORD
  5
1B
330
1
100
AcDbSymbolTableRecord
100
AcDbBlockTableRecord
  2
*PAPER_SPACE
340
10056
 70
     0
280
     1
281
     0
  0
ENDTAB
  0
ENDSEC
  0
SECTION
  2
BLOCKS
  0
BLOCK
  5
20
330
1F
100
AcDbEntity
  8
0
100
AcDbBlockBegin
  2
*MODEL_SPACE
 70
     0
 10
0.0
 20
0.0
 30
0.0
  3
*MODEL_SPACE
  1

  0
ENDBLK
  5
21
330
1F
100
AcDbEntity
  8
0
100
AcDbBlockEnd
  0
BLOCK
  5
1C
330
1B
100
AcDbEntity
 67
     1
  8
0
100
AcDbBlockBegin
  2
*PAPER_SPACE
 70
     0
 10
0.0
 20
0.0
 30
0.0
  3
*PAPER_SPACE
  1

  0
ENDBLK
  5
1D
330
1B
100
AcDbEntity
 67
     1
  8
0
100
AcDbBlockEnd
  0
ENDSEC
  0
SECTION
  2
ENTITIES
  0
ARC
  5
100
330
1F
100
AcDbEntity
  8
0
100
AcDbCircle
 10
-232.434060901541
 20
97.2741419369669
 30
0.0
 40
1.000000000000029
100
AcDbArc
 50
33.65714355414718
 51
89.99999999999998
  0
LINE
  5
101
330
1F
100
AcDbEntity
  8
0
100
AcDbLine
 10
-232.434060901541
 20
98.27414193696695
 30
0.0
 11
-235.01759262085
 21
98.27414193696682
 31
0.0
  0
ARC
  5
102
330
1F
100
AcDbEntity
  8
0
100
AcDbCircle
 10
-235.01759262085
 20
100.274141936967
 30
0.0
 40
1.999999999999992
100
AcDbArc
 50
180.0
 51
270.0
  0
LINE
  5
103
330
1F
100
AcDbEntity
  8
0
100
AcDbLine
 10
-237.01759262085
 20
100.274141936967
 30
0.0
 11
-237.01759262085
 21
104.505512786865
 31
0.0
  0
ARC
  5
104
330
1F
100
AcDbEntity
  8
0
100
AcDbCircle
 10
-239.01759262085
 20
104.505512786865
 30
0.0
 40
1.999999999999992
100
AcDbArc
 50
0.0
 51
89.99999999999998
  0
LINE
  5
105
330
1F
100
AcDbEntity
  8
0
100
AcDbLine
 10
-239.01759262085
 20
106.505512786865
 30
0.0
 11
-258.17599064715
 21
106.505512786865
 31
0.0
  0
ARC
  5
106
330
1F
100
AcDbEntity
  8
0
100
AcDbCircle
 10
-258.17599064715
 20
105.505512786865
 30
0.0
 40
0.9999999999999607
100
AcDbArc
 50
89.99999999999678
 51
163.3984504009425
  0
ARC
  5
107
330
1F
100
AcDbEntity
  8
0
100
AcDbCircle
 10
-261.5300926134001
 20
106.505512786865
 30
0.0
 40
2.49999999999999
100
AcDbArc
 50
196.6015495990088
 51
343.3984504009974
  0
ARC
  5
108
330
1F
100
AcDbEntity
  8
0
100
AcDbCircle
 10
-264.8841945796489
 20
105.505512786865
 30
0.0
 40
0.9999999999992992
100
AcDbArc
 50
16.60154959905925
 51
90.00000000000323
  0
LINE
  5
109
330
1F
100
AcDbEntity
  8
0
100
AcDbLine
 10
-264.884194579649
 20
106.505512786865
 30
0.0
 11
-284.9425926059491
 21
106.505512786865
 31
0.0
  0
ARC
  5
110
330
1F
100
AcDbEntity
  8
0
100
AcDbCircle
 10
-284.9425926059491
 20
104.505512786865
 30
0.0
 40
1.999999999999975
100
AcDbArc
 50
90.0
 51
180.0
  0
LINE
  5
111
330
1F
100
AcDbEntity
  8
0
100
AcDbLine
 10
-286.942592605949
 20
104.505512786865
 30
0.0
 11
-286.942592605948
 21
-4.746487213135033
 31
0.0
  0
ARC
  5
112
330
1F
100
AcDbEntity
  8
0
100
AcDbCircle
 10
-284.942592605948
 20
-4.746487213135029
 30
0.0
 40
1.999999999999992
100
AcDbArc
 50
180.0
 51
270.0
  0
LINE
  5
113
330
1F
100
AcDbEntity
  8
0
100
AcDbLine
 10
-284.942592605948
 20
-6.746487213135021
 30
0.0
 11
-267.334194579649
 21
-6.746487213135007
 31
0.0
  0
ARC
  5
114
330
1F
100
AcDbEntity
  8
0
100
AcDbCircle
 10
-267.334194579649
 20
-5.746487213135
 30
0.0
 40
1.000000000000006
100
AcDbArc
 50
270.0
 51
343.3984504009822
  0
ARC
  5
115
330
1F
100
AcDbEntity
  8
0
100
AcDbCircle
 10
-263.980092613399
 20
-6.746487213135043
 30
0.0
 40
2.500000000000017
100
AcDbArc
 50
16.60154959901937
 51
163.3984504009801
  0
ARC
  5
116
330
1F
100
AcDbEntity
  8
0
100
AcDbCircle
 10
-260.6259906471491
 20
-5.746487213135048
 30
0.0
 40
1.000000000000234
100
AcDbArc
 50
196.6015495990181
 51
270.0000000000033
  0
LINE
  5
117
330
1F
100
AcDbEntity
  8
0
100
AcDbLine
 10
-260.625990647149
 20
-6.746487213134987
 30
0.0
 11
-243.91759262085
 21
-6.74648721313501
 31
0.0
  0
ARC
  5
118
330
1F
100
AcDbEntity
  8
0
100
AcDbCircle
 10
-243.91759262085
 20
-4.74648721313502
 30
0.0
 40
1.999999999999989
100
AcDbArc
 50
270.0
 51
0.0
  0
LINE
  5
119
330
1F
100
AcDbEntity
  8
0
100
AcDbLine
 10
-241.91759262085
 20
-4.746487213135011
 30
0.0
 11
-241.91759262085
 21
0.4848836367634693
 31
0.0
  0
ARC
  5
120
330
1F
100
AcDbEntity
  8
0
100
AcDbCircle
 10
-239.91759262085
 20
0.4848836367634674
 30
0.0
 40
2.0
100
AcDbArc
 50
89.99999999999998
 51
180.0
  0
LINE
  5
121
330
1F
100
AcDbEntity
  8
0
100
AcDbLine
 10
-239.91759262085
 20
2.484883636763466
 30
0.0
 11
-237.334060901541
 21
2.484883636763469
 31
0.0
  0
ARC
  5
122
330
1F
100
AcDbEntity
  8
0
100
AcDbCircle
 10
-237.334060901541
 20
3.484883636763427
 30
0.0
 40
0.9999999999999587
100
AcDbArc
 50
270.0
 51
326.3428564458544
  0
ELLIPSE
  5
123
330
1F
100
AcDbEntity
  8
0
100
AcDbEllipse
 10
-234.31759262085
 20
0.0221534739841918
 30
0.0
 11
0.0000000000000261
 21
-4.242640687119259
 31
0.0
210
0.0
220
0.0
230
1.0
 40
0.7071067811865494
 41
2.32614417143249
 42
3.957041135747094
  0
ARC
  5
124
330
1F
100
AcDbEntity
  8
0
100
AcDbCircle
 10
-231.3011243401589
 20
3.48488363676354
 30
0.0
 40
1.000000000000051
100
AcDbArc
 50
213.6571435541491
 51
269.9999999999984
  0
LINE
  5
125
330
1F
100
AcDbEntity
  8
0
100
AcDbLine
 10
-231.3011243401589
 20
2.48488363676346
 30
0.0
 11
-228.71759262085
 21
2.484883636763468
 31
0.0
  0
ARC
  5
126
330
1F
100
AcDbEntity
  8
0
100
AcDbCircle
 10
-228.71759262085
 20
0.484883636763466
 30
0.0
 40
1.999999999999992
100
AcDbArc
 50
0.0
 51
89.99999999999998
  0
LINE
  5
127
330
1F
100
AcDbEntity
  8
0
100
AcDbLine
 10
-226.71759262085
 20
0.4848836367634675
 30
0.0
 11
-226.71759262085
 21
-4.746487213135012
 31
0.0
  0
ARC
  5
128
330
1F
100
AcDbEntity
  8
0
100
AcDbCircle
 10
-224.71759262085
 20
-4.746487213135023
 30
0.0
 40
2.000000000000028
100
AcDbArc
 50
180.0
 51
270.0
  0
LINE
  5
129
330
1F
100
AcDbEntity
  8
0
100
AcDbLine
 10
-224.71759262085
 20
-6.746487213135015
 30
0.0
 11
-62.66759262084988
 21
-6.746487213135032
 31
0.0
  0
ARC
  5
130
330
1F
100
AcDbEntity
  8
0
100
AcDbCircle
 10
-62.66759262084989
 20
-4.746487213135029
 30
0.0
 40
2.000000000000002
100
AcDbArc
 50
270.0000000000003
 51
0.0
  0
LINE
  5
131
330
1F
100
AcDbEntity
  8
0
100
AcDbLine
 10
-60.66759262084989
 20
-4.746487213135033
 30
0.0
 11
-60.66759262084989
 21
0.4848836367634471
 31
0.0
  0
ARC
  5
132
330
1F
100
AcDbEntity
  8
0
100
AcDbCircle
 10
-58.6675926208499
 20
0.4848836367634452
 30
0.0
 40
2.0
100
AcDbArc
 50
89.99999999999998
 51
180.0
  0
LINE
  5
133
330
1F
100
AcDbEntity
  8
0
100
AcDbLine
 10
-58.6675926208499
 20
2.484883636763444
 30
0.0
 11
-56.084060901541
 21
2.484883636763446
 31
0.0
  0
ARC
  5
134
330
1F
100
AcDbEntity
  8
0
100
AcDbCircle
 10
-56.08406090154099
 20
3.484883636763439
 30
0.0
 40
0.9999999999999925
100
AcDbArc
 50
269.9999999999992
 51
326.3428564458587
  0
ELLIPSE
  5
135
330
1F
100
AcDbEntity
  8
0
100
AcDbEllipse
 10
-53.06759262084991
 20
0.0221534739842051
 30
0.0
 11
0.0000000000000172
 21
-4.24264068711924
 31
0.0
210
0.0
220
0.0
230
1.0
 40
0.7071067811865479
 41
2.32614417143251
 42
3.957041135747088
  0
ARC
  5
136
330
1F
100
AcDbEntity
  8
0
100
AcDbCircle
 10
-50.05112434015889
 20
3.484883636763467
 30
0.0
 40
0.9999999999999673
100
AcDbArc
 50
213.6571435541419
 51
269.9999999999992
  0
LINE
  5
137
330
1F
100
AcDbEntity
  8
0
100
AcDbLine
 10
-50.0511243401589
 20
2.484883636763446
 30
0.0
 11
-47.46759262084989
 21
2.484883636763445
 31
0.0
  0
ARC
  5
138
330
1F
100
AcDbEntity
  8
0
100
AcDbCircle
 10
-47.46759262084989
 20
0.4848836367634438
 30
0.0
 40
2.000000000000001
100
AcDbArc
 50
0.0
 51
89.99999999999998
  0
LINE
  5
139
330
1F
100
AcDbEntity
  8
0
100
AcDbLine
 10
-45.46759262084989
 20
0.4848836367634453
 30
0.0
 11
-45.46759262084989
 21
-4.746487213135035
 31
0.0
  0
ARC
  5
140
330
1F
100
AcDbEntity
  8
0
100
AcDbCircle
 10
-43.46759262084988
 20
-4.746487213135027
 30
0.0
 40
2.00000000000001
100
AcDbArc
 50
180.0
 51
269.9999999999995
  0
LINE
  5
141
330
1F
100
AcDbEntity
  8
0
100
AcDbLine
 10
-43.46759262084989
 20
-6.746487213135035
 30
0.0
 11
-26.75919459454941
 21
-6.746487213135036
 31
0.0
  0
ARC
  5
142
330
1F
100
AcDbEntity
  8
0
100
AcDbCircle
 10
-26.7591945945494
 20
-5.746487213135044
 30
0.0
 40
0.999999999999992
100
AcDbArc
 50
269.9999999999998
 51
343.3984504009798
  0
ARC
  5
143
330
1F
100
AcDbEntity
  8
0
100
AcDbCircle
 10
-23.40509262829981
 20
-6.746487213135058
 30
0.0
 40
2.500000000000001
100
AcDbArc
 50
16.60154959902036
 51
163.3984504009788
  0
ARC
  5
144
330
1F
100
AcDbEntity
  8
0
100
AcDbCircle
 10
-20.05099066205009
 20
-5.746487213135032
 30
0.0
 40
1.000000000000029
100
AcDbArc
 50
196.6015495990209
 51
269.9999999999995
  0
LINE
  5
145
330
1F
100
AcDbEntity
  8
0
100
AcDbLine
 10
-20.05099066205011
 20
-6.746487213135038
 30
0.0
 11
-2.442592635749521
 21
-6.74648721313504
 31
0.0
  0
ARC
  5
146
330
1F
100
AcDbEntity
  8
0
100
AcDbCircle
 10
-2.44259263574952
 20
-4.74648721313504
 30
0.0
 40
2.0
100
AcDbArc
 50
269.9999999999999
 51
0.0
  0
LINE
  5
147
330
1F
100
AcDbEntity
  8
0
100
AcDbLine
 10
-0.4425926357495206
 20
-4.746487213135019
 30
0.0
 11
-0.4425926357506052
 21
104.505512786865
 31
0.0
  0
ARC
  5
148
330
1F
100
AcDbEntity
  8
0
100
AcDbCircle
 10
-2.442592635750594
 20
104.505512786865
 30
0.0
 40
1.999999999999989
100
AcDbArc
 50
0.0
 51
90.00000000000087
  0
LINE
  5
149
330
1F
100
AcDbEntity
  8
0
100
AcDbLine
 10
-2.442592635750627
 20
106.505512786865
 30
0.0
 11
-22.50099066205069
 21
106.505512786865
 31
0.0
  0
ARC
  5
150
330
1F
100
AcDbEntity
  8
0
100
AcDbCircle
 10
-22.50099066205068
 20
105.5055127868649
 30
0.0
 40
1.000000000000014
100
AcDbArc
 50
90.0000000000003
 51
163.3984504009387
  0
ARC
  5
151
330
1F
100
AcDbEntity
  8
0
100
AcDbCircle
 10
-25.8550926283004
 20
106.505512786865
 30
0.0
 40
2.499999999999995
100
AcDbArc
 50
196.6015495990048
 51
343.398450400996
  0
ARC
  5
152
330
1F
100
AcDbEntity
  8
0
100
AcDbCircle
 10
-29.20919459455007
 20
105.505512786865
 30
0.0
 40
0.999999999999984
100
AcDbArc
 50
16.60154959905825
 51
90.00000000000156
  0
LINE
  5
153
330
1F
100
AcDbEntity
  8
0
100
AcDbLine
 10
-29.20919459455009
 20
106.5055127868649
 30
0.0
 11
-48.36759262085009
 21
106.505512786865
 31
0.0
  0
ARC
  5
154
330
1F
100
AcDbEntity
  8
0
100
AcDbCircle
 10
-48.36759262085009
 20
104.505512786865
 30
0.0
 40
1.999999999999992
100
AcDbArc
 50
90.0
 51
180.0
  0
LINE
  5
155
330
1F
100
AcDbEntity
  8
0
100
AcDbLine
 10
-50.36759262085009
 20
104.505512786865
 30
0.0
 11
-50.36759262085009
 21
100.274141936967
 31
0.0
  0
ARC
  5
156
330
1F
100
AcDbEntity
  8
0
100
AcDbCircle
 10
-52.36759262085008
 20
100.274141936967
 30
0.0
 40
1.999999999999992
100
AcDbArc
 50
270.0
 51
0.0
  0
LINE
  5
157
330
1F
100
AcDbEntity
  8
0
100
AcDbLine
 10
-52.36759262085008
 20
98.274141936967
 30
0.0
 11
-54.95112434015888
 21
98.27414193696681
 31
0.0
  0
ARC
  5
158
330
1F
100
AcDbEntity
  8
0
100
AcDbCircle
 10
-54.9511243401589
 20
97.27414193696688
 30
0.0
 40
0.9999999999999252
100
AcDbArc
 50
89.99999999999957
 51
146.3428564458606
  0
ELLIPSE
  5
159
330
1F
100
AcDbEntity
  8
0
100
AcDbEllipse
 10
-57.96759262085
 20
100.736872099746
 30
0.0
 11
-0.0000000000000002
 21
-4.242640687119289
 31
0.0
210
0.0
220
0.0
230
1.0
 40
0.7071067811865492
 41
5.467736825022254
 42
7.098633789336891
  0
ARC
  5
160
330
1F
100
AcDbEntity
  8
0
100
AcDbCircle
 10
-60.9840609015412
 20
97.27414193696688
 30
0.0
 40
1.000000000000005
100
AcDbArc
 50
33.65714355413933
 51
89.99999999999957
  0
LINE
  5
161
330
1F
100
AcDbEntity
  8
0
100
AcDbLine
 10
-60.9840609015412
 20
98.27414193696693
 30
0.0
 11
-63.56759262084999
 21
98.27414193696682
 31
0.0
  0
ARC
  5
162
330
1F
100
AcDbEntity
  8
0
100
AcDbCircle
 10
-63.56759262084999
 20
100.274141936967
 30
0.0
 40
2.000000000000001
100
AcDbArc
 50
180.0
 51
270.0
  0
LINE
  5
163
330
1F
100
AcDbEntity
  8
0
100
AcDbLine
 10
-65.56759262084999
 20
100.274141936967
 30
0.0
 11
-65.56759262084998
 21
104.505512786865
 31
0.0
  0
ARC
  5
164
330
1F
100
AcDbEntity
  8
0
100
AcDbCircle
 10
-67.56759262084997
 20
104.505512786865
 30
0.0
 40
2.000000000000001
100
AcDbArc
 50
0.0
 51
89.99999999999998
  0
LINE
  5
165
330
1F
100
AcDbEntity
  8
0
100
AcDbLine
 10
-67.56759262084997
 20
106.505512786865
 30
0.0
 11
-219.81759262085
 21
106.505512786865
 31
0.0
  0
ARC
  5
166
330
1F
100
AcDbEntity
  8
0
100
AcDbCircle
 10
-219.81759262085
 20
104.505512786865
 30
0.0
 40
1.999999999999992
100
AcDbArc
 50
90.0
 51
180.0
  0
LINE
  5
167
330
1F
100
AcDbEntity
  8
0
100
AcDbLine
 10
-221.81759262085
 20
104.505512786865
 30
0.0
 11
-221.81759262085
 21
100.274141936967
 31
0.0
  0
ARC
  5
168
330
1F
100
AcDbEntity
  8
0
100
AcDbCircle
 10
-223.81759262085
 20
100.274141936967
 30
0.0
 40
1.999999999999992
100
AcDbArc
 50
270.0
 51
0.0
  0
LINE
  5
169
330
1F
100
AcDbEntity
  8
0
100
AcDbLine
 10
-223.81759262085
 20
98.27414193696704
 30
0.0
 11
-226.401124340159
 21
98.27414193696682
 31
0.0
  0
ARC
  5
170
330
1F
100
AcDbEntity
  8
0
100
AcDbCircle
 10
-226.401124340159
 20
97.27414193696695
 30
0.0
 40
0.9999999999998719
100
AcDbArc
 50
89.99999999999834
 51
146.3428564458552
  0
ELLIPSE
  5
171
330
1F
100
AcDbEntity
  8
0
100
AcDbEllipse
 10
-229.41759262085
 20
100.736872099746
 30
0.0
 11
0.0000000000000003
 21
-4.242640687119289
 31
0.0
210
0.0
220
0.0
230
1.0
 40
0.7071067811865492
 41
5.467736825022262
 42
7.0986337893369
  0
LWPOLYLINE
  5
172
330
1F
100
AcDbEntity
  8
0
100
AcDbPolyline
 90
        8
 70
     1
 43
0.0
 10
-249.69834262085
 20
38.82951278686564
 10
-249.69834262085
 20
22.82951278686534
 42
-0.4142135623730822
 10
-250.19834262085
 20
22.32951278686539
 10
-256.19834262085
 20
22.32951278686535
 42
-0.4142135623730404
 10
-256.6983426208501
 20
22.82951278686534
 10
-256.69834262085
 20
38.82951278686553
 42
-0.4142135623730508
 10
-256.19834262085
 20
39.32951278686553
 10
-250.1983426208501
 20
39.32951278686566
 42
-0.4142135623730639
  0
LWPOLYLINE
  5
173
330
1F
100
AcDbEntity
  8
0
100
AcDbPolyline
 90
        8
 70
     1
 43
0.0
 10
-280.07434262085
 20
39.32951278686533
 10
-274.0743426208501
 20
39.32951278686536
 42
-0.4142135623731002
 10
-273.57434262085
 20
38.82951278686533
 10
-273.5743426208501
 20
22.82951278686534
 42
-0.4142135623730951
 10
-274.0743426208501
 20
22.32951278686536
 10
-280.07434262085
 20
22.32951278686544
 42
-0.4142135623730717
 10
-280.57434262085
 20
22.82951278686534
 10
-280.5743426208501
 20
38.82951278686533
 42
-0.4142135623730768
  0
LWPOLYLINE
  5
174
330
1F
100
AcDbEntity
  8
0
100
AcDbPolyline
 90
       20
 70
     1
 43
0.0
 10
-35.30559262084999
 20
79.9795127868653
 10
-35.30559262084999
 20
81.47951278686532
 10
-35.89259262084949
 20
81.47951278686619
 42
-0.4142135623730586
 10
-36.39259262084957
 20
81.9795127868662
 10
-36.39259262084948
 20
94.9795127868662
 42
-0.4142135623729781
 10
-35.89259262084969
 20
95.47951278686619
 10
-3.842592620849589
 20
95.47951278686626
 42
-0.4142135623730736
 10
-3.342592620849686
 20
94.97951278686628
 10
-3.342592620849436
 20
81.97951278686637
 42
-0.414213562373203
 10
-3.842592620849451
 20
81.47951278686633
 10
-4.42959262085
 20
81.47951278686532
 10
-4.429592620850008
 20
79.9795127868653
 42
-0.4142135623730969
 10
-4.92959262085001
 20
79.4795127868653
 10
-10.92959262084999
 20
79.47951278686528
 42
-0.4142135623730937
 10
-11.42959262085
 20
79.9795127868653
 10
-11.42959262084999
 20
81.47951278686532
 10
-28.30559262084999
 20
81.47951278686532
 10
-28.30559262084999
 20
79.9795127868653
 42
-0.4142135623730976
 10
-28.80559262085
 20
79.4795127868653
 10
-34.80559262085
 20
79.4795127868653
 42
-0.4142135623731002
  0
LWPOLYLINE
  5
175
330
1F
100
AcDbEntity
  8
0
100
AcDbPolyline
 90
        8
 70
     1
 43
0.0
 10
-90.04259262084991
 20
6.779512786865351
 10
-90.04259262085001
 20
20.90551278686532
 42
-0.4142135623731186
 10
-89.54259262085001
 20
21.40551278686533
 10
-83.5425926208499
 20
21.40551278686531
 42
-0.4142135623730925
 10
-83.0425926208499
 20
20.90551278686532
 10
-83.04259262084988
 20
6.77951278686535
 42
-0.4142135623730925
 10
-83.5425926208499
 20
6.279512786865319
 10
-89.54259262085001
 20
6.279512786865442
 42
-0.4142135623730996
  0
LWPOLYLINE
  5
176
330
1F
100
AcDbEntity
  8
0
100
AcDbPolyline
 90
        8
 70
     1
 43
0.0
 10
-204.3425926208501
 20
6.779512786865344
 10
-204.3425926208501
 20
20.90551278686533
 42
-0.4142135623731705
 10
-203.84259262085
 20
21.40551278686538
 10
-197.84259262085
 20
21.40551278686535
 42
-0.4142135623731002
 10
-197.34259262085
 20
20.90551278686533
 10
-197.34259262085
 20
6.779512786865343
 42
-0.4142135623730775
 10
-197.84259262085
 20
6.279512786865316
 10
-203.84259262085
 20
6.279512786865333
 42
-0.4142135623730976
  0
LWPOLYLINE
  5
177
330
1F
100
AcDbEntity
  8
0
100
AcDbPolyline
 90
        4
 70
     1
 43
0.0
 10
-25.9550926282998
 20
2.279512786868113
 10
-39.9675926208499
 20
2.279512786868115
 42
-1.0
 10
-39.9675926208499
 20
3.279512786868115
 10
-25.9550926282998
 20
3.279512786868113
 42
-1.0
  0
LWPOLYLINE
  5
178
330
1F
100
AcDbEntity
  8
0
100
AcDbPolyline
 90
        4
 70
     1
 43
0.0
 10
-267.430092613399
 20
2.279512786868143
 10
-281.442592605948
 20
2.279512786868144
 42
-1.0
 10
-281.442592605948
 20
3.279512786868144
 10
-267.430092613399
 20
3.279512786868143
 42
-1.0
  0
LWPOLYLINE
  5
179
330
1F
100
AcDbEntity
  8
0
100
AcDbPolyline
 90
        4
 70
     1
 43
0.0
 10
-28.40509262829909
 20
97.4795127868686
 10
-44.86759262085018
 20
97.4795127868691
 42
-1.0
 10
-44.86759262085018
 20
98.4795127868691
 10
-28.40509262829909
 20
98.4795127868684
 42
-1.0
  0
LWPOLYLINE
  5
180
330
1F
100
AcDbEntity
  8
0
100
AcDbPolyline
 90
        4
 70
     1
 43
0.0
 10
-264.980092613398
 20
97.47951278687674
 10
-281.442592605946
 20
97.47951278687732
 42
-1.0
 10
-281.442592605946
 20
98.47951278687734
 10
-264.980092613398
 20
98.47951278687672
 42
-1.0
  0
LWPOLYLINE
  5
181
330
1F
100
AcDbEntity
  8
0
100
AcDbPolyline
 90
        4
 70
     1
 43
0.0
 10
-186.95509262085
 20
2.279512786868133
 10
-221.21759262085
 20
2.279512786868137
 42
-1.0
 10
-221.21759262085
 20
3.279512786868137
 10
-186.95509262085
 20
3.279512786868133
 42
-1.0
  0
LWPOLYLINE
  5
182
330
1F
100
AcDbEntity
  8
0
100
AcDbPolyline
 90
        4
 70
     1
 43
0.0
 10
-108.88009262085
 20
97.47951278687134
 10
-178.50509262085
 20
97.47951278687374
 42
-1.0
 10
-178.50509262085
 20
98.47951278687375
 10
-108.88009262085
 20
98.4795127868713
 42
-1.0
  0
LWPOLYLINE
  5
183
330
1F
100
AcDbEntity
  8
0
100
AcDbPolyline
 90
        4
 70
     1
 43
0.0
 10
-180.95509262085
 20
3.279512786868132
 10
-106.43009262085
 20
3.279512786868123
 42
-1.0
 10
-106.43009262085
 20
2.279512786868123
 10
-180.95509262085
 20
2.279512786868131
 42
-1.0
  0
LWPOLYLINE
  5
184
330
1F
100
AcDbEntity
  8
0
100
AcDbPolyline
 90
        4
 70
     1
 43
0.0
 10
-184.50509262085
 20
97.4795127868739
 10
-216.31759262085
 20
97.47951278687503
 42
-1.0
 10
-216.31759262085
 20
98.47951278687505
 10
-184.50509262085
 20
98.47951278687395
 42
-1.0
  0
LWPOLYLINE
  5
185
330
1F
100
AcDbEntity
  8
0
100
AcDbPolyline
 90
        4
 70
     1
 43
0.0
 10
-146.6925926208499
 20
-1.746487213135042
 10
-221.21759262085
 20
-1.746487213135043
 42
-1.0
 10
-221.21759262085
 20
-0.746487213135043
 10
-146.6925926208499
 20
-0.7464872131350419
 42
-1.0
  0
LWPOLYLINE
  5
186
330
1F
100
AcDbEntity
  8
0
100
AcDbPolyline
 90
        4
 70
     1
 43
0.0
 10
-146.6925926208499
 20
101.505512786876
 10
-216.31759262085
 20
101.505512786878
 42
-1.0
 10
-216.31759262085
 20
102.505512786878
 10
-146.6925926208499
 20
102.505512786876
 42
-1.0
  0
LWPOLYLINE
  5
187
330
1F
100
AcDbEntity
  8
0
100
AcDbPolyline
 90
        4
 70
     1
 43
0.0
 10
-140.69259262085
 20
-0.7464872131350479
 10
-66.1675926208499
 20
-0.7464872131350518
 42
-1.0
 10
-66.1675926208499
 20
-1.746487213135051
 10
-140.69259262085
 20
-1.746487213135057
 42
-1.0
  0
LWPOLYLINE
  5
188
330
1F
100
AcDbEntity
  8
0
100
AcDbPolyline
 90
        4
 70
     1
 43
0.0
 10
-22.40509262829909
 20
98.4795127868684
 42
1.0
 10
-22.40509262829909
 20
97.47951278686842
 10
-5.942592635748018
 20
97.47951278686779
 42
1.0
 10
-5.942592635747977
 20
98.47951278686778
  0
LWPOLYLINE
  5
189
330
1F
100
AcDbEntity
  8
0
100
AcDbPolyline
 90
        4
 70
     1
 43
0.0
 10
-281.442592605946
 20
102.50551278688
 10
-242.51759262085
 20
102.505512786879
 42
-1.0
 10
-242.51759262085
 20
101.505512786879
 10
-281.442592605946
 20
101.50551278688
 42
-1.0
  0
LWPOLYLINE
  5
190
330
1F
100
AcDbEntity
  8
0
100
AcDbPolyline
 90
        4
 70
     1
 43
0.0
 10
-140.69259262085
 20
102.505512786876
 42
1.0
 10
-140.69259262085
 20
101.505512786876
 10
-71.06759262084996
 20
101.505512786873
 42
1.0
 10
-71.06759262084996
 20
102.505512786873
  0
LWPOLYLINE
  5
191
330
1F
100
AcDbEntity
  8
0
100
AcDbPolyline
 90
        4
 70
     1
 43
0.0
 10
-19.9550926282998
 20
3.279512786868113
 10
-5.942592635749649
 20
3.279512786868111
 42
-1.0
 10
-5.942592635749649
 20
2.279512786868111
 10
-19.9550926282998
 20
2.279512786868112
 42
-1.0
  0
LWPOLYLINE
  5
192
330
1F
100
AcDbEntity
  8
0
100
AcDbPolyline
 90
        4
 70
     1
 43
0.0
 10
-261.430092613399
 20
3.279512786868142
 10
-247.41759262085
 20
3.27951278686814
 42
-1.0
 10
-247.41759262085
 20
2.27951278686814
 10
-261.430092613399
 20
2.279512786868141
 42
-1.0
  0
LWPOLYLINE
  5
193
330
1F
100
AcDbEntity
  8
0
100
AcDbPolyline
 90
        4
 70
     1
 43
0.0
 10
-100.43009262085
 20
3.279512786868123
 10
-66.1675926208499
 20
3.279512786868118
 42
-1.0
 10
-66.1675926208499
 20
2.279512786868118
 10
-100.43009262085
 20
2.279512786868122
 42
-1.0
  0
LWPOLYLINE
  5
194
330
1F
100
AcDbEntity
  8
0
100
AcDbPolyline
 90
        4
 70
     1
 43
0.0
 10
-5.942592635747878
 20
101.505512786871
 42
1.0
 10
-5.942592635747827
 20
102.505512786871
 10
-44.86759262084998
 20
102.505512786872
 42
1.0
 10
-44.86759262085008
 20
101.505512786872
  0
LWPOLYLINE
  5
195
330
1F
100
AcDbEntity
  8
0
100
AcDbPolyline
 90
        4
 70
     1
 43
0.0
 10
-258.980092613398
 20
98.47951278687654
 10
-242.51759262085
 20
98.47951278687595
 42
-1.0
 10
-242.51759262085
 20
97.47951278687594
 10
-258.980092613398
 20
97.47951278687651
 42
-1.0
  0
LWPOLYLINE
  5
196
330
1F
100
AcDbEntity
  8
0
100
AcDbPolyline
 90
        4
 70
     1
 43
0.0
 10
-102.88009262085
 20
98.47951278687114
 10
-71.06759262085001
 20
98.47951278687006
 42
-1.0
 10
-71.06759262085019
 20
97.47951278687002
 10
-102.88009262085
 20
97.47951278687109
 42
-1.0
  0
LWPOLYLINE
  5
197
330
1F
100
AcDbEntity
  8
0
100
AcDbPolyline
 90
        4
 70
     1
 43
0.0
 10
-5.942592635749649
 20
-1.746487213135059
 10
-39.9675926208499
 20
-1.746487213135065
 42
-1.0
 10
-39.9675926208499
 20
-0.7464872131350651
 10
-5.942592635749649
 20
-0.7464872131350591
 42
-1.0
  0
LWPOLYLINE
  5
198
330
1F
100
AcDbEntity
  8
0
100
AcDbPolyline
 90
        4
 70
     1
 43
0.0
 10
-281.442592605948
 20
-0.7464872131350307
 10
-247.41759262085
 20
-0.7464872131350296
 42
-1.0
 10
-247.41759262085
 20
-1.746487213135029
 10
-281.442592605948
 20
-1.74648721313504
 42
-1.0
  0
LWPOLYLINE
  5
199
330
1F
100
AcDbEntity
  8
0
100
AcDbPolyline
 90
       20
 70
     1
 43
0.0
 10
-35.44934262085
 20
24.32951278686741
 10
-35.44934262084999
 20
22.8295127868653
 42
-0.4142135623730951
 10
-35.94934262085
 20
22.32951278686529
 10
-41.94934262084998
 20
22.32951278686532
 42
-0.4142135623730925
 10
-42.44934262084998
 20
22.8295127868653
 10
-42.44934262084999
 20
24.32951278686881
 10
-43.03634262084879
 20
24.3295127868678
 42
-0.4142135623730951
 10
-43.5363426208488
 20
24.82951278686781
 10
-43.53634262084898
 20
37.8295127868678
 42
-0.4142135623730951
 10
-43.03634262084899
 20
38.3295127868678
 10
-42.3243426208518
 20
38.32951278686631
 10
-42.32434262085193
 20
38.82951278686271
 42
-0.41421356237303
 10
-41.82434262085209
 20
39.32951278686285
 10
-36.0743426208521
 20
39.32951278686465
 42
-0.4142135623730327
 10
-35.57434262085195
 20
38.8295127868648
 10
-35.57434262085179
 20
38.3295127868664
 10
-20.5113426208496
 20
38.32951278686517
 42
-0.4142135623731002
 10
-20.01134262084963
 20
37.8295127868652
 10
-20.01134262084956
 20
24.82951278686521
 42
-0.4142135623731055
 10
-20.5113426208496
 20
24.32951278686518
  0
LWPOLYLINE
  5
200
330
1F
100
AcDbEntity
  8
0
100
AcDbPolyline
 90
        8
 70
     1
 43
0.0
 10
-260.801967620849
 20
43.87951278686411
 10
-260.8019676208489
 20
56.87951278686403
 42
-0.4142135623730222
 10
-260.301967620849
 20
57.37951278686403
 10
-253.301967620849
 20
57.37951278686406
 42
-0.4142135623730222
 10
-252.801967620849
 20
56.87951278686403
 10
-252.801967620849
 20
43.87951278686411
 42
-0.4142135623730222
 10
-253.301967620849
 20
43.37951278686412
 10
-260.301967620849
 20
43.37951278686413
 42
-0.4142135623731263
  0
LWPOLYLINE
  5
201
330
1F
100
AcDbEntity
  8
0
100
AcDbPolyline
 90
       20
 70
     1
 43
0.0
 10
-110.210714142712
 20
8.757724467421436
 42
0.1095178116832023
 10
-110.844641535323
 20
8.898262786866402
 10
-114.758040866733
 20
8.898262786866284
 42
0.2679491924311479
 10
-116.0570789724099
 20
8.148262786866332
 42
-0.5773502691897075
 10
-118.6551551837626
 20
8.148262786867228
 42
0.2679491924309663
 10
-119.954193289439
 20
8.898262786866515
 10
-126.867592620849
 20
8.898262786866633
 42
-0.4142135623731011
 10
-128.367592620849
 20
10.39826278686661
 10
-128.367592620849
 20
15.16076278686661
 42
-0.4142135623730943
 10
-126.867592620849
 20
16.66076278686661
 10
-123.700134614813
 20
16.66076278686651
 42
-0.1095178116832572
 10
-123.066207222202
 20
16.52022446742147
 10
-121.524471098986
 20
15.80130110631151
 42
0.109517811683276
 10
-120.890543706375
 20
15.66076278686654
 10
-99.86759262084909
 20
15.66076278686628
 42
-0.4142135623731076
 10
-98.36759262084905
 20
14.16076278686631
 10
-98.36759262084905
 20
9.398262786866302
 42
-0.4142135623731229
 10
-99.86759262084909
 20
7.898262786866323
 10
-108.035050626885
 20
7.898262786866312
 42
-0.1095178116832655
 10
-108.668978019496
 20
8.038801106311355
  0
LWPOLYLINE
  5
202
330
1F
100
AcDbEntity
  8
0
100
AcDbPolyline
 90
       20
 70
     1
 43
0.0
 10
-189.017592620849
 20
9.398262786866313
 10
-189.017592620849
 20
14.16076278686632
 42
-0.4142135623730842
 10
-187.517592620849
 20
15.66076278686631
 10
-166.494641535323
 20
15.66076278686652
 42
0.1095178116832889
 10
-165.860714142712
 20
15.80130110631162
 10
-164.3189780194959
 20
16.52022446742147
 42
-0.1095178116832603
 10
-163.685050626885
 20
16.66076278686651
 10
-160.517592620849
 20
16.66076278686662
 42
-0.4142135623730982
 10
-159.017592620849
 20
15.16076278686662
 10
-159.017592620849
 20
10.39826278686662
 42
-0.4142135623730976
 10
-160.517592620849
 20
8.898262786866627
 10
-167.430991952259
 20
8.898262786866522
 42
0.2679491924309667
 10
-168.7300300579351
 20
8.148262786867102
 42
-0.5773502691897069
 10
-171.3281062692883
 20
8.148262786866206
 42
0.2679491924311462
 10
-172.627144374965
 20
8.898262786866302
 10
-176.540543706375
 20
8.898262786866409
 42
0.1095178116831982
 10
-177.174471098986
 20
8.757724467421461
 10
-178.716207222202
 20
8.03880110631135
 42
-0.1095178116832546
 10
-179.350134614813
 20
7.898262786866332
 10
-187.5175926208489
 20
7.898262786866274
 42
-0.4142135623730847
  0
LWPOLYLINE
  5
203
330
1F
100
AcDbEntity
  8
0
100
AcDbPolyline
 90
        8
 70
     1
 43
0.0
 10
-73.99259262084957
 20
95.47951278686753
 10
-60.99259262084959
 20
95.47951278686772
 42
-0.4142135623730951
 10
-60.49259262084953
 20
94.97951278686761
 10
-60.49259262084943
 20
81.97951278686774
 42
-0.4142135623732147
 10
-60.9925926208495
 20
81.47951278686765
 10
-73.99259262084949
 20
81.47951278686756
 42
-0.414213562372991
 10
-74.49259262084943
 20
81.97951278686748
 10
-74.49259262084972
 20
94.9795127868675
 42
-0.4142135623730379
  0
LWPOLYLINE
  5
204
330
1F
100
AcDbEntity
  8
0
100
AcDbPolyline
 90
        8
 70
     1
 43
0.0
 10
-45.9175926208499
 20
5.779512786865397
 42
0.4142135623730951
 10
-45.4175926208499
 20
5.279512786865389
 10
-32.4175926208499
 20
5.279512786865405
 42
0.4142135623730951
 10
-31.91759262084989
 20
5.779512786865395
 10
-31.91759262084989
 20
18.7795127868654
 42
0.4142135623730951
 10
-32.4175926208499
 20
19.2795127868654
 10
-45.4175926208499
 20
19.2795127868654
 42
0.4142135623730951
 10
-45.91759262085
 20
18.77951278686541
  0
LWPOLYLINE
  5
205
330
1F
100
AcDbEntity
  8
0
100
AcDbPolyline
 90
        8
 70
     1
 43
0.0
 10
-94.33009262084878
 20
24.32951278686734
 42
0.4142135623730976
 10
-93.83009262084884
 20
24.82951278686732
 10
-93.83009262084895
 20
37.82951278686731
 42
0.4142135623730976
 10
-94.33009262084899
 20
38.32951278686731
 10
-107.330092620849
 20
38.32951278686719
 42
0.41421356237316
 10
-107.830092620849
 20
37.82951278686711
 10
-107.830092620849
 20
24.82951278686711
 42
0.4142135623730717
 10
-107.330092620849
 20
24.32951278686712
  0
LWPOLYLINE
  5
206
330
1F
100
AcDbEntity
  8
0
100
AcDbPolyline
 90
        8
 70
     1
 43
0.0
 10
-88.78009262084878
 20
24.82951278686732
 10
-88.78009262084901
 20
37.82951278686731
 42
-0.4142135623730951
 10
-88.28009262084902
 20
38.32951278686732
 10
-75.28009262084897
 20
38.3295127868675
 42
-0.4142135623731002
 10
-74.78009262084897
 20
37.8295127868675
 10
-74.78009262084883
 20
24.82951278686751
 42
-0.4142135623730822
 10
-75.2800926208488
 20
24.32951278686753
 10
-88.2800926208489
 20
24.32951278686741
 42
-0.4142135623730976
  0
LWPOLYLINE
  5
207
330
1F
100
AcDbEntity
  8
0
100
AcDbPolyline
 90
        8
 70
     1
 43
0.0
 10
-69.7300926208489
 20
24.82951278686751
 42
0.414213562373043
 10
-69.23009262084889
 20
24.3295127868676
 10
-56.23009262084889
 20
24.32951278686771
 42
0.4142135623730976
 10
-55.73009262084889
 20
24.8295127868677
 10
-55.73009262084897
 20
37.8295127868677
 42
0.4142135623730847
 10
-56.23009262084899
 20
38.3295127868677
 10
-69.230092620849
 20
38.3295127868675
 42
0.4142135623730951
 10
-69.730092620849
 20
37.8295127868675
  0
LWPOLYLINE
  5
208
330
1F
100
AcDbEntity
  8
0
100
AcDbPolyline
 90
        8
 70
     1
 43
0.0
 10
-241.467592620849
 20
75.92951278686573
 10
-241.467592620849
 20
62.92951278686572
 42
-0.4142135623731315
 10
-241.967592620849
 20
62.42951278686572
 10
-254.967592620849
 20
62.42951278686556
 42
-0.4142135623730951
 10
-255.467592620849
 20
62.92951278686564
 10
-255.4675926208491
 20
75.92951278686562
 42
-0.414213562373043
 10
-254.967592620849
 20
76.4295127868656
 10
-241.967592620849
 20
76.42951278686584
 42
-0.4142135623731626
  0
LWPOLYLINE
  5
209
330
1F
100
AcDbEntity
  8
0
100
AcDbPolyline
 90
        8
 70
     1
 43
0.0
 10
-65.7550926208491
 20
43.37951278686761
 42
0.4142135623731055
 10
-65.25509262084911
 20
43.8795127868676
 10
-65.25509262084918
 20
56.87951278686761
 42
0.4142135623730793
 10
-65.7550926208492
 20
57.37951278686761
 10
-78.75509262084918
 20
57.37951278686741
 42
0.4142135623731106
 10
-79.25509262084919
 20
56.87951278686741
 10
-79.25509262084907
 20
43.87951278686741
 42
0.4142135623730379
 10
-78.7550926208491
 20
43.37951278686751
  0
LWPOLYLINE
  5
210
330
1F
100
AcDbEntity
  8
0
100
AcDbPolyline
 90
        8
 70
     1
 43
0.0
 10
-281.6613426208489
 20
43.87951278686533
 42
0.4142135623730951
 10
-281.161342620849
 20
43.37951278686532
 10
-263.398842620849
 20
43.37951278686555
 42
0.4142135623730951
 10
-262.898842620849
 20
43.87951278686553
 10
-262.898842620849
 20
56.87951278686554
 42
0.4142135623730379
 10
-263.398842620849
 20
57.37951278686554
 10
-281.161342620849
 20
57.37951278686536
 42
0.4142135623730951
 10
-281.6613426208489
 20
56.87951278686533
  0
LWPOLYLINE
  5
211
330
1F
100
AcDbEntity
  8
0
100
AcDbPolyline
 90
        8
 70
     1
 43
0.0
 10
-103.067592620849
 20
62.92951278686722
 10
-103.0675926208489
 20
75.92951278686721
 42
-0.4142135623730793
 10
-102.567592620849
 20
76.42951278686723
 10
-89.56759262084938
 20
76.42951278686741
 42
-0.4142135623731368
 10
-89.06759262084943
 20
75.9295127868673
 10
-89.06759262084921
 20
62.9295127868673
 42
-0.4142135623730274
 10
-89.56759262084927
 20
62.42951278686735
 10
-102.567592620849
 20
62.42951278686722
 42
-0.414213562373069
  0
LWPOLYLINE
  5
212
330
1F
100
AcDbEntity
  8
0
100
AcDbPolyline
 90
        8
 70
     1
 43
0.0
 10
-198.317592620849
 20
62.92951278686622
 10
-198.317592620849
 20
75.92951278686624
 42
-0.4142135623729701
 10
-197.817592620849
 20
76.42951278686616
 10
-184.817592620849
 20
76.42951278686634
 42
-0.4142135623730847
 10
-184.3175926208489
 20
75.92951278686633
 10
-184.3175926208489
 20
62.92951278686631
 42
-0.4142135623730327
 10
-184.817592620849
 20
62.42951278686638
 10
-197.817592620849
 20
62.42951278686614
 42
-0.4142135623731159
  0
LWPOLYLINE
  5
213
330
1F
100
AcDbEntity
  8
0
100
AcDbPolyline
 90
        8
 70
     1
 43
0.0
 10
-169.74259262085
 20
81.97951278686652
 10
-169.74259262085
 20
94.97951278686651
 42
-0.4142135623731159
 10
-169.24259262085
 20
95.47951278686646
 10
-156.24259262085
 20
95.4795127868666
 42
-0.4142135623730744
 10
-155.74259262085
 20
94.97951278686661
 10
-155.742592620849
 20
81.97951278686661
 42
-0.4142135623730951
 10
-156.242592620849
 20
81.47951278686663
 10
-169.2425926208489
 20
81.47951278686653
 42
-0.4142135623736674
  0
LWPOLYLINE
  5
214
330
1F
100
AcDbEntity
  8
0
100
AcDbPolyline
 90
        8
 70
     1
 43
0.0
 10
-15.74884262084899
 20
43.3795127868681
 42
0.4142135623731069
 10
-15.248842620849
 20
43.87951278686809
 10
-15.24884262084909
 20
56.8795127868681
 42
0.4142135623731055
 10
-15.74884262084909
 20
57.37951278686811
 10
-28.7488426208492
 20
57.37951278686801
 42
0.414213562373043
 10
-29.24884262084919
 20
56.879512786868
 10
-29.24884262084901
 20
43.879512786868
 42
0.4142135623730951
 10
-28.748842620849
 20
43.37951278686801
  0
LWPOLYLINE
  5
215
330
1F
100
AcDbEntity
  8
0
100
AcDbPolyline
 90
        8
 70
     1
 43
0.0
 10
-284.04259262085
 20
81.97951278686533
 10
-284.04259262085
 20
94.97951278686532
 42
-0.4142135623730951
 10
-283.54259262085
 20
95.47951278686534
 10
-270.54259262085
 20
95.47951278686552
 42
-0.4142135623732199
 10
-270.0425926208501
 20
94.97951278686542
 10
-270.0425926208499
 20
81.97951278686543
 42
-0.4142135623730847
 10
-270.54259262085
 20
81.47951278686543
 10
-283.54259262085
 20
81.47951278686438
 42
-0.4142135623725645
  0
LWPOLYLINE
  5
216
330
1F
100
AcDbEntity
  8
0
100
AcDbPolyline
 90
        8
 70
     1
 43
0.0
 10
-272.136342620849
 20
24.82951278686544
 10
-272.136342620849
 20
37.82951278686543
 42
-0.4142135623730639
 10
-271.636342620849
 20
38.32951278686547
 10
-258.636342620849
 20
38.3295127868656
 42
-0.4142135623731472
 10
-258.1363426208489
 20
37.82951278686553
 10
-258.1363426208489
 20
24.82951278686553
 42
-0.414213562372991
 10
-258.636342620849
 20
24.32951278686559
 10
-271.636342620849
 20
24.3295127868655
 42
-0.4142135623730093
  0
LWPOLYLINE
  5
217
330
1F
100
AcDbEntity
  8
0
100
AcDbPolyline
 90
        8
 70
     1
 43
0.0
 10
-231.655092620849
 20
43.87951278686582
 10
-231.655092620849
 20
56.87951278686583
 42
-0.4142135623731002
 10
-231.1550926208489
 20
57.37951278686581
 10
-218.155092620849
 20
57.37951278686605
 42
-0.414213562372991
 10
-217.6550926208489
 20
56.87951278686604
 10
-217.655092620849
 20
43.87951278686602
 42
-0.4142135623731575
 10
-218.155092620849
 20
43.37951278686595
 10
-231.1550926208489
 20
43.3795127868658
 42
-0.4142135623731106
  0
LWPOLYLINE
  5
218
330
1F
100
AcDbEntity
  8
0
100
AcDbPolyline
 90
        8
 70
     1
 43
0.0
 10
-217.367592620849
 20
62.92951278686603
 10
-217.367592620849
 20
75.92951278686602
 42
-0.4142135623731368
 10
-216.867592620849
 20
76.42951278686604
 10
-203.867592620849
 20
76.42951278686614
 42
-0.4142135623731626
 10
-203.3675926208491
 20
75.92951278686614
 10
-203.367592620849
 20
62.92951278686613
 42
-0.4142135623731002
 10
-203.867592620849
 20
62.42951278686616
 10
-216.867592620849
 20
62.42951278686593
 42
-0.4142135623731472
  0
LWPOLYLINE
  5
219
330
1F
100
AcDbEntity
  8
0
100
AcDbPolyline
 90
       14
 70
     1
 43
0.0
 10
-11.57334262085
 20
24.3295127868681
 10
-11.57334262084998
 20
22.8295127868653
 42
-0.4142135623730379
 10
-12.07334262084989
 20
22.32951278686529
 10
-18.07334262084999
 20
22.32951278686529
 42
-0.4142135623730965
 10
-18.57334262085001
 20
22.8295127868653
 10
-18.57334262084999
 20
38.8295127868702
 42
-0.4142135623730365
 10
-18.07334262085009
 20
39.32951278687021
 10
-12.19834262085199
 20
39.32951278687197
 42
-0.4142135623730976
 10
-11.69834262085192
 20
38.8295127868721
 10
-11.69834262085169
 20
38.3295127868681
 10
-3.842592620848916
 20
38.32951278686821
 42
-0.4142135623730951
 10
-3.342592620848909
 20
37.82951278686821
 10
-3.342592620848783
 20
24.8295127868682
 42
-0.4142135623730951
 10
-3.842592620848776
 20
24.32951278686821
  0
LWPOLYLINE
  5
220
330
1F
100
AcDbEntity
  8
0
100
AcDbPolyline
 90
        8
 70
     1
 43
0.0
 10
-51.4675926208493
 20
62.42951278686771
 10
-64.46759262084921
 20
62.4295127868676
 42
-0.4142135623731472
 10
-64.96759262084927
 20
62.92951278686762
 10
-64.96759262084935
 20
75.92951278686761
 42
-0.4142135623730847
 10
-64.46759262084938
 20
76.4295127868676
 10
-51.4675926208494
 20
76.42951278686773
 42
-0.4142135623730793
 10
-50.96759262084937
 20
75.9295127868677
 10
-50.96759262084931
 20
62.92951278686771
 42
-0.4142135623731055
  0
LWPOLYLINE
  5
221
330
1F
100
AcDbEntity
  8
0
100
AcDbPolyline
 90
        8
 70
     1
 43
0.0
 10
-151.480092620849
 20
24.32951278686671
 42
0.4142135623730925
 10
-150.980092620849
 20
24.82951278686672
 10
-150.9800926208489
 20
37.82951278686673
 42
0.4142135623730327
 10
-151.480092620849
 20
38.32951278686672
 10
-164.480092620849
 20
38.32951278686653
 42
0.4142135623731002
 10
-164.980092620849
 20
37.82951278686652
 10
-164.980092620849
 20
24.82951278686652
 42
0.4142135623730976
 10
-164.480092620849
 20
24.32951278686652
  0
LWPOLYLINE
  5
222
330
1F
100
AcDbEntity
  8
0
100
AcDbPolyline
 90
        8
 70
     1
 43
0.0
 10
-265.280092620849
 20
75.92951278686553
 42
0.4142135623730379
 10
-265.780092620849
 20
76.42951278686545
 10
-278.780092620849
 20
76.4295127868654
 42
0.4142135623731523
 10
-279.280092620849
 20
75.92951278686533
 10
-279.2800926208491
 20
62.92951278686533
 42
0.4142135623730327
 10
-278.780092620849
 20
62.42951278686533
 10
-265.780092620849
 20
62.4295127868655
 42
0.4142135623730951
 10
-265.280092620849
 20
62.92951278686555
  0
LWPOLYLINE
  5
223
330
1F
100
AcDbEntity
  8
0
100
AcDbPolyline
 90
        8
 70
     1
 43
0.0
 10
-136.69259262085
 20
94.97951278686683
 10
-136.692592620849
 20
81.97951278686693
 42
-0.4142135623731575
 10
-137.192592620849
 20
81.47951278686683
 10
-150.192592620849
 20
81.47951278686667
 42
-0.4142135623731055
 10
-150.692592620849
 20
81.97951278686673
 10
-150.6925926208499
 20
94.97951278686672
 42
-0.4142135623730951
 10
-150.19259262085
 20
95.47951278686673
 10
-137.1925926208499
 20
95.4795127868668
 42
-0.4142135623731055
  0
LWPOLYLINE
  5
224
330
1F
100
AcDbEntity
  8
0
100
AcDbPolyline
 90
        8
 70
     1
 43
0.0
 10
-188.792592620849
 20
81.97951278686632
 10
-188.79259262085
 20
94.97951278686631
 42
-0.4142135623730951
 10
-188.29259262085
 20
95.47951278686635
 10
-175.29259262085
 20
95.47951278686642
 42
-0.4142135623730951
 10
-174.79259262085
 20
94.97951278686642
 10
-174.792592620849
 20
81.97951278686641
 42
-0.4142135623730639
 10
-175.292592620849
 20
81.47951278686647
 10
-188.2925926208489
 20
81.4795127868663
 42
-0.4142135623730639
  0
LWPOLYLINE
  5
225
330
1F
100
AcDbEntity
  8
0
100
AcDbPolyline
 90
        8
 70
     1
 43
0.0
 10
-140.667592620849
 20
76.4295127868668
 10
-127.667592620849
 20
76.42951278686692
 42
-0.4142135623730534
 10
-127.167592620849
 20
75.92951278686701
 10
-127.167592620849
 20
62.92951278686691
 42
-0.4142135623730793
 10
-127.667592620849
 20
62.42951278686691
 10
-140.667592620849
 20
62.42951278686683
 42
-0.4142135623730847
 10
-141.1675926208489
 20
62.92951278686682
 10
-141.167592620849
 20
75.92951278686682
 42
-0.4142135623731002
  0
LWPOLYLINE
  5
226
330
1F
100
AcDbEntity
  8
0
100
AcDbPolyline
 90
        8
 70
     1
 43
0.0
 10
-146.2175926208489
 20
75.92951278686669
 42
0.4142135623730951
 10
-146.717592620849
 20
76.42951278686673
 10
-159.717592620849
 20
76.42951278686664
 42
0.4142135623731315
 10
-160.217592620849
 20
75.92951278686661
 10
-160.2175926208489
 20
62.92951278686663
 42
0.4142135623731523
 10
-159.717592620849
 20
62.42951278686663
 10
-146.717592620849
 20
62.4295127868668
 42
0.4142135623730327
 10
-146.217592620849
 20
62.92951278686673
  0
LWPOLYLINE
  5
227
330
1F
100
AcDbEntity
  8
0
100
AcDbPolyline
 90
        8
 70
     1
 43
0.0
 10
-212.605092620849
 20
43.87951278686602
 42
0.4142135623730744
 10
-212.105092620849
 20
43.37951278686612
 10
-199.105092620849
 20
43.37951278686623
 42
0.414213562373121
 10
-198.605092620849
 20
43.87951278686623
 10
-198.6050926208489
 20
56.87951278686623
 42
0.4142135623729701
 10
-199.105092620849
 20
57.37951278686622
 10
-212.105092620849
 20
57.3795127868661
 42
0.4142135623731575
 10
-212.605092620849
 20
56.87951278686604
  0
LWPOLYLINE
  5
228
330
1F
100
AcDbEntity
  8
0
100
AcDbPolyline
 90
        8
 70
     1
 43
0.0
 10
-165.767592620849
 20
62.42951278686663
 10
-178.767592620849
 20
62.42951278686642
 42
-0.4142135623731991
 10
-179.2675926208489
 20
62.92951278686642
 10
-179.267592620849
 20
75.92951278686641
 42
-0.4142135623730327
 10
-178.767592620849
 20
76.42951278686637
 10
-165.767592620849
 20
76.42951278686649
 42
-0.414213562373043
 10
-165.267592620849
 20
75.92951278686661
 10
-165.2675926208491
 20
62.92951278686653
 42
-0.414213562373121
  0
LWPOLYLINE
  5
229
330
1F
100
AcDbEntity
  8
0
100
AcDbPolyline
 90
        8
 70
     1
 43
0.0
 10
-189.080092620849
 20
37.82951278686633
 10
-189.080092620849
 20
24.82951278686633
 42
-0.4142135623731523
 10
-189.580092620849
 20
24.32951278686626
 10
-202.580092620849
 20
24.32951278686616
 42
-0.4142135623730951
 10
-203.080092620849
 20
24.82951278686613
 10
-203.080092620849
 20
37.82951278686612
 42
-0.4142135623730951
 10
-202.580092620849
 20
38.32951278686616
 10
-189.580092620849
 20
38.32951278686633
 42
-0.4142135623730951
  0
LWPOLYLINE
  5
230
330
1F
100
AcDbEntity
  8
0
100
AcDbPolyline
 90
        8
 70
     1
 43
0.0
 10
-222.1300926208491
 20
24.82951278686594
 10
-222.1300926208491
 20
37.82951278686593
 42
-0.4142135623730639
 10
-221.630092620849
 20
38.32951278686596
 10
-208.630092620849
 20
38.32951278686604
 42
-0.4142135623729989
 10
-208.130092620849
 20
37.82951278686612
 10
-208.130092620849
 20
24.82951278686613
 42
-0.4142135623730612
 10
-208.630092620849
 20
24.32951278686608
 10
-221.630092620849
 20
24.32951278686603
 42
-0.4142135623730717
  0
LWPOLYLINE
  5
231
330
1F
100
AcDbEntity
  8
0
100
AcDbPolyline
 90
        8
 70
     1
 43
0.0
 10
-132.430092620849
 20
24.32951278686684
 42
0.4142135623731288
 10
-131.930092620849
 20
24.82951278686692
 10
-131.930092620849
 20
37.82951278686692
 42
0.4142135623730925
 10
-132.430092620849
 20
38.32951278686691
 10
-145.430092620849
 20
38.32951278686674
 42
0.4142135623730951
 10
-145.930092620849
 20
37.82951278686673
 10
-145.930092620849
 20
24.82951278686672
 42
0.4142135623730404
 10
-145.430092620849
 20
24.32951278686672
  0
LWPOLYLINE
  5
232
330
1F
100
AcDbEntity
  8
0
100
AcDbPolyline
 90
        8
 70
     1
 43
0.0
 10
-141.955092620849
 20
43.37951278686682
 10
-154.955092620849
 20
43.37951278686662
 42
-0.4142135623731159
 10
-155.455092620849
 20
43.87951278686662
 10
-155.455092620849
 20
56.87951278686663
 42
-0.4142135623730898
 10
-154.955092620849
 20
57.37951278686665
 10
-141.955092620849
 20
57.37951278686683
 42
-0.4142135623731055
 10
-141.455092620849
 20
56.87951278686681
 10
-141.455092620849
 20
43.87951278686681
 42
-0.4142135623731002
  0
LWPOLYLINE
  5
233
330
1F
100
AcDbEntity
  8
0
100
AcDbPolyline
 90
        8
 70
     1
 43
0.0
 10
-180.055092620849
 20
43.37951278686644
 42
0.4142135623731002
 10
-179.555092620849
 20
43.87951278686641
 10
-179.555092620849
 20
56.87951278686642
 42
0.414213562373043
 10
-180.055092620849
 20
57.37951278686643
 10
-193.055092620849
 20
57.37951278686626
 42
0.4142135623730847
 10
-193.555092620849
 20
56.87951278686623
 10
-193.5550926208489
 20
43.87951278686623
 42
0.4142135623732043
 10
-193.055092620849
 20
43.37951278686623
  0
LWPOLYLINE
  5
234
330
1F
100
AcDbEntity
  8
0
100
AcDbPolyline
 90
        8
 70
     1
 43
0.0
 10
-150.192592620849
 20
19.27951278686671
 10
-137.192592620849
 20
19.27951278686682
 42
-0.4142135623730951
 10
-136.692592620849
 20
18.77951278686682
 10
-136.692592620849
 20
5.779512786866837
 42
-0.4142135623731074
 10
-137.192592620849
 20
5.27951278686684
 10
-150.192592620849
 20
5.279512786866706
 42
-0.4142135623730601
 10
-150.692592620849
 20
5.779512786866689
 10
-150.692592620849
 20
18.77951278686671
 42
-0.4142135623730951
  0
LWPOLYLINE
  5
235
330
1F
100
AcDbEntity
  8
0
100
AcDbPolyline
 90
        8
 70
     1
 43
0.0
 10
-170.530092620849
 20
24.32951278686648
 42
0.4142135623730612
 10
-170.0300926208489
 20
24.82951278686652
 10
-170.030092620849
 20
37.82951278686652
 42
0.4142135623730847
 10
-170.530092620849
 20
38.32951278686652
 10
-183.5300926208489
 20
38.32951278686631
 42
0.4142135623730274
 10
-184.030092620849
 20
37.82951278686633
 10
-184.030092620849
 20
24.82951278686633
 42
0.4142135623731315
 10
-183.5300926208489
 20
24.32951278686632
  0
LWPOLYLINE
  5
236
330
1F
100
AcDbEntity
  8
0
100
AcDbPolyline
 90
        8
 70
     1
 43
0.0
 10
-161.005092620849
 20
43.37951278686662
 10
-174.005092620849
 20
43.37951278686645
 42
-0.4142135623730898
 10
-174.5050926208489
 20
43.87951278686641
 10
-174.5050926208491
 20
56.87951278686642
 42
-0.4142135623730847
 10
-174.005092620849
 20
57.37951278686646
 10
-161.005092620849
 20
57.37951278686657
 42
-0.4142135623730793
 10
-160.5050926208489
 20
56.87951278686663
 10
-160.505092620849
 20
43.87951278686662
 42
-0.4142135623730586
  0
LWPOLYLINE
  5
237
330
1F
100
AcDbEntity
  8
0
100
AcDbPolyline
 90
        8
 70
     1
 43
0.0
 10
-21.60509262084939
 20
76.4295127868681
 42
0.4142135623730873
 10
-22.1050926208494
 20
75.9295127868681
 10
-22.10509262084922
 20
62.929512786868
 42
0.4142135623730327
 10
-21.60509262084919
 20
62.429512786868
 10
-8.60509262084923
 20
62.42951278686818
 42
0.4142135623730775
 10
-8.105092620849243
 20
62.92951278686821
 10
-8.105092620849381
 20
75.92951278686818
 42
0.4142135623731101
 10
-8.605092620849381
 20
76.42951278686819
  0
LWPOLYLINE
  5
238
330
1F
100
AcDbEntity
  8
0
100
AcDbPolyline
 90
        8
 70
     1
 43
0.0
 10
-22.1050926208486
 20
5.779512786868042
 10
-22.1050926208488
 20
18.77951278686811
 42
-0.4142135623730965
 10
-21.60509262084879
 20
19.27951278686809
 10
-8.605092620848749
 20
19.27951278686817
 42
-0.4142135623730937
 10
-8.105092620848775
 20
18.7795127868682
 10
-8.105092620848621
 20
5.779512786868189
 42
-0.4142135623730958
 10
-8.605092620848608
 20
5.279512786868192
 10
-21.6050926208486
 20
5.27951278686804
 42
-0.4142135623730944
  0
LWPOLYLINE
  5
239
330
1F
100
AcDbEntity
  8
0
100
AcDbPolyline
 90
        8
 70
     1
 43
0.0
 10
-45.91759262084919
 20
62.9295127868678
 10
-45.91759262084927
 20
75.9295127868678
 42
-0.4142135623730327
 10
-45.4175926208494
 20
76.4295127868678
 10
-32.41759262084939
 20
76.42951278686791
 42
-0.4142135623731549
 10
-31.91759262084927
 20
75.9295127868679
 10
-31.91759262084919
 20
62.9295127868679
 42
-0.4142135623730951
 10
-32.41759262084919
 20
62.4295127868679
 10
-45.41759262084918
 20
62.42951278686781
 42
-0.4142135623730951
  0
LWPOLYLINE
  5
240
330
1F
100
AcDbEntity
  8
0
100
AcDbPolyline
 90
        8
 70
     1
 43
0.0
 10
-84.30509262084923
 20
56.87951278686741
 42
0.4142135623730951
 10
-84.80509262084922
 20
57.37951278686738
 10
-97.80509262084921
 20
57.37951278686731
 42
0.4142135623731575
 10
-98.30509262084921
 20
56.87951278686731
 10
-98.30509262084909
 20
43.8795127868672
 42
0.4142135623730951
 10
-97.80509262084914
 20
43.37951278686721
 10
-84.80509262084909
 20
43.37951278686744
 42
0.4142135623730951
 10
-84.30509262084909
 20
43.87951278686741
  0
LWPOLYLINE
  5
241
330
1F
100
AcDbEntity
  8
0
100
AcDbPolyline
 90
        8
 70
     1
 43
0.0
 10
-103.855092620849
 20
43.37951278686721
 10
-116.855092620849
 20
43.379512786867
 42
-0.4142135623731055
 10
-117.355092620849
 20
43.87951278686701
 10
-117.355092620849
 20
56.87951278686703
 42
-0.4142135623730793
 10
-116.855092620849
 20
57.37951278686702
 10
-103.855092620849
 20
57.37951278686721
 42
-0.4142135623731159
 10
-103.355092620849
 20
56.87951278686722
 10
-103.355092620849
 20
43.8795127868672
 42
-0.4142135623731159
  0
LWPOLYLINE
  5
242
330
1F
100
AcDbEntity
  8
0
100
AcDbPolyline
 90
        8
 70
     1
 43
0.0
 10
-235.917592620849
 20
76.42951278686576
 42
0.4142135623730327
 10
-236.417592620849
 20
75.92951278686584
 10
-236.417592620849
 20
62.92951278686583
 42
0.4142135623730274
 10
-235.917592620849
 20
62.42951278686582
 10
-222.917592620849
 20
62.42951278686593
 42
0.4142135623731263
 10
-222.417592620849
 20
62.92951278686593
 10
-222.4175926208491
 20
75.92951278686593
 42
0.4142135623731159
 10
-222.917592620849
 20
76.42951278686592
  0
LWPOLYLINE
  5
243
330
1F
100
AcDbEntity
  8
0
100
AcDbPolyline
 90
        8
 70
     1
 43
0.0
 10
-126.380092620849
 20
38.32951278686691
 10
-113.380092620849
 20
38.32951278686712
 42
-0.4142135623731186
 10
-112.880092620849
 20
37.82951278686711
 10
-112.880092620849
 20
24.82951278686711
 42
-0.4142135623730976
 10
-113.380092620849
 20
24.32951278686714
 10
-126.380092620849
 20
24.32951278686699
 42
-0.4142135623730404
 10
-126.880092620849
 20
24.82951278686691
 10
-126.8800926208489
 20
37.82951278686692
 42
-0.4142135623731341
  0
LWPOLYLINE
  5
244
330
1F
100
AcDbEntity
  8
0
100
AcDbPolyline
 90
        8
 70
     1
 43
0.0
 10
-136.405092620849
 20
43.87951278686681
 10
-136.405092620849
 20
56.87951278686681
 42
-0.4142135623730898
 10
-135.905092620849
 20
57.37951278686683
 10
-122.905092620849
 20
57.37951278686704
 42
-0.4142135623730951
 10
-122.405092620849
 20
56.87951278686703
 10
-122.405092620849
 20
43.87951278686701
 42
-0.4142135623730951
 10
-122.905092620849
 20
43.37951278686702
 10
-135.905092620849
 20
43.37951278686682
 42
-0.4142135623731002
  0
LWPOLYLINE
  5
245
330
1F
100
AcDbEntity
  8
0
100
AcDbPolyline
 90
        8
 70
     1
 43
0.0
 10
-241.1800926208489
 20
24.82951278686573
 42
0.4142135623730822
 10
-240.680092620849
 20
24.32951278686582
 10
-227.680092620849
 20
24.32951278686589
 42
0.4142135623730639
 10
-227.180092620849
 20
24.82951278686594
 10
-227.1800926208489
 20
37.82951278686584
 42
0.4142135623730951
 10
-227.680092620849
 20
38.32951278686583
 10
-240.680092620849
 20
38.32951278686577
 42
0.4142135623730612
 10
-241.180092620849
 20
37.82951278686573
  0
LWPOLYLINE
  5
246
330
1F
100
AcDbEntity
  8
0
100
AcDbPolyline
 90
        8
 70
     1
 43
0.0
 10
-93.54259262084939
 20
81.9795127868673
 10
-93.54259262084953
 20
94.97951278686731
 42
-0.4142135623730639
 10
-93.04259262084958
 20
95.47951278686737
 10
-80.04259262084957
 20
95.47951278686745
 42
-0.4142135623732303
 10
-79.54259262084957
 20
94.97951278686741
 10
-79.54259262084942
 20
81.97951278686742
 42
-0.4142135623730951
 10
-80.04259262084941
 20
81.47951278686745
 10
-93.04259262084938
 20
81.47951278686731
 42
-0.4142135623730951
  0
LWPOLYLINE
  5
247
330
1F
100
AcDbEntity
  8
0
100
AcDbPolyline
 90
        8
 70
     1
 43
0.0
 10
-237.2050926208491
 20
43.37951278686576
 42
0.4142135623730951
 10
-236.7050926208489
 20
43.87951278686582
 10
-236.705092620849
 20
56.87951278686583
 42
0.4142135623730222
 10
-237.2050926208491
 20
57.37951278686582
 10
-250.205092620849
 20
57.37951278686563
 42
0.4142135623731263
 10
-250.705092620849
 20
56.87951278686563
 10
-250.705092620849
 20
43.87951278686563
 42
0.4142135623730379
 10
-250.205092620849
 20
43.37951278686563
  0
LWPOLYLINE
  5
248
330
1F
100
AcDbEntity
  8
0
100
AcDbPolyline
 90
        8
 70
     1
 43
0.0
 10
-265.780092620849
 20
5.279512786865487
 42
0.4142135623731301
 10
-265.2800926208491
 20
5.77951278686548
 10
-265.2800926208491
 20
18.77951278686553
 42
0.4142135623730976
 10
-265.780092620849
 20
19.27951278686553
 10
-278.780092620849
 20
19.27951278686535
 42
0.4142135623731237
 10
-279.280092620849
 20
18.77951278686534
 10
-279.280092620849
 20
5.779512786865355
 42
0.4142135623731062
 10
-278.780092620849
 20
5.279512786865343
  0
LWPOLYLINE
  5
249
330
1F
100
AcDbEntity
  8
0
100
AcDbPolyline
 90
        8
 70
     1
 43
0.0
 10
-194.342592620849
 20
81.47951278686633
 10
-207.3425926208491
 20
81.47951278686617
 42
-0.4142135623737194
 10
-207.8425926208501
 20
81.97951278686613
 10
-207.84259262085
 20
94.97951278686615
 42
-0.4142135623731055
 10
-207.34259262085
 20
95.47951278686616
 10
-194.34259262085
 20
95.47951278686625
 42
-0.4142135623730951
 10
-193.84259262085
 20
94.97951278686624
 10
-193.842592620849
 20
81.97951278686621
 42
-0.414213562373043
  0
LWPOLYLINE
  5
250
330
1F
100
AcDbEntity
  8
0
100
AcDbPolyline
 90
        8
 70
     1
 43
0.0
 10
-112.592592620849
 20
81.9795127868671
 10
-112.5925926208499
 20
94.97951278686716
 42
-0.4142135623730951
 10
-112.0925926208499
 20
95.4795127868671
 10
-99.09259262084958
 20
95.47951278686728
 42
-0.4142135623731159
 10
-98.59259262084963
 20
94.97951278686722
 10
-98.59259262084943
 20
81.97951278686725
 42
-0.4142135623731575
 10
-99.09259262084951
 20
81.47951278686724
 10
-112.092592620849
 20
81.4795127868671
 42
-0.4142135623730951
  0
LWPOLYLINE
  5
251
330
1F
100
AcDbEntity
  8
0
100
AcDbPolyline
 90
        8
 70
     1
 43
0.0
 10
-131.642592620849
 20
81.97951278686693
 10
-131.64259262085
 20
94.97951278686693
 42
-0.4142135623730744
 10
-131.14259262085
 20
95.47951278686694
 10
-118.14259262085
 20
95.47951278686706
 42
-0.4142135623730951
 10
-117.64259262085
 20
94.97951278686702
 10
-117.642592620849
 20
81.97951278686703
 42
-0.4142135623730951
 10
-118.142592620849
 20
81.47951278686708
 10
-131.142592620849
 20
81.47951278686692
 42
-0.4142135623730951
  0
LWPOLYLINE
  5
252
330
1F
100
AcDbEntity
  8
0
100
AcDbPolyline
 90
        8
 70
     1
 43
0.0
 10
-250.99259262085
 20
94.97951278686562
 42
0.4142135623730951
 10
-251.49259262085
 20
95.47951278686563
 10
-264.49259262085
 20
95.47951278686555
 42
0.4142135623730951
 10
-264.99259262085
 20
94.97951278686551
 10
-264.9925926208491
 20
81.97951278686552
 42
0.4142135623724915
 10
-264.49259262085
 20
81.47951278686553
 10
-251.49259262085
 20
81.47951278686566
 42
0.4142135623730951
 10
-250.99259262085
 20
81.97951278686563
  0
LWPOLYLINE
  5
253
330
1F
100
AcDbEntity
  8
0
100
AcDbPolyline
 90
        8
 70
     1
 43
0.0
 10
-46.20509262084919
 20
56.87951278686782
 10
-46.20509262084909
 20
43.87951278686781
 42
-0.4142135623730951
 10
-46.70509262084909
 20
43.37951278686781
 10
-59.7050926208491
 20
43.3795127868676
 42
-0.4142135623731159
 10
-60.2050926208491
 20
43.8795127868676
 10
-60.2050926208492
 20
56.87951278686761
 42
-0.4142135623731523
 10
-59.7050926208492
 20
57.37951278686772
 10
-46.70509262084919
 20
57.37951278686781
 42
-0.4142135623731159
  0
LWPOLYLINE
  5
254
330
1F
100
AcDbEntity
  8
0
100
AcDbPolyline
 90
        8
 70
     1
 43
0.0
 10
-108.617592620849
 20
62.42951278686713
 10
-121.617592620849
 20
62.42951278686705
 42
-0.4142135623730951
 10
-122.1175926208489
 20
62.92951278686702
 10
-122.117592620849
 20
75.92951278686701
 42
-0.4142135623731106
 10
-121.617592620849
 20
76.42951278686701
 10
-108.617592620849
 20
76.42951278686713
 42
-0.4142135623730951
 10
-108.1175926208489
 20
75.92951278686711
 10
-108.117592620849
 20
62.92951278686713
 42
-0.4142135623730744
  0
LWPOLYLINE
  5
255
330
1F
100
AcDbEntity
  8
0
100
AcDbPolyline
 90
        8
 70
     1
 43
0.0
 10
-70.51759262084928
 20
62.42951278686754
 42
0.4142135623731523
 10
-70.0175926208492
 20
62.92951278686751
 10
-70.01759262084938
 20
75.92951278686753
 42
0.4142135623731106
 10
-70.5175926208494
 20
76.42951278686751
 10
-83.51759262084939
 20
76.42951278686741
 42
0.4142135623731106
 10
-84.0175926208494
 20
75.9295127868674
 10
-84.01759262084928
 20
62.9295127868674
 42
0.4142135623731575
 10
-83.51759262084918
 20
62.4295127868674
  0
LWPOLYLINE
  5
256
330
1F
100
AcDbEntity
  8
0
100
AcDbPolyline
 90
        8
 70
     1
 43
0.0
 10
-263.280092620849
 20
63.42951278686554
 42
0.4142135623730951
 10
-262.780092620849
 20
62.92951278686555
 10
-257.967592620849
 20
62.92951278686554
 42
0.4142135623730951
 10
-257.467592620849
 20
63.42951278686553
 10
-257.467592620849
 20
75.42951278686553
 42
0.4142135623730951
 10
-257.967592620849
 20
75.92951278686553
 10
-262.780092620849
 20
75.92951278686553
 42
0.4142135623730951
 10
-263.280092620849
 20
75.42951278686553
  0
LWPOLYLINE
  5
257
330
1F
100
AcDbEntity
  8
0
100
AcDbPolyline
 90
        8
 70
     1
 43
0.0
 10
-29.91759262084919
 20
63.42951278686801
 42
0.4142135623730951
 10
-29.41759262084919
 20
62.92951278686802
 10
-24.6050926208493
 20
62.9295127868681
 42
0.4142135623730951
 10
-24.1050926208493
 20
63.4295127868681
 10
-24.1050926208494
 20
75.429512786868
 42
0.4142135623730951
 10
-24.6050926208494
 20
75.929512786868
 10
-29.41759262084959
 20
75.929512786868
 42
0.4142135623731523
 10
-29.91759262084959
 20
75.4295127868679
  0
LWPOLYLINE
  5
258
330
1F
100
AcDbEntity
  8
0
100
AcDbPolyline
 90
        8
 70
     1
 43
0.0
 10
-7.310842620849975
 20
44.37951278686529
 10
-13.31084262084999
 20
44.37951278686529
 42
-0.4142135623730951
 10
-13.81084262084999
 20
44.87951278686529
 10
-13.81084262085002
 20
58.87951278686539
 42
-0.4142135623730365
 10
-13.31084262084999
 20
59.37951278686533
 10
-7.310842620849973
 20
59.3795127868654
 42
-0.4142135623730898
 10
-6.810842620849971
 20
58.87951278686539
 10
-6.810842620850078
 20
44.87951278686529
 42
-0.4142135623731504
  0
LWPOLYLINE
  5
259
330
1F
100
AcDbEntity
  8
0
100
AcDbPolyline
 90
        8
 70
     1
 43
0.0
 10
-31.18684262085
 20
44.3795127868653
 10
-37.18684262085
 20
44.37951278686529
 42
-0.4142135623730951
 10
-37.68684262085001
 20
44.8795127868653
 10
-37.68684262084999
 20
58.8795127868653
 42
-0.4142135623730951
 10
-37.18684262085
 20
59.3795127868653
 10
-31.18684262085
 20
59.3795127868653
 42
-0.4142135623730976
 10
-30.68684262085
 20
58.8795127868653
 10
-30.68684262085011
 20
44.8795127868653
 42
-0.4142135623731498
  0
LWPOLYLINE
  5
260
330
1F
100
AcDbEntity
  8
0
100
AcDbPolyline
 90
        8
 70
     1
 43
0.0
 10
-241.96759262085
 20
5.279512786865413
 42
0.4142135623730951
 10
-241.46759262085
 20
5.779512786865421
 10
-241.46759262085
 20
18.77951278686543
 42
0.4142135623730951
 10
-241.96759262085
 20
19.27951278686543
 10
-254.96759262085
 20
19.27951278686543
 42
0.4142135623730951
 10
-255.4675926208501
 20
18.77951278686543
 10
-255.4675926208501
 20
5.779512786865423
 42
0.4142135623730951
 10
-254.96759262085
 20
5.279512786865431
  0
LWPOLYLINE
  5
261
330
1F
100
AcDbEntity
  8
0
100
AcDbPolyline
 90
        8
 70
     1
 43
0.0
 10
-218.155092620849
 20
5.279512786865987
 10
-231.1550926208489
 20
5.279512786865852
 42
-0.4142135623730469
 10
-231.6550926208491
 20
5.779512786865849
 10
-231.6550926208491
 20
18.77951278686583
 42
-0.4142135623731237
 10
-231.1550926208489
 20
19.27951278686584
 10
-218.155092620849
 20
19.27951278686603
 42
-0.4142135623730744
 10
-217.655092620849
 20
18.77951278686603
 10
-217.6550926208491
 20
5.779512786865987
 42
-0.4142135623730822
  0
LWPOLYLINE
  5
262
330
1F
100
AcDbEntity
  8
0
100
AcDbPolyline
 90
        8
 70
     1
 43
0.0
 10
-56.2300926208486
 20
5.279512786867687
 10
-69.2300926208486
 20
5.279512786867549
 42
-0.4142135623730793
 10
-69.73009262084861
 20
5.779512786867538
 10
-69.73009262084879
 20
18.77951278686751
 42
-0.4142135623731523
 10
-69.23009262084879
 20
19.27951278686761
 10
-56.23009262084881
 20
19.27951278686772
 42
-0.414213562373099
 10
-55.7300926208488
 20
18.7795127868677
 10
-55.7300926208486
 20
5.779512786867686
 42
-0.4142135623731029
  0
LWPOLYLINE
  5
263
330
1F
100
AcDbEntity
  8
0
100
AcDbPolyline
 90
        8
 70
     1
 43
0.0
 10
-226.39259262085
 20
95.47951278686591
 10
-213.39259262085
 20
95.47951278686603
 42
-0.4142135623731055
 10
-212.89259262085
 20
94.97951278686603
 10
-212.892592620849
 20
81.97951278686604
 42
-0.4142135623729806
 10
-213.392592620849
 20
81.4795127868661
 10
-226.392592620849
 20
81.47951278686592
 42
-0.4142135623730744
 10
-226.892592620849
 20
81.97951278686593
 10
-226.89259262085
 20
94.97951278686596
 42
-0.4142135623730951
  0
LWPOLYLINE
  5
264
330
1F
100
AcDbEntity
  8
0
100
AcDbPolyline
 90
        8
 70
     1
 43
0.0
 10
-245.44259262085
 20
95.47951278686573
 10
-232.44259262085
 20
95.4795127868658
 42
-0.4142135623730847
 10
-231.94259262085
 20
94.97951278686581
 10
-231.94259262085
 20
81.97951278686582
 42
-0.4142135623730013
 10
-232.44259262085
 20
81.47951278686589
 10
-245.442592620849
 20
81.47951278686573
 42
-0.414213562372991
 10
-245.9425926208492
 20
81.97951278686572
 10
-245.94259262085
 20
94.97951278686574
 42
-0.4142135623730951
  0
LWPOLYLINE
  5
265
330
1F
100
AcDbEntity
  8
0
100
AcDbPolyline
 90
        8
 70
     1
 43
0.0
 10
-54.94259262084959
 20
95.4795127868677
 10
-41.94259262084959
 20
95.47951278686779
 42
-0.4142135623731002
 10
-41.44259262084958
 20
94.97951278686779
 10
-41.44259262084942
 20
81.9795127868679
 42
-0.4142135623731626
 10
-41.94259262084939
 20
81.47951278686784
 10
-54.9425926208494
 20
81.47951278686774
 42
-0.4142135623730482
 10
-55.44259262084949
 20
81.97951278686771
 10
-55.44259262084962
 20
94.9795127868677
 42
-0.4142135623730847
  0
ENDSEC
  0
SECTION
  2
OBJECTS
  0
DICTIONARY
  5
C
330
0
100
AcDbDictionary
281
     1
  3
ACAD_BACKGROUND
350
1005B
  3
ACAD_CIP_PREVIOUS_PRODUCT_INFO
350
1005A
  3
ACAD_COLOR
350
10036
  3
ACAD_DETAILVIEWSTYLE
350
10051
  3
ACAD_GROUP
350
D
  3
ACAD_LAST_SAVED_VERSION_INFO
350
1005E
  3
ACAD_LAYOUT
350
10037
  3
ACAD_MATERIAL
350
10004
  3
ACAD_MLEADERSTYLE
350
1004D
  3
ACAD_MLINESTYLE
350
17
  3
ACAD_PLOTSETTINGS
350
10054
  3
ACAD_PLOTSTYLENAME
350
10002
  3
ACAD_SCALELIST
350
1003B
  3
ACAD_SECTIONVIEWSTYLE
350
1004F
  3
ACAD_TABLESTYLE
350
10038
  3
ACAD_VISUALSTYLE
350
1001D
  3
ACDB_RECOMPOSE_DATA
350
10076
  3
AcDbVariableDictionary
350
1006A
  3
AcDsDecomposeData
350
1007C
  0
DICTIONARY
  5
10064
330
2
100
AcDbDictionary
280
     1
281
     1
  3
ACAD_LAYERSTATES
360
10065
  0
DICTIONARY
  5
1005F
330
50
100
AcDbDictionary
280
     1
281
     1
  3
ADSK_XREC_LAYER_RECONCILED
360
10060
  0
DICTIONARY
  5
1005B
102
{ACAD_REACTORS
330
C
102
}
330
C
100
AcDbDictionary
281
     1
  0
XRECORD
  5
1005A
102
{ACAD_REACTORS
330
C
102
}
330
C
100
AcDbXrecord
280
     1
300
ACDMAC
300
2025
300

  0
DICTIONARY
  5
10036
102
{ACAD_REACTORS
330
C
102
}
330
C
100
AcDbDictionary
281
     1
  0
DICTIONARY
  5
10051
102
{ACAD_REACTORS
330
C
102
}
330
C
100
AcDbDictionary
281
     1
  3
Imperial24
350
10052
  0
DICTIONARY
  5
D
330
C
100
AcDbDictionary
281
     1
  0
XRECORD
  5
1005E
102
{ACAD_REACTORS
330
C
102
}
330
C
100
AcDbXrecord
280
     1
300
{C2AABC66-AA38-2040-8D0C-61515F5D2CF1}
301
{0F4FA204-1A8D-354D-97ED-1A3949CF1BCE}
302
{C2AABC66-AA38-2040-8D0C-61515F5D2CF1}
303
/Users/junkibeom/Downloads/스케치2.dxf
  0
DICTIONARY
  5
10037
102
{ACAD_REACTORS
330
C
102
}
330
C
100
AcDbDictionary
281
     1
  3
Model
350
10055
  3
배치1
350
10056
  0
DICTIONARY
  5
10004
102
{ACAD_REACTORS
330
C
102
}
330
C
100
AcDbDictionary
281
     1
  3
ByBlock
350
1000D
  3
ByLayer
350
10005
  3
Global
350
10015
  0
DICTIONARY
  5
1004D
102
{ACAD_REACTORS
330
C
102
}
330
C
100
AcDbDictionary
281
     1
  3
Standard
350
1004E
  0
DICTIONARY
  5
17
330
C
100
AcDbDictionary
281
     1
  3
Standard
350
1003A
  0
DICTIONARY
  5
10054
102
{ACAD_REACTORS
330
C
102
}
330
C
100
AcDbDictionary
281
     1
  0
ACDBDICTIONARYWDFLT
  5
10002
102
{ACAD_REACTORS
330
C
102
}
330
C
100
AcDbDictionary
281
     1
  3
Normal
350
10003
100
AcDbDictionaryWithDefault
340
10003
  0
DICTIONARY
  5
1003B
102
{ACAD_REACTORS
330
C
102
}
330
C
100
AcDbDictionary
281
     1
  3
A0
350
1003C
  3
A1
350
1003D
  3
A2
350
1003E
  3
A3
350
1003F
  3
A4
350
10040
  3
A5
350
10041
  3
A6
350
10042
  3
A7
350
10043
  3
A8
350
10044
  3
A9
350
10045
  3
B0
350
10046
  3
B1
350
10047
  3
B2
350
10048
  3
B3
350
10049
  3
B4
350
1004A
  3
B5
350
1004B
  3
B6
350
1004C
  0
DICTIONARY
  5
1004F
102
{ACAD_REACTORS
330
C
102
}
330
C
100
AcDbDictionary
281
     1
  3
Imperial24
350
10050
  0
DICTIONARY
  5
10038
102
{ACAD_REACTORS
330
C
102
}
330
C
100
AcDbDictionary
281
     1
  3
Standard
350
10039
  0
DICTIONARY
  5
1001D
102
{ACAD_REACTORS
330
C
102
}
330
C
100
AcDbDictionary
281
     1
  3
2dWireframe
350
10023
  3
Basic
350
10022
  3
Brighten
350
10029
  3
ColorChange
350
1002D
  3
Conceptual
350
10026
  3
Dim
350
10028
  3
EdgeColorOff
350
10035
  3
Facepattern
350
1002C
  3
Flat
350
1001E
  3
FlatWithEdges
350
1001F
  3
Gouraud
350
10020
  3
GouraudWithEdges
350
10021
  3
Hidden
350
10025
  3
JitterOff
350
10033
  3
Linepattern
350
1002B
  3
OverhangOff
350
10034
  3
Realistic
350
10027
  3
Shaded
350
10032
  3
Shaded with edges
350
10031
  3
Shades of Gray
350
1002E
  3
Sketchy
350
1002F
  3
Thicken
350
1002A
  3
Wireframe
350
10024
  3
X-Ray
350
10030
  0
XRECORD
  5
10076
102
{ACAD_REACTORS
330
C
102
}
330
C
100
AcDbXrecord
280
     1
 90
        1
330
10039
  0
DICTIONARY
  5
1006A
102
{ACAD_REACTORS
330
C
102
}
330
C
100
AcDbDictionary
281
     1
  3
CANNOSCALE
350
10070
  3
CMLEADERSTYLE
350
1006C
  3
CTABLESTYLE
350
1006B
  3
CVIEWDETAILSTYLE
350
1006D
  3
CVIEWSECTIONSTYLE
350
1006E
  3
LAYEREVAL
350
10072
  3
LAYERNOTIFY
350
10073
  3
LIGHTINGUNITS
350
10071
  3
MSLTSCALE
350
1006F
  0
DICTIONARY
  5
1007C
102
{ACAD_REACTORS
330
C
102
}
330
C
100
AcDbDictionary
281
     1
  3
AcDsRecords
350
1007E
  3
AcDsSchemas
350
1007D
1001
ACAD
1070
     2
  0
DICTIONARY
  5
10065
102
{ACAD_REACTORS
330
10064
102
}
330
10064
100
AcDbDictionary
281
     1
  0
XRECORD
  5
10060
102
{ACAD_REACTORS
330
1005F
102
}
330
1005F
100
AcDbXrecord
280
     1
290
     1
  0
ACDBDETAILVIEWSTYLE
  5
10052
102
{ACAD_XDICTIONARY
360
10081
102
}
102
{ACAD_REACTORS
330
10051
102
}
330
10051
100
AcDbModelDocViewStyle
 70
     0
  3
Imperial24
290
     0
100
AcDbDetailViewStyle
 70
     0
 71
     0
 90
        3
 71
     1
340
11
 62
   256
 40
0.24
340
0
 62
   256
 40
0.24
300

 40
0.36
280
     3
 71
     2
340
10001
 90
       25
 62
   256
 71
     3
340
11
 62
   256
 40
0.24
 90
        1
 40
0.75
 90
        1
300
%<\AcVar ViewType \f "%tc1">% %<\AcVar ViewDetailId>%\PSCALE %<\AcVar ViewScale \f "%sn">%
 71
     4
340
10001
 90
       25
 62
   256
340
10001
 90
       25
 62
   256
280
     0
  0
LAYOUT
  5
10055
102
{ACAD_REACTORS
330
10037
102
}
330
10037
100
AcDbPlotSettings
  1

  2

  4

  6

 40
0.0
 41
0.0
 42
0.0
 43
0.0
 44
0.0
 45
0.0
 46
0.0
 47
0.0
 48
0.0
 49
0.0
140
0.0
141
0.0
142
1.0
143
1.0
 70
  1712
 72
     0
 73
     0
 74
     0
  7

 75
     0
147
1.0
 76
     0
 77
     2
 78
   300
148
0.0
149
0.0
100
AcDbLayout
  1
Model
 70
     1
 71
     0
 10
0.0
 20
0.0
 11
12.0
 21
9.0
 12
0.0
 22
0.0
 32
0.0
 14
0.0
 24
0.0
 34
0.0
 15
0.0
 25
0.0
 35
0.0
146
0.0
 13
0.0
 23
0.0
 33
0.0
 16
1.0
 26
0.0
 36
0.0
 17
0.0
 27
1.0
 37
0.0
 76
     0
330
1F
331
10059
  0
LAYOUT
  5
10056
102
{ACAD_REACTORS
330
10037
102
}
330
10037
100
AcDbPlotSettings
  1

  2

  4

  6

 40
0.0
 41
0.0
 42
0.0
 43
0.0
 44
0.0
 45
0.0
 46
0.0
 47
0.0
 48
0.0
 49
0.0
140
0.0
141
0.0
142
1.0
143
1.0
 70
   688
 72
     0
 73
     0
 74
     5
  7

 75
    16
147
1.0
 76
     0
 77
     2
 78
   300
148
0.0
149
0.0
100
AcDbLayout
  1
배치1
 70
     1
 71
     1
 10
0.0
 20
0.0
 11
12.0
 21
9.0
 12
0.0
 22
0.0
 32
0.0
 14
1.000000000000000E+20
 24
1.000000000000000E+20
 34
1.000000000000000E+20
 15
-1.000000000000000E+20
 25
-1.000000000000000E+20
 35
-1.000000000000000E+20
146
0.0
 13
0.0
 23
0.0
 33
0.0
 16
1.0
 26
0.0
 36
0.0
 17
0.0
 27
1.0
 37
0.0
 76
     0
330
1B
  0
MATERIAL
  5
1000D
102
{ACAD_XDICTIONARY
360
1000E
102
}
102
{ACAD_REACTORS
330
10004
102
}
330
10004
100
AcDbMaterial
  1
ByBlock
 72
     0
 43
0.0008202099737533
 43
0.0
 43
0.0
 43
0.0
 43
0.0
 43
0.0008202099737533
 43
0.0
 43
0.0
 43
0.0
 43
0.0
 43
1.0
 43
0.0
 43
0.0
 43
0.0
 43
0.0
 43
1.0
 77
     0
 47
0.0008202099737533
 47
0.0
 47
0.0
 47
0.0
 47
0.0
 47
0.0008202099737533
 47
0.0
 47
0.0
 47
0.0
 47
0.0
 47
1.0
 47
0.0
 47
0.0
 47
0.0
 47
0.0
 47
1.0
171
     0
 49
0.0008202099737533
 49
0.0
 49
0.0
 49
0.0
 49
0.0
 49
0.0008202099737533
 49
0.0
 49
0.0
 49
0.0
 49
0.0
 49
1.0
 49
0.0
 49
0.0
 49
0.0
 49
0.0
 49
1.0
175
     0
142
0.0008202099737533
142
0.0
142
0.0
142
0.0
142
0.0
142
0.0008202099737533
142
0.0
142
0.0
142
0.0
142
0.0
142
1.0
142
0.0
142
0.0
142
0.0
142
0.0
142
1.0
179
     0
144
0.0008202099737533
144
0.0
144
0.0
144
0.0
144
0.0
144
0.0008202099737533
144
0.0
144
0.0
144
0.0
144
0.0
144
1.0
144
0.0
144
0.0
144
0.0
144
0.0
144
1.0
147
0.0008202099737533
147
0.0
147
0.0
147
0.0
147
0.0
147
0.0008202099737533
147
0.0
147
0.0
147
0.0
147
0.0
147
1.0
147
0.0
147
0.0
147
0.0
147
0.0
147
1.0
  0
MATERIAL
  5
10005
102
{ACAD_XDICTIONARY
360
10006
102
}
102
{ACAD_REACTORS
330
10004
102
}
330
10004
100
AcDbMaterial
  1
ByLayer
 72
     0
 43
0.0008202099737533
 43
0.0
 43
0.0
 43
0.0
 43
0.0
 43
0.0008202099737533
 43
0.0
 43
0.0
 43
0.0
 43
0.0
 43
1.0
 43
0.0
 43
0.0
 43
0.0
 43
0.0
 43
1.0
 77
     0
 47
0.0008202099737533
 47
0.0
 47
0.0
 47
0.0
 47
0.0
 47
0.0008202099737533
 47
0.0
 47
0.0
 47
0.0
 47
0.0
 47
1.0
 47
0.0
 47
0.0
 47
0.0
 47
0.0
 47
1.0
171
     0
 49
0.0008202099737533
 49
0.0
 49
0.0
 49
0.0
 49
0.0
 49
0.0008202099737533
 49
0.0
 49
0.0
 49
0.0
 49
0.0
 49
1.0
 49
0.0
 49
0.0
 49
0.0
 49
0.0
 49
1.0
175
     0
142
0.0008202099737533
142
0.0
142
0.0
142
0.0
142
0.0
142
0.0008202099737533
142
0.0
142
0.0
142
0.0
142
0.0
142
1.0
142
0.0
142
0.0
142
0.0
142
0.0
142
1.0
179
     0
144
0.0008202099737533
144
0.0
144
0.0
144
0.0
144
0.0
144
0.0008202099737533
144
0.0
144
0.0
144
0.0
144
0.0
144
1.0
144
0.0
144
0.0
144
0.0
144
0.0
144
1.0
147
0.0008202099737533
147
0.0
147
0.0
147
0.0
147
0.0
147
0.0008202099737533
147
0.0
147
0.0
147
0.0
147
0.0
147
1.0
147
0.0
147
0.0
147
0.0
147
0.0
147
1.0
  0
MATERIAL
  5
10015
102
{ACAD_XDICTIONARY
360
10016
102
}
102
{ACAD_REACTORS
330
10004
102
}
330
10004
100
AcDbMaterial
  1
Global
 72
     0
 43
0.0008202099737533
 43
0.0
 43
0.0
 43
0.0
 43
0.0
 43
0.0008202099737533
 43
0.0
 43
0.0
 43
0.0
 43
0.0
 43
1.0
 43
0.0
 43
0.0
 43
0.0
 43
0.0
 43
1.0
 77
     0
 47
0.0008202099737533
 47
0.0
 47
0.0
 47
0.0
 47
0.0
 47
0.0008202099737533
 47
0.0
 47
0.0
 47
0.0
 47
0.0
 47
1.0
 47
0.0
 47
0.0
 47
0.0
 47
0.0
 47
1.0
171
     0
 49
0.0008202099737533
 49
0.0
 49
0.0
 49
0.0
 49
0.0
 49
0.0008202099737533
 49
0.0
 49
0.0
 49
0.0
 49
0.0
 49
1.0
 49
0.0
 49
0.0
 49
0.0
 49
0.0
 49
1.0
175
     0
142
0.0008202099737533
142
0.0
142
0.0
142
0.0
142
0.0
142
0.0008202099737533
142
0.0
142
0.0
142
0.0
142
0.0
142
1.0
142
0.0
142
0.0
142
0.0
142
0.0
142
1.0
179
     0
144
0.0008202099737533
144
0.0
144
0.0
144
0.0
144
0.0
144
0.0008202099737533
144
0.0
144
0.0
144
0.0
144
0.0
144
1.0
144
0.0
144
0.0
144
0.0
144
0.0
144
1.0
147
0.0008202099737533
147
0.0
147
0.0
147
0.0
147
0.0
147
0.0008202099737533
147
0.0
147
0.0
147
0.0
147
0.0
147
1.0
147
0.0
147
0.0
147
0.0
147
0.0
147
1.0
  0
MLEADERSTYLE
  5
1004E
102
{ACAD_REACTORS
330
1004D
102
}
330
1004D
100
AcDbMLeaderStyle
179
     2
170
     2
171
     1
172
     0
 90
        2
 40
0.0
 41
0.0
173
     1
 91
-1056964608
340
14
 92
       -2
290
     1
 42
0.09
291
     1
 43
0.36
  3
Standard
 44
0.18
300

342
11
174
     1
178
     6
175
     1
176
     0
 93
-1056964608
 45
0.18
292
     0
297
     0
 46
0.18
 94
-1056964608
 47
1.0
 49
1.0
140
1.0
293
     1
141
0.0
294
     1
177
     0
142
1.0
295
     0
296
     0
143
0.125
271
     0
272
     9
273
     9
298
     0
  0
MLINESTYLE
  5
1003A
102
{ACAD_REACTORS
330
17
102
}
330
17
100
AcDbMlineStyle
  2
STANDARD
 70
     0
  3

 62
   256
 51
90.0
 52
90.0
 71
     2
 49
0.5
 62
   256
  6
BYLAYER
 49
-0.5
 62
   256
  6
BYLAYER
  0
ACDBPLACEHOLDER
  5
10003
102
{ACAD_REACTORS
330
10002
102
}
330
10002
  0
SCALE
  5
1003C
102
{ACAD_REACTORS
330
1003B
102
}
330
1003B
100
AcDbScale
 70
     0
300
1:1
140
1.0
141
1.0
290
     1
  0
SCALE
  5
1003D
102
{ACAD_REACTORS
330
1003B
102
}
330
1003B
100
AcDbScale
 70
     0
300
1/128" = 1'-0"
140
0.0078125
141
12.0
290
     0
  0
SCALE
  5
1003E
102
{ACAD_REACTORS
330
1003B
102
}
330
1003B
100
AcDbScale
 70
     0
300
1/64" = 1'-0"
140
0.015625
141
12.0
290
     0
  0
SCALE
  5
1003F
102
{ACAD_REACTORS
330
1003B
102
}
330
1003B
100
AcDbScale
 70
     0
300
1/32" = 1'-0"
140
0.03125
141
12.0
290
     0
  0
SCALE
  5
10040
102
{ACAD_REACTORS
330
1003B
102
}
330
1003B
100
AcDbScale
 70
     0
300
1/16" = 1'-0"
140
0.0625
141
12.0
290
     0
  0
SCALE
  5
10041
102
{ACAD_REACTORS
330
1003B
102
}
330
1003B
100
AcDbScale
 70
     0
300
3/32" = 1'-0"
140
0.09375
141
12.0
290
     0
  0
SCALE
  5
10042
102
{ACAD_REACTORS
330
1003B
102
}
330
1003B
100
AcDbScale
 70
     0
300
1/8" = 1'-0"
140
0.125
141
12.0
290
     0
  0
SCALE
  5
10043
102
{ACAD_REACTORS
330
1003B
102
}
330
1003B
100
AcDbScale
 70
     0
300
3/16" = 1'-0"
140
0.1875
141
12.0
290
     0
  0
SCALE
  5
10044
102
{ACAD_REACTORS
330
1003B
102
}
330
1003B
100
AcDbScale
 70
     0
300
1/4" = 1'-0"
140
0.25
141
12.0
290
     0
  0
SCALE
  5
10045
102
{ACAD_REACTORS
330
1003B
102
}
330
1003B
100
AcDbScale
 70
     0
300
3/8" = 1'-0"
140
0.375
141
12.0
290
     0
  0
SCALE
  5
10046
102
{ACAD_REACTORS
330
1003B
102
}
330
1003B
100
AcDbScale
 70
     0
300
1/2" = 1'-0"
140
0.5
141
12.0
290
     0
  0
SCALE
  5
10047
102
{ACAD_REACTORS
330
1003B
102
}
330
1003B
100
AcDbScale
 70
     0
300
3/4" = 1'-0"
140
0.75
141
12.0
290
     0
  0
SCALE
  5
10048
102
{ACAD_REACTORS
330
1003B
102
}
330
1003B
100
AcDbScale
 70
     0
300
1" = 1'-0"
140
1.0
141
12.0
290
     0
  0
SCALE
  5
10049
102
{ACAD_REACTORS
330
1003B
102
}
330
1003B
100
AcDbScale
 70
     0
300
1-1/2" = 1'-0"
140
1.5
141
12.0
290
     0
  0
SCALE
  5
1004A
102
{ACAD_REACTORS
330
1003B
102
}
330
1003B
100
AcDbScale
 70
     0
300
3" = 1'-0"
140
3.0
141
12.0
290
     0
  0
SCALE
  5
1004B
102
{ACAD_REACTORS
330
1003B
102
}
330
1003B
100
AcDbScale
 70
     0
300
6" = 1'-0"
140
6.0
141
12.0
290
     0
  0
SCALE
  5
1004C
102
{ACAD_REACTORS
330
1003B
102
}
330
1003B
100
AcDbScale
 70
     0
300
1'-0" = 1'-0"
140
12.0
141
12.0
290
     0
  0
ACDBSECTIONVIEWSTYLE
  5
10050
102
{ACAD_XDICTIONARY
360
1007F
102
}
102
{ACAD_REACTORS
330
1004F
102
}
330
1004F
100
AcDbModelDocViewStyle
 70
     0
  3
Imperial24
290
     0
100
AcDbSectionViewStyle
 70
     0
 71
     0
 90
       78
 71
     1
340
11
 62
   256
 40
0.24
340
0
340
0
 62
   256
 40
0.24
300
I, O, Q, S, X, Z
 40
0.48
 90
        3
 40
0.18
 90
        1
 71
     2
340
10001
 90
       25
 62
   256
340
10001
 90
       50
 62
   256
 40
0.24
 40
0.0
 40
0.24
 71
     3
340
11
 62
   256
 40
0.24
 90
        1
 40
0.75
 90
        1
300
%<\AcVar ViewType \f "%tc1">% %<\AcVar ViewSectionStartId>%-%<\AcVar ViewSectionEndId>%\PSCALE %<\AcVar ViewScale \f "%sn">%
 71
     4
 62
   256
 62
   257
300
ANSI31
 40
1.0
 90
        0
290
     0
290
     0
 90
        6
 40
0.0
 40
1.570796326794896
 40
0.2617993877991494
 40
1.308996938995747
 40
-0.2617993877991494
 40
1.832595714594046
  0
TABLESTYLE
  5
10039
102
{ACAD_XDICTIONARY
360
10074
102
}
102
{ACAD_REACTORS
330
10038
102
}
330
10038
100
AcDbTableStyle
280
     0
  3
Standard
 70
     0
 71
     0
 40
0.06
 41
0.06
280
     0
281
     0
  7
STANDARD
140
0.18
170
     2
 62
     0
 63
     7
283
     0
 90
      512
 91
        0
  1

274
    -2
284
     1
 64
     0
275
    -2
285
     1
 65
     0
276
    -2
286
     1
 66
     0
277
    -2
287
     1
 67
     0
278
    -2
288
     1
 68
     0
279
    -2
289
     1
 69
     0
  7
STANDARD
140
0.25
170
     5
 62
     0
 63
     7
283
     0
 90
      512
 91
        0
  1

274
    -2
284
     1
 64
     0
275
    -2
285
     1
 65
     0
276
    -2
286
     1
 66
     0
277
    -2
287
     1
 67
     0
278
    -2
288
     1
 68
     0
279
    -2
289
     1
 69
     0
  7
STANDARD
140
0.18
170
     5
 62
     0
 63
     7
283
     0
 90
      512
 91
        0
  1

274
    -2
284
     1
 64
     0
275
    -2
285
     1
 65
     0
276
    -2
286
     1
 66
     0
277
    -2
287
     1
 67
     0
278
    -2
288
     1
 68
     0
279
    -2
289
     1
 69
     0
  0
VISUALSTYLE
  5
10023
102
{ACAD_REACTORS
330
1001D
102
}
330
1001D
100
AcDbVisualStyle
  2
2dWireframe
 70
     4
177
     3
291
     0
 70
    58
 90
        0
176
     1
 90
        2
176
     1
 90
        0
176
     1
 90
        0
176
     1
 40
0.6
176
     1
 40
30.0
176
     1
 62
     7
420
 16777215
176
     1
 90
        1
176
     1
 90
        4
176
     1
 62
     7
176
     1
 62
   257
176
     1
 90
        1
176
     1
 90
        1
176
     1
 40
1.0
176
     1
 90
        0
176
     1
 62
   257
176
     1
 40
1.0
176
     1
 90
        1
176
     1
 90
        6
176
     1
 90
        2
176
     1
 62
     7
176
     1
 90
        5
176
     1
 90
        0
176
     1
 90
        0
176
     1
290
     0
176
     1
 90
        1
176
     1
 40
0.0
176
     1
 90
        0
176
     1
290
     1
176
     1
290
     1
176
     1
290
     0
176
     1
290
     0
176
     1
290
     0
176
     1
290
     0
176
     1
290
     0
176
     1
290
     0
176
     1
290
     0
176
     1
 90
       50
176
     1
 40
0.0
176
     1
 40
1.0
176
     1
 90
        0
176
     1
 62
    18
420
        0
176
     1
 90
       50
176
     1
 90
        3
176
     1
 62
     5
420
      255
176
     1
290
     0
176
     1
 90
       50
176
     1
 90
       50
176
     1
 90
       50
176
     1
290
     0
176
     1
 90
       50
176
     1
 62
   256
176
     0
 40
1.0
176
     0
 90
        2
176
     1
  1
strokes_ogs.tif
176
     1
290
     0
176
     1
 40
1.0
176
     1
 40
1.0
176
     1
1001
ACAD
1000
AcDbSavedByObjectVersion
1070
     0
  0
VISUALSTYLE
  5
10022
102
{ACAD_REACTORS
330
1001D
102
}
330
1001D
100
AcDbVisualStyle
  2
Basic
 70
     7
177
     3
291
     1
 70
    58
 90
        1
176
     1
 90
        0
176
     1
 90
        1
176
     1
 90
        0
176
     1
 40
0.6
176
     1
 40
30.0
176
     1
 62
     7
420
 16777215
176
     1
 90
        0
176
     1
 90
        4
176
     1
 62
     7
176
     1
 62
   257
176
     1
 90
        1
176
     1
 90
        1
176
     1
 40
1.0
176
     1
 90
        8
176
     1
 62
     7
176
     1
 40
1.0
176
     1
 90
        1
176
     1
 90
        6
176
     1
 90
        2
176
     1
 62
     7
176
     1
 90
        5
176
     1
 90
        0
176
     1
 90
        0
176
     1
290
     0
176
     1
 90
        1
176
     1
 40
0.0
176
     1
 90
        0
176
     1
290
     0
176
     1
290
     1
176
     1
290
     1
176
     1
290
     0
176
     1
290
     0
176
     1
290
     0
176
     1
290
     0
176
     1
290
     0
176
     1
290
     0
176
     1
 90
       50
176
     1
 40
0.0
176
     1
 40
1.0
176
     1
 90
        0
176
     1
 62
    18
420
        0
176
     1
 90
       50
176
     1
 90
        3
176
     1
 62
     5
420
      255
176
     1
290
     0
176
     1
 90
       50
176
     1
 90
       50
176
     1
 90
       50
176
     1
290
     0
176
     1
 90
       50
176
     1
 62
   256
176
     0
 40
1.0
176
     0
 90
        2
176
     1
  1
strokes_ogs.tif
176
     1
290
     0
176
     1
 40
1.0
176
     1
 40
1.0
176
     1
1001
ACAD
1000
AcDbSavedByObjectVersion
1070
     0
  0
VISUALSTYLE
  5
10029
102
{ACAD_REACTORS
330
1001D
102
}
330
1001D
100
AcDbVisualStyle
  2
Brighten
 70
    12
177
     3
291
     1
 70
    58
 90
        2
176
     1
 90
        2
176
     1
 90
        0
176
     1
 90
        0
176
     1
 40
0.6
176
     1
 40
30.0
176
     1
 62
     7
420
 16777215
176
     1
 90
        1
176
     1
 90
        4
176
     1
 62
     7
176
     1
 62
   257
176
     1
 90
        1
176
     1
 90
        1
176
     1
 40
1.0
176
     1
 90
        8
176
     1
 62
     7
176
     1
 40
1.0
176
     1
 90
        1
176
     1
 90
        6
176
     1
 90
        2
176
     1
 62
     7
176
     1
 90
        5
176
     1
 90
        0
176
     1
 90
        0
176
     1
290
     0
176
     1
 90
        1
176
     1
 40
50.0
176
     1
 90
        0
176
     1
290
     0
176
     1
290
     1
176
     1
290
     1
176
     1
290
     0
176
     1
290
     0
176
     1
290
     0
176
     1
290
     0
176
     1
290
     0
176
     1
290
     0
176
     1
 90
       50
176
     1
 40
0.0
176
     1
 40
1.0
176
     1
 90
        0
176
     1
 62
    18
420
        0
176
     1
 90
       50
176
     1
 90
        3
176
     1
 62
     5
420
      255
176
     1
290
     0
176
     1
 90
       50
176
     1
 90
       50
176
     1
 90
       50
176
     1
290
     0
176
     1
 90
       50
176
     1
 62
   256
176
     0
 40
1.0
176
     0
 90
        2
176
     1
  1
strokes_ogs.tif
176
     1
290
     0
176
     1
 40
1.0
176
     1
 40
1.0
176
     1
1001
ACAD
1000
AcDbSavedByObjectVersion
1070
     0
  0
VISUALSTYLE
  5
1002D
102
{ACAD_REACTORS
330
1001D
102
}
330
1001D
100
AcDbVisualStyle
  2
ColorChange
 70
    16
177
     3
291
     1
 70
    58
 90
        2
176
     1
 90
        2
176
     1
 90
        3
176
     1
 90
        0
176
     1
 40
0.6
176
     1
 40
30.0
176
     1
 62
     8
420
  8421504
176
     1
 90
        1
176
     1
 90
        4
176
     1
 62
     7
176
     1
 62
   257
176
     1
 90
        1
176
     1
 90
        1
176
     1
 40
1.0
176
     1
 90
        8
176
     1
 62
     8
420
  8421504
176
     1
 40
1.0
176
     1
 90
        1
176
     1
 90
        6
176
     1
 90
        2
176
     1
 62
     7
176
     1
 90
        5
176
     1
 90
        0
176
     1
 90
        0
176
     1
290
     0
176
     1
 90
        1
176
     1
 40
0.0
176
     1
 90
        0
176
     1
290
     0
176
     1
290
     1
176
     1
290
     1
176
     1
290
     0
176
     1
290
     0
176
     1
290
     0
176
     1
290
     0
176
     1
290
     0
176
     1
290
     0
176
     1
 90
       50
176
     1
 40
0.0
176
     1
 40
1.0
176
     1
 90
        0
176
     1
 62
    18
420
        0
176
     1
 90
       50
176
     1
 90
        3
176
     1
 62
     5
420
      255
176
     1
290
     0
176
     1
 90
       50
176
     1
 90
       50
176
     1
 90
       50
176
     1
290
     0
176
     1
 90
       50
176
     1
 62
   256
176
     0
 40
1.0
176
     0
 90
        2
176
     1
  1
strokes_ogs.tif
176
     1
290
     0
176
     1
 40
1.0
176
     1
 40
1.0
176
     1
1001
ACAD
1000
AcDbSavedByObjectVersion
1070
     0
  0
VISUALSTYLE
  5
10026
102
{ACAD_REACTORS
330
1001D
102
}
330
1001D
100
AcDbVisualStyle
  2
Conceptual
 70
     9
177
     3
291
     0
 70
    58
 90
        3
176
     1
 90
        2
176
     1
 90
        0
176
     1
 90
        0
176
     1
 40
0.6
176
     1
 40
30.0
176
     1
 62
     7
420
 16777215
176
     1
 90
        2
176
     1
 90
        2
176
     1
 62
     7
176
     1
 62
   257
176
     1
 90
        1
176
     1
 90
        1
176
     1
 40
179.0
176
     1
 90
        8
176
     1
 62
     7
176
     1
 40
1.0
176
     1
 90
        1
176
     1
 90
        6
176
     1
 90
        2
176
     1
 62
     7
176
     1
 90
        3
176
     1
 90
        0
176
     1
 90
        0
176
     1
290
     0
176
     1
 90
        1
176
     1
 40
0.0
176
     1
 90
        0
176
     1
290
     0
176
     1
290
     1
176
     1
290
     1
176
     1
290
     0
176
     1
290
     0
176
     1
290
     0
176
     1
290
     0
176
     1
290
     0
176
     1
290
     0
176
     1
 90
       50
176
     1
 40
0.0
176
     1
 40
1.0
176
     1
 90
        0
176
     1
 62
    18
420
        0
176
     1
 90
       50
176
     1
 90
        3
176
     1
 62
     5
420
      255
176
     1
290
     0
176
     1
 90
       50
176
     1
 90
       50
176
     1
 90
       50
176
     1
290
     0
176
     1
 90
       50
176
     1
 62
   256
176
     0
 40
1.0
176
     0
 90
        2
176
     1
  1
strokes_ogs.tif
176
     1
290
     0
176
     1
 40
1.0
176
     1
 40
1.0
176
     1
1001
ACAD
1000
AcDbSavedByObjectVersion
1070
     0
  0
VISUALSTYLE
  5
10028
102
{ACAD_REACTORS
330
1001D
102
}
330
1001D
100
AcDbVisualStyle
  2
Dim
 70
    11
177
     3
291
     1
 70
    58
 90
        2
176
     1
 90
        2
176
     1
 90
        0
176
     1
 90
        0
176
     1
 40
0.6
176
     1
 40
30.0
176
     1
 62
     7
420
 16777215
176
     1
 90
        1
176
     1
 90
        4
176
     1
 62
     7
176
     1
 62
   257
176
     1
 90
        1
176
     1
 90
        1
176
     1
 40
1.0
176
     1
 90
        8
176
     1
 62
     7
176
     1
 40
1.0
176
     1
 90
        1
176
     1
 90
        6
176
     1
 90
        2
176
     1
 62
     7
176
     1
 90
        5
176
     1
 90
        0
176
     1
 90
        0
176
     1
290
     0
176
     1
 90
        1
176
     1
 40
-50.0
176
     1
 90
        0
176
     1
290
     0
176
     1
290
     1
176
     1
290
     1
176
     1
290
     0
176
     1
290
     0
176
     1
290
     0
176
     1
290
     0
176
     1
290
     0
176
     1
290
     0
176
     1
 90
       50
176
     1
 40
0.0
176
     1
 40
1.0
176
     1
 90
        0
176
     1
 62
    18
420
        0
176
     1
 90
       50
176
     1
 90
        3
176
     1
 62
     5
420
      255
176
     1
290
     0
176
     1
 90
       50
176
     1
 90
       50
176
     1
 90
       50
176
     1
290
     0
176
     1
 90
       50
176
     1
 62
   256
176
     0
 40
1.0
176
     0
 90
        2
176
     1
  1
strokes_ogs.tif
176
     1
290
     0
176
     1
 40
1.0
176
     1
 40
1.0
176
     1
1001
ACAD
1000
AcDbSavedByObjectVersion
1070
     0
  0
VISUALSTYLE
  5
10035
102
{ACAD_REACTORS
330
1001D
102
}
330
1001D
100
AcDbVisualStyle
  2
EdgeColorOff
 70
    22
177
     3
291
     1
 70
    58
 90
        2
176
     0
 90
        2
176
     0
 90
        0
176
     0
 90
        0
176
     0
 40
0.6
176
     0
 40
30.0
176
     0
 62
     7
420
 16777215
176
     0
 90
        1
176
     0
 90
        4
176
     0
 62
     7
176
     0
 62
   257
176
     0
 90
        1
176
     0
 90
        1
176
     0
 40
1.0
176
     0
 90
        8
176
     2
 62
     7
176
     0
 40
1.0
176
     0
 90
        1
176
     0
 90
        6
176
     0
 90
        2
176
     0
 62
     7
176
     0
 90
        5
176
     0
 90
        0
176
     0
 90
        0
176
     0
290
     0
176
     0
 90
        1
176
     0
 40
0.0
176
     0
 90
        0
176
     0
290
     0
176
     1
290
     1
176
     1
290
     1
176
     1
290
     0
176
     1
290
     0
176
     1
290
     0
176
     1
290
     0
176
     1
290
     0
176
     1
290
     0
176
     1
 90
       50
176
     0
 40
0.0
176
     0
 40
1.0
176
     0
 90
        0
176
     0
 62
    18
420
        0
176
     0
 90
       50
176
     0
 90
        3
176
     0
 62
     5
420
      255
176
     0
290
     0
176
     1
 90
       50
176
     0
 90
       50
176
     0
 90
       50
176
     0
290
     0
176
     1
 90
       50
176
     0
 62
   256
176
     0
 40
1.0
176
     0
 90
        2
176
     0
  1
strokes_ogs.tif
176
     0
290
     0
176
     1
 40
1.0
176
     0
 40
1.0
176
     0
1001
ACAD
1000
AcDbSavedByObjectVersion
1070
     0
  0
VISUALSTYLE
  5
1002C
102
{ACAD_REACTORS
330
1001D
102
}
330
1001D
100
AcDbVisualStyle
  2
Facepattern
 70
    15
177
     3
291
     1
 70
    58
 90
        2
176
     1
 90
        2
176
     1
 90
        0
176
     1
 90
        0
176
     1
 40
0.6
176
     1
 40
30.0
176
     1
 62
     7
420
 16777215
176
     1
 90
        1
176
     1
 90
        4
176
     1
 62
     7
176
     1
 62
   257
176
     1
 90
        1
176
     1
 90
        1
176
     1
 40
1.0
176
     1
 90
        8
176
     1
 62
     7
176
     1
 40
1.0
176
     1
 90
        1
176
     1
 90
        6
176
     1
 90
        2
176
     1
 62
     7
176
     1
 90
        5
176
     1
 90
        0
176
     1
 90
        0
176
     1
290
     0
176
     1
 90
        1
176
     1
 40
0.0
176
     1
 90
        0
176
     1
290
     0
176
     1
290
     1
176
     1
290
     1
176
     1
290
     0
176
     1
290
     0
176
     1
290
     0
176
     1
290
     0
176
     1
290
     0
176
     1
290
     0
176
     1
 90
       50
176
     1
 40
0.0
176
     1
 40
1.0
176
     1
 90
        0
176
     1
 62
    18
420
        0
176
     1
 90
       50
176
     1
 90
        3
176
     1
 62
     5
420
      255
176
     1
290
     0
176
     1
 90
       50
176
     1
 90
       50
176
     1
 90
       50
176
     1
290
     0
176
     1
 90
       50
176
     1
 62
   256
176
     0
 40
1.0
176
     0
 90
        2
176
     1
  1
strokes_ogs.tif
176
     1
290
     0
176
     1
 40
1.0
176
     1
 40
1.0
176
     1
1001
ACAD
1000
AcDbSavedByObjectVersion
1070
     0
  0
VISUALSTYLE
  5
1001E
102
{ACAD_REACTORS
330
1001D
102
}
330
1001D
100
AcDbVisualStyle
  2
Flat
 70
     0
177
     3
291
     1
 70
    58
 90
        2
176
     1
 90
        1
176
     1
 90
        1
176
     1
 90
        2
176
     1
 40
0.6
176
     1
 40
30.0
176
     1
 62
     7
420
 16777215
176
     1
 90
        0
176
     1
 90
        0
176
     1
 62
     7
176
     1
 62
   257
176
     1
 90
        1
176
     1
 90
        1
176
     1
 40
1.0
176
     1
 90
        8
176
     1
 62
     7
176
     1
 40
1.0
176
     1
 90
        1
176
     1
 90
        6
176
     1
 90
        2
176
     1
 62
     7
176
     1
 90
        5
176
     1
 90
        0
176
     1
 90
        0
176
     1
290
     0
176
     1
 90
       13
176
     1
 40
0.0
176
     1
 90
        0
176
     1
290
     0
176
     1
290
     1
176
     1
290
     1
176
     1
290
     0
176
     1
290
     0
176
     1
290
     0
176
     1
290
     0
176
     1
290
     0
176
     1
290
     0
176
     1
 90
       50
176
     1
 40
0.0
176
     1
 40
1.0
176
     1
 90
        0
176
     1
 62
    18
420
        0
176
     1
 90
       50
176
     1
 90
        3
176
     1
 62
     5
420
      255
176
     1
290
     0
176
     1
 90
       50
176
     1
 90
       50
176
     1
 90
       50
176
     1
290
     0
176
     1
 90
       50
176
     1
 62
   256
176
     0
 40
1.0
176
     0
 90
        2
176
     1
  1
strokes_ogs.tif
176
     1
290
     0
176
     1
 40
1.0
176
     1
 40
1.0
176
     1
1001
ACAD
1000
AcDbSavedByObjectVersion
1070
     0
  0
VISUALSTYLE
  5
1001F
102
{ACAD_REACTORS
330
1001D
102
}
330
1001D
100
AcDbVisualStyle
  2
FlatWithEdges
 70
     1
177
     3
291
     1
 70
    58
 90
        2
176
     1
 90
        1
176
     1
 90
        1
176
     1
 90
        2
176
     1
 40
0.6
176
     1
 40
30.0
176
     1
 62
     7
420
 16777215
176
     1
 90
        1
176
     1
 90
        0
176
     1
 62
     7
176
     1
 62
   257
176
     1
 90
        1
176
     1
 90
        1
176
     1
 40
1.0
176
     1
 90
        0
176
     1
 62
   257
176
     1
 40
1.0
176
     1
 90
        1
176
     1
 90
        6
176
     1
 90
        2
176
     1
 62
     7
176
     1
 90
        5
176
     1
 90
        0
176
     1
 90
        0
176
     1
290
     0
176
     1
 90
       13
176
     1
 40
0.0
176
     1
 90
        0
176
     1
290
     0
176
     1
290
     1
176
     1
290
     1
176
     1
290
     0
176
     1
290
     0
176
     1
290
     0
176
     1
290
     0
176
     1
290
     0
176
     1
290
     0
176
     1
 90
       50
176
     1
 40
0.0
176
     1
 40
1.0
176
     1
 90
        0
176
     1
 62
    18
420
        0
176
     1
 90
       50
176
     1
 90
        3
176
     1
 62
     5
420
      255
176
     1
290
     0
176
     1
 90
       50
176
     1
 90
       50
176
     1
 90
       50
176
     1
290
     0
176
     1
 90
       50
176
     1
 62
   256
176
     0
 40
1.0
176
     0
 90
        2
176
     1
  1
strokes_ogs.tif
176
     1
290
     0
176
     1
 40
1.0
176
     1
 40
1.0
176
     1
1001
ACAD
1000
AcDbSavedByObjectVersion
1070
     0
  0
VISUALSTYLE
  5
10020
102
{ACAD_REACTORS
330
1001D
102
}
330
1001D
100
AcDbVisualStyle
  2
Gouraud
 70
     2
177
     3
291
     1
 70
    58
 90
        2
176
     1
 90
        2
176
     1
 90
        1
176
     1
 90
        2
176
     1
 40
0.6
176
     1
 40
30.0
176
     1
 62
     7
420
 16777215
176
     1
 90
        0
176
     1
 90
        0
176
     1
 62
     7
176
     1
 62
   257
176
     1
 90
        1
176
     1
 90
        1
176
     1
 40
1.0
176
     1
 90
        0
176
     1
 62
     7
176
     1
 40
1.0
176
     1
 90
        1
176
     1
 90
        6
176
     1
 90
        2
176
     1
 62
     7
176
     1
 90
        5
176
     1
 90
        0
176
     1
 90
        0
176
     1
290
     0
176
     1
 90
       13
176
     1
 40
0.0
176
     1
 90
        0
176
     1
290
     0
176
     1
290
     1
176
     1
290
     1
176
     1
290
     0
176
     1
290
     0
176
     1
290
     0
176
     1
290
     0
176
     1
290
     0
176
     1
290
     0
176
     1
 90
       50
176
     1
 40
0.0
176
     1
 40
1.0
176
     1
 90
        0
176
     1
 62
    18
420
        0
176
     1
 90
       50
176
     1
 90
        3
176
     1
 62
     5
420
      255
176
     1
290
     0
176
     1
 90
       50
176
     1
 90
       50
176
     1
 90
       50
176
     1
290
     0
176
     1
 90
       50
176
     1
 62
   256
176
     0
 40
1.0
176
     0
 90
        2
176
     1
  1
strokes_ogs.tif
176
     1
290
     0
176
     1
 40
1.0
176
     1
 40
1.0
176
     1
1001
ACAD
1000
AcDbSavedByObjectVersion
1070
     0
  0
VISUALSTYLE
  5
10021
102
{ACAD_REACTORS
330
1001D
102
}
330
1001D
100
AcDbVisualStyle
  2
GouraudWithEdges
 70
     3
177
     3
291
     1
 70
    58
 90
        2
176
     1
 90
        2
176
     1
 90
        1
176
     1
 90
        2
176
     1
 40
0.6
176
     1
 40
30.0
176
     1
 62
     7
420
 16777215
176
     1
 90
        1
176
     1
 90
        0
176
     1
 62
     7
176
     1
 62
   257
176
     1
 90
        1
176
     1
 90
        1
176
     1
 40
1.0
176
     1
 90
        0
176
     1
 62
   257
176
     1
 40
1.0
176
     1
 90
        1
176
     1
 90
        6
176
     1
 90
        2
176
     1
 62
     7
176
     1
 90
        5
176
     1
 90
        0
176
     1
 90
        0
176
     1
290
     0
176
     1
 90
       13
176
     1
 40
0.0
176
     1
 90
        0
176
     1
290
     0
176
     1
290
     1
176
     1
290
     1
176
     1
290
     0
176
     1
290
     0
176
     1
290
     0
176
     1
290
     0
176
     1
290
     0
176
     1
290
     0
176
     1
 90
       50
176
     1
 40
0.0
176
     1
 40
1.0
176
     1
 90
        0
176
     1
 62
    18
420
        0
176
     1
 90
       50
176
     1
 90
        3
176
     1
 62
     5
420
      255
176
     1
290
     0
176
     1
 90
       50
176
     1
 90
       50
176
     1
 90
       50
176
     1
290
     0
176
     1
 90
       50
176
     1
 62
   256
176
     0
 40
1.0
176
     0
 90
        2
176
     1
  1
strokes_ogs.tif
176
     1
290
     0
176
     1
 40
1.0
176
     1
 40
1.0
176
     1
1001
ACAD
1000
AcDbSavedByObjectVersion
1070
     0
  0
VISUALSTYLE
  5
10025
102
{ACAD_REACTORS
330
1001D
102
}
330
1001D
100
AcDbVisualStyle
  2
Hidden
 70
     6
177
     3
291
     0
 70
    58
 90
        1
176
     1
 90
        2
176
     1
 90
        2
176
     1
 90
        0
176
     1
 40
0.6
176
     1
 40
30.0
176
     1
 62
     7
420
 16777215
176
     1
 90
        2
176
     1
 90
        2
176
     1
 62
     7
176
     1
 62
   257
176
     1
 90
        2
176
     1
 90
        1
176
     1
 40
40.0
176
     1
 90
        0
176
     1
 62
   257
176
     1
 40
1.0
176
     1
 90
        1
176
     1
 90
        6
176
     1
 90
        2
176
     1
 62
     7
176
     1
 90
        3
176
     1
 90
        0
176
     1
 90
        0
176
     1
290
     0
176
     1
 90
        1
176
     1
 40
0.0
176
     1
 90
        0
176
     1
290
     0
176
     1
290
     1
176
     1
290
     1
176
     1
290
     0
176
     1
290
     0
176
     1
290
     0
176
     1
290
     0
176
     1
290
     0
176
     1
290
     0
176
     1
 90
       50
176
     1
 40
0.0
176
     1
 40
1.0
176
     1
 90
        0
176
     1
 62
    18
420
        0
176
     1
 90
       50
176
     1
 90
        3
176
     1
 62
     5
420
      255
176
     1
290
     0
176
     1
 90
       50
176
     1
 90
       50
176
     1
 90
       50
176
     1
290
     0
176
     1
 90
       50
176
     1
 62
   256
176
     0
 40
1.0
176
     0
 90
        2
176
     1
  1
strokes_ogs.tif
176
     1
290
     0
176
     1
 40
1.0
176
     1
 40
1.0
176
     1
1001
ACAD
1000
AcDbSavedByObjectVersion
1070
     0
  0
VISUALSTYLE
  5
10033
102
{ACAD_REACTORS
330
1001D
102
}
330
1001D
100
AcDbVisualStyle
  2
JitterOff
 70
    20
177
     3
291
     1
 70
    58
 90
        2
176
     0
 90
        2
176
     0
 90
        0
176
     0
 90
        0
176
     0
 40
0.6
176
     0
 40
30.0
176
     0
 62
     7
420
 16777215
176
     0
 90
        1
176
     0
 90
        4
176
     0
 62
     7
176
     0
 62
   257
176
     0
 90
        1
176
     0
 90
        1
176
     0
 40
1.0
176
     0
 90
       10
176
     2
 62
     7
176
     0
 40
1.0
176
     0
 90
        1
176
     0
 90
        6
176
     0
 90
        2
176
     0
 62
     7
176
     0
 90
        5
176
     0
 90
        0
176
     0
 90
        0
176
     0
290
     0
176
     0
 90
        1
176
     0
 40
0.0
176
     0
 90
        0
176
     0
290
     0
176
     1
290
     1
176
     1
290
     1
176
     1
290
     0
176
     1
290
     0
176
     1
290
     0
176
     1
290
     0
176
     1
290
     0
176
     1
290
     0
176
     1
 90
       50
176
     0
 40
0.0
176
     0
 40
1.0
176
     0
 90
        0
176
     0
 62
    18
420
        0
176
     0
 90
       50
176
     0
 90
        3
176
     0
 62
     5
420
      255
176
     0
290
     0
176
     1
 90
       50
176
     0
 90
       50
176
     0
 90
       50
176
     0
290
     0
176
     1
 90
       50
176
     0
 62
   256
176
     0
 40
1.0
176
     0
 90
        2
176
     0
  1
strokes_ogs.tif
176
     0
290
     0
176
     1
 40
1.0
176
     0
 40
1.0
176
     0
1001
ACAD
1000
AcDbSavedByObjectVersion
1070
     0
  0
VISUALSTYLE
  5
1002B
102
{ACAD_REACTORS
330
1001D
102
}
330
1001D
100
AcDbVisualStyle
  2
Linepattern
 70
    14
177
     3
291
     1
 70
    58
 90
        2
176
     1
 90
        2
176
     1
 90
        0
176
     1
 90
        0
176
     1
 40
0.6
176
     1
 40
30.0
176
     1
 62
     7
420
 16777215
176
     1
 90
        1
176
     1
 90
        4
176
     1
 62
     7
176
     1
 62
   257
176
     1
 90
        7
176
     1
 90
        7
176
     1
 40
1.0
176
     1
 90
        8
176
     1
 62
     7
176
     1
 40
1.0
176
     1
 90
        1
176
     1
 90
        6
176
     1
 90
        2
176
     1
 62
     7
176
     1
 90
        5
176
     1
 90
        0
176
     1
 90
        0
176
     1
290
     0
176
     1
 90
        1
176
     1
 40
0.0
176
     1
 90
        0
176
     1
290
     0
176
     1
290
     1
176
     1
290
     1
176
     1
290
     0
176
     1
290
     0
176
     1
290
     0
176
     1
290
     0
176
     1
290
     0
176
     1
290
     0
176
     1
 90
       50
176
     1
 40
0.0
176
     1
 40
1.0
176
     1
 90
        0
176
     1
 62
    18
420
        0
176
     1
 90
       50
176
     1
 90
        3
176
     1
 62
     5
420
      255
176
     1
290
     0
176
     1
 90
       50
176
     1
 90
       50
176
     1
 90
       50
176
     1
290
     0
176
     1
 90
       50
176
     1
 62
   256
176
     0
 40
1.0
176
     0
 90
        2
176
     1
  1
strokes_ogs.tif
176
     1
290
     0
176
     1
 40
1.0
176
     1
 40
1.0
176
     1
1001
ACAD
1000
AcDbSavedByObjectVersion
1070
     0
  0
VISUALSTYLE
  5
10034
102
{ACAD_REACTORS
330
1001D
102
}
330
1001D
100
AcDbVisualStyle
  2
OverhangOff
 70
    21
177
     3
291
     1
 70
    58
 90
        2
176
     0
 90
        2
176
     0
 90
        0
176
     0
 90
        0
176
     0
 40
0.6
176
     0
 40
30.0
176
     0
 62
     7
420
 16777215
176
     0
 90
        1
176
     0
 90
        4
176
     0
 62
     7
176
     0
 62
   257
176
     0
 90
        1
176
     0
 90
        1
176
     0
 40
1.0
176
     0
 90
        9
176
     2
 62
     7
176
     0
 40
1.0
176
     0
 90
        1
176
     0
 90
        6
176
     0
 90
        2
176
     0
 62
     7
176
     0
 90
        5
176
     0
 90
        0
176
     0
 90
        0
176
     0
290
     0
176
     0
 90
        1
176
     0
 40
0.0
176
     0
 90
        0
176
     0
290
     0
176
     1
290
     1
176
     1
290
     1
176
     1
290
     0
176
     1
290
     0
176
     1
290
     0
176
     1
290
     0
176
     1
290
     0
176
     1
290
     0
176
     1
 90
       50
176
     0
 40
0.0
176
     0
 40
1.0
176
     0
 90
        0
176
     0
 62
    18
420
        0
176
     0
 90
       50
176
     0
 90
        3
176
     0
 62
     5
420
      255
176
     0
290
     0
176
     1
 90
       50
176
     0
 90
       50
176
     0
 90
       50
176
     0
290
     0
176
     1
 90
       50
176
     0
 62
   256
176
     0
 40
1.0
176
     0
 90
        2
176
     0
  1
strokes_ogs.tif
176
     0
290
     0
176
     1
 40
1.0
176
     0
 40
1.0
176
     0
1001
ACAD
1000
AcDbSavedByObjectVersion
1070
     0
  0
VISUALSTYLE
  5
10027
102
{ACAD_REACTORS
330
1001D
102
}
330
1001D
100
AcDbVisualStyle
  2
Realistic
 70
     8
177
     3
291
     0
 70
    58
 90
        2
176
     1
 90
        3
176
     1
 90
        0
176
     1
 90
        2
176
     1
 40
0.6
176
     1
 40
30.0
176
     1
 62
     7
420
 16777215
176
     1
 90
        0
176
     1
 90
        0
176
     1
 62
     7
176
     1
 62
   257
176
     1
 90
        1
176
     1
 90
        1
176
     1
 40
1.0
176
     1
 90
        8
176
     1
 62
   257
176
     1
 40
1.0
176
     1
 90
        1
176
     1
 90
        6
176
     1
 90
        2
176
     1
 62
     7
176
     1
 90
        3
176
     1
 90
        0
176
     1
 90
        0
176
     1
290
     0
176
     1
 90
       13
176
     1
 40
0.0
176
     1
 90
        0
176
     1
290
     0
176
     1
290
     1
176
     1
290
     1
176
     1
290
     0
176
     1
290
     0
176
     1
290
     0
176
     1
290
     0
176
     1
290
     0
176
     1
290
     0
176
     1
 90
       50
176
     1
 40
0.0
176
     1
 40
1.0
176
     1
 90
        0
176
     1
 62
    18
420
        0
176
     1
 90
       50
176
     1
 90
        3
176
     1
 62
     5
420
      255
176
     1
290
     0
176
     1
 90
       50
176
     1
 90
       50
176
     1
 90
       50
176
     1
290
     0
176
     1
 90
       50
176
     1
 62
   256
176
     0
 40
1.0
176
     0
 90
        2
176
     1
  1
strokes_ogs.tif
176
     1
290
     0
176
     1
 40
1.0
176
     1
 40
1.0
176
     1
1001
ACAD
1000
AcDbSavedByObjectVersion
1070
     0
  0
VISUALSTYLE
  5
10032
102
{ACAD_REACTORS
330
1001D
102
}
330
1001D
100
AcDbVisualStyle
  2
Shaded
 70
    27
177
     3
291
     0
 70
    58
 90
        2
176
     1
 90
        2
176
     1
 90
        1
176
     1
 90
        2
176
     1
 40
0.6
176
     1
 40
30.0
176
     1
 62
     7
420
 16777215
176
     1
 90
        0
176
     1
 90
        4
176
     1
 62
     7
176
     1
 62
   257
176
     1
 90
        1
176
     1
 90
        1
176
     1
 40
1.0
176
     1
 90
        8
176
     1
 62
   257
176
     1
 40
1.0
176
     1
 90
        1
176
     1
 90
        6
176
     1
 90
        2
176
     1
 62
     8
420
  7895160
176
     1
 90
        3
176
     1
 90
        0
176
     1
 90
        0
176
     1
290
     0
176
     1
 90
        5
176
     1
 40
0.0
176
     1
 90
        0
176
     1
290
     0
176
     1
290
     1
176
     1
290
     1
176
     1
290
     0
176
     1
290
     0
176
     1
290
     0
176
     1
290
     0
176
     1
290
     0
176
     1
290
     0
176
     1
 90
       50
176
     1
 40
0.0
176
     1
 40
1.0
176
     1
 90
        0
176
     1
 62
    18
420
        0
176
     1
 90
       50
176
     1
 90
        3
176
     1
 62
     5
420
      255
176
     1
290
     0
176
     1
 90
       50
176
     1
 90
       50
176
     1
 90
       50
176
     1
290
     0
176
     1
 90
       50
176
     1
 62
   256
176
     0
 40
1.0
176
     0
 90
        2
176
     1
  1
strokes_ogs.tif
176
     1
290
     0
176
     1
 40
1.0
176
     1
 40
1.0
176
     1
1001
ACAD
1000
AcDbSavedByObjectVersion
1070
     0
  0
VISUALSTYLE
  5
10031
102
{ACAD_REACTORS
330
1001D
102
}
330
1001D
100
AcDbVisualStyle
  2
Shaded with edges
 70
    26
177
     3
291
     0
 70
    58
 90
        2
176
     1
 90
        2
176
     1
 90
        1
176
     1
 90
        2
176
     1
 40
0.6
176
     1
 40
30.0
176
     1
 62
     7
420
 16777215
176
     1
 90
        1
176
     1
 90
        2
176
     1
 62
     7
176
     1
 62
   257
176
     1
 90
        2
176
     1
 90
        1
176
     1
 40
1.0
176
     1
 90
        8
176
     1
 62
   257
176
     1
 40
1.0
176
     1
 90
        1
176
     1
 90
        6
176
     1
 90
        2
176
     1
 62
     7
176
     1
 90
        3
176
     1
 90
        0
176
     1
 90
        0
176
     1
290
     0
176
     1
 90
        5
176
     1
 40
0.0
176
     1
 90
        0
176
     1
290
     0
176
     1
290
     1
176
     1
290
     1
176
     1
290
     0
176
     1
290
     0
176
     1
290
     0
176
     1
290
     0
176
     1
290
     0
176
     1
290
     0
176
     1
 90
       50
176
     1
 40
0.0
176
     1
 40
1.0
176
     1
 90
        0
176
     1
 62
    18
420
        0
176
     1
 90
       50
176
     1
 90
        3
176
     1
 62
     5
420
      255
176
     1
290
     0
176
     1
 90
       50
176
     1
 90
       50
176
     1
 90
       50
176
     1
290
     0
176
     1
 90
       50
176
     1
 62
   256
176
     0
 40
1.0
176
     0
 90
        2
176
     1
  1
strokes_ogs.tif
176
     1
290
     0
176
     1
 40
1.0
176
     1
 40
1.0
176
     1
1001
ACAD
1000
AcDbSavedByObjectVersion
1070
     0
  0
VISUALSTYLE
  5
1002E
102
{ACAD_REACTORS
330
1001D
102
}
330
1001D
100
AcDbVisualStyle
  2
Shades of Gray
 70
    23
177
     3
291
     0
 70
    58
 90
        2
176
     1
 90
        2
176
     1
 90
        3
176
     1
 90
        0
176
     1
 40
0.6
176
     1
 40
30.0
176
     1
 62
     7
420
 16777215
176
     1
 90
        2
176
     1
 90
        2
176
     1
 62
     7
176
     1
 62
     7
176
     1
 90
        1
176
     1
 90
        1
176
     1
 40
40.0
176
     1
 90
        8
176
     1
 62
     7
176
     1
 40
1.0
176
     1
 90
        1
176
     1
 90
        6
176
     1
 90
        2
176
     1
 62
     7
176
     1
 90
        3
176
     1
 90
        0
176
     1
 90
        0
176
     1
290
     0
176
     1
 90
        1
176
     1
 40
0.0
176
     1
 90
        0
176
     1
290
     0
176
     1
290
     1
176
     1
290
     1
176
     1
290
     0
176
     1
290
     0
176
     1
290
     0
176
     1
290
     0
176
     1
290
     0
176
     1
290
     0
176
     1
 90
       50
176
     1
 40
0.0
176
     1
 40
1.0
176
     1
 90
        0
176
     1
 62
    18
420
        0
176
     1
 90
       50
176
     1
 90
        3
176
     1
 62
     5
420
      255
176
     1
290
     0
176
     1
 90
       50
176
     1
 90
       50
176
     1
 90
       50
176
     1
290
     0
176
     1
 90
       50
176
     1
 62
   256
176
     0
 40
1.0
176
     0
 90
        2
176
     1
  1
strokes_ogs.tif
176
     1
290
     0
176
     1
 40
1.0
176
     1
 40
1.0
176
     1
1001
ACAD
1000
AcDbSavedByObjectVersion
1070
     0
  0
VISUALSTYLE
  5
1002F
102
{ACAD_REACTORS
330
1001D
102
}
330
1001D
100
AcDbVisualStyle
  2
Sketchy
 70
    24
177
     3
291
     0
 70
    58
 90
        1
176
     1
 90
        2
176
     1
 90
        2
176
     1
 90
        0
176
     1
 40
0.6
176
     1
 40
30.0
176
     1
 62
     7
420
 16777215
176
     1
 90
        2
176
     1
 90
        2
176
     1
 62
     7
176
     1
 62
     7
176
     1
 90
        1
176
     1
 90
        1
176
     1
 40
40.0
176
     1
 90
       11
176
     1
 62
     7
176
     1
 40
1.0
176
     1
 90
        1
176
     1
 90
        6
176
     1
 90
        2
176
     1
 62
     7
176
     1
 90
        6
176
     1
 90
        0
176
     1
 90
        0
176
     1
290
     0
176
     1
 90
        1
176
     1
 40
0.0
176
     1
 90
        0
176
     1
290
     0
176
     1
290
     1
176
     1
290
     1
176
     1
290
     0
176
     1
290
     0
176
     1
290
     0
176
     1
290
     0
176
     1
290
     0
176
     1
290
     0
176
     1
 90
       50
176
     1
 40
0.0
176
     1
 40
1.0
176
     1
 90
        0
176
     1
 62
    18
420
        0
176
     1
 90
       50
176
     1
 90
        3
176
     1
 62
     5
420
      255
176
     1
290
     0
176
     1
 90
       50
176
     1
 90
       50
176
     1
 90
       50
176
     1
290
     0
176
     1
 90
       50
176
     1
 62
   256
176
     0
 40
1.0
176
     0
 90
        2
176
     1
  1
strokes_ogs.tif
176
     1
290
     0
176
     1
 40
1.0
176
     1
 40
1.0
176
     1
1001
ACAD
1000
AcDbSavedByObjectVersion
1070
     0
  0
VISUALSTYLE
  5
1002A
102
{ACAD_REACTORS
330
1001D
102
}
330
1001D
100
AcDbVisualStyle
  2
Thicken
 70
    13
177
     3
291
     1
 70
    58
 90
        2
176
     1
 90
        2
176
     1
 90
        0
176
     1
 90
        0
176
     1
 40
0.6
176
     1
 40
30.0
176
     1
 62
     7
420
 16777215
176
     1
 90
        1
176
     1
 90
        4
176
     1
 62
     7
176
     1
 62
   257
176
     1
 90
        1
176
     1
 90
        1
176
     1
 40
1.0
176
     1
 90
       12
176
     1
 62
     7
176
     1
 40
1.0
176
     1
 90
        1
176
     1
 90
        6
176
     1
 90
        2
176
     1
 62
     7
176
     1
 90
        5
176
     1
 90
        0
176
     1
 90
        0
176
     1
290
     0
176
     1
 90
        1
176
     1
 40
0.0
176
     1
 90
        0
176
     1
290
     0
176
     1
290
     1
176
     1
290
     1
176
     1
290
     0
176
     1
290
     0
176
     1
290
     0
176
     1
290
     0
176
     1
290
     0
176
     1
290
     0
176
     1
 90
       50
176
     1
 40
0.0
176
     1
 40
1.0
176
     1
 90
        0
176
     1
 62
    18
420
        0
176
     1
 90
       50
176
     1
 90
        3
176
     1
 62
     5
420
      255
176
     1
290
     0
176
     1
 90
       50
176
     1
 90
       50
176
     1
 90
       50
176
     1
290
     0
176
     1
 90
       50
176
     1
 62
   256
176
     0
 40
1.0
176
     0
 90
        2
176
     1
  1
strokes_ogs.tif
176
     1
290
     0
176
     1
 40
1.0
176
     1
 40
1.0
176
     1
1001
ACAD
1000
AcDbSavedByObjectVersion
1070
     0
  0
VISUALSTYLE
  5
10024
102
{ACAD_REACTORS
330
1001D
102
}
330
1001D
100
AcDbVisualStyle
  2
Wireframe
 70
     5
177
     3
291
     0
 70
    58
 90
        0
176
     1
 90
        2
176
     1
 90
        0
176
     1
 90
        0
176
     1
 40
0.6
176
     1
 40
30.0
176
     1
 62
     7
420
 16777215
176
     1
 90
        1
176
     1
 90
        4
176
     1
 62
     7
176
     1
 62
   257
176
     1
 90
        1
176
     1
 90
        1
176
     1
 40
1.0
176
     1
 90
        0
176
     1
 62
   257
176
     1
 40
1.0
176
     1
 90
        1
176
     1
 90
        6
176
     1
 90
        2
176
     1
 62
     7
176
     1
 90
        3
176
     1
 90
        0
176
     1
 90
        0
176
     1
290
     0
176
     1
 90
        1
176
     1
 40
0.0
176
     1
 90
        0
176
     1
290
     0
176
     1
290
     1
176
     1
290
     1
176
     1
290
     0
176
     1
290
     0
176
     1
290
     0
176
     1
290
     0
176
     1
290
     0
176
     1
290
     0
176
     1
 90
       50
176
     1
 40
0.0
176
     1
 40
1.0
176
     1
 90
        0
176
     1
 62
    18
420
        0
176
     1
 90
       50
176
     1
 90
        3
176
     1
 62
     5
420
      255
176
     1
290
     0
176
     1
 90
       50
176
     1
 90
       50
176
     1
 90
       50
176
     1
290
     0
176
     1
 90
       50
176
     1
 62
   256
176
     0
 40
1.0
176
     0
 90
        2
176
     1
  1
strokes_ogs.tif
176
     1
290
     0
176
     1
 40
1.0
176
     1
 40
1.0
176
     1
1001
ACAD
1000
AcDbSavedByObjectVersion
1070
     0
  0
VISUALSTYLE
  5
10030
102
{ACAD_REACTORS
330
1001D
102
}
330
1001D
100
AcDbVisualStyle
  2
X-Ray
 70
    25
177
     3
291
     0
 70
    58
 90
        2
176
     1
 90
        2
176
     1
 90
        1
176
     1
 90
        1
176
     1
 40
0.5
176
     1
 40
30.0
176
     1
 62
     7
420
 16777215
176
     1
 90
        1
176
     1
 90
        0
176
     1
 62
     7
176
     1
 62
   257
176
     1
 90
        1
176
     1
 90
        1
176
     1
 40
1.0
176
     1
 90
        8
176
     1
 62
     7
176
     1
 40
1.0
176
     1
 90
        1
176
     1
 90
        6
176
     1
 90
        2
176
     1
 62
     7
176
     1
 90
        3
176
     1
 90
        0
176
     1
 90
        0
176
     1
290
     0
176
     1
 90
       13
176
     1
 40
0.0
176
     1
 90
        0
176
     1
290
     0
176
     1
290
     1
176
     1
290
     1
176
     1
290
     0
176
     1
290
     0
176
     1
290
     0
176
     1
290
     0
176
     1
290
     0
176
     1
290
     0
176
     1
 90
       50
176
     1
 40
0.0
176
     1
 40
1.0
176
     1
 90
        0
176
     1
 62
    18
420
        0
176
     1
 90
       50
176
     1
 90
        3
176
     1
 62
     5
420
      255
176
     1
290
     0
176
     1
 90
       50
176
     1
 90
       50
176
     1
 90
       50
176
     1
290
     0
176
     1
 90
       50
176
     1
 62
   256
176
     0
 40
1.0
176
     0
 90
        2
176
     1
  1
strokes_ogs.tif
176
     1
290
     0
176
     1
 40
1.0
176
     1
 40
1.0
176
     1
1001
ACAD
1000
AcDbSavedByObjectVersion
1070
     0
  0
DICTIONARYVAR
  5
10070
102
{ACAD_REACTORS
330
1006A
102
}
330
1006A
100
DictionaryVariables
280
     0
  1
1:1
  0
DICTIONARYVAR
  5
1006C
102
{ACAD_REACTORS
330
1006A
102
}
330
1006A
100
DictionaryVariables
280
     0
  1
STANDARD
  0
DICTIONARYVAR
  5
1006B
102
{ACAD_REACTORS
330
1006A
102
}
330
1006A
100
DictionaryVariables
280
     0
  1
STANDARD
  0
DICTIONARYVAR
  5
1006D
102
{ACAD_REACTORS
330
1006A
102
}
330
1006A
100
DictionaryVariables
280
     0
  1
Imperial24
  0
DICTIONARYVAR
  5
1006E
102
{ACAD_REACTORS
330
1006A
102
}
330
1006A
100
DictionaryVariables
280
     0
  1
Imperial24
  0
DICTIONARYVAR
  5
10072
102
{ACAD_REACTORS
330
1006A
102
}
330
1006A
100
DictionaryVariables
280
     0
  1
1
  0
DICTIONARYVAR
  5
10073
102
{ACAD_REACTORS
330
1006A
102
}
330
1006A
100
DictionaryVariables
280
     0
  1
15
  0
DICTIONARYVAR
  5
10071
102
{ACAD_REACTORS
330
1006A
102
}
330
1006A
100
DictionaryVariables
280
     0
  1
0
  0
DICTIONARYVAR
  5
1006F
102
{ACAD_REACTORS
330
1006A
102
}
330
1006A
100
DictionaryVariables
280
     0
  1
0
  0
DICTIONARY
  5
1007E
102
{ACAD_REACTORS
330
1007C
102
}
330
1007C
100
AcDbDictionary
281
     1
  0
DICTIONARY
  5
1007D
102
{ACAD_REACTORS
330
1007C
102
}
330
1007C
100
AcDbDictionary
281
     1
  3
140187457795312
350
10077
  3
140187457795328
350
10078
  3
140187457795344
350
10079
  3
140187457795360
350
1007A
  3
140187457795376
350
1007B
  0
DICTIONARY
  5
10081
330
10052
100
AcDbDictionary
280
     1
281
     1
  3
ACAD_XREC_ROUNDTRIP
360
10082
  0
DICTIONARY
  5
1000E
330
1000D
100
AcDbDictionary
280
     1
281
     1
  3
BUMPTILE
360
10010
  3
DIFFUSETILE
360
1000F
  3
OPACITYTILE
360
10013
  3
REFLECTIONTILE
360
10012
  3
REFRACTIONTILE
360
10014
  3
SPECULARTILE
360
10011
  0
DICTIONARY
  5
10006
330
10005
100
AcDbDictionary
280
     1
281
     1
  3
BUMPTILE
360
10008
  3
DIFFUSETILE
360
10007
  3
OPACITYTILE
360
1000B
  3
REFLECTIONTILE
360
1000A
  3
REFRACTIONTILE
360
1000C
  3
SPECULARTILE
360
10009
  0
DICTIONARY
  5
10016
330
10015
100
AcDbDictionary
280
     1
281
     1
  3
BUMPTILE
360
10018
  3
DIFFUSETILE
360
10017
  3
OPACITYTILE
360
1001B
  3
REFLECTIONTILE
360
1001A
  3
REFRACTIONTILE
360
1001C
  3
SPECULARTILE
360
10019
  0
DICTIONARY
  5
1007F
330
10050
100
AcDbDictionary
280
     1
281
     1
  3
ACAD_XREC_ROUNDTRIP
360
10080
  0
DICTIONARY
  5
10074
330
10039
100
AcDbDictionary
280
     1
281
     1
  3
ACAD_ROUNDTRIP_2008_TABLESTYLE_CELLSTYLEMAP
360
10075
  0
XRECORD
  5
10077
102
{ACAD_REACTORS
330
1007D
102
}
330
1007D
100
AcDbXrecord
280
     1
  1
AcDb_Thumbnail_Schema
102
{ATTRRECORD
341
10078
  2
AcDbDs::TreatedAsObjectData
280
     1
291
     1
102
ATTRRECORD}
102
{ATTRRECORD
341
10079
  2
AcDbDs::Legacy
280
     1
291
     1
102
ATTRRECORD}
  2
AcDbDs::ID
280
    10
 91
        8
102
{ATTRRECORD
341
1007A
  2
AcDs:Indexable
280
     1
291
     1
102
ATTRRECORD}
102
{ATTRRECORD
341
1007B
  2
AcDbDs::HandleAttribute
280
     7
282
     1
102
ATTRRECORD}
  2
Thumbnail_Data
280
    15
 91
        0
  0
XRECORD
  5
10078
102
{ACAD_REACTORS
330
1007D
102
}
330
1007D
100
AcDbXrecord
280
     1
  1
AcDbDs::TreatedAsObjectDataSchema
  2
AcDbDs::TreatedAsObjectData
280
     1
 91
        0
  0
XRECORD
  5
10079
102
{ACAD_REACTORS
330
1007D
102
}
330
1007D
100
AcDbXrecord
280
     1
  1
AcDbDs::LegacySchema
  2
AcDbDs::Legacy
280
     1
 91
        0
  0
XRECORD
  5
1007A
102
{ACAD_REACTORS
330
1007D
102
}
330
1007D
100
AcDbXrecord
280
     1
  1
AcDbDs::IndexedPropertySchema
  2
AcDs:Indexable
280
     1
 91
        0
  0
XRECORD
  5
1007B
102
{ACAD_REACTORS
330
1007D
102
}
330
1007D
100
AcDbXrecord
280
     1
  1
AcDbDs::HandleAttributeSchema
  2
AcDbDs::HandleAttribute
280
     7
 91
        1
284
     1
  0
XRECORD
  5
10082
102
{ACAD_REACTORS
330
10081
102
}
330
10081
100
AcDbXrecord
280
     1
102
DISPLAYNAME
  1
Imperial24
102
FLAGS
 90
        0
  0
XRECORD
  5
10010
102
{ACAD_REACTORS
330
1000E
102
}
330
1000E
100
AcDbXrecord
280
     1
270
     1
271
     1
  0
XRECORD
  5
1000F
102
{ACAD_REACTORS
330
1000E
102
}
330
1000E
100
AcDbXrecord
280
     1
270
     1
271
     1
  0
XRECORD
  5
10013
102
{ACAD_REACTORS
330
1000E
102
}
330
1000E
100
AcDbXrecord
280
     1
270
     1
271
     1
  0
XRECORD
  5
10012
102
{ACAD_REACTORS
330
1000E
102
}
330
1000E
100
AcDbXrecord
280
     1
270
     1
271
     1
  0
XRECORD
  5
10014
102
{ACAD_REACTORS
330
1000E
102
}
330
1000E
100
AcDbXrecord
280
     1
270
     1
271
     1
  0
XRECORD
  5
10011
102
{ACAD_REACTORS
330
1000E
102
}
330
1000E
100
AcDbXrecord
280
     1
270
     1
271
     1
  0
XRECORD
  5
10008
102
{ACAD_REACTORS
330
10006
102
}
330
10006
100
AcDbXrecord
280
     1
270
     1
271
     1
  0
XRECORD
  5
10007
102
{ACAD_REACTORS
330
10006
102
}
330
10006
100
AcDbXrecord
280
     1
270
     1
271
     1
  0
XRECORD
  5
1000B
102
{ACAD_REACTORS
330
10006
102
}
330
10006
100
AcDbXrecord
280
     1
270
     1
271
     1
  0
XRECORD
  5
1000A
102
{ACAD_REACTORS
330
10006
102
}
330
10006
100
AcDbXrecord
280
     1
270
     1
271
     1
  0
XRECORD
  5
1000C
102
{ACAD_REACTORS
330
10006
102
}
330
10006
100
AcDbXrecord
280
     1
270
     1
271
     1
  0
XRECORD
  5
10009
102
{ACAD_REACTORS
330
10006
102
}
330
10006
100
AcDbXrecord
280
     1
270
     1
271
     1
  0
XRECORD
  5
10018
102
{ACAD_REACTORS
330
10016
102
}
330
10016
100
AcDbXrecord
280
     1
270
     1
271
     1
  0
XRECORD
  5
10017
102
{ACAD_REACTORS
330
10016
102
}
330
10016
100
AcDbXrecord
280
     1
270
     1
271
     1
  0
XRECORD
  5
1001B
102
{ACAD_REACTORS
330
10016
102
}
330
10016
100
AcDbXrecord
280
     1
270
     1
271
     1
  0
XRECORD
  5
1001A
102
{ACAD_REACTORS
330
10016
102
}
330
10016
100
AcDbXrecord
280
     1
270
     1
271
     1
  0
XRECORD
  5
1001C
102
{ACAD_REACTORS
330
10016
102
}
330
10016
100
AcDbXrecord
280
     1
270
     1
271
     1
  0
XRECORD
  5
10019
102
{ACAD_REACTORS
330
10016
102
}
330
10016
100
AcDbXrecord
280
     1
270
     1
271
     1
  0
XRECORD
  5
10080
102
{ACAD_REACTORS
330
1007F
102
}
330
1007F
100
AcDbXrecord
280
     1
102
DISPLAYNAME
  1
Imperial24
102
FLAGS
 90
        0
  0
CELLSTYLEMAP
  5
10075
102
{ACAD_REACTORS
330
10074
102
}
330
10074
100
AcDbCellStyleMap
 90
        3
300
CELLSTYLE
  1
TABLEFORMAT_BEGIN
 90
        5
170
     1
 91
        0
 92
    32768
 62
   257
 93
        1
300
CONTENTFORMAT
  1
CONTENTFORMAT_BEGIN
 90
        0
 91
        0
 92
      512
 93
        0
300

 40
0.0
140
1.0
 94
        5
 62
     0
340
11
144
0.25
309
CONTENTFORMAT_END
171
     0
 94
        0
309
TABLEFORMAT_END
  1
CELLSTYLE_BEGIN
 90
        1
 91
        1
300
_TITLE
309
CELLSTYLE_END
300
CELLSTYLE
  1
TABLEFORMAT_BEGIN
 90
        5
170
     1
 91
        0
 92
        0
 62
   257
 93
        1
300
CONTENTFORMAT
  1
CONTENTFORMAT_BEGIN
 90
        0
 91
        0
 92
      512
 93
        0
300

 40
0.0
140
1.0
 94
        5
 62
     0
340
11
144
0.18
309
CONTENTFORMAT_END
171
     0
 94
        0
309
TABLEFORMAT_END
  1
CELLSTYLE_BEGIN
 90
        2
 91
        1
300
_HEADER
309
CELLSTYLE_END
300
CELLSTYLE
  1
TABLEFORMAT_BEGIN
 90
        5
170
     1
 91
        0
 92
        0
 62
   257
 93
        1
300
CONTENTFORMAT
  1
CONTENTFORMAT_BEGIN
 90
        0
 91
        0
 92
      512
 93
        0
300

 40
0.0
140
1.0
 94
        2
 62
     0
340
11
144
0.18
309
CONTENTFORMAT_END
171
     0
 94
        0
309
TABLEFORMAT_END
  1
CELLSTYLE_BEGIN
 90
        3
 91
        2
300
_DATA
309
CELLSTYLE_END
  0
ENDSEC
  0
SECTION
  2
ACDSDATA
 70
     2
 71
     8
  0
ACDSSCHEMA
 90
        0
  1
AcDb_Thumbnail_Schema
  2
AcDbDs::ID
280
    10
 91
        8
  2
Thumbnail_Data
280
    15
 91
        0
101
ACDSRECORD
 95
        0
 90
        1
  2
AcDbDs::TreatedAsObjectData
280
     1
291
     1
101
ACDSRECORD
 95
        0
 90
        2
  2
AcDbDs::Legacy
280
     1
291
     1
101
ACDSRECORD
  1
AcDbDs::ID
 90
        3
  2
AcDs:Indexable
280
     1
291
     1
101
ACDSRECORD
  1
AcDbDs::ID
 90
        4
  2
AcDbDs::HandleAttribute
280
     7
282
     1
  0
ACDSSCHEMA
 90
        1
  1
AcDbDs::TreatedAsObjectDataSchema
  2
AcDbDs::TreatedAsObjectData
280
     1
 91
        0
  0
ACDSSCHEMA
 90
        2
  1
AcDbDs::LegacySchema
  2
AcDbDs::Legacy
280
     1
 91
        0
  0
ACDSSCHEMA
 90
        3
  1
AcDbDs::IndexedPropertySchema
  2
AcDs:Indexable
280
     1
 91
        0
  0
ACDSSCHEMA
 90
        4
  1
AcDbDs::HandleAttributeSchema
  2
AcDbDs::HandleAttribute
280
     7
 91
        1
284
     1
  0
ACDSRECORD
 90
        0
  2
AcDbDs::ID
280
    10
320
10055
  2
Thumbnail_Data
280
    15
 94
     1610
310
89504E470D0A1A0A0000000D4948445200000100000000B208030000009AD9E19E00000300504C5445212830FFFFFF2128300000000000000000000000000000000000000000000000000000330000660000990000CC0000FF0033000033330033660033990033CC0033FF0066000066330066660066990066CC0066FF0099
310
000099330099660099990099CC0099FF00CC0000CC3300CC6600CC9900CCCC00CCFF00FF0000FF3300FF6600FF9900FFCC00FFFF3300003300333300663300993300CC3300FF3333003333333333663333993333CC3333FF3366003366333366663366993366CC3366FF3399003399333399663399993399CC3399FF33CC00
310
33CC3333CC6633CC9933CCCC33CCFF33FF0033FF3333FF6633FF9933FFCC33FFFF6600006600336600666600996600CC6600FF6633006633336633666633996633CC6633FF6666006666336666666666996666CC6666FF6699006699336699666699996699CC6699FF66CC0066CC3366CC6666CC9966CCCC66CCFF66FF0066
310
FF3366FF6666FF9966FFCC66FFFF9900009900339900669900999900CC9900FF9933009933339933669933999933CC9933FF9966009966339966669966999966CC9966FF9999009999339999669999999999CC9999FF99CC0099CC3399CC6699CC9999CCCC99CCFF99FF0099FF3399FF6699FF9999FFCC99FFFFCC0000CC00
310
33CC0066CC0099CC00CCCC00FFCC3300CC3333CC3366CC3399CC33CCCC33FFCC6600CC6633CC6666CC6699CC66CCCC66FFCC9900CC9933CC9966CC9999CC99CCCC99FFCCCC00CCCC33CCCC66CCCC99CCCCCCCCCCFFCCFF00CCFF33CCFF66CCFF99CCFFCCCCFFFFFF0000FF0033FF0066FF0099FF00CCFF00FFFF3300FF3333
310
FF3366FF3399FF33CCFF33FFFF6600FF6633FF6666FF6699FF66CCFF66FFFF9900FF9933FF9966FF9999FF99CCFF99FFFFCC00FFCC33FFCC66FFCC99FFCCCCFFCCFFFFFF00FFFF33FFFF66FFFF99FFFFCCFFFFFF0000000D0D0D1A1A1A2828283535354343435050505D5D5D6B6B6B787878868686939393A1A1A1AEAEAEBB
310
BBBBC9C9C9D6D6D6E4E4E4F1F1F1FFFFFF0000000000000000000000000000000000000000000000000000000000002E4550F1000003054944415478DAED9CD19283200C45F3FFFF9BF77DA8551282CAB604A69EB33B3BD4BA255E220488150100000000000000000000000000000000000000000000000000008067A206FF
310
323EEB9B741A32400027467960AF789C056115AFCB6F1839408076DB686140479BF634FF8D2A460B707625972A7D7C03DCA962B807949EE65EE8EB3774C3B8693A8E36ABF02FF23C401ABE3CD003E22A24D1034263647A314D80EDE375FB59A4E89A686C1C7028B150313271EC405C6ABF4231B41101100001E804C7CD0665
310
91A2354A86CF06B50A3F6716EDFC37793ABCC60285314A9B1DC357052863CEAB403DA1A836421FBE1EB047A2C6E12617F74BD70C01B4E86E55EB69687251EDE094E10165654B0860CC40000440003AC1C102AC4C820047243ADF03360B8E45B20401D44D0C748EEB97C19899094CDB1899E1EC7E83E4ED0F591EF05E989EE2
310
015A77CA291B23F576E8BC6EC00A2008800008F04401546D4CF8A851605B182D17899F16074C0885578A044D5133566EF56D84990F383352EE7E3FF5D5637A3021492A7B8E28725AE36801CCFC7B173EDD03B4E1019AD107D8E518E7975902B84DBBBA840008800008304A80AA279E340AD402640D833E81774A1C10244764
310
C401D142643B12D48F9B5D5B1E50274764448245B668DD2B84365EACB29F06EF466DF35F7626A252AE8E676D8C887341A9BD34EA93D45E5DA9517DEEF1097AABE2CCADB1B059EAA60DB379EBAEB438DEDC89B9AC38373FA04780F389BBB6CEE815405615C035ADDFC32ABB16BFDAF0230268706F5702B44EF91901CA3FD103
310
37FEAEF9010174BF8E3D994D827CB6A29BD89FC6D35D395D4D809E51406D529DEDEAD507B5DBBB36F14D971B055A2B61751C5065EEDA65EB300EF07DA18F3A8347A672E380666EA89C2C56773F4AD6FC90ED0D39CD1B4DDA17A8CA32F29939930E1E569FFCE0A44A3B67E97253ED83C37ADB94D49D21F318C7480FD00E53A6
310
78406713FCFFEC591E601AC0A5EA0FDF988AEB699A32A2FAF6D71684A70CFC0E851BA6000000000000000000000000000000000000000000000000000000C0C3F803070FEBEC6D71E3640000000049454E44AE426082
  0
ENDSEC
  0
EOF
