0
SECTION
2
HEADER
9
$INSUNITS
70
4
9
$ACADVER
1
AC1014
9
$HANDSEED
5
FFFF
0
ENDSEC
0
SECTION
2
TABLES
0
TABLE
2
VPORT
5
8
100
AcDbSymbolTable
0
ENDTAB
0
TABLE
2
LTYPE
5
5
100
AcDbSymbolTable
0
LTYPE
5
14
100
AcDbSymbolTableRecord
100
AcDbLinetypeTableRecord
2
BYBLOCK
70
0
0
LTYPE
5
15
100
AcDbSymbolTableRecord
100
AcDbLinetypeTableRecord
2
BYLAYER
70
0
0
ENDTAB
0
TABLE
2
LAYER
5
2
100
AcDbSymbolTable
70
2
0
LAYER
5
50
100
AcDbSymbolTableRecord
100
AcDbLayerTableRecord
2
0
70
0
6
CONTINUOUS
0
ENDTAB
0
TABLE
2
STYLE
5
3
100
AcDbSymbolTable
70
1
0
STYLE
5
11
100
AcDbSymbolTableRecord
100
AcDbTextStyleTableRecord
2
STANDARD
70
0
0
ENDTAB
0
TABLE
2
VIEW
5
6
100
AcDbSymbolTable
70
0
0
ENDTAB
0
TABLE
2
UCS
5
7
100
AcDbSymbolTable
70
0
0
ENDTAB
0
TABLE
2
APPID
5
9
100
AcDbSymbolTable
70
2
0
APPID
5
12
100
AcDbSymbolTableRecord
100
AcDbRegAppTableRecord
2
ACAD
70
0
0
ENDTAB
0
TABLE
2
DIMSTYLE
5
A
100
AcDbSymbolTable
70
1
0
ENDTAB
0
TABLE
2
BLOCK_RECORD
5
1
100
AcDbSymbolTable
70
1
0
BLOCK_RECORD
5
1F
100
AcDbSymbolTableRecord
100
AcDbBlockTableRecord
2
*MODEL_SPACE
0
BLOCK_RECORD
5
1B
100
AcDbSymbolTableRecord
100
AcDbBlockTableRecord
2
*PAPER_SPACE
0
ENDTAB
0
ENDSEC
0
SECTION
2
BLOCKS
0
BLOCK
5
20
100
AcDbEntity
100
AcDbBlockBegin
2
*MODEL_SPACE
0
ENDBLK
5
21
100
AcDbEntity
100
AcDbBlockEnd
0
BLOCK
5
1C
100
AcDbEntity
100
AcDbBlockBegin
2
*PAPER_SPACE
0
ENDBLK
5
1D
100
AcDbEntity
100
AcDbBlockEnd
0
ENDSEC
0
SECTION
2
ENTITIES
0
LWPOLYLINE
5
100
100
AcDbEntity
8
0
100
AcDbPolyline
90
16
70
1
43
0.0
10
-132.375
20
104.1435
10
-119.382541993963
20
104.14349999999972
42
-0.10951781168330503
10
-118.74861460135173
20
104.00296168055456
10
-117.20687847813601
20
103.284038319445
42
0.10951781168323003
10
-116.57295108552502
20
103.14350000000003
10
-115.14807621135202
20
103.14350000000002
42
0.26794919243099796
10
-113.8490381056759
20
103.89349999999951
42
-0.57735026918997667
10
-111.25096189432188
20
103.89349999999908
42
0.2679491924309077
10
-109.95192378864601
20
103.14350000000024
10
-96.549999999999898
20
103.14350000000002
42
-0.99999999999999989
10
-96.549999999999898
20
100.1435
10
-99.7174580060355
20
100.14349999999992
42
-0.10951781168330942
10
-100.35138539864695
20
100.28403831944513
10
-101.89312152186301
20
101.002961680555
42
0.10951781168323389
10
-102.52704891447401
20
101.14350000000002
10
-132.375
20
101.1435
42
-0.99999999999999989
0
LWPOLYLINE
5
101
100
AcDbEntity
8
0
100
AcDbPolyline
90
16
70
1
43
0.0
10
-153.375
20
101.14350000000101
10
-183.22295108552601
20
101.14350000000002
42
0.10951781168322726
10
-183.85687847813699
20
101.00296168055502
10
-185.39861460135302
20
100.28403831944513
42
-0.10951781168323391
10
-186.032541993964
20
100.14350000000013
10
-189.19999999999999
20
100.14350000000039
42
-0.99999999999999989
10
-189.19999999999999
20
103.14349999999962
10
-175.79807621135399
20
103.14350000000002
42
0.2679491924309953
10
-174.49903810567793
20
103.89349999999956
42
-0.57735026918997667
10
-171.90096189432384
20
103.89349999999909
42
0.26794919243090731
10
-170.60192378864801
20
103.1435000000003
10
-169.17704891447499
20
103.14350000000002
42
0.10951781168322726
10
-168.54312152186401
20
103.284038319445
10
-167.00138539864832
20
104.00296168055459
42
-0.10951781168330492
10
-166.36745800603703
20
104.14349999999973
10
-153.375
20
104.14350000000098
42
-0.99999999999999989
0
LWPOLYLINE
5
102
100
AcDbEntity
8
0
100
AcDbPolyline
90
15
70
1
43
0.0
10
-29.099999999999895
20
60.431894608788809
42
0.29147341958609063
10
-29.966072607388867
20
61.791356289343788
10
-32.996427392610983
20
63.204433932619438
42
-0.29147341958608108
10
-33.862499999999898
20
64.563895613174395
10
-33.862499999999905
20
76.9375
42
-0.41421356237309503
10
-32.362499999999898
20
78.437500000000014
10
-27.168749999999903
20
78.4375
42
-0.41421356237309503
10
-25.668749999999903
20
76.9375
10
-25.668749999999903
20
63.875819893120806
42
0.35459651969138289
10
-24.47812499999991
20
62.408070899125278
42
-0.35459651969138678
10
-23.287499999999902
20
60.9403219051297
10
-23.287499999999895
20
46.887500000000003
42
-0.41421356237309503
10
-24.787499999999902
20
45.387500000000003
10
-27.599999999999902
20
45.387500000000003
42
-0.41421356237309503
10
-29.099999999999898
20
46.887500000000003
0
LWPOLYLINE
5
103
100
AcDbEntity
8
0
100
AcDbPolyline
90
8
70
1
43
0.0
10
-331.13750000000005
20
95.987500000000011
10
-331.13750000000005
20
84.987499999999997
42
-0.41421356237309503
10
-332.63750000000005
20
83.487499999999983
10
-340.38749999999999
20
83.487500000000011
42
-0.41421356237309503
10
-341.88749999999999
20
84.987499999999997
10
-341.88749999999999
20
95.987500000000011
42
-0.41421356237309503
10
-340.38749999999999
20
97.487500000000011
10
-332.63750000000005
20
97.487499999999997
42
-0.41421356237309503
0
LWPOLYLINE
5
104
100
AcDbEntity
8
0
100
AcDbPolyline
90
8
70
1
43
0.0
10
-307.03750000000002
20
84.987499999999997
10
-307.03750000000008
20
95.987500000000011
42
-0.41421356237309503
10
-305.53750000000002
20
97.487500000000011
10
-296.53750000000002
20
97.487499999999997
42
-0.41421356237309503
10
-295.03750000000002
20
95.987500000000011
10
-295.03750000000002
20
84.987499999999997
42
-0.41421356237309503
10
-296.53750000000002
20
83.487499999999983
10
-305.53750000000002
20
83.487500000000011
42
-0.41421356237309503
0
LWPOLYLINE
5
105
100
AcDbEntity
8
0
100
AcDbPolyline
90
8
70
1
43
0.0
10
-295.03750000000002
20
79.987499999999997
10
-295.03750000000002
20
62.887500000000003
42
-0.41421356237309503
10
-296.53750000000002
20
61.387500000000003
10
-340.38749999999999
20
61.387500000000017
42
-0.41421356237309503
10
-341.88749999999999
20
62.887500000000003
10
-341.88749999999999
20
79.987499999999997
42
-0.41421356237309503
10
-340.38749999999999
20
81.487499999999997
10
-296.53750000000002
20
81.487499999999997
42
-0.41421356237309503
0
LWPOLYLINE
5
106
100
AcDbEntity
8
0
100
AcDbPolyline
90
8
70
1
43
0.0
10
-242.36250000000001
20
76.937500000000099
10
-242.36250000000007
20
65.9375
42
-0.41421356237309503
10
-243.86250000000004
20
64.4375
10
-245.38075000000003
20
64.437500000000014
42
-0.41421356237309503
10
-246.88075000000001
20
65.9375
10
-246.88075000000003
20
76.9375
42
-0.41421356237309503
10
-245.38075000000003
20
78.437500000000014
10
-243.86250000000004
20
78.437500000000028
42
-0.41421356237307599
0
LWPOLYLINE
5
107
100
AcDbEntity
8
0
100
AcDbPolyline
90
16
70
1
43
0.0
10
-232.83750000000001
20
112.65882034356
10
-232.83750000000003
20
104.03750000000001
42
-0.41421356237309503
10
-234.33750000000003
20
102.53749999999999
10
-260.96249999999998
20
102.53750000000002
42
-0.41421356237309503
10
-262.46249999999998
20
104.03750000000001
10
-262.46249999999998
20
113.65882034356
42
-0.41421356237309503
10
-260.96249999999998
20
115.15882034356
10
-255.29504199396399
20
115.15882034355953
42
-0.10951781168329874
10
-254.66111460135284
20
115.01828202411438
10
-253.11937847813704
20
114.29935866300499
42
0.1095178116832327
10
-252.48545108552602
20
114.15882034356002
10
-251.06057621135304
20
114.15882034356001
42
0.26794919243091003
10
-249.76153810567692
20
114.90882034355894
42
-0.57735026919008647
10
-247.16346189432312
20
114.90882034355894
42
0.26794919243090753
10
-245.86442378864703
20
114.15882034356002
10
-234.33750000000003
20
114.15882034356002
42
-0.41421356237309503
0
LWPOLYLINE
5
108
100
AcDbEntity
8
0
100
AcDbPolyline
90
8
70
1
43
0.0
10
-242.11825000000002
20
85.987500000000011
10
-242.11824999999999
20
95.987500000000011
42
-0.41421356237309503
10
-240.61824999999999
20
97.487500000000011
10
-234.33750000000003
20
97.487499999999997
42
-0.41421356237309503
10
-232.83750000000003
20
95.987500000000011
10
-232.83750000000003
20
85.987500000000011
42
-0.41421356237309503
10
-234.33750000000003
20
84.487500000000011
10
-240.61824999999999
20
84.487499999999983
42
-0.41421356237309503
0
LWPOLYLINE
5
109
100
AcDbEntity
8
0
100
AcDbPolyline
90
8
70
1
43
0.0
10
-278.49425000000002
20
84.487500000000026
42
0.41421356237309503
10
-276.99425000000008
20
85.987500000000011
10
-276.99425000000008
20
95.987500000000011
42
0.41421356237309503
10
-278.49425000000002
20
97.487500000000011
10
-281.72500000000002
20
97.487500000000011
42
0.41421356237309503
10
-283.22500000000002
20
95.987500000000011
10
-283.22500000000002
20
85.987500000000011
42
0.41421356237309503
10
-281.72500000000002
20
84.487500000000011
0
LWPOLYLINE
5
110
100
AcDbEntity
8
0
100
AcDbPolyline
90
8
70
1
43
0.0
10
-149.375
20
40.337499999999991
42
0.41421356237309503
10
-149.875
20
39.837499999999999
10
-149.875
20
26.837499999999999
42
0.41421356237309503
10
-149.375
20
26.337499999999999
10
-136.375
20
26.337500000000009
42
0.41421356237309503
10
-135.875
20
26.837499999999999
10
-135.875
20
39.837499999999999
42
0.41421356237309503
10
-136.375
20
40.337500000000006
0
LWPOLYLINE
5
111
100
AcDbEntity
8
0
100
AcDbPolyline
90
8
70
1
43
0.0
10
-193.52500000000003
20
26.33749999999997
42
0.41421356237309503
10
-193.02499999999998
20
26.837499999999999
10
-193.02500000000006
20
39.837499999999999
42
0.41421356237309503
10
-193.52500000000003
20
40.337500000000006
10
-206.52500000000003
20
40.337499999999984
42
0.41421356237309503
10
-207.02500000000001
20
39.837499999999999
10
-207.02500000000003
20
26.837499999999999
42
0.41421356237309503
10
-206.52500000000003
20
26.337499999999999
0
LWPOLYLINE
5
112
100
AcDbEntity
8
0
100
AcDbPolyline
90
8
70
1
43
0.0
10
-139.84999999999999
20
59.387499999999989
42
0.41421356237309503
10
-140.34999999999997
20
58.88750000000001
10
-140.34999999999999
20
45.887500000000003
42
0.41421356237309503
10
-139.84999999999999
20
45.387500000000003
10
-126.85000000000001
20
45.38750000000001
42
0.41421356237309503
10
-126.34999999999999
20
45.887500000000003
10
-126.34999999999998
20
58.88750000000001
42
0.41421356237309503
10
-126.85000000000001
20
59.387500000000003
0
LWPOLYLINE
5
113
100
AcDbEntity
8
0
100
AcDbPolyline
90
8
70
1
43
0.0
10
-231.625
20
26.337499999999952
42
0.41421356237309503
10
-231.12499999999997
20
26.837499999999999
10
-231.12500000000006
20
39.837499999999999
42
0.41421356237309503
10
-231.625
20
40.337500000000006
10
-244.62500000000003
20
40.33749999999997
42
0.41421356237309503
10
-245.12500000000003
20
39.837499999999999
10
-245.125
20
26.837499999999999
42
0.41421356237309503
10
-244.62500000000003
20
26.337499999999999
0
LWPOLYLINE
5
114
100
AcDbEntity
8
0
100
AcDbPolyline
90
8
70
1
43
0.0
10
-130.32499999999999
20
40.337499999999991
42
0.41421356237309503
10
-130.82499999999999
20
39.837499999999999
10
-130.82499999999999
20
26.837499999999999
42
0.41421356237309503
10
-130.32499999999999
20
26.337499999999999
10
-117.32500000000002
20
26.33750000000002
42
0.41421356237309503
10
-116.82500000000002
20
26.837499999999999
10
-116.82500000000003
20
39.837499999999999
42
0.41421356237309503
10
-117.32500000000002
20
40.337500000000006
0
LWPOLYLINE
5
115
100
AcDbEntity
8
0
100
AcDbPolyline
90
8
70
1
43
0.0
10
-73.174999999999997
20
40.337500000000006
42
0.41421356237309503
10
-73.675000000000011
20
39.837499999999999
10
-73.674999999999997
20
26.837499999999999
42
0.41421356237309503
10
-73.174999999999997
20
26.337499999999999
10
-60.174999999999997
20
26.337500000000006
42
0.41421356237309503
10
-59.675000000000004
20
26.837499999999999
10
-59.675000000000018
20
39.837499999999999
42
0.41421356237309503
10
-60.174999999999997
20
40.337500000000006
0
LWPOLYLINE
5
116
100
AcDbEntity
8
0
100
AcDbPolyline
90
8
70
1
43
0.0
10
-82.700000000000017
20
59.387499999999996
42
0.41421356237309503
10
-83.200000000000003
20
58.88750000000001
10
-83.200000000000045
20
45.887500000000003
42
0.41421356237309503
10
-82.700000000000017
20
45.387500000000003
10
-69.700000000000003
20
45.387500000000003
42
0.41421356237309503
10
-69.200000000000003
20
45.887500000000003
10
-69.200000000000003
20
58.88750000000001
42
0.41421356237309503
10
-69.700000000000003
20
59.387500000000003
0
LWPOLYLINE
5
117
100
AcDbEntity
8
0
100
AcDbPolyline
90
8
70
1
43
0.0
10
-77.9375
20
97.487500000000011
42
0.41421356237309503
10
-78.437500000000014
20
96.987500000000011
10
-78.437499999999986
20
83.987499999999997
42
0.41421356237309503
10
-77.9375
20
83.487500000000011
10
-64.9375
20
83.487499999999983
42
0.41421356237309503
10
-64.4375
20
83.987499999999997
10
-64.437500000000028
20
96.987500000000011
42
0.41421356237309503
10
-64.9375
20
97.487500000000011
0
LWPOLYLINE
5
118
100
AcDbEntity
8
0
100
AcDbPolyline
90
8
70
1
43
0.0
10
-192.23750000000001
20
97.487499999999997
42
0.41421356237309503
10
-192.73750000000001
20
96.987500000000011
10
-192.73750000000004
20
83.987499999999997
42
0.41421356237309503
10
-192.23750000000001
20
83.487500000000011
10
-179.23750000000001
20
83.487500000000026
42
0.41421356237309503
10
-178.73750000000001
20
83.987499999999997
10
-178.73750000000004
20
96.987500000000011
42
0.41421356237309503
10
-179.23750000000001
20
97.487500000000011
0
LWPOLYLINE
5
119
100
AcDbEntity
8
0
100
AcDbPolyline
90
8
70
1
43
0.0
10
-92.224999999999994
20
40.337499999999991
42
0.41421356237309503
10
-92.724999999999994
20
39.837499999999999
10
-92.725000000000009
20
26.837499999999999
42
0.41421356237309503
10
-92.224999999999994
20
26.337499999999999
10
-79.224999999999994
20
26.337500000000006
42
0.41421356237309503
10
-78.724999999999994
20
26.837499999999999
10
-78.725000000000009
20
39.837499999999999
42
0.41421356237309503
10
-79.224999999999994
20
40.337500000000006
0
LWPOLYLINE
5
120
100
AcDbEntity
8
0
100
AcDbPolyline
90
8
70
1
43
0.0
10
-125.5625
20
78.437499999999986
42
0.41421356237309503
10
-126.0625
20
77.9375
10
-126.06250000000003
20
64.9375
42
0.41421356237309503
10
-125.5625
20
64.4375
10
-112.56250000000001
20
64.437500000000028
42
0.41421356237309503
10
-112.0625
20
64.9375
10
-112.0625
20
77.9375
42
0.41421356237309503
10
-112.56250000000001
20
78.4375
0
LWPOLYLINE
5
121
100
AcDbEntity
8
0
100
AcDbPolyline
90
8
70
1
43
0.0
10
-63.650000000000006
20
59.387500000000003
42
0.41421356237309503
10
-64.150000000000006
20
58.88750000000001
10
-64.150000000000006
20
45.887500000000003
42
0.41421356237309503
10
-63.650000000000006
20
45.387500000000003
10
-50.650000000000006
20
45.387500000000003
42
0.41421356237309503
10
-50.150000000000006
20
45.887500000000003
10
-50.150000000000006
20
58.88750000000001
42
0.41421356237309503
10
-50.650000000000006
20
59.387500000000003
0
LWPOLYLINE
5
122
100
AcDbEntity
8
0
100
AcDbPolyline
90
8
70
1
43
0.0
10
-135.08750000000001
20
97.487500000000026
42
0.41421356237309503
10
-135.58750000000003
20
96.987500000000011
10
-135.58750000000003
20
83.987499999999997
42
0.41421356237309503
10
-135.08750000000001
20
83.487500000000011
10
-122.08750000000002
20
83.487499999999983
42
0.41421356237309503
10
-121.58750000000001
20
83.987499999999997
10
-121.58750000000001
20
96.987500000000011
42
0.41421356237309503
10
-122.08750000000002
20
97.487500000000011
0
LWPOLYLINE
5
123
100
AcDbEntity
8
0
100
AcDbPolyline
90
8
70
1
43
0.0
10
-188.76249999999999
20
64.437500000000057
42
0.4142135623730378
10
-188.26249999999993
20
64.9375
10
-188.26250000000002
20
77.9375
42
0.41421356237309503
10
-188.76249999999999
20
78.4375
10
-201.76249999999999
20
78.437500000000028
42
0.41421356237309503
10
-202.26249999999999
20
77.9375
10
-202.26249999999996
20
64.9375
42
0.41421356237309503
10
-201.76249999999999
20
64.4375
0
LWPOLYLINE
5
124
100
AcDbEntity
8
0
100
AcDbPolyline
90
8
70
1
43
0.0
10
-131.11250000000001
20
77.9375
42
0.41421356237309503
10
-131.61250000000001
20
78.437500000000014
10
-144.61250000000001
20
78.437499999999986
42
0.41421356237309503
10
-145.11250000000001
20
77.9375
10
-145.11250000000004
20
64.9375
42
0.41421356237309503
10
-144.61250000000001
20
64.4375
10
-131.61250000000001
20
64.437500000000028
42
0.41421356237309503
10
-131.11250000000001
20
64.9375
0
LWPOLYLINE
5
125
100
AcDbEntity
8
0
100
AcDbPolyline
90
8
70
1
43
0.0
10
-111.27500000000001
20
40.337499999999991
42
0.41421356237309503
10
-111.77500000000001
20
39.837499999999999
10
-111.77500000000002
20
26.837499999999999
42
0.41421356237309503
10
-111.27500000000001
20
26.337499999999999
10
-98.275000000000006
20
26.33750000000002
42
0.41421356237309503
10
-97.77500000000002
20
26.837499999999999
10
-97.77500000000002
20
39.837499999999999
42
0.41421356237309503
10
-98.275000000000006
20
40.337500000000006
0
LWPOLYLINE
5
126
100
AcDbEntity
8
0
100
AcDbPolyline
90
8
70
1
43
0.0
10
-163.66250000000002
20
78.437499999999957
42
0.4142135623730378
10
-164.16250000000005
20
77.9375
10
-164.16249999999997
20
64.9375
42
0.41421356237309503
10
-163.66250000000002
20
64.4375
10
-150.66249999999999
20
64.437500000000028
42
0.41421356237309503
10
-150.16249999999999
20
64.9375
10
-150.16249999999999
20
77.9375
42
0.41421356237309503
10
-150.66249999999999
20
78.4375
0
LWPOLYLINE
5
127
100
AcDbEntity
8
0
100
AcDbPolyline
90
8
70
1
43
0.0
10
-49.362500000000004
20
78.4375
42
0.41421356237309503
10
-49.862499999999997
20
77.9375
10
-49.862499999999997
20
64.9375
42
0.41421356237309503
10
-49.362500000000004
20
64.4375
10
-36.362499999999997
20
64.4375
42
0.41421356237309503
10
-35.862499999999997
20
64.9375
10
-35.862500000000004
20
77.9375
42
0.41421356237309503
10
-36.362499999999997
20
78.4375
0
LWPOLYLINE
5
128
100
AcDbEntity
8
0
100
AcDbPolyline
90
8
70
1
43
0.0
10
-235.10000000000002
20
59.387500000000045
42
0.41421356237309503
10
-235.60000000000005
20
58.88750000000001
10
-235.59999999999999
20
45.887500000000003
42
0.41421356237309503
10
-235.10000000000002
20
45.387500000000003
10
-222.10000000000002
20
45.38750000000006
42
0.41421356237303258
10
-221.59999999999999
20
45.887500000000003
10
-221.60000000000002
20
58.88750000000001
42
0.41421356237309503
10
-222.10000000000002
20
59.387500000000003
0
LWPOLYLINE
5
129
100
AcDbEntity
8
0
100
AcDbPolyline
90
8
70
1
43
0.0
10
-158.90000000000001
20
59.387499999999989
42
0.41421356237309503
10
-159.39999999999998
20
58.88750000000001
10
-159.40000000000001
20
45.887500000000003
42
0.41421356237309503
10
-158.90000000000001
20
45.387500000000003
10
-145.90000000000001
20
45.38750000000001
42
0.41421356237309503
10
-145.40000000000001
20
45.887500000000003
10
-145.39999999999998
20
58.88750000000001
42
0.41421356237309503
10
-145.90000000000001
20
59.387500000000003
0
LWPOLYLINE
5
130
100
AcDbEntity
8
0
100
AcDbPolyline
90
8
70
1
43
0.0
10
-211.28749999999999
20
97.487499999999983
42
0.41421356237309503
10
-211.78749999999997
20
96.987500000000011
10
-211.78749999999997
20
83.987499999999997
42
0.41421356237309503
10
-211.28749999999999
20
83.487500000000011
10
-198.28749999999999
20
83.487500000000011
42
0.41421356237309503
10
-197.78750000000002
20
83.987499999999997
10
-197.78749999999999
20
96.987500000000011
42
0.41421356237309503
10
-198.28749999999999
20
97.487500000000011
0
LWPOLYLINE
5
131
100
AcDbEntity
8
0
100
AcDbPolyline
90
8
70
1
43
0.0
10
-120.8
20
59.387499999999996
42
0.41421356237309503
10
-121.29999999999998
20
58.88750000000001
10
-121.30000000000003
20
45.887500000000003
42
0.41421356237309503
10
-120.8
20
45.387500000000003
10
-107.80000000000001
20
45.387500000000017
42
0.41421356237309503
10
-107.30000000000001
20
45.887500000000003
10
-107.30000000000001
20
58.88750000000001
42
0.41421356237309503
10
-107.80000000000001
20
59.387500000000003
0
LWPOLYLINE
5
132
100
AcDbEntity
8
0
100
AcDbPolyline
90
8
70
1
43
0.0
10
-216.83750000000001
20
96.987500000000011
42
0.41421356237309503
10
-217.33750000000001
20
97.487500000000011
10
-230.33750000000001
20
97.487499999999983
42
0.41421356237309503
10
-230.83750000000003
20
96.987500000000011
10
-230.83749999999998
20
83.987499999999997
42
0.41421356237309503
10
-230.33750000000001
20
83.487500000000011
10
-217.33750000000001
20
83.487500000000011
42
0.41421356237309503
10
-216.83750000000003
20
83.987499999999997
0
LWPOLYLINE
5
133
100
AcDbEntity
8
0
100
AcDbPolyline
90
8
70
1
43
0.0
10
-35.075000000000003
20
40.337499999999991
42
0.41421356237309503
10
-35.574999999999996
20
39.837499999999999
10
-35.575000000000003
20
26.837499999999999
42
0.41421356237309503
10
-35.075000000000003
20
26.337499999999999
10
-22.074999999999999
20
26.337499999999999
42
0.41421356237309503
10
-21.575000000000003
20
26.837499999999999
10
-21.57500000000001
20
39.837499999999999
42
0.41421356237309503
10
-22.074999999999999
20
40.337500000000006
0
LWPOLYLINE
5
134
100
AcDbEntity
8
0
100
AcDbPolyline
90
8
70
1
43
0.0
10
-177.94999999999999
20
59.387500000000045
42
0.41421356237309503
10
-178.45000000000002
20
58.88750000000001
10
-178.44999999999996
20
45.887500000000003
42
0.41421356237309503
10
-177.94999999999999
20
45.387500000000003
10
-164.95000000000002
20
45.387499999999967
42
0.41421356237309503
10
-164.44999999999999
20
45.887500000000003
10
-164.45000000000005
20
58.88750000000001
42
0.41421356237309503
10
-164.95000000000002
20
59.387500000000003
0
LWPOLYLINE
5
135
100
AcDbEntity
8
0
100
AcDbPolyline
90
8
70
1
43
0.0
10
-54.125000000000007
20
40.337500000000006
42
0.41421356237309503
10
-54.625000000000014
20
39.837499999999999
10
-54.625
20
26.837499999999999
42
0.41421356237309503
10
-54.125000000000007
20
26.337499999999999
10
-41.125
20
26.337499999999999
42
0.41421356237309503
10
-40.625
20
26.837499999999999
10
-40.625000000000014
20
39.837499999999999
42
0.41421356237309503
10
-41.125
20
40.337500000000006
0
LWPOLYLINE
5
136
100
AcDbEntity
8
0
100
AcDbPolyline
90
8
70
1
43
0.0
10
-216.05000000000004
20
59.38750000000006
42
0.41421356237309503
10
-216.55000000000007
20
58.88750000000001
10
-216.55000000000001
20
45.887500000000003
42
0.41421356237309503
10
-216.05000000000004
20
45.387500000000003
10
-203.05000000000004
20
45.387499999999967
42
0.41421356237309503
10
-202.55000000000001
20
45.887500000000003
10
-202.55000000000007
20
58.88750000000001
42
0.41421356237309503
10
-203.05000000000004
20
59.387500000000003
0
LWPOLYLINE
5
137
100
AcDbEntity
8
0
100
AcDbPolyline
90
8
70
1
43
0.0
10
-154.92500000000001
20
39.837499999999999
42
0.41421356237309503
10
-155.42500000000001
20
40.337500000000034
10
-168.42500000000001
20
40.337499999999984
42
0.41421356237309503
10
-168.92500000000001
20
39.837499999999999
10
-168.92500000000001
20
26.837499999999999
42
0.41421356237309503
10
-168.42500000000001
20
26.337499999999999
10
-155.42500000000001
20
26.337500000000009
42
0.41421356237309503
10
-154.92500000000001
20
26.837499999999999
0
LWPOLYLINE
5
138
100
AcDbEntity
8
0
100
AcDbPolyline
90
8
70
1
43
0.0
10
-197.00000000000003
20
59.38750000000006
42
0.41421356237309503
10
-197.50000000000006
20
58.88750000000001
10
-197.5
20
45.887500000000003
42
0.41421356237309503
10
-197.00000000000003
20
45.387500000000003
10
-184.00000000000003
20
45.387499999999967
42
0.41421356237309503
10
-183.5
20
45.887500000000003
10
-183.50000000000006
20
58.88750000000001
42
0.41421356237309503
10
-184.00000000000003
20
59.387500000000003
0
LWPOLYLINE
5
139
100
AcDbEntity
8
0
100
AcDbPolyline
90
8
70
1
43
0.0
10
-187.47499999999999
20
40.33749999999997
42
0.41421356237309503
10
-187.97499999999997
20
39.837499999999999
10
-187.97499999999997
20
26.837499999999999
42
0.41421356237309503
10
-187.47499999999999
20
26.337499999999999
10
-174.47500000000002
20
26.33749999999997
42
0.41421356237309503
10
-173.97500000000002
20
26.837499999999999
10
-173.97500000000005
20
39.837499999999999
42
0.41421356237309503
10
-174.47500000000002
20
40.337500000000006
0
LWPOLYLINE
5
140
100
AcDbEntity
8
0
100
AcDbPolyline
90
8
70
1
43
0.0
10
-212.57499999999999
20
26.337499999999952
42
0.41421356237309503
10
-212.07499999999996
20
26.837499999999999
10
-212.07500000000005
20
39.837499999999999
42
0.41421356237309503
10
-212.57499999999999
20
40.337500000000006
10
-225.57500000000002
20
40.33749999999997
42
0.41421356237309503
10
-226.07500000000002
20
39.837499999999999
10
-226.07499999999999
20
26.837499999999999
42
0.41421356237309503
10
-225.57500000000002
20
26.337499999999999
0
LWPOLYLINE
5
141
100
AcDbEntity
8
0
100
AcDbPolyline
90
8
70
1
43
0.0
10
-154.13749999999999
20
97.487500000000011
42
0.41421356237309503
10
-154.63750000000002
20
96.987500000000011
10
-154.63750000000002
20
83.987499999999997
42
0.41421356237309503
10
-154.13749999999999
20
83.487500000000011
10
-141.13749999999999
20
83.487499999999983
42
0.41421356237309503
10
-140.63749999999999
20
83.987499999999997
10
-140.63749999999999
20
96.987500000000011
42
0.41421356237309503
10
-141.13749999999999
20
97.487500000000011
0
LWPOLYLINE
5
142
100
AcDbEntity
8
0
100
AcDbPolyline
90
8
70
1
43
0.0
10
-220.8125
20
78.437500000000028
42
0.41421356237309503
10
-221.31250000000006
20
77.9375
10
-221.31249999999997
20
64.9375
42
0.41421356237309503
10
-220.8125
20
64.4375
10
-207.8125
20
64.437500000000057
42
0.4142135623730378
10
-207.31250000000003
20
64.9375
10
-207.31250000000003
20
77.9375
42
0.41421356237309503
10
-207.8125
20
78.4375
0
LWPOLYLINE
5
143
100
AcDbEntity
8
0
100
AcDbPolyline
90
8
70
1
43
0.0
10
-68.412499999999994
20
78.4375
42
0.41421356237309503
10
-68.912499999999994
20
77.9375
10
-68.912499999999994
20
64.9375
42
0.41421356237309503
10
-68.412499999999994
20
64.4375
10
-55.412500000000009
20
64.4375
42
0.41421356237309503
10
-54.912500000000009
20
64.9375
10
-54.912500000000009
20
77.9375
42
0.41421356237309503
10
-55.412500000000009
20
78.4375
0
LWPOLYLINE
5
144
100
AcDbEntity
8
0
100
AcDbPolyline
90
8
70
1
43
0.0
10
-58.88750000000001
20
97.487500000000011
42
0.41421356237309503
10
-59.387500000000017
20
96.987500000000011
10
-59.387499999999989
20
83.987499999999997
42
0.41421356237309503
10
-58.88750000000001
20
83.487500000000011
10
-45.887500000000003
20
83.487499999999983
42
0.41421356237309503
10
-45.387500000000003
20
83.987499999999997
10
-45.387500000000017
20
96.987500000000011
42
0.41421356237309503
10
-45.887500000000003
20
97.487500000000011
0
LWPOLYLINE
5
145
100
AcDbEntity
8
0
100
AcDbPolyline
90
8
70
1
43
0.0
10
-239.86250000000001
20
78.437500000000028
42
0.41421356237309503
10
-240.36250000000007
20
77.9375
10
-240.36249999999998
20
64.9375
42
0.41421356237309503
10
-239.86250000000001
20
64.4375
10
-226.86250000000001
20
64.437500000000057
42
0.4142135623730378
10
-226.36250000000004
20
64.9375
10
-226.36250000000004
20
77.9375
42
0.41421356237309503
10
-226.86250000000001
20
78.4375
0
LWPOLYLINE
5
146
100
AcDbEntity
8
0
100
AcDbPolyline
90
8
70
1
43
0.0
10
-83.987499999999997
20
83.487499999999983
42
0.41421356237309503
10
-83.487499999999983
20
83.987499999999997
10
-83.487500000000011
20
96.987500000000011
42
0.41421356237309503
10
-83.987499999999997
20
97.487500000000011
10
-96.987500000000011
20
97.487500000000011
42
0.41421356237309503
10
-97.487500000000011
20
96.987500000000011
10
-97.487500000000011
20
83.987499999999997
42
0.41421356237309503
10
-96.987500000000011
20
83.487500000000011
0
LWPOLYLINE
5
147
100
AcDbEntity
8
0
100
AcDbPolyline
90
8
70
1
43
0.0
10
-87.46250000000002
20
78.437499999999986
42
0.41421356237309503
10
-87.962500000000006
20
77.9375
10
-87.962500000000034
20
64.9375
42
0.41421356237309503
10
-87.46250000000002
20
64.4375
10
-74.462500000000006
20
64.437500000000014
42
0.41421356237309503
10
-73.962500000000006
20
64.9375
10
-73.962500000000006
20
77.9375
42
0.41421356237309503
10
-74.462500000000006
20
78.4375
0
LWPOLYLINE
5
148
100
AcDbEntity
8
0
100
AcDbPolyline
90
8
70
1
43
0.0
10
-254.15000000000003
20
59.387500000000045
42
0.41421356237309503
10
-254.65000000000006
20
58.88750000000001
10
-254.65000000000001
20
45.887500000000003
42
0.41421356237309503
10
-254.15000000000003
20
45.387500000000003
10
-241.15000000000003
20
45.38750000000006
42
0.41421356237303258
10
-240.65000000000001
20
45.887500000000003
10
-240.65000000000003
20
58.88750000000001
42
0.41421356237309503
10
-241.15000000000003
20
59.387500000000003
0
LWPOLYLINE
5
149
100
AcDbEntity
8
0
100
AcDbPolyline
90
8
70
1
43
0.0
10
-182.71250000000003
20
78.437499999999957
42
0.4142135623730378
10
-183.21250000000006
20
77.9375
10
-183.21249999999998
20
64.9375
42
0.41421356237309503
10
-182.71250000000003
20
64.4375
10
-169.71250000000001
20
64.437499999999972
42
0.41421356237309503
10
-169.21250000000001
20
64.9375
10
-169.21250000000003
20
77.9375
42
0.41421356237309503
10
-169.71250000000001
20
78.4375
0
LWPOLYLINE
5
150
100
AcDbEntity
8
0
100
AcDbPolyline
90
8
70
1
43
0.0
10
-116.03749999999999
20
97.487500000000026
42
0.41421356237309503
10
-116.53750000000002
20
96.987500000000011
10
-116.53750000000002
20
83.987499999999997
42
0.41421356237309503
10
-116.03749999999999
20
83.487500000000011
10
-103.03750000000001
20
83.487499999999983
42
0.41421356237309503
10
-102.53749999999999
20
83.987499999999997
10
-102.53749999999999
20
96.987500000000011
42
0.41421356237309503
10
-103.03750000000001
20
97.487500000000011
0
LWPOLYLINE
5
151
100
AcDbEntity
8
0
100
AcDbPolyline
90
8
70
1
43
0.0
10
-101.75
20
59.387499999999989
42
0.41421356237309503
10
-102.24999999999997
20
58.88750000000001
10
-102.25000000000001
20
45.887500000000003
42
0.41421356237309503
10
-101.75
20
45.387500000000003
10
-88.75
20
45.387500000000017
42
0.41421356237309503
10
-88.250000000000014
20
45.887500000000003
10
-88.25
20
58.88750000000001
42
0.41421356237309503
10
-88.75
20
59.387500000000003
0
LWPOLYLINE
5
152
100
AcDbEntity
8
0
100
AcDbPolyline
90
8
70
1
43
0.0
10
-173.1875
20
97.487499999999997
42
0.41421356237309503
10
-173.6875
20
96.987500000000011
10
-173.68750000000003
20
83.987499999999997
42
0.41421356237309503
10
-173.1875
20
83.487500000000011
10
-160.1875
20
83.487499999999983
42
0.41421356237309503
10
-159.6875
20
83.987499999999997
10
-159.6875
20
96.987500000000011
42
0.41421356237309503
10
-160.1875
20
97.487500000000011
0
LWPOLYLINE
5
153
100
AcDbEntity
8
0
100
AcDbPolyline
90
8
70
1
43
0.0
10
-106.51250000000002
20
78.437499999999986
42
0.41421356237309503
10
-107.01249999999999
20
77.9375
10
-107.01250000000002
20
64.9375
42
0.41421356237309503
10
-106.51250000000002
20
64.4375
10
-93.512500000000003
20
64.437500000000028
42
0.41421356237309503
10
-93.012500000000017
20
64.9375
10
-93.012499999999989
20
77.9375
42
0.41421356237309503
10
-93.512500000000003
20
78.4375
0
LWPOLYLINE
5
154
100
AcDbEntity
8
0
100
AcDbPolyline
90
8
70
1
43
0.0
10
-44.600000000000001
20
59.387500000000003
42
0.41421356237309503
10
-45.099999999999994
20
58.88750000000001
10
-45.099999999999994
20
45.887500000000003
42
0.41421356237309503
10
-44.600000000000001
20
45.387500000000003
10
-31.600000000000001
20
45.387500000000003
42
0.41421356237309503
10
-31.100000000000001
20
45.887500000000003
10
-31.100000000000001
20
58.88750000000001
42
0.41421356237309503
10
-31.600000000000001
20
59.387500000000003
0
LWPOLYLINE
5
155
100
AcDbEntity
8
0
100
AcDbPolyline
90
8
70
1
43
0.0
10
-293.53750000000002
20
2.5249999999999999
42
0.41421356237309503
10
-293.03750000000002
20
3.0249999999999999
10
-293.03750000000002
20
16.024999999999999
42
0.41421356237309503
10
-293.53750000000002
20
16.524999999999999
10
-306.53750000000002
20
16.525000000000002
42
0.41421356237309503
10
-307.03750000000002
20
16.024999999999999
10
-307.03750000000002
20
3.0249999999999999
42
0.41421356237309503
10
-306.53750000000002
20
2.5249999999999901
0
LWPOLYLINE
5
156
100
AcDbEntity
8
0
100
AcDbPolyline
90
8
70
1
43
0.0
10
-226.07500000000002
20
3.0249999999999999
42
0.41421356237309503
10
-225.57500000000002
20
2.5249999999999928
10
-212.57499999999999
20
2.5249999999999999
42
0.41421356237309503
10
-212.07499999999999
20
3.0249999999999999
10
-212.07499999999999
20
16.024999999999999
42
0.41421356237309503
10
-212.57499999999999
20
16.524999999999999
10
-225.57500000000002
20
16.525000000000002
42
0.41421356237309503
10
-226.07500000000002
20
16.024999999999999
0
LWPOLYLINE
5
157
100
AcDbEntity
8
0
100
AcDbPolyline
90
8
70
1
43
0.0
10
-275.63800000000003
20
27.337500000000002
42
0.41421356237309503
10
-275.13799999999998
20
27.837499999999999
10
-275.13799999999998
20
41.837499999999999
42
0.41421356237309503
10
-275.63800000000003
20
42.337499999999999
10
-281.63799999999998
20
42.337499999999999
42
0.41421356237309503
10
-282.13799999999998
20
41.837499999999999
10
-282.13799999999998
20
27.837499999999999
42
0.41421356237309503
10
-281.63799999999998
20
27.337500000000002
0
LWPOLYLINE
5
158
100
AcDbEntity
8
0
100
AcDbPolyline
90
8
70
1
43
0.0
10
-126.85000000000001
20
2.5249999999999999
42
0.41421356237309503
10
-126.34999999999999
20
3.0249999999999999
10
-126.34999999999999
20
16.024999999999999
42
0.41421356237309503
10
-126.85000000000001
20
16.524999999999999
10
-139.84999999999999
20
16.525000000000002
42
0.41421356237309503
10
-140.34999999999999
20
16.024999999999999
10
-140.34999999999999
20
3.0249999999999999
42
0.41421356237309503
10
-139.84999999999999
20
2.5249999999999901
0
LWPOLYLINE
5
159
100
AcDbEntity
8
0
100
AcDbPolyline
90
8
70
1
43
0.0
10
-260.19999999999999
20
26.337499999999999
42
0.41421356237309503
10
-259.69999999999999
20
26.837499999999999
10
-259.69999999999999
20
39.837499999999999
42
0.41421356237309503
10
-260.19999999999999
20
40.337500000000006
10
-273.19999999999999
20
40.337500000000006
42
0.41421356237309503
10
-273.69999999999999
20
39.837499999999999
10
-273.69999999999999
20
26.837499999999999
42
0.41421356237309503
10
-273.19999999999999
20
26.337499999999999
0
LWPOLYLINE
5
160
100
AcDbEntity
8
0
100
AcDbPolyline
90
8
70
1
43
0.0
10
-268.49425000000002
20
84.487499999999983
42
0.41421356237309503
10
-267.99425000000002
20
84.987499999999997
10
-267.99425000000002
20
98.987499999999997
42
0.41421356237309503
10
-268.49425000000002
20
99.487500000000011
10
-274.49425000000008
20
99.487500000000011
42
0.41421356237309503
10
-274.99425000000002
20
98.987499999999997
10
-274.99425000000008
20
84.987499999999997
42
0.41421356237309503
10
-274.49425000000008
20
84.487500000000011
0
LWPOLYLINE
5
161
100
AcDbEntity
8
0
100
AcDbPolyline
90
8
70
1
43
0.0
10
-293.53750000000002
20
26.337499999999999
42
0.41421356237309503
10
-293.03750000000002
20
26.837499999999999
10
-293.03750000000002
20
39.837499999999999
42
0.41421356237309503
10
-293.53750000000002
20
40.337500000000006
10
-306.53750000000002
20
40.337500000000006
42
0.41421356237309503
10
-307.03750000000002
20
39.837499999999999
10
-307.03750000000002
20
26.837499999999999
42
0.41421356237309503
10
-306.53750000000002
20
26.337499999999999
0
LWPOLYLINE
5
162
100
AcDbEntity
8
0
100
AcDbPolyline
90
8
70
1
43
0.0
10
-278.46250000000003
20
103.03750000000001
42
0.41421356237309503
10
-277.96249999999998
20
102.53749999999999
10
-264.96249999999998
20
102.53749999999999
42
0.41421356237309503
10
-264.46249999999998
20
103.03750000000001
10
-264.46249999999998
20
116.03749999999999
42
0.41421356237309503
10
-264.96249999999998
20
116.53750000000001
10
-277.96249999999998
20
116.53750000000001
42
0.41421356237309503
10
-278.46249999999998
20
116.03749999999999
0
LWPOLYLINE
5
163
100
AcDbEntity
8
0
100
AcDbPolyline
90
8
70
1
43
0.0
10
-331.63749999999999
20
102.53749999999999
42
0.41421356237309503
10
-331.13750000000005
20
103.03750000000001
10
-331.13750000000005
20
116.03749999999999
42
0.41421356237309503
10
-331.63749999999999
20
116.53750000000001
10
-344.63749999999999
20
116.53750000000001
42
0.41421356237309503
10
-345.13750000000005
20
116.03749999999999
10
-345.13749999999993
20
103.03750000000001
42
0.41421356237309503
10
-344.63749999999999
20
102.53749999999999
0
LWPOLYLINE
5
164
100
AcDbEntity
8
0
100
AcDbPolyline
90
8
70
1
43
0.0
10
-217.33750000000001
20
102.53749999999999
42
0.41421356237309503
10
-216.83750000000001
20
103.03750000000001
10
-216.83750000000001
20
116.03749999999999
42
0.41421356237309503
10
-217.33750000000001
20
116.53750000000001
10
-230.33750000000001
20
116.53750000000001
42
0.41421356237309503
10
-230.83750000000003
20
116.03749999999999
10
-230.83750000000003
20
103.03750000000001
42
0.41421356237309503
10
-230.33750000000001
20
102.53749999999999
0
LWPOLYLINE
5
165
100
AcDbEntity
8
0
100
AcDbPolyline
90
8
70
1
43
0.0
10
-59.675000000000004
20
16.024999999999999
10
-59.675000000000004
20
3.0249999999999999
42
-0.41421356237309503
10
-60.174999999999997
20
2.5249999999999999
10
-73.174999999999997
20
2.5250000000000017
42
-0.41421356237309503
10
-73.674999999999997
20
3.0249999999999999
10
-73.674999999999997
20
16.024999999999999
42
-0.41421356237309503
10
-73.174999999999997
20
16.525000000000002
10
-60.174999999999997
20
16.524999999999999
42
-0.41421356237309503
0
LWPOLYLINE
5
166
100
AcDbEntity
8
0
100
AcDbPolyline
90
8
70
1
43
0.0
10
-269.72500000000002
20
2.5249999999999999
42
0.41421356237309503
10
-269.22500000000002
20
3.0249999999999999
10
-269.22500000000002
20
16.024999999999999
42
0.41421356237309503
10
-269.72500000000002
20
16.524999999999999
10
-282.72500000000002
20
16.525000000000002
42
0.41421356237309503
10
-283.22500000000002
20
16.024999999999999
10
-283.22500000000002
20
3.0249999999999999
42
0.41421356237309503
10
-282.72500000000002
20
2.5249999999999901
0
LWPOLYLINE
5
167
100
AcDbEntity
8
0
100
AcDbPolyline
90
8
70
1
43
0.0
10
-7.7875000000000005
20
45.387500000000003
42
0.41421356237309503
10
-7.2875000000000023
20
45.887500000000003
10
-7.2874999999999996
20
58.88750000000001
42
0.41421356237309503
10
-7.7875000000000005
20
59.387500000000003
10
-20.787500000000001
20
59.387500000000003
42
0.41421356237309503
10
-21.287500000000001
20
58.88750000000001
10
-21.287500000000001
20
45.887500000000003
42
0.41421356237309503
10
-20.787500000000001
20
45.387500000000003
0
LWPOLYLINE
5
168
100
AcDbEntity
8
0
100
AcDbPolyline
90
8
70
1
43
0.0
10
-3.0249999999999999
20
26.337499999999999
42
0.41421356237309503
10
-2.5250000000000017
20
26.837499999999999
10
-2.5249999999999999
20
39.837499999999999
42
0.41421356237309503
10
-3.0249999999999999
20
40.337500000000006
10
-16.024999999999999
20
40.337500000000006
42
0.41421356237309503
10
-16.524999999999999
20
39.837499999999999
10
-16.525000000000002
20
26.837499999999999
42
0.41421356237309503
10
-16.024999999999999
20
26.337499999999999
0
LWPOLYLINE
5
169
100
AcDbEntity
8
0
100
AcDbPolyline
90
8
70
1
43
0.0
10
-253.05625000000003
20
83.487499999999983
42
0.41421356237309503
10
-252.55625000000003
20
83.987499999999997
10
-252.55625000000003
20
96.987500000000011
42
0.41421356237309503
10
-253.05625000000003
20
97.487500000000011
10
-266.05624999999998
20
97.487500000000011
42
0.41421356237309503
10
-266.55624999999998
20
96.987500000000011
10
-266.55624999999998
20
83.987499999999997
42
0.41421356237309503
10
-266.05624999999998
20
83.487500000000011
0
LWPOLYLINE
5
170
100
AcDbEntity
8
0
100
AcDbPolyline
90
8
70
1
43
0.0
10
-264.96249999999998
20
45.387500000000003
42
0.41421356237309503
10
-264.46249999999998
20
45.887500000000003
10
-264.46249999999998
20
58.88750000000001
42
0.41421356237309503
10
-264.96249999999998
20
59.387500000000003
10
-277.96249999999998
20
59.387500000000003
42
0.41421356237309503
10
-278.46249999999998
20
58.88750000000001
10
-278.46250000000003
20
45.887500000000003
42
0.41421356237309503
10
-277.96249999999998
20
45.387500000000003
0
LWPOLYLINE
5
171
100
AcDbEntity
8
0
100
AcDbPolyline
90
8
70
1
43
0.0
10
-331.63749999999999
20
45.387500000000003
42
0.41421356237309503
10
-331.13750000000005
20
45.887500000000003
10
-331.13750000000005
20
58.88750000000001
42
0.41421356237309503
10
-331.63749999999999
20
59.387500000000003
10
-344.63749999999999
20
59.387500000000003
42
0.41421356237309503
10
-345.13750000000005
20
58.88750000000001
10
-345.13749999999993
20
45.887500000000003
42
0.41421356237309503
10
-344.63749999999999
20
45.387500000000003
0
LWPOLYLINE
5
172
100
AcDbEntity
8
0
100
AcDbPolyline
90
8
70
1
43
0.0
10
-326.08749999999992
20
83.987499999999997
42
0.41421356237309503
10
-325.58749999999998
20
83.487500000000026
10
-312.58749999999998
20
83.487499999999983
42
0.41421356237309503
10
-312.08749999999998
20
83.987499999999997
10
-312.08749999999998
20
96.987500000000011
42
0.41421356237309503
10
-312.58749999999998
20
97.487500000000011
10
-325.58749999999998
20
97.487500000000011
42
0.41421356237309503
10
-326.08749999999998
20
96.987500000000011
0
LWPOLYLINE
5
173
100
AcDbEntity
8
0
100
AcDbPolyline
90
8
70
1
43
0.0
10
-312.58749999999998
20
26.337499999999999
42
0.41421356237309503
10
-312.08749999999998
20
26.837499999999999
10
-312.08749999999998
20
39.837499999999999
42
0.41421356237309503
10
-312.58749999999998
20
40.337500000000006
10
-325.58749999999998
20
40.337500000000006
42
0.41421356237309503
10
-326.08749999999998
20
39.837499999999999
10
-326.08749999999992
20
26.837499999999999
42
0.41421356237309503
10
-325.58749999999998
20
26.337499999999999
0
LWPOLYLINE
5
174
100
AcDbEntity
8
0
100
AcDbPolyline
90
8
70
1
43
0.0
10
-257.81875000000002
20
64.4375
42
0.41421356237309503
10
-257.31875000000002
20
64.9375
10
-257.31875000000002
20
77.9375
42
0.41421356237309503
10
-257.81875000000002
20
78.4375
10
-270.81875000000002
20
78.4375
42
0.41421356237309503
10
-271.31875000000002
20
77.9375
10
-271.31875000000002
20
64.9375
42
0.41421356237309503
10
-270.81875000000002
20
64.4375
0
LWPOLYLINE
5
175
100
AcDbEntity
8
0
100
AcDbPolyline
90
8
70
1
43
0.0
10
-331.63749999999999
20
26.337499999999999
42
0.41421356237309503
10
-331.13750000000005
20
26.837499999999999
10
-331.13750000000005
20
39.837499999999999
42
0.41421356237309503
10
-331.63749999999999
20
40.337500000000006
10
-344.63749999999999
20
40.337500000000006
42
0.41421356237309503
10
-345.13750000000005
20
39.837499999999999
10
-345.13749999999993
20
26.837499999999999
42
0.41421356237309503
10
-344.63749999999999
20
26.337499999999999
0
LWPOLYLINE
5
176
100
AcDbEntity
8
0
100
AcDbPolyline
90
8
70
1
43
0.0
10
-6.4932500000000006
20
84.487499999999983
42
0.41421356237309503
10
-5.9932499999999935
20
84.987499999999997
10
-5.9932499999999997
20
98.987499999999997
42
0.41421356237309503
10
-6.4932500000000006
20
99.487500000000011
10
-12.49325
20
99.487500000000011
42
0.41421356237309503
10
-12.99325
20
98.987499999999997
10
-12.99325
20
84.987499999999997
42
0.41421356237309503
10
-12.49325
20
84.487500000000011
0
LWPOLYLINE
5
177
100
AcDbEntity
8
0
100
AcDbPolyline
90
8
70
1
43
0.0
10
-248.88075000000001
20
76.9375
10
-248.88075000000001
20
62.9375
42
-0.41421356237309503
10
-249.38075000000001
20
62.4375
10
-255.38075000000003
20
62.437499999999993
42
-0.41421356237309503
10
-255.88075000000003
20
62.9375
10
-255.88075000000001
20
76.9375
42
-0.41421356237315227
10
-255.38075000000003
20
77.437500000000071
10
-249.38075000000001
20
77.437500000000014
42
-0.41421356237309503
0
LWPOLYLINE
5
178
100
AcDbEntity
8
0
100
AcDbPolyline
90
8
70
1
43
0.0
10
-41.125
20
2.5249999999999999
42
0.41421356237309503
10
-40.625
20
3.0249999999999999
10
-40.625
20
16.024999999999999
42
0.41421356237309503
10
-41.125
20
16.524999999999999
10
-54.125000000000007
20
16.525000000000002
42
0.41421356237309503
10
-54.625
20
16.024999999999999
10
-54.625
20
3.0249999999999999
42
0.41421356237309503
10
-54.125000000000007
20
2.5249999999999999
0
LWPOLYLINE
5
179
100
AcDbEntity
8
0
100
AcDbPolyline
90
8
70
1
43
0.0
10
-244.61825000000002
20
84.487499999999983
42
0.41421356237309503
10
-244.11824999999999
20
84.987499999999997
10
-244.11824999999999
20
98.987499999999997
42
0.41421356237309503
10
-244.61825000000002
20
99.487500000000011
10
-250.61824999999999
20
99.487500000000011
42
0.41421356237309503
10
-251.11824999999999
20
98.987499999999997
10
-251.11824999999999
20
84.987499999999997
42
0.41421356237309503
10
-250.61824999999999
20
84.487500000000011
0
LWPOLYLINE
5
180
100
AcDbEntity
8
0
100
AcDbPolyline
90
8
70
1
43
0.0
10
-14.93125
20
83.487499999999983
42
0.41421356237309503
10
-14.431249999999993
20
83.987499999999997
10
-14.43125
20
96.987500000000011
42
0.41421356237309503
10
-14.93125
20
97.487500000000011
10
-27.931249999999999
20
97.487500000000011
42
0.41421356237309503
10
-28.431250000000002
20
96.987500000000011
10
-28.431249999999999
20
83.987499999999997
42
0.41421356237309503
10
-27.931249999999999
20
83.487500000000011
0
LWPOLYLINE
5
181
100
AcDbEntity
8
0
100
AcDbPolyline
90
8
70
1
43
0.0
10
-30.369250000000001
20
84.487499999999983
42
0.41421356237309503
10
-29.869249999999994
20
84.987499999999997
10
-29.869250000000001
20
98.987499999999997
42
0.41421356237309503
10
-30.369250000000001
20
99.487500000000011
10
-36.369250000000001
20
99.487500000000011
42
0.41421356237309503
10
-36.869250000000008
20
98.987499999999997
10
-36.869250000000001
20
84.987499999999997
42
0.41421356237309503
10
-36.369250000000001
20
84.487500000000011
0
LWPOLYLINE
5
182
100
AcDbEntity
8
0
100
AcDbPolyline
90
8
70
1
43
0.0
10
-2.5249999999999999
20
16.024999999999999
10
-2.5249999999999999
20
3.0249999999999999
42
-0.41421356237309503
10
-3.0249999999999999
20
2.5249999999999999
10
-16.024999999999999
20
2.5249999999999995
42
-0.41421356237309503
10
-16.525000000000002
20
3.0249999999999999
10
-16.525000000000002
20
16.024999999999999
42
-0.41421356237309503
10
-16.024999999999999
20
16.525000000000002
10
-3.0249999999999999
20
16.525000000000002
42
-0.41421356237309503
0
LWPOLYLINE
5
183
100
AcDbEntity
8
0
100
AcDbPolyline
90
8
70
1
43
0.0
10
-251.762
20
27.337500000000002
42
0.41421356237309503
10
-251.262
20
27.837499999999999
10
-251.262
20
41.837499999999999
42
0.41421356237309503
10
-251.762
20
42.337499999999999
10
-257.76200000000006
20
42.337499999999999
42
0.41421356237309503
10
-258.262
20
41.837499999999999
10
-258.26200000000006
20
27.837499999999999
42
0.41421356237309503
10
-257.76200000000006
20
27.337500000000002
0
LWPOLYLINE
5
184
100
AcDbEntity
8
0
100
AcDbPolyline
90
8
70
1
43
0.0
10
-293.53750000000002
20
45.387500000000003
42
0.41421356237309503
10
-293.03750000000002
20
45.887500000000003
10
-293.03750000000002
20
58.88750000000001
42
0.41421356237309503
10
-293.53750000000002
20
59.387500000000003
10
-306.53750000000002
20
59.387500000000003
42
0.41421356237309503
10
-307.03750000000002
20
58.88750000000001
10
-307.03750000000002
20
45.887500000000003
42
0.41421356237309503
10
-306.53750000000002
20
45.387500000000003
0
LWPOLYLINE
5
185
100
AcDbEntity
8
0
100
AcDbPolyline
90
8
70
1
43
0.0
10
-272.75675000000001
20
76.9375
10
-272.75675000000001
20
62.9375
42
-0.41421356237309503
10
-273.25675000000001
20
62.437499999999986
10
-279.25675000000001
20
62.437499999999993
42
-0.41421356237309503
10
-279.75675000000001
20
62.9375
10
-279.75675000000001
20
76.9375
42
-0.41421356237315227
10
-279.25675000000001
20
77.437500000000071
10
-273.25675000000001
20
77.437500000000014
42
-0.41421356237309503
0
LWPOLYLINE
5
186
100
AcDbEntity
8
0
100
AcDbPolyline
90
8
70
1
43
0.0
10
-145.90000000000001
20
2.5249999999999999
42
0.41421356237309503
10
-145.40000000000001
20
3.0249999999999999
10
-145.40000000000001
20
16.024999999999999
42
0.41421356237309503
10
-145.90000000000001
20
16.524999999999999
10
-158.90000000000001
20
16.525000000000002
42
0.41421356237309503
10
-159.40000000000001
20
16.024999999999999
10
-159.40000000000001
20
3.0249999999999999
42
0.41421356237309503
10
-158.90000000000001
20
2.5249999999999901
0
LWPOLYLINE
5
187
100
AcDbEntity
8
0
100
AcDbPolyline
90
8
70
1
43
0.0
10
-293.53750000000002
20
102.53749999999999
42
0.41421356237309503
10
-293.03750000000002
20
103.03750000000001
10
-293.03750000000002
20
116.03749999999999
42
0.41421356237309503
10
-293.53750000000002
20
116.53750000000001
10
-306.53750000000002
20
116.53750000000001
42
0.41421356237309503
10
-307.03750000000002
20
116.03749999999999
10
-307.03750000000002
20
103.03750000000001
42
0.41421356237309503
10
-306.53750000000002
20
102.53749999999999
0
LWPOLYLINE
5
188
100
AcDbEntity
8
0
100
AcDbPolyline
90
8
70
1
43
0.0
10
-197.50000000000003
20
3.0249999999999999
42
0.41421356237309503
10
-197.00000000000003
20
2.5249999999999928
10
-184.00000000000003
20
2.5249999999999999
42
0.41421356237309503
10
-183.5
20
3.0249999999999999
10
-183.5
20
16.024999999999999
42
0.41421356237309503
10
-184.00000000000003
20
16.524999999999999
10
-197.00000000000003
20
16.525000000000002
42
0.41421356237309503
10
-197.5
20
16.024999999999999
0
LWPOLYLINE
5
189
100
AcDbEntity
8
0
100
AcDbPolyline
90
8
70
1
43
0.0
10
-312.58749999999998
20
45.387500000000003
42
0.41421356237309503
10
-312.08749999999998
20
45.887500000000003
10
-312.08749999999998
20
58.88750000000001
42
0.41421356237309503
10
-312.58749999999998
20
59.387500000000003
10
-325.58749999999998
20
59.387500000000003
42
0.41421356237309503
10
-326.08749999999998
20
58.88750000000001
10
-326.08749999999992
20
45.887500000000003
42
0.41421356237309503
10
-325.58749999999998
20
45.387500000000003
0
LWPOLYLINE
5
190
100
AcDbEntity
8
0
100
AcDbPolyline
90
8
70
1
43
0.0
10
-5.40625
20
64.4375
42
0.41421356237309503
10
-4.9062500000000018
20
64.9375
10
-4.90625
20
77.9375
42
0.41421356237309437
10
-5.4062499999999991
20
78.4375
10
-23.168749999999999
20
78.4375
42
0.41421356237309503
10
-23.668749999999999
20
77.9375
10
-23.668749999999999
20
64.9375
42
0.41421356237309503
10
-23.168749999999999
20
64.4375
0
LWPOLYLINE
5
191
100
AcDbEntity
8
0
100
AcDbPolyline
90
8
70
1
43
0.0
10
-345.13749999999993
20
3.0249999999999999
42
0.41421356237309503
10
-344.63749999999999
20
2.5250000000000279
10
-331.63749999999999
20
2.5249999999999999
42
0.41421356237309503
10
-331.13750000000005
20
3.0249999999999999
10
-331.13750000000005
20
16.024999999999999
42
0.41421356237309503
10
-331.63749999999999
20
16.524999999999999
10
-344.63749999999999
20
16.525000000000002
42
0.41421356237309503
10
-345.13750000000005
20
16.024999999999999
0
LWPOLYLINE
5
192
100
AcDbEntity
8
0
100
AcDbPolyline
90
7
70
1
43
0.0
10
-164.95000000000002
20
2.5249999999999999
10
-178.44999999999999
20
2.5249999999999999
10
-178.44999999999999
20
16.024999999999999
42
-0.41421356237309503
10
-177.94999999999999
20
16.525000000000002
10
-164.95000000000002
20
16.525000000000006
42
-0.41421356237309503
10
-164.44999999999999
20
16.024999999999999
10
-164.44999999999999
20
3.0249999999999999
42
-0.41421356237309503
0
LWPOLYLINE
5
193
100
AcDbEntity
8
0
100
AcDbPolyline
90
8
70
1
43
0.0
10
-245.12500000000003
20
3.0249999999999999
10
-245.12500000000003
20
16.024999999999999
42
-0.41421356237309503
10
-244.62500000000003
20
16.525000000000002
10
-231.625
20
16.525000000000006
42
-0.41421356237309503
10
-231.125
20
16.024999999999999
10
-231.125
20
3.0249999999999999
42
-0.41421356237309503
10
-231.625
20
2.5249999999999999
10
-244.62500000000003
20
2.5249999999999928
42
-0.41421356237309503
0
LWPOLYLINE
5
194
100
AcDbEntity
8
0
100
AcDbPolyline
90
8
70
1
43
0.0
10
-312.58749999999998
20
2.5249999999999999
10
-325.58749999999998
20
2.5250000000000283
42
-0.41421356237309503
10
-326.08749999999992
20
3.0249999999999999
10
-326.08749999999992
20
16.024999999999999
42
-0.41421356237309503
10
-325.58749999999998
20
16.525000000000002
10
-312.58749999999998
20
16.525000000000006
42
-0.41421356237309503
10
-312.08749999999998
20
16.024999999999999
10
-312.08749999999998
20
3.0249999999999999
42
-0.41421356237309503
0
LWPOLYLINE
5
195
100
AcDbEntity
8
0
100
AcDbPolyline
90
8
70
1
43
0.0
10
-325.58749999999998
20
116.53750000000001
10
-312.58749999999998
20
116.53750000000001
42
-0.41421356237309503
10
-312.08749999999998
20
116.03749999999999
10
-312.08749999999998
20
103.03750000000001
42
-0.41421356237309503
10
-312.58749999999998
20
102.53749999999999
10
-325.58749999999998
20
102.53750000000004
42
-0.41421356237309503
10
-326.08749999999992
20
103.03750000000001
10
-326.08749999999998
20
116.03749999999999
42
-0.41421356237309503
0
LWPOLYLINE
5
196
100
AcDbEntity
8
0
100
AcDbPolyline
90
8
70
1
43
0.0
10
-92.724999999999994
20
3.0249999999999999
10
-92.725000000000009
20
16.024999999999999
42
-0.41421356237309503
10
-92.224999999999994
20
16.525000000000002
10
-79.224999999999994
20
16.524999999999999
42
-0.41421356237309503
10
-78.724999999999994
20
16.024999999999999
10
-78.724999999999994
20
3.0249999999999999
42
-0.41421356237309503
10
-79.224999999999994
20
2.5249999999999999
10
-92.224999999999994
20
2.5250000000000106
42
-0.41421356237309503
0
LWPOLYLINE
5
197
100
AcDbEntity
8
0
100
AcDbPolyline
90
8
70
1
43
0.0
10
-250.67500000000001
20
2.5249999999999999
10
-263.67500000000001
20
2.5249999999999928
42
-0.41421356237309503
10
-264.17500000000007
20
3.0249999999999999
10
-264.17500000000007
20
16.024999999999999
42
-0.41421356237309503
10
-263.67500000000001
20
16.525000000000002
10
-250.67500000000001
20
16.525000000000006
42
-0.41421356237309503
10
-250.17500000000001
20
16.024999999999999
10
-250.17500000000001
20
3.0249999999999999
42
-0.41421356237309503
0
LWPOLYLINE
5
198
100
AcDbEntity
8
0
100
AcDbPolyline
90
8
70
1
43
0.0
10
-98.275000000000006
20
2.5249999999999999
10
-111.27500000000001
20
2.5249999999999928
42
-0.41421356237309503
10
-111.77500000000002
20
3.0249999999999999
10
-111.77500000000002
20
16.024999999999999
42
-0.41421356237309503
10
-111.27500000000001
20
16.525000000000002
10
-98.275000000000006
20
16.525000000000006
42
-0.41421356237309503
10
-97.775000000000006
20
16.024999999999999
10
-97.775000000000006
20
3.0249999999999999
42
-0.41421356237309503
0
LWPOLYLINE
5
199
100
AcDbEntity
8
0
100
AcDbPolyline
90
8
70
1
43
0.0
10
-300.459885760117
20
18.524999999999999
10
-334.63749999999999
20
18.525000000000013
42
-0.41421356237309503
10
-336.13749999999993
20
20.024999999999999
10
-336.13749999999993
20
22.837499999999999
42
-0.41421356237309503
10
-334.63749999999999
20
24.337499999999999
10
-300.459885760117
20
24.337499999999984
42
-0.41421356237309503
10
-298.959885760117
20
22.837499999999999
10
-298.959885760117
20
20.024999999999999
42
-0.41421356237309503
0
LWPOLYLINE
5
200
100
AcDbEntity
8
0
100
AcDbPolyline
90
8
70
1
43
0.0
10
-54.000510760117209
20
18.524999999999999
10
-87.976021520234411
20
18.524999999999995
42
-0.41421356237309503
10
-89.476021520234411
20
20.024999999999999
10
-89.476021520234411
20
22.837499999999999
42
-0.41421356237309503
10
-87.976021520234411
20
24.337499999999999
10
-54.000510760117209
20
24.337500000000002
42
-0.41421356237309503
10
-52.500510760117209
20
22.837499999999999
10
-52.500510760117209
20
20.024999999999999
42
-0.41421356237309503
0
LWPOLYLINE
5
201
100
AcDbEntity
8
0
100
AcDbPolyline
90
8
70
1
43
0.0
10
-142.82561291214103
20
24.337499999999999
10
-94.976021520234397
20
24.337500000000002
42
-0.41421356237309503
10
-93.476021520234397
20
22.837499999999999
10
-93.476021520234397
20
20.024999999999999
42
-0.41421356237309503
10
-94.976021520234397
20
18.524999999999999
10
-142.82561291214103
20
18.524999999999995
42
-0.41421356237309503
10
-144.32561291214103
20
20.024999999999999
10
-144.32561291214103
20
22.837499999999999
42
-0.41421356237309503
0
LWPOLYLINE
5
202
100
AcDbEntity
8
0
100
AcDbPolyline
90
8
70
1
43
0.0
10
-197.59436291214101
20
24.337499999999999
10
-149.825612912141
20
24.337500000000002
42
-0.41421356237309503
10
-148.325612912141
20
22.837499999999999
10
-148.325612912141
20
20.024999999999999
42
-0.41421356237309503
10
-149.825612912141
20
18.524999999999999
10
-197.59436291214101
20
18.525000000000013
42
-0.41421356237309503
10
-199.09436291214098
20
20.024999999999999
10
-199.09436291214098
20
22.837499999999999
42
-0.41421356237309503
0
LWPOLYLINE
5
203
100
AcDbEntity
8
0
100
AcDbPolyline
90
8
70
1
43
0.0
10
-252.28227152023402
20
24.337499999999999
10
-204.59436291214104
20
24.337499999999984
42
-0.41421356237309503
10
-203.09436291214104
20
22.837499999999999
10
-203.09436291214104
20
20.024999999999999
42
-0.41421356237309503
10
-204.59436291214104
20
18.524999999999999
10
-252.28227152023402
20
18.525000000000013
42
-0.41421356237309503
10
-253.78227152023399
20
20.024999999999999
10
-253.78227152023399
20
22.837499999999999
42
-0.41421356237309503
0
LWPOLYLINE
5
204
100
AcDbEntity
8
0
100
AcDbPolyline
90
8
70
1
43
0.0
10
-293.459885760117
20
24.337499999999999
10
-259.28227152023402
20
24.337499999999984
42
-0.41421356237309503
10
-257.78227152023408
20
22.837499999999999
10
-257.78227152023408
20
20.024999999999999
42
-0.41421356237309503
10
-259.28227152023402
20
18.524999999999999
10
-293.459885760117
20
18.525000000000013
42
-0.41421356237309503
10
-294.959885760117
20
20.024999999999999
10
-294.959885760117
20
22.837499999999999
42
-0.41421356237309503
0
LWPOLYLINE
5
205
100
AcDbEntity
8
0
100
AcDbPolyline
90
8
70
1
43
0.0
10
-47.000510760117102
20
24.337499999999999
10
-13.024999999999904
20
24.337499999999999
42
-0.41421356237309548
10
-11.524999999999903
20
22.837499999999999
10
-11.524999999999903
20
20.024999999999999
42
-0.41421356237309503
10
-13.024999999999903
20
18.524999999999999
10
-47.000510760117102
20
18.524999999999995
42
-0.41421356237311585
10
-48.500510760117209
20
20.024999999999999
10
-48.500510760117095
20
22.837499999999999
42
-0.41421356237309503
0
LWPOLYLINE
5
206
100
AcDbEntity
8
0
100
AcDbPolyline
90
20
70
1
43
0.0
10
-133.875
20
108.40600000000101
42
0.41421356237309503
10
-132.375
20
106.90600000000101
10
-104.67155583498402
20
106.90600000000003
42
-0.10951781168323267
10
-104.03762844237301
20
106.76546168055502
10
-100.35138539864693
20
105.04653831944516
42
0.10951781168329298
10
-99.717458006035599
20
104.90600000000001
10
-96.550000000000011
20
104.90600000000001
42
0.41421356237309503
10
-95.049999999999898
20
106.40600000000001
10
-95.049999999999898
20
111.16849999999999
42
0.41421356237309503
10
-96.549999999999898
20
112.66849999999999
10
-109.95192378864601
20
112.66850000000021
42
-0.2679491924309077
10
-111.25096189432188
20
113.41849999999907
42
0.57735026918997134
10
-113.84903810567567
20
113.41849999999943
42
-0.26794919243100246
10
-115.14807621135202
20
112.66849999999999
10
-116.57295108552502
20
112.66849999999999
42
-0.10951781168323009
10
-117.20687847813601
20
112.80903831944499
10
-118.74861460135173
20
113.52796168055457
42
0.10951781168330507
10
-119.382541993963
20
113.668499999999
10
-132.375
20
113.66850000000001
42
0.41421356237309503
10
-133.875
20
112.16850000000001
0
LWPOLYLINE
5
207
100
AcDbEntity
8
0
100
AcDbPolyline
90
8
70
1
43
0.0
10
-43.387499999999903
20
84.987499999999997
10
-43.38749999999991
20
95.987500000000011
42
-0.41421356237309503
10
-41.88749999999991
20
97.487500000000011
10
-40.369249999999901
20
97.487500000000011
42
-0.41421356237309503
10
-38.869249999999901
20
95.987500000000011
10
-38.869249999999901
20
84.987499999999997
42
-0.41421356237309503
10
-40.369249999999901
20
83.487499999999983
10
-41.88749999999991
20
83.487499999999983
42
-0.41421356237309503
0
LWPOLYLINE
5
208
100
AcDbEntity
8
0
100
AcDbPolyline
90
4
70
1
43
0.0
10
-262.46249999999998
20
45.387500000000003
10
-262.46249999999998
20
59.387500000000003
10
-256.64999999999998
20
59.387500000000003
10
-256.64999999999998
20
45.387500000000003
0
LWPOLYLINE
5
209
100
AcDbEntity
8
0
100
AcDbPolyline
90
12
70
1
43
0.0
10
-284.35892739261101
20
99.891356289343705
42
0.29147341958609563
10
-285.22500000000002
20
98.531894608788718
10
-285.22500000000002
20
89.970833333333417
42
-0.41421356237309503
10
-286.72500000000002
20
88.470833333333417
10
-289.53750000000002
20
88.470833333333431
42
-0.41421356237309503
10
-291.03750000000002
20
89.970833333333417
10
-291.03750000000002
20
115.03749999999999
42
-0.41421356237309503
10
-289.53750000000002
20
116.53750000000001
10
-281.96249999999998
20
116.53749999999999
42
-0.41421356237309503
10
-280.46249999999998
20
115.03749999999999
10
-280.46249999999998
20
102.66389561317402
42
-0.29147341958610284
10
-281.32857260738899
20
101.30443393261901
0
LWPOLYLINE
5
210
100
AcDbEntity
8
0
100
AcDbPolyline
90
11
70
1
43
0.0
10
-285.20629665355625
20
83.206969362272247
42
0.24906195553160043
10
-284.35892739261101
20
82.083643710656304
10
-282.62282260738903
20
81.27408475394779
42
-0.29147341958609635
10
-281.75675000000007
20
79.914623073392804
10
-281.75675000000007
20
59.904166666666697
42
-0.41421356237309503
10
-283.25675000000001
20
58.404166666666697
10
-289.53750000000002
20
58.404166666666711
42
-0.41421356237309503
10
-291.03750000000002
20
59.904166666666697
10
-291.03750000000002
20
82.970833333333317
42
-0.41421356237309503
10
-289.53750000000002
20
84.470833333333317
10
-286.68759330711202
20
84.470833333332877
42
-0.36863491880385424
0
LWPOLYLINE
5
211
100
AcDbEntity
8
0
100
AcDbPolyline
90
12
70
1
43
0.0
10
-284.35892739261101
20
44.741356289343699
42
0.29147341958609629
10
-285.22500000000002
20
43.381894608788699
10
-285.22500000000002
20
27.837499999999999
42
-0.41421356237309503
10
-286.72500000000002
20
26.337499999999999
10
-289.53750000000002
20
26.337500000000013
42
-0.41421356237309503
10
-291.03750000000002
20
27.837499999999999
10
-291.03750000000002
20
52.904166666666697
42
-0.41421356237309503
10
-289.53750000000002
20
54.404166666666704
10
-283.25675000000098
20
54.404166666666683
42
-0.41421356237311413
10
-281.75675000000103
20
52.904166666666598
10
-281.75675000000098
20
46.910376926606709
42
-0.29147341958607864
10
-282.62282260738999
20
45.550915246051808
0
LWPOLYLINE
5
212
100
AcDbEntity
8
0
100
AcDbPolyline
90
8
70
1
43
0.0
10
-113.77500000000001
20
15.025000000000002
10
-113.77500000000001
20
7.5249999999999808
42
-0.41421356237309698
10
-115.27500000000002
20
6.0249999999999702
10
-122.84999999999999
20
6.0249999999999666
42
-0.41421356237309503
10
-124.35000000000001
20
7.5249999999999702
10
-124.35000000000001
20
15.025000000000002
42
-0.41421356237309503
10
-122.84999999999999
20
16.525000000000002
10
-115.27500000000002
20
16.525000000000006
42
-0.41421356237309503
0
LWPOLYLINE
5
213
100
AcDbEntity
8
0
100
AcDbPolyline
90
20
70
1
43
0.0
10
-153.375
20
106.90600000000101
10
-181.07844416501604
20
106.90600000000002
42
0.10951781168322677
10
-181.71237155762722
20
106.76546168055549
10
-185.39861460135299
20
105.04653831944502
42
-0.10951781168323391
10
-186.032541993964
20
104.90600000000001
10
-189.19999999999999
20
104.90600000000002
42
-0.41421356237309503
10
-190.69999999999996
20
106.40600000000001
10
-190.69999999999959
20
111.16849999999999
42
-0.41421356237309503
10
-189.19999999999999
20
112.66849999999961
10
-175.79807621135399
20
112.66849999999999
42
0.26794919243099796
10
-174.49903810567793
20
113.41849999999954
42
-0.57735026918996601
10
-171.90096189432387
20
113.4184999999991
42
0.2679491924309132
10
-170.60192378864801
20
112.66850000000026
10
-169.17704891447499
20
112.66849999999999
42
0.10951781168322726
10
-168.54312152186401
20
112.80903831944499
10
-167.00138539864832
20
113.5279616805546
42
-0.10951781168330492
10
-166.36745800603703
20
113.66849999999974
10
-153.375
20
113.66849999999802
42
-0.41421356237309503
10
-151.875
20
112.16849999999802
10
-151.875
20
108.40600000000101
42
-0.41421356237309503
0
LWPOLYLINE
5
214
100
AcDbEntity
8
0
100
AcDbPolyline
90
4
70
1
43
0.0
10
-204.20172564111903
20
122.77952693634401
10
-204.20172564111903
20
121.22952693634406
42
-0.99999999999999989
10
-207.30172564111905
20
121.22952693634396
10
-207.30172564111905
20
122.77952693634401
42
-0.99999999999999989
0
LWPOLYLINE
5
215
100
AcDbEntity
8
0
100
AcDbPolyline
90
4
70
1
43
0.0
10
-41.976873620295009
20
122.77952693634401
10
-41.976873620294981
20
121.22952693634406
42
-0.99999999999999989
10
-45.076873620295004
20
121.22952693634396
10
-45.076873620294997
20
122.77952693634401
42
-0.99999999999999989
0
LWPOLYLINE
5
216
100
AcDbEntity
8
0
100
AcDbPolyline
90
4
70
1
43
0.0
10
-303.96875
20
-3.4849730636555503
10
-303.96875
20
-1.9349730636555003
42
-0.99999999999999989
10
-300.86874999999998
20
-1.9349730636555003
10
-300.86874999999998
20
-3.4849730636554503
42
-0.99999999999999989
0
LWPOLYLINE
5
217
100
AcDbEntity
8
0
100
AcDbPolyline
90
8
70
1
43
0.0
10
-210.07499999999999
20
7.5249999999999808
10
-210.07499999999999
20
15.025000000000002
42
-0.41421356237309503
10
-208.57500000000002
20
16.525000000000002
10
-201
20
16.524999999999988
42
-0.41421356237309503
10
-199.50000000000003
20
15.025000000000002
10
-199.50000000000003
20
7.5249999999999702
42
-0.41421356237309309
10
-201
20
6.0249999999999808
10
-208.57500000000002
20
6.024999999999995
42
-0.41421356237309503
0
LWPOLYLINE
5
218
100
AcDbEntity
8
0
100
AcDbPolyline
90
8
70
1
43
0.0
10
-285.22500000000002
20
15.025000000000002
10
-285.22500000000002
20
7.5249999999999702
42
-0.41421356237309503
10
-286.72500000000002
20
6.0249999999999702
10
-289.53750000000002
20
6.0249999999999844
42
-0.41421356237309503
10
-291.03750000000002
20
7.5249999999999702
10
-291.03750000000002
20
15.025000000000002
42
-0.41421356237309503
10
-289.53750000000002
20
16.525000000000002
10
-286.72500000000002
20
16.524999999999988
42
-0.41421356237309503
0
LWPOLYLINE
5
219
100
AcDbEntity
8
0
100
AcDbPolyline
90
10
70
1
43
0.0
10
-19.391072607388899
20
9.1211437106562396
10
-25.729388823136709
20
6.1655383194450248
42
-0.10951781168324964
10
-26.363316215747801
20
6.0249999999999808
10
-37.124999999999901
20
6.0249999999999817
42
-0.41421356237309503
10
-38.624999999999901
20
7.5249999999999808
10
-38.624999999999901
20
15.025000000000002
42
-0.41421356237309503
10
-37.124999999999901
20
16.525000000000002
10
-20.024999999999903
20
16.525000000000002
42
-0.41421356237309503
10
-18.524999999999903
20
15.025000000000002
10
-18.524999999999935
20
10.480605391211199
42
-0.29147341958609407
0
LWPOLYLINE
5
220
100
AcDbEntity
8
0
100
AcDbPolyline
90
8
70
1
43
0.0
10
-149.875
20
103.03750000000001
10
-149.875
20
116.03749999999999
42
-0.41421356237309503
10
-149.375
20
116.53750000000001
10
-136.375
20
116.53750000000001
42
-0.41421356237309503
10
-135.875
20
116.03749999999999
10
-135.875
20
103.03750000000001
42
-0.41421356237309503
10
-136.375
20
102.53749999999999
10
-149.375
20
102.53749999999999
42
-0.41421356237309503
0
LWPOLYLINE
5
221
100
AcDbEntity
8
0
100
AcDbPolyline
90
8
70
1
43
0.0
10
-88.725000000000009
20
115.53750000000001
10
-82.724999999999994
20
115.53750000000001
42
-0.41421356237309503
10
-82.22499999999998
20
115.03749999999999
10
-82.22499999999998
20
100.9115
42
-0.41421356237309503
10
-82.724999999999994
20
100.4115
10
-88.725000000000009
20
100.4115
42
-0.41421356237309503
10
-89.225000000000009
20
100.9115
10
-89.225000000000009
20
115.03749999999999
42
-0.41421356237309503
0
LWPOLYLINE
5
222
100
AcDbEntity
8
0
100
AcDbPolyline
90
8
70
1
43
0.0
10
-203.02500000000003
20
115.53750000000001
10
-197.02500000000001
20
115.53749999999997
42
-0.41421356237309503
10
-196.52500000000003
20
115.03749999999999
10
-196.52500000000001
20
100.9115
42
-0.41421356237309503
10
-197.02500000000001
20
100.4115
10
-203.02500000000003
20
100.4115
42
-0.41421356237309503
10
-203.52500000000003
20
100.9115
10
-203.52500000000003
20
115.03749999999999
42
-0.41421356237309503
0
LWPOLYLINE
5
223
100
AcDbEntity
8
0
100
AcDbPolyline
90
8
70
1
43
0.0
10
-205.52500000000003
20
110.53750000000001
10
-205.52500000000003
20
104.03750000000001
42
-0.41421356237309503
10
-207.02500000000001
20
102.53749999999999
10
-213.33750000000003
20
102.53750000000002
42
-0.41421356237309503
10
-214.83750000000001
20
104.03750000000001
10
-214.83750000000001
20
110.53750000000001
42
-0.41421356237309503
10
-213.33750000000003
20
112.03750000000001
10
-207.02500000000001
20
112.03749999999999
42
-0.41421356237309503
0
LWPOLYLINE
5
224
100
AcDbEntity
8
0
100
AcDbPolyline
90
8
70
1
43
0.0
10
-70.912499999999895
20
110.53750000000001
10
-70.912499999999895
20
104.03750000000001
42
-0.41421356237309503
10
-72.412499999999909
20
102.53749999999999
10
-78.724999999999895
20
102.53749999999999
42
-0.41421356237309503
10
-80.224999999999909
20
104.03750000000001
10
-80.224999999999909
20
110.53750000000001
42
-0.41421356237307599
10
-78.724999999999994
20
112.03750000000001
10
-72.412499999999909
20
112.03750000000001
42
-0.41421356237309503
0
LWPOLYLINE
5
225
100
AcDbEntity
8
0
100
AcDbPolyline
90
8
70
1
43
0.0
10
-54.912500000000009
20
116.03749999999999
10
-54.912500000000001
20
103.03750000000001
42
-0.41421356237309503
10
-55.412500000000009
20
102.53749999999999
10
-68.412499999999994
20
102.53749999999999
42
-0.41421356237309503
10
-68.912499999999994
20
103.03750000000001
10
-68.912500000000009
20
116.03749999999999
42
-0.41421356237309503
10
-68.412499999999994
20
116.53750000000001
10
-55.412500000000009
20
116.53749999999999
42
-0.41421356237309503
0
LWPOLYLINE
5
226
100
AcDbEntity
8
0
100
AcDbPolyline
90
16
70
1
43
0.0
10
-35.988461894322811
20
114.90882034355923
42
0.57735026918999666
10
-38.586538105676709
20
114.90882034355919
42
-0.26794919243095378
10
-39.885576211352898
20
114.15882034356001
10
-51.412499999999909
20
114.15882034356001
42
0.41421356237309503
10
-52.912499999999909
20
112.65882034356
10
-52.912499999999909
20
104.03750000000001
42
0.41421356237309503
10
-51.412499999999909
20
102.53749999999999
10
-24.787499999999902
20
102.53749999999999
42
0.41421356237309503
10
-23.287499999999902
20
104.03750000000001
10
-23.287499999999902
20
113.65882034356
42
0.41421356237311502
10
-24.787500000000001
20
115.15882034356
10
-30.454958006035898
20
115.15882034355974
42
0.10951781168328727
10
-31.088885398646799
20
115.01828202411401
10
-32.630621521862906
20
114.29935866300499
42
-0.10951781168323189
10
-33.264548914473899
20
114.15882034356001
10
-34.689423788646899
20
114.15882034356028
42
-0.26794919243093601
0
LWPOLYLINE
5
227
100
AcDbEntity
8
0
100
AcDbPolyline
90
8
70
1
43
0.0
10
-7.2874999999999996
20
116.03749999999999
10
-7.2874999999999934
20
103.03750000000001
42
-0.41421356237309503
10
-7.7875000000000005
20
102.53749999999999
10
-20.787500000000001
20
102.53749999999999
42
-0.41421356237309503
10
-21.287500000000001
20
103.03750000000001
10
-21.287500000000009
20
116.03749999999999
42
-0.41421356237309503
10
-20.787500000000001
20
116.53750000000001
10
-7.7875000000000005
20
116.53750000000001
42
-0.41421356237309503
0
LWPOLYLINE
5
228
100
AcDbEntity
8
0
100
AcDbPolyline
90
8
70
1
43
0.0
10
-1.7749999999999202
20
115.03749999999999
42
0.41421356237309503
10
-3.2749999999999204
20
116.53750000000001
10
-3.7874999999999304
20
116.53750000000001
42
0.41421356237309503
10
-5.2874999999999108
20
115.03749999999999
10
-5.2874999999999304
20
104.03750000000001
42
0.41421356237309503
10
-3.7874999999999304
20
102.53749999999999
10
-3.2749999999999302
20
102.53749999999999
42
0.41421356237309698
10
-1.77499999999992
20
104.03750000000001
0
LWPOLYLINE
5
229
100
AcDbEntity
8
0
100
AcDbPolyline
90
148
70
1
43
0.0
10
0.225000000000007
20
96.067063914730895
10
0.22500000000000686
20
116.66350000000001
42
0.41421356237309503
10
-1.7749999999999799
20
118.6635
10
-21.048734044648501
20
118.66349999999997
42
-0.41883519235167138
10
-24.048361797494337
20
121.710758272898
42
0.10393843603339657
10
-24.389904559679337
20
123.47355099532699
42
0.30176020665567227
10
-24.850724117137105
20
123.77952693634413
10
-25.953026993063403
20
123.779526936344
42
0.58534813359981752
10
-26.379938865833882
20
123.01924583275246
42
-1.7808853585089761
10
-30.446701365852974
20
123.01924583275206
42
0.58534813359995597
10
-30.873613238623999
20
123.77952693634391
10
-39.054737665295491
20
123.779526936344
42
-0.213421765283383
10
-41.290805642795249
20
124.77952693634396
42
0.44721359549996009
10
-45.762941597794807
20
124.779526936344
42
-0.21342176528338833
10
-47.9990095752946
20
123.779526936344
10
-94.280134001966019
20
123.779526936344
42
0.58534813359985716
10
-94.707045874737062
20
123.01924583275203
42
-1.780885358508953
10
-98.773808374755546
20
123.01924583275203
42
0.58534813359977955
10
-99.200720247526505
20
123.77952693634397
10
-100.303023123453
20
123.779526936344
42
0.30176020665578313
10
-100.7638426809109
20
123.47355099532695
42
0.10393843603338013
10
-101.105385443096
20
121.710758272898
42
-0.41883519235167088
10
-104.10501319594202
20
118.6634999999998
10
-160.17257287525399
20
118.66350000000003
42
-0.19891236737965962
10
-161.5867864376271
20
119.24928643762692
10
-165.82413371753103
20
123.48663371753102
42
0.19891236737947518
10
-166.53124049871704
20
123.77952693634387
10
-186.54927975247401
20
123.779526936344
42
0.58534813359988391
10
-186.97619162524492
20
123.01924583275208
42
-1.7808853585090438
10
-191.04295412526309
20
123.01924583275206
42
0.58534813359989046
10
-191.46986599803401
20
123.77952693634373
10
-201.27958968612103
20
123.77952693634499
42
-0.21342176528325241
10
-203.51565766361944
20
124.77952693634458
42
0.44721359549984974
10
-207.98779361861816
20
124.7795269363441
42
-0.21342176528339923
10
-210.22386159611801
20
123.779526936344
10
-211.48790525178001
20
123.779526936344
42
0.19891236737947196
10
-212.19501203296596
20
123.48663371753096
10
-216.43235931286995
20
119.24928643762695
42
-0.19891236737965801
10
-217.846572875243
20
118.66350000000004
10
-235.52241392880504
20
118.6635
42
-0.41883519235167149
10
-238.52204168165085
20
121.710758272898
42
0.10393843603339636
10
-238.86358444383572
20
123.47355099532713
42
0.3017602066555698
10
-239.32440400129303
20
123.77952693634359
10
-240.42670687722
20
123.779526936344
42
0.58534813359988147
10
-240.85361874999097
20
123.01924583275203
42
-1.7808853585090456
10
-244.92038125000906
20
123.01924583275203
42
0.58534813359988835
10
-245.34729312278003
20
123.77952693634371
10
-295.565114045001
20
123.779526936344
42
-0.21342176528333912
10
-297.80118202250043
20
124.77952693634359
42
0.4472135954999954
10
-302.2733179775002
20
124.77952693634408
42
-0.21342176528339879
10
-304.50938595500008
20
123.779526936344
10
-316.62720687722003
20
123.779526936344
42
0.58534813359988147
10
-317.05411874999106
20
123.01924583275202
42
-1.7808853585090512
10
-321.12088125000895
20
123.01924583275198
42
0.58534813359988147
10
-321.54779312278004
20
123.77952693634384
10
-322.650095998707
20
123.779526936344
42
0.30176020665579911
10
-323.11091555616508
20
123.47355099532699
42
0.10393843603337029
10
-323.45245831834961
20
121.710758272898
42
-0.41883519235167271
10
-326.45208607119508
20
118.66350000000033
10
-345.88749999999999
20
118.6635
42
0.41421356237309503
10
-347.88749999999999
20
116.66350000000001
10
-347.88749999999999
20
102.53749999999999
42
0.16227766016838008
10
-346.88750000000005
20
99.537499999999966
42
-0.16227766016838363
10
-345.88749999999999
20
96.537499999999895
10
-345.88749999999999
20
63.38750000000001
42
-0.16227766016838011
10
-346.88749999999999
20
60.387500000000003
42
0.16227766016838369
10
-347.88749999999999
20
57.387499999999903
10
-347.88749999999999
20
25.837500000000002
42
0.41421356237309503
10
-346.38750000000005
20
24.337500000000002
10
-341.63749999999999
20
24.337499999999984
42
-0.41421356237309503
10
-340.13750000000005
20
22.837499999999999
10
-340.13750000000005
20
20.024999999999999
42
-0.41421356237309503
10
-341.63749999999999
20
18.524999999999999
10
-346.38750000000005
20
18.524999999999999
42
0.41421356237309503
10
-347.88749999999999
20
17.024999999999999
10
-347.88749999999999
20
2.399
42
0.41421356237309503
10
-345.88749999999999
20
0.39899999999999991
10
-326.45208607119508
20
0.39900000000014479
42
-0.40960698661907902
10
-323.45245831834916
20
-2.5537417271015523
42
0.095982986364177111
10
-323.11091555616451
20
-4.1789971226392373
42
0.30176020665530595
10
-322.650095998707
20
-4.4849730636550715
10
-321.54779312278004
20
-4.4849730636556
42
0.58534813359981619
10
-321.12088125000759
20
-3.7246919600627653
42
-1.7808853585093356
10
-317.05411874999106
20
-3.7246919600637094
42
0.58534813359980931
10
-316.62720687722003
20
-4.4849730636553637
10
-306.89088595499999
20
-4.4849730636553895
42
-0.21342176528340365
10
-304.6548179775001
20
-5.4849730636555201
42
0.44721359549999296
10
-300.1826820225005
20
-5.4849730636550378
42
-0.21342176528334236
10
-297.94661404500107
20
-4.4849730636554312
10
-250.11029312278001
20
-4.48497306365564
42
0.58534813359985927
10
-249.68338125000906
20
-3.7246919600636588
42
-1.7808853585091624
10
-245.61661874999103
20
-3.7246919600637485
42
0.58534813359979954
10
-245.18970687722003
20
-4.4849730636553637
10
-244.08740400129304
20
-4.4849730636556711
42
0.30176020665548053
10
-243.62658444383521
20
-4.1789971226391103
42
0.095982986364184245
10
-243.28504168165043
20
-2.5537417271015843
42
-0.40960698661911926
10
-240.28541392880501
20
0.39900000000002989
10
-212.07449612911702
20
0.39900000000007485
42
-0.40960698661907591
10
-209.07486837627113
20
-2.553741727101591
42
0.095982986364196166
10
-208.73332561408628
20
-4.1789971226391192
42
0.30176020665539588
10
-208.272506056629
20
-4.4849730636552829
10
-207.170203180702
20
-4.48497306365564
42
0.58534813359984716
10
-206.74329130793097
20
-3.7246919600636397
42
-1.7808853584939495
10
-202.67652880789507
20
-3.7246919600341419
42
0.58534813359478799
10
-202.24961693512
20
-4.4849730636195897
10
-188.164134019562
20
-4.4849730636313829
42
-0.21342176528337778
10
-185.92806604206331
20
-5.484973063633543
42
0.44721359549992129
10
-181.45593008706408
20
-5.4849730636369456
42
-0.21342176528342002
10
-179.21986210956302
20
-4.4849730636388996
10
-159.30950000000001
20
-4.48497306365564
42
0.41421356237309503
10
-157.30950000000007
20
-2.4849730636556799
10
-157.30950000000001
20
-1.6009999999998605
42
-0.41421356237308482
10
-155.30950000000001
20
0.39900000000005986
10
-102.61458607119501
20
0.39900000000002322
42
-0.4096069866190864
10
-99.614958318349252
20
-2.5537417271015905
42
0.095982986364170214
10
-99.27341555616421
20
-4.1789971226388154
42
0.30176020665556957
10
-98.812595998706598
20
-4.4849730636556231
10
-97.710293122780314
20
-4.48497306365564
42
0.5853481335996592
10
-97.283381250008432
20
-3.7246919600633288
42
-1.7808853585092532
10
-93.216618749990886
20
-3.7246919600638146
42
0.58534813359972249
10
-92.789706877219714
20
-4.4849730636556773
10
-47.253796012921498
20
-4.4849730636556604
42
-0.21342176528338974
10
-45.017728035421698
20
-5.4849730636556711
42
0.44721359549996004
10
-40.545592080422104
20
-5.4849730636556568
42
-0.21342176528338927
10
-38.309524102922303
20
-4.4849730636556497
10
-30.873613238623999
20
-4.48497306365564
42
0.58534813359985782
10
-30.446701365852814
20
-3.7246919600637862
42
-1.7808853585090993
10
-26.379938865834593
20
-3.7246919600637862
42
0.5853481335997569
10
-25.953026993063403
20
-4.4849730636557048
10
-24.850724117137105
20
-4.4849730636556711
42
0.30176020665550951
10
-24.389904559679433
20
-4.1789971226389291
42
0.095982986364186576
10
-24.048361797494337
20
-2.5537417271015905
42
-0.40960698661907963
10
-21.048734044648501
20
0.39900000000004043
10
-1.7749999999999799
20
0.3990000000000099
42
0.41421356237309503
10
0.22500000000002018
20
2.3990000000000098
10
0.22500000000000686
20
17.024999999999999
42
0.41421356237309742
10
-1.2749999999999999
20
18.524999999999999
10
-6.02499999999994
20
18.524999999999999
42
-0.41421356237309309
10
-7.5249999999999311
20
20.024999999999999
10
-7.5249999999999293
20
22.837499999999999
42
-0.41421356237309309
10
-6.02499999999994
20
24.337499999999999
10
-1.2749999999999799
20
24.337499999999999
42
0.41421356237309309
10
0.22500000000001019
20
25.837500000000002
10
0.22500000000000686
20
40.332372996293408
42
0.16265337867534502
10
-0.77939696347026566
20
43.338226681101482
42
-0.16208942175082058
10
-1.7837818502358938
20
46.333090966470898
10
-1.8795788835346716
20
89.919095120275102
42
-0.16726770377283143
10
-0.8272954801196053
20
92.998574217222384
42
0.16670291186133587
0
LWPOLYLINE
5
230
100
AcDbEntity
8
0
100
AcDbPolyline
90
4
70
1
43
0.0
10
-41.231660057921893
20
-1.9349730636556699
10
-41.231660057921893
20
-3.4849730636556204
42
-0.99999999999999989
10
-44.331660057921894
20
-3.4849730636557203
10
-44.331660057921894
20
-1.9349730636556699
42
-0.99999999999999989
0
LWPOLYLINE
5
231
100
AcDbEntity
8
0
100
AcDbPolyline
90
4
70
1
43
0.0
10
-182.14199806456202
20
-1.9349730636351397
10
-182.14199806456202
20
-3.4849730636350893
42
-0.99999999999999989
10
-185.24199806456204
20
-3.4849730636351905
10
-185.24199806456204
20
-1.9349730636351397
42
-0.99999999999999989
0
LWPOLYLINE
5
232
100
AcDbEntity
8
0
100
AcDbPolyline
90
4
70
1
43
0.0
10
-301.58724999999998
20
121.22952693634396
10
-301.58724999999998
20
122.77952693634401
42
-0.99999999999999989
10
-298.48724999999996
20
122.77952693634401
10
-298.48724999999996
20
121.22952693634406
42
-0.99999999999999989
0
ENDSEC
0
SECTION
2
OBJECTS
0
DICTIONARY
5
C
100
AcDbDictionary
3
ACAD_GROUP
350
D
3
ACAD_MLINESTYLE
350
17
0
DICTIONARY
5
D
100
AcDbDictionary
0
DICTIONARY
5
1A
330
C
100
AcDbDictionary
0
DICTIONARY
5
17
100
AcDbDictionary
0
ENDSEC
0
EOF
