  0
SECTION
  2
HEADER
  9
$ACADVER
  1
AC1009
  9
$DWGCODEPAGE
  3
ansi_1252
  9
$INSBASE
 10
0.0
 20
0.0
 30
0.0
  9
$EXTMIN
 10
-10.000002
 20
-116.5125
 30
0.0
  9
$EXTMAX
 10
338.612498
 20
16.75
 30
0.0
  9
$LIMMIN
 10
0.0
 20
0.0
  9
$LIMMAX
 10
12.0
 20
9.0
  9
$ORTHOMODE
 70
     0
  9
$REGENMODE
 70
     1
  9
$FILLMODE
 70
     1
  9
$QTEXTMODE
 70
     0
  9
$MIRRTEXT
 70
     1
  9
$DRAGMODE
 70
     2
  9
$LTSCALE
 40
1.0
  9
$OSMODE
 70
    37
  9
$ATTMODE
 70
     1
  9
$TEXTSIZE
 40
0.2
  9
$TRACEWID
 40
0.05
  9
$TEXTSTYLE
  7
STANDARD
  9
$CLAYER
  8
0
  9
$CELTYPE
  6
BYBLOCK
  9
$CECOLOR
 62
   256
  9
$DIMSCALE
 40
1.0
  9
$DIMASZ
 40
0.18
  9
$DIMEXO
 40
0.0625
  9
$DIMDLI
 40
0.38
  9
$DIMRND
 40
0.0
  9
$DIMDLE
 40
0.0
  9
$DIMEXE
 40
0.18
  9
$DIMTP
 40
0.0
  9
$DIMTM
 40
0.0
  9
$DIMTXT
 40
0.18
  9
$DIMCEN
 40
0.09
  9
$DIMTSZ
 40
0.0
  9
$DIMTOL
 70
     0
  9
$DIMLIM
 70
     0
  9
$DIMTIH
 70
     1
  9
$DIMTOH
 70
     1
  9
$DIMSE1
 70
     0
  9
$DIMSE2
 70
     0
  9
$DIMTAD
 70
     0
  9
$DIMZIN
 70
     0
  9
$DIMBLK
  1

  9
$DIMASO
 70
     1
  9
$DIMSHO
 70
     1
  9
$DIMPOST
  1

  9
$DIMAPOST
  1

  9
$DIMALT
 70
     0
  9
$DIMALTD
 70
     2
  9
$DIMALTF
 40
25.4
  9
$DIMLFAC
 40
1.0
  9
$DIMTOFL
 70
     0
  9
$DIMTVP
 40
0.0
  9
$DIMTIX
 70
     0
  9
$DIMSOXD
 70
     0
  9
$DIMSAH
 70
     0
  9
$DIMBLK1
  1

  9
$DIMBLK2
  1

  9
$DIMSTYLE
  2
ISO-25
  9
$DIMCLRD
 70
     0
  9
$DIMCLRE
 70
     0
  9
$DIMCLRT
 70
     0
  9
$DIMTFAC
 40
1.0
  9
$DIMGAP
 40
0.09
  9
$LUNITS
 70
     2
  9
$LUPREC
 70
     4
  9
$SKETCHINC
 40
0.1
  9
$FILLETRAD
 40
0.0
  9
$AUNITS
 70
     0
  9
$AUPREC
 70
     0
  9
$MENU
  1
.
  9
$ELEVATION
 40
0.0
  9
$PELEVATION
 40
0.0
  9
$THICKNESS
 40
0.0
  9
$LIMCHECK
 70
     0
  9
$CHAMFERA
 40
0.0
  9
$CHAMFERB
 40
0.0
  9
$SKPOLY
 70
     0
  9
$TDCREATE
 40
2461069.847445197
  9
$TDUPDATE
 40
2461130.037244329
  9
$TDINDWG
 40
0.0000000116
  9
$TDUSRTIMER
 40
0.0000000116
  9
$USRTIMER
 70
     1
  9
$ANGBASE
 50
0.0
  9
$ANGDIR
 70
     1
  9
$PDMODE
 70
     0
  9
$PDSIZE
 40
0.0
  9
$PLINEWID
 40
0.0
  9
$COORDS
 70
     1
  9
$SPLFRAME
 70
     0
  9
$SPLINETYPE
 70
     6
  9
$SPLINESEGS
 70
     8
  9
$ATTDIA
 70
     0
  9
$ATTREQ
 70
     1
  9
$HANDLING
 70
     1
  9
$HANDSEED
  5
F20
  9
$SURFTAB1
 70
     6
  9
$SURFTAB2
 70
     6
  9
$SURFTYPE
 70
     6
  9
$SURFU
 70
     6
  9
$SURFV
 70
     6
  9
$UCSNAME
  2

  9
$UCSORG
 10
0.0
 20
0.0
 30
0.0
  9
$UCSXDIR
 10
1.0
 20
0.0
 30
0.0
  9
$UCSYDIR
 10
0.0
 20
1.0
 30
0.0
  9
$PUCSNAME
  2

  9
$PUCSORG
 10
0.0
 20
0.0
 30
0.0
  9
$PUCSXDIR
 10
1.0
 20
0.0
 30
0.0
  9
$PUCSYDIR
 10
0.0
 20
1.0
 30
0.0
  9
$USERI1
 70
     0
  9
$USERI2
 70
     0
  9
$USERI3
 70
     0
  9
$USERI4
 70
     0
  9
$USERI5
 70
     0
  9
$USERR1
 40
0.0
  9
$USERR2
 40
0.0
  9
$USERR3
 40
0.0
  9
$USERR4
 40
0.0
  9
$USERR5
 40
0.0
  9
$WORLDVIEW
 70
     1
  9
$SHADEDGE
 70
     3
  9
$SHADEDIF
 70
    70
  9
$TILEMODE
 70
     1
  9
$MAXACTVP
 70
    64
  9
$PLIMCHECK
 70
     0
  9
$PEXTMIN
 10
1.000000E+20
 20
1.000000E+20
 30
1.000000E+20
  9
$PEXTMAX
 10
-1.000000E+20
 20
-1.000000E+20
 30
-1.000000E+20
  9
$PLIMMIN
 10
0.0
 20
0.0
  9
$PLIMMAX
 10
12.0
 20
9.0
  9
$UNITMODE
 70
     0
  9
$VISRETAIN
 70
     1
  9
$PLINEGEN
 70
     0
  9
$PSLTSCALE
 70
     0
  0
ENDSEC
  0
SECTION
  2
TABLES
  0
TABLE
  2
VPORT
 70
     1
  0
VPORT
  2
*ACTIVE
 70
     0
 10
0.0
 20
0.0
 11
1.0
 21
1.0
 12
164.306248
 22
-49.88125
 13
0.0
 23
0.0
 14
10.0
 24
10.0
 15
10.0
 25
10.0
 16
0.0
 26
0.0
 36
1.0
 17
0.0
 27
0.0
 37
0.0
 40
177.792375
 41
2.0
 42
50.0
 43
0.0
 44
0.0
 50
0.0
 51
0.0
 71
    16
 72
   100
 73
     1
 74
     3
 75
     0
 76
     0
 77
     0
 78
     0
  0
ENDTAB
  0
TABLE
  2
LTYPE
 70
     4
  0
LTYPE
  2
CONTINUOUS
 70
     0
  3
Solid line
 72
    65
 73
     0
 40
0.0
  0
LTYPE
  2
DASHDOT
 70
     0
  3
Dash Dot ____ _ ____ _
 72
    65
 73
     4
 40
2.0
 49
1.25
 49
-0.25
 49
0.25
 49
-0.25
  0
LTYPE
  2
DASHED
 70
     0
  3
Dashed __ __ __ __ __
 72
    65
 73
     2
 40
0.75
 49
0.5
 49
-0.25
  0
LTYPE
  2
DOTTED
 70
     0
  3
Dotted .  .  .  .
 72
    65
 73
     2
 40
0.2
 49
0.0
 49
-0.2
  0
ENDTAB
  0
TABLE
  2
LAYER
 70
     3
  0
LAYER
  2
0
 70
     0
 62
     7
  6
CONTINUOUS
  0
LAYER
  2
BLACK
 70
     0
 62
     7
  6
CONTINUOUS
  0
LAYER
  2
DEFPOINTS
 70
     0
 62
     7
  6
CONTINUOUS
  0
ENDTAB
  0
TABLE
  2
STYLE
 70
     5
  0
STYLE
  2
STANDARD
 70
     0
 40
0.0
 41
1.0
 50
0.0
 71
     0
 42
0.2
  3
txt
  4

  0
STYLE
  2
KICAD
 70
     0
 40
0.0
 41
1.0
 50
0.0
 71
     0
 42
1.0
  3
isocp.shx
  4

  0
STYLE
  2
KICADB
 70
     0
 40
0.0
 41
1.0
 50
0.0
 71
     0
 42
1.0
  3
isocp.shx
  4

  0
STYLE
  2
KICADI
 70
     0
 40
0.0
 41
1.0
 50
15.0
 71
     0
 42
1.0
  3
isocp.shx
  4

  0
STYLE
  2
KICADBI
 70
     0
 40
0.0
 41
1.0
 50
15.0
 71
     0
 42
1.0
  3
isocp.shx
  4

  0
ENDTAB
  0
TABLE
  2
VIEW
 70
     0
  0
ENDTAB
  0
TABLE
  2
UCS
 70
     0
  0
ENDTAB
  0
TABLE
  2
APPID
 70
    12
  0
APPID
  2
ACAD
 70
     0
  0
APPID
  2
HATCHBACKGROUNDCOLOR
 70
     0
  0
APPID
  2
EZDXF
 70
     0
  0
APPID
  2
MCS_DIM1
 70
     0
  0
APPID
  2
MCSXDATA5
 70
     0
  0
APPID
  2
MCS_DOCUMENT_ID
 70
     0
  0
APPID
  2
MCS_PARAMS_DATA
 70
     0
  0
APPID
  2
MC_VERSION_DATA
 70
     0
  0
APPID
  2
ACAD_PSEXT
 70
     0
  0
APPID
  2
ACAD_NAV_VCDISPLAY
 70
     0
  0
APPID
  2
ACAD_STEPID
 70
     0
  0
APPID
  2
ACAD_OBJECT_CHANGE_GUID
 70
     0
  0
ENDTAB
  0
TABLE
  2
DIMSTYLE
 70
     2
  0
DIMSTYLE
  2
ISO-25
 70
     0
  3

  4

  5

  6

  7

 40
1.0
 41
2.5
 42
0.625
 43
3.75
 44
1.25
 45
0.0
 46
0.0
 47
0.0
 48
0.0
140
2.5
141
2.5
142
0.0
143
0.03937
144
1.0
145
0.0
146
1.0
147
0.625
 71
     0
 72
     0
 73
     0
 74
     0
 75
     0
 76
     0
 77
     1
 78
     8
170
     0
171
     3
172
     1
173
     0
174
     0
175
     0
176
     0
177
     0
178
     0
  0
DIMSTYLE
  2
STANDARD
 70
     0
  3

  4

  5

  6

  7

 40
1.0
 41
2.5
 42
0.625
 43
3.75
 44
1.25
 45
0.0
 46
0.0
 47
0.0
 48
0.0
140
2.5
141
2.5
142
0.0
143
0.03937
144
1.0
145
0.0
146
1.0
147
0.625
 71
     0
 72
     0
 73
     0
 74
     0
 75
     0
 76
     0
 77
     1
 78
     8
170
     0
171
     3
172
     1
173
     0
174
     0
175
     0
176
     0
177
     0
178
     0
  0
ENDTAB
  0
ENDSEC
  0
SECTION
  2
BLOCKS
  0
BLOCK
  8
0
  2
$MODEL_SPACE
 70
     0
 10
0.0
 20
0.0
 30
0.0
  3
$MODEL_SPACE
  1

  0
ENDBLK
  5
7CC
  8
0
  0
BLOCK
 67
     1
  8
0
  2
$PAPER_SPACE
 70
     0
 10
0.0
 20
0.0
 30
0.0
  3
$PAPER_SPACE
  1

  0
ENDBLK
  5
7CE
 67
     1
  8
0
  0
ENDSEC
  0
SECTION
  2
ENTITIES
  0
LINE
  5
506
  8
BLACK
  6
CONTINUOUS
 10
202.612499
 20
-75.987499
 30
0.0
 11
202.612497
 21
-75.987499
 31
0.0
  0
LINE
  5
507
  8
BLACK
  6
CONTINUOUS
 10
221.662499
 20
-75.987499
 30
0.0
 11
221.662497
 21
-75.987499
 31
0.0
  0
ARC
  5
51F
  8
BLACK
 10
5.274997
 20
-4.974999
 30
0.0
 40
2.075001
 50
270.000028
 51
0.0
  0
LINE
  5
520
  8
BLACK
  6
CONTINUOUS
 10
7.349998
 20
4.975001
 30
0.0
 11
7.349998
 21
-4.974999
 31
0.0
  0
LINE
  5
521
  8
BLACK
  6
CONTINUOUS
 10
-7.350002
 20
4.974996
 30
0.0
 11
-7.350002
 21
-4.974997
 31
0.0
  0
LINE
  5
522
  8
BLACK
  6
CONTINUOUS
 10
5.274997
 20
7.050001
 30
0.0
 11
-5.274997
 21
7.050001
 31
0.0
  0
ARC
  5
523
  8
BLACK
 10
-5.275
 20
-4.974997
 30
0.0
 40
2.075002
 50
180.0
 51
270.0
  0
ARC
  5
524
  8
BLACK
 10
-5.274997
 20
4.974996
 30
0.0
 40
2.075005
 50
90.0
 51
180.0
  0
ARC
  5
525
  8
BLACK
 10
5.274997
 20
4.975001
 30
0.0
 40
2.075
 50
0.0
 51
90.0
  0
LINE
  5
526
  8
BLACK
  6
CONTINUOUS
 10
5.274998
 20
-7.049999
 30
0.0
 11
-5.275
 21
-7.049999
 31
0.0
  0
ARC
  5
527
  8
BLACK
 10
129.099997
 20
-4.974999
 30
0.0
 40
2.075001
 50
270.000028
 51
0.0
  0
LINE
  5
528
  8
BLACK
  6
CONTINUOUS
 10
131.174998
 20
4.975001
 30
0.0
 11
131.174998
 21
-4.974999
 31
0.0
  0
LINE
  5
529
  8
BLACK
  6
CONTINUOUS
 10
116.474998
 20
4.975001
 30
0.0
 11
116.474998
 21
-4.974999
 31
0.0
  0
LINE
  5
52A
  8
BLACK
  6
CONTINUOUS
 10
129.099997
 20
7.050001
 30
0.0
 11
118.549998
 21
7.050001
 31
0.0
  0
ARC
  5
52B
  8
BLACK
 10
118.549997
 20
-4.974999
 30
0.0
 40
2.075
 50
180.0
 51
270.0
  0
ARC
  5
52C
  8
BLACK
 10
118.549997
 20
4.975001
 30
0.0
 40
2.074999
 50
89.999972
 51
180.0
  0
ARC
  5
52D
  8
BLACK
 10
129.099997
 20
4.975001
 30
0.0
 40
2.075
 50
0.0
 51
90.0
  0
LINE
  5
52E
  8
BLACK
  6
CONTINUOUS
 10
129.099998
 20
-7.049999
 30
0.0
 11
118.549997
 21
-7.049999
 31
0.0
  0
ARC
  5
52F
  8
BLACK
 10
148.149997
 20
-4.974999
 30
0.0
 40
2.075001
 50
270.000028
 51
0.0
  0
LINE
  5
530
  8
BLACK
  6
CONTINUOUS
 10
150.224998
 20
4.975001
 30
0.0
 11
150.224998
 21
-4.974999
 31
0.0
  0
LINE
  5
531
  8
BLACK
  6
CONTINUOUS
 10
135.524998
 20
4.975001
 30
0.0
 11
135.524998
 21
-4.974999
 31
0.0
  0
LINE
  5
532
  8
BLACK
  6
CONTINUOUS
 10
148.149997
 20
7.050001
 30
0.0
 11
137.599998
 21
7.050001
 31
0.0
  0
ARC
  5
533
  8
BLACK
 10
137.599997
 20
-4.974999
 30
0.0
 40
2.075
 50
180.0
 51
270.0
  0
ARC
  5
534
  8
BLACK
 10
137.599997
 20
4.975001
 30
0.0
 40
2.074999
 50
89.999972
 51
180.0
  0
ARC
  5
535
  8
BLACK
 10
148.149997
 20
4.975001
 30
0.0
 40
2.075
 50
0.0
 51
90.0
  0
LINE
  5
536
  8
BLACK
  6
CONTINUOUS
 10
148.149998
 20
-7.049999
 30
0.0
 11
137.599997
 21
-7.049999
 31
0.0
  0
ARC
  5
537
  8
BLACK
 10
167.199997
 20
-4.974999
 30
0.0
 40
2.075001
 50
270.000028
 51
0.0
  0
LINE
  5
538
  8
BLACK
  6
CONTINUOUS
 10
169.274998
 20
4.975001
 30
0.0
 11
169.274998
 21
-4.974999
 31
0.0
  0
LINE
  5
539
  8
BLACK
  6
CONTINUOUS
 10
154.574998
 20
4.975001
 30
0.0
 11
154.574998
 21
-4.974999
 31
0.0
  0
LINE
  5
53A
  8
BLACK
  6
CONTINUOUS
 10
167.199997
 20
7.050001
 30
0.0
 11
156.649998
 21
7.050001
 31
0.0
  0
ARC
  5
53B
  8
BLACK
 10
156.649997
 20
-4.974999
 30
0.0
 40
2.075
 50
180.0
 51
270.0
  0
ARC
  5
53C
  8
BLACK
 10
156.649997
 20
4.975001
 30
0.0
 40
2.074999
 50
89.999972
 51
180.0
  0
ARC
  5
53D
  8
BLACK
 10
167.199997
 20
4.975001
 30
0.0
 40
2.075
 50
0.0
 51
90.0
  0
LINE
  5
53E
  8
BLACK
  6
CONTINUOUS
 10
167.199998
 20
-7.049999
 30
0.0
 11
156.649997
 21
-7.049999
 31
0.0
  0
ARC
  5
53F
  8
BLACK
 10
271.974997
 20
-4.974999
 30
0.0
 40
2.075001
 50
270.000028
 51
0.0
  0
LINE
  5
540
  8
BLACK
  6
CONTINUOUS
 10
274.049998
 20
4.975001
 30
0.0
 11
274.049998
 21
-4.974999
 31
0.0
  0
LINE
  5
541
  8
BLACK
  6
CONTINUOUS
 10
259.349998
 20
4.975001
 30
0.0
 11
259.349998
 21
-4.974999
 31
0.0
  0
LINE
  5
542
  8
BLACK
  6
CONTINUOUS
 10
271.974997
 20
7.050001
 30
0.0
 11
261.424998
 21
7.050001
 31
0.0
  0
ARC
  5
543
  8
BLACK
 10
261.424997
 20
-4.974999
 30
0.0
 40
2.075
 50
180.0
 51
270.0
  0
ARC
  5
544
  8
BLACK
 10
261.424997
 20
4.975001
 30
0.0
 40
2.074999
 50
89.999972
 51
180.0
  0
ARC
  5
545
  8
BLACK
 10
271.974997
 20
4.975001
 30
0.0
 40
2.075
 50
0.0
 51
90.0
  0
LINE
  5
546
  8
BLACK
  6
CONTINUOUS
 10
271.974998
 20
-7.049999
 30
0.0
 11
261.424997
 21
-7.049999
 31
0.0
  0
ARC
  5
547
  8
BLACK
 10
295.787497
 20
-4.974999
 30
0.0
 40
2.075001
 50
270.000028
 51
0.0
  0
LINE
  5
548
  8
BLACK
  6
CONTINUOUS
 10
297.862498
 20
4.975001
 30
0.0
 11
297.862498
 21
-4.974999
 31
0.0
  0
LINE
  5
549
  8
BLACK
  6
CONTINUOUS
 10
283.162498
 20
4.975001
 30
0.0
 11
283.162498
 21
-4.974999
 31
0.0
  0
LINE
  5
54A
  8
BLACK
  6
CONTINUOUS
 10
295.787497
 20
7.050001
 30
0.0
 11
285.237498
 21
7.050001
 31
0.0
  0
ARC
  5
54B
  8
BLACK
 10
285.237497
 20
-4.974999
 30
0.0
 40
2.075
 50
180.0
 51
270.0
  0
ARC
  5
54C
  8
BLACK
 10
285.237497
 20
4.975001
 30
0.0
 40
2.074999
 50
89.999972
 51
180.0
  0
ARC
  5
54D
  8
BLACK
 10
295.787497
 20
4.975001
 30
0.0
 40
2.075
 50
0.0
 51
90.0
  0
LINE
  5
54E
  8
BLACK
  6
CONTINUOUS
 10
295.787498
 20
-7.049999
 30
0.0
 11
285.237497
 21
-7.049999
 31
0.0
  0
ARC
  5
54F
  8
BLACK
 10
314.837497
 20
-4.974999
 30
0.0
 40
2.075001
 50
270.000028
 51
0.0
  0
LINE
  5
550
  8
BLACK
  6
CONTINUOUS
 10
316.912498
 20
4.975001
 30
0.0
 11
316.912498
 21
-4.974999
 31
0.0
  0
LINE
  5
551
  8
BLACK
  6
CONTINUOUS
 10
302.212498
 20
4.975001
 30
0.0
 11
302.212498
 21
-4.974999
 31
0.0
  0
LINE
  5
552
  8
BLACK
  6
CONTINUOUS
 10
314.837497
 20
7.050001
 30
0.0
 11
304.287498
 21
7.050001
 31
0.0
  0
ARC
  5
553
  8
BLACK
 10
304.287497
 20
-4.974999
 30
0.0
 40
2.075
 50
180.0
 51
270.0
  0
ARC
  5
554
  8
BLACK
 10
304.287497
 20
4.975001
 30
0.0
 40
2.074999
 50
89.999972
 51
180.0
  0
ARC
  5
555
  8
BLACK
 10
314.837497
 20
4.975001
 30
0.0
 40
2.075
 50
0.0
 51
90.0
  0
LINE
  5
556
  8
BLACK
  6
CONTINUOUS
 10
314.837498
 20
-7.049999
 30
0.0
 11
304.287497
 21
-7.049999
 31
0.0
  0
ARC
  5
557
  8
BLACK
 10
333.887497
 20
-4.974999
 30
0.0
 40
2.075001
 50
270.000028
 51
0.0
  0
LINE
  5
558
  8
BLACK
  6
CONTINUOUS
 10
335.962498
 20
4.975001
 30
0.0
 11
335.962498
 21
-4.974999
 31
0.0
  0
LINE
  5
559
  8
BLACK
  6
CONTINUOUS
 10
321.262498
 20
4.975001
 30
0.0
 11
321.262498
 21
-4.974999
 31
0.0
  0
LINE
  5
55A
  8
BLACK
  6
CONTINUOUS
 10
333.887497
 20
7.050001
 30
0.0
 11
323.337498
 21
7.050001
 31
0.0
  0
ARC
  5
55B
  8
BLACK
 10
323.337497
 20
-4.974999
 30
0.0
 40
2.075
 50
180.0
 51
270.0
  0
ARC
  5
55C
  8
BLACK
 10
323.337497
 20
4.975001
 30
0.0
 40
2.074999
 50
89.999972
 51
180.0
  0
ARC
  5
55D
  8
BLACK
 10
333.887497
 20
4.975001
 30
0.0
 40
2.075
 50
0.0
 51
90.0
  0
LINE
  5
55E
  8
BLACK
  6
CONTINUOUS
 10
333.887498
 20
-7.049999
 30
0.0
 11
323.337497
 21
-7.049999
 31
0.0
  0
ARC
  5
55F
  8
BLACK
 10
295.787497
 20
-28.787499
 30
0.0
 40
2.075001
 50
270.000028
 51
0.0
  0
LINE
  5
560
  8
BLACK
  6
CONTINUOUS
 10
297.862498
 20
-18.837499
 30
0.0
 11
297.862498
 21
-28.787499
 31
0.0
  0
LINE
  5
561
  8
BLACK
  6
CONTINUOUS
 10
283.162498
 20
-18.837499
 30
0.0
 11
283.162498
 21
-28.787499
 31
0.0
  0
LINE
  5
562
  8
BLACK
  6
CONTINUOUS
 10
295.787497
 20
-16.762499
 30
0.0
 11
285.237498
 21
-16.762499
 31
0.0
  0
ARC
  5
563
  8
BLACK
 10
285.237497
 20
-28.787499
 30
0.0
 40
2.075
 50
180.0
 51
270.0
  0
ARC
  5
564
  8
BLACK
 10
285.237497
 20
-18.837499
 30
0.0
 40
2.074999
 50
89.999972
 51
180.0
  0
ARC
  5
565
  8
BLACK
 10
295.787497
 20
-18.837499
 30
0.0
 40
2.075
 50
0.0
 51
90.0
  0
LINE
  5
566
  8
BLACK
  6
CONTINUOUS
 10
295.787498
 20
-30.862499
 30
0.0
 11
285.237497
 21
-30.862499
 31
0.0
  0
ARC
  5
567
  8
BLACK
 10
314.837497
 20
-28.787499
 30
0.0
 40
2.075001
 50
270.000028
 51
0.0
  0
LINE
  5
568
  8
BLACK
  6
CONTINUOUS
 10
316.912498
 20
-18.837499
 30
0.0
 11
316.912498
 21
-28.787499
 31
0.0
  0
LINE
  5
569
  8
BLACK
  6
CONTINUOUS
 10
302.212498
 20
-18.837499
 30
0.0
 11
302.212498
 21
-28.787499
 31
0.0
  0
LINE
  5
56A
  8
BLACK
  6
CONTINUOUS
 10
314.837497
 20
-16.762499
 30
0.0
 11
304.287498
 21
-16.762499
 31
0.0
  0
ARC
  5
56B
  8
BLACK
 10
304.287497
 20
-28.787499
 30
0.0
 40
2.075
 50
180.0
 51
270.0
  0
ARC
  5
56C
  8
BLACK
 10
304.287497
 20
-18.837499
 30
0.0
 40
2.074999
 50
89.999972
 51
180.0
  0
ARC
  5
56D
  8
BLACK
 10
314.837497
 20
-18.837499
 30
0.0
 40
2.075
 50
0.0
 51
90.0
  0
LINE
  5
56E
  8
BLACK
  6
CONTINUOUS
 10
314.837498
 20
-30.862499
 30
0.0
 11
304.287497
 21
-30.862499
 31
0.0
  0
ARC
  5
56F
  8
BLACK
 10
333.887497
 20
-28.787499
 30
0.0
 40
2.075001
 50
270.000028
 51
0.0
  0
LINE
  5
570
  8
BLACK
  6
CONTINUOUS
 10
335.962498
 20
-18.837499
 30
0.0
 11
335.962498
 21
-28.787499
 31
0.0
  0
LINE
  5
571
  8
BLACK
  6
CONTINUOUS
 10
321.262498
 20
-18.837499
 30
0.0
 11
321.262498
 21
-28.787499
 31
0.0
  0
LINE
  5
572
  8
BLACK
  6
CONTINUOUS
 10
333.887497
 20
-16.762499
 30
0.0
 11
323.337498
 21
-16.762499
 31
0.0
  0
ARC
  5
573
  8
BLACK
 10
323.337497
 20
-28.787499
 30
0.0
 40
2.075
 50
180.0
 51
270.0
  0
ARC
  5
574
  8
BLACK
 10
323.337497
 20
-18.837499
 30
0.0
 40
2.074999
 50
89.999972
 51
180.0
  0
ARC
  5
575
  8
BLACK
 10
333.887497
 20
-18.837499
 30
0.0
 40
2.075
 50
0.0
 51
90.0
  0
LINE
  5
576
  8
BLACK
  6
CONTINUOUS
 10
333.887498
 20
-30.862499
 30
0.0
 11
323.337497
 21
-30.862499
 31
0.0
  0
ARC
  5
577
  8
BLACK
 10
314.837497
 20
-47.837499
 30
0.0
 40
2.075001
 50
270.000028
 51
0.0
  0
LINE
  5
578
  8
BLACK
  6
CONTINUOUS
 10
316.912498
 20
-37.887499
 30
0.0
 11
316.912498
 21
-47.837499
 31
0.0
  0
LINE
  5
579
  8
BLACK
  6
CONTINUOUS
 10
302.212498
 20
-37.887499
 30
0.0
 11
302.212498
 21
-47.837499
 31
0.0
  0
LINE
  5
57A
  8
BLACK
  6
CONTINUOUS
 10
314.837497
 20
-35.812499
 30
0.0
 11
304.287498
 21
-35.812499
 31
0.0
  0
ARC
  5
57B
  8
BLACK
 10
304.287497
 20
-47.837499
 30
0.0
 40
2.075
 50
180.0
 51
270.0
  0
ARC
  5
57C
  8
BLACK
 10
304.287497
 20
-37.887499
 30
0.0
 40
2.074999
 50
89.999972
 51
180.0
  0
ARC
  5
57D
  8
BLACK
 10
314.837497
 20
-37.887499
 30
0.0
 40
2.075
 50
0.0
 51
90.0
  0
LINE
  5
57E
  8
BLACK
  6
CONTINUOUS
 10
314.837498
 20
-49.912499
 30
0.0
 11
304.287497
 21
-49.912499
 31
0.0
  0
ARC
  5
57F
  8
BLACK
 10
333.887497
 20
-47.837499
 30
0.0
 40
2.075001
 50
270.000028
 51
0.0
  0
LINE
  5
580
  8
BLACK
  6
CONTINUOUS
 10
335.962498
 20
-37.887499
 30
0.0
 11
335.962498
 21
-47.837499
 31
0.0
  0
LINE
  5
581
  8
BLACK
  6
CONTINUOUS
 10
321.262498
 20
-37.887499
 30
0.0
 11
321.262498
 21
-47.837499
 31
0.0
  0
LINE
  5
582
  8
BLACK
  6
CONTINUOUS
 10
333.887497
 20
-35.812499
 30
0.0
 11
323.337498
 21
-35.812499
 31
0.0
  0
ARC
  5
583
  8
BLACK
 10
323.337497
 20
-47.837499
 30
0.0
 40
2.075
 50
180.0
 51
270.0
  0
ARC
  5
584
  8
BLACK
 10
323.337497
 20
-37.887499
 30
0.0
 40
2.074999
 50
89.999972
 51
180.0
  0
ARC
  5
585
  8
BLACK
 10
333.887497
 20
-37.887499
 30
0.0
 40
2.075
 50
0.0
 51
90.0
  0
LINE
  5
586
  8
BLACK
  6
CONTINUOUS
 10
333.887498
 20
-49.912499
 30
0.0
 11
323.337497
 21
-49.912499
 31
0.0
  0
ARC
  5
587
  8
BLACK
 10
295.787497
 20
-47.837499
 30
0.0
 40
2.075001
 50
270.000028
 51
0.0
  0
LINE
  5
588
  8
BLACK
  6
CONTINUOUS
 10
297.862498
 20
-37.887499
 30
0.0
 11
297.862498
 21
-47.837499
 31
0.0
  0
LINE
  5
589
  8
BLACK
  6
CONTINUOUS
 10
283.162498
 20
-37.887499
 30
0.0
 11
283.162498
 21
-47.837499
 31
0.0
  0
LINE
  5
58A
  8
BLACK
  6
CONTINUOUS
 10
295.787497
 20
-35.812499
 30
0.0
 11
285.237498
 21
-35.812499
 31
0.0
  0
ARC
  5
58B
  8
BLACK
 10
285.237497
 20
-47.837499
 30
0.0
 40
2.075
 50
180.0
 51
270.0
  0
ARC
  5
58C
  8
BLACK
 10
285.237497
 20
-37.887499
 30
0.0
 40
2.074999
 50
89.999972
 51
180.0
  0
ARC
  5
58D
  8
BLACK
 10
295.787497
 20
-37.887499
 30
0.0
 40
2.075
 50
0.0
 51
90.0
  0
LINE
  5
58E
  8
BLACK
  6
CONTINUOUS
 10
295.787498
 20
-49.912499
 30
0.0
 11
285.237497
 21
-49.912499
 31
0.0
  0
ARC
  5
58F
  8
BLACK
 10
314.837497
 20
-85.937499
 30
0.0
 40
2.075001
 50
270.000028
 51
0.0
  0
LINE
  5
590
  8
BLACK
  6
CONTINUOUS
 10
316.912498
 20
-75.987499
 30
0.0
 11
316.912498
 21
-85.937499
 31
0.0
  0
LINE
  5
591
  8
BLACK
  6
CONTINUOUS
 10
302.212498
 20
-75.987499
 30
0.0
 11
302.212498
 21
-85.937499
 31
0.0
  0
LINE
  5
592
  8
BLACK
  6
CONTINUOUS
 10
314.837497
 20
-73.912499
 30
0.0
 11
304.287498
 21
-73.912499
 31
0.0
  0
ARC
  5
593
  8
BLACK
 10
304.287497
 20
-85.937499
 30
0.0
 40
2.075
 50
180.0
 51
270.0
  0
ARC
  5
594
  8
BLACK
 10
304.287497
 20
-75.987499
 30
0.0
 40
2.074999
 50
89.999972
 51
180.0
  0
ARC
  5
595
  8
BLACK
 10
314.837497
 20
-75.987499
 30
0.0
 40
2.075
 50
0.0
 51
90.0
  0
LINE
  5
596
  8
BLACK
  6
CONTINUOUS
 10
314.837498
 20
-88.012499
 30
0.0
 11
304.287497
 21
-88.012499
 31
0.0
  0
ARC
  5
597
  8
BLACK
 10
314.837497
 20
-104.987499
 30
0.0
 40
2.075001
 50
270.000028
 51
0.0
  0
LINE
  5
598
  8
BLACK
  6
CONTINUOUS
 10
316.912498
 20
-95.037499
 30
0.0
 11
316.912498
 21
-104.987499
 31
0.0
  0
LINE
  5
599
  8
BLACK
  6
CONTINUOUS
 10
302.212498
 20
-95.037499
 30
0.0
 11
302.212498
 21
-104.987499
 31
0.0
  0
LINE
  5
59A
  8
BLACK
  6
CONTINUOUS
 10
314.837497
 20
-92.962499
 30
0.0
 11
304.287498
 21
-92.962499
 31
0.0
  0
ARC
  5
59B
  8
BLACK
 10
304.287497
 20
-104.987499
 30
0.0
 40
2.075
 50
180.0
 51
270.0
  0
ARC
  5
59C
  8
BLACK
 10
304.287497
 20
-95.037499
 30
0.0
 40
2.074999
 50
89.999972
 51
180.0
  0
ARC
  5
59D
  8
BLACK
 10
314.837497
 20
-95.037499
 30
0.0
 40
2.075
 50
0.0
 51
90.0
  0
LINE
  5
59E
  8
BLACK
  6
CONTINUOUS
 10
314.837498
 20
-107.062499
 30
0.0
 11
304.287497
 21
-107.062499
 31
0.0
  0
ARC
  5
59F
  8
BLACK
 10
295.787497
 20
-104.987499
 30
0.0
 40
2.075001
 50
270.000028
 51
0.0
  0
LINE
  5
5A0
  8
BLACK
  6
CONTINUOUS
 10
297.862498
 20
-95.037499
 30
0.0
 11
297.862498
 21
-104.987499
 31
0.0
  0
LINE
  5
5A1
  8
BLACK
  6
CONTINUOUS
 10
283.162498
 20
-95.037499
 30
0.0
 11
283.162498
 21
-104.987499
 31
0.0
  0
LINE
  5
5A2
  8
BLACK
  6
CONTINUOUS
 10
295.787497
 20
-92.962499
 30
0.0
 11
285.237498
 21
-92.962499
 31
0.0
  0
ARC
  5
5A3
  8
BLACK
 10
285.237497
 20
-104.987499
 30
0.0
 40
2.075
 50
180.0
 51
270.0
  0
ARC
  5
5A4
  8
BLACK
 10
285.237497
 20
-95.037499
 30
0.0
 40
2.074999
 50
89.999972
 51
180.0
  0
ARC
  5
5A5
  8
BLACK
 10
295.787497
 20
-95.037499
 30
0.0
 40
2.075
 50
0.0
 51
90.0
  0
LINE
  5
5A6
  8
BLACK
  6
CONTINUOUS
 10
295.787498
 20
-107.062499
 30
0.0
 11
285.237497
 21
-107.062499
 31
0.0
  0
ARC
  5
5A7
  8
BLACK
 10
333.887497
 20
-104.987499
 30
0.0
 40
2.075001
 50
270.000028
 51
0.0
  0
LINE
  5
5A8
  8
BLACK
  6
CONTINUOUS
 10
335.962498
 20
-95.037499
 30
0.0
 11
335.962498
 21
-104.987499
 31
0.0
  0
LINE
  5
5A9
  8
BLACK
  6
CONTINUOUS
 10
321.262498
 20
-95.037499
 30
0.0
 11
321.262498
 21
-104.987499
 31
0.0
  0
LINE
  5
5AA
  8
BLACK
  6
CONTINUOUS
 10
333.887497
 20
-92.962499
 30
0.0
 11
323.337498
 21
-92.962499
 31
0.0
  0
ARC
  5
5AB
  8
BLACK
 10
323.337497
 20
-104.987499
 30
0.0
 40
2.075
 50
180.0
 51
270.0
  0
ARC
  5
5AC
  8
BLACK
 10
323.337497
 20
-95.037499
 30
0.0
 40
2.074999
 50
89.999972
 51
180.0
  0
ARC
  5
5AD
  8
BLACK
 10
333.887497
 20
-95.037499
 30
0.0
 40
2.075
 50
0.0
 51
90.0
  0
LINE
  5
5AE
  8
BLACK
  6
CONTINUOUS
 10
333.887498
 20
-107.062499
 30
0.0
 11
323.337497
 21
-107.062499
 31
0.0
  0
ARC
  5
5AF
  8
BLACK
 10
5.274997
 20
-28.787499
 30
0.0
 40
2.075001
 50
270.000028
 51
0.0
  0
LINE
  5
5B0
  8
BLACK
  6
CONTINUOUS
 10
7.349998
 20
-18.837499
 30
0.0
 11
7.349998
 21
-28.787499
 31
0.0
  0
LINE
  5
5B1
  8
BLACK
  6
CONTINUOUS
 10
-7.350002
 20
-18.837504
 30
0.0
 11
-7.350002
 21
-28.787497
 31
0.0
  0
LINE
  5
5B2
  8
BLACK
  6
CONTINUOUS
 10
5.274997
 20
-16.762499
 30
0.0
 11
-5.274997
 21
-16.762499
 31
0.0
  0
ARC
  5
5B3
  8
BLACK
 10
-5.275
 20
-28.787497
 30
0.0
 40
2.075002
 50
180.0
 51
270.0
  0
ARC
  5
5B4
  8
BLACK
 10
-5.274997
 20
-18.837504
 30
0.0
 40
2.075005
 50
90.0
 51
180.0
  0
ARC
  5
5B5
  8
BLACK
 10
5.274997
 20
-18.837499
 30
0.0
 40
2.075
 50
0.0
 51
90.0
  0
LINE
  5
5B6
  8
BLACK
  6
CONTINUOUS
 10
5.274998
 20
-30.862499
 30
0.0
 11
-5.275
 21
-30.862499
 31
0.0
  0
ARC
  5
5B7
  8
BLACK
 10
10.037497
 20
-47.837499
 30
0.0
 40
2.075001
 50
270.000028
 51
0.0
  0
LINE
  5
5B8
  8
BLACK
  6
CONTINUOUS
 10
12.112498
 20
-37.887499
 30
0.0
 11
12.112498
 21
-47.837499
 31
0.0
  0
LINE
  5
5B9
  8
BLACK
  6
CONTINUOUS
 10
-2.587502
 20
-37.887504
 30
0.0
 11
-2.587502
 21
-47.837497
 31
0.0
  0
LINE
  5
5BA
  8
BLACK
  6
CONTINUOUS
 10
10.037497
 20
-35.812499
 30
0.0
 11
-0.512497
 21
-35.812499
 31
0.0
  0
ARC
  5
5BB
  8
BLACK
 10
-0.5125
 20
-47.837497
 30
0.0
 40
2.075002
 50
180.0
 51
270.0
  0
ARC
  5
5BC
  8
BLACK
 10
-0.512497
 20
-37.887504
 30
0.0
 40
2.075005
 50
90.0
 51
180.0
  0
ARC
  5
5BD
  8
BLACK
 10
10.037497
 20
-37.887499
 30
0.0
 40
2.075
 50
0.0
 51
90.0
  0
LINE
  5
5BE
  8
BLACK
  6
CONTINUOUS
 10
10.037498
 20
-49.912499
 30
0.0
 11
-0.5125
 21
-49.912499
 31
0.0
  0
ARC
  5
5BF
  8
BLACK
 10
24.324997
 20
-28.787499
 30
0.0
 40
2.075001
 50
270.000028
 51
0.0
  0
LINE
  5
5C0
  8
BLACK
  6
CONTINUOUS
 10
26.399998
 20
-18.837499
 30
0.0
 11
26.399998
 21
-28.787499
 31
0.0
  0
LINE
  5
5C1
  8
BLACK
  6
CONTINUOUS
 10
11.699998
 20
-18.837499
 30
0.0
 11
11.699998
 21
-28.787499
 31
0.0
  0
LINE
  5
5C2
  8
BLACK
  6
CONTINUOUS
 10
24.324997
 20
-16.762499
 30
0.0
 11
13.774998
 21
-16.762499
 31
0.0
  0
ARC
  5
5C3
  8
BLACK
 10
13.774997
 20
-28.787499
 30
0.0
 40
2.075
 50
180.0
 51
270.0
  0
ARC
  5
5C4
  8
BLACK
 10
13.774997
 20
-18.837499
 30
0.0
 40
2.074999
 50
89.999972
 51
180.0
  0
ARC
  5
5C5
  8
BLACK
 10
24.324997
 20
-18.837499
 30
0.0
 40
2.075
 50
0.0
 51
90.0
  0
LINE
  5
5C6
  8
BLACK
  6
CONTINUOUS
 10
24.324998
 20
-30.862499
 30
0.0
 11
13.774997
 21
-30.862499
 31
0.0
  0
ARC
  5
5C7
  8
BLACK
 10
43.374997
 20
-28.787499
 30
0.0
 40
2.075001
 50
270.000028
 51
0.0
  0
LINE
  5
5C8
  8
BLACK
  6
CONTINUOUS
 10
45.449998
 20
-18.837499
 30
0.0
 11
45.449998
 21
-28.787499
 31
0.0
  0
LINE
  5
5C9
  8
BLACK
  6
CONTINUOUS
 10
30.749998
 20
-18.837499
 30
0.0
 11
30.749998
 21
-28.787499
 31
0.0
  0
LINE
  5
5CA
  8
BLACK
  6
CONTINUOUS
 10
43.374997
 20
-16.762499
 30
0.0
 11
32.824998
 21
-16.762499
 31
0.0
  0
ARC
  5
5CB
  8
BLACK
 10
32.824997
 20
-28.787499
 30
0.0
 40
2.075
 50
180.0
 51
270.0
  0
ARC
  5
5CC
  8
BLACK
 10
32.824997
 20
-18.837499
 30
0.0
 40
2.074999
 50
89.999972
 51
180.0
  0
ARC
  5
5CD
  8
BLACK
 10
43.374997
 20
-18.837499
 30
0.0
 40
2.075
 50
0.0
 51
90.0
  0
LINE
  5
5CE
  8
BLACK
  6
CONTINUOUS
 10
43.374998
 20
-30.862499
 30
0.0
 11
32.824997
 21
-30.862499
 31
0.0
  0
ARC
  5
5CF
  8
BLACK
 10
62.424997
 20
-28.787499
 30
0.0
 40
2.075001
 50
270.000028
 51
0.0
  0
LINE
  5
5D0
  8
BLACK
  6
CONTINUOUS
 10
64.499998
 20
-18.837499
 30
0.0
 11
64.499998
 21
-28.787499
 31
0.0
  0
LINE
  5
5D1
  8
BLACK
  6
CONTINUOUS
 10
49.799998
 20
-18.837499
 30
0.0
 11
49.799998
 21
-28.787499
 31
0.0
  0
LINE
  5
5D2
  8
BLACK
  6
CONTINUOUS
 10
62.424997
 20
-16.762499
 30
0.0
 11
51.874998
 21
-16.762499
 31
0.0
  0
ARC
  5
5D3
  8
BLACK
 10
51.874997
 20
-28.787499
 30
0.0
 40
2.075
 50
180.0
 51
270.0
  0
ARC
  5
5D4
  8
BLACK
 10
51.874997
 20
-18.837499
 30
0.0
 40
2.074999
 50
89.999972
 51
180.0
  0
ARC
  5
5D5
  8
BLACK
 10
62.424997
 20
-18.837499
 30
0.0
 40
2.075
 50
0.0
 51
90.0
  0
LINE
  5
5D6
  8
BLACK
  6
CONTINUOUS
 10
62.424998
 20
-30.862499
 30
0.0
 11
51.874997
 21
-30.862499
 31
0.0
  0
ARC
  5
5D7
  8
BLACK
 10
81.474997
 20
-28.787499
 30
0.0
 40
2.075001
 50
270.000028
 51
0.0
  0
LINE
  5
5D8
  8
BLACK
  6
CONTINUOUS
 10
83.549998
 20
-18.837499
 30
0.0
 11
83.549998
 21
-28.787499
 31
0.0
  0
LINE
  5
5D9
  8
BLACK
  6
CONTINUOUS
 10
68.849998
 20
-18.837499
 30
0.0
 11
68.849998
 21
-28.787499
 31
0.0
  0
LINE
  5
5DA
  8
BLACK
  6
CONTINUOUS
 10
81.474997
 20
-16.762499
 30
0.0
 11
70.924998
 21
-16.762499
 31
0.0
  0
ARC
  5
5DB
  8
BLACK
 10
70.924997
 20
-28.787499
 30
0.0
 40
2.075
 50
180.0
 51
270.0
  0
ARC
  5
5DC
  8
BLACK
 10
70.924997
 20
-18.837499
 30
0.0
 40
2.074999
 50
89.999972
 51
180.0
  0
ARC
  5
5DD
  8
BLACK
 10
81.474997
 20
-18.837499
 30
0.0
 40
2.075
 50
0.0
 51
90.0
  0
LINE
  5
5DE
  8
BLACK
  6
CONTINUOUS
 10
81.474998
 20
-30.862499
 30
0.0
 11
70.924997
 21
-30.862499
 31
0.0
  0
ARC
  5
5DF
  8
BLACK
 10
100.524997
 20
-28.787499
 30
0.0
 40
2.075001
 50
270.000028
 51
0.0
  0
LINE
  5
5E0
  8
BLACK
  6
CONTINUOUS
 10
102.599998
 20
-18.837499
 30
0.0
 11
102.599998
 21
-28.787499
 31
0.0
  0
LINE
  5
5E1
  8
BLACK
  6
CONTINUOUS
 10
87.899998
 20
-18.837499
 30
0.0
 11
87.899998
 21
-28.787499
 31
0.0
  0
LINE
  5
5E2
  8
BLACK
  6
CONTINUOUS
 10
100.524997
 20
-16.762499
 30
0.0
 11
89.974998
 21
-16.762499
 31
0.0
  0
ARC
  5
5E3
  8
BLACK
 10
89.974997
 20
-28.787499
 30
0.0
 40
2.075
 50
180.0
 51
270.0
  0
ARC
  5
5E4
  8
BLACK
 10
89.974997
 20
-18.837499
 30
0.0
 40
2.074999
 50
89.999972
 51
180.0
  0
ARC
  5
5E5
  8
BLACK
 10
100.524997
 20
-18.837499
 30
0.0
 40
2.075
 50
0.0
 51
90.0
  0
LINE
  5
5E6
  8
BLACK
  6
CONTINUOUS
 10
100.524998
 20
-30.862499
 30
0.0
 11
89.974997
 21
-30.862499
 31
0.0
  0
ARC
  5
5E7
  8
BLACK
 10
119.574997
 20
-28.787499
 30
0.0
 40
2.075001
 50
270.000028
 51
0.0
  0
LINE
  5
5E8
  8
BLACK
  6
CONTINUOUS
 10
121.649998
 20
-18.837499
 30
0.0
 11
121.649998
 21
-28.787499
 31
0.0
  0
LINE
  5
5E9
  8
BLACK
  6
CONTINUOUS
 10
106.949998
 20
-18.837499
 30
0.0
 11
106.949998
 21
-28.787499
 31
0.0
  0
LINE
  5
5EA
  8
BLACK
  6
CONTINUOUS
 10
119.574997
 20
-16.762499
 30
0.0
 11
109.024998
 21
-16.762499
 31
0.0
  0
ARC
  5
5EB
  8
BLACK
 10
109.024997
 20
-28.787499
 30
0.0
 40
2.075
 50
180.0
 51
270.0
  0
ARC
  5
5EC
  8
BLACK
 10
109.024997
 20
-18.837499
 30
0.0
 40
2.074999
 50
89.999972
 51
180.0
  0
ARC
  5
5ED
  8
BLACK
 10
119.574997
 20
-18.837499
 30
0.0
 40
2.075
 50
0.0
 51
90.0
  0
LINE
  5
5EE
  8
BLACK
  6
CONTINUOUS
 10
119.574998
 20
-30.862499
 30
0.0
 11
109.024997
 21
-30.862499
 31
0.0
  0
ARC
  5
5EF
  8
BLACK
 10
138.624997
 20
-28.787499
 30
0.0
 40
2.075001
 50
270.000028
 51
0.0
  0
LINE
  5
5F0
  8
BLACK
  6
CONTINUOUS
 10
140.699998
 20
-18.837499
 30
0.0
 11
140.699998
 21
-28.787499
 31
0.0
  0
LINE
  5
5F1
  8
BLACK
  6
CONTINUOUS
 10
125.999998
 20
-18.837499
 30
0.0
 11
125.999998
 21
-28.787499
 31
0.0
  0
LINE
  5
5F2
  8
BLACK
  6
CONTINUOUS
 10
138.624997
 20
-16.762499
 30
0.0
 11
128.074998
 21
-16.762499
 31
0.0
  0
ARC
  5
5F3
  8
BLACK
 10
128.074997
 20
-28.787499
 30
0.0
 40
2.075
 50
180.0
 51
270.0
  0
ARC
  5
5F4
  8
BLACK
 10
128.074997
 20
-18.837499
 30
0.0
 40
2.074999
 50
89.999972
 51
180.0
  0
ARC
  5
5F5
  8
BLACK
 10
138.624997
 20
-18.837499
 30
0.0
 40
2.075
 50
0.0
 51
90.0
  0
LINE
  5
5F6
  8
BLACK
  6
CONTINUOUS
 10
138.624998
 20
-30.862499
 30
0.0
 11
128.074997
 21
-30.862499
 31
0.0
  0
ARC
  5
5F7
  8
BLACK
 10
157.674997
 20
-28.787499
 30
0.0
 40
2.075001
 50
270.000028
 51
0.0
  0
LINE
  5
5F8
  8
BLACK
  6
CONTINUOUS
 10
159.749998
 20
-18.837499
 30
0.0
 11
159.749998
 21
-28.787499
 31
0.0
  0
LINE
  5
5F9
  8
BLACK
  6
CONTINUOUS
 10
145.049998
 20
-18.837499
 30
0.0
 11
145.049998
 21
-28.787499
 31
0.0
  0
LINE
  5
5FA
  8
BLACK
  6
CONTINUOUS
 10
157.674997
 20
-16.762499
 30
0.0
 11
147.124998
 21
-16.762499
 31
0.0
  0
ARC
  5
5FB
  8
BLACK
 10
147.124997
 20
-28.787499
 30
0.0
 40
2.075
 50
180.0
 51
270.0
  0
ARC
  5
5FC
  8
BLACK
 10
147.124997
 20
-18.837499
 30
0.0
 40
2.074999
 50
89.999972
 51
180.0
  0
ARC
  5
5FD
  8
BLACK
 10
157.674997
 20
-18.837499
 30
0.0
 40
2.075
 50
0.0
 51
90.0
  0
LINE
  5
5FE
  8
BLACK
  6
CONTINUOUS
 10
157.674998
 20
-30.862499
 30
0.0
 11
147.124997
 21
-30.862499
 31
0.0
  0
ARC
  5
5FF
  8
BLACK
 10
176.724997
 20
-28.787499
 30
0.0
 40
2.075001
 50
270.000028
 51
0.0
  0
LINE
  5
600
  8
BLACK
  6
CONTINUOUS
 10
178.799998
 20
-18.837499
 30
0.0
 11
178.799998
 21
-28.787499
 31
0.0
  0
LINE
  5
601
  8
BLACK
  6
CONTINUOUS
 10
164.099998
 20
-18.837499
 30
0.0
 11
164.099998
 21
-28.787499
 31
0.0
  0
LINE
  5
602
  8
BLACK
  6
CONTINUOUS
 10
176.724997
 20
-16.762499
 30
0.0
 11
166.174998
 21
-16.762499
 31
0.0
  0
ARC
  5
603
  8
BLACK
 10
166.174997
 20
-28.787499
 30
0.0
 40
2.075
 50
180.0
 51
270.0
  0
ARC
  5
604
  8
BLACK
 10
166.174997
 20
-18.837499
 30
0.0
 40
2.074999
 50
89.999972
 51
180.0
  0
ARC
  5
605
  8
BLACK
 10
176.724997
 20
-18.837499
 30
0.0
 40
2.075
 50
0.0
 51
90.0
  0
LINE
  5
606
  8
BLACK
  6
CONTINUOUS
 10
176.724998
 20
-30.862499
 30
0.0
 11
166.174997
 21
-30.862499
 31
0.0
  0
ARC
  5
607
  8
BLACK
 10
243.399997
 20
-47.837499
 30
0.0
 40
2.075001
 50
270.000028
 51
0.0
  0
LINE
  5
608
  8
BLACK
  6
CONTINUOUS
 10
245.474998
 20
-37.887499
 30
0.0
 11
245.474998
 21
-47.837499
 31
0.0
  0
LINE
  5
609
  8
BLACK
  6
CONTINUOUS
 10
230.774998
 20
-37.887499
 30
0.0
 11
230.774998
 21
-47.837499
 31
0.0
  0
LINE
  5
60A
  8
BLACK
  6
CONTINUOUS
 10
243.399997
 20
-35.812499
 30
0.0
 11
232.849998
 21
-35.812499
 31
0.0
  0
ARC
  5
60B
  8
BLACK
 10
232.849997
 20
-47.837499
 30
0.0
 40
2.075
 50
180.0
 51
270.0
  0
ARC
  5
60C
  8
BLACK
 10
232.849997
 20
-37.887499
 30
0.0
 40
2.074999
 50
89.999972
 51
180.0
  0
ARC
  5
60D
  8
BLACK
 10
243.399997
 20
-37.887499
 30
0.0
 40
2.075
 50
0.0
 51
90.0
  0
LINE
  5
60E
  8
BLACK
  6
CONTINUOUS
 10
243.399998
 20
-49.912499
 30
0.0
 11
232.849997
 21
-49.912499
 31
0.0
  0
ARC
  5
60F
  8
BLACK
 10
224.349997
 20
-47.837499
 30
0.0
 40
2.075001
 50
270.000028
 51
0.0
  0
LINE
  5
610
  8
BLACK
  6
CONTINUOUS
 10
226.424998
 20
-37.887499
 30
0.0
 11
226.424998
 21
-47.837499
 31
0.0
  0
LINE
  5
611
  8
BLACK
  6
CONTINUOUS
 10
211.724998
 20
-37.887499
 30
0.0
 11
211.724998
 21
-47.837499
 31
0.0
  0
LINE
  5
612
  8
BLACK
  6
CONTINUOUS
 10
224.349997
 20
-35.812499
 30
0.0
 11
213.799998
 21
-35.812499
 31
0.0
  0
ARC
  5
613
  8
BLACK
 10
213.799997
 20
-47.837499
 30
0.0
 40
2.075
 50
180.0
 51
270.0
  0
ARC
  5
614
  8
BLACK
 10
213.799997
 20
-37.887499
 30
0.0
 40
2.074999
 50
89.999972
 51
180.0
  0
ARC
  5
615
  8
BLACK
 10
224.349997
 20
-37.887499
 30
0.0
 40
2.075
 50
0.0
 51
90.0
  0
LINE
  5
616
  8
BLACK
  6
CONTINUOUS
 10
224.349998
 20
-49.912499
 30
0.0
 11
213.799997
 21
-49.912499
 31
0.0
  0
ARC
  5
617
  8
BLACK
 10
205.299997
 20
-47.837499
 30
0.0
 40
2.075001
 50
270.000028
 51
0.0
  0
LINE
  5
618
  8
BLACK
  6
CONTINUOUS
 10
207.374998
 20
-37.887499
 30
0.0
 11
207.374998
 21
-47.837499
 31
0.0
  0
LINE
  5
619
  8
BLACK
  6
CONTINUOUS
 10
192.674998
 20
-37.887499
 30
0.0
 11
192.674998
 21
-47.837499
 31
0.0
  0
LINE
  5
61A
  8
BLACK
  6
CONTINUOUS
 10
205.299997
 20
-35.812499
 30
0.0
 11
194.749998
 21
-35.812499
 31
0.0
  0
ARC
  5
61B
  8
BLACK
 10
194.749997
 20
-47.837499
 30
0.0
 40
2.075
 50
180.0
 51
270.0
  0
ARC
  5
61C
  8
BLACK
 10
194.749997
 20
-37.887499
 30
0.0
 40
2.074999
 50
89.999972
 51
180.0
  0
ARC
  5
61D
  8
BLACK
 10
205.299997
 20
-37.887499
 30
0.0
 40
2.075
 50
0.0
 51
90.0
  0
LINE
  5
61E
  8
BLACK
  6
CONTINUOUS
 10
205.299998
 20
-49.912499
 30
0.0
 11
194.749997
 21
-49.912499
 31
0.0
  0
ARC
  5
61F
  8
BLACK
 10
210.062497
 20
-66.887499
 30
0.0
 40
2.075001
 50
270.000028
 51
0.0
  0
LINE
  5
620
  8
BLACK
  6
CONTINUOUS
 10
212.137498
 20
-56.937499
 30
0.0
 11
212.137498
 21
-66.887499
 31
0.0
  0
LINE
  5
621
  8
BLACK
  6
CONTINUOUS
 10
197.437498
 20
-56.937499
 30
0.0
 11
197.437498
 21
-66.887499
 31
0.0
  0
LINE
  5
622
  8
BLACK
  6
CONTINUOUS
 10
210.062497
 20
-54.862499
 30
0.0
 11
199.512498
 21
-54.862499
 31
0.0
  0
ARC
  5
623
  8
BLACK
 10
199.512497
 20
-66.887499
 30
0.0
 40
2.075
 50
180.0
 51
270.0
  0
ARC
  5
624
  8
BLACK
 10
199.512497
 20
-56.937499
 30
0.0
 40
2.074999
 50
89.999972
 51
180.0
  0
ARC
  5
625
  8
BLACK
 10
210.062497
 20
-56.937499
 30
0.0
 40
2.075
 50
0.0
 51
90.0
  0
LINE
  5
626
  8
BLACK
  6
CONTINUOUS
 10
210.062498
 20
-68.962499
 30
0.0
 11
199.512497
 21
-68.962499
 31
0.0
  0
ARC
  5
627
  8
BLACK
 10
229.112497
 20
-66.887499
 30
0.0
 40
2.075001
 50
270.000028
 51
0.0
  0
LINE
  5
628
  8
BLACK
  6
CONTINUOUS
 10
231.187498
 20
-56.937499
 30
0.0
 11
231.187498
 21
-66.887499
 31
0.0
  0
LINE
  5
629
  8
BLACK
  6
CONTINUOUS
 10
216.487498
 20
-56.937499
 30
0.0
 11
216.487498
 21
-66.887499
 31
0.0
  0
LINE
  5
62A
  8
BLACK
  6
CONTINUOUS
 10
229.112497
 20
-54.862499
 30
0.0
 11
218.562498
 21
-54.862499
 31
0.0
  0
ARC
  5
62B
  8
BLACK
 10
218.562497
 20
-66.887499
 30
0.0
 40
2.075
 50
180.0
 51
270.0
  0
ARC
  5
62C
  8
BLACK
 10
218.562497
 20
-56.937499
 30
0.0
 40
2.074999
 50
89.999972
 51
180.0
  0
ARC
  5
62D
  8
BLACK
 10
229.112497
 20
-56.937499
 30
0.0
 40
2.075
 50
0.0
 51
90.0
  0
LINE
  5
62E
  8
BLACK
  6
CONTINUOUS
 10
229.112498
 20
-68.962499
 30
0.0
 11
218.562497
 21
-68.962499
 31
0.0
  0
ARC
  5
62F
  8
BLACK
 10
200.537497
 20
-85.937499
 30
0.0
 40
2.075
 50
270.0
 51
0.0
  0
LINE
  5
630
  8
BLACK
  6
CONTINUOUS
 10
202.612497
 20
-75.987499
 30
0.0
 11
202.612497
 21
-85.937499
 31
0.0
  0
LINE
  5
631
  8
BLACK
  6
CONTINUOUS
 10
187.912497
 20
-75.987499
 30
0.0
 11
187.912497
 21
-85.937499
 31
0.0
  0
LINE
  5
632
  8
BLACK
  6
CONTINUOUS
 10
200.537497
 20
-73.912499
 30
0.0
 11
189.987497
 21
-73.912499
 31
0.0
  0
ARC
  5
633
  8
BLACK
 10
189.987497
 20
-85.937499
 30
0.0
 40
2.075
 50
180.0
 51
270.0
  0
ARC
  5
634
  8
BLACK
 10
189.987497
 20
-75.987499
 30
0.0
 40
2.075
 50
90.0
 51
180.0
  0
ARC
  5
635
  8
BLACK
 10
200.537497
 20
-75.987499
 30
0.0
 40
2.075
 50
0.0
 51
90.0
  0
LINE
  5
636
  8
BLACK
  6
CONTINUOUS
 10
200.537497
 20
-88.012499
 30
0.0
 11
189.987497
 21
-88.012499
 31
0.0
  0
ARC
  5
637
  8
BLACK
 10
219.587497
 20
-85.937499
 30
0.0
 40
2.075
 50
270.0
 51
0.0
  0
LINE
  5
638
  8
BLACK
  6
CONTINUOUS
 10
221.662497
 20
-75.987499
 30
0.0
 11
221.662497
 21
-85.937499
 31
0.0
  0
LINE
  5
639
  8
BLACK
  6
CONTINUOUS
 10
206.962497
 20
-75.987499
 30
0.0
 11
206.962497
 21
-85.937499
 31
0.0
  0
LINE
  5
63A
  8
BLACK
  6
CONTINUOUS
 10
219.587497
 20
-73.912499
 30
0.0
 11
209.037497
 21
-73.912499
 31
0.0
  0
ARC
  5
63B
  8
BLACK
 10
209.037497
 20
-85.937499
 30
0.0
 40
2.075
 50
180.0
 51
270.0
  0
ARC
  5
63C
  8
BLACK
 10
209.037497
 20
-75.987499
 30
0.0
 40
2.075
 50
90.0
 51
180.0
  0
ARC
  5
63D
  8
BLACK
 10
219.587497
 20
-75.987499
 30
0.0
 40
2.075
 50
0.0
 51
90.0
  0
LINE
  5
63E
  8
BLACK
  6
CONTINUOUS
 10
219.587497
 20
-88.012499
 30
0.0
 11
209.037497
 21
-88.012499
 31
0.0
  0
ARC
  5
63F
  8
BLACK
 10
167.199997
 20
-47.837499
 30
0.0
 40
2.075001
 50
270.000028
 51
0.0
  0
LINE
  5
640
  8
BLACK
  6
CONTINUOUS
 10
169.274998
 20
-37.887499
 30
0.0
 11
169.274998
 21
-47.837499
 31
0.0
  0
LINE
  5
641
  8
BLACK
  6
CONTINUOUS
 10
154.574998
 20
-37.887499
 30
0.0
 11
154.574998
 21
-47.837499
 31
0.0
  0
LINE
  5
642
  8
BLACK
  6
CONTINUOUS
 10
167.199997
 20
-35.812499
 30
0.0
 11
156.649998
 21
-35.812499
 31
0.0
  0
ARC
  5
643
  8
BLACK
 10
156.649997
 20
-47.837499
 30
0.0
 40
2.075
 50
180.0
 51
270.0
  0
ARC
  5
644
  8
BLACK
 10
156.649997
 20
-37.887499
 30
0.0
 40
2.074999
 50
89.999972
 51
180.0
  0
ARC
  5
645
  8
BLACK
 10
167.199997
 20
-37.887499
 30
0.0
 40
2.075
 50
0.0
 51
90.0
  0
LINE
  5
646
  8
BLACK
  6
CONTINUOUS
 10
167.199998
 20
-49.912499
 30
0.0
 11
156.649997
 21
-49.912499
 31
0.0
  0
ARC
  5
647
  8
BLACK
 10
186.249997
 20
-47.837499
 30
0.0
 40
2.075001
 50
270.000028
 51
0.0
  0
LINE
  5
648
  8
BLACK
  6
CONTINUOUS
 10
188.324998
 20
-37.887499
 30
0.0
 11
188.324998
 21
-47.837499
 31
0.0
  0
LINE
  5
649
  8
BLACK
  6
CONTINUOUS
 10
173.624998
 20
-37.887499
 30
0.0
 11
173.624998
 21
-47.837499
 31
0.0
  0
LINE
  5
64A
  8
BLACK
  6
CONTINUOUS
 10
186.249997
 20
-35.812499
 30
0.0
 11
175.699998
 21
-35.812499
 31
0.0
  0
ARC
  5
64B
  8
BLACK
 10
175.699997
 20
-47.837499
 30
0.0
 40
2.075
 50
180.0
 51
270.0
  0
ARC
  5
64C
  8
BLACK
 10
175.699997
 20
-37.887499
 30
0.0
 40
2.074999
 50
89.999972
 51
180.0
  0
ARC
  5
64D
  8
BLACK
 10
186.249997
 20
-37.887499
 30
0.0
 40
2.075
 50
0.0
 51
90.0
  0
LINE
  5
64E
  8
BLACK
  6
CONTINUOUS
 10
186.249998
 20
-49.912499
 30
0.0
 11
175.699997
 21
-49.912499
 31
0.0
  0
ARC
  5
64F
  8
BLACK
 10
171.962497
 20
-66.887499
 30
0.0
 40
2.075001
 50
270.000028
 51
0.0
  0
LINE
  5
650
  8
BLACK
  6
CONTINUOUS
 10
174.037498
 20
-56.937499
 30
0.0
 11
174.037498
 21
-66.887499
 31
0.0
  0
LINE
  5
651
  8
BLACK
  6
CONTINUOUS
 10
159.337498
 20
-56.937499
 30
0.0
 11
159.337498
 21
-66.887499
 31
0.0
  0
LINE
  5
652
  8
BLACK
  6
CONTINUOUS
 10
171.962497
 20
-54.862499
 30
0.0
 11
161.412498
 21
-54.862499
 31
0.0
  0
ARC
  5
653
  8
BLACK
 10
161.412497
 20
-66.887499
 30
0.0
 40
2.075
 50
180.0
 51
270.0
  0
ARC
  5
654
  8
BLACK
 10
161.412497
 20
-56.937499
 30
0.0
 40
2.074999
 50
89.999972
 51
180.0
  0
ARC
  5
655
  8
BLACK
 10
171.962497
 20
-56.937499
 30
0.0
 40
2.075
 50
0.0
 51
90.0
  0
LINE
  5
656
  8
BLACK
  6
CONTINUOUS
 10
171.962498
 20
-68.962499
 30
0.0
 11
161.412497
 21
-68.962499
 31
0.0
  0
ARC
  5
657
  8
BLACK
 10
191.012497
 20
-66.887499
 30
0.0
 40
2.075001
 50
270.000028
 51
0.0
  0
LINE
  5
658
  8
BLACK
  6
CONTINUOUS
 10
193.087498
 20
-56.937499
 30
0.0
 11
193.087498
 21
-66.887499
 31
0.0
  0
LINE
  5
659
  8
BLACK
  6
CONTINUOUS
 10
178.387498
 20
-56.937499
 30
0.0
 11
178.387498
 21
-66.887499
 31
0.0
  0
LINE
  5
65A
  8
BLACK
  6
CONTINUOUS
 10
191.012497
 20
-54.862499
 30
0.0
 11
180.462498
 21
-54.862499
 31
0.0
  0
ARC
  5
65B
  8
BLACK
 10
180.462497
 20
-66.887499
 30
0.0
 40
2.075
 50
180.0
 51
270.0
  0
ARC
  5
65C
  8
BLACK
 10
180.462497
 20
-56.937499
 30
0.0
 40
2.074999
 50
89.999972
 51
180.0
  0
ARC
  5
65D
  8
BLACK
 10
191.012497
 20
-56.937499
 30
0.0
 40
2.075
 50
0.0
 51
90.0
  0
LINE
  5
65E
  8
BLACK
  6
CONTINUOUS
 10
191.012498
 20
-68.962499
 30
0.0
 11
180.462497
 21
-68.962499
 31
0.0
  0
ARC
  5
65F
  8
BLACK
 10
129.099997
 20
-47.837499
 30
0.0
 40
2.075001
 50
270.000028
 51
0.0
  0
LINE
  5
660
  8
BLACK
  6
CONTINUOUS
 10
131.174998
 20
-37.887499
 30
0.0
 11
131.174998
 21
-47.837499
 31
0.0
  0
LINE
  5
661
  8
BLACK
  6
CONTINUOUS
 10
116.474998
 20
-37.887499
 30
0.0
 11
116.474998
 21
-47.837499
 31
0.0
  0
LINE
  5
662
  8
BLACK
  6
CONTINUOUS
 10
129.099997
 20
-35.812499
 30
0.0
 11
118.549998
 21
-35.812499
 31
0.0
  0
ARC
  5
663
  8
BLACK
 10
118.549997
 20
-47.837499
 30
0.0
 40
2.075
 50
180.0
 51
270.0
  0
ARC
  5
664
  8
BLACK
 10
118.549997
 20
-37.887499
 30
0.0
 40
2.074999
 50
89.999972
 51
180.0
  0
ARC
  5
665
  8
BLACK
 10
129.099997
 20
-37.887499
 30
0.0
 40
2.075
 50
0.0
 51
90.0
  0
LINE
  5
666
  8
BLACK
  6
CONTINUOUS
 10
129.099998
 20
-49.912499
 30
0.0
 11
118.549997
 21
-49.912499
 31
0.0
  0
ARC
  5
667
  8
BLACK
 10
148.149997
 20
-47.837499
 30
0.0
 40
2.075001
 50
270.000028
 51
0.0
  0
LINE
  5
668
  8
BLACK
  6
CONTINUOUS
 10
150.224998
 20
-37.887499
 30
0.0
 11
150.224998
 21
-47.837499
 31
0.0
  0
LINE
  5
669
  8
BLACK
  6
CONTINUOUS
 10
135.524998
 20
-37.887499
 30
0.0
 11
135.524998
 21
-47.837499
 31
0.0
  0
LINE
  5
66A
  8
BLACK
  6
CONTINUOUS
 10
148.149997
 20
-35.812499
 30
0.0
 11
137.599998
 21
-35.812499
 31
0.0
  0
ARC
  5
66B
  8
BLACK
 10
137.599997
 20
-47.837499
 30
0.0
 40
2.075
 50
180.0
 51
270.0
  0
ARC
  5
66C
  8
BLACK
 10
137.599997
 20
-37.887499
 30
0.0
 40
2.074999
 50
89.999972
 51
180.0
  0
ARC
  5
66D
  8
BLACK
 10
148.149997
 20
-37.887499
 30
0.0
 40
2.075
 50
0.0
 51
90.0
  0
LINE
  5
66E
  8
BLACK
  6
CONTINUOUS
 10
148.149998
 20
-49.912499
 30
0.0
 11
137.599997
 21
-49.912499
 31
0.0
  0
ARC
  5
66F
  8
BLACK
 10
133.862497
 20
-66.887499
 30
0.0
 40
2.075001
 50
270.000028
 51
0.0
  0
LINE
  5
670
  8
BLACK
  6
CONTINUOUS
 10
135.937498
 20
-56.937499
 30
0.0
 11
135.937498
 21
-66.887499
 31
0.0
  0
LINE
  5
671
  8
BLACK
  6
CONTINUOUS
 10
121.237498
 20
-56.937499
 30
0.0
 11
121.237498
 21
-66.887499
 31
0.0
  0
LINE
  5
672
  8
BLACK
  6
CONTINUOUS
 10
133.862497
 20
-54.862499
 30
0.0
 11
123.312498
 21
-54.862499
 31
0.0
  0
ARC
  5
673
  8
BLACK
 10
123.312497
 20
-66.887499
 30
0.0
 40
2.075
 50
180.0
 51
270.0
  0
ARC
  5
674
  8
BLACK
 10
123.312497
 20
-56.937499
 30
0.0
 40
2.074999
 50
89.999972
 51
180.0
  0
ARC
  5
675
  8
BLACK
 10
133.862497
 20
-56.937499
 30
0.0
 40
2.075
 50
0.0
 51
90.0
  0
LINE
  5
676
  8
BLACK
  6
CONTINUOUS
 10
133.862498
 20
-68.962499
 30
0.0
 11
123.312497
 21
-68.962499
 31
0.0
  0
ARC
  5
677
  8
BLACK
 10
152.912497
 20
-66.887499
 30
0.0
 40
2.075001
 50
270.000028
 51
0.0
  0
LINE
  5
678
  8
BLACK
  6
CONTINUOUS
 10
154.987498
 20
-56.937499
 30
0.0
 11
154.987498
 21
-66.887499
 31
0.0
  0
LINE
  5
679
  8
BLACK
  6
CONTINUOUS
 10
140.287498
 20
-56.937499
 30
0.0
 11
140.287498
 21
-66.887499
 31
0.0
  0
LINE
  5
67A
  8
BLACK
  6
CONTINUOUS
 10
152.912497
 20
-54.862499
 30
0.0
 11
142.362498
 21
-54.862499
 31
0.0
  0
ARC
  5
67B
  8
BLACK
 10
142.362497
 20
-66.887499
 30
0.0
 40
2.075
 50
180.0
 51
270.0
  0
ARC
  5
67C
  8
BLACK
 10
142.362497
 20
-56.937499
 30
0.0
 40
2.074999
 50
89.999972
 51
180.0
  0
ARC
  5
67D
  8
BLACK
 10
152.912497
 20
-56.937499
 30
0.0
 40
2.075
 50
0.0
 51
90.0
  0
LINE
  5
67E
  8
BLACK
  6
CONTINUOUS
 10
152.912498
 20
-68.962499
 30
0.0
 11
142.362497
 21
-68.962499
 31
0.0
  0
ARC
  5
67F
  8
BLACK
 10
162.437497
 20
-85.937499
 30
0.0
 40
2.075001
 50
270.000028
 51
0.0
  0
LINE
  5
680
  8
BLACK
  6
CONTINUOUS
 10
164.512498
 20
-75.987499
 30
0.0
 11
164.512498
 21
-85.937499
 31
0.0
  0
LINE
  5
681
  8
BLACK
  6
CONTINUOUS
 10
149.812498
 20
-75.987499
 30
0.0
 11
149.812498
 21
-85.937499
 31
0.0
  0
LINE
  5
682
  8
BLACK
  6
CONTINUOUS
 10
162.437497
 20
-73.912499
 30
0.0
 11
151.887498
 21
-73.912499
 31
0.0
  0
ARC
  5
683
  8
BLACK
 10
151.887497
 20
-85.937499
 30
0.0
 40
2.075
 50
180.0
 51
270.0
  0
ARC
  5
684
  8
BLACK
 10
151.887497
 20
-75.987499
 30
0.0
 40
2.074999
 50
89.999972
 51
180.0
  0
ARC
  5
685
  8
BLACK
 10
162.437497
 20
-75.987499
 30
0.0
 40
2.075
 50
0.0
 51
90.0
  0
LINE
  5
686
  8
BLACK
  6
CONTINUOUS
 10
162.437498
 20
-88.012499
 30
0.0
 11
151.887497
 21
-88.012499
 31
0.0
  0
ARC
  5
687
  8
BLACK
 10
181.487497
 20
-85.937499
 30
0.0
 40
2.075001
 50
270.000028
 51
0.0
  0
LINE
  5
688
  8
BLACK
  6
CONTINUOUS
 10
183.562498
 20
-75.987499
 30
0.0
 11
183.562498
 21
-85.937499
 31
0.0
  0
LINE
  5
689
  8
BLACK
  6
CONTINUOUS
 10
168.862498
 20
-75.987499
 30
0.0
 11
168.862498
 21
-85.937499
 31
0.0
  0
LINE
  5
68A
  8
BLACK
  6
CONTINUOUS
 10
181.487497
 20
-73.912499
 30
0.0
 11
170.937498
 21
-73.912499
 31
0.0
  0
ARC
  5
68B
  8
BLACK
 10
170.937497
 20
-85.937499
 30
0.0
 40
2.075
 50
180.0
 51
270.0
  0
ARC
  5
68C
  8
BLACK
 10
170.937497
 20
-75.987499
 30
0.0
 40
2.074999
 50
89.999972
 51
180.0
  0
ARC
  5
68D
  8
BLACK
 10
181.487497
 20
-75.987499
 30
0.0
 40
2.075
 50
0.0
 51
90.0
  0
LINE
  5
68E
  8
BLACK
  6
CONTINUOUS
 10
181.487498
 20
-88.012499
 30
0.0
 11
170.937497
 21
-88.012499
 31
0.0
  0
ARC
  5
68F
  8
BLACK
 10
124.337497
 20
-85.937499
 30
0.0
 40
2.075001
 50
270.000028
 51
0.0
  0
LINE
  5
690
  8
BLACK
  6
CONTINUOUS
 10
126.412498
 20
-75.987499
 30
0.0
 11
126.412498
 21
-85.937499
 31
0.0
  0
LINE
  5
691
  8
BLACK
  6
CONTINUOUS
 10
111.712498
 20
-75.987499
 30
0.0
 11
111.712498
 21
-85.937499
 31
0.0
  0
LINE
  5
692
  8
BLACK
  6
CONTINUOUS
 10
124.337497
 20
-73.912499
 30
0.0
 11
113.787498
 21
-73.912499
 31
0.0
  0
ARC
  5
693
  8
BLACK
 10
113.787497
 20
-85.937499
 30
0.0
 40
2.075
 50
180.0
 51
270.0
  0
ARC
  5
694
  8
BLACK
 10
113.787497
 20
-75.987499
 30
0.0
 40
2.074999
 50
89.999972
 51
180.0
  0
ARC
  5
695
  8
BLACK
 10
124.337497
 20
-75.987499
 30
0.0
 40
2.075
 50
0.0
 51
90.0
  0
LINE
  5
696
  8
BLACK
  6
CONTINUOUS
 10
124.337498
 20
-88.012499
 30
0.0
 11
113.787497
 21
-88.012499
 31
0.0
  0
ARC
  5
697
  8
BLACK
 10
143.387497
 20
-85.937499
 30
0.0
 40
2.075001
 50
270.000028
 51
0.0
  0
LINE
  5
698
  8
BLACK
  6
CONTINUOUS
 10
145.462498
 20
-75.987499
 30
0.0
 11
145.462498
 21
-85.937499
 31
0.0
  0
LINE
  5
699
  8
BLACK
  6
CONTINUOUS
 10
130.762498
 20
-75.987499
 30
0.0
 11
130.762498
 21
-85.937499
 31
0.0
  0
LINE
  5
69A
  8
BLACK
  6
CONTINUOUS
 10
143.387497
 20
-73.912499
 30
0.0
 11
132.837498
 21
-73.912499
 31
0.0
  0
ARC
  5
69B
  8
BLACK
 10
132.837497
 20
-85.937499
 30
0.0
 40
2.075
 50
180.0
 51
270.0
  0
ARC
  5
69C
  8
BLACK
 10
132.837497
 20
-75.987499
 30
0.0
 40
2.074999
 50
89.999972
 51
180.0
  0
ARC
  5
69D
  8
BLACK
 10
143.387497
 20
-75.987499
 30
0.0
 40
2.075
 50
0.0
 51
90.0
  0
LINE
  5
69E
  8
BLACK
  6
CONTINUOUS
 10
143.387498
 20
-88.012499
 30
0.0
 11
132.837497
 21
-88.012499
 31
0.0
  0
ARC
  5
69F
  8
BLACK
 10
90.999997
 20
-47.837499
 30
0.0
 40
2.075001
 50
270.000028
 51
0.0
  0
LINE
  5
6A0
  8
BLACK
  6
CONTINUOUS
 10
93.074998
 20
-37.887499
 30
0.0
 11
93.074998
 21
-47.837499
 31
0.0
  0
LINE
  5
6A1
  8
BLACK
  6
CONTINUOUS
 10
78.374998
 20
-37.887499
 30
0.0
 11
78.374998
 21
-47.837499
 31
0.0
  0
LINE
  5
6A2
  8
BLACK
  6
CONTINUOUS
 10
90.999997
 20
-35.812499
 30
0.0
 11
80.449998
 21
-35.812499
 31
0.0
  0
ARC
  5
6A3
  8
BLACK
 10
80.449997
 20
-47.837499
 30
0.0
 40
2.075
 50
180.0
 51
270.0
  0
ARC
  5
6A4
  8
BLACK
 10
80.449997
 20
-37.887499
 30
0.0
 40
2.074999
 50
89.999972
 51
180.0
  0
ARC
  5
6A5
  8
BLACK
 10
90.999997
 20
-37.887499
 30
0.0
 40
2.075
 50
0.0
 51
90.0
  0
LINE
  5
6A6
  8
BLACK
  6
CONTINUOUS
 10
90.999998
 20
-49.912499
 30
0.0
 11
80.449997
 21
-49.912499
 31
0.0
  0
ARC
  5
6A7
  8
BLACK
 10
110.049997
 20
-47.837499
 30
0.0
 40
2.075001
 50
270.000028
 51
0.0
  0
LINE
  5
6A8
  8
BLACK
  6
CONTINUOUS
 10
112.124998
 20
-37.887499
 30
0.0
 11
112.124998
 21
-47.837499
 31
0.0
  0
LINE
  5
6A9
  8
BLACK
  6
CONTINUOUS
 10
97.424998
 20
-37.887499
 30
0.0
 11
97.424998
 21
-47.837499
 31
0.0
  0
LINE
  5
6AA
  8
BLACK
  6
CONTINUOUS
 10
110.049997
 20
-35.812499
 30
0.0
 11
99.499998
 21
-35.812499
 31
0.0
  0
ARC
  5
6AB
  8
BLACK
 10
99.499997
 20
-47.837499
 30
0.0
 40
2.075
 50
180.0
 51
270.0
  0
ARC
  5
6AC
  8
BLACK
 10
99.499997
 20
-37.887499
 30
0.0
 40
2.074999
 50
89.999972
 51
180.0
  0
ARC
  5
6AD
  8
BLACK
 10
110.049997
 20
-37.887499
 30
0.0
 40
2.075
 50
0.0
 51
90.0
  0
LINE
  5
6AE
  8
BLACK
  6
CONTINUOUS
 10
110.049998
 20
-49.912499
 30
0.0
 11
99.499997
 21
-49.912499
 31
0.0
  0
ARC
  5
6AF
  8
BLACK
 10
95.762497
 20
-66.887499
 30
0.0
 40
2.075001
 50
270.000028
 51
0.0
  0
LINE
  5
6B0
  8
BLACK
  6
CONTINUOUS
 10
97.837498
 20
-56.937499
 30
0.0
 11
97.837498
 21
-66.887499
 31
0.0
  0
LINE
  5
6B1
  8
BLACK
  6
CONTINUOUS
 10
83.137498
 20
-56.937499
 30
0.0
 11
83.137498
 21
-66.887499
 31
0.0
  0
LINE
  5
6B2
  8
BLACK
  6
CONTINUOUS
 10
95.762497
 20
-54.862499
 30
0.0
 11
85.212498
 21
-54.862499
 31
0.0
  0
ARC
  5
6B3
  8
BLACK
 10
85.212497
 20
-66.887499
 30
0.0
 40
2.075
 50
180.0
 51
270.0
  0
ARC
  5
6B4
  8
BLACK
 10
85.212497
 20
-56.937499
 30
0.0
 40
2.074999
 50
89.999972
 51
180.0
  0
ARC
  5
6B5
  8
BLACK
 10
95.762497
 20
-56.937499
 30
0.0
 40
2.075
 50
0.0
 51
90.0
  0
LINE
  5
6B6
  8
BLACK
  6
CONTINUOUS
 10
95.762498
 20
-68.962499
 30
0.0
 11
85.212497
 21
-68.962499
 31
0.0
  0
ARC
  5
6B7
  8
BLACK
 10
114.812497
 20
-66.887499
 30
0.0
 40
2.075001
 50
270.000028
 51
0.0
  0
LINE
  5
6B8
  8
BLACK
  6
CONTINUOUS
 10
116.887498
 20
-56.937499
 30
0.0
 11
116.887498
 21
-66.887499
 31
0.0
  0
LINE
  5
6B9
  8
BLACK
  6
CONTINUOUS
 10
102.187498
 20
-56.937499
 30
0.0
 11
102.187498
 21
-66.887499
 31
0.0
  0
LINE
  5
6BA
  8
BLACK
  6
CONTINUOUS
 10
114.812497
 20
-54.862499
 30
0.0
 11
104.262498
 21
-54.862499
 31
0.0
  0
ARC
  5
6BB
  8
BLACK
 10
104.262497
 20
-66.887499
 30
0.0
 40
2.075
 50
180.0
 51
270.0
  0
ARC
  5
6BC
  8
BLACK
 10
104.262497
 20
-56.937499
 30
0.0
 40
2.074999
 50
89.999972
 51
180.0
  0
ARC
  5
6BD
  8
BLACK
 10
114.812497
 20
-56.937499
 30
0.0
 40
2.075
 50
0.0
 51
90.0
  0
LINE
  5
6BE
  8
BLACK
  6
CONTINUOUS
 10
114.812498
 20
-68.962499
 30
0.0
 11
104.262497
 21
-68.962499
 31
0.0
  0
ARC
  5
6BF
  8
BLACK
 10
52.899997
 20
-47.837499
 30
0.0
 40
2.075001
 50
270.000028
 51
0.0
  0
LINE
  5
6C0
  8
BLACK
  6
CONTINUOUS
 10
54.974998
 20
-37.887499
 30
0.0
 11
54.974998
 21
-47.837499
 31
0.0
  0
LINE
  5
6C1
  8
BLACK
  6
CONTINUOUS
 10
40.274998
 20
-37.887499
 30
0.0
 11
40.274998
 21
-47.837499
 31
0.0
  0
LINE
  5
6C2
  8
BLACK
  6
CONTINUOUS
 10
52.899997
 20
-35.812499
 30
0.0
 11
42.349998
 21
-35.812499
 31
0.0
  0
ARC
  5
6C3
  8
BLACK
 10
42.349997
 20
-47.837499
 30
0.0
 40
2.075
 50
180.0
 51
270.0
  0
ARC
  5
6C4
  8
BLACK
 10
42.349997
 20
-37.887499
 30
0.0
 40
2.074999
 50
89.999972
 51
180.0
  0
ARC
  5
6C5
  8
BLACK
 10
52.899997
 20
-37.887499
 30
0.0
 40
2.075
 50
0.0
 51
90.0
  0
LINE
  5
6C6
  8
BLACK
  6
CONTINUOUS
 10
52.899998
 20
-49.912499
 30
0.0
 11
42.349997
 21
-49.912499
 31
0.0
  0
ARC
  5
6C7
  8
BLACK
 10
71.949997
 20
-47.837499
 30
0.0
 40
2.075001
 50
270.000028
 51
0.0
  0
LINE
  5
6C8
  8
BLACK
  6
CONTINUOUS
 10
74.024998
 20
-37.887499
 30
0.0
 11
74.024998
 21
-47.837499
 31
0.0
  0
LINE
  5
6C9
  8
BLACK
  6
CONTINUOUS
 10
59.324998
 20
-37.887499
 30
0.0
 11
59.324998
 21
-47.837499
 31
0.0
  0
LINE
  5
6CA
  8
BLACK
  6
CONTINUOUS
 10
71.949997
 20
-35.812499
 30
0.0
 11
61.399998
 21
-35.812499
 31
0.0
  0
ARC
  5
6CB
  8
BLACK
 10
61.399997
 20
-47.837499
 30
0.0
 40
2.075
 50
180.0
 51
270.0
  0
ARC
  5
6CC
  8
BLACK
 10
61.399997
 20
-37.887499
 30
0.0
 40
2.074999
 50
89.999972
 51
180.0
  0
ARC
  5
6CD
  8
BLACK
 10
71.949997
 20
-37.887499
 30
0.0
 40
2.075
 50
0.0
 51
90.0
  0
LINE
  5
6CE
  8
BLACK
  6
CONTINUOUS
 10
71.949998
 20
-49.912499
 30
0.0
 11
61.399997
 21
-49.912499
 31
0.0
  0
ARC
  5
6CF
  8
BLACK
 10
57.662497
 20
-66.887499
 30
0.0
 40
2.075001
 50
270.000028
 51
0.0
  0
LINE
  5
6D0
  8
BLACK
  6
CONTINUOUS
 10
59.737498
 20
-56.937499
 30
0.0
 11
59.737498
 21
-66.887499
 31
0.0
  0
LINE
  5
6D1
  8
BLACK
  6
CONTINUOUS
 10
45.037498
 20
-56.937499
 30
0.0
 11
45.037498
 21
-66.887499
 31
0.0
  0
LINE
  5
6D2
  8
BLACK
  6
CONTINUOUS
 10
57.662497
 20
-54.862499
 30
0.0
 11
47.112498
 21
-54.862499
 31
0.0
  0
ARC
  5
6D3
  8
BLACK
 10
47.112497
 20
-66.887499
 30
0.0
 40
2.075
 50
180.0
 51
270.0
  0
ARC
  5
6D4
  8
BLACK
 10
47.112497
 20
-56.937499
 30
0.0
 40
2.074999
 50
89.999972
 51
180.0
  0
ARC
  5
6D5
  8
BLACK
 10
57.662497
 20
-56.937499
 30
0.0
 40
2.075
 50
0.0
 51
90.0
  0
LINE
  5
6D6
  8
BLACK
  6
CONTINUOUS
 10
57.662498
 20
-68.962499
 30
0.0
 11
47.112497
 21
-68.962499
 31
0.0
  0
ARC
  5
6D7
  8
BLACK
 10
76.712497
 20
-66.887499
 30
0.0
 40
2.075001
 50
270.000028
 51
0.0
  0
LINE
  5
6D8
  8
BLACK
  6
CONTINUOUS
 10
78.787498
 20
-56.937499
 30
0.0
 11
78.787498
 21
-66.887499
 31
0.0
  0
LINE
  5
6D9
  8
BLACK
  6
CONTINUOUS
 10
64.087498
 20
-56.937499
 30
0.0
 11
64.087498
 21
-66.887499
 31
0.0
  0
LINE
  5
6DA
  8
BLACK
  6
CONTINUOUS
 10
76.712497
 20
-54.862499
 30
0.0
 11
66.162498
 21
-54.862499
 31
0.0
  0
ARC
  5
6DB
  8
BLACK
 10
66.162497
 20
-66.887499
 30
0.0
 40
2.075
 50
180.0
 51
270.0
  0
ARC
  5
6DC
  8
BLACK
 10
66.162497
 20
-56.937499
 30
0.0
 40
2.074999
 50
89.999972
 51
180.0
  0
ARC
  5
6DD
  8
BLACK
 10
76.712497
 20
-56.937499
 30
0.0
 40
2.075
 50
0.0
 51
90.0
  0
LINE
  5
6DE
  8
BLACK
  6
CONTINUOUS
 10
76.712498
 20
-68.962499
 30
0.0
 11
66.162497
 21
-68.962499
 31
0.0
  0
ARC
  5
6DF
  8
BLACK
 10
48.137497
 20
-85.937499
 30
0.0
 40
2.075001
 50
270.000028
 51
0.0
  0
LINE
  5
6E0
  8
BLACK
  6
CONTINUOUS
 10
50.212498
 20
-75.987499
 30
0.0
 11
50.212498
 21
-85.937499
 31
0.0
  0
LINE
  5
6E1
  8
BLACK
  6
CONTINUOUS
 10
35.512498
 20
-75.987499
 30
0.0
 11
35.512498
 21
-85.937499
 31
0.0
  0
LINE
  5
6E2
  8
BLACK
  6
CONTINUOUS
 10
48.137497
 20
-73.912499
 30
0.0
 11
37.587498
 21
-73.912499
 31
0.0
  0
ARC
  5
6E3
  8
BLACK
 10
37.587497
 20
-85.937499
 30
0.0
 40
2.075
 50
180.0
 51
270.0
  0
ARC
  5
6E4
  8
BLACK
 10
37.587497
 20
-75.987499
 30
0.0
 40
2.074999
 50
89.999972
 51
180.0
  0
ARC
  5
6E5
  8
BLACK
 10
48.137497
 20
-75.987499
 30
0.0
 40
2.075
 50
0.0
 51
90.0
  0
LINE
  5
6E6
  8
BLACK
  6
CONTINUOUS
 10
48.137498
 20
-88.012499
 30
0.0
 11
37.587497
 21
-88.012499
 31
0.0
  0
ARC
  5
6E7
  8
BLACK
 10
67.187497
 20
-85.937499
 30
0.0
 40
2.075001
 50
270.000028
 51
0.0
  0
LINE
  5
6E8
  8
BLACK
  6
CONTINUOUS
 10
69.262498
 20
-75.987499
 30
0.0
 11
69.262498
 21
-85.937499
 31
0.0
  0
LINE
  5
6E9
  8
BLACK
  6
CONTINUOUS
 10
54.562498
 20
-75.987499
 30
0.0
 11
54.562498
 21
-85.937499
 31
0.0
  0
LINE
  5
6EA
  8
BLACK
  6
CONTINUOUS
 10
67.187497
 20
-73.912499
 30
0.0
 11
56.637498
 21
-73.912499
 31
0.0
  0
ARC
  5
6EB
  8
BLACK
 10
56.637497
 20
-85.937499
 30
0.0
 40
2.075
 50
180.0
 51
270.0
  0
ARC
  5
6EC
  8
BLACK
 10
56.637497
 20
-75.987499
 30
0.0
 40
2.074999
 50
89.999972
 51
180.0
  0
ARC
  5
6ED
  8
BLACK
 10
67.187497
 20
-75.987499
 30
0.0
 40
2.075
 50
0.0
 51
90.0
  0
LINE
  5
6EE
  8
BLACK
  6
CONTINUOUS
 10
67.187498
 20
-88.012499
 30
0.0
 11
56.637497
 21
-88.012499
 31
0.0
  0
ARC
  5
6EF
  8
BLACK
 10
86.237497
 20
-85.937499
 30
0.0
 40
2.075001
 50
270.000028
 51
0.0
  0
LINE
  5
6F0
  8
BLACK
  6
CONTINUOUS
 10
88.312498
 20
-75.987499
 30
0.0
 11
88.312498
 21
-85.937499
 31
0.0
  0
LINE
  5
6F1
  8
BLACK
  6
CONTINUOUS
 10
73.612498
 20
-75.987499
 30
0.0
 11
73.612498
 21
-85.937499
 31
0.0
  0
LINE
  5
6F2
  8
BLACK
  6
CONTINUOUS
 10
86.237497
 20
-73.912499
 30
0.0
 11
75.687498
 21
-73.912499
 31
0.0
  0
ARC
  5
6F3
  8
BLACK
 10
75.687497
 20
-85.937499
 30
0.0
 40
2.075
 50
180.0
 51
270.0
  0
ARC
  5
6F4
  8
BLACK
 10
75.687497
 20
-75.987499
 30
0.0
 40
2.074999
 50
89.999972
 51
180.0
  0
ARC
  5
6F5
  8
BLACK
 10
86.237497
 20
-75.987499
 30
0.0
 40
2.075
 50
0.0
 51
90.0
  0
LINE
  5
6F6
  8
BLACK
  6
CONTINUOUS
 10
86.237498
 20
-88.012499
 30
0.0
 11
75.687497
 21
-88.012499
 31
0.0
  0
ARC
  5
6F7
  8
BLACK
 10
105.287497
 20
-85.937499
 30
0.0
 40
2.075001
 50
270.000028
 51
0.0
  0
LINE
  5
6F8
  8
BLACK
  6
CONTINUOUS
 10
107.362498
 20
-75.987499
 30
0.0
 11
107.362498
 21
-85.937499
 31
0.0
  0
LINE
  5
6F9
  8
BLACK
  6
CONTINUOUS
 10
92.662498
 20
-75.987499
 30
0.0
 11
92.662498
 21
-85.937499
 31
0.0
  0
LINE
  5
6FA
  8
BLACK
  6
CONTINUOUS
 10
105.287497
 20
-73.912499
 30
0.0
 11
94.737498
 21
-73.912499
 31
0.0
  0
ARC
  5
6FB
  8
BLACK
 10
94.737497
 20
-85.937499
 30
0.0
 40
2.075
 50
180.0
 51
270.0
  0
ARC
  5
6FC
  8
BLACK
 10
94.737497
 20
-75.987499
 30
0.0
 40
2.074999
 50
89.999972
 51
180.0
  0
ARC
  5
6FD
  8
BLACK
 10
105.287497
 20
-75.987499
 30
0.0
 40
2.075
 50
0.0
 51
90.0
  0
LINE
  5
6FE
  8
BLACK
  6
CONTINUOUS
 10
105.287498
 20
-88.012499
 30
0.0
 11
94.737497
 21
-88.012499
 31
0.0
  0
ARC
  5
6FF
  8
BLACK
 10
38.612497
 20
-66.887499
 30
0.0
 40
2.075001
 50
270.000028
 51
0.0
  0
LINE
  5
700
  8
BLACK
  6
CONTINUOUS
 10
40.687498
 20
-56.937499
 30
0.0
 11
40.687498
 21
-66.887499
 31
0.0
  0
LINE
  5
701
  8
BLACK
  6
CONTINUOUS
 10
25.987498
 20
-56.937499
 30
0.0
 11
25.987498
 21
-66.887499
 31
0.0
  0
LINE
  5
702
  8
BLACK
  6
CONTINUOUS
 10
38.612497
 20
-54.862499
 30
0.0
 11
28.062498
 21
-54.862499
 31
0.0
  0
ARC
  5
703
  8
BLACK
 10
28.062497
 20
-66.887499
 30
0.0
 40
2.075
 50
180.0
 51
270.0
  0
ARC
  5
704
  8
BLACK
 10
28.062497
 20
-56.937499
 30
0.0
 40
2.074999
 50
89.999972
 51
180.0
  0
ARC
  5
705
  8
BLACK
 10
38.612497
 20
-56.937499
 30
0.0
 40
2.075
 50
0.0
 51
90.0
  0
LINE
  5
706
  8
BLACK
  6
CONTINUOUS
 10
38.612498
 20
-68.962499
 30
0.0
 11
28.062497
 21
-68.962499
 31
0.0
  0
ARC
  5
707
  8
BLACK
 10
33.849997
 20
-47.837499
 30
0.0
 40
2.075001
 50
270.000028
 51
0.0
  0
LINE
  5
708
  8
BLACK
  6
CONTINUOUS
 10
35.924998
 20
-37.887499
 30
0.0
 11
35.924998
 21
-47.837499
 31
0.0
  0
LINE
  5
709
  8
BLACK
  6
CONTINUOUS
 10
21.224998
 20
-37.887499
 30
0.0
 11
21.224998
 21
-47.837499
 31
0.0
  0
LINE
  5
70A
  8
BLACK
  6
CONTINUOUS
 10
33.849997
 20
-35.812499
 30
0.0
 11
23.299998
 21
-35.812499
 31
0.0
  0
ARC
  5
70B
  8
BLACK
 10
23.299997
 20
-47.837499
 30
0.0
 40
2.075
 50
180.0
 51
270.0
  0
ARC
  5
70C
  8
BLACK
 10
23.299997
 20
-37.887499
 30
0.0
 40
2.074999
 50
89.999972
 51
180.0
  0
ARC
  5
70D
  8
BLACK
 10
33.849997
 20
-37.887499
 30
0.0
 40
2.075
 50
0.0
 51
90.0
  0
LINE
  5
70E
  8
BLACK
  6
CONTINUOUS
 10
33.849998
 20
-49.912499
 30
0.0
 11
23.299997
 21
-49.912499
 31
0.0
  0
LINE
  5
70F
  8
BLACK
  6
CONTINUOUS
 10
221.249998
 20
-18.837499
 30
0.0
 11
221.249998
 21
-28.787499
 31
0.0
  0
LINE
  5
710
  8
BLACK
  6
CONTINUOUS
 10
233.874997
 20
-16.7625
 30
0.0
 11
223.324997
 21
-16.7625
 31
0.0
  0
LINE
  5
711
  8
BLACK
  6
CONTINUOUS
 10
233.874997
 20
-30.8625
 30
0.0
 11
223.324997
 21
-30.8625
 31
0.0
  0
LINE
  5
712
  8
BLACK
  6
CONTINUOUS
 10
235.949998
 20
-18.837499
 30
0.0
 11
235.949998
 21
-28.787499
 31
0.0
  0
ARC
  5
713
  8
BLACK
 10
223.324997
 20
-18.837499
 30
0.0
 40
2.074999
 50
90.0
 51
180.0
  0
ARC
  5
714
  8
BLACK
 10
223.324997
 20
-28.787499
 30
0.0
 40
2.075001
 50
180.0
 51
270.0
  0
ARC
  5
715
  8
BLACK
 10
233.874997
 20
-18.837499
 30
0.0
 40
2.074999
 50
0.0
 51
90.0
  0
ARC
  5
716
  8
BLACK
 10
233.874997
 20
-28.787499
 30
0.0
 40
2.075001
 50
270.0
 51
0.0
  0
LINE
  5
717
  8
BLACK
  6
CONTINUOUS
 10
202.199998
 20
-18.837499
 30
0.0
 11
202.199998
 21
-28.787499
 31
0.0
  0
LINE
  5
718
  8
BLACK
  6
CONTINUOUS
 10
214.824997
 20
-16.7625
 30
0.0
 11
204.274997
 21
-16.7625
 31
0.0
  0
LINE
  5
719
  8
BLACK
  6
CONTINUOUS
 10
214.824997
 20
-30.8625
 30
0.0
 11
204.274997
 21
-30.8625
 31
0.0
  0
LINE
  5
71A
  8
BLACK
  6
CONTINUOUS
 10
216.899998
 20
-18.837499
 30
0.0
 11
216.899998
 21
-28.787499
 31
0.0
  0
ARC
  5
71B
  8
BLACK
 10
204.274997
 20
-18.837499
 30
0.0
 40
2.074999
 50
90.0
 51
180.0
  0
ARC
  5
71C
  8
BLACK
 10
204.274997
 20
-28.787499
 30
0.0
 40
2.075001
 50
180.0
 51
270.0
  0
ARC
  5
71D
  8
BLACK
 10
214.824997
 20
-18.837499
 30
0.0
 40
2.074999
 50
0.0
 51
90.0
  0
ARC
  5
71E
  8
BLACK
 10
214.824997
 20
-28.787499
 30
0.0
 40
2.075001
 50
270.0
 51
0.0
  0
LINE
  5
71F
  8
BLACK
  6
CONTINUOUS
 10
183.149998
 20
-18.837499
 30
0.0
 11
183.149998
 21
-28.787499
 31
0.0
  0
LINE
  5
720
  8
BLACK
  6
CONTINUOUS
 10
195.774997
 20
-16.7625
 30
0.0
 11
185.224997
 21
-16.7625
 31
0.0
  0
LINE
  5
721
  8
BLACK
  6
CONTINUOUS
 10
195.774997
 20
-30.8625
 30
0.0
 11
185.224997
 21
-30.8625
 31
0.0
  0
LINE
  5
722
  8
BLACK
  6
CONTINUOUS
 10
197.849998
 20
-18.837499
 30
0.0
 11
197.849998
 21
-28.787499
 31
0.0
  0
ARC
  5
723
  8
BLACK
 10
185.224997
 20
-18.837499
 30
0.0
 40
2.074999
 50
90.0
 51
180.0
  0
ARC
  5
724
  8
BLACK
 10
185.224997
 20
-28.787499
 30
0.0
 40
2.075001
 50
180.0
 51
270.0
  0
ARC
  5
725
  8
BLACK
 10
195.774997
 20
-18.837499
 30
0.0
 40
2.074999
 50
0.0
 51
90.0
  0
ARC
  5
726
  8
BLACK
 10
195.774997
 20
-28.787499
 30
0.0
 40
2.075001
 50
270.0
 51
0.0
  0
LINE
  5
744
  8
BLACK
  6
CONTINUOUS
 10
5.274998
 20
-7.05
 30
0.0
 11
5.274998
 21
-7.049999
 31
0.0
  0
LINE
  5
745
  8
BLACK
  6
CONTINUOUS
 10
129.099998
 20
-7.05
 30
0.0
 11
129.099998
 21
-7.049999
 31
0.0
  0
LINE
  5
746
  8
BLACK
  6
CONTINUOUS
 10
118.549998
 20
7.049999
 30
0.0
 11
118.549998
 21
7.050001
 31
0.0
  0
LINE
  5
747
  8
BLACK
  6
CONTINUOUS
 10
148.149998
 20
-7.05
 30
0.0
 11
148.149998
 21
-7.049999
 31
0.0
  0
LINE
  5
748
  8
BLACK
  6
CONTINUOUS
 10
137.599998
 20
7.049999
 30
0.0
 11
137.599998
 21
7.050001
 31
0.0
  0
LINE
  5
749
  8
BLACK
  6
CONTINUOUS
 10
167.199998
 20
-7.05
 30
0.0
 11
167.199998
 21
-7.049999
 31
0.0
  0
LINE
  5
74A
  8
BLACK
  6
CONTINUOUS
 10
156.649998
 20
7.049999
 30
0.0
 11
156.649998
 21
7.050001
 31
0.0
  0
LINE
  5
74B
  8
BLACK
  6
CONTINUOUS
 10
271.974998
 20
-7.05
 30
0.0
 11
271.974998
 21
-7.049999
 31
0.0
  0
LINE
  5
74C
  8
BLACK
  6
CONTINUOUS
 10
261.424998
 20
7.049999
 30
0.0
 11
261.424998
 21
7.050001
 31
0.0
  0
LINE
  5
74D
  8
BLACK
  6
CONTINUOUS
 10
295.787498
 20
-7.05
 30
0.0
 11
295.787498
 21
-7.049999
 31
0.0
  0
LINE
  5
74E
  8
BLACK
  6
CONTINUOUS
 10
285.237498
 20
7.049999
 30
0.0
 11
285.237498
 21
7.050001
 31
0.0
  0
LINE
  5
74F
  8
BLACK
  6
CONTINUOUS
 10
314.837498
 20
-7.05
 30
0.0
 11
314.837498
 21
-7.049999
 31
0.0
  0
LINE
  5
750
  8
BLACK
  6
CONTINUOUS
 10
304.287498
 20
7.049999
 30
0.0
 11
304.287498
 21
7.050001
 31
0.0
  0
LINE
  5
751
  8
BLACK
  6
CONTINUOUS
 10
333.887498
 20
-7.05
 30
0.0
 11
333.887498
 21
-7.049999
 31
0.0
  0
LINE
  5
752
  8
BLACK
  6
CONTINUOUS
 10
323.337498
 20
7.049999
 30
0.0
 11
323.337498
 21
7.050001
 31
0.0
  0
LINE
  5
753
  8
BLACK
  6
CONTINUOUS
 10
295.787498
 20
-30.8625
 30
0.0
 11
295.787498
 21
-30.862499
 31
0.0
  0
LINE
  5
754
  8
BLACK
  6
CONTINUOUS
 10
285.237498
 20
-16.762501
 30
0.0
 11
285.237498
 21
-16.762499
 31
0.0
  0
LINE
  5
755
  8
BLACK
  6
CONTINUOUS
 10
314.837498
 20
-30.8625
 30
0.0
 11
314.837498
 21
-30.862499
 31
0.0
  0
LINE
  5
756
  8
BLACK
  6
CONTINUOUS
 10
304.287498
 20
-16.762501
 30
0.0
 11
304.287498
 21
-16.762499
 31
0.0
  0
LINE
  5
757
  8
BLACK
  6
CONTINUOUS
 10
333.887498
 20
-30.8625
 30
0.0
 11
333.887498
 21
-30.862499
 31
0.0
  0
LINE
  5
758
  8
BLACK
  6
CONTINUOUS
 10
323.337498
 20
-16.762501
 30
0.0
 11
323.337498
 21
-16.762499
 31
0.0
  0
LINE
  5
759
  8
BLACK
  6
CONTINUOUS
 10
314.837498
 20
-49.9125
 30
0.0
 11
314.837498
 21
-49.912499
 31
0.0
  0
LINE
  5
75A
  8
BLACK
  6
CONTINUOUS
 10
304.287498
 20
-35.812501
 30
0.0
 11
304.287498
 21
-35.812499
 31
0.0
  0
LINE
  5
75B
  8
BLACK
  6
CONTINUOUS
 10
333.887498
 20
-49.9125
 30
0.0
 11
333.887498
 21
-49.912499
 31
0.0
  0
LINE
  5
75C
  8
BLACK
  6
CONTINUOUS
 10
323.337498
 20
-35.812501
 30
0.0
 11
323.337498
 21
-35.812499
 31
0.0
  0
LINE
  5
75D
  8
BLACK
  6
CONTINUOUS
 10
295.787498
 20
-49.9125
 30
0.0
 11
295.787498
 21
-49.912499
 31
0.0
  0
LINE
  5
75E
  8
BLACK
  6
CONTINUOUS
 10
285.237498
 20
-35.812501
 30
0.0
 11
285.237498
 21
-35.812499
 31
0.0
  0
LINE
  5
75F
  8
BLACK
  6
CONTINUOUS
 10
314.837498
 20
-88.0125
 30
0.0
 11
314.837498
 21
-88.012499
 31
0.0
  0
LINE
  5
760
  8
BLACK
  6
CONTINUOUS
 10
304.287498
 20
-73.912501
 30
0.0
 11
304.287498
 21
-73.912499
 31
0.0
  0
LINE
  5
761
  8
BLACK
  6
CONTINUOUS
 10
314.837498
 20
-107.0625
 30
0.0
 11
314.837498
 21
-107.062499
 31
0.0
  0
LINE
  5
762
  8
BLACK
  6
CONTINUOUS
 10
304.287498
 20
-92.962501
 30
0.0
 11
304.287498
 21
-92.962499
 31
0.0
  0
LINE
  5
763
  8
BLACK
  6
CONTINUOUS
 10
295.787498
 20
-107.0625
 30
0.0
 11
295.787498
 21
-107.062499
 31
0.0
  0
LINE
  5
764
  8
BLACK
  6
CONTINUOUS
 10
285.237498
 20
-92.962501
 30
0.0
 11
285.237498
 21
-92.962499
 31
0.0
  0
LINE
  5
765
  8
BLACK
  6
CONTINUOUS
 10
333.887498
 20
-107.0625
 30
0.0
 11
333.887498
 21
-107.062499
 31
0.0
  0
LINE
  5
766
  8
BLACK
  6
CONTINUOUS
 10
323.337498
 20
-92.962501
 30
0.0
 11
323.337498
 21
-92.962499
 31
0.0
  0
LINE
  5
767
  8
BLACK
  6
CONTINUOUS
 10
5.274998
 20
-30.8625
 30
0.0
 11
5.274998
 21
-30.862499
 31
0.0
  0
LINE
  5
768
  8
BLACK
  6
CONTINUOUS
 10
10.037498
 20
-49.9125
 30
0.0
 11
10.037498
 21
-49.912499
 31
0.0
  0
LINE
  5
769
  8
BLACK
  6
CONTINUOUS
 10
24.324998
 20
-30.8625
 30
0.0
 11
24.324998
 21
-30.862499
 31
0.0
  0
LINE
  5
76A
  8
BLACK
  6
CONTINUOUS
 10
13.774998
 20
-16.762501
 30
0.0
 11
13.774998
 21
-16.762499
 31
0.0
  0
LINE
  5
76B
  8
BLACK
  6
CONTINUOUS
 10
43.374998
 20
-30.8625
 30
0.0
 11
43.374998
 21
-30.862499
 31
0.0
  0
LINE
  5
76C
  8
BLACK
  6
CONTINUOUS
 10
32.824998
 20
-16.762501
 30
0.0
 11
32.824998
 21
-16.762499
 31
0.0
  0
LINE
  5
76D
  8
BLACK
  6
CONTINUOUS
 10
62.424998
 20
-30.8625
 30
0.0
 11
62.424998
 21
-30.862499
 31
0.0
  0
LINE
  5
76E
  8
BLACK
  6
CONTINUOUS
 10
51.874998
 20
-16.762501
 30
0.0
 11
51.874998
 21
-16.762499
 31
0.0
  0
LINE
  5
76F
  8
BLACK
  6
CONTINUOUS
 10
81.474998
 20
-30.8625
 30
0.0
 11
81.474998
 21
-30.862499
 31
0.0
  0
LINE
  5
770
  8
BLACK
  6
CONTINUOUS
 10
70.924998
 20
-16.762501
 30
0.0
 11
70.924998
 21
-16.762499
 31
0.0
  0
LINE
  5
771
  8
BLACK
  6
CONTINUOUS
 10
100.524998
 20
-30.8625
 30
0.0
 11
100.524998
 21
-30.862499
 31
0.0
  0
LINE
  5
772
  8
BLACK
  6
CONTINUOUS
 10
89.974998
 20
-16.762501
 30
0.0
 11
89.974998
 21
-16.762499
 31
0.0
  0
LINE
  5
773
  8
BLACK
  6
CONTINUOUS
 10
119.574998
 20
-30.8625
 30
0.0
 11
119.574998
 21
-30.862499
 31
0.0
  0
LINE
  5
774
  8
BLACK
  6
CONTINUOUS
 10
109.024998
 20
-16.762501
 30
0.0
 11
109.024998
 21
-16.762499
 31
0.0
  0
LINE
  5
775
  8
BLACK
  6
CONTINUOUS
 10
138.624998
 20
-30.8625
 30
0.0
 11
138.624998
 21
-30.862499
 31
0.0
  0
LINE
  5
776
  8
BLACK
  6
CONTINUOUS
 10
128.074998
 20
-16.762501
 30
0.0
 11
128.074998
 21
-16.762499
 31
0.0
  0
LINE
  5
777
  8
BLACK
  6
CONTINUOUS
 10
157.674998
 20
-30.8625
 30
0.0
 11
157.674998
 21
-30.862499
 31
0.0
  0
LINE
  5
778
  8
BLACK
  6
CONTINUOUS
 10
147.124998
 20
-16.762501
 30
0.0
 11
147.124998
 21
-16.762499
 31
0.0
  0
LINE
  5
779
  8
BLACK
  6
CONTINUOUS
 10
176.724998
 20
-30.8625
 30
0.0
 11
176.724998
 21
-30.862499
 31
0.0
  0
LINE
  5
77A
  8
BLACK
  6
CONTINUOUS
 10
166.174998
 20
-16.762501
 30
0.0
 11
166.174998
 21
-16.762499
 31
0.0
  0
LINE
  5
77B
  8
BLACK
  6
CONTINUOUS
 10
243.399998
 20
-49.9125
 30
0.0
 11
243.399998
 21
-49.912499
 31
0.0
  0
LINE
  5
77C
  8
BLACK
  6
CONTINUOUS
 10
232.849998
 20
-35.812501
 30
0.0
 11
232.849998
 21
-35.812499
 31
0.0
  0
LINE
  5
77D
  8
BLACK
  6
CONTINUOUS
 10
224.349998
 20
-49.9125
 30
0.0
 11
224.349998
 21
-49.912499
 31
0.0
  0
LINE
  5
77E
  8
BLACK
  6
CONTINUOUS
 10
213.799998
 20
-35.812501
 30
0.0
 11
213.799998
 21
-35.812499
 31
0.0
  0
LINE
  5
77F
  8
BLACK
  6
CONTINUOUS
 10
205.299998
 20
-49.9125
 30
0.0
 11
205.299998
 21
-49.912499
 31
0.0
  0
LINE
  5
780
  8
BLACK
  6
CONTINUOUS
 10
194.749998
 20
-35.812501
 30
0.0
 11
194.749998
 21
-35.812499
 31
0.0
  0
LINE
  5
781
  8
BLACK
  6
CONTINUOUS
 10
210.062498
 20
-68.9625
 30
0.0
 11
210.062498
 21
-68.962499
 31
0.0
  0
LINE
  5
782
  8
BLACK
  6
CONTINUOUS
 10
199.512498
 20
-54.862501
 30
0.0
 11
199.512498
 21
-54.862499
 31
0.0
  0
LINE
  5
783
  8
BLACK
  6
CONTINUOUS
 10
229.112498
 20
-68.9625
 30
0.0
 11
229.112498
 21
-68.962499
 31
0.0
  0
LINE
  5
784
  8
BLACK
  6
CONTINUOUS
 10
218.562498
 20
-54.862501
 30
0.0
 11
218.562498
 21
-54.862499
 31
0.0
  0
LINE
  5
785
  8
BLACK
  6
CONTINUOUS
 10
167.199998
 20
-49.9125
 30
0.0
 11
167.199998
 21
-49.912499
 31
0.0
  0
LINE
  5
786
  8
BLACK
  6
CONTINUOUS
 10
156.649998
 20
-35.812501
 30
0.0
 11
156.649998
 21
-35.812499
 31
0.0
  0
LINE
  5
787
  8
BLACK
  6
CONTINUOUS
 10
186.249998
 20
-49.9125
 30
0.0
 11
186.249998
 21
-49.912499
 31
0.0
  0
LINE
  5
788
  8
BLACK
  6
CONTINUOUS
 10
175.699998
 20
-35.812501
 30
0.0
 11
175.699998
 21
-35.812499
 31
0.0
  0
LINE
  5
789
  8
BLACK
  6
CONTINUOUS
 10
171.962498
 20
-68.9625
 30
0.0
 11
171.962498
 21
-68.962499
 31
0.0
  0
LINE
  5
78A
  8
BLACK
  6
CONTINUOUS
 10
161.412498
 20
-54.862501
 30
0.0
 11
161.412498
 21
-54.862499
 31
0.0
  0
LINE
  5
78B
  8
BLACK
  6
CONTINUOUS
 10
191.012498
 20
-68.9625
 30
0.0
 11
191.012498
 21
-68.962499
 31
0.0
  0
LINE
  5
78C
  8
BLACK
  6
CONTINUOUS
 10
180.462498
 20
-54.862501
 30
0.0
 11
180.462498
 21
-54.862499
 31
0.0
  0
LINE
  5
78D
  8
BLACK
  6
CONTINUOUS
 10
129.099998
 20
-49.9125
 30
0.0
 11
129.099998
 21
-49.912499
 31
0.0
  0
LINE
  5
78E
  8
BLACK
  6
CONTINUOUS
 10
118.549998
 20
-35.812501
 30
0.0
 11
118.549998
 21
-35.812499
 31
0.0
  0
LINE
  5
78F
  8
BLACK
  6
CONTINUOUS
 10
148.149998
 20
-49.9125
 30
0.0
 11
148.149998
 21
-49.912499
 31
0.0
  0
LINE
  5
790
  8
BLACK
  6
CONTINUOUS
 10
137.599998
 20
-35.812501
 30
0.0
 11
137.599998
 21
-35.812499
 31
0.0
  0
LINE
  5
791
  8
BLACK
  6
CONTINUOUS
 10
133.862498
 20
-68.9625
 30
0.0
 11
133.862498
 21
-68.962499
 31
0.0
  0
LINE
  5
792
  8
BLACK
  6
CONTINUOUS
 10
123.312498
 20
-54.862501
 30
0.0
 11
123.312498
 21
-54.862499
 31
0.0
  0
LINE
  5
793
  8
BLACK
  6
CONTINUOUS
 10
152.912498
 20
-68.9625
 30
0.0
 11
152.912498
 21
-68.962499
 31
0.0
  0
LINE
  5
794
  8
BLACK
  6
CONTINUOUS
 10
142.362498
 20
-54.862501
 30
0.0
 11
142.362498
 21
-54.862499
 31
0.0
  0
LINE
  5
795
  8
BLACK
  6
CONTINUOUS
 10
162.437498
 20
-88.0125
 30
0.0
 11
162.437498
 21
-88.012499
 31
0.0
  0
LINE
  5
796
  8
BLACK
  6
CONTINUOUS
 10
151.887498
 20
-73.912501
 30
0.0
 11
151.887498
 21
-73.912499
 31
0.0
  0
LINE
  5
797
  8
BLACK
  6
CONTINUOUS
 10
181.487498
 20
-88.0125
 30
0.0
 11
181.487498
 21
-88.012499
 31
0.0
  0
LINE
  5
798
  8
BLACK
  6
CONTINUOUS
 10
170.937498
 20
-73.912501
 30
0.0
 11
170.937498
 21
-73.912499
 31
0.0
  0
LINE
  5
799
  8
BLACK
  6
CONTINUOUS
 10
124.337498
 20
-88.0125
 30
0.0
 11
124.337498
 21
-88.012499
 31
0.0
  0
LINE
  5
79A
  8
BLACK
  6
CONTINUOUS
 10
113.787498
 20
-73.912501
 30
0.0
 11
113.787498
 21
-73.912499
 31
0.0
  0
LINE
  5
79B
  8
BLACK
  6
CONTINUOUS
 10
143.387498
 20
-88.0125
 30
0.0
 11
143.387498
 21
-88.012499
 31
0.0
  0
LINE
  5
79C
  8
BLACK
  6
CONTINUOUS
 10
132.837498
 20
-73.912501
 30
0.0
 11
132.837498
 21
-73.912499
 31
0.0
  0
LINE
  5
79D
  8
BLACK
  6
CONTINUOUS
 10
90.999998
 20
-49.9125
 30
0.0
 11
90.999998
 21
-49.912499
 31
0.0
  0
LINE
  5
79E
  8
BLACK
  6
CONTINUOUS
 10
80.449998
 20
-35.812501
 30
0.0
 11
80.449998
 21
-35.812499
 31
0.0
  0
LINE
  5
79F
  8
BLACK
  6
CONTINUOUS
 10
110.049998
 20
-49.9125
 30
0.0
 11
110.049998
 21
-49.912499
 31
0.0
  0
LINE
  5
7A0
  8
BLACK
  6
CONTINUOUS
 10
99.499998
 20
-35.812501
 30
0.0
 11
99.499998
 21
-35.812499
 31
0.0
  0
LINE
  5
7A1
  8
BLACK
  6
CONTINUOUS
 10
95.762498
 20
-68.9625
 30
0.0
 11
95.762498
 21
-68.962499
 31
0.0
  0
LINE
  5
7A2
  8
BLACK
  6
CONTINUOUS
 10
85.212498
 20
-54.862501
 30
0.0
 11
85.212498
 21
-54.862499
 31
0.0
  0
LINE
  5
7A3
  8
BLACK
  6
CONTINUOUS
 10
114.812498
 20
-68.9625
 30
0.0
 11
114.812498
 21
-68.962499
 31
0.0
  0
LINE
  5
7A4
  8
BLACK
  6
CONTINUOUS
 10
104.262498
 20
-54.862501
 30
0.0
 11
104.262498
 21
-54.862499
 31
0.0
  0
LINE
  5
7A5
  8
BLACK
  6
CONTINUOUS
 10
52.899998
 20
-49.9125
 30
0.0
 11
52.899998
 21
-49.912499
 31
0.0
  0
LINE
  5
7A6
  8
BLACK
  6
CONTINUOUS
 10
42.349998
 20
-35.812501
 30
0.0
 11
42.349998
 21
-35.812499
 31
0.0
  0
LINE
  5
7A7
  8
BLACK
  6
CONTINUOUS
 10
71.949998
 20
-49.9125
 30
0.0
 11
71.949998
 21
-49.912499
 31
0.0
  0
LINE
  5
7A8
  8
BLACK
  6
CONTINUOUS
 10
61.399998
 20
-35.812501
 30
0.0
 11
61.399998
 21
-35.812499
 31
0.0
  0
LINE
  5
7A9
  8
BLACK
  6
CONTINUOUS
 10
57.662498
 20
-68.9625
 30
0.0
 11
57.662498
 21
-68.962499
 31
0.0
  0
LINE
  5
7AA
  8
BLACK
  6
CONTINUOUS
 10
47.112498
 20
-54.862501
 30
0.0
 11
47.112498
 21
-54.862499
 31
0.0
  0
LINE
  5
7AB
  8
BLACK
  6
CONTINUOUS
 10
76.712498
 20
-68.9625
 30
0.0
 11
76.712498
 21
-68.962499
 31
0.0
  0
LINE
  5
7AC
  8
BLACK
  6
CONTINUOUS
 10
66.162498
 20
-54.862501
 30
0.0
 11
66.162498
 21
-54.862499
 31
0.0
  0
LINE
  5
7AD
  8
BLACK
  6
CONTINUOUS
 10
48.137498
 20
-88.0125
 30
0.0
 11
48.137498
 21
-88.012499
 31
0.0
  0
LINE
  5
7AE
  8
BLACK
  6
CONTINUOUS
 10
37.587498
 20
-73.912501
 30
0.0
 11
37.587498
 21
-73.912499
 31
0.0
  0
LINE
  5
7AF
  8
BLACK
  6
CONTINUOUS
 10
67.187498
 20
-88.0125
 30
0.0
 11
67.187498
 21
-88.012499
 31
0.0
  0
LINE
  5
7B0
  8
BLACK
  6
CONTINUOUS
 10
56.637498
 20
-73.912501
 30
0.0
 11
56.637498
 21
-73.912499
 31
0.0
  0
LINE
  5
7B1
  8
BLACK
  6
CONTINUOUS
 10
86.237498
 20
-88.0125
 30
0.0
 11
86.237498
 21
-88.012499
 31
0.0
  0
LINE
  5
7B2
  8
BLACK
  6
CONTINUOUS
 10
75.687498
 20
-73.912501
 30
0.0
 11
75.687498
 21
-73.912499
 31
0.0
  0
LINE
  5
7B3
  8
BLACK
  6
CONTINUOUS
 10
105.287498
 20
-88.0125
 30
0.0
 11
105.287498
 21
-88.012499
 31
0.0
  0
LINE
  5
7B4
  8
BLACK
  6
CONTINUOUS
 10
94.737498
 20
-73.912501
 30
0.0
 11
94.737498
 21
-73.912499
 31
0.0
  0
LINE
  5
7B5
  8
BLACK
  6
CONTINUOUS
 10
38.612498
 20
-68.9625
 30
0.0
 11
38.612498
 21
-68.962498
 31
0.0
  0
LINE
  5
7B6
  8
BLACK
  6
CONTINUOUS
 10
28.062498
 20
-54.862502
 30
0.0
 11
28.062498
 21
-54.862499
 31
0.0
  0
LINE
  5
7B7
  8
BLACK
  6
CONTINUOUS
 10
33.849998
 20
-49.9125
 30
0.0
 11
33.849998
 21
-49.912498
 31
0.0
  0
LINE
  5
7B8
  8
BLACK
  6
CONTINUOUS
 10
23.299998
 20
-35.812502
 30
0.0
 11
23.299998
 21
-35.812499
 31
0.0
  0
LINE
  5
801
  8
BLACK
  6
CONTINUOUS
 10
-4.968753
 20
-56.937499
 30
0.0
 11
-4.968753
 21
-66.8875
 31
0.0
  0
LINE
  5
802
  8
BLACK
  6
CONTINUOUS
 10
7.656247
 20
-54.862499
 30
0.0
 11
-2.893754
 21
-54.862499
 31
0.0
  0
LINE
  5
803
  8
BLACK
  6
CONTINUOUS
 10
7.656247
 20
-68.962499
 30
0.0
 11
-2.893753
 21
-68.962499
 31
0.0
  0
LINE
  5
804
  8
BLACK
  6
CONTINUOUS
 10
9.731247
 20
-56.937499
 30
0.0
 11
9.731247
 21
-66.887499
 31
0.0
  0
ARC
  5
805
  8
BLACK
 10
-2.893749
 20
-56.937503
 30
0.0
 40
2.075004000003855
 50
90.000138
 51
179.99989
  0
ARC
  5
806
  8
BLACK
 10
-2.893751
 20
-66.887497
 30
0.0
 40
2.075002000000964
 50
180.000083
 51
269.999945
  0
ARC
  5
807
  8
BLACK
 10
7.656247
 20
-56.937499
 30
0.0
 40
2.075
 50
0.0
 51
90.0
  0
ARC
  5
808
  8
BLACK
 10
7.656247
 20
-66.887499
 30
0.0
 40
2.075
 50
270.0
 51
0.0
  0
LINE
  5
809
  8
BLACK
  6
CONTINUOUS
 10
45.449997
 20
4.975001
 30
0.0
 11
45.449997
 21
-4.974999
 31
0.0
  0
LINE
  5
80A
  8
BLACK
  6
CONTINUOUS
 10
30.749997
 20
4.975001
 30
0.0
 11
30.749997
 21
-4.975
 31
0.0
  0
ARC
  5
80B
  8
BLACK
 10
32.824999
 20
-4.974997
 30
0.0
 40
2.075002000000964
 50
180.000083
 51
269.999945
  0
LINE
  5
80C
  8
BLACK
  6
CONTINUOUS
 10
43.374997
 20
7.050001
 30
0.0
 11
32.824996
 21
7.050001
 31
0.0
  0
ARC
  5
80D
  8
BLACK
 10
32.825001
 20
4.974997
 30
0.0
 40
2.075004000003855
 50
90.000138
 51
179.99989
  0
ARC
  5
80E
  8
BLACK
 10
43.374997
 20
4.975001
 30
0.0
 40
2.075
 50
0.0
 51
90.0
  0
LINE
  5
80F
  8
BLACK
  6
CONTINUOUS
 10
43.374997
 20
-7.049999
 30
0.0
 11
32.824997
 21
-7.049999
 31
0.0
  0
ARC
  5
810
  8
BLACK
 10
43.374997
 20
-4.974999
 30
0.0
 40
2.075
 50
270.0
 51
0.0
  0
LINE
  5
811
  8
BLACK
  6
CONTINUOUS
 10
102.599997
 20
4.975001
 30
0.0
 11
102.599997
 21
-4.974999
 31
0.0
  0
LINE
  5
812
  8
BLACK
  6
CONTINUOUS
 10
87.899997
 20
4.975001
 30
0.0
 11
87.899997
 21
-4.975
 31
0.0
  0
ARC
  5
813
  8
BLACK
 10
89.974999
 20
-4.974997
 30
0.0
 40
2.075002000000964
 50
180.000083
 51
269.999945
  0
LINE
  5
814
  8
BLACK
  6
CONTINUOUS
 10
100.524997
 20
7.050001
 30
0.0
 11
89.974996
 21
7.050001
 31
0.0
  0
ARC
  5
815
  8
BLACK
 10
89.975001
 20
4.974997
 30
0.0
 40
2.075004000003855
 50
90.000138
 51
179.99989
  0
ARC
  5
816
  8
BLACK
 10
100.524997
 20
4.975001
 30
0.0
 40
2.075
 50
0.0
 51
90.0
  0
ARC
  5
817
  8
BLACK
 10
81.474993
 20
-4.974995
 30
0.0
 40
2.075004000003855
 50
270.00011
 51
359.99989
  0
LINE
  5
818
  8
BLACK
  6
CONTINUOUS
 10
100.524997
 20
-7.049999
 30
0.0
 11
89.974997
 21
-7.049999
 31
0.0
  0
ARC
  5
819
  8
BLACK
 10
100.524997
 20
-4.974999
 30
0.0
 40
2.075
 50
270.0
 51
0.0
  0
LINE
  5
81A
  8
BLACK
  6
CONTINUOUS
 10
64.499997
 20
4.975001
 30
0.0
 11
64.499997
 21
-4.974999
 31
0.0
  0
LINE
  5
81B
  8
BLACK
  6
CONTINUOUS
 10
49.799997
 20
4.975001
 30
0.0
 11
49.799997
 21
-4.975
 31
0.0
  0
ARC
  5
81C
  8
BLACK
 10
51.874999
 20
-4.974997
 30
0.0
 40
2.075002000000964
 50
180.000083
 51
269.999945
  0
LINE
  5
81D
  8
BLACK
  6
CONTINUOUS
 10
62.424997
 20
7.050001
 30
0.0
 11
51.874996
 21
7.050001
 31
0.0
  0
ARC
  5
81E
  8
BLACK
 10
51.875001
 20
4.974997
 30
0.0
 40
2.075004000003855
 50
90.000138
 51
179.99989
  0
ARC
  5
81F
  8
BLACK
 10
62.425
 20
4.975004
 30
0.0
 40
2.074997000002169
 50
359.999917
 51
90.000083
  0
LINE
  5
820
  8
BLACK
  6
CONTINUOUS
 10
62.424997
 20
-7.049999
 30
0.0
 11
51.874997
 21
-7.049999
 31
0.0
  0
ARC
  5
821
  8
BLACK
 10
62.424993
 20
-4.974995
 30
0.0
 40
2.075004000003855
 50
270.00011
 51
359.99989
  0
LINE
  5
822
  8
BLACK
  6
CONTINUOUS
 10
83.549997
 20
4.975001
 30
0.0
 11
83.549997
 21
-4.974999
 31
0.0
  0
LINE
  5
823
  8
BLACK
  6
CONTINUOUS
 10
68.849997
 20
4.975001
 30
0.0
 11
68.849997
 21
-4.975
 31
0.0
  0
ARC
  5
824
  8
BLACK
 10
70.924999
 20
-4.974997
 30
0.0
 40
2.075002000000964
 50
180.000083
 51
269.999945
  0
LINE
  5
825
  8
BLACK
  6
CONTINUOUS
 10
81.474997
 20
7.050001
 30
0.0
 11
70.924996
 21
7.050001
 31
0.0
  0
ARC
  5
826
  8
BLACK
 10
70.925001
 20
4.974997
 30
0.0
 40
2.075004000003855
 50
90.000138
 51
179.99989
  0
ARC
  5
827
  8
BLACK
 10
81.475
 20
4.975004
 30
0.0
 40
2.074997000002169
 50
359.999917
 51
90.000083
  0
LINE
  5
828
  8
BLACK
  6
CONTINUOUS
 10
81.474997
 20
-7.049999
 30
0.0
 11
70.924997
 21
-7.049999
 31
0.0
  0
LINE
  5
829
  8
BLACK
  6
CONTINUOUS
 10
188.324997
 20
4.975001
 30
0.0
 11
188.324997
 21
-4.974999
 31
0.0
  0
LINE
  5
82A
  8
BLACK
  6
CONTINUOUS
 10
173.624997
 20
4.975001
 30
0.0
 11
173.624997
 21
-4.975
 31
0.0
  0
ARC
  5
82B
  8
BLACK
 10
175.699999
 20
-4.974997
 30
0.0
 40
2.075002000000964
 50
180.000083
 51
269.999945
  0
LINE
  5
82C
  8
BLACK
  6
CONTINUOUS
 10
186.249997
 20
7.050001
 30
0.0
 11
175.699996
 21
7.050001
 31
0.0
  0
ARC
  5
82D
  8
BLACK
 10
175.700001
 20
4.974997
 30
0.0
 40
2.075004000003855
 50
90.000138
 51
179.99989
  0
ARC
  5
82E
  8
BLACK
 10
186.249997
 20
4.975001
 30
0.0
 40
2.075
 50
0.0
 51
90.0
  0
LINE
  5
82F
  8
BLACK
  6
CONTINUOUS
 10
186.249997
 20
-7.049999
 30
0.0
 11
175.699997
 21
-7.049999
 31
0.0
  0
ARC
  5
830
  8
BLACK
 10
186.249997
 20
-4.974999
 30
0.0
 40
2.075
 50
270.0
 51
0.0
  0
LINE
  5
831
  8
BLACK
  6
CONTINUOUS
 10
216.899997
 20
4.975001
 30
0.0
 11
216.899997
 21
-4.974999
 31
0.0
  0
LINE
  5
832
  8
BLACK
  6
CONTINUOUS
 10
202.199997
 20
4.975001
 30
0.0
 11
202.199997
 21
-4.975
 31
0.0
  0
ARC
  5
833
  8
BLACK
 10
204.274999
 20
-4.974997
 30
0.0
 40
2.075002000000964
 50
180.000083
 51
269.999945
  0
LINE
  5
834
  8
BLACK
  6
CONTINUOUS
 10
214.824997
 20
7.050001
 30
0.0
 11
204.274996
 21
7.050001
 31
0.0
  0
ARC
  5
835
  8
BLACK
 10
204.275001
 20
4.974997
 30
0.0
 40
2.075004000003855
 50
90.000138
 51
179.99989
  0
ARC
  5
836
  8
BLACK
 10
214.824997
 20
4.975001
 30
0.0
 40
2.075
 50
0.0
 51
90.0
  0
LINE
  5
837
  8
BLACK
  6
CONTINUOUS
 10
214.824997
 20
-7.049999
 30
0.0
 11
204.274997
 21
-7.049999
 31
0.0
  0
ARC
  5
838
  8
BLACK
 10
214.824997
 20
-4.974999
 30
0.0
 40
2.075
 50
270.0
 51
0.0
  0
LINE
  5
839
  8
BLACK
  6
CONTINUOUS
 10
235.949997
 20
4.975001
 30
0.0
 11
235.949997
 21
-4.974999
 31
0.0
  0
LINE
  5
83A
  8
BLACK
  6
CONTINUOUS
 10
221.249997
 20
4.975001
 30
0.0
 11
221.249997
 21
-4.975
 31
0.0
  0
ARC
  5
83B
  8
BLACK
 10
223.324999
 20
-4.974997
 30
0.0
 40
2.075002000000964
 50
180.000083
 51
269.999945
  0
LINE
  5
83C
  8
BLACK
  6
CONTINUOUS
 10
233.874997
 20
7.050001
 30
0.0
 11
223.324996
 21
7.050001
 31
0.0
  0
ARC
  5
83D
  8
BLACK
 10
223.325001
 20
4.974997
 30
0.0
 40
2.075004000003855
 50
90.000138
 51
179.99989
  0
ARC
  5
83E
  8
BLACK
 10
233.874997
 20
4.975001
 30
0.0
 40
2.075
 50
0.0
 51
90.0
  0
LINE
  5
83F
  8
BLACK
  6
CONTINUOUS
 10
233.874997
 20
-7.049999
 30
0.0
 11
223.324997
 21
-7.049999
 31
0.0
  0
ARC
  5
840
  8
BLACK
 10
233.874997
 20
-4.974999
 30
0.0
 40
2.075
 50
270.0
 51
0.0
  0
LINE
  5
841
  8
BLACK
  6
CONTINUOUS
 10
252.924997
 20
-7.049999
 30
0.0
 11
242.374997
 21
-7.049999
 31
0.0
  0
ARC
  5
842
  8
BLACK
 10
252.924997
 20
4.975006
 30
0.0
 40
2.074995
 50
359.999862
 51
90.0
  0
ARC
  5
843
  8
BLACK
 10
242.375001
 20
4.974997
 30
0.0
 40
2.075004000003855
 50
90.000138
 51
179.99989
  0
ARC
  5
844
  8
BLACK
 10
242.374999
 20
-4.974997
 30
0.0
 40
2.075002000000964
 50
180.000083
 51
269.999945
  0
LINE
  5
845
  8
BLACK
  6
CONTINUOUS
 10
252.924997
 20
7.050001
 30
0.0
 11
242.374996
 21
7.050001
 31
0.0
  0
LINE
  5
846
  8
BLACK
  6
CONTINUOUS
 10
240.299997
 20
4.975001
 30
0.0
 11
240.299997
 21
-4.975
 31
0.0
  0
LINE
  5
847
  8
BLACK
  6
CONTINUOUS
 10
254.999997
 20
4.975001
 30
0.0
 11
254.999997
 21
-4.974999
 31
0.0
  0
ARC
  5
848
  8
BLACK
 10
252.924997
 20
-4.974994
 30
0.0
 40
2.075000000006024
 50
270.0
 51
359.999862
  0
ARC
  5
849
  8
BLACK
 10
242.524483
 20
-27.062938
 30
0.0
 40
1.425001000042456
 50
180.00004
 51
269.999558
  0
LINE
  5
84A
  8
BLACK
  6
CONTINUOUS
 10
242.928572
 20
-28.487939
 30
0.0
 11
242.524472
 21
-28.487939
 31
0.0
  0
ARC
  5
84B
  8
BLACK
 10
269.102537
 20
-17.859889
 30
0.0
 40
1.074990000569773
 50
22.023705
 51
89.998135
  0
ARC
  5
84C
  8
BLACK
 10
271.825237
 20
-27.062859
 30
0.0
 40
1.425125000561354
 50
269.526312
 51
359.998392
  0
ARC
  5
84D
  8
BLACK
 10
270.959797
 20
-17.108599
 30
0.0
 40
0.9284600003365787
 50
202.024521
 51
269.998457
  0
LINE
  5
84E
  8
BLACK
  6
CONTINUOUS
 10
241.099482
 20
-27.062939
 30
0.0
 11
241.099482
 21
-19.462199
 31
0.0
  0
LINE
  5
84F
  8
BLACK
  6
CONTINUOUS
 10
245.247372
 20
-16.78491
 30
0.0
 11
245.247372
 21
-16.784899
 31
0.0
  0
ARC
  5
850
  8
BLACK
 10
271.825397
 20
-19.461999
 30
0.0
 40
1.424940000219307
 50
359.997587
 51
90.001005
  0
LINE
  5
851
  8
BLACK
  6
CONTINUOUS
 10
270.959772
 20
-18.037059
 30
0.0
 11
271.825372
 21
-18.037059
 31
0.0
  0
LINE
  5
852
  8
BLACK
  6
CONTINUOUS
 10
273.250362
 20
-19.462059
 30
0.0
 11
273.250362
 21
-27.062899
 31
0.0
  0
ARC
  5
853
  8
BLACK
 10
268.050337
 20
-28.949329
 30
0.0
 40
1.875082291400833
 50
270.002597
 51
339.450982
  0
ARC
  5
854
  8
BLACK
 10
242.928548
 20
-30.212847
 30
0.0
 40
1.724908000166965
 50
20.545478
 51
89.999203
  0
LINE
  5
855
  8
BLACK
  6
CONTINUOUS
 10
243.390072
 20
-18.037047
 30
0.0
 11
243.390072
 21
-18.037059
 31
0.0
  0
LINE
  5
856
  8
BLACK
  6
CONTINUOUS
 10
268.050422
 20
-30.824409
 30
0.0
 11
246.299572
 21
-30.824409
 31
0.0
  0
LINE
  5
857
  8
BLACK
  6
CONTINUOUS
 10
245.247372
 20
-16.784899
 30
0.0
 11
269.102572
 21
-16.784899
 31
0.0
  0
LINE
  5
858
  8
BLACK
  6
CONTINUOUS
 10
271.813455
 20
-28.487939
 30
0.0
 11
271.421322
 21
-28.487939
 31
0.0
  0
ARC
  5
859
  8
BLACK
 10
271.421327
 20
-30.212879
 30
0.0
 40
1.724936068561673
 50
90.000166
 51
159.454082
  0
ARC
  5
85A
  8
BLACK
 10
245.247271
 20
-17.85985
 30
0.0
 40
1.074940192811674
 50
89.994617
 51
157.977502
  0
ARC
  5
85B
  8
BLACK
 10
246.299459
 20
-28.949414
 30
0.0
 40
1.874995003405076
 50
200.546922
 51
270.003453
  0
LINE
  5
85C
  8
BLACK
  6
CONTINUOUS
 10
242.536509
 20
-18.037059
 30
0.0
 11
243.390072
 21
-18.037059
 31
0.0
  0
ARC
  5
85E
  8
BLACK
 10
243.390121
 20
-17.10867
 30
0.0
 40
0.9283764359148717
 50
269.996976
 51
337.977828
  0
ARC
  5
85F
  8
BLACK
 10
242.524564
 20
-19.462091
 30
0.0
 40
1.425082004092396
 50
89.519743
 51
180.004342
  0
ARC
  5
860
  8
BLACK
 10
-2.744267
 20
-84.212938
 30
0.0
 40
1.425001000042456
 50
180.00004
 51
269.999558
  0
LINE
  5
861
  8
BLACK
  6
CONTINUOUS
 10
-2.340178
 20
-85.637939
 30
0.0
 11
-2.744278
 21
-85.637939
 31
0.0
  0
ARC
  5
862
  8
BLACK
 10
23.833787
 20
-75.009889
 30
0.0
 40
1.074990000569773
 50
22.023705
 51
89.998135
  0
ARC
  5
863
  8
BLACK
 10
26.556487
 20
-84.212859
 30
0.0
 40
1.425125000561354
 50
269.526312
 51
359.998392
  0
ARC
  5
864
  8
BLACK
 10
25.691047
 20
-74.258599
 30
0.0
 40
0.9284600003365787
 50
202.024521
 51
269.998457
  0
LINE
  5
865
  8
BLACK
  6
CONTINUOUS
 10
-4.169268
 20
-84.212939
 30
0.0
 11
-4.169268
 21
-76.612199
 31
0.0
  0
LINE
  5
866
  8
BLACK
  6
CONTINUOUS
 10
-0.021378
 20
-73.93491
 30
0.0
 11
-0.021378
 21
-73.934899
 31
0.0
  0
ARC
  5
867
  8
BLACK
 10
26.556647
 20
-76.611999
 30
0.0
 40
1.424940000219307
 50
359.997587
 51
90.001005
  0
LINE
  5
868
  8
BLACK
  6
CONTINUOUS
 10
25.691022
 20
-75.187059
 30
0.0
 11
26.556622
 21
-75.187059
 31
0.0
  0
LINE
  5
869
  8
BLACK
  6
CONTINUOUS
 10
27.981612
 20
-76.612059
 30
0.0
 11
27.981612
 21
-84.212899
 31
0.0
  0
ARC
  5
86A
  8
BLACK
 10
22.781587
 20
-86.099329
 30
0.0
 40
1.875082291400833
 50
270.002597
 51
339.450982
  0
ARC
  5
86B
  8
BLACK
 10
-2.340202
 20
-87.362847
 30
0.0
 40
1.724908000166965
 50
20.545478
 51
89.999203
  0
LINE
  5
86C
  8
BLACK
  6
CONTINUOUS
 10
-1.878678
 20
-75.187047
 30
0.0
 11
-1.878678
 21
-75.187059
 31
0.0
  0
LINE
  5
86D
  8
BLACK
  6
CONTINUOUS
 10
22.781672
 20
-87.974409
 30
0.0
 11
1.030822
 21
-87.974409
 31
0.0
  0
LINE
  5
86E
  8
BLACK
  6
CONTINUOUS
 10
-0.021378
 20
-73.934899
 30
0.0
 11
23.833822
 21
-73.934899
 31
0.0
  0
LINE
  5
86F
  8
BLACK
  6
CONTINUOUS
 10
26.544705
 20
-85.637939
 30
0.0
 11
26.152572
 21
-85.637939
 31
0.0
  0
ARC
  5
870
  8
BLACK
 10
26.152577
 20
-87.362879
 30
0.0
 40
1.724936068561673
 50
90.000166
 51
159.454082
  0
ARC
  5
871
  8
BLACK
 10
-0.021479
 20
-75.00985
 30
0.0
 40
1.074940192811674
 50
89.994617
 51
157.977502
  0
ARC
  5
872
  8
BLACK
 10
1.030709
 20
-86.099414
 30
0.0
 40
1.874995003405076
 50
200.546922
 51
270.003453
  0
LINE
  5
873
  8
BLACK
  6
CONTINUOUS
 10
-2.732241
 20
-75.187059
 30
0.0
 11
-1.878678
 21
-75.187059
 31
0.0
  0
ARC
  5
874
  8
BLACK
 10
-1.878629
 20
-74.25867
 30
0.0
 40
0.9283764359148717
 50
269.996976
 51
337.977828
  0
ARC
  5
876
  8
BLACK
 10
-2.744186
 20
-76.612091
 30
0.0
 40
1.425082004092396
 50
89.519743
 51
180.004342
  0
LINE
  5
877
  8
BLACK
  6
CONTINUOUS
 10
233.955732
 20
-84.212939
 30
0.0
 11
233.955732
 21
-76.612199
 31
0.0
  0
LINE
  5
878
  8
BLACK
  6
CONTINUOUS
 10
235.392759
 20
-75.187059
 30
0.0
 11
236.246322
 21
-75.187059
 31
0.0
  0
LINE
  5
879
  8
BLACK
  6
CONTINUOUS
 10
235.784822
 20
-85.637939
 30
0.0
 11
235.380722
 21
-85.637939
 31
0.0
  0
LINE
  5
87A
  8
BLACK
  6
CONTINUOUS
 10
236.246322
 20
-75.187047
 30
0.0
 11
236.246322
 21
-75.187059
 31
0.0
  0
LINE
  5
87B
  8
BLACK
  6
CONTINUOUS
 10
238.103622
 20
-73.934899
 30
0.0
 11
261.958822
 21
-73.934899
 31
0.0
  0
LINE
  5
87C
  8
BLACK
  6
CONTINUOUS
 10
238.103622
 20
-73.93491
 30
0.0
 11
238.103622
 21
-73.934899
 31
0.0
  0
LINE
  5
87D
  8
BLACK
  6
CONTINUOUS
 10
260.906672
 20
-87.974409
 30
0.0
 11
239.155822
 21
-87.974409
 31
0.0
  0
LINE
  5
87E
  8
BLACK
  6
CONTINUOUS
 10
263.816022
 20
-75.187059
 30
0.0
 11
264.681622
 21
-75.187059
 31
0.0
  0
LINE
  5
87F
  8
BLACK
  6
CONTINUOUS
 10
264.669705
 20
-85.637939
 30
0.0
 11
264.277572
 21
-85.637939
 31
0.0
  0
LINE
  5
880
  8
BLACK
  6
CONTINUOUS
 10
266.106612
 20
-76.612059
 30
0.0
 11
266.106612
 21
-84.212899
 31
0.0
  0
ARC
  5
881
  8
BLACK
 10
235.380814
 20
-76.612091
 30
0.0
 40
1.425082004092396
 50
89.519743
 51
180.004342
  0
ARC
  5
882
  8
BLACK
 10
235.380733
 20
-84.212938
 30
0.0
 40
1.425001000042456
 50
180.00004
 51
269.999558
  0
ARC
  5
883
  8
BLACK
 10
235.784798
 20
-87.362847
 30
0.0
 40
1.724908000166965
 50
20.545478
 51
89.999203
  0
ARC
  5
884
  8
BLACK
 10
236.246371
 20
-74.25867
 30
0.0
 40
0.9283764359148717
 50
269.996976
 51
337.977828
  0
ARC
  5
885
  8
BLACK
 10
238.103521
 20
-75.00985
 30
0.0
 40
1.074940192811674
 50
89.994617
 51
157.977502
  0
ARC
  5
886
  8
BLACK
 10
239.155709
 20
-86.099414
 30
0.0
 40
1.874995003405076
 50
200.546922
 51
270.003453
  0
ARC
  5
887
  8
BLACK
 10
261.958787
 20
-75.009889
 30
0.0
 40
1.074990000569773
 50
22.023705
 51
89.998135
  0
ARC
  5
888
  8
BLACK
 10
260.906587
 20
-86.099329
 30
0.0
 40
1.875082291400833
 50
270.002597
 51
339.450982
  0
ARC
  5
889
  8
BLACK
 10
264.277577
 20
-87.362879
 30
0.0
 40
1.724936068561673
 50
90.000166
 51
159.454082
  0
ARC
  5
88A
  8
BLACK
 10
263.816047
 20
-74.258599
 30
0.0
 40
0.9284600003365787
 50
202.024521
 51
269.998457
  0
ARC
  5
88B
  8
BLACK
 10
264.681647
 20
-76.611999
 30
0.0
 40
1.424940000219307
 50
359.997587
 51
90.001005
  0
ARC
  5
88C
  8
BLACK
 10
264.681487
 20
-84.212859
 30
0.0
 40
1.425125000561354
 50
269.526312
 51
359.998392
  0
ARC
  5
88F
  8
BLACK
 10
240.143233
 20
-65.162938
 30
0.0
 40
1.425001000042456
 50
180.00004
 51
269.999558
  0
LINE
  5
890
  8
BLACK
  6
CONTINUOUS
 10
240.547322
 20
-66.587939
 30
0.0
 11
240.143222
 21
-66.587939
 31
0.0
  0
ARC
  5
891
  8
BLACK
 10
266.721287
 20
-55.959889
 30
0.0
 40
1.074990000569773
 50
22.023705
 51
89.998135
  0
ARC
  5
892
  8
BLACK
 10
269.443987
 20
-65.162859
 30
0.0
 40
1.425125000561354
 50
269.526312
 51
359.998392
  0
ARC
  5
893
  8
BLACK
 10
268.578547
 20
-55.208599
 30
0.0
 40
0.9284600003365787
 50
202.024521
 51
269.998457
  0
LINE
  5
894
  8
BLACK
  6
CONTINUOUS
 10
238.718232
 20
-65.162939
 30
0.0
 11
238.718232
 21
-57.562199
 31
0.0
  0
LINE
  5
895
  8
BLACK
  6
CONTINUOUS
 10
242.866122
 20
-54.88491
 30
0.0
 11
242.866122
 21
-54.884899
 31
0.0
  0
ARC
  5
896
  8
BLACK
 10
269.444147
 20
-57.561999
 30
0.0
 40
1.424940000219307
 50
359.997587
 51
90.001005
  0
LINE
  5
897
  8
BLACK
  6
CONTINUOUS
 10
268.578522
 20
-56.137059
 30
0.0
 11
269.444122
 21
-56.137059
 31
0.0
  0
LINE
  5
898
  8
BLACK
  6
CONTINUOUS
 10
270.869112
 20
-57.562059
 30
0.0
 11
270.869112
 21
-65.162899
 31
0.0
  0
ARC
  5
899
  8
BLACK
 10
265.669087
 20
-67.049329
 30
0.0
 40
1.875082291400833
 50
270.002597
 51
339.450982
  0
ARC
  5
89A
  8
BLACK
 10
240.547298
 20
-68.312847
 30
0.0
 40
1.724908000166965
 50
20.545478
 51
89.999203
  0
LINE
  5
89B
  8
BLACK
  6
CONTINUOUS
 10
241.008822
 20
-56.137047
 30
0.0
 11
241.008822
 21
-56.137059
 31
0.0
  0
LINE
  5
89C
  8
BLACK
  6
CONTINUOUS
 10
265.669172
 20
-68.924409
 30
0.0
 11
243.918322
 21
-68.924409
 31
0.0
  0
LINE
  5
89D
  8
BLACK
  6
CONTINUOUS
 10
242.866122
 20
-54.884899
 30
0.0
 11
266.721322
 21
-54.884899
 31
0.0
  0
LINE
  5
89E
  8
BLACK
  6
CONTINUOUS
 10
269.432205
 20
-66.587939
 30
0.0
 11
269.040072
 21
-66.587939
 31
0.0
  0
ARC
  5
89F
  8
BLACK
 10
269.040077
 20
-68.312879
 30
0.0
 40
1.724936068561673
 50
90.000166
 51
159.454082
  0
ARC
  5
8A0
  8
BLACK
 10
242.866021
 20
-55.95985
 30
0.0
 40
1.074940192811674
 50
89.994617
 51
157.977502
  0
ARC
  5
8A1
  8
BLACK
 10
243.918209
 20
-67.049414
 30
0.0
 40
1.874995003405076
 50
200.546922
 51
270.003453
  0
LINE
  5
8A2
  8
BLACK
  6
CONTINUOUS
 10
240.155259
 20
-56.137059
 30
0.0
 11
241.008822
 21
-56.137059
 31
0.0
  0
ARC
  5
8A4
  8
BLACK
 10
241.008871
 20
-55.20867
 30
0.0
 40
0.9283764359148717
 50
269.996976
 51
337.977828
  0
ARC
  5
8A6
  8
BLACK
 10
240.143314
 20
-57.562091
 30
0.0
 40
1.425082004092396
 50
89.519743
 51
180.004342
  0
LINE
  5
8A7
  8
BLACK
  6
CONTINUOUS
 10
267.212497
 20
-49.912499
 30
0.0
 11
256.662497
 21
-49.912499
 31
0.0
  0
ARC
  5
8A8
  8
BLACK
 10
267.212497
 20
-37.887499
 30
0.0
 40
2.075
 50
0.0
 51
90.0
  0
ARC
  5
8A9
  8
BLACK
 10
256.662501
 20
-37.887503
 30
0.0
 40
2.075004000003855
 50
90.000138
 51
179.99989
  0
ARC
  5
8AA
  8
BLACK
 10
256.662499
 20
-47.837497
 30
0.0
 40
2.075002000000964
 50
180.000083
 51
269.999945
  0
LINE
  5
8AB
  8
BLACK
  6
CONTINUOUS
 10
267.212497
 20
-35.812499
 30
0.0
 11
256.662496
 21
-35.812499
 31
0.0
  0
LINE
  5
8AC
  8
BLACK
  6
CONTINUOUS
 10
254.587497
 20
-37.887499
 30
0.0
 11
254.587497
 21
-47.8375
 31
0.0
  0
LINE
  5
8AD
  8
BLACK
  6
CONTINUOUS
 10
269.287497
 20
-37.887499
 30
0.0
 11
269.287497
 21
-47.837499
 31
0.0
  0
ARC
  5
8AE
  8
BLACK
 10
267.212497
 20
-47.837499
 30
0.0
 40
2.075
 50
270.0
 51
0.0
  0
ARC
  5
8AF
  8
BLACK
 10
184.774996
 20
-94.137498
 30
0.0
 40
1.074999000000465
 50
89.999947
 51
180.000053
  0
ARC
  5
8B0
  8
BLACK
 10
184.774996
 20
-105.8875
 30
0.0
 40
1.074999000000465
 50
179.999947
 51
270.000053
  0
ARC
  5
8B1
  8
BLACK
 10
196.224997
 20
-94.137499
 30
0.0
 40
1.075
 50
0.0
 51
90.0
  0
LINE
  5
8B2
  8
BLACK
  6
CONTINUOUS
 10
184.774997
 20
-93.062499
 30
0.0
 11
196.224997
 21
-93.062499
 31
0.0
  0
ARC
  5
8B3
  8
BLACK
 10
196.224997
 20
-105.887499
 30
0.0
 40
1.075
 50
270.0
 51
0.0
  0
LINE
  5
8B4
  8
BLACK
  6
CONTINUOUS
 10
183.699997
 20
-105.887499
 30
0.0
 11
183.699997
 21
-94.137499
 31
0.0
  0
LINE
  5
8B5
  8
BLACK
  6
CONTINUOUS
 10
197.299997
 20
-94.137499
 30
0.0
 11
197.299997
 21
-105.887499
 31
0.0
  0
LINE
  5
8B6
  8
BLACK
  6
CONTINUOUS
 10
196.224997
 20
-106.962499
 30
0.0
 11
184.774997
 21
-106.962499
 31
0.0
  0
ARC
  5
8B7
  8
BLACK
 10
70.474996
 20
-94.137498
 30
0.0
 40
1.074999000000465
 50
89.999947
 51
180.000053
  0
ARC
  5
8B8
  8
BLACK
 10
70.474996
 20
-105.8875
 30
0.0
 40
1.074999000000465
 50
179.999947
 51
270.000053
  0
ARC
  5
8B9
  8
BLACK
 10
81.924997
 20
-94.137499
 30
0.0
 40
1.075
 50
0.0
 51
90.0
  0
LINE
  5
8BA
  8
BLACK
  6
CONTINUOUS
 10
70.474997
 20
-93.062499
 30
0.0
 11
81.924997
 21
-93.062499
 31
0.0
  0
ARC
  5
8BB
  8
BLACK
 10
81.924997
 20
-105.887499
 30
0.0
 40
1.075
 50
270.0
 51
0.0
  0
LINE
  5
8BC
  8
BLACK
  6
CONTINUOUS
 10
69.399997
 20
-105.887499
 30
0.0
 11
69.399997
 21
-94.137499
 31
0.0
  0
LINE
  5
8BD
  8
BLACK
  6
CONTINUOUS
 10
82.999997
 20
-94.137499
 30
0.0
 11
82.999997
 21
-105.887499
 31
0.0
  0
LINE
  5
8BE
  8
BLACK
  6
CONTINUOUS
 10
81.924997
 20
-106.962499
 30
0.0
 11
70.474997
 21
-106.962499
 31
0.0
  0
LINE
  5
8BF
  8
BLACK
  6
CONTINUOUS
 10
267.212497
 20
-107.062499
 30
0.0
 11
256.662497
 21
-107.062499
 31
0.0
  0
ARC
  5
8C0
  8
BLACK
 10
267.212497
 20
-95.037499
 30
0.0
 40
2.075
 50
0.0
 51
90.0
  0
ARC
  5
8C1
  8
BLACK
 10
256.662501
 20
-95.037503
 30
0.0
 40
2.075004000003855
 50
90.000138
 51
179.99989
  0
ARC
  5
8C2
  8
BLACK
 10
256.662499
 20
-104.987497
 30
0.0
 40
2.075002000000964
 50
180.000083
 51
269.999945
  0
LINE
  5
8C3
  8
BLACK
  6
CONTINUOUS
 10
267.212497
 20
-92.962499
 30
0.0
 11
256.662496
 21
-92.962499
 31
0.0
  0
LINE
  5
8C4
  8
BLACK
  6
CONTINUOUS
 10
254.587497
 20
-95.037499
 30
0.0
 11
254.587497
 21
-104.9875
 31
0.0
  0
LINE
  5
8C5
  8
BLACK
  6
CONTINUOUS
 10
269.287497
 20
-95.037499
 30
0.0
 11
269.287497
 21
-104.987499
 31
0.0
  0
ARC
  5
8C6
  8
BLACK
 10
267.212497
 20
-104.987499
 30
0.0
 40
2.075
 50
270.0
 51
0.0
  0
LINE
  5
8C7
  8
BLACK
  6
CONTINUOUS
 10
243.399997
 20
-107.062499
 30
0.0
 11
232.849997
 21
-107.062499
 31
0.0
  0
ARC
  5
8C8
  8
BLACK
 10
243.399997
 20
-95.037499
 30
0.0
 40
2.075
 50
0.0
 51
90.0
  0
ARC
  5
8C9
  8
BLACK
 10
232.850001
 20
-95.037503
 30
0.0
 40
2.075004000003855
 50
90.000138
 51
179.99989
  0
ARC
  5
8CA
  8
BLACK
 10
232.849999
 20
-104.987497
 30
0.0
 40
2.075002000000964
 50
180.000083
 51
269.999945
  0
LINE
  5
8CB
  8
BLACK
  6
CONTINUOUS
 10
243.399997
 20
-92.962499
 30
0.0
 11
232.849996
 21
-92.962499
 31
0.0
  0
LINE
  5
8CC
  8
BLACK
  6
CONTINUOUS
 10
230.774997
 20
-95.037499
 30
0.0
 11
230.774997
 21
-104.9875
 31
0.0
  0
LINE
  5
8CD
  8
BLACK
  6
CONTINUOUS
 10
245.474997
 20
-95.037499
 30
0.0
 11
245.474997
 21
-104.987499
 31
0.0
  0
ARC
  5
8CE
  8
BLACK
 10
243.399997
 20
-104.987499
 30
0.0
 40
2.075
 50
270.0
 51
0.0
  0
LINE
  5
8CF
  8
BLACK
  6
CONTINUOUS
 10
219.587497
 20
-107.062499
 30
0.0
 11
209.037497
 21
-107.062499
 31
0.0
  0
ARC
  5
8D0
  8
BLACK
 10
219.587497
 20
-95.037499
 30
0.0
 40
2.075
 50
0.0
 51
90.0
  0
ARC
  5
8D1
  8
BLACK
 10
209.037501
 20
-95.037503
 30
0.0
 40
2.075004000003855
 50
90.000138
 51
179.99989
  0
ARC
  5
8D2
  8
BLACK
 10
209.037499
 20
-104.987497
 30
0.0
 40
2.075002000000964
 50
180.000083
 51
269.999945
  0
LINE
  5
8D3
  8
BLACK
  6
CONTINUOUS
 10
219.587497
 20
-92.962499
 30
0.0
 11
209.037496
 21
-92.962499
 31
0.0
  0
LINE
  5
8D4
  8
BLACK
  6
CONTINUOUS
 10
206.962497
 20
-95.037499
 30
0.0
 11
206.962497
 21
-104.9875
 31
0.0
  0
LINE
  5
8D5
  8
BLACK
  6
CONTINUOUS
 10
221.662497
 20
-95.037499
 30
0.0
 11
221.662497
 21
-104.987499
 31
0.0
  0
ARC
  5
8D6
  8
BLACK
 10
219.587497
 20
-104.987499
 30
0.0
 40
2.075
 50
270.0
 51
0.0
  0
LINE
  5
8D7
  8
BLACK
  6
CONTINUOUS
 10
138.624997
 20
-107.062499
 30
0.0
 11
128.074997
 21
-107.062499
 31
0.0
  0
ARC
  5
8D8
  8
BLACK
 10
138.624997
 20
-95.037499
 30
0.0
 40
2.075
 50
0.0
 51
90.0
  0
ARC
  5
8D9
  8
BLACK
 10
128.075001
 20
-95.037503
 30
0.0
 40
2.075004000003855
 50
90.000138
 51
179.99989
  0
ARC
  5
8DA
  8
BLACK
 10
128.074999
 20
-104.987497
 30
0.0
 40
2.075002000000964
 50
180.000083
 51
269.999945
  0
LINE
  5
8DB
  8
BLACK
  6
CONTINUOUS
 10
138.624997
 20
-92.962499
 30
0.0
 11
128.074996
 21
-92.962499
 31
0.0
  0
LINE
  5
8DC
  8
BLACK
  6
CONTINUOUS
 10
125.999997
 20
-95.037499
 30
0.0
 11
125.999997
 21
-104.9875
 31
0.0
  0
LINE
  5
8DD
  8
BLACK
  6
CONTINUOUS
 10
140.699997
 20
-95.037499
 30
0.0
 11
140.699997
 21
-104.987499
 31
0.0
  0
ARC
  5
8DE
  8
BLACK
 10
138.624997
 20
-104.987499
 30
0.0
 40
2.075
 50
270.0
 51
0.0
  0
LINE
  5
8DF
  8
BLACK
  6
CONTINUOUS
 10
57.662497
 20
-107.062499
 30
0.0
 11
47.112497
 21
-107.062499
 31
0.0
  0
ARC
  5
8E0
  8
BLACK
 10
57.662497
 20
-95.037499
 30
0.0
 40
2.075
 50
0.0
 51
90.0
  0
ARC
  5
8E1
  8
BLACK
 10
47.112501
 20
-95.037503
 30
0.0
 40
2.075004000003855
 50
90.000138
 51
179.99989
  0
ARC
  5
8E2
  8
BLACK
 10
47.112499
 20
-104.987497
 30
0.0
 40
2.075002000000964
 50
180.000083
 51
269.999945
  0
LINE
  5
8E3
  8
BLACK
  6
CONTINUOUS
 10
57.662497
 20
-92.962499
 30
0.0
 11
47.112496
 21
-92.962499
 31
0.0
  0
LINE
  5
8E4
  8
BLACK
  6
CONTINUOUS
 10
45.037497
 20
-95.037499
 30
0.0
 11
45.037497
 21
-104.9875
 31
0.0
  0
LINE
  5
8E5
  8
BLACK
  6
CONTINUOUS
 10
59.737497
 20
-95.037499
 30
0.0
 11
59.737497
 21
-104.987499
 31
0.0
  0
ARC
  5
8E6
  8
BLACK
 10
57.662497
 20
-104.987499
 30
0.0
 40
2.075
 50
270.0
 51
0.0
  0
LINE
  5
8E7
  8
BLACK
  6
CONTINUOUS
 10
33.849997
 20
-107.062499
 30
0.0
 11
23.299997
 21
-107.062499
 31
0.0
  0
ARC
  5
8E8
  8
BLACK
 10
33.849997
 20
-95.037499
 30
0.0
 40
2.075
 50
0.0
 51
90.0
  0
ARC
  5
8E9
  8
BLACK
 10
23.300001
 20
-95.037503
 30
0.0
 40
2.075004000003855
 50
90.000138
 51
179.99989
  0
ARC
  5
8EA
  8
BLACK
 10
23.299999
 20
-104.987497
 30
0.0
 40
2.075002000000964
 50
180.000083
 51
269.999945
  0
LINE
  5
8EB
  8
BLACK
  6
CONTINUOUS
 10
33.849997
 20
-92.962499
 30
0.0
 11
23.299996
 21
-92.962499
 31
0.0
  0
LINE
  5
8EC
  8
BLACK
  6
CONTINUOUS
 10
21.224997
 20
-95.037499
 30
0.0
 11
21.224997
 21
-104.9875
 31
0.0
  0
LINE
  5
8ED
  8
BLACK
  6
CONTINUOUS
 10
35.924997
 20
-95.037499
 30
0.0
 11
35.924997
 21
-104.987499
 31
0.0
  0
ARC
  5
8EE
  8
BLACK
 10
33.849997
 20
-104.987499
 30
0.0
 40
2.075
 50
270.0
 51
0.0
  0
LINE
  5
8EF
  8
BLACK
  6
CONTINUOUS
 10
10.037497
 20
-107.062499
 30
0.0
 11
-0.512503
 21
-107.062499
 31
0.0
  0
ARC
  5
8F0
  8
BLACK
 10
10.037497
 20
-95.037499
 30
0.0
 40
2.075
 50
0.0
 51
90.0
  0
ARC
  5
8F1
  8
BLACK
 10
-0.512499
 20
-95.037503
 30
0.0
 40
2.075004000003855
 50
90.000138
 51
179.99989
  0
ARC
  5
8F2
  8
BLACK
 10
-0.512501
 20
-104.987497
 30
0.0
 40
2.075002000000964
 50
180.000083
 51
269.999945
  0
LINE
  5
8F3
  8
BLACK
  6
CONTINUOUS
 10
10.037497
 20
-92.962499
 30
0.0
 11
-0.512504
 21
-92.962499
 31
0.0
  0
LINE
  5
8F4
  8
BLACK
  6
CONTINUOUS
 10
-2.587503
 20
-95.037499
 30
0.0
 11
-2.587503
 21
-104.9875
 31
0.0
  0
LINE
  5
8F5
  8
BLACK
  6
CONTINUOUS
 10
12.112497
 20
-95.037499
 30
0.0
 11
12.112497
 21
-104.987499
 31
0.0
  0
ARC
  5
8F6
  8
BLACK
 10
10.037497
 20
-104.987499
 30
0.0
 40
2.075
 50
270.0
 51
0.0
  0
CIRCLE
  5
E18
  8
0
 10
19.049998
 20
0.0
 30
0.0
 40
1.0
  0
CIRCLE
  5
E19
  8
0
 10
-0.000002
 20
-11.90625
 30
0.0
 40
1.0
  0
CIRCLE
  5
E1A
  8
0
 10
66.674998
 20
0.0
 30
0.0
 40
1.0
  0
CIRCLE
  5
E1B
  8
0
 10
109.537498
 20
0.0
 30
0.0
 40
1.0
  0
CIRCLE
  5
E1C
  8
0
 10
152.399998
 20
0.0
 30
0.0
 40
1.0
  0
CIRCLE
  5
E1D
  8
0
 10
195.262498
 20
0.0
 30
0.0
 40
1.0
  0
CIRCLE
  5
E1E
  8
0
 10
257.174998
 20
0.0
 30
0.0
 40
1.0
  0
CIRCLE
  5
E1F
  8
0
 10
319.087498
 20
0.0
 30
0.0
 40
1.0
  0
CIRCLE
  5
E20
  8
0
 10
300.037498
 20
-23.8125
 30
0.0
 40
1.0
  0
CIRCLE
  5
E21
  8
0
 10
277.415623
 20
-23.8125
 30
0.0
 40
1.0
  0
CIRCLE
  5
E22
  8
0
 10
250.031248
 20
-42.8625
 30
0.0
 40
1.0
  0
CIRCLE
  5
E23
  8
0
 10
319.087498
 20
-42.8625
 30
0.0
 40
1.0
  0
CIRCLE
  5
E24
  8
0
 10
219.074998
 20
-23.8125
 30
0.0
 40
1.0
  0
CIRCLE
  5
E25
  8
0
 10
142.874998
 20
-23.8125
 30
0.0
 40
1.0
  0
CIRCLE
  5
E26
  8
0
 10
9.524998
 20
-23.8125
 30
0.0
 40
1.0
  0
CIRCLE
  5
E27
  8
0
 10
66.674998
 20
-23.8125
 30
0.0
 40
1.0
  0
CIRCLE
  5
E28
  8
0
 10
-7.143752
 20
-61.9125
 30
0.0
 40
1.0
  0
CIRCLE
  5
E29
  8
0
 10
16.728243
 20
-42.86411
 30
0.0
 40
1.0
  0
CIRCLE
  5
E2A
  8
0
 10
95.249998
 20
-42.8625
 30
0.0
 40
1.0
  0
CIRCLE
  5
E2B
  8
0
 10
42.862498
 20
-61.9125
 30
0.0
 40
1.0
  0
CIRCLE
  5
E2C
  8
0
 10
190.499998
 20
-42.8625
 30
0.0
 40
1.0
  0
CIRCLE
  5
E2D
  8
0
 10
138.112498
 20
-61.9125
 30
0.0
 40
1.0
  0
CIRCLE
  5
E2E
  8
0
 10
234.553123
 20
-61.9125
 30
0.0
 40
1.0
  0
CIRCLE
  5
E2F
  8
0
 10
270.271873
 20
-80.9625
 30
0.0
 40
1.0
  0
CIRCLE
  5
E30
  8
0
 10
328.612498
 20
-80.9625
 30
0.0
 40
1.0
  0
CIRCLE
  5
E31
  8
0
 10
319.087498
 20
-100.0125
 30
0.0
 40
1.0
  0
CIRCLE
  5
E32
  8
0
 10
152.321873
 20
-100.0125
 30
0.0
 40
1.0
  0
CIRCLE
  5
E33
  8
0
 10
185.737498
 20
-80.9625
 30
0.0
 40
1.0
  0
CIRCLE
  5
E34
  8
0
 10
111.918748
 20
-100.0125
 30
0.0
 40
1.0
  0
CIRCLE
  5
E35
  8
0
 10
61.912498
 20
-100.0125
 30
0.0
 40
1.0
  0
CIRCLE
  5
E36
  8
0
 10
15.628123
 20
-100.0125
 30
0.0
 40
1.0
  0
CIRCLE
  5
E37
  8
0
 10
32.146873
 20
-80.9625
 30
0.0
 40
1.0
  0
CIRCLE
  5
E39
  8
0
 10
71.437498
 20
-80.9625
 30
0.0
 40
1.0
  0
ARC
  5
E3A
  8
0
 10
286.682152
 20
-69.366339
 30
0.0
 40
1.2
 50
200.252447
 51
289.261133
  0
ARC
  5
E3B
  8
0
 10
309.562498
 20
-134.84471
 30
0.0
 40
68.16084935963227
 50
70.738867
 51
109.261133
  0
ARC
  5
E3C
  8
0
 10
309.562498
 20
-134.84471
 30
0.0
 40
81.58604896781617
 50
70.602894
 51
109.397106
  0
ARC
  5
E3D
  8
0
 10
332.442844
 20
-69.366339
 30
0.0
 40
1.2
 50
250.738867
 51
339.747553
  0
ARC
  5
E3E
  8
0
 10
336.259789
 20
-59.021419
 30
0.0
 40
1.2
 50
339.747553
 51
70.602894
  0
LINE
  5
E3F
  8
0
 10
333.568656
 20
-69.781727
 30
0.0
 11
337.385601
 21
-59.436807
 31
0.0
  0
ARC
  5
E40
  8
0
 10
282.865207
 20
-59.021419
 30
0.0
 40
1.2
 50
109.397106
 51
200.252447
  0
LINE
  5
E41
  8
0
 10
285.55634
 20
-69.781727
 30
0.0
 11
281.739395
 21
-59.436807
 31
0.0
  0
CIRCLE
  5
E42
  8
0
 10
-251.221873
 20
-100.0125
 30
0.0
 40
1.0
210
0.0
220
0.0
230
-1.0
  0
CIRCLE
  5
E43
  8
0
 10
203.596873
 20
-100.0125
 30
0.0
 40
1.0
  0
LINE
  5
E44
  8
0
 10
-0.043752
 20
-111.5125
 30
0.0
 11
-0.043752
 21
-114.0125
 31
0.0
  0
LINE
  5
E45
  8
0
 10
-5.043752
 20
-114.0125
 30
0.0
 11
-5.043752
 21
-111.5125
 31
0.0
  0
ARC
  5
E46
  8
0
 10
-2.543752
 20
-114.0125
 30
0.0
 40
2.50000000126
 50
180.0
 51
0.0
  0
ARC
  5
E47
  8
0
 10
-6.543752
 20
-111.5125
 30
0.0
 40
1.49999999974
 50
0.0
 51
90.0
  0
ARC
  5
E48
  8
0
 10
1.456248
 20
-111.5125
 30
0.0
 40
1.49999999974
 50
90.0
 51
180.0
  0
LINE
  5
E49
  8
0
 10
20.456248
 20
10.25
 30
0.0
 11
20.456248
 21
11.25
 31
0.0
  0
LINE
  5
E4A
  8
0
 10
30.456248
 20
11.25
 30
0.0
 11
30.456248
 21
10.25
 31
0.0
  0
LINE
  5
E4B
  8
0
 10
30.456248
 20
-110.2625
 30
0.0
 11
30.456248
 21
-111.2625
 31
0.0
  0
LINE
  5
E4C
  8
0
 10
93.956248
 20
14.0
 30
0.0
 11
93.956248
 21
12.5
 31
0.0
  0
LINE
  5
E4D
  8
0
 10
93.956248
 20
-112.5125
 30
0.0
 11
93.956248
 21
-114.0125
 31
0.0
  0
LINE
  5
E4E
  8
0
 10
6.456248
 20
-115.0125
 30
0.0
 11
44.456248
 21
-115.0125
 31
0.0
  0
LINE
  5
E4F
  8
0
 10
94.956248
 20
-115.0125
 30
0.0
 11
134.656248
 21
-115.0125
 31
0.0
  0
LINE
  5
E50
  8
0
 10
284.456248
 20
-115.0125
 30
0.0
 11
322.456248
 21
-115.0125
 31
0.0
  0
LINE
  5
E51
  8
0
 10
322.456248
 20
-111.5125
 30
0.0
 11
308.706248
 21
-111.5125
 31
0.0
  0
LINE
  5
E52
  8
0
 10
298.206248
 20
-111.5125
 30
0.0
 11
284.456248
 21
-111.5125
 31
0.0
  0
LINE
  5
E53
  8
0
 10
134.656248
 20
-111.5125
 30
0.0
 11
120.056248
 21
-111.5125
 31
0.0
  0
LINE
  5
E54
  8
0
 10
109.556248
 20
-111.5125
 30
0.0
 11
94.956248
 21
-111.5125
 31
0.0
  0
LINE
  5
E55
  8
0
 10
44.456248
 20
-111.5125
 30
0.0
 11
30.706248
 21
-111.5125
 31
0.0
  0
LINE
  5
E56
  8
0
 10
19.956248
 20
-111.5125
 30
0.0
 11
6.456248
 21
-111.5125
 31
0.0
  0
LINE
  5
E57
  8
0
 10
109.806248
 20
-111.2625
 30
0.0
 11
109.806248
 21
-110.2625
 31
0.0
  0
ARC
  5
E58
  8
0
 10
109.556248
 20
-110.2625
 30
0.0
 40
0.25
 50
0.0
 51
90.0
  0
LINE
  5
E59
  8
0
 10
109.806248
 20
10.25
 30
0.0
 11
109.806248
 21
11.25
 31
0.0
  0
ARC
  5
E5A
  8
0
 10
109.556248
 20
10.25
 30
0.0
 40
0.25
 50
270.0
 51
0.0
  0
LINE
  5
E5B
  8
0
 10
335.956248
 20
-110.0125
 30
0.0
 11
335.456161
 21
-110.0125
 31
0.0
  0
ARC
  5
E5C
  8
0
 10
308.706248
 20
-110.2625
 30
0.0
 40
0.25
 50
90.0
 51
180.0
  0
ARC
  5
E5D
  8
0
 10
120.056248
 20
-110.2625
 30
0.0
 40
0.25
 50
90.0
 51
180.0
  0
ARC
  5
E5E
  8
0
 10
30.706248
 20
-110.2625
 30
0.0
 40
0.25
 50
90.0
 51
180.0
  0
LINE
  5
E5F
  8
0
 10
119.806248
 20
11.25
 30
0.0
 11
119.806248
 21
10.25
 31
0.0
  0
LINE
  5
E60
  8
0
 10
119.806248
 20
-110.2625
 30
0.0
 11
119.806248
 21
-111.2625
 31
0.0
  0
LINE
  5
E61
  8
0
 10
135.656248
 20
-114.0125
 30
0.0
 11
135.656248
 21
-112.5125
 31
0.0
  0
LINE
  5
E62
  8
0
 10
135.656248
 20
12.5
 30
0.0
 11
135.656248
 21
14.0
 31
0.0
  0
LINE
  5
E63
  8
0
 10
193.256248
 20
14.0
 30
0.0
 11
193.256248
 21
12.5
 31
0.0
  0
LINE
  5
E64
  8
0
 10
209.106248
 20
10.25
 30
0.0
 11
209.106248
 21
11.25
 31
0.0
  0
ARC
  5
E65
  8
0
 10
208.856248
 20
10.25
 30
0.0
 40
0.25
 50
270.0
 51
0.0
  0
LINE
  5
E66
  8
0
 10
219.106248
 20
11.25
 30
0.0
 11
219.106248
 21
10.25
 31
0.0
  0
ARC
  5
E67
  8
0
 10
20.206248
 20
10.25
 30
0.0
 40
0.25
 50
270.0
 51
0.0
  0
ARC
  5
E68
  8
0
 10
30.706248
 20
10.25
 30
0.0
 40
0.25
 50
180.0
 51
270.0
  0
ARC
  5
E69
  8
0
 10
120.056248
 20
10.25
 30
0.0
 40
0.25
 50
180.0
 51
270.0
  0
ARC
  5
E6A
  8
0
 10
219.356248
 20
10.25
 30
0.0
 40
0.25
 50
180.0
 51
270.0
  0
ARC
  5
E6B
  8
0
 10
308.706248
 20
10.25
 30
0.0
 40
0.25
 50
180.0
 51
270.0
  0
LINE
  5
E6C
  8
0
 10
6.456248
 20
11.5
 30
0.0
 11
20.206248
 21
11.5
 31
0.0
  0
LINE
  5
E6D
  8
0
 10
30.706248
 20
11.5
 30
0.0
 11
44.456248
 21
11.5
 31
0.0
  0
LINE
  5
E6E
  8
0
 10
94.956248
 20
11.5
 30
0.0
 11
109.556248
 21
11.5
 31
0.0
  0
LINE
  5
E6F
  8
0
 10
120.056248
 20
11.5
 30
0.0
 11
134.656248
 21
11.5
 31
0.0
  0
LINE
  5
E70
  8
0
 10
194.256248
 20
11.5
 30
0.0
 11
208.856248
 21
11.5
 31
0.0
  0
LINE
  5
E71
  8
0
 10
219.356248
 20
11.5
 30
0.0
 11
233.956248
 21
11.5
 31
0.0
  0
LINE
  5
E72
  8
0
 10
284.456248
 20
11.5
 30
0.0
 11
298.206248
 21
11.5
 31
0.0
  0
LINE
  5
E73
  8
0
 10
308.706248
 20
11.5
 30
0.0
 11
322.456248
 21
11.5
 31
0.0
  0
LINE
  5
E74
  8
0
 10
234.956248
 20
12.5
 30
0.0
 11
234.956248
 21
14.0
 31
0.0
  0
LINE
  5
E75
  8
0
 10
322.456248
 20
15.0
 30
0.0
 11
284.456248
 21
15.0
 31
0.0
  0
LINE
  5
E76
  8
0
 10
233.956248
 20
15.0
 30
0.0
 11
194.256248
 21
15.0
 31
0.0
  0
LINE
  5
E77
  8
0
 10
134.656248
 20
15.0
 30
0.0
 11
94.956248
 21
15.0
 31
0.0
  0
LINE
  5
E78
  8
0
 10
44.456248
 20
15.0
 30
0.0
 11
6.456248
 21
15.0
 31
0.0
  0
LINE
  5
E79
  8
0
 10
298.456248
 20
-111.2625
 30
0.0
 11
298.456248
 21
-110.2625
 31
0.0
  0
ARC
  5
E7A
  8
0
 10
298.206248
 20
-110.2625
 30
0.0
 40
0.25
 50
0.0
 51
90.0
  0
LINE
  5
E7B
  8
0
 10
298.456248
 20
10.25
 30
0.0
 11
298.456248
 21
11.25
 31
0.0
  0
ARC
  5
E7C
  8
0
 10
298.206248
 20
10.25
 30
0.0
 40
0.25
 50
270.0
 51
0.0
  0
LINE
  5
E7D
  8
0
 10
308.456248
 20
11.25
 30
0.0
 11
308.456248
 21
10.25
 31
0.0
  0
LINE
  5
E7E
  8
0
 10
308.456248
 20
-110.2625
 30
0.0
 11
308.456248
 21
-111.2625
 31
0.0
  0
ARC
  5
E7F
  8
0
 10
30.706248
 20
-111.2625
 30
0.0
 40
0.25000000038
 50
180.0
 51
270.0
  0
ARC
  5
E80
  8
0
 10
134.656248
 20
-112.5125
 30
0.0
 40
0.9999999989799999
 50
0.0
 51
90.0
  0
ARC
  5
E81
  8
0
 10
134.656248
 20
-114.0125
 30
0.0
 40
0.9999999989799999
 50
270.0
 51
0.0
  0
ARC
  5
E82
  8
0
 10
94.956248
 20
-114.0125
 30
0.0
 40
0.9999999989799999
 50
180.0
 51
270.0
  0
ARC
  5
E83
  8
0
 10
94.956248
 20
-112.5125
 30
0.0
 40
0.9999999989799999
 50
90.0
 51
180.0
  0
ARC
  5
E84
  8
0
 10
109.556248
 20
-111.2625
 30
0.0
 40
0.25000000038
 50
270.0
 51
0.0
  0
ARC
  5
E85
  8
0
 10
120.056248
 20
-111.2625
 30
0.0
 40
0.25000000038
 50
180.0
 51
270.0
  0
ARC
  5
E86
  8
0
 10
20.206248
 20
11.25
 30
0.0
 40
0.25000000038
 50
0.0
 51
90.0
  0
ARC
  5
E87
  8
0
 10
30.706248
 20
11.25
 30
0.0
 40
0.25000000038
 50
90.0
 51
180.0
  0
ARC
  5
E88
  8
0
 10
94.956248
 20
12.5
 30
0.0
 40
0.9999999989799999
 50
180.0
 51
270.0
  0
ARC
  5
E89
  8
0
 10
94.956248
 20
14.0
 30
0.0
 40
0.9999999989799999
 50
90.0
 51
180.0
  0
ARC
  5
E8A
  8
0
 10
109.556248
 20
11.25
 30
0.0
 40
0.25000000038
 50
0.0
 51
90.0
  0
ARC
  5
E8B
  8
0
 10
134.656248
 20
14.0
 30
0.0
 40
0.9999999989799999
 50
0.0
 51
90.0
  0
ARC
  5
E8C
  8
0
 10
134.656248
 20
12.5
 30
0.0
 40
0.9999999989799999
 50
270.0
 51
0.0
  0
ARC
  5
E8D
  8
0
 10
120.056248
 20
11.25
 30
0.0
 40
0.25000000038
 50
90.0
 51
180.0
  0
ARC
  5
E8E
  8
0
 10
298.206248
 20
-111.2625
 30
0.0
 40
0.25000000038
 50
270.0
 51
0.0
  0
ARC
  5
E8F
  8
0
 10
308.706248
 20
-111.2625
 30
0.0
 40
0.25000000038
 50
180.0
 51
270.0
  0
ARC
  5
E90
  8
0
 10
194.256248
 20
12.5
 30
0.0
 40
0.9999999989799999
 50
180.0
 51
270.0
  0
ARC
  5
E91
  8
0
 10
194.256248
 20
14.0
 30
0.0
 40
0.9999999989799999
 50
90.0
 51
180.0
  0
ARC
  5
E92
  8
0
 10
208.856248
 20
11.25
 30
0.0
 40
0.25000000038
 50
0.0
 51
90.0
  0
ARC
  5
E93
  8
0
 10
233.956248
 20
14.0
 30
0.0
 40
0.9999999989799999
 50
0.0
 51
90.0
  0
ARC
  5
E94
  8
0
 10
233.956248
 20
12.5
 30
0.0
 40
0.9999999989799999
 50
270.0
 51
0.0
  0
ARC
  5
E95
  8
0
 10
219.356248
 20
11.25
 30
0.0
 40
0.25000000038
 50
90.0
 51
180.0
  0
ARC
  5
E96
  8
0
 10
298.206248
 20
11.25
 30
0.0
 40
0.25000000038
 50
0.0
 51
90.0
  0
ARC
  5
E97
  8
0
 10
308.706248
 20
11.25
 30
0.0
 40
0.25000000038
 50
90.0
 51
180.0
  0
LINE
  5
E98
  8
0
 10
334.206248
 20
14.0
 30
0.0
 11
334.206248
 21
11.5
 31
0.0
  0
LINE
  5
E99
  8
0
 10
333.956248
 20
-111.5125
 30
0.0
 11
333.956248
 21
-114.0125
 31
0.0
  0
LINE
  5
E9A
  8
0
 10
328.956248
 20
-114.0125
 30
0.0
 11
328.956248
 21
-111.5125
 31
0.0
  0
LINE
  5
E9B
  8
0
 10
328.706248
 20
11.5
 30
0.0
 11
328.706248
 21
14.0
 31
0.0
  0
LINE
  5
E9C
  8
0
 10
188.956248
 20
14.0
 30
0.0
 11
188.956248
 21
11.5
 31
0.0
  0
LINE
  5
E9D
  8
0
 10
183.956248
 20
-114.0125
 30
0.0
 11
183.956248
 21
-111.5125
 31
0.0
  0
LINE
  5
E9E
  8
0
 10
183.956248
 20
11.5
 30
0.0
 11
183.956248
 21
14.0
 31
0.0
  0
LINE
  5
E9F
  8
0
 10
67.206248
 20
14.0
 30
0.0
 11
67.206248
 21
11.5
 31
0.0
  0
LINE
  5
EA0
  8
0
 10
66.956248
 20
-111.5125
 30
0.0
 11
66.956248
 21
-114.0125
 31
0.0
  0
LINE
  5
EA1
  8
0
 10
61.956248
 20
-114.0125
 30
0.0
 11
61.956248
 21
-111.5125
 31
0.0
  0
LINE
  5
EA2
  8
0
 10
61.706248
 20
11.5
 30
0.0
 11
61.706248
 21
14.0
 31
0.0
  0
LINE
  5
EA3
  8
0
 10
-0.043752
 20
14.0
 30
0.0
 11
-0.043752
 21
11.5
 31
0.0
  0
LINE
  5
EA4
  8
0
 10
-0.043752
 20
-111.5125
 30
0.0
 11
-0.043752
 21
-114.0125
 31
0.0
  0
LINE
  5
EA5
  8
0
 10
-5.043752
 20
-114.0125
 30
0.0
 11
-5.043752
 21
-111.5125
 31
0.0
  0
LINE
  5
EA6
  8
0
 10
-5.043752
 20
11.5
 30
0.0
 11
-5.043752
 21
14.0
 31
0.0
  0
ARC
  5
EA7
  8
0
 10
331.456248
 20
-114.0125
 30
0.0
 40
2.50000000126
 50
180.0
 51
0.0
  0
ARC
  5
EA8
  8
0
 10
335.456248
 20
-111.5125
 30
0.0
 40
1.49999999974
 50
90.0
 51
180.0
  0
ARC
  5
EA9
  8
0
 10
327.456248
 20
-111.5125
 30
0.0
 40
1.49999999974
 50
0.0
 51
90.0
  0
ARC
  5
EAA
  8
0
 10
186.456248
 20
-114.0125
 30
0.0
 40
2.50000000126
 50
180.0
 51
0.0
  0
ARC
  5
EAB
  8
0
 10
182.456248
 20
-111.5125
 30
0.0
 40
1.49999999974
 50
0.0
 51
90.0
  0
ARC
  5
EAC
  8
0
 10
331.456248
 20
14.0
 30
0.0
 40
2.7499999991
 50
0.0
 51
180.0
  0
ARC
  5
EAD
  8
0
 10
327.206248
 20
11.5
 30
0.0
 40
1.49999999974
 50
270.0
 51
0.0
  0
ARC
  5
EAE
  8
0
 10
335.706248
 20
11.5
 30
0.0
 40
1.49999999974
 50
180.0
 51
270.0
  0
ARC
  5
EAF
  8
0
 10
186.456248
 20
14.0
 30
0.0
 40
2.50000000126
 50
0.0
 51
180.0
  0
ARC
  5
EB0
  8
0
 10
190.456248
 20
11.5
 30
0.0
 40
1.49999999974
 50
180.0
 51
270.0
  0
ARC
  5
EB1
  8
0
 10
182.456248
 20
11.5
 30
0.0
 40
1.49999999974
 50
270.0
 51
0.0
  0
ARC
  5
EB2
  8
0
 10
64.456248
 20
-114.0125
 30
0.0
 40
2.50000000126
 50
180.0
 51
0.0
  0
ARC
  5
EB3
  8
0
 10
60.456248
 20
-111.5125
 30
0.0
 40
1.49999999974
 50
0.0
 51
90.0
  0
ARC
  5
EB4
  8
0
 10
68.456248
 20
-111.5125
 30
0.0
 40
1.49999999974
 50
90.0
 51
180.0
  0
ARC
  5
EB5
  8
0
 10
-2.543752
 20
-114.0125
 30
0.0
 40
2.50000000126
 50
180.0
 51
0.0
  0
ARC
  5
EB6
  8
0
 10
1.456248
 20
-111.5125
 30
0.0
 40
1.49999999974
 50
90.0
 51
180.0
  0
ARC
  5
EB7
  8
0
 10
64.456248
 20
14.0
 30
0.0
 40
2.7499999991
 50
0.0
 51
180.0
  0
ARC
  5
EB8
  8
0
 10
60.206248
 20
11.5
 30
0.0
 40
1.49999999974
 50
270.0
 51
0.0
  0
ARC
  5
EB9
  8
0
 10
68.706248
 20
11.5
 30
0.0
 40
1.49999999974
 50
180.0
 51
270.0
  0
ARC
  5
EBA
  8
0
 10
-2.543752
 20
14.0
 30
0.0
 40
2.50000000126
 50
0.0
 51
180.0
  0
ARC
  5
EBB
  8
0
 10
1.456248
 20
11.5
 30
0.0
 40
1.49999999974
 50
180.0
 51
270.0
  0
ARC
  5
EBC
  8
0
 10
-6.543752
 20
11.5
 30
0.0
 40
1.49999999974
 50
270.0
 51
0.0
  0
ARC
  5
EBD
  8
0
 10
190.456248
 20
-111.5125
 30
0.0
 40
1.49999999974
 50
90.0
 51
180.0
  0
LINE
  5
EBE
  8
0
 10
188.956248
 20
-114.0125
 30
0.0
 11
188.956248
 21
-111.5125
 31
0.0
  0
CIRCLE
  5
EBF
  8
0
 10
-2.543752
 20
-114.0125
 30
0.0
 40
1.25
  0
CIRCLE
  5
EC0
  8
0
 10
64.456248
 20
-114.0125
 30
0.0
 40
1.25
  0
CIRCLE
  5
EC1
  8
0
 10
186.456248
 20
-114.0125
 30
0.0
 40
1.25
  0
CIRCLE
  5
EC2
  8
0
 10
331.456248
 20
-114.0125
 30
0.0
 40
1.25
  0
CIRCLE
  5
EC3
  8
0
 10
186.456248
 20
14.0
 30
0.0
 40
1.25
  0
CIRCLE
  5
EC4
  8
0
 10
64.456248
 20
14.0
 30
0.0
 40
1.25
  0
CIRCLE
  5
EC5
  8
0
 10
-2.543752
 20
14.0
 30
0.0
 40
1.25
  0
LINE
  5
EC6
  8
0
 10
20.206248
 20
-111.2625
 30
0.0
 11
20.206248
 21
-110.2625
 31
0.0
  0
ARC
  5
EC7
  8
0
 10
19.956248
 20
-110.2625
 30
0.0
 40
0.25
 50
0.0
 51
90.0
  0
ARC
  5
EC8
  8
0
 10
19.956248
 20
-111.2625
 30
0.0
 40
0.25
 50
270.0
 51
0.0
  0
LINE
  5
EC9
  8
0
 10
335.706248
 20
10.0
 30
0.0
 11
335.956248
 21
10.0
 31
0.0
  0
LINE
  5
ECA
  8
0
 10
193.256248
 20
-114.0125
 30
0.0
 11
193.256248
 21
-112.5125
 31
0.0
  0
LINE
  5
ECB
  8
0
 10
209.106248
 20
-110.2625
 30
0.0
 11
209.106248
 21
-111.2625
 31
0.0
  0
ARC
  5
ECC
  8
0
 10
208.856248
 20
-110.2625
 30
0.0
 40
0.25
 50
0.0
 51
90.0
  0
LINE
  5
ECD
  8
0
 10
219.106248
 20
-111.2625
 30
0.0
 11
219.106248
 21
-110.2625
 31
0.0
  0
ARC
  5
ECE
  8
0
 10
219.356248
 20
-110.2625
 30
0.0
 40
0.25
 50
90.0
 51
180.0
  0
LINE
  5
ECF
  8
0
 10
194.256248
 20
-111.5125
 30
0.0
 11
208.856248
 21
-111.5125
 31
0.0
  0
LINE
  5
ED0
  8
0
 10
219.356248
 20
-111.5125
 30
0.0
 11
233.956248
 21
-111.5125
 31
0.0
  0
LINE
  5
ED1
  8
0
 10
234.956248
 20
-112.5125
 30
0.0
 11
234.956248
 21
-114.0125
 31
0.0
  0
LINE
  5
ED2
  8
0
 10
233.956248
 20
-115.0125
 30
0.0
 11
194.256248
 21
-115.0125
 31
0.0
  0
ARC
  5
ED3
  8
0
 10
194.256248
 20
-112.5125
 30
0.0
 40
0.9999999989799999
 50
90.0
 51
180.0
  0
ARC
  5
ED4
  8
0
 10
208.856248
 20
-111.2625
 30
0.0
 40
0.25000000038
 50
270.0
 51
0.0
  0
ARC
  5
ED5
  8
0
 10
233.956248
 20
-114.0125
 30
0.0
 40
0.9999999989799999
 50
270.0
 51
0.0
  0
ARC
  5
ED6
  8
0
 10
233.956248
 20
-112.5125
 30
0.0
 40
0.9999999989799999
 50
0.0
 51
90.0
  0
ARC
  5
ED7
  8
0
 10
219.356248
 20
-111.2625
 30
0.0
 40
0.25000000038
 50
180.0
 51
270.0
  0
LINE
  5
ED8
  8
0
 10
5.456248
 20
14.0
 30
0.0
 11
5.456248
 21
12.5
 31
0.0
  0
LINE
  5
ED9
  8
0
 10
5.456248
 20
-112.5125
 30
0.0
 11
5.456248
 21
-114.0125
 31
0.0
  0
LINE
  5
EDA
  8
0
 10
45.456248
 20
-114.0125
 30
0.0
 11
45.456248
 21
-112.5125
 31
0.0
  0
LINE
  5
EDB
  8
0
 10
45.456248
 20
12.5
 30
0.0
 11
45.456248
 21
14.0
 31
0.0
  0
LINE
  5
EDC
  8
0
 10
283.456248
 20
14.0
 30
0.0
 11
283.456248
 21
12.5
 31
0.0
  0
LINE
  5
EDD
  8
0
 10
283.456248
 20
-112.5125
 30
0.0
 11
283.456248
 21
-114.0125
 31
0.0
  0
LINE
  5
EDE
  8
0
 10
323.456248
 20
-114.0125
 30
0.0
 11
323.456248
 21
-112.5125
 31
0.0
  0
LINE
  5
EDF
  8
0
 10
323.456248
 20
12.5
 30
0.0
 11
323.456248
 21
14.0
 31
0.0
  0
ARC
  5
EE0
  8
0
 10
44.456248
 20
-112.5125
 30
0.0
 40
0.9999999989799999
 50
0.0
 51
90.0
  0
ARC
  5
EE1
  8
0
 10
44.456248
 20
-114.0125
 30
0.0
 40
0.9999999989799999
 50
270.0
 51
0.0
  0
ARC
  5
EE2
  8
0
 10
6.456248
 20
-114.0125
 30
0.0
 40
0.9999999989799999
 50
180.0
 51
270.0
  0
ARC
  5
EE3
  8
0
 10
6.456248
 20
-112.5125
 30
0.0
 40
0.9999999989799999
 50
90.0
 51
180.0
  0
ARC
  5
EE4
  8
0
 10
6.456248
 20
12.5
 30
0.0
 40
0.9999999989799999
 50
180.0
 51
270.0
  0
ARC
  5
EE5
  8
0
 10
6.456248
 20
14.0
 30
0.0
 40
0.9999999989799999
 50
90.0
 51
180.0
  0
ARC
  5
EE6
  8
0
 10
44.456248
 20
14.0
 30
0.0
 40
0.9999999989799999
 50
0.0
 51
90.0
  0
ARC
  5
EE7
  8
0
 10
44.456248
 20
12.5
 30
0.0
 40
0.9999999989799999
 50
270.0
 51
0.0
  0
ARC
  5
EE8
  8
0
 10
322.456248
 20
-112.5125
 30
0.0
 40
0.9999999989799999
 50
0.0
 51
90.0
  0
ARC
  5
EE9
  8
0
 10
322.456248
 20
-114.0125
 30
0.0
 40
0.9999999989799999
 50
270.0
 51
0.0
  0
ARC
  5
EEA
  8
0
 10
284.456248
 20
-114.0125
 30
0.0
 40
0.9999999989799999
 50
180.0
 51
270.0
  0
ARC
  5
EEB
  8
0
 10
284.456248
 20
-112.5125
 30
0.0
 40
0.9999999989799999
 50
90.0
 51
180.0
  0
ARC
  5
EEC
  8
0
 10
284.456248
 20
12.5
 30
0.0
 40
0.9999999989799999
 50
180.0
 51
270.0
  0
ARC
  5
EED
  8
0
 10
284.456248
 20
14.0
 30
0.0
 40
0.9999999989799999
 50
90.0
 51
180.0
  0
ARC
  5
EEE
  8
0
 10
322.456248
 20
14.0
 30
0.0
 40
0.9999999989799999
 50
0.0
 51
90.0
  0
ARC
  5
EEF
  8
0
 10
322.456248
 20
12.5
 30
0.0
 40
0.9999999989799999
 50
270.0
 51
0.0
  0
LINE
  5
EF0
  8
0
 10
334.206248
 20
14.0
 30
0.0
 11
334.206248
 21
11.5
 31
0.0
  0
LINE
  5
EF1
  8
0
 10
333.956248
 20
-111.5125
 30
0.0
 11
333.956248
 21
-114.0125
 31
0.0
  0
LINE
  5
EF2
  8
0
 10
328.956248
 20
-114.0125
 30
0.0
 11
328.956248
 21
-111.5125
 31
0.0
  0
LINE
  5
EF3
  8
0
 10
328.706248
 20
11.5
 30
0.0
 11
328.706248
 21
14.0
 31
0.0
  0
LINE
  5
EF4
  8
0
 10
-0.043752
 20
14.0
 30
0.0
 11
-0.043752
 21
11.5
 31
0.0
  0
LINE
  5
EF5
  8
0
 10
-0.043752
 20
-111.5125
 30
0.0
 11
-0.043752
 21
-114.0125
 31
0.0
  0
LINE
  5
EF6
  8
0
 10
-5.043752
 20
-114.0125
 30
0.0
 11
-5.043752
 21
-111.5125
 31
0.0
  0
LINE
  5
EF7
  8
0
 10
-5.043752
 20
11.5
 30
0.0
 11
-5.043752
 21
14.0
 31
0.0
  0
ARC
  5
EF8
  8
0
 10
331.456248
 20
-114.0125
 30
0.0
 40
2.50000000126
 50
180.0
 51
0.0
  0
ARC
  5
EF9
  8
0
 10
331.456248
 20
14.0
 30
0.0
 40
2.7499999991
 50
0.0
 51
180.0
  0
ARC
  5
EFA
  8
0
 10
-2.543752
 20
-114.0125
 30
0.0
 40
2.50000000126
 50
180.0
 51
0.0
  0
ARC
  5
EFB
  8
0
 10
-2.543752
 20
14.0
 30
0.0
 40
2.50000000126
 50
0.0
 51
180.0
  0
CIRCLE
  5
EFC
  8
0
 10
331.456248
 20
14.0
 30
0.0
 40
1.249999999999822
  0
LINE
  5
EFD
  8
0
 10
338.612498
 20
8.0
 30
0.0
 11
338.612498
 21
-108.0125
 31
0.0
  0
LINE
  5
EFE
  8
0
 10
338.612498
 20
-108.0125
 30
0.0
 11
336.612498
 21
-110.0125
 31
0.0
  0
LINE
  5
EFF
  8
0
 10
-10.000002
 20
-108.0125
 30
0.0
 11
-10.000002
 21
8.0
 31
0.0
  0
LINE
  5
F00
  8
0
 10
-8.000002
 20
-110.0125
 30
0.0
 11
-10.000002
 21
-108.0125
 31
0.0
  0
LINE
  5
F01
  8
0
 10
-8.000002
 20
10.0
 30
0.0
 11
-10.000002
 21
8.0
 31
0.0
  0
LINE
  5
F02
  8
0
 10
338.612498
 20
8.0
 30
0.0
 11
336.612498
 21
10.0
 31
0.0
  0
LINE
  5
F03
  8
0
 10
336.612498
 20
10.0
 30
0.0
 11
335.706248
 21
10.0
 31
0.0
  0
LINE
  5
F04
  8
0
 10
327.206248
 20
10.0
 30
0.0
 11
308.706248
 21
10.0
 31
0.0
  0
LINE
  5
F05
  8
0
 10
298.206248
 20
10.0
 30
0.0
 11
219.356248
 21
10.0
 31
0.0
  0
LINE
  5
F06
  8
0
 10
208.856248
 20
10.0
 30
0.0
 11
190.456248
 21
10.0
 31
0.0
  0
LINE
  5
F07
  8
0
 10
182.456248
 20
10.0
 30
0.0
 11
120.056248
 21
10.0
 31
0.0
  0
LINE
  5
F08
  8
0
 10
109.556248
 20
10.0
 30
0.0
 11
68.706248
 21
10.0
 31
0.0
  0
LINE
  5
F09
  8
0
 10
60.206248
 20
10.0
 30
0.0
 11
30.706248
 21
10.0
 31
0.0
  0
LINE
  5
F0A
  8
0
 10
20.206248
 20
10.0
 30
0.0
 11
1.456248
 21
10.0
 31
0.0
  0
LINE
  5
F0B
  8
0
 10
-6.543752
 20
10.0
 30
0.0
 11
-8.000002
 21
10.0
 31
0.0
  0
ARC
  5
F0C
  8
0
 10
194.256248
 20
-114.0125
 30
0.0
 40
0.9999999989799999
 50
180.0
 51
270.0
  0
LINE
  5
F0D
  8
0
 10
-8.000002
 20
-110.0125
 30
0.0
 11
-6.543665
 21
-110.0125
 31
0.0
  0
LINE
  5
F0E
  8
0
 10
1.456161
 20
-110.0125
 30
0.0
 11
19.956248
 21
-110.0125
 31
0.0
  0
LINE
  5
F0F
  8
0
 10
68.456248
 20
-110.0125
 30
0.0
 11
109.556248
 21
-110.0125
 31
0.0
  0
LINE
  5
F10
  8
0
 10
120.056248
 20
-110.0125
 30
0.0
 11
182.456248
 21
-110.0125
 31
0.0
  0
LINE
  5
F11
  8
0
 10
219.356248
 20
-110.0125
 30
0.0
 11
298.206248
 21
-110.0125
 31
0.0
  0
LINE
  5
F12
  8
0
 10
308.706248
 20
-110.0125
 30
0.0
 11
327.456335
 21
-110.0125
 31
0.0
  0
LINE
  5
F13
  8
0
 10
335.456161
 20
-110.0125
 30
0.0
 11
336.612498
 21
-110.0125
 31
0.0
  0
LINE
  5
F14
  8
0
 10
30.706248
 20
-110.0125
 30
0.0
 11
60.456248
 21
-110.0125
 31
0.0
  0
LINE
  5
F15
  8
0
 10
190.456248
 20
-110.0125
 30
0.0
 11
209.106248
 21
-110.0125
 31
0.0
  0
ENDSEC
  0
EOF
