0
SECTION
2
HEADER
9
$INSUNITS
70
4
9
$ACADVER
1
AC1014
9
$HANDSEED
5
FFFF
0
ENDSEC
0
SECTION
2
TABLES
0
TABLE
2
VPORT
5
8
100
AcDbSymbolTable
0
ENDTAB
0
TABLE
2
LTYPE
5
5
100
AcDbSymbolTable
0
LTYPE
5
14
100
AcDbSymbolTableRecord
100
AcDbLinetypeTableRecord
2
BYBLOCK
70
0
0
LTYPE
5
15
100
AcDbSymbolTableRecord
100
AcDbLinetypeTableRecord
2
BYLAYER
70
0
0
ENDTAB
0
TABLE
2
LAYER
5
2
100
AcDbSymbolTable
70
2
0
LAYER
5
50
100
AcDbSymbolTableRecord
100
AcDbLayerTableRecord
2
0
70
0
6
CONTINUOUS
0
ENDTAB
0
TABLE
2
STYLE
5
3
100
AcDbSymbolTable
70
1
0
STYLE
5
11
100
AcDbSymbolTableRecord
100
AcDbTextStyleTableRecord
2
STANDARD
70
0
0
ENDTAB
0
TABLE
2
VIEW
5
6
100
AcDbSymbolTable
70
0
0
ENDTAB
0
TABLE
2
UCS
5
7
100
AcDbSymbolTable
70
0
0
ENDTAB
0
TABLE
2
APPID
5
9
100
AcDbSymbolTable
70
2
0
APPID
5
12
100
AcDbSymbolTableRecord
100
AcDbRegAppTableRecord
2
ACAD
70
0
0
ENDTAB
0
TABLE
2
DIMSTYLE
5
A
100
AcDbSymbolTable
70
1
0
ENDTAB
0
TABLE
2
BLOCK_RECORD
5
1
100
AcDbSymbolTable
70
1
0
BLOCK_RECORD
5
1F
100
AcDbSymbolTableRecord
100
AcDbBlockTableRecord
2
*MODEL_SPACE
0
BLOCK_RECORD
5
1B
100
AcDbSymbolTableRecord
100
AcDbBlockTableRecord
2
*PAPER_SPACE
0
ENDTAB
0
ENDSEC
0
SECTION
2
BLOCKS
0
BLOCK
5
20
100
AcDbEntity
100
AcDbBlockBegin
2
*MODEL_SPACE
0
ENDBLK
5
21
100
AcDbEntity
100
AcDbBlockEnd
0
BLOCK
5
1C
100
AcDbEntity
100
AcDbBlockBegin
2
*PAPER_SPACE
0
ENDBLK
5
1D
100
AcDbEntity
100
AcDbBlockEnd
0
ENDSEC
0
SECTION
2
ENTITIES
0
LWPOLYLINE
5
100
100
AcDbEntity
8
0
100
AcDbPolyline
90
8
70
1
43
0.0
10
23.168749999999999
20
-64.4375
10
4.5687500000000005
20
-64.4375
42
0.41421356237309664
10
4.0687500000000023
20
-64.9375
10
4.0687500000000014
20
-77.9375
42
0.41421356237309437
10
4.5687500000000014
20
-78.4375
10
23.168749999999999
20
-78.4375
42
0.41421356237309503
10
23.668749999999999
20
-77.9375
10
23.668749999999999
20
-64.9375
42
0.41421356237309764
0
LWPOLYLINE
5
101
100
AcDbEntity
8
0
100
AcDbPolyline
90
20
70
1
43
0.0
10
258.26200000000006
20
-40.337500000000006
10
275.13799999999998
20
-40.337500000000006
10
275.13799999999998
20
-41.837499999999999
42
0.41421356237312623
10
275.63800000000003
20
-42.337499999999999
10
281.63799999999998
20
-42.337499999999999
42
0.41421356237307422
10
282.13799999999998
20
-41.837499999999999
10
282.13799999999998
20
-40.337500000000006
10
282.72500000000002
20
-40.337500000000006
42
0.41421356237313667
10
283.22500000000002
20
-39.837499999999999
10
283.22500000000002
20
-26.837499999999999
42
0.41421356237313145
10
282.72500000000002
20
-26.337499999999991
10
250.67500000000001
20
-26.337499999999999
42
0.41421356237304563
10
250.17500000000001
20
-26.837499999999999
10
250.17500000000001
20
-39.837499999999999
42
0.41421356237310025
10
250.67500000000001
20
-40.337500000000013
10
251.262
20
-40.337500000000006
10
251.262
20
-41.837499999999999
42
0.41421356237312623
10
251.762
20
-42.337500000000006
10
257.76200000000006
20
-42.337499999999999
42
0.4142135623730222
10
258.26200000000006
20
-41.837499999999999
0
CIRCLE
5
102
100
AcDbEntity
8
0
100
AcDbCircle
10
104.0719793261145
20
-111.37467395986957
30
0
40
2.7999999999999936
210
0
220
0
230
1
0
LWPOLYLINE
5
103
100
AcDbEntity
8
0
100
AcDbPolyline
90
26
70
1
43
0.0
10
166.59052067388552
20
-110.79967395986957
42
-0.99999999999999989
10
167.09052067388546
20
-110.79967395986957
10
167.09052067388546
20
-110.99967395986958
42
-0.4142135623730846
10
166.09052067388549
20
-111.99967395986954
10
165.4744952701011
20
-111.99967395986958
42
0.13165249758743755
10
165.22449527010104
20
-112.06666125797737
10
165.19673845653458
20
-112.08268666176178
42
-0.13165249758725608
10
164.9467384565346
20
-112.14967395986957
10
164.88791509283288
20
-112.14967395986957
42
0.19091049757701961
10
164.54543017584041
20
-112.28538824558386
42
-0.26912247814696183
10
161.61252553057307
20
-112.96831902824592
42
-0.40896178353861129
10
161.27819911858523
20
-112.35249083080288
42
0.78760464033140798
10
155.27309701184674
20
-108.94942354877762
42
-0.34879281181172106
10
154.65792605448459
20
-109.04082809024706
10
150.85991877284013
20
-106.84756962585803
42
-0.39287551423334927
10
150.65980025125637
20
-106.1969649697599
10
152.08336744288044
20
-103.25217479548273
42
-0.39287551423335498
10
152.71754523064465
20
-103.00488473356354
10
163.594631086264
20
-107.31024029023742
42
-0.37326539136836101
10
165.40799619162675
20
-110.79848480937086
42
0.26080687734909713
10
165.47434245614184
20
-111.03349574212594
10
165.58696728329224
20
-111.14612056927628
42
-0.11185331453434276
10
165.70481841348999
20
-111.3330072932029
42
0.3178372451958022
10
165.94052067388546
20
-111.49967395986954
10
166.09052067388552
20
-111.49967395986957
42
0.4142135623730534
10
166.59052067388552
20
-110.99967395986958
0
LWPOLYLINE
5
104
100
AcDbEntity
8
0
100
AcDbPolyline
90
26
70
1
43
0.0
10
100.65930088141474
20
-112.35249083080288
42
-0.78760464033140742
10
106.66440298815324
20
-108.94942354877762
42
0.34879281181167615
10
107.27957394551545
20
-109.04082809024708
10
111.07758122715987
20
-106.84756962585806
42
0.39287551423334927
10
111.27769974874361
20
-106.1969649697599
10
109.85413255711953
20
-103.25217479548274
42
0.39287551423340256
10
109.21995476935535
20
-103.00488473356356
10
98.342868913736027
20
-107.31024029023746
42
0.37326539136835696
10
96.529503808373306
20
-110.79848480937085
42
-0.26080687734908453
10
96.463157543858173
20
-111.03349574212594
10
96.350532716707775
20
-111.14612056927628
42
0.11185331453434874
10
96.23268158651004
20
-111.3330072932029
42
-0.31783724519583478
10
95.996979326114541
20
-111.49967395986955
10
95.846979326114493
20
-111.49967395986955
42
-0.41421356237307422
10
95.346979326114521
20
-110.99967395986958
10
95.346979326114493
20
-110.79967395986957
42
0.99999999999999989
10
94.846979326114521
20
-110.79967395986957
10
94.846979326114521
20
-110.99967395986958
42
0.4142135623730846
10
95.846979326114493
20
-111.99967395986957
10
96.463004729898941
20
-111.99967395986958
42
-0.13165249758741604
10
96.713004729898969
20
-112.06666125797736
10
96.740761543465425
20
-112.08268666176178
42
0.13165249758745465
10
96.99076154346541
20
-112.14967395986957
10
97.04958490716713
20
-112.14967395986959
42
-0.19091049757699446
10
97.39206982415962
20
-112.28538824558386
42
0.26912247814696039
10
100.32497446942698
20
-112.96831902824594
42
0.40896178353861351
0
CIRCLE
5
105
100
AcDbEntity
8
0
100
AcDbCircle
10
157.86552067388553
20
-111.37467395986957
30
0
40
2.8000000000000114
210
0
220
0
230
1
0
LWPOLYLINE
5
106
100
AcDbEntity
8
0
100
AcDbPolyline
90
8
70
1
43
0.0
10
187.97499999999999
20
-22.337500000000002
10
187.97499999999999
20
-20.524999999999999
42
0.41421356237309503
10
187.47499999999999
20
-20.024999999999995
10
117.32500000000003
20
-20.024999999999999
42
0.41421356237309503
10
116.82500000000003
20
-20.524999999999999
10
116.82500000000002
20
-22.337500000000002
42
0.41421356237309503
10
117.32500000000002
20
-22.837499999999995
10
187.47499999999999
20
-22.837499999999999
42
0.41421356237309503
0
LWPOLYLINE
5
107
100
AcDbEntity
8
0
100
AcDbPolyline
90
8
70
1
43
0.0
10
102.25000000000001
20
-22.337500000000002
10
102.25000000000001
20
-20.524999999999999
42
0.41421356237309503
10
101.75
20
-20.024999999999995
10
31.600000000000001
20
-20.024999999999999
42
0.41421356237309503
10
31.099999999999994
20
-20.524999999999999
10
31.100000000000001
20
-22.337500000000002
42
0.41421356237309503
10
31.600000000000001
20
-22.837499999999995
10
101.75
20
-22.837499999999999
42
0.41421356237309503
0
LWPOLYLINE
5
108
100
AcDbEntity
8
0
100
AcDbPolyline
90
8
70
1
43
0.0
10
273.69999999999999
20
-22.337500000000002
10
273.69999999999999
20
-20.524999999999999
42
0.41421356237309503
10
273.19999999999999
20
-20.024999999999995
10
203.05000000000007
20
-20.024999999999999
42
0.41421356237309503
10
202.55000000000001
20
-20.524999999999999
10
202.55000000000007
20
-22.337500000000002
42
0.41421356237309503
10
203.05000000000007
20
-22.837499999999995
10
273.19999999999999
20
-22.837499999999999
42
0.41421356237309503
0
LWPOLYLINE
5
109
100
AcDbEntity
8
0
100
AcDbPolyline
90
8
70
1
43
0.0
10
2.524999999999995
20
-20.524999999999999
10
2.524999999999995
20
-22.337500000000002
42
0.41421356237309631
10
3.0250000000000021
20
-22.837499999999995
10
16.024999999999999
20
-22.837499999999999
42
0.41421356237309503
10
16.524999999999999
20
-22.337500000000002
10
16.525000000000002
20
-20.524999999999999
42
0.41421356237309503
10
16.024999999999999
20
-20.024999999999995
10
3.0250000000000021
20
-20.024999999999999
42
0.41421356237309631
0
LWPOLYLINE
5
110
100
AcDbEntity
8
0
100
AcDbPolyline
90
8
70
1
43
0.0
10
302.27499999999998
20
-22.337500000000002
10
302.27499999999998
20
-20.524999999999999
42
0.41421356237309503
10
301.77499999999998
20
-20.024999999999995
10
288.77499999999998
20
-20.024999999999999
42
0.41421356237309503
10
288.27499999999992
20
-20.524999999999999
10
288.27499999999998
20
-22.337500000000002
42
0.41421356237309503
10
288.77499999999998
20
-22.837499999999995
10
301.77499999999998
20
-22.837499999999999
42
0.41421356237309503
0
CIRCLE
5
111
100
AcDbEntity
8
0
100
AcDbCircle
10
142.875
20
2.0999999999999974
30
0
40
0.99999999999999645
210
0
220
0
230
1
0
CIRCLE
5
112
100
AcDbEntity
8
0
100
AcDbCircle
10
240.65000000000001
20
-121.16249999999999
30
0
40
0.99999999999997868
210
0
220
0
230
1
0
CIRCLE
5
113
100
AcDbEntity
8
0
100
AcDbCircle
10
142.875
20
-121.16250000000001
30
0
40
0.99999999999999645
210
0
220
0
230
1
0
CIRCLE
5
114
100
AcDbEntity
8
0
100
AcDbCircle
10
240.65000000000001
20
2.0999999999999974
30
0
40
1.0000000000000142
210
0
220
0
230
1
0
CIRCLE
5
115
100
AcDbEntity
8
0
100
AcDbCircle
10
45.100000000000016
20
2.0999999999999952
30
0
40
1.0000000000000053
210
0
220
0
230
1
0
CIRCLE
5
116
100
AcDbEntity
8
0
100
AcDbCircle
10
295.27499999999998
20
-121.16249999999999
30
0
40
0.99999999999997868
210
0
220
0
230
1
0
CIRCLE
5
117
100
AcDbEntity
8
0
100
AcDbCircle
10
45.099999999999987
20
-121.16250000000001
30
0
40
0.99999999999999645
210
0
220
0
230
1
0
CIRCLE
5
118
100
AcDbEntity
8
0
100
AcDbCircle
10
295.27499999999998
20
2.0999999999999974
30
0
40
0.99999999999997868
210
0
220
0
230
1
0
LWPOLYLINE
5
119
100
AcDbEntity
8
0
100
AcDbPolyline
90
8
70
1
43
0.0
10
260.36250000000001
20
-45.387500000000017
42
-0.41421356237312101
10
260.86250000000001
20
-45.887500000000003
10
260.86250000000001
20
-58.88750000000001
42
-0.4142135623730222
10
260.36250000000001
20
-59.387500000000003
10
259.36250000000001
20
-59.387499999999989
42
-0.41421356237312101
10
258.86250000000001
20
-58.88750000000001
10
258.86250000000007
20
-45.887500000000003
42
-0.4142135623730222
10
259.36250000000001
20
-45.387500000000003
0
LWPOLYLINE
5
120
100
AcDbEntity
8
0
100
AcDbPolyline
90
8
70
1
43
0.0
10
154.92500000000001
20
-3.0249999999999999
10
154.92500000000001
20
-16.024999999999999
42
0.41421356237307555
10
155.42500000000001
20
-16.525000000000002
10
168.42500000000001
20
-16.525000000000002
42
0.41421356237304691
10
168.92500000000001
20
-16.024999999999999
10
168.92500000000001
20
-3.0249999999999999
42
0.41421356237310153
10
168.42500000000001
20
-2.5249999999999999
10
155.42500000000001
20
-2.5249999999999999
42
0.41421356237307422
0
LWPOLYLINE
5
121
100
AcDbEntity
8
0
100
AcDbPolyline
90
8
70
1
43
0.0
10
27.268750000000001
20
-64.9375
42
-0.41421356237309764
10
27.768750000000004
20
-64.4375
10
28.768750000000001
20
-64.437500000000014
42
-0.41421356237309764
10
29.268749999999997
20
-64.9375
10
29.268749999999997
20
-77.9375
42
-0.41421356237309503
10
28.768750000000001
20
-78.4375
10
27.768750000000004
20
-78.4375
42
-0.41421356237309503
10
27.268750000000004
20
-77.9375
0
LWPOLYLINE
5
122
100
AcDbEntity
8
0
100
AcDbPolyline
90
8
70
1
43
0.0
10
193.02500000000003
20
-26.837499999999999
10
193.02500000000003
20
-39.837499999999999
42
0.41421356237311063
10
193.52500000000003
20
-40.337500000000006
10
206.52500000000003
20
-40.337500000000006
42
0.41421356237312623
10
207.02500000000003
20
-39.837499999999999
10
207.02500000000003
20
-26.837499999999999
42
0.41421356237310025
10
206.52500000000003
20
-26.337499999999999
10
193.52500000000003
20
-26.337499999999999
42
0.41421356237307683
0
LWPOLYLINE
5
123
100
AcDbEntity
8
0
100
AcDbPolyline
90
8
70
1
43
0.0
10
73.174999999999997
20
-26.337499999999999
42
-0.41421356237309503
10
73.674999999999997
20
-26.837499999999999
10
73.674999999999997
20
-39.837499999999999
42
-0.41421356237310542
10
73.174999999999997
20
-40.337500000000006
10
60.174999999999997
20
-40.337499999999991
42
-0.41421356237311585
10
59.675000000000004
20
-39.837499999999999
10
59.675000000000011
20
-26.837499999999999
42
-0.41421356237309764
10
60.174999999999997
20
-26.337499999999999
0
LWPOLYLINE
5
124
100
AcDbEntity
8
0
100
AcDbPolyline
90
8
70
1
43
0.0
10
182.71250000000003
20
-64.437500000000014
42
-0.41421356237312623
10
183.21250000000003
20
-64.9375
10
183.21249999999998
20
-77.9375
42
-0.4142135623730222
10
182.71250000000003
20
-78.4375
10
169.71250000000001
20
-78.4375
42
-0.41421356237313145
10
169.21250000000001
20
-77.9375
10
169.21249999999998
20
-64.9375
42
-0.41421356237307422
10
169.71250000000001
20
-64.4375
0
LWPOLYLINE
5
125
100
AcDbEntity
8
0
100
AcDbPolyline
90
8
70
1
43
0.0
10
126.35000000000002
20
-45.887500000000003
42
-0.41421356237310025
10
126.85000000000001
20
-45.387500000000003
10
139.84999999999999
20
-45.387499999999996
42
-0.41421356237309503
10
140.34999999999999
20
-45.887500000000003
10
140.34999999999999
20
-58.88750000000001
42
-0.41421356237308982
10
139.84999999999999
20
-59.387500000000003
10
126.85000000000001
20
-59.387500000000017
42
-0.41421356237307422
10
126.34999999999999
20
-58.88750000000001
0
LWPOLYLINE
5
126
100
AcDbEntity
8
0
100
AcDbPolyline
90
8
70
1
43
0.0
10
237.43125000000006
20
-83.987499999999997
42
-0.41421356237310542
10
237.93125000000003
20
-83.487499999999983
10
238.93125000000001
20
-83.487499999999983
42
-0.41421356237313667
10
239.43125000000003
20
-83.987499999999997
10
239.43125000000003
20
-96.987500000000011
42
-0.41421356237313667
10
238.93125000000001
20
-97.487500000000011
10
237.93125000000003
20
-97.487500000000026
42
-0.41421356237310542
10
237.43125000000003
20
-96.987500000000011
0
LWPOLYLINE
5
127
100
AcDbEntity
8
0
100
AcDbPolyline
90
8
70
1
43
0.0
10
82.700000000000017
20
-2.5249999999999941
42
-0.41421356237307355
10
83.200000000000017
20
-3.0249999999999999
10
83.200000000000003
20
-16.024999999999999
42
-0.41421356237307555
10
82.700000000000017
20
-16.525000000000002
10
69.700000000000003
20
-16.525000000000002
42
-0.41421356237309764
10
69.200000000000003
20
-16.024999999999999
10
69.200000000000003
20
-3.0249999999999999
42
-0.41421356237309664
10
69.700000000000003
20
-2.5249999999999999
0
LWPOLYLINE
5
128
100
AcDbEntity
8
0
100
AcDbPolyline
90
8
70
1
43
0.0
10
195.40625000000006
20
-103.03750000000001
42
-0.41421356237310542
10
195.90625000000003
20
-102.53749999999999
10
208.90625
20
-102.53749999999998
42
-0.41421356237310542
10
209.40625
20
-103.03750000000001
10
209.40625000000006
20
-116.03749999999999
42
-0.4142135623730846
10
208.90625
20
-116.53750000000001
10
195.90625000000003
20
-116.53749999999999
42
-0.4142135623730846
10
195.40625000000003
20
-116.03749999999999
0
LWPOLYLINE
5
129
100
AcDbEntity
8
0
100
AcDbPolyline
90
8
70
1
43
0.0
10
40.625
20
-26.837499999999999
42
-0.41421356237309503
10
41.125
20
-26.337499999999999
10
54.125000000000007
20
-26.337499999999999
42
-0.41421356237309503
10
54.625
20
-26.837499999999999
10
54.625
20
-39.837499999999999
42
-0.41421356237310542
10
54.125000000000007
20
-40.337500000000006
10
41.125000000000007
20
-40.337499999999991
42
-0.41421356237311324
10
40.625
20
-39.837499999999999
0
LWPOLYLINE
5
130
100
AcDbEntity
8
0
100
AcDbPolyline
90
8
70
1
43
0.0
10
183.5
20
-45.887500000000003
10
183.5
20
-58.88750000000001
42
0.41421356237313145
10
184.00000000000003
20
-59.387500000000017
10
197.00000000000003
20
-59.387500000000003
42
0.4142135623730222
10
197.50000000000003
20
-58.88750000000001
10
197.50000000000003
20
-45.887500000000003
42
0.41421356237312101
10
197.00000000000003
20
-45.387500000000003
10
184.00000000000003
20
-45.387500000000003
42
0.41421356237307422
0
LWPOLYLINE
5
131
100
AcDbEntity
8
0
100
AcDbPolyline
90
8
70
1
43
0.0
10
221.60000000000002
20
-45.887500000000003
42
-0.4142135623730222
10
222.10000000000002
20
-45.387500000000003
10
235.10000000000002
20
-45.387500000000003
42
-0.41421356237313145
10
235.60000000000002
20
-45.887500000000003
10
235.60000000000005
20
-58.88750000000001
42
-0.41421356237307422
10
235.10000000000002
20
-59.387500000000003
10
222.10000000000002
20
-59.387499999999989
42
-0.41421356237312101
10
221.59999999999999
20
-58.88750000000001
0
LWPOLYLINE
5
132
100
AcDbEntity
8
0
100
AcDbPolyline
90
8
70
1
43
0.0
10
135.87500000000003
20
-26.837499999999999
42
-0.41421356237310025
10
136.375
20
-26.337499999999999
10
149.375
20
-26.337499999999995
42
-0.41421356237309243
10
149.875
20
-26.837499999999999
10
149.875
20
-39.837499999999999
42
-0.41421356237310802
10
149.375
20
-40.337500000000006
10
136.375
20
-40.33750000000002
42
-0.41421356237306123
10
135.875
20
-39.837499999999999
0
LWPOLYLINE
5
133
100
AcDbEntity
8
0
100
AcDbPolyline
90
8
70
1
43
0.0
10
173.97499999999997
20
-3.0249999999999999
42
-0.41421356237307749
10
174.47500000000002
20
-2.5249999999999999
10
187.47499999999999
20
-2.5249999999999995
42
-0.41421356237313273
10
187.97499999999999
20
-3.0249999999999999
10
187.97500000000002
20
-16.024999999999999
42
-0.4142135623730781
10
187.47499999999999
20
-16.525000000000002
10
174.47500000000002
20
-16.525000000000002
42
-0.41421356237313406
10
173.97500000000002
20
-16.024999999999999
0
LWPOLYLINE
5
134
100
AcDbEntity
8
0
100
AcDbPolyline
90
8
70
1
43
0.0
10
50.150000000000006
20
-45.887500000000003
42
-0.41421356237309503
10
50.650000000000006
20
-45.387500000000003
10
63.650000000000006
20
-45.387500000000003
42
-0.41421356237309503
10
64.150000000000006
20
-45.887500000000003
10
64.150000000000006
20
-58.88750000000001
42
-0.41421356237309503
10
63.650000000000006
20
-59.387500000000003
10
50.650000000000006
20
-59.387500000000003
42
-0.41421356237309503
10
50.150000000000006
20
-58.88750000000001
0
LWPOLYLINE
5
135
100
AcDbEntity
8
0
100
AcDbPolyline
90
8
70
1
43
0.0
10
197.78750000000002
20
-83.987499999999997
42
-0.41421356237310542
10
198.28749999999999
20
-83.487499999999983
10
211.28749999999999
20
-83.487499999999983
42
-0.41421356237313667
10
211.78750000000002
20
-83.987499999999997
10
211.78750000000002
20
-96.987500000000011
42
-0.41421356237313667
10
211.28749999999999
20
-97.487500000000011
10
198.28749999999999
20
-97.487500000000026
42
-0.41421356237310542
10
197.78749999999999
20
-96.987500000000011
0
LWPOLYLINE
5
136
100
AcDbEntity
8
0
100
AcDbPolyline
90
8
70
1
43
0.0
10
154.92500000000004
20
-26.837499999999999
42
-0.41421356237310025
10
155.42500000000001
20
-26.337499999999999
10
168.42500000000001
20
-26.337499999999984
42
-0.41421356237310025
10
168.92500000000001
20
-26.837499999999999
10
168.92500000000001
20
-39.837499999999999
42
-0.41421356237312623
10
168.42500000000001
20
-40.337500000000006
10
155.42500000000001
20
-40.33750000000002
42
-0.41421356237306123
10
154.92500000000001
20
-39.837499999999999
0
LWPOLYLINE
5
137
100
AcDbEntity
8
0
100
AcDbPolyline
90
8
70
1
43
0.0
10
93.012499999999989
20
-64.9375
42
-0.41421356237310542
10
93.512500000000003
20
-64.4375
10
106.51250000000002
20
-64.437499999999986
42
-0.41421356237310025
10
107.01250000000002
20
-64.9375
10
107.01250000000002
20
-77.9375
42
-0.41421356237308982
10
106.51250000000002
20
-78.4375
10
93.512500000000003
20
-78.437500000000014
42
-0.41421356237309503
10
93.012499999999989
20
-77.9375
0
LWPOLYLINE
5
138
100
AcDbEntity
8
0
100
AcDbPolyline
90
8
70
1
43
0.0
10
14.431249999999991
20
-83.987499999999997
42
-0.41421356237309631
10
14.93125
20
-83.487499999999983
10
27.931249999999999
20
-83.487499999999983
42
-0.41421356237310542
10
28.431249999999999
20
-83.987499999999997
10
28.431250000000002
20
-96.987500000000011
42
-0.41421356237309243
10
27.931249999999999
20
-97.487500000000011
10
14.93125
20
-97.487500000000011
42
-0.41421356237310675
10
14.43125
20
-96.987500000000011
0
LWPOLYLINE
5
139
100
AcDbEntity
8
0
100
AcDbPolyline
90
8
70
1
43
0.0
10
1.6875000000000007
20
-45.887500000000003
10
1.6875000000000007
20
-58.88750000000001
42
0.41421356237309426
10
2.1875000000000004
20
-59.387500000000003
10
3.1875000000000009
20
-59.387500000000003
42
0.41421356237309437
10
3.6874999999999991
20
-58.88750000000001
10
3.6875000000000009
20
-45.887500000000003
42
0.41421356237309404
10
3.1875000000000009
20
-45.387500000000003
10
2.1875000000000004
20
-45.387500000000003
42
0.41421356237309437
0
LWPOLYLINE
5
140
100
AcDbEntity
8
0
100
AcDbPolyline
90
8
70
1
43
0.0
10
273.19999999999999
20
-2.5249999999999817
42
-0.41421356237310153
10
273.69999999999999
20
-3.0249999999999999
10
273.69999999999999
20
-16.024999999999999
42
-0.41421356237304691
10
273.19999999999999
20
-16.525000000000002
10
260.19999999999999
20
-16.525000000000002
42
-0.41421356237313406
10
259.69999999999999
20
-16.024999999999999
10
259.69999999999993
20
-3.0249999999999999
42
-0.41421356237307749
10
260.19999999999999
20
-2.5249999999999999
0
LWPOLYLINE
5
141
100
AcDbEntity
8
0
100
AcDbPolyline
90
8
70
1
43
0.0
10
243.03125
20
-83.987499999999997
42
-0.41421356237313667
10
243.53125000000003
20
-83.487499999999983
10
256.53125
20
-83.487499999999969
42
-0.41421356237310542
10
257.03125000000006
20
-83.987499999999997
10
257.03125
20
-96.987500000000011
42
-0.41421356237310542
10
256.53125
20
-97.487500000000011
10
243.53125000000003
20
-97.487500000000011
42
-0.41421356237313667
10
243.03125
20
-96.987500000000011
0
LWPOLYLINE
5
142
100
AcDbEntity
8
0
100
AcDbPolyline
90
8
70
1
43
0.0
10
145.40000000000003
20
-45.887500000000003
42
-0.41421356237310025
10
145.90000000000001
20
-45.387500000000003
10
158.90000000000001
20
-45.387499999999996
42
-0.41421356237309503
10
159.40000000000001
20
-45.887500000000003
10
159.40000000000001
20
-58.88750000000001
42
-0.41421356237308982
10
158.90000000000001
20
-59.387500000000003
10
145.90000000000001
20
-59.387500000000017
42
-0.41421356237307422
10
145.40000000000001
20
-58.88750000000001
0
LWPOLYLINE
5
143
100
AcDbEntity
8
0
100
AcDbPolyline
90
8
70
1
43
0.0
10
83.487499999999983
20
-83.987499999999997
42
-0.41421356237309503
10
83.987499999999997
20
-83.487499999999983
10
96.987500000000011
20
-83.487499999999983
42
-0.41421356237309503
10
97.487500000000011
20
-83.987499999999997
10
97.487500000000011
20
-96.987500000000011
42
-0.41421356237309503
10
96.987500000000011
20
-97.487500000000011
10
83.987499999999997
20
-97.487500000000011
42
-0.41421356237309503
10
83.487499999999983
20
-96.987500000000011
0
LWPOLYLINE
5
144
100
AcDbEntity
8
0
100
AcDbPolyline
90
8
70
1
43
0.0
10
5.9932499999999944
20
-84.987499999999997
42
-0.41421356237307355
10
6.4932500000000006
20
-84.487499999999983
10
12.49325
20
-84.487500000000011
42
-0.41421356237307555
10
12.99325
20
-84.987499999999997
10
12.993250000000007
20
-98.987499999999997
42
-0.41421356237309503
10
12.49325
20
-99.487500000000011
10
6.4932500000000006
20
-99.487500000000026
42
-0.4142135623731048
10
5.9932499999999997
20
-98.987499999999997
0
LWPOLYLINE
5
145
100
AcDbEntity
8
0
100
AcDbPolyline
90
8
70
1
43
0.0
10
4.9062499999999947
20
-103.03750000000001
42
-0.41421356237309437
10
5.4062499999999991
20
-102.53749999999999
10
18.40625
20
-102.53749999999999
42
-0.41421356237310675
10
18.906250000000004
20
-103.03750000000001
10
18.906250000000011
20
-116.03749999999999
42
-0.41421356237307555
10
18.40625
20
-116.53750000000001
10
5.4062499999999991
20
-116.53750000000001
42
-0.41421356237307355
10
4.90625
20
-116.03749999999999
0
LWPOLYLINE
5
146
100
AcDbEntity
8
0
100
AcDbPolyline
90
8
70
1
43
0.0
10
135.875
20
-3.0249999999999999
42
-0.41421356237307422
10
136.375
20
-2.5249999999999999
10
149.375
20
-2.5249999999999941
42
-0.41421356237309437
10
149.875
20
-3.0249999999999999
10
149.875
20
-16.024999999999999
42
-0.41421356237310675
10
149.375
20
-16.525000000000002
10
136.375
20
-16.525000000000009
42
-0.41421356237307555
10
135.875
20
-16.024999999999999
0
LWPOLYLINE
5
147
100
AcDbEntity
8
0
100
AcDbPolyline
90
8
70
1
43
0.0
10
184.46875
20
-115.03749999999999
42
-0.41421356237310542
10
183.96875
20
-115.53750000000001
10
177.96875
20
-115.53750000000002
42
-0.41421356237310542
10
177.46875
20
-115.03749999999999
10
177.46874999999994
20
-101.03749999999999
42
-0.4142135623730846
10
177.96875
20
-100.53749999999999
10
183.96875
20
-100.53750000000001
42
-0.4142135623730846
10
184.46875000000003
20
-101.03749999999999
0
LWPOLYLINE
5
148
100
AcDbEntity
8
0
100
AcDbPolyline
90
8
70
1
43
0.0
10
28.71875
20
-103.03750000000001
10
28.71875
20
-116.03749999999999
42
0.41421356237310025
10
29.21875
20
-116.53749999999999
10
42.21875
20
-116.53750000000001
42
0.41421356237307422
10
42.71875
20
-116.03749999999999
10
42.71875
20
-103.03750000000001
42
0.41421356237308982
10
42.21875
20
-102.53749999999999
10
29.21875
20
-102.53749999999999
42
0.41421356237309243
0
LWPOLYLINE
5
149
100
AcDbEntity
8
0
100
AcDbPolyline
90
8
70
1
43
0.0
10
202.54999999999998
20
-45.887500000000003
42
-0.41421356237307422
10
203.05000000000004
20
-45.387500000000003
10
216.05000000000004
20
-45.387500000000017
42
-0.41421356237312101
10
216.55000000000004
20
-45.887500000000003
10
216.55000000000001
20
-58.88750000000001
42
-0.4142135623730222
10
216.05000000000004
20
-59.387500000000003
10
203.05000000000004
20
-59.387500000000003
42
-0.41421356237313145
10
202.55000000000001
20
-58.88750000000001
0
LWPOLYLINE
5
150
100
AcDbEntity
8
0
100
AcDbPolyline
90
8
70
1
43
0.0
10
140.63749999999999
20
-83.987499999999997
10
140.63749999999999
20
-96.987500000000011
42
0.41421356237309503
10
141.13749999999999
20
-97.487500000000011
10
154.13749999999999
20
-97.487500000000011
42
0.41421356237309503
10
154.63750000000002
20
-96.987500000000011
10
154.63750000000002
20
-83.987499999999997
42
0.41421356237309503
10
154.13749999999999
20
-83.487499999999983
10
141.13749999999999
20
-83.487499999999983
42
0.41421356237309503
0
LWPOLYLINE
5
151
100
AcDbEntity
8
0
100
AcDbPolyline
90
8
70
1
43
0.0
10
225.57500000000002
20
-26.337499999999999
42
-0.41421356237313145
10
226.07500000000002
20
-26.837499999999999
10
226.07500000000002
20
-39.837499999999999
42
-0.41421356237313667
10
225.57500000000002
20
-40.337500000000006
10
212.57499999999999
20
-40.337500000000013
42
-0.41421356237310025
10
212.07499999999999
20
-39.837499999999999
10
212.07499999999999
20
-26.837499999999999
42
-0.41421356237304563
10
212.57499999999999
20
-26.337499999999999
0
LWPOLYLINE
5
152
100
AcDbEntity
8
0
100
AcDbPolyline
90
8
70
1
43
0.0
10
64.4375
20
-83.987499999999997
10
64.4375
20
-96.987500000000011
42
0.41421356237310542
10
64.9375
20
-97.487500000000011
10
77.9375
20
-97.487500000000011
42
0.41421356237309503
10
78.4375
20
-96.987500000000011
10
78.4375
20
-83.987499999999997
42
0.41421356237308982
10
77.9375
20
-83.487499999999983
10
64.9375
20
-83.487499999999983
42
0.41421356237310025
0
LWPOLYLINE
5
153
100
AcDbEntity
8
0
100
AcDbPolyline
90
8
70
1
43
0.0
10
21.575000000000003
20
-26.837499999999999
10
21.575000000000003
20
-39.837499999999999
42
0.41421356237311324
10
22.074999999999999
20
-40.337499999999991
10
35.075000000000003
20
-40.337500000000006
42
0.41421356237310542
10
35.575000000000003
20
-39.837499999999999
10
35.575000000000003
20
-26.837499999999999
42
0.41421356237309503
10
35.075000000000003
20
-26.337499999999999
10
22.074999999999999
20
-26.337499999999999
42
0.41421356237309503
0
LWPOLYLINE
5
154
100
AcDbEntity
8
0
100
AcDbPolyline
90
8
70
1
43
0.0
10
69.200000000000003
20
-45.887500000000003
42
-0.41421356237309503
10
69.700000000000003
20
-45.387500000000003
10
82.700000000000017
20
-45.387499999999996
42
-0.41421356237307422
10
83.200000000000017
20
-45.887500000000003
10
83.200000000000003
20
-58.88750000000001
42
-0.41421356237310025
10
82.700000000000017
20
-59.387500000000003
10
69.700000000000003
20
-59.387500000000003
42
-0.41421356237309503
10
69.200000000000003
20
-58.88750000000001
0
LWPOLYLINE
5
155
100
AcDbEntity
8
0
100
AcDbPolyline
90
8
70
1
43
0.0
10
116.82499999999999
20
-3.0249999999999999
42
-0.41421356237310542
10
117.32500000000002
20
-2.5249999999999999
10
130.32499999999999
20
-2.5249999999999941
42
-0.41421356237309437
10
130.82499999999999
20
-3.0249999999999999
10
130.82499999999999
20
-16.024999999999999
42
-0.41421356237310675
10
130.32499999999999
20
-16.525000000000002
10
117.32500000000002
20
-16.525000000000009
42
-0.41421356237309631
10
116.82500000000002
20
-16.024999999999999
0
LWPOLYLINE
5
156
100
AcDbEntity
8
0
100
AcDbPolyline
90
8
70
1
43
0.0
10
272.75675000000007
20
-65.9375
42
-0.4142135623730222
10
273.25675000000001
20
-65.4375
10
279.25675000000001
20
-65.4375
42
-0.41421356237313667
10
279.75675000000001
20
-65.9375
10
279.75675000000001
20
-79.9375
42
-0.41421356237310025
10
279.25675000000001
20
-80.437500000000014
10
273.25675000000001
20
-80.4375
42
-0.41421356237308982
10
272.75675000000001
20
-79.9375
0
LWPOLYLINE
5
157
100
AcDbEntity
8
0
100
AcDbPolyline
90
8
70
1
43
0.0
10
202.54999999999998
20
-3.0249999999999999
42
-0.41421356237307749
10
203.05000000000004
20
-2.5249999999999999
10
216.05000000000004
20
-2.5249999999999817
42
-0.41421356237310153
10
216.55000000000004
20
-3.0249999999999999
10
216.55000000000004
20
-16.024999999999999
42
-0.41421356237304691
10
216.05000000000004
20
-16.525000000000002
10
203.05000000000004
20
-16.525000000000002
42
-0.41421356237313406
10
202.55000000000001
20
-16.024999999999999
0
LWPOLYLINE
5
158
100
AcDbEntity
8
0
100
AcDbPolyline
90
8
70
1
43
0.0
10
288.27499999999998
20
-83.987499999999997
42
-0.41421356237310542
10
288.77499999999998
20
-83.487499999999983
10
301.77499999999998
20
-83.487499999999983
42
-0.41421356237313667
10
302.27499999999998
20
-83.987499999999997
10
302.27499999999998
20
-96.987500000000011
42
-0.41421356237313667
10
301.77499999999998
20
-97.487500000000011
10
288.77499999999998
20
-97.487500000000026
42
-0.41421356237310542
10
288.27499999999998
20
-96.987500000000011
0
LWPOLYLINE
5
159
100
AcDbEntity
8
0
100
AcDbPolyline
90
8
70
1
43
0.0
10
78.725000000000009
20
-26.837499999999999
42
-0.41421356237309764
10
79.224999999999994
20
-26.337499999999999
10
92.224999999999994
20
-26.337499999999995
42
-0.41421356237309243
10
92.725000000000009
20
-26.837499999999999
10
92.725000000000009
20
-39.837499999999999
42
-0.41421356237310802
10
92.224999999999994
20
-40.337500000000006
10
79.224999999999994
20
-40.337499999999991
42
-0.41421356237311585
10
78.724999999999994
20
-39.837499999999999
0
LWPOLYLINE
5
160
100
AcDbEntity
8
0
100
AcDbPolyline
90
8
70
1
43
0.0
10
150.16249999999999
20
-64.9375
42
-0.41421356237310542
10
150.66249999999999
20
-64.4375
10
163.66250000000002
20
-64.437500000000014
42
-0.41421356237312623
10
164.16250000000002
20
-64.9375
10
164.16249999999997
20
-77.9375
42
-0.4142135623730222
10
163.66250000000002
20
-78.4375
10
150.66249999999999
20
-78.437500000000014
42
-0.41421356237309503
10
150.16249999999999
20
-77.9375
0
LWPOLYLINE
5
161
100
AcDbEntity
8
0
100
AcDbPolyline
90
8
70
1
43
0.0
10
54.912500000000009
20
-64.9375
42
-0.41421356237309503
10
55.412500000000009
20
-64.4375
10
68.412499999999994
20
-64.4375
42
-0.41421356237309503
10
68.912499999999994
20
-64.9375
10
68.912499999999994
20
-77.9375
42
-0.41421356237309503
10
68.412499999999994
20
-78.4375
10
55.412500000000009
20
-78.4375
42
-0.41421356237309503
10
54.912500000000009
20
-77.9375
0
LWPOLYLINE
5
162
100
AcDbEntity
8
0
100
AcDbPolyline
90
8
70
1
43
0.0
10
73.962500000000006
20
-64.9375
42
-0.41421356237310542
10
74.462500000000006
20
-64.4375
10
87.462500000000006
20
-64.437499999999986
42
-0.41421356237307944
10
87.96250000000002
20
-64.9375
10
87.962500000000006
20
-77.9375
42
-0.41421356237310025
10
87.46250000000002
20
-78.4375
10
74.462500000000006
20
-78.4375
42
-0.41421356237309503
10
73.962500000000006
20
-77.9375
0
LWPOLYLINE
5
163
100
AcDbEntity
8
0
100
AcDbPolyline
90
8
70
1
43
0.0
10
288.27499999999998
20
-103.03750000000001
42
-0.41421356237310542
10
288.77499999999998
20
-102.53749999999999
10
301.77499999999998
20
-102.53749999999999
42
-0.41421356237313667
10
302.27499999999998
20
-103.03750000000001
10
302.27499999999998
20
-116.03749999999999
42
-0.41421356237309503
10
301.77499999999998
20
-116.53750000000001
10
288.77499999999998
20
-116.53749999999999
42
-0.4142135623730846
10
288.27499999999998
20
-116.03749999999999
0
LWPOLYLINE
5
164
100
AcDbEntity
8
0
100
AcDbPolyline
90
8
70
1
43
0.0
10
221.59999999999999
20
-3.0249999999999999
10
221.59999999999999
20
-16.024999999999999
42
0.41421356237312362
10
222.10000000000002
20
-16.525000000000002
10
235.10000000000002
20
-16.525000000000002
42
0.4142135623730781
10
235.60000000000002
20
-16.024999999999999
10
235.60000000000002
20
-3.0249999999999999
42
0.41421356237313273
10
235.10000000000002
20
-2.5249999999999999
10
222.10000000000002
20
-2.5249999999999999
42
0.41421356237304624
0
LWPOLYLINE
5
165
100
AcDbEntity
8
0
100
AcDbPolyline
90
8
70
1
43
0.0
10
207.31250000000003
20
-64.9375
42
-0.4142135623730222
10
207.8125
20
-64.4375
10
220.8125
20
-64.4375
42
-0.41421356237313667
10
221.3125
20
-64.9375
10
221.31250000000006
20
-77.9375
42
-0.41421356237307422
10
220.8125
20
-78.4375
10
207.8125
20
-78.437499999999986
42
-0.41421356237312101
10
207.3125
20
-77.9375
0
LWPOLYLINE
5
166
100
AcDbEntity
8
0
100
AcDbPolyline
90
8
70
1
43
0.0
10
24.887500000000003
20
-45.887500000000003
42
-0.41421356237309503
10
25.387500000000003
20
-45.387500000000003
10
26.387499999999999
20
-45.387500000000003
42
-0.41421356237309503
10
26.887499999999996
20
-45.887500000000003
10
26.887499999999996
20
-58.88750000000001
42
-0.41421356237309503
10
26.387499999999999
20
-59.387500000000003
10
25.387500000000003
20
-59.387500000000003
42
-0.41421356237309503
10
24.887500000000003
20
-58.88750000000001
0
LWPOLYLINE
5
167
100
AcDbEntity
8
0
100
AcDbPolyline
90
8
70
1
43
0.0
10
159.6875
20
-83.987499999999997
42
-0.41421356237309503
10
160.1875
20
-83.487499999999983
10
173.1875
20
-83.487499999999969
42
-0.41421356237310542
10
173.68750000000003
20
-83.987499999999997
10
173.6875
20
-96.987500000000011
42
-0.41421356237310542
10
173.1875
20
-97.487500000000011
10
160.1875
20
-97.487500000000011
42
-0.41421356237309503
10
159.6875
20
-96.987500000000011
0
LWPOLYLINE
5
168
100
AcDbEntity
8
0
100
AcDbPolyline
90
8
70
1
43
0.0
10
36.369250000000001
20
-84.487500000000011
42
-0.4142135623730846
10
36.869250000000001
20
-84.987499999999997
10
36.869250000000008
20
-98.987499999999997
42
-0.41421356237309503
10
36.369250000000001
20
-99.487500000000011
10
30.369250000000001
20
-99.487500000000011
42
-0.41421356237310542
10
29.869250000000001
20
-98.987499999999997
10
29.869249999999997
20
-84.987499999999997
42
-0.41421356237307161
10
30.369250000000001
20
-84.487499999999983
0
LWPOLYLINE
5
169
100
AcDbEntity
8
0
100
AcDbPolyline
90
8
70
1
43
0.0
10
288.27499999999998
20
-26.837499999999999
42
-0.41421356237304563
10
288.77499999999998
20
-26.337499999999999
10
301.77499999999998
20
-26.337499999999999
42
-0.41421356237313145
10
302.27499999999998
20
-26.837499999999999
10
302.27499999999998
20
-39.837499999999999
42
-0.41421356237313667
10
301.77499999999998
20
-40.337500000000006
10
288.77499999999998
20
-40.337500000000013
42
-0.41421356237310025
10
288.27499999999998
20
-39.837499999999999
0
LWPOLYLINE
5
170
100
AcDbEntity
8
0
100
AcDbPolyline
90
8
70
1
43
0.0
10
226.36250000000004
20
-64.9375
42
-0.4142135623730222
10
226.86250000000001
20
-64.4375
10
239.86250000000001
20
-64.4375
42
-0.41421356237313667
10
240.36250000000001
20
-64.9375
10
240.36250000000007
20
-77.9375
42
-0.41421356237307422
10
239.86250000000001
20
-78.4375
10
226.86250000000001
20
-78.437499999999986
42
-0.41421356237312101
10
226.36250000000001
20
-77.9375
0
LWPOLYLINE
5
171
100
AcDbEntity
8
0
100
AcDbPolyline
90
8
70
1
43
0.0
10
269.22500000000008
20
-103.03750000000001
42
-0.41421356237310542
10
269.72500000000002
20
-102.53749999999999
10
282.72500000000002
20
-102.53749999999999
42
-0.41421356237313667
10
283.22500000000002
20
-103.03750000000001
10
283.22500000000002
20
-116.03749999999999
42
-0.41421356237309503
10
282.72500000000002
20
-116.53750000000001
10
269.72500000000002
20
-116.53749999999999
42
-0.4142135623730846
10
269.22500000000002
20
-116.03749999999999
0
LWPOLYLINE
5
172
100
AcDbEntity
8
0
100
AcDbPolyline
90
8
70
1
43
0.0
10
288.27499999999998
20
-3.0249999999999999
42
-0.41421356237304624
10
288.77499999999998
20
-2.5249999999999999
10
301.77499999999998
20
-2.5249999999999995
42
-0.41421356237313273
10
302.27499999999998
20
-3.0249999999999999
10
302.27500000000003
20
-16.024999999999999
42
-0.4142135623730781
10
301.77499999999998
20
-16.525000000000002
10
288.77499999999998
20
-16.524999999999984
42
-0.41421356237312362
10
288.27499999999998
20
-16.024999999999999
0
LWPOLYLINE
5
173
100
AcDbEntity
8
0
100
AcDbPolyline
90
8
70
1
43
0.0
10
219.21875
20
-103.03750000000001
42
-0.41421356237313667
10
219.71875
20
-102.53749999999999
10
232.71875
20
-102.53749999999998
42
-0.41421356237310542
10
233.21875000000003
20
-103.03750000000001
10
233.21875000000006
20
-116.03749999999999
42
-0.4142135623730846
10
232.71875
20
-116.53750000000001
10
219.71875
20
-116.53750000000001
42
-0.41421356237309503
10
219.21875
20
-116.03749999999999
0
LWPOLYLINE
5
174
100
AcDbEntity
8
0
100
AcDbPolyline
90
8
70
1
43
0.0
10
250.17500000000007
20
-103.03750000000001
42
-0.41421356237310542
10
250.67500000000001
20
-102.53749999999999
10
263.67500000000001
20
-102.53749999999999
42
-0.41421356237313667
10
264.17500000000007
20
-103.03750000000001
10
264.17500000000007
20
-116.03749999999999
42
-0.41421356237309503
10
263.67500000000001
20
-116.53750000000001
10
250.67500000000001
20
-116.53749999999999
42
-0.4142135623730846
10
250.17500000000001
20
-116.03749999999999
0
LWPOLYLINE
5
175
100
AcDbEntity
8
0
100
AcDbPolyline
90
8
70
1
43
0.0
10
45.387499999999996
20
-83.987499999999997
42
-0.41421356237309503
10
45.887500000000003
20
-83.487499999999983
10
58.88750000000001
20
-83.487499999999983
42
-0.41421356237308982
10
59.387500000000003
20
-83.987499999999997
10
59.387500000000017
20
-96.987500000000011
42
-0.41421356237309503
10
58.88750000000001
20
-97.487500000000011
10
45.887500000000003
20
-97.487500000000011
42
-0.41421356237308982
10
45.387500000000003
20
-96.987500000000011
0
LWPOLYLINE
5
176
100
AcDbEntity
8
0
100
AcDbPolyline
90
8
70
1
43
0.0
10
216.83750000000003
20
-83.987499999999997
42
-0.41421356237310542
10
217.33750000000001
20
-83.487499999999983
10
230.33750000000001
20
-83.487499999999983
42
-0.41421356237313667
10
230.83750000000003
20
-83.987499999999997
10
230.83750000000003
20
-96.987500000000011
42
-0.41421356237313667
10
230.33750000000001
20
-97.487500000000011
10
217.33750000000001
20
-97.487500000000026
42
-0.41421356237310542
10
216.83750000000001
20
-96.987500000000011
0
LWPOLYLINE
5
177
100
AcDbEntity
8
0
100
AcDbPolyline
90
8
70
1
43
0.0
10
173.97499999999997
20
-26.837499999999999
42
-0.41421356237307683
10
174.47500000000002
20
-26.337499999999999
10
187.47499999999999
20
-26.337499999999999
42
-0.41421356237313145
10
187.97499999999999
20
-26.837499999999999
10
187.97499999999999
20
-39.837499999999999
42
-0.41421356237313667
10
187.47499999999999
20
-40.337500000000006
10
174.47500000000002
20
-40.337500000000034
42
-0.41421356237311063
10
173.97500000000002
20
-39.837499999999999
0
LWPOLYLINE
5
178
100
AcDbEntity
8
0
100
AcDbPolyline
90
8
70
1
43
0.0
10
288.27499999999998
20
-64.9375
42
-0.4142135623730222
10
288.77499999999998
20
-64.4375
10
301.77499999999998
20
-64.4375
42
-0.41421356237313667
10
302.27499999999998
20
-64.9375
10
302.27500000000003
20
-77.9375
42
-0.41421356237307422
10
301.77499999999998
20
-78.4375
10
288.77499999999998
20
-78.437499999999986
42
-0.41421356237312101
10
288.27499999999998
20
-77.9375
0
LWPOLYLINE
5
179
100
AcDbEntity
8
0
100
AcDbPolyline
90
8
70
1
43
0.0
10
254.15000000000003
20
-45.387500000000003
42
-0.41421356237313145
10
254.65000000000003
20
-45.887500000000003
10
254.65000000000006
20
-58.88750000000001
42
-0.41421356237307422
10
254.15000000000003
20
-59.387500000000003
10
241.15000000000003
20
-59.387499999999989
42
-0.41421356237312101
10
240.65000000000001
20
-58.88750000000001
10
240.65000000000003
20
-45.887500000000003
42
-0.4142135623730222
10
241.15000000000003
20
-45.387500000000003
0
LWPOLYLINE
5
180
100
AcDbEntity
8
0
100
AcDbPolyline
90
8
70
1
43
0.0
10
7.2875000000000023
20
-45.887500000000003
10
7.2874999999999996
20
-58.88750000000001
42
0.4142135623730937
10
7.7875000000000005
20
-59.387500000000003
10
20.787500000000001
20
-59.387500000000003
42
0.41421356237309503
10
21.287500000000001
20
-58.88750000000001
10
21.287500000000001
20
-45.887500000000003
42
0.41421356237309503
10
20.787500000000001
20
-45.387500000000003
10
7.7875000000000005
20
-45.387500000000003
42
0.41421356237309503
0
LWPOLYLINE
5
181
100
AcDbEntity
8
0
100
AcDbPolyline
90
8
70
1
43
0.0
10
112.0625
20
-64.9375
42
-0.41421356237310542
10
112.56250000000001
20
-64.4375
10
125.56249999999999
20
-64.437499999999986
42
-0.41421356237307944
10
126.06250000000001
20
-64.9375
10
126.0625
20
-77.9375
42
-0.41421356237310025
10
125.5625
20
-78.4375
10
112.56250000000001
20
-78.437500000000014
42
-0.41421356237309503
10
112.0625
20
-77.9375
0
LWPOLYLINE
5
182
100
AcDbEntity
8
0
100
AcDbPolyline
90
8
70
1
43
0.0
10
123.96875
20
-103.03750000000001
42
-0.41421356237307422
10
124.46875
20
-102.53749999999999
10
137.46875
20
-102.53749999999999
42
-0.41421356237307422
10
137.96875000000003
20
-103.03750000000001
10
137.96875000000003
20
-116.03749999999999
42
-0.4142135623730534
10
137.46875
20
-116.53750000000001
10
124.46875
20
-116.53750000000001
42
-0.4142135623730534
10
123.96875
20
-116.03749999999999
0
LWPOLYLINE
5
183
100
AcDbEntity
8
0
100
AcDbPolyline
90
8
70
1
43
0.0
10
102.53749999999999
20
-83.987499999999997
42
-0.41421356237309503
10
103.03750000000001
20
-83.487499999999983
10
116.03749999999999
20
-83.487499999999983
42
-0.41421356237307422
10
116.53750000000001
20
-83.987499999999997
10
116.53750000000001
20
-96.987500000000011
42
-0.41421356237307422
10
116.03749999999999
20
-97.487500000000011
10
103.03750000000001
20
-97.487500000000011
42
-0.41421356237309503
10
102.53749999999999
20
-96.987500000000011
0
LWPOLYLINE
5
184
100
AcDbEntity
8
0
100
AcDbPolyline
90
8
70
1
43
0.0
10
288.27499999999998
20
-45.887500000000003
42
-0.4142135623730222
10
288.77499999999998
20
-45.387500000000003
10
301.77499999999998
20
-45.387500000000003
42
-0.41421356237313145
10
302.27499999999998
20
-45.887500000000003
10
302.27500000000003
20
-58.88750000000001
42
-0.41421356237307422
10
301.77499999999998
20
-59.387500000000003
10
288.77499999999998
20
-59.387499999999989
42
-0.41421356237312101
10
288.27499999999998
20
-58.88750000000001
0
LWPOLYLINE
5
185
100
AcDbEntity
8
0
100
AcDbPolyline
90
8
70
1
43
0.0
10
240.65000000000001
20
-3.0249999999999999
42
-0.41421356237304624
10
241.15000000000003
20
-2.5249999999999999
10
254.15000000000003
20
-2.5249999999999995
42
-0.41421356237313273
10
254.65000000000003
20
-3.0249999999999999
10
254.65000000000006
20
-16.024999999999999
42
-0.4142135623730781
10
254.15000000000003
20
-16.525000000000002
10
241.15000000000003
20
-16.524999999999984
42
-0.41421356237312362
10
240.65000000000001
20
-16.024999999999999
0
LWPOLYLINE
5
186
100
AcDbEntity
8
0
100
AcDbPolyline
90
8
70
1
43
0.0
10
31.100000000000001
20
-3.0249999999999999
42
-0.41421356237309537
10
31.600000000000001
20
-2.5249999999999999
10
44.600000000000001
20
-2.525000000000003
42
-0.41421356237309437
10
45.099999999999994
20
-3.0249999999999999
10
45.099999999999994
20
-16.024999999999999
42
-0.4142135623730937
10
44.600000000000001
20
-16.525000000000002
10
31.600000000000001
20
-16.525000000000002
42
-0.41421356237309631
10
31.100000000000001
20
-16.024999999999999
0
LWPOLYLINE
5
187
100
AcDbEntity
8
0
100
AcDbPolyline
90
8
70
1
43
0.0
10
2.5249999999999999
20
-3.0249999999999999
42
-0.41421356237309437
10
3.0249999999999999
20
-2.5249999999999999
10
16.024999999999999
20
-2.5249999999999986
42
-0.41421356237309309
10
16.525000000000002
20
-3.0249999999999999
10
16.525000000000002
20
-16.024999999999999
42
-0.41421356237309243
10
16.024999999999999
20
-16.525000000000002
10
3.0249999999999999
20
-16.525000000000002
42
-0.4142135623730947
10
2.5249999999999999
20
-16.024999999999999
0
LWPOLYLINE
5
188
100
AcDbEntity
8
0
100
AcDbPolyline
90
8
70
1
43
0.0
10
50.150000000000006
20
-3.0249999999999999
42
-0.41421356237309404
10
50.650000000000006
20
-2.5249999999999999
10
63.650000000000006
20
-2.5249999999999986
42
-0.41421356237309698
10
64.150000000000006
20
-3.0249999999999999
10
64.150000000000006
20
-16.024999999999999
42
-0.41421356237309631
10
63.650000000000006
20
-16.525000000000002
10
50.650000000000006
20
-16.524999999999999
42
-0.41421356237309503
10
50.150000000000006
20
-16.024999999999999
0
LWPOLYLINE
5
189
100
AcDbEntity
8
0
100
AcDbPolyline
90
8
70
1
43
0.0
10
111.27500000000001
20
-26.337499999999995
42
-0.41421356237309243
10
111.77500000000002
20
-26.837499999999999
10
111.77500000000002
20
-39.837499999999999
42
-0.41421356237310802
10
111.27500000000001
20
-40.337500000000006
10
98.275000000000006
20
-40.337500000000006
42
-0.41421356237309243
10
97.775000000000006
20
-39.837499999999999
10
97.775000000000006
20
-26.837499999999999
42
-0.41421356237310542
10
98.275000000000006
20
-26.337499999999999
0
LWPOLYLINE
5
190
100
AcDbEntity
8
0
100
AcDbPolyline
90
8
70
1
43
0.0
10
107.30000000000001
20
-45.887500000000003
42
-0.41421356237308982
10
107.80000000000001
20
-45.387500000000003
10
120.8
20
-45.387499999999996
42
-0.41421356237307422
10
121.30000000000001
20
-45.887500000000003
10
121.29999999999998
20
-58.88750000000001
42
-0.41421356237310025
10
120.8
20
-59.387500000000003
10
107.80000000000001
20
-59.387500000000017
42
-0.41421356237309503
10
107.30000000000001
20
-58.88750000000001
0
LWPOLYLINE
5
191
100
AcDbEntity
8
0
100
AcDbPolyline
90
8
70
1
43
0.0
10
2.5250000000000004
20
-26.837499999999999
42
-0.4142135623730957
10
3.0249999999999999
20
-26.337499999999999
10
16.024999999999999
20
-26.337499999999999
42
-0.41421356237309503
10
16.525000000000002
20
-26.837499999999999
10
16.525000000000002
20
-39.837499999999999
42
-0.41421356237310025
10
16.024999999999999
20
-40.337500000000006
10
3.0249999999999999
20
-40.337500000000006
42
-0.41421356237308005
10
2.5249999999999999
20
-39.837499999999999
0
LWPOLYLINE
5
192
100
AcDbEntity
8
0
100
AcDbPolyline
90
8
70
1
43
0.0
10
262.13125000000002
20
-83.487499999999969
42
-0.41421356237310542
10
262.63125000000008
20
-83.987499999999997
10
262.63125000000002
20
-96.987500000000011
42
-0.41421356237310542
10
262.13125000000002
20
-97.487500000000011
10
261.13125000000002
20
-97.487500000000026
42
-0.41421356237310542
10
260.63125000000002
20
-96.987500000000011
10
260.63125000000008
20
-83.987499999999997
42
-0.41421356237310542
10
261.13125000000002
20
-83.487499999999983
0
LWPOLYLINE
5
193
100
AcDbEntity
8
0
100
AcDbPolyline
90
8
70
1
43
0.0
10
248.88075000000001
20
-65.9375
10
248.88075000000001
20
-79.9375
42
0.41421356237310025
10
249.38075000000001
20
-80.437500000000014
10
255.38075000000003
20
-80.437500000000014
42
0.41421356237310025
10
255.88075000000003
20
-79.9375
10
255.88075000000003
20
-65.9375
42
0.41421356237313667
10
255.38075000000003
20
-65.4375
10
249.38075000000001
20
-65.4375
42
0.41421356237307422
0
LWPOLYLINE
5
194
100
AcDbEntity
8
0
100
AcDbPolyline
90
8
70
1
43
0.0
10
77.96875
20
-115.53750000000001
42
-0.41421356237310542
10
77.46875
20
-115.03749999999999
10
77.468749999999986
20
-101.03750000000002
42
-0.41421356237307944
10
77.96875
20
-100.53749999999999
10
83.96875
20
-100.53749999999999
42
-0.4142135623730534
10
84.46875
20
-101.03749999999999
10
84.46875
20
-115.03749999999999
42
-0.41421356237307422
10
83.96875
20
-115.53750000000001
0
LWPOLYLINE
5
195
100
AcDbEntity
8
0
100
AcDbPolyline
90
8
70
1
43
0.0
10
88.25
20
-45.887500000000003
42
-0.41421356237308982
10
88.75
20
-45.387500000000003
10
101.75
20
-45.387499999999996
42
-0.41421356237309503
10
102.25000000000001
20
-45.887500000000003
10
102.25000000000001
20
-58.88750000000001
42
-0.41421356237308982
10
101.75
20
-59.387500000000003
10
88.75
20
-59.387500000000017
42
-0.41421356237309503
10
88.25
20
-58.88750000000001
0
LWPOLYLINE
5
196
100
AcDbEntity
8
0
100
AcDbPolyline
90
8
70
1
43
0.0
10
116.82500000000002
20
-26.837499999999999
10
116.82500000000002
20
-39.837499999999999
42
0.41421356237309243
10
117.32500000000002
20
-40.337500000000013
10
130.32499999999999
20
-40.337500000000006
42
0.41421356237310802
10
130.82499999999999
20
-39.837499999999999
10
130.82499999999999
20
-26.837499999999999
42
0.41421356237309243
10
130.32499999999999
20
-26.337499999999999
10
117.32500000000002
20
-26.337499999999999
42
0.41421356237310542
0
LWPOLYLINE
5
197
100
AcDbEntity
8
0
100
AcDbPolyline
90
8
70
1
43
0.0
10
178.73750000000001
20
-83.987499999999997
42
-0.41421356237313667
10
179.23750000000001
20
-83.487499999999983
10
192.23750000000001
20
-83.487499999999969
42
-0.41421356237310542
10
192.73750000000004
20
-83.987499999999997
10
192.73750000000001
20
-96.987500000000011
42
-0.41421356237310542
10
192.23750000000001
20
-97.487500000000011
10
179.23750000000001
20
-97.487500000000011
42
-0.41421356237313667
10
178.73750000000001
20
-96.987500000000011
0
LWPOLYLINE
5
198
100
AcDbEntity
8
0
100
AcDbPolyline
90
8
70
1
43
0.0
10
269.22500000000008
20
-83.987499999999997
42
-0.41421356237310542
10
269.72500000000002
20
-83.487499999999983
10
282.72500000000002
20
-83.487499999999983
42
-0.41421356237313667
10
283.22500000000002
20
-83.987499999999997
10
283.22500000000002
20
-96.987500000000011
42
-0.41421356237313667
10
282.72500000000002
20
-97.487500000000011
10
269.72500000000002
20
-97.487500000000026
42
-0.41421356237310542
10
269.22500000000002
20
-96.987500000000011
0
LWPOLYLINE
5
199
100
AcDbEntity
8
0
100
AcDbPolyline
90
8
70
1
43
0.0
10
164.44999999999996
20
-45.887500000000003
42
-0.41421356237307422
10
164.95000000000002
20
-45.387500000000003
10
177.94999999999999
20
-45.387500000000003
42
-0.41421356237313145
10
178.44999999999999
20
-45.887500000000003
10
178.45000000000002
20
-58.88750000000001
42
-0.41421356237307422
10
177.94999999999999
20
-59.387500000000003
10
164.95000000000002
20
-59.387500000000003
42
-0.41421356237313145
10
164.44999999999999
20
-58.88750000000001
0
LWPOLYLINE
5
200
100
AcDbEntity
8
0
100
AcDbPolyline
90
8
70
1
43
0.0
10
52.53125
20
-103.03750000000001
42
-0.41421356237309503
10
53.031250000000007
20
-102.53749999999999
10
66.03125
20
-102.53749999999999
42
-0.41421356237310542
10
66.53125
20
-103.03750000000001
10
66.531250000000014
20
-116.03749999999998
42
-0.41421356237307944
10
66.03125
20
-116.53750000000001
10
53.031250000000007
20
-116.53749999999999
42
-0.41421356237310025
10
52.531250000000007
20
-116.03749999999999
0
LWPOLYLINE
5
201
100
AcDbEntity
8
0
100
AcDbPolyline
90
8
70
1
43
0.0
10
35.862499999999997
20
-64.9375
42
-0.41421356237309764
10
36.362499999999997
20
-64.4375
10
49.362500000000004
20
-64.4375
42
-0.41421356237309503
10
49.862499999999997
20
-64.9375
10
49.862499999999997
20
-77.9375
42
-0.41421356237309503
10
49.362500000000004
20
-78.4375
10
36.362499999999997
20
-78.4375
42
-0.41421356237309503
10
35.862500000000004
20
-77.9375
0
LWPOLYLINE
5
202
100
AcDbEntity
8
0
100
AcDbPolyline
90
8
70
1
43
0.0
10
121.58750000000001
20
-83.987499999999997
10
121.58750000000001
20
-96.987500000000011
42
0.41421356237309503
10
122.08750000000002
20
-97.487500000000011
10
135.08750000000001
20
-97.487500000000011
42
0.41421356237307422
10
135.58750000000001
20
-96.987500000000011
10
135.58750000000001
20
-83.987499999999997
42
0.41421356237307422
10
135.08750000000001
20
-83.487499999999983
10
122.08750000000002
20
-83.487499999999983
42
0.41421356237309503
0
LWPOLYLINE
5
203
100
AcDbEntity
8
0
100
AcDbPolyline
90
8
70
1
43
0.0
10
188.26250000000002
20
-64.9375
42
-0.4142135623730222
10
188.76249999999999
20
-64.4375
10
201.76249999999999
20
-64.4375
42
-0.41421356237313667
10
202.26249999999999
20
-64.9375
10
202.26250000000005
20
-77.9375
42
-0.41421356237307422
10
201.76249999999999
20
-78.4375
10
188.76249999999999
20
-78.437499999999986
42
-0.41421356237312101
10
188.26249999999999
20
-77.9375
0
LWPOLYLINE
5
204
100
AcDbEntity
8
0
100
AcDbPolyline
90
8
70
1
43
0.0
10
231.125
20
-26.837499999999999
42
-0.41421356237304563
10
231.625
20
-26.337499999999999
10
244.62500000000003
20
-26.337499999999999
42
-0.41421356237313145
10
245.12500000000003
20
-26.837499999999999
10
245.12500000000003
20
-39.837499999999999
42
-0.41421356237313667
10
244.62500000000003
20
-40.337500000000006
10
231.625
20
-40.337500000000013
42
-0.41421356237310025
10
231.125
20
-39.837499999999999
0
LWPOLYLINE
5
205
100
AcDbEntity
8
0
100
AcDbPolyline
90
8
70
1
43
0.0
10
31.100000000000001
20
-45.887500000000003
42
-0.41421356237309503
10
31.600000000000001
20
-45.387500000000003
10
44.600000000000001
20
-45.387500000000003
42
-0.41421356237309503
10
45.099999999999994
20
-45.887500000000003
10
45.099999999999994
20
-58.88750000000001
42
-0.41421356237309503
10
44.600000000000001
20
-59.387500000000003
10
31.600000000000001
20
-59.387500000000003
42
-0.41421356237309503
10
31.100000000000001
20
-58.88750000000001
0
LWPOLYLINE
5
206
100
AcDbEntity
8
0
100
AcDbPolyline
90
8
70
1
43
0.0
10
257.31874999999997
20
-64.9375
42
-0.41421356237307422
10
257.81875000000002
20
-64.4375
10
270.81875000000002
20
-64.437500000000014
42
-0.41421356237312623
10
271.31875000000002
20
-64.9375
10
271.31875000000002
20
-77.9375
42
-0.4142135623730222
10
270.81875000000002
20
-78.4375
10
257.81875000000002
20
-78.4375
42
-0.41421356237313145
10
257.31875000000002
20
-77.9375
0
LWPOLYLINE
5
207
100
AcDbEntity
8
0
100
AcDbPolyline
90
8
70
1
43
0.0
10
282.06250000000006
20
-45.887500000000003
42
-0.4142135623730222
10
282.5625
20
-45.387500000000003
10
283.5625
20
-45.387500000000017
42
-0.41421356237312101
10
284.06250000000006
20
-45.887500000000003
10
284.0625
20
-58.88750000000001
42
-0.4142135623730222
10
283.5625
20
-59.387500000000003
10
282.5625
20
-59.387499999999989
42
-0.41421356237312101
10
282.0625
20
-58.88750000000001
0
LWPOLYLINE
5
208
100
AcDbEntity
8
0
100
AcDbPolyline
90
8
70
1
43
0.0
10
88.249999999999972
20
-3.0249999999999999
42
-0.41421356237310542
10
88.75
20
-2.5249999999999999
10
101.75
20
-2.5249999999999941
42
-0.41421356237309437
10
102.25000000000001
20
-3.0249999999999999
10
102.25000000000001
20
-16.024999999999999
42
-0.41421356237310675
10
101.75
20
-16.525000000000002
10
88.75
20
-16.525000000000009
42
-0.41421356237309631
10
88.25
20
-16.024999999999999
0
LWPOLYLINE
5
209
100
AcDbEntity
8
0
100
AcDbPolyline
90
8
70
1
43
0.0
10
144.61250000000004
20
-64.437499999999986
42
-0.414213562373069
10
145.11250000000001
20
-64.9375
10
145.11250000000001
20
-77.9375
42
-0.41421356237310025
10
144.61250000000001
20
-78.4375
10
131.61250000000001
20
-78.437500000000014
42
-0.41421356237309503
10
131.11250000000001
20
-77.9375
10
131.11250000000001
20
-64.9375
42
-0.41421356237310542
10
131.61250000000001
20
-64.4375
0
LWPOLYLINE
5
210
100
AcDbEntity
8
0
100
AcDbPolyline
90
8
70
1
43
0.0
10
264.46249999999998
20
-45.887500000000003
42
-0.41421356237307422
10
264.96249999999998
20
-45.387500000000003
10
277.96249999999998
20
-45.387500000000017
42
-0.41421356237312101
10
278.46250000000003
20
-45.887500000000003
10
278.46249999999998
20
-58.88750000000001
42
-0.4142135623730222
10
277.96249999999998
20
-59.387500000000003
10
264.96249999999998
20
-59.387500000000003
42
-0.41421356237313145
10
264.46249999999998
20
-58.88750000000001
0
ARC
5
211
100
AcDbEntity
8
0
100
AcDbCircle
10
302.80000000000007
20
-2.0000000000000067
30
0
40
1.9999999999999929
210
0
220
-0
230
1
100
AcDbArc
50
0
51
90
0
LINE
5
212
100
AcDbEntity
8
0
100
AcDbLine
10
302.80000000000007
20
-1.3600232051658168e-14
30
0
11
300.77499999999998
21
0
31
0
0
ARC
5
213
100
AcDbEntity
8
0
100
AcDbCircle
10
300.77499999999998
20
2
30
0
40
1.9999999999999929
210
0
220
0
230
1
100
AcDbArc
50
180
51
270
0
LINE
5
214
100
AcDbEntity
8
0
100
AcDbLine
10
298.77499999999998
20
2
30
0
11
298.77499999999998
21
2.0999999999999934
31
0
0
ARC
5
215
100
AcDbEntity
8
0
100
AcDbCircle
10
295.27499999999998
20
2.0999999999999974
30
0
40
3.5000000000000142
210
-0
220
0
230
1
100
AcDbArc
50
0
51
180
0
LINE
5
216
100
AcDbEntity
8
0
100
AcDbLine
10
291.77499999999998
20
2.0999999999999979
30
0
11
291.77499999999998
21
2
31
0
0
ARC
5
217
100
AcDbEntity
8
0
100
AcDbCircle
10
289.77499999999998
20
2
30
0
40
1.9999999999999996
210
-0
220
0
230
1
100
AcDbArc
50
-90
51
0
0
LINE
5
218
100
AcDbEntity
8
0
100
AcDbLine
10
289.77499999999998
20
5.5511151231257827e-16
30
0
11
246.15000000000003
21
0
31
0
0
ARC
5
219
100
AcDbEntity
8
0
100
AcDbCircle
10
246.15000000000003
20
2
30
0
40
1.9999999999999929
210
0
220
0
230
1
100
AcDbArc
50
180
51
270
0
LINE
5
220
100
AcDbEntity
8
0
100
AcDbLine
10
244.15000000000003
20
2.0000000000000009
30
0
11
244.15000000000003
21
2.1000000000000001
31
0
0
ARC
5
221
100
AcDbEntity
8
0
100
AcDbCircle
10
240.65000000000001
20
2.0999999999999974
30
0
40
3.5000000000000142
210
0
220
-0
230
1
100
AcDbArc
50
0
51
180
0
LINE
5
222
100
AcDbEntity
8
0
100
AcDbLine
10
237.15000000000001
20
2.100000000000001
30
0
11
237.15000000000001
21
2
31
0
0
ARC
5
223
100
AcDbEntity
8
0
100
AcDbCircle
10
235.15000000000001
20
2
30
0
40
2
210
-0
220
0
230
1
100
AcDbArc
50
-90
51
0
0
LINE
5
224
100
AcDbEntity
8
0
100
AcDbLine
10
235.15000000000001
20
0
30
0
11
148.375
21
0
31
0
0
ARC
5
225
100
AcDbEntity
8
0
100
AcDbCircle
10
148.375
20
2
30
0
40
1.9999999999999929
210
0
220
0
230
1
100
AcDbArc
50
180
51
270
0
LINE
5
226
100
AcDbEntity
8
0
100
AcDbLine
10
146.375
20
2.0000000000000102
30
0
11
146.375
21
2.1000000000000063
31
0
0
ARC
5
227
100
AcDbEntity
8
0
100
AcDbCircle
10
142.875
20
2.0999999999999974
30
0
40
3.4999999999999964
210
0
220
-0
230
1
100
AcDbArc
50
0
51
180
0
LINE
5
228
100
AcDbEntity
8
0
100
AcDbLine
10
139.37500000000003
20
2.1000000000000076
30
0
11
139.37500000000003
21
1.9999999999999889
31
0
0
ARC
5
229
100
AcDbEntity
8
0
100
AcDbCircle
10
137.375
20
2
30
0
40
1.9999999999999996
210
-0
220
0
230
1
100
AcDbArc
50
270
51
360
0
LINE
5
230
100
AcDbEntity
8
0
100
AcDbLine
10
137.375
20
5.5511151231257827e-16
30
0
11
50.599999999999987
21
0
31
0
0
ARC
5
231
100
AcDbEntity
8
0
100
AcDbCircle
10
50.599999999999994
20
2
30
0
40
2.0000000000000018
210
0
220
0
230
1
100
AcDbArc
50
180
51
269.99999999999983
0
LINE
5
232
100
AcDbEntity
8
0
100
AcDbLine
10
48.599999999999994
20
2.0000000000000133
30
0
11
48.600000000000001
21
2.099999815261218
31
0
0
ARC
5
233
100
AcDbEntity
8
0
100
AcDbCircle
10
45.100000000000016
20
2.0999999999999952
30
0
40
3.4999999999999925
210
-0
220
0
230
1
100
AcDbArc
50
-2.9575586647481235e-06
51
180
0
LINE
5
234
100
AcDbEntity
8
0
100
AcDbLine
10
41.600000000000023
20
2.0999999999999956
30
0
11
41.599999999999966
21
1.9999999999999867
31
0
0
ARC
5
235
100
AcDbEntity
8
0
100
AcDbCircle
10
39.599999999999959
20
2
30
0
40
2.0000000000000004
210
-0
220
0
230
1
100
AcDbArc
50
270
51
360
0
LINE
5
236
100
AcDbEntity
8
0
100
AcDbLine
10
39.599999999999959
20
-2.7755575615628914e-16
30
0
11
2.0000000000000018
21
0
31
0
0
ARC
5
237
100
AcDbEntity
8
0
100
AcDbCircle
10
2
20
-2.0000000000000018
30
0
40
2.0000000000000018
210
0
220
-0
230
1
100
AcDbArc
50
89.999999999999943
51
180
0
LINE
5
238
100
AcDbEntity
8
0
100
AcDbLine
10
2.7755575615628914e-16
20
-2.0000000000000027
30
0
11
0
21
-117.0625
31
0
0
ARC
5
239
100
AcDbEntity
8
0
100
AcDbCircle
10
1.9999999999999902
20
-117.0625
30
0
40
1.9999999999999902
210
0
220
0
230
1
100
AcDbArc
50
180
51
270.00000000000011
0
LINE
5
240
100
AcDbEntity
8
0
100
AcDbLine
10
1.9999999999999931
20
-119.0625
30
0
11
39.599999999999973
21
-119.0625
31
0
0
ARC
5
241
100
AcDbEntity
8
0
100
AcDbCircle
10
39.599999999999973
20
-121.0625
30
0
40
2.0000000000000018
210
0
220
-0
230
1
100
AcDbArc
50
0
51
90
0
LINE
5
242
100
AcDbEntity
8
0
100
AcDbLine
10
41.599999999999973
20
-121.0625
30
0
11
41.599999999999973
21
-121.16250000000001
31
0
0
ARC
5
243
100
AcDbEntity
8
0
100
AcDbCircle
10
45.099999999999987
20
-121.16250000000001
30
0
40
3.5000000000000142
210
0
220
0
230
1
100
AcDbArc
50
-180
51
0
0
LINE
5
244
100
AcDbEntity
8
0
100
AcDbLine
10
48.599999999999987
20
-121.16250000000001
30
0
11
48.600000000000001
21
-121.0625
31
0
0
ARC
5
245
100
AcDbEntity
8
0
100
AcDbCircle
10
50.599999999999987
20
-121.0625
30
0
40
1.9999999999999929
210
0
220
-0
230
1
100
AcDbArc
50
90
51
180
0
LINE
5
246
100
AcDbEntity
8
0
100
AcDbLine
10
50.599999999999987
20
-119.0625
30
0
11
137.375
21
-119.0625
31
0
0
ARC
5
247
100
AcDbEntity
8
0
100
AcDbCircle
10
137.375
20
-121.0625
30
0
40
1.9999999999999929
210
-0
220
0
230
1
100
AcDbArc
50
0
51
90
0
LINE
5
248
100
AcDbEntity
8
0
100
AcDbLine
10
139.375
20
-121.06250000000001
30
0
11
139.375
21
-121.16250000000001
31
0
0
ARC
5
249
100
AcDbEntity
8
0
100
AcDbCircle
10
142.875
20
-121.16250000000001
30
0
40
3.4999999999999964
210
0
220
0
230
1
100
AcDbArc
50
-180
51
0
0
LINE
5
250
100
AcDbEntity
8
0
100
AcDbLine
10
146.375
20
-121.16250000000001
30
0
11
146.375
21
-121.06249999999996
31
0
0
ARC
5
251
100
AcDbEntity
8
0
100
AcDbCircle
10
148.375
20
-121.0625
30
0
40
1.9999999999999929
210
0
220
-0
230
1
100
AcDbArc
50
90
51
180
0
LINE
5
252
100
AcDbEntity
8
0
100
AcDbLine
10
148.375
20
-119.0625
30
0
11
235.15000000000001
21
-119.0625
31
0
0
ARC
5
253
100
AcDbEntity
8
0
100
AcDbCircle
10
235.15000000000001
20
-121.0625
30
0
40
1.9999999999999929
210
-0
220
0
230
1
100
AcDbArc
50
0
51
90
0
LINE
5
254
100
AcDbEntity
8
0
100
AcDbLine
10
237.15000000000001
20
-121.06250000000001
30
0
11
237.15000000000001
21
-121.16249999999999
31
0
0
ARC
5
255
100
AcDbEntity
8
0
100
AcDbCircle
10
240.65000000000001
20
-121.16249999999999
30
0
40
3.5000000000000142
210
0
220
0
230
1
100
AcDbArc
50
-180
51
0
0
LINE
5
256
100
AcDbEntity
8
0
100
AcDbLine
10
244.15000000000003
20
-121.16249999999999
30
0
11
244.15000000000003
21
-121.0624999999999
31
0
0
ARC
5
257
100
AcDbEntity
8
0
100
AcDbCircle
10
246.15000000000003
20
-121.0625
30
0
40
1.9999999999999929
210
0
220
-0
230
1
100
AcDbArc
50
90
51
180
0
LINE
5
258
100
AcDbEntity
8
0
100
AcDbLine
10
246.15000000000003
20
-119.0625
30
0
11
289.77499999999998
21
-119.0625
31
0
0
ARC
5
259
100
AcDbEntity
8
0
100
AcDbCircle
10
289.77499999999998
20
-121.0625
30
0
40
1.9999999999999929
210
-0
220
0
230
1
100
AcDbArc
50
0
51
90
0
LINE
5
260
100
AcDbEntity
8
0
100
AcDbLine
10
291.77499999999998
20
-121.06250000000009
30
0
11
291.77499999999998
21
-121.16249999999999
31
0
0
ARC
5
261
100
AcDbEntity
8
0
100
AcDbCircle
10
295.27499999999998
20
-121.16249999999999
30
0
40
3.5000000000000142
210
0
220
0
230
1
100
AcDbArc
50
-180
51
0
0
LINE
5
262
100
AcDbEntity
8
0
100
AcDbLine
10
298.77499999999998
20
-121.16249999999999
30
0
11
298.77499999999998
21
-121.06249999999986
31
0
0
ARC
5
263
100
AcDbEntity
8
0
100
AcDbCircle
10
300.77499999999998
20
-121.0625
30
0
40
1.9999999999999929
210
0
220
-0
230
1
100
AcDbArc
50
90
51
180
0
LINE
5
264
100
AcDbEntity
8
0
100
AcDbLine
10
300.77499999999998
20
-119.0625
30
0
11
302.80000000000001
21
-119.0625
31
0
0
ARC
5
265
100
AcDbEntity
8
0
100
AcDbCircle
10
302.80000000000001
20
-117.06250000000003
30
0
40
1.9999999999999751
210
0
220
0
230
1
100
AcDbArc
50
-90
51
0
0
LINE
5
266
100
AcDbEntity
8
0
100
AcDbLine
10
304.79999999999995
20
-117.0625
30
0
11
304.80000000000007
21
-2
31
0
0
ENDSEC
0
SECTION
2
OBJECTS
0
DICTIONARY
5
C
100
AcDbDictionary
3
ACAD_GROUP
350
D
3
ACAD_MLINESTYLE
350
17
0
DICTIONARY
5
D
100
AcDbDictionary
0
DICTIONARY
5
1A
330
C
100
AcDbDictionary
0
DICTIONARY
5
17
100
AcDbDictionary
0
ENDSEC
0
EOF
