999
FreeCAD v0.21 33771 (Git)
  0
SECTION
  2
HEADER
  9
$ACADVER
  1
AC1014
  9
$ACADMAINTVER
 70
     9
  9
$DWGCODEPAGE
  3
ANSI_1252
  9
$TEXTSTYLE
  7
STANDARD
  9
$DIMSTYLE
  2
STANDARD
  9
$DIMTXSTY
  7
STANDARD
  9
$CMLSTYLE
  2
STANDARD
  9
$LUNITS
 70
2
  9
$INSUNITS
 70
4
  9
$PEXTMAX
 10
50
 20
50
 30
50
  9
$PEXTMIN
 10
0
 20
0
 30
0
  9
$HANDSEED
  5
FFFF
  0
ENDSEC
  0
SECTION
  2
CLASSES
  0
CLASS
  1
ACDBDICTIONARYWDFLT
  2
AcDbDictionaryWithDefault
  3
ObjectDBX Classes
 90
        0
280
     0
281
     0
  0
CLASS
  1
XRECORD
  2
AcDbXrecord
  3
ObjectDBX Classes
 90
        0
280
     0
281
     0
  0
CLASS
  1
LWPOLYLINE
  2
AcDbPolyline
  3
ObjectDBX Classes
 90
        0
280
     0
281
     1
  0
ENDSEC
  0
SECTION
  2
TABLES
  0
TABLE
  2
VPORT
  5
20
330
0
100
AcDbSymbolTable
 70
     1
  0
VPORT
  5
21
330
20
100
AcDbSymbolTableRecord
100
AcDbViewportTableRecord
  2
*ACTIVE
 70
     0
  0
ENDTAB
  0
TABLE
  2
LTYPE
  5
22
330
0
100
AcDbSymbolTable
 70
     1
  0
LTYPE
  5
23
330
21
100
AcDbSymbolTableRecord
100
AcDbLinetypeTableRecord
  2
BYBLOCK
 70
     0
  3

 72
    65
 73
     0
 40
0.0
  0
LTYPE
  5
24
330
21
100
AcDbSymbolTableRecord
100
AcDbLinetypeTableRecord
  2
BYLAYER
 70
     0
  3

 72
    65
 73
     0
 40
0.0
  0
LTYPE
  5
25
330
21
100
AcDbSymbolTableRecord
100
AcDbLinetypeTableRecord
  2
CONTINUOUS
 70
     0
  3
Solid line
 72
    65
 73
     0
 40
0.0
  0
ENDTAB
  0
TABLE
  2
LAYER
  5
BEB
330
0
100
AcDbSymbolTable
 70
485
  0
LAYER
  5
BEC
330
BEB
100
AcDbSymbolTableRecord
100
AcDbLayerTableRecord
  2
0
 70
   0
 62
   7
  6
CONTINUOUS
  0
LAYER
  5
BED
330
BEB
100
AcDbSymbolTableRecord
100
AcDbLayerTableRecord
  2
none
 70
    0
 62
    7
  6
CONTINUOUS
  0
LAYER
  5
BEE
330
BEB
100
AcDbSymbolTableRecord
100
AcDbLayerTableRecord
  2
Shape366
 70
    0
 62
    7
  6
CONTINUOUS
  0
LAYER
  5
BEF
330
BEB
100
AcDbSymbolTableRecord
100
AcDbLayerTableRecord
  2
Shape367
 70
    0
 62
    7
  6
CONTINUOUS
  0
LAYER
  5
BF0
330
BEB
100
AcDbSymbolTableRecord
100
AcDbLayerTableRecord
  2
Shape368
 70
    0
 62
    7
  6
CONTINUOUS
  0
LAYER
  5
BF1
330
BEB
100
AcDbSymbolTableRecord
100
AcDbLayerTableRecord
  2
Shape369
 70
    0
 62
    7
  6
CONTINUOUS
  0
LAYER
  5
BF2
330
BEB
100
AcDbSymbolTableRecord
100
AcDbLayerTableRecord
  2
Shape370
 70
    0
 62
    7
  6
CONTINUOUS
  0
LAYER
  5
BF3
330
BEB
100
AcDbSymbolTableRecord
100
AcDbLayerTableRecord
  2
Shape371
 70
    0
 62
    7
  6
CONTINUOUS
  0
LAYER
  5
BF4
330
BEB
100
AcDbSymbolTableRecord
100
AcDbLayerTableRecord
  2
Shape372
 70
    0
 62
    7
  6
CONTINUOUS
  0
LAYER
  5
BF5
330
BEB
100
AcDbSymbolTableRecord
100
AcDbLayerTableRecord
  2
Shape373
 70
    0
 62
    7
  6
CONTINUOUS
  0
LAYER
  5
BF6
330
BEB
100
AcDbSymbolTableRecord
100
AcDbLayerTableRecord
  2
Shape374
 70
    0
 62
    7
  6
CONTINUOUS
  0
LAYER
  5
BF7
330
BEB
100
AcDbSymbolTableRecord
100
AcDbLayerTableRecord
  2
Shape375
 70
    0
 62
    7
  6
CONTINUOUS
  0
LAYER
  5
BF8
330
BEB
100
AcDbSymbolTableRecord
100
AcDbLayerTableRecord
  2
Shape376
 70
    0
 62
    7
  6
CONTINUOUS
  0
LAYER
  5
BF9
330
BEB
100
AcDbSymbolTableRecord
100
AcDbLayerTableRecord
  2
Shape377
 70
    0
 62
    7
  6
CONTINUOUS
  0
LAYER
  5
BFA
330
BEB
100
AcDbSymbolTableRecord
100
AcDbLayerTableRecord
  2
Shape378
 70
    0
 62
    7
  6
CONTINUOUS
  0
LAYER
  5
BFB
330
BEB
100
AcDbSymbolTableRecord
100
AcDbLayerTableRecord
  2
Shape379
 70
    0
 62
    7
  6
CONTINUOUS
  0
LAYER
  5
BFC
330
BEB
100
AcDbSymbolTableRecord
100
AcDbLayerTableRecord
  2
Shape380
 70
    0
 62
    7
  6
CONTINUOUS
  0
LAYER
  5
BFD
330
BEB
100
AcDbSymbolTableRecord
100
AcDbLayerTableRecord
  2
Shape381
 70
    0
 62
    7
  6
CONTINUOUS
  0
LAYER
  5
BFE
330
BEB
100
AcDbSymbolTableRecord
100
AcDbLayerTableRecord
  2
Shape382
 70
    0
 62
    7
  6
CONTINUOUS
  0
LAYER
  5
BFF
330
BEB
100
AcDbSymbolTableRecord
100
AcDbLayerTableRecord
  2
Shape383
 70
    0
 62
    7
  6
CONTINUOUS
  0
LAYER
  5
C00
330
BEB
100
AcDbSymbolTableRecord
100
AcDbLayerTableRecord
  2
Shape384
 70
    0
 62
    7
  6
CONTINUOUS
  0
LAYER
  5
C01
330
BEB
100
AcDbSymbolTableRecord
100
AcDbLayerTableRecord
  2
Shape385
 70
    0
 62
    7
  6
CONTINUOUS
  0
LAYER
  5
C02
330
BEB
100
AcDbSymbolTableRecord
100
AcDbLayerTableRecord
  2
Shape386
 70
    0
 62
    7
  6
CONTINUOUS
  0
LAYER
  5
C03
330
BEB
100
AcDbSymbolTableRecord
100
AcDbLayerTableRecord
  2
Shape387
 70
    0
 62
    7
  6
CONTINUOUS
  0
LAYER
  5
C04
330
BEB
100
AcDbSymbolTableRecord
100
AcDbLayerTableRecord
  2
Shape388
 70
    0
 62
    7
  6
CONTINUOUS
  0
LAYER
  5
C05
330
BEB
100
AcDbSymbolTableRecord
100
AcDbLayerTableRecord
  2
Shape389
 70
    0
 62
    7
  6
CONTINUOUS
  0
LAYER
  5
C06
330
BEB
100
AcDbSymbolTableRecord
100
AcDbLayerTableRecord
  2
Shape522
 70
    0
 62
    7
  6
CONTINUOUS
  0
LAYER
  5
C07
330
BEB
100
AcDbSymbolTableRecord
100
AcDbLayerTableRecord
  2
Shape523
 70
    0
 62
    7
  6
CONTINUOUS
  0
LAYER
  5
C08
330
BEB
100
AcDbSymbolTableRecord
100
AcDbLayerTableRecord
  2
Shape524
 70
    0
 62
    7
  6
CONTINUOUS
  0
LAYER
  5
C09
330
BEB
100
AcDbSymbolTableRecord
100
AcDbLayerTableRecord
  2
Shape525
 70
    0
 62
    7
  6
CONTINUOUS
  0
LAYER
  5
C0A
330
BEB
100
AcDbSymbolTableRecord
100
AcDbLayerTableRecord
  2
Shape526
 70
    0
 62
    7
  6
CONTINUOUS
  0
LAYER
  5
C0B
330
BEB
100
AcDbSymbolTableRecord
100
AcDbLayerTableRecord
  2
Shape527
 70
    0
 62
    7
  6
CONTINUOUS
  0
LAYER
  5
C0C
330
BEB
100
AcDbSymbolTableRecord
100
AcDbLayerTableRecord
  2
Shape528
 70
    0
 62
    7
  6
CONTINUOUS
  0
LAYER
  5
C0D
330
BEB
100
AcDbSymbolTableRecord
100
AcDbLayerTableRecord
  2
Shape529
 70
    0
 62
    7
  6
CONTINUOUS
  0
LAYER
  5
C0E
330
BEB
100
AcDbSymbolTableRecord
100
AcDbLayerTableRecord
  2
Shape530
 70
    0
 62
    7
  6
CONTINUOUS
  0
LAYER
  5
C0F
330
BEB
100
AcDbSymbolTableRecord
100
AcDbLayerTableRecord
  2
Shape531
 70
    0
 62
    7
  6
CONTINUOUS
  0
LAYER
  5
C10
330
BEB
100
AcDbSymbolTableRecord
100
AcDbLayerTableRecord
  2
Shape532
 70
    0
 62
    7
  6
CONTINUOUS
  0
LAYER
  5
C11
330
BEB
100
AcDbSymbolTableRecord
100
AcDbLayerTableRecord
  2
Shape533
 70
    0
 62
    7
  6
CONTINUOUS
  0
LAYER
  5
C12
330
BEB
100
AcDbSymbolTableRecord
100
AcDbLayerTableRecord
  2
Shape534
 70
    0
 62
    7
  6
CONTINUOUS
  0
LAYER
  5
C13
330
BEB
100
AcDbSymbolTableRecord
100
AcDbLayerTableRecord
  2
Shape535
 70
    0
 62
    7
  6
CONTINUOUS
  0
LAYER
  5
C14
330
BEB
100
AcDbSymbolTableRecord
100
AcDbLayerTableRecord
  2
Shape536
 70
    0
 62
    7
  6
CONTINUOUS
  0
LAYER
  5
C15
330
BEB
100
AcDbSymbolTableRecord
100
AcDbLayerTableRecord
  2
Shape537
 70
    0
 62
    7
  6
CONTINUOUS
  0
LAYER
  5
C16
330
BEB
100
AcDbSymbolTableRecord
100
AcDbLayerTableRecord
  2
Shape538
 70
    0
 62
    7
  6
CONTINUOUS
  0
LAYER
  5
C17
330
BEB
100
AcDbSymbolTableRecord
100
AcDbLayerTableRecord
  2
Shape539
 70
    0
 62
    7
  6
CONTINUOUS
  0
LAYER
  5
C18
330
BEB
100
AcDbSymbolTableRecord
100
AcDbLayerTableRecord
  2
Shape540
 70
    0
 62
    7
  6
CONTINUOUS
  0
LAYER
  5
C19
330
BEB
100
AcDbSymbolTableRecord
100
AcDbLayerTableRecord
  2
Shape541
 70
    0
 62
    7
  6
CONTINUOUS
  0
LAYER
  5
C1A
330
BEB
100
AcDbSymbolTableRecord
100
AcDbLayerTableRecord
  2
Shape542
 70
    0
 62
    7
  6
CONTINUOUS
  0
LAYER
  5
C1B
330
BEB
100
AcDbSymbolTableRecord
100
AcDbLayerTableRecord
  2
Shape543
 70
    0
 62
    7
  6
CONTINUOUS
  0
LAYER
  5
C1C
330
BEB
100
AcDbSymbolTableRecord
100
AcDbLayerTableRecord
  2
Shape544
 70
    0
 62
    7
  6
CONTINUOUS
  0
LAYER
  5
C1D
330
BEB
100
AcDbSymbolTableRecord
100
AcDbLayerTableRecord
  2
Shape545
 70
    0
 62
    7
  6
CONTINUOUS
  0
LAYER
  5
C1E
330
BEB
100
AcDbSymbolTableRecord
100
AcDbLayerTableRecord
  2
Shape546
 70
    0
 62
    7
  6
CONTINUOUS
  0
LAYER
  5
C1F
330
BEB
100
AcDbSymbolTableRecord
100
AcDbLayerTableRecord
  2
Shape547
 70
    0
 62
    7
  6
CONTINUOUS
  0
LAYER
  5
C20
330
BEB
100
AcDbSymbolTableRecord
100
AcDbLayerTableRecord
  2
Shape548
 70
    0
 62
    7
  6
CONTINUOUS
  0
LAYER
  5
C21
330
BEB
100
AcDbSymbolTableRecord
100
AcDbLayerTableRecord
  2
Shape549
 70
    0
 62
    7
  6
CONTINUOUS
  0
LAYER
  5
C22
330
BEB
100
AcDbSymbolTableRecord
100
AcDbLayerTableRecord
  2
Shape550
 70
    0
 62
    7
  6
CONTINUOUS
  0
LAYER
  5
C23
330
BEB
100
AcDbSymbolTableRecord
100
AcDbLayerTableRecord
  2
Shape551
 70
    0
 62
    7
  6
CONTINUOUS
  0
LAYER
  5
C24
330
BEB
100
AcDbSymbolTableRecord
100
AcDbLayerTableRecord
  2
Shape552
 70
    0
 62
    7
  6
CONTINUOUS
  0
LAYER
  5
C25
330
BEB
100
AcDbSymbolTableRecord
100
AcDbLayerTableRecord
  2
Shape553
 70
    0
 62
    7
  6
CONTINUOUS
  0
LAYER
  5
C26
330
BEB
100
AcDbSymbolTableRecord
100
AcDbLayerTableRecord
  2
Shape554
 70
    0
 62
    7
  6
CONTINUOUS
  0
LAYER
  5
C27
330
BEB
100
AcDbSymbolTableRecord
100
AcDbLayerTableRecord
  2
Shape555
 70
    0
 62
    7
  6
CONTINUOUS
  0
LAYER
  5
C28
330
BEB
100
AcDbSymbolTableRecord
100
AcDbLayerTableRecord
  2
Shape556
 70
    0
 62
    7
  6
CONTINUOUS
  0
LAYER
  5
C29
330
BEB
100
AcDbSymbolTableRecord
100
AcDbLayerTableRecord
  2
Shape557
 70
    0
 62
    7
  6
CONTINUOUS
  0
LAYER
  5
C2A
330
BEB
100
AcDbSymbolTableRecord
100
AcDbLayerTableRecord
  2
Shape558
 70
    0
 62
    7
  6
CONTINUOUS
  0
LAYER
  5
C2B
330
BEB
100
AcDbSymbolTableRecord
100
AcDbLayerTableRecord
  2
Shape559
 70
    0
 62
    7
  6
CONTINUOUS
  0
LAYER
  5
C2C
330
BEB
100
AcDbSymbolTableRecord
100
AcDbLayerTableRecord
  2
Shape560
 70
    0
 62
    7
  6
CONTINUOUS
  0
LAYER
  5
C2D
330
BEB
100
AcDbSymbolTableRecord
100
AcDbLayerTableRecord
  2
Shape561
 70
    0
 62
    7
  6
CONTINUOUS
  0
LAYER
  5
C2E
330
BEB
100
AcDbSymbolTableRecord
100
AcDbLayerTableRecord
  2
Shape562
 70
    0
 62
    7
  6
CONTINUOUS
  0
LAYER
  5
C2F
330
BEB
100
AcDbSymbolTableRecord
100
AcDbLayerTableRecord
  2
Shape563
 70
    0
 62
    7
  6
CONTINUOUS
  0
LAYER
  5
C30
330
BEB
100
AcDbSymbolTableRecord
100
AcDbLayerTableRecord
  2
Shape564
 70
    0
 62
    7
  6
CONTINUOUS
  0
LAYER
  5
C31
330
BEB
100
AcDbSymbolTableRecord
100
AcDbLayerTableRecord
  2
Shape565
 70
    0
 62
    7
  6
CONTINUOUS
  0
LAYER
  5
C32
330
BEB
100
AcDbSymbolTableRecord
100
AcDbLayerTableRecord
  2
Shape566
 70
    0
 62
    7
  6
CONTINUOUS
  0
LAYER
  5
C33
330
BEB
100
AcDbSymbolTableRecord
100
AcDbLayerTableRecord
  2
Shape567
 70
    0
 62
    7
  6
CONTINUOUS
  0
LAYER
  5
C34
330
BEB
100
AcDbSymbolTableRecord
100
AcDbLayerTableRecord
  2
Shape568
 70
    0
 62
    7
  6
CONTINUOUS
  0
LAYER
  5
C35
330
BEB
100
AcDbSymbolTableRecord
100
AcDbLayerTableRecord
  2
Shape569
 70
    0
 62
    7
  6
CONTINUOUS
  0
LAYER
  5
C36
330
BEB
100
AcDbSymbolTableRecord
100
AcDbLayerTableRecord
  2
Shape570
 70
    0
 62
    7
  6
CONTINUOUS
  0
LAYER
  5
C37
330
BEB
100
AcDbSymbolTableRecord
100
AcDbLayerTableRecord
  2
Shape571
 70
    0
 62
    7
  6
CONTINUOUS
  0
LAYER
  5
C38
330
BEB
100
AcDbSymbolTableRecord
100
AcDbLayerTableRecord
  2
Shape572
 70
    0
 62
    7
  6
CONTINUOUS
  0
LAYER
  5
C39
330
BEB
100
AcDbSymbolTableRecord
100
AcDbLayerTableRecord
  2
Shape573
 70
    0
 62
    7
  6
CONTINUOUS
  0
LAYER
  5
C3A
330
BEB
100
AcDbSymbolTableRecord
100
AcDbLayerTableRecord
  2
Shape574
 70
    0
 62
    7
  6
CONTINUOUS
  0
LAYER
  5
C3B
330
BEB
100
AcDbSymbolTableRecord
100
AcDbLayerTableRecord
  2
Shape575
 70
    0
 62
    7
  6
CONTINUOUS
  0
LAYER
  5
C3C
330
BEB
100
AcDbSymbolTableRecord
100
AcDbLayerTableRecord
  2
Shape576
 70
    0
 62
    7
  6
CONTINUOUS
  0
LAYER
  5
C3D
330
BEB
100
AcDbSymbolTableRecord
100
AcDbLayerTableRecord
  2
Shape577
 70
    0
 62
    7
  6
CONTINUOUS
  0
LAYER
  5
C3E
330
BEB
100
AcDbSymbolTableRecord
100
AcDbLayerTableRecord
  2
Shape578
 70
    0
 62
    7
  6
CONTINUOUS
  0
LAYER
  5
C3F
330
BEB
100
AcDbSymbolTableRecord
100
AcDbLayerTableRecord
  2
Shape579
 70
    0
 62
    7
  6
CONTINUOUS
  0
LAYER
  5
C40
330
BEB
100
AcDbSymbolTableRecord
100
AcDbLayerTableRecord
  2
Shape580
 70
    0
 62
    7
  6
CONTINUOUS
  0
LAYER
  5
C41
330
BEB
100
AcDbSymbolTableRecord
100
AcDbLayerTableRecord
  2
Shape581
 70
    0
 62
    7
  6
CONTINUOUS
  0
LAYER
  5
C42
330
BEB
100
AcDbSymbolTableRecord
100
AcDbLayerTableRecord
  2
Shape582
 70
    0
 62
    7
  6
CONTINUOUS
  0
LAYER
  5
C43
330
BEB
100
AcDbSymbolTableRecord
100
AcDbLayerTableRecord
  2
Shape583
 70
    0
 62
    7
  6
CONTINUOUS
  0
LAYER
  5
C44
330
BEB
100
AcDbSymbolTableRecord
100
AcDbLayerTableRecord
  2
Shape584
 70
    0
 62
    7
  6
CONTINUOUS
  0
LAYER
  5
C45
330
BEB
100
AcDbSymbolTableRecord
100
AcDbLayerTableRecord
  2
Shape585
 70
    0
 62
    7
  6
CONTINUOUS
  0
LAYER
  5
C46
330
BEB
100
AcDbSymbolTableRecord
100
AcDbLayerTableRecord
  2
Shape586
 70
    0
 62
    7
  6
CONTINUOUS
  0
LAYER
  5
C47
330
BEB
100
AcDbSymbolTableRecord
100
AcDbLayerTableRecord
  2
Shape587
 70
    0
 62
    7
  6
CONTINUOUS
  0
LAYER
  5
C48
330
BEB
100
AcDbSymbolTableRecord
100
AcDbLayerTableRecord
  2
Shape588
 70
    0
 62
    7
  6
CONTINUOUS
  0
LAYER
  5
C49
330
BEB
100
AcDbSymbolTableRecord
100
AcDbLayerTableRecord
  2
Shape589
 70
    0
 62
    7
  6
CONTINUOUS
  0
LAYER
  5
C4A
330
BEB
100
AcDbSymbolTableRecord
100
AcDbLayerTableRecord
  2
Shape590
 70
    0
 62
    7
  6
CONTINUOUS
  0
LAYER
  5
C4B
330
BEB
100
AcDbSymbolTableRecord
100
AcDbLayerTableRecord
  2
Shape591
 70
    0
 62
    7
  6
CONTINUOUS
  0
LAYER
  5
C4C
330
BEB
100
AcDbSymbolTableRecord
100
AcDbLayerTableRecord
  2
Shape592
 70
    0
 62
    7
  6
CONTINUOUS
  0
LAYER
  5
C4D
330
BEB
100
AcDbSymbolTableRecord
100
AcDbLayerTableRecord
  2
Shape593
 70
    0
 62
    7
  6
CONTINUOUS
  0
LAYER
  5
C4E
330
BEB
100
AcDbSymbolTableRecord
100
AcDbLayerTableRecord
  2
Shape594
 70
    0
 62
    7
  6
CONTINUOUS
  0
LAYER
  5
C4F
330
BEB
100
AcDbSymbolTableRecord
100
AcDbLayerTableRecord
  2
Shape595
 70
    0
 62
    7
  6
CONTINUOUS
  0
LAYER
  5
C50
330
BEB
100
AcDbSymbolTableRecord
100
AcDbLayerTableRecord
  2
Shape596
 70
    0
 62
    7
  6
CONTINUOUS
  0
LAYER
  5
C51
330
BEB
100
AcDbSymbolTableRecord
100
AcDbLayerTableRecord
  2
Shape597
 70
    0
 62
    7
  6
CONTINUOUS
  0
LAYER
  5
C52
330
BEB
100
AcDbSymbolTableRecord
100
AcDbLayerTableRecord
  2
Shape598
 70
    0
 62
    7
  6
CONTINUOUS
  0
LAYER
  5
C53
330
BEB
100
AcDbSymbolTableRecord
100
AcDbLayerTableRecord
  2
Shape599
 70
    0
 62
    7
  6
CONTINUOUS
  0
LAYER
  5
C54
330
BEB
100
AcDbSymbolTableRecord
100
AcDbLayerTableRecord
  2
Shape600
 70
    0
 62
    7
  6
CONTINUOUS
  0
LAYER
  5
C55
330
BEB
100
AcDbSymbolTableRecord
100
AcDbLayerTableRecord
  2
Shape601
 70
    0
 62
    7
  6
CONTINUOUS
  0
LAYER
  5
C56
330
BEB
100
AcDbSymbolTableRecord
100
AcDbLayerTableRecord
  2
Shape602
 70
    0
 62
    7
  6
CONTINUOUS
  0
LAYER
  5
C57
330
BEB
100
AcDbSymbolTableRecord
100
AcDbLayerTableRecord
  2
Shape603
 70
    0
 62
    7
  6
CONTINUOUS
  0
LAYER
  5
C58
330
BEB
100
AcDbSymbolTableRecord
100
AcDbLayerTableRecord
  2
Shape604
 70
    0
 62
    7
  6
CONTINUOUS
  0
LAYER
  5
C59
330
BEB
100
AcDbSymbolTableRecord
100
AcDbLayerTableRecord
  2
Shape605
 70
    0
 62
    7
  6
CONTINUOUS
  0
LAYER
  5
C5A
330
BEB
100
AcDbSymbolTableRecord
100
AcDbLayerTableRecord
  2
Shape606
 70
    0
 62
    7
  6
CONTINUOUS
  0
LAYER
  5
C5B
330
BEB
100
AcDbSymbolTableRecord
100
AcDbLayerTableRecord
  2
Shape607
 70
    0
 62
    7
  6
CONTINUOUS
  0
LAYER
  5
C5C
330
BEB
100
AcDbSymbolTableRecord
100
AcDbLayerTableRecord
  2
Shape608
 70
    0
 62
    7
  6
CONTINUOUS
  0
LAYER
  5
C5D
330
BEB
100
AcDbSymbolTableRecord
100
AcDbLayerTableRecord
  2
Shape609
 70
    0
 62
    7
  6
CONTINUOUS
  0
LAYER
  5
C5E
330
BEB
100
AcDbSymbolTableRecord
100
AcDbLayerTableRecord
  2
Shape610
 70
    0
 62
    7
  6
CONTINUOUS
  0
LAYER
  5
C5F
330
BEB
100
AcDbSymbolTableRecord
100
AcDbLayerTableRecord
  2
Shape611
 70
    0
 62
    7
  6
CONTINUOUS
  0
LAYER
  5
C60
330
BEB
100
AcDbSymbolTableRecord
100
AcDbLayerTableRecord
  2
Shape612
 70
    0
 62
    7
  6
CONTINUOUS
  0
LAYER
  5
C61
330
BEB
100
AcDbSymbolTableRecord
100
AcDbLayerTableRecord
  2
Shape613
 70
    0
 62
    7
  6
CONTINUOUS
  0
LAYER
  5
C62
330
BEB
100
AcDbSymbolTableRecord
100
AcDbLayerTableRecord
  2
Shape614
 70
    0
 62
    7
  6
CONTINUOUS
  0
LAYER
  5
C63
330
BEB
100
AcDbSymbolTableRecord
100
AcDbLayerTableRecord
  2
Shape615
 70
    0
 62
    7
  6
CONTINUOUS
  0
LAYER
  5
C64
330
BEB
100
AcDbSymbolTableRecord
100
AcDbLayerTableRecord
  2
Shape616
 70
    0
 62
    7
  6
CONTINUOUS
  0
LAYER
  5
C65
330
BEB
100
AcDbSymbolTableRecord
100
AcDbLayerTableRecord
  2
Shape617
 70
    0
 62
    7
  6
CONTINUOUS
  0
LAYER
  5
C66
330
BEB
100
AcDbSymbolTableRecord
100
AcDbLayerTableRecord
  2
Shape618
 70
    0
 62
    7
  6
CONTINUOUS
  0
LAYER
  5
C67
330
BEB
100
AcDbSymbolTableRecord
100
AcDbLayerTableRecord
  2
Shape619
 70
    0
 62
    7
  6
CONTINUOUS
  0
LAYER
  5
C68
330
BEB
100
AcDbSymbolTableRecord
100
AcDbLayerTableRecord
  2
Shape620
 70
    0
 62
    7
  6
CONTINUOUS
  0
LAYER
  5
C69
330
BEB
100
AcDbSymbolTableRecord
100
AcDbLayerTableRecord
  2
Shape621
 70
    0
 62
    7
  6
CONTINUOUS
  0
LAYER
  5
C6A
330
BEB
100
AcDbSymbolTableRecord
100
AcDbLayerTableRecord
  2
Shape622
 70
    0
 62
    7
  6
CONTINUOUS
  0
LAYER
  5
C6B
330
BEB
100
AcDbSymbolTableRecord
100
AcDbLayerTableRecord
  2
Shape623
 70
    0
 62
    7
  6
CONTINUOUS
  0
LAYER
  5
C6C
330
BEB
100
AcDbSymbolTableRecord
100
AcDbLayerTableRecord
  2
Shape624
 70
    0
 62
    7
  6
CONTINUOUS
  0
LAYER
  5
C6D
330
BEB
100
AcDbSymbolTableRecord
100
AcDbLayerTableRecord
  2
Shape625
 70
    0
 62
    7
  6
CONTINUOUS
  0
LAYER
  5
C6E
330
BEB
100
AcDbSymbolTableRecord
100
AcDbLayerTableRecord
  2
Shape626
 70
    0
 62
    7
  6
CONTINUOUS
  0
LAYER
  5
C6F
330
BEB
100
AcDbSymbolTableRecord
100
AcDbLayerTableRecord
  2
Shape627
 70
    0
 62
    7
  6
CONTINUOUS
  0
LAYER
  5
C70
330
BEB
100
AcDbSymbolTableRecord
100
AcDbLayerTableRecord
  2
Shape628
 70
    0
 62
    7
  6
CONTINUOUS
  0
LAYER
  5
C71
330
BEB
100
AcDbSymbolTableRecord
100
AcDbLayerTableRecord
  2
Shape629
 70
    0
 62
    7
  6
CONTINUOUS
  0
LAYER
  5
C72
330
BEB
100
AcDbSymbolTableRecord
100
AcDbLayerTableRecord
  2
Shape630
 70
    0
 62
    7
  6
CONTINUOUS
  0
LAYER
  5
C73
330
BEB
100
AcDbSymbolTableRecord
100
AcDbLayerTableRecord
  2
Shape631
 70
    0
 62
    7
  6
CONTINUOUS
  0
LAYER
  5
C74
330
BEB
100
AcDbSymbolTableRecord
100
AcDbLayerTableRecord
  2
Shape632
 70
    0
 62
    7
  6
CONTINUOUS
  0
LAYER
  5
C75
330
BEB
100
AcDbSymbolTableRecord
100
AcDbLayerTableRecord
  2
Shape633
 70
    0
 62
    7
  6
CONTINUOUS
  0
LAYER
  5
C76
330
BEB
100
AcDbSymbolTableRecord
100
AcDbLayerTableRecord
  2
Shape634
 70
    0
 62
    7
  6
CONTINUOUS
  0
LAYER
  5
C77
330
BEB
100
AcDbSymbolTableRecord
100
AcDbLayerTableRecord
  2
Shape635
 70
    0
 62
    7
  6
CONTINUOUS
  0
LAYER
  5
C78
330
BEB
100
AcDbSymbolTableRecord
100
AcDbLayerTableRecord
  2
Shape636
 70
    0
 62
    7
  6
CONTINUOUS
  0
LAYER
  5
C79
330
BEB
100
AcDbSymbolTableRecord
100
AcDbLayerTableRecord
  2
Shape637
 70
    0
 62
    7
  6
CONTINUOUS
  0
LAYER
  5
C7A
330
BEB
100
AcDbSymbolTableRecord
100
AcDbLayerTableRecord
  2
Shape638
 70
    0
 62
    7
  6
CONTINUOUS
  0
LAYER
  5
C7B
330
BEB
100
AcDbSymbolTableRecord
100
AcDbLayerTableRecord
  2
Shape639
 70
    0
 62
    7
  6
CONTINUOUS
  0
LAYER
  5
C7C
330
BEB
100
AcDbSymbolTableRecord
100
AcDbLayerTableRecord
  2
Shape640
 70
    0
 62
    7
  6
CONTINUOUS
  0
LAYER
  5
C7D
330
BEB
100
AcDbSymbolTableRecord
100
AcDbLayerTableRecord
  2
Shape641
 70
    0
 62
    7
  6
CONTINUOUS
  0
LAYER
  5
C7E
330
BEB
100
AcDbSymbolTableRecord
100
AcDbLayerTableRecord
  2
Shape642
 70
    0
 62
    7
  6
CONTINUOUS
  0
LAYER
  5
C7F
330
BEB
100
AcDbSymbolTableRecord
100
AcDbLayerTableRecord
  2
Shape643
 70
    0
 62
    7
  6
CONTINUOUS
  0
LAYER
  5
C80
330
BEB
100
AcDbSymbolTableRecord
100
AcDbLayerTableRecord
  2
Shape644
 70
    0
 62
    7
  6
CONTINUOUS
  0
LAYER
  5
C81
330
BEB
100
AcDbSymbolTableRecord
100
AcDbLayerTableRecord
  2
Shape645
 70
    0
 62
    7
  6
CONTINUOUS
  0
LAYER
  5
C82
330
BEB
100
AcDbSymbolTableRecord
100
AcDbLayerTableRecord
  2
Shape646
 70
    0
 62
    7
  6
CONTINUOUS
  0
LAYER
  5
C83
330
BEB
100
AcDbSymbolTableRecord
100
AcDbLayerTableRecord
  2
Shape647
 70
    0
 62
    7
  6
CONTINUOUS
  0
LAYER
  5
C84
330
BEB
100
AcDbSymbolTableRecord
100
AcDbLayerTableRecord
  2
Shape648
 70
    0
 62
    7
  6
CONTINUOUS
  0
LAYER
  5
C85
330
BEB
100
AcDbSymbolTableRecord
100
AcDbLayerTableRecord
  2
Shape649
 70
    0
 62
    7
  6
CONTINUOUS
  0
LAYER
  5
C86
330
BEB
100
AcDbSymbolTableRecord
100
AcDbLayerTableRecord
  2
Shape650
 70
    0
 62
    7
  6
CONTINUOUS
  0
LAYER
  5
C87
330
BEB
100
AcDbSymbolTableRecord
100
AcDbLayerTableRecord
  2
Shape651
 70
    0
 62
    7
  6
CONTINUOUS
  0
LAYER
  5
C88
330
BEB
100
AcDbSymbolTableRecord
100
AcDbLayerTableRecord
  2
Shape652
 70
    0
 62
    7
  6
CONTINUOUS
  0
LAYER
  5
C89
330
BEB
100
AcDbSymbolTableRecord
100
AcDbLayerTableRecord
  2
Shape653
 70
    0
 62
    7
  6
CONTINUOUS
  0
LAYER
  5
C8A
330
BEB
100
AcDbSymbolTableRecord
100
AcDbLayerTableRecord
  2
Shape2372
 70
    0
 62
    7
  6
CONTINUOUS
  0
LAYER
  5
C8B
330
BEB
100
AcDbSymbolTableRecord
100
AcDbLayerTableRecord
  2
Shape2373
 70
    0
 62
    7
  6
CONTINUOUS
  0
LAYER
  5
C8C
330
BEB
100
AcDbSymbolTableRecord
100
AcDbLayerTableRecord
  2
Shape2374
 70
    0
 62
    7
  6
CONTINUOUS
  0
LAYER
  5
C8D
330
BEB
100
AcDbSymbolTableRecord
100
AcDbLayerTableRecord
  2
Shape2375
 70
    0
 62
    7
  6
CONTINUOUS
  0
LAYER
  5
C8E
330
BEB
100
AcDbSymbolTableRecord
100
AcDbLayerTableRecord
  2
Shape2376
 70
    0
 62
    7
  6
CONTINUOUS
  0
LAYER
  5
C8F
330
BEB
100
AcDbSymbolTableRecord
100
AcDbLayerTableRecord
  2
Shape2377
 70
    0
 62
    7
  6
CONTINUOUS
  0
LAYER
  5
C90
330
BEB
100
AcDbSymbolTableRecord
100
AcDbLayerTableRecord
  2
Shape2378
 70
    0
 62
    7
  6
CONTINUOUS
  0
LAYER
  5
C91
330
BEB
100
AcDbSymbolTableRecord
100
AcDbLayerTableRecord
  2
Shape2379
 70
    0
 62
    7
  6
CONTINUOUS
  0
LAYER
  5
C92
330
BEB
100
AcDbSymbolTableRecord
100
AcDbLayerTableRecord
  2
Shape2380
 70
    0
 62
    7
  6
CONTINUOUS
  0
LAYER
  5
C93
330
BEB
100
AcDbSymbolTableRecord
100
AcDbLayerTableRecord
  2
Shape2381
 70
    0
 62
    7
  6
CONTINUOUS
  0
LAYER
  5
C94
330
BEB
100
AcDbSymbolTableRecord
100
AcDbLayerTableRecord
  2
Shape2382
 70
    0
 62
    7
  6
CONTINUOUS
  0
LAYER
  5
C95
330
BEB
100
AcDbSymbolTableRecord
100
AcDbLayerTableRecord
  2
Shape2383
 70
    0
 62
    7
  6
CONTINUOUS
  0
LAYER
  5
C96
330
BEB
100
AcDbSymbolTableRecord
100
AcDbLayerTableRecord
  2
Shape2384
 70
    0
 62
    7
  6
CONTINUOUS
  0
LAYER
  5
C97
330
BEB
100
AcDbSymbolTableRecord
100
AcDbLayerTableRecord
  2
Shape2385
 70
    0
 62
    7
  6
CONTINUOUS
  0
LAYER
  5
C98
330
BEB
100
AcDbSymbolTableRecord
100
AcDbLayerTableRecord
  2
Shape2386
 70
    0
 62
    7
  6
CONTINUOUS
  0
LAYER
  5
C99
330
BEB
100
AcDbSymbolTableRecord
100
AcDbLayerTableRecord
  2
Shape2387
 70
    0
 62
    7
  6
CONTINUOUS
  0
LAYER
  5
C9A
330
BEB
100
AcDbSymbolTableRecord
100
AcDbLayerTableRecord
  2
Shape2388
 70
    0
 62
    7
  6
CONTINUOUS
  0
LAYER
  5
C9B
330
BEB
100
AcDbSymbolTableRecord
100
AcDbLayerTableRecord
  2
Shape2389
 70
    0
 62
    7
  6
CONTINUOUS
  0
LAYER
  5
C9C
330
BEB
100
AcDbSymbolTableRecord
100
AcDbLayerTableRecord
  2
Shape2390
 70
    0
 62
    7
  6
CONTINUOUS
  0
LAYER
  5
C9D
330
BEB
100
AcDbSymbolTableRecord
100
AcDbLayerTableRecord
  2
Shape2391
 70
    0
 62
    7
  6
CONTINUOUS
  0
LAYER
  5
C9E
330
BEB
100
AcDbSymbolTableRecord
100
AcDbLayerTableRecord
  2
Shape2392
 70
    0
 62
    7
  6
CONTINUOUS
  0
LAYER
  5
C9F
330
BEB
100
AcDbSymbolTableRecord
100
AcDbLayerTableRecord
  2
Shape2393
 70
    0
 62
    7
  6
CONTINUOUS
  0
LAYER
  5
CA0
330
BEB
100
AcDbSymbolTableRecord
100
AcDbLayerTableRecord
  2
Shape2394
 70
    0
 62
    7
  6
CONTINUOUS
  0
LAYER
  5
CA1
330
BEB
100
AcDbSymbolTableRecord
100
AcDbLayerTableRecord
  2
Shape2395
 70
    0
 62
    7
  6
CONTINUOUS
  0
LAYER
  5
CA2
330
BEB
100
AcDbSymbolTableRecord
100
AcDbLayerTableRecord
  2
Shape2396
 70
    0
 62
    7
  6
CONTINUOUS
  0
LAYER
  5
CA3
330
BEB
100
AcDbSymbolTableRecord
100
AcDbLayerTableRecord
  2
Shape2397
 70
    0
 62
    7
  6
CONTINUOUS
  0
LAYER
  5
CA4
330
BEB
100
AcDbSymbolTableRecord
100
AcDbLayerTableRecord
  2
Shape2398
 70
    0
 62
    7
  6
CONTINUOUS
  0
LAYER
  5
CA5
330
BEB
100
AcDbSymbolTableRecord
100
AcDbLayerTableRecord
  2
Shape2399
 70
    0
 62
    7
  6
CONTINUOUS
  0
LAYER
  5
CA6
330
BEB
100
AcDbSymbolTableRecord
100
AcDbLayerTableRecord
  2
Shape2400
 70
    0
 62
    7
  6
CONTINUOUS
  0
LAYER
  5
CA7
330
BEB
100
AcDbSymbolTableRecord
100
AcDbLayerTableRecord
  2
Shape2401
 70
    0
 62
    7
  6
CONTINUOUS
  0
LAYER
  5
CA8
330
BEB
100
AcDbSymbolTableRecord
100
AcDbLayerTableRecord
  2
Shape2402
 70
    0
 62
    7
  6
CONTINUOUS
  0
LAYER
  5
CA9
330
BEB
100
AcDbSymbolTableRecord
100
AcDbLayerTableRecord
  2
Shape2403
 70
    0
 62
    7
  6
CONTINUOUS
  0
LAYER
  5
CAA
330
BEB
100
AcDbSymbolTableRecord
100
AcDbLayerTableRecord
  2
Shape2404
 70
    0
 62
    7
  6
CONTINUOUS
  0
LAYER
  5
CAB
330
BEB
100
AcDbSymbolTableRecord
100
AcDbLayerTableRecord
  2
Shape2405
 70
    0
 62
    7
  6
CONTINUOUS
  0
LAYER
  5
CAC
330
BEB
100
AcDbSymbolTableRecord
100
AcDbLayerTableRecord
  2
Shape2406
 70
    0
 62
    7
  6
CONTINUOUS
  0
LAYER
  5
CAD
330
BEB
100
AcDbSymbolTableRecord
100
AcDbLayerTableRecord
  2
Shape2407
 70
    0
 62
    7
  6
CONTINUOUS
  0
LAYER
  5
CAE
330
BEB
100
AcDbSymbolTableRecord
100
AcDbLayerTableRecord
  2
Shape2408
 70
    0
 62
    7
  6
CONTINUOUS
  0
LAYER
  5
CAF
330
BEB
100
AcDbSymbolTableRecord
100
AcDbLayerTableRecord
  2
Shape2409
 70
    0
 62
    7
  6
CONTINUOUS
  0
LAYER
  5
CB0
330
BEB
100
AcDbSymbolTableRecord
100
AcDbLayerTableRecord
  2
Shape2410
 70
    0
 62
    7
  6
CONTINUOUS
  0
LAYER
  5
CB1
330
BEB
100
AcDbSymbolTableRecord
100
AcDbLayerTableRecord
  2
Shape2411
 70
    0
 62
    7
  6
CONTINUOUS
  0
LAYER
  5
CB2
330
BEB
100
AcDbSymbolTableRecord
100
AcDbLayerTableRecord
  2
Shape2412
 70
    0
 62
    7
  6
CONTINUOUS
  0
LAYER
  5
CB3
330
BEB
100
AcDbSymbolTableRecord
100
AcDbLayerTableRecord
  2
Shape2413
 70
    0
 62
    7
  6
CONTINUOUS
  0
LAYER
  5
CB4
330
BEB
100
AcDbSymbolTableRecord
100
AcDbLayerTableRecord
  2
Shape2414
 70
    0
 62
    7
  6
CONTINUOUS
  0
LAYER
  5
CB5
330
BEB
100
AcDbSymbolTableRecord
100
AcDbLayerTableRecord
  2
Shape2415
 70
    0
 62
    7
  6
CONTINUOUS
  0
LAYER
  5
CB6
330
BEB
100
AcDbSymbolTableRecord
100
AcDbLayerTableRecord
  2
Shape2416
 70
    0
 62
    7
  6
CONTINUOUS
  0
LAYER
  5
CB7
330
BEB
100
AcDbSymbolTableRecord
100
AcDbLayerTableRecord
  2
Shape2417
 70
    0
 62
    7
  6
CONTINUOUS
  0
LAYER
  5
CB8
330
BEB
100
AcDbSymbolTableRecord
100
AcDbLayerTableRecord
  2
Shape2418
 70
    0
 62
    7
  6
CONTINUOUS
  0
LAYER
  5
CB9
330
BEB
100
AcDbSymbolTableRecord
100
AcDbLayerTableRecord
  2
Shape2419
 70
    0
 62
    7
  6
CONTINUOUS
  0
LAYER
  5
CBA
330
BEB
100
AcDbSymbolTableRecord
100
AcDbLayerTableRecord
  2
Shape2420
 70
    0
 62
    7
  6
CONTINUOUS
  0
LAYER
  5
CBB
330
BEB
100
AcDbSymbolTableRecord
100
AcDbLayerTableRecord
  2
Shape2421
 70
    0
 62
    7
  6
CONTINUOUS
  0
LAYER
  5
CBC
330
BEB
100
AcDbSymbolTableRecord
100
AcDbLayerTableRecord
  2
Shape2422
 70
    0
 62
    7
  6
CONTINUOUS
  0
LAYER
  5
CBD
330
BEB
100
AcDbSymbolTableRecord
100
AcDbLayerTableRecord
  2
Shape2423
 70
    0
 62
    7
  6
CONTINUOUS
  0
LAYER
  5
CBE
330
BEB
100
AcDbSymbolTableRecord
100
AcDbLayerTableRecord
  2
Shape2424
 70
    0
 62
    7
  6
CONTINUOUS
  0
LAYER
  5
CBF
330
BEB
100
AcDbSymbolTableRecord
100
AcDbLayerTableRecord
  2
Shape2425
 70
    0
 62
    7
  6
CONTINUOUS
  0
LAYER
  5
CC0
330
BEB
100
AcDbSymbolTableRecord
100
AcDbLayerTableRecord
  2
Shape2426
 70
    0
 62
    7
  6
CONTINUOUS
  0
LAYER
  5
CC1
330
BEB
100
AcDbSymbolTableRecord
100
AcDbLayerTableRecord
  2
Shape2427
 70
    0
 62
    7
  6
CONTINUOUS
  0
LAYER
  5
CC2
330
BEB
100
AcDbSymbolTableRecord
100
AcDbLayerTableRecord
  2
Shape2428
 70
    0
 62
    7
  6
CONTINUOUS
  0
LAYER
  5
CC3
330
BEB
100
AcDbSymbolTableRecord
100
AcDbLayerTableRecord
  2
Shape2429
 70
    0
 62
    7
  6
CONTINUOUS
  0
LAYER
  5
CC4
330
BEB
100
AcDbSymbolTableRecord
100
AcDbLayerTableRecord
  2
Shape2430
 70
    0
 62
    7
  6
CONTINUOUS
  0
LAYER
  5
CC5
330
BEB
100
AcDbSymbolTableRecord
100
AcDbLayerTableRecord
  2
Shape2431
 70
    0
 62
    7
  6
CONTINUOUS
  0
LAYER
  5
CC6
330
BEB
100
AcDbSymbolTableRecord
100
AcDbLayerTableRecord
  2
Shape2432
 70
    0
 62
    7
  6
CONTINUOUS
  0
LAYER
  5
CC7
330
BEB
100
AcDbSymbolTableRecord
100
AcDbLayerTableRecord
  2
Shape2433
 70
    0
 62
    7
  6
CONTINUOUS
  0
LAYER
  5
CC8
330
BEB
100
AcDbSymbolTableRecord
100
AcDbLayerTableRecord
  2
Shape2434
 70
    0
 62
    7
  6
CONTINUOUS
  0
LAYER
  5
CC9
330
BEB
100
AcDbSymbolTableRecord
100
AcDbLayerTableRecord
  2
Shape2435
 70
    0
 62
    7
  6
CONTINUOUS
  0
LAYER
  5
CCA
330
BEB
100
AcDbSymbolTableRecord
100
AcDbLayerTableRecord
  2
Shape2436
 70
    0
 62
    7
  6
CONTINUOUS
  0
LAYER
  5
CCB
330
BEB
100
AcDbSymbolTableRecord
100
AcDbLayerTableRecord
  2
Shape2437
 70
    0
 62
    7
  6
CONTINUOUS
  0
LAYER
  5
CCC
330
BEB
100
AcDbSymbolTableRecord
100
AcDbLayerTableRecord
  2
Shape2438
 70
    0
 62
    7
  6
CONTINUOUS
  0
LAYER
  5
CCD
330
BEB
100
AcDbSymbolTableRecord
100
AcDbLayerTableRecord
  2
Shape2439
 70
    0
 62
    7
  6
CONTINUOUS
  0
LAYER
  5
CCE
330
BEB
100
AcDbSymbolTableRecord
100
AcDbLayerTableRecord
  2
Shape2440
 70
    0
 62
    7
  6
CONTINUOUS
  0
LAYER
  5
CCF
330
BEB
100
AcDbSymbolTableRecord
100
AcDbLayerTableRecord
  2
Shape2441
 70
    0
 62
    7
  6
CONTINUOUS
  0
LAYER
  5
CD0
330
BEB
100
AcDbSymbolTableRecord
100
AcDbLayerTableRecord
  2
Shape2442
 70
    0
 62
    7
  6
CONTINUOUS
  0
LAYER
  5
CD1
330
BEB
100
AcDbSymbolTableRecord
100
AcDbLayerTableRecord
  2
Shape2443
 70
    0
 62
    7
  6
CONTINUOUS
  0
LAYER
  5
CD2
330
BEB
100
AcDbSymbolTableRecord
100
AcDbLayerTableRecord
  2
Shape2444
 70
    0
 62
    7
  6
CONTINUOUS
  0
LAYER
  5
CD3
330
BEB
100
AcDbSymbolTableRecord
100
AcDbLayerTableRecord
  2
Shape2445
 70
    0
 62
    7
  6
CONTINUOUS
  0
LAYER
  5
CD4
330
BEB
100
AcDbSymbolTableRecord
100
AcDbLayerTableRecord
  2
Shape2446
 70
    0
 62
    7
  6
CONTINUOUS
  0
LAYER
  5
CD5
330
BEB
100
AcDbSymbolTableRecord
100
AcDbLayerTableRecord
  2
Shape2447
 70
    0
 62
    7
  6
CONTINUOUS
  0
LAYER
  5
CD6
330
BEB
100
AcDbSymbolTableRecord
100
AcDbLayerTableRecord
  2
Shape2448
 70
    0
 62
    7
  6
CONTINUOUS
  0
LAYER
  5
CD7
330
BEB
100
AcDbSymbolTableRecord
100
AcDbLayerTableRecord
  2
Shape2449
 70
    0
 62
    7
  6
CONTINUOUS
  0
LAYER
  5
CD8
330
BEB
100
AcDbSymbolTableRecord
100
AcDbLayerTableRecord
  2
Shape2450
 70
    0
 62
    7
  6
CONTINUOUS
  0
LAYER
  5
CD9
330
BEB
100
AcDbSymbolTableRecord
100
AcDbLayerTableRecord
  2
Shape2451
 70
    0
 62
    7
  6
CONTINUOUS
  0
LAYER
  5
CDA
330
BEB
100
AcDbSymbolTableRecord
100
AcDbLayerTableRecord
  2
Shape2452
 70
    0
 62
    7
  6
CONTINUOUS
  0
LAYER
  5
CDB
330
BEB
100
AcDbSymbolTableRecord
100
AcDbLayerTableRecord
  2
Shape2453
 70
    0
 62
    7
  6
CONTINUOUS
  0
LAYER
  5
CDC
330
BEB
100
AcDbSymbolTableRecord
100
AcDbLayerTableRecord
  2
Shape2454
 70
    0
 62
    7
  6
CONTINUOUS
  0
LAYER
  5
CDD
330
BEB
100
AcDbSymbolTableRecord
100
AcDbLayerTableRecord
  2
Shape2455
 70
    0
 62
    7
  6
CONTINUOUS
  0
LAYER
  5
CDE
330
BEB
100
AcDbSymbolTableRecord
100
AcDbLayerTableRecord
  2
Shape2456
 70
    0
 62
    7
  6
CONTINUOUS
  0
LAYER
  5
CDF
330
BEB
100
AcDbSymbolTableRecord
100
AcDbLayerTableRecord
  2
Shape2457
 70
    0
 62
    7
  6
CONTINUOUS
  0
LAYER
  5
CE0
330
BEB
100
AcDbSymbolTableRecord
100
AcDbLayerTableRecord
  2
Shape2458
 70
    0
 62
    7
  6
CONTINUOUS
  0
LAYER
  5
CE1
330
BEB
100
AcDbSymbolTableRecord
100
AcDbLayerTableRecord
  2
Shape2459
 70
    0
 62
    7
  6
CONTINUOUS
  0
LAYER
  5
CE2
330
BEB
100
AcDbSymbolTableRecord
100
AcDbLayerTableRecord
  2
Shape2460
 70
    0
 62
    7
  6
CONTINUOUS
  0
LAYER
  5
CE3
330
BEB
100
AcDbSymbolTableRecord
100
AcDbLayerTableRecord
  2
Shape2461
 70
    0
 62
    7
  6
CONTINUOUS
  0
LAYER
  5
CE4
330
BEB
100
AcDbSymbolTableRecord
100
AcDbLayerTableRecord
  2
Shape2462
 70
    0
 62
    7
  6
CONTINUOUS
  0
LAYER
  5
CE5
330
BEB
100
AcDbSymbolTableRecord
100
AcDbLayerTableRecord
  2
Shape2463
 70
    0
 62
    7
  6
CONTINUOUS
  0
LAYER
  5
CE6
330
BEB
100
AcDbSymbolTableRecord
100
AcDbLayerTableRecord
  2
Shape2464
 70
    0
 62
    7
  6
CONTINUOUS
  0
LAYER
  5
CE7
330
BEB
100
AcDbSymbolTableRecord
100
AcDbLayerTableRecord
  2
Shape2465
 70
    0
 62
    7
  6
CONTINUOUS
  0
LAYER
  5
CE8
330
BEB
100
AcDbSymbolTableRecord
100
AcDbLayerTableRecord
  2
Shape2466
 70
    0
 62
    7
  6
CONTINUOUS
  0
LAYER
  5
CE9
330
BEB
100
AcDbSymbolTableRecord
100
AcDbLayerTableRecord
  2
Shape2467
 70
    0
 62
    7
  6
CONTINUOUS
  0
LAYER
  5
CEA
330
BEB
100
AcDbSymbolTableRecord
100
AcDbLayerTableRecord
  2
Shape2468
 70
    0
 62
    7
  6
CONTINUOUS
  0
LAYER
  5
CEB
330
BEB
100
AcDbSymbolTableRecord
100
AcDbLayerTableRecord
  2
Shape2469
 70
    0
 62
    7
  6
CONTINUOUS
  0
LAYER
  5
CEC
330
BEB
100
AcDbSymbolTableRecord
100
AcDbLayerTableRecord
  2
Shape2470
 70
    0
 62
    7
  6
CONTINUOUS
  0
LAYER
  5
CED
330
BEB
100
AcDbSymbolTableRecord
100
AcDbLayerTableRecord
  2
Shape2471
 70
    0
 62
    7
  6
CONTINUOUS
  0
LAYER
  5
CEE
330
BEB
100
AcDbSymbolTableRecord
100
AcDbLayerTableRecord
  2
Shape2472
 70
    0
 62
    7
  6
CONTINUOUS
  0
LAYER
  5
CEF
330
BEB
100
AcDbSymbolTableRecord
100
AcDbLayerTableRecord
  2
Shape2473
 70
    0
 62
    7
  6
CONTINUOUS
  0
LAYER
  5
CF0
330
BEB
100
AcDbSymbolTableRecord
100
AcDbLayerTableRecord
  2
Shape2474
 70
    0
 62
    7
  6
CONTINUOUS
  0
LAYER
  5
CF1
330
BEB
100
AcDbSymbolTableRecord
100
AcDbLayerTableRecord
  2
Shape2475
 70
    0
 62
    7
  6
CONTINUOUS
  0
LAYER
  5
CF2
330
BEB
100
AcDbSymbolTableRecord
100
AcDbLayerTableRecord
  2
Shape2476
 70
    0
 62
    7
  6
CONTINUOUS
  0
LAYER
  5
CF3
330
BEB
100
AcDbSymbolTableRecord
100
AcDbLayerTableRecord
  2
Shape2477
 70
    0
 62
    7
  6
CONTINUOUS
  0
LAYER
  5
CF4
330
BEB
100
AcDbSymbolTableRecord
100
AcDbLayerTableRecord
  2
Shape2478
 70
    0
 62
    7
  6
CONTINUOUS
  0
LAYER
  5
CF5
330
BEB
100
AcDbSymbolTableRecord
100
AcDbLayerTableRecord
  2
Shape2479
 70
    0
 62
    7
  6
CONTINUOUS
  0
LAYER
  5
CF6
330
BEB
100
AcDbSymbolTableRecord
100
AcDbLayerTableRecord
  2
Shape2480
 70
    0
 62
    7
  6
CONTINUOUS
  0
LAYER
  5
CF7
330
BEB
100
AcDbSymbolTableRecord
100
AcDbLayerTableRecord
  2
Shape2481
 70
    0
 62
    7
  6
CONTINUOUS
  0
LAYER
  5
CF8
330
BEB
100
AcDbSymbolTableRecord
100
AcDbLayerTableRecord
  2
Shape2482
 70
    0
 62
    7
  6
CONTINUOUS
  0
LAYER
  5
CF9
330
BEB
100
AcDbSymbolTableRecord
100
AcDbLayerTableRecord
  2
Shape2483
 70
    0
 62
    7
  6
CONTINUOUS
  0
LAYER
  5
CFA
330
BEB
100
AcDbSymbolTableRecord
100
AcDbLayerTableRecord
  2
Shape2484
 70
    0
 62
    7
  6
CONTINUOUS
  0
LAYER
  5
CFB
330
BEB
100
AcDbSymbolTableRecord
100
AcDbLayerTableRecord
  2
Shape2485
 70
    0
 62
    7
  6
CONTINUOUS
  0
LAYER
  5
CFC
330
BEB
100
AcDbSymbolTableRecord
100
AcDbLayerTableRecord
  2
Shape2486
 70
    0
 62
    7
  6
CONTINUOUS
  0
LAYER
  5
CFD
330
BEB
100
AcDbSymbolTableRecord
100
AcDbLayerTableRecord
  2
Shape2487
 70
    0
 62
    7
  6
CONTINUOUS
  0
LAYER
  5
CFE
330
BEB
100
AcDbSymbolTableRecord
100
AcDbLayerTableRecord
  2
Shape2488
 70
    0
 62
    7
  6
CONTINUOUS
  0
LAYER
  5
CFF
330
BEB
100
AcDbSymbolTableRecord
100
AcDbLayerTableRecord
  2
Shape2489
 70
    0
 62
    7
  6
CONTINUOUS
  0
LAYER
  5
D00
330
BEB
100
AcDbSymbolTableRecord
100
AcDbLayerTableRecord
  2
Shape2490
 70
    0
 62
    7
  6
CONTINUOUS
  0
LAYER
  5
D01
330
BEB
100
AcDbSymbolTableRecord
100
AcDbLayerTableRecord
  2
Shape2491
 70
    0
 62
    7
  6
CONTINUOUS
  0
LAYER
  5
D02
330
BEB
100
AcDbSymbolTableRecord
100
AcDbLayerTableRecord
  2
Shape2492
 70
    0
 62
    7
  6
CONTINUOUS
  0
LAYER
  5
D03
330
BEB
100
AcDbSymbolTableRecord
100
AcDbLayerTableRecord
  2
Shape2493
 70
    0
 62
    7
  6
CONTINUOUS
  0
LAYER
  5
D04
330
BEB
100
AcDbSymbolTableRecord
100
AcDbLayerTableRecord
  2
Shape2494
 70
    0
 62
    7
  6
CONTINUOUS
  0
LAYER
  5
D05
330
BEB
100
AcDbSymbolTableRecord
100
AcDbLayerTableRecord
  2
Shape2495
 70
    0
 62
    7
  6
CONTINUOUS
  0
LAYER
  5
D06
330
BEB
100
AcDbSymbolTableRecord
100
AcDbLayerTableRecord
  2
Shape2496
 70
    0
 62
    7
  6
CONTINUOUS
  0
LAYER
  5
D07
330
BEB
100
AcDbSymbolTableRecord
100
AcDbLayerTableRecord
  2
Shape2497
 70
    0
 62
    7
  6
CONTINUOUS
  0
LAYER
  5
D08
330
BEB
100
AcDbSymbolTableRecord
100
AcDbLayerTableRecord
  2
Shape2498
 70
    0
 62
    7
  6
CONTINUOUS
  0
LAYER
  5
D09
330
BEB
100
AcDbSymbolTableRecord
100
AcDbLayerTableRecord
  2
Shape2499
 70
    0
 62
    7
  6
CONTINUOUS
  0
LAYER
  5
D0A
330
BEB
100
AcDbSymbolTableRecord
100
AcDbLayerTableRecord
  2
Shape2500
 70
    0
 62
    7
  6
CONTINUOUS
  0
LAYER
  5
D0B
330
BEB
100
AcDbSymbolTableRecord
100
AcDbLayerTableRecord
  2
Shape2501
 70
    0
 62
    7
  6
CONTINUOUS
  0
LAYER
  5
D0C
330
BEB
100
AcDbSymbolTableRecord
100
AcDbLayerTableRecord
  2
Shape2502
 70
    0
 62
    7
  6
CONTINUOUS
  0
LAYER
  5
D0D
330
BEB
100
AcDbSymbolTableRecord
100
AcDbLayerTableRecord
  2
Shape2503
 70
    0
 62
    7
  6
CONTINUOUS
  0
LAYER
  5
D0E
330
BEB
100
AcDbSymbolTableRecord
100
AcDbLayerTableRecord
  2
Shape2504
 70
    0
 62
    7
  6
CONTINUOUS
  0
LAYER
  5
D0F
330
BEB
100
AcDbSymbolTableRecord
100
AcDbLayerTableRecord
  2
Shape2505
 70
    0
 62
    7
  6
CONTINUOUS
  0
LAYER
  5
D10
330
BEB
100
AcDbSymbolTableRecord
100
AcDbLayerTableRecord
  2
Shape2506
 70
    0
 62
    7
  6
CONTINUOUS
  0
LAYER
  5
D11
330
BEB
100
AcDbSymbolTableRecord
100
AcDbLayerTableRecord
  2
Shape2507
 70
    0
 62
    7
  6
CONTINUOUS
  0
LAYER
  5
D12
330
BEB
100
AcDbSymbolTableRecord
100
AcDbLayerTableRecord
  2
Shape2508
 70
    0
 62
    7
  6
CONTINUOUS
  0
LAYER
  5
D13
330
BEB
100
AcDbSymbolTableRecord
100
AcDbLayerTableRecord
  2
Shape2509
 70
    0
 62
    7
  6
CONTINUOUS
  0
LAYER
  5
D14
330
BEB
100
AcDbSymbolTableRecord
100
AcDbLayerTableRecord
  2
Shape2510
 70
    0
 62
    7
  6
CONTINUOUS
  0
LAYER
  5
D15
330
BEB
100
AcDbSymbolTableRecord
100
AcDbLayerTableRecord
  2
Shape2511
 70
    0
 62
    7
  6
CONTINUOUS
  0
LAYER
  5
D16
330
BEB
100
AcDbSymbolTableRecord
100
AcDbLayerTableRecord
  2
Shape2512
 70
    0
 62
    7
  6
CONTINUOUS
  0
LAYER
  5
D17
330
BEB
100
AcDbSymbolTableRecord
100
AcDbLayerTableRecord
  2
Shape2513
 70
    0
 62
    7
  6
CONTINUOUS
  0
LAYER
  5
D18
330
BEB
100
AcDbSymbolTableRecord
100
AcDbLayerTableRecord
  2
Shape2514
 70
    0
 62
    7
  6
CONTINUOUS
  0
LAYER
  5
D19
330
BEB
100
AcDbSymbolTableRecord
100
AcDbLayerTableRecord
  2
Shape2515
 70
    0
 62
    7
  6
CONTINUOUS
  0
LAYER
  5
D1A
330
BEB
100
AcDbSymbolTableRecord
100
AcDbLayerTableRecord
  2
Shape2516
 70
    0
 62
    7
  6
CONTINUOUS
  0
LAYER
  5
D1B
330
BEB
100
AcDbSymbolTableRecord
100
AcDbLayerTableRecord
  2
Shape2517
 70
    0
 62
    7
  6
CONTINUOUS
  0
LAYER
  5
D1C
330
BEB
100
AcDbSymbolTableRecord
100
AcDbLayerTableRecord
  2
Shape2518
 70
    0
 62
    7
  6
CONTINUOUS
  0
LAYER
  5
D1D
330
BEB
100
AcDbSymbolTableRecord
100
AcDbLayerTableRecord
  2
Shape2519
 70
    0
 62
    7
  6
CONTINUOUS
  0
LAYER
  5
D1E
330
BEB
100
AcDbSymbolTableRecord
100
AcDbLayerTableRecord
  2
Shape2520
 70
    0
 62
    7
  6
CONTINUOUS
  0
LAYER
  5
D1F
330
BEB
100
AcDbSymbolTableRecord
100
AcDbLayerTableRecord
  2
Shape2521
 70
    0
 62
    7
  6
CONTINUOUS
  0
LAYER
  5
D20
330
BEB
100
AcDbSymbolTableRecord
100
AcDbLayerTableRecord
  2
Shape2522
 70
    0
 62
    7
  6
CONTINUOUS
  0
LAYER
  5
D21
330
BEB
100
AcDbSymbolTableRecord
100
AcDbLayerTableRecord
  2
Shape2523
 70
    0
 62
    7
  6
CONTINUOUS
  0
LAYER
  5
D22
330
BEB
100
AcDbSymbolTableRecord
100
AcDbLayerTableRecord
  2
Shape2524
 70
    0
 62
    7
  6
CONTINUOUS
  0
LAYER
  5
D23
330
BEB
100
AcDbSymbolTableRecord
100
AcDbLayerTableRecord
  2
Shape2525
 70
    0
 62
    7
  6
CONTINUOUS
  0
LAYER
  5
D24
330
BEB
100
AcDbSymbolTableRecord
100
AcDbLayerTableRecord
  2
Shape2526
 70
    0
 62
    7
  6
CONTINUOUS
  0
LAYER
  5
D25
330
BEB
100
AcDbSymbolTableRecord
100
AcDbLayerTableRecord
  2
Shape2527
 70
    0
 62
    7
  6
CONTINUOUS
  0
LAYER
  5
D26
330
BEB
100
AcDbSymbolTableRecord
100
AcDbLayerTableRecord
  2
Shape2528
 70
    0
 62
    7
  6
CONTINUOUS
  0
LAYER
  5
D27
330
BEB
100
AcDbSymbolTableRecord
100
AcDbLayerTableRecord
  2
Shape2529
 70
    0
 62
    7
  6
CONTINUOUS
  0
LAYER
  5
D28
330
BEB
100
AcDbSymbolTableRecord
100
AcDbLayerTableRecord
  2
Shape3562
 70
    0
 62
    7
  6
CONTINUOUS
  0
LAYER
  5
D29
330
BEB
100
AcDbSymbolTableRecord
100
AcDbLayerTableRecord
  2
Shape3563
 70
    0
 62
    7
  6
CONTINUOUS
  0
LAYER
  5
D2A
330
BEB
100
AcDbSymbolTableRecord
100
AcDbLayerTableRecord
  2
Shape3564
 70
    0
 62
    7
  6
CONTINUOUS
  0
LAYER
  5
D2B
330
BEB
100
AcDbSymbolTableRecord
100
AcDbLayerTableRecord
  2
Shape3565
 70
    0
 62
    7
  6
CONTINUOUS
  0
LAYER
  5
D2C
330
BEB
100
AcDbSymbolTableRecord
100
AcDbLayerTableRecord
  2
Shape3566
 70
    0
 62
    7
  6
CONTINUOUS
  0
LAYER
  5
D2D
330
BEB
100
AcDbSymbolTableRecord
100
AcDbLayerTableRecord
  2
Shape3567
 70
    0
 62
    7
  6
CONTINUOUS
  0
LAYER
  5
D2E
330
BEB
100
AcDbSymbolTableRecord
100
AcDbLayerTableRecord
  2
Shape3568
 70
    0
 62
    7
  6
CONTINUOUS
  0
LAYER
  5
D2F
330
BEB
100
AcDbSymbolTableRecord
100
AcDbLayerTableRecord
  2
Shape3569
 70
    0
 62
    7
  6
CONTINUOUS
  0
LAYER
  5
D30
330
BEB
100
AcDbSymbolTableRecord
100
AcDbLayerTableRecord
  2
Shape3570
 70
    0
 62
    7
  6
CONTINUOUS
  0
LAYER
  5
D31
330
BEB
100
AcDbSymbolTableRecord
100
AcDbLayerTableRecord
  2
Shape3571
 70
    0
 62
    7
  6
CONTINUOUS
  0
LAYER
  5
D32
330
BEB
100
AcDbSymbolTableRecord
100
AcDbLayerTableRecord
  2
Shape3572
 70
    0
 62
    7
  6
CONTINUOUS
  0
LAYER
  5
D33
330
BEB
100
AcDbSymbolTableRecord
100
AcDbLayerTableRecord
  2
Shape3573
 70
    0
 62
    7
  6
CONTINUOUS
  0
LAYER
  5
D34
330
BEB
100
AcDbSymbolTableRecord
100
AcDbLayerTableRecord
  2
Shape3574
 70
    0
 62
    7
  6
CONTINUOUS
  0
LAYER
  5
D35
330
BEB
100
AcDbSymbolTableRecord
100
AcDbLayerTableRecord
  2
Shape3575
 70
    0
 62
    7
  6
CONTINUOUS
  0
LAYER
  5
D36
330
BEB
100
AcDbSymbolTableRecord
100
AcDbLayerTableRecord
  2
Shape3576
 70
    0
 62
    7
  6
CONTINUOUS
  0
LAYER
  5
D37
330
BEB
100
AcDbSymbolTableRecord
100
AcDbLayerTableRecord
  2
Shape3577
 70
    0
 62
    7
  6
CONTINUOUS
  0
LAYER
  5
D38
330
BEB
100
AcDbSymbolTableRecord
100
AcDbLayerTableRecord
  2
Shape3578
 70
    0
 62
    7
  6
CONTINUOUS
  0
LAYER
  5
D39
330
BEB
100
AcDbSymbolTableRecord
100
AcDbLayerTableRecord
  2
Shape3579
 70
    0
 62
    7
  6
CONTINUOUS
  0
LAYER
  5
D3A
330
BEB
100
AcDbSymbolTableRecord
100
AcDbLayerTableRecord
  2
Shape3580
 70
    0
 62
    7
  6
CONTINUOUS
  0
LAYER
  5
D3B
330
BEB
100
AcDbSymbolTableRecord
100
AcDbLayerTableRecord
  2
Shape3581
 70
    0
 62
    7
  6
CONTINUOUS
  0
LAYER
  5
D3C
330
BEB
100
AcDbSymbolTableRecord
100
AcDbLayerTableRecord
  2
Shape3582
 70
    0
 62
    7
  6
CONTINUOUS
  0
LAYER
  5
D3D
330
BEB
100
AcDbSymbolTableRecord
100
AcDbLayerTableRecord
  2
Shape3583
 70
    0
 62
    7
  6
CONTINUOUS
  0
LAYER
  5
D3E
330
BEB
100
AcDbSymbolTableRecord
100
AcDbLayerTableRecord
  2
Shape3584
 70
    0
 62
    7
  6
CONTINUOUS
  0
LAYER
  5
D3F
330
BEB
100
AcDbSymbolTableRecord
100
AcDbLayerTableRecord
  2
Shape3585
 70
    0
 62
    7
  6
CONTINUOUS
  0
LAYER
  5
D40
330
BEB
100
AcDbSymbolTableRecord
100
AcDbLayerTableRecord
  2
Shape3586
 70
    0
 62
    7
  6
CONTINUOUS
  0
LAYER
  5
D41
330
BEB
100
AcDbSymbolTableRecord
100
AcDbLayerTableRecord
  2
Shape3587
 70
    0
 62
    7
  6
CONTINUOUS
  0
LAYER
  5
D42
330
BEB
100
AcDbSymbolTableRecord
100
AcDbLayerTableRecord
  2
Shape3588
 70
    0
 62
    7
  6
CONTINUOUS
  0
LAYER
  5
D43
330
BEB
100
AcDbSymbolTableRecord
100
AcDbLayerTableRecord
  2
Shape3589
 70
    0
 62
    7
  6
CONTINUOUS
  0
LAYER
  5
D44
330
BEB
100
AcDbSymbolTableRecord
100
AcDbLayerTableRecord
  2
Shape3590
 70
    0
 62
    7
  6
CONTINUOUS
  0
LAYER
  5
D45
330
BEB
100
AcDbSymbolTableRecord
100
AcDbLayerTableRecord
  2
Shape3591
 70
    0
 62
    7
  6
CONTINUOUS
  0
LAYER
  5
D46
330
BEB
100
AcDbSymbolTableRecord
100
AcDbLayerTableRecord
  2
Shape3592
 70
    0
 62
    7
  6
CONTINUOUS
  0
LAYER
  5
D47
330
BEB
100
AcDbSymbolTableRecord
100
AcDbLayerTableRecord
  2
Shape3593
 70
    0
 62
    7
  6
CONTINUOUS
  0
LAYER
  5
D48
330
BEB
100
AcDbSymbolTableRecord
100
AcDbLayerTableRecord
  2
Shape3594
 70
    0
 62
    7
  6
CONTINUOUS
  0
LAYER
  5
D49
330
BEB
100
AcDbSymbolTableRecord
100
AcDbLayerTableRecord
  2
Shape3595
 70
    0
 62
    7
  6
CONTINUOUS
  0
LAYER
  5
D4A
330
BEB
100
AcDbSymbolTableRecord
100
AcDbLayerTableRecord
  2
Shape3596
 70
    0
 62
    7
  6
CONTINUOUS
  0
LAYER
  5
D4B
330
BEB
100
AcDbSymbolTableRecord
100
AcDbLayerTableRecord
  2
Shape3597
 70
    0
 62
    7
  6
CONTINUOUS
  0
LAYER
  5
D4C
330
BEB
100
AcDbSymbolTableRecord
100
AcDbLayerTableRecord
  2
Shape3598
 70
    0
 62
    7
  6
CONTINUOUS
  0
LAYER
  5
D4D
330
BEB
100
AcDbSymbolTableRecord
100
AcDbLayerTableRecord
  2
Shape3599
 70
    0
 62
    7
  6
CONTINUOUS
  0
LAYER
  5
D4E
330
BEB
100
AcDbSymbolTableRecord
100
AcDbLayerTableRecord
  2
Shape3600
 70
    0
 62
    7
  6
CONTINUOUS
  0
LAYER
  5
D4F
330
BEB
100
AcDbSymbolTableRecord
100
AcDbLayerTableRecord
  2
Shape3601
 70
    0
 62
    7
  6
CONTINUOUS
  0
LAYER
  5
D50
330
BEB
100
AcDbSymbolTableRecord
100
AcDbLayerTableRecord
  2
Shape3602
 70
    0
 62
    7
  6
CONTINUOUS
  0
LAYER
  5
D51
330
BEB
100
AcDbSymbolTableRecord
100
AcDbLayerTableRecord
  2
Shape3603
 70
    0
 62
    7
  6
CONTINUOUS
  0
LAYER
  5
D52
330
BEB
100
AcDbSymbolTableRecord
100
AcDbLayerTableRecord
  2
Shape3604
 70
    0
 62
    7
  6
CONTINUOUS
  0
LAYER
  5
D53
330
BEB
100
AcDbSymbolTableRecord
100
AcDbLayerTableRecord
  2
Shape3605
 70
    0
 62
    7
  6
CONTINUOUS
  0
LAYER
  5
D54
330
BEB
100
AcDbSymbolTableRecord
100
AcDbLayerTableRecord
  2
Shape3606
 70
    0
 62
    7
  6
CONTINUOUS
  0
LAYER
  5
D55
330
BEB
100
AcDbSymbolTableRecord
100
AcDbLayerTableRecord
  2
Shape3607
 70
    0
 62
    7
  6
CONTINUOUS
  0
LAYER
  5
D56
330
BEB
100
AcDbSymbolTableRecord
100
AcDbLayerTableRecord
  2
Shape3608
 70
    0
 62
    7
  6
CONTINUOUS
  0
LAYER
  5
D57
330
BEB
100
AcDbSymbolTableRecord
100
AcDbLayerTableRecord
  2
Shape3609
 70
    0
 62
    7
  6
CONTINUOUS
  0
LAYER
  5
D58
330
BEB
100
AcDbSymbolTableRecord
100
AcDbLayerTableRecord
  2
Shape3610
 70
    0
 62
    7
  6
CONTINUOUS
  0
LAYER
  5
D59
330
BEB
100
AcDbSymbolTableRecord
100
AcDbLayerTableRecord
  2
Shape3611
 70
    0
 62
    7
  6
CONTINUOUS
  0
LAYER
  5
D5A
330
BEB
100
AcDbSymbolTableRecord
100
AcDbLayerTableRecord
  2
Shape3612
 70
    0
 62
    7
  6
CONTINUOUS
  0
LAYER
  5
D5B
330
BEB
100
AcDbSymbolTableRecord
100
AcDbLayerTableRecord
  2
Shape3613
 70
    0
 62
    7
  6
CONTINUOUS
  0
LAYER
  5
D5C
330
BEB
100
AcDbSymbolTableRecord
100
AcDbLayerTableRecord
  2
Shape3614
 70
    0
 62
    7
  6
CONTINUOUS
  0
LAYER
  5
D5D
330
BEB
100
AcDbSymbolTableRecord
100
AcDbLayerTableRecord
  2
Shape3615
 70
    0
 62
    7
  6
CONTINUOUS
  0
LAYER
  5
D5E
330
BEB
100
AcDbSymbolTableRecord
100
AcDbLayerTableRecord
  2
Shape3616
 70
    0
 62
    7
  6
CONTINUOUS
  0
LAYER
  5
D5F
330
BEB
100
AcDbSymbolTableRecord
100
AcDbLayerTableRecord
  2
Shape3617
 70
    0
 62
    7
  6
CONTINUOUS
  0
LAYER
  5
D60
330
BEB
100
AcDbSymbolTableRecord
100
AcDbLayerTableRecord
  2
Shape3618
 70
    0
 62
    7
  6
CONTINUOUS
  0
LAYER
  5
D61
330
BEB
100
AcDbSymbolTableRecord
100
AcDbLayerTableRecord
  2
Shape3619
 70
    0
 62
    7
  6
CONTINUOUS
  0
LAYER
  5
D62
330
BEB
100
AcDbSymbolTableRecord
100
AcDbLayerTableRecord
  2
Shape3620
 70
    0
 62
    7
  6
CONTINUOUS
  0
LAYER
  5
D63
330
BEB
100
AcDbSymbolTableRecord
100
AcDbLayerTableRecord
  2
Shape3621
 70
    0
 62
    7
  6
CONTINUOUS
  0
LAYER
  5
D64
330
BEB
100
AcDbSymbolTableRecord
100
AcDbLayerTableRecord
  2
Shape3622
 70
    0
 62
    7
  6
CONTINUOUS
  0
LAYER
  5
D65
330
BEB
100
AcDbSymbolTableRecord
100
AcDbLayerTableRecord
  2
Shape3623
 70
    0
 62
    7
  6
CONTINUOUS
  0
LAYER
  5
D66
330
BEB
100
AcDbSymbolTableRecord
100
AcDbLayerTableRecord
  2
Shape3624
 70
    0
 62
    7
  6
CONTINUOUS
  0
LAYER
  5
D67
330
BEB
100
AcDbSymbolTableRecord
100
AcDbLayerTableRecord
  2
Shape3625
 70
    0
 62
    7
  6
CONTINUOUS
  0
LAYER
  5
D68
330
BEB
100
AcDbSymbolTableRecord
100
AcDbLayerTableRecord
  2
Shape3626
 70
    0
 62
    7
  6
CONTINUOUS
  0
LAYER
  5
D69
330
BEB
100
AcDbSymbolTableRecord
100
AcDbLayerTableRecord
  2
Shape3627
 70
    0
 62
    7
  6
CONTINUOUS
  0
LAYER
  5
D6A
330
BEB
100
AcDbSymbolTableRecord
100
AcDbLayerTableRecord
  2
Shape3628
 70
    0
 62
    7
  6
CONTINUOUS
  0
LAYER
  5
D6B
330
BEB
100
AcDbSymbolTableRecord
100
AcDbLayerTableRecord
  2
Shape3629
 70
    0
 62
    7
  6
CONTINUOUS
  0
LAYER
  5
D6C
330
BEB
100
AcDbSymbolTableRecord
100
AcDbLayerTableRecord
  2
Shape3630
 70
    0
 62
    7
  6
CONTINUOUS
  0
LAYER
  5
D6D
330
BEB
100
AcDbSymbolTableRecord
100
AcDbLayerTableRecord
  2
Shape3631
 70
    0
 62
    7
  6
CONTINUOUS
  0
LAYER
  5
D6E
330
BEB
100
AcDbSymbolTableRecord
100
AcDbLayerTableRecord
  2
Shape3632
 70
    0
 62
    7
  6
CONTINUOUS
  0
LAYER
  5
D6F
330
BEB
100
AcDbSymbolTableRecord
100
AcDbLayerTableRecord
  2
Shape3633
 70
    0
 62
    7
  6
CONTINUOUS
  0
LAYER
  5
D70
330
BEB
100
AcDbSymbolTableRecord
100
AcDbLayerTableRecord
  2
Shape3634
 70
    0
 62
    7
  6
CONTINUOUS
  0
LAYER
  5
D71
330
BEB
100
AcDbSymbolTableRecord
100
AcDbLayerTableRecord
  2
Shape3635
 70
    0
 62
    7
  6
CONTINUOUS
  0
LAYER
  5
D72
330
BEB
100
AcDbSymbolTableRecord
100
AcDbLayerTableRecord
  2
Shape3636
 70
    0
 62
    7
  6
CONTINUOUS
  0
LAYER
  5
D73
330
BEB
100
AcDbSymbolTableRecord
100
AcDbLayerTableRecord
  2
Shape3637
 70
    0
 62
    7
  6
CONTINUOUS
  0
LAYER
  5
D74
330
BEB
100
AcDbSymbolTableRecord
100
AcDbLayerTableRecord
  2
Shape3638
 70
    0
 62
    7
  6
CONTINUOUS
  0
LAYER
  5
D75
330
BEB
100
AcDbSymbolTableRecord
100
AcDbLayerTableRecord
  2
Shape3639
 70
    0
 62
    7
  6
CONTINUOUS
  0
LAYER
  5
D76
330
BEB
100
AcDbSymbolTableRecord
100
AcDbLayerTableRecord
  2
Shape3640
 70
    0
 62
    7
  6
CONTINUOUS
  0
LAYER
  5
D77
330
BEB
100
AcDbSymbolTableRecord
100
AcDbLayerTableRecord
  2
Shape3641
 70
    0
 62
    7
  6
CONTINUOUS
  0
LAYER
  5
D78
330
BEB
100
AcDbSymbolTableRecord
100
AcDbLayerTableRecord
  2
Shape3642
 70
    0
 62
    7
  6
CONTINUOUS
  0
LAYER
  5
D79
330
BEB
100
AcDbSymbolTableRecord
100
AcDbLayerTableRecord
  2
Shape3643
 70
    0
 62
    7
  6
CONTINUOUS
  0
LAYER
  5
D7A
330
BEB
100
AcDbSymbolTableRecord
100
AcDbLayerTableRecord
  2
Shape3644
 70
    0
 62
    7
  6
CONTINUOUS
  0
LAYER
  5
D7B
330
BEB
100
AcDbSymbolTableRecord
100
AcDbLayerTableRecord
  2
Shape3645
 70
    0
 62
    7
  6
CONTINUOUS
  0
LAYER
  5
D7C
330
BEB
100
AcDbSymbolTableRecord
100
AcDbLayerTableRecord
  2
Shape3646
 70
    0
 62
    7
  6
CONTINUOUS
  0
LAYER
  5
D7D
330
BEB
100
AcDbSymbolTableRecord
100
AcDbLayerTableRecord
  2
Shape3647
 70
    0
 62
    7
  6
CONTINUOUS
  0
LAYER
  5
D7E
330
BEB
100
AcDbSymbolTableRecord
100
AcDbLayerTableRecord
  2
Shape3648
 70
    0
 62
    7
  6
CONTINUOUS
  0
LAYER
  5
D7F
330
BEB
100
AcDbSymbolTableRecord
100
AcDbLayerTableRecord
  2
Shape3649
 70
    0
 62
    7
  6
CONTINUOUS
  0
LAYER
  5
D80
330
BEB
100
AcDbSymbolTableRecord
100
AcDbLayerTableRecord
  2
Shape4243
 70
    0
 62
    7
  6
CONTINUOUS
  0
LAYER
  5
D81
330
BEB
100
AcDbSymbolTableRecord
100
AcDbLayerTableRecord
  2
Shape4244
 70
    0
 62
    7
  6
CONTINUOUS
  0
LAYER
  5
D82
330
BEB
100
AcDbSymbolTableRecord
100
AcDbLayerTableRecord
  2
Shape4245
 70
    0
 62
    7
  6
CONTINUOUS
  0
LAYER
  5
D83
330
BEB
100
AcDbSymbolTableRecord
100
AcDbLayerTableRecord
  2
Shape4246
 70
    0
 62
    7
  6
CONTINUOUS
  0
LAYER
  5
D84
330
BEB
100
AcDbSymbolTableRecord
100
AcDbLayerTableRecord
  2
Shape4247
 70
    0
 62
    7
  6
CONTINUOUS
  0
LAYER
  5
D85
330
BEB
100
AcDbSymbolTableRecord
100
AcDbLayerTableRecord
  2
Shape4248
 70
    0
 62
    7
  6
CONTINUOUS
  0
LAYER
  5
D86
330
BEB
100
AcDbSymbolTableRecord
100
AcDbLayerTableRecord
  2
Shape4249
 70
    0
 62
    7
  6
CONTINUOUS
  0
LAYER
  5
D87
330
BEB
100
AcDbSymbolTableRecord
100
AcDbLayerTableRecord
  2
Shape4250
 70
    0
 62
    7
  6
CONTINUOUS
  0
LAYER
  5
D88
330
BEB
100
AcDbSymbolTableRecord
100
AcDbLayerTableRecord
  2
Shape4251
 70
    0
 62
    7
  6
CONTINUOUS
  0
LAYER
  5
D89
330
BEB
100
AcDbSymbolTableRecord
100
AcDbLayerTableRecord
  2
Shape4252
 70
    0
 62
    7
  6
CONTINUOUS
  0
LAYER
  5
D8A
330
BEB
100
AcDbSymbolTableRecord
100
AcDbLayerTableRecord
  2
Shape4253
 70
    0
 62
    7
  6
CONTINUOUS
  0
LAYER
  5
D8B
330
BEB
100
AcDbSymbolTableRecord
100
AcDbLayerTableRecord
  2
Shape4254
 70
    0
 62
    7
  6
CONTINUOUS
  0
LAYER
  5
D8C
330
BEB
100
AcDbSymbolTableRecord
100
AcDbLayerTableRecord
  2
Shape4255
 70
    0
 62
    7
  6
CONTINUOUS
  0
LAYER
  5
D8D
330
BEB
100
AcDbSymbolTableRecord
100
AcDbLayerTableRecord
  2
Shape4256
 70
    0
 62
    7
  6
CONTINUOUS
  0
LAYER
  5
D8E
330
BEB
100
AcDbSymbolTableRecord
100
AcDbLayerTableRecord
  2
Shape4257
 70
    0
 62
    7
  6
CONTINUOUS
  0
LAYER
  5
D8F
330
BEB
100
AcDbSymbolTableRecord
100
AcDbLayerTableRecord
  2
Shape4258
 70
    0
 62
    7
  6
CONTINUOUS
  0
LAYER
  5
D90
330
BEB
100
AcDbSymbolTableRecord
100
AcDbLayerTableRecord
  2
Shape4259
 70
    0
 62
    7
  6
CONTINUOUS
  0
LAYER
  5
D91
330
BEB
100
AcDbSymbolTableRecord
100
AcDbLayerTableRecord
  2
Shape4260
 70
    0
 62
    7
  6
CONTINUOUS
  0
LAYER
  5
D92
330
BEB
100
AcDbSymbolTableRecord
100
AcDbLayerTableRecord
  2
Shape4261
 70
    0
 62
    7
  6
CONTINUOUS
  0
LAYER
  5
D93
330
BEB
100
AcDbSymbolTableRecord
100
AcDbLayerTableRecord
  2
Shape4262
 70
    0
 62
    7
  6
CONTINUOUS
  0
LAYER
  5
D94
330
BEB
100
AcDbSymbolTableRecord
100
AcDbLayerTableRecord
  2
Shape4263
 70
    0
 62
    7
  6
CONTINUOUS
  0
LAYER
  5
D95
330
BEB
100
AcDbSymbolTableRecord
100
AcDbLayerTableRecord
  2
Shape4264
 70
    0
 62
    7
  6
CONTINUOUS
  0
LAYER
  5
D96
330
BEB
100
AcDbSymbolTableRecord
100
AcDbLayerTableRecord
  2
Shape4265
 70
    0
 62
    7
  6
CONTINUOUS
  0
LAYER
  5
D97
330
BEB
100
AcDbSymbolTableRecord
100
AcDbLayerTableRecord
  2
Shape4266
 70
    0
 62
    7
  6
CONTINUOUS
  0
LAYER
  5
D98
330
BEB
100
AcDbSymbolTableRecord
100
AcDbLayerTableRecord
  2
Shape4267
 70
    0
 62
    7
  6
CONTINUOUS
  0
LAYER
  5
D99
330
BEB
100
AcDbSymbolTableRecord
100
AcDbLayerTableRecord
  2
Shape4268
 70
    0
 62
    7
  6
CONTINUOUS
  0
LAYER
  5
D9A
330
BEB
100
AcDbSymbolTableRecord
100
AcDbLayerTableRecord
  2
Shape4269
 70
    0
 62
    7
  6
CONTINUOUS
  0
LAYER
  5
D9B
330
BEB
100
AcDbSymbolTableRecord
100
AcDbLayerTableRecord
  2
Shape4270
 70
    0
 62
    7
  6
CONTINUOUS
  0
LAYER
  5
D9C
330
BEB
100
AcDbSymbolTableRecord
100
AcDbLayerTableRecord
  2
Shape4271
 70
    0
 62
    7
  6
CONTINUOUS
  0
LAYER
  5
D9D
330
BEB
100
AcDbSymbolTableRecord
100
AcDbLayerTableRecord
  2
Shape4272
 70
    0
 62
    7
  6
CONTINUOUS
  0
LAYER
  5
D9E
330
BEB
100
AcDbSymbolTableRecord
100
AcDbLayerTableRecord
  2
Shape4273
 70
    0
 62
    7
  6
CONTINUOUS
  0
LAYER
  5
D9F
330
BEB
100
AcDbSymbolTableRecord
100
AcDbLayerTableRecord
  2
Shape4274
 70
    0
 62
    7
  6
CONTINUOUS
  0
LAYER
  5
DA0
330
BEB
100
AcDbSymbolTableRecord
100
AcDbLayerTableRecord
  2
Shape4275
 70
    0
 62
    7
  6
CONTINUOUS
  0
LAYER
  5
DA1
330
BEB
100
AcDbSymbolTableRecord
100
AcDbLayerTableRecord
  2
Shape4276
 70
    0
 62
    7
  6
CONTINUOUS
  0
LAYER
  5
DA2
330
BEB
100
AcDbSymbolTableRecord
100
AcDbLayerTableRecord
  2
Shape4277
 70
    0
 62
    7
  6
CONTINUOUS
  0
LAYER
  5
DA3
330
BEB
100
AcDbSymbolTableRecord
100
AcDbLayerTableRecord
  2
Shape4278
 70
    0
 62
    7
  6
CONTINUOUS
  0
LAYER
  5
DA4
330
BEB
100
AcDbSymbolTableRecord
100
AcDbLayerTableRecord
  2
Shape4279
 70
    0
 62
    7
  6
CONTINUOUS
  0
LAYER
  5
DA5
330
BEB
100
AcDbSymbolTableRecord
100
AcDbLayerTableRecord
  2
Shape4280
 70
    0
 62
    7
  6
CONTINUOUS
  0
LAYER
  5
DA6
330
BEB
100
AcDbSymbolTableRecord
100
AcDbLayerTableRecord
  2
Shape4281
 70
    0
 62
    7
  6
CONTINUOUS
  0
LAYER
  5
DA7
330
BEB
100
AcDbSymbolTableRecord
100
AcDbLayerTableRecord
  2
Shape4282
 70
    0
 62
    7
  6
CONTINUOUS
  0
LAYER
  5
DA8
330
BEB
100
AcDbSymbolTableRecord
100
AcDbLayerTableRecord
  2
Shape4443
 70
    0
 62
    7
  6
CONTINUOUS
  0
LAYER
  5
DA9
330
BEB
100
AcDbSymbolTableRecord
100
AcDbLayerTableRecord
  2
Shape4444
 70
    0
 62
    7
  6
CONTINUOUS
  0
LAYER
  5
DAA
330
BEB
100
AcDbSymbolTableRecord
100
AcDbLayerTableRecord
  2
Shape4445
 70
    0
 62
    7
  6
CONTINUOUS
  0
LAYER
  5
DAB
330
BEB
100
AcDbSymbolTableRecord
100
AcDbLayerTableRecord
  2
Shape4446
 70
    0
 62
    7
  6
CONTINUOUS
  0
LAYER
  5
DAC
330
BEB
100
AcDbSymbolTableRecord
100
AcDbLayerTableRecord
  2
Shape4447
 70
    0
 62
    7
  6
CONTINUOUS
  0
LAYER
  5
DAD
330
BEB
100
AcDbSymbolTableRecord
100
AcDbLayerTableRecord
  2
Shape4448
 70
    0
 62
    7
  6
CONTINUOUS
  0
LAYER
  5
DAE
330
BEB
100
AcDbSymbolTableRecord
100
AcDbLayerTableRecord
  2
Shape4449
 70
    0
 62
    7
  6
CONTINUOUS
  0
LAYER
  5
DAF
330
BEB
100
AcDbSymbolTableRecord
100
AcDbLayerTableRecord
  2
Shape4450
 70
    0
 62
    7
  6
CONTINUOUS
  0
LAYER
  5
DB0
330
BEB
100
AcDbSymbolTableRecord
100
AcDbLayerTableRecord
  2
Shape4451
 70
    0
 62
    7
  6
CONTINUOUS
  0
LAYER
  5
DB1
330
BEB
100
AcDbSymbolTableRecord
100
AcDbLayerTableRecord
  2
Shape4452
 70
    0
 62
    7
  6
CONTINUOUS
  0
LAYER
  5
DB2
330
BEB
100
AcDbSymbolTableRecord
100
AcDbLayerTableRecord
  2
Shape4453
 70
    0
 62
    7
  6
CONTINUOUS
  0
LAYER
  5
DB3
330
BEB
100
AcDbSymbolTableRecord
100
AcDbLayerTableRecord
  2
Shape4454
 70
    0
 62
    7
  6
CONTINUOUS
  0
LAYER
  5
DB4
330
BEB
100
AcDbSymbolTableRecord
100
AcDbLayerTableRecord
  2
Shape4455
 70
    0
 62
    7
  6
CONTINUOUS
  0
LAYER
  5
DB5
330
BEB
100
AcDbSymbolTableRecord
100
AcDbLayerTableRecord
  2
Shape4456
 70
    0
 62
    7
  6
CONTINUOUS
  0
LAYER
  5
DB6
330
BEB
100
AcDbSymbolTableRecord
100
AcDbLayerTableRecord
  2
Shape4457
 70
    0
 62
    7
  6
CONTINUOUS
  0
LAYER
  5
DB7
330
BEB
100
AcDbSymbolTableRecord
100
AcDbLayerTableRecord
  2
Shape4458
 70
    0
 62
    7
  6
CONTINUOUS
  0
LAYER
  5
DB8
330
BEB
100
AcDbSymbolTableRecord
100
AcDbLayerTableRecord
  2
Shape4459
 70
    0
 62
    7
  6
CONTINUOUS
  0
LAYER
  5
DB9
330
BEB
100
AcDbSymbolTableRecord
100
AcDbLayerTableRecord
  2
Shape4460
 70
    0
 62
    7
  6
CONTINUOUS
  0
LAYER
  5
DBA
330
BEB
100
AcDbSymbolTableRecord
100
AcDbLayerTableRecord
  2
Shape4461
 70
    0
 62
    7
  6
CONTINUOUS
  0
LAYER
  5
DBB
330
BEB
100
AcDbSymbolTableRecord
100
AcDbLayerTableRecord
  2
Shape4462
 70
    0
 62
    7
  6
CONTINUOUS
  0
LAYER
  5
DBC
330
BEB
100
AcDbSymbolTableRecord
100
AcDbLayerTableRecord
  2
Shape4463
 70
    0
 62
    7
  6
CONTINUOUS
  0
LAYER
  5
DBD
330
BEB
100
AcDbSymbolTableRecord
100
AcDbLayerTableRecord
  2
Shape4464
 70
    0
 62
    7
  6
CONTINUOUS
  0
LAYER
  5
DBE
330
BEB
100
AcDbSymbolTableRecord
100
AcDbLayerTableRecord
  2
Shape4465
 70
    0
 62
    7
  6
CONTINUOUS
  0
LAYER
  5
DBF
330
BEB
100
AcDbSymbolTableRecord
100
AcDbLayerTableRecord
  2
Shape4466
 70
    0
 62
    7
  6
CONTINUOUS
  0
LAYER
  5
DC0
330
BEB
100
AcDbSymbolTableRecord
100
AcDbLayerTableRecord
  2
Shape4467
 70
    0
 62
    7
  6
CONTINUOUS
  0
LAYER
  5
DC1
330
BEB
100
AcDbSymbolTableRecord
100
AcDbLayerTableRecord
  2
Shape4468
 70
    0
 62
    7
  6
CONTINUOUS
  0
LAYER
  5
DC2
330
BEB
100
AcDbSymbolTableRecord
100
AcDbLayerTableRecord
  2
Shape4469
 70
    0
 62
    7
  6
CONTINUOUS
  0
LAYER
  5
DC3
330
BEB
100
AcDbSymbolTableRecord
100
AcDbLayerTableRecord
  2
Shape4470
 70
    0
 62
    7
  6
CONTINUOUS
  0
LAYER
  5
DC4
330
BEB
100
AcDbSymbolTableRecord
100
AcDbLayerTableRecord
  2
Shape4471
 70
    0
 62
    7
  6
CONTINUOUS
  0
LAYER
  5
DC5
330
BEB
100
AcDbSymbolTableRecord
100
AcDbLayerTableRecord
  2
Shape4472
 70
    0
 62
    7
  6
CONTINUOUS
  0
LAYER
  5
DC6
330
BEB
100
AcDbSymbolTableRecord
100
AcDbLayerTableRecord
  2
Shape4473
 70
    0
 62
    7
  6
CONTINUOUS
  0
LAYER
  5
DC7
330
BEB
100
AcDbSymbolTableRecord
100
AcDbLayerTableRecord
  2
Shape4474
 70
    0
 62
    7
  6
CONTINUOUS
  0
LAYER
  5
DC8
330
BEB
100
AcDbSymbolTableRecord
100
AcDbLayerTableRecord
  2
Shape4475
 70
    0
 62
    7
  6
CONTINUOUS
  0
LAYER
  5
DC9
330
BEB
100
AcDbSymbolTableRecord
100
AcDbLayerTableRecord
  2
Shape4476
 70
    0
 62
    7
  6
CONTINUOUS
  0
LAYER
  5
DCA
330
BEB
100
AcDbSymbolTableRecord
100
AcDbLayerTableRecord
  2
Shape4477
 70
    0
 62
    7
  6
CONTINUOUS
  0
LAYER
  5
DCB
330
BEB
100
AcDbSymbolTableRecord
100
AcDbLayerTableRecord
  2
Shape4478
 70
    0
 62
    7
  6
CONTINUOUS
  0
LAYER
  5
DCC
330
BEB
100
AcDbSymbolTableRecord
100
AcDbLayerTableRecord
  2
Shape4479
 70
    0
 62
    7
  6
CONTINUOUS
  0
LAYER
  5
DCD
330
BEB
100
AcDbSymbolTableRecord
100
AcDbLayerTableRecord
  2
Shape4480
 70
    0
 62
    7
  6
CONTINUOUS
  0
LAYER
  5
DCE
330
BEB
100
AcDbSymbolTableRecord
100
AcDbLayerTableRecord
  2
Shape4481
 70
    0
 62
    7
  6
CONTINUOUS
  0
LAYER
  5
DCF
330
BEB
100
AcDbSymbolTableRecord
100
AcDbLayerTableRecord
  2
Shape4482
 70
    0
 62
    7
  6
CONTINUOUS
  0
LAYER
  5
DD0
330
BEB
100
AcDbSymbolTableRecord
100
AcDbLayerTableRecord
  2
Shape12734
 70
    0
 62
    7
  6
CONTINUOUS
  0
ENDTAB
  0
TABLE
  2
STYLE
  5
70
330
0
100
AcDbSymbolTable
 70
     2
  0
STYLE
  5
71
330
70
100
AcDbSymbolTableRecord
100
AcDbTextStyleTableRecord
  2
STANDARD
 70
     0
 40
0.0
 41
1.0
 50
0.0
 71
     0
 42
2.5
  3
arial.ttf
  4

  0
STYLE
  5
72
330
70
100
AcDbSymbolTableRecord
100
AcDbTextStyleTableRecord
  2
ANNOTATIVE
 70
     0
 40
0.0
 41
1.0
 50
0.0
 71
     0
 42
2.5
  3
arial.ttf
  4

  0
ENDTAB
  0
TABLE
  2
VIEW
  5
73
330
0
100
AcDbSymbolTable
 70
     0
  0
ENDTAB
  0
TABLE
  2
UCS
  5
74
330
0
100
AcDbSymbolTable
 70
     0
  0
ENDTAB
  0
TABLE
  2
APPID
  5
75
330
0
100
AcDbSymbolTable
 70
     2
  0
APPID
  5
76
330
75
100
AcDbSymbolTableRecord
100
AcDbRegAppTableRecord
  2
ACAD
 70
     0
  0
APPID
  5
77
330
75
100
AcDbSymbolTableRecord
100
AcDbRegAppTableRecord
  2
ACADANNOTATIVE
 70
     0
  0
ENDTAB
  0
TABLE
  2
DIMSTYLE
  5
78
330
0
100
AcDbSymbolTable
 70
     2
  0
DIMSTYLE
105
79
330
78
100
AcDbSymbolTableRecord
100
AcDbDimStyleTableRecord
  2
STANDARD
 70
     0
  3

  4

  5

  6

  7

 40
0.0
 41
2.5
 42
0.625
 43
3.75
 44
1.25
 45
0.0
 46
0.0
 47
0.0
 48
0.0
140
2.5
141
2.5
142
0.0
143
0.03937007874016
144
1.0
145
0.0
146
1.0
147
0.625
 71
     0
 72
     0
 73
     0
 74
     0
 75
     0
 76
     0
 77
     1
 78
     8
170
     0
171
     3
172
     1
173
     0
174
     0
175
     0
176
     0
177
     0
178
     0
270
     2
271
     2
272
     2
273
     2
274
     3
340
71
275
     0
280
     0
281
     0
282
     0
283
     0
284
     8
285
     0
286
     0
287
     3
288
     0
  0
ENDTAB
  0
TABLE
  2
BLOCK_RECORD
  5
A01
330
0
100
AcDbSymbolTable
  70
5
  0
BLOCK_RECORD
  5
A02
330
A01
100
AcDbSymbolTableRecord
100
AcDbBlockTableRecord
  2
*MODEL_SPACE
  0
BLOCK_RECORD
  5
A03
330
A01
100
AcDbSymbolTableRecord
100
AcDbBlockTableRecord
  2
*PAPER_SPACE
  0
ENDTAB
  0
ENDSEC
  0
SECTION
  2
BLOCKS
  0
BLOCK
  5
A04
330
A02
100
AcDbEntity
  8
0
100
AcDbBlockBegin
  2
*MODEL_SPACE
 70
   0
 10
0
 20
0
 30
0
  3
*MODEL_SPACE
  1
 
  0
ENDBLK
  5
A05
330
A02
100
AcDbEntity
  8
0
100
AcDbBlockEnd
  0
BLOCK
  5
A06
330
A03
100
AcDbEntity
 67
1
  8
0
100
AcDbBlockBegin
  2
*PAPER_SPACE
 70
   0
 10
0
 20
0
 30
0
  3
*PAPER_SPACE
  1
 
  0
ENDBLK
  5
A07
330
A03
100
AcDbEntity
 67
    1
  8
0
100
AcDbBlockEnd
  0
ENDSEC
  0
SECTION
  2
ENTITIES
  0
LINE
  5
A08
330
A02
100
AcDbEntity
  8
Shape366
100
AcDbLine
 10
396.592
 20
-117.971
 30
0
 11
396.592
 21
-131.971
 31
0
  0
LINE
  5
A09
330
A02
100
AcDbEntity
  8
Shape367
100
AcDbLine
 10
396.592
 20
-131.971
 30
0
 11
382.592
 21
-131.971
 31
0
  0
LINE
  5
A0A
330
A02
100
AcDbEntity
  8
Shape368
100
AcDbLine
 10
382.592
 20
-131.971
 30
0
 11
382.592
 21
-117.971
 31
0
  0
LINE
  5
A0B
330
A02
100
AcDbEntity
  8
Shape369
100
AcDbLine
 10
382.592
 20
-117.971
 30
0
 11
396.592
 21
-117.971
 31
0
  0
LINE
  5
A0C
330
A02
100
AcDbEntity
  8
Shape370
100
AcDbLine
 10
375.161
 20
-117.971
 30
0
 11
375.161
 21
-131.971
 31
0
  0
LINE
  5
A0D
330
A02
100
AcDbEntity
  8
Shape371
100
AcDbLine
 10
375.161
 20
-131.971
 30
0
 11
361.161
 21
-131.971
 31
0
  0
LINE
  5
A0E
330
A02
100
AcDbEntity
  8
Shape372
100
AcDbLine
 10
361.161
 20
-131.971
 30
0
 11
361.161
 21
-117.971
 31
0
  0
LINE
  5
A0F
330
A02
100
AcDbEntity
  8
Shape373
100
AcDbLine
 10
361.161
 20
-117.971
 30
0
 11
375.161
 21
-117.971
 31
0
  0
LINE
  5
A10
330
A02
100
AcDbEntity
  8
Shape374
100
AcDbLine
 10
353.73
 20
-117.971
 30
0
 11
353.73
 21
-131.971
 31
0
  0
LINE
  5
A11
330
A02
100
AcDbEntity
  8
Shape375
100
AcDbLine
 10
353.73
 20
-131.971
 30
0
 11
339.73
 21
-131.971
 31
0
  0
LINE
  5
A12
330
A02
100
AcDbEntity
  8
Shape376
100
AcDbLine
 10
339.73
 20
-131.971
 30
0
 11
339.73
 21
-117.971
 31
0
  0
LINE
  5
A13
330
A02
100
AcDbEntity
  8
Shape377
100
AcDbLine
 10
339.73
 20
-117.971
 30
0
 11
353.73
 21
-117.971
 31
0
  0
LINE
  5
A14
330
A02
100
AcDbEntity
  8
Shape378
100
AcDbLine
 10
215.617
 20
-117.971
 30
0
 11
215.617
 21
-131.971
 31
0
  0
LINE
  5
A15
330
A02
100
AcDbEntity
  8
Shape379
100
AcDbLine
 10
215.617
 20
-131.971
 30
0
 11
201.617
 21
-131.971
 31
0
  0
LINE
  5
A16
330
A02
100
AcDbEntity
  8
Shape380
100
AcDbLine
 10
201.617
 20
-131.971
 30
0
 11
201.617
 21
-117.971
 31
0
  0
LINE
  5
A17
330
A02
100
AcDbEntity
  8
Shape381
100
AcDbLine
 10
201.617
 20
-117.971
 30
0
 11
215.617
 21
-117.971
 31
0
  0
LINE
  5
A18
330
A02
100
AcDbEntity
  8
Shape382
100
AcDbLine
 10
194.186
 20
-117.971
 30
0
 11
194.186
 21
-131.971
 31
0
  0
LINE
  5
A19
330
A02
100
AcDbEntity
  8
Shape383
100
AcDbLine
 10
194.186
 20
-131.971
 30
0
 11
180.186
 21
-131.971
 31
0
  0
LINE
  5
A1A
330
A02
100
AcDbEntity
  8
Shape384
100
AcDbLine
 10
180.186
 20
-131.971
 30
0
 11
180.186
 21
-117.971
 31
0
  0
LINE
  5
A1B
330
A02
100
AcDbEntity
  8
Shape385
100
AcDbLine
 10
180.186
 20
-117.971
 30
0
 11
194.186
 21
-117.971
 31
0
  0
LINE
  5
A1C
330
A02
100
AcDbEntity
  8
Shape386
100
AcDbLine
 10
172.755
 20
-117.971
 30
0
 11
172.755
 21
-131.971
 31
0
  0
LINE
  5
A1D
330
A02
100
AcDbEntity
  8
Shape387
100
AcDbLine
 10
172.755
 20
-131.971
 30
0
 11
158.755
 21
-131.971
 31
0
  0
LINE
  5
A1E
330
A02
100
AcDbEntity
  8
Shape388
100
AcDbLine
 10
158.755
 20
-131.971
 30
0
 11
158.755
 21
-117.971
 31
0
  0
LINE
  5
A1F
330
A02
100
AcDbEntity
  8
Shape389
100
AcDbLine
 10
158.755
 20
-117.971
 30
0
 11
172.755
 21
-117.971
 31
0
  0
LINE
  5
A20
330
A02
100
AcDbEntity
  8
Shape522
100
AcDbLine
 10
158.706
 20
-88.1387
 30
0
 11
158.706
 21
-79.7705
 31
0
  0
LINE
  5
A21
330
A02
100
AcDbEntity
  8
Shape523
100
AcDbLine
 10
158.706
 20
-79.7705
 30
0
 11
177.569
 21
-79.7705
 31
0
  0
LINE
  5
A22
330
A02
100
AcDbEntity
  8
Shape524
100
AcDbLine
 10
177.569
 20
-79.7705
 30
0
 11
177.569
 21
-93.8705
 31
0
  0
LINE
  5
A23
330
A02
100
AcDbEntity
  8
Shape525
100
AcDbLine
 10
177.569
 20
-93.8705
 30
0
 11
158.706
 21
-93.8705
 31
0
  0
LINE
  5
A24
330
A02
100
AcDbEntity
  8
Shape526
100
AcDbLine
 10
158.706
 20
-93.8705
 30
0
 11
158.706
 21
-90.0387
 31
0
  0
LINE
  5
A25
330
A02
100
AcDbEntity
  8
Shape527
100
AcDbLine
 10
158.706
 20
-90.0387
 30
0
 11
156.668
 21
-90.0387
 31
0
  0
LINE
  5
A26
330
A02
100
AcDbEntity
  8
Shape528
100
AcDbLine
 10
156.668
 20
-90.0387
 30
0
 11
156.668
 21
-88.1387
 31
0
  0
LINE
  5
A27
330
A02
100
AcDbEntity
  8
Shape529
100
AcDbLine
 10
156.668
 20
-88.1387
 30
0
 11
158.706
 21
-88.1387
 31
0
  0
LINE
  5
A28
330
A02
100
AcDbEntity
  8
Shape530
100
AcDbLine
 10
375.212
 20
-79.7705
 30
0
 11
375.212
 21
-93.8705
 31
0
  0
LINE
  5
A29
330
A02
100
AcDbEntity
  8
Shape531
100
AcDbLine
 10
375.212
 20
-93.8705
 30
0
 11
361.112
 21
-93.8705
 31
0
  0
LINE
  5
A2A
330
A02
100
AcDbEntity
  8
Shape532
100
AcDbLine
 10
361.112
 20
-93.8705
 30
0
 11
361.112
 21
-79.7705
 31
0
  0
LINE
  5
A2B
330
A02
100
AcDbEntity
  8
Shape533
100
AcDbLine
 10
361.112
 20
-79.7705
 30
0
 11
375.212
 21
-79.7705
 31
0
  0
LINE
  5
A2C
330
A02
100
AcDbEntity
  8
Shape534
100
AcDbLine
 10
342.063
 20
-79.7705
 30
0
 11
356.162
 21
-79.7705
 31
0
  0
LINE
  5
A2D
330
A02
100
AcDbEntity
  8
Shape535
100
AcDbLine
 10
356.162
 20
-79.7705
 30
0
 11
356.162
 21
-93.8705
 31
0
  0
LINE
  5
A2E
330
A02
100
AcDbEntity
  8
Shape536
100
AcDbLine
 10
356.162
 20
-93.8705
 30
0
 11
342.063
 21
-93.8705
 31
0
  0
LINE
  5
A2F
330
A02
100
AcDbEntity
  8
Shape537
100
AcDbLine
 10
342.063
 20
-93.8705
 30
0
 11
342.063
 21
-79.7705
 31
0
  0
LINE
  5
A30
330
A02
100
AcDbEntity
  8
Shape538
100
AcDbLine
 10
323.012
 20
-93.8705
 30
0
 11
323.012
 21
-79.7705
 31
0
  0
LINE
  5
A31
330
A02
100
AcDbEntity
  8
Shape539
100
AcDbLine
 10
323.012
 20
-79.7705
 30
0
 11
337.112
 21
-79.7705
 31
0
  0
LINE
  5
A32
330
A02
100
AcDbEntity
  8
Shape540
100
AcDbLine
 10
337.112
 20
-79.7705
 30
0
 11
337.112
 21
-93.8705
 31
0
  0
LINE
  5
A33
330
A02
100
AcDbEntity
  8
Shape541
100
AcDbLine
 10
337.112
 20
-93.8705
 30
0
 11
323.012
 21
-93.8705
 31
0
  0
LINE
  5
A34
330
A02
100
AcDbEntity
  8
Shape542
100
AcDbLine
 10
303.963
 20
-79.7705
 30
0
 11
318.063
 21
-79.7705
 31
0
  0
LINE
  5
A35
330
A02
100
AcDbEntity
  8
Shape543
100
AcDbLine
 10
318.063
 20
-79.7705
 30
0
 11
318.063
 21
-93.8705
 31
0
  0
LINE
  5
A36
330
A02
100
AcDbEntity
  8
Shape544
100
AcDbLine
 10
318.063
 20
-93.8705
 30
0
 11
303.963
 21
-93.8705
 31
0
  0
LINE
  5
A37
330
A02
100
AcDbEntity
  8
Shape545
100
AcDbLine
 10
303.963
 20
-93.8705
 30
0
 11
303.963
 21
-79.7705
 31
0
  0
LINE
  5
A38
330
A02
100
AcDbEntity
  8
Shape546
100
AcDbLine
 10
284.912
 20
-93.8705
 30
0
 11
284.912
 21
-79.7705
 31
0
  0
LINE
  5
A39
330
A02
100
AcDbEntity
  8
Shape547
100
AcDbLine
 10
284.912
 20
-79.7705
 30
0
 11
299.012
 21
-79.7705
 31
0
  0
LINE
  5
A3A
330
A02
100
AcDbEntity
  8
Shape548
100
AcDbLine
 10
299.012
 20
-79.7705
 30
0
 11
299.012
 21
-93.8705
 31
0
  0
LINE
  5
A3B
330
A02
100
AcDbEntity
  8
Shape549
100
AcDbLine
 10
299.012
 20
-93.8705
 30
0
 11
284.912
 21
-93.8705
 31
0
  0
LINE
  5
A3C
330
A02
100
AcDbEntity
  8
Shape550
100
AcDbLine
 10
265.862
 20
-93.8705
 30
0
 11
265.862
 21
-79.7705
 31
0
  0
LINE
  5
A3D
330
A02
100
AcDbEntity
  8
Shape551
100
AcDbLine
 10
265.862
 20
-79.7705
 30
0
 11
279.963
 21
-79.7705
 31
0
  0
LINE
  5
A3E
330
A02
100
AcDbEntity
  8
Shape552
100
AcDbLine
 10
279.963
 20
-79.7705
 30
0
 11
279.963
 21
-93.8705
 31
0
  0
LINE
  5
A3F
330
A02
100
AcDbEntity
  8
Shape553
100
AcDbLine
 10
279.963
 20
-93.8705
 30
0
 11
265.862
 21
-93.8705
 31
0
  0
LINE
  5
A40
330
A02
100
AcDbEntity
  8
Shape554
100
AcDbLine
 10
246.812
 20
-79.7705
 30
0
 11
260.912
 21
-79.7705
 31
0
  0
LINE
  5
A41
330
A02
100
AcDbEntity
  8
Shape555
100
AcDbLine
 10
260.912
 20
-79.7705
 30
0
 11
260.912
 21
-93.8705
 31
0
  0
LINE
  5
A42
330
A02
100
AcDbEntity
  8
Shape556
100
AcDbLine
 10
260.912
 20
-93.8705
 30
0
 11
246.812
 21
-93.8705
 31
0
  0
LINE
  5
A43
330
A02
100
AcDbEntity
  8
Shape557
100
AcDbLine
 10
246.812
 20
-93.8705
 30
0
 11
246.812
 21
-79.7705
 31
0
  0
LINE
  5
A44
330
A02
100
AcDbEntity
  8
Shape558
100
AcDbLine
 10
227.762
 20
-93.8705
 30
0
 11
227.762
 21
-79.7705
 31
0
  0
LINE
  5
A45
330
A02
100
AcDbEntity
  8
Shape559
100
AcDbLine
 10
227.762
 20
-79.7705
 30
0
 11
241.862
 21
-79.7705
 31
0
  0
LINE
  5
A46
330
A02
100
AcDbEntity
  8
Shape560
100
AcDbLine
 10
241.862
 20
-79.7705
 30
0
 11
241.862
 21
-93.8705
 31
0
  0
LINE
  5
A47
330
A02
100
AcDbEntity
  8
Shape561
100
AcDbLine
 10
241.862
 20
-93.8705
 30
0
 11
227.762
 21
-93.8705
 31
0
  0
LINE
  5
A48
330
A02
100
AcDbEntity
  8
Shape562
100
AcDbLine
 10
208.712
 20
-93.8705
 30
0
 11
208.712
 21
-79.7705
 31
0
  0
LINE
  5
A49
330
A02
100
AcDbEntity
  8
Shape563
100
AcDbLine
 10
208.712
 20
-79.7705
 30
0
 11
222.812
 21
-79.7705
 31
0
  0
LINE
  5
A4A
330
A02
100
AcDbEntity
  8
Shape564
100
AcDbLine
 10
222.812
 20
-79.7705
 30
0
 11
222.812
 21
-93.8705
 31
0
  0
LINE
  5
A4B
330
A02
100
AcDbEntity
  8
Shape565
100
AcDbLine
 10
222.812
 20
-93.8705
 30
0
 11
208.712
 21
-93.8705
 31
0
  0
LINE
  5
A4C
330
A02
100
AcDbEntity
  8
Shape566
100
AcDbLine
 10
189.662
 20
-93.8705
 30
0
 11
189.662
 21
-79.7705
 31
0
  0
LINE
  5
A4D
330
A02
100
AcDbEntity
  8
Shape567
100
AcDbLine
 10
189.662
 20
-79.7705
 30
0
 11
203.762
 21
-79.7705
 31
0
  0
LINE
  5
A4E
330
A02
100
AcDbEntity
  8
Shape568
100
AcDbLine
 10
203.762
 20
-79.7705
 30
0
 11
203.762
 21
-93.8705
 31
0
  0
LINE
  5
A4F
330
A02
100
AcDbEntity
  8
Shape569
100
AcDbLine
 10
203.762
 20
-93.8705
 30
0
 11
189.662
 21
-93.8705
 31
0
  0
LINE
  5
A50
330
A02
100
AcDbEntity
  8
Shape570
100
AcDbLine
 10
161.087
 20
-60.7205
 30
0
 11
175.187
 21
-60.7205
 31
0
  0
LINE
  5
A51
330
A02
100
AcDbEntity
  8
Shape571
100
AcDbLine
 10
175.187
 20
-60.7205
 30
0
 11
175.187
 21
-74.8205
 31
0
  0
LINE
  5
A52
330
A02
100
AcDbEntity
  8
Shape572
100
AcDbLine
 10
175.187
 20
-74.8205
 30
0
 11
161.087
 21
-74.8205
 31
0
  0
LINE
  5
A53
330
A02
100
AcDbEntity
  8
Shape573
100
AcDbLine
 10
161.087
 20
-74.8205
 30
0
 11
161.087
 21
-60.7205
 31
0
  0
LINE
  5
A54
330
A02
100
AcDbEntity
  8
Shape574
100
AcDbLine
 10
184.9
 20
-60.7205
 30
0
 11
199
 21
-60.7205
 31
0
  0
LINE
  5
A55
330
A02
100
AcDbEntity
  8
Shape575
100
AcDbLine
 10
199
 20
-60.7205
 30
0
 11
199
 21
-74.8205
 31
0
  0
LINE
  5
A56
330
A02
100
AcDbEntity
  8
Shape576
100
AcDbLine
 10
199
 20
-74.8205
 30
0
 11
184.9
 21
-74.8205
 31
0
  0
LINE
  5
A57
330
A02
100
AcDbEntity
  8
Shape577
100
AcDbLine
 10
184.9
 20
-74.8205
 30
0
 11
184.9
 21
-60.7205
 31
0
  0
LINE
  5
A58
330
A02
100
AcDbEntity
  8
Shape578
100
AcDbLine
 10
203.95
 20
-60.7205
 30
0
 11
218.05
 21
-60.7205
 31
0
  0
LINE
  5
A59
330
A02
100
AcDbEntity
  8
Shape579
100
AcDbLine
 10
218.05
 20
-60.7205
 30
0
 11
218.05
 21
-74.8205
 31
0
  0
LINE
  5
A5A
330
A02
100
AcDbEntity
  8
Shape580
100
AcDbLine
 10
218.05
 20
-74.8205
 30
0
 11
203.95
 21
-74.8205
 31
0
  0
LINE
  5
A5B
330
A02
100
AcDbEntity
  8
Shape581
100
AcDbLine
 10
203.95
 20
-74.8205
 30
0
 11
203.95
 21
-60.7205
 31
0
  0
LINE
  5
A5C
330
A02
100
AcDbEntity
  8
Shape582
100
AcDbLine
 10
242.05
 20
-60.7205
 30
0
 11
256.15
 21
-60.7205
 31
0
  0
LINE
  5
A5D
330
A02
100
AcDbEntity
  8
Shape583
100
AcDbLine
 10
256.15
 20
-60.7205
 30
0
 11
256.15
 21
-74.8205
 31
0
  0
LINE
  5
A5E
330
A02
100
AcDbEntity
  8
Shape584
100
AcDbLine
 10
256.15
 20
-74.8205
 30
0
 11
242.05
 21
-74.8205
 31
0
  0
LINE
  5
A5F
330
A02
100
AcDbEntity
  8
Shape585
100
AcDbLine
 10
242.05
 20
-74.8205
 30
0
 11
242.05
 21
-60.7205
 31
0
  0
LINE
  5
A60
330
A02
100
AcDbEntity
  8
Shape586
100
AcDbLine
 10
261.1
 20
-60.7205
 30
0
 11
275.2
 21
-60.7205
 31
0
  0
LINE
  5
A61
330
A02
100
AcDbEntity
  8
Shape587
100
AcDbLine
 10
275.2
 20
-60.7205
 30
0
 11
275.2
 21
-74.8205
 31
0
  0
LINE
  5
A62
330
A02
100
AcDbEntity
  8
Shape588
100
AcDbLine
 10
275.2
 20
-74.8205
 30
0
 11
261.1
 21
-74.8205
 31
0
  0
LINE
  5
A63
330
A02
100
AcDbEntity
  8
Shape589
100
AcDbLine
 10
261.1
 20
-74.8205
 30
0
 11
261.1
 21
-60.7205
 31
0
  0
LINE
  5
A64
330
A02
100
AcDbEntity
  8
Shape590
100
AcDbLine
 10
280.15
 20
-60.7205
 30
0
 11
294.25
 21
-60.7205
 31
0
  0
LINE
  5
A65
330
A02
100
AcDbEntity
  8
Shape591
100
AcDbLine
 10
294.25
 20
-60.7205
 30
0
 11
294.25
 21
-74.8205
 31
0
  0
LINE
  5
A66
330
A02
100
AcDbEntity
  8
Shape592
100
AcDbLine
 10
294.25
 20
-74.8205
 30
0
 11
280.15
 21
-74.8205
 31
0
  0
LINE
  5
A67
330
A02
100
AcDbEntity
  8
Shape593
100
AcDbLine
 10
280.15
 20
-74.8205
 30
0
 11
280.15
 21
-60.7205
 31
0
  0
LINE
  5
A68
330
A02
100
AcDbEntity
  8
Shape594
100
AcDbLine
 10
299.2
 20
-60.7205
 30
0
 11
313.3
 21
-60.7205
 31
0
  0
LINE
  5
A69
330
A02
100
AcDbEntity
  8
Shape595
100
AcDbLine
 10
313.3
 20
-60.7205
 30
0
 11
313.3
 21
-74.8205
 31
0
  0
LINE
  5
A6A
330
A02
100
AcDbEntity
  8
Shape596
100
AcDbLine
 10
313.3
 20
-74.8205
 30
0
 11
299.2
 21
-74.8205
 31
0
  0
LINE
  5
A6B
330
A02
100
AcDbEntity
  8
Shape597
100
AcDbLine
 10
299.2
 20
-74.8205
 30
0
 11
299.2
 21
-60.7205
 31
0
  0
LINE
  5
A6C
330
A02
100
AcDbEntity
  8
Shape598
100
AcDbLine
 10
318.25
 20
-60.7205
 30
0
 11
332.35
 21
-60.7205
 31
0
  0
LINE
  5
A6D
330
A02
100
AcDbEntity
  8
Shape599
100
AcDbLine
 10
332.35
 20
-60.7205
 30
0
 11
332.35
 21
-74.8205
 31
0
  0
LINE
  5
A6E
330
A02
100
AcDbEntity
  8
Shape600
100
AcDbLine
 10
332.35
 20
-74.8205
 30
0
 11
318.25
 21
-74.8205
 31
0
  0
LINE
  5
A6F
330
A02
100
AcDbEntity
  8
Shape601
100
AcDbLine
 10
318.25
 20
-74.8205
 30
0
 11
318.25
 21
-60.7205
 31
0
  0
LINE
  5
A70
330
A02
100
AcDbEntity
  8
Shape602
100
AcDbLine
 10
337.3
 20
-60.7205
 30
0
 11
351.4
 21
-60.7205
 31
0
  0
LINE
  5
A71
330
A02
100
AcDbEntity
  8
Shape603
100
AcDbLine
 10
351.4
 20
-60.7205
 30
0
 11
351.4
 21
-74.8205
 31
0
  0
LINE
  5
A72
330
A02
100
AcDbEntity
  8
Shape604
100
AcDbLine
 10
351.4
 20
-74.8205
 30
0
 11
337.3
 21
-74.8205
 31
0
  0
LINE
  5
A73
330
A02
100
AcDbEntity
  8
Shape605
100
AcDbLine
 10
337.3
 20
-74.8205
 30
0
 11
337.3
 21
-60.7205
 31
0
  0
LINE
  5
A74
330
A02
100
AcDbEntity
  8
Shape606
100
AcDbLine
 10
356.35
 20
-60.7205
 30
0
 11
370.45
 21
-60.7205
 31
0
  0
LINE
  5
A75
330
A02
100
AcDbEntity
  8
Shape607
100
AcDbLine
 10
370.45
 20
-60.7205
 30
0
 11
370.45
 21
-74.8205
 31
0
  0
LINE
  5
A76
330
A02
100
AcDbEntity
  8
Shape608
100
AcDbLine
 10
370.45
 20
-74.8205
 30
0
 11
356.35
 21
-74.8205
 31
0
  0
LINE
  5
A77
330
A02
100
AcDbEntity
  8
Shape609
100
AcDbLine
 10
356.35
 20
-74.8205
 30
0
 11
356.35
 21
-60.7205
 31
0
  0
LINE
  5
A78
330
A02
100
AcDbEntity
  8
Shape610
100
AcDbLine
 10
199.187
 20
-98.8205
 30
0
 11
213.287
 21
-98.8205
 31
0
  0
LINE
  5
A79
330
A02
100
AcDbEntity
  8
Shape611
100
AcDbLine
 10
213.287
 20
-98.8205
 30
0
 11
213.287
 21
-112.921
 31
0
  0
LINE
  5
A7A
330
A02
100
AcDbEntity
  8
Shape612
100
AcDbLine
 10
213.287
 20
-112.921
 30
0
 11
199.187
 21
-112.921
 31
0
  0
LINE
  5
A7B
330
A02
100
AcDbEntity
  8
Shape613
100
AcDbLine
 10
199.187
 20
-112.921
 30
0
 11
199.187
 21
-98.8205
 31
0
  0
LINE
  5
A7C
330
A02
100
AcDbEntity
  8
Shape614
100
AcDbLine
 10
218.237
 20
-98.8205
 30
0
 11
232.337
 21
-98.8205
 31
0
  0
LINE
  5
A7D
330
A02
100
AcDbEntity
  8
Shape615
100
AcDbLine
 10
232.337
 20
-98.8205
 30
0
 11
232.337
 21
-112.921
 31
0
  0
LINE
  5
A7E
330
A02
100
AcDbEntity
  8
Shape616
100
AcDbLine
 10
232.337
 20
-112.921
 30
0
 11
218.237
 21
-112.921
 31
0
  0
LINE
  5
A7F
330
A02
100
AcDbEntity
  8
Shape617
100
AcDbLine
 10
218.237
 20
-112.921
 30
0
 11
218.237
 21
-98.8205
 31
0
  0
LINE
  5
A80
330
A02
100
AcDbEntity
  8
Shape618
100
AcDbLine
 10
237.287
 20
-98.8205
 30
0
 11
251.387
 21
-98.8205
 31
0
  0
LINE
  5
A81
330
A02
100
AcDbEntity
  8
Shape619
100
AcDbLine
 10
251.387
 20
-98.8205
 30
0
 11
251.387
 21
-112.921
 31
0
  0
LINE
  5
A82
330
A02
100
AcDbEntity
  8
Shape620
100
AcDbLine
 10
251.387
 20
-112.921
 30
0
 11
237.287
 21
-112.921
 31
0
  0
LINE
  5
A83
330
A02
100
AcDbEntity
  8
Shape621
100
AcDbLine
 10
237.287
 20
-112.921
 30
0
 11
237.287
 21
-98.8205
 31
0
  0
LINE
  5
A84
330
A02
100
AcDbEntity
  8
Shape622
100
AcDbLine
 10
256.337
 20
-98.8205
 30
0
 11
270.437
 21
-98.8205
 31
0
  0
LINE
  5
A85
330
A02
100
AcDbEntity
  8
Shape623
100
AcDbLine
 10
270.437
 20
-98.8205
 30
0
 11
270.437
 21
-112.921
 31
0
  0
LINE
  5
A86
330
A02
100
AcDbEntity
  8
Shape624
100
AcDbLine
 10
270.437
 20
-112.921
 30
0
 11
256.337
 21
-112.921
 31
0
  0
LINE
  5
A87
330
A02
100
AcDbEntity
  8
Shape625
100
AcDbLine
 10
256.337
 20
-112.921
 30
0
 11
256.337
 21
-98.8205
 31
0
  0
LINE
  5
A88
330
A02
100
AcDbEntity
  8
Shape626
100
AcDbLine
 10
275.387
 20
-98.8205
 30
0
 11
289.487
 21
-98.8205
 31
0
  0
LINE
  5
A89
330
A02
100
AcDbEntity
  8
Shape627
100
AcDbLine
 10
289.487
 20
-98.8205
 30
0
 11
289.487
 21
-112.921
 31
0
  0
LINE
  5
A8A
330
A02
100
AcDbEntity
  8
Shape628
100
AcDbLine
 10
289.487
 20
-112.921
 30
0
 11
275.387
 21
-112.921
 31
0
  0
LINE
  5
A8B
330
A02
100
AcDbEntity
  8
Shape629
100
AcDbLine
 10
275.387
 20
-112.921
 30
0
 11
275.387
 21
-98.8205
 31
0
  0
LINE
  5
A8C
330
A02
100
AcDbEntity
  8
Shape630
100
AcDbLine
 10
294.437
 20
-98.8205
 30
0
 11
308.537
 21
-98.8205
 31
0
  0
LINE
  5
A8D
330
A02
100
AcDbEntity
  8
Shape631
100
AcDbLine
 10
308.537
 20
-98.8205
 30
0
 11
308.537
 21
-112.921
 31
0
  0
LINE
  5
A8E
330
A02
100
AcDbEntity
  8
Shape632
100
AcDbLine
 10
308.537
 20
-112.921
 30
0
 11
294.437
 21
-112.921
 31
0
  0
LINE
  5
A8F
330
A02
100
AcDbEntity
  8
Shape633
100
AcDbLine
 10
294.437
 20
-112.921
 30
0
 11
294.437
 21
-98.8205
 31
0
  0
LINE
  5
A90
330
A02
100
AcDbEntity
  8
Shape634
100
AcDbLine
 10
313.487
 20
-98.8205
 30
0
 11
327.587
 21
-98.8205
 31
0
  0
LINE
  5
A91
330
A02
100
AcDbEntity
  8
Shape635
100
AcDbLine
 10
327.587
 20
-98.8205
 30
0
 11
327.587
 21
-112.921
 31
0
  0
LINE
  5
A92
330
A02
100
AcDbEntity
  8
Shape636
100
AcDbLine
 10
327.587
 20
-112.921
 30
0
 11
313.487
 21
-112.921
 31
0
  0
LINE
  5
A93
330
A02
100
AcDbEntity
  8
Shape637
100
AcDbLine
 10
313.487
 20
-112.921
 30
0
 11
313.487
 21
-98.8205
 31
0
  0
LINE
  5
A94
330
A02
100
AcDbEntity
  8
Shape638
100
AcDbLine
 10
332.537
 20
-98.8205
 30
0
 11
346.637
 21
-98.8205
 31
0
  0
LINE
  5
A95
330
A02
100
AcDbEntity
  8
Shape639
100
AcDbLine
 10
346.637
 20
-98.8205
 30
0
 11
346.637
 21
-112.921
 31
0
  0
LINE
  5
A96
330
A02
100
AcDbEntity
  8
Shape640
100
AcDbLine
 10
346.637
 20
-112.921
 30
0
 11
332.537
 21
-112.921
 31
0
  0
LINE
  5
A97
330
A02
100
AcDbEntity
  8
Shape641
100
AcDbLine
 10
332.537
 20
-112.921
 30
0
 11
332.537
 21
-98.8205
 31
0
  0
LINE
  5
A98
330
A02
100
AcDbEntity
  8
Shape642
100
AcDbLine
 10
351.587
 20
-98.8205
 30
0
 11
365.687
 21
-98.8205
 31
0
  0
LINE
  5
A99
330
A02
100
AcDbEntity
  8
Shape643
100
AcDbLine
 10
365.687
 20
-98.8205
 30
0
 11
365.687
 21
-112.921
 31
0
  0
LINE
  5
A9A
330
A02
100
AcDbEntity
  8
Shape644
100
AcDbLine
 10
365.687
 20
-112.921
 30
0
 11
351.587
 21
-112.921
 31
0
  0
LINE
  5
A9B
330
A02
100
AcDbEntity
  8
Shape645
100
AcDbLine
 10
351.587
 20
-112.921
 30
0
 11
351.587
 21
-98.8205
 31
0
  0
LINE
  5
A9C
330
A02
100
AcDbEntity
  8
Shape646
100
AcDbLine
 10
377.781
 20
-98.8205
 30
0
 11
391.881
 21
-98.8205
 31
0
  0
LINE
  5
A9D
330
A02
100
AcDbEntity
  8
Shape647
100
AcDbLine
 10
391.881
 20
-98.8205
 30
0
 11
391.881
 21
-112.921
 31
0
  0
LINE
  5
A9E
330
A02
100
AcDbEntity
  8
Shape648
100
AcDbLine
 10
391.881
 20
-112.921
 30
0
 11
377.781
 21
-112.921
 31
0
  0
LINE
  5
A9F
330
A02
100
AcDbEntity
  8
Shape649
100
AcDbLine
 10
377.781
 20
-112.921
 30
0
 11
377.781
 21
-98.8205
 31
0
  0
LINE
  5
AA0
330
A02
100
AcDbEntity
  8
Shape650
100
AcDbLine
 10
223
 20
-60.7205
 30
0
 11
237.1
 21
-60.7205
 31
0
  0
LINE
  5
AA1
330
A02
100
AcDbEntity
  8
Shape651
100
AcDbLine
 10
237.1
 20
-60.7205
 30
0
 11
237.1
 21
-74.8205
 31
0
  0
LINE
  5
AA2
330
A02
100
AcDbEntity
  8
Shape652
100
AcDbLine
 10
237.1
 20
-74.8205
 30
0
 11
223
 21
-74.8205
 31
0
  0
LINE
  5
AA3
330
A02
100
AcDbEntity
  8
Shape653
100
AcDbLine
 10
223
 20
-74.8205
 30
0
 11
223
 21
-60.7205
 31
0
  0
ARC
  5
AA4
330
A02
100
AcDbEntity
  8
Shape2372
100
AcDbCircle
 10
298.675
 20
-55.8964
 30
0
 40
1
100
AcDbArc
 50
-90
 51
0
  0
LINE
  5
AA5
330
A02
100
AcDbEntity
  8
Shape2373
100
AcDbLine
 10
298.675
 20
-56.8964
 30
0
 11
288.175
 21
-56.8964
 31
0
  0
ARC
  5
AA6
330
A02
100
AcDbEntity
  8
Shape2374
100
AcDbCircle
 10
288.175
 20
-57.3964
 30
0
 40
0.5
100
AcDbArc
 50
90
 51
180
  0
LINE
  5
AA7
330
A02
100
AcDbEntity
  8
Shape2375
100
AcDbLine
 10
287.675
 20
-57.3964
 30
0
 11
287.675
 21
-57.6455
 31
0
  0
ARC
  5
AA8
330
A02
100
AcDbEntity
  8
Shape2376
100
AcDbCircle
 10
288.175
 20
-57.6455
 30
0
 40
0.5
100
AcDbArc
 50
180
 51
-90
  0
LINE
  5
AA9
330
A02
100
AcDbEntity
  8
Shape2377
100
AcDbLine
 10
288.175
 20
-58.1455
 30
0
 11
357.175
 21
-58.1455
 31
0
  0
ARC
  5
AAA
330
A02
100
AcDbEntity
  8
Shape2378
100
AcDbCircle
 10
357.175
 20
-57.6455
 30
0
 40
0.5
100
AcDbArc
 50
-90
 51
0
  0
LINE
  5
AAB
330
A02
100
AcDbEntity
  8
Shape2379
100
AcDbLine
 10
357.675
 20
-57.6455
 30
0
 11
357.675
 21
-57.3964
 31
0
  0
ARC
  5
AAC
330
A02
100
AcDbEntity
  8
Shape2380
100
AcDbCircle
 10
357.175
 20
-57.3964
 30
0
 40
0.5
100
AcDbArc
 50
0
 51
90
  0
LINE
  5
AAD
330
A02
100
AcDbEntity
  8
Shape2381
100
AcDbLine
 10
357.175
 20
-56.8964
 30
0
 11
346.675
 21
-56.8964
 31
0
  0
ARC
  5
AAE
330
A02
100
AcDbEntity
  8
Shape2382
100
AcDbCircle
 10
346.675
 20
-55.8964
 30
0
 40
1
100
AcDbArc
 50
180
 51
-90
  0
LINE
  5
AAF
330
A02
100
AcDbEntity
  8
Shape2383
100
AcDbLine
 10
345.675
 20
-55.8964
 30
0
 11
345.675
 21
-54.3964
 31
0
  0
ARC
  5
AB0
330
A02
100
AcDbEntity
  8
Shape2384
100
AcDbCircle
 10
346.675
 20
-54.3964
 30
0
 40
1
100
AcDbArc
 50
90
 51
180
  0
LINE
  5
AB1
330
A02
100
AcDbEntity
  8
Shape2385
100
AcDbLine
 10
346.675
 20
-53.3964
 30
0
 11
364.675
 21
-53.3964
 31
0
  0
LINE
  5
AB2
330
A02
100
AcDbEntity
  8
Shape2386
100
AcDbLine
 10
364.675
 20
-53.3964
 30
0
 11
364.675
 21
-58.6464
 31
0
  0
ARC
  5
AB3
330
A02
100
AcDbEntity
  8
Shape2387
100
AcDbCircle
 10
365.175
 20
-58.6464
 30
0
 40
0.5
100
AcDbArc
 50
180
 51
0
  0
LINE
  5
AB4
330
A02
100
AcDbEntity
  8
Shape2388
100
AcDbLine
 10
365.675
 20
-58.6464
 30
0
 11
365.675
 21
-54.6464
 31
0
  0
ARC
  5
AB5
330
A02
100
AcDbEntity
  8
Shape2389
100
AcDbCircle
 10
367.675
 20
-54.6464
 30
0
 40
2
100
AcDbArc
 50
0
 51
180
  0
LINE
  5
AB6
330
A02
100
AcDbEntity
  8
Shape2390
100
AcDbLine
 10
369.675
 20
-54.6464
 30
0
 11
369.675
 21
-58.6464
 31
0
  0
ARC
  5
AB7
330
A02
100
AcDbEntity
  8
Shape2391
100
AcDbCircle
 10
370.175
 20
-58.6464
 30
0
 40
0.5
100
AcDbArc
 50
180
 51
0
  0
LINE
  5
AB8
330
A02
100
AcDbEntity
  8
Shape2392
100
AcDbLine
 10
370.675
 20
-58.6464
 30
0
 11
370.675
 21
-53.3964
 31
0
  0
LINE
  5
AB9
330
A02
100
AcDbEntity
  8
Shape2393
100
AcDbLine
 10
370.675
 20
-53.3964
 30
0
 11
388.675
 21
-53.3964
 31
0
  0
ARC
  5
ABA
330
A02
100
AcDbEntity
  8
Shape2394
100
AcDbCircle
 10
388.675
 20
-54.3964
 30
0
 40
1
100
AcDbArc
 50
0
 51
90
  0
LINE
  5
ABB
330
A02
100
AcDbEntity
  8
Shape2395
100
AcDbLine
 10
389.675
 20
-54.3964
 30
0
 11
389.675
 21
-55.8964
 31
0
  0
ARC
  5
ABC
330
A02
100
AcDbEntity
  8
Shape2396
100
AcDbCircle
 10
388.675
 20
-55.8964
 30
0
 40
1
100
AcDbArc
 50
-90
 51
0
  0
LINE
  5
ABD
330
A02
100
AcDbEntity
  8
Shape2397
100
AcDbLine
 10
388.675
 20
-56.8964
 30
0
 11
378.175
 21
-56.8964
 31
0
  0
ARC
  5
ABE
330
A02
100
AcDbEntity
  8
Shape2398
100
AcDbCircle
 10
378.175
 20
-57.3964
 30
0
 40
0.5
100
AcDbArc
 50
90
 51
180
  0
LINE
  5
ABF
330
A02
100
AcDbEntity
  8
Shape2399
100
AcDbLine
 10
377.675
 20
-57.3964
 30
0
 11
377.675
 21
-57.6455
 31
0
  0
ARC
  5
AC0
330
A02
100
AcDbEntity
  8
Shape2400
100
AcDbCircle
 10
378.175
 20
-57.6455
 30
0
 40
0.5
100
AcDbArc
 50
180
 51
-90
  0
LINE
  5
AC1
330
A02
100
AcDbEntity
  8
Shape2401
100
AcDbLine
 10
378.175
 20
-58.1455
 30
0
 11
399.5
 21
-58.1455
 31
0
  0
ARC
  5
AC2
330
A02
100
AcDbEntity
  8
Shape2402
100
AcDbCircle
 10
399.5
 20
-60.1455
 30
0
 40
2
100
AcDbArc
 50
0
 51
90
  0
LINE
  5
AC3
330
A02
100
AcDbEntity
  8
Shape2403
100
AcDbLine
 10
401.5
 20
-60.1455
 30
0
 11
401.5
 21
-132.546
 31
0
  0
ARC
  5
AC4
330
A02
100
AcDbEntity
  8
Shape2404
100
AcDbCircle
 10
399.5
 20
-132.546
 30
0
 40
2
100
AcDbArc
 50
-90
 51
0
  0
LINE
  5
AC5
330
A02
100
AcDbEntity
  8
Shape2405
100
AcDbLine
 10
399.5
 20
-134.546
 30
0
 11
378.175
 21
-134.546
 31
0
  0
ARC
  5
AC6
330
A02
100
AcDbEntity
  8
Shape2406
100
AcDbCircle
 10
378.175
 20
-135.046
 30
0
 40
0.5
100
AcDbArc
 50
90
 51
180
  0
LINE
  5
AC7
330
A02
100
AcDbEntity
  8
Shape2407
100
AcDbLine
 10
377.675
 20
-135.046
 30
0
 11
377.675
 21
-135.295
 31
0
  0
ARC
  5
AC8
330
A02
100
AcDbEntity
  8
Shape2408
100
AcDbCircle
 10
378.175
 20
-135.295
 30
0
 40
0.5
100
AcDbArc
 50
180
 51
-90
  0
LINE
  5
AC9
330
A02
100
AcDbEntity
  8
Shape2409
100
AcDbLine
 10
378.175
 20
-135.795
 30
0
 11
388.675
 21
-135.795
 31
0
  0
ARC
  5
ACA
330
A02
100
AcDbEntity
  8
Shape2410
100
AcDbCircle
 10
388.675
 20
-136.795
 30
0
 40
1
100
AcDbArc
 50
0
 51
90
  0
LINE
  5
ACB
330
A02
100
AcDbEntity
  8
Shape2411
100
AcDbLine
 10
389.675
 20
-136.795
 30
0
 11
389.675
 21
-138.295
 31
0
  0
ARC
  5
ACC
330
A02
100
AcDbEntity
  8
Shape2412
100
AcDbCircle
 10
388.675
 20
-138.295
 30
0
 40
1
100
AcDbArc
 50
-90
 51
0
  0
LINE
  5
ACD
330
A02
100
AcDbEntity
  8
Shape2413
100
AcDbLine
 10
388.675
 20
-139.295
 30
0
 11
370.675
 21
-139.295
 31
0
  0
LINE
  5
ACE
330
A02
100
AcDbEntity
  8
Shape2414
100
AcDbLine
 10
370.675
 20
-139.295
 30
0
 11
370.675
 21
-134.045
 31
0
  0
ARC
  5
ACF
330
A02
100
AcDbEntity
  8
Shape2415
100
AcDbCircle
 10
370.175
 20
-134.045
 30
0
 40
0.5
100
AcDbArc
 50
0
 51
180
  0
LINE
  5
AD0
330
A02
100
AcDbEntity
  8
Shape2416
100
AcDbLine
 10
369.675
 20
-134.045
 30
0
 11
369.675
 21
-138.045
 31
0
  0
ARC
  5
AD1
330
A02
100
AcDbEntity
  8
Shape2417
100
AcDbCircle
 10
367.675
 20
-138.045
 30
0
 40
2
100
AcDbArc
 50
180
 51
0
  0
LINE
  5
AD2
330
A02
100
AcDbEntity
  8
Shape2418
100
AcDbLine
 10
365.675
 20
-138.045
 30
0
 11
365.675
 21
-134.045
 31
0
  0
ARC
  5
AD3
330
A02
100
AcDbEntity
  8
Shape2419
100
AcDbCircle
 10
365.175
 20
-134.045
 30
0
 40
0.5
100
AcDbArc
 50
0
 51
180
  0
LINE
  5
AD4
330
A02
100
AcDbEntity
  8
Shape2420
100
AcDbLine
 10
364.675
 20
-134.045
 30
0
 11
364.675
 21
-139.295
 31
0
  0
LINE
  5
AD5
330
A02
100
AcDbEntity
  8
Shape2421
100
AcDbLine
 10
364.675
 20
-139.295
 30
0
 11
346.675
 21
-139.295
 31
0
  0
ARC
  5
AD6
330
A02
100
AcDbEntity
  8
Shape2422
100
AcDbCircle
 10
346.675
 20
-138.295
 30
0
 40
1
100
AcDbArc
 50
180
 51
-90
  0
LINE
  5
AD7
330
A02
100
AcDbEntity
  8
Shape2423
100
AcDbLine
 10
345.675
 20
-138.295
 30
0
 11
345.675
 21
-136.795
 31
0
  0
ARC
  5
AD8
330
A02
100
AcDbEntity
  8
Shape2424
100
AcDbCircle
 10
346.675
 20
-136.795
 30
0
 40
1
100
AcDbArc
 50
90
 51
180
  0
LINE
  5
AD9
330
A02
100
AcDbEntity
  8
Shape2425
100
AcDbLine
 10
346.675
 20
-135.795
 30
0
 11
357.175
 21
-135.795
 31
0
  0
ARC
  5
ADA
330
A02
100
AcDbEntity
  8
Shape2426
100
AcDbCircle
 10
357.175
 20
-135.295
 30
0
 40
0.5
100
AcDbArc
 50
-90
 51
0
  0
LINE
  5
ADB
330
A02
100
AcDbEntity
  8
Shape2427
100
AcDbLine
 10
357.675
 20
-135.295
 30
0
 11
357.675
 21
-135.046
 31
0
  0
ARC
  5
ADC
330
A02
100
AcDbEntity
  8
Shape2428
100
AcDbCircle
 10
357.175
 20
-135.046
 30
0
 40
0.5
100
AcDbArc
 50
0
 51
90
  0
LINE
  5
ADD
330
A02
100
AcDbEntity
  8
Shape2429
100
AcDbLine
 10
357.175
 20
-134.546
 30
0
 11
288.175
 21
-134.546
 31
0
  0
ARC
  5
ADE
330
A02
100
AcDbEntity
  8
Shape2430
100
AcDbCircle
 10
288.175
 20
-135.046
 30
0
 40
0.5
100
AcDbArc
 50
90
 51
180
  0
LINE
  5
ADF
330
A02
100
AcDbEntity
  8
Shape2431
100
AcDbLine
 10
287.675
 20
-135.046
 30
0
 11
287.675
 21
-135.295
 31
0
  0
ARC
  5
AE0
330
A02
100
AcDbEntity
  8
Shape2432
100
AcDbCircle
 10
288.175
 20
-135.295
 30
0
 40
0.5
100
AcDbArc
 50
180
 51
-90
  0
LINE
  5
AE1
330
A02
100
AcDbEntity
  8
Shape2433
100
AcDbLine
 10
288.175
 20
-135.795
 30
0
 11
298.675
 21
-135.795
 31
0
  0
ARC
  5
AE2
330
A02
100
AcDbEntity
  8
Shape2434
100
AcDbCircle
 10
298.675
 20
-136.795
 30
0
 40
1
100
AcDbArc
 50
0
 51
90
  0
LINE
  5
AE3
330
A02
100
AcDbEntity
  8
Shape2435
100
AcDbLine
 10
299.675
 20
-136.795
 30
0
 11
299.675
 21
-138.295
 31
0
  0
ARC
  5
AE4
330
A02
100
AcDbEntity
  8
Shape2436
100
AcDbCircle
 10
298.675
 20
-138.295
 30
0
 40
1
100
AcDbArc
 50
-90
 51
0
  0
LINE
  5
AE5
330
A02
100
AcDbEntity
  8
Shape2437
100
AcDbLine
 10
298.675
 20
-139.295
 30
0
 11
280.675
 21
-139.295
 31
0
  0
LINE
  5
AE6
330
A02
100
AcDbEntity
  8
Shape2438
100
AcDbLine
 10
280.675
 20
-139.295
 30
0
 11
280.675
 21
-134.045
 31
0
  0
ARC
  5
AE7
330
A02
100
AcDbEntity
  8
Shape2439
100
AcDbCircle
 10
280.175
 20
-134.045
 30
0
 40
0.5
100
AcDbArc
 50
0
 51
180
  0
LINE
  5
AE8
330
A02
100
AcDbEntity
  8
Shape2440
100
AcDbLine
 10
279.675
 20
-134.045
 30
0
 11
279.675
 21
-138.045
 31
0
  0
ARC
  5
AE9
330
A02
100
AcDbEntity
  8
Shape2441
100
AcDbCircle
 10
277.675
 20
-138.045
 30
0
 40
2
100
AcDbArc
 50
180
 51
0
  0
LINE
  5
AEA
330
A02
100
AcDbEntity
  8
Shape2442
100
AcDbLine
 10
275.675
 20
-138.045
 30
0
 11
275.675
 21
-134.045
 31
0
  0
ARC
  5
AEB
330
A02
100
AcDbEntity
  8
Shape2443
100
AcDbCircle
 10
275.175
 20
-134.045
 30
0
 40
0.5
100
AcDbArc
 50
0
 51
180
  0
LINE
  5
AEC
330
A02
100
AcDbEntity
  8
Shape2444
100
AcDbLine
 10
274.675
 20
-134.045
 30
0
 11
274.675
 21
-139.295
 31
0
  0
LINE
  5
AED
330
A02
100
AcDbEntity
  8
Shape2445
100
AcDbLine
 10
274.675
 20
-139.295
 30
0
 11
256.675
 21
-139.295
 31
0
  0
ARC
  5
AEE
330
A02
100
AcDbEntity
  8
Shape2446
100
AcDbCircle
 10
256.675
 20
-138.295
 30
0
 40
1
100
AcDbArc
 50
180
 51
-90
  0
LINE
  5
AEF
330
A02
100
AcDbEntity
  8
Shape2447
100
AcDbLine
 10
255.675
 20
-138.295
 30
0
 11
255.675
 21
-136.795
 31
0
  0
ARC
  5
AF0
330
A02
100
AcDbEntity
  8
Shape2448
100
AcDbCircle
 10
256.675
 20
-136.795
 30
0
 40
1
100
AcDbArc
 50
90
 51
180
  0
LINE
  5
AF1
330
A02
100
AcDbEntity
  8
Shape2449
100
AcDbLine
 10
256.675
 20
-135.795
 30
0
 11
267.175
 21
-135.795
 31
0
  0
ARC
  5
AF2
330
A02
100
AcDbEntity
  8
Shape2450
100
AcDbCircle
 10
267.175
 20
-135.295
 30
0
 40
0.5
100
AcDbArc
 50
-90
 51
0
  0
LINE
  5
AF3
330
A02
100
AcDbEntity
  8
Shape2451
100
AcDbLine
 10
267.675
 20
-135.295
 30
0
 11
267.675
 21
-135.046
 31
0
  0
ARC
  5
AF4
330
A02
100
AcDbEntity
  8
Shape2452
100
AcDbCircle
 10
267.175
 20
-135.046
 30
0
 40
0.5
100
AcDbArc
 50
0
 51
90
  0
LINE
  5
AF5
330
A02
100
AcDbEntity
  8
Shape2453
100
AcDbLine
 10
267.175
 20
-134.546
 30
0
 11
198.175
 21
-134.546
 31
0
  0
ARC
  5
AF6
330
A02
100
AcDbEntity
  8
Shape2454
100
AcDbCircle
 10
198.175
 20
-135.046
 30
0
 40
0.5
100
AcDbArc
 50
90
 51
180
  0
LINE
  5
AF7
330
A02
100
AcDbEntity
  8
Shape2455
100
AcDbLine
 10
197.675
 20
-135.046
 30
0
 11
197.675
 21
-135.295
 31
0
  0
ARC
  5
AF8
330
A02
100
AcDbEntity
  8
Shape2456
100
AcDbCircle
 10
198.175
 20
-135.295
 30
0
 40
0.5
100
AcDbArc
 50
180
 51
-90
  0
LINE
  5
AF9
330
A02
100
AcDbEntity
  8
Shape2457
100
AcDbLine
 10
198.175
 20
-135.795
 30
0
 11
208.675
 21
-135.795
 31
0
  0
ARC
  5
AFA
330
A02
100
AcDbEntity
  8
Shape2458
100
AcDbCircle
 10
208.675
 20
-136.795
 30
0
 40
1
100
AcDbArc
 50
0
 51
90
  0
LINE
  5
AFB
330
A02
100
AcDbEntity
  8
Shape2459
100
AcDbLine
 10
209.675
 20
-136.795
 30
0
 11
209.675
 21
-138.295
 31
0
  0
ARC
  5
AFC
330
A02
100
AcDbEntity
  8
Shape2460
100
AcDbCircle
 10
208.675
 20
-138.295
 30
0
 40
1
100
AcDbArc
 50
-90
 51
0
  0
LINE
  5
AFD
330
A02
100
AcDbEntity
  8
Shape2461
100
AcDbLine
 10
208.675
 20
-139.295
 30
0
 11
190.675
 21
-139.295
 31
0
  0
LINE
  5
AFE
330
A02
100
AcDbEntity
  8
Shape2462
100
AcDbLine
 10
190.675
 20
-139.295
 30
0
 11
190.675
 21
-134.045
 31
0
  0
ARC
  5
AFF
330
A02
100
AcDbEntity
  8
Shape2463
100
AcDbCircle
 10
190.175
 20
-134.045
 30
0
 40
0.5
100
AcDbArc
 50
0
 51
180
  0
LINE
  5
B00
330
A02
100
AcDbEntity
  8
Shape2464
100
AcDbLine
 10
189.675
 20
-134.045
 30
0
 11
189.675
 21
-138.045
 31
0
  0
ARC
  5
B01
330
A02
100
AcDbEntity
  8
Shape2465
100
AcDbCircle
 10
187.675
 20
-138.045
 30
0
 40
2
100
AcDbArc
 50
180
 51
0
  0
LINE
  5
B02
330
A02
100
AcDbEntity
  8
Shape2466
100
AcDbLine
 10
185.675
 20
-138.045
 30
0
 11
185.675
 21
-134.045
 31
0
  0
ARC
  5
B03
330
A02
100
AcDbEntity
  8
Shape2467
100
AcDbCircle
 10
185.175
 20
-134.045
 30
0
 40
0.5
100
AcDbArc
 50
0
 51
180
  0
LINE
  5
B04
330
A02
100
AcDbEntity
  8
Shape2468
100
AcDbLine
 10
184.675
 20
-134.045
 30
0
 11
184.675
 21
-139.295
 31
0
  0
LINE
  5
B05
330
A02
100
AcDbEntity
  8
Shape2469
100
AcDbLine
 10
184.675
 20
-139.295
 30
0
 11
166.675
 21
-139.295
 31
0
  0
ARC
  5
B06
330
A02
100
AcDbEntity
  8
Shape2470
100
AcDbCircle
 10
166.675
 20
-138.295
 30
0
 40
1
100
AcDbArc
 50
180
 51
-90
  0
LINE
  5
B07
330
A02
100
AcDbEntity
  8
Shape2471
100
AcDbLine
 10
165.675
 20
-138.295
 30
0
 11
165.675
 21
-136.795
 31
0
  0
ARC
  5
B08
330
A02
100
AcDbEntity
  8
Shape2472
100
AcDbCircle
 10
166.675
 20
-136.795
 30
0
 40
1
100
AcDbArc
 50
90
 51
180
  0
LINE
  5
B09
330
A02
100
AcDbEntity
  8
Shape2473
100
AcDbLine
 10
166.675
 20
-135.795
 30
0
 11
177.175
 21
-135.795
 31
0
  0
ARC
  5
B0A
330
A02
100
AcDbEntity
  8
Shape2474
100
AcDbCircle
 10
177.175
 20
-135.295
 30
0
 40
0.5
100
AcDbArc
 50
-90
 51
0
  0
LINE
  5
B0B
330
A02
100
AcDbEntity
  8
Shape2475
100
AcDbLine
 10
177.675
 20
-135.295
 30
0
 11
177.675
 21
-135.046
 31
0
  0
ARC
  5
B0C
330
A02
100
AcDbEntity
  8
Shape2476
100
AcDbCircle
 10
177.175
 20
-135.046
 30
0
 40
0.5
100
AcDbArc
 50
0
 51
90
  0
LINE
  5
B0D
330
A02
100
AcDbEntity
  8
Shape2477
100
AcDbLine
 10
177.175
 20
-134.546
 30
0
 11
155.85
 21
-134.546
 31
0
  0
ARC
  5
B0E
330
A02
100
AcDbEntity
  8
Shape2478
100
AcDbCircle
 10
155.85
 20
-132.546
 30
0
 40
2
100
AcDbArc
 50
180
 51
-90
  0
LINE
  5
B0F
330
A02
100
AcDbEntity
  8
Shape2479
100
AcDbLine
 10
153.85
 20
-132.546
 30
0
 11
153.85
 21
-60.1455
 31
0
  0
ARC
  5
B10
330
A02
100
AcDbEntity
  8
Shape2480
100
AcDbCircle
 10
155.85
 20
-60.1455
 30
0
 40
2
100
AcDbArc
 50
90
 51
180
  0
LINE
  5
B11
330
A02
100
AcDbEntity
  8
Shape2481
100
AcDbLine
 10
155.85
 20
-58.1455
 30
0
 11
177.175
 21
-58.1455
 31
0
  0
ARC
  5
B12
330
A02
100
AcDbEntity
  8
Shape2482
100
AcDbCircle
 10
177.175
 20
-57.6455
 30
0
 40
0.5
100
AcDbArc
 50
-90
 51
0
  0
LINE
  5
B13
330
A02
100
AcDbEntity
  8
Shape2483
100
AcDbLine
 10
177.675
 20
-57.6455
 30
0
 11
177.675
 21
-57.3964
 31
0
  0
ARC
  5
B14
330
A02
100
AcDbEntity
  8
Shape2484
100
AcDbCircle
 10
177.175
 20
-57.3964
 30
0
 40
0.5
100
AcDbArc
 50
0
 51
90
  0
LINE
  5
B15
330
A02
100
AcDbEntity
  8
Shape2485
100
AcDbLine
 10
177.175
 20
-56.8964
 30
0
 11
166.675
 21
-56.8964
 31
0
  0
ARC
  5
B16
330
A02
100
AcDbEntity
  8
Shape2486
100
AcDbCircle
 10
166.675
 20
-55.8964
 30
0
 40
1
100
AcDbArc
 50
180
 51
-90
  0
LINE
  5
B17
330
A02
100
AcDbEntity
  8
Shape2487
100
AcDbLine
 10
165.675
 20
-55.8964
 30
0
 11
165.675
 21
-54.3964
 31
0
  0
ARC
  5
B18
330
A02
100
AcDbEntity
  8
Shape2488
100
AcDbCircle
 10
166.675
 20
-54.3964
 30
0
 40
1
100
AcDbArc
 50
90
 51
180
  0
LINE
  5
B19
330
A02
100
AcDbEntity
  8
Shape2489
100
AcDbLine
 10
166.675
 20
-53.3964
 30
0
 11
184.675
 21
-53.3964
 31
0
  0
LINE
  5
B1A
330
A02
100
AcDbEntity
  8
Shape2490
100
AcDbLine
 10
184.675
 20
-53.3964
 30
0
 11
184.675
 21
-58.6464
 31
0
  0
ARC
  5
B1B
330
A02
100
AcDbEntity
  8
Shape2491
100
AcDbCircle
 10
185.175
 20
-58.6464
 30
0
 40
0.5
100
AcDbArc
 50
180
 51
0
  0
LINE
  5
B1C
330
A02
100
AcDbEntity
  8
Shape2492
100
AcDbLine
 10
185.675
 20
-58.6464
 30
0
 11
185.675
 21
-54.6464
 31
0
  0
ARC
  5
B1D
330
A02
100
AcDbEntity
  8
Shape2493
100
AcDbCircle
 10
187.675
 20
-54.6464
 30
0
 40
2
100
AcDbArc
 50
0
 51
180
  0
LINE
  5
B1E
330
A02
100
AcDbEntity
  8
Shape2494
100
AcDbLine
 10
189.675
 20
-54.6464
 30
0
 11
189.675
 21
-58.6464
 31
0
  0
ARC
  5
B1F
330
A02
100
AcDbEntity
  8
Shape2495
100
AcDbCircle
 10
190.175
 20
-58.6464
 30
0
 40
0.5
100
AcDbArc
 50
180
 51
0
  0
LINE
  5
B20
330
A02
100
AcDbEntity
  8
Shape2496
100
AcDbLine
 10
190.675
 20
-58.6464
 30
0
 11
190.675
 21
-53.3964
 31
0
  0
LINE
  5
B21
330
A02
100
AcDbEntity
  8
Shape2497
100
AcDbLine
 10
190.675
 20
-53.3964
 30
0
 11
208.675
 21
-53.3964
 31
0
  0
ARC
  5
B22
330
A02
100
AcDbEntity
  8
Shape2498
100
AcDbCircle
 10
208.675
 20
-54.3964
 30
0
 40
1
100
AcDbArc
 50
0
 51
90
  0
LINE
  5
B23
330
A02
100
AcDbEntity
  8
Shape2499
100
AcDbLine
 10
209.675
 20
-54.3964
 30
0
 11
209.675
 21
-55.8964
 31
0
  0
ARC
  5
B24
330
A02
100
AcDbEntity
  8
Shape2500
100
AcDbCircle
 10
208.675
 20
-55.8964
 30
0
 40
1
100
AcDbArc
 50
-90
 51
0
  0
LINE
  5
B25
330
A02
100
AcDbEntity
  8
Shape2501
100
AcDbLine
 10
208.675
 20
-56.8964
 30
0
 11
198.175
 21
-56.8964
 31
0
  0
ARC
  5
B26
330
A02
100
AcDbEntity
  8
Shape2502
100
AcDbCircle
 10
198.175
 20
-57.3964
 30
0
 40
0.5
100
AcDbArc
 50
90
 51
180
  0
LINE
  5
B27
330
A02
100
AcDbEntity
  8
Shape2503
100
AcDbLine
 10
197.675
 20
-57.3964
 30
0
 11
197.675
 21
-57.6455
 31
0
  0
ARC
  5
B28
330
A02
100
AcDbEntity
  8
Shape2504
100
AcDbCircle
 10
198.175
 20
-57.6455
 30
0
 40
0.5
100
AcDbArc
 50
180
 51
-90
  0
LINE
  5
B29
330
A02
100
AcDbEntity
  8
Shape2505
100
AcDbLine
 10
198.175
 20
-58.1455
 30
0
 11
267.175
 21
-58.1455
 31
0
  0
ARC
  5
B2A
330
A02
100
AcDbEntity
  8
Shape2506
100
AcDbCircle
 10
267.175
 20
-57.6455
 30
0
 40
0.5
100
AcDbArc
 50
-90
 51
0
  0
LINE
  5
B2B
330
A02
100
AcDbEntity
  8
Shape2507
100
AcDbLine
 10
267.675
 20
-57.6455
 30
0
 11
267.675
 21
-57.3964
 31
0
  0
ARC
  5
B2C
330
A02
100
AcDbEntity
  8
Shape2508
100
AcDbCircle
 10
267.175
 20
-57.3964
 30
0
 40
0.5
100
AcDbArc
 50
0
 51
90
  0
LINE
  5
B2D
330
A02
100
AcDbEntity
  8
Shape2509
100
AcDbLine
 10
267.175
 20
-56.8964
 30
0
 11
256.675
 21
-56.8964
 31
0
  0
ARC
  5
B2E
330
A02
100
AcDbEntity
  8
Shape2510
100
AcDbCircle
 10
256.675
 20
-55.8964
 30
0
 40
1
100
AcDbArc
 50
180
 51
-90
  0
LINE
  5
B2F
330
A02
100
AcDbEntity
  8
Shape2511
100
AcDbLine
 10
255.675
 20
-55.8964
 30
0
 11
255.675
 21
-54.3964
 31
0
  0
ARC
  5
B30
330
A02
100
AcDbEntity
  8
Shape2512
100
AcDbCircle
 10
256.675
 20
-54.3964
 30
0
 40
1
100
AcDbArc
 50
90
 51
180
  0
LINE
  5
B31
330
A02
100
AcDbEntity
  8
Shape2513
100
AcDbLine
 10
256.675
 20
-53.3964
 30
0
 11
274.675
 21
-53.3964
 31
0
  0
LINE
  5
B32
330
A02
100
AcDbEntity
  8
Shape2514
100
AcDbLine
 10
274.675
 20
-53.3964
 30
0
 11
274.675
 21
-58.6464
 31
0
  0
ARC
  5
B33
330
A02
100
AcDbEntity
  8
Shape2515
100
AcDbCircle
 10
275.175
 20
-58.6464
 30
0
 40
0.5
100
AcDbArc
 50
180
 51
0
  0
LINE
  5
B34
330
A02
100
AcDbEntity
  8
Shape2516
100
AcDbLine
 10
275.675
 20
-58.6464
 30
0
 11
275.675
 21
-54.6464
 31
0
  0
ARC
  5
B35
330
A02
100
AcDbEntity
  8
Shape2517
100
AcDbCircle
 10
277.675
 20
-54.6464
 30
0
 40
2
100
AcDbArc
 50
0
 51
180
  0
LINE
  5
B36
330
A02
100
AcDbEntity
  8
Shape2518
100
AcDbLine
 10
279.675
 20
-54.6464
 30
0
 11
279.675
 21
-58.6464
 31
0
  0
ARC
  5
B37
330
A02
100
AcDbEntity
  8
Shape2519
100
AcDbCircle
 10
280.175
 20
-58.6464
 30
0
 40
0.5
100
AcDbArc
 50
180
 51
0
  0
LINE
  5
B38
330
A02
100
AcDbEntity
  8
Shape2520
100
AcDbLine
 10
280.675
 20
-58.6464
 30
0
 11
280.675
 21
-53.3964
 31
0
  0
LINE
  5
B39
330
A02
100
AcDbEntity
  8
Shape2521
100
AcDbLine
 10
280.675
 20
-53.3964
 30
0
 11
298.675
 21
-53.3964
 31
0
  0
ARC
  5
B3A
330
A02
100
AcDbEntity
  8
Shape2522
100
AcDbCircle
 10
298.675
 20
-54.3964
 30
0
 40
1
100
AcDbArc
 50
0
 51
90
  0
LINE
  5
B3B
330
A02
100
AcDbEntity
  8
Shape2523
100
AcDbLine
 10
299.675
 20
-54.3964
 30
0
 11
299.675
 21
-55.8964
 31
0
  0
CIRCLE
  5
B3C
330
A02
100
AcDbEntity
  8
Shape2524
100
AcDbCircle
 10
367.675
 20
-54.6464
 40
1.1
  0
CIRCLE
  5
B3D
330
A02
100
AcDbEntity
  8
Shape2525
100
AcDbCircle
 10
277.675
 20
-54.6464
 40
1.1
  0
CIRCLE
  5
B3E
330
A02
100
AcDbEntity
  8
Shape2526
100
AcDbCircle
 10
187.675
 20
-54.6464
 40
1.1
  0
CIRCLE
  5
B3F
330
A02
100
AcDbEntity
  8
Shape2527
100
AcDbCircle
 10
367.675
 20
-138.045
 40
1.1
  0
CIRCLE
  5
B40
330
A02
100
AcDbEntity
  8
Shape2528
100
AcDbCircle
 10
277.675
 20
-138.045
 40
1.1
  0
CIRCLE
  5
B41
330
A02
100
AcDbEntity
  8
Shape2529
100
AcDbCircle
 10
187.675
 20
-138.045
 40
1.1
  0
LINE
  5
B42
330
A02
100
AcDbEntity
  8
Shape3562
100
AcDbLine
 10
234.955
 20
-131.47
 30
0
 11
234.955
 21
-127.271
 31
0
  0
ARC
  5
B43
330
A02
100
AcDbEntity
  8
Shape3563
100
AcDbCircle
 10
235.455
 20
-131.47
 30
0
 40
0.5
100
AcDbArc
 50
180
 51
-90
  0
LINE
  5
B44
330
A02
100
AcDbEntity
  8
Shape3564
100
AcDbLine
 10
234.955
 20
-127.271
 30
0
 11
233.43
 21
-127.271
 31
0
  0
LINE
  5
B45
330
A02
100
AcDbEntity
  8
Shape3565
100
AcDbLine
 10
233.43
 20
-127.271
 30
0
 11
233.43
 21
-130.5
 31
0
  0
LINE
  5
B46
330
A02
100
AcDbEntity
  8
Shape3566
100
AcDbLine
 10
233.43
 20
-130.5
 30
0
 11
226.68
 21
-130.5
 31
0
  0
LINE
  5
B47
330
A02
100
AcDbEntity
  8
Shape3567
100
AcDbLine
 10
226.68
 20
-130.5
 30
0
 11
226.68
 21
-127.271
 31
0
  0
LINE
  5
B48
330
A02
100
AcDbEntity
  8
Shape3568
100
AcDbLine
 10
226.68
 20
-127.271
 30
0
 11
225.855
 21
-127.271
 31
0
  0
LINE
  5
B49
330
A02
100
AcDbEntity
  8
Shape3569
100
AcDbLine
 10
225.855
 20
-127.271
 30
0
 11
225.855
 21
-124.471
 31
0
  0
LINE
  5
B4A
330
A02
100
AcDbEntity
  8
Shape3570
100
AcDbLine
 10
225.855
 20
-124.471
 30
0
 11
226.68
 21
-124.471
 31
0
  0
LINE
  5
B4B
330
A02
100
AcDbEntity
  8
Shape3571
100
AcDbLine
 10
226.68
 20
-124.471
 30
0
 11
226.68
 21
-118.201
 31
0
  0
LINE
  5
B4C
330
A02
100
AcDbEntity
  8
Shape3572
100
AcDbLine
 10
226.68
 20
-118.201
 30
0
 11
228.405
 21
-118.201
 31
0
  0
LINE
  5
B4D
330
A02
100
AcDbEntity
  8
Shape3573
100
AcDbLine
 10
228.405
 20
-118.201
 30
0
 11
228.405
 21
-117.001
 31
0
  0
LINE
  5
B4E
330
A02
100
AcDbEntity
  8
Shape3574
100
AcDbLine
 10
228.405
 20
-117.001
 30
0
 11
231.704
 21
-117.001
 31
0
  0
LINE
  5
B4F
330
A02
100
AcDbEntity
  8
Shape3575
100
AcDbLine
 10
231.704
 20
-117.001
 30
0
 11
231.704
 21
-118.201
 31
0
  0
LINE
  5
B50
330
A02
100
AcDbEntity
  8
Shape3576
100
AcDbLine
 10
231.704
 20
-118.201
 30
0
 11
233.43
 21
-118.201
 31
0
  0
LINE
  5
B51
330
A02
100
AcDbEntity
  8
Shape3577
100
AcDbLine
 10
233.43
 20
-118.201
 30
0
 11
233.43
 21
-122.67
 31
0
  0
LINE
  5
B52
330
A02
100
AcDbEntity
  8
Shape3578
100
AcDbLine
 10
233.43
 20
-122.67
 30
0
 11
234.955
 21
-122.67
 31
0
  0
LINE
  5
B53
330
A02
100
AcDbEntity
  8
Shape3579
100
AcDbLine
 10
234.955
 20
-122.67
 30
0
 11
234.955
 21
-118.471
 31
0
  0
LINE
  5
B54
330
A02
100
AcDbEntity
  8
Shape3580
100
AcDbLine
 10
235.455
 20
-117.971
 30
0
 11
248.455
 21
-117.971
 31
0
  0
ARC
  5
B55
330
A02
100
AcDbEntity
  8
Shape3581
100
AcDbCircle
 10
235.455
 20
-118.471
 30
0
 40
0.5
100
AcDbArc
 50
90
 51
180
  0
LINE
  5
B56
330
A02
100
AcDbEntity
  8
Shape3582
100
AcDbLine
 10
248.955
 20
-118.471
 30
0
 11
248.955
 21
-122.67
 31
0
  0
ARC
  5
B57
330
A02
100
AcDbEntity
  8
Shape3583
100
AcDbCircle
 10
248.455
 20
-118.471
 30
0
 40
0.5
100
AcDbArc
 50
0
 51
90
  0
LINE
  5
B58
330
A02
100
AcDbEntity
  8
Shape3584
100
AcDbLine
 10
248.955
 20
-122.67
 30
0
 11
250.48
 21
-122.67
 31
0
  0
LINE
  5
B59
330
A02
100
AcDbEntity
  8
Shape3585
100
AcDbLine
 10
250.48
 20
-122.67
 30
0
 11
250.48
 21
-118.201
 31
0
  0
LINE
  5
B5A
330
A02
100
AcDbEntity
  8
Shape3586
100
AcDbLine
 10
250.48
 20
-118.201
 30
0
 11
252.204
 21
-118.201
 31
0
  0
LINE
  5
B5B
330
A02
100
AcDbEntity
  8
Shape3587
100
AcDbLine
 10
252.204
 20
-118.201
 30
0
 11
252.204
 21
-117.001
 31
0
  0
LINE
  5
B5C
330
A02
100
AcDbEntity
  8
Shape3588
100
AcDbLine
 10
252.204
 20
-117.001
 30
0
 11
255.505
 21
-117.001
 31
0
  0
LINE
  5
B5D
330
A02
100
AcDbEntity
  8
Shape3589
100
AcDbLine
 10
255.505
 20
-117.001
 30
0
 11
255.505
 21
-118.201
 31
0
  0
LINE
  5
B5E
330
A02
100
AcDbEntity
  8
Shape3590
100
AcDbLine
 10
255.505
 20
-118.201
 30
0
 11
257.23
 21
-118.201
 31
0
  0
LINE
  5
B5F
330
A02
100
AcDbEntity
  8
Shape3591
100
AcDbLine
 10
257.23
 20
-118.201
 30
0
 11
257.23
 21
-124.471
 31
0
  0
LINE
  5
B60
330
A02
100
AcDbEntity
  8
Shape3592
100
AcDbLine
 10
257.23
 20
-124.471
 30
0
 11
258.055
 21
-124.471
 31
0
  0
LINE
  5
B61
330
A02
100
AcDbEntity
  8
Shape3593
100
AcDbLine
 10
258.055
 20
-124.471
 30
0
 11
258.055
 21
-127.271
 31
0
  0
LINE
  5
B62
330
A02
100
AcDbEntity
  8
Shape3594
100
AcDbLine
 10
258.055
 20
-127.271
 30
0
 11
257.23
 21
-127.271
 31
0
  0
LINE
  5
B63
330
A02
100
AcDbEntity
  8
Shape3595
100
AcDbLine
 10
257.23
 20
-127.271
 30
0
 11
257.23
 21
-130.5
 31
0
  0
LINE
  5
B64
330
A02
100
AcDbEntity
  8
Shape3596
100
AcDbLine
 10
257.23
 20
-130.5
 30
0
 11
250.48
 21
-130.5
 31
0
  0
LINE
  5
B65
330
A02
100
AcDbEntity
  8
Shape3597
100
AcDbLine
 10
250.48
 20
-130.5
 30
0
 11
250.48
 21
-127.271
 31
0
  0
LINE
  5
B66
330
A02
100
AcDbEntity
  8
Shape3598
100
AcDbLine
 10
250.48
 20
-127.271
 30
0
 11
248.955
 21
-127.271
 31
0
  0
LINE
  5
B67
330
A02
100
AcDbEntity
  8
Shape3599
100
AcDbLine
 10
248.955
 20
-127.271
 30
0
 11
248.955
 21
-131.47
 31
0
  0
ARC
  5
B68
330
A02
100
AcDbEntity
  8
Shape3600
100
AcDbCircle
 10
248.455
 20
-131.47
 30
0
 40
0.5
100
AcDbArc
 50
-90
 51
0
  0
LINE
  5
B69
330
A02
100
AcDbEntity
  8
Shape3601
100
AcDbLine
 10
248.455
 20
-131.97
 30
0
 11
235.455
 21
-131.97
 31
0
  0
LINE
  5
B6A
330
A02
100
AcDbEntity
  8
Shape3602
100
AcDbLine
 10
301.63
 20
-131.47
 30
0
 11
301.63
 21
-127.271
 31
0
  0
ARC
  5
B6B
330
A02
100
AcDbEntity
  8
Shape3603
100
AcDbCircle
 10
302.13
 20
-131.47
 30
0
 40
0.5
100
AcDbArc
 50
180
 51
-90
  0
LINE
  5
B6C
330
A02
100
AcDbEntity
  8
Shape3604
100
AcDbLine
 10
301.63
 20
-127.271
 30
0
 11
300.105
 21
-127.271
 31
0
  0
LINE
  5
B6D
330
A02
100
AcDbEntity
  8
Shape3605
100
AcDbLine
 10
300.105
 20
-127.271
 30
0
 11
300.105
 21
-130.5
 31
0
  0
LINE
  5
B6E
330
A02
100
AcDbEntity
  8
Shape3606
100
AcDbLine
 10
300.105
 20
-130.5
 30
0
 11
293.355
 21
-130.5
 31
0
  0
LINE
  5
B6F
330
A02
100
AcDbEntity
  8
Shape3607
100
AcDbLine
 10
293.355
 20
-130.5
 30
0
 11
293.355
 21
-127.271
 31
0
  0
LINE
  5
B70
330
A02
100
AcDbEntity
  8
Shape3608
100
AcDbLine
 10
293.355
 20
-127.271
 30
0
 11
292.529
 21
-127.271
 31
0
  0
LINE
  5
B71
330
A02
100
AcDbEntity
  8
Shape3609
100
AcDbLine
 10
292.529
 20
-127.271
 30
0
 11
292.529
 21
-124.471
 31
0
  0
LINE
  5
B72
330
A02
100
AcDbEntity
  8
Shape3610
100
AcDbLine
 10
292.529
 20
-124.471
 30
0
 11
293.355
 21
-124.471
 31
0
  0
LINE
  5
B73
330
A02
100
AcDbEntity
  8
Shape3611
100
AcDbLine
 10
293.355
 20
-124.471
 30
0
 11
293.355
 21
-118.201
 31
0
  0
LINE
  5
B74
330
A02
100
AcDbEntity
  8
Shape3612
100
AcDbLine
 10
293.355
 20
-118.201
 30
0
 11
295.08
 21
-118.201
 31
0
  0
LINE
  5
B75
330
A02
100
AcDbEntity
  8
Shape3613
100
AcDbLine
 10
295.08
 20
-118.201
 30
0
 11
295.08
 21
-117.001
 31
0
  0
LINE
  5
B76
330
A02
100
AcDbEntity
  8
Shape3614
100
AcDbLine
 10
295.08
 20
-117.001
 30
0
 11
298.379
 21
-117.001
 31
0
  0
LINE
  5
B77
330
A02
100
AcDbEntity
  8
Shape3615
100
AcDbLine
 10
298.379
 20
-117.001
 30
0
 11
298.379
 21
-118.201
 31
0
  0
LINE
  5
B78
330
A02
100
AcDbEntity
  8
Shape3616
100
AcDbLine
 10
298.379
 20
-118.201
 30
0
 11
300.105
 21
-118.201
 31
0
  0
LINE
  5
B79
330
A02
100
AcDbEntity
  8
Shape3617
100
AcDbLine
 10
300.105
 20
-118.201
 30
0
 11
300.105
 21
-122.67
 31
0
  0
LINE
  5
B7A
330
A02
100
AcDbEntity
  8
Shape3618
100
AcDbLine
 10
300.105
 20
-122.67
 30
0
 11
301.63
 21
-122.67
 31
0
  0
LINE
  5
B7B
330
A02
100
AcDbEntity
  8
Shape3619
100
AcDbLine
 10
301.63
 20
-122.67
 30
0
 11
301.63
 21
-118.471
 31
0
  0
LINE
  5
B7C
330
A02
100
AcDbEntity
  8
Shape3620
100
AcDbLine
 10
302.13
 20
-117.971
 30
0
 11
315.129
 21
-117.971
 31
0
  0
ARC
  5
B7D
330
A02
100
AcDbEntity
  8
Shape3621
100
AcDbCircle
 10
315.129
 20
-118.471
 30
0
 40
0.5
100
AcDbArc
 50
0
 51
90
  0
ARC
  5
B7E
330
A02
100
AcDbEntity
  8
Shape3622
100
AcDbCircle
 10
302.13
 20
-118.471
 30
0
 40
0.5
100
AcDbArc
 50
90
 51
180
  0
LINE
  5
B7F
330
A02
100
AcDbEntity
  8
Shape3623
100
AcDbLine
 10
315.629
 20
-118.471
 30
0
 11
315.629
 21
-122.67
 31
0
  0
LINE
  5
B80
330
A02
100
AcDbEntity
  8
Shape3624
100
AcDbLine
 10
315.629
 20
-122.67
 30
0
 11
317.155
 21
-122.67
 31
0
  0
LINE
  5
B81
330
A02
100
AcDbEntity
  8
Shape3625
100
AcDbLine
 10
317.155
 20
-122.67
 30
0
 11
317.155
 21
-118.201
 31
0
  0
LINE
  5
B82
330
A02
100
AcDbEntity
  8
Shape3626
100
AcDbLine
 10
317.155
 20
-118.201
 30
0
 11
318.879
 21
-118.201
 31
0
  0
LINE
  5
B83
330
A02
100
AcDbEntity
  8
Shape3627
100
AcDbLine
 10
318.879
 20
-118.201
 30
0
 11
318.879
 21
-117.001
 31
0
  0
LINE
  5
B84
330
A02
100
AcDbEntity
  8
Shape3628
100
AcDbLine
 10
318.879
 20
-117.001
 30
0
 11
322.179
 21
-117.001
 31
0
  0
LINE
  5
B85
330
A02
100
AcDbEntity
  8
Shape3629
100
AcDbLine
 10
322.179
 20
-117.001
 30
0
 11
322.179
 21
-118.201
 31
0
  0
LINE
  5
B86
330
A02
100
AcDbEntity
  8
Shape3630
100
AcDbLine
 10
322.179
 20
-118.201
 30
0
 11
323.904
 21
-118.201
 31
0
  0
LINE
  5
B87
330
A02
100
AcDbEntity
  8
Shape3631
100
AcDbLine
 10
323.904
 20
-118.201
 30
0
 11
323.904
 21
-124.471
 31
0
  0
LINE
  5
B88
330
A02
100
AcDbEntity
  8
Shape3632
100
AcDbLine
 10
323.904
 20
-124.471
 30
0
 11
324.73
 21
-124.471
 31
0
  0
LINE
  5
B89
330
A02
100
AcDbEntity
  8
Shape3633
100
AcDbLine
 10
324.73
 20
-124.471
 30
0
 11
324.73
 21
-127.271
 31
0
  0
LINE
  5
B8A
330
A02
100
AcDbEntity
  8
Shape3634
100
AcDbLine
 10
324.73
 20
-127.271
 30
0
 11
323.904
 21
-127.271
 31
0
  0
LINE
  5
B8B
330
A02
100
AcDbEntity
  8
Shape3635
100
AcDbLine
 10
323.904
 20
-127.271
 30
0
 11
323.904
 21
-130.5
 31
0
  0
LINE
  5
B8C
330
A02
100
AcDbEntity
  8
Shape3636
100
AcDbLine
 10
323.904
 20
-130.5
 30
0
 11
317.155
 21
-130.5
 31
0
  0
LINE
  5
B8D
330
A02
100
AcDbEntity
  8
Shape3637
100
AcDbLine
 10
317.155
 20
-130.5
 30
0
 11
317.155
 21
-127.271
 31
0
  0
LINE
  5
B8E
330
A02
100
AcDbEntity
  8
Shape3638
100
AcDbLine
 10
317.155
 20
-127.271
 30
0
 11
315.629
 21
-127.271
 31
0
  0
LINE
  5
B8F
330
A02
100
AcDbEntity
  8
Shape3639
100
AcDbLine
 10
315.629
 20
-127.271
 30
0
 11
315.629
 21
-131.47
 31
0
  0
ARC
  5
B90
330
A02
100
AcDbEntity
  8
Shape3640
100
AcDbCircle
 10
315.129
 20
-131.47
 30
0
 40
0.5
100
AcDbArc
 50
-90
 51
0
  0
LINE
  5
B91
330
A02
100
AcDbEntity
  8
Shape3641
100
AcDbLine
 10
315.129
 20
-131.97
 30
0
 11
302.13
 21
-131.97
 31
0
  0
LINE
  5
B92
330
A02
100
AcDbEntity
  8
Shape3642
100
AcDbLine
 10
266.411
 20
-131.97
 30
0
 11
279.411
 21
-131.97
 31
0
  0
ARC
  5
B93
330
A02
100
AcDbEntity
  8
Shape3643
100
AcDbCircle
 10
279.411
 20
-131.47
 30
0
 40
0.5
100
AcDbArc
 50
-90
 51
0
  0
LINE
  5
B94
330
A02
100
AcDbEntity
  8
Shape3644
100
AcDbLine
 10
279.911
 20
-131.47
 30
0
 11
279.911
 21
-118.471
 31
0
  0
LINE
  5
B95
330
A02
100
AcDbEntity
  8
Shape3645
100
AcDbLine
 10
279.411
 20
-117.971
 30
0
 11
266.411
 21
-117.971
 31
0
  0
ARC
  5
B96
330
A02
100
AcDbEntity
  8
Shape3646
100
AcDbCircle
 10
279.411
 20
-118.471
 30
0
 40
0.5
100
AcDbArc
 50
0
 51
90
  0
LINE
  5
B97
330
A02
100
AcDbEntity
  8
Shape3647
100
AcDbLine
 10
265.911
 20
-118.471
 30
0
 11
265.911
 21
-131.47
 31
0
  0
ARC
  5
B98
330
A02
100
AcDbEntity
  8
Shape3648
100
AcDbCircle
 10
266.411
 20
-118.471
 30
0
 40
0.5
100
AcDbArc
 50
90
 51
180
  0
ARC
  5
B99
330
A02
100
AcDbEntity
  8
Shape3649
100
AcDbCircle
 10
266.411
 20
-131.47
 30
0
 40
0.5
100
AcDbArc
 50
180
 51
-90
  0
LINE
  5
B9A
330
A02
100
AcDbEntity
  8
Shape4243
100
AcDbLine
 10
168.281
 20
-112.37
 30
0
 11
168.281
 21
-108.171
 31
0
  0
ARC
  5
B9B
330
A02
100
AcDbEntity
  8
Shape4244
100
AcDbCircle
 10
168.781
 20
-112.37
 30
0
 40
0.5
100
AcDbArc
 50
180
 51
-90
  0
LINE
  5
B9C
330
A02
100
AcDbEntity
  8
Shape4245
100
AcDbLine
 10
168.281
 20
-108.171
 30
0
 11
166.755
 21
-108.171
 31
0
  0
LINE
  5
B9D
330
A02
100
AcDbEntity
  8
Shape4246
100
AcDbLine
 10
166.755
 20
-108.171
 30
0
 11
166.755
 21
-111.4
 31
0
  0
LINE
  5
B9E
330
A02
100
AcDbEntity
  8
Shape4247
100
AcDbLine
 10
166.755
 20
-111.4
 30
0
 11
160.006
 21
-111.4
 31
0
  0
LINE
  5
B9F
330
A02
100
AcDbEntity
  8
Shape4248
100
AcDbLine
 10
160.006
 20
-111.4
 30
0
 11
160.006
 21
-108.171
 31
0
  0
LINE
  5
BA0
330
A02
100
AcDbEntity
  8
Shape4249
100
AcDbLine
 10
160.006
 20
-108.171
 30
0
 11
159.18
 21
-108.171
 31
0
  0
LINE
  5
BA1
330
A02
100
AcDbEntity
  8
Shape4250
100
AcDbLine
 10
159.18
 20
-108.171
 30
0
 11
159.18
 21
-105.371
 31
0
  0
LINE
  5
BA2
330
A02
100
AcDbEntity
  8
Shape4251
100
AcDbLine
 10
159.18
 20
-105.371
 30
0
 11
160.006
 21
-105.371
 31
0
  0
LINE
  5
BA3
330
A02
100
AcDbEntity
  8
Shape4252
100
AcDbLine
 10
160.006
 20
-105.371
 30
0
 11
160.006
 21
-99.1009
 31
0
  0
LINE
  5
BA4
330
A02
100
AcDbEntity
  8
Shape4253
100
AcDbLine
 10
160.006
 20
-99.1009
 30
0
 11
161.731
 21
-99.1009
 31
0
  0
LINE
  5
BA5
330
A02
100
AcDbEntity
  8
Shape4254
100
AcDbLine
 10
161.731
 20
-99.1009
 30
0
 11
161.731
 21
-97.9006
 31
0
  0
LINE
  5
BA6
330
A02
100
AcDbEntity
  8
Shape4255
100
AcDbLine
 10
161.731
 20
-97.9006
 30
0
 11
165.03
 21
-97.9006
 31
0
  0
LINE
  5
BA7
330
A02
100
AcDbEntity
  8
Shape4256
100
AcDbLine
 10
165.03
 20
-97.9006
 30
0
 11
165.03
 21
-99.1009
 31
0
  0
LINE
  5
BA8
330
A02
100
AcDbEntity
  8
Shape4257
100
AcDbLine
 10
165.03
 20
-99.1009
 30
0
 11
166.755
 21
-99.1009
 31
0
  0
LINE
  5
BA9
330
A02
100
AcDbEntity
  8
Shape4258
100
AcDbLine
 10
166.755
 20
-99.1009
 30
0
 11
166.755
 21
-103.57
 31
0
  0
LINE
  5
BAA
330
A02
100
AcDbEntity
  8
Shape4259
100
AcDbLine
 10
166.755
 20
-103.57
 30
0
 11
168.281
 21
-103.57
 31
0
  0
LINE
  5
BAB
330
A02
100
AcDbEntity
  8
Shape4260
100
AcDbLine
 10
168.281
 20
-103.57
 30
0
 11
168.281
 21
-99.3708
 31
0
  0
LINE
  5
BAC
330
A02
100
AcDbEntity
  8
Shape4261
100
AcDbLine
 10
168.781
 20
-98.8708
 30
0
 11
181.78
 21
-98.8708
 31
0
  0
ARC
  5
BAD
330
A02
100
AcDbEntity
  8
Shape4262
100
AcDbCircle
 10
168.781
 20
-99.3708
 30
0
 40
0.5
100
AcDbArc
 50
90
 51
180
  0
LINE
  5
BAE
330
A02
100
AcDbEntity
  8
Shape4263
100
AcDbLine
 10
182.28
 20
-99.3708
 30
0
 11
182.28
 21
-103.57
 31
0
  0
ARC
  5
BAF
330
A02
100
AcDbEntity
  8
Shape4264
100
AcDbCircle
 10
181.78
 20
-99.3708
 30
0
 40
0.5
100
AcDbArc
 50
0
 51
90
  0
LINE
  5
BB0
330
A02
100
AcDbEntity
  8
Shape4265
100
AcDbLine
 10
182.28
 20
-103.57
 30
0
 11
183.806
 21
-103.57
 31
0
  0
LINE
  5
BB1
330
A02
100
AcDbEntity
  8
Shape4266
100
AcDbLine
 10
183.806
 20
-103.57
 30
0
 11
183.806
 21
-99.1009
 31
0
  0
LINE
  5
BB2
330
A02
100
AcDbEntity
  8
Shape4267
100
AcDbLine
 10
183.806
 20
-99.1009
 30
0
 11
185.53
 21
-99.1009
 31
0
  0
LINE
  5
BB3
330
A02
100
AcDbEntity
  8
Shape4268
100
AcDbLine
 10
185.53
 20
-99.1009
 30
0
 11
185.53
 21
-97.9006
 31
0
  0
LINE
  5
BB4
330
A02
100
AcDbEntity
  8
Shape4269
100
AcDbLine
 10
185.53
 20
-97.9006
 30
0
 11
188.83
 21
-97.9006
 31
0
  0
LINE
  5
BB5
330
A02
100
AcDbEntity
  8
Shape4270
100
AcDbLine
 10
188.83
 20
-97.9006
 30
0
 11
188.83
 21
-99.1009
 31
0
  0
LINE
  5
BB6
330
A02
100
AcDbEntity
  8
Shape4271
100
AcDbLine
 10
188.83
 20
-99.1009
 30
0
 11
190.555
 21
-99.1009
 31
0
  0
LINE
  5
BB7
330
A02
100
AcDbEntity
  8
Shape4272
100
AcDbLine
 10
190.555
 20
-99.1009
 30
0
 11
190.555
 21
-105.371
 31
0
  0
LINE
  5
BB8
330
A02
100
AcDbEntity
  8
Shape4273
100
AcDbLine
 10
190.555
 20
-105.371
 30
0
 11
191.381
 21
-105.371
 31
0
  0
LINE
  5
BB9
330
A02
100
AcDbEntity
  8
Shape4274
100
AcDbLine
 10
191.381
 20
-105.371
 30
0
 11
191.381
 21
-108.171
 31
0
  0
LINE
  5
BBA
330
A02
100
AcDbEntity
  8
Shape4275
100
AcDbLine
 10
191.381
 20
-108.171
 30
0
 11
190.555
 21
-108.171
 31
0
  0
LINE
  5
BBB
330
A02
100
AcDbEntity
  8
Shape4276
100
AcDbLine
 10
190.555
 20
-108.171
 30
0
 11
190.555
 21
-111.4
 31
0
  0
LINE
  5
BBC
330
A02
100
AcDbEntity
  8
Shape4277
100
AcDbLine
 10
190.555
 20
-111.4
 30
0
 11
183.806
 21
-111.4
 31
0
  0
LINE
  5
BBD
330
A02
100
AcDbEntity
  8
Shape4278
100
AcDbLine
 10
183.806
 20
-111.4
 30
0
 11
183.806
 21
-108.171
 31
0
  0
LINE
  5
BBE
330
A02
100
AcDbEntity
  8
Shape4279
100
AcDbLine
 10
183.806
 20
-108.171
 30
0
 11
182.28
 21
-108.171
 31
0
  0
LINE
  5
BBF
330
A02
100
AcDbEntity
  8
Shape4280
100
AcDbLine
 10
182.28
 20
-108.171
 30
0
 11
182.28
 21
-112.37
 31
0
  0
ARC
  5
BC0
330
A02
100
AcDbEntity
  8
Shape4281
100
AcDbCircle
 10
181.78
 20
-112.37
 30
0
 40
0.5
100
AcDbArc
 50
-90
 51
0
  0
LINE
  5
BC1
330
A02
100
AcDbEntity
  8
Shape4282
100
AcDbLine
 10
181.78
 20
-112.87
 30
0
 11
168.781
 21
-112.87
 31
0
  0
LINE
  5
BC2
330
A02
100
AcDbEntity
  8
Shape4443
100
AcDbLine
 10
396.043
 20
-84.2952
 30
0
 11
391.844
 21
-84.2952
 31
0
  0
ARC
  5
BC3
330
A02
100
AcDbEntity
  8
Shape4444
100
AcDbCircle
 10
396.043
 20
-83.7952
 30
0
 40
0.5
100
AcDbArc
 50
-90
 51
0
  0
LINE
  5
BC4
330
A02
100
AcDbEntity
  8
Shape4445
100
AcDbLine
 10
391.844
 20
-84.2952
 30
0
 11
391.844
 21
-85.8206
 31
0
  0
LINE
  5
BC5
330
A02
100
AcDbEntity
  8
Shape4446
100
AcDbLine
 10
391.844
 20
-85.8206
 30
0
 11
395.073
 21
-85.8206
 31
0
  0
LINE
  5
BC6
330
A02
100
AcDbEntity
  8
Shape4447
100
AcDbLine
 10
395.073
 20
-85.8206
 30
0
 11
395.073
 21
-92.5703
 31
0
  0
LINE
  5
BC7
330
A02
100
AcDbEntity
  8
Shape4448
100
AcDbLine
 10
395.073
 20
-92.5703
 30
0
 11
391.844
 21
-92.5703
 31
0
  0
LINE
  5
BC8
330
A02
100
AcDbEntity
  8
Shape4449
100
AcDbLine
 10
391.844
 20
-92.5703
 30
0
 11
391.844
 21
-93.3958
 31
0
  0
LINE
  5
BC9
330
A02
100
AcDbEntity
  8
Shape4450
100
AcDbLine
 10
391.844
 20
-93.3958
 30
0
 11
389.044
 21
-93.3958
 31
0
  0
LINE
  5
BCA
330
A02
100
AcDbEntity
  8
Shape4451
100
AcDbLine
 10
389.044
 20
-93.3958
 30
0
 11
389.044
 21
-92.5703
 31
0
  0
LINE
  5
BCB
330
A02
100
AcDbEntity
  8
Shape4452
100
AcDbLine
 10
389.044
 20
-92.5703
 30
0
 11
382.774
 21
-92.5703
 31
0
  0
LINE
  5
BCC
330
A02
100
AcDbEntity
  8
Shape4453
100
AcDbLine
 10
382.774
 20
-92.5703
 30
0
 11
382.774
 21
-90.8452
 31
0
  0
LINE
  5
BCD
330
A02
100
AcDbEntity
  8
Shape4454
100
AcDbLine
 10
382.774
 20
-90.8452
 30
0
 11
381.574
 21
-90.8452
 31
0
  0
LINE
  5
BCE
330
A02
100
AcDbEntity
  8
Shape4455
100
AcDbLine
 10
381.574
 20
-90.8452
 30
0
 11
381.574
 21
-87.5461
 31
0
  0
LINE
  5
BCF
330
A02
100
AcDbEntity
  8
Shape4456
100
AcDbLine
 10
381.574
 20
-87.5461
 30
0
 11
382.774
 21
-87.5461
 31
0
  0
LINE
  5
BD0
330
A02
100
AcDbEntity
  8
Shape4457
100
AcDbLine
 10
382.774
 20
-87.5461
 30
0
 11
382.774
 21
-85.8206
 31
0
  0
LINE
  5
BD1
330
A02
100
AcDbEntity
  8
Shape4458
100
AcDbLine
 10
382.774
 20
-85.8206
 30
0
 11
387.243
 21
-85.8206
 31
0
  0
LINE
  5
BD2
330
A02
100
AcDbEntity
  8
Shape4459
100
AcDbLine
 10
387.243
 20
-85.8206
 30
0
 11
387.243
 21
-84.2952
 31
0
  0
LINE
  5
BD3
330
A02
100
AcDbEntity
  8
Shape4460
100
AcDbLine
 10
387.243
 20
-84.2952
 30
0
 11
383.044
 21
-84.2952
 31
0
  0
LINE
  5
BD4
330
A02
100
AcDbEntity
  8
Shape4461
100
AcDbLine
 10
382.544
 20
-83.7952
 30
0
 11
382.544
 21
-70.7959
 31
0
  0
ARC
  5
BD5
330
A02
100
AcDbEntity
  8
Shape4462
100
AcDbCircle
 10
383.044
 20
-83.7952
 30
0
 40
0.5
100
AcDbArc
 50
180
 51
-90
  0
LINE
  5
BD6
330
A02
100
AcDbEntity
  8
Shape4463
100
AcDbLine
 10
383.044
 20
-70.2959
 30
0
 11
387.243
 21
-70.2959
 31
0
  0
ARC
  5
BD7
330
A02
100
AcDbEntity
  8
Shape4464
100
AcDbCircle
 10
383.044
 20
-70.7959
 30
0
 40
0.5
100
AcDbArc
 50
90
 51
180
  0
LINE
  5
BD8
330
A02
100
AcDbEntity
  8
Shape4465
100
AcDbLine
 10
387.243
 20
-70.2959
 30
0
 11
387.243
 21
-68.7702
 31
0
  0
LINE
  5
BD9
330
A02
100
AcDbEntity
  8
Shape4466
100
AcDbLine
 10
387.243
 20
-68.7702
 30
0
 11
382.774
 21
-68.7702
 31
0
  0
LINE
  5
BDA
330
A02
100
AcDbEntity
  8
Shape4467
100
AcDbLine
 10
382.774
 20
-68.7702
 30
0
 11
382.774
 21
-67.0465
 31
0
  0
LINE
  5
BDB
330
A02
100
AcDbEntity
  8
Shape4468
100
AcDbLine
 10
382.774
 20
-67.0465
 30
0
 11
381.574
 21
-67.0465
 31
0
  0
LINE
  5
BDC
330
A02
100
AcDbEntity
  8
Shape4469
100
AcDbLine
 10
381.574
 20
-67.0465
 30
0
 11
381.574
 21
-63.7459
 31
0
  0
LINE
  5
BDD
330
A02
100
AcDbEntity
  8
Shape4470
100
AcDbLine
 10
381.574
 20
-63.7459
 30
0
 11
382.774
 21
-63.7459
 31
0
  0
LINE
  5
BDE
330
A02
100
AcDbEntity
  8
Shape4471
100
AcDbLine
 10
382.774
 20
-63.7459
 30
0
 11
382.774
 21
-62.0208
 31
0
  0
LINE
  5
BDF
330
A02
100
AcDbEntity
  8
Shape4472
100
AcDbLine
 10
382.774
 20
-62.0208
 30
0
 11
389.044
 21
-62.0208
 31
0
  0
LINE
  5
BE0
330
A02
100
AcDbEntity
  8
Shape4473
100
AcDbLine
 10
389.044
 20
-62.0208
 30
0
 11
389.044
 21
-61.1953
 31
0
  0
LINE
  5
BE1
330
A02
100
AcDbEntity
  8
Shape4474
100
AcDbLine
 10
389.044
 20
-61.1953
 30
0
 11
391.844
 21
-61.1953
 31
0
  0
LINE
  5
BE2
330
A02
100
AcDbEntity
  8
Shape4475
100
AcDbLine
 10
391.844
 20
-61.1953
 30
0
 11
391.844
 21
-62.0208
 31
0
  0
LINE
  5
BE3
330
A02
100
AcDbEntity
  8
Shape4476
100
AcDbLine
 10
391.844
 20
-62.0208
 30
0
 11
395.073
 21
-62.0208
 31
0
  0
LINE
  5
BE4
330
A02
100
AcDbEntity
  8
Shape4477
100
AcDbLine
 10
395.073
 20
-62.0208
 30
0
 11
395.073
 21
-68.7702
 31
0
  0
LINE
  5
BE5
330
A02
100
AcDbEntity
  8
Shape4478
100
AcDbLine
 10
395.073
 20
-68.7702
 30
0
 11
391.844
 21
-68.7702
 31
0
  0
LINE
  5
BE6
330
A02
100
AcDbEntity
  8
Shape4479
100
AcDbLine
 10
391.844
 20
-68.7702
 30
0
 11
391.844
 21
-70.2959
 31
0
  0
LINE
  5
BE7
330
A02
100
AcDbEntity
  8
Shape4480
100
AcDbLine
 10
391.844
 20
-70.2959
 30
0
 11
396.043
 21
-70.2959
 31
0
  0
ARC
  5
BE8
330
A02
100
AcDbEntity
  8
Shape4481
100
AcDbCircle
 10
396.043
 20
-70.7959
 30
0
 40
0.5
100
AcDbArc
 50
0
 51
90
  0
LINE
  5
BE9
330
A02
100
AcDbEntity
  8
Shape4482
100
AcDbLine
 10
396.543
 20
-70.7959
 30
0
 11
396.543
 21
-83.7952
 31
0
  0
CIRCLE
  5
BEA
330
A02
100
AcDbEntity
  8
Shape12734
100
AcDbCircle
 10
377.319
 20
-77.3211
 40
1.5
  0
ENDSEC
  0
SECTION
  2
OBJECTS
  0
DICTIONARY
  5
F000
330
0
100
AcDbDictionary
  3
ACAD_GROUP
350
F001
  0
DICTIONARY
  5
F001
330
F000
100
AcDbDictionary
  0
ENDSEC
  0
EOF