999
FreeCAD v0.21 33771 (Git)
  0
SECTION
  2
HEADER
  9
$ACADVER
  1
AC1014
  9
$ACADMAINTVER
 70
     9
  9
$DWGCODEPAGE
  3
ANSI_1252
  9
$TEXTSTYLE
  7
STANDARD
  9
$DIMSTYLE
  2
STANDARD
  9
$DIMTXSTY
  7
STANDARD
  9
$CMLSTYLE
  2
STANDARD
  9
$LUNITS
 70
2
  9
$INSUNITS
 70
4
  9
$PEXTMAX
 10
50
 20
50
 30
50
  9
$PEXTMIN
 10
0
 20
0
 30
0
  9
$HANDSEED
  5
FFFF
  0
ENDSEC
  0
SECTION
  2
CLASSES
  0
CLASS
  1
ACDBDICTIONARYWDFLT
  2
AcDbDictionaryWithDefault
  3
ObjectDBX Classes
 90
        0
280
     0
281
     0
  0
CLASS
  1
XRECORD
  2
AcDbXrecord
  3
ObjectDBX Classes
 90
        0
280
     0
281
     0
  0
CLASS
  1
LWPOLYLINE
  2
AcDbPolyline
  3
ObjectDBX Classes
 90
        0
280
     0
281
     1
  0
ENDSEC
  0
SECTION
  2
TABLES
  0
TABLE
  2
VPORT
  5
20
330
0
100
AcDbSymbolTable
 70
     1
  0
VPORT
  5
21
330
20
100
AcDbSymbolTableRecord
100
AcDbViewportTableRecord
  2
*ACTIVE
 70
     0
  0
ENDTAB
  0
TABLE
  2
LTYPE
  5
22
330
0
100
AcDbSymbolTable
 70
     1
  0
LTYPE
  5
23
330
21
100
AcDbSymbolTableRecord
100
AcDbLinetypeTableRecord
  2
BYBLOCK
 70
     0
  3

 72
    65
 73
     0
 40
0.0
  0
LTYPE
  5
24
330
21
100
AcDbSymbolTableRecord
100
AcDbLinetypeTableRecord
  2
BYLAYER
 70
     0
  3

 72
    65
 73
     0
 40
0.0
  0
LTYPE
  5
25
330
21
100
AcDbSymbolTableRecord
100
AcDbLinetypeTableRecord
  2
CONTINUOUS
 70
     0
  3
Solid line
 72
    65
 73
     0
 40
0.0
  0
ENDTAB
  0
TABLE
  2
LAYER
  5
BC3
330
0
100
AcDbSymbolTable
 70
445
  0
LAYER
  5
BC4
330
BC3
100
AcDbSymbolTableRecord
100
AcDbLayerTableRecord
  2
0
 70
   0
 62
   7
  6
CONTINUOUS
  0
LAYER
  5
BC5
330
BC3
100
AcDbSymbolTableRecord
100
AcDbLayerTableRecord
  2
none
 70
    0
 62
    7
  6
CONTINUOUS
  0
LAYER
  5
BC6
330
BC3
100
AcDbSymbolTableRecord
100
AcDbLayerTableRecord
  2
Shape8148
 70
    0
 62
    7
  6
CONTINUOUS
  0
LAYER
  5
BC7
330
BC3
100
AcDbSymbolTableRecord
100
AcDbLayerTableRecord
  2
Shape8149
 70
    0
 62
    7
  6
CONTINUOUS
  0
LAYER
  5
BC8
330
BC3
100
AcDbSymbolTableRecord
100
AcDbLayerTableRecord
  2
Shape8150
 70
    0
 62
    7
  6
CONTINUOUS
  0
LAYER
  5
BC9
330
BC3
100
AcDbSymbolTableRecord
100
AcDbLayerTableRecord
  2
Shape8151
 70
    0
 62
    7
  6
CONTINUOUS
  0
LAYER
  5
BCA
330
BC3
100
AcDbSymbolTableRecord
100
AcDbLayerTableRecord
  2
Shape8152
 70
    0
 62
    7
  6
CONTINUOUS
  0
LAYER
  5
BCB
330
BC3
100
AcDbSymbolTableRecord
100
AcDbLayerTableRecord
  2
Shape8153
 70
    0
 62
    7
  6
CONTINUOUS
  0
LAYER
  5
BCC
330
BC3
100
AcDbSymbolTableRecord
100
AcDbLayerTableRecord
  2
Shape8154
 70
    0
 62
    7
  6
CONTINUOUS
  0
LAYER
  5
BCD
330
BC3
100
AcDbSymbolTableRecord
100
AcDbLayerTableRecord
  2
Shape8155
 70
    0
 62
    7
  6
CONTINUOUS
  0
LAYER
  5
BCE
330
BC3
100
AcDbSymbolTableRecord
100
AcDbLayerTableRecord
  2
Shape8156
 70
    0
 62
    7
  6
CONTINUOUS
  0
LAYER
  5
BCF
330
BC3
100
AcDbSymbolTableRecord
100
AcDbLayerTableRecord
  2
Shape8157
 70
    0
 62
    7
  6
CONTINUOUS
  0
LAYER
  5
BD0
330
BC3
100
AcDbSymbolTableRecord
100
AcDbLayerTableRecord
  2
Shape8158
 70
    0
 62
    7
  6
CONTINUOUS
  0
LAYER
  5
BD1
330
BC3
100
AcDbSymbolTableRecord
100
AcDbLayerTableRecord
  2
Shape8159
 70
    0
 62
    7
  6
CONTINUOUS
  0
LAYER
  5
BD2
330
BC3
100
AcDbSymbolTableRecord
100
AcDbLayerTableRecord
  2
Shape8160
 70
    0
 62
    7
  6
CONTINUOUS
  0
LAYER
  5
BD3
330
BC3
100
AcDbSymbolTableRecord
100
AcDbLayerTableRecord
  2
Shape8161
 70
    0
 62
    7
  6
CONTINUOUS
  0
LAYER
  5
BD4
330
BC3
100
AcDbSymbolTableRecord
100
AcDbLayerTableRecord
  2
Shape8162
 70
    0
 62
    7
  6
CONTINUOUS
  0
LAYER
  5
BD5
330
BC3
100
AcDbSymbolTableRecord
100
AcDbLayerTableRecord
  2
Shape8163
 70
    0
 62
    7
  6
CONTINUOUS
  0
LAYER
  5
BD6
330
BC3
100
AcDbSymbolTableRecord
100
AcDbLayerTableRecord
  2
Shape8164
 70
    0
 62
    7
  6
CONTINUOUS
  0
LAYER
  5
BD7
330
BC3
100
AcDbSymbolTableRecord
100
AcDbLayerTableRecord
  2
Shape8165
 70
    0
 62
    7
  6
CONTINUOUS
  0
LAYER
  5
BD8
330
BC3
100
AcDbSymbolTableRecord
100
AcDbLayerTableRecord
  2
Shape8166
 70
    0
 62
    7
  6
CONTINUOUS
  0
LAYER
  5
BD9
330
BC3
100
AcDbSymbolTableRecord
100
AcDbLayerTableRecord
  2
Shape8167
 70
    0
 62
    7
  6
CONTINUOUS
  0
LAYER
  5
BDA
330
BC3
100
AcDbSymbolTableRecord
100
AcDbLayerTableRecord
  2
Shape8168
 70
    0
 62
    7
  6
CONTINUOUS
  0
LAYER
  5
BDB
330
BC3
100
AcDbSymbolTableRecord
100
AcDbLayerTableRecord
  2
Shape8169
 70
    0
 62
    7
  6
CONTINUOUS
  0
LAYER
  5
BDC
330
BC3
100
AcDbSymbolTableRecord
100
AcDbLayerTableRecord
  2
Shape8170
 70
    0
 62
    7
  6
CONTINUOUS
  0
LAYER
  5
BDD
330
BC3
100
AcDbSymbolTableRecord
100
AcDbLayerTableRecord
  2
Shape8171
 70
    0
 62
    7
  6
CONTINUOUS
  0
LAYER
  5
BDE
330
BC3
100
AcDbSymbolTableRecord
100
AcDbLayerTableRecord
  2
Shape8196
 70
    0
 62
    7
  6
CONTINUOUS
  0
LAYER
  5
BDF
330
BC3
100
AcDbSymbolTableRecord
100
AcDbLayerTableRecord
  2
Shape8197
 70
    0
 62
    7
  6
CONTINUOUS
  0
LAYER
  5
BE0
330
BC3
100
AcDbSymbolTableRecord
100
AcDbLayerTableRecord
  2
Shape8198
 70
    0
 62
    7
  6
CONTINUOUS
  0
LAYER
  5
BE1
330
BC3
100
AcDbSymbolTableRecord
100
AcDbLayerTableRecord
  2
Shape8199
 70
    0
 62
    7
  6
CONTINUOUS
  0
LAYER
  5
BE2
330
BC3
100
AcDbSymbolTableRecord
100
AcDbLayerTableRecord
  2
Shape8200
 70
    0
 62
    7
  6
CONTINUOUS
  0
LAYER
  5
BE3
330
BC3
100
AcDbSymbolTableRecord
100
AcDbLayerTableRecord
  2
Shape8201
 70
    0
 62
    7
  6
CONTINUOUS
  0
LAYER
  5
BE4
330
BC3
100
AcDbSymbolTableRecord
100
AcDbLayerTableRecord
  2
Shape8202
 70
    0
 62
    7
  6
CONTINUOUS
  0
LAYER
  5
BE5
330
BC3
100
AcDbSymbolTableRecord
100
AcDbLayerTableRecord
  2
Shape8203
 70
    0
 62
    7
  6
CONTINUOUS
  0
LAYER
  5
BE6
330
BC3
100
AcDbSymbolTableRecord
100
AcDbLayerTableRecord
  2
Shape8204
 70
    0
 62
    7
  6
CONTINUOUS
  0
LAYER
  5
BE7
330
BC3
100
AcDbSymbolTableRecord
100
AcDbLayerTableRecord
  2
Shape8205
 70
    0
 62
    7
  6
CONTINUOUS
  0
LAYER
  5
BE8
330
BC3
100
AcDbSymbolTableRecord
100
AcDbLayerTableRecord
  2
Shape8206
 70
    0
 62
    7
  6
CONTINUOUS
  0
LAYER
  5
BE9
330
BC3
100
AcDbSymbolTableRecord
100
AcDbLayerTableRecord
  2
Shape8207
 70
    0
 62
    7
  6
CONTINUOUS
  0
LAYER
  5
BEA
330
BC3
100
AcDbSymbolTableRecord
100
AcDbLayerTableRecord
  2
Shape8208
 70
    0
 62
    7
  6
CONTINUOUS
  0
LAYER
  5
BEB
330
BC3
100
AcDbSymbolTableRecord
100
AcDbLayerTableRecord
  2
Shape8209
 70
    0
 62
    7
  6
CONTINUOUS
  0
LAYER
  5
BEC
330
BC3
100
AcDbSymbolTableRecord
100
AcDbLayerTableRecord
  2
Shape8210
 70
    0
 62
    7
  6
CONTINUOUS
  0
LAYER
  5
BED
330
BC3
100
AcDbSymbolTableRecord
100
AcDbLayerTableRecord
  2
Shape8211
 70
    0
 62
    7
  6
CONTINUOUS
  0
LAYER
  5
BEE
330
BC3
100
AcDbSymbolTableRecord
100
AcDbLayerTableRecord
  2
Shape8212
 70
    0
 62
    7
  6
CONTINUOUS
  0
LAYER
  5
BEF
330
BC3
100
AcDbSymbolTableRecord
100
AcDbLayerTableRecord
  2
Shape8213
 70
    0
 62
    7
  6
CONTINUOUS
  0
LAYER
  5
BF0
330
BC3
100
AcDbSymbolTableRecord
100
AcDbLayerTableRecord
  2
Shape8214
 70
    0
 62
    7
  6
CONTINUOUS
  0
LAYER
  5
BF1
330
BC3
100
AcDbSymbolTableRecord
100
AcDbLayerTableRecord
  2
Shape8215
 70
    0
 62
    7
  6
CONTINUOUS
  0
LAYER
  5
BF2
330
BC3
100
AcDbSymbolTableRecord
100
AcDbLayerTableRecord
  2
Shape8216
 70
    0
 62
    7
  6
CONTINUOUS
  0
LAYER
  5
BF3
330
BC3
100
AcDbSymbolTableRecord
100
AcDbLayerTableRecord
  2
Shape8217
 70
    0
 62
    7
  6
CONTINUOUS
  0
LAYER
  5
BF4
330
BC3
100
AcDbSymbolTableRecord
100
AcDbLayerTableRecord
  2
Shape8218
 70
    0
 62
    7
  6
CONTINUOUS
  0
LAYER
  5
BF5
330
BC3
100
AcDbSymbolTableRecord
100
AcDbLayerTableRecord
  2
Shape8219
 70
    0
 62
    7
  6
CONTINUOUS
  0
LAYER
  5
BF6
330
BC3
100
AcDbSymbolTableRecord
100
AcDbLayerTableRecord
  2
Shape8220
 70
    0
 62
    7
  6
CONTINUOUS
  0
LAYER
  5
BF7
330
BC3
100
AcDbSymbolTableRecord
100
AcDbLayerTableRecord
  2
Shape8221
 70
    0
 62
    7
  6
CONTINUOUS
  0
LAYER
  5
BF8
330
BC3
100
AcDbSymbolTableRecord
100
AcDbLayerTableRecord
  2
Shape8222
 70
    0
 62
    7
  6
CONTINUOUS
  0
LAYER
  5
BF9
330
BC3
100
AcDbSymbolTableRecord
100
AcDbLayerTableRecord
  2
Shape8223
 70
    0
 62
    7
  6
CONTINUOUS
  0
LAYER
  5
BFA
330
BC3
100
AcDbSymbolTableRecord
100
AcDbLayerTableRecord
  2
Shape8224
 70
    0
 62
    7
  6
CONTINUOUS
  0
LAYER
  5
BFB
330
BC3
100
AcDbSymbolTableRecord
100
AcDbLayerTableRecord
  2
Shape8225
 70
    0
 62
    7
  6
CONTINUOUS
  0
LAYER
  5
BFC
330
BC3
100
AcDbSymbolTableRecord
100
AcDbLayerTableRecord
  2
Shape8226
 70
    0
 62
    7
  6
CONTINUOUS
  0
LAYER
  5
BFD
330
BC3
100
AcDbSymbolTableRecord
100
AcDbLayerTableRecord
  2
Shape8227
 70
    0
 62
    7
  6
CONTINUOUS
  0
LAYER
  5
BFE
330
BC3
100
AcDbSymbolTableRecord
100
AcDbLayerTableRecord
  2
Shape8228
 70
    0
 62
    7
  6
CONTINUOUS
  0
LAYER
  5
BFF
330
BC3
100
AcDbSymbolTableRecord
100
AcDbLayerTableRecord
  2
Shape8229
 70
    0
 62
    7
  6
CONTINUOUS
  0
LAYER
  5
C00
330
BC3
100
AcDbSymbolTableRecord
100
AcDbLayerTableRecord
  2
Shape8230
 70
    0
 62
    7
  6
CONTINUOUS
  0
LAYER
  5
C01
330
BC3
100
AcDbSymbolTableRecord
100
AcDbLayerTableRecord
  2
Shape8231
 70
    0
 62
    7
  6
CONTINUOUS
  0
LAYER
  5
C02
330
BC3
100
AcDbSymbolTableRecord
100
AcDbLayerTableRecord
  2
Shape8232
 70
    0
 62
    7
  6
CONTINUOUS
  0
LAYER
  5
C03
330
BC3
100
AcDbSymbolTableRecord
100
AcDbLayerTableRecord
  2
Shape8233
 70
    0
 62
    7
  6
CONTINUOUS
  0
LAYER
  5
C04
330
BC3
100
AcDbSymbolTableRecord
100
AcDbLayerTableRecord
  2
Shape8234
 70
    0
 62
    7
  6
CONTINUOUS
  0
LAYER
  5
C05
330
BC3
100
AcDbSymbolTableRecord
100
AcDbLayerTableRecord
  2
Shape8235
 70
    0
 62
    7
  6
CONTINUOUS
  0
LAYER
  5
C06
330
BC3
100
AcDbSymbolTableRecord
100
AcDbLayerTableRecord
  2
Shape8236
 70
    0
 62
    7
  6
CONTINUOUS
  0
LAYER
  5
C07
330
BC3
100
AcDbSymbolTableRecord
100
AcDbLayerTableRecord
  2
Shape8237
 70
    0
 62
    7
  6
CONTINUOUS
  0
LAYER
  5
C08
330
BC3
100
AcDbSymbolTableRecord
100
AcDbLayerTableRecord
  2
Shape8238
 70
    0
 62
    7
  6
CONTINUOUS
  0
LAYER
  5
C09
330
BC3
100
AcDbSymbolTableRecord
100
AcDbLayerTableRecord
  2
Shape8239
 70
    0
 62
    7
  6
CONTINUOUS
  0
LAYER
  5
C0A
330
BC3
100
AcDbSymbolTableRecord
100
AcDbLayerTableRecord
  2
Shape8240
 70
    0
 62
    7
  6
CONTINUOUS
  0
LAYER
  5
C0B
330
BC3
100
AcDbSymbolTableRecord
100
AcDbLayerTableRecord
  2
Shape8241
 70
    0
 62
    7
  6
CONTINUOUS
  0
LAYER
  5
C0C
330
BC3
100
AcDbSymbolTableRecord
100
AcDbLayerTableRecord
  2
Shape8242
 70
    0
 62
    7
  6
CONTINUOUS
  0
LAYER
  5
C0D
330
BC3
100
AcDbSymbolTableRecord
100
AcDbLayerTableRecord
  2
Shape8243
 70
    0
 62
    7
  6
CONTINUOUS
  0
LAYER
  5
C0E
330
BC3
100
AcDbSymbolTableRecord
100
AcDbLayerTableRecord
  2
Shape8244
 70
    0
 62
    7
  6
CONTINUOUS
  0
LAYER
  5
C0F
330
BC3
100
AcDbSymbolTableRecord
100
AcDbLayerTableRecord
  2
Shape8245
 70
    0
 62
    7
  6
CONTINUOUS
  0
LAYER
  5
C10
330
BC3
100
AcDbSymbolTableRecord
100
AcDbLayerTableRecord
  2
Shape8246
 70
    0
 62
    7
  6
CONTINUOUS
  0
LAYER
  5
C11
330
BC3
100
AcDbSymbolTableRecord
100
AcDbLayerTableRecord
  2
Shape8247
 70
    0
 62
    7
  6
CONTINUOUS
  0
LAYER
  5
C12
330
BC3
100
AcDbSymbolTableRecord
100
AcDbLayerTableRecord
  2
Shape8248
 70
    0
 62
    7
  6
CONTINUOUS
  0
LAYER
  5
C13
330
BC3
100
AcDbSymbolTableRecord
100
AcDbLayerTableRecord
  2
Shape8249
 70
    0
 62
    7
  6
CONTINUOUS
  0
LAYER
  5
C14
330
BC3
100
AcDbSymbolTableRecord
100
AcDbLayerTableRecord
  2
Shape8250
 70
    0
 62
    7
  6
CONTINUOUS
  0
LAYER
  5
C15
330
BC3
100
AcDbSymbolTableRecord
100
AcDbLayerTableRecord
  2
Shape8251
 70
    0
 62
    7
  6
CONTINUOUS
  0
LAYER
  5
C16
330
BC3
100
AcDbSymbolTableRecord
100
AcDbLayerTableRecord
  2
Shape8252
 70
    0
 62
    7
  6
CONTINUOUS
  0
LAYER
  5
C17
330
BC3
100
AcDbSymbolTableRecord
100
AcDbLayerTableRecord
  2
Shape8253
 70
    0
 62
    7
  6
CONTINUOUS
  0
LAYER
  5
C18
330
BC3
100
AcDbSymbolTableRecord
100
AcDbLayerTableRecord
  2
Shape8254
 70
    0
 62
    7
  6
CONTINUOUS
  0
LAYER
  5
C19
330
BC3
100
AcDbSymbolTableRecord
100
AcDbLayerTableRecord
  2
Shape8255
 70
    0
 62
    7
  6
CONTINUOUS
  0
LAYER
  5
C1A
330
BC3
100
AcDbSymbolTableRecord
100
AcDbLayerTableRecord
  2
Shape8256
 70
    0
 62
    7
  6
CONTINUOUS
  0
LAYER
  5
C1B
330
BC3
100
AcDbSymbolTableRecord
100
AcDbLayerTableRecord
  2
Shape8257
 70
    0
 62
    7
  6
CONTINUOUS
  0
LAYER
  5
C1C
330
BC3
100
AcDbSymbolTableRecord
100
AcDbLayerTableRecord
  2
Shape8258
 70
    0
 62
    7
  6
CONTINUOUS
  0
LAYER
  5
C1D
330
BC3
100
AcDbSymbolTableRecord
100
AcDbLayerTableRecord
  2
Shape8259
 70
    0
 62
    7
  6
CONTINUOUS
  0
LAYER
  5
C1E
330
BC3
100
AcDbSymbolTableRecord
100
AcDbLayerTableRecord
  2
Shape8260
 70
    0
 62
    7
  6
CONTINUOUS
  0
LAYER
  5
C1F
330
BC3
100
AcDbSymbolTableRecord
100
AcDbLayerTableRecord
  2
Shape8261
 70
    0
 62
    7
  6
CONTINUOUS
  0
LAYER
  5
C20
330
BC3
100
AcDbSymbolTableRecord
100
AcDbLayerTableRecord
  2
Shape8262
 70
    0
 62
    7
  6
CONTINUOUS
  0
LAYER
  5
C21
330
BC3
100
AcDbSymbolTableRecord
100
AcDbLayerTableRecord
  2
Shape8263
 70
    0
 62
    7
  6
CONTINUOUS
  0
LAYER
  5
C22
330
BC3
100
AcDbSymbolTableRecord
100
AcDbLayerTableRecord
  2
Shape8264
 70
    0
 62
    7
  6
CONTINUOUS
  0
LAYER
  5
C23
330
BC3
100
AcDbSymbolTableRecord
100
AcDbLayerTableRecord
  2
Shape8265
 70
    0
 62
    7
  6
CONTINUOUS
  0
LAYER
  5
C24
330
BC3
100
AcDbSymbolTableRecord
100
AcDbLayerTableRecord
  2
Shape8266
 70
    0
 62
    7
  6
CONTINUOUS
  0
LAYER
  5
C25
330
BC3
100
AcDbSymbolTableRecord
100
AcDbLayerTableRecord
  2
Shape8267
 70
    0
 62
    7
  6
CONTINUOUS
  0
LAYER
  5
C26
330
BC3
100
AcDbSymbolTableRecord
100
AcDbLayerTableRecord
  2
Shape8268
 70
    0
 62
    7
  6
CONTINUOUS
  0
LAYER
  5
C27
330
BC3
100
AcDbSymbolTableRecord
100
AcDbLayerTableRecord
  2
Shape8269
 70
    0
 62
    7
  6
CONTINUOUS
  0
LAYER
  5
C28
330
BC3
100
AcDbSymbolTableRecord
100
AcDbLayerTableRecord
  2
Shape8270
 70
    0
 62
    7
  6
CONTINUOUS
  0
LAYER
  5
C29
330
BC3
100
AcDbSymbolTableRecord
100
AcDbLayerTableRecord
  2
Shape8271
 70
    0
 62
    7
  6
CONTINUOUS
  0
LAYER
  5
C2A
330
BC3
100
AcDbSymbolTableRecord
100
AcDbLayerTableRecord
  2
Shape8272
 70
    0
 62
    7
  6
CONTINUOUS
  0
LAYER
  5
C2B
330
BC3
100
AcDbSymbolTableRecord
100
AcDbLayerTableRecord
  2
Shape8273
 70
    0
 62
    7
  6
CONTINUOUS
  0
LAYER
  5
C2C
330
BC3
100
AcDbSymbolTableRecord
100
AcDbLayerTableRecord
  2
Shape8274
 70
    0
 62
    7
  6
CONTINUOUS
  0
LAYER
  5
C2D
330
BC3
100
AcDbSymbolTableRecord
100
AcDbLayerTableRecord
  2
Shape8275
 70
    0
 62
    7
  6
CONTINUOUS
  0
LAYER
  5
C2E
330
BC3
100
AcDbSymbolTableRecord
100
AcDbLayerTableRecord
  2
Shape8276
 70
    0
 62
    7
  6
CONTINUOUS
  0
LAYER
  5
C2F
330
BC3
100
AcDbSymbolTableRecord
100
AcDbLayerTableRecord
  2
Shape8277
 70
    0
 62
    7
  6
CONTINUOUS
  0
LAYER
  5
C30
330
BC3
100
AcDbSymbolTableRecord
100
AcDbLayerTableRecord
  2
Shape8278
 70
    0
 62
    7
  6
CONTINUOUS
  0
LAYER
  5
C31
330
BC3
100
AcDbSymbolTableRecord
100
AcDbLayerTableRecord
  2
Shape8279
 70
    0
 62
    7
  6
CONTINUOUS
  0
LAYER
  5
C32
330
BC3
100
AcDbSymbolTableRecord
100
AcDbLayerTableRecord
  2
Shape8280
 70
    0
 62
    7
  6
CONTINUOUS
  0
LAYER
  5
C33
330
BC3
100
AcDbSymbolTableRecord
100
AcDbLayerTableRecord
  2
Shape8281
 70
    0
 62
    7
  6
CONTINUOUS
  0
LAYER
  5
C34
330
BC3
100
AcDbSymbolTableRecord
100
AcDbLayerTableRecord
  2
Shape8282
 70
    0
 62
    7
  6
CONTINUOUS
  0
LAYER
  5
C35
330
BC3
100
AcDbSymbolTableRecord
100
AcDbLayerTableRecord
  2
Shape8283
 70
    0
 62
    7
  6
CONTINUOUS
  0
LAYER
  5
C36
330
BC3
100
AcDbSymbolTableRecord
100
AcDbLayerTableRecord
  2
Shape8284
 70
    0
 62
    7
  6
CONTINUOUS
  0
LAYER
  5
C37
330
BC3
100
AcDbSymbolTableRecord
100
AcDbLayerTableRecord
  2
Shape8285
 70
    0
 62
    7
  6
CONTINUOUS
  0
LAYER
  5
C38
330
BC3
100
AcDbSymbolTableRecord
100
AcDbLayerTableRecord
  2
Shape8286
 70
    0
 62
    7
  6
CONTINUOUS
  0
LAYER
  5
C39
330
BC3
100
AcDbSymbolTableRecord
100
AcDbLayerTableRecord
  2
Shape8287
 70
    0
 62
    7
  6
CONTINUOUS
  0
LAYER
  5
C3A
330
BC3
100
AcDbSymbolTableRecord
100
AcDbLayerTableRecord
  2
Shape8288
 70
    0
 62
    7
  6
CONTINUOUS
  0
LAYER
  5
C3B
330
BC3
100
AcDbSymbolTableRecord
100
AcDbLayerTableRecord
  2
Shape8289
 70
    0
 62
    7
  6
CONTINUOUS
  0
LAYER
  5
C3C
330
BC3
100
AcDbSymbolTableRecord
100
AcDbLayerTableRecord
  2
Shape8290
 70
    0
 62
    7
  6
CONTINUOUS
  0
LAYER
  5
C3D
330
BC3
100
AcDbSymbolTableRecord
100
AcDbLayerTableRecord
  2
Shape8291
 70
    0
 62
    7
  6
CONTINUOUS
  0
LAYER
  5
C3E
330
BC3
100
AcDbSymbolTableRecord
100
AcDbLayerTableRecord
  2
Shape8292
 70
    0
 62
    7
  6
CONTINUOUS
  0
LAYER
  5
C3F
330
BC3
100
AcDbSymbolTableRecord
100
AcDbLayerTableRecord
  2
Shape8293
 70
    0
 62
    7
  6
CONTINUOUS
  0
LAYER
  5
C40
330
BC3
100
AcDbSymbolTableRecord
100
AcDbLayerTableRecord
  2
Shape8294
 70
    0
 62
    7
  6
CONTINUOUS
  0
LAYER
  5
C41
330
BC3
100
AcDbSymbolTableRecord
100
AcDbLayerTableRecord
  2
Shape8295
 70
    0
 62
    7
  6
CONTINUOUS
  0
LAYER
  5
C42
330
BC3
100
AcDbSymbolTableRecord
100
AcDbLayerTableRecord
  2
Shape8296
 70
    0
 62
    7
  6
CONTINUOUS
  0
LAYER
  5
C43
330
BC3
100
AcDbSymbolTableRecord
100
AcDbLayerTableRecord
  2
Shape8297
 70
    0
 62
    7
  6
CONTINUOUS
  0
LAYER
  5
C44
330
BC3
100
AcDbSymbolTableRecord
100
AcDbLayerTableRecord
  2
Shape8298
 70
    0
 62
    7
  6
CONTINUOUS
  0
LAYER
  5
C45
330
BC3
100
AcDbSymbolTableRecord
100
AcDbLayerTableRecord
  2
Shape8299
 70
    0
 62
    7
  6
CONTINUOUS
  0
LAYER
  5
C46
330
BC3
100
AcDbSymbolTableRecord
100
AcDbLayerTableRecord
  2
Shape8300
 70
    0
 62
    7
  6
CONTINUOUS
  0
LAYER
  5
C47
330
BC3
100
AcDbSymbolTableRecord
100
AcDbLayerTableRecord
  2
Shape8301
 70
    0
 62
    7
  6
CONTINUOUS
  0
LAYER
  5
C48
330
BC3
100
AcDbSymbolTableRecord
100
AcDbLayerTableRecord
  2
Shape8302
 70
    0
 62
    7
  6
CONTINUOUS
  0
LAYER
  5
C49
330
BC3
100
AcDbSymbolTableRecord
100
AcDbLayerTableRecord
  2
Shape8303
 70
    0
 62
    7
  6
CONTINUOUS
  0
LAYER
  5
C4A
330
BC3
100
AcDbSymbolTableRecord
100
AcDbLayerTableRecord
  2
Shape8304
 70
    0
 62
    7
  6
CONTINUOUS
  0
LAYER
  5
C4B
330
BC3
100
AcDbSymbolTableRecord
100
AcDbLayerTableRecord
  2
Shape8305
 70
    0
 62
    7
  6
CONTINUOUS
  0
LAYER
  5
C4C
330
BC3
100
AcDbSymbolTableRecord
100
AcDbLayerTableRecord
  2
Shape8306
 70
    0
 62
    7
  6
CONTINUOUS
  0
LAYER
  5
C4D
330
BC3
100
AcDbSymbolTableRecord
100
AcDbLayerTableRecord
  2
Shape8307
 70
    0
 62
    7
  6
CONTINUOUS
  0
LAYER
  5
C4E
330
BC3
100
AcDbSymbolTableRecord
100
AcDbLayerTableRecord
  2
Shape8308
 70
    0
 62
    7
  6
CONTINUOUS
  0
LAYER
  5
C4F
330
BC3
100
AcDbSymbolTableRecord
100
AcDbLayerTableRecord
  2
Shape8309
 70
    0
 62
    7
  6
CONTINUOUS
  0
LAYER
  5
C50
330
BC3
100
AcDbSymbolTableRecord
100
AcDbLayerTableRecord
  2
Shape8310
 70
    0
 62
    7
  6
CONTINUOUS
  0
LAYER
  5
C51
330
BC3
100
AcDbSymbolTableRecord
100
AcDbLayerTableRecord
  2
Shape8311
 70
    0
 62
    7
  6
CONTINUOUS
  0
LAYER
  5
C52
330
BC3
100
AcDbSymbolTableRecord
100
AcDbLayerTableRecord
  2
Shape8312
 70
    0
 62
    7
  6
CONTINUOUS
  0
LAYER
  5
C53
330
BC3
100
AcDbSymbolTableRecord
100
AcDbLayerTableRecord
  2
Shape8313
 70
    0
 62
    7
  6
CONTINUOUS
  0
LAYER
  5
C54
330
BC3
100
AcDbSymbolTableRecord
100
AcDbLayerTableRecord
  2
Shape8314
 70
    0
 62
    7
  6
CONTINUOUS
  0
LAYER
  5
C55
330
BC3
100
AcDbSymbolTableRecord
100
AcDbLayerTableRecord
  2
Shape8315
 70
    0
 62
    7
  6
CONTINUOUS
  0
LAYER
  5
C56
330
BC3
100
AcDbSymbolTableRecord
100
AcDbLayerTableRecord
  2
Shape8316
 70
    0
 62
    7
  6
CONTINUOUS
  0
LAYER
  5
C57
330
BC3
100
AcDbSymbolTableRecord
100
AcDbLayerTableRecord
  2
Shape8317
 70
    0
 62
    7
  6
CONTINUOUS
  0
LAYER
  5
C58
330
BC3
100
AcDbSymbolTableRecord
100
AcDbLayerTableRecord
  2
Shape8318
 70
    0
 62
    7
  6
CONTINUOUS
  0
LAYER
  5
C59
330
BC3
100
AcDbSymbolTableRecord
100
AcDbLayerTableRecord
  2
Shape8319
 70
    0
 62
    7
  6
CONTINUOUS
  0
LAYER
  5
C5A
330
BC3
100
AcDbSymbolTableRecord
100
AcDbLayerTableRecord
  2
Shape8320
 70
    0
 62
    7
  6
CONTINUOUS
  0
LAYER
  5
C5B
330
BC3
100
AcDbSymbolTableRecord
100
AcDbLayerTableRecord
  2
Shape8321
 70
    0
 62
    7
  6
CONTINUOUS
  0
LAYER
  5
C5C
330
BC3
100
AcDbSymbolTableRecord
100
AcDbLayerTableRecord
  2
Shape8322
 70
    0
 62
    7
  6
CONTINUOUS
  0
LAYER
  5
C5D
330
BC3
100
AcDbSymbolTableRecord
100
AcDbLayerTableRecord
  2
Shape8323
 70
    0
 62
    7
  6
CONTINUOUS
  0
LAYER
  5
C5E
330
BC3
100
AcDbSymbolTableRecord
100
AcDbLayerTableRecord
  2
Shape8324
 70
    0
 62
    7
  6
CONTINUOUS
  0
LAYER
  5
C5F
330
BC3
100
AcDbSymbolTableRecord
100
AcDbLayerTableRecord
  2
Shape8325
 70
    0
 62
    7
  6
CONTINUOUS
  0
LAYER
  5
C60
330
BC3
100
AcDbSymbolTableRecord
100
AcDbLayerTableRecord
  2
Shape8326
 70
    0
 62
    7
  6
CONTINUOUS
  0
LAYER
  5
C61
330
BC3
100
AcDbSymbolTableRecord
100
AcDbLayerTableRecord
  2
Shape8327
 70
    0
 62
    7
  6
CONTINUOUS
  0
LAYER
  5
C62
330
BC3
100
AcDbSymbolTableRecord
100
AcDbLayerTableRecord
  2
Shape9704
 70
    0
 62
    7
  6
CONTINUOUS
  0
LAYER
  5
C63
330
BC3
100
AcDbSymbolTableRecord
100
AcDbLayerTableRecord
  2
Shape9705
 70
    0
 62
    7
  6
CONTINUOUS
  0
LAYER
  5
C64
330
BC3
100
AcDbSymbolTableRecord
100
AcDbLayerTableRecord
  2
Shape9706
 70
    0
 62
    7
  6
CONTINUOUS
  0
LAYER
  5
C65
330
BC3
100
AcDbSymbolTableRecord
100
AcDbLayerTableRecord
  2
Shape9707
 70
    0
 62
    7
  6
CONTINUOUS
  0
LAYER
  5
C66
330
BC3
100
AcDbSymbolTableRecord
100
AcDbLayerTableRecord
  2
Shape9708
 70
    0
 62
    7
  6
CONTINUOUS
  0
LAYER
  5
C67
330
BC3
100
AcDbSymbolTableRecord
100
AcDbLayerTableRecord
  2
Shape9709
 70
    0
 62
    7
  6
CONTINUOUS
  0
LAYER
  5
C68
330
BC3
100
AcDbSymbolTableRecord
100
AcDbLayerTableRecord
  2
Shape9710
 70
    0
 62
    7
  6
CONTINUOUS
  0
LAYER
  5
C69
330
BC3
100
AcDbSymbolTableRecord
100
AcDbLayerTableRecord
  2
Shape9711
 70
    0
 62
    7
  6
CONTINUOUS
  0
LAYER
  5
C6A
330
BC3
100
AcDbSymbolTableRecord
100
AcDbLayerTableRecord
  2
Shape9712
 70
    0
 62
    7
  6
CONTINUOUS
  0
LAYER
  5
C6B
330
BC3
100
AcDbSymbolTableRecord
100
AcDbLayerTableRecord
  2
Shape9713
 70
    0
 62
    7
  6
CONTINUOUS
  0
LAYER
  5
C6C
330
BC3
100
AcDbSymbolTableRecord
100
AcDbLayerTableRecord
  2
Shape9714
 70
    0
 62
    7
  6
CONTINUOUS
  0
LAYER
  5
C6D
330
BC3
100
AcDbSymbolTableRecord
100
AcDbLayerTableRecord
  2
Shape9715
 70
    0
 62
    7
  6
CONTINUOUS
  0
LAYER
  5
C6E
330
BC3
100
AcDbSymbolTableRecord
100
AcDbLayerTableRecord
  2
Shape9716
 70
    0
 62
    7
  6
CONTINUOUS
  0
LAYER
  5
C6F
330
BC3
100
AcDbSymbolTableRecord
100
AcDbLayerTableRecord
  2
Shape9717
 70
    0
 62
    7
  6
CONTINUOUS
  0
LAYER
  5
C70
330
BC3
100
AcDbSymbolTableRecord
100
AcDbLayerTableRecord
  2
Shape9718
 70
    0
 62
    7
  6
CONTINUOUS
  0
LAYER
  5
C71
330
BC3
100
AcDbSymbolTableRecord
100
AcDbLayerTableRecord
  2
Shape9719
 70
    0
 62
    7
  6
CONTINUOUS
  0
LAYER
  5
C72
330
BC3
100
AcDbSymbolTableRecord
100
AcDbLayerTableRecord
  2
Shape9720
 70
    0
 62
    7
  6
CONTINUOUS
  0
LAYER
  5
C73
330
BC3
100
AcDbSymbolTableRecord
100
AcDbLayerTableRecord
  2
Shape9721
 70
    0
 62
    7
  6
CONTINUOUS
  0
LAYER
  5
C74
330
BC3
100
AcDbSymbolTableRecord
100
AcDbLayerTableRecord
  2
Shape9722
 70
    0
 62
    7
  6
CONTINUOUS
  0
LAYER
  5
C75
330
BC3
100
AcDbSymbolTableRecord
100
AcDbLayerTableRecord
  2
Shape9723
 70
    0
 62
    7
  6
CONTINUOUS
  0
LAYER
  5
C76
330
BC3
100
AcDbSymbolTableRecord
100
AcDbLayerTableRecord
  2
Shape9724
 70
    0
 62
    7
  6
CONTINUOUS
  0
LAYER
  5
C77
330
BC3
100
AcDbSymbolTableRecord
100
AcDbLayerTableRecord
  2
Shape9725
 70
    0
 62
    7
  6
CONTINUOUS
  0
LAYER
  5
C78
330
BC3
100
AcDbSymbolTableRecord
100
AcDbLayerTableRecord
  2
Shape9726
 70
    0
 62
    7
  6
CONTINUOUS
  0
LAYER
  5
C79
330
BC3
100
AcDbSymbolTableRecord
100
AcDbLayerTableRecord
  2
Shape9727
 70
    0
 62
    7
  6
CONTINUOUS
  0
LAYER
  5
C7A
330
BC3
100
AcDbSymbolTableRecord
100
AcDbLayerTableRecord
  2
Shape9728
 70
    0
 62
    7
  6
CONTINUOUS
  0
LAYER
  5
C7B
330
BC3
100
AcDbSymbolTableRecord
100
AcDbLayerTableRecord
  2
Shape9729
 70
    0
 62
    7
  6
CONTINUOUS
  0
LAYER
  5
C7C
330
BC3
100
AcDbSymbolTableRecord
100
AcDbLayerTableRecord
  2
Shape9730
 70
    0
 62
    7
  6
CONTINUOUS
  0
LAYER
  5
C7D
330
BC3
100
AcDbSymbolTableRecord
100
AcDbLayerTableRecord
  2
Shape9731
 70
    0
 62
    7
  6
CONTINUOUS
  0
LAYER
  5
C7E
330
BC3
100
AcDbSymbolTableRecord
100
AcDbLayerTableRecord
  2
Shape9732
 70
    0
 62
    7
  6
CONTINUOUS
  0
LAYER
  5
C7F
330
BC3
100
AcDbSymbolTableRecord
100
AcDbLayerTableRecord
  2
Shape9733
 70
    0
 62
    7
  6
CONTINUOUS
  0
LAYER
  5
C80
330
BC3
100
AcDbSymbolTableRecord
100
AcDbLayerTableRecord
  2
Shape9734
 70
    0
 62
    7
  6
CONTINUOUS
  0
LAYER
  5
C81
330
BC3
100
AcDbSymbolTableRecord
100
AcDbLayerTableRecord
  2
Shape9735
 70
    0
 62
    7
  6
CONTINUOUS
  0
LAYER
  5
C82
330
BC3
100
AcDbSymbolTableRecord
100
AcDbLayerTableRecord
  2
Shape9736
 70
    0
 62
    7
  6
CONTINUOUS
  0
LAYER
  5
C83
330
BC3
100
AcDbSymbolTableRecord
100
AcDbLayerTableRecord
  2
Shape9737
 70
    0
 62
    7
  6
CONTINUOUS
  0
LAYER
  5
C84
330
BC3
100
AcDbSymbolTableRecord
100
AcDbLayerTableRecord
  2
Shape9738
 70
    0
 62
    7
  6
CONTINUOUS
  0
LAYER
  5
C85
330
BC3
100
AcDbSymbolTableRecord
100
AcDbLayerTableRecord
  2
Shape9739
 70
    0
 62
    7
  6
CONTINUOUS
  0
LAYER
  5
C86
330
BC3
100
AcDbSymbolTableRecord
100
AcDbLayerTableRecord
  2
Shape9740
 70
    0
 62
    7
  6
CONTINUOUS
  0
LAYER
  5
C87
330
BC3
100
AcDbSymbolTableRecord
100
AcDbLayerTableRecord
  2
Shape9741
 70
    0
 62
    7
  6
CONTINUOUS
  0
LAYER
  5
C88
330
BC3
100
AcDbSymbolTableRecord
100
AcDbLayerTableRecord
  2
Shape9742
 70
    0
 62
    7
  6
CONTINUOUS
  0
LAYER
  5
C89
330
BC3
100
AcDbSymbolTableRecord
100
AcDbLayerTableRecord
  2
Shape9743
 70
    0
 62
    7
  6
CONTINUOUS
  0
LAYER
  5
C8A
330
BC3
100
AcDbSymbolTableRecord
100
AcDbLayerTableRecord
  2
Shape9744
 70
    0
 62
    7
  6
CONTINUOUS
  0
LAYER
  5
C8B
330
BC3
100
AcDbSymbolTableRecord
100
AcDbLayerTableRecord
  2
Shape9745
 70
    0
 62
    7
  6
CONTINUOUS
  0
LAYER
  5
C8C
330
BC3
100
AcDbSymbolTableRecord
100
AcDbLayerTableRecord
  2
Shape9746
 70
    0
 62
    7
  6
CONTINUOUS
  0
LAYER
  5
C8D
330
BC3
100
AcDbSymbolTableRecord
100
AcDbLayerTableRecord
  2
Shape9747
 70
    0
 62
    7
  6
CONTINUOUS
  0
LAYER
  5
C8E
330
BC3
100
AcDbSymbolTableRecord
100
AcDbLayerTableRecord
  2
Shape9748
 70
    0
 62
    7
  6
CONTINUOUS
  0
LAYER
  5
C8F
330
BC3
100
AcDbSymbolTableRecord
100
AcDbLayerTableRecord
  2
Shape9749
 70
    0
 62
    7
  6
CONTINUOUS
  0
LAYER
  5
C90
330
BC3
100
AcDbSymbolTableRecord
100
AcDbLayerTableRecord
  2
Shape9750
 70
    0
 62
    7
  6
CONTINUOUS
  0
LAYER
  5
C91
330
BC3
100
AcDbSymbolTableRecord
100
AcDbLayerTableRecord
  2
Shape9751
 70
    0
 62
    7
  6
CONTINUOUS
  0
LAYER
  5
C92
330
BC3
100
AcDbSymbolTableRecord
100
AcDbLayerTableRecord
  2
Shape9752
 70
    0
 62
    7
  6
CONTINUOUS
  0
LAYER
  5
C93
330
BC3
100
AcDbSymbolTableRecord
100
AcDbLayerTableRecord
  2
Shape9753
 70
    0
 62
    7
  6
CONTINUOUS
  0
LAYER
  5
C94
330
BC3
100
AcDbSymbolTableRecord
100
AcDbLayerTableRecord
  2
Shape9754
 70
    0
 62
    7
  6
CONTINUOUS
  0
LAYER
  5
C95
330
BC3
100
AcDbSymbolTableRecord
100
AcDbLayerTableRecord
  2
Shape9755
 70
    0
 62
    7
  6
CONTINUOUS
  0
LAYER
  5
C96
330
BC3
100
AcDbSymbolTableRecord
100
AcDbLayerTableRecord
  2
Shape9756
 70
    0
 62
    7
  6
CONTINUOUS
  0
LAYER
  5
C97
330
BC3
100
AcDbSymbolTableRecord
100
AcDbLayerTableRecord
  2
Shape9757
 70
    0
 62
    7
  6
CONTINUOUS
  0
LAYER
  5
C98
330
BC3
100
AcDbSymbolTableRecord
100
AcDbLayerTableRecord
  2
Shape9758
 70
    0
 62
    7
  6
CONTINUOUS
  0
LAYER
  5
C99
330
BC3
100
AcDbSymbolTableRecord
100
AcDbLayerTableRecord
  2
Shape9759
 70
    0
 62
    7
  6
CONTINUOUS
  0
LAYER
  5
C9A
330
BC3
100
AcDbSymbolTableRecord
100
AcDbLayerTableRecord
  2
Shape9760
 70
    0
 62
    7
  6
CONTINUOUS
  0
LAYER
  5
C9B
330
BC3
100
AcDbSymbolTableRecord
100
AcDbLayerTableRecord
  2
Shape9761
 70
    0
 62
    7
  6
CONTINUOUS
  0
LAYER
  5
C9C
330
BC3
100
AcDbSymbolTableRecord
100
AcDbLayerTableRecord
  2
Shape9762
 70
    0
 62
    7
  6
CONTINUOUS
  0
LAYER
  5
C9D
330
BC3
100
AcDbSymbolTableRecord
100
AcDbLayerTableRecord
  2
Shape9763
 70
    0
 62
    7
  6
CONTINUOUS
  0
LAYER
  5
C9E
330
BC3
100
AcDbSymbolTableRecord
100
AcDbLayerTableRecord
  2
Shape9764
 70
    0
 62
    7
  6
CONTINUOUS
  0
LAYER
  5
C9F
330
BC3
100
AcDbSymbolTableRecord
100
AcDbLayerTableRecord
  2
Shape9765
 70
    0
 62
    7
  6
CONTINUOUS
  0
LAYER
  5
CA0
330
BC3
100
AcDbSymbolTableRecord
100
AcDbLayerTableRecord
  2
Shape9766
 70
    0
 62
    7
  6
CONTINUOUS
  0
LAYER
  5
CA1
330
BC3
100
AcDbSymbolTableRecord
100
AcDbLayerTableRecord
  2
Shape9767
 70
    0
 62
    7
  6
CONTINUOUS
  0
LAYER
  5
CA2
330
BC3
100
AcDbSymbolTableRecord
100
AcDbLayerTableRecord
  2
Shape9768
 70
    0
 62
    7
  6
CONTINUOUS
  0
LAYER
  5
CA3
330
BC3
100
AcDbSymbolTableRecord
100
AcDbLayerTableRecord
  2
Shape9769
 70
    0
 62
    7
  6
CONTINUOUS
  0
LAYER
  5
CA4
330
BC3
100
AcDbSymbolTableRecord
100
AcDbLayerTableRecord
  2
Shape9770
 70
    0
 62
    7
  6
CONTINUOUS
  0
LAYER
  5
CA5
330
BC3
100
AcDbSymbolTableRecord
100
AcDbLayerTableRecord
  2
Shape9771
 70
    0
 62
    7
  6
CONTINUOUS
  0
LAYER
  5
CA6
330
BC3
100
AcDbSymbolTableRecord
100
AcDbLayerTableRecord
  2
Shape9772
 70
    0
 62
    7
  6
CONTINUOUS
  0
LAYER
  5
CA7
330
BC3
100
AcDbSymbolTableRecord
100
AcDbLayerTableRecord
  2
Shape9773
 70
    0
 62
    7
  6
CONTINUOUS
  0
LAYER
  5
CA8
330
BC3
100
AcDbSymbolTableRecord
100
AcDbLayerTableRecord
  2
Shape9774
 70
    0
 62
    7
  6
CONTINUOUS
  0
LAYER
  5
CA9
330
BC3
100
AcDbSymbolTableRecord
100
AcDbLayerTableRecord
  2
Shape9775
 70
    0
 62
    7
  6
CONTINUOUS
  0
LAYER
  5
CAA
330
BC3
100
AcDbSymbolTableRecord
100
AcDbLayerTableRecord
  2
Shape9776
 70
    0
 62
    7
  6
CONTINUOUS
  0
LAYER
  5
CAB
330
BC3
100
AcDbSymbolTableRecord
100
AcDbLayerTableRecord
  2
Shape9777
 70
    0
 62
    7
  6
CONTINUOUS
  0
LAYER
  5
CAC
330
BC3
100
AcDbSymbolTableRecord
100
AcDbLayerTableRecord
  2
Shape9778
 70
    0
 62
    7
  6
CONTINUOUS
  0
LAYER
  5
CAD
330
BC3
100
AcDbSymbolTableRecord
100
AcDbLayerTableRecord
  2
Shape9779
 70
    0
 62
    7
  6
CONTINUOUS
  0
LAYER
  5
CAE
330
BC3
100
AcDbSymbolTableRecord
100
AcDbLayerTableRecord
  2
Shape9780
 70
    0
 62
    7
  6
CONTINUOUS
  0
LAYER
  5
CAF
330
BC3
100
AcDbSymbolTableRecord
100
AcDbLayerTableRecord
  2
Shape9781
 70
    0
 62
    7
  6
CONTINUOUS
  0
LAYER
  5
CB0
330
BC3
100
AcDbSymbolTableRecord
100
AcDbLayerTableRecord
  2
Shape9782
 70
    0
 62
    7
  6
CONTINUOUS
  0
LAYER
  5
CB1
330
BC3
100
AcDbSymbolTableRecord
100
AcDbLayerTableRecord
  2
Shape9783
 70
    0
 62
    7
  6
CONTINUOUS
  0
LAYER
  5
CB2
330
BC3
100
AcDbSymbolTableRecord
100
AcDbLayerTableRecord
  2
Shape9784
 70
    0
 62
    7
  6
CONTINUOUS
  0
LAYER
  5
CB3
330
BC3
100
AcDbSymbolTableRecord
100
AcDbLayerTableRecord
  2
Shape9785
 70
    0
 62
    7
  6
CONTINUOUS
  0
LAYER
  5
CB4
330
BC3
100
AcDbSymbolTableRecord
100
AcDbLayerTableRecord
  2
Shape9786
 70
    0
 62
    7
  6
CONTINUOUS
  0
LAYER
  5
CB5
330
BC3
100
AcDbSymbolTableRecord
100
AcDbLayerTableRecord
  2
Shape9787
 70
    0
 62
    7
  6
CONTINUOUS
  0
LAYER
  5
CB6
330
BC3
100
AcDbSymbolTableRecord
100
AcDbLayerTableRecord
  2
Shape9788
 70
    0
 62
    7
  6
CONTINUOUS
  0
LAYER
  5
CB7
330
BC3
100
AcDbSymbolTableRecord
100
AcDbLayerTableRecord
  2
Shape9789
 70
    0
 62
    7
  6
CONTINUOUS
  0
LAYER
  5
CB8
330
BC3
100
AcDbSymbolTableRecord
100
AcDbLayerTableRecord
  2
Shape9790
 70
    0
 62
    7
  6
CONTINUOUS
  0
LAYER
  5
CB9
330
BC3
100
AcDbSymbolTableRecord
100
AcDbLayerTableRecord
  2
Shape9791
 70
    0
 62
    7
  6
CONTINUOUS
  0
LAYER
  5
CBA
330
BC3
100
AcDbSymbolTableRecord
100
AcDbLayerTableRecord
  2
Shape9792
 70
    0
 62
    7
  6
CONTINUOUS
  0
LAYER
  5
CBB
330
BC3
100
AcDbSymbolTableRecord
100
AcDbLayerTableRecord
  2
Shape9793
 70
    0
 62
    7
  6
CONTINUOUS
  0
LAYER
  5
CBC
330
BC3
100
AcDbSymbolTableRecord
100
AcDbLayerTableRecord
  2
Shape9794
 70
    0
 62
    7
  6
CONTINUOUS
  0
LAYER
  5
CBD
330
BC3
100
AcDbSymbolTableRecord
100
AcDbLayerTableRecord
  2
Shape9795
 70
    0
 62
    7
  6
CONTINUOUS
  0
LAYER
  5
CBE
330
BC3
100
AcDbSymbolTableRecord
100
AcDbLayerTableRecord
  2
Shape9796
 70
    0
 62
    7
  6
CONTINUOUS
  0
LAYER
  5
CBF
330
BC3
100
AcDbSymbolTableRecord
100
AcDbLayerTableRecord
  2
Shape9797
 70
    0
 62
    7
  6
CONTINUOUS
  0
LAYER
  5
CC0
330
BC3
100
AcDbSymbolTableRecord
100
AcDbLayerTableRecord
  2
Shape9798
 70
    0
 62
    7
  6
CONTINUOUS
  0
LAYER
  5
CC1
330
BC3
100
AcDbSymbolTableRecord
100
AcDbLayerTableRecord
  2
Shape9799
 70
    0
 62
    7
  6
CONTINUOUS
  0
LAYER
  5
CC2
330
BC3
100
AcDbSymbolTableRecord
100
AcDbLayerTableRecord
  2
Shape9800
 70
    0
 62
    7
  6
CONTINUOUS
  0
LAYER
  5
CC3
330
BC3
100
AcDbSymbolTableRecord
100
AcDbLayerTableRecord
  2
Shape9801
 70
    0
 62
    7
  6
CONTINUOUS
  0
LAYER
  5
CC4
330
BC3
100
AcDbSymbolTableRecord
100
AcDbLayerTableRecord
  2
Shape9802
 70
    0
 62
    7
  6
CONTINUOUS
  0
LAYER
  5
CC5
330
BC3
100
AcDbSymbolTableRecord
100
AcDbLayerTableRecord
  2
Shape9803
 70
    0
 62
    7
  6
CONTINUOUS
  0
LAYER
  5
CC6
330
BC3
100
AcDbSymbolTableRecord
100
AcDbLayerTableRecord
  2
Shape9804
 70
    0
 62
    7
  6
CONTINUOUS
  0
LAYER
  5
CC7
330
BC3
100
AcDbSymbolTableRecord
100
AcDbLayerTableRecord
  2
Shape9805
 70
    0
 62
    7
  6
CONTINUOUS
  0
LAYER
  5
CC8
330
BC3
100
AcDbSymbolTableRecord
100
AcDbLayerTableRecord
  2
Shape9806
 70
    0
 62
    7
  6
CONTINUOUS
  0
LAYER
  5
CC9
330
BC3
100
AcDbSymbolTableRecord
100
AcDbLayerTableRecord
  2
Shape9807
 70
    0
 62
    7
  6
CONTINUOUS
  0
LAYER
  5
CCA
330
BC3
100
AcDbSymbolTableRecord
100
AcDbLayerTableRecord
  2
Shape9808
 70
    0
 62
    7
  6
CONTINUOUS
  0
LAYER
  5
CCB
330
BC3
100
AcDbSymbolTableRecord
100
AcDbLayerTableRecord
  2
Shape9809
 70
    0
 62
    7
  6
CONTINUOUS
  0
LAYER
  5
CCC
330
BC3
100
AcDbSymbolTableRecord
100
AcDbLayerTableRecord
  2
Shape9810
 70
    0
 62
    7
  6
CONTINUOUS
  0
LAYER
  5
CCD
330
BC3
100
AcDbSymbolTableRecord
100
AcDbLayerTableRecord
  2
Shape9811
 70
    0
 62
    7
  6
CONTINUOUS
  0
LAYER
  5
CCE
330
BC3
100
AcDbSymbolTableRecord
100
AcDbLayerTableRecord
  2
Shape9812
 70
    0
 62
    7
  6
CONTINUOUS
  0
LAYER
  5
CCF
330
BC3
100
AcDbSymbolTableRecord
100
AcDbLayerTableRecord
  2
Shape9813
 70
    0
 62
    7
  6
CONTINUOUS
  0
LAYER
  5
CD0
330
BC3
100
AcDbSymbolTableRecord
100
AcDbLayerTableRecord
  2
Shape9814
 70
    0
 62
    7
  6
CONTINUOUS
  0
LAYER
  5
CD1
330
BC3
100
AcDbSymbolTableRecord
100
AcDbLayerTableRecord
  2
Shape9815
 70
    0
 62
    7
  6
CONTINUOUS
  0
LAYER
  5
CD2
330
BC3
100
AcDbSymbolTableRecord
100
AcDbLayerTableRecord
  2
Shape9816
 70
    0
 62
    7
  6
CONTINUOUS
  0
LAYER
  5
CD3
330
BC3
100
AcDbSymbolTableRecord
100
AcDbLayerTableRecord
  2
Shape9817
 70
    0
 62
    7
  6
CONTINUOUS
  0
LAYER
  5
CD4
330
BC3
100
AcDbSymbolTableRecord
100
AcDbLayerTableRecord
  2
Shape9818
 70
    0
 62
    7
  6
CONTINUOUS
  0
LAYER
  5
CD5
330
BC3
100
AcDbSymbolTableRecord
100
AcDbLayerTableRecord
  2
Shape9819
 70
    0
 62
    7
  6
CONTINUOUS
  0
LAYER
  5
CD6
330
BC3
100
AcDbSymbolTableRecord
100
AcDbLayerTableRecord
  2
Shape9820
 70
    0
 62
    7
  6
CONTINUOUS
  0
LAYER
  5
CD7
330
BC3
100
AcDbSymbolTableRecord
100
AcDbLayerTableRecord
  2
Shape9821
 70
    0
 62
    7
  6
CONTINUOUS
  0
LAYER
  5
CD8
330
BC3
100
AcDbSymbolTableRecord
100
AcDbLayerTableRecord
  2
Shape9822
 70
    0
 62
    7
  6
CONTINUOUS
  0
LAYER
  5
CD9
330
BC3
100
AcDbSymbolTableRecord
100
AcDbLayerTableRecord
  2
Shape9823
 70
    0
 62
    7
  6
CONTINUOUS
  0
LAYER
  5
CDA
330
BC3
100
AcDbSymbolTableRecord
100
AcDbLayerTableRecord
  2
Shape9824
 70
    0
 62
    7
  6
CONTINUOUS
  0
LAYER
  5
CDB
330
BC3
100
AcDbSymbolTableRecord
100
AcDbLayerTableRecord
  2
Shape9825
 70
    0
 62
    7
  6
CONTINUOUS
  0
LAYER
  5
CDC
330
BC3
100
AcDbSymbolTableRecord
100
AcDbLayerTableRecord
  2
Shape9826
 70
    0
 62
    7
  6
CONTINUOUS
  0
LAYER
  5
CDD
330
BC3
100
AcDbSymbolTableRecord
100
AcDbLayerTableRecord
  2
Shape9827
 70
    0
 62
    7
  6
CONTINUOUS
  0
LAYER
  5
CDE
330
BC3
100
AcDbSymbolTableRecord
100
AcDbLayerTableRecord
  2
Shape9828
 70
    0
 62
    7
  6
CONTINUOUS
  0
LAYER
  5
CDF
330
BC3
100
AcDbSymbolTableRecord
100
AcDbLayerTableRecord
  2
Shape9829
 70
    0
 62
    7
  6
CONTINUOUS
  0
LAYER
  5
CE0
330
BC3
100
AcDbSymbolTableRecord
100
AcDbLayerTableRecord
  2
Shape9830
 70
    0
 62
    7
  6
CONTINUOUS
  0
LAYER
  5
CE1
330
BC3
100
AcDbSymbolTableRecord
100
AcDbLayerTableRecord
  2
Shape9831
 70
    0
 62
    7
  6
CONTINUOUS
  0
LAYER
  5
CE2
330
BC3
100
AcDbSymbolTableRecord
100
AcDbLayerTableRecord
  2
Shape9832
 70
    0
 62
    7
  6
CONTINUOUS
  0
LAYER
  5
CE3
330
BC3
100
AcDbSymbolTableRecord
100
AcDbLayerTableRecord
  2
Shape9833
 70
    0
 62
    7
  6
CONTINUOUS
  0
LAYER
  5
CE4
330
BC3
100
AcDbSymbolTableRecord
100
AcDbLayerTableRecord
  2
Shape9834
 70
    0
 62
    7
  6
CONTINUOUS
  0
LAYER
  5
CE5
330
BC3
100
AcDbSymbolTableRecord
100
AcDbLayerTableRecord
  2
Shape9835
 70
    0
 62
    7
  6
CONTINUOUS
  0
LAYER
  5
CE6
330
BC3
100
AcDbSymbolTableRecord
100
AcDbLayerTableRecord
  2
Shape9836
 70
    0
 62
    7
  6
CONTINUOUS
  0
LAYER
  5
CE7
330
BC3
100
AcDbSymbolTableRecord
100
AcDbLayerTableRecord
  2
Shape9837
 70
    0
 62
    7
  6
CONTINUOUS
  0
LAYER
  5
CE8
330
BC3
100
AcDbSymbolTableRecord
100
AcDbLayerTableRecord
  2
Shape9838
 70
    0
 62
    7
  6
CONTINUOUS
  0
LAYER
  5
CE9
330
BC3
100
AcDbSymbolTableRecord
100
AcDbLayerTableRecord
  2
Shape9839
 70
    0
 62
    7
  6
CONTINUOUS
  0
LAYER
  5
CEA
330
BC3
100
AcDbSymbolTableRecord
100
AcDbLayerTableRecord
  2
Shape9840
 70
    0
 62
    7
  6
CONTINUOUS
  0
LAYER
  5
CEB
330
BC3
100
AcDbSymbolTableRecord
100
AcDbLayerTableRecord
  2
Shape9841
 70
    0
 62
    7
  6
CONTINUOUS
  0
LAYER
  5
CEC
330
BC3
100
AcDbSymbolTableRecord
100
AcDbLayerTableRecord
  2
Shape9842
 70
    0
 62
    7
  6
CONTINUOUS
  0
LAYER
  5
CED
330
BC3
100
AcDbSymbolTableRecord
100
AcDbLayerTableRecord
  2
Shape9843
 70
    0
 62
    7
  6
CONTINUOUS
  0
LAYER
  5
CEE
330
BC3
100
AcDbSymbolTableRecord
100
AcDbLayerTableRecord
  2
Shape9844
 70
    0
 62
    7
  6
CONTINUOUS
  0
LAYER
  5
CEF
330
BC3
100
AcDbSymbolTableRecord
100
AcDbLayerTableRecord
  2
Shape9845
 70
    0
 62
    7
  6
CONTINUOUS
  0
LAYER
  5
CF0
330
BC3
100
AcDbSymbolTableRecord
100
AcDbLayerTableRecord
  2
Shape9846
 70
    0
 62
    7
  6
CONTINUOUS
  0
LAYER
  5
CF1
330
BC3
100
AcDbSymbolTableRecord
100
AcDbLayerTableRecord
  2
Shape9847
 70
    0
 62
    7
  6
CONTINUOUS
  0
LAYER
  5
CF2
330
BC3
100
AcDbSymbolTableRecord
100
AcDbLayerTableRecord
  2
Shape9848
 70
    0
 62
    7
  6
CONTINUOUS
  0
LAYER
  5
CF3
330
BC3
100
AcDbSymbolTableRecord
100
AcDbLayerTableRecord
  2
Shape9849
 70
    0
 62
    7
  6
CONTINUOUS
  0
LAYER
  5
CF4
330
BC3
100
AcDbSymbolTableRecord
100
AcDbLayerTableRecord
  2
Shape9850
 70
    0
 62
    7
  6
CONTINUOUS
  0
LAYER
  5
CF5
330
BC3
100
AcDbSymbolTableRecord
100
AcDbLayerTableRecord
  2
Shape9851
 70
    0
 62
    7
  6
CONTINUOUS
  0
LAYER
  5
CF6
330
BC3
100
AcDbSymbolTableRecord
100
AcDbLayerTableRecord
  2
Shape9852
 70
    0
 62
    7
  6
CONTINUOUS
  0
LAYER
  5
CF7
330
BC3
100
AcDbSymbolTableRecord
100
AcDbLayerTableRecord
  2
Shape9853
 70
    0
 62
    7
  6
CONTINUOUS
  0
LAYER
  5
CF8
330
BC3
100
AcDbSymbolTableRecord
100
AcDbLayerTableRecord
  2
Shape9854
 70
    0
 62
    7
  6
CONTINUOUS
  0
LAYER
  5
CF9
330
BC3
100
AcDbSymbolTableRecord
100
AcDbLayerTableRecord
  2
Shape9855
 70
    0
 62
    7
  6
CONTINUOUS
  0
LAYER
  5
CFA
330
BC3
100
AcDbSymbolTableRecord
100
AcDbLayerTableRecord
  2
Shape9856
 70
    0
 62
    7
  6
CONTINUOUS
  0
LAYER
  5
CFB
330
BC3
100
AcDbSymbolTableRecord
100
AcDbLayerTableRecord
  2
Shape9857
 70
    0
 62
    7
  6
CONTINUOUS
  0
LAYER
  5
CFC
330
BC3
100
AcDbSymbolTableRecord
100
AcDbLayerTableRecord
  2
Shape9858
 70
    0
 62
    7
  6
CONTINUOUS
  0
LAYER
  5
CFD
330
BC3
100
AcDbSymbolTableRecord
100
AcDbLayerTableRecord
  2
Shape9859
 70
    0
 62
    7
  6
CONTINUOUS
  0
LAYER
  5
CFE
330
BC3
100
AcDbSymbolTableRecord
100
AcDbLayerTableRecord
  2
Shape9860
 70
    0
 62
    7
  6
CONTINUOUS
  0
LAYER
  5
CFF
330
BC3
100
AcDbSymbolTableRecord
100
AcDbLayerTableRecord
  2
Shape9861
 70
    0
 62
    7
  6
CONTINUOUS
  0
LAYER
  5
D00
330
BC3
100
AcDbSymbolTableRecord
100
AcDbLayerTableRecord
  2
Shape10276
 70
    0
 62
    7
  6
CONTINUOUS
  0
LAYER
  5
D01
330
BC3
100
AcDbSymbolTableRecord
100
AcDbLayerTableRecord
  2
Shape10277
 70
    0
 62
    7
  6
CONTINUOUS
  0
LAYER
  5
D02
330
BC3
100
AcDbSymbolTableRecord
100
AcDbLayerTableRecord
  2
Shape10278
 70
    0
 62
    7
  6
CONTINUOUS
  0
LAYER
  5
D03
330
BC3
100
AcDbSymbolTableRecord
100
AcDbLayerTableRecord
  2
Shape10279
 70
    0
 62
    7
  6
CONTINUOUS
  0
LAYER
  5
D04
330
BC3
100
AcDbSymbolTableRecord
100
AcDbLayerTableRecord
  2
Shape10280
 70
    0
 62
    7
  6
CONTINUOUS
  0
LAYER
  5
D05
330
BC3
100
AcDbSymbolTableRecord
100
AcDbLayerTableRecord
  2
Shape10281
 70
    0
 62
    7
  6
CONTINUOUS
  0
LAYER
  5
D06
330
BC3
100
AcDbSymbolTableRecord
100
AcDbLayerTableRecord
  2
Shape10282
 70
    0
 62
    7
  6
CONTINUOUS
  0
LAYER
  5
D07
330
BC3
100
AcDbSymbolTableRecord
100
AcDbLayerTableRecord
  2
Shape10283
 70
    0
 62
    7
  6
CONTINUOUS
  0
LAYER
  5
D08
330
BC3
100
AcDbSymbolTableRecord
100
AcDbLayerTableRecord
  2
Shape10284
 70
    0
 62
    7
  6
CONTINUOUS
  0
LAYER
  5
D09
330
BC3
100
AcDbSymbolTableRecord
100
AcDbLayerTableRecord
  2
Shape10285
 70
    0
 62
    7
  6
CONTINUOUS
  0
LAYER
  5
D0A
330
BC3
100
AcDbSymbolTableRecord
100
AcDbLayerTableRecord
  2
Shape10286
 70
    0
 62
    7
  6
CONTINUOUS
  0
LAYER
  5
D0B
330
BC3
100
AcDbSymbolTableRecord
100
AcDbLayerTableRecord
  2
Shape10287
 70
    0
 62
    7
  6
CONTINUOUS
  0
LAYER
  5
D0C
330
BC3
100
AcDbSymbolTableRecord
100
AcDbLayerTableRecord
  2
Shape10288
 70
    0
 62
    7
  6
CONTINUOUS
  0
LAYER
  5
D0D
330
BC3
100
AcDbSymbolTableRecord
100
AcDbLayerTableRecord
  2
Shape10289
 70
    0
 62
    7
  6
CONTINUOUS
  0
LAYER
  5
D0E
330
BC3
100
AcDbSymbolTableRecord
100
AcDbLayerTableRecord
  2
Shape10290
 70
    0
 62
    7
  6
CONTINUOUS
  0
LAYER
  5
D0F
330
BC3
100
AcDbSymbolTableRecord
100
AcDbLayerTableRecord
  2
Shape10291
 70
    0
 62
    7
  6
CONTINUOUS
  0
LAYER
  5
D10
330
BC3
100
AcDbSymbolTableRecord
100
AcDbLayerTableRecord
  2
Shape10292
 70
    0
 62
    7
  6
CONTINUOUS
  0
LAYER
  5
D11
330
BC3
100
AcDbSymbolTableRecord
100
AcDbLayerTableRecord
  2
Shape10293
 70
    0
 62
    7
  6
CONTINUOUS
  0
LAYER
  5
D12
330
BC3
100
AcDbSymbolTableRecord
100
AcDbLayerTableRecord
  2
Shape10294
 70
    0
 62
    7
  6
CONTINUOUS
  0
LAYER
  5
D13
330
BC3
100
AcDbSymbolTableRecord
100
AcDbLayerTableRecord
  2
Shape10295
 70
    0
 62
    7
  6
CONTINUOUS
  0
LAYER
  5
D14
330
BC3
100
AcDbSymbolTableRecord
100
AcDbLayerTableRecord
  2
Shape10296
 70
    0
 62
    7
  6
CONTINUOUS
  0
LAYER
  5
D15
330
BC3
100
AcDbSymbolTableRecord
100
AcDbLayerTableRecord
  2
Shape10297
 70
    0
 62
    7
  6
CONTINUOUS
  0
LAYER
  5
D16
330
BC3
100
AcDbSymbolTableRecord
100
AcDbLayerTableRecord
  2
Shape10298
 70
    0
 62
    7
  6
CONTINUOUS
  0
LAYER
  5
D17
330
BC3
100
AcDbSymbolTableRecord
100
AcDbLayerTableRecord
  2
Shape10299
 70
    0
 62
    7
  6
CONTINUOUS
  0
LAYER
  5
D18
330
BC3
100
AcDbSymbolTableRecord
100
AcDbLayerTableRecord
  2
Shape10300
 70
    0
 62
    7
  6
CONTINUOUS
  0
LAYER
  5
D19
330
BC3
100
AcDbSymbolTableRecord
100
AcDbLayerTableRecord
  2
Shape10301
 70
    0
 62
    7
  6
CONTINUOUS
  0
LAYER
  5
D1A
330
BC3
100
AcDbSymbolTableRecord
100
AcDbLayerTableRecord
  2
Shape10302
 70
    0
 62
    7
  6
CONTINUOUS
  0
LAYER
  5
D1B
330
BC3
100
AcDbSymbolTableRecord
100
AcDbLayerTableRecord
  2
Shape10303
 70
    0
 62
    7
  6
CONTINUOUS
  0
LAYER
  5
D1C
330
BC3
100
AcDbSymbolTableRecord
100
AcDbLayerTableRecord
  2
Shape10304
 70
    0
 62
    7
  6
CONTINUOUS
  0
LAYER
  5
D1D
330
BC3
100
AcDbSymbolTableRecord
100
AcDbLayerTableRecord
  2
Shape10305
 70
    0
 62
    7
  6
CONTINUOUS
  0
LAYER
  5
D1E
330
BC3
100
AcDbSymbolTableRecord
100
AcDbLayerTableRecord
  2
Shape10306
 70
    0
 62
    7
  6
CONTINUOUS
  0
LAYER
  5
D1F
330
BC3
100
AcDbSymbolTableRecord
100
AcDbLayerTableRecord
  2
Shape10307
 70
    0
 62
    7
  6
CONTINUOUS
  0
LAYER
  5
D20
330
BC3
100
AcDbSymbolTableRecord
100
AcDbLayerTableRecord
  2
Shape10308
 70
    0
 62
    7
  6
CONTINUOUS
  0
LAYER
  5
D21
330
BC3
100
AcDbSymbolTableRecord
100
AcDbLayerTableRecord
  2
Shape10309
 70
    0
 62
    7
  6
CONTINUOUS
  0
LAYER
  5
D22
330
BC3
100
AcDbSymbolTableRecord
100
AcDbLayerTableRecord
  2
Shape10310
 70
    0
 62
    7
  6
CONTINUOUS
  0
LAYER
  5
D23
330
BC3
100
AcDbSymbolTableRecord
100
AcDbLayerTableRecord
  2
Shape10311
 70
    0
 62
    7
  6
CONTINUOUS
  0
LAYER
  5
D24
330
BC3
100
AcDbSymbolTableRecord
100
AcDbLayerTableRecord
  2
Shape10312
 70
    0
 62
    7
  6
CONTINUOUS
  0
LAYER
  5
D25
330
BC3
100
AcDbSymbolTableRecord
100
AcDbLayerTableRecord
  2
Shape10313
 70
    0
 62
    7
  6
CONTINUOUS
  0
LAYER
  5
D26
330
BC3
100
AcDbSymbolTableRecord
100
AcDbLayerTableRecord
  2
Shape10314
 70
    0
 62
    7
  6
CONTINUOUS
  0
LAYER
  5
D27
330
BC3
100
AcDbSymbolTableRecord
100
AcDbLayerTableRecord
  2
Shape10315
 70
    0
 62
    7
  6
CONTINUOUS
  0
LAYER
  5
D28
330
BC3
100
AcDbSymbolTableRecord
100
AcDbLayerTableRecord
  2
Shape10316
 70
    0
 62
    7
  6
CONTINUOUS
  0
LAYER
  5
D29
330
BC3
100
AcDbSymbolTableRecord
100
AcDbLayerTableRecord
  2
Shape10317
 70
    0
 62
    7
  6
CONTINUOUS
  0
LAYER
  5
D2A
330
BC3
100
AcDbSymbolTableRecord
100
AcDbLayerTableRecord
  2
Shape10318
 70
    0
 62
    7
  6
CONTINUOUS
  0
LAYER
  5
D2B
330
BC3
100
AcDbSymbolTableRecord
100
AcDbLayerTableRecord
  2
Shape10319
 70
    0
 62
    7
  6
CONTINUOUS
  0
LAYER
  5
D2C
330
BC3
100
AcDbSymbolTableRecord
100
AcDbLayerTableRecord
  2
Shape10320
 70
    0
 62
    7
  6
CONTINUOUS
  0
LAYER
  5
D2D
330
BC3
100
AcDbSymbolTableRecord
100
AcDbLayerTableRecord
  2
Shape10321
 70
    0
 62
    7
  6
CONTINUOUS
  0
LAYER
  5
D2E
330
BC3
100
AcDbSymbolTableRecord
100
AcDbLayerTableRecord
  2
Shape10322
 70
    0
 62
    7
  6
CONTINUOUS
  0
LAYER
  5
D2F
330
BC3
100
AcDbSymbolTableRecord
100
AcDbLayerTableRecord
  2
Shape10323
 70
    0
 62
    7
  6
CONTINUOUS
  0
LAYER
  5
D30
330
BC3
100
AcDbSymbolTableRecord
100
AcDbLayerTableRecord
  2
Shape10324
 70
    0
 62
    7
  6
CONTINUOUS
  0
LAYER
  5
D31
330
BC3
100
AcDbSymbolTableRecord
100
AcDbLayerTableRecord
  2
Shape10325
 70
    0
 62
    7
  6
CONTINUOUS
  0
LAYER
  5
D32
330
BC3
100
AcDbSymbolTableRecord
100
AcDbLayerTableRecord
  2
Shape10326
 70
    0
 62
    7
  6
CONTINUOUS
  0
LAYER
  5
D33
330
BC3
100
AcDbSymbolTableRecord
100
AcDbLayerTableRecord
  2
Shape10327
 70
    0
 62
    7
  6
CONTINUOUS
  0
LAYER
  5
D34
330
BC3
100
AcDbSymbolTableRecord
100
AcDbLayerTableRecord
  2
Shape10328
 70
    0
 62
    7
  6
CONTINUOUS
  0
LAYER
  5
D35
330
BC3
100
AcDbSymbolTableRecord
100
AcDbLayerTableRecord
  2
Shape10329
 70
    0
 62
    7
  6
CONTINUOUS
  0
LAYER
  5
D36
330
BC3
100
AcDbSymbolTableRecord
100
AcDbLayerTableRecord
  2
Shape10330
 70
    0
 62
    7
  6
CONTINUOUS
  0
LAYER
  5
D37
330
BC3
100
AcDbSymbolTableRecord
100
AcDbLayerTableRecord
  2
Shape10331
 70
    0
 62
    7
  6
CONTINUOUS
  0
LAYER
  5
D38
330
BC3
100
AcDbSymbolTableRecord
100
AcDbLayerTableRecord
  2
Shape10332
 70
    0
 62
    7
  6
CONTINUOUS
  0
LAYER
  5
D39
330
BC3
100
AcDbSymbolTableRecord
100
AcDbLayerTableRecord
  2
Shape10333
 70
    0
 62
    7
  6
CONTINUOUS
  0
LAYER
  5
D3A
330
BC3
100
AcDbSymbolTableRecord
100
AcDbLayerTableRecord
  2
Shape10334
 70
    0
 62
    7
  6
CONTINUOUS
  0
LAYER
  5
D3B
330
BC3
100
AcDbSymbolTableRecord
100
AcDbLayerTableRecord
  2
Shape10335
 70
    0
 62
    7
  6
CONTINUOUS
  0
LAYER
  5
D3C
330
BC3
100
AcDbSymbolTableRecord
100
AcDbLayerTableRecord
  2
Shape10336
 70
    0
 62
    7
  6
CONTINUOUS
  0
LAYER
  5
D3D
330
BC3
100
AcDbSymbolTableRecord
100
AcDbLayerTableRecord
  2
Shape10337
 70
    0
 62
    7
  6
CONTINUOUS
  0
LAYER
  5
D3E
330
BC3
100
AcDbSymbolTableRecord
100
AcDbLayerTableRecord
  2
Shape10338
 70
    0
 62
    7
  6
CONTINUOUS
  0
LAYER
  5
D3F
330
BC3
100
AcDbSymbolTableRecord
100
AcDbLayerTableRecord
  2
Shape10339
 70
    0
 62
    7
  6
CONTINUOUS
  0
LAYER
  5
D40
330
BC3
100
AcDbSymbolTableRecord
100
AcDbLayerTableRecord
  2
Shape10340
 70
    0
 62
    7
  6
CONTINUOUS
  0
LAYER
  5
D41
330
BC3
100
AcDbSymbolTableRecord
100
AcDbLayerTableRecord
  2
Shape10341
 70
    0
 62
    7
  6
CONTINUOUS
  0
LAYER
  5
D42
330
BC3
100
AcDbSymbolTableRecord
100
AcDbLayerTableRecord
  2
Shape10342
 70
    0
 62
    7
  6
CONTINUOUS
  0
LAYER
  5
D43
330
BC3
100
AcDbSymbolTableRecord
100
AcDbLayerTableRecord
  2
Shape10343
 70
    0
 62
    7
  6
CONTINUOUS
  0
LAYER
  5
D44
330
BC3
100
AcDbSymbolTableRecord
100
AcDbLayerTableRecord
  2
Shape10344
 70
    0
 62
    7
  6
CONTINUOUS
  0
LAYER
  5
D45
330
BC3
100
AcDbSymbolTableRecord
100
AcDbLayerTableRecord
  2
Shape10345
 70
    0
 62
    7
  6
CONTINUOUS
  0
LAYER
  5
D46
330
BC3
100
AcDbSymbolTableRecord
100
AcDbLayerTableRecord
  2
Shape10346
 70
    0
 62
    7
  6
CONTINUOUS
  0
LAYER
  5
D47
330
BC3
100
AcDbSymbolTableRecord
100
AcDbLayerTableRecord
  2
Shape10347
 70
    0
 62
    7
  6
CONTINUOUS
  0
LAYER
  5
D48
330
BC3
100
AcDbSymbolTableRecord
100
AcDbLayerTableRecord
  2
Shape10348
 70
    0
 62
    7
  6
CONTINUOUS
  0
LAYER
  5
D49
330
BC3
100
AcDbSymbolTableRecord
100
AcDbLayerTableRecord
  2
Shape10349
 70
    0
 62
    7
  6
CONTINUOUS
  0
LAYER
  5
D4A
330
BC3
100
AcDbSymbolTableRecord
100
AcDbLayerTableRecord
  2
Shape10350
 70
    0
 62
    7
  6
CONTINUOUS
  0
LAYER
  5
D4B
330
BC3
100
AcDbSymbolTableRecord
100
AcDbLayerTableRecord
  2
Shape10351
 70
    0
 62
    7
  6
CONTINUOUS
  0
LAYER
  5
D4C
330
BC3
100
AcDbSymbolTableRecord
100
AcDbLayerTableRecord
  2
Shape10352
 70
    0
 62
    7
  6
CONTINUOUS
  0
LAYER
  5
D4D
330
BC3
100
AcDbSymbolTableRecord
100
AcDbLayerTableRecord
  2
Shape10353
 70
    0
 62
    7
  6
CONTINUOUS
  0
LAYER
  5
D4E
330
BC3
100
AcDbSymbolTableRecord
100
AcDbLayerTableRecord
  2
Shape10354
 70
    0
 62
    7
  6
CONTINUOUS
  0
LAYER
  5
D4F
330
BC3
100
AcDbSymbolTableRecord
100
AcDbLayerTableRecord
  2
Shape10355
 70
    0
 62
    7
  6
CONTINUOUS
  0
LAYER
  5
D50
330
BC3
100
AcDbSymbolTableRecord
100
AcDbLayerTableRecord
  2
Shape10591
 70
    0
 62
    7
  6
CONTINUOUS
  0
LAYER
  5
D51
330
BC3
100
AcDbSymbolTableRecord
100
AcDbLayerTableRecord
  2
Shape10592
 70
    0
 62
    7
  6
CONTINUOUS
  0
LAYER
  5
D52
330
BC3
100
AcDbSymbolTableRecord
100
AcDbLayerTableRecord
  2
Shape10593
 70
    0
 62
    7
  6
CONTINUOUS
  0
LAYER
  5
D53
330
BC3
100
AcDbSymbolTableRecord
100
AcDbLayerTableRecord
  2
Shape10594
 70
    0
 62
    7
  6
CONTINUOUS
  0
LAYER
  5
D54
330
BC3
100
AcDbSymbolTableRecord
100
AcDbLayerTableRecord
  2
Shape10595
 70
    0
 62
    7
  6
CONTINUOUS
  0
LAYER
  5
D55
330
BC3
100
AcDbSymbolTableRecord
100
AcDbLayerTableRecord
  2
Shape10596
 70
    0
 62
    7
  6
CONTINUOUS
  0
LAYER
  5
D56
330
BC3
100
AcDbSymbolTableRecord
100
AcDbLayerTableRecord
  2
Shape10597
 70
    0
 62
    7
  6
CONTINUOUS
  0
LAYER
  5
D57
330
BC3
100
AcDbSymbolTableRecord
100
AcDbLayerTableRecord
  2
Shape10598
 70
    0
 62
    7
  6
CONTINUOUS
  0
LAYER
  5
D58
330
BC3
100
AcDbSymbolTableRecord
100
AcDbLayerTableRecord
  2
Shape10599
 70
    0
 62
    7
  6
CONTINUOUS
  0
LAYER
  5
D59
330
BC3
100
AcDbSymbolTableRecord
100
AcDbLayerTableRecord
  2
Shape10600
 70
    0
 62
    7
  6
CONTINUOUS
  0
LAYER
  5
D5A
330
BC3
100
AcDbSymbolTableRecord
100
AcDbLayerTableRecord
  2
Shape10601
 70
    0
 62
    7
  6
CONTINUOUS
  0
LAYER
  5
D5B
330
BC3
100
AcDbSymbolTableRecord
100
AcDbLayerTableRecord
  2
Shape10602
 70
    0
 62
    7
  6
CONTINUOUS
  0
LAYER
  5
D5C
330
BC3
100
AcDbSymbolTableRecord
100
AcDbLayerTableRecord
  2
Shape10603
 70
    0
 62
    7
  6
CONTINUOUS
  0
LAYER
  5
D5D
330
BC3
100
AcDbSymbolTableRecord
100
AcDbLayerTableRecord
  2
Shape10604
 70
    0
 62
    7
  6
CONTINUOUS
  0
LAYER
  5
D5E
330
BC3
100
AcDbSymbolTableRecord
100
AcDbLayerTableRecord
  2
Shape10605
 70
    0
 62
    7
  6
CONTINUOUS
  0
LAYER
  5
D5F
330
BC3
100
AcDbSymbolTableRecord
100
AcDbLayerTableRecord
  2
Shape10606
 70
    0
 62
    7
  6
CONTINUOUS
  0
LAYER
  5
D60
330
BC3
100
AcDbSymbolTableRecord
100
AcDbLayerTableRecord
  2
Shape10607
 70
    0
 62
    7
  6
CONTINUOUS
  0
LAYER
  5
D61
330
BC3
100
AcDbSymbolTableRecord
100
AcDbLayerTableRecord
  2
Shape10608
 70
    0
 62
    7
  6
CONTINUOUS
  0
LAYER
  5
D62
330
BC3
100
AcDbSymbolTableRecord
100
AcDbLayerTableRecord
  2
Shape10609
 70
    0
 62
    7
  6
CONTINUOUS
  0
LAYER
  5
D63
330
BC3
100
AcDbSymbolTableRecord
100
AcDbLayerTableRecord
  2
Shape10610
 70
    0
 62
    7
  6
CONTINUOUS
  0
LAYER
  5
D64
330
BC3
100
AcDbSymbolTableRecord
100
AcDbLayerTableRecord
  2
Shape10611
 70
    0
 62
    7
  6
CONTINUOUS
  0
LAYER
  5
D65
330
BC3
100
AcDbSymbolTableRecord
100
AcDbLayerTableRecord
  2
Shape10612
 70
    0
 62
    7
  6
CONTINUOUS
  0
LAYER
  5
D66
330
BC3
100
AcDbSymbolTableRecord
100
AcDbLayerTableRecord
  2
Shape10613
 70
    0
 62
    7
  6
CONTINUOUS
  0
LAYER
  5
D67
330
BC3
100
AcDbSymbolTableRecord
100
AcDbLayerTableRecord
  2
Shape10614
 70
    0
 62
    7
  6
CONTINUOUS
  0
LAYER
  5
D68
330
BC3
100
AcDbSymbolTableRecord
100
AcDbLayerTableRecord
  2
Shape10615
 70
    0
 62
    7
  6
CONTINUOUS
  0
LAYER
  5
D69
330
BC3
100
AcDbSymbolTableRecord
100
AcDbLayerTableRecord
  2
Shape10616
 70
    0
 62
    7
  6
CONTINUOUS
  0
LAYER
  5
D6A
330
BC3
100
AcDbSymbolTableRecord
100
AcDbLayerTableRecord
  2
Shape10617
 70
    0
 62
    7
  6
CONTINUOUS
  0
LAYER
  5
D6B
330
BC3
100
AcDbSymbolTableRecord
100
AcDbLayerTableRecord
  2
Shape10618
 70
    0
 62
    7
  6
CONTINUOUS
  0
LAYER
  5
D6C
330
BC3
100
AcDbSymbolTableRecord
100
AcDbLayerTableRecord
  2
Shape10619
 70
    0
 62
    7
  6
CONTINUOUS
  0
LAYER
  5
D6D
330
BC3
100
AcDbSymbolTableRecord
100
AcDbLayerTableRecord
  2
Shape10620
 70
    0
 62
    7
  6
CONTINUOUS
  0
LAYER
  5
D6E
330
BC3
100
AcDbSymbolTableRecord
100
AcDbLayerTableRecord
  2
Shape10621
 70
    0
 62
    7
  6
CONTINUOUS
  0
LAYER
  5
D6F
330
BC3
100
AcDbSymbolTableRecord
100
AcDbLayerTableRecord
  2
Shape10622
 70
    0
 62
    7
  6
CONTINUOUS
  0
LAYER
  5
D70
330
BC3
100
AcDbSymbolTableRecord
100
AcDbLayerTableRecord
  2
Shape10623
 70
    0
 62
    7
  6
CONTINUOUS
  0
LAYER
  5
D71
330
BC3
100
AcDbSymbolTableRecord
100
AcDbLayerTableRecord
  2
Shape10624
 70
    0
 62
    7
  6
CONTINUOUS
  0
LAYER
  5
D72
330
BC3
100
AcDbSymbolTableRecord
100
AcDbLayerTableRecord
  2
Shape10625
 70
    0
 62
    7
  6
CONTINUOUS
  0
LAYER
  5
D73
330
BC3
100
AcDbSymbolTableRecord
100
AcDbLayerTableRecord
  2
Shape10626
 70
    0
 62
    7
  6
CONTINUOUS
  0
LAYER
  5
D74
330
BC3
100
AcDbSymbolTableRecord
100
AcDbLayerTableRecord
  2
Shape10627
 70
    0
 62
    7
  6
CONTINUOUS
  0
LAYER
  5
D75
330
BC3
100
AcDbSymbolTableRecord
100
AcDbLayerTableRecord
  2
Shape10628
 70
    0
 62
    7
  6
CONTINUOUS
  0
LAYER
  5
D76
330
BC3
100
AcDbSymbolTableRecord
100
AcDbLayerTableRecord
  2
Shape10629
 70
    0
 62
    7
  6
CONTINUOUS
  0
LAYER
  5
D77
330
BC3
100
AcDbSymbolTableRecord
100
AcDbLayerTableRecord
  2
Shape10630
 70
    0
 62
    7
  6
CONTINUOUS
  0
LAYER
  5
D78
330
BC3
100
AcDbSymbolTableRecord
100
AcDbLayerTableRecord
  2
Shape10695
 70
    0
 62
    7
  6
CONTINUOUS
  0
LAYER
  5
D79
330
BC3
100
AcDbSymbolTableRecord
100
AcDbLayerTableRecord
  2
Shape10696
 70
    0
 62
    7
  6
CONTINUOUS
  0
LAYER
  5
D7A
330
BC3
100
AcDbSymbolTableRecord
100
AcDbLayerTableRecord
  2
Shape10697
 70
    0
 62
    7
  6
CONTINUOUS
  0
LAYER
  5
D7B
330
BC3
100
AcDbSymbolTableRecord
100
AcDbLayerTableRecord
  2
Shape10698
 70
    0
 62
    7
  6
CONTINUOUS
  0
LAYER
  5
D7C
330
BC3
100
AcDbSymbolTableRecord
100
AcDbLayerTableRecord
  2
Shape10699
 70
    0
 62
    7
  6
CONTINUOUS
  0
LAYER
  5
D7D
330
BC3
100
AcDbSymbolTableRecord
100
AcDbLayerTableRecord
  2
Shape10700
 70
    0
 62
    7
  6
CONTINUOUS
  0
LAYER
  5
D7E
330
BC3
100
AcDbSymbolTableRecord
100
AcDbLayerTableRecord
  2
Shape10701
 70
    0
 62
    7
  6
CONTINUOUS
  0
LAYER
  5
D7F
330
BC3
100
AcDbSymbolTableRecord
100
AcDbLayerTableRecord
  2
Shape10702
 70
    0
 62
    7
  6
CONTINUOUS
  0
LAYER
  5
D80
330
BC3
100
AcDbSymbolTableRecord
100
AcDbLayerTableRecord
  2
Shape12741
 70
    0
 62
    7
  6
CONTINUOUS
  0
ENDTAB
  0
TABLE
  2
STYLE
  5
70
330
0
100
AcDbSymbolTable
 70
     2
  0
STYLE
  5
71
330
70
100
AcDbSymbolTableRecord
100
AcDbTextStyleTableRecord
  2
STANDARD
 70
     0
 40
0.0
 41
1.0
 50
0.0
 71
     0
 42
2.5
  3
arial.ttf
  4

  0
STYLE
  5
72
330
70
100
AcDbSymbolTableRecord
100
AcDbTextStyleTableRecord
  2
ANNOTATIVE
 70
     0
 40
0.0
 41
1.0
 50
0.0
 71
     0
 42
2.5
  3
arial.ttf
  4

  0
ENDTAB
  0
TABLE
  2
VIEW
  5
73
330
0
100
AcDbSymbolTable
 70
     0
  0
ENDTAB
  0
TABLE
  2
UCS
  5
74
330
0
100
AcDbSymbolTable
 70
     0
  0
ENDTAB
  0
TABLE
  2
APPID
  5
75
330
0
100
AcDbSymbolTable
 70
     2
  0
APPID
  5
76
330
75
100
AcDbSymbolTableRecord
100
AcDbRegAppTableRecord
  2
ACAD
 70
     0
  0
APPID
  5
77
330
75
100
AcDbSymbolTableRecord
100
AcDbRegAppTableRecord
  2
ACADANNOTATIVE
 70
     0
  0
ENDTAB
  0
TABLE
  2
DIMSTYLE
  5
78
330
0
100
AcDbSymbolTable
 70
     2
  0
DIMSTYLE
105
79
330
78
100
AcDbSymbolTableRecord
100
AcDbDimStyleTableRecord
  2
STANDARD
 70
     0
  3

  4

  5

  6

  7

 40
0.0
 41
2.5
 42
0.625
 43
3.75
 44
1.25
 45
0.0
 46
0.0
 47
0.0
 48
0.0
140
2.5
141
2.5
142
0.0
143
0.03937007874016
144
1.0
145
0.0
146
1.0
147
0.625
 71
     0
 72
     0
 73
     0
 74
     0
 75
     0
 76
     0
 77
     1
 78
     8
170
     0
171
     3
172
     1
173
     0
174
     0
175
     0
176
     0
177
     0
178
     0
270
     2
271
     2
272
     2
273
     2
274
     3
340
71
275
     0
280
     0
281
     0
282
     0
283
     0
284
     8
285
     0
286
     0
287
     3
288
     0
  0
ENDTAB
  0
TABLE
  2
BLOCK_RECORD
  5
A01
330
0
100
AcDbSymbolTable
  70
5
  0
BLOCK_RECORD
  5
A02
330
A01
100
AcDbSymbolTableRecord
100
AcDbBlockTableRecord
  2
*MODEL_SPACE
  0
BLOCK_RECORD
  5
A03
330
A01
100
AcDbSymbolTableRecord
100
AcDbBlockTableRecord
  2
*PAPER_SPACE
  0
ENDTAB
  0
ENDSEC
  0
SECTION
  2
BLOCKS
  0
BLOCK
  5
A04
330
A02
100
AcDbEntity
  8
0
100
AcDbBlockBegin
  2
*MODEL_SPACE
 70
   0
 10
0
 20
0
 30
0
  3
*MODEL_SPACE
  1
 
  0
ENDBLK
  5
A05
330
A02
100
AcDbEntity
  8
0
100
AcDbBlockEnd
  0
BLOCK
  5
A06
330
A03
100
AcDbEntity
 67
1
  8
0
100
AcDbBlockBegin
  2
*PAPER_SPACE
 70
   0
 10
0
 20
0
 30
0
  3
*PAPER_SPACE
  1
 
  0
ENDBLK
  5
A07
330
A03
100
AcDbEntity
 67
    1
  8
0
100
AcDbBlockEnd
  0
ENDSEC
  0
SECTION
  2
ENTITIES
  0
LINE
  5
A08
330
A02
100
AcDbEntity
  8
Shape8148
100
AcDbLine
 10
281.408
 20
-13.3555
 30
0
 11
281.408
 21
-27.3555
 31
0
  0
LINE
  5
A09
330
A02
100
AcDbEntity
  8
Shape8149
100
AcDbLine
 10
281.408
 20
-27.3555
 30
0
 11
267.408
 21
-27.3555
 31
0
  0
LINE
  5
A0A
330
A02
100
AcDbEntity
  8
Shape8150
100
AcDbLine
 10
267.408
 20
-27.3555
 30
0
 11
267.408
 21
-13.3555
 31
0
  0
LINE
  5
A0B
330
A02
100
AcDbEntity
  8
Shape8151
100
AcDbLine
 10
267.408
 20
-13.3555
 30
0
 11
281.408
 21
-13.3555
 31
0
  0
LINE
  5
A0C
330
A02
100
AcDbEntity
  8
Shape8152
100
AcDbLine
 10
259.976
 20
-13.3555
 30
0
 11
259.976
 21
-27.3555
 31
0
  0
LINE
  5
A0D
330
A02
100
AcDbEntity
  8
Shape8153
100
AcDbLine
 10
259.976
 20
-27.3555
 30
0
 11
245.976
 21
-27.3555
 31
0
  0
LINE
  5
A0E
330
A02
100
AcDbEntity
  8
Shape8154
100
AcDbLine
 10
245.976
 20
-27.3555
 30
0
 11
245.976
 21
-13.3555
 31
0
  0
LINE
  5
A0F
330
A02
100
AcDbEntity
  8
Shape8155
100
AcDbLine
 10
245.976
 20
-13.3555
 30
0
 11
259.976
 21
-13.3555
 31
0
  0
LINE
  5
A10
330
A02
100
AcDbEntity
  8
Shape8156
100
AcDbLine
 10
238.545
 20
-13.3555
 30
0
 11
238.545
 21
-27.3555
 31
0
  0
LINE
  5
A11
330
A02
100
AcDbEntity
  8
Shape8157
100
AcDbLine
 10
238.545
 20
-27.3555
 30
0
 11
224.545
 21
-27.3555
 31
0
  0
LINE
  5
A12
330
A02
100
AcDbEntity
  8
Shape8158
100
AcDbLine
 10
224.545
 20
-27.3555
 30
0
 11
224.545
 21
-13.3555
 31
0
  0
LINE
  5
A13
330
A02
100
AcDbEntity
  8
Shape8159
100
AcDbLine
 10
224.545
 20
-13.3555
 30
0
 11
238.545
 21
-13.3555
 31
0
  0
LINE
  5
A14
330
A02
100
AcDbEntity
  8
Shape8160
100
AcDbLine
 10
100.433
 20
-13.3555
 30
0
 11
100.433
 21
-27.3555
 31
0
  0
LINE
  5
A15
330
A02
100
AcDbEntity
  8
Shape8161
100
AcDbLine
 10
100.433
 20
-27.3555
 30
0
 11
86.4325
 21
-27.3555
 31
0
  0
LINE
  5
A16
330
A02
100
AcDbEntity
  8
Shape8162
100
AcDbLine
 10
86.4325
 20
-27.3555
 30
0
 11
86.4325
 21
-13.3555
 31
0
  0
LINE
  5
A17
330
A02
100
AcDbEntity
  8
Shape8163
100
AcDbLine
 10
86.4325
 20
-13.3555
 30
0
 11
100.433
 21
-13.3555
 31
0
  0
LINE
  5
A18
330
A02
100
AcDbEntity
  8
Shape8164
100
AcDbLine
 10
79.0013
 20
-13.3555
 30
0
 11
79.0013
 21
-27.3555
 31
0
  0
LINE
  5
A19
330
A02
100
AcDbEntity
  8
Shape8165
100
AcDbLine
 10
79.0013
 20
-27.3555
 30
0
 11
65.0013
 21
-27.3555
 31
0
  0
LINE
  5
A1A
330
A02
100
AcDbEntity
  8
Shape8166
100
AcDbLine
 10
65.0013
 20
-27.3555
 30
0
 11
65.0013
 21
-13.3555
 31
0
  0
LINE
  5
A1B
330
A02
100
AcDbEntity
  8
Shape8167
100
AcDbLine
 10
65.0013
 20
-13.3555
 30
0
 11
79.0013
 21
-13.3555
 31
0
  0
LINE
  5
A1C
330
A02
100
AcDbEntity
  8
Shape8168
100
AcDbLine
 10
43.57
 20
-13.3555
 30
0
 11
57.57
 21
-13.3555
 31
0
  0
LINE
  5
A1D
330
A02
100
AcDbEntity
  8
Shape8169
100
AcDbLine
 10
57.57
 20
-13.3555
 30
0
 11
57.57
 21
-27.3555
 31
0
  0
LINE
  5
A1E
330
A02
100
AcDbEntity
  8
Shape8170
100
AcDbLine
 10
57.57
 20
-27.3555
 30
0
 11
43.57
 21
-27.3555
 31
0
  0
LINE
  5
A1F
330
A02
100
AcDbEntity
  8
Shape8171
100
AcDbLine
 10
43.57
 20
-27.3555
 30
0
 11
43.57
 21
-13.3555
 31
0
  0
LINE
  5
A20
330
A02
100
AcDbEntity
  8
Shape8196
100
AcDbLine
 10
43.5212
 20
16.4763
 30
0
 11
43.5212
 21
24.8445
 31
0
  0
LINE
  5
A21
330
A02
100
AcDbEntity
  8
Shape8197
100
AcDbLine
 10
43.5212
 20
24.8445
 30
0
 11
62.3838
 21
24.8445
 31
0
  0
LINE
  5
A22
330
A02
100
AcDbEntity
  8
Shape8198
100
AcDbLine
 10
62.3838
 20
24.8445
 30
0
 11
62.3838
 21
10.7445
 31
0
  0
LINE
  5
A23
330
A02
100
AcDbEntity
  8
Shape8199
100
AcDbLine
 10
62.3838
 20
10.7445
 30
0
 11
43.5212
 21
10.7445
 31
0
  0
LINE
  5
A24
330
A02
100
AcDbEntity
  8
Shape8200
100
AcDbLine
 10
43.5212
 20
10.7445
 30
0
 11
43.5212
 21
14.5763
 31
0
  0
LINE
  5
A25
330
A02
100
AcDbEntity
  8
Shape8201
100
AcDbLine
 10
43.5212
 20
14.5763
 30
0
 11
41.4829
 21
14.5763
 31
0
  0
LINE
  5
A26
330
A02
100
AcDbEntity
  8
Shape8202
100
AcDbLine
 10
41.4829
 20
14.5763
 30
0
 11
41.4829
 21
16.4763
 31
0
  0
LINE
  5
A27
330
A02
100
AcDbEntity
  8
Shape8203
100
AcDbLine
 10
41.4829
 20
16.4763
 30
0
 11
43.5212
 21
16.4763
 31
0
  0
LINE
  5
A28
330
A02
100
AcDbEntity
  8
Shape8204
100
AcDbLine
 10
260.027
 20
24.8445
 30
0
 11
260.027
 21
10.7445
 31
0
  0
LINE
  5
A29
330
A02
100
AcDbEntity
  8
Shape8205
100
AcDbLine
 10
260.027
 20
10.7445
 30
0
 11
245.927
 21
10.7445
 31
0
  0
LINE
  5
A2A
330
A02
100
AcDbEntity
  8
Shape8206
100
AcDbLine
 10
245.927
 20
10.7445
 30
0
 11
245.927
 21
24.8445
 31
0
  0
LINE
  5
A2B
330
A02
100
AcDbEntity
  8
Shape8207
100
AcDbLine
 10
245.927
 20
24.8445
 30
0
 11
260.027
 21
24.8445
 31
0
  0
LINE
  5
A2C
330
A02
100
AcDbEntity
  8
Shape8208
100
AcDbLine
 10
226.878
 20
24.8445
 30
0
 11
240.977
 21
24.8445
 31
0
  0
LINE
  5
A2D
330
A02
100
AcDbEntity
  8
Shape8209
100
AcDbLine
 10
240.977
 20
24.8445
 30
0
 11
240.977
 21
10.7445
 31
0
  0
LINE
  5
A2E
330
A02
100
AcDbEntity
  8
Shape8210
100
AcDbLine
 10
240.977
 20
10.7445
 30
0
 11
226.878
 21
10.7445
 31
0
  0
LINE
  5
A2F
330
A02
100
AcDbEntity
  8
Shape8211
100
AcDbLine
 10
226.878
 20
10.7445
 30
0
 11
226.878
 21
24.8445
 31
0
  0
LINE
  5
A30
330
A02
100
AcDbEntity
  8
Shape8212
100
AcDbLine
 10
207.827
 20
10.7445
 30
0
 11
207.827
 21
24.8445
 31
0
  0
LINE
  5
A31
330
A02
100
AcDbEntity
  8
Shape8213
100
AcDbLine
 10
207.827
 20
24.8445
 30
0
 11
221.927
 21
24.8445
 31
0
  0
LINE
  5
A32
330
A02
100
AcDbEntity
  8
Shape8214
100
AcDbLine
 10
221.927
 20
24.8445
 30
0
 11
221.927
 21
10.7445
 31
0
  0
LINE
  5
A33
330
A02
100
AcDbEntity
  8
Shape8215
100
AcDbLine
 10
221.927
 20
10.7445
 30
0
 11
207.827
 21
10.7445
 31
0
  0
LINE
  5
A34
330
A02
100
AcDbEntity
  8
Shape8216
100
AcDbLine
 10
188.778
 20
24.8445
 30
0
 11
202.878
 21
24.8445
 31
0
  0
LINE
  5
A35
330
A02
100
AcDbEntity
  8
Shape8217
100
AcDbLine
 10
202.878
 20
24.8445
 30
0
 11
202.878
 21
10.7445
 31
0
  0
LINE
  5
A36
330
A02
100
AcDbEntity
  8
Shape8218
100
AcDbLine
 10
202.878
 20
10.7445
 30
0
 11
188.778
 21
10.7445
 31
0
  0
LINE
  5
A37
330
A02
100
AcDbEntity
  8
Shape8219
100
AcDbLine
 10
188.778
 20
10.7445
 30
0
 11
188.778
 21
24.8445
 31
0
  0
LINE
  5
A38
330
A02
100
AcDbEntity
  8
Shape8220
100
AcDbLine
 10
169.727
 20
10.7445
 30
0
 11
169.727
 21
24.8445
 31
0
  0
LINE
  5
A39
330
A02
100
AcDbEntity
  8
Shape8221
100
AcDbLine
 10
169.727
 20
24.8445
 30
0
 11
183.827
 21
24.8445
 31
0
  0
LINE
  5
A3A
330
A02
100
AcDbEntity
  8
Shape8222
100
AcDbLine
 10
183.827
 20
24.8445
 30
0
 11
183.827
 21
10.7445
 31
0
  0
LINE
  5
A3B
330
A02
100
AcDbEntity
  8
Shape8223
100
AcDbLine
 10
183.827
 20
10.7445
 30
0
 11
169.727
 21
10.7445
 31
0
  0
LINE
  5
A3C
330
A02
100
AcDbEntity
  8
Shape8224
100
AcDbLine
 10
150.677
 20
10.7445
 30
0
 11
150.677
 21
24.8445
 31
0
  0
LINE
  5
A3D
330
A02
100
AcDbEntity
  8
Shape8225
100
AcDbLine
 10
150.677
 20
24.8445
 30
0
 11
164.778
 21
24.8445
 31
0
  0
LINE
  5
A3E
330
A02
100
AcDbEntity
  8
Shape8226
100
AcDbLine
 10
164.778
 20
24.8445
 30
0
 11
164.778
 21
10.7445
 31
0
  0
LINE
  5
A3F
330
A02
100
AcDbEntity
  8
Shape8227
100
AcDbLine
 10
164.778
 20
10.7445
 30
0
 11
150.677
 21
10.7445
 31
0
  0
LINE
  5
A40
330
A02
100
AcDbEntity
  8
Shape8228
100
AcDbLine
 10
131.627
 20
24.8445
 30
0
 11
145.727
 21
24.8445
 31
0
  0
LINE
  5
A41
330
A02
100
AcDbEntity
  8
Shape8229
100
AcDbLine
 10
145.727
 20
24.8445
 30
0
 11
145.727
 21
10.7445
 31
0
  0
LINE
  5
A42
330
A02
100
AcDbEntity
  8
Shape8230
100
AcDbLine
 10
145.727
 20
10.7445
 30
0
 11
131.627
 21
10.7445
 31
0
  0
LINE
  5
A43
330
A02
100
AcDbEntity
  8
Shape8231
100
AcDbLine
 10
131.627
 20
10.7445
 30
0
 11
131.627
 21
24.8445
 31
0
  0
LINE
  5
A44
330
A02
100
AcDbEntity
  8
Shape8232
100
AcDbLine
 10
112.578
 20
10.7445
 30
0
 11
112.578
 21
24.8445
 31
0
  0
LINE
  5
A45
330
A02
100
AcDbEntity
  8
Shape8233
100
AcDbLine
 10
112.578
 20
24.8445
 30
0
 11
126.677
 21
24.8445
 31
0
  0
LINE
  5
A46
330
A02
100
AcDbEntity
  8
Shape8234
100
AcDbLine
 10
126.677
 20
24.8445
 30
0
 11
126.677
 21
10.7445
 31
0
  0
LINE
  5
A47
330
A02
100
AcDbEntity
  8
Shape8235
100
AcDbLine
 10
126.677
 20
10.7445
 30
0
 11
112.578
 21
10.7445
 31
0
  0
LINE
  5
A48
330
A02
100
AcDbEntity
  8
Shape8236
100
AcDbLine
 10
93.5275
 20
10.7445
 30
0
 11
93.5275
 21
24.8445
 31
0
  0
LINE
  5
A49
330
A02
100
AcDbEntity
  8
Shape8237
100
AcDbLine
 10
93.5275
 20
24.8445
 30
0
 11
107.628
 21
24.8445
 31
0
  0
LINE
  5
A4A
330
A02
100
AcDbEntity
  8
Shape8238
100
AcDbLine
 10
107.628
 20
24.8445
 30
0
 11
107.628
 21
10.7445
 31
0
  0
LINE
  5
A4B
330
A02
100
AcDbEntity
  8
Shape8239
100
AcDbLine
 10
107.628
 20
10.7445
 30
0
 11
93.5275
 21
10.7445
 31
0
  0
LINE
  5
A4C
330
A02
100
AcDbEntity
  8
Shape8240
100
AcDbLine
 10
74.4775
 20
10.7445
 30
0
 11
74.4775
 21
24.8445
 31
0
  0
LINE
  5
A4D
330
A02
100
AcDbEntity
  8
Shape8241
100
AcDbLine
 10
74.4775
 20
24.8445
 30
0
 11
88.5775
 21
24.8445
 31
0
  0
LINE
  5
A4E
330
A02
100
AcDbEntity
  8
Shape8242
100
AcDbLine
 10
88.5775
 20
24.8445
 30
0
 11
88.5775
 21
10.7445
 31
0
  0
LINE
  5
A4F
330
A02
100
AcDbEntity
  8
Shape8243
100
AcDbLine
 10
88.5775
 20
10.7445
 30
0
 11
74.4775
 21
10.7445
 31
0
  0
LINE
  5
A50
330
A02
100
AcDbEntity
  8
Shape8244
100
AcDbLine
 10
45.9025
 20
43.8945
 30
0
 11
60.0025
 21
43.8945
 31
0
  0
LINE
  5
A51
330
A02
100
AcDbEntity
  8
Shape8245
100
AcDbLine
 10
60.0025
 20
43.8945
 30
0
 11
60.0025
 21
29.7945
 31
0
  0
LINE
  5
A52
330
A02
100
AcDbEntity
  8
Shape8246
100
AcDbLine
 10
60.0025
 20
29.7945
 30
0
 11
45.9025
 21
29.7945
 31
0
  0
LINE
  5
A53
330
A02
100
AcDbEntity
  8
Shape8247
100
AcDbLine
 10
45.9025
 20
29.7945
 30
0
 11
45.9025
 21
43.8945
 31
0
  0
LINE
  5
A54
330
A02
100
AcDbEntity
  8
Shape8248
100
AcDbLine
 10
69.715
 20
43.8945
 30
0
 11
83.815
 21
43.8945
 31
0
  0
LINE
  5
A55
330
A02
100
AcDbEntity
  8
Shape8249
100
AcDbLine
 10
83.815
 20
43.8945
 30
0
 11
83.815
 21
29.7945
 31
0
  0
LINE
  5
A56
330
A02
100
AcDbEntity
  8
Shape8250
100
AcDbLine
 10
83.815
 20
29.7945
 30
0
 11
69.715
 21
29.7945
 31
0
  0
LINE
  5
A57
330
A02
100
AcDbEntity
  8
Shape8251
100
AcDbLine
 10
69.715
 20
29.7945
 30
0
 11
69.715
 21
43.8945
 31
0
  0
LINE
  5
A58
330
A02
100
AcDbEntity
  8
Shape8252
100
AcDbLine
 10
88.765
 20
43.8945
 30
0
 11
102.865
 21
43.8945
 31
0
  0
LINE
  5
A59
330
A02
100
AcDbEntity
  8
Shape8253
100
AcDbLine
 10
102.865
 20
43.8945
 30
0
 11
102.865
 21
29.7945
 31
0
  0
LINE
  5
A5A
330
A02
100
AcDbEntity
  8
Shape8254
100
AcDbLine
 10
102.865
 20
29.7945
 30
0
 11
88.765
 21
29.7945
 31
0
  0
LINE
  5
A5B
330
A02
100
AcDbEntity
  8
Shape8255
100
AcDbLine
 10
88.765
 20
29.7945
 30
0
 11
88.765
 21
43.8945
 31
0
  0
LINE
  5
A5C
330
A02
100
AcDbEntity
  8
Shape8256
100
AcDbLine
 10
126.865
 20
43.8945
 30
0
 11
140.965
 21
43.8945
 31
0
  0
LINE
  5
A5D
330
A02
100
AcDbEntity
  8
Shape8257
100
AcDbLine
 10
140.965
 20
43.8945
 30
0
 11
140.965
 21
29.7945
 31
0
  0
LINE
  5
A5E
330
A02
100
AcDbEntity
  8
Shape8258
100
AcDbLine
 10
140.965
 20
29.7945
 30
0
 11
126.865
 21
29.7945
 31
0
  0
LINE
  5
A5F
330
A02
100
AcDbEntity
  8
Shape8259
100
AcDbLine
 10
126.865
 20
29.7945
 30
0
 11
126.865
 21
43.8945
 31
0
  0
LINE
  5
A60
330
A02
100
AcDbEntity
  8
Shape8260
100
AcDbLine
 10
145.915
 20
43.8945
 30
0
 11
160.015
 21
43.8945
 31
0
  0
LINE
  5
A61
330
A02
100
AcDbEntity
  8
Shape8261
100
AcDbLine
 10
160.015
 20
43.8945
 30
0
 11
160.015
 21
29.7945
 31
0
  0
LINE
  5
A62
330
A02
100
AcDbEntity
  8
Shape8262
100
AcDbLine
 10
160.015
 20
29.7945
 30
0
 11
145.915
 21
29.7945
 31
0
  0
LINE
  5
A63
330
A02
100
AcDbEntity
  8
Shape8263
100
AcDbLine
 10
145.915
 20
29.7945
 30
0
 11
145.915
 21
43.8945
 31
0
  0
LINE
  5
A64
330
A02
100
AcDbEntity
  8
Shape8264
100
AcDbLine
 10
164.965
 20
43.8945
 30
0
 11
179.065
 21
43.8945
 31
0
  0
LINE
  5
A65
330
A02
100
AcDbEntity
  8
Shape8265
100
AcDbLine
 10
179.065
 20
43.8945
 30
0
 11
179.065
 21
29.7945
 31
0
  0
LINE
  5
A66
330
A02
100
AcDbEntity
  8
Shape8266
100
AcDbLine
 10
179.065
 20
29.7945
 30
0
 11
164.965
 21
29.7945
 31
0
  0
LINE
  5
A67
330
A02
100
AcDbEntity
  8
Shape8267
100
AcDbLine
 10
164.965
 20
29.7945
 30
0
 11
164.965
 21
43.8945
 31
0
  0
LINE
  5
A68
330
A02
100
AcDbEntity
  8
Shape8268
100
AcDbLine
 10
184.015
 20
43.8945
 30
0
 11
198.115
 21
43.8945
 31
0
  0
LINE
  5
A69
330
A02
100
AcDbEntity
  8
Shape8269
100
AcDbLine
 10
198.115
 20
43.8945
 30
0
 11
198.115
 21
29.7945
 31
0
  0
LINE
  5
A6A
330
A02
100
AcDbEntity
  8
Shape8270
100
AcDbLine
 10
198.115
 20
29.7945
 30
0
 11
184.015
 21
29.7945
 31
0
  0
LINE
  5
A6B
330
A02
100
AcDbEntity
  8
Shape8271
100
AcDbLine
 10
184.015
 20
29.7945
 30
0
 11
184.015
 21
43.8945
 31
0
  0
LINE
  5
A6C
330
A02
100
AcDbEntity
  8
Shape8272
100
AcDbLine
 10
203.065
 20
43.8945
 30
0
 11
217.165
 21
43.8945
 31
0
  0
LINE
  5
A6D
330
A02
100
AcDbEntity
  8
Shape8273
100
AcDbLine
 10
217.165
 20
43.8945
 30
0
 11
217.165
 21
29.7945
 31
0
  0
LINE
  5
A6E
330
A02
100
AcDbEntity
  8
Shape8274
100
AcDbLine
 10
217.165
 20
29.7945
 30
0
 11
203.065
 21
29.7945
 31
0
  0
LINE
  5
A6F
330
A02
100
AcDbEntity
  8
Shape8275
100
AcDbLine
 10
203.065
 20
29.7945
 30
0
 11
203.065
 21
43.8945
 31
0
  0
LINE
  5
A70
330
A02
100
AcDbEntity
  8
Shape8276
100
AcDbLine
 10
222.115
 20
43.8945
 30
0
 11
236.215
 21
43.8945
 31
0
  0
LINE
  5
A71
330
A02
100
AcDbEntity
  8
Shape8277
100
AcDbLine
 10
236.215
 20
43.8945
 30
0
 11
236.215
 21
29.7945
 31
0
  0
LINE
  5
A72
330
A02
100
AcDbEntity
  8
Shape8278
100
AcDbLine
 10
236.215
 20
29.7945
 30
0
 11
222.115
 21
29.7945
 31
0
  0
LINE
  5
A73
330
A02
100
AcDbEntity
  8
Shape8279
100
AcDbLine
 10
222.115
 20
29.7945
 30
0
 11
222.115
 21
43.8945
 31
0
  0
LINE
  5
A74
330
A02
100
AcDbEntity
  8
Shape8280
100
AcDbLine
 10
241.165
 20
43.8945
 30
0
 11
255.265
 21
43.8945
 31
0
  0
LINE
  5
A75
330
A02
100
AcDbEntity
  8
Shape8281
100
AcDbLine
 10
255.265
 20
43.8945
 30
0
 11
255.265
 21
29.7945
 31
0
  0
LINE
  5
A76
330
A02
100
AcDbEntity
  8
Shape8282
100
AcDbLine
 10
255.265
 20
29.7945
 30
0
 11
241.165
 21
29.7945
 31
0
  0
LINE
  5
A77
330
A02
100
AcDbEntity
  8
Shape8283
100
AcDbLine
 10
241.165
 20
29.7945
 30
0
 11
241.165
 21
43.8945
 31
0
  0
LINE
  5
A78
330
A02
100
AcDbEntity
  8
Shape8284
100
AcDbLine
 10
84.0025
 20
5.7945
 30
0
 11
98.1025
 21
5.7945
 31
0
  0
LINE
  5
A79
330
A02
100
AcDbEntity
  8
Shape8285
100
AcDbLine
 10
98.1025
 20
5.7945
 30
0
 11
98.1025
 21
-8.3055
 31
0
  0
LINE
  5
A7A
330
A02
100
AcDbEntity
  8
Shape8286
100
AcDbLine
 10
98.1025
 20
-8.3055
 30
0
 11
84.0025
 21
-8.3055
 31
0
  0
LINE
  5
A7B
330
A02
100
AcDbEntity
  8
Shape8287
100
AcDbLine
 10
84.0025
 20
-8.3055
 30
0
 11
84.0025
 21
5.7945
 31
0
  0
LINE
  5
A7C
330
A02
100
AcDbEntity
  8
Shape8288
100
AcDbLine
 10
103.053
 20
5.7945
 30
0
 11
117.153
 21
5.7945
 31
0
  0
LINE
  5
A7D
330
A02
100
AcDbEntity
  8
Shape8289
100
AcDbLine
 10
117.153
 20
5.7945
 30
0
 11
117.153
 21
-8.3055
 31
0
  0
LINE
  5
A7E
330
A02
100
AcDbEntity
  8
Shape8290
100
AcDbLine
 10
117.153
 20
-8.3055
 30
0
 11
103.053
 21
-8.3055
 31
0
  0
LINE
  5
A7F
330
A02
100
AcDbEntity
  8
Shape8291
100
AcDbLine
 10
103.053
 20
-8.3055
 30
0
 11
103.053
 21
5.7945
 31
0
  0
LINE
  5
A80
330
A02
100
AcDbEntity
  8
Shape8292
100
AcDbLine
 10
122.102
 20
5.7945
 30
0
 11
136.202
 21
5.7945
 31
0
  0
LINE
  5
A81
330
A02
100
AcDbEntity
  8
Shape8293
100
AcDbLine
 10
136.202
 20
5.7945
 30
0
 11
136.202
 21
-8.3055
 31
0
  0
LINE
  5
A82
330
A02
100
AcDbEntity
  8
Shape8294
100
AcDbLine
 10
136.202
 20
-8.3055
 30
0
 11
122.102
 21
-8.3055
 31
0
  0
LINE
  5
A83
330
A02
100
AcDbEntity
  8
Shape8295
100
AcDbLine
 10
122.102
 20
-8.3055
 30
0
 11
122.102
 21
5.7945
 31
0
  0
LINE
  5
A84
330
A02
100
AcDbEntity
  8
Shape8296
100
AcDbLine
 10
141.152
 20
5.7945
 30
0
 11
155.252
 21
5.7945
 31
0
  0
LINE
  5
A85
330
A02
100
AcDbEntity
  8
Shape8297
100
AcDbLine
 10
155.252
 20
5.7945
 30
0
 11
155.252
 21
-8.3055
 31
0
  0
LINE
  5
A86
330
A02
100
AcDbEntity
  8
Shape8298
100
AcDbLine
 10
155.252
 20
-8.3055
 30
0
 11
141.152
 21
-8.3055
 31
0
  0
LINE
  5
A87
330
A02
100
AcDbEntity
  8
Shape8299
100
AcDbLine
 10
141.152
 20
-8.3055
 30
0
 11
141.152
 21
5.7945
 31
0
  0
LINE
  5
A88
330
A02
100
AcDbEntity
  8
Shape8300
100
AcDbLine
 10
160.202
 20
5.7945
 30
0
 11
174.302
 21
5.7945
 31
0
  0
LINE
  5
A89
330
A02
100
AcDbEntity
  8
Shape8301
100
AcDbLine
 10
174.302
 20
5.7945
 30
0
 11
174.302
 21
-8.3055
 31
0
  0
LINE
  5
A8A
330
A02
100
AcDbEntity
  8
Shape8302
100
AcDbLine
 10
174.302
 20
-8.3055
 30
0
 11
160.202
 21
-8.3055
 31
0
  0
LINE
  5
A8B
330
A02
100
AcDbEntity
  8
Shape8303
100
AcDbLine
 10
160.202
 20
-8.3055
 30
0
 11
160.202
 21
5.7945
 31
0
  0
LINE
  5
A8C
330
A02
100
AcDbEntity
  8
Shape8304
100
AcDbLine
 10
179.252
 20
5.7945
 30
0
 11
193.352
 21
5.7945
 31
0
  0
LINE
  5
A8D
330
A02
100
AcDbEntity
  8
Shape8305
100
AcDbLine
 10
193.352
 20
5.7945
 30
0
 11
193.352
 21
-8.3055
 31
0
  0
LINE
  5
A8E
330
A02
100
AcDbEntity
  8
Shape8306
100
AcDbLine
 10
193.352
 20
-8.3055
 30
0
 11
179.252
 21
-8.3055
 31
0
  0
LINE
  5
A8F
330
A02
100
AcDbEntity
  8
Shape8307
100
AcDbLine
 10
179.252
 20
-8.3055
 30
0
 11
179.252
 21
5.7945
 31
0
  0
LINE
  5
A90
330
A02
100
AcDbEntity
  8
Shape8308
100
AcDbLine
 10
198.302
 20
5.7945
 30
0
 11
212.402
 21
5.7945
 31
0
  0
LINE
  5
A91
330
A02
100
AcDbEntity
  8
Shape8309
100
AcDbLine
 10
212.402
 20
5.7945
 30
0
 11
212.402
 21
-8.3055
 31
0
  0
LINE
  5
A92
330
A02
100
AcDbEntity
  8
Shape8310
100
AcDbLine
 10
212.402
 20
-8.3055
 30
0
 11
198.302
 21
-8.3055
 31
0
  0
LINE
  5
A93
330
A02
100
AcDbEntity
  8
Shape8311
100
AcDbLine
 10
198.302
 20
-8.3055
 30
0
 11
198.302
 21
5.7945
 31
0
  0
LINE
  5
A94
330
A02
100
AcDbEntity
  8
Shape8312
100
AcDbLine
 10
217.352
 20
5.7945
 30
0
 11
231.452
 21
5.7945
 31
0
  0
LINE
  5
A95
330
A02
100
AcDbEntity
  8
Shape8313
100
AcDbLine
 10
231.452
 20
5.7945
 30
0
 11
231.452
 21
-8.3055
 31
0
  0
LINE
  5
A96
330
A02
100
AcDbEntity
  8
Shape8314
100
AcDbLine
 10
231.452
 20
-8.3055
 30
0
 11
217.352
 21
-8.3055
 31
0
  0
LINE
  5
A97
330
A02
100
AcDbEntity
  8
Shape8315
100
AcDbLine
 10
217.352
 20
-8.3055
 30
0
 11
217.352
 21
5.7945
 31
0
  0
LINE
  5
A98
330
A02
100
AcDbEntity
  8
Shape8316
100
AcDbLine
 10
236.402
 20
5.7945
 30
0
 11
250.502
 21
5.7945
 31
0
  0
LINE
  5
A99
330
A02
100
AcDbEntity
  8
Shape8317
100
AcDbLine
 10
250.502
 20
5.7945
 30
0
 11
250.502
 21
-8.3055
 31
0
  0
LINE
  5
A9A
330
A02
100
AcDbEntity
  8
Shape8318
100
AcDbLine
 10
250.502
 20
-8.3055
 30
0
 11
236.402
 21
-8.3055
 31
0
  0
LINE
  5
A9B
330
A02
100
AcDbEntity
  8
Shape8319
100
AcDbLine
 10
236.402
 20
-8.3055
 30
0
 11
236.402
 21
5.7945
 31
0
  0
LINE
  5
A9C
330
A02
100
AcDbEntity
  8
Shape8320
100
AcDbLine
 10
262.596
 20
5.7945
 30
0
 11
276.696
 21
5.7945
 31
0
  0
LINE
  5
A9D
330
A02
100
AcDbEntity
  8
Shape8321
100
AcDbLine
 10
276.696
 20
5.7945
 30
0
 11
276.696
 21
-8.3055
 31
0
  0
LINE
  5
A9E
330
A02
100
AcDbEntity
  8
Shape8322
100
AcDbLine
 10
276.696
 20
-8.3055
 30
0
 11
262.596
 21
-8.3055
 31
0
  0
LINE
  5
A9F
330
A02
100
AcDbEntity
  8
Shape8323
100
AcDbLine
 10
262.596
 20
-8.3055
 30
0
 11
262.596
 21
5.7945
 31
0
  0
LINE
  5
AA0
330
A02
100
AcDbEntity
  8
Shape8324
100
AcDbLine
 10
107.815
 20
43.8945
 30
0
 11
121.915
 21
43.8945
 31
0
  0
LINE
  5
AA1
330
A02
100
AcDbEntity
  8
Shape8325
100
AcDbLine
 10
121.915
 20
43.8945
 30
0
 11
121.915
 21
29.7945
 31
0
  0
LINE
  5
AA2
330
A02
100
AcDbEntity
  8
Shape8326
100
AcDbLine
 10
121.915
 20
29.7945
 30
0
 11
107.815
 21
29.7945
 31
0
  0
LINE
  5
AA3
330
A02
100
AcDbEntity
  8
Shape8327
100
AcDbLine
 10
107.815
 20
29.7945
 30
0
 11
107.815
 21
43.8945
 31
0
  0
ARC
  5
AA4
330
A02
100
AcDbEntity
  8
Shape9704
100
AcDbCircle
 10
183.49
 20
48.7186
 30
0
 40
1
100
AcDbArc
 50
-90
 51
0
  0
LINE
  5
AA5
330
A02
100
AcDbEntity
  8
Shape9705
100
AcDbLine
 10
183.49
 20
47.7186
 30
0
 11
172.99
 21
47.7186
 31
0
  0
ARC
  5
AA6
330
A02
100
AcDbEntity
  8
Shape9706
100
AcDbCircle
 10
172.99
 20
47.2186
 30
0
 40
0.5
100
AcDbArc
 50
90
 51
180
  0
LINE
  5
AA7
330
A02
100
AcDbEntity
  8
Shape9707
100
AcDbLine
 10
172.49
 20
47.2186
 30
0
 11
172.49
 21
46.9695
 31
0
  0
ARC
  5
AA8
330
A02
100
AcDbEntity
  8
Shape9708
100
AcDbCircle
 10
172.99
 20
46.9695
 30
0
 40
0.5
100
AcDbArc
 50
180
 51
-90
  0
LINE
  5
AA9
330
A02
100
AcDbEntity
  8
Shape9709
100
AcDbLine
 10
172.99
 20
46.4695
 30
0
 11
241.99
 21
46.4695
 31
0
  0
ARC
  5
AAA
330
A02
100
AcDbEntity
  8
Shape9710
100
AcDbCircle
 10
241.99
 20
46.9695
 30
0
 40
0.5
100
AcDbArc
 50
-90
 51
0
  0
LINE
  5
AAB
330
A02
100
AcDbEntity
  8
Shape9711
100
AcDbLine
 10
242.49
 20
46.9695
 30
0
 11
242.49
 21
47.2186
 31
0
  0
ARC
  5
AAC
330
A02
100
AcDbEntity
  8
Shape9712
100
AcDbCircle
 10
241.99
 20
47.2186
 30
0
 40
0.5
100
AcDbArc
 50
0
 51
90
  0
LINE
  5
AAD
330
A02
100
AcDbEntity
  8
Shape9713
100
AcDbLine
 10
241.99
 20
47.7186
 30
0
 11
231.49
 21
47.7186
 31
0
  0
ARC
  5
AAE
330
A02
100
AcDbEntity
  8
Shape9714
100
AcDbCircle
 10
231.49
 20
48.7186
 30
0
 40
1
100
AcDbArc
 50
180
 51
-90
  0
LINE
  5
AAF
330
A02
100
AcDbEntity
  8
Shape9715
100
AcDbLine
 10
230.49
 20
48.7186
 30
0
 11
230.49
 21
50.2186
 31
0
  0
ARC
  5
AB0
330
A02
100
AcDbEntity
  8
Shape9716
100
AcDbCircle
 10
231.49
 20
50.2186
 30
0
 40
1
100
AcDbArc
 50
90
 51
180
  0
LINE
  5
AB1
330
A02
100
AcDbEntity
  8
Shape9717
100
AcDbLine
 10
231.49
 20
51.2186
 30
0
 11
249.49
 21
51.2186
 31
0
  0
LINE
  5
AB2
330
A02
100
AcDbEntity
  8
Shape9718
100
AcDbLine
 10
249.49
 20
51.2186
 30
0
 11
249.49
 21
45.9686
 31
0
  0
ARC
  5
AB3
330
A02
100
AcDbEntity
  8
Shape9719
100
AcDbCircle
 10
249.99
 20
45.9686
 30
0
 40
0.5
100
AcDbArc
 50
180
 51
0
  0
LINE
  5
AB4
330
A02
100
AcDbEntity
  8
Shape9720
100
AcDbLine
 10
250.49
 20
45.9686
 30
0
 11
250.49
 21
49.9686
 31
0
  0
ARC
  5
AB5
330
A02
100
AcDbEntity
  8
Shape9721
100
AcDbCircle
 10
252.49
 20
49.9686
 30
0
 40
2
100
AcDbArc
 50
0
 51
180
  0
LINE
  5
AB6
330
A02
100
AcDbEntity
  8
Shape9722
100
AcDbLine
 10
254.49
 20
49.9686
 30
0
 11
254.49
 21
45.9686
 31
0
  0
ARC
  5
AB7
330
A02
100
AcDbEntity
  8
Shape9723
100
AcDbCircle
 10
254.99
 20
45.9686
 30
0
 40
0.5
100
AcDbArc
 50
180
 51
0
  0
LINE
  5
AB8
330
A02
100
AcDbEntity
  8
Shape9724
100
AcDbLine
 10
255.49
 20
45.9686
 30
0
 11
255.49
 21
51.2186
 31
0
  0
LINE
  5
AB9
330
A02
100
AcDbEntity
  8
Shape9725
100
AcDbLine
 10
255.49
 20
51.2186
 30
0
 11
273.49
 21
51.2186
 31
0
  0
ARC
  5
ABA
330
A02
100
AcDbEntity
  8
Shape9726
100
AcDbCircle
 10
273.49
 20
50.2186
 30
0
 40
1
100
AcDbArc
 50
0
 51
90
  0
LINE
  5
ABB
330
A02
100
AcDbEntity
  8
Shape9727
100
AcDbLine
 10
274.49
 20
50.2186
 30
0
 11
274.49
 21
48.7186
 31
0
  0
ARC
  5
ABC
330
A02
100
AcDbEntity
  8
Shape9728
100
AcDbCircle
 10
273.49
 20
48.7186
 30
0
 40
1
100
AcDbArc
 50
-90
 51
-5.98453e-11
  0
LINE
  5
ABD
330
A02
100
AcDbEntity
  8
Shape9729
100
AcDbLine
 10
273.49
 20
47.7186
 30
0
 11
262.99
 21
47.7186
 31
0
  0
ARC
  5
ABE
330
A02
100
AcDbEntity
  8
Shape9730
100
AcDbCircle
 10
262.99
 20
47.2186
 30
0
 40
0.5
100
AcDbArc
 50
90
 51
180
  0
LINE
  5
ABF
330
A02
100
AcDbEntity
  8
Shape9731
100
AcDbLine
 10
262.49
 20
47.2186
 30
0
 11
262.49
 21
46.9695
 31
0
  0
ARC
  5
AC0
330
A02
100
AcDbEntity
  8
Shape9732
100
AcDbCircle
 10
262.99
 20
46.9695
 30
0
 40
0.5
100
AcDbArc
 50
180
 51
-90
  0
LINE
  5
AC1
330
A02
100
AcDbEntity
  8
Shape9733
100
AcDbLine
 10
262.99
 20
46.4695
 30
0
 11
284.315
 21
46.4695
 31
0
  0
ARC
  5
AC2
330
A02
100
AcDbEntity
  8
Shape9734
100
AcDbCircle
 10
284.315
 20
44.4695
 30
0
 40
2
100
AcDbArc
 50
0
 51
90
  0
LINE
  5
AC3
330
A02
100
AcDbEntity
  8
Shape9735
100
AcDbLine
 10
286.315
 20
44.4695
 30
0
 11
286.315
 21
-27.9305
 31
0
  0
ARC
  5
AC4
330
A02
100
AcDbEntity
  8
Shape9736
100
AcDbCircle
 10
284.315
 20
-27.9305
 30
0
 40
2
100
AcDbArc
 50
-90
 51
0
  0
LINE
  5
AC5
330
A02
100
AcDbEntity
  8
Shape9737
100
AcDbLine
 10
284.315
 20
-29.9305
 30
0
 11
262.99
 21
-29.9305
 31
0
  0
ARC
  5
AC6
330
A02
100
AcDbEntity
  8
Shape9738
100
AcDbCircle
 10
262.99
 20
-30.4305
 30
0
 40
0.5
100
AcDbArc
 50
90
 51
180
  0
LINE
  5
AC7
330
A02
100
AcDbEntity
  8
Shape9739
100
AcDbLine
 10
262.49
 20
-30.4305
 30
0
 11
262.49
 21
-30.6796
 31
0
  0
ARC
  5
AC8
330
A02
100
AcDbEntity
  8
Shape9740
100
AcDbCircle
 10
262.99
 20
-30.6796
 30
0
 40
0.5
100
AcDbArc
 50
180
 51
-90
  0
LINE
  5
AC9
330
A02
100
AcDbEntity
  8
Shape9741
100
AcDbLine
 10
262.99
 20
-31.1796
 30
0
 11
273.49
 21
-31.1796
 31
0
  0
ARC
  5
ACA
330
A02
100
AcDbEntity
  8
Shape9742
100
AcDbCircle
 10
273.49
 20
-32.1796
 30
0
 40
1
100
AcDbArc
 50
5.8624e-11
 51
90
  0
LINE
  5
ACB
330
A02
100
AcDbEntity
  8
Shape9743
100
AcDbLine
 10
274.49
 20
-32.1796
 30
0
 11
274.49
 21
-33.6796
 31
0
  0
ARC
  5
ACC
330
A02
100
AcDbEntity
  8
Shape9744
100
AcDbCircle
 10
273.49
 20
-33.6796
 30
0
 40
1
100
AcDbArc
 50
-90
 51
-5.90311e-11
  0
LINE
  5
ACD
330
A02
100
AcDbEntity
  8
Shape9745
100
AcDbLine
 10
273.49
 20
-34.6796
 30
0
 11
255.49
 21
-34.6796
 31
0
  0
LINE
  5
ACE
330
A02
100
AcDbEntity
  8
Shape9746
100
AcDbLine
 10
255.49
 20
-34.6796
 30
0
 11
255.49
 21
-29.4296
 31
0
  0
ARC
  5
ACF
330
A02
100
AcDbEntity
  8
Shape9747
100
AcDbCircle
 10
254.99
 20
-29.4296
 30
0
 40
0.5
100
AcDbArc
 50
0
 51
180
  0
LINE
  5
AD0
330
A02
100
AcDbEntity
  8
Shape9748
100
AcDbLine
 10
254.49
 20
-29.4296
 30
0
 11
254.49
 21
-33.4296
 31
0
  0
ARC
  5
AD1
330
A02
100
AcDbEntity
  8
Shape9749
100
AcDbCircle
 10
252.49
 20
-33.4296
 30
0
 40
2
100
AcDbArc
 50
180
 51
0
  0
LINE
  5
AD2
330
A02
100
AcDbEntity
  8
Shape9750
100
AcDbLine
 10
250.49
 20
-33.4296
 30
0
 11
250.49
 21
-29.4296
 31
0
  0
ARC
  5
AD3
330
A02
100
AcDbEntity
  8
Shape9751
100
AcDbCircle
 10
249.99
 20
-29.4296
 30
0
 40
0.5
100
AcDbArc
 50
0
 51
180
  0
LINE
  5
AD4
330
A02
100
AcDbEntity
  8
Shape9752
100
AcDbLine
 10
249.49
 20
-29.4296
 30
0
 11
249.49
 21
-34.6796
 31
0
  0
LINE
  5
AD5
330
A02
100
AcDbEntity
  8
Shape9753
100
AcDbLine
 10
249.49
 20
-34.6796
 30
0
 11
231.49
 21
-34.6796
 31
0
  0
ARC
  5
AD6
330
A02
100
AcDbEntity
  8
Shape9754
100
AcDbCircle
 10
231.49
 20
-33.6796
 30
0
 40
1
100
AcDbArc
 50
180
 51
-90
  0
LINE
  5
AD7
330
A02
100
AcDbEntity
  8
Shape9755
100
AcDbLine
 10
230.49
 20
-33.6796
 30
0
 11
230.49
 21
-32.1796
 31
0
  0
ARC
  5
AD8
330
A02
100
AcDbEntity
  8
Shape9756
100
AcDbCircle
 10
231.49
 20
-32.1796
 30
0
 40
1
100
AcDbArc
 50
90
 51
180
  0
LINE
  5
AD9
330
A02
100
AcDbEntity
  8
Shape9757
100
AcDbLine
 10
231.49
 20
-31.1796
 30
0
 11
241.99
 21
-31.1796
 31
0
  0
ARC
  5
ADA
330
A02
100
AcDbEntity
  8
Shape9758
100
AcDbCircle
 10
241.99
 20
-30.6796
 30
0
 40
0.5
100
AcDbArc
 50
-90
 51
0
  0
LINE
  5
ADB
330
A02
100
AcDbEntity
  8
Shape9759
100
AcDbLine
 10
242.49
 20
-30.6796
 30
0
 11
242.49
 21
-30.4305
 31
0
  0
ARC
  5
ADC
330
A02
100
AcDbEntity
  8
Shape9760
100
AcDbCircle
 10
241.99
 20
-30.4305
 30
0
 40
0.5
100
AcDbArc
 50
0
 51
90
  0
LINE
  5
ADD
330
A02
100
AcDbEntity
  8
Shape9761
100
AcDbLine
 10
241.99
 20
-29.9305
 30
0
 11
172.99
 21
-29.9305
 31
0
  0
ARC
  5
ADE
330
A02
100
AcDbEntity
  8
Shape9762
100
AcDbCircle
 10
172.99
 20
-30.4305
 30
0
 40
0.5
100
AcDbArc
 50
90
 51
180
  0
LINE
  5
ADF
330
A02
100
AcDbEntity
  8
Shape9763
100
AcDbLine
 10
172.49
 20
-30.4305
 30
0
 11
172.49
 21
-30.6796
 31
0
  0
ARC
  5
AE0
330
A02
100
AcDbEntity
  8
Shape9764
100
AcDbCircle
 10
172.99
 20
-30.6796
 30
0
 40
0.5
100
AcDbArc
 50
180
 51
-90
  0
LINE
  5
AE1
330
A02
100
AcDbEntity
  8
Shape9765
100
AcDbLine
 10
172.99
 20
-31.1796
 30
0
 11
183.49
 21
-31.1796
 31
0
  0
ARC
  5
AE2
330
A02
100
AcDbEntity
  8
Shape9766
100
AcDbCircle
 10
183.49
 20
-32.1796
 30
0
 40
1
100
AcDbArc
 50
0
 51
90
  0
LINE
  5
AE3
330
A02
100
AcDbEntity
  8
Shape9767
100
AcDbLine
 10
184.49
 20
-32.1796
 30
0
 11
184.49
 21
-33.6796
 31
0
  0
ARC
  5
AE4
330
A02
100
AcDbEntity
  8
Shape9768
100
AcDbCircle
 10
183.49
 20
-33.6796
 30
0
 40
1
100
AcDbArc
 50
-90
 51
0
  0
LINE
  5
AE5
330
A02
100
AcDbEntity
  8
Shape9769
100
AcDbLine
 10
183.49
 20
-34.6796
 30
0
 11
165.49
 21
-34.6796
 31
0
  0
LINE
  5
AE6
330
A02
100
AcDbEntity
  8
Shape9770
100
AcDbLine
 10
165.49
 20
-34.6796
 30
0
 11
165.49
 21
-29.4296
 31
0
  0
ARC
  5
AE7
330
A02
100
AcDbEntity
  8
Shape9771
100
AcDbCircle
 10
164.99
 20
-29.4296
 30
0
 40
0.5
100
AcDbArc
 50
0
 51
180
  0
LINE
  5
AE8
330
A02
100
AcDbEntity
  8
Shape9772
100
AcDbLine
 10
164.49
 20
-29.4296
 30
0
 11
164.49
 21
-33.4296
 31
0
  0
ARC
  5
AE9
330
A02
100
AcDbEntity
  8
Shape9773
100
AcDbCircle
 10
162.49
 20
-33.4296
 30
0
 40
2
100
AcDbArc
 50
180
 51
0
  0
LINE
  5
AEA
330
A02
100
AcDbEntity
  8
Shape9774
100
AcDbLine
 10
160.49
 20
-33.4296
 30
0
 11
160.49
 21
-29.4296
 31
0
  0
ARC
  5
AEB
330
A02
100
AcDbEntity
  8
Shape9775
100
AcDbCircle
 10
159.99
 20
-29.4296
 30
0
 40
0.5
100
AcDbArc
 50
0
 51
180
  0
LINE
  5
AEC
330
A02
100
AcDbEntity
  8
Shape9776
100
AcDbLine
 10
159.49
 20
-29.4296
 30
0
 11
159.49
 21
-34.6796
 31
0
  0
LINE
  5
AED
330
A02
100
AcDbEntity
  8
Shape9777
100
AcDbLine
 10
159.49
 20
-34.6796
 30
0
 11
141.49
 21
-34.6796
 31
0
  0
ARC
  5
AEE
330
A02
100
AcDbEntity
  8
Shape9778
100
AcDbCircle
 10
141.49
 20
-33.6796
 30
0
 40
1
100
AcDbArc
 50
180
 51
-90
  0
LINE
  5
AEF
330
A02
100
AcDbEntity
  8
Shape9779
100
AcDbLine
 10
140.49
 20
-33.6796
 30
0
 11
140.49
 21
-32.1796
 31
0
  0
ARC
  5
AF0
330
A02
100
AcDbEntity
  8
Shape9780
100
AcDbCircle
 10
141.49
 20
-32.1796
 30
0
 40
1
100
AcDbArc
 50
90
 51
180
  0
LINE
  5
AF1
330
A02
100
AcDbEntity
  8
Shape9781
100
AcDbLine
 10
141.49
 20
-31.1796
 30
0
 11
151.99
 21
-31.1796
 31
0
  0
ARC
  5
AF2
330
A02
100
AcDbEntity
  8
Shape9782
100
AcDbCircle
 10
151.99
 20
-30.6796
 30
0
 40
0.5
100
AcDbArc
 50
-90
 51
0
  0
LINE
  5
AF3
330
A02
100
AcDbEntity
  8
Shape9783
100
AcDbLine
 10
152.49
 20
-30.6796
 30
0
 11
152.49
 21
-30.4305
 31
0
  0
ARC
  5
AF4
330
A02
100
AcDbEntity
  8
Shape9784
100
AcDbCircle
 10
151.99
 20
-30.4305
 30
0
 40
0.5
100
AcDbArc
 50
0
 51
90
  0
LINE
  5
AF5
330
A02
100
AcDbEntity
  8
Shape9785
100
AcDbLine
 10
151.99
 20
-29.9305
 30
0
 11
82.99
 21
-29.9305
 31
0
  0
ARC
  5
AF6
330
A02
100
AcDbEntity
  8
Shape9786
100
AcDbCircle
 10
82.99
 20
-30.4305
 30
0
 40
0.5
100
AcDbArc
 50
90
 51
180
  0
LINE
  5
AF7
330
A02
100
AcDbEntity
  8
Shape9787
100
AcDbLine
 10
82.49
 20
-30.4305
 30
0
 11
82.49
 21
-30.6796
 31
0
  0
ARC
  5
AF8
330
A02
100
AcDbEntity
  8
Shape9788
100
AcDbCircle
 10
82.99
 20
-30.6796
 30
0
 40
0.5
100
AcDbArc
 50
180
 51
-90
  0
LINE
  5
AF9
330
A02
100
AcDbEntity
  8
Shape9789
100
AcDbLine
 10
82.99
 20
-31.1796
 30
0
 11
93.49
 21
-31.1796
 31
0
  0
ARC
  5
AFA
330
A02
100
AcDbEntity
  8
Shape9790
100
AcDbCircle
 10
93.49
 20
-32.1796
 30
0
 40
1
100
AcDbArc
 50
0
 51
90
  0
LINE
  5
AFB
330
A02
100
AcDbEntity
  8
Shape9791
100
AcDbLine
 10
94.49
 20
-32.1796
 30
0
 11
94.49
 21
-33.6796
 31
0
  0
ARC
  5
AFC
330
A02
100
AcDbEntity
  8
Shape9792
100
AcDbCircle
 10
93.49
 20
-33.6796
 30
0
 40
1
100
AcDbArc
 50
-90
 51
0
  0
LINE
  5
AFD
330
A02
100
AcDbEntity
  8
Shape9793
100
AcDbLine
 10
93.49
 20
-34.6796
 30
0
 11
75.49
 21
-34.6796
 31
0
  0
LINE
  5
AFE
330
A02
100
AcDbEntity
  8
Shape9794
100
AcDbLine
 10
75.49
 20
-34.6796
 30
0
 11
75.49
 21
-29.4296
 31
0
  0
ARC
  5
AFF
330
A02
100
AcDbEntity
  8
Shape9795
100
AcDbCircle
 10
74.99
 20
-29.4296
 30
0
 40
0.5
100
AcDbArc
 50
0
 51
180
  0
LINE
  5
B00
330
A02
100
AcDbEntity
  8
Shape9796
100
AcDbLine
 10
74.49
 20
-29.4296
 30
0
 11
74.49
 21
-33.4296
 31
0
  0
ARC
  5
B01
330
A02
100
AcDbEntity
  8
Shape9797
100
AcDbCircle
 10
72.49
 20
-33.4296
 30
0
 40
2
100
AcDbArc
 50
180
 51
0
  0
LINE
  5
B02
330
A02
100
AcDbEntity
  8
Shape9798
100
AcDbLine
 10
70.49
 20
-33.4296
 30
0
 11
70.49
 21
-29.4296
 31
0
  0
ARC
  5
B03
330
A02
100
AcDbEntity
  8
Shape9799
100
AcDbCircle
 10
69.99
 20
-29.4296
 30
0
 40
0.5
100
AcDbArc
 50
0
 51
180
  0
LINE
  5
B04
330
A02
100
AcDbEntity
  8
Shape9800
100
AcDbLine
 10
69.49
 20
-29.4296
 30
0
 11
69.49
 21
-34.6796
 31
0
  0
LINE
  5
B05
330
A02
100
AcDbEntity
  8
Shape9801
100
AcDbLine
 10
69.49
 20
-34.6796
 30
0
 11
51.49
 21
-34.6796
 31
0
  0
ARC
  5
B06
330
A02
100
AcDbEntity
  8
Shape9802
100
AcDbCircle
 10
51.49
 20
-33.6796
 30
0
 40
1
100
AcDbArc
 50
180
 51
-90
  0
LINE
  5
B07
330
A02
100
AcDbEntity
  8
Shape9803
100
AcDbLine
 10
50.49
 20
-33.6796
 30
0
 11
50.49
 21
-32.1796
 31
0
  0
ARC
  5
B08
330
A02
100
AcDbEntity
  8
Shape9804
100
AcDbCircle
 10
51.49
 20
-32.1796
 30
0
 40
1
100
AcDbArc
 50
90
 51
180
  0
LINE
  5
B09
330
A02
100
AcDbEntity
  8
Shape9805
100
AcDbLine
 10
51.49
 20
-31.1796
 30
0
 11
61.99
 21
-31.1796
 31
0
  0
ARC
  5
B0A
330
A02
100
AcDbEntity
  8
Shape9806
100
AcDbCircle
 10
61.99
 20
-30.6796
 30
0
 40
0.5
100
AcDbArc
 50
-90
 51
0
  0
LINE
  5
B0B
330
A02
100
AcDbEntity
  8
Shape9807
100
AcDbLine
 10
62.49
 20
-30.6796
 30
0
 11
62.49
 21
-30.4305
 31
0
  0
ARC
  5
B0C
330
A02
100
AcDbEntity
  8
Shape9808
100
AcDbCircle
 10
61.99
 20
-30.4305
 30
0
 40
0.5
100
AcDbArc
 50
0
 51
90
  0
LINE
  5
B0D
330
A02
100
AcDbEntity
  8
Shape9809
100
AcDbLine
 10
61.99
 20
-29.9305
 30
0
 11
40.665
 21
-29.9305
 31
0
  0
ARC
  5
B0E
330
A02
100
AcDbEntity
  8
Shape9810
100
AcDbCircle
 10
40.665
 20
-27.9305
 30
0
 40
2
100
AcDbArc
 50
180
 51
-90
  0
LINE
  5
B0F
330
A02
100
AcDbEntity
  8
Shape9811
100
AcDbLine
 10
38.665
 20
-27.9305
 30
0
 11
38.665
 21
44.4695
 31
0
  0
ARC
  5
B10
330
A02
100
AcDbEntity
  8
Shape9812
100
AcDbCircle
 10
40.665
 20
44.4695
 30
0
 40
2
100
AcDbArc
 50
90
 51
180
  0
LINE
  5
B11
330
A02
100
AcDbEntity
  8
Shape9813
100
AcDbLine
 10
40.665
 20
46.4695
 30
0
 11
61.99
 21
46.4695
 31
0
  0
ARC
  5
B12
330
A02
100
AcDbEntity
  8
Shape9814
100
AcDbCircle
 10
61.99
 20
46.9695
 30
0
 40
0.5
100
AcDbArc
 50
-90
 51
0
  0
LINE
  5
B13
330
A02
100
AcDbEntity
  8
Shape9815
100
AcDbLine
 10
62.49
 20
46.9695
 30
0
 11
62.49
 21
47.2186
 31
0
  0
ARC
  5
B14
330
A02
100
AcDbEntity
  8
Shape9816
100
AcDbCircle
 10
61.99
 20
47.2186
 30
0
 40
0.5
100
AcDbArc
 50
0
 51
90
  0
LINE
  5
B15
330
A02
100
AcDbEntity
  8
Shape9817
100
AcDbLine
 10
61.99
 20
47.7186
 30
0
 11
51.49
 21
47.7186
 31
0
  0
ARC
  5
B16
330
A02
100
AcDbEntity
  8
Shape9818
100
AcDbCircle
 10
51.49
 20
48.7186
 30
0
 40
1
100
AcDbArc
 50
180
 51
-90
  0
LINE
  5
B17
330
A02
100
AcDbEntity
  8
Shape9819
100
AcDbLine
 10
50.49
 20
48.7186
 30
0
 11
50.49
 21
50.2186
 31
0
  0
ARC
  5
B18
330
A02
100
AcDbEntity
  8
Shape9820
100
AcDbCircle
 10
51.49
 20
50.2186
 30
0
 40
1
100
AcDbArc
 50
90
 51
180
  0
LINE
  5
B19
330
A02
100
AcDbEntity
  8
Shape9821
100
AcDbLine
 10
51.49
 20
51.2186
 30
0
 11
69.49
 21
51.2186
 31
0
  0
LINE
  5
B1A
330
A02
100
AcDbEntity
  8
Shape9822
100
AcDbLine
 10
69.49
 20
51.2186
 30
0
 11
69.49
 21
45.9686
 31
0
  0
ARC
  5
B1B
330
A02
100
AcDbEntity
  8
Shape9823
100
AcDbCircle
 10
69.99
 20
45.9686
 30
0
 40
0.5
100
AcDbArc
 50
180
 51
0
  0
LINE
  5
B1C
330
A02
100
AcDbEntity
  8
Shape9824
100
AcDbLine
 10
70.49
 20
45.9686
 30
0
 11
70.49
 21
49.9686
 31
0
  0
ARC
  5
B1D
330
A02
100
AcDbEntity
  8
Shape9825
100
AcDbCircle
 10
72.49
 20
49.9686
 30
0
 40
2
100
AcDbArc
 50
0
 51
180
  0
LINE
  5
B1E
330
A02
100
AcDbEntity
  8
Shape9826
100
AcDbLine
 10
74.49
 20
49.9686
 30
0
 11
74.49
 21
45.9686
 31
0
  0
ARC
  5
B1F
330
A02
100
AcDbEntity
  8
Shape9827
100
AcDbCircle
 10
74.99
 20
45.9686
 30
0
 40
0.5
100
AcDbArc
 50
180
 51
0
  0
LINE
  5
B20
330
A02
100
AcDbEntity
  8
Shape9828
100
AcDbLine
 10
75.49
 20
45.9686
 30
0
 11
75.49
 21
51.2186
 31
0
  0
LINE
  5
B21
330
A02
100
AcDbEntity
  8
Shape9829
100
AcDbLine
 10
75.49
 20
51.2186
 30
0
 11
93.49
 21
51.2186
 31
0
  0
ARC
  5
B22
330
A02
100
AcDbEntity
  8
Shape9830
100
AcDbCircle
 10
93.49
 20
50.2186
 30
0
 40
1
100
AcDbArc
 50
0
 51
90
  0
LINE
  5
B23
330
A02
100
AcDbEntity
  8
Shape9831
100
AcDbLine
 10
94.49
 20
50.2186
 30
0
 11
94.49
 21
48.7186
 31
0
  0
ARC
  5
B24
330
A02
100
AcDbEntity
  8
Shape9832
100
AcDbCircle
 10
93.49
 20
48.7186
 30
0
 40
1
100
AcDbArc
 50
-90
 51
0
  0
LINE
  5
B25
330
A02
100
AcDbEntity
  8
Shape9833
100
AcDbLine
 10
93.49
 20
47.7186
 30
0
 11
82.99
 21
47.7186
 31
0
  0
ARC
  5
B26
330
A02
100
AcDbEntity
  8
Shape9834
100
AcDbCircle
 10
82.99
 20
47.2186
 30
0
 40
0.5
100
AcDbArc
 50
90
 51
180
  0
LINE
  5
B27
330
A02
100
AcDbEntity
  8
Shape9835
100
AcDbLine
 10
82.49
 20
47.2186
 30
0
 11
82.49
 21
46.9695
 31
0
  0
ARC
  5
B28
330
A02
100
AcDbEntity
  8
Shape9836
100
AcDbCircle
 10
82.99
 20
46.9695
 30
0
 40
0.5
100
AcDbArc
 50
180
 51
-90
  0
LINE
  5
B29
330
A02
100
AcDbEntity
  8
Shape9837
100
AcDbLine
 10
82.99
 20
46.4695
 30
0
 11
151.99
 21
46.4695
 31
0
  0
ARC
  5
B2A
330
A02
100
AcDbEntity
  8
Shape9838
100
AcDbCircle
 10
151.99
 20
46.9695
 30
0
 40
0.5
100
AcDbArc
 50
-90
 51
0
  0
LINE
  5
B2B
330
A02
100
AcDbEntity
  8
Shape9839
100
AcDbLine
 10
152.49
 20
46.9695
 30
0
 11
152.49
 21
47.2186
 31
0
  0
ARC
  5
B2C
330
A02
100
AcDbEntity
  8
Shape9840
100
AcDbCircle
 10
151.99
 20
47.2186
 30
0
 40
0.5
100
AcDbArc
 50
0
 51
90
  0
LINE
  5
B2D
330
A02
100
AcDbEntity
  8
Shape9841
100
AcDbLine
 10
151.99
 20
47.7186
 30
0
 11
141.49
 21
47.7186
 31
0
  0
ARC
  5
B2E
330
A02
100
AcDbEntity
  8
Shape9842
100
AcDbCircle
 10
141.49
 20
48.7186
 30
0
 40
1
100
AcDbArc
 50
180
 51
-90
  0
LINE
  5
B2F
330
A02
100
AcDbEntity
  8
Shape9843
100
AcDbLine
 10
140.49
 20
48.7186
 30
0
 11
140.49
 21
50.2186
 31
0
  0
ARC
  5
B30
330
A02
100
AcDbEntity
  8
Shape9844
100
AcDbCircle
 10
141.49
 20
50.2186
 30
0
 40
1
100
AcDbArc
 50
90
 51
180
  0
LINE
  5
B31
330
A02
100
AcDbEntity
  8
Shape9845
100
AcDbLine
 10
141.49
 20
51.2186
 30
0
 11
159.49
 21
51.2186
 31
0
  0
LINE
  5
B32
330
A02
100
AcDbEntity
  8
Shape9846
100
AcDbLine
 10
159.49
 20
51.2186
 30
0
 11
159.49
 21
45.9686
 31
0
  0
ARC
  5
B33
330
A02
100
AcDbEntity
  8
Shape9847
100
AcDbCircle
 10
159.99
 20
45.9686
 30
0
 40
0.5
100
AcDbArc
 50
180
 51
0
  0
LINE
  5
B34
330
A02
100
AcDbEntity
  8
Shape9848
100
AcDbLine
 10
160.49
 20
45.9686
 30
0
 11
160.49
 21
49.9686
 31
0
  0
ARC
  5
B35
330
A02
100
AcDbEntity
  8
Shape9849
100
AcDbCircle
 10
162.49
 20
49.9686
 30
0
 40
2
100
AcDbArc
 50
0
 51
180
  0
LINE
  5
B36
330
A02
100
AcDbEntity
  8
Shape9850
100
AcDbLine
 10
164.49
 20
49.9686
 30
0
 11
164.49
 21
45.9686
 31
0
  0
ARC
  5
B37
330
A02
100
AcDbEntity
  8
Shape9851
100
AcDbCircle
 10
164.99
 20
45.9686
 30
0
 40
0.5
100
AcDbArc
 50
180
 51
0
  0
LINE
  5
B38
330
A02
100
AcDbEntity
  8
Shape9852
100
AcDbLine
 10
165.49
 20
45.9686
 30
0
 11
165.49
 21
51.2186
 31
0
  0
LINE
  5
B39
330
A02
100
AcDbEntity
  8
Shape9853
100
AcDbLine
 10
165.49
 20
51.2186
 30
0
 11
183.49
 21
51.2186
 31
0
  0
ARC
  5
B3A
330
A02
100
AcDbEntity
  8
Shape9854
100
AcDbCircle
 10
183.49
 20
50.2186
 30
0
 40
1
100
AcDbArc
 50
0
 51
90
  0
LINE
  5
B3B
330
A02
100
AcDbEntity
  8
Shape9855
100
AcDbLine
 10
184.49
 20
50.2186
 30
0
 11
184.49
 21
48.7186
 31
0
  0
CIRCLE
  5
B3C
330
A02
100
AcDbEntity
  8
Shape9856
100
AcDbCircle
 10
252.49
 20
49.9686
 40
1.1
  0
CIRCLE
  5
B3D
330
A02
100
AcDbEntity
  8
Shape9857
100
AcDbCircle
 10
162.49
 20
49.9686
 40
1.1
  0
CIRCLE
  5
B3E
330
A02
100
AcDbEntity
  8
Shape9858
100
AcDbCircle
 10
72.49
 20
49.9686
 40
1.1
  0
CIRCLE
  5
B3F
330
A02
100
AcDbEntity
  8
Shape9859
100
AcDbCircle
 10
252.49
 20
-33.4296
 40
1.1
  0
CIRCLE
  5
B40
330
A02
100
AcDbEntity
  8
Shape9860
100
AcDbCircle
 10
162.49
 20
-33.4296
 40
1.1
  0
CIRCLE
  5
B41
330
A02
100
AcDbEntity
  8
Shape9861
100
AcDbCircle
 10
72.49
 20
-33.4296
 40
1.1
  0
LINE
  5
B42
330
A02
100
AcDbEntity
  8
Shape10276
100
AcDbLine
 10
126.914
 20
-26.8558
 30
0
 11
126.914
 21
-22.6554
 31
0
  0
LINE
  5
B43
330
A02
100
AcDbEntity
  8
Shape10277
100
AcDbLine
 10
126.914
 20
-22.6554
 30
0
 11
118.239
 21
-22.6554
 31
0
  0
LINE
  5
B44
330
A02
100
AcDbEntity
  8
Shape10278
100
AcDbLine
 10
118.239
 20
-22.6554
 30
0
 11
118.239
 21
-25.8856
 31
0
  0
LINE
  5
B45
330
A02
100
AcDbEntity
  8
Shape10279
100
AcDbLine
 10
118.239
 20
-25.8856
 30
0
 11
111.488
 21
-25.8856
 31
0
  0
LINE
  5
B46
330
A02
100
AcDbEntity
  8
Shape10280
100
AcDbLine
 10
111.488
 20
-25.8856
 30
0
 11
111.488
 21
-22.6554
 31
0
  0
LINE
  5
B47
330
A02
100
AcDbEntity
  8
Shape10281
100
AcDbLine
 10
111.488
 20
-22.6554
 30
0
 11
110.664
 21
-22.6554
 31
0
  0
LINE
  5
B48
330
A02
100
AcDbEntity
  8
Shape10282
100
AcDbLine
 10
110.664
 20
-22.6554
 30
0
 11
110.664
 21
-19.8566
 31
0
  0
LINE
  5
B49
330
A02
100
AcDbEntity
  8
Shape10283
100
AcDbLine
 10
110.664
 20
-19.8566
 30
0
 11
111.488
 21
-19.8566
 31
0
  0
LINE
  5
B4A
330
A02
100
AcDbEntity
  8
Shape10284
100
AcDbLine
 10
111.488
 20
-19.8566
 30
0
 11
111.488
 21
-13.5866
 31
0
  0
LINE
  5
B4B
330
A02
100
AcDbEntity
  8
Shape10285
100
AcDbLine
 10
111.488
 20
-13.5866
 30
0
 11
113.214
 21
-13.5866
 31
0
  0
LINE
  5
B4C
330
A02
100
AcDbEntity
  8
Shape10286
100
AcDbLine
 10
113.214
 20
-13.5866
 30
0
 11
113.214
 21
-12.3863
 31
0
  0
LINE
  5
B4D
330
A02
100
AcDbEntity
  8
Shape10287
100
AcDbLine
 10
113.214
 20
-12.3863
 30
0
 11
116.514
 21
-12.3863
 31
0
  0
LINE
  5
B4E
330
A02
100
AcDbEntity
  8
Shape10288
100
AcDbLine
 10
116.514
 20
-12.3863
 30
0
 11
116.514
 21
-13.5866
 31
0
  0
LINE
  5
B4F
330
A02
100
AcDbEntity
  8
Shape10289
100
AcDbLine
 10
116.514
 20
-13.5866
 30
0
 11
118.239
 21
-13.5866
 31
0
  0
LINE
  5
B50
330
A02
100
AcDbEntity
  8
Shape10290
100
AcDbLine
 10
118.239
 20
-13.5866
 30
0
 11
118.239
 21
-18.0555
 31
0
  0
LINE
  5
B51
330
A02
100
AcDbEntity
  8
Shape10291
100
AcDbLine
 10
118.239
 20
-18.0555
 30
0
 11
126.914
 21
-18.0555
 31
0
  0
LINE
  5
B52
330
A02
100
AcDbEntity
  8
Shape10292
100
AcDbLine
 10
126.914
 20
-18.0555
 30
0
 11
126.914
 21
-13.8564
 31
0
  0
LINE
  5
B53
330
A02
100
AcDbEntity
  8
Shape10293
100
AcDbLine
 10
127.414
 20
-13.3564
 30
0
 11
140.413
 21
-13.3564
 31
0
  0
ARC
  5
B54
330
A02
100
AcDbEntity
  8
Shape10294
100
AcDbCircle
 10
127.414
 20
-13.8564
 30
0
 40
0.5
100
AcDbArc
 50
90
 51
180
  0
ARC
  5
B55
330
A02
100
AcDbEntity
  8
Shape10295
100
AcDbCircle
 10
140.413
 20
-13.8564
 30
0
 40
0.5
100
AcDbArc
 50
0
 51
90
  0
LINE
  5
B56
330
A02
100
AcDbEntity
  8
Shape10296
100
AcDbLine
 10
140.913
 20
-13.8564
 30
0
 11
140.913
 21
-18.0555
 31
0
  0
LINE
  5
B57
330
A02
100
AcDbEntity
  8
Shape10297
100
AcDbLine
 10
140.913
 20
-18.0555
 30
0
 11
149.588
 21
-18.0555
 31
0
  0
LINE
  5
B58
330
A02
100
AcDbEntity
  8
Shape10298
100
AcDbLine
 10
149.588
 20
-18.0555
 30
0
 11
149.588
 21
-13.5866
 31
0
  0
LINE
  5
B59
330
A02
100
AcDbEntity
  8
Shape10299
100
AcDbLine
 10
149.588
 20
-13.5866
 30
0
 11
151.313
 21
-13.5866
 31
0
  0
LINE
  5
B5A
330
A02
100
AcDbEntity
  8
Shape10300
100
AcDbLine
 10
151.313
 20
-13.5866
 30
0
 11
151.313
 21
-12.3863
 31
0
  0
LINE
  5
B5B
330
A02
100
AcDbEntity
  8
Shape10301
100
AcDbLine
 10
151.313
 20
-12.3863
 30
0
 11
154.613
 21
-12.3863
 31
0
  0
LINE
  5
B5C
330
A02
100
AcDbEntity
  8
Shape10302
100
AcDbLine
 10
154.613
 20
-12.3863
 30
0
 11
154.613
 21
-13.5866
 31
0
  0
LINE
  5
B5D
330
A02
100
AcDbEntity
  8
Shape10303
100
AcDbLine
 10
154.613
 20
-13.5866
 30
0
 11
156.339
 21
-13.5866
 31
0
  0
LINE
  5
B5E
330
A02
100
AcDbEntity
  8
Shape10304
100
AcDbLine
 10
156.339
 20
-13.5866
 30
0
 11
156.339
 21
-19.8566
 31
0
  0
LINE
  5
B5F
330
A02
100
AcDbEntity
  8
Shape10305
100
AcDbLine
 10
156.339
 20
-19.8566
 30
0
 11
157.163
 21
-19.8566
 31
0
  0
LINE
  5
B60
330
A02
100
AcDbEntity
  8
Shape10306
100
AcDbLine
 10
157.163
 20
-19.8566
 30
0
 11
157.163
 21
-22.6554
 31
0
  0
LINE
  5
B61
330
A02
100
AcDbEntity
  8
Shape10307
100
AcDbLine
 10
157.163
 20
-22.6554
 30
0
 11
156.339
 21
-22.6554
 31
0
  0
LINE
  5
B62
330
A02
100
AcDbEntity
  8
Shape10308
100
AcDbLine
 10
156.339
 20
-22.6554
 30
0
 11
156.339
 21
-25.8856
 31
0
  0
LINE
  5
B63
330
A02
100
AcDbEntity
  8
Shape10309
100
AcDbLine
 10
156.339
 20
-25.8856
 30
0
 11
149.588
 21
-25.8856
 31
0
  0
LINE
  5
B64
330
A02
100
AcDbEntity
  8
Shape10310
100
AcDbLine
 10
149.588
 20
-25.8856
 30
0
 11
149.588
 21
-22.6554
 31
0
  0
LINE
  5
B65
330
A02
100
AcDbEntity
  8
Shape10311
100
AcDbLine
 10
149.588
 20
-22.6554
 30
0
 11
140.913
 21
-22.6554
 31
0
  0
LINE
  5
B66
330
A02
100
AcDbEntity
  8
Shape10312
100
AcDbLine
 10
140.913
 20
-22.6554
 30
0
 11
140.913
 21
-26.8558
 31
0
  0
ARC
  5
B67
330
A02
100
AcDbEntity
  8
Shape10313
100
AcDbCircle
 10
140.413
 20
-26.8558
 30
0
 40
0.5
100
AcDbArc
 50
-90
 51
0
  0
LINE
  5
B68
330
A02
100
AcDbEntity
  8
Shape10314
100
AcDbLine
 10
140.413
 20
-27.3558
 30
0
 11
127.414
 21
-27.3558
 31
0
  0
ARC
  5
B69
330
A02
100
AcDbEntity
  8
Shape10315
100
AcDbCircle
 10
127.414
 20
-26.8558
 30
0
 40
0.5
100
AcDbArc
 50
180
 51
-90
  0
LINE
  5
B6A
330
A02
100
AcDbEntity
  8
Shape10316
100
AcDbLine
 10
184.064
 20
-26.8558
 30
0
 11
184.064
 21
-22.6554
 31
0
  0
ARC
  5
B6B
330
A02
100
AcDbEntity
  8
Shape10317
100
AcDbCircle
 10
184.564
 20
-26.8558
 30
0
 40
0.5
100
AcDbArc
 50
180
 51
-90
  0
LINE
  5
B6C
330
A02
100
AcDbEntity
  8
Shape10318
100
AcDbLine
 10
184.064
 20
-22.6554
 30
0
 11
175.389
 21
-22.6554
 31
0
  0
LINE
  5
B6D
330
A02
100
AcDbEntity
  8
Shape10319
100
AcDbLine
 10
175.389
 20
-22.6554
 30
0
 11
175.389
 21
-25.8856
 31
0
  0
LINE
  5
B6E
330
A02
100
AcDbEntity
  8
Shape10320
100
AcDbLine
 10
175.389
 20
-25.8856
 30
0
 11
168.638
 21
-25.8856
 31
0
  0
LINE
  5
B6F
330
A02
100
AcDbEntity
  8
Shape10321
100
AcDbLine
 10
168.638
 20
-25.8856
 30
0
 11
168.638
 21
-22.6554
 31
0
  0
LINE
  5
B70
330
A02
100
AcDbEntity
  8
Shape10322
100
AcDbLine
 10
168.638
 20
-22.6554
 30
0
 11
167.814
 21
-22.6554
 31
0
  0
LINE
  5
B71
330
A02
100
AcDbEntity
  8
Shape10323
100
AcDbLine
 10
167.814
 20
-22.6554
 30
0
 11
167.814
 21
-19.8566
 31
0
  0
LINE
  5
B72
330
A02
100
AcDbEntity
  8
Shape10324
100
AcDbLine
 10
167.814
 20
-19.8566
 30
0
 11
168.638
 21
-19.8566
 31
0
  0
LINE
  5
B73
330
A02
100
AcDbEntity
  8
Shape10325
100
AcDbLine
 10
168.638
 20
-19.8566
 30
0
 11
168.638
 21
-13.5866
 31
0
  0
LINE
  5
B74
330
A02
100
AcDbEntity
  8
Shape10326
100
AcDbLine
 10
168.638
 20
-13.5866
 30
0
 11
170.363
 21
-13.5866
 31
0
  0
LINE
  5
B75
330
A02
100
AcDbEntity
  8
Shape10327
100
AcDbLine
 10
170.363
 20
-13.5866
 30
0
 11
170.363
 21
-12.3863
 31
0
  0
LINE
  5
B76
330
A02
100
AcDbEntity
  8
Shape10328
100
AcDbLine
 10
170.363
 20
-12.3863
 30
0
 11
173.663
 21
-12.3863
 31
0
  0
LINE
  5
B77
330
A02
100
AcDbEntity
  8
Shape10329
100
AcDbLine
 10
173.663
 20
-12.3863
 30
0
 11
173.663
 21
-13.5866
 31
0
  0
LINE
  5
B78
330
A02
100
AcDbEntity
  8
Shape10330
100
AcDbLine
 10
173.663
 20
-13.5866
 30
0
 11
175.389
 21
-13.5866
 31
0
  0
LINE
  5
B79
330
A02
100
AcDbEntity
  8
Shape10331
100
AcDbLine
 10
175.389
 20
-13.5866
 30
0
 11
175.389
 21
-18.0555
 31
0
  0
LINE
  5
B7A
330
A02
100
AcDbEntity
  8
Shape10332
100
AcDbLine
 10
175.389
 20
-18.0555
 30
0
 11
184.064
 21
-18.0555
 31
0
  0
LINE
  5
B7B
330
A02
100
AcDbEntity
  8
Shape10333
100
AcDbLine
 10
184.064
 20
-18.0555
 30
0
 11
184.064
 21
-13.8564
 31
0
  0
LINE
  5
B7C
330
A02
100
AcDbEntity
  8
Shape10334
100
AcDbLine
 10
184.564
 20
-13.3564
 30
0
 11
197.563
 21
-13.3564
 31
0
  0
ARC
  5
B7D
330
A02
100
AcDbEntity
  8
Shape10335
100
AcDbCircle
 10
184.564
 20
-13.8564
 30
0
 40
0.5
100
AcDbArc
 50
90
 51
180
  0
ARC
  5
B7E
330
A02
100
AcDbEntity
  8
Shape10336
100
AcDbCircle
 10
197.563
 20
-26.8558
 30
0
 40
0.5
100
AcDbArc
 50
-90
 51
0
  0
LINE
  5
B7F
330
A02
100
AcDbEntity
  8
Shape10337
100
AcDbLine
 10
198.063
 20
-26.8558
 30
0
 11
198.063
 21
-22.6567
 31
0
  0
LINE
  5
B80
330
A02
100
AcDbEntity
  8
Shape10338
100
AcDbLine
 10
198.063
 20
-18.0568
 30
0
 11
198.063
 21
-13.8564
 31
0
  0
LINE
  5
B81
330
A02
100
AcDbEntity
  8
Shape10339
100
AcDbLine
 10
197.563
 20
-27.3558
 30
0
 11
184.564
 21
-27.3558
 31
0
  0
ARC
  5
B82
330
A02
100
AcDbEntity
  8
Shape10340
100
AcDbCircle
 10
197.563
 20
-13.8564
 30
0
 40
0.5
100
AcDbArc
 50
0
 51
90
  0
LINE
  5
B83
330
A02
100
AcDbEntity
  8
Shape10341
100
AcDbLine
 10
198.063
 20
-22.6554
 30
0
 11
206.738
 21
-22.6554
 31
0
  0
LINE
  5
B84
330
A02
100
AcDbEntity
  8
Shape10342
100
AcDbLine
 10
206.738
 20
-22.6554
 30
0
 11
206.738
 21
-25.8856
 31
0
  0
LINE
  5
B85
330
A02
100
AcDbEntity
  8
Shape10343
100
AcDbLine
 10
206.738
 20
-25.8856
 30
0
 11
213.489
 21
-25.8856
 31
0
  0
LINE
  5
B86
330
A02
100
AcDbEntity
  8
Shape10344
100
AcDbLine
 10
213.489
 20
-25.8856
 30
0
 11
213.489
 21
-22.6554
 31
0
  0
LINE
  5
B87
330
A02
100
AcDbEntity
  8
Shape10345
100
AcDbLine
 10
213.489
 20
-22.6554
 30
0
 11
214.313
 21
-22.6554
 31
0
  0
LINE
  5
B88
330
A02
100
AcDbEntity
  8
Shape10346
100
AcDbLine
 10
214.313
 20
-22.6554
 30
0
 11
214.313
 21
-19.8566
 31
0
  0
LINE
  5
B89
330
A02
100
AcDbEntity
  8
Shape10347
100
AcDbLine
 10
214.313
 20
-19.8566
 30
0
 11
213.489
 21
-19.8566
 31
0
  0
LINE
  5
B8A
330
A02
100
AcDbEntity
  8
Shape10348
100
AcDbLine
 10
213.489
 20
-19.8566
 30
0
 11
213.489
 21
-13.5866
 31
0
  0
LINE
  5
B8B
330
A02
100
AcDbEntity
  8
Shape10349
100
AcDbLine
 10
213.489
 20
-13.5866
 30
0
 11
211.764
 21
-13.5866
 31
0
  0
LINE
  5
B8C
330
A02
100
AcDbEntity
  8
Shape10350
100
AcDbLine
 10
211.764
 20
-13.5866
 30
0
 11
211.764
 21
-12.3863
 31
0
  0
LINE
  5
B8D
330
A02
100
AcDbEntity
  8
Shape10351
100
AcDbLine
 10
211.764
 20
-12.3863
 30
0
 11
208.464
 21
-12.3863
 31
0
  0
LINE
  5
B8E
330
A02
100
AcDbEntity
  8
Shape10352
100
AcDbLine
 10
208.464
 20
-12.3863
 30
0
 11
208.464
 21
-13.5866
 31
0
  0
LINE
  5
B8F
330
A02
100
AcDbEntity
  8
Shape10353
100
AcDbLine
 10
208.464
 20
-13.5866
 30
0
 11
206.738
 21
-13.5866
 31
0
  0
LINE
  5
B90
330
A02
100
AcDbEntity
  8
Shape10354
100
AcDbLine
 10
206.738
 20
-13.5866
 30
0
 11
206.738
 21
-18.0555
 31
0
  0
LINE
  5
B91
330
A02
100
AcDbEntity
  8
Shape10355
100
AcDbLine
 10
206.738
 20
-18.0555
 30
0
 11
198.063
 21
-18.0555
 31
0
  0
LINE
  5
B92
330
A02
100
AcDbEntity
  8
Shape10591
100
AcDbLine
 10
280.858
 20
20.3199
 30
0
 11
276.659
 21
20.3199
 31
0
  0
ARC
  5
B93
330
A02
100
AcDbEntity
  8
Shape10592
100
AcDbCircle
 10
280.858
 20
20.8199
 30
0
 40
0.5
100
AcDbArc
 50
-90
 51
0
  0
LINE
  5
B94
330
A02
100
AcDbEntity
  8
Shape10593
100
AcDbLine
 10
276.659
 20
20.3199
 30
0
 11
276.659
 21
18.7945
 31
0
  0
LINE
  5
B95
330
A02
100
AcDbEntity
  8
Shape10594
100
AcDbLine
 10
276.659
 20
18.7945
 30
0
 11
279.888
 21
18.7945
 31
0
  0
LINE
  5
B96
330
A02
100
AcDbEntity
  8
Shape10595
100
AcDbLine
 10
279.888
 20
18.7945
 30
0
 11
279.888
 21
12.0448
 31
0
  0
LINE
  5
B97
330
A02
100
AcDbEntity
  8
Shape10596
100
AcDbLine
 10
279.888
 20
12.0448
 30
0
 11
276.659
 21
12.0448
 31
0
  0
LINE
  5
B98
330
A02
100
AcDbEntity
  8
Shape10597
100
AcDbLine
 10
276.659
 20
12.0448
 30
0
 11
276.659
 21
11.2193
 31
0
  0
LINE
  5
B99
330
A02
100
AcDbEntity
  8
Shape10598
100
AcDbLine
 10
276.659
 20
11.2193
 30
0
 11
273.859
 21
11.2193
 31
0
  0
LINE
  5
B9A
330
A02
100
AcDbEntity
  8
Shape10599
100
AcDbLine
 10
273.859
 20
11.2193
 30
0
 11
273.859
 21
12.0448
 31
0
  0
LINE
  5
B9B
330
A02
100
AcDbEntity
  8
Shape10600
100
AcDbLine
 10
273.859
 20
12.0448
 30
0
 11
267.589
 21
12.0448
 31
0
  0
LINE
  5
B9C
330
A02
100
AcDbEntity
  8
Shape10601
100
AcDbLine
 10
267.589
 20
12.0448
 30
0
 11
267.589
 21
13.7699
 31
0
  0
LINE
  5
B9D
330
A02
100
AcDbEntity
  8
Shape10602
100
AcDbLine
 10
267.589
 20
13.7699
 30
0
 11
266.389
 21
13.7699
 31
0
  0
LINE
  5
B9E
330
A02
100
AcDbEntity
  8
Shape10603
100
AcDbLine
 10
266.389
 20
13.7699
 30
0
 11
266.389
 21
17.069
 31
0
  0
LINE
  5
B9F
330
A02
100
AcDbEntity
  8
Shape10604
100
AcDbLine
 10
266.389
 20
17.069
 30
0
 11
267.589
 21
17.069
 31
0
  0
LINE
  5
BA0
330
A02
100
AcDbEntity
  8
Shape10605
100
AcDbLine
 10
267.589
 20
17.069
 30
0
 11
267.589
 21
18.7945
 31
0
  0
LINE
  5
BA1
330
A02
100
AcDbEntity
  8
Shape10606
100
AcDbLine
 10
267.589
 20
18.7945
 30
0
 11
272.058
 21
18.7945
 31
0
  0
LINE
  5
BA2
330
A02
100
AcDbEntity
  8
Shape10607
100
AcDbLine
 10
272.058
 20
18.7945
 30
0
 11
272.058
 21
20.3199
 31
0
  0
LINE
  5
BA3
330
A02
100
AcDbEntity
  8
Shape10608
100
AcDbLine
 10
272.058
 20
20.3199
 30
0
 11
267.859
 21
20.3199
 31
0
  0
LINE
  5
BA4
330
A02
100
AcDbEntity
  8
Shape10609
100
AcDbLine
 10
267.359
 20
20.8199
 30
0
 11
267.359
 21
33.8192
 31
0
  0
ARC
  5
BA5
330
A02
100
AcDbEntity
  8
Shape10610
100
AcDbCircle
 10
267.859
 20
20.8199
 30
0
 40
0.5
100
AcDbArc
 50
180
 51
-90
  0
LINE
  5
BA6
330
A02
100
AcDbEntity
  8
Shape10611
100
AcDbLine
 10
267.859
 20
34.3192
 30
0
 11
272.058
 21
34.3192
 31
0
  0
ARC
  5
BA7
330
A02
100
AcDbEntity
  8
Shape10612
100
AcDbCircle
 10
267.859
 20
33.8192
 30
0
 40
0.5
100
AcDbArc
 50
90
 51
180
  0
LINE
  5
BA8
330
A02
100
AcDbEntity
  8
Shape10613
100
AcDbLine
 10
272.058
 20
34.3192
 30
0
 11
272.058
 21
35.8449
 31
0
  0
LINE
  5
BA9
330
A02
100
AcDbEntity
  8
Shape10614
100
AcDbLine
 10
272.058
 20
35.8449
 30
0
 11
267.589
 21
35.8449
 31
0
  0
LINE
  5
BAA
330
A02
100
AcDbEntity
  8
Shape10615
100
AcDbLine
 10
267.589
 20
35.8449
 30
0
 11
267.589
 21
37.5686
 31
0
  0
LINE
  5
BAB
330
A02
100
AcDbEntity
  8
Shape10616
100
AcDbLine
 10
267.589
 20
37.5686
 30
0
 11
266.389
 21
37.5686
 31
0
  0
LINE
  5
BAC
330
A02
100
AcDbEntity
  8
Shape10617
100
AcDbLine
 10
266.389
 20
37.5686
 30
0
 11
266.389
 21
40.8692
 31
0
  0
LINE
  5
BAD
330
A02
100
AcDbEntity
  8
Shape10618
100
AcDbLine
 10
266.389
 20
40.8692
 30
0
 11
267.589
 21
40.8692
 31
0
  0
LINE
  5
BAE
330
A02
100
AcDbEntity
  8
Shape10619
100
AcDbLine
 10
267.589
 20
40.8692
 30
0
 11
267.589
 21
42.5943
 31
0
  0
LINE
  5
BAF
330
A02
100
AcDbEntity
  8
Shape10620
100
AcDbLine
 10
267.589
 20
42.5943
 30
0
 11
273.859
 21
42.5943
 31
0
  0
LINE
  5
BB0
330
A02
100
AcDbEntity
  8
Shape10621
100
AcDbLine
 10
273.859
 20
42.5943
 30
0
 11
273.859
 21
43.4198
 31
0
  0
LINE
  5
BB1
330
A02
100
AcDbEntity
  8
Shape10622
100
AcDbLine
 10
273.859
 20
43.4198
 30
0
 11
276.659
 21
43.4198
 31
0
  0
LINE
  5
BB2
330
A02
100
AcDbEntity
  8
Shape10623
100
AcDbLine
 10
276.659
 20
43.4198
 30
0
 11
276.659
 21
42.5943
 31
0
  0
LINE
  5
BB3
330
A02
100
AcDbEntity
  8
Shape10624
100
AcDbLine
 10
276.659
 20
42.5943
 30
0
 11
279.888
 21
42.5943
 31
0
  0
LINE
  5
BB4
330
A02
100
AcDbEntity
  8
Shape10625
100
AcDbLine
 10
279.888
 20
42.5943
 30
0
 11
279.888
 21
35.8449
 31
0
  0
LINE
  5
BB5
330
A02
100
AcDbEntity
  8
Shape10626
100
AcDbLine
 10
279.888
 20
35.8449
 30
0
 11
276.659
 21
35.8449
 31
0
  0
LINE
  5
BB6
330
A02
100
AcDbEntity
  8
Shape10627
100
AcDbLine
 10
276.659
 20
35.8449
 30
0
 11
276.659
 21
34.3192
 31
0
  0
LINE
  5
BB7
330
A02
100
AcDbEntity
  8
Shape10628
100
AcDbLine
 10
276.659
 20
34.3192
 30
0
 11
280.858
 21
34.3192
 31
0
  0
ARC
  5
BB8
330
A02
100
AcDbEntity
  8
Shape10629
100
AcDbCircle
 10
280.858
 20
33.8192
 30
0
 40
0.5
100
AcDbArc
 50
0
 51
90
  0
LINE
  5
BB9
330
A02
100
AcDbEntity
  8
Shape10630
100
AcDbLine
 10
281.358
 20
33.8192
 30
0
 11
281.358
 21
20.8199
 31
0
  0
LINE
  5
BBA
330
A02
100
AcDbEntity
  8
Shape10695
100
AcDbLine
 10
64.9525
 20
-8.3055
 30
0
 11
64.9525
 21
5.7945
 31
0
  0
LINE
  5
BBB
330
A02
100
AcDbEntity
  8
Shape10696
100
AcDbLine
 10
64.9525
 20
5.7945
 30
0
 11
79.0525
 21
5.7945
 31
0
  0
LINE
  5
BBC
330
A02
100
AcDbEntity
  8
Shape10697
100
AcDbLine
 10
79.0525
 20
5.7945
 30
0
 11
79.0525
 21
-8.3055
 31
0
  0
LINE
  5
BBD
330
A02
100
AcDbEntity
  8
Shape10698
100
AcDbLine
 10
79.0525
 20
-8.3055
 30
0
 11
64.9525
 21
-8.3055
 31
0
  0
LINE
  5
BBE
330
A02
100
AcDbEntity
  8
Shape10699
100
AcDbLine
 10
43.5213
 20
-8.3055
 30
0
 11
43.5213
 21
5.7945
 31
0
  0
LINE
  5
BBF
330
A02
100
AcDbEntity
  8
Shape10700
100
AcDbLine
 10
43.5213
 20
5.7945
 30
0
 11
57.6213
 21
5.7945
 31
0
  0
LINE
  5
BC0
330
A02
100
AcDbEntity
  8
Shape10701
100
AcDbLine
 10
57.6213
 20
5.7945
 30
0
 11
57.6213
 21
-8.3055
 31
0
  0
LINE
  5
BC1
330
A02
100
AcDbEntity
  8
Shape10702
100
AcDbLine
 10
57.6213
 20
-8.3055
 30
0
 11
43.5213
 21
-8.3055
 31
0
  0
CIRCLE
  5
BC2
330
A02
100
AcDbEntity
  8
Shape12741
100
AcDbCircle
 10
262.134
 20
27.294
 40
1.5
  0
ENDSEC
  0
SECTION
  2
OBJECTS
  0
DICTIONARY
  5
F000
330
0
100
AcDbDictionary
  3
ACAD_GROUP
350
F001
  0
DICTIONARY
  5
F001
330
F000
100
AcDbDictionary
  0
ENDSEC
  0
EOF