999
FreeCAD v0.21 33771 (Git)
  0
SECTION
  2
HEADER
  9
$ACADVER
  1
AC1014
  9
$ACADMAINTVER
 70
     9
  9
$DWGCODEPAGE
  3
ANSI_1252
  9
$TEXTSTYLE
  7
STANDARD
  9
$DIMSTYLE
  2
STANDARD
  9
$DIMTXSTY
  7
STANDARD
  9
$CMLSTYLE
  2
STANDARD
  9
$LUNITS
 70
2
  9
$INSUNITS
 70
4
  9
$PEXTMAX
 10
50
 20
50
 30
50
  9
$PEXTMIN
 10
0
 20
0
 30
0
  9
$HANDSEED
  5
FFFF
  0
ENDSEC
  0
SECTION
  2
CLASSES
  0
CLASS
  1
ACDBDICTIONARYWDFLT
  2
AcDbDictionaryWithDefault
  3
ObjectDBX Classes
 90
        0
280
     0
281
     0
  0
CLASS
  1
XRECORD
  2
AcDbXrecord
  3
ObjectDBX Classes
 90
        0
280
     0
281
     0
  0
CLASS
  1
LWPOLYLINE
  2
AcDbPolyline
  3
ObjectDBX Classes
 90
        0
280
     0
281
     1
  0
ENDSEC
  0
SECTION
  2
TABLES
  0
TABLE
  2
VPORT
  5
20
330
0
100
AcDbSymbolTable
 70
     1
  0
VPORT
  5
21
330
20
100
AcDbSymbolTableRecord
100
AcDbViewportTableRecord
  2
*ACTIVE
 70
     0
  0
ENDTAB
  0
TABLE
  2
LTYPE
  5
22
330
0
100
AcDbSymbolTable
 70
     1
  0
LTYPE
  5
23
330
21
100
AcDbSymbolTableRecord
100
AcDbLinetypeTableRecord
  2
BYBLOCK
 70
     0
  3

 72
    65
 73
     0
 40
0.0
  0
LTYPE
  5
24
330
21
100
AcDbSymbolTableRecord
100
AcDbLinetypeTableRecord
  2
BYLAYER
 70
     0
  3

 72
    65
 73
     0
 40
0.0
  0
LTYPE
  5
25
330
21
100
AcDbSymbolTableRecord
100
AcDbLinetypeTableRecord
  2
CONTINUOUS
 70
     0
  3
Solid line
 72
    65
 73
     0
 40
0.0
  0
ENDTAB
  0
TABLE
  2
LAYER
  5
BE3
330
0
100
AcDbSymbolTable
 70
477
  0
LAYER
  5
BE4
330
BE3
100
AcDbSymbolTableRecord
100
AcDbLayerTableRecord
  2
0
 70
   0
 62
   7
  6
CONTINUOUS
  0
LAYER
  5
BE5
330
BE3
100
AcDbSymbolTableRecord
100
AcDbLayerTableRecord
  2
none
 70
    0
 62
    7
  6
CONTINUOUS
  0
LAYER
  5
BE6
330
BE3
100
AcDbSymbolTableRecord
100
AcDbLayerTableRecord
  2
Shape654
 70
    0
 62
    7
  6
CONTINUOUS
  0
LAYER
  5
BE7
330
BE3
100
AcDbSymbolTableRecord
100
AcDbLayerTableRecord
  2
Shape655
 70
    0
 62
    7
  6
CONTINUOUS
  0
LAYER
  5
BE8
330
BE3
100
AcDbSymbolTableRecord
100
AcDbLayerTableRecord
  2
Shape656
 70
    0
 62
    7
  6
CONTINUOUS
  0
LAYER
  5
BE9
330
BE3
100
AcDbSymbolTableRecord
100
AcDbLayerTableRecord
  2
Shape657
 70
    0
 62
    7
  6
CONTINUOUS
  0
LAYER
  5
BEA
330
BE3
100
AcDbSymbolTableRecord
100
AcDbLayerTableRecord
  2
Shape658
 70
    0
 62
    7
  6
CONTINUOUS
  0
LAYER
  5
BEB
330
BE3
100
AcDbSymbolTableRecord
100
AcDbLayerTableRecord
  2
Shape659
 70
    0
 62
    7
  6
CONTINUOUS
  0
LAYER
  5
BEC
330
BE3
100
AcDbSymbolTableRecord
100
AcDbLayerTableRecord
  2
Shape660
 70
    0
 62
    7
  6
CONTINUOUS
  0
LAYER
  5
BED
330
BE3
100
AcDbSymbolTableRecord
100
AcDbLayerTableRecord
  2
Shape661
 70
    0
 62
    7
  6
CONTINUOUS
  0
LAYER
  5
BEE
330
BE3
100
AcDbSymbolTableRecord
100
AcDbLayerTableRecord
  2
Shape662
 70
    0
 62
    7
  6
CONTINUOUS
  0
LAYER
  5
BEF
330
BE3
100
AcDbSymbolTableRecord
100
AcDbLayerTableRecord
  2
Shape663
 70
    0
 62
    7
  6
CONTINUOUS
  0
LAYER
  5
BF0
330
BE3
100
AcDbSymbolTableRecord
100
AcDbLayerTableRecord
  2
Shape664
 70
    0
 62
    7
  6
CONTINUOUS
  0
LAYER
  5
BF1
330
BE3
100
AcDbSymbolTableRecord
100
AcDbLayerTableRecord
  2
Shape665
 70
    0
 62
    7
  6
CONTINUOUS
  0
LAYER
  5
BF2
330
BE3
100
AcDbSymbolTableRecord
100
AcDbLayerTableRecord
  2
Shape666
 70
    0
 62
    7
  6
CONTINUOUS
  0
LAYER
  5
BF3
330
BE3
100
AcDbSymbolTableRecord
100
AcDbLayerTableRecord
  2
Shape667
 70
    0
 62
    7
  6
CONTINUOUS
  0
LAYER
  5
BF4
330
BE3
100
AcDbSymbolTableRecord
100
AcDbLayerTableRecord
  2
Shape668
 70
    0
 62
    7
  6
CONTINUOUS
  0
LAYER
  5
BF5
330
BE3
100
AcDbSymbolTableRecord
100
AcDbLayerTableRecord
  2
Shape669
 70
    0
 62
    7
  6
CONTINUOUS
  0
LAYER
  5
BF6
330
BE3
100
AcDbSymbolTableRecord
100
AcDbLayerTableRecord
  2
Shape670
 70
    0
 62
    7
  6
CONTINUOUS
  0
LAYER
  5
BF7
330
BE3
100
AcDbSymbolTableRecord
100
AcDbLayerTableRecord
  2
Shape671
 70
    0
 62
    7
  6
CONTINUOUS
  0
LAYER
  5
BF8
330
BE3
100
AcDbSymbolTableRecord
100
AcDbLayerTableRecord
  2
Shape672
 70
    0
 62
    7
  6
CONTINUOUS
  0
LAYER
  5
BF9
330
BE3
100
AcDbSymbolTableRecord
100
AcDbLayerTableRecord
  2
Shape673
 70
    0
 62
    7
  6
CONTINUOUS
  0
LAYER
  5
BFA
330
BE3
100
AcDbSymbolTableRecord
100
AcDbLayerTableRecord
  2
Shape674
 70
    0
 62
    7
  6
CONTINUOUS
  0
LAYER
  5
BFB
330
BE3
100
AcDbSymbolTableRecord
100
AcDbLayerTableRecord
  2
Shape675
 70
    0
 62
    7
  6
CONTINUOUS
  0
LAYER
  5
BFC
330
BE3
100
AcDbSymbolTableRecord
100
AcDbLayerTableRecord
  2
Shape676
 70
    0
 62
    7
  6
CONTINUOUS
  0
LAYER
  5
BFD
330
BE3
100
AcDbSymbolTableRecord
100
AcDbLayerTableRecord
  2
Shape677
 70
    0
 62
    7
  6
CONTINUOUS
  0
LAYER
  5
BFE
330
BE3
100
AcDbSymbolTableRecord
100
AcDbLayerTableRecord
  2
Shape702
 70
    0
 62
    7
  6
CONTINUOUS
  0
LAYER
  5
BFF
330
BE3
100
AcDbSymbolTableRecord
100
AcDbLayerTableRecord
  2
Shape703
 70
    0
 62
    7
  6
CONTINUOUS
  0
LAYER
  5
C00
330
BE3
100
AcDbSymbolTableRecord
100
AcDbLayerTableRecord
  2
Shape704
 70
    0
 62
    7
  6
CONTINUOUS
  0
LAYER
  5
C01
330
BE3
100
AcDbSymbolTableRecord
100
AcDbLayerTableRecord
  2
Shape705
 70
    0
 62
    7
  6
CONTINUOUS
  0
LAYER
  5
C02
330
BE3
100
AcDbSymbolTableRecord
100
AcDbLayerTableRecord
  2
Shape706
 70
    0
 62
    7
  6
CONTINUOUS
  0
LAYER
  5
C03
330
BE3
100
AcDbSymbolTableRecord
100
AcDbLayerTableRecord
  2
Shape707
 70
    0
 62
    7
  6
CONTINUOUS
  0
LAYER
  5
C04
330
BE3
100
AcDbSymbolTableRecord
100
AcDbLayerTableRecord
  2
Shape708
 70
    0
 62
    7
  6
CONTINUOUS
  0
LAYER
  5
C05
330
BE3
100
AcDbSymbolTableRecord
100
AcDbLayerTableRecord
  2
Shape709
 70
    0
 62
    7
  6
CONTINUOUS
  0
LAYER
  5
C06
330
BE3
100
AcDbSymbolTableRecord
100
AcDbLayerTableRecord
  2
Shape710
 70
    0
 62
    7
  6
CONTINUOUS
  0
LAYER
  5
C07
330
BE3
100
AcDbSymbolTableRecord
100
AcDbLayerTableRecord
  2
Shape711
 70
    0
 62
    7
  6
CONTINUOUS
  0
LAYER
  5
C08
330
BE3
100
AcDbSymbolTableRecord
100
AcDbLayerTableRecord
  2
Shape712
 70
    0
 62
    7
  6
CONTINUOUS
  0
LAYER
  5
C09
330
BE3
100
AcDbSymbolTableRecord
100
AcDbLayerTableRecord
  2
Shape713
 70
    0
 62
    7
  6
CONTINUOUS
  0
LAYER
  5
C0A
330
BE3
100
AcDbSymbolTableRecord
100
AcDbLayerTableRecord
  2
Shape714
 70
    0
 62
    7
  6
CONTINUOUS
  0
LAYER
  5
C0B
330
BE3
100
AcDbSymbolTableRecord
100
AcDbLayerTableRecord
  2
Shape715
 70
    0
 62
    7
  6
CONTINUOUS
  0
LAYER
  5
C0C
330
BE3
100
AcDbSymbolTableRecord
100
AcDbLayerTableRecord
  2
Shape716
 70
    0
 62
    7
  6
CONTINUOUS
  0
LAYER
  5
C0D
330
BE3
100
AcDbSymbolTableRecord
100
AcDbLayerTableRecord
  2
Shape717
 70
    0
 62
    7
  6
CONTINUOUS
  0
LAYER
  5
C0E
330
BE3
100
AcDbSymbolTableRecord
100
AcDbLayerTableRecord
  2
Shape718
 70
    0
 62
    7
  6
CONTINUOUS
  0
LAYER
  5
C0F
330
BE3
100
AcDbSymbolTableRecord
100
AcDbLayerTableRecord
  2
Shape719
 70
    0
 62
    7
  6
CONTINUOUS
  0
LAYER
  5
C10
330
BE3
100
AcDbSymbolTableRecord
100
AcDbLayerTableRecord
  2
Shape720
 70
    0
 62
    7
  6
CONTINUOUS
  0
LAYER
  5
C11
330
BE3
100
AcDbSymbolTableRecord
100
AcDbLayerTableRecord
  2
Shape721
 70
    0
 62
    7
  6
CONTINUOUS
  0
LAYER
  5
C12
330
BE3
100
AcDbSymbolTableRecord
100
AcDbLayerTableRecord
  2
Shape722
 70
    0
 62
    7
  6
CONTINUOUS
  0
LAYER
  5
C13
330
BE3
100
AcDbSymbolTableRecord
100
AcDbLayerTableRecord
  2
Shape723
 70
    0
 62
    7
  6
CONTINUOUS
  0
LAYER
  5
C14
330
BE3
100
AcDbSymbolTableRecord
100
AcDbLayerTableRecord
  2
Shape724
 70
    0
 62
    7
  6
CONTINUOUS
  0
LAYER
  5
C15
330
BE3
100
AcDbSymbolTableRecord
100
AcDbLayerTableRecord
  2
Shape725
 70
    0
 62
    7
  6
CONTINUOUS
  0
LAYER
  5
C16
330
BE3
100
AcDbSymbolTableRecord
100
AcDbLayerTableRecord
  2
Shape726
 70
    0
 62
    7
  6
CONTINUOUS
  0
LAYER
  5
C17
330
BE3
100
AcDbSymbolTableRecord
100
AcDbLayerTableRecord
  2
Shape727
 70
    0
 62
    7
  6
CONTINUOUS
  0
LAYER
  5
C18
330
BE3
100
AcDbSymbolTableRecord
100
AcDbLayerTableRecord
  2
Shape728
 70
    0
 62
    7
  6
CONTINUOUS
  0
LAYER
  5
C19
330
BE3
100
AcDbSymbolTableRecord
100
AcDbLayerTableRecord
  2
Shape729
 70
    0
 62
    7
  6
CONTINUOUS
  0
LAYER
  5
C1A
330
BE3
100
AcDbSymbolTableRecord
100
AcDbLayerTableRecord
  2
Shape730
 70
    0
 62
    7
  6
CONTINUOUS
  0
LAYER
  5
C1B
330
BE3
100
AcDbSymbolTableRecord
100
AcDbLayerTableRecord
  2
Shape731
 70
    0
 62
    7
  6
CONTINUOUS
  0
LAYER
  5
C1C
330
BE3
100
AcDbSymbolTableRecord
100
AcDbLayerTableRecord
  2
Shape732
 70
    0
 62
    7
  6
CONTINUOUS
  0
LAYER
  5
C1D
330
BE3
100
AcDbSymbolTableRecord
100
AcDbLayerTableRecord
  2
Shape733
 70
    0
 62
    7
  6
CONTINUOUS
  0
LAYER
  5
C1E
330
BE3
100
AcDbSymbolTableRecord
100
AcDbLayerTableRecord
  2
Shape734
 70
    0
 62
    7
  6
CONTINUOUS
  0
LAYER
  5
C1F
330
BE3
100
AcDbSymbolTableRecord
100
AcDbLayerTableRecord
  2
Shape735
 70
    0
 62
    7
  6
CONTINUOUS
  0
LAYER
  5
C20
330
BE3
100
AcDbSymbolTableRecord
100
AcDbLayerTableRecord
  2
Shape736
 70
    0
 62
    7
  6
CONTINUOUS
  0
LAYER
  5
C21
330
BE3
100
AcDbSymbolTableRecord
100
AcDbLayerTableRecord
  2
Shape737
 70
    0
 62
    7
  6
CONTINUOUS
  0
LAYER
  5
C22
330
BE3
100
AcDbSymbolTableRecord
100
AcDbLayerTableRecord
  2
Shape738
 70
    0
 62
    7
  6
CONTINUOUS
  0
LAYER
  5
C23
330
BE3
100
AcDbSymbolTableRecord
100
AcDbLayerTableRecord
  2
Shape739
 70
    0
 62
    7
  6
CONTINUOUS
  0
LAYER
  5
C24
330
BE3
100
AcDbSymbolTableRecord
100
AcDbLayerTableRecord
  2
Shape740
 70
    0
 62
    7
  6
CONTINUOUS
  0
LAYER
  5
C25
330
BE3
100
AcDbSymbolTableRecord
100
AcDbLayerTableRecord
  2
Shape741
 70
    0
 62
    7
  6
CONTINUOUS
  0
LAYER
  5
C26
330
BE3
100
AcDbSymbolTableRecord
100
AcDbLayerTableRecord
  2
Shape742
 70
    0
 62
    7
  6
CONTINUOUS
  0
LAYER
  5
C27
330
BE3
100
AcDbSymbolTableRecord
100
AcDbLayerTableRecord
  2
Shape743
 70
    0
 62
    7
  6
CONTINUOUS
  0
LAYER
  5
C28
330
BE3
100
AcDbSymbolTableRecord
100
AcDbLayerTableRecord
  2
Shape744
 70
    0
 62
    7
  6
CONTINUOUS
  0
LAYER
  5
C29
330
BE3
100
AcDbSymbolTableRecord
100
AcDbLayerTableRecord
  2
Shape745
 70
    0
 62
    7
  6
CONTINUOUS
  0
LAYER
  5
C2A
330
BE3
100
AcDbSymbolTableRecord
100
AcDbLayerTableRecord
  2
Shape746
 70
    0
 62
    7
  6
CONTINUOUS
  0
LAYER
  5
C2B
330
BE3
100
AcDbSymbolTableRecord
100
AcDbLayerTableRecord
  2
Shape747
 70
    0
 62
    7
  6
CONTINUOUS
  0
LAYER
  5
C2C
330
BE3
100
AcDbSymbolTableRecord
100
AcDbLayerTableRecord
  2
Shape748
 70
    0
 62
    7
  6
CONTINUOUS
  0
LAYER
  5
C2D
330
BE3
100
AcDbSymbolTableRecord
100
AcDbLayerTableRecord
  2
Shape749
 70
    0
 62
    7
  6
CONTINUOUS
  0
LAYER
  5
C2E
330
BE3
100
AcDbSymbolTableRecord
100
AcDbLayerTableRecord
  2
Shape750
 70
    0
 62
    7
  6
CONTINUOUS
  0
LAYER
  5
C2F
330
BE3
100
AcDbSymbolTableRecord
100
AcDbLayerTableRecord
  2
Shape751
 70
    0
 62
    7
  6
CONTINUOUS
  0
LAYER
  5
C30
330
BE3
100
AcDbSymbolTableRecord
100
AcDbLayerTableRecord
  2
Shape752
 70
    0
 62
    7
  6
CONTINUOUS
  0
LAYER
  5
C31
330
BE3
100
AcDbSymbolTableRecord
100
AcDbLayerTableRecord
  2
Shape753
 70
    0
 62
    7
  6
CONTINUOUS
  0
LAYER
  5
C32
330
BE3
100
AcDbSymbolTableRecord
100
AcDbLayerTableRecord
  2
Shape754
 70
    0
 62
    7
  6
CONTINUOUS
  0
LAYER
  5
C33
330
BE3
100
AcDbSymbolTableRecord
100
AcDbLayerTableRecord
  2
Shape755
 70
    0
 62
    7
  6
CONTINUOUS
  0
LAYER
  5
C34
330
BE3
100
AcDbSymbolTableRecord
100
AcDbLayerTableRecord
  2
Shape756
 70
    0
 62
    7
  6
CONTINUOUS
  0
LAYER
  5
C35
330
BE3
100
AcDbSymbolTableRecord
100
AcDbLayerTableRecord
  2
Shape757
 70
    0
 62
    7
  6
CONTINUOUS
  0
LAYER
  5
C36
330
BE3
100
AcDbSymbolTableRecord
100
AcDbLayerTableRecord
  2
Shape758
 70
    0
 62
    7
  6
CONTINUOUS
  0
LAYER
  5
C37
330
BE3
100
AcDbSymbolTableRecord
100
AcDbLayerTableRecord
  2
Shape759
 70
    0
 62
    7
  6
CONTINUOUS
  0
LAYER
  5
C38
330
BE3
100
AcDbSymbolTableRecord
100
AcDbLayerTableRecord
  2
Shape760
 70
    0
 62
    7
  6
CONTINUOUS
  0
LAYER
  5
C39
330
BE3
100
AcDbSymbolTableRecord
100
AcDbLayerTableRecord
  2
Shape761
 70
    0
 62
    7
  6
CONTINUOUS
  0
LAYER
  5
C3A
330
BE3
100
AcDbSymbolTableRecord
100
AcDbLayerTableRecord
  2
Shape762
 70
    0
 62
    7
  6
CONTINUOUS
  0
LAYER
  5
C3B
330
BE3
100
AcDbSymbolTableRecord
100
AcDbLayerTableRecord
  2
Shape763
 70
    0
 62
    7
  6
CONTINUOUS
  0
LAYER
  5
C3C
330
BE3
100
AcDbSymbolTableRecord
100
AcDbLayerTableRecord
  2
Shape764
 70
    0
 62
    7
  6
CONTINUOUS
  0
LAYER
  5
C3D
330
BE3
100
AcDbSymbolTableRecord
100
AcDbLayerTableRecord
  2
Shape765
 70
    0
 62
    7
  6
CONTINUOUS
  0
LAYER
  5
C3E
330
BE3
100
AcDbSymbolTableRecord
100
AcDbLayerTableRecord
  2
Shape766
 70
    0
 62
    7
  6
CONTINUOUS
  0
LAYER
  5
C3F
330
BE3
100
AcDbSymbolTableRecord
100
AcDbLayerTableRecord
  2
Shape767
 70
    0
 62
    7
  6
CONTINUOUS
  0
LAYER
  5
C40
330
BE3
100
AcDbSymbolTableRecord
100
AcDbLayerTableRecord
  2
Shape768
 70
    0
 62
    7
  6
CONTINUOUS
  0
LAYER
  5
C41
330
BE3
100
AcDbSymbolTableRecord
100
AcDbLayerTableRecord
  2
Shape769
 70
    0
 62
    7
  6
CONTINUOUS
  0
LAYER
  5
C42
330
BE3
100
AcDbSymbolTableRecord
100
AcDbLayerTableRecord
  2
Shape770
 70
    0
 62
    7
  6
CONTINUOUS
  0
LAYER
  5
C43
330
BE3
100
AcDbSymbolTableRecord
100
AcDbLayerTableRecord
  2
Shape771
 70
    0
 62
    7
  6
CONTINUOUS
  0
LAYER
  5
C44
330
BE3
100
AcDbSymbolTableRecord
100
AcDbLayerTableRecord
  2
Shape772
 70
    0
 62
    7
  6
CONTINUOUS
  0
LAYER
  5
C45
330
BE3
100
AcDbSymbolTableRecord
100
AcDbLayerTableRecord
  2
Shape773
 70
    0
 62
    7
  6
CONTINUOUS
  0
LAYER
  5
C46
330
BE3
100
AcDbSymbolTableRecord
100
AcDbLayerTableRecord
  2
Shape774
 70
    0
 62
    7
  6
CONTINUOUS
  0
LAYER
  5
C47
330
BE3
100
AcDbSymbolTableRecord
100
AcDbLayerTableRecord
  2
Shape775
 70
    0
 62
    7
  6
CONTINUOUS
  0
LAYER
  5
C48
330
BE3
100
AcDbSymbolTableRecord
100
AcDbLayerTableRecord
  2
Shape776
 70
    0
 62
    7
  6
CONTINUOUS
  0
LAYER
  5
C49
330
BE3
100
AcDbSymbolTableRecord
100
AcDbLayerTableRecord
  2
Shape777
 70
    0
 62
    7
  6
CONTINUOUS
  0
LAYER
  5
C4A
330
BE3
100
AcDbSymbolTableRecord
100
AcDbLayerTableRecord
  2
Shape778
 70
    0
 62
    7
  6
CONTINUOUS
  0
LAYER
  5
C4B
330
BE3
100
AcDbSymbolTableRecord
100
AcDbLayerTableRecord
  2
Shape779
 70
    0
 62
    7
  6
CONTINUOUS
  0
LAYER
  5
C4C
330
BE3
100
AcDbSymbolTableRecord
100
AcDbLayerTableRecord
  2
Shape780
 70
    0
 62
    7
  6
CONTINUOUS
  0
LAYER
  5
C4D
330
BE3
100
AcDbSymbolTableRecord
100
AcDbLayerTableRecord
  2
Shape781
 70
    0
 62
    7
  6
CONTINUOUS
  0
LAYER
  5
C4E
330
BE3
100
AcDbSymbolTableRecord
100
AcDbLayerTableRecord
  2
Shape782
 70
    0
 62
    7
  6
CONTINUOUS
  0
LAYER
  5
C4F
330
BE3
100
AcDbSymbolTableRecord
100
AcDbLayerTableRecord
  2
Shape783
 70
    0
 62
    7
  6
CONTINUOUS
  0
LAYER
  5
C50
330
BE3
100
AcDbSymbolTableRecord
100
AcDbLayerTableRecord
  2
Shape784
 70
    0
 62
    7
  6
CONTINUOUS
  0
LAYER
  5
C51
330
BE3
100
AcDbSymbolTableRecord
100
AcDbLayerTableRecord
  2
Shape785
 70
    0
 62
    7
  6
CONTINUOUS
  0
LAYER
  5
C52
330
BE3
100
AcDbSymbolTableRecord
100
AcDbLayerTableRecord
  2
Shape786
 70
    0
 62
    7
  6
CONTINUOUS
  0
LAYER
  5
C53
330
BE3
100
AcDbSymbolTableRecord
100
AcDbLayerTableRecord
  2
Shape787
 70
    0
 62
    7
  6
CONTINUOUS
  0
LAYER
  5
C54
330
BE3
100
AcDbSymbolTableRecord
100
AcDbLayerTableRecord
  2
Shape788
 70
    0
 62
    7
  6
CONTINUOUS
  0
LAYER
  5
C55
330
BE3
100
AcDbSymbolTableRecord
100
AcDbLayerTableRecord
  2
Shape789
 70
    0
 62
    7
  6
CONTINUOUS
  0
LAYER
  5
C56
330
BE3
100
AcDbSymbolTableRecord
100
AcDbLayerTableRecord
  2
Shape790
 70
    0
 62
    7
  6
CONTINUOUS
  0
LAYER
  5
C57
330
BE3
100
AcDbSymbolTableRecord
100
AcDbLayerTableRecord
  2
Shape791
 70
    0
 62
    7
  6
CONTINUOUS
  0
LAYER
  5
C58
330
BE3
100
AcDbSymbolTableRecord
100
AcDbLayerTableRecord
  2
Shape792
 70
    0
 62
    7
  6
CONTINUOUS
  0
LAYER
  5
C59
330
BE3
100
AcDbSymbolTableRecord
100
AcDbLayerTableRecord
  2
Shape793
 70
    0
 62
    7
  6
CONTINUOUS
  0
LAYER
  5
C5A
330
BE3
100
AcDbSymbolTableRecord
100
AcDbLayerTableRecord
  2
Shape794
 70
    0
 62
    7
  6
CONTINUOUS
  0
LAYER
  5
C5B
330
BE3
100
AcDbSymbolTableRecord
100
AcDbLayerTableRecord
  2
Shape795
 70
    0
 62
    7
  6
CONTINUOUS
  0
LAYER
  5
C5C
330
BE3
100
AcDbSymbolTableRecord
100
AcDbLayerTableRecord
  2
Shape796
 70
    0
 62
    7
  6
CONTINUOUS
  0
LAYER
  5
C5D
330
BE3
100
AcDbSymbolTableRecord
100
AcDbLayerTableRecord
  2
Shape797
 70
    0
 62
    7
  6
CONTINUOUS
  0
LAYER
  5
C5E
330
BE3
100
AcDbSymbolTableRecord
100
AcDbLayerTableRecord
  2
Shape798
 70
    0
 62
    7
  6
CONTINUOUS
  0
LAYER
  5
C5F
330
BE3
100
AcDbSymbolTableRecord
100
AcDbLayerTableRecord
  2
Shape799
 70
    0
 62
    7
  6
CONTINUOUS
  0
LAYER
  5
C60
330
BE3
100
AcDbSymbolTableRecord
100
AcDbLayerTableRecord
  2
Shape800
 70
    0
 62
    7
  6
CONTINUOUS
  0
LAYER
  5
C61
330
BE3
100
AcDbSymbolTableRecord
100
AcDbLayerTableRecord
  2
Shape801
 70
    0
 62
    7
  6
CONTINUOUS
  0
LAYER
  5
C62
330
BE3
100
AcDbSymbolTableRecord
100
AcDbLayerTableRecord
  2
Shape802
 70
    0
 62
    7
  6
CONTINUOUS
  0
LAYER
  5
C63
330
BE3
100
AcDbSymbolTableRecord
100
AcDbLayerTableRecord
  2
Shape803
 70
    0
 62
    7
  6
CONTINUOUS
  0
LAYER
  5
C64
330
BE3
100
AcDbSymbolTableRecord
100
AcDbLayerTableRecord
  2
Shape804
 70
    0
 62
    7
  6
CONTINUOUS
  0
LAYER
  5
C65
330
BE3
100
AcDbSymbolTableRecord
100
AcDbLayerTableRecord
  2
Shape805
 70
    0
 62
    7
  6
CONTINUOUS
  0
LAYER
  5
C66
330
BE3
100
AcDbSymbolTableRecord
100
AcDbLayerTableRecord
  2
Shape806
 70
    0
 62
    7
  6
CONTINUOUS
  0
LAYER
  5
C67
330
BE3
100
AcDbSymbolTableRecord
100
AcDbLayerTableRecord
  2
Shape807
 70
    0
 62
    7
  6
CONTINUOUS
  0
LAYER
  5
C68
330
BE3
100
AcDbSymbolTableRecord
100
AcDbLayerTableRecord
  2
Shape808
 70
    0
 62
    7
  6
CONTINUOUS
  0
LAYER
  5
C69
330
BE3
100
AcDbSymbolTableRecord
100
AcDbLayerTableRecord
  2
Shape809
 70
    0
 62
    7
  6
CONTINUOUS
  0
LAYER
  5
C6A
330
BE3
100
AcDbSymbolTableRecord
100
AcDbLayerTableRecord
  2
Shape810
 70
    0
 62
    7
  6
CONTINUOUS
  0
LAYER
  5
C6B
330
BE3
100
AcDbSymbolTableRecord
100
AcDbLayerTableRecord
  2
Shape811
 70
    0
 62
    7
  6
CONTINUOUS
  0
LAYER
  5
C6C
330
BE3
100
AcDbSymbolTableRecord
100
AcDbLayerTableRecord
  2
Shape812
 70
    0
 62
    7
  6
CONTINUOUS
  0
LAYER
  5
C6D
330
BE3
100
AcDbSymbolTableRecord
100
AcDbLayerTableRecord
  2
Shape813
 70
    0
 62
    7
  6
CONTINUOUS
  0
LAYER
  5
C6E
330
BE3
100
AcDbSymbolTableRecord
100
AcDbLayerTableRecord
  2
Shape814
 70
    0
 62
    7
  6
CONTINUOUS
  0
LAYER
  5
C6F
330
BE3
100
AcDbSymbolTableRecord
100
AcDbLayerTableRecord
  2
Shape815
 70
    0
 62
    7
  6
CONTINUOUS
  0
LAYER
  5
C70
330
BE3
100
AcDbSymbolTableRecord
100
AcDbLayerTableRecord
  2
Shape816
 70
    0
 62
    7
  6
CONTINUOUS
  0
LAYER
  5
C71
330
BE3
100
AcDbSymbolTableRecord
100
AcDbLayerTableRecord
  2
Shape817
 70
    0
 62
    7
  6
CONTINUOUS
  0
LAYER
  5
C72
330
BE3
100
AcDbSymbolTableRecord
100
AcDbLayerTableRecord
  2
Shape818
 70
    0
 62
    7
  6
CONTINUOUS
  0
LAYER
  5
C73
330
BE3
100
AcDbSymbolTableRecord
100
AcDbLayerTableRecord
  2
Shape819
 70
    0
 62
    7
  6
CONTINUOUS
  0
LAYER
  5
C74
330
BE3
100
AcDbSymbolTableRecord
100
AcDbLayerTableRecord
  2
Shape820
 70
    0
 62
    7
  6
CONTINUOUS
  0
LAYER
  5
C75
330
BE3
100
AcDbSymbolTableRecord
100
AcDbLayerTableRecord
  2
Shape821
 70
    0
 62
    7
  6
CONTINUOUS
  0
LAYER
  5
C76
330
BE3
100
AcDbSymbolTableRecord
100
AcDbLayerTableRecord
  2
Shape822
 70
    0
 62
    7
  6
CONTINUOUS
  0
LAYER
  5
C77
330
BE3
100
AcDbSymbolTableRecord
100
AcDbLayerTableRecord
  2
Shape823
 70
    0
 62
    7
  6
CONTINUOUS
  0
LAYER
  5
C78
330
BE3
100
AcDbSymbolTableRecord
100
AcDbLayerTableRecord
  2
Shape824
 70
    0
 62
    7
  6
CONTINUOUS
  0
LAYER
  5
C79
330
BE3
100
AcDbSymbolTableRecord
100
AcDbLayerTableRecord
  2
Shape825
 70
    0
 62
    7
  6
CONTINUOUS
  0
LAYER
  5
C7A
330
BE3
100
AcDbSymbolTableRecord
100
AcDbLayerTableRecord
  2
Shape826
 70
    0
 62
    7
  6
CONTINUOUS
  0
LAYER
  5
C7B
330
BE3
100
AcDbSymbolTableRecord
100
AcDbLayerTableRecord
  2
Shape827
 70
    0
 62
    7
  6
CONTINUOUS
  0
LAYER
  5
C7C
330
BE3
100
AcDbSymbolTableRecord
100
AcDbLayerTableRecord
  2
Shape828
 70
    0
 62
    7
  6
CONTINUOUS
  0
LAYER
  5
C7D
330
BE3
100
AcDbSymbolTableRecord
100
AcDbLayerTableRecord
  2
Shape829
 70
    0
 62
    7
  6
CONTINUOUS
  0
LAYER
  5
C7E
330
BE3
100
AcDbSymbolTableRecord
100
AcDbLayerTableRecord
  2
Shape830
 70
    0
 62
    7
  6
CONTINUOUS
  0
LAYER
  5
C7F
330
BE3
100
AcDbSymbolTableRecord
100
AcDbLayerTableRecord
  2
Shape831
 70
    0
 62
    7
  6
CONTINUOUS
  0
LAYER
  5
C80
330
BE3
100
AcDbSymbolTableRecord
100
AcDbLayerTableRecord
  2
Shape832
 70
    0
 62
    7
  6
CONTINUOUS
  0
LAYER
  5
C81
330
BE3
100
AcDbSymbolTableRecord
100
AcDbLayerTableRecord
  2
Shape833
 70
    0
 62
    7
  6
CONTINUOUS
  0
LAYER
  5
C82
330
BE3
100
AcDbSymbolTableRecord
100
AcDbLayerTableRecord
  2
Shape1898
 70
    0
 62
    7
  6
CONTINUOUS
  0
LAYER
  5
C83
330
BE3
100
AcDbSymbolTableRecord
100
AcDbLayerTableRecord
  2
Shape1899
 70
    0
 62
    7
  6
CONTINUOUS
  0
LAYER
  5
C84
330
BE3
100
AcDbSymbolTableRecord
100
AcDbLayerTableRecord
  2
Shape1900
 70
    0
 62
    7
  6
CONTINUOUS
  0
LAYER
  5
C85
330
BE3
100
AcDbSymbolTableRecord
100
AcDbLayerTableRecord
  2
Shape1901
 70
    0
 62
    7
  6
CONTINUOUS
  0
LAYER
  5
C86
330
BE3
100
AcDbSymbolTableRecord
100
AcDbLayerTableRecord
  2
Shape1902
 70
    0
 62
    7
  6
CONTINUOUS
  0
LAYER
  5
C87
330
BE3
100
AcDbSymbolTableRecord
100
AcDbLayerTableRecord
  2
Shape1903
 70
    0
 62
    7
  6
CONTINUOUS
  0
LAYER
  5
C88
330
BE3
100
AcDbSymbolTableRecord
100
AcDbLayerTableRecord
  2
Shape1904
 70
    0
 62
    7
  6
CONTINUOUS
  0
LAYER
  5
C89
330
BE3
100
AcDbSymbolTableRecord
100
AcDbLayerTableRecord
  2
Shape1905
 70
    0
 62
    7
  6
CONTINUOUS
  0
LAYER
  5
C8A
330
BE3
100
AcDbSymbolTableRecord
100
AcDbLayerTableRecord
  2
Shape1906
 70
    0
 62
    7
  6
CONTINUOUS
  0
LAYER
  5
C8B
330
BE3
100
AcDbSymbolTableRecord
100
AcDbLayerTableRecord
  2
Shape1907
 70
    0
 62
    7
  6
CONTINUOUS
  0
LAYER
  5
C8C
330
BE3
100
AcDbSymbolTableRecord
100
AcDbLayerTableRecord
  2
Shape1908
 70
    0
 62
    7
  6
CONTINUOUS
  0
LAYER
  5
C8D
330
BE3
100
AcDbSymbolTableRecord
100
AcDbLayerTableRecord
  2
Shape1909
 70
    0
 62
    7
  6
CONTINUOUS
  0
LAYER
  5
C8E
330
BE3
100
AcDbSymbolTableRecord
100
AcDbLayerTableRecord
  2
Shape1910
 70
    0
 62
    7
  6
CONTINUOUS
  0
LAYER
  5
C8F
330
BE3
100
AcDbSymbolTableRecord
100
AcDbLayerTableRecord
  2
Shape1911
 70
    0
 62
    7
  6
CONTINUOUS
  0
LAYER
  5
C90
330
BE3
100
AcDbSymbolTableRecord
100
AcDbLayerTableRecord
  2
Shape1912
 70
    0
 62
    7
  6
CONTINUOUS
  0
LAYER
  5
C91
330
BE3
100
AcDbSymbolTableRecord
100
AcDbLayerTableRecord
  2
Shape1913
 70
    0
 62
    7
  6
CONTINUOUS
  0
LAYER
  5
C92
330
BE3
100
AcDbSymbolTableRecord
100
AcDbLayerTableRecord
  2
Shape1914
 70
    0
 62
    7
  6
CONTINUOUS
  0
LAYER
  5
C93
330
BE3
100
AcDbSymbolTableRecord
100
AcDbLayerTableRecord
  2
Shape1915
 70
    0
 62
    7
  6
CONTINUOUS
  0
LAYER
  5
C94
330
BE3
100
AcDbSymbolTableRecord
100
AcDbLayerTableRecord
  2
Shape1916
 70
    0
 62
    7
  6
CONTINUOUS
  0
LAYER
  5
C95
330
BE3
100
AcDbSymbolTableRecord
100
AcDbLayerTableRecord
  2
Shape1917
 70
    0
 62
    7
  6
CONTINUOUS
  0
LAYER
  5
C96
330
BE3
100
AcDbSymbolTableRecord
100
AcDbLayerTableRecord
  2
Shape1918
 70
    0
 62
    7
  6
CONTINUOUS
  0
LAYER
  5
C97
330
BE3
100
AcDbSymbolTableRecord
100
AcDbLayerTableRecord
  2
Shape1919
 70
    0
 62
    7
  6
CONTINUOUS
  0
LAYER
  5
C98
330
BE3
100
AcDbSymbolTableRecord
100
AcDbLayerTableRecord
  2
Shape1920
 70
    0
 62
    7
  6
CONTINUOUS
  0
LAYER
  5
C99
330
BE3
100
AcDbSymbolTableRecord
100
AcDbLayerTableRecord
  2
Shape1921
 70
    0
 62
    7
  6
CONTINUOUS
  0
LAYER
  5
C9A
330
BE3
100
AcDbSymbolTableRecord
100
AcDbLayerTableRecord
  2
Shape1922
 70
    0
 62
    7
  6
CONTINUOUS
  0
LAYER
  5
C9B
330
BE3
100
AcDbSymbolTableRecord
100
AcDbLayerTableRecord
  2
Shape1923
 70
    0
 62
    7
  6
CONTINUOUS
  0
LAYER
  5
C9C
330
BE3
100
AcDbSymbolTableRecord
100
AcDbLayerTableRecord
  2
Shape1924
 70
    0
 62
    7
  6
CONTINUOUS
  0
LAYER
  5
C9D
330
BE3
100
AcDbSymbolTableRecord
100
AcDbLayerTableRecord
  2
Shape1925
 70
    0
 62
    7
  6
CONTINUOUS
  0
LAYER
  5
C9E
330
BE3
100
AcDbSymbolTableRecord
100
AcDbLayerTableRecord
  2
Shape1926
 70
    0
 62
    7
  6
CONTINUOUS
  0
LAYER
  5
C9F
330
BE3
100
AcDbSymbolTableRecord
100
AcDbLayerTableRecord
  2
Shape1927
 70
    0
 62
    7
  6
CONTINUOUS
  0
LAYER
  5
CA0
330
BE3
100
AcDbSymbolTableRecord
100
AcDbLayerTableRecord
  2
Shape1928
 70
    0
 62
    7
  6
CONTINUOUS
  0
LAYER
  5
CA1
330
BE3
100
AcDbSymbolTableRecord
100
AcDbLayerTableRecord
  2
Shape1929
 70
    0
 62
    7
  6
CONTINUOUS
  0
LAYER
  5
CA2
330
BE3
100
AcDbSymbolTableRecord
100
AcDbLayerTableRecord
  2
Shape1930
 70
    0
 62
    7
  6
CONTINUOUS
  0
LAYER
  5
CA3
330
BE3
100
AcDbSymbolTableRecord
100
AcDbLayerTableRecord
  2
Shape1931
 70
    0
 62
    7
  6
CONTINUOUS
  0
LAYER
  5
CA4
330
BE3
100
AcDbSymbolTableRecord
100
AcDbLayerTableRecord
  2
Shape1932
 70
    0
 62
    7
  6
CONTINUOUS
  0
LAYER
  5
CA5
330
BE3
100
AcDbSymbolTableRecord
100
AcDbLayerTableRecord
  2
Shape1933
 70
    0
 62
    7
  6
CONTINUOUS
  0
LAYER
  5
CA6
330
BE3
100
AcDbSymbolTableRecord
100
AcDbLayerTableRecord
  2
Shape1934
 70
    0
 62
    7
  6
CONTINUOUS
  0
LAYER
  5
CA7
330
BE3
100
AcDbSymbolTableRecord
100
AcDbLayerTableRecord
  2
Shape1935
 70
    0
 62
    7
  6
CONTINUOUS
  0
LAYER
  5
CA8
330
BE3
100
AcDbSymbolTableRecord
100
AcDbLayerTableRecord
  2
Shape1936
 70
    0
 62
    7
  6
CONTINUOUS
  0
LAYER
  5
CA9
330
BE3
100
AcDbSymbolTableRecord
100
AcDbLayerTableRecord
  2
Shape1937
 70
    0
 62
    7
  6
CONTINUOUS
  0
LAYER
  5
CAA
330
BE3
100
AcDbSymbolTableRecord
100
AcDbLayerTableRecord
  2
Shape1938
 70
    0
 62
    7
  6
CONTINUOUS
  0
LAYER
  5
CAB
330
BE3
100
AcDbSymbolTableRecord
100
AcDbLayerTableRecord
  2
Shape1939
 70
    0
 62
    7
  6
CONTINUOUS
  0
LAYER
  5
CAC
330
BE3
100
AcDbSymbolTableRecord
100
AcDbLayerTableRecord
  2
Shape1940
 70
    0
 62
    7
  6
CONTINUOUS
  0
LAYER
  5
CAD
330
BE3
100
AcDbSymbolTableRecord
100
AcDbLayerTableRecord
  2
Shape1941
 70
    0
 62
    7
  6
CONTINUOUS
  0
LAYER
  5
CAE
330
BE3
100
AcDbSymbolTableRecord
100
AcDbLayerTableRecord
  2
Shape1942
 70
    0
 62
    7
  6
CONTINUOUS
  0
LAYER
  5
CAF
330
BE3
100
AcDbSymbolTableRecord
100
AcDbLayerTableRecord
  2
Shape1943
 70
    0
 62
    7
  6
CONTINUOUS
  0
LAYER
  5
CB0
330
BE3
100
AcDbSymbolTableRecord
100
AcDbLayerTableRecord
  2
Shape1944
 70
    0
 62
    7
  6
CONTINUOUS
  0
LAYER
  5
CB1
330
BE3
100
AcDbSymbolTableRecord
100
AcDbLayerTableRecord
  2
Shape1945
 70
    0
 62
    7
  6
CONTINUOUS
  0
LAYER
  5
CB2
330
BE3
100
AcDbSymbolTableRecord
100
AcDbLayerTableRecord
  2
Shape1946
 70
    0
 62
    7
  6
CONTINUOUS
  0
LAYER
  5
CB3
330
BE3
100
AcDbSymbolTableRecord
100
AcDbLayerTableRecord
  2
Shape1947
 70
    0
 62
    7
  6
CONTINUOUS
  0
LAYER
  5
CB4
330
BE3
100
AcDbSymbolTableRecord
100
AcDbLayerTableRecord
  2
Shape1948
 70
    0
 62
    7
  6
CONTINUOUS
  0
LAYER
  5
CB5
330
BE3
100
AcDbSymbolTableRecord
100
AcDbLayerTableRecord
  2
Shape1949
 70
    0
 62
    7
  6
CONTINUOUS
  0
LAYER
  5
CB6
330
BE3
100
AcDbSymbolTableRecord
100
AcDbLayerTableRecord
  2
Shape1950
 70
    0
 62
    7
  6
CONTINUOUS
  0
LAYER
  5
CB7
330
BE3
100
AcDbSymbolTableRecord
100
AcDbLayerTableRecord
  2
Shape1951
 70
    0
 62
    7
  6
CONTINUOUS
  0
LAYER
  5
CB8
330
BE3
100
AcDbSymbolTableRecord
100
AcDbLayerTableRecord
  2
Shape1952
 70
    0
 62
    7
  6
CONTINUOUS
  0
LAYER
  5
CB9
330
BE3
100
AcDbSymbolTableRecord
100
AcDbLayerTableRecord
  2
Shape1953
 70
    0
 62
    7
  6
CONTINUOUS
  0
LAYER
  5
CBA
330
BE3
100
AcDbSymbolTableRecord
100
AcDbLayerTableRecord
  2
Shape1954
 70
    0
 62
    7
  6
CONTINUOUS
  0
LAYER
  5
CBB
330
BE3
100
AcDbSymbolTableRecord
100
AcDbLayerTableRecord
  2
Shape1955
 70
    0
 62
    7
  6
CONTINUOUS
  0
LAYER
  5
CBC
330
BE3
100
AcDbSymbolTableRecord
100
AcDbLayerTableRecord
  2
Shape1956
 70
    0
 62
    7
  6
CONTINUOUS
  0
LAYER
  5
CBD
330
BE3
100
AcDbSymbolTableRecord
100
AcDbLayerTableRecord
  2
Shape1957
 70
    0
 62
    7
  6
CONTINUOUS
  0
LAYER
  5
CBE
330
BE3
100
AcDbSymbolTableRecord
100
AcDbLayerTableRecord
  2
Shape1958
 70
    0
 62
    7
  6
CONTINUOUS
  0
LAYER
  5
CBF
330
BE3
100
AcDbSymbolTableRecord
100
AcDbLayerTableRecord
  2
Shape1959
 70
    0
 62
    7
  6
CONTINUOUS
  0
LAYER
  5
CC0
330
BE3
100
AcDbSymbolTableRecord
100
AcDbLayerTableRecord
  2
Shape1960
 70
    0
 62
    7
  6
CONTINUOUS
  0
LAYER
  5
CC1
330
BE3
100
AcDbSymbolTableRecord
100
AcDbLayerTableRecord
  2
Shape1961
 70
    0
 62
    7
  6
CONTINUOUS
  0
LAYER
  5
CC2
330
BE3
100
AcDbSymbolTableRecord
100
AcDbLayerTableRecord
  2
Shape1962
 70
    0
 62
    7
  6
CONTINUOUS
  0
LAYER
  5
CC3
330
BE3
100
AcDbSymbolTableRecord
100
AcDbLayerTableRecord
  2
Shape1963
 70
    0
 62
    7
  6
CONTINUOUS
  0
LAYER
  5
CC4
330
BE3
100
AcDbSymbolTableRecord
100
AcDbLayerTableRecord
  2
Shape1964
 70
    0
 62
    7
  6
CONTINUOUS
  0
LAYER
  5
CC5
330
BE3
100
AcDbSymbolTableRecord
100
AcDbLayerTableRecord
  2
Shape1965
 70
    0
 62
    7
  6
CONTINUOUS
  0
LAYER
  5
CC6
330
BE3
100
AcDbSymbolTableRecord
100
AcDbLayerTableRecord
  2
Shape1966
 70
    0
 62
    7
  6
CONTINUOUS
  0
LAYER
  5
CC7
330
BE3
100
AcDbSymbolTableRecord
100
AcDbLayerTableRecord
  2
Shape1967
 70
    0
 62
    7
  6
CONTINUOUS
  0
LAYER
  5
CC8
330
BE3
100
AcDbSymbolTableRecord
100
AcDbLayerTableRecord
  2
Shape1968
 70
    0
 62
    7
  6
CONTINUOUS
  0
LAYER
  5
CC9
330
BE3
100
AcDbSymbolTableRecord
100
AcDbLayerTableRecord
  2
Shape1969
 70
    0
 62
    7
  6
CONTINUOUS
  0
LAYER
  5
CCA
330
BE3
100
AcDbSymbolTableRecord
100
AcDbLayerTableRecord
  2
Shape1970
 70
    0
 62
    7
  6
CONTINUOUS
  0
LAYER
  5
CCB
330
BE3
100
AcDbSymbolTableRecord
100
AcDbLayerTableRecord
  2
Shape1971
 70
    0
 62
    7
  6
CONTINUOUS
  0
LAYER
  5
CCC
330
BE3
100
AcDbSymbolTableRecord
100
AcDbLayerTableRecord
  2
Shape1972
 70
    0
 62
    7
  6
CONTINUOUS
  0
LAYER
  5
CCD
330
BE3
100
AcDbSymbolTableRecord
100
AcDbLayerTableRecord
  2
Shape1973
 70
    0
 62
    7
  6
CONTINUOUS
  0
LAYER
  5
CCE
330
BE3
100
AcDbSymbolTableRecord
100
AcDbLayerTableRecord
  2
Shape1974
 70
    0
 62
    7
  6
CONTINUOUS
  0
LAYER
  5
CCF
330
BE3
100
AcDbSymbolTableRecord
100
AcDbLayerTableRecord
  2
Shape1975
 70
    0
 62
    7
  6
CONTINUOUS
  0
LAYER
  5
CD0
330
BE3
100
AcDbSymbolTableRecord
100
AcDbLayerTableRecord
  2
Shape1976
 70
    0
 62
    7
  6
CONTINUOUS
  0
LAYER
  5
CD1
330
BE3
100
AcDbSymbolTableRecord
100
AcDbLayerTableRecord
  2
Shape1977
 70
    0
 62
    7
  6
CONTINUOUS
  0
LAYER
  5
CD2
330
BE3
100
AcDbSymbolTableRecord
100
AcDbLayerTableRecord
  2
Shape1978
 70
    0
 62
    7
  6
CONTINUOUS
  0
LAYER
  5
CD3
330
BE3
100
AcDbSymbolTableRecord
100
AcDbLayerTableRecord
  2
Shape1979
 70
    0
 62
    7
  6
CONTINUOUS
  0
LAYER
  5
CD4
330
BE3
100
AcDbSymbolTableRecord
100
AcDbLayerTableRecord
  2
Shape1980
 70
    0
 62
    7
  6
CONTINUOUS
  0
LAYER
  5
CD5
330
BE3
100
AcDbSymbolTableRecord
100
AcDbLayerTableRecord
  2
Shape1981
 70
    0
 62
    7
  6
CONTINUOUS
  0
LAYER
  5
CD6
330
BE3
100
AcDbSymbolTableRecord
100
AcDbLayerTableRecord
  2
Shape1982
 70
    0
 62
    7
  6
CONTINUOUS
  0
LAYER
  5
CD7
330
BE3
100
AcDbSymbolTableRecord
100
AcDbLayerTableRecord
  2
Shape1983
 70
    0
 62
    7
  6
CONTINUOUS
  0
LAYER
  5
CD8
330
BE3
100
AcDbSymbolTableRecord
100
AcDbLayerTableRecord
  2
Shape1984
 70
    0
 62
    7
  6
CONTINUOUS
  0
LAYER
  5
CD9
330
BE3
100
AcDbSymbolTableRecord
100
AcDbLayerTableRecord
  2
Shape1985
 70
    0
 62
    7
  6
CONTINUOUS
  0
LAYER
  5
CDA
330
BE3
100
AcDbSymbolTableRecord
100
AcDbLayerTableRecord
  2
Shape1986
 70
    0
 62
    7
  6
CONTINUOUS
  0
LAYER
  5
CDB
330
BE3
100
AcDbSymbolTableRecord
100
AcDbLayerTableRecord
  2
Shape1987
 70
    0
 62
    7
  6
CONTINUOUS
  0
LAYER
  5
CDC
330
BE3
100
AcDbSymbolTableRecord
100
AcDbLayerTableRecord
  2
Shape1988
 70
    0
 62
    7
  6
CONTINUOUS
  0
LAYER
  5
CDD
330
BE3
100
AcDbSymbolTableRecord
100
AcDbLayerTableRecord
  2
Shape1989
 70
    0
 62
    7
  6
CONTINUOUS
  0
LAYER
  5
CDE
330
BE3
100
AcDbSymbolTableRecord
100
AcDbLayerTableRecord
  2
Shape1990
 70
    0
 62
    7
  6
CONTINUOUS
  0
LAYER
  5
CDF
330
BE3
100
AcDbSymbolTableRecord
100
AcDbLayerTableRecord
  2
Shape1991
 70
    0
 62
    7
  6
CONTINUOUS
  0
LAYER
  5
CE0
330
BE3
100
AcDbSymbolTableRecord
100
AcDbLayerTableRecord
  2
Shape1992
 70
    0
 62
    7
  6
CONTINUOUS
  0
LAYER
  5
CE1
330
BE3
100
AcDbSymbolTableRecord
100
AcDbLayerTableRecord
  2
Shape1993
 70
    0
 62
    7
  6
CONTINUOUS
  0
LAYER
  5
CE2
330
BE3
100
AcDbSymbolTableRecord
100
AcDbLayerTableRecord
  2
Shape1994
 70
    0
 62
    7
  6
CONTINUOUS
  0
LAYER
  5
CE3
330
BE3
100
AcDbSymbolTableRecord
100
AcDbLayerTableRecord
  2
Shape1995
 70
    0
 62
    7
  6
CONTINUOUS
  0
LAYER
  5
CE4
330
BE3
100
AcDbSymbolTableRecord
100
AcDbLayerTableRecord
  2
Shape1996
 70
    0
 62
    7
  6
CONTINUOUS
  0
LAYER
  5
CE5
330
BE3
100
AcDbSymbolTableRecord
100
AcDbLayerTableRecord
  2
Shape1997
 70
    0
 62
    7
  6
CONTINUOUS
  0
LAYER
  5
CE6
330
BE3
100
AcDbSymbolTableRecord
100
AcDbLayerTableRecord
  2
Shape1998
 70
    0
 62
    7
  6
CONTINUOUS
  0
LAYER
  5
CE7
330
BE3
100
AcDbSymbolTableRecord
100
AcDbLayerTableRecord
  2
Shape1999
 70
    0
 62
    7
  6
CONTINUOUS
  0
LAYER
  5
CE8
330
BE3
100
AcDbSymbolTableRecord
100
AcDbLayerTableRecord
  2
Shape2000
 70
    0
 62
    7
  6
CONTINUOUS
  0
LAYER
  5
CE9
330
BE3
100
AcDbSymbolTableRecord
100
AcDbLayerTableRecord
  2
Shape2001
 70
    0
 62
    7
  6
CONTINUOUS
  0
LAYER
  5
CEA
330
BE3
100
AcDbSymbolTableRecord
100
AcDbLayerTableRecord
  2
Shape2002
 70
    0
 62
    7
  6
CONTINUOUS
  0
LAYER
  5
CEB
330
BE3
100
AcDbSymbolTableRecord
100
AcDbLayerTableRecord
  2
Shape2003
 70
    0
 62
    7
  6
CONTINUOUS
  0
LAYER
  5
CEC
330
BE3
100
AcDbSymbolTableRecord
100
AcDbLayerTableRecord
  2
Shape2004
 70
    0
 62
    7
  6
CONTINUOUS
  0
LAYER
  5
CED
330
BE3
100
AcDbSymbolTableRecord
100
AcDbLayerTableRecord
  2
Shape2005
 70
    0
 62
    7
  6
CONTINUOUS
  0
LAYER
  5
CEE
330
BE3
100
AcDbSymbolTableRecord
100
AcDbLayerTableRecord
  2
Shape2006
 70
    0
 62
    7
  6
CONTINUOUS
  0
LAYER
  5
CEF
330
BE3
100
AcDbSymbolTableRecord
100
AcDbLayerTableRecord
  2
Shape2007
 70
    0
 62
    7
  6
CONTINUOUS
  0
LAYER
  5
CF0
330
BE3
100
AcDbSymbolTableRecord
100
AcDbLayerTableRecord
  2
Shape2008
 70
    0
 62
    7
  6
CONTINUOUS
  0
LAYER
  5
CF1
330
BE3
100
AcDbSymbolTableRecord
100
AcDbLayerTableRecord
  2
Shape2009
 70
    0
 62
    7
  6
CONTINUOUS
  0
LAYER
  5
CF2
330
BE3
100
AcDbSymbolTableRecord
100
AcDbLayerTableRecord
  2
Shape2010
 70
    0
 62
    7
  6
CONTINUOUS
  0
LAYER
  5
CF3
330
BE3
100
AcDbSymbolTableRecord
100
AcDbLayerTableRecord
  2
Shape2011
 70
    0
 62
    7
  6
CONTINUOUS
  0
LAYER
  5
CF4
330
BE3
100
AcDbSymbolTableRecord
100
AcDbLayerTableRecord
  2
Shape2012
 70
    0
 62
    7
  6
CONTINUOUS
  0
LAYER
  5
CF5
330
BE3
100
AcDbSymbolTableRecord
100
AcDbLayerTableRecord
  2
Shape2013
 70
    0
 62
    7
  6
CONTINUOUS
  0
LAYER
  5
CF6
330
BE3
100
AcDbSymbolTableRecord
100
AcDbLayerTableRecord
  2
Shape2014
 70
    0
 62
    7
  6
CONTINUOUS
  0
LAYER
  5
CF7
330
BE3
100
AcDbSymbolTableRecord
100
AcDbLayerTableRecord
  2
Shape2015
 70
    0
 62
    7
  6
CONTINUOUS
  0
LAYER
  5
CF8
330
BE3
100
AcDbSymbolTableRecord
100
AcDbLayerTableRecord
  2
Shape2016
 70
    0
 62
    7
  6
CONTINUOUS
  0
LAYER
  5
CF9
330
BE3
100
AcDbSymbolTableRecord
100
AcDbLayerTableRecord
  2
Shape2017
 70
    0
 62
    7
  6
CONTINUOUS
  0
LAYER
  5
CFA
330
BE3
100
AcDbSymbolTableRecord
100
AcDbLayerTableRecord
  2
Shape2018
 70
    0
 62
    7
  6
CONTINUOUS
  0
LAYER
  5
CFB
330
BE3
100
AcDbSymbolTableRecord
100
AcDbLayerTableRecord
  2
Shape2019
 70
    0
 62
    7
  6
CONTINUOUS
  0
LAYER
  5
CFC
330
BE3
100
AcDbSymbolTableRecord
100
AcDbLayerTableRecord
  2
Shape2020
 70
    0
 62
    7
  6
CONTINUOUS
  0
LAYER
  5
CFD
330
BE3
100
AcDbSymbolTableRecord
100
AcDbLayerTableRecord
  2
Shape2021
 70
    0
 62
    7
  6
CONTINUOUS
  0
LAYER
  5
CFE
330
BE3
100
AcDbSymbolTableRecord
100
AcDbLayerTableRecord
  2
Shape2022
 70
    0
 62
    7
  6
CONTINUOUS
  0
LAYER
  5
CFF
330
BE3
100
AcDbSymbolTableRecord
100
AcDbLayerTableRecord
  2
Shape2023
 70
    0
 62
    7
  6
CONTINUOUS
  0
LAYER
  5
D00
330
BE3
100
AcDbSymbolTableRecord
100
AcDbLayerTableRecord
  2
Shape2024
 70
    0
 62
    7
  6
CONTINUOUS
  0
LAYER
  5
D01
330
BE3
100
AcDbSymbolTableRecord
100
AcDbLayerTableRecord
  2
Shape2025
 70
    0
 62
    7
  6
CONTINUOUS
  0
LAYER
  5
D02
330
BE3
100
AcDbSymbolTableRecord
100
AcDbLayerTableRecord
  2
Shape2026
 70
    0
 62
    7
  6
CONTINUOUS
  0
LAYER
  5
D03
330
BE3
100
AcDbSymbolTableRecord
100
AcDbLayerTableRecord
  2
Shape2027
 70
    0
 62
    7
  6
CONTINUOUS
  0
LAYER
  5
D04
330
BE3
100
AcDbSymbolTableRecord
100
AcDbLayerTableRecord
  2
Shape2028
 70
    0
 62
    7
  6
CONTINUOUS
  0
LAYER
  5
D05
330
BE3
100
AcDbSymbolTableRecord
100
AcDbLayerTableRecord
  2
Shape2029
 70
    0
 62
    7
  6
CONTINUOUS
  0
LAYER
  5
D06
330
BE3
100
AcDbSymbolTableRecord
100
AcDbLayerTableRecord
  2
Shape2030
 70
    0
 62
    7
  6
CONTINUOUS
  0
LAYER
  5
D07
330
BE3
100
AcDbSymbolTableRecord
100
AcDbLayerTableRecord
  2
Shape2031
 70
    0
 62
    7
  6
CONTINUOUS
  0
LAYER
  5
D08
330
BE3
100
AcDbSymbolTableRecord
100
AcDbLayerTableRecord
  2
Shape2032
 70
    0
 62
    7
  6
CONTINUOUS
  0
LAYER
  5
D09
330
BE3
100
AcDbSymbolTableRecord
100
AcDbLayerTableRecord
  2
Shape2033
 70
    0
 62
    7
  6
CONTINUOUS
  0
LAYER
  5
D0A
330
BE3
100
AcDbSymbolTableRecord
100
AcDbLayerTableRecord
  2
Shape2034
 70
    0
 62
    7
  6
CONTINUOUS
  0
LAYER
  5
D0B
330
BE3
100
AcDbSymbolTableRecord
100
AcDbLayerTableRecord
  2
Shape2035
 70
    0
 62
    7
  6
CONTINUOUS
  0
LAYER
  5
D0C
330
BE3
100
AcDbSymbolTableRecord
100
AcDbLayerTableRecord
  2
Shape2036
 70
    0
 62
    7
  6
CONTINUOUS
  0
LAYER
  5
D0D
330
BE3
100
AcDbSymbolTableRecord
100
AcDbLayerTableRecord
  2
Shape2037
 70
    0
 62
    7
  6
CONTINUOUS
  0
LAYER
  5
D0E
330
BE3
100
AcDbSymbolTableRecord
100
AcDbLayerTableRecord
  2
Shape2038
 70
    0
 62
    7
  6
CONTINUOUS
  0
LAYER
  5
D0F
330
BE3
100
AcDbSymbolTableRecord
100
AcDbLayerTableRecord
  2
Shape2039
 70
    0
 62
    7
  6
CONTINUOUS
  0
LAYER
  5
D10
330
BE3
100
AcDbSymbolTableRecord
100
AcDbLayerTableRecord
  2
Shape2040
 70
    0
 62
    7
  6
CONTINUOUS
  0
LAYER
  5
D11
330
BE3
100
AcDbSymbolTableRecord
100
AcDbLayerTableRecord
  2
Shape2041
 70
    0
 62
    7
  6
CONTINUOUS
  0
LAYER
  5
D12
330
BE3
100
AcDbSymbolTableRecord
100
AcDbLayerTableRecord
  2
Shape2042
 70
    0
 62
    7
  6
CONTINUOUS
  0
LAYER
  5
D13
330
BE3
100
AcDbSymbolTableRecord
100
AcDbLayerTableRecord
  2
Shape2043
 70
    0
 62
    7
  6
CONTINUOUS
  0
LAYER
  5
D14
330
BE3
100
AcDbSymbolTableRecord
100
AcDbLayerTableRecord
  2
Shape2044
 70
    0
 62
    7
  6
CONTINUOUS
  0
LAYER
  5
D15
330
BE3
100
AcDbSymbolTableRecord
100
AcDbLayerTableRecord
  2
Shape2045
 70
    0
 62
    7
  6
CONTINUOUS
  0
LAYER
  5
D16
330
BE3
100
AcDbSymbolTableRecord
100
AcDbLayerTableRecord
  2
Shape2046
 70
    0
 62
    7
  6
CONTINUOUS
  0
LAYER
  5
D17
330
BE3
100
AcDbSymbolTableRecord
100
AcDbLayerTableRecord
  2
Shape2047
 70
    0
 62
    7
  6
CONTINUOUS
  0
LAYER
  5
D18
330
BE3
100
AcDbSymbolTableRecord
100
AcDbLayerTableRecord
  2
Shape2048
 70
    0
 62
    7
  6
CONTINUOUS
  0
LAYER
  5
D19
330
BE3
100
AcDbSymbolTableRecord
100
AcDbLayerTableRecord
  2
Shape2049
 70
    0
 62
    7
  6
CONTINUOUS
  0
LAYER
  5
D1A
330
BE3
100
AcDbSymbolTableRecord
100
AcDbLayerTableRecord
  2
Shape2050
 70
    0
 62
    7
  6
CONTINUOUS
  0
LAYER
  5
D1B
330
BE3
100
AcDbSymbolTableRecord
100
AcDbLayerTableRecord
  2
Shape2051
 70
    0
 62
    7
  6
CONTINUOUS
  0
LAYER
  5
D1C
330
BE3
100
AcDbSymbolTableRecord
100
AcDbLayerTableRecord
  2
Shape2052
 70
    0
 62
    7
  6
CONTINUOUS
  0
LAYER
  5
D1D
330
BE3
100
AcDbSymbolTableRecord
100
AcDbLayerTableRecord
  2
Shape2053
 70
    0
 62
    7
  6
CONTINUOUS
  0
LAYER
  5
D1E
330
BE3
100
AcDbSymbolTableRecord
100
AcDbLayerTableRecord
  2
Shape2054
 70
    0
 62
    7
  6
CONTINUOUS
  0
LAYER
  5
D1F
330
BE3
100
AcDbSymbolTableRecord
100
AcDbLayerTableRecord
  2
Shape2055
 70
    0
 62
    7
  6
CONTINUOUS
  0
LAYER
  5
D20
330
BE3
100
AcDbSymbolTableRecord
100
AcDbLayerTableRecord
  2
Shape3730
 70
    0
 62
    7
  6
CONTINUOUS
  0
LAYER
  5
D21
330
BE3
100
AcDbSymbolTableRecord
100
AcDbLayerTableRecord
  2
Shape3731
 70
    0
 62
    7
  6
CONTINUOUS
  0
LAYER
  5
D22
330
BE3
100
AcDbSymbolTableRecord
100
AcDbLayerTableRecord
  2
Shape3732
 70
    0
 62
    7
  6
CONTINUOUS
  0
LAYER
  5
D23
330
BE3
100
AcDbSymbolTableRecord
100
AcDbLayerTableRecord
  2
Shape3733
 70
    0
 62
    7
  6
CONTINUOUS
  0
LAYER
  5
D24
330
BE3
100
AcDbSymbolTableRecord
100
AcDbLayerTableRecord
  2
Shape3734
 70
    0
 62
    7
  6
CONTINUOUS
  0
LAYER
  5
D25
330
BE3
100
AcDbSymbolTableRecord
100
AcDbLayerTableRecord
  2
Shape3735
 70
    0
 62
    7
  6
CONTINUOUS
  0
LAYER
  5
D26
330
BE3
100
AcDbSymbolTableRecord
100
AcDbLayerTableRecord
  2
Shape3736
 70
    0
 62
    7
  6
CONTINUOUS
  0
LAYER
  5
D27
330
BE3
100
AcDbSymbolTableRecord
100
AcDbLayerTableRecord
  2
Shape3737
 70
    0
 62
    7
  6
CONTINUOUS
  0
LAYER
  5
D28
330
BE3
100
AcDbSymbolTableRecord
100
AcDbLayerTableRecord
  2
Shape3738
 70
    0
 62
    7
  6
CONTINUOUS
  0
LAYER
  5
D29
330
BE3
100
AcDbSymbolTableRecord
100
AcDbLayerTableRecord
  2
Shape3739
 70
    0
 62
    7
  6
CONTINUOUS
  0
LAYER
  5
D2A
330
BE3
100
AcDbSymbolTableRecord
100
AcDbLayerTableRecord
  2
Shape3740
 70
    0
 62
    7
  6
CONTINUOUS
  0
LAYER
  5
D2B
330
BE3
100
AcDbSymbolTableRecord
100
AcDbLayerTableRecord
  2
Shape3741
 70
    0
 62
    7
  6
CONTINUOUS
  0
LAYER
  5
D2C
330
BE3
100
AcDbSymbolTableRecord
100
AcDbLayerTableRecord
  2
Shape3742
 70
    0
 62
    7
  6
CONTINUOUS
  0
LAYER
  5
D2D
330
BE3
100
AcDbSymbolTableRecord
100
AcDbLayerTableRecord
  2
Shape3743
 70
    0
 62
    7
  6
CONTINUOUS
  0
LAYER
  5
D2E
330
BE3
100
AcDbSymbolTableRecord
100
AcDbLayerTableRecord
  2
Shape3744
 70
    0
 62
    7
  6
CONTINUOUS
  0
LAYER
  5
D2F
330
BE3
100
AcDbSymbolTableRecord
100
AcDbLayerTableRecord
  2
Shape3745
 70
    0
 62
    7
  6
CONTINUOUS
  0
LAYER
  5
D30
330
BE3
100
AcDbSymbolTableRecord
100
AcDbLayerTableRecord
  2
Shape3746
 70
    0
 62
    7
  6
CONTINUOUS
  0
LAYER
  5
D31
330
BE3
100
AcDbSymbolTableRecord
100
AcDbLayerTableRecord
  2
Shape3747
 70
    0
 62
    7
  6
CONTINUOUS
  0
LAYER
  5
D32
330
BE3
100
AcDbSymbolTableRecord
100
AcDbLayerTableRecord
  2
Shape3748
 70
    0
 62
    7
  6
CONTINUOUS
  0
LAYER
  5
D33
330
BE3
100
AcDbSymbolTableRecord
100
AcDbLayerTableRecord
  2
Shape3749
 70
    0
 62
    7
  6
CONTINUOUS
  0
LAYER
  5
D34
330
BE3
100
AcDbSymbolTableRecord
100
AcDbLayerTableRecord
  2
Shape3750
 70
    0
 62
    7
  6
CONTINUOUS
  0
LAYER
  5
D35
330
BE3
100
AcDbSymbolTableRecord
100
AcDbLayerTableRecord
  2
Shape3751
 70
    0
 62
    7
  6
CONTINUOUS
  0
LAYER
  5
D36
330
BE3
100
AcDbSymbolTableRecord
100
AcDbLayerTableRecord
  2
Shape3752
 70
    0
 62
    7
  6
CONTINUOUS
  0
LAYER
  5
D37
330
BE3
100
AcDbSymbolTableRecord
100
AcDbLayerTableRecord
  2
Shape3753
 70
    0
 62
    7
  6
CONTINUOUS
  0
LAYER
  5
D38
330
BE3
100
AcDbSymbolTableRecord
100
AcDbLayerTableRecord
  2
Shape3754
 70
    0
 62
    7
  6
CONTINUOUS
  0
LAYER
  5
D39
330
BE3
100
AcDbSymbolTableRecord
100
AcDbLayerTableRecord
  2
Shape3755
 70
    0
 62
    7
  6
CONTINUOUS
  0
LAYER
  5
D3A
330
BE3
100
AcDbSymbolTableRecord
100
AcDbLayerTableRecord
  2
Shape3756
 70
    0
 62
    7
  6
CONTINUOUS
  0
LAYER
  5
D3B
330
BE3
100
AcDbSymbolTableRecord
100
AcDbLayerTableRecord
  2
Shape3757
 70
    0
 62
    7
  6
CONTINUOUS
  0
LAYER
  5
D3C
330
BE3
100
AcDbSymbolTableRecord
100
AcDbLayerTableRecord
  2
Shape3758
 70
    0
 62
    7
  6
CONTINUOUS
  0
LAYER
  5
D3D
330
BE3
100
AcDbSymbolTableRecord
100
AcDbLayerTableRecord
  2
Shape3759
 70
    0
 62
    7
  6
CONTINUOUS
  0
LAYER
  5
D3E
330
BE3
100
AcDbSymbolTableRecord
100
AcDbLayerTableRecord
  2
Shape3760
 70
    0
 62
    7
  6
CONTINUOUS
  0
LAYER
  5
D3F
330
BE3
100
AcDbSymbolTableRecord
100
AcDbLayerTableRecord
  2
Shape3761
 70
    0
 62
    7
  6
CONTINUOUS
  0
LAYER
  5
D40
330
BE3
100
AcDbSymbolTableRecord
100
AcDbLayerTableRecord
  2
Shape3762
 70
    0
 62
    7
  6
CONTINUOUS
  0
LAYER
  5
D41
330
BE3
100
AcDbSymbolTableRecord
100
AcDbLayerTableRecord
  2
Shape3763
 70
    0
 62
    7
  6
CONTINUOUS
  0
LAYER
  5
D42
330
BE3
100
AcDbSymbolTableRecord
100
AcDbLayerTableRecord
  2
Shape3764
 70
    0
 62
    7
  6
CONTINUOUS
  0
LAYER
  5
D43
330
BE3
100
AcDbSymbolTableRecord
100
AcDbLayerTableRecord
  2
Shape3765
 70
    0
 62
    7
  6
CONTINUOUS
  0
LAYER
  5
D44
330
BE3
100
AcDbSymbolTableRecord
100
AcDbLayerTableRecord
  2
Shape3766
 70
    0
 62
    7
  6
CONTINUOUS
  0
LAYER
  5
D45
330
BE3
100
AcDbSymbolTableRecord
100
AcDbLayerTableRecord
  2
Shape3767
 70
    0
 62
    7
  6
CONTINUOUS
  0
LAYER
  5
D46
330
BE3
100
AcDbSymbolTableRecord
100
AcDbLayerTableRecord
  2
Shape3768
 70
    0
 62
    7
  6
CONTINUOUS
  0
LAYER
  5
D47
330
BE3
100
AcDbSymbolTableRecord
100
AcDbLayerTableRecord
  2
Shape3769
 70
    0
 62
    7
  6
CONTINUOUS
  0
LAYER
  5
D48
330
BE3
100
AcDbSymbolTableRecord
100
AcDbLayerTableRecord
  2
Shape3770
 70
    0
 62
    7
  6
CONTINUOUS
  0
LAYER
  5
D49
330
BE3
100
AcDbSymbolTableRecord
100
AcDbLayerTableRecord
  2
Shape3771
 70
    0
 62
    7
  6
CONTINUOUS
  0
LAYER
  5
D4A
330
BE3
100
AcDbSymbolTableRecord
100
AcDbLayerTableRecord
  2
Shape3772
 70
    0
 62
    7
  6
CONTINUOUS
  0
LAYER
  5
D4B
330
BE3
100
AcDbSymbolTableRecord
100
AcDbLayerTableRecord
  2
Shape3773
 70
    0
 62
    7
  6
CONTINUOUS
  0
LAYER
  5
D4C
330
BE3
100
AcDbSymbolTableRecord
100
AcDbLayerTableRecord
  2
Shape3774
 70
    0
 62
    7
  6
CONTINUOUS
  0
LAYER
  5
D4D
330
BE3
100
AcDbSymbolTableRecord
100
AcDbLayerTableRecord
  2
Shape3775
 70
    0
 62
    7
  6
CONTINUOUS
  0
LAYER
  5
D4E
330
BE3
100
AcDbSymbolTableRecord
100
AcDbLayerTableRecord
  2
Shape3776
 70
    0
 62
    7
  6
CONTINUOUS
  0
LAYER
  5
D4F
330
BE3
100
AcDbSymbolTableRecord
100
AcDbLayerTableRecord
  2
Shape3777
 70
    0
 62
    7
  6
CONTINUOUS
  0
LAYER
  5
D50
330
BE3
100
AcDbSymbolTableRecord
100
AcDbLayerTableRecord
  2
Shape3778
 70
    0
 62
    7
  6
CONTINUOUS
  0
LAYER
  5
D51
330
BE3
100
AcDbSymbolTableRecord
100
AcDbLayerTableRecord
  2
Shape3779
 70
    0
 62
    7
  6
CONTINUOUS
  0
LAYER
  5
D52
330
BE3
100
AcDbSymbolTableRecord
100
AcDbLayerTableRecord
  2
Shape3780
 70
    0
 62
    7
  6
CONTINUOUS
  0
LAYER
  5
D53
330
BE3
100
AcDbSymbolTableRecord
100
AcDbLayerTableRecord
  2
Shape3781
 70
    0
 62
    7
  6
CONTINUOUS
  0
LAYER
  5
D54
330
BE3
100
AcDbSymbolTableRecord
100
AcDbLayerTableRecord
  2
Shape3782
 70
    0
 62
    7
  6
CONTINUOUS
  0
LAYER
  5
D55
330
BE3
100
AcDbSymbolTableRecord
100
AcDbLayerTableRecord
  2
Shape3783
 70
    0
 62
    7
  6
CONTINUOUS
  0
LAYER
  5
D56
330
BE3
100
AcDbSymbolTableRecord
100
AcDbLayerTableRecord
  2
Shape3784
 70
    0
 62
    7
  6
CONTINUOUS
  0
LAYER
  5
D57
330
BE3
100
AcDbSymbolTableRecord
100
AcDbLayerTableRecord
  2
Shape3785
 70
    0
 62
    7
  6
CONTINUOUS
  0
LAYER
  5
D58
330
BE3
100
AcDbSymbolTableRecord
100
AcDbLayerTableRecord
  2
Shape3786
 70
    0
 62
    7
  6
CONTINUOUS
  0
LAYER
  5
D59
330
BE3
100
AcDbSymbolTableRecord
100
AcDbLayerTableRecord
  2
Shape3787
 70
    0
 62
    7
  6
CONTINUOUS
  0
LAYER
  5
D5A
330
BE3
100
AcDbSymbolTableRecord
100
AcDbLayerTableRecord
  2
Shape3788
 70
    0
 62
    7
  6
CONTINUOUS
  0
LAYER
  5
D5B
330
BE3
100
AcDbSymbolTableRecord
100
AcDbLayerTableRecord
  2
Shape3789
 70
    0
 62
    7
  6
CONTINUOUS
  0
LAYER
  5
D5C
330
BE3
100
AcDbSymbolTableRecord
100
AcDbLayerTableRecord
  2
Shape3790
 70
    0
 62
    7
  6
CONTINUOUS
  0
LAYER
  5
D5D
330
BE3
100
AcDbSymbolTableRecord
100
AcDbLayerTableRecord
  2
Shape3791
 70
    0
 62
    7
  6
CONTINUOUS
  0
LAYER
  5
D5E
330
BE3
100
AcDbSymbolTableRecord
100
AcDbLayerTableRecord
  2
Shape3792
 70
    0
 62
    7
  6
CONTINUOUS
  0
LAYER
  5
D5F
330
BE3
100
AcDbSymbolTableRecord
100
AcDbLayerTableRecord
  2
Shape3793
 70
    0
 62
    7
  6
CONTINUOUS
  0
LAYER
  5
D60
330
BE3
100
AcDbSymbolTableRecord
100
AcDbLayerTableRecord
  2
Shape3794
 70
    0
 62
    7
  6
CONTINUOUS
  0
LAYER
  5
D61
330
BE3
100
AcDbSymbolTableRecord
100
AcDbLayerTableRecord
  2
Shape3795
 70
    0
 62
    7
  6
CONTINUOUS
  0
LAYER
  5
D62
330
BE3
100
AcDbSymbolTableRecord
100
AcDbLayerTableRecord
  2
Shape3796
 70
    0
 62
    7
  6
CONTINUOUS
  0
LAYER
  5
D63
330
BE3
100
AcDbSymbolTableRecord
100
AcDbLayerTableRecord
  2
Shape3797
 70
    0
 62
    7
  6
CONTINUOUS
  0
LAYER
  5
D64
330
BE3
100
AcDbSymbolTableRecord
100
AcDbLayerTableRecord
  2
Shape3798
 70
    0
 62
    7
  6
CONTINUOUS
  0
LAYER
  5
D65
330
BE3
100
AcDbSymbolTableRecord
100
AcDbLayerTableRecord
  2
Shape3799
 70
    0
 62
    7
  6
CONTINUOUS
  0
LAYER
  5
D66
330
BE3
100
AcDbSymbolTableRecord
100
AcDbLayerTableRecord
  2
Shape3800
 70
    0
 62
    7
  6
CONTINUOUS
  0
LAYER
  5
D67
330
BE3
100
AcDbSymbolTableRecord
100
AcDbLayerTableRecord
  2
Shape3801
 70
    0
 62
    7
  6
CONTINUOUS
  0
LAYER
  5
D68
330
BE3
100
AcDbSymbolTableRecord
100
AcDbLayerTableRecord
  2
Shape3802
 70
    0
 62
    7
  6
CONTINUOUS
  0
LAYER
  5
D69
330
BE3
100
AcDbSymbolTableRecord
100
AcDbLayerTableRecord
  2
Shape3803
 70
    0
 62
    7
  6
CONTINUOUS
  0
LAYER
  5
D6A
330
BE3
100
AcDbSymbolTableRecord
100
AcDbLayerTableRecord
  2
Shape3804
 70
    0
 62
    7
  6
CONTINUOUS
  0
LAYER
  5
D6B
330
BE3
100
AcDbSymbolTableRecord
100
AcDbLayerTableRecord
  2
Shape3805
 70
    0
 62
    7
  6
CONTINUOUS
  0
LAYER
  5
D6C
330
BE3
100
AcDbSymbolTableRecord
100
AcDbLayerTableRecord
  2
Shape3806
 70
    0
 62
    7
  6
CONTINUOUS
  0
LAYER
  5
D6D
330
BE3
100
AcDbSymbolTableRecord
100
AcDbLayerTableRecord
  2
Shape3807
 70
    0
 62
    7
  6
CONTINUOUS
  0
LAYER
  5
D6E
330
BE3
100
AcDbSymbolTableRecord
100
AcDbLayerTableRecord
  2
Shape3808
 70
    0
 62
    7
  6
CONTINUOUS
  0
LAYER
  5
D6F
330
BE3
100
AcDbSymbolTableRecord
100
AcDbLayerTableRecord
  2
Shape3809
 70
    0
 62
    7
  6
CONTINUOUS
  0
LAYER
  5
D70
330
BE3
100
AcDbSymbolTableRecord
100
AcDbLayerTableRecord
  2
Shape4044
 70
    0
 62
    7
  6
CONTINUOUS
  0
LAYER
  5
D71
330
BE3
100
AcDbSymbolTableRecord
100
AcDbLayerTableRecord
  2
Shape4045
 70
    0
 62
    7
  6
CONTINUOUS
  0
LAYER
  5
D72
330
BE3
100
AcDbSymbolTableRecord
100
AcDbLayerTableRecord
  2
Shape4046
 70
    0
 62
    7
  6
CONTINUOUS
  0
LAYER
  5
D73
330
BE3
100
AcDbSymbolTableRecord
100
AcDbLayerTableRecord
  2
Shape4047
 70
    0
 62
    7
  6
CONTINUOUS
  0
LAYER
  5
D74
330
BE3
100
AcDbSymbolTableRecord
100
AcDbLayerTableRecord
  2
Shape4048
 70
    0
 62
    7
  6
CONTINUOUS
  0
LAYER
  5
D75
330
BE3
100
AcDbSymbolTableRecord
100
AcDbLayerTableRecord
  2
Shape4049
 70
    0
 62
    7
  6
CONTINUOUS
  0
LAYER
  5
D76
330
BE3
100
AcDbSymbolTableRecord
100
AcDbLayerTableRecord
  2
Shape4050
 70
    0
 62
    7
  6
CONTINUOUS
  0
LAYER
  5
D77
330
BE3
100
AcDbSymbolTableRecord
100
AcDbLayerTableRecord
  2
Shape4051
 70
    0
 62
    7
  6
CONTINUOUS
  0
LAYER
  5
D78
330
BE3
100
AcDbSymbolTableRecord
100
AcDbLayerTableRecord
  2
Shape4052
 70
    0
 62
    7
  6
CONTINUOUS
  0
LAYER
  5
D79
330
BE3
100
AcDbSymbolTableRecord
100
AcDbLayerTableRecord
  2
Shape4053
 70
    0
 62
    7
  6
CONTINUOUS
  0
LAYER
  5
D7A
330
BE3
100
AcDbSymbolTableRecord
100
AcDbLayerTableRecord
  2
Shape4054
 70
    0
 62
    7
  6
CONTINUOUS
  0
LAYER
  5
D7B
330
BE3
100
AcDbSymbolTableRecord
100
AcDbLayerTableRecord
  2
Shape4055
 70
    0
 62
    7
  6
CONTINUOUS
  0
LAYER
  5
D7C
330
BE3
100
AcDbSymbolTableRecord
100
AcDbLayerTableRecord
  2
Shape4056
 70
    0
 62
    7
  6
CONTINUOUS
  0
LAYER
  5
D7D
330
BE3
100
AcDbSymbolTableRecord
100
AcDbLayerTableRecord
  2
Shape4057
 70
    0
 62
    7
  6
CONTINUOUS
  0
LAYER
  5
D7E
330
BE3
100
AcDbSymbolTableRecord
100
AcDbLayerTableRecord
  2
Shape4058
 70
    0
 62
    7
  6
CONTINUOUS
  0
LAYER
  5
D7F
330
BE3
100
AcDbSymbolTableRecord
100
AcDbLayerTableRecord
  2
Shape4059
 70
    0
 62
    7
  6
CONTINUOUS
  0
LAYER
  5
D80
330
BE3
100
AcDbSymbolTableRecord
100
AcDbLayerTableRecord
  2
Shape4060
 70
    0
 62
    7
  6
CONTINUOUS
  0
LAYER
  5
D81
330
BE3
100
AcDbSymbolTableRecord
100
AcDbLayerTableRecord
  2
Shape4061
 70
    0
 62
    7
  6
CONTINUOUS
  0
LAYER
  5
D82
330
BE3
100
AcDbSymbolTableRecord
100
AcDbLayerTableRecord
  2
Shape4062
 70
    0
 62
    7
  6
CONTINUOUS
  0
LAYER
  5
D83
330
BE3
100
AcDbSymbolTableRecord
100
AcDbLayerTableRecord
  2
Shape4063
 70
    0
 62
    7
  6
CONTINUOUS
  0
LAYER
  5
D84
330
BE3
100
AcDbSymbolTableRecord
100
AcDbLayerTableRecord
  2
Shape4064
 70
    0
 62
    7
  6
CONTINUOUS
  0
LAYER
  5
D85
330
BE3
100
AcDbSymbolTableRecord
100
AcDbLayerTableRecord
  2
Shape4065
 70
    0
 62
    7
  6
CONTINUOUS
  0
LAYER
  5
D86
330
BE3
100
AcDbSymbolTableRecord
100
AcDbLayerTableRecord
  2
Shape4066
 70
    0
 62
    7
  6
CONTINUOUS
  0
LAYER
  5
D87
330
BE3
100
AcDbSymbolTableRecord
100
AcDbLayerTableRecord
  2
Shape4067
 70
    0
 62
    7
  6
CONTINUOUS
  0
LAYER
  5
D88
330
BE3
100
AcDbSymbolTableRecord
100
AcDbLayerTableRecord
  2
Shape4068
 70
    0
 62
    7
  6
CONTINUOUS
  0
LAYER
  5
D89
330
BE3
100
AcDbSymbolTableRecord
100
AcDbLayerTableRecord
  2
Shape4069
 70
    0
 62
    7
  6
CONTINUOUS
  0
LAYER
  5
D8A
330
BE3
100
AcDbSymbolTableRecord
100
AcDbLayerTableRecord
  2
Shape4070
 70
    0
 62
    7
  6
CONTINUOUS
  0
LAYER
  5
D8B
330
BE3
100
AcDbSymbolTableRecord
100
AcDbLayerTableRecord
  2
Shape4071
 70
    0
 62
    7
  6
CONTINUOUS
  0
LAYER
  5
D8C
330
BE3
100
AcDbSymbolTableRecord
100
AcDbLayerTableRecord
  2
Shape4072
 70
    0
 62
    7
  6
CONTINUOUS
  0
LAYER
  5
D8D
330
BE3
100
AcDbSymbolTableRecord
100
AcDbLayerTableRecord
  2
Shape4073
 70
    0
 62
    7
  6
CONTINUOUS
  0
LAYER
  5
D8E
330
BE3
100
AcDbSymbolTableRecord
100
AcDbLayerTableRecord
  2
Shape4074
 70
    0
 62
    7
  6
CONTINUOUS
  0
LAYER
  5
D8F
330
BE3
100
AcDbSymbolTableRecord
100
AcDbLayerTableRecord
  2
Shape4075
 70
    0
 62
    7
  6
CONTINUOUS
  0
LAYER
  5
D90
330
BE3
100
AcDbSymbolTableRecord
100
AcDbLayerTableRecord
  2
Shape4076
 70
    0
 62
    7
  6
CONTINUOUS
  0
LAYER
  5
D91
330
BE3
100
AcDbSymbolTableRecord
100
AcDbLayerTableRecord
  2
Shape4077
 70
    0
 62
    7
  6
CONTINUOUS
  0
LAYER
  5
D92
330
BE3
100
AcDbSymbolTableRecord
100
AcDbLayerTableRecord
  2
Shape4078
 70
    0
 62
    7
  6
CONTINUOUS
  0
LAYER
  5
D93
330
BE3
100
AcDbSymbolTableRecord
100
AcDbLayerTableRecord
  2
Shape4079
 70
    0
 62
    7
  6
CONTINUOUS
  0
LAYER
  5
D94
330
BE3
100
AcDbSymbolTableRecord
100
AcDbLayerTableRecord
  2
Shape4080
 70
    0
 62
    7
  6
CONTINUOUS
  0
LAYER
  5
D95
330
BE3
100
AcDbSymbolTableRecord
100
AcDbLayerTableRecord
  2
Shape4081
 70
    0
 62
    7
  6
CONTINUOUS
  0
LAYER
  5
D96
330
BE3
100
AcDbSymbolTableRecord
100
AcDbLayerTableRecord
  2
Shape4082
 70
    0
 62
    7
  6
CONTINUOUS
  0
LAYER
  5
D97
330
BE3
100
AcDbSymbolTableRecord
100
AcDbLayerTableRecord
  2
Shape4083
 70
    0
 62
    7
  6
CONTINUOUS
  0
LAYER
  5
D98
330
BE3
100
AcDbSymbolTableRecord
100
AcDbLayerTableRecord
  2
Shape4163
 70
    0
 62
    7
  6
CONTINUOUS
  0
LAYER
  5
D99
330
BE3
100
AcDbSymbolTableRecord
100
AcDbLayerTableRecord
  2
Shape4164
 70
    0
 62
    7
  6
CONTINUOUS
  0
LAYER
  5
D9A
330
BE3
100
AcDbSymbolTableRecord
100
AcDbLayerTableRecord
  2
Shape4165
 70
    0
 62
    7
  6
CONTINUOUS
  0
LAYER
  5
D9B
330
BE3
100
AcDbSymbolTableRecord
100
AcDbLayerTableRecord
  2
Shape4166
 70
    0
 62
    7
  6
CONTINUOUS
  0
LAYER
  5
D9C
330
BE3
100
AcDbSymbolTableRecord
100
AcDbLayerTableRecord
  2
Shape4167
 70
    0
 62
    7
  6
CONTINUOUS
  0
LAYER
  5
D9D
330
BE3
100
AcDbSymbolTableRecord
100
AcDbLayerTableRecord
  2
Shape4168
 70
    0
 62
    7
  6
CONTINUOUS
  0
LAYER
  5
D9E
330
BE3
100
AcDbSymbolTableRecord
100
AcDbLayerTableRecord
  2
Shape4169
 70
    0
 62
    7
  6
CONTINUOUS
  0
LAYER
  5
D9F
330
BE3
100
AcDbSymbolTableRecord
100
AcDbLayerTableRecord
  2
Shape4170
 70
    0
 62
    7
  6
CONTINUOUS
  0
LAYER
  5
DA0
330
BE3
100
AcDbSymbolTableRecord
100
AcDbLayerTableRecord
  2
Shape4171
 70
    0
 62
    7
  6
CONTINUOUS
  0
LAYER
  5
DA1
330
BE3
100
AcDbSymbolTableRecord
100
AcDbLayerTableRecord
  2
Shape4172
 70
    0
 62
    7
  6
CONTINUOUS
  0
LAYER
  5
DA2
330
BE3
100
AcDbSymbolTableRecord
100
AcDbLayerTableRecord
  2
Shape4173
 70
    0
 62
    7
  6
CONTINUOUS
  0
LAYER
  5
DA3
330
BE3
100
AcDbSymbolTableRecord
100
AcDbLayerTableRecord
  2
Shape4174
 70
    0
 62
    7
  6
CONTINUOUS
  0
LAYER
  5
DA4
330
BE3
100
AcDbSymbolTableRecord
100
AcDbLayerTableRecord
  2
Shape4175
 70
    0
 62
    7
  6
CONTINUOUS
  0
LAYER
  5
DA5
330
BE3
100
AcDbSymbolTableRecord
100
AcDbLayerTableRecord
  2
Shape4176
 70
    0
 62
    7
  6
CONTINUOUS
  0
LAYER
  5
DA6
330
BE3
100
AcDbSymbolTableRecord
100
AcDbLayerTableRecord
  2
Shape4177
 70
    0
 62
    7
  6
CONTINUOUS
  0
LAYER
  5
DA7
330
BE3
100
AcDbSymbolTableRecord
100
AcDbLayerTableRecord
  2
Shape4178
 70
    0
 62
    7
  6
CONTINUOUS
  0
LAYER
  5
DA8
330
BE3
100
AcDbSymbolTableRecord
100
AcDbLayerTableRecord
  2
Shape4179
 70
    0
 62
    7
  6
CONTINUOUS
  0
LAYER
  5
DA9
330
BE3
100
AcDbSymbolTableRecord
100
AcDbLayerTableRecord
  2
Shape4180
 70
    0
 62
    7
  6
CONTINUOUS
  0
LAYER
  5
DAA
330
BE3
100
AcDbSymbolTableRecord
100
AcDbLayerTableRecord
  2
Shape4181
 70
    0
 62
    7
  6
CONTINUOUS
  0
LAYER
  5
DAB
330
BE3
100
AcDbSymbolTableRecord
100
AcDbLayerTableRecord
  2
Shape4182
 70
    0
 62
    7
  6
CONTINUOUS
  0
LAYER
  5
DAC
330
BE3
100
AcDbSymbolTableRecord
100
AcDbLayerTableRecord
  2
Shape4183
 70
    0
 62
    7
  6
CONTINUOUS
  0
LAYER
  5
DAD
330
BE3
100
AcDbSymbolTableRecord
100
AcDbLayerTableRecord
  2
Shape4184
 70
    0
 62
    7
  6
CONTINUOUS
  0
LAYER
  5
DAE
330
BE3
100
AcDbSymbolTableRecord
100
AcDbLayerTableRecord
  2
Shape4185
 70
    0
 62
    7
  6
CONTINUOUS
  0
LAYER
  5
DAF
330
BE3
100
AcDbSymbolTableRecord
100
AcDbLayerTableRecord
  2
Shape4186
 70
    0
 62
    7
  6
CONTINUOUS
  0
LAYER
  5
DB0
330
BE3
100
AcDbSymbolTableRecord
100
AcDbLayerTableRecord
  2
Shape4187
 70
    0
 62
    7
  6
CONTINUOUS
  0
LAYER
  5
DB1
330
BE3
100
AcDbSymbolTableRecord
100
AcDbLayerTableRecord
  2
Shape4188
 70
    0
 62
    7
  6
CONTINUOUS
  0
LAYER
  5
DB2
330
BE3
100
AcDbSymbolTableRecord
100
AcDbLayerTableRecord
  2
Shape4189
 70
    0
 62
    7
  6
CONTINUOUS
  0
LAYER
  5
DB3
330
BE3
100
AcDbSymbolTableRecord
100
AcDbLayerTableRecord
  2
Shape4190
 70
    0
 62
    7
  6
CONTINUOUS
  0
LAYER
  5
DB4
330
BE3
100
AcDbSymbolTableRecord
100
AcDbLayerTableRecord
  2
Shape4191
 70
    0
 62
    7
  6
CONTINUOUS
  0
LAYER
  5
DB5
330
BE3
100
AcDbSymbolTableRecord
100
AcDbLayerTableRecord
  2
Shape4192
 70
    0
 62
    7
  6
CONTINUOUS
  0
LAYER
  5
DB6
330
BE3
100
AcDbSymbolTableRecord
100
AcDbLayerTableRecord
  2
Shape4193
 70
    0
 62
    7
  6
CONTINUOUS
  0
LAYER
  5
DB7
330
BE3
100
AcDbSymbolTableRecord
100
AcDbLayerTableRecord
  2
Shape4194
 70
    0
 62
    7
  6
CONTINUOUS
  0
LAYER
  5
DB8
330
BE3
100
AcDbSymbolTableRecord
100
AcDbLayerTableRecord
  2
Shape4195
 70
    0
 62
    7
  6
CONTINUOUS
  0
LAYER
  5
DB9
330
BE3
100
AcDbSymbolTableRecord
100
AcDbLayerTableRecord
  2
Shape4196
 70
    0
 62
    7
  6
CONTINUOUS
  0
LAYER
  5
DBA
330
BE3
100
AcDbSymbolTableRecord
100
AcDbLayerTableRecord
  2
Shape4197
 70
    0
 62
    7
  6
CONTINUOUS
  0
LAYER
  5
DBB
330
BE3
100
AcDbSymbolTableRecord
100
AcDbLayerTableRecord
  2
Shape4198
 70
    0
 62
    7
  6
CONTINUOUS
  0
LAYER
  5
DBC
330
BE3
100
AcDbSymbolTableRecord
100
AcDbLayerTableRecord
  2
Shape4199
 70
    0
 62
    7
  6
CONTINUOUS
  0
LAYER
  5
DBD
330
BE3
100
AcDbSymbolTableRecord
100
AcDbLayerTableRecord
  2
Shape4200
 70
    0
 62
    7
  6
CONTINUOUS
  0
LAYER
  5
DBE
330
BE3
100
AcDbSymbolTableRecord
100
AcDbLayerTableRecord
  2
Shape4201
 70
    0
 62
    7
  6
CONTINUOUS
  0
LAYER
  5
DBF
330
BE3
100
AcDbSymbolTableRecord
100
AcDbLayerTableRecord
  2
Shape4202
 70
    0
 62
    7
  6
CONTINUOUS
  0
LAYER
  5
DC0
330
BE3
100
AcDbSymbolTableRecord
100
AcDbLayerTableRecord
  2
Shape12732
 70
    0
 62
    7
  6
CONTINUOUS
  0
ENDTAB
  0
TABLE
  2
STYLE
  5
70
330
0
100
AcDbSymbolTable
 70
     2
  0
STYLE
  5
71
330
70
100
AcDbSymbolTableRecord
100
AcDbTextStyleTableRecord
  2
STANDARD
 70
     0
 40
0.0
 41
1.0
 50
0.0
 71
     0
 42
2.5
  3
arial.ttf
  4

  0
STYLE
  5
72
330
70
100
AcDbSymbolTableRecord
100
AcDbTextStyleTableRecord
  2
ANNOTATIVE
 70
     0
 40
0.0
 41
1.0
 50
0.0
 71
     0
 42
2.5
  3
arial.ttf
  4

  0
ENDTAB
  0
TABLE
  2
VIEW
  5
73
330
0
100
AcDbSymbolTable
 70
     0
  0
ENDTAB
  0
TABLE
  2
UCS
  5
74
330
0
100
AcDbSymbolTable
 70
     0
  0
ENDTAB
  0
TABLE
  2
APPID
  5
75
330
0
100
AcDbSymbolTable
 70
     2
  0
APPID
  5
76
330
75
100
AcDbSymbolTableRecord
100
AcDbRegAppTableRecord
  2
ACAD
 70
     0
  0
APPID
  5
77
330
75
100
AcDbSymbolTableRecord
100
AcDbRegAppTableRecord
  2
ACADANNOTATIVE
 70
     0
  0
ENDTAB
  0
TABLE
  2
DIMSTYLE
  5
78
330
0
100
AcDbSymbolTable
 70
     2
  0
DIMSTYLE
105
79
330
78
100
AcDbSymbolTableRecord
100
AcDbDimStyleTableRecord
  2
STANDARD
 70
     0
  3

  4

  5

  6

  7

 40
0.0
 41
2.5
 42
0.625
 43
3.75
 44
1.25
 45
0.0
 46
0.0
 47
0.0
 48
0.0
140
2.5
141
2.5
142
0.0
143
0.03937007874016
144
1.0
145
0.0
146
1.0
147
0.625
 71
     0
 72
     0
 73
     0
 74
     0
 75
     0
 76
     0
 77
     1
 78
     8
170
     0
171
     3
172
     1
173
     0
174
     0
175
     0
176
     0
177
     0
178
     0
270
     2
271
     2
272
     2
273
     2
274
     3
340
71
275
     0
280
     0
281
     0
282
     0
283
     0
284
     8
285
     0
286
     0
287
     3
288
     0
  0
ENDTAB
  0
TABLE
  2
BLOCK_RECORD
  5
A01
330
0
100
AcDbSymbolTable
  70
5
  0
BLOCK_RECORD
  5
A02
330
A01
100
AcDbSymbolTableRecord
100
AcDbBlockTableRecord
  2
*MODEL_SPACE
  0
BLOCK_RECORD
  5
A03
330
A01
100
AcDbSymbolTableRecord
100
AcDbBlockTableRecord
  2
*PAPER_SPACE
  0
ENDTAB
  0
ENDSEC
  0
SECTION
  2
BLOCKS
  0
BLOCK
  5
A04
330
A02
100
AcDbEntity
  8
0
100
AcDbBlockBegin
  2
*MODEL_SPACE
 70
   0
 10
0
 20
0
 30
0
  3
*MODEL_SPACE
  1
 
  0
ENDBLK
  5
A05
330
A02
100
AcDbEntity
  8
0
100
AcDbBlockEnd
  0
BLOCK
  5
A06
330
A03
100
AcDbEntity
 67
1
  8
0
100
AcDbBlockBegin
  2
*PAPER_SPACE
 70
   0
 10
0
 20
0
 30
0
  3
*PAPER_SPACE
  1
 
  0
ENDBLK
  5
A07
330
A03
100
AcDbEntity
 67
    1
  8
0
100
AcDbBlockEnd
  0
ENDSEC
  0
SECTION
  2
ENTITIES
  0
LINE
  5
A08
330
A02
100
AcDbEntity
  8
Shape654
100
AcDbLine
 10
-149.705
 20
-5.85638
 30
0
 11
-163.705
 21
-5.85638
 31
0
  0
LINE
  5
A09
330
A02
100
AcDbEntity
  8
Shape655
100
AcDbLine
 10
-163.705
 20
-5.85638
 30
0
 11
-163.705
 21
-19.8564
 31
0
  0
LINE
  5
A0A
330
A02
100
AcDbEntity
  8
Shape656
100
AcDbLine
 10
-163.705
 20
-19.8564
 30
0
 11
-149.705
 21
-19.8564
 31
0
  0
LINE
  5
A0B
330
A02
100
AcDbEntity
  8
Shape657
100
AcDbLine
 10
-149.705
 20
-19.8564
 30
0
 11
-149.705
 21
-5.85638
 31
0
  0
LINE
  5
A0C
330
A02
100
AcDbEntity
  8
Shape658
100
AcDbLine
 10
-128.274
 20
-19.8564
 30
0
 11
-142.274
 21
-19.8564
 31
0
  0
LINE
  5
A0D
330
A02
100
AcDbEntity
  8
Shape659
100
AcDbLine
 10
-142.274
 20
-19.8564
 30
0
 11
-142.274
 21
-5.85638
 31
0
  0
LINE
  5
A0E
330
A02
100
AcDbEntity
  8
Shape660
100
AcDbLine
 10
-142.274
 20
-5.85638
 30
0
 11
-128.274
 21
-5.85638
 31
0
  0
LINE
  5
A0F
330
A02
100
AcDbEntity
  8
Shape661
100
AcDbLine
 10
-128.274
 20
-5.85638
 30
0
 11
-128.274
 21
-19.8564
 31
0
  0
LINE
  5
A10
330
A02
100
AcDbEntity
  8
Shape662
100
AcDbLine
 10
-106.842
 20
-19.8564
 30
0
 11
-120.842
 21
-19.8564
 31
0
  0
LINE
  5
A11
330
A02
100
AcDbEntity
  8
Shape663
100
AcDbLine
 10
-120.842
 20
-19.8564
 30
0
 11
-120.842
 21
-5.85638
 31
0
  0
LINE
  5
A12
330
A02
100
AcDbEntity
  8
Shape664
100
AcDbLine
 10
-120.842
 20
-5.85638
 30
0
 11
-106.842
 21
-5.85638
 31
0
  0
LINE
  5
A13
330
A02
100
AcDbEntity
  8
Shape665
100
AcDbLine
 10
-106.842
 20
-5.85638
 30
0
 11
-106.842
 21
-19.8564
 31
0
  0
LINE
  5
A14
330
A02
100
AcDbEntity
  8
Shape666
100
AcDbLine
 10
31.2702
 20
-19.8564
 30
0
 11
17.2702
 21
-19.8564
 31
0
  0
LINE
  5
A15
330
A02
100
AcDbEntity
  8
Shape667
100
AcDbLine
 10
17.2702
 20
-19.8564
 30
0
 11
17.2702
 21
-5.85638
 31
0
  0
LINE
  5
A16
330
A02
100
AcDbEntity
  8
Shape668
100
AcDbLine
 10
17.2702
 20
-5.85638
 30
0
 11
31.2702
 21
-5.85638
 31
0
  0
LINE
  5
A17
330
A02
100
AcDbEntity
  8
Shape669
100
AcDbLine
 10
31.2702
 20
-5.85638
 30
0
 11
31.2702
 21
-19.8564
 31
0
  0
LINE
  5
A18
330
A02
100
AcDbEntity
  8
Shape670
100
AcDbLine
 10
52.7014
 20
-19.8564
 30
0
 11
38.7014
 21
-19.8564
 31
0
  0
LINE
  5
A19
330
A02
100
AcDbEntity
  8
Shape671
100
AcDbLine
 10
38.7014
 20
-19.8564
 30
0
 11
38.7014
 21
-5.85638
 31
0
  0
LINE
  5
A1A
330
A02
100
AcDbEntity
  8
Shape672
100
AcDbLine
 10
38.7014
 20
-5.85638
 30
0
 11
52.7014
 21
-5.85638
 31
0
  0
LINE
  5
A1B
330
A02
100
AcDbEntity
  8
Shape673
100
AcDbLine
 10
52.7014
 20
-5.85638
 30
0
 11
52.7014
 21
-19.8564
 31
0
  0
LINE
  5
A1C
330
A02
100
AcDbEntity
  8
Shape674
100
AcDbLine
 10
74.1327
 20
-19.8564
 30
0
 11
60.1327
 21
-19.8564
 31
0
  0
LINE
  5
A1D
330
A02
100
AcDbEntity
  8
Shape675
100
AcDbLine
 10
60.1327
 20
-19.8564
 30
0
 11
60.1327
 21
-5.85638
 31
0
  0
LINE
  5
A1E
330
A02
100
AcDbEntity
  8
Shape676
100
AcDbLine
 10
60.1327
 20
-5.85638
 30
0
 11
74.1327
 21
-5.85638
 31
0
  0
LINE
  5
A1F
330
A02
100
AcDbEntity
  8
Shape677
100
AcDbLine
 10
74.1327
 20
-5.85638
 30
0
 11
74.1327
 21
-19.8564
 31
0
  0
LINE
  5
A20
330
A02
100
AcDbEntity
  8
Shape702
100
AcDbLine
 10
71.8022
 20
51.3936
 30
0
 11
71.8022
 21
37.2936
 31
0
  0
LINE
  5
A21
330
A02
100
AcDbEntity
  8
Shape703
100
AcDbLine
 10
71.8022
 20
37.2936
 30
0
 11
57.7022
 21
37.2936
 31
0
  0
LINE
  5
A22
330
A02
100
AcDbEntity
  8
Shape704
100
AcDbLine
 10
57.7022
 20
37.2936
 30
0
 11
57.7022
 21
51.3936
 31
0
  0
LINE
  5
A23
330
A02
100
AcDbEntity
  8
Shape705
100
AcDbLine
 10
57.7022
 20
51.3936
 30
0
 11
71.8022
 21
51.3936
 31
0
  0
LINE
  5
A24
330
A02
100
AcDbEntity
  8
Shape706
100
AcDbLine
 10
-163.754
 20
32.3436
 30
0
 11
-144.891
 21
32.3436
 31
0
  0
LINE
  5
A25
330
A02
100
AcDbEntity
  8
Shape707
100
AcDbLine
 10
-144.891
 20
32.3436
 30
0
 11
-144.891
 21
18.2436
 31
0
  0
LINE
  5
A26
330
A02
100
AcDbEntity
  8
Shape708
100
AcDbLine
 10
-144.891
 20
18.2436
 30
0
 11
-163.754
 21
18.2436
 31
0
  0
LINE
  5
A27
330
A02
100
AcDbEntity
  8
Shape709
100
AcDbLine
 10
-163.754
 20
18.2436
 30
0
 11
-163.754
 21
22.0754
 31
0
  0
LINE
  5
A28
330
A02
100
AcDbEntity
  8
Shape710
100
AcDbLine
 10
-163.754
 20
22.0754
 30
0
 11
-165.792
 21
22.0754
 31
0
  0
LINE
  5
A29
330
A02
100
AcDbEntity
  8
Shape711
100
AcDbLine
 10
-165.792
 20
22.0754
 30
0
 11
-165.792
 21
23.9754
 31
0
  0
LINE
  5
A2A
330
A02
100
AcDbEntity
  8
Shape712
100
AcDbLine
 10
-165.792
 20
23.9754
 30
0
 11
-163.754
 21
23.9754
 31
0
  0
LINE
  5
A2B
330
A02
100
AcDbEntity
  8
Shape713
100
AcDbLine
 10
-163.754
 20
23.9754
 30
0
 11
-163.754
 21
32.3436
 31
0
  0
LINE
  5
A2C
330
A02
100
AcDbEntity
  8
Shape714
100
AcDbLine
 10
-99.4598
 20
37.2936
 30
0
 11
-99.4598
 21
51.3936
 31
0
  0
LINE
  5
A2D
330
A02
100
AcDbEntity
  8
Shape715
100
AcDbLine
 10
-99.4598
 20
51.3936
 30
0
 11
-85.3598
 21
51.3936
 31
0
  0
LINE
  5
A2E
330
A02
100
AcDbEntity
  8
Shape716
100
AcDbLine
 10
-85.3598
 20
51.3936
 30
0
 11
-85.3598
 21
37.2936
 31
0
  0
LINE
  5
A2F
330
A02
100
AcDbEntity
  8
Shape717
100
AcDbLine
 10
-85.3598
 20
37.2936
 30
0
 11
-99.4598
 21
37.2936
 31
0
  0
LINE
  5
A30
330
A02
100
AcDbEntity
  8
Shape718
100
AcDbLine
 10
55.3212
 20
-0.80638
 30
0
 11
55.3212
 21
13.2936
 31
0
  0
LINE
  5
A31
330
A02
100
AcDbEntity
  8
Shape719
100
AcDbLine
 10
55.3212
 20
13.2936
 30
0
 11
69.4212
 21
13.2936
 31
0
  0
LINE
  5
A32
330
A02
100
AcDbEntity
  8
Shape720
100
AcDbLine
 10
69.4212
 20
13.2936
 30
0
 11
69.4212
 21
-0.80638
 31
0
  0
LINE
  5
A33
330
A02
100
AcDbEntity
  8
Shape721
100
AcDbLine
 10
69.4212
 20
-0.80638
 30
0
 11
55.3212
 21
-0.80638
 31
0
  0
LINE
  5
A34
330
A02
100
AcDbEntity
  8
Shape722
100
AcDbLine
 10
29.1272
 20
-0.80638
 30
0
 11
29.1272
 21
13.2936
 31
0
  0
LINE
  5
A35
330
A02
100
AcDbEntity
  8
Shape723
100
AcDbLine
 10
29.1272
 20
13.2936
 30
0
 11
43.2272
 21
13.2936
 31
0
  0
LINE
  5
A36
330
A02
100
AcDbEntity
  8
Shape724
100
AcDbLine
 10
43.2272
 20
13.2936
 30
0
 11
43.2272
 21
-0.80638
 31
0
  0
LINE
  5
A37
330
A02
100
AcDbEntity
  8
Shape725
100
AcDbLine
 10
43.2272
 20
-0.80638
 30
0
 11
29.1272
 21
-0.80638
 31
0
  0
LINE
  5
A38
330
A02
100
AcDbEntity
  8
Shape726
100
AcDbLine
 10
10.0772
 20
-0.80638
 30
0
 11
10.0772
 21
13.2936
 31
0
  0
LINE
  5
A39
330
A02
100
AcDbEntity
  8
Shape727
100
AcDbLine
 10
10.0772
 20
13.2936
 30
0
 11
24.1772
 21
13.2936
 31
0
  0
LINE
  5
A3A
330
A02
100
AcDbEntity
  8
Shape728
100
AcDbLine
 10
24.1772
 20
13.2936
 30
0
 11
24.1772
 21
-0.80638
 31
0
  0
LINE
  5
A3B
330
A02
100
AcDbEntity
  8
Shape729
100
AcDbLine
 10
24.1772
 20
-0.80638
 30
0
 11
10.0772
 21
-0.80638
 31
0
  0
LINE
  5
A3C
330
A02
100
AcDbEntity
  8
Shape730
100
AcDbLine
 10
-8.97282
 20
-0.80638
 30
0
 11
-8.97282
 21
13.2936
 31
0
  0
LINE
  5
A3D
330
A02
100
AcDbEntity
  8
Shape731
100
AcDbLine
 10
-8.97282
 20
13.2936
 30
0
 11
5.12718
 21
13.2936
 31
0
  0
LINE
  5
A3E
330
A02
100
AcDbEntity
  8
Shape732
100
AcDbLine
 10
5.12718
 20
13.2936
 30
0
 11
5.12718
 21
-0.80638
 31
0
  0
LINE
  5
A3F
330
A02
100
AcDbEntity
  8
Shape733
100
AcDbLine
 10
5.12718
 20
-0.80638
 30
0
 11
-8.97282
 21
-0.80638
 31
0
  0
LINE
  5
A40
330
A02
100
AcDbEntity
  8
Shape734
100
AcDbLine
 10
-28.0228
 20
-0.80638
 30
0
 11
-28.0228
 21
13.2936
 31
0
  0
LINE
  5
A41
330
A02
100
AcDbEntity
  8
Shape735
100
AcDbLine
 10
-28.0228
 20
13.2936
 30
0
 11
-13.9228
 21
13.2936
 31
0
  0
LINE
  5
A42
330
A02
100
AcDbEntity
  8
Shape736
100
AcDbLine
 10
-13.9228
 20
13.2936
 30
0
 11
-13.9228
 21
-0.80638
 31
0
  0
LINE
  5
A43
330
A02
100
AcDbEntity
  8
Shape737
100
AcDbLine
 10
-13.9228
 20
-0.80638
 30
0
 11
-28.0228
 21
-0.80638
 31
0
  0
LINE
  5
A44
330
A02
100
AcDbEntity
  8
Shape738
100
AcDbLine
 10
-47.0728
 20
-0.80638
 30
0
 11
-47.0728
 21
13.2936
 31
0
  0
LINE
  5
A45
330
A02
100
AcDbEntity
  8
Shape739
100
AcDbLine
 10
-47.0728
 20
13.2936
 30
0
 11
-32.9728
 21
13.2936
 31
0
  0
LINE
  5
A46
330
A02
100
AcDbEntity
  8
Shape740
100
AcDbLine
 10
-32.9728
 20
13.2936
 30
0
 11
-32.9728
 21
-0.80638
 31
0
  0
LINE
  5
A47
330
A02
100
AcDbEntity
  8
Shape741
100
AcDbLine
 10
-32.9728
 20
-0.80638
 30
0
 11
-47.0728
 21
-0.80638
 31
0
  0
LINE
  5
A48
330
A02
100
AcDbEntity
  8
Shape742
100
AcDbLine
 10
-66.1228
 20
-0.80638
 30
0
 11
-66.1228
 21
13.2936
 31
0
  0
LINE
  5
A49
330
A02
100
AcDbEntity
  8
Shape743
100
AcDbLine
 10
-66.1228
 20
13.2936
 30
0
 11
-52.0228
 21
13.2936
 31
0
  0
LINE
  5
A4A
330
A02
100
AcDbEntity
  8
Shape744
100
AcDbLine
 10
-52.0228
 20
13.2936
 30
0
 11
-52.0228
 21
-0.80638
 31
0
  0
LINE
  5
A4B
330
A02
100
AcDbEntity
  8
Shape745
100
AcDbLine
 10
-52.0228
 20
-0.80638
 30
0
 11
-66.1228
 21
-0.80638
 31
0
  0
LINE
  5
A4C
330
A02
100
AcDbEntity
  8
Shape746
100
AcDbLine
 10
-85.1728
 20
-0.80638
 30
0
 11
-85.1728
 21
13.2936
 31
0
  0
LINE
  5
A4D
330
A02
100
AcDbEntity
  8
Shape747
100
AcDbLine
 10
-85.1728
 20
13.2936
 30
0
 11
-71.0728
 21
13.2936
 31
0
  0
LINE
  5
A4E
330
A02
100
AcDbEntity
  8
Shape748
100
AcDbLine
 10
-71.0728
 20
13.2936
 30
0
 11
-71.0728
 21
-0.80638
 31
0
  0
LINE
  5
A4F
330
A02
100
AcDbEntity
  8
Shape749
100
AcDbLine
 10
-71.0728
 20
-0.80638
 30
0
 11
-85.1728
 21
-0.80638
 31
0
  0
LINE
  5
A50
330
A02
100
AcDbEntity
  8
Shape750
100
AcDbLine
 10
-104.222
 20
-0.80638
 30
0
 11
-104.222
 21
13.2936
 31
0
  0
LINE
  5
A51
330
A02
100
AcDbEntity
  8
Shape751
100
AcDbLine
 10
-104.222
 20
13.2936
 30
0
 11
-90.1223
 21
13.2936
 31
0
  0
LINE
  5
A52
330
A02
100
AcDbEntity
  8
Shape752
100
AcDbLine
 10
-90.1223
 20
13.2936
 30
0
 11
-90.1223
 21
-0.80638
 31
0
  0
LINE
  5
A53
330
A02
100
AcDbEntity
  8
Shape753
100
AcDbLine
 10
-90.1223
 20
-0.80638
 30
0
 11
-104.222
 21
-0.80638
 31
0
  0
LINE
  5
A54
330
A02
100
AcDbEntity
  8
Shape754
100
AcDbLine
 10
-123.272
 20
-0.80638
 30
0
 11
-123.272
 21
13.2936
 31
0
  0
LINE
  5
A55
330
A02
100
AcDbEntity
  8
Shape755
100
AcDbLine
 10
-123.272
 20
13.2936
 30
0
 11
-109.172
 21
13.2936
 31
0
  0
LINE
  5
A56
330
A02
100
AcDbEntity
  8
Shape756
100
AcDbLine
 10
-109.172
 20
13.2936
 30
0
 11
-109.172
 21
-0.80638
 31
0
  0
LINE
  5
A57
330
A02
100
AcDbEntity
  8
Shape757
100
AcDbLine
 10
-109.172
 20
-0.80638
 30
0
 11
-123.272
 21
-0.80638
 31
0
  0
LINE
  5
A58
330
A02
100
AcDbEntity
  8
Shape758
100
AcDbLine
 10
33.8902
 20
37.2936
 30
0
 11
33.8902
 21
51.3936
 31
0
  0
LINE
  5
A59
330
A02
100
AcDbEntity
  8
Shape759
100
AcDbLine
 10
33.8902
 20
51.3936
 30
0
 11
47.9902
 21
51.3936
 31
0
  0
LINE
  5
A5A
330
A02
100
AcDbEntity
  8
Shape760
100
AcDbLine
 10
47.9902
 20
51.3936
 30
0
 11
47.9902
 21
37.2936
 31
0
  0
LINE
  5
A5B
330
A02
100
AcDbEntity
  8
Shape761
100
AcDbLine
 10
47.9902
 20
37.2936
 30
0
 11
33.8902
 21
37.2936
 31
0
  0
LINE
  5
A5C
330
A02
100
AcDbEntity
  8
Shape762
100
AcDbLine
 10
14.8402
 20
37.2936
 30
0
 11
14.8402
 21
51.3936
 31
0
  0
LINE
  5
A5D
330
A02
100
AcDbEntity
  8
Shape763
100
AcDbLine
 10
14.8402
 20
51.3936
 30
0
 11
28.9402
 21
51.3936
 31
0
  0
LINE
  5
A5E
330
A02
100
AcDbEntity
  8
Shape764
100
AcDbLine
 10
28.9402
 20
51.3936
 30
0
 11
28.9402
 21
37.2936
 31
0
  0
LINE
  5
A5F
330
A02
100
AcDbEntity
  8
Shape765
100
AcDbLine
 10
28.9402
 20
37.2936
 30
0
 11
14.8402
 21
37.2936
 31
0
  0
LINE
  5
A60
330
A02
100
AcDbEntity
  8
Shape766
100
AcDbLine
 10
-4.20982
 20
37.2936
 30
0
 11
-4.20982
 21
51.3936
 31
0
  0
LINE
  5
A61
330
A02
100
AcDbEntity
  8
Shape767
100
AcDbLine
 10
-4.20982
 20
51.3936
 30
0
 11
9.89018
 21
51.3936
 31
0
  0
LINE
  5
A62
330
A02
100
AcDbEntity
  8
Shape768
100
AcDbLine
 10
9.89018
 20
51.3936
 30
0
 11
9.89018
 21
37.2936
 31
0
  0
LINE
  5
A63
330
A02
100
AcDbEntity
  8
Shape769
100
AcDbLine
 10
9.89018
 20
37.2936
 30
0
 11
-4.20982
 21
37.2936
 31
0
  0
LINE
  5
A64
330
A02
100
AcDbEntity
  8
Shape770
100
AcDbLine
 10
-23.2598
 20
37.2936
 30
0
 11
-23.2598
 21
51.3936
 31
0
  0
LINE
  5
A65
330
A02
100
AcDbEntity
  8
Shape771
100
AcDbLine
 10
-23.2598
 20
51.3936
 30
0
 11
-9.15982
 21
51.3936
 31
0
  0
LINE
  5
A66
330
A02
100
AcDbEntity
  8
Shape772
100
AcDbLine
 10
-9.15982
 20
51.3936
 30
0
 11
-9.15982
 21
37.2936
 31
0
  0
LINE
  5
A67
330
A02
100
AcDbEntity
  8
Shape773
100
AcDbLine
 10
-9.15982
 20
37.2936
 30
0
 11
-23.2598
 21
37.2936
 31
0
  0
LINE
  5
A68
330
A02
100
AcDbEntity
  8
Shape774
100
AcDbLine
 10
-42.3098
 20
37.2936
 30
0
 11
-42.3098
 21
51.3936
 31
0
  0
LINE
  5
A69
330
A02
100
AcDbEntity
  8
Shape775
100
AcDbLine
 10
-42.3098
 20
51.3936
 30
0
 11
-28.2098
 21
51.3936
 31
0
  0
LINE
  5
A6A
330
A02
100
AcDbEntity
  8
Shape776
100
AcDbLine
 10
-28.2098
 20
51.3936
 30
0
 11
-28.2098
 21
37.2936
 31
0
  0
LINE
  5
A6B
330
A02
100
AcDbEntity
  8
Shape777
100
AcDbLine
 10
-28.2098
 20
37.2936
 30
0
 11
-42.3098
 21
37.2936
 31
0
  0
LINE
  5
A6C
330
A02
100
AcDbEntity
  8
Shape778
100
AcDbLine
 10
-61.3598
 20
37.2936
 30
0
 11
-61.3598
 21
51.3936
 31
0
  0
LINE
  5
A6D
330
A02
100
AcDbEntity
  8
Shape779
100
AcDbLine
 10
-61.3598
 20
51.3936
 30
0
 11
-47.2598
 21
51.3936
 31
0
  0
LINE
  5
A6E
330
A02
100
AcDbEntity
  8
Shape780
100
AcDbLine
 10
-47.2598
 20
51.3936
 30
0
 11
-47.2598
 21
37.2936
 31
0
  0
LINE
  5
A6F
330
A02
100
AcDbEntity
  8
Shape781
100
AcDbLine
 10
-47.2598
 20
37.2936
 30
0
 11
-61.3598
 21
37.2936
 31
0
  0
LINE
  5
A70
330
A02
100
AcDbEntity
  8
Shape782
100
AcDbLine
 10
-80.4098
 20
37.2936
 30
0
 11
-80.4098
 21
51.3936
 31
0
  0
LINE
  5
A71
330
A02
100
AcDbEntity
  8
Shape783
100
AcDbLine
 10
-80.4098
 20
51.3936
 30
0
 11
-66.3098
 21
51.3936
 31
0
  0
LINE
  5
A72
330
A02
100
AcDbEntity
  8
Shape784
100
AcDbLine
 10
-66.3098
 20
51.3936
 30
0
 11
-66.3098
 21
37.2936
 31
0
  0
LINE
  5
A73
330
A02
100
AcDbEntity
  8
Shape785
100
AcDbLine
 10
-66.3098
 20
37.2936
 30
0
 11
-80.4098
 21
37.2936
 31
0
  0
LINE
  5
A74
330
A02
100
AcDbEntity
  8
Shape786
100
AcDbLine
 10
-118.51
 20
37.2936
 30
0
 11
-118.51
 21
51.3936
 31
0
  0
LINE
  5
A75
330
A02
100
AcDbEntity
  8
Shape787
100
AcDbLine
 10
-118.51
 20
51.3936
 30
0
 11
-104.41
 21
51.3936
 31
0
  0
LINE
  5
A76
330
A02
100
AcDbEntity
  8
Shape788
100
AcDbLine
 10
-104.41
 20
51.3936
 30
0
 11
-104.41
 21
37.2936
 31
0
  0
LINE
  5
A77
330
A02
100
AcDbEntity
  8
Shape789
100
AcDbLine
 10
-104.41
 20
37.2936
 30
0
 11
-118.51
 21
37.2936
 31
0
  0
LINE
  5
A78
330
A02
100
AcDbEntity
  8
Shape790
100
AcDbLine
 10
-137.56
 20
37.2936
 30
0
 11
-137.56
 21
51.3936
 31
0
  0
LINE
  5
A79
330
A02
100
AcDbEntity
  8
Shape791
100
AcDbLine
 10
-137.56
 20
51.3936
 30
0
 11
-123.46
 21
51.3936
 31
0
  0
LINE
  5
A7A
330
A02
100
AcDbEntity
  8
Shape792
100
AcDbLine
 10
-123.46
 20
51.3936
 30
0
 11
-123.46
 21
37.2936
 31
0
  0
LINE
  5
A7B
330
A02
100
AcDbEntity
  8
Shape793
100
AcDbLine
 10
-123.46
 20
37.2936
 30
0
 11
-137.56
 21
37.2936
 31
0
  0
LINE
  5
A7C
330
A02
100
AcDbEntity
  8
Shape794
100
AcDbLine
 10
-161.372
 20
37.2936
 30
0
 11
-161.372
 21
51.3936
 31
0
  0
LINE
  5
A7D
330
A02
100
AcDbEntity
  8
Shape795
100
AcDbLine
 10
-161.372
 20
51.3936
 30
0
 11
-147.272
 21
51.3936
 31
0
  0
LINE
  5
A7E
330
A02
100
AcDbEntity
  8
Shape796
100
AcDbLine
 10
-147.272
 20
51.3936
 30
0
 11
-147.272
 21
37.2936
 31
0
  0
LINE
  5
A7F
330
A02
100
AcDbEntity
  8
Shape797
100
AcDbLine
 10
-147.272
 20
37.2936
 30
0
 11
-161.372
 21
37.2936
 31
0
  0
LINE
  5
A80
330
A02
100
AcDbEntity
  8
Shape798
100
AcDbLine
 10
-132.797
 20
32.3436
 30
0
 11
-118.697
 21
32.3436
 31
0
  0
LINE
  5
A81
330
A02
100
AcDbEntity
  8
Shape799
100
AcDbLine
 10
-118.697
 20
32.3436
 30
0
 11
-118.697
 21
18.2436
 31
0
  0
LINE
  5
A82
330
A02
100
AcDbEntity
  8
Shape800
100
AcDbLine
 10
-118.697
 20
18.2436
 30
0
 11
-132.797
 21
18.2436
 31
0
  0
LINE
  5
A83
330
A02
100
AcDbEntity
  8
Shape801
100
AcDbLine
 10
-132.797
 20
18.2436
 30
0
 11
-132.797
 21
32.3436
 31
0
  0
LINE
  5
A84
330
A02
100
AcDbEntity
  8
Shape802
100
AcDbLine
 10
-113.747
 20
32.3436
 30
0
 11
-99.6473
 21
32.3436
 31
0
  0
LINE
  5
A85
330
A02
100
AcDbEntity
  8
Shape803
100
AcDbLine
 10
-99.6473
 20
32.3436
 30
0
 11
-99.6473
 21
18.2436
 31
0
  0
LINE
  5
A86
330
A02
100
AcDbEntity
  8
Shape804
100
AcDbLine
 10
-99.6473
 20
18.2436
 30
0
 11
-113.747
 21
18.2436
 31
0
  0
LINE
  5
A87
330
A02
100
AcDbEntity
  8
Shape805
100
AcDbLine
 10
-113.747
 20
18.2436
 30
0
 11
-113.747
 21
32.3436
 31
0
  0
LINE
  5
A88
330
A02
100
AcDbEntity
  8
Shape806
100
AcDbLine
 10
-94.6973
 20
32.3436
 30
0
 11
-80.5978
 21
32.3436
 31
0
  0
LINE
  5
A89
330
A02
100
AcDbEntity
  8
Shape807
100
AcDbLine
 10
-80.5978
 20
32.3436
 30
0
 11
-80.5978
 21
18.2436
 31
0
  0
LINE
  5
A8A
330
A02
100
AcDbEntity
  8
Shape808
100
AcDbLine
 10
-80.5978
 20
18.2436
 30
0
 11
-94.6973
 21
18.2436
 31
0
  0
LINE
  5
A8B
330
A02
100
AcDbEntity
  8
Shape809
100
AcDbLine
 10
-94.6973
 20
18.2436
 30
0
 11
-94.6973
 21
32.3436
 31
0
  0
LINE
  5
A8C
330
A02
100
AcDbEntity
  8
Shape810
100
AcDbLine
 10
-75.6478
 20
18.2436
 30
0
 11
-75.6478
 21
32.3436
 31
0
  0
LINE
  5
A8D
330
A02
100
AcDbEntity
  8
Shape811
100
AcDbLine
 10
-75.6478
 20
32.3436
 30
0
 11
-61.5478
 21
32.3436
 31
0
  0
LINE
  5
A8E
330
A02
100
AcDbEntity
  8
Shape812
100
AcDbLine
 10
-61.5478
 20
32.3436
 30
0
 11
-61.5478
 21
18.2436
 31
0
  0
LINE
  5
A8F
330
A02
100
AcDbEntity
  8
Shape813
100
AcDbLine
 10
-61.5478
 20
18.2436
 30
0
 11
-75.6478
 21
18.2436
 31
0
  0
LINE
  5
A90
330
A02
100
AcDbEntity
  8
Shape814
100
AcDbLine
 10
-56.5978
 20
32.3436
 30
0
 11
-42.4968
 21
32.3436
 31
0
  0
LINE
  5
A91
330
A02
100
AcDbEntity
  8
Shape815
100
AcDbLine
 10
-42.4968
 20
32.3436
 30
0
 11
-42.4968
 21
18.2436
 31
0
  0
LINE
  5
A92
330
A02
100
AcDbEntity
  8
Shape816
100
AcDbLine
 10
-42.4968
 20
18.2436
 30
0
 11
-56.5978
 21
18.2436
 31
0
  0
LINE
  5
A93
330
A02
100
AcDbEntity
  8
Shape817
100
AcDbLine
 10
-56.5978
 20
18.2436
 30
0
 11
-56.5978
 21
32.3436
 31
0
  0
LINE
  5
A94
330
A02
100
AcDbEntity
  8
Shape818
100
AcDbLine
 10
-37.5478
 20
32.3436
 30
0
 11
-23.4478
 21
32.3436
 31
0
  0
LINE
  5
A95
330
A02
100
AcDbEntity
  8
Shape819
100
AcDbLine
 10
-23.4478
 20
32.3436
 30
0
 11
-23.4478
 21
18.2436
 31
0
  0
LINE
  5
A96
330
A02
100
AcDbEntity
  8
Shape820
100
AcDbLine
 10
-23.4478
 20
18.2436
 30
0
 11
-37.5478
 21
18.2436
 31
0
  0
LINE
  5
A97
330
A02
100
AcDbEntity
  8
Shape821
100
AcDbLine
 10
-37.5478
 20
18.2436
 30
0
 11
-37.5478
 21
32.3436
 31
0
  0
LINE
  5
A98
330
A02
100
AcDbEntity
  8
Shape822
100
AcDbLine
 10
-18.4968
 20
18.2436
 30
0
 11
-18.4968
 21
32.3436
 31
0
  0
LINE
  5
A99
330
A02
100
AcDbEntity
  8
Shape823
100
AcDbLine
 10
-18.4968
 20
32.3436
 30
0
 11
-4.39682
 21
32.3436
 31
0
  0
LINE
  5
A9A
330
A02
100
AcDbEntity
  8
Shape824
100
AcDbLine
 10
-4.39682
 20
32.3436
 30
0
 11
-4.39682
 21
18.2436
 31
0
  0
LINE
  5
A9B
330
A02
100
AcDbEntity
  8
Shape825
100
AcDbLine
 10
-4.39682
 20
18.2436
 30
0
 11
-18.4968
 21
18.2436
 31
0
  0
LINE
  5
A9C
330
A02
100
AcDbEntity
  8
Shape826
100
AcDbLine
 10
0.55218
 20
32.3436
 30
0
 11
14.6522
 21
32.3436
 31
0
  0
LINE
  5
A9D
330
A02
100
AcDbEntity
  8
Shape827
100
AcDbLine
 10
14.6522
 20
32.3436
 30
0
 11
14.6522
 21
18.2436
 31
0
  0
LINE
  5
A9E
330
A02
100
AcDbEntity
  8
Shape828
100
AcDbLine
 10
14.6522
 20
18.2436
 30
0
 11
0.55218
 21
18.2436
 31
0
  0
LINE
  5
A9F
330
A02
100
AcDbEntity
  8
Shape829
100
AcDbLine
 10
0.55218
 20
18.2436
 30
0
 11
0.55218
 21
32.3436
 31
0
  0
LINE
  5
AA0
330
A02
100
AcDbEntity
  8
Shape830
100
AcDbLine
 10
19.6032
 20
18.2436
 30
0
 11
19.6032
 21
32.3436
 31
0
  0
LINE
  5
AA1
330
A02
100
AcDbEntity
  8
Shape831
100
AcDbLine
 10
19.6032
 20
32.3436
 30
0
 11
33.7022
 21
32.3436
 31
0
  0
LINE
  5
AA2
330
A02
100
AcDbEntity
  8
Shape832
100
AcDbLine
 10
33.7022
 20
32.3436
 30
0
 11
33.7022
 21
18.2436
 31
0
  0
LINE
  5
AA3
330
A02
100
AcDbEntity
  8
Shape833
100
AcDbLine
 10
33.7022
 20
18.2436
 30
0
 11
19.6032
 21
18.2436
 31
0
  0
ARC
  5
AA4
330
A02
100
AcDbEntity
  8
Shape1898
100
AcDbCircle
 10
-23.7848
 20
56.2177
 30
0
 40
1
100
AcDbArc
 50
-90
 51
0
  0
LINE
  5
AA5
330
A02
100
AcDbEntity
  8
Shape1899
100
AcDbLine
 10
-23.7848
 20
55.2177
 30
0
 11
-34.2848
 21
55.2177
 31
0
  0
ARC
  5
AA6
330
A02
100
AcDbEntity
  8
Shape1900
100
AcDbCircle
 10
-34.2848
 20
54.7177
 30
0
 40
0.5
100
AcDbArc
 50
90
 51
180
  0
LINE
  5
AA7
330
A02
100
AcDbEntity
  8
Shape1901
100
AcDbLine
 10
-34.7848
 20
54.7177
 30
0
 11
-34.7848
 21
54.4686
 31
0
  0
ARC
  5
AA8
330
A02
100
AcDbEntity
  8
Shape1902
100
AcDbCircle
 10
-34.2848
 20
54.4686
 30
0
 40
0.5
100
AcDbArc
 50
180
 51
-90
  0
LINE
  5
AA9
330
A02
100
AcDbEntity
  8
Shape1903
100
AcDbLine
 10
-34.2848
 20
53.9686
 30
0
 11
34.7152
 21
53.9686
 31
0
  0
ARC
  5
AAA
330
A02
100
AcDbEntity
  8
Shape1904
100
AcDbCircle
 10
34.7152
 20
54.4686
 30
0
 40
0.5
100
AcDbArc
 50
-90
 51
0
  0
LINE
  5
AAB
330
A02
100
AcDbEntity
  8
Shape1905
100
AcDbLine
 10
35.2152
 20
54.4686
 30
0
 11
35.2152
 21
54.7177
 31
0
  0
ARC
  5
AAC
330
A02
100
AcDbEntity
  8
Shape1906
100
AcDbCircle
 10
34.7152
 20
54.7177
 30
0
 40
0.5
100
AcDbArc
 50
0
 51
90
  0
LINE
  5
AAD
330
A02
100
AcDbEntity
  8
Shape1907
100
AcDbLine
 10
34.7152
 20
55.2177
 30
0
 11
24.2152
 21
55.2177
 31
0
  0
ARC
  5
AAE
330
A02
100
AcDbEntity
  8
Shape1908
100
AcDbCircle
 10
24.2152
 20
56.2177
 30
0
 40
1
100
AcDbArc
 50
180
 51
-90
  0
LINE
  5
AAF
330
A02
100
AcDbEntity
  8
Shape1909
100
AcDbLine
 10
23.2152
 20
56.2177
 30
0
 11
23.2152
 21
57.7177
 31
0
  0
ARC
  5
AB0
330
A02
100
AcDbEntity
  8
Shape1910
100
AcDbCircle
 10
24.2152
 20
57.7177
 30
0
 40
1
100
AcDbArc
 50
90
 51
180
  0
LINE
  5
AB1
330
A02
100
AcDbEntity
  8
Shape1911
100
AcDbLine
 10
24.2152
 20
58.7177
 30
0
 11
42.2152
 21
58.7177
 31
0
  0
LINE
  5
AB2
330
A02
100
AcDbEntity
  8
Shape1912
100
AcDbLine
 10
42.2152
 20
58.7177
 30
0
 11
42.2152
 21
53.4677
 31
0
  0
ARC
  5
AB3
330
A02
100
AcDbEntity
  8
Shape1913
100
AcDbCircle
 10
42.7152
 20
53.4677
 30
0
 40
0.5
100
AcDbArc
 50
180
 51
0
  0
LINE
  5
AB4
330
A02
100
AcDbEntity
  8
Shape1914
100
AcDbLine
 10
43.2152
 20
53.4677
 30
0
 11
43.2152
 21
57.4677
 31
0
  0
ARC
  5
AB5
330
A02
100
AcDbEntity
  8
Shape1915
100
AcDbCircle
 10
45.2152
 20
57.4677
 30
0
 40
2
100
AcDbArc
 50
0
 51
180
  0
LINE
  5
AB6
330
A02
100
AcDbEntity
  8
Shape1916
100
AcDbLine
 10
47.2152
 20
57.4677
 30
0
 11
47.2152
 21
53.4677
 31
0
  0
ARC
  5
AB7
330
A02
100
AcDbEntity
  8
Shape1917
100
AcDbCircle
 10
47.7152
 20
53.4677
 30
0
 40
0.5
100
AcDbArc
 50
180
 51
0
  0
LINE
  5
AB8
330
A02
100
AcDbEntity
  8
Shape1918
100
AcDbLine
 10
48.2152
 20
53.4677
 30
0
 11
48.2152
 21
58.7177
 31
0
  0
LINE
  5
AB9
330
A02
100
AcDbEntity
  8
Shape1919
100
AcDbLine
 10
48.2152
 20
58.7177
 30
0
 11
66.2152
 21
58.7177
 31
0
  0
ARC
  5
ABA
330
A02
100
AcDbEntity
  8
Shape1920
100
AcDbCircle
 10
66.2152
 20
57.7177
 30
0
 40
1
100
AcDbArc
 50
0
 51
90
  0
LINE
  5
ABB
330
A02
100
AcDbEntity
  8
Shape1921
100
AcDbLine
 10
67.2152
 20
57.7177
 30
0
 11
67.2152
 21
56.2177
 31
0
  0
ARC
  5
ABC
330
A02
100
AcDbEntity
  8
Shape1922
100
AcDbCircle
 10
66.2152
 20
56.2177
 30
0
 40
1
100
AcDbArc
 50
-90
 51
0
  0
LINE
  5
ABD
330
A02
100
AcDbEntity
  8
Shape1923
100
AcDbLine
 10
66.2152
 20
55.2177
 30
0
 11
55.7152
 21
55.2177
 31
0
  0
ARC
  5
ABE
330
A02
100
AcDbEntity
  8
Shape1924
100
AcDbCircle
 10
55.7152
 20
54.7177
 30
0
 40
0.5
100
AcDbArc
 50
90
 51
180
  0
LINE
  5
ABF
330
A02
100
AcDbEntity
  8
Shape1925
100
AcDbLine
 10
55.2152
 20
54.7177
 30
0
 11
55.2152
 21
54.4686
 31
0
  0
ARC
  5
AC0
330
A02
100
AcDbEntity
  8
Shape1926
100
AcDbCircle
 10
55.7152
 20
54.4686
 30
0
 40
0.5
100
AcDbArc
 50
180
 51
-90
  0
LINE
  5
AC1
330
A02
100
AcDbEntity
  8
Shape1927
100
AcDbLine
 10
55.7152
 20
53.9686
 30
0
 11
77.0402
 21
53.9686
 31
0
  0
ARC
  5
AC2
330
A02
100
AcDbEntity
  8
Shape1928
100
AcDbCircle
 10
77.0402
 20
51.9686
 30
0
 40
2
100
AcDbArc
 50
0
 51
90
  0
LINE
  5
AC3
330
A02
100
AcDbEntity
  8
Shape1929
100
AcDbLine
 10
79.0402
 20
51.9686
 30
0
 11
79.0402
 21
-20.4314
 31
0
  0
ARC
  5
AC4
330
A02
100
AcDbEntity
  8
Shape1930
100
AcDbCircle
 10
77.0402
 20
-20.4314
 30
0
 40
2
100
AcDbArc
 50
-90
 51
0
  0
LINE
  5
AC5
330
A02
100
AcDbEntity
  8
Shape1931
100
AcDbLine
 10
77.0402
 20
-22.4314
 30
0
 11
55.7152
 21
-22.4314
 31
0
  0
ARC
  5
AC6
330
A02
100
AcDbEntity
  8
Shape1932
100
AcDbCircle
 10
55.7152
 20
-22.9314
 30
0
 40
0.5
100
AcDbArc
 50
90
 51
180
  0
LINE
  5
AC7
330
A02
100
AcDbEntity
  8
Shape1933
100
AcDbLine
 10
55.2152
 20
-22.9314
 30
0
 11
55.2152
 21
-23.1805
 31
0
  0
ARC
  5
AC8
330
A02
100
AcDbEntity
  8
Shape1934
100
AcDbCircle
 10
55.7152
 20
-23.1805
 30
0
 40
0.5
100
AcDbArc
 50
180
 51
-90
  0
LINE
  5
AC9
330
A02
100
AcDbEntity
  8
Shape1935
100
AcDbLine
 10
55.7152
 20
-23.6805
 30
0
 11
66.2152
 21
-23.6805
 31
0
  0
ARC
  5
ACA
330
A02
100
AcDbEntity
  8
Shape1936
100
AcDbCircle
 10
66.2152
 20
-24.6805
 30
0
 40
1
100
AcDbArc
 50
0
 51
90
  0
LINE
  5
ACB
330
A02
100
AcDbEntity
  8
Shape1937
100
AcDbLine
 10
67.2152
 20
-24.6805
 30
0
 11
67.2152
 21
-26.1805
 31
0
  0
ARC
  5
ACC
330
A02
100
AcDbEntity
  8
Shape1938
100
AcDbCircle
 10
66.2152
 20
-26.1805
 30
0
 40
1
100
AcDbArc
 50
-90
 51
0
  0
LINE
  5
ACD
330
A02
100
AcDbEntity
  8
Shape1939
100
AcDbLine
 10
66.2152
 20
-27.1805
 30
0
 11
48.2152
 21
-27.1805
 31
0
  0
LINE
  5
ACE
330
A02
100
AcDbEntity
  8
Shape1940
100
AcDbLine
 10
48.2152
 20
-27.1805
 30
0
 11
48.2152
 21
-21.9305
 31
0
  0
ARC
  5
ACF
330
A02
100
AcDbEntity
  8
Shape1941
100
AcDbCircle
 10
47.7152
 20
-21.9305
 30
0
 40
0.5
100
AcDbArc
 50
0
 51
180
  0
LINE
  5
AD0
330
A02
100
AcDbEntity
  8
Shape1942
100
AcDbLine
 10
47.2152
 20
-21.9305
 30
0
 11
47.2152
 21
-25.9305
 31
0
  0
ARC
  5
AD1
330
A02
100
AcDbEntity
  8
Shape1943
100
AcDbCircle
 10
45.2152
 20
-25.9305
 30
0
 40
2
100
AcDbArc
 50
180
 51
0
  0
LINE
  5
AD2
330
A02
100
AcDbEntity
  8
Shape1944
100
AcDbLine
 10
43.2152
 20
-25.9305
 30
0
 11
43.2152
 21
-21.9305
 31
0
  0
ARC
  5
AD3
330
A02
100
AcDbEntity
  8
Shape1945
100
AcDbCircle
 10
42.7152
 20
-21.9305
 30
0
 40
0.5
100
AcDbArc
 50
0
 51
180
  0
LINE
  5
AD4
330
A02
100
AcDbEntity
  8
Shape1946
100
AcDbLine
 10
42.2152
 20
-21.9305
 30
0
 11
42.2152
 21
-27.1805
 31
0
  0
LINE
  5
AD5
330
A02
100
AcDbEntity
  8
Shape1947
100
AcDbLine
 10
42.2152
 20
-27.1805
 30
0
 11
24.2152
 21
-27.1805
 31
0
  0
ARC
  5
AD6
330
A02
100
AcDbEntity
  8
Shape1948
100
AcDbCircle
 10
24.2152
 20
-26.1805
 30
0
 40
1
100
AcDbArc
 50
180
 51
-90
  0
LINE
  5
AD7
330
A02
100
AcDbEntity
  8
Shape1949
100
AcDbLine
 10
23.2152
 20
-26.1805
 30
0
 11
23.2152
 21
-24.6805
 31
0
  0
ARC
  5
AD8
330
A02
100
AcDbEntity
  8
Shape1950
100
AcDbCircle
 10
24.2152
 20
-24.6805
 30
0
 40
1
100
AcDbArc
 50
90
 51
180
  0
LINE
  5
AD9
330
A02
100
AcDbEntity
  8
Shape1951
100
AcDbLine
 10
24.2152
 20
-23.6805
 30
0
 11
34.7152
 21
-23.6805
 31
0
  0
ARC
  5
ADA
330
A02
100
AcDbEntity
  8
Shape1952
100
AcDbCircle
 10
34.7152
 20
-23.1805
 30
0
 40
0.5
100
AcDbArc
 50
-90
 51
0
  0
LINE
  5
ADB
330
A02
100
AcDbEntity
  8
Shape1953
100
AcDbLine
 10
35.2152
 20
-23.1805
 30
0
 11
35.2152
 21
-22.9314
 31
0
  0
ARC
  5
ADC
330
A02
100
AcDbEntity
  8
Shape1954
100
AcDbCircle
 10
34.7152
 20
-22.9314
 30
0
 40
0.5
100
AcDbArc
 50
0
 51
90
  0
LINE
  5
ADD
330
A02
100
AcDbEntity
  8
Shape1955
100
AcDbLine
 10
34.7152
 20
-22.4314
 30
0
 11
-34.2848
 21
-22.4314
 31
0
  0
ARC
  5
ADE
330
A02
100
AcDbEntity
  8
Shape1956
100
AcDbCircle
 10
-34.2848
 20
-22.9314
 30
0
 40
0.5
100
AcDbArc
 50
90
 51
180
  0
LINE
  5
ADF
330
A02
100
AcDbEntity
  8
Shape1957
100
AcDbLine
 10
-34.7848
 20
-22.9314
 30
0
 11
-34.7848
 21
-23.1805
 31
0
  0
ARC
  5
AE0
330
A02
100
AcDbEntity
  8
Shape1958
100
AcDbCircle
 10
-34.2848
 20
-23.1805
 30
0
 40
0.5
100
AcDbArc
 50
180
 51
-90
  0
LINE
  5
AE1
330
A02
100
AcDbEntity
  8
Shape1959
100
AcDbLine
 10
-34.2848
 20
-23.6805
 30
0
 11
-23.7848
 21
-23.6805
 31
0
  0
ARC
  5
AE2
330
A02
100
AcDbEntity
  8
Shape1960
100
AcDbCircle
 10
-23.7848
 20
-24.6805
 30
0
 40
1
100
AcDbArc
 50
0
 51
90
  0
LINE
  5
AE3
330
A02
100
AcDbEntity
  8
Shape1961
100
AcDbLine
 10
-22.7848
 20
-24.6805
 30
0
 11
-22.7848
 21
-26.1805
 31
0
  0
ARC
  5
AE4
330
A02
100
AcDbEntity
  8
Shape1962
100
AcDbCircle
 10
-23.7848
 20
-26.1805
 30
0
 40
1
100
AcDbArc
 50
-90
 51
0
  0
LINE
  5
AE5
330
A02
100
AcDbEntity
  8
Shape1963
100
AcDbLine
 10
-23.7848
 20
-27.1805
 30
0
 11
-41.7848
 21
-27.1805
 31
0
  0
LINE
  5
AE6
330
A02
100
AcDbEntity
  8
Shape1964
100
AcDbLine
 10
-41.7848
 20
-27.1805
 30
0
 11
-41.7848
 21
-21.9305
 31
0
  0
ARC
  5
AE7
330
A02
100
AcDbEntity
  8
Shape1965
100
AcDbCircle
 10
-42.2848
 20
-21.9305
 30
0
 40
0.5
100
AcDbArc
 50
0
 51
180
  0
LINE
  5
AE8
330
A02
100
AcDbEntity
  8
Shape1966
100
AcDbLine
 10
-42.7848
 20
-21.9305
 30
0
 11
-42.7848
 21
-25.9305
 31
0
  0
ARC
  5
AE9
330
A02
100
AcDbEntity
  8
Shape1967
100
AcDbCircle
 10
-44.7848
 20
-25.9305
 30
0
 40
2
100
AcDbArc
 50
180
 51
0
  0
LINE
  5
AEA
330
A02
100
AcDbEntity
  8
Shape1968
100
AcDbLine
 10
-46.7848
 20
-25.9305
 30
0
 11
-46.7848
 21
-21.9305
 31
0
  0
ARC
  5
AEB
330
A02
100
AcDbEntity
  8
Shape1969
100
AcDbCircle
 10
-47.2848
 20
-21.9305
 30
0
 40
0.5
100
AcDbArc
 50
0
 51
180
  0
LINE
  5
AEC
330
A02
100
AcDbEntity
  8
Shape1970
100
AcDbLine
 10
-47.7848
 20
-21.9305
 30
0
 11
-47.7848
 21
-27.1805
 31
0
  0
LINE
  5
AED
330
A02
100
AcDbEntity
  8
Shape1971
100
AcDbLine
 10
-47.7848
 20
-27.1805
 30
0
 11
-65.7848
 21
-27.1805
 31
0
  0
ARC
  5
AEE
330
A02
100
AcDbEntity
  8
Shape1972
100
AcDbCircle
 10
-65.7848
 20
-26.1805
 30
0
 40
1
100
AcDbArc
 50
180
 51
-90
  0
LINE
  5
AEF
330
A02
100
AcDbEntity
  8
Shape1973
100
AcDbLine
 10
-66.7848
 20
-26.1805
 30
0
 11
-66.7848
 21
-24.6805
 31
0
  0
ARC
  5
AF0
330
A02
100
AcDbEntity
  8
Shape1974
100
AcDbCircle
 10
-65.7848
 20
-24.6805
 30
0
 40
1
100
AcDbArc
 50
90
 51
180
  0
LINE
  5
AF1
330
A02
100
AcDbEntity
  8
Shape1975
100
AcDbLine
 10
-65.7848
 20
-23.6805
 30
0
 11
-55.2848
 21
-23.6805
 31
0
  0
ARC
  5
AF2
330
A02
100
AcDbEntity
  8
Shape1976
100
AcDbCircle
 10
-55.2848
 20
-23.1805
 30
0
 40
0.5
100
AcDbArc
 50
-90
 51
0
  0
LINE
  5
AF3
330
A02
100
AcDbEntity
  8
Shape1977
100
AcDbLine
 10
-54.7848
 20
-23.1805
 30
0
 11
-54.7848
 21
-22.9314
 31
0
  0
ARC
  5
AF4
330
A02
100
AcDbEntity
  8
Shape1978
100
AcDbCircle
 10
-55.2848
 20
-22.9314
 30
0
 40
0.5
100
AcDbArc
 50
0
 51
90
  0
LINE
  5
AF5
330
A02
100
AcDbEntity
  8
Shape1979
100
AcDbLine
 10
-55.2848
 20
-22.4314
 30
0
 11
-124.285
 21
-22.4314
 31
0
  0
ARC
  5
AF6
330
A02
100
AcDbEntity
  8
Shape1980
100
AcDbCircle
 10
-124.285
 20
-22.9314
 30
0
 40
0.5
100
AcDbArc
 50
90
 51
180
  0
LINE
  5
AF7
330
A02
100
AcDbEntity
  8
Shape1981
100
AcDbLine
 10
-124.785
 20
-22.9314
 30
0
 11
-124.785
 21
-23.1805
 31
0
  0
ARC
  5
AF8
330
A02
100
AcDbEntity
  8
Shape1982
100
AcDbCircle
 10
-124.285
 20
-23.1805
 30
0
 40
0.5
100
AcDbArc
 50
180
 51
-90
  0
LINE
  5
AF9
330
A02
100
AcDbEntity
  8
Shape1983
100
AcDbLine
 10
-124.285
 20
-23.6805
 30
0
 11
-113.785
 21
-23.6805
 31
0
  0
ARC
  5
AFA
330
A02
100
AcDbEntity
  8
Shape1984
100
AcDbCircle
 10
-113.785
 20
-24.6805
 30
0
 40
1
100
AcDbArc
 50
0
 51
90
  0
LINE
  5
AFB
330
A02
100
AcDbEntity
  8
Shape1985
100
AcDbLine
 10
-112.785
 20
-24.6805
 30
0
 11
-112.785
 21
-26.1805
 31
0
  0
ARC
  5
AFC
330
A02
100
AcDbEntity
  8
Shape1986
100
AcDbCircle
 10
-113.785
 20
-26.1805
 30
0
 40
1
100
AcDbArc
 50
-90
 51
0
  0
LINE
  5
AFD
330
A02
100
AcDbEntity
  8
Shape1987
100
AcDbLine
 10
-113.785
 20
-27.1805
 30
0
 11
-131.785
 21
-27.1805
 31
0
  0
LINE
  5
AFE
330
A02
100
AcDbEntity
  8
Shape1988
100
AcDbLine
 10
-131.785
 20
-27.1805
 30
0
 11
-131.785
 21
-21.9305
 31
0
  0
ARC
  5
AFF
330
A02
100
AcDbEntity
  8
Shape1989
100
AcDbCircle
 10
-132.285
 20
-21.9305
 30
0
 40
0.5
100
AcDbArc
 50
0
 51
180
  0
LINE
  5
B00
330
A02
100
AcDbEntity
  8
Shape1990
100
AcDbLine
 10
-132.785
 20
-21.9305
 30
0
 11
-132.785
 21
-25.9305
 31
0
  0
ARC
  5
B01
330
A02
100
AcDbEntity
  8
Shape1991
100
AcDbCircle
 10
-134.785
 20
-25.9305
 30
0
 40
2
100
AcDbArc
 50
180
 51
0
  0
LINE
  5
B02
330
A02
100
AcDbEntity
  8
Shape1992
100
AcDbLine
 10
-136.785
 20
-25.9305
 30
0
 11
-136.785
 21
-21.9305
 31
0
  0
ARC
  5
B03
330
A02
100
AcDbEntity
  8
Shape1993
100
AcDbCircle
 10
-137.285
 20
-21.9305
 30
0
 40
0.5
100
AcDbArc
 50
0
 51
180
  0
LINE
  5
B04
330
A02
100
AcDbEntity
  8
Shape1994
100
AcDbLine
 10
-137.785
 20
-21.9305
 30
0
 11
-137.785
 21
-27.1805
 31
0
  0
LINE
  5
B05
330
A02
100
AcDbEntity
  8
Shape1995
100
AcDbLine
 10
-137.785
 20
-27.1805
 30
0
 11
-155.785
 21
-27.1805
 31
0
  0
ARC
  5
B06
330
A02
100
AcDbEntity
  8
Shape1996
100
AcDbCircle
 10
-155.785
 20
-26.1805
 30
0
 40
1
100
AcDbArc
 50
180
 51
-90
  0
LINE
  5
B07
330
A02
100
AcDbEntity
  8
Shape1997
100
AcDbLine
 10
-156.785
 20
-26.1805
 30
0
 11
-156.785
 21
-24.6805
 31
0
  0
ARC
  5
B08
330
A02
100
AcDbEntity
  8
Shape1998
100
AcDbCircle
 10
-155.785
 20
-24.6805
 30
0
 40
1
100
AcDbArc
 50
90
 51
180
  0
LINE
  5
B09
330
A02
100
AcDbEntity
  8
Shape1999
100
AcDbLine
 10
-155.785
 20
-23.6805
 30
0
 11
-145.285
 21
-23.6805
 31
0
  0
ARC
  5
B0A
330
A02
100
AcDbEntity
  8
Shape2000
100
AcDbCircle
 10
-145.285
 20
-23.1805
 30
0
 40
0.5
100
AcDbArc
 50
-90
 51
0
  0
LINE
  5
B0B
330
A02
100
AcDbEntity
  8
Shape2001
100
AcDbLine
 10
-144.785
 20
-23.1805
 30
0
 11
-144.785
 21
-22.9314
 31
0
  0
ARC
  5
B0C
330
A02
100
AcDbEntity
  8
Shape2002
100
AcDbCircle
 10
-145.285
 20
-22.9314
 30
0
 40
0.5
100
AcDbArc
 50
0
 51
90
  0
LINE
  5
B0D
330
A02
100
AcDbEntity
  8
Shape2003
100
AcDbLine
 10
-145.285
 20
-22.4314
 30
0
 11
-166.61
 21
-22.4314
 31
0
  0
ARC
  5
B0E
330
A02
100
AcDbEntity
  8
Shape2004
100
AcDbCircle
 10
-166.61
 20
-20.4314
 30
0
 40
2
100
AcDbArc
 50
180
 51
-90
  0
LINE
  5
B0F
330
A02
100
AcDbEntity
  8
Shape2005
100
AcDbLine
 10
-168.61
 20
-20.4314
 30
0
 11
-168.61
 21
51.9686
 31
0
  0
ARC
  5
B10
330
A02
100
AcDbEntity
  8
Shape2006
100
AcDbCircle
 10
-166.61
 20
51.9686
 30
0
 40
2
100
AcDbArc
 50
90
 51
180
  0
LINE
  5
B11
330
A02
100
AcDbEntity
  8
Shape2007
100
AcDbLine
 10
-166.61
 20
53.9686
 30
0
 11
-145.285
 21
53.9686
 31
0
  0
ARC
  5
B12
330
A02
100
AcDbEntity
  8
Shape2008
100
AcDbCircle
 10
-145.285
 20
54.4686
 30
0
 40
0.5
100
AcDbArc
 50
-90
 51
0
  0
LINE
  5
B13
330
A02
100
AcDbEntity
  8
Shape2009
100
AcDbLine
 10
-144.785
 20
54.4686
 30
0
 11
-144.785
 21
54.7177
 31
0
  0
ARC
  5
B14
330
A02
100
AcDbEntity
  8
Shape2010
100
AcDbCircle
 10
-145.285
 20
54.7177
 30
0
 40
0.5
100
AcDbArc
 50
0
 51
90
  0
LINE
  5
B15
330
A02
100
AcDbEntity
  8
Shape2011
100
AcDbLine
 10
-145.285
 20
55.2177
 30
0
 11
-155.785
 21
55.2177
 31
0
  0
ARC
  5
B16
330
A02
100
AcDbEntity
  8
Shape2012
100
AcDbCircle
 10
-155.785
 20
56.2177
 30
0
 40
1
100
AcDbArc
 50
180
 51
-90
  0
LINE
  5
B17
330
A02
100
AcDbEntity
  8
Shape2013
100
AcDbLine
 10
-156.785
 20
56.2177
 30
0
 11
-156.785
 21
57.7177
 31
0
  0
ARC
  5
B18
330
A02
100
AcDbEntity
  8
Shape2014
100
AcDbCircle
 10
-155.785
 20
57.7177
 30
0
 40
1
100
AcDbArc
 50
90
 51
180
  0
LINE
  5
B19
330
A02
100
AcDbEntity
  8
Shape2015
100
AcDbLine
 10
-155.785
 20
58.7177
 30
0
 11
-137.785
 21
58.7177
 31
0
  0
LINE
  5
B1A
330
A02
100
AcDbEntity
  8
Shape2016
100
AcDbLine
 10
-137.785
 20
58.7177
 30
0
 11
-137.785
 21
53.4677
 31
0
  0
ARC
  5
B1B
330
A02
100
AcDbEntity
  8
Shape2017
100
AcDbCircle
 10
-137.285
 20
53.4677
 30
0
 40
0.5
100
AcDbArc
 50
180
 51
0
  0
LINE
  5
B1C
330
A02
100
AcDbEntity
  8
Shape2018
100
AcDbLine
 10
-136.785
 20
53.4677
 30
0
 11
-136.785
 21
57.4677
 31
0
  0
ARC
  5
B1D
330
A02
100
AcDbEntity
  8
Shape2019
100
AcDbCircle
 10
-134.785
 20
57.4677
 30
0
 40
2
100
AcDbArc
 50
0
 51
180
  0
LINE
  5
B1E
330
A02
100
AcDbEntity
  8
Shape2020
100
AcDbLine
 10
-132.785
 20
57.4677
 30
0
 11
-132.785
 21
53.4677
 31
0
  0
ARC
  5
B1F
330
A02
100
AcDbEntity
  8
Shape2021
100
AcDbCircle
 10
-132.285
 20
53.4677
 30
0
 40
0.5
100
AcDbArc
 50
180
 51
0
  0
LINE
  5
B20
330
A02
100
AcDbEntity
  8
Shape2022
100
AcDbLine
 10
-131.785
 20
53.4677
 30
0
 11
-131.785
 21
58.7177
 31
0
  0
LINE
  5
B21
330
A02
100
AcDbEntity
  8
Shape2023
100
AcDbLine
 10
-131.785
 20
58.7177
 30
0
 11
-113.785
 21
58.7177
 31
0
  0
ARC
  5
B22
330
A02
100
AcDbEntity
  8
Shape2024
100
AcDbCircle
 10
-113.785
 20
57.7177
 30
0
 40
1
100
AcDbArc
 50
0
 51
90
  0
LINE
  5
B23
330
A02
100
AcDbEntity
  8
Shape2025
100
AcDbLine
 10
-112.785
 20
57.7177
 30
0
 11
-112.785
 21
56.2177
 31
0
  0
ARC
  5
B24
330
A02
100
AcDbEntity
  8
Shape2026
100
AcDbCircle
 10
-113.785
 20
56.2177
 30
0
 40
1
100
AcDbArc
 50
-90
 51
0
  0
LINE
  5
B25
330
A02
100
AcDbEntity
  8
Shape2027
100
AcDbLine
 10
-113.785
 20
55.2177
 30
0
 11
-124.285
 21
55.2177
 31
0
  0
ARC
  5
B26
330
A02
100
AcDbEntity
  8
Shape2028
100
AcDbCircle
 10
-124.285
 20
54.7177
 30
0
 40
0.5
100
AcDbArc
 50
90
 51
180
  0
LINE
  5
B27
330
A02
100
AcDbEntity
  8
Shape2029
100
AcDbLine
 10
-124.785
 20
54.7177
 30
0
 11
-124.785
 21
54.4686
 31
0
  0
ARC
  5
B28
330
A02
100
AcDbEntity
  8
Shape2030
100
AcDbCircle
 10
-124.285
 20
54.4686
 30
0
 40
0.5
100
AcDbArc
 50
180
 51
-90
  0
LINE
  5
B29
330
A02
100
AcDbEntity
  8
Shape2031
100
AcDbLine
 10
-124.285
 20
53.9686
 30
0
 11
-55.2848
 21
53.9686
 31
0
  0
ARC
  5
B2A
330
A02
100
AcDbEntity
  8
Shape2032
100
AcDbCircle
 10
-55.2848
 20
54.4686
 30
0
 40
0.5
100
AcDbArc
 50
-90
 51
0
  0
LINE
  5
B2B
330
A02
100
AcDbEntity
  8
Shape2033
100
AcDbLine
 10
-54.7848
 20
54.4686
 30
0
 11
-54.7848
 21
54.7177
 31
0
  0
ARC
  5
B2C
330
A02
100
AcDbEntity
  8
Shape2034
100
AcDbCircle
 10
-55.2848
 20
54.7177
 30
0
 40
0.5
100
AcDbArc
 50
0
 51
90
  0
LINE
  5
B2D
330
A02
100
AcDbEntity
  8
Shape2035
100
AcDbLine
 10
-55.2848
 20
55.2177
 30
0
 11
-65.7848
 21
55.2177
 31
0
  0
ARC
  5
B2E
330
A02
100
AcDbEntity
  8
Shape2036
100
AcDbCircle
 10
-65.7848
 20
56.2177
 30
0
 40
1
100
AcDbArc
 50
180
 51
-90
  0
LINE
  5
B2F
330
A02
100
AcDbEntity
  8
Shape2037
100
AcDbLine
 10
-66.7848
 20
56.2177
 30
0
 11
-66.7848
 21
57.7177
 31
0
  0
ARC
  5
B30
330
A02
100
AcDbEntity
  8
Shape2038
100
AcDbCircle
 10
-65.7848
 20
57.7177
 30
0
 40
1
100
AcDbArc
 50
90
 51
180
  0
LINE
  5
B31
330
A02
100
AcDbEntity
  8
Shape2039
100
AcDbLine
 10
-65.7848
 20
58.7177
 30
0
 11
-47.7848
 21
58.7177
 31
0
  0
LINE
  5
B32
330
A02
100
AcDbEntity
  8
Shape2040
100
AcDbLine
 10
-47.7848
 20
58.7177
 30
0
 11
-47.7848
 21
53.4677
 31
0
  0
ARC
  5
B33
330
A02
100
AcDbEntity
  8
Shape2041
100
AcDbCircle
 10
-47.2848
 20
53.4677
 30
0
 40
0.5
100
AcDbArc
 50
180
 51
0
  0
LINE
  5
B34
330
A02
100
AcDbEntity
  8
Shape2042
100
AcDbLine
 10
-46.7848
 20
53.4677
 30
0
 11
-46.7848
 21
57.4677
 31
0
  0
ARC
  5
B35
330
A02
100
AcDbEntity
  8
Shape2043
100
AcDbCircle
 10
-44.7848
 20
57.4677
 30
0
 40
2
100
AcDbArc
 50
0
 51
180
  0
LINE
  5
B36
330
A02
100
AcDbEntity
  8
Shape2044
100
AcDbLine
 10
-42.7848
 20
57.4677
 30
0
 11
-42.7848
 21
53.4677
 31
0
  0
ARC
  5
B37
330
A02
100
AcDbEntity
  8
Shape2045
100
AcDbCircle
 10
-42.2848
 20
53.4677
 30
0
 40
0.5
100
AcDbArc
 50
180
 51
0
  0
LINE
  5
B38
330
A02
100
AcDbEntity
  8
Shape2046
100
AcDbLine
 10
-41.7848
 20
53.4677
 30
0
 11
-41.7848
 21
58.7177
 31
0
  0
LINE
  5
B39
330
A02
100
AcDbEntity
  8
Shape2047
100
AcDbLine
 10
-41.7848
 20
58.7177
 30
0
 11
-23.7848
 21
58.7177
 31
0
  0
ARC
  5
B3A
330
A02
100
AcDbEntity
  8
Shape2048
100
AcDbCircle
 10
-23.7848
 20
57.7177
 30
0
 40
1
100
AcDbArc
 50
0
 51
90
  0
LINE
  5
B3B
330
A02
100
AcDbEntity
  8
Shape2049
100
AcDbLine
 10
-22.7848
 20
57.7177
 30
0
 11
-22.7848
 21
56.2177
 31
0
  0
CIRCLE
  5
B3C
330
A02
100
AcDbEntity
  8
Shape2050
100
AcDbCircle
 10
45.2152
 20
57.4677
 40
1.1
  0
CIRCLE
  5
B3D
330
A02
100
AcDbEntity
  8
Shape2051
100
AcDbCircle
 10
-44.7848
 20
57.4677
 40
1.1
  0
CIRCLE
  5
B3E
330
A02
100
AcDbEntity
  8
Shape2052
100
AcDbCircle
 10
-134.785
 20
57.4677
 40
1.1
  0
CIRCLE
  5
B3F
330
A02
100
AcDbEntity
  8
Shape2053
100
AcDbCircle
 10
45.2152
 20
-25.9305
 40
1.1
  0
CIRCLE
  5
B40
330
A02
100
AcDbEntity
  8
Shape2054
100
AcDbCircle
 10
-44.7848
 20
-25.9305
 40
1.1
  0
CIRCLE
  5
B41
330
A02
100
AcDbEntity
  8
Shape2055
100
AcDbCircle
 10
-134.785
 20
-25.9305
 40
1.1
  0
LINE
  5
B42
330
A02
100
AcDbEntity
  8
Shape3730
100
AcDbLine
 10
-80.3607
 20
-19.3567
 30
0
 11
-80.3607
 21
-15.1563
 31
0
  0
LINE
  5
B43
330
A02
100
AcDbEntity
  8
Shape3731
100
AcDbLine
 10
-80.3607
 20
-15.1563
 30
0
 11
-89.0355
 21
-15.1563
 31
0
  0
LINE
  5
B44
330
A02
100
AcDbEntity
  8
Shape3732
100
AcDbLine
 10
-89.0355
 20
-15.1563
 30
0
 11
-89.0355
 21
-18.3865
 31
0
  0
LINE
  5
B45
330
A02
100
AcDbEntity
  8
Shape3733
100
AcDbLine
 10
-89.0355
 20
-18.3865
 30
0
 11
-95.7866
 21
-18.3865
 31
0
  0
LINE
  5
B46
330
A02
100
AcDbEntity
  8
Shape3734
100
AcDbLine
 10
-95.7866
 20
-18.3865
 30
0
 11
-95.7866
 21
-15.1563
 31
0
  0
LINE
  5
B47
330
A02
100
AcDbEntity
  8
Shape3735
100
AcDbLine
 10
-95.7866
 20
-15.1563
 30
0
 11
-96.6107
 21
-15.1563
 31
0
  0
LINE
  5
B48
330
A02
100
AcDbEntity
  8
Shape3736
100
AcDbLine
 10
-96.6107
 20
-15.1563
 30
0
 11
-96.6107
 21
-12.3575
 31
0
  0
LINE
  5
B49
330
A02
100
AcDbEntity
  8
Shape3737
100
AcDbLine
 10
-96.6107
 20
-12.3575
 30
0
 11
-95.7866
 21
-12.3575
 31
0
  0
LINE
  5
B4A
330
A02
100
AcDbEntity
  8
Shape3738
100
AcDbLine
 10
-95.7866
 20
-12.3575
 30
0
 11
-95.7866
 21
-6.08753
 31
0
  0
LINE
  5
B4B
330
A02
100
AcDbEntity
  8
Shape3739
100
AcDbLine
 10
-95.7866
 20
-6.08753
 30
0
 11
-94.0612
 21
-6.08753
 31
0
  0
LINE
  5
B4C
330
A02
100
AcDbEntity
  8
Shape3740
100
AcDbLine
 10
-94.0612
 20
-6.08753
 30
0
 11
-94.0612
 21
-4.88723
 31
0
  0
LINE
  5
B4D
330
A02
100
AcDbEntity
  8
Shape3741
100
AcDbLine
 10
-94.0612
 20
-4.88723
 30
0
 11
-90.7609
 21
-4.88723
 31
0
  0
LINE
  5
B4E
330
A02
100
AcDbEntity
  8
Shape3742
100
AcDbLine
 10
-90.7609
 20
-4.88723
 30
0
 11
-90.7609
 21
-6.08753
 31
0
  0
LINE
  5
B4F
330
A02
100
AcDbEntity
  8
Shape3743
100
AcDbLine
 10
-90.7609
 20
-6.08753
 30
0
 11
-89.0355
 21
-6.08753
 31
0
  0
LINE
  5
B50
330
A02
100
AcDbEntity
  8
Shape3744
100
AcDbLine
 10
-89.0355
 20
-6.08753
 30
0
 11
-89.0355
 21
-10.5564
 31
0
  0
LINE
  5
B51
330
A02
100
AcDbEntity
  8
Shape3745
100
AcDbLine
 10
-89.0355
 20
-10.5564
 30
0
 11
-80.3607
 21
-10.5564
 31
0
  0
LINE
  5
B52
330
A02
100
AcDbEntity
  8
Shape3746
100
AcDbLine
 10
-80.3607
 20
-10.5564
 30
0
 11
-80.3607
 21
-6.35733
 31
0
  0
LINE
  5
B53
330
A02
100
AcDbEntity
  8
Shape3747
100
AcDbLine
 10
-79.8607
 20
-5.85733
 30
0
 11
-66.8614
 21
-5.85733
 31
0
  0
ARC
  5
B54
330
A02
100
AcDbEntity
  8
Shape3748
100
AcDbCircle
 10
-79.8607
 20
-6.35733
 30
0
 40
0.5
100
AcDbArc
 50
90
 51
180
  0
ARC
  5
B55
330
A02
100
AcDbEntity
  8
Shape3749
100
AcDbCircle
 10
-66.8614
 20
-6.35733
 30
0
 40
0.5
100
AcDbArc
 50
0
 51
90
  0
LINE
  5
B56
330
A02
100
AcDbEntity
  8
Shape3750
100
AcDbLine
 10
-66.3614
 20
-6.35733
 30
0
 11
-66.3614
 21
-10.5564
 31
0
  0
LINE
  5
B57
330
A02
100
AcDbEntity
  8
Shape3751
100
AcDbLine
 10
-66.3614
 20
-10.5564
 30
0
 11
-57.6864
 21
-10.5564
 31
0
  0
LINE
  5
B58
330
A02
100
AcDbEntity
  8
Shape3752
100
AcDbLine
 10
-57.6864
 20
-10.5564
 30
0
 11
-57.6864
 21
-6.08753
 31
0
  0
LINE
  5
B59
330
A02
100
AcDbEntity
  8
Shape3753
100
AcDbLine
 10
-57.6864
 20
-6.08753
 30
0
 11
-55.9614
 21
-6.08753
 31
0
  0
LINE
  5
B5A
330
A02
100
AcDbEntity
  8
Shape3754
100
AcDbLine
 10
-55.9614
 20
-6.08753
 30
0
 11
-55.9614
 21
-4.88723
 31
0
  0
LINE
  5
B5B
330
A02
100
AcDbEntity
  8
Shape3755
100
AcDbLine
 10
-55.9614
 20
-4.88723
 30
0
 11
-52.6614
 21
-4.88723
 31
0
  0
LINE
  5
B5C
330
A02
100
AcDbEntity
  8
Shape3756
100
AcDbLine
 10
-52.6614
 20
-4.88723
 30
0
 11
-52.6614
 21
-6.08753
 31
0
  0
LINE
  5
B5D
330
A02
100
AcDbEntity
  8
Shape3757
100
AcDbLine
 10
-52.6614
 20
-6.08753
 30
0
 11
-50.9354
 21
-6.08753
 31
0
  0
LINE
  5
B5E
330
A02
100
AcDbEntity
  8
Shape3758
100
AcDbLine
 10
-50.9354
 20
-6.08753
 30
0
 11
-50.9354
 21
-12.3575
 31
0
  0
LINE
  5
B5F
330
A02
100
AcDbEntity
  8
Shape3759
100
AcDbLine
 10
-50.9354
 20
-12.3575
 30
0
 11
-50.1114
 21
-12.3575
 31
0
  0
LINE
  5
B60
330
A02
100
AcDbEntity
  8
Shape3760
100
AcDbLine
 10
-50.1114
 20
-12.3575
 30
0
 11
-50.1114
 21
-15.1563
 31
0
  0
LINE
  5
B61
330
A02
100
AcDbEntity
  8
Shape3761
100
AcDbLine
 10
-50.1114
 20
-15.1563
 30
0
 11
-50.9354
 21
-15.1563
 31
0
  0
LINE
  5
B62
330
A02
100
AcDbEntity
  8
Shape3762
100
AcDbLine
 10
-50.9354
 20
-15.1563
 30
0
 11
-50.9354
 21
-18.3865
 31
0
  0
LINE
  5
B63
330
A02
100
AcDbEntity
  8
Shape3763
100
AcDbLine
 10
-50.9354
 20
-18.3865
 30
0
 11
-57.6864
 21
-18.3865
 31
0
  0
LINE
  5
B64
330
A02
100
AcDbEntity
  8
Shape3764
100
AcDbLine
 10
-57.6864
 20
-18.3865
 30
0
 11
-57.6864
 21
-15.1563
 31
0
  0
LINE
  5
B65
330
A02
100
AcDbEntity
  8
Shape3765
100
AcDbLine
 10
-57.6864
 20
-15.1563
 30
0
 11
-66.3614
 21
-15.1563
 31
0
  0
LINE
  5
B66
330
A02
100
AcDbEntity
  8
Shape3766
100
AcDbLine
 10
-66.3614
 20
-15.1563
 30
0
 11
-66.3614
 21
-19.3567
 31
0
  0
ARC
  5
B67
330
A02
100
AcDbEntity
  8
Shape3767
100
AcDbCircle
 10
-66.8614
 20
-19.3567
 30
0
 40
0.5
100
AcDbArc
 50
-90
 51
0
  0
LINE
  5
B68
330
A02
100
AcDbEntity
  8
Shape3768
100
AcDbLine
 10
-66.8614
 20
-19.8567
 30
0
 11
-79.8607
 21
-19.8567
 31
0
  0
ARC
  5
B69
330
A02
100
AcDbEntity
  8
Shape3769
100
AcDbCircle
 10
-79.8607
 20
-19.3567
 30
0
 40
0.5
100
AcDbArc
 50
180
 51
-90
  0
LINE
  5
B6A
330
A02
100
AcDbEntity
  8
Shape3770
100
AcDbLine
 10
-23.2104
 20
-19.3567
 30
0
 11
-23.2104
 21
-15.1563
 31
0
  0
ARC
  5
B6B
330
A02
100
AcDbEntity
  8
Shape3771
100
AcDbCircle
 10
-22.7104
 20
-19.3567
 30
0
 40
0.5
100
AcDbArc
 50
180
 51
-90
  0
LINE
  5
B6C
330
A02
100
AcDbEntity
  8
Shape3772
100
AcDbLine
 10
-23.2104
 20
-15.1563
 30
0
 11
-31.8854
 21
-15.1563
 31
0
  0
LINE
  5
B6D
330
A02
100
AcDbEntity
  8
Shape3773
100
AcDbLine
 10
-31.8854
 20
-15.1563
 30
0
 11
-31.8854
 21
-18.3865
 31
0
  0
LINE
  5
B6E
330
A02
100
AcDbEntity
  8
Shape3774
100
AcDbLine
 10
-31.8854
 20
-18.3865
 30
0
 11
-38.6364
 21
-18.3865
 31
0
  0
LINE
  5
B6F
330
A02
100
AcDbEntity
  8
Shape3775
100
AcDbLine
 10
-38.6364
 20
-18.3865
 30
0
 11
-38.6364
 21
-15.1563
 31
0
  0
LINE
  5
B70
330
A02
100
AcDbEntity
  8
Shape3776
100
AcDbLine
 10
-38.6364
 20
-15.1563
 30
0
 11
-39.4604
 21
-15.1563
 31
0
  0
LINE
  5
B71
330
A02
100
AcDbEntity
  8
Shape3777
100
AcDbLine
 10
-39.4604
 20
-15.1563
 30
0
 11
-39.4604
 21
-12.3575
 31
0
  0
LINE
  5
B72
330
A02
100
AcDbEntity
  8
Shape3778
100
AcDbLine
 10
-39.4604
 20
-12.3575
 30
0
 11
-38.6364
 21
-12.3575
 31
0
  0
LINE
  5
B73
330
A02
100
AcDbEntity
  8
Shape3779
100
AcDbLine
 10
-38.6364
 20
-12.3575
 30
0
 11
-38.6364
 21
-6.08753
 31
0
  0
LINE
  5
B74
330
A02
100
AcDbEntity
  8
Shape3780
100
AcDbLine
 10
-38.6364
 20
-6.08753
 30
0
 11
-36.9114
 21
-6.08753
 31
0
  0
LINE
  5
B75
330
A02
100
AcDbEntity
  8
Shape3781
100
AcDbLine
 10
-36.9114
 20
-6.08753
 30
0
 11
-36.9114
 21
-4.88723
 31
0
  0
LINE
  5
B76
330
A02
100
AcDbEntity
  8
Shape3782
100
AcDbLine
 10
-36.9114
 20
-4.88723
 30
0
 11
-33.6114
 21
-4.88723
 31
0
  0
LINE
  5
B77
330
A02
100
AcDbEntity
  8
Shape3783
100
AcDbLine
 10
-33.6114
 20
-4.88723
 30
0
 11
-33.6114
 21
-6.08753
 31
0
  0
LINE
  5
B78
330
A02
100
AcDbEntity
  8
Shape3784
100
AcDbLine
 10
-33.6114
 20
-6.08753
 30
0
 11
-31.8854
 21
-6.08753
 31
0
  0
LINE
  5
B79
330
A02
100
AcDbEntity
  8
Shape3785
100
AcDbLine
 10
-31.8854
 20
-6.08753
 30
0
 11
-31.8854
 21
-10.5564
 31
0
  0
LINE
  5
B7A
330
A02
100
AcDbEntity
  8
Shape3786
100
AcDbLine
 10
-31.8854
 20
-10.5564
 30
0
 11
-23.2104
 21
-10.5564
 31
0
  0
LINE
  5
B7B
330
A02
100
AcDbEntity
  8
Shape3787
100
AcDbLine
 10
-23.2104
 20
-10.5564
 30
0
 11
-23.2104
 21
-6.35733
 31
0
  0
LINE
  5
B7C
330
A02
100
AcDbEntity
  8
Shape3788
100
AcDbLine
 10
-22.7104
 20
-5.85733
 30
0
 11
-9.71142
 21
-5.85733
 31
0
  0
ARC
  5
B7D
330
A02
100
AcDbEntity
  8
Shape3789
100
AcDbCircle
 10
-22.7104
 20
-6.35733
 30
0
 40
0.5
100
AcDbArc
 50
90
 51
180
  0
ARC
  5
B7E
330
A02
100
AcDbEntity
  8
Shape3790
100
AcDbCircle
 10
-9.71142
 20
-19.3567
 30
0
 40
0.5
100
AcDbArc
 50
-90
 51
0
  0
LINE
  5
B7F
330
A02
100
AcDbEntity
  8
Shape3791
100
AcDbLine
 10
-9.21142
 20
-19.3567
 30
0
 11
-9.21142
 21
-15.1576
 31
0
  0
LINE
  5
B80
330
A02
100
AcDbEntity
  8
Shape3792
100
AcDbLine
 10
-9.21142
 20
-10.5577
 30
0
 11
-9.21142
 21
-6.35733
 31
0
  0
LINE
  5
B81
330
A02
100
AcDbEntity
  8
Shape3793
100
AcDbLine
 10
-9.71142
 20
-19.8567
 30
0
 11
-22.7104
 21
-19.8567
 31
0
  0
ARC
  5
B82
330
A02
100
AcDbEntity
  8
Shape3794
100
AcDbCircle
 10
-9.71142
 20
-6.35733
 30
0
 40
0.5
100
AcDbArc
 50
0
 51
90
  0
LINE
  5
B83
330
A02
100
AcDbEntity
  8
Shape3795
100
AcDbLine
 10
-9.21142
 20
-15.1563
 30
0
 11
-0.53642
 21
-15.1563
 31
0
  0
LINE
  5
B84
330
A02
100
AcDbEntity
  8
Shape3796
100
AcDbLine
 10
-0.53642
 20
-15.1563
 30
0
 11
-0.53642
 21
-18.3865
 31
0
  0
LINE
  5
B85
330
A02
100
AcDbEntity
  8
Shape3797
100
AcDbLine
 10
-0.53642
 20
-18.3865
 30
0
 11
6.21458
 21
-18.3865
 31
0
  0
LINE
  5
B86
330
A02
100
AcDbEntity
  8
Shape3798
100
AcDbLine
 10
6.21458
 20
-18.3865
 30
0
 11
6.21458
 21
-15.1563
 31
0
  0
LINE
  5
B87
330
A02
100
AcDbEntity
  8
Shape3799
100
AcDbLine
 10
6.21458
 20
-15.1563
 30
0
 11
7.03858
 21
-15.1563
 31
0
  0
LINE
  5
B88
330
A02
100
AcDbEntity
  8
Shape3800
100
AcDbLine
 10
7.03858
 20
-15.1563
 30
0
 11
7.03858
 21
-12.3575
 31
0
  0
LINE
  5
B89
330
A02
100
AcDbEntity
  8
Shape3801
100
AcDbLine
 10
7.03858
 20
-12.3575
 30
0
 11
6.21458
 21
-12.3575
 31
0
  0
LINE
  5
B8A
330
A02
100
AcDbEntity
  8
Shape3802
100
AcDbLine
 10
6.21458
 20
-12.3575
 30
0
 11
6.21458
 21
-6.08753
 31
0
  0
LINE
  5
B8B
330
A02
100
AcDbEntity
  8
Shape3803
100
AcDbLine
 10
6.21458
 20
-6.08753
 30
0
 11
4.48958
 21
-6.08753
 31
0
  0
LINE
  5
B8C
330
A02
100
AcDbEntity
  8
Shape3804
100
AcDbLine
 10
4.48958
 20
-6.08753
 30
0
 11
4.48958
 21
-4.88723
 31
0
  0
LINE
  5
B8D
330
A02
100
AcDbEntity
  8
Shape3805
100
AcDbLine
 10
4.48958
 20
-4.88723
 30
0
 11
1.18958
 21
-4.88723
 31
0
  0
LINE
  5
B8E
330
A02
100
AcDbEntity
  8
Shape3806
100
AcDbLine
 10
1.18958
 20
-4.88723
 30
0
 11
1.18958
 21
-6.08753
 31
0
  0
LINE
  5
B8F
330
A02
100
AcDbEntity
  8
Shape3807
100
AcDbLine
 10
1.18958
 20
-6.08753
 30
0
 11
-0.53642
 21
-6.08753
 31
0
  0
LINE
  5
B90
330
A02
100
AcDbEntity
  8
Shape3808
100
AcDbLine
 10
-0.53642
 20
-6.08753
 30
0
 11
-0.53642
 21
-10.5564
 31
0
  0
LINE
  5
B91
330
A02
100
AcDbEntity
  8
Shape3809
100
AcDbLine
 10
-0.53642
 20
-10.5564
 30
0
 11
-9.21142
 21
-10.5564
 31
0
  0
LINE
  5
B92
330
A02
100
AcDbEntity
  8
Shape4044
100
AcDbLine
 10
50.6095
 20
18.7939
 30
0
 11
50.6095
 21
22.993
 31
0
  0
ARC
  5
B93
330
A02
100
AcDbEntity
  8
Shape4045
100
AcDbCircle
 10
51.1095
 20
18.7939
 30
0
 40
0.5
100
AcDbArc
 50
180
 51
-90
  0
LINE
  5
B94
330
A02
100
AcDbEntity
  8
Shape4046
100
AcDbLine
 10
50.6095
 20
22.993
 30
0
 11
49.0841
 21
22.993
 31
0
  0
LINE
  5
B95
330
A02
100
AcDbEntity
  8
Shape4047
100
AcDbLine
 10
49.0841
 20
22.993
 30
0
 11
49.0841
 21
19.7642
 31
0
  0
LINE
  5
B96
330
A02
100
AcDbEntity
  8
Shape4048
100
AcDbLine
 10
49.0841
 20
19.7642
 30
0
 11
42.3344
 21
19.7642
 31
0
  0
LINE
  5
B97
330
A02
100
AcDbEntity
  8
Shape4049
100
AcDbLine
 10
42.3344
 20
19.7642
 30
0
 11
42.3344
 21
22.993
 31
0
  0
LINE
  5
B98
330
A02
100
AcDbEntity
  8
Shape4050
100
AcDbLine
 10
42.3344
 20
22.993
 30
0
 11
41.5089
 21
22.993
 31
0
  0
LINE
  5
B99
330
A02
100
AcDbEntity
  8
Shape4051
100
AcDbLine
 10
41.5089
 20
22.993
 30
0
 11
41.5089
 21
25.7931
 31
0
  0
LINE
  5
B9A
330
A02
100
AcDbEntity
  8
Shape4052
100
AcDbLine
 10
41.5089
 20
25.7931
 30
0
 11
42.3344
 21
25.7931
 31
0
  0
LINE
  5
B9B
330
A02
100
AcDbEntity
  8
Shape4053
100
AcDbLine
 10
42.3344
 20
25.7931
 30
0
 11
42.3344
 21
32.0632
 31
0
  0
LINE
  5
B9C
330
A02
100
AcDbEntity
  8
Shape4054
100
AcDbLine
 10
42.3344
 20
32.0632
 30
0
 11
44.0595
 21
32.0632
 31
0
  0
LINE
  5
B9D
330
A02
100
AcDbEntity
  8
Shape4055
100
AcDbLine
 10
44.0595
 20
32.0632
 30
0
 11
44.0595
 21
33.2635
 31
0
  0
LINE
  5
B9E
330
A02
100
AcDbEntity
  8
Shape4056
100
AcDbLine
 10
44.0595
 20
33.2635
 30
0
 11
47.3586
 21
33.2635
 31
0
  0
LINE
  5
B9F
330
A02
100
AcDbEntity
  8
Shape4057
100
AcDbLine
 10
47.3586
 20
33.2635
 30
0
 11
47.3586
 21
32.0632
 31
0
  0
LINE
  5
BA0
330
A02
100
AcDbEntity
  8
Shape4058
100
AcDbLine
 10
47.3586
 20
32.0632
 30
0
 11
49.0841
 21
32.0632
 31
0
  0
LINE
  5
BA1
330
A02
100
AcDbEntity
  8
Shape4059
100
AcDbLine
 10
49.0841
 20
32.0632
 30
0
 11
49.0841
 21
27.5943
 31
0
  0
LINE
  5
BA2
330
A02
100
AcDbEntity
  8
Shape4060
100
AcDbLine
 10
49.0841
 20
27.5943
 30
0
 11
50.6095
 21
27.5943
 31
0
  0
LINE
  5
BA3
330
A02
100
AcDbEntity
  8
Shape4061
100
AcDbLine
 10
50.6095
 20
27.5943
 30
0
 11
50.6095
 21
31.7933
 31
0
  0
LINE
  5
BA4
330
A02
100
AcDbEntity
  8
Shape4062
100
AcDbLine
 10
51.1095
 20
32.2933
 30
0
 11
64.1088
 21
32.2933
 31
0
  0
ARC
  5
BA5
330
A02
100
AcDbEntity
  8
Shape4063
100
AcDbCircle
 10
51.1095
 20
31.7933
 30
0
 40
0.5
100
AcDbArc
 50
90
 51
180
  0
LINE
  5
BA6
330
A02
100
AcDbEntity
  8
Shape4064
100
AcDbLine
 10
64.6088
 20
31.7933
 30
0
 11
64.6088
 21
27.5943
 31
0
  0
ARC
  5
BA7
330
A02
100
AcDbEntity
  8
Shape4065
100
AcDbCircle
 10
64.1088
 20
31.7933
 30
0
 40
0.5
100
AcDbArc
 50
0
 51
90
  0
LINE
  5
BA8
330
A02
100
AcDbEntity
  8
Shape4066
100
AcDbLine
 10
64.6088
 20
27.5943
 30
0
 11
66.1345
 21
27.5943
 31
0
  0
LINE
  5
BA9
330
A02
100
AcDbEntity
  8
Shape4067
100
AcDbLine
 10
66.1345
 20
27.5943
 30
0
 11
66.1345
 21
32.0632
 31
0
  0
LINE
  5
BAA
330
A02
100
AcDbEntity
  8
Shape4068
100
AcDbLine
 10
66.1345
 20
32.0632
 30
0
 11
67.8582
 21
32.0632
 31
0
  0
LINE
  5
BAB
330
A02
100
AcDbEntity
  8
Shape4069
100
AcDbLine
 10
67.8582
 20
32.0632
 30
0
 11
67.8582
 21
33.2635
 31
0
  0
LINE
  5
BAC
330
A02
100
AcDbEntity
  8
Shape4070
100
AcDbLine
 10
67.8582
 20
33.2635
 30
0
 11
71.1588
 21
33.2635
 31
0
  0
LINE
  5
BAD
330
A02
100
AcDbEntity
  8
Shape4071
100
AcDbLine
 10
71.1588
 20
33.2635
 30
0
 11
71.1588
 21
32.0632
 31
0
  0
LINE
  5
BAE
330
A02
100
AcDbEntity
  8
Shape4072
100
AcDbLine
 10
71.1588
 20
32.0632
 30
0
 11
72.8839
 21
32.0632
 31
0
  0
LINE
  5
BAF
330
A02
100
AcDbEntity
  8
Shape4073
100
AcDbLine
 10
72.8839
 20
32.0632
 30
0
 11
72.8839
 21
25.7931
 31
0
  0
LINE
  5
BB0
330
A02
100
AcDbEntity
  8
Shape4074
100
AcDbLine
 10
72.8839
 20
25.7931
 30
0
 11
73.7094
 21
25.7931
 31
0
  0
LINE
  5
BB1
330
A02
100
AcDbEntity
  8
Shape4075
100
AcDbLine
 10
73.7094
 20
25.7931
 30
0
 11
73.7094
 21
22.993
 31
0
  0
LINE
  5
BB2
330
A02
100
AcDbEntity
  8
Shape4076
100
AcDbLine
 10
73.7094
 20
22.993
 30
0
 11
72.8839
 21
22.993
 31
0
  0
LINE
  5
BB3
330
A02
100
AcDbEntity
  8
Shape4077
100
AcDbLine
 10
72.8839
 20
22.993
 30
0
 11
72.8839
 21
19.7642
 31
0
  0
LINE
  5
BB4
330
A02
100
AcDbEntity
  8
Shape4078
100
AcDbLine
 10
72.8839
 20
19.7642
 30
0
 11
66.1345
 21
19.7642
 31
0
  0
LINE
  5
BB5
330
A02
100
AcDbEntity
  8
Shape4079
100
AcDbLine
 10
66.1345
 20
19.7642
 30
0
 11
66.1345
 21
22.993
 31
0
  0
LINE
  5
BB6
330
A02
100
AcDbEntity
  8
Shape4080
100
AcDbLine
 10
66.1345
 20
22.993
 30
0
 11
64.6088
 21
22.993
 31
0
  0
LINE
  5
BB7
330
A02
100
AcDbEntity
  8
Shape4081
100
AcDbLine
 10
64.6088
 20
22.993
 30
0
 11
64.6088
 21
18.7939
 31
0
  0
ARC
  5
BB8
330
A02
100
AcDbEntity
  8
Shape4082
100
AcDbCircle
 10
64.1088
 20
18.7939
 30
0
 40
0.5
100
AcDbArc
 50
-90
 51
0
  0
LINE
  5
BB9
330
A02
100
AcDbEntity
  8
Shape4083
100
AcDbLine
 10
64.1088
 20
18.2939
 30
0
 11
51.1095
 21
18.2939
 31
0
  0
LINE
  5
BBA
330
A02
100
AcDbEntity
  8
Shape4163
100
AcDbLine
 10
-154.178
 20
-0.256115
 30
0
 11
-154.178
 21
3.94299
 31
0
  0
ARC
  5
BBB
330
A02
100
AcDbEntity
  8
Shape4164
100
AcDbCircle
 10
-153.678
 20
-0.256115
 30
0
 40
0.5
100
AcDbArc
 50
180
 51
-90
  0
LINE
  5
BBC
330
A02
100
AcDbEntity
  8
Shape4165
100
AcDbLine
 10
-154.178
 20
3.94299
 30
0
 11
-155.704
 21
3.94299
 31
0
  0
LINE
  5
BBD
330
A02
100
AcDbEntity
  8
Shape4166
100
AcDbLine
 10
-155.704
 20
3.94299
 30
0
 11
-155.704
 21
0.714185
 31
0
  0
LINE
  5
BBE
330
A02
100
AcDbEntity
  8
Shape4167
100
AcDbLine
 10
-155.704
 20
0.714185
 30
0
 11
-162.453
 21
0.714185
 31
0
  0
LINE
  5
BBF
330
A02
100
AcDbEntity
  8
Shape4168
100
AcDbLine
 10
-162.453
 20
0.714185
 30
0
 11
-162.453
 21
3.94299
 31
0
  0
LINE
  5
BC0
330
A02
100
AcDbEntity
  8
Shape4169
100
AcDbLine
 10
-162.453
 20
3.94299
 30
0
 11
-163.279
 21
3.94299
 31
0
  0
LINE
  5
BC1
330
A02
100
AcDbEntity
  8
Shape4170
100
AcDbLine
 10
-163.279
 20
3.94299
 30
0
 11
-163.279
 21
6.74315
 31
0
  0
LINE
  5
BC2
330
A02
100
AcDbEntity
  8
Shape4171
100
AcDbLine
 10
-163.279
 20
6.74315
 30
0
 11
-162.453
 21
6.74315
 31
0
  0
LINE
  5
BC3
330
A02
100
AcDbEntity
  8
Shape4172
100
AcDbLine
 10
-162.453
 20
6.74315
 30
0
 11
-162.453
 21
13.0132
 31
0
  0
LINE
  5
BC4
330
A02
100
AcDbEntity
  8
Shape4173
100
AcDbLine
 10
-162.453
 20
13.0132
 30
0
 11
-160.728
 21
13.0132
 31
0
  0
LINE
  5
BC5
330
A02
100
AcDbEntity
  8
Shape4174
100
AcDbLine
 10
-160.728
 20
13.0132
 30
0
 11
-160.728
 21
14.2135
 31
0
  0
LINE
  5
BC6
330
A02
100
AcDbEntity
  8
Shape4175
100
AcDbLine
 10
-160.728
 20
14.2135
 30
0
 11
-157.429
 21
14.2135
 31
0
  0
LINE
  5
BC7
330
A02
100
AcDbEntity
  8
Shape4176
100
AcDbLine
 10
-157.429
 20
14.2135
 30
0
 11
-157.429
 21
13.0132
 31
0
  0
LINE
  5
BC8
330
A02
100
AcDbEntity
  8
Shape4177
100
AcDbLine
 10
-157.429
 20
13.0132
 30
0
 11
-155.704
 21
13.0132
 31
0
  0
LINE
  5
BC9
330
A02
100
AcDbEntity
  8
Shape4178
100
AcDbLine
 10
-155.704
 20
13.0132
 30
0
 11
-155.704
 21
8.54426
 31
0
  0
LINE
  5
BCA
330
A02
100
AcDbEntity
  8
Shape4179
100
AcDbLine
 10
-155.704
 20
8.54426
 30
0
 11
-154.178
 21
8.54426
 31
0
  0
LINE
  5
BCB
330
A02
100
AcDbEntity
  8
Shape4180
100
AcDbLine
 10
-154.178
 20
8.54426
 30
0
 11
-154.178
 21
12.7433
 31
0
  0
LINE
  5
BCC
330
A02
100
AcDbEntity
  8
Shape4181
100
AcDbLine
 10
-153.678
 20
13.2433
 30
0
 11
-140.679
 21
13.2433
 31
0
  0
ARC
  5
BCD
330
A02
100
AcDbEntity
  8
Shape4182
100
AcDbCircle
 10
-153.678
 20
12.7433
 30
0
 40
0.5
100
AcDbArc
 50
90
 51
180
  0
LINE
  5
BCE
330
A02
100
AcDbEntity
  8
Shape4183
100
AcDbLine
 10
-140.179
 20
12.7433
 30
0
 11
-140.179
 21
8.54426
 31
0
  0
ARC
  5
BCF
330
A02
100
AcDbEntity
  8
Shape4184
100
AcDbCircle
 10
-140.679
 20
12.7433
 30
0
 40
0.5
100
AcDbArc
 50
0
 51
90
  0
LINE
  5
BD0
330
A02
100
AcDbEntity
  8
Shape4185
100
AcDbLine
 10
-140.179
 20
8.54426
 30
0
 11
-138.653
 21
8.54426
 31
0
  0
LINE
  5
BD1
330
A02
100
AcDbEntity
  8
Shape4186
100
AcDbLine
 10
-138.653
 20
8.54426
 30
0
 11
-138.653
 21
13.0132
 31
0
  0
LINE
  5
BD2
330
A02
100
AcDbEntity
  8
Shape4187
100
AcDbLine
 10
-138.653
 20
13.0132
 30
0
 11
-136.93
 21
13.0132
 31
0
  0
LINE
  5
BD3
330
A02
100
AcDbEntity
  8
Shape4188
100
AcDbLine
 10
-136.93
 20
13.0132
 30
0
 11
-136.93
 21
14.2135
 31
0
  0
LINE
  5
BD4
330
A02
100
AcDbEntity
  8
Shape4189
100
AcDbLine
 10
-136.93
 20
14.2135
 30
0
 11
-133.629
 21
14.2135
 31
0
  0
LINE
  5
BD5
330
A02
100
AcDbEntity
  8
Shape4190
100
AcDbLine
 10
-133.629
 20
14.2135
 30
0
 11
-133.629
 21
13.0132
 31
0
  0
LINE
  5
BD6
330
A02
100
AcDbEntity
  8
Shape4191
100
AcDbLine
 10
-133.629
 20
13.0132
 30
0
 11
-131.904
 21
13.0132
 31
0
  0
LINE
  5
BD7
330
A02
100
AcDbEntity
  8
Shape4192
100
AcDbLine
 10
-131.904
 20
13.0132
 30
0
 11
-131.904
 21
6.74315
 31
0
  0
LINE
  5
BD8
330
A02
100
AcDbEntity
  8
Shape4193
100
AcDbLine
 10
-131.904
 20
6.74315
 30
0
 11
-131.078
 21
6.74315
 31
0
  0
LINE
  5
BD9
330
A02
100
AcDbEntity
  8
Shape4194
100
AcDbLine
 10
-131.078
 20
6.74315
 30
0
 11
-131.078
 21
3.94299
 31
0
  0
LINE
  5
BDA
330
A02
100
AcDbEntity
  8
Shape4195
100
AcDbLine
 10
-131.078
 20
3.94299
 30
0
 11
-131.904
 21
3.94299
 31
0
  0
LINE
  5
BDB
330
A02
100
AcDbEntity
  8
Shape4196
100
AcDbLine
 10
-131.904
 20
3.94299
 30
0
 11
-131.904
 21
0.714185
 31
0
  0
LINE
  5
BDC
330
A02
100
AcDbEntity
  8
Shape4197
100
AcDbLine
 10
-131.904
 20
0.714185
 30
0
 11
-138.653
 21
0.714185
 31
0
  0
LINE
  5
BDD
330
A02
100
AcDbEntity
  8
Shape4198
100
AcDbLine
 10
-138.653
 20
0.714185
 30
0
 11
-138.653
 21
3.94299
 31
0
  0
LINE
  5
BDE
330
A02
100
AcDbEntity
  8
Shape4199
100
AcDbLine
 10
-138.653
 20
3.94299
 30
0
 11
-140.179
 21
3.94299
 31
0
  0
LINE
  5
BDF
330
A02
100
AcDbEntity
  8
Shape4200
100
AcDbLine
 10
-140.179
 20
3.94299
 30
0
 11
-140.179
 21
-0.256115
 31
0
  0
ARC
  5
BE0
330
A02
100
AcDbEntity
  8
Shape4201
100
AcDbCircle
 10
-140.679
 20
-0.256115
 30
0
 40
0.5
100
AcDbArc
 50
-90
 51
0
  0
LINE
  5
BE1
330
A02
100
AcDbEntity
  8
Shape4202
100
AcDbLine
 10
-140.679
 20
-0.756115
 30
0
 11
-153.678
 21
-0.756115
 31
0
  0
CIRCLE
  5
BE2
330
A02
100
AcDbEntity
  8
Shape12732
100
AcDbCircle
 10
54.8596
 20
34.7931
 40
1.5
  0
ENDSEC
  0
SECTION
  2
OBJECTS
  0
DICTIONARY
  5
F000
330
0
100
AcDbDictionary
  3
ACAD_GROUP
350
F001
  0
DICTIONARY
  5
F001
330
F000
100
AcDbDictionary
  0
ENDSEC
  0
EOF