  0
SECTION
  2
HEADER
  9
$ACADVER
  1
AC1018
  9
$ACADMAINTVER
 70
   104
  9
$DWGCODEPAGE
  3
ANSI_936
  9
$LASTSAVEDBY
  1
DELL
  9
$INSBASE
 10
0.0
 20
0.0
 30
0.0
  9
$EXTMIN
 10
234.5752078706855
 20
179.015664742223
 30
0.0
  9
$EXTMAX
 10
538.8502078706864
 20
286.6656647422226
 30
0.0
  9
$LIMMIN
 10
0.0
 20
0.0
  9
$LIMMAX
 10
420.0
 20
297.0
  9
$ORTHOMODE
 70
     1
  9
$REGENMODE
 70
     1
  9
$FILLMODE
 70
     1
  9
$QTEXTMODE
 70
     0
  9
$MIRRTEXT
 70
     0
  9
$LTSCALE
 40
1.0
  9
$ATTMODE
 70
     1
  9
$TEXTSIZE
 40
2.5
  9
$TRACEWID
 40
1.0
  9
$TEXTSTYLE
  7
Standard
  9
$CLAYER
  8
0
  9
$CELTYPE
  6
ByLayer
  9
$CECOLOR
 62
   256
  9
$CELTSCALE
 40
1.0
  9
$DISPSILH
 70
     0
  9
$DIMSCALE
 40
1.0
  9
$DIMASZ
 40
2.5
  9
$DIMEXO
 40
0.625
  9
$DIMDLI
 40
3.75
  9
$DIMRND
 40
0.0
  9
$DIMDLE
 40
0.0
  9
$DIMEXE
 40
1.25
  9
$DIMTP
 40
0.0
  9
$DIMTM
 40
0.0
  9
$DIMTXT
 40
2.5
  9
$DIMCEN
 40
2.5
  9
$DIMTSZ
 40
0.0
  9
$DIMTOL
 70
     0
  9
$DIMLIM
 70
     0
  9
$DIMTIH
 70
     0
  9
$DIMTOH
 70
     0
  9
$DIMSE1
 70
     0
  9
$DIMSE2
 70
     0
  9
$DIMTAD
 70
     1
  9
$DIMZIN
 70
     8
  9
$DIMBLK
  1

  9
$DIMASO
 70
     1
  9
$DIMSHO
 70
     1
  9
$DIMPOST
  1

  9
$DIMAPOST
  1

  9
$DIMALT
 70
     0
  9
$DIMALTD
 70
     3
  9
$DIMALTF
 40
0.03937007874016
  9
$DIMLFAC
 40
1.0
  9
$DIMTOFL
 70
     1
  9
$DIMTVP
 40
0.0
  9
$DIMTIX
 70
     0
  9
$DIMSOXD
 70
     0
  9
$DIMSAH
 70
     0
  9
$DIMBLK1
  1

  9
$DIMBLK2
  1

  9
$DIMSTYLE
  2
ISO-25
  9
$DIMCLRD
 70
     0
  9
$DIMCLRE
 70
     0
  9
$DIMCLRT
 70
     0
  9
$DIMTFAC
 40
1.0
  9
$DIMGAP
 40
0.625
  9
$DIMJUST
 70
     0
  9
$DIMSD1
 70
     0
  9
$DIMSD2
 70
     0
  9
$DIMTOLJ
 70
     0
  9
$DIMTZIN
 70
     8
  9
$DIMALTZ
 70
     0
  9
$DIMALTTZ
 70
     0
  9
$DIMUPT
 70
     0
  9
$DIMDEC
 70
     2
  9
$DIMTDEC
 70
     2
  9
$DIMALTU
 70
     2
  9
$DIMALTTD
 70
     3
  9
$DIMTXSTY
  7
Standard
  9
$DIMAUNIT
 70
     0
  9
$DIMADEC
 70
     0
  9
$DIMALTRND
 40
0.0
  9
$DIMAZIN
 70
     0
  9
$DIMDSEP
 70
    44
  9
$DIMATFIT
 70
     3
  9
$DIMFRAC
 70
     0
  9
$DIMLDRBLK
  1

  9
$DIMLUNIT
 70
     2
  9
$DIMLWD
 70
    -2
  9
$DIMLWE
 70
    -2
  9
$DIMTMOVE
 70
     0
  9
$LUNITS
 70
     2
  9
$LUPREC
 70
     4
  9
$SKETCHINC
 40
1.0
  9
$FILLETRAD
 40
0.0
  9
$AUNITS
 70
     0
  9
$AUPREC
 70
     0
  9
$MENU
  1
.
  9
$ELEVATION
 40
0.0
  9
$PELEVATION
 40
0.0
  9
$THICKNESS
 40
0.0
  9
$LIMCHECK
 70
     0
  9
$CHAMFERA
 40
0.0
  9
$CHAMFERB
 40
0.0
  9
$CHAMFERC
 40
0.0
  9
$CHAMFERD
 40
0.0
  9
$SKPOLY
 70
     0
  9
$TDCREATE
 40
2458736.673774989
  9
$TDUCREATE
 40
2458736.340441655
  9
$TDUPDATE
 40
2458854.551285857
  9
$TDUUPDATE
 40
2458854.217952524
  9
$TDINDWG
 40
0.0027204398
  9
$TDUSRTIMER
 40
0.0027201620
  9
$USRTIMER
 70
     1
  9
$ANGBASE
 50
0.0
  9
$ANGDIR
 70
     0
  9
$PDMODE
 70
     0
  9
$PDSIZE
 40
0.0
  9
$PLINEWID
 40
0.0
  9
$SPLFRAME
 70
     0
  9
$SPLINETYPE
 70
     6
  9
$SPLINESEGS
 70
     8
  9
$HANDSEED
  5
7EB
  9
$SURFTAB1
 70
     6
  9
$SURFTAB2
 70
     6
  9
$SURFTYPE
 70
     6
  9
$SURFU
 70
     6
  9
$SURFV
 70
     6
  9
$UCSBASE
  2

  9
$UCSNAME
  2

  9
$UCSORG
 10
0.0
 20
0.0
 30
0.0
  9
$UCSXDIR
 10
1.0
 20
0.0
 30
0.0
  9
$UCSYDIR
 10
0.0
 20
1.0
 30
0.0
  9
$UCSORTHOREF
  2

  9
$UCSORTHOVIEW
 70
     0
  9
$UCSORGTOP
 10
0.0
 20
0.0
 30
0.0
  9
$UCSORGBOTTOM
 10
0.0
 20
0.0
 30
0.0
  9
$UCSORGLEFT
 10
0.0
 20
0.0
 30
0.0
  9
$UCSORGRIGHT
 10
0.0
 20
0.0
 30
0.0
  9
$UCSORGFRONT
 10
0.0
 20
0.0
 30
0.0
  9
$UCSORGBACK
 10
0.0
 20
0.0
 30
0.0
  9
$PUCSBASE
  2

  9
$PUCSNAME
  2

  9
$PUCSORG
 10
0.0
 20
0.0
 30
0.0
  9
$PUCSXDIR
 10
1.0
 20
0.0
 30
0.0
  9
$PUCSYDIR
 10
0.0
 20
1.0
 30
0.0
  9
$PUCSORTHOREF
  2

  9
$PUCSORTHOVIEW
 70
     0
  9
$PUCSORGTOP
 10
0.0
 20
0.0
 30
0.0
  9
$PUCSORGBOTTOM
 10
0.0
 20
0.0
 30
0.0
  9
$PUCSORGLEFT
 10
0.0
 20
0.0
 30
0.0
  9
$PUCSORGRIGHT
 10
0.0
 20
0.0
 30
0.0
  9
$PUCSORGFRONT
 10
0.0
 20
0.0
 30
0.0
  9
$PUCSORGBACK
 10
0.0
 20
0.0
 30
0.0
  9
$USERI1
 70
     0
  9
$USERI2
 70
     0
  9
$USERI3
 70
     0
  9
$USERI4
 70
     0
  9
$USERI5
 70
     0
  9
$USERR1
 40
0.0
  9
$USERR2
 40
0.0
  9
$USERR3
 40
0.0
  9
$USERR4
 40
0.0
  9
$USERR5
 40
2.5
  9
$WORLDVIEW
 70
     1
  9
$SHADEDGE
 70
     3
  9
$SHADEDIF
 70
    70
  9
$TILEMODE
 70
     1
  9
$MAXACTVP
 70
    64
  9
$PINSBASE
 10
0.0
 20
0.0
 30
0.0
  9
$PLIMCHECK
 70
     0
  9
$PEXTMIN
 10
0.0
 20
0.0
 30
0.0
  9
$PEXTMAX
 10
0.0
 20
0.0
 30
0.0
  9
$PLIMMIN
 10
0.0
 20
0.0
  9
$PLIMMAX
 10
12.0
 20
9.0
  9
$UNITMODE
 70
     0
  9
$VISRETAIN
 70
     1
  9
$PLINEGEN
 70
     0
  9
$PSLTSCALE
 70
     1
  9
$TREEDEPTH
 70
  3020
  9
$CMLSTYLE
  2
Standard
  9
$CMLJUST
 70
     0
  9
$CMLSCALE
 40
20.0
  9
$PROXYGRAPHICS
 70
     1
  9
$MEASUREMENT
 70
     1
  9
$CELWEIGHT
370
    -1
  9
$ENDCAPS
280
     0
  9
$JOINSTYLE
280
     0
  9
$LWDISPLAY
290
     0
  9
$INSUNITS
 70
     4
  9
$HYPERLINKBASE
  1

  9
$STYLESHEET
  1

  9
$XEDIT
290
     1
  9
$CEPSNTYPE
380
     0
  9
$PSTYLEMODE
290
     1
  9
$FINGERPRINTGUID
  2
{0CE335F1-2831-46B3-9438-DCEA1DBE44D8}
  9
$VERSIONGUID
  2
{C0B95813-609D-43D0-AD33-F377A019D609}
  9
$EXTNAMES
290
     1
  9
$PSVPSCALE
 40
0.0
  9
$OLESTARTUP
290
     0
  9
$SORTENTS
280
   127
  9
$INDEXCTL
280
     0
  9
$HIDETEXT
280
     1
  9
$XCLIPFRAME
290
     0
  9
$HALOGAP
280
     0
  9
$OBSCOLOR
 70
   257
  9
$OBSLTYPE
280
     0
  9
$INTERSECTIONDISPLAY
280
     0
  9
$INTERSECTIONCOLOR
 70
   257
  9
$DIMASSOC
280
     2
  9
$PROJECTNAME
  1

  0
ENDSEC
  0
SECTION
  2
CLASSES
  0
CLASS
  1
ACDBDICTIONARYWDFLT
  2
AcDbDictionaryWithDefault
  3
ObjectDBX Classes
 90
        0
 91
        1
280
     0
281
     0
  0
CLASS
  1
DICTIONARYVAR
  2
AcDbDictionaryVar
  3
ObjectDBX Classes
 90
        0
 91
        5
280
     0
281
     0
  0
CLASS
  1
TABLESTYLE
  2
AcDbTableStyle
  3
ObjectDBX Classes
 90
     4095
 91
        1
280
     0
281
     0
  0
CLASS
  1
MATERIAL
  2
AcDbMaterial
  3
ObjectDBX Classes
 90
     1024
 91
        3
280
     0
281
     0
  0
CLASS
  1
VISUALSTYLE
  2
AcDbVisualStyle
  3
ObjectDBX Classes
 90
     4095
 91
       16
280
     0
281
     0
  0
CLASS
  1
VLO-VL
  2
vlo_VL
  3
VL|AutoLISP based application
 90
      129
 91
        3
280
     0
281
     0
  0
CLASS
  1
SORTENTSTABLE
  2
AcDbSortentsTable
  3
ObjectDBX Classes
 90
        0
 91
        0
280
     0
281
     0
  0
ENDSEC
  0
SECTION
  2
TABLES
  0
TABLE
  2
VPORT
  5
8
330
0
100
AcDbSymbolTable
 70
     1
  0
VPORT
  5
EB
330
8
100
AcDbSymbolTableRecord
100
AcDbViewportTableRecord
  2
*Active
 70
     0
 10
0.0
 20
0.0
 11
1.0
 21
1.0
 12
409.2576412134847
 22
230.3579199821001
 13
0.0
 23
0.0
 14
10.0
 24
10.0
 15
10.0
 25
10.0
 16
0.0
 26
0.0
 36
1.0
 17
0.0
 27
0.0
 37
0.0
 40
229.992389154704
 41
1.948921679909194
 42
50.0
 43
0.0
 44
0.0
 50
0.0
 51
0.0
 71
     0
 72
  1000
 73
     1
 74
     3
 75
     0
 76
     0
 77
     0
 78
     0
281
     0
 65
     1
110
0.0
120
0.0
130
0.0
111
1.0
121
0.0
131
0.0
112
0.0
122
1.0
132
0.0
 79
     0
146
0.0
  0
ENDTAB
  0
TABLE
  2
LTYPE
  5
5
330
0
100
AcDbSymbolTable
 70
     2
  0
LTYPE
  5
14
330
5
100
AcDbSymbolTableRecord
100
AcDbLinetypeTableRecord
  2
ByBlock
 70
     0
  3

 72
    65
 73
     0
 40
0.0
  0
LTYPE
  5
15
330
5
100
AcDbSymbolTableRecord
100
AcDbLinetypeTableRecord
  2
ByLayer
 70
     0
  3

 72
    65
 73
     0
 40
0.0
  0
LTYPE
  5
16
330
5
100
AcDbSymbolTableRecord
100
AcDbLinetypeTableRecord
  2
Continuous
 70
     0
  3
Solid line
 72
    65
 73
     0
 40
0.0
  0
ENDTAB
  0
TABLE
  2
LAYER
  5
2
102
{ACAD_XDICTIONARY
360
125
102
}
330
0
100
AcDbSymbolTable
 70
     1
  0
LAYER
  5
10
330
2
100
AcDbSymbolTableRecord
100
AcDbLayerTableRecord
  2
0
 70
     0
 62
     7
  6
Continuous
370
    -3
390
F
  0
ENDTAB
  0
TABLE
  2
STYLE
  5
3
330
0
100
AcDbSymbolTable
 70
     1
  0
STYLE
  5
11
330
3
100
AcDbSymbolTableRecord
100
AcDbTextStyleTableRecord
  2
Standard
 70
     0
 40
0.0
 41
1.0
 50
0.0
 71
     0
 42
2.5
  3
txt
  4
gbcbig.shx
  0
ENDTAB
  0
TABLE
  2
VIEW
  5
6
330
0
100
AcDbSymbolTable
 70
     0
  0
ENDTAB
  0
TABLE
  2
UCS
  5
7
330
0
100
AcDbSymbolTable
 70
     0
  0
ENDTAB
  0
TABLE
  2
APPID
  5
9
330
0
100
AcDbSymbolTable
 70
     3
  0
APPID
  5
12
330
9
100
AcDbSymbolTableRecord
100
AcDbRegAppTableRecord
  2
ACAD
 70
     0
  0
APPID
  5
9E
330
9
100
AcDbSymbolTableRecord
100
AcDbRegAppTableRecord
  2
ACAD_PSEXT
 70
     0
  0
APPID
  5
7E1
330
9
100
AcDbSymbolTableRecord
100
AcDbRegAppTableRecord
  2
ACAD_EXEMPT_FROM_CAD_STANDARDS
 70
     0
  0
ENDTAB
  0
TABLE
  2
DIMSTYLE
  5
A
330
0
100
AcDbSymbolTable
 70
     2
100
AcDbDimStyleTable
 71
     1
340
27
  0
DIMSTYLE
105
27
330
A
100
AcDbSymbolTableRecord
100
AcDbDimStyleTableRecord
  2
ISO-25
 70
     0
 41
2.5
 42
0.625
 43
3.75
 44
1.25
 73
     0
 74
     0
 77
     1
 78
     8
140
2.5
141
2.5
143
0.03937007874016
147
0.625
171
     3
172
     1
271
     2
272
     2
274
     3
278
    44
283
     0
284
     8
340
11
  0
ENDTAB
  0
TABLE
  2
BLOCK_RECORD
  5
1
330
0
100
AcDbSymbolTable
 70
     2
  0
BLOCK_RECORD
  5
1F
330
1
100
AcDbSymbolTableRecord
100
AcDbBlockTableRecord
  2
*Model_Space
340
22
  0
BLOCK_RECORD
  5
D2
330
1
100
AcDbSymbolTableRecord
100
AcDbBlockTableRecord
  2
*Paper_Space
340
D3
  0
BLOCK_RECORD
  5
D6
330
1
100
AcDbSymbolTableRecord
100
AcDbBlockTableRecord
  2
*Paper_Space0
340
D7
  0
ENDTAB
  0
ENDSEC
  0
SECTION
  2
BLOCKS
  0
BLOCK
  5
20
330
1F
100
AcDbEntity
  8
0
100
AcDbBlockBegin
  2
*Model_Space
 70
     0
 10
0.0
 20
0.0
 30
0.0
  3
*Model_Space
  1

  0
ENDBLK
  5
21
330
1F
100
AcDbEntity
  8
0
100
AcDbBlockEnd
  0
BLOCK
  5
D4
330
D2
100
AcDbEntity
 67
     1
  8
0
100
AcDbBlockBegin
  2
*Paper_Space
 70
     0
 10
0.0
 20
0.0
 30
0.0
  3
*Paper_Space
  1

  0
ENDBLK
  5
D5
330
D2
100
AcDbEntity
 67
     1
  8
0
100
AcDbBlockEnd
  0
BLOCK
  5
D8
330
D6
100
AcDbEntity
 67
     1
  8
0
100
AcDbBlockBegin
  2
*Paper_Space0
 70
     0
 10
0.0
 20
0.0
 30
0.0
  3
*Paper_Space0
  1

  0
ENDBLK
  5
D9
330
D6
100
AcDbEntity
 67
     1
  8
0
100
AcDbBlockEnd
  0
ENDSEC
  0
SECTION
  2
ENTITIES
  0
LINE
  5
2AC
330
1F
100
AcDbEntity
  8
0
 48
0.1
100
AcDbLine
 10
251.075207870685
 20
277.6656647422233
 30
0.0
 11
237.0752078706851
 21
277.6656647422233
 31
0.0
  0
LINE
  5
2AD
330
1F
100
AcDbEntity
  8
0
 48
0.1
100
AcDbLine
 10
237.0752078706851
 20
277.6656647422233
 30
0.0
 11
237.0752078706851
 21
263.6656647422233
 31
0.0
  0
LINE
  5
2AE
330
1F
100
AcDbEntity
  8
0
 48
0.1
100
AcDbLine
 10
237.0752078706851
 20
263.6656647422233
 30
0.0
 11
251.075207870685
 21
263.6656647422233
 31
0.0
  0
LINE
  5
2AF
330
1F
100
AcDbEntity
  8
0
 48
0.1
100
AcDbLine
 10
251.075207870685
 20
263.6656647422233
 30
0.0
 11
251.075207870685
 21
277.6656647422233
 31
0.0
  0
LINE
  5
2B0
330
1F
100
AcDbEntity
  8
0
 48
0.1
100
AcDbLine
 10
270.0952078706846
 20
277.6656647422233
 30
0.0
 11
256.0952078706846
 21
277.6656647422233
 31
0.0
  0
LINE
  5
2B1
330
1F
100
AcDbEntity
  8
0
 48
0.1
100
AcDbLine
 10
256.0952078706846
 20
277.6656647422233
 30
0.0
 11
256.0952078706846
 21
263.6656647422233
 31
0.0
  0
LINE
  5
2B2
330
1F
100
AcDbEntity
  8
0
 48
0.1
100
AcDbLine
 10
256.0952078706846
 20
263.6656647422233
 30
0.0
 11
270.0952078706846
 21
263.6656647422233
 31
0.0
  0
LINE
  5
2B3
330
1F
100
AcDbEntity
  8
0
 48
0.1
100
AcDbLine
 10
270.0952078706846
 20
263.6656647422233
 30
0.0
 11
270.0952078706846
 21
277.6656647422233
 31
0.0
  0
LINE
  5
2B4
330
1F
100
AcDbEntity
  8
0
 48
0.1
100
AcDbLine
 10
255.8252078706851
 20
258.6456647422226
 30
0.0
 11
241.8252078706851
 21
258.6456647422226
 31
0.0
  0
LINE
  5
2B5
330
1F
100
AcDbEntity
  8
0
 48
0.1
100
AcDbLine
 10
241.8252078706851
 20
258.6456647422226
 30
0.0
 11
241.8252078706851
 21
244.6456647422226
 31
0.0
  0
LINE
  5
2B6
330
1F
100
AcDbEntity
  8
0
 48
0.1
100
AcDbLine
 10
241.8252078706851
 20
244.6456647422226
 30
0.0
 11
255.8252078706851
 21
244.6456647422226
 31
0.0
  0
LINE
  5
2B7
330
1F
100
AcDbEntity
  8
0
 48
0.1
100
AcDbLine
 10
255.8252078706851
 20
244.6456647422226
 30
0.0
 11
255.8252078706851
 21
258.6456647422226
 31
0.0
  0
LINE
  5
2B8
330
1F
100
AcDbEntity
  8
0
 48
0.1
100
AcDbLine
 10
279.5952078706855
 20
258.6456647422226
 30
0.0
 11
265.5952078706855
 21
258.6456647422226
 31
0.0
  0
LINE
  5
2B9
330
1F
100
AcDbEntity
  8
0
 48
0.1
100
AcDbLine
 10
265.5952078706855
 20
258.6456647422226
 30
0.0
 11
265.5952078706855
 21
244.6456647422226
 31
0.0
  0
LINE
  5
2BA
330
1F
100
AcDbEntity
  8
0
 48
0.1
100
AcDbLine
 10
265.5952078706855
 20
244.6456647422226
 30
0.0
 11
279.5952078706855
 21
244.6456647422226
 31
0.0
  0
LINE
  5
2BB
330
1F
100
AcDbEntity
  8
0
 48
0.1
100
AcDbLine
 10
279.5952078706855
 20
244.6456647422226
 30
0.0
 11
279.5952078706855
 21
258.6456647422226
 31
0.0
  0
LINE
  5
2BC
330
1F
100
AcDbEntity
  8
0
 48
0.1
100
AcDbLine
 10
298.6152078706851
 20
258.6456647422226
 30
0.0
 11
284.615207870685
 21
258.6456647422226
 31
0.0
  0
LINE
  5
2BD
330
1F
100
AcDbEntity
  8
0
 48
0.1
100
AcDbLine
 10
284.615207870685
 20
258.6456647422226
 30
0.0
 11
284.615207870685
 21
244.6456647422226
 31
0.0
  0
LINE
  5
2BE
330
1F
100
AcDbEntity
  8
0
 48
0.1
100
AcDbLine
 10
284.615207870685
 20
244.6456647422226
 30
0.0
 11
298.6152078706851
 21
244.6456647422226
 31
0.0
  0
LINE
  5
2BF
330
1F
100
AcDbEntity
  8
0
 48
0.1
100
AcDbLine
 10
298.6152078706851
 20
244.6456647422226
 30
0.0
 11
298.6152078706851
 21
258.6456647422226
 31
0.0
  0
LINE
  5
2C0
330
1F
100
AcDbEntity
  8
0
 48
0.1
100
AcDbLine
 10
289.115207870685
 20
277.6656647422233
 30
0.0
 11
275.115207870685
 21
277.6656647422233
 31
0.0
  0
LINE
  5
2C1
330
1F
100
AcDbEntity
  8
0
 48
0.1
100
AcDbLine
 10
275.115207870685
 20
277.6656647422233
 30
0.0
 11
275.115207870685
 21
263.6656647422233
 31
0.0
  0
LINE
  5
2C2
330
1F
100
AcDbEntity
  8
0
 48
0.1
100
AcDbLine
 10
275.115207870685
 20
263.6656647422233
 30
0.0
 11
289.115207870685
 21
263.6656647422233
 31
0.0
  0
LINE
  5
2C3
330
1F
100
AcDbEntity
  8
0
 48
0.1
100
AcDbLine
 10
289.115207870685
 20
263.6656647422233
 30
0.0
 11
289.115207870685
 21
277.6656647422233
 31
0.0
  0
LINE
  5
2C4
330
1F
100
AcDbEntity
  8
0
 48
0.1
100
AcDbLine
 10
308.1352078706846
 20
277.6656647422233
 30
0.0
 11
294.1352078706846
 21
277.6656647422233
 31
0.0
  0
LINE
  5
2C5
330
1F
100
AcDbEntity
  8
0
 48
0.1
100
AcDbLine
 10
294.1352078706846
 20
277.6656647422233
 30
0.0
 11
294.1352078706846
 21
263.6656647422233
 31
0.0
  0
LINE
  5
2C6
330
1F
100
AcDbEntity
  8
0
 48
0.1
100
AcDbLine
 10
294.1352078706846
 20
263.6656647422233
 30
0.0
 11
308.1352078706846
 21
263.6656647422233
 31
0.0
  0
LINE
  5
2C7
330
1F
100
AcDbEntity
  8
0
 48
0.1
100
AcDbLine
 10
308.1352078706846
 20
263.6656647422233
 30
0.0
 11
308.1352078706846
 21
277.6656647422233
 31
0.0
  0
LINE
  5
2C8
330
1F
100
AcDbEntity
  8
0
 48
0.1
100
AcDbLine
 10
327.1552078706859
 20
277.6656647422233
 30
0.0
 11
313.1552078706859
 21
277.6656647422233
 31
0.0
  0
LINE
  5
2C9
330
1F
100
AcDbEntity
  8
0
 48
0.1
100
AcDbLine
 10
313.1552078706859
 20
277.6656647422233
 30
0.0
 11
313.1552078706859
 21
263.6656647422233
 31
0.0
  0
LINE
  5
2CA
330
1F
100
AcDbEntity
  8
0
 48
0.1
100
AcDbLine
 10
313.1552078706859
 20
263.6656647422233
 30
0.0
 11
327.1552078706859
 21
263.6656647422233
 31
0.0
  0
LINE
  5
2CB
330
1F
100
AcDbEntity
  8
0
 48
0.1
100
AcDbLine
 10
327.1552078706859
 20
263.6656647422233
 30
0.0
 11
327.1552078706859
 21
277.6656647422233
 31
0.0
  0
LINE
  5
2CC
330
1F
100
AcDbEntity
  8
0
 48
0.1
100
AcDbLine
 10
346.1752078706845
 20
277.6656647422233
 30
0.0
 11
332.1752078706845
 21
277.6656647422233
 31
0.0
  0
LINE
  5
2CD
330
1F
100
AcDbEntity
  8
0
 48
0.1
100
AcDbLine
 10
332.1752078706845
 20
277.6656647422233
 30
0.0
 11
332.1752078706845
 21
263.6656647422233
 31
0.0
  0
LINE
  5
2CE
330
1F
100
AcDbEntity
  8
0
 48
0.1
100
AcDbLine
 10
332.1752078706845
 20
263.6656647422233
 30
0.0
 11
346.1752078706845
 21
263.6656647422233
 31
0.0
  0
LINE
  5
2CF
330
1F
100
AcDbEntity
  8
0
 48
0.1
100
AcDbLine
 10
346.1752078706845
 20
263.6656647422233
 30
0.0
 11
346.1752078706845
 21
277.6656647422233
 31
0.0
  0
LINE
  5
2D0
330
1F
100
AcDbEntity
  8
0
 48
0.1
100
AcDbLine
 10
365.1952078706859
 20
277.6656647422233
 30
0.0
 11
351.1952078706859
 21
277.6656647422233
 31
0.0
  0
LINE
  5
2D1
330
1F
100
AcDbEntity
  8
0
 48
0.1
100
AcDbLine
 10
351.1952078706859
 20
277.6656647422233
 30
0.0
 11
351.1952078706859
 21
263.6656647422233
 31
0.0
  0
LINE
  5
2D2
330
1F
100
AcDbEntity
  8
0
 48
0.1
100
AcDbLine
 10
351.1952078706859
 20
263.6656647422233
 30
0.0
 11
365.1952078706859
 21
263.6656647422233
 31
0.0
  0
LINE
  5
2D3
330
1F
100
AcDbEntity
  8
0
 48
0.1
100
AcDbLine
 10
365.1952078706859
 20
263.6656647422233
 30
0.0
 11
365.1952078706859
 21
277.6656647422233
 31
0.0
  0
LINE
  5
2D4
330
1F
100
AcDbEntity
  8
0
 48
0.1
100
AcDbLine
 10
384.2152078706853
 20
277.6656647422233
 30
0.0
 11
370.2152078706853
 21
277.6656647422233
 31
0.0
  0
LINE
  5
2D5
330
1F
100
AcDbEntity
  8
0
 48
0.1
100
AcDbLine
 10
370.2152078706853
 20
277.6656647422233
 30
0.0
 11
370.2152078706853
 21
263.6656647422233
 31
0.0
  0
LINE
  5
2D6
330
1F
100
AcDbEntity
  8
0
 48
0.1
100
AcDbLine
 10
370.2152078706853
 20
263.6656647422233
 30
0.0
 11
384.2152078706853
 21
263.6656647422233
 31
0.0
  0
LINE
  5
2D7
330
1F
100
AcDbEntity
  8
0
 48
0.1
100
AcDbLine
 10
384.2152078706853
 20
263.6656647422233
 30
0.0
 11
384.2152078706853
 21
277.6656647422233
 31
0.0
  0
LINE
  5
2D8
330
1F
100
AcDbEntity
  8
0
 48
0.1
100
AcDbLine
 10
403.2352078706853
 20
277.6656647422233
 30
0.0
 11
389.2352078706854
 21
277.6656647422233
 31
0.0
  0
LINE
  5
2D9
330
1F
100
AcDbEntity
  8
0
 48
0.1
100
AcDbLine
 10
389.2352078706854
 20
277.6656647422233
 30
0.0
 11
389.2352078706854
 21
263.6656647422233
 31
0.0
  0
LINE
  5
2DA
330
1F
100
AcDbEntity
  8
0
 48
0.1
100
AcDbLine
 10
389.2352078706854
 20
263.6656647422233
 30
0.0
 11
403.2352078706853
 21
263.6656647422233
 31
0.0
  0
LINE
  5
2DB
330
1F
100
AcDbEntity
  8
0
 48
0.1
100
AcDbLine
 10
403.2352078706853
 20
263.6656647422233
 30
0.0
 11
403.2352078706853
 21
277.6656647422233
 31
0.0
  0
LINE
  5
2DC
330
1F
100
AcDbEntity
  8
0
 48
0.1
100
AcDbLine
 10
422.2552078706843
 20
277.6656647422233
 30
0.0
 11
408.2552078706843
 21
277.6656647422233
 31
0.0
  0
LINE
  5
2DD
330
1F
100
AcDbEntity
  8
0
 48
0.1
100
AcDbLine
 10
408.2552078706843
 20
277.6656647422233
 30
0.0
 11
408.2552078706843
 21
263.6656647422233
 31
0.0
  0
LINE
  5
2DE
330
1F
100
AcDbEntity
  8
0
 48
0.1
100
AcDbLine
 10
408.2552078706843
 20
263.6656647422233
 30
0.0
 11
422.2552078706843
 21
263.6656647422233
 31
0.0
  0
LINE
  5
2DF
330
1F
100
AcDbEntity
  8
0
 48
0.1
100
AcDbLine
 10
422.2552078706843
 20
263.6656647422233
 30
0.0
 11
422.2552078706843
 21
277.6656647422233
 31
0.0
  0
LINE
  5
2E0
330
1F
100
AcDbEntity
  8
0
 48
0.1
100
AcDbLine
 10
441.2752078706849
 20
277.6656647422233
 30
0.0
 11
427.2752078706848
 21
277.6656647422233
 31
0.0
  0
LINE
  5
2E1
330
1F
100
AcDbEntity
  8
0
 48
0.1
100
AcDbLine
 10
427.2752078706848
 20
277.6656647422233
 30
0.0
 11
427.2752078706848
 21
263.6656647422233
 31
0.0
  0
LINE
  5
2E2
330
1F
100
AcDbEntity
  8
0
 48
0.1
100
AcDbLine
 10
427.2752078706848
 20
263.6656647422233
 30
0.0
 11
441.2752078706849
 21
263.6656647422233
 31
0.0
  0
LINE
  5
2E3
330
1F
100
AcDbEntity
  8
0
 48
0.1
100
AcDbLine
 10
441.2752078706849
 20
263.6656647422233
 30
0.0
 11
441.2752078706849
 21
277.6656647422233
 31
0.0
  0
LINE
  5
2E4
330
1F
100
AcDbEntity
  8
0
 48
0.1
100
AcDbLine
 10
460.2952078706853
 20
277.6656647422233
 30
0.0
 11
446.2952078706853
 21
277.6656647422233
 31
0.0
  0
LINE
  5
2E5
330
1F
100
AcDbEntity
  8
0
 48
0.1
100
AcDbLine
 10
446.2952078706853
 20
277.6656647422233
 30
0.0
 11
446.2952078706853
 21
263.6656647422233
 31
0.0
  0
LINE
  5
2E6
330
1F
100
AcDbEntity
  8
0
 48
0.1
100
AcDbLine
 10
446.2952078706853
 20
263.6656647422233
 30
0.0
 11
460.2952078706853
 21
263.6656647422233
 31
0.0
  0
LINE
  5
2E7
330
1F
100
AcDbEntity
  8
0
 48
0.1
100
AcDbLine
 10
460.2952078706853
 20
263.6656647422233
 30
0.0
 11
460.2952078706853
 21
277.6656647422233
 31
0.0
  0
LINE
  5
2E8
330
1F
100
AcDbEntity
  8
0
 48
0.1
100
AcDbLine
 10
479.3152078706851
 20
277.6656647422233
 30
0.0
 11
465.3152078706852
 21
277.6656647422233
 31
0.0
  0
LINE
  5
2E9
330
1F
100
AcDbEntity
  8
0
 48
0.1
100
AcDbLine
 10
465.3152078706852
 20
277.6656647422233
 30
0.0
 11
465.3152078706852
 21
263.6656647422233
 31
0.0
  0
LINE
  5
2EA
330
1F
100
AcDbEntity
  8
0
 48
0.1
100
AcDbLine
 10
465.3152078706852
 20
263.6656647422233
 30
0.0
 11
479.3152078706851
 21
263.6656647422233
 31
0.0
  0
LINE
  5
2EB
330
1F
100
AcDbEntity
  8
0
 48
0.1
100
AcDbLine
 10
479.3152078706851
 20
263.6656647422233
 30
0.0
 11
479.3152078706851
 21
277.6656647422233
 31
0.0
  0
LINE
  5
2EC
330
1F
100
AcDbEntity
  8
0
 48
0.1
100
AcDbLine
 10
469.7952078706854
 20
258.6456647422226
 30
0.0
 11
455.7952078706853
 21
258.6456647422226
 31
0.0
  0
LINE
  5
2ED
330
1F
100
AcDbEntity
  8
0
 48
0.1
100
AcDbLine
 10
455.7952078706853
 20
258.6456647422226
 30
0.0
 11
455.7952078706853
 21
244.6456647422226
 31
0.0
  0
LINE
  5
2EE
330
1F
100
AcDbEntity
  8
0
 48
0.1
100
AcDbLine
 10
455.7952078706853
 20
244.6456647422226
 30
0.0
 11
469.7952078706854
 21
244.6456647422226
 31
0.0
  0
LINE
  5
2EF
330
1F
100
AcDbEntity
  8
0
 48
0.1
100
AcDbLine
 10
469.7952078706854
 20
244.6456647422226
 30
0.0
 11
469.7952078706854
 21
258.6456647422226
 31
0.0
  0
LINE
  5
2F0
330
1F
100
AcDbEntity
  8
0
 48
0.1
100
AcDbLine
 10
488.8152078706847
 20
258.6456647422226
 30
0.0
 11
474.8152078706848
 21
258.6456647422226
 31
0.0
  0
LINE
  5
2F1
330
1F
100
AcDbEntity
  8
0
 48
0.1
100
AcDbLine
 10
474.8152078706848
 20
258.6456647422226
 30
0.0
 11
474.8152078706848
 21
244.6456647422226
 31
0.0
  0
LINE
  5
2F2
330
1F
100
AcDbEntity
  8
0
 48
0.1
100
AcDbLine
 10
474.8152078706848
 20
244.6456647422226
 30
0.0
 11
488.8152078706847
 21
244.6456647422226
 31
0.0
  0
LINE
  5
2F3
330
1F
100
AcDbEntity
  8
0
 48
0.1
100
AcDbLine
 10
488.8152078706847
 20
244.6456647422226
 30
0.0
 11
488.8152078706847
 21
258.6456647422226
 31
0.0
  0
LINE
  5
2F4
330
1F
100
AcDbEntity
  8
0
 48
0.1
100
AcDbLine
 10
450.7752078706849
 20
258.6456647422226
 30
0.0
 11
436.7752078706849
 21
258.6456647422226
 31
0.0
  0
LINE
  5
2F5
330
1F
100
AcDbEntity
  8
0
 48
0.1
100
AcDbLine
 10
436.7752078706849
 20
258.6456647422226
 30
0.0
 11
436.7752078706849
 21
244.6456647422226
 31
0.0
  0
LINE
  5
2F6
330
1F
100
AcDbEntity
  8
0
 48
0.1
100
AcDbLine
 10
436.7752078706849
 20
244.6456647422226
 30
0.0
 11
450.7752078706849
 21
244.6456647422226
 31
0.0
  0
LINE
  5
2F7
330
1F
100
AcDbEntity
  8
0
 48
0.1
100
AcDbLine
 10
450.7752078706849
 20
244.6456647422226
 30
0.0
 11
450.7752078706849
 21
258.6456647422226
 31
0.0
  0
LINE
  5
2F8
330
1F
100
AcDbEntity
  8
0
 48
0.1
100
AcDbLine
 10
431.7552078706853
 20
258.6456647422226
 30
0.0
 11
417.7552078706853
 21
258.6456647422226
 31
0.0
  0
LINE
  5
2F9
330
1F
100
AcDbEntity
  8
0
 48
0.1
100
AcDbLine
 10
417.7552078706853
 20
258.6456647422226
 30
0.0
 11
417.7552078706853
 21
244.6456647422226
 31
0.0
  0
LINE
  5
2FA
330
1F
100
AcDbEntity
  8
0
 48
0.1
100
AcDbLine
 10
417.7552078706853
 20
244.6456647422226
 30
0.0
 11
431.7552078706853
 21
244.6456647422226
 31
0.0
  0
LINE
  5
2FB
330
1F
100
AcDbEntity
  8
0
 48
0.1
100
AcDbLine
 10
431.7552078706853
 20
244.6456647422226
 30
0.0
 11
431.7552078706853
 21
258.6456647422226
 31
0.0
  0
LINE
  5
2FC
330
1F
100
AcDbEntity
  8
0
 48
0.1
100
AcDbLine
 10
412.7352078706849
 20
258.6456647422226
 30
0.0
 11
398.7352078706849
 21
258.6456647422226
 31
0.0
  0
LINE
  5
2FD
330
1F
100
AcDbEntity
  8
0
 48
0.1
100
AcDbLine
 10
398.7352078706849
 20
258.6456647422226
 30
0.0
 11
398.7352078706849
 21
244.6456647422226
 31
0.0
  0
LINE
  5
2FE
330
1F
100
AcDbEntity
  8
0
 48
0.1
100
AcDbLine
 10
398.7352078706849
 20
244.6456647422226
 30
0.0
 11
412.7352078706849
 21
244.6456647422226
 31
0.0
  0
LINE
  5
2FF
330
1F
100
AcDbEntity
  8
0
 48
0.1
100
AcDbLine
 10
412.7352078706849
 20
244.6456647422226
 30
0.0
 11
412.7352078706849
 21
258.6456647422226
 31
0.0
  0
LINE
  5
300
330
1F
100
AcDbEntity
  8
0
 48
0.1
100
AcDbLine
 10
393.7152078706845
 20
258.6456647422226
 30
0.0
 11
379.7152078706846
 21
258.6456647422226
 31
0.0
  0
LINE
  5
301
330
1F
100
AcDbEntity
  8
0
 48
0.1
100
AcDbLine
 10
379.7152078706846
 20
258.6456647422226
 30
0.0
 11
379.7152078706846
 21
244.6456647422226
 31
0.0
  0
LINE
  5
302
330
1F
100
AcDbEntity
  8
0
 48
0.1
100
AcDbLine
 10
379.7152078706846
 20
244.6456647422226
 30
0.0
 11
393.7152078706845
 21
244.6456647422226
 31
0.0
  0
LINE
  5
303
330
1F
100
AcDbEntity
  8
0
 48
0.1
100
AcDbLine
 10
393.7152078706845
 20
244.6456647422226
 30
0.0
 11
393.7152078706845
 21
258.6456647422226
 31
0.0
  0
LINE
  5
304
330
1F
100
AcDbEntity
  8
0
 48
0.1
100
AcDbLine
 10
374.695207870685
 20
258.6456647422226
 30
0.0
 11
360.695207870685
 21
258.6456647422226
 31
0.0
  0
LINE
  5
305
330
1F
100
AcDbEntity
  8
0
 48
0.1
100
AcDbLine
 10
360.695207870685
 20
258.6456647422226
 30
0.0
 11
360.695207870685
 21
244.6456647422226
 31
0.0
  0
LINE
  5
306
330
1F
100
AcDbEntity
  8
0
 48
0.1
100
AcDbLine
 10
360.695207870685
 20
244.6456647422226
 30
0.0
 11
374.695207870685
 21
244.6456647422226
 31
0.0
  0
LINE
  5
307
330
1F
100
AcDbEntity
  8
0
 48
0.1
100
AcDbLine
 10
374.695207870685
 20
244.6456647422226
 30
0.0
 11
374.695207870685
 21
258.6456647422226
 31
0.0
  0
LINE
  5
308
330
1F
100
AcDbEntity
  8
0
 48
0.1
100
AcDbLine
 10
355.6752078706854
 20
258.6456647422226
 30
0.0
 11
341.6752078706854
 21
258.6456647422226
 31
0.0
  0
LINE
  5
309
330
1F
100
AcDbEntity
  8
0
 48
0.1
100
AcDbLine
 10
341.6752078706854
 20
258.6456647422226
 30
0.0
 11
341.6752078706854
 21
244.6456647422226
 31
0.0
  0
LINE
  5
30A
330
1F
100
AcDbEntity
  8
0
 48
0.1
100
AcDbLine
 10
341.6752078706854
 20
244.6456647422226
 30
0.0
 11
355.6752078706854
 21
244.6456647422226
 31
0.0
  0
LINE
  5
30B
330
1F
100
AcDbEntity
  8
0
 48
0.1
100
AcDbLine
 10
355.6752078706854
 20
244.6456647422226
 30
0.0
 11
355.6752078706854
 21
258.6456647422226
 31
0.0
  0
LINE
  5
30C
330
1F
100
AcDbEntity
  8
0
 48
0.1
100
AcDbLine
 10
317.635207870685
 20
258.6456647422226
 30
0.0
 11
303.635207870685
 21
258.6456647422226
 31
0.0
  0
LINE
  5
30D
330
1F
100
AcDbEntity
  8
0
 48
0.1
100
AcDbLine
 10
303.635207870685
 20
258.6456647422226
 30
0.0
 11
303.635207870685
 21
244.6456647422226
 31
0.0
  0
LINE
  5
30E
330
1F
100
AcDbEntity
  8
0
 48
0.1
100
AcDbLine
 10
303.635207870685
 20
244.6456647422226
 30
0.0
 11
317.635207870685
 21
244.6456647422226
 31
0.0
  0
LINE
  5
30F
330
1F
100
AcDbEntity
  8
0
 48
0.1
100
AcDbLine
 10
317.635207870685
 20
244.6456647422226
 30
0.0
 11
317.635207870685
 21
258.6456647422226
 31
0.0
  0
LINE
  5
310
330
1F
100
AcDbEntity
  8
0
 48
0.1
100
AcDbLine
 10
336.655207870685
 20
258.6456647422226
 30
0.0
 11
322.655207870685
 21
258.6456647422226
 31
0.0
  0
LINE
  5
311
330
1F
100
AcDbEntity
  8
0
 48
0.1
100
AcDbLine
 10
322.655207870685
 20
258.6456647422226
 30
0.0
 11
322.655207870685
 21
244.6456647422226
 31
0.0
  0
LINE
  5
312
330
1F
100
AcDbEntity
  8
0
 48
0.1
100
AcDbLine
 10
322.655207870685
 20
244.6456647422226
 30
0.0
 11
336.655207870685
 21
244.6456647422226
 31
0.0
  0
LINE
  5
313
330
1F
100
AcDbEntity
  8
0
 48
0.1
100
AcDbLine
 10
336.655207870685
 20
244.6456647422226
 30
0.0
 11
336.655207870685
 21
258.6456647422226
 31
0.0
  0
LINE
  5
314
330
1F
100
AcDbEntity
  8
0
 48
0.1
100
AcDbLine
 10
239.4117078706849
 20
239.6256647422226
 30
0.0
 11
239.4117078706849
 21
225.6256647422226
 31
0.0
  0
LINE
  5
315
330
1F
100
AcDbEntity
  8
0
 48
0.1
100
AcDbLine
 10
258.1742078706866
 20
225.6256647422226
 30
0.0
 11
258.1742078706866
 21
239.6256647422226
 31
0.0
  0
LINE
  5
316
330
1F
100
AcDbEntity
  8
0
 48
0.1
100
AcDbLine
 10
239.4117078706849
 20
239.6256647422226
 30
0.0
 11
258.1742078706866
 21
239.6256647422226
 31
0.0
  0
LINE
  5
317
330
1F
100
AcDbEntity
  8
0
 48
0.1
100
AcDbLine
 10
239.4117078706849
 20
225.6256647422226
 30
0.0
 11
258.1742078706866
 21
225.6256647422226
 31
0.0
  0
LINE
  5
318
330
1F
100
AcDbEntity
  8
0
 48
0.1
100
AcDbLine
 10
284.3122078706869
 20
239.6256647422226
 30
0.0
 11
270.3122078706869
 21
239.6256647422226
 31
0.0
  0
LINE
  5
319
330
1F
100
AcDbEntity
  8
0
 48
0.1
100
AcDbLine
 10
270.3122078706869
 20
239.6256647422226
 30
0.0
 11
270.3122078706869
 21
225.6256647422226
 31
0.0
  0
LINE
  5
31A
330
1F
100
AcDbEntity
  8
0
 48
0.1
100
AcDbLine
 10
270.3122078706869
 20
225.6256647422226
 30
0.0
 11
284.3122078706869
 21
225.6256647422226
 31
0.0
  0
LINE
  5
31B
330
1F
100
AcDbEntity
  8
0
 48
0.1
100
AcDbLine
 10
284.3122078706869
 20
225.6256647422226
 30
0.0
 11
284.3122078706869
 21
239.6256647422226
 31
0.0
  0
LINE
  5
31C
330
1F
100
AcDbEntity
  8
0
 48
0.1
100
AcDbLine
 10
303.3502078706865
 20
239.6256647422226
 30
0.0
 11
289.3502078706865
 21
239.6256647422226
 31
0.0
  0
LINE
  5
31D
330
1F
100
AcDbEntity
  8
0
 48
0.1
100
AcDbLine
 10
289.3502078706865
 20
239.6256647422226
 30
0.0
 11
289.3502078706865
 21
225.6256647422226
 31
0.0
  0
LINE
  5
31E
330
1F
100
AcDbEntity
  8
0
 48
0.1
100
AcDbLine
 10
289.3502078706865
 20
225.6256647422226
 30
0.0
 11
303.3502078706865
 21
225.6256647422226
 31
0.0
  0
LINE
  5
31F
330
1F
100
AcDbEntity
  8
0
 48
0.1
100
AcDbLine
 10
303.3502078706865
 20
225.6256647422226
 30
0.0
 11
303.3502078706865
 21
239.6256647422226
 31
0.0
  0
LINE
  5
320
330
1F
100
AcDbEntity
  8
0
 48
0.1
100
AcDbLine
 10
322.388207870687
 20
239.6256647422226
 30
0.0
 11
308.388207870687
 21
239.6256647422226
 31
0.0
  0
LINE
  5
321
330
1F
100
AcDbEntity
  8
0
 48
0.1
100
AcDbLine
 10
308.388207870687
 20
239.6256647422226
 30
0.0
 11
308.388207870687
 21
225.6256647422226
 31
0.0
  0
LINE
  5
322
330
1F
100
AcDbEntity
  8
0
 48
0.1
100
AcDbLine
 10
308.388207870687
 20
225.6256647422226
 30
0.0
 11
322.388207870687
 21
225.6256647422226
 31
0.0
  0
LINE
  5
323
330
1F
100
AcDbEntity
  8
0
 48
0.1
100
AcDbLine
 10
322.388207870687
 20
225.6256647422226
 30
0.0
 11
322.388207870687
 21
239.6256647422226
 31
0.0
  0
LINE
  5
324
330
1F
100
AcDbEntity
  8
0
 48
0.1
100
AcDbLine
 10
341.4262078706865
 20
239.6256647422226
 30
0.0
 11
327.4262078706865
 21
239.6256647422226
 31
0.0
  0
LINE
  5
325
330
1F
100
AcDbEntity
  8
0
 48
0.1
100
AcDbLine
 10
327.4262078706865
 20
239.6256647422226
 30
0.0
 11
327.4262078706865
 21
225.6256647422226
 31
0.0
  0
LINE
  5
326
330
1F
100
AcDbEntity
  8
0
 48
0.1
100
AcDbLine
 10
327.4262078706865
 20
225.6256647422226
 30
0.0
 11
341.4262078706865
 21
225.6256647422226
 31
0.0
  0
LINE
  5
327
330
1F
100
AcDbEntity
  8
0
 48
0.1
100
AcDbLine
 10
341.4262078706865
 20
225.6256647422226
 30
0.0
 11
341.4262078706865
 21
239.6256647422226
 31
0.0
  0
LINE
  5
328
330
1F
100
AcDbEntity
  8
0
 48
0.1
100
AcDbLine
 10
360.464207870687
 20
239.6256647422226
 30
0.0
 11
346.464207870687
 21
239.6256647422226
 31
0.0
  0
LINE
  5
329
330
1F
100
AcDbEntity
  8
0
 48
0.1
100
AcDbLine
 10
346.464207870687
 20
239.6256647422226
 30
0.0
 11
346.464207870687
 21
225.6256647422226
 31
0.0
  0
LINE
  5
32A
330
1F
100
AcDbEntity
  8
0
 48
0.1
100
AcDbLine
 10
346.464207870687
 20
225.6256647422226
 30
0.0
 11
360.464207870687
 21
225.6256647422226
 31
0.0
  0
LINE
  5
32B
330
1F
100
AcDbEntity
  8
0
 48
0.1
100
AcDbLine
 10
360.464207870687
 20
225.6256647422226
 30
0.0
 11
360.464207870687
 21
239.6256647422226
 31
0.0
  0
LINE
  5
32C
330
1F
100
AcDbEntity
  8
0
 48
0.1
100
AcDbLine
 10
379.5022078706866
 20
239.6256647422226
 30
0.0
 11
365.5022078706866
 21
239.6256647422226
 31
0.0
  0
LINE
  5
32D
330
1F
100
AcDbEntity
  8
0
 48
0.1
100
AcDbLine
 10
365.5022078706866
 20
239.6256647422226
 30
0.0
 11
365.5022078706866
 21
225.6256647422226
 31
0.0
  0
LINE
  5
32E
330
1F
100
AcDbEntity
  8
0
 48
0.1
100
AcDbLine
 10
365.5022078706866
 20
225.6256647422226
 30
0.0
 11
379.5022078706866
 21
225.6256647422226
 31
0.0
  0
LINE
  5
32F
330
1F
100
AcDbEntity
  8
0
 48
0.1
100
AcDbLine
 10
379.5022078706866
 20
225.6256647422226
 30
0.0
 11
379.5022078706866
 21
239.6256647422226
 31
0.0
  0
LINE
  5
330
330
1F
100
AcDbEntity
  8
0
 48
0.1
100
AcDbLine
 10
398.540207870687
 20
239.6256647422226
 30
0.0
 11
384.540207870687
 21
239.6256647422226
 31
0.0
  0
LINE
  5
331
330
1F
100
AcDbEntity
  8
0
 48
0.1
100
AcDbLine
 10
384.540207870687
 20
239.6256647422226
 30
0.0
 11
384.540207870687
 21
225.6256647422226
 31
0.0
  0
LINE
  5
332
330
1F
100
AcDbEntity
  8
0
 48
0.1
100
AcDbLine
 10
384.540207870687
 20
225.6256647422226
 30
0.0
 11
398.540207870687
 21
225.6256647422226
 31
0.0
  0
LINE
  5
333
330
1F
100
AcDbEntity
  8
0
 48
0.1
100
AcDbLine
 10
398.540207870687
 20
225.6256647422226
 30
0.0
 11
398.540207870687
 21
239.6256647422226
 31
0.0
  0
LINE
  5
334
330
1F
100
AcDbEntity
  8
0
 48
0.1
100
AcDbLine
 10
417.578207870687
 20
239.6256647422226
 30
0.0
 11
403.578207870687
 21
239.6256647422226
 31
0.0
  0
LINE
  5
335
330
1F
100
AcDbEntity
  8
0
 48
0.1
100
AcDbLine
 10
403.578207870687
 20
239.6256647422226
 30
0.0
 11
403.578207870687
 21
225.6256647422226
 31
0.0
  0
LINE
  5
336
330
1F
100
AcDbEntity
  8
0
 48
0.1
100
AcDbLine
 10
403.578207870687
 20
225.6256647422226
 30
0.0
 11
417.578207870687
 21
225.6256647422226
 31
0.0
  0
LINE
  5
337
330
1F
100
AcDbEntity
  8
0
 48
0.1
100
AcDbLine
 10
417.578207870687
 20
225.6256647422226
 30
0.0
 11
417.578207870687
 21
239.6256647422226
 31
0.0
  0
LINE
  5
338
330
1F
100
AcDbEntity
  8
0
 48
0.1
100
AcDbLine
 10
436.616207870687
 20
239.6256647422226
 30
0.0
 11
422.616207870687
 21
239.6256647422226
 31
0.0
  0
LINE
  5
339
330
1F
100
AcDbEntity
  8
0
 48
0.1
100
AcDbLine
 10
422.616207870687
 20
239.6256647422226
 30
0.0
 11
422.616207870687
 21
225.6256647422226
 31
0.0
  0
LINE
  5
33A
330
1F
100
AcDbEntity
  8
0
 48
0.1
100
AcDbLine
 10
422.616207870687
 20
225.6256647422226
 30
0.0
 11
436.616207870687
 21
225.6256647422226
 31
0.0
  0
LINE
  5
33B
330
1F
100
AcDbEntity
  8
0
 48
0.1
100
AcDbLine
 10
436.616207870687
 20
225.6256647422226
 30
0.0
 11
436.616207870687
 21
239.6256647422226
 31
0.0
  0
LINE
  5
33C
330
1F
100
AcDbEntity
  8
0
 48
0.1
100
AcDbLine
 10
455.6542078706867
 20
239.6256647422226
 30
0.0
 11
441.6542078706866
 21
239.6256647422226
 31
0.0
  0
LINE
  5
33D
330
1F
100
AcDbEntity
  8
0
 48
0.1
100
AcDbLine
 10
441.6542078706866
 20
239.6256647422226
 30
0.0
 11
441.6542078706866
 21
225.6256647422226
 31
0.0
  0
LINE
  5
33E
330
1F
100
AcDbEntity
  8
0
 48
0.1
100
AcDbLine
 10
441.6542078706866
 20
225.6256647422226
 30
0.0
 11
455.6542078706867
 21
225.6256647422226
 31
0.0
  0
LINE
  5
33F
330
1F
100
AcDbEntity
  8
0
 48
0.1
100
AcDbLine
 10
455.6542078706867
 20
225.6256647422226
 30
0.0
 11
455.6542078706867
 21
239.6256647422226
 31
0.0
  0
LINE
  5
340
330
1F
100
AcDbEntity
  8
0
 48
0.1
100
AcDbLine
 10
474.6922078706869
 20
239.6256647422226
 30
0.0
 11
460.6922078706871
 21
239.6256647422226
 31
0.0
  0
LINE
  5
341
330
1F
100
AcDbEntity
  8
0
 48
0.1
100
AcDbLine
 10
460.6922078706871
 20
239.6256647422226
 30
0.0
 11
460.6922078706871
 21
225.6256647422226
 31
0.0
  0
LINE
  5
342
330
1F
100
AcDbEntity
  8
0
 48
0.1
100
AcDbLine
 10
460.6922078706871
 20
225.6256647422226
 30
0.0
 11
474.6922078706869
 21
225.6256647422226
 31
0.0
  0
LINE
  5
343
330
1F
100
AcDbEntity
  8
0
 48
0.1
100
AcDbLine
 10
474.6922078706869
 20
225.6256647422226
 30
0.0
 11
474.6922078706869
 21
239.6256647422226
 31
0.0
  0
LINE
  5
344
330
1F
100
AcDbEntity
  8
0
 48
0.1
100
AcDbLine
 10
464.8242078706862
 20
220.6056647422233
 30
0.0
 11
450.8242078706861
 21
220.6056647422233
 31
0.0
  0
LINE
  5
345
330
1F
100
AcDbEntity
  8
0
 48
0.1
100
AcDbLine
 10
450.8242078706861
 20
220.6056647422233
 30
0.0
 11
450.8242078706861
 21
206.6056647422233
 31
0.0
  0
LINE
  5
346
330
1F
100
AcDbEntity
  8
0
 48
0.1
100
AcDbLine
 10
450.8242078706861
 20
206.6056647422233
 30
0.0
 11
464.8242078706862
 21
206.6056647422233
 31
0.0
  0
LINE
  5
347
330
1F
100
AcDbEntity
  8
0
 48
0.1
100
AcDbLine
 10
464.8242078706862
 20
206.6056647422233
 30
0.0
 11
464.8242078706862
 21
220.6056647422233
 31
0.0
  0
LINE
  5
348
330
1F
100
AcDbEntity
  8
0
 48
0.1
100
AcDbLine
 10
445.8092078706863
 20
220.6056647422233
 30
0.0
 11
431.8092078706863
 21
220.6056647422233
 31
0.0
  0
LINE
  5
349
330
1F
100
AcDbEntity
  8
0
 48
0.1
100
AcDbLine
 10
431.8092078706863
 20
220.6056647422233
 30
0.0
 11
431.8092078706863
 21
206.6056647422233
 31
0.0
  0
LINE
  5
34A
330
1F
100
AcDbEntity
  8
0
 48
0.1
100
AcDbLine
 10
431.8092078706863
 20
206.6056647422233
 30
0.0
 11
445.8092078706863
 21
206.6056647422233
 31
0.0
  0
LINE
  5
34B
330
1F
100
AcDbEntity
  8
0
 48
0.1
100
AcDbLine
 10
445.8092078706863
 20
206.6056647422233
 30
0.0
 11
445.8092078706863
 21
220.6056647422233
 31
0.0
  0
LINE
  5
34C
330
1F
100
AcDbEntity
  8
0
 48
0.1
100
AcDbLine
 10
426.7942078706863
 20
220.6056647422233
 30
0.0
 11
412.7942078706865
 21
220.6056647422233
 31
0.0
  0
LINE
  5
34D
330
1F
100
AcDbEntity
  8
0
 48
0.1
100
AcDbLine
 10
412.7942078706865
 20
220.6056647422233
 30
0.0
 11
412.7942078706865
 21
206.6056647422233
 31
0.0
  0
LINE
  5
34E
330
1F
100
AcDbEntity
  8
0
 48
0.1
100
AcDbLine
 10
412.7942078706865
 20
206.6056647422233
 30
0.0
 11
426.7942078706863
 21
206.6056647422233
 31
0.0
  0
LINE
  5
34F
330
1F
100
AcDbEntity
  8
0
 48
0.1
100
AcDbLine
 10
426.7942078706863
 20
206.6056647422233
 30
0.0
 11
426.7942078706863
 21
220.6056647422233
 31
0.0
  0
LINE
  5
350
330
1F
100
AcDbEntity
  8
0
 48
0.1
100
AcDbLine
 10
407.7792078706866
 20
220.6056647422233
 30
0.0
 11
393.7792078706867
 21
220.6056647422233
 31
0.0
  0
LINE
  5
351
330
1F
100
AcDbEntity
  8
0
 48
0.1
100
AcDbLine
 10
393.7792078706867
 20
220.6056647422233
 30
0.0
 11
393.7792078706867
 21
206.6056647422233
 31
0.0
  0
LINE
  5
352
330
1F
100
AcDbEntity
  8
0
 48
0.1
100
AcDbLine
 10
393.7792078706867
 20
206.6056647422233
 30
0.0
 11
407.7792078706866
 21
206.6056647422233
 31
0.0
  0
LINE
  5
353
330
1F
100
AcDbEntity
  8
0
 48
0.1
100
AcDbLine
 10
407.7792078706866
 20
206.6056647422233
 30
0.0
 11
407.7792078706866
 21
220.6056647422233
 31
0.0
  0
LINE
  5
354
330
1F
100
AcDbEntity
  8
0
 48
0.1
100
AcDbLine
 10
388.7642078706863
 20
220.6056647422233
 30
0.0
 11
374.7642078706864
 21
220.6056647422233
 31
0.0
  0
LINE
  5
355
330
1F
100
AcDbEntity
  8
0
 48
0.1
100
AcDbLine
 10
374.7642078706864
 20
220.6056647422233
 30
0.0
 11
374.7642078706864
 21
206.6056647422233
 31
0.0
  0
LINE
  5
356
330
1F
100
AcDbEntity
  8
0
 48
0.1
100
AcDbLine
 10
374.7642078706864
 20
206.6056647422233
 30
0.0
 11
388.7642078706863
 21
206.6056647422233
 31
0.0
  0
LINE
  5
357
330
1F
100
AcDbEntity
  8
0
 48
0.1
100
AcDbLine
 10
388.7642078706863
 20
206.6056647422233
 30
0.0
 11
388.7642078706863
 21
220.6056647422233
 31
0.0
  0
LINE
  5
358
330
1F
100
AcDbEntity
  8
0
 48
0.1
100
AcDbLine
 10
369.7492078706864
 20
220.6056647422233
 30
0.0
 11
355.7492078706864
 21
220.6056647422233
 31
0.0
  0
LINE
  5
359
330
1F
100
AcDbEntity
  8
0
 48
0.1
100
AcDbLine
 10
355.7492078706864
 20
220.6056647422233
 30
0.0
 11
355.7492078706864
 21
206.6056647422233
 31
0.0
  0
LINE
  5
35A
330
1F
100
AcDbEntity
  8
0
 48
0.1
100
AcDbLine
 10
355.7492078706864
 20
206.6056647422233
 30
0.0
 11
369.7492078706864
 21
206.6056647422233
 31
0.0
  0
LINE
  5
35B
330
1F
100
AcDbEntity
  8
0
 48
0.1
100
AcDbLine
 10
369.7492078706864
 20
206.6056647422233
 30
0.0
 11
369.7492078706864
 21
220.6056647422233
 31
0.0
  0
LINE
  5
35C
330
1F
100
AcDbEntity
  8
0
 48
0.1
100
AcDbLine
 10
350.7342078706865
 20
220.6056647422233
 30
0.0
 11
336.7342078706865
 21
220.6056647422233
 31
0.0
  0
LINE
  5
35D
330
1F
100
AcDbEntity
  8
0
 48
0.1
100
AcDbLine
 10
336.7342078706865
 20
220.6056647422233
 30
0.0
 11
336.7342078706865
 21
206.6056647422233
 31
0.0
  0
LINE
  5
35E
330
1F
100
AcDbEntity
  8
0
 48
0.1
100
AcDbLine
 10
336.7342078706865
 20
206.6056647422233
 30
0.0
 11
350.7342078706865
 21
206.6056647422233
 31
0.0
  0
LINE
  5
35F
330
1F
100
AcDbEntity
  8
0
 48
0.1
100
AcDbLine
 10
350.7342078706865
 20
206.6056647422233
 30
0.0
 11
350.7342078706865
 21
220.6056647422233
 31
0.0
  0
LINE
  5
360
330
1F
100
AcDbEntity
  8
0
 48
0.1
100
AcDbLine
 10
331.7192078706862
 20
220.6056647422233
 30
0.0
 11
317.7192078706862
 21
220.6056647422233
 31
0.0
  0
LINE
  5
361
330
1F
100
AcDbEntity
  8
0
 48
0.1
100
AcDbLine
 10
317.7192078706862
 20
220.6056647422233
 30
0.0
 11
317.7192078706862
 21
206.6056647422233
 31
0.0
  0
LINE
  5
362
330
1F
100
AcDbEntity
  8
0
 48
0.1
100
AcDbLine
 10
317.7192078706862
 20
206.6056647422233
 30
0.0
 11
331.7192078706862
 21
206.6056647422233
 31
0.0
  0
LINE
  5
363
330
1F
100
AcDbEntity
  8
0
 48
0.1
100
AcDbLine
 10
331.7192078706862
 20
206.6056647422233
 30
0.0
 11
331.7192078706862
 21
220.6056647422233
 31
0.0
  0
LINE
  5
364
330
1F
100
AcDbEntity
  8
0
 48
0.1
100
AcDbLine
 10
312.7042078706868
 20
220.6056647422233
 30
0.0
 11
298.7042078706868
 21
220.6056647422233
 31
0.0
  0
LINE
  5
365
330
1F
100
AcDbEntity
  8
0
 48
0.1
100
AcDbLine
 10
298.7042078706868
 20
220.6056647422233
 30
0.0
 11
298.7042078706868
 21
206.6056647422233
 31
0.0
  0
LINE
  5
366
330
1F
100
AcDbEntity
  8
0
 48
0.1
100
AcDbLine
 10
298.7042078706868
 20
206.6056647422233
 30
0.0
 11
312.7042078706868
 21
206.6056647422233
 31
0.0
  0
LINE
  5
367
330
1F
100
AcDbEntity
  8
0
 48
0.1
100
AcDbLine
 10
312.7042078706868
 20
206.6056647422233
 30
0.0
 11
312.7042078706868
 21
220.6056647422233
 31
0.0
  0
LINE
  5
368
330
1F
100
AcDbEntity
  8
0
 48
0.1
100
AcDbLine
 10
293.6892078706865
 20
220.6056647422233
 30
0.0
 11
279.6892078706865
 21
220.6056647422233
 31
0.0
  0
LINE
  5
369
330
1F
100
AcDbEntity
  8
0
 48
0.1
100
AcDbLine
 10
279.6892078706865
 20
220.6056647422233
 30
0.0
 11
279.6892078706865
 21
206.6056647422233
 31
0.0
  0
LINE
  5
36A
330
1F
100
AcDbEntity
  8
0
 48
0.1
100
AcDbLine
 10
279.6892078706865
 20
206.6056647422233
 30
0.0
 11
293.6892078706865
 21
206.6056647422233
 31
0.0
  0
LINE
  5
36B
330
1F
100
AcDbEntity
  8
0
 48
0.1
100
AcDbLine
 10
293.6892078706865
 20
206.6056647422233
 30
0.0
 11
293.6892078706865
 21
220.6056647422233
 31
0.0
  0
LINE
  5
36C
330
1F
100
AcDbEntity
  8
0
100
AcDbLine
 10
485.1922078706856
 20
261.4756647422233
 30
0.0
 11
485.1922078706856
 21
263.6656647422232
 31
0.0
  0
LINE
  5
36D
330
1F
100
AcDbEntity
  8
0
100
AcDbLine
 10
492.5922078706851
 20
263.6656647422232
 30
0.0
 11
492.5922078706848
 21
261.4756647422233
 31
0.0
  0
LINE
  5
36E
330
1F
100
AcDbEntity
  8
0
100
AcDbLine
 10
485.1922078706851
 20
261.4756647422233
 30
0.0
 11
492.5922078706848
 21
261.4756647422233
 31
0.0
  0
LINE
  5
36F
330
1F
100
AcDbEntity
  8
0
100
AcDbLine
 10
509.0682078706858
 20
261.4756647422233
 30
0.0
 11
509.0682078706858
 21
263.6656647422232
 31
0.0
  0
LINE
  5
370
330
1F
100
AcDbEntity
  8
0
100
AcDbLine
 10
516.4682078706849
 20
263.6656647422232
 30
0.0
 11
516.4682078706849
 21
261.4756647422233
 31
0.0
  0
LINE
  5
371
330
1F
100
AcDbEntity
  8
0
100
AcDbLine
 10
509.0682078706853
 20
261.4756647422233
 30
0.0
 11
516.4682078706849
 21
261.4756647422233
 31
0.0
  0
LINE
  5
372
330
1F
100
AcDbEntity
  8
0
100
AcDbLine
 10
264.1122078706881
 20
204.4156647422234
 30
0.0
 11
264.1122078706876
 21
206.6056647422233
 31
0.0
  0
LINE
  5
373
330
1F
100
AcDbEntity
  8
0
100
AcDbLine
 10
271.5122078706873
 20
206.6056647422233
 30
0.0
 11
271.5122078706873
 21
204.4156647422234
 31
0.0
  0
LINE
  5
374
330
1F
100
AcDbEntity
  8
0
100
AcDbLine
 10
264.1122078706876
 20
204.4156647422234
 30
0.0
 11
271.5122078706873
 21
204.4156647422234
 31
0.0
  0
LINE
  5
375
330
1F
100
AcDbEntity
  8
0
100
AcDbLine
 10
240.2362078706878
 20
204.4156647422234
 30
0.0
 11
240.2362078706874
 21
206.6056647422235
 31
0.0
  0
LINE
  5
376
330
1F
100
AcDbEntity
  8
0
100
AcDbLine
 10
247.636207870687
 20
206.6056647422235
 30
0.0
 11
247.636207870687
 21
204.4156647422234
 31
0.0
  0
LINE
  5
377
330
1F
100
AcDbEntity
  8
0
100
AcDbLine
 10
240.2362078706874
 20
204.4156647422234
 30
0.0
 11
247.636207870687
 21
204.4156647422234
 31
0.0
  0
LINE
  5
378
330
1F
100
AcDbEntity
  8
0
100
AcDbLine
 10
490.2922078706864
 20
241.8156647422226
 30
0.0
 11
490.2922078706868
 21
239.6256647422226
 31
0.0
  0
LINE
  5
379
330
1F
100
AcDbEntity
  8
0
100
AcDbLine
 10
482.8922078706863
 20
239.6256647422226
 30
0.0
 11
482.8922078706873
 21
241.8156647422226
 31
0.0
  0
LINE
  5
37A
330
1F
100
AcDbEntity
  8
0
100
AcDbLine
 10
490.2922078706868
 20
241.8156647422226
 30
0.0
 11
482.8922078706873
 21
241.8156647422226
 31
0.0
  0
LINE
  5
37C
330
1F
100
AcDbEntity
  8
0
 48
0.1
100
AcDbLine
 10
239.2642078706876
 20
220.6056647422236
 30
0.0
 11
239.2642078706876
 21
206.6056647422235
 31
0.0
  0
LINE
  5
37D
330
1F
100
AcDbEntity
  8
0
 48
0.1
100
AcDbLine
 10
239.2642078706876
 20
206.6056647422235
 30
0.0
 11
240.2362078706878
 21
206.6056647422235
 31
0.0
  0
LINE
  5
37E
330
1F
100
AcDbEntity
  8
0
 48
0.1
100
AcDbLine
 10
271.5122078706873
 20
206.6056647422233
 30
0.0
 11
274.7942078706874
 21
206.6056647422233
 31
0.0
  0
LINE
  5
37F
330
1F
100
AcDbEntity
  8
0
 48
0.1
100
AcDbLine
 10
274.7942078706874
 20
206.6056647422233
 30
0.0
 11
274.7942078706874
 21
220.6056647422233
 31
0.0
  0
LINE
  5
380
330
1F
100
AcDbEntity
  8
0
 48
0.1
100
AcDbLine
 10
247.636207870687
 20
206.6056647422235
 30
0.0
 11
264.1122078706876
 21
206.605664742227
 31
0.0
  0
LINE
  5
381
330
1F
100
AcDbEntity
  8
0
 48
0.1
100
AcDbLine
 10
239.2642078706876
 20
220.6056647422236
 30
0.0
 11
274.7942078706874
 21
220.6056647422236
 31
0.0
  0
LINE
  5
382
330
1F
100
AcDbEntity
  8
0
 48
0.1
100
AcDbLine
 10
498.3102078706856
 20
201.5856647422233
 30
0.0
 11
484.3102078706856
 21
201.5856647422233
 31
0.0
  0
LINE
  5
383
330
1F
100
AcDbEntity
  8
0
 48
0.1
100
AcDbLine
 10
484.3102078706856
 20
201.5856647422233
 30
0.0
 11
484.3102078706856
 21
187.5856647422233
 31
0.0
  0
LINE
  5
384
330
1F
100
AcDbEntity
  8
0
 48
0.1
100
AcDbLine
 10
484.3102078706856
 20
187.5856647422233
 30
0.0
 11
498.3102078706856
 21
187.5856647422233
 31
0.0
  0
LINE
  5
385
330
1F
100
AcDbEntity
  8
0
 48
0.1
100
AcDbLine
 10
498.3102078706856
 20
187.5856647422233
 30
0.0
 11
498.3102078706856
 21
201.5856647422233
 31
0.0
  0
LINE
  5
386
330
1F
100
AcDbEntity
  8
0
 48
0.1
100
AcDbLine
 10
517.3302078706852
 20
201.5856647422233
 30
0.0
 11
503.3302078706851
 21
201.5856647422233
 31
0.0
  0
LINE
  5
387
330
1F
100
AcDbEntity
  8
0
 48
0.1
100
AcDbLine
 10
503.3302078706851
 20
201.5856647422233
 30
0.0
 11
503.3302078706851
 21
187.5856647422233
 31
0.0
  0
LINE
  5
388
330
1F
100
AcDbEntity
  8
0
 48
0.1
100
AcDbLine
 10
503.3302078706851
 20
187.5856647422233
 30
0.0
 11
517.3302078706852
 21
187.5856647422233
 31
0.0
  0
LINE
  5
389
330
1F
100
AcDbEntity
  8
0
 48
0.1
100
AcDbLine
 10
517.3302078706852
 20
187.5856647422233
 30
0.0
 11
517.3302078706852
 21
201.5856647422233
 31
0.0
  0
LINE
  5
38A
330
1F
100
AcDbEntity
  8
0
 48
0.1
100
AcDbLine
 10
536.3502078706856
 20
201.5856647422233
 30
0.0
 11
522.3502078706856
 21
201.5856647422233
 31
0.0
  0
LINE
  5
38B
330
1F
100
AcDbEntity
  8
0
 48
0.1
100
AcDbLine
 10
522.3502078706856
 20
201.5856647422233
 30
0.0
 11
522.3502078706856
 21
187.5856647422233
 31
0.0
  0
LINE
  5
38C
330
1F
100
AcDbEntity
  8
0
 48
0.1
100
AcDbLine
 10
522.3502078706856
 20
187.5856647422233
 30
0.0
 11
536.3502078706856
 21
187.5856647422233
 31
0.0
  0
LINE
  5
38D
330
1F
100
AcDbEntity
  8
0
 48
0.1
100
AcDbLine
 10
536.3502078706856
 20
187.5856647422233
 30
0.0
 11
536.3502078706856
 21
201.5856647422233
 31
0.0
  0
LINE
  5
38E
330
1F
100
AcDbEntity
  8
0
 48
0.1
100
AcDbLine
 10
536.3502078706856
 20
220.6056647422233
 30
0.0
 11
522.3502078706856
 21
220.6056647422233
 31
0.0
  0
LINE
  5
38F
330
1F
100
AcDbEntity
  8
0
 48
0.1
100
AcDbLine
 10
522.3502078706856
 20
220.6056647422233
 30
0.0
 11
522.3502078706856
 21
206.6056647422233
 31
0.0
  0
LINE
  5
390
330
1F
100
AcDbEntity
  8
0
 48
0.1
100
AcDbLine
 10
522.3502078706856
 20
206.6056647422233
 30
0.0
 11
536.3502078706856
 21
206.6056647422233
 31
0.0
  0
LINE
  5
391
330
1F
100
AcDbEntity
  8
0
 48
0.1
100
AcDbLine
 10
536.3502078706856
 20
206.6056647422233
 30
0.0
 11
536.3502078706856
 21
220.6056647422233
 31
0.0
  0
LINE
  5
392
330
1F
100
AcDbEntity
  8
0
 48
0.1
100
AcDbLine
 10
536.3502078706856
 20
239.6256647422233
 30
0.0
 11
522.3502078706856
 21
239.6256647422233
 31
0.0
  0
LINE
  5
393
330
1F
100
AcDbEntity
  8
0
 48
0.1
100
AcDbLine
 10
522.3502078706856
 20
239.6256647422233
 30
0.0
 11
522.3502078706856
 21
225.6256647422233
 31
0.0
  0
LINE
  5
394
330
1F
100
AcDbEntity
  8
0
 48
0.1
100
AcDbLine
 10
522.3502078706856
 20
225.6256647422233
 30
0.0
 11
536.3502078706856
 21
225.6256647422233
 31
0.0
  0
LINE
  5
395
330
1F
100
AcDbEntity
  8
0
 48
0.1
100
AcDbLine
 10
536.3502078706856
 20
225.6256647422233
 30
0.0
 11
536.3502078706856
 21
239.6256647422233
 31
0.0
  0
LINE
  5
396
330
1F
100
AcDbEntity
  8
0
 48
0.1
100
AcDbLine
 10
536.3502078706856
 20
258.6456647422234
 30
0.0
 11
522.3502078706856
 21
258.6456647422234
 31
0.0
  0
LINE
  5
397
330
1F
100
AcDbEntity
  8
0
 48
0.1
100
AcDbLine
 10
522.3502078706856
 20
258.6456647422234
 30
0.0
 11
522.3502078706856
 21
244.6456647422233
 31
0.0
  0
LINE
  5
398
330
1F
100
AcDbEntity
  8
0
 48
0.1
100
AcDbLine
 10
522.3502078706856
 20
244.6456647422233
 30
0.0
 11
536.3502078706856
 21
244.6456647422233
 31
0.0
  0
LINE
  5
399
330
1F
100
AcDbEntity
  8
0
 48
0.1
100
AcDbLine
 10
536.3502078706856
 20
244.6456647422233
 30
0.0
 11
536.3502078706856
 21
258.6456647422234
 31
0.0
  0
LINE
  5
39A
330
1F
100
AcDbEntity
  8
0
 48
0.1
100
AcDbLine
 10
522.3502078706856
 20
263.6656647422233
 30
0.0
 11
536.3502078706856
 21
263.6656647422233
 31
0.0
  0
LINE
  5
39B
330
1F
100
AcDbEntity
  8
0
 48
0.1
100
AcDbLine
 10
536.3502078706856
 20
263.6656647422233
 30
0.0
 11
536.3502078706856
 21
277.6656647422233
 31
0.0
  0
LINE
  5
39C
330
1F
100
AcDbEntity
  8
0
 48
0.1
100
AcDbLine
 10
493.8302078706851
 20
263.6656647422233
 30
0.0
 11
507.8302078706851
 21
263.6656647422233
 31
0.0
  0
LINE
  5
39D
330
1F
100
AcDbEntity
  8
0
 48
0.1
100
AcDbLine
 10
518.3502078706855
 20
258.6456647422226
 30
0.0
 11
496.3902078706856
 21
258.6456647422226
 31
0.0
  0
LINE
  5
39E
330
1F
100
AcDbEntity
  8
0
 48
0.1
100
AcDbLine
 10
479.7302078706866
 20
239.6256647422226
 30
0.0
 11
479.7302078706866
 21
225.6256647422226
 31
0.0
  0
LINE
  5
39F
330
1F
100
AcDbEntity
  8
0
100
AcDbLine
 10
496.3902078706856
 20
258.6456647422226
 30
0.0
 11
496.3902078706856
 21
250.3836647422231
 31
0.0
  0
LINE
  5
3A0
330
1F
100
AcDbEntity
  8
0
 48
0.1
100
AcDbLine
 10
517.3302078706852
 20
220.6056647422233
 30
0.0
 11
503.3302078706851
 21
220.6056647422233
 31
0.0
  0
LINE
  5
3A1
330
1F
100
AcDbEntity
  8
0
 48
0.1
100
AcDbLine
 10
503.3302078706851
 20
220.6056647422233
 30
0.0
 11
503.3302078706851
 21
206.6056647422233
 31
0.0
  0
LINE
  5
3A2
330
1F
100
AcDbEntity
  8
0
 48
0.1
100
AcDbLine
 10
503.3302078706851
 20
206.6056647422233
 30
0.0
 11
517.3302078706852
 21
206.6056647422233
 31
0.0
  0
LINE
  5
3A3
330
1F
100
AcDbEntity
  8
0
 48
0.1
100
AcDbLine
 10
517.3302078706852
 20
206.6056647422233
 30
0.0
 11
517.3302078706852
 21
220.6056647422233
 31
0.0
  0
LINE
  5
3A4
330
1F
100
AcDbEntity
  8
0
 48
0.1
100
AcDbLine
 10
491.0772078706854
 20
220.6056647422233
 30
0.0
 11
477.0772078706853
 21
220.6056647422233
 31
0.0
  0
LINE
  5
3A5
330
1F
100
AcDbEntity
  8
0
 48
0.1
100
AcDbLine
 10
477.0772078706853
 20
220.6056647422233
 30
0.0
 11
477.0772078706853
 21
206.6056647422233
 31
0.0
  0
LINE
  5
3A6
330
1F
100
AcDbEntity
  8
0
 48
0.1
100
AcDbLine
 10
477.0772078706853
 20
206.6056647422233
 30
0.0
 11
491.0772078706854
 21
206.6056647422233
 31
0.0
  0
LINE
  5
3A7
330
1F
100
AcDbEntity
  8
0
 48
0.1
100
AcDbLine
 10
491.0772078706854
 20
206.6056647422233
 30
0.0
 11
491.0772078706854
 21
220.6056647422233
 31
0.0
  0
LINE
  5
3A8
330
1F
100
AcDbEntity
  8
0
 48
0.1
100
AcDbLine
 10
479.7302078706866
 20
225.6256647422226
 30
0.0
 11
518.3502078706855
 21
225.6256647422226
 31
0.0
  0
LINE
  5
3A9
330
1F
100
AcDbEntity
  8
0
 48
0.1
100
AcDbLine
 10
479.7302078706866
 20
239.6256647422226
 30
0.0
 11
482.8922078706868
 21
239.6256647422226
 31
0.0
  0
LINE
  5
3AA
330
1F
100
AcDbEntity
  8
0
 48
0.1
100
AcDbLine
 10
490.2922078706868
 20
239.6256647422226
 30
0.0
 11
498.5802078706856
 21
239.6256647422226
 31
0.0
  0
LINE
  5
3AB
330
1F
100
AcDbEntity
  8
0
 48
0.1
100
AcDbLine
 10
498.5802078706856
 20
239.6256647422226
 30
0.0
 11
498.5802078706856
 21
250.3836647422231
 31
0.0
  0
LINE
  5
3AC
330
1F
100
AcDbEntity
  8
0
 48
0.1
100
AcDbLine
 10
496.3902078706856
 20
250.3836647422231
 30
0.0
 11
498.5802078706856
 21
250.3836647422231
 31
0.0
  0
LINE
  5
3AD
330
1F
100
AcDbEntity
  8
0
 48
0.1
100
AcDbLine
 10
260.1742078706866
 20
239.6256647422226
 30
0.0
 11
260.1742078706866
 21
225.6256647422226
 31
0.0
  0
LINE
  5
3AE
330
1F
100
AcDbEntity
  8
0
 48
0.1
100
AcDbLine
 10
268.3122078706869
 20
239.6256647422226
 30
0.0
 11
268.3122078706869
 21
225.6256647422226
 31
0.0
  0
LINE
  5
3AF
330
1F
100
AcDbEntity
  8
0
 48
0.1
100
AcDbLine
 10
260.1742078706866
 20
225.6256647422226
 30
0.0
 11
268.3122078706869
 21
225.6256647422226
 31
0.0
  0
LINE
  5
3B0
330
1F
100
AcDbEntity
  8
0
 48
0.1
100
AcDbLine
 10
260.1742078706866
 20
239.6256647422226
 30
0.0
 11
268.3122078706869
 21
239.6256647422226
 31
0.0
  0
LINE
  5
3B1
330
1F
100
AcDbEntity
  8
0
 48
0.1
100
AcDbLine
 10
257.8252078706851
 20
258.6456647422226
 30
0.0
 11
257.8252078706851
 21
244.6456647422226
 31
0.0
  0
LINE
  5
3B2
330
1F
100
AcDbEntity
  8
0
 48
0.1
100
AcDbLine
 10
263.5952078706855
 20
244.6456647422226
 30
0.0
 11
263.5952078706855
 21
258.6456647422226
 31
0.0
  0
LINE
  5
3B3
330
1F
100
AcDbEntity
  8
0
 48
0.1
100
AcDbLine
 10
257.8252078706851
 20
258.6456647422226
 30
0.0
 11
263.5952078706855
 21
258.6456647422226
 31
0.0
  0
LINE
  5
3B4
330
1F
100
AcDbEntity
  8
0
 48
0.1
100
AcDbLine
 10
263.5952078706855
 20
244.6456647422226
 30
0.0
 11
257.8252078706851
 21
244.6456647422226
 31
0.0
  0
LINE
  5
3B5
330
1F
100
AcDbEntity
  8
0
 48
0.1
100
AcDbLine
 10
466.8242078706861
 20
220.6056647422233
 30
0.0
 11
466.8242078706861
 21
206.6056647422233
 31
0.0
  0
LINE
  5
3B6
330
1F
100
AcDbEntity
  8
0
 48
0.1
100
AcDbLine
 10
475.0772078706853
 20
206.6056647422233
 30
0.0
 11
475.0772078706853
 21
220.6056647422233
 31
0.0
  0
LINE
  5
3B7
330
1F
100
AcDbEntity
  8
0
 48
0.1
100
AcDbLine
 10
475.0772078706853
 20
206.6056647422233
 30
0.0
 11
466.8242078706861
 21
206.6056647422233
 31
0.0
  0
LINE
  5
3B8
330
1F
100
AcDbEntity
  8
0
 48
0.1
100
AcDbLine
 10
466.8242078706861
 20
220.6056647422233
 30
0.0
 11
475.0772078706853
 21
220.6056647422233
 31
0.0
  0
LINE
  5
3B9
330
1F
100
AcDbEntity
  8
0
 48
0.1
100
AcDbLine
 10
493.0772078706853
 20
220.6056647422233
 30
0.0
 11
493.0772078706853
 21
206.6056647422233
 31
0.0
  0
LINE
  5
3BA
330
1F
100
AcDbEntity
  8
0
 48
0.1
100
AcDbLine
 10
501.3302078706846
 20
206.6056647422233
 30
0.0
 11
501.3302078706846
 21
220.6056647422233
 31
0.0
  0
LINE
  5
3BB
330
1F
100
AcDbEntity
  8
0
 48
0.1
100
AcDbLine
 10
501.3302078706846
 20
206.6056647422233
 30
0.0
 11
493.0772078706853
 21
206.6056647422233
 31
0.0
  0
LINE
  5
3BC
330
1F
100
AcDbEntity
  8
0
 48
0.1
100
AcDbLine
 10
493.0772078706853
 20
220.6056647422233
 30
0.0
 11
501.3302078706846
 21
220.6056647422233
 31
0.0
  0
LINE
  5
3BD
330
1F
100
AcDbEntity
  8
0
 48
0.1
100
AcDbLine
 10
469.4252078706845
 20
201.5821554043907
 30
0.0
 11
469.4252078706845
 21
187.5856647422233
 31
0.0
  0
LINE
  5
3BE
330
1F
100
AcDbEntity
  8
0
 48
0.1
100
AcDbLine
 10
481.3102078706856
 20
187.5856647422233
 30
0.0
 11
481.3102078706856
 21
201.5821554043907
 31
0.0
  0
LINE
  5
3BF
330
1F
100
AcDbEntity
  8
0
 48
0.1
100
AcDbLine
 10
469.4252078706845
 20
201.5821554043907
 30
0.0
 11
481.3102078706856
 21
201.5821554043907
 31
0.0
  0
LINE
  5
3C0
330
1F
100
AcDbEntity
  8
0
 48
0.1
100
AcDbLine
 10
481.3102078706856
 20
187.5856647422233
 30
0.0
 11
469.4252078706845
 21
187.5856647422233
 31
0.0
  0
LINE
  5
3C1
330
1F
100
AcDbEntity
  8
0
 48
0.1
100
AcDbLine
 10
518.3502078706855
 20
225.6256647422233
 30
0.0
 11
518.3502078706855
 21
258.6456647422226
 31
0.0
  0
LINE
  5
3F2
330
1F
100
AcDbEntity
  8
0
 48
0.1
100
AcDbLine
 10
522.3502078706856
 20
277.6656647422233
 30
0.0
 11
536.3502078706856
 21
277.6656647422233
 31
0.0
  0
LINE
  5
3F3
330
1F
100
AcDbEntity
  8
0
 48
0.1
100
AcDbLine
 10
522.3502078706856
 20
263.6656647422233
 30
0.0
 11
522.3502078706856
 21
277.6656647422233
 31
0.0
  0
LINE
  5
3F4
330
1F
100
AcDbEntity
  8
0
 48
0.1
100
AcDbLine
 10
239.3502078706847
 20
201.5821554043907
 30
0.0
 11
239.3502078706847
 21
187.5821554043906
 31
0.0
  0
LINE
  5
3F5
330
1F
100
AcDbEntity
  8
0
 48
0.1
100
AcDbLine
 10
255.7053745142562
 20
187.5821554043906
 30
0.0
 11
255.7053745142562
 21
201.5821554043907
 31
0.0
  0
LINE
  5
3F6
330
1F
100
AcDbEntity
  8
0
 48
0.1
100
AcDbLine
 10
262.9202078706844
 20
201.5821554043907
 30
0.0
 11
262.9202078706844
 21
187.5821554043906
 31
0.0
  0
LINE
  5
3F7
330
1F
100
AcDbEntity
  8
0
 48
0.1
100
AcDbLine
 10
279.2553745142555
 20
187.5821554043906
 30
0.0
 11
279.2553745142555
 21
201.5821554043907
 31
0.0
  0
LINE
  5
3F8
330
1F
100
AcDbEntity
  8
0
 48
0.1
100
AcDbLine
 10
284.6203745142561
 20
201.5821554043907
 30
0.0
 11
284.6203745142561
 21
187.5821554043906
 31
0.0
  0
LINE
  5
3F9
330
1F
100
AcDbEntity
  8
0
 48
0.1
100
AcDbLine
 10
302.8200412271158
 20
187.5821554043906
 30
0.0
 11
302.8200412271158
 21
201.5821554043907
 31
0.0
  0
LINE
  5
3FA
330
1F
100
AcDbEntity
  8
0
 48
0.1
100
AcDbLine
 10
334.9907078706851
 20
201.5821554043907
 30
0.0
 11
323.464707870683
 21
201.5821554043907
 31
0.0
  0
LINE
  5
3FB
330
1F
100
AcDbEntity
  8
0
 48
0.1
100
AcDbLine
 10
352.8477078706857
 20
201.5821554043907
 30
0.0
 11
352.8477078706857
 21
187.5821554043906
 31
0.0
  0
LINE
  5
3FC
330
1F
100
AcDbEntity
  8
0
 48
0.1
100
AcDbLine
 10
443.1052078706848
 20
201.5821554043907
 30
0.0
 11
437.1200412271149
 21
201.5821554043907
 31
0.0
  0
LINE
  5
3FD
330
1F
100
AcDbEntity
  8
0
 48
0.1
100
AcDbLine
 10
443.1052078706848
 20
187.5821554043906
 30
0.0
 11
443.1052078706848
 21
201.5821554043907
 31
0.0
  0
LINE
  5
3FE
330
1F
100
AcDbEntity
  8
0
 48
0.1
100
AcDbLine
 10
446.1203745142552
 20
201.5821554043907
 30
0.0
 11
446.1203745142552
 21
187.5821554043906
 31
0.0
  0
LINE
  5
3FF
330
1F
100
AcDbEntity
  8
0
 48
0.1
100
AcDbLine
 10
466.6752078706854
 20
187.5821554043906
 30
0.0
 11
466.6752078706854
 21
201.5821554043907
 31
0.0
  0
LINE
  5
400
330
1F
100
AcDbEntity
  8
0
100
AcDbLine
 10
309.9422970990838
 20
187.598429230573
 30
0.0
 11
309.9422970990833
 21
203.7884292305728
 31
0.0
  0
LINE
  5
401
330
1F
100
AcDbEntity
  8
0
100
AcDbLine
 10
347.3407078706837
 20
203.7721554043907
 30
0.0
 11
347.3407078706841
 21
187.5821554043906
 31
0.0
  0
LINE
  5
402
330
1F
100
AcDbEntity
  8
0
100
AcDbLine
 10
347.3407078706841
 20
203.7721554043907
 30
0.0
 11
339.9407078706845
 21
203.7721554043907
 31
0.0
  0
LINE
  5
403
330
1F
100
AcDbEntity
  8
0
100
AcDbLine
 10
342.3907078706847
 20
203.7721554043907
 30
0.0
 11
334.9907078706851
 21
203.7721554043907
 31
0.0
  0
LINE
  5
404
330
1F
100
AcDbEntity
  8
0
100
AcDbLine
 10
382.2547078706848
 20
201.5821554043906
 30
0.0
 11
382.2547078706848
 21
203.7721554043907
 31
0.0
  0
LINE
  5
405
330
1F
100
AcDbEntity
  8
0
100
AcDbLine
 10
389.6547078706845
 20
203.7721554043907
 30
0.0
 11
382.2547078706848
 21
203.7721554043907
 31
0.0
  0
LINE
  5
406
330
1F
100
AcDbEntity
  8
0
100
AcDbLine
 10
394.6047078706838
 20
203.7721554043907
 30
0.0
 11
387.2047078706842
 21
203.7721554043907
 31
0.0
  0
LINE
  5
407
330
1F
100
AcDbEntity
  8
0
100
AcDbLine
 10
406.1307078706849
 20
201.5821554043907
 30
0.0
 11
406.1307078706849
 21
203.7721554043907
 31
0.0
  0
LINE
  5
408
330
1F
100
AcDbEntity
  8
0
100
AcDbLine
 10
437.1200412271149
 20
203.7721554043903
 30
0.0
 11
437.1200412271149
 21
201.5821554043907
 31
0.0
  0
LINE
  5
409
330
1F
100
AcDbEntity
  8
0
 48
0.1
100
AcDbLine
 10
239.3502078706847
 20
201.5821554043907
 30
0.0
 11
255.7053745142562
 21
201.5821554043907
 31
0.0
  0
LINE
  5
40A
330
1F
100
AcDbEntity
  8
0
 48
0.1
100
AcDbLine
 10
262.9202078706844
 20
201.5821554043907
 30
0.0
 11
279.2553745142555
 21
201.5821554043907
 31
0.0
  0
LINE
  5
40B
330
1F
100
AcDbEntity
  8
0
 48
0.1
100
AcDbLine
 10
262.9202078706844
 20
187.5821554043906
 30
0.0
 11
279.2553745142555
 21
187.5821554043906
 31
0.0
  0
LINE
  5
40C
330
1F
100
AcDbEntity
  8
0
 48
0.1
100
AcDbLine
 10
284.6203745142561
 20
201.5821554043907
 30
0.0
 11
302.8200412271158
 21
201.5821554043907
 31
0.0
  0
LINE
  5
40D
330
1F
100
AcDbEntity
  8
0
 48
0.1
100
AcDbLine
 10
284.6203745142561
 20
187.5821554043906
 30
0.0
 11
302.8200412271158
 21
187.5821554043906
 31
0.0
  0
LINE
  5
40E
330
1F
100
AcDbEntity
  8
0
 48
0.1
100
AcDbLine
 10
309.9422970990834
 20
203.7721554043904
 30
0.0
 11
323.4647078706835
 21
203.7721554043912
 31
0.0
  0
LINE
  5
40F
330
1F
100
AcDbEntity
  8
0
 48
0.1
100
AcDbLine
 10
347.3407078706841
 20
187.5821554043906
 30
0.0
 11
309.9422970990838
 21
187.598429230573
 31
0.0
  0
LINE
  5
410
330
1F
100
AcDbEntity
  8
0
 48
0.1
100
AcDbLine
 10
334.9907078706851
 20
203.7721554043907
 30
0.0
 11
334.9907078706851
 21
201.5821554043907
 31
0.0
  0
LINE
  5
411
330
1F
100
AcDbEntity
  8
0
 48
0.1
100
AcDbLine
 10
323.4647078706835
 20
203.7721554043912
 30
0.0
 11
323.4647078706835
 21
201.5821554043907
 31
0.0
  0
LINE
  5
412
330
1F
100
AcDbEntity
  8
0
 48
0.1
100
AcDbLine
 10
382.2547078706848
 20
201.5821554043906
 30
0.0
 11
352.8477078706857
 21
201.5821554043907
 31
0.0
  0
LINE
  5
413
330
1F
100
AcDbEntity
  8
0
 48
0.1
100
AcDbLine
 10
406.1307078706849
 20
203.7721554043907
 30
0.0
 11
419.4807078706835
 21
203.7721554043914
 31
0.0
  0
LINE
  5
414
330
1F
100
AcDbEntity
  8
0
 48
0.1
100
AcDbLine
 10
419.4807078706835
 20
203.7721554043914
 30
0.0
 11
419.480707870684
 21
187.5821554043906
 31
0.0
  0
LINE
  5
415
330
1F
100
AcDbEntity
  8
0
 48
0.1
100
AcDbLine
 10
352.8477078706857
 20
187.5821554043906
 30
0.0
 11
419.480707870684
 21
187.5821554043906
 31
0.0
  0
LINE
  5
416
330
1F
100
AcDbEntity
  8
0
 48
0.1
100
AcDbLine
 10
394.6047078706838
 20
203.7721554043907
 30
0.0
 11
394.6047078706834
 21
201.5821554043907
 31
0.0
  0
LINE
  5
417
330
1F
100
AcDbEntity
  8
0
 48
0.1
100
AcDbLine
 10
406.1307078706849
 20
201.5821554043907
 30
0.0
 11
394.6047078706834
 21
201.5821554043907
 31
0.0
  0
LINE
  5
418
330
1F
100
AcDbEntity
  8
0
 48
0.1
100
AcDbLine
 10
443.1052078706848
 20
187.5821554043906
 30
0.0
 11
424.5203745142557
 21
187.5821554043907
 31
0.0
  0
LINE
  5
419
330
1F
100
AcDbEntity
  8
0
 48
0.1
100
AcDbLine
 10
424.5203745142561
 20
203.7721554043904
 30
0.0
 11
424.5203745142556
 21
187.5821554043906
 31
0.0
  0
LINE
  5
41A
330
1F
100
AcDbEntity
  8
0
 48
0.1
100
AcDbLine
 10
424.5203745142561
 20
203.7721554043904
 30
0.0
 11
437.1200412271149
 21
203.7721554043903
 31
0.0
  0
LINE
  5
41B
330
1F
100
AcDbEntity
  8
0
 48
0.1
100
AcDbLine
 10
446.1203745142552
 20
201.5821554043907
 30
0.0
 11
466.6752078706854
 21
201.5821554043907
 31
0.0
  0
LINE
  5
41C
330
1F
100
AcDbEntity
  8
0
 48
0.1
100
AcDbLine
 10
446.1203745142552
 20
187.5821554043906
 30
0.0
 11
466.6752078706854
 21
187.5821554043906
 31
0.0
  0
LINE
  5
41D
330
1F
100
AcDbEntity
  8
0
 48
0.1
100
AcDbLine
 10
239.3502078706847
 20
187.5821554043906
 30
0.0
 11
255.7053745142562
 21
187.5821554043906
 31
0.0
  0
LINE
  5
41E
330
1F
100
AcDbEntity
  8
0
 48
0.1
100
AcDbLine
 10
484.3302078706852
 20
263.6656647422233
 30
0.0
 11
485.1922078706855
 21
263.6656647422233
 31
0.0
  0
LINE
  5
41F
330
1F
100
AcDbEntity
  8
0
 48
0.1
100
AcDbLine
 10
492.5922078706851
 20
263.6656647422232
 30
0.0
 11
498.330207870685
 21
263.6656647422233
 31
0.0
  0
LINE
  5
420
330
1F
100
AcDbEntity
  8
0
 48
0.1
100
AcDbLine
 10
484.3302078706852
 20
263.6656647422233
 30
0.0
 11
484.3302078706846
 21
277.6656647422233
 31
0.0
  0
LINE
  5
421
330
1F
100
AcDbEntity
  8
0
 48
0.1
100
AcDbLine
 10
503.3302078706851
 20
263.6656647422233
 30
0.0
 11
509.0682078706856
 21
263.6656647422233
 31
0.0
  0
LINE
  5
422
330
1F
100
AcDbEntity
  8
0
 48
0.1
100
AcDbLine
 10
516.4682078706849
 20
263.6656647422232
 30
0.0
 11
517.3302078706852
 21
263.6656647422233
 31
0.0
  0
LINE
  5
423
330
1F
100
AcDbEntity
  8
0
 48
0.1
100
AcDbLine
 10
517.3302078706852
 20
263.6656647422233
 30
0.0
 11
517.3302078706852
 21
277.6656647422233
 31
0.0
  0
LINE
  5
424
330
1F
100
AcDbEntity
  8
0
100
AcDbLine
 10
484.3302078706846
 20
277.6656647422233
 30
0.0
 11
517.3302078706852
 21
277.6656647422233
 31
0.0
  0
LINE
  5
790
330
1F
100
AcDbEntity
  8
0
100
AcDbLine
 10
536.8502078706865
 20
184.5156647422232
 30
0.0
 11
532.0095078706859
 21
184.5156647422232
 31
0.0
  0
ARC
  5
791
330
1F
100
AcDbEntity
  8
0
100
AcDbCircle
 10
532.0095078706859
 20
182.5156647422232
 30
0.0
 40
2.0
100
AcDbArc
 50
90.0
 51
180.0
  0
LINE
  5
792
330
1F
100
AcDbEntity
  8
0
100
AcDbLine
 10
241.5467078706852
 20
184.5156647422232
 30
0.0
 11
236.5752078706855
 21
184.5156647422232
 31
0.0
  0
CIRCLE
  5
797
330
1F
100
AcDbEntity
  8
0
 48
0.1
100
AcDbCircle
 10
248.0467078706856
 20
283.6656647422227
 30
0.0
 40
1.6
  0
CIRCLE
  5
798
330
1F
100
AcDbEntity
  8
0
 48
0.1
100
AcDbCircle
 10
525.5095078706853
 20
283.6656647422227
 30
0.0
 40
1.6
  0
LINE
  5
799
330
1F
100
AcDbEntity
  8
0
 48
0.1
100
AcDbLine
 10
243.5467078706856
 20
283.6656647422227
 30
0.0
 11
243.5467078706861
 21
284.6656647422226
 31
0.0
  0
ARC
  5
79A
330
1F
100
AcDbEntity
  8
0
 48
0.1
100
AcDbCircle
 10
241.5467078706856
 20
283.6656647422227
 30
0.0
 40
2.0
100
AcDbArc
 50
270.0
 51
0.0
  0
LINE
  5
79B
330
1F
100
AcDbEntity
  8
0
 48
0.1
100
AcDbLine
 10
530.0095078706848
 20
283.6656647422227
 30
0.0
 11
530.0095078706845
 21
284.6656647422224
 31
0.0
  0
ARC
  5
79C
330
1F
100
AcDbEntity
  8
0
 48
0.1
100
AcDbCircle
 10
528.0095078706843
 20
284.6656647422226
 30
0.0
 40
2.0
100
AcDbArc
 50
359.999999999987
 51
90.0
  0
LINE
  5
79D
330
1F
100
AcDbEntity
  8
0
 48
0.1
100
AcDbLine
 10
528.0095078706843
 20
286.6656647422226
 30
0.0
 11
523.0095078706852
 21
286.6656647422226
 31
0.0
  0
LINE
  5
79E
330
1F
100
AcDbEntity
  8
0
 48
0.1
100
AcDbLine
 10
440.0095078706853
 20
286.6656647422226
 30
0.0
 11
437.5095078706853
 21
286.6656647422226
 31
0.0
  0
LINE
  5
79F
330
1F
100
AcDbEntity
  8
0
 48
0.1
100
AcDbLine
 10
336.0467078706856
 20
286.6656647422226
 30
0.0
 11
333.5467078706856
 21
286.6656647422226
 31
0.0
  0
LINE
  5
7A0
330
1F
100
AcDbEntity
  8
0
 48
0.1
100
AcDbLine
 10
250.5467078706856
 20
286.6656647422226
 30
0.0
 11
245.5467078706861
 21
286.6656647422226
 31
0.0
  0
ARC
  5
7A1
330
1F
100
AcDbEntity
  8
0
 48
0.1
100
AcDbCircle
 10
245.5467078706861
 20
284.6656647422226
 30
0.0
 40
2.0
100
AcDbArc
 50
90.0
 51
180.0
  0
LINE
  5
7A2
330
1F
100
AcDbEntity
  8
0
 48
0.1
100
AcDbLine
 10
536.8502078706865
 20
281.6656647422226
 30
0.0
 11
532.0095078706848
 21
281.6656647422226
 31
0.0
  0
ARC
  5
7A3
330
1F
100
AcDbEntity
  8
0
 48
0.1
100
AcDbCircle
 10
532.0095078706848
 20
283.6656647422227
 30
0.0
 40
2.0
100
AcDbArc
 50
180.0
 51
270.0
  0
LINE
  5
7A4
330
1F
100
AcDbEntity
  8
0
 48
0.1
100
AcDbLine
 10
241.5467078706856
 20
281.6656647422226
 30
0.0
 11
236.5752078706855
 21
281.6656647422226
 31
0.0
  0
LINE
  5
7A5
330
1F
100
AcDbEntity
  8
0
 48
0.1
100
AcDbLine
 10
234.5752078706855
 20
186.5156647422232
 30
0.0
 11
234.5752078706855
 21
279.6656647422226
 31
0.0
  0
ARC
  5
7A6
330
1F
100
AcDbEntity
  8
0
 48
0.1
100
AcDbCircle
 10
236.5752078706855
 20
279.6656647422226
 30
0.0
 40
2.0
100
AcDbArc
 50
90.0
 51
180.0
  0
ARC
  5
7A7
330
1F
100
AcDbEntity
  8
0
 48
0.1
100
AcDbCircle
 10
236.5752078706855
 20
186.5156647422232
 30
0.0
 40
2.0
100
AcDbArc
 50
180.0
 51
270.0
  0
LINE
  5
7A8
330
1F
100
AcDbEntity
  8
0
 48
0.1
100
AcDbLine
 10
538.8502078706863
 20
186.5156647422232
 30
0.0
 11
538.8502078706863
 21
279.6656647422226
 31
0.0
  0
ARC
  5
7A9
330
1F
100
AcDbEntity
  8
0
 48
0.1
100
AcDbCircle
 10
536.8502078706865
 20
279.6656647422226
 30
0.0
 40
2.0
100
AcDbArc
 50
0.0
 51
90.0
  0
ARC
  5
7AA
330
1F
100
AcDbEntity
  8
0
 48
0.1
100
AcDbCircle
 10
536.8502078706865
 20
186.5156647422232
 30
0.0
 40
2.0
100
AcDbArc
 50
270.0
 51
0.0
  0
LINE
  5
7AB
330
1F
100
AcDbEntity
  8
0
 48
0.1
100
AcDbLine
 10
243.5467078706852
 20
182.5156647422232
 30
0.0
 11
243.5467078706853
 21
181.0156647422229
 31
0.0
  0
ARC
  5
7AC
330
1F
100
AcDbEntity
  8
0
 48
0.1
100
AcDbCircle
 10
241.5467078706852
 20
182.5156647422232
 30
0.0
 40
2.0
100
AcDbArc
 50
0.0
 51
90.0
  0
LINE
  5
7AD
330
1F
100
AcDbEntity
  8
0
 48
0.1
100
AcDbLine
 10
530.0095078706856
 20
181.015664742223
 30
0.0
 11
530.0095078706856
 21
182.5156647422232
 31
0.0
  0
ARC
  5
7AE
330
1F
100
AcDbEntity
  8
0
 48
0.1
100
AcDbCircle
 10
528.0095078706856
 20
181.015664742223
 30
0.0
 40
2.0
100
AcDbArc
 50
270.0
 51
0.0
  0
CIRCLE
  5
7AF
330
1F
100
AcDbEntity
  8
0
 48
0.1
100
AcDbCircle
 10
336.0467078706856
 20
283.6656647422227
 30
0.0
 40
1.6
  0
CIRCLE
  5
7B0
330
1F
100
AcDbEntity
  8
0
 48
0.1
100
AcDbCircle
 10
437.5095078706853
 20
283.6656647422227
 30
0.0
 40
1.6
  0
ARC
  5
7B1
330
1F
100
AcDbEntity
  8
0
 48
0.1
100
AcDbCircle
 10
336.0467078706856
 20
283.6656647422227
 30
0.0
 40
3.0
100
AcDbArc
 50
0.0
 51
90.0
  0
LINE
  5
7B2
330
1F
100
AcDbEntity
  8
0
 48
0.1
100
AcDbLine
 10
341.0467078706862
 20
280.1656647422232
 30
0.0
 11
432.5095078706858
 21
280.1656647422232
 31
0.0
  0
LINE
  5
7B3
330
1F
100
AcDbEntity
  8
0
 48
0.1
100
AcDbLine
 10
339.0467078706856
 20
283.6656647422227
 30
0.0
 11
339.0467078706862
 21
282.1656647422233
 31
0.0
  0
ARC
  5
7B4
330
1F
100
AcDbEntity
  8
0
 48
0.1
100
AcDbCircle
 10
341.0467078706862
 20
282.1656647422233
 30
0.0
 40
2.0
100
AcDbArc
 50
180.0
 51
270.0
  0
ARC
  5
7B5
330
1F
100
AcDbEntity
  8
0
 48
0.1
100
AcDbCircle
 10
437.5095078706853
 20
283.6656647422227
 30
0.0
 40
3.0
100
AcDbArc
 50
90.0
 51
180.0
  0
LINE
  5
7B6
330
1F
100
AcDbEntity
  8
0
 48
0.1
100
AcDbLine
 10
434.5095078706854
 20
283.6656647422227
 30
0.0
 11
434.5095078706858
 21
282.1656647422235
 31
0.0
  0
ARC
  5
7B7
330
1F
100
AcDbEntity
  8
0
 48
0.1
100
AcDbCircle
 10
432.5095078706858
 20
282.1656647422232
 30
0.0
 40
2.0
100
AcDbArc
 50
270.0
 51
0.0000000000065138
  0
CIRCLE
  5
7B8
330
1F
100
AcDbEntity
  8
0
100
AcDbCircle
 10
525.5095078706848
 20
181.5156647422232
 30
0.0
 40
1.55
  0
LINE
  5
7B9
330
1F
100
AcDbEntity
  8
0
100
AcDbLine
 10
245.5467078706853
 20
179.0156647422231
 30
0.0
 11
250.5467078706856
 21
179.0156647422231
 31
0.0
  0
ARC
  5
7BA
330
1F
100
AcDbEntity
  8
0
100
AcDbCircle
 10
245.5467078706853
 20
181.015664742223
 30
0.0
 40
2.0
100
AcDbArc
 50
180.0000000000032
 51
270.0
  0
LINE
  5
7BB
330
1F
100
AcDbEntity
  8
0
100
AcDbLine
 10
368.4490735730137
 20
179.0156647422231
 30
0.0
 11
373.4490735730137
 21
179.0156647422231
 31
0.0
  0
ARC
  5
7BC
330
1F
100
AcDbEntity
  8
0
100
AcDbCircle
 10
368.4490735730137
 20
181.015664742223
 30
0.0
 40
2.0
100
AcDbArc
 50
180.0
 51
270.0
  0
LINE
  5
7BD
330
1F
100
AcDbEntity
  8
0
100
AcDbLine
 10
523.0095078706848
 20
179.0156647422231
 30
0.0
 11
528.0095078706856
 21
179.0156647422231
 31
0.0
  0
CIRCLE
  5
7BE
330
1F
100
AcDbEntity
  8
0
100
AcDbCircle
 10
248.0467078706856
 20
181.5156647422232
 30
0.0
 40
1.55
  0
CIRCLE
  5
7BF
330
1F
100
AcDbEntity
  8
0
100
AcDbCircle
 10
370.9490735730136
 20
181.5156647422232
 30
0.0
 40
1.55
  0
LINE
  5
7C0
330
1F
100
AcDbEntity
  8
0
100
AcDbLine
 10
254.5467078706856
 20
184.7156647422231
 30
0.0
 11
364.4490735730137
 21
184.7156647422231
 31
0.0
  0
LINE
  5
7C1
330
1F
100
AcDbEntity
  8
0
100
AcDbLine
 10
377.4490735730136
 20
184.7156647422232
 30
0.0
 11
519.0095078706845
 21
184.7156647422231
 31
0.0
  0
LINE
  5
7C2
330
1F
100
AcDbEntity
  8
0
100
AcDbLine
 10
521.0095078706848
 20
181.015664742223
 30
0.0
 11
521.0095078706846
 21
182.7156647422232
 31
0.0
  0
ARC
  5
7C3
330
1F
100
AcDbEntity
  8
0
100
AcDbCircle
 10
519.0095078706845
 20
182.7156647422232
 30
0.0
 40
2.0
100
AcDbArc
 50
0.0
 51
90.0
  0
ARC
  5
7C4
330
1F
100
AcDbEntity
  8
0
100
AcDbCircle
 10
523.0095078706848
 20
181.015664742223
 30
0.0
 40
2.0
100
AcDbArc
 50
180.0
 51
270.0
  0
LINE
  5
7C5
330
1F
100
AcDbEntity
  8
0
100
AcDbLine
 10
375.4490735730137
 20
181.015664742223
 30
0.0
 11
375.4490735730136
 21
182.7156647422232
 31
0.0
  0
ARC
  5
7C6
330
1F
100
AcDbEntity
  8
0
100
AcDbCircle
 10
377.4490735730136
 20
182.7156647422232
 30
0.0
 40
2.0
100
AcDbArc
 50
90.0
 51
180.0
  0
ARC
  5
7C7
330
1F
100
AcDbEntity
  8
0
100
AcDbCircle
 10
373.4490735730137
 20
181.015664742223
 30
0.0
 40
2.0
100
AcDbArc
 50
270.0
 51
0.0
  0
LINE
  5
7C8
330
1F
100
AcDbEntity
  8
0
100
AcDbLine
 10
366.4490735730137
 20
181.015664742223
 30
0.0
 11
366.4490735730137
 21
182.7156647422232
 31
0.0
  0
ARC
  5
7C9
330
1F
100
AcDbEntity
  8
0
100
AcDbCircle
 10
364.4490735730137
 20
182.7156647422232
 30
0.0
 40
2.0
100
AcDbArc
 50
0.0
 51
90.0
  0
LINE
  5
7CA
330
1F
100
AcDbEntity
  8
0
100
AcDbLine
 10
252.5467078706856
 20
182.7156647422232
 30
0.0
 11
252.5467078706856
 21
181.015664742223
 31
0.0
  0
ARC
  5
7CB
330
1F
100
AcDbEntity
  8
0
100
AcDbCircle
 10
254.5467078706856
 20
182.7156647422232
 30
0.0
 40
2.0
100
AcDbArc
 50
90.0
 51
180.0
  0
ARC
  5
7CC
330
1F
100
AcDbEntity
  8
0
100
AcDbCircle
 10
250.5467078706856
 20
181.015664742223
 30
0.0
 40
2.0
100
AcDbArc
 50
270.0
 51
0.0
  0
LINE
  5
7CD
330
1F
100
AcDbEntity
  8
0
100
AcDbLine
 10
444.0095078706853
 20
280.4656647422227
 30
0.0
 11
519.0095078706852
 21
280.4656647422226
 31
0.0
  0
LINE
  5
7CE
330
1F
100
AcDbEntity
  8
0
100
AcDbLine
 10
521.0095078706853
 20
284.6656647422226
 30
0.0
 11
521.0095078706853
 21
282.4656647422226
 31
0.0
  0
ARC
  5
7CF
330
1F
100
AcDbEntity
  8
0
100
AcDbCircle
 10
523.0095078706852
 20
284.6656647422226
 30
0.0
 40
2.0
100
AcDbArc
 50
90.0
 51
180.0
  0
ARC
  5
7D0
330
1F
100
AcDbEntity
  8
0
100
AcDbCircle
 10
519.0095078706852
 20
282.4656647422226
 30
0.0
 40
2.0
100
AcDbArc
 50
270.0
 51
0.0
  0
LINE
  5
7D1
330
1F
100
AcDbEntity
  8
0
100
AcDbLine
 10
442.0095078706853
 20
284.6656647422226
 30
0.0
 11
442.0095078706853
 21
282.4656647422226
 31
0.0
  0
ARC
  5
7D2
330
1F
100
AcDbEntity
  8
0
100
AcDbCircle
 10
444.0095078706853
 20
282.4656647422226
 30
0.0
 40
2.0
100
AcDbArc
 50
180.0
 51
270.0
  0
ARC
  5
7D3
330
1F
100
AcDbEntity
  8
0
100
AcDbCircle
 10
440.0095078706853
 20
284.6656647422226
 30
0.0
 40
2.0
100
AcDbArc
 50
0.0
 51
90.0
  0
LINE
  5
7D4
330
1F
100
AcDbEntity
  8
0
100
AcDbLine
 10
331.5467078706856
 20
282.4656647422226
 30
0.0
 11
331.5467078706856
 21
284.6656647422226
 31
0.0
  0
ARC
  5
7D5
330
1F
100
AcDbEntity
  8
0
100
AcDbCircle
 10
329.5467078706856
 20
282.4656647422226
 30
0.0
 40
2.0
100
AcDbArc
 50
270.0
 51
0.0
  0
ARC
  5
7D6
330
1F
100
AcDbEntity
  8
0
100
AcDbCircle
 10
333.5467078706856
 20
284.6656647422226
 30
0.0
 40
2.0
100
AcDbArc
 50
90.0
 51
180.0
  0
LINE
  5
7D7
330
1F
100
AcDbEntity
  8
0
100
AcDbLine
 10
252.5467078706856
 20
282.4656647422226
 30
0.0
 11
252.5467078706856
 21
284.6656647422226
 31
0.0
  0
ARC
  5
7D8
330
1F
100
AcDbEntity
  8
0
100
AcDbCircle
 10
250.5467078706856
 20
284.6656647422226
 30
0.0
 40
2.0
100
AcDbArc
 50
0.0
 51
90.0
  0
LINE
  5
7D9
330
1F
100
AcDbEntity
  8
0
100
AcDbLine
 10
254.5467078706856
 20
280.4656647422227
 30
0.0
 11
329.5467078706856
 21
280.4656647422227
 31
0.0
  0
ARC
  5
7DA
330
1F
100
AcDbEntity
  8
0
100
AcDbCircle
 10
254.5467078706856
 20
282.4656647422226
 30
0.0
 40
2.0
100
AcDbArc
 50
180.0
 51
270.0
  0
ENDSEC
  0
SECTION
  2
OBJECTS
  0
DICTIONARY
  5
C
330
0
100
AcDbDictionary
281
     1
  3
ACAD_COLOR
350
6B
  3
ACAD_GROUP
350
D
  3
ACAD_LAYOUT
350
1A
  3
ACAD_MATERIAL
350
6A
  3
ACAD_MLINESTYLE
350
17
  3
ACAD_PLOTSETTINGS
350
19
  3
ACAD_PLOTSTYLENAME
350
E
  3
ACAD_TABLESTYLE
350
7E
  3
ACAD_VISUALSTYLE
350
F0
  3
AcDbVariableDictionary
350
5E
  3
lxx_dict
350
123
  0
DICTIONARY
  5
125
330
2
100
AcDbDictionary
280
     1
281
     1
  3
ACAD_LAYERSTATES
360
126
  0
DICTIONARY
  5
6B
102
{ACAD_REACTORS
330
C
102
}
330
C
100
AcDbDictionary
281
     1
  0
DICTIONARY
  5
D
102
{ACAD_REACTORS
330
C
102
}
330
C
100
AcDbDictionary
281
     1
  0
DICTIONARY
  5
1A
102
{ACAD_REACTORS
330
C
102
}
330
C
100
AcDbDictionary
281
     1
  3
Model
350
22
  3
1
350
D3
  3
2
350
D7
  0
DICTIONARY
  5
6A
102
{ACAD_REACTORS
330
C
102
}
330
C
100
AcDbDictionary
281
     1
  3
ByBlock
350
EE
  3
ByLayer
350
ED
  3
Global
350
EF
  0
DICTIONARY
  5
17
102
{ACAD_REACTORS
330
C
102
}
330
C
100
AcDbDictionary
281
     1
  3
Standard
350
18
  0
DICTIONARY
  5
19
102
{ACAD_REACTORS
330
C
102
}
330
C
100
AcDbDictionary
281
     1
  0
ACDBDICTIONARYWDFLT
  5
E
102
{ACAD_REACTORS
330
C
102
}
330
C
100
AcDbDictionary
281
     1
  3
Normal
350
F
100
AcDbDictionaryWithDefault
340
F
  0
DICTIONARY
  5
7E
102
{ACAD_REACTORS
330
C
102
}
330
C
100
AcDbDictionary
281
     1
  3
Standard
350
7F
  0
DICTIONARY
  5
F0
102
{ACAD_REACTORS
330
C
102
}
330
C
100
AcDbDictionary
281
     1
  3
2dWireframe
350
F6
  3
3D Hidden
350
F8
  3
3dWireframe
350
F7
  3
Basic
350
F5
  3
Brighten
350
FC
  3
ColorChange
350
100
  3
Conceptual
350
F9
  3
Dim
350
FB
  3
Facepattern
350
FF
  3
Flat
350
F1
  3
FlatWithEdges
350
F2
  3
Gouraud
350
F3
  3
GouraudWithEdges
350
F4
  3
Linepattern
350
FE
  3
Realistic
350
FA
  3
Thicken
350
FD
  0
DICTIONARY
  5
5E
102
{ACAD_REACTORS
330
C
102
}
330
C
100
AcDbDictionary
281
     1
  3
CTABLESTYLE
350
84
  3
DIMASSOC
350
5F
  3
HIDETEXT
350
63
  3
PSOLHEIGHT
350
7E8
  3
PSOLWIDTH
350
7E7
  0
DICTIONARY
  5
123
102
{ACAD_REACTORS
330
C
102
}
330
C
100
AcDbDictionary
281
     1
  3
lxx_dimth
350
124
  0
DICTIONARY
  5
126
102
{ACAD_REACTORS
330
125
102
}
330
125
100
AcDbDictionary
281
     1
  0
LAYOUT
  5
22
102
{ACAD_REACTORS
330
1A
102
}
330
1A
100
AcDbPlotSettings
  1

  2
none_device
  4
ISO_A4_(210.00_x_297.00_MM)
  6

 40
7.5
 41
20.0
 42
7.5
 43
20.0
 44
210.0
 45
297.0
 46
11.54999923706054
 47
-13.65000009536743
 48
0.0
 49
0.0
140
0.0
141
0.0
142
1.0
143
8.704084754739808
 70
 11952
 72
     1
 73
     0
 74
     0
  7

 75
     0
147
0.1148885871608098
 76
     0
 77
     2
 78
   300
148
0.0
149
0.0
100
AcDbLayout
  1
Model
 70
     1
 71
     0
 10
0.0
 20
0.0
 11
12.0
 21
9.0
 12
0.0
 22
0.0
 32
0.0
 14
0.0
 24
0.0
 34
0.0
 15
0.0
 25
0.0
 35
0.0
146
0.0
 13
0.0
 23
0.0
 33
0.0
 16
1.0
 26
0.0
 36
0.0
 17
0.0
 27
1.0
 37
0.0
 76
     0
330
1F
331
EB
1001
ACAD_PSEXT
1000
None
1000
None
1000
Not applicable
1000
The layout will not be plotted unless a new plotter configuration name is selected.
1070
     0
  0
LAYOUT
  5
D3
102
{ACAD_REACTORS
330
1A
102
}
330
1A
100
AcDbPlotSettings
  1

  2
C:\Documents and Settings\basas\Application Data\Autodesk\AutoCAD 2005\R16.1\enu\plotters\Default Windows System Printer.pc3
  4

  6

 40
0.0
 41
0.0
 42
0.0
 43
0.0
 44
0.0
 45
0.0
 46
0.0
 47
0.0
 48
0.0
 49
0.0
140
0.0
141
0.0
142
1.0
143
1.0
 70
   688
 72
     0
 73
     0
 74
     5
  7

 75
    16
147
1.0
 76
     0
 77
     2
 78
   300
148
0.0
149
0.0
100
AcDbLayout
  1
1
 70
     1
 71
     1
 10
0.0
 20
0.0
 11
12.0
 21
9.0
 12
0.0
 22
0.0
 32
0.0
 14
0.0
 24
0.0
 34
0.0
 15
0.0
 25
0.0
 35
0.0
146
0.0
 13
0.0
 23
0.0
 33
0.0
 16
1.0
 26
0.0
 36
0.0
 17
0.0
 27
1.0
 37
0.0
 76
     0
330
D2
  0
LAYOUT
  5
D7
102
{ACAD_REACTORS
330
1A
102
}
330
1A
100
AcDbPlotSettings
  1

  2
C:\Documents and Settings\basas\Application Data\Autodesk\AutoCAD 2005\R16.1\enu\plotters\Default Windows System Printer.pc3
  4

  6

 40
0.0
 41
0.0
 42
0.0
 43
0.0
 44
0.0
 45
0.0
 46
0.0
 47
0.0
 48
0.0
 49
0.0
140
0.0
141
0.0
142
1.0
143
1.0
 70
   688
 72
     0
 73
     0
 74
     5
  7

 75
    16
147
1.0
 76
     0
 77
     2
 78
   300
148
0.0
149
0.0
100
AcDbLayout
  1
2
 70
     1
 71
     2
 10
0.0
 20
0.0
 11
12.0
 21
9.0
 12
0.0
 22
0.0
 32
0.0
 14
0.0
 24
0.0
 34
0.0
 15
0.0
 25
0.0
 35
0.0
146
0.0
 13
0.0
 23
0.0
 33
0.0
 16
1.0
 26
0.0
 36
0.0
 17
0.0
 27
1.0
 37
0.0
 76
     0
330
D6
  0
MATERIAL
  5
EE
102
{ACAD_XDICTIONARY
360
42B
102
}
102
{ACAD_REACTORS
330
6A
102
}
330
6A
100
AcDbMaterial
  1
ByBlock
  0
MATERIAL
  5
ED
102
{ACAD_XDICTIONARY
360
429
102
}
102
{ACAD_REACTORS
330
6A
102
}
330
6A
100
AcDbMaterial
  1
ByLayer
  0
MATERIAL
  5
EF
102
{ACAD_XDICTIONARY
360
42D
102
}
102
{ACAD_REACTORS
330
6A
102
}
330
6A
100
AcDbMaterial
  1
Global
  0
MLINESTYLE
  5
18
102
{ACAD_REACTORS
330
17
102
}
330
17
100
AcDbMlineStyle
  2
STANDARD
 70
     0
  3

 62
   256
 51
90.0
 52
90.0
 71
     2
 49
0.5
 62
   256
  6
BYLAYER
 49
-0.5
 62
   256
  6
BYLAYER
  0
ACDBPLACEHOLDER
  5
F
102
{ACAD_REACTORS
330
E
102
}
330
E
  0
TABLESTYLE
  5
7F
102
{ACAD_XDICTIONARY
360
7E9
102
}
102
{ACAD_REACTORS
330
7E
102
}
330
7E
100
AcDbTableStyle
  3
Standard
 70
     0
 71
     0
 40
1.5
 41
1.5
280
     0
281
     0
  7
Standard
140
4.5
170
     2
 62
     0
 63
     7
283
     0
274
    -2
284
     1
 64
     0
275
    -2
285
     1
 65
     0
276
    -2
286
     1
 66
     0
277
    -2
287
     1
 67
     0
278
    -2
288
     1
 68
     0
279
    -2
289
     1
 69
     0
  7
Standard
140
6.0
170
     5
 62
     0
 63
     7
283
     0
274
    -2
284
     1
 64
     0
275
    -2
285
     1
 65
     0
276
    -2
286
     1
 66
     0
277
    -2
287
     1
 67
     0
278
    -2
288
     1
 68
     0
279
    -2
289
     1
 69
     0
  7
Standard
140
4.5
170
     5
 62
     0
 63
     7
283
     0
274
    -2
284
     1
 64
     0
275
    -2
285
     1
 65
     0
276
    -2
286
     1
 66
     0
277
    -2
287
     1
 67
     0
278
    -2
288
     1
 68
     0
279
    -2
289
     1
 69
     0
  0
VISUALSTYLE
  5
F6
102
{ACAD_REACTORS
330
F0
102
}
330
F0
100
AcDbVisualStyle
  2
2dWireframe
 70
     4
 71
     0
 72
     2
 73
     1
 90
        0
 40
-0.6
 41
-30.0
 62
     5
 63
     7
421
 16777215
 74
     1
 91
        4
 64
     7
 65
   257
 75
     1
175
     1
 42
1.0
 92
        0
 66
   257
 43
1.0
 76
     1
 77
     6
 78
     2
 67
     7
 79
     5
170
     0
171
     0
290
     0
174
     0
 93
        1
 44
0.0
173
     0
291
     0
 45
0.0
1001
ACAD
1000
AcDbSavedByObjectVersion
1070
     0
  0
VISUALSTYLE
  5
F8
102
{ACAD_REACTORS
330
F0
102
}
330
F0
100
AcDbVisualStyle
  2
3D Hidden
 70
     6
 71
     1
 72
     2
 73
     2
 90
        0
 40
-0.6
 41
-30.0
 62
     5
 63
     7
421
 16777215
 74
     2
 91
        2
 64
     7
 65
   257
 75
     2
175
     1
 42
40.0
 92
        0
 66
   257
 43
1.0
 76
     1
 77
     6
 78
     2
 67
     7
 79
     3
170
     0
171
     0
290
     0
174
     0
 93
        1
 44
0.0
173
     0
291
     0
 45
0.0
1001
ACAD
1000
AcDbSavedByObjectVersion
1070
     0
  0
VISUALSTYLE
  5
F7
102
{ACAD_REACTORS
330
F0
102
}
330
F0
100
AcDbVisualStyle
  2
3dWireframe
 70
     5
 71
     0
 72
     2
 73
     1
 90
        0
 40
-0.6
 41
-30.0
 62
     5
 63
     7
421
 16777215
 74
     1
 91
        4
 64
     7
 65
   257
 75
     1
175
     1
 42
1.0
 92
        0
 66
   257
 43
1.0
 76
     1
 77
     6
 78
     2
 67
     7
 79
     5
170
     0
171
     0
290
     0
174
     0
 93
        1
 44
0.0
173
     0
291
     0
 45
0.0
1001
ACAD
1000
AcDbSavedByObjectVersion
1070
     0
  0
VISUALSTYLE
  5
F5
102
{ACAD_REACTORS
330
F0
102
}
330
F0
100
AcDbVisualStyle
  2
Basic
 70
     7
 71
     1
 72
     0
 73
     1
 90
        0
 40
-0.6
 41
-30.0
 62
     5
 63
     7
421
 16777215
 74
     0
 91
        4
 64
     7
 65
   257
 75
     1
175
     1
 42
1.0
 92
        8
 66
     7
 43
1.0
 76
     1
 77
     6
 78
     2
 67
     7
 79
     5
170
     0
171
     0
290
     0
174
     0
 93
        1
 44
0.0
173
     0
291
     1
 45
0.0
1001
ACAD
1000
AcDbSavedByObjectVersion
1070
     0
  0
VISUALSTYLE
  5
FC
102
{ACAD_REACTORS
330
F0
102
}
330
F0
100
AcDbVisualStyle
  2
Brighten
 70
    12
 71
     2
 72
     2
 73
     1
 90
        0
 40
-0.6
 41
-30.0
 62
     5
 63
     7
421
 16777215
 74
     1
 91
        4
 64
     7
 65
   257
 75
     1
175
     1
 42
1.0
 92
        8
 66
     7
 43
1.0
 76
     1
 77
     6
 78
     2
 67
     7
 79
     5
170
     0
171
     0
290
     0
174
     0
 93
        1
 44
50.0
173
     0
291
     1
 45
0.0
1001
ACAD
1000
AcDbSavedByObjectVersion
1070
     0
  0
VISUALSTYLE
  5
100
102
{ACAD_REACTORS
330
F0
102
}
330
F0
100
AcDbVisualStyle
  2
ColorChange
 70
    16
 71
     2
 72
     2
 73
     3
 90
        0
 40
-0.6
 41
-30.0
 62
     5
 63
     8
421
  8421504
 74
     1
 91
        4
 64
     7
 65
   257
 75
     1
175
     1
 42
1.0
 92
        8
 66
     8
424
  8421504
 43
1.0
 76
     1
 77
     6
 78
     2
 67
     7
 79
     5
170
     0
171
     0
290
     0
174
     0
 93
        1
 44
0.0
173
     0
291
     1
 45
0.0
1001
ACAD
1000
AcDbSavedByObjectVersion
1070
     0
  0
VISUALSTYLE
  5
F9
102
{ACAD_REACTORS
330
F0
102
}
330
F0
100
AcDbVisualStyle
  2
Conceptual
 70
     9
 71
     3
 72
     2
 73
     1
 90
        0
 40
-0.6
 41
-30.0
 62
     5
 63
     7
421
 16777215
 74
     2
 91
        2
 64
     7
 65
   257
 75
     1
175
     1
 42
40.0
 92
        8
 66
     7
 43
1.0
 76
     1
 77
     6
 78
     2
 67
     7
 79
     3
170
     0
171
     0
290
     0
174
     0
 93
        1
 44
0.0
173
     0
291
     0
 45
0.0
1001
ACAD
1000
AcDbSavedByObjectVersion
1070
     0
  0
VISUALSTYLE
  5
FB
102
{ACAD_REACTORS
330
F0
102
}
330
F0
100
AcDbVisualStyle
  2
Dim
 70
    11
 71
     2
 72
     2
 73
     1
 90
        0
 40
-0.6
 41
-30.0
 62
     5
 63
     7
421
 16777215
 74
     1
 91
        4
 64
     7
 65
   257
 75
     1
175
     1
 42
1.0
 92
        8
 66
     7
 43
1.0
 76
     1
 77
     6
 78
     2
 67
     7
 79
     5
170
     0
171
     0
290
     0
174
     0
 93
        1
 44
-50.0
173
     0
291
     1
 45
0.0
1001
ACAD
1000
AcDbSavedByObjectVersion
1070
     0
  0
VISUALSTYLE
  5
FF
102
{ACAD_REACTORS
330
F0
102
}
330
F0
100
AcDbVisualStyle
  2
Facepattern
 70
    15
 71
     2
 72
     2
 73
     1
 90
        0
 40
-0.6
 41
-30.0
 62
     5
 63
     7
421
 16777215
 74
     1
 91
        4
 64
     7
 65
   257
 75
     1
175
     1
 42
1.0
 92
        8
 66
     7
 43
1.0
 76
     1
 77
     6
 78
     2
 67
     7
 79
     5
170
     0
171
     0
290
     0
174
     0
 93
        1
 44
0.0
173
     0
291
     1
 45
0.0
1001
ACAD
1000
AcDbSavedByObjectVersion
1070
     0
  0
VISUALSTYLE
  5
F1
102
{ACAD_REACTORS
330
F0
102
}
330
F0
100
AcDbVisualStyle
  2
Flat
 70
     0
 71
     2
 72
     1
 73
     1
 90
        2
 40
-0.6
 41
30.0
 62
     5
 63
     7
421
 16777215
 74
     0
 91
        4
 64
     7
 65
   257
 75
     1
175
     1
 42
1.0
 92
        8
 66
     7
 43
1.0
 76
     1
 77
     6
 78
     2
 67
     7
 79
     5
170
     0
171
     0
290
     0
174
     0
 93
        1
 44
0.0
173
     0
291
     1
 45
0.0
1001
ACAD
1000
AcDbSavedByObjectVersion
1070
     0
  0
VISUALSTYLE
  5
F2
102
{ACAD_REACTORS
330
F0
102
}
330
F0
100
AcDbVisualStyle
  2
FlatWithEdges
 70
     1
 71
     2
 72
     1
 73
     1
 90
        2
 40
-0.6
 41
30.0
 62
     5
 63
     7
421
 16777215
 74
     1
 91
        4
 64
     7
 65
   257
 75
     1
175
     1
 42
1.0
 92
        0
 66
   257
 43
1.0
 76
     1
 77
     6
 78
     2
 67
     7
 79
     5
170
     0
171
     0
290
     0
174
     0
 93
        1
 44
0.0
173
     0
291
     1
 45
0.0
1001
ACAD
1000
AcDbSavedByObjectVersion
1070
     0
  0
VISUALSTYLE
  5
F3
102
{ACAD_REACTORS
330
F0
102
}
330
F0
100
AcDbVisualStyle
  2
Gouraud
 70
     2
 71
     2
 72
     2
 73
     1
 90
        2
 40
-0.6
 41
30.0
 62
     5
 63
     7
421
 16777215
 74
     0
 91
        4
 64
     7
 65
   257
 75
     1
175
     1
 42
1.0
 92
        0
 66
     7
 43
1.0
 76
     1
 77
     6
 78
     2
 67
     7
 79
     5
170
     0
171
     0
290
     0
174
     0
 93
        1
 44
0.0
173
     0
291
     1
 45
0.0
1001
ACAD
1000
AcDbSavedByObjectVersion
1070
     0
  0
VISUALSTYLE
  5
F4
102
{ACAD_REACTORS
330
F0
102
}
330
F0
100
AcDbVisualStyle
  2
GouraudWithEdges
 70
     3
 71
     2
 72
     2
 73
     1
 90
        2
 40
-0.6
 41
30.0
 62
     5
 63
     7
421
 16777215
 74
     1
 91
        4
 64
     7
 65
   257
 75
     1
175
     1
 42
1.0
 92
        0
 66
   257
 43
1.0
 76
     1
 77
     6
 78
     2
 67
     7
 79
     5
170
     0
171
     0
290
     0
174
     0
 93
        1
 44
0.0
173
     0
291
     1
 45
0.0
1001
ACAD
1000
AcDbSavedByObjectVersion
1070
     0
  0
VISUALSTYLE
  5
FE
102
{ACAD_REACTORS
330
F0
102
}
330
F0
100
AcDbVisualStyle
  2
Linepattern
 70
    14
 71
     2
 72
     2
 73
     1
 90
        0
 40
-0.6
 41
-30.0
 62
     5
 63
     7
421
 16777215
 74
     1
 91
        4
 64
     7
 65
   257
 75
     7
175
     7
 42
1.0
 92
        8
 66
     7
 43
1.0
 76
     1
 77
     6
 78
     2
 67
     7
 79
     5
170
     0
171
     0
290
     0
174
     0
 93
        1
 44
0.0
173
     0
291
     1
 45
0.0
1001
ACAD
1000
AcDbSavedByObjectVersion
1070
     0
  0
VISUALSTYLE
  5
FA
102
{ACAD_REACTORS
330
F0
102
}
330
F0
100
AcDbVisualStyle
  2
Realistic
 70
     8
 71
     2
 72
     2
 73
     1
 90
        0
 40
-0.6
 41
-30.0
 62
     5
 63
     7
421
 16777215
 74
     1
 91
        0
 64
     7
 65
   257
 75
     1
175
     1
 42
1.0
 92
        8
 66
     8
424
  7895160
 43
1.0
 76
     1
 77
     6
 78
     2
 67
     7
 79
     5
170
     0
171
     0
290
     0
174
     0
 93
       13
 44
0.0
173
     0
291
     0
 45
0.0
1001
ACAD
1000
AcDbSavedByObjectVersion
1070
     0
  0
VISUALSTYLE
  5
FD
102
{ACAD_REACTORS
330
F0
102
}
330
F0
100
AcDbVisualStyle
  2
Thicken
 70
    13
 71
     2
 72
     2
 73
     1
 90
        0
 40
-0.6
 41
-30.0
 62
     5
 63
     7
421
 16777215
 74
     1
 91
        4
 64
     7
 65
   257
 75
     1
175
     1
 42
1.0
 92
       12
 66
     7
 43
1.0
 76
     1
 77
     6
 78
     2
 67
     7
 79
     5
170
     0
171
     0
290
     0
174
     0
 93
        1
 44
0.0
173
     0
291
     1
 45
0.0
1001
ACAD
1000
AcDbSavedByObjectVersion
1070
     0
  0
DICTIONARYVAR
  5
84
102
{ACAD_REACTORS
330
5E
102
}
330
5E
100
DictionaryVariables
280
     0
  1
STANDARD
  0
DICTIONARYVAR
  5
5F
102
{ACAD_REACTORS
330
5E
102
}
330
5E
100
DictionaryVariables
280
     0
  1
2
  0
DICTIONARYVAR
  5
63
102
{ACAD_REACTORS
330
5E
102
}
330
5E
100
DictionaryVariables
280
     0
  1
1
  0
DICTIONARYVAR
  5
7E8
102
{ACAD_REACTORS
330
5E
102
}
330
5E
100
DictionaryVariables
280
     0
  1
80.000000
  0
DICTIONARYVAR
  5
7E7
102
{ACAD_REACTORS
330
5E
102
}
330
5E
100
DictionaryVariables
280
     0
  1
5.000000
  0
VLO-VL
  5
124
102
{ACAD_REACTORS
330
123
102
}
330
123
100
vlo_VL
 90
   -64512
 91
       12
 92
        1
 40
2.5
300
(&VLO-R . 0)
  0
DICTIONARY
  5
42B
330
EE
100
AcDbDictionary
280
     1
281
     1
  3
ACAD_XREC_ROUNDTRIP
360
42C
  0
DICTIONARY
  5
429
330
ED
100
AcDbDictionary
280
     1
281
     1
  3
ACAD_XREC_ROUNDTRIP
360
42A
  0
DICTIONARY
  5
42D
330
EF
100
AcDbDictionary
280
     1
281
     1
  3
ACAD_XREC_ROUNDTRIP
360
42E
  0
DICTIONARY
  5
7E9
330
7F
100
AcDbDictionary
280
     1
281
     1
  3
ACAD_XREC_ROUNDTRIP
360
7EA
  0
XRECORD
  5
42C
102
{ACAD_REACTORS
330
42B
102
}
330
42B
100
AcDbXrecord
280
     1
102
MATERIAL
148
0.0
149
0.0
149
0.0
 93
        0
 94
       63
282
     0
 72
     1
 77
     1
171
     1
175
     1
179
     1
273
     0
  0
XRECORD
  5
42A
102
{ACAD_REACTORS
330
429
102
}
330
429
100
AcDbXrecord
280
     1
102
MATERIAL
148
0.0
149
0.0
149
0.0
 93
        0
 94
       63
282
     0
 72
     1
 77
     1
171
     1
175
     1
179
     1
273
     0
  0
XRECORD
  5
42E
102
{ACAD_REACTORS
330
42D
102
}
330
42D
100
AcDbXrecord
280
     1
102
MATERIAL
148
0.0
149
0.0
149
0.0
 93
        0
 94
       63
282
     0
 72
     1
 77
     1
171
     1
175
     1
179
     1
273
     0
  0
XRECORD
  5
7EA
102
{ACAD_REACTORS
330
7E9
102
}
330
7E9
100
AcDbXrecord
280
     1
102
ACAD_ROUNDTRIP_PRE2007_TABLESTYLE
 90
      512
 91
        0
  1

 92
      512
 93
        0
  2

 94
      512
 95
        0
  3

  0
ENDSEC
  0
EOF
