0
SECTION
2
HEADER
9
$INSUNITS
70
4
9
$ACADVER
1
AC1014
9
$HANDSEED
5
FFFF
0
ENDSEC
0
SECTION
2
TABLES
0
TABLE
2
VPORT
5
8
100
AcDbSymbolTable
0
ENDTAB
0
TABLE
2
LTYPE
5
5
100
AcDbSymbolTable
0
LTYPE
5
14
100
AcDbSymbolTableRecord
100
AcDbLinetypeTableRecord
2
BYBLOCK
70
0
0
LTYPE
5
15
100
AcDbSymbolTableRecord
100
AcDbLinetypeTableRecord
2
BYLAYER
70
0
0
ENDTAB
0
TABLE
2
LAYER
5
2
100
AcDbSymbolTable
70
2
0
LAYER
5
50
100
AcDbSymbolTableRecord
100
AcDbLayerTableRecord
2
0
70
0
6
CONTINUOUS
0
ENDTAB
0
TABLE
2
STYLE
5
3
100
AcDbSymbolTable
70
1
0
STYLE
5
11
100
AcDbSymbolTableRecord
100
AcDbTextStyleTableRecord
2
STANDARD
70
0
0
ENDTAB
0
TABLE
2
VIEW
5
6
100
AcDbSymbolTable
70
0
0
ENDTAB
0
TABLE
2
UCS
5
7
100
AcDbSymbolTable
70
0
0
ENDTAB
0
TABLE
2
APPID
5
9
100
AcDbSymbolTable
70
2
0
APPID
5
12
100
AcDbSymbolTableRecord
100
AcDbRegAppTableRecord
2
ACAD
70
0
0
ENDTAB
0
TABLE
2
DIMSTYLE
5
A
100
AcDbSymbolTable
70
1
0
ENDTAB
0
TABLE
2
BLOCK_RECORD
5
1
100
AcDbSymbolTable
70
1
0
BLOCK_RECORD
5
1F
100
AcDbSymbolTableRecord
100
AcDbBlockTableRecord
2
*MODEL_SPACE
0
BLOCK_RECORD
5
1B
100
AcDbSymbolTableRecord
100
AcDbBlockTableRecord
2
*PAPER_SPACE
0
ENDTAB
0
ENDSEC
0
SECTION
2
BLOCKS
0
BLOCK
5
20
100
AcDbEntity
100
AcDbBlockBegin
2
*MODEL_SPACE
0
ENDBLK
5
21
100
AcDbEntity
100
AcDbBlockEnd
0
BLOCK
5
1C
100
AcDbEntity
100
AcDbBlockBegin
2
*PAPER_SPACE
0
ENDBLK
5
1D
100
AcDbEntity
100
AcDbBlockEnd
0
ENDSEC
0
SECTION
2
ENTITIES
0
ARC
5
100
100
AcDbEntity
8
0
100
AcDbCircle
10
-294.35500000000002
20
47.104904000000005
30
0
40
1.0000000000000142
210
0
220
0
230
1
100
AcDbArc
50
180
51
270
0
LINE
5
101
100
AcDbEntity
8
0
100
AcDbLine
10
-294.35500000000002
20
46.104904000000005
30
0
11
-290.33000000000004
21
46.104903999999998
31
0
0
ARC
5
102
100
AcDbEntity
8
0
100
AcDbCircle
10
-290.33000000000004
20
45.104904000000005
30
0
40
1.0000000000000142
210
0
220
0
230
1
100
AcDbArc
50
0
51
90
0
LINE
5
103
100
AcDbEntity
8
0
100
AcDbLine
10
-289.32999999999998
20
45.104904000000005
30
0
11
-289.32999999999998
21
44.00490400000001
31
0
0
ARC
5
104
100
AcDbEntity
8
0
100
AcDbCircle
10
-285.82999999999998
20
44.00490400000001
30
0
40
3.5000000000000142
210
0
220
0
230
1
100
AcDbArc
50
-180
51
0
0
LINE
5
105
100
AcDbEntity
8
0
100
AcDbLine
10
-282.32999999999998
20
44.00490400000001
30
0
11
-282.32999999999998
21
45.104904000000005
31
0
0
ARC
5
106
100
AcDbEntity
8
0
100
AcDbCircle
10
-281.32999999999998
20
45.104904000000005
30
0
40
0.99999999999999645
210
0
220
-0
230
1
100
AcDbArc
50
90
51
180
0
LINE
5
107
100
AcDbEntity
8
0
100
AcDbLine
10
-281.32999999999998
20
46.104903999999998
30
0
11
-235.28000000000003
21
46.104903999999998
31
0
0
ARC
5
108
100
AcDbEntity
8
0
100
AcDbCircle
10
-235.28000000000003
20
45.104904000000005
30
0
40
1.0000000000000142
210
0
220
0
230
1
100
AcDbArc
50
0
51
90
0
LINE
5
109
100
AcDbEntity
8
0
100
AcDbLine
10
-234.28
20
45.104904000000005
30
0
11
-234.28
21
44.00490400000001
31
0
0
ARC
5
110
100
AcDbEntity
8
0
100
AcDbCircle
10
-230.78000000000003
20
44.00490400000001
30
0
40
3.4999999999999787
210
0
220
0
230
1
100
AcDbArc
50
-180
51
5.3997386567638338e-06
0
LINE
5
111
100
AcDbEntity
8
0
100
AcDbLine
10
-227.28000000000006
20
44.004904329859997
30
0
11
-227.28000000000003
21
45.104904000000005
31
0
0
ARC
5
112
100
AcDbEntity
8
0
100
AcDbCircle
10
-226.28
20
45.104904000000005
30
0
40
0.99999999999999645
210
0
220
-0
230
1
100
AcDbArc
50
90
51
180
0
LINE
5
113
100
AcDbEntity
8
0
100
AcDbLine
10
-226.28
20
46.104903999999998
30
0
11
-137.93000000000001
21
46.104903999999998
31
0
0
ARC
5
114
100
AcDbEntity
8
0
100
AcDbCircle
10
-137.93000000000001
20
45.104904000000005
30
0
40
0.99999999999999645
210
0
220
0
230
1
100
AcDbArc
50
0
51
90
0
LINE
5
115
100
AcDbEntity
8
0
100
AcDbLine
10
-136.93000000000001
20
45.104904000000005
30
0
11
-136.93000000000001
21
44.00490400000001
31
0
0
ARC
5
116
100
AcDbEntity
8
0
100
AcDbCircle
10
-133.43000000000001
20
44.00490400000001
30
0
40
3.4999999999999964
210
0
220
0
230
1
100
AcDbArc
50
-180
51
0
0
LINE
5
117
100
AcDbEntity
8
0
100
AcDbLine
10
-129.93000000000001
20
44.00490400000001
30
0
11
-129.93000000000001
21
45.104904000000005
31
0
0
ARC
5
118
100
AcDbEntity
8
0
100
AcDbCircle
10
-128.93000000000001
20
45.104904000000005
30
0
40
0.99999999999999645
210
0
220
-0
230
1
100
AcDbArc
50
90
51
180
0
LINE
5
119
100
AcDbEntity
8
0
100
AcDbLine
10
-128.93000000000001
20
46.104903999999998
30
0
11
-40.579999000000001
21
46.104903999999998
31
0
0
ARC
5
120
100
AcDbEntity
8
0
100
AcDbCircle
10
-40.579999000000001
20
45.104904000000005
30
0
40
1.0000000000000009
210
0
220
0
230
1
100
AcDbArc
50
0
51
90
0
LINE
5
121
100
AcDbEntity
8
0
100
AcDbLine
10
-39.579999000000001
20
45.104904000000005
30
0
11
-39.579999000000001
21
44.00490400000001
31
0
0
ARC
5
122
100
AcDbEntity
8
0
100
AcDbCircle
10
-36.079999000000001
20
44.00490400000001
30
0
40
3.5000000000000009
210
0
220
0
230
1
100
AcDbArc
50
-180
51
0
0
LINE
5
123
100
AcDbEntity
8
0
100
AcDbLine
10
-32.579999000000001
20
44.00490400000001
30
0
11
-32.579999000000001
21
45.104904000000005
31
0
0
ARC
5
124
100
AcDbEntity
8
0
100
AcDbCircle
10
-31.579999000000001
20
45.104904000000005
30
0
40
0.99999999999999645
210
0
220
-0
230
1
100
AcDbArc
50
90
51
180
0
LINE
5
125
100
AcDbEntity
8
0
100
AcDbLine
10
-31.579999000000001
20
46.104903999999998
30
0
11
8.4450010000000031
21
46.104903999999998
31
0
0
ARC
5
126
100
AcDbEntity
8
0
100
AcDbCircle
10
8.4450009999999995
20
47.104904000000005
30
0
40
1.0000000000000053
210
0
220
0
230
1
100
AcDbArc
50
-89.999999999999801
51
0
0
LINE
5
127
100
AcDbEntity
8
0
100
AcDbLine
10
9.4450009999999995
20
47.104904000000005
30
0
11
9.4450000000000003
21
140.35490300000004
31
0
0
ARC
5
128
100
AcDbEntity
8
0
100
AcDbCircle
10
8.4450000000000003
20
140.35490300000001
30
0
40
1.0000000000000009
210
0
220
-0
230
1
100
AcDbArc
50
0
51
90
0
LINE
5
129
100
AcDbEntity
8
0
100
AcDbLine
10
8.4450000000000003
20
141.35490300000001
30
0
11
-31.579999999999995
21
141.35490349977141
31
0
0
ARC
5
130
100
AcDbEntity
8
0
100
AcDbCircle
10
-31.579999999999998
20
142.35490300000004
30
0
40
0.99999899999999808
210
0
220
0
230
1
100
AcDbArc
50
180
51
270.00000000000023
0
LINE
5
131
100
AcDbEntity
8
0
100
AcDbLine
10
-32.579999000000001
20
142.35490300000004
30
0
11
-32.579999000000001
21
143.454903
31
0
0
ARC
5
132
100
AcDbEntity
8
0
100
AcDbCircle
10
-36.079999000000001
20
143.454903
30
0
40
3.5000000000000009
210
0
220
0
230
1
100
AcDbArc
50
0
51
180
0
LINE
5
133
100
AcDbEntity
8
0
100
AcDbLine
10
-39.579999000000001
20
143.454903
30
0
11
-39.579999000000001
21
142.35490300000004
31
0
0
ARC
5
134
100
AcDbEntity
8
0
100
AcDbCircle
10
-40.579999000000001
20
142.35490300000004
30
0
40
0.99999999999999645
210
0
220
0
230
1
100
AcDbArc
50
-90
51
0
0
LINE
5
135
100
AcDbEntity
8
0
100
AcDbLine
10
-40.579999000000001
20
141.35490300000004
30
0
11
-128.93000000000001
21
141.35490300000001
31
0
0
ARC
5
136
100
AcDbEntity
8
0
100
AcDbCircle
10
-128.93000000000001
20
142.35490300000004
30
0
40
0.99999999999999645
210
0
220
0
230
1
100
AcDbArc
50
180
51
270
0
LINE
5
137
100
AcDbEntity
8
0
100
AcDbLine
10
-129.93000000000001
20
142.35490300000004
30
0
11
-129.93000000000001
21
143.454903
31
0
0
ARC
5
138
100
AcDbEntity
8
0
100
AcDbCircle
10
-133.43000000000001
20
143.454903
30
0
40
3.4999999999999964
210
0
220
0
230
1
100
AcDbArc
50
0
51
180
0
LINE
5
139
100
AcDbEntity
8
0
100
AcDbLine
10
-136.93000000000001
20
143.454903
30
0
11
-136.93000000000001
21
142.35490300000004
31
0
0
ARC
5
140
100
AcDbEntity
8
0
100
AcDbCircle
10
-137.93000000000001
20
142.35490300000004
30
0
40
0.99999999999999645
210
0
220
0
230
1
100
AcDbArc
50
-90
51
0
0
LINE
5
141
100
AcDbEntity
8
0
100
AcDbLine
10
-137.93000000000001
20
141.35490300000004
30
0
11
-226.28
21
141.35490300000001
31
0
0
ARC
5
142
100
AcDbEntity
8
0
100
AcDbCircle
10
-226.28
20
142.35490300000004
30
0
40
1.0000000000000142
210
0
220
0
230
1
100
AcDbArc
50
180
51
270
0
LINE
5
143
100
AcDbEntity
8
0
100
AcDbLine
10
-227.28000000000003
20
142.35490300000004
30
0
11
-227.28000000000003
21
143.454903
31
0
0
ARC
5
144
100
AcDbEntity
8
0
100
AcDbCircle
10
-230.78000000000003
20
143.454903
30
0
40
3.5000000000000142
210
0
220
0
230
1
100
AcDbArc
50
0
51
180
0
LINE
5
145
100
AcDbEntity
8
0
100
AcDbLine
10
-234.28000000000003
20
143.454903
30
0
11
-234.28
21
142.35490300000004
31
0
0
ARC
5
146
100
AcDbEntity
8
0
100
AcDbCircle
10
-235.28000000000003
20
142.35490300000004
30
0
40
0.99999999999999645
210
0
220
0
230
1
100
AcDbArc
50
-90
51
0
0
LINE
5
147
100
AcDbEntity
8
0
100
AcDbLine
10
-235.28000000000003
20
141.35490300000004
30
0
11
-281.32999999999998
21
141.35490300000001
31
0
0
ARC
5
148
100
AcDbEntity
8
0
100
AcDbCircle
10
-281.32999999999998
20
142.35490300000004
30
0
40
1.0000000000000142
210
0
220
0
230
1
100
AcDbArc
50
180
51
270
0
LINE
5
149
100
AcDbEntity
8
0
100
AcDbLine
10
-282.32999999999998
20
142.35490300000004
30
0
11
-282.32999999999998
21
143.454903
31
0
0
ARC
5
150
100
AcDbEntity
8
0
100
AcDbCircle
10
-285.82999999999998
20
143.454903
30
0
40
3.4999999999999787
210
0
220
0
230
1
100
AcDbArc
50
0
51
180
0
LINE
5
151
100
AcDbEntity
8
0
100
AcDbLine
10
-289.32999999999998
20
143.454903
30
0
11
-289.32999999999998
21
142.35490300000004
31
0
0
ARC
5
152
100
AcDbEntity
8
0
100
AcDbCircle
10
-290.33000000000004
20
142.35490300000004
30
0
40
0.99999999999999645
210
0
220
0
230
1
100
AcDbArc
50
-90
51
0
0
LINE
5
153
100
AcDbEntity
8
0
100
AcDbLine
10
-290.33000000000004
20
141.35490300000004
30
0
11
-294.35500000000002
21
141.35490300000001
31
0
0
ARC
5
154
100
AcDbEntity
8
0
100
AcDbCircle
10
-294.35500000000002
20
140.35490300000001
30
0
40
0.99999999999999645
210
0
220
-0
230
1
100
AcDbArc
50
90
51
180
0
LINE
5
155
100
AcDbEntity
8
0
100
AcDbLine
10
-295.35500000000008
20
140.35490300000001
30
0
11
-295.35500000000008
21
47.104904000000005
31
0
0
LWPOLYLINE
5
156
100
AcDbEntity
8
0
100
AcDbPolyline
90
10
70
1
43
0.0
10
-252.68625
20
105.78000000000002
10
-252.20011500000001
20
105.78000000000002
10
-252.17238399999999
20
105.78000000000002
10
-251.68625000000003
20
105.78
42
0.41421356237309503
10
-251.18625000000003
20
106.28
10
-251.18625000000003
20
119.27999900000002
42
0.4142135623730846
10
-251.686249
20
119.78000000000002
10
-252.68625
20
119.77999900000002
42
0.41421356237310542
10
-253.18624900000003
20
119.27999800000002
10
-253.18625
20
106.28
42
0.41421356237309503
0
LWPOLYLINE
5
157
100
AcDbEntity
8
0
100
AcDbPolyline
90
12
70
1
43
0.0
10
-233.58625000000001
20
106.28
42
-0.41421356237309503
10
-234.08625000000001
20
105.78
10
-234.572384
20
105.78000000000002
10
-234.58625000000001
20
105.77990300000002
10
-246.58625000000001
20
105.77990300000002
10
-246.60011499999999
20
105.78000000000002
10
-247.08625000000001
20
105.78
42
-0.41421356237309503
10
-247.58625000000001
20
106.28
10
-247.58624900000004
20
119.27999800000002
42
-0.41421356237310542
10
-247.08625000000001
20
119.77999900000002
10
-234.08624800000007
20
119.779999
42
-0.4142135623730846
10
-233.58625000000004
20
119.27999900000002
0
LWPOLYLINE
5
158
100
AcDbEntity
8
0
100
AcDbPolyline
90
10
70
1
43
0.0
10
-229.48625099999998
20
105.779999
42
-0.41421356237310542
10
-229.98625000000004
20
106.28
10
-229.98625000000004
20
119.27999900000002
42
-0.41421356237309503
10
-229.48625000000004
20
119.77999900000002
10
-228.48624900000004
20
119.78000000000002
42
-0.4142135623730846
10
-227.98625000000001
20
119.27999900000002
10
-227.98625000000001
20
106.28
42
-0.41421356237309503
10
-228.48625000000001
20
105.78
10
-228.97238400000003
20
105.78000000000002
10
-229.00011500000002
20
105.78000000000002
0
LWPOLYLINE
5
159
100
AcDbEntity
8
0
100
AcDbPolyline
90
12
70
1
43
0.0
10
-248.37375000000003
20
100.73000000000002
42
-0.41421356237309503
10
-247.87375
20
100.23000000000002
10
-247.87374900000003
20
87.230000000000004
42
-0.41421356237309503
10
-248.37375000000003
20
86.729999000000007
10
-248.85988400000002
20
86.729999000000007
10
-248.87375000000003
20
86.729903000000007
10
-260.87374999999997
20
86.729903000000007
10
-260.88761499999998
20
86.729999000000007
10
-261.37374999999997
20
86.729999000000007
42
-0.41421356237309503
10
-261.87374999999997
20
87.229999000000021
10
-261.87374999999997
20
100.22999800000001
42
-0.41421356237309503
10
-261.37374999999997
20
100.73000000000002
0
LWPOLYLINE
5
160
100
AcDbEntity
8
0
100
AcDbPolyline
90
12
70
1
43
0.0
10
-239.93574899999999
20
102.72999900000002
10
-245.93575000000001
20
102.73000000000002
42
0.41421356237309503
10
-246.43575100000004
20
102.22999900000002
10
-246.43575000000001
20
88.230000000000004
42
0.4142135623730846
10
-245.93575100000004
20
87.729999000000007
10
-245.44961499999999
20
87.730000000000018
10
-245.43575000000004
20
87.729903000000007
10
-240.43575000000004
20
87.729903000000007
10
-240.42188400000001
20
87.730000000000018
10
-239.93575000000004
20
87.72999999999999
42
0.41421356237309503
10
-239.43575000000004
20
88.230000000000004
10
-239.43574999999998
20
102.23
42
0.41421356237309503
0
LWPOLYLINE
5
161
100
AcDbEntity
8
0
100
AcDbPolyline
90
12
70
1
43
0.0
10
-230.91750000000002
20
100.22999800000001
10
-230.91750000000002
20
87.229999000000021
42
0.41421356237309503
10
-230.41750000000002
20
86.729999000000007
10
-229.93136500000003
20
86.729999000000007
10
-229.91749999999999
20
86.729903000000007
10
-217.91750000000002
20
86.729903000000007
10
-217.90363400000004
20
86.729999000000007
10
-217.41749999999999
20
86.729999000000007
42
0.41421356237309503
10
-216.91749900000002
20
87.230000000000004
10
-216.91750000000002
20
100.23000000000002
42
0.41421356237309503
10
-217.41749900000002
20
100.72999900000001
10
-230.41750000000002
20
100.73000000000002
42
0.41421356237309503
0
LWPOLYLINE
5
162
100
AcDbEntity
8
0
100
AcDbPolyline
90
12
70
1
43
0.0
10
-211.86750000000004
20
100.22999800000001
42
-0.41421356237309503
10
-211.36750000000004
20
100.73000000000002
10
-198.36749900000001
20
100.72999900000001
42
-0.41421356237309503
10
-197.86750000000001
20
100.23000000000002
10
-197.86749900000004
20
87.230000000000004
42
-0.41421356237309503
10
-198.36750000000001
20
86.729999000000007
10
-198.85363400000003
20
86.729999000000007
10
-198.86750000000004
20
86.729903000000007
10
-210.86750000000001
20
86.729903000000007
10
-210.88136500000002
20
86.729999000000007
10
-211.36750000000004
20
86.729999000000007
42
-0.41421356237309503
10
-211.86750000000004
20
87.229999000000021
0
LWPOLYLINE
5
163
100
AcDbEntity
8
0
100
AcDbPolyline
90
12
70
1
43
0.0
10
-179.317499
20
100.72999900000001
10
-192.31750000000002
20
100.73
42
0.41421356237309503
10
-192.81750000000002
20
100.22999800000001
10
-192.81750000000002
20
87.229999000000021
42
0.41421356237309503
10
-192.31750000000002
20
86.729999000000007
10
-191.83136500000001
20
86.729999000000007
10
-191.8175
20
86.729903000000007
10
-179.81750000000002
20
86.729903000000007
10
-179.80363399999999
20
86.729999000000007
10
-179.3175
20
86.729999000000007
42
0.41421356237309503
10
-178.817499
20
87.230000000000004
10
-178.8175
20
100.23000000000002
42
0.41421356237309503
0
LWPOLYLINE
5
164
100
AcDbEntity
8
0
100
AcDbPolyline
90
12
70
1
43
0.0
10
-208.39250000000004
20
105.77990300000002
10
-208.37863400000003
20
105.78000000000002
10
-207.89250000000004
20
105.78
42
0.41421356237309503
10
-207.39250000000001
20
106.28
10
-207.39250000000001
20
119.27999900000002
42
0.4142135623730846
10
-207.89249799999999
20
119.779999
10
-220.89250000000004
20
119.77999900000002
42
0.41421356237309503
10
-221.39250000000004
20
119.27999900000002
10
-221.39250000000004
20
106.28
42
0.41421356237310542
10
-220.89250100000001
20
105.77999900000002
10
-220.40636500000002
20
105.78000000000002
10
-220.39250000000004
20
105.77990300000002
0
LWPOLYLINE
5
165
100
AcDbEntity
8
0
100
AcDbPolyline
90
12
70
1
43
0.0
10
-201.84250099999997
20
105.779999
42
-0.41421356237310542
10
-202.34250000000003
20
106.28
10
-202.34250000000003
20
119.27999900000002
42
-0.41421356237309503
10
-201.84250000000003
20
119.77999900000002
10
-188.84249800000006
20
119.779999
42
-0.41421356237310542
10
-188.3425
20
119.27999900000002
10
-188.3425
20
106.28
42
-0.41421356237309503
10
-188.84250000000003
20
105.78
10
-189.32863399999999
20
105.78000000000002
10
-189.34250000000003
20
105.77990300000002
10
-201.34250000000003
20
105.77990300000002
10
-201.35636500000004
20
105.78000000000002
0
LWPOLYLINE
5
166
100
AcDbEntity
8
0
100
AcDbPolyline
90
12
70
1
43
0.0
10
-97.567500999999993
20
100.22999900000002
10
-97.567499999999995
20
87.229999000000021
42
0.41421356237309503
10
-97.067499999999995
20
86.729999000000007
10
-96.581365000000005
20
86.729999000000007
10
-96.56750000000001
20
86.729903000000007
10
-84.567499999999995
20
86.729903000000007
10
-84.553634000000017
20
86.729999000000007
10
-84.06750000000001
20
86.729999000000007
42
0.41421356237309503
10
-83.567498999999998
20
87.229997999999995
10
-83.567498999999984
20
100.23000000000002
42
0.41421356237310542
10
-84.06750000000001
20
100.72999900000001
10
-97.067499999999995
20
100.73000000000002
42
0.41421356237309503
0
LWPOLYLINE
5
167
100
AcDbEntity
8
0
100
AcDbPolyline
90
12
70
1
43
0.0
10
-116.61750000000001
20
100.23000000000002
42
-0.41421356237309503
10
-116.11750000000001
20
100.73000000000002
10
-103.11750000000002
20
100.73000000000002
42
-0.41421356237309503
10
-102.61750000000001
20
100.23000000000002
10
-102.617499
20
87.229997999999995
42
-0.41421356237309503
10
-103.11750000000002
20
86.729999000000007
10
-103.603634
20
86.729999000000007
10
-103.61750000000001
20
86.729903000000007
10
-115.61750000000002
20
86.729903000000007
10
-115.631365
20
86.729999000000007
10
-116.117498
20
86.729999000000007
42
-0.41421356237309503
10
-116.61749999999999
20
87.229999000000021
0
LWPOLYLINE
5
168
100
AcDbEntity
8
0
100
AcDbPolyline
90
12
70
1
43
0.0
10
-112.142499
20
106.279999
10
-112.1425
20
119.27999900000002
42
0.41421356237309503
10
-112.64250000000001
20
119.779999
10
-125.64250000000001
20
119.77999900000002
42
0.41421356237309503
10
-126.1425
20
119.27999900000002
10
-126.14250000000001
20
106.28
42
0.41421356237309503
10
-125.64250000000001
20
105.78000000000002
10
-125.15636499999999
20
105.78000000000002
10
-125.14250000000001
20
105.77990300000002
10
-113.142499
20
105.77990300000002
10
-113.12863400000001
20
105.78000000000002
10
-112.64250000000001
20
105.78
42
0.41421356237309503
0
LWPOLYLINE
5
169
100
AcDbEntity
8
0
100
AcDbPolyline
90
12
70
1
43
0.0
10
-93.092499000000004
20
106.279999
10
-93.092500000000001
20
119.27999900000002
42
0.41421356237309503
10
-93.592500000000015
20
119.779999
10
-106.5925
20
119.77999900000002
42
0.41421356237309503
10
-107.0925
20
119.27999900000002
10
-107.0925
20
106.28
42
0.41421356237309503
10
-106.592499
20
105.77999900000002
10
-106.106365
20
105.78000000000002
10
-106.09250000000002
20
105.77990300000002
10
-94.092499000000004
20
105.77990300000002
10
-94.078633999999994
20
105.78000000000002
10
-93.592500000000015
20
105.78
42
0.41421356237310542
0
LWPOLYLINE
5
170
100
AcDbEntity
8
0
100
AcDbPolyline
90
12
70
1
43
0.0
10
-74.542499000000007
20
119.779999
10
-87.542500000000004
20
119.779999
42
0.41421356237309503
10
-88.042500000000018
20
119.27999900000002
10
-88.042500000000018
20
106.28
42
0.41421356237309503
10
-87.542501000000001
20
105.77999900000002
10
-87.056365
20
105.78000000000002
10
-87.042500000000004
20
105.77990300000002
10
-75.042499000000021
20
105.77990300000002
10
-75.028633999999997
20
105.78000000000002
10
-74.542500000000004
20
105.78
42
0.41421356237310025
10
-74.042499000000007
20
106.279999
10
-74.042499000000007
20
119.27999900000002
42
0.41421356237309503
0
LWPOLYLINE
5
171
100
AcDbEntity
8
0
100
AcDbPolyline
90
12
70
1
43
0.0
10
-163.742501
20
105.77999900000002
10
-163.25636499999999
20
105.78000000000002
10
-163.24250000000004
20
105.77990300000002
10
-151.24250000000001
20
105.77990300000002
10
-151.228634
20
105.78000000000002
10
-150.74250000000001
20
105.78
42
0.41421356237309503
10
-150.24250000000001
20
106.28
10
-150.24250000000001
20
119.27999900000002
42
0.41421356237309503
10
-150.74250000000001
20
119.779999
10
-163.74250000000001
20
119.77999900000002
42
0.41421356237310542
10
-164.24249900000004
20
119.27999800000002
10
-164.24250000000001
20
106.28
42
0.4142135623730846
0
LWPOLYLINE
5
172
100
AcDbEntity
8
0
100
AcDbPolyline
90
12
70
1
43
0.0
10
-132.1925
20
105.77990300000002
10
-132.17863399999999
20
105.78000000000002
10
-131.6925
20
105.78000000000002
42
0.41421356237309503
10
-131.19250099999999
20
106.279999
10
-131.1925
20
119.27999900000002
42
0.41421356237309503
10
-131.6925
20
119.779999
10
-144.6925
20
119.77999900000002
42
0.41421356237309503
10
-145.1925
20
119.27999900000002
10
-145.19250000000002
20
106.28
42
0.41421356237309503
10
-144.6925
20
105.78000000000002
10
-144.20636500000001
20
105.78000000000002
10
-144.1925
20
105.77990300000002
0
LWPOLYLINE
5
173
100
AcDbEntity
8
0
100
AcDbPolyline
90
12
70
1
43
0.0
10
-172.76750000000004
20
86.729903000000007
10
-160.76750000000001
20
86.729903000000007
10
-160.75363400000001
20
86.729999000000007
10
-160.26750000000004
20
86.729999000000007
42
0.41421356237309503
10
-159.76749899999999
20
87.230000000000004
10
-159.76749999999998
20
100.23000000000002
42
0.41421356237309503
10
-160.26749899999999
20
100.72999900000001
10
-173.26750000000001
20
100.73000000000002
42
0.41421356237309503
10
-173.76750000000001
20
100.22999800000001
10
-173.76750000000001
20
87.229999000000021
42
0.41421356237309503
10
-173.26750000000001
20
86.729999000000007
10
-172.78136499999999
20
86.729999000000007
0
LWPOLYLINE
5
174
100
AcDbEntity
8
0
100
AcDbPolyline
90
12
70
1
43
0.0
10
-153.7175
20
86.729903000000007
10
-141.7175
20
86.729903000000007
10
-141.70363399999999
20
86.729999000000007
10
-141.2175
20
86.729999000000007
42
0.41421356237309503
10
-140.71750000000003
20
87.229999000000021
10
-140.7175
20
100.23000000000002
42
0.41421356237309503
10
-141.2175
20
100.73
10
-154.2175
20
100.73000000000002
42
0.41421356237310542
10
-154.7175
20
100.22999800000001
10
-154.71750000000003
20
87.229999000000021
42
0.41421356237309503
10
-154.2175
20
86.729999000000007
10
-153.73136500000001
20
86.729999000000007
0
LWPOLYLINE
5
175
100
AcDbEntity
8
0
100
AcDbPolyline
90
12
70
1
43
0.0
10
-169.79249800000002
20
119.779999
10
-182.79250000000002
20
119.779999
42
0.4142135623730846
10
-183.29249900000002
20
119.27999800000002
10
-183.29250000000002
20
106.28
42
0.41421356237310542
10
-182.79250099999999
20
105.77999900000002
10
-182.306365
20
105.78000000000002
10
-182.29250000000002
20
105.77990300000002
10
-170.29250000000002
20
105.77990300000002
10
-170.27863400000001
20
105.78000000000002
10
-169.79250000000002
20
105.78
42
0.41421356237309503
10
-169.29249999999999
20
106.28
10
-169.29249999999999
20
119.27999900000002
42
0.41421356237310542
0
LWPOLYLINE
5
176
100
AcDbEntity
8
0
100
AcDbPolyline
90
12
70
1
43
0.0
10
-121.6675
20
87.229999000000021
10
-121.6675
20
100.23000000000002
42
0.41421356237309503
10
-122.16750000000002
20
100.73
10
-135.16749999999999
20
100.73000000000002
42
0.41421356237309503
10
-135.66749999999999
20
100.23000000000002
10
-135.66750000000002
20
87.229999000000021
42
0.41421356237310542
10
-135.16749799999999
20
86.729999000000007
10
-134.681365
20
86.729999000000007
10
-134.66749999999999
20
86.729903000000007
10
-122.66750000000002
20
86.729903000000007
10
-122.653634
20
86.729999000000007
10
-122.16750000000002
20
86.729999000000007
42
0.41421356237309503
0
LWPOLYLINE
5
177
100
AcDbEntity
8
0
100
AcDbPolyline
90
12
70
1
43
0.0
10
-231.20500000000004
20
68.180000000000007
10
-231.20500000000004
20
81.179998999999995
42
0.41421356237309503
10
-231.70500000000004
20
81.679998999999995
10
-244.70500000000001
20
81.679999999999993
42
0.41421356237309503
10
-245.20500100000004
20
81.179998999999995
10
-245.20500000000001
20
68.179999000000009
42
0.41421356237309503
10
-244.70500000000001
20
67.679998999999995
10
-244.21886499999999
20
67.680000000000007
10
-244.20500000000004
20
67.679902999999996
10
-232.20500000000001
20
67.679902999999996
10
-232.19113400000001
20
67.680000000000007
10
-231.70500000000004
20
67.680000000000021
42
0.41421356237309503
0
LWPOLYLINE
5
178
100
AcDbEntity
8
0
100
AcDbPolyline
90
12
70
1
43
0.0
10
-225.16886500000001
20
67.680000000000007
10
-225.15500000000003
20
67.679902999999996
10
-213.155
20
67.679902999999996
10
-213.14113399999999
20
67.680000000000007
10
-212.65500000000003
20
67.680000000000021
42
0.41421356237309503
10
-212.15500000000003
20
68.180000000000007
10
-212.15500000000003
20
81.179998999999995
42
0.41421356237309503
10
-212.65500000000003
20
81.679998999999995
10
-225.655
20
81.679999999999993
42
0.41421356237309503
10
-226.15500100000003
20
81.179998999999995
10
-226.155
20
68.179999000000009
42
0.41421356237309503
10
-225.655
20
67.679998999999995
0
LWPOLYLINE
5
179
100
AcDbEntity
8
0
100
AcDbPolyline
90
12
70
1
43
0.0
10
-206.10500000000002
20
67.679902999999996
10
-194.10499999999999
20
67.679902999999996
10
-194.09113400000001
20
67.680000000000007
10
-193.60500000000002
20
67.680000000000021
42
0.41421356237309503
10
-193.10500000000002
20
68.180000000000007
10
-193.10500000000002
20
81.179998999999995
42
0.41421356237309503
10
-193.60499799999999
20
81.679998999999995
10
-206.60499999999999
20
81.679999999999993
42
0.41421356237309503
10
-207.10500100000002
20
81.179998999999995
10
-207.10499999999999
20
68.179999000000009
42
0.41421356237309503
10
-206.60499999999999
20
67.679998999999995
10
-206.118865
20
67.680000000000007
0
LWPOLYLINE
5
180
100
AcDbEntity
8
0
100
AcDbPolyline
90
12
70
1
43
0.0
10
-130.905
20
81.180000000000007
10
-130.905
20
68.179999000000009
42
0.41421356237309503
10
-130.40500000000003
20
67.679998999999995
10
-129.91886500000001
20
67.680000000000007
10
-129.905
20
67.679902999999996
10
-117.90500000000002
20
67.679902999999996
10
-117.89113399999999
20
67.680000000000007
10
-117.405
20
67.679999999999993
42
0.41421356237309503
10
-116.90500100000001
20
68.179999000000009
10
-116.905
20
81.179998999999995
42
0.41421356237309503
10
-117.405
20
81.679998999999995
10
-130.40500000000003
20
81.680000000000007
42
0.41421356237309503
0
LWPOLYLINE
5
181
100
AcDbEntity
8
0
100
AcDbPolyline
90
12
70
1
43
0.0
10
-149.45500000000004
20
67.679998999999995
10
-148.96886499999999
20
67.680000000000007
10
-148.95500000000001
20
67.679902999999996
10
-136.95500000000004
20
67.679902999999996
10
-136.94113400000001
20
67.680000000000007
10
-136.45500000000001
20
67.679999999999993
42
0.41421356237309503
10
-135.95500100000004
20
68.179999000000009
10
-135.95500000000001
20
81.179998999999995
42
0.41421356237309503
10
-136.45500000000001
20
81.679998999999995
10
-149.45500000000004
20
81.680000000000007
42
0.41421356237309503
10
-149.95500000000001
20
81.180000000000007
10
-149.95500000000004
20
68.179999000000009
42
0.41421356237309503
0
LWPOLYLINE
5
182
100
AcDbEntity
8
0
100
AcDbPolyline
90
12
70
1
43
0.0
10
-168.505
20
67.679998999999995
42
-0.41421356237309503
10
-169.005
20
68.179999000000009
10
-169.005
20
81.179997999999998
42
-0.4142135623730846
10
-168.505
20
81.679999999999993
10
-155.504998
20
81.679998999999995
42
-0.41421356237310542
10
-155.005
20
81.179998999999995
10
-155.005
20
68.180000000000007
42
-0.41421356237309503
10
-155.505
20
67.680000000000021
10
-155.99113399999999
20
67.680000000000007
10
-156.005
20
67.679902999999996
10
-168.005
20
67.679902999999996
10
-168.01886500000001
20
67.680000000000007
0
LWPOLYLINE
5
183
100
AcDbEntity
8
0
100
AcDbPolyline
90
12
70
1
43
0.0
10
-92.805001000000004
20
81.179998999999995
42
-0.41421356237309503
10
-92.305000000000007
20
81.679999999999993
10
-79.304998999999995
20
81.679999999999993
42
-0.41421356237309503
10
-78.805000000000007
20
81.179998999999995
10
-78.804999999999993
20
68.179997999999998
42
-0.41421356237310025
10
-79.305000000000007
20
67.679999999999993
10
-79.791134
20
67.680000000000007
10
-79.805000000000007
20
67.679902999999996
10
-91.805000000000007
20
67.679902999999996
10
-91.818865000000017
20
67.680000000000007
10
-92.304998999999995
20
67.680000000000007
42
-0.41421356237309503
10
-92.805000000000021
20
68.179999000000009
0
LWPOLYLINE
5
184
100
AcDbEntity
8
0
100
AcDbPolyline
90
12
70
1
43
0.0
10
-97.855001000000001
20
68.179999000000009
42
-0.41421356237309503
10
-98.355000000000018
20
67.679999999999993
10
-98.841134000000011
20
67.680000000000007
10
-98.855000000000004
20
67.679902999999996
10
-110.85500000000002
20
67.679902999999996
10
-110.868865
20
67.680000000000007
10
-111.35499900000001
20
67.680000000000007
42
-0.4142135623730846
10
-111.85500000000002
20
68.179999000000009
10
-111.85499900000002
20
81.179998999999995
42
-0.41421356237310542
10
-111.355
20
81.680000000000007
10
-98.354999000000021
20
81.680000000000007
42
-0.41421356237310542
10
-97.855000000000004
20
81.179998999999995
0
LWPOLYLINE
5
185
100
AcDbEntity
8
0
100
AcDbPolyline
90
10
70
1
43
0.0
10
-250.43136500000003
20
67.680000000000007
10
-250.40363400000004
20
67.680000000000007
10
-249.91749999999999
20
67.680000000000021
42
0.41421356237309503
10
-249.41749999999999
20
68.180000000000007
10
-249.41749999999999
20
81.179998999999995
42
0.41421356237311585
10
-249.91749900000002
20
81.680000000000007
10
-250.91750000000002
20
81.679999999999993
42
0.4142135623730846
10
-251.41750000000002
20
81.179997999999998
10
-251.41750000000002
20
68.179999000000009
42
0.41421356237309503
10
-250.91750000000002
20
67.679998999999995
0
LWPOLYLINE
5
186
100
AcDbEntity
8
0
100
AcDbPolyline
90
24
70
1
43
0.0
10
-273.28000100000003
20
48.629998999999991
42
-0.414213562373069
10
-273.77999999999997
20
49.130000000000003
10
-273.78000100000003
20
62.129998999999998
42
-0.41421356237309503
10
-273.27999999999997
20
62.629999999999995
10
-272.69299999999998
20
62.629999000000005
10
-272.69300100000004
20
64.129998999999998
42
-0.41421356237309503
10
-272.19299999999998
20
64.629999999999995
10
-266.19300099999998
20
64.629999000000012
42
-0.41421356237310025
10
-265.69299999999998
20
64.129999999999995
10
-265.69299999999998
20
62.63000000000001
10
-248.81700000000001
20
62.63000000000001
10
-248.81700100000003
20
64.129998999999998
42
-0.41421356237309503
10
-248.31700000000001
20
64.629999999999995
10
-242.31699900000001
20
64.629998999999998
42
-0.41421356237309503
10
-241.81700000000004
20
64.129999999999995
10
-241.81700000000004
20
62.63000000000001
10
-241.22999899999999
20
62.629999000000005
42
-0.41421356237309503
10
-240.73000000000002
20
62.13000000000001
10
-240.72999899999999
20
49.130000000000003
42
-0.41421356237309503
10
-241.23000000000002
20
48.629998999999998
10
-241.71613400000001
20
48.629998999999998
10
-241.73000000000002
20
48.629902999999999
10
-272.77999999999997
20
48.629902999999999
10
-272.79386499999998
20
48.629998999999998
0
LWPOLYLINE
5
187
100
AcDbEntity
8
0
100
AcDbPolyline
90
12
70
1
43
0.0
10
-234.69386499999999
20
48.629998999999998
10
-234.68000000000004
20
48.629902999999999
10
-222.68000000000001
20
48.629902999999999
10
-222.666134
20
48.629998999999998
10
-222.18000000000004
20
48.629998999999998
42
0.41421356237309503
10
-221.67999900000001
20
49.130000000000003
10
-221.68000000000004
20
62.13000000000001
42
0.41421356237309503
10
-222.17999900000001
20
62.629999000000005
10
-235.18000000000001
20
62.629999999999995
42
0.41421356237309503
10
-235.68000100000003
20
62.129998999999998
10
-235.68000000000001
20
49.130000000000003
42
0.41421356237308982
10
-235.180001
20
48.629998999999998
0
LWPOLYLINE
5
188
100
AcDbEntity
8
0
100
AcDbPolyline
90
12
70
1
43
0.0
10
-203.61613399999999
20
48.629998999999998
10
-203.13000000000002
20
48.629998999999998
42
0.41421356237309503
10
-202.629999
20
49.130000000000003
10
-202.63000000000002
20
62.13000000000001
42
0.41421356237309503
10
-203.129999
20
62.629999000000005
10
-216.13
20
62.629999999999995
42
0.41421356237309503
10
-216.63000100000002
20
62.129998999999998
10
-216.63
20
49.130000000000003
42
0.41421356237308982
10
-216.13000099999999
20
48.629998999999998
10
-215.64386500000001
20
48.629998999999998
10
-215.63000000000002
20
48.629902999999999
10
-203.63
20
48.629902999999999
0
LWPOLYLINE
5
189
100
AcDbEntity
8
0
100
AcDbPolyline
90
12
70
1
43
0.0
10
-139.44386500000002
20
48.629998999999998
10
-139.43000000000001
20
48.629902999999999
10
-127.43000000000002
20
48.629902999999999
10
-127.416134
20
48.629998999999998
10
-126.93000000000001
20
48.629998999999998
42
0.41421356237309503
10
-126.429999
20
49.130000000000003
10
-126.43000000000001
20
62.13000000000001
42
0.4142135623730846
10
-126.930001
20
62.629999000000005
10
-139.93000000000001
20
62.63000000000001
42
0.41421356237309503
10
-140.43000000000001
20
62.13000000000001
10
-140.43000000000004
20
49.130000000000003
42
0.41421356237310025
10
-139.930001
20
48.629998999999998
0
LWPOLYLINE
5
190
100
AcDbEntity
8
0
100
AcDbPolyline
90
12
70
1
43
0.0
10
-146.46613400000001
20
48.629998999999998
10
-145.97999999999999
20
48.629998999999998
42
0.41421356237309503
10
-145.47999900000002
20
49.130000000000003
10
-145.47999999999999
20
62.13000000000001
42
0.41421356237309503
10
-145.98000100000002
20
62.629999000000005
10
-158.97999999999999
20
62.629999999999995
42
0.41421356237309503
10
-159.48000000000002
20
62.129998000000001
10
-159.48000000000002
20
49.130000000000003
42
0.41421356237310025
10
-158.98000099999999
20
48.629998999999998
10
-158.49386500000003
20
48.629998999999998
10
-158.47999999999999
20
48.629902999999999
10
-146.47999999999999
20
48.629902999999999
0
LWPOLYLINE
5
191
100
AcDbEntity
8
0
100
AcDbPolyline
90
12
70
1
43
0.0
10
-178.53000000000003
20
62.129998000000001
42
-0.4142135623730846
10
-178.03
20
62.629999999999995
10
-165.03
20
62.630000000000017
42
-0.41421356237309503
10
-164.53
20
62.13000000000001
10
-164.52999900000003
20
49.130000000000003
42
-0.41421356237309503
10
-165.03
20
48.629998999999998
10
-165.51613400000002
20
48.629998999999998
10
-165.53
20
48.629902999999999
10
-177.53
20
48.629902999999999
10
-177.54386500000004
20
48.629998999999998
10
-178.03000100000003
20
48.629998999999991
42
-0.41421356237308982
10
-178.53000000000003
20
49.130000000000003
0
LWPOLYLINE
5
192
100
AcDbEntity
8
0
100
AcDbPolyline
90
12
70
1
43
0.0
10
-197.58000100000004
20
62.129998999999998
10
-197.58000000000004
20
49.130000000000003
42
0.41421356237308982
10
-197.08000100000004
20
48.629998999999998
10
-196.59386499999999
20
48.629998999999998
10
-196.58000000000001
20
48.629902999999999
10
-184.58000000000001
20
48.629902999999999
10
-184.56613400000003
20
48.629998999999998
10
-184.08000000000001
20
48.629998999999998
42
0.41421356237309503
10
-183.57999899999999
20
49.130000000000003
10
-183.58000000000001
20
62.13000000000001
42
0.41421356237309503
10
-184.08000000000001
20
62.63000000000001
10
-197.08000000000001
20
62.629999999999995
42
0.41421356237309503
0
LWPOLYLINE
5
193
100
AcDbEntity
8
0
100
AcDbPolyline
90
12
70
1
43
0.0
10
-108.38000000000001
20
48.629902999999999
10
-108.36613400000002
20
48.629998999999998
10
-107.88
20
48.629998999999998
42
0.41421356237309503
10
-107.38
20
49.129998999999998
10
-107.38
20
62.13000000000001
42
0.41421356237309503
10
-107.88
20
62.63000000000001
10
-120.879999
20
62.63000000000001
42
0.41421356237309503
10
-121.379999
20
62.13000000000001
10
-121.379999
20
49.130000000000003
42
0.41421356237309503
10
-120.879999
20
48.630000000000003
10
-120.39386500000001
20
48.629998999999998
10
-120.37999900000001
20
48.629902999999999
0
LWPOLYLINE
5
194
100
AcDbEntity
8
0
100
AcDbPolyline
90
12
70
1
43
0.0
10
-82.293865000000011
20
48.629998999999998
10
-82.280000000000001
20
48.629902999999999
10
-70.280000000000001
20
48.629902999999999
10
-70.266133999999994
20
48.629998999999998
10
-69.780000000000001
20
48.629998999999998
42
0.41421356237309503
10
-69.280000000000001
20
49.129998999999998
10
-69.280000000000001
20
62.13000000000001
42
0.41421356237309503
10
-69.780000000000001
20
62.63000000000001
10
-82.780000000000001
20
62.63000000000001
42
0.41421356237309503
10
-83.280000000000015
20
62.13000000000001
10
-83.280000000000015
20
49.130000000000003
42
0.41421356237309503
10
-82.780000000000001
20
48.630000000000003
0
LWPOLYLINE
5
195
100
AcDbEntity
8
0
100
AcDbPolyline
90
12
70
1
43
0.0
10
-45.18
20
62.13000000000001
42
-0.41421356237309503
10
-44.68
20
62.63000000000001
10
-31.68
20
62.63000000000001
42
-0.41421356237309503
10
-31.180000000000003
20
62.13000000000001
10
-31.179999000000002
20
49.130000000000003
42
-0.41421356237309503
10
-31.68
20
48.629998999999998
10
-32.166134
20
48.629998999999998
10
-32.18
20
48.629902999999999
10
-44.18
20
48.629902999999999
10
-44.19386500000001
20
48.630000000000003
10
-44.680001000000004
20
48.629998999999998
42
-0.41421356237309503
10
-45.18
20
49.130000000000003
0
LWPOLYLINE
5
196
100
AcDbEntity
8
0
100
AcDbPolyline
90
12
70
1
43
0.0
10
-63.243865
20
48.630000000000003
10
-63.230000000000004
20
48.629902999999999
10
-51.230000000000004
20
48.629902999999999
10
-51.216134000000004
20
48.629998999999998
10
-50.730000000000004
20
48.629998999999998
42
0.41421356237309503
10
-50.229999999999997
20
49.129998999999998
10
-50.230000000000004
20
62.13000000000001
42
0.41421356237309503
10
-50.730000000000004
20
62.63000000000001
10
-63.730000000000004
20
62.629999999999995
42
0.41421356237309503
10
-64.230001000000001
20
62.129998999999998
10
-64.230000000000004
20
49.130000000000003
42
0.41421356237309503
10
-63.730000000000004
20
48.630000000000003
0
LWPOLYLINE
5
197
100
AcDbEntity
8
0
100
AcDbPolyline
90
12
70
1
43
0.0
10
-88.329999000000015
20
49.129998000000008
10
-88.329999999999998
20
62.13000000000001
42
0.41421356237309503
10
-88.830000000000013
20
62.63000000000001
10
-101.83
20
62.63000000000001
42
0.41421356237309503
10
-102.33000000000001
20
62.13000000000001
10
-102.33000000000001
20
49.130000000000003
42
0.41421356237309503
10
-101.83
20
48.630000000000003
10
-101.34386499999999
20
48.629998999999998
10
-101.33000000000001
20
48.629902999999999
10
-89.329999999999998
20
48.629902999999999
10
-89.316134000000019
20
48.629998999999998
10
-88.830000000000013
20
48.629998999999998
42
0.41421356237310542
0
LWPOLYLINE
5
198
100
AcDbEntity
8
0
100
AcDbPolyline
90
12
70
1
43
0.0
10
-41.204999999999998
20
81.679998999999995
10
-54.205000000000005
20
81.680000000000007
42
0.41421356237309503
10
-54.70500100000001
20
81.179998999999995
10
-54.705000000000005
20
68.179999000000009
42
0.41421356237309503
10
-54.205000000000005
20
67.679998999999995
10
-53.718865000000008
20
67.680000000000007
10
-53.704999999999998
20
67.679902999999996
10
-41.704999999999998
20
67.679902999999996
10
-41.691133999999998
20
67.680000000000007
10
-41.204999999999998
20
67.679999999999993
42
0.41421356237309503
10
-40.705001000000003
20
68.179999000000009
10
-40.704999999999998
20
81.179998999999995
42
0.41421356237309503
0
LWPOLYLINE
5
199
100
AcDbEntity
8
0
100
AcDbPolyline
90
12
70
1
43
0.0
10
-60.74113400000001
20
67.680000000000007
10
-60.25500000000001
20
67.680000000000007
42
0.41421356237309503
10
-59.755001000000007
20
68.179999000000009
10
-59.75500000000001
20
81.179998999999995
42
0.41421356237309503
10
-60.25500000000001
20
81.679998999999995
10
-73.254999999999995
20
81.680000000000007
42
0.41421356237309503
10
-73.754999999999995
20
81.180000000000007
10
-73.754999999999995
20
68.179999000000009
42
0.4142135623730846
10
-73.254998999999998
20
67.680000000000007
10
-72.768865000000005
20
67.680000000000007
10
-72.754999999999995
20
67.679902999999996
10
-60.75500000000001
20
67.679902999999996
0
LWPOLYLINE
5
200
100
AcDbEntity
8
0
100
AcDbPolyline
90
12
70
1
43
0.0
10
-187.55500000000001
20
67.679998999999995
10
-187.06886499999999
20
67.680000000000007
10
-187.05500000000001
20
67.679902999999996
10
-175.05500000000001
20
67.679902999999996
10
-175.041134
20
67.680000000000007
10
-174.55500000000001
20
67.680000000000021
42
0.41421356237309503
10
-174.05500000000001
20
68.180000000000007
10
-174.05500000000004
20
81.179998999999995
42
0.41421356237309503
10
-174.55499800000001
20
81.679998999999995
10
-187.55500000000001
20
81.679999999999993
42
0.41421356237309503
10
-188.055001
20
81.179998999999995
10
-188.05500000000001
20
68.179999000000009
42
0.41421356237309503
0
LWPOLYLINE
5
201
100
AcDbEntity
8
0
100
AcDbPolyline
90
12
70
1
43
0.0
10
-78.017499000000015
20
86.730000000000004
10
-77.531364999999994
20
86.729999000000007
10
-77.517499999999998
20
86.729903000000007
10
-65.517499999999998
20
86.729903000000007
10
-65.503634000000005
20
86.729999000000007
10
-65.017499999999998
20
86.729999000000007
42
0.41421356237309503
10
-64.517500000000013
20
87.229999000000021
10
-64.517500000000013
20
100.23000000000002
42
0.41421356237309503
10
-65.017499999999998
20
100.73
10
-78.017499999999998
20
100.73000000000002
42
0.41421356237309503
10
-78.517499999999998
20
100.23000000000002
10
-78.517499999999998
20
87.229999000000021
42
0.41421356237309503
0
LWPOLYLINE
5
202
100
AcDbEntity
8
0
100
AcDbPolyline
90
12
70
1
43
0.0
10
-45.467499999999994
20
87.229999000000021
42
-0.41421356237309503
10
-45.967500000000001
20
86.729999000000007
10
-46.453634000000001
20
86.729999000000007
10
-46.467500000000001
20
86.729903000000007
10
-58.467500000000001
20
86.729903000000007
10
-58.481364999999997
20
86.729999000000007
10
-58.967500000000008
20
86.729999000000007
42
-0.41421356237309503
10
-59.467500000000008
20
87.229999000000021
10
-59.467500000000015
20
100.23000000000002
42
-0.41421356237309503
10
-58.967500000000008
20
100.73000000000002
10
-45.967500000000001
20
100.73
42
-0.41421356237309503
10
-45.467500000000001
20
100.23000000000002
0
LWPOLYLINE
5
203
100
AcDbEntity
8
0
100
AcDbPolyline
90
12
70
1
43
0.0
10
-26.417499999999997
20
87.229999000000021
42
-0.41421356237309503
10
-26.917500000000004
20
86.729999000000007
10
-27.403634
20
86.729999000000007
10
-27.4175
20
86.729903000000007
10
-39.417499999999997
20
86.729903000000007
10
-39.431365
20
86.729999000000007
10
-39.917499999999997
20
86.729999000000007
42
-0.41421356237309503
10
-40.417499999999997
20
87.229999000000021
10
-40.417500000000004
20
100.23000000000002
42
-0.41421356237309503
10
-39.917499999999997
20
100.73000000000002
10
-26.917500000000004
20
100.73
42
-0.41421356237309503
10
-26.417500000000004
20
100.23000000000002
0
LWPOLYLINE
5
204
100
AcDbEntity
8
0
100
AcDbPolyline
90
12
70
1
43
0.0
10
-48.942500000000003
20
105.77990300000002
10
-36.942500000000003
20
105.77990300000002
10
-36.928634000000002
20
105.78000000000002
10
-36.442500000000003
20
105.78
42
0.41421356237309503
10
-35.94250000000001
20
106.28
10
-35.94250000000001
20
119.27999900000002
42
0.41421356237309503
10
-36.442500000000003
20
119.779999
10
-49.442500000000003
20
119.77999900000002
42
0.41421356237309503
10
-49.94250000000001
20
119.27999900000002
10
-49.942500000000003
20
106.28
42
0.41421356237308982
10
-49.442501000000007
20
105.77999900000002
10
-48.956365000000005
20
105.78000000000002
0
LWPOLYLINE
5
205
100
AcDbEntity
8
0
100
AcDbPolyline
90
12
70
1
43
0.0
10
-67.992500000000007
20
105.77990300000002
10
-55.992500000000007
20
105.77990300000002
10
-55.978634000000007
20
105.78000000000002
10
-55.492500000000007
20
105.78000000000002
42
0.41421356237310025
10
-54.9925
20
106.27999800000001
10
-54.992500000000007
20
119.27999900000002
42
0.41421356237309503
10
-55.492500000000007
20
119.779999
10
-68.492500000000007
20
119.77999900000002
42
0.41421356237309503
10
-68.992500000000007
20
119.27999900000002
10
-68.992500000000007
20
106.28
42
0.41421356237309503
10
-68.492500000000007
20
105.78000000000002
10
-68.006365000000002
20
105.78000000000002
0
LWPOLYLINE
5
206
100
AcDbEntity
8
0
100
AcDbPolyline
90
14
70
1
43
0.0
10
4.8762499999999998
20
100.73000000000002
42
-0.41421356237309503
10
5.3762500000000006
20
100.23000000000002
10
5.3762500000000069
20
87.229999000000021
42
-0.41421356237309503
10
4.8762499999999998
20
86.729999000000007
10
4.3901159999999999
20
86.729999000000007
10
4.3623849999999997
20
86.729999000000007
10
3.552616
20
86.729999000000007
10
3.5387499999999994
20
86.729903000000007
10
-13.223749
20
86.729903000000007
10
-13.237615
20
86.729999000000007
10
-13.723750000000001
20
86.729999000000007
42
-0.41421356237309503
10
-14.223750000000003
20
87.229999000000021
10
-14.223750000000008
20
100.23000000000002
42
-0.41421356237309503
10
-13.723750000000001
20
100.73000000000002
0
LWPOLYLINE
5
207
100
AcDbEntity
8
0
100
AcDbPolyline
90
10
70
1
43
0.0
10
-18.837615
20
86.729999000000007
10
-18.809884
20
86.729999000000007
10
-18.32375
20
86.729999000000007
42
0.41421356237309503
10
-17.82375
20
87.229999000000021
10
-17.82375
20
100.23000000000002
42
0.41421356237309503
10
-18.32375
20
100.73
10
-19.32375
20
100.73000000000002
42
0.41421356237309115
10
-19.823748999999999
20
100.22999900000002
10
-19.823749000000003
20
87.229999000000021
42
0.41421356237309503
10
-19.323748999999999
20
86.729999000000007
0
LWPOLYLINE
5
208
100
AcDbEntity
8
0
100
AcDbPolyline
90
12
70
1
43
0.0
10
-25.630000000000003
20
48.630000000000003
10
-25.143865000000005
20
48.629998999999998
10
-25.129999000000005
20
48.629902999999999
10
-13.130000000000003
20
48.629902999999999
10
-13.116134000000002
20
48.629998999999998
10
-12.630000000000001
20
48.629998999999998
42
0.41421356237309503
10
-12.130000000000001
20
49.129998999999998
10
-12.130000000000001
20
62.13000000000001
42
0.41421356237309503
10
-12.630000000000001
20
62.63000000000001
10
-25.630000000000003
20
62.629999999999995
42
0.41421356237309503
10
-26.130001000000004
20
62.129998999999998
10
-26.129999999999999
20
49.130000000000003
42
0.41421356237309503
0
LWPOLYLINE
5
209
100
AcDbEntity
8
0
100
AcDbPolyline
90
10
70
1
43
0.0
10
-15.442500999999996
20
68.179999000000009
42
-0.41421356237309503
10
-15.942500000000003
20
67.679999999999993
10
-16.428633999999999
20
67.680000000000007
10
-16.456365000000002
20
67.680000000000007
10
-16.942499000000002
20
67.679999000000009
42
-0.41421356237309503
10
-17.442499000000002
20
68.179999000000009
10
-17.442500000000003
20
81.179997999999998
42
-0.41421356237309243
10
-16.942499999999999
20
81.679999999999993
10
-15.942500000000003
20
81.679998999999995
42
-0.41421356237309503
10
-15.442500000000001
20
81.179998999999995
0
LWPOLYLINE
5
210
100
AcDbEntity
8
0
100
AcDbPolyline
90
12
70
1
43
0.0
10
-21.655000999999999
20
68.179999000000009
10
-21.655000000000001
20
81.179998999999995
42
0.41421356237309503
10
-22.155000000000001
20
81.679998999999995
10
-35.155000000000001
20
81.679999999999993
42
0.41421356237308982
10
-35.655000000000001
20
81.179997999999998
10
-35.654998999999997
20
68.179999000000009
42
0.41421356237309503
10
-35.154999000000004
20
67.679998999999995
10
-34.668864999999997
20
67.680000000000007
10
-34.655000000000001
20
67.679902999999996
10
-22.655000000000001
20
67.679902999999996
10
-22.641134000000001
20
67.680000000000007
10
-22.155000000000001
20
67.679999999999993
42
0.41421356237309503
0
LWPOLYLINE
5
211
100
AcDbEntity
8
0
100
AcDbPolyline
90
12
70
1
43
0.0
10
-7.0800000000000018
20
62.129998999999998
42
-0.41421356237309503
10
-6.5799990000000008
20
62.629999999999995
10
6.419999999999999
20
62.63000000000001
42
-0.4142135623730957
10
6.9200000000000008
20
62.13000000000001
10
6.920001000000001
20
49.130000000000003
42
-0.41421356237309503
10
6.4199999999999999
20
48.629998999999998
10
5.9338660000000001
20
48.629998999999998
10
5.9199999999999999
20
48.629902999999999
10
-6.0800000000000018
20
48.629902999999999
10
-6.093865000000001
20
48.629998999999998
10
-6.5799990000000008
20
48.629998999999998
42
-0.41421356237309503
10
-7.080000000000001
20
49.130000000000003
0
LWPOLYLINE
5
212
100
AcDbEntity
8
0
100
AcDbPolyline
90
12
70
1
43
0.0
10
-11.342499999999999
20
67.679998999999995
10
-10.856365
20
67.680000000000007
10
-10.842499
20
67.679902999999996
10
1.1575
20
67.679902999999996
10
1.1713659999999999
20
67.680000000000007
10
1.6575000000000002
20
67.679999999999993
42
0.41421356237309342
10
2.1575000000000002
20
68.179997999999998
10
2.1574999999999998
20
81.179998999999995
42
0.4142135623730947
10
1.6575000000000006
20
81.679998999999995
10
-11.342499999999999
20
81.679999999999993
42
0.41421356237309503
10
-11.842501
20
81.179998999999995
10
-11.842500000000001
20
68.179999000000009
42
0.41421356237309503
0
LWPOLYLINE
5
213
100
AcDbEntity
8
0
100
AcDbPolyline
90
12
70
1
43
0.0
10
3.4517500000000001
20
107.27999800000001
10
3.4517500000000001
20
121.279999
42
0.41421356237309537
10
2.9517509999999989
20
121.77999800000002
10
-3.0482500000000003
20
121.77999900000002
42
0.41421356237309503
10
-3.5482499999999999
20
121.279999
10
-3.5482499999999999
20
107.279999
42
0.41421356237309503
10
-3.0482500000000003
20
106.77999900000002
10
-2.5621149999999999
20
106.78
10
-2.5482499999999995
20
106.77990300000002
10
2.4517500000000005
20
106.77990300000002
10
2.4656159999999998
20
106.78
10
2.9517500000000001
20
106.78
42
0.41421356237309825
0
LWPOLYLINE
5
214
100
AcDbEntity
8
0
100
AcDbPolyline
90
12
70
1
43
0.0
10
-17.986249000000001
20
105.77990300000002
10
-5.986250000000001
20
105.77990300000002
10
-5.9723840000000008
20
105.78000000000002
10
-5.4862500000000001
20
105.78
42
0.41421356237309892
10
-4.9862490000000008
20
106.279999
10
-4.9862500000000001
20
119.27999900000002
42
0.4142135623730957
10
-5.4862500000000018
20
119.779999
10
-18.486249999999998
20
119.77999900000002
42
0.41421356237309503
10
-18.986249999999998
20
119.27999900000002
10
-18.986249999999998
20
106.28
42
0.41421356237309503
10
-18.486249999999998
20
105.78000000000002
10
-18.000115000000001
20
105.78000000000002
0
LWPOLYLINE
5
215
100
AcDbEntity
8
0
100
AcDbPolyline
90
12
70
1
43
0.0
10
-21.424250000000001
20
106.77990300000002
10
-21.410384000000001
20
106.78
10
-20.924250000000001
20
106.78
42
0.41421356237309764
10
-20.424250000000001
20
107.27999800000001
10
-20.424250000000001
20
121.279999
42
0.41421356237309503
10
-20.924249000000003
20
121.77999800000002
10
-26.924250000000001
20
121.77999900000002
42
0.41421356237309503
10
-27.424250000000004
20
121.279999
10
-27.424250000000001
20
107.279999
42
0.41421356237309503
10
-26.924250000000001
20
106.77999900000002
10
-26.438115
20
106.78
10
-26.424250000000001
20
106.77990300000002
0
LWPOLYLINE
5
216
100
AcDbEntity
8
0
100
AcDbPolyline
90
8
70
1
43
0.0
10
-22.154999000000004
20
138.82999900000002
42
-0.41421356237309503
10
-21.655000000000001
20
138.33000000000001
10
-21.654998999999997
20
125.329998
42
-0.41421356237309764
10
-22.155000000000001
20
124.82999899999999
10
-35.154999000000004
20
124.82999899999999
42
-0.41421356237309503
10
-35.654998999999997
20
125.329999
10
-35.655000000000001
20
138.32999799999999
42
-0.41421356237308982
10
-35.155000000000001
20
138.82999999999998
0
LWPOLYLINE
5
217
100
AcDbEntity
8
0
100
AcDbPolyline
90
8
70
1
43
0.0
10
-39.8675
20
125.329999
10
-39.8675
20
138.33000000000001
42
0.41421356237309503
10
-40.367499000000002
20
138.82999899999999
10
-41.3675
20
138.82999999999998
42
0.41421356237309503
10
-41.867501000000004
20
138.32999899999999
10
-41.8675
20
125.329999
42
0.41421356237309503
10
-41.3675
20
124.82999900000002
10
-40.367500000000007
20
124.82999899999999
42
0.41421356237309503
0
LWPOLYLINE
5
218
100
AcDbEntity
8
0
100
AcDbPolyline
90
8
70
1
43
0.0
10
-65.067499999999995
20
138.33000000000001
42
-0.41421356237309503
10
-64.567499999999995
20
138.83000000000004
10
-63.56750000000001
20
138.83000000000004
42
-0.41421356237309503
10
-63.06750000000001
20
138.33000000000001
10
-63.067500000000003
20
125.329999
42
-0.41421356237309503
10
-63.56750000000001
20
124.82999899999999
10
-64.567499999999995
20
124.82999899999999
42
-0.41421356237309503
10
-65.067499999999995
20
125.329999
0
LWPOLYLINE
5
219
100
AcDbEntity
8
0
100
AcDbPolyline
90
8
70
1
43
0.0
10
-59.467500000000001
20
138.32999799999999
42
-0.4142135623730846
10
-58.967500000000008
20
138.82999999999998
10
-45.967500000000001
20
138.83000000000004
42
-0.41421356237309503
10
-45.467500000000001
20
138.33000000000001
10
-45.467499999999994
20
125.329999
42
-0.41421356237309503
10
-45.967500000000001
20
124.82999899999999
10
-58.967500000000008
20
124.82999899999999
42
-0.41421356237309503
10
-59.467500000000008
20
125.329999
0
LINE
5
220
100
AcDbEntity
8
0
100
AcDbLine
10
-105.119664
20
133.68154100000001
30
0
11
-105.11969000000001
21
133.82752600000001
31
0
0
ARC
5
221
100
AcDbEntity
8
0
100
AcDbCircle
10
-105.31434000000002
20
133.82749100000001
30
0
40
0.19465000314667635
210
0
220
-0
230
1
100
AcDbArc
50
0.010302349129652204
51
168.92755754859272
0
ARC
5
222
100
AcDbEntity
8
0
100
AcDbCircle
10
-105.80717900000002
20
134.019375
30
0
40
0.33905973605000189
210
0
220
0
230
1
100
AcDbArc
50
270.84340188323898
51
332.89153433435644
0
ARC
5
223
100
AcDbEntity
8
0
100
AcDbCircle
10
-108.71966399999999
20
132.98154099999999
30
0
40
3.0000001554089932
210
0
220
0
230
1
100
AcDbArc
50
-68.405416889005764
51
13.470045541332876
0
LINE
5
224
100
AcDbEntity
8
0
100
AcDbLine
10
-107.61555400000013
20
130.19210700000031
30
0
11
-118.49263904359391
21
125.88675211013494
31
0
0
ARC
5
225
100
AcDbEntity
8
0
100
AcDbCircle
10
-118.676658
20
126.35165700000002
30
0
40
0.49999941350599142
210
0
220
0
230
1
100
AcDbArc
50
205.7999625258073
51
291.59468225931749
0
LINE
5
226
100
AcDbEntity
8
0
100
AcDbLine
10
-119.1268170000003
20
126.13404199999985
30
0
11
-120.5503840569643
21
129.07883197246221
31
0
0
ARC
5
227
100
AcDbEntity
8
0
100
AcDbCircle
10
-120.10022499999999
20
129.296448
30
0
40
0.49999997580200911
210
0
220
0
230
1
100
AcDbArc
50
120.00542682591249
51
205.80006569480909
0
LINE
5
228
100
AcDbEntity
8
0
100
AcDbLine
10
-120.35026600000002
20
129.72943699999999
30
0
11
-116.55225906325447
21
131.92269510953574
31
0
0
ARC
5
229
100
AcDbEntity
8
0
100
AcDbCircle
10
-116.30221800000001
20
131.48970600000001
30
0
40
0.5000002291250073
210
0
220
-0
230
1
100
AcDbArc
50
43.09183286568112
51
120.00542682592379
0
ARC
5
230
100
AcDbEntity
8
0
100
AcDbCircle
10
-113.34466399999999
20
134.256541
30
0
40
3.5499999659543056
210
0
220
0
230
1
100
AcDbArc
50
-136.90821941193246
51
15.988310187033015
0
ARC
5
231
100
AcDbEntity
8
0
100
AcDbCircle
10
-109.45132700000002
20
135.37207900000001
30
0
40
0.49999935767299952
210
0
220
0
230
1
100
AcDbArc
50
107.01753584531156
51
195.98844058206535
0
ARC
5
232
100
AcDbEntity
8
0
100
AcDbCircle
10
-108.71966399999999
20
132.98154099999999
30
0
40
3.0000001329830068
210
0
220
-0
230
1
100
AcDbArc
50
46.766754522960746
51
107.01757386395604
0
ARC
5
233
100
AcDbEntity
8
0
100
AcDbCircle
10
-106.32227
20
135.531541
30
0
40
0.49999958005148304
210
0
220
0
230
1
100
AcDbArc
50
226.76686417509617
51
270.00009898541788
0
LINE
5
234
100
AcDbEntity
8
0
100
AcDbLine
10
-106.32226913619
20
135.03154141994875
30
0
11
-106.26344600000144
21
135.03154112888302
31
0
0
ARC
5
235
100
AcDbEntity
8
0
100
AcDbCircle
10
-106.26344600000002
20
134.531541
30
0
40
0.50000025816899507
210
0
220
-0
230
1
100
AcDbArc
50
60.000017080307209
51
90.000000000162842
0
LINE
5
236
100
AcDbEntity
8
0
100
AcDbLine
10
-106.01344599999997
20
134.96455400000005
30
0
11
-105.98568900000001
21
134.94852800000001
31
0
0
ARC
5
237
100
AcDbEntity
8
0
100
AcDbCircle
10
-105.73568899999999
20
135.381541
30
0
40
0.5000002581689158
210
0
220
0
230
1
100
AcDbArc
50
240.00001708030678
51
270.00001708100893
0
LINE
5
238
100
AcDbEntity
8
0
100
AcDbLine
10
-105.73568885093999
20
134.88154074183103
30
0
11
-105.119664
21
134.881541
31
0
0
ARC
5
239
100
AcDbEntity
8
0
100
AcDbCircle
10
-105.119664
20
133.88154100000003
30
0
40
0.99999999999999645
210
0
220
0
230
1
100
AcDbArc
50
0
51
90
0
LINE
5
240
100
AcDbEntity
8
0
100
AcDbLine
10
-104.119664
20
133.88154100000003
30
0
11
-104.119664
21
133.68154100000001
31
0
0
ARC
5
241
100
AcDbEntity
8
0
100
AcDbCircle
10
-104.61966400000001
20
133.606945
30
0
40
0.50553393873803409
210
0
220
0
230
1
100
AcDbArc
50
-188.48548397831976
51
8.4854839783193565
0
ARC
5
242
100
AcDbEntity
8
0
100
AcDbCircle
10
-84.619664
20
133.606945
30
0
40
0.5055339387379989
210
0
220
0
230
1
100
AcDbArc
50
-188.48548397832053
51
8.4856043111757291
0
LINE
5
243
100
AcDbEntity
8
0
100
AcDbLine
10
-85.119663999999943
20
133.68154100000001
30
0
11
-85.119690000000006
21
133.82752600000001
31
0
0
ARC
5
244
100
AcDbEntity
8
0
100
AcDbCircle
10
-85.314340000000016
20
133.82749100000001
30
0
40
0.19465000314667635
210
0
220
-0
230
1
100
AcDbArc
50
0.010302349129652204
51
168.92730254516439
0
ARC
5
245
100
AcDbEntity
8
0
100
AcDbCircle
10
-85.807179000000019
20
134.019375
30
0
40
0.33905973604999673
210
0
220
0
230
1
100
AcDbArc
50
270.84338777500682
51
332.89167503245136
0
ARC
5
246
100
AcDbEntity
8
0
100
AcDbCircle
10
-88.719663999999995
20
132.98154099999999
30
0
40
3.0000001554089932
210
0
220
0
230
1
100
AcDbArc
50
-68.405416889005764
51
13.47004588988807
0
LINE
5
247
100
AcDbEntity
8
0
100
AcDbLine
10
-87.615554000000131
20
130.19210700000031
30
0
11
-98.492640117828003
21
125.88675181330001
31
0
0
ARC
5
248
100
AcDbEntity
8
0
100
AcDbCircle
10
-98.676658000000003
20
126.35165700000002
30
0
40
0.49999941350599142
210
0
220
0
230
1
100
AcDbArc
50
205.7999625258073
51
291.59455528244996
0
LINE
5
249
100
AcDbEntity
8
0
100
AcDbLine
10
-99.126817000000301
20
126.13404199999985
30
0
11
-100.55038428952001
21
129.07883230690001
31
0
0
ARC
5
250
100
AcDbEntity
8
0
100
AcDbCircle
10
-100.10022499999999
20
129.296448
30
0
40
0.49999997580200911
210
0
220
0
230
1
100
AcDbArc
50
120.00542682591249
51
205.80001959276879
0
LINE
5
251
100
AcDbEntity
8
0
100
AcDbLine
10
-100.35026600000002
20
129.72943699999999
30
0
11
-96.552259308957019
21
131.92269511410001
31
0
0
ARC
5
252
100
AcDbEntity
8
0
100
AcDbCircle
10
-96.302218000000011
20
131.48970600000001
30
0
40
0.5000002291249952
210
0
220
-0
230
1
100
AcDbArc
50
43.09183286568112
51
120.00545094634782
0
ARC
5
253
100
AcDbEntity
8
0
100
AcDbCircle
10
-93.344663999999995
20
134.256541
30
0
40
3.5499999659543175
210
0
220
0
230
1
100
AcDbArc
50
-136.90821941193246
51
15.988333011093149
0
ARC
5
254
100
AcDbEntity
8
0
100
AcDbCircle
10
-89.451327000000006
20
135.37207900000001
30
0
40
0.49999935767299603
210
0
220
0
230
1
100
AcDbArc
50
107.0174852621076
51
195.98827853117155
0
ARC
5
255
100
AcDbEntity
8
0
100
AcDbCircle
10
-88.719663999999995
20
132.98154099999999
30
0
40
3.0000001329830068
210
0
220
-0
230
1
100
AcDbArc
50
46.766754522960746
51
107.01756543343232
0
ARC
5
256
100
AcDbEntity
8
0
100
AcDbCircle
10
-86.322270000000003
20
135.531541
30
0
40
0.49999958005148304
210
0
220
0
230
1
100
AcDbArc
50
226.76686417509617
51
270.00000000016121
0
LINE
5
257
100
AcDbEntity
8
0
100
AcDbLine
10
-86.322269999998596
20
135.03154141994801
30
0
11
-86.263446149054005
21
135.03154125809999
31
0
0
ARC
5
258
100
AcDbEntity
8
0
100
AcDbCircle
10
-86.263446000000016
20
134.531541
30
0
40
0.50000025816899507
210
0
220
-0
230
1
100
AcDbArc
50
60.000017080307209
51
90.000017080320134
0
LINE
5
259
100
AcDbEntity
8
0
100
AcDbLine
10
-86.013445999999973
20
134.96455400000005
30
0
11
-85.985689000000008
21
134.94852800000001
31
0
0
ARC
5
260
100
AcDbEntity
8
0
100
AcDbCircle
10
-85.735688999999994
20
135.381541
30
0
40
0.5000002581689158
210
0
220
0
230
1
100
AcDbArc
50
240.00001708030678
51
270
0
LINE
5
261
100
AcDbEntity
8
0
100
AcDbLine
10
-85.735688999999994
20
134.881540741831
30
0
11
-85.119664
21
134.881541
31
0
0
ARC
5
262
100
AcDbEntity
8
0
100
AcDbCircle
10
-85.119664
20
133.88154100000003
30
0
40
0.99999999999999645
210
0
220
0
230
1
100
AcDbArc
50
0
51
90
0
LINE
5
263
100
AcDbEntity
8
0
100
AcDbLine
10
-84.119664
20
133.88154100000003
30
0
11
-84.119664156667994
21
133.68154205010211
31
0
0
LWPOLYLINE
5
264
100
AcDbEntity
8
0
100
AcDbPolyline
90
8
70
1
43
0.0
10
-79.780000999999004
20
137.33000000000382
42
-0.41421297658570627
10
-79.280000000000001
20
137.82999999999998
10
-73.280000000000001
20
137.83000000000101
42
-0.4142129765879331
10
-72.779999000000004
20
137.33000000000001
10
-72.780000000000015
20
123.33
42
-0.4142147339487916
10
-73.280000000000001
20
122.83000000000001
10
-79.280000000000001
20
122.829999000001
42
-0.4142129765879487
10
-79.780000000000001
20
123.33
0
LWPOLYLINE
5
265
100
AcDbEntity
8
0
100
AcDbPolyline
90
8
70
1
43
0.0
10
-126.43000000000001
20
125.329999
10
-126.43000000000001
20
138.33000000000001
42
0.41421356237307422
10
-126.930001
20
138.82999899999999
10
-139.93000000000001
20
138.82999999999998
42
0.4142135623730846
10
-140.43000000000001
20
138.32999799999999
10
-140.43000000000004
20
125.329999
42
0.41421356237309503
10
-139.93000000000001
20
124.82999900000002
10
-126.93000000000001
20
124.82999899999999
42
0.41421356237309503
0
LWPOLYLINE
5
266
100
AcDbEntity
8
0
100
AcDbPolyline
90
8
70
1
43
0.0
10
-254.23000000000002
20
124.82999899999999
42
-0.41421356237309503
10
-254.73000000000002
20
125.329999
10
-254.73000100000002
20
138.32999899999999
42
-0.41421356237309503
10
-254.23000000000002
20
138.82999999999998
10
-241.23000099999999
20
138.82999899999999
42
-0.41421356237306384
10
-240.73000000000002
20
138.33000000000001
10
-240.72999899999999
20
125.33000000000001
42
-0.41421356237309503
10
-241.23000000000002
20
124.82999900000002
0
LWPOLYLINE
5
267
100
AcDbEntity
8
0
100
AcDbPolyline
90
8
70
1
43
0.0
10
-225.492501
20
138.82999899999999
10
-226.49250000000001
20
138.83000000000004
42
0.41421356237309503
10
-226.992501
20
138.32999899999999
10
-226.99250000000004
20
125.329999
42
0.41421356237309503
10
-226.49250000000001
20
124.82999900000002
10
-225.49250000000001
20
124.82999900000002
42
0.41421356237309503
10
-224.99249900000001
20
125.33000000000001
10
-224.99250000000001
20
138.33000000000001
42
0.4142135623730846
0
LWPOLYLINE
5
268
100
AcDbEntity
8
0
100
AcDbPolyline
90
8
70
1
43
0.0
10
-187.08000000000001
20
123.33
10
-187.08000000000001
20
137.33000000000001
42
0.41421356237309503
10
-187.58000000000004
20
137.83000000000001
10
-193.58000000000004
20
137.83000000000004
42
0.41421356237309503
10
-194.08000000000001
20
137.33000000000001
10
-194.08000000000004
20
123.33
42
0.41421356237310542
10
-193.58000100000001
20
122.829999
10
-187.58000000000004
20
122.83
42
0.41421356237309503
0
LWPOLYLINE
5
269
100
AcDbEntity
8
0
100
AcDbPolyline
90
8
70
1
43
0.0
10
-202.29250000000002
20
138.83000000000004
42
-0.41421356237309503
10
-201.79249999999999
20
138.33000000000001
10
-201.79249900000002
20
125.33000000000001
42
-0.41421356237309503
10
-202.29250000000002
20
124.82999900000002
10
-203.29250000000002
20
124.82999899999999
42
-0.41421356237309503
10
-203.79250000000002
20
125.329999
10
-203.79250000000002
20
138.33000000000001
42
-0.41421356237309503
10
-203.29250000000002
20
138.83000000000004
0
LWPOLYLINE
5
270
100
AcDbEntity
8
0
100
AcDbPolyline
90
8
70
1
43
0.0
10
-207.39249900000002
20
125.33000000000001
10
-207.39250000000001
20
138.33000000000001
42
0.4142135623730846
10
-207.89250100000004
20
138.82999899999999
10
-220.89250000000004
20
138.82999999999998
42
0.41421356237309503
10
-221.39250100000001
20
138.32999899999999
10
-221.39250000000004
20
125.329999
42
0.41421356237309503
10
-220.89250000000004
20
124.82999900000002
10
-207.89250000000004
20
124.82999900000002
42
0.41421356237309503
0
LINE
5
271
100
AcDbEntity
8
0
100
AcDbLine
10
-150.30774000000002
20
131.92269500000003
30
0
11
-146.50973271509
21
129.72943668869999
31
0
0
ARC
5
272
100
AcDbEntity
8
0
100
AcDbCircle
10
-146.75977399999999
20
129.296448
30
0
40
0.49999984873700809
210
0
220
0
230
1
100
AcDbArc
50
-25.80006569480204
51
59.994527062279623
0
LINE
5
273
100
AcDbEntity
8
0
100
AcDbLine
10
-146.30961499999998
20
129.07883199999998
30
0
11
-147.73318226808999
21
126.1340408988
31
0
0
ARC
5
274
100
AcDbEntity
8
0
100
AcDbCircle
10
-148.18334100000001
20
126.35165700000002
30
0
40
0.49999965138599456
210
0
220
0
230
1
100
AcDbArc
50
248.40531774065886
51
334.19991049379013
0
LINE
5
275
100
AcDbEntity
8
0
100
AcDbLine
10
-148.36736000000005
20
125.8867519999999
30
0
11
-159.24444562956
21
130.19210687419999
31
0
0
ARC
5
276
100
AcDbEntity
8
0
100
AcDbCircle
10
-158.14033499999999
20
132.98154099999999
30
0
40
3.0000005040489901
210
0
220
0
230
1
100
AcDbArc
50
166.52995786356456
51
248.40540659347147
0
ARC
5
277
100
AcDbEntity
8
0
100
AcDbCircle
10
-161.05282
20
134.019375
30
0
40
0.33905994450800919
210
0
220
0
230
1
100
AcDbArc
50
207.108346711574
51
269.15656360504056
0
ARC
5
278
100
AcDbEntity
8
0
100
AcDbCircle
10
-161.545659
20
133.82749100000001
30
0
40
0.19464948334155227
210
0
220
-0
230
1
100
AcDbArc
50
11.072614068563345
51
179.98969765094111
0
LINE
5
279
100
AcDbEntity
8
0
100
AcDbLine
10
-161.74030848019439
20
133.8275259999063
30
0
11
-161.74033515668
21
133.68154205010001
31
0
0
ARC
5
280
100
AcDbEntity
8
0
100
AcDbCircle
10
-162.24033500000002
20
133.606945
30
0
40
0.50553393873801655
210
0
220
0
230
1
100
AcDbArc
50
-188.48548397832002
51
8.4856043111405501
0
LINE
5
281
100
AcDbEntity
8
0
100
AcDbLine
10
-162.74033499999999
20
133.68154100000001
30
0
11
-162.74033499999999
21
133.88154100000003
31
0
0
ARC
5
282
100
AcDbEntity
8
0
100
AcDbCircle
10
-161.74033500000002
20
133.88154100000003
30
0
40
0.99999999999999645
210
0
220
-0
230
1
100
AcDbArc
50
90
51
180
0
LINE
5
283
100
AcDbEntity
8
0
100
AcDbLine
10
-161.74033500000002
20
134.881541
30
0
11
-161.12431000000001
21
134.881541
31
0
0
ARC
5
284
100
AcDbEntity
8
0
100
AcDbCircle
10
-161.12431000000001
20
135.381541
30
0
40
0.49999999999998934
210
0
220
0
230
1
100
AcDbArc
50
270
51
299.99998291982132
0
LINE
5
285
100
AcDbEntity
8
0
100
AcDbLine
10
-160.87431012908343
20
134.94852822358146
30
0
11
-160.84655300000003
21
134.96455370180001
31
0
0
ARC
5
286
100
AcDbEntity
8
0
100
AcDbCircle
10
-160.596553
20
134.531541
30
0
40
0.50000000000000711
210
0
220
-0
230
1
100
AcDbArc
50
90
51
120.00000000528604
0
LINE
5
287
100
AcDbEntity
8
0
100
AcDbLine
10
-160.596553
20
135.031541
30
0
11
-160.53772900000001
21
135.031541
31
0
0
ARC
5
288
100
AcDbEntity
8
0
100
AcDbCircle
10
-160.53772900000001
20
135.531541
30
0
40
0.49999999999998934
210
0
220
0
230
1
100
AcDbArc
50
270
51
313.23318640354478
0
ARC
5
289
100
AcDbEntity
8
0
100
AcDbCircle
10
-158.14033499999999
20
132.98154099999999
30
0
40
2.999999892674992
210
0
220
-0
230
1
100
AcDbArc
50
72.982408739716263
51
133.23323704728071
0
ARC
5
290
100
AcDbEntity
8
0
100
AcDbCircle
10
-157.408672
20
135.37207900000001
30
0
40
0.49999918680399469
210
0
220
0
230
1
100
AcDbArc
50
-15.988382901230104
51
72.982359776588737
0
ARC
5
291
100
AcDbEntity
8
0
100
AcDbCircle
10
-153.51533499999999
20
134.256541
30
0
40
3.5500005693707233
210
0
220
0
230
1
100
AcDbArc
50
164.01168168889819
51
316.90821601449602
0
ARC
5
292
100
AcDbEntity
8
0
100
AcDbCircle
10
-150.55778100000001
20
131.48970600000001
30
0
40
0.49999997580200023
210
0
220
-0
230
1
100
AcDbArc
50
59.994573174093389
51
136.9081912560743
0
LINE
5
293
100
AcDbEntity
8
0
100
AcDbLine
10
-181.74030874045289
20
133.82752599995308
30
0
11
-181.74033515668
21
133.68154205010001
31
0
0
ARC
5
294
100
AcDbEntity
8
0
100
AcDbCircle
10
-182.24033500000002
20
133.606945
30
0
40
0.50553393873801655
210
0
220
0
230
1
100
AcDbArc
50
-188.48548397832002
51
8.4856043111405501
0
LINE
5
295
100
AcDbEntity
8
0
100
AcDbLine
10
-182.74033499999999
20
133.68154100000001
30
0
11
-182.74033499999999
21
133.88154100000003
31
0
0
ARC
5
296
100
AcDbEntity
8
0
100
AcDbCircle
10
-181.74033500000002
20
133.88154100000003
30
0
40
0.99999999999999645
210
0
220
-0
230
1
100
AcDbArc
50
90
51
180
0
LINE
5
297
100
AcDbEntity
8
0
100
AcDbLine
10
-181.74033500000002
20
134.881541
30
0
11
-181.12431000000001
21
134.881541
31
0
0
ARC
5
298
100
AcDbEntity
8
0
100
AcDbCircle
10
-181.12431000000001
20
135.381541
30
0
40
0.49999999999998934
210
0
220
0
230
1
100
AcDbArc
50
270
51
299.99998291982132
0
LINE
5
299
100
AcDbEntity
8
0
100
AcDbLine
10
-180.87431012908343
20
134.94852822358146
30
0
11
-180.84655300000003
21
134.96455370180001
31
0
0
ARC
5
300
100
AcDbEntity
8
0
100
AcDbCircle
10
-180.596553
20
134.531541
30
0
40
0.50000000000000711
210
0
220
-0
230
1
100
AcDbArc
50
90
51
120.00000000528604
0
LINE
5
301
100
AcDbEntity
8
0
100
AcDbLine
10
-180.596553
20
135.031541
30
0
11
-180.53772900000001
21
135.031541
31
0
0
ARC
5
302
100
AcDbEntity
8
0
100
AcDbCircle
10
-180.53772900000001
20
135.531541
30
0
40
0.49999999999998934
210
0
220
0
230
1
100
AcDbArc
50
270
51
313.23318640354478
0
ARC
5
303
100
AcDbEntity
8
0
100
AcDbCircle
10
-178.14033499999999
20
132.98154099999999
30
0
40
2.9999998926750027
210
0
220
-0
230
1
100
AcDbArc
50
72.982408739715737
51
133.23323704728071
0
ARC
5
304
100
AcDbEntity
8
0
100
AcDbCircle
10
-177.408672
20
135.37207900000001
30
0
40
0.49999918680401179
210
0
220
0
230
1
100
AcDbArc
50
-15.988382901230104
51
72.982359776585625
0
ARC
5
305
100
AcDbEntity
8
0
100
AcDbCircle
10
-173.51533499999999
20
134.256541
30
0
40
3.5500005693707233
210
0
220
0
230
1
100
AcDbArc
50
164.01168168889819
51
316.90821601449568
0
ARC
5
306
100
AcDbEntity
8
0
100
AcDbCircle
10
-170.55778100000001
20
131.48970600000001
30
0
40
0.49999997580200023
210
0
220
-0
230
1
100
AcDbArc
50
59.994573174093389
51
136.90819125607666
0
LINE
5
307
100
AcDbEntity
8
0
100
AcDbLine
10
-170.30774000000002
20
131.92269500000003
30
0
11
-166.50973271509
21
129.72943668869999
31
0
0
ARC
5
308
100
AcDbEntity
8
0
100
AcDbCircle
10
-166.75977399999999
20
129.296448
30
0
40
0.49999984873700809
210
0
220
0
230
1
100
AcDbArc
50
-25.80006569480204
51
59.994527062279623
0
LINE
5
309
100
AcDbEntity
8
0
100
AcDbLine
10
-166.30961499999998
20
129.07883199999998
30
0
11
-167.73318226808999
21
126.1340408988
31
0
0
ARC
5
310
100
AcDbEntity
8
0
100
AcDbCircle
10
-168.18334100000001
20
126.35165700000002
30
0
40
0.49999965138600455
210
0
220
0
230
1
100
AcDbArc
50
248.4053177406625
51
334.19991049379013
0
LINE
5
311
100
AcDbEntity
8
0
100
AcDbLine
10
-168.36736000000002
20
125.88675199999989
30
0
11
-179.24444562956
21
130.19210687419999
31
0
0
ARC
5
312
100
AcDbEntity
8
0
100
AcDbCircle
10
-178.14033499999999
20
132.98154099999999
30
0
40
3.0000005040489901
210
0
220
0
230
1
100
AcDbArc
50
166.52995786356456
51
248.40540659347147
0
ARC
5
313
100
AcDbEntity
8
0
100
AcDbCircle
10
-181.05282
20
134.019375
30
0
40
0.33905994450800919
210
0
220
0
230
1
100
AcDbArc
50
207.108346711574
51
269.15656360504056
0
ARC
5
314
100
AcDbEntity
8
0
100
AcDbCircle
10
-181.545659
20
133.82749100000001
30
0
40
0.19464948334155227
210
0
220
-0
230
1
100
AcDbArc
50
11.072614068563345
51
179.98969765094111
0
LWPOLYLINE
5
315
100
AcDbEntity
8
0
100
AcDbPolyline
90
8
70
1
43
0.0
10
-11.342499999999999
20
124.82999900000002
10
1.6575000000000002
20
124.82999900000002
42
0.41421356237309859
10
2.1575009999999999
20
125.329998
10
2.1575000000000002
20
138.33000000000001
42
0.41421356237307777
10
1.6574990000000001
20
138.82999899999999
10
-11.342499999999999
20
138.82999999999998
42
0.41421356237309243
10
-11.842500000000001
20
138.32999799999999
10
-11.842500000000001
20
125.329999
42
0.41421356237309503
0
ARC
5
316
100
AcDbEntity
8
0
100
AcDbCircle
10
-15.942499000000002
20
138.33000000000001
30
0
40
0.49999899999999986
210
0
220
0
230
1
100
AcDbArc
50
0
51
90.000114591788332
0
LINE
5
317
100
AcDbEntity
8
0
100
AcDbLine
10
-15.442500000000001
20
138.33000000000001
30
0
11
-15.442500000000001
21
125.329999
31
0
0
ARC
5
318
100
AcDbEntity
8
0
100
AcDbCircle
10
-15.942500000000003
20
125.329999
30
0
40
0.50000000000000711
210
0
220
0
230
1
100
AcDbArc
50
-90
51
0
0
LINE
5
319
100
AcDbEntity
8
0
100
AcDbLine
10
-15.942500000000003
20
124.82999899999999
30
0
11
-16.942500000000916
21
124.83000049977088
31
0
0
ARC
5
320
100
AcDbEntity
8
0
100
AcDbCircle
10
-16.942499999999999
20
125.33000000000001
30
0
40
0.49999900000099984
210
0
220
0
230
1
100
AcDbArc
50
180.00011459029153
51
269.99999999989495
0
LINE
5
321
100
AcDbEntity
8
0
100
AcDbLine
10
-17.442499000000002
20
125.329999
30
0
11
-17.442500000000003
21
138.33000000000001
31
0
0
ARC
5
322
100
AcDbEntity
8
0
100
AcDbCircle
10
-16.942499000000002
20
138.32999899999999
30
0
40
0.50000100000100101
210
0
220
0
230
1
100
AcDbArc
50
90.000114591329563
51
179.9998854097085
0
LINE
5
323
100
AcDbEntity
8
0
100
AcDbLine
10
-16.942499999999999
20
138.82999999999998
30
0
11
-15.942500000000003
21
138.82999899999902
31
0
0
LWPOLYLINE
5
324
100
AcDbEntity
8
0
100
AcDbPolyline
90
8
70
1
43
0.0
10
-292.32999999999998
20
124.82999899999999
42
-0.41421356237309503
10
-292.83000000000004
20
125.329999
10
-292.83000000000004
20
138.33000000000001
42
-0.41421356237309503
10
-292.32999999999998
20
138.83000000000004
10
-279.33000100000004
20
138.82999899999999
42
-0.4142135623730846
10
-278.82999999999998
20
138.33000000000001
10
-278.82999900000004
20
125.33000000000001
42
-0.41421356237309503
10
-279.32999999999998
20
124.82999900000002
0
LWPOLYLINE
5
325
100
AcDbEntity
8
0
100
AcDbPolyline
90
12
70
1
43
0.0
10
-279.81613400000003
20
105.78000000000002
10
-279.32999999999998
20
105.78000000000002
42
0.41421356237309503
10
-278.82999999999998
20
106.28
10
-278.82999999999998
20
119.27999900000002
42
0.4142135623730846
10
-279.32999899999999
20
119.78000000000002
10
-292.32999999999998
20
119.77999900000002
42
0.41421356237309503
10
-292.83000000000004
20
119.27999900000002
10
-292.83000000000004
20
106.28
42
0.41421356237310542
10
-292.33000099999998
20
105.77999900000002
10
-291.84386500000005
20
105.78000000000002
10
-291.82999999999998
20
105.77990300000002
10
-279.82999999999998
20
105.77990300000002
0
LWPOLYLINE
5
326
100
AcDbEntity
8
0
100
AcDbPolyline
90
12
70
1
43
0.0
10
-272.77999999999997
20
105.77990300000002
10
-260.77999999999997
20
105.77990300000002
10
-260.76613400000002
20
105.78000000000002
10
-260.27999999999997
20
105.78
42
0.41421356237309503
10
-259.77999999999997
20
106.28
10
-259.77999999999997
20
119.27999900000002
42
0.4142135623730846
10
-260.27999899999998
20
119.78000000000002
10
-273.27999999999997
20
119.77999900000002
42
0.41421356237309503
10
-273.77999999999997
20
119.27999900000002
10
-273.77999999999997
20
106.28
42
0.41421356237306384
10
-273.28000100000003
20
105.77999900000002
10
-272.79386499999998
20
105.78000000000002
0
LWPOLYLINE
5
327
100
AcDbEntity
8
0
100
AcDbPolyline
90
8
70
1
43
0.0
10
-259.77999899999998
20
125.33000000000001
42
-0.41421356237309503
10
-260.27999999999997
20
124.82999900000002
10
-273.27999999999997
20
124.82999899999999
42
-0.41421356237309503
10
-273.77999999999997
20
125.329999
10
-273.77999999999997
20
138.33000000000001
42
-0.41421356237309503
10
-273.27999999999997
20
138.83000000000004
10
-260.28000100000003
20
138.82999899999999
42
-0.41421356237310542
10
-259.77999999999997
20
138.33000000000001
0
LWPOLYLINE
5
328
100
AcDbEntity
8
0
100
AcDbPolyline
90
10
70
1
43
0.0
10
-273.63136500000002
20
67.680000000000007
10
-273.603634
20
67.680000000000007
10
-273.11750000000006
20
67.680000000000021
42
0.41421356237309503
10
-272.61750000000001
20
68.180000000000007
10
-272.61750000000001
20
81.179998999999995
42
0.41421356237309503
10
-273.11749900000001
20
81.680000000000007
10
-274.11750000000001
20
81.679999999999993
42
0.41421356237310542
10
-274.61750000000001
20
81.179997999999998
10
-274.61750000000001
20
68.179999000000009
42
0.41421356237307422
10
-274.11749900000007
20
67.680000000000007
0
LWPOLYLINE
5
329
100
AcDbEntity
8
0
100
AcDbPolyline
90
12
70
1
43
0.0
10
-292.83000099999998
20
81.179998999999995
10
-292.83000000000004
20
68.179999000000009
42
0.41421356237309503
10
-292.32999999999998
20
67.679998999999995
10
-291.84386500000005
20
67.680000000000007
10
-291.82999999999998
20
67.679902999999996
10
-279.82999999999998
20
67.679902999999996
10
-279.81613400000003
20
67.680000000000007
10
-279.32999999999998
20
67.680000000000021
42
0.41421356237309503
10
-278.82999999999998
20
68.180000000000007
10
-278.82999999999998
20
81.179998999999995
42
0.41421356237309503
10
-279.32999899999999
20
81.680000000000007
10
-292.32999999999998
20
81.679999999999993
42
0.41421356237309503
0
LWPOLYLINE
5
330
100
AcDbEntity
8
0
100
AcDbPolyline
90
12
70
1
43
0.0
10
-278.82999900000004
20
87.230000000000004
42
-0.41421356237309503
10
-279.32999999999998
20
86.729999000000007
10
-279.81613400000003
20
86.729999000000007
10
-279.82999999999998
20
86.729903000000007
10
-291.82999999999998
20
86.729903000000007
10
-291.84386500000005
20
86.729999000000007
10
-292.32999999999998
20
86.729999000000007
42
-0.41421356237309503
10
-292.83000000000004
20
87.229999000000021
10
-292.83000100000004
20
100.22999900000002
42
-0.41421356237309503
10
-292.32999999999998
20
100.73000000000002
10
-279.32999999999998
20
100.73000000000002
42
-0.41421356237309503
10
-278.82999999999998
20
100.23000000000002
0
LWPOLYLINE
5
331
100
AcDbEntity
8
0
100
AcDbPolyline
90
12
70
1
43
0.0
10
-268.51749900000004
20
67.680000000000007
42
-0.41421356237307422
10
-269.01749999999998
20
68.179999000000009
10
-269.01749999999998
20
81.179997999999998
42
-0.41421356237310542
10
-268.51749999999998
20
81.679999999999993
10
-255.51749799999999
20
81.680000000000007
42
-0.41421356237309503
10
-255.01749899999999
20
81.179998999999995
10
-255.01749899999999
20
68.180000000000007
42
-0.41421356237309503
10
-255.51749900000002
20
67.680000000000021
10
-256.00363399999998
20
67.680000000000007
10
-256.01749900000004
20
67.679902999999996
10
-268.01749999999998
20
67.679902999999996
10
-268.03136499999999
20
67.680000000000007
0
LWPOLYLINE
5
332
100
AcDbEntity
8
0
100
AcDbPolyline
90
12
70
1
43
0.0
10
-263.31175000000002
20
88.230000000000004
10
-263.31175000000002
20
102.23
42
0.41421356237309503
10
-263.81175000000002
20
102.73000000000002
10
-269.81175000000002
20
102.73000000000002
42
0.41421356237309503
10
-270.31175100000002
20
102.22999900000002
10
-270.31175000000007
20
88.230000000000004
42
0.41421356237310542
10
-269.81175100000002
20
87.729999000000007
10
-269.32561500000008
20
87.730000000000018
10
-269.31175000000002
20
87.729903000000007
10
-264.31175000000002
20
87.729903000000007
10
-264.29788400000001
20
87.730000000000018
10
-263.81175000000002
20
87.72999999999999
42
0.41421356237309503
0
LWPOLYLINE
5
333
100
AcDbEntity
8
0
100
AcDbPolyline
90
12
70
1
43
0.0
10
-292.83000099999998
20
62.129998999999998
10
-292.83000000000004
20
49.130000000000003
42
0.41421356237311063
10
-292.33000099999998
20
48.629998999999998
10
-291.84386500000005
20
48.629998999999998
10
-291.82999999999998
20
48.629902999999999
10
-279.82999999999998
20
48.629902999999999
10
-279.81613400000003
20
48.629998999999998
10
-279.32999999999998
20
48.629998999999998
42
0.41421356237309503
10
-278.82999900000004
20
49.130000000000003
10
-278.82999999999998
20
62.13000000000001
42
0.41421356237309503
10
-279.32999999999998
20
62.63000000000001
10
-292.32999999999998
20
62.629999999999995
42
0.41421356237309503
0
CIRCLE
5
334
100
AcDbEntity
8
0
100
AcDbCircle
10
-36.079999999999998
20
44.009999999999998
30
0
40
1.1000000000000001
210
0
220
0
230
1
0
CIRCLE
5
335
100
AcDbEntity
8
0
100
AcDbCircle
10
-133.43000000000001
20
44.030000000000001
30
0
40
1.1000000000000001
210
0
220
0
230
1
0
CIRCLE
5
336
100
AcDbEntity
8
0
100
AcDbCircle
10
-230.78000000000003
20
44.030000000000001
30
0
40
1.1000000000000001
210
0
220
0
230
1
0
CIRCLE
5
337
100
AcDbEntity
8
0
100
AcDbCircle
10
-36.079999999999998
20
143.47000000000003
30
0
40
1.1000000000000001
210
0
220
0
230
1
0
CIRCLE
5
338
100
AcDbEntity
8
0
100
AcDbCircle
10
-113.34466399999999
20
134.256541
30
0
40
2.7999999999999998
210
0
220
0
230
1
0
CIRCLE
5
339
100
AcDbEntity
8
0
100
AcDbCircle
10
-93.344663999999995
20
134.256541
30
0
40
2.7999999999999998
210
0
220
0
230
1
0
CIRCLE
5
340
100
AcDbEntity
8
0
100
AcDbCircle
10
-133.41999999999999
20
143.46000000000001
30
0
40
1.1000000000000001
210
0
220
0
230
1
0
CIRCLE
5
341
100
AcDbEntity
8
0
100
AcDbCircle
10
-230.78000000000003
20
143.46000000000001
30
0
40
1.1000000000000001
210
0
220
0
230
1
0
CIRCLE
5
342
100
AcDbEntity
8
0
100
AcDbCircle
10
-153.51533499999999
20
134.256541
30
0
40
2.7999999999999998
210
0
220
0
230
1
0
CIRCLE
5
343
100
AcDbEntity
8
0
100
AcDbCircle
10
-173.51533499999999
20
134.256541
30
0
40
2.7999999999999998
210
0
220
0
230
1
0
CIRCLE
5
344
100
AcDbEntity
8
0
100
AcDbCircle
10
-285.82999999999998
20
44
30
0
40
1.1000000000000001
210
0
220
0
230
1
0
CIRCLE
5
345
100
AcDbEntity
8
0
100
AcDbCircle
10
-285.83999999999997
20
143.46000000000001
30
0
40
1.1000000000000001
210
0
220
0
230
1
0
ARC
5
346
100
AcDbEntity
8
0
100
AcDbCircle
10
-294.35500000000002
20
47.104904000000005
30
0
40
1.0000000000000142
210
0
220
0
230
1
100
AcDbArc
50
180
51
270
0
LINE
5
347
100
AcDbEntity
8
0
100
AcDbLine
10
-294.35500000000002
20
46.104904000000005
30
0
11
-290.33000000000004
21
46.104903999999998
31
0
0
ARC
5
348
100
AcDbEntity
8
0
100
AcDbCircle
10
-290.33000000000004
20
45.104904000000005
30
0
40
1.0000000000000142
210
0
220
0
230
1
100
AcDbArc
50
0
51
90
0
LINE
5
349
100
AcDbEntity
8
0
100
AcDbLine
10
-289.32999999999998
20
45.104904000000005
30
0
11
-289.32999999999998
21
44.00490400000001
31
0
0
ARC
5
350
100
AcDbEntity
8
0
100
AcDbCircle
10
-285.82999999999998
20
44.00490400000001
30
0
40
3.5000000000000142
210
0
220
0
230
1
100
AcDbArc
50
-180
51
0
0
LINE
5
351
100
AcDbEntity
8
0
100
AcDbLine
10
-282.32999999999998
20
44.00490400000001
30
0
11
-282.32999999999998
21
45.104904000000005
31
0
0
ARC
5
352
100
AcDbEntity
8
0
100
AcDbCircle
10
-281.32999999999998
20
45.104904000000005
30
0
40
0.99999999999999645
210
0
220
-0
230
1
100
AcDbArc
50
90
51
180
0
LINE
5
353
100
AcDbEntity
8
0
100
AcDbLine
10
-281.32999999999998
20
46.104903999999998
30
0
11
-235.28000000000003
21
46.104903999999998
31
0
0
ARC
5
354
100
AcDbEntity
8
0
100
AcDbCircle
10
-235.28000000000003
20
45.104904000000005
30
0
40
1.0000000000000142
210
0
220
0
230
1
100
AcDbArc
50
0
51
90
0
LINE
5
355
100
AcDbEntity
8
0
100
AcDbLine
10
-234.28
20
45.104904000000005
30
0
11
-234.28
21
44.00490400000001
31
0
0
ARC
5
356
100
AcDbEntity
8
0
100
AcDbCircle
10
-230.78000000000003
20
44.00490400000001
30
0
40
3.4999999999999787
210
0
220
0
230
1
100
AcDbArc
50
-180
51
5.3997386567638338e-06
0
LINE
5
357
100
AcDbEntity
8
0
100
AcDbLine
10
-227.28000000000006
20
44.004904329859997
30
0
11
-227.28000000000003
21
45.104904000000005
31
0
0
ARC
5
358
100
AcDbEntity
8
0
100
AcDbCircle
10
-226.28
20
45.104904000000005
30
0
40
0.99999999999999645
210
0
220
-0
230
1
100
AcDbArc
50
90
51
180
0
LINE
5
359
100
AcDbEntity
8
0
100
AcDbLine
10
-226.28
20
46.104903999999998
30
0
11
-137.93000000000001
21
46.104903999999998
31
0
0
ARC
5
360
100
AcDbEntity
8
0
100
AcDbCircle
10
-137.93000000000001
20
45.104904000000005
30
0
40
0.99999999999999645
210
0
220
0
230
1
100
AcDbArc
50
0
51
90
0
LINE
5
361
100
AcDbEntity
8
0
100
AcDbLine
10
-136.93000000000001
20
45.104904000000005
30
0
11
-136.93000000000001
21
44.00490400000001
31
0
0
ARC
5
362
100
AcDbEntity
8
0
100
AcDbCircle
10
-133.43000000000001
20
44.00490400000001
30
0
40
3.4999999999999964
210
0
220
0
230
1
100
AcDbArc
50
-180
51
0
0
LINE
5
363
100
AcDbEntity
8
0
100
AcDbLine
10
-129.93000000000001
20
44.00490400000001
30
0
11
-129.93000000000001
21
45.104904000000005
31
0
0
ARC
5
364
100
AcDbEntity
8
0
100
AcDbCircle
10
-128.93000000000001
20
45.104904000000005
30
0
40
0.99999999999999645
210
0
220
-0
230
1
100
AcDbArc
50
90
51
180
0
LINE
5
365
100
AcDbEntity
8
0
100
AcDbLine
10
-128.93000000000001
20
46.104903999999998
30
0
11
-40.579999000000001
21
46.104903999999998
31
0
0
ARC
5
366
100
AcDbEntity
8
0
100
AcDbCircle
10
-40.579999000000001
20
45.104904000000005
30
0
40
1.0000000000000009
210
0
220
0
230
1
100
AcDbArc
50
0
51
90
0
LINE
5
367
100
AcDbEntity
8
0
100
AcDbLine
10
-39.579999000000001
20
45.104904000000005
30
0
11
-39.579999000000001
21
44.00490400000001
31
0
0
ARC
5
368
100
AcDbEntity
8
0
100
AcDbCircle
10
-36.079999000000001
20
44.00490400000001
30
0
40
3.5000000000000009
210
0
220
0
230
1
100
AcDbArc
50
-180
51
0
0
LINE
5
369
100
AcDbEntity
8
0
100
AcDbLine
10
-32.579999000000001
20
44.00490400000001
30
0
11
-32.579999000000001
21
45.104904000000005
31
0
0
ARC
5
370
100
AcDbEntity
8
0
100
AcDbCircle
10
-31.579999000000001
20
45.104904000000005
30
0
40
0.99999999999999645
210
0
220
-0
230
1
100
AcDbArc
50
90
51
180
0
LINE
5
371
100
AcDbEntity
8
0
100
AcDbLine
10
-31.579999000000001
20
46.104903999999998
30
0
11
8.4450010000000031
21
46.104903999999998
31
0
0
ARC
5
372
100
AcDbEntity
8
0
100
AcDbCircle
10
8.4450009999999995
20
47.104904000000005
30
0
40
1.0000000000000053
210
0
220
0
230
1
100
AcDbArc
50
-89.999999999999801
51
0
0
LINE
5
373
100
AcDbEntity
8
0
100
AcDbLine
10
9.4450009999999995
20
47.104904000000005
30
0
11
9.4450000000000003
21
140.35490300000004
31
0
0
ARC
5
374
100
AcDbEntity
8
0
100
AcDbCircle
10
8.4450000000000003
20
140.35490300000001
30
0
40
1.0000000000000009
210
0
220
-0
230
1
100
AcDbArc
50
0
51
90
0
LINE
5
375
100
AcDbEntity
8
0
100
AcDbLine
10
8.4450000000000003
20
141.35490300000001
30
0
11
-31.579999999999995
21
141.35490349977141
31
0
0
ARC
5
376
100
AcDbEntity
8
0
100
AcDbCircle
10
-31.579999999999998
20
142.35490300000004
30
0
40
0.99999899999999808
210
0
220
0
230
1
100
AcDbArc
50
180
51
270.00000000000023
0
LINE
5
377
100
AcDbEntity
8
0
100
AcDbLine
10
-32.579999000000001
20
142.35490300000004
30
0
11
-32.579999000000001
21
143.454903
31
0
0
ARC
5
378
100
AcDbEntity
8
0
100
AcDbCircle
10
-36.079999000000001
20
143.454903
30
0
40
3.5000000000000009
210
0
220
0
230
1
100
AcDbArc
50
0
51
180
0
LINE
5
379
100
AcDbEntity
8
0
100
AcDbLine
10
-39.579999000000001
20
143.454903
30
0
11
-39.579999000000001
21
142.35490300000004
31
0
0
ARC
5
380
100
AcDbEntity
8
0
100
AcDbCircle
10
-40.579999000000001
20
142.35490300000004
30
0
40
0.99999999999999645
210
0
220
0
230
1
100
AcDbArc
50
-90
51
0
0
LINE
5
381
100
AcDbEntity
8
0
100
AcDbLine
10
-40.579999000000001
20
141.35490300000004
30
0
11
-128.93000000000001
21
141.35490300000001
31
0
0
ARC
5
382
100
AcDbEntity
8
0
100
AcDbCircle
10
-128.93000000000001
20
142.35490300000004
30
0
40
0.99999999999999645
210
0
220
0
230
1
100
AcDbArc
50
180
51
270
0
LINE
5
383
100
AcDbEntity
8
0
100
AcDbLine
10
-129.93000000000001
20
142.35490300000004
30
0
11
-129.93000000000001
21
143.454903
31
0
0
ARC
5
384
100
AcDbEntity
8
0
100
AcDbCircle
10
-133.43000000000001
20
143.454903
30
0
40
3.4999999999999964
210
0
220
0
230
1
100
AcDbArc
50
0
51
180
0
LINE
5
385
100
AcDbEntity
8
0
100
AcDbLine
10
-136.93000000000001
20
143.454903
30
0
11
-136.93000000000001
21
142.35490300000004
31
0
0
ARC
5
386
100
AcDbEntity
8
0
100
AcDbCircle
10
-137.93000000000001
20
142.35490300000004
30
0
40
0.99999999999999645
210
0
220
0
230
1
100
AcDbArc
50
-90
51
0
0
LINE
5
387
100
AcDbEntity
8
0
100
AcDbLine
10
-137.93000000000001
20
141.35490300000004
30
0
11
-226.28
21
141.35490300000001
31
0
0
ARC
5
388
100
AcDbEntity
8
0
100
AcDbCircle
10
-226.28
20
142.35490300000004
30
0
40
1.0000000000000142
210
0
220
0
230
1
100
AcDbArc
50
180
51
270
0
LINE
5
389
100
AcDbEntity
8
0
100
AcDbLine
10
-227.28000000000003
20
142.35490300000004
30
0
11
-227.28000000000003
21
143.454903
31
0
0
ARC
5
390
100
AcDbEntity
8
0
100
AcDbCircle
10
-230.78000000000003
20
143.454903
30
0
40
3.5000000000000142
210
0
220
0
230
1
100
AcDbArc
50
0
51
180
0
LINE
5
391
100
AcDbEntity
8
0
100
AcDbLine
10
-234.28000000000003
20
143.454903
30
0
11
-234.28
21
142.35490300000004
31
0
0
ARC
5
392
100
AcDbEntity
8
0
100
AcDbCircle
10
-235.28000000000003
20
142.35490300000004
30
0
40
0.99999999999999645
210
0
220
0
230
1
100
AcDbArc
50
-90
51
0
0
LINE
5
393
100
AcDbEntity
8
0
100
AcDbLine
10
-235.28000000000003
20
141.35490300000004
30
0
11
-281.32999999999998
21
141.35490300000001
31
0
0
ARC
5
394
100
AcDbEntity
8
0
100
AcDbCircle
10
-281.32999999999998
20
142.35490300000004
30
0
40
1.0000000000000142
210
0
220
0
230
1
100
AcDbArc
50
180
51
270
0
LINE
5
395
100
AcDbEntity
8
0
100
AcDbLine
10
-282.32999999999998
20
142.35490300000004
30
0
11
-282.32999999999998
21
143.454903
31
0
0
ARC
5
396
100
AcDbEntity
8
0
100
AcDbCircle
10
-285.82999999999998
20
143.454903
30
0
40
3.4999999999999787
210
0
220
0
230
1
100
AcDbArc
50
0
51
180
0
LINE
5
397
100
AcDbEntity
8
0
100
AcDbLine
10
-289.32999999999998
20
143.454903
30
0
11
-289.32999999999998
21
142.35490300000004
31
0
0
ARC
5
398
100
AcDbEntity
8
0
100
AcDbCircle
10
-290.33000000000004
20
142.35490300000004
30
0
40
0.99999999999999645
210
0
220
0
230
1
100
AcDbArc
50
-90
51
0
0
LINE
5
399
100
AcDbEntity
8
0
100
AcDbLine
10
-290.33000000000004
20
141.35490300000004
30
0
11
-294.35500000000002
21
141.35490300000001
31
0
0
ARC
5
400
100
AcDbEntity
8
0
100
AcDbCircle
10
-294.35500000000002
20
140.35490300000001
30
0
40
0.99999999999999645
210
0
220
-0
230
1
100
AcDbArc
50
90
51
180
0
LINE
5
401
100
AcDbEntity
8
0
100
AcDbLine
10
-295.35500000000008
20
140.35490300000001
30
0
11
-295.35500000000008
21
47.104904000000005
31
0
0
LWPOLYLINE
5
402
100
AcDbEntity
8
0
100
AcDbPolyline
90
10
70
1
43
0.0
10
-252.68625
20
105.78000000000002
10
-252.20011500000001
20
105.78000000000002
10
-252.17238399999999
20
105.78000000000002
10
-251.68625000000003
20
105.78
42
0.41421356237309503
10
-251.18625000000003
20
106.28
10
-251.18625000000003
20
119.27999900000002
42
0.4142135623730846
10
-251.686249
20
119.78000000000002
10
-252.68625
20
119.77999900000002
42
0.41421356237310542
10
-253.18624900000003
20
119.27999800000002
10
-253.18625
20
106.28
42
0.41421356237309503
0
LWPOLYLINE
5
403
100
AcDbEntity
8
0
100
AcDbPolyline
90
12
70
1
43
0.0
10
-233.58625000000001
20
106.28
42
-0.41421356237309503
10
-234.08625000000001
20
105.78
10
-234.572384
20
105.78000000000002
10
-234.58625000000001
20
105.77990300000002
10
-246.58625000000001
20
105.77990300000002
10
-246.60011499999999
20
105.78000000000002
10
-247.08625000000001
20
105.78
42
-0.41421356237309503
10
-247.58625000000001
20
106.28
10
-247.58624900000004
20
119.27999800000002
42
-0.41421356237310542
10
-247.08625000000001
20
119.77999900000002
10
-234.08624800000007
20
119.779999
42
-0.4142135623730846
10
-233.58625000000004
20
119.27999900000002
0
LWPOLYLINE
5
404
100
AcDbEntity
8
0
100
AcDbPolyline
90
10
70
1
43
0.0
10
-229.48625099999992
20
105.779999
42
-0.41421356237312623
10
-229.98625000000004
20
106.28
10
-229.98625000000004
20
119.27999900000002
42
-0.41421356237309503
10
-229.48625000000004
20
119.77999900000002
10
-228.48624900000004
20
119.78000000000002
42
-0.4142135623730846
10
-227.98625000000001
20
119.27999900000002
10
-227.98625000000001
20
106.28
42
-0.41421356237309503
10
-228.48625000000001
20
105.78
10
-228.97238400000003
20
105.78000000000002
10
-229.00011500000002
20
105.78000000000002
0
LWPOLYLINE
5
405
100
AcDbEntity
8
0
100
AcDbPolyline
90
12
70
1
43
0.0
10
-248.37375000000003
20
100.73000000000002
42
-0.41421356237309503
10
-247.87375
20
100.23000000000002
10
-247.87374900000003
20
87.230000000000004
42
-0.41421356237309503
10
-248.37375000000003
20
86.729999000000007
10
-248.85988400000002
20
86.729999000000007
10
-248.87375000000003
20
86.729903000000007
10
-260.87374999999997
20
86.729903000000007
10
-260.88761499999998
20
86.729999000000007
10
-261.37374999999997
20
86.729999000000007
42
-0.41421356237309503
10
-261.87374999999997
20
87.229999000000021
10
-261.87374999999997
20
100.22999800000001
42
-0.41421356237309503
10
-261.37374999999997
20
100.73000000000002
0
LWPOLYLINE
5
406
100
AcDbEntity
8
0
100
AcDbPolyline
90
12
70
1
43
0.0
10
-239.93574899999999
20
102.72999900000002
10
-245.93575000000001
20
102.73000000000002
42
0.41421356237309503
10
-246.43575100000004
20
102.22999900000002
10
-246.43575000000001
20
88.230000000000004
42
0.4142135623730846
10
-245.93575100000004
20
87.729999000000007
10
-245.44961499999999
20
87.730000000000018
10
-245.43575000000004
20
87.729903000000007
10
-240.43575000000004
20
87.729903000000007
10
-240.42188400000001
20
87.730000000000018
10
-239.93575000000004
20
87.72999999999999
42
0.41421356237309503
10
-239.43575000000004
20
88.230000000000004
10
-239.43574999999998
20
102.23
42
0.41421356237309503
0
LWPOLYLINE
5
407
100
AcDbEntity
8
0
100
AcDbPolyline
90
12
70
1
43
0.0
10
-230.91750000000002
20
100.22999800000001
10
-230.91750000000002
20
87.229999000000021
42
0.41421356237309503
10
-230.41750000000002
20
86.729999000000007
10
-229.93136500000003
20
86.729999000000007
10
-229.91749999999999
20
86.729903000000007
10
-217.91750000000002
20
86.729903000000007
10
-217.90363400000004
20
86.729999000000007
10
-217.41749999999999
20
86.729999000000007
42
0.41421356237309503
10
-216.91749900000002
20
87.230000000000004
10
-216.91750000000002
20
100.23000000000002
42
0.41421356237309503
10
-217.41749900000002
20
100.72999900000001
10
-230.41750000000002
20
100.73000000000002
42
0.41421356237309503
0
LWPOLYLINE
5
408
100
AcDbEntity
8
0
100
AcDbPolyline
90
12
70
1
43
0.0
10
-211.86750000000004
20
100.22999800000001
42
-0.41421356237309503
10
-211.36750000000004
20
100.73000000000002
10
-198.36749900000001
20
100.72999900000001
42
-0.41421356237309503
10
-197.86750000000001
20
100.23000000000002
10
-197.86749900000004
20
87.230000000000004
42
-0.41421356237309503
10
-198.36750000000001
20
86.729999000000007
10
-198.85363400000003
20
86.729999000000007
10
-198.86750000000004
20
86.729903000000007
10
-210.86750000000001
20
86.729903000000007
10
-210.88136500000002
20
86.729999000000007
10
-211.36750000000004
20
86.729999000000007
42
-0.41421356237309503
10
-211.86750000000004
20
87.229999000000021
0
LWPOLYLINE
5
409
100
AcDbEntity
8
0
100
AcDbPolyline
90
12
70
1
43
0.0
10
-179.317499
20
100.72999900000001
10
-192.31750000000002
20
100.73
42
0.41421356237309503
10
-192.81750000000002
20
100.22999800000001
10
-192.81750000000002
20
87.229999000000021
42
0.41421356237309503
10
-192.31750000000002
20
86.729999000000007
10
-191.83136500000001
20
86.729999000000007
10
-191.8175
20
86.729903000000007
10
-179.81750000000002
20
86.729903000000007
10
-179.80363399999999
20
86.729999000000007
10
-179.3175
20
86.729999000000007
42
0.41421356237309503
10
-178.817499
20
87.230000000000004
10
-178.8175
20
100.23000000000002
42
0.41421356237309503
0
LWPOLYLINE
5
410
100
AcDbEntity
8
0
100
AcDbPolyline
90
12
70
1
43
0.0
10
-208.39250000000004
20
105.77990300000002
10
-208.37863400000003
20
105.78000000000002
10
-207.89250000000004
20
105.78
42
0.41421356237309503
10
-207.39250000000001
20
106.28
10
-207.39250000000001
20
119.27999900000002
42
0.4142135623730846
10
-207.89249799999999
20
119.779999
10
-220.89250000000004
20
119.77999900000002
42
0.41421356237309503
10
-221.39250000000004
20
119.27999900000002
10
-221.39250000000004
20
106.28
42
0.41421356237310542
10
-220.89250100000001
20
105.77999900000002
10
-220.40636500000002
20
105.78000000000002
10
-220.39250000000004
20
105.77990300000002
0
LWPOLYLINE
5
411
100
AcDbEntity
8
0
100
AcDbPolyline
90
12
70
1
43
0.0
10
-201.84250099999991
20
105.779999
42
-0.41421356237312623
10
-202.34250000000003
20
106.28
10
-202.34250000000003
20
119.27999900000002
42
-0.41421356237309503
10
-201.84250000000003
20
119.77999900000002
10
-188.84249800000006
20
119.779999
42
-0.41421356237310542
10
-188.3425
20
119.27999900000002
10
-188.3425
20
106.28
42
-0.41421356237309503
10
-188.84250000000003
20
105.78
10
-189.32863399999999
20
105.78000000000002
10
-189.34250000000003
20
105.77990300000002
10
-201.34250000000003
20
105.77990300000002
10
-201.35636500000004
20
105.78000000000002
0
LWPOLYLINE
5
412
100
AcDbEntity
8
0
100
AcDbPolyline
90
12
70
1
43
0.0
10
-97.567500999999993
20
100.22999900000002
10
-97.567499999999995
20
87.229999000000021
42
0.41421356237309503
10
-97.067499999999995
20
86.729999000000007
10
-96.581365000000005
20
86.729999000000007
10
-96.56750000000001
20
86.729903000000007
10
-84.567499999999995
20
86.729903000000007
10
-84.553634000000017
20
86.729999000000007
10
-84.06750000000001
20
86.729999000000007
42
0.41421356237309503
10
-83.567498999999998
20
87.229997999999995
10
-83.567498999999984
20
100.23000000000002
42
0.41421356237310542
10
-84.06750000000001
20
100.72999900000001
10
-97.067499999999995
20
100.73000000000002
42
0.41421356237309503
0
LWPOLYLINE
5
413
100
AcDbEntity
8
0
100
AcDbPolyline
90
12
70
1
43
0.0
10
-116.61750000000001
20
100.23000000000002
42
-0.41421356237309503
10
-116.11750000000001
20
100.73000000000002
10
-103.11750000000002
20
100.73000000000002
42
-0.41421356237309503
10
-102.61750000000001
20
100.23000000000002
10
-102.617499
20
87.229997999999995
42
-0.41421356237309503
10
-103.11750000000002
20
86.729999000000007
10
-103.603634
20
86.729999000000007
10
-103.61750000000001
20
86.729903000000007
10
-115.61750000000002
20
86.729903000000007
10
-115.631365
20
86.729999000000007
10
-116.117498
20
86.729999000000007
42
-0.41421356237309503
10
-116.61749999999999
20
87.229999000000021
0
LWPOLYLINE
5
414
100
AcDbEntity
8
0
100
AcDbPolyline
90
12
70
1
43
0.0
10
-112.142499
20
106.279999
10
-112.1425
20
119.27999900000002
42
0.41421356237309503
10
-112.64250000000001
20
119.779999
10
-125.64250000000001
20
119.77999900000002
42
0.41421356237309503
10
-126.1425
20
119.27999900000002
10
-126.14250000000001
20
106.28
42
0.41421356237309503
10
-125.64250000000001
20
105.78000000000002
10
-125.15636499999999
20
105.78000000000002
10
-125.14250000000001
20
105.77990300000002
10
-113.142499
20
105.77990300000002
10
-113.12863400000001
20
105.78000000000002
10
-112.64250000000001
20
105.78
42
0.41421356237309503
0
LWPOLYLINE
5
415
100
AcDbEntity
8
0
100
AcDbPolyline
90
12
70
1
43
0.0
10
-93.092499000000004
20
106.279999
10
-93.092500000000001
20
119.27999900000002
42
0.41421356237309503
10
-93.592500000000015
20
119.779999
10
-106.5925
20
119.77999900000002
42
0.41421356237309503
10
-107.0925
20
119.27999900000002
10
-107.0925
20
106.28
42
0.41421356237309503
10
-106.592499
20
105.77999900000002
10
-106.106365
20
105.78000000000002
10
-106.09250000000002
20
105.77990300000002
10
-94.092499000000004
20
105.77990300000002
10
-94.078633999999994
20
105.78000000000002
10
-93.592500000000015
20
105.78
42
0.41421356237310542
0
LWPOLYLINE
5
416
100
AcDbEntity
8
0
100
AcDbPolyline
90
12
70
1
43
0.0
10
-74.542499000000007
20
119.779999
10
-87.542500000000004
20
119.779999
42
0.41421356237309503
10
-88.042500000000018
20
119.27999900000002
10
-88.042500000000018
20
106.28
42
0.41421356237309503
10
-87.542501000000001
20
105.77999900000002
10
-87.056365
20
105.78000000000002
10
-87.042500000000004
20
105.77990300000002
10
-75.042499000000021
20
105.77990300000002
10
-75.028633999999997
20
105.78000000000002
10
-74.542500000000004
20
105.78
42
0.41421356237310025
10
-74.042499000000007
20
106.279999
10
-74.042499000000007
20
119.27999900000002
42
0.41421356237309503
0
LWPOLYLINE
5
417
100
AcDbEntity
8
0
100
AcDbPolyline
90
12
70
1
43
0.0
10
-163.742501
20
105.77999900000002
10
-163.25636499999999
20
105.78000000000002
10
-163.24250000000004
20
105.77990300000002
10
-151.24250000000001
20
105.77990300000002
10
-151.228634
20
105.78000000000002
10
-150.74250000000001
20
105.78
42
0.41421356237309503
10
-150.24250000000001
20
106.28
10
-150.24250000000001
20
119.27999900000002
42
0.41421356237309503
10
-150.74250000000001
20
119.779999
10
-163.74250000000001
20
119.77999900000002
42
0.41421356237310542
10
-164.24249900000004
20
119.27999800000002
10
-164.24250000000001
20
106.28
42
0.4142135623730846
0
LWPOLYLINE
5
418
100
AcDbEntity
8
0
100
AcDbPolyline
90
12
70
1
43
0.0
10
-132.1925
20
105.77990300000002
10
-132.17863399999999
20
105.78000000000002
10
-131.6925
20
105.78000000000002
42
0.41421356237309503
10
-131.19250099999999
20
106.279999
10
-131.1925
20
119.27999900000002
42
0.41421356237309503
10
-131.6925
20
119.779999
10
-144.6925
20
119.77999900000002
42
0.41421356237309503
10
-145.1925
20
119.27999900000002
10
-145.19250000000002
20
106.28
42
0.41421356237309503
10
-144.6925
20
105.78000000000002
10
-144.20636500000001
20
105.78000000000002
10
-144.1925
20
105.77990300000002
0
LWPOLYLINE
5
419
100
AcDbEntity
8
0
100
AcDbPolyline
90
12
70
1
43
0.0
10
-172.76750000000004
20
86.729903000000007
10
-160.76750000000001
20
86.729903000000007
10
-160.75363400000001
20
86.729999000000007
10
-160.26750000000004
20
86.729999000000007
42
0.41421356237309503
10
-159.76749899999999
20
87.230000000000004
10
-159.76749999999998
20
100.23000000000002
42
0.41421356237309503
10
-160.26749899999999
20
100.72999900000001
10
-173.26750000000001
20
100.73000000000002
42
0.41421356237309503
10
-173.76750000000001
20
100.22999800000001
10
-173.76750000000001
20
87.229999000000021
42
0.41421356237309503
10
-173.26750000000001
20
86.729999000000007
10
-172.78136499999999
20
86.729999000000007
0
LWPOLYLINE
5
420
100
AcDbEntity
8
0
100
AcDbPolyline
90
12
70
1
43
0.0
10
-153.7175
20
86.729903000000007
10
-141.7175
20
86.729903000000007
10
-141.70363399999999
20
86.729999000000007
10
-141.2175
20
86.729999000000007
42
0.41421356237309503
10
-140.71750000000003
20
87.229999000000021
10
-140.7175
20
100.23000000000002
42
0.41421356237309503
10
-141.2175
20
100.73
10
-154.2175
20
100.73000000000002
42
0.41421356237310542
10
-154.7175
20
100.22999800000001
10
-154.71750000000003
20
87.229999000000021
42
0.41421356237309503
10
-154.2175
20
86.729999000000007
10
-153.73136500000001
20
86.729999000000007
0
LWPOLYLINE
5
421
100
AcDbEntity
8
0
100
AcDbPolyline
90
12
70
1
43
0.0
10
-169.79249800000002
20
119.779999
10
-182.79250000000002
20
119.779999
42
0.4142135623730846
10
-183.29249900000002
20
119.27999800000002
10
-183.29250000000002
20
106.28
42
0.41421356237310542
10
-182.79250099999999
20
105.77999900000002
10
-182.306365
20
105.78000000000002
10
-182.29250000000002
20
105.77990300000002
10
-170.29250000000002
20
105.77990300000002
10
-170.27863400000001
20
105.78000000000002
10
-169.79250000000002
20
105.78
42
0.41421356237309503
10
-169.29249999999999
20
106.28
10
-169.29249999999999
20
119.27999900000002
42
0.41421356237310542
0
LWPOLYLINE
5
422
100
AcDbEntity
8
0
100
AcDbPolyline
90
12
70
1
43
0.0
10
-121.6675
20
87.229999000000021
10
-121.6675
20
100.23000000000002
42
0.41421356237309503
10
-122.16750000000002
20
100.73
10
-135.16749999999999
20
100.73000000000002
42
0.41421356237309503
10
-135.66749999999999
20
100.23000000000002
10
-135.66750000000002
20
87.229999000000021
42
0.41421356237310542
10
-135.16749799999999
20
86.729999000000007
10
-134.681365
20
86.729999000000007
10
-134.66749999999999
20
86.729903000000007
10
-122.66750000000002
20
86.729903000000007
10
-122.653634
20
86.729999000000007
10
-122.16750000000002
20
86.729999000000007
42
0.41421356237309503
0
LWPOLYLINE
5
423
100
AcDbEntity
8
0
100
AcDbPolyline
90
12
70
1
43
0.0
10
-231.20500000000004
20
68.180000000000007
10
-231.20500000000004
20
81.179998999999995
42
0.41421356237309503
10
-231.70500000000004
20
81.679998999999995
10
-244.70500000000001
20
81.679999999999993
42
0.41421356237309503
10
-245.20500100000004
20
81.179998999999995
10
-245.20500000000001
20
68.179999000000009
42
0.41421356237309503
10
-244.70500000000001
20
67.679998999999995
10
-244.21886499999999
20
67.680000000000007
10
-244.20500000000004
20
67.679902999999996
10
-232.20500000000001
20
67.679902999999996
10
-232.19113400000001
20
67.680000000000007
10
-231.70500000000004
20
67.680000000000021
42
0.41421356237309503
0
LWPOLYLINE
5
424
100
AcDbEntity
8
0
100
AcDbPolyline
90
12
70
1
43
0.0
10
-225.16886500000001
20
67.680000000000007
10
-225.15500000000003
20
67.679902999999996
10
-213.155
20
67.679902999999996
10
-213.14113399999999
20
67.680000000000007
10
-212.65500000000003
20
67.680000000000021
42
0.41421356237309503
10
-212.15500000000003
20
68.180000000000007
10
-212.15500000000003
20
81.179998999999995
42
0.41421356237309503
10
-212.65500000000003
20
81.679998999999995
10
-225.655
20
81.679999999999993
42
0.41421356237309503
10
-226.15500100000003
20
81.179998999999995
10
-226.155
20
68.179999000000009
42
0.41421356237309503
10
-225.655
20
67.679998999999995
0
LWPOLYLINE
5
425
100
AcDbEntity
8
0
100
AcDbPolyline
90
12
70
1
43
0.0
10
-206.10500000000002
20
67.679902999999996
10
-194.10499999999999
20
67.679902999999996
10
-194.09113400000001
20
67.680000000000007
10
-193.60500000000002
20
67.680000000000021
42
0.41421356237309503
10
-193.10500000000002
20
68.180000000000007
10
-193.10500000000002
20
81.179998999999995
42
0.41421356237309503
10
-193.60499799999999
20
81.679998999999995
10
-206.60499999999999
20
81.679999999999993
42
0.41421356237309503
10
-207.10500100000002
20
81.179998999999995
10
-207.10499999999999
20
68.179999000000009
42
0.41421356237309503
10
-206.60499999999999
20
67.679998999999995
10
-206.118865
20
67.680000000000007
0
LWPOLYLINE
5
426
100
AcDbEntity
8
0
100
AcDbPolyline
90
12
70
1
43
0.0
10
-130.905
20
81.180000000000007
10
-130.905
20
68.179999000000009
42
0.41421356237309503
10
-130.40500000000003
20
67.679998999999995
10
-129.91886500000001
20
67.680000000000007
10
-129.905
20
67.679902999999996
10
-117.90500000000002
20
67.679902999999996
10
-117.89113399999999
20
67.680000000000007
10
-117.405
20
67.679999999999993
42
0.41421356237309503
10
-116.90500100000001
20
68.179999000000009
10
-116.905
20
81.179998999999995
42
0.41421356237309503
10
-117.405
20
81.679998999999995
10
-130.40500000000003
20
81.680000000000007
42
0.41421356237309503
0
LWPOLYLINE
5
427
100
AcDbEntity
8
0
100
AcDbPolyline
90
12
70
1
43
0.0
10
-149.45500000000004
20
67.679998999999995
10
-148.96886499999999
20
67.680000000000007
10
-148.95500000000001
20
67.679902999999996
10
-136.95500000000004
20
67.679902999999996
10
-136.94113400000001
20
67.680000000000007
10
-136.45500000000001
20
67.679999999999993
42
0.41421356237309503
10
-135.95500100000004
20
68.179999000000009
10
-135.95500000000001
20
81.179998999999995
42
0.41421356237309503
10
-136.45500000000001
20
81.679998999999995
10
-149.45500000000004
20
81.680000000000007
42
0.41421356237309503
10
-149.95500000000001
20
81.180000000000007
10
-149.95500000000004
20
68.179999000000009
42
0.41421356237309503
0
LWPOLYLINE
5
428
100
AcDbEntity
8
0
100
AcDbPolyline
90
12
70
1
43
0.0
10
-168.505
20
67.679998999999995
42
-0.41421356237309503
10
-169.005
20
68.179999000000009
10
-169.005
20
81.179997999999998
42
-0.4142135623730846
10
-168.505
20
81.679999999999993
10
-155.504998
20
81.679998999999995
42
-0.41421356237310542
10
-155.005
20
81.179998999999995
10
-155.005
20
68.180000000000007
42
-0.41421356237309503
10
-155.505
20
67.680000000000021
10
-155.99113399999999
20
67.680000000000007
10
-156.005
20
67.679902999999996
10
-168.005
20
67.679902999999996
10
-168.01886500000001
20
67.680000000000007
0
LWPOLYLINE
5
429
100
AcDbEntity
8
0
100
AcDbPolyline
90
12
70
1
43
0.0
10
-92.805001000000004
20
81.179998999999995
42
-0.41421356237309503
10
-92.305000000000007
20
81.679999999999993
10
-79.304998999999995
20
81.679999999999993
42
-0.41421356237309503
10
-78.805000000000007
20
81.179998999999995
10
-78.804999999999993
20
68.179997999999998
42
-0.41421356237310025
10
-79.305000000000007
20
67.679999999999993
10
-79.791134
20
67.680000000000007
10
-79.805000000000007
20
67.679902999999996
10
-91.805000000000007
20
67.679902999999996
10
-91.818865000000017
20
67.680000000000007
10
-92.304998999999995
20
67.680000000000007
42
-0.41421356237309503
10
-92.805000000000021
20
68.179999000000009
0
LWPOLYLINE
5
430
100
AcDbEntity
8
0
100
AcDbPolyline
90
12
70
1
43
0.0
10
-97.855001000000001
20
68.179999000000009
42
-0.41421356237309503
10
-98.355000000000018
20
67.679999999999993
10
-98.841134000000011
20
67.680000000000007
10
-98.855000000000004
20
67.679902999999996
10
-110.85500000000002
20
67.679902999999996
10
-110.868865
20
67.680000000000007
10
-111.35499900000001
20
67.680000000000007
42
-0.4142135623730846
10
-111.85500000000002
20
68.179999000000009
10
-111.85499900000002
20
81.179998999999995
42
-0.41421356237310542
10
-111.355
20
81.680000000000007
10
-98.354999000000021
20
81.680000000000007
42
-0.41421356237310542
10
-97.855000000000004
20
81.179998999999995
0
LWPOLYLINE
5
431
100
AcDbEntity
8
0
100
AcDbPolyline
90
10
70
1
43
0.0
10
-250.43136500000003
20
67.680000000000007
10
-250.40363400000004
20
67.680000000000007
10
-249.91749999999999
20
67.680000000000021
42
0.41421356237309503
10
-249.41749999999999
20
68.180000000000007
10
-249.41749999999999
20
81.179998999999995
42
0.41421356237311585
10
-249.91749900000002
20
81.680000000000007
10
-250.91750000000002
20
81.679999999999993
42
0.4142135623730846
10
-251.41750000000002
20
81.179997999999998
10
-251.41750000000002
20
68.179999000000009
42
0.41421356237309503
10
-250.91750000000002
20
67.679998999999995
0
LWPOLYLINE
5
432
100
AcDbEntity
8
0
100
AcDbPolyline
90
24
70
1
43
0.0
10
-273.28000100000003
20
48.629998999999991
42
-0.414213562373069
10
-273.77999999999997
20
49.130000000000003
10
-273.78000100000003
20
62.129998999999998
42
-0.41421356237309503
10
-273.27999999999997
20
62.629999999999995
10
-272.69299999999998
20
62.629999000000005
10
-272.69300100000004
20
64.129998999999998
42
-0.41421356237309503
10
-272.19299999999998
20
64.629999999999995
10
-266.19300099999998
20
64.629999000000012
42
-0.41421356237310025
10
-265.69299999999998
20
64.129999999999995
10
-265.69299999999998
20
62.63000000000001
10
-248.81700000000001
20
62.63000000000001
10
-248.81700100000003
20
64.129998999999998
42
-0.41421356237309503
10
-248.31700000000001
20
64.629999999999995
10
-242.31699900000001
20
64.629998999999998
42
-0.41421356237309503
10
-241.81700000000004
20
64.129999999999995
10
-241.81700000000004
20
62.63000000000001
10
-241.22999899999999
20
62.629999000000005
42
-0.41421356237309503
10
-240.73000000000002
20
62.13000000000001
10
-240.72999899999999
20
49.130000000000003
42
-0.41421356237309503
10
-241.23000000000002
20
48.629998999999998
10
-241.71613400000001
20
48.629998999999998
10
-241.73000000000002
20
48.629902999999999
10
-272.77999999999997
20
48.629902999999999
10
-272.79386499999998
20
48.629998999999998
0
LWPOLYLINE
5
433
100
AcDbEntity
8
0
100
AcDbPolyline
90
12
70
1
43
0.0
10
-234.69386499999999
20
48.629998999999998
10
-234.68000000000004
20
48.629902999999999
10
-222.68000000000001
20
48.629902999999999
10
-222.666134
20
48.629998999999998
10
-222.18000000000004
20
48.629998999999998
42
0.41421356237309503
10
-221.67999900000001
20
49.130000000000003
10
-221.68000000000004
20
62.13000000000001
42
0.41421356237309503
10
-222.17999900000001
20
62.629999000000005
10
-235.18000000000001
20
62.629999999999995
42
0.41421356237309503
10
-235.68000100000003
20
62.129998999999998
10
-235.68000000000001
20
49.130000000000003
42
0.41421356237308982
10
-235.180001
20
48.629998999999998
0
LWPOLYLINE
5
434
100
AcDbEntity
8
0
100
AcDbPolyline
90
12
70
1
43
0.0
10
-203.61613399999999
20
48.629998999999998
10
-203.13000000000002
20
48.629998999999998
42
0.41421356237309503
10
-202.629999
20
49.130000000000003
10
-202.63000000000002
20
62.13000000000001
42
0.41421356237309503
10
-203.129999
20
62.629999000000005
10
-216.13
20
62.629999999999995
42
0.41421356237309503
10
-216.63000100000002
20
62.129998999999998
10
-216.63
20
49.130000000000003
42
0.41421356237308982
10
-216.13000099999999
20
48.629998999999998
10
-215.64386500000001
20
48.629998999999998
10
-215.63000000000002
20
48.629902999999999
10
-203.63
20
48.629902999999999
0
LWPOLYLINE
5
435
100
AcDbEntity
8
0
100
AcDbPolyline
90
12
70
1
43
0.0
10
-139.44386500000002
20
48.629998999999998
10
-139.43000000000001
20
48.629902999999999
10
-127.43000000000002
20
48.629902999999999
10
-127.416134
20
48.629998999999998
10
-126.93000000000001
20
48.629998999999998
42
0.41421356237309503
10
-126.429999
20
49.130000000000003
10
-126.43000000000001
20
62.13000000000001
42
0.4142135623730846
10
-126.930001
20
62.629999000000005
10
-139.93000000000001
20
62.63000000000001
42
0.41421356237309503
10
-140.43000000000001
20
62.13000000000001
10
-140.43000000000004
20
49.130000000000003
42
0.41421356237310025
10
-139.930001
20
48.629998999999998
0
LWPOLYLINE
5
436
100
AcDbEntity
8
0
100
AcDbPolyline
90
12
70
1
43
0.0
10
-146.46613400000001
20
48.629998999999998
10
-145.97999999999999
20
48.629998999999998
42
0.41421356237309503
10
-145.47999900000002
20
49.130000000000003
10
-145.47999999999999
20
62.13000000000001
42
0.41421356237309503
10
-145.98000100000002
20
62.629999000000005
10
-158.97999999999999
20
62.629999999999995
42
0.41421356237309503
10
-159.48000000000002
20
62.129998000000001
10
-159.48000000000002
20
49.130000000000003
42
0.41421356237310025
10
-158.98000099999999
20
48.629998999999998
10
-158.49386500000003
20
48.629998999999998
10
-158.47999999999999
20
48.629902999999999
10
-146.47999999999999
20
48.629902999999999
0
LWPOLYLINE
5
437
100
AcDbEntity
8
0
100
AcDbPolyline
90
12
70
1
43
0.0
10
-178.53000000000003
20
62.129998000000001
42
-0.4142135623730846
10
-178.03
20
62.629999999999995
10
-165.03
20
62.630000000000017
42
-0.41421356237309503
10
-164.53
20
62.13000000000001
10
-164.52999900000003
20
49.130000000000003
42
-0.41421356237309503
10
-165.03
20
48.629998999999998
10
-165.51613400000002
20
48.629998999999998
10
-165.53
20
48.629902999999999
10
-177.53
20
48.629902999999999
10
-177.54386500000004
20
48.629998999999998
10
-178.03000100000003
20
48.629998999999991
42
-0.41421356237308982
10
-178.53000000000003
20
49.130000000000003
0
LWPOLYLINE
5
438
100
AcDbEntity
8
0
100
AcDbPolyline
90
12
70
1
43
0.0
10
-197.58000100000004
20
62.129998999999998
10
-197.58000000000004
20
49.130000000000003
42
0.41421356237308982
10
-197.08000100000004
20
48.629998999999998
10
-196.59386499999999
20
48.629998999999998
10
-196.58000000000001
20
48.629902999999999
10
-184.58000000000001
20
48.629902999999999
10
-184.56613400000003
20
48.629998999999998
10
-184.08000000000001
20
48.629998999999998
42
0.41421356237309503
10
-183.57999899999999
20
49.130000000000003
10
-183.58000000000001
20
62.13000000000001
42
0.41421356237309503
10
-184.08000000000001
20
62.63000000000001
10
-197.08000000000001
20
62.629999999999995
42
0.41421356237309503
0
LWPOLYLINE
5
439
100
AcDbEntity
8
0
100
AcDbPolyline
90
12
70
1
43
0.0
10
-108.38000000000001
20
48.629902999999999
10
-108.36613400000002
20
48.629998999999998
10
-107.88
20
48.629998999999998
42
0.41421356237309503
10
-107.38
20
49.129998999999998
10
-107.38
20
62.13000000000001
42
0.41421356237309503
10
-107.88
20
62.63000000000001
10
-120.879999
20
62.63000000000001
42
0.41421356237309503
10
-121.379999
20
62.13000000000001
10
-121.379999
20
49.130000000000003
42
0.41421356237309503
10
-120.879999
20
48.630000000000003
10
-120.39386500000001
20
48.629998999999998
10
-120.37999900000001
20
48.629902999999999
0
LWPOLYLINE
5
440
100
AcDbEntity
8
0
100
AcDbPolyline
90
12
70
1
43
0.0
10
-82.293865000000011
20
48.629998999999998
10
-82.280000000000001
20
48.629902999999999
10
-70.280000000000001
20
48.629902999999999
10
-70.266133999999994
20
48.629998999999998
10
-69.780000000000001
20
48.629998999999998
42
0.41421356237309503
10
-69.280000000000001
20
49.129998999999998
10
-69.280000000000001
20
62.13000000000001
42
0.41421356237309503
10
-69.780000000000001
20
62.63000000000001
10
-82.780000000000001
20
62.63000000000001
42
0.41421356237309503
10
-83.280000000000015
20
62.13000000000001
10
-83.280000000000015
20
49.130000000000003
42
0.41421356237309503
10
-82.780000000000001
20
48.630000000000003
0
CIRCLE
5
441
100
AcDbEntity
8
0
100
AcDbCircle
10
-36.079999999999998
20
44.009999999999998
30
0
40
1.1000000000000001
210
-0
220
0
230
1
0
LWPOLYLINE
5
442
100
AcDbEntity
8
0
100
AcDbPolyline
90
12
70
1
43
0.0
10
-45.18
20
62.13000000000001
42
-0.41421356237309503
10
-44.68
20
62.63000000000001
10
-31.68
20
62.63000000000001
42
-0.41421356237309503
10
-31.180000000000003
20
62.13000000000001
10
-31.179999000000002
20
49.130000000000003
42
-0.41421356237309503
10
-31.68
20
48.629998999999998
10
-32.166134
20
48.629998999999998
10
-32.18
20
48.629902999999999
10
-44.18
20
48.629902999999999
10
-44.19386500000001
20
48.630000000000003
10
-44.680001000000004
20
48.629998999999998
42
-0.41421356237309503
10
-45.18
20
49.130000000000003
0
LWPOLYLINE
5
443
100
AcDbEntity
8
0
100
AcDbPolyline
90
12
70
1
43
0.0
10
-63.243865
20
48.630000000000003
10
-63.230000000000004
20
48.629902999999999
10
-51.230000000000004
20
48.629902999999999
10
-51.216134000000004
20
48.629998999999998
10
-50.730000000000004
20
48.629998999999998
42
0.41421356237309503
10
-50.229999999999997
20
49.129998999999998
10
-50.230000000000004
20
62.13000000000001
42
0.41421356237309503
10
-50.730000000000004
20
62.63000000000001
10
-63.730000000000004
20
62.629999999999995
42
0.41421356237309503
10
-64.230001000000001
20
62.129998999999998
10
-64.230000000000004
20
49.130000000000003
42
0.41421356237309503
10
-63.730000000000004
20
48.630000000000003
0
LWPOLYLINE
5
444
100
AcDbEntity
8
0
100
AcDbPolyline
90
12
70
1
43
0.0
10
-88.329999000000015
20
49.129998000000008
10
-88.329999999999998
20
62.13000000000001
42
0.41421356237309503
10
-88.830000000000013
20
62.63000000000001
10
-101.83
20
62.63000000000001
42
0.41421356237309503
10
-102.33000000000001
20
62.13000000000001
10
-102.33000000000001
20
49.130000000000003
42
0.41421356237309503
10
-101.83
20
48.630000000000003
10
-101.34386499999999
20
48.629998999999998
10
-101.33000000000001
20
48.629902999999999
10
-89.329999999999998
20
48.629902999999999
10
-89.316134000000019
20
48.629998999999998
10
-88.830000000000013
20
48.629998999999998
42
0.41421356237310542
0
LWPOLYLINE
5
445
100
AcDbEntity
8
0
100
AcDbPolyline
90
12
70
1
43
0.0
10
-41.204999999999998
20
81.679998999999995
10
-54.205000000000005
20
81.680000000000007
42
0.41421356237309503
10
-54.70500100000001
20
81.179998999999995
10
-54.705000000000005
20
68.179999000000009
42
0.41421356237309503
10
-54.205000000000005
20
67.679998999999995
10
-53.718865000000008
20
67.680000000000007
10
-53.704999999999998
20
67.679902999999996
10
-41.704999999999998
20
67.679902999999996
10
-41.691133999999998
20
67.680000000000007
10
-41.204999999999998
20
67.679999999999993
42
0.41421356237309503
10
-40.705001000000003
20
68.179999000000009
10
-40.704999999999998
20
81.179998999999995
42
0.41421356237309503
0
LWPOLYLINE
5
446
100
AcDbEntity
8
0
100
AcDbPolyline
90
12
70
1
43
0.0
10
-60.74113400000001
20
67.680000000000007
10
-60.25500000000001
20
67.680000000000007
42
0.41421356237309503
10
-59.755001000000007
20
68.179999000000009
10
-59.75500000000001
20
81.179998999999995
42
0.41421356237309503
10
-60.25500000000001
20
81.679998999999995
10
-73.254999999999995
20
81.680000000000007
42
0.41421356237309503
10
-73.754999999999995
20
81.180000000000007
10
-73.754999999999995
20
68.179999000000009
42
0.4142135623730846
10
-73.254998999999998
20
67.680000000000007
10
-72.768865000000005
20
67.680000000000007
10
-72.754999999999995
20
67.679902999999996
10
-60.75500000000001
20
67.679902999999996
0
LWPOLYLINE
5
447
100
AcDbEntity
8
0
100
AcDbPolyline
90
12
70
1
43
0.0
10
-187.55500000000001
20
67.679998999999995
10
-187.06886499999999
20
67.680000000000007
10
-187.05500000000001
20
67.679902999999996
10
-175.05500000000001
20
67.679902999999996
10
-175.041134
20
67.680000000000007
10
-174.55500000000001
20
67.680000000000021
42
0.41421356237309503
10
-174.05500000000001
20
68.180000000000007
10
-174.05500000000004
20
81.179998999999995
42
0.41421356237309503
10
-174.55499800000001
20
81.679998999999995
10
-187.55500000000001
20
81.679999999999993
42
0.41421356237309503
10
-188.055001
20
81.179998999999995
10
-188.05500000000001
20
68.179999000000009
42
0.41421356237309503
0
CIRCLE
5
448
100
AcDbEntity
8
0
100
AcDbCircle
10
-133.43000000000001
20
44.030000000000001
30
0
40
1.1000000000000001
210
-0
220
0
230
1
0
CIRCLE
5
449
100
AcDbEntity
8
0
100
AcDbCircle
10
-230.78000000000003
20
44.030000000000001
30
0
40
1.1000000000000001
210
-0
220
0
230
1
0
LWPOLYLINE
5
450
100
AcDbEntity
8
0
100
AcDbPolyline
90
12
70
1
43
0.0
10
-78.017499000000015
20
86.730000000000004
10
-77.531364999999994
20
86.729999000000007
10
-77.517499999999998
20
86.729903000000007
10
-65.517499999999998
20
86.729903000000007
10
-65.503634000000005
20
86.729999000000007
10
-65.017499999999998
20
86.729999000000007
42
0.41421356237309503
10
-64.517500000000013
20
87.229999000000021
10
-64.517500000000013
20
100.23000000000002
42
0.41421356237309503
10
-65.017499999999998
20
100.73
10
-78.017499999999998
20
100.73000000000002
42
0.41421356237309503
10
-78.517499999999998
20
100.23000000000002
10
-78.517499999999998
20
87.229999000000021
42
0.41421356237309503
0
LWPOLYLINE
5
451
100
AcDbEntity
8
0
100
AcDbPolyline
90
12
70
1
43
0.0
10
-45.467499999999994
20
87.229999000000021
42
-0.41421356237309503
10
-45.967500000000001
20
86.729999000000007
10
-46.453634000000001
20
86.729999000000007
10
-46.467500000000001
20
86.729903000000007
10
-58.467500000000001
20
86.729903000000007
10
-58.481364999999997
20
86.729999000000007
10
-58.967500000000008
20
86.729999000000007
42
-0.41421356237309503
10
-59.467500000000008
20
87.229999000000021
10
-59.467500000000015
20
100.23000000000002
42
-0.41421356237309503
10
-58.967500000000008
20
100.73000000000002
10
-45.967500000000001
20
100.73
42
-0.41421356237309503
10
-45.467500000000001
20
100.23000000000002
0
LWPOLYLINE
5
452
100
AcDbEntity
8
0
100
AcDbPolyline
90
12
70
1
43
0.0
10
-26.417499999999997
20
87.229999000000021
42
-0.41421356237309503
10
-26.917500000000004
20
86.729999000000007
10
-27.403634
20
86.729999000000007
10
-27.4175
20
86.729903000000007
10
-39.417499999999997
20
86.729903000000007
10
-39.431365
20
86.729999000000007
10
-39.917499999999997
20
86.729999000000007
42
-0.41421356237309503
10
-40.417499999999997
20
87.229999000000021
10
-40.417500000000004
20
100.23000000000002
42
-0.41421356237309503
10
-39.917499999999997
20
100.73000000000002
10
-26.917500000000004
20
100.73
42
-0.41421356237309503
10
-26.417500000000004
20
100.23000000000002
0
LWPOLYLINE
5
453
100
AcDbEntity
8
0
100
AcDbPolyline
90
12
70
1
43
0.0
10
-48.942500000000003
20
105.77990300000002
10
-36.942500000000003
20
105.77990300000002
10
-36.928634000000002
20
105.78000000000002
10
-36.442500000000003
20
105.78
42
0.41421356237309503
10
-35.94250000000001
20
106.28
10
-35.94250000000001
20
119.27999900000002
42
0.41421356237309503
10
-36.442500000000003
20
119.779999
10
-49.442500000000003
20
119.77999900000002
42
0.41421356237309503
10
-49.94250000000001
20
119.27999900000002
10
-49.942500000000003
20
106.28
42
0.41421356237308982
10
-49.442501000000007
20
105.77999900000002
10
-48.956365000000005
20
105.78000000000002
0
LWPOLYLINE
5
454
100
AcDbEntity
8
0
100
AcDbPolyline
90
12
70
1
43
0.0
10
-67.992500000000007
20
105.77990300000002
10
-55.992500000000007
20
105.77990300000002
10
-55.978634000000007
20
105.78000000000002
10
-55.492500000000007
20
105.78000000000002
42
0.41421356237310025
10
-54.9925
20
106.27999800000001
10
-54.992500000000007
20
119.27999900000002
42
0.41421356237309503
10
-55.492500000000007
20
119.779999
10
-68.492500000000007
20
119.77999900000002
42
0.41421356237309503
10
-68.992500000000007
20
119.27999900000002
10
-68.992500000000007
20
106.28
42
0.41421356237309503
10
-68.492500000000007
20
105.78000000000002
10
-68.006365000000002
20
105.78000000000002
0
LWPOLYLINE
5
455
100
AcDbEntity
8
0
100
AcDbPolyline
90
14
70
1
43
0.0
10
4.8762499999999998
20
100.73000000000002
42
-0.41421356237309503
10
5.3762500000000006
20
100.23000000000002
10
5.3762500000000069
20
87.229999000000021
42
-0.41421356237309503
10
4.8762499999999998
20
86.729999000000007
10
4.3901159999999999
20
86.729999000000007
10
4.3623849999999997
20
86.729999000000007
10
3.552616
20
86.729999000000007
10
3.5387499999999994
20
86.729903000000007
10
-13.223749
20
86.729903000000007
10
-13.237615
20
86.729999000000007
10
-13.723750000000001
20
86.729999000000007
42
-0.41421356237309503
10
-14.223750000000003
20
87.229999000000021
10
-14.223750000000008
20
100.23000000000002
42
-0.41421356237309503
10
-13.723750000000001
20
100.73000000000002
0
LWPOLYLINE
5
456
100
AcDbEntity
8
0
100
AcDbPolyline
90
10
70
1
43
0.0
10
-18.837615
20
86.729999000000007
10
-18.809884
20
86.729999000000007
10
-18.32375
20
86.729999000000007
42
0.41421356237309503
10
-17.82375
20
87.229999000000021
10
-17.82375
20
100.23000000000002
42
0.41421356237309503
10
-18.32375
20
100.73
10
-19.32375
20
100.73000000000002
42
0.41421356237309115
10
-19.823748999999999
20
100.22999900000002
10
-19.823749000000003
20
87.229999000000021
42
0.41421356237309503
10
-19.323748999999999
20
86.729999000000007
0
LWPOLYLINE
5
457
100
AcDbEntity
8
0
100
AcDbPolyline
90
12
70
1
43
0.0
10
-25.630000000000003
20
48.630000000000003
10
-25.143865000000005
20
48.629998999999998
10
-25.129999000000005
20
48.629902999999999
10
-13.130000000000003
20
48.629902999999999
10
-13.116134000000002
20
48.629998999999998
10
-12.630000000000001
20
48.629998999999998
42
0.41421356237309503
10
-12.130000000000001
20
49.129998999999998
10
-12.130000000000001
20
62.13000000000001
42
0.41421356237309503
10
-12.630000000000001
20
62.63000000000001
10
-25.630000000000003
20
62.629999999999995
42
0.41421356237309503
10
-26.130001000000004
20
62.129998999999998
10
-26.129999999999999
20
49.130000000000003
42
0.41421356237309503
0
LWPOLYLINE
5
458
100
AcDbEntity
8
0
100
AcDbPolyline
90
10
70
1
43
0.0
10
-15.442500999999996
20
68.179999000000009
42
-0.41421356237309503
10
-15.942500000000003
20
67.679999999999993
10
-16.428633999999999
20
67.680000000000007
10
-16.456365000000002
20
67.680000000000007
10
-16.942499000000002
20
67.679999000000009
42
-0.41421356237309503
10
-17.442499000000002
20
68.179999000000009
10
-17.442500000000003
20
81.179997999999998
42
-0.41421356237309243
10
-16.942499999999999
20
81.679999999999993
10
-15.942500000000003
20
81.679998999999995
42
-0.41421356237309503
10
-15.442500000000001
20
81.179998999999995
0
LWPOLYLINE
5
459
100
AcDbEntity
8
0
100
AcDbPolyline
90
12
70
1
43
0.0
10
-21.655000999999999
20
68.179999000000009
10
-21.655000000000001
20
81.179998999999995
42
0.41421356237309503
10
-22.155000000000001
20
81.679998999999995
10
-35.155000000000001
20
81.679999999999993
42
0.41421356237308982
10
-35.655000000000001
20
81.179997999999998
10
-35.654998999999997
20
68.179999000000009
42
0.41421356237309503
10
-35.154999000000004
20
67.679998999999995
10
-34.668864999999997
20
67.680000000000007
10
-34.655000000000001
20
67.679902999999996
10
-22.655000000000001
20
67.679902999999996
10
-22.641134000000001
20
67.680000000000007
10
-22.155000000000001
20
67.679999999999993
42
0.41421356237309503
0
LWPOLYLINE
5
460
100
AcDbEntity
8
0
100
AcDbPolyline
90
12
70
1
43
0.0
10
-7.0800000000000018
20
62.129998999999998
42
-0.41421356237309503
10
-6.5799990000000008
20
62.629999999999995
10
6.419999999999999
20
62.63000000000001
42
-0.4142135623730957
10
6.9200000000000008
20
62.13000000000001
10
6.920001000000001
20
49.130000000000003
42
-0.41421356237309503
10
6.4199999999999999
20
48.629998999999998
10
5.9338660000000001
20
48.629998999999998
10
5.9199999999999999
20
48.629902999999999
10
-6.0800000000000018
20
48.629902999999999
10
-6.093865000000001
20
48.629998999999998
10
-6.5799990000000008
20
48.629998999999998
42
-0.41421356237309503
10
-7.080000000000001
20
49.130000000000003
0
LWPOLYLINE
5
461
100
AcDbEntity
8
0
100
AcDbPolyline
90
12
70
1
43
0.0
10
-11.342499999999999
20
67.679998999999995
10
-10.856365
20
67.680000000000007
10
-10.842499
20
67.679902999999996
10
1.1575
20
67.679902999999996
10
1.1713659999999999
20
67.680000000000007
10
1.6575000000000002
20
67.679999999999993
42
0.41421356237309342
10
2.1575000000000002
20
68.179997999999998
10
2.1574999999999998
20
81.179998999999995
42
0.4142135623730947
10
1.6575000000000006
20
81.679998999999995
10
-11.342499999999999
20
81.679999999999993
42
0.41421356237309503
10
-11.842501
20
81.179998999999995
10
-11.842500000000001
20
68.179999000000009
42
0.41421356237309503
0
LWPOLYLINE
5
462
100
AcDbEntity
8
0
100
AcDbPolyline
90
12
70
1
43
0.0
10
3.4517500000000001
20
107.27999800000001
10
3.4517500000000001
20
121.279999
42
0.41421356237309537
10
2.9517509999999989
20
121.77999800000002
10
-3.0482500000000003
20
121.77999900000002
42
0.41421356237309503
10
-3.5482499999999999
20
121.279999
10
-3.5482499999999999
20
107.279999
42
0.41421356237309503
10
-3.0482500000000003
20
106.77999900000002
10
-2.5621149999999999
20
106.78
10
-2.5482499999999995
20
106.77990300000002
10
2.4517500000000005
20
106.77990300000002
10
2.4656159999999998
20
106.78
10
2.9517500000000001
20
106.78
42
0.41421356237309825
0
LWPOLYLINE
5
463
100
AcDbEntity
8
0
100
AcDbPolyline
90
12
70
1
43
0.0
10
-17.986249000000001
20
105.77990300000002
10
-5.986250000000001
20
105.77990300000002
10
-5.9723840000000008
20
105.78000000000002
10
-5.4862500000000001
20
105.78
42
0.41421356237309892
10
-4.9862490000000008
20
106.279999
10
-4.9862500000000001
20
119.27999900000002
42
0.4142135623730957
10
-5.4862500000000018
20
119.779999
10
-18.486249999999998
20
119.77999900000002
42
0.41421356237309503
10
-18.986249999999998
20
119.27999900000002
10
-18.986249999999998
20
106.28
42
0.41421356237309503
10
-18.486249999999998
20
105.78000000000002
10
-18.000115000000001
20
105.78000000000002
0
LWPOLYLINE
5
464
100
AcDbEntity
8
0
100
AcDbPolyline
90
12
70
1
43
0.0
10
-21.424250000000001
20
106.77990300000002
10
-21.410384000000001
20
106.78
10
-20.924250000000001
20
106.78
42
0.41421356237309764
10
-20.424250000000001
20
107.27999800000001
10
-20.424250000000001
20
121.279999
42
0.41421356237309503
10
-20.924249000000003
20
121.77999800000002
10
-26.924250000000001
20
121.77999900000002
42
0.41421356237309503
10
-27.424250000000004
20
121.279999
10
-27.424250000000001
20
107.279999
42
0.41421356237309503
10
-26.924250000000001
20
106.77999900000002
10
-26.438115
20
106.78
10
-26.424250000000001
20
106.77990300000002
0
CIRCLE
5
465
100
AcDbEntity
8
0
100
AcDbCircle
10
-36.079999999999998
20
143.47000000000003
30
0
40
1.1000000000000001
210
-0
220
0
230
1
0
LWPOLYLINE
5
466
100
AcDbEntity
8
0
100
AcDbPolyline
90
8
70
1
43
0.0
10
-22.154999000000004
20
138.82999900000002
42
-0.41421356237309503
10
-21.655000000000001
20
138.33000000000001
10
-21.654998999999997
20
125.329998
42
-0.41421356237309764
10
-22.155000000000001
20
124.82999899999999
10
-35.154999000000004
20
124.82999899999999
42
-0.41421356237309503
10
-35.654998999999997
20
125.329999
10
-35.655000000000001
20
138.32999799999999
42
-0.41421356237308982
10
-35.155000000000001
20
138.82999999999998
0
LWPOLYLINE
5
467
100
AcDbEntity
8
0
100
AcDbPolyline
90
8
70
1
43
0.0
10
-39.8675
20
125.329999
10
-39.8675
20
138.33000000000001
42
0.41421356237309503
10
-40.367499000000002
20
138.82999899999999
10
-41.3675
20
138.82999999999998
42
0.41421356237309503
10
-41.867501000000004
20
138.32999899999999
10
-41.8675
20
125.329999
42
0.41421356237309503
10
-41.3675
20
124.82999900000002
10
-40.367500000000007
20
124.82999899999999
42
0.41421356237309503
0
LWPOLYLINE
5
468
100
AcDbEntity
8
0
100
AcDbPolyline
90
8
70
1
43
0.0
10
-65.067499999999995
20
138.33000000000001
42
-0.41421356237309503
10
-64.567499999999995
20
138.83000000000004
10
-63.56750000000001
20
138.83000000000004
42
-0.41421356237309503
10
-63.06750000000001
20
138.33000000000001
10
-63.067500000000003
20
125.329999
42
-0.41421356237309503
10
-63.56750000000001
20
124.82999899999999
10
-64.567499999999995
20
124.82999899999999
42
-0.41421356237309503
10
-65.067499999999995
20
125.329999
0
LWPOLYLINE
5
469
100
AcDbEntity
8
0
100
AcDbPolyline
90
8
70
1
43
0.0
10
-59.467500000000001
20
138.32999799999999
42
-0.4142135623730846
10
-58.967500000000008
20
138.82999999999998
10
-45.967500000000001
20
138.83000000000004
42
-0.41421356237309503
10
-45.467500000000001
20
138.33000000000001
10
-45.467499999999994
20
125.329999
42
-0.41421356237309503
10
-45.967500000000001
20
124.82999899999999
10
-58.967500000000008
20
124.82999899999999
42
-0.41421356237309503
10
-59.467500000000008
20
125.329999
0
CIRCLE
5
470
100
AcDbEntity
8
0
100
AcDbCircle
10
-113.34466399999999
20
134.256541
30
0
40
2.7999999999999998
210
-0
220
0
230
1
0
LINE
5
471
100
AcDbEntity
8
0
100
AcDbLine
10
-105.119664
20
133.68154100000001
30
0
11
-105.11969000000001
21
133.82752600000001
31
0
0
ARC
5
472
100
AcDbEntity
8
0
100
AcDbCircle
10
-105.31434000000002
20
133.82749100000001
30
0
40
0.19465000314667635
210
0
220
-0
230
1
100
AcDbArc
50
0.010302349129652204
51
168.92755754859272
0
ARC
5
473
100
AcDbEntity
8
0
100
AcDbCircle
10
-105.80717900000002
20
134.019375
30
0
40
0.33905973605000189
210
-0
220
0
230
1
100
AcDbArc
50
270.84340188323898
51
332.89153433435644
0
ARC
5
474
100
AcDbEntity
8
0
100
AcDbCircle
10
-108.71966399999999
20
132.98154099999999
30
0
40
3.0000001554089932
210
-0
220
0
230
1
100
AcDbArc
50
-68.405416889005764
51
13.470045541332876
0
LINE
5
475
100
AcDbEntity
8
0
100
AcDbLine
10
-107.61555400000013
20
130.19210700000031
30
0
11
-118.49263904359391
21
125.88675211013494
31
0
0
ARC
5
476
100
AcDbEntity
8
0
100
AcDbCircle
10
-118.676658
20
126.35165700000002
30
0
40
0.49999941350599142
210
0
220
0
230
1
100
AcDbArc
50
205.7999625258073
51
291.59468225931749
0
LINE
5
477
100
AcDbEntity
8
0
100
AcDbLine
10
-119.1268170000003
20
126.13404199999985
30
0
11
-120.5503840569643
21
129.07883197246221
31
0
0
ARC
5
478
100
AcDbEntity
8
0
100
AcDbCircle
10
-120.10022499999999
20
129.296448
30
0
40
0.49999997580200911
210
0
220
0
230
1
100
AcDbArc
50
120.00542682591249
51
205.80006569480909
0
LINE
5
479
100
AcDbEntity
8
0
100
AcDbLine
10
-120.35026600000002
20
129.72943699999999
30
0
11
-116.55225906325447
21
131.92269510953574
31
0
0
ARC
5
480
100
AcDbEntity
8
0
100
AcDbCircle
10
-116.30221800000001
20
131.48970600000001
30
0
40
0.5000002291250073
210
0
220
-0
230
1
100
AcDbArc
50
43.09183286568112
51
120.00542682592379
0
ARC
5
481
100
AcDbEntity
8
0
100
AcDbCircle
10
-113.34466399999999
20
134.256541
30
0
40
3.5499999659543056
210
0
220
0
230
1
100
AcDbArc
50
-136.90821941193246
51
15.988310187033015
0
ARC
5
482
100
AcDbEntity
8
0
100
AcDbCircle
10
-109.45132700000002
20
135.37207900000001
30
0
40
0.49999935767299952
210
0
220
0
230
1
100
AcDbArc
50
107.01753584531156
51
195.98844058206535
0
ARC
5
483
100
AcDbEntity
8
0
100
AcDbCircle
10
-108.71966399999999
20
132.98154099999999
30
0
40
3.0000001329830068
210
0
220
-0
230
1
100
AcDbArc
50
46.766754522960746
51
107.01757386395604
0
ARC
5
484
100
AcDbEntity
8
0
100
AcDbCircle
10
-106.32227
20
135.531541
30
0
40
0.49999958005148304
210
0
220
0
230
1
100
AcDbArc
50
226.76686417509617
51
270.00009898541788
0
LINE
5
485
100
AcDbEntity
8
0
100
AcDbLine
10
-106.32226913619
20
135.03154141994875
30
0
11
-106.26344600000144
21
135.03154112888302
31
0
0
ARC
5
486
100
AcDbEntity
8
0
100
AcDbCircle
10
-106.26344600000002
20
134.531541
30
0
40
0.50000025816899507
210
0
220
-0
230
1
100
AcDbArc
50
60.000017080307209
51
90.000000000162842
0
LINE
5
487
100
AcDbEntity
8
0
100
AcDbLine
10
-106.01344599999997
20
134.96455400000005
30
0
11
-105.98568900000001
21
134.94852800000001
31
0
0
ARC
5
488
100
AcDbEntity
8
0
100
AcDbCircle
10
-105.73568899999999
20
135.381541
30
0
40
0.5000002581689158
210
0
220
0
230
1
100
AcDbArc
50
240.00001708030678
51
270.00001708100893
0
LINE
5
489
100
AcDbEntity
8
0
100
AcDbLine
10
-105.73568885093999
20
134.88154074183103
30
0
11
-105.119664
21
134.881541
31
0
0
ARC
5
490
100
AcDbEntity
8
0
100
AcDbCircle
10
-105.119664
20
133.88154100000003
30
0
40
0.99999999999999645
210
0
220
0
230
1
100
AcDbArc
50
0
51
90
0
LINE
5
491
100
AcDbEntity
8
0
100
AcDbLine
10
-104.119664
20
133.88154100000003
30
0
11
-104.119664
21
133.68154100000001
31
0
0
ARC
5
492
100
AcDbEntity
8
0
100
AcDbCircle
10
-104.61966400000001
20
133.606945
30
0
40
0.50553393873803409
210
0
220
0
230
1
100
AcDbArc
50
-188.48548397831976
51
8.4854839783193565
0
ARC
5
493
100
AcDbEntity
8
0
100
AcDbCircle
10
-84.619664
20
133.606945
30
0
40
0.5055339387379989
210
0
220
0
230
1
100
AcDbArc
50
-188.48548397832053
51
8.4856043111757291
0
LINE
5
494
100
AcDbEntity
8
0
100
AcDbLine
10
-85.119663999999943
20
133.68154100000001
30
0
11
-85.119690000000006
21
133.82752600000001
31
0
0
ARC
5
495
100
AcDbEntity
8
0
100
AcDbCircle
10
-85.314340000000016
20
133.82749100000001
30
0
40
0.19465000314667635
210
0
220
-0
230
1
100
AcDbArc
50
0.010302349129652204
51
168.92730254516439
0
ARC
5
496
100
AcDbEntity
8
0
100
AcDbCircle
10
-85.807179000000019
20
134.019375
30
0
40
0.33905973604999673
210
-0
220
0
230
1
100
AcDbArc
50
270.84338777500682
51
332.89167503245136
0
ARC
5
497
100
AcDbEntity
8
0
100
AcDbCircle
10
-88.719663999999995
20
132.98154099999999
30
0
40
3.0000001554089932
210
-0
220
0
230
1
100
AcDbArc
50
-68.405416889005764
51
13.47004588988807
0
LINE
5
498
100
AcDbEntity
8
0
100
AcDbLine
10
-87.615554000000131
20
130.19210700000031
30
0
11
-98.492640117828003
21
125.88675181330001
31
0
0
ARC
5
499
100
AcDbEntity
8
0
100
AcDbCircle
10
-98.676658000000003
20
126.35165700000002
30
0
40
0.49999941350599142
210
0
220
0
230
1
100
AcDbArc
50
205.7999625258073
51
291.59455528244996
0
LINE
5
500
100
AcDbEntity
8
0
100
AcDbLine
10
-99.126817000000301
20
126.13404199999985
30
0
11
-100.55038428952001
21
129.07883230690001
31
0
0
ARC
5
501
100
AcDbEntity
8
0
100
AcDbCircle
10
-100.10022499999999
20
129.296448
30
0
40
0.49999997580200911
210
0
220
0
230
1
100
AcDbArc
50
120.00542682591249
51
205.80001959276879
0
LINE
5
502
100
AcDbEntity
8
0
100
AcDbLine
10
-100.35026600000002
20
129.72943699999999
30
0
11
-96.552259308957019
21
131.92269511410001
31
0
0
ARC
5
503
100
AcDbEntity
8
0
100
AcDbCircle
10
-96.302218000000011
20
131.48970600000001
30
0
40
0.5000002291249952
210
0
220
-0
230
1
100
AcDbArc
50
43.09183286568112
51
120.00545094634782
0
ARC
5
504
100
AcDbEntity
8
0
100
AcDbCircle
10
-93.344663999999995
20
134.256541
30
0
40
3.5499999659543175
210
0
220
0
230
1
100
AcDbArc
50
-136.90821941193246
51
15.988333011093149
0
ARC
5
505
100
AcDbEntity
8
0
100
AcDbCircle
10
-89.451327000000006
20
135.37207900000001
30
0
40
0.49999935767299603
210
0
220
0
230
1
100
AcDbArc
50
107.0174852621076
51
195.98827853117155
0
ARC
5
506
100
AcDbEntity
8
0
100
AcDbCircle
10
-88.719663999999995
20
132.98154099999999
30
0
40
3.0000001329830068
210
0
220
-0
230
1
100
AcDbArc
50
46.766754522960746
51
107.01756543343232
0
ARC
5
507
100
AcDbEntity
8
0
100
AcDbCircle
10
-86.322270000000003
20
135.531541
30
0
40
0.49999958005148304
210
0
220
0
230
1
100
AcDbArc
50
226.76686417509617
51
270.00000000016121
0
LINE
5
508
100
AcDbEntity
8
0
100
AcDbLine
10
-86.322269999998596
20
135.03154141994801
30
0
11
-86.263446149054005
21
135.03154125809999
31
0
0
ARC
5
509
100
AcDbEntity
8
0
100
AcDbCircle
10
-86.263446000000016
20
134.531541
30
0
40
0.50000025816899507
210
0
220
-0
230
1
100
AcDbArc
50
60.000017080307209
51
90.000017080320134
0
LINE
5
510
100
AcDbEntity
8
0
100
AcDbLine
10
-86.013445999999973
20
134.96455400000005
30
0
11
-85.985689000000008
21
134.94852800000001
31
0
0
ARC
5
511
100
AcDbEntity
8
0
100
AcDbCircle
10
-85.735688999999994
20
135.381541
30
0
40
0.5000002581689158
210
0
220
0
230
1
100
AcDbArc
50
240.00001708030678
51
270
0
LINE
5
512
100
AcDbEntity
8
0
100
AcDbLine
10
-85.735688999999994
20
134.881540741831
30
0
11
-85.119664
21
134.881541
31
0
0
ARC
5
513
100
AcDbEntity
8
0
100
AcDbCircle
10
-85.119664
20
133.88154100000003
30
0
40
0.99999999999999645
210
0
220
0
230
1
100
AcDbArc
50
0
51
90
0
LINE
5
514
100
AcDbEntity
8
0
100
AcDbLine
10
-84.119664
20
133.88154100000003
30
0
11
-84.119664156667994
21
133.68154205010211
31
0
0
CIRCLE
5
515
100
AcDbEntity
8
0
100
AcDbCircle
10
-93.344663999999995
20
134.256541
30
0
40
2.7999999999999998
210
-0
220
0
230
1
0
LWPOLYLINE
5
516
100
AcDbEntity
8
0
100
AcDbPolyline
90
8
70
1
43
0.0
10
-79.780000999999004
20
137.33000000000382
42
-0.41421297658570627
10
-79.280000000000001
20
137.82999999999998
10
-73.280000000000001
20
137.83000000000101
42
-0.4142129765879331
10
-72.779999000000004
20
137.33000000000001
10
-72.780000000000015
20
123.33
42
-0.4142147339487916
10
-73.280000000000001
20
122.83000000000001
10
-79.280000000000001
20
122.829999000001
42
-0.4142129765879487
10
-79.780000000000001
20
123.33
0
CIRCLE
5
517
100
AcDbEntity
8
0
100
AcDbCircle
10
-133.41999999999999
20
143.46000000000001
30
0
40
1.1000000000000001
210
-0
220
0
230
1
0
LWPOLYLINE
5
518
100
AcDbEntity
8
0
100
AcDbPolyline
90
8
70
1
43
0.0
10
-126.43000000000001
20
125.329999
10
-126.43000000000001
20
138.33000000000001
42
0.41421356237307422
10
-126.930001
20
138.82999899999999
10
-139.93000000000001
20
138.82999999999998
42
0.4142135623730846
10
-140.43000000000001
20
138.32999799999999
10
-140.43000000000004
20
125.329999
42
0.41421356237309503
10
-139.93000000000001
20
124.82999900000002
10
-126.93000000000001
20
124.82999899999999
42
0.41421356237309503
0
LWPOLYLINE
5
519
100
AcDbEntity
8
0
100
AcDbPolyline
90
8
70
1
43
0.0
10
-254.23000000000002
20
124.82999899999999
42
-0.41421356237309503
10
-254.73000000000002
20
125.329999
10
-254.73000100000002
20
138.32999899999999
42
-0.41421356237309503
10
-254.23000000000002
20
138.82999999999998
10
-241.23000099999999
20
138.82999899999999
42
-0.41421356237306384
10
-240.73000000000002
20
138.33000000000001
10
-240.72999899999999
20
125.33000000000001
42
-0.41421356237309503
10
-241.23000000000002
20
124.82999900000002
0
CIRCLE
5
520
100
AcDbEntity
8
0
100
AcDbCircle
10
-230.78000000000003
20
143.46000000000001
30
0
40
1.1000000000000001
210
-0
220
0
230
1
0
LWPOLYLINE
5
521
100
AcDbEntity
8
0
100
AcDbPolyline
90
8
70
1
43
0.0
10
-225.492501
20
138.82999899999999
10
-226.49250000000001
20
138.83000000000004
42
0.41421356237309503
10
-226.992501
20
138.32999899999999
10
-226.99250000000004
20
125.329999
42
0.41421356237309503
10
-226.49250000000001
20
124.82999900000002
10
-225.49250000000001
20
124.82999900000002
42
0.41421356237309503
10
-224.99249900000001
20
125.33000000000001
10
-224.99250000000001
20
138.33000000000001
42
0.4142135623730846
0
LWPOLYLINE
5
522
100
AcDbEntity
8
0
100
AcDbPolyline
90
8
70
1
43
0.0
10
-187.08000000000001
20
123.33
10
-187.08000000000001
20
137.33000000000001
42
0.41421356237309503
10
-187.58000000000004
20
137.83000000000001
10
-193.58000000000004
20
137.83000000000004
42
0.41421356237309503
10
-194.08000000000001
20
137.33000000000001
10
-194.08000000000004
20
123.33
42
0.41421356237310542
10
-193.58000100000001
20
122.829999
10
-187.58000000000004
20
122.83
42
0.41421356237309503
0
LWPOLYLINE
5
523
100
AcDbEntity
8
0
100
AcDbPolyline
90
8
70
1
43
0.0
10
-202.29250000000002
20
138.83000000000004
42
-0.41421356237309503
10
-201.79249999999999
20
138.33000000000001
10
-201.79249900000002
20
125.33000000000001
42
-0.41421356237309503
10
-202.29250000000002
20
124.82999900000002
10
-203.29250000000002
20
124.82999899999999
42
-0.41421356237309503
10
-203.79250000000002
20
125.329999
10
-203.79250000000002
20
138.33000000000001
42
-0.41421356237309503
10
-203.29250000000002
20
138.83000000000004
0
LWPOLYLINE
5
524
100
AcDbEntity
8
0
100
AcDbPolyline
90
8
70
1
43
0.0
10
-207.39249900000002
20
125.33000000000001
10
-207.39250000000001
20
138.33000000000001
42
0.4142135623730846
10
-207.89250100000004
20
138.82999899999999
10
-220.89250000000004
20
138.82999999999998
42
0.41421356237309503
10
-221.39250100000001
20
138.32999899999999
10
-221.39250000000004
20
125.329999
42
0.41421356237309503
10
-220.89250000000004
20
124.82999900000002
10
-207.89250000000004
20
124.82999900000002
42
0.41421356237309503
0
LINE
5
525
100
AcDbEntity
8
0
100
AcDbLine
10
-150.30774000000002
20
131.92269500000003
30
0
11
-146.50973271509
21
129.72943668869999
31
0
0
ARC
5
526
100
AcDbEntity
8
0
100
AcDbCircle
10
-146.75977399999999
20
129.296448
30
0
40
0.49999984873700809
210
-0
220
0
230
1
100
AcDbArc
50
-25.80006569480204
51
59.994527062279623
0
LINE
5
527
100
AcDbEntity
8
0
100
AcDbLine
10
-146.30961499999998
20
129.07883199999998
30
0
11
-147.73318226808999
21
126.1340408988
31
0
0
ARC
5
528
100
AcDbEntity
8
0
100
AcDbCircle
10
-148.18334100000001
20
126.35165700000002
30
0
40
0.49999965138599456
210
0
220
0
230
1
100
AcDbArc
50
248.40531774065886
51
334.19991049379013
0
LINE
5
529
100
AcDbEntity
8
0
100
AcDbLine
10
-148.36736000000005
20
125.8867519999999
30
0
11
-159.24444562956
21
130.19210687419999
31
0
0
ARC
5
530
100
AcDbEntity
8
0
100
AcDbCircle
10
-158.14033499999999
20
132.98154099999999
30
0
40
3.0000005040489901
210
0
220
0
230
1
100
AcDbArc
50
166.52995786356456
51
248.40540659347147
0
ARC
5
531
100
AcDbEntity
8
0
100
AcDbCircle
10
-161.05282
20
134.019375
30
0
40
0.33905994450800919
210
0
220
0
230
1
100
AcDbArc
50
207.108346711574
51
269.15656360504056
0
ARC
5
532
100
AcDbEntity
8
0
100
AcDbCircle
10
-161.545659
20
133.82749100000001
30
0
40
0.19464948334155227
210
0
220
-0
230
1
100
AcDbArc
50
11.072614068563345
51
179.98969765094111
0
LINE
5
533
100
AcDbEntity
8
0
100
AcDbLine
10
-161.74030848019439
20
133.8275259999063
30
0
11
-161.74033515668
21
133.68154205010001
31
0
0
ARC
5
534
100
AcDbEntity
8
0
100
AcDbCircle
10
-162.24033500000002
20
133.606945
30
0
40
0.50553393873801655
210
0
220
0
230
1
100
AcDbArc
50
-188.48548397832002
51
8.4856043111405501
0
LINE
5
535
100
AcDbEntity
8
0
100
AcDbLine
10
-162.74033499999999
20
133.68154100000001
30
0
11
-162.74033499999999
21
133.88154100000003
31
0
0
ARC
5
536
100
AcDbEntity
8
0
100
AcDbCircle
10
-161.74033500000002
20
133.88154100000003
30
0
40
0.99999999999999645
210
0
220
-0
230
1
100
AcDbArc
50
90
51
180
0
LINE
5
537
100
AcDbEntity
8
0
100
AcDbLine
10
-161.74033500000002
20
134.881541
30
0
11
-161.12431000000001
21
134.881541
31
0
0
ARC
5
538
100
AcDbEntity
8
0
100
AcDbCircle
10
-161.12431000000001
20
135.381541
30
0
40
0.49999999999998934
210
0
220
0
230
1
100
AcDbArc
50
270
51
299.99998291982132
0
LINE
5
539
100
AcDbEntity
8
0
100
AcDbLine
10
-160.87431012908343
20
134.94852822358146
30
0
11
-160.84655300000003
21
134.96455370180001
31
0
0
ARC
5
540
100
AcDbEntity
8
0
100
AcDbCircle
10
-160.596553
20
134.531541
30
0
40
0.50000000000000711
210
0
220
-0
230
1
100
AcDbArc
50
90
51
120.00000000528604
0
LINE
5
541
100
AcDbEntity
8
0
100
AcDbLine
10
-160.596553
20
135.031541
30
0
11
-160.53772900000001
21
135.031541
31
0
0
ARC
5
542
100
AcDbEntity
8
0
100
AcDbCircle
10
-160.53772900000001
20
135.531541
30
0
40
0.49999999999998934
210
0
220
0
230
1
100
AcDbArc
50
270
51
313.23318640354478
0
ARC
5
543
100
AcDbEntity
8
0
100
AcDbCircle
10
-158.14033499999999
20
132.98154099999999
30
0
40
2.999999892674992
210
0
220
-0
230
1
100
AcDbArc
50
72.982408739716263
51
133.23323704728071
0
ARC
5
544
100
AcDbEntity
8
0
100
AcDbCircle
10
-157.408672
20
135.37207900000001
30
0
40
0.49999918680399469
210
-0
220
0
230
1
100
AcDbArc
50
-15.988382901230104
51
72.982359776588737
0
ARC
5
545
100
AcDbEntity
8
0
100
AcDbCircle
10
-153.51533499999999
20
134.256541
30
0
40
3.5500005693707233
210
0
220
0
230
1
100
AcDbArc
50
164.01168168889819
51
316.90821601449636
0
ARC
5
546
100
AcDbEntity
8
0
100
AcDbCircle
10
-150.55778100000001
20
131.48970600000001
30
0
40
0.49999997580200023
210
0
220
-0
230
1
100
AcDbArc
50
59.994573174093389
51
136.90819125607192
0
CIRCLE
5
547
100
AcDbEntity
8
0
100
AcDbCircle
10
-153.51533499999999
20
134.256541
30
0
40
2.7999999999999998
210
-0
220
0
230
1
0
CIRCLE
5
548
100
AcDbEntity
8
0
100
AcDbCircle
10
-173.51533499999999
20
134.256541
30
0
40
2.7999999999999998
210
-0
220
0
230
1
0
LINE
5
549
100
AcDbEntity
8
0
100
AcDbLine
10
-181.74030874045289
20
133.82752599995308
30
0
11
-181.74033515668
21
133.68154205010001
31
0
0
ARC
5
550
100
AcDbEntity
8
0
100
AcDbCircle
10
-182.24033500000002
20
133.606945
30
0
40
0.50553393873801655
210
0
220
0
230
1
100
AcDbArc
50
-188.48548397832002
51
8.4856043111405501
0
LINE
5
551
100
AcDbEntity
8
0
100
AcDbLine
10
-182.74033499999999
20
133.68154100000001
30
0
11
-182.74033499999999
21
133.88154100000003
31
0
0
ARC
5
552
100
AcDbEntity
8
0
100
AcDbCircle
10
-181.74033500000002
20
133.88154100000003
30
0
40
0.99999999999999645
210
0
220
-0
230
1
100
AcDbArc
50
90
51
180
0
LINE
5
553
100
AcDbEntity
8
0
100
AcDbLine
10
-181.74033500000002
20
134.881541
30
0
11
-181.12431000000001
21
134.881541
31
0
0
ARC
5
554
100
AcDbEntity
8
0
100
AcDbCircle
10
-181.12431000000001
20
135.381541
30
0
40
0.49999999999998934
210
0
220
0
230
1
100
AcDbArc
50
270
51
299.99998291982132
0
LINE
5
555
100
AcDbEntity
8
0
100
AcDbLine
10
-180.87431012908343
20
134.94852822358146
30
0
11
-180.84655300000003
21
134.96455370180001
31
0
0
ARC
5
556
100
AcDbEntity
8
0
100
AcDbCircle
10
-180.596553
20
134.531541
30
0
40
0.50000000000000711
210
0
220
-0
230
1
100
AcDbArc
50
90
51
120.00000000528604
0
LINE
5
557
100
AcDbEntity
8
0
100
AcDbLine
10
-180.596553
20
135.031541
30
0
11
-180.53772900000001
21
135.031541
31
0
0
ARC
5
558
100
AcDbEntity
8
0
100
AcDbCircle
10
-180.53772900000001
20
135.531541
30
0
40
0.49999999999998934
210
0
220
0
230
1
100
AcDbArc
50
270
51
313.23318640354478
0
ARC
5
559
100
AcDbEntity
8
0
100
AcDbCircle
10
-178.14033499999999
20
132.98154099999999
30
0
40
2.9999998926750027
210
0
220
-0
230
1
100
AcDbArc
50
72.982408739715737
51
133.23323704728071
0
ARC
5
560
100
AcDbEntity
8
0
100
AcDbCircle
10
-177.408672
20
135.37207900000001
30
0
40
0.49999918680401179
210
-0
220
0
230
1
100
AcDbArc
50
-15.988382901230104
51
72.982359776585625
0
ARC
5
561
100
AcDbEntity
8
0
100
AcDbCircle
10
-173.51533499999999
20
134.256541
30
0
40
3.5500005693707233
210
0
220
0
230
1
100
AcDbArc
50
164.01168168889819
51
316.90821601449568
0
ARC
5
562
100
AcDbEntity
8
0
100
AcDbCircle
10
-170.55778100000001
20
131.48970600000001
30
0
40
0.49999997580200023
210
0
220
-0
230
1
100
AcDbArc
50
59.994573174093389
51
136.90819125607666
0
LINE
5
563
100
AcDbEntity
8
0
100
AcDbLine
10
-170.30774000000002
20
131.92269500000003
30
0
11
-166.50973271509
21
129.72943668869999
31
0
0
ARC
5
564
100
AcDbEntity
8
0
100
AcDbCircle
10
-166.75977399999999
20
129.296448
30
0
40
0.49999984873700809
210
-0
220
0
230
1
100
AcDbArc
50
-25.80006569480204
51
59.994527062279623
0
LINE
5
565
100
AcDbEntity
8
0
100
AcDbLine
10
-166.30961499999998
20
129.07883199999998
30
0
11
-167.73318226808999
21
126.1340408988
31
0
0
ARC
5
566
100
AcDbEntity
8
0
100
AcDbCircle
10
-168.18334100000001
20
126.35165700000002
30
0
40
0.49999965138600455
210
0
220
0
230
1
100
AcDbArc
50
248.4053177406625
51
334.19991049379013
0
LINE
5
567
100
AcDbEntity
8
0
100
AcDbLine
10
-168.36736000000002
20
125.88675199999989
30
0
11
-179.24444562956
21
130.19210687419999
31
0
0
ARC
5
568
100
AcDbEntity
8
0
100
AcDbCircle
10
-178.14033499999999
20
132.98154099999999
30
0
40
3.0000005040489901
210
0
220
0
230
1
100
AcDbArc
50
166.52995786356456
51
248.40540659347147
0
ARC
5
569
100
AcDbEntity
8
0
100
AcDbCircle
10
-181.05282
20
134.019375
30
0
40
0.33905994450800919
210
0
220
0
230
1
100
AcDbArc
50
207.108346711574
51
269.15656360504056
0
ARC
5
570
100
AcDbEntity
8
0
100
AcDbCircle
10
-181.545659
20
133.82749100000001
30
0
40
0.19464948334155227
210
0
220
-0
230
1
100
AcDbArc
50
11.072614068563345
51
179.98969765094111
0
LWPOLYLINE
5
571
100
AcDbEntity
8
0
100
AcDbPolyline
90
8
70
1
43
0.0
10
-11.342499999999999
20
124.82999900000002
10
1.6575000000000002
20
124.82999900000002
42
0.41421356237309859
10
2.1575009999999999
20
125.329998
10
2.1575000000000002
20
138.33000000000001
42
0.41421356237307777
10
1.6574990000000001
20
138.82999899999999
10
-11.342499999999999
20
138.82999999999998
42
0.41421356237309243
10
-11.842500000000001
20
138.32999799999999
10
-11.842500000000001
20
125.329999
42
0.41421356237309503
0
ARC
5
572
100
AcDbEntity
8
0
100
AcDbCircle
10
-15.942499000000002
20
138.33000000000001
30
0
40
0.49999899999999986
210
0
220
0
230
1
100
AcDbArc
50
0
51
90.000114591788332
0
LINE
5
573
100
AcDbEntity
8
0
100
AcDbLine
10
-15.442500000000001
20
138.33000000000001
30
0
11
-15.442500000000001
21
125.329999
31
0
0
ARC
5
574
100
AcDbEntity
8
0
100
AcDbCircle
10
-15.942500000000003
20
125.329999
30
0
40
0.50000000000000711
210
0
220
0
230
1
100
AcDbArc
50
-90
51
0
0
LINE
5
575
100
AcDbEntity
8
0
100
AcDbLine
10
-15.942500000000003
20
124.82999899999999
30
0
11
-16.942500000000916
21
124.83000049977088
31
0
0
ARC
5
576
100
AcDbEntity
8
0
100
AcDbCircle
10
-16.942499999999999
20
125.33000000000001
30
0
40
0.49999900000099984
210
0
220
0
230
1
100
AcDbArc
50
180.00011459029153
51
269.99999999989495
0
LINE
5
577
100
AcDbEntity
8
0
100
AcDbLine
10
-17.442499000000002
20
125.329999
30
0
11
-17.442500000000003
21
138.33000000000001
31
0
0
ARC
5
578
100
AcDbEntity
8
0
100
AcDbCircle
10
-16.942499000000002
20
138.32999899999999
30
0
40
0.50000100000100101
210
0
220
0
230
1
100
AcDbArc
50
90.000114591329563
51
179.9998854097085
0
LINE
5
579
100
AcDbEntity
8
0
100
AcDbLine
10
-16.942499999999999
20
138.82999999999998
30
0
11
-15.942500000000003
21
138.82999899999902
31
0
0
LWPOLYLINE
5
580
100
AcDbEntity
8
0
100
AcDbPolyline
90
8
70
1
43
0.0
10
-292.32999999999998
20
124.82999899999999
42
-0.41421356237309503
10
-292.83000000000004
20
125.329999
10
-292.83000000000004
20
138.33000000000001
42
-0.41421356237309503
10
-292.32999999999998
20
138.83000000000004
10
-279.33000100000004
20
138.82999899999999
42
-0.4142135623730846
10
-278.82999999999998
20
138.33000000000001
10
-278.82999900000004
20
125.33000000000001
42
-0.41421356237309503
10
-279.32999999999998
20
124.82999900000002
0
LWPOLYLINE
5
581
100
AcDbEntity
8
0
100
AcDbPolyline
90
12
70
1
43
0.0
10
-279.81613400000003
20
105.78000000000002
10
-279.32999999999998
20
105.78000000000002
42
0.41421356237309503
10
-278.82999999999998
20
106.28
10
-278.82999999999998
20
119.27999900000002
42
0.4142135623730846
10
-279.32999899999999
20
119.78000000000002
10
-292.32999999999998
20
119.77999900000002
42
0.41421356237309503
10
-292.83000000000004
20
119.27999900000002
10
-292.83000000000004
20
106.28
42
0.41421356237310542
10
-292.33000099999998
20
105.77999900000002
10
-291.84386500000005
20
105.78000000000002
10
-291.82999999999998
20
105.77990300000002
10
-279.82999999999998
20
105.77990300000002
0
LWPOLYLINE
5
582
100
AcDbEntity
8
0
100
AcDbPolyline
90
12
70
1
43
0.0
10
-272.77999999999997
20
105.77990300000002
10
-260.77999999999997
20
105.77990300000002
10
-260.76613400000002
20
105.78000000000002
10
-260.27999999999997
20
105.78
42
0.41421356237309503
10
-259.77999999999997
20
106.28
10
-259.77999999999997
20
119.27999900000002
42
0.4142135623730846
10
-260.27999899999998
20
119.78000000000002
10
-273.27999999999997
20
119.77999900000002
42
0.41421356237309503
10
-273.77999999999997
20
119.27999900000002
10
-273.77999999999997
20
106.28
42
0.41421356237306384
10
-273.28000100000003
20
105.77999900000002
10
-272.79386499999998
20
105.78000000000002
0
LWPOLYLINE
5
583
100
AcDbEntity
8
0
100
AcDbPolyline
90
8
70
1
43
0.0
10
-259.77999899999998
20
125.33000000000001
42
-0.41421356237309503
10
-260.27999999999997
20
124.82999900000002
10
-273.27999999999997
20
124.82999899999999
42
-0.41421356237309503
10
-273.77999999999997
20
125.329999
10
-273.77999999999997
20
138.33000000000001
42
-0.41421356237309503
10
-273.27999999999997
20
138.83000000000004
10
-260.28000100000003
20
138.82999899999999
42
-0.41421356237310542
10
-259.77999999999997
20
138.33000000000001
0
LWPOLYLINE
5
584
100
AcDbEntity
8
0
100
AcDbPolyline
90
10
70
1
43
0.0
10
-273.63136500000002
20
67.680000000000007
10
-273.603634
20
67.680000000000007
10
-273.11750000000006
20
67.680000000000021
42
0.41421356237309503
10
-272.61750000000001
20
68.180000000000007
10
-272.61750000000001
20
81.179998999999995
42
0.41421356237309503
10
-273.11749900000001
20
81.680000000000007
10
-274.11750000000001
20
81.679999999999993
42
0.41421356237310542
10
-274.61750000000001
20
81.179997999999998
10
-274.61750000000001
20
68.179999000000009
42
0.41421356237307422
10
-274.11749900000007
20
67.680000000000007
0
LWPOLYLINE
5
585
100
AcDbEntity
8
0
100
AcDbPolyline
90
12
70
1
43
0.0
10
-292.83000099999998
20
81.179998999999995
10
-292.83000000000004
20
68.179999000000009
42
0.41421356237309503
10
-292.32999999999998
20
67.679998999999995
10
-291.84386500000005
20
67.680000000000007
10
-291.82999999999998
20
67.679902999999996
10
-279.82999999999998
20
67.679902999999996
10
-279.81613400000003
20
67.680000000000007
10
-279.32999999999998
20
67.680000000000021
42
0.41421356237309503
10
-278.82999999999998
20
68.180000000000007
10
-278.82999999999998
20
81.179998999999995
42
0.41421356237309503
10
-279.32999899999999
20
81.680000000000007
10
-292.32999999999998
20
81.679999999999993
42
0.41421356237309503
0
LWPOLYLINE
5
586
100
AcDbEntity
8
0
100
AcDbPolyline
90
12
70
1
43
0.0
10
-278.82999900000004
20
87.230000000000004
42
-0.41421356237309503
10
-279.32999999999998
20
86.729999000000007
10
-279.81613400000003
20
86.729999000000007
10
-279.82999999999998
20
86.729903000000007
10
-291.82999999999998
20
86.729903000000007
10
-291.84386500000005
20
86.729999000000007
10
-292.32999999999998
20
86.729999000000007
42
-0.41421356237309503
10
-292.83000000000004
20
87.229999000000021
10
-292.83000100000004
20
100.22999900000002
42
-0.41421356237309503
10
-292.32999999999998
20
100.73000000000002
10
-279.32999999999998
20
100.73000000000002
42
-0.41421356237309503
10
-278.82999999999998
20
100.23000000000002
0
LWPOLYLINE
5
587
100
AcDbEntity
8
0
100
AcDbPolyline
90
12
70
1
43
0.0
10
-268.51749900000004
20
67.680000000000007
42
-0.41421356237307422
10
-269.01749999999998
20
68.179999000000009
10
-269.01749999999998
20
81.179997999999998
42
-0.41421356237310542
10
-268.51749999999998
20
81.679999999999993
10
-255.51749799999999
20
81.680000000000007
42
-0.41421356237309503
10
-255.01749899999999
20
81.179998999999995
10
-255.01749899999999
20
68.180000000000007
42
-0.41421356237309503
10
-255.51749900000002
20
67.680000000000021
10
-256.00363399999998
20
67.680000000000007
10
-256.01749900000004
20
67.679902999999996
10
-268.01749999999998
20
67.679902999999996
10
-268.03136499999999
20
67.680000000000007
0
LWPOLYLINE
5
588
100
AcDbEntity
8
0
100
AcDbPolyline
90
12
70
1
43
0.0
10
-263.31175000000002
20
88.230000000000004
10
-263.31175000000002
20
102.23
42
0.41421356237309503
10
-263.81175000000002
20
102.73000000000002
10
-269.81175000000002
20
102.73000000000002
42
0.41421356237309503
10
-270.31175100000002
20
102.22999900000002
10
-270.31175000000007
20
88.230000000000004
42
0.41421356237310542
10
-269.81175100000002
20
87.729999000000007
10
-269.32561500000008
20
87.730000000000018
10
-269.31175000000002
20
87.729903000000007
10
-264.31175000000002
20
87.729903000000007
10
-264.29788400000001
20
87.730000000000018
10
-263.81175000000002
20
87.72999999999999
42
0.41421356237309503
0
LWPOLYLINE
5
589
100
AcDbEntity
8
0
100
AcDbPolyline
90
12
70
1
43
0.0
10
-292.83000099999998
20
62.129998999999998
10
-292.83000000000004
20
49.130000000000003
42
0.41421356237311063
10
-292.33000099999998
20
48.629998999999998
10
-291.84386500000005
20
48.629998999999998
10
-291.82999999999998
20
48.629902999999999
10
-279.82999999999998
20
48.629902999999999
10
-279.81613400000003
20
48.629998999999998
10
-279.32999999999998
20
48.629998999999998
42
0.41421356237309503
10
-278.82999900000004
20
49.130000000000003
10
-278.82999999999998
20
62.13000000000001
42
0.41421356237309503
10
-279.32999999999998
20
62.63000000000001
10
-292.32999999999998
20
62.629999999999995
42
0.41421356237309503
0
CIRCLE
5
590
100
AcDbEntity
8
0
100
AcDbCircle
10
-285.82999999999998
20
44
30
0
40
1.1000000000000001
210
-0
220
0
230
1
0
CIRCLE
5
591
100
AcDbEntity
8
0
100
AcDbCircle
10
-285.83999999999997
20
143.46000000000001
30
0
40
1.1000000000000001
210
-0
220
0
230
1
0
ENDSEC
0
SECTION
2
OBJECTS
0
DICTIONARY
5
C
100
AcDbDictionary
3
ACAD_GROUP
350
D
3
ACAD_MLINESTYLE
350
17
0
DICTIONARY
5
D
100
AcDbDictionary
0
DICTIONARY
5
1A
330
C
100
AcDbDictionary
0
DICTIONARY
5
17
100
AcDbDictionary
0
ENDSEC
0
EOF
