0
SECTION
2
HEADER
9
$INSUNITS
70
4
9
$ACADVER
1
AC1014
9
$HANDSEED
5
FFFF
0
ENDSEC
0
SECTION
2
TABLES
0
TABLE
2
VPORT
5
8
100
AcDbSymbolTable
0
ENDTAB
0
TABLE
2
LTYPE
5
5
100
AcDbSymbolTable
0
LTYPE
5
14
100
AcDbSymbolTableRecord
100
AcDbLinetypeTableRecord
2
BYBLOCK
70
0
0
LTYPE
5
15
100
AcDbSymbolTableRecord
100
AcDbLinetypeTableRecord
2
BYLAYER
70
0
0
LTYPE
5
16
100
AcDbSymbolTableRecord
100
AcDbLinetypeTableRecord
2
DASHED
70
0
3
Dashed __ __ __ __ __ __ __ __ __ __ __ __ __ _
72
65
73
2
40
0.75
49
0.5
74
0
49
-0.25
74
0
0
ENDTAB
0
TABLE
2
LAYER
5
2
100
AcDbSymbolTable
70
3
0
LAYER
5
50
100
AcDbSymbolTableRecord
100
AcDbLayerTableRecord
2
1
70
0
62
7
6
DASHED
0
LAYER
5
51
100
AcDbSymbolTableRecord
100
AcDbLayerTableRecord
2
0
70
0
62
7
6
CONTINUOUS
0
ENDTAB
0
TABLE
2
STYLE
5
3
100
AcDbSymbolTable
70
1
0
STYLE
5
11
100
AcDbSymbolTableRecord
100
AcDbTextStyleTableRecord
2
STANDARD
70
0
0
ENDTAB
0
TABLE
2
VIEW
5
6
100
AcDbSymbolTable
70
0
0
ENDTAB
0
TABLE
2
UCS
5
7
100
AcDbSymbolTable
70
0
0
ENDTAB
0
TABLE
2
APPID
5
9
100
AcDbSymbolTable
70
2
0
APPID
5
12
100
AcDbSymbolTableRecord
100
AcDbRegAppTableRecord
2
ACAD
70
0
0
ENDTAB
0
TABLE
2
DIMSTYLE
5
A
100
AcDbSymbolTable
70
1
0
ENDTAB
0
TABLE
2
BLOCK_RECORD
5
1
100
AcDbSymbolTable
70
1
0
BLOCK_RECORD
5
1F
100
AcDbSymbolTableRecord
100
AcDbBlockTableRecord
2
*MODEL_SPACE
0
BLOCK_RECORD
5
1B
100
AcDbSymbolTableRecord
100
AcDbBlockTableRecord
2
*PAPER_SPACE
0
ENDTAB
0
ENDSEC
0
SECTION
2
BLOCKS
0
BLOCK
5
20
100
AcDbEntity
100
AcDbBlockBegin
2
*MODEL_SPACE
0
ENDBLK
5
21
100
AcDbEntity
100
AcDbBlockEnd
0
BLOCK
5
1C
100
AcDbEntity
100
AcDbBlockBegin
2
*PAPER_SPACE
0
ENDBLK
5
1D
100
AcDbEntity
100
AcDbBlockEnd
0
ENDSEC
0
SECTION
2
ENTITIES
0
LWPOLYLINE
5
100
100
AcDbEntity
8
0
100
AcDbPolyline
90
60
70
1
43
0.0
10
-30.193750000000005
20
118.75300000000001
42
0.41421356237309503
10
-30.693750000000005
20
119.25300000000001
10
-33.100000000000009
20
119.253
42
-0.41421356237309503
10
-36.100000000000001
20
122.25300000000001
42
1.0000001431209897
10
-42.100000000000122
20
122.253000858479
42
-0.41421364618732287
10
-45.100000000000009
20
119.253
10
-91.631249991555407
20
119.253
42
-0.41421360784808725
10
-94.631249991555379
20
122.253000465784
42
1.0000000774287077
10
-100.63124999155613
20
122.25300093156801
42
-0.41421364618732287
10
-103.63124999155602
20
119.253000073089
10
-139.256125455709
20
119.253000303798
42
-0.41421356494655276
10
-142.256125482068
20
122.253000303798
42
0.9999999925494194
10
-148.256125482068
20
122.25300025107801
42
-0.41421356494665174
10
-151.25612545570903
20
119.253000198359
10
-172.33125001318001
20
119.2530000131798
42
0.41421355979954011
10
-173.83125000000001
20
117.75300001318001
10
-173.83125000000004
20
1.4999999999999503
42
0.41421356237309509
10
-172.33125000000001
20
-5.0237591864288333e-14
10
-151.256125
20
-4.3298697960381105e-14
42
-0.414213563394361
10
-148.256125
20
-3.0000000104605107
42
0.99999999999999989
10
-142.256125
20
-3.000000000000052
42
-0.41421356237309515
10
-139.256125
20
-4.9960036108132044e-14
10
-92.918000000000006
20
-3.3306690738754696e-14
42
-0.41421356237309503
10
-89.917999999999992
20
-3.0000000000000404
42
0.99999999999999989
10
-83.918000000000021
20
-3.0000000000000417
42
-0.41421356237309509
10
-80.918000000000006
20
-3.9968028886505635e-14
10
24.956624999999999
20
-4.2188474935755949e-14
42
-0.41421356135140136
10
27.956624999999995
20
-2.9999999895351994
42
0.99999999999999989
10
33.956625000000003
20
-3.0000000000000417
42
-0.41421356237309509
10
36.956625000000003
20
-3.9968028886505635e-14
10
142.83125000000001
20
6.6613381477509392e-15
42
-0.41421356237309503
10
145.83125000000001
20
-3.0000000000000004
42
0.99999999999999989
10
151.83125000000001
20
-3.0000000000000018
42
-0.41421356237309509
10
154.83125000000001
20
0
10
172.33125000000001
20
-3.5527136788005009e-14
42
0.41421356237309498
10
173.83125000000001
20
1.4999999999999698
10
173.83125000000004
20
117.75300000000001
42
0.41421356237309503
10
172.33125000000001
20
119.25300000000001
10
165.54374999999999
20
119.25299999999996
42
-0.41421356237309503
10
162.54374999999996
20
122.25300000000001
42
1.0000001377853993
10
156.54374999999999
20
122.253000275635
42
-0.414213589283636
10
153.54374999999999
20
119.253
10
107.01250000000002
20
119.25299999999996
42
-0.41421356237309503
10
104.01249999999997
20
122.25300000000001
42
1.0000000915542713
10
98.01249999999996
20
122.25300055126901
42
-0.41421361619408037
10
95.012500000000003
20
119.253
10
92.606250000000017
20
119.253
42
0.41421356237309503
10
92.106250000000003
20
118.75300000000001
10
92.106250000000017
20
101.03749999999999
42
-0.41421356237309503
10
91.606250000000017
20
100.53749999999999
10
84.606251144409001
20
100.53749999999999
42
-0.41421356237309503
10
84.106251144408986
20
101.03749999999999
10
84.106251144409015
20
118.75300838311
42
0.41421356237309503
10
83.606251144409001
20
119.25300838311001
10
-21.693750000000005
20
119.25300838311001
42
0.41421356237309243
10
-22.193749999999998
20
118.75300000000001
10
-22.193749999999994
20
101.03749999999999
42
-0.41421356237309503
10
-22.693750000000001
20
100.53749999999999
10
-29.693750000000001
20
100.53750000000001
42
-0.41421356237309503
10
-30.193750000000001
20
101.03749999999999
0
LWPOLYLINE
5
101
100
AcDbEntity
8
0
100
AcDbPolyline
90
8
70
1
43
0.0
10
37.956249999999997
20
116.03749999999999
10
37.956250000000004
20
103.03750000000001
42
-0.41421356237309503
10
37.456249999999997
20
102.53749999999999
10
24.456250000000001
20
102.53749999999999
42
-0.41421356237309503
10
23.956249999999994
20
103.03750000000001
10
23.956249999999994
20
116.03749999999999
42
-0.41421356237309503
10
24.456250000000001
20
116.53750000000001
10
37.456249999999997
20
116.53749999999999
42
-0.41421356237309503
0
LWPOLYLINE
5
102
100
AcDbEntity
8
0
100
AcDbPolyline
90
8
70
1
43
0.0
10
105.41875000000002
20
116.53750000000001
10
118.41875000000002
20
116.53749999999999
42
-0.41421356237309503
10
118.91875
20
116.03749999999999
10
118.91875000000002
20
103.03750000000001
42
-0.41421356237309503
10
118.41875000000002
20
102.53749999999999
10
105.41875000000002
20
102.53749999999997
42
-0.41421356237309503
10
104.91874999999996
20
103.03750000000001
10
104.91875
20
116.03749999999999
42
-0.41421356237309503
0
LWPOLYLINE
5
103
100
AcDbEntity
8
0
100
AcDbPolyline
90
8
70
1
43
0.0
10
166.54374999999999
20
116.03749999999999
10
166.54375000000002
20
103.03750000000001
42
-0.41421356237309503
10
166.04375000000002
20
102.53750000000002
10
153.04374999999999
20
102.53750000000004
42
-0.41421356237309503
10
152.54375000000005
20
103.03750000000001
10
152.54374999999993
20
116.03749999999999
42
-0.41421356237309503
10
153.04374999999999
20
116.53750000000005
10
166.04375000000002
20
116.53749999999997
42
-0.41421356237309503
0
LWPOLYLINE
5
104
100
AcDbEntity
8
0
100
AcDbPolyline
90
8
70
1
43
0.0
10
-83.487499999999983
20
77.9375
42
0.41421356237309503
10
-83.987499999999997
20
78.437500000000014
10
-96.987500000000011
20
78.4375
42
0.41421356237309503
10
-97.487500000000011
20
77.9375
10
-97.487500000000011
20
64.9375
42
0.41421356237309503
10
-96.987500000000011
20
64.4375
10
-83.987499999999997
20
64.4375
42
0.41421356237309503
10
-83.487500000000011
20
64.9375
0
LWPOLYLINE
5
105
100
AcDbEntity
8
0
100
AcDbPolyline
90
8
70
1
43
0.0
10
-98.425500000000014
20
77.4375
10
-98.4255
20
62.9375
42
-0.41421356237309503
10
-98.9255
20
62.4375
10
-105.92550000000001
20
62.437499999999993
42
-0.41421356237309503
10
-106.42550000000001
20
62.9375
10
-106.42550000000001
20
77.4375
42
-0.41421356237309503
10
-105.92550000000001
20
77.937500000000014
10
-98.9255
20
77.9375
42
-0.41421356237309503
0
LWPOLYLINE
5
106
100
AcDbEntity
8
0
100
AcDbPolyline
90
8
70
1
43
0.0
10
-82.049499999999995
20
77.9375
10
-75.049499999999995
20
77.937500000000014
42
-0.41421356237309503
10
-74.549499999999995
20
77.4375
10
-74.549499999999995
20
62.9375
42
-0.41421356237309503
10
-75.049499999999995
20
62.4375
10
-82.049499999999995
20
62.437499999999993
42
-0.41421356237309503
10
-82.549500000000009
20
62.9375
10
-82.549500000000009
20
77.4375
42
-0.41421356237309503
0
LWPOLYLINE
5
107
100
AcDbEntity
8
0
100
AcDbPolyline
90
8
70
1
43
0.0
10
-101.30674999999999
20
26.837499999999999
10
-108.30674999999999
20
26.837499999999995
42
-0.41421356237309503
10
-108.80674999999999
20
27.337500000000002
10
-108.80674999999999
20
41.837499999999999
42
-0.41421356237309503
10
-108.30674999999999
20
42.337499999999999
10
-101.30674999999999
20
42.337500000000006
42
-0.41421356237309503
10
-100.80674999999999
20
41.837499999999999
10
-100.80674999999999
20
27.337500000000002
42
-0.41421356237309503
0
LWPOLYLINE
5
108
100
AcDbEntity
8
0
100
AcDbPolyline
90
8
70
1
43
0.0
10
-99.868750000000006
20
26.837499999999999
42
0.41421356237309503
10
-99.368750000000006
20
26.337499999999991
10
-86.36875000000002
20
26.337499999999999
42
0.41421356237309503
10
-85.868750000000006
20
26.837499999999999
10
-85.868750000000006
20
39.837499999999999
42
0.41421356237309503
10
-86.36875000000002
20
40.337500000000006
10
-99.368750000000006
20
40.337500000000006
42
0.41421356237309503
10
-99.868750000000006
20
39.837499999999999
0
LWPOLYLINE
5
109
100
AcDbEntity
8
0
100
AcDbPolyline
90
8
70
1
43
0.0
10
-19.693750000000001
20
26.337499999999999
10
-32.693750000000001
20
26.337499999999991
42
-0.41421356237309503
10
-33.193750000000009
20
26.837499999999999
10
-33.193750000000001
20
39.837499999999999
42
-0.41421356237309503
10
-32.693750000000001
20
40.337500000000006
10
-19.693750000000001
20
40.337500000000013
42
-0.41421356237309503
10
-19.193749999999994
20
39.837499999999999
10
-19.193750000000005
20
26.837499999999999
42
-0.41421356237309503
0
LWPOLYLINE
5
110
100
AcDbEntity
8
0
100
AcDbPolyline
90
8
70
1
43
0.0
10
-38.743749999999999
20
26.337499999999999
10
-51.743750000000006
20
26.337499999999991
42
-0.41421356237309503
10
-52.243750000000013
20
26.837499999999999
10
-52.243750000000006
20
39.837499999999999
42
-0.41421356237309503
10
-51.743750000000006
20
40.337500000000006
10
-38.743749999999999
20
40.337500000000013
42
-0.41421356237309503
10
-38.243749999999991
20
39.837499999999999
10
-38.243750000000006
20
26.837499999999999
42
-0.41421356237309503
0
LWPOLYLINE
5
111
100
AcDbEntity
8
0
100
AcDbPolyline
90
8
70
1
43
0.0
10
-57.79375000000001
20
26.337499999999999
10
-70.793750000000003
20
26.337499999999991
42
-0.41421356237309503
10
-71.293750000000017
20
26.837499999999999
10
-71.293750000000017
20
39.837499999999999
42
-0.41421356237309503
10
-70.793750000000003
20
40.337500000000006
10
-57.79375000000001
20
40.337500000000013
42
-0.41421356237309503
10
-57.293750000000003
20
39.837499999999999
10
-57.29375000000001
20
26.837499999999999
42
-0.41421356237309503
0
LWPOLYLINE
5
112
100
AcDbEntity
8
0
100
AcDbPolyline
90
8
70
1
43
0.0
10
-84.930750000000018
20
27.337500000000002
10
-84.930750000000018
20
41.837499999999999
42
-0.41421356237309503
10
-84.430750000000003
20
42.337499999999999
10
-77.430750000000018
20
42.337500000000006
42
-0.41421356237309503
10
-76.930750000000003
20
41.837499999999999
10
-76.930750000000018
20
27.337500000000002
42
-0.41421356237309503
10
-77.430750000000018
20
26.837500000000002
10
-84.430750000000003
20
26.837499999999995
42
-0.41421356237309503
0
LWPOLYLINE
5
113
100
AcDbEntity
8
0
100
AcDbPolyline
90
8
70
1
43
0.0
10
-94.162999999999997
20
83.987499999999997
10
-101.16300000000001
20
83.987499999999997
42
-0.41421356237309503
10
-101.66300000000001
20
84.487500000000011
10
-101.66300000000001
20
98.987499999999997
42
-0.41421356237309503
10
-101.16300000000001
20
99.487500000000011
10
-94.162999999999997
20
99.487500000000011
42
-0.41421356237309503
10
-93.662999999999982
20
98.987499999999997
10
-93.662999999999982
20
84.487500000000011
42
-0.41421356237309503
0
LWPOLYLINE
5
114
100
AcDbEntity
8
0
100
AcDbPolyline
90
8
70
1
43
0.0
10
-92.725000000000009
20
83.987499999999997
42
0.41421356237309503
10
-92.224999999999994
20
83.487499999999983
10
-79.224999999999994
20
83.487499999999983
42
0.41421356237309503
10
-78.724999999999994
20
83.987499999999997
10
-78.724999999999994
20
96.987500000000011
42
0.41421356237309503
10
-79.224999999999994
20
97.487500000000011
10
-92.224999999999994
20
97.487500000000011
42
0.41421356237309503
10
-92.724999999999994
20
96.987500000000011
0
LWPOLYLINE
5
115
100
AcDbEntity
8
0
100
AcDbPolyline
90
8
70
1
43
0.0
10
-77.787000000000006
20
84.487500000000011
10
-77.78700000000002
20
98.987499999999997
42
-0.41421356237309503
10
-77.287000000000006
20
99.487500000000011
10
-70.287000000000006
20
99.487500000000011
42
-0.41421356237309503
10
-69.787000000000006
20
98.987499999999997
10
-69.787000000000006
20
84.487500000000011
42
-0.41421356237309503
10
-70.287000000000006
20
83.987499999999997
10
-77.287000000000006
20
83.987499999999997
42
-0.41421356237309503
0
LWPOLYLINE
5
116
100
AcDbEntity
8
0
100
AcDbPolyline
90
8
70
1
43
0.0
10
-57.006250000000016
20
83.987499999999997
42
0.41421356237309503
10
-56.506250000000009
20
83.487499999999983
10
-43.506250000000001
20
83.487499999999983
42
0.41421356237309503
10
-43.006250000000001
20
83.987499999999997
10
-43.006249999999994
20
96.987500000000011
42
0.41421356237309503
10
-43.506250000000001
20
97.487500000000011
10
-56.506250000000009
20
97.487500000000011
42
0.41421356237309503
10
-57.006250000000009
20
96.987500000000011
0
LWPOLYLINE
5
117
100
AcDbEntity
8
0
100
AcDbPolyline
90
8
70
1
43
0.0
10
-37.956250000000004
20
83.987499999999997
42
0.41421356237309503
10
-37.456249999999997
20
83.487499999999983
10
-24.456250000000001
20
83.487499999999983
42
0.41421356237309503
10
-23.956250000000004
20
83.987499999999997
10
-23.956249999999994
20
96.987500000000011
42
0.41421356237309503
10
-24.456250000000001
20
97.487500000000011
10
-37.456249999999997
20
97.487500000000011
42
0.41421356237309503
10
-37.956249999999997
20
96.987500000000011
0
LWPOLYLINE
5
118
100
AcDbEntity
8
0
100
AcDbPolyline
90
8
70
1
43
0.0
10
-18.906250000000007
20
83.987499999999997
42
0.41421356237309503
10
-18.40625
20
83.487499999999983
10
-5.40625
20
83.487499999999983
42
0.41421356237309503
10
-4.90625
20
83.987499999999997
10
-4.9062499999999929
20
96.987500000000011
42
0.41421356237309437
10
-5.4062499999999991
20
97.487500000000011
10
-18.40625
20
97.487500000000011
42
0.41421356237309503
10
-18.90625
20
96.987500000000011
0
LWPOLYLINE
5
119
100
AcDbEntity
8
0
100
AcDbPolyline
90
8
70
1
43
0.0
10
0.1437499999999759
20
83.987499999999997
42
0.41421356237309503
10
0.64374999999998295
20
83.487499999999983
10
13.643750000000001
20
83.487499999999983
42
0.41421356237309503
10
14.143750000000001
20
83.987499999999997
10
14.143750000000008
20
96.987500000000011
42
0.41421356237309503
10
13.643750000000001
20
97.487500000000011
10
0.64374999999998295
20
97.487500000000011
42
0.41421356237309503
10
0.14374999999997601
20
96.987500000000011
0
LWPOLYLINE
5
120
100
AcDbEntity
8
0
100
AcDbPolyline
90
8
70
1
43
0.0
10
19.193749999999994
20
83.987499999999997
42
0.41421356237309503
10
19.693750000000001
20
83.487499999999983
10
32.693750000000001
20
83.487499999999983
42
0.41421356237309503
10
33.193750000000001
20
83.987499999999997
10
33.193750000000009
20
96.987500000000011
42
0.41421356237309503
10
32.693750000000001
20
97.487500000000011
10
19.693750000000001
20
97.487500000000011
42
0.41421356237309503
10
19.193750000000001
20
96.987500000000011
0
LWPOLYLINE
5
121
100
AcDbEntity
8
0
100
AcDbPolyline
90
8
70
1
43
0.0
10
38.243749999999991
20
83.987499999999997
42
0.41421356237309503
10
38.743749999999999
20
83.487499999999983
10
51.743750000000006
20
83.487499999999983
42
0.41421356237309503
10
52.243750000000006
20
83.987499999999997
10
52.243750000000013
20
96.987500000000011
42
0.41421356237309503
10
51.743750000000006
20
97.487500000000011
10
38.743749999999999
20
97.487500000000011
42
0.41421356237309503
10
38.243749999999999
20
96.987500000000011
0
LWPOLYLINE
5
122
100
AcDbEntity
8
0
100
AcDbPolyline
90
8
70
1
43
0.0
10
57.293750000000003
20
83.987499999999997
42
0.41421356237309503
10
57.79375000000001
20
83.487499999999983
10
70.793750000000003
20
83.487499999999983
42
0.41421356237309503
10
71.293750000000003
20
83.987499999999997
10
71.293750000000017
20
96.987500000000011
42
0.41421356237309503
10
70.793750000000003
20
97.487500000000011
10
57.79375000000001
20
97.487500000000011
42
0.41421356237309503
10
57.29375000000001
20
96.987500000000011
0
LWPOLYLINE
5
123
100
AcDbEntity
8
0
100
AcDbPolyline
90
8
70
1
43
0.0
10
76.34375
20
83.987499999999997
42
0.41421356237309503
10
76.84375
20
83.487499999999983
10
89.84375
20
83.487499999999983
42
0.41421356237309503
10
90.34375
20
83.987499999999997
10
90.34375
20
96.987500000000011
42
0.41421356237309503
10
89.84375
20
97.487500000000011
10
76.84375
20
97.487500000000011
42
0.41421356237309503
10
76.34375
20
96.987500000000011
0
LWPOLYLINE
5
124
100
AcDbEntity
8
0
100
AcDbPolyline
90
8
70
1
43
0.0
10
95.393749999999997
20
83.987499999999997
42
0.41421356237309503
10
95.893750000000011
20
83.487499999999983
10
108.89375000000001
20
83.487499999999983
42
0.41421356237309503
10
109.39375
20
83.987499999999997
10
109.39375000000001
20
96.987500000000011
42
0.41421356237309503
10
108.89375000000001
20
97.487500000000011
10
95.893750000000011
20
97.487500000000011
42
0.41421356237309503
10
95.393749999999997
20
96.987500000000011
0
LWPOLYLINE
5
125
100
AcDbEntity
8
0
100
AcDbPolyline
90
8
70
1
43
0.0
10
114.44374999999999
20
83.987499999999997
42
0.41421356237309503
10
114.94374999999999
20
83.487499999999983
10
127.94375000000001
20
83.487499999999983
42
0.41421356237309503
10
128.44374999999999
20
83.987499999999997
10
128.44375000000002
20
96.987500000000011
42
0.41421356237309503
10
127.94375000000001
20
97.487500000000011
10
114.94374999999999
20
97.487500000000011
42
0.41421356237309503
10
114.44375000000001
20
96.987500000000011
0
LWPOLYLINE
5
126
100
AcDbEntity
8
0
100
AcDbPolyline
90
8
70
1
43
0.0
10
167.83799999999999
20
83.987499999999997
10
160.83799999999999
20
83.987499999999997
42
-0.41421356237309503
10
160.33799999999999
20
84.487500000000011
10
160.33799999999999
20
98.987499999999997
42
-0.41421356237309503
10
160.83799999999999
20
99.487500000000011
10
167.83799999999999
20
99.487500000000011
42
-0.41421356237309503
10
168.33799999999999
20
98.987499999999997
10
168.33799999999999
20
84.487500000000011
42
-0.41421356237309503
0
LWPOLYLINE
5
127
100
AcDbEntity
8
0
100
AcDbPolyline
90
8
70
1
43
0.0
10
158.90000000000001
20
83.487500000000011
10
145.90000000000001
20
83.487499999999983
42
-0.41421356237309503
10
145.40000000000001
20
83.987499999999997
10
145.40000000000001
20
96.987500000000011
42
-0.41421356237309503
10
145.90000000000001
20
97.487500000000011
10
158.90000000000001
20
97.487500000000011
42
-0.41421356237309503
10
159.40000000000001
20
96.987500000000011
10
159.40000000000001
20
83.987499999999997
42
-0.41421356237309503
0
LWPOLYLINE
5
128
100
AcDbEntity
8
0
100
AcDbPolyline
90
8
70
1
43
0.0
10
136.46199999999999
20
84.487500000000011
10
136.46199999999999
20
98.987499999999997
42
-0.41421356237309503
10
136.96199999999999
20
99.487500000000011
10
143.96199999999999
20
99.487500000000011
42
-0.41421356237309503
10
144.46200000000002
20
98.987499999999997
10
144.46200000000002
20
84.487500000000011
42
-0.41421356237309503
10
143.96199999999999
20
83.987499999999997
10
136.96199999999999
20
83.987500000000011
42
-0.41421356237309503
0
LWPOLYLINE
5
129
100
AcDbEntity
8
0
100
AcDbPolyline
90
8
70
1
43
0.0
10
-14.143750000000008
20
26.837499999999999
42
0.41421356237309503
10
-13.643750000000001
20
26.337499999999991
10
-0.64375000000001803
20
26.337499999999999
42
0.41421356237309503
10
-0.14375000000001104
20
26.837499999999999
10
-0.14375000000001104
20
39.837499999999999
42
0.41421356237309531
10
-0.64375000000001847
20
40.337500000000006
10
-13.643750000000001
20
40.337500000000006
42
0.41421356237309503
10
-14.143750000000001
20
39.837499999999999
0
LWPOLYLINE
5
130
100
AcDbEntity
8
0
100
AcDbPolyline
90
8
70
1
43
0.0
10
-171.30624999999998
20
3.0249999999999506
10
-171.30625000000003
20
16.024999999999999
42
-0.41421356237309503
10
-170.80625000000001
20
16.525000000000002
10
-157.80625000000001
20
16.52499999999997
42
-0.41421356237309503
10
-157.30625000000003
20
16.024999999999999
10
-157.30625000000001
20
3.0249999999999511
42
-0.41421356237309537
10
-157.80625000000001
20
2.5249999999999506
10
-170.80625000000001
20
2.524999999999979
42
-0.41421356237309503
0
LWPOLYLINE
5
131
100
AcDbEntity
8
0
100
AcDbPolyline
90
8
70
1
43
0.0
10
-152.25624999999999
20
3.0249999999999506
10
-152.25625000000002
20
16.024999999999999
42
-0.4142135623730846
10
-151.75625000000002
20
16.525000000000002
10
-138.75624999999999
20
16.525000000000006
42
-0.41421356237309503
10
-138.25624999999999
20
16.024999999999999
10
-138.25624999999999
20
3.0249999999999511
42
-0.41421356237309537
10
-138.75624999999999
20
2.5249999999999506
10
-151.75625000000002
20
2.5249999999999613
42
-0.4142135623730846
0
LWPOLYLINE
5
132
100
AcDbEntity
8
0
100
AcDbPolyline
90
8
70
1
43
0.0
10
-119.20625000000001
20
16.024999999999999
10
-119.20625
20
3.0249999999999599
42
-0.41421356237309503
10
-119.70625
20
2.5249999999999599
10
-132.70625000000001
20
2.5249999999999435
42
-0.41421356237309503
10
-133.20625000000004
20
3.0249999999999506
10
-133.20625000000004
20
16.024999999999999
42
-0.41421356237309503
10
-132.70625000000001
20
16.525000000000002
10
-119.70625
20
16.524999999999991
42
-0.41421356237309503
0
LWPOLYLINE
5
133
100
AcDbEntity
8
0
100
AcDbPolyline
90
8
70
1
43
0.0
10
-132.70625000000001
20
116.53750000000001
10
-119.70625
20
116.53750000000001
42
-0.41421356237309503
10
-119.20625
20
116.03749999999999
10
-119.20625
20
103.03750000000001
42
-0.41421356237309503
10
-119.70625
20
102.53749999999999
10
-132.70625000000001
20
102.53749999999999
42
-0.41421356237309503
10
-133.20625000000004
20
103.03750000000001
10
-133.20625000000004
20
116.03749999999999
42
-0.41421356237309503
0
LWPOLYLINE
5
134
100
AcDbEntity
8
0
100
AcDbPolyline
90
8
70
1
43
0.0
10
-152.25624999999999
20
103.03750000000001
10
-152.25625000000002
20
116.03749999999999
42
-0.4142135623730846
10
-151.75625000000002
20
116.53750000000001
10
-138.75624999999999
20
116.53750000000001
42
-0.41421356237309503
10
-138.25624999999999
20
116.03749999999999
10
-138.25624999999999
20
103.03750000000001
42
-0.41421356237309503
10
-138.75624999999999
20
102.53749999999999
10
-151.75625000000002
20
102.53750000000002
42
-0.4142135623730846
0
LWPOLYLINE
5
135
100
AcDbEntity
8
0
100
AcDbPolyline
90
8
70
1
43
0.0
10
-171.30624999999998
20
103.03750000000001
10
-171.30625000000003
20
116.03749999999999
42
-0.41421356237309503
10
-170.80625000000001
20
116.53750000000001
10
-157.80625000000001
20
116.53749999999997
42
-0.41421356237309503
10
-157.30625000000003
20
116.03749999999999
10
-157.30625000000001
20
103.03750000000001
42
-0.41421356237309503
10
-157.80625000000001
20
102.53749999999999
10
-170.80625000000001
20
102.53750000000004
42
-0.41421356237309503
0
LWPOLYLINE
5
136
100
AcDbEntity
8
0
100
AcDbPolyline
90
8
70
1
43
0.0
10
-151.75625000000002
20
97.487500000000011
10
-138.75624999999999
20
97.487500000000011
42
-0.41421356237309503
10
-138.25624999999999
20
96.987500000000011
10
-138.25624999999999
20
83.987499999999997
42
-0.41421356237309503
10
-138.75624999999999
20
83.487499999999983
10
-151.75625000000002
20
83.487500000000026
42
-0.4142135623730846
10
-152.25624999999997
20
83.987499999999997
10
-152.25625000000002
20
96.987500000000011
42
-0.4142135623730846
0
LWPOLYLINE
5
137
100
AcDbEntity
8
0
100
AcDbPolyline
90
8
70
1
43
0.0
10
-119.20625000000001
20
58.88750000000001
10
-119.20625000000001
20
45.887500000000003
42
-0.41421356237309503
10
-119.70625
20
45.387500000000003
10
-132.70625000000001
20
45.387499999999996
42
-0.41421356237309503
10
-133.20625000000004
20
45.887500000000003
10
-133.20625000000004
20
58.88750000000001
42
-0.41421356237309503
10
-132.70625000000001
20
59.387500000000003
10
-119.70625
20
59.387499999999996
42
-0.41421356237309503
0
LWPOLYLINE
5
138
100
AcDbEntity
8
0
100
AcDbPolyline
90
8
70
1
43
0.0
10
-151.75625000000002
20
40.337500000000006
10
-138.75624999999999
20
40.337500000000013
42
-0.41421356237309503
10
-138.25624999999999
20
39.837499999999999
10
-138.25624999999999
20
26.837499999999999
42
-0.41421356237309503
10
-138.75624999999999
20
26.337499999999999
10
-151.75625000000002
20
26.337500000000027
42
-0.4142135623730846
10
-152.25624999999997
20
26.837499999999999
10
-152.25625000000002
20
39.837499999999999
42
-0.4142135623730846
0
LWPOLYLINE
5
139
100
AcDbEntity
8
0
100
AcDbPolyline
90
8
70
1
43
0.0
10
-171.30624999999998
20
26.837499999999999
10
-171.30625000000003
20
39.837499999999999
42
-0.41421356237309503
10
-170.80625000000001
20
40.337500000000006
10
-157.80625000000001
20
40.337499999999977
42
-0.41421356237309503
10
-157.30625000000003
20
39.837499999999999
10
-157.30625000000001
20
26.837499999999999
42
-0.41421356237309503
10
-157.80625000000001
20
26.337499999999999
10
-170.80625000000001
20
26.337500000000027
42
-0.41421356237309503
0
LWPOLYLINE
5
140
100
AcDbEntity
8
0
100
AcDbPolyline
90
8
70
1
43
0.0
10
-133.20625000000001
20
26.837499999999999
10
-133.20625000000004
20
39.837499999999999
42
-0.41421356237309503
10
-132.70625000000001
20
40.337500000000006
10
-119.70625
20
40.337500000000013
42
-0.41421356237309503
10
-119.20625
20
39.837499999999999
10
-119.20625000000001
20
26.837499999999999
42
-0.41421356237309503
10
-119.70625
20
26.337499999999999
10
-132.70625000000001
20
26.337500000000009
42
-0.41421356237309503
0
LWPOLYLINE
5
141
100
AcDbEntity
8
0
100
AcDbPolyline
90
8
70
1
43
0.0
10
-152.25624999999999
20
45.887500000000003
10
-152.25625000000002
20
58.88750000000001
42
-0.4142135623730846
10
-151.75625000000002
20
59.387500000000003
10
-138.75624999999999
20
59.387500000000017
42
-0.41421356237309503
10
-138.25624999999999
20
58.88750000000001
10
-138.25624999999999
20
45.887500000000003
42
-0.41421356237309503
10
-138.75624999999999
20
45.387500000000003
10
-151.75625000000002
20
45.38750000000001
42
-0.4142135623730846
0
LWPOLYLINE
5
142
100
AcDbEntity
8
0
100
AcDbPolyline
90
8
70
1
43
0.0
10
-170.80625000000001
20
59.387500000000017
10
-157.80625000000001
20
59.387499999999982
42
-0.41421356237309503
10
-157.30625000000003
20
58.88750000000001
10
-157.30625000000001
20
45.887500000000003
42
-0.41421356237309503
10
-157.80625000000001
20
45.387500000000003
10
-170.80625000000001
20
45.387500000000031
42
-0.41421356237309503
10
-171.30624999999998
20
45.887500000000003
10
-171.30625000000003
20
58.88750000000001
42
-0.41421356237309503
0
LWPOLYLINE
5
143
100
AcDbEntity
8
0
100
AcDbPolyline
90
8
70
1
43
0.0
10
-108.89375000000001
20
16.524999999999999
10
-95.893750000000011
20
16.524999999999991
42
-0.41421356237309503
10
-95.393750000000011
20
16.024999999999999
10
-95.393749999999955
20
3.0249999999999999
42
-0.41421356237309503
10
-95.893750000000011
20
2.5249999999999568
10
-108.89375000000001
20
2.524999999999999
42
-0.4142135623730186
10
-109.39375000000014
20
3.0249999999999999
10
-109.39375000000001
20
16.024999999999999
42
-0.41421356237309503
0
LWPOLYLINE
5
144
100
AcDbEntity
8
0
100
AcDbPolyline
90
8
70
1
43
0.0
10
-28.431250000000002
20
3.0249999999999999
10
-28.431249999999899
20
16.024999999999999
42
-0.41421356237309503
10
-27.931249999999999
20
16.524999999999899
10
-14.93125
20
16.525000000000052
42
-0.41421356237309503
10
-14.431249999999949
20
16.024999999999999
10
-14.431250000000057
20
3.0249999999999999
42
-0.41421356237314738
10
-14.93125
20
2.5249999999999675
10
-27.931249999999999
20
2.5249999999999972
42
-0.41421356237309503
0
LWPOLYLINE
5
145
100
AcDbEntity
8
0
100
AcDbPolyline
90
8
70
1
43
0.0
10
66.03125
20
2.5249999999999999
10
53.031250000000007
20
2.5249999999999928
42
-0.41421356237309503
10
52.53125
20
3.0249999999999999
10
52.531249999999979
20
16.024999999999999
42
-0.41421356237309503
10
53.031250000000007
20
16.525000000000027
10
66.03125
20
16.524999999999963
42
-0.41421356237309503
10
66.531249999999972
20
16.024999999999999
10
66.53125
20
3.0249999999999999
42
-0.41421356237309503
0
LWPOLYLINE
5
146
100
AcDbEntity
8
0
100
AcDbPolyline
90
8
70
1
43
0.0
10
133.49375000000003
20
3.0249999999999999
10
133.49375000000001
20
16.024999999999999
42
-0.41421356237309503
10
133.99375000000001
20
16.525000000000006
10
146.99375000000001
20
16.52499999999997
42
-0.41421356237309503
10
147.49374999999998
20
16.024999999999999
10
147.49375000000003
20
3.0249999999999999
42
-0.41421356237309503
10
146.99375000000001
20
2.5249999999999928
10
133.99375000000001
20
2.5250000000000106
42
-0.41421356237309503
0
LWPOLYLINE
5
147
100
AcDbEntity
8
0
100
AcDbPolyline
90
8
70
1
43
0.0
10
89.84375
20
2.5249999999999999
10
76.84375
20
2.5250000000000372
42
-0.41421356237309503
10
76.343750000000043
20
3.0249999999999999
10
76.343750000000043
20
16.024999999999999
42
-0.41421356237309503
10
76.84375
20
16.524999999999956
10
89.84375
20
16.525000000000041
42
-0.41421356237309503
10
90.343750000000043
20
16.024999999999999
10
90.34375
20
3.0249999999999999
42
-0.41421356237309503
0
LWPOLYLINE
5
148
100
AcDbEntity
8
0
100
AcDbPolyline
90
8
70
1
43
0.0
10
9.3812499999998504
20
16.024999999999999
10
9.3812499999998362
20
3.0249999999999999
42
-0.41421356237307749
10
8.8812499999998806
20
2.525000000000015
10
-4.1187500000000599
20
2.5249999999999568
42
-0.41421356237311291
10
-4.6187500000001336
20
3.0249999999999999
10
-4.6187500000001442
20
16.024999999999999
42
-0.41421356237309503
10
-4.1187500000000599
20
16.525000000000084
10
8.8812499999998806
20
16.525000000000002
42
-0.41421356237307749
0
LWPOLYLINE
5
149
100
AcDbEntity
8
0
100
AcDbPolyline
90
8
70
1
43
0.0
10
-71.581249999999997
20
16.024999999999999
10
-71.581249999999926
20
3.0249999999999999
42
-0.4142135623730186
10
-72.081249999999997
20
2.5250000000000616
10
-85.081249999999997
20
2.524999999999999
42
-0.41421356237309503
10
-85.581250000000125
20
3.0250000000001305
10
-85.581249999999969
20
16.024999999999999
42
-0.41421356237309503
10
-85.081249999999997
20
16.52499999999997
10
-72.081249999999997
20
16.524999999999999
42
-0.41421356237309503
0
LWPOLYLINE
5
150
100
AcDbEntity
8
0
100
AcDbPolyline
90
8
70
1
43
0.0
10
-91.131249999999994
20
102.53749999999999
10
-104.13125000000001
20
102.53750000000009
42
-0.41421356237309503
10
-104.63124999999992
20
103.03750000000001
10
-104.63124999999998
20
116.03749999999999
42
-0.41421356237309503
10
-104.13125000000001
20
116.53749999999997
10
-91.131249999999994
20
116.53749999999989
42
-0.41421356237309503
10
-90.631250000000108
20
116.03749999999999
10
-90.631249999999994
20
103.03750000000001
42
-0.41421356237309503
0
LWPOLYLINE
5
151
100
AcDbEntity
8
0
100
AcDbPolyline
90
8
70
1
43
0.0
10
-33.981250000000003
20
2.5249999999999999
10
-46.981250000000003
20
2.5249999999999928
42
-0.41421356237309503
10
-47.48125000000001
20
3.0249999999999999
10
-47.481250000000045
20
16.024999999999999
42
-0.41421356237309503
10
-46.981250000000003
20
16.525000000000041
10
-33.981250000000003
20
16.525000000000034
42
-0.41421356237309503
10
-33.481249999999967
20
16.024999999999999
10
-33.481250000000003
20
3.0249999999999999
42
-0.41421356237309503
0
LWPOLYLINE
5
152
100
AcDbEntity
8
0
100
AcDbPolyline
90
8
70
1
43
0.0
10
46.981250000000003
20
2.5249999999999999
10
33.981250000000003
20
2.5249999999999928
42
-0.41421356237309503
10
33.481249999999996
20
3.0249999999999999
10
33.481250000000045
20
16.024999999999999
42
-0.41421356237309503
10
33.981250000000003
20
16.524999999999959
10
46.981250000000003
20
16.525000000000034
42
-0.41421356237309503
10
47.481250000000031
20
16.024999999999999
10
47.48124999999991
20
3.0249999999999999
42
-0.41421356237314738
0
LWPOLYLINE
5
153
100
AcDbEntity
8
0
100
AcDbPolyline
90
8
70
1
43
0.0
10
127.94375000000001
20
2.5249999999999999
10
114.94374999999999
20
2.5250000000000701
42
-0.4142135623730186
10
114.44374999999994
20
3.0249999999999999
10
114.44375000000001
20
16.024999999999999
42
-0.41421356237309503
10
114.94374999999999
20
16.524999999999991
10
127.94375000000001
20
16.524999999999956
42
-0.41421356237309503
10
128.44374999999997
20
16.024999999999999
10
128.44375000000002
20
3.0249999999999999
42
-0.41421356237309503
0
LWPOLYLINE
5
154
100
AcDbEntity
8
0
100
AcDbPolyline
90
8
70
1
43
0.0
10
109.39375
20
16.024999999999999
10
109.39375
20
3.0249999999999999
42
-0.41421356237309503
10
108.89375000000001
20
2.5250000000000106
10
95.893750000000011
20
2.5250000000000701
42
-0.4142135623730186
10
95.39374999999994
20
3.0249999999999999
10
95.39375000000004
20
16.024999999999999
42
-0.41421356237309503
10
95.893750000000011
20
16.52499999999997
10
108.89375000000001
20
16.524999999999991
42
-0.41421356237309503
0
LWPOLYLINE
5
155
100
AcDbEntity
8
0
100
AcDbPolyline
90
8
70
1
43
0.0
10
14.93125
20
16.524999999999999
10
27.931249999999999
20
16.525000000000048
42
-0.41421356237309503
10
28.431250000000045
20
16.024999999999999
10
28.431249999999963
20
3.0249999999999999
42
-0.41421356237309503
10
27.931249999999999
20
2.5250000000000372
10
14.93125
20
2.5249999999999861
42
-0.41421356237309503
10
14.431249999999986
20
3.0249999999999999
10
14.431250000000002
20
16.024999999999999
42
-0.41421356237309503
0
LWPOLYLINE
5
156
100
AcDbEntity
8
0
100
AcDbPolyline
90
8
70
1
43
0.0
10
-66.53125
20
3.0249999999999999
10
-66.531250000000057
20
16.024999999999999
42
-0.41421356237309503
10
-66.03125
20
16.525000000000052
10
-53.031250000000007
20
16.525000000000041
42
-0.41421356237309503
10
-52.531249999999964
20
16.024999999999999
10
-52.531250000000014
20
3.0249999999999999
42
-0.41421356237309503
10
-53.031250000000007
20
2.5250000000000106
10
-66.03125
20
2.5250000000000017
42
-0.41421356237309503
0
LWPOLYLINE
5
157
100
AcDbEntity
8
0
100
AcDbPolyline
90
8
70
1
43
0.0
10
-57.006250000000009
20
103.03750000000001
10
-57.006249999999994
20
116.03749999999999
42
-0.41421356237309503
10
-56.506250000000009
20
116.53749999999999
10
-43.506250000000001
20
116.53749999999999
42
-0.41421356237309503
10
-43.006250000000001
20
116.03749999999999
10
-43.006250000000044
20
103.03750000000001
42
-0.41421356237309503
10
-43.506250000000001
20
102.53750000000005
10
-56.506250000000009
20
102.53749999999999
42
-0.41421356237309503
0
LWPOLYLINE
5
158
100
AcDbEntity
8
0
100
AcDbPolyline
90
8
70
1
43
0.0
10
-33.981250000000003
20
64.4375
10
-46.981250000000003
20
64.4375
42
-0.41421356237309503
10
-47.48125000000001
20
64.9375
10
-47.481250000000003
20
77.9375
42
-0.41421356237309503
10
-46.981250000000003
20
78.4375
10
-33.981250000000003
20
78.437500000000014
42
-0.41421356237309503
10
-33.481249999999996
20
77.9375
10
-33.481250000000003
20
64.9375
42
-0.41421356237309503
0
LWPOLYLINE
5
159
100
AcDbEntity
8
0
100
AcDbPolyline
90
8
70
1
43
0.0
10
-53.031250000000007
20
64.4375
42
0.41421356237309503
10
-52.531250000000007
20
64.9375
10
-52.53125
20
77.9375
42
0.41421356237309503
10
-53.031250000000007
20
78.4375
10
-66.03125
20
78.4375
42
0.41421356237309503
10
-66.53125
20
77.9375
10
-66.531250000000014
20
64.9375
42
0.41421356237309503
10
-66.03125
20
64.4375
0
LWPOLYLINE
5
160
100
AcDbEntity
8
0
100
AcDbPolyline
90
8
70
1
43
0.0
10
4.1187500000000004
20
64.4375
10
-8.8812500000000014
20
64.4375
42
-0.41421356237309503
10
-9.3812500000000085
20
64.9375
10
-9.3812499999999979
20
77.9375
42
-0.41421356237309503
10
-8.8812500000000014
20
78.4375
10
4.1187500000000004
20
78.437500000000014
42
-0.41421356237309537
10
4.6187500000000075
20
77.9375
10
4.6187499999999986
20
64.9375
42
-0.41421356237309503
0
LWPOLYLINE
5
161
100
AcDbEntity
8
0
100
AcDbPolyline
90
8
70
1
43
0.0
10
80.318749999999994
20
64.4375
10
67.318749999999994
20
64.4375
42
-0.41421356237309503
10
66.818749999999994
20
64.9375
10
66.818749999999994
20
77.9375
42
-0.41421356237309503
10
67.318749999999994
20
78.4375
10
80.318749999999994
20
78.437500000000014
42
-0.41421356237309503
10
80.818749999999994
20
77.9375
10
80.818749999999994
20
64.9375
42
-0.41421356237309503
0
LWPOLYLINE
5
162
100
AcDbEntity
8
0
100
AcDbPolyline
90
8
70
1
43
0.0
10
61.268749999999997
20
64.4375
10
48.268750000000004
20
64.4375
42
-0.41421356237309503
10
47.768749999999997
20
64.9375
10
47.768750000000004
20
77.9375
42
-0.41421356237309503
10
48.268750000000004
20
78.4375
10
61.268749999999997
20
78.437500000000014
42
-0.41421356237309503
10
61.768750000000011
20
77.9375
10
61.768749999999997
20
64.9375
42
-0.41421356237309503
0
LWPOLYLINE
5
163
100
AcDbEntity
8
0
100
AcDbPolyline
90
8
70
1
43
0.0
10
42.21875
20
64.4375
10
29.21875
20
64.4375
42
-0.41421356237309503
10
28.718749999999993
20
64.9375
10
28.71875
20
77.9375
42
-0.41421356237309503
10
29.21875
20
78.4375
10
42.21875
20
78.437500000000014
42
-0.41421356237309503
10
42.718750000000007
20
77.9375
10
42.71875
20
64.9375
42
-0.41421356237309503
0
LWPOLYLINE
5
164
100
AcDbEntity
8
0
100
AcDbPolyline
90
8
70
1
43
0.0
10
23.168749999999999
20
64.4375
10
10.168749999999999
20
64.4375
42
-0.41421356237309503
10
9.6687499999999922
20
64.9375
10
9.6687500000000011
20
77.9375
42
-0.41421356237309503
10
10.168749999999999
20
78.4375
10
23.168749999999999
20
78.437500000000014
42
-0.41421356237309503
10
23.668750000000006
20
77.9375
10
23.668749999999999
20
64.9375
42
-0.41421356237309503
0
LWPOLYLINE
5
165
100
AcDbEntity
8
0
100
AcDbPolyline
90
8
70
1
43
0.0
10
-14.93125
20
64.4375
42
0.41421356237309503
10
-14.43125
20
64.9375
10
-14.431249999999993
20
77.9375
42
0.41421356237309503
10
-14.93125
20
78.4375
10
-27.931249999999999
20
78.4375
42
0.41421356237309503
10
-28.431250000000002
20
77.9375
10
-28.431250000000006
20
64.9375
42
0.41421356237309503
10
-27.931249999999999
20
64.4375
0
LWPOLYLINE
5
166
100
AcDbEntity
8
0
100
AcDbPolyline
90
8
70
1
43
0.0
10
-91.131249999999994
20
45.387500000000003
10
-104.13125000000001
20
45.387499999999996
42
-0.41421356237309503
10
-104.63125000000002
20
45.887500000000003
10
-104.63125000000002
20
58.88750000000001
42
-0.41421356237309503
10
-104.13125000000001
20
59.387500000000003
10
-91.131249999999994
20
59.387500000000017
42
-0.41421356237309503
10
-90.631249999999994
20
58.88750000000001
10
-90.631249999999994
20
45.887500000000003
42
-0.41421356237309503
0
LWPOLYLINE
5
167
100
AcDbEntity
8
0
100
AcDbPolyline
90
8
70
1
43
0.0
10
85.868750000000006
20
64.9375
10
85.868750000000034
20
77.9375
42
-0.41421356237309503
10
86.36875000000002
20
78.4375
10
99.368750000000006
20
78.437500000000014
42
-0.41421356237309503
10
99.868750000000006
20
77.9375
10
99.868750000000006
20
64.9375
42
-0.41421356237309503
10
99.368750000000006
20
64.4375
10
86.36875000000002
20
64.4375
42
-0.41421356237309503
0
LWPOLYLINE
5
168
100
AcDbEntity
8
0
100
AcDbPolyline
90
8
70
1
43
0.0
10
118.41875000000002
20
64.4375
10
105.41875000000002
20
64.4375
42
-0.41421356237309503
10
104.91875
20
64.9375
10
104.91875
20
77.9375
42
-0.41421356237309503
10
105.41875000000002
20
78.4375
10
118.41875000000002
20
78.437500000000014
42
-0.41421356237309503
10
118.91875000000002
20
77.9375
10
118.91875000000002
20
64.9375
42
-0.41421356237309503
0
LWPOLYLINE
5
169
100
AcDbEntity
8
0
100
AcDbPolyline
90
8
70
1
43
0.0
10
137.46875
20
64.4375
10
124.46875
20
64.4375
42
-0.41421356237309503
10
123.96875
20
64.9375
10
123.96875000000001
20
77.9375
42
-0.41421356237309503
10
124.46875
20
78.4375
10
137.46875
20
78.437500000000014
42
-0.41421356237309503
10
137.96875000000003
20
77.9375
10
137.96875
20
64.9375
42
-0.41421356237309503
0
LWPOLYLINE
5
170
100
AcDbEntity
8
0
100
AcDbPolyline
90
8
70
1
43
0.0
10
8.8812500000000014
20
45.387500000000003
42
0.41421356237309503
10
9.3812500000000014
20
45.887500000000003
10
9.3812500000000085
20
58.88750000000001
42
0.41421356237309503
10
8.8812500000000014
20
59.387500000000003
10
-4.1187500000000004
20
59.387500000000003
42
0.41421356237309503
10
-4.6187500000000004
20
58.88750000000001
10
-4.6187500000000075
20
45.887500000000003
42
0.41421356237309537
10
-4.1187500000000004
20
45.387500000000003
0
LWPOLYLINE
5
171
100
AcDbEntity
8
0
100
AcDbPolyline
90
8
70
1
43
0.0
10
66.03125
20
45.387500000000003
10
53.031250000000007
20
45.387499999999996
42
-0.41421356237309503
10
52.53125
20
45.887500000000003
10
52.531250000000007
20
58.88750000000001
42
-0.41421356237309503
10
53.031250000000007
20
59.387500000000003
10
66.03125
20
59.387500000000017
42
-0.41421356237309503
10
66.531250000000014
20
58.88750000000001
10
66.53125
20
45.887500000000003
42
-0.41421356237309503
0
LWPOLYLINE
5
172
100
AcDbEntity
8
0
100
AcDbPolyline
90
8
70
1
43
0.0
10
46.981250000000003
20
45.387500000000003
10
33.981250000000003
20
45.387499999999996
42
-0.41421356237309503
10
33.481249999999996
20
45.887500000000003
10
33.481250000000003
20
58.88750000000001
42
-0.41421356237309503
10
33.981250000000003
20
59.387500000000003
10
46.981250000000003
20
59.387500000000017
42
-0.41421356237309503
10
47.48125000000001
20
58.88750000000001
10
47.481250000000003
20
45.887500000000003
42
-0.41421356237309503
0
LWPOLYLINE
5
173
100
AcDbEntity
8
0
100
AcDbPolyline
90
8
70
1
43
0.0
10
27.931249999999999
20
45.387500000000003
10
14.93125
20
45.387499999999996
42
-0.41421356237309503
10
14.431249999999993
20
45.887500000000003
10
14.431250000000002
20
58.88750000000001
42
-0.41421356237309503
10
14.93125
20
59.387500000000003
10
27.931249999999999
20
59.387500000000017
42
-0.41421356237309503
10
28.431250000000006
20
58.88750000000001
10
28.431249999999999
20
45.887500000000003
42
-0.41421356237309503
0
LWPOLYLINE
5
174
100
AcDbEntity
8
0
100
AcDbPolyline
90
8
70
1
43
0.0
10
-80.818749999999994
20
45.887500000000003
10
-80.818749999999994
20
58.88750000000001
42
-0.41421356237309503
10
-80.318749999999994
20
59.387500000000003
10
-67.318749999999994
20
59.387500000000017
42
-0.41421356237309503
10
-66.818749999999994
20
58.88750000000001
10
-66.818749999999994
20
45.887500000000003
42
-0.41421356237309503
10
-67.318749999999994
20
45.387500000000003
10
-80.318749999999994
20
45.387499999999996
42
-0.41421356237309503
0
LWPOLYLINE
5
175
100
AcDbEntity
8
0
100
AcDbPolyline
90
8
70
1
43
0.0
10
-48.268750000000004
20
45.387500000000003
10
-61.268749999999997
20
45.387499999999996
42
-0.41421356237309503
10
-61.768750000000011
20
45.887500000000003
10
-61.768749999999997
20
58.88750000000001
42
-0.41421356237309503
10
-61.268749999999997
20
59.387500000000003
10
-48.268750000000004
20
59.387500000000017
42
-0.41421356237309503
10
-47.768749999999997
20
58.88750000000001
10
-47.768750000000004
20
45.887500000000003
42
-0.41421356237309503
0
LWPOLYLINE
5
176
100
AcDbEntity
8
0
100
AcDbPolyline
90
8
70
1
43
0.0
10
-29.21875
20
45.387500000000003
10
-42.21875
20
45.387499999999996
42
-0.41421356237309503
10
-42.718750000000007
20
45.887500000000003
10
-42.71875
20
58.88750000000001
42
-0.41421356237309503
10
-42.21875
20
59.387500000000003
10
-29.21875
20
59.387500000000017
42
-0.41421356237309503
10
-28.718749999999993
20
58.88750000000001
10
-28.71875
20
45.887500000000003
42
-0.41421356237309503
0
LWPOLYLINE
5
177
100
AcDbEntity
8
0
100
AcDbPolyline
90
8
70
1
43
0.0
10
-10.168749999999999
20
45.387500000000003
10
-23.168749999999999
20
45.387499999999996
42
-0.41421356237309503
10
-23.668750000000006
20
45.887500000000003
10
-23.668749999999999
20
58.88750000000001
42
-0.41421356237309503
10
-23.168749999999999
20
59.387500000000003
10
-10.168749999999999
20
59.387500000000017
42
-0.41421356237309503
10
-9.6687499999999922
20
58.88750000000001
10
-9.6687500000000011
20
45.887500000000003
42
-0.41421356237309503
0
LWPOLYLINE
5
178
100
AcDbEntity
8
0
100
AcDbPolyline
90
8
70
1
43
0.0
10
109.68125000000001
20
45.887500000000003
10
109.68125000000001
20
58.88750000000001
42
-0.41421356237309503
10
110.18125000000001
20
59.387500000000003
10
123.18125000000002
20
59.387500000000017
42
-0.41421356237309503
10
123.68125000000003
20
58.88750000000001
10
123.68125000000003
20
45.887500000000003
42
-0.41421356237309503
10
123.18125000000002
20
45.387500000000003
10
110.18125000000001
20
45.387499999999996
42
-0.41421356237309503
0
LWPOLYLINE
5
179
100
AcDbEntity
8
0
100
AcDbPolyline
90
8
70
1
43
0.0
10
128.73124999999999
20
45.887500000000003
10
128.73124999999999
20
58.88750000000001
42
-0.41421356237309503
10
129.23124999999999
20
59.387500000000003
10
142.23124999999999
20
59.387500000000017
42
-0.41421356237309503
10
142.73124999999999
20
58.88750000000001
10
142.73124999999999
20
45.887500000000003
42
-0.41421356237309503
10
142.23124999999999
20
45.387500000000003
10
129.23124999999999
20
45.38750000000001
42
-0.41421356237309503
0
LWPOLYLINE
5
180
100
AcDbEntity
8
0
100
AcDbPolyline
90
8
70
1
43
0.0
10
71.581249999999997
20
45.887500000000003
10
71.581249999999997
20
58.88750000000001
42
-0.41421356237309503
10
72.081249999999997
20
59.387500000000003
10
85.081249999999997
20
59.387500000000017
42
-0.41421356237309503
10
85.581250000000011
20
58.88750000000001
10
85.581250000000011
20
45.887500000000003
42
-0.41421356237309503
10
85.081249999999997
20
45.387500000000003
10
72.081249999999997
20
45.387500000000003
42
-0.41421356237309503
0
LWPOLYLINE
5
181
100
AcDbEntity
8
0
100
AcDbPolyline
90
8
70
1
43
0.0
10
166.04375000000002
20
45.387500000000003
10
153.04374999999999
20
45.387499999999996
42
-0.41421356237309503
10
152.54374999999999
20
45.887500000000003
10
152.54374999999999
20
58.88750000000001
42
-0.41421356237309503
10
153.04374999999999
20
59.387500000000003
10
166.04375000000002
20
59.387500000000017
42
-0.41421356237309503
10
166.54375000000002
20
58.88750000000001
10
166.54375000000002
20
45.887500000000003
42
-0.41421356237309503
0
LWPOLYLINE
5
182
100
AcDbEntity
8
0
100
AcDbPolyline
90
8
70
1
43
0.0
10
104.13125000000001
20
45.387500000000003
10
91.131249999999994
20
45.387499999999996
42
-0.41421356237309503
10
90.631249999999994
20
45.887500000000003
10
90.631249999999994
20
58.88750000000001
42
-0.41421356237309503
10
91.131249999999994
20
59.387500000000003
10
104.13125000000001
20
59.387500000000017
42
-0.41421356237309503
10
104.63125000000002
20
58.88750000000001
10
104.63125000000002
20
45.887500000000003
42
-0.41421356237309503
0
LWPOLYLINE
5
183
100
AcDbEntity
8
0
100
AcDbPolyline
90
8
70
1
43
0.0
10
18.40625
20
26.337499999999999
10
5.4062499999999991
20
26.337499999999991
42
-0.41421356237309437
10
4.9062499999999929
20
26.837499999999999
10
4.9062499999999973
20
39.837499999999999
42
-0.41421356237309503
10
5.40625
20
40.337500000000006
10
18.40625
20
40.337500000000013
42
-0.41421356237309503
10
18.906250000000007
20
39.837499999999999
10
18.90625
20
26.837499999999999
42
-0.41421356237309503
0
LWPOLYLINE
5
184
100
AcDbEntity
8
0
100
AcDbPolyline
90
8
70
1
43
0.0
10
170.80625000000001
20
26.337499999999999
10
157.80625000000001
20
26.337499999999991
42
-0.41421356237309503
10
157.30625000000001
20
26.837499999999999
10
157.30625000000001
20
39.837499999999999
42
-0.41421356237309503
10
157.80625000000001
20
40.337500000000006
10
170.80625000000001
20
40.337500000000013
42
-0.41421356237309503
10
171.30625000000003
20
39.837499999999999
10
171.30625000000003
20
26.837499999999999
42
-0.41421356237309503
0
LWPOLYLINE
5
185
100
AcDbEntity
8
0
100
AcDbPolyline
90
8
70
1
43
0.0
10
132.70625000000001
20
26.337499999999999
10
119.70625
20
26.337499999999991
42
-0.41421356237309503
10
119.20625
20
26.837499999999999
10
119.20625
20
39.837499999999999
42
-0.41421356237309503
10
119.70625
20
40.337500000000006
10
132.70625000000001
20
40.337500000000013
42
-0.41421356237309503
10
133.20625000000004
20
39.837499999999999
10
133.20625000000004
20
26.837499999999999
42
-0.41421356237309503
0
LWPOLYLINE
5
186
100
AcDbEntity
8
0
100
AcDbPolyline
90
8
70
1
43
0.0
10
94.606250000000003
20
26.337499999999999
10
81.606250000000017
20
26.337499999999991
42
-0.41421356237309503
10
81.106250000000003
20
26.837499999999999
10
81.106250000000003
20
39.837499999999999
42
-0.41421356237309503
10
81.606250000000017
20
40.337500000000006
10
94.606250000000003
20
40.337500000000013
42
-0.41421356237309503
10
95.106250000000017
20
39.837499999999999
10
95.106250000000017
20
26.837499999999999
42
-0.41421356237309503
0
LWPOLYLINE
5
187
100
AcDbEntity
8
0
100
AcDbPolyline
90
8
70
1
43
0.0
10
37.456249999999997
20
26.337499999999999
10
24.456250000000001
20
26.337499999999991
42
-0.41421356237309503
10
23.956249999999994
20
26.837499999999999
10
23.956249999999997
20
39.837499999999999
42
-0.41421356237309503
10
24.456250000000001
20
40.337500000000006
10
37.456249999999997
20
40.337500000000013
42
-0.41421356237309503
10
37.956250000000004
20
39.837499999999999
10
37.956249999999997
20
26.837499999999999
42
-0.41421356237309503
0
LWPOLYLINE
5
188
100
AcDbEntity
8
0
100
AcDbPolyline
90
8
70
1
43
0.0
10
113.65625000000001
20
26.337499999999999
10
100.65625
20
26.337499999999991
42
-0.41421356237309503
10
100.15625
20
26.837499999999999
10
100.15625
20
39.837499999999999
42
-0.41421356237309503
10
100.65625
20
40.337500000000006
10
113.65625000000001
20
40.337500000000013
42
-0.41421356237309503
10
114.15625000000003
20
39.837499999999999
10
114.15625000000003
20
26.837499999999999
42
-0.41421356237309503
0
LWPOLYLINE
5
189
100
AcDbEntity
8
0
100
AcDbPolyline
90
8
70
1
43
0.0
10
56.506250000000009
20
26.337499999999999
10
43.506250000000001
20
26.337499999999991
42
-0.41421356237309503
10
43.006249999999994
20
26.837499999999999
10
43.006250000000001
20
39.837499999999999
42
-0.41421356237309503
10
43.506250000000001
20
40.337500000000006
10
56.506250000000009
20
40.337500000000013
42
-0.41421356237309503
10
57.006250000000016
20
39.837499999999999
10
57.006250000000009
20
26.837499999999999
42
-0.41421356237309503
0
LWPOLYLINE
5
190
100
AcDbEntity
8
0
100
AcDbPolyline
90
8
70
1
43
0.0
10
75.556250000000006
20
26.337499999999999
10
62.556250000000006
20
26.337499999999991
42
-0.41421356237309503
10
62.056249999999991
20
26.837499999999999
10
62.056249999999991
20
39.837499999999999
42
-0.41421356237309503
10
62.556250000000006
20
40.337500000000006
10
75.556250000000006
20
40.337500000000013
42
-0.41421356237309503
10
76.05625000000002
20
39.837499999999999
10
76.056250000000006
20
26.837499999999999
42
-0.41421356237309503
0
LWPOLYLINE
5
191
100
AcDbEntity
8
0
100
AcDbPolyline
90
8
70
1
43
0.0
10
151.75624999999999
20
26.337499999999999
42
0.41421356237309503
10
152.25625000000002
20
26.837499999999999
10
152.25625000000002
20
39.837499999999999
42
0.41421356237309503
10
151.75624999999999
20
40.337500000000006
10
138.75624999999999
20
40.337500000000006
42
0.41421356237309503
10
138.25624999999999
20
39.837499999999999
10
138.25624999999999
20
26.837499999999999
42
0.41421356237309503
10
138.75624999999999
20
26.337499999999999
0
LWPOLYLINE
5
192
100
AcDbEntity
8
0
100
AcDbPolyline
90
8
70
1
43
0.0
10
170.80625000000001
20
2.5249999999999999
10
157.80625000000001
20
2.5249999999999928
42
-0.41421356237309503
10
157.30625000000001
20
3.0249999999999999
10
157.30625000000001
20
16.024999999999999
42
-0.41421356237309503
10
157.80625000000001
20
16.525000000000002
10
170.80625000000001
20
16.525000000000006
42
-0.41421356237309503
10
171.30625000000003
20
16.024999999999999
10
171.30625000000003
20
3.0249999999999999
42
-0.41421356237309503
0
LWPOLYLINE
5
193
100
AcDbEntity
8
0
100
AcDbPolyline
90
8
70
1
43
0.0
10
168.42500000000001
20
64.4375
10
150.66200000000003
20
64.4375
42
-0.41421356237309503
10
150.16200000000001
20
64.9375
10
150.16200000000001
20
77.9375
42
-0.41421356237309503
10
150.66200000000003
20
78.4375
10
168.42500000000001
20
78.437500000000014
42
-0.41421356237309503
10
168.92500000000001
20
77.9375
10
168.92500000000001
20
64.9375
42
-0.41421356237309503
0
CIRCLE
5
194
100
AcDbEntity
8
0
100
AcDbCircle
10
-39.100000000000001
20
122.253000858479
30
0
40
1.5000000000000002
210
-2.7755575615628901e-17
220
-1.38777878078145e-17
230
1
0
CIRCLE
5
195
100
AcDbEntity
8
0
100
AcDbCircle
10
101.0125
20
122.25300055126901
30
0
40
1.5000000000000002
210
-2.7755575615628901e-17
220
-1.38777878078145e-17
230
1
0
CIRCLE
5
196
100
AcDbEntity
8
0
100
AcDbCircle
10
-145.256125
20
-3.0000000104605102
30
5.9604639446320107e-07
40
1.5000000000000002
210
-2.7755575615628901e-17
220
-1.38777878078145e-17
230
1
0
CIRCLE
5
197
100
AcDbEntity
8
0
100
AcDbCircle
10
30.956624999999999
20
-2.9999999895351999
30
0
40
1.5000000000000002
210
-2.7755575615628901e-17
220
-1.38777878078145e-17
230
1
0
CIRCLE
5
198
100
AcDbEntity
8
0
100
AcDbCircle
10
148.83125000000001
20
-3.0000000000000004
30
0
40
1.5000000000000002
210
-2.7755575615628901e-17
220
-1.38777878078145e-17
230
1
0
CIRCLE
5
199
100
AcDbEntity
8
0
100
AcDbCircle
10
-86.918000000000006
20
-2.99999997907035
30
0
40
1.5000000000000002
210
-2.7755575615628901e-17
220
-1.38777878078145e-17
230
1
0
CIRCLE
5
200
100
AcDbEntity
8
0
100
AcDbCircle
10
-145.256125482068
20
122.25300025107801
30
5.9604639446320107e-07
40
1.5000000000000002
210
-2.7755575615628901e-17
220
-1.38777878078145e-17
230
1
0
CIRCLE
5
201
100
AcDbEntity
8
0
100
AcDbCircle
10
159.54374999999999
20
122.25300055126901
30
0
40
1.5000000000000002
210
-2.7755575615628901e-17
220
-1.38777878078145e-17
230
1
0
CIRCLE
5
202
100
AcDbEntity
8
0
100
AcDbCircle
10
-97.631249991555507
20
122.25300093156801
30
0
40
1.5000000000000002
210
-2.7755575615628901e-17
220
-1.38777878078145e-17
230
1
0
ENDSEC
0
SECTION
2
OBJECTS
0
DICTIONARY
5
C
100
AcDbDictionary
3
ACAD_GROUP
350
D
3
ACAD_MLINESTYLE
350
17
0
DICTIONARY
5
D
100
AcDbDictionary
0
DICTIONARY
5
1A
330
C
100
AcDbDictionary
0
DICTIONARY
5
17
100
AcDbDictionary
0
ENDSEC
0
EOF
