0
SECTION
2
HEADER
9
$INSUNITS
70
4
9
$ACADVER
1
AC1014
9
$HANDSEED
5
FFFF
0
ENDSEC
0
SECTION
2
TABLES
0
TABLE
2
VPORT
5
8
100
AcDbSymbolTable
0
ENDTAB
0
TABLE
2
LTYPE
5
5
100
AcDbSymbolTable
0
LTYPE
5
14
100
AcDbSymbolTableRecord
100
AcDbLinetypeTableRecord
2
BYBLOCK
70
0
0
LTYPE
5
15
100
AcDbSymbolTableRecord
100
AcDbLinetypeTableRecord
2
BYLAYER
70
0
0
ENDTAB
0
TABLE
2
LAYER
5
2
100
AcDbSymbolTable
70
2
0
LAYER
5
50
100
AcDbSymbolTableRecord
100
AcDbLayerTableRecord
2
0
70
0
6
CONTINUOUS
0
ENDTAB
0
TABLE
2
STYLE
5
3
100
AcDbSymbolTable
70
1
0
STYLE
5
11
100
AcDbSymbolTableRecord
100
AcDbTextStyleTableRecord
2
STANDARD
70
0
0
ENDTAB
0
TABLE
2
VIEW
5
6
100
AcDbSymbolTable
70
0
0
ENDTAB
0
TABLE
2
UCS
5
7
100
AcDbSymbolTable
70
0
0
ENDTAB
0
TABLE
2
APPID
5
9
100
AcDbSymbolTable
70
2
0
APPID
5
12
100
AcDbSymbolTableRecord
100
AcDbRegAppTableRecord
2
ACAD
70
0
0
ENDTAB
0
TABLE
2
DIMSTYLE
5
A
100
AcDbSymbolTable
70
1
0
ENDTAB
0
TABLE
2
BLOCK_RECORD
5
1
100
AcDbSymbolTable
70
1
0
BLOCK_RECORD
5
1F
100
AcDbSymbolTableRecord
100
AcDbBlockTableRecord
2
*MODEL_SPACE
0
BLOCK_RECORD
5
1B
100
AcDbSymbolTableRecord
100
AcDbBlockTableRecord
2
*PAPER_SPACE
0
ENDTAB
0
ENDSEC
0
SECTION
2
BLOCKS
0
BLOCK
5
20
100
AcDbEntity
100
AcDbBlockBegin
2
*MODEL_SPACE
0
ENDBLK
5
21
100
AcDbEntity
100
AcDbBlockEnd
0
BLOCK
5
1C
100
AcDbEntity
100
AcDbBlockBegin
2
*PAPER_SPACE
0
ENDBLK
5
1D
100
AcDbEntity
100
AcDbBlockEnd
0
ENDSEC
0
SECTION
2
ENTITIES
0
LWPOLYLINE
5
100
100
AcDbEntity
8
0
100
AcDbPolyline
90
211
70
1
43
0.0
10
-372.22500000000002
20
206.229084469561
10
-385.22500000000008
20
206.229084469561
42
-0.41421356237309503
10
-385.72500000000002
20
206.72908446956097
10
-385.72500000000002
20
220.22908446956097
10
-387.25
20
220.22908446956097
42
0.41421356237309503
10
-388.25
20
219.22908446956097
10
-388.25
20
169.11508460915397
42
0.41421352248454779
10
-387.25000013618802
20
168.115084609154
10
-385.72500017435664
20
168.11508440146719
10
-385.72500000000002
20
181.62908446956098
42
-0.41421356237309503
10
-385.22500000000008
20
182.12908446956101
10
-372.22500000000002
20
182.12908446956095
42
-0.41421356237309503
10
-371.72500000000008
20
181.62908446956098
10
-371.72500000000002
20
168.62908446956098
42
-0.41421356237309503
10
-372.22500000000002
20
168.12908446956098
10
-384.93485945301109
20
168.12908446956089
42
-0.53047282625789549
10
-385.00867991976099
20
163.07908446956094
10
-372.22500000000002
20
163.07908446956094
42
-0.41421356237309503
10
-371.72500000000008
20
162.57908446956097
10
-371.72500000000002
20
149.57908446956097
42
-0.41421356237309503
10
-372.22500000000002
20
149.07908446956097
10
-385.22500000000008
20
149.079084469561
42
-0.41421356237309503
10
-385.72500000000002
20
149.57908446956097
10
-385.725000000004
20
163.06508445466199
10
-387.25000000000506
20
163.06508445465496
42
0.41421356237161744
10
-388.25
20
162.06508445465494
10
-388.25
20
148.55408446956096
42
0.41421356237309503
10
-386.25
20
146.55408446956096
10
-379.35794262192803
20
146.55408446492584
42
-0.16576241258432822
10
-379.05254089494093
20
146.44997559283007
10
-374.29930464503104
20
142.78319334593598
42
0.16576241258465052
10
-373.993902918044
20
142.67908447383914
10
-370.687496840373
20
142.67908447383996
42
0.41421356237309503
10
-370.18749684037914
20
143.17908447383397
10
-370.1874968403792
20
145.55408446492385
42
-1.0000211631545086
10
-368.18749684066455
20
145.55404705883896
10
-368.18749683278901
20
143.17908447236596
42
0.41421356138017679
10
-367.68749683256908
20
142.67908447384127
10
-364.38109075630103
20
142.67908447384198
42
0.16576241274630055
10
-364.07568902905723
20
142.78319334613226
10
-359.32245277381708
20
146.44997560191004
42
-0.16576241176337375
10
-359.017051048501
20
146.55408447419569
10
-315.57500001490098
20
146.55408446956096
42
0.41421356237309503
10
-314.57500001490098
20
147.55408446956096
10
-314.57500001490098
20
149.07908446956097
10
-328.07499999999999
20
149.079084469561
42
-0.41421356237309503
10
-328.57499999999993
20
149.57908446956097
10
-328.57500000000005
20
162.57908446956097
42
-0.41421356237309503
10
-328.07499999999999
20
163.079084469561
10
-315.07499999999999
20
163.079084469561
42
-0.41421356237309503
10
-314.57499999999999
20
162.57908446956097
10
-314.57500000000005
20
149.789895705791
42
-0.53037179296757542
10
-309.52499999999998
20
149.78989570579097
10
-309.52499999999998
20
162.57908446956097
42
-0.41421356237309503
10
-309.02499999999998
20
163.079084469561
10
-296.02499999999998
20
163.079084469561
42
-0.41421356237309503
10
-295.52499999999998
20
162.57908446956097
10
-295.52499999999998
20
149.57908446956097
42
-0.41421356237309503
10
-296.02499999999998
20
149.07908446956097
10
-309.52499998509899
20
149.07908446956097
10
-309.52499998509899
20
147.55408446956096
42
0.41421356237309503
10
-308.52499998509899
20
146.55408446956096
10
-303.17044578134602
20
146.55408446492584
42
-0.16576241258434818
10
-302.86504405435892
20
146.44997559283007
10
-298.11180780447
20
142.78319334595196
42
0.16576241258432714
10
-297.80640607748302
20
142.67908447385614
10
-294.49999999979099
20
142.67908447385696
42
0.41421356237309503
10
-293.99999999979718
20
143.17908447384997
10
-293.99999999979713
20
145.55408446492123
42
-1.00002116315582
10
-292.00000000008254
20
145.55404705883896
10
-291.99999999220699
20
143.17908447238196
42
0.41421356138017679
10
-291.49999999198701
20
142.6790844738573
10
-288.19359391569799
20
142.67908447385798
42
0.16576241274658546
10
-287.88819218845379
20
142.78319334614864
10
-283.13495593323512
20
146.44997560191004
42
-0.16576241176335549
10
-282.82955420791905
20
146.55408447419569
10
-188.87044578134604
20
146.55408446492584
42
-0.16576241258434818
10
-188.56504405435891
20
146.44997559283007
10
-183.811807804502
20
142.78319334597597
42
0.16576241258432714
10
-183.50640607751501
20
142.67908447388015
10
-180.19999999979103
20
142.67908447388098
42
0.41421356237309503
10
-179.6999999997972
20
143.17908447387498
10
-179.69999999979709
20
145.55408446492385
42
-1.0000211631545086
10
-177.7000000000825
20
145.55404705883896
10
-177.69999999220701
20
143.17908447240697
42
0.4142135613807803
10
-177.19999999198703
20
142.67908447388126
10
-173.893593915666
20
142.67908447388297
42
0.16576241274588988
10
-173.58819218842285
20
142.78319334617277
10
-168.83495593323505
20
146.44997560191007
42
-0.16576241176335926
10
-168.52955420791901
20
146.55408447419569
10
-163.175000014636
20
146.55408446956096
42
0.41421356237309503
10
-162.175000014636
20
147.55408446956096
10
-162.17500001463603
20
149.07908446956097
10
-175.67500000000001
20
149.07908446956097
42
-0.41421356237309503
10
-176.17500000000004
20
149.57908446956097
10
-176.17500000000004
20
162.57908446956097
42
-0.41421356237309503
10
-175.67500000000001
20
163.079084469561
10
-162.67500000000001
20
163.079084469561
42
-0.41421356237309503
10
-162.17500000000001
20
162.57908446956097
10
-162.17499999999995
20
149.78989571031693
42
-0.53037179296757442
10
-157.12499999999994
20
149.78989571109901
10
-157.12500000000003
20
162.57908446956097
42
-0.41421356237309503
10
-156.625
20
163.079084469561
10
-143.625
20
163.079084469561
42
-0.41421356237309503
10
-143.12500000000003
20
162.57908446956097
10
-143.125
20
149.57908446956097
42
-0.41421356237309503
10
-143.625
20
149.07908446956097
10
-157.12499998483401
20
149.07908446956097
10
-157.12499998483401
20
147.55408446956096
42
0.41421356237309503
10
-156.12499998483401
20
146.55408446956096
10
-112.67044578134602
20
146.55408446492584
42
-0.16576241258433541
10
-112.36504405435893
20
146.44997559283007
10
-107.611807804523
20
142.78319334599297
42
0.16576241258432714
10
-107.306406077536
20
142.67908447389715
10
-103.99999999979102
20
142.67908447389698
42
0.41421356237309503
10
-103.49999999979718
20
143.17908447389098
10
-103.49999999979713
20
145.55408446492123
42
-1.00002116315582
10
-101.50000000008251
20
145.55404705883896
10
-101.49999999220699
20
143.17908447242297
42
0.41421356138017679
10
-100.99999999198701
20
142.67908447389831
10
-97.693593915644783
20
142.67908447389897
42
0.16576241274602119
10
-97.388192188401462
20
142.78319334618902
10
-92.634955933235005
20
146.4499756019101
42
-0.16576241127219646
10
-92.329554208874995
20
146.55408447419569
10
-85.449999999999733
20
146.55408446956096
42
0.41421356237309764
10
-83.449999999999719
20
148.55408446956096
10
-83.449999999999704
20
164.57908446956097
42
0.41421356237310025
10
-84.449999999999719
20
165.579084469561
10
-85.499999999999716
20
165.579084469561
42
-0.99999999999999989
10
-85.499999999999687
20
170.67908446956096
10
-84.449999999999719
20
170.67908446956096
42
0.41421356237310025
10
-83.449999999999704
20
171.67908446956096
10
-83.449999999999704
20
219.204084469561
42
0.41421356237310025
10
-84.449999999999719
20
220.204084469561
10
-85.499999999999716
20
220.204084469561
42
-0.99999999999999989
10
-85.499999999999687
20
225.30408446956099
10
-84.449999999999719
20
225.30408446956099
42
0.41421356237310025
10
-83.449999999999704
20
226.30408446956096
10
-83.449999999999704
20
239.80408446956096
42
0.41421356237309764
10
-85.449999999999733
20
241.80408446956096
10
-108.948727510002
20
241.80408447419609
42
-0.16576241258431693
10
-109.25412923698907
20
241.90819334629185
10
-114.021624746239
20
245.58597559323997
42
0.16576241258485494
10
-114.32702647322699
20
245.69008446533584
10
-117.61917329155601
20
245.69008446533599
42
0.41421356237251233
10
-118.11917329154983
20
245.19008446534198
10
-118.11917329155091
20
242.80408447419975
42
-1.00002116315582
10
-120.1191732912655
20
242.80412188028396
10
-120.119173299178
20
245.19008446680897
42
0.41421356138080112
10
-120.61917329939803
20
245.69008446533468
10
-123.91132011630802
20
245.690084465334
42
0.16576241274577314
10
-124.21672184355077
20
245.58597559304366
10
-128.98421735811294
20
241.90819333721191
42
-0.16576241127224176
10
-129.28961908247302
20
241.80408446492629
10
-150.50625000005201
20
241.80408446956096
42
0.41421356237309503
10
-151.50625000005201
20
240.80408446956096
10
-151.50625000005198
20
239.75408446555701
42
-0.99999999999999989
10
-156.606250000052
20
239.75408446555701
10
-156.606250000052
20
240.80408446956096
42
0.41421356237308982
10
-157.606250000052
20
241.80408446956096
10
-285.51875000005202
20
241.80408446956096
42
0.41421356237309503
10
-286.51875000005202
20
240.80408446956096
10
-286.51875000005202
20
239.75408446893897
42
-0.99999999999999989
10
-291.61875000005199
20
239.75408446904498
10
-291.61875000005199
20
240.80408446956096
42
0.41421356237309503
10
-292.61875000005199
20
241.80408446956096
10
-311.40455421714103
20
241.80408447503811
42
-0.16576241258430255
10
-311.70995594412807
20
241.90819334713385
10
-316.47745145223001
20
245.58597559319597
42
0.165762412585064
10
-316.78285317921802
20
245.69008446529321
10
-320.07499999426102
20
245.69008446529196
42
0.41421356237367774
10
-320.57499999868946
20
245.19008446086301
10
-320.5749999986898
20
242.80408447503669
42
-1.0000211630063034
10
-322.57499999840456
20
242.80412188083201
10
-322.57500000634701
20
245.19008446673598
42
0.41421356139833465
10
-323.07500000656802
20
245.69008446529114
10
-326.36714682459706
20
245.69008446612
42
0.16576241274665479
10
-326.67254855183529
20
245.58597559300236
10
-331.44004406525136
20
241.90819333805337
42
-0.16576241127263369
10
-331.74544578961206
20
241.80408446576729
10
-334.12044579112501
20
241.80408446724383
10
-359.02955421865408
20
241.80408447419612
42
-0.16576241258428817
10
-359.33495594564107
20
241.90819334629185
10
-364.10245145482202
20
245.58597559318596
42
0.16576241258520358
10
-364.40785318181008
20
245.69008446528284
10
-367.700000000209
20
245.69008446528198
42
0.41421356237309503
10
-368.20000000020286
20
245.19008446528798
10
-368.20000000020281
20
242.80408447419975
42
-1.00002116315582
10
-370.19999999991745
20
242.80412188028396
10
-370.20000000783
20
245.19008446675596
42
0.41421356138079074
10
-370.70000000805004
20
245.69008446528164
10
-373.99214682502901
20
245.69008446528099
42
0.16576241274620929
10
-374.29754855227264
20
245.58597559299076
10
-379.06504406676493
20
241.90819333721194
42
-0.16576241127225042
10
-379.37044579112501
20
241.80408446492629
10
-386.25
20
241.80408446956096
42
0.41421356237309503
10
-388.25
20
239.80408446956096
10
-388.25
20
226.27908446956098
42
0.41421356237309503
10
-387.25
20
225.27908446956098
10
-385.72500000000002
20
225.27908446956101
10
-385.72500000000002
20
238.77908446956098
42
-0.41421356237309503
10
-385.22500000000008
20
239.27908446956098
10
-372.22500000000002
20
239.27908446956096
42
-0.41421356237309503
10
-371.72500000000008
20
238.77908446956098
10
-371.72500000000002
20
225.77908446956098
42
-0.41421356237309503
10
-372.22500000000002
20
225.27908446956098
10
-384.69062928605803
20
225.27908446956107
42
-0.41767496477542121
10
-384.69062928605803
20
220.22908446956092
10
-372.22500000000002
20
220.22908446956095
42
-0.41421356237309503
10
-371.72500000000008
20
219.72908446956097
10
-371.72500000000008
20
206.72908446956097
42
-0.41421356237309503
0
LWPOLYLINE
5
101
100
AcDbEntity
8
0
100
AcDbPolyline
90
8
70
1
43
0.0
10
-224.58750000000003
20
206.229084469561
10
-237.58750000000003
20
206.22908446956097
42
-0.41421356237309503
10
-238.08750000000003
20
206.72908446956097
10
-238.08750000000003
20
219.72908446956097
42
-0.41421356237309503
10
-237.58750000000003
20
220.22908446956097
10
-224.58750000000003
20
220.22908446956097
42
-0.41421356237309503
10
-224.08750000000001
20
219.72908446956097
10
-224.08750000000003
20
206.72908446956097
42
-0.41421356237309503
0
LWPOLYLINE
5
102
100
AcDbEntity
8
0
100
AcDbPolyline
90
8
70
1
43
0.0
10
-242.34999999999999
20
182.12908446956101
10
-229.35000000000002
20
182.12908446956101
42
-0.41421356237309503
10
-228.85000000000002
20
181.62908446956098
10
-228.85000000000002
20
168.62908446956098
42
-0.41421356237309503
10
-229.35000000000002
20
168.12908446956098
10
-242.34999999999999
20
168.12908446956098
42
-0.41421356237309503
10
-242.84999999999999
20
168.62908446956098
10
-242.84999999999999
20
181.62908446956098
42
-0.41421356237309503
0
LWPOLYLINE
5
103
100
AcDbEntity
8
0
100
AcDbPolyline
90
8
70
1
43
0.0
10
-274.8125
20
238.77908446956098
10
-274.8125
20
223.77908446956098
42
-0.41421356237309503
10
-275.3125
20
223.27908446956098
10
-282.11250000000001
20
223.27908446956098
42
-0.41421356237309503
10
-282.61250000000007
20
223.77908446956098
10
-282.61250000000007
20
238.77908446956098
42
-0.41421356237309503
10
-282.11250000000001
20
239.27908446956098
10
-275.3125
20
239.27908446956096
42
-0.41421356237309503
0
LWPOLYLINE
5
104
100
AcDbEntity
8
0
100
AcDbPolyline
90
8
70
1
43
0.0
10
-88.85624999999969
20
187.17908446956096
10
-101.85575
20
187.17908446956096
42
-0.41421356237309503
10
-102.35574999999999
20
187.67908446956096
10
-102.35575
20
200.67908446956096
42
-0.41421356237309503
10
-101.85575
20
201.17908446956096
10
-88.85624999999969
20
201.17908446956096
42
-0.4142135623730846
10
-88.356249999999704
20
200.67908446956096
10
-88.356249999999704
20
187.67908446956099
42
-0.4142135623730846
0
LWPOLYLINE
5
105
100
AcDbEntity
8
0
100
AcDbPolyline
90
8
70
1
43
0.0
10
-91.237499999999727
20
225.27908446956101
10
-104.23749999999998
20
225.27908446956098
42
-0.41421356237310542
10
-104.73749999999998
20
225.77908446956098
10
-104.73749999999997
20
238.77908446956098
42
-0.41421356237310542
10
-104.23749999999998
20
239.27908446956096
10
-91.237499999999727
20
239.27908446956098
42
-0.41421356237310542
10
-90.737499999999699
20
238.77908446956098
10
-90.737499999999741
20
225.77908446956101
42
-0.41421356237310542
0
LWPOLYLINE
5
106
100
AcDbEntity
8
0
100
AcDbPolyline
90
8
70
1
43
0.0
10
-172.19999999999999
20
168.12908446956098
42
0.41421356237309503
10
-171.69999999999999
20
168.62908446956098
10
-171.69999999999999
20
181.62908446956098
42
0.41421356237309503
10
-172.19999999999999
20
182.12908446956101
10
-185.19999999999999
20
182.12908446956101
42
0.41421356237309503
10
-185.69999999999999
20
181.62908446956098
10
-185.69999999999999
20
168.62908446956098
42
0.41421356237309503
10
-185.19999999999999
20
168.12908446956098
0
LWPOLYLINE
5
107
100
AcDbEntity
8
0
100
AcDbPolyline
90
8
70
1
43
0.0
10
-210.30000000000001
20
168.12908446956098
42
0.41421356237309503
10
-209.80000000000001
20
168.62908446956098
10
-209.80000000000001
20
181.62908446956098
42
0.41421356237309503
10
-210.30000000000001
20
182.12908446956101
10
-223.30000000000001
20
182.12908446956101
42
0.41421356237309503
10
-223.80000000000001
20
181.62908446956098
10
-223.80000000000001
20
168.62908446956098
42
0.41421356237309503
10
-223.30000000000001
20
168.12908446956098
0
LWPOLYLINE
5
108
100
AcDbEntity
8
0
100
AcDbPolyline
90
8
70
1
43
0.0
10
-191.25
20
168.12908446956098
10
-204.25
20
168.12908446956098
42
-0.41421356237309503
10
-204.75
20
168.62908446956098
10
-204.75
20
181.62908446956098
42
-0.41421356237309503
10
-204.25
20
182.12908446956101
10
-191.25
20
182.12908446956101
42
-0.41421356237309503
10
-190.75
20
181.62908446956098
10
-190.75
20
168.62908446956098
42
-0.41421356237309503
0
LWPOLYLINE
5
109
100
AcDbEntity
8
0
100
AcDbPolyline
90
8
70
1
43
0.0
10
-153.15000000000001
20
168.12908446956098
10
-166.15000000000003
20
168.12908446956098
42
-0.41421356237309503
10
-166.65000000000003
20
168.62908446956098
10
-166.65000000000003
20
181.62908446956098
42
-0.41421356237309503
10
-166.15000000000003
20
182.12908446956101
10
-153.15000000000001
20
182.12908446956101
42
-0.41421356237309503
10
-152.65000000000003
20
181.62908446956098
10
-152.65000000000001
20
168.62908446956098
42
-0.41421356237309503
0
LWPOLYLINE
5
110
100
AcDbEntity
8
0
100
AcDbPolyline
90
8
70
1
43
0.0
10
-134.09999999999999
20
168.12908446956098
10
-147.10000000000002
20
168.12908446956101
42
-0.41421356237309503
10
-147.59999999999999
20
168.62908446956098
10
-147.60000000000002
20
181.62908446956098
42
-0.41421356237309503
10
-147.10000000000002
20
182.12908446956101
10
-134.09999999999999
20
182.12908446956101
42
-0.41421356237309503
10
-133.60000000000002
20
181.62908446956098
10
-133.59999999999999
20
168.62908446956098
42
-0.41421356237309503
0
LWPOLYLINE
5
111
100
AcDbEntity
8
0
100
AcDbPolyline
90
8
70
1
43
0.0
10
-115.05000000000003
20
168.12908446956098
42
0.41421356237310542
10
-114.55000000000001
20
168.62908446956098
10
-114.55000000000001
20
181.62908446956098
42
0.41421356237310542
10
-115.05000000000003
20
182.12908446956101
10
-128.05000000000001
20
182.12908446956101
42
0.41421356237310542
10
-128.55000000000004
20
181.62908446956098
10
-128.55000000000001
20
168.62908446956098
42
0.41421356237310542
10
-128.05000000000001
20
168.12908446956098
0
LWPOLYLINE
5
112
100
AcDbEntity
8
0
100
AcDbPolyline
90
8
70
1
43
0.0
10
-91.237499999999727
20
168.12908446956098
10
-104.23749999999998
20
168.12908446956101
42
-0.41421356237310542
10
-104.73749999999998
20
168.62908446956098
10
-104.73750000000001
20
181.62908446956095
42
-0.41421356237310542
10
-104.23749999999998
20
182.12908446956101
10
-91.237499999999727
20
182.12908446956101
42
-0.41421356237310542
10
-90.737499999999699
20
181.62908446956098
10
-90.737499999999699
20
168.62908446956098
42
-0.41421356237310542
0
LWPOLYLINE
5
113
100
AcDbEntity
8
0
100
AcDbPolyline
90
8
70
1
43
0.0
10
-214.27500000000003
20
149.57908446956097
10
-214.27500000000003
20
162.57908446956097
42
-0.41421356237309503
10
-213.77500000000001
20
163.079084469561
10
-200.77500000000001
20
163.079084469561
42
-0.41421356237309503
10
-200.27500000000001
20
162.57908446956097
10
-200.27500000000001
20
149.57908446956097
42
-0.41421356237309503
10
-200.77500000000001
20
149.07908446956097
10
-213.77500000000001
20
149.07908446956097
42
-0.41421356237309503
0
LWPOLYLINE
5
114
100
AcDbEntity
8
0
100
AcDbPolyline
90
8
70
1
43
0.0
10
-181.72499999999999
20
149.07908446956097
10
-194.72499999999999
20
149.07908446956097
42
-0.41421356237309503
10
-195.22500000000002
20
149.57908446956097
10
-195.22500000000002
20
162.57908446956097
42
-0.41421356237309503
10
-194.72499999999999
20
163.079084469561
10
-181.72499999999999
20
163.079084469561
42
-0.41421356237309503
10
-181.22499999999999
20
162.57908446956097
10
-181.22499999999999
20
149.57908446956097
42
-0.41421356237309503
0
LWPOLYLINE
5
115
100
AcDbEntity
8
0
100
AcDbPolyline
90
8
70
1
43
0.0
10
-238.87500000000003
20
149.07908446956097
10
-251.875
20
149.07908446956097
42
-0.41421356237309503
10
-252.375
20
149.57908446956097
10
-252.375
20
162.57908446956097
42
-0.41421356237309503
10
-251.875
20
163.079084469561
10
-238.87500000000003
20
163.079084469561
42
-0.41421356237309503
10
-238.37500000000003
20
162.57908446956097
10
-238.37500000000003
20
149.57908446956097
42
-0.41421356237309503
0
LWPOLYLINE
5
116
100
AcDbEntity
8
0
100
AcDbPolyline
90
8
70
1
43
0.0
10
-219.82500000000002
20
149.07908446956097
10
-232.82499999999999
20
149.07908446956097
42
-0.41421356237309503
10
-233.32499999999999
20
149.57908446956097
10
-233.32499999999999
20
162.57908446956097
42
-0.41421356237309503
10
-232.82499999999999
20
163.079084469561
10
-219.82500000000002
20
163.079084469561
42
-0.41421356237309503
10
-219.32500000000002
20
162.57908446956097
10
-219.32500000000002
20
149.57908446956097
42
-0.41421356237309503
0
LWPOLYLINE
5
117
100
AcDbEntity
8
0
100
AcDbPolyline
90
8
70
1
43
0.0
10
-105.52500000000002
20
149.07908446956097
42
0.41421356237309503
10
-105.02500000000001
20
149.57908446956097
10
-105.02500000000003
20
162.57908446956097
42
0.41421356237309503
10
-105.52500000000002
20
163.079084469561
10
-118.52499999999999
20
163.079084469561
42
0.41421356237310542
10
-119.02500000000003
20
162.57908446956097
10
-119.02500000000001
20
149.57908446956097
42
0.41421356237310542
10
-118.52499999999999
20
149.07908446956097
0
LWPOLYLINE
5
118
100
AcDbEntity
8
0
100
AcDbPolyline
90
8
70
1
43
0.0
10
-86.474999999999724
20
149.07908446956097
10
-99.474999999999696
20
149.07908446956097
42
-0.41421356237309503
10
-99.97499999999971
20
149.57908446956097
10
-99.97499999999971
20
162.57908446956097
42
-0.41421356237309503
10
-99.474999999999696
20
163.079084469561
10
-86.474999999999724
20
163.079084469561
42
-0.41421356237310542
10
-85.974999999999696
20
162.57908446956097
10
-85.974999999999696
20
149.57908446956097
42
-0.41421356237310542
0
LWPOLYLINE
5
119
100
AcDbEntity
8
0
100
AcDbPolyline
90
8
70
1
43
0.0
10
-124.57500000000003
20
149.07908446956097
10
-137.57499999999999
20
149.07908446956097
42
-0.41421356237309503
10
-138.07499999999999
20
149.57908446956097
10
-138.07500000000002
20
162.57908446956097
42
-0.41421356237309503
10
-137.57499999999999
20
163.079084469561
10
-124.57500000000003
20
163.079084469561
42
-0.41421356237310542
10
-124.07500000000002
20
162.57908446956097
10
-124.075
20
149.57908446956097
42
-0.41421356237310542
0
LWPOLYLINE
5
120
100
AcDbEntity
8
0
100
AcDbPolyline
90
8
70
1
43
0.0
10
-353.17500000000001
20
225.27908446956098
42
0.41421356237309503
10
-352.67500000000007
20
225.77908446956098
10
-352.67500000000007
20
238.77908446956098
42
0.41421356237309503
10
-353.17500000000001
20
239.27908446956098
10
-366.17500000000001
20
239.27908446956098
42
0.41421356237309503
10
-366.67500000000007
20
238.77908446956098
10
-366.67499999999995
20
225.77908446956098
42
0.41421356237309503
10
-366.17500000000001
20
225.27908446956101
0
LWPOLYLINE
5
121
100
AcDbEntity
8
0
100
AcDbPolyline
90
8
70
1
43
0.0
10
-334.125
20
225.27908446956098
42
0.41421356237309503
10
-333.62500000000006
20
225.77908446956098
10
-333.62500000000006
20
238.77908446956098
42
0.41421356237309503
10
-334.125
20
239.27908446956098
10
-347.125
20
239.27908446956098
42
0.41421356237309503
10
-347.625
20
238.77908446956098
10
-347.62499999999994
20
225.77908446956098
42
0.41421356237309503
10
-347.125
20
225.27908446956101
0
LWPOLYLINE
5
122
100
AcDbEntity
8
0
100
AcDbPolyline
90
8
70
1
43
0.0
10
-296.02499999999998
20
225.27908446956101
10
-309.02499999999998
20
225.27908446956098
42
-0.41421356237309503
10
-309.52499999999998
20
225.77908446956098
10
-309.52499999999998
20
238.77908446956098
42
-0.41421356237309503
10
-309.02499999999998
20
239.27908446956098
10
-296.02499999999998
20
239.27908446956098
42
-0.41421356237309503
10
-295.52499999999998
20
238.77908446956098
10
-295.52500000000003
20
225.77908446956098
42
-0.41421356237309503
0
LWPOLYLINE
5
123
100
AcDbEntity
8
0
100
AcDbPolyline
90
8
70
1
43
0.0
10
-215.0625
20
225.27908446956101
10
-228.06250000000003
20
225.27908446956098
42
-0.41421356237309503
10
-228.56250000000003
20
225.77908446956098
10
-228.56250000000003
20
238.77908446956098
42
-0.41421356237309503
10
-228.06250000000003
20
239.27908446956098
10
-215.0625
20
239.27908446956098
42
-0.41421356237309503
10
-214.5625
20
238.77908446956098
10
-214.56250000000006
20
225.77908446956098
42
-0.41421356237309503
0
LWPOLYLINE
5
124
100
AcDbEntity
8
0
100
AcDbPolyline
90
8
70
1
43
0.0
10
-147.59999999999997
20
225.77908446956098
10
-147.60000000000002
20
238.77908446956098
42
-0.41421356237309503
10
-147.10000000000002
20
239.27908446956098
10
-134.09999999999999
20
239.27908446956096
42
-0.41421356237309503
10
-133.60000000000002
20
238.77908446956098
10
-133.59999999999999
20
225.77908446956098
42
-0.41421356237309503
10
-134.09999999999999
20
225.27908446956098
10
-147.10000000000002
20
225.27908446956101
42
-0.41421356237309503
0
LWPOLYLINE
5
125
100
AcDbEntity
8
0
100
AcDbPolyline
90
8
70
1
43
0.0
10
-300.78750000000002
20
206.229084469561
10
-313.78750000000002
20
206.22908446956097
42
-0.41421356237309503
10
-314.28750000000002
20
206.72908446956097
10
-314.28750000000002
20
219.72908446956097
42
-0.41421356237309503
10
-313.78750000000002
20
220.22908446956097
10
-300.78750000000002
20
220.22908446956097
42
-0.41421356237309503
10
-300.28750000000002
20
219.72908446956097
10
-300.28750000000008
20
206.72908446956097
42
-0.41421356237309503
0
LWPOLYLINE
5
126
100
AcDbEntity
8
0
100
AcDbPolyline
90
8
70
1
43
0.0
10
-186.48750000000004
20
206.229084469561
10
-199.48750000000004
20
206.22908446956097
42
-0.41421356237309503
10
-199.98750000000004
20
206.72908446956097
10
-199.98750000000004
20
219.72908446956097
42
-0.41421356237309503
10
-199.48750000000004
20
220.22908446956097
10
-186.48750000000004
20
220.22908446956097
42
-0.41421356237309503
10
-185.98750000000001
20
219.72908446956097
10
-185.98750000000007
20
206.72908446956097
42
-0.41421356237309503
0
LWPOLYLINE
5
127
100
AcDbEntity
8
0
100
AcDbPolyline
90
8
70
1
43
0.0
10
-281.73750000000001
20
206.229084469561
10
-294.73750000000001
20
206.22908446956097
42
-0.41421356237309503
10
-295.23750000000001
20
206.72908446956097
10
-295.23750000000001
20
219.72908446956097
42
-0.41421356237309503
10
-294.73750000000001
20
220.22908446956097
10
-281.73750000000001
20
220.22908446956097
42
-0.41421356237309503
10
-281.23750000000001
20
219.72908446956097
10
-281.23750000000007
20
206.72908446956097
42
-0.41421356237309503
0
LWPOLYLINE
5
128
100
AcDbEntity
8
0
100
AcDbPolyline
90
8
70
1
43
0.0
10
-167.43750000000003
20
206.229084469561
10
-180.4375
20
206.22908446956097
42
-0.41421356237309503
10
-180.9375
20
206.72908446956097
10
-180.9375
20
219.72908446956097
42
-0.41421356237309503
10
-180.4375
20
220.22908446956097
10
-167.43750000000003
20
220.22908446956097
42
-0.41421356237309503
10
-166.9375
20
219.72908446956097
10
-166.93750000000006
20
206.72908446956097
42
-0.41421356237309503
0
LWPOLYLINE
5
129
100
AcDbEntity
8
0
100
AcDbPolyline
90
8
70
1
43
0.0
10
-205.53750000000002
20
206.229084469561
10
-218.53750000000002
20
206.22908446956097
42
-0.41421356237309503
10
-219.03750000000002
20
206.72908446956097
10
-219.03750000000002
20
219.72908446956097
42
-0.41421356237309503
10
-218.53750000000002
20
220.22908446956097
10
-205.53750000000002
20
220.22908446956097
42
-0.41421356237309503
10
-205.03749999999999
20
219.72908446956097
10
-205.03750000000002
20
206.72908446956097
42
-0.41421356237309503
0
LWPOLYLINE
5
130
100
AcDbEntity
8
0
100
AcDbPolyline
90
8
70
1
43
0.0
10
-161.88749999999999
20
206.72908446956097
10
-161.88749999999999
20
219.72908446956097
42
-0.41421356237309503
10
-161.38749999999999
20
220.22908446956097
10
-148.38749999999999
20
220.22908446956095
42
-0.4142135623730846
10
-147.88749999999999
20
219.72908446956097
10
-147.88749999999999
20
206.729084469561
42
-0.4142135623730846
10
-148.38749999999999
20
206.22908446956097
10
-161.38749999999999
20
206.22908446956097
42
-0.41421356237309503
0
LWPOLYLINE
5
131
100
AcDbEntity
8
0
100
AcDbPolyline
90
8
70
1
43
0.0
10
-341.26875000000007
20
187.17908446956096
10
-354.26875000000001
20
187.17908446956099
42
-0.41421356237309503
10
-354.76875000000001
20
187.67908446956096
10
-354.76875000000007
20
200.67908446956096
42
-0.41421356237309503
10
-354.26875000000001
20
201.17908446956096
10
-341.26875000000007
20
201.17908446956093
42
-0.41421356237309503
10
-340.76875000000007
20
200.67908446956096
10
-340.76875000000001
20
187.67908446956096
42
-0.41421356237309503
0
LWPOLYLINE
5
132
100
AcDbEntity
8
0
100
AcDbPolyline
90
8
70
1
43
0.0
10
-372.22500000000002
20
187.17908446956096
10
-385.22500000000008
20
187.17908446956099
42
-0.41421356237309503
10
-385.72500000000002
20
187.67908446956096
10
-385.72500000000002
20
200.67908446956096
42
-0.41421356237309503
10
-385.22500000000008
20
201.17908446956096
10
-372.22500000000002
20
201.17908446956093
42
-0.41421356237309503
10
-371.72500000000008
20
200.67908446956096
10
-371.72500000000002
20
187.67908446956096
42
-0.41421356237309503
0
LWPOLYLINE
5
133
100
AcDbEntity
8
0
100
AcDbPolyline
90
8
70
1
43
0.0
10
-98.381249999999696
20
206.229084469561
10
-111.38125000000002
20
206.22908446956097
42
-0.4142135623730846
10
-111.88124999999999
20
206.72908446956097
10
-111.88125000000001
20
219.72908446956097
42
-0.4142135623730846
10
-111.38125000000002
20
220.22908446956097
10
-98.381249999999696
20
220.22908446956097
42
-0.41421356237309503
10
-97.881249999999682
20
219.72908446956097
10
-97.881249999999724
20
206.72908446956097
42
-0.41421356237309503
0
LWPOLYLINE
5
134
100
AcDbEntity
8
0
100
AcDbPolyline
90
8
70
1
43
0.0
10
-129.33750000000003
20
206.22908446956097
42
0.41421356237310542
10
-128.83750000000003
20
206.72908446956097
10
-128.83750000000003
20
219.72908446956097
42
0.41421356237310542
10
-129.33750000000003
20
220.22908446956097
10
-142.33750000000001
20
220.22908446956097
42
0.41421356237309503
10
-142.83750000000001
20
219.72908446956097
10
-142.83750000000001
20
206.72908446956097
42
0.41421356237309503
10
-142.33750000000001
20
206.229084469561
0
LWPOLYLINE
5
135
100
AcDbEntity
8
0
100
AcDbPolyline
90
8
70
1
43
0.0
10
-253.16249999999999
20
187.17908446956096
10
-266.16250000000002
20
187.17908446956096
42
-0.41421356237309503
10
-266.66250000000002
20
187.67908446956096
10
-266.66250000000002
20
200.67908446956096
42
-0.41421356237309503
10
-266.16250000000002
20
201.17908446956096
10
-253.16249999999999
20
201.17908446956096
42
-0.41421356237309503
10
-252.66249999999999
20
200.67908446956096
10
-252.66249999999999
20
187.67908446956096
42
-0.41421356237309503
0
LWPOLYLINE
5
136
100
AcDbEntity
8
0
100
AcDbPolyline
90
8
70
1
43
0.0
10
-176.96250000000003
20
187.17908446956096
10
-189.96250000000001
20
187.17908446956096
42
-0.41421356237309503
10
-190.46250000000001
20
187.67908446956096
10
-190.46250000000001
20
200.67908446956096
42
-0.41421356237309503
10
-189.96250000000001
20
201.17908446956096
10
-176.96250000000003
20
201.17908446956096
42
-0.41421356237309503
10
-176.46250000000003
20
200.67908446956096
10
-176.46250000000003
20
187.67908446956096
42
-0.41421356237309503
0
LWPOLYLINE
5
137
100
AcDbEntity
8
0
100
AcDbPolyline
90
8
70
1
43
0.0
10
-209.51250000000002
20
187.67908446956096
10
-209.51250000000002
20
200.67908446956096
42
-0.41421356237309503
10
-209.01250000000002
20
201.17908446956096
10
-196.01249999999999
20
201.17908446956096
42
-0.41421356237309503
10
-195.51249999999999
20
200.67908446956096
10
-195.51249999999999
20
187.67908446956096
42
-0.41421356237309503
10
-196.01249999999999
20
187.17908446956096
10
-209.01250000000002
20
187.17908446956096
42
-0.41421356237309503
0
LWPOLYLINE
5
138
100
AcDbEntity
8
0
100
AcDbPolyline
90
8
70
1
43
0.0
10
-310.3125
20
187.17908446956096
10
-323.31250000000006
20
187.17908446956099
42
-0.41421356237309503
10
-323.8125
20
187.67908446956096
10
-323.81250000000011
20
200.67908446956096
42
-0.41421356237309503
10
-323.31250000000006
20
201.17908446956096
10
-310.3125
20
201.17908446956096
42
-0.41421356237309503
10
-309.8125
20
200.67908446956096
10
-309.8125
20
187.67908446956096
42
-0.41421356237309503
0
LWPOLYLINE
5
139
100
AcDbEntity
8
0
100
AcDbPolyline
90
8
70
1
43
0.0
10
-291.26249999999999
20
187.17908446956096
10
-304.26249999999999
20
187.17908446956096
42
-0.41421356237309503
10
-304.76249999999999
20
187.67908446956096
10
-304.76249999999999
20
200.67908446956096
42
-0.41421356237309503
10
-304.26249999999999
20
201.17908446956096
10
-291.26249999999999
20
201.17908446956096
42
-0.41421356237309503
10
-290.76249999999999
20
200.67908446956096
10
-290.76249999999999
20
187.67908446956096
42
-0.41421356237309503
0
LWPOLYLINE
5
140
100
AcDbEntity
8
0
100
AcDbPolyline
90
8
70
1
43
0.0
10
-138.86250000000004
20
187.17908446956096
10
-151.86250000000001
20
187.17908446956096
42
-0.41421356237309503
10
-152.36250000000001
20
187.67908446956096
10
-152.36250000000001
20
200.67908446956096
42
-0.41421356237309503
10
-151.86250000000001
20
201.17908446956096
10
-138.86250000000004
20
201.17908446956093
42
-0.41421356237310542
10
-138.36250000000004
20
200.67908446956096
10
-138.36250000000001
20
187.67908446956099
42
-0.41421356237310542
0
LWPOLYLINE
5
141
100
AcDbEntity
8
0
100
AcDbPolyline
90
8
70
1
43
0.0
10
-157.91249999999997
20
187.17908446956096
10
-170.91249999999999
20
187.17908446956096
42
-0.41421356237309503
10
-171.41249999999999
20
187.67908446956096
10
-171.41249999999999
20
200.67908446956096
42
-0.41421356237309503
10
-170.91249999999999
20
201.17908446956096
10
-157.91249999999997
20
201.17908446956093
42
-0.4142135623730846
10
-157.41250000000002
20
200.67908446956096
10
-157.41249999999999
20
187.67908446956099
42
-0.4142135623730846
0
LWPOLYLINE
5
142
100
AcDbEntity
8
0
100
AcDbPolyline
90
8
70
1
43
0.0
10
-119.81250000000003
20
187.17908446956096
10
-132.8125
20
187.17908446956096
42
-0.41421356237309503
10
-133.3125
20
187.67908446956096
10
-133.3125
20
200.67908446956096
42
-0.41421356237309503
10
-132.8125
20
201.17908446956096
10
-119.81250000000003
20
201.17908446956093
42
-0.41421356237310542
10
-119.31250000000003
20
200.67908446956096
10
-119.3125
20
187.67908446956099
42
-0.41421356237310542
0
LWPOLYLINE
5
143
100
AcDbEntity
8
0
100
AcDbPolyline
90
8
70
1
43
0.0
10
-270.92500000000001
20
163.079084469561
10
-257.92500000000007
20
163.079084469561
42
-0.41421356237309503
10
-257.42500000000001
20
162.57908446956097
10
-257.42500000000001
20
149.57908446956097
42
-0.41421356237309503
10
-257.92500000000007
20
149.07908446956097
10
-270.92500000000001
20
149.07908446956097
42
-0.41421356237309503
10
-271.42500000000001
20
149.57908446956097
10
-271.42500000000001
20
162.57908446956097
42
-0.41421356237309503
0
LWPOLYLINE
5
144
100
AcDbEntity
8
0
100
AcDbPolyline
90
8
70
1
43
0.0
10
-348.41250000000002
20
168.12908446956098
10
-361.41250000000008
20
168.12908446956101
42
-0.41421356237309503
10
-361.91250000000002
20
168.62908446956098
10
-361.91250000000014
20
181.62908446956098
42
-0.41421356237309503
10
-361.41250000000008
20
182.12908446956101
10
-348.41250000000002
20
182.12908446956095
42
-0.41421356237309503
10
-347.91250000000002
20
181.62908446956098
10
-347.91250000000002
20
168.62908446956098
42
-0.41421356237309503
0
LWPOLYLINE
5
145
100
AcDbEntity
8
0
100
AcDbPolyline
90
8
70
1
43
0.0
10
-305.55000000000001
20
168.12908446956098
10
-318.55000000000007
20
168.12908446956098
42
-0.41421356237309503
10
-319.05000000000007
20
168.62908446956098
10
-319.05000000000007
20
181.62908446956098
42
-0.41421356237309503
10
-318.55000000000007
20
182.12908446956101
10
-305.55000000000001
20
182.12908446956101
42
-0.41421356237309503
10
-305.05000000000001
20
181.62908446956098
10
-305.05000000000001
20
168.62908446956098
42
-0.41421356237309503
0
LWPOLYLINE
5
146
100
AcDbEntity
8
0
100
AcDbPolyline
90
8
70
1
43
0.0
10
-324.60000000000002
20
168.12908446956098
10
-337.60000000000002
20
168.12908446956101
42
-0.41421356237309503
10
-338.10000000000002
20
168.62908446956098
10
-338.10000000000002
20
181.62908446956098
42
-0.41421356237309503
10
-337.60000000000002
20
182.12908446956101
10
-324.60000000000002
20
182.12908446956095
42
-0.41421356237309503
10
-324.10000000000002
20
181.62908446956098
10
-324.09999999999997
20
168.62908446956098
42
-0.41421356237309503
0
LWPOLYLINE
5
147
100
AcDbEntity
8
0
100
AcDbPolyline
90
8
70
1
43
0.0
10
-248.40000000000003
20
168.12908446956098
10
-261.39999999999998
20
168.12908446956098
42
-0.41421356237309503
10
-261.90000000000003
20
168.62908446956098
10
-261.90000000000003
20
181.62908446956098
42
-0.41421356237309503
10
-261.39999999999998
20
182.12908446956101
10
-248.40000000000003
20
182.12908446956101
42
-0.41421356237309503
10
-247.90000000000003
20
181.62908446956098
10
-247.90000000000003
20
168.62908446956098
42
-0.41421356237309503
0
LWPOLYLINE
5
148
100
AcDbEntity
8
0
100
AcDbPolyline
90
16
70
1
43
0.0
10
-334.21199999999999
20
149.07908455300796
10
-366.08800000000002
20
149.07908455300799
42
-0.41421356237309503
10
-366.58799999999997
20
149.57908455300796
10
-366.58799999999997
20
164.57908446956097
42
-0.41421356237309503
10
-366.08800000000002
20
165.07908446956097
10
-359.08800000000008
20
165.07908446956094
42
-0.41421356237309503
10
-358.58800000000008
20
164.57908446956097
10
-358.58800000000002
20
163.57908446956094
42
0.41421356237309503
10
-358.08800000000008
20
163.07908446956094
10
-342.21200000000005
20
163.079084469561
42
0.41421356237309503
10
-341.71200000000005
20
163.57908446956094
10
-341.71199999999999
20
164.57908446956097
42
-0.41421356237309503
10
-341.21199999999999
20
165.07908446956097
10
-334.21199999999999
20
165.07908446956094
42
-0.41421356237309503
10
-333.71199999999999
20
164.57908446956097
10
-333.71199999999999
20
149.57908455300796
42
-0.41421356237309503
0
LWPOLYLINE
5
149
100
AcDbEntity
8
0
100
AcDbPolyline
90
8
70
1
43
0.0
10
-286.5
20
168.12908446956098
10
-299.5
20
168.12908446956098
42
-0.41421356237309503
10
-300.00000000000006
20
168.62908446956098
10
-300.00000000000006
20
181.62908446956098
42
-0.41421356237309503
10
-299.5
20
182.12908446956101
10
-286.5
20
182.12908446956101
42
-0.41421356237309503
10
-286
20
181.62908446956098
10
-286
20
168.62908446956098
42
-0.41421356237309503
0
LWPOLYLINE
5
150
100
AcDbEntity
8
0
100
AcDbPolyline
90
8
70
1
43
0.0
10
-276.97500000000002
20
149.07908446956097
10
-289.97500000000002
20
149.07908446956097
42
-0.41421356237309503
10
-290.47500000000002
20
149.57908446956097
10
-290.47500000000002
20
162.57908446956097
42
-0.41421356237309503
10
-289.97500000000002
20
163.079084469561
10
-276.97500000000002
20
163.079084469561
42
-0.41421356237309503
10
-276.47500000000002
20
162.57908446956097
10
-276.47500000000002
20
149.57908446956097
42
-0.41421356237309503
0
LWPOLYLINE
5
151
100
AcDbEntity
8
0
100
AcDbPolyline
90
8
70
1
43
0.0
10
-267.44999999999999
20
168.12908446956098
10
-280.45000000000005
20
168.12908446956098
42
-0.41421356237309503
10
-280.95000000000005
20
168.62908446956098
10
-280.95000000000005
20
181.62908446956098
42
-0.41421356237309503
10
-280.45000000000005
20
182.12908446956101
10
-267.44999999999999
20
182.12908446956101
42
-0.41421356237309503
10
-266.94999999999999
20
181.62908446956098
10
-266.94999999999999
20
168.62908446956098
42
-0.41421356237309503
0
LWPOLYLINE
5
152
100
AcDbEntity
8
0
100
AcDbPolyline
90
8
70
1
43
0.0
10
-285.21249999999998
20
201.17908446956096
10
-272.21249999999998
20
201.17908446956096
42
-0.41421356237309503
10
-271.71249999999998
20
200.67908446956096
10
-271.71249999999998
20
187.67908446956096
42
-0.41421356237309503
10
-272.21249999999998
20
187.17908446956096
10
-285.21249999999998
20
187.17908446956096
42
-0.41421356237309503
10
-285.71249999999998
20
187.67908446956096
10
-285.71249999999998
20
200.67908446956096
42
-0.41421356237309503
0
LWPOLYLINE
5
153
100
AcDbEntity
8
0
100
AcDbPolyline
90
8
70
1
43
0.0
10
-262.6875
20
206.229084469561
10
-275.6875
20
206.22908446956097
42
-0.41421356237309503
10
-276.1875
20
206.72908446956097
10
-276.1875
20
219.72908446956097
42
-0.41421356237309503
10
-275.6875
20
220.22908446956097
10
-262.6875
20
220.22908446956097
42
-0.41421356237309503
10
-262.1875
20
219.72908446956097
10
-262.18750000000006
20
206.72908446956097
42
-0.41421356237309503
0
LWPOLYLINE
5
154
100
AcDbEntity
8
0
100
AcDbPolyline
90
8
70
1
43
0.0
10
-247.11250000000004
20
201.17908446956096
10
-234.11250000000001
20
201.17908446956096
42
-0.41421356237309503
10
-233.61250000000001
20
200.67908446956096
10
-233.61250000000001
20
187.67908446956096
42
-0.41421356237309503
10
-234.11250000000001
20
187.17908446956096
10
-247.11250000000004
20
187.17908446956096
42
-0.41421356237309503
10
-247.61250000000004
20
187.67908446956096
10
-247.61250000000004
20
200.67908446956096
42
-0.41421356237309503
0
LWPOLYLINE
5
155
100
AcDbEntity
8
0
100
AcDbPolyline
90
8
70
1
43
0.0
10
-228.06250000000003
20
201.17908446956096
10
-215.0625
20
201.17908446956096
42
-0.41421356237309503
10
-214.5625
20
200.67908446956096
10
-214.5625
20
187.67908446956096
42
-0.41421356237309503
10
-215.0625
20
187.17908446956096
10
-228.06250000000003
20
187.17908446956096
42
-0.41421356237309503
10
-228.56250000000003
20
187.67908446956096
10
-228.56250000000003
20
200.67908446956096
42
-0.41421356237309503
0
LWPOLYLINE
5
156
100
AcDbEntity
8
0
100
AcDbPolyline
90
8
70
1
43
0.0
10
-256.63749999999999
20
220.22908446956097
10
-243.63749999999999
20
220.22908446956097
42
-0.41421356237309503
10
-243.13749999999999
20
219.72908446956097
10
-243.13749999999999
20
206.72908446956097
42
-0.41421356237309503
10
-243.63749999999999
20
206.22908446956097
10
-256.63749999999999
20
206.22908446956097
42
-0.41421356237309503
10
-257.13749999999999
20
206.72908446956097
10
-257.13749999999999
20
219.72908446956097
42
-0.41421356237309503
0
LWPOLYLINE
5
157
100
AcDbEntity
8
0
100
AcDbPolyline
90
8
70
1
43
0.0
10
-160.51249999999999
20
238.77908446956098
10
-160.51249999999999
20
223.77908446956098
42
-0.41421356237309503
10
-161.01249999999999
20
223.27908446956098
10
-167.8125
20
223.27908446956098
42
-0.41421356237309503
10
-168.3125
20
223.77908446956098
10
-168.3125
20
238.77908446956098
42
-0.41421356237309503
10
-167.8125
20
239.27908446956098
10
-161.01249999999999
20
239.27908446956098
42
-0.41421356237309503
0
LWPOLYLINE
5
158
100
AcDbEntity
8
0
100
AcDbPolyline
90
8
70
1
43
0.0
10
-339.73075
20
185.67908446956096
10
-339.73075000000006
20
200.67908446956096
42
-0.41421356237309503
10
-339.23075000000006
20
201.17908446956096
10
-332.43074999999999
20
201.17908446956102
42
-0.41421356237309503
10
-331.93074999999993
20
200.67908446956096
10
-331.93074999999993
20
185.67908446956096
42
-0.41421356237309503
10
-332.43074999999999
20
185.17908446956096
10
-339.23075000000006
20
185.17908446956099
42
-0.41421356237309503
0
LWPOLYLINE
5
159
100
AcDbEntity
8
0
100
AcDbPolyline
90
8
70
1
43
0.0
10
-355.80675000000008
20
200.67908446956096
10
-355.80674999999997
20
185.67908446956096
42
-0.41421356237309503
10
-356.30675000000002
20
185.17908446956096
10
-363.10674999999998
20
185.17908446956099
42
-0.41421356237309503
10
-363.60674999999992
20
185.67908446956096
10
-363.60675000000003
20
200.67908446956096
42
-0.41421356237309503
10
-363.10674999999998
20
201.17908446956096
10
-356.30675000000002
20
201.17908446956093
42
-0.41421356237309503
0
LWPOLYLINE
5
160
100
AcDbEntity
8
0
100
AcDbPolyline
90
8
70
1
43
0.0
10
-120.71925
20
206.72908446956097
10
-120.71925000000002
20
221.72908446956092
42
-0.4142135623730846
10
-120.21925000000003
20
222.22908446956097
10
-113.41925000000003
20
222.22908446956097
42
-0.41421356237310542
10
-112.91925000000003
20
221.72908446956097
10
-112.91925000000001
20
206.729084469561
42
-0.41421356237310542
10
-113.41925000000003
20
206.22908446956097
10
-120.21925000000003
20
206.22908446956097
42
-0.4142135623730846
0
LWPOLYLINE
5
161
100
AcDbEntity
8
0
100
AcDbPolyline
90
8
70
1
43
0.0
10
-96.843249999999728
20
206.72908446956097
10
-96.843249999999713
20
221.72908446956092
42
-0.41421356237310542
10
-96.343249999999685
20
222.22908446956097
10
-89.543249999999688
20
222.22908446956097
42
-0.4142135623730846
10
-89.043249999999702
20
221.72908446956097
10
-89.043249999999702
20
206.729084469561
42
-0.4142135623730846
10
-89.543249999999688
20
206.22908446956097
10
-96.343249999999685
20
206.22908446956097
42
-0.41421356237310542
0
LWPOLYLINE
5
162
100
AcDbEntity
8
0
100
AcDbPolyline
90
8
70
1
43
0.0
10
-327.00029999999998
20
206.229084469561
10
-340.00030000000004
20
206.229084469561
42
-0.41421356237309503
10
-340.50029999999998
20
206.72908446956097
10
-340.50030000000004
20
219.72908446956097
42
-0.41421356237309503
10
-340.00030000000004
20
220.22908446956097
10
-327.00029999999998
20
220.22908446956095
42
-0.41421356237309503
10
-326.50030000000004
20
219.72908446956097
10
-326.50030000000004
20
206.72908446956097
42
-0.41421356237309503
0
LWPOLYLINE
5
163
100
AcDbEntity
8
0
100
AcDbPolyline
90
8
70
1
43
0.0
10
-366.67499999999995
20
206.72908446956097
42
0.41421356237309503
10
-366.17500000000001
20
206.22908446956097
10
-353.17500000000001
20
206.22908446956097
42
0.41421356237309503
10
-352.67500000000007
20
206.72908446956097
10
-352.67500000000007
20
219.72908446956097
42
0.41421356237309503
10
-353.17500000000001
20
220.22908446956097
10
-366.17500000000001
20
220.22908446956097
42
0.41421356237309503
10
-366.67500000000007
20
219.72908446956097
0
ENDSEC
0
SECTION
2
OBJECTS
0
DICTIONARY
5
C
100
AcDbDictionary
3
ACAD_GROUP
350
D
3
ACAD_MLINESTYLE
350
17
0
DICTIONARY
5
D
100
AcDbDictionary
0
DICTIONARY
5
1A
330
C
100
AcDbDictionary
0
DICTIONARY
5
17
100
AcDbDictionary
0
ENDSEC
0
EOF
