  0
SECTION
  2
HEADER
  9
$ACADVER
  1
AC1009
  9
$INSBASE
 10
0.0
 20
0.0
 30
0.0
  9
$EXTMIN
 10
0.0
 20
0.0
 30
0.0
  9
$EXTMAX
 10
0.0
 20
0.0
 30
0.0
  0
ENDSEC
  0
SECTION
  2
TABLES
  0
TABLE
  2
VPORT
 70
0
  0
ENDTAB
  0
TABLE
  2
LTYPE
 70
1
  0
LTYPE
  2
CONTINUOUS
 70
0
  3
Solid line
 72
65
 73
0
 40
0.0
  0
ENDTAB
  0
TABLE
  2
LAYER
 70
1
  0
LAYER
  2
0
 70
64
 62
7
  6
continuous
  0
ENDTAB
  0
TABLE
  2
STYLE
 70
1
  0
STYLE
  2
STANDARD
 70
0
 40
0
 41
1.0
 50
0.0
 71
0
 42
1
 3
ARIAL.TTF
 4

  0
ENDTAB
  0
TABLE
  2
VIEW
 70
0
  0
ENDTAB
  0
ENDSEC
  0
SECTION
  2
BLOCKS
  0
BLOCK
  8
0
  2
FACEFEAT
 70
0
 10
0.0
 20
0.0
 30
0.0
  3
FACEFEAT
  0
ARC
  8
0
 62
0
 10
1345.615374152
 20
651.615721617
 30
0.0
 40
1.0
 50
-0.0
 51
90.0
  0
LINE
  8
0
 62
0
 10
1346.615374152
 20
632.465721617
 30
0.0
 11
1346.615374152
 21
651.615721617
 31
0.0
  0
ARC
  8
0
 62
0
 10
1344.615374152
 20
632.465721617
 30
0.0
 40
2.0
 50
-90.0
 51
-0.0
  0
LINE
  8
0
 62
0
 10
1221.912822465
 20
630.465721617
 30
0.0
 11
1344.615374152
 21
630.465721617
 31
0.0
  0
LINE
  8
0
 62
0
 10
1221.912822465
 20
630.465721617
 30
0.0
 11
1221.912822465
 21
645.825721617
 31
0.0
  0
LINE
  8
0
 62
0
 10
1221.912822465
 20
645.825721617
 30
0.0
 11
1214.512822465
 21
645.825721617
 31
0.0
  0
LINE
  8
0
 62
0
 10
1214.512822465
 20
630.465721617
 30
0.0
 11
1214.512822465
 21
645.825721617
 31
0.0
  0
LINE
  8
0
 62
0
 10
1214.512822465
 20
630.465721617
 30
0.0
 11
1107.912822465
 21
630.465721617
 31
0.0
  0
LINE
  8
0
 62
0
 10
1107.912822465
 20
630.465721617
 30
0.0
 11
1107.912822465
 21
645.825721617
 31
0.0
  0
LINE
  8
0
 62
0
 10
1107.912822465
 20
645.825721617
 30
0.0
 11
1100.512822465
 21
645.825721617
 31
0.0
  0
LINE
  8
0
 62
0
 10
1100.512822465
 20
630.465721617
 30
0.0
 11
1100.512822465
 21
645.825721617
 31
0.0
  0
LINE
  8
0
 62
0
 10
1025.715374152
 20
630.465721617
 30
0.0
 11
1100.512822465
 21
630.465721617
 31
0.0
  0
ARC
  8
0
 62
0
 10
1025.715374152
 20
632.465721617
 30
0.0
 40
2.0
 50
-180.0
 51
-90.0
  0
LINE
  8
0
 62
0
 10
1023.715374152
 20
632.465721617
 30
0.0
 11
1023.715374152
 21
745.865721617
 31
0.0
  0
ARC
  8
0
 62
0
 10
1025.715374152
 20
745.865721617
 30
0.0
 40
2.0
 50
90.0
 51
-180.0
  0
LINE
  8
0
 62
0
 10
1344.615374152
 20
747.865721617
 30
0.0
 11
1025.715374152
 21
747.865721617
 31
0.0
  0
ARC
  8
0
 62
0
 10
1344.615374152
 20
745.865721617
 30
0.0
 40
2.0
 50
-0.0
 51
90.0
  0
LINE
  8
0
 62
0
 10
1346.615374152
 20
666.915721617
 30
0.0
 11
1346.615374152
 21
745.865721617
 31
0.0
  0
ARC
  8
0
 62
0
 10
1345.615374152
 20
666.915721617
 30
0.0
 40
1.0
 50
-90.0
 51
-0.0
  0
LINE
  8
0
 62
0
 10
1329.115374152
 20
665.915721617
 30
0.0
 11
1345.615374152
 21
665.915721617
 31
0.0
  0
ARC
  8
0
 62
0
 10
1329.115374152
 20
664.915721617
 30
0.0
 40
1.0
 50
90.0
 51
-180.0
  0
LINE
  8
0
 62
0
 10
1328.115374152
 20
653.615721617
 30
0.0
 11
1328.115374152
 21
664.915721617
 31
0.0
  0
ARC
  8
0
 62
0
 10
1329.115374152
 20
653.615721617
 30
0.0
 40
1.0
 50
-180.0
 51
-90.0
  0
LINE
  8
0
 62
0
 10
1345.615374152
 20
652.615721617
 30
0.0
 11
1329.115374152
 21
652.615721617
 31
0.0
  0
LINE
  8
0
 62
0
 10
1211.792925839
 20
646.565721617
 30
0.0
 11
1211.792925839
 21
632.465721617
 31
0.0
  0
LINE
  8
0
 62
0
 10
1211.792925839
 20
646.565721617
 30
0.0
 11
1205.292925839
 21
646.565721617
 31
0.0
  0
LINE
  8
0
 62
0
 10
1205.292925839
 20
645.065721617
 30
0.0
 11
1205.292925839
 21
646.565721617
 31
0.0
  0
LINE
  8
0
 62
0
 10
1210.292925839
 20
645.065721617
 30
0.0
 11
1205.292925839
 21
645.065721617
 31
0.0
  0
LINE
  8
0
 62
0
 10
1210.292925839
 20
633.965721617
 30
0.0
 11
1210.292925839
 21
645.065721617
 31
0.0
  0
LINE
  8
0
 62
0
 10
1205.292925839
 20
633.965721617
 30
0.0
 11
1210.292925839
 21
633.965721617
 31
0.0
  0
LINE
  8
0
 62
0
 10
1205.292925839
 20
632.465721617
 30
0.0
 11
1205.292925839
 21
633.965721617
 31
0.0
  0
LINE
  8
0
 62
0
 10
1205.292925839
 20
632.465721617
 30
0.0
 11
1211.792925839
 21
632.465721617
 31
0.0
  0
LINE
  8
0
 62
0
 10
1344.615374152
 20
722.765721617
 30
0.0
 11
1330.515374152
 21
722.765721617
 31
0.0
  0
LINE
  8
0
 62
0
 10
1330.515374152
 20
722.765721617
 30
0.0
 11
1330.515374152
 21
708.665721617
 31
0.0
  0
LINE
  8
0
 62
0
 10
1330.515374152
 20
708.665721617
 30
0.0
 11
1344.615374152
 21
708.665721617
 31
0.0
  0
LINE
  8
0
 62
0
 10
1344.615374152
 20
708.665721617
 30
0.0
 11
1344.615374152
 21
722.765721617
 31
0.0
  0
LINE
  8
0
 62
0
 10
1330.515374152
 20
731.765721617
 30
0.0
 11
1344.615374152
 21
731.765721617
 31
0.0
  0
LINE
  8
0
 62
0
 10
1344.615374152
 20
731.765721617
 30
0.0
 11
1344.615374152
 21
745.865721617
 31
0.0
  0
LINE
  8
0
 62
0
 10
1344.615374152
 20
745.865721617
 30
0.0
 11
1330.515374152
 21
745.865721617
 31
0.0
  0
LINE
  8
0
 62
0
 10
1330.515374152
 20
745.865721617
 30
0.0
 11
1330.515374152
 21
731.765721617
 31
0.0
  0
LINE
  8
0
 62
0
 10
1311.465374152
 20
722.765721617
 30
0.0
 11
1311.465374152
 21
708.665721617
 31
0.0
  0
LINE
  8
0
 62
0
 10
1311.465374152
 20
708.665721617
 30
0.0
 11
1325.565374152
 21
708.665721617
 31
0.0
  0
LINE
  8
0
 62
0
 10
1325.565374152
 20
708.665721617
 30
0.0
 11
1325.565374152
 21
722.765721617
 31
0.0
  0
LINE
  8
0
 62
0
 10
1325.565374152
 20
722.765721617
 30
0.0
 11
1311.465374152
 21
722.765721617
 31
0.0
  0
LINE
  8
0
 62
0
 10
1301.040374152
 20
731.765721617
 30
0.0
 11
1301.040374152
 21
745.865721617
 31
0.0
  0
LINE
  8
0
 62
0
 10
1301.040374152
 20
745.865721617
 30
0.0
 11
1286.940374153
 21
745.865721617
 31
0.0
  0
LINE
  8
0
 62
0
 10
1286.940374153
 20
745.865721617
 30
0.0
 11
1286.940374153
 21
731.765721617
 31
0.0
  0
LINE
  8
0
 62
0
 10
1286.940374153
 20
731.765721617
 30
0.0
 11
1301.040374152
 21
731.765721617
 31
0.0
  0
LINE
  8
0
 62
0
 10
1298.140374152
 20
722.025721617
 30
0.0
 11
1298.140374152
 21
706.525721617
 31
0.0
  0
LINE
  8
0
 62
0
 10
1305.540374152
 20
706.525721617
 30
0.0
 11
1298.140374152
 21
706.525721617
 31
0.0
  0
LINE
  8
0
 62
0
 10
1305.540374152
 20
706.525721617
 30
0.0
 11
1305.540374152
 21
722.025721617
 31
0.0
  0
LINE
  8
0
 62
0
 10
1305.540374152
 20
722.025721617
 30
0.0
 11
1298.140374152
 21
722.025721617
 31
0.0
  0
LINE
  8
0
 62
0
 10
1282.890374152
 20
722.765721617
 30
0.0
 11
1282.890374152
 21
708.665721617
 31
0.0
  0
LINE
  8
0
 62
0
 10
1282.890374152
 20
708.665721617
 30
0.0
 11
1296.990374152
 21
708.665721617
 31
0.0
  0
LINE
  8
0
 62
0
 10
1296.990374152
 20
708.665721617
 30
0.0
 11
1296.990374152
 21
722.765721617
 31
0.0
  0
LINE
  8
0
 62
0
 10
1296.990374152
 20
722.765721617
 30
0.0
 11
1282.890374152
 21
722.765721617
 31
0.0
  0
LINE
  8
0
 62
0
 10
1274.264374152
 20
722.025721617
 30
0.0
 11
1274.264374152
 21
706.525721617
 31
0.0
  0
LINE
  8
0
 62
0
 10
1281.664374152
 20
706.525721617
 30
0.0
 11
1274.264374152
 21
706.525721617
 31
0.0
  0
LINE
  8
0
 62
0
 10
1281.664374152
 20
706.525721617
 30
0.0
 11
1281.664374152
 21
722.025721617
 31
0.0
  0
LINE
  8
0
 62
0
 10
1281.664374152
 20
722.025721617
 30
0.0
 11
1274.264374152
 21
722.025721617
 31
0.0
  0
LINE
  8
0
 62
0
 10
1267.890374152
 20
731.765721617
 30
0.0
 11
1281.990374152
 21
731.765721617
 31
0.0
  0
LINE
  8
0
 62
0
 10
1281.990374152
 20
731.765721617
 30
0.0
 11
1281.990374152
 21
745.865721617
 31
0.0
  0
LINE
  8
0
 62
0
 10
1281.990374152
 20
745.865721617
 30
0.0
 11
1267.890374152
 21
745.865721617
 31
0.0
  0
LINE
  8
0
 62
0
 10
1267.890374152
 20
745.865721617
 30
0.0
 11
1267.890374152
 21
731.765721617
 31
0.0
  0
LINE
  8
0
 62
0
 10
1262.940374152
 20
731.765721617
 30
0.0
 11
1262.940374152
 21
745.865721617
 31
0.0
  0
LINE
  8
0
 62
0
 10
1262.940374152
 20
745.865721617
 30
0.0
 11
1248.840374152
 21
745.865721617
 31
0.0
  0
LINE
  8
0
 62
0
 10
1248.840374152
 20
745.865721617
 30
0.0
 11
1248.840374152
 21
731.765721617
 31
0.0
  0
LINE
  8
0
 62
0
 10
1248.840374152
 20
731.765721617
 30
0.0
 11
1262.940374152
 21
731.765721617
 31
0.0
  0
LINE
  8
0
 62
0
 10
1254.315374152
 20
722.765721617
 30
0.0
 11
1254.315374152
 21
708.665721617
 31
0.0
  0
LINE
  8
0
 62
0
 10
1254.315374152
 20
708.665721617
 30
0.0
 11
1268.415374152
 21
708.665721617
 31
0.0
  0
LINE
  8
0
 62
0
 10
1268.415374152
 20
708.665721617
 30
0.0
 11
1268.415374152
 21
722.765721617
 31
0.0
  0
LINE
  8
0
 62
0
 10
1268.415374152
 20
722.765721617
 30
0.0
 11
1254.315374152
 21
722.765721617
 31
0.0
  0
LINE
  8
0
 62
0
 10
1249.365374153
 20
722.765721617
 30
0.0
 11
1235.265374152
 21
722.765721617
 31
0.0
  0
LINE
  8
0
 62
0
 10
1235.265374152
 20
722.765721617
 30
0.0
 11
1235.265374152
 21
708.665721617
 31
0.0
  0
LINE
  8
0
 62
0
 10
1235.265374152
 20
708.665721617
 30
0.0
 11
1249.365374153
 21
708.665721617
 31
0.0
  0
LINE
  8
0
 62
0
 10
1249.365374153
 20
708.665721617
 30
0.0
 11
1249.365374153
 21
722.765721617
 31
0.0
  0
LINE
  8
0
 62
0
 10
1229.790374152
 20
731.765721617
 30
0.0
 11
1243.890374152
 21
731.765721617
 31
0.0
  0
LINE
  8
0
 62
0
 10
1243.890374152
 20
731.765721617
 30
0.0
 11
1243.890374152
 21
745.865721617
 31
0.0
  0
LINE
  8
0
 62
0
 10
1243.890374152
 20
745.865721617
 30
0.0
 11
1229.790374152
 21
745.865721617
 31
0.0
  0
LINE
  8
0
 62
0
 10
1229.790374152
 20
745.865721617
 30
0.0
 11
1229.790374152
 21
731.765721617
 31
0.0
  0
LINE
  8
0
 62
0
 10
1216.215374152
 20
722.765721617
 30
0.0
 11
1216.215374152
 21
708.665721617
 31
0.0
  0
LINE
  8
0
 62
0
 10
1216.215374152
 20
708.665721617
 30
0.0
 11
1230.315374153
 21
708.665721617
 31
0.0
  0
LINE
  8
0
 62
0
 10
1230.315374153
 20
708.665721617
 30
0.0
 11
1230.315374153
 21
722.765721617
 31
0.0
  0
LINE
  8
0
 62
0
 10
1230.315374153
 20
722.765721617
 30
0.0
 11
1216.215374152
 21
722.765721617
 31
0.0
  0
LINE
  8
0
 62
0
 10
1206.690374153
 20
731.765721617
 30
0.0
 11
1220.790374152
 21
731.765721617
 31
0.0
  0
LINE
  8
0
 62
0
 10
1220.790374152
 20
731.765721617
 30
0.0
 11
1220.790374152
 21
745.865721617
 31
0.0
  0
LINE
  8
0
 62
0
 10
1220.790374152
 20
745.865721617
 30
0.0
 11
1206.690374153
 21
745.865721617
 31
0.0
  0
LINE
  8
0
 62
0
 10
1206.690374153
 20
745.865721617
 30
0.0
 11
1206.690374153
 21
731.765721617
 31
0.0
  0
LINE
  8
0
 62
0
 10
1197.165374152
 20
722.765721617
 30
0.0
 11
1197.165374152
 21
708.665721617
 31
0.0
  0
LINE
  8
0
 62
0
 10
1197.165374152
 20
708.665721617
 30
0.0
 11
1211.265374153
 21
708.665721617
 31
0.0
  0
LINE
  8
0
 62
0
 10
1211.265374153
 20
708.665721617
 30
0.0
 11
1211.265374153
 21
722.765721617
 31
0.0
  0
LINE
  8
0
 62
0
 10
1211.265374153
 20
722.765721617
 30
0.0
 11
1197.165374152
 21
722.765721617
 31
0.0
  0
LINE
  8
0
 62
0
 10
1187.640374152
 20
731.765721617
 30
0.0
 11
1201.740374152
 21
731.765721617
 31
0.0
  0
LINE
  8
0
 62
0
 10
1201.740374152
 20
731.765721617
 30
0.0
 11
1201.740374152
 21
745.865721617
 31
0.0
  0
LINE
  8
0
 62
0
 10
1201.740374152
 20
745.865721617
 30
0.0
 11
1187.640374152
 21
745.865721617
 31
0.0
  0
LINE
  8
0
 62
0
 10
1187.640374152
 20
745.865721617
 30
0.0
 11
1187.640374152
 21
731.765721617
 31
0.0
  0
LINE
  8
0
 62
0
 10
1178.115374152
 20
722.765721617
 30
0.0
 11
1178.115374152
 21
708.665721617
 31
0.0
  0
LINE
  8
0
 62
0
 10
1178.115374152
 20
708.665721617
 30
0.0
 11
1192.215374152
 21
708.665721617
 31
0.0
  0
LINE
  8
0
 62
0
 10
1192.215374152
 20
708.665721617
 30
0.0
 11
1192.215374152
 21
722.765721617
 31
0.0
  0
LINE
  8
0
 62
0
 10
1192.215374152
 20
722.765721617
 30
0.0
 11
1178.115374152
 21
722.765721617
 31
0.0
  0
LINE
  8
0
 62
0
 10
1168.590374152
 20
731.765721617
 30
0.0
 11
1182.690374152
 21
731.765721617
 31
0.0
  0
LINE
  8
0
 62
0
 10
1182.690374152
 20
731.765721617
 30
0.0
 11
1182.690374152
 21
745.865721617
 31
0.0
  0
LINE
  8
0
 62
0
 10
1182.690374152
 20
745.865721617
 30
0.0
 11
1168.590374152
 21
745.865721617
 31
0.0
  0
LINE
  8
0
 62
0
 10
1168.590374152
 20
745.865721617
 30
0.0
 11
1168.590374152
 21
731.765721617
 31
0.0
  0
LINE
  8
0
 62
0
 10
1159.065374152
 20
722.765721617
 30
0.0
 11
1159.065374152
 21
708.665721617
 31
0.0
  0
LINE
  8
0
 62
0
 10
1159.065374152
 20
708.665721617
 30
0.0
 11
1173.165374152
 21
708.665721617
 31
0.0
  0
LINE
  8
0
 62
0
 10
1173.165374152
 20
708.665721617
 30
0.0
 11
1173.165374152
 21
722.765721617
 31
0.0
  0
LINE
  8
0
 62
0
 10
1173.165374152
 20
722.765721617
 30
0.0
 11
1159.065374152
 21
722.765721617
 31
0.0
  0
LINE
  8
0
 62
0
 10
1149.540374152
 20
731.765721617
 30
0.0
 11
1163.640374152
 21
731.765721617
 31
0.0
  0
LINE
  8
0
 62
0
 10
1163.640374152
 20
731.765721617
 30
0.0
 11
1163.640374152
 21
745.865721617
 31
0.0
  0
LINE
  8
0
 62
0
 10
1163.640374152
 20
745.865721617
 30
0.0
 11
1149.540374152
 21
745.865721617
 31
0.0
  0
LINE
  8
0
 62
0
 10
1149.540374152
 20
745.865721617
 30
0.0
 11
1149.540374152
 21
731.765721617
 31
0.0
  0
LINE
  8
0
 62
0
 10
1140.015374152
 20
722.765721617
 30
0.0
 11
1140.015374152
 21
708.665721617
 31
0.0
  0
LINE
  8
0
 62
0
 10
1140.015374152
 20
708.665721617
 30
0.0
 11
1154.115374152
 21
708.665721617
 31
0.0
  0
LINE
  8
0
 62
0
 10
1154.115374152
 20
708.665721617
 30
0.0
 11
1154.115374152
 21
722.765721617
 31
0.0
  0
LINE
  8
0
 62
0
 10
1154.115374152
 20
722.765721617
 30
0.0
 11
1140.015374152
 21
722.765721617
 31
0.0
  0
LINE
  8
0
 62
0
 10
1126.440374153
 20
731.765721617
 30
0.0
 11
1140.540374152
 21
731.765721617
 31
0.0
  0
LINE
  8
0
 62
0
 10
1140.540374152
 20
731.765721617
 30
0.0
 11
1140.540374152
 21
745.865721617
 31
0.0
  0
LINE
  8
0
 62
0
 10
1140.540374152
 20
745.865721617
 30
0.0
 11
1126.440374153
 21
745.865721617
 31
0.0
  0
LINE
  8
0
 62
0
 10
1126.440374153
 20
745.865721617
 30
0.0
 11
1126.440374153
 21
731.765721617
 31
0.0
  0
LINE
  8
0
 62
0
 10
1120.965374152
 20
722.765721617
 30
0.0
 11
1120.965374152
 21
708.665721617
 31
0.0
  0
LINE
  8
0
 62
0
 10
1120.965374152
 20
708.665721617
 30
0.0
 11
1135.065374152
 21
708.665721617
 31
0.0
  0
LINE
  8
0
 62
0
 10
1135.065374152
 20
708.665721617
 30
0.0
 11
1135.065374152
 21
722.765721617
 31
0.0
  0
LINE
  8
0
 62
0
 10
1135.065374152
 20
722.765721617
 30
0.0
 11
1120.965374152
 21
722.765721617
 31
0.0
  0
LINE
  8
0
 62
0
 10
1116.015374152
 20
722.765721617
 30
0.0
 11
1101.915374152
 21
722.765721617
 31
0.0
  0
LINE
  8
0
 62
0
 10
1101.915374152
 20
722.765721617
 30
0.0
 11
1101.915374152
 21
708.665721617
 31
0.0
  0
LINE
  8
0
 62
0
 10
1101.915374152
 20
708.665721617
 30
0.0
 11
1116.015374152
 21
708.665721617
 31
0.0
  0
LINE
  8
0
 62
0
 10
1116.015374152
 20
708.665721617
 30
0.0
 11
1116.015374152
 21
722.765721617
 31
0.0
  0
LINE
  8
0
 62
0
 10
1107.390374152
 20
731.765721617
 30
0.0
 11
1121.490374152
 21
731.765721617
 31
0.0
  0
LINE
  8
0
 62
0
 10
1121.490374152
 20
731.765721617
 30
0.0
 11
1121.490374152
 21
745.865721617
 31
0.0
  0
LINE
  8
0
 62
0
 10
1121.490374152
 20
745.865721617
 30
0.0
 11
1107.390374152
 21
745.865721617
 31
0.0
  0
LINE
  8
0
 62
0
 10
1107.390374152
 20
745.865721617
 30
0.0
 11
1107.390374152
 21
731.765721617
 31
0.0
  0
LINE
  8
0
 62
0
 10
1102.440374152
 20
731.765721617
 30
0.0
 11
1102.440374152
 21
745.865721617
 31
0.0
  0
LINE
  8
0
 62
0
 10
1102.440374152
 20
745.865721617
 30
0.0
 11
1088.340374152
 21
745.865721617
 31
0.0
  0
LINE
  8
0
 62
0
 10
1088.340374152
 20
745.865721617
 30
0.0
 11
1088.340374152
 21
731.765721617
 31
0.0
  0
LINE
  8
0
 62
0
 10
1088.340374152
 20
731.765721617
 30
0.0
 11
1102.440374152
 21
731.765721617
 31
0.0
  0
LINE
  8
0
 62
0
 10
1082.865374152
 20
722.765721617
 30
0.0
 11
1082.865374152
 21
708.665721617
 31
0.0
  0
LINE
  8
0
 62
0
 10
1082.865374152
 20
708.665721617
 30
0.0
 11
1096.965374152
 21
708.665721617
 31
0.0
  0
LINE
  8
0
 62
0
 10
1096.965374152
 20
708.665721617
 30
0.0
 11
1096.965374152
 21
722.765721617
 31
0.0
  0
LINE
  8
0
 62
0
 10
1096.965374152
 20
722.765721617
 30
0.0
 11
1082.865374152
 21
722.765721617
 31
0.0
  0
LINE
  8
0
 62
0
 10
1069.290374152
 20
731.765721617
 30
0.0
 11
1083.390374152
 21
731.765721617
 31
0.0
  0
LINE
  8
0
 62
0
 10
1083.390374152
 20
731.765721617
 30
0.0
 11
1083.390374152
 21
745.865721617
 31
0.0
  0
LINE
  8
0
 62
0
 10
1083.390374152
 20
745.865721617
 30
0.0
 11
1069.290374152
 21
745.865721617
 31
0.0
  0
LINE
  8
0
 62
0
 10
1069.290374152
 20
745.865721617
 30
0.0
 11
1069.290374152
 21
731.765721617
 31
0.0
  0
LINE
  8
0
 62
0
 10
1063.815374152
 20
722.765721617
 30
0.0
 11
1063.815374152
 21
708.665721617
 31
0.0
  0
LINE
  8
0
 62
0
 10
1063.815374152
 20
708.665721617
 30
0.0
 11
1077.915374152
 21
708.665721617
 31
0.0
  0
LINE
  8
0
 62
0
 10
1077.915374152
 20
708.665721617
 30
0.0
 11
1077.915374152
 21
722.765721617
 31
0.0
  0
LINE
  8
0
 62
0
 10
1077.915374152
 20
722.765721617
 30
0.0
 11
1063.815374152
 21
722.765721617
 31
0.0
  0
LINE
  8
0
 62
0
 10
1044.765374152
 20
722.765721617
 30
0.0
 11
1044.765374152
 21
708.665721617
 31
0.0
  0
LINE
  8
0
 62
0
 10
1044.765374152
 20
708.665721617
 30
0.0
 11
1058.865374152
 21
708.665721617
 31
0.0
  0
LINE
  8
0
 62
0
 10
1058.865374152
 20
708.665721617
 30
0.0
 11
1058.865374152
 21
722.765721617
 31
0.0
  0
LINE
  8
0
 62
0
 10
1058.865374152
 20
722.765721617
 30
0.0
 11
1044.765374152
 21
722.765721617
 31
0.0
  0
LINE
  8
0
 62
0
 10
1025.715374152
 20
731.765721617
 30
0.0
 11
1039.815374152
 21
731.765721617
 31
0.0
  0
LINE
  8
0
 62
0
 10
1039.815374152
 20
731.765721617
 30
0.0
 11
1039.815374152
 21
745.865721617
 31
0.0
  0
LINE
  8
0
 62
0
 10
1039.815374152
 20
745.865721617
 30
0.0
 11
1025.715374152
 21
745.865721617
 31
0.0
  0
LINE
  8
0
 62
0
 10
1025.715374152
 20
745.865721617
 30
0.0
 11
1025.715374152
 21
731.765721617
 31
0.0
  0
LINE
  8
0
 62
0
 10
1025.715374152
 20
708.665721617
 30
0.0
 11
1039.815374152
 21
708.665721617
 31
0.0
  0
LINE
  8
0
 62
0
 10
1039.815374152
 20
708.665721617
 30
0.0
 11
1039.815374152
 21
722.765721617
 31
0.0
  0
LINE
  8
0
 62
0
 10
1039.815374152
 20
722.765721617
 30
0.0
 11
1025.715374152
 21
722.765721617
 31
0.0
  0
LINE
  8
0
 62
0
 10
1025.715374152
 20
722.765721617
 30
0.0
 11
1025.715374152
 21
708.665721617
 31
0.0
  0
LINE
  8
0
 62
0
 10
1044.577874152
 20
689.615721617
 30
0.0
 11
1044.577874152
 21
703.715721617
 31
0.0
  0
LINE
  8
0
 62
0
 10
1044.577874152
 20
703.715721617
 30
0.0
 11
1030.477874152
 21
703.715721617
 31
0.0
  0
LINE
  8
0
 62
0
 10
1030.477874152
 20
703.715721617
 30
0.0
 11
1030.477874152
 21
689.615721617
 31
0.0
  0
LINE
  8
0
 62
0
 10
1030.477874152
 20
689.615721617
 30
0.0
 11
1044.577874152
 21
689.615721617
 31
0.0
  0
LINE
  8
0
 62
0
 10
1068.390374152
 20
689.615721617
 30
0.0
 11
1068.390374152
 21
703.715721617
 31
0.0
  0
LINE
  8
0
 62
0
 10
1068.390374152
 20
703.715721617
 30
0.0
 11
1054.290374152
 21
703.715721617
 31
0.0
  0
LINE
  8
0
 62
0
 10
1054.290374152
 20
703.715721617
 30
0.0
 11
1054.290374152
 21
689.615721617
 31
0.0
  0
LINE
  8
0
 62
0
 10
1054.290374152
 20
689.615721617
 30
0.0
 11
1068.390374152
 21
689.615721617
 31
0.0
  0
LINE
  8
0
 62
0
 10
1087.440374152
 20
689.615721617
 30
0.0
 11
1087.440374152
 21
703.715721617
 31
0.0
  0
LINE
  8
0
 62
0
 10
1087.440374152
 20
703.715721617
 30
0.0
 11
1073.340374152
 21
703.715721617
 31
0.0
  0
LINE
  8
0
 62
0
 10
1073.340374152
 20
703.715721617
 30
0.0
 11
1073.340374152
 21
689.615721617
 31
0.0
  0
LINE
  8
0
 62
0
 10
1073.340374152
 20
689.615721617
 30
0.0
 11
1087.440374152
 21
689.615721617
 31
0.0
  0
LINE
  8
0
 62
0
 10
1106.490374152
 20
689.615721617
 30
0.0
 11
1106.490374152
 21
703.715721617
 31
0.0
  0
LINE
  8
0
 62
0
 10
1106.490374152
 20
703.715721617
 30
0.0
 11
1092.390374152
 21
703.715721617
 31
0.0
  0
LINE
  8
0
 62
0
 10
1092.390374152
 20
703.715721617
 30
0.0
 11
1092.390374152
 21
689.615721617
 31
0.0
  0
LINE
  8
0
 62
0
 10
1092.390374152
 20
689.615721617
 30
0.0
 11
1106.490374152
 21
689.615721617
 31
0.0
  0
LINE
  8
0
 62
0
 10
1125.540374152
 20
689.615721617
 30
0.0
 11
1125.540374152
 21
703.715721617
 31
0.0
  0
LINE
  8
0
 62
0
 10
1125.540374152
 20
703.715721617
 30
0.0
 11
1111.440374152
 21
703.715721617
 31
0.0
  0
LINE
  8
0
 62
0
 10
1111.440374152
 20
703.715721617
 30
0.0
 11
1111.440374152
 21
689.615721617
 31
0.0
  0
LINE
  8
0
 62
0
 10
1111.440374152
 20
689.615721617
 30
0.0
 11
1125.540374152
 21
689.615721617
 31
0.0
  0
LINE
  8
0
 62
0
 10
1144.590374152
 20
689.615721617
 30
0.0
 11
1144.590374152
 21
703.715721617
 31
0.0
  0
LINE
  8
0
 62
0
 10
1144.590374152
 20
703.715721617
 30
0.0
 11
1130.490374152
 21
703.715721617
 31
0.0
  0
LINE
  8
0
 62
0
 10
1130.490374152
 20
703.715721617
 30
0.0
 11
1130.490374152
 21
689.615721617
 31
0.0
  0
LINE
  8
0
 62
0
 10
1130.490374152
 20
689.615721617
 30
0.0
 11
1144.590374152
 21
689.615721617
 31
0.0
  0
LINE
  8
0
 62
0
 10
1163.640374152
 20
689.615721617
 30
0.0
 11
1163.640374152
 21
703.715721617
 31
0.0
  0
LINE
  8
0
 62
0
 10
1163.640374152
 20
703.715721617
 30
0.0
 11
1149.540374152
 21
703.715721617
 31
0.0
  0
LINE
  8
0
 62
0
 10
1149.540374152
 20
703.715721617
 30
0.0
 11
1149.540374152
 21
689.615721617
 31
0.0
  0
LINE
  8
0
 62
0
 10
1149.540374152
 20
689.615721617
 30
0.0
 11
1163.640374152
 21
689.615721617
 31
0.0
  0
LINE
  8
0
 62
0
 10
1182.690374152
 20
689.615721617
 30
0.0
 11
1182.690374152
 21
703.715721617
 31
0.0
  0
LINE
  8
0
 62
0
 10
1182.690374152
 20
703.715721617
 30
0.0
 11
1168.590374152
 21
703.715721617
 31
0.0
  0
LINE
  8
0
 62
0
 10
1168.590374152
 20
703.715721617
 30
0.0
 11
1168.590374152
 21
689.615721617
 31
0.0
  0
LINE
  8
0
 62
0
 10
1168.590374152
 20
689.615721617
 30
0.0
 11
1182.690374152
 21
689.615721617
 31
0.0
  0
LINE
  8
0
 62
0
 10
1201.740374152
 20
689.615721617
 30
0.0
 11
1201.740374152
 21
703.715721617
 31
0.0
  0
LINE
  8
0
 62
0
 10
1201.740374152
 20
703.715721617
 30
0.0
 11
1187.640374153
 21
703.715721617
 31
0.0
  0
LINE
  8
0
 62
0
 10
1187.640374153
 20
703.715721617
 30
0.0
 11
1187.640374153
 21
689.615721617
 31
0.0
  0
LINE
  8
0
 62
0
 10
1187.640374153
 20
689.615721617
 30
0.0
 11
1201.740374152
 21
689.615721617
 31
0.0
  0
LINE
  8
0
 62
0
 10
1220.790374152
 20
689.615721617
 30
0.0
 11
1220.790374152
 21
703.715721617
 31
0.0
  0
LINE
  8
0
 62
0
 10
1220.790374152
 20
703.715721617
 30
0.0
 11
1206.690374153
 21
703.715721617
 31
0.0
  0
LINE
  8
0
 62
0
 10
1206.690374153
 20
703.715721617
 30
0.0
 11
1206.690374153
 21
689.615721617
 31
0.0
  0
LINE
  8
0
 62
0
 10
1206.690374153
 20
689.615721617
 30
0.0
 11
1220.790374152
 21
689.615721617
 31
0.0
  0
LINE
  8
0
 62
0
 10
1239.840374152
 20
689.615721617
 30
0.0
 11
1239.840374152
 21
703.715721617
 31
0.0
  0
LINE
  8
0
 62
0
 10
1239.840374152
 20
703.715721617
 30
0.0
 11
1225.740374152
 21
703.715721617
 31
0.0
  0
LINE
  8
0
 62
0
 10
1225.740374152
 20
703.715721617
 30
0.0
 11
1225.740374152
 21
689.615721617
 31
0.0
  0
LINE
  8
0
 62
0
 10
1225.740374152
 20
689.615721617
 30
0.0
 11
1239.840374152
 21
689.615721617
 31
0.0
  0
LINE
  8
0
 62
0
 10
1258.890374152
 20
689.615721617
 30
0.0
 11
1258.890374152
 21
703.715721617
 31
0.0
  0
LINE
  8
0
 62
0
 10
1258.890374152
 20
703.715721617
 30
0.0
 11
1244.790374152
 21
703.715721617
 31
0.0
  0
LINE
  8
0
 62
0
 10
1244.790374152
 20
703.715721617
 30
0.0
 11
1244.790374152
 21
689.615721617
 31
0.0
  0
LINE
  8
0
 62
0
 10
1244.790374152
 20
689.615721617
 30
0.0
 11
1258.890374152
 21
689.615721617
 31
0.0
  0
LINE
  8
0
 62
0
 10
1277.940374152
 20
689.615721617
 30
0.0
 11
1277.940374152
 21
703.715721617
 31
0.0
  0
LINE
  8
0
 62
0
 10
1277.940374152
 20
703.715721617
 30
0.0
 11
1263.840374152
 21
703.715721617
 31
0.0
  0
LINE
  8
0
 62
0
 10
1263.840374152
 20
703.715721617
 30
0.0
 11
1263.840374152
 21
689.615721617
 31
0.0
  0
LINE
  8
0
 62
0
 10
1263.840374152
 20
689.615721617
 30
0.0
 11
1277.940374152
 21
689.615721617
 31
0.0
  0
LINE
  8
0
 62
0
 10
1301.752874152
 20
689.615721617
 30
0.0
 11
1301.752874152
 21
703.715721617
 31
0.0
  0
LINE
  8
0
 62
0
 10
1301.752874152
 20
703.715721617
 30
0.0
 11
1287.652874153
 21
703.715721617
 31
0.0
  0
LINE
  8
0
 62
0
 10
1287.652874153
 20
703.715721617
 30
0.0
 11
1287.652874153
 21
689.615721617
 31
0.0
  0
LINE
  8
0
 62
0
 10
1287.652874153
 20
689.615721617
 30
0.0
 11
1301.752874152
 21
689.615721617
 31
0.0
  0
LINE
  8
0
 62
0
 10
1325.565374152
 20
689.615721617
 30
0.0
 11
1325.565374152
 21
703.715721617
 31
0.0
  0
LINE
  8
0
 62
0
 10
1325.565374152
 20
703.715721617
 30
0.0
 11
1311.465374152
 21
703.715721617
 31
0.0
  0
LINE
  8
0
 62
0
 10
1311.465374152
 20
703.715721617
 30
0.0
 11
1311.465374152
 21
689.615721617
 31
0.0
  0
LINE
  8
0
 62
0
 10
1311.465374152
 20
689.615721617
 30
0.0
 11
1325.565374152
 21
689.615721617
 31
0.0
  0
LINE
  8
0
 62
0
 10
1330.515374152
 20
689.615721617
 30
0.0
 11
1344.615374152
 21
689.615721617
 31
0.0
  0
LINE
  8
0
 62
0
 10
1344.615374152
 20
689.615721617
 30
0.0
 11
1344.615374152
 21
703.715721617
 31
0.0
  0
LINE
  8
0
 62
0
 10
1344.615374152
 20
703.715721617
 30
0.0
 11
1330.515374152
 21
703.715721617
 31
0.0
  0
LINE
  8
0
 62
0
 10
1330.515374152
 20
703.715721617
 30
0.0
 11
1330.515374152
 21
689.615721617
 31
0.0
  0
LINE
  8
0
 62
0
 10
1330.515374152
 20
670.565721617
 30
0.0
 11
1344.615374152
 21
670.565721617
 31
0.0
  0
LINE
  8
0
 62
0
 10
1344.615374152
 20
670.565721617
 30
0.0
 11
1344.615374152
 21
684.665721617
 31
0.0
  0
LINE
  8
0
 62
0
 10
1344.615374152
 20
684.665721617
 30
0.0
 11
1330.515374152
 21
684.665721617
 31
0.0
  0
LINE
  8
0
 62
0
 10
1330.515374152
 20
684.665721617
 30
0.0
 11
1330.515374152
 21
670.565721617
 31
0.0
  0
LINE
  8
0
 62
0
 10
1311.465374152
 20
665.615721617
 30
0.0
 11
1311.465374152
 21
651.515721617
 31
0.0
  0
LINE
  8
0
 62
0
 10
1311.465374152
 20
651.515721617
 30
0.0
 11
1325.565374152
 21
651.515721617
 31
0.0
  0
LINE
  8
0
 62
0
 10
1325.565374152
 20
651.515721617
 30
0.0
 11
1325.565374152
 21
665.615721617
 31
0.0
  0
LINE
  8
0
 62
0
 10
1325.565374152
 20
665.615721617
 30
0.0
 11
1311.465374152
 21
665.615721617
 31
0.0
  0
LINE
  8
0
 62
0
 10
1311.465374152
 20
670.565721617
 30
0.0
 11
1325.565374152
 21
670.565721617
 31
0.0
  0
LINE
  8
0
 62
0
 10
1325.565374152
 20
670.565721617
 30
0.0
 11
1325.565374152
 21
684.665721617
 31
0.0
  0
LINE
  8
0
 62
0
 10
1325.565374152
 20
684.665721617
 30
0.0
 11
1311.465374152
 21
684.665721617
 31
0.0
  0
LINE
  8
0
 62
0
 10
1311.465374152
 20
684.665721617
 30
0.0
 11
1311.465374152
 21
670.565721617
 31
0.0
  0
LINE
  8
0
 62
0
 10
1292.415374152
 20
665.615721617
 30
0.0
 11
1292.415374152
 21
664.875721617
 31
0.0
  0
LINE
  8
0
 62
0
 10
1290.995999152
 20
664.875721617
 30
0.0
 11
1292.415374152
 21
664.875721617
 31
0.0
  0
LINE
  8
0
 62
0
 10
1290.995999152
 20
649.375721617
 30
0.0
 11
1290.995999152
 21
664.875721617
 31
0.0
  0
LINE
  8
0
 62
0
 10
1298.395999152
 20
649.375721617
 30
0.0
 11
1290.995999152
 21
649.375721617
 31
0.0
  0
LINE
  8
0
 62
0
 10
1298.395999152
 20
651.515721617
 30
0.0
 11
1298.395999152
 21
649.375721617
 31
0.0
  0
LINE
  8
0
 62
0
 10
1298.395999152
 20
651.515721617
 30
0.0
 11
1306.515374152
 21
651.515721617
 31
0.0
  0
LINE
  8
0
 62
0
 10
1306.515374152
 20
651.515721617
 30
0.0
 11
1306.515374152
 21
665.615721617
 31
0.0
  0
LINE
  8
0
 62
0
 10
1306.515374152
 20
665.615721617
 30
0.0
 11
1292.415374152
 21
665.615721617
 31
0.0
  0
LINE
  8
0
 62
0
 10
1280.509124152
 20
670.565721617
 30
0.0
 11
1294.609124152
 21
670.565721617
 31
0.0
  0
LINE
  8
0
 62
0
 10
1294.609124152
 20
670.565721617
 30
0.0
 11
1294.609124152
 21
684.665721617
 31
0.0
  0
LINE
  8
0
 62
0
 10
1294.609124152
 20
684.665721617
 30
0.0
 11
1280.509124152
 21
684.665721617
 31
0.0
  0
LINE
  8
0
 62
0
 10
1280.509124152
 20
684.665721617
 30
0.0
 11
1280.509124152
 21
670.565721617
 31
0.0
  0
LINE
  8
0
 62
0
 10
1271.883124152
 20
671.305721617
 30
0.0
 11
1279.359124152
 21
671.305721617
 31
0.0
  0
LINE
  8
0
 62
0
 10
1279.359124152
 20
686.805721617
 30
0.0
 11
1279.359124152
 21
671.305721617
 31
0.0
  0
LINE
  8
0
 62
0
 10
1271.883124152
 20
686.805721617
 30
0.0
 11
1279.359124152
 21
686.805721617
 31
0.0
  0
LINE
  8
0
 62
0
 10
1271.883124152
 20
686.805721617
 30
0.0
 11
1271.883124152
 21
671.305721617
 31
0.0
  0
LINE
  8
0
 62
0
 10
1249.552874152
 20
670.565721617
 30
0.0
 11
1263.652874152
 21
670.565721617
 31
0.0
  0
LINE
  8
0
 62
0
 10
1263.652874152
 20
670.565721617
 30
0.0
 11
1263.652874152
 21
684.665721617
 31
0.0
  0
LINE
  8
0
 62
0
 10
1263.652874152
 20
684.665721617
 30
0.0
 11
1249.552874152
 21
684.665721617
 31
0.0
  0
LINE
  8
0
 62
0
 10
1249.552874152
 20
684.665721617
 30
0.0
 11
1249.552874152
 21
670.565721617
 31
0.0
  0
LINE
  8
0
 62
0
 10
1240.027874152
 20
665.615721617
 30
0.0
 11
1240.027874152
 21
651.515721617
 31
0.0
  0
LINE
  8
0
 62
0
 10
1240.027874152
 20
651.515721617
 30
0.0
 11
1254.127874152
 21
651.515721617
 31
0.0
  0
LINE
  8
0
 62
0
 10
1254.127874152
 20
651.515721617
 30
0.0
 11
1254.127874152
 21
665.615721617
 31
0.0
  0
LINE
  8
0
 62
0
 10
1254.127874152
 20
665.615721617
 30
0.0
 11
1240.027874152
 21
665.615721617
 31
0.0
  0
LINE
  8
0
 62
0
 10
1230.502874152
 20
670.565721617
 30
0.0
 11
1244.602874152
 21
670.565721617
 31
0.0
  0
LINE
  8
0
 62
0
 10
1244.602874152
 20
670.565721617
 30
0.0
 11
1244.602874152
 21
684.665721617
 31
0.0
  0
LINE
  8
0
 62
0
 10
1244.602874152
 20
684.665721617
 30
0.0
 11
1230.502874152
 21
684.665721617
 31
0.0
  0
LINE
  8
0
 62
0
 10
1230.502874152
 20
684.665721617
 30
0.0
 11
1230.502874152
 21
670.565721617
 31
0.0
  0
LINE
  8
0
 62
0
 10
1220.977874153
 20
665.615721617
 30
0.0
 11
1220.977874153
 21
651.515721617
 31
0.0
  0
LINE
  8
0
 62
0
 10
1220.977874153
 20
651.515721617
 30
0.0
 11
1235.077874152
 21
651.515721617
 31
0.0
  0
LINE
  8
0
 62
0
 10
1235.077874152
 20
651.515721617
 30
0.0
 11
1235.077874152
 21
665.615721617
 31
0.0
  0
LINE
  8
0
 62
0
 10
1235.077874152
 20
665.615721617
 30
0.0
 11
1220.977874153
 21
665.615721617
 31
0.0
  0
LINE
  8
0
 62
0
 10
1211.452874152
 20
670.565721617
 30
0.0
 11
1225.552874152
 21
670.565721617
 31
0.0
  0
LINE
  8
0
 62
0
 10
1225.552874152
 20
670.565721617
 30
0.0
 11
1225.552874152
 21
684.665721617
 31
0.0
  0
LINE
  8
0
 62
0
 10
1225.552874152
 20
684.665721617
 30
0.0
 11
1211.452874152
 21
684.665721617
 31
0.0
  0
LINE
  8
0
 62
0
 10
1211.452874152
 20
684.665721617
 30
0.0
 11
1211.452874152
 21
670.565721617
 31
0.0
  0
LINE
  8
0
 62
0
 10
1201.927874152
 20
665.615721617
 30
0.0
 11
1201.927874152
 21
651.515721617
 31
0.0
  0
LINE
  8
0
 62
0
 10
1201.927874152
 20
651.515721617
 30
0.0
 11
1216.027874152
 21
651.515721617
 31
0.0
  0
LINE
  8
0
 62
0
 10
1216.027874152
 20
651.515721617
 30
0.0
 11
1216.027874152
 21
665.615721617
 31
0.0
  0
LINE
  8
0
 62
0
 10
1216.027874152
 20
665.615721617
 30
0.0
 11
1201.927874152
 21
665.615721617
 31
0.0
  0
LINE
  8
0
 62
0
 10
1192.402874152
 20
670.565721617
 30
0.0
 11
1206.502874152
 21
670.565721617
 31
0.0
  0
LINE
  8
0
 62
0
 10
1206.502874152
 20
670.565721617
 30
0.0
 11
1206.502874152
 21
684.665721617
 31
0.0
  0
LINE
  8
0
 62
0
 10
1206.502874152
 20
684.665721617
 30
0.0
 11
1192.402874152
 21
684.665721617
 31
0.0
  0
LINE
  8
0
 62
0
 10
1192.402874152
 20
684.665721617
 30
0.0
 11
1192.402874152
 21
670.565721617
 31
0.0
  0
LINE
  8
0
 62
0
 10
1182.877874152
 20
665.615721617
 30
0.0
 11
1182.877874152
 21
651.515721617
 31
0.0
  0
LINE
  8
0
 62
0
 10
1182.877874152
 20
651.515721617
 30
0.0
 11
1196.977874153
 21
651.515721617
 31
0.0
  0
LINE
  8
0
 62
0
 10
1196.977874153
 20
651.515721617
 30
0.0
 11
1196.977874153
 21
665.615721617
 31
0.0
  0
LINE
  8
0
 62
0
 10
1196.977874153
 20
665.615721617
 30
0.0
 11
1182.877874152
 21
665.615721617
 31
0.0
  0
LINE
  8
0
 62
0
 10
1173.352874152
 20
670.565721617
 30
0.0
 11
1187.452874152
 21
670.565721617
 31
0.0
  0
LINE
  8
0
 62
0
 10
1187.452874152
 20
670.565721617
 30
0.0
 11
1187.452874152
 21
684.665721617
 31
0.0
  0
LINE
  8
0
 62
0
 10
1187.452874152
 20
684.665721617
 30
0.0
 11
1173.352874152
 21
684.665721617
 31
0.0
  0
LINE
  8
0
 62
0
 10
1173.352874152
 20
684.665721617
 30
0.0
 11
1173.352874152
 21
670.565721617
 31
0.0
  0
LINE
  8
0
 62
0
 10
1163.827874152
 20
665.615721617
 30
0.0
 11
1163.827874152
 21
651.515721617
 31
0.0
  0
LINE
  8
0
 62
0
 10
1163.827874152
 20
651.515721617
 30
0.0
 11
1177.927874152
 21
651.515721617
 31
0.0
  0
LINE
  8
0
 62
0
 10
1177.927874152
 20
651.515721617
 30
0.0
 11
1177.927874152
 21
665.615721617
 31
0.0
  0
LINE
  8
0
 62
0
 10
1177.927874152
 20
665.615721617
 30
0.0
 11
1163.827874152
 21
665.615721617
 31
0.0
  0
LINE
  8
0
 62
0
 10
1154.302874152
 20
670.565721617
 30
0.0
 11
1168.402874152
 21
670.565721617
 31
0.0
  0
LINE
  8
0
 62
0
 10
1168.402874152
 20
670.565721617
 30
0.0
 11
1168.402874152
 21
684.665721617
 31
0.0
  0
LINE
  8
0
 62
0
 10
1168.402874152
 20
684.665721617
 30
0.0
 11
1154.302874152
 21
684.665721617
 31
0.0
  0
LINE
  8
0
 62
0
 10
1154.302874152
 20
684.665721617
 30
0.0
 11
1154.302874152
 21
670.565721617
 31
0.0
  0
LINE
  8
0
 62
0
 10
1144.777874152
 20
665.615721617
 30
0.0
 11
1144.777874152
 21
651.515721617
 31
0.0
  0
LINE
  8
0
 62
0
 10
1144.777874152
 20
651.515721617
 30
0.0
 11
1158.877874152
 21
651.515721617
 31
0.0
  0
LINE
  8
0
 62
0
 10
1158.877874152
 20
651.515721617
 30
0.0
 11
1158.877874152
 21
665.615721617
 31
0.0
  0
LINE
  8
0
 62
0
 10
1158.877874152
 20
665.615721617
 30
0.0
 11
1144.777874152
 21
665.615721617
 31
0.0
  0
LINE
  8
0
 62
0
 10
1135.252874152
 20
670.565721617
 30
0.0
 11
1149.352874152
 21
670.565721617
 31
0.0
  0
LINE
  8
0
 62
0
 10
1149.352874152
 20
670.565721617
 30
0.0
 11
1149.352874152
 21
684.665721617
 31
0.0
  0
LINE
  8
0
 62
0
 10
1149.352874152
 20
684.665721617
 30
0.0
 11
1135.252874152
 21
684.665721617
 31
0.0
  0
LINE
  8
0
 62
0
 10
1135.252874152
 20
684.665721617
 30
0.0
 11
1135.252874152
 21
670.565721617
 31
0.0
  0
LINE
  8
0
 62
0
 10
1125.727874152
 20
665.615721617
 30
0.0
 11
1125.727874152
 21
651.515721617
 31
0.0
  0
LINE
  8
0
 62
0
 10
1125.727874152
 20
651.515721617
 30
0.0
 11
1139.827874152
 21
651.515721617
 31
0.0
  0
LINE
  8
0
 62
0
 10
1139.827874152
 20
651.515721617
 30
0.0
 11
1139.827874152
 21
665.615721617
 31
0.0
  0
LINE
  8
0
 62
0
 10
1139.827874152
 20
665.615721617
 30
0.0
 11
1125.727874152
 21
665.615721617
 31
0.0
  0
LINE
  8
0
 62
0
 10
1116.202874152
 20
670.565721617
 30
0.0
 11
1130.302874152
 21
670.565721617
 31
0.0
  0
LINE
  8
0
 62
0
 10
1130.302874152
 20
670.565721617
 30
0.0
 11
1130.302874152
 21
684.665721617
 31
0.0
  0
LINE
  8
0
 62
0
 10
1130.302874152
 20
684.665721617
 30
0.0
 11
1116.202874152
 21
684.665721617
 31
0.0
  0
LINE
  8
0
 62
0
 10
1116.202874152
 20
684.665721617
 30
0.0
 11
1116.202874152
 21
670.565721617
 31
0.0
  0
LINE
  8
0
 62
0
 10
1106.677874152
 20
665.615721617
 30
0.0
 11
1106.677874152
 21
651.515721617
 31
0.0
  0
LINE
  8
0
 62
0
 10
1106.677874152
 20
651.515721617
 30
0.0
 11
1120.777874152
 21
651.515721617
 31
0.0
  0
LINE
  8
0
 62
0
 10
1120.777874152
 20
651.515721617
 30
0.0
 11
1120.777874152
 21
665.615721617
 31
0.0
  0
LINE
  8
0
 62
0
 10
1120.777874152
 20
665.615721617
 30
0.0
 11
1106.677874152
 21
665.615721617
 31
0.0
  0
LINE
  8
0
 62
0
 10
1097.152874152
 20
670.565721617
 30
0.0
 11
1111.252874152
 21
670.565721617
 31
0.0
  0
LINE
  8
0
 62
0
 10
1111.252874152
 20
670.565721617
 30
0.0
 11
1111.252874152
 21
684.665721617
 31
0.0
  0
LINE
  8
0
 62
0
 10
1111.252874152
 20
684.665721617
 30
0.0
 11
1097.152874152
 21
684.665721617
 31
0.0
  0
LINE
  8
0
 62
0
 10
1097.152874152
 20
684.665721617
 30
0.0
 11
1097.152874152
 21
670.565721617
 31
0.0
  0
LINE
  8
0
 62
0
 10
1087.627874152
 20
665.615721617
 30
0.0
 11
1087.627874152
 21
651.515721617
 31
0.0
  0
LINE
  8
0
 62
0
 10
1087.627874152
 20
651.515721617
 30
0.0
 11
1101.727874152
 21
651.515721617
 31
0.0
  0
LINE
  8
0
 62
0
 10
1101.727874152
 20
651.515721617
 30
0.0
 11
1101.727874152
 21
665.615721617
 31
0.0
  0
LINE
  8
0
 62
0
 10
1101.727874152
 20
665.615721617
 30
0.0
 11
1087.627874152
 21
665.615721617
 31
0.0
  0
LINE
  8
0
 62
0
 10
1078.102874152
 20
670.565721617
 30
0.0
 11
1092.202874152
 21
670.565721617
 31
0.0
  0
LINE
  8
0
 62
0
 10
1092.202874152
 20
670.565721617
 30
0.0
 11
1092.202874152
 21
684.665721617
 31
0.0
  0
LINE
  8
0
 62
0
 10
1092.202874152
 20
684.665721617
 30
0.0
 11
1078.102874152
 21
684.665721617
 31
0.0
  0
LINE
  8
0
 62
0
 10
1078.102874152
 20
684.665721617
 30
0.0
 11
1078.102874152
 21
670.565721617
 31
0.0
  0
LINE
  8
0
 62
0
 10
1068.577874152
 20
665.615721617
 30
0.0
 11
1068.577874152
 21
651.515721617
 31
0.0
  0
LINE
  8
0
 62
0
 10
1068.577874152
 20
651.515721617
 30
0.0
 11
1082.677874152
 21
651.515721617
 31
0.0
  0
LINE
  8
0
 62
0
 10
1082.677874152
 20
651.515721617
 30
0.0
 11
1082.677874152
 21
665.615721617
 31
0.0
  0
LINE
  8
0
 62
0
 10
1082.677874152
 20
665.615721617
 30
0.0
 11
1068.577874152
 21
665.615721617
 31
0.0
  0
LINE
  8
0
 62
0
 10
1059.052874152
 20
670.565721617
 30
0.0
 11
1073.152874152
 21
670.565721617
 31
0.0
  0
LINE
  8
0
 62
0
 10
1073.152874152
 20
670.565721617
 30
0.0
 11
1073.152874152
 21
684.665721617
 31
0.0
  0
LINE
  8
0
 62
0
 10
1073.152874152
 20
684.665721617
 30
0.0
 11
1059.052874152
 21
684.665721617
 31
0.0
  0
LINE
  8
0
 62
0
 10
1059.052874152
 20
684.665721617
 30
0.0
 11
1059.052874152
 21
670.565721617
 31
0.0
  0
LINE
  8
0
 62
0
 10
1028.106624153
 20
670.565721617
 30
0.0
 11
1046.959124152
 21
670.565721617
 31
0.0
  0
LINE
  8
0
 62
0
 10
1046.959124152
 20
670.565721617
 30
0.0
 11
1046.959124152
 21
684.665721617
 31
0.0
  0
LINE
  8
0
 62
0
 10
1028.106624153
 20
684.665721617
 30
0.0
 11
1046.959124152
 21
684.665721617
 31
0.0
  0
LINE
  8
0
 62
0
 10
1028.106624153
 20
684.665721617
 30
0.0
 11
1028.106624153
 21
670.565721617
 31
0.0
  0
LINE
  8
0
 62
0
 10
1051.721624152
 20
651.515721617
 30
0.0
 11
1051.721624152
 21
665.615721617
 31
0.0
  0
LINE
  8
0
 62
0
 10
1051.721624152
 20
665.615721617
 30
0.0
 11
1037.621624152
 21
665.615721617
 31
0.0
  0
LINE
  8
0
 62
0
 10
1037.621624152
 20
665.615721617
 30
0.0
 11
1037.621624152
 21
651.515721617
 31
0.0
  0
LINE
  8
0
 62
0
 10
1037.621624152
 20
651.515721617
 30
0.0
 11
1051.721624152
 21
651.515721617
 31
0.0
  0
LINE
  8
0
 62
0
 10
1060.271624152
 20
649.375721617
 30
0.0
 11
1052.871624152
 21
649.375721617
 31
0.0
  0
LINE
  8
0
 62
0
 10
1060.271624152
 20
649.375721617
 30
0.0
 11
1060.271624152
 21
664.875721617
 31
0.0
  0
LINE
  8
0
 62
0
 10
1060.271624152
 20
664.875721617
 30
0.0
 11
1052.871624152
 21
664.875721617
 31
0.0
  0
LINE
  8
0
 62
0
 10
1052.871624152
 20
664.875721617
 30
0.0
 11
1052.871624152
 21
649.375721617
 31
0.0
  0
LINE
  8
0
 62
0
 10
1028.096624152
 20
632.465721617
 30
0.0
 11
1028.096624152
 21
646.565721617
 31
0.0
  0
LINE
  8
0
 62
0
 10
1042.196624152
 20
632.465721617
 30
0.0
 11
1028.096624152
 21
632.465721617
 31
0.0
  0
LINE
  8
0
 62
0
 10
1042.196624152
 20
646.565721617
 30
0.0
 11
1042.196624152
 21
632.465721617
 31
0.0
  0
LINE
  8
0
 62
0
 10
1028.096624152
 20
646.565721617
 30
0.0
 11
1042.196624152
 21
646.565721617
 31
0.0
  0
LINE
  8
0
 62
0
 10
1051.909124152
 20
646.565721617
 30
0.0
 11
1066.009124152
 21
646.565721617
 31
0.0
  0
LINE
  8
0
 62
0
 10
1051.909124152
 20
632.465721617
 30
0.0
 11
1051.909124152
 21
646.565721617
 31
0.0
  0
LINE
  8
0
 62
0
 10
1066.009124152
 20
632.465721617
 30
0.0
 11
1051.909124152
 21
632.465721617
 31
0.0
  0
LINE
  8
0
 62
0
 10
1066.009124152
 20
646.565721617
 30
0.0
 11
1066.009124152
 21
632.465721617
 31
0.0
  0
LINE
  8
0
 62
0
 10
1036.395624152
 20
649.375721617
 30
0.0
 11
1028.995624152
 21
649.375721617
 31
0.0
  0
LINE
  8
0
 62
0
 10
1036.395624152
 20
649.375721617
 30
0.0
 11
1036.395624152
 21
664.875721617
 31
0.0
  0
LINE
  8
0
 62
0
 10
1036.395624152
 20
664.875721617
 30
0.0
 11
1028.995624152
 21
664.875721617
 31
0.0
  0
LINE
  8
0
 62
0
 10
1028.995624152
 20
664.875721617
 30
0.0
 11
1028.995624152
 21
649.375721617
 31
0.0
  0
LINE
  8
0
 62
0
 10
1266.221624152
 20
665.615721617
 30
0.0
 11
1289.845999152
 21
665.615721617
 31
0.0
  0
LINE
  8
0
 62
0
 10
1266.221624152
 20
665.615721617
 30
0.0
 11
1266.221624152
 21
651.515721617
 31
0.0
  0
LINE
  8
0
 62
0
 10
1266.221624152
 20
651.515721617
 30
0.0
 11
1267.119999152
 21
651.515721617
 31
0.0
  0
LINE
  8
0
 62
0
 10
1267.119999152
 20
649.375721617
 30
0.0
 11
1267.119999152
 21
651.515721617
 31
0.0
  0
LINE
  8
0
 62
0
 10
1274.519999152
 20
649.375721617
 30
0.0
 11
1267.119999152
 21
649.375721617
 31
0.0
  0
LINE
  8
0
 62
0
 10
1274.519999152
 20
651.515721617
 30
0.0
 11
1274.519999152
 21
649.375721617
 31
0.0
  0
LINE
  8
0
 62
0
 10
1274.519999152
 20
651.515721617
 30
0.0
 11
1289.845999152
 21
651.515721617
 31
0.0
  0
LINE
  8
0
 62
0
 10
1289.845999152
 20
651.515721617
 30
0.0
 11
1289.845999152
 21
665.615721617
 31
0.0
  0
LINE
  8
0
 62
0
 10
1295.759124152
 20
671.305721617
 30
0.0
 11
1295.759124152
 21
686.805721617
 31
0.0
  0
LINE
  8
0
 62
0
 10
1295.759124152
 20
671.305721617
 30
0.0
 11
1303.235124153
 21
671.305721617
 31
0.0
  0
LINE
  8
0
 62
0
 10
1303.235124153
 20
686.805721617
 30
0.0
 11
1303.235124153
 21
671.305721617
 31
0.0
  0
LINE
  8
0
 62
0
 10
1295.759124152
 20
686.805721617
 30
0.0
 11
1303.235124153
 21
686.805721617
 31
0.0
  0
LINE
  8
0
 62
0
 10
1306.515374152
 20
646.565721617
 30
0.0
 11
1306.515374152
 21
632.465721617
 31
0.0
  0
LINE
  8
0
 62
0
 10
1292.415374152
 20
646.565721617
 30
0.0
 11
1306.515374152
 21
646.565721617
 31
0.0
  0
LINE
  8
0
 62
0
 10
1292.415374152
 20
632.465721617
 30
0.0
 11
1292.415374152
 21
646.565721617
 31
0.0
  0
LINE
  8
0
 62
0
 10
1306.515374152
 20
632.465721617
 30
0.0
 11
1292.415374152
 21
632.465721617
 31
0.0
  0
LINE
  8
0
 62
0
 10
1311.465374152
 20
646.565721617
 30
0.0
 11
1325.565374152
 21
646.565721617
 31
0.0
  0
LINE
  8
0
 62
0
 10
1311.465374152
 20
632.465721617
 30
0.0
 11
1311.465374152
 21
646.565721617
 31
0.0
  0
LINE
  8
0
 62
0
 10
1325.565374152
 20
632.465721617
 30
0.0
 11
1311.465374152
 21
632.465721617
 31
0.0
  0
LINE
  8
0
 62
0
 10
1325.565374152
 20
646.565721617
 30
0.0
 11
1325.565374152
 21
632.465721617
 31
0.0
  0
LINE
  8
0
 62
0
 10
1330.515374152
 20
646.565721617
 30
0.0
 11
1344.615374152
 21
646.565721617
 31
0.0
  0
LINE
  8
0
 62
0
 10
1330.515374152
 20
632.465721617
 30
0.0
 11
1330.515374152
 21
646.565721617
 31
0.0
  0
LINE
  8
0
 62
0
 10
1344.615374152
 20
632.465721617
 30
0.0
 11
1330.515374152
 21
632.465721617
 31
0.0
  0
LINE
  8
0
 62
0
 10
1344.615374152
 20
646.565721617
 30
0.0
 11
1344.615374152
 21
632.465721617
 31
0.0
  0
LINE
  8
0
 62
0
 10
1270.796624152
 20
646.565721617
 30
0.0
 11
1270.796624152
 21
632.465721617
 31
0.0
  0
LINE
  8
0
 62
0
 10
1256.696624152
 20
646.565721617
 30
0.0
 11
1270.796624152
 21
646.565721617
 31
0.0
  0
LINE
  8
0
 62
0
 10
1256.696624152
 20
632.465721617
 30
0.0
 11
1256.696624152
 21
646.565721617
 31
0.0
  0
LINE
  8
0
 62
0
 10
1270.796624152
 20
632.465721617
 30
0.0
 11
1256.696624152
 21
632.465721617
 31
0.0
  0
LINE
  8
0
 62
0
 10
1246.984124152
 20
646.565721617
 30
0.0
 11
1246.984124152
 21
632.465721617
 31
0.0
  0
LINE
  8
0
 62
0
 10
1232.884124152
 20
646.565721617
 30
0.0
 11
1246.984124152
 21
646.565721617
 31
0.0
  0
LINE
  8
0
 62
0
 10
1232.884124152
 20
632.465721617
 30
0.0
 11
1232.884124152
 21
646.565721617
 31
0.0
  0
LINE
  8
0
 62
0
 10
1246.984124152
 20
632.465721617
 30
0.0
 11
1232.884124152
 21
632.465721617
 31
0.0
  0
LINE
  8
0
 62
0
 10
1203.292925839
 20
645.065721617
 30
0.0
 11
1179.902874152
 21
645.065721617
 31
0.0
  0
LINE
  8
0
 62
0
 10
1203.292925839
 20
646.565721617
 30
0.0
 11
1203.292925839
 21
645.065721617
 31
0.0
  0
LINE
  8
0
 62
0
 10
1203.292925839
 20
646.565721617
 30
0.0
 11
1179.902874152
 21
646.565721617
 31
0.0
  0
LINE
  8
0
 62
0
 10
1179.902874152
 20
645.065721617
 30
0.0
 11
1179.902874152
 21
646.565721617
 31
0.0
  0
LINE
  8
0
 62
0
 10
1177.902874152
 20
645.065721617
 30
0.0
 11
1172.902874152
 21
645.065721617
 31
0.0
  0
LINE
  8
0
 62
0
 10
1177.902874152
 20
646.565721617
 30
0.0
 11
1177.902874152
 21
645.065721617
 31
0.0
  0
LINE
  8
0
 62
0
 10
1177.902874152
 20
646.565721617
 30
0.0
 11
1171.402874152
 21
646.565721617
 31
0.0
  0
LINE
  8
0
 62
0
 10
1171.402874152
 20
646.565721617
 30
0.0
 11
1171.402874152
 21
632.465721617
 31
0.0
  0
LINE
  8
0
 62
0
 10
1171.402874152
 20
632.465721617
 30
0.0
 11
1177.902874152
 21
632.465721617
 31
0.0
  0
LINE
  8
0
 62
0
 10
1177.902874152
 20
633.965721617
 30
0.0
 11
1177.902874152
 21
632.465721617
 31
0.0
  0
LINE
  8
0
 62
0
 10
1172.902874152
 20
633.965721617
 30
0.0
 11
1177.902874152
 21
633.965721617
 31
0.0
  0
LINE
  8
0
 62
0
 10
1172.902874152
 20
645.065721617
 30
0.0
 11
1172.902874152
 21
633.965721617
 31
0.0
  0
LINE
  8
0
 62
0
 10
1168.402874152
 20
646.565721617
 30
0.0
 11
1168.402874152
 21
632.465721617
 31
0.0
  0
LINE
  8
0
 62
0
 10
1154.302874152
 20
646.565721617
 30
0.0
 11
1168.402874152
 21
646.565721617
 31
0.0
  0
LINE
  8
0
 62
0
 10
1154.302874152
 20
632.465721617
 30
0.0
 11
1154.302874152
 21
646.565721617
 31
0.0
  0
LINE
  8
0
 62
0
 10
1168.402874152
 20
632.465721617
 30
0.0
 11
1154.302874152
 21
632.465721617
 31
0.0
  0
LINE
  8
0
 62
0
 10
1151.302874152
 20
646.565721617
 30
0.0
 11
1151.302874152
 21
632.465721617
 31
0.0
  0
LINE
  8
0
 62
0
 10
1144.802874152
 20
646.565721617
 30
0.0
 11
1151.302874152
 21
646.565721617
 31
0.0
  0
LINE
  8
0
 62
0
 10
1144.802874152
 20
645.065721617
 30
0.0
 11
1144.802874152
 21
646.565721617
 31
0.0
  0
LINE
  8
0
 62
0
 10
1149.802874152
 20
645.065721617
 30
0.0
 11
1144.802874152
 21
645.065721617
 31
0.0
  0
LINE
  8
0
 62
0
 10
1149.802874152
 20
633.965721617
 30
0.0
 11
1149.802874152
 21
645.065721617
 31
0.0
  0
LINE
  8
0
 62
0
 10
1144.802874152
 20
633.965721617
 30
0.0
 11
1149.802874152
 21
633.965721617
 31
0.0
  0
LINE
  8
0
 62
0
 10
1144.802874152
 20
632.465721617
 30
0.0
 11
1144.802874152
 21
633.965721617
 31
0.0
  0
LINE
  8
0
 62
0
 10
1151.302874152
 20
632.465721617
 30
0.0
 11
1144.802874152
 21
632.465721617
 31
0.0
  0
LINE
  8
0
 62
0
 10
1142.802874152
 20
646.565721617
 30
0.0
 11
1142.802874152
 21
645.065721617
 31
0.0
  0
LINE
  8
0
 62
0
 10
1119.412822465
 20
646.565721617
 30
0.0
 11
1142.802874152
 21
646.565721617
 31
0.0
  0
LINE
  8
0
 62
0
 10
1119.412822465
 20
645.065721617
 30
0.0
 11
1119.412822465
 21
646.565721617
 31
0.0
  0
LINE
  8
0
 62
0
 10
1142.802874152
 20
645.065721617
 30
0.0
 11
1119.412822465
 21
645.065721617
 31
0.0
  0
LINE
  8
0
 62
0
 10
1142.802874152
 20
633.965721617
 30
0.0
 11
1142.802874152
 21
632.465721617
 31
0.0
  0
LINE
  8
0
 62
0
 10
1119.412822465
 20
633.965721617
 30
0.0
 11
1142.802874152
 21
633.965721617
 31
0.0
  0
LINE
  8
0
 62
0
 10
1119.412822465
 20
632.465721617
 30
0.0
 11
1119.412822465
 21
633.965721617
 31
0.0
  0
LINE
  8
0
 62
0
 10
1142.802874152
 20
632.465721617
 30
0.0
 11
1119.412822465
 21
632.465721617
 31
0.0
  0
LINE
  8
0
 62
0
 10
1117.412822465
 20
633.965721617
 30
0.0
 11
1117.412822465
 21
632.465721617
 31
0.0
  0
LINE
  8
0
 62
0
 10
1112.412822465
 20
633.965721617
 30
0.0
 11
1117.412822465
 21
633.965721617
 31
0.0
  0
LINE
  8
0
 62
0
 10
1112.412822465
 20
645.065721617
 30
0.0
 11
1112.412822465
 21
633.965721617
 31
0.0
  0
LINE
  8
0
 62
0
 10
1117.412822465
 20
645.065721617
 30
0.0
 11
1112.412822465
 21
645.065721617
 31
0.0
  0
LINE
  8
0
 62
0
 10
1117.412822465
 20
646.565721617
 30
0.0
 11
1117.412822465
 21
645.065721617
 31
0.0
  0
LINE
  8
0
 62
0
 10
1110.912822465
 20
646.565721617
 30
0.0
 11
1117.412822465
 21
646.565721617
 31
0.0
  0
LINE
  8
0
 62
0
 10
1110.912822465
 20
646.565721617
 30
0.0
 11
1110.912822465
 21
632.465721617
 31
0.0
  0
LINE
  8
0
 62
0
 10
1117.412822465
 20
632.465721617
 30
0.0
 11
1110.912822465
 21
632.465721617
 31
0.0
  0
LINE
  8
0
 62
0
 10
1089.821624152
 20
646.565721617
 30
0.0
 11
1089.821624152
 21
632.465721617
 31
0.0
  0
LINE
  8
0
 62
0
 10
1075.721624152
 20
646.565721617
 30
0.0
 11
1089.821624152
 21
646.565721617
 31
0.0
  0
LINE
  8
0
 62
0
 10
1075.721624152
 20
632.465721617
 30
0.0
 11
1075.721624152
 21
646.565721617
 31
0.0
  0
LINE
  8
0
 62
0
 10
1089.821624152
 20
632.465721617
 30
0.0
 11
1075.721624152
 21
632.465721617
 31
0.0
  0
ARC
  8
0
 62
0
 10
1328.040374152
 20
649.040721617
 30
0.0
 40
2.1
 50
-180.0
 51
-90.0
  0
ARC
  8
0
 62
0
 10
1328.040374152
 20
649.040721617
 30
0.0
 40
2.1
 50
-90.0
 51
0.0
  0
ARC
  8
0
 62
0
 10
1328.040374152
 20
649.040721617
 30
0.0
 40
2.1
 50
0.0
 51
90.0
  0
ARC
  8
0
 62
0
 10
1328.040374152
 20
649.040721617
 30
0.0
 40
2.1
 50
90.0
 51
-180.0
  0
ARC
  8
0
 62
0
 10
1227.398473309
 20
639.515721617
 30
0.0
 40
2.1
 50
-180.0
 51
-90.0
  0
ARC
  8
0
 62
0
 10
1227.398473309
 20
639.515721617
 30
0.0
 40
2.1
 50
-90.0
 51
0.0
  0
ARC
  8
0
 62
0
 10
1227.398473309
 20
639.515721617
 30
0.0
 40
2.1
 50
0.0
 51
90.0
  0
ARC
  8
0
 62
0
 10
1227.398473309
 20
639.515721617
 30
0.0
 40
2.1
 50
90.0
 51
-180.0
  0
ARC
  8
0
 62
0
 10
1095.167223309
 20
639.515721617
 30
0.0
 40
2.1
 50
-180.0
 51
-90.0
  0
ARC
  8
0
 62
0
 10
1095.167223309
 20
639.515721617
 30
0.0
 40
2.1
 50
-90.0
 51
0.0
  0
ARC
  8
0
 62
0
 10
1095.167223309
 20
639.515721617
 30
0.0
 40
2.1
 50
0.0
 51
90.0
  0
ARC
  8
0
 62
0
 10
1095.167223309
 20
639.515721617
 30
0.0
 40
2.1
 50
90.0
 51
-180.0
  0
ARC
  8
0
 62
0
 10
1047.052874152
 20
639.515721617
 30
0.0
 40
2.1
 50
-180.0
 51
-90.0
  0
ARC
  8
0
 62
0
 10
1047.052874152
 20
639.515721617
 30
0.0
 40
2.1
 50
-90.0
 51
0.0
  0
ARC
  8
0
 62
0
 10
1047.052874152
 20
639.515721617
 30
0.0
 40
2.1
 50
0.0
 51
90.0
  0
ARC
  8
0
 62
0
 10
1047.052874152
 20
639.515721617
 30
0.0
 40
2.1
 50
90.0
 51
-180.0
  0
ARC
  8
0
 62
0
 10
1337.565374152
 20
727.265721617
 30
0.0
 40
2.1
 50
180.0
 51
-90.0
  0
ARC
  8
0
 62
0
 10
1337.565374152
 20
727.265721617
 30
0.0
 40
2.1
 50
-90.0
 51
-0.0
  0
ARC
  8
0
 62
0
 10
1337.565374152
 20
727.265721617
 30
0.0
 40
2.1
 50
-0.0
 51
90.0
  0
ARC
  8
0
 62
0
 10
1337.565374152
 20
727.265721617
 30
0.0
 40
2.1
 50
90.0
 51
180.0
  0
ARC
  8
0
 62
0
 10
1185.165374152
 20
727.265721617
 30
0.0
 40
2.1
 50
180.0
 51
-90.0
  0
ARC
  8
0
 62
0
 10
1185.165374152
 20
727.265721617
 30
0.0
 40
2.1
 50
-90.0
 51
-0.0
  0
ARC
  8
0
 62
0
 10
1185.165374152
 20
727.265721617
 30
0.0
 40
2.1
 50
-0.0
 51
90.0
  0
ARC
  8
0
 62
0
 10
1185.165374152
 20
727.265721617
 30
0.0
 40
2.1
 50
90.0
 51
180.0
  0
ARC
  8
0
 62
0
 10
1032.765374152
 20
727.265721617
 30
0.0
 40
2.1
 50
180.0
 51
-90.0
  0
ARC
  8
0
 62
0
 10
1032.765374152
 20
727.265721617
 30
0.0
 40
2.1
 50
-90.0
 51
-0.0
  0
ARC
  8
0
 62
0
 10
1032.765374152
 20
727.265721617
 30
0.0
 40
2.1
 50
-0.0
 51
90.0
  0
ARC
  8
0
 62
0
 10
1032.765374152
 20
727.265721617
 30
0.0
 40
2.1
 50
90.0
 51
180.0
  0
LINE
  8
0
 62
0
 10
1319.777874152
 20
745.865721617
 30
0.0
 11
1311.777874152
 21
745.865721617
 31
0.0
  0
ARC
  8
0
 62
0
 10
1311.777874152
 20
744.865721617
 30
0.0
 40
1.0
 50
90.0
 51
-180.0
  0
LINE
  8
0
 62
0
 10
1310.777874152
 20
730.790721617
 30
0.0
 11
1310.777874152
 21
744.865721617
 31
0.0
  0
ARC
  8
0
 62
0
 10
1311.777874152
 20
730.790721617
 30
0.0
 40
1.0
 50
-180.0
 51
-90.0
  0
LINE
  8
0
 62
0
 10
1319.777874152
 20
729.790721617
 30
0.0
 11
1311.777874152
 21
729.790721617
 31
0.0
  0
ARC
  8
0
 62
0
 10
1319.777874152
 20
730.790721617
 30
0.0
 40
1.0
 50
-90.0
 51
-0.0
  0
LINE
  8
0
 62
0
 10
1320.777874152
 20
744.865721617
 30
0.0
 11
1320.777874152
 21
730.790721617
 31
0.0
  0
ARC
  8
0
 62
0
 10
1319.777874152
 20
744.865721617
 30
0.0
 40
1.0
 50
-0.0
 51
90.0
  0
LINE
  8
0
 62
0
 10
1203.292925839
 20
633.965721617
 30
0.0
 11
1203.292925839
 21
632.465721617
 31
0.0
  0
LINE
  8
0
 62
0
 10
1179.902874152
 20
633.965721617
 30
0.0
 11
1203.292925839
 21
633.965721617
 31
0.0
  0
LINE
  8
0
 62
0
 10
1179.902874152
 20
632.465721617
 30
0.0
 11
1179.902874152
 21
633.965721617
 31
0.0
  0
LINE
  8
0
 62
0
 10
1179.902874152
 20
632.465721617
 30
0.0
 11
1203.292925839
 21
632.465721617
 31
0.0
  0
LINE
  8
0
 62
0
 10
1231.100774583
 20
629.465721617
 30
0.0
 11
1231.100774583
 21
624.815721617
 31
0.0
  0
ARC
  8
0
 62
0
 10
1230.100774583
 20
624.815721617
 30
0.0
 40
1.0
 50
-90.0
 51
-0.0
  0
LINE
  8
0
 62
0
 10
1230.100774583
 20
623.815721617
 30
0.0
 11
1226.100774583
 21
623.815721617
 31
0.0
  0
ARC
  8
0
 62
0
 10
1226.100774583
 20
624.815721617
 30
0.0
 40
1.0
 50
-180.0
 51
-90.0
  0
LINE
  8
0
 62
0
 10
1225.100774583
 20
624.815721617
 30
0.0
 11
1225.100774583
 21
629.465721617
 31
0.0
  0
ARC
  8
0
 62
0
 10
1224.100774583
 20
629.465721617
 30
0.0
 40
1.0
 50
-0.0
 51
90.0
  0
ARC
  8
0
 62
0
 10
1232.100774583
 20
629.465721617
 30
0.0
 40
1.0
 50
90.00000000002605
 51
-180.0
  0
ARC
  8
0
 62
0
 10
1228.100774583
 20
626.515721617
 30
0.0
 40
1.5
 50
-180.0
 51
-0.0
  0
ARC
  8
0
 62
0
 10
1228.100774583
 20
626.515721617
 30
0.0
 40
1.5
 50
-0.0
 51
-180.0
  0
ARC
  8
0
 62
0
 10
1036.765374152
 20
629.465721617
 30
0.0
 40
1.0
 50
90.00000000003908
 51
-180.0
  0
LINE
  8
0
 62
0
 10
1035.765374152
 20
629.465721617
 30
0.0
 11
1035.765374152
 21
624.815721617
 31
0.0
  0
ARC
  8
0
 62
0
 10
1034.765374152
 20
624.815721617
 30
0.0
 40
1.0
 50
-90.0
 51
-0.0
  0
LINE
  8
0
 62
0
 10
1034.765374152
 20
623.815721617
 30
0.0
 11
1030.765374152
 21
623.815721617
 31
0.0
  0
ARC
  8
0
 62
0
 10
1030.765374152
 20
624.815721617
 30
0.0
 40
1.0
 50
-180.0
 51
-90.0
  0
LINE
  8
0
 62
0
 10
1029.765374152
 20
624.815721617
 30
0.0
 11
1029.765374152
 21
629.465721617
 31
0.0
  0
ARC
  8
0
 62
0
 10
1028.765374152
 20
629.465721617
 30
0.0
 40
1.0
 50
-0.0
 51
90.0
  0
ARC
  8
0
 62
0
 10
1032.765374152
 20
626.515721617
 30
0.0
 40
1.5
 50
-180.0
 51
-0.0
  0
ARC
  8
0
 62
0
 10
1032.765374152
 20
626.515721617
 30
0.0
 40
1.5
 50
-0.0
 51
-180.0
  0
ARC
  8
0
 62
0
 10
1252.728314287
 20
748.865721617
 30
0.0
 40
1.0
 50
-90.0
 51
-0.0
  0
LINE
  8
0
 62
0
 10
1253.728314287
 20
753.515721617
 30
0.0
 11
1253.728314287
 21
748.865721617
 31
0.0
  0
ARC
  8
0
 62
0
 10
1254.728314287
 20
753.515721617
 30
0.0
 40
1.0
 50
90.0
 51
-180.0
  0
ARC
  8
0
 62
0
 10
1258.728314287
 20
753.515721617
 30
0.0
 40
1.0
 50
-0.0
 51
90.0
  0
LINE
  8
0
 62
0
 10
1259.728314287
 20
748.865721617
 30
0.0
 11
1259.728314287
 21
753.515721617
 31
0.0
  0
ARC
  8
0
 62
0
 10
1260.728314287
 20
748.865721617
 30
0.0
 40
1.0
 50
-180.0
 51
-90.0
  0
LINE
  8
0
 62
0
 10
1258.728314287
 20
754.515721617
 30
0.0
 11
1254.728314287
 21
754.515721617
 31
0.0
  0
ARC
  8
0
 62
0
 10
1256.728314287
 20
751.815721617
 30
0.0
 40
1.5
 50
-180.0
 51
-0.0
  0
ARC
  8
0
 62
0
 10
1256.728314287
 20
751.815721617
 30
0.0
 40
1.5
 50
-0.0
 51
-180.0
  0
ARC
  8
0
 62
0
 10
1333.565374152
 20
748.865721617
 30
0.0
 40
1.0
 50
-90.0
 51
-0.0
  0
LINE
  8
0
 62
0
 10
1340.565374152
 20
753.515721617
 30
0.0
 11
1340.565374152
 21
748.865721617
 31
0.0
  0
ARC
  8
0
 62
0
 10
1341.565374152
 20
748.865721617
 30
0.0
 40
1.0
 50
-180.0
 51
-90.0
  0
LINE
  8
0
 62
0
 10
1334.565374152
 20
748.865721617
 30
0.0
 11
1334.565374152
 21
753.515721617
 31
0.0
  0
ARC
  8
0
 62
0
 10
1335.565374152
 20
753.515721617
 30
0.0
 40
1.0
 50
90.0
 51
-180.0
  0
LINE
  8
0
 62
0
 10
1339.565374152
 20
754.515721617
 30
0.0
 11
1335.565374152
 21
754.515721617
 31
0.0
  0
ARC
  8
0
 62
0
 10
1339.565374152
 20
753.515721617
 30
0.0
 40
1.0
 50
-0.0
 51
90.0
  0
ARC
  8
0
 62
0
 10
1337.565374152
 20
751.815721617
 30
0.0
 40
1.5
 50
-0.0
 51
-180.0
  0
ARC
  8
0
 62
0
 10
1337.565374152
 20
751.815721617
 30
0.0
 40
1.5
 50
-180.0
 51
-0.0
  0
ARC
  8
0
 62
0
 10
1028.765374152
 20
748.865721617
 30
0.0
 40
1.0
 50
-90.0
 51
-0.0
  0
LINE
  8
0
 62
0
 10
1035.765374152
 20
753.515721617
 30
0.0
 11
1035.765374152
 21
748.865721617
 31
0.0
  0
ARC
  8
0
 62
0
 10
1036.765374152
 20
748.865721617
 30
0.0
 40
1.0
 50
-180.0
 51
-90.0
  0
LINE
  8
0
 62
0
 10
1029.765374152
 20
748.865721617
 30
0.0
 11
1029.765374152
 21
753.515721617
 31
0.0
  0
ARC
  8
0
 62
0
 10
1030.765374152
 20
753.515721617
 30
0.0
 40
1.0
 50
90.0
 51
-180.0
  0
LINE
  8
0
 62
0
 10
1034.765374152
 20
754.515721617
 30
0.0
 11
1030.765374152
 21
754.515721617
 31
0.0
  0
ARC
  8
0
 62
0
 10
1034.765374152
 20
753.515721617
 30
0.0
 40
1.0
 50
-0.0
 51
90.0
  0
ARC
  8
0
 62
0
 10
1032.765374152
 20
751.815721617
 30
0.0
 40
1.5
 50
-0.0
 51
-180.0
  0
ARC
  8
0
 62
0
 10
1032.765374152
 20
751.815721617
 30
0.0
 40
1.5
 50
-180.0
 51
-0.0
  0
ARC
  8
0
 62
0
 10
1109.602434017
 20
748.865721617
 30
0.0
 40
1.0
 50
-90.0
 51
-0.0
  0
LINE
  8
0
 62
0
 10
1110.602434017
 20
753.515721617
 30
0.0
 11
1110.602434017
 21
748.865721617
 31
0.0
  0
ARC
  8
0
 62
0
 10
1111.602434017
 20
753.515721617
 30
0.0
 40
1.0
 50
90.0
 51
-180.0
  0
ARC
  8
0
 62
0
 10
1115.602434017
 20
753.515721617
 30
0.0
 40
1.0
 50
-0.0
 51
90.0
  0
LINE
  8
0
 62
0
 10
1116.602434017
 20
748.865721617
 30
0.0
 11
1116.602434017
 21
753.515721617
 31
0.0
  0
ARC
  8
0
 62
0
 10
1117.602434017
 20
748.865721617
 30
0.0
 40
1.0
 50
-180.0
 51
-90.0
  0
LINE
  8
0
 62
0
 10
1115.602434017
 20
754.515721617
 30
0.0
 11
1111.602434017
 21
754.515721617
 31
0.0
  0
ARC
  8
0
 62
0
 10
1113.602434017
 20
751.815721617
 30
0.0
 40
1.5
 50
-180.0
 51
-0.0
  0
ARC
  8
0
 62
0
 10
1113.602434017
 20
751.815721617
 30
0.0
 40
1.5
 50
-0.0
 51
-180.0
  0
ARC
  8
0
 62
0
 10
1098.324870347
 20
629.465721617
 30
0.0
 40
1.0
 50
90.0
 51
-180.0
  0
LINE
  8
0
 62
0
 10
1097.324870347
 20
629.465721617
 30
0.0
 11
1097.324870347
 21
624.815721617
 31
0.0
  0
ARC
  8
0
 62
0
 10
1096.324870347
 20
624.815721617
 30
0.0
 40
1.0
 50
-90.0
 51
-0.0
  0
LINE
  8
0
 62
0
 10
1096.324870347
 20
623.815721617
 30
0.0
 11
1092.324870347
 21
623.815721617
 31
0.0
  0
ARC
  8
0
 62
0
 10
1092.324870347
 20
624.815721617
 30
0.0
 40
1.0
 50
-180.0
 51
-90.0
  0
LINE
  8
0
 62
0
 10
1091.324870347
 20
624.815721617
 30
0.0
 11
1091.324870347
 21
629.465721617
 31
0.0
  0
ARC
  8
0
 62
0
 10
1090.324870347
 20
629.465721617
 30
0.0
 40
1.0
 50
-0.0
 51
90.0
  0
ARC
  8
0
 62
0
 10
1094.324870347
 20
626.515721617
 30
0.0
 40
1.5
 50
-180.0
 51
-0.0
  0
ARC
  8
0
 62
0
 10
1094.324870347
 20
626.515721617
 30
0.0
 40
1.5
 50
-0.0
 51
-180.0
  0
ARC
  8
0
 62
0
 10
1341.565374152
 20
629.465721617
 30
0.0
 40
1.0
 50
90.0
 51
-180.0
  0
LINE
  8
0
 62
0
 10
1340.565374152
 20
629.465721617
 30
0.0
 11
1340.565374152
 21
624.815721617
 31
0.0
  0
ARC
  8
0
 62
0
 10
1339.565374152
 20
624.815721617
 30
0.0
 40
1.0
 50
-90.0
 51
-0.0
  0
LINE
  8
0
 62
0
 10
1339.565374152
 20
623.815721617
 30
0.0
 11
1335.565374152
 21
623.815721617
 31
0.0
  0
ARC
  8
0
 62
0
 10
1335.565374152
 20
624.815721617
 30
0.0
 40
1.0
 50
-180.0
 51
-90.0
  0
LINE
  8
0
 62
0
 10
1334.565374152
 20
624.815721617
 30
0.0
 11
1334.565374152
 21
629.465721617
 31
0.0
  0
ARC
  8
0
 62
0
 10
1333.565374152
 20
629.465721617
 30
0.0
 40
1.0
 50
-0.0
 51
90.0
  0
ARC
  8
0
 62
0
 10
1337.565374152
 20
626.515721617
 30
0.0
 40
1.5
 50
-180.0
 51
-0.0
  0
ARC
  8
0
 62
0
 10
1337.565374152
 20
626.515721617
 30
0.0
 40
1.5
 50
-0.0
 51
-180.0
  0
ARC
  8
0
 62
0
 10
1328.040374152
 20
649.040721617
 30
0.0
 40
1.1
 50
-180.0
 51
-90.0
  0
ARC
  8
0
 62
0
 10
1328.040374152
 20
649.040721617
 30
0.0
 40
1.1
 50
-90.0
 51
0.0
  0
ARC
  8
0
 62
0
 10
1328.040374152
 20
649.040721617
 30
0.0
 40
1.1
 50
0.0
 51
90.0
  0
ARC
  8
0
 62
0
 10
1328.040374152
 20
649.040721617
 30
0.0
 40
1.1
 50
90.0
 51
-180.0
  0
ARC
  8
0
 62
0
 10
1227.398473309
 20
639.515721617
 30
0.0
 40
1.1
 50
-180.0
 51
-90.0
  0
ARC
  8
0
 62
0
 10
1227.398473309
 20
639.515721617
 30
0.0
 40
1.1
 50
-90.0
 51
0.0
  0
ARC
  8
0
 62
0
 10
1227.398473309
 20
639.515721617
 30
0.0
 40
1.1
 50
0.0
 51
90.0
  0
ARC
  8
0
 62
0
 10
1227.398473309
 20
639.515721617
 30
0.0
 40
1.1
 50
90.0
 51
-180.0
  0
ARC
  8
0
 62
0
 10
1095.167223309
 20
639.515721617
 30
0.0
 40
1.1
 50
-180.0
 51
-90.0
  0
ARC
  8
0
 62
0
 10
1095.167223309
 20
639.515721617
 30
0.0
 40
1.1
 50
-90.0
 51
0.0
  0
ARC
  8
0
 62
0
 10
1095.167223309
 20
639.515721617
 30
0.0
 40
1.1
 50
0.0
 51
90.0
  0
ARC
  8
0
 62
0
 10
1095.167223309
 20
639.515721617
 30
0.0
 40
1.1
 50
90.0
 51
-180.0
  0
ARC
  8
0
 62
0
 10
1047.052874152
 20
639.515721617
 30
0.0
 40
1.1
 50
-180.0
 51
-90.0
  0
ARC
  8
0
 62
0
 10
1047.052874152
 20
639.515721617
 30
0.0
 40
1.1
 50
-90.0
 51
0.0
  0
ARC
  8
0
 62
0
 10
1047.052874152
 20
639.515721617
 30
0.0
 40
1.1
 50
0.0
 51
90.0
  0
ARC
  8
0
 62
0
 10
1047.052874152
 20
639.515721617
 30
0.0
 40
1.1
 50
90.0
 51
-180.0
  0
ARC
  8
0
 62
0
 10
1337.565374152
 20
727.265721617
 30
0.0
 40
1.1
 50
180.0
 51
-90.0
  0
ARC
  8
0
 62
0
 10
1337.565374152
 20
727.265721617
 30
0.0
 40
1.1
 50
-90.0
 51
-0.0
  0
ARC
  8
0
 62
0
 10
1337.565374152
 20
727.265721617
 30
0.0
 40
1.1
 50
-0.0
 51
90.0
  0
ARC
  8
0
 62
0
 10
1337.565374152
 20
727.265721617
 30
0.0
 40
1.1
 50
90.0
 51
180.0
  0
ARC
  8
0
 62
0
 10
1185.165374152
 20
727.265721617
 30
0.0
 40
1.1
 50
180.0
 51
-90.0
  0
ARC
  8
0
 62
0
 10
1185.165374152
 20
727.265721617
 30
0.0
 40
1.1
 50
-90.0
 51
-0.0
  0
ARC
  8
0
 62
0
 10
1185.165374152
 20
727.265721617
 30
0.0
 40
1.1
 50
-0.0
 51
90.0
  0
ARC
  8
0
 62
0
 10
1185.165374152
 20
727.265721617
 30
0.0
 40
1.1
 50
90.0
 51
180.0
  0
ARC
  8
0
 62
0
 10
1032.765374152
 20
727.265721617
 30
0.0
 40
1.1
 50
180.0
 51
-90.0
  0
ARC
  8
0
 62
0
 10
1032.765374152
 20
727.265721617
 30
0.0
 40
1.1
 50
-90.0
 51
-0.0
  0
ARC
  8
0
 62
0
 10
1032.765374152
 20
727.265721617
 30
0.0
 40
1.1
 50
-0.0
 51
90.0
  0
ARC
  8
0
 62
0
 10
1032.765374152
 20
727.265721617
 30
0.0
 40
1.1
 50
90.0
 51
180.0
  0
LINE
  8
0
 62
0
 10
1325.940374152
 20
649.0407216161
 30
0.0
 11
1326.9403741520052
 21
649.0407216168114
 31
0.0
  0
LINE
  8
0
 62
0
 10
1330.140374152
 20
649.0407216189
 30
0.0
 11
1329.1403741519962
 21
649.0407216177831
 31
0.0
  0
LINE
  8
0
 62
0
 10
1225.298473309
 20
639.5157216162
 30
0.0
 11
1226.2984733090052
 21
639.5157216168598
 31
0.0
  0
LINE
  8
0
 62
0
 10
1229.498473309
 20
639.5157216188
 30
0.0
 11
1228.4984733089975
 21
639.5157216177074
 31
0.0
  0
LINE
  8
0
 62
0
 10
1093.067223309
 20
639.5157216162
 30
0.0
 11
1094.0672233090052
 21
639.5157216168598
 31
0.0
  0
LINE
  8
0
 62
0
 10
1097.267223309
 20
639.5157216188
 30
0.0
 11
1096.2672233089972
 21
639.5157216177074
 31
0.0
  0
LINE
  8
0
 62
0
 10
1044.952874152
 20
639.5157216162
 30
0.0
 11
1045.9528741520053
 21
639.5157216168598
 31
0.0
  0
LINE
  8
0
 62
0
 10
1049.152874152
 20
639.5157216188
 30
0.0
 11
1048.1528741519974
 21
639.5157216177074
 31
0.0
  0
LINE
  8
0
 62
0
 10
1335.465374152
 20
727.2657216188
 30
0.0
 11
1336.4653741519974
 21
727.2657216177074
 31
0.0
  0
LINE
  8
0
 62
0
 10
1339.665374152
 20
727.2657216162
 30
0.0
 11
1338.6653741520051
 21
727.2657216168598
 31
0.0
  0
LINE
  8
0
 62
0
 10
1183.065374152
 20
727.2657216188
 30
0.0
 11
1184.0653741519973
 21
727.2657216177074
 31
0.0
  0
LINE
  8
0
 62
0
 10
1187.265374152
 20
727.2657216162
 30
0.0
 11
1186.2653741520053
 21
727.2657216168598
 31
0.0
  0
LINE
  8
0
 62
0
 10
1030.665374152
 20
727.2657216188
 30
0.0
 11
1031.6653741519972
 21
727.2657216177074
 31
0.0
  0
LINE
  8
0
 62
0
 10
1034.865374152
 20
727.2657216162
 30
0.0
 11
1033.8653741520054
 21
727.2657216168598
 31
0.0
  0
ENDBLK
  0
ENDSEC
  0
SECTION
  2
ENTITIES
  0
INSERT
  2
FACEFEAT
  8
0
 62
0
 10
0.0
 20
0.0
 30
0.0
  0
ENDSEC
  0
EOF
