999
FreeCAD v0.21 33771 (Git)
  0
SECTION
  2
HEADER
  9
$ACADVER
  1
AC1014
  9
$ACADMAINTVER
 70
     9
  9
$DWGCODEPAGE
  3
ANSI_1252
  9
$TEXTSTYLE
  7
STANDARD
  9
$DIMSTYLE
  2
STANDARD
  9
$DIMTXSTY
  7
STANDARD
  9
$CMLSTYLE
  2
STANDARD
  9
$LUNITS
 70
2
  9
$INSUNITS
 70
4
  9
$PEXTMAX
 10
50
 20
50
 30
50
  9
$PEXTMIN
 10
0
 20
0
 30
0
  9
$HANDSEED
  5
FFFF
  0
ENDSEC
  0
SECTION
  2
CLASSES
  0
CLASS
  1
ACDBDICTIONARYWDFLT
  2
AcDbDictionaryWithDefault
  3
ObjectDBX Classes
 90
        0
280
     0
281
     0
  0
CLASS
  1
XRECORD
  2
AcDbXrecord
  3
ObjectDBX Classes
 90
        0
280
     0
281
     0
  0
CLASS
  1
LWPOLYLINE
  2
AcDbPolyline
  3
ObjectDBX Classes
 90
        0
280
     0
281
     1
  0
ENDSEC
  0
SECTION
  2
TABLES
  0
TABLE
  2
VPORT
  5
20
330
0
100
AcDbSymbolTable
 70
     1
  0
VPORT
  5
21
330
20
100
AcDbSymbolTableRecord
100
AcDbViewportTableRecord
  2
*ACTIVE
 70
     0
  0
ENDTAB
  0
TABLE
  2
LTYPE
  5
22
330
0
100
AcDbSymbolTable
 70
     1
  0
LTYPE
  5
23
330
21
100
AcDbSymbolTableRecord
100
AcDbLinetypeTableRecord
  2
BYBLOCK
 70
     0
  3

 72
    65
 73
     0
 40
0.0
  0
LTYPE
  5
24
330
21
100
AcDbSymbolTableRecord
100
AcDbLinetypeTableRecord
  2
BYLAYER
 70
     0
  3

 72
    65
 73
     0
 40
0.0
  0
LTYPE
  5
25
330
21
100
AcDbSymbolTableRecord
100
AcDbLinetypeTableRecord
  2
CONTINUOUS
 70
     0
  3
Solid line
 72
    65
 73
     0
 40
0.0
  0
ENDTAB
  0
TABLE
  2
LAYER
  5
B59
330
0
100
AcDbSymbolTable
 70
339
  0
LAYER
  5
B5A
330
B59
100
AcDbSymbolTableRecord
100
AcDbLayerTableRecord
  2
0
 70
   0
 62
   7
  6
CONTINUOUS
  0
LAYER
  5
B5B
330
B59
100
AcDbSymbolTableRecord
100
AcDbLayerTableRecord
  2
none
 70
    0
 62
    7
  6
CONTINUOUS
  0
LAYER
  5
B5C
330
B59
100
AcDbSymbolTableRecord
100
AcDbLayerTableRecord
  2
Shape2523
 70
    0
 62
    7
  6
CONTINUOUS
  0
LAYER
  5
B5D
330
B59
100
AcDbSymbolTableRecord
100
AcDbLayerTableRecord
  2
Shape2524
 70
    0
 62
    7
  6
CONTINUOUS
  0
LAYER
  5
B5E
330
B59
100
AcDbSymbolTableRecord
100
AcDbLayerTableRecord
  2
Shape2525
 70
    0
 62
    7
  6
CONTINUOUS
  0
LAYER
  5
B5F
330
B59
100
AcDbSymbolTableRecord
100
AcDbLayerTableRecord
  2
Shape2526
 70
    0
 62
    7
  6
CONTINUOUS
  0
LAYER
  5
B60
330
B59
100
AcDbSymbolTableRecord
100
AcDbLayerTableRecord
  2
Shape2527
 70
    0
 62
    7
  6
CONTINUOUS
  0
LAYER
  5
B61
330
B59
100
AcDbSymbolTableRecord
100
AcDbLayerTableRecord
  2
Shape2528
 70
    0
 62
    7
  6
CONTINUOUS
  0
LAYER
  5
B62
330
B59
100
AcDbSymbolTableRecord
100
AcDbLayerTableRecord
  2
Shape2529
 70
    0
 62
    7
  6
CONTINUOUS
  0
LAYER
  5
B63
330
B59
100
AcDbSymbolTableRecord
100
AcDbLayerTableRecord
  2
Shape2530
 70
    0
 62
    7
  6
CONTINUOUS
  0
LAYER
  5
B64
330
B59
100
AcDbSymbolTableRecord
100
AcDbLayerTableRecord
  2
Shape2531
 70
    0
 62
    7
  6
CONTINUOUS
  0
LAYER
  5
B65
330
B59
100
AcDbSymbolTableRecord
100
AcDbLayerTableRecord
  2
Shape2532
 70
    0
 62
    7
  6
CONTINUOUS
  0
LAYER
  5
B66
330
B59
100
AcDbSymbolTableRecord
100
AcDbLayerTableRecord
  2
Shape2533
 70
    0
 62
    7
  6
CONTINUOUS
  0
LAYER
  5
B67
330
B59
100
AcDbSymbolTableRecord
100
AcDbLayerTableRecord
  2
Shape2534
 70
    0
 62
    7
  6
CONTINUOUS
  0
LAYER
  5
B68
330
B59
100
AcDbSymbolTableRecord
100
AcDbLayerTableRecord
  2
Shape2535
 70
    0
 62
    7
  6
CONTINUOUS
  0
LAYER
  5
B69
330
B59
100
AcDbSymbolTableRecord
100
AcDbLayerTableRecord
  2
Shape2536
 70
    0
 62
    7
  6
CONTINUOUS
  0
LAYER
  5
B6A
330
B59
100
AcDbSymbolTableRecord
100
AcDbLayerTableRecord
  2
Shape2537
 70
    0
 62
    7
  6
CONTINUOUS
  0
LAYER
  5
B6B
330
B59
100
AcDbSymbolTableRecord
100
AcDbLayerTableRecord
  2
Shape2538
 70
    0
 62
    7
  6
CONTINUOUS
  0
LAYER
  5
B6C
330
B59
100
AcDbSymbolTableRecord
100
AcDbLayerTableRecord
  2
Shape2539
 70
    0
 62
    7
  6
CONTINUOUS
  0
LAYER
  5
B6D
330
B59
100
AcDbSymbolTableRecord
100
AcDbLayerTableRecord
  2
Shape2540
 70
    0
 62
    7
  6
CONTINUOUS
  0
LAYER
  5
B6E
330
B59
100
AcDbSymbolTableRecord
100
AcDbLayerTableRecord
  2
Shape2541
 70
    0
 62
    7
  6
CONTINUOUS
  0
LAYER
  5
B6F
330
B59
100
AcDbSymbolTableRecord
100
AcDbLayerTableRecord
  2
Shape2542
 70
    0
 62
    7
  6
CONTINUOUS
  0
LAYER
  5
B70
330
B59
100
AcDbSymbolTableRecord
100
AcDbLayerTableRecord
  2
Shape2543
 70
    0
 62
    7
  6
CONTINUOUS
  0
LAYER
  5
B71
330
B59
100
AcDbSymbolTableRecord
100
AcDbLayerTableRecord
  2
Shape2544
 70
    0
 62
    7
  6
CONTINUOUS
  0
LAYER
  5
B72
330
B59
100
AcDbSymbolTableRecord
100
AcDbLayerTableRecord
  2
Shape2545
 70
    0
 62
    7
  6
CONTINUOUS
  0
LAYER
  5
B73
330
B59
100
AcDbSymbolTableRecord
100
AcDbLayerTableRecord
  2
Shape2546
 70
    0
 62
    7
  6
CONTINUOUS
  0
LAYER
  5
B74
330
B59
100
AcDbSymbolTableRecord
100
AcDbLayerTableRecord
  2
Shape2547
 70
    0
 62
    7
  6
CONTINUOUS
  0
LAYER
  5
B75
330
B59
100
AcDbSymbolTableRecord
100
AcDbLayerTableRecord
  2
Shape2548
 70
    0
 62
    7
  6
CONTINUOUS
  0
LAYER
  5
B76
330
B59
100
AcDbSymbolTableRecord
100
AcDbLayerTableRecord
  2
Shape2549
 70
    0
 62
    7
  6
CONTINUOUS
  0
LAYER
  5
B77
330
B59
100
AcDbSymbolTableRecord
100
AcDbLayerTableRecord
  2
Shape2550
 70
    0
 62
    7
  6
CONTINUOUS
  0
LAYER
  5
B78
330
B59
100
AcDbSymbolTableRecord
100
AcDbLayerTableRecord
  2
Shape2551
 70
    0
 62
    7
  6
CONTINUOUS
  0
LAYER
  5
B79
330
B59
100
AcDbSymbolTableRecord
100
AcDbLayerTableRecord
  2
Shape2552
 70
    0
 62
    7
  6
CONTINUOUS
  0
LAYER
  5
B7A
330
B59
100
AcDbSymbolTableRecord
100
AcDbLayerTableRecord
  2
Shape2553
 70
    0
 62
    7
  6
CONTINUOUS
  0
LAYER
  5
B7B
330
B59
100
AcDbSymbolTableRecord
100
AcDbLayerTableRecord
  2
Shape2554
 70
    0
 62
    7
  6
CONTINUOUS
  0
LAYER
  5
B7C
330
B59
100
AcDbSymbolTableRecord
100
AcDbLayerTableRecord
  2
Shape2555
 70
    0
 62
    7
  6
CONTINUOUS
  0
LAYER
  5
B7D
330
B59
100
AcDbSymbolTableRecord
100
AcDbLayerTableRecord
  2
Shape2556
 70
    0
 62
    7
  6
CONTINUOUS
  0
LAYER
  5
B7E
330
B59
100
AcDbSymbolTableRecord
100
AcDbLayerTableRecord
  2
Shape2557
 70
    0
 62
    7
  6
CONTINUOUS
  0
LAYER
  5
B7F
330
B59
100
AcDbSymbolTableRecord
100
AcDbLayerTableRecord
  2
Shape2558
 70
    0
 62
    7
  6
CONTINUOUS
  0
LAYER
  5
B80
330
B59
100
AcDbSymbolTableRecord
100
AcDbLayerTableRecord
  2
Shape2559
 70
    0
 62
    7
  6
CONTINUOUS
  0
LAYER
  5
B81
330
B59
100
AcDbSymbolTableRecord
100
AcDbLayerTableRecord
  2
Shape2560
 70
    0
 62
    7
  6
CONTINUOUS
  0
LAYER
  5
B82
330
B59
100
AcDbSymbolTableRecord
100
AcDbLayerTableRecord
  2
Shape2561
 70
    0
 62
    7
  6
CONTINUOUS
  0
LAYER
  5
B83
330
B59
100
AcDbSymbolTableRecord
100
AcDbLayerTableRecord
  2
Shape2562
 70
    0
 62
    7
  6
CONTINUOUS
  0
LAYER
  5
B84
330
B59
100
AcDbSymbolTableRecord
100
AcDbLayerTableRecord
  2
Shape2563
 70
    0
 62
    7
  6
CONTINUOUS
  0
LAYER
  5
B85
330
B59
100
AcDbSymbolTableRecord
100
AcDbLayerTableRecord
  2
Shape2564
 70
    0
 62
    7
  6
CONTINUOUS
  0
LAYER
  5
B86
330
B59
100
AcDbSymbolTableRecord
100
AcDbLayerTableRecord
  2
Shape2565
 70
    0
 62
    7
  6
CONTINUOUS
  0
LAYER
  5
B87
330
B59
100
AcDbSymbolTableRecord
100
AcDbLayerTableRecord
  2
Shape2566
 70
    0
 62
    7
  6
CONTINUOUS
  0
LAYER
  5
B88
330
B59
100
AcDbSymbolTableRecord
100
AcDbLayerTableRecord
  2
Shape2567
 70
    0
 62
    7
  6
CONTINUOUS
  0
LAYER
  5
B89
330
B59
100
AcDbSymbolTableRecord
100
AcDbLayerTableRecord
  2
Shape2568
 70
    0
 62
    7
  6
CONTINUOUS
  0
LAYER
  5
B8A
330
B59
100
AcDbSymbolTableRecord
100
AcDbLayerTableRecord
  2
Shape2569
 70
    0
 62
    7
  6
CONTINUOUS
  0
LAYER
  5
B8B
330
B59
100
AcDbSymbolTableRecord
100
AcDbLayerTableRecord
  2
Shape2570
 70
    0
 62
    7
  6
CONTINUOUS
  0
LAYER
  5
B8C
330
B59
100
AcDbSymbolTableRecord
100
AcDbLayerTableRecord
  2
Shape2571
 70
    0
 62
    7
  6
CONTINUOUS
  0
LAYER
  5
B8D
330
B59
100
AcDbSymbolTableRecord
100
AcDbLayerTableRecord
  2
Shape2572
 70
    0
 62
    7
  6
CONTINUOUS
  0
LAYER
  5
B8E
330
B59
100
AcDbSymbolTableRecord
100
AcDbLayerTableRecord
  2
Shape2573
 70
    0
 62
    7
  6
CONTINUOUS
  0
LAYER
  5
B8F
330
B59
100
AcDbSymbolTableRecord
100
AcDbLayerTableRecord
  2
Shape2574
 70
    0
 62
    7
  6
CONTINUOUS
  0
LAYER
  5
B90
330
B59
100
AcDbSymbolTableRecord
100
AcDbLayerTableRecord
  2
Shape2575
 70
    0
 62
    7
  6
CONTINUOUS
  0
LAYER
  5
B91
330
B59
100
AcDbSymbolTableRecord
100
AcDbLayerTableRecord
  2
Shape2576
 70
    0
 62
    7
  6
CONTINUOUS
  0
LAYER
  5
B92
330
B59
100
AcDbSymbolTableRecord
100
AcDbLayerTableRecord
  2
Shape2577
 70
    0
 62
    7
  6
CONTINUOUS
  0
LAYER
  5
B93
330
B59
100
AcDbSymbolTableRecord
100
AcDbLayerTableRecord
  2
Shape2578
 70
    0
 62
    7
  6
CONTINUOUS
  0
LAYER
  5
B94
330
B59
100
AcDbSymbolTableRecord
100
AcDbLayerTableRecord
  2
Shape2579
 70
    0
 62
    7
  6
CONTINUOUS
  0
LAYER
  5
B95
330
B59
100
AcDbSymbolTableRecord
100
AcDbLayerTableRecord
  2
Shape2580
 70
    0
 62
    7
  6
CONTINUOUS
  0
LAYER
  5
B96
330
B59
100
AcDbSymbolTableRecord
100
AcDbLayerTableRecord
  2
Shape2581
 70
    0
 62
    7
  6
CONTINUOUS
  0
LAYER
  5
B97
330
B59
100
AcDbSymbolTableRecord
100
AcDbLayerTableRecord
  2
Shape2582
 70
    0
 62
    7
  6
CONTINUOUS
  0
LAYER
  5
B98
330
B59
100
AcDbSymbolTableRecord
100
AcDbLayerTableRecord
  2
Shape2583
 70
    0
 62
    7
  6
CONTINUOUS
  0
LAYER
  5
B99
330
B59
100
AcDbSymbolTableRecord
100
AcDbLayerTableRecord
  2
Shape2584
 70
    0
 62
    7
  6
CONTINUOUS
  0
LAYER
  5
B9A
330
B59
100
AcDbSymbolTableRecord
100
AcDbLayerTableRecord
  2
Shape2585
 70
    0
 62
    7
  6
CONTINUOUS
  0
LAYER
  5
B9B
330
B59
100
AcDbSymbolTableRecord
100
AcDbLayerTableRecord
  2
Shape2586
 70
    0
 62
    7
  6
CONTINUOUS
  0
LAYER
  5
B9C
330
B59
100
AcDbSymbolTableRecord
100
AcDbLayerTableRecord
  2
Shape2587
 70
    0
 62
    7
  6
CONTINUOUS
  0
LAYER
  5
B9D
330
B59
100
AcDbSymbolTableRecord
100
AcDbLayerTableRecord
  2
Shape2588
 70
    0
 62
    7
  6
CONTINUOUS
  0
LAYER
  5
B9E
330
B59
100
AcDbSymbolTableRecord
100
AcDbLayerTableRecord
  2
Shape2589
 70
    0
 62
    7
  6
CONTINUOUS
  0
LAYER
  5
B9F
330
B59
100
AcDbSymbolTableRecord
100
AcDbLayerTableRecord
  2
Shape2590
 70
    0
 62
    7
  6
CONTINUOUS
  0
LAYER
  5
BA0
330
B59
100
AcDbSymbolTableRecord
100
AcDbLayerTableRecord
  2
Shape2591
 70
    0
 62
    7
  6
CONTINUOUS
  0
LAYER
  5
BA1
330
B59
100
AcDbSymbolTableRecord
100
AcDbLayerTableRecord
  2
Shape2592
 70
    0
 62
    7
  6
CONTINUOUS
  0
LAYER
  5
BA2
330
B59
100
AcDbSymbolTableRecord
100
AcDbLayerTableRecord
  2
Shape2593
 70
    0
 62
    7
  6
CONTINUOUS
  0
LAYER
  5
BA3
330
B59
100
AcDbSymbolTableRecord
100
AcDbLayerTableRecord
  2
Shape2594
 70
    0
 62
    7
  6
CONTINUOUS
  0
LAYER
  5
BA4
330
B59
100
AcDbSymbolTableRecord
100
AcDbLayerTableRecord
  2
Shape2595
 70
    0
 62
    7
  6
CONTINUOUS
  0
LAYER
  5
BA5
330
B59
100
AcDbSymbolTableRecord
100
AcDbLayerTableRecord
  2
Shape2596
 70
    0
 62
    7
  6
CONTINUOUS
  0
LAYER
  5
BA6
330
B59
100
AcDbSymbolTableRecord
100
AcDbLayerTableRecord
  2
Shape2597
 70
    0
 62
    7
  6
CONTINUOUS
  0
LAYER
  5
BA7
330
B59
100
AcDbSymbolTableRecord
100
AcDbLayerTableRecord
  2
Shape2598
 70
    0
 62
    7
  6
CONTINUOUS
  0
LAYER
  5
BA8
330
B59
100
AcDbSymbolTableRecord
100
AcDbLayerTableRecord
  2
Shape2599
 70
    0
 62
    7
  6
CONTINUOUS
  0
LAYER
  5
BA9
330
B59
100
AcDbSymbolTableRecord
100
AcDbLayerTableRecord
  2
Shape2600
 70
    0
 62
    7
  6
CONTINUOUS
  0
LAYER
  5
BAA
330
B59
100
AcDbSymbolTableRecord
100
AcDbLayerTableRecord
  2
Shape2601
 70
    0
 62
    7
  6
CONTINUOUS
  0
LAYER
  5
BAB
330
B59
100
AcDbSymbolTableRecord
100
AcDbLayerTableRecord
  2
Shape2602
 70
    0
 62
    7
  6
CONTINUOUS
  0
LAYER
  5
BAC
330
B59
100
AcDbSymbolTableRecord
100
AcDbLayerTableRecord
  2
Shape2603
 70
    0
 62
    7
  6
CONTINUOUS
  0
LAYER
  5
BAD
330
B59
100
AcDbSymbolTableRecord
100
AcDbLayerTableRecord
  2
Shape2604
 70
    0
 62
    7
  6
CONTINUOUS
  0
LAYER
  5
BAE
330
B59
100
AcDbSymbolTableRecord
100
AcDbLayerTableRecord
  2
Shape2605
 70
    0
 62
    7
  6
CONTINUOUS
  0
LAYER
  5
BAF
330
B59
100
AcDbSymbolTableRecord
100
AcDbLayerTableRecord
  2
Shape2606
 70
    0
 62
    7
  6
CONTINUOUS
  0
LAYER
  5
BB0
330
B59
100
AcDbSymbolTableRecord
100
AcDbLayerTableRecord
  2
Shape2607
 70
    0
 62
    7
  6
CONTINUOUS
  0
LAYER
  5
BB1
330
B59
100
AcDbSymbolTableRecord
100
AcDbLayerTableRecord
  2
Shape2608
 70
    0
 62
    7
  6
CONTINUOUS
  0
LAYER
  5
BB2
330
B59
100
AcDbSymbolTableRecord
100
AcDbLayerTableRecord
  2
Shape2609
 70
    0
 62
    7
  6
CONTINUOUS
  0
LAYER
  5
BB3
330
B59
100
AcDbSymbolTableRecord
100
AcDbLayerTableRecord
  2
Shape2610
 70
    0
 62
    7
  6
CONTINUOUS
  0
LAYER
  5
BB4
330
B59
100
AcDbSymbolTableRecord
100
AcDbLayerTableRecord
  2
Shape2611
 70
    0
 62
    7
  6
CONTINUOUS
  0
LAYER
  5
BB5
330
B59
100
AcDbSymbolTableRecord
100
AcDbLayerTableRecord
  2
Shape2612
 70
    0
 62
    7
  6
CONTINUOUS
  0
LAYER
  5
BB6
330
B59
100
AcDbSymbolTableRecord
100
AcDbLayerTableRecord
  2
Shape2613
 70
    0
 62
    7
  6
CONTINUOUS
  0
LAYER
  5
BB7
330
B59
100
AcDbSymbolTableRecord
100
AcDbLayerTableRecord
  2
Shape2614
 70
    0
 62
    7
  6
CONTINUOUS
  0
LAYER
  5
BB8
330
B59
100
AcDbSymbolTableRecord
100
AcDbLayerTableRecord
  2
Shape2615
 70
    0
 62
    7
  6
CONTINUOUS
  0
LAYER
  5
BB9
330
B59
100
AcDbSymbolTableRecord
100
AcDbLayerTableRecord
  2
Shape2616
 70
    0
 62
    7
  6
CONTINUOUS
  0
LAYER
  5
BBA
330
B59
100
AcDbSymbolTableRecord
100
AcDbLayerTableRecord
  2
Shape2617
 70
    0
 62
    7
  6
CONTINUOUS
  0
LAYER
  5
BBB
330
B59
100
AcDbSymbolTableRecord
100
AcDbLayerTableRecord
  2
Shape2618
 70
    0
 62
    7
  6
CONTINUOUS
  0
LAYER
  5
BBC
330
B59
100
AcDbSymbolTableRecord
100
AcDbLayerTableRecord
  2
Shape2619
 70
    0
 62
    7
  6
CONTINUOUS
  0
LAYER
  5
BBD
330
B59
100
AcDbSymbolTableRecord
100
AcDbLayerTableRecord
  2
Shape2620
 70
    0
 62
    7
  6
CONTINUOUS
  0
LAYER
  5
BBE
330
B59
100
AcDbSymbolTableRecord
100
AcDbLayerTableRecord
  2
Shape2621
 70
    0
 62
    7
  6
CONTINUOUS
  0
LAYER
  5
BBF
330
B59
100
AcDbSymbolTableRecord
100
AcDbLayerTableRecord
  2
Shape2622
 70
    0
 62
    7
  6
CONTINUOUS
  0
LAYER
  5
BC0
330
B59
100
AcDbSymbolTableRecord
100
AcDbLayerTableRecord
  2
Shape2623
 70
    0
 62
    7
  6
CONTINUOUS
  0
LAYER
  5
BC1
330
B59
100
AcDbSymbolTableRecord
100
AcDbLayerTableRecord
  2
Shape2624
 70
    0
 62
    7
  6
CONTINUOUS
  0
LAYER
  5
BC2
330
B59
100
AcDbSymbolTableRecord
100
AcDbLayerTableRecord
  2
Shape2625
 70
    0
 62
    7
  6
CONTINUOUS
  0
LAYER
  5
BC3
330
B59
100
AcDbSymbolTableRecord
100
AcDbLayerTableRecord
  2
Shape2626
 70
    0
 62
    7
  6
CONTINUOUS
  0
LAYER
  5
BC4
330
B59
100
AcDbSymbolTableRecord
100
AcDbLayerTableRecord
  2
Shape2627
 70
    0
 62
    7
  6
CONTINUOUS
  0
LAYER
  5
BC5
330
B59
100
AcDbSymbolTableRecord
100
AcDbLayerTableRecord
  2
Shape2628
 70
    0
 62
    7
  6
CONTINUOUS
  0
LAYER
  5
BC6
330
B59
100
AcDbSymbolTableRecord
100
AcDbLayerTableRecord
  2
Shape2629
 70
    0
 62
    7
  6
CONTINUOUS
  0
LAYER
  5
BC7
330
B59
100
AcDbSymbolTableRecord
100
AcDbLayerTableRecord
  2
Shape2630
 70
    0
 62
    7
  6
CONTINUOUS
  0
LAYER
  5
BC8
330
B59
100
AcDbSymbolTableRecord
100
AcDbLayerTableRecord
  2
Shape2631
 70
    0
 62
    7
  6
CONTINUOUS
  0
LAYER
  5
BC9
330
B59
100
AcDbSymbolTableRecord
100
AcDbLayerTableRecord
  2
Shape2632
 70
    0
 62
    7
  6
CONTINUOUS
  0
LAYER
  5
BCA
330
B59
100
AcDbSymbolTableRecord
100
AcDbLayerTableRecord
  2
Shape2633
 70
    0
 62
    7
  6
CONTINUOUS
  0
LAYER
  5
BCB
330
B59
100
AcDbSymbolTableRecord
100
AcDbLayerTableRecord
  2
Shape2634
 70
    0
 62
    7
  6
CONTINUOUS
  0
LAYER
  5
BCC
330
B59
100
AcDbSymbolTableRecord
100
AcDbLayerTableRecord
  2
Shape2635
 70
    0
 62
    7
  6
CONTINUOUS
  0
LAYER
  5
BCD
330
B59
100
AcDbSymbolTableRecord
100
AcDbLayerTableRecord
  2
Shape2636
 70
    0
 62
    7
  6
CONTINUOUS
  0
LAYER
  5
BCE
330
B59
100
AcDbSymbolTableRecord
100
AcDbLayerTableRecord
  2
Shape2637
 70
    0
 62
    7
  6
CONTINUOUS
  0
LAYER
  5
BCF
330
B59
100
AcDbSymbolTableRecord
100
AcDbLayerTableRecord
  2
Shape2638
 70
    0
 62
    7
  6
CONTINUOUS
  0
LAYER
  5
BD0
330
B59
100
AcDbSymbolTableRecord
100
AcDbLayerTableRecord
  2
Shape2639
 70
    0
 62
    7
  6
CONTINUOUS
  0
LAYER
  5
BD1
330
B59
100
AcDbSymbolTableRecord
100
AcDbLayerTableRecord
  2
Shape2640
 70
    0
 62
    7
  6
CONTINUOUS
  0
LAYER
  5
BD2
330
B59
100
AcDbSymbolTableRecord
100
AcDbLayerTableRecord
  2
Shape2641
 70
    0
 62
    7
  6
CONTINUOUS
  0
LAYER
  5
BD3
330
B59
100
AcDbSymbolTableRecord
100
AcDbLayerTableRecord
  2
Shape2642
 70
    0
 62
    7
  6
CONTINUOUS
  0
LAYER
  5
BD4
330
B59
100
AcDbSymbolTableRecord
100
AcDbLayerTableRecord
  2
Shape2643
 70
    0
 62
    7
  6
CONTINUOUS
  0
LAYER
  5
BD5
330
B59
100
AcDbSymbolTableRecord
100
AcDbLayerTableRecord
  2
Shape2644
 70
    0
 62
    7
  6
CONTINUOUS
  0
LAYER
  5
BD6
330
B59
100
AcDbSymbolTableRecord
100
AcDbLayerTableRecord
  2
Shape2645
 70
    0
 62
    7
  6
CONTINUOUS
  0
LAYER
  5
BD7
330
B59
100
AcDbSymbolTableRecord
100
AcDbLayerTableRecord
  2
Shape2646
 70
    0
 62
    7
  6
CONTINUOUS
  0
LAYER
  5
BD8
330
B59
100
AcDbSymbolTableRecord
100
AcDbLayerTableRecord
  2
Shape2647
 70
    0
 62
    7
  6
CONTINUOUS
  0
LAYER
  5
BD9
330
B59
100
AcDbSymbolTableRecord
100
AcDbLayerTableRecord
  2
Shape2648
 70
    0
 62
    7
  6
CONTINUOUS
  0
LAYER
  5
BDA
330
B59
100
AcDbSymbolTableRecord
100
AcDbLayerTableRecord
  2
Shape2649
 70
    0
 62
    7
  6
CONTINUOUS
  0
LAYER
  5
BDB
330
B59
100
AcDbSymbolTableRecord
100
AcDbLayerTableRecord
  2
Shape2650
 70
    0
 62
    7
  6
CONTINUOUS
  0
LAYER
  5
BDC
330
B59
100
AcDbSymbolTableRecord
100
AcDbLayerTableRecord
  2
Shape2651
 70
    0
 62
    7
  6
CONTINUOUS
  0
LAYER
  5
BDD
330
B59
100
AcDbSymbolTableRecord
100
AcDbLayerTableRecord
  2
Shape2652
 70
    0
 62
    7
  6
CONTINUOUS
  0
LAYER
  5
BDE
330
B59
100
AcDbSymbolTableRecord
100
AcDbLayerTableRecord
  2
Shape2653
 70
    0
 62
    7
  6
CONTINUOUS
  0
LAYER
  5
BDF
330
B59
100
AcDbSymbolTableRecord
100
AcDbLayerTableRecord
  2
Shape2654
 70
    0
 62
    7
  6
CONTINUOUS
  0
LAYER
  5
BE0
330
B59
100
AcDbSymbolTableRecord
100
AcDbLayerTableRecord
  2
Shape2655
 70
    0
 62
    7
  6
CONTINUOUS
  0
LAYER
  5
BE1
330
B59
100
AcDbSymbolTableRecord
100
AcDbLayerTableRecord
  2
Shape2656
 70
    0
 62
    7
  6
CONTINUOUS
  0
LAYER
  5
BE2
330
B59
100
AcDbSymbolTableRecord
100
AcDbLayerTableRecord
  2
Shape2657
 70
    0
 62
    7
  6
CONTINUOUS
  0
LAYER
  5
BE3
330
B59
100
AcDbSymbolTableRecord
100
AcDbLayerTableRecord
  2
Shape2658
 70
    0
 62
    7
  6
CONTINUOUS
  0
LAYER
  5
BE4
330
B59
100
AcDbSymbolTableRecord
100
AcDbLayerTableRecord
  2
Shape2659
 70
    0
 62
    7
  6
CONTINUOUS
  0
LAYER
  5
BE5
330
B59
100
AcDbSymbolTableRecord
100
AcDbLayerTableRecord
  2
Shape2660
 70
    0
 62
    7
  6
CONTINUOUS
  0
LAYER
  5
BE6
330
B59
100
AcDbSymbolTableRecord
100
AcDbLayerTableRecord
  2
Shape2661
 70
    0
 62
    7
  6
CONTINUOUS
  0
LAYER
  5
BE7
330
B59
100
AcDbSymbolTableRecord
100
AcDbLayerTableRecord
  2
Shape2662
 70
    0
 62
    7
  6
CONTINUOUS
  0
LAYER
  5
BE8
330
B59
100
AcDbSymbolTableRecord
100
AcDbLayerTableRecord
  2
Shape2663
 70
    0
 62
    7
  6
CONTINUOUS
  0
LAYER
  5
BE9
330
B59
100
AcDbSymbolTableRecord
100
AcDbLayerTableRecord
  2
Shape2664
 70
    0
 62
    7
  6
CONTINUOUS
  0
LAYER
  5
BEA
330
B59
100
AcDbSymbolTableRecord
100
AcDbLayerTableRecord
  2
Shape2665
 70
    0
 62
    7
  6
CONTINUOUS
  0
LAYER
  5
BEB
330
B59
100
AcDbSymbolTableRecord
100
AcDbLayerTableRecord
  2
Shape2666
 70
    0
 62
    7
  6
CONTINUOUS
  0
LAYER
  5
BEC
330
B59
100
AcDbSymbolTableRecord
100
AcDbLayerTableRecord
  2
Shape2667
 70
    0
 62
    7
  6
CONTINUOUS
  0
LAYER
  5
BED
330
B59
100
AcDbSymbolTableRecord
100
AcDbLayerTableRecord
  2
Shape2668
 70
    0
 62
    7
  6
CONTINUOUS
  0
LAYER
  5
BEE
330
B59
100
AcDbSymbolTableRecord
100
AcDbLayerTableRecord
  2
Shape2669
 70
    0
 62
    7
  6
CONTINUOUS
  0
LAYER
  5
BEF
330
B59
100
AcDbSymbolTableRecord
100
AcDbLayerTableRecord
  2
Shape2670
 70
    0
 62
    7
  6
CONTINUOUS
  0
LAYER
  5
BF0
330
B59
100
AcDbSymbolTableRecord
100
AcDbLayerTableRecord
  2
Shape2811
 70
    0
 62
    7
  6
CONTINUOUS
  0
LAYER
  5
BF1
330
B59
100
AcDbSymbolTableRecord
100
AcDbLayerTableRecord
  2
Shape2812
 70
    0
 62
    7
  6
CONTINUOUS
  0
LAYER
  5
BF2
330
B59
100
AcDbSymbolTableRecord
100
AcDbLayerTableRecord
  2
Shape2813
 70
    0
 62
    7
  6
CONTINUOUS
  0
LAYER
  5
BF3
330
B59
100
AcDbSymbolTableRecord
100
AcDbLayerTableRecord
  2
Shape2814
 70
    0
 62
    7
  6
CONTINUOUS
  0
LAYER
  5
BF4
330
B59
100
AcDbSymbolTableRecord
100
AcDbLayerTableRecord
  2
Shape2815
 70
    0
 62
    7
  6
CONTINUOUS
  0
LAYER
  5
BF5
330
B59
100
AcDbSymbolTableRecord
100
AcDbLayerTableRecord
  2
Shape2816
 70
    0
 62
    7
  6
CONTINUOUS
  0
LAYER
  5
BF6
330
B59
100
AcDbSymbolTableRecord
100
AcDbLayerTableRecord
  2
Shape2817
 70
    0
 62
    7
  6
CONTINUOUS
  0
LAYER
  5
BF7
330
B59
100
AcDbSymbolTableRecord
100
AcDbLayerTableRecord
  2
Shape2818
 70
    0
 62
    7
  6
CONTINUOUS
  0
LAYER
  5
BF8
330
B59
100
AcDbSymbolTableRecord
100
AcDbLayerTableRecord
  2
Shape2819
 70
    0
 62
    7
  6
CONTINUOUS
  0
LAYER
  5
BF9
330
B59
100
AcDbSymbolTableRecord
100
AcDbLayerTableRecord
  2
Shape2820
 70
    0
 62
    7
  6
CONTINUOUS
  0
LAYER
  5
BFA
330
B59
100
AcDbSymbolTableRecord
100
AcDbLayerTableRecord
  2
Shape2821
 70
    0
 62
    7
  6
CONTINUOUS
  0
LAYER
  5
BFB
330
B59
100
AcDbSymbolTableRecord
100
AcDbLayerTableRecord
  2
Shape2822
 70
    0
 62
    7
  6
CONTINUOUS
  0
LAYER
  5
BFC
330
B59
100
AcDbSymbolTableRecord
100
AcDbLayerTableRecord
  2
Shape2823
 70
    0
 62
    7
  6
CONTINUOUS
  0
LAYER
  5
BFD
330
B59
100
AcDbSymbolTableRecord
100
AcDbLayerTableRecord
  2
Shape2824
 70
    0
 62
    7
  6
CONTINUOUS
  0
LAYER
  5
BFE
330
B59
100
AcDbSymbolTableRecord
100
AcDbLayerTableRecord
  2
Shape2825
 70
    0
 62
    7
  6
CONTINUOUS
  0
LAYER
  5
BFF
330
B59
100
AcDbSymbolTableRecord
100
AcDbLayerTableRecord
  2
Shape2826
 70
    0
 62
    7
  6
CONTINUOUS
  0
LAYER
  5
C00
330
B59
100
AcDbSymbolTableRecord
100
AcDbLayerTableRecord
  2
Shape2827
 70
    0
 62
    7
  6
CONTINUOUS
  0
LAYER
  5
C01
330
B59
100
AcDbSymbolTableRecord
100
AcDbLayerTableRecord
  2
Shape2828
 70
    0
 62
    7
  6
CONTINUOUS
  0
LAYER
  5
C02
330
B59
100
AcDbSymbolTableRecord
100
AcDbLayerTableRecord
  2
Shape2829
 70
    0
 62
    7
  6
CONTINUOUS
  0
LAYER
  5
C03
330
B59
100
AcDbSymbolTableRecord
100
AcDbLayerTableRecord
  2
Shape2830
 70
    0
 62
    7
  6
CONTINUOUS
  0
LAYER
  5
C04
330
B59
100
AcDbSymbolTableRecord
100
AcDbLayerTableRecord
  2
Shape2831
 70
    0
 62
    7
  6
CONTINUOUS
  0
LAYER
  5
C05
330
B59
100
AcDbSymbolTableRecord
100
AcDbLayerTableRecord
  2
Shape2832
 70
    0
 62
    7
  6
CONTINUOUS
  0
LAYER
  5
C06
330
B59
100
AcDbSymbolTableRecord
100
AcDbLayerTableRecord
  2
Shape2833
 70
    0
 62
    7
  6
CONTINUOUS
  0
LAYER
  5
C07
330
B59
100
AcDbSymbolTableRecord
100
AcDbLayerTableRecord
  2
Shape2834
 70
    0
 62
    7
  6
CONTINUOUS
  0
LAYER
  5
C08
330
B59
100
AcDbSymbolTableRecord
100
AcDbLayerTableRecord
  2
Shape2835
 70
    0
 62
    7
  6
CONTINUOUS
  0
LAYER
  5
C09
330
B59
100
AcDbSymbolTableRecord
100
AcDbLayerTableRecord
  2
Shape2836
 70
    0
 62
    7
  6
CONTINUOUS
  0
LAYER
  5
C0A
330
B59
100
AcDbSymbolTableRecord
100
AcDbLayerTableRecord
  2
Shape2837
 70
    0
 62
    7
  6
CONTINUOUS
  0
LAYER
  5
C0B
330
B59
100
AcDbSymbolTableRecord
100
AcDbLayerTableRecord
  2
Shape2838
 70
    0
 62
    7
  6
CONTINUOUS
  0
LAYER
  5
C0C
330
B59
100
AcDbSymbolTableRecord
100
AcDbLayerTableRecord
  2
Shape2839
 70
    0
 62
    7
  6
CONTINUOUS
  0
LAYER
  5
C0D
330
B59
100
AcDbSymbolTableRecord
100
AcDbLayerTableRecord
  2
Shape2840
 70
    0
 62
    7
  6
CONTINUOUS
  0
LAYER
  5
C0E
330
B59
100
AcDbSymbolTableRecord
100
AcDbLayerTableRecord
  2
Shape2841
 70
    0
 62
    7
  6
CONTINUOUS
  0
LAYER
  5
C0F
330
B59
100
AcDbSymbolTableRecord
100
AcDbLayerTableRecord
  2
Shape2842
 70
    0
 62
    7
  6
CONTINUOUS
  0
LAYER
  5
C10
330
B59
100
AcDbSymbolTableRecord
100
AcDbLayerTableRecord
  2
Shape2843
 70
    0
 62
    7
  6
CONTINUOUS
  0
LAYER
  5
C11
330
B59
100
AcDbSymbolTableRecord
100
AcDbLayerTableRecord
  2
Shape2844
 70
    0
 62
    7
  6
CONTINUOUS
  0
LAYER
  5
C12
330
B59
100
AcDbSymbolTableRecord
100
AcDbLayerTableRecord
  2
Shape2845
 70
    0
 62
    7
  6
CONTINUOUS
  0
LAYER
  5
C13
330
B59
100
AcDbSymbolTableRecord
100
AcDbLayerTableRecord
  2
Shape2846
 70
    0
 62
    7
  6
CONTINUOUS
  0
LAYER
  5
C14
330
B59
100
AcDbSymbolTableRecord
100
AcDbLayerTableRecord
  2
Shape2847
 70
    0
 62
    7
  6
CONTINUOUS
  0
LAYER
  5
C15
330
B59
100
AcDbSymbolTableRecord
100
AcDbLayerTableRecord
  2
Shape2848
 70
    0
 62
    7
  6
CONTINUOUS
  0
LAYER
  5
C16
330
B59
100
AcDbSymbolTableRecord
100
AcDbLayerTableRecord
  2
Shape2849
 70
    0
 62
    7
  6
CONTINUOUS
  0
LAYER
  5
C17
330
B59
100
AcDbSymbolTableRecord
100
AcDbLayerTableRecord
  2
Shape2850
 70
    0
 62
    7
  6
CONTINUOUS
  0
LAYER
  5
C18
330
B59
100
AcDbSymbolTableRecord
100
AcDbLayerTableRecord
  2
Shape2851
 70
    0
 62
    7
  6
CONTINUOUS
  0
LAYER
  5
C19
330
B59
100
AcDbSymbolTableRecord
100
AcDbLayerTableRecord
  2
Shape2852
 70
    0
 62
    7
  6
CONTINUOUS
  0
LAYER
  5
C1A
330
B59
100
AcDbSymbolTableRecord
100
AcDbLayerTableRecord
  2
Shape2853
 70
    0
 62
    7
  6
CONTINUOUS
  0
LAYER
  5
C1B
330
B59
100
AcDbSymbolTableRecord
100
AcDbLayerTableRecord
  2
Shape2854
 70
    0
 62
    7
  6
CONTINUOUS
  0
LAYER
  5
C1C
330
B59
100
AcDbSymbolTableRecord
100
AcDbLayerTableRecord
  2
Shape2855
 70
    0
 62
    7
  6
CONTINUOUS
  0
LAYER
  5
C1D
330
B59
100
AcDbSymbolTableRecord
100
AcDbLayerTableRecord
  2
Shape2856
 70
    0
 62
    7
  6
CONTINUOUS
  0
LAYER
  5
C1E
330
B59
100
AcDbSymbolTableRecord
100
AcDbLayerTableRecord
  2
Shape2857
 70
    0
 62
    7
  6
CONTINUOUS
  0
LAYER
  5
C1F
330
B59
100
AcDbSymbolTableRecord
100
AcDbLayerTableRecord
  2
Shape2858
 70
    0
 62
    7
  6
CONTINUOUS
  0
LAYER
  5
C20
330
B59
100
AcDbSymbolTableRecord
100
AcDbLayerTableRecord
  2
Shape2859
 70
    0
 62
    7
  6
CONTINUOUS
  0
LAYER
  5
C21
330
B59
100
AcDbSymbolTableRecord
100
AcDbLayerTableRecord
  2
Shape2860
 70
    0
 62
    7
  6
CONTINUOUS
  0
LAYER
  5
C22
330
B59
100
AcDbSymbolTableRecord
100
AcDbLayerTableRecord
  2
Shape2861
 70
    0
 62
    7
  6
CONTINUOUS
  0
LAYER
  5
C23
330
B59
100
AcDbSymbolTableRecord
100
AcDbLayerTableRecord
  2
Shape2862
 70
    0
 62
    7
  6
CONTINUOUS
  0
LAYER
  5
C24
330
B59
100
AcDbSymbolTableRecord
100
AcDbLayerTableRecord
  2
Shape2863
 70
    0
 62
    7
  6
CONTINUOUS
  0
LAYER
  5
C25
330
B59
100
AcDbSymbolTableRecord
100
AcDbLayerTableRecord
  2
Shape2864
 70
    0
 62
    7
  6
CONTINUOUS
  0
LAYER
  5
C26
330
B59
100
AcDbSymbolTableRecord
100
AcDbLayerTableRecord
  2
Shape2865
 70
    0
 62
    7
  6
CONTINUOUS
  0
LAYER
  5
C27
330
B59
100
AcDbSymbolTableRecord
100
AcDbLayerTableRecord
  2
Shape2866
 70
    0
 62
    7
  6
CONTINUOUS
  0
LAYER
  5
C28
330
B59
100
AcDbSymbolTableRecord
100
AcDbLayerTableRecord
  2
Shape2867
 70
    0
 62
    7
  6
CONTINUOUS
  0
LAYER
  5
C29
330
B59
100
AcDbSymbolTableRecord
100
AcDbLayerTableRecord
  2
Shape2868
 70
    0
 62
    7
  6
CONTINUOUS
  0
LAYER
  5
C2A
330
B59
100
AcDbSymbolTableRecord
100
AcDbLayerTableRecord
  2
Shape2869
 70
    0
 62
    7
  6
CONTINUOUS
  0
LAYER
  5
C2B
330
B59
100
AcDbSymbolTableRecord
100
AcDbLayerTableRecord
  2
Shape2870
 70
    0
 62
    7
  6
CONTINUOUS
  0
LAYER
  5
C2C
330
B59
100
AcDbSymbolTableRecord
100
AcDbLayerTableRecord
  2
Shape2871
 70
    0
 62
    7
  6
CONTINUOUS
  0
LAYER
  5
C2D
330
B59
100
AcDbSymbolTableRecord
100
AcDbLayerTableRecord
  2
Shape2872
 70
    0
 62
    7
  6
CONTINUOUS
  0
LAYER
  5
C2E
330
B59
100
AcDbSymbolTableRecord
100
AcDbLayerTableRecord
  2
Shape2873
 70
    0
 62
    7
  6
CONTINUOUS
  0
LAYER
  5
C2F
330
B59
100
AcDbSymbolTableRecord
100
AcDbLayerTableRecord
  2
Shape2874
 70
    0
 62
    7
  6
CONTINUOUS
  0
LAYER
  5
C30
330
B59
100
AcDbSymbolTableRecord
100
AcDbLayerTableRecord
  2
Shape2875
 70
    0
 62
    7
  6
CONTINUOUS
  0
LAYER
  5
C31
330
B59
100
AcDbSymbolTableRecord
100
AcDbLayerTableRecord
  2
Shape2876
 70
    0
 62
    7
  6
CONTINUOUS
  0
LAYER
  5
C32
330
B59
100
AcDbSymbolTableRecord
100
AcDbLayerTableRecord
  2
Shape2877
 70
    0
 62
    7
  6
CONTINUOUS
  0
LAYER
  5
C33
330
B59
100
AcDbSymbolTableRecord
100
AcDbLayerTableRecord
  2
Shape2878
 70
    0
 62
    7
  6
CONTINUOUS
  0
LAYER
  5
C34
330
B59
100
AcDbSymbolTableRecord
100
AcDbLayerTableRecord
  2
Shape2879
 70
    0
 62
    7
  6
CONTINUOUS
  0
LAYER
  5
C35
330
B59
100
AcDbSymbolTableRecord
100
AcDbLayerTableRecord
  2
Shape2880
 70
    0
 62
    7
  6
CONTINUOUS
  0
LAYER
  5
C36
330
B59
100
AcDbSymbolTableRecord
100
AcDbLayerTableRecord
  2
Shape2881
 70
    0
 62
    7
  6
CONTINUOUS
  0
LAYER
  5
C37
330
B59
100
AcDbSymbolTableRecord
100
AcDbLayerTableRecord
  2
Shape2882
 70
    0
 62
    7
  6
CONTINUOUS
  0
LAYER
  5
C38
330
B59
100
AcDbSymbolTableRecord
100
AcDbLayerTableRecord
  2
Shape2883
 70
    0
 62
    7
  6
CONTINUOUS
  0
LAYER
  5
C39
330
B59
100
AcDbSymbolTableRecord
100
AcDbLayerTableRecord
  2
Shape2884
 70
    0
 62
    7
  6
CONTINUOUS
  0
LAYER
  5
C3A
330
B59
100
AcDbSymbolTableRecord
100
AcDbLayerTableRecord
  2
Shape2885
 70
    0
 62
    7
  6
CONTINUOUS
  0
LAYER
  5
C3B
330
B59
100
AcDbSymbolTableRecord
100
AcDbLayerTableRecord
  2
Shape2886
 70
    0
 62
    7
  6
CONTINUOUS
  0
LAYER
  5
C3C
330
B59
100
AcDbSymbolTableRecord
100
AcDbLayerTableRecord
  2
Shape2887
 70
    0
 62
    7
  6
CONTINUOUS
  0
LAYER
  5
C3D
330
B59
100
AcDbSymbolTableRecord
100
AcDbLayerTableRecord
  2
Shape2888
 70
    0
 62
    7
  6
CONTINUOUS
  0
LAYER
  5
C3E
330
B59
100
AcDbSymbolTableRecord
100
AcDbLayerTableRecord
  2
Shape2889
 70
    0
 62
    7
  6
CONTINUOUS
  0
LAYER
  5
C3F
330
B59
100
AcDbSymbolTableRecord
100
AcDbLayerTableRecord
  2
Shape2890
 70
    0
 62
    7
  6
CONTINUOUS
  0
LAYER
  5
C40
330
B59
100
AcDbSymbolTableRecord
100
AcDbLayerTableRecord
  2
Shape2891
 70
    0
 62
    7
  6
CONTINUOUS
  0
LAYER
  5
C41
330
B59
100
AcDbSymbolTableRecord
100
AcDbLayerTableRecord
  2
Shape2892
 70
    0
 62
    7
  6
CONTINUOUS
  0
LAYER
  5
C42
330
B59
100
AcDbSymbolTableRecord
100
AcDbLayerTableRecord
  2
Shape2893
 70
    0
 62
    7
  6
CONTINUOUS
  0
LAYER
  5
C43
330
B59
100
AcDbSymbolTableRecord
100
AcDbLayerTableRecord
  2
Shape2894
 70
    0
 62
    7
  6
CONTINUOUS
  0
LAYER
  5
C44
330
B59
100
AcDbSymbolTableRecord
100
AcDbLayerTableRecord
  2
Shape2895
 70
    0
 62
    7
  6
CONTINUOUS
  0
LAYER
  5
C45
330
B59
100
AcDbSymbolTableRecord
100
AcDbLayerTableRecord
  2
Shape2896
 70
    0
 62
    7
  6
CONTINUOUS
  0
LAYER
  5
C46
330
B59
100
AcDbSymbolTableRecord
100
AcDbLayerTableRecord
  2
Shape2897
 70
    0
 62
    7
  6
CONTINUOUS
  0
LAYER
  5
C47
330
B59
100
AcDbSymbolTableRecord
100
AcDbLayerTableRecord
  2
Shape2898
 70
    0
 62
    7
  6
CONTINUOUS
  0
LAYER
  5
C48
330
B59
100
AcDbSymbolTableRecord
100
AcDbLayerTableRecord
  2
Shape2899
 70
    0
 62
    7
  6
CONTINUOUS
  0
LAYER
  5
C49
330
B59
100
AcDbSymbolTableRecord
100
AcDbLayerTableRecord
  2
Shape2900
 70
    0
 62
    7
  6
CONTINUOUS
  0
LAYER
  5
C4A
330
B59
100
AcDbSymbolTableRecord
100
AcDbLayerTableRecord
  2
Shape2901
 70
    0
 62
    7
  6
CONTINUOUS
  0
LAYER
  5
C4B
330
B59
100
AcDbSymbolTableRecord
100
AcDbLayerTableRecord
  2
Shape2902
 70
    0
 62
    7
  6
CONTINUOUS
  0
LAYER
  5
C4C
330
B59
100
AcDbSymbolTableRecord
100
AcDbLayerTableRecord
  2
Shape2903
 70
    0
 62
    7
  6
CONTINUOUS
  0
LAYER
  5
C4D
330
B59
100
AcDbSymbolTableRecord
100
AcDbLayerTableRecord
  2
Shape2904
 70
    0
 62
    7
  6
CONTINUOUS
  0
LAYER
  5
C4E
330
B59
100
AcDbSymbolTableRecord
100
AcDbLayerTableRecord
  2
Shape2905
 70
    0
 62
    7
  6
CONTINUOUS
  0
LAYER
  5
C4F
330
B59
100
AcDbSymbolTableRecord
100
AcDbLayerTableRecord
  2
Shape2906
 70
    0
 62
    7
  6
CONTINUOUS
  0
LAYER
  5
C50
330
B59
100
AcDbSymbolTableRecord
100
AcDbLayerTableRecord
  2
Shape2907
 70
    0
 62
    7
  6
CONTINUOUS
  0
LAYER
  5
C51
330
B59
100
AcDbSymbolTableRecord
100
AcDbLayerTableRecord
  2
Shape2908
 70
    0
 62
    7
  6
CONTINUOUS
  0
LAYER
  5
C52
330
B59
100
AcDbSymbolTableRecord
100
AcDbLayerTableRecord
  2
Shape2909
 70
    0
 62
    7
  6
CONTINUOUS
  0
LAYER
  5
C53
330
B59
100
AcDbSymbolTableRecord
100
AcDbLayerTableRecord
  2
Shape2910
 70
    0
 62
    7
  6
CONTINUOUS
  0
LAYER
  5
C54
330
B59
100
AcDbSymbolTableRecord
100
AcDbLayerTableRecord
  2
Shape2911
 70
    0
 62
    7
  6
CONTINUOUS
  0
LAYER
  5
C55
330
B59
100
AcDbSymbolTableRecord
100
AcDbLayerTableRecord
  2
Shape2912
 70
    0
 62
    7
  6
CONTINUOUS
  0
LAYER
  5
C56
330
B59
100
AcDbSymbolTableRecord
100
AcDbLayerTableRecord
  2
Shape2913
 70
    0
 62
    7
  6
CONTINUOUS
  0
LAYER
  5
C57
330
B59
100
AcDbSymbolTableRecord
100
AcDbLayerTableRecord
  2
Shape2914
 70
    0
 62
    7
  6
CONTINUOUS
  0
LAYER
  5
C58
330
B59
100
AcDbSymbolTableRecord
100
AcDbLayerTableRecord
  2
Shape2915
 70
    0
 62
    7
  6
CONTINUOUS
  0
LAYER
  5
C59
330
B59
100
AcDbSymbolTableRecord
100
AcDbLayerTableRecord
  2
Shape2916
 70
    0
 62
    7
  6
CONTINUOUS
  0
LAYER
  5
C5A
330
B59
100
AcDbSymbolTableRecord
100
AcDbLayerTableRecord
  2
Shape2917
 70
    0
 62
    7
  6
CONTINUOUS
  0
LAYER
  5
C5B
330
B59
100
AcDbSymbolTableRecord
100
AcDbLayerTableRecord
  2
Shape2918
 70
    0
 62
    7
  6
CONTINUOUS
  0
LAYER
  5
C5C
330
B59
100
AcDbSymbolTableRecord
100
AcDbLayerTableRecord
  2
Shape2919
 70
    0
 62
    7
  6
CONTINUOUS
  0
LAYER
  5
C5D
330
B59
100
AcDbSymbolTableRecord
100
AcDbLayerTableRecord
  2
Shape2920
 70
    0
 62
    7
  6
CONTINUOUS
  0
LAYER
  5
C5E
330
B59
100
AcDbSymbolTableRecord
100
AcDbLayerTableRecord
  2
Shape2921
 70
    0
 62
    7
  6
CONTINUOUS
  0
LAYER
  5
C5F
330
B59
100
AcDbSymbolTableRecord
100
AcDbLayerTableRecord
  2
Shape2922
 70
    0
 62
    7
  6
CONTINUOUS
  0
LAYER
  5
C60
330
B59
100
AcDbSymbolTableRecord
100
AcDbLayerTableRecord
  2
Shape2923
 70
    0
 62
    7
  6
CONTINUOUS
  0
LAYER
  5
C61
330
B59
100
AcDbSymbolTableRecord
100
AcDbLayerTableRecord
  2
Shape2924
 70
    0
 62
    7
  6
CONTINUOUS
  0
LAYER
  5
C62
330
B59
100
AcDbSymbolTableRecord
100
AcDbLayerTableRecord
  2
Shape2925
 70
    0
 62
    7
  6
CONTINUOUS
  0
LAYER
  5
C63
330
B59
100
AcDbSymbolTableRecord
100
AcDbLayerTableRecord
  2
Shape2926
 70
    0
 62
    7
  6
CONTINUOUS
  0
LAYER
  5
C64
330
B59
100
AcDbSymbolTableRecord
100
AcDbLayerTableRecord
  2
Shape2927
 70
    0
 62
    7
  6
CONTINUOUS
  0
LAYER
  5
C65
330
B59
100
AcDbSymbolTableRecord
100
AcDbLayerTableRecord
  2
Shape2928
 70
    0
 62
    7
  6
CONTINUOUS
  0
LAYER
  5
C66
330
B59
100
AcDbSymbolTableRecord
100
AcDbLayerTableRecord
  2
Shape2929
 70
    0
 62
    7
  6
CONTINUOUS
  0
LAYER
  5
C67
330
B59
100
AcDbSymbolTableRecord
100
AcDbLayerTableRecord
  2
Shape2930
 70
    0
 62
    7
  6
CONTINUOUS
  0
LAYER
  5
C68
330
B59
100
AcDbSymbolTableRecord
100
AcDbLayerTableRecord
  2
Shape2931
 70
    0
 62
    7
  6
CONTINUOUS
  0
LAYER
  5
C69
330
B59
100
AcDbSymbolTableRecord
100
AcDbLayerTableRecord
  2
Shape2932
 70
    0
 62
    7
  6
CONTINUOUS
  0
LAYER
  5
C6A
330
B59
100
AcDbSymbolTableRecord
100
AcDbLayerTableRecord
  2
Shape2933
 70
    0
 62
    7
  6
CONTINUOUS
  0
LAYER
  5
C6B
330
B59
100
AcDbSymbolTableRecord
100
AcDbLayerTableRecord
  2
Shape2934
 70
    0
 62
    7
  6
CONTINUOUS
  0
LAYER
  5
C6C
330
B59
100
AcDbSymbolTableRecord
100
AcDbLayerTableRecord
  2
Shape2935
 70
    0
 62
    7
  6
CONTINUOUS
  0
LAYER
  5
C6D
330
B59
100
AcDbSymbolTableRecord
100
AcDbLayerTableRecord
  2
Shape2936
 70
    0
 62
    7
  6
CONTINUOUS
  0
LAYER
  5
C6E
330
B59
100
AcDbSymbolTableRecord
100
AcDbLayerTableRecord
  2
Shape2937
 70
    0
 62
    7
  6
CONTINUOUS
  0
LAYER
  5
C6F
330
B59
100
AcDbSymbolTableRecord
100
AcDbLayerTableRecord
  2
Shape2938
 70
    0
 62
    7
  6
CONTINUOUS
  0
LAYER
  5
C70
330
B59
100
AcDbSymbolTableRecord
100
AcDbLayerTableRecord
  2
Shape2939
 70
    0
 62
    7
  6
CONTINUOUS
  0
LAYER
  5
C71
330
B59
100
AcDbSymbolTableRecord
100
AcDbLayerTableRecord
  2
Shape2940
 70
    0
 62
    7
  6
CONTINUOUS
  0
LAYER
  5
C72
330
B59
100
AcDbSymbolTableRecord
100
AcDbLayerTableRecord
  2
Shape2941
 70
    0
 62
    7
  6
CONTINUOUS
  0
LAYER
  5
C73
330
B59
100
AcDbSymbolTableRecord
100
AcDbLayerTableRecord
  2
Shape2942
 70
    0
 62
    7
  6
CONTINUOUS
  0
LAYER
  5
C74
330
B59
100
AcDbSymbolTableRecord
100
AcDbLayerTableRecord
  2
Shape2943
 70
    0
 62
    7
  6
CONTINUOUS
  0
LAYER
  5
C75
330
B59
100
AcDbSymbolTableRecord
100
AcDbLayerTableRecord
  2
Shape2944
 70
    0
 62
    7
  6
CONTINUOUS
  0
LAYER
  5
C76
330
B59
100
AcDbSymbolTableRecord
100
AcDbLayerTableRecord
  2
Shape2945
 70
    0
 62
    7
  6
CONTINUOUS
  0
LAYER
  5
C77
330
B59
100
AcDbSymbolTableRecord
100
AcDbLayerTableRecord
  2
Shape2946
 70
    0
 62
    7
  6
CONTINUOUS
  0
LAYER
  5
C78
330
B59
100
AcDbSymbolTableRecord
100
AcDbLayerTableRecord
  2
Shape2947
 70
    0
 62
    7
  6
CONTINUOUS
  0
LAYER
  5
C79
330
B59
100
AcDbSymbolTableRecord
100
AcDbLayerTableRecord
  2
Shape2948
 70
    0
 62
    7
  6
CONTINUOUS
  0
LAYER
  5
C7A
330
B59
100
AcDbSymbolTableRecord
100
AcDbLayerTableRecord
  2
Shape2949
 70
    0
 62
    7
  6
CONTINUOUS
  0
LAYER
  5
C7B
330
B59
100
AcDbSymbolTableRecord
100
AcDbLayerTableRecord
  2
Shape2950
 70
    0
 62
    7
  6
CONTINUOUS
  0
LAYER
  5
C7C
330
B59
100
AcDbSymbolTableRecord
100
AcDbLayerTableRecord
  2
Shape2951
 70
    0
 62
    7
  6
CONTINUOUS
  0
LAYER
  5
C7D
330
B59
100
AcDbSymbolTableRecord
100
AcDbLayerTableRecord
  2
Shape2952
 70
    0
 62
    7
  6
CONTINUOUS
  0
LAYER
  5
C7E
330
B59
100
AcDbSymbolTableRecord
100
AcDbLayerTableRecord
  2
Shape2953
 70
    0
 62
    7
  6
CONTINUOUS
  0
LAYER
  5
C7F
330
B59
100
AcDbSymbolTableRecord
100
AcDbLayerTableRecord
  2
Shape2954
 70
    0
 62
    7
  6
CONTINUOUS
  0
LAYER
  5
C80
330
B59
100
AcDbSymbolTableRecord
100
AcDbLayerTableRecord
  2
Shape2955
 70
    0
 62
    7
  6
CONTINUOUS
  0
LAYER
  5
C81
330
B59
100
AcDbSymbolTableRecord
100
AcDbLayerTableRecord
  2
Shape2956
 70
    0
 62
    7
  6
CONTINUOUS
  0
LAYER
  5
C82
330
B59
100
AcDbSymbolTableRecord
100
AcDbLayerTableRecord
  2
Shape2957
 70
    0
 62
    7
  6
CONTINUOUS
  0
LAYER
  5
C83
330
B59
100
AcDbSymbolTableRecord
100
AcDbLayerTableRecord
  2
Shape2958
 70
    0
 62
    7
  6
CONTINUOUS
  0
LAYER
  5
C84
330
B59
100
AcDbSymbolTableRecord
100
AcDbLayerTableRecord
  2
Shape2959
 70
    0
 62
    7
  6
CONTINUOUS
  0
LAYER
  5
C85
330
B59
100
AcDbSymbolTableRecord
100
AcDbLayerTableRecord
  2
Shape2961
 70
    0
 62
    7
  6
CONTINUOUS
  0
LAYER
  5
C86
330
B59
100
AcDbSymbolTableRecord
100
AcDbLayerTableRecord
  2
Shape2962
 70
    0
 62
    7
  6
CONTINUOUS
  0
LAYER
  5
C87
330
B59
100
AcDbSymbolTableRecord
100
AcDbLayerTableRecord
  2
Shape2963
 70
    0
 62
    7
  6
CONTINUOUS
  0
LAYER
  5
C88
330
B59
100
AcDbSymbolTableRecord
100
AcDbLayerTableRecord
  2
Shape2964
 70
    0
 62
    7
  6
CONTINUOUS
  0
LAYER
  5
C89
330
B59
100
AcDbSymbolTableRecord
100
AcDbLayerTableRecord
  2
Shape3001
 70
    0
 62
    7
  6
CONTINUOUS
  0
LAYER
  5
C8A
330
B59
100
AcDbSymbolTableRecord
100
AcDbLayerTableRecord
  2
Shape3002
 70
    0
 62
    7
  6
CONTINUOUS
  0
LAYER
  5
C8B
330
B59
100
AcDbSymbolTableRecord
100
AcDbLayerTableRecord
  2
Shape3003
 70
    0
 62
    7
  6
CONTINUOUS
  0
LAYER
  5
C8C
330
B59
100
AcDbSymbolTableRecord
100
AcDbLayerTableRecord
  2
Shape3004
 70
    0
 62
    7
  6
CONTINUOUS
  0
LAYER
  5
C8D
330
B59
100
AcDbSymbolTableRecord
100
AcDbLayerTableRecord
  2
Shape3005
 70
    0
 62
    7
  6
CONTINUOUS
  0
LAYER
  5
C8E
330
B59
100
AcDbSymbolTableRecord
100
AcDbLayerTableRecord
  2
Shape3006
 70
    0
 62
    7
  6
CONTINUOUS
  0
LAYER
  5
C8F
330
B59
100
AcDbSymbolTableRecord
100
AcDbLayerTableRecord
  2
Shape3007
 70
    0
 62
    7
  6
CONTINUOUS
  0
LAYER
  5
C90
330
B59
100
AcDbSymbolTableRecord
100
AcDbLayerTableRecord
  2
Shape3008
 70
    0
 62
    7
  6
CONTINUOUS
  0
LAYER
  5
C91
330
B59
100
AcDbSymbolTableRecord
100
AcDbLayerTableRecord
  2
Shape3009
 70
    0
 62
    7
  6
CONTINUOUS
  0
LAYER
  5
C92
330
B59
100
AcDbSymbolTableRecord
100
AcDbLayerTableRecord
  2
Shape3010
 70
    0
 62
    7
  6
CONTINUOUS
  0
LAYER
  5
C93
330
B59
100
AcDbSymbolTableRecord
100
AcDbLayerTableRecord
  2
Shape3011
 70
    0
 62
    7
  6
CONTINUOUS
  0
LAYER
  5
C94
330
B59
100
AcDbSymbolTableRecord
100
AcDbLayerTableRecord
  2
Shape3012
 70
    0
 62
    7
  6
CONTINUOUS
  0
LAYER
  5
C95
330
B59
100
AcDbSymbolTableRecord
100
AcDbLayerTableRecord
  2
Shape3013
 70
    0
 62
    7
  6
CONTINUOUS
  0
LAYER
  5
C96
330
B59
100
AcDbSymbolTableRecord
100
AcDbLayerTableRecord
  2
Shape3014
 70
    0
 62
    7
  6
CONTINUOUS
  0
LAYER
  5
C97
330
B59
100
AcDbSymbolTableRecord
100
AcDbLayerTableRecord
  2
Shape3015
 70
    0
 62
    7
  6
CONTINUOUS
  0
LAYER
  5
C98
330
B59
100
AcDbSymbolTableRecord
100
AcDbLayerTableRecord
  2
Shape3016
 70
    0
 62
    7
  6
CONTINUOUS
  0
LAYER
  5
C99
330
B59
100
AcDbSymbolTableRecord
100
AcDbLayerTableRecord
  2
Shape3017
 70
    0
 62
    7
  6
CONTINUOUS
  0
LAYER
  5
C9A
330
B59
100
AcDbSymbolTableRecord
100
AcDbLayerTableRecord
  2
Shape3018
 70
    0
 62
    7
  6
CONTINUOUS
  0
LAYER
  5
C9B
330
B59
100
AcDbSymbolTableRecord
100
AcDbLayerTableRecord
  2
Shape3019
 70
    0
 62
    7
  6
CONTINUOUS
  0
LAYER
  5
C9C
330
B59
100
AcDbSymbolTableRecord
100
AcDbLayerTableRecord
  2
Shape3020
 70
    0
 62
    7
  6
CONTINUOUS
  0
LAYER
  5
C9D
330
B59
100
AcDbSymbolTableRecord
100
AcDbLayerTableRecord
  2
Shape3021
 70
    0
 62
    7
  6
CONTINUOUS
  0
LAYER
  5
C9E
330
B59
100
AcDbSymbolTableRecord
100
AcDbLayerTableRecord
  2
Shape3022
 70
    0
 62
    7
  6
CONTINUOUS
  0
LAYER
  5
C9F
330
B59
100
AcDbSymbolTableRecord
100
AcDbLayerTableRecord
  2
Shape3023
 70
    0
 62
    7
  6
CONTINUOUS
  0
LAYER
  5
CA0
330
B59
100
AcDbSymbolTableRecord
100
AcDbLayerTableRecord
  2
Shape3024
 70
    0
 62
    7
  6
CONTINUOUS
  0
LAYER
  5
CA1
330
B59
100
AcDbSymbolTableRecord
100
AcDbLayerTableRecord
  2
Shape3025
 70
    0
 62
    7
  6
CONTINUOUS
  0
LAYER
  5
CA2
330
B59
100
AcDbSymbolTableRecord
100
AcDbLayerTableRecord
  2
Shape3026
 70
    0
 62
    7
  6
CONTINUOUS
  0
LAYER
  5
CA3
330
B59
100
AcDbSymbolTableRecord
100
AcDbLayerTableRecord
  2
Shape3027
 70
    0
 62
    7
  6
CONTINUOUS
  0
LAYER
  5
CA4
330
B59
100
AcDbSymbolTableRecord
100
AcDbLayerTableRecord
  2
Shape3028
 70
    0
 62
    7
  6
CONTINUOUS
  0
LAYER
  5
CA5
330
B59
100
AcDbSymbolTableRecord
100
AcDbLayerTableRecord
  2
Shape3029
 70
    0
 62
    7
  6
CONTINUOUS
  0
LAYER
  5
CA6
330
B59
100
AcDbSymbolTableRecord
100
AcDbLayerTableRecord
  2
Shape3030
 70
    0
 62
    7
  6
CONTINUOUS
  0
LAYER
  5
CA7
330
B59
100
AcDbSymbolTableRecord
100
AcDbLayerTableRecord
  2
Shape3031
 70
    0
 62
    7
  6
CONTINUOUS
  0
LAYER
  5
CA8
330
B59
100
AcDbSymbolTableRecord
100
AcDbLayerTableRecord
  2
Shape3032
 70
    0
 62
    7
  6
CONTINUOUS
  0
LAYER
  5
CA9
330
B59
100
AcDbSymbolTableRecord
100
AcDbLayerTableRecord
  2
Shape3033
 70
    0
 62
    7
  6
CONTINUOUS
  0
LAYER
  5
CAA
330
B59
100
AcDbSymbolTableRecord
100
AcDbLayerTableRecord
  2
Shape3034
 70
    0
 62
    7
  6
CONTINUOUS
  0
LAYER
  5
CAB
330
B59
100
AcDbSymbolTableRecord
100
AcDbLayerTableRecord
  2
Shape3035
 70
    0
 62
    7
  6
CONTINUOUS
  0
LAYER
  5
CAC
330
B59
100
AcDbSymbolTableRecord
100
AcDbLayerTableRecord
  2
Shape3036
 70
    0
 62
    7
  6
CONTINUOUS
  0
ENDTAB
  0
TABLE
  2
STYLE
  5
70
330
0
100
AcDbSymbolTable
 70
     2
  0
STYLE
  5
71
330
70
100
AcDbSymbolTableRecord
100
AcDbTextStyleTableRecord
  2
STANDARD
 70
     0
 40
0.0
 41
1.0
 50
0.0
 71
     0
 42
2.5
  3
arial.ttf
  4

  0
STYLE
  5
72
330
70
100
AcDbSymbolTableRecord
100
AcDbTextStyleTableRecord
  2
ANNOTATIVE
 70
     0
 40
0.0
 41
1.0
 50
0.0
 71
     0
 42
2.5
  3
arial.ttf
  4

  0
ENDTAB
  0
TABLE
  2
VIEW
  5
73
330
0
100
AcDbSymbolTable
 70
     0
  0
ENDTAB
  0
TABLE
  2
UCS
  5
74
330
0
100
AcDbSymbolTable
 70
     0
  0
ENDTAB
  0
TABLE
  2
APPID
  5
75
330
0
100
AcDbSymbolTable
 70
     2
  0
APPID
  5
76
330
75
100
AcDbSymbolTableRecord
100
AcDbRegAppTableRecord
  2
ACAD
 70
     0
  0
APPID
  5
77
330
75
100
AcDbSymbolTableRecord
100
AcDbRegAppTableRecord
  2
ACADANNOTATIVE
 70
     0
  0
ENDTAB
  0
TABLE
  2
DIMSTYLE
  5
78
330
0
100
AcDbSymbolTable
 70
     2
  0
DIMSTYLE
105
79
330
78
100
AcDbSymbolTableRecord
100
AcDbDimStyleTableRecord
  2
STANDARD
 70
     0
  3

  4

  5

  6

  7

 40
0.0
 41
2.5
 42
0.625
 43
3.75
 44
1.25
 45
0.0
 46
0.0
 47
0.0
 48
0.0
140
2.5
141
2.5
142
0.0
143
0.03937007874016
144
1.0
145
0.0
146
1.0
147
0.625
 71
     0
 72
     0
 73
     0
 74
     0
 75
     0
 76
     0
 77
     1
 78
     8
170
     0
171
     3
172
     1
173
     0
174
     0
175
     0
176
     0
177
     0
178
     0
270
     2
271
     2
272
     2
273
     2
274
     3
340
71
275
     0
280
     0
281
     0
282
     0
283
     0
284
     8
285
     0
286
     0
287
     3
288
     0
  0
ENDTAB
  0
TABLE
  2
BLOCK_RECORD
  5
A01
330
0
100
AcDbSymbolTable
  70
5
  0
BLOCK_RECORD
  5
A02
330
A01
100
AcDbSymbolTableRecord
100
AcDbBlockTableRecord
  2
*MODEL_SPACE
  0
BLOCK_RECORD
  5
A03
330
A01
100
AcDbSymbolTableRecord
100
AcDbBlockTableRecord
  2
*PAPER_SPACE
  0
ENDTAB
  0
ENDSEC
  0
SECTION
  2
BLOCKS
  0
BLOCK
  5
A04
330
A02
100
AcDbEntity
  8
0
100
AcDbBlockBegin
  2
*MODEL_SPACE
 70
   0
 10
0
 20
0
 30
0
  3
*MODEL_SPACE
  1
 
  0
ENDBLK
  5
A05
330
A02
100
AcDbEntity
  8
0
100
AcDbBlockEnd
  0
BLOCK
  5
A06
330
A03
100
AcDbEntity
 67
1
  8
0
100
AcDbBlockBegin
  2
*PAPER_SPACE
 70
   0
 10
0
 20
0
 30
0
  3
*PAPER_SPACE
  1
 
  0
ENDBLK
  5
A07
330
A03
100
AcDbEntity
 67
    1
  8
0
100
AcDbBlockEnd
  0
ENDSEC
  0
SECTION
  2
ENTITIES
  0
LINE
  5
A08
330
A02
100
AcDbEntity
  8
Shape2523
100
AcDbLine
 10
179.746
 20
-635.239
 30
0
 11
-175.854
 21
-635.239
 31
0
  0
LINE
  5
A09
330
A02
100
AcDbEntity
  8
Shape2524
100
AcDbLine
 10
-175.854
 20
-635.239
 30
0
 11
-175.854
 21
-279.639
 31
0
  0
LINE
  5
A0A
330
A02
100
AcDbEntity
  8
Shape2525
100
AcDbLine
 10
-175.854
 20
-279.639
 30
0
 11
179.746
 21
-279.639
 31
0
  0
LINE
  5
A0B
330
A02
100
AcDbEntity
  8
Shape2526
100
AcDbLine
 10
179.746
 20
-279.639
 30
0
 11
179.746
 21
-635.239
 31
0
  0
LINE
  5
A0C
330
A02
100
AcDbEntity
  8
Shape2527
100
AcDbLine
 10
1759.63
 20
-635.239
 30
0
 11
1759.63
 21
-279.639
 31
0
  0
LINE
  5
A0D
330
A02
100
AcDbEntity
  8
Shape2528
100
AcDbLine
 10
1759.63
 20
-279.639
 30
0
 11
2115.23
 21
-279.639
 31
0
  0
LINE
  5
A0E
330
A02
100
AcDbEntity
  8
Shape2529
100
AcDbLine
 10
2115.23
 20
-279.639
 30
0
 11
2115.23
 21
-635.239
 31
0
  0
LINE
  5
A0F
330
A02
100
AcDbEntity
  8
Shape2530
100
AcDbLine
 10
2115.23
 20
-635.239
 30
0
 11
1759.63
 21
-635.239
 31
0
  0
LINE
  5
A10
330
A02
100
AcDbEntity
  8
Shape2531
100
AcDbLine
 10
1389.42
 20
-1119.11
 30
0
 11
1033.82
 21
-1119.11
 31
0
  0
LINE
  5
A11
330
A02
100
AcDbEntity
  8
Shape2532
100
AcDbLine
 10
1033.82
 20
-1119.11
 30
0
 11
1033.82
 21
-763.509
 31
0
  0
LINE
  5
A12
330
A02
100
AcDbEntity
  8
Shape2533
100
AcDbLine
 10
1033.82
 20
-763.509
 30
0
 11
1389.42
 21
-763.509
 31
0
  0
LINE
  5
A13
330
A02
100
AcDbEntity
  8
Shape2534
100
AcDbLine
 10
1389.42
 20
-763.509
 30
0
 11
1389.42
 21
-1119.11
 31
0
  0
LINE
  5
A14
330
A02
100
AcDbEntity
  8
Shape2535
100
AcDbLine
 10
-1513.8
 20
-1119.11
 30
0
 11
-1869.4
 21
-1119.11
 31
0
  0
LINE
  5
A15
330
A02
100
AcDbEntity
  8
Shape2536
100
AcDbLine
 10
-1869.4
 20
-1119.11
 30
0
 11
-1869.4
 21
-763.509
 31
0
  0
LINE
  5
A16
330
A02
100
AcDbEntity
  8
Shape2537
100
AcDbLine
 10
-1869.4
 20
-763.509
 30
0
 11
-1513.8
 21
-763.509
 31
0
  0
LINE
  5
A17
330
A02
100
AcDbEntity
  8
Shape2538
100
AcDbLine
 10
-1513.8
 20
-763.509
 30
0
 11
-1513.8
 21
-1119.11
 31
0
  0
LINE
  5
A18
330
A02
100
AcDbEntity
  8
Shape2539
100
AcDbLine
 10
-1755.73
 20
-635.239
 30
0
 11
-2111.33
 21
-635.239
 31
0
  0
LINE
  5
A19
330
A02
100
AcDbEntity
  8
Shape2540
100
AcDbLine
 10
-2111.33
 20
-635.239
 30
0
 11
-2111.33
 21
-279.639
 31
0
  0
LINE
  5
A1A
330
A02
100
AcDbEntity
  8
Shape2541
100
AcDbLine
 10
-2111.33
 20
-279.639
 30
0
 11
-1755.73
 21
-279.639
 31
0
  0
LINE
  5
A1B
330
A02
100
AcDbEntity
  8
Shape2542
100
AcDbLine
 10
-1755.73
 20
-279.639
 30
0
 11
-1755.73
 21
-635.239
 31
0
  0
LINE
  5
A1C
330
A02
100
AcDbEntity
  8
Shape2543
100
AcDbLine
 10
-1029.93
 20
-1119.11
 30
0
 11
-1385.53
 21
-1119.11
 31
0
  0
LINE
  5
A1D
330
A02
100
AcDbEntity
  8
Shape2544
100
AcDbLine
 10
-1385.53
 20
-1119.11
 30
0
 11
-1385.53
 21
-763.509
 31
0
  0
LINE
  5
A1E
330
A02
100
AcDbEntity
  8
Shape2545
100
AcDbLine
 10
-1385.53
 20
-763.509
 30
0
 11
-1029.93
 21
-763.509
 31
0
  0
LINE
  5
A1F
330
A02
100
AcDbEntity
  8
Shape2546
100
AcDbLine
 10
-1029.93
 20
-763.509
 30
0
 11
-1029.93
 21
-1119.11
 31
0
  0
LINE
  5
A20
330
A02
100
AcDbEntity
  8
Shape2547
100
AcDbLine
 10
1873.29
 20
-763.509
 30
0
 11
1873.29
 21
-1119.11
 31
0
  0
LINE
  5
A21
330
A02
100
AcDbEntity
  8
Shape2548
100
AcDbLine
 10
1873.29
 20
-1119.11
 30
0
 11
1517.69
 21
-1119.11
 31
0
  0
LINE
  5
A22
330
A02
100
AcDbEntity
  8
Shape2549
100
AcDbLine
 10
1517.69
 20
-1119.11
 30
0
 11
1517.69
 21
-763.509
 31
0
  0
LINE
  5
A23
330
A02
100
AcDbEntity
  8
Shape2550
100
AcDbLine
 10
1517.69
 20
-763.509
 30
0
 11
1873.29
 21
-763.509
 31
0
  0
LINE
  5
A24
330
A02
100
AcDbEntity
  8
Shape2551
100
AcDbLine
 10
1147.49
 20
688.101
 30
0
 11
1147.49
 21
332.501
 31
0
  0
LINE
  5
A25
330
A02
100
AcDbEntity
  8
Shape2552
100
AcDbLine
 10
1147.49
 20
332.501
 30
0
 11
791.886
 21
332.501
 31
0
  0
LINE
  5
A26
330
A02
100
AcDbEntity
  8
Shape2553
100
AcDbLine
 10
791.886
 20
332.501
 30
0
 11
791.886
 21
688.101
 31
0
  0
LINE
  5
A27
330
A02
100
AcDbEntity
  8
Shape2554
100
AcDbLine
 10
791.886
 20
688.101
 30
0
 11
1147.49
 21
688.101
 31
0
  0
LINE
  5
A28
330
A02
100
AcDbEntity
  8
Shape2555
100
AcDbLine
 10
-2239.6
 20
332.501
 30
0
 11
-2595.2
 21
332.501
 31
0
  0
LINE
  5
A29
330
A02
100
AcDbEntity
  8
Shape2556
100
AcDbLine
 10
-2595.2
 20
332.501
 30
0
 11
-2595.2
 21
688.101
 31
0
  0
LINE
  5
A2A
330
A02
100
AcDbEntity
  8
Shape2557
100
AcDbLine
 10
-2595.2
 20
688.101
 30
0
 11
-2239.6
 21
688.101
 31
0
  0
LINE
  5
A2B
330
A02
100
AcDbEntity
  8
Shape2558
100
AcDbLine
 10
-2239.6
 20
688.101
 30
0
 11
-2239.6
 21
332.501
 31
0
  0
LINE
  5
A2C
330
A02
100
AcDbEntity
  8
Shape2559
100
AcDbLine
 10
-1271.86
 20
688.101
 30
0
 11
-1271.86
 21
332.501
 31
0
  0
LINE
  5
A2D
330
A02
100
AcDbEntity
  8
Shape2560
100
AcDbLine
 10
-1271.86
 20
332.501
 30
0
 11
-1627.46
 21
332.501
 31
0
  0
LINE
  5
A2E
330
A02
100
AcDbEntity
  8
Shape2561
100
AcDbLine
 10
-1627.46
 20
332.501
 30
0
 11
-1627.46
 21
688.101
 31
0
  0
LINE
  5
A2F
330
A02
100
AcDbEntity
  8
Shape2562
100
AcDbLine
 10
-1627.46
 20
688.101
 30
0
 11
-1271.86
 21
688.101
 31
0
  0
LINE
  5
A30
330
A02
100
AcDbEntity
  8
Shape2563
100
AcDbLine
 10
-1755.73
 20
688.101
 30
0
 11
-1755.73
 21
332.501
 31
0
  0
LINE
  5
A31
330
A02
100
AcDbEntity
  8
Shape2564
100
AcDbLine
 10
-1755.73
 20
332.501
 30
0
 11
-2111.33
 21
332.501
 31
0
  0
LINE
  5
A32
330
A02
100
AcDbEntity
  8
Shape2565
100
AcDbLine
 10
-2111.33
 20
332.501
 30
0
 11
-2111.33
 21
688.101
 31
0
  0
LINE
  5
A33
330
A02
100
AcDbEntity
  8
Shape2566
100
AcDbLine
 10
-2111.33
 20
688.101
 30
0
 11
-1755.73
 21
688.101
 31
0
  0
LINE
  5
A34
330
A02
100
AcDbEntity
  8
Shape2567
100
AcDbLine
 10
663.616
 20
332.501
 30
0
 11
308.016
 21
332.501
 31
0
  0
LINE
  5
A35
330
A02
100
AcDbEntity
  8
Shape2568
100
AcDbLine
 10
308.016
 20
332.501
 30
0
 11
308.016
 21
688.101
 31
0
  0
LINE
  5
A36
330
A02
100
AcDbEntity
  8
Shape2569
100
AcDbLine
 10
308.016
 20
688.101
 30
0
 11
663.616
 21
688.101
 31
0
  0
LINE
  5
A37
330
A02
100
AcDbEntity
  8
Shape2570
100
AcDbLine
 10
663.616
 20
688.101
 30
0
 11
663.616
 21
332.501
 31
0
  0
LINE
  5
A38
330
A02
100
AcDbEntity
  8
Shape2571
100
AcDbLine
 10
-659.724
 20
688.101
 30
0
 11
-304.124
 21
688.101
 31
0
  0
LINE
  5
A39
330
A02
100
AcDbEntity
  8
Shape2572
100
AcDbLine
 10
-304.124
 20
688.101
 30
0
 11
-304.124
 21
332.501
 31
0
  0
LINE
  5
A3A
330
A02
100
AcDbEntity
  8
Shape2573
100
AcDbLine
 10
-304.124
 20
332.501
 30
0
 11
-659.724
 21
332.501
 31
0
  0
LINE
  5
A3B
330
A02
100
AcDbEntity
  8
Shape2574
100
AcDbLine
 10
-659.724
 20
332.501
 30
0
 11
-659.724
 21
688.101
 31
0
  0
LINE
  5
A3C
330
A02
100
AcDbEntity
  8
Shape2575
100
AcDbLine
 10
1275.76
 20
332.501
 30
0
 11
1275.76
 21
688.101
 31
0
  0
LINE
  5
A3D
330
A02
100
AcDbEntity
  8
Shape2576
100
AcDbLine
 10
1275.76
 20
688.101
 30
0
 11
1631.36
 21
688.101
 31
0
  0
LINE
  5
A3E
330
A02
100
AcDbEntity
  8
Shape2577
100
AcDbLine
 10
1631.36
 20
688.101
 30
0
 11
1631.36
 21
332.501
 31
0
  0
LINE
  5
A3F
330
A02
100
AcDbEntity
  8
Shape2578
100
AcDbLine
 10
1631.36
 20
332.501
 30
0
 11
1275.76
 21
332.501
 31
0
  0
LINE
  5
A40
330
A02
100
AcDbEntity
  8
Shape2579
100
AcDbLine
 10
-1143.59
 20
688.101
 30
0
 11
-787.994
 21
688.101
 31
0
  0
LINE
  5
A41
330
A02
100
AcDbEntity
  8
Shape2580
100
AcDbLine
 10
-787.994
 20
688.101
 30
0
 11
-787.994
 21
332.501
 31
0
  0
LINE
  5
A42
330
A02
100
AcDbEntity
  8
Shape2581
100
AcDbLine
 10
-787.994
 20
332.501
 30
0
 11
-1143.59
 21
332.501
 31
0
  0
LINE
  5
A43
330
A02
100
AcDbEntity
  8
Shape2582
100
AcDbLine
 10
-1143.59
 20
332.501
 30
0
 11
-1143.59
 21
688.101
 31
0
  0
LINE
  5
A44
330
A02
100
AcDbEntity
  8
Shape2583
100
AcDbLine
 10
-175.854
 20
332.501
 30
0
 11
-175.854
 21
688.101
 31
0
  0
LINE
  5
A45
330
A02
100
AcDbEntity
  8
Shape2584
100
AcDbLine
 10
-175.854
 20
688.101
 30
0
 11
179.746
 21
688.101
 31
0
  0
LINE
  5
A46
330
A02
100
AcDbEntity
  8
Shape2585
100
AcDbLine
 10
179.746
 20
688.101
 30
0
 11
179.746
 21
332.501
 31
0
  0
LINE
  5
A47
330
A02
100
AcDbEntity
  8
Shape2586
100
AcDbLine
 10
179.746
 20
332.501
 30
0
 11
-175.854
 21
332.501
 31
0
  0
LINE
  5
A48
330
A02
100
AcDbEntity
  8
Shape2587
100
AcDbLine
 10
1759.63
 20
332.501
 30
0
 11
1759.63
 21
688.101
 31
0
  0
LINE
  5
A49
330
A02
100
AcDbEntity
  8
Shape2588
100
AcDbLine
 10
1759.63
 20
688.101
 30
0
 11
2115.23
 21
688.101
 31
0
  0
LINE
  5
A4A
330
A02
100
AcDbEntity
  8
Shape2589
100
AcDbLine
 10
2115.23
 20
688.101
 30
0
 11
2115.23
 21
332.501
 31
0
  0
LINE
  5
A4B
330
A02
100
AcDbEntity
  8
Shape2590
100
AcDbLine
 10
2115.23
 20
332.501
 30
0
 11
1759.63
 21
332.501
 31
0
  0
LINE
  5
A4C
330
A02
100
AcDbEntity
  8
Shape2591
100
AcDbLine
 10
2599.1
 20
332.501
 30
0
 11
2243.5
 21
332.501
 31
0
  0
LINE
  5
A4D
330
A02
100
AcDbEntity
  8
Shape2592
100
AcDbLine
 10
2243.5
 20
332.501
 30
0
 11
2243.5
 21
688.101
 31
0
  0
LINE
  5
A4E
330
A02
100
AcDbEntity
  8
Shape2593
100
AcDbLine
 10
2243.5
 20
688.101
 30
0
 11
2599.1
 21
688.101
 31
0
  0
LINE
  5
A4F
330
A02
100
AcDbEntity
  8
Shape2594
100
AcDbLine
 10
2599.1
 20
688.101
 30
0
 11
2599.1
 21
332.501
 31
0
  0
LINE
  5
A50
330
A02
100
AcDbEntity
  8
Shape2595
100
AcDbLine
 10
2243.5
 20
-635.239
 30
0
 11
2243.5
 21
-279.639
 31
0
  0
LINE
  5
A51
330
A02
100
AcDbEntity
  8
Shape2596
100
AcDbLine
 10
2243.5
 20
-279.639
 30
0
 11
2599.1
 21
-279.639
 31
0
  0
LINE
  5
A52
330
A02
100
AcDbEntity
  8
Shape2597
100
AcDbLine
 10
2599.1
 20
-279.639
 30
0
 11
2599.1
 21
-635.239
 31
0
  0
LINE
  5
A53
330
A02
100
AcDbEntity
  8
Shape2598
100
AcDbLine
 10
2599.1
 20
-635.239
 30
0
 11
2243.5
 21
-635.239
 31
0
  0
LINE
  5
A54
330
A02
100
AcDbEntity
  8
Shape2599
100
AcDbLine
 10
2243.5
 20
-151.369
 30
0
 11
2243.5
 21
204.231
 31
0
  0
LINE
  5
A55
330
A02
100
AcDbEntity
  8
Shape2600
100
AcDbLine
 10
2243.5
 20
204.231
 30
0
 11
2599.1
 21
204.231
 31
0
  0
LINE
  5
A56
330
A02
100
AcDbEntity
  8
Shape2601
100
AcDbLine
 10
2599.1
 20
204.231
 30
0
 11
2599.1
 21
-151.369
 31
0
  0
LINE
  5
A57
330
A02
100
AcDbEntity
  8
Shape2602
100
AcDbLine
 10
2599.1
 20
-151.369
 30
0
 11
2243.5
 21
-151.369
 31
0
  0
LINE
  5
A58
330
A02
100
AcDbEntity
  8
Shape2603
100
AcDbLine
 10
1275.76
 20
-151.369
 30
0
 11
1275.76
 21
204.231
 31
0
  0
LINE
  5
A59
330
A02
100
AcDbEntity
  8
Shape2604
100
AcDbLine
 10
1275.76
 20
204.231
 30
0
 11
1631.36
 21
204.231
 31
0
  0
LINE
  5
A5A
330
A02
100
AcDbEntity
  8
Shape2605
100
AcDbLine
 10
1631.36
 20
204.231
 30
0
 11
1631.36
 21
-151.369
 31
0
  0
LINE
  5
A5B
330
A02
100
AcDbEntity
  8
Shape2606
100
AcDbLine
 10
1631.36
 20
-151.369
 30
0
 11
1275.76
 21
-151.369
 31
0
  0
LINE
  5
A5C
330
A02
100
AcDbEntity
  8
Shape2607
100
AcDbLine
 10
308.016
 20
-151.369
 30
0
 11
308.016
 21
204.231
 31
0
  0
LINE
  5
A5D
330
A02
100
AcDbEntity
  8
Shape2608
100
AcDbLine
 10
308.016
 20
204.231
 30
0
 11
663.616
 21
204.231
 31
0
  0
LINE
  5
A5E
330
A02
100
AcDbEntity
  8
Shape2609
100
AcDbLine
 10
663.616
 20
204.231
 30
0
 11
663.616
 21
-151.369
 31
0
  0
LINE
  5
A5F
330
A02
100
AcDbEntity
  8
Shape2610
100
AcDbLine
 10
663.616
 20
-151.369
 30
0
 11
308.016
 21
-151.369
 31
0
  0
LINE
  5
A60
330
A02
100
AcDbEntity
  8
Shape2611
100
AcDbLine
 10
-659.724
 20
-151.369
 30
0
 11
-659.724
 21
204.231
 31
0
  0
LINE
  5
A61
330
A02
100
AcDbEntity
  8
Shape2612
100
AcDbLine
 10
-659.724
 20
204.231
 30
0
 11
-304.124
 21
204.231
 31
0
  0
LINE
  5
A62
330
A02
100
AcDbEntity
  8
Shape2613
100
AcDbLine
 10
-304.124
 20
204.231
 30
0
 11
-304.124
 21
-151.369
 31
0
  0
LINE
  5
A63
330
A02
100
AcDbEntity
  8
Shape2614
100
AcDbLine
 10
-304.124
 20
-151.369
 30
0
 11
-659.724
 21
-151.369
 31
0
  0
LINE
  5
A64
330
A02
100
AcDbEntity
  8
Shape2615
100
AcDbLine
 10
-1627.46
 20
-151.369
 30
0
 11
-1627.46
 21
204.231
 31
0
  0
LINE
  5
A65
330
A02
100
AcDbEntity
  8
Shape2616
100
AcDbLine
 10
-1627.46
 20
204.231
 30
0
 11
-1271.86
 21
204.231
 31
0
  0
LINE
  5
A66
330
A02
100
AcDbEntity
  8
Shape2617
100
AcDbLine
 10
-1271.86
 20
204.231
 30
0
 11
-1271.86
 21
-151.369
 31
0
  0
LINE
  5
A67
330
A02
100
AcDbEntity
  8
Shape2618
100
AcDbLine
 10
-1271.86
 20
-151.369
 30
0
 11
-1627.46
 21
-151.369
 31
0
  0
LINE
  5
A68
330
A02
100
AcDbEntity
  8
Shape2619
100
AcDbLine
 10
-2595.2
 20
-151.369
 30
0
 11
-2595.2
 21
204.231
 31
0
  0
LINE
  5
A69
330
A02
100
AcDbEntity
  8
Shape2620
100
AcDbLine
 10
-2595.2
 20
204.231
 30
0
 11
-2239.6
 21
204.231
 31
0
  0
LINE
  5
A6A
330
A02
100
AcDbEntity
  8
Shape2621
100
AcDbLine
 10
-2239.6
 20
204.231
 30
0
 11
-2239.6
 21
-151.369
 31
0
  0
LINE
  5
A6B
330
A02
100
AcDbEntity
  8
Shape2622
100
AcDbLine
 10
-2239.6
 20
-151.369
 30
0
 11
-2595.2
 21
-151.369
 31
0
  0
LINE
  5
A6C
330
A02
100
AcDbEntity
  8
Shape2623
100
AcDbLine
 10
-2111.33
 20
-151.369
 30
0
 11
-2111.33
 21
204.231
 31
0
  0
LINE
  5
A6D
330
A02
100
AcDbEntity
  8
Shape2624
100
AcDbLine
 10
-2111.33
 20
204.231
 30
0
 11
-1755.73
 21
204.231
 31
0
  0
LINE
  5
A6E
330
A02
100
AcDbEntity
  8
Shape2625
100
AcDbLine
 10
-1755.73
 20
204.231
 30
0
 11
-1755.73
 21
-151.369
 31
0
  0
LINE
  5
A6F
330
A02
100
AcDbEntity
  8
Shape2626
100
AcDbLine
 10
-1755.73
 20
-151.369
 30
0
 11
-2111.33
 21
-151.369
 31
0
  0
LINE
  5
A70
330
A02
100
AcDbEntity
  8
Shape2627
100
AcDbLine
 10
-1143.59
 20
-151.369
 30
0
 11
-1143.59
 21
204.231
 31
0
  0
LINE
  5
A71
330
A02
100
AcDbEntity
  8
Shape2628
100
AcDbLine
 10
-1143.59
 20
204.231
 30
0
 11
-787.994
 21
204.231
 31
0
  0
LINE
  5
A72
330
A02
100
AcDbEntity
  8
Shape2629
100
AcDbLine
 10
-787.994
 20
204.231
 30
0
 11
-787.994
 21
-151.369
 31
0
  0
LINE
  5
A73
330
A02
100
AcDbEntity
  8
Shape2630
100
AcDbLine
 10
-787.994
 20
-151.369
 30
0
 11
-1143.59
 21
-151.369
 31
0
  0
LINE
  5
A74
330
A02
100
AcDbEntity
  8
Shape2631
100
AcDbLine
 10
-175.854
 20
-151.369
 30
0
 11
-175.854
 21
204.231
 31
0
  0
LINE
  5
A75
330
A02
100
AcDbEntity
  8
Shape2632
100
AcDbLine
 10
-175.854
 20
204.231
 30
0
 11
179.746
 21
204.231
 31
0
  0
LINE
  5
A76
330
A02
100
AcDbEntity
  8
Shape2633
100
AcDbLine
 10
179.746
 20
204.231
 30
0
 11
179.746
 21
-151.369
 31
0
  0
LINE
  5
A77
330
A02
100
AcDbEntity
  8
Shape2634
100
AcDbLine
 10
179.746
 20
-151.369
 30
0
 11
-175.854
 21
-151.369
 31
0
  0
LINE
  5
A78
330
A02
100
AcDbEntity
  8
Shape2635
100
AcDbLine
 10
791.886
 20
-151.369
 30
0
 11
791.886
 21
204.231
 31
0
  0
LINE
  5
A79
330
A02
100
AcDbEntity
  8
Shape2636
100
AcDbLine
 10
791.886
 20
204.231
 30
0
 11
1147.49
 21
204.231
 31
0
  0
LINE
  5
A7A
330
A02
100
AcDbEntity
  8
Shape2637
100
AcDbLine
 10
1147.49
 20
204.231
 30
0
 11
1147.49
 21
-151.369
 31
0
  0
LINE
  5
A7B
330
A02
100
AcDbEntity
  8
Shape2638
100
AcDbLine
 10
1147.49
 20
-151.369
 30
0
 11
791.886
 21
-151.369
 31
0
  0
LINE
  5
A7C
330
A02
100
AcDbEntity
  8
Shape2639
100
AcDbLine
 10
1759.63
 20
-151.369
 30
0
 11
1759.63
 21
204.231
 31
0
  0
LINE
  5
A7D
330
A02
100
AcDbEntity
  8
Shape2640
100
AcDbLine
 10
1759.63
 20
204.231
 30
0
 11
2115.23
 21
204.231
 31
0
  0
LINE
  5
A7E
330
A02
100
AcDbEntity
  8
Shape2641
100
AcDbLine
 10
2115.23
 20
204.231
 30
0
 11
2115.23
 21
-151.369
 31
0
  0
LINE
  5
A7F
330
A02
100
AcDbEntity
  8
Shape2642
100
AcDbLine
 10
2115.23
 20
-151.369
 30
0
 11
1759.63
 21
-151.369
 31
0
  0
LINE
  5
A80
330
A02
100
AcDbEntity
  8
Shape2643
100
AcDbLine
 10
-2595.2
 20
-635.239
 30
0
 11
-2595.2
 21
-279.639
 31
0
  0
LINE
  5
A81
330
A02
100
AcDbEntity
  8
Shape2644
100
AcDbLine
 10
-2595.2
 20
-279.639
 30
0
 11
-2239.6
 21
-279.639
 31
0
  0
LINE
  5
A82
330
A02
100
AcDbEntity
  8
Shape2645
100
AcDbLine
 10
-2239.6
 20
-279.639
 30
0
 11
-2239.6
 21
-635.239
 31
0
  0
LINE
  5
A83
330
A02
100
AcDbEntity
  8
Shape2646
100
AcDbLine
 10
-2239.6
 20
-635.239
 30
0
 11
-2595.2
 21
-635.239
 31
0
  0
LINE
  5
A84
330
A02
100
AcDbEntity
  8
Shape2647
100
AcDbLine
 10
-1271.86
 20
-635.239
 30
0
 11
-1627.46
 21
-635.239
 31
0
  0
LINE
  5
A85
330
A02
100
AcDbEntity
  8
Shape2648
100
AcDbLine
 10
-1627.46
 20
-635.239
 30
0
 11
-1627.46
 21
-279.639
 31
0
  0
LINE
  5
A86
330
A02
100
AcDbEntity
  8
Shape2649
100
AcDbLine
 10
-1627.46
 20
-279.639
 30
0
 11
-1271.86
 21
-279.639
 31
0
  0
LINE
  5
A87
330
A02
100
AcDbEntity
  8
Shape2650
100
AcDbLine
 10
-1271.86
 20
-279.639
 30
0
 11
-1271.86
 21
-635.239
 31
0
  0
LINE
  5
A88
330
A02
100
AcDbEntity
  8
Shape2651
100
AcDbLine
 10
-787.994
 20
-635.239
 30
0
 11
-1143.59
 21
-635.239
 31
0
  0
LINE
  5
A89
330
A02
100
AcDbEntity
  8
Shape2652
100
AcDbLine
 10
-1143.59
 20
-635.239
 30
0
 11
-1143.59
 21
-279.639
 31
0
  0
LINE
  5
A8A
330
A02
100
AcDbEntity
  8
Shape2653
100
AcDbLine
 10
-1143.59
 20
-279.639
 30
0
 11
-787.994
 21
-279.639
 31
0
  0
LINE
  5
A8B
330
A02
100
AcDbEntity
  8
Shape2654
100
AcDbLine
 10
-787.994
 20
-279.639
 30
0
 11
-787.994
 21
-635.239
 31
0
  0
LINE
  5
A8C
330
A02
100
AcDbEntity
  8
Shape2655
100
AcDbLine
 10
-659.724
 20
-635.239
 30
0
 11
-659.724
 21
-279.639
 31
0
  0
LINE
  5
A8D
330
A02
100
AcDbEntity
  8
Shape2656
100
AcDbLine
 10
-659.724
 20
-279.639
 30
0
 11
-304.124
 21
-279.639
 31
0
  0
LINE
  5
A8E
330
A02
100
AcDbEntity
  8
Shape2657
100
AcDbLine
 10
-304.124
 20
-279.639
 30
0
 11
-304.124
 21
-635.239
 31
0
  0
LINE
  5
A8F
330
A02
100
AcDbEntity
  8
Shape2658
100
AcDbLine
 10
-304.124
 20
-635.239
 30
0
 11
-659.724
 21
-635.239
 31
0
  0
LINE
  5
A90
330
A02
100
AcDbEntity
  8
Shape2659
100
AcDbLine
 10
1275.76
 20
-635.239
 30
0
 11
1275.76
 21
-279.639
 31
0
  0
LINE
  5
A91
330
A02
100
AcDbEntity
  8
Shape2660
100
AcDbLine
 10
1275.76
 20
-279.639
 30
0
 11
1631.36
 21
-279.639
 31
0
  0
LINE
  5
A92
330
A02
100
AcDbEntity
  8
Shape2661
100
AcDbLine
 10
1631.36
 20
-279.639
 30
0
 11
1631.36
 21
-635.239
 31
0
  0
LINE
  5
A93
330
A02
100
AcDbEntity
  8
Shape2662
100
AcDbLine
 10
1631.36
 20
-635.239
 30
0
 11
1275.76
 21
-635.239
 31
0
  0
LINE
  5
A94
330
A02
100
AcDbEntity
  8
Shape2663
100
AcDbLine
 10
791.886
 20
-635.239
 30
0
 11
791.886
 21
-279.639
 31
0
  0
LINE
  5
A95
330
A02
100
AcDbEntity
  8
Shape2664
100
AcDbLine
 10
791.886
 20
-279.639
 30
0
 11
1147.49
 21
-279.639
 31
0
  0
LINE
  5
A96
330
A02
100
AcDbEntity
  8
Shape2665
100
AcDbLine
 10
1147.49
 20
-279.639
 30
0
 11
1147.49
 21
-635.239
 31
0
  0
LINE
  5
A97
330
A02
100
AcDbEntity
  8
Shape2666
100
AcDbLine
 10
1147.49
 20
-635.239
 30
0
 11
791.886
 21
-635.239
 31
0
  0
LINE
  5
A98
330
A02
100
AcDbEntity
  8
Shape2667
100
AcDbLine
 10
663.616
 20
-635.239
 30
0
 11
308.016
 21
-635.239
 31
0
  0
LINE
  5
A99
330
A02
100
AcDbEntity
  8
Shape2668
100
AcDbLine
 10
308.016
 20
-635.239
 30
0
 11
308.016
 21
-279.639
 31
0
  0
LINE
  5
A9A
330
A02
100
AcDbEntity
  8
Shape2669
100
AcDbLine
 10
308.016
 20
-279.639
 30
0
 11
663.616
 21
-279.639
 31
0
  0
LINE
  5
A9B
330
A02
100
AcDbEntity
  8
Shape2670
100
AcDbLine
 10
663.616
 20
-279.639
 30
0
 11
663.616
 21
-635.239
 31
0
  0
LINE
  5
A9C
330
A02
100
AcDbEntity
  8
Shape2811
100
AcDbLine
 10
179.746
 20
-635.239
 30
0
 11
-175.854
 21
-635.239
 31
0
  0
LINE
  5
A9D
330
A02
100
AcDbEntity
  8
Shape2812
100
AcDbLine
 10
-175.854
 20
-635.239
 30
0
 11
-175.854
 21
-279.639
 31
0
  0
LINE
  5
A9E
330
A02
100
AcDbEntity
  8
Shape2813
100
AcDbLine
 10
-175.854
 20
-279.639
 30
0
 11
179.746
 21
-279.639
 31
0
  0
LINE
  5
A9F
330
A02
100
AcDbEntity
  8
Shape2814
100
AcDbLine
 10
179.746
 20
-279.639
 30
0
 11
179.746
 21
-635.239
 31
0
  0
LINE
  5
AA0
330
A02
100
AcDbEntity
  8
Shape2815
100
AcDbLine
 10
1759.63
 20
-635.239
 30
0
 11
1759.63
 21
-279.639
 31
0
  0
LINE
  5
AA1
330
A02
100
AcDbEntity
  8
Shape2816
100
AcDbLine
 10
1759.63
 20
-279.639
 30
0
 11
2115.23
 21
-279.639
 31
0
  0
LINE
  5
AA2
330
A02
100
AcDbEntity
  8
Shape2817
100
AcDbLine
 10
2115.23
 20
-279.639
 30
0
 11
2115.23
 21
-635.239
 31
0
  0
LINE
  5
AA3
330
A02
100
AcDbEntity
  8
Shape2818
100
AcDbLine
 10
2115.23
 20
-635.239
 30
0
 11
1759.63
 21
-635.239
 31
0
  0
LINE
  5
AA4
330
A02
100
AcDbEntity
  8
Shape2819
100
AcDbLine
 10
1389.42
 20
-1119.11
 30
0
 11
1033.82
 21
-1119.11
 31
0
  0
LINE
  5
AA5
330
A02
100
AcDbEntity
  8
Shape2820
100
AcDbLine
 10
1033.82
 20
-1119.11
 30
0
 11
1033.82
 21
-763.509
 31
0
  0
LINE
  5
AA6
330
A02
100
AcDbEntity
  8
Shape2821
100
AcDbLine
 10
1033.82
 20
-763.509
 30
0
 11
1389.42
 21
-763.509
 31
0
  0
LINE
  5
AA7
330
A02
100
AcDbEntity
  8
Shape2822
100
AcDbLine
 10
1389.42
 20
-763.509
 30
0
 11
1389.42
 21
-1119.11
 31
0
  0
LINE
  5
AA8
330
A02
100
AcDbEntity
  8
Shape2823
100
AcDbLine
 10
-1513.8
 20
-1119.11
 30
0
 11
-1869.4
 21
-1119.11
 31
0
  0
LINE
  5
AA9
330
A02
100
AcDbEntity
  8
Shape2824
100
AcDbLine
 10
-1869.4
 20
-1119.11
 30
0
 11
-1869.4
 21
-763.509
 31
0
  0
LINE
  5
AAA
330
A02
100
AcDbEntity
  8
Shape2825
100
AcDbLine
 10
-1869.4
 20
-763.509
 30
0
 11
-1513.8
 21
-763.509
 31
0
  0
LINE
  5
AAB
330
A02
100
AcDbEntity
  8
Shape2826
100
AcDbLine
 10
-1513.8
 20
-763.509
 30
0
 11
-1513.8
 21
-1119.11
 31
0
  0
LINE
  5
AAC
330
A02
100
AcDbEntity
  8
Shape2827
100
AcDbLine
 10
-1755.73
 20
-635.239
 30
0
 11
-2111.33
 21
-635.239
 31
0
  0
LINE
  5
AAD
330
A02
100
AcDbEntity
  8
Shape2828
100
AcDbLine
 10
-2111.33
 20
-635.239
 30
0
 11
-2111.33
 21
-279.639
 31
0
  0
LINE
  5
AAE
330
A02
100
AcDbEntity
  8
Shape2829
100
AcDbLine
 10
-2111.33
 20
-279.639
 30
0
 11
-1755.73
 21
-279.639
 31
0
  0
LINE
  5
AAF
330
A02
100
AcDbEntity
  8
Shape2830
100
AcDbLine
 10
-1755.73
 20
-279.639
 30
0
 11
-1755.73
 21
-635.239
 31
0
  0
LINE
  5
AB0
330
A02
100
AcDbEntity
  8
Shape2831
100
AcDbLine
 10
-1029.93
 20
-1119.11
 30
0
 11
-1385.53
 21
-1119.11
 31
0
  0
LINE
  5
AB1
330
A02
100
AcDbEntity
  8
Shape2832
100
AcDbLine
 10
-1385.53
 20
-1119.11
 30
0
 11
-1385.53
 21
-763.509
 31
0
  0
LINE
  5
AB2
330
A02
100
AcDbEntity
  8
Shape2833
100
AcDbLine
 10
-1385.53
 20
-763.509
 30
0
 11
-1029.93
 21
-763.509
 31
0
  0
LINE
  5
AB3
330
A02
100
AcDbEntity
  8
Shape2834
100
AcDbLine
 10
-1029.93
 20
-763.509
 30
0
 11
-1029.93
 21
-1119.11
 31
0
  0
LINE
  5
AB4
330
A02
100
AcDbEntity
  8
Shape2835
100
AcDbLine
 10
1873.29
 20
-763.509
 30
0
 11
1873.29
 21
-1119.11
 31
0
  0
LINE
  5
AB5
330
A02
100
AcDbEntity
  8
Shape2836
100
AcDbLine
 10
1873.29
 20
-1119.11
 30
0
 11
1517.69
 21
-1119.11
 31
0
  0
LINE
  5
AB6
330
A02
100
AcDbEntity
  8
Shape2837
100
AcDbLine
 10
1517.69
 20
-1119.11
 30
0
 11
1517.69
 21
-763.509
 31
0
  0
LINE
  5
AB7
330
A02
100
AcDbEntity
  8
Shape2838
100
AcDbLine
 10
1517.69
 20
-763.509
 30
0
 11
1873.29
 21
-763.509
 31
0
  0
LINE
  5
AB8
330
A02
100
AcDbEntity
  8
Shape2839
100
AcDbLine
 10
1147.49
 20
688.101
 30
0
 11
1147.49
 21
332.501
 31
0
  0
LINE
  5
AB9
330
A02
100
AcDbEntity
  8
Shape2840
100
AcDbLine
 10
1147.49
 20
332.501
 30
0
 11
791.886
 21
332.501
 31
0
  0
LINE
  5
ABA
330
A02
100
AcDbEntity
  8
Shape2841
100
AcDbLine
 10
791.886
 20
332.501
 30
0
 11
791.886
 21
688.101
 31
0
  0
LINE
  5
ABB
330
A02
100
AcDbEntity
  8
Shape2842
100
AcDbLine
 10
791.886
 20
688.101
 30
0
 11
1147.49
 21
688.101
 31
0
  0
LINE
  5
ABC
330
A02
100
AcDbEntity
  8
Shape2843
100
AcDbLine
 10
-2239.6
 20
332.501
 30
0
 11
-2595.2
 21
332.501
 31
0
  0
LINE
  5
ABD
330
A02
100
AcDbEntity
  8
Shape2844
100
AcDbLine
 10
-2595.2
 20
332.501
 30
0
 11
-2595.2
 21
688.101
 31
0
  0
LINE
  5
ABE
330
A02
100
AcDbEntity
  8
Shape2845
100
AcDbLine
 10
-2595.2
 20
688.101
 30
0
 11
-2239.6
 21
688.101
 31
0
  0
LINE
  5
ABF
330
A02
100
AcDbEntity
  8
Shape2846
100
AcDbLine
 10
-2239.6
 20
688.101
 30
0
 11
-2239.6
 21
332.501
 31
0
  0
LINE
  5
AC0
330
A02
100
AcDbEntity
  8
Shape2847
100
AcDbLine
 10
-1271.86
 20
688.101
 30
0
 11
-1271.86
 21
332.501
 31
0
  0
LINE
  5
AC1
330
A02
100
AcDbEntity
  8
Shape2848
100
AcDbLine
 10
-1271.86
 20
332.501
 30
0
 11
-1627.46
 21
332.501
 31
0
  0
LINE
  5
AC2
330
A02
100
AcDbEntity
  8
Shape2849
100
AcDbLine
 10
-1627.46
 20
332.501
 30
0
 11
-1627.46
 21
688.101
 31
0
  0
LINE
  5
AC3
330
A02
100
AcDbEntity
  8
Shape2850
100
AcDbLine
 10
-1627.46
 20
688.101
 30
0
 11
-1271.86
 21
688.101
 31
0
  0
LINE
  5
AC4
330
A02
100
AcDbEntity
  8
Shape2851
100
AcDbLine
 10
-1755.73
 20
688.101
 30
0
 11
-1755.73
 21
332.501
 31
0
  0
LINE
  5
AC5
330
A02
100
AcDbEntity
  8
Shape2852
100
AcDbLine
 10
-1755.73
 20
332.501
 30
0
 11
-2111.33
 21
332.501
 31
0
  0
LINE
  5
AC6
330
A02
100
AcDbEntity
  8
Shape2853
100
AcDbLine
 10
-2111.33
 20
332.501
 30
0
 11
-2111.33
 21
688.101
 31
0
  0
LINE
  5
AC7
330
A02
100
AcDbEntity
  8
Shape2854
100
AcDbLine
 10
-2111.33
 20
688.101
 30
0
 11
-1755.73
 21
688.101
 31
0
  0
LINE
  5
AC8
330
A02
100
AcDbEntity
  8
Shape2855
100
AcDbLine
 10
663.616
 20
332.501
 30
0
 11
308.016
 21
332.501
 31
0
  0
LINE
  5
AC9
330
A02
100
AcDbEntity
  8
Shape2856
100
AcDbLine
 10
308.016
 20
332.501
 30
0
 11
308.016
 21
688.101
 31
0
  0
LINE
  5
ACA
330
A02
100
AcDbEntity
  8
Shape2857
100
AcDbLine
 10
308.016
 20
688.101
 30
0
 11
663.616
 21
688.101
 31
0
  0
LINE
  5
ACB
330
A02
100
AcDbEntity
  8
Shape2858
100
AcDbLine
 10
663.616
 20
688.101
 30
0
 11
663.616
 21
332.501
 31
0
  0
LINE
  5
ACC
330
A02
100
AcDbEntity
  8
Shape2859
100
AcDbLine
 10
-659.724
 20
688.101
 30
0
 11
-304.124
 21
688.101
 31
0
  0
LINE
  5
ACD
330
A02
100
AcDbEntity
  8
Shape2860
100
AcDbLine
 10
-304.124
 20
688.101
 30
0
 11
-304.124
 21
332.501
 31
0
  0
LINE
  5
ACE
330
A02
100
AcDbEntity
  8
Shape2861
100
AcDbLine
 10
-304.124
 20
332.501
 30
0
 11
-659.724
 21
332.501
 31
0
  0
LINE
  5
ACF
330
A02
100
AcDbEntity
  8
Shape2862
100
AcDbLine
 10
-659.724
 20
332.501
 30
0
 11
-659.724
 21
688.101
 31
0
  0
LINE
  5
AD0
330
A02
100
AcDbEntity
  8
Shape2863
100
AcDbLine
 10
1275.76
 20
332.501
 30
0
 11
1275.76
 21
688.101
 31
0
  0
LINE
  5
AD1
330
A02
100
AcDbEntity
  8
Shape2864
100
AcDbLine
 10
1275.76
 20
688.101
 30
0
 11
1631.36
 21
688.101
 31
0
  0
LINE
  5
AD2
330
A02
100
AcDbEntity
  8
Shape2865
100
AcDbLine
 10
1631.36
 20
688.101
 30
0
 11
1631.36
 21
332.501
 31
0
  0
LINE
  5
AD3
330
A02
100
AcDbEntity
  8
Shape2866
100
AcDbLine
 10
1631.36
 20
332.501
 30
0
 11
1275.76
 21
332.501
 31
0
  0
LINE
  5
AD4
330
A02
100
AcDbEntity
  8
Shape2867
100
AcDbLine
 10
-1143.59
 20
688.101
 30
0
 11
-787.994
 21
688.101
 31
0
  0
LINE
  5
AD5
330
A02
100
AcDbEntity
  8
Shape2868
100
AcDbLine
 10
-787.994
 20
688.101
 30
0
 11
-787.994
 21
332.501
 31
0
  0
LINE
  5
AD6
330
A02
100
AcDbEntity
  8
Shape2869
100
AcDbLine
 10
-787.994
 20
332.501
 30
0
 11
-1143.59
 21
332.501
 31
0
  0
LINE
  5
AD7
330
A02
100
AcDbEntity
  8
Shape2870
100
AcDbLine
 10
-1143.59
 20
332.501
 30
0
 11
-1143.59
 21
688.101
 31
0
  0
LINE
  5
AD8
330
A02
100
AcDbEntity
  8
Shape2871
100
AcDbLine
 10
-175.854
 20
332.501
 30
0
 11
-175.854
 21
688.101
 31
0
  0
LINE
  5
AD9
330
A02
100
AcDbEntity
  8
Shape2872
100
AcDbLine
 10
-175.854
 20
688.101
 30
0
 11
179.746
 21
688.101
 31
0
  0
LINE
  5
ADA
330
A02
100
AcDbEntity
  8
Shape2873
100
AcDbLine
 10
179.746
 20
688.101
 30
0
 11
179.746
 21
332.501
 31
0
  0
LINE
  5
ADB
330
A02
100
AcDbEntity
  8
Shape2874
100
AcDbLine
 10
179.746
 20
332.501
 30
0
 11
-175.854
 21
332.501
 31
0
  0
LINE
  5
ADC
330
A02
100
AcDbEntity
  8
Shape2875
100
AcDbLine
 10
1759.63
 20
332.501
 30
0
 11
1759.63
 21
688.101
 31
0
  0
LINE
  5
ADD
330
A02
100
AcDbEntity
  8
Shape2876
100
AcDbLine
 10
1759.63
 20
688.101
 30
0
 11
2115.23
 21
688.101
 31
0
  0
LINE
  5
ADE
330
A02
100
AcDbEntity
  8
Shape2877
100
AcDbLine
 10
2115.23
 20
688.101
 30
0
 11
2115.23
 21
332.501
 31
0
  0
LINE
  5
ADF
330
A02
100
AcDbEntity
  8
Shape2878
100
AcDbLine
 10
2115.23
 20
332.501
 30
0
 11
1759.63
 21
332.501
 31
0
  0
LINE
  5
AE0
330
A02
100
AcDbEntity
  8
Shape2879
100
AcDbLine
 10
2599.1
 20
332.501
 30
0
 11
2243.5
 21
332.501
 31
0
  0
LINE
  5
AE1
330
A02
100
AcDbEntity
  8
Shape2880
100
AcDbLine
 10
2243.5
 20
332.501
 30
0
 11
2243.5
 21
688.101
 31
0
  0
LINE
  5
AE2
330
A02
100
AcDbEntity
  8
Shape2881
100
AcDbLine
 10
2243.5
 20
688.101
 30
0
 11
2599.1
 21
688.101
 31
0
  0
LINE
  5
AE3
330
A02
100
AcDbEntity
  8
Shape2882
100
AcDbLine
 10
2599.1
 20
688.101
 30
0
 11
2599.1
 21
332.501
 31
0
  0
LINE
  5
AE4
330
A02
100
AcDbEntity
  8
Shape2883
100
AcDbLine
 10
2243.5
 20
-635.239
 30
0
 11
2243.5
 21
-279.639
 31
0
  0
LINE
  5
AE5
330
A02
100
AcDbEntity
  8
Shape2884
100
AcDbLine
 10
2243.5
 20
-279.639
 30
0
 11
2599.1
 21
-279.639
 31
0
  0
LINE
  5
AE6
330
A02
100
AcDbEntity
  8
Shape2885
100
AcDbLine
 10
2599.1
 20
-279.639
 30
0
 11
2599.1
 21
-635.239
 31
0
  0
LINE
  5
AE7
330
A02
100
AcDbEntity
  8
Shape2886
100
AcDbLine
 10
2599.1
 20
-635.239
 30
0
 11
2243.5
 21
-635.239
 31
0
  0
LINE
  5
AE8
330
A02
100
AcDbEntity
  8
Shape2887
100
AcDbLine
 10
2243.5
 20
-151.369
 30
0
 11
2243.5
 21
204.231
 31
0
  0
LINE
  5
AE9
330
A02
100
AcDbEntity
  8
Shape2888
100
AcDbLine
 10
2243.5
 20
204.231
 30
0
 11
2599.1
 21
204.231
 31
0
  0
LINE
  5
AEA
330
A02
100
AcDbEntity
  8
Shape2889
100
AcDbLine
 10
2599.1
 20
204.231
 30
0
 11
2599.1
 21
-151.369
 31
0
  0
LINE
  5
AEB
330
A02
100
AcDbEntity
  8
Shape2890
100
AcDbLine
 10
2599.1
 20
-151.369
 30
0
 11
2243.5
 21
-151.369
 31
0
  0
LINE
  5
AEC
330
A02
100
AcDbEntity
  8
Shape2891
100
AcDbLine
 10
1275.76
 20
-151.369
 30
0
 11
1275.76
 21
204.231
 31
0
  0
LINE
  5
AED
330
A02
100
AcDbEntity
  8
Shape2892
100
AcDbLine
 10
1275.76
 20
204.231
 30
0
 11
1631.36
 21
204.231
 31
0
  0
LINE
  5
AEE
330
A02
100
AcDbEntity
  8
Shape2893
100
AcDbLine
 10
1631.36
 20
204.231
 30
0
 11
1631.36
 21
-151.369
 31
0
  0
LINE
  5
AEF
330
A02
100
AcDbEntity
  8
Shape2894
100
AcDbLine
 10
1631.36
 20
-151.369
 30
0
 11
1275.76
 21
-151.369
 31
0
  0
LINE
  5
AF0
330
A02
100
AcDbEntity
  8
Shape2895
100
AcDbLine
 10
308.016
 20
-151.369
 30
0
 11
308.016
 21
204.231
 31
0
  0
LINE
  5
AF1
330
A02
100
AcDbEntity
  8
Shape2896
100
AcDbLine
 10
308.016
 20
204.231
 30
0
 11
663.616
 21
204.231
 31
0
  0
LINE
  5
AF2
330
A02
100
AcDbEntity
  8
Shape2897
100
AcDbLine
 10
663.616
 20
204.231
 30
0
 11
663.616
 21
-151.369
 31
0
  0
LINE
  5
AF3
330
A02
100
AcDbEntity
  8
Shape2898
100
AcDbLine
 10
663.616
 20
-151.369
 30
0
 11
308.016
 21
-151.369
 31
0
  0
LINE
  5
AF4
330
A02
100
AcDbEntity
  8
Shape2899
100
AcDbLine
 10
-659.724
 20
-151.369
 30
0
 11
-659.724
 21
204.231
 31
0
  0
LINE
  5
AF5
330
A02
100
AcDbEntity
  8
Shape2900
100
AcDbLine
 10
-659.724
 20
204.231
 30
0
 11
-304.124
 21
204.231
 31
0
  0
LINE
  5
AF6
330
A02
100
AcDbEntity
  8
Shape2901
100
AcDbLine
 10
-304.124
 20
204.231
 30
0
 11
-304.124
 21
-151.369
 31
0
  0
LINE
  5
AF7
330
A02
100
AcDbEntity
  8
Shape2902
100
AcDbLine
 10
-304.124
 20
-151.369
 30
0
 11
-659.724
 21
-151.369
 31
0
  0
LINE
  5
AF8
330
A02
100
AcDbEntity
  8
Shape2903
100
AcDbLine
 10
-1627.46
 20
-151.369
 30
0
 11
-1627.46
 21
204.231
 31
0
  0
LINE
  5
AF9
330
A02
100
AcDbEntity
  8
Shape2904
100
AcDbLine
 10
-1627.46
 20
204.231
 30
0
 11
-1271.86
 21
204.231
 31
0
  0
LINE
  5
AFA
330
A02
100
AcDbEntity
  8
Shape2905
100
AcDbLine
 10
-1271.86
 20
204.231
 30
0
 11
-1271.86
 21
-151.369
 31
0
  0
LINE
  5
AFB
330
A02
100
AcDbEntity
  8
Shape2906
100
AcDbLine
 10
-1271.86
 20
-151.369
 30
0
 11
-1627.46
 21
-151.369
 31
0
  0
LINE
  5
AFC
330
A02
100
AcDbEntity
  8
Shape2907
100
AcDbLine
 10
-2595.2
 20
-151.369
 30
0
 11
-2595.2
 21
204.231
 31
0
  0
LINE
  5
AFD
330
A02
100
AcDbEntity
  8
Shape2908
100
AcDbLine
 10
-2595.2
 20
204.231
 30
0
 11
-2239.6
 21
204.231
 31
0
  0
LINE
  5
AFE
330
A02
100
AcDbEntity
  8
Shape2909
100
AcDbLine
 10
-2239.6
 20
204.231
 30
0
 11
-2239.6
 21
-151.369
 31
0
  0
LINE
  5
AFF
330
A02
100
AcDbEntity
  8
Shape2910
100
AcDbLine
 10
-2239.6
 20
-151.369
 30
0
 11
-2595.2
 21
-151.369
 31
0
  0
LINE
  5
B00
330
A02
100
AcDbEntity
  8
Shape2911
100
AcDbLine
 10
-2111.33
 20
-151.369
 30
0
 11
-2111.33
 21
204.231
 31
0
  0
LINE
  5
B01
330
A02
100
AcDbEntity
  8
Shape2912
100
AcDbLine
 10
-2111.33
 20
204.231
 30
0
 11
-1755.73
 21
204.231
 31
0
  0
LINE
  5
B02
330
A02
100
AcDbEntity
  8
Shape2913
100
AcDbLine
 10
-1755.73
 20
204.231
 30
0
 11
-1755.73
 21
-151.369
 31
0
  0
LINE
  5
B03
330
A02
100
AcDbEntity
  8
Shape2914
100
AcDbLine
 10
-1755.73
 20
-151.369
 30
0
 11
-2111.33
 21
-151.369
 31
0
  0
LINE
  5
B04
330
A02
100
AcDbEntity
  8
Shape2915
100
AcDbLine
 10
-1143.59
 20
-151.369
 30
0
 11
-1143.59
 21
204.231
 31
0
  0
LINE
  5
B05
330
A02
100
AcDbEntity
  8
Shape2916
100
AcDbLine
 10
-1143.59
 20
204.231
 30
0
 11
-787.994
 21
204.231
 31
0
  0
LINE
  5
B06
330
A02
100
AcDbEntity
  8
Shape2917
100
AcDbLine
 10
-787.994
 20
204.231
 30
0
 11
-787.994
 21
-151.369
 31
0
  0
LINE
  5
B07
330
A02
100
AcDbEntity
  8
Shape2918
100
AcDbLine
 10
-787.994
 20
-151.369
 30
0
 11
-1143.59
 21
-151.369
 31
0
  0
LINE
  5
B08
330
A02
100
AcDbEntity
  8
Shape2919
100
AcDbLine
 10
-175.854
 20
-151.369
 30
0
 11
-175.854
 21
204.231
 31
0
  0
LINE
  5
B09
330
A02
100
AcDbEntity
  8
Shape2920
100
AcDbLine
 10
-175.854
 20
204.231
 30
0
 11
179.746
 21
204.231
 31
0
  0
LINE
  5
B0A
330
A02
100
AcDbEntity
  8
Shape2921
100
AcDbLine
 10
179.746
 20
204.231
 30
0
 11
179.746
 21
-151.369
 31
0
  0
LINE
  5
B0B
330
A02
100
AcDbEntity
  8
Shape2922
100
AcDbLine
 10
179.746
 20
-151.369
 30
0
 11
-175.854
 21
-151.369
 31
0
  0
LINE
  5
B0C
330
A02
100
AcDbEntity
  8
Shape2923
100
AcDbLine
 10
791.886
 20
-151.369
 30
0
 11
791.886
 21
204.231
 31
0
  0
LINE
  5
B0D
330
A02
100
AcDbEntity
  8
Shape2924
100
AcDbLine
 10
791.886
 20
204.231
 30
0
 11
1147.49
 21
204.231
 31
0
  0
LINE
  5
B0E
330
A02
100
AcDbEntity
  8
Shape2925
100
AcDbLine
 10
1147.49
 20
204.231
 30
0
 11
1147.49
 21
-151.369
 31
0
  0
LINE
  5
B0F
330
A02
100
AcDbEntity
  8
Shape2926
100
AcDbLine
 10
1147.49
 20
-151.369
 30
0
 11
791.886
 21
-151.369
 31
0
  0
LINE
  5
B10
330
A02
100
AcDbEntity
  8
Shape2927
100
AcDbLine
 10
1759.63
 20
-151.369
 30
0
 11
1759.63
 21
204.231
 31
0
  0
LINE
  5
B11
330
A02
100
AcDbEntity
  8
Shape2928
100
AcDbLine
 10
1759.63
 20
204.231
 30
0
 11
2115.23
 21
204.231
 31
0
  0
LINE
  5
B12
330
A02
100
AcDbEntity
  8
Shape2929
100
AcDbLine
 10
2115.23
 20
204.231
 30
0
 11
2115.23
 21
-151.369
 31
0
  0
LINE
  5
B13
330
A02
100
AcDbEntity
  8
Shape2930
100
AcDbLine
 10
2115.23
 20
-151.369
 30
0
 11
1759.63
 21
-151.369
 31
0
  0
LINE
  5
B14
330
A02
100
AcDbEntity
  8
Shape2931
100
AcDbLine
 10
-2595.2
 20
-635.239
 30
0
 11
-2595.2
 21
-279.639
 31
0
  0
LINE
  5
B15
330
A02
100
AcDbEntity
  8
Shape2932
100
AcDbLine
 10
-2595.2
 20
-279.639
 30
0
 11
-2239.6
 21
-279.639
 31
0
  0
LINE
  5
B16
330
A02
100
AcDbEntity
  8
Shape2933
100
AcDbLine
 10
-2239.6
 20
-279.639
 30
0
 11
-2239.6
 21
-635.239
 31
0
  0
LINE
  5
B17
330
A02
100
AcDbEntity
  8
Shape2934
100
AcDbLine
 10
-2239.6
 20
-635.239
 30
0
 11
-2595.2
 21
-635.239
 31
0
  0
LINE
  5
B18
330
A02
100
AcDbEntity
  8
Shape2935
100
AcDbLine
 10
-1271.86
 20
-635.239
 30
0
 11
-1627.46
 21
-635.239
 31
0
  0
LINE
  5
B19
330
A02
100
AcDbEntity
  8
Shape2936
100
AcDbLine
 10
-1627.46
 20
-635.239
 30
0
 11
-1627.46
 21
-279.639
 31
0
  0
LINE
  5
B1A
330
A02
100
AcDbEntity
  8
Shape2937
100
AcDbLine
 10
-1627.46
 20
-279.639
 30
0
 11
-1271.86
 21
-279.639
 31
0
  0
LINE
  5
B1B
330
A02
100
AcDbEntity
  8
Shape2938
100
AcDbLine
 10
-1271.86
 20
-279.639
 30
0
 11
-1271.86
 21
-635.239
 31
0
  0
LINE
  5
B1C
330
A02
100
AcDbEntity
  8
Shape2939
100
AcDbLine
 10
-787.994
 20
-635.239
 30
0
 11
-1143.59
 21
-635.239
 31
0
  0
LINE
  5
B1D
330
A02
100
AcDbEntity
  8
Shape2940
100
AcDbLine
 10
-1143.59
 20
-635.239
 30
0
 11
-1143.59
 21
-279.639
 31
0
  0
LINE
  5
B1E
330
A02
100
AcDbEntity
  8
Shape2941
100
AcDbLine
 10
-1143.59
 20
-279.639
 30
0
 11
-787.994
 21
-279.639
 31
0
  0
LINE
  5
B1F
330
A02
100
AcDbEntity
  8
Shape2942
100
AcDbLine
 10
-787.994
 20
-279.639
 30
0
 11
-787.994
 21
-635.239
 31
0
  0
LINE
  5
B20
330
A02
100
AcDbEntity
  8
Shape2943
100
AcDbLine
 10
-659.724
 20
-635.239
 30
0
 11
-659.724
 21
-279.639
 31
0
  0
LINE
  5
B21
330
A02
100
AcDbEntity
  8
Shape2944
100
AcDbLine
 10
-659.724
 20
-279.639
 30
0
 11
-304.124
 21
-279.639
 31
0
  0
LINE
  5
B22
330
A02
100
AcDbEntity
  8
Shape2945
100
AcDbLine
 10
-304.124
 20
-279.639
 30
0
 11
-304.124
 21
-635.239
 31
0
  0
LINE
  5
B23
330
A02
100
AcDbEntity
  8
Shape2946
100
AcDbLine
 10
-304.124
 20
-635.239
 30
0
 11
-659.724
 21
-635.239
 31
0
  0
LINE
  5
B24
330
A02
100
AcDbEntity
  8
Shape2947
100
AcDbLine
 10
1275.76
 20
-635.239
 30
0
 11
1275.76
 21
-279.639
 31
0
  0
LINE
  5
B25
330
A02
100
AcDbEntity
  8
Shape2948
100
AcDbLine
 10
1275.76
 20
-279.639
 30
0
 11
1631.36
 21
-279.639
 31
0
  0
LINE
  5
B26
330
A02
100
AcDbEntity
  8
Shape2949
100
AcDbLine
 10
1631.36
 20
-279.639
 30
0
 11
1631.36
 21
-635.239
 31
0
  0
LINE
  5
B27
330
A02
100
AcDbEntity
  8
Shape2950
100
AcDbLine
 10
1631.36
 20
-635.239
 30
0
 11
1275.76
 21
-635.239
 31
0
  0
LINE
  5
B28
330
A02
100
AcDbEntity
  8
Shape2951
100
AcDbLine
 10
791.886
 20
-635.239
 30
0
 11
791.886
 21
-279.639
 31
0
  0
LINE
  5
B29
330
A02
100
AcDbEntity
  8
Shape2952
100
AcDbLine
 10
791.886
 20
-279.639
 30
0
 11
1147.49
 21
-279.639
 31
0
  0
LINE
  5
B2A
330
A02
100
AcDbEntity
  8
Shape2953
100
AcDbLine
 10
1147.49
 20
-279.639
 30
0
 11
1147.49
 21
-635.239
 31
0
  0
LINE
  5
B2B
330
A02
100
AcDbEntity
  8
Shape2954
100
AcDbLine
 10
1147.49
 20
-635.239
 30
0
 11
791.886
 21
-635.239
 31
0
  0
LINE
  5
B2C
330
A02
100
AcDbEntity
  8
Shape2955
100
AcDbLine
 10
663.616
 20
-635.239
 30
0
 11
308.016
 21
-635.239
 31
0
  0
LINE
  5
B2D
330
A02
100
AcDbEntity
  8
Shape2956
100
AcDbLine
 10
308.016
 20
-635.239
 30
0
 11
308.016
 21
-279.639
 31
0
  0
LINE
  5
B2E
330
A02
100
AcDbEntity
  8
Shape2957
100
AcDbLine
 10
308.016
 20
-279.639
 30
0
 11
663.616
 21
-279.639
 31
0
  0
LINE
  5
B2F
330
A02
100
AcDbEntity
  8
Shape2958
100
AcDbLine
 10
663.616
 20
-279.639
 30
0
 11
663.616
 21
-635.239
 31
0
  0
CIRCLE
  5
B30
330
A02
100
AcDbEntity
  8
Shape2959
100
AcDbCircle
 10
2178.07
 20
510.3
 40
38.1
  0
CIRCLE
  5
B31
330
A02
100
AcDbEntity
  8
Shape2961
100
AcDbCircle
 10
1453.54
 20
-966.691
 40
27.94
  0
CIRCLE
  5
B32
330
A02
100
AcDbEntity
  8
Shape2962
100
AcDbCircle
 10
-1449.68
 20
-966.691
 40
27.94
  0
CIRCLE
  5
B33
330
A02
100
AcDbEntity
  8
Shape2963
100
AcDbCircle
 10
1937.41
 20
268.384
 40
27.94
  0
CIRCLE
  5
B34
330
A02
100
AcDbEntity
  8
Shape2964
100
AcDbCircle
 10
-1933.55
 20
268.384
 40
27.94
  0
ARC
  5
B35
330
A02
100
AcDbEntity
  8
Shape3001
100
AcDbCircle
 10
2179.36
 20
785.976
 30
0
 40
88.9
100
AcDbArc
 50
-153.652
 51
-26.3477
  0
LINE
  5
B36
330
A02
100
AcDbEntity
  8
Shape3002
100
AcDbLine
 10
2259.03
 20
746.521
 30
0
 11
2606.72
 21
746.521
 31
0
  0
ARC
  5
B37
330
A02
100
AcDbEntity
  8
Shape3003
100
AcDbCircle
 10
2606.72
 20
695.721
 30
0
 40
50.8
100
AcDbArc
 50
0
 51
90
  0
LINE
  5
B38
330
A02
100
AcDbEntity
  8
Shape3004
100
AcDbLine
 10
2657.52
 20
695.721
 30
0
 11
2657.52
 21
-137.189
 31
0
  0
ARC
  5
B39
330
A02
100
AcDbEntity
  8
Shape3005
100
AcDbCircle
 10
2699.59
 20
-215.504
 30
0
 40
88.9
100
AcDbArc
 50
118.244
 51
-118.244
  0
LINE
  5
B3A
330
A02
100
AcDbEntity
  8
Shape3006
100
AcDbLine
 10
2657.52
 20
-293.82
 30
0
 11
2657.52
 21
-642.859
 31
0
  0
ARC
  5
B3B
330
A02
100
AcDbEntity
  8
Shape3007
100
AcDbCircle
 10
2606.72
 20
-642.859
 30
0
 40
50.8
100
AcDbArc
 50
-90
 51
0
  0
LINE
  5
B3C
330
A02
100
AcDbEntity
  8
Shape3008
100
AcDbLine
 10
2606.72
 20
-693.659
 30
0
 11
1982.51
 21
-693.659
 31
0
  0
ARC
  5
B3D
330
A02
100
AcDbEntity
  8
Shape3009
100
AcDbCircle
 10
1982.51
 20
-744.459
 30
0
 40
50.8
100
AcDbArc
 50
90
 51
180
  0
LINE
  5
B3E
330
A02
100
AcDbEntity
  8
Shape3010
100
AcDbLine
 10
1931.71
 20
-744.459
 30
0
 11
1931.71
 21
-1126.73
 31
0
  0
ARC
  5
B3F
330
A02
100
AcDbEntity
  8
Shape3011
100
AcDbCircle
 10
1880.91
 20
-1126.73
 30
0
 40
50.8
100
AcDbArc
 50
-90
 51
0
  0
LINE
  5
B40
330
A02
100
AcDbEntity
  8
Shape3012
100
AcDbLine
 10
1880.91
 20
-1177.53
 30
0
 11
1533.22
 21
-1177.53
 31
0
  0
ARC
  5
B41
330
A02
100
AcDbEntity
  8
Shape3013
100
AcDbCircle
 10
1453.56
 20
-1216.98
 30
0
 40
88.9
100
AcDbArc
 50
26.3477
 51
153.652
  0
LINE
  5
B42
330
A02
100
AcDbEntity
  8
Shape3014
100
AcDbLine
 10
1373.89
 20
-1177.53
 30
0
 11
-1370
 21
-1177.53
 31
0
  0
ARC
  5
B43
330
A02
100
AcDbEntity
  8
Shape3015
100
AcDbCircle
 10
-1449.66
 20
-1216.98
 30
0
 40
88.9
100
AcDbArc
 50
26.3477
 51
153.652
  0
LINE
  5
B44
330
A02
100
AcDbEntity
  8
Shape3016
100
AcDbLine
 10
-1529.33
 20
-1177.53
 30
0
 11
-1877.02
 21
-1177.53
 31
0
  0
ARC
  5
B45
330
A02
100
AcDbEntity
  8
Shape3017
100
AcDbCircle
 10
-1877.02
 20
-1126.73
 30
0
 40
50.8
100
AcDbArc
 50
180
 51
-90
  0
LINE
  5
B46
330
A02
100
AcDbEntity
  8
Shape3018
100
AcDbLine
 10
-1927.82
 20
-1126.73
 30
0
 11
-1927.82
 21
-744.459
 31
0
  0
ARC
  5
B47
330
A02
100
AcDbEntity
  8
Shape3019
100
AcDbCircle
 10
-1978.62
 20
-744.459
 30
0
 40
50.8
100
AcDbArc
 50
0
 51
90
  0
LINE
  5
B48
330
A02
100
AcDbEntity
  8
Shape3020
100
AcDbLine
 10
-1978.62
 20
-693.659
 30
0
 11
-2602.82
 21
-693.659
 31
0
  0
ARC
  5
B49
330
A02
100
AcDbEntity
  8
Shape3021
100
AcDbCircle
 10
-2602.82
 20
-642.859
 30
0
 40
50.8
100
AcDbArc
 50
180
 51
-90
  0
LINE
  5
B4A
330
A02
100
AcDbEntity
  8
Shape3022
100
AcDbLine
 10
-2653.62
 20
-642.859
 30
0
 11
-2653.62
 21
-293.82
 31
0
  0
ARC
  5
B4B
330
A02
100
AcDbEntity
  8
Shape3023
100
AcDbCircle
 10
-2695.69
 20
-215.504
 30
0
 40
88.9
100
AcDbArc
 50
-61.7563
 51
61.7563
  0
LINE
  5
B4C
330
A02
100
AcDbEntity
  8
Shape3024
100
AcDbLine
 10
-2653.62
 20
-137.189
 30
0
 11
-2653.62
 21
695.721
 31
0
  0
ARC
  5
B4D
330
A02
100
AcDbEntity
  8
Shape3025
100
AcDbCircle
 10
-2602.82
 20
695.721
 30
0
 40
50.8
100
AcDbArc
 50
90
 51
180
  0
LINE
  5
B4E
330
A02
100
AcDbEntity
  8
Shape3026
100
AcDbLine
 10
-2602.82
 20
746.521
 30
0
 11
-2255.13
 21
746.521
 31
0
  0
ARC
  5
B4F
330
A02
100
AcDbEntity
  8
Shape3027
100
AcDbCircle
 10
-2175.47
 20
785.976
 30
0
 40
88.9
100
AcDbArc
 50
-153.652
 51
-26.3477
  0
LINE
  5
B50
330
A02
100
AcDbEntity
  8
Shape3028
100
AcDbLine
 10
-2095.8
 20
746.521
 30
0
 11
-803.524
 21
746.521
 31
0
  0
ARC
  5
B51
330
A02
100
AcDbEntity
  8
Shape3029
100
AcDbCircle
 10
-723.859
 20
785.976
 30
0
 40
88.9
100
AcDbArc
 50
-153.652
 51
-26.3477
  0
LINE
  5
B52
330
A02
100
AcDbEntity
  8
Shape3030
100
AcDbLine
 10
-644.194
 20
746.521
 30
0
 11
648.086
 21
746.521
 31
0
  0
ARC
  5
B53
330
A02
100
AcDbEntity
  8
Shape3031
100
AcDbCircle
 10
727.751
 20
785.976
 30
0
 40
88.9
100
AcDbArc
 50
-153.652
 51
-26.3477
  0
LINE
  5
B54
330
A02
100
AcDbEntity
  8
Shape3032
100
AcDbLine
 10
807.416
 20
746.521
 30
0
 11
2099.7
 21
746.521
 31
0
  0
LINE
  5
B55
330
A02
100
AcDbEntity
  8
Shape3033
100
AcDbLine
 10
-901.659
 20
-763.509
 30
0
 11
905.551
 21
-763.509
 31
0
  0
LINE
  5
B56
330
A02
100
AcDbEntity
  8
Shape3034
100
AcDbLine
 10
905.551
 20
-763.509
 30
0
 11
905.551
 21
-1119.11
 31
0
  0
LINE
  5
B57
330
A02
100
AcDbEntity
  8
Shape3035
100
AcDbLine
 10
905.551
 20
-1119.11
 30
0
 11
-901.659
 21
-1119.11
 31
0
  0
LINE
  5
B58
330
A02
100
AcDbEntity
  8
Shape3036
100
AcDbLine
 10
-901.659
 20
-1119.11
 30
0
 11
-901.659
 21
-763.509
 31
0
  0
ENDSEC
  0
SECTION
  2
OBJECTS
  0
DICTIONARY
  5
F000
330
0
100
AcDbDictionary
  3
ACAD_GROUP
350
F001
  0
DICTIONARY
  5
F001
330
F000
100
AcDbDictionary
  0
ENDSEC
  0
EOF