999
FreeCAD v0.21 33771 (Git)
  0
SECTION
  2
HEADER
  9
$ACADVER
  1
AC1014
  9
$ACADMAINTVER
 70
     9
  9
$DWGCODEPAGE
  3
ANSI_1252
  9
$TEXTSTYLE
  7
STANDARD
  9
$DIMSTYLE
  2
STANDARD
  9
$DIMTXSTY
  7
STANDARD
  9
$CMLSTYLE
  2
STANDARD
  9
$LUNITS
 70
2
  9
$INSUNITS
 70
4
  9
$PEXTMAX
 10
50
 20
50
 30
50
  9
$PEXTMIN
 10
0
 20
0
 30
0
  9
$HANDSEED
  5
FFFF
  0
ENDSEC
  0
SECTION
  2
CLASSES
  0
CLASS
  1
ACDBDICTIONARYWDFLT
  2
AcDbDictionaryWithDefault
  3
ObjectDBX Classes
 90
        0
280
     0
281
     0
  0
CLASS
  1
XRECORD
  2
AcDbXrecord
  3
ObjectDBX Classes
 90
        0
280
     0
281
     0
  0
CLASS
  1
LWPOLYLINE
  2
AcDbPolyline
  3
ObjectDBX Classes
 90
        0
280
     0
281
     1
  0
ENDSEC
  0
SECTION
  2
TABLES
  0
TABLE
  2
VPORT
  5
20
330
0
100
AcDbSymbolTable
 70
     1
  0
VPORT
  5
21
330
20
100
AcDbSymbolTableRecord
100
AcDbViewportTableRecord
  2
*ACTIVE
 70
     0
  0
ENDTAB
  0
TABLE
  2
LTYPE
  5
22
330
0
100
AcDbSymbolTable
 70
     1
  0
LTYPE
  5
23
330
21
100
AcDbSymbolTableRecord
100
AcDbLinetypeTableRecord
  2
BYBLOCK
 70
     0
  3

 72
    65
 73
     0
 40
0.0
  0
LTYPE
  5
24
330
21
100
AcDbSymbolTableRecord
100
AcDbLinetypeTableRecord
  2
BYLAYER
 70
     0
  3

 72
    65
 73
     0
 40
0.0
  0
LTYPE
  5
25
330
21
100
AcDbSymbolTableRecord
100
AcDbLinetypeTableRecord
  2
CONTINUOUS
 70
     0
  3
Solid line
 72
    65
 73
     0
 40
0.0
  0
ENDTAB
  0
TABLE
  2
LAYER
  5
B09
330
0
100
AcDbSymbolTable
 70
259
  0
LAYER
  5
B0A
330
B09
100
AcDbSymbolTableRecord
100
AcDbLayerTableRecord
  2
0
 70
   0
 62
   7
  6
CONTINUOUS
  0
LAYER
  5
B0B
330
B09
100
AcDbSymbolTableRecord
100
AcDbLayerTableRecord
  2
none
 70
    0
 62
    7
  6
CONTINUOUS
  0
LAYER
  5
B0C
330
B09
100
AcDbSymbolTableRecord
100
AcDbLayerTableRecord
  2
Shape420
 70
    0
 62
    7
  6
CONTINUOUS
  0
LAYER
  5
B0D
330
B09
100
AcDbSymbolTableRecord
100
AcDbLayerTableRecord
  2
Shape421
 70
    0
 62
    7
  6
CONTINUOUS
  0
LAYER
  5
B0E
330
B09
100
AcDbSymbolTableRecord
100
AcDbLayerTableRecord
  2
Shape422
 70
    0
 62
    7
  6
CONTINUOUS
  0
LAYER
  5
B0F
330
B09
100
AcDbSymbolTableRecord
100
AcDbLayerTableRecord
  2
Shape423
 70
    0
 62
    7
  6
CONTINUOUS
  0
LAYER
  5
B10
330
B09
100
AcDbSymbolTableRecord
100
AcDbLayerTableRecord
  2
Shape424
 70
    0
 62
    7
  6
CONTINUOUS
  0
LAYER
  5
B11
330
B09
100
AcDbSymbolTableRecord
100
AcDbLayerTableRecord
  2
Shape425
 70
    0
 62
    7
  6
CONTINUOUS
  0
LAYER
  5
B12
330
B09
100
AcDbSymbolTableRecord
100
AcDbLayerTableRecord
  2
Shape426
 70
    0
 62
    7
  6
CONTINUOUS
  0
LAYER
  5
B13
330
B09
100
AcDbSymbolTableRecord
100
AcDbLayerTableRecord
  2
Shape427
 70
    0
 62
    7
  6
CONTINUOUS
  0
LAYER
  5
B14
330
B09
100
AcDbSymbolTableRecord
100
AcDbLayerTableRecord
  2
Shape428
 70
    0
 62
    7
  6
CONTINUOUS
  0
LAYER
  5
B15
330
B09
100
AcDbSymbolTableRecord
100
AcDbLayerTableRecord
  2
Shape429
 70
    0
 62
    7
  6
CONTINUOUS
  0
LAYER
  5
B16
330
B09
100
AcDbSymbolTableRecord
100
AcDbLayerTableRecord
  2
Shape430
 70
    0
 62
    7
  6
CONTINUOUS
  0
LAYER
  5
B17
330
B09
100
AcDbSymbolTableRecord
100
AcDbLayerTableRecord
  2
Shape431
 70
    0
 62
    7
  6
CONTINUOUS
  0
LAYER
  5
B18
330
B09
100
AcDbSymbolTableRecord
100
AcDbLayerTableRecord
  2
Shape432
 70
    0
 62
    7
  6
CONTINUOUS
  0
LAYER
  5
B19
330
B09
100
AcDbSymbolTableRecord
100
AcDbLayerTableRecord
  2
Shape433
 70
    0
 62
    7
  6
CONTINUOUS
  0
LAYER
  5
B1A
330
B09
100
AcDbSymbolTableRecord
100
AcDbLayerTableRecord
  2
Shape434
 70
    0
 62
    7
  6
CONTINUOUS
  0
LAYER
  5
B1B
330
B09
100
AcDbSymbolTableRecord
100
AcDbLayerTableRecord
  2
Shape435
 70
    0
 62
    7
  6
CONTINUOUS
  0
LAYER
  5
B1C
330
B09
100
AcDbSymbolTableRecord
100
AcDbLayerTableRecord
  2
Shape436
 70
    0
 62
    7
  6
CONTINUOUS
  0
LAYER
  5
B1D
330
B09
100
AcDbSymbolTableRecord
100
AcDbLayerTableRecord
  2
Shape437
 70
    0
 62
    7
  6
CONTINUOUS
  0
LAYER
  5
B1E
330
B09
100
AcDbSymbolTableRecord
100
AcDbLayerTableRecord
  2
Shape438
 70
    0
 62
    7
  6
CONTINUOUS
  0
LAYER
  5
B1F
330
B09
100
AcDbSymbolTableRecord
100
AcDbLayerTableRecord
  2
Shape439
 70
    0
 62
    7
  6
CONTINUOUS
  0
LAYER
  5
B20
330
B09
100
AcDbSymbolTableRecord
100
AcDbLayerTableRecord
  2
Shape440
 70
    0
 62
    7
  6
CONTINUOUS
  0
LAYER
  5
B21
330
B09
100
AcDbSymbolTableRecord
100
AcDbLayerTableRecord
  2
Shape441
 70
    0
 62
    7
  6
CONTINUOUS
  0
LAYER
  5
B22
330
B09
100
AcDbSymbolTableRecord
100
AcDbLayerTableRecord
  2
Shape442
 70
    0
 62
    7
  6
CONTINUOUS
  0
LAYER
  5
B23
330
B09
100
AcDbSymbolTableRecord
100
AcDbLayerTableRecord
  2
Shape443
 70
    0
 62
    7
  6
CONTINUOUS
  0
LAYER
  5
B24
330
B09
100
AcDbSymbolTableRecord
100
AcDbLayerTableRecord
  2
Shape444
 70
    0
 62
    7
  6
CONTINUOUS
  0
LAYER
  5
B25
330
B09
100
AcDbSymbolTableRecord
100
AcDbLayerTableRecord
  2
Shape445
 70
    0
 62
    7
  6
CONTINUOUS
  0
LAYER
  5
B26
330
B09
100
AcDbSymbolTableRecord
100
AcDbLayerTableRecord
  2
Shape446
 70
    0
 62
    7
  6
CONTINUOUS
  0
LAYER
  5
B27
330
B09
100
AcDbSymbolTableRecord
100
AcDbLayerTableRecord
  2
Shape447
 70
    0
 62
    7
  6
CONTINUOUS
  0
LAYER
  5
B28
330
B09
100
AcDbSymbolTableRecord
100
AcDbLayerTableRecord
  2
Shape448
 70
    0
 62
    7
  6
CONTINUOUS
  0
LAYER
  5
B29
330
B09
100
AcDbSymbolTableRecord
100
AcDbLayerTableRecord
  2
Shape449
 70
    0
 62
    7
  6
CONTINUOUS
  0
LAYER
  5
B2A
330
B09
100
AcDbSymbolTableRecord
100
AcDbLayerTableRecord
  2
Shape450
 70
    0
 62
    7
  6
CONTINUOUS
  0
LAYER
  5
B2B
330
B09
100
AcDbSymbolTableRecord
100
AcDbLayerTableRecord
  2
Shape451
 70
    0
 62
    7
  6
CONTINUOUS
  0
LAYER
  5
B2C
330
B09
100
AcDbSymbolTableRecord
100
AcDbLayerTableRecord
  2
Shape452
 70
    0
 62
    7
  6
CONTINUOUS
  0
LAYER
  5
B2D
330
B09
100
AcDbSymbolTableRecord
100
AcDbLayerTableRecord
  2
Shape453
 70
    0
 62
    7
  6
CONTINUOUS
  0
LAYER
  5
B2E
330
B09
100
AcDbSymbolTableRecord
100
AcDbLayerTableRecord
  2
Shape454
 70
    0
 62
    7
  6
CONTINUOUS
  0
LAYER
  5
B2F
330
B09
100
AcDbSymbolTableRecord
100
AcDbLayerTableRecord
  2
Shape455
 70
    0
 62
    7
  6
CONTINUOUS
  0
LAYER
  5
B30
330
B09
100
AcDbSymbolTableRecord
100
AcDbLayerTableRecord
  2
Shape456
 70
    0
 62
    7
  6
CONTINUOUS
  0
LAYER
  5
B31
330
B09
100
AcDbSymbolTableRecord
100
AcDbLayerTableRecord
  2
Shape457
 70
    0
 62
    7
  6
CONTINUOUS
  0
LAYER
  5
B32
330
B09
100
AcDbSymbolTableRecord
100
AcDbLayerTableRecord
  2
Shape458
 70
    0
 62
    7
  6
CONTINUOUS
  0
LAYER
  5
B33
330
B09
100
AcDbSymbolTableRecord
100
AcDbLayerTableRecord
  2
Shape459
 70
    0
 62
    7
  6
CONTINUOUS
  0
LAYER
  5
B34
330
B09
100
AcDbSymbolTableRecord
100
AcDbLayerTableRecord
  2
Shape460
 70
    0
 62
    7
  6
CONTINUOUS
  0
LAYER
  5
B35
330
B09
100
AcDbSymbolTableRecord
100
AcDbLayerTableRecord
  2
Shape461
 70
    0
 62
    7
  6
CONTINUOUS
  0
LAYER
  5
B36
330
B09
100
AcDbSymbolTableRecord
100
AcDbLayerTableRecord
  2
Shape462
 70
    0
 62
    7
  6
CONTINUOUS
  0
LAYER
  5
B37
330
B09
100
AcDbSymbolTableRecord
100
AcDbLayerTableRecord
  2
Shape463
 70
    0
 62
    7
  6
CONTINUOUS
  0
LAYER
  5
B38
330
B09
100
AcDbSymbolTableRecord
100
AcDbLayerTableRecord
  2
Shape464
 70
    0
 62
    7
  6
CONTINUOUS
  0
LAYER
  5
B39
330
B09
100
AcDbSymbolTableRecord
100
AcDbLayerTableRecord
  2
Shape465
 70
    0
 62
    7
  6
CONTINUOUS
  0
LAYER
  5
B3A
330
B09
100
AcDbSymbolTableRecord
100
AcDbLayerTableRecord
  2
Shape466
 70
    0
 62
    7
  6
CONTINUOUS
  0
LAYER
  5
B3B
330
B09
100
AcDbSymbolTableRecord
100
AcDbLayerTableRecord
  2
Shape467
 70
    0
 62
    7
  6
CONTINUOUS
  0
LAYER
  5
B3C
330
B09
100
AcDbSymbolTableRecord
100
AcDbLayerTableRecord
  2
Shape468
 70
    0
 62
    7
  6
CONTINUOUS
  0
LAYER
  5
B3D
330
B09
100
AcDbSymbolTableRecord
100
AcDbLayerTableRecord
  2
Shape469
 70
    0
 62
    7
  6
CONTINUOUS
  0
LAYER
  5
B3E
330
B09
100
AcDbSymbolTableRecord
100
AcDbLayerTableRecord
  2
Shape470
 70
    0
 62
    7
  6
CONTINUOUS
  0
LAYER
  5
B3F
330
B09
100
AcDbSymbolTableRecord
100
AcDbLayerTableRecord
  2
Shape471
 70
    0
 62
    7
  6
CONTINUOUS
  0
LAYER
  5
B40
330
B09
100
AcDbSymbolTableRecord
100
AcDbLayerTableRecord
  2
Shape472
 70
    0
 62
    7
  6
CONTINUOUS
  0
LAYER
  5
B41
330
B09
100
AcDbSymbolTableRecord
100
AcDbLayerTableRecord
  2
Shape473
 70
    0
 62
    7
  6
CONTINUOUS
  0
LAYER
  5
B42
330
B09
100
AcDbSymbolTableRecord
100
AcDbLayerTableRecord
  2
Shape474
 70
    0
 62
    7
  6
CONTINUOUS
  0
LAYER
  5
B43
330
B09
100
AcDbSymbolTableRecord
100
AcDbLayerTableRecord
  2
Shape475
 70
    0
 62
    7
  6
CONTINUOUS
  0
LAYER
  5
B44
330
B09
100
AcDbSymbolTableRecord
100
AcDbLayerTableRecord
  2
Shape476
 70
    0
 62
    7
  6
CONTINUOUS
  0
LAYER
  5
B45
330
B09
100
AcDbSymbolTableRecord
100
AcDbLayerTableRecord
  2
Shape477
 70
    0
 62
    7
  6
CONTINUOUS
  0
LAYER
  5
B46
330
B09
100
AcDbSymbolTableRecord
100
AcDbLayerTableRecord
  2
Shape478
 70
    0
 62
    7
  6
CONTINUOUS
  0
LAYER
  5
B47
330
B09
100
AcDbSymbolTableRecord
100
AcDbLayerTableRecord
  2
Shape479
 70
    0
 62
    7
  6
CONTINUOUS
  0
LAYER
  5
B48
330
B09
100
AcDbSymbolTableRecord
100
AcDbLayerTableRecord
  2
Shape480
 70
    0
 62
    7
  6
CONTINUOUS
  0
LAYER
  5
B49
330
B09
100
AcDbSymbolTableRecord
100
AcDbLayerTableRecord
  2
Shape481
 70
    0
 62
    7
  6
CONTINUOUS
  0
LAYER
  5
B4A
330
B09
100
AcDbSymbolTableRecord
100
AcDbLayerTableRecord
  2
Shape482
 70
    0
 62
    7
  6
CONTINUOUS
  0
LAYER
  5
B4B
330
B09
100
AcDbSymbolTableRecord
100
AcDbLayerTableRecord
  2
Shape483
 70
    0
 62
    7
  6
CONTINUOUS
  0
LAYER
  5
B4C
330
B09
100
AcDbSymbolTableRecord
100
AcDbLayerTableRecord
  2
Shape484
 70
    0
 62
    7
  6
CONTINUOUS
  0
LAYER
  5
B4D
330
B09
100
AcDbSymbolTableRecord
100
AcDbLayerTableRecord
  2
Shape485
 70
    0
 62
    7
  6
CONTINUOUS
  0
LAYER
  5
B4E
330
B09
100
AcDbSymbolTableRecord
100
AcDbLayerTableRecord
  2
Shape486
 70
    0
 62
    7
  6
CONTINUOUS
  0
LAYER
  5
B4F
330
B09
100
AcDbSymbolTableRecord
100
AcDbLayerTableRecord
  2
Shape487
 70
    0
 62
    7
  6
CONTINUOUS
  0
LAYER
  5
B50
330
B09
100
AcDbSymbolTableRecord
100
AcDbLayerTableRecord
  2
Shape488
 70
    0
 62
    7
  6
CONTINUOUS
  0
LAYER
  5
B51
330
B09
100
AcDbSymbolTableRecord
100
AcDbLayerTableRecord
  2
Shape489
 70
    0
 62
    7
  6
CONTINUOUS
  0
LAYER
  5
B52
330
B09
100
AcDbSymbolTableRecord
100
AcDbLayerTableRecord
  2
Shape490
 70
    0
 62
    7
  6
CONTINUOUS
  0
LAYER
  5
B53
330
B09
100
AcDbSymbolTableRecord
100
AcDbLayerTableRecord
  2
Shape491
 70
    0
 62
    7
  6
CONTINUOUS
  0
LAYER
  5
B54
330
B09
100
AcDbSymbolTableRecord
100
AcDbLayerTableRecord
  2
Shape492
 70
    0
 62
    7
  6
CONTINUOUS
  0
LAYER
  5
B55
330
B09
100
AcDbSymbolTableRecord
100
AcDbLayerTableRecord
  2
Shape493
 70
    0
 62
    7
  6
CONTINUOUS
  0
LAYER
  5
B56
330
B09
100
AcDbSymbolTableRecord
100
AcDbLayerTableRecord
  2
Shape494
 70
    0
 62
    7
  6
CONTINUOUS
  0
LAYER
  5
B57
330
B09
100
AcDbSymbolTableRecord
100
AcDbLayerTableRecord
  2
Shape495
 70
    0
 62
    7
  6
CONTINUOUS
  0
LAYER
  5
B58
330
B09
100
AcDbSymbolTableRecord
100
AcDbLayerTableRecord
  2
Shape496
 70
    0
 62
    7
  6
CONTINUOUS
  0
LAYER
  5
B59
330
B09
100
AcDbSymbolTableRecord
100
AcDbLayerTableRecord
  2
Shape497
 70
    0
 62
    7
  6
CONTINUOUS
  0
LAYER
  5
B5A
330
B09
100
AcDbSymbolTableRecord
100
AcDbLayerTableRecord
  2
Shape498
 70
    0
 62
    7
  6
CONTINUOUS
  0
LAYER
  5
B5B
330
B09
100
AcDbSymbolTableRecord
100
AcDbLayerTableRecord
  2
Shape499
 70
    0
 62
    7
  6
CONTINUOUS
  0
LAYER
  5
B5C
330
B09
100
AcDbSymbolTableRecord
100
AcDbLayerTableRecord
  2
Shape500
 70
    0
 62
    7
  6
CONTINUOUS
  0
LAYER
  5
B5D
330
B09
100
AcDbSymbolTableRecord
100
AcDbLayerTableRecord
  2
Shape501
 70
    0
 62
    7
  6
CONTINUOUS
  0
LAYER
  5
B5E
330
B09
100
AcDbSymbolTableRecord
100
AcDbLayerTableRecord
  2
Shape502
 70
    0
 62
    7
  6
CONTINUOUS
  0
LAYER
  5
B5F
330
B09
100
AcDbSymbolTableRecord
100
AcDbLayerTableRecord
  2
Shape503
 70
    0
 62
    7
  6
CONTINUOUS
  0
LAYER
  5
B60
330
B09
100
AcDbSymbolTableRecord
100
AcDbLayerTableRecord
  2
Shape504
 70
    0
 62
    7
  6
CONTINUOUS
  0
LAYER
  5
B61
330
B09
100
AcDbSymbolTableRecord
100
AcDbLayerTableRecord
  2
Shape505
 70
    0
 62
    7
  6
CONTINUOUS
  0
LAYER
  5
B62
330
B09
100
AcDbSymbolTableRecord
100
AcDbLayerTableRecord
  2
Shape506
 70
    0
 62
    7
  6
CONTINUOUS
  0
LAYER
  5
B63
330
B09
100
AcDbSymbolTableRecord
100
AcDbLayerTableRecord
  2
Shape507
 70
    0
 62
    7
  6
CONTINUOUS
  0
LAYER
  5
B64
330
B09
100
AcDbSymbolTableRecord
100
AcDbLayerTableRecord
  2
Shape508
 70
    0
 62
    7
  6
CONTINUOUS
  0
LAYER
  5
B65
330
B09
100
AcDbSymbolTableRecord
100
AcDbLayerTableRecord
  2
Shape509
 70
    0
 62
    7
  6
CONTINUOUS
  0
LAYER
  5
B66
330
B09
100
AcDbSymbolTableRecord
100
AcDbLayerTableRecord
  2
Shape510
 70
    0
 62
    7
  6
CONTINUOUS
  0
LAYER
  5
B67
330
B09
100
AcDbSymbolTableRecord
100
AcDbLayerTableRecord
  2
Shape511
 70
    0
 62
    7
  6
CONTINUOUS
  0
LAYER
  5
B68
330
B09
100
AcDbSymbolTableRecord
100
AcDbLayerTableRecord
  2
Shape512
 70
    0
 62
    7
  6
CONTINUOUS
  0
LAYER
  5
B69
330
B09
100
AcDbSymbolTableRecord
100
AcDbLayerTableRecord
  2
Shape513
 70
    0
 62
    7
  6
CONTINUOUS
  0
LAYER
  5
B6A
330
B09
100
AcDbSymbolTableRecord
100
AcDbLayerTableRecord
  2
Shape514
 70
    0
 62
    7
  6
CONTINUOUS
  0
LAYER
  5
B6B
330
B09
100
AcDbSymbolTableRecord
100
AcDbLayerTableRecord
  2
Shape515
 70
    0
 62
    7
  6
CONTINUOUS
  0
LAYER
  5
B6C
330
B09
100
AcDbSymbolTableRecord
100
AcDbLayerTableRecord
  2
Shape516
 70
    0
 62
    7
  6
CONTINUOUS
  0
LAYER
  5
B6D
330
B09
100
AcDbSymbolTableRecord
100
AcDbLayerTableRecord
  2
Shape517
 70
    0
 62
    7
  6
CONTINUOUS
  0
LAYER
  5
B6E
330
B09
100
AcDbSymbolTableRecord
100
AcDbLayerTableRecord
  2
Shape518
 70
    0
 62
    7
  6
CONTINUOUS
  0
LAYER
  5
B6F
330
B09
100
AcDbSymbolTableRecord
100
AcDbLayerTableRecord
  2
Shape519
 70
    0
 62
    7
  6
CONTINUOUS
  0
LAYER
  5
B70
330
B09
100
AcDbSymbolTableRecord
100
AcDbLayerTableRecord
  2
Shape520
 70
    0
 62
    7
  6
CONTINUOUS
  0
LAYER
  5
B71
330
B09
100
AcDbSymbolTableRecord
100
AcDbLayerTableRecord
  2
Shape521
 70
    0
 62
    7
  6
CONTINUOUS
  0
LAYER
  5
B72
330
B09
100
AcDbSymbolTableRecord
100
AcDbLayerTableRecord
  2
Shape522
 70
    0
 62
    7
  6
CONTINUOUS
  0
LAYER
  5
B73
330
B09
100
AcDbSymbolTableRecord
100
AcDbLayerTableRecord
  2
Shape523
 70
    0
 62
    7
  6
CONTINUOUS
  0
LAYER
  5
B74
330
B09
100
AcDbSymbolTableRecord
100
AcDbLayerTableRecord
  2
Shape524
 70
    0
 62
    7
  6
CONTINUOUS
  0
LAYER
  5
B75
330
B09
100
AcDbSymbolTableRecord
100
AcDbLayerTableRecord
  2
Shape525
 70
    0
 62
    7
  6
CONTINUOUS
  0
LAYER
  5
B76
330
B09
100
AcDbSymbolTableRecord
100
AcDbLayerTableRecord
  2
Shape526
 70
    0
 62
    7
  6
CONTINUOUS
  0
LAYER
  5
B77
330
B09
100
AcDbSymbolTableRecord
100
AcDbLayerTableRecord
  2
Shape527
 70
    0
 62
    7
  6
CONTINUOUS
  0
LAYER
  5
B78
330
B09
100
AcDbSymbolTableRecord
100
AcDbLayerTableRecord
  2
Shape528
 70
    0
 62
    7
  6
CONTINUOUS
  0
LAYER
  5
B79
330
B09
100
AcDbSymbolTableRecord
100
AcDbLayerTableRecord
  2
Shape529
 70
    0
 62
    7
  6
CONTINUOUS
  0
LAYER
  5
B7A
330
B09
100
AcDbSymbolTableRecord
100
AcDbLayerTableRecord
  2
Shape530
 70
    0
 62
    7
  6
CONTINUOUS
  0
LAYER
  5
B7B
330
B09
100
AcDbSymbolTableRecord
100
AcDbLayerTableRecord
  2
Shape531
 70
    0
 62
    7
  6
CONTINUOUS
  0
LAYER
  5
B7C
330
B09
100
AcDbSymbolTableRecord
100
AcDbLayerTableRecord
  2
Shape532
 70
    0
 62
    7
  6
CONTINUOUS
  0
LAYER
  5
B7D
330
B09
100
AcDbSymbolTableRecord
100
AcDbLayerTableRecord
  2
Shape533
 70
    0
 62
    7
  6
CONTINUOUS
  0
LAYER
  5
B7E
330
B09
100
AcDbSymbolTableRecord
100
AcDbLayerTableRecord
  2
Shape534
 70
    0
 62
    7
  6
CONTINUOUS
  0
LAYER
  5
B7F
330
B09
100
AcDbSymbolTableRecord
100
AcDbLayerTableRecord
  2
Shape535
 70
    0
 62
    7
  6
CONTINUOUS
  0
LAYER
  5
B80
330
B09
100
AcDbSymbolTableRecord
100
AcDbLayerTableRecord
  2
Shape536
 70
    0
 62
    7
  6
CONTINUOUS
  0
LAYER
  5
B81
330
B09
100
AcDbSymbolTableRecord
100
AcDbLayerTableRecord
  2
Shape537
 70
    0
 62
    7
  6
CONTINUOUS
  0
LAYER
  5
B82
330
B09
100
AcDbSymbolTableRecord
100
AcDbLayerTableRecord
  2
Shape538
 70
    0
 62
    7
  6
CONTINUOUS
  0
LAYER
  5
B83
330
B09
100
AcDbSymbolTableRecord
100
AcDbLayerTableRecord
  2
Shape539
 70
    0
 62
    7
  6
CONTINUOUS
  0
LAYER
  5
B84
330
B09
100
AcDbSymbolTableRecord
100
AcDbLayerTableRecord
  2
Shape540
 70
    0
 62
    7
  6
CONTINUOUS
  0
LAYER
  5
B85
330
B09
100
AcDbSymbolTableRecord
100
AcDbLayerTableRecord
  2
Shape541
 70
    0
 62
    7
  6
CONTINUOUS
  0
LAYER
  5
B86
330
B09
100
AcDbSymbolTableRecord
100
AcDbLayerTableRecord
  2
Shape542
 70
    0
 62
    7
  6
CONTINUOUS
  0
LAYER
  5
B87
330
B09
100
AcDbSymbolTableRecord
100
AcDbLayerTableRecord
  2
Shape543
 70
    0
 62
    7
  6
CONTINUOUS
  0
LAYER
  5
B88
330
B09
100
AcDbSymbolTableRecord
100
AcDbLayerTableRecord
  2
Shape544
 70
    0
 62
    7
  6
CONTINUOUS
  0
LAYER
  5
B89
330
B09
100
AcDbSymbolTableRecord
100
AcDbLayerTableRecord
  2
Shape545
 70
    0
 62
    7
  6
CONTINUOUS
  0
LAYER
  5
B8A
330
B09
100
AcDbSymbolTableRecord
100
AcDbLayerTableRecord
  2
Shape546
 70
    0
 62
    7
  6
CONTINUOUS
  0
LAYER
  5
B8B
330
B09
100
AcDbSymbolTableRecord
100
AcDbLayerTableRecord
  2
Shape547
 70
    0
 62
    7
  6
CONTINUOUS
  0
LAYER
  5
B8C
330
B09
100
AcDbSymbolTableRecord
100
AcDbLayerTableRecord
  2
Shape548
 70
    0
 62
    7
  6
CONTINUOUS
  0
LAYER
  5
B8D
330
B09
100
AcDbSymbolTableRecord
100
AcDbLayerTableRecord
  2
Shape549
 70
    0
 62
    7
  6
CONTINUOUS
  0
LAYER
  5
B8E
330
B09
100
AcDbSymbolTableRecord
100
AcDbLayerTableRecord
  2
Shape550
 70
    0
 62
    7
  6
CONTINUOUS
  0
LAYER
  5
B8F
330
B09
100
AcDbSymbolTableRecord
100
AcDbLayerTableRecord
  2
Shape551
 70
    0
 62
    7
  6
CONTINUOUS
  0
LAYER
  5
B90
330
B09
100
AcDbSymbolTableRecord
100
AcDbLayerTableRecord
  2
Shape552
 70
    0
 62
    7
  6
CONTINUOUS
  0
LAYER
  5
B91
330
B09
100
AcDbSymbolTableRecord
100
AcDbLayerTableRecord
  2
Shape553
 70
    0
 62
    7
  6
CONTINUOUS
  0
LAYER
  5
B92
330
B09
100
AcDbSymbolTableRecord
100
AcDbLayerTableRecord
  2
Shape554
 70
    0
 62
    7
  6
CONTINUOUS
  0
LAYER
  5
B93
330
B09
100
AcDbSymbolTableRecord
100
AcDbLayerTableRecord
  2
Shape555
 70
    0
 62
    7
  6
CONTINUOUS
  0
LAYER
  5
B94
330
B09
100
AcDbSymbolTableRecord
100
AcDbLayerTableRecord
  2
Shape556
 70
    0
 62
    7
  6
CONTINUOUS
  0
LAYER
  5
B95
330
B09
100
AcDbSymbolTableRecord
100
AcDbLayerTableRecord
  2
Shape557
 70
    0
 62
    7
  6
CONTINUOUS
  0
LAYER
  5
B96
330
B09
100
AcDbSymbolTableRecord
100
AcDbLayerTableRecord
  2
Shape558
 70
    0
 62
    7
  6
CONTINUOUS
  0
LAYER
  5
B97
330
B09
100
AcDbSymbolTableRecord
100
AcDbLayerTableRecord
  2
Shape559
 70
    0
 62
    7
  6
CONTINUOUS
  0
LAYER
  5
B98
330
B09
100
AcDbSymbolTableRecord
100
AcDbLayerTableRecord
  2
Shape560
 70
    0
 62
    7
  6
CONTINUOUS
  0
LAYER
  5
B99
330
B09
100
AcDbSymbolTableRecord
100
AcDbLayerTableRecord
  2
Shape561
 70
    0
 62
    7
  6
CONTINUOUS
  0
LAYER
  5
B9A
330
B09
100
AcDbSymbolTableRecord
100
AcDbLayerTableRecord
  2
Shape562
 70
    0
 62
    7
  6
CONTINUOUS
  0
LAYER
  5
B9B
330
B09
100
AcDbSymbolTableRecord
100
AcDbLayerTableRecord
  2
Shape563
 70
    0
 62
    7
  6
CONTINUOUS
  0
LAYER
  5
B9C
330
B09
100
AcDbSymbolTableRecord
100
AcDbLayerTableRecord
  2
Shape564
 70
    0
 62
    7
  6
CONTINUOUS
  0
LAYER
  5
B9D
330
B09
100
AcDbSymbolTableRecord
100
AcDbLayerTableRecord
  2
Shape565
 70
    0
 62
    7
  6
CONTINUOUS
  0
LAYER
  5
B9E
330
B09
100
AcDbSymbolTableRecord
100
AcDbLayerTableRecord
  2
Shape566
 70
    0
 62
    7
  6
CONTINUOUS
  0
LAYER
  5
B9F
330
B09
100
AcDbSymbolTableRecord
100
AcDbLayerTableRecord
  2
Shape567
 70
    0
 62
    7
  6
CONTINUOUS
  0
LAYER
  5
BA0
330
B09
100
AcDbSymbolTableRecord
100
AcDbLayerTableRecord
  2
Shape568
 70
    0
 62
    7
  6
CONTINUOUS
  0
LAYER
  5
BA1
330
B09
100
AcDbSymbolTableRecord
100
AcDbLayerTableRecord
  2
Shape569
 70
    0
 62
    7
  6
CONTINUOUS
  0
LAYER
  5
BA2
330
B09
100
AcDbSymbolTableRecord
100
AcDbLayerTableRecord
  2
Shape570
 70
    0
 62
    7
  6
CONTINUOUS
  0
LAYER
  5
BA3
330
B09
100
AcDbSymbolTableRecord
100
AcDbLayerTableRecord
  2
Shape571
 70
    0
 62
    7
  6
CONTINUOUS
  0
LAYER
  5
BA4
330
B09
100
AcDbSymbolTableRecord
100
AcDbLayerTableRecord
  2
Shape572
 70
    0
 62
    7
  6
CONTINUOUS
  0
LAYER
  5
BA5
330
B09
100
AcDbSymbolTableRecord
100
AcDbLayerTableRecord
  2
Shape573
 70
    0
 62
    7
  6
CONTINUOUS
  0
LAYER
  5
BA6
330
B09
100
AcDbSymbolTableRecord
100
AcDbLayerTableRecord
  2
Shape574
 70
    0
 62
    7
  6
CONTINUOUS
  0
LAYER
  5
BA7
330
B09
100
AcDbSymbolTableRecord
100
AcDbLayerTableRecord
  2
Shape575
 70
    0
 62
    7
  6
CONTINUOUS
  0
LAYER
  5
BA8
330
B09
100
AcDbSymbolTableRecord
100
AcDbLayerTableRecord
  2
Shape576
 70
    0
 62
    7
  6
CONTINUOUS
  0
LAYER
  5
BA9
330
B09
100
AcDbSymbolTableRecord
100
AcDbLayerTableRecord
  2
Shape577
 70
    0
 62
    7
  6
CONTINUOUS
  0
LAYER
  5
BAA
330
B09
100
AcDbSymbolTableRecord
100
AcDbLayerTableRecord
  2
Shape578
 70
    0
 62
    7
  6
CONTINUOUS
  0
LAYER
  5
BAB
330
B09
100
AcDbSymbolTableRecord
100
AcDbLayerTableRecord
  2
Shape579
 70
    0
 62
    7
  6
CONTINUOUS
  0
LAYER
  5
BAC
330
B09
100
AcDbSymbolTableRecord
100
AcDbLayerTableRecord
  2
Shape580
 70
    0
 62
    7
  6
CONTINUOUS
  0
LAYER
  5
BAD
330
B09
100
AcDbSymbolTableRecord
100
AcDbLayerTableRecord
  2
Shape581
 70
    0
 62
    7
  6
CONTINUOUS
  0
LAYER
  5
BAE
330
B09
100
AcDbSymbolTableRecord
100
AcDbLayerTableRecord
  2
Shape582
 70
    0
 62
    7
  6
CONTINUOUS
  0
LAYER
  5
BAF
330
B09
100
AcDbSymbolTableRecord
100
AcDbLayerTableRecord
  2
Shape583
 70
    0
 62
    7
  6
CONTINUOUS
  0
LAYER
  5
BB0
330
B09
100
AcDbSymbolTableRecord
100
AcDbLayerTableRecord
  2
Shape584
 70
    0
 62
    7
  6
CONTINUOUS
  0
LAYER
  5
BB1
330
B09
100
AcDbSymbolTableRecord
100
AcDbLayerTableRecord
  2
Shape585
 70
    0
 62
    7
  6
CONTINUOUS
  0
LAYER
  5
BB2
330
B09
100
AcDbSymbolTableRecord
100
AcDbLayerTableRecord
  2
Shape586
 70
    0
 62
    7
  6
CONTINUOUS
  0
LAYER
  5
BB3
330
B09
100
AcDbSymbolTableRecord
100
AcDbLayerTableRecord
  2
Shape587
 70
    0
 62
    7
  6
CONTINUOUS
  0
LAYER
  5
BB4
330
B09
100
AcDbSymbolTableRecord
100
AcDbLayerTableRecord
  2
Shape588
 70
    0
 62
    7
  6
CONTINUOUS
  0
LAYER
  5
BB5
330
B09
100
AcDbSymbolTableRecord
100
AcDbLayerTableRecord
  2
Shape589
 70
    0
 62
    7
  6
CONTINUOUS
  0
LAYER
  5
BB6
330
B09
100
AcDbSymbolTableRecord
100
AcDbLayerTableRecord
  2
Shape590
 70
    0
 62
    7
  6
CONTINUOUS
  0
LAYER
  5
BB7
330
B09
100
AcDbSymbolTableRecord
100
AcDbLayerTableRecord
  2
Shape591
 70
    0
 62
    7
  6
CONTINUOUS
  0
LAYER
  5
BB8
330
B09
100
AcDbSymbolTableRecord
100
AcDbLayerTableRecord
  2
Shape592
 70
    0
 62
    7
  6
CONTINUOUS
  0
LAYER
  5
BB9
330
B09
100
AcDbSymbolTableRecord
100
AcDbLayerTableRecord
  2
Shape593
 70
    0
 62
    7
  6
CONTINUOUS
  0
LAYER
  5
BBA
330
B09
100
AcDbSymbolTableRecord
100
AcDbLayerTableRecord
  2
Shape594
 70
    0
 62
    7
  6
CONTINUOUS
  0
LAYER
  5
BBB
330
B09
100
AcDbSymbolTableRecord
100
AcDbLayerTableRecord
  2
Shape595
 70
    0
 62
    7
  6
CONTINUOUS
  0
LAYER
  5
BBC
330
B09
100
AcDbSymbolTableRecord
100
AcDbLayerTableRecord
  2
Shape596
 70
    0
 62
    7
  6
CONTINUOUS
  0
LAYER
  5
BBD
330
B09
100
AcDbSymbolTableRecord
100
AcDbLayerTableRecord
  2
Shape597
 70
    0
 62
    7
  6
CONTINUOUS
  0
LAYER
  5
BBE
330
B09
100
AcDbSymbolTableRecord
100
AcDbLayerTableRecord
  2
Shape598
 70
    0
 62
    7
  6
CONTINUOUS
  0
LAYER
  5
BBF
330
B09
100
AcDbSymbolTableRecord
100
AcDbLayerTableRecord
  2
Shape599
 70
    0
 62
    7
  6
CONTINUOUS
  0
LAYER
  5
BC0
330
B09
100
AcDbSymbolTableRecord
100
AcDbLayerTableRecord
  2
Shape600
 70
    0
 62
    7
  6
CONTINUOUS
  0
LAYER
  5
BC1
330
B09
100
AcDbSymbolTableRecord
100
AcDbLayerTableRecord
  2
Shape601
 70
    0
 62
    7
  6
CONTINUOUS
  0
LAYER
  5
BC2
330
B09
100
AcDbSymbolTableRecord
100
AcDbLayerTableRecord
  2
Shape602
 70
    0
 62
    7
  6
CONTINUOUS
  0
LAYER
  5
BC3
330
B09
100
AcDbSymbolTableRecord
100
AcDbLayerTableRecord
  2
Shape603
 70
    0
 62
    7
  6
CONTINUOUS
  0
LAYER
  5
BC4
330
B09
100
AcDbSymbolTableRecord
100
AcDbLayerTableRecord
  2
Shape604
 70
    0
 62
    7
  6
CONTINUOUS
  0
LAYER
  5
BC5
330
B09
100
AcDbSymbolTableRecord
100
AcDbLayerTableRecord
  2
Shape605
 70
    0
 62
    7
  6
CONTINUOUS
  0
LAYER
  5
BC6
330
B09
100
AcDbSymbolTableRecord
100
AcDbLayerTableRecord
  2
Shape606
 70
    0
 62
    7
  6
CONTINUOUS
  0
LAYER
  5
BC7
330
B09
100
AcDbSymbolTableRecord
100
AcDbLayerTableRecord
  2
Shape607
 70
    0
 62
    7
  6
CONTINUOUS
  0
LAYER
  5
BC8
330
B09
100
AcDbSymbolTableRecord
100
AcDbLayerTableRecord
  2
Shape608
 70
    0
 62
    7
  6
CONTINUOUS
  0
LAYER
  5
BC9
330
B09
100
AcDbSymbolTableRecord
100
AcDbLayerTableRecord
  2
Shape609
 70
    0
 62
    7
  6
CONTINUOUS
  0
LAYER
  5
BCA
330
B09
100
AcDbSymbolTableRecord
100
AcDbLayerTableRecord
  2
Shape610
 70
    0
 62
    7
  6
CONTINUOUS
  0
LAYER
  5
BCB
330
B09
100
AcDbSymbolTableRecord
100
AcDbLayerTableRecord
  2
Shape611
 70
    0
 62
    7
  6
CONTINUOUS
  0
LAYER
  5
BCC
330
B09
100
AcDbSymbolTableRecord
100
AcDbLayerTableRecord
  2
Shape612
 70
    0
 62
    7
  6
CONTINUOUS
  0
LAYER
  5
BCD
330
B09
100
AcDbSymbolTableRecord
100
AcDbLayerTableRecord
  2
Shape613
 70
    0
 62
    7
  6
CONTINUOUS
  0
LAYER
  5
BCE
330
B09
100
AcDbSymbolTableRecord
100
AcDbLayerTableRecord
  2
Shape614
 70
    0
 62
    7
  6
CONTINUOUS
  0
LAYER
  5
BCF
330
B09
100
AcDbSymbolTableRecord
100
AcDbLayerTableRecord
  2
Shape615
 70
    0
 62
    7
  6
CONTINUOUS
  0
LAYER
  5
BD0
330
B09
100
AcDbSymbolTableRecord
100
AcDbLayerTableRecord
  2
Shape616
 70
    0
 62
    7
  6
CONTINUOUS
  0
LAYER
  5
BD1
330
B09
100
AcDbSymbolTableRecord
100
AcDbLayerTableRecord
  2
Shape617
 70
    0
 62
    7
  6
CONTINUOUS
  0
LAYER
  5
BD2
330
B09
100
AcDbSymbolTableRecord
100
AcDbLayerTableRecord
  2
Shape618
 70
    0
 62
    7
  6
CONTINUOUS
  0
LAYER
  5
BD3
330
B09
100
AcDbSymbolTableRecord
100
AcDbLayerTableRecord
  2
Shape619
 70
    0
 62
    7
  6
CONTINUOUS
  0
LAYER
  5
BD4
330
B09
100
AcDbSymbolTableRecord
100
AcDbLayerTableRecord
  2
Shape620
 70
    0
 62
    7
  6
CONTINUOUS
  0
LAYER
  5
BD5
330
B09
100
AcDbSymbolTableRecord
100
AcDbLayerTableRecord
  2
Shape621
 70
    0
 62
    7
  6
CONTINUOUS
  0
LAYER
  5
BD6
330
B09
100
AcDbSymbolTableRecord
100
AcDbLayerTableRecord
  2
Shape622
 70
    0
 62
    7
  6
CONTINUOUS
  0
LAYER
  5
BD7
330
B09
100
AcDbSymbolTableRecord
100
AcDbLayerTableRecord
  2
Shape623
 70
    0
 62
    7
  6
CONTINUOUS
  0
LAYER
  5
BD8
330
B09
100
AcDbSymbolTableRecord
100
AcDbLayerTableRecord
  2
Shape624
 70
    0
 62
    7
  6
CONTINUOUS
  0
LAYER
  5
BD9
330
B09
100
AcDbSymbolTableRecord
100
AcDbLayerTableRecord
  2
Shape625
 70
    0
 62
    7
  6
CONTINUOUS
  0
LAYER
  5
BDA
330
B09
100
AcDbSymbolTableRecord
100
AcDbLayerTableRecord
  2
Shape626
 70
    0
 62
    7
  6
CONTINUOUS
  0
LAYER
  5
BDB
330
B09
100
AcDbSymbolTableRecord
100
AcDbLayerTableRecord
  2
Shape627
 70
    0
 62
    7
  6
CONTINUOUS
  0
LAYER
  5
BDC
330
B09
100
AcDbSymbolTableRecord
100
AcDbLayerTableRecord
  2
Shape628
 70
    0
 62
    7
  6
CONTINUOUS
  0
LAYER
  5
BDD
330
B09
100
AcDbSymbolTableRecord
100
AcDbLayerTableRecord
  2
Shape629
 70
    0
 62
    7
  6
CONTINUOUS
  0
LAYER
  5
BDE
330
B09
100
AcDbSymbolTableRecord
100
AcDbLayerTableRecord
  2
Shape630
 70
    0
 62
    7
  6
CONTINUOUS
  0
LAYER
  5
BDF
330
B09
100
AcDbSymbolTableRecord
100
AcDbLayerTableRecord
  2
Shape631
 70
    0
 62
    7
  6
CONTINUOUS
  0
LAYER
  5
BE0
330
B09
100
AcDbSymbolTableRecord
100
AcDbLayerTableRecord
  2
Shape632
 70
    0
 62
    7
  6
CONTINUOUS
  0
LAYER
  5
BE1
330
B09
100
AcDbSymbolTableRecord
100
AcDbLayerTableRecord
  2
Shape633
 70
    0
 62
    7
  6
CONTINUOUS
  0
LAYER
  5
BE2
330
B09
100
AcDbSymbolTableRecord
100
AcDbLayerTableRecord
  2
Shape634
 70
    0
 62
    7
  6
CONTINUOUS
  0
LAYER
  5
BE3
330
B09
100
AcDbSymbolTableRecord
100
AcDbLayerTableRecord
  2
Shape635
 70
    0
 62
    7
  6
CONTINUOUS
  0
LAYER
  5
BE4
330
B09
100
AcDbSymbolTableRecord
100
AcDbLayerTableRecord
  2
Shape636
 70
    0
 62
    7
  6
CONTINUOUS
  0
LAYER
  5
BE5
330
B09
100
AcDbSymbolTableRecord
100
AcDbLayerTableRecord
  2
Shape637
 70
    0
 62
    7
  6
CONTINUOUS
  0
LAYER
  5
BE6
330
B09
100
AcDbSymbolTableRecord
100
AcDbLayerTableRecord
  2
Shape638
 70
    0
 62
    7
  6
CONTINUOUS
  0
LAYER
  5
BE7
330
B09
100
AcDbSymbolTableRecord
100
AcDbLayerTableRecord
  2
Shape639
 70
    0
 62
    7
  6
CONTINUOUS
  0
LAYER
  5
BE8
330
B09
100
AcDbSymbolTableRecord
100
AcDbLayerTableRecord
  2
Shape2133
 70
    0
 62
    7
  6
CONTINUOUS
  0
LAYER
  5
BE9
330
B09
100
AcDbSymbolTableRecord
100
AcDbLayerTableRecord
  2
Shape2134
 70
    0
 62
    7
  6
CONTINUOUS
  0
LAYER
  5
BEA
330
B09
100
AcDbSymbolTableRecord
100
AcDbLayerTableRecord
  2
Shape2135
 70
    0
 62
    7
  6
CONTINUOUS
  0
LAYER
  5
BEB
330
B09
100
AcDbSymbolTableRecord
100
AcDbLayerTableRecord
  2
Shape2136
 70
    0
 62
    7
  6
CONTINUOUS
  0
LAYER
  5
BEC
330
B09
100
AcDbSymbolTableRecord
100
AcDbLayerTableRecord
  2
Shape2321
 70
    0
 62
    7
  6
CONTINUOUS
  0
LAYER
  5
BED
330
B09
100
AcDbSymbolTableRecord
100
AcDbLayerTableRecord
  2
Shape2322
 70
    0
 62
    7
  6
CONTINUOUS
  0
LAYER
  5
BEE
330
B09
100
AcDbSymbolTableRecord
100
AcDbLayerTableRecord
  2
Shape2323
 70
    0
 62
    7
  6
CONTINUOUS
  0
LAYER
  5
BEF
330
B09
100
AcDbSymbolTableRecord
100
AcDbLayerTableRecord
  2
Shape2324
 70
    0
 62
    7
  6
CONTINUOUS
  0
LAYER
  5
BF0
330
B09
100
AcDbSymbolTableRecord
100
AcDbLayerTableRecord
  2
Shape2325
 70
    0
 62
    7
  6
CONTINUOUS
  0
LAYER
  5
BF1
330
B09
100
AcDbSymbolTableRecord
100
AcDbLayerTableRecord
  2
Shape2326
 70
    0
 62
    7
  6
CONTINUOUS
  0
LAYER
  5
BF2
330
B09
100
AcDbSymbolTableRecord
100
AcDbLayerTableRecord
  2
Shape2327
 70
    0
 62
    7
  6
CONTINUOUS
  0
LAYER
  5
BF3
330
B09
100
AcDbSymbolTableRecord
100
AcDbLayerTableRecord
  2
Shape2328
 70
    0
 62
    7
  6
CONTINUOUS
  0
LAYER
  5
BF4
330
B09
100
AcDbSymbolTableRecord
100
AcDbLayerTableRecord
  2
Shape2329
 70
    0
 62
    7
  6
CONTINUOUS
  0
LAYER
  5
BF5
330
B09
100
AcDbSymbolTableRecord
100
AcDbLayerTableRecord
  2
Shape2330
 70
    0
 62
    7
  6
CONTINUOUS
  0
LAYER
  5
BF6
330
B09
100
AcDbSymbolTableRecord
100
AcDbLayerTableRecord
  2
Shape2331
 70
    0
 62
    7
  6
CONTINUOUS
  0
LAYER
  5
BF7
330
B09
100
AcDbSymbolTableRecord
100
AcDbLayerTableRecord
  2
Shape2332
 70
    0
 62
    7
  6
CONTINUOUS
  0
LAYER
  5
BF8
330
B09
100
AcDbSymbolTableRecord
100
AcDbLayerTableRecord
  2
Shape2333
 70
    0
 62
    7
  6
CONTINUOUS
  0
LAYER
  5
BF9
330
B09
100
AcDbSymbolTableRecord
100
AcDbLayerTableRecord
  2
Shape2334
 70
    0
 62
    7
  6
CONTINUOUS
  0
LAYER
  5
BFA
330
B09
100
AcDbSymbolTableRecord
100
AcDbLayerTableRecord
  2
Shape2335
 70
    0
 62
    7
  6
CONTINUOUS
  0
LAYER
  5
BFB
330
B09
100
AcDbSymbolTableRecord
100
AcDbLayerTableRecord
  2
Shape2336
 70
    0
 62
    7
  6
CONTINUOUS
  0
LAYER
  5
BFC
330
B09
100
AcDbSymbolTableRecord
100
AcDbLayerTableRecord
  2
Shape2337
 70
    0
 62
    7
  6
CONTINUOUS
  0
LAYER
  5
BFD
330
B09
100
AcDbSymbolTableRecord
100
AcDbLayerTableRecord
  2
Shape2338
 70
    0
 62
    7
  6
CONTINUOUS
  0
LAYER
  5
BFE
330
B09
100
AcDbSymbolTableRecord
100
AcDbLayerTableRecord
  2
Shape2339
 70
    0
 62
    7
  6
CONTINUOUS
  0
LAYER
  5
BFF
330
B09
100
AcDbSymbolTableRecord
100
AcDbLayerTableRecord
  2
Shape2340
 70
    0
 62
    7
  6
CONTINUOUS
  0
LAYER
  5
C00
330
B09
100
AcDbSymbolTableRecord
100
AcDbLayerTableRecord
  2
Shape2341
 70
    0
 62
    7
  6
CONTINUOUS
  0
LAYER
  5
C01
330
B09
100
AcDbSymbolTableRecord
100
AcDbLayerTableRecord
  2
Shape2342
 70
    0
 62
    7
  6
CONTINUOUS
  0
LAYER
  5
C02
330
B09
100
AcDbSymbolTableRecord
100
AcDbLayerTableRecord
  2
Shape2343
 70
    0
 62
    7
  6
CONTINUOUS
  0
LAYER
  5
C03
330
B09
100
AcDbSymbolTableRecord
100
AcDbLayerTableRecord
  2
Shape2344
 70
    0
 62
    7
  6
CONTINUOUS
  0
LAYER
  5
C04
330
B09
100
AcDbSymbolTableRecord
100
AcDbLayerTableRecord
  2
Shape2345
 70
    0
 62
    7
  6
CONTINUOUS
  0
LAYER
  5
C05
330
B09
100
AcDbSymbolTableRecord
100
AcDbLayerTableRecord
  2
Shape2346
 70
    0
 62
    7
  6
CONTINUOUS
  0
LAYER
  5
C06
330
B09
100
AcDbSymbolTableRecord
100
AcDbLayerTableRecord
  2
Shape2347
 70
    0
 62
    7
  6
CONTINUOUS
  0
LAYER
  5
C07
330
B09
100
AcDbSymbolTableRecord
100
AcDbLayerTableRecord
  2
Shape2348
 70
    0
 62
    7
  6
CONTINUOUS
  0
LAYER
  5
C08
330
B09
100
AcDbSymbolTableRecord
100
AcDbLayerTableRecord
  2
Shape2349
 70
    0
 62
    7
  6
CONTINUOUS
  0
LAYER
  5
C09
330
B09
100
AcDbSymbolTableRecord
100
AcDbLayerTableRecord
  2
Shape2350
 70
    0
 62
    7
  6
CONTINUOUS
  0
LAYER
  5
C0A
330
B09
100
AcDbSymbolTableRecord
100
AcDbLayerTableRecord
  2
Shape2351
 70
    0
 62
    7
  6
CONTINUOUS
  0
LAYER
  5
C0B
330
B09
100
AcDbSymbolTableRecord
100
AcDbLayerTableRecord
  2
Shape2352
 70
    0
 62
    7
  6
CONTINUOUS
  0
LAYER
  5
C0C
330
B09
100
AcDbSymbolTableRecord
100
AcDbLayerTableRecord
  2
Shape2517
 70
    0
 62
    7
  6
CONTINUOUS
  0
ENDTAB
  0
TABLE
  2
STYLE
  5
70
330
0
100
AcDbSymbolTable
 70
     2
  0
STYLE
  5
71
330
70
100
AcDbSymbolTableRecord
100
AcDbTextStyleTableRecord
  2
STANDARD
 70
     0
 40
0.0
 41
1.0
 50
0.0
 71
     0
 42
2.5
  3
arial.ttf
  4

  0
STYLE
  5
72
330
70
100
AcDbSymbolTableRecord
100
AcDbTextStyleTableRecord
  2
ANNOTATIVE
 70
     0
 40
0.0
 41
1.0
 50
0.0
 71
     0
 42
2.5
  3
arial.ttf
  4

  0
ENDTAB
  0
TABLE
  2
VIEW
  5
73
330
0
100
AcDbSymbolTable
 70
     0
  0
ENDTAB
  0
TABLE
  2
UCS
  5
74
330
0
100
AcDbSymbolTable
 70
     0
  0
ENDTAB
  0
TABLE
  2
APPID
  5
75
330
0
100
AcDbSymbolTable
 70
     2
  0
APPID
  5
76
330
75
100
AcDbSymbolTableRecord
100
AcDbRegAppTableRecord
  2
ACAD
 70
     0
  0
APPID
  5
77
330
75
100
AcDbSymbolTableRecord
100
AcDbRegAppTableRecord
  2
ACADANNOTATIVE
 70
     0
  0
ENDTAB
  0
TABLE
  2
DIMSTYLE
  5
78
330
0
100
AcDbSymbolTable
 70
     2
  0
DIMSTYLE
105
79
330
78
100
AcDbSymbolTableRecord
100
AcDbDimStyleTableRecord
  2
STANDARD
 70
     0
  3

  4

  5

  6

  7

 40
0.0
 41
2.5
 42
0.625
 43
3.75
 44
1.25
 45
0.0
 46
0.0
 47
0.0
 48
0.0
140
2.5
141
2.5
142
0.0
143
0.03937007874016
144
1.0
145
0.0
146
1.0
147
0.625
 71
     0
 72
     0
 73
     0
 74
     0
 75
     0
 76
     0
 77
     1
 78
     8
170
     0
171
     3
172
     1
173
     0
174
     0
175
     0
176
     0
177
     0
178
     0
270
     2
271
     2
272
     2
273
     2
274
     3
340
71
275
     0
280
     0
281
     0
282
     0
283
     0
284
     8
285
     0
286
     0
287
     3
288
     0
  0
ENDTAB
  0
TABLE
  2
BLOCK_RECORD
  5
A01
330
0
100
AcDbSymbolTable
  70
5
  0
BLOCK_RECORD
  5
A02
330
A01
100
AcDbSymbolTableRecord
100
AcDbBlockTableRecord
  2
*MODEL_SPACE
  0
BLOCK_RECORD
  5
A03
330
A01
100
AcDbSymbolTableRecord
100
AcDbBlockTableRecord
  2
*PAPER_SPACE
  0
ENDTAB
  0
ENDSEC
  0
SECTION
  2
BLOCKS
  0
BLOCK
  5
A04
330
A02
100
AcDbEntity
  8
0
100
AcDbBlockBegin
  2
*MODEL_SPACE
 70
   0
 10
0
 20
0
 30
0
  3
*MODEL_SPACE
  1
 
  0
ENDBLK
  5
A05
330
A02
100
AcDbEntity
  8
0
100
AcDbBlockEnd
  0
BLOCK
  5
A06
330
A03
100
AcDbEntity
 67
1
  8
0
100
AcDbBlockBegin
  2
*PAPER_SPACE
 70
   0
 10
0
 20
0
 30
0
  3
*PAPER_SPACE
  1
 
  0
ENDBLK
  5
A07
330
A03
100
AcDbEntity
 67
    1
  8
0
100
AcDbBlockEnd
  0
ENDSEC
  0
SECTION
  2
ENTITIES
  0
LINE
  5
A08
330
A02
100
AcDbEntity
  8
Shape420
100
AcDbLine
 10
-1708.36
 20
-637.281
 30
0
 11
-2063.96
 21
-637.281
 31
0
  0
LINE
  5
A09
330
A02
100
AcDbEntity
  8
Shape421
100
AcDbLine
 10
-2063.96
 20
-637.281
 30
0
 11
-2063.96
 21
-281.681
 31
0
  0
LINE
  5
A0A
330
A02
100
AcDbEntity
  8
Shape422
100
AcDbLine
 10
-2063.96
 20
-281.681
 30
0
 11
-1708.36
 21
-281.681
 31
0
  0
LINE
  5
A0B
330
A02
100
AcDbEntity
  8
Shape423
100
AcDbLine
 10
-1708.36
 20
-281.681
 30
0
 11
-1708.36
 21
-637.281
 31
0
  0
LINE
  5
A0C
330
A02
100
AcDbEntity
  8
Shape424
100
AcDbLine
 10
1807
 20
-637.281
 30
0
 11
1807
 21
-281.681
 31
0
  0
LINE
  5
A0D
330
A02
100
AcDbEntity
  8
Shape425
100
AcDbLine
 10
1807
 20
-281.681
 30
0
 11
2162.6
 21
-281.681
 31
0
  0
LINE
  5
A0E
330
A02
100
AcDbEntity
  8
Shape426
100
AcDbLine
 10
2162.6
 20
-281.681
 30
0
 11
2162.6
 21
-637.281
 31
0
  0
LINE
  5
A0F
330
A02
100
AcDbEntity
  8
Shape427
100
AcDbLine
 10
2162.6
 20
-637.281
 30
0
 11
1807
 21
-637.281
 31
0
  0
LINE
  5
A10
330
A02
100
AcDbEntity
  8
Shape428
100
AcDbLine
 10
1323.13
 20
-637.281
 30
0
 11
1323.13
 21
-281.681
 31
0
  0
LINE
  5
A11
330
A02
100
AcDbEntity
  8
Shape429
100
AcDbLine
 10
1323.13
 20
-281.681
 30
0
 11
1678.73
 21
-281.681
 31
0
  0
LINE
  5
A12
330
A02
100
AcDbEntity
  8
Shape430
100
AcDbLine
 10
1678.73
 20
-281.681
 30
0
 11
1678.73
 21
-637.281
 31
0
  0
LINE
  5
A13
330
A02
100
AcDbEntity
  8
Shape431
100
AcDbLine
 10
1678.73
 20
-637.281
 30
0
 11
1323.13
 21
-637.281
 31
0
  0
LINE
  5
A14
330
A02
100
AcDbEntity
  8
Shape432
100
AcDbLine
 10
355.392
 20
-637.281
 30
0
 11
355.392
 21
-281.681
 31
0
  0
LINE
  5
A15
330
A02
100
AcDbEntity
  8
Shape433
100
AcDbLine
 10
355.392
 20
-281.681
 30
0
 11
710.992
 21
-281.681
 31
0
  0
LINE
  5
A16
330
A02
100
AcDbEntity
  8
Shape434
100
AcDbLine
 10
710.992
 20
-281.681
 30
0
 11
710.992
 21
-637.281
 31
0
  0
LINE
  5
A17
330
A02
100
AcDbEntity
  8
Shape435
100
AcDbLine
 10
710.992
 20
-637.281
 30
0
 11
355.392
 21
-637.281
 31
0
  0
LINE
  5
A18
330
A02
100
AcDbEntity
  8
Shape436
100
AcDbLine
 10
-612.348
 20
-637.281
 30
0
 11
-612.348
 21
-281.681
 31
0
  0
LINE
  5
A19
330
A02
100
AcDbEntity
  8
Shape437
100
AcDbLine
 10
-612.348
 20
-281.681
 30
0
 11
-256.748
 21
-281.681
 31
0
  0
LINE
  5
A1A
330
A02
100
AcDbEntity
  8
Shape438
100
AcDbLine
 10
-256.748
 20
-281.681
 30
0
 11
-256.748
 21
-637.281
 31
0
  0
LINE
  5
A1B
330
A02
100
AcDbEntity
  8
Shape439
100
AcDbLine
 10
-256.748
 20
-637.281
 30
0
 11
-612.348
 21
-637.281
 31
0
  0
LINE
  5
A1C
330
A02
100
AcDbEntity
  8
Shape440
100
AcDbLine
 10
-1580.09
 20
-637.281
 30
0
 11
-1580.09
 21
-281.681
 31
0
  0
LINE
  5
A1D
330
A02
100
AcDbEntity
  8
Shape441
100
AcDbLine
 10
-1580.09
 20
-281.681
 30
0
 11
-1224.49
 21
-281.681
 31
0
  0
LINE
  5
A1E
330
A02
100
AcDbEntity
  8
Shape442
100
AcDbLine
 10
-1224.49
 20
-281.681
 30
0
 11
-1224.49
 21
-637.281
 31
0
  0
LINE
  5
A1F
330
A02
100
AcDbEntity
  8
Shape443
100
AcDbLine
 10
-1224.49
 20
-637.281
 30
0
 11
-1580.09
 21
-637.281
 31
0
  0
LINE
  5
A20
330
A02
100
AcDbEntity
  8
Shape444
100
AcDbLine
 10
-2547.83
 20
-637.281
 30
0
 11
-2547.83
 21
-281.681
 31
0
  0
LINE
  5
A21
330
A02
100
AcDbEntity
  8
Shape445
100
AcDbLine
 10
-2547.83
 20
-281.681
 30
0
 11
-2192.23
 21
-281.681
 31
0
  0
LINE
  5
A22
330
A02
100
AcDbEntity
  8
Shape446
100
AcDbLine
 10
-2192.23
 20
-281.681
 30
0
 11
-2192.23
 21
-637.281
 31
0
  0
LINE
  5
A23
330
A02
100
AcDbEntity
  8
Shape447
100
AcDbLine
 10
-2192.23
 20
-637.281
 30
0
 11
-2547.83
 21
-637.281
 31
0
  0
LINE
  5
A24
330
A02
100
AcDbEntity
  8
Shape448
100
AcDbLine
 10
1807
 20
-153.411
 30
0
 11
1807
 21
202.189
 31
0
  0
LINE
  5
A25
330
A02
100
AcDbEntity
  8
Shape449
100
AcDbLine
 10
1807
 20
202.189
 30
0
 11
2162.6
 21
202.189
 31
0
  0
LINE
  5
A26
330
A02
100
AcDbEntity
  8
Shape450
100
AcDbLine
 10
2162.6
 20
202.189
 30
0
 11
2162.6
 21
-153.411
 31
0
  0
LINE
  5
A27
330
A02
100
AcDbEntity
  8
Shape451
100
AcDbLine
 10
2162.6
 20
-153.411
 30
0
 11
1807
 21
-153.411
 31
0
  0
LINE
  5
A28
330
A02
100
AcDbEntity
  8
Shape452
100
AcDbLine
 10
839.262
 20
-153.411
 30
0
 11
839.262
 21
202.189
 31
0
  0
LINE
  5
A29
330
A02
100
AcDbEntity
  8
Shape453
100
AcDbLine
 10
839.262
 20
202.189
 30
0
 11
1194.86
 21
202.189
 31
0
  0
LINE
  5
A2A
330
A02
100
AcDbEntity
  8
Shape454
100
AcDbLine
 10
1194.86
 20
202.189
 30
0
 11
1194.86
 21
-153.411
 31
0
  0
LINE
  5
A2B
330
A02
100
AcDbEntity
  8
Shape455
100
AcDbLine
 10
1194.86
 20
-153.411
 30
0
 11
839.262
 21
-153.411
 31
0
  0
LINE
  5
A2C
330
A02
100
AcDbEntity
  8
Shape456
100
AcDbLine
 10
-128.478
 20
-153.411
 30
0
 11
-128.478
 21
202.189
 31
0
  0
LINE
  5
A2D
330
A02
100
AcDbEntity
  8
Shape457
100
AcDbLine
 10
-128.478
 20
202.189
 30
0
 11
227.122
 21
202.189
 31
0
  0
LINE
  5
A2E
330
A02
100
AcDbEntity
  8
Shape458
100
AcDbLine
 10
227.122
 20
202.189
 30
0
 11
227.122
 21
-153.411
 31
0
  0
LINE
  5
A2F
330
A02
100
AcDbEntity
  8
Shape459
100
AcDbLine
 10
227.122
 20
-153.411
 30
0
 11
-128.478
 21
-153.411
 31
0
  0
LINE
  5
A30
330
A02
100
AcDbEntity
  8
Shape460
100
AcDbLine
 10
-1096.22
 20
-153.411
 30
0
 11
-1096.22
 21
202.189
 31
0
  0
LINE
  5
A31
330
A02
100
AcDbEntity
  8
Shape461
100
AcDbLine
 10
-1096.22
 20
202.189
 30
0
 11
-740.618
 21
202.189
 31
0
  0
LINE
  5
A32
330
A02
100
AcDbEntity
  8
Shape462
100
AcDbLine
 10
-740.618
 20
202.189
 30
0
 11
-740.618
 21
-153.411
 31
0
  0
LINE
  5
A33
330
A02
100
AcDbEntity
  8
Shape463
100
AcDbLine
 10
-740.618
 20
-153.411
 30
0
 11
-1096.22
 21
-153.411
 31
0
  0
LINE
  5
A34
330
A02
100
AcDbEntity
  8
Shape464
100
AcDbLine
 10
-2063.96
 20
-153.411
 30
0
 11
-2063.96
 21
202.189
 31
0
  0
LINE
  5
A35
330
A02
100
AcDbEntity
  8
Shape465
100
AcDbLine
 10
-2063.96
 20
202.189
 30
0
 11
-1708.36
 21
202.189
 31
0
  0
LINE
  5
A36
330
A02
100
AcDbEntity
  8
Shape466
100
AcDbLine
 10
-1708.36
 20
202.189
 30
0
 11
-1708.36
 21
-153.411
 31
0
  0
LINE
  5
A37
330
A02
100
AcDbEntity
  8
Shape467
100
AcDbLine
 10
-1708.36
 20
-153.411
 30
0
 11
-2063.96
 21
-153.411
 31
0
  0
LINE
  5
A38
330
A02
100
AcDbEntity
  8
Shape468
100
AcDbLine
 10
-2547.83
 20
-153.411
 30
0
 11
-2547.83
 21
202.189
 31
0
  0
LINE
  5
A39
330
A02
100
AcDbEntity
  8
Shape469
100
AcDbLine
 10
-2547.83
 20
202.189
 30
0
 11
-2192.23
 21
202.189
 31
0
  0
LINE
  5
A3A
330
A02
100
AcDbEntity
  8
Shape470
100
AcDbLine
 10
-2192.23
 20
202.189
 30
0
 11
-2192.23
 21
-153.411
 31
0
  0
LINE
  5
A3B
330
A02
100
AcDbEntity
  8
Shape471
100
AcDbLine
 10
-2192.23
 20
-153.411
 30
0
 11
-2547.83
 21
-153.411
 31
0
  0
LINE
  5
A3C
330
A02
100
AcDbEntity
  8
Shape472
100
AcDbLine
 10
-1580.09
 20
-153.411
 30
0
 11
-1580.09
 21
202.189
 31
0
  0
LINE
  5
A3D
330
A02
100
AcDbEntity
  8
Shape473
100
AcDbLine
 10
-1580.09
 20
202.189
 30
0
 11
-1224.49
 21
202.189
 31
0
  0
LINE
  5
A3E
330
A02
100
AcDbEntity
  8
Shape474
100
AcDbLine
 10
-1224.49
 20
202.189
 30
0
 11
-1224.49
 21
-153.411
 31
0
  0
LINE
  5
A3F
330
A02
100
AcDbEntity
  8
Shape475
100
AcDbLine
 10
-1224.49
 20
-153.411
 30
0
 11
-1580.09
 21
-153.411
 31
0
  0
LINE
  5
A40
330
A02
100
AcDbEntity
  8
Shape476
100
AcDbLine
 10
-612.348
 20
-153.411
 30
0
 11
-612.348
 21
202.189
 31
0
  0
LINE
  5
A41
330
A02
100
AcDbEntity
  8
Shape477
100
AcDbLine
 10
-612.348
 20
202.189
 30
0
 11
-256.748
 21
202.189
 31
0
  0
LINE
  5
A42
330
A02
100
AcDbEntity
  8
Shape478
100
AcDbLine
 10
-256.748
 20
202.189
 30
0
 11
-256.748
 21
-153.411
 31
0
  0
LINE
  5
A43
330
A02
100
AcDbEntity
  8
Shape479
100
AcDbLine
 10
-256.748
 20
-153.411
 30
0
 11
-612.348
 21
-153.411
 31
0
  0
LINE
  5
A44
330
A02
100
AcDbEntity
  8
Shape480
100
AcDbLine
 10
355.392
 20
-153.411
 30
0
 11
355.392
 21
202.189
 31
0
  0
LINE
  5
A45
330
A02
100
AcDbEntity
  8
Shape481
100
AcDbLine
 10
355.392
 20
202.189
 30
0
 11
710.992
 21
202.189
 31
0
  0
LINE
  5
A46
330
A02
100
AcDbEntity
  8
Shape482
100
AcDbLine
 10
710.992
 20
202.189
 30
0
 11
710.992
 21
-153.411
 31
0
  0
LINE
  5
A47
330
A02
100
AcDbEntity
  8
Shape483
100
AcDbLine
 10
710.992
 20
-153.411
 30
0
 11
355.392
 21
-153.411
 31
0
  0
LINE
  5
A48
330
A02
100
AcDbEntity
  8
Shape484
100
AcDbLine
 10
1323.13
 20
-153.411
 30
0
 11
1323.13
 21
202.189
 31
0
  0
LINE
  5
A49
330
A02
100
AcDbEntity
  8
Shape485
100
AcDbLine
 10
1323.13
 20
202.189
 30
0
 11
1678.73
 21
202.189
 31
0
  0
LINE
  5
A4A
330
A02
100
AcDbEntity
  8
Shape486
100
AcDbLine
 10
1678.73
 20
202.189
 30
0
 11
1678.73
 21
-153.411
 31
0
  0
LINE
  5
A4B
330
A02
100
AcDbEntity
  8
Shape487
100
AcDbLine
 10
1678.73
 20
-153.411
 30
0
 11
1323.13
 21
-153.411
 31
0
  0
LINE
  5
A4C
330
A02
100
AcDbEntity
  8
Shape488
100
AcDbLine
 10
2290.87
 20
-153.411
 30
0
 11
2290.87
 21
202.189
 31
0
  0
LINE
  5
A4D
330
A02
100
AcDbEntity
  8
Shape489
100
AcDbLine
 10
2290.87
 20
202.189
 30
0
 11
2646.47
 21
202.189
 31
0
  0
LINE
  5
A4E
330
A02
100
AcDbEntity
  8
Shape490
100
AcDbLine
 10
2646.47
 20
202.189
 30
0
 11
2646.47
 21
-153.411
 31
0
  0
LINE
  5
A4F
330
A02
100
AcDbEntity
  8
Shape491
100
AcDbLine
 10
2646.47
 20
-153.411
 30
0
 11
2290.87
 21
-153.411
 31
0
  0
LINE
  5
A50
330
A02
100
AcDbEntity
  8
Shape492
100
AcDbLine
 10
-1096.22
 20
-637.281
 30
0
 11
-1096.22
 21
-281.681
 31
0
  0
LINE
  5
A51
330
A02
100
AcDbEntity
  8
Shape493
100
AcDbLine
 10
-1096.22
 20
-281.681
 30
0
 11
-740.618
 21
-281.681
 31
0
  0
LINE
  5
A52
330
A02
100
AcDbEntity
  8
Shape494
100
AcDbLine
 10
-740.618
 20
-281.681
 30
0
 11
-740.618
 21
-637.281
 31
0
  0
LINE
  5
A53
330
A02
100
AcDbEntity
  8
Shape495
100
AcDbLine
 10
-740.618
 20
-637.281
 30
0
 11
-1096.22
 21
-637.281
 31
0
  0
LINE
  5
A54
330
A02
100
AcDbEntity
  8
Shape496
100
AcDbLine
 10
-128.478
 20
-637.281
 30
0
 11
-128.478
 21
-281.681
 31
0
  0
LINE
  5
A55
330
A02
100
AcDbEntity
  8
Shape497
100
AcDbLine
 10
-128.478
 20
-281.681
 30
0
 11
227.122
 21
-281.681
 31
0
  0
LINE
  5
A56
330
A02
100
AcDbEntity
  8
Shape498
100
AcDbLine
 10
227.122
 20
-281.681
 30
0
 11
227.122
 21
-637.281
 31
0
  0
LINE
  5
A57
330
A02
100
AcDbEntity
  8
Shape499
100
AcDbLine
 10
227.122
 20
-637.281
 30
0
 11
-128.478
 21
-637.281
 31
0
  0
LINE
  5
A58
330
A02
100
AcDbEntity
  8
Shape500
100
AcDbLine
 10
839.262
 20
-637.281
 30
0
 11
839.262
 21
-281.681
 31
0
  0
LINE
  5
A59
330
A02
100
AcDbEntity
  8
Shape501
100
AcDbLine
 10
839.262
 20
-281.681
 30
0
 11
1194.86
 21
-281.681
 31
0
  0
LINE
  5
A5A
330
A02
100
AcDbEntity
  8
Shape502
100
AcDbLine
 10
1194.86
 20
-281.681
 30
0
 11
1194.86
 21
-637.281
 31
0
  0
LINE
  5
A5B
330
A02
100
AcDbEntity
  8
Shape503
100
AcDbLine
 10
1194.86
 20
-637.281
 30
0
 11
839.262
 21
-637.281
 31
0
  0
LINE
  5
A5C
330
A02
100
AcDbEntity
  8
Shape504
100
AcDbLine
 10
2290.87
 20
-637.281
 30
0
 11
2290.87
 21
-281.681
 31
0
  0
LINE
  5
A5D
330
A02
100
AcDbEntity
  8
Shape505
100
AcDbLine
 10
2290.87
 20
-281.681
 30
0
 11
2646.47
 21
-281.681
 31
0
  0
LINE
  5
A5E
330
A02
100
AcDbEntity
  8
Shape506
100
AcDbLine
 10
2646.47
 20
-281.681
 30
0
 11
2646.47
 21
-637.281
 31
0
  0
LINE
  5
A5F
330
A02
100
AcDbEntity
  8
Shape507
100
AcDbLine
 10
2646.47
 20
-637.281
 30
0
 11
2290.87
 21
-637.281
 31
0
  0
LINE
  5
A60
330
A02
100
AcDbEntity
  8
Shape508
100
AcDbLine
 10
2646.47
 20
330.459
 30
0
 11
2290.87
 21
330.459
 31
0
  0
LINE
  5
A61
330
A02
100
AcDbEntity
  8
Shape509
100
AcDbLine
 10
2290.87
 20
330.459
 30
0
 11
2290.87
 21
686.059
 31
0
  0
LINE
  5
A62
330
A02
100
AcDbEntity
  8
Shape510
100
AcDbLine
 10
2290.87
 20
686.059
 30
0
 11
2646.47
 21
686.059
 31
0
  0
LINE
  5
A63
330
A02
100
AcDbEntity
  8
Shape511
100
AcDbLine
 10
2646.47
 20
686.059
 30
0
 11
2646.47
 21
330.459
 31
0
  0
LINE
  5
A64
330
A02
100
AcDbEntity
  8
Shape512
100
AcDbLine
 10
1807
 20
330.459
 30
0
 11
1807
 21
686.059
 31
0
  0
LINE
  5
A65
330
A02
100
AcDbEntity
  8
Shape513
100
AcDbLine
 10
1807
 20
686.059
 30
0
 11
2162.6
 21
686.059
 31
0
  0
LINE
  5
A66
330
A02
100
AcDbEntity
  8
Shape514
100
AcDbLine
 10
2162.6
 20
686.059
 30
0
 11
2162.6
 21
330.459
 31
0
  0
LINE
  5
A67
330
A02
100
AcDbEntity
  8
Shape515
100
AcDbLine
 10
2162.6
 20
330.459
 30
0
 11
1807
 21
330.459
 31
0
  0
LINE
  5
A68
330
A02
100
AcDbEntity
  8
Shape516
100
AcDbLine
 10
-128.478
 20
330.459
 30
0
 11
-128.478
 21
686.059
 31
0
  0
LINE
  5
A69
330
A02
100
AcDbEntity
  8
Shape517
100
AcDbLine
 10
-128.478
 20
686.059
 30
0
 11
227.122
 21
686.059
 31
0
  0
LINE
  5
A6A
330
A02
100
AcDbEntity
  8
Shape518
100
AcDbLine
 10
227.122
 20
686.059
 30
0
 11
227.122
 21
330.459
 31
0
  0
LINE
  5
A6B
330
A02
100
AcDbEntity
  8
Shape519
100
AcDbLine
 10
227.122
 20
330.459
 30
0
 11
-128.478
 21
330.459
 31
0
  0
LINE
  5
A6C
330
A02
100
AcDbEntity
  8
Shape520
100
AcDbLine
 10
-1096.22
 20
686.059
 30
0
 11
-740.618
 21
686.059
 31
0
  0
LINE
  5
A6D
330
A02
100
AcDbEntity
  8
Shape521
100
AcDbLine
 10
-740.618
 20
686.059
 30
0
 11
-740.618
 21
330.459
 31
0
  0
LINE
  5
A6E
330
A02
100
AcDbEntity
  8
Shape522
100
AcDbLine
 10
-740.618
 20
330.459
 30
0
 11
-1096.22
 21
330.459
 31
0
  0
LINE
  5
A6F
330
A02
100
AcDbEntity
  8
Shape523
100
AcDbLine
 10
-1096.22
 20
330.459
 30
0
 11
-1096.22
 21
686.059
 31
0
  0
LINE
  5
A70
330
A02
100
AcDbEntity
  8
Shape524
100
AcDbLine
 10
1323.13
 20
330.459
 30
0
 11
1323.13
 21
686.059
 31
0
  0
LINE
  5
A71
330
A02
100
AcDbEntity
  8
Shape525
100
AcDbLine
 10
1323.13
 20
686.059
 30
0
 11
1678.73
 21
686.059
 31
0
  0
LINE
  5
A72
330
A02
100
AcDbEntity
  8
Shape526
100
AcDbLine
 10
1678.73
 20
686.059
 30
0
 11
1678.73
 21
330.459
 31
0
  0
LINE
  5
A73
330
A02
100
AcDbEntity
  8
Shape527
100
AcDbLine
 10
1678.73
 20
330.459
 30
0
 11
1323.13
 21
330.459
 31
0
  0
LINE
  5
A74
330
A02
100
AcDbEntity
  8
Shape528
100
AcDbLine
 10
-612.348
 20
686.059
 30
0
 11
-256.748
 21
686.059
 31
0
  0
LINE
  5
A75
330
A02
100
AcDbEntity
  8
Shape529
100
AcDbLine
 10
-256.748
 20
686.059
 30
0
 11
-256.748
 21
330.459
 31
0
  0
LINE
  5
A76
330
A02
100
AcDbEntity
  8
Shape530
100
AcDbLine
 10
-256.748
 20
330.459
 30
0
 11
-612.348
 21
330.459
 31
0
  0
LINE
  5
A77
330
A02
100
AcDbEntity
  8
Shape531
100
AcDbLine
 10
-612.348
 20
330.459
 30
0
 11
-612.348
 21
686.059
 31
0
  0
LINE
  5
A78
330
A02
100
AcDbEntity
  8
Shape532
100
AcDbLine
 10
710.992
 20
330.459
 30
0
 11
355.392
 21
330.459
 31
0
  0
LINE
  5
A79
330
A02
100
AcDbEntity
  8
Shape533
100
AcDbLine
 10
355.392
 20
330.459
 30
0
 11
355.392
 21
686.059
 31
0
  0
LINE
  5
A7A
330
A02
100
AcDbEntity
  8
Shape534
100
AcDbLine
 10
355.392
 20
686.059
 30
0
 11
710.992
 21
686.059
 31
0
  0
LINE
  5
A7B
330
A02
100
AcDbEntity
  8
Shape535
100
AcDbLine
 10
710.992
 20
686.059
 30
0
 11
710.992
 21
330.459
 31
0
  0
LINE
  5
A7C
330
A02
100
AcDbEntity
  8
Shape536
100
AcDbLine
 10
-1708.36
 20
686.059
 30
0
 11
-1708.36
 21
330.459
 31
0
  0
LINE
  5
A7D
330
A02
100
AcDbEntity
  8
Shape537
100
AcDbLine
 10
-1708.36
 20
330.459
 30
0
 11
-2063.96
 21
330.459
 31
0
  0
LINE
  5
A7E
330
A02
100
AcDbEntity
  8
Shape538
100
AcDbLine
 10
-2063.96
 20
330.459
 30
0
 11
-2063.96
 21
686.059
 31
0
  0
LINE
  5
A7F
330
A02
100
AcDbEntity
  8
Shape539
100
AcDbLine
 10
-2063.96
 20
686.059
 30
0
 11
-1708.36
 21
686.059
 31
0
  0
LINE
  5
A80
330
A02
100
AcDbEntity
  8
Shape540
100
AcDbLine
 10
-1224.49
 20
686.059
 30
0
 11
-1224.49
 21
330.459
 31
0
  0
LINE
  5
A81
330
A02
100
AcDbEntity
  8
Shape541
100
AcDbLine
 10
-1224.49
 20
330.459
 30
0
 11
-1580.09
 21
330.459
 31
0
  0
LINE
  5
A82
330
A02
100
AcDbEntity
  8
Shape542
100
AcDbLine
 10
-1580.09
 20
330.459
 30
0
 11
-1580.09
 21
686.059
 31
0
  0
LINE
  5
A83
330
A02
100
AcDbEntity
  8
Shape543
100
AcDbLine
 10
-1580.09
 20
686.059
 30
0
 11
-1224.49
 21
686.059
 31
0
  0
LINE
  5
A84
330
A02
100
AcDbEntity
  8
Shape544
100
AcDbLine
 10
-2192.23
 20
330.459
 30
0
 11
-2547.83
 21
330.459
 31
0
  0
LINE
  5
A85
330
A02
100
AcDbEntity
  8
Shape545
100
AcDbLine
 10
-2547.83
 20
330.459
 30
0
 11
-2547.83
 21
686.059
 31
0
  0
LINE
  5
A86
330
A02
100
AcDbEntity
  8
Shape546
100
AcDbLine
 10
-2547.83
 20
686.059
 30
0
 11
-2192.23
 21
686.059
 31
0
  0
LINE
  5
A87
330
A02
100
AcDbEntity
  8
Shape547
100
AcDbLine
 10
-2192.23
 20
686.059
 30
0
 11
-2192.23
 21
330.459
 31
0
  0
LINE
  5
A88
330
A02
100
AcDbEntity
  8
Shape548
100
AcDbLine
 10
1194.86
 20
686.059
 30
0
 11
1194.86
 21
330.459
 31
0
  0
LINE
  5
A89
330
A02
100
AcDbEntity
  8
Shape549
100
AcDbLine
 10
1194.86
 20
330.459
 30
0
 11
839.262
 21
330.459
 31
0
  0
LINE
  5
A8A
330
A02
100
AcDbEntity
  8
Shape550
100
AcDbLine
 10
839.262
 20
330.459
 30
0
 11
839.262
 21
686.059
 31
0
  0
LINE
  5
A8B
330
A02
100
AcDbEntity
  8
Shape551
100
AcDbLine
 10
839.262
 20
686.059
 30
0
 11
1194.86
 21
686.059
 31
0
  0
LINE
  5
A8C
330
A02
100
AcDbEntity
  8
Shape552
100
AcDbLine
 10
-612.348
 20
-1001.79
 30
0
 11
-651.084
 21
-1001.79
 31
0
  0
LINE
  5
A8D
330
A02
100
AcDbEntity
  8
Shape553
100
AcDbLine
 10
-651.084
 20
-1001.79
 30
0
 11
-651.084
 21
-1083.8
 31
0
  0
LINE
  5
A8E
330
A02
100
AcDbEntity
  8
Shape554
100
AcDbLine
 10
-651.084
 20
-1083.8
 30
0
 11
-822.527
 21
-1083.8
 31
0
  0
LINE
  5
A8F
330
A02
100
AcDbEntity
  8
Shape555
100
AcDbLine
 10
-822.527
 20
-1083.8
 30
0
 11
-822.527
 21
-1001.79
 31
0
  0
LINE
  5
A90
330
A02
100
AcDbEntity
  8
Shape556
100
AcDbLine
 10
-822.527
 20
-1001.79
 30
0
 11
-843.494
 21
-1001.79
 31
0
  0
LINE
  5
A91
330
A02
100
AcDbEntity
  8
Shape557
100
AcDbLine
 10
-843.494
 20
-1001.79
 30
0
 11
-843.494
 21
-930.669
 31
0
  0
LINE
  5
A92
330
A02
100
AcDbEntity
  8
Shape558
100
AcDbLine
 10
-843.494
 20
-930.669
 30
0
 11
-822.527
 21
-930.669
 31
0
  0
LINE
  5
A93
330
A02
100
AcDbEntity
  8
Shape559
100
AcDbLine
 10
-822.527
 20
-930.669
 30
0
 11
-822.527
 21
-771.41
 31
0
  0
LINE
  5
A94
330
A02
100
AcDbEntity
  8
Shape560
100
AcDbLine
 10
-822.527
 20
-771.41
 30
0
 11
-778.709
 21
-771.41
 31
0
  0
LINE
  5
A95
330
A02
100
AcDbEntity
  8
Shape561
100
AcDbLine
 10
-778.709
 20
-771.41
 30
0
 11
-778.709
 21
-740.923
 31
0
  0
LINE
  5
A96
330
A02
100
AcDbEntity
  8
Shape562
100
AcDbLine
 10
-778.709
 20
-740.923
 30
0
 11
-694.912
 21
-740.923
 31
0
  0
LINE
  5
A97
330
A02
100
AcDbEntity
  8
Shape563
100
AcDbLine
 10
-694.912
 20
-740.923
 30
0
 11
-694.912
 21
-771.41
 31
0
  0
LINE
  5
A98
330
A02
100
AcDbEntity
  8
Shape564
100
AcDbLine
 10
-694.912
 20
-771.41
 30
0
 11
-651.084
 21
-771.41
 31
0
  0
LINE
  5
A99
330
A02
100
AcDbEntity
  8
Shape565
100
AcDbLine
 10
-651.084
 20
-771.41
 30
0
 11
-651.084
 21
-884.921
 31
0
  0
LINE
  5
A9A
330
A02
100
AcDbEntity
  8
Shape566
100
AcDbLine
 10
-651.084
 20
-884.921
 30
0
 11
-612.348
 21
-884.921
 31
0
  0
LINE
  5
A9B
330
A02
100
AcDbEntity
  8
Shape567
100
AcDbLine
 10
-612.348
 20
-884.921
 30
0
 11
-612.348
 21
-765.551
 31
0
  0
LINE
  5
A9C
330
A02
100
AcDbEntity
  8
Shape568
100
AcDbLine
 10
-612.348
 20
-765.551
 30
0
 11
-256.748
 21
-765.551
 31
0
  0
LINE
  5
A9D
330
A02
100
AcDbEntity
  8
Shape569
100
AcDbLine
 10
-256.748
 20
-765.551
 30
0
 11
-256.748
 21
-884.921
 31
0
  0
LINE
  5
A9E
330
A02
100
AcDbEntity
  8
Shape570
100
AcDbLine
 10
-256.748
 20
-884.921
 30
0
 11
-218.004
 21
-884.921
 31
0
  0
LINE
  5
A9F
330
A02
100
AcDbEntity
  8
Shape571
100
AcDbLine
 10
-218.004
 20
-884.921
 30
0
 11
-218.004
 21
-771.41
 31
0
  0
LINE
  5
AA0
330
A02
100
AcDbEntity
  8
Shape572
100
AcDbLine
 10
-218.004
 20
-771.41
 30
0
 11
-174.222
 21
-771.41
 31
0
  0
LINE
  5
AA1
330
A02
100
AcDbEntity
  8
Shape573
100
AcDbLine
 10
-174.222
 20
-771.41
 30
0
 11
-174.222
 21
-740.923
 31
0
  0
LINE
  5
AA2
330
A02
100
AcDbEntity
  8
Shape574
100
AcDbLine
 10
-174.222
 20
-740.923
 30
0
 11
-90.387
 21
-740.923
 31
0
  0
LINE
  5
AA3
330
A02
100
AcDbEntity
  8
Shape575
100
AcDbLine
 10
-90.387
 20
-740.923
 30
0
 11
-90.387
 21
-771.41
 31
0
  0
LINE
  5
AA4
330
A02
100
AcDbEntity
  8
Shape576
100
AcDbLine
 10
-90.387
 20
-771.41
 30
0
 11
-46.5694
 21
-771.41
 31
0
  0
LINE
  5
AA5
330
A02
100
AcDbEntity
  8
Shape577
100
AcDbLine
 10
-46.5694
 20
-771.41
 30
0
 11
-46.5694
 21
-930.669
 31
0
  0
LINE
  5
AA6
330
A02
100
AcDbEntity
  8
Shape578
100
AcDbLine
 10
-46.5694
 20
-930.669
 30
0
 11
-25.6017
 21
-930.669
 31
0
  0
LINE
  5
AA7
330
A02
100
AcDbEntity
  8
Shape579
100
AcDbLine
 10
-25.6017
 20
-930.669
 30
0
 11
-25.6017
 21
-1001.79
 31
0
  0
LINE
  5
AA8
330
A02
100
AcDbEntity
  8
Shape580
100
AcDbLine
 10
-25.6017
 20
-1001.79
 30
0
 11
-46.5694
 21
-1001.79
 31
0
  0
LINE
  5
AA9
330
A02
100
AcDbEntity
  8
Shape581
100
AcDbLine
 10
-46.5694
 20
-1001.79
 30
0
 11
-46.5694
 21
-1083.8
 31
0
  0
LINE
  5
AAA
330
A02
100
AcDbEntity
  8
Shape582
100
AcDbLine
 10
-46.5694
 20
-1083.8
 30
0
 11
-218.004
 21
-1083.8
 31
0
  0
LINE
  5
AAB
330
A02
100
AcDbEntity
  8
Shape583
100
AcDbLine
 10
-218.004
 20
-1083.8
 30
0
 11
-218.004
 21
-1001.79
 31
0
  0
LINE
  5
AAC
330
A02
100
AcDbEntity
  8
Shape584
100
AcDbLine
 10
-218.004
 20
-1001.79
 30
0
 11
-256.748
 21
-1001.79
 31
0
  0
LINE
  5
AAD
330
A02
100
AcDbEntity
  8
Shape585
100
AcDbLine
 10
-256.748
 20
-1001.79
 30
0
 11
-256.748
 21
-1121.15
 31
0
  0
LINE
  5
AAE
330
A02
100
AcDbEntity
  8
Shape586
100
AcDbLine
 10
-256.748
 20
-1121.15
 30
0
 11
-612.348
 21
-1121.15
 31
0
  0
LINE
  5
AAF
330
A02
100
AcDbEntity
  8
Shape587
100
AcDbLine
 10
-612.348
 20
-1121.15
 30
0
 11
-612.348
 21
-1001.79
 31
0
  0
LINE
  5
AB0
330
A02
100
AcDbEntity
  8
Shape588
100
AcDbLine
 10
1920.67
 20
-765.551
 30
0
 11
1920.67
 21
-1121.15
 31
0
  0
LINE
  5
AB1
330
A02
100
AcDbEntity
  8
Shape589
100
AcDbLine
 10
1920.67
 20
-1121.15
 30
0
 11
1565.07
 21
-1121.15
 31
0
  0
LINE
  5
AB2
330
A02
100
AcDbEntity
  8
Shape590
100
AcDbLine
 10
1565.07
 20
-1121.15
 30
0
 11
1565.07
 21
-765.551
 31
0
  0
LINE
  5
AB3
330
A02
100
AcDbEntity
  8
Shape591
100
AcDbLine
 10
1565.07
 20
-765.551
 30
0
 11
1920.67
 21
-765.551
 31
0
  0
LINE
  5
AB4
330
A02
100
AcDbEntity
  8
Shape592
100
AcDbLine
 10
-1822.02
 20
-765.551
 30
0
 11
-1466.42
 21
-765.551
 31
0
  0
LINE
  5
AB5
330
A02
100
AcDbEntity
  8
Shape593
100
AcDbLine
 10
-1466.42
 20
-765.551
 30
0
 11
-1466.42
 21
-1121.15
 31
0
  0
LINE
  5
AB6
330
A02
100
AcDbEntity
  8
Shape594
100
AcDbLine
 10
-1466.42
 20
-1121.15
 30
0
 11
-1822.02
 21
-1121.15
 31
0
  0
LINE
  5
AB7
330
A02
100
AcDbEntity
  8
Shape595
100
AcDbLine
 10
-1822.02
 20
-1121.15
 30
0
 11
-1822.02
 21
-765.551
 31
0
  0
LINE
  5
AB8
330
A02
100
AcDbEntity
  8
Shape596
100
AcDbLine
 10
-1338.15
 20
-765.551
 30
0
 11
-982.553
 21
-765.551
 31
0
  0
LINE
  5
AB9
330
A02
100
AcDbEntity
  8
Shape597
100
AcDbLine
 10
-982.553
 20
-765.551
 30
0
 11
-982.553
 21
-1121.15
 31
0
  0
LINE
  5
ABA
330
A02
100
AcDbEntity
  8
Shape598
100
AcDbLine
 10
-982.553
 20
-1121.15
 30
0
 11
-1338.15
 21
-1121.15
 31
0
  0
LINE
  5
ABB
330
A02
100
AcDbEntity
  8
Shape599
100
AcDbLine
 10
-1338.15
 20
-1121.15
 30
0
 11
-1338.15
 21
-765.551
 31
0
  0
LINE
  5
ABC
330
A02
100
AcDbEntity
  8
Shape600
100
AcDbLine
 10
355.392
 20
-1001.79
 30
0
 11
316.656
 21
-1001.79
 31
0
  0
LINE
  5
ABD
330
A02
100
AcDbEntity
  8
Shape601
100
AcDbLine
 10
316.656
 20
-1001.79
 30
0
 11
316.656
 21
-1083.8
 31
0
  0
LINE
  5
ABE
330
A02
100
AcDbEntity
  8
Shape602
100
AcDbLine
 10
316.656
 20
-1083.8
 30
0
 11
145.213
 21
-1083.8
 31
0
  0
LINE
  5
ABF
330
A02
100
AcDbEntity
  8
Shape603
100
AcDbLine
 10
145.213
 20
-1083.8
 30
0
 11
145.213
 21
-1001.79
 31
0
  0
LINE
  5
AC0
330
A02
100
AcDbEntity
  8
Shape604
100
AcDbLine
 10
145.213
 20
-1001.79
 30
0
 11
124.246
 21
-1001.79
 31
0
  0
LINE
  5
AC1
330
A02
100
AcDbEntity
  8
Shape605
100
AcDbLine
 10
124.246
 20
-1001.79
 30
0
 11
124.246
 21
-930.669
 31
0
  0
LINE
  5
AC2
330
A02
100
AcDbEntity
  8
Shape606
100
AcDbLine
 10
124.246
 20
-930.669
 30
0
 11
145.213
 21
-930.669
 31
0
  0
LINE
  5
AC3
330
A02
100
AcDbEntity
  8
Shape607
100
AcDbLine
 10
145.213
 20
-930.669
 30
0
 11
145.213
 21
-771.41
 31
0
  0
LINE
  5
AC4
330
A02
100
AcDbEntity
  8
Shape608
100
AcDbLine
 10
145.213
 20
-771.41
 30
0
 11
189.031
 21
-771.41
 31
0
  0
LINE
  5
AC5
330
A02
100
AcDbEntity
  8
Shape609
100
AcDbLine
 10
189.031
 20
-771.41
 30
0
 11
189.031
 21
-740.923
 31
0
  0
LINE
  5
AC6
330
A02
100
AcDbEntity
  8
Shape610
100
AcDbLine
 10
189.031
 20
-740.923
 30
0
 11
272.828
 21
-740.923
 31
0
  0
LINE
  5
AC7
330
A02
100
AcDbEntity
  8
Shape611
100
AcDbLine
 10
272.828
 20
-740.923
 30
0
 11
272.828
 21
-771.41
 31
0
  0
LINE
  5
AC8
330
A02
100
AcDbEntity
  8
Shape612
100
AcDbLine
 10
272.828
 20
-771.41
 30
0
 11
316.656
 21
-771.41
 31
0
  0
LINE
  5
AC9
330
A02
100
AcDbEntity
  8
Shape613
100
AcDbLine
 10
316.656
 20
-771.41
 30
0
 11
316.656
 21
-884.921
 31
0
  0
LINE
  5
ACA
330
A02
100
AcDbEntity
  8
Shape614
100
AcDbLine
 10
316.656
 20
-884.921
 30
0
 11
355.392
 21
-884.921
 31
0
  0
LINE
  5
ACB
330
A02
100
AcDbEntity
  8
Shape615
100
AcDbLine
 10
355.392
 20
-884.921
 30
0
 11
355.392
 21
-765.551
 31
0
  0
LINE
  5
ACC
330
A02
100
AcDbEntity
  8
Shape616
100
AcDbLine
 10
355.392
 20
-765.551
 30
0
 11
710.992
 21
-765.551
 31
0
  0
LINE
  5
ACD
330
A02
100
AcDbEntity
  8
Shape617
100
AcDbLine
 10
710.992
 20
-765.551
 30
0
 11
710.992
 21
-884.921
 31
0
  0
LINE
  5
ACE
330
A02
100
AcDbEntity
  8
Shape618
100
AcDbLine
 10
710.992
 20
-884.921
 30
0
 11
749.736
 21
-884.921
 31
0
  0
LINE
  5
ACF
330
A02
100
AcDbEntity
  8
Shape619
100
AcDbLine
 10
749.736
 20
-884.921
 30
0
 11
749.736
 21
-771.41
 31
0
  0
LINE
  5
AD0
330
A02
100
AcDbEntity
  8
Shape620
100
AcDbLine
 10
749.736
 20
-771.41
 30
0
 11
793.518
 21
-771.41
 31
0
  0
LINE
  5
AD1
330
A02
100
AcDbEntity
  8
Shape621
100
AcDbLine
 10
793.518
 20
-771.41
 30
0
 11
793.518
 21
-740.923
 31
0
  0
LINE
  5
AD2
330
A02
100
AcDbEntity
  8
Shape622
100
AcDbLine
 10
793.518
 20
-740.923
 30
0
 11
877.353
 21
-740.923
 31
0
  0
LINE
  5
AD3
330
A02
100
AcDbEntity
  8
Shape623
100
AcDbLine
 10
877.353
 20
-740.923
 30
0
 11
877.353
 21
-771.41
 31
0
  0
LINE
  5
AD4
330
A02
100
AcDbEntity
  8
Shape624
100
AcDbLine
 10
877.353
 20
-771.41
 30
0
 11
921.171
 21
-771.41
 31
0
  0
LINE
  5
AD5
330
A02
100
AcDbEntity
  8
Shape625
100
AcDbLine
 10
921.171
 20
-771.41
 30
0
 11
921.171
 21
-930.669
 31
0
  0
LINE
  5
AD6
330
A02
100
AcDbEntity
  8
Shape626
100
AcDbLine
 10
921.171
 20
-930.669
 30
0
 11
942.138
 21
-930.669
 31
0
  0
LINE
  5
AD7
330
A02
100
AcDbEntity
  8
Shape627
100
AcDbLine
 10
942.138
 20
-930.669
 30
0
 11
942.138
 21
-1001.79
 31
0
  0
LINE
  5
AD8
330
A02
100
AcDbEntity
  8
Shape628
100
AcDbLine
 10
942.138
 20
-1001.79
 30
0
 11
921.171
 21
-1001.79
 31
0
  0
LINE
  5
AD9
330
A02
100
AcDbEntity
  8
Shape629
100
AcDbLine
 10
921.171
 20
-1001.79
 30
0
 11
921.171
 21
-1083.8
 31
0
  0
LINE
  5
ADA
330
A02
100
AcDbEntity
  8
Shape630
100
AcDbLine
 10
921.171
 20
-1083.8
 30
0
 11
749.736
 21
-1083.8
 31
0
  0
LINE
  5
ADB
330
A02
100
AcDbEntity
  8
Shape631
100
AcDbLine
 10
749.736
 20
-1083.8
 30
0
 11
749.736
 21
-1001.79
 31
0
  0
LINE
  5
ADC
330
A02
100
AcDbEntity
  8
Shape632
100
AcDbLine
 10
749.736
 20
-1001.79
 30
0
 11
710.992
 21
-1001.79
 31
0
  0
LINE
  5
ADD
330
A02
100
AcDbEntity
  8
Shape633
100
AcDbLine
 10
710.992
 20
-1001.79
 30
0
 11
710.992
 21
-1121.15
 31
0
  0
LINE
  5
ADE
330
A02
100
AcDbEntity
  8
Shape634
100
AcDbLine
 10
710.992
 20
-1121.15
 30
0
 11
355.392
 21
-1121.15
 31
0
  0
LINE
  5
ADF
330
A02
100
AcDbEntity
  8
Shape635
100
AcDbLine
 10
355.392
 20
-1121.15
 30
0
 11
355.392
 21
-1001.79
 31
0
  0
LINE
  5
AE0
330
A02
100
AcDbEntity
  8
Shape636
100
AcDbLine
 10
1081.2
 20
-1121.15
 30
0
 11
1081.2
 21
-765.551
 31
0
  0
LINE
  5
AE1
330
A02
100
AcDbEntity
  8
Shape637
100
AcDbLine
 10
1081.2
 20
-765.551
 30
0
 11
1436.8
 21
-765.551
 31
0
  0
LINE
  5
AE2
330
A02
100
AcDbEntity
  8
Shape638
100
AcDbLine
 10
1436.8
 20
-765.551
 30
0
 11
1436.8
 21
-1121.15
 31
0
  0
LINE
  5
AE3
330
A02
100
AcDbEntity
  8
Shape639
100
AcDbLine
 10
1436.8
 20
-1121.15
 30
0
 11
1081.2
 21
-1121.15
 31
0
  0
CIRCLE
  5
AE4
330
A02
100
AcDbEntity
  8
Shape2133
100
AcDbCircle
 10
1500.91
 20
-968.732
 40
27.94
  0
CIRCLE
  5
AE5
330
A02
100
AcDbEntity
  8
Shape2134
100
AcDbCircle
 10
-1402.31
 20
-968.732
 40
27.94
  0
CIRCLE
  5
AE6
330
A02
100
AcDbEntity
  8
Shape2135
100
AcDbCircle
 10
1984.78
 20
266.343
 40
27.94
  0
CIRCLE
  5
AE7
330
A02
100
AcDbEntity
  8
Shape2136
100
AcDbCircle
 10
-1886.18
 20
266.343
 40
27.94
  0
ARC
  5
AE8
330
A02
100
AcDbEntity
  8
Shape2321
100
AcDbCircle
 10
2226.74
 20
783.935
 30
0
 40
88.9
100
AcDbArc
 50
-153.652
 51
-26.3477
  0
LINE
  5
AE9
330
A02
100
AcDbEntity
  8
Shape2322
100
AcDbLine
 10
2306.4
 20
744.479
 30
0
 11
2654.09
 21
744.479
 31
0
  0
ARC
  5
AEA
330
A02
100
AcDbEntity
  8
Shape2323
100
AcDbCircle
 10
2654.09
 20
693.679
 30
0
 40
50.8
100
AcDbArc
 50
0
 51
90
  0
LINE
  5
AEB
330
A02
100
AcDbEntity
  8
Shape2324
100
AcDbLine
 10
2704.89
 20
693.679
 30
0
 11
2704.89
 21
-139.23
 31
0
  0
ARC
  5
AEC
330
A02
100
AcDbEntity
  8
Shape2325
100
AcDbCircle
 10
2746.96
 20
-217.546
 30
0
 40
88.9
100
AcDbArc
 50
118.244
 51
-118.244
  0
LINE
  5
AED
330
A02
100
AcDbEntity
  8
Shape2326
100
AcDbLine
 10
2704.89
 20
-295.861
 30
0
 11
2704.89
 21
-644.901
 31
0
  0
ARC
  5
AEE
330
A02
100
AcDbEntity
  8
Shape2327
100
AcDbCircle
 10
2654.09
 20
-644.901
 30
0
 40
50.8
100
AcDbArc
 50
-90
 51
0
  0
LINE
  5
AEF
330
A02
100
AcDbEntity
  8
Shape2328
100
AcDbLine
 10
2654.09
 20
-695.701
 30
0
 11
2029.89
 21
-695.701
 31
0
  0
ARC
  5
AF0
330
A02
100
AcDbEntity
  8
Shape2329
100
AcDbCircle
 10
2029.89
 20
-746.501
 30
0
 40
50.8
100
AcDbArc
 50
90
 51
180
  0
LINE
  5
AF1
330
A02
100
AcDbEntity
  8
Shape2330
100
AcDbLine
 10
1979.09
 20
-746.501
 30
0
 11
1979.09
 21
-1128.77
 31
0
  0
ARC
  5
AF2
330
A02
100
AcDbEntity
  8
Shape2331
100
AcDbCircle
 10
1928.29
 20
-1128.77
 30
0
 40
50.8
100
AcDbArc
 50
-90
 51
0
  0
LINE
  5
AF3
330
A02
100
AcDbEntity
  8
Shape2332
100
AcDbLine
 10
1928.29
 20
-1179.57
 30
0
 11
1580.6
 21
-1179.57
 31
0
  0
ARC
  5
AF4
330
A02
100
AcDbEntity
  8
Shape2333
100
AcDbCircle
 10
1500.93
 20
-1219.03
 30
0
 40
88.9
100
AcDbArc
 50
26.3477
 51
153.652
  0
LINE
  5
AF5
330
A02
100
AcDbEntity
  8
Shape2334
100
AcDbLine
 10
1421.27
 20
-1179.57
 30
0
 11
-1322.62
 21
-1179.57
 31
0
  0
ARC
  5
AF6
330
A02
100
AcDbEntity
  8
Shape2335
100
AcDbCircle
 10
-1402.29
 20
-1219.03
 30
0
 40
88.9
100
AcDbArc
 50
26.3477
 51
153.652
  0
LINE
  5
AF7
330
A02
100
AcDbEntity
  8
Shape2336
100
AcDbLine
 10
-1481.95
 20
-1179.57
 30
0
 11
-1829.64
 21
-1179.57
 31
0
  0
ARC
  5
AF8
330
A02
100
AcDbEntity
  8
Shape2337
100
AcDbCircle
 10
-1829.64
 20
-1128.77
 30
0
 40
50.8
100
AcDbArc
 50
180
 51
-90
  0
LINE
  5
AF9
330
A02
100
AcDbEntity
  8
Shape2338
100
AcDbLine
 10
-1880.44
 20
-1128.77
 30
0
 11
-1880.44
 21
-746.501
 31
0
  0
ARC
  5
AFA
330
A02
100
AcDbEntity
  8
Shape2339
100
AcDbCircle
 10
-1931.24
 20
-746.501
 30
0
 40
50.8
100
AcDbArc
 50
0
 51
90
  0
LINE
  5
AFB
330
A02
100
AcDbEntity
  8
Shape2340
100
AcDbLine
 10
-1931.24
 20
-695.701
 30
0
 11
-2555.45
 21
-695.701
 31
0
  0
ARC
  5
AFC
330
A02
100
AcDbEntity
  8
Shape2341
100
AcDbCircle
 10
-2555.45
 20
-644.901
 30
0
 40
50.8
100
AcDbArc
 50
180
 51
-90
  0
LINE
  5
AFD
330
A02
100
AcDbEntity
  8
Shape2342
100
AcDbLine
 10
-2606.25
 20
-644.901
 30
0
 11
-2606.25
 21
-295.861
 31
0
  0
ARC
  5
AFE
330
A02
100
AcDbEntity
  8
Shape2343
100
AcDbCircle
 10
-2648.32
 20
-217.546
 30
0
 40
88.9
100
AcDbArc
 50
-61.7563
 51
61.7563
  0
LINE
  5
AFF
330
A02
100
AcDbEntity
  8
Shape2344
100
AcDbLine
 10
-2606.25
 20
-139.23
 30
0
 11
-2606.25
 21
693.679
 31
0
  0
ARC
  5
B00
330
A02
100
AcDbEntity
  8
Shape2345
100
AcDbCircle
 10
-2555.45
 20
693.679
 30
0
 40
50.8
100
AcDbArc
 50
90
 51
180
  0
LINE
  5
B01
330
A02
100
AcDbEntity
  8
Shape2346
100
AcDbLine
 10
-2555.45
 20
744.479
 30
0
 11
-2207.76
 21
744.479
 31
0
  0
ARC
  5
B02
330
A02
100
AcDbEntity
  8
Shape2347
100
AcDbCircle
 10
-2128.09
 20
783.935
 30
0
 40
88.9
100
AcDbArc
 50
-153.652
 51
-26.3477
  0
LINE
  5
B03
330
A02
100
AcDbEntity
  8
Shape2348
100
AcDbLine
 10
-2048.43
 20
744.479
 30
0
 11
-756.148
 21
744.479
 31
0
  0
ARC
  5
B04
330
A02
100
AcDbEntity
  8
Shape2349
100
AcDbCircle
 10
-676.483
 20
783.935
 30
0
 40
88.9
100
AcDbArc
 50
-153.652
 51
-26.3477
  0
LINE
  5
B05
330
A02
100
AcDbEntity
  8
Shape2350
100
AcDbLine
 10
-596.818
 20
744.479
 30
0
 11
695.462
 21
744.479
 31
0
  0
ARC
  5
B06
330
A02
100
AcDbEntity
  8
Shape2351
100
AcDbCircle
 10
775.127
 20
783.935
 30
0
 40
88.9
100
AcDbArc
 50
-153.652
 51
-26.3477
  0
LINE
  5
B07
330
A02
100
AcDbEntity
  8
Shape2352
100
AcDbLine
 10
854.792
 20
744.479
 30
0
 11
2147.07
 21
744.479
 31
0
  0
CIRCLE
  5
B08
330
A02
100
AcDbEntity
  8
Shape2517
100
AcDbCircle
 10
2225.45
 20
508.259
 40
38.1
  0
ENDSEC
  0
SECTION
  2
OBJECTS
  0
DICTIONARY
  5
F000
330
0
100
AcDbDictionary
  3
ACAD_GROUP
350
F001
  0
DICTIONARY
  5
F001
330
F000
100
AcDbDictionary
  0
ENDSEC
  0
EOF