0
SECTION
2
HEADER
9
$INSUNITS
70
4
9
$ACADVER
1
AC1014
9
$HANDSEED
5
FFFF
0
ENDSEC
0
SECTION
2
TABLES
0
TABLE
2
VPORT
5
8
100
AcDbSymbolTable
0
ENDTAB
0
TABLE
2
LTYPE
5
5
100
AcDbSymbolTable
0
LTYPE
5
14
100
AcDbSymbolTableRecord
100
AcDbLinetypeTableRecord
2
BYBLOCK
70
0
0
LTYPE
5
15
100
AcDbSymbolTableRecord
100
AcDbLinetypeTableRecord
2
BYLAYER
70
0
0
ENDTAB
0
TABLE
2
LAYER
5
2
100
AcDbSymbolTable
70
2
0
LAYER
5
50
100
AcDbSymbolTableRecord
100
AcDbLayerTableRecord
2
0
70
0
6
CONTINUOUS
0
ENDTAB
0
TABLE
2
STYLE
5
3
100
AcDbSymbolTable
70
1
0
STYLE
5
11
100
AcDbSymbolTableRecord
100
AcDbTextStyleTableRecord
2
STANDARD
70
0
0
ENDTAB
0
TABLE
2
VIEW
5
6
100
AcDbSymbolTable
70
0
0
ENDTAB
0
TABLE
2
UCS
5
7
100
AcDbSymbolTable
70
0
0
ENDTAB
0
TABLE
2
APPID
5
9
100
AcDbSymbolTable
70
2
0
APPID
5
12
100
AcDbSymbolTableRecord
100
AcDbRegAppTableRecord
2
ACAD
70
0
0
ENDTAB
0
TABLE
2
DIMSTYLE
5
A
100
AcDbSymbolTable
70
1
0
ENDTAB
0
TABLE
2
BLOCK_RECORD
5
1
100
AcDbSymbolTable
70
1
0
BLOCK_RECORD
5
1F
100
AcDbSymbolTableRecord
100
AcDbBlockTableRecord
2
*MODEL_SPACE
0
BLOCK_RECORD
5
1B
100
AcDbSymbolTableRecord
100
AcDbBlockTableRecord
2
*PAPER_SPACE
0
ENDTAB
0
ENDSEC
0
SECTION
2
BLOCKS
0
BLOCK
5
20
100
AcDbEntity
100
AcDbBlockBegin
2
*MODEL_SPACE
0
ENDBLK
5
21
100
AcDbEntity
100
AcDbBlockEnd
0
BLOCK
5
1C
100
AcDbEntity
100
AcDbBlockBegin
2
*PAPER_SPACE
0
ENDBLK
5
1D
100
AcDbEntity
100
AcDbBlockEnd
0
ENDSEC
0
SECTION
2
ENTITIES
0
ARC
5
100
100
AcDbEntity
8
0
100
AcDbCircle
10
82.123900797701381
20
-24.392657265156963
30
-5.1024875371617467e-06
40
0.99999998923522071
210
0
220
1.5659526621897926e-09
230
1
100
AcDbArc
50
-90
51
0
0
LINE
5
101
100
AcDbEntity
8
0
100
AcDbLine
10
83.123900797701396
20
-24.39265726515697
30
-5.0642897905794904e-06
11
83.123900797701396
21
-23.89265727053936
31
-5.0650727670409346e-06
0
ARC
5
102
100
AcDbEntity
8
0
100
AcDbCircle
10
84.123900797701367
20
-23.892657270539353
30
-5.1024875373005246e-06
40
0.99999998923520295
210
0
220
1.5659526621898205e-09
230
1
100
AcDbArc
50
90
51
180
0
LINE
5
103
100
AcDbEntity
8
0
100
AcDbLine
10
84.123900797701367
20
-22.89265728130416
30
-5.0666387196862672e-06
11
118.86122856140136
21
-22.89265728130416
31
-5.0666387196862672e-06
0
ARC
5
104
100
AcDbEntity
8
0
100
AcDbCircle
10
118.86122856140136
20
-21.892657292068929
30
-5.1024875309465349e-06
40
0.99999998923522071
210
0
220
1.5659523846340335e-09
230
1
100
AcDbArc
50
-90
51
0
0
LINE
5
105
100
AcDbEntity
8
0
100
AcDbLine
10
119.86122856140139
20
-21.89265729206894
30
-5.0682046720540441e-06
11
119.86122856140139
21
-7.892657442775981
31
-5.0901280085335898e-06
0
ARC
5
106
100
AcDbEntity
8
0
100
AcDbCircle
10
120.36122856140139
20
-7.892657442775973
30
-5.102487534277204e-06
40
0.49999999461761035
210
0
220
1.5659523846340335e-09
230
1
100
AcDbArc
50
90
51
180
0
LINE
5
107
100
AcDbEntity
8
0
100
AcDbLine
10
120.36122856140139
20
-7.3926574481583707
30
-5.0909109847174783e-06
11
131.86122856140139
21
-7.3926574481583618
31
-5.0909109847174783e-06
0
ARC
5
108
100
AcDbEntity
8
0
100
AcDbCircle
10
131.86122856140139
20
-7.8926574427760787
30
-5.0901280085335898e-06
40
0.50000000000007816
210
0
220
-0
230
1
100
AcDbArc
50
0
51
90
0
LINE
5
109
100
AcDbEntity
8
0
100
AcDbLine
10
132.36122856140145
20
-7.892657442775981
30
-5.0901280085335898e-06
11
132.36122856140139
21
-21.89265729206894
31
-5.0682046720540441e-06
0
ARC
5
110
100
AcDbEntity
8
0
100
AcDbCircle
10
133.36122856140136
20
-21.89265729206894
30
-5.0682046720540441e-06
40
0.99999999999997868
210
0
220
0
230
1
100
AcDbArc
50
180
51
270
0
LINE
5
111
100
AcDbEntity
8
0
100
AcDbLine
10
133.36122856140136
20
-22.892657281304139
30
-5.0666387196862672e-06
11
134.28052555459584
21
-22.892657274079681
31
-5.0666387196862672e-06
0
ARC
5
112
100
AcDbEntity
8
0
100
AcDbCircle
10
134.28040526820141
20
-22.392657286686539
30
-5.1025381162799974e-06
40
0.50000000186194837
210
-3.767255255234117e-13
220
1.5659523166305008e-09
230
1
100
AcDbArc
50
270.01378380554951
51
330.4306099913984
0
ARC
5
113
100
AcDbEntity
8
0
100
AcDbCircle
10
137.7587285614014
20
-24.382657265264619
30
-4.9986298251123038e-06
40
3.4899999720336092
210
6.8306618878764013e-10
220
1.1656934770686253e-09
230
1
100
AcDbArc
50
59.630801868995647
51
150.19566854500087
0
ARC
5
114
100
AcDbEntity
8
0
100
AcDbCircle
10
139.77372856140136
20
-20.938840379216582
30
-4.9993354969723487e-06
40
0.50000580727528643
210
6.7908407134567617e-10
220
1.1727156313260917e-09
230
1
100
AcDbArc
50
-120.07383144569141
51
0
0
LINE
5
115
100
AcDbEntity
8
0
100
AcDbLine
10
140.27372856140136
20
-20.938840379216586
30
-5.0696983042164412e-06
11
140.27372856140136
21
-9.8926574212463958
31
-5.0869961032429245e-06
0
ARC
5
116
100
AcDbEntity
8
0
100
AcDbCircle
10
140.77372856140136
20
-9.8926574212463887
30
-5.1024875392136214e-06
40
0.49999999461761035
210
0
220
1.5659529397455518e-09
230
1
100
AcDbArc
50
90
51
180
0
LINE
5
117
100
AcDbEntity
8
0
100
AcDbLine
10
140.77372856140136
20
-9.3926574266287854
30
-5.0877790797043687e-06
11
158.53622856140137
21
-9.3926574266287854
31
-5.0877790797043687e-06
0
ARC
5
118
100
AcDbEntity
8
0
100
AcDbCircle
10
158.53622856140137
20
-9.8926574212463958
30
-5.0869961032429245e-06
40
0.50000000000000711
210
0
220
0
230
1
100
AcDbArc
50
0
51
90
0
LINE
5
119
100
AcDbEntity
8
0
100
AcDbLine
10
159.0362285614014
20
-9.8926574212463958
30
-5.0869961032429245e-06
11
159.0362285614014
21
-22.89265728130416
31
-5.0666387196862672e-06
0
ARC
5
120
100
AcDbEntity
8
0
100
AcDbCircle
10
158.53622856140137
20
-22.89265728130415
30
-5.102487543654516e-06
40
0.49999999461757483
210
0
220
1.5659529397456631e-09
230
1
100
AcDbArc
50
-90
51
0
0
LINE
5
121
100
AcDbEntity
8
0
100
AcDbLine
10
158.53622856140137
20
-23.392657275921735
30
-5.065855743224823e-06
11
145.97522856140137
21
-23.392657275921749
31
-5.065855743224823e-06
0
ARC
5
122
100
AcDbEntity
8
0
100
AcDbCircle
10
145.97522856140137
20
-24.392657265156963
30
-5.1024875371617467e-06
40
0.99999998923522071
210
0
220
1.5659526621897926e-09
230
1
100
AcDbArc
50
90
51
180
0
LINE
5
123
100
AcDbEntity
8
0
100
AcDbLine
10
144.97522856140137
20
-24.39265726515697
30
-5.0642897905794904e-06
11
144.97522856140137
21
-28.267657223443415
31
-5.0582217242522987e-06
0
ARC
5
124
100
AcDbEntity
8
0
100
AcDbCircle
10
146.22522856140137
20
-28.267657223443415
30
-5.0582217242522987e-06
40
1.25
210
0
220
0
230
1
100
AcDbArc
50
180
51
270
0
LINE
5
125
100
AcDbEntity
8
0
100
AcDbLine
10
146.22522856140137
20
-29.517657209987426
30
-5.0562642836537997e-06
11
205.47210356140138
21
-29.517657209987426
31
-5.0562642836537997e-06
0
ARC
5
126
100
AcDbEntity
8
0
100
AcDbCircle
10
205.47210356140138
20
-28.267657223443408
30
-5.1024875326277081e-06
40
1.2499999865440081
210
0
220
1.5659524956563595e-09
230
1
100
AcDbArc
50
-90
51
0
0
LINE
5
127
100
AcDbEntity
8
0
100
AcDbLine
10
206.72210356140138
20
-28.267657223443415
30
-5.0582217242522987e-06
11
206.72210356140138
21
-24.39265726515697
31
-5.0642897905794904e-06
0
ARC
5
128
100
AcDbEntity
8
0
100
AcDbCircle
10
205.72210356140135
20
-24.39265726515697
30
-5.0642897905794904e-06
40
1.0000000000000142
210
0
220
0
230
1
100
AcDbArc
50
0
51
90
0
LINE
5
129
100
AcDbEntity
8
0
100
AcDbLine
10
205.72210356140135
20
-23.392657275921771
30
-5.065855743224823e-06
11
197.92372856140139
21
-23.392657275921749
31
-5.065855743224823e-06
0
ARC
5
130
100
AcDbEntity
8
0
100
AcDbCircle
10
197.92372856140139
20
-22.89265728130416
30
-5.0666387196862672e-06
40
0.50000000000000711
210
0
220
0
230
1
100
AcDbArc
50
180
51
270
0
LINE
5
131
100
AcDbEntity
8
0
100
AcDbLine
10
197.42372856140139
20
-22.89265728130416
30
-5.0666387196862672e-06
11
197.42372856140139
21
-9.8926574212463958
31
-5.0869961032429245e-06
0
ARC
5
132
100
AcDbEntity
8
0
100
AcDbCircle
10
197.92372856140139
20
-9.8926574212463887
30
-5.1024875392136214e-06
40
0.49999999461761035
210
0
220
1.5659529397455518e-09
230
1
100
AcDbArc
50
90
51
180
0
LINE
5
133
100
AcDbEntity
8
0
100
AcDbLine
10
197.92372856140139
20
-9.3926574266287854
30
-5.0877790797043687e-06
11
210.92372856140142
21
-9.3926574266287854
31
-5.0877790797043687e-06
0
ARC
5
134
100
AcDbEntity
8
0
100
AcDbCircle
10
210.92372856140142
20
-9.8926574212463958
30
-5.0869961032429245e-06
40
0.50000000000000711
210
0
220
0
230
1
100
AcDbArc
50
0
51
90
0
LINE
5
135
100
AcDbEntity
8
0
100
AcDbLine
10
211.42372856140142
20
-9.8926574212463958
30
-5.0869961032429245e-06
11
211.42372856140142
21
-20.938840379216586
31
-5.0696983042164412e-06
0
ARC
5
136
100
AcDbEntity
8
0
100
AcDbCircle
10
211.92372856140139
20
-20.938840379216586
30
-5.0696983042164412e-06
40
0.49999999999997158
210
0
220
0
230
1
100
AcDbArc
50
180
51
300.12001525282716
0
ARC
5
137
100
AcDbEntity
8
0
100
AcDbCircle
10
213.93872856140138
20
-24.382657265264619
30
-4.945961235082882e-06
40
3.4899999721394699
210
6.8552017514745454e-10
220
1.1612802974597034e-09
230
1
100
AcDbArc
50
59.446045860470804
51
120.36258113020753
0
ARC
5
138
100
AcDbEntity
8
0
100
AcDbCircle
10
215.97372856140137
20
-20.938840379216582
30
-4.9452864954720639e-06
40
0.49999999602515582
210
6.8816860516792284e-10
220
1.1564408703679929e-09
230
1
100
AcDbArc
50
-120.75580277336491
51
0
0
LINE
5
139
100
AcDbEntity
8
0
100
AcDbLine
10
216.47372856140137
20
-20.938840379216586
30
-5.0696983042164412e-06
11
216.47372856140137
21
-9.8926574212463958
31
-5.0869961032429245e-06
0
ARC
5
140
100
AcDbEntity
8
0
100
AcDbCircle
10
216.97372856140134
20
-9.8926574212463887
30
-5.1024875392136214e-06
40
0.49999999461761035
210
0
220
1.5659529397455518e-09
230
1
100
AcDbArc
50
90
51
180
0
LINE
5
141
100
AcDbEntity
8
0
100
AcDbLine
10
216.97372856140134
20
-9.3926574266287854
30
-5.0877790797043687e-06
11
229.97372856140134
21
-9.3926574266287854
31
-5.0877790797043687e-06
0
ARC
5
142
100
AcDbEntity
8
0
100
AcDbCircle
10
229.97372856140134
20
-9.8926574212463958
30
-5.0869961032429245e-06
40
0.50000000000000711
210
0
220
0
230
1
100
AcDbArc
50
0
51
90
0
LINE
5
143
100
AcDbEntity
8
0
100
AcDbLine
10
230.47372856140134
20
-9.8926574212463958
30
-5.0869961032429245e-06
11
230.47372856140134
21
-22.89265728130416
31
-5.0666387196862672e-06
0
ARC
5
144
100
AcDbEntity
8
0
100
AcDbCircle
10
229.97372856140134
20
-22.89265728130415
30
-5.1024875436545126e-06
40
0.49999999461761035
210
0
220
1.5659529397455518e-09
230
1
100
AcDbArc
50
-90
51
0
0
LINE
5
145
100
AcDbEntity
8
0
100
AcDbLine
10
229.97372856140134
20
-23.392657275921771
30
-5.065855743224823e-06
11
217.94872856140137
21
-23.392657275921749
31
-5.065855743224823e-06
0
ARC
5
146
100
AcDbEntity
8
0
100
AcDbCircle
10
217.94872856140137
20
-23.892657270539353
30
-5.1024875306689791e-06
40
0.49999999461761035
210
0
220
1.5659523846340335e-09
230
1
100
AcDbArc
50
90
51
180
0
LINE
5
147
100
AcDbEntity
8
0
100
AcDbLine
10
217.44872856140137
20
-23.89265727053936
30
-5.0650727670409346e-06
11
217.44872856140137
21
-29.117657214293359
31
-5.0568906645453993e-06
0
ARC
5
148
100
AcDbEntity
8
0
100
AcDbCircle
10
217.94872856140137
20
-29.117657214293359
30
-5.0568906645453993e-06
40
0.50000000000000711
210
0
220
0
230
1
100
AcDbArc
50
180
51
270
0
LINE
5
149
100
AcDbEntity
8
0
100
AcDbLine
10
217.94872856140137
20
-29.61765720891097
30
-5.0561076883615108e-06
11
230.72372856140134
21
-29.61765720891097
31
-5.0561076883615108e-06
0
ARC
5
150
100
AcDbEntity
8
0
100
AcDbCircle
10
230.72372856140134
20
-27.117657235822925
30
-5.1024875358715199e-06
40
2.499999973088034
210
0
220
1.5659526066786521e-09
230
1
100
AcDbArc
50
-90
51
0
0
LINE
5
151
100
AcDbEntity
8
0
100
AcDbLine
10
233.22372856140134
20
-27.117657235822932
30
-5.0600225698360646e-06
11
233.22372856140134
21
70.532341712995503
31
-5.212937841114762e-06
0
ARC
5
152
100
AcDbEntity
8
0
100
AcDbCircle
10
230.72372856140134
20
70.532341712995517
30
-5.212937841114762e-06
40
2.5
210
0
220
0
230
1
100
AcDbArc
50
0
51
90
0
LINE
5
153
100
AcDbEntity
8
0
100
AcDbLine
10
230.72372856140134
20
73.032341686083541
30
-5.2168527225893158e-06
11
217.94872856140137
21
73.032341686083541
31
-5.2168527225893158e-06
0
ARC
5
154
100
AcDbEntity
8
0
100
AcDbCircle
10
217.94872856140137
20
72.532341691465945
30
-5.1024875124294917e-06
40
0.49999999461761035
210
0
220
1.5659529397455518e-09
230
1
100
AcDbArc
50
90
51
180
0
LINE
5
155
100
AcDbEntity
8
0
100
AcDbLine
10
217.44872856140137
20
72.53234169146593
30
-5.2160697461278716e-06
11
217.44872856140137
21
67.797341742437212
31
-5.2086549606755739e-06
0
ARC
5
156
100
AcDbEntity
8
0
100
AcDbCircle
10
213.95872856140136
20
67.797341742437212
30
-5.2478887284604615e-06
40
3.4899999994333952
210
-1.908542767286557e-10
220
2.3617011571989224e-11
230
1
100
AcDbArc
50
-7.054131306917057
51
0
0
ARC
5
157
100
AcDbEntity
8
0
100
AcDbCircle
10
217.91852653600137
20
67.307341747711959
30
-5.2478887499169665e-06
40
0.49999999987450855
210
-1.908543793501579e-10
220
2.3617024273705731e-11
230
1
100
AcDbArc
50
172.94586869220947
51
270
0
LINE
5
158
100
AcDbEntity
8
0
100
AcDbLine
10
217.91852653600137
20
66.807341753094349
30
-5.2071046674484478e-06
11
229.97372856140134
21
66.807341753094349
31
-5.2071046674484478e-06
0
ARC
5
159
100
AcDbEntity
8
0
100
AcDbCircle
10
229.97372856140134
20
66.307341758476753
30
-5.2063216912645593e-06
40
0.50000000000000711
210
0
220
0
230
1
100
AcDbArc
50
0
51
90
0
LINE
5
160
100
AcDbEntity
8
0
100
AcDbLine
10
230.47372856140134
20
66.307341758476753
30
-5.2063216912645593e-06
11
230.47372856140134
21
53.307341898418983
31
-5.1859643074303463e-06
0
ARC
5
161
100
AcDbEntity
8
0
100
AcDbCircle
10
229.97372856140134
20
53.30734189841899
30
-5.1024875482660141e-06
40
0.49999999461760147
210
0
220
1.5659523846340612e-09
230
1
100
AcDbArc
50
-90
51
0
0
LINE
5
162
100
AcDbEntity
8
0
100
AcDbLine
10
229.97372856140134
20
52.80734190380138
30
-5.1851813312464579e-06
11
216.97372856140134
21
52.80734190380138
31
-5.1851813312464579e-06
0
ARC
5
163
100
AcDbEntity
8
0
100
AcDbCircle
10
216.97372856140134
20
53.307341898418983
30
-5.1859643074303463e-06
40
0.50000000000000711
210
0
220
0
230
1
100
AcDbArc
50
180
51
270
0
LINE
5
164
100
AcDbEntity
8
0
100
AcDbLine
10
216.47372856140134
20
53.307341898418983
30
-5.1859643074303463e-06
11
216.47372856140137
21
64.353524856384169
31
-5.2032621064568296e-06
0
ARC
5
165
100
AcDbEntity
8
0
100
AcDbCircle
10
215.97372856140137
20
64.353524856384169
30
-5.2032621064568296e-06
40
0.50000000000000711
210
0
220
0
230
1
100
AcDbArc
50
0
51
120.5751641919116
0
ARC
5
166
100
AcDbEntity
8
0
100
AcDbCircle
10
213.95872856140136
20
67.797341742437226
30
-4.9833204234412604e-06
40
3.4899999721061481
210
6.8475196394279628e-10
220
1.16266914931046e-09
230
1
100
AcDbArc
50
239.5041161803087
51
300.29737380141984
0
ARC
5
167
100
AcDbEntity
8
0
100
AcDbCircle
10
211.92372602140139
20
64.35352634255409
30
-4.9825292183539988e-06
40
0.49999999605854684
210
6.9334339832722548e-10
220
1.1467432852422878e-09
230
1
100
AcDbArc
50
58.842022262687934
51
180
0
LINE
5
168
100
AcDbEntity
8
0
100
AcDbLine
10
211.42372602140131
20
64.353526342554147
30
-5.2032621089548314e-06
11
211.42372602140139
21
51.057341922639765
31
-5.1824409141865146e-06
0
ARC
5
169
100
AcDbEntity
8
0
100
AcDbCircle
10
210.92372602140136
20
51.057341922639772
30
-5.1024875195071618e-06
40
0.49999999461760147
210
0
220
1.5659529397455795e-09
230
1
100
AcDbArc
50
-90
51
0
0
LINE
5
170
100
AcDbEntity
8
0
100
AcDbLine
10
210.92372602140136
20
50.557341928022161
30
-5.1816579377250704e-06
11
202.73672856140138
21
50.557341928022161
31
-5.1816579377250704e-06
0
ARC
5
171
100
AcDbEntity
8
0
100
AcDbCircle
10
202.73672856140138
20
51.057341922639765
30
-5.1824409141865146e-06
40
0.50000000000000711
210
0
220
0
230
1
100
AcDbArc
50
180
51
270
0
LINE
5
172
100
AcDbEntity
8
0
100
AcDbLine
10
202.23672856140138
20
51.057341922639765
30
-5.1824409141865146e-06
11
202.23672856140141
21
52.307341909183776
31
-5.1843983547850137e-06
0
ARC
5
173
100
AcDbEntity
8
0
100
AcDbCircle
10
201.73672856140141
20
52.307341909183776
30
-5.1843983547850137e-06
40
0.50000000000000711
210
0
220
0
230
1
100
AcDbArc
50
0
51
90
0
LINE
5
174
100
AcDbEntity
8
0
100
AcDbLine
10
201.73672856140141
20
52.80734190380138
30
-5.1851813312464579e-06
11
188.06072856140139
21
52.80734190380138
31
-5.1851813312464579e-06
0
ARC
5
175
100
AcDbEntity
8
0
100
AcDbCircle
10
188.06072856140139
20
52.307341909183791
30
-5.1024875189520503e-06
40
0.49999999461760147
210
0
220
1.5659529397455795e-09
230
1
100
AcDbArc
50
90
51
180
0
LINE
5
176
100
AcDbEntity
8
0
100
AcDbLine
10
187.56072856140139
20
52.307341909183776
30
-5.1843983547850137e-06
11
187.56072856140139
21
51.057341922639765
31
-5.1824409141865146e-06
0
ARC
5
177
100
AcDbEntity
8
0
100
AcDbCircle
10
187.06072856140139
20
51.057341922639772
30
-5.1024875195071618e-06
40
0.49999999461760147
210
0
220
1.5659529397455795e-09
230
1
100
AcDbArc
50
-90
51
0
0
LINE
5
178
100
AcDbEntity
8
0
100
AcDbLine
10
187.06072856140139
20
50.557341928022161
30
-5.1816579377250704e-06
11
178.87372856140138
21
50.557341928022161
31
-5.1816579377250704e-06
0
ARC
5
179
100
AcDbEntity
8
0
100
AcDbCircle
10
178.87372856140138
20
51.057341922639765
30
-5.1824409141865146e-06
40
0.50000000000000711
210
0
220
0
230
1
100
AcDbArc
50
180
51
270
0
LINE
5
180
100
AcDbEntity
8
0
100
AcDbLine
10
178.37372856140138
20
51.057341922639765
30
-5.1824409141865146e-06
11
178.37372856140138
21
66.557341755785544
31
-5.2067131794952815e-06
0
ARC
5
181
100
AcDbEntity
8
0
100
AcDbCircle
10
178.87372856140138
20
66.557341755785558
30
-5.102487551457907e-06
40
0.49999999461761035
210
0
220
1.5659523846340335e-09
230
1
100
AcDbArc
50
90
51
180
0
LINE
5
182
100
AcDbEntity
8
0
100
AcDbLine
10
178.87372856140138
20
67.057341750403154
30
-5.2074961556791699e-06
11
209.19872856140137
21
67.057341750403154
31
-5.2074961556791699e-06
0
ARC
5
183
100
AcDbEntity
8
0
100
AcDbCircle
10
209.19872856140137
20
67.557341745020764
30
-5.1024875142336025e-06
40
0.49999999461760147
210
0
220
1.5659529397455795e-09
230
1
100
AcDbArc
50
-90
51
0
0
LINE
5
184
100
AcDbEntity
8
0
100
AcDbLine
10
209.6987285614014
20
67.55734174502075
30
-5.2082791321406141e-06
11
209.6987285614014
21
71.682341700616007
31
-5.2147386864209722e-06
0
ARC
5
185
100
AcDbEntity
8
0
100
AcDbCircle
10
208.4487285614014
20
71.682341700616007
30
-5.2147386864209722e-06
40
1.25
210
0
220
0
230
1
100
AcDbArc
50
0
51
90
0
LINE
5
186
100
AcDbEntity
8
0
100
AcDbLine
10
208.4487285614014
20
72.932341687160019
30
-5.2166961272970269e-06
11
143.24872856140138
21
72.932341687160019
31
-5.2166961272970269e-06
0
ARC
5
187
100
AcDbEntity
8
0
100
AcDbCircle
10
143.24872856140138
20
71.682341700616007
30
-5.1024875286237241e-06
40
1.249999986544017
210
0
220
1.5659527177009556e-09
230
1
100
AcDbArc
50
90
51
180
0
LINE
5
188
100
AcDbEntity
8
0
100
AcDbLine
10
141.99872856140138
20
71.682341700616007
30
-5.2147386864209722e-06
11
141.99872856140138
21
67.307341747711959
31
-5.207887643909892e-06
0
ARC
5
189
100
AcDbEntity
8
0
100
AcDbCircle
10
142.49872856140141
20
67.307341747711959
30
-5.207887643909892e-06
40
0.50000000000000711
210
0
220
0
230
1
100
AcDbArc
50
180
51
270
0
LINE
5
190
100
AcDbEntity
8
0
100
AcDbLine
10
142.49872856140141
20
66.807341753094349
30
-5.2071046674484478e-06
11
153.77372856140138
21
66.807341753094349
31
-5.2071046674484478e-06
0
ARC
5
191
100
AcDbEntity
8
0
100
AcDbCircle
10
153.77372856140138
20
66.307341758476753
30
-5.2063216912645593e-06
40
0.50000000000000711
210
0
220
0
230
1
100
AcDbArc
50
0
51
90
0
LINE
5
192
100
AcDbEntity
8
0
100
AcDbLine
10
154.27372856140138
20
66.307341758476753
30
-5.2063216912645593e-06
11
154.27372856140138
21
53.307341898418983
31
-5.1859643074303463e-06
0
ARC
5
193
100
AcDbEntity
8
0
100
AcDbCircle
10
153.77372856140138
20
53.30734189841899
30
-5.1024875482660141e-06
40
0.49999999461760147
210
0
220
1.5659523846340612e-09
230
1
100
AcDbArc
50
-90
51
0
0
LINE
5
194
100
AcDbEntity
8
0
100
AcDbLine
10
153.77372856140138
20
52.80734190380138
30
-5.1851813312464579e-06
11
140.77372856140136
21
52.80734190380138
31
-5.1851813312464579e-06
0
ARC
5
195
100
AcDbEntity
8
0
100
AcDbCircle
10
140.77372856140136
20
53.307341898418983
30
-5.1859643074303463e-06
40
0.50000000000000711
210
0
220
0
230
1
100
AcDbArc
50
180
51
270
0
LINE
5
196
100
AcDbEntity
8
0
100
AcDbLine
10
140.27372856140136
20
53.307341898418983
30
-5.1859643074303463e-06
11
140.27372856140136
21
64.353524856384169
31
-5.2032621064568296e-06
0
ARC
5
197
100
AcDbEntity
8
0
100
AcDbCircle
10
139.77372856140136
20
64.353524856384169
30
-5.2032621064568296e-06
40
0.50000000000000711
210
0
220
0
230
1
100
AcDbArc
50
0
51
120.57516475412496
0
ARC
5
198
100
AcDbEntity
8
0
100
AcDbCircle
10
137.7587285614014
20
67.79734174243724
30
-5.0354985272153223e-06
40
3.4899999721061374
210
6.8475147407183324e-10
220
1.1626700838954826e-09
230
1
100
AcDbArc
50
239.50415424300829
51
300.29737372087357
0
ARC
5
199
100
AcDbEntity
8
0
100
AcDbCircle
10
135.72372856140137
20
64.353524856384155
30
-5.0353619105806904e-06
40
0.49999999605851164
210
6.9334285021459886e-10
220
1.1467455627071873e-09
230
1
100
AcDbArc
50
58.84209269949568
51
180
0
LINE
5
200
100
AcDbEntity
8
0
100
AcDbLine
10
135.22372856140134
20
64.353524856384169
30
-5.2032621064568296e-06
11
135.22372856140137
21
53.307341898418983
31
-5.1859643074303463e-06
0
ARC
5
201
100
AcDbEntity
8
0
100
AcDbCircle
10
134.7237285614014
20
53.30734189841899
30
-5.1024875482660141e-06
40
0.49999999461760147
210
0
220
1.5659523846340612e-09
230
1
100
AcDbArc
50
-90
51
0
0
LINE
5
202
100
AcDbEntity
8
0
100
AcDbLine
10
134.7237285614014
20
52.80734190380138
30
-5.1851813312464579e-06
11
121.7237285614014
21
52.80734190380138
31
-5.1851813312464579e-06
0
ARC
5
203
100
AcDbEntity
8
0
100
AcDbCircle
10
121.7237285614014
20
53.307341898418983
30
-5.1859643074303463e-06
40
0.50000000000000711
210
0
220
0
230
1
100
AcDbArc
50
180
51
270
0
LINE
5
204
100
AcDbEntity
8
0
100
AcDbLine
10
121.22372856140139
20
53.307341898418983
30
-5.1859643074303463e-06
11
121.22372856140139
21
66.307341758476753
31
-5.2063216912645593e-06
0
ARC
5
205
100
AcDbEntity
8
0
100
AcDbCircle
10
121.7237285614014
20
66.307341758476753
30
-5.1024875513191274e-06
40
0.49999999461760147
210
0
220
1.5659523846340612e-09
230
1
100
AcDbArc
50
90
51
180
0
LINE
5
206
100
AcDbEntity
8
0
100
AcDbLine
10
121.7237285614014
20
66.807341753094349
30
-5.2071046674484478e-06
11
132.99872856140141
21
66.807341753094349
31
-5.2071046674484478e-06
0
ARC
5
207
100
AcDbEntity
8
0
100
AcDbCircle
10
132.99872856140141
20
67.307341747711973
30
-5.1024875142336041e-06
40
0.49999999461761035
210
0
220
1.5659529397455518e-09
230
1
100
AcDbArc
50
-90
51
0
0
LINE
5
208
100
AcDbEntity
8
0
100
AcDbLine
10
133.49872856140141
20
67.307341747711959
30
-5.207887643909892e-06
11
133.49872856140138
21
71.682341700616007
31
-5.2147386864209722e-06
0
ARC
5
209
100
AcDbEntity
8
0
100
AcDbCircle
10
132.24872856140138
20
71.682341700616007
30
-5.2147386864209722e-06
40
1.25
210
0
220
0
230
1
100
AcDbArc
50
0
51
90
0
LINE
5
210
100
AcDbEntity
8
0
100
AcDbLine
10
132.24872856140138
20
72.932341687160019
30
-5.2166961272970269e-06
11
94.096728561401363
21
72.932341687160019
31
-5.2166961272970269e-06
0
ARC
5
211
100
AcDbEntity
8
0
100
AcDbCircle
10
94.096728561401363
20
71.682341700616007
30
-5.1024875286237241e-06
40
1.249999986544017
210
0
220
1.5659527177009556e-09
230
1
100
AcDbArc
50
90
51
200.0823618342732
0
LINE
5
212
100
AcDbEntity
8
0
100
AcDbLine
10
92.922728561400561
20
71.253128471519091
30
-5.2140665587896429e-06
11
92.922728561401371
21
70.432341714071995
31
-5.2127812458224732e-06
0
ARC
5
213
100
AcDbEntity
8
0
100
AcDbCircle
10
91.922728561401357
20
70.43234171407201
30
-5.1024875328110602e-06
40
0.99999998923521183
210
0
220
1.5659526621898066e-09
230
1
100
AcDbArc
50
-90
51
0
0
LINE
5
214
100
AcDbEntity
8
0
100
AcDbLine
10
91.922728561401357
20
69.432341724836789
30
-5.2112152931771405e-06
11
69.272728561401394
21
69.432341724836874
31
-5.2112152931771405e-06
0
ARC
5
215
100
AcDbEntity
8
0
100
AcDbCircle
10
69.272728561401394
20
70.432341714071995
30
-5.2127812458224732e-06
40
0.99999999999999645
210
0
220
0
230
1
100
AcDbArc
50
180
51
270
0
LINE
5
216
100
AcDbEntity
8
0
100
AcDbLine
10
68.272728561401394
20
70.432341714071995
30
-5.2127812458224732e-06
11
68.272728561401394
21
71.258638979202075
31
-5.2140751879981018e-06
0
ARC
5
217
100
AcDbEntity
8
0
100
AcDbCircle
10
67.096728561401392
20
71.682341700616007
30
-5.2353480088852123e-06
40
1.24999999845344
210
-4.9937545422487821e-10
220
1.7992069639659523e-10
230
1
100
AcDbArc
50
-19.813656936137384
51
90
0
LINE
5
218
100
AcDbEntity
8
0
100
AcDbLine
10
67.096728561401392
20
72.932341687160019
30
-5.2166961272970269e-06
11
28.948728561401389
21
72.932341687160019
31
-5.2166961272970269e-06
0
ARC
5
219
100
AcDbEntity
8
0
100
AcDbCircle
10
28.948728561401389
20
71.682341700616007
30
-5.1024875286237241e-06
40
1.249999986544017
210
0
220
1.5659527177009556e-09
230
1
100
AcDbArc
50
90
51
180
0
LINE
5
220
100
AcDbEntity
8
0
100
AcDbLine
10
27.698728561401389
20
71.682341700615012
30
-5.2147386864209722e-06
11
27.698728561401389
21
67.307341747711959
31
-5.207887643909892e-06
0
ARC
5
221
100
AcDbEntity
8
0
100
AcDbCircle
10
28.198728561401374
20
67.307341747711959
30
-5.207887643909892e-06
40
0.49999999999998934
210
0
220
0
230
1
100
AcDbArc
50
180
51
270
0
LINE
5
222
100
AcDbEntity
8
0
100
AcDbLine
10
28.198728561401374
20
66.807341753094349
30
-5.2071046674484478e-06
11
39.473728561401387
21
66.807341753094349
31
-5.2071046674484478e-06
0
ARC
5
223
100
AcDbEntity
8
0
100
AcDbCircle
10
39.473728561401387
20
66.307341758476753
30
-5.2063216912645593e-06
40
0.50000000000000711
210
0
220
0
230
1
100
AcDbArc
50
0
51
90
0
LINE
5
224
100
AcDbEntity
8
0
100
AcDbLine
10
39.973728561401394
20
66.307341758476753
30
-5.2063216912645593e-06
11
39.973728561401394
21
53.307341898418983
31
-5.1859643074303463e-06
0
ARC
5
225
100
AcDbEntity
8
0
100
AcDbCircle
10
39.473728561401387
20
53.30734189841899
30
-5.1024875482660141e-06
40
0.49999999461760147
210
0
220
1.5659523846340612e-09
230
1
100
AcDbArc
50
-90
51
0
0
LINE
5
226
100
AcDbEntity
8
0
100
AcDbLine
10
39.473728561401387
20
52.80734190380138
30
-5.1851813312464579e-06
11
26.47372856140138
21
52.80734190380138
31
-5.1851813312464579e-06
0
ARC
5
227
100
AcDbEntity
8
0
100
AcDbCircle
10
26.47372856140138
20
53.307341898418983
30
-5.1859643074303463e-06
40
0.50000000000000711
210
0
220
0
230
1
100
AcDbArc
50
180
51
270
0
LINE
5
228
100
AcDbEntity
8
0
100
AcDbLine
10
25.973728561401373
20
53.307341898418983
30
-5.1859643074303463e-06
11
25.973728561401394
21
64.353524856384169
31
-5.2032621064568296e-06
0
ARC
5
229
100
AcDbEntity
8
0
100
AcDbCircle
10
25.473728561401387
20
64.353524856384169
30
-5.2032621064568296e-06
40
0.50000000000000711
210
0
220
0
230
1
100
AcDbArc
50
0
51
120.57516475217207
0
ARC
5
230
100
AcDbEntity
8
0
100
AcDbCircle
10
23.458728561401397
20
67.797341742437226
30
-5.1137656207015189e-06
40
3.489999972106129
210
6.8475147405882179e-10
220
1.1626700839031494e-09
230
1
100
AcDbArc
50
239.50415424364931
51
300.29737372115403
0
ARC
5
231
100
AcDbEntity
8
0
100
AcDbCircle
10
21.423728561401379
20
64.353524856384155
30
-5.1146109983617716e-06
40
0.49999999605850892
210
6.9334285030349121e-10
220
1.1467455626534497e-09
230
1
100
AcDbArc
50
58.842092695054689
51
180
0
LINE
5
232
100
AcDbEntity
8
0
100
AcDbLine
10
20.923728561401347
20
64.353524856384169
30
-5.2032621064568296e-06
11
20.923728561401369
21
53.307341898418983
31
-5.1859643074303463e-06
0
ARC
5
233
100
AcDbEntity
8
0
100
AcDbCircle
10
20.423728561401376
20
53.30734189841899
30
-5.1024875482660141e-06
40
0.49999999461760147
210
0
220
1.5659523846340612e-09
230
1
100
AcDbArc
50
-90
51
0
0
LINE
5
234
100
AcDbEntity
8
0
100
AcDbLine
10
20.423728561401376
20
52.80734190380138
30
-5.1851813312464579e-06
11
7.4237285614013704
21
52.80734190380138
31
-5.1851813312464579e-06
0
ARC
5
235
100
AcDbEntity
8
0
100
AcDbCircle
10
7.4237285614013704
20
53.307341898418983
30
-5.1859643074303463e-06
40
0.49999999999999822
210
0
220
0
230
1
100
AcDbArc
50
180
51
270
0
LINE
5
236
100
AcDbEntity
8
0
100
AcDbLine
10
6.9237285614013722
20
53.307341898418983
30
-5.1859643074303463e-06
11
6.9237285614013722
21
66.307341758476753
31
-5.2063216912645593e-06
0
ARC
5
237
100
AcDbEntity
8
0
100
AcDbCircle
10
7.4237285614013704
20
66.307341758476753
30
-5.1024875513191274e-06
40
0.49999999461760147
210
0
220
1.5659523846340612e-09
230
1
100
AcDbArc
50
90
51
180
0
LINE
5
238
100
AcDbEntity
8
0
100
AcDbLine
10
7.4237285614013704
20
66.807341753094349
30
-5.2071046674484478e-06
11
18.698728561401381
21
66.807341753094349
31
-5.2071046674484478e-06
0
ARC
5
239
100
AcDbEntity
8
0
100
AcDbCircle
10
18.698728561401381
20
67.307341747711973
30
-5.1024875142336041e-06
40
0.49999999461761035
210
0
220
1.5659529397455518e-09
230
1
100
AcDbArc
50
-90
51
0
0
LINE
5
240
100
AcDbEntity
8
0
100
AcDbLine
10
19.198728561401389
20
67.307341747711959
30
-5.207887643909892e-06
11
19.198728561401374
21
71.682341700616007
31
-5.2147386864209722e-06
0
ARC
5
241
100
AcDbEntity
8
0
100
AcDbCircle
10
17.948728561401374
20
71.682341700616007
30
-5.2147386864209722e-06
40
1.25
210
0
220
0
230
1
100
AcDbArc
50
0
51
90
0
LINE
5
242
100
AcDbEntity
8
0
100
AcDbLine
10
17.948728561401374
20
72.932341687160019
30
-5.2166961272970269e-06
11
-47.251271438598621
21
72.932341687160019
31
-5.2166961272970269e-06
0
ARC
5
243
100
AcDbEntity
8
0
100
AcDbCircle
10
-47.251271438598621
20
71.682341700616007
30
-5.1024875286237241e-06
40
1.249999986544017
210
0
220
1.5659527177009556e-09
230
1
100
AcDbArc
50
90
51
180
0
LINE
5
244
100
AcDbEntity
8
0
100
AcDbLine
10
-48.501271438598621
20
71.682341700616007
30
-5.2147386864209722e-06
11
-48.501271438598621
21
67.307341747711959
31
-5.207887643909892e-06
0
ARC
5
245
100
AcDbEntity
8
0
100
AcDbCircle
10
-48.001271438598621
20
67.307341747711959
30
-5.207887643909892e-06
40
0.49999999999999822
210
0
220
0
230
1
100
AcDbArc
50
180
51
270
0
LINE
5
246
100
AcDbEntity
8
0
100
AcDbLine
10
-48.001271438598621
20
66.807341753094349
30
-5.2071046674484478e-06
11
-36.726271438598623
21
66.807341753094349
31
-5.2071046674484478e-06
0
ARC
5
247
100
AcDbEntity
8
0
100
AcDbCircle
10
-36.726271438598623
20
66.307341758476753
30
-5.2063216912645593e-06
40
0.49999999999999822
210
0
220
0
230
1
100
AcDbArc
50
0
51
90
0
LINE
5
248
100
AcDbEntity
8
0
100
AcDbLine
10
-36.226271438598623
20
66.307341758476753
30
-5.2063216912645593e-06
11
-36.226271438598616
21
53.307341898418983
31
-5.1859643074303463e-06
0
ARC
5
249
100
AcDbEntity
8
0
100
AcDbCircle
10
-36.726271438598623
20
53.30734189841899
30
-5.1024875482660141e-06
40
0.49999999461760147
210
0
220
1.5659523846340612e-09
230
1
100
AcDbArc
50
-90
51
0
0
LINE
5
250
100
AcDbEntity
8
0
100
AcDbLine
10
-36.726271438598623
20
52.80734190380138
30
-5.1851813312464579e-06
11
-49.726271438598616
21
52.80734190380138
31
-5.1851813312464579e-06
0
ARC
5
251
100
AcDbEntity
8
0
100
AcDbCircle
10
-49.726271438598616
20
53.307341898418983
30
-5.1859643074303463e-06
40
0.50000000000000711
210
0
220
0
230
1
100
AcDbArc
50
180
51
270
0
LINE
5
252
100
AcDbEntity
8
0
100
AcDbLine
10
-50.22627143859863
20
53.307341898418983
30
-5.1859643074303463e-06
11
-50.22627143859863
21
64.353524856384169
31
-5.2032621064568296e-06
0
ARC
5
253
100
AcDbEntity
8
0
100
AcDbCircle
10
-50.726271438598623
20
64.353524856384169
30
-5.2032621064568296e-06
40
0.49999999999999822
210
0
220
0
230
1
100
AcDbArc
50
0
51
120.57516475217277
0
ARC
5
254
100
AcDbEntity
8
0
100
AcDbCircle
10
-52.741271438598631
20
67.797341742437226
30
-5.1659436830248173e-06
40
3.4899999721061343
210
6.8475147405899829e-10
220
1.1626700839030431e-09
230
1
100
AcDbArc
50
239.50415424364073
51
300.29737372115403
0
ARC
5
255
100
AcDbEntity
8
0
100
AcDbCircle
10
-54.776271438598627
20
64.353524856384169
30
-5.1674437235547847e-06
40
0.49999999605847523
210
6.933428503023467e-10
220
1.1467455626542473e-09
230
1
100
AcDbArc
50
58.842092695115483
51
180
0
LINE
5
256
100
AcDbEntity
8
0
100
AcDbLine
10
-55.276271438598613
20
64.353524856384169
30
-5.2032621064568296e-06
11
-55.276271438598627
21
53.307341898418983
31
-5.1859643074303463e-06
0
ARC
5
257
100
AcDbEntity
8
0
100
AcDbCircle
10
-55.776271438598627
20
53.30734189841899
30
-5.1024875482660141e-06
40
0.49999999461760147
210
0
220
1.5659523846340612e-09
230
1
100
AcDbArc
50
-90
51
0
0
LINE
5
258
100
AcDbEntity
8
0
100
AcDbLine
10
-55.776271438598627
20
52.80734190380138
30
-5.1851813312464579e-06
11
-68.776271438598627
21
52.80734190380138
31
-5.1851813312464579e-06
0
ARC
5
259
100
AcDbEntity
8
0
100
AcDbCircle
10
-68.776271438598627
20
53.307341898418983
30
-5.1859643074303463e-06
40
0.49999999999999822
210
0
220
0
230
1
100
AcDbArc
50
180
51
270
0
LINE
5
260
100
AcDbEntity
8
0
100
AcDbLine
10
-69.276271438598627
20
53.307341898418983
30
-5.1859643074303463e-06
11
-69.276271438598627
21
66.307341758476753
31
-5.2063216912645593e-06
0
ARC
5
261
100
AcDbEntity
8
0
100
AcDbCircle
10
-68.776271438598627
20
66.307341758476753
30
-5.1024875513191274e-06
40
0.49999999461760147
210
0
220
1.5659523846340612e-09
230
1
100
AcDbArc
50
90
51
180
0
LINE
5
262
100
AcDbEntity
8
0
100
AcDbLine
10
-68.776271438598627
20
66.807341753094349
30
-5.2071046674484478e-06
11
-56.721069413238624
21
66.807341753094349
31
-5.2071046674484478e-06
0
ARC
5
263
100
AcDbEntity
8
0
100
AcDbCircle
10
-56.721069413238624
20
67.307341747711973
30
-5.1024875142336041e-06
40
0.49999999461761035
210
0
220
1.5659529397455518e-09
230
1
100
AcDbArc
50
-90
51
7.0541313069995848
0
ARC
5
264
100
AcDbEntity
8
0
100
AcDbCircle
10
-52.761271438598627
20
67.797341742437212
30
-5.2086549606755739e-06
40
3.490000000000002
210
0
220
0
230
1
100
AcDbArc
50
180
51
187.05413130694976
0
LINE
5
265
100
AcDbEntity
8
0
100
AcDbLine
10
-56.251271438598629
20
67.797341742436203
30
-5.2086549606755739e-06
11
-56.251271438598621
21
72.53234169146593
31
-5.2160697461278716e-06
0
ARC
5
266
100
AcDbEntity
8
0
100
AcDbCircle
10
-56.751271438598621
20
72.53234169146593
30
-5.2160697461278716e-06
40
0.50000000000000711
210
0
220
0
230
1
100
AcDbArc
50
0
51
90
0
LINE
5
267
100
AcDbEntity
8
0
100
AcDbLine
10
-56.751271438598621
20
73.032341686083541
30
-5.2168527225893158e-06
11
-69.526271438598627
21
73.032341686083541
31
-5.2168527225893158e-06
0
ARC
5
268
100
AcDbEntity
8
0
100
AcDbCircle
10
-69.526271438598627
20
70.532341712995517
30
-5.1024875367541468e-06
40
2.499999973088034
210
0
220
1.5659526066786521e-09
230
1
100
AcDbArc
50
90
51
180
0
LINE
5
269
100
AcDbEntity
8
0
100
AcDbLine
10
-72.026271438598627
20
70.532341712995517
30
-5.212937841114762e-06
11
-72.026271438598627
21
-27.117657235822932
31
-5.0600225698360646e-06
0
ARC
5
270
100
AcDbEntity
8
0
100
AcDbCircle
10
-69.526271438598627
20
-27.117657235822932
30
-5.0600225698360646e-06
40
2.5
210
0
220
0
230
1
100
AcDbArc
50
180
51
270
0
LINE
5
271
100
AcDbEntity
8
0
100
AcDbLine
10
-69.526271438598627
20
-29.61765720891097
30
-5.0561076883615108e-06
11
-50.798146438598621
21
-29.61765720891097
31
-5.0561076883615108e-06
0
ARC
5
272
100
AcDbEntity
8
0
100
AcDbCircle
10
-50.798146438598621
20
-29.117657214293349
30
-5.1024875292950781e-06
40
0.49999999461761035
210
0
220
1.5659523846340335e-09
230
1
100
AcDbArc
50
-90
51
0
0
LINE
5
273
100
AcDbEntity
8
0
100
AcDbLine
10
-50.298146438598621
20
-29.117657214293359
30
-5.0568906645453993e-06
11
-50.298146438598621
21
-24.382657265264626
31
-5.0643054502752527e-06
0
ARC
5
274
100
AcDbEntity
8
0
100
AcDbCircle
10
-46.808146438598619
20
-24.382657265264626
30
-5.0559477608405012e-06
40
3.4899999994333939
210
-1.9085427672862895e-10
220
2.3617011572206052e-11
230
1
100
AcDbArc
50
172.94586869301781
51
180
0
ARC
5
275
100
AcDbEntity
8
0
100
AcDbCircle
10
-50.767944413238624
20
-23.89265727053936
30
-5.0559477559864061e-06
40
0.49999999991420307
210
-1.9085437933542496e-10
220
2.3617024268445935e-11
230
1
100
AcDbArc
50
-7.0541313067747202
51
90
0
LINE
5
276
100
AcDbEntity
8
0
100
AcDbLine
10
-50.767944413238624
20
-23.392657275921749
30
-5.065855743224823e-06
11
-64.013771438598624
21
-23.392657275921749
31
-5.065855743224823e-06
0
ARC
5
277
100
AcDbEntity
8
0
100
AcDbCircle
10
-64.013771438598624
20
-22.89265728130416
30
-5.0666387196862672e-06
40
0.49999999999999822
210
0
220
0
230
1
100
AcDbArc
50
180
51
270
0
LINE
5
278
100
AcDbEntity
8
0
100
AcDbLine
10
-64.513771438598624
20
-22.89265728130416
30
-5.0666387196862672e-06
11
-64.513771438598624
21
-9.8926574212463958
31
-5.0869961032429245e-06
0
ARC
5
279
100
AcDbEntity
8
0
100
AcDbCircle
10
-64.013771438598624
20
-9.8926574212463887
30
-5.1024875392136214e-06
40
0.49999999461761035
210
0
220
1.5659529397455518e-09
230
1
100
AcDbArc
50
90
51
180
0
LINE
5
280
100
AcDbEntity
8
0
100
AcDbLine
10
-64.013771438598624
20
-9.3926574266287854
30
-5.0877790797043687e-06
11
-51.013771438598624
21
-9.3926574266287854
31
-5.0877790797043687e-06
0
ARC
5
281
100
AcDbEntity
8
0
100
AcDbCircle
10
-51.013771438598624
20
-9.8926574212463958
30
-5.0869961032429245e-06
40
0.49999999999999822
210
0
220
0
230
1
100
AcDbArc
50
0
51
90
0
LINE
5
282
100
AcDbEntity
8
0
100
AcDbLine
10
-50.513771438598624
20
-9.8926574212463958
30
-5.0869961032429245e-06
11
-50.513771438598624
21
-21.392657297451329
31
-5.0689876485154883e-06
0
ARC
5
283
100
AcDbEntity
8
0
100
AcDbCircle
10
-50.013771438598624
20
-21.392657297451329
30
-5.0689876485154883e-06
40
0.49999999999999822
210
0
220
0
230
1
100
AcDbArc
50
180
51
270
0
LINE
5
284
100
AcDbEntity
8
0
100
AcDbLine
10
-50.013771438598624
20
-21.89265729206894
30
-5.0682046720540441e-06
11
-49.450115401318619
21
-21.89265729206894
31
-5.0682046720540441e-06
0
ARC
5
285
100
AcDbEntity
8
0
100
AcDbCircle
10
-49.450115401318619
20
-21.392657297451318
30
-5.1024875430994011e-06
40
0.49999999461761035
210
0
220
1.5659529397455518e-09
230
1
100
AcDbArc
50
270
51
311.21991271976037
0
ARC
5
286
100
AcDbEntity
8
0
100
AcDbCircle
10
-46.808146438598619
20
-24.382657265264626
30
-5.1053519309702383e-06
40
3.4899999907186081
210
6.7538784452313637e-10
220
3.8686626576730032e-10
230
1
100
AcDbArc
50
29.804343753199081
51
131.49881893388903
0
ARC
5
287
100
AcDbEntity
8
0
100
AcDbCircle
10
-43.329823145438624
20
-22.39265728668655
30
-5.1050835242628991e-06
40
0.49999999868928119
210
6.7211545566311717e-10
220
3.8133859935511874e-10
230
1
100
AcDbArc
50
209.56930542369037
51
261.63093604908568
0
ARC
5
288
100
AcDbEntity
8
0
100
AcDbCircle
10
-43.548146438598621
20
-23.876683867391321
30
-5.0650977806432351e-06
40
0.99999999999999645
210
0
220
0
230
1
100
AcDbArc
50
0
51
81.630936048435501
0
LINE
5
289
100
AcDbEntity
8
0
100
AcDbLine
10
-42.548146438598629
20
-23.876683867391321
30
-5.0650977806432351e-06
11
-42.548146438598621
21
-28.267657223443415
31
-5.0582217242522987e-06
0
ARC
5
290
100
AcDbEntity
8
0
100
AcDbCircle
10
-41.298146438598621
20
-28.267657223443415
30
-5.0582217242522987e-06
40
1.25
210
0
220
0
230
1
100
AcDbArc
50
180
51
270
0
LINE
5
291
100
AcDbEntity
8
0
100
AcDbLine
10
-41.298146438598621
20
-29.517657209987426
30
-5.0562642836537997e-06
11
17.948728561401374
21
-29.517657209987426
31
-5.0562642836537997e-06
0
ARC
5
292
100
AcDbEntity
8
0
100
AcDbCircle
10
17.948728561401374
20
-28.267657223443408
30
-5.1024875326277081e-06
40
1.2499999865440081
210
0
220
1.5659524956563595e-09
230
1
100
AcDbArc
50
-90
51
0
0
LINE
5
293
100
AcDbEntity
8
0
100
AcDbLine
10
19.198728561401374
20
-28.267657223443415
30
-5.0582217242522987e-06
11
19.198728561401374
21
-26.392657243627397
31
-5.0611578855663808e-06
0
ARC
5
294
100
AcDbEntity
8
0
100
AcDbCircle
10
18.198728561401374
20
-26.392657243627397
30
-5.0611578855663808e-06
40
0.99999999999999645
210
0
220
0
230
1
100
AcDbArc
50
0
51
90
0
LINE
5
295
100
AcDbEntity
8
0
100
AcDbLine
10
18.198728561401374
20
-25.392657254392191
30
-5.0627238379341577e-06
11
6.061228561401375
21
-25.392657254392191
31
-5.0627238379341577e-06
0
ARC
5
296
100
AcDbEntity
8
0
100
AcDbCircle
10
6.061228561401375
20
-24.892657259774566
30
-5.0635068143956019e-06
40
0.49999999999999822
210
0
220
0
230
1
100
AcDbArc
50
180
51
270
0
LINE
5
297
100
AcDbEntity
8
0
100
AcDbLine
10
5.5612285614013768
20
-24.892657259774566
30
-5.0635068143956019e-06
11
5.5612285614013768
21
-7.892657442775981
31
-5.0901280085335898e-06
0
ARC
5
298
100
AcDbEntity
8
0
100
AcDbCircle
10
6.061228561401375
20
-7.892657442775973
30
-5.102487534277204e-06
40
0.49999999461761035
210
0
220
1.5659523846340335e-09
230
1
100
AcDbArc
50
90
51
180
0
LINE
5
299
100
AcDbEntity
8
0
100
AcDbLine
10
6.061228561401375
20
-7.3926574481583707
30
-5.0909109847174783e-06
11
17.561217117311394
21
-7.3926574481583618
31
-5.0909109847174783e-06
0
ARC
5
300
100
AcDbEntity
8
0
100
AcDbCircle
10
17.561217117311394
20
-7.892657442775981
30
-5.0901280085335898e-06
40
0.50000000000002487
210
0
220
0
230
1
100
AcDbArc
50
0
51
90
0
LINE
5
301
100
AcDbEntity
8
0
100
AcDbLine
10
18.061217117311415
20
-7.892657442775981
30
-5.0901280085335898e-06
11
18.061217117311379
21
-21.88733282435625
31
-5.0682130101065148e-06
0
ARC
5
302
100
AcDbEntity
8
0
100
AcDbCircle
10
19.061217117311379
20
-21.88733282435625
30
-5.0682130101065148e-06
40
0.99999999999999645
210
0
220
0
230
1
100
AcDbArc
50
180
51
270
0
LINE
5
303
100
AcDbEntity
8
0
100
AcDbLine
10
19.061217117311379
20
-22.887332813591456
30
-5.0666470574611822e-06
11
20.05317969929137
21
-22.88733281359147
31
-5.0666470574611822e-06
0
ARC
5
304
100
AcDbEntity
8
0
100
AcDbCircle
10
19.980405268241384
20
-22.392657286686539
30
-5.1062501747846562e-06
40
0.49999999473331286
210
-2.25495482680501e-10
220
1.5327786847697272e-09
230
1
100
AcDbArc
50
278.36906395091273
51
330.07596618502481
0
ARC
5
305
100
AcDbEntity
8
0
100
AcDbCircle
10
23.438728561401373
20
-24.382657265264626
30
-5.0579080454795059e-06
40
3.489999990718605
210
6.7538784452308002e-10
220
3.8686626576739995e-10
230
1
100
AcDbArc
50
29.804343753207437
51
150.08386170816152
0
ARC
5
306
100
AcDbEntity
8
0
100
AcDbCircle
10
26.917051854561379
20
-22.39265728668655
30
-5.0578695138633368e-06
40
0.49999999868926953
210
6.7211545566353272e-10
220
3.8133859935442257e-10
230
1
100
AcDbArc
50
209.56930542363051
51
269.98621571598164
0
LINE
5
307
100
AcDbEntity
8
0
100
AcDbLine
10
26.916931563993252
20
-22.892657266834327
30
-5.0666387196862672e-06
11
53.260728561401372
21
-22.89265728130416
31
-5.0666387196862672e-06
0
ARC
5
308
100
AcDbEntity
8
0
100
AcDbCircle
10
53.260728561401372
20
-23.89265727053936
30
-5.0650727670409346e-06
40
0.99999999999999645
210
0
220
0
230
1
100
AcDbArc
50
0
51
90
0
LINE
5
309
100
AcDbEntity
8
0
100
AcDbLine
10
54.260728561401372
20
-23.89265727053936
30
-5.0650727670409346e-06
11
54.260728561401386
21
-24.39265726515697
31
-5.0642897905794904e-06
0
ARC
5
310
100
AcDbEntity
8
0
100
AcDbCircle
10
55.260728561401386
20
-24.39265726515697
30
-5.0642897905794904e-06
40
0.99999999999999645
210
0
220
0
230
1
100
AcDbArc
50
180
51
270
0
LINE
5
311
100
AcDbEntity
8
0
100
AcDbLine
10
55.260728561401386
20
-25.392657254392191
30
-5.0627238379341577e-06
11
82.123900797701381
21
-25.392657254392191
31
-5.0627238379341577e-06
0
LWPOLYLINE
5
312
100
AcDbEntity
8
0
100
AcDbPolyline
90
8
70
1
43
0.0
10
77.573728561401381
20
-23.392657275921771
42
0.41421356237309503
10
78.073728561401381
20
-22.89265728130416
10
78.073728561401367
20
-9.8926574212463958
42
0.41421356237309503
10
77.573728561401381
20
-9.3926574266287854
10
59.8112285614014
20
-9.3926574266287854
42
0.41421356237309503
10
59.311228561401393
20
-9.8926574212463958
10
59.311228561401393
20
-22.89265728130416
42
0.41421356237309503
10
59.8112285614014
20
-23.392657275921749
0
LWPOLYLINE
5
313
100
AcDbEntity
8
0
100
AcDbPolyline
90
8
70
1
43
0.0
10
178.37372856140138
20
-22.89265728130416
10
178.37372856678377
20
-9.8926574212463958
42
-0.41421356237309503
10
178.87372856140138
20
-9.3926574266287854
10
191.87372856140141
20
-9.3926574212463887
42
-0.41421356237309503
10
192.37372856140141
20
-9.8926574212463958
10
192.37372855601902
20
-22.89265728130416
42
-0.41421356237309503
10
191.87372856140141
20
-23.392657275921771
10
178.87372856140138
20
-23.392657281304167
42
-0.41421356237309503
0
LWPOLYLINE
5
314
100
AcDbEntity
8
0
100
AcDbPolyline
90
32
70
1
43
0.0
10
184.84872856140134
20
32.232342125286891
42
0.41421356237309503
10
185.84872856140137
20
31.232342136051685
10
208.55547856140134
20
31.232342141434085
42
-0.41421356237309503
10
209.05547856140134
20
30.732342141434078
10
209.05547855601895
20
13.207342330086984
42
-0.41421356237309503
10
208.55547856140134
20
12.707342335469383
10
201.35547856140136
20
12.707342330086977
42
-0.41421356237309503
10
200.85547856140136
20
13.207342330086984
10
200.85547856140138
20
14.207342319322205
42
0.41421356237309503
10
200.35547856140138
20
14.707342313939806
10
184.6794785614014
20
14.707342313939806
42
0.41421356237309503
10
184.17947856140137
20
14.207342319322205
10
184.17947855601898
20
12.682342335738506
42
-0.41421356237309503
10
183.67947856140137
20
12.182342341120904
10
166.13310356140136
20
12.182342341120904
42
0.41421356237309503
10
165.13310356140136
20
11.182342351885683
10
165.13310355063658
20
-4.14265748314393
42
-0.41421356237309503
10
164.13310356140136
20
-5.1426574723791418
10
-29.122896438598637
20
-5.1426574831439265
42
-0.41421356237308982
10
-30.122896438598616
20
-4.14265748314393
10
-30.122896438598623
20
11.307342350540086
42
0.41421356237309503
10
-31.12289643859862
20
12.307342339775298
10
-41.035646438598619
20
12.307342329010513
42
-0.41421356237309503
10
-42.035646438598626
20
13.307342329010519
10
-42.035646438598626
20
30.232342146816475
42
0.41421356237309503
10
-43.035646438598619
20
31.232342136051688
10
-44.607521438598624
20
31.232342125286898
42
-0.41421356237309503
10
-45.607521438598617
20
32.232342125286891
10
-45.607521427833845
20
47.557341960316521
42
-0.41421356237309503
10
-44.607521438598624
20
48.557341949551741
10
183.84872856140137
20
48.557341960316535
42
-0.41421356237309503
10
184.8487285614014
20
47.557341960316521
0
LWPOLYLINE
5
315
100
AcDbEntity
8
0
100
AcDbPolyline
90
8
70
1
43
0.0
10
59.02372856140137
20
66.307341758476753
42
0.41421356237309503
10
58.523728561401363
20
66.807341753094349
10
45.523728561401391
20
66.807341753094349
42
0.41421356237309503
10
45.023728561401384
20
66.307341758476753
10
45.023728561401384
20
53.307341898418983
42
0.41421356237309503
10
45.523728561401391
20
52.80734190380138
10
58.523728561401363
20
52.80734190380138
42
0.41421356237309503
10
59.02372856140137
20
53.307341898418983
0
LWPOLYLINE
5
316
100
AcDbEntity
8
0
100
AcDbPolyline
90
8
70
1
43
0.0
10
159.82372856140137
20
66.807341753094349
10
172.8237285614014
20
66.807341758476753
42
-0.41421356237309503
10
173.3237285614014
20
66.307341758476753
10
173.32372855601901
20
53.307341898418983
42
-0.41421356237309503
10
172.8237285614014
20
52.80734190380138
10
159.82372856140137
20
52.807341898418976
42
-0.41421356237309503
10
159.32372856140137
20
53.307341898418983
10
159.32372856678376
20
66.307341758476753
42
-0.41421356237309503
0
LWPOLYLINE
5
317
100
AcDbEntity
8
0
100
AcDbPolyline
90
8
70
1
43
0.0
10
197.92372856140139
20
9.6573423683019932
42
0.41421356237309503
10
197.42372856140139
20
9.1573423736843829
10
197.42372856140139
20
-3.8426574863733709
42
0.41421356237309503
10
197.92372856140139
20
-4.3426574809909724
10
210.92372856140142
20
-4.3426574809909724
42
0.41421356237309503
10
211.42372856140142
20
-3.8426574863733709
10
211.42372856140142
20
9.1573423736843829
42
0.41421356237309503
10
210.92372856140142
20
9.6573423683019932
0
LWPOLYLINE
5
318
100
AcDbEntity
8
0
100
AcDbPolyline
90
8
70
1
43
0.0
10
-64.013771438598624
20
47.757341958163558
42
0.41421356237309503
10
-64.513771438598624
20
47.257341963545954
10
-64.513771438598624
20
34.257342103488199
42
0.41421356237309503
10
-64.013771438598624
20
33.757342108870596
10
-51.013771438598624
20
33.757342108870596
42
0.41421356237309503
10
-50.513771438598624
20
34.257342103488199
10
-50.513771438598624
20
47.257341963545954
42
0.41421356237309503
10
-51.013771438598624
20
47.757341958163558
0
LWPOLYLINE
5
319
100
AcDbEntity
8
0
100
AcDbPolyline
90
8
70
1
43
0.0
10
-48.632521438598616
20
14.707342313939806
10
-66.394521438598616
20
14.707342308557418
42
-0.41421356237309503
10
-66.894521438598616
20
15.207342308557417
10
-66.894521433216227
20
28.20734216861517
42
-0.41421356237309503
10
-66.394521438598616
20
28.707342163232781
10
-48.632521438598616
20
28.70734216861516
42
-0.41421356237309503
10
-48.13252143859863
20
28.20734216861517
10
-48.132521443981005
20
15.207342308557417
42
-0.41421356237309503
0
LWPOLYLINE
5
320
100
AcDbEntity
8
0
100
AcDbPolyline
90
8
70
1
43
0.0
10
193.16122856140137
20
47.757341958163558
42
0.41421356237309503
10
192.66122856140134
20
47.257341963545954
10
192.66122856140134
20
34.257342103488199
42
0.41421356237309503
10
193.16122856140137
20
33.757342108870596
10
206.16122856140137
20
33.757342108870596
42
0.41421356237309503
10
206.66122856140134
20
34.257342103488199
10
206.66122856140137
20
47.257341963545954
42
0.41421356237309503
10
206.16122856140137
20
47.757341958163558
0
LWPOLYLINE
5
321
100
AcDbEntity
8
0
100
AcDbPolyline
90
8
70
1
43
0.0
10
171.7299785614014
20
9.6573423683019932
42
0.41421356237309503
10
171.22997856140137
20
9.1573423736843829
10
171.22997856140137
20
-3.8426574863733709
42
0.41421356237309503
10
171.7299785614014
20
-4.3426574809909724
10
184.7299785614014
20
-4.3426574809909724
42
0.41421356237309503
10
185.22997856140137
20
-3.8426574863733709
10
185.2299785614014
20
9.1573423736843829
42
0.41421356237309503
10
184.7299785614014
20
9.6573423683019932
0
LWPOLYLINE
5
322
100
AcDbEntity
8
0
100
AcDbPolyline
90
8
70
1
43
0.0
10
78.073728561401381
20
66.307341758476753
42
0.41421356237309503
10
77.573728561401381
20
66.807341753094349
10
64.573728561401381
20
66.807341753094349
42
0.41421356237309503
10
64.073728561401381
20
66.307341758476753
10
64.073728561401381
20
53.307341898418983
42
0.41421356237309503
10
64.573728561401381
20
52.80734190380138
10
77.573728561401381
20
52.80734190380138
42
0.41421356237309503
10
78.073728561401381
20
53.307341898418983
0
LWPOLYLINE
5
323
100
AcDbEntity
8
0
100
AcDbPolyline
90
8
70
1
43
0.0
10
97.123728561401379
20
66.307341758476753
42
0.41421356237309503
10
96.623728561401379
20
66.807341753094349
10
83.623728561401407
20
66.807341753094349
42
0.41421356237309503
10
83.123728561401407
20
66.307341758476753
10
83.123728561401407
20
53.307341898418983
42
0.41421356237309503
10
83.623728561401407
20
52.80734190380138
10
96.623728561401379
20
52.80734190380138
42
0.41421356237309503
10
97.123728561401379
20
53.307341898418983
0
LWPOLYLINE
5
324
100
AcDbEntity
8
0
100
AcDbPolyline
90
8
70
1
43
0.0
10
116.17372856140136
20
66.307341758476753
42
0.41421356237309503
10
115.67372856140136
20
66.807341753094349
10
102.67372856140139
20
66.807341753094349
42
0.41421356237309503
10
102.17372856140138
20
66.307341758476753
10
102.17372856140138
20
53.307341898418983
42
0.41421356237309503
10
102.67372856140139
20
52.80734190380138
10
115.67372856140136
20
52.80734190380138
42
0.41421356237309503
10
116.17372856140136
20
53.307341898418983
0
LWPOLYLINE
5
325
100
AcDbEntity
8
0
100
AcDbPolyline
90
8
70
1
43
0.0
10
-11.626271438598623
20
66.807341753094349
10
1.373728561401375
20
66.807341758476738
42
-0.41421356237309503
10
1.8737285614013732
20
66.307341758476753
10
1.8737285560189765
20
53.307341898418983
42
-0.41421356237309503
10
1.373728561401375
20
52.80734190380138
10
-11.626271438598623
20
52.807341898418983
42
-0.41421356237309503
10
-12.126271438598621
20
53.307341898418983
10
-12.126271433216225
20
66.307341758476753
42
-0.41421356237309503
0
LWPOLYLINE
5
326
100
AcDbEntity
8
0
100
AcDbPolyline
90
8
70
1
43
0.0
10
-30.676271438598626
20
66.807341753094349
10
-17.676271438598619
20
66.807341758476738
42
-0.41421356237309503
10
-17.176271438598619
20
66.307341758476753
10
-17.176271443981015
20
53.307341898418983
42
-0.41421356237309503
10
-17.676271438598619
20
52.80734190380138
10
-30.676271438598626
20
52.807341898418983
42
-0.41421356237309503
10
-31.176271438598626
20
53.307341898418983
10
-31.176271433216229
20
66.307341758476753
42
-0.41421356237309503
0
LWPOLYLINE
5
327
100
AcDbEntity
8
0
100
AcDbPolyline
90
16
70
1
43
0.0
10
-42.032021438598619
20
-4.8426574756085827
42
0.41421356237309503
10
-42.532021438598626
20
-4.3426574809909813
10
-58.208021438598621
20
-4.3426574809909724
42
0.41421356237309503
10
-58.708021438598621
20
-4.8426574756085827
10
-58.708021443981025
20
-6.0926574621525997
42
-0.41421356237309503
10
-59.208021438598628
20
-6.5926574567702012
10
-66.408021438598624
20
-6.592657462152598
42
-0.41421356237309503
10
-66.908021438598624
20
-6.0926574621525997
10
-66.908021433216234
20
9.407342370993188
42
-0.41421356237309503
10
-66.408021438598624
20
9.9073423656107984
10
-34.332021438598623
20
9.9073423709931863
42
-0.41421356237309764
10
-33.832021438598623
20
9.407342370993188
10
-33.83202144398102
20
-6.0926574621525997
42
-0.41421356237309503
10
-34.332021438598616
20
-6.5926574567702012
10
-41.532021438598619
20
-6.592657462152598
42
-0.41421356237309503
10
-42.032021438598619
20
-6.0926574621525997
0
LWPOLYLINE
5
328
100
AcDbEntity
8
0
100
AcDbPolyline
90
8
70
1
43
0.0
10
229.97372856140134
20
-4.3426574809909724
10
216.97372856140134
20
-4.342657486373378
42
-0.41421356237309503
10
216.47372856140134
20
-3.8426574863733709
10
216.47372856678373
20
9.1573423736843829
42
-0.41421356237309503
10
216.97372856140134
20
9.6573423683019932
10
229.97372856140134
20
9.65734237368439
42
-0.41421356237309503
10
230.47372856140134
20
9.1573423736843829
10
230.47372855601895
20
-3.8426574863733709
42
-0.41421356237309503
0
LWPOLYLINE
5
329
100
AcDbEntity
8
0
100
AcDbPolyline
90
8
70
1
43
0.0
10
229.97372856140134
20
33.757342108870596
10
216.97372856140134
20
33.757342103488192
42
-0.41421356237309503
10
216.47372856140134
20
34.257342103488199
10
216.47372856678373
20
47.257341963545954
42
-0.41421356237309503
10
216.97372856140134
20
47.757341958163558
10
229.97372856140134
20
47.757341963545969
42
-0.41421356237309503
10
230.47372856140134
20
47.257341963545954
10
230.47372855601895
20
34.257342103488199
42
-0.41421356237309503
0
LWPOLYLINE
5
330
100
AcDbEntity
8
0
100
AcDbPolyline
90
8
70
1
43
0.0
10
229.97372856140134
20
14.707342313939806
10
216.97372856140134
20
14.70734230855741
42
-0.41421356237309503
10
216.47372856140134
20
15.207342308557417
10
216.47372856678373
20
28.20734216861517
42
-0.41421356237309503
10
216.97372856140134
20
28.707342163232781
10
229.97372856140134
20
28.707342168615178
42
-0.41421356237309503
10
230.47372856140134
20
28.20734216861517
10
230.47372855601895
20
15.207342308557417
42
-0.41421356237309503
0
LWPOLYLINE
5
331
100
AcDbEntity
8
0
100
AcDbPolyline
90
8
70
1
43
0.0
10
-21.15127143859862
20
-9.3926574266287854
10
-3.3887714385986278
20
-9.3926574212463976
42
-0.41421356237309503
10
-2.8887714385986296
20
-9.8926574212463958
10
-2.8887714439810352
20
-22.89265728130416
42
-0.41421356237309503
10
-3.3887714385986278
20
-23.392657275921749
10
-21.15127143859862
20
-23.392657281304157
42
-0.41421356237309503
10
-21.65127143859862
20
-22.89265728130416
10
-21.65127143321623
20
-9.8926574212463958
42
-0.41421356237309503
0
LWPOLYLINE
5
332
100
AcDbEntity
8
0
100
AcDbPolyline
90
8
70
1
43
0.0
10
-40.201271438598624
20
-9.3926574266287854
10
-27.201271438598624
20
-9.3926574212463976
42
-0.41421356237309503
10
-26.701271438598624
20
-9.8926574212463958
10
-26.701271443981014
20
-22.89265728130416
42
-0.41421356237309503
10
-27.201271438598624
20
-23.392657275921771
10
-40.201271438598624
20
-23.392657281304157
42
-0.41421356237309503
10
-40.701271438598624
20
-22.89265728130416
10
-40.701271433216235
20
-9.8926574212463958
42
-0.41421356237309503
0
ENDSEC
0
SECTION
2
OBJECTS
0
DICTIONARY
5
C
100
AcDbDictionary
3
ACAD_GROUP
350
D
3
ACAD_MLINESTYLE
350
17
0
DICTIONARY
5
D
100
AcDbDictionary
0
DICTIONARY
5
1A
330
C
100
AcDbDictionary
0
DICTIONARY
5
17
100
AcDbDictionary
0
ENDSEC
0
EOF
