999
dxfrw 0.6.3
  0
SECTION
  2
HEADER
  9
$ACADVER
  1
AC1021
  9
$DWGCODEPAGE
  3
ANSI_1252
  9
$INSBASE
 10
0
 20
0
 30
0
  9
$EXTMIN
 10
-311
 20
-100.9657040782009
 30
0
  9
$EXTMAX
 10
311
 20
100.9657040782009
 30
0
  9
$LIMMIN
 10
0
 20
0
  9
$LIMMAX
 10
420
 20
297
  9
$ORTHOMODE
 70
    0
  9
$REGENMODE
 70
    1
  9
$FILLMODE
 70
    1
  9
$QTEXTMODE
 70
    0
  9
$MIRRTEXT
 70
    0
  9
$LTSCALE
 40
1
  9
$ATTMODE
 70
    0
  9
$TEXTSIZE
 40
2.5
  9
$TRACEWID
 40
15.68
  9
$TEXTSTYLE
  7
STANDARD
  9
$CLAYER
  8
0
  9
$CELTYPE
  6
BYLAYER
  9
$CECOLOR
 62
  256
  9
$CELTSCALE
 40
1
  9
$DISPSILH
 70
    0
  9
$DIMSCALE
 40
2.5
  9
$DIMASZ
 40
2.5
  9
$DIMEXO
 40
0.625
  9
$DIMDLI
 40
3.75
  9
$DIMRND
 40
0
  9
$DIMDLE
 40
0
  9
$DIMEXE
 40
1.25
  9
$DIMTP
 40
0
  9
$DIMTM
 40
0
  9
$DIMTXT
 40
2.5
  9
$DIMCEN
 40
2.5
  9
$DIMTSZ
 40
0
  9
$DIMTOL
 70
    0
  9
$DIMLIM
 70
    0
  9
$DIMTIH
 70
    0
  9
$DIMTOH
 70
    0
  9
$DIMSE1
 70
    0
  9
$DIMSE2
 70
    0
  9
$DIMTAD
 70
    1
  9
$DIMZIN
 70
    8
  9
$DIMBLK
  1

  9
$DIMASO
 70
    1
  9
$DIMSHO
 70
    1
  9
$DIMPOST
  1

  9
$DIMAPOST
  1

  9
$DIMALT
 70
    0
  9
$DIMALTD
 70
    3
  9
$DIMALTF
 40
0.03937
  9
$DIMLFAC
 40
1
  9
$DIMTOFL
 70
    1
  9
$DIMTVP
 40
0
  9
$DIMTIX
 70
    0
  9
$DIMSOXD
 70
    0
  9
$DIMSAH
 70
    0
  9
$DIMBLK1
  1

  9
$DIMBLK2
  1

  9
$DIMSTYLE
  2
Standard
  9
$DIMCLRD
 70
    0
  9
$DIMCLRE
 70
    0
  9
$DIMCLRT
 70
    0
  9
$DIMTFAC
 40
1
  9
$DIMGAP
 40
0.625
  9
$DIMJUST
 70
    0
  9
$DIMSD1
 70
    0
  9
$DIMSD2
 70
    0
  9
$DIMTOLJ
 70
    0
  9
$DIMTZIN
 70
    8
  9
$DIMALTZ
 70
    0
  9
$DIMALTTZ
 70
    0
  9
$DIMUPT
 70
    0
  9
$DIMDEC
 70
    2
  9
$DIMTDEC
 70
    2
  9
$DIMALTU
 70
    2
  9
$DIMALTTD
 70
    3
  9
$DIMTXSTY
  7
STANDARD
  9
$DIMAUNIT
 70
    0
  9
$DIMADEC
 70
    0
  9
$DIMALTRND
 40
0
  9
$DIMAZIN
 70
    0
  9
$DIMDSEP
 70
   44
  9
$DIMATFIT
 70
    3
  9
$DIMFRAC
 70
    0
  9
$DIMLDRBLK
  1
STANDARD
  9
$DIMLUNIT
 70
    2
  9
$DIMLWD
 70
   -2
  9
$DIMLWE
 70
   -2
  9
$DIMTMOVE
 70
    0
  9
$DIMFXL
 40
1
  9
$DIMFXLON
 70
    0
  9
$DIMJOGANG
 40
0.7854
  9
$DIMTFILL
 70
    0
  9
$DIMTFILLCLR
 70
    0
  9
$DIMARCSYM
 70
    0
  9
$DIMLTYPE
  6

  9
$DIMLTEX1
  6

  9
$DIMLTEX2
  6

  9
$LUNITS
 70
    2
  9
$LUPREC
 70
    4
  9
$SKETCHINC
 40
1
  9
$FILLETRAD
 40
0
  9
$AUNITS
 70
    0
  9
$AUPREC
 70
    2
  9
$MENU
  1
.
  9
$ELEVATION
 40
0
  9
$PELEVATION
 40
0
  9
$THICKNESS
 40
0
  9
$LIMCHECK
 70
    0
  9
$CHAMFERA
 40
0
  9
$CHAMFERB
 40
0
  9
$CHAMFERC
 40
0
  9
$CHAMFERD
 40
0
  9
$SKPOLY
 70
    0
  9
$USRTIMER
 70
    1
  9
$ANGBASE
 50
0
  9
$ANGDIR
 70
    0
  9
$PDMODE
 70
   34
  9
$PDSIZE
 40
0
  9
$PLINEWID
 40
0
  9
$SPLFRAME
 70
    0
  9
$SPLINETYPE
 70
    2
  9
$SPLINESEGS
 70
    8
  9
$HANDSEED
  5
20000
  9
$SURFTAB1
 70
    6
  9
$SURFTAB2
 70
    6
  9
$SURFTYPE
 70
    6
  9
$SURFU
 70
    6
  9
$SURFV
 70
    6
  9
$UCSBASE
  2

  9
$UCSNAME
  2

  9
$UCSORG
 10
0
 20
0
 30
0
  9
$UCSXDIR
 10
1
 20
0
 30
0
  9
$UCSYDIR
 10
0
 20
1
 30
0
  9
$UCSORTHOREF
  2

  9
$UCSORTHOVIEW
 70
    0
  9
$UCSORGTOP
 10
0
 20
0
 30
0
  9
$UCSORGBOTTOM
 10
0
 20
0
 30
0
  9
$UCSORGLEFT
 10
0
 20
0
 30
0
  9
$UCSORGRIGHT
 10
0
 20
0
 30
0
  9
$UCSORGFRONT
 10
0
 20
0
 30
0
  9
$UCSORGBACK
 10
0
 20
0
 30
0
  9
$PUCSBASE
  2

  9
$PUCSNAME
  2

  9
$PUCSORG
 10
0
 20
0
 30
0
  9
$PUCSXDIR
 10
1
 20
0
 30
0
  9
$PUCSYDIR
 10
0
 20
1
 30
0
  9
$PUCSORTHOREF
  2

  9
$PUCSORTHOVIEW
 70
    0
  9
$PUCSORGTOP
 10
0
 20
0
 30
0
  9
$PUCSORGBOTTOM
 10
0
 20
0
 30
0
  9
$PUCSORGLEFT
 10
0
 20
0
 30
0
  9
$PUCSORGRIGHT
 10
0
 20
0
 30
0
  9
$PUCSORGFRONT
 10
0
 20
0
 30
0
  9
$PUCSORGBACK
 10
0
 20
0
 30
0
  9
$USERI1
 70
    0
  9
$USERI2
 70
    0
  9
$USERI3
 70
    0
  9
$USERI4
 70
    0
  9
$USERI5
 70
    0
  9
$USERR1
 40
0
  9
$USERR2
 40
0
  9
$USERR3
 40
0
  9
$USERR4
 40
0
  9
$USERR5
 40
0
  9
$WORLDVIEW
 70
    1
  9
$SHADEDGE
 70
    3
  9
$SHADEDIF
 70
   70
  9
$TILEMODE
 70
    1
  9
$MAXACTVP
 70
   64
  9
$PINSBASE
 10
0
 20
0
 30
0
  9
$PLIMCHECK
 70
    0
  9
$PEXTMIN
 10
0
 20
0
 30
0
  9
$PEXTMAX
 10
0
 20
0
 30
0
  9
$SNAPSTYLE
 70
    0
  9
$PLIMMIN
 10
0
 20
0
  9
$PLIMMAX
 10
210
 20
297
  9
$UNITMODE
 70
    0
  9
$VISRETAIN
 70
    1
  9
$PLINEGEN
 70
    0
  9
$PSLTSCALE
 70
    1
  9
$TREEDEPTH
 70
 3020
  9
$CMLSTYLE
  2
Standard
  9
$CMLJUST
 70
    0
  9
$CMLSCALE
 40
20
  9
$PROXYGRAPHICS
 70
    1
  9
$MEASUREMENT
 70
    1
  9
$CELWEIGHT
370
   -1
  9
$ENDCAPS
280
    0
  9
$JOINSTYLE
280
    0
  9
$LWDISPLAY
290
    0
  9
$INSUNITS
 70
    4
  9
$HYPERLINKBASE
  1

  9
$STYLESHEET
  1

  9
$XEDIT
290
    1
  9
$CEPSNTYPE
380
    0
  9
$PSTYLEMODE
290
    1
  9
$EXTNAMES
290
    1
  9
$PSVPSCALE
 40
1
  9
$OLESTARTUP
290
    0
  9
$SORTENTS
280
  127
  9
$INDEXCTL
280
    0
  9
$HIDETEXT
280
    1
  9
$XCLIPFRAME
290
    0
  9
$HALOGAP
280
    0
  9
$OBSCOLOR
 70
  257
  9
$OBSLTYPE
280
    0
  9
$INTERSECTIONDISPLAY
280
    0
  9
$INTERSECTIONCOLOR
 70
  257
  9
$DIMASSOC
280
    1
  9
$PROJECTNAME
  1

  9
$CAMERADISPLAY
290
    0
  9
$LENSLENGTH
 40
50
  9
$CAMERAHEIGHT
 40
0
  9
$STEPSPERSEC
 40
2
  9
$STEPSIZE
 40
50
  9
$3DDWFPREC
 40
2
  9
$PSOLWIDTH
 40
5
  9
$PSOLHEIGHT
 40
80
  9
$LOFTANG1
 40
1.570796326794897
  9
$LOFTANG2
 40
1.570796326794897
  9
$LOFTMAG1
 40
0
  9
$LOFTMAG2
 40
0
  9
$LOFTPARAM
 70
    7
  9
$LOFTNORMALS
280
    1
  9
$LATITUDE
 40
1
  9
$LONGITUDE
 40
1
  9
$NORTHDIRECTION
 40
0
  9
$TIMEZONE
 70
-8000
  9
$LIGHTGLYPHDISPLAY
280
    1
  9
$TILEMODELIGHTSYNCH
280
    1
  9
$SOLIDHIST
280
    1
  9
$SHOWHIST
280
    1
  9
$DWFFRAME
280
    2
  9
$DGNFRAME
280
    0
  9
$REALWORLDSCALE
290
    1
  9
$INTERFERECOLOR
 62
    1
  9
$CSHADOW
280
    0
  9
$SHADOWPLANELOCATION
 40
0
  0
ENDSEC
  0
SECTION
  2
CLASSES
  0
ENDSEC
  0
SECTION
  2
TABLES
  0
TABLE
  2
VPORT
  5
8
330
0
100
AcDbSymbolTable
 70
    1
  0
VPORT
  5
31
330
2
100
AcDbSymbolTableRecord
100
AcDbViewportTableRecord
  2
*ACTIVE
 70
    0
 10
0
 20
0
 11
1
 21
1
 12
171.4343397776401
 22
95.33799155146824
 13
0
 23
0
 14
10
 24
10
 15
10
 25
10
 16
0
 26
0
 36
1
 17
0
 27
0
 37
0
 40
226.0651361534815
 41
1.88622754491018
 42
50
 43
0
 44
0
 50
0
 51
0
 71
    0
 72
  100
 73
    1
 74
    3
 75
    0
 76
    1
 77
    0
 78
    0
281
    0
 65
    1
110
0
120
0
130
0
111
1
121
0
131
0
112
0
122
1
132
0
 79
    0
146
0
348
10020
 60
    7
 61
    5
292
1
282
    1
141
0
142
0
 63
  250
421
3358443
  0
ENDTAB
  0
TABLE
  2
LTYPE
  5
5
330
0
100
AcDbSymbolTable
 70
    4
  0
LTYPE
  5
14
330
5
100
AcDbSymbolTableRecord
100
AcDbLinetypeTableRecord
  2
ByBlock
 70
    0
  3

 72
   65
 73
    0
 40
0
  0
LTYPE
  5
15
330
5
100
AcDbSymbolTableRecord
100
AcDbLinetypeTableRecord
  2
ByLayer
 70
    0
  3

 72
   65
 73
    0
 40
0
  0
LTYPE
  5
16
330
5
100
AcDbSymbolTableRecord
100
AcDbLinetypeTableRecord
  2
Continuous
 70
    0
  3
Solid line
 72
   65
 73
    0
 40
0
  0
LTYPE
  5
32
330
5
100
AcDbSymbolTableRecord
100
AcDbLinetypeTableRecord
  2
DOT
 70
    0
  3
Dot . . . . . . . . . . . . . . . . . . . . . .
 72
   65
 73
    2
 40
6.35
 49
0
 74
    0
 49
-6.35
 74
    0
  0
LTYPE
  5
33
330
5
100
AcDbSymbolTableRecord
100
AcDbLinetypeTableRecord
  2
DOTTINY
 70
    0
  3
Dot (.15x) .....................................
 72
   65
 73
    2
 40
0.9525
 49
0
 74
    0
 49
-0.9525
 74
    0
  0
LTYPE
  5
34
330
5
100
AcDbSymbolTableRecord
100
AcDbLinetypeTableRecord
  2
DOT2
 70
    0
  3
Dot (.5x) .....................................
 72
   65
 73
    2
 40
3.175
 49
0
 74
    0
 49
-3.175
 74
    0
  0
LTYPE
  5
35
330
5
100
AcDbSymbolTableRecord
100
AcDbLinetypeTableRecord
  2
DOTX2
 70
    0
  3
Dot (2x) .  .  .  .  .  .  .  .  .  .  .  .  .
 72
   65
 73
    2
 40
12.7
 49
0
 74
    0
 49
-12.7
 74
    0
  0
LTYPE
  5
36
330
5
100
AcDbSymbolTableRecord
100
AcDbLinetypeTableRecord
  2
DASHED
 70
    0
  3
Dashed _ _ _ _ _ _ _ _ _ _ _ _ _ _ _ _ _
 72
   65
 73
    2
 40
19.05
 49
12.7
 74
    0
 49
-6.35
 74
    0
  0
LTYPE
  5
37
330
5
100
AcDbSymbolTableRecord
100
AcDbLinetypeTableRecord
  2
DASHEDTINY
 70
    0
  3
Dashed (.15x) _ _ _ _ _ _ _ _ _ _ _ _ _ _ _ _ _
 72
   65
 73
    2
 40
2.8575
 49
1.905
 74
    0
 49
-0.9525
 74
    0
  0
LTYPE
  5
38
330
5
100
AcDbSymbolTableRecord
100
AcDbLinetypeTableRecord
  2
DASHED2
 70
    0
  3
Dashed (.5x) _ _ _ _ _ _ _ _ _ _ _ _ _ _ _ _ _
 72
   65
 73
    2
 40
9.524999999999999
 49
6.35
 74
    0
 49
-3.175
 74
    0
  0
LTYPE
  5
39
330
5
100
AcDbSymbolTableRecord
100
AcDbLinetypeTableRecord
  2
DASHEDX2
 70
    0
  3
Dashed (2x) ____  ____  ____  ____  ____  ___
 72
   65
 73
    2
 40
38.09999999999999
 49
25.4
 74
    0
 49
-12.7
 74
    0
  0
LTYPE
  5
3A
330
5
100
AcDbSymbolTableRecord
100
AcDbLinetypeTableRecord
  2
DASHDOT
 70
    0
  3
Dash dot __ . __ . __ . __ . __ . __ . __ . __
 72
   65
 73
    4
 40
25.4
 49
12.7
 74
    0
 49
-6.35
 74
    0
 49
0
 74
    0
 49
-6.35
 74
    0
  0
LTYPE
  5
3B
330
5
100
AcDbSymbolTableRecord
100
AcDbLinetypeTableRecord
  2
DASHDOTTINY
 70
    0
  3
Dash dot (.15x) _._._._._._._._._._._._._._._.
 72
   65
 73
    4
 40
3.81
 49
1.905
 74
    0
 49
-0.9525
 74
    0
 49
0
 74
    0
 49
-0.9525
 74
    0
  0
LTYPE
  5
3C
330
5
100
AcDbSymbolTableRecord
100
AcDbLinetypeTableRecord
  2
DASHDOT2
 70
    0
  3
Dash dot (.5x) _._._._._._._._._._._._._._._.
 72
   65
 73
    4
 40
12.7
 49
6.35
 74
    0
 49
-3.175
 74
    0
 49
0
 74
    0
 49
-3.175
 74
    0
  0
LTYPE
  5
3D
330
5
100
AcDbSymbolTableRecord
100
AcDbLinetypeTableRecord
  2
DASHDOTX2
 70
    0
  3
Dash dot (2x) ____  .  ____  .  ____  .  ___
 72
   65
 73
    4
 40
50.8
 49
25.4
 74
    0
 49
-12.7
 74
    0
 49
0
 74
    0
 49
-12.7
 74
    0
  0
LTYPE
  5
3E
330
5
100
AcDbSymbolTableRecord
100
AcDbLinetypeTableRecord
  2
DIVIDE
 70
    0
  3
Divide ____ . . ____ . . ____ . . ____ . . ____
 72
   65
 73
    6
 40
31.75
 49
12.7
 74
    0
 49
-6.35
 74
    0
 49
0
 74
    0
 49
-6.35
 74
    0
 49
0
 74
    0
 49
-6.35
 74
    0
  0
LTYPE
  5
3F
330
5
100
AcDbSymbolTableRecord
100
AcDbLinetypeTableRecord
  2
DIVIDETINY
 70
    0
  3
Divide (.15x) __..__..__..__..__..__..__..__.._
 72
   65
 73
    6
 40
4.7625
 49
1.905
 74
    0
 49
-0.9525
 74
    0
 49
0
 74
    0
 49
-0.9525
 74
    0
 49
0
 74
    0
 49
-0.9525
 74
    0
  0
LTYPE
  5
40
330
5
100
AcDbSymbolTableRecord
100
AcDbLinetypeTableRecord
  2
DIVIDE2
 70
    0
  3
Divide (.5x) __..__..__..__..__..__..__..__.._
 72
   65
 73
    6
 40
15.875
 49
6.35
 74
    0
 49
-3.175
 74
    0
 49
0
 74
    0
 49
-3.175
 74
    0
 49
0
 74
    0
 49
-3.175
 74
    0
  0
LTYPE
  5
41
330
5
100
AcDbSymbolTableRecord
100
AcDbLinetypeTableRecord
  2
DIVIDEX2
 70
    0
  3
Divide (2x) ________  .  .  ________  .  .  _
 72
   65
 73
    6
 40
63.5
 49
25.4
 74
    0
 49
-12.7
 74
    0
 49
0
 74
    0
 49
-12.7
 74
    0
 49
0
 74
    0
 49
-12.7
 74
    0
  0
LTYPE
  5
42
330
5
100
AcDbSymbolTableRecord
100
AcDbLinetypeTableRecord
  2
BORDER
 70
    0
  3
Border __ __ . __ __ . __ __ . __ __ . __ __ .
 72
   65
 73
    6
 40
44.45
 49
12.7
 74
    0
 49
-6.35
 74
    0
 49
12.7
 74
    0
 49
-6.35
 74
    0
 49
0
 74
    0
 49
-6.35
 74
    0
  0
LTYPE
  5
43
330
5
100
AcDbSymbolTableRecord
100
AcDbLinetypeTableRecord
  2
BORDERTINY
 70
    0
  3
Border (.15x) __.__.__.__.__.__.__.__.__.__.__.
 72
   65
 73
    6
 40
6.6675
 49
1.905
 74
    0
 49
-0.9525
 74
    0
 49
1.905
 74
    0
 49
-0.9525
 74
    0
 49
0
 74
    0
 49
-0.9525
 74
    0
  0
LTYPE
  5
44
330
5
100
AcDbSymbolTableRecord
100
AcDbLinetypeTableRecord
  2
BORDER2
 70
    0
  3
Border (.5x) __.__.__.__.__.__.__.__.__.__.__.
 72
   65
 73
    6
 40
22.225
 49
6.35
 74
    0
 49
-3.175
 74
    0
 49
6.35
 74
    0
 49
-3.175
 74
    0
 49
0
 74
    0
 49
-3.175
 74
    0
  0
LTYPE
  5
45
330
5
100
AcDbSymbolTableRecord
100
AcDbLinetypeTableRecord
  2
BORDERX2
 70
    0
  3
Border (2x) ____  ____  .  ____  ____  .  ___
 72
   65
 73
    6
 40
88.89999999999999
 49
25.4
 74
    0
 49
-12.7
 74
    0
 49
25.4
 74
    0
 49
-12.7
 74
    0
 49
0
 74
    0
 49
-12.7
 74
    0
  0
LTYPE
  5
46
330
5
100
AcDbSymbolTableRecord
100
AcDbLinetypeTableRecord
  2
CENTER
 70
    0
  3
Center ____ _ ____ _ ____ _ ____ _ ____ _ ____
 72
   65
 73
    4
 40
50.8
 49
31.75
 74
    0
 49
-6.35
 74
    0
 49
6.35
 74
    0
 49
-6.35
 74
    0
  0
LTYPE
  5
47
330
5
100
AcDbSymbolTableRecord
100
AcDbLinetypeTableRecord
  2
CENTERTINY
 70
    0
  3
Center (.15x) ___ _ ___ _ ___ _ ___ _ ___ _ ___
 72
   65
 73
    4
 40
7.62
 49
4.7625
 74
    0
 49
-0.9525
 74
    0
 49
0.9525
 74
    0
 49
-0.9525
 74
    0
  0
LTYPE
  5
48
330
5
100
AcDbSymbolTableRecord
100
AcDbLinetypeTableRecord
  2
CENTER2
 70
    0
  3
Center (.5x) ___ _ ___ _ ___ _ ___ _ ___ _ ___
 72
   65
 73
    4
 40
28.575
 49
19.05
 74
    0
 49
-3.175
 74
    0
 49
3.175
 74
    0
 49
-3.175
 74
    0
  0
LTYPE
  5
49
330
5
100
AcDbSymbolTableRecord
100
AcDbLinetypeTableRecord
  2
CENTERX2
 70
    0
  3
Center (2x) ________  __  ________  __  _____
 72
   65
 73
    4
 40
101.6
 49
63.5
 74
    0
 49
-12.7
 74
    0
 49
12.7
 74
    0
 49
-12.7
 74
    0
  0
ENDTAB
  0
TABLE
  2
LAYER
  5
2
330
0
100
AcDbSymbolTable
 70
    1
  0
LAYER
  5
10
330
2
100
AcDbSymbolTableRecord
100
AcDbLayerTableRecord
  2
0
 70
    0
 62
    7
  6
CONTINUOUS
370
   -3
390
F
  0
ENDTAB
  0
TABLE
  2
STYLE
  5
3
330
0
100
AcDbSymbolTable
 70
    3
  0
STYLE
  5
4A
330
2
100
AcDbSymbolTableRecord
100
AcDbTextStyleTableRecord
  2
Standard
 70
    0
 40
0
 41
1
 50
0
 71
    0
 42
1
  3
txt
  4

  0
ENDTAB
  0
TABLE
  2
VIEW
  5
6
330
0
100
AcDbSymbolTable
 70
    0
  0
ENDTAB
  0
TABLE
  2
UCS
  5
7
330
0
100
AcDbSymbolTable
 70
    0
  0
ENDTAB
  0
TABLE
  2
APPID
  5
9
330
0
100
AcDbSymbolTable
 70
    1
  0
APPID
  5
12
330
9
100
AcDbSymbolTableRecord
100
AcDbRegAppTableRecord
  2
ACAD
 70
    0
  0
APPID
  5
4B
330
9
100
AcDbSymbolTableRecord
100
AcDbRegAppTableRecord
  2
LibreCad
 70
    0
  0
ENDTAB
  0
TABLE
  2
DIMSTYLE
  5
A
330
0
100
AcDbSymbolTable
 70
    1
100
AcDbDimStyleTable
 71
    1
  0
DIMSTYLE
105
4C
330
A
100
AcDbSymbolTableRecord
100
AcDbDimStyleTableRecord
  2
Standard
 70
    0
 40
1
 41
2.5
 42
0.625
 43
0.38
 44
1.25
 45
0
 46
0
 47
0
 48
0
 49
1
140
2.5
141
0.09
142
2.5
143
25.4
144
1
145
0
146
1
147
0.625
148
0
 71
    0
 72
    0
 73
    0
 74
    1
 75
    0
 76
    0
 77
    0
 78
    1
 79
    0
170
    0
171
    2
172
    0
173
    0
174
    0
175
    0
176
    0
177
    0
178
    0
179
    0
271
    2
272
    4
273
    2
274
    2
275
    0
276
    0
277
    2
278
    0
279
    0
280
    0
281
    0
282
    0
283
    1
284
    0
285
    0
286
    0
288
    0
289
    3
340
standard
341

371
   -2
372
   -2
  0
ENDTAB
  0
TABLE
  2
BLOCK_RECORD
  5
1
330
0
100
AcDbSymbolTable
 70
    2
  0
BLOCK_RECORD
  5
1F
330
1
100
AcDbSymbolTableRecord
100
AcDbBlockTableRecord
  2
*Model_Space
 70
    0
280
    1
281
    0
  0
BLOCK_RECORD
  5
1E
330
1
100
AcDbSymbolTableRecord
100
AcDbBlockTableRecord
  2
*Paper_Space
 70
    0
280
    1
281
    0
  0
ENDTAB
  0
ENDSEC
  0
SECTION
  2
BLOCKS
  0
BLOCK
  5
20
330
1F
100
AcDbEntity
  8
0
100
AcDbBlockBegin
  2
*Model_Space
 70
    0
 10
0
 20
0
 30
0
  3
*Model_Space
  1

  0
ENDBLK
  5
21
330
1F
100
AcDbEntity
  8
0
100
AcDbBlockEnd
  0
BLOCK
  5
1C
330
1B
100
AcDbEntity
  8
0
100
AcDbBlockBegin
  2
*Paper_Space
 70
    0
 10
0
 20
0
 30
0
  3
*Paper_Space
  1

  0
ENDBLK
  5
1D
330
1F
100
AcDbEntity
  8
0
100
AcDbBlockEnd
  0
ENDSEC
  0
SECTION
  2
ENTITIES
  0
LWPOLYLINE
  5
4D
100
AcDbEntity
  8
0
  6
ByLayer
 62
  256
370
   -1
100
AcDbPolyline
 90
    7
 70
    1
 43
0
 10
33.69375
 20
17.26570407820098
 10
33.69375
 20
3.765704078200896
 10
49.575
 20
3.765704078200888
 42
0.4142135623730981
 10
50.075
 20
4.265704078200894
 10
50.075
 20
17.26570407820097
 42
0.4142135623730971
 10
49.575
 20
17.76570407820098
 10
34.19375000000001
 20
17.76570407820098
 42
0.4142135623730888
  0
LWPOLYLINE
  5
4E
100
AcDbEntity
  8
0
  6
ByLayer
 62
  256
370
   -1
100
AcDbPolyline
 90
    8
 70
    1
 43
0
 10
173.9
 20
80.46570407820086
 10
173.9
 20
93.46570407820087
 42
0.4142135623731034
 10
173.4
 20
93.96570407820089
 10
160.4
 20
93.9657040782009
 42
0.4142135623731034
 10
159.9
 20
93.46570407820087
 10
159.9
 20
80.46570407820086
 42
0.414213562373095
 10
160.4
 20
79.96570407820086
 10
173.4
 20
79.96570407820086
 42
0.414213562373095
  0
LWPOLYLINE
  5
4F
100
AcDbEntity
  8
0
  6
ByLayer
 62
  256
370
   -1
100
AcDbPolyline
 90
    8
 70
    1
 43
0
 10
78.65000000000002
 20
80.46570407820086
 10
78.65000000000001
 20
93.46570407820087
 42
0.414213562373095
 10
78.15000000000002
 20
93.96570407820089
 10
65.15000000000002
 20
93.96570407820086
 42
0.4142135623730867
 10
64.65000000000002
 20
93.46570407820087
 10
64.65000000000002
 20
80.46570407820086
 42
0.414213562373095
 10
65.15000000000002
 20
79.96570407820086
 10
78.15000000000002
 20
79.96570407820086
 42
0.414213562373095
  0
LWPOLYLINE
  5
50
100
AcDbEntity
  8
0
  6
ByLayer
 62
  256
370
   -1
100
AcDbPolyline
 90
    8
 70
    1
 43
0
 10
59.60000000000002
 20
80.46570407820086
 10
59.60000000000002
 20
93.46570407820087
 42
0.4142135623731034
 10
59.10000000000002
 20
93.9657040782009
 10
46.10000000000002
 20
93.9657040782009
 42
0.414213562373095
 10
45.60000000000002
 20
93.46570407820089
 10
45.60000000000002
 20
80.46570407820087
 42
0.414213562373095
 10
46.10000000000001
 20
79.96570407820089
 10
59.10000000000001
 20
79.96570407820086
 42
0.4142135623731034
  0
LWPOLYLINE
  5
51
100
AcDbEntity
  8
0
  6
ByLayer
 62
  256
370
   -1
100
AcDbPolyline
 90
    8
 70
    1
 43
0
 10
83.70000000000003
 20
93.46570407820087
 10
83.70000000000005
 20
80.46570407820086
 42
0.4142135623730867
 10
84.20000000000002
 20
79.96570407820087
 10
97.20000000000002
 20
79.96570407820087
 42
0.414213562373095
 10
97.70000000000003
 20
80.46570407820086
 10
97.70000000000003
 20
93.46570407820087
 42
0.4142135623731034
 10
97.20000000000002
 20
93.9657040782009
 10
84.20000000000002
 20
93.96570407820084
 42
0.4142135623730784
  0
CIRCLE
  5
52
100
AcDbEntity
  8
0
  6
ByLayer
 62
  256
370
   -1
100
AcDbCircle
 10
111.9
 20
98.96570407820086
 40
1.099999999999994
  0
CIRCLE
  5
53
100
AcDbEntity
  8
0
  6
ByLayer
 62
  256
370
   -1
100
AcDbCircle
 10
31.40000000000001
 20
98.96570407820087
 40
1.099999999999999
  0
LWPOLYLINE
  5
54
100
AcDbEntity
  8
0
  6
ByLayer
 62
  256
370
   -1
100
AcDbPolyline
 90
    8
 70
    1
 43
0
 10
250.1
 20
80.46570407820084
 10
250.1
 20
93.46570407820086
 42
0.4142135623731034
 10
249.6
 20
93.96570407820087
 10
236.6
 20
93.96570407820084
 42
0.4142135623730867
 10
236.1
 20
93.46570407820086
 10
236.1000000000001
 20
80.46570407820084
 42
0.4142135623730867
 10
236.6
 20
79.96570407820084
 10
249.6
 20
79.96570407820084
 42
0.414213562373095
  0
LWPOLYLINE
  5
55
100
AcDbEntity
  8
0
  6
ByLayer
 62
  256
370
   -1
100
AcDbPolyline
 90
    8
 70
    1
 43
0
 10
231.05
 20
80.46570407820084
 10
231.05
 20
93.46570407820086
 42
0.4142135623731034
 10
230.55
 20
93.96570407820087
 10
217.55
 20
93.96570407820084
 42
0.4142135623730867
 10
217.05
 20
93.46570407820086
 10
217.0500000000001
 20
80.46570407820084
 42
0.414213562373095
 10
217.55
 20
79.96570407820084
 10
230.55
 20
79.96570407820084
 42
0.414213562373095
  0
CIRCLE
  5
56
100
AcDbEntity
  8
0
  6
ByLayer
 62
  256
370
   -1
100
AcDbCircle
 10
283.35
 20
98.96570407820084
 40
1.099999999999994
  0
LWPOLYLINE
  5
57
100
AcDbEntity
  8
0
  6
ByLayer
 62
  256
370
   -1
100
AcDbPolyline
 90
    8
 70
    1
 43
0
 10
140.85
 20
93.46570407820087
 10
140.8500000000001
 20
80.46570407820086
 42
0.4142135623730867
 10
141.35
 20
79.96570407820086
 10
154.35
 20
79.96570407820086
 42
0.414213562373095
 10
154.85
 20
80.46570407820086
 10
154.8500000000001
 20
93.46570407820087
 42
0.4142135623731117
 10
154.35
 20
93.96570407820089
 10
141.35
 20
93.9657040782009
 42
0.414213562373095
  0
CIRCLE
  5
58
100
AcDbEntity
  8
0
  6
ByLayer
 62
  256
370
   -1
100
AcDbCircle
 10
282.990625
 20
-1.234295921799157
 40
1.099999999999994
  0
CIRCLE
  5
59
100
AcDbEntity
  8
0
  6
ByLayer
 62
  256
370
   -1
100
AcDbCircle
 10
202.490625
 20
-1.234295921799147
 40
1.10000000000003
  0
CIRCLE
  5
5A
100
AcDbEntity
  8
0
  6
ByLayer
 62
  256
370
   -1
100
AcDbCircle
 10
34.978125
 20
-1.234295921799126
 40
1.100000000000003
  0
LWPOLYLINE
  5
5B
100
AcDbEntity
  8
0
  6
ByLayer
 62
  256
370
   -1
100
AcDbPolyline
 90
    8
 70
    1
 43
0
 10
26.2625
 20
4.265704078200917
 10
26.26250000000001
 20
17.26570407820098
 42
0.414213562373095
 10
25.7625
 20
17.76570407820098
 10
10.38125
 20
17.76570407820099
 42
0.4142135623731003
 10
9.881249999999962
 20
17.26570407820098
 10
9.881250000000001
 20
4.2657040782009
 42
0.4142135623730966
 10
10.38125
 20
3.76570407820091
 10
25.7625
 20
3.765704078200917
 42
0.4142135623730961
  0
LWPOLYLINE
  5
5C
100
AcDbEntity
  8
0
  6
ByLayer
 62
  256
370
   -1
100
AcDbPolyline
 90
    8
 70
    1
 43
0
 10
255.65
 20
3.765704078200889
 10
268.9
 20
3.765704078200847
 42
0.4142135623730961
 10
269.15
 20
4.015704078200849
 10
269.15
 20
17.26570407820085
 42
0.414213562373095
 10
268.65
 20
17.76570407820085
 10
255.65
 20
17.76570407820086
 42
0.4142135623730971
 10
255.15
 20
17.26570407820085
 10
255.15
 20
4.26570407820086
 42
0.4142135623730945
  0
LWPOLYLINE
  5
5D
100
AcDbEntity
  8
0
  6
ByLayer
 62
  256
370
   -1
100
AcDbPolyline
 90
    8
 70
    1
 43
0
 10
293.75
 20
41.86570407820085
 10
306.75
 20
41.86570407820085
 42
0.414213562373095
 10
307.25
 20
42.36570407820085
 10
307.2500000000001
 20
55.36570407820084
 42
0.4142135623730825
 10
306.75
 20
55.86570407820086
 10
293.75
 20
55.86570407820084
 42
0.414213562373095
 10
293.25
 20
55.36570407820084
 10
293.25
 20
42.36570407820085
 42
0.414213562373095
  0
LWPOLYLINE
  5
5E
100
AcDbEntity
  8
0
  6
ByLayer
 62
  256
370
   -1
100
AcDbPolyline
 90
    8
 70
    1
 43
0
 10
293.75
 20
60.91570407820085
 10
306.75
 20
60.91570407820085
 42
0.414213562373095
 10
307.25
 20
61.41570407820085
 10
307.2500000000001
 20
74.41570407820085
 42
0.4142135623730784
 10
306.75
 20
74.91570407820085
 10
293.75
 20
74.91570407820085
 42
0.414213562373095
 10
293.25
 20
74.41570407820085
 10
293.25
 20
61.41570407820085
 42
0.414213562373095
  0
LWPOLYLINE
  5
5F
100
AcDbEntity
  8
0
  6
ByLayer
 62
  256
370
   -1
100
AcDbPolyline
 90
    8
 70
    1
 43
0
 10
221.025
 20
74.91570407820086
 10
208.025
 20
74.91570407820086
 42
0.4142135623730867
 10
207.525
 20
74.41570407820086
 10
207.525
 20
61.41570407820086
 42
0.414213562373095
 10
208.025
 20
60.91570407820086
 10
221.025
 20
60.91570407820086
 42
0.414213562373095
 10
221.525
 20
61.41570407820086
 10
221.5250000000001
 20
74.41570407820086
 42
0.4142135623730867
  0
LWPOLYLINE
  5
60
100
AcDbEntity
  8
0
  6
ByLayer
 62
  256
370
   -1
100
AcDbPolyline
 90
    8
 70
    1
 43
0
 10
163.875
 20
74.91570407820087
 10
150.875
 20
74.91570407820087
 42
0.414213562373095
 10
150.375
 20
74.41570407820087
 10
150.375
 20
61.41570407820087
 42
0.4142135623730867
 10
150.875
 20
60.91570407820087
 10
163.875
 20
60.91570407820085
 42
0.4142135623730992
 10
164.375
 20
61.41570407820087
 10
164.375
 20
74.41570407820087
 42
0.4142135623730867
  0
LWPOLYLINE
  5
61
100
AcDbEntity
  8
0
  6
ByLayer
 62
  256
370
   -1
100
AcDbPolyline
 90
    8
 70
    1
 43
0
 10
226.575
 20
74.41570407820086
 42
-0.414213562373095
 10
227.075
 20
74.91570407820086
 10
240.075
 20
74.91570407820083
 42
-0.4142135623730867
 10
240.575
 20
74.41570407820086
 10
240.575
 20
61.41570407820086
 42
-0.4142135623730867
 10
240.075
 20
60.91570407820086
 10
227.075
 20
60.91570407820089
 42
-0.414213562373095
 10
226.575
 20
61.41570407820086
  0
LWPOLYLINE
  5
62
100
AcDbEntity
  8
0
  6
ByLayer
 62
  256
370
   -1
100
AcDbPolyline
 90
    8
 70
    1
 43
0
 10
183.7125
 20
36.31570407820087
 42
-0.4142135623730992
 10
184.2125
 20
36.81570407820088
 10
197.2125
 20
36.81570407820091
 42
-0.4142135623730909
 10
197.7125000000001
 20
36.31570407820087
 10
197.7125000000001
 20
23.31570407820086
 42
-0.4142135623731054
 10
197.2125
 20
22.81570407820085
 10
184.2125
 20
22.81570407820082
 42
-0.4142135623730992
 10
183.7125
 20
23.31570407820086
  0
LWPOLYLINE
  5
63
100
AcDbEntity
  8
0
  6
ByLayer
 62
  256
370
   -1
100
AcDbPolyline
 90
    8
 70
    1
 43
0
 10
235.3125
 20
36.81570407820086
 10
222.3125
 20
36.81570407820086
 42
0.414213562373095
 10
221.8125
 20
36.31570407820086
 10
221.8125000000001
 20
23.31570407820085
 42
0.4142135623730867
 10
222.3125
 20
22.81570407820085
 10
235.3125
 20
22.81570407820085
 42
0.4142135623730971
 10
235.8125
 20
23.31570407820085
 10
235.8125
 20
36.31570407820086
 42
0.4142135623731034
  0
LWPOLYLINE
  5
64
100
AcDbEntity
  8
0
  6
ByLayer
 62
  256
370
   -1
100
AcDbPolyline
 90
    8
 70
    1
 43
0
 10
107.225
 20
61.41570407820087
 10
107.225
 20
74.41570407820087
 42
0.414213562373095
 10
106.725
 20
74.91570407820087
 10
93.72500000000002
 20
74.91570407820087
 42
0.4142135623730867
 10
93.22500000000001
 20
74.41570407820087
 10
93.22500000000004
 20
61.41570407820087
 42
0.4142135623730909
 10
93.72500000000002
 20
60.91570407820087
 10
106.725
 20
60.91570407820087
 42
0.414213562373095
  0
LWPOLYLINE
  5
65
100
AcDbEntity
  8
0
  6
ByLayer
 62
  256
370
   -1
100
AcDbPolyline
 90
    8
 70
    1
 43
0
 10
63.86250000000001
 20
36.81570407820088
 10
50.8625
 20
36.81570407820088
 42
0.414213562373095
 10
50.3625
 20
36.31570407820088
 10
50.3625
 20
23.31570407820087
 42
0.414213562373095
 10
50.8625
 20
22.81570407820087
 10
63.8625
 20
22.81570407820087
 42
0.414213562373095
 10
64.3625
 20
23.31570407820087
 10
64.3625
 20
36.31570407820088
 42
0.414213562373095
  0
LWPOLYLINE
  5
66
100
AcDbEntity
  8
0
  6
ByLayer
 62
  256
370
   -1
100
AcDbPolyline
 90
    8
 70
    1
 43
0
 10
26.26250000000001
 20
61.41570407820089
 10
26.26250000000002
 20
74.41570407820089
 42
0.4142135623730971
 10
25.76250000000001
 20
74.91570407820089
 10
12.76250000000001
 20
74.91570407820089
 42
0.414213562373095
 10
12.26250000000001
 20
74.41570407820089
 10
12.26250000000001
 20
61.41570407820089
 42
0.414213562373094
 10
12.76250000000001
 20
60.91570407820089
 10
25.76250000000001
 20
60.91570407820087
 42
0.4142135623730971
  0
LWPOLYLINE
  5
67
100
AcDbEntity
  8
0
  6
ByLayer
 62
  256
370
   -1
100
AcDbPolyline
 90
    8
 70
    1
 43
0
 10
261.50625
 20
36.81570407820085
 10
248.50625
 20
36.81570407820086
 42
0.4142135623730867
 10
248.00625
 20
36.31570407820086
 10
248.00625
 20
23.31570407820085
 42
0.414213562373095
 10
248.50625
 20
22.81570407820085
 10
261.50625
 20
22.81570407820084
 42
0.4142135623730971
 10
262.00625
 20
23.31570407820085
 10
262.00625
 20
36.31570407820085
 42
0.414213562373095
  0
LWPOLYLINE
  5
68
100
AcDbEntity
  8
0
  6
ByLayer
 62
  256
370
   -1
100
AcDbPolyline
 90
    8
 70
    1
 43
0
 10
287.7
 20
36.81570407820085
 10
274.7
 20
36.81570407820085
 42
0.4142135623730784
 10
274.2
 20
36.31570407820085
 10
274.2
 20
23.31570407820085
 42
0.4142135623730784
 10
274.7
 20
22.81570407820085
 10
287.7
 20
22.81570407820084
 42
0.4142135623730971
 10
288.2
 20
23.31570407820085
 10
288.2
 20
36.31570407820085
 42
0.414213562373095
  0
LWPOLYLINE
  5
69
100
AcDbEntity
  8
0
  6
ByLayer
 62
  256
370
   -1
100
AcDbPolyline
 90
    8
 70
    1
 43
0
 10
130.5375
 20
55.86570407820088
 10
117.5375
 20
55.86570407820088
 42
0.4142135623730992
 10
117.0375
 20
55.36570407820086
 10
117.0375
 20
42.36570407820087
 42
0.414213562373095
 10
117.5375
 20
41.86570407820087
 10
130.5375
 20
41.86570407820087
 42
0.4142135623731034
 10
131.0375
 20
42.36570407820087
 10
131.0375
 20
55.36570407820086
 42
0.4142135623730992
  0
LWPOLYLINE
  5
6A
100
AcDbEntity
  8
0
  6
ByLayer
 62
  256
370
   -1
100
AcDbPolyline
 90
    8
 70
    1
 43
0
 10
125.775
 20
74.91570407820087
 10
112.775
 20
74.91570407820086
 42
0.414213562373095
 10
112.275
 20
74.41570407820087
 10
112.275
 20
61.41570407820087
 42
0.4142135623730992
 10
112.775
 20
60.91570407820087
 10
125.775
 20
60.91570407820086
 42
0.4142135623730992
 10
126.275
 20
61.41570407820087
 10
126.275
 20
74.41570407820087
 42
0.414213562373095
  0
LWPOLYLINE
  5
6B
100
AcDbEntity
  8
0
  6
ByLayer
 62
  256
370
   -1
100
AcDbPolyline
 90
    8
 70
    1
 43
0
 10
101.9625
 20
36.81570407820087
 10
88.96249999999992
 20
36.81570407820087
 42
0.4142135623730909
 10
88.46249999999992
 20
36.31570407820087
 10
88.46249999999992
 20
23.31570407820087
 42
0.4142135623730909
 10
88.96249999999992
 20
22.81570407820087
 10
101.9625
 20
22.81570407820086
 42
0.4142135623730929
 10
102.4625
 20
23.31570407820087
 10
102.4625
 20
36.31570407820087
 42
0.4142135623730909
  0
LWPOLYLINE
  5
6C
100
AcDbEntity
  8
0
  6
ByLayer
 62
  256
370
   -1
100
AcDbPolyline
 90
    8
 70
    1
 43
0
 10
111.9875
 20
42.36570407820087
 10
111.9875
 20
55.36570407820086
 42
0.414213562373095
 10
111.4875
 20
55.86570407820088
 10
98.48750000000001
 20
55.86570407820086
 42
0.4142135623730909
 10
97.98750000000001
 20
55.36570407820086
 10
97.98750000000001
 20
42.36570407820087
 42
0.414213562373095
 10
98.48750000000001
 20
41.86570407820087
 10
111.4875
 20
41.86570407820087
 42
0.4142135623730992
  0
LWPOLYLINE
  5
6D
100
AcDbEntity
  8
0
  6
ByLayer
 62
  256
370
   -1
100
AcDbPolyline
 90
    8
 70
    1
 43
0
 10
187.6875
 20
55.86570407820087
 10
174.6875
 20
55.86570407820087
 42
0.4142135623730992
 10
174.1875
 20
55.36570407820086
 10
174.1874999999999
 20
42.36570407820086
 42
0.414213562373095
 10
174.6875
 20
41.86570407820086
 10
187.6875
 20
41.86570407820086
 42
0.414213562373095
 10
188.1875
 20
42.36570407820086
 10
188.1875000000001
 20
55.36570407820086
 42
0.4142135623730992
  0
LWPOLYLINE
  5
6E
100
AcDbEntity
  8
0
  6
ByLayer
 62
  256
370
   -1
100
AcDbPolyline
 90
    8
 70
    1
 43
0
 10
68.62500000000001
 20
74.91570407820087
 10
55.62500000000001
 20
74.91570407820089
 42
0.414213562373095
 10
55.12500000000001
 20
74.41570407820089
 10
55.12500000000001
 20
61.41570407820088
 42
0.414213562373095
 10
55.62500000000001
 20
60.91570407820088
 10
68.62500000000001
 20
60.91570407820088
 42
0.414213562373095
 10
69.12500000000001
 20
61.41570407820088
 10
69.12500000000003
 20
74.41570407820087
 42
0.414213562373095
  0
LWPOLYLINE
  5
6F
100
AcDbEntity
  8
0
  6
ByLayer
 62
  256
370
   -1
100
AcDbPolyline
 90
    8
 70
    1
 43
0
 10
178.1625
 20
36.81570407820096
 10
165.1625
 20
36.81570407820087
 42
0.414213562373095
 10
164.6625
 20
36.31570407820087
 10
164.6624999999999
 20
23.31570407820086
 42
0.4142135623731034
 10
165.1625
 20
22.81570407820086
 10
178.1625
 20
22.81570407820085
 42
0.4142135623731054
 10
178.6625000000001
 20
23.31570407820086
 10
178.6625000000001
 20
36.31570407820087
 42
0.4142135623730909
  0
LWPOLYLINE
  5
70
100
AcDbEntity
  8
0
  6
ByLayer
 62
  256
370
   -1
100
AcDbPolyline
 90
    8
 70
    1
 43
0
 10
78.9375
 20
55.36570407820087
 42
-0.414213562373095
 10
79.4375
 20
55.86570407820087
 10
92.4375
 20
55.86570407820088
 42
-0.4142135623730867
 10
92.9375
 20
55.36570407820086
 10
92.9375
 20
42.36570407820087
 42
-0.414213562373095
 10
92.4375
 20
41.86570407820087
 10
79.4375
 20
41.86570407820086
 42
-0.4142135623730992
 10
78.9375
 20
42.36570407820088
  0
LWPOLYLINE
  5
71
100
AcDbEntity
  8
0
  6
ByLayer
 62
  256
370
   -1
100
AcDbPolyline
 90
    8
 70
    1
 43
0
 10
54.33750000000001
 20
55.86570407820088
 10
41.33750000000001
 20
55.86570407820088
 42
0.4142135623730909
 10
40.83750000000001
 20
55.36570407820087
 10
40.83750000000002
 20
42.36570407820088
 42
0.414213562373095
 10
41.33750000000001
 20
41.86570407820087
 10
54.33750000000001
 20
41.86570407820088
 42
0.414213562373095
 10
54.83750000000002
 20
42.36570407820088
 10
54.83750000000001
 20
55.36570407820087
 42
0.414213562373095
  0
LWPOLYLINE
  5
72
100
AcDbEntity
  8
0
  6
ByLayer
 62
  256
370
   -1
100
AcDbPolyline
 90
    8
 70
    1
 43
0
 10
259.125
 20
74.91570407820086
 10
246.125
 20
74.91570407820086
 42
0.414213562373095
 10
245.625
 20
74.41570407820086
 10
245.625
 20
61.41570407820086
 42
0.4142135623731034
 10
246.125
 20
60.91570407820086
 10
259.125
 20
60.91570407820086
 42
0.414213562373095
 10
259.625
 20
61.41570407820086
 10
259.625
 20
74.41570407820086
 42
0.414213562373095
  0
LWPOLYLINE
  5
73
100
AcDbEntity
  8
0
  6
ByLayer
 62
  256
370
   -1
100
AcDbPolyline
 90
    8
 70
    1
 43
0
 10
206.7375
 20
55.86570407820086
 10
193.7375
 20
55.86570407820087
 42
0.4142135623731075
 10
193.2375
 20
55.36570407820086
 10
193.2375
 20
42.36570407820086
 42
0.4142135623731034
 10
193.7375
 20
41.86570407820086
 10
206.7375
 20
41.86570407820086
 42
0.414213562373095
 10
207.2375
 20
42.36570407820086
 10
207.2375
 20
55.36570407820085
 42
0.4142135623731075
  0
LWPOLYLINE
  5
74
100
AcDbEntity
  8
0
  6
ByLayer
 62
  256
370
   -1
100
AcDbPolyline
 90
    8
 70
    1
 43
0
 10
244.8375
 20
55.86570407820086
 10
231.8375
 20
55.86570407820086
 42
0.4142135623730992
 10
231.3375
 20
55.36570407820085
 10
231.3375
 20
42.36570407820086
 42
0.4142135623731034
 10
231.8375
 20
41.86570407820086
 10
244.8375
 20
41.86570407820086
 42
0.414213562373095
 10
245.3375
 20
42.36570407820086
 10
245.3375
 20
55.36570407820085
 42
0.4142135623730909
  0
LWPOLYLINE
  5
75
100
AcDbEntity
  8
0
  6
ByLayer
 62
  256
370
   -1
100
AcDbPolyline
 90
    8
 70
    1
 43
0
 10
136.0875
 20
55.36570407820086
 42
-0.414213562373095
 10
136.5875
 20
55.86570407820086
 10
149.5875
 20
55.8657040782009
 42
-0.4142135623730825
 10
150.0875
 20
55.36570407820086
 10
150.0875
 20
42.36570407820086
 42
-0.414213562373095
 10
149.5875
 20
41.86570407820086
 10
136.5875
 20
41.86570407820086
 42
-0.4142135623730992
 10
136.0875
 20
42.36570407820087
  0
LWPOLYLINE
  5
76
100
AcDbEntity
  8
0
  6
ByLayer
 62
  256
370
   -1
100
AcDbPolyline
 90
    8
 70
    1
 43
0
 10
168.6375
 20
55.86570407820087
 10
155.6375
 20
55.86570407820087
 42
0.4142135623730992
 10
155.1375
 20
55.36570407820086
 10
155.1375
 20
42.36570407820086
 42
0.414213562373095
 10
155.6375
 20
41.86570407820086
 10
168.6375
 20
41.86570407820086
 42
0.414213562373095
 10
169.1375
 20
42.36570407820086
 10
169.1375
 20
55.36570407820086
 42
0.4142135623730992
  0
LWPOLYLINE
  5
77
100
AcDbEntity
  8
0
  6
ByLayer
 62
  256
370
   -1
100
AcDbPolyline
 90
    8
 70
    1
 43
0
 10
49.57500000000001
 20
74.91570407820089
 10
36.57500000000001
 20
74.91570407820089
 42
0.414213562373095
 10
36.07500000000001
 20
74.41570407820089
 10
36.07500000000002
 20
61.41570407820088
 42
0.4142135623730992
 10
36.57500000000001
 20
60.91570407820088
 10
49.57500000000001
 20
60.91570407820088
 42
0.414213562373095
 10
50.07500000000001
 20
61.41570407820088
 10
50.07500000000001
 20
74.41570407820089
 42
0.414213562373095
  0
LWPOLYLINE
  5
78
100
AcDbEntity
  8
0
  6
ByLayer
 62
  256
370
   -1
100
AcDbPolyline
 90
    8
 70
    1
 43
0
 10
144.825
 20
74.91570407820087
 10
131.825
 20
74.91570407820087
 42
0.414213562373095
 10
131.325
 20
74.41570407820087
 10
131.325
 20
61.41570407820087
 42
0.414213562373095
 10
131.825
 20
60.91570407820087
 10
144.825
 20
60.91570407820086
 42
0.4142135623730992
 10
145.325
 20
61.41570407820087
 10
145.325
 20
74.41570407820087
 42
0.4142135623730867
  0
LWPOLYLINE
  5
79
100
AcDbEntity
  8
0
  6
ByLayer
 62
  256
370
   -1
100
AcDbPolyline
 90
    8
 70
    1
 43
0
 10
73.38750000000002
 20
55.86570407820088
 10
60.38749999999991
 20
55.86570407820088
 42
0.414213562373095
 10
59.88750000000001
 20
55.36570407820087
 10
59.88749999999991
 20
42.36570407820088
 42
0.414213562373095
 10
60.38749999999991
 20
41.86570407820088
 10
73.38750000000002
 20
41.86570407820088
 42
0.4142135623730992
 10
73.88750000000002
 20
42.36570407820088
 10
73.88750000000002
 20
55.36570407820087
 42
0.4142135623730909
  0
LWPOLYLINE
  5
7A
100
AcDbEntity
  8
0
  6
ByLayer
 62
  256
370
   -1
100
AcDbPolyline
 90
    8
 70
    1
 43
0
 10
145.6125
 20
36.31570407820087
 42
-0.4142135623730992
 10
146.1125
 20
36.81570407820088
 10
159.1125
 20
36.81570407820084
 42
-0.4142135623730867
 10
159.6125
 20
36.31570407820087
 10
159.6125
 20
23.31570407820086
 42
-0.4142135623730888
 10
159.1125
 20
22.81570407820086
 10
146.1125
 20
22.81570407820086
 42
-0.4142135623730971
 10
145.6125
 20
23.31570407820086
  0
LWPOLYLINE
  5
7B
100
AcDbEntity
  8
0
  6
ByLayer
 62
  256
370
   -1
100
AcDbPolyline
 90
    8
 70
    1
 43
0
 10
28.14375000000001
 20
55.86570407820089
 10
10.38125000000001
 20
55.86570407820089
 42
0.4142135623730961
 10
9.881249999999975
 20
55.36570407820088
 10
9.881250000000009
 20
42.36570407820088
 42
0.414213562373094
 10
10.38125
 20
41.86570407820088
 10
28.14375
 20
41.86570407820088
 42
0.4142135623730971
 10
28.64375000000001
 20
42.36570407820088
 10
28.64375
 20
55.36570407820088
 42
0.4142135623730929
  0
LWPOLYLINE
  5
7C
100
AcDbEntity
  8
0
  6
ByLayer
 62
  256
370
   -1
100
AcDbPolyline
 90
    8
 70
    1
 43
0
 10
74.17500000000003
 20
74.41570407820087
 42
-0.4142135623730867
 10
74.67500000000001
 20
74.91570407820087
 10
87.67500000000001
 20
74.91570407820087
 42
-0.4142135623730867
 10
88.175
 20
74.41570407820087
 10
88.175
 20
61.41570407820087
 42
-0.4142135623730909
 10
87.67500000000001
 20
60.91570407820087
 10
74.67500000000001
 20
60.91570407820089
 42
-0.4142135623730909
 10
74.17500000000004
 20
61.41570407820088
  0
LWPOLYLINE
  5
7D
100
AcDbEntity
  8
0
  6
ByLayer
 62
  256
370
   -1
100
AcDbPolyline
 90
    8
 70
    1
 43
0
 10
182.925
 20
74.91570407820086
 10
169.925
 20
74.91570407820087
 42
0.4142135623731034
 10
169.425
 20
74.41570407820087
 10
169.425
 20
61.41570407820087
 42
0.414213562373095
 10
169.925
 20
60.91570407820087
 10
182.925
 20
60.91570407820087
 42
0.414213562373095
 10
183.425
 20
61.41570407820087
 10
183.425
 20
74.41570407820086
 42
0.4142135623731034
  0
LWPOLYLINE
  5
7E
100
AcDbEntity
  8
0
  6
ByLayer
 62
  256
370
   -1
100
AcDbPolyline
 90
    8
 70
    1
 43
0
 10
216.2625
 20
36.81570407820086
 10
203.2625
 20
36.81570407820086
 42
0.414213562373095
 10
202.7625
 20
36.31570407820087
 10
202.7625
 20
23.31570407820086
 42
0.4142135623730867
 10
203.2625
 20
22.81570407820086
 10
216.2625
 20
22.81570407820085
 42
0.4142135623730971
 10
216.7625
 20
23.31570407820086
 10
216.7625
 20
36.31570407820086
 42
0.4142135623731034
  0
LWPOLYLINE
  5
7F
100
AcDbEntity
  8
0
  6
ByLayer
 62
  256
370
   -1
100
AcDbPolyline
 90
    8
 70
    1
 43
0
 10
140.0625
 20
36.81570407820097
 10
127.0625
 20
36.81570407820087
 42
0.414213562373095
 10
126.5625
 20
36.31570407820087
 10
126.5625
 20
23.31570407820087
 42
0.414213562373095
 10
127.0625
 20
22.81570407820087
 10
140.0625
 20
22.81570407820086
 42
0.4142135623730971
 10
140.5625
 20
23.31570407820086
 10
140.5625000000001
 20
36.31570407820087
 42
0.4142135623730909
  0
LWPOLYLINE
  5
80
100
AcDbEntity
  8
0
  6
ByLayer
 62
  256
370
   -1
100
AcDbPolyline
 90
    8
 70
    1
 43
0
 10
121.0125
 20
36.81570407820087
 10
108.0125
 20
36.81570407820087
 42
0.4142135623730909
 10
107.5125
 20
36.31570407820087
 10
107.5125
 20
23.31570407820087
 42
0.4142135623730909
 10
108.0125
 20
22.81570407820087
 10
121.0125
 20
22.81570407820086
 42
0.4142135623731013
 10
121.5125
 20
23.31570407820087
 10
121.5125
 20
36.31570407820087
 42
0.4142135623730992
  0
LWPOLYLINE
  5
81
100
AcDbEntity
  8
0
  6
ByLayer
 62
  256
370
   -1
100
AcDbPolyline
 90
    8
 70
    1
 43
0
 10
201.975
 20
74.91570407820086
 10
188.975
 20
74.91570407820086
 42
0.4142135623730867
 10
188.475
 20
74.41570407820086
 10
188.475
 20
61.41570407820087
 42
0.414213562373095
 10
188.975
 20
60.91570407820087
 10
201.975
 20
60.91570407820087
 42
0.414213562373095
 10
202.475
 20
61.41570407820087
 10
202.4750000000001
 20
74.41570407820086
 42
0.4142135623730867
  0
LWPOLYLINE
  5
82
100
AcDbEntity
  8
0
  6
ByLayer
 62
  256
370
   -1
100
AcDbPolyline
 90
    8
 70
    1
 43
0
 10
226.2875
 20
42.36570407820086
 10
226.2875
 20
55.36570407820085
 42
0.4142135623730992
 10
225.7875
 20
55.86570407820086
 10
212.7875
 20
55.86570407820085
 42
0.414213562373095
 10
212.2875
 20
55.36570407820085
 10
212.2875
 20
42.36570407820086
 42
0.4142135623731034
 10
212.7875
 20
41.86570407820086
 10
225.7875
 20
41.86570407820086
 42
0.414213562373095
  0
LWPOLYLINE
  5
83
100
AcDbEntity
  8
0
  6
ByLayer
 62
  256
370
   -1
100
AcDbPolyline
 90
    8
 70
    1
 43
0
 10
82.91249999999999
 20
36.81570407820088
 10
69.91249999999999
 20
36.81570407820088
 42
0.414213562373095
 10
69.41249999999999
 20
36.31570407820088
 10
69.41249999999999
 20
23.31570407820087
 42
0.4142135623730992
 10
69.91249999999999
 20
22.81570407820087
 10
82.91249999999999
 20
22.81570407820086
 42
0.4142135623730929
 10
83.41250000000001
 20
23.31570407820087
 10
83.41249999999999
 20
36.31570407820088
 42
0.4142135623730909
  0
LWPOLYLINE
  5
84
100
AcDbEntity
  8
0
  6
ByLayer
 62
  256
370
   -1
100
AcDbPolyline
 90
   38
 70
    1
 43
0
 10
253.35575
 20
41.86570407820083
 42
-0.4142135623730742
 10
253.85575
 20
41.36570407820086
 10
253.8557499999999
 20
40.36570407820085
 42
0.414213562373095
 10
254.35575
 20
39.86570407820085
 10
260.35575
 20
39.86570407820085
 42
0.414213562373095
 10
260.85575
 20
40.36570407820085
 10
260.8557500000001
 20
41.36570407820085
 42
-0.4142135623730243
 10
261.3557500000001
 20
41.86570407820085
 10
277.23175
 20
41.86570407820088
 42
-0.4142135623730326
 10
277.73175
 20
41.36570407820085
 10
277.7317500000001
 20
40.36570407820084
 42
0.4142135623730784
 10
278.23175
 20
39.86570407820084
 10
284.31875
 20
39.86570407820085
 42
0.414213562373095
 10
284.81875
 20
40.36570407820084
 10
284.81875
 20
50.89070407820085
 42
-0.4142135623730784
 10
285.31875
 20
51.39070407820083
 42
0.4142135623730992
 10
285.81875
 20
51.89070407820085
 10
285.81875
 20
64.89070407820086
 42
0.4142135623731034
 10
285.31875
 20
65.39070407820088
 42
-0.4142135623730784
 10
284.81875
 20
65.89070407820086
 10
284.81875
 20
73.32870407820086
 42
0.414213562373095
 10
284.31875
 20
73.82870407820086
 10
283.9375
 20
73.82870407820089
 42
-0.4142135623730784
 10
283.4375
 20
74.32870407820086
 10
283.4375000000001
 20
74.41570407820086
 42
0.4142135623730784
 10
282.9375
 20
74.91570407820086
 10
269.9375
 20
74.91570407820086
 42
0.414213562373095
 10
269.4375
 20
74.41570407820086
 10
269.4375
 20
61.41570407820085
 42
0.414213562373095
 10
269.9375
 20
60.91570407820085
 10
271.31875
 20
60.91570407820083
 42
-0.4142135623730784
 10
271.81875
 20
60.41570407820085
 10
271.8187500000001
 20
56.36570407820085
 42
-0.4142135623730659
 10
271.31875
 20
55.86570407820086
 10
250.8875
 20
55.86570407820085
 42
0.4142135623731034
 10
250.3875
 20
55.36570407820085
 10
250.3875
 20
42.36570407820086
 42
0.4142135623730867
 10
250.8875
 20
41.86570407820086
  0
LWPOLYLINE
  5
85
100
AcDbEntity
  8
0
  6
ByLayer
 62
  256
370
   -1
100
AcDbPolyline
 90
   24
 70
    1
 43
0
 10
10.46825
 20
22.81570407820087
 42
-0.4142135623730919
 10
10.96825
 20
22.31570407820088
 10
10.96825
 20
21.31570407820088
 42
0.414213562373095
 10
11.46825
 20
20.81570407820088
 10
17.46825000000001
 20
20.81570407820087
 42
0.414213562373095
 10
17.96825000000001
 20
21.31570407820088
 10
17.96825
 20
22.31570407820088
 42
-0.4142135623730909
 10
18.46825
 20
22.81570407820088
 10
34.34425
 20
22.81570407820088
 42
-0.414213562373095
 10
34.84425
 20
22.31570407820088
 10
34.84425
 20
21.31570407820088
 42
0.4142135623730992
 10
35.34425
 20
20.81570407820087
 10
41.34425
 20
20.81570407820087
 42
0.4142135623730971
 10
41.84425000000001
 20
21.31570407820088
 10
41.84425000000001
 20
22.31570407820088
 42
-0.414213562373095
 10
42.34425000000001
 20
22.81570407820088
 10
44.8125
 20
22.81570407820087
 42
0.4142135623730971
 10
45.31250000000001
 20
23.31570407820087
 10
45.31250000000001
 20
36.31570407820088
 42
0.414213562373095
 10
44.81250000000001
 20
36.81570407820088
 10
10.38125
 20
36.8157040782009
 42
0.4142135623730981
 10
9.881249999999975
 20
36.31570407820089
 10
9.881250000000005
 20
23.31570407820088
 42
0.414213562373094
 10
10.38125
 20
22.81570407820088
  0
LWPOLYLINE
  5
86
100
AcDbEntity
  8
0
  6
ByLayer
 62
  256
370
   -1
100
AcDbPolyline
 90
    8
 70
    1
 43
0
 10
221.8125
 20
17.26570407820086
 10
221.8125
 20
4.265704078200863
 42
0.4142135623730992
 10
222.3125
 20
3.765704078200853
 10
237.69375
 20
3.765704078200855
 42
0.4142135623731398
 10
238.19375
 20
4.26570407820086
 10
238.1937500000001
 20
17.26570407820086
 42
0.4142135623730617
 10
237.69375
 20
17.76570407820086
 10
222.3125
 20
17.76570407820086
 42
0.4142135623731262
  0
LWPOLYLINE
  5
87
100
AcDbEntity
  8
0
  6
ByLayer
 62
  256
370
   -1
100
AcDbPolyline
 90
    8
 70
    1
 43
0
 10
189.44375
 20
5.265704078200856
 10
189.4437500000001
 20
19.26570407820086
 42
0.4142135623730701
 10
188.94375
 20
19.76570407820086
 10
178.21925
 20
19.76570407820085
 42
0.4142135623730805
 10
177.71925
 20
19.26570407820086
 10
177.71925
 20
5.265704078200878
 42
0.4142135623730487
 10
178.21925
 20
4.765704078200837
 10
188.94375
 20
4.765704078200851
 42
0.4142135623731403
  0
LWPOLYLINE
  5
88
100
AcDbEntity
  8
0
  6
ByLayer
 62
  256
370
   -1
100
AcDbPolyline
 90
    8
 70
    1
 43
0
 10
57.50625000000001
 20
17.26570407820097
 42
-0.4142135623730867
 10
58.00625
 20
17.76570407820097
 10
73.38750000000002
 20
17.76570407820087
 42
-0.4142135623730992
 10
73.88750000000002
 20
17.26570407820087
 10
73.88750000000002
 20
4.265704078200891
 42
-0.4142135623731008
 10
73.38750000000002
 20
3.765704078200885
 10
58.00625
 20
3.765704078200903
 42
-0.4142135623730857
 10
57.50625000000001
 20
4.265704078200893
  0
LWPOLYLINE
  5
89
100
AcDbEntity
  8
0
  6
ByLayer
 62
  256
370
   -1
100
AcDbPolyline
 90
    8
 70
    1
 43
0
 10
162.28125
 20
17.26570407820086
 10
162.28125
 20
4.265704078200882
 42
0.4142135623731314
 10
162.78125
 20
3.76570407820088
 10
175.78125
 20
3.765704078200872
 42
0.4142135623731003
 10
176.28125
 20
4.265704078200879
 10
176.28125
 20
17.26570407820086
 42
0.4142135623731034
 10
175.78125
 20
17.76570407820086
 10
162.78125
 20
17.76570407820087
 42
0.4142135623731408
  0
LWPOLYLINE
  5
8A
100
AcDbEntity
  8
0
  6
ByLayer
 62
  256
370
   -1
100
AcDbPolyline
 90
   16
 70
    1
 43
0
 10
201.5
 20
18.26570407820086
 42
-0.4142135623730264
 10
201
 20
17.76570407820086
 10
200.88125
 20
17.76570407820087
 42
0.4142135623731325
 10
200.38125
 20
17.26570407820086
 10
200.3812500000001
 20
4.265704078200866
 42
0.4142135623731226
 10
200.88125
 20
3.765704078200895
 10
213.88125
 20
3.765704078200858
 42
0.4142135623731075
 10
214.38125
 20
4.265704078200862
 10
214.3812500000001
 20
17.26570407820086
 42
0.4142135623730617
 10
213.88125
 20
17.76570407820086
 10
209
 20
17.76570407820089
 42
-0.4142135623730846
 10
208.5
 20
18.26570407820086
 10
208.5000000000001
 20
19.26570407820086
 42
0.4142135623730617
 10
208
 20
19.76570407820086
 10
202
 20
19.76570407820087
 42
0.4142135623731283
 10
201.5
 20
19.26570407820086
  0
LWPOLYLINE
  5
8B
100
AcDbEntity
  8
0
  6
ByLayer
 62
  256
370
   -1
100
AcDbPolyline
 90
    8
 70
    1
 43
0
 10
113.28175
 20
5.265704078200887
 10
113.28175
 20
19.26570407820087
 42
0.4142135623731137
 10
112.78175
 20
19.76570407820087
 10
106.78175
 20
19.76570407820086
 42
0.4142135623730971
 10
106.28175
 20
19.26570407820087
 10
106.28175
 20
5.265704078200887
 42
0.4142135623730664
 10
106.78175
 20
4.765704078200877
 10
112.78175
 20
4.76570407820088
 42
0.4142135623730971
  0
LWPOLYLINE
  5
8C
100
AcDbEntity
  8
0
  6
ByLayer
 62
  256
370
   -1
100
AcDbPolyline
 90
   15
 70
    1
 43
0
 10
90.3437499999999
 20
4.765704078200906
 42
-0.414213562373106
 10
90.84374999999993
 20
4.26570407820089
 42
0.4142135623730758
 10
91.3437499999999
 20
3.76570407820089
 10
104.34375
 20
3.7657040782009
 42
0.4142135623730976
 10
104.84375
 20
4.265704078200888
 10
104.84375
 20
17.26570407820087
 42
0.4142135623730763
 10
104.34375
 20
17.76570407820087
 10
94.7
 20
17.76570407820078
 42
-0.4142135623730638
 10
94.19999999999992
 20
18.26570407820087
 10
94.2
 20
19.26570407820087
 42
0.4142135623731179
 10
93.70000000000002
 20
19.76570407820087
 10
82.90575000000001
 20
19.76570407820086
 42
0.4142135623731221
 10
82.4057499999999
 20
19.26570407820087
 10
82.40575
 20
5.265704078200891
 42
0.4142135623730929
 10
82.90575000000001
 20
4.765704078200882
  0
LWPOLYLINE
  5
8D
100
AcDbEntity
  8
0
  6
ByLayer
 62
  256
370
   -1
100
AcDbPolyline
 90
   15
 70
    1
 43
0
 10
153.84325
 20
18.26570407820087
 42
-0.4142135623730659
 10
153.34325
 20
17.76570407820087
 10
124.68125
 20
17.76570407820088
 42
0.4142135623731013
 10
124.18125
 20
17.26570407820087
 10
124.18125
 20
4.265704078200886
 42
0.41421356237312
 10
124.68125
 20
3.765704078200906
 10
154.35
 20
3.765704078200875
 42
0.4142135623730696
 10
154.85
 20
4.265704078200883
 42
-0.4142135623731137
 10
155.35
 20
4.765704078200872
 10
160.34325
 20
4.765704078200892
 42
0.4142135623730737
 10
160.84325
 20
5.265704078200882
 10
160.8432500000001
 20
19.26570407820086
 42
0.4142135623730576
 10
160.34325
 20
19.76570407820096
 10
154.34325
 20
19.76570407820087
 42
0.4142135623730971
 10
153.84325
 20
19.26570407820087
  0
LWPOLYLINE
  5
8E
100
AcDbEntity
  8
0
  6
ByLayer
 62
  256
370
   -1
100
AcDbPolyline
 90
    8
 70
    1
 43
0
 10
293.75
 20
22.81570407820085
 10
306.75
 20
22.81570407820084
 42
0.414213562373095
 10
307.25
 20
23.31570407820084
 10
307.25
 20
36.31570407820085
 42
0.414213562373095
 10
306.75
 20
36.81570407820085
 10
293.75
 20
36.81570407820087
 42
0.4142135623730992
 10
293.25
 20
36.31570407820085
 10
293.25
 20
23.31570407820085
 42
0.414213562373095
  0
LWPOLYLINE
  5
8F
100
AcDbEntity
  8
0
  6
ByLayer
 62
  256
370
   -1
100
AcDbPolyline
 90
  229
 70
    1
 43
0
 10
287.725
 20
94.46570407820086
 42
-0.4142135623730118
 10
287.225
 20
93.96570407820087
 10
255.65
 20
93.96570407820087
 42
0.4142135623731034
 10
255.15
 20
93.46570407820086
 10
255.1500000000001
 20
80.46570407820084
 42
0.4142135623730867
 10
255.65
 20
79.96570407820084
 10
255.737
 20
79.96570407820089
 42
-0.4142135623730367
 10
256.237
 20
79.46570407820086
 10
256.2370000000001
 20
78.46570407820086
 42
0.4142135623730784
 10
256.737
 20
77.96570407820086
 10
262.7370000000001
 20
77.96570407820086
 42
0.4142135623731117
 10
263.2370000000001
 20
78.46570407820086
 10
263.2369999999999
 20
79.46570407820086
 42
-0.4142135623731034
 10
263.737
 20
79.96570407820086
 10
279.613
 20
79.96570407820089
 42
-0.4142135623730367
 10
280.113
 20
79.46570407820086
 10
280.1130000000001
 20
78.46570407820086
 42
0.414213562373095
 10
280.6130000000001
 20
77.96570407820086
 10
286.613
 20
77.96570407820086
 42
0.414213562373095
 10
287.113
 20
78.46570407820086
 10
287.113
 20
79.46570407820086
 42
-0.4142135623730867
 10
287.613
 20
79.96570407820086
 10
287.7
 20
79.96570407820084
 42
0.414213562373095
 10
288.2
 20
80.46570407820084
 10
288.2
 20
91.61099305955119
 42
-0.6089070982162942
 10
288.9892857142858
 20
92.01880891935825
 42
0.3186612253581793
 10
292.4607142857143
 20
92.01880891935826
 42
-0.6089070982161675
 10
293.25
 20
91.61099305955113
 10
293.25
 20
80.46570407820083
 42
0.414213562373095
 10
293.75
 20
79.96570407820083
 10
306.75
 20
79.96570407820083
 42
0.414213562373095
 10
307.25
 20
80.46570407820083
 10
307.2500000000001
 20
93.46570407820084
 42
0.4142135623730867
 10
306.75
 20
93.96570407820086
 10
294.2250000000008
 20
93.9657040782008
 42
-0.41421356237312
 10
293.7250000000008
 20
94.46570407820086
 10
293.7250000000009
 20
99.71570407820094
 42
-0.4142135623730992
 10
294.7250000000009
 20
100.7157040782009
 10
310
 20
100.7157040782009
 42
-0.4142135623730992
 10
311
 20
99.71570407820094
 10
311
 20
-1.984295921799158
 42
-0.4142135623730981
 10
310
 20
-2.984295921799148
 10
294.725
 20
-2.984295921799189
 42
-0.4142135623730945
 10
293.725
 20
-1.984295921799137
 10
293.7250000000001
 20
3.265704078200848
 42
-0.4142135623730367
 10
294.2250000000001
 20
3.765704078200848
 10
306.75
 20
3.765704078200826
 42
0.4142135623730966
 10
307.25
 20
4.265704078200832
 10
307.25
 20
17.26570407820084
 42
0.414213562373095
 10
306.75
 20
17.76570407820084
 10
293.75
 20
17.76570407820086
 42
0.4142135623730971
 10
293.25
 20
17.26570407820085
 10
293.2500000000001
 20
6.120415096850563
 42
-0.6089070982162905
 10
292.4607142857143
 20
5.712599237043472
 42
0.3186612253581712
 10
288.9892857142858
 20
5.712599237043491
 42
-0.6089070982163227
 10
288.1999999999999
 20
6.120415096850509
 10
288.2
 20
17.26570407820085
 42
0.414213562373095
 10
287.7
 20
17.76570407820085
 10
274.7
 20
17.76570407820086
 42
0.4142135623730805
 10
274.2
 20
17.26570407820085
 10
274.2
 20
4.015704078200848
 42
0.4142135623731169
 10
274.45
 20
3.765704078200846
 10
287.225
 20
3.765704078200822
 42
-0.4142135623730794
 10
287.725
 20
3.265704078200845
 10
287.725
 20
0.7657040782006806
 42
-0.4142135623731
 10
286.725
 20
-0.2342959217993176
 10
286.4547266151378
 20
-0.2342959217993212
 42
0.3728246932726585
 10
284.9701116372216
 20
-1.520010207513545
 42
-0.8660254037843946
 10
281.0111383627785
 20
-1.520010207513544
 42
0.3728246932726831
 10
279.5265233848623
 20
-0.2342959217993155
 10
279.490625
 20
-0.2342959217993241
 42
0.414213562373095
 10
277.990625
 20
-1.734295921799324
 10
277.990625
 20
-1.984295921799144
 42
-0.4142135623730919
 10
276.990625
 20
-2.984295921799143
 10
208.490625
 20
-2.984295921799113
 42
-0.4142135623731054
 10
207.490625
 20
-1.984295921799135
 10
207.490625
 20
-1.734295921799317
 42
0.4142135623730971
 10
205.990625
 20
-0.2342959217992958
 10
205.9547266151378
 20
-0.2342959217993117
 42
0.3728246932726654
 10
204.4701116372216
 20
-1.520010207513532
 42
-0.8660254037843945
 10
200.5111383627785
 20
-1.520010207513531
 42
0.3728246932726839
 10
199.0265233848623
 20
-0.2342959217992945
 10
198.75625
 20
-0.2342959217993228
 42
-0.4142135623730701
 10
197.75625
 20
0.7657040782006915
 10
197.75625
 20
3.265704078200847
 42
0.9999999999999999
 10
191.75625
 20
3.265704078200848
 10
191.75625
 20
-1.984295921799134
 42
-0.414213562373076
 10
190.75625
 20
-2.984295921799133
 10
122.55625
 20
-2.984295921799145
 42
-0.4142135623730966
 10
121.55625
 20
-1.984295921799125
 10
121.55625
 20
3.265704078200865
 42
1
 10
115.55625
 20
3.265704078200865
 10
115.55625
 20
0.765704078200701
 42
-0.4142135623731106
 10
114.55625
 20
-0.2342959217992725
 10
111.0171875
 20
-0.2342959217993028
 42
0.4142135623730969
 10
109.5171875
 20
-1.734295921799303
 10
109.5171875
 20
-1.984295921799123
 42
-0.4142135623730924
 10
108.5171875
 20
-2.984295921799123
 10
40.01718750000001
 20
-2.984295921799115
 42
-0.2681161736719728
 10
39.15085068615701
 20
-2.48375615543175
 42
0.5498268913038745
 10
36.61996526593857
 20
-2.376381969845734
 42
-0.7344185911156111
 10
32.97812499999999
 20
-1.23429592179912
 10
32.978125
 20
3.265704078200876
 42
1
 10
26.97812500000001
 20
3.265704078200877
 10
26.97812499999996
 20
0.7657040782007131
 42
-0.4142135623730924
 10
25.978125
 20
-0.2342959217992494
 10
22.6750000000001
 20
-0.2342959217992924
 42
0.4142135623731145
 10
21.175
 20
-1.734295921799292
 10
21.175
 20
-1.984295921799112
 42
-0.4142135623730924
 10
20.175
 20
-2.984295921799112
 10
4.74999999999997
 20
-2.984295921799101
 42
-0.414213562373094
 10
3.74999999999998
 20
-1.984295921799113
 10
3.74999999999998
 20
99.71570407820099
 42
-0.4142135623730961
 10
4.749999999999982
 20
100.715704078201
 10
20.02500000000002
 20
100.715704078201
 42
-0.4142135623730992
 10
21.025
 20
99.71570407820099
 10
21.02499999999998
 20
94.4657040782009
 42
-0.4142135623731034
 10
20.525
 20
93.9657040782009
 10
7.999999999999982
 20
93.96570407820091
 42
0.4142135623730997
 10
7.49999999999998
 20
93.46570407820089
 10
7.499999999999982
 20
80.46570407820087
 42
0.4142135623730992
 10
7.999999999999981
 20
79.96570407820089
 10
21.00000000000001
 20
79.96570407820087
 42
0.414213562373095
 10
21.50000000000001
 20
80.46570407820087
 10
21.5
 20
91.61099305955119
 42
-0.6089070982162437
 10
22.28928571428572
 20
92.01880891935829
 42
0.3186612253581751
 10
25.7607142857143
 20
92.01880891935829
 42
-0.6089070982162454
 10
26.55000000000003
 20
91.61099305955119
 10
26.55000000000001
 20
80.46570407820087
 42
0.4142135623730971
 10
27.05000000000001
 20
79.96570407820089
 10
40.05
 20
79.96570407820087
 42
0.414213562373095
 10
40.55
 20
80.46570407820087
 10
40.55000000000001
 20
93.46570407820089
 42
0.4142135623730992
 10
40.05000000000001
 20
93.9657040782009
 10
27.52500000000001
 20
93.96570407820086
 42
-0.4142135623730909
 10
27.02500000000002
 20
94.46570407820089
 10
27.02500000000002
 20
96.96570407820099
 42
-0.4037837998487739
 10
27.98926732790673
 20
97.96506546235844
 42
0.3628115615299605
 10
29.4203818970096
 20
99.25050605556874
 42
-0.8662270527693736
 10
33.37948663722158
 20
99.25141836391523
 42
0.3728246932726883
 10
34.86410161513776
 20
97.96570407820099
 10
34.90000000000002
 20
97.96570407820099
 42
0.414213562373095
 10
36.40000000000002
 20
99.46570407820099
 10
36.40000000000002
 20
99.71570407820099
 42
-0.414213562373095
 10
37.40000000000002
 20
100.715704078201
 10
105.9
 20
100.715704078201
 42
-0.4142135623730909
 10
106.9
 20
99.71570407820097
 10
106.9
 20
99.46570407820097
 42
0.4142135623730951
 10
108.4
 20
97.96570407820097
 10
108.4358983848623
 20
97.96570407820097
 42
0.3728246932726755
 10
109.9205133627785
 20
99.25141836391522
 42
-0.8662270527693736
 10
113.8796181029905
 20
99.25050605556869
 42
0.3628115615299523
 10
115.3107326720933
 20
97.96506546235845
 42
-0.4037837998487722
 10
116.275
 20
96.96570407820097
 10
116.275
 20
94.46570407820087
 42
-0.4142135623730451
 10
115.775
 20
93.96570407820089
 10
103.25
 20
93.96570407820089
 42
0.414213562373095
 10
102.75
 20
93.46570407820087
 10
102.75
 20
80.46570407820086
 42
0.414213562373095
 10
103.25
 20
79.96570407820087
 10
116.25
 20
79.96570407820086
 42
0.414213562373095
 10
116.75
 20
80.46570407820086
 10
116.75
 20
91.61099305955118
 42
-0.6089070982162494
 10
117.5392857142857
 20
92.01880891935828
 42
0.3186612253581724
 10
121.0107142857143
 20
92.01880891935826
 42
-0.6089070982162649
 10
121.8
 20
91.61099305955116
 10
121.8
 20
80.46570407820086
 42
0.4142135623730867
 10
122.3
 20
79.96570407820087
 10
135.3
 20
79.96570407820086
 42
0.414213562373095
 10
135.8
 20
80.46570407820086
 10
135.8
 20
93.46570407820087
 42
0.4142135623731034
 10
135.3
 20
93.96570407820089
 10
122.775
 20
93.9657040782009
 42
-0.4142135623730451
 10
122.275
 20
94.46570407820087
 10
122.275
 20
96.96570407820097
 42
-0.4142135623730992
 10
123.275
 20
97.96570407820097
 10
125.725
 20
97.96570407820097
 42
0.414213562373095
 10
127.225
 20
99.46570407820097
 10
127.225
 20
99.71570407820097
 42
-0.414213562373095
 10
128.225
 20
100.715704078201
 10
143.65
 20
100.715704078201
 42
-0.4142135623731117
 10
144.65
 20
99.71570407820097
 10
144.65
 20
99.46570407820097
 42
0.4142135623730923
 10
146.15
 20
97.96570407820097
 10
168.6
 20
97.96570407820097
 42
0.4142135623730979
 10
170.1000000000001
 20
99.46570407820097
 10
170.0999999999999
 20
99.71570407820097
 42
-0.4142135623731117
 10
171.1
 20
100.715704078201
 10
186.525
 20
100.715704078201
 42
-0.4142135623730701
 10
187.525
 20
99.71570407820096
 10
187.525
 20
99.46570407820096
 42
0.414213562373095
 10
189.025
 20
97.96570407820096
 10
191.475
 20
97.96570407820096
 42
-0.4142135623730909
 10
192.475
 20
96.96570407820096
 10
192.475
 20
94.46570407820086
 42
-0.4142135623730867
 10
191.975
 20
93.96570407820087
 10
179.45
 20
93.96570407820087
 42
0.4142135623731034
 10
178.95
 20
93.46570407820086
 10
178.95
 20
80.46570407820084
 42
0.4142135623730867
 10
179.45
 20
79.96570407820084
 10
192.45
 20
79.96570407820084
 42
0.414213562373095
 10
192.95
 20
80.46570407820084
 10
192.95
 20
91.61099305955115
 42
-0.608907098216226
 10
193.7392857142857
 20
92.01880891935824
 42
0.3186612253581739
 10
197.2107142857143
 20
92.01880891935829
 42
-0.6089070982161991
 10
198
 20
91.61099305955116
 10
198
 20
80.46570407820084
 42
0.4142135623730867
 10
198.5
 20
79.96570407820084
 10
211.5
 20
79.96570407820084
 42
0.414213562373095
 10
212
 20
80.46570407820084
 10
212
 20
93.46570407820086
 42
0.414213562373095
 10
211.5
 20
93.96570407820089
 10
198.975
 20
93.96570407820089
 42
-0.4142135623730701
 10
198.475
 20
94.46570407820086
 10
198.475
 20
96.96570407820096
 42
-0.4142135623730701
 10
199.475
 20
97.96570407820093
 10
206.35
 20
97.96570407820096
 42
0.4142135623730976
 10
207.85
 20
99.46570407820096
 10
207.85
 20
99.71570407820096
 42
-0.4142135623730742
 10
208.85
 20
100.715704078201
 10
277.35
 20
100.715704078201
 42
-0.4142135623730701
 10
278.35
 20
99.71570407820096
 10
278.35
 20
99.46570407820096
 42
0.414213562373095
 10
279.85
 20
97.96570407820096
 10
279.8858983848623
 20
97.96570407820096
 42
0.3728246932726765
 10
281.3705133627785
 20
99.25141836391521
 42
-0.8662270527693736
 10
285.3296181029905
 20
99.25050605556868
 42
0.3628115615299471
 10
286.7607326720933
 20
97.96506546235841
 42
-0.4037837998487598
 10
287.725
 20
96.96570407820096
  0
CIRCLE
  5
90
100
AcDbEntity
  8
0
  6
ByLayer
 62
  256
370
   -1
100
AcDbCircle
 10
205
 20
66.32820407820086
 40
1.999999999999993
  0
CIRCLE
  5
91
100
AcDbEntity
  8
0
  6
ByLayer
 62
  256
370
   -1
100
AcDbCircle
 10
205
 20
66.32820407820086
 40
1.099999999999994
  0
ENDSEC
  0
SECTION
  2
OBJECTS
  0
DICTIONARY
  5
C
330
0
100
AcDbDictionary
281
    1
  3
ACAD_GROUP
350
D
  0
DICTIONARY
  5
D
330
C
100
AcDbDictionary
281
    1
  0
ENDSEC
  0
EOF
