0
SECTION
2
HEADER
9
$INSUNITS
70
4
9
$ACADVER
1
AC1014
9
$HANDSEED
5
FFFF
0
ENDSEC
0
SECTION
2
TABLES
0
TABLE
2
VPORT
5
8
100
AcDbSymbolTable
0
ENDTAB
0
TABLE
2
LTYPE
5
5
100
AcDbSymbolTable
0
LTYPE
5
14
100
AcDbSymbolTableRecord
100
AcDbLinetypeTableRecord
2
BYBLOCK
70
0
0
LTYPE
5
15
100
AcDbSymbolTableRecord
100
AcDbLinetypeTableRecord
2
BYLAYER
70
0
0
ENDTAB
0
TABLE
2
LAYER
5
2
100
AcDbSymbolTable
70
2
0
LAYER
5
50
100
AcDbSymbolTableRecord
100
AcDbLayerTableRecord
2
0
70
0
6
CONTINUOUS
0
ENDTAB
0
TABLE
2
STYLE
5
3
100
AcDbSymbolTable
70
1
0
STYLE
5
11
100
AcDbSymbolTableRecord
100
AcDbTextStyleTableRecord
2
STANDARD
70
0
0
ENDTAB
0
TABLE
2
VIEW
5
6
100
AcDbSymbolTable
70
0
0
ENDTAB
0
TABLE
2
UCS
5
7
100
AcDbSymbolTable
70
0
0
ENDTAB
0
TABLE
2
APPID
5
9
100
AcDbSymbolTable
70
2
0
APPID
5
12
100
AcDbSymbolTableRecord
100
AcDbRegAppTableRecord
2
ACAD
70
0
0
ENDTAB
0
TABLE
2
DIMSTYLE
5
A
100
AcDbSymbolTable
70
1
0
ENDTAB
0
TABLE
2
BLOCK_RECORD
5
1
100
AcDbSymbolTable
70
1
0
BLOCK_RECORD
5
1F
100
AcDbSymbolTableRecord
100
AcDbBlockTableRecord
2
*MODEL_SPACE
0
BLOCK_RECORD
5
1B
100
AcDbSymbolTableRecord
100
AcDbBlockTableRecord
2
*PAPER_SPACE
0
ENDTAB
0
ENDSEC
0
SECTION
2
BLOCKS
0
BLOCK
5
20
100
AcDbEntity
100
AcDbBlockBegin
2
*MODEL_SPACE
0
ENDBLK
5
21
100
AcDbEntity
100
AcDbBlockEnd
0
BLOCK
5
1C
100
AcDbEntity
100
AcDbBlockBegin
2
*PAPER_SPACE
0
ENDBLK
5
1D
100
AcDbEntity
100
AcDbBlockEnd
0
ENDSEC
0
SECTION
2
ENTITIES
0
LWPOLYLINE
5
100
100
AcDbEntity
8
0
100
AcDbPolyline
90
94
70
1
43
0.0
10
-49.961275588268066
20
-4.4630409412367618
42
-0.31965856886260613
10
-50.9062684539347
20
-5.1359499999999887
10
-93.616839730810412
20
-5.1359499999999798
42
0.26794919243111376
10
-94.482865134594846
20
-5.6359499999999656
10
-95.363324295108953
20
-7.1609499999999935
42
-0.26794919243112286
10
-96.229349698893415
20
-7.6609499999999997
10
-139.96919
20
-7.6609499999999908
42
0.41421356237309503
10
-140.96919
20
-8.6609499999999926
10
-140.96919
20
-21.16095
42
-0.41421356237309503
10
-141.46919
20
-21.66095
10
-154.46919000000003
20
-21.660950000000007
42
-0.41421356237309503
10
-154.96919000000003
20
-21.16095
10
-154.96919
20
-8.6609499999999997
42
0.41421356237309764
10
-155.96919
20
-7.6609499999999953
10
-199.70903030110702
20
-7.6609499999999819
42
-0.26794919243106691
10
-200.57505570489133
20
-7.1609500000001658
10
-201.45551486540501
20
-5.6359499999999896
42
0.26794919243122589
10
-202.32154026919002
20
-5.1359499999999949
10
-245.03211154606504
20
-5.1359500000000118
42
-0.31965856886264066
10
-245.97710441173174
20
-4.4630409412366507
10
-248.21127558826802
20
1.99166494123675
42
0.31965856886263844
10
-249.15626845393504
20
2.664573999999964
10
-250.14419000000004
20
2.6645739999999902
42
0.41421356237309503
10
-251.14419000000001
20
1.66457399999999
10
-251.14419000000001
20
-0.99842600000000614
42
-0.99999999999999989
10
-254.34419000000003
20
-0.99842600000000614
10
-254.34419000000003
20
1.6645739999999902
42
0.41421356237309792
10
-255.34419
20
2.6645739999999791
10
-256.33211154606499
20
2.6645739999999902
42
0.31965856886263727
10
-257.27710441173167
20
1.9916649412366516
10
-259.51127558826835
20
-4.4630409412366268
42
-0.3196585688626436
10
-260.45626845393502
20
-5.1359499999999905
10
-289.76918999999998
20
-5.1359499999999905
42
0.41421356237309503
10
-290.84419000000003
20
-6.2109499999999862
10
-290.84419000000003
20
-99.310950000000005
42
0.41421356237309503
10
-289.76918999999998
20
-100.38595000000001
10
-260.45626845393502
20
-100.38594999999999
42
-0.31965856886258392
10
-259.5112755882684
20
-101.05885905876315
10
-257.27710441173201
20
-107.51356494123699
42
0.31965856886258681
10
-256.33211154606499
20
-108.18647399999996
10
-255.34419
20
-108.18647400000002
42
0.41421356237309503
10
-254.34419000000003
20
-107.18647400000002
10
-254.34419000000003
20
-104.52347400000001
42
-0.99999999999999989
10
-251.14419000000001
20
-104.52347400000001
10
-251.14419000000001
20
-107.18647400000002
42
0.41421356237309503
10
-250.14419000000004
20
-108.18647400000003
10
-249.15626845393504
20
-108.18647400000002
42
0.31965856886258859
10
-248.21127558826842
20
-107.51356494123685
10
-245.97710441173163
20
-101.05885905876315
42
-0.31965856886257898
10
-245.03211154606504
20
-100.38595000000002
10
-155.68126845393499
20
-100.38595000000001
42
-0.31965856886258237
10
-154.7362755882684
20
-101.05885905876315
10
-152.50210441173203
20
-107.51356494123699
42
0.31965856886258681
10
-151.55711154606502
20
-108.18647400000002
10
-150.56918999999999
20
-108.18647400000002
42
0.41421356237309503
10
-149.56919000000002
20
-107.18647400000002
10
-149.56919000000002
20
-104.52347400000001
42
-0.99999999999999989
10
-146.36919
20
-104.52347400000001
10
-146.36919
20
-107.18647400000002
42
0.41421356237309503
10
-145.36919
20
-108.18647400000002
10
-144.38126845393501
20
-108.18647400000002
42
0.31965856886258859
10
-143.43627558826839
20
-107.51356494123685
10
-141.2021044117316
20
-101.05885905876315
42
-0.31965856886257898
10
-140.257111546065
20
-100.38595000000002
10
-50.906268453934693
20
-100.38595000000002
42
-0.3196585688625419
10
-49.961275588268151
20
-101.05885905876303
10
-47.727104411731901
20
-107.51356494123699
42
0.31965856886254912
10
-46.782111546065302
20
-108.18647400000003
10
-45.794190000000008
20
-108.18647400000002
42
0.41421356237309503
10
-44.794190000000029
20
-107.18647400000002
10
-44.794189999999993
20
-104.52347400000001
42
-0.99999999999999989
10
-41.594190000000005
20
-104.52347400000001
10
-41.594189999999998
20
-107.18647400000002
42
0.41421356237309503
10
-40.594189999999998
20
-108.18647400000002
10
-39.606268453934703
20
-108.18647400000002
42
0.3196585688625494
10
-38.661275588268154
20
-107.51356494123698
10
-36.427104411731861
20
-101.05885905876303
42
-0.31965856886254412
10
-35.482111546065298
20
-100.38595000000001
10
-6.1691900000000022
20
-100.38595000000001
42
0.41421356237309537
10
-5.0941900000000011
20
-99.310950000000005
10
-5.0941900000000011
20
-6.2109499999999862
42
0.41421356237309387
10
-6.1691900000000022
20
-5.1359499999999905
10
-35.482111546065298
20
-5.1359499999999878
42
-0.31965856886260247
10
-36.427104411731939
20
-4.4630409412367671
10
-38.661275588268097
20
1.99166494123675
42
0.31965856886260646
10
-39.606268453934703
20
2.6645739999999849
10
-40.594189999999998
20
2.6645739999999902
42
0.41421356237309798
10
-41.594189999999998
20
1.66457399999999
10
-41.594190000000005
20
-0.99842600000000614
42
-0.99999999999999989
10
-44.794189999999993
20
-0.99842600000000614
10
-44.79419
20
1.6645739999999902
42
0.41421356237309498
10
-45.794190000000008
20
2.6645739999999862
10
-46.782111546065302
20
2.6645739999999902
42
0.31965856886260163
10
-47.727104411731958
20
1.9916649412367655
0
LWPOLYLINE
5
101
100
AcDbEntity
8
0
100
AcDbPolyline
90
8
70
1
43
0.0
10
-54.10069
20
-21.16095
10
-54.10069
20
-8.1609499999999908
42
0.41421356237309503
10
-54.600690000000007
20
-7.6609499999999908
10
-55.60069
20
-7.6609499999999926
42
0.41421356237309503
10
-56.10069
20
-8.1609499999999908
10
-56.10069
20
-21.16095
42
0.41421356237309503
10
-55.60069
20
-21.66095
10
-54.600690000000007
20
-21.660949999999993
42
0.41421356237309503
0
LINE
5
102
100
AcDbEntity
8
0
100
AcDbLine
10
-201.74419
20
-9.1609499999999908
30
0
11
-201.74419
21
-22.16095
31
0
0
ARC
5
103
100
AcDbEntity
8
0
100
AcDbCircle
10
-202.24419
20
-22.16095
30
0
40
0.49999999999999822
210
0
220
0
230
1
100
AcDbArc
50
-90
51
0
0
LINE
5
104
100
AcDbEntity
8
0
100
AcDbLine
10
-202.24419
20
-22.66095
30
0
11
-207.99419
21
-22.660949995032936
31
0
0
ARC
5
105
100
AcDbEntity
8
0
100
AcDbCircle
10
-207.99419
20
-22.16095
30
0
40
0.50000000000000711
210
0
220
0
230
1
100
AcDbArc
50
180
51
270
0
LINE
5
106
100
AcDbEntity
8
0
100
AcDbLine
10
-208.49419
20
-22.16095
30
0
11
-208.49419
21
-9.160949999999989
31
0
0
ARC
5
107
100
AcDbEntity
8
0
100
AcDbCircle
10
-207.99419
20
-9.1609499999999908
30
0
40
0.50000000000000711
210
0
220
-0
230
1
100
AcDbArc
50
90
51
180
0
LINE
5
108
100
AcDbEntity
8
0
100
AcDbLine
10
-207.99419
20
-8.6609499999999837
30
0
11
-202.24419
21
-8.6609499999999926
31
0
0
ARC
5
109
100
AcDbEntity
8
0
100
AcDbCircle
10
-202.24419
20
-9.1609499999999908
30
0
40
0.50000000000000711
210
0
220
0
230
1
100
AcDbArc
50
0
51
90
0
LINE
5
110
100
AcDbEntity
8
0
100
AcDbLine
10
-87.444190000000006
20
-9.1609499999999908
30
0
11
-87.444190000000006
21
-22.16095
31
0
0
ARC
5
111
100
AcDbEntity
8
0
100
AcDbCircle
10
-87.94419000000002
20
-22.16095
30
0
40
0.49999999999999822
210
0
220
0
230
1
100
AcDbArc
50
-90
51
0
0
LINE
5
112
100
AcDbEntity
8
0
100
AcDbLine
10
-87.94419000000002
20
-22.66095
30
0
11
-93.694190000000006
21
-22.660949995032936
31
0
0
ARC
5
113
100
AcDbEntity
8
0
100
AcDbCircle
10
-93.694190000000006
20
-22.16095
30
0
40
0.50000000000000711
210
0
220
0
230
1
100
AcDbArc
50
180
51
270
0
LINE
5
114
100
AcDbEntity
8
0
100
AcDbLine
10
-94.19419000000002
20
-22.16095
30
0
11
-94.19419000000002
21
-9.160949999999989
31
0
0
ARC
5
115
100
AcDbEntity
8
0
100
AcDbCircle
10
-93.694190000000006
20
-9.1609499999999908
30
0
40
0.50000000000000711
210
0
220
-0
230
1
100
AcDbArc
50
90
51
180
0
LINE
5
116
100
AcDbEntity
8
0
100
AcDbLine
10
-93.694190000000006
20
-8.6609499999999837
30
0
11
-87.94419000000002
21
-8.6609499999999926
31
0
0
ARC
5
117
100
AcDbEntity
8
0
100
AcDbCircle
10
-87.94419000000002
20
-9.1609499999999908
30
0
40
0.50000000000000711
210
0
220
0
230
1
100
AcDbArc
50
0
51
90
0
LWPOLYLINE
5
118
100
AcDbEntity
8
0
100
AcDbPolyline
90
8
70
1
43
0.0
10
-288.20019000000002
20
-8.1609499999997404
10
-288.20019000000002
20
-21.16095
42
0.41421356237309503
10
-287.70019000000002
20
-21.66095
10
-286.70019000000002
20
-21.66095
42
0.41421356237309503
10
-286.20019000000002
20
-21.16095
10
-286.20019000000008
20
-8.1609499999997404
42
0.41421356237310086
10
-286.70019000000002
20
-7.6609499999997599
10
-287.70019000000002
20
-7.6609499999997501
42
0.41421356237310608
0
LWPOLYLINE
5
119
100
AcDbEntity
8
0
100
AcDbPolyline
90
8
70
1
43
0.0
10
-283.55669
20
-8.1609499999999908
10
-283.55669
20
-21.16095
42
0.41421356237309503
10
-283.05669
20
-21.66095
10
-270.05669
20
-21.66095
42
0.41421356237309503
10
-269.55669
20
-21.16095
10
-269.55669
20
-8.1609499999999908
42
0.41421356237309503
10
-270.05669
20
-7.6609499999999811
10
-283.05669
20
-7.6609500000000015
42
0.41421356237309503
0
LWPOLYLINE
5
120
100
AcDbEntity
8
0
100
AcDbPolyline
90
8
70
1
43
0.0
10
-265.65069
20
-8.1609500000000104
10
-265.65069
20
-21.16095
42
0.41421356237309503
10
-265.15069
20
-21.66095
10
-264.15069000000005
20
-21.660949999999982
42
0.41421356237309503
10
-263.65069
20
-21.16095
10
-263.65069000000005
20
-8.1609500000000104
42
0.41421356237311324
10
-264.15069000000005
20
-7.6609500000000104
10
-265.15069
20
-7.6609499999999926
42
0.41421356237310153
0
LWPOLYLINE
5
121
100
AcDbEntity
8
0
100
AcDbPolyline
90
8
70
1
43
0.0
10
-259.74419
20
-8.1609499999999908
10
-259.74419
20
-21.16095
42
0.41421356237309503
10
-259.24419
20
-21.66095
10
-246.24419000000003
20
-21.66095
42
0.41421356237309503
10
-245.74419000000003
20
-21.16095
10
-245.74419000000003
20
-8.1609499999999908
42
0.41421356237309503
10
-246.24419000000003
20
-7.6609499999999811
10
-259.24419
20
-7.6609499999999837
42
0.41421356237309503
0
LWPOLYLINE
5
122
100
AcDbEntity
8
0
100
AcDbPolyline
90
8
70
1
43
0.0
10
-241.83819
20
-8.1609499999999997
10
-241.83819
20
-21.16095
42
0.41421356237309503
10
-241.33819000000003
20
-21.66095
10
-240.33819
20
-21.660949999999982
42
0.41421356237309503
10
-239.83819
20
-21.16095
10
-239.83819000000005
20
-8.1609499999999997
42
0.41421356237311258
10
-240.33819
20
-7.6609499999999997
10
-241.33819000000003
20
-7.6609499999999837
42
0.41421356237310025
0
LWPOLYLINE
5
123
100
AcDbEntity
8
0
100
AcDbPolyline
90
8
70
1
43
0.0
10
-235.93169000000003
20
-8.1609499999999908
10
-235.93169000000003
20
-21.16095
42
0.41421356237309503
10
-235.43169000000003
20
-21.66095
10
-222.43169
20
-21.66095
42
0.41421356237309503
10
-221.93169
20
-21.16095
10
-221.93169000000006
20
-8.1609499999999908
42
0.41421356237309503
10
-222.43169
20
-7.660950000000021
10
-235.43169000000003
20
-7.6609500000000015
42
0.41421356237309503
0
LWPOLYLINE
5
124
100
AcDbEntity
8
0
100
AcDbPolyline
90
7
70
1
43
0.0
10
-171.56976994331563
20
-10.425655896377897
42
-0.42968918166380082
10
-174.48370662685917
20
-21.660949985098206
10
-157.46919
20
-21.660949985098799
42
0.41421356237309503
10
-156.96919000000003
20
-21.160949985098799
10
-156.96919
20
-10.1609500149016
42
0.41421356237309503
10
-157.46919
20
-9.6609500149015801
10
-171.14558743977301
20
-9.6609500149016991
42
0.58884355287269119
0
LWPOLYLINE
5
125
100
AcDbEntity
8
0
100
AcDbPolyline
90
8
70
1
43
0.0
10
-138.96919
20
-10.160950014901402
10
-138.96919
20
-21.160949985098799
42
0.41421356237309503
10
-138.46919
20
-21.660949985098799
10
-120.74480896807501
20
-21.660949985098799
42
0.55753651583505137
10
-120.29759537257502
20
-20.937343187348802
10
-125.79759535767406
20
-9.937343217151227
42
0.28407904384041549
10
-126.24480895317402
20
-9.6609500149012106
10
-138.46919
20
-9.6609500149014025
42
0.41421356237309503
0
LWPOLYLINE
5
126
100
AcDbEntity
8
0
100
AcDbPolyline
90
8
70
1
43
0.0
10
-109.36578464232602
20
-9.9373432171513301
10
-114.865784627425
20
-20.937343187348901
42
0.5575365158349942
10
-114.41857103192501
20
-21.660949985098799
10
-97.729349713794619
20
-21.660949985098799
42
0.41421356237309503
10
-97.229349713794605
20
-21.160949985098799
10
-97.229349713794605
20
-10.160950014901699
42
0.41421356237309503
10
-97.729349713794619
20
-9.6609500149017098
10
-108.918571046826
20
-9.6609500149012995
42
0.28407904384043053
0
LWPOLYLINE
5
127
100
AcDbEntity
8
0
100
AcDbPolyline
90
7
70
1
43
0.0
10
-198.70903028620504
20
-10.160950014902102
10
-198.70903028620504
20
-21.160949985098799
42
0.41421356237309503
10
-198.20903028620504
20
-21.660949985098799
10
-182.22967337314066
20
-21.660949985097957
42
-0.42968918166377512
10
-185.14361005668445
20
-10.425655896378636
42
0.58884355287303236
10
-185.56779256022702
20
-9.6609500149019105
10
-198.20903028620504
20
-9.6609500149021006
42
0.41421356237309503
0
LWPOLYLINE
5
128
100
AcDbEntity
8
0
100
AcDbPolyline
90
8
70
1
43
0.0
10
-284.22593999999998
20
-58.760950000000001
10
-278.47594000000004
20
-58.760950000000001
42
0.41421356237309503
10
-277.97593999999998
20
-58.260950000000008
10
-277.97593999999998
20
-45.260950000000008
42
0.41421356237309503
10
-278.47594000000004
20
-44.760950000000001
10
-284.22593999999998
20
-44.760950000000008
42
0.41421356237309503
10
-284.72594000000004
20
-45.260950000000008
10
-284.72594000000004
20
-58.260950000000008
42
0.41421356237309503
0
LWPOLYLINE
5
129
100
AcDbEntity
8
0
100
AcDbPolyline
90
8
70
1
43
0.0
10
-286.70019000000002
20
-45.760950000000008
10
-287.70019000000002
20
-45.760950000000008
42
0.41421356237309503
10
-288.20019000000002
20
-46.260950000000001
10
-288.20019000000002
20
-78.310949999999707
42
0.41421356237315227
10
-287.70019000000002
20
-78.810949999999707
10
-286.70019000000002
20
-78.810949999999721
42
0.41421356237309503
10
-286.20019000000002
20
-78.310949999999707
10
-286.20019000000002
20
-46.260950000000001
42
0.41421356237309503
0
LWPOLYLINE
5
130
100
AcDbEntity
8
0
100
AcDbPolyline
90
14
70
1
43
0.0
10
-288.31919000000005
20
-27.21095
42
-0.41421356237309503
10
-287.81919000000005
20
-26.710950000000004
10
-279.96343999999999
20
-26.710950000000004
10
-279.96343999999999
20
-26.210950000000004
42
-0.41421356237309503
10
-279.46343999999999
20
-25.710950000000004
10
-273.71343999999999
20
-25.710949999999997
42
-0.41421356237309503
10
-273.21343999999999
20
-26.210950000000004
10
-273.21343999999999
20
-39.210949999999997
42
-0.41421356237309503
10
-273.71343999999999
20
-39.710949999999997
10
-274.31918999999999
20
-39.710949999999997
10
-274.31918999999999
20
-40.210949999999997
42
-0.41421356237309503
10
-274.81918999999999
20
-40.710949999999997
10
-287.81919000000005
20
-40.710950000000004
42
-0.41421356237309503
10
-288.31919000000005
20
-40.210949999999997
0
LWPOLYLINE
5
131
100
AcDbEntity
8
0
100
AcDbPolyline
90
20
70
1
43
0.0
10
-280.85719
20
-82.860950000000017
10
-286.60719
20
-82.860950000000017
42
0.41421356237309503
10
-287.10719
20
-83.360950000000003
10
-287.10719
20
-83.860950000000003
10
-287.81919000000005
20
-83.860949999999988
42
0.41421356237309503
10
-288.31918999999999
20
-84.360950000000003
10
-288.31919000000005
20
-97.360950000000003
42
0.41421356237309503
10
-287.81919000000005
20
-97.860950000000017
10
-255.76919000000004
20
-97.860950000000017
42
0.41421356237309503
10
-255.26919000000004
20
-97.360950000000003
10
-255.26919000000004
20
-84.360950000000003
42
0.41421356237309503
10
-255.76919000000004
20
-83.860950000000003
10
-256.48119000000003
20
-83.860950000000003
10
-256.48119000000003
20
-83.360950000000003
42
0.41421356237309503
10
-256.98119000000008
20
-82.860950000000017
10
-262.73119000000003
20
-82.860950000000017
42
0.41421356237309503
10
-263.23119000000008
20
-83.360950000000003
10
-263.23119000000008
20
-83.860950000000003
10
-280.35719
20
-83.860950000000003
10
-280.35719
20
-83.360950000000003
42
0.41421356237309503
0
LWPOLYLINE
5
132
100
AcDbEntity
8
0
100
AcDbPolyline
90
8
70
1
43
0.0
10
-217.16919000000001
20
-97.360950000000003
10
-217.16919000000001
20
-84.360950000000003
42
0.41421356237309503
10
-217.66919000000001
20
-83.860950000000003
10
-230.66918999999999
20
-83.860950000000003
42
0.41421356237309503
10
-231.16918999999999
20
-84.360950000000003
10
-231.16918999999999
20
-97.360950000000003
42
0.41421356237309503
10
-230.66918999999999
20
-97.860950000000017
10
-217.66919000000001
20
-97.860950000000017
42
0.41421356237309503
0
LWPOLYLINE
5
133
100
AcDbEntity
8
0
100
AcDbPolyline
90
8
70
1
43
0.0
10
-221.14419000000001
20
-78.810950000000005
10
-208.14419000000001
20
-78.810950000000005
42
0.41421356237309503
10
-207.64419000000004
20
-78.31095000000002
10
-207.64419000000001
20
-65.310950000000005
42
0.41421356237309503
10
-208.14419000000001
20
-64.810950000000005
10
-221.14419000000001
20
-64.810949999999991
42
0.41421356237309503
10
-221.64419000000004
20
-65.310950000000005
10
-221.64418999999998
20
-78.31095000000002
42
0.41421356237309503
0
LWPOLYLINE
5
134
100
AcDbEntity
8
0
100
AcDbPolyline
90
8
70
1
43
0.0
10
-231.45669000000001
20
-59.260950000000001
10
-231.45669000000001
20
-46.260950000000001
42
0.41421356237309503
10
-231.95669000000004
20
-45.760950000000008
10
-244.95669000000004
20
-45.760950000000008
42
0.41421356237309503
10
-245.45669000000004
20
-46.260950000000001
10
-245.45669000000004
20
-59.260950000000001
42
0.41421356237309503
10
-244.95669000000004
20
-59.760950000000008
10
-231.95669000000004
20
-59.760950000000001
42
0.41421356237309503
0
LWPOLYLINE
5
135
100
AcDbEntity
8
0
100
AcDbPolyline
90
8
70
1
43
0.0
10
-235.43169000000003
20
-40.710949999999997
10
-222.43169
20
-40.710949999999997
42
0.41421356237309503
10
-221.93169
20
-40.210949999999997
10
-221.93169
20
-27.21095
42
0.41421356237309503
10
-222.43169
20
-26.710950000000004
10
-235.43169000000003
20
-26.710950000000004
42
0.41421356237309503
10
-235.93169000000003
20
-27.21095
10
-235.93169000000003
20
-40.210949999999997
42
0.41421356237309503
0
LWPOLYLINE
5
136
100
AcDbEntity
8
0
100
AcDbPolyline
90
8
70
1
43
0.0
10
-254.09994
20
-58.260950000000008
42
-0.41421356237309503
10
-254.59994
20
-58.760950000000001
10
-260.34994
20
-58.76094999999998
42
-0.41421356237309503
10
-260.84994
20
-58.260950000000008
10
-260.84994
20
-45.260950000000008
42
-0.41421356237309503
10
-260.34994
20
-44.760950000000008
10
-254.59994
20
-44.760950000000001
42
-0.41421356237309503
10
-254.09994
20
-45.260950000000008
0
LWPOLYLINE
5
137
100
AcDbEntity
8
0
100
AcDbPolyline
90
8
70
1
43
0.0
10
-249.71919
20
-97.860950000000017
10
-236.71919000000003
20
-97.860950000000017
42
0.41421356237309503
10
-236.21919000000003
20
-97.360950000000003
10
-236.21919000000003
20
-84.360950000000003
42
0.41421356237309503
10
-236.71919000000003
20
-83.860950000000003
10
-249.71919
20
-83.860950000000003
42
0.41421356237309503
10
-250.21919
20
-84.360950000000003
10
-250.21919
20
-97.360950000000003
42
0.41421356237309503
0
LWPOLYLINE
5
138
100
AcDbEntity
8
0
100
AcDbPolyline
90
8
70
1
43
0.0
10
-240.19418999999999
20
-78.810950000000005
10
-227.19419000000002
20
-78.810950000000005
42
0.41421356237309503
10
-226.69419000000002
20
-78.31095000000002
10
-226.69419000000002
20
-65.310950000000005
42
0.41421356237309503
10
-227.19419000000002
20
-64.810950000000005
10
-240.19418999999999
20
-64.810949999999991
42
0.41421356237309503
10
-240.69418999999999
20
-65.310950000000005
10
-240.69418999999999
20
-78.31095000000002
42
0.41421356237309503
0
LWPOLYLINE
5
139
100
AcDbEntity
8
0
100
AcDbPolyline
90
8
70
1
43
0.0
10
-259.24419
20
-78.810950000000005
10
-246.24419000000003
20
-78.810950000000005
42
0.41421356237309503
10
-245.74419000000003
20
-78.31095000000002
10
-245.74419000000003
20
-65.310950000000005
42
0.41421356237309503
10
-246.24419000000003
20
-64.810950000000005
10
-259.24419
20
-64.810949999999991
42
0.41421356237309503
10
-259.74419
20
-65.310950000000005
10
-259.74419
20
-78.31095000000002
42
0.41421356237309503
0
LWPOLYLINE
5
140
100
AcDbEntity
8
0
100
AcDbPolyline
90
8
70
1
43
0.0
10
-242.13469000000003
20
-26.710950000000004
10
-243.13469000000001
20
-26.710950000000004
42
0.41421356237309503
10
-243.63469000000003
20
-27.21095
10
-243.63468999999998
20
-40.210949999999997
42
0.41421356237309503
10
-243.13469000000001
20
-40.710949999999997
10
-242.13469000000003
20
-40.71094999999999
42
0.41421356237309503
10
-241.63469000000003
20
-40.210949999999997
10
-241.63469000000003
20
-27.21095
42
0.41421356237309503
0
LWPOLYLINE
5
141
100
AcDbEntity
8
0
100
AcDbPolyline
90
8
70
1
43
0.0
10
-249.27819
20
-45.760950000000008
10
-250.27819
20
-45.760950000000008
42
0.41421356237309503
10
-250.77819000000002
20
-46.260950000000001
10
-250.77819000000002
20
-59.260950000000001
42
0.41421356237309503
10
-250.27819
20
-59.760950000000008
10
-249.27819
20
-59.760949999999973
42
0.41421356237309503
10
-248.77819000000002
20
-59.260950000000001
10
-248.77819000000002
20
-46.260950000000001
42
0.41421356237309503
0
LWPOLYLINE
5
142
100
AcDbEntity
8
0
100
AcDbPolyline
90
8
70
1
43
0.0
10
-264.15069000000005
20
-64.810950000000005
10
-265.15069
20
-64.810950000000005
42
0.41421356237309503
10
-265.65069
20
-65.310950000000005
10
-265.65069
20
-78.31095000000002
42
0.41421356237309503
10
-265.15069
20
-78.810950000000005
10
-264.15069000000005
20
-78.810949999999991
42
0.41421356237309503
10
-263.65069
20
-78.31095000000002
10
-263.65069000000005
20
-65.310950000000005
42
0.41421356237309503
0
LWPOLYLINE
5
143
100
AcDbEntity
8
0
100
AcDbPolyline
90
8
70
1
43
0.0
10
-183.83169000000004
20
-40.210949999999997
10
-183.83169000000004
20
-27.21095
42
0.41421356237309503
10
-184.33169000000004
20
-26.710950000000004
10
-197.33169000000004
20
-26.710950000000004
42
0.41421356237309503
10
-197.83169000000001
20
-27.21095
10
-197.83169000000004
20
-40.210949999999997
42
0.41421356237309503
10
-197.33169000000004
20
-40.710949999999997
10
-184.33169000000004
20
-40.710949999999997
42
0.41421356237309503
0
LWPOLYLINE
5
144
100
AcDbEntity
8
0
100
AcDbPolyline
90
8
70
1
43
0.0
10
-146.23168999999999
20
-26.710950000000004
10
-159.23168999999999
20
-26.710950000000004
42
0.41421356237309503
10
-159.73168999999999
20
-27.21095
10
-159.73168999999999
20
-40.210949999999997
42
0.41421356237309503
10
-159.23168999999999
20
-40.710949999999997
10
-146.23168999999999
20
-40.710949999999997
42
0.41421356237309503
10
-145.73169000000001
20
-40.210949999999997
10
-145.73168999999999
20
-27.21095
42
0.41421356237309503
0
LWPOLYLINE
5
145
100
AcDbEntity
8
0
100
AcDbPolyline
90
8
70
1
43
0.0
10
-178.28169
20
-40.710949999999997
10
-165.28169000000003
20
-40.710949999999997
42
0.41421356237309503
10
-164.78169000000003
20
-40.210949999999997
10
-164.78169000000003
20
-27.21095
42
0.41421356237309503
10
-165.28169000000003
20
-26.710950000000004
10
-178.28169
20
-26.710950000000004
42
0.41421356237309503
10
-178.78169
20
-27.21095
10
-178.78169
20
-40.210949999999997
42
0.41421356237309503
0
LWPOLYLINE
5
146
100
AcDbEntity
8
0
100
AcDbPolyline
90
8
70
1
43
0.0
10
-155.25668999999999
20
-59.260950000000001
42
-0.41421356237309503
10
-155.75668999999999
20
-59.760950000000001
10
-168.75668999999999
20
-59.760950000000008
42
-0.41421356237309503
10
-169.25668999999999
20
-59.260950000000001
10
-169.25668999999999
20
-46.260950000000001
42
-0.41421356237309503
10
-168.75668999999999
20
-45.760950000000008
10
-155.75668999999999
20
-45.760949999999994
42
-0.41421356237309503
10
-155.25668999999999
20
-46.260950000000001
0
LWPOLYLINE
5
147
100
AcDbEntity
8
0
100
AcDbPolyline
90
8
70
1
43
0.0
10
-140.68169
20
-27.21095
42
-0.41421356237309503
10
-140.18169
20
-26.710950000000004
10
-127.18169000000002
20
-26.710949999999993
42
-0.41421356237309503
10
-126.68169
20
-27.21095
10
-126.68169000000003
20
-40.210949999999997
42
-0.41421356237309503
10
-127.18169000000002
20
-40.710949999999997
10
-140.18169
20
-40.710950000000004
42
-0.41421356237309503
10
-140.68169
20
-40.210949999999997
0
LWPOLYLINE
5
148
100
AcDbEntity
8
0
100
AcDbPolyline
90
8
70
1
43
0.0
10
-136.70669000000001
20
-45.760950000000008
10
-149.70669000000001
20
-45.760950000000008
42
0.41421356237309503
10
-150.20669000000001
20
-46.260950000000001
10
-150.20669000000001
20
-59.260950000000001
42
0.41421356237309503
10
-149.70669000000001
20
-59.760950000000008
10
-136.70669000000001
20
-59.760950000000001
42
0.41421356237309503
10
-136.20669000000001
20
-59.260950000000001
10
-136.20669000000001
20
-46.260950000000001
42
0.41421356237309503
0
LWPOLYLINE
5
149
100
AcDbEntity
8
0
100
AcDbPolyline
90
8
70
1
43
0.0
10
-131.94418999999999
20
-64.810950000000005
10
-144.94418999999999
20
-64.810950000000005
42
0.41421356237309503
10
-145.44418999999999
20
-65.310950000000005
10
-145.44419000000002
20
-78.31095000000002
42
0.41421356237309503
10
-144.94418999999999
20
-78.810950000000005
10
-131.94418999999999
20
-78.810950000000005
42
0.41421356237309503
10
-131.44418999999999
20
-78.31095000000002
10
-131.44418999999999
20
-65.310950000000005
42
0.41421356237309503
0
LWPOLYLINE
5
150
100
AcDbEntity
8
0
100
AcDbPolyline
90
8
70
1
43
0.0
10
-50.98169
20
-26.710950000000004
10
-63.98169
20
-26.710950000000004
42
0.41421356237309503
10
-64.48169
20
-27.21095
10
-64.481689999999986
20
-40.210949999999997
42
0.41421356237309503
10
-63.98169
20
-40.710949999999997
10
-50.98169
20
-40.710949999999997
42
0.41421356237309503
10
-50.481690000000008
20
-40.210949999999997
10
-50.48169
20
-27.21095
42
0.41421356237309503
0
LWPOLYLINE
5
151
100
AcDbEntity
8
0
100
AcDbPolyline
90
8
70
1
43
0.0
10
-60.506689999999999
20
-45.760950000000008
10
-73.506690000000006
20
-45.760950000000008
42
0.41421356237309503
10
-74.006690000000006
20
-46.260950000000001
10
-74.006689999999992
20
-59.260950000000001
42
0.41421356237309503
10
-73.506690000000006
20
-59.760950000000008
10
-60.506689999999999
20
-59.760950000000001
42
0.41421356237309503
10
-60.006690000000006
20
-59.260950000000001
10
-60.006689999999992
20
-46.260950000000001
42
0.41421356237309503
0
LWPOLYLINE
5
152
100
AcDbEntity
8
0
100
AcDbPolyline
90
8
70
1
43
0.0
10
-74.29419
20
-78.31095000000002
10
-74.29419
20
-65.310950000000005
42
0.41421356237309503
10
-74.79419
20
-64.810950000000005
10
-87.794190000000015
20
-64.810950000000005
42
0.41421356237309503
10
-88.29419
20
-65.310950000000005
10
-88.29419
20
-78.31095000000002
42
0.41421356237309503
10
-87.794190000000015
20
-78.810950000000005
10
-74.79419
20
-78.810950000000005
42
0.41421356237309503
0
LWPOLYLINE
5
153
100
AcDbEntity
8
0
100
AcDbPolyline
90
8
70
1
43
0.0
10
-45.659939999999999
20
-26.710950000000004
42
-0.41421356237309503
10
-45.159939999999999
20
-27.21095
10
-45.159939999999999
20
-40.210949999999997
42
-0.41421356237309503
10
-45.659939999999999
20
-40.710949999999997
10
-46.659940000000006
20
-40.71094999999999
42
-0.41421356237309503
10
-47.159939999999992
20
-40.210949999999997
10
-47.159940000000006
20
-27.21095
42
-0.41421356237309503
10
-46.659940000000006
20
-26.710950000000004
0
LWPOLYLINE
5
154
100
AcDbEntity
8
0
100
AcDbPolyline
90
8
70
1
43
0.0
10
-41.456690000000009
20
-45.760950000000008
10
-54.456690000000009
20
-45.760950000000008
42
0.41421356237309503
10
-54.956690000000002
20
-46.260950000000001
10
-54.956689999999995
20
-59.260950000000001
42
0.41421356237309503
10
-54.456690000000009
20
-59.760950000000008
10
-41.456690000000009
20
-59.760950000000001
42
0.41421356237309503
10
-40.956690000000002
20
-59.260950000000001
10
-40.956690000000002
20
-46.260950000000001
42
0.41421356237309503
0
LWPOLYLINE
5
155
100
AcDbEntity
8
0
100
AcDbPolyline
90
8
70
1
43
0.0
10
-36.694189999999999
20
-64.810950000000005
10
-49.694190000000006
20
-64.810950000000005
42
0.41421356237309503
10
-50.194189999999999
20
-65.310950000000005
10
-50.194190000000006
20
-78.31095000000002
42
0.41421356237309503
10
-49.694190000000006
20
-78.810950000000005
10
-36.694189999999999
20
-78.810950000000005
42
0.41421356237309503
10
-36.194189999999999
20
-78.31095000000002
10
-36.194189999999999
20
-65.310950000000005
42
0.41421356237309503
0
LWPOLYLINE
5
156
100
AcDbEntity
8
0
100
AcDbPolyline
90
8
70
1
43
0.0
10
-59.219189999999998
20
-97.860950000000017
10
-46.219189999999998
20
-97.860950000000017
42
0.41421356237309503
10
-45.719190000000005
20
-97.360950000000003
10
-45.719189999999998
20
-84.360950000000003
42
0.41421356237309503
10
-46.219189999999998
20
-83.860950000000003
10
-59.219189999999998
20
-83.860950000000003
42
0.41421356237309503
10
-59.719189999999998
20
-84.360950000000003
10
-59.71918999999999
20
-97.360950000000003
42
0.41421356237309503
0
LWPOLYLINE
5
157
100
AcDbEntity
8
0
100
AcDbPolyline
90
8
70
1
43
0.0
10
-68.744190000000003
20
-78.810950000000005
10
-55.744190000000003
20
-78.810950000000005
42
0.41421356237309503
10
-55.24419000000001
20
-78.31095000000002
10
-55.244190000000003
20
-65.310950000000005
42
0.41421356237309503
10
-55.744190000000003
20
-64.810950000000005
10
-68.744190000000003
20
-64.810949999999991
42
0.41421356237309503
10
-69.244190000000003
20
-65.310950000000005
10
-69.244190000000017
20
-78.31095000000002
42
0.41421356237309503
0
LWPOLYLINE
5
158
100
AcDbEntity
8
0
100
AcDbPolyline
90
8
70
1
43
0.0
10
-41.338439999999999
20
-39.710949999999997
10
-35.588439999999999
20
-39.710949999999997
42
0.41421356237309503
10
-35.088439999999999
20
-39.210949999999997
10
-35.088440000000006
20
-26.210950000000004
42
0.41421356237309503
10
-35.588439999999999
20
-25.71095
10
-41.338439999999999
20
-25.710950000000004
42
0.41421356237309503
10
-41.838439999999999
20
-26.210950000000004
10
-41.838440000000006
20
-39.210949999999997
42
0.41421356237309503
0
LWPOLYLINE
5
159
100
AcDbEntity
8
0
100
AcDbPolyline
90
8
70
1
43
0.0
10
-7.6191899999999899
20
-97.360950000000003
10
-7.6191899999999997
20
-84.360950000000003
42
0.41421356237309503
10
-8.1191899999999997
20
-83.860950000000003
10
-21.11919
20
-83.860950000000003
42
0.41421356237309503
10
-21.619190000000003
20
-84.360950000000003
10
-21.619189999999996
20
-97.360950000000003
42
0.41421356237309503
10
-21.11919
20
-97.860950000000017
10
-8.1191899999999997
20
-97.860950000000017
42
0.41421356237309503
0
LWPOLYLINE
5
160
100
AcDbEntity
8
0
100
AcDbPolyline
90
8
70
1
43
0.0
10
-12.381690000000001
20
-78.31095000000002
10
-12.381690000000001
20
-65.310950000000005
42
0.41421356237309503
10
-12.881690000000001
20
-64.810950000000005
10
-25.881690000000003
20
-64.810950000000005
42
0.41421356237309503
10
-26.381689999999999
20
-65.310950000000005
10
-26.381689999999999
20
-78.31095000000002
42
0.41421356237309503
10
-25.881690000000003
20
-78.810950000000005
10
-12.881690000000001
20
-78.810950000000005
42
0.41421356237309503
0
LWPOLYLINE
5
161
100
AcDbEntity
8
0
100
AcDbPolyline
90
8
70
1
43
0.0
10
-28.262940000000004
20
-59.760950000000008
10
-10.500439999999999
20
-59.760950000000008
42
0.41421356237309503
10
-10.000439999999999
20
-59.260950000000001
10
-10.000440000000001
20
-46.260950000000001
42
0.41421356237309503
10
-10.500439999999999
20
-45.760950000000008
10
-28.262940000000004
20
-45.760950000000008
42
0.41421356237309503
10
-28.76294
20
-46.260950000000001
10
-28.76294
20
-59.260950000000001
42
0.41421356237309503
0
LWPOLYLINE
5
162
100
AcDbEntity
8
0
100
AcDbPolyline
90
8
70
1
43
0.0
10
-33.025440000000003
20
-40.710949999999997
10
-20.02544
20
-40.710949999999997
42
0.41421356237309503
10
-19.52544
20
-40.210949999999997
10
-19.52544
20
-27.21095
42
0.41421356237309503
10
-20.02544
20
-26.710950000000004
10
-33.025440000000003
20
-26.710950000000004
42
0.41421356237309503
10
-33.525440000000003
20
-27.21095
10
-33.52544000000001
20
-40.210949999999997
42
0.41421356237309503
0
LWPOLYLINE
5
163
100
AcDbEntity
8
0
100
AcDbPolyline
90
8
70
1
43
0.0
10
-40.66919
20
-84.360950000000003
10
-40.66919
20
-97.360950000000003
42
0.41421356237309503
10
-40.169190000000008
20
-97.860950000000017
10
-27.169190000000004
20
-97.860950000000017
42
0.41421356237309503
10
-26.66919
20
-97.360950000000003
10
-26.669190000000004
20
-84.360950000000003
42
0.41421356237309503
10
-27.169190000000004
20
-83.860950000000003
10
-40.169190000000008
20
-83.860950000000003
42
0.41421356237309503
0
LWPOLYLINE
5
164
100
AcDbEntity
8
0
100
AcDbPolyline
90
8
70
1
43
0.0
10
-30.78819
20
-64.9573966094067
10
-31.788190000000004
20
-64.9573966094067
42
0.41421356237309503
10
-32.28819
20
-65.4573966094067
10
-32.28819
20
-78.31095000000002
42
0.41421356237309503
10
-31.788190000000004
20
-78.810950000000005
10
-30.78819
20
-78.810950000000005
42
0.41421356237309503
10
-30.288190000000004
20
-78.31095000000002
10
-30.288190000000004
20
-65.4573966094067
42
0.41421356237309503
0
LWPOLYLINE
5
165
100
AcDbEntity
8
0
100
AcDbPolyline
90
8
70
1
43
0.0
10
-34.359940000000002
20
-45.760950000000008
10
-35.359940000000009
20
-45.760950000000008
42
0.41421356237309503
10
-35.859940000000002
20
-46.260950000000001
10
-35.859940000000002
20
-59.260950000000001
42
0.41421356237309503
10
-35.359940000000009
20
-59.760950000000008
10
-34.359940000000002
20
-59.760950000000001
42
0.41421356237309503
10
-33.859940000000002
20
-59.260950000000001
10
-33.859940000000009
20
-46.260950000000001
42
0.41421356237309503
0
LWPOLYLINE
5
166
100
AcDbEntity
8
0
100
AcDbPolyline
90
8
70
1
43
0.0
10
-7.7381900000000003
20
-78.31095000000002
10
-7.7381900000000003
20
-65.310950000000005
42
0.41421356237309503
10
-8.2381899999999995
20
-64.810950000000005
10
-9.2381899999999995
20
-64.810950000000005
42
0.41421356237309503
10
-9.7381899999999906
20
-65.310950000000005
10
-9.7381899999999995
20
-78.31095000000002
42
0.41421356237309503
10
-9.2381899999999995
20
-78.810950000000005
10
-8.2381899999999995
20
-78.810950000000005
42
0.41421356237309503
0
LWPOLYLINE
5
167
100
AcDbEntity
8
0
100
AcDbPolyline
90
8
70
1
43
0.0
10
-17.462440000000001
20
-39.710949999999997
10
-11.712440000000001
20
-39.710949999999997
42
0.41421356237309503
10
-11.212440000000001
20
-39.210949999999997
10
-11.212440000000004
20
-26.210950000000004
42
0.41421356237309503
10
-11.712440000000001
20
-25.71095
10
-17.462440000000001
20
-25.710950000000004
42
0.41421356237309503
10
-17.962440000000001
20
-26.210950000000004
10
-17.962440000000001
20
-39.210949999999997
42
0.41421356237309503
0
LWPOLYLINE
5
168
100
AcDbEntity
8
0
100
AcDbPolyline
90
8
70
1
43
0.0
10
-65.269189999999995
20
-83.860950000000003
10
-78.269190000000009
20
-83.860950000000003
42
0.41421356237309503
10
-78.769189999999995
20
-84.360950000000003
10
-78.769189999999995
20
-97.360950000000003
42
0.41421356237309503
10
-78.269190000000009
20
-97.860950000000017
10
-65.269189999999995
20
-97.860950000000017
42
0.41421356237309503
10
-64.769189999999995
20
-97.360950000000003
10
-64.769190000000009
20
-84.360950000000003
42
0.41421356237309503
0
LWPOLYLINE
5
169
100
AcDbEntity
8
0
100
AcDbPolyline
90
8
70
1
43
0.0
10
-97.31919000000002
20
-97.860950000000017
10
-84.319190000000006
20
-97.860950000000017
42
0.41421356237309503
10
-83.81919000000002
20
-97.360950000000003
10
-83.81919000000002
20
-84.360950000000003
42
0.41421356237309503
10
-84.319190000000006
20
-83.860950000000003
10
-97.31919000000002
20
-83.860950000000003
42
0.41421356237309503
10
-97.81919000000002
20
-84.360950000000003
10
-97.81919000000002
20
-97.360950000000003
42
0.41421356237309503
0
LWPOLYLINE
5
170
100
AcDbEntity
8
0
100
AcDbPolyline
90
8
70
1
43
0.0
10
-93.344189999999998
20
-78.31095000000002
42
-0.41421356237309503
10
-93.844189999999998
20
-78.810950000000005
10
-106.84419
20
-78.81095000000002
42
-0.41421356237309503
10
-107.34419000000001
20
-78.31095000000002
10
-107.34419
20
-65.310950000000005
42
-0.41421356237309503
10
-106.84419
20
-64.810950000000005
10
-93.844189999999998
20
-64.81095000000002
42
-0.41421356237309503
10
-93.344189999999998
20
-65.310950000000005
0
LWPOLYLINE
5
171
100
AcDbEntity
8
0
100
AcDbPolyline
90
8
70
1
43
0.0
10
-116.36919
20
-97.860950000000017
10
-103.36919000000002
20
-97.860950000000017
42
0.41421356237309503
10
-102.86919
20
-97.360950000000003
10
-102.86919
20
-84.360950000000003
42
0.41421356237309503
10
-103.36919000000002
20
-83.860950000000003
10
-116.36919
20
-83.860950000000003
42
0.41421356237309503
10
-116.86919000000002
20
-84.360950000000003
10
-116.86919000000002
20
-97.360950000000003
42
0.41421356237309503
0
LWPOLYLINE
5
172
100
AcDbEntity
8
0
100
AcDbPolyline
90
8
70
1
43
0.0
10
-125.89418999999999
20
-78.810950000000005
10
-112.89419000000001
20
-78.810950000000005
42
0.41421356237309503
10
-112.39418999999999
20
-78.31095000000002
10
-112.39418999999999
20
-65.310950000000005
42
0.41421356237309503
10
-112.89419000000001
20
-64.810950000000005
10
-125.89418999999999
20
-64.810949999999991
42
0.41421356237309503
10
-126.39419000000001
20
-65.310950000000005
10
-126.39419000000001
20
-78.31095000000002
42
0.41421356237309503
0
LWPOLYLINE
5
173
100
AcDbEntity
8
0
100
AcDbPolyline
90
8
70
1
43
0.0
10
-83.031689999999998
20
-40.710949999999997
10
-70.031689999999998
20
-40.710949999999997
42
0.41421356237309503
10
-69.531689999999998
20
-40.210949999999997
10
-69.531690000000012
20
-27.21095
42
0.41421356237309503
10
-70.031689999999998
20
-26.710950000000004
10
-83.031689999999998
20
-26.710950000000004
42
0.41421356237309503
10
-83.531689999999998
20
-27.21095
10
-83.531689999999998
20
-40.210949999999997
42
0.41421356237309503
0
LWPOLYLINE
5
174
100
AcDbEntity
8
0
100
AcDbPolyline
90
8
70
1
43
0.0
10
-135.41919000000001
20
-97.860950000000017
10
-122.41919000000001
20
-97.860950000000017
42
0.41421356237309503
10
-121.91919
20
-97.360950000000003
10
-121.91919
20
-84.360950000000003
42
0.41421356237309503
10
-122.41919000000001
20
-83.860950000000003
10
-135.41919000000001
20
-83.860950000000003
42
0.41421356237309503
10
-135.91918999999999
20
-84.360950000000003
10
-135.91919000000001
20
-97.360950000000003
42
0.41421356237309503
0
LWPOLYLINE
5
175
100
AcDbEntity
8
0
100
AcDbPolyline
90
8
70
1
43
0.0
10
-102.58169000000001
20
-27.21095
10
-102.58169000000001
20
-40.210949999999997
42
0.41421356237309503
10
-102.08168999999999
20
-40.710949999999997
10
-89.081689999999995
20
-40.710949999999997
42
0.41421356237309503
10
-88.581690000000009
20
-40.210949999999997
10
-88.581690000000009
20
-27.21095
42
0.41421356237309503
10
-89.081689999999995
20
-26.710950000000004
10
-102.08168999999999
20
-26.710950000000004
42
0.41421356237309503
0
LWPOLYLINE
5
176
100
AcDbEntity
8
0
100
AcDbPolyline
90
8
70
1
43
0.0
10
-112.10669000000001
20
-46.260950000000001
10
-112.10669000000001
20
-59.260950000000001
42
0.41421356237309503
10
-111.60669
20
-59.760950000000008
10
-98.606690000000015
20
-59.760950000000001
42
0.41421356237309503
10
-98.106690000000015
20
-59.260950000000001
10
-98.106690000000015
20
-46.260950000000001
42
0.41421356237309503
10
-98.606690000000015
20
-45.760950000000008
10
-111.60669
20
-45.760950000000008
42
0.41421356237309503
0
LWPOLYLINE
5
177
100
AcDbEntity
8
0
100
AcDbPolyline
90
8
70
1
43
0.0
10
-92.556690000000003
20
-59.760950000000008
10
-79.556690000000003
20
-59.760950000000008
42
0.41421356237309503
10
-79.056690000000003
20
-59.260950000000001
10
-79.056690000000017
20
-46.260950000000001
42
0.41421356237309503
10
-79.556690000000003
20
-45.760950000000008
10
-92.556690000000003
20
-45.760950000000008
42
0.41421356237309503
10
-93.056690000000003
20
-46.260950000000001
10
-93.056690000000017
20
-59.260950000000001
42
0.41421356237309503
0
LWPOLYLINE
5
178
100
AcDbEntity
8
0
100
AcDbPolyline
90
8
70
1
43
0.0
10
-117.65669000000001
20
-45.760949999999994
42
-0.41421356237309503
10
-117.15669
20
-46.260950000000001
10
-117.15669000000003
20
-59.260950000000001
42
-0.41421356237309503
10
-117.65669000000001
20
-59.760950000000001
10
-130.65669
20
-59.760950000000008
42
-0.41421356237309503
10
-131.15669
20
-59.260950000000001
10
-131.15669
20
-46.260950000000001
42
-0.41421356237309503
10
-130.65669
20
-45.760950000000008
0
LWPOLYLINE
5
179
100
AcDbEntity
8
0
100
AcDbPolyline
90
8
70
1
43
0.0
10
-107.63169000000002
20
-40.210949999999997
10
-107.63169000000002
20
-27.21095
42
0.41421356237309503
10
-108.13169000000002
20
-26.710950000000004
10
-121.13169000000001
20
-26.710950000000004
42
0.41421356237309503
10
-121.63169000000002
20
-27.21095
10
-121.63169000000002
20
-40.210949999999997
42
0.41421356237309503
10
-121.13169000000001
20
-40.710949999999997
10
-108.13169000000002
20
-40.710949999999997
42
0.41421356237309503
0
LWPOLYLINE
5
180
100
AcDbEntity
8
0
100
AcDbPolyline
90
8
70
1
43
0.0
10
-9.738190000000003
20
-8.1609499999999908
42
-0.41421356237310153
10
-9.2381899999999995
20
-7.6609499999999775
10
-8.2381899999999995
20
-7.6609499999999819
42
-0.41421356237309503
10
-7.7381900000000012
20
-8.1609499999999802
10
-7.7381900000000012
20
-40.210949999999997
42
-0.41421356237309503
10
-8.2381899999999995
20
-40.710949999999997
10
-9.2381899999999995
20
-40.710949999999997
42
-0.41421356237309503
10
-9.7381899999999995
20
-40.210949999999997
0
LWPOLYLINE
5
181
100
AcDbEntity
8
0
100
AcDbPolyline
90
8
70
1
43
0.0
10
-26.381689999999992
20
-8.1609499999999908
42
-0.41421356237309503
10
-25.881690000000003
20
-7.6609500000000015
10
-12.881690000000001
20
-7.6609499999999908
42
-0.41421356237309503
10
-12.381690000000001
20
-8.1609499999999908
10
-12.381690000000003
20
-21.16095
42
-0.41421356237309503
10
-12.881690000000001
20
-21.66095
10
-25.881690000000003
20
-21.66095
42
-0.41421356237309503
10
-26.381689999999999
20
-21.16095
0
LWPOLYLINE
5
182
100
AcDbEntity
8
0
100
AcDbPolyline
90
8
70
1
43
0.0
10
-32.288190000000007
20
-8.1609499999999802
42
-0.41421356237308854
10
-31.788190000000004
20
-7.6609499999999837
10
-30.78819
20
-7.6609499999999837
42
-0.41421356237308854
10
-30.288189999999993
20
-8.1609499999999802
10
-30.28818999999999
20
-21.16095
42
-0.41421356237309503
10
-30.78819
20
-21.660950000000014
10
-31.788190000000004
20
-21.660950000000014
42
-0.41421356237309503
10
-32.288190000000014
20
-21.16095
0
LWPOLYLINE
5
183
100
AcDbEntity
8
0
100
AcDbPolyline
90
8
70
1
43
0.0
10
-50.194189999999992
20
-8.1609499999999908
42
-0.41421356237309503
10
-49.694190000000006
20
-7.6609500000000015
10
-36.694189999999999
20
-7.6609499999999926
42
-0.41421356237309503
10
-36.194189999999999
20
-8.1609499999999908
10
-36.194189999999999
20
-21.16095
42
-0.41421356237309503
10
-36.694189999999999
20
-21.66095
10
-49.694190000000006
20
-21.660950000000007
42
-0.41421356237309503
10
-50.194190000000006
20
-21.16095
0
LWPOLYLINE
5
184
100
AcDbEntity
8
0
100
AcDbPolyline
90
8
70
1
43
0.0
10
-74.006689999999992
20
-8.1609499999999908
42
-0.41421356237309503
10
-73.506690000000006
20
-7.6609500000000015
10
-60.506689999999999
20
-7.6609499999999837
42
-0.41421356237309503
10
-60.006689999999992
20
-8.1609499999999908
10
-60.006690000000006
20
-21.16095
42
-0.41421356237309503
10
-60.506689999999999
20
-21.66095
10
-73.506690000000006
20
-21.660949999999989
42
-0.41421356237309503
10
-74.006689999999992
20
-21.16095
0
LWPOLYLINE
5
185
100
AcDbEntity
8
0
100
AcDbPolyline
90
8
70
1
43
0.0
10
-216.38169000000002
20
-40.710949999999997
10
-203.38168999999999
20
-40.710949999999997
42
0.41421356237309503
10
-202.88168999999999
20
-40.210949999999997
10
-202.88169000000005
20
-27.21095
42
0.41421356237309503
10
-203.38168999999999
20
-26.710950000000004
10
-216.38169000000002
20
-26.710950000000004
42
0.41421356237309503
10
-216.88169000000002
20
-27.21095
10
-216.88169000000002
20
-40.210949999999997
42
0.41421356237309503
0
LWPOLYLINE
5
186
100
AcDbEntity
8
0
100
AcDbPolyline
90
8
70
1
43
0.0
10
-193.35668999999999
20
-59.260950000000001
42
-0.41421356237309503
10
-193.85669000000001
20
-59.760950000000001
10
-206.85669000000001
20
-59.760950000000008
42
-0.41421356237309503
10
-207.35669000000001
20
-59.260950000000001
10
-207.35669000000001
20
-46.260950000000001
42
-0.41421356237309503
10
-206.85669000000001
20
-45.760950000000008
10
-193.85669000000001
20
-45.760949999999994
42
-0.41421356237309503
10
-193.35668999999999
20
-46.260950000000001
0
LWPOLYLINE
5
187
100
AcDbEntity
8
0
100
AcDbPolyline
90
8
70
1
43
0.0
10
-202.09419
20
-78.810950000000005
10
-189.09419
20
-78.810950000000005
42
0.41421356237309503
10
-188.59419
20
-78.31095000000002
10
-188.59419
20
-65.310950000000005
42
0.41421356237309503
10
-189.09419
20
-64.810950000000005
10
-202.09419
20
-64.810949999999991
42
0.41421356237309503
10
-202.59419000000003
20
-65.310950000000005
10
-202.59419000000003
20
-78.31095000000002
42
0.41421356237309503
0
LWPOLYLINE
5
188
100
AcDbEntity
8
0
100
AcDbPolyline
90
8
70
1
43
0.0
10
-183.54419000000001
20
-65.310950000000005
10
-183.54419000000001
20
-78.31095000000002
42
0.41421356237309503
10
-183.04418999999999
20
-78.810950000000005
10
-170.04418999999999
20
-78.810950000000005
42
0.41421356237309503
10
-169.54418999999999
20
-78.31095000000002
10
-169.54418999999999
20
-65.310950000000005
42
0.41421356237309503
10
-170.04418999999999
20
-64.810950000000005
10
-183.04418999999999
20
-64.810950000000005
42
0.41421356237309503
0
LWPOLYLINE
5
189
100
AcDbEntity
8
0
100
AcDbPolyline
90
8
70
1
43
0.0
10
-211.61919
20
-97.860950000000017
10
-198.61919
20
-97.860950000000017
42
0.41421356237309503
10
-198.11919000000003
20
-97.360950000000003
10
-198.11919
20
-84.360950000000003
42
0.41421356237309503
10
-198.61919
20
-83.860950000000003
10
-211.61919
20
-83.860950000000003
42
0.41421356237309503
10
-212.11919
20
-84.360950000000003
10
-212.11919
20
-97.360950000000003
42
0.41421356237309503
0
LWPOLYLINE
5
190
100
AcDbEntity
8
0
100
AcDbPolyline
90
8
70
1
43
0.0
10
-192.56918999999999
20
-97.860950000000017
10
-179.56918999999999
20
-97.860950000000017
42
0.41421356237309503
10
-179.06918999999999
20
-97.360950000000003
10
-179.06918999999999
20
-84.360950000000003
42
0.41421356237309503
10
-179.56918999999999
20
-83.860950000000003
10
-192.56918999999999
20
-83.860950000000003
42
0.41421356237309503
10
-193.06918999999999
20
-84.360950000000003
10
-193.06918999999999
20
-97.360950000000003
42
0.41421356237309503
0
LWPOLYLINE
5
191
100
AcDbEntity
8
0
100
AcDbPolyline
90
8
70
1
43
0.0
10
-173.51919000000004
20
-97.860950000000017
10
-160.51919000000001
20
-97.860950000000017
42
0.41421356237309503
10
-160.01919000000001
20
-97.360950000000003
10
-160.01919000000001
20
-84.360950000000003
42
0.41421356237309503
10
-160.51919000000001
20
-83.860950000000003
10
-173.51919000000004
20
-83.860950000000003
42
0.41421356237309503
10
-174.01919000000004
20
-84.360950000000003
10
-174.01919000000004
20
-97.360950000000003
42
0.41421356237309503
0
LWPOLYLINE
5
192
100
AcDbEntity
8
0
100
AcDbPolyline
90
8
70
1
43
0.0
10
-225.90669000000003
20
-59.760950000000008
10
-212.90669000000003
20
-59.760950000000008
42
0.41421356237309503
10
-212.40669
20
-59.260950000000001
10
-212.40669000000003
20
-46.260950000000001
42
0.41421356237309503
10
-212.90669000000003
20
-45.760950000000008
10
-225.90669000000003
20
-45.760950000000008
42
0.41421356237309503
10
-226.40669000000003
20
-46.260950000000001
10
-226.40669000000003
20
-59.260950000000001
42
0.41421356237309503
0
LWPOLYLINE
5
193
100
AcDbEntity
8
0
100
AcDbPolyline
90
8
70
1
43
0.0
10
-174.30669
20
-59.260950000000001
10
-174.30669
20
-46.260950000000001
42
0.41421356237309503
10
-174.80669000000003
20
-45.760950000000008
10
-187.80669
20
-45.760950000000008
42
0.41421356237309503
10
-188.30669
20
-46.260950000000001
10
-188.30669
20
-59.260950000000001
42
0.41421356237309503
10
-187.80669
20
-59.760950000000008
10
-174.80669000000003
20
-59.760950000000001
42
0.41421356237309503
0
LWPOLYLINE
5
194
100
AcDbEntity
8
0
100
AcDbPolyline
90
8
70
1
43
0.0
10
-163.99419
20
-78.810950000000005
10
-150.99419
20
-78.810950000000005
42
0.41421356237309503
10
-150.49419
20
-78.31095000000002
10
-150.49419
20
-65.310950000000005
42
0.41421356237309503
10
-150.99419
20
-64.810950000000005
10
-163.99419
20
-64.810950000000005
42
0.41421356237309503
10
-164.49419000000003
20
-65.310950000000005
10
-164.49419000000003
20
-78.31095000000002
42
0.41421356237309503
0
LWPOLYLINE
5
195
100
AcDbEntity
8
0
100
AcDbPolyline
90
8
70
1
43
0.0
10
-154.46919000000003
20
-97.860950000000017
10
-141.46919
20
-97.860950000000017
42
0.41421356237309503
10
-140.96919
20
-97.360950000000003
10
-140.96919
20
-84.360950000000003
42
0.41421356237309503
10
-141.46919
20
-83.860950000000003
10
-154.46919000000003
20
-83.860950000000003
42
0.41421356237309503
10
-154.96919
20
-84.360950000000003
10
-154.96919000000003
20
-97.360950000000003
42
0.41421356237309503
0
LWPOLYLINE
5
196
100
AcDbEntity
8
0
100
AcDbPolyline
90
8
70
1
43
0.0
10
-270.05669
20
-64.810950000000005
10
-283.05669
20
-64.810950000000005
42
0.41421356237309503
10
-283.55669
20
-65.310950000000005
10
-283.55669
20
-78.31095000000002
42
0.41421356237309503
10
-283.05669
20
-78.810950000000005
10
-270.05669
20
-78.810950000000005
42
0.41421356237309503
10
-269.55669
20
-78.31095000000002
10
-269.55669
20
-65.310950000000005
42
0.41421356237309503
0
LWPOLYLINE
5
197
100
AcDbEntity
8
0
100
AcDbPolyline
90
8
70
1
43
0.0
10
-262.91293999999999
20
-45.760950000000008
10
-275.91293999999999
20
-45.760950000000008
42
0.41421356237309503
10
-276.41294000000005
20
-46.260950000000001
10
-276.41294000000005
20
-59.260950000000001
42
0.41421356237309503
10
-275.91293999999999
20
-59.760950000000008
10
-262.91293999999999
20
-59.760950000000001
42
0.41421356237309503
10
-262.41293999999999
20
-59.260950000000001
10
-262.41293999999999
20
-46.260950000000001
42
0.41421356237309503
0
LWPOLYLINE
5
198
100
AcDbEntity
8
0
100
AcDbPolyline
90
14
70
1
43
0.0
10
-256.08744000000002
20
-26.710950000000004
10
-271.15044
20
-26.710950000000004
42
0.41421356237309503
10
-271.65044
20
-27.21095
10
-271.65044
20
-40.210949999999997
42
0.41421356237309503
10
-271.15044
20
-40.710949999999997
10
-248.62544
20
-40.710949999999997
42
0.41421356237309503
10
-248.12544000000003
20
-40.210949999999997
10
-248.12544
20
-27.21095
42
0.41421356237309503
10
-248.62544
20
-26.710950000000004
10
-249.33744000000002
20
-26.710950000000004
10
-249.33744000000002
20
-26.210950000000004
42
0.41421356237309503
10
-249.83744000000002
20
-25.71095
10
-255.58744000000002
20
-25.710950000000004
42
0.41421356237309503
10
-256.08744000000002
20
-26.210950000000004
0
LWPOLYLINE
5
199
100
AcDbEntity
8
0
100
AcDbPolyline
90
94
70
1
43
0.0
10
-49.961275588268066
20
-4.4630409412367609
42
-0.31965856886260641
10
-50.9062684539347
20
-5.1359499999999878
10
-93.616839730810412
20
-5.1359499999999798
42
0.26794919243111376
10
-94.482865134594846
20
-5.6359499999999656
10
-95.363324295108953
20
-7.1609499999999926
42
-0.26794919243112486
10
-96.229349698893415
20
-7.6609499999999997
10
-139.96919
20
-7.6609499999999908
42
0.41421356237309437
10
-140.96919
20
-8.6609499999999926
10
-140.96919
20
-21.16095
42
-0.41421356237311063
10
-141.46919
20
-21.66095
10
-154.46919000000003
20
-21.660950000000007
42
-0.41421356237309503
10
-154.96919000000003
20
-21.16095
10
-154.96919
20
-8.6609499999999997
42
0.41421356237309798
10
-155.96919
20
-7.6609499999999944
10
-199.70903030110702
20
-7.6609499999999606
42
-0.26794919243105719
10
-200.57505570489133
20
-7.1609500000001667
10
-201.45551486540501
20
-5.6359499999999896
42
0.26794919243121879
10
-202.32154026919002
20
-5.1359499999999993
10
-245.03211154606504
20
-5.13595000000001
42
-0.31965856886262078
10
-245.97710441173174
20
-4.4630409412366499
10
-248.21127558826802
20
1.99166494123675
42
0.31965856886264615
10
-249.15626845393504
20
2.6645739999999787
10
-250.14419000000004
20
2.6645739999999902
42
0.41421356237309503
10
-251.14419000000001
20
1.66457399999999
10
-251.14419000000001
20
-0.99842600000003945
42
-0.99999999999999989
10
-254.34419000000003
20
-0.99842600000000614
10
-254.34419000000003
20
1.6645739999999902
42
0.41421356237309792
10
-255.34419
20
2.6645739999999791
10
-256.33211154606499
20
2.6645739999999902
42
0.3196585688626371
10
-257.27710441173167
20
1.9916649412366523
10
-259.51127558826835
20
-4.4630409412366268
42
-0.3196585688626436
10
-260.45626845393502
20
-5.1359499999999905
10
-289.76918999999998
20
-5.1359499999999905
42
0.41421356237309503
10
-290.84419000000003
20
-6.2109499999999862
10
-290.84419000000003
20
-99.310950000000005
42
0.41421356237309503
10
-289.76918999999998
20
-100.38595000000001
10
-260.45626845393502
20
-100.38595000000001
42
-0.3196585688625998
10
-259.5112755882684
20
-101.05885905876315
10
-257.27710441173201
20
-107.51356494123699
42
0.31965856886258681
10
-256.33211154606499
20
-108.18647399999996
10
-255.34419
20
-108.18647400000002
42
0.41421356237309503
10
-254.34419000000003
20
-107.18647400000002
10
-254.34419000000003
20
-104.52347399999996
42
-0.99999999999999989
10
-251.14419000000001
20
-104.52347400000001
10
-251.14419000000001
20
-107.18647400000002
42
0.41421356237309503
10
-250.14419000000004
20
-108.18647400000003
10
-249.15626845393504
20
-108.18647400000002
42
0.31965856886258859
10
-248.21127558826842
20
-107.51356494123685
10
-245.97710441173163
20
-101.05885905876315
42
-0.3196585688625585
10
-245.03211154606504
20
-100.38595000000002
10
-155.68126845393499
20
-100.38595000000002
42
-0.31965856886258565
10
-154.7362755882684
20
-101.05885905876315
10
-152.50210441173203
20
-107.51356494123699
42
0.31965856886258681
10
-151.55711154606502
20
-108.18647400000002
10
-150.56918999999999
20
-108.18647400000002
42
0.41421356237309503
10
-149.56919000000002
20
-107.18647400000002
10
-149.56919000000002
20
-104.52347400000001
42
-0.99999999999999989
10
-146.36919
20
-104.52347400000001
10
-146.36919
20
-107.18647400000002
42
0.41421356237309503
10
-145.36919
20
-108.18647400000002
10
-144.38126845393501
20
-108.18647400000002
42
0.31965856886258859
10
-143.43627558826839
20
-107.51356494123685
10
-141.2021044117316
20
-101.05885905876315
42
-0.3196585688625585
10
-140.257111546065
20
-100.38595000000002
10
-50.906268453934693
20
-100.38595000000002
42
-0.31965856886255611
10
-49.961275588268151
20
-101.05885905876303
10
-47.727104411731901
20
-107.51356494123699
42
0.31965856886254912
10
-46.782111546065302
20
-108.18647400000002
10
-45.794190000000008
20
-108.18647400000002
42
0.41421356237309503
10
-44.794190000000029
20
-107.18647400000002
10
-44.794189999999993
20
-104.52347400000005
42
-0.99999999999999989
10
-41.594190000000005
20
-104.52347400000001
10
-41.594189999999998
20
-107.18647400000002
42
0.41421356237309503
10
-40.594189999999998
20
-108.18647400000002
10
-39.606268453934703
20
-108.18647400000002
42
0.3196585688625494
10
-38.661275588268154
20
-107.51356494123698
10
-36.427104411731868
20
-101.05885905876301
42
-0.31965856886253874
10
-35.482111546065298
20
-100.38595000000001
10
-6.1691900000000022
20
-100.38595000000001
42
0.41421356237309537
10
-5.0941900000000011
20
-99.310950000000005
10
-5.0941900000000011
20
-6.2109499999999862
42
0.41421356237309415
10
-6.1691900000000022
20
-5.1359499999999914
10
-35.482111546065298
20
-5.1359499999999887
42
-0.31965856886260507
10
-36.427104411731939
20
-4.463040941236768
10
-38.661275588268097
20
1.99166494123675
42
0.31965856886260735
10
-39.606268453934703
20
2.6645739999999867
10
-40.594189999999998
20
2.6645739999999902
42
0.41421356237309398
10
-41.594189999999998
20
1.6645739999999898
10
-41.594190000000005
20
-0.99842599999999282
42
-0.99999999999999989
10
-44.794189999999993
20
-0.99842600000000614
10
-44.79419
20
1.6645739999999902
42
0.41421356237309537
10
-45.794190000000008
20
2.664573999999988
10
-46.782111546065302
20
2.6645739999999902
42
0.31965856886260047
10
-47.727104411731958
20
1.9916649412367637
0
LWPOLYLINE
5
200
100
AcDbEntity
8
0
100
AcDbPolyline
90
8
70
1
43
0.0
10
-54.10069
20
-21.16095
10
-54.10069
20
-8.1609499999999908
42
0.41421356237309631
10
-54.600690000000007
20
-7.6609499999999908
10
-55.60069
20
-7.6609499999999926
42
0.41421356237309631
10
-56.10069
20
-8.1609499999999908
10
-56.10069
20
-21.16095
42
0.41421356237309764
10
-55.60069
20
-21.66095
10
-54.600690000000007
20
-21.660949999999993
42
0.41421356237308204
0
LINE
5
201
100
AcDbEntity
8
0
100
AcDbLine
10
-201.74419
20
-9.1609499999999908
30
0
11
-201.74419
21
-22.16095
31
0
0
ARC
5
202
100
AcDbEntity
8
0
100
AcDbCircle
10
-202.24419
20
-22.16095
30
0
40
0.49999999999999822
210
5.4738221262688167e-48
220
-5.4738221262688143e-48
230
1
100
AcDbArc
50
-90
51
0
0
LINE
5
203
100
AcDbEntity
8
0
100
AcDbLine
10
-202.24419
20
-22.66095
30
-2.7369110631343974e-48
11
-207.99419
21
-22.660949995032936
31
0
0
ARC
5
204
100
AcDbEntity
8
0
100
AcDbCircle
10
-207.99419
20
-22.16095
30
0
40
0.50000000000000711
210
1.0055248119055596e-63
220
-5.4738221262688167e-48
230
1
100
AcDbArc
50
180
51
270
0
LINE
5
205
100
AcDbEntity
8
0
100
AcDbLine
10
-208.49419
20
-22.16095
30
5.0276240595278696e-64
11
-208.49419
21
-9.160949999999989
31
0
0
ARC
5
206
100
AcDbEntity
8
0
100
AcDbCircle
10
-207.99419
20
-9.1609499999999908
30
0
40
0.50000000000000711
210
-3.7982270983038669e-64
220
-5.4738221262688149e-48
230
1
100
AcDbArc
50
90
51
180
0
LINE
5
207
100
AcDbEntity
8
0
100
AcDbLine
10
-207.99419
20
-8.6609499999999837
30
2.7369110631344466e-48
11
-202.24419
21
-8.6609499999999926
31
0
0
ARC
5
208
100
AcDbEntity
8
0
100
AcDbCircle
10
-202.24419
20
-9.1609499999999908
30
0
40
0.50000000000000711
210
0
220
-5.4738221262688167e-48
230
1
100
AcDbArc
50
0
51
90
0
LINE
5
209
100
AcDbEntity
8
0
100
AcDbLine
10
-87.444190000000006
20
-9.1609499999999908
30
0
11
-87.444190000000006
21
-22.16095
31
0
0
ARC
5
210
100
AcDbEntity
8
0
100
AcDbCircle
10
-87.94419000000002
20
-22.16095
30
0
40
0.49999999999999822
210
5.4738221262688167e-48
220
-5.4738221262688143e-48
230
1
100
AcDbArc
50
-90
51
0
0
LINE
5
211
100
AcDbEntity
8
0
100
AcDbLine
10
-87.94419000000002
20
-22.66095
30
-2.7369110631343974e-48
11
-93.694190000000006
21
-22.660949995032936
31
0
0
ARC
5
212
100
AcDbEntity
8
0
100
AcDbCircle
10
-93.694190000000006
20
-22.16095
30
0
40
0.50000000000000711
210
-1.0055248119055599e-63
220
5.4738221262688167e-48
230
1
100
AcDbArc
50
180
51
270
0
LINE
5
213
100
AcDbEntity
8
0
100
AcDbLine
10
-94.19419000000002
20
-22.16095
30
-5.0276240595278702e-64
11
-94.19419000000002
21
-9.160949999999989
31
0
0
ARC
5
214
100
AcDbEntity
8
0
100
AcDbCircle
10
-93.694190000000006
20
-9.1609499999999908
30
0
40
0.50000000000000711
210
7.5964541966077324e-64
220
-5.4738221262688161e-48
230
1
100
AcDbArc
50
90
51
180
0
LINE
5
215
100
AcDbEntity
8
0
100
AcDbLine
10
-93.694190000000006
20
-8.6609499999999837
30
2.7369110631344466e-48
11
-87.94419000000002
21
-8.6609499999999926
31
0
0
ARC
5
216
100
AcDbEntity
8
0
100
AcDbCircle
10
-87.94419000000002
20
-9.1609499999999908
30
0
40
0.50000000000000711
210
0
220
-5.4738221262688167e-48
230
1
100
AcDbArc
50
0
51
90
0
LWPOLYLINE
5
217
100
AcDbEntity
8
0
100
AcDbPolyline
90
8
70
1
43
0.0
10
-288.20019000000002
20
-8.1609499999997404
10
-288.20019000000002
20
-21.16095
42
0.41421356237309503
10
-287.70019000000002
20
-21.66095
10
-286.70019000000002
20
-21.66095
42
0.41421356237309503
10
-286.20019000000002
20
-21.16095
10
-286.20019000000008
20
-8.1609499999997404
42
0.41421356237307877
10
-286.70019000000002
20
-7.6609499999997599
10
-287.70019000000002
20
-7.6609499999997501
42
0.41421356237308071
0
LWPOLYLINE
5
218
100
AcDbEntity
8
0
100
AcDbPolyline
90
8
70
1
43
0.0
10
-283.55669
20
-8.1609499999999908
10
-283.55669
20
-21.16095
42
0.41421356237309503
10
-283.05669
20
-21.66095
10
-270.05669
20
-21.66095
42
0.41421356237309503
10
-269.55669
20
-21.16095
10
-269.55669
20
-8.1609499999999908
42
0.41421356237309503
10
-270.05669
20
-7.6609499999999811
10
-283.05669
20
-7.6609500000000015
42
0.41421356237309503
0
LWPOLYLINE
5
219
100
AcDbEntity
8
0
100
AcDbPolyline
90
8
70
1
43
0.0
10
-265.65069
20
-8.1609500000000104
10
-265.65069
20
-21.16095
42
0.41421356237313406
10
-265.15069
20
-21.66095
10
-264.15069000000005
20
-21.660949999999982
42
0.41421356237307422
10
-263.65069
20
-21.16095
10
-263.65069000000005
20
-8.1609500000000104
42
0.41421356237308332
10
-264.15069000000005
20
-7.6609500000000104
10
-265.15069
20
-7.6609499999999926
42
0.414213562373136
0
LWPOLYLINE
5
220
100
AcDbEntity
8
0
100
AcDbPolyline
90
8
70
1
43
0.0
10
-259.74419
20
-8.1609499999999908
10
-259.74419
20
-21.16095
42
0.41421356237309503
10
-259.24419
20
-21.66095
10
-246.24419000000003
20
-21.66095
42
0.41421356237309503
10
-245.74419000000003
20
-21.16095
10
-245.74419000000003
20
-8.1609499999999908
42
0.41421356237309503
10
-246.24419000000003
20
-7.6609499999999811
10
-259.24419
20
-7.6609499999999837
42
0.41421356237309503
0
LWPOLYLINE
5
221
100
AcDbEntity
8
0
100
AcDbPolyline
90
8
70
1
43
0.0
10
-241.83819
20
-8.1609499999999997
10
-241.83819
20
-21.16095
42
0.41421356237310281
10
-241.33819000000003
20
-21.66095
10
-240.33819
20
-21.660949999999982
42
0.41421356237307422
10
-239.83819
20
-21.16095
10
-239.83819000000005
20
-8.1609499999999997
42
0.41421356237308266
10
-240.33819
20
-7.6609499999999997
10
-241.33819000000003
20
-7.6609499999999837
42
0.41421356237310347
0
LWPOLYLINE
5
222
100
AcDbEntity
8
0
100
AcDbPolyline
90
8
70
1
43
0.0
10
-235.93169000000003
20
-8.1609499999999908
10
-235.93169000000003
20
-21.16095
42
0.41421356237309503
10
-235.43169000000003
20
-21.66095
10
-222.43169
20
-21.66095
42
0.41421356237309503
10
-221.93169
20
-21.16095
10
-221.93169000000006
20
-8.1609499999999908
42
0.41421356237309503
10
-222.43169
20
-7.660950000000021
10
-235.43169000000003
20
-7.6609500000000015
42
0.41421356237309503
0
LWPOLYLINE
5
223
100
AcDbEntity
8
0
100
AcDbPolyline
90
7
70
1
43
0.0
10
-171.56976994331563
20
-10.425655896377892
42
-0.42968918166380099
10
-174.48370662685917
20
-21.660949985098206
10
-157.46919
20
-21.660949985098799
42
0.41421356237309503
10
-156.96919000000003
20
-21.160949985098799
10
-156.96919
20
-10.1609500149016
42
0.41421356237309503
10
-157.46919
20
-9.6609500149015801
10
-171.14558743977301
20
-9.6609500149016991
42
0.58884355287268986
0
LWPOLYLINE
5
224
100
AcDbEntity
8
0
100
AcDbPolyline
90
8
70
1
43
0.0
10
-138.96919
20
-10.160950014901402
10
-138.96919
20
-21.160949985098799
42
0.41421356237309503
10
-138.46919
20
-21.660949985098799
10
-120.74480896807501
20
-21.660949985098799
42
0.55753651583505137
10
-120.29759537257502
20
-20.937343187348802
10
-125.79759535767406
20
-9.937343217151227
42
0.28407904384041549
10
-126.24480895317402
20
-9.6609500149012106
10
-138.46919
20
-9.6609500149014025
42
0.41421356237309503
0
LWPOLYLINE
5
225
100
AcDbEntity
8
0
100
AcDbPolyline
90
8
70
1
43
0.0
10
-109.36578464232602
20
-9.9373432171513301
10
-114.865784627425
20
-20.937343187348901
42
0.5575365158349942
10
-114.41857103192501
20
-21.660949985098799
10
-97.729349713794619
20
-21.660949985098799
42
0.41421356237309503
10
-97.229349713794605
20
-21.160949985098799
10
-97.229349713794605
20
-10.160950014901699
42
0.41421356237309503
10
-97.729349713794619
20
-9.6609500149017098
10
-108.918571046826
20
-9.6609500149012995
42
0.28407904384043053
0
LWPOLYLINE
5
226
100
AcDbEntity
8
0
100
AcDbPolyline
90
7
70
1
43
0.0
10
-198.70903028620504
20
-10.160950014902102
10
-198.70903028620504
20
-21.160949985098799
42
0.41421356237309503
10
-198.20903028620504
20
-21.660949985098799
10
-182.22967337314066
20
-21.660949985097965
42
-0.4296891816637754
10
-185.14361005668445
20
-10.425655896378629
42
0.58884355287302848
10
-185.56779256022702
20
-9.6609500149019105
10
-198.20903028620504
20
-9.6609500149021006
42
0.41421356237309503
0
LWPOLYLINE
5
227
100
AcDbEntity
8
0
100
AcDbPolyline
90
8
70
1
43
0.0
10
-284.22593999999998
20
-58.760950000000001
10
-278.47594000000004
20
-58.760950000000001
42
0.41421356237309503
10
-277.97593999999998
20
-58.260950000000008
10
-277.97593999999998
20
-45.260950000000008
42
0.41421356237309503
10
-278.47594000000004
20
-44.760950000000001
10
-284.22593999999998
20
-44.760950000000008
42
0.41421356237309503
10
-284.72594000000004
20
-45.260950000000008
10
-284.72594000000004
20
-58.260950000000008
42
0.41421356237309503
0
LWPOLYLINE
5
228
100
AcDbEntity
8
0
100
AcDbPolyline
90
8
70
1
43
0.0
10
-286.70019000000002
20
-45.760950000000008
10
-287.70019000000002
20
-45.760950000000008
42
0.41421356237309503
10
-288.20019000000002
20
-46.260950000000001
10
-288.20019000000002
20
-78.310949999999707
42
0.41421356237315748
10
-287.70019000000002
20
-78.810949999999707
10
-286.70019000000002
20
-78.810949999999721
42
0.41421356237312623
10
-286.20019000000002
20
-78.310949999999707
10
-286.20019000000002
20
-46.260950000000001
42
0.41421356237309503
0
LWPOLYLINE
5
229
100
AcDbEntity
8
0
100
AcDbPolyline
90
14
70
1
43
0.0
10
-288.31919000000005
20
-27.21095
42
-0.41421356237304563
10
-287.81919000000005
20
-26.710950000000004
10
-279.96343999999999
20
-26.710950000000004
10
-279.96343999999999
20
-26.210950000000004
42
-0.41421356237309503
10
-279.46343999999999
20
-25.710950000000004
10
-273.71343999999999
20
-25.710949999999997
42
-0.41421356237309503
10
-273.21343999999999
20
-26.210950000000004
10
-273.21343999999999
20
-39.210949999999997
42
-0.41421356237309503
10
-273.71343999999999
20
-39.710949999999997
10
-274.31918999999999
20
-39.710949999999997
10
-274.31918999999999
20
-40.210949999999997
42
-0.41421356237307422
10
-274.81918999999999
20
-40.710949999999997
10
-287.81919000000005
20
-40.710949999999983
42
-0.41421356237312101
10
-288.31919000000005
20
-40.210949999999997
0
LWPOLYLINE
5
230
100
AcDbEntity
8
0
100
AcDbPolyline
90
20
70
1
43
0.0
10
-280.85719
20
-82.860950000000017
10
-286.60719
20
-82.860950000000017
42
0.41421356237309503
10
-287.10719
20
-83.360950000000003
10
-287.10719
20
-83.860950000000003
10
-287.81919000000005
20
-83.860949999999988
42
0.4142135623730846
10
-288.31918999999999
20
-84.360950000000003
10
-288.31919000000005
20
-97.360950000000003
42
0.4142135623730846
10
-287.81919000000005
20
-97.860950000000017
10
-255.76919000000004
20
-97.860950000000017
42
0.4142135623730846
10
-255.26919000000004
20
-97.360950000000003
10
-255.26919000000004
20
-84.360950000000003
42
0.4142135623730846
10
-255.76919000000004
20
-83.860950000000003
10
-256.48119000000003
20
-83.860950000000003
10
-256.48119000000003
20
-83.360950000000003
42
0.41421356237309503
10
-256.98119000000008
20
-82.860950000000017
10
-262.73119000000003
20
-82.860950000000017
42
0.41421356237309503
10
-263.23119000000008
20
-83.360950000000003
10
-263.23119000000008
20
-83.860950000000003
10
-280.35719
20
-83.860950000000003
10
-280.35719
20
-83.360950000000003
42
0.41421356237309503
0
LWPOLYLINE
5
231
100
AcDbEntity
8
0
100
AcDbPolyline
90
8
70
1
43
0.0
10
-217.16919000000001
20
-97.360950000000003
10
-217.16919000000001
20
-84.360950000000003
42
0.41421356237309503
10
-217.66919000000001
20
-83.860950000000003
10
-230.66918999999999
20
-83.860950000000003
42
0.41421356237309503
10
-231.16918999999999
20
-84.360950000000003
10
-231.16918999999999
20
-97.360950000000003
42
0.41421356237309503
10
-230.66918999999999
20
-97.860950000000017
10
-217.66919000000001
20
-97.860950000000017
42
0.41421356237309503
0
LWPOLYLINE
5
232
100
AcDbEntity
8
0
100
AcDbPolyline
90
8
70
1
43
0.0
10
-221.14419000000001
20
-78.810950000000005
10
-208.14419000000001
20
-78.810950000000005
42
0.41421356237309503
10
-207.64419000000004
20
-78.31095000000002
10
-207.64419000000001
20
-65.310950000000005
42
0.41421356237309503
10
-208.14419000000001
20
-64.810950000000005
10
-221.14419000000001
20
-64.810949999999991
42
0.41421356237309503
10
-221.64419000000004
20
-65.310950000000005
10
-221.64418999999998
20
-78.31095000000002
42
0.41421356237309503
0
LWPOLYLINE
5
233
100
AcDbEntity
8
0
100
AcDbPolyline
90
8
70
1
43
0.0
10
-231.45669000000001
20
-59.260950000000001
10
-231.45669000000001
20
-46.260950000000001
42
0.41421356237309503
10
-231.95669000000004
20
-45.760950000000008
10
-244.95669000000004
20
-45.760950000000008
42
0.41421356237309503
10
-245.45669000000004
20
-46.260950000000001
10
-245.45669000000004
20
-59.260950000000001
42
0.41421356237309503
10
-244.95669000000004
20
-59.760950000000008
10
-231.95669000000004
20
-59.760950000000001
42
0.41421356237309503
0
LWPOLYLINE
5
234
100
AcDbEntity
8
0
100
AcDbPolyline
90
8
70
1
43
0.0
10
-235.43169000000003
20
-40.710949999999997
10
-222.43169
20
-40.710949999999997
42
0.41421356237309503
10
-221.93169
20
-40.210949999999997
10
-221.93169
20
-27.21095
42
0.41421356237309503
10
-222.43169
20
-26.710950000000004
10
-235.43169000000003
20
-26.710950000000004
42
0.41421356237309503
10
-235.93169000000003
20
-27.21095
10
-235.93169000000003
20
-40.210949999999997
42
0.41421356237309503
0
LWPOLYLINE
5
235
100
AcDbEntity
8
0
100
AcDbPolyline
90
8
70
1
43
0.0
10
-254.09994
20
-58.260950000000008
42
-0.41421356237309503
10
-254.59994
20
-58.760950000000001
10
-260.34994
20
-58.76094999999998
42
-0.41421356237309503
10
-260.84994
20
-58.260950000000008
10
-260.84994
20
-45.260950000000008
42
-0.41421356237309503
10
-260.34994
20
-44.760950000000008
10
-254.59994
20
-44.760950000000001
42
-0.41421356237309503
10
-254.09994
20
-45.260950000000008
0
LWPOLYLINE
5
236
100
AcDbEntity
8
0
100
AcDbPolyline
90
8
70
1
43
0.0
10
-249.71919
20
-97.860950000000017
10
-236.71919000000003
20
-97.860950000000017
42
0.41421356237309503
10
-236.21919000000003
20
-97.360950000000003
10
-236.21919000000003
20
-84.360950000000003
42
0.41421356237309503
10
-236.71919000000003
20
-83.860950000000003
10
-249.71919
20
-83.860950000000003
42
0.41421356237309503
10
-250.21919
20
-84.360950000000003
10
-250.21919
20
-97.360950000000003
42
0.41421356237309503
0
LWPOLYLINE
5
237
100
AcDbEntity
8
0
100
AcDbPolyline
90
8
70
1
43
0.0
10
-240.19418999999999
20
-78.810950000000005
10
-227.19419000000002
20
-78.810950000000005
42
0.41421356237309503
10
-226.69419000000002
20
-78.31095000000002
10
-226.69419000000002
20
-65.310950000000005
42
0.41421356237309503
10
-227.19419000000002
20
-64.810950000000005
10
-240.19418999999999
20
-64.810949999999991
42
0.41421356237309503
10
-240.69418999999999
20
-65.310950000000005
10
-240.69418999999999
20
-78.31095000000002
42
0.41421356237309503
0
LWPOLYLINE
5
238
100
AcDbEntity
8
0
100
AcDbPolyline
90
8
70
1
43
0.0
10
-259.24419
20
-78.810950000000005
10
-246.24419000000003
20
-78.810950000000005
42
0.41421356237309503
10
-245.74419000000003
20
-78.31095000000002
10
-245.74419000000003
20
-65.310950000000005
42
0.41421356237309503
10
-246.24419000000003
20
-64.810950000000005
10
-259.24419
20
-64.810949999999991
42
0.41421356237309503
10
-259.74419
20
-65.310950000000005
10
-259.74419
20
-78.31095000000002
42
0.41421356237309503
0
LWPOLYLINE
5
239
100
AcDbEntity
8
0
100
AcDbPolyline
90
8
70
1
43
0.0
10
-242.13469000000003
20
-26.710950000000004
10
-243.13469000000001
20
-26.710950000000004
42
0.41421356237311846
10
-243.63469000000003
20
-27.21095
10
-243.63468999999998
20
-40.210949999999997
42
0.41421356237312101
10
-243.13469000000001
20
-40.710949999999997
10
-242.13469000000003
20
-40.71094999999999
42
0.4142135623730846
10
-241.63469000000003
20
-40.210949999999997
10
-241.63469000000003
20
-27.21095
42
0.41421356237310025
0
LWPOLYLINE
5
240
100
AcDbEntity
8
0
100
AcDbPolyline
90
8
70
1
43
0.0
10
-249.27819
20
-45.760950000000008
10
-250.27819
20
-45.760950000000008
42
0.41421356237312101
10
-250.77819000000002
20
-46.260950000000001
10
-250.77819000000002
20
-59.260950000000001
42
0.41421356237312623
10
-250.27819
20
-59.760950000000008
10
-249.27819
20
-59.760949999999973
42
0.41421356237310025
10
-248.77819000000002
20
-59.260950000000001
10
-248.77819000000002
20
-46.260950000000001
42
0.41421356237310025
0
LWPOLYLINE
5
241
100
AcDbEntity
8
0
100
AcDbPolyline
90
8
70
1
43
0.0
10
-264.15069000000005
20
-64.810950000000005
10
-265.15069
20
-64.810950000000005
42
0.41421356237313667
10
-265.65069
20
-65.310950000000005
10
-265.65069
20
-78.31095000000002
42
0.41421356237313667
10
-265.15069
20
-78.810950000000005
10
-264.15069000000005
20
-78.810949999999991
42
0.41421356237310025
10
-263.65069
20
-78.31095000000002
10
-263.65069000000005
20
-65.310950000000005
42
0.41421356237310025
0
LWPOLYLINE
5
242
100
AcDbEntity
8
0
100
AcDbPolyline
90
8
70
1
43
0.0
10
-183.83169000000004
20
-40.210949999999997
10
-183.83169000000004
20
-27.21095
42
0.41421356237309503
10
-184.33169000000004
20
-26.710950000000004
10
-197.33169000000004
20
-26.710950000000004
42
0.41421356237309503
10
-197.83169000000001
20
-27.21095
10
-197.83169000000004
20
-40.210949999999997
42
0.41421356237309503
10
-197.33169000000004
20
-40.710949999999997
10
-184.33169000000004
20
-40.710949999999997
42
0.41421356237309503
0
LWPOLYLINE
5
243
100
AcDbEntity
8
0
100
AcDbPolyline
90
8
70
1
43
0.0
10
-146.23168999999999
20
-26.710950000000004
10
-159.23168999999999
20
-26.710950000000004
42
0.41421356237309503
10
-159.73168999999999
20
-27.21095
10
-159.73168999999999
20
-40.210949999999997
42
0.41421356237309503
10
-159.23168999999999
20
-40.710949999999997
10
-146.23168999999999
20
-40.710949999999997
42
0.41421356237309503
10
-145.73169000000001
20
-40.210949999999997
10
-145.73168999999999
20
-27.21095
42
0.41421356237309503
0
LWPOLYLINE
5
244
100
AcDbEntity
8
0
100
AcDbPolyline
90
8
70
1
43
0.0
10
-178.28169
20
-40.710949999999997
10
-165.28169000000003
20
-40.710949999999997
42
0.41421356237309503
10
-164.78169000000003
20
-40.210949999999997
10
-164.78169000000003
20
-27.21095
42
0.41421356237309503
10
-165.28169000000003
20
-26.710950000000004
10
-178.28169
20
-26.710950000000004
42
0.41421356237309503
10
-178.78169
20
-27.21095
10
-178.78169
20
-40.210949999999997
42
0.41421356237309503
0
LWPOLYLINE
5
245
100
AcDbEntity
8
0
100
AcDbPolyline
90
8
70
1
43
0.0
10
-155.25668999999999
20
-59.260950000000001
42
-0.41421356237309503
10
-155.75668999999999
20
-59.760950000000001
10
-168.75668999999999
20
-59.760950000000008
42
-0.41421356237309503
10
-169.25668999999999
20
-59.260950000000001
10
-169.25668999999999
20
-46.260950000000001
42
-0.41421356237309503
10
-168.75668999999999
20
-45.760950000000008
10
-155.75668999999999
20
-45.760949999999994
42
-0.41421356237309503
10
-155.25668999999999
20
-46.260950000000001
0
LWPOLYLINE
5
246
100
AcDbEntity
8
0
100
AcDbPolyline
90
8
70
1
43
0.0
10
-140.68169
20
-27.21095
42
-0.41421356237309503
10
-140.18169
20
-26.710950000000004
10
-127.18169000000002
20
-26.710949999999993
42
-0.41421356237309503
10
-126.68169
20
-27.21095
10
-126.68169000000003
20
-40.210949999999997
42
-0.41421356237309503
10
-127.18169000000002
20
-40.710949999999997
10
-140.18169
20
-40.710950000000004
42
-0.41421356237309503
10
-140.68169
20
-40.210949999999997
0
LWPOLYLINE
5
247
100
AcDbEntity
8
0
100
AcDbPolyline
90
8
70
1
43
0.0
10
-136.70669000000001
20
-45.760950000000008
10
-149.70669000000001
20
-45.760950000000008
42
0.41421356237309503
10
-150.20669000000001
20
-46.260950000000001
10
-150.20669000000001
20
-59.260950000000001
42
0.41421356237309503
10
-149.70669000000001
20
-59.760950000000008
10
-136.70669000000001
20
-59.760950000000001
42
0.41421356237309503
10
-136.20669000000001
20
-59.260950000000001
10
-136.20669000000001
20
-46.260950000000001
42
0.41421356237309503
0
LWPOLYLINE
5
248
100
AcDbEntity
8
0
100
AcDbPolyline
90
8
70
1
43
0.0
10
-131.94418999999999
20
-64.810950000000005
10
-144.94418999999999
20
-64.810950000000005
42
0.41421356237309503
10
-145.44418999999999
20
-65.310950000000005
10
-145.44419000000002
20
-78.31095000000002
42
0.41421356237309503
10
-144.94418999999999
20
-78.810950000000005
10
-131.94418999999999
20
-78.810950000000005
42
0.41421356237309503
10
-131.44418999999999
20
-78.31095000000002
10
-131.44418999999999
20
-65.310950000000005
42
0.41421356237309503
0
LWPOLYLINE
5
249
100
AcDbEntity
8
0
100
AcDbPolyline
90
8
70
1
43
0.0
10
-50.98169
20
-26.710950000000004
10
-63.98169
20
-26.710950000000004
42
0.41421356237309503
10
-64.48169
20
-27.21095
10
-64.481689999999986
20
-40.210949999999997
42
0.41421356237309503
10
-63.98169
20
-40.710949999999997
10
-50.98169
20
-40.710949999999997
42
0.41421356237309503
10
-50.481690000000008
20
-40.210949999999997
10
-50.48169
20
-27.21095
42
0.41421356237309503
0
LWPOLYLINE
5
250
100
AcDbEntity
8
0
100
AcDbPolyline
90
8
70
1
43
0.0
10
-60.506689999999999
20
-45.760950000000008
10
-73.506690000000006
20
-45.760950000000008
42
0.41421356237309503
10
-74.006690000000006
20
-46.260950000000001
10
-74.006689999999992
20
-59.260950000000001
42
0.41421356237309503
10
-73.506690000000006
20
-59.760950000000008
10
-60.506689999999999
20
-59.760950000000001
42
0.41421356237309503
10
-60.006690000000006
20
-59.260950000000001
10
-60.006689999999992
20
-46.260950000000001
42
0.41421356237309503
0
LWPOLYLINE
5
251
100
AcDbEntity
8
0
100
AcDbPolyline
90
8
70
1
43
0.0
10
-74.29419
20
-78.31095000000002
10
-74.29419
20
-65.310950000000005
42
0.41421356237309503
10
-74.79419
20
-64.810950000000005
10
-87.794190000000015
20
-64.810950000000005
42
0.41421356237309503
10
-88.29419
20
-65.310950000000005
10
-88.29419
20
-78.31095000000002
42
0.41421356237309503
10
-87.794190000000015
20
-78.810950000000005
10
-74.79419
20
-78.810950000000005
42
0.41421356237309503
0
LWPOLYLINE
5
252
100
AcDbEntity
8
0
100
AcDbPolyline
90
8
70
1
43
0.0
10
-45.659939999999999
20
-26.710949999999997
42
-0.41421356237309764
10
-45.159939999999999
20
-27.21095
10
-45.159939999999999
20
-40.210949999999997
42
-0.41421356237309503
10
-45.659939999999999
20
-40.710949999999997
10
-46.659940000000006
20
-40.71094999999999
42
-0.41421356237309503
10
-47.159939999999992
20
-40.210949999999997
10
-47.159940000000006
20
-27.21095
42
-0.41421356237309503
10
-46.659940000000006
20
-26.710950000000004
0
LWPOLYLINE
5
253
100
AcDbEntity
8
0
100
AcDbPolyline
90
8
70
1
43
0.0
10
-41.456690000000009
20
-45.760950000000008
10
-54.456690000000009
20
-45.760950000000008
42
0.41421356237309503
10
-54.956690000000002
20
-46.260950000000001
10
-54.956689999999995
20
-59.260950000000001
42
0.41421356237309503
10
-54.456690000000009
20
-59.760950000000008
10
-41.456690000000009
20
-59.760950000000001
42
0.41421356237309503
10
-40.956690000000002
20
-59.260950000000001
10
-40.956690000000002
20
-46.260950000000001
42
0.41421356237309503
0
LWPOLYLINE
5
254
100
AcDbEntity
8
0
100
AcDbPolyline
90
8
70
1
43
0.0
10
-36.694189999999999
20
-64.810950000000005
10
-49.694190000000006
20
-64.810950000000005
42
0.41421356237309503
10
-50.194189999999999
20
-65.310950000000005
10
-50.194190000000006
20
-78.31095000000002
42
0.41421356237309503
10
-49.694190000000006
20
-78.810950000000005
10
-36.694189999999999
20
-78.810950000000005
42
0.41421356237309503
10
-36.194189999999999
20
-78.31095000000002
10
-36.194189999999999
20
-65.310950000000005
42
0.41421356237309503
0
LWPOLYLINE
5
255
100
AcDbEntity
8
0
100
AcDbPolyline
90
8
70
1
43
0.0
10
-59.219189999999998
20
-97.860950000000017
10
-46.219189999999998
20
-97.860950000000017
42
0.41421356237309503
10
-45.719190000000005
20
-97.360950000000003
10
-45.719189999999998
20
-84.360950000000003
42
0.41421356237309503
10
-46.219189999999998
20
-83.860950000000003
10
-59.219189999999998
20
-83.860950000000003
42
0.41421356237309503
10
-59.719189999999998
20
-84.360950000000003
10
-59.71918999999999
20
-97.360950000000003
42
0.41421356237309503
0
LWPOLYLINE
5
256
100
AcDbEntity
8
0
100
AcDbPolyline
90
8
70
1
43
0.0
10
-68.744190000000003
20
-78.810950000000005
10
-55.744190000000003
20
-78.810950000000005
42
0.41421356237309503
10
-55.24419000000001
20
-78.31095000000002
10
-55.244190000000003
20
-65.310950000000005
42
0.41421356237309503
10
-55.744190000000003
20
-64.810950000000005
10
-68.744190000000003
20
-64.810949999999991
42
0.41421356237309503
10
-69.244190000000003
20
-65.310950000000005
10
-69.244190000000017
20
-78.31095000000002
42
0.41421356237309503
0
LWPOLYLINE
5
257
100
AcDbEntity
8
0
100
AcDbPolyline
90
8
70
1
43
0.0
10
-41.338439999999999
20
-39.710949999999997
10
-35.588439999999999
20
-39.710949999999997
42
0.41421356237309503
10
-35.088439999999999
20
-39.210949999999997
10
-35.088440000000006
20
-26.210950000000004
42
0.41421356237309503
10
-35.588439999999999
20
-25.71095
10
-41.338439999999999
20
-25.710950000000004
42
0.41421356237309503
10
-41.838439999999999
20
-26.210950000000004
10
-41.838440000000006
20
-39.210949999999997
42
0.41421356237309503
0
LWPOLYLINE
5
258
100
AcDbEntity
8
0
100
AcDbPolyline
90
8
70
1
43
0.0
10
-7.6191899999999899
20
-97.360950000000003
10
-7.6191899999999997
20
-84.360950000000003
42
0.41421356237309503
10
-8.1191899999999997
20
-83.860950000000003
10
-21.11919
20
-83.860950000000003
42
0.41421356237309503
10
-21.619190000000003
20
-84.360950000000003
10
-21.619189999999996
20
-97.360950000000003
42
0.41421356237309503
10
-21.11919
20
-97.860950000000017
10
-8.1191899999999997
20
-97.860950000000017
42
0.41421356237309503
0
LWPOLYLINE
5
259
100
AcDbEntity
8
0
100
AcDbPolyline
90
8
70
1
43
0.0
10
-12.381690000000001
20
-78.31095000000002
10
-12.381690000000001
20
-65.310950000000005
42
0.41421356237309503
10
-12.881690000000001
20
-64.810950000000005
10
-25.881690000000003
20
-64.810950000000005
42
0.41421356237309503
10
-26.381689999999999
20
-65.310950000000005
10
-26.381689999999999
20
-78.31095000000002
42
0.41421356237309503
10
-25.881690000000003
20
-78.810950000000005
10
-12.881690000000001
20
-78.810950000000005
42
0.41421356237309503
0
LWPOLYLINE
5
260
100
AcDbEntity
8
0
100
AcDbPolyline
90
8
70
1
43
0.0
10
-28.262940000000004
20
-59.760950000000008
10
-10.500439999999999
20
-59.760950000000008
42
0.41421356237309764
10
-10.000439999999999
20
-59.260950000000001
10
-10.000440000000001
20
-46.260950000000001
42
0.41421356237309503
10
-10.500439999999999
20
-45.760950000000008
10
-28.262940000000004
20
-45.760950000000008
42
0.41421356237309503
10
-28.76294
20
-46.260950000000001
10
-28.76294
20
-59.260950000000001
42
0.41421356237309503
0
LWPOLYLINE
5
261
100
AcDbEntity
8
0
100
AcDbPolyline
90
8
70
1
43
0.0
10
-33.025440000000003
20
-40.710949999999997
10
-20.02544
20
-40.710949999999997
42
0.41421356237309503
10
-19.52544
20
-40.210949999999997
10
-19.52544
20
-27.21095
42
0.41421356237309503
10
-20.02544
20
-26.710950000000004
10
-33.025440000000003
20
-26.710950000000004
42
0.41421356237309503
10
-33.525440000000003
20
-27.21095
10
-33.52544000000001
20
-40.210949999999997
42
0.41421356237309503
0
LWPOLYLINE
5
262
100
AcDbEntity
8
0
100
AcDbPolyline
90
8
70
1
43
0.0
10
-40.66919
20
-84.360950000000003
10
-40.66919
20
-97.360950000000003
42
0.41421356237309503
10
-40.169190000000008
20
-97.860950000000017
10
-27.169190000000004
20
-97.860950000000017
42
0.41421356237309503
10
-26.66919
20
-97.360950000000003
10
-26.669190000000004
20
-84.360950000000003
42
0.41421356237309503
10
-27.169190000000004
20
-83.860950000000003
10
-40.169190000000008
20
-83.860950000000003
42
0.41421356237309503
0
LWPOLYLINE
5
263
100
AcDbEntity
8
0
100
AcDbPolyline
90
8
70
1
43
0.0
10
-30.78819
20
-64.9573966094067
10
-31.788190000000004
20
-64.9573966094067
42
0.41421356237309764
10
-32.28819
20
-65.4573966094067
10
-32.28819
20
-78.31095000000002
42
0.41421356237309764
10
-31.788190000000004
20
-78.810950000000005
10
-30.78819
20
-78.810950000000005
42
0.41421356237309764
10
-30.288190000000004
20
-78.31095000000002
10
-30.288190000000004
20
-65.4573966094067
42
0.41421356237309764
0
LWPOLYLINE
5
264
100
AcDbEntity
8
0
100
AcDbPolyline
90
8
70
1
43
0.0
10
-34.359940000000002
20
-45.760950000000008
10
-35.359940000000009
20
-45.760950000000008
42
0.41421356237309503
10
-35.859940000000002
20
-46.260950000000001
10
-35.859940000000002
20
-59.260950000000001
42
0.41421356237309764
10
-35.359940000000009
20
-59.760950000000008
10
-34.359940000000002
20
-59.760950000000001
42
0.41421356237309764
10
-33.859940000000002
20
-59.260950000000001
10
-33.859940000000009
20
-46.260950000000001
42
0.41421356237309503
0
LWPOLYLINE
5
265
100
AcDbEntity
8
0
100
AcDbPolyline
90
8
70
1
43
0.0
10
-7.7381900000000003
20
-78.31095000000002
10
-7.7381900000000003
20
-65.310950000000005
42
0.41421356237309503
10
-8.2381899999999995
20
-64.810950000000005
10
-9.2381899999999995
20
-64.810950000000005
42
0.41421356237309503
10
-9.7381899999999906
20
-65.310950000000005
10
-9.7381899999999995
20
-78.31095000000002
42
0.41421356237309698
10
-9.2381899999999995
20
-78.810950000000005
10
-8.2381899999999995
20
-78.810950000000005
42
0.4142135623730957
0
LWPOLYLINE
5
266
100
AcDbEntity
8
0
100
AcDbPolyline
90
8
70
1
43
0.0
10
-17.462440000000001
20
-39.710949999999997
10
-11.712440000000001
20
-39.710949999999997
42
0.41421356237309503
10
-11.212440000000001
20
-39.210949999999997
10
-11.212440000000004
20
-26.210950000000004
42
0.41421356237309503
10
-11.712440000000001
20
-25.71095
10
-17.462440000000001
20
-25.710950000000004
42
0.41421356237309503
10
-17.962440000000001
20
-26.210950000000004
10
-17.962440000000001
20
-39.210949999999997
42
0.41421356237309503
0
LWPOLYLINE
5
267
100
AcDbEntity
8
0
100
AcDbPolyline
90
8
70
1
43
0.0
10
-65.269189999999995
20
-83.860950000000003
10
-78.269190000000009
20
-83.860950000000003
42
0.41421356237309503
10
-78.769189999999995
20
-84.360950000000003
10
-78.769189999999995
20
-97.360950000000003
42
0.41421356237309503
10
-78.269190000000009
20
-97.860950000000017
10
-65.269189999999995
20
-97.860950000000017
42
0.41421356237309503
10
-64.769189999999995
20
-97.360950000000003
10
-64.769190000000009
20
-84.360950000000003
42
0.41421356237309503
0
LWPOLYLINE
5
268
100
AcDbEntity
8
0
100
AcDbPolyline
90
8
70
1
43
0.0
10
-97.31919000000002
20
-97.860950000000017
10
-84.319190000000006
20
-97.860950000000017
42
0.41421356237309503
10
-83.81919000000002
20
-97.360950000000003
10
-83.81919000000002
20
-84.360950000000003
42
0.41421356237309503
10
-84.319190000000006
20
-83.860950000000003
10
-97.31919000000002
20
-83.860950000000003
42
0.41421356237309503
10
-97.81919000000002
20
-84.360950000000003
10
-97.81919000000002
20
-97.360950000000003
42
0.41421356237309503
0
LWPOLYLINE
5
269
100
AcDbEntity
8
0
100
AcDbPolyline
90
8
70
1
43
0.0
10
-93.344189999999998
20
-78.31095000000002
42
-0.41421356237309503
10
-93.844189999999998
20
-78.810950000000005
10
-106.84419
20
-78.81095000000002
42
-0.41421356237309503
10
-107.34419000000001
20
-78.31095000000002
10
-107.34419
20
-65.310950000000005
42
-0.41421356237309503
10
-106.84419
20
-64.810950000000005
10
-93.844189999999998
20
-64.81095000000002
42
-0.41421356237309503
10
-93.344189999999998
20
-65.310950000000005
0
LWPOLYLINE
5
270
100
AcDbEntity
8
0
100
AcDbPolyline
90
8
70
1
43
0.0
10
-116.36919
20
-97.860950000000017
10
-103.36919000000002
20
-97.860950000000017
42
0.41421356237309503
10
-102.86919
20
-97.360950000000003
10
-102.86919
20
-84.360950000000003
42
0.41421356237309503
10
-103.36919000000002
20
-83.860950000000003
10
-116.36919
20
-83.860950000000003
42
0.41421356237309503
10
-116.86919000000002
20
-84.360950000000003
10
-116.86919000000002
20
-97.360950000000003
42
0.41421356237309503
0
LWPOLYLINE
5
271
100
AcDbEntity
8
0
100
AcDbPolyline
90
8
70
1
43
0.0
10
-125.89418999999999
20
-78.810950000000005
10
-112.89419000000001
20
-78.810950000000005
42
0.41421356237309503
10
-112.39418999999999
20
-78.31095000000002
10
-112.39418999999999
20
-65.310950000000005
42
0.41421356237309503
10
-112.89419000000001
20
-64.810950000000005
10
-125.89418999999999
20
-64.810949999999991
42
0.41421356237309503
10
-126.39419000000001
20
-65.310950000000005
10
-126.39419000000001
20
-78.31095000000002
42
0.41421356237309503
0
LWPOLYLINE
5
272
100
AcDbEntity
8
0
100
AcDbPolyline
90
8
70
1
43
0.0
10
-83.031689999999998
20
-40.710949999999997
10
-70.031689999999998
20
-40.710949999999997
42
0.41421356237309503
10
-69.531689999999998
20
-40.210949999999997
10
-69.531690000000012
20
-27.21095
42
0.41421356237309503
10
-70.031689999999998
20
-26.710950000000004
10
-83.031689999999998
20
-26.710950000000004
42
0.41421356237309503
10
-83.531689999999998
20
-27.21095
10
-83.531689999999998
20
-40.210949999999997
42
0.41421356237309503
0
LWPOLYLINE
5
273
100
AcDbEntity
8
0
100
AcDbPolyline
90
8
70
1
43
0.0
10
-135.41919000000001
20
-97.860950000000017
10
-122.41919000000001
20
-97.860950000000017
42
0.41421356237309503
10
-121.91919
20
-97.360950000000003
10
-121.91919
20
-84.360950000000003
42
0.41421356237309503
10
-122.41919000000001
20
-83.860950000000003
10
-135.41919000000001
20
-83.860950000000003
42
0.41421356237309503
10
-135.91918999999999
20
-84.360950000000003
10
-135.91919000000001
20
-97.360950000000003
42
0.41421356237309503
0
LWPOLYLINE
5
274
100
AcDbEntity
8
0
100
AcDbPolyline
90
8
70
1
43
0.0
10
-102.58169000000001
20
-27.21095
10
-102.58169000000001
20
-40.210949999999997
42
0.41421356237309503
10
-102.08168999999999
20
-40.710949999999997
10
-89.081689999999995
20
-40.710949999999997
42
0.41421356237309503
10
-88.581690000000009
20
-40.210949999999997
10
-88.581690000000009
20
-27.21095
42
0.41421356237309503
10
-89.081689999999995
20
-26.710950000000004
10
-102.08168999999999
20
-26.710950000000004
42
0.41421356237309503
0
LWPOLYLINE
5
275
100
AcDbEntity
8
0
100
AcDbPolyline
90
8
70
1
43
0.0
10
-112.10669000000001
20
-46.260950000000001
10
-112.10669000000001
20
-59.260950000000001
42
0.41421356237309503
10
-111.60669
20
-59.760950000000008
10
-98.606690000000015
20
-59.760950000000001
42
0.41421356237309503
10
-98.106690000000015
20
-59.260950000000001
10
-98.106690000000015
20
-46.260950000000001
42
0.41421356237309503
10
-98.606690000000015
20
-45.760950000000008
10
-111.60669
20
-45.760950000000008
42
0.41421356237309503
0
LWPOLYLINE
5
276
100
AcDbEntity
8
0
100
AcDbPolyline
90
8
70
1
43
0.0
10
-92.556690000000003
20
-59.760950000000008
10
-79.556690000000003
20
-59.760950000000008
42
0.41421356237309503
10
-79.056690000000003
20
-59.260950000000001
10
-79.056690000000017
20
-46.260950000000001
42
0.41421356237309503
10
-79.556690000000003
20
-45.760950000000008
10
-92.556690000000003
20
-45.760950000000008
42
0.41421356237309503
10
-93.056690000000003
20
-46.260950000000001
10
-93.056690000000017
20
-59.260950000000001
42
0.41421356237309503
0
LWPOLYLINE
5
277
100
AcDbEntity
8
0
100
AcDbPolyline
90
8
70
1
43
0.0
10
-117.65669000000001
20
-45.760949999999994
42
-0.41421356237309503
10
-117.15669
20
-46.260950000000001
10
-117.15669000000003
20
-59.260950000000001
42
-0.41421356237309503
10
-117.65669000000001
20
-59.760950000000001
10
-130.65669
20
-59.760950000000008
42
-0.41421356237309503
10
-131.15669
20
-59.260950000000001
10
-131.15669
20
-46.260950000000001
42
-0.41421356237309503
10
-130.65669
20
-45.760950000000008
0
LWPOLYLINE
5
278
100
AcDbEntity
8
0
100
AcDbPolyline
90
8
70
1
43
0.0
10
-107.63169000000002
20
-40.210949999999997
10
-107.63169000000002
20
-27.21095
42
0.41421356237309503
10
-108.13169000000002
20
-26.710950000000004
10
-121.13169000000001
20
-26.710950000000004
42
0.41421356237309503
10
-121.63169000000002
20
-27.21095
10
-121.63169000000002
20
-40.210949999999997
42
0.41421356237309503
10
-121.13169000000001
20
-40.710949999999997
10
-108.13169000000002
20
-40.710949999999997
42
0.41421356237309503
0
LWPOLYLINE
5
279
100
AcDbEntity
8
0
100
AcDbPolyline
90
8
70
1
43
0.0
10
-9.738190000000003
20
-8.1609499999999908
42
-0.41421356237310153
10
-9.2381899999999995
20
-7.6609499999999775
10
-8.2381899999999995
20
-7.6609499999999811
42
-0.41421356237309309
10
-7.7381900000000012
20
-8.1609499999999802
10
-7.7381900000000012
20
-40.210949999999997
42
-0.41421356237309503
10
-8.2381899999999995
20
-40.710949999999997
10
-9.2381899999999995
20
-40.710949999999997
42
-0.41421356237309503
10
-9.7381899999999995
20
-40.210949999999997
0
LWPOLYLINE
5
280
100
AcDbEntity
8
0
100
AcDbPolyline
90
8
70
1
43
0.0
10
-26.381689999999992
20
-8.1609499999999908
42
-0.41421356237309503
10
-25.881690000000003
20
-7.6609500000000015
10
-12.881690000000001
20
-7.6609499999999908
42
-0.41421356237309503
10
-12.381690000000001
20
-8.1609499999999908
10
-12.381690000000003
20
-21.16095
42
-0.41421356237309503
10
-12.881690000000001
20
-21.66095
10
-25.881690000000003
20
-21.66095
42
-0.41421356237309503
10
-26.381689999999999
20
-21.16095
0
LWPOLYLINE
5
281
100
AcDbEntity
8
0
100
AcDbPolyline
90
8
70
1
43
0.0
10
-32.288190000000014
20
-8.1609499999999802
42
-0.41421356237308721
10
-31.788190000000004
20
-7.6609499999999837
10
-30.78819
20
-7.6609499999999864
42
-0.41421356237308721
10
-30.288189999999993
20
-8.1609499999999802
10
-30.28818999999999
20
-21.16095
42
-0.41421356237309503
10
-30.78819
20
-21.660950000000014
10
-31.788190000000004
20
-21.660950000000014
42
-0.41421356237309503
10
-32.288190000000014
20
-21.16095
0
LWPOLYLINE
5
282
100
AcDbEntity
8
0
100
AcDbPolyline
90
8
70
1
43
0.0
10
-50.194189999999992
20
-8.1609499999999908
42
-0.41421356237309503
10
-49.694190000000006
20
-7.6609500000000015
10
-36.694189999999999
20
-7.6609499999999926
42
-0.41421356237309503
10
-36.194189999999999
20
-8.1609499999999908
10
-36.194189999999999
20
-21.16095
42
-0.41421356237309503
10
-36.694189999999999
20
-21.66095
10
-49.694190000000006
20
-21.660950000000007
42
-0.41421356237309503
10
-50.194190000000006
20
-21.16095
0
LWPOLYLINE
5
283
100
AcDbEntity
8
0
100
AcDbPolyline
90
8
70
1
43
0.0
10
-74.006689999999992
20
-8.1609499999999908
42
-0.41421356237309503
10
-73.506690000000006
20
-7.6609500000000015
10
-60.506689999999999
20
-7.6609499999999837
42
-0.41421356237309503
10
-60.006689999999992
20
-8.1609499999999908
10
-60.006690000000006
20
-21.16095
42
-0.41421356237309503
10
-60.506689999999999
20
-21.66095
10
-73.506690000000006
20
-21.660949999999989
42
-0.41421356237309503
10
-74.006689999999992
20
-21.16095
0
LWPOLYLINE
5
284
100
AcDbEntity
8
0
100
AcDbPolyline
90
8
70
1
43
0.0
10
-216.38169000000002
20
-40.710949999999997
10
-203.38168999999999
20
-40.710949999999997
42
0.41421356237309503
10
-202.88168999999999
20
-40.210949999999997
10
-202.88169000000005
20
-27.21095
42
0.41421356237309503
10
-203.38168999999999
20
-26.710950000000004
10
-216.38169000000002
20
-26.710950000000004
42
0.41421356237309503
10
-216.88169000000002
20
-27.21095
10
-216.88169000000002
20
-40.210949999999997
42
0.41421356237309503
0
LWPOLYLINE
5
285
100
AcDbEntity
8
0
100
AcDbPolyline
90
8
70
1
43
0.0
10
-193.35668999999999
20
-59.260950000000001
42
-0.41421356237309503
10
-193.85669000000001
20
-59.760950000000001
10
-206.85669000000001
20
-59.760950000000008
42
-0.41421356237309503
10
-207.35669000000001
20
-59.260950000000001
10
-207.35669000000001
20
-46.260950000000001
42
-0.41421356237309503
10
-206.85669000000001
20
-45.760950000000008
10
-193.85669000000001
20
-45.760949999999994
42
-0.41421356237309503
10
-193.35668999999999
20
-46.260950000000001
0
LWPOLYLINE
5
286
100
AcDbEntity
8
0
100
AcDbPolyline
90
8
70
1
43
0.0
10
-202.09419
20
-78.810950000000005
10
-189.09419
20
-78.810950000000005
42
0.41421356237309503
10
-188.59419
20
-78.31095000000002
10
-188.59419
20
-65.310950000000005
42
0.41421356237309503
10
-189.09419
20
-64.810950000000005
10
-202.09419
20
-64.810949999999991
42
0.41421356237309503
10
-202.59419000000003
20
-65.310950000000005
10
-202.59419000000003
20
-78.31095000000002
42
0.41421356237309503
0
LWPOLYLINE
5
287
100
AcDbEntity
8
0
100
AcDbPolyline
90
8
70
1
43
0.0
10
-183.54419000000001
20
-65.310950000000005
10
-183.54419000000001
20
-78.31095000000002
42
0.41421356237309503
10
-183.04418999999999
20
-78.810950000000005
10
-170.04418999999999
20
-78.810950000000005
42
0.41421356237309503
10
-169.54418999999999
20
-78.31095000000002
10
-169.54418999999999
20
-65.310950000000005
42
0.41421356237309503
10
-170.04418999999999
20
-64.810950000000005
10
-183.04418999999999
20
-64.810950000000005
42
0.41421356237309503
0
LWPOLYLINE
5
288
100
AcDbEntity
8
0
100
AcDbPolyline
90
8
70
1
43
0.0
10
-211.61919
20
-97.860950000000017
10
-198.61919
20
-97.860950000000017
42
0.41421356237309503
10
-198.11919000000003
20
-97.360950000000003
10
-198.11919
20
-84.360950000000003
42
0.41421356237309503
10
-198.61919
20
-83.860950000000003
10
-211.61919
20
-83.860950000000003
42
0.41421356237309503
10
-212.11919
20
-84.360950000000003
10
-212.11919
20
-97.360950000000003
42
0.41421356237309503
0
LWPOLYLINE
5
289
100
AcDbEntity
8
0
100
AcDbPolyline
90
8
70
1
43
0.0
10
-192.56918999999999
20
-97.860950000000017
10
-179.56918999999999
20
-97.860950000000017
42
0.41421356237309503
10
-179.06918999999999
20
-97.360950000000003
10
-179.06918999999999
20
-84.360950000000003
42
0.41421356237309503
10
-179.56918999999999
20
-83.860950000000003
10
-192.56918999999999
20
-83.860950000000003
42
0.41421356237309503
10
-193.06918999999999
20
-84.360950000000003
10
-193.06918999999999
20
-97.360950000000003
42
0.41421356237309503
0
LWPOLYLINE
5
290
100
AcDbEntity
8
0
100
AcDbPolyline
90
8
70
1
43
0.0
10
-173.51919000000004
20
-97.860950000000017
10
-160.51919000000001
20
-97.860950000000017
42
0.41421356237309503
10
-160.01919000000001
20
-97.360950000000003
10
-160.01919000000001
20
-84.360950000000003
42
0.41421356237309503
10
-160.51919000000001
20
-83.860950000000003
10
-173.51919000000004
20
-83.860950000000003
42
0.41421356237309503
10
-174.01919000000004
20
-84.360950000000003
10
-174.01919000000004
20
-97.360950000000003
42
0.41421356237309503
0
LWPOLYLINE
5
291
100
AcDbEntity
8
0
100
AcDbPolyline
90
8
70
1
43
0.0
10
-225.90669000000003
20
-59.760950000000008
10
-212.90669000000003
20
-59.760950000000008
42
0.41421356237309503
10
-212.40669
20
-59.260950000000001
10
-212.40669000000003
20
-46.260950000000001
42
0.41421356237309503
10
-212.90669000000003
20
-45.760950000000008
10
-225.90669000000003
20
-45.760950000000008
42
0.41421356237309503
10
-226.40669000000003
20
-46.260950000000001
10
-226.40669000000003
20
-59.260950000000001
42
0.41421356237309503
0
LWPOLYLINE
5
292
100
AcDbEntity
8
0
100
AcDbPolyline
90
8
70
1
43
0.0
10
-174.30669
20
-59.260950000000001
10
-174.30669
20
-46.260950000000001
42
0.41421356237309503
10
-174.80669000000003
20
-45.760950000000008
10
-187.80669
20
-45.760950000000008
42
0.41421356237309503
10
-188.30669
20
-46.260950000000001
10
-188.30669
20
-59.260950000000001
42
0.41421356237309503
10
-187.80669
20
-59.760950000000008
10
-174.80669000000003
20
-59.760950000000001
42
0.41421356237309503
0
LWPOLYLINE
5
293
100
AcDbEntity
8
0
100
AcDbPolyline
90
8
70
1
43
0.0
10
-163.99419
20
-78.810950000000005
10
-150.99419
20
-78.810950000000005
42
0.41421356237309503
10
-150.49419
20
-78.31095000000002
10
-150.49419
20
-65.310950000000005
42
0.41421356237309503
10
-150.99419
20
-64.810950000000005
10
-163.99419
20
-64.810950000000005
42
0.41421356237309503
10
-164.49419000000003
20
-65.310950000000005
10
-164.49419000000003
20
-78.31095000000002
42
0.41421356237309503
0
LWPOLYLINE
5
294
100
AcDbEntity
8
0
100
AcDbPolyline
90
8
70
1
43
0.0
10
-154.46919000000003
20
-97.860950000000017
10
-141.46919
20
-97.860950000000017
42
0.41421356237309503
10
-140.96919
20
-97.360950000000003
10
-140.96919
20
-84.360950000000003
42
0.41421356237309503
10
-141.46919
20
-83.860950000000003
10
-154.46919000000003
20
-83.860950000000003
42
0.41421356237309503
10
-154.96919
20
-84.360950000000003
10
-154.96919000000003
20
-97.360950000000003
42
0.41421356237309503
0
LWPOLYLINE
5
295
100
AcDbEntity
8
0
100
AcDbPolyline
90
8
70
1
43
0.0
10
-270.05669
20
-64.810950000000005
10
-283.05669
20
-64.810950000000005
42
0.41421356237309503
10
-283.55669
20
-65.310950000000005
10
-283.55669
20
-78.31095000000002
42
0.41421356237309503
10
-283.05669
20
-78.810950000000005
10
-270.05669
20
-78.810950000000005
42
0.41421356237309503
10
-269.55669
20
-78.31095000000002
10
-269.55669
20
-65.310950000000005
42
0.41421356237309503
0
LWPOLYLINE
5
296
100
AcDbEntity
8
0
100
AcDbPolyline
90
8
70
1
43
0.0
10
-262.91293999999999
20
-45.760950000000008
10
-275.91293999999999
20
-45.760950000000008
42
0.41421356237309503
10
-276.41294000000005
20
-46.260950000000001
10
-276.41294000000005
20
-59.260950000000001
42
0.41421356237309503
10
-275.91293999999999
20
-59.760950000000008
10
-262.91293999999999
20
-59.760950000000001
42
0.41421356237309503
10
-262.41293999999999
20
-59.260950000000001
10
-262.41293999999999
20
-46.260950000000001
42
0.41421356237309503
0
LWPOLYLINE
5
297
100
AcDbEntity
8
0
100
AcDbPolyline
90
14
70
1
43
0.0
10
-256.08744000000002
20
-26.710950000000004
10
-271.15044
20
-26.710950000000004
42
0.41421356237309503
10
-271.65044
20
-27.21095
10
-271.65044
20
-40.210949999999997
42
0.41421356237309503
10
-271.15044
20
-40.710949999999997
10
-248.62544
20
-40.710949999999997
42
0.4142135623730222
10
-248.12544000000003
20
-40.210949999999997
10
-248.12544
20
-27.21095
42
0.41421356237310025
10
-248.62544
20
-26.710950000000004
10
-249.33744000000002
20
-26.710950000000004
10
-249.33744000000002
20
-26.210950000000004
42
0.41421356237309503
10
-249.83744000000002
20
-25.71095
10
-255.58744000000002
20
-25.710950000000004
42
0.41421356237309503
10
-256.08744000000002
20
-26.210950000000004
0
ENDSEC
0
SECTION
2
OBJECTS
0
DICTIONARY
5
C
100
AcDbDictionary
3
ACAD_GROUP
350
D
3
ACAD_MLINESTYLE
350
17
0
DICTIONARY
5
D
100
AcDbDictionary
0
DICTIONARY
5
1A
330
C
100
AcDbDictionary
0
DICTIONARY
5
17
100
AcDbDictionary
0
ENDSEC
0
EOF
