0
SECTION
2
HEADER
9
$INSUNITS
70
4
9
$ACADVER
1
AC1014
9
$HANDSEED
5
FFFF
0
ENDSEC
0
SECTION
2
TABLES
0
TABLE
2
VPORT
5
8
100
AcDbSymbolTable
0
ENDTAB
0
TABLE
2
LTYPE
5
5
100
AcDbSymbolTable
0
LTYPE
5
14
100
AcDbSymbolTableRecord
100
AcDbLinetypeTableRecord
2
BYBLOCK
70
0
0
LTYPE
5
15
100
AcDbSymbolTableRecord
100
AcDbLinetypeTableRecord
2
BYLAYER
70
0
0
LTYPE
5
16
100
AcDbSymbolTableRecord
100
AcDbLinetypeTableRecord
2
DASHED
70
0
3
Dashed __ __ __ __ __ __ __ __ __ __ __ __ __ _
72
65
73
2
40
0.75
49
0.5
74
0
49
-0.25
74
0
0
ENDTAB
0
TABLE
2
LAYER
5
2
100
AcDbSymbolTable
70
2
0
LAYER
5
50
100
AcDbSymbolTableRecord
100
AcDbLayerTableRecord
2
0
70
0
62
7
6
CONTINUOUS
0
ENDTAB
0
TABLE
2
STYLE
5
3
100
AcDbSymbolTable
70
1
0
STYLE
5
11
100
AcDbSymbolTableRecord
100
AcDbTextStyleTableRecord
2
STANDARD
70
0
0
ENDTAB
0
TABLE
2
VIEW
5
6
100
AcDbSymbolTable
70
0
0
ENDTAB
0
TABLE
2
UCS
5
7
100
AcDbSymbolTable
70
0
0
ENDTAB
0
TABLE
2
APPID
5
9
100
AcDbSymbolTable
70
2
0
APPID
5
12
100
AcDbSymbolTableRecord
100
AcDbRegAppTableRecord
2
ACAD
70
0
0
ENDTAB
0
TABLE
2
DIMSTYLE
5
A
100
AcDbSymbolTable
70
1
0
ENDTAB
0
TABLE
2
BLOCK_RECORD
5
1
100
AcDbSymbolTable
70
1
0
BLOCK_RECORD
5
1F
100
AcDbSymbolTableRecord
100
AcDbBlockTableRecord
2
*MODEL_SPACE
0
BLOCK_RECORD
5
1B
100
AcDbSymbolTableRecord
100
AcDbBlockTableRecord
2
*PAPER_SPACE
0
ENDTAB
0
ENDSEC
0
SECTION
2
BLOCKS
0
BLOCK
5
20
100
AcDbEntity
100
AcDbBlockBegin
2
*MODEL_SPACE
0
ENDBLK
5
21
100
AcDbEntity
100
AcDbBlockEnd
0
BLOCK
5
1C
100
AcDbEntity
100
AcDbBlockBegin
2
*PAPER_SPACE
0
ENDBLK
5
1D
100
AcDbEntity
100
AcDbBlockEnd
0
ENDSEC
0
SECTION
2
ENTITIES
0
ARC
5
100
100
AcDbEntity
8
0
100
AcDbCircle
10
-135.99921253391494
20
94.625000000000853
30
-3.5527136788005016e-14
40
1.0999999999999415
210
2.9335764912906377e-30
220
3.608224830031884e-16
230
1
100
AcDbArc
50
43.787723002044785
51
90.000000000001492
0
LINE
5
101
100
AcDbEntity
8
0
100
AcDbLine
10
-135.99921253391497
20
95.72500000000079
30
-3.5924041519308508e-14
11
-150.80000000000115
21
95.725000000000421
31
-3.3306690738754545e-14
0
ARC
5
102
100
AcDbEntity
8
0
100
AcDbCircle
10
-150.80000000000109
20
94.125000000000398
30
-3.1086244689504377e-14
40
1.6000000000000192
210
-3.4515121083736295e-29
220
1.387778780781338e-15
230
1
100
AcDbArc
50
90.000000000002032
51
180
0
LINE
5
103
100
AcDbEntity
8
0
100
AcDbLine
10
-152.40000000000111
20
94.125000000000384
30
-3.1086244689504377e-14
11
-152.39999999999884
21
2.0750000000003865
31
4.4408920985006262e-15
0
ARC
5
104
100
AcDbEntity
8
0
100
AcDbCircle
10
-150.79999999999882
20
2.0750000000004314
30
-5.1152699322924984e-30
40
1.6000000000000014
210
2.7755575615628811e-15
220
3.8857805861888294e-16
230
1
100
AcDbArc
50
180
51
270
0
LINE
5
105
100
AcDbEntity
8
0
100
AcDbLine
10
-150.79999999999882
20
0.47500000000041231
30
6.2172489379009029e-16
11
-130.37680806346549
21
0.47500000000094073
31
2.220446049250108e-15
0
ARC
5
106
100
AcDbEntity
8
0
100
AcDbCircle
10
-130.37680806346555
20
1.5750000000009718
30
-1.8180778675015506e-29
40
1.100000000000031
210
-1.2859858526694999e-17
220
2.0185873175000572e-15
230
1
100
AcDbArc
50
270.00000000000296
51
322.57873500046804
0
ELLIPSE
5
107
100
AcDbEntity
8
0
100
AcDbEllipse
10
-127.38224998999462
20
-2.3391105230829736
30
0
11
5.1664511562767713e-15
21
-4.4194173824159613
31
0.0
40
0.70710678118654136
41
2.3955961307206306
42
3.8875891764587438
0
ARC
5
108
100
AcDbEntity
8
0
100
AcDbCircle
10
-124.38769191652355
20
1.5750000000010038
30
2.9274135154685985e-29
40
1.0999999999998338
210
-1.019665993120854e-15
220
-4.1937086685719757e-16
230
1
100
AcDbArc
50
217.42126499956365
51
270.00000000000369
0
LINE
5
109
100
AcDbEntity
8
0
100
AcDbLine
10
-124.38769191652348
20
0.47500000000108444
30
3.9690473130349289e-16
11
-104.6812499999987
21
0.4749999999995792
31
5.679798517591285e-28
0
ARC
5
110
100
AcDbEntity
8
0
100
AcDbCircle
10
-104.6812499999987
20
-0.025000000001430267
30
0
40
0.5000000000003092
210
-3.5648928665514918e-30
220
3.8857805861880464e-16
230
1
100
AcDbArc
50
-89.999999999986969
51
90
0
LINE
5
111
100
AcDbEntity
8
0
100
AcDbLine
10
-104.68124999999858
20
-0.52500000000173941
30
1.9428902930952247e-16
11
-118.08124999999856
21
-0.5250000000027415
31
2.220446049250818e-15
0
ARC
5
112
100
AcDbEntity
8
0
100
AcDbCircle
10
-118.08124999999842
20
-2.1250000000027796
30
2.2204460492503131e-15
40
1.6000000000000381
210
3.5816522636258439e-29
220
-3.1554436208839405e-28
230
1
100
AcDbArc
50
90.000000000005087
51
180
0
LINE
5
113
100
AcDbEntity
8
0
100
AcDbLine
10
-119.68124999999839
20
-2.1250000000028222
30
2.220446049250332e-15
11
-119.68124999999827
21
-4.4250000000028002
31
3.1225022567582528e-15
0
ARC
5
114
100
AcDbEntity
8
0
100
AcDbCircle
10
-118.08124999999836
20
-4.4250000000027558
30
2.2204460492503131e-15
40
1.5999999999998948
210
5.6378512969248794e-16
220
4.1633363423444913e-16
230
1
100
AcDbArc
50
180
51
270.00000000000512
0
LINE
5
115
100
AcDbEntity
8
0
100
AcDbLine
10
-118.08124999999822
20
-6.0250000000027573
30
2.886579864025407e-15
11
-101.68124999999834
21
-6.0250000000013584
31
4.4408920985000582e-15
0
ARC
5
116
100
AcDbEntity
8
0
100
AcDbCircle
10
-101.68124999999834
20
-5.5250000000013486
30
4.4408920985006262e-15
40
0.50000000000000933
210
1.8219643320135406e-31
220
-1.1359597035182358e-27
230
1
100
AcDbArc
50
-90
51
0
0
LINE
5
117
100
AcDbEntity
8
0
100
AcDbLine
10
-101.18124999999833
20
-5.5250000000013326
30
4.4408920985006191e-15
11
-101.18124999999837
21
-4.5250000000013362
31
4.0419056990259605e-15
0
ARC
5
118
100
AcDbEntity
8
0
100
AcDbCircle
10
-99.681249999998371
20
-4.5250000000012971
30
2.2204460492503131e-15
40
1.4999999999999858
210
2.2905726805245824e-29
220
3.8857805861880469e-16
230
1
100
AcDbArc
50
0
51
180
0
LINE
5
119
100
AcDbEntity
8
0
100
AcDbLine
10
-98.181249999998386
20
-4.525000000000265
30
2.2204460492498776e-15
11
-98.181249999998357
21
-5.525000000000273
31
4.8398784979752918e-15
0
ARC
5
120
100
AcDbEntity
8
0
100
AcDbCircle
10
-97.681249999998357
20
-5.5250000000002597
30
4.4408920985006262e-15
40
0.49999999999998934
210
7.9797279894933856e-16
220
3.6082248300319713e-16
230
1
100
AcDbArc
50
180
51
270.00000000000159
0
LINE
5
121
100
AcDbEntity
8
0
100
AcDbLine
10
-97.681249999998343
20
-6.0250000000003023
30
4.6213033400022299e-15
11
-81.281249999998337
21
-6.0249999999988564
31
2.2204460492497767e-15
0
ARC
5
122
100
AcDbEntity
8
0
100
AcDbCircle
10
-81.28124999999838
20
-4.4249999999988443
30
2.2204460492503131e-15
40
1.6000000000000125
210
8.4159321314530397e-30
220
-3.3526588471892724e-28
230
1
100
AcDbArc
50
-89.999999999998465
51
0
0
LINE
5
123
100
AcDbEntity
8
0
100
AcDbLine
10
-79.681249999998386
20
-4.4249999999978167
30
2.2204460492499143e-15
11
-79.681249999998528
21
-2.1249999999988129
31
1.3183898417423734e-15
0
ARC
5
124
100
AcDbEntity
8
0
100
AcDbCircle
10
-81.281249999998522
20
-2.1249999999988489
30
2.2204460492503131e-15
40
1.5999999999999837
210
5.6378512969245866e-16
220
4.1633363423444647e-16
230
1
100
AcDbArc
50
0
51
90.000000000005087
0
LINE
5
125
100
AcDbEntity
8
0
100
AcDbLine
10
-81.281249999998664
20
-0.5249999999988586
30
1.5543122344752231e-15
11
-94.68124999999857
21
-0.52500000000017188
31
5.0487097934144756e-28
0
ARC
5
126
100
AcDbEntity
8
0
100
AcDbCircle
10
-94.681249999998585
20
-0.025000000000205136
30
0
40
0.50000000000015021
210
-9.6796376529729951e-30
220
4.1633363423443355e-16
230
1
100
AcDbArc
50
90.000000000013031
51
270.00000000000159
0
LINE
5
127
100
AcDbEntity
8
0
100
AcDbLine
10
-94.681249999998698
20
0.47499999999994513
30
-2.0816681711727934e-16
11
-63.708399822340098
21
0.47500000000259168
31
2.2204460492491771e-15
0
ARC
5
128
100
AcDbEntity
8
0
100
AcDbCircle
10
-63.708399822340134
20
1.5750000000025921
30
1.7872629883913549e-30
40
1.1000000000000005
210
-1.2368532266528698e-17
220
2.0185873174992494e-15
230
1
100
AcDbArc
50
270.00000000000182
51
322.15227847706353
0
ELLIPSE
5
129
100
AcDbEntity
8
0
100
AcDbEllipse
10
-60.736500010005237
20
-2.3684964931153307
30
2.2204460492503131e-15
11
5.1664511562767713e-15
21
-4.4194173824159613
31
0.0
40
0.70710678118654136
41
2.4032634179554897
42
3.8799218892241494
0
ARC
5
130
100
AcDbEntity
8
0
100
AcDbCircle
10
-57.764600197670333
20
1.5750000000027207
30
1.0723577930348129e-29
40
1.1000000000003294
210
5.7252356104329392e-16
220
8.0568153902028685e-16
230
1
100
AcDbArc
50
217.84772152293544
51
270.00000000000182
0
LINE
5
131
100
AcDbEntity
8
0
100
AcDbLine
10
-57.764600197670298
20
0.47500000000274961
30
3.9690473130349388e-16
11
57.764600197672223
21
0.47500000000564147
31
2.220446049249114e-15
0
ARC
5
132
100
AcDbEntity
8
0
100
AcDbCircle
10
57.764600197672209
20
1.5750000000056341
30
-2.4035605705952703e-30
40
1.0999999999999925
210
-9.924941239595731e-18
220
2.0185873174992104e-15
230
1
100
AcDbArc
50
270.00000000000074
51
322.15227847706205
0
ELLIPSE
5
133
100
AcDbEntity
8
0
100
AcDbEllipse
10
60.736500010005294
20
-2.3684964931152974
30
2.2204460492503131e-15
11
1.0961218388360989e-15
21
-4.4194173824159613
31
0.0
40
0.70710678118654136
41
2.4032634179563788
42
3.8799218892232679
0
ARC
5
134
100
AcDbEntity
8
0
100
AcDbCircle
10
63.708399822337192
20
1.5750000000057771
30
-5.6083079980556308e-30
40
1.0999999999998118
210
5.7252356104243475e-16
220
8.0568153902035646e-16
230
1
100
AcDbArc
50
217.84772152298171
51
270.00000000000114
0
LINE
5
135
100
AcDbEntity
8
0
100
AcDbLine
10
63.708399822337213
20
0.47500000000575848
30
3.9690473130349476e-16
11
94.681249999999181
21
0.47500000000054288
31
2.2204460492523326e-15
0
ARC
5
136
100
AcDbEntity
8
0
100
AcDbCircle
10
94.681249999999224
20
-0.024999999999461009
30
0
40
0.49999999999998912
210
-2.1223401940914633e-31
220
3.8857805861880484e-16
230
1
100
AcDbArc
50
-89.99999999999838
51
90.000000000004889
0
LINE
5
137
100
AcDbEntity
8
0
100
AcDbLine
10
94.681249999999238
20
-0.52499999999945013
30
1.9428902930939815e-16
11
81.281249999999233
21
-0.52499999999879987
31
-2.5243548967072378e-28
0
ARC
5
138
100
AcDbEntity
8
0
100
AcDbCircle
10
81.281249999999261
20
-2.1249999999988027
30
2.2204460492503131e-15
40
1.6000000000000025
210
-2.129068410172248e-29
220
1.3877787807816013e-15
230
1
100
AcDbArc
50
90.000000000001009
51
180
0
LINE
5
139
100
AcDbEntity
8
0
100
AcDbLine
10
79.681249999999267
20
-2.1249999999978404
30
2.2204460492499131e-15
11
79.681249999999309
21
-4.4249999999978362
31
3.1225022567582528e-15
0
ARC
5
140
100
AcDbEntity
8
0
100
AcDbCircle
10
81.281249999999332
20
-4.4249999999987981
30
2.2204460492503131e-15
40
1.6000000000000281
210
5.6378512969268605e-16
220
3.8857805861846583e-16
230
1
100
AcDbArc
50
180
51
270.00000000000153
0
LINE
5
141
100
AcDbEntity
8
0
100
AcDbLine
10
81.281249999999375
20
-6.0249999999987889
30
2.8421709430403974e-15
11
97.681249999999352
21
-6.0250000000004009
31
2.2204460492509442e-15
0
ARC
5
142
100
AcDbEntity
8
0
100
AcDbCircle
10
97.681249999999352
20
-5.5250000000004027
30
2.2204460492503131e-15
40
0.49999999999999822
210
-1.0010949246301615e-30
220
1.2621774483536234e-27
230
1
100
AcDbArc
50
-90
51
0
0
LINE
5
143
100
AcDbEntity
8
0
100
AcDbLine
10
98.18124999999938
20
-5.5250000000003858
30
2.2204460492503068e-15
11
98.181249999999352
21
-4.5250000000003876
31
4.0419056990259605e-15
0
ARC
5
144
100
AcDbEntity
8
0
100
AcDbCircle
10
99.681249999999324
20
-4.5250000000003512
30
4.4408920985006262e-15
40
1.4999999999999858
210
1.5407439555098055e-30
220
3.8857805861880469e-16
230
1
100
AcDbArc
50
0
51
180
0
LINE
5
145
100
AcDbEntity
8
0
100
AcDbLine
10
101.18124999999932
20
-4.5250000000003139
30
4.4408920985006096e-15
11
101.18124999999937
21
-5.525000000000313
31
4.8398784979752918e-15
0
ARC
5
146
100
AcDbEntity
8
0
100
AcDbCircle
10
101.68124999999934
20
-5.5250000000003006
30
4.4408920985006262e-15
40
0.49999999999997158
210
7.9797279894936716e-16
220
3.8857805861882426e-16
230
1
100
AcDbArc
50
180
51
270.00000000000159
0
LINE
5
147
100
AcDbEntity
8
0
100
AcDbLine
10
101.68124999999935
20
-6.0250000000003077
30
4.6351811278100317e-15
11
118.08124999999934
21
-6.0250000000018824
31
2.2204460492509442e-15
0
ARC
5
148
100
AcDbEntity
8
0
100
AcDbCircle
10
118.08124999999933
20
-4.4250000000018801
30
2.2204460492503131e-15
40
1.6000000000000025
210
5.2851404138453838e-30
220
3.9443045261050532e-28
230
1
100
AcDbArc
50
270.00000000000051
51
360
0
LINE
5
149
100
AcDbEntity
8
0
100
AcDbLine
10
119.6812499999993
20
-4.425000000002842
30
2.2204460492506854e-15
11
119.68124999999931
21
-2.1250000000028444
31
1.3877787807814457e-15
0
ARC
5
150
100
AcDbEntity
8
0
100
AcDbCircle
10
118.08124999999926
20
-2.1250000000018856
30
2.2204460492503131e-15
40
1.6000000000000547
210
5.2041704279327386e-16
220
4.1633363423412181e-16
230
1
100
AcDbArc
50
0
51
90.000000000001521
0
LINE
5
151
100
AcDbEntity
8
0
100
AcDbLine
10
118.08124999999922
20
-0.52500000000188485
30
1.5543122344752192e-15
11
104.68124999999927
21
-0.52500000000121716
31
2.2204460492500764e-15
0
ARC
5
152
100
AcDbEntity
8
0
100
AcDbCircle
10
104.68124999999927
20
-0.025000000000228173
30
0
40
0.49999999999563705
210
9.7105733842236297e-31
220
3.8857805861880484e-16
230
1
100
AcDbArc
50
90.000000000003254
51
270
0
LINE
5
153
100
AcDbEntity
8
0
100
AcDbLine
10
104.68124999999924
20
0.47499999999540887
30
-1.9428902930770703e-16
11
130.36347517766524
21
0.47500000000741649
31
2.2204460492452644e-15
0
ARC
5
154
100
AcDbEntity
8
0
100
AcDbCircle
10
130.36347517766524
20
1.5750000000073889
30
1.7317962059930025e-29
40
1.0999999999999723
210
-1.8439865550412336e-17
220
2.0185873174957303e-15
230
1
100
AcDbArc
50
270
51
322.1522784770217
0
ELLIPSE
5
155
100
AcDbEntity
8
0
100
AcDbEllipse
10
133.33537498999632
20
-2.3684964931155026
30
2.2204460492503131e-15
11
1.0961218388360989e-15
21
-4.4194173824159613
31
0.0
40
0.70710678118654136
41
2.4032634179567713
42
3.8799218892227039
0
ARC
5
156
100
AcDbEntity
8
0
100
AcDbCircle
10
136.30727480232719
20
1.5750000000075302
30
1.8858706015439813e-29
40
1.1000000000001979
210
5.7252356104143221e-16
220
8.0568153902014919e-16
230
1
100
AcDbArc
50
217.84772152301755
51
270.00000000000296
0
LINE
5
157
100
AcDbEntity
8
0
100
AcDbLine
10
136.30727480232724
20
0.47500000000758408
30
3.9690473130349329e-16
11
150.80000000000121
21
0.47500000000795767
31
2.2204460492501711e-15
0
ARC
5
158
100
AcDbEntity
8
0
100
AcDbCircle
10
150.80000000000115
20
2.0750000000079503
30
-3.3896367021215351e-30
40
1.5999999999999928
210
-3.229929313290076e-29
220
1.3877787807813654e-15
230
1
100
AcDbArc
50
-89.999999999997954
51
0
0
LINE
5
159
100
AcDbEntity
8
0
100
AcDbLine
10
152.40000000000114
20
2.0750000000079822
30
-1.7207317720655276e-29
11
152.3999999999989
21
94.125000000007972
31
-3.5527136788005009e-14
0
ARC
5
160
100
AcDbEntity
8
0
100
AcDbCircle
10
150.79999999999885
20
94.125000000007958
30
-3.5527136788005003e-14
40
1.6000000000000547
210
6.1629758220387904e-31
220
3.8857805861880617e-16
230
1
100
AcDbArc
50
0
51
90.000000000001009
0
LINE
5
161
100
AcDbEntity
8
0
100
AcDbLine
10
150.79999999999882
20
95.725000000007981
30
-3.6148861681795099e-14
11
135.99921253392185
21
95.725000000007583
31
-3.3306690738754545e-14
0
ARC
5
162
100
AcDbEntity
8
0
100
AcDbCircle
10
135.99921253392188
20
94.625000000007518
30
-3.774758283725531e-14
40
1.1000000000000654
210
1.1317290113419074e-17
220
-4.0371746350004521e-15
230
1
100
AcDbArc
50
90.000000000001492
51
136.21227699806133
0
ELLIPSE
5
163
100
AcDbEntity
8
0
100
AcDbEllipse
10
133.35000000000076
20
98.942640687119038
30
-3.9968028886505635e-14
11
2.8299176134209045e-15
21
4.4194173824158707
31
0.0
40
0.70710678118655579
41
2.5060227740841508
42
3.7771625330957082
0
ARC
5
164
100
AcDbEntity
8
0
100
AcDbCircle
10
130.70078746607987
20
94.625000000007574
30
-3.7747582837255398e-14
40
1.1000000000001646
210
3.7003246063972712e-16
220
7.155186829341265e-16
230
1
100
AcDbArc
50
43.787723001897909
51
90.00000000000297
0
LINE
5
165
100
AcDbEntity
8
0
100
AcDbLine
10
130.70078746607982
20
95.725000000007469
30
-3.8144487568558821e-14
11
106.18124999999685
21
95.725000000000847
31
-3.3306690738752172e-14
0
ARC
5
166
100
AcDbEntity
8
0
100
AcDbCircle
10
106.18124999999685
20
96.224999999999142
30
-3.7747582837255322e-14
40
0.50000000000000711
210
1.6623834014268128e-30
220
3.608224830031739e-16
230
1
100
AcDbArc
50
90.000000000003254
51
270
0
LINE
5
167
100
AcDbEntity
8
0
100
AcDbLine
10
106.18124999999682
20
96.724999999999142
30
-3.792799407875691e-14
11
119.58124999999578
21
96.725000000000776
31
-3.552713678800564e-14
0
ARC
5
168
100
AcDbEntity
8
0
100
AcDbCircle
10
119.58124999999677
20
98.324999999999179
30
-3.7747582837255322e-14
40
1.5999999999984027
210
6.0925569820425482e-28
220
1.3877787807824367e-15
230
1
100
AcDbArc
50
-90.000000000035627
51
0
0
LINE
5
169
100
AcDbEntity
8
0
100
AcDbLine
10
121.18124999999507
20
98.325000000000699
30
-3.7747582837255966e-14
11
121.18124999999672
21
100.62500000000043
31
-3.8649639044763262e-14
0
ARC
5
170
100
AcDbEntity
8
0
100
AcDbCircle
10
119.5812499999967
20
100.62499999999918
30
-3.7747582837255322e-14
40
1.6000000000000192
210
5.6378512969215366e-16
220
3.8857805861924285e-16
230
1
100
AcDbArc
50
0
51
90.000000000001009
0
LINE
5
171
100
AcDbEntity
8
0
100
AcDbLine
10
119.58124999999667
20
102.22499999999918
30
-3.8369307731045413e-14
11
103.18124999999667
21
102.22500000000156
31
-3.5527136788005956e-14
0
ARC
5
172
100
AcDbEntity
8
0
100
AcDbCircle
10
103.18124999999669
20
101.72499999999916
30
-3.9968028886505635e-14
40
0.50000000000240519
210
6.5799465653897916e-28
220
-8.8817841969566344e-15
230
1
100
AcDbArc
50
90.000000000003254
51
180
0
LINE
5
173
100
AcDbEntity
8
0
100
AcDbLine
10
102.68124999999426
20
101.72499999999914
30
-3.9968028886505629e-14
11
102.68124999999671
21
100.72499999999914
31
-3.7348596437780657e-14
0
ARC
5
174
100
AcDbEntity
8
0
100
AcDbCircle
10
101.18124999999671
20
100.72499999999913
30
-3.7747582837255322e-14
40
1.5000000000000036
210
1.3147681753683525e-30
220
3.8857805861880469e-16
230
1
100
AcDbArc
50
-180
51
0
0
LINE
5
175
100
AcDbEntity
8
0
100
AcDbLine
10
99.681249999996709
20
100.72499999999908
30
-3.774758283725531e-14
11
99.681249999996666
21
101.72500000000169
31
-3.8146569236729988e-14
0
ARC
5
176
100
AcDbEntity
8
0
100
AcDbCircle
10
99.18124999999668
20
101.72499999999917
30
-3.7747582837255322e-14
40
0.49999999999998934
210
7.9797279894754075e-16
220
3.6082248300717318e-16
230
1
100
AcDbArc
50
0
51
90.000000000003254
0
LINE
5
177
100
AcDbEntity
8
0
100
AcDbLine
10
99.181249999996652
20
102.22499999999918
30
-3.792799407875691e-14
11
82.781249999996632
21
102.22500000000247
31
-3.7747582837256648e-14
0
ARC
5
178
100
AcDbEntity
8
0
100
AcDbCircle
10
82.781249999996675
20
100.62499999999918
30
-3.9968028886505635e-14
40
1.6000000000032877
210
4.0019672146699698e-29
220
-1.3877787807777658e-15
230
1
100
AcDbArc
50
90.000000000001521
51
180
0
LINE
5
179
100
AcDbEntity
8
0
100
AcDbLine
10
81.181249999993355
20
100.62499999999915
30
-3.9968028886505623e-14
11
81.181249999996766
21
98.325000000002433
31
-3.6914915568786455e-14
0
ARC
5
180
100
AcDbEntity
8
0
100
AcDbCircle
10
82.781249999996746
20
98.324999999999179
30
-3.3306690738754696e-14
40
1.5999999999999837
210
-2.2551405187690824e-15
220
3.8857805862338649e-16
230
1
100
AcDbArc
50
180
51
270.00000000000051
0
LINE
5
181
100
AcDbEntity
8
0
100
AcDbLine
10
82.78124999999676
20
96.724999999999199
30
-3.2684965844964619e-14
11
96.181249999995813
21
96.724999999999
31
-3.3306690738754639e-14
0
ARC
5
182
100
AcDbEntity
8
0
100
AcDbCircle
10
96.181249999995856
20
96.224999999999
30
-3.9968028886505635e-14
40
0.50000000000000711
210
1.2679529488163069e-30
220
3.608224830031739e-16
230
1
100
AcDbArc
50
-89.99999999999838
51
90.000000000004889
0
LINE
5
183
100
AcDbEntity
8
0
100
AcDbLine
10
96.18124999999587
20
95.724999999998985
30
-3.9787617645004048e-14
11
40.749212533917841
21
95.725000000005224
31
-3.5527136788006903e-14
0
ARC
5
184
100
AcDbEntity
8
0
100
AcDbCircle
10
40.749212533917913
20
94.625000000005159
30
-3.5527136788004934e-14
40
1.1000000000000654
210
1.1317290113844025e-17
220
1.7900110003219964e-27
230
1
100
AcDbArc
50
90.000000000003695
51
136.21227699797919
0
ELLIPSE
5
185
100
AcDbEntity
8
0
100
AcDbEllipse
10
38.100000000001785
20
98.942640687121539
30
-3.5527136788005009e-14
11
2.8299176134209463e-15
21
4.4194173824158911
31
0.0
40
0.70710678118655468
41
2.5060227740854146
42
3.7771625330942107
0
ARC
5
186
100
AcDbEntity
8
0
100
AcDbCircle
10
35.450787466085927
20
94.625000000005187
30
-3.5527136788005085e-14
40
1.0999999999999095
210
-1.0872029219067668e-15
220
-6.8132053409643852e-16
230
1
100
AcDbArc
50
43.787723002024322
51
90.000000000004434
0
LINE
5
187
100
AcDbEntity
8
0
100
AcDbLine
10
35.450787466085842
20
95.725000000005082
30
-3.5924041519308508e-14
11
4.9999999999998401
21
95.725000000001216
31
-3.1086244689502805e-14
0
ARC
5
188
100
AcDbEntity
8
0
100
AcDbCircle
10
4.999999999999825
20
96.225000000001245
30
-3.7747582837255322e-14
40
0.49999999999998934
210
2.7973127541815422e-31
220
4.163336342344268e-16
230
1
100
AcDbArc
50
90.000000000001435
51
270.00000000000171
0
LINE
5
189
100
AcDbEntity
8
0
100
AcDbLine
10
4.9999999999998126
20
96.725000000001245
30
-3.7955749654372533e-14
11
18.399999999999824
21
96.725000000000563
31
-3.7747582837255083e-14
0
ARC
5
190
100
AcDbEntity
8
0
100
AcDbCircle
10
18.399999999999775
20
98.325000000000557
30
-3.9968028886505635e-14
40
1.6000000000000014
210
-3.1316772993245424e-29
220
1.3877787807815924e-15
230
1
100
AcDbArc
50
270.00000000000182
51
360
0
LINE
5
191
100
AcDbEntity
8
0
100
AcDbLine
10
19.999999999999773
20
98.325000000000514
30
-3.996802888650561e-14
11
19.999999999999719
21
100.62500000000021
31
-4.0870085094013575e-14
0
ARC
5
192
100
AcDbEntity
8
0
100
AcDbCircle
10
18.399999999999707
20
100.62500000000068
30
-3.9968028886505635e-14
40
1.6000000000000125
210
5.6378512969257807e-16
220
4.1633363423427085e-16
230
1
100
AcDbArc
50
0
51
90.000000000001776
0
LINE
5
193
100
AcDbEntity
8
0
100
AcDbLine
10
18.399999999999658
20
102.22500000000068
30
-4.0634162701280729e-14
11
1.9999999999996665
21
102.22500000000137
31
-4.2188474935756201e-14
0
ARC
5
194
100
AcDbEntity
8
0
100
AcDbCircle
10
1.9999999999996831
20
101.72500000000126
30
-4.2188474935755949e-14
40
0.50000000000011369
210
1.4540857327596622e-29
220
5.0487097934133321e-28
230
1
100
AcDbArc
50
90.000000000001904
51
180
0
LINE
5
195
100
AcDbEntity
8
0
100
AcDbLine
10
1.4999999999996583
20
101.72500000000134
30
-4.218847493575598e-14
11
1.4999999999997011
21
100.72500000000133
31
-4.1824183005800819e-14
0
ARC
5
196
100
AcDbEntity
8
0
100
AcDbCircle
10
-2.7545457646213339e-13
20
100.7250000000014
30
-3.7747582837255322e-14
40
1.5000000000000002
210
-1.9721522630525323e-30
220
3.8857805861880469e-16
230
1
100
AcDbArc
50
180
51
360
0
LINE
5
197
100
AcDbEntity
8
0
100
AcDbLine
10
-1.5000000000002756
20
100.72500000000146
30
-3.7747582837255348e-14
11
-1.5000000000003042
21
101.72500000000144
31
-4.0332320816460765e-14
0
ARC
5
198
100
AcDbEntity
8
0
100
AcDbCircle
10
-2.0000000000003206
20
101.72500000000156
30
-4.2188474935755949e-14
40
0.50000000000001621
210
-3.7123082385901581e-15
220
4.1633363423522508e-16
230
1
100
AcDbArc
50
0
51
90.00000000000081
0
LINE
5
199
100
AcDbEntity
8
0
100
AcDbLine
10
-2.0000000000003277
20
102.22500000000156
30
-4.2396641752873165e-14
11
-18.400000000000325
21
102.22500000000224
31
-3.9968028886505888e-14
0
ARC
5
200
100
AcDbEntity
8
0
100
AcDbCircle
10
-18.40000000000029
20
100.62500000000225
30
-3.9968028886505635e-14
40
1.6000000000000014
210
7.8766717470139456e-30
220
1.5777218104420238e-28
230
1
100
AcDbArc
50
90.000000000001265
51
180
0
LINE
5
201
100
AcDbEntity
8
0
100
AcDbLine
10
-20.00000000000027
20
100.6250000000023
30
-3.9968028886505661e-14
11
-20.00000000000022
21
98.325000000002206
31
-4.1286418728248009e-14
0
ARC
5
202
100
AcDbEntity
8
0
100
AcDbCircle
10
-18.40000000000024
20
98.325000000002149
30
-3.7747582837255322e-14
40
1.5999999999999814
210
-2.2117724318704429e-15
220
3.6082248300324944e-16
230
1
100
AcDbArc
50
180
51
270.00000000000153
0
LINE
5
203
100
AcDbEntity
8
0
100
AcDbLine
10
-18.400000000000198
20
96.72500000000214
30
-3.7170266864450236e-14
11
-5.0000000000001732
21
96.725000000001685
31
-3.7747582837255158e-14
0
ARC
5
204
100
AcDbEntity
8
0
100
AcDbCircle
10
-5.0000000000001741
20
96.225000000001288
30
-3.7747582837255322e-14
40
0.49999999999569056
210
8.7352249620560897e-31
220
3.6082248300318081e-16
230
1
100
AcDbArc
50
-89.999999999998579
51
89.999999999999901
0
LINE
5
205
100
AcDbEntity
8
0
100
AcDbLine
10
-5.0000000000001616
20
95.725000000005593
30
-3.7567171595755287e-14
11
-35.450787466087178
21
95.72500000000332
31
-4.2188474935755002e-14
0
ARC
5
206
100
AcDbEntity
8
0
100
AcDbCircle
10
-35.450787466087078
20
94.625000000003183
30
-4.2188474935755797e-14
40
1.1000000000001364
210
3.0939052986049246e-17
220
-7.2131998760958494e-28
230
1
100
AcDbArc
50
90.000000000005201
51
136.21227699795605
0
ELLIPSE
5
207
100
AcDbEntity
8
0
100
AcDbEllipse
10
-38.100000000001259
20
98.942640687121639
30
-3.5527136788005009e-14
11
2.8299176134209135e-15
21
4.4194173824158618
31
0.0
40
0.70710678118655734
41
2.5060227740859022
42
3.777162533093541
0
ARC
5
208
100
AcDbEntity
8
0
100
AcDbCircle
10
-40.749212533915099
20
94.625000000003212
30
-3.5527136788005047e-14
40
1.0999999999999011
210
-1.1519852923261138e-15
220
-7.4341795271609457e-16
230
1
100
AcDbArc
50
43.787723002084
51
90.000000000003325
0
LINE
5
209
100
AcDbEntity
8
0
100
AcDbLine
10
-40.749212533915163
20
95.725000000003163
30
-3.5924041519308508e-14
11
-96.18124999999857
21
95.725000000005892
31
-3.5527136788006082e-14
0
ARC
5
210
100
AcDbEntity
8
0
100
AcDbCircle
10
-96.181249999998585
20
96.2250000000016
30
-3.9968028886505635e-14
40
0.50000000000030909
210
1.8219643320114097e-31
220
3.8857805861881071e-16
230
1
100
AcDbArc
50
90.000000000003254
51
270.00000000000159
0
LINE
5
211
100
AcDbEntity
8
0
100
AcDbLine
10
-96.181249999998613
20
96.725000000001913
30
-4.0162317915815164e-14
11
-82.781249999998579
21
96.725000000002439
31
-3.5527136788005211e-14
0
ARC
5
212
100
AcDbEntity
8
0
100
AcDbCircle
10
-82.781249999998522
20
98.325000000002433
30
-3.7747582837255322e-14
40
1.5999999999999837
210
3.3918326083040206e-29
220
1.3877787807813317e-15
230
1
100
AcDbArc
50
-90.000000000002032
51
0
0
LINE
5
213
100
AcDbEntity
8
0
100
AcDbLine
10
-81.181249999998514
20
98.32500000000249
30
-3.7747582837255335e-14
11
-81.181249999998585
21
100.62500000000257
31
-3.6359804056473877e-14
0
ARC
5
214
100
AcDbEntity
8
0
100
AcDbCircle
10
-82.781249999998593
20
100.62500000000254
30
-3.7747582837255322e-14
40
1.6000000000000014
210
-8.6736173798841134e-16
220
3.8857805861878541e-16
230
1
100
AcDbArc
50
0
51
89.999999999997456
0
LINE
5
215
100
AcDbEntity
8
0
100
AcDbLine
10
-82.781249999998522
20
102.22500000000252
30
-3.8369307731045406e-14
11
-99.181249999998542
21
102.22500000000183
31
-3.9968028886505351e-14
0
ARC
5
216
100
AcDbEntity
8
0
100
AcDbCircle
10
-99.181249999998528
20
101.72500000000183
30
-3.9968028886505635e-14
40
0.50000000000000711
210
1.4086942658677675e-29
220
-5.6797985175911989e-28
230
1
100
AcDbArc
50
90.000000000001634
51
180
0
LINE
5
217
100
AcDbEntity
8
0
100
AcDbLine
10
-99.681249999998528
20
101.72500000000181
30
-3.9968028886505629e-14
11
-99.681249999998514
21
100.7250000000017
31
-3.9586389721790738e-14
0
ARC
5
218
100
AcDbEntity
8
0
100
AcDbCircle
10
-101.1812499999985
20
100.72500000000169
30
-3.7747582837255322e-14
40
1.4999999999999858
210
1.1210387714598537e-44
220
3.8857805861880469e-16
230
1
100
AcDbArc
50
-180
51
0
0
LINE
5
219
100
AcDbEntity
8
0
100
AcDbLine
10
-102.68124999999849
20
100.72500000000154
30
-3.7747582837255266e-14
11
-102.68124999999853
21
101.72500000000163
31
-3.812922200197022e-14
0
ARC
5
220
100
AcDbEntity
8
0
100
AcDbCircle
10
-103.18124999999851
20
101.72500000000164
30
-3.9968028886505635e-14
40
0.49999999999998934
210
-3.6776137690708949e-15
220
3.8857805861893549e-16
230
1
100
AcDbArc
50
0
51
89.999999999991857
0
LINE
5
221
100
AcDbEntity
8
0
100
AcDbLine
10
-103.18124999999844
20
102.22500000000167
30
-4.016231791581505e-14
11
-119.58124999999853
21
102.22500000000093
31
-3.9968028886505351e-14
0
ARC
5
222
100
AcDbEntity
8
0
100
AcDbCircle
10
-119.58124999999851
20
100.62500000000092
30
-3.7747582837255322e-14
40
1.6000000000000014
210
-2.1610086073525112e-29
220
1.387778780781267e-15
230
1
100
AcDbArc
50
90.000000000001009
51
180
0
LINE
5
223
100
AcDbEntity
8
0
100
AcDbLine
10
-121.1812499999985
20
100.62500000000058
30
-3.774758283725519e-14
11
-121.18124999999853
21
98.325000000000884
31
-3.6845526629747383e-14
0
ARC
5
224
100
AcDbEntity
8
0
100
AcDbCircle
10
-119.58124999999853
20
98.325000000000927
30
-3.7747582837255322e-14
40
1.6000000000000014
210
5.6378512969245323e-16
220
3.8857805861881731e-16
230
1
100
AcDbArc
50
180
51
269.99999999999744
0
LINE
5
225
100
AcDbEntity
8
0
100
AcDbLine
10
-119.5812499999986
20
96.725000000000918
30
-3.7125857943465232e-14
11
-106.18124999999858
21
96.725000000001444
31
-3.552713678800523e-14
0
ARC
5
226
100
AcDbEntity
8
0
100
AcDbCircle
10
-106.18124999999858
20
96.225000000001458
30
-3.7747582837255322e-14
40
0.50000000000014921
210
1.6623834014265325e-30
220
3.6082248300318179e-16
230
1
100
AcDbArc
50
-89.99999999999838
51
90
0
LINE
5
227
100
AcDbEntity
8
0
100
AcDbLine
10
-106.18124999999857
20
95.725000000001316
30
-3.7567171595753678e-14
11
-130.70078746608627
21
95.725000000000932
31
-3.9968028886503616e-14
0
ARC
5
228
100
AcDbEntity
8
0
100
AcDbCircle
10
-130.70078746608621
20
94.625000000000853
30
-3.3306690738754671e-14
40
1.1000000000000831
210
1.1732513751545635e-17
220
6.0557619524985868e-15
230
1
100
AcDbArc
50
90.00000000000297
51
136.2122769979535
0
ELLIPSE
5
229
100
AcDbEntity
8
0
100
AcDbEllipse
10
-133.35000000000088
20
98.94264068711928
30
-3.5527136788005009e-14
11
4.8144432544637619e-15
21
4.4194173824158707
31
0.0
40
0.70710678118655579
41
2.5060227740860386
42
3.7771625330936791
0
LWPOLYLINE
5
230
100
AcDbEntity
8
0
100
AcDbPolyline
90
12
70
1
43
0.0
10
15.499999999999748
20
99.725000000000605
10
4.242640687119728
20
99.725000000001117
42
0.31783724519575152
10
3.7712361663279492
20
99.391666666668186
42
-0.70710678118655101
10
-3.7712361663284488
20
99.391666666668044
42
0.31783724519580536
10
-4.2426406871192608
20
99.725000000001501
10
-15.500000000000252
20
99.72500000000241
42
-0.99999999999999989
10
-15.500000000000277
20
100.72500000000161
10
-3.8729833462072971
20
100.72500000000082
42
-0.34199871311963742
10
-2.9047375096555172
20
99.975000000000946
42
0.77459666924140114
10
2.904737509655861
20
99.97500000000116
42
-0.34199871311961128
10
3.8729833462077097
20
100.72500000000113
10
15.499999999999751
20
100.72500000000136
42
-0.99999999999999989
0
LWPOLYLINE
5
231
100
AcDbEntity
8
0
100
AcDbPolyline
90
12
70
1
43
0.0
10
97.41001383366843
20
99.391666666668485
42
0.7071067811867664
10
104.95248616632293
20
99.391666666666296
42
-0.31783724519583378
10
105.42389068711573
20
99.725000000000989
10
116.68124999999677
20
99.72500000000079
42
0.99999999999999989
10
116.68124999999671
20
100.72499999999741
10
105.05423334620372
20
100.72499999999911
42
0.34199871311967051
10
104.08598750965282
20
99.974999999998815
42
-0.77459666924144943
10
98.276512490340551
20
99.974999999998886
42
0.34199871311967156
10
97.308266653788692
20
100.72500000000116
10
85.681249999995714
20
100.72499999999795
42
0.99999999999999989
10
85.681249999995742
20
99.72499999999792
10
96.93860931287675
20
99.725000000000506
42
-0.31783724519439338
0
LWPOLYLINE
5
232
100
AcDbEntity
8
0
100
AcDbPolyline
90
12
70
1
43
0.0
10
-85.681249999998471
20
99.72500000000187
10
-96.938609312879279
20
99.725000000001685
42
0.31783724519576256
10
-97.410013833670192
20
99.391666666668343
42
-0.70710678118652348
10
-104.95248616632672
20
99.391666666668087
42
0.31783724519581574
10
-105.42389068711776
20
99.725000000001472
10
-116.68124999999858
20
99.725000000000904
42
-0.99999999999999989
10
-116.68124999999861
20
100.72500000000174
10
-105.05423334620589
20
100.7250000000014
42
-0.3419987131195944
10
-104.08598750965402
20
99.975000000001515
42
0.77459666924140347
10
-98.276512490343094
20
99.975000000001288
42
-0.34199871311974123
10
-97.30826665379081
20
100.72500000000116
10
-85.681249999998471
20
100.72500000000269
42
-0.99999999999999989
0
LWPOLYLINE
5
233
100
AcDbEntity
8
0
100
AcDbPolyline
90
20
70
1
43
0.0
10
-146.99374999999969
20
36.050000000000523
10
-112.56249999999967
20
36.050000000001383
42
-0.41421356237307161
10
-112.06249999999966
20
35.550000000001404
10
-112.06249999999933
20
22.550000000001404
42
-0.41421356237310542
10
-112.56249999999932
20
22.050000000001361
10
-115.53074999999933
20
22.050000000001294
10
-115.53074999999929
20
20.550000000001312
42
-0.41421356237310542
10
-116.0307499999993
20
20.050000000001297
10
-122.03074999999927
20
20.050000000001155
42
-0.41421356237307944
10
-122.5307499999993
20
20.550000000001134
10
-122.53074999999933
20
22.050000000001138
10
-139.40674999999931
20
22.050000000000708
10
-139.40674999999928
20
20.550000000000715
42
-0.41421356237310542
10
-139.90674999999928
20
20.050000000000701
10
-145.90674999999931
20
20.050000000000566
42
-0.41421356237306384
10
-146.40674999999931
20
20.550000000000558
10
-146.40674999999933
20
22.050000000000544
10
-146.99374999999932
20
22.050000000000523
42
-0.41421356237308982
10
-147.49374999999935
20
22.550000000000505
10
-147.49374999999964
20
35.550000000000509
42
-0.41421356237311585
0
LWPOLYLINE
5
234
100
AcDbEntity
8
0
100
AcDbPolyline
90
8
70
1
43
0.0
10
-106.51249999999968
20
36.050000000001525
10
-93.512499999999676
20
36.050000000001859
42
-0.41421356237308982
10
-93.012499999999676
20
35.55000000000188
10
-93.012499999999321
20
22.550000000001873
42
-0.41421356237310025
10
-93.512499999999307
20
22.050000000001837
10
-106.51249999999933
20
22.050000000001528
42
-0.414213562373069
10
-107.01249999999932
20
22.550000000001511
10
-107.01249999999966
20
35.550000000001518
42
-0.41421356237312623
0
LWPOLYLINE
5
235
100
AcDbEntity
8
0
100
AcDbPolyline
90
8
70
1
43
0.0
10
-87.462499999999679
20
36.050000000002022
42
0.41421356237310802
10
-87.962499999999693
20
35.550000000002001
10
-87.962499999999324
20
22.550000000001987
42
0.41421356237310025
10
-87.462499999999324
20
22.050000000002004
10
-74.462499999999338
20
22.050000000002321
42
0.41421356237310802
10
-73.962499999999352
20
22.550000000002353
10
-73.962499999999679
20
35.550000000002349
42
0.41421356237307683
10
-74.462499999999665
20
36.050000000002328
0
LWPOLYLINE
5
236
100
AcDbEntity
8
0
100
AcDbPolyline
90
8
70
1
43
0.0
10
-68.412499999999696
20
36.05000000000247
10
-55.412499999999696
20
36.050000000002818
42
-0.41421356237310802
10
-54.91249999999966
20
35.550000000002825
10
-54.912499999999334
20
22.550000000002825
42
-0.41421356237312101
10
-55.412499999999341
20
22.05000000000279
10
-68.412499999999326
20
22.050000000002473
42
-0.41421356237310802
10
-68.912499999999369
20
22.55000000000247
10
-68.912499999999667
20
35.550000000002477
42
-0.41421356237311063
0
LWPOLYLINE
5
237
100
AcDbEntity
8
0
100
AcDbPolyline
90
8
70
1
43
0.0
10
-49.362499999999685
20
36.050000000002953
10
-36.362499999999692
20
36.050000000003301
42
-0.41421356237309243
10
-35.86249999999967
20
35.550000000003308
10
-35.862499999999351
20
22.550000000003301
42
-0.41421356237309764
10
-36.362499999999343
20
22.050000000003269
10
-49.362499999999315
20
22.050000000002953
42
-0.41421356237310802
10
-49.862499999999351
20
22.550000000002946
10
-49.862499999999656
20
35.550000000002946
42
-0.41421356237311585
0
LWPOLYLINE
5
238
100
AcDbEntity
8
0
100
AcDbPolyline
90
8
70
1
43
0.0
10
-30.312499999999673
20
36.050000000003436
10
-17.31249999999968
20
36.050000000003777
42
-0.4142135623730937
10
-16.812499999999655
20
35.550000000003784
10
-16.812499999999336
20
22.550000000003763
42
-0.41421356237309115
10
-17.312499999999325
20
22.050000000003749
10
-30.312499999999318
20
22.050000000003429
42
-0.41421356237309243
10
-30.812499999999339
20
22.550000000003422
10
-30.812499999999645
20
35.550000000003422
42
-0.41421356237308982
0
LWPOLYLINE
5
239
100
AcDbEntity
8
0
100
AcDbPolyline
90
8
70
1
43
0.0
10
-11.262499999999688
20
36.050000000003934
42
0.41421356237309503
10
-11.762499999999683
20
35.550000000003912
10
-11.76249999999936
20
22.550000000003894
42
0.41421356237309115
10
-11.262499999999338
20
22.050000000003905
10
1.7375000000006651
20
22.050000000004218
42
0.41421356237309115
10
2.2375000000006451
20
22.550000000004236
10
2.2375000000003391
20
35.550000000004253
42
0.41421356237309148
10
1.737500000000316
20
36.050000000004225
0
LWPOLYLINE
5
240
100
AcDbEntity
8
0
100
AcDbPolyline
90
8
70
1
43
0.0
10
7.7875000000003194
20
36.050000000004367
10
20.787500000000328
20
36.050000000004715
42
-0.41421356237310025
10
21.287500000000364
20
35.550000000004715
10
21.287500000000669
20
22.550000000004715
42
-0.41421356237309764
10
20.787500000000673
20
22.05000000000468
10
7.7875000000006533
20
22.05000000000436
42
-0.41421356237308071
10
7.2875000000006498
20
22.550000000004356
10
7.2875000000003727
20
35.550000000004374
42
-0.41421356237307488
0
LWPOLYLINE
5
241
100
AcDbEntity
8
0
100
AcDbPolyline
90
8
70
1
43
0.0
10
40.337500000000375
20
35.550000000005198
10
40.337500000000681
20
22.550000000005195
42
-0.41421356237310802
10
39.837500000000688
20
22.050000000005163
10
26.837500000000666
20
22.050000000004832
42
-0.41421356237308204
10
26.337500000000659
20
22.550000000004825
10
26.337500000000354
20
35.550000000004843
42
-0.41421356237309243
10
26.83750000000035
20
36.050000000004871
10
39.837500000000333
20
36.050000000005191
42
-0.41421356237310542
0
LWPOLYLINE
5
242
100
AcDbEntity
8
0
100
AcDbPolyline
90
8
70
1
43
0.0
10
45.887500000000301
20
36.050000000005312
10
58.887500000000301
20
36.05000000000566
42
-0.41421356237311846
10
59.387500000000351
20
35.550000000005667
10
59.387500000000664
20
22.550000000005667
42
-0.41421356237312101
10
58.887500000000657
20
22.050000000005632
10
45.887500000000649
20
22.050000000005316
42
-0.41421356237309764
10
45.387500000000635
20
22.550000000005312
10
45.387500000000351
20
35.550000000005312
42
-0.41421356237310542
0
LWPOLYLINE
5
243
100
AcDbEntity
8
0
100
AcDbPolyline
90
8
70
1
43
0.0
10
78.437500000000369
20
35.55000000000615
10
78.437500000000682
20
22.550000000006143
42
-0.41421356237311585
10
77.937500000000668
20
22.050000000006122
10
64.937500000000654
20
22.050000000005795
42
-0.41421356237309764
10
64.437500000000639
20
22.550000000005788
10
64.437500000000341
20
35.550000000005788
42
-0.41421356237312101
10
64.937500000000341
20
36.050000000005824
10
77.937500000000313
20
36.050000000006136
42
-0.41421356237311324
0
LWPOLYLINE
5
244
100
AcDbEntity
8
0
100
AcDbPolyline
90
8
70
1
43
0.0
10
91.131250000000335
20
36.050000000006442
10
104.13125000000035
20
36.050000000006776
42
-0.41421356237311846
10
104.63125000000039
20
35.550000000006804
10
104.63125000000069
20
22.550000000006793
42
-0.41421356237310025
10
104.1312500000007
20
22.050000000006762
10
91.131250000000676
20
22.050000000006445
42
-0.41421356237310281
10
90.631250000000676
20
22.550000000006428
10
90.631250000000392
20
35.550000000006456
42
-0.41421356237309503
0
LWPOLYLINE
5
245
100
AcDbEntity
8
0
100
AcDbPolyline
90
8
70
1
43
0.0
10
117.32500000000036
20
36.05000000000711
10
130.32500000000036
20
36.050000000007444
42
-0.41421356237311846
10
130.82500000000041
20
35.550000000007465
10
130.8250000000007
20
22.550000000007458
42
-0.41421356237310025
10
130.32500000000073
20
22.050000000007426
10
117.3250000000007
20
22.050000000007103
42
-0.41421356237310281
10
116.82500000000068
20
22.550000000007088
10
116.8250000000004
20
35.550000000007095
42
-0.41421356237310542
0
LWPOLYLINE
5
246
100
AcDbEntity
8
0
100
AcDbPolyline
90
8
70
1
43
0.0
10
136.37500000000028
20
36.050000000007579
10
149.37500000000031
20
36.05000000000792
42
-0.41421356237311846
10
149.87500000000034
20
35.550000000007948
10
149.87500000000065
20
22.550000000007913
42
-0.41421356237308982
10
149.37500000000065
20
22.050000000007898
10
136.37500000000063
20
22.050000000007582
42
-0.41421356237310281
10
135.87500000000063
20
22.550000000007564
10
135.87500000000034
20
35.550000000007572
42
-0.41421356237310542
0
LWPOLYLINE
5
247
100
AcDbEntity
8
0
100
AcDbPolyline
90
8
70
1
43
0.0
10
-146.99374999999921
20
17.000000000000522
10
-131.61249999999922
20
17.000000000000895
42
-0.41421356237310153
10
-131.11249999999922
20
16.500000000000913
10
-131.11249999999885
20
3.5000000000009224
42
-0.41421356237311224
10
-131.61249999999885
20
3.0000000000008917
10
-146.99374999999887
20
3.0000000000005334
42
-0.4142135623730866
10
-147.4937499999989
20
3.500000000000508
10
-147.49374999999921
20
16.500000000000497
42
-0.41421356237311324
0
LWPOLYLINE
5
248
100
AcDbEntity
8
0
100
AcDbPolyline
90
8
70
1
43
0.0
10
-123.18124999999922
20
17.000000000001116
10
-107.79999999999923
20
17.000000000001492
42
-0.41421356237310153
10
-107.29999999999922
20
16.50000000000151
10
-107.29999999999887
20
3.5000000000015219
42
-0.41421356237309859
10
-107.79999999999886
20
3.0000000000014881
10
-123.18124999999888
20
3.0000000000011218
42
-0.41421356237307
10
-123.68124999999887
20
3.500000000001104
10
-123.68124999999921
20
16.500000000001094
42
-0.41421356237309631
0
LWPOLYLINE
5
249
100
AcDbEntity
8
0
100
AcDbPolyline
90
8
70
1
43
0.0
10
-99.36874999999921
20
17.000000000001712
10
-83.987499999999216
20
17.000000000002089
42
-0.41421356237310153
10
-83.487499999999216
20
16.500000000002107
10
-83.487499999998846
20
3.500000000002117
42
-0.41421356237311358
10
-83.98749999999886
20
3.0000000000020846
10
-99.368749999998855
20
3.0000000000017168
42
-0.41421356237308038
10
-99.868749999998855
20
3.5000000000016991
10
-99.86874999999921
20
16.500000000001688
42
-0.41421356237312362
0
LWPOLYLINE
5
250
100
AcDbEntity
8
0
100
AcDbPolyline
90
8
70
1
43
0.0
10
31.568750000001135
20
4.0000000000049667
10
25.568750000001121
20
4.0000000000048077
42
-0.41421356237310802
10
25.068750000001078
20
4.5000000000048015
10
25.068750000000747
20
18.500000000004817
42
-0.41421356237308982
10
25.568750000000733
20
19.000000000004839
10
31.568750000000762
20
19.000000000004992
42
-0.41421356237308721
10
32.068750000000769
20
18.500000000004995
10
32.068750000001103
20
4.5000000000049951
42
-0.41421356237308948
0
LWPOLYLINE
5
251
100
AcDbEntity
8
0
100
AcDbPolyline
90
8
70
1
43
0.0
10
-27.931249999999213
20
17.000000000003485
10
-3.0249999999992161
20
17.000000000004121
42
-0.41421356237310053
10
-2.5249999999991912
20
16.500000000004128
10
-2.524999999998871
20
3.5000000000041243
42
-0.41421356237309342
10
-3.0249999999988657
20
3.0000000000041087
10
-27.931249999998858
20
3.0000000000034794
42
-0.41421356237309764
10
-28.431249999998883
20
3.5000000000034732
10
-28.431249999999196
20
16.50000000000346
42
-0.41421356237309764
0
LWPOLYLINE
5
252
100
AcDbEntity
8
0
100
AcDbPolyline
90
8
70
1
43
0.0
10
-63.674999999998875
20
4.0000000000026024
10
-74.431249999998883
20
4.000000000002327
42
-0.41421356237309276
10
-74.931249999998897
20
4.5000000000023217
10
-74.931249999999253
20
18.50000000000232
42
-0.41421356237311452
10
-74.431249999999253
20
19.000000000002352
10
-63.674999999999251
20
19.000000000002618
42
-0.41421356237310153
10
-63.174999999999237
20
18.500000000002629
10
-63.174999999998896
20
4.5000000000026308
42
-0.41421356237309115
0
LWPOLYLINE
5
253
100
AcDbEntity
8
0
100
AcDbPolyline
90
14
70
1
43
0.0
10
43.506250000000804
20
17.000000000005269
10
44.12500000000081
20
17.000000000005283
10
44.125000000000739
20
18.500000000005294
42
-0.41421356237311452
10
44.625000000000753
20
19.000000000005311
10
50.625000000000774
20
19.000000000005461
42
-0.41421356237309631
10
51.125000000000782
20
18.500000000005471
10
51.125000000000817
20
17.000000000005475
10
56.506250000000776
20
17.000000000005606
42
-0.41421356237310414
10
57.006250000000819
20
16.500000000005603
10
57.006250000001124
20
3.5000000000056031
42
-0.41421356237308332
10
56.506250000001124
20
3.0000000000055893
10
43.506250000001181
20
3.0000000000052589
42
-0.41421356237310514
10
43.006250000001138
20
3.5000000000052656
10
43.006250000000854
20
16.500000000005247
42
-0.41421356237309115
0
LWPOLYLINE
5
254
100
AcDbEntity
8
0
100
AcDbPolyline
90
8
70
1
43
0.0
10
80.31875000000116
20
3.0000000000061915
10
64.937500000001165
20
3.0000000000057865
42
-0.41421356237310514
10
64.437500000001108
20
3.5000000000057927
10
64.437500000000824
20
16.500000000005773
42
-0.41421356237310802
10
64.93750000000081
20
17.000000000005805
10
80.31875000000079
20
17.000000000006182
42
-0.41421356237311974
10
80.818750000000833
20
16.500000000006207
10
80.818750000001131
20
3.5000000000061982
42
-0.41421356237307583
0
LWPOLYLINE
5
255
100
AcDbEntity
8
0
100
AcDbPolyline
90
8
70
1
43
0.0
10
117.32500000000081
20
17.000000000007105
10
130.32500000000081
20
17.000000000007425
42
-0.41421356237311974
10
130.82500000000087
20
16.500000000007446
10
130.82500000000118
20
3.5000000000074571
42
-0.41421356237309664
10
130.32500000000118
20
3.0000000000074269
10
117.32500000000118
20
3.0000000000071054
42
-0.41421356237312557
10
116.82500000000115
20
3.5000000000070934
10
116.82500000000084
20
16.500000000007084
42
-0.41421356237310281
0
LWPOLYLINE
5
256
100
AcDbEntity
8
0
100
AcDbPolyline
90
8
70
1
43
0.0
10
98.275000000000801
20
17.000000000006633
10
111.27500000000082
20
17.000000000006953
42
-0.41421356237311974
10
111.77500000000086
20
16.500000000006974
10
111.77500000000116
20
3.500000000006982
42
-0.41421356237309664
10
111.27500000000117
20
3.0000000000069518
10
98.275000000001171
20
3.0000000000066289
42
-0.41421356237312557
10
97.775000000001143
20
3.5000000000066174
10
97.77500000000083
20
16.500000000006608
42
-0.41421356237310281
0
LWPOLYLINE
5
257
100
AcDbEntity
8
0
100
AcDbPolyline
90
8
70
1
43
0.0
10
136.37500000000077
20
17.000000000007585
10
149.37500000000077
20
17.000000000007901
42
-0.41421356237311974
10
149.8750000000008
20
16.500000000007923
10
149.87500000000111
20
3.5000000000079168
42
-0.41421356237308626
10
149.37500000000111
20
3.0000000000079039
10
136.37500000000114
20
3.0000000000075828
42
-0.41421356237312557
10
135.87500000000108
20
3.5000000000075708
10
135.8750000000008
20
16.50000000000756
42
-0.41421356237310414
0
LWPOLYLINE
5
258
100
AcDbEntity
8
0
100
AcDbPolyline
90
8
70
1
43
0.0
10
136.37499999999983
20
55.100000000007583
10
149.37499999999983
20
55.100000000007903
42
-0.41421356237310542
10
149.87499999999983
20
54.60000000000791
10
149.87500000000017
20
41.60000000000791
42
-0.41421356237310025
10
149.37500000000017
20
41.100000000007896
10
136.37500000000017
20
41.100000000007583
42
-0.41421356237310025
10
135.87500000000014
20
41.600000000007562
10
135.87499999999983
20
54.600000000007569
42
-0.41421356237313667
0
LWPOLYLINE
5
259
100
AcDbEntity
8
0
100
AcDbPolyline
90
8
70
1
43
0.0
10
-111.2750000000011
20
93.200000000001424
10
-98.275000000001086
20
93.200000000001751
42
-0.41421356237312623
10
-97.7750000000011
20
92.700000000001779
10
-97.775000000000773
20
79.700000000001779
42
-0.41421356237313667
10
-98.27500000000073
20
79.200000000001737
10
-111.27500000000076
20
79.20000000000141
42
-0.41421356237307422
10
-111.77500000000074
20
79.700000000001396
10
-111.7750000000011
20
92.70000000000141
42
-0.41421356237311585
0
LWPOLYLINE
5
260
100
AcDbEntity
8
0
100
AcDbPolyline
90
8
70
1
43
0.0
10
-92.225000000001103
20
93.200000000001907
10
-79.225000000001103
20
93.200000000002206
42
-0.41421356237313145
10
-78.725000000001103
20
92.700000000002234
10
-78.725000000000762
20
79.700000000002234
42
-0.41421356237310542
10
-79.225000000000762
20
79.200000000002206
10
-92.225000000000747
20
79.200000000001893
42
-0.41421356237310542
10
-92.725000000000762
20
79.700000000001879
10
-92.725000000001074
20
92.700000000001879
42
-0.41421356237312623
0
LWPOLYLINE
5
261
100
AcDbEntity
8
0
100
AcDbPolyline
90
8
70
1
43
0.0
10
-59.675000000001091
20
92.700000000002717
10
-59.675000000000765
20
79.700000000002717
42
-0.41421356237310542
10
-60.175000000000757
20
79.200000000002689
10
-73.17500000000075
20
79.200000000002376
42
-0.41421356237310025
10
-73.675000000000765
20
79.700000000002362
10
-73.675000000001106
20
92.700000000002348
42
-0.41421356237312623
10
-73.17500000000112
20
93.200000000002376
10
-60.175000000001106
20
93.200000000002689
42
-0.41421356237309503
0
LWPOLYLINE
5
262
100
AcDbEntity
8
0
100
AcDbPolyline
90
8
70
1
43
0.0
10
-40.625000000001066
20
92.700000000003172
10
-40.625000000000753
20
79.700000000003172
42
-0.41421356237310025
10
-41.125000000000746
20
79.200000000003158
10
-54.125000000000739
20
79.200000000002831
42
-0.41421356237308982
10
-54.625000000000767
20
79.700000000002831
10
-54.625000000001087
20
92.700000000002831
42
-0.41421356237313145
10
-54.125000000001087
20
93.200000000002845
10
-41.125000000001094
20
93.200000000003172
42
-0.41421356237309503
0
LWPOLYLINE
5
263
100
AcDbEntity
8
0
100
AcDbPolyline
90
8
70
1
43
0.0
10
-35.07500000000109
20
93.200000000003328
10
-22.075000000001118
20
93.200000000003655
42
-0.41421356237309503
10
-21.575000000001094
20
92.700000000003669
10
-21.575000000000784
20
79.700000000003669
42
-0.41421356237310025
10
-22.075000000000774
20
79.200000000003641
10
-35.075000000000735
20
79.2000000000033
42
-0.41421356237311324
10
-35.575000000000763
20
79.7000000000033
10
-35.575000000001069
20
92.7000000000033
42
-0.41421356237308982
0
LWPOLYLINE
5
264
100
AcDbEntity
8
0
100
AcDbPolyline
90
8
70
1
43
0.0
10
16.524999999998911
20
92.700000000004636
10
16.524999999999245
20
79.700000000004636
42
-0.41421356237311585
10
16.024999999999253
20
79.200000000004593
10
3.0249999999992538
20
79.200000000004266
42
-0.41421356237309176
10
2.5249999999992481
20
79.700000000004266
10
2.5249999999989341
20
92.700000000004252
42
-0.41421356237309115
10
3.0249999999989168
20
93.20000000000428
10
16.024999999998908
20
93.200000000004621
42
-0.41421356237308204
0
LWPOLYLINE
5
265
100
AcDbEntity
8
0
100
AcDbPolyline
90
8
70
1
43
0.0
10
-2.5250000000010804
20
92.700000000004138
10
-2.5250000000007731
20
79.700000000004138
42
-0.41421356237310347
10
-3.0250000000007593
20
79.20000000000411
10
-16.025000000000741
20
79.200000000003769
42
-0.41421356237310802
10
-16.525000000000762
20
79.700000000003769
10
-16.525000000001079
20
92.700000000003769
42
-0.41421356237309115
10
-16.025000000001096
20
93.200000000003783
10
-3.0250000000011035
20
93.200000000004124
42
-0.41421356237309276
0
LWPOLYLINE
5
266
100
AcDbEntity
8
0
100
AcDbPolyline
90
8
70
1
43
0.0
10
22.074999999998909
20
93.200000000004735
10
35.07499999999888
20
93.200000000005076
42
-0.41421356237310025
10
35.574999999998887
20
92.700000000005076
10
35.574999999999214
20
79.700000000005076
42
-0.4142135623730846
10
35.074999999999228
20
79.200000000005076
10
22.074999999999246
20
79.200000000004735
42
-0.41421356237311063
10
21.574999999999239
20
79.700000000004735
10
21.574999999998909
20
92.700000000004721
42
-0.41421356237311063
0
LWPOLYLINE
5
267
100
AcDbEntity
8
0
100
AcDbPolyline
90
8
70
1
43
0.0
10
41.124999999998913
20
93.200000000005218
42
0.41421356237313145
10
40.62499999999892
20
92.700000000005218
10
40.624999999999254
20
79.700000000005218
42
0.41421356237307944
10
41.124999999999261
20
79.200000000005218
10
54.124999999999275
20
79.200000000005545
42
0.41421356237310025
10
54.624999999999218
20
79.700000000005559
10
54.624999999998934
20
92.700000000005573
42
0.41421356237310025
10
54.124999999998934
20
93.200000000005531
0
LWPOLYLINE
5
268
100
AcDbEntity
8
0
100
AcDbPolyline
90
8
70
1
43
0.0
10
60.174999999998903
20
93.200000000005701
10
73.174999999998903
20
93.200000000006042
42
-0.4142135623730846
10
73.674999999998917
20
92.700000000006057
10
73.674999999999244
20
79.700000000006042
42
-0.41421356237310542
10
73.174999999999258
20
79.200000000006014
10
60.174999999999237
20
79.200000000005673
42
-0.41421356237307944
10
59.67499999999923
20
79.700000000005673
10
59.674999999998903
20
92.700000000005673
42
-0.41421356237310025
0
LWPOLYLINE
5
269
100
AcDbEntity
8
0
100
AcDbPolyline
90
8
70
1
43
0.0
10
79.224999999998886
20
93.20000000000617
42
0.414213562373069
10
78.724999999998914
20
92.700000000006185
10
78.724999999999241
20
79.700000000006156
42
0.41421356237307944
10
79.224999999999255
20
79.200000000006156
10
92.22499999999927
20
79.200000000006483
42
0.41421356237312623
10
92.724999999999241
20
79.700000000006497
10
92.724999999998929
20
92.700000000006511
42
0.4142135623730846
10
92.224999999998914
20
93.200000000006483
0
LWPOLYLINE
5
270
100
AcDbEntity
8
0
100
AcDbPolyline
90
20
70
1
43
0.0
10
105.86199999999923
20
79.200000000006824
10
105.86199999999927
20
77.700000000006824
42
-0.41421356237312623
10
105.36199999999931
20
77.20000000000681
10
99.361999999999313
20
77.200000000006654
42
-0.41421356237312623
10
98.861999999999284
20
77.700000000006639
10
98.861999999999242
20
79.200000000006639
10
98.274999999999267
20
79.200000000006625
42
-0.41421356237310542
10
97.774999999999253
20
79.700000000006611
10
97.774999999998926
20
92.700000000006611
42
-0.41421356237312623
10
98.274999999998897
20
93.200000000006625
10
130.32499999999894
20
93.200000000007449
42
-0.41421356237310542
10
130.82499999999894
20
92.700000000007464
10
130.82499999999925
20
79.700000000007464
42
-0.41421356237312623
10
130.32499999999931
20
79.200000000007435
10
129.73799999999923
20
79.200000000007421
10
129.73799999999923
20
77.700000000007435
42
-0.41421356237313145
10
129.23799999999926
20
77.200000000007407
10
123.23799999999932
20
77.20000000000725
42
-0.41421356237312623
10
122.73799999999926
20
77.700000000007236
10
122.73799999999923
20
79.200000000007236
0
LWPOLYLINE
5
271
100
AcDbEntity
8
0
100
AcDbPolyline
90
8
70
1
43
0.0
10
136.37499999999886
20
93.200000000007591
42
0.41421356237311585
10
135.87499999999889
20
92.700000000007577
10
135.8749999999992
20
79.700000000007563
42
0.41421356237310542
10
136.3749999999992
20
79.200000000007591
10
149.37499999999923
20
79.200000000007918
42
0.41421356237314189
10
149.8749999999992
20
79.700000000007961
10
149.87499999999889
20
92.700000000007947
42
0.41421356237310542
10
149.37499999999889
20
93.200000000007918
0
LWPOLYLINE
5
272
100
AcDbEntity
8
0
100
AcDbPolyline
90
8
70
1
43
0.0
10
-144.61250000000064
20
74.150000000000588
10
-131.61250000000064
20
74.150000000000929
42
-0.41421356237307422
10
-131.11250000000064
20
73.650000000000929
10
-131.11250000000035
20
60.650000000000929
42
-0.41421356237312101
10
-131.6125000000003
20
60.150000000000922
10
-144.6125000000003
20
60.150000000000603
42
-0.41421356237307944
10
-145.1125000000003
20
60.650000000000581
10
-145.11250000000061
20
73.650000000000574
42
-0.41421356237313145
0
LWPOLYLINE
5
273
100
AcDbEntity
8
0
100
AcDbPolyline
90
8
70
1
43
0.0
10
-120.80000000000064
20
74.150000000001185
10
-107.80000000000065
20
74.150000000001512
42
-0.41421356237310542
10
-107.30000000000064
20
73.650000000001526
10
-107.30000000000032
20
60.650000000001512
42
-0.41421356237311585
10
-107.80000000000028
20
60.150000000001512
10
-120.8000000000003
20
60.150000000001185
42
-0.414213562373069
10
-121.3000000000003
20
60.650000000001171
10
-121.30000000000059
20
73.650000000001171
42
-0.41421356237313145
0
LWPOLYLINE
5
274
100
AcDbEntity
8
0
100
AcDbPolyline
90
8
70
1
43
0.0
10
-101.75000000000063
20
74.150000000001654
10
-88.750000000000639
20
74.150000000001967
42
-0.41421356237310025
10
-88.250000000000625
20
73.650000000001995
10
-88.250000000000313
20
60.650000000001995
42
-0.41421356237313667
10
-88.750000000000284
20
60.150000000001981
10
-101.75000000000028
20
60.150000000001647
42
-0.414213562373069
10
-102.25000000000028
20
60.650000000001626
10
-102.25000000000063
20
73.65000000000164
42
-0.41421356237314705
0
LWPOLYLINE
5
275
100
AcDbEntity
8
0
100
AcDbPolyline
90
8
70
1
43
0.0
10
-82.700000000000642
20
74.150000000002123
10
-69.700000000000628
20
74.15000000000245
42
-0.41421356237310542
10
-69.2000000000006
20
73.65000000000245
10
-69.200000000000287
20
60.650000000002464
42
-0.41421356237310025
10
-69.700000000000273
20
60.15000000000245
10
-82.700000000000273
20
60.15000000000213
42
-0.41421356237310025
10
-83.200000000000287
20
60.650000000002109
10
-83.200000000000614
20
73.650000000002109
42
-0.41421356237313145
0
LWPOLYLINE
5
276
100
AcDbEntity
8
0
100
AcDbPolyline
90
8
70
1
43
0.0
10
-44.60000000000062
20
74.150000000003075
10
-31.600000000000634
20
74.150000000003416
42
-0.41421356237311846
10
-31.100000000000612
20
73.650000000003416
10
-31.100000000000293
20
60.650000000003423
42
-0.41421356237308721
10
-31.600000000000286
20
60.150000000003409
10
-44.600000000000279
20
60.150000000003075
42
-0.41421356237309503
10
-45.100000000000293
20
60.650000000003075
10
-45.100000000000605
20
73.650000000003061
42
-0.41421356237309503
0
LWPOLYLINE
5
277
100
AcDbEntity
8
0
100
AcDbPolyline
90
8
70
1
43
0.0
10
-50.150000000000603
20
73.650000000002919
10
-50.15000000000029
20
60.650000000002926
42
-0.4142135623730846
10
-50.650000000000276
20
60.150000000002933
10
-63.650000000000276
20
60.150000000002592
42
-0.41421356237310025
10
-64.150000000000304
20
60.650000000002592
10
-64.150000000000617
20
73.650000000002592
42
-0.41421356237310025
10
-63.650000000000624
20
74.150000000002606
10
-50.650000000000624
20
74.150000000002933
42
-0.41421356237311063
0
LWPOLYLINE
5
278
100
AcDbEntity
8
0
100
AcDbPolyline
90
8
70
1
43
0.0
10
-25.55000000000063
20
74.150000000003558
10
-12.550000000000638
20
74.150000000003871
42
-0.41421356237310936
10
-12.050000000000614
20
73.650000000003871
10
-12.050000000000303
20
60.650000000003885
42
-0.41421356237309503
10
-12.550000000000292
20
60.150000000003878
10
-25.550000000000274
20
60.150000000003544
42
-0.41421356237310281
10
-26.050000000000296
20
60.650000000003537
10
-26.050000000000612
20
73.65000000000353
42
-0.41421356237308721
0
LWPOLYLINE
5
279
100
AcDbEntity
8
0
100
AcDbPolyline
90
8
70
1
43
0.0
10
-6.5000000000006164
20
74.150000000004027
10
6.4999999999993729
20
74.150000000004354
42
-0.41421356237309176
10
6.9999999999993978
20
73.650000000004354
10
6.9999999999997051
20
60.650000000004368
42
-0.41421356237309892
10
6.4999999999997184
20
60.150000000004347
10
-6.5000000000002611
20
60.150000000004027
42
-0.41421356237309176
10
-7.000000000000286
20
60.650000000004027
10
-7.0000000000005933
20
73.650000000004013
42
-0.41421356237308787
0
LWPOLYLINE
5
280
100
AcDbEntity
8
0
100
AcDbPolyline
90
8
70
1
43
0.0
10
12.549999999999377
20
74.150000000004496
10
25.549999999999351
20
74.150000000004837
42
-0.41421356237310802
10
26.049999999999351
20
73.650000000004837
10
26.049999999999688
20
60.650000000004844
42
-0.41421356237308721
10
25.549999999999695
20
60.15000000000483
10
12.549999999999709
20
60.150000000004489
42
-0.41421356237309631
10
12.049999999999708
20
60.650000000004489
10
12.049999999999379
20
73.650000000004482
42
-0.41421356237311063
0
LWPOLYLINE
5
281
100
AcDbEntity
8
0
100
AcDbPolyline
90
8
70
1
43
0.0
10
31.59999999999939
20
74.150000000004979
10
44.599999999999397
20
74.150000000005306
42
-0.41421356237308982
10
45.099999999999405
20
73.650000000005321
10
45.099999999999731
20
60.650000000005306
42
-0.41421356237309503
10
44.599999999999739
20
60.150000000005299
10
31.599999999999724
20
60.150000000004979
42
-0.41421356237309243
10
31.099999999999717
20
60.650000000004979
10
31.099999999999387
20
73.650000000004951
42
-0.41421356237309764
0
LWPOLYLINE
5
282
100
AcDbEntity
8
0
100
AcDbPolyline
90
8
70
1
43
0.0
10
50.649999999999402
20
74.150000000005448
10
63.649999999999409
20
74.150000000005775
42
-0.41421356237308982
10
64.149999999999409
20
73.65000000000579
10
64.14999999999975
20
60.65000000000579
42
-0.41421356237309503
10
63.64999999999975
20
60.150000000005775
10
50.649999999999736
20
60.150000000005441
42
-0.41421356237308982
10
50.149999999999729
20
60.650000000005441
10
50.149999999999402
20
73.650000000005448
42
-0.41421356237309503
0
LWPOLYLINE
5
283
100
AcDbEntity
8
0
100
AcDbPolyline
90
8
70
1
43
0.0
10
69.699999999999378
20
74.150000000005917
10
82.699999999999392
20
74.150000000006258
42
-0.41421356237308982
10
83.199999999999378
20
73.650000000006273
10
83.199999999999676
20
60.650000000006273
42
-0.41421356237313145
10
82.699999999999733
20
60.150000000006251
10
69.699999999999704
20
60.150000000005917
42
-0.4142135623730846
10
69.199999999999704
20
60.650000000005917
10
69.199999999999378
20
73.650000000005917
42
-0.41421356237310025
0
LWPOLYLINE
5
284
100
AcDbEntity
8
0
100
AcDbPolyline
90
8
70
1
43
0.0
10
88.749999999999375
20
74.150000000006401
10
101.74999999999937
20
74.150000000006727
42
-0.41421356237310025
10
102.24999999999939
20
73.650000000006742
10
102.24999999999969
20
60.650000000006735
42
-0.41421356237312101
10
101.74999999999974
20
60.150000000006727
10
88.749999999999716
20
60.150000000006401
42
-0.41421356237310542
10
88.249999999999716
20
60.650000000006386
10
88.249999999999389
20
73.650000000006386
42
-0.41421356237314705
0
LWPOLYLINE
5
285
100
AcDbEntity
8
0
100
AcDbPolyline
90
8
70
1
43
0.0
10
136.37499999999935
20
74.15000000000758
10
149.37499999999932
20
74.150000000007907
42
-0.41421356237310025
10
149.87499999999935
20
73.650000000007921
10
149.87499999999966
20
60.650000000007928
42
-0.41421356237312623
10
149.37499999999969
20
60.150000000007907
10
136.37499999999966
20
60.15000000000758
42
-0.41421356237310542
10
135.87499999999966
20
60.650000000007573
10
135.87499999999932
20
73.65000000000758
42
-0.41421356237313667
0
LWPOLYLINE
5
286
100
AcDbEntity
8
0
100
AcDbPolyline
90
8
70
1
43
0.0
10
-128.73125000000013
20
54.600000000000968
10
-128.73124999999982
20
41.600000000000961
42
-0.41421356237311063
10
-129.23124999999982
20
41.100000000000946
10
-146.99374999999981
20
41.100000000000506
42
-0.41421356237306384
10
-147.49374999999984
20
41.600000000000499
10
-147.49375000000012
20
54.600000000000506
42
-0.41421356237312623
10
-146.99375000000015
20
55.10000000000052
10
-129.23125000000016
20
55.100000000000982
42
-0.41421356237311063
0
LWPOLYLINE
5
287
100
AcDbEntity
8
0
100
AcDbPolyline
90
8
70
1
43
0.0
10
-116.03750000000016
20
55.100000000001288
10
-103.03750000000015
20
55.100000000001621
42
-0.41421356237307422
10
-102.53750000000016
20
54.600000000001636
10
-102.53749999999981
20
41.600000000001614
42
-0.41421356237311063
10
-103.0374999999998
20
41.1000000000016
10
-116.03749999999982
20
41.10000000000128
42
-0.41421356237309503
10
-116.53749999999981
20
41.600000000001273
10
-116.53750000000014
20
54.60000000000128
42
-0.41421356237313145
0
LWPOLYLINE
5
288
100
AcDbEntity
8
0
100
AcDbPolyline
90
8
70
1
43
0.0
10
-96.987500000000153
20
55.100000000001756
10
-83.987500000000182
20
55.100000000002083
42
-0.41421356237307944
10
-83.487500000000153
20
54.600000000002105
10
-83.487499999999812
20
41.600000000002098
42
-0.41421356237311063
10
-83.987499999999812
20
41.100000000002069
10
-96.987499999999784
20
41.100000000001764
42
-0.41421356237310025
10
-97.487499999999798
20
41.600000000001742
10
-97.487500000000125
20
54.600000000001749
42
-0.41421356237313145
0
LWPOLYLINE
5
289
100
AcDbEntity
8
0
100
AcDbPolyline
90
8
70
1
43
0.0
10
-64.437500000000142
20
54.600000000002574
10
-64.437499999999801
20
41.600000000002566
42
-0.4142135623730846
10
-64.937499999999801
20
41.100000000002552
10
-77.937499999999801
20
41.100000000002233
42
-0.41421356237310025
10
-78.437499999999815
20
41.600000000002225
10
-78.437500000000128
20
54.600000000002218
42
-0.41421356237310542
10
-77.937500000000142
20
55.100000000002247
10
-64.937500000000142
20
55.100000000002552
42
-0.41421356237308982
0
LWPOLYLINE
5
290
100
AcDbEntity
8
0
100
AcDbPolyline
90
8
70
1
43
0.0
10
-58.887500000000159
20
55.100000000002716
10
-45.887500000000152
20
55.10000000000305
42
-0.41421356237308982
10
-45.387500000000131
20
54.600000000003057
10
-45.387499999999804
20
41.60000000000305
42
-0.4142135623730846
10
-45.887499999999804
20
41.100000000003035
10
-58.887499999999804
20
41.100000000002701
42
-0.41421356237308982
10
-59.387499999999832
20
41.600000000002701
10
-59.387500000000138
20
54.600000000002701
42
-0.41421356237309503
0
LWPOLYLINE
5
291
100
AcDbEntity
8
0
100
AcDbPolyline
90
8
70
1
43
0.0
10
-39.837500000000148
20
55.100000000003192
10
-26.837500000000158
20
55.100000000003533
42
-0.41421356237311585
10
-26.337500000000134
20
54.600000000003526
10
-26.337499999999817
20
41.600000000003519
42
-0.41421356237310025
10
-26.837499999999807
20
41.100000000003504
10
-39.837499999999793
20
41.100000000003178
42
-0.41421356237311585
10
-40.337499999999821
20
41.600000000003178
10
-40.337500000000126
20
54.600000000003178
42
-0.41421356237309503
0
LWPOLYLINE
5
292
100
AcDbEntity
8
0
100
AcDbPolyline
90
8
70
1
43
0.0
10
-7.2875000000001213
20
54.600000000004002
10
-7.2874999999998025
20
41.600000000004002
42
-0.4142135623731022
10
-7.7874999999997954
20
41.10000000000398
10
-20.787499999999781
20
41.100000000003654
42
-0.41421356237310281
10
-21.287499999999806
20
41.600000000003654
10
-21.287500000000122
20
54.600000000003647
42
-0.41421356237308721
10
-20.787500000000129
20
55.100000000003661
10
-7.7875000000001471
20
55.100000000003995
42
-0.41421356237308526
0
LWPOLYLINE
5
293
100
AcDbEntity
8
0
100
AcDbPolyline
90
8
70
1
43
0.0
10
17.312499999999854
20
55.100000000004606
10
30.312499999999858
20
55.100000000004954
42
-0.41421356237310542
10
30.812499999999865
20
54.600000000004947
10
30.812500000000203
20
41.60000000000494
42
-0.41421356237309764
10
30.31250000000021
20
41.100000000004911
10
17.312500000000188
20
41.100000000004606
42
-0.41421356237309243
10
16.812500000000185
20
41.600000000004592
10
16.812499999999858
20
54.600000000004613
42
-0.4142135623730937
0
LWPOLYLINE
5
294
100
AcDbEntity
8
0
100
AcDbPolyline
90
8
70
1
43
0.0
10
-1.7375000000001588
20
55.100000000004137
10
11.262499999999848
20
55.100000000004471
42
-0.41421356237310675
10
11.762499999999855
20
54.600000000004471
10
11.762500000000189
20
41.600000000004471
42
-0.41421356237309503
10
11.2625000000002
20
41.100000000004464
10
-1.7374999999998209
20
41.100000000004144
42
-0.41421356237309342
10
-2.2374999999998284
20
41.60000000000413
10
-2.2375000000001362
20
54.60000000000413
42
-0.41421356237308787
0
LWPOLYLINE
5
295
100
AcDbEntity
8
0
100
AcDbPolyline
90
8
70
1
43
0.0
10
36.362499999999827
20
55.100000000005096
10
49.362499999999834
20
55.100000000005423
42
-0.41421356237307944
10
49.862499999999841
20
54.600000000005423
10
49.862500000000182
20
41.600000000005423
42
-0.41421356237308982
10
49.362500000000182
20
41.100000000005394
10
36.362500000000168
20
41.100000000005053
42
-0.41421356237310542
10
35.862500000000153
20
41.600000000005068
10
35.862499999999827
20
54.600000000005068
42
-0.41421356237309764
0
LWPOLYLINE
5
296
100
AcDbEntity
8
0
100
AcDbPolyline
90
8
70
1
43
0.0
10
55.412499999999838
20
55.100000000005558
10
68.412499999999852
20
55.100000000005892
42
-0.41421356237307944
10
68.912499999999852
20
54.600000000005899
10
68.912500000000193
20
41.600000000005899
42
-0.41421356237308982
10
68.412500000000193
20
41.100000000005878
10
55.412500000000179
20
41.100000000005544
42
-0.41421356237307944
10
54.912500000000165
20
41.600000000005544
10
54.912499999999838
20
54.600000000005544
42
-0.41421356237310542
0
LWPOLYLINE
5
297
100
AcDbEntity
8
0
100
AcDbPolyline
90
8
70
1
43
0.0
10
74.462499999999849
20
55.100000000006027
10
87.462499999999864
20
55.100000000006368
42
-0.41421356237310542
10
87.962499999999864
20
54.600000000006375
10
87.962500000000205
20
41.600000000006368
42
-0.41421356237311585
10
87.462500000000205
20
41.100000000006347
10
74.46250000000019
20
41.100000000006027
42
-0.41421356237307944
10
73.962500000000176
20
41.60000000000602
10
73.962499999999849
20
54.60000000000602
42
-0.41421356237310025
0
LWPOLYLINE
5
298
100
AcDbEntity
8
0
100
AcDbPolyline
90
40
70
1
43
0.0
10
93.512499999999861
20
55.100000000006517
10
96.480749999999844
20
55.100000000006588
10
96.480749999999844
20
56.600000000006602
42
-0.41421356237311585
10
96.980749999999802
20
57.100000000006602
10
102.98074999999983
20
57.100000000006766
42
-0.41421356237310542
10
103.48074999999983
20
56.60000000000678
10
103.48074999999987
20
55.100000000006766
10
114.44374999999987
20
55.100000000007043
10
114.44374999999974
20
60.150000000007033
10
112.56249999999969
20
60.150000000006983
42
-0.41421356237310542
10
112.06249999999969
20
60.650000000006976
10
112.06249999999937
20
73.650000000006969
42
-0.41421356237313667
10
112.56249999999935
20
74.150000000006997
10
125.56249999999935
20
74.15000000000731
42
-0.41421356237310025
10
126.06249999999937
20
73.650000000007324
10
126.06249999999935
20
73.063000000007321
10
126.9437499999994
20
73.063000000007349
42
-0.41421356237310025
10
127.44374999999943
20
72.563000000007364
10
127.4437499999996
20
66.563000000007349
42
-0.41421356237313145
10
126.94374999999962
20
66.063000000007349
10
126.06249999999955
20
66.063000000007321
10
126.06249999999959
20
64.625000000007319
10
127.9437499999996
20
64.62500000000739
42
-0.41421356237310025
10
128.44374999999962
20
64.125000000007404
10
128.44374999999991
20
51.125000000007397
42
-0.41421356237312623
10
127.94374999999997
20
50.625000000007383
10
127.35674999999998
20
50.625000000007361
10
127.35675000000002
20
48.96883505815309
42
-0.15083409114184554
10
127.44375000000005
20
48.687000000007359
10
127.44375000000018
20
42.687000000007352
42
-0.23117790542199254
10
127.25111714009731
20
42.292632859910036
42
-0.23117790542186856
10
126.85675000000018
20
42.100000000007341
10
120.85675000000022
20
42.100000000007192
42
-0.15083409114188392
10
120.57491494185427
20
42.18700000000733
10
118.91875000000022
20
42.187000000007167
10
118.91875000000022
20
41.600000000007149
42
-0.41421356237312623
10
118.41875000000023
20
41.100000000007107
10
93.512500000000216
20
41.100000000006517
42
-0.41421356237310025
10
93.012500000000188
20
41.600000000006496
10
93.012499999999875
20
54.600000000006489
42
-0.41421356237313667
0
LWPOLYLINE
5
299
100
AcDbEntity
8
0
100
AcDbPolyline
90
8
70
1
43
0.0
10
-149.37500000000111
20
93.200000000000486
10
-136.37500000000108
20
93.200000000000813
42
-0.41421356237304302
10
-135.87500000000108
20
92.700000000000827
10
-135.8750000000008
20
79.700000000000827
42
-0.41421356237314189
10
-136.37500000000077
20
79.200000000000784
10
-149.37500000000074
20
79.200000000000472
42
-0.41421356237307944
10
-149.87500000000077
20
79.700000000000443
10
-149.87500000000108
20
92.700000000000458
42
-0.41421356237313667
0
LWPOLYLINE
5
300
100
AcDbEntity
8
0
100
AcDbPolyline
90
8
70
1
43
0.0
10
-130.3250000000011
20
93.200000000000983
10
-117.3250000000011
20
93.200000000001239
42
-0.41421356237310542
10
-116.8250000000011
20
92.700000000001296
10
-116.82500000000078
20
79.700000000001296
42
-0.41421356237313667
10
-117.32500000000074
20
79.200000000001268
10
-130.32500000000078
20
79.200000000000955
42
-0.414213562373069
10
-130.82500000000076
20
79.700000000000927
10
-130.82500000000107
20
92.700000000000927
42
-0.41421356237314705
0
LWPOLYLINE
5
301
100
AcDbEntity
8
0
100
AcDbPolyline
90
10
70
1
43
0.0
10
-30.95624999999928
20
20.025000000005413
10
7.3712971660550947e-13
20
20.025000000005203
42
-0.4142135623730982
10
0.50000000000076517
20
19.525000000005207
10
0.500000000001108
20
5.0000000000041975
42
-0.99999999999999989
10
-0.49999999999889211
20
5.0000000000041736
10
-0.49999999999924838
20
19.025000000005146
10
-30.456249999999258
20
19.025000000005427
10
-30.456249999998914
20
5.0000000000034328
42
-0.99999999999999989
10
-31.456249999998921
20
5.0000000000034088
10
-31.456250000001262
20
19.525000000003377
42
-0.41421356237311324
0
LWPOLYLINE
5
302
100
AcDbEntity
8
0
100
AcDbPolyline
90
4
70
1
43
0.0
10
-37.431249999998933
20
6.7625000000012294
10
-54.174999999997937
20
6.7625000000004221
42
-0.99999999999999989
10
-54.174999999997972
20
15.762500000001252
10
-37.431249999999174
20
15.762500000001264
42
-0.99999999999999989
0
LWPOLYLINE
5
303
100
AcDbEntity
8
0
100
AcDbPolyline
90
4
70
1
43
0.0
10
6.4750000000008292
20
15.762500000002362
10
16.068750000000811
20
15.762500000002838
42
-0.99999999999999989
10
16.068750000001039
20
6.7625000000023539
10
6.4750000000010708
20
6.7625000000023539
42
-0.99999999999999989
0
LWPOLYLINE
5
304
100
AcDbEntity
8
0
100
AcDbPolyline
90
4
70
1
43
0.0
10
-127.20625000000021
20
61.15000000000083
10
-127.20625000000041
20
73.15000000000083
42
-0.99999999999999989
10
-125.20625000000041
20
73.150000000000887
10
-125.20625000000022
20
61.150000000000865
42
-0.99999999999999989
0
LWPOLYLINE
5
305
100
AcDbEntity
8
0
100
AcDbPolyline
90
4
70
1
43
0.0
10
-80.771874999998786
20
4.0000000000011529
42
0.99999999999999989
10
-78.771874999998829
20
4.0000000000012044
10
-78.771874999999085
20
16.000000000001197
42
0.99999999999999989
10
-80.771874999999099
20
16.000000000001155
0
LWPOLYLINE
5
306
100
AcDbEntity
8
0
100
AcDbPolyline
90
4
70
1
43
0.0
10
109.72812500000067
20
23.050000000006943
10
109.72812500000038
20
35.05000000000684
42
-0.99999999999999989
10
111.72812500000036
20
35.050000000006889
10
111.7281250000007
20
23.050000000006978
42
-0.99999999999999989
0
LWPOLYLINE
5
307
100
AcDbEntity
8
0
100
AcDbPolyline
90
4
70
1
43
0.0
10
-104.58437499999948
20
4.0000000000005658
10
-104.58437499999908
20
16.000000000000551
42
-0.99999999999999989
10
-102.58437499999908
20
16.0000000000006
10
-102.58437499999926
20
4.0000000000006022
42
-0.99999999999999989
0
LWPOLYLINE
5
308
100
AcDbEntity
8
0
100
AcDbPolyline
90
4
70
1
43
0.0
10
-123.63437499999974
20
42.100000000000904
10
-123.63437500000002
20
54.10000000000089
42
-0.99999999999999989
10
-121.63437500000002
20
54.100000000000946
10
-121.63437499999974
20
42.100000000000975
42
-0.99999999999999989
0
LWPOLYLINE
5
309
100
AcDbEntity
8
0
100
AcDbPolyline
90
4
70
1
43
0.0
10
59.721875000001106
20
4.0000000000056479
10
59.721875000000821
20
16.000000000005688
42
-0.99999999999999989
10
61.721875000000814
20
16.000000000005738
10
61.721875000001134
20
4.0000000000057501
42
-0.99999999999999989
0
LWPOLYLINE
5
310
100
AcDbEntity
8
0
100
AcDbPolyline
90
4
70
1
43
0.0
10
83.534375000000665
20
23.050000000006278
10
83.534375000000352
20
35.050000000006193
42
-0.99999999999999989
10
85.534375000000352
20
35.050000000006243
10
85.534375000000693
20
23.050000000006349
42
-0.99999999999999989
0
LWPOLYLINE
5
311
100
AcDbEntity
8
0
100
AcDbPolyline
90
4
70
1
43
0.0
10
-128.39687499999869
20
4.0000000000009734
10
-128.39687499999897
20
16.000000000000995
42
-0.99999999999999989
10
-126.39687499999897
20
16.000000000001041
10
-126.39687499999873
20
4.000000000001033
42
-0.99999999999999989
0
LWPOLYLINE
5
312
100
AcDbEntity
8
0
100
AcDbPolyline
90
12
70
1
43
0.0
10
-95.910013833670291
20
-3.1916666666672522
42
0.70710678118643511
10
-103.45248616632647
20
-3.1916666666675235
42
-0.3178372451960918
10
-103.92389068711768
20
-3.5250000000014166
10
-115.1812499999985
20
-3.5250000000022941
42
0.99999999999999989
10
-115.18124999999849
20
-4.5250000000026924
10
-103.55423334620617
20
-4.5250000000003734
42
0.34199871311978181
10
-102.58598750965382
20
-3.7750000000003956
42
-0.77459666924122317
10
-96.776512490342967
20
-3.7750000000002526
42
0.34199871311968555
10
-95.808266653790952
20
-4.5250000000002082
10
-84.181249999998343
20
-4.5249999999993644
42
0.99999999999999989
10
-84.1812499999984
20
-3.524999999998915
10
-95.43860931287918
20
-3.5250000000003885
42
-0.31783724519560652
0
LWPOLYLINE
5
313
100
AcDbEntity
8
0
100
AcDbPolyline
90
12
70
1
43
0.0
10
103.45248616632756
20
-3.1916666666671634
42
0.70710678118649928
10
95.910013833671258
20
-3.1916666666664
42
-0.31783724519561829
10
95.438609312880303
20
-3.5249999999994652
10
84.181249999999309
20
-3.5249999999982986
42
0.99999999999999989
10
84.181249999999324
20
-4.524999999999757
10
95.80826665379135
20
-4.5249999999994781
42
0.34199871311986374
10
96.776512490344288
20
-3.7749999999996628
42
-0.77459666924134429
10
102.5859875096545
20
-3.7750000000001958
42
0.34199871311993779
10
103.55423334620735
20
-4.5250000000002508
10
115.18124999999939
20
-4.5250000000014969
42
0.99999999999999989
10
115.18124999999934
20
-3.525000000001957
10
103.92389068711834
20
-3.5250000000000719
42
-0.31783724519560552
0
ENDSEC
0
SECTION
2
OBJECTS
0
DICTIONARY
5
C
100
AcDbDictionary
3
ACAD_GROUP
350
D
3
ACAD_MLINESTYLE
350
17
0
DICTIONARY
5
D
100
AcDbDictionary
0
DICTIONARY
5
1A
330
C
100
AcDbDictionary
0
DICTIONARY
5
17
100
AcDbDictionary
0
ENDSEC
0
EOF
