0
SECTION
2
HEADER
9
$INSUNITS
70
4
9
$ACADVER
1
AC1014
9
$HANDSEED
5
FFFF
0
ENDSEC
0
SECTION
2
TABLES
0
TABLE
2
VPORT
5
8
100
AcDbSymbolTable
0
ENDTAB
0
TABLE
2
LTYPE
5
5
100
AcDbSymbolTable
0
LTYPE
5
14
100
AcDbSymbolTableRecord
100
AcDbLinetypeTableRecord
2
BYBLOCK
70
0
0
LTYPE
5
15
100
AcDbSymbolTableRecord
100
AcDbLinetypeTableRecord
2
BYLAYER
70
0
0
ENDTAB
0
TABLE
2
LAYER
5
2
100
AcDbSymbolTable
70
2
0
LAYER
5
50
100
AcDbSymbolTableRecord
100
AcDbLayerTableRecord
2
0
70
0
6
CONTINUOUS
0
ENDTAB
0
TABLE
2
STYLE
5
3
100
AcDbSymbolTable
70
1
0
STYLE
5
11
100
AcDbSymbolTableRecord
100
AcDbTextStyleTableRecord
2
STANDARD
70
0
0
ENDTAB
0
TABLE
2
VIEW
5
6
100
AcDbSymbolTable
70
0
0
ENDTAB
0
TABLE
2
UCS
5
7
100
AcDbSymbolTable
70
0
0
ENDTAB
0
TABLE
2
APPID
5
9
100
AcDbSymbolTable
70
2
0
APPID
5
12
100
AcDbSymbolTableRecord
100
AcDbRegAppTableRecord
2
ACAD
70
0
0
ENDTAB
0
TABLE
2
DIMSTYLE
5
A
100
AcDbSymbolTable
70
1
0
ENDTAB
0
TABLE
2
BLOCK_RECORD
5
1
100
AcDbSymbolTable
70
1
0
BLOCK_RECORD
5
1F
100
AcDbSymbolTableRecord
100
AcDbBlockTableRecord
2
*MODEL_SPACE
0
BLOCK_RECORD
5
1B
100
AcDbSymbolTableRecord
100
AcDbBlockTableRecord
2
*PAPER_SPACE
0
ENDTAB
0
ENDSEC
0
SECTION
2
BLOCKS
0
BLOCK
5
20
100
AcDbEntity
100
AcDbBlockBegin
2
*MODEL_SPACE
0
ENDBLK
5
21
100
AcDbEntity
100
AcDbBlockEnd
0
BLOCK
5
1C
100
AcDbEntity
100
AcDbBlockBegin
2
*PAPER_SPACE
0
ENDBLK
5
1D
100
AcDbEntity
100
AcDbBlockEnd
0
ENDSEC
0
SECTION
2
ENTITIES
0
LWPOLYLINE
5
100
100
AcDbEntity
8
0
100
AcDbPolyline
90
8
70
1
43
0.0
10
71.027979999999843
20
-127.28885
10
70.027979999999843
20
-127.28885000000002
42
0.41421356237309503
10
69.527979999999857
20
-127.78885000000001
10
69.527979999999843
20
-140.78885000000002
42
0.41421356237307944
10
70.027979999999843
20
-141.28885000000002
10
71.027979999999843
20
-141.28885
42
0.41421356237309503
10
71.527979999999829
20
-140.78885000000002
10
71.527979999999843
20
-127.78885000000001
42
0.41421356237307944
0
LWPOLYLINE
5
101
100
AcDbEntity
8
0
100
AcDbPolyline
90
8
70
1
43
0.0
10
114.81547999999987
20
-139.78885000000002
10
114.81547999999984
20
-125.78885000000001
42
0.41421356237312623
10
114.31547999999985
20
-125.28885000000002
10
108.31547999999984
20
-125.28885000000001
42
0.41421356237307422
10
107.81547999999984
20
-125.78885000000001
10
107.81547999999984
20
-139.78885000000002
42
0.41421356237309503
10
108.31547999999984
20
-140.28885000000002
10
114.31547999999985
20
-140.28885000000002
42
0.41421356237309503
0
LWPOLYLINE
5
102
100
AcDbEntity
8
0
100
AcDbPolyline
90
16
70
1
43
0.0
10
155.46547999999984
20
-128.28885000000005
42
-0.4142135623730846
10
156.46547999999981
20
-129.28885000000002
10
156.46547999999981
20
-142.64966297727045
42
0.32877981289591429
10
157.46547999999984
20
-143.28885000000002
10
179.46547999999984
20
-143.28885000000002
42
0.32877981289591429
10
180.46547999999987
20
-142.64966297727045
10
180.46547999999979
20
-129.28885000000002
42
-0.41421356237309503
10
181.46547999999981
20
-128.28885000000002
10
182.46547999999984
20
-128.28885000000005
42
-0.41421356237311585
10
183.46547999999981
20
-129.28885000000002
10
183.46547999999984
20
-145.28885000000002
42
-0.41419730544939076
10
182.46553550492834
20
-146.28884999845963
10
154.46547999999981
20
-146.28885
42
-0.41421356237311063
10
153.46547999999981
20
-145.28885
10
153.46547999999979
20
-129.28885000000002
42
-0.41421356237311063
10
154.46547999999981
20
-128.28885000000002
0
LWPOLYLINE
5
103
100
AcDbEntity
8
0
100
AcDbPolyline
90
8
70
1
43
0.0
10
236.82797999999985
20
-127.78885000000001
10
236.82797999999985
20
-140.78885000000002
42
0.41421356237309503
10
237.32797999999985
20
-141.28885000000002
10
238.32797999999985
20
-141.28885
42
0.41421356237307422
10
238.82797999999985
20
-140.78885000000002
10
238.82797999999985
20
-127.78885000000001
42
0.41421356237309503
10
238.32797999999985
20
-127.28885
10
237.32797999999985
20
-127.28885
42
0.41421356237309503
0
LWPOLYLINE
5
104
100
AcDbEntity
8
0
100
AcDbPolyline
90
8
70
1
43
0.0
10
271.00297999999987
20
-127.78885000000001
10
271.00297999999987
20
-140.78885000000002
42
0.4142135623730846
10
271.50297999999987
20
-141.28885
10
284.50297999999987
20
-141.28885
42
0.41421356237307422
10
285.00297999999987
20
-140.78885000000002
10
285.00297999999987
20
-127.78885000000001
42
0.41421356237309503
10
284.50297999999987
20
-127.28885
10
271.50297999999987
20
-127.28885000000002
42
0.41421356237307422
0
LWPOLYLINE
5
105
100
AcDbEntity
8
0
100
AcDbPolyline
90
8
70
1
43
0.0
10
265.40297999999984
20
-127.78885000000001
10
265.40297999999984
20
-140.78885000000002
42
0.41421356237309503
10
265.90297999999984
20
-141.28885
10
266.90297999999984
20
-141.28885
42
0.41421356237307422
10
267.40297999999984
20
-140.78885000000002
10
267.40297999999984
20
-127.78885000000001
42
0.4142135623730846
10
266.90297999999984
20
-127.28885
10
265.90297999999984
20
-127.28885
42
0.4142135623730846
0
LWPOLYLINE
5
106
100
AcDbEntity
8
0
100
AcDbPolyline
90
8
70
1
43
0.0
10
229.11547999999985
20
-139.78885000000002
10
229.11547999999985
20
-125.78885000000001
42
0.4142135623730846
10
228.61547999999985
20
-125.28885000000001
10
222.61547999999982
20
-125.28885000000001
42
0.4142135623730846
10
222.11547999999982
20
-125.78885000000001
10
222.11547999999982
20
-139.78885000000002
42
0.41421356237310542
10
222.61547999999982
20
-140.28885000000002
10
228.61547999999985
20
-140.28885000000002
42
0.41421356237310542
0
LWPOLYLINE
5
107
100
AcDbEntity
8
0
100
AcDbPolyline
90
8
70
1
43
0.0
10
161.46547999999984
20
-127.78885000000001
10
161.46547999999984
20
-140.78885
42
0.41421356237310542
10
161.96547999999984
20
-141.28885
10
174.96547999999984
20
-141.28885
42
0.41421356237307422
10
175.46547999999984
20
-140.78885000000002
10
175.46547999999984
20
-127.78885000000001
42
0.4142135623730846
10
174.96547999999984
20
-127.28885
10
161.96547999999984
20
-127.28885
42
0.4142135623730846
0
LWPOLYLINE
5
108
100
AcDbEntity
8
0
100
AcDbPolyline
90
8
70
1
43
0.0
10
98.102979999999832
20
-127.78885000000001
10
98.102979999999832
20
-140.78885000000002
42
0.4142135623730534
10
98.602979999999846
20
-141.28885
10
99.602979999999832
20
-141.28885
42
0.41421356237312623
10
100.10297999999983
20
-140.78885000000002
10
100.10297999999985
20
-127.78885000000001
42
0.41421356237307422
10
99.602979999999832
20
-127.28885
10
98.602979999999846
20
-127.28885000000002
42
0.41421356237309503
0
LWPOLYLINE
5
109
100
AcDbEntity
8
0
100
AcDbPolyline
90
8
70
1
43
0.0
10
51.927979999999849
20
-127.78885000000001
10
51.927979999999835
20
-140.78885000000002
42
0.41421356237307944
10
52.427979999999849
20
-141.28885000000002
10
65.427979999999849
20
-141.28885
42
0.41421356237309503
10
65.927979999999835
20
-140.78885000000002
10
65.927979999999849
20
-127.78885000000002
42
0.41421356237313145
10
65.427979999999849
20
-127.28885000000002
10
52.427979999999849
20
-127.28885000000002
42
0.41421356237309503
0
LWPOLYLINE
5
110
100
AcDbEntity
8
0
100
AcDbPolyline
90
8
70
1
43
0.0
10
74.902979999999843
20
-127.78885000000001
10
74.902979999999843
20
-140.78885000000002
42
0.41421356237310542
10
75.402979999999843
20
-141.28885
10
76.402979999999843
20
-141.28885
42
0.41421356237309503
10
76.902979999999829
20
-140.78885000000002
10
76.902979999999843
20
-127.78885000000001
42
0.41421356237307944
10
76.402979999999843
20
-127.28885
10
75.402979999999843
20
-127.28885000000002
42
0.41421356237309503
0
CIRCLE
5
111
100
AcDbEntity
8
0
100
AcDbCircle
10
138.4486323101508
20
-137.18920479330205
30
0
40
2.7999999999999936
210
0
220
0
230
1
0
CIRCLE
5
112
100
AcDbEntity
8
0
100
AcDbCircle
10
198.48232768984877
20
-137.18920479330163
30
0
40
2.8000000000000114
210
0
220
0
230
1
0
LWPOLYLINE
5
113
100
AcDbEntity
8
0
100
AcDbPolyline
90
8
70
1
43
0.0
10
242.42797999999982
20
-127.78885000000001
10
242.42797999999988
20
-140.78885000000002
42
0.41421356237309503
10
242.92797999999982
20
-141.28885
10
255.92797999999985
20
-141.28885
42
0.41421356237307422
10
256.42797999999982
20
-140.78885000000002
10
256.42797999999982
20
-127.78885000000001
42
0.41421356237309503
10
255.92797999999985
20
-127.28885
10
242.92797999999982
20
-127.28885
42
0.4142135623730846
0
LWPOLYLINE
5
114
100
AcDbEntity
8
0
100
AcDbPolyline
90
8
70
1
43
0.0
10
288.60297999999989
20
-127.78885000000001
10
288.60297999999989
20
-140.78885000000002
42
0.41421356237309503
10
289.10297999999989
20
-141.28885000000002
10
290.10297999999983
20
-141.28885
42
0.41421356237307422
10
290.60297999999983
20
-140.78885000000002
10
290.60297999999983
20
-127.78885000000001
42
0.4142135623730846
10
290.10297999999983
20
-127.28885
10
289.10297999999989
20
-127.28885000000002
42
0.41421356237307422
0
LWPOLYLINE
5
115
100
AcDbEntity
8
0
100
AcDbPolyline
90
8
70
1
43
0.0
10
260.02797999999984
20
-127.78885000000001
10
260.02797999999984
20
-140.78885000000002
42
0.41421356237309503
10
260.52797999999984
20
-141.28885
10
261.52797999999984
20
-141.28885
42
0.41421356237307422
10
262.02797999999984
20
-140.78885000000002
10
262.02797999999984
20
-127.78885000000001
42
0.4142135623730846
10
261.52797999999984
20
-127.28885
10
260.52797999999984
20
-127.28885
42
0.41421356237309503
0
LWPOLYLINE
5
116
100
AcDbEntity
8
0
100
AcDbPolyline
90
26
70
1
43
0.0
10
206.20377429925551
20
-136.96065140270827
10
206.09114947210512
20
-136.84802657555787
42
-0.26080687734893049
10
206.02480320758997
20
-136.61301564280282
42
0.37326539136836207
10
204.21143810222719
20
-133.12477112366946
10
193.33435224660781
20
-128.8194155669957
42
0.39287551423341521
10
192.70017445884366
20
-129.06670562891489
10
191.27660726721967
20
-132.01149580319205
42
0.39287551423329187
10
191.47672578880335
20
-132.66210045929023
10
195.27473307044778
20
-134.8553589236792
42
0.34879281181172422
10
195.88990402780991
20
-134.76395438220959
42
-0.7876046403314112
10
201.89500613454868
20
-138.16702166423499
42
0.40896178353862001
10
202.22933254653645
20
-138.78284986167802
42
0.26912247814696744
10
205.1622371918038
20
-138.09991907901593
42
-0.19091049757703715
10
205.5047221087963
20
-137.96420479330163
10
205.56354547249794
20
-137.96420479330155
42
0.13165249758751701
10
205.81354547249791
20
-137.89721749519373
10
205.84130228606438
20
-137.88119209140933
42
-0.1316524975874899
10
206.09130228606435
20
-137.81420479330154
10
206.7073276898488
20
-137.81420479330154
42
0.41421356237307944
10
207.7073276898488
20
-136.81420479330149
10
207.7073276898488
20
-136.6142047933015
42
0.99999999999999989
10
207.2073276898488
20
-136.6142047933015
10
207.2073276898488
20
-136.81420479330149
42
-0.41421356237306384
10
206.7073276898488
20
-137.31420479330151
10
206.55732768984876
20
-137.31420479330151
42
-0.31783724519594109
10
206.32162542945326
20
-137.14753812663486
42
0.11185331453430543
0
LWPOLYLINE
5
117
100
AcDbEntity
8
0
100
AcDbPolyline
90
26
70
1
43
0.0
10
131.36741452750169
20
-137.96420479330206
42
-0.13165249758745465
10
131.11741452750172
20
-137.89721749519427
10
131.08965771393525
20
-137.88119209140984
42
0.13165249758743669
10
130.83965771393525
20
-137.81420479330208
10
130.2236323101508
20
-137.81420479330205
42
-0.4142135623730846
10
129.22363231015083
20
-136.81420479330205
10
129.22363231015083
20
-136.61420479330206
42
-0.99999999999999989
10
129.7236323101508
20
-136.61420479330206
10
129.72363231015083
20
-136.81420479330205
42
0.41421356237307422
10
130.2236323101508
20
-137.31420479330205
10
130.37363231015081
20
-137.31420479330205
42
0.31783724519584777
10
130.60933457054634
20
-137.14753812663537
42
-0.11185331453442134
10
130.72718570074409
20
-136.96065140270878
10
130.83981052789449
20
-136.84802657555841
42
0.26080687734892166
10
130.90615679240963
20
-136.61301564280333
42
-0.37326539136834869
10
132.71952189777235
20
-133.12477112366994
10
143.59660775339168
20
-128.81941556699604
42
-0.39287551423336292
10
144.23078554115585
20
-129.06670562891523
10
145.6543527327799
20
-132.01149580319239
42
-0.392875514233403
10
145.45423421119619
20
-132.66210045929054
10
141.65622692955179
20
-134.8553589236796
42
-0.34879281181173205
10
141.04105597218955
20
-134.7639543822101
42
0.78760464033140865
10
135.03595386545112
20
-138.16702166423539
42
-0.40896178353862339
10
134.70162745346329
20
-138.7828498616785
42
-0.26912247814695994
10
131.76872280819592
20
-138.09991907901639
42
0.19091049757700695
10
131.42623789120344
20
-137.96420479330212
0
LWPOLYLINE
5
118
100
AcDbEntity
8
0
100
AcDbPolyline
90
8
70
1
43
0.0
10
80.502979999999837
20
-127.78885000000001
10
80.502979999999837
20
-140.78885000000002
42
0.41421356237307422
10
81.002979999999837
20
-141.28885
10
94.002979999999852
20
-141.28885
42
0.41421356237312623
10
94.502979999999866
20
-140.78885000000002
10
94.502979999999866
20
-127.78885000000001
42
0.41421356237307422
10
94.002979999999852
20
-127.28885
10
81.002979999999837
20
-127.28885
42
0.41421356237307422
0
LWPOLYLINE
5
119
100
AcDbEntity
8
0
100
AcDbPolyline
90
8
70
1
43
0.0
10
46.32797999999984
20
-127.78885000000001
10
46.32797999999984
20
-140.78885000000002
42
0.41421356237310542
10
46.82797999999984
20
-141.28885
10
47.82797999999984
20
-141.28885
42
0.41421356237309503
10
48.327979999999833
20
-140.78885000000002
10
48.32797999999984
20
-127.78885000000001
42
0.41421356237307944
10
47.82797999999984
20
-127.28885
10
46.82797999999984
20
-127.28885
42
0.41421356237307944
0
LWPOLYLINE
5
120
100
AcDbEntity
8
0
100
AcDbPolyline
90
8
70
1
43
0.0
10
47.16547999999996
20
-51.588850000000008
10
47.165479999999889
20
-64.588850000000008
42
0.41421356237307422
10
47.665479999999931
20
-65.088850000000008
10
60.665479999999903
20
-65.088850000000008
42
0.41421356237310542
10
61.165479999999874
20
-64.588850000000008
10
61.165479999999945
20
-51.588850000000008
42
0.41421356237307944
10
60.665479999999903
20
-51.088850000000008
10
47.665479999999931
20
-51.088850000000008
42
0.41421356237309503
0
LWPOLYLINE
5
121
100
AcDbEntity
8
0
100
AcDbPolyline
90
8
70
1
43
0.0
10
284.50297999999987
20
-89.188850000000002
10
271.50297999999992
20
-89.188850000000002
42
0.4142135623730222
10
271.00297999999998
20
-89.688850000000002
10
271.00297999999998
20
-102.68885
42
0.41421356237309503
10
271.50297999999992
20
-103.18885000000002
10
284.50297999999987
20
-103.18885000000002
42
0.4142135623730222
10
285.00297999999987
20
-102.68885
10
285.00297999999992
20
-89.688850000000002
42
0.4142135623730846
0
LWPOLYLINE
5
122
100
AcDbEntity
8
0
100
AcDbPolyline
90
8
70
1
43
0.0
10
298.79048
20
-70.138850000000005
10
285.79047999999995
20
-70.138850000000005
42
0.4142135623730222
10
285.29047999999995
20
-70.638850000000005
10
285.29047999999989
20
-83.638849999999991
42
0.4142135623730846
10
285.79047999999995
20
-84.138850000000005
10
298.79048
20
-84.138850000000005
42
0.41421356237310542
10
299.29047999999995
20
-83.638849999999991
10
299.29047999999995
20
-70.638850000000005
42
0.41421356237310025
0
LWPOLYLINE
5
123
100
AcDbEntity
8
0
100
AcDbPolyline
90
8
70
1
43
0.0
10
306.77172999999993
20
-108.23885000000001
10
305.77172999999993
20
-108.23885000000001
42
0.4142135623730222
10
305.27172999999999
20
-108.73885000000001
10
305.27172999999993
20
-121.73885
42
0.41421356237309503
10
305.77172999999993
20
-122.23885000000001
10
306.77172999999993
20
-122.23884999999999
42
0.41421356237304302
10
307.27172999999993
20
-121.73885
10
307.27172999999993
20
-108.73885000000001
42
0.41421356237309503
0
LWPOLYLINE
5
124
100
AcDbEntity
8
0
100
AcDbPolyline
90
8
70
1
43
0.0
10
299.57797999999997
20
-132.55134999999999
10
299.57797999999997
20
-145.55135000000001
42
0.41421356237309503
10
300.07797999999991
20
-146.05135000000001
10
313.07797999999991
20
-146.05135000000001
42
0.41421356237310542
10
313.57797999999991
20
-145.55135000000001
10
313.57797999999991
20
-132.55134999999999
42
0.41421356237309503
10
313.07797999999991
20
-132.05134999999999
10
300.07797999999991
20
-132.05134999999999
42
0.41421356237310542
0
LWPOLYLINE
5
125
100
AcDbEntity
8
0
100
AcDbPolyline
90
8
70
1
43
0.0
10
355.94047999999992
20
-108.23885000000001
10
342.94047999999987
20
-108.23885000000001
42
0.4142135623730534
10
342.44047999999992
20
-108.73885000000001
10
342.44047999999992
20
-121.73885
42
0.41421356237310542
10
342.94047999999987
20
-122.23885000000001
10
355.94047999999992
20
-122.23884999999999
42
0.4142135623732407
10
356.44047999999998
20
-121.73885
10
356.44047999999998
20
-108.73885000000001
42
0.41421356237313667
0
LWPOLYLINE
5
126
100
AcDbEntity
8
0
100
AcDbPolyline
90
8
70
1
43
0.0
10
303.50297999999998
20
-70.638850000000005
10
303.50297999999998
20
-83.638849999999991
42
0.41421356237309503
10
304.00297999999992
20
-84.138850000000005
10
305.00297999999992
20
-84.138850000000005
42
0.4142135623730222
10
305.50297999999992
20
-83.638849999999991
10
305.50297999999998
20
-70.638850000000005
42
0.4142135623730534
10
305.00297999999992
20
-70.138850000000005
10
304.00297999999992
20
-70.138850000000005
42
0.4142135623730222
0
LWPOLYLINE
5
127
100
AcDbEntity
8
0
100
AcDbPolyline
90
8
70
1
43
0.0
10
270.21547999999996
20
-51.088850000000001
10
257.2154799999999
20
-51.088850000000008
42
0.4142135623730222
10
256.71547999999996
20
-51.588850000000008
10
256.71547999999984
20
-64.588850000000008
42
0.4142135623730534
10
257.2154799999999
20
-65.088850000000008
10
270.21547999999996
20
-65.088850000000008
42
0.4142135623730222
10
270.71547999999996
20
-64.588850000000008
10
270.71547999999996
20
-51.588850000000008
42
0.41421356237310025
0
LWPOLYLINE
5
128
100
AcDbEntity
8
0
100
AcDbPolyline
90
8
70
1
43
0.0
10
218.61547999999999
20
-51.588850000000008
10
218.61547999999993
20
-64.588850000000008
42
0.4142135623730534
10
219.11547999999996
20
-65.088850000000008
10
232.11547999999993
20
-65.088850000000008
42
0.4142135623730222
10
232.61547999999991
20
-64.588850000000008
10
232.61547999999991
20
-51.588850000000008
42
0.41421356237310025
10
232.11547999999993
20
-51.088850000000036
10
219.11547999999996
20
-51.088850000000008
42
0.4142135623730222
0
LWPOLYLINE
5
129
100
AcDbEntity
8
0
100
AcDbPolyline
90
8
70
1
43
0.0
10
236.87797999999992
20
-108.23885000000001
10
223.87797999999989
20
-108.23885000000001
42
0.4142135623730222
10
223.37797999999992
20
-108.73885000000001
10
223.37797999999992
20
-121.73885
42
0.41421356237309503
10
223.87797999999989
20
-122.23885000000001
10
236.87797999999987
20
-122.23884999999999
42
0.41421356237319906
10
237.37797999999992
20
-121.73885
10
237.37797999999998
20
-108.73885000000001
42
0.4142135623730846
0
LWPOLYLINE
5
130
100
AcDbEntity
8
0
100
AcDbPolyline
90
8
70
1
43
0.0
10
213.06547999999992
20
-51.088850000000001
10
200.06547999999995
20
-51.088850000000008
42
0.4142135623730222
10
199.56547999999998
20
-51.588850000000008
10
199.56547999999992
20
-64.588850000000008
42
0.4142135623730534
10
200.06547999999995
20
-65.088850000000008
10
213.06547999999992
20
-65.088850000000008
42
0.4142135623730222
10
213.56547999999989
20
-64.588850000000008
10
213.56547999999989
20
-51.588850000000008
42
0.41421356237310025
0
LWPOLYLINE
5
131
100
AcDbEntity
8
0
100
AcDbPolyline
90
8
70
1
43
0.0
10
170.99047999999996
20
-70.638850000000005
10
170.99047999999988
20
-83.638849999999991
42
0.4142135623730846
10
171.49047999999993
20
-84.138850000000005
10
184.49047999999991
20
-84.138850000000005
42
0.4142135623730222
10
184.99047999999988
20
-83.638849999999991
10
184.99047999999988
20
-70.638850000000005
42
0.41421356237310025
10
184.49047999999991
20
-70.138850000000033
10
171.49047999999993
20
-70.138850000000005
42
0.4142135623730222
0
LWPOLYLINE
5
132
100
AcDbEntity
8
0
100
AcDbPolyline
90
8
70
1
43
0.0
10
170.20297999999991
20
-89.188850000000002
10
157.20297999999991
20
-89.188850000000002
42
0.41421356237309503
10
156.70297999999997
20
-89.688850000000002
10
156.70297999999988
20
-102.68885
42
0.41421356237309503
10
157.20297999999991
20
-103.18885000000002
10
170.20297999999991
20
-103.18885000000002
42
0.4142135623730222
10
170.70297999999985
20
-102.68885
10
170.70297999999994
20
-89.688850000000002
42
0.4142135623730846
0
LWPOLYLINE
5
133
100
AcDbEntity
8
0
100
AcDbPolyline
90
8
70
1
43
0.0
10
179.72797999999989
20
-108.23885000000001
10
166.72797999999995
20
-108.23885000000001
42
0.4142135623730222
10
166.22797999999995
20
-108.73885000000001
10
166.22797999999989
20
-121.73885
42
0.41421356237309503
10
166.72797999999995
20
-122.23885000000001
10
179.72797999999989
20
-122.23884999999999
42
0.41421356237304302
10
180.22797999999989
20
-121.73885
10
180.22797999999995
20
-108.73885000000001
42
0.4142135623730846
0
LWPOLYLINE
5
134
100
AcDbEntity
8
0
100
AcDbPolyline
90
8
70
1
43
0.0
10
109.07797999999993
20
-108.73885000000001
10
109.07797999999993
20
-121.73885
42
0.41421356237309503
10
109.5779799999999
20
-122.23884999999999
10
122.57797999999987
20
-122.23884999999999
42
0.41421356237313667
10
123.07797999999991
20
-121.73885
10
123.07797999999991
20
-108.73885000000001
42
0.41421356237311585
10
122.57797999999987
20
-108.23885000000004
10
109.5779799999999
20
-108.23885000000001
42
0.41421356237309503
0
LWPOLYLINE
5
135
100
AcDbEntity
8
0
100
AcDbPolyline
90
8
70
1
43
0.0
10
136.86547999999988
20
-51.088850000000001
10
123.86547999999991
20
-51.088850000000008
42
0.41421356237308982
10
123.36547999999993
20
-51.588850000000008
10
123.36547999999993
20
-64.588850000000008
42
0.41421356237310025
10
123.86547999999991
20
-65.088850000000008
10
136.86547999999988
20
-65.088850000000008
42
0.41421356237310542
10
137.36547999999985
20
-64.588850000000008
10
137.36547999999993
20
-51.588850000000008
42
0.41421356237310025
0
LWPOLYLINE
5
136
100
AcDbEntity
8
0
100
AcDbPolyline
90
8
70
1
43
0.0
10
94.002979999999923
20
-89.188850000000002
10
81.00297999999988
20
-89.188850000000002
42
0.41421356237309503
10
80.502979999999909
20
-89.688850000000002
10
80.502979999999909
20
-102.68885
42
0.41421356237309503
10
81.00297999999988
20
-103.18885000000002
10
94.002979999999852
20
-103.18885000000002
42
0.41421356237311585
10
94.502979999999894
20
-102.68885
10
94.502979999999894
20
-89.688850000000002
42
0.41421356237309503
0
LWPOLYLINE
5
137
100
AcDbEntity
8
0
100
AcDbPolyline
90
8
70
1
43
0.0
10
73.409229999999894
20
-89.188850000000002
10
72.409229999999951
20
-89.188850000000002
42
0.41421356237310542
10
71.90922999999998
20
-89.688850000000002
10
71.909229999999909
20
-102.68885
42
0.41421356237309503
10
72.409229999999951
20
-103.18885000000002
10
73.409229999999965
20
-103.18885000000002
42
0.41421356237300661
10
73.909229999999866
20
-102.68885
10
73.909229999999937
20
-89.688850000000002
42
0.41421356237309503
0
LWPOLYLINE
5
138
100
AcDbEntity
8
0
100
AcDbPolyline
90
8
70
1
43
0.0
10
65.427979999999906
20
-70.138850000000005
10
52.427979999999934
20
-70.138850000000005
42
0.41421356237310542
10
51.927979999999963
20
-70.638850000000005
10
51.927979999999891
20
-83.638849999999991
42
0.41421356237309503
10
52.427979999999934
20
-84.138850000000005
10
65.427979999999906
20
-84.138850000000005
42
0.41421356237308982
10
65.927979999999877
20
-83.638849999999991
10
65.927979999999877
20
-70.638850000000005
42
0.41421356237310542
0
LWPOLYLINE
5
139
100
AcDbEntity
8
0
100
AcDbPolyline
90
8
70
1
43
0.0
10
47.827979999999926
20
-70.138850000000005
10
46.827979999999911
20
-70.138850000000005
42
0.41421356237310542
10
46.32797999999994
20
-70.638850000000005
10
46.32797999999994
20
-83.638849999999991
42
0.41421356237310025
10
46.827979999999911
20
-84.138850000000005
10
47.827979999999926
20
-84.138850000000005
42
0.41421356237310542
10
48.327979999999897
20
-83.638849999999991
10
48.327979999999897
20
-70.638850000000005
42
0.41421356237310542
0
LWPOLYLINE
5
140
100
AcDbEntity
8
0
100
AcDbPolyline
90
8
70
1
43
0.0
10
72.571729999999945
20
-108.23885000000001
10
59.571729999999903
20
-108.23885000000001
42
0.41421356237310542
10
59.071729999999931
20
-108.73885000000001
10
59.071729999999931
20
-121.73885
42
0.41421356237310025
10
59.571729999999903
20
-122.23884999999999
10
72.571729999999874
20
-122.23884999999999
42
0.41421356237318346
10
73.071729999999917
20
-121.73885
10
73.071729999999917
20
-108.73885000000001
42
0.41421356237310025
0
LWPOLYLINE
5
141
100
AcDbEntity
8
0
100
AcDbPolyline
90
8
70
1
43
0.0
10
89.24047999999992
20
-70.138850000000005
10
76.240479999999877
20
-70.138850000000005
42
0.41421356237310542
10
75.740479999999906
20
-70.638850000000005
10
75.740479999999906
20
-83.638849999999991
42
0.41421356237310025
10
76.240479999999877
20
-84.138850000000005
10
89.240479999999849
20
-84.138850000000005
42
0.41421356237313667
10
89.740479999999891
20
-83.638849999999991
10
89.740479999999891
20
-70.638850000000005
42
0.41421356237310025
0
LWPOLYLINE
5
142
100
AcDbEntity
8
0
100
AcDbPolyline
90
8
70
1
43
0.0
10
127.34047999999994
20
-70.138850000000005
10
114.3404799999999
20
-70.138850000000005
42
0.41421356237310542
10
113.84047999999993
20
-70.638850000000005
10
113.84047999999993
20
-83.638849999999991
42
0.41421356237309503
10
114.3404799999999
20
-84.138850000000005
10
127.34047999999987
20
-84.138850000000005
42
0.41421356237313667
10
127.84047999999991
20
-83.638849999999991
10
127.84047999999991
20
-70.638850000000005
42
0.41421356237310025
0
LWPOLYLINE
5
143
100
AcDbEntity
8
0
100
AcDbPolyline
90
8
70
1
43
0.0
10
151.15297999999996
20
-89.188850000000002
10
138.1529799999999
20
-89.188850000000002
42
0.41421356237309503
10
137.65297999999996
20
-89.688850000000002
10
137.65297999999987
20
-102.68885
42
0.41421356237309503
10
138.1529799999999
20
-103.18885000000002
10
151.15297999999996
20
-103.18885000000002
42
0.41421356237309503
10
151.65297999999993
20
-102.68885
10
151.65297999999993
20
-89.688850000000002
42
0.41421356237309503
0
LWPOLYLINE
5
144
100
AcDbEntity
8
0
100
AcDbPolyline
90
8
70
1
43
0.0
10
194.01547999999991
20
-51.088850000000001
10
181.01547999999994
20
-51.088850000000008
42
0.4142135623730222
10
180.51547999999997
20
-51.588850000000008
10
180.51547999999991
20
-64.588850000000008
42
0.4142135623730534
10
181.01547999999994
20
-65.088850000000008
10
194.01547999999991
20
-65.088850000000008
42
0.4142135623730222
10
194.51547999999988
20
-64.588850000000008
10
194.51547999999988
20
-51.588850000000008
42
0.41421356237310025
0
LWPOLYLINE
5
145
100
AcDbEntity
8
0
100
AcDbPolyline
90
8
70
1
43
0.0
10
203.54047999999992
20
-70.138850000000005
10
190.54047999999995
20
-70.138850000000005
42
0.4142135623730222
10
190.04047999999997
20
-70.638850000000005
10
190.04047999999989
20
-83.638849999999991
42
0.4142135623730846
10
190.54047999999995
20
-84.138850000000005
10
203.54047999999992
20
-84.138850000000005
42
0.41421356237310542
10
204.04047999999989
20
-83.638849999999991
10
204.04047999999989
20
-70.638850000000005
42
0.41421356237310025
0
LWPOLYLINE
5
146
100
AcDbEntity
8
0
100
AcDbPolyline
90
8
70
1
43
0.0
10
228.14048
20
-70.638850000000005
10
228.14047999999991
20
-83.638849999999991
42
0.4142135623730846
10
228.64047999999997
20
-84.138850000000005
10
241.64047999999994
20
-84.138850000000005
42
0.4142135623730222
10
242.14047999999991
20
-83.638849999999991
10
242.14047999999991
20
-70.638850000000005
42
0.41421356237310025
10
241.64047999999994
20
-70.138850000000033
10
228.64047999999997
20
-70.138850000000005
42
0.4142135623730222
0
LWPOLYLINE
5
147
100
AcDbEntity
8
0
100
AcDbPolyline
90
8
70
1
43
0.0
10
275.76547999999997
20
-51.588850000000008
10
275.76547999999991
20
-64.588850000000008
42
0.4142135623730534
10
276.26547999999991
20
-65.088850000000008
10
289.26547999999997
20
-65.088850000000008
42
0.4142135623730222
10
289.76547999999991
20
-64.588850000000008
10
289.76547999999991
20
-51.588850000000008
42
0.41421356237310025
10
289.26547999999997
20
-51.088850000000001
10
276.26547999999991
20
-51.088850000000008
42
0.4142135623730222
0
LWPOLYLINE
5
148
100
AcDbEntity
8
0
100
AcDbPolyline
90
8
70
1
43
0.0
10
328.20297999999991
20
-70.138850000000005
10
327.20297999999991
20
-70.138850000000005
42
0.41421356237318868
10
326.70297999999991
20
-70.638850000000005
10
326.70297999999991
20
-83.638849999999991
42
0.41421356237313667
10
327.20297999999991
20
-84.138850000000005
10
328.20297999999991
20
-84.138850000000005
42
0.4142135623730534
10
328.70297999999991
20
-83.638849999999991
10
328.70297999999991
20
-70.638850000000005
42
0.4142135623730222
0
LWPOLYLINE
5
149
100
AcDbEntity
8
0
100
AcDbPolyline
90
8
70
1
43
0.0
10
332.12797999999992
20
-113.00135
10
319.12797999999998
20
-113.00135
42
0.4142135623730222
10
318.62797999999998
20
-113.50135000000002
10
318.62797999999998
20
-126.50135
42
0.41421356237309503
10
319.12797999999998
20
-127.00135000000002
10
332.12797999999992
20
-127.00135
42
0.41421356237311585
10
332.62797999999987
20
-126.50135
10
332.62797999999987
20
-113.50135000000002
42
0.41421356237312623
0
LWPOLYLINE
5
150
100
AcDbEntity
8
0
100
AcDbPolyline
90
8
70
1
43
0.0
10
315.45922999999993
20
-89.188850000000002
10
302.45922999999993
20
-89.188850000000002
42
0.4142135623730222
10
301.95922999999993
20
-89.688850000000002
10
301.95922999999993
20
-102.68885
42
0.41421356237309503
10
302.45922999999993
20
-103.18885000000002
10
315.45922999999988
20
-103.18885000000002
42
0.41421356237312623
10
315.95922999999993
20
-102.68885
10
315.95922999999999
20
-89.688850000000002
42
0.4142135623730846
0
LWPOLYLINE
5
151
100
AcDbEntity
8
0
100
AcDbPolyline
90
8
70
1
43
0.0
10
279.74047999999993
20
-70.138850000000005
10
266.74047999999993
20
-70.138850000000005
42
0.4142135623730222
10
266.24047999999993
20
-70.638850000000005
10
266.24047999999988
20
-83.638849999999991
42
0.4142135623730846
10
266.74047999999993
20
-84.138850000000005
10
279.74047999999993
20
-84.138850000000005
42
0.4142135623730222
10
280.24047999999993
20
-83.638849999999991
10
280.24047999999993
20
-70.638850000000005
42
0.41421356237310025
0
LWPOLYLINE
5
152
100
AcDbEntity
8
0
100
AcDbPolyline
90
8
70
1
43
0.0
10
274.97797999999989
20
-108.23885000000001
10
261.97797999999989
20
-108.23885000000001
42
0.4142135623730222
10
261.47797999999995
20
-108.73885000000001
10
261.47797999999995
20
-121.73885
42
0.41421356237309503
10
261.97797999999989
20
-122.23885000000001
10
274.97797999999989
20
-122.23884999999999
42
0.41421356237304302
10
275.47797999999989
20
-121.73885
10
275.47797999999995
20
-108.73885000000001
42
0.4142135623730846
0
LWPOLYLINE
5
153
100
AcDbEntity
8
0
100
AcDbPolyline
90
8
70
1
43
0.0
10
265.45297999999991
20
-89.188850000000002
10
252.45297999999991
20
-89.188850000000002
42
0.4142135623730222
10
251.95297999999994
20
-89.688850000000002
10
251.95297999999994
20
-102.68885
42
0.41421356237309503
10
252.45297999999991
20
-103.18885000000002
10
265.45297999999991
20
-103.18885000000002
42
0.4142135623730222
10
265.95297999999985
20
-102.68885
10
265.95297999999991
20
-89.688850000000002
42
0.4142135623730846
0
LWPOLYLINE
5
154
100
AcDbEntity
8
0
100
AcDbPolyline
90
8
70
1
43
0.0
10
300.02122999999995
20
-90.188850000000002
10
294.02122999999989
20
-90.188850000000002
42
0.4142135623730222
10
293.52122999999995
20
-90.688850000000016
10
293.52122999999995
20
-104.68885
42
0.41421356237309503
10
294.02122999999989
20
-105.18885
10
300.02122999999989
20
-105.18885
42
0.41421356237312623
10
300.52122999999995
20
-104.68885
10
300.52122999999995
20
-90.688850000000016
42
0.41421356237309503
0
LWPOLYLINE
5
155
100
AcDbEntity
8
0
100
AcDbPolyline
90
8
70
1
43
0.0
10
283.57172999999989
20
-108.23885000000001
10
282.57172999999995
20
-108.23885000000001
42
0.4142135623730222
10
282.07173
20
-108.73885000000001
10
282.07173
20
-121.73885
42
0.41421356237309503
10
282.57172999999995
20
-122.23885000000001
10
283.57172999999989
20
-122.23884999999999
42
0.41421356237304302
10
284.07172999999989
20
-121.73885
10
284.07172999999995
20
-108.73885000000001
42
0.4142135623730846
0
LWPOLYLINE
5
156
100
AcDbEntity
8
0
100
AcDbPolyline
90
8
70
1
43
0.0
10
337.67797999999999
20
-132.55134999999999
10
337.67797999999999
20
-145.55135000000001
42
0.41421356237312623
10
338.17797999999993
20
-146.05135000000001
10
351.17797999999993
20
-146.05135000000001
42
0.41421356237312623
10
351.67797999999993
20
-145.55135000000001
10
351.67797999999993
20
-132.55134999999999
42
0.41421356237312623
10
351.17797999999993
20
-132.05134999999999
10
338.17797999999993
20
-132.05134999999999
42
0.41421356237312623
0
LWPOLYLINE
5
157
100
AcDbEntity
8
0
100
AcDbPolyline
90
8
70
1
43
0.0
10
355.94047999999992
20
-89.188850000000002
10
342.94047999999987
20
-89.188850000000002
42
0.4142135623730534
10
342.44047999999992
20
-89.688850000000002
10
342.44047999999992
20
-102.68885
42
0.41421356237312623
10
342.94047999999987
20
-103.18885000000002
10
355.94047999999992
20
-103.18885000000002
42
0.4142135623731783
10
356.44047999999998
20
-102.68885
10
356.44047999999998
20
-89.688850000000002
42
0.41421356237313667
0
LWPOLYLINE
5
158
100
AcDbEntity
8
0
100
AcDbPolyline
90
8
70
1
43
0.0
10
322.60297999999989
20
-70.138850000000005
10
309.60297999999995
20
-70.138850000000005
42
0.4142135623730222
10
309.10298
20
-70.638850000000005
10
309.10297999999989
20
-83.638849999999991
42
0.4142135623730846
10
309.60297999999995
20
-84.138850000000005
10
322.60297999999989
20
-84.138850000000005
42
0.4142135623730534
10
323.10297999999989
20
-83.638849999999991
10
323.10297999999989
20
-70.638850000000005
42
0.41421356237310542
0
LWPOLYLINE
5
159
100
AcDbEntity
8
0
100
AcDbPolyline
90
8
70
1
43
0.0
10
251.16547999999995
20
-51.088850000000001
10
238.16547999999997
20
-51.088850000000008
42
0.4142135623730222
10
237.66548
20
-51.588850000000008
10
237.66547999999995
20
-64.588850000000008
42
0.4142135623730534
10
238.16547999999997
20
-65.088850000000008
10
251.16547999999995
20
-65.088850000000008
42
0.4142135623730222
10
251.66547999999992
20
-64.588850000000008
10
251.66547999999992
20
-51.588850000000008
42
0.41421356237310025
0
LWPOLYLINE
5
160
100
AcDbEntity
8
0
100
AcDbPolyline
90
8
70
1
43
0.0
10
222.59047999999993
20
-70.138850000000005
10
209.59047999999996
20
-70.138850000000005
42
0.4142135623730222
10
209.09047999999999
20
-70.638850000000005
10
209.0904799999999
20
-83.638849999999991
42
0.4142135623730846
10
209.59047999999996
20
-84.138850000000005
10
222.59047999999993
20
-84.138850000000005
42
0.41421356237310542
10
223.0904799999999
20
-83.638849999999991
10
223.0904799999999
20
-70.638850000000005
42
0.41421356237310025
0
LWPOLYLINE
5
161
100
AcDbEntity
8
0
100
AcDbPolyline
90
8
70
1
43
0.0
10
217.82797999999991
20
-108.23885000000001
10
204.82797999999988
20
-108.23885000000001
42
0.4142135623730222
10
204.32797999999991
20
-108.73885000000001
10
204.32797999999991
20
-121.73885
42
0.41421356237309503
10
204.82797999999988
20
-122.23885000000001
10
217.82797999999985
20
-122.23884999999999
42
0.41421356237319906
10
218.32797999999991
20
-121.73885
10
218.32797999999997
20
-108.73885000000001
42
0.4142135623730846
0
LWPOLYLINE
5
162
100
AcDbEntity
8
0
100
AcDbPolyline
90
8
70
1
43
0.0
10
155.91547999999989
20
-51.088850000000001
10
142.91547999999992
20
-51.088850000000008
42
0.41421356237308982
10
142.41547999999995
20
-51.588850000000008
10
142.41547999999995
20
-64.588850000000008
42
0.41421356237310025
10
142.91547999999992
20
-65.088850000000008
10
155.91547999999989
20
-65.088850000000008
42
0.41421356237310542
10
156.41547999999986
20
-64.588850000000008
10
156.41547999999995
20
-51.588850000000008
42
0.41421356237310025
0
LWPOLYLINE
5
163
100
AcDbEntity
8
0
100
AcDbPolyline
90
8
70
1
43
0.0
10
165.44047999999989
20
-70.138850000000005
10
152.44047999999992
20
-70.138850000000005
42
0.41421356237310542
10
151.94047999999995
20
-70.638850000000005
10
151.94047999999995
20
-83.638849999999991
42
0.41421356237309503
10
152.44047999999992
20
-84.138850000000005
10
165.44047999999989
20
-84.138850000000005
42
0.4142135623730222
10
165.94047999999987
20
-83.638849999999991
10
165.94047999999992
20
-70.638850000000005
42
0.4142135623730534
0
LWPOLYLINE
5
164
100
AcDbEntity
8
0
100
AcDbPolyline
90
8
70
1
43
0.0
10
189.25297999999992
20
-89.188850000000002
10
176.25297999999992
20
-89.188850000000002
42
0.4142135623730222
10
175.75297999999998
20
-89.688850000000002
10
175.75297999999989
20
-102.68885
42
0.4142135623730846
10
176.25297999999992
20
-103.18885000000002
10
189.25297999999992
20
-103.18885000000002
42
0.4142135623730222
10
189.75297999999987
20
-102.68885
10
189.75297999999995
20
-89.688850000000002
42
0.4142135623730846
0
LWPOLYLINE
5
165
100
AcDbEntity
8
0
100
AcDbPolyline
90
8
70
1
43
0.0
10
147.17797999999993
20
-108.73885000000001
10
147.17797999999988
20
-121.73885
42
0.41421356237310542
10
147.67797999999993
20
-122.23885000000001
10
160.67797999999988
20
-122.23884999999999
42
0.41421356237304302
10
161.17797999999988
20
-121.73885
10
161.17797999999993
20
-108.73885000000001
42
0.4142135623730846
10
160.67797999999988
20
-108.23884999999997
10
147.67797999999993
20
-108.23885000000001
42
0.41421356237309503
0
LWPOLYLINE
5
166
100
AcDbEntity
8
0
100
AcDbPolyline
90
8
70
1
43
0.0
10
132.10297999999995
20
-89.188850000000002
10
119.1029799999999
20
-89.188850000000002
42
0.41421356237309503
10
118.60297999999993
20
-89.688850000000002
10
118.60297999999993
20
-102.68885
42
0.41421356237309503
10
119.1029799999999
20
-103.18885000000002
10
132.10297999999995
20
-103.18885000000002
42
0.41421356237309503
10
132.60297999999992
20
-102.68885
10
132.60297999999992
20
-89.688850000000002
42
0.41421356237309503
0
LWPOLYLINE
5
167
100
AcDbEntity
8
0
100
AcDbPolyline
90
8
70
1
43
0.0
10
117.81547999999994
20
-51.088850000000008
10
104.81547999999989
20
-51.088850000000008
42
0.41421356237308982
10
104.31547999999992
20
-51.588850000000008
10
104.31547999999992
20
-64.588850000000008
42
0.41421356237310025
10
104.81547999999989
20
-65.088850000000008
10
117.81547999999987
20
-65.088850000000008
42
0.41421356237308982
10
118.31547999999991
20
-64.588850000000008
10
118.31547999999991
20
-51.588850000000008
42
0.41421356237310025
0
LWPOLYLINE
5
168
100
AcDbEntity
8
0
100
AcDbPolyline
90
8
70
1
43
0.0
10
103.52797999999993
20
-108.23885000000001
10
90.527979999999886
20
-108.23885000000001
42
0.41421356237309503
10
90.027979999999914
20
-108.73885000000001
10
90.027979999999914
20
-121.73885
42
0.41421356237309503
10
90.527979999999886
20
-122.23884999999999
10
103.52797999999993
20
-122.23884999999999
42
0.41421356237310542
10
104.0279799999999
20
-121.73885
10
104.0279799999999
20
-108.73885000000001
42
0.41421356237309503
0
LWPOLYLINE
5
169
100
AcDbEntity
8
0
100
AcDbPolyline
90
8
70
1
43
0.0
10
81.009729999999891
20
-109.23885
10
75.009729999999877
20
-109.23885
42
0.41421356237310542
10
74.509729999999905
20
-109.73884999999999
10
74.509729999999905
20
-123.73885000000001
42
0.41421356237310025
10
75.009729999999877
20
-124.23885
10
81.009729999999891
20
-124.23885000000001
42
0.41421356237309503
10
81.509729999999863
20
-123.73885000000001
10
81.509729999999934
20
-109.73884999999999
42
0.41421356237309503
0
LWPOLYLINE
5
170
100
AcDbEntity
8
0
100
AcDbPolyline
90
8
70
1
43
0.0
10
49.209229999999877
20
-103.18884999999997
42
-0.41421356237310025
10
48.709229999999906
20
-102.68885
10
48.709229999999891
20
-89.688850000000002
42
-0.41421356237310542
10
49.209229999999877
20
-89.188850000000002
10
67.809229999999943
20
-89.188850000000031
42
-0.41421356237310025
10
68.309229999999914
20
-89.688850000000002
10
68.309229999999943
20
-102.68885
42
-0.41421356237311063
10
67.809229999999872
20
-103.18885000000002
0
LWPOLYLINE
5
171
100
AcDbEntity
8
0
100
AcDbPolyline
90
8
70
1
43
0.0
10
98.765479999999926
20
-51.088850000000008
10
85.765479999999883
20
-51.088850000000008
42
0.41421356237308982
10
85.265479999999911
20
-51.588850000000008
10
85.265479999999911
20
-64.588850000000008
42
0.41421356237310025
10
85.765479999999883
20
-65.088850000000008
10
98.765479999999854
20
-65.088850000000008
42
0.41421356237308982
10
99.265479999999897
20
-64.588850000000008
10
99.265479999999897
20
-51.588850000000008
42
0.41421356237310025
0
LWPOLYLINE
5
172
100
AcDbEntity
8
0
100
AcDbPolyline
90
8
70
1
43
0.0
10
79.715479999999914
20
-51.088850000000008
10
66.715479999999943
20
-51.088850000000008
42
0.41421356237309503
10
66.215479999999971
20
-51.588850000000008
10
66.2154799999999
20
-64.588850000000008
42
0.41421356237307422
10
66.715479999999943
20
-65.088850000000008
10
79.715479999999914
20
-65.088850000000008
42
0.41421356237308982
10
80.215479999999886
20
-64.588850000000008
10
80.215479999999886
20
-51.588850000000008
42
0.41421356237310542
0
LWPOLYLINE
5
173
100
AcDbEntity
8
0
100
AcDbPolyline
90
8
70
1
43
0.0
10
71.027979999999928
20
-70.138850000000005
10
70.027979999999914
20
-70.138850000000005
42
0.41421356237310542
10
69.527979999999943
20
-70.638850000000005
10
69.527979999999943
20
-83.638849999999991
42
0.41421356237310025
10
70.027979999999914
20
-84.138850000000005
10
71.027979999999928
20
-84.138850000000005
42
0.41421356237308982
10
71.5279799999999
20
-83.638849999999991
10
71.5279799999999
20
-70.638850000000005
42
0.41421356237310542
0
LWPOLYLINE
5
174
100
AcDbEntity
8
0
100
AcDbPolyline
90
8
70
1
43
0.0
10
57.1337299999999
20
-109.23885
10
51.133729999999886
20
-109.23885
42
0.41421356237310542
10
50.633729999999915
20
-109.73884999999999
10
50.633729999999915
20
-123.73885000000001
42
0.41421356237310025
10
51.133729999999886
20
-124.23885
10
57.1337299999999
20
-124.23885000000001
42
0.41421356237310542
10
57.633729999999872
20
-123.73885000000001
10
57.633729999999943
20
-109.73884999999999
42
0.41421356237309503
0
LWPOLYLINE
5
175
100
AcDbEntity
8
0
100
AcDbPolyline
90
8
70
1
43
0.0
10
94.790479999999917
20
-70.638850000000005
10
94.790479999999917
20
-83.638849999999991
42
0.41421356237309503
10
95.290479999999889
20
-84.138850000000005
10
108.29047999999986
20
-84.138850000000005
42
0.41421356237311585
10
108.7904799999999
20
-83.638849999999991
10
108.7904799999999
20
-70.638850000000005
42
0.41421356237310025
10
108.29047999999993
20
-70.138850000000005
10
95.290479999999889
20
-70.138850000000005
42
0.41421356237310542
0
LWPOLYLINE
5
176
100
AcDbEntity
8
0
100
AcDbPolyline
90
8
70
1
43
0.0
10
113.05297999999993
20
-89.188850000000002
10
100.05297999999989
20
-89.188850000000002
42
0.41421356237309503
10
99.55297999999992
20
-89.688850000000002
10
99.55297999999992
20
-102.68885
42
0.41421356237309503
10
100.05297999999989
20
-103.18885000000002
10
113.05297999999986
20
-103.18885000000002
42
0.41421356237311585
10
113.55297999999991
20
-102.68885
10
113.55297999999991
20
-89.688850000000002
42
0.41421356237309503
0
LWPOLYLINE
5
177
100
AcDbEntity
8
0
100
AcDbPolyline
90
8
70
1
43
0.0
10
141.62797999999995
20
-108.23885000000001
10
128.62797999999992
20
-108.23885000000001
42
0.41421356237309503
10
128.12797999999992
20
-108.73885000000001
10
128.12797999999987
20
-121.73885
42
0.41421356237310542
10
128.62797999999992
20
-122.23885000000001
10
141.62797999999995
20
-122.23884999999999
42
0.41421356237310542
10
142.12797999999992
20
-121.73885
10
142.12797999999992
20
-108.73885000000001
42
0.41421356237309503
0
LWPOLYLINE
5
178
100
AcDbEntity
8
0
100
AcDbPolyline
90
8
70
1
43
0.0
10
198.7779799999999
20
-108.23885000000001
10
185.77797999999987
20
-108.23885000000001
42
0.4142135623730222
10
185.2779799999999
20
-108.73885000000001
10
185.2779799999999
20
-121.73885
42
0.41421356237309503
10
185.77797999999987
20
-122.23885000000001
10
198.77797999999984
20
-122.23884999999999
42
0.41421356237319906
10
199.2779799999999
20
-121.73885
10
199.27797999999996
20
-108.73885000000001
42
0.4142135623730846
0
LWPOLYLINE
5
179
100
AcDbEntity
8
0
100
AcDbPolyline
90
8
70
1
43
0.0
10
132.89047999999994
20
-70.638850000000005
10
132.89047999999994
20
-83.638849999999991
42
0.41421356237309503
10
133.39047999999991
20
-84.138850000000005
10
146.39047999999988
20
-84.138850000000005
42
0.41421356237309503
10
146.89047999999985
20
-83.638849999999991
10
146.89047999999991
20
-70.638850000000005
42
0.41421356237309503
10
146.39047999999988
20
-70.138850000000005
10
133.39047999999991
20
-70.138850000000005
42
0.41421356237310542
0
LWPOLYLINE
5
180
100
AcDbEntity
8
0
100
AcDbPolyline
90
8
70
1
43
0.0
10
161.46547999999996
20
-51.588850000000008
10
161.46547999999996
20
-64.588850000000008
42
0.41421356237310025
10
161.96547999999993
20
-65.088850000000008
10
174.9654799999999
20
-65.088850000000008
42
0.4142135623730222
10
175.46547999999987
20
-64.588850000000008
10
175.46547999999987
20
-51.588850000000008
42
0.41421356237310025
10
174.9654799999999
20
-51.088850000000036
10
161.96547999999993
20
-51.088850000000008
42
0.4142135623730222
0
LWPOLYLINE
5
181
100
AcDbEntity
8
0
100
AcDbPolyline
90
8
70
1
43
0.0
10
208.30297999999993
20
-89.188850000000002
10
195.30297999999988
20
-89.188850000000002
42
0.4142135623730222
10
194.80297999999991
20
-89.688850000000002
10
194.80297999999991
20
-102.68885
42
0.41421356237309503
10
195.30297999999988
20
-103.18885000000002
10
208.30297999999985
20
-103.18885000000002
42
0.41421356237312623
10
208.80297999999988
20
-102.68885
10
208.80297999999996
20
-89.688850000000002
42
0.4142135623730846
0
LWPOLYLINE
5
182
100
AcDbEntity
8
0
100
AcDbPolyline
90
8
70
1
43
0.0
10
213.85297999999992
20
-89.688850000000002
10
213.85297999999992
20
-102.68885
42
0.41421356237309503
10
214.35297999999989
20
-103.18885000000002
10
227.35297999999986
20
-103.18885000000002
42
0.41421356237312623
10
227.85297999999989
20
-102.68885
10
227.85297999999997
20
-89.688850000000002
42
0.41421356237314705
10
227.35297999999986
20
-89.18884999999996
10
214.35297999999989
20
-89.188850000000002
42
0.4142135623730222
0
LWPOLYLINE
5
183
100
AcDbEntity
8
0
100
AcDbPolyline
90
8
70
1
43
0.0
10
246.40297999999987
20
-89.188850000000002
10
233.4029799999999
20
-89.188850000000002
42
0.4142135623730222
10
232.90297999999993
20
-89.688850000000002
10
232.90297999999993
20
-102.68885
42
0.41421356237309503
10
233.4029799999999
20
-103.18885000000002
10
246.40297999999987
20
-103.18885000000002
42
0.4142135623730222
10
246.90297999999984
20
-102.68885
10
246.9029799999999
20
-89.688850000000002
42
0.4142135623730846
0
LWPOLYLINE
5
184
100
AcDbEntity
8
0
100
AcDbPolyline
90
20
70
1
43
0.0
10
295.31547999999992
20
-65.08885000000005
42
-0.4142135623730534
10
294.81547999999987
20
-64.588850000000008
10
294.81547999999998
20
-51.588850000000008
42
-0.4142135623730222
10
295.31547999999992
20
-51.088850000000008
10
327.36547999999999
20
-51.088850000000008
42
-0.41421356237311063
10
327.86547999999993
20
-51.588850000000008
10
327.86547999999993
20
-64.588850000000008
42
-0.41421356237310542
10
327.36547999999999
20
-65.088850000000008
10
326.77847999999989
20
-65.088850000000008
10
326.77847999999983
20
-66.588850000000008
42
-0.41421356237311585
10
326.27847999999983
20
-67.088850000000008
10
320.27847999999994
20
-67.088849999999979
42
-0.41421356237310025
10
319.77847999999994
20
-66.588850000000008
10
319.77847999999994
20
-65.088850000000008
10
302.90247999999991
20
-65.088850000000008
10
302.90247999999991
20
-66.588850000000008
42
-0.4142135623730222
10
302.40247999999997
20
-67.088850000000008
10
296.40247999999991
20
-67.088850000000065
42
-0.41421356237305862
10
295.90247999999985
20
-66.588850000000008
10
295.90247999999985
20
-65.088850000000008
0
LWPOLYLINE
5
185
100
AcDbEntity
8
0
100
AcDbPolyline
90
8
70
1
43
0.0
10
355.94047999999992
20
-70.138850000000005
10
342.94047999999987
20
-70.138850000000005
42
0.41421356237310542
10
342.44047999999992
20
-70.638850000000005
10
342.44047999999992
20
-83.638849999999991
42
0.41421356237312623
10
342.94047999999987
20
-84.138850000000005
10
355.94047999999992
20
-84.138850000000005
42
0.4142135623731783
10
356.44047999999998
20
-83.638849999999991
10
356.44047999999998
20
-70.638850000000005
42
0.41421356237313667
0
LWPOLYLINE
5
186
100
AcDbEntity
8
0
100
AcDbPolyline
90
8
70
1
43
0.0
10
332.12797999999992
20
-132.05134999999999
10
319.12797999999998
20
-132.05134999999999
42
0.41421356237310542
10
318.62797999999998
20
-132.55134999999999
10
318.62797999999998
20
-145.55135000000001
42
0.41421356237309503
10
319.12797999999998
20
-146.05135000000001
10
332.12797999999992
20
-146.05135000000001
42
0.41421356237312623
10
332.62797999999987
20
-145.55135000000001
10
332.62797999999987
20
-132.55134999999999
42
0.41421356237312623
0
LWPOLYLINE
5
187
100
AcDbEntity
8
0
100
AcDbPolyline
90
8
70
1
43
0.0
10
287.67173000000003
20
-108.73885000000001
10
287.67172999999991
20
-121.73885
42
0.41421356237309503
10
288.17172999999997
20
-122.23885000000001
10
301.17172999999991
20
-122.23884999999999
42
0.41421356237304302
10
301.67172999999991
20
-121.73885
10
301.67172999999991
20
-108.73885000000001
42
0.41421356237309503
10
301.17172999999991
20
-108.23885000000004
10
288.17172999999997
20
-108.23885000000001
42
0.4142135623730222
0
LWPOLYLINE
5
188
100
AcDbEntity
8
0
100
AcDbPolyline
90
8
70
1
43
0.0
10
323.89722999999992
20
-90.188850000000002
10
317.89722999999992
20
-90.188850000000002
42
0.4142135623730222
10
317.39722999999998
20
-90.688850000000016
10
317.39722999999998
20
-104.68885
42
0.41421356237309503
10
317.89722999999992
20
-105.18885
10
323.89722999999992
20
-105.18885
42
0.4142135623730534
10
324.39722999999992
20
-104.68885
10
324.39722999999987
20
-90.688850000000016
42
0.41421356237312623
0
LWPOLYLINE
5
189
100
AcDbEntity
8
0
100
AcDbPolyline
90
8
70
1
43
0.0
10
260.69047999999998
20
-70.138850000000005
10
247.69047999999998
20
-70.138850000000005
42
0.4142135623730222
10
247.19048000000001
20
-70.638850000000005
10
247.19047999999992
20
-83.638849999999991
42
0.4142135623730846
10
247.69047999999998
20
-84.138850000000005
10
260.69047999999998
20
-84.138850000000005
42
0.4142135623730222
10
261.19047999999992
20
-83.638849999999991
10
261.19047999999992
20
-70.638850000000005
42
0.41421356237310025
0
LWPOLYLINE
5
190
100
AcDbEntity
8
0
100
AcDbPolyline
90
8
70
1
43
0.0
10
255.92797999999988
20
-108.23885000000001
10
242.92797999999991
20
-108.23885000000001
42
0.4142135623730222
10
242.42797999999993
20
-108.73885000000001
10
242.42797999999993
20
-121.73885
42
0.41421356237309503
10
242.92797999999991
20
-122.23885000000001
10
255.92797999999988
20
-122.23884999999999
42
0.41421356237304302
10
256.42797999999982
20
-121.73885
10
256.42797999999993
20
-108.73885000000001
42
0.4142135623730846
0
LWPOLYLINE
5
191
100
AcDbEntity
8
0
100
AcDbPolyline
90
56
70
1
43
0.0
10
139.64048
20
-44.563850000000002
10
139.64048
20
-47.563850000000009
42
0.41421356237309503
10
140.64048
20
-48.563850000000002
10
165.80297999999999
20
-48.563850000000002
42
0.41421356237309503
10
166.80297999999999
20
-47.563850000000009
10
166.80297999999999
20
-44.563850000000002
42
-0.41421356237309503
10
167.80297999999999
20
-43.563850000000002
10
235.80297999999999
20
-43.563849999999988
42
-0.41421356237309503
10
236.80297999999999
20
-44.563850000000002
10
236.80297999999999
20
-47.563850000000009
42
0.41421356237309503
10
237.80298000000002
20
-48.563850000000002
10
262.96548000000001
20
-48.563850000000002
42
0.41421356237309503
10
263.96548000000001
20
-47.563850000000009
10
263.96548000000001
20
-44.563850000000002
42
-0.41421356237309503
10
264.96548000000007
20
-43.563850000000002
10
332.96548000000001
20
-43.563849999999988
42
-0.41421356237309503
10
333.96548000000001
20
-44.563850000000002
10
333.96548000000001
20
-47.563850000000009
42
0.41421356237309503
10
334.96548000000007
20
-48.563850000000002
10
357.96548000000001
20
-48.563849999999995
42
-0.41421356237309503
10
358.96548000000001
20
-49.563850000000009
10
358.96548000000001
20
-147.57634999999999
42
-0.41421356237309503
10
357.96548000000001
20
-148.57634999999999
10
334.96548000000007
20
-148.57634999999999
42
0.41421356237309503
10
333.96548000000001
20
-149.57634999999999
10
333.96548000000001
20
-152.57634999999999
42
-0.41421356237309503
10
332.96548000000001
20
-153.57634999999999
10
264.96548000000007
20
-153.57635000000002
42
-0.41421356237309503
10
263.96548000000001
20
-152.57634999999999
10
263.96548000000001
20
-149.57634999999999
42
0.41421356237309503
10
262.96548000000001
20
-148.57634999999999
10
237.80298000000002
20
-148.57634999999999
42
0.41421356237309503
10
236.80297999999999
20
-149.57634999999999
10
236.80297999999999
20
-152.57634999999999
42
-0.41421356237309503
10
235.80297999999999
20
-153.57634999999999
10
167.80297999999999
20
-153.57634999999999
42
-0.41421356237309503
10
166.80297999999999
20
-152.57634999999999
10
166.80297999999999
20
-149.57634999999999
42
0.41421356237309503
10
165.80297999999999
20
-148.57634999999999
10
140.64048
20
-148.57634999999999
42
0.41421356237309503
10
139.64048
20
-149.57634999999999
10
139.64048
20
-152.57634999999999
42
-0.41421356237309503
10
138.64048
20
-153.57634999999999
10
70.640479999999997
20
-153.57634999999999
42
-0.41421356237309503
10
69.640479999999997
20
-152.57634999999999
10
69.640479999999997
20
-149.57634999999999
42
0.41421356237309503
10
68.640479999999997
20
-148.57634999999999
10
45.640479999999997
20
-148.57634999999999
42
-0.41421356237309503
10
44.640479999999997
20
-147.57634999999999
10
44.64047999999999
20
-49.563850000000009
42
-0.41421356237309503
10
45.640479999999997
20
-48.563850000000002
10
68.640479999999997
20
-48.563850000000002
42
0.41421356237309503
10
69.640479999999997
20
-47.563850000000009
10
69.640479999999997
20
-44.563850000000002
42
-0.41421356237309503
10
70.640479999999997
20
-43.563850000000002
10
138.64048
20
-43.563850000000002
42
-0.41421356237309503
0
CIRCLE
5
192
100
AcDbEntity
8
0
100
AcDbCircle
10
336.65119800000008
20
-52.090150000000008
30
0
40
2.1499999999999999
210
0
220
-0
230
1
0
CIRCLE
5
193
100
AcDbEntity
8
0
100
AcDbCircle
10
355.40365200000002
20
-62.50818000000001
30
0
40
2.1499999999999999
210
0
220
-0
230
1
0
ENDSEC
0
SECTION
2
OBJECTS
0
DICTIONARY
5
C
100
AcDbDictionary
3
ACAD_GROUP
350
D
3
ACAD_MLINESTYLE
350
17
0
DICTIONARY
5
D
100
AcDbDictionary
0
DICTIONARY
5
1A
330
C
100
AcDbDictionary
0
DICTIONARY
5
17
100
AcDbDictionary
0
ENDSEC
0
EOF
