999
FreeCAD v0.21 33771 (Git)
  0
SECTION
  2
HEADER
  9
$ACADVER
  1
AC1014
  9
$ACADMAINTVER
 70
     9
  9
$DWGCODEPAGE
  3
ANSI_1252
  9
$TEXTSTYLE
  7
STANDARD
  9
$DIMSTYLE
  2
STANDARD
  9
$DIMTXSTY
  7
STANDARD
  9
$CMLSTYLE
  2
STANDARD
  9
$LUNITS
 70
2
  9
$INSUNITS
 70
4
  9
$PEXTMAX
 10
50
 20
50
 30
50
  9
$PEXTMIN
 10
0
 20
0
 30
0
  9
$HANDSEED
  5
FFFF
  0
ENDSEC
  0
SECTION
  2
CLASSES
  0
CLASS
  1
ACDBDICTIONARYWDFLT
  2
AcDbDictionaryWithDefault
  3
ObjectDBX Classes
 90
        0
280
     0
281
     0
  0
CLASS
  1
XRECORD
  2
AcDbXrecord
  3
ObjectDBX Classes
 90
        0
280
     0
281
     0
  0
CLASS
  1
LWPOLYLINE
  2
AcDbPolyline
  3
ObjectDBX Classes
 90
        0
280
     0
281
     1
  0
ENDSEC
  0
SECTION
  2
TABLES
  0
TABLE
  2
VPORT
  5
20
330
0
100
AcDbSymbolTable
 70
     1
  0
VPORT
  5
21
330
20
100
AcDbSymbolTableRecord
100
AcDbViewportTableRecord
  2
*ACTIVE
 70
     0
  0
ENDTAB
  0
TABLE
  2
LTYPE
  5
22
330
0
100
AcDbSymbolTable
 70
     1
  0
LTYPE
  5
23
330
21
100
AcDbSymbolTableRecord
100
AcDbLinetypeTableRecord
  2
BYBLOCK
 70
     0
  3

 72
    65
 73
     0
 40
0.0
  0
LTYPE
  5
24
330
21
100
AcDbSymbolTableRecord
100
AcDbLinetypeTableRecord
  2
BYLAYER
 70
     0
  3

 72
    65
 73
     0
 40
0.0
  0
LTYPE
  5
25
330
21
100
AcDbSymbolTableRecord
100
AcDbLinetypeTableRecord
  2
CONTINUOUS
 70
     0
  3
Solid line
 72
    65
 73
     0
 40
0.0
  0
ENDTAB
  0
TABLE
  2
LAYER
  5
B8B
330
0
100
AcDbSymbolTable
 70
389
  0
LAYER
  5
B8C
330
B8B
100
AcDbSymbolTableRecord
100
AcDbLayerTableRecord
  2
0
 70
   0
 62
   7
  6
CONTINUOUS
  0
LAYER
  5
B8D
330
B8B
100
AcDbSymbolTableRecord
100
AcDbLayerTableRecord
  2
none
 70
    0
 62
    7
  6
CONTINUOUS
  0
LAYER
  5
B8E
330
B8B
100
AcDbSymbolTableRecord
100
AcDbLayerTableRecord
  2
Shape548
 70
    0
 62
    7
  6
CONTINUOUS
  0
LAYER
  5
B8F
330
B8B
100
AcDbSymbolTableRecord
100
AcDbLayerTableRecord
  2
Shape549
 70
    0
 62
    7
  6
CONTINUOUS
  0
LAYER
  5
B90
330
B8B
100
AcDbSymbolTableRecord
100
AcDbLayerTableRecord
  2
Shape550
 70
    0
 62
    7
  6
CONTINUOUS
  0
LAYER
  5
B91
330
B8B
100
AcDbSymbolTableRecord
100
AcDbLayerTableRecord
  2
Shape551
 70
    0
 62
    7
  6
CONTINUOUS
  0
LAYER
  5
B92
330
B8B
100
AcDbSymbolTableRecord
100
AcDbLayerTableRecord
  2
Shape552
 70
    0
 62
    7
  6
CONTINUOUS
  0
LAYER
  5
B93
330
B8B
100
AcDbSymbolTableRecord
100
AcDbLayerTableRecord
  2
Shape553
 70
    0
 62
    7
  6
CONTINUOUS
  0
LAYER
  5
B94
330
B8B
100
AcDbSymbolTableRecord
100
AcDbLayerTableRecord
  2
Shape754
 70
    0
 62
    7
  6
CONTINUOUS
  0
LAYER
  5
B95
330
B8B
100
AcDbSymbolTableRecord
100
AcDbLayerTableRecord
  2
Shape755
 70
    0
 62
    7
  6
CONTINUOUS
  0
LAYER
  5
B96
330
B8B
100
AcDbSymbolTableRecord
100
AcDbLayerTableRecord
  2
Shape756
 70
    0
 62
    7
  6
CONTINUOUS
  0
LAYER
  5
B97
330
B8B
100
AcDbSymbolTableRecord
100
AcDbLayerTableRecord
  2
Shape757
 70
    0
 62
    7
  6
CONTINUOUS
  0
LAYER
  5
B98
330
B8B
100
AcDbSymbolTableRecord
100
AcDbLayerTableRecord
  2
Shape758
 70
    0
 62
    7
  6
CONTINUOUS
  0
LAYER
  5
B99
330
B8B
100
AcDbSymbolTableRecord
100
AcDbLayerTableRecord
  2
Shape759
 70
    0
 62
    7
  6
CONTINUOUS
  0
LAYER
  5
B9A
330
B8B
100
AcDbSymbolTableRecord
100
AcDbLayerTableRecord
  2
Shape760
 70
    0
 62
    7
  6
CONTINUOUS
  0
LAYER
  5
B9B
330
B8B
100
AcDbSymbolTableRecord
100
AcDbLayerTableRecord
  2
Shape761
 70
    0
 62
    7
  6
CONTINUOUS
  0
LAYER
  5
B9C
330
B8B
100
AcDbSymbolTableRecord
100
AcDbLayerTableRecord
  2
Shape762
 70
    0
 62
    7
  6
CONTINUOUS
  0
LAYER
  5
B9D
330
B8B
100
AcDbSymbolTableRecord
100
AcDbLayerTableRecord
  2
Shape763
 70
    0
 62
    7
  6
CONTINUOUS
  0
LAYER
  5
B9E
330
B8B
100
AcDbSymbolTableRecord
100
AcDbLayerTableRecord
  2
Shape764
 70
    0
 62
    7
  6
CONTINUOUS
  0
LAYER
  5
B9F
330
B8B
100
AcDbSymbolTableRecord
100
AcDbLayerTableRecord
  2
Shape765
 70
    0
 62
    7
  6
CONTINUOUS
  0
LAYER
  5
BA0
330
B8B
100
AcDbSymbolTableRecord
100
AcDbLayerTableRecord
  2
Shape766
 70
    0
 62
    7
  6
CONTINUOUS
  0
LAYER
  5
BA1
330
B8B
100
AcDbSymbolTableRecord
100
AcDbLayerTableRecord
  2
Shape767
 70
    0
 62
    7
  6
CONTINUOUS
  0
LAYER
  5
BA2
330
B8B
100
AcDbSymbolTableRecord
100
AcDbLayerTableRecord
  2
Shape768
 70
    0
 62
    7
  6
CONTINUOUS
  0
LAYER
  5
BA3
330
B8B
100
AcDbSymbolTableRecord
100
AcDbLayerTableRecord
  2
Shape769
 70
    0
 62
    7
  6
CONTINUOUS
  0
LAYER
  5
BA4
330
B8B
100
AcDbSymbolTableRecord
100
AcDbLayerTableRecord
  2
Shape770
 70
    0
 62
    7
  6
CONTINUOUS
  0
LAYER
  5
BA5
330
B8B
100
AcDbSymbolTableRecord
100
AcDbLayerTableRecord
  2
Shape771
 70
    0
 62
    7
  6
CONTINUOUS
  0
LAYER
  5
BA6
330
B8B
100
AcDbSymbolTableRecord
100
AcDbLayerTableRecord
  2
Shape772
 70
    0
 62
    7
  6
CONTINUOUS
  0
LAYER
  5
BA7
330
B8B
100
AcDbSymbolTableRecord
100
AcDbLayerTableRecord
  2
Shape773
 70
    0
 62
    7
  6
CONTINUOUS
  0
LAYER
  5
BA8
330
B8B
100
AcDbSymbolTableRecord
100
AcDbLayerTableRecord
  2
Shape774
 70
    0
 62
    7
  6
CONTINUOUS
  0
LAYER
  5
BA9
330
B8B
100
AcDbSymbolTableRecord
100
AcDbLayerTableRecord
  2
Shape775
 70
    0
 62
    7
  6
CONTINUOUS
  0
LAYER
  5
BAA
330
B8B
100
AcDbSymbolTableRecord
100
AcDbLayerTableRecord
  2
Shape776
 70
    0
 62
    7
  6
CONTINUOUS
  0
LAYER
  5
BAB
330
B8B
100
AcDbSymbolTableRecord
100
AcDbLayerTableRecord
  2
Shape777
 70
    0
 62
    7
  6
CONTINUOUS
  0
LAYER
  5
BAC
330
B8B
100
AcDbSymbolTableRecord
100
AcDbLayerTableRecord
  2
Shape778
 70
    0
 62
    7
  6
CONTINUOUS
  0
LAYER
  5
BAD
330
B8B
100
AcDbSymbolTableRecord
100
AcDbLayerTableRecord
  2
Shape779
 70
    0
 62
    7
  6
CONTINUOUS
  0
LAYER
  5
BAE
330
B8B
100
AcDbSymbolTableRecord
100
AcDbLayerTableRecord
  2
Shape780
 70
    0
 62
    7
  6
CONTINUOUS
  0
LAYER
  5
BAF
330
B8B
100
AcDbSymbolTableRecord
100
AcDbLayerTableRecord
  2
Shape781
 70
    0
 62
    7
  6
CONTINUOUS
  0
LAYER
  5
BB0
330
B8B
100
AcDbSymbolTableRecord
100
AcDbLayerTableRecord
  2
Shape782
 70
    0
 62
    7
  6
CONTINUOUS
  0
LAYER
  5
BB1
330
B8B
100
AcDbSymbolTableRecord
100
AcDbLayerTableRecord
  2
Shape783
 70
    0
 62
    7
  6
CONTINUOUS
  0
LAYER
  5
BB2
330
B8B
100
AcDbSymbolTableRecord
100
AcDbLayerTableRecord
  2
Shape784
 70
    0
 62
    7
  6
CONTINUOUS
  0
LAYER
  5
BB3
330
B8B
100
AcDbSymbolTableRecord
100
AcDbLayerTableRecord
  2
Shape785
 70
    0
 62
    7
  6
CONTINUOUS
  0
LAYER
  5
BB4
330
B8B
100
AcDbSymbolTableRecord
100
AcDbLayerTableRecord
  2
Shape786
 70
    0
 62
    7
  6
CONTINUOUS
  0
LAYER
  5
BB5
330
B8B
100
AcDbSymbolTableRecord
100
AcDbLayerTableRecord
  2
Shape787
 70
    0
 62
    7
  6
CONTINUOUS
  0
LAYER
  5
BB6
330
B8B
100
AcDbSymbolTableRecord
100
AcDbLayerTableRecord
  2
Shape788
 70
    0
 62
    7
  6
CONTINUOUS
  0
LAYER
  5
BB7
330
B8B
100
AcDbSymbolTableRecord
100
AcDbLayerTableRecord
  2
Shape789
 70
    0
 62
    7
  6
CONTINUOUS
  0
LAYER
  5
BB8
330
B8B
100
AcDbSymbolTableRecord
100
AcDbLayerTableRecord
  2
Shape790
 70
    0
 62
    7
  6
CONTINUOUS
  0
LAYER
  5
BB9
330
B8B
100
AcDbSymbolTableRecord
100
AcDbLayerTableRecord
  2
Shape791
 70
    0
 62
    7
  6
CONTINUOUS
  0
LAYER
  5
BBA
330
B8B
100
AcDbSymbolTableRecord
100
AcDbLayerTableRecord
  2
Shape792
 70
    0
 62
    7
  6
CONTINUOUS
  0
LAYER
  5
BBB
330
B8B
100
AcDbSymbolTableRecord
100
AcDbLayerTableRecord
  2
Shape793
 70
    0
 62
    7
  6
CONTINUOUS
  0
LAYER
  5
BBC
330
B8B
100
AcDbSymbolTableRecord
100
AcDbLayerTableRecord
  2
Shape794
 70
    0
 62
    7
  6
CONTINUOUS
  0
LAYER
  5
BBD
330
B8B
100
AcDbSymbolTableRecord
100
AcDbLayerTableRecord
  2
Shape795
 70
    0
 62
    7
  6
CONTINUOUS
  0
LAYER
  5
BBE
330
B8B
100
AcDbSymbolTableRecord
100
AcDbLayerTableRecord
  2
Shape796
 70
    0
 62
    7
  6
CONTINUOUS
  0
LAYER
  5
BBF
330
B8B
100
AcDbSymbolTableRecord
100
AcDbLayerTableRecord
  2
Shape797
 70
    0
 62
    7
  6
CONTINUOUS
  0
LAYER
  5
BC0
330
B8B
100
AcDbSymbolTableRecord
100
AcDbLayerTableRecord
  2
Shape798
 70
    0
 62
    7
  6
CONTINUOUS
  0
LAYER
  5
BC1
330
B8B
100
AcDbSymbolTableRecord
100
AcDbLayerTableRecord
  2
Shape799
 70
    0
 62
    7
  6
CONTINUOUS
  0
LAYER
  5
BC2
330
B8B
100
AcDbSymbolTableRecord
100
AcDbLayerTableRecord
  2
Shape800
 70
    0
 62
    7
  6
CONTINUOUS
  0
LAYER
  5
BC3
330
B8B
100
AcDbSymbolTableRecord
100
AcDbLayerTableRecord
  2
Shape801
 70
    0
 62
    7
  6
CONTINUOUS
  0
LAYER
  5
BC4
330
B8B
100
AcDbSymbolTableRecord
100
AcDbLayerTableRecord
  2
Shape802
 70
    0
 62
    7
  6
CONTINUOUS
  0
LAYER
  5
BC5
330
B8B
100
AcDbSymbolTableRecord
100
AcDbLayerTableRecord
  2
Shape803
 70
    0
 62
    7
  6
CONTINUOUS
  0
LAYER
  5
BC6
330
B8B
100
AcDbSymbolTableRecord
100
AcDbLayerTableRecord
  2
Shape804
 70
    0
 62
    7
  6
CONTINUOUS
  0
LAYER
  5
BC7
330
B8B
100
AcDbSymbolTableRecord
100
AcDbLayerTableRecord
  2
Shape805
 70
    0
 62
    7
  6
CONTINUOUS
  0
LAYER
  5
BC8
330
B8B
100
AcDbSymbolTableRecord
100
AcDbLayerTableRecord
  2
Shape806
 70
    0
 62
    7
  6
CONTINUOUS
  0
LAYER
  5
BC9
330
B8B
100
AcDbSymbolTableRecord
100
AcDbLayerTableRecord
  2
Shape807
 70
    0
 62
    7
  6
CONTINUOUS
  0
LAYER
  5
BCA
330
B8B
100
AcDbSymbolTableRecord
100
AcDbLayerTableRecord
  2
Shape808
 70
    0
 62
    7
  6
CONTINUOUS
  0
LAYER
  5
BCB
330
B8B
100
AcDbSymbolTableRecord
100
AcDbLayerTableRecord
  2
Shape809
 70
    0
 62
    7
  6
CONTINUOUS
  0
LAYER
  5
BCC
330
B8B
100
AcDbSymbolTableRecord
100
AcDbLayerTableRecord
  2
Shape810
 70
    0
 62
    7
  6
CONTINUOUS
  0
LAYER
  5
BCD
330
B8B
100
AcDbSymbolTableRecord
100
AcDbLayerTableRecord
  2
Shape811
 70
    0
 62
    7
  6
CONTINUOUS
  0
LAYER
  5
BCE
330
B8B
100
AcDbSymbolTableRecord
100
AcDbLayerTableRecord
  2
Shape812
 70
    0
 62
    7
  6
CONTINUOUS
  0
LAYER
  5
BCF
330
B8B
100
AcDbSymbolTableRecord
100
AcDbLayerTableRecord
  2
Shape813
 70
    0
 62
    7
  6
CONTINUOUS
  0
LAYER
  5
BD0
330
B8B
100
AcDbSymbolTableRecord
100
AcDbLayerTableRecord
  2
Shape814
 70
    0
 62
    7
  6
CONTINUOUS
  0
LAYER
  5
BD1
330
B8B
100
AcDbSymbolTableRecord
100
AcDbLayerTableRecord
  2
Shape815
 70
    0
 62
    7
  6
CONTINUOUS
  0
LAYER
  5
BD2
330
B8B
100
AcDbSymbolTableRecord
100
AcDbLayerTableRecord
  2
Shape816
 70
    0
 62
    7
  6
CONTINUOUS
  0
LAYER
  5
BD3
330
B8B
100
AcDbSymbolTableRecord
100
AcDbLayerTableRecord
  2
Shape817
 70
    0
 62
    7
  6
CONTINUOUS
  0
LAYER
  5
BD4
330
B8B
100
AcDbSymbolTableRecord
100
AcDbLayerTableRecord
  2
Shape818
 70
    0
 62
    7
  6
CONTINUOUS
  0
LAYER
  5
BD5
330
B8B
100
AcDbSymbolTableRecord
100
AcDbLayerTableRecord
  2
Shape819
 70
    0
 62
    7
  6
CONTINUOUS
  0
LAYER
  5
BD6
330
B8B
100
AcDbSymbolTableRecord
100
AcDbLayerTableRecord
  2
Shape820
 70
    0
 62
    7
  6
CONTINUOUS
  0
LAYER
  5
BD7
330
B8B
100
AcDbSymbolTableRecord
100
AcDbLayerTableRecord
  2
Shape821
 70
    0
 62
    7
  6
CONTINUOUS
  0
LAYER
  5
BD8
330
B8B
100
AcDbSymbolTableRecord
100
AcDbLayerTableRecord
  2
Shape822
 70
    0
 62
    7
  6
CONTINUOUS
  0
LAYER
  5
BD9
330
B8B
100
AcDbSymbolTableRecord
100
AcDbLayerTableRecord
  2
Shape823
 70
    0
 62
    7
  6
CONTINUOUS
  0
LAYER
  5
BDA
330
B8B
100
AcDbSymbolTableRecord
100
AcDbLayerTableRecord
  2
Shape824
 70
    0
 62
    7
  6
CONTINUOUS
  0
LAYER
  5
BDB
330
B8B
100
AcDbSymbolTableRecord
100
AcDbLayerTableRecord
  2
Shape825
 70
    0
 62
    7
  6
CONTINUOUS
  0
LAYER
  5
BDC
330
B8B
100
AcDbSymbolTableRecord
100
AcDbLayerTableRecord
  2
Shape826
 70
    0
 62
    7
  6
CONTINUOUS
  0
LAYER
  5
BDD
330
B8B
100
AcDbSymbolTableRecord
100
AcDbLayerTableRecord
  2
Shape827
 70
    0
 62
    7
  6
CONTINUOUS
  0
LAYER
  5
BDE
330
B8B
100
AcDbSymbolTableRecord
100
AcDbLayerTableRecord
  2
Shape828
 70
    0
 62
    7
  6
CONTINUOUS
  0
LAYER
  5
BDF
330
B8B
100
AcDbSymbolTableRecord
100
AcDbLayerTableRecord
  2
Shape829
 70
    0
 62
    7
  6
CONTINUOUS
  0
LAYER
  5
BE0
330
B8B
100
AcDbSymbolTableRecord
100
AcDbLayerTableRecord
  2
Shape830
 70
    0
 62
    7
  6
CONTINUOUS
  0
LAYER
  5
BE1
330
B8B
100
AcDbSymbolTableRecord
100
AcDbLayerTableRecord
  2
Shape831
 70
    0
 62
    7
  6
CONTINUOUS
  0
LAYER
  5
BE2
330
B8B
100
AcDbSymbolTableRecord
100
AcDbLayerTableRecord
  2
Shape832
 70
    0
 62
    7
  6
CONTINUOUS
  0
LAYER
  5
BE3
330
B8B
100
AcDbSymbolTableRecord
100
AcDbLayerTableRecord
  2
Shape833
 70
    0
 62
    7
  6
CONTINUOUS
  0
LAYER
  5
BE4
330
B8B
100
AcDbSymbolTableRecord
100
AcDbLayerTableRecord
  2
Shape834
 70
    0
 62
    7
  6
CONTINUOUS
  0
LAYER
  5
BE5
330
B8B
100
AcDbSymbolTableRecord
100
AcDbLayerTableRecord
  2
Shape835
 70
    0
 62
    7
  6
CONTINUOUS
  0
LAYER
  5
BE6
330
B8B
100
AcDbSymbolTableRecord
100
AcDbLayerTableRecord
  2
Shape836
 70
    0
 62
    7
  6
CONTINUOUS
  0
LAYER
  5
BE7
330
B8B
100
AcDbSymbolTableRecord
100
AcDbLayerTableRecord
  2
Shape837
 70
    0
 62
    7
  6
CONTINUOUS
  0
LAYER
  5
BE8
330
B8B
100
AcDbSymbolTableRecord
100
AcDbLayerTableRecord
  2
Shape838
 70
    0
 62
    7
  6
CONTINUOUS
  0
LAYER
  5
BE9
330
B8B
100
AcDbSymbolTableRecord
100
AcDbLayerTableRecord
  2
Shape839
 70
    0
 62
    7
  6
CONTINUOUS
  0
LAYER
  5
BEA
330
B8B
100
AcDbSymbolTableRecord
100
AcDbLayerTableRecord
  2
Shape840
 70
    0
 62
    7
  6
CONTINUOUS
  0
LAYER
  5
BEB
330
B8B
100
AcDbSymbolTableRecord
100
AcDbLayerTableRecord
  2
Shape841
 70
    0
 62
    7
  6
CONTINUOUS
  0
LAYER
  5
BEC
330
B8B
100
AcDbSymbolTableRecord
100
AcDbLayerTableRecord
  2
Shape842
 70
    0
 62
    7
  6
CONTINUOUS
  0
LAYER
  5
BED
330
B8B
100
AcDbSymbolTableRecord
100
AcDbLayerTableRecord
  2
Shape843
 70
    0
 62
    7
  6
CONTINUOUS
  0
LAYER
  5
BEE
330
B8B
100
AcDbSymbolTableRecord
100
AcDbLayerTableRecord
  2
Shape844
 70
    0
 62
    7
  6
CONTINUOUS
  0
LAYER
  5
BEF
330
B8B
100
AcDbSymbolTableRecord
100
AcDbLayerTableRecord
  2
Shape845
 70
    0
 62
    7
  6
CONTINUOUS
  0
LAYER
  5
BF0
330
B8B
100
AcDbSymbolTableRecord
100
AcDbLayerTableRecord
  2
Shape846
 70
    0
 62
    7
  6
CONTINUOUS
  0
LAYER
  5
BF1
330
B8B
100
AcDbSymbolTableRecord
100
AcDbLayerTableRecord
  2
Shape847
 70
    0
 62
    7
  6
CONTINUOUS
  0
LAYER
  5
BF2
330
B8B
100
AcDbSymbolTableRecord
100
AcDbLayerTableRecord
  2
Shape848
 70
    0
 62
    7
  6
CONTINUOUS
  0
LAYER
  5
BF3
330
B8B
100
AcDbSymbolTableRecord
100
AcDbLayerTableRecord
  2
Shape849
 70
    0
 62
    7
  6
CONTINUOUS
  0
LAYER
  5
BF4
330
B8B
100
AcDbSymbolTableRecord
100
AcDbLayerTableRecord
  2
Shape850
 70
    0
 62
    7
  6
CONTINUOUS
  0
LAYER
  5
BF5
330
B8B
100
AcDbSymbolTableRecord
100
AcDbLayerTableRecord
  2
Shape851
 70
    0
 62
    7
  6
CONTINUOUS
  0
LAYER
  5
BF6
330
B8B
100
AcDbSymbolTableRecord
100
AcDbLayerTableRecord
  2
Shape852
 70
    0
 62
    7
  6
CONTINUOUS
  0
LAYER
  5
BF7
330
B8B
100
AcDbSymbolTableRecord
100
AcDbLayerTableRecord
  2
Shape853
 70
    0
 62
    7
  6
CONTINUOUS
  0
LAYER
  5
BF8
330
B8B
100
AcDbSymbolTableRecord
100
AcDbLayerTableRecord
  2
Shape854
 70
    0
 62
    7
  6
CONTINUOUS
  0
LAYER
  5
BF9
330
B8B
100
AcDbSymbolTableRecord
100
AcDbLayerTableRecord
  2
Shape855
 70
    0
 62
    7
  6
CONTINUOUS
  0
LAYER
  5
BFA
330
B8B
100
AcDbSymbolTableRecord
100
AcDbLayerTableRecord
  2
Shape856
 70
    0
 62
    7
  6
CONTINUOUS
  0
LAYER
  5
BFB
330
B8B
100
AcDbSymbolTableRecord
100
AcDbLayerTableRecord
  2
Shape857
 70
    0
 62
    7
  6
CONTINUOUS
  0
LAYER
  5
BFC
330
B8B
100
AcDbSymbolTableRecord
100
AcDbLayerTableRecord
  2
Shape858
 70
    0
 62
    7
  6
CONTINUOUS
  0
LAYER
  5
BFD
330
B8B
100
AcDbSymbolTableRecord
100
AcDbLayerTableRecord
  2
Shape859
 70
    0
 62
    7
  6
CONTINUOUS
  0
LAYER
  5
BFE
330
B8B
100
AcDbSymbolTableRecord
100
AcDbLayerTableRecord
  2
Shape860
 70
    0
 62
    7
  6
CONTINUOUS
  0
LAYER
  5
BFF
330
B8B
100
AcDbSymbolTableRecord
100
AcDbLayerTableRecord
  2
Shape861
 70
    0
 62
    7
  6
CONTINUOUS
  0
LAYER
  5
C00
330
B8B
100
AcDbSymbolTableRecord
100
AcDbLayerTableRecord
  2
Shape862
 70
    0
 62
    7
  6
CONTINUOUS
  0
LAYER
  5
C01
330
B8B
100
AcDbSymbolTableRecord
100
AcDbLayerTableRecord
  2
Shape863
 70
    0
 62
    7
  6
CONTINUOUS
  0
LAYER
  5
C02
330
B8B
100
AcDbSymbolTableRecord
100
AcDbLayerTableRecord
  2
Shape864
 70
    0
 62
    7
  6
CONTINUOUS
  0
LAYER
  5
C03
330
B8B
100
AcDbSymbolTableRecord
100
AcDbLayerTableRecord
  2
Shape865
 70
    0
 62
    7
  6
CONTINUOUS
  0
LAYER
  5
C04
330
B8B
100
AcDbSymbolTableRecord
100
AcDbLayerTableRecord
  2
Shape866
 70
    0
 62
    7
  6
CONTINUOUS
  0
LAYER
  5
C05
330
B8B
100
AcDbSymbolTableRecord
100
AcDbLayerTableRecord
  2
Shape867
 70
    0
 62
    7
  6
CONTINUOUS
  0
LAYER
  5
C06
330
B8B
100
AcDbSymbolTableRecord
100
AcDbLayerTableRecord
  2
Shape868
 70
    0
 62
    7
  6
CONTINUOUS
  0
LAYER
  5
C07
330
B8B
100
AcDbSymbolTableRecord
100
AcDbLayerTableRecord
  2
Shape869
 70
    0
 62
    7
  6
CONTINUOUS
  0
LAYER
  5
C08
330
B8B
100
AcDbSymbolTableRecord
100
AcDbLayerTableRecord
  2
Shape870
 70
    0
 62
    7
  6
CONTINUOUS
  0
LAYER
  5
C09
330
B8B
100
AcDbSymbolTableRecord
100
AcDbLayerTableRecord
  2
Shape871
 70
    0
 62
    7
  6
CONTINUOUS
  0
LAYER
  5
C0A
330
B8B
100
AcDbSymbolTableRecord
100
AcDbLayerTableRecord
  2
Shape872
 70
    0
 62
    7
  6
CONTINUOUS
  0
LAYER
  5
C0B
330
B8B
100
AcDbSymbolTableRecord
100
AcDbLayerTableRecord
  2
Shape873
 70
    0
 62
    7
  6
CONTINUOUS
  0
LAYER
  5
C0C
330
B8B
100
AcDbSymbolTableRecord
100
AcDbLayerTableRecord
  2
Shape874
 70
    0
 62
    7
  6
CONTINUOUS
  0
LAYER
  5
C0D
330
B8B
100
AcDbSymbolTableRecord
100
AcDbLayerTableRecord
  2
Shape875
 70
    0
 62
    7
  6
CONTINUOUS
  0
LAYER
  5
C0E
330
B8B
100
AcDbSymbolTableRecord
100
AcDbLayerTableRecord
  2
Shape876
 70
    0
 62
    7
  6
CONTINUOUS
  0
LAYER
  5
C0F
330
B8B
100
AcDbSymbolTableRecord
100
AcDbLayerTableRecord
  2
Shape877
 70
    0
 62
    7
  6
CONTINUOUS
  0
LAYER
  5
C10
330
B8B
100
AcDbSymbolTableRecord
100
AcDbLayerTableRecord
  2
Shape878
 70
    0
 62
    7
  6
CONTINUOUS
  0
LAYER
  5
C11
330
B8B
100
AcDbSymbolTableRecord
100
AcDbLayerTableRecord
  2
Shape879
 70
    0
 62
    7
  6
CONTINUOUS
  0
LAYER
  5
C12
330
B8B
100
AcDbSymbolTableRecord
100
AcDbLayerTableRecord
  2
Shape880
 70
    0
 62
    7
  6
CONTINUOUS
  0
LAYER
  5
C13
330
B8B
100
AcDbSymbolTableRecord
100
AcDbLayerTableRecord
  2
Shape881
 70
    0
 62
    7
  6
CONTINUOUS
  0
LAYER
  5
C14
330
B8B
100
AcDbSymbolTableRecord
100
AcDbLayerTableRecord
  2
Shape882
 70
    0
 62
    7
  6
CONTINUOUS
  0
LAYER
  5
C15
330
B8B
100
AcDbSymbolTableRecord
100
AcDbLayerTableRecord
  2
Shape883
 70
    0
 62
    7
  6
CONTINUOUS
  0
LAYER
  5
C16
330
B8B
100
AcDbSymbolTableRecord
100
AcDbLayerTableRecord
  2
Shape884
 70
    0
 62
    7
  6
CONTINUOUS
  0
LAYER
  5
C17
330
B8B
100
AcDbSymbolTableRecord
100
AcDbLayerTableRecord
  2
Shape885
 70
    0
 62
    7
  6
CONTINUOUS
  0
LAYER
  5
C18
330
B8B
100
AcDbSymbolTableRecord
100
AcDbLayerTableRecord
  2
Shape886
 70
    0
 62
    7
  6
CONTINUOUS
  0
LAYER
  5
C19
330
B8B
100
AcDbSymbolTableRecord
100
AcDbLayerTableRecord
  2
Shape887
 70
    0
 62
    7
  6
CONTINUOUS
  0
LAYER
  5
C1A
330
B8B
100
AcDbSymbolTableRecord
100
AcDbLayerTableRecord
  2
Shape888
 70
    0
 62
    7
  6
CONTINUOUS
  0
LAYER
  5
C1B
330
B8B
100
AcDbSymbolTableRecord
100
AcDbLayerTableRecord
  2
Shape889
 70
    0
 62
    7
  6
CONTINUOUS
  0
LAYER
  5
C1C
330
B8B
100
AcDbSymbolTableRecord
100
AcDbLayerTableRecord
  2
Shape890
 70
    0
 62
    7
  6
CONTINUOUS
  0
LAYER
  5
C1D
330
B8B
100
AcDbSymbolTableRecord
100
AcDbLayerTableRecord
  2
Shape891
 70
    0
 62
    7
  6
CONTINUOUS
  0
LAYER
  5
C1E
330
B8B
100
AcDbSymbolTableRecord
100
AcDbLayerTableRecord
  2
Shape892
 70
    0
 62
    7
  6
CONTINUOUS
  0
LAYER
  5
C1F
330
B8B
100
AcDbSymbolTableRecord
100
AcDbLayerTableRecord
  2
Shape893
 70
    0
 62
    7
  6
CONTINUOUS
  0
LAYER
  5
C20
330
B8B
100
AcDbSymbolTableRecord
100
AcDbLayerTableRecord
  2
Shape894
 70
    0
 62
    7
  6
CONTINUOUS
  0
LAYER
  5
C21
330
B8B
100
AcDbSymbolTableRecord
100
AcDbLayerTableRecord
  2
Shape895
 70
    0
 62
    7
  6
CONTINUOUS
  0
LAYER
  5
C22
330
B8B
100
AcDbSymbolTableRecord
100
AcDbLayerTableRecord
  2
Shape896
 70
    0
 62
    7
  6
CONTINUOUS
  0
LAYER
  5
C23
330
B8B
100
AcDbSymbolTableRecord
100
AcDbLayerTableRecord
  2
Shape897
 70
    0
 62
    7
  6
CONTINUOUS
  0
LAYER
  5
C24
330
B8B
100
AcDbSymbolTableRecord
100
AcDbLayerTableRecord
  2
Shape898
 70
    0
 62
    7
  6
CONTINUOUS
  0
LAYER
  5
C25
330
B8B
100
AcDbSymbolTableRecord
100
AcDbLayerTableRecord
  2
Shape899
 70
    0
 62
    7
  6
CONTINUOUS
  0
LAYER
  5
C26
330
B8B
100
AcDbSymbolTableRecord
100
AcDbLayerTableRecord
  2
Shape900
 70
    0
 62
    7
  6
CONTINUOUS
  0
LAYER
  5
C27
330
B8B
100
AcDbSymbolTableRecord
100
AcDbLayerTableRecord
  2
Shape901
 70
    0
 62
    7
  6
CONTINUOUS
  0
LAYER
  5
C28
330
B8B
100
AcDbSymbolTableRecord
100
AcDbLayerTableRecord
  2
Shape902
 70
    0
 62
    7
  6
CONTINUOUS
  0
LAYER
  5
C29
330
B8B
100
AcDbSymbolTableRecord
100
AcDbLayerTableRecord
  2
Shape903
 70
    0
 62
    7
  6
CONTINUOUS
  0
LAYER
  5
C2A
330
B8B
100
AcDbSymbolTableRecord
100
AcDbLayerTableRecord
  2
Shape904
 70
    0
 62
    7
  6
CONTINUOUS
  0
LAYER
  5
C2B
330
B8B
100
AcDbSymbolTableRecord
100
AcDbLayerTableRecord
  2
Shape905
 70
    0
 62
    7
  6
CONTINUOUS
  0
LAYER
  5
C2C
330
B8B
100
AcDbSymbolTableRecord
100
AcDbLayerTableRecord
  2
Shape906
 70
    0
 62
    7
  6
CONTINUOUS
  0
LAYER
  5
C2D
330
B8B
100
AcDbSymbolTableRecord
100
AcDbLayerTableRecord
  2
Shape907
 70
    0
 62
    7
  6
CONTINUOUS
  0
LAYER
  5
C2E
330
B8B
100
AcDbSymbolTableRecord
100
AcDbLayerTableRecord
  2
Shape908
 70
    0
 62
    7
  6
CONTINUOUS
  0
LAYER
  5
C2F
330
B8B
100
AcDbSymbolTableRecord
100
AcDbLayerTableRecord
  2
Shape909
 70
    0
 62
    7
  6
CONTINUOUS
  0
LAYER
  5
C30
330
B8B
100
AcDbSymbolTableRecord
100
AcDbLayerTableRecord
  2
Shape910
 70
    0
 62
    7
  6
CONTINUOUS
  0
LAYER
  5
C31
330
B8B
100
AcDbSymbolTableRecord
100
AcDbLayerTableRecord
  2
Shape911
 70
    0
 62
    7
  6
CONTINUOUS
  0
LAYER
  5
C32
330
B8B
100
AcDbSymbolTableRecord
100
AcDbLayerTableRecord
  2
Shape912
 70
    0
 62
    7
  6
CONTINUOUS
  0
LAYER
  5
C33
330
B8B
100
AcDbSymbolTableRecord
100
AcDbLayerTableRecord
  2
Shape913
 70
    0
 62
    7
  6
CONTINUOUS
  0
LAYER
  5
C34
330
B8B
100
AcDbSymbolTableRecord
100
AcDbLayerTableRecord
  2
Shape914
 70
    0
 62
    7
  6
CONTINUOUS
  0
LAYER
  5
C35
330
B8B
100
AcDbSymbolTableRecord
100
AcDbLayerTableRecord
  2
Shape915
 70
    0
 62
    7
  6
CONTINUOUS
  0
LAYER
  5
C36
330
B8B
100
AcDbSymbolTableRecord
100
AcDbLayerTableRecord
  2
Shape916
 70
    0
 62
    7
  6
CONTINUOUS
  0
LAYER
  5
C37
330
B8B
100
AcDbSymbolTableRecord
100
AcDbLayerTableRecord
  2
Shape917
 70
    0
 62
    7
  6
CONTINUOUS
  0
LAYER
  5
C38
330
B8B
100
AcDbSymbolTableRecord
100
AcDbLayerTableRecord
  2
Shape918
 70
    0
 62
    7
  6
CONTINUOUS
  0
LAYER
  5
C39
330
B8B
100
AcDbSymbolTableRecord
100
AcDbLayerTableRecord
  2
Shape919
 70
    0
 62
    7
  6
CONTINUOUS
  0
LAYER
  5
C3A
330
B8B
100
AcDbSymbolTableRecord
100
AcDbLayerTableRecord
  2
Shape920
 70
    0
 62
    7
  6
CONTINUOUS
  0
LAYER
  5
C3B
330
B8B
100
AcDbSymbolTableRecord
100
AcDbLayerTableRecord
  2
Shape921
 70
    0
 62
    7
  6
CONTINUOUS
  0
LAYER
  5
C3C
330
B8B
100
AcDbSymbolTableRecord
100
AcDbLayerTableRecord
  2
Shape922
 70
    0
 62
    7
  6
CONTINUOUS
  0
LAYER
  5
C3D
330
B8B
100
AcDbSymbolTableRecord
100
AcDbLayerTableRecord
  2
Shape923
 70
    0
 62
    7
  6
CONTINUOUS
  0
LAYER
  5
C3E
330
B8B
100
AcDbSymbolTableRecord
100
AcDbLayerTableRecord
  2
Shape924
 70
    0
 62
    7
  6
CONTINUOUS
  0
LAYER
  5
C3F
330
B8B
100
AcDbSymbolTableRecord
100
AcDbLayerTableRecord
  2
Shape925
 70
    0
 62
    7
  6
CONTINUOUS
  0
LAYER
  5
C40
330
B8B
100
AcDbSymbolTableRecord
100
AcDbLayerTableRecord
  2
Shape926
 70
    0
 62
    7
  6
CONTINUOUS
  0
LAYER
  5
C41
330
B8B
100
AcDbSymbolTableRecord
100
AcDbLayerTableRecord
  2
Shape927
 70
    0
 62
    7
  6
CONTINUOUS
  0
LAYER
  5
C42
330
B8B
100
AcDbSymbolTableRecord
100
AcDbLayerTableRecord
  2
Shape928
 70
    0
 62
    7
  6
CONTINUOUS
  0
LAYER
  5
C43
330
B8B
100
AcDbSymbolTableRecord
100
AcDbLayerTableRecord
  2
Shape929
 70
    0
 62
    7
  6
CONTINUOUS
  0
LAYER
  5
C44
330
B8B
100
AcDbSymbolTableRecord
100
AcDbLayerTableRecord
  2
Shape930
 70
    0
 62
    7
  6
CONTINUOUS
  0
LAYER
  5
C45
330
B8B
100
AcDbSymbolTableRecord
100
AcDbLayerTableRecord
  2
Shape931
 70
    0
 62
    7
  6
CONTINUOUS
  0
LAYER
  5
C46
330
B8B
100
AcDbSymbolTableRecord
100
AcDbLayerTableRecord
  2
Shape932
 70
    0
 62
    7
  6
CONTINUOUS
  0
LAYER
  5
C47
330
B8B
100
AcDbSymbolTableRecord
100
AcDbLayerTableRecord
  2
Shape933
 70
    0
 62
    7
  6
CONTINUOUS
  0
LAYER
  5
C48
330
B8B
100
AcDbSymbolTableRecord
100
AcDbLayerTableRecord
  2
Shape934
 70
    0
 62
    7
  6
CONTINUOUS
  0
LAYER
  5
C49
330
B8B
100
AcDbSymbolTableRecord
100
AcDbLayerTableRecord
  2
Shape935
 70
    0
 62
    7
  6
CONTINUOUS
  0
LAYER
  5
C4A
330
B8B
100
AcDbSymbolTableRecord
100
AcDbLayerTableRecord
  2
Shape936
 70
    0
 62
    7
  6
CONTINUOUS
  0
LAYER
  5
C4B
330
B8B
100
AcDbSymbolTableRecord
100
AcDbLayerTableRecord
  2
Shape937
 70
    0
 62
    7
  6
CONTINUOUS
  0
LAYER
  5
C4C
330
B8B
100
AcDbSymbolTableRecord
100
AcDbLayerTableRecord
  2
Shape938
 70
    0
 62
    7
  6
CONTINUOUS
  0
LAYER
  5
C4D
330
B8B
100
AcDbSymbolTableRecord
100
AcDbLayerTableRecord
  2
Shape939
 70
    0
 62
    7
  6
CONTINUOUS
  0
LAYER
  5
C4E
330
B8B
100
AcDbSymbolTableRecord
100
AcDbLayerTableRecord
  2
Shape940
 70
    0
 62
    7
  6
CONTINUOUS
  0
LAYER
  5
C4F
330
B8B
100
AcDbSymbolTableRecord
100
AcDbLayerTableRecord
  2
Shape941
 70
    0
 62
    7
  6
CONTINUOUS
  0
LAYER
  5
C50
330
B8B
100
AcDbSymbolTableRecord
100
AcDbLayerTableRecord
  2
Shape942
 70
    0
 62
    7
  6
CONTINUOUS
  0
LAYER
  5
C51
330
B8B
100
AcDbSymbolTableRecord
100
AcDbLayerTableRecord
  2
Shape943
 70
    0
 62
    7
  6
CONTINUOUS
  0
LAYER
  5
C52
330
B8B
100
AcDbSymbolTableRecord
100
AcDbLayerTableRecord
  2
Shape944
 70
    0
 62
    7
  6
CONTINUOUS
  0
LAYER
  5
C53
330
B8B
100
AcDbSymbolTableRecord
100
AcDbLayerTableRecord
  2
Shape945
 70
    0
 62
    7
  6
CONTINUOUS
  0
LAYER
  5
C54
330
B8B
100
AcDbSymbolTableRecord
100
AcDbLayerTableRecord
  2
Shape946
 70
    0
 62
    7
  6
CONTINUOUS
  0
LAYER
  5
C55
330
B8B
100
AcDbSymbolTableRecord
100
AcDbLayerTableRecord
  2
Shape947
 70
    0
 62
    7
  6
CONTINUOUS
  0
LAYER
  5
C56
330
B8B
100
AcDbSymbolTableRecord
100
AcDbLayerTableRecord
  2
Shape948
 70
    0
 62
    7
  6
CONTINUOUS
  0
LAYER
  5
C57
330
B8B
100
AcDbSymbolTableRecord
100
AcDbLayerTableRecord
  2
Shape949
 70
    0
 62
    7
  6
CONTINUOUS
  0
LAYER
  5
C58
330
B8B
100
AcDbSymbolTableRecord
100
AcDbLayerTableRecord
  2
Shape950
 70
    0
 62
    7
  6
CONTINUOUS
  0
LAYER
  5
C59
330
B8B
100
AcDbSymbolTableRecord
100
AcDbLayerTableRecord
  2
Shape951
 70
    0
 62
    7
  6
CONTINUOUS
  0
LAYER
  5
C5A
330
B8B
100
AcDbSymbolTableRecord
100
AcDbLayerTableRecord
  2
Shape952
 70
    0
 62
    7
  6
CONTINUOUS
  0
LAYER
  5
C5B
330
B8B
100
AcDbSymbolTableRecord
100
AcDbLayerTableRecord
  2
Shape953
 70
    0
 62
    7
  6
CONTINUOUS
  0
LAYER
  5
C5C
330
B8B
100
AcDbSymbolTableRecord
100
AcDbLayerTableRecord
  2
Shape954
 70
    0
 62
    7
  6
CONTINUOUS
  0
LAYER
  5
C5D
330
B8B
100
AcDbSymbolTableRecord
100
AcDbLayerTableRecord
  2
Shape955
 70
    0
 62
    7
  6
CONTINUOUS
  0
LAYER
  5
C5E
330
B8B
100
AcDbSymbolTableRecord
100
AcDbLayerTableRecord
  2
Shape956
 70
    0
 62
    7
  6
CONTINUOUS
  0
LAYER
  5
C5F
330
B8B
100
AcDbSymbolTableRecord
100
AcDbLayerTableRecord
  2
Shape957
 70
    0
 62
    7
  6
CONTINUOUS
  0
LAYER
  5
C60
330
B8B
100
AcDbSymbolTableRecord
100
AcDbLayerTableRecord
  2
Shape958
 70
    0
 62
    7
  6
CONTINUOUS
  0
LAYER
  5
C61
330
B8B
100
AcDbSymbolTableRecord
100
AcDbLayerTableRecord
  2
Shape959
 70
    0
 62
    7
  6
CONTINUOUS
  0
LAYER
  5
C62
330
B8B
100
AcDbSymbolTableRecord
100
AcDbLayerTableRecord
  2
Shape960
 70
    0
 62
    7
  6
CONTINUOUS
  0
LAYER
  5
C63
330
B8B
100
AcDbSymbolTableRecord
100
AcDbLayerTableRecord
  2
Shape961
 70
    0
 62
    7
  6
CONTINUOUS
  0
LAYER
  5
C64
330
B8B
100
AcDbSymbolTableRecord
100
AcDbLayerTableRecord
  2
Shape962
 70
    0
 62
    7
  6
CONTINUOUS
  0
LAYER
  5
C65
330
B8B
100
AcDbSymbolTableRecord
100
AcDbLayerTableRecord
  2
Shape963
 70
    0
 62
    7
  6
CONTINUOUS
  0
LAYER
  5
C66
330
B8B
100
AcDbSymbolTableRecord
100
AcDbLayerTableRecord
  2
Shape964
 70
    0
 62
    7
  6
CONTINUOUS
  0
LAYER
  5
C67
330
B8B
100
AcDbSymbolTableRecord
100
AcDbLayerTableRecord
  2
Shape965
 70
    0
 62
    7
  6
CONTINUOUS
  0
LAYER
  5
C68
330
B8B
100
AcDbSymbolTableRecord
100
AcDbLayerTableRecord
  2
Shape966
 70
    0
 62
    7
  6
CONTINUOUS
  0
LAYER
  5
C69
330
B8B
100
AcDbSymbolTableRecord
100
AcDbLayerTableRecord
  2
Shape967
 70
    0
 62
    7
  6
CONTINUOUS
  0
LAYER
  5
C6A
330
B8B
100
AcDbSymbolTableRecord
100
AcDbLayerTableRecord
  2
Shape968
 70
    0
 62
    7
  6
CONTINUOUS
  0
LAYER
  5
C6B
330
B8B
100
AcDbSymbolTableRecord
100
AcDbLayerTableRecord
  2
Shape969
 70
    0
 62
    7
  6
CONTINUOUS
  0
LAYER
  5
C6C
330
B8B
100
AcDbSymbolTableRecord
100
AcDbLayerTableRecord
  2
Shape970
 70
    0
 62
    7
  6
CONTINUOUS
  0
LAYER
  5
C6D
330
B8B
100
AcDbSymbolTableRecord
100
AcDbLayerTableRecord
  2
Shape971
 70
    0
 62
    7
  6
CONTINUOUS
  0
LAYER
  5
C6E
330
B8B
100
AcDbSymbolTableRecord
100
AcDbLayerTableRecord
  2
Shape972
 70
    0
 62
    7
  6
CONTINUOUS
  0
LAYER
  5
C6F
330
B8B
100
AcDbSymbolTableRecord
100
AcDbLayerTableRecord
  2
Shape973
 70
    0
 62
    7
  6
CONTINUOUS
  0
LAYER
  5
C70
330
B8B
100
AcDbSymbolTableRecord
100
AcDbLayerTableRecord
  2
Shape974
 70
    0
 62
    7
  6
CONTINUOUS
  0
LAYER
  5
C71
330
B8B
100
AcDbSymbolTableRecord
100
AcDbLayerTableRecord
  2
Shape975
 70
    0
 62
    7
  6
CONTINUOUS
  0
LAYER
  5
C72
330
B8B
100
AcDbSymbolTableRecord
100
AcDbLayerTableRecord
  2
Shape976
 70
    0
 62
    7
  6
CONTINUOUS
  0
LAYER
  5
C73
330
B8B
100
AcDbSymbolTableRecord
100
AcDbLayerTableRecord
  2
Shape977
 70
    0
 62
    7
  6
CONTINUOUS
  0
LAYER
  5
C74
330
B8B
100
AcDbSymbolTableRecord
100
AcDbLayerTableRecord
  2
Shape978
 70
    0
 62
    7
  6
CONTINUOUS
  0
LAYER
  5
C75
330
B8B
100
AcDbSymbolTableRecord
100
AcDbLayerTableRecord
  2
Shape979
 70
    0
 62
    7
  6
CONTINUOUS
  0
LAYER
  5
C76
330
B8B
100
AcDbSymbolTableRecord
100
AcDbLayerTableRecord
  2
Shape980
 70
    0
 62
    7
  6
CONTINUOUS
  0
LAYER
  5
C77
330
B8B
100
AcDbSymbolTableRecord
100
AcDbLayerTableRecord
  2
Shape981
 70
    0
 62
    7
  6
CONTINUOUS
  0
LAYER
  5
C78
330
B8B
100
AcDbSymbolTableRecord
100
AcDbLayerTableRecord
  2
Shape982
 70
    0
 62
    7
  6
CONTINUOUS
  0
LAYER
  5
C79
330
B8B
100
AcDbSymbolTableRecord
100
AcDbLayerTableRecord
  2
Shape983
 70
    0
 62
    7
  6
CONTINUOUS
  0
LAYER
  5
C7A
330
B8B
100
AcDbSymbolTableRecord
100
AcDbLayerTableRecord
  2
Shape984
 70
    0
 62
    7
  6
CONTINUOUS
  0
LAYER
  5
C7B
330
B8B
100
AcDbSymbolTableRecord
100
AcDbLayerTableRecord
  2
Shape985
 70
    0
 62
    7
  6
CONTINUOUS
  0
LAYER
  5
C7C
330
B8B
100
AcDbSymbolTableRecord
100
AcDbLayerTableRecord
  2
Shape986
 70
    0
 62
    7
  6
CONTINUOUS
  0
LAYER
  5
C7D
330
B8B
100
AcDbSymbolTableRecord
100
AcDbLayerTableRecord
  2
Shape987
 70
    0
 62
    7
  6
CONTINUOUS
  0
LAYER
  5
C7E
330
B8B
100
AcDbSymbolTableRecord
100
AcDbLayerTableRecord
  2
Shape988
 70
    0
 62
    7
  6
CONTINUOUS
  0
LAYER
  5
C7F
330
B8B
100
AcDbSymbolTableRecord
100
AcDbLayerTableRecord
  2
Shape989
 70
    0
 62
    7
  6
CONTINUOUS
  0
LAYER
  5
C80
330
B8B
100
AcDbSymbolTableRecord
100
AcDbLayerTableRecord
  2
Shape990
 70
    0
 62
    7
  6
CONTINUOUS
  0
LAYER
  5
C81
330
B8B
100
AcDbSymbolTableRecord
100
AcDbLayerTableRecord
  2
Shape991
 70
    0
 62
    7
  6
CONTINUOUS
  0
LAYER
  5
C82
330
B8B
100
AcDbSymbolTableRecord
100
AcDbLayerTableRecord
  2
Shape992
 70
    0
 62
    7
  6
CONTINUOUS
  0
LAYER
  5
C83
330
B8B
100
AcDbSymbolTableRecord
100
AcDbLayerTableRecord
  2
Shape993
 70
    0
 62
    7
  6
CONTINUOUS
  0
LAYER
  5
C84
330
B8B
100
AcDbSymbolTableRecord
100
AcDbLayerTableRecord
  2
Shape994
 70
    0
 62
    7
  6
CONTINUOUS
  0
LAYER
  5
C85
330
B8B
100
AcDbSymbolTableRecord
100
AcDbLayerTableRecord
  2
Shape995
 70
    0
 62
    7
  6
CONTINUOUS
  0
LAYER
  5
C86
330
B8B
100
AcDbSymbolTableRecord
100
AcDbLayerTableRecord
  2
Shape996
 70
    0
 62
    7
  6
CONTINUOUS
  0
LAYER
  5
C87
330
B8B
100
AcDbSymbolTableRecord
100
AcDbLayerTableRecord
  2
Shape997
 70
    0
 62
    7
  6
CONTINUOUS
  0
LAYER
  5
C88
330
B8B
100
AcDbSymbolTableRecord
100
AcDbLayerTableRecord
  2
Shape998
 70
    0
 62
    7
  6
CONTINUOUS
  0
LAYER
  5
C89
330
B8B
100
AcDbSymbolTableRecord
100
AcDbLayerTableRecord
  2
Shape999
 70
    0
 62
    7
  6
CONTINUOUS
  0
LAYER
  5
C8A
330
B8B
100
AcDbSymbolTableRecord
100
AcDbLayerTableRecord
  2
Shape1000
 70
    0
 62
    7
  6
CONTINUOUS
  0
LAYER
  5
C8B
330
B8B
100
AcDbSymbolTableRecord
100
AcDbLayerTableRecord
  2
Shape1001
 70
    0
 62
    7
  6
CONTINUOUS
  0
LAYER
  5
C8C
330
B8B
100
AcDbSymbolTableRecord
100
AcDbLayerTableRecord
  2
Shape1002
 70
    0
 62
    7
  6
CONTINUOUS
  0
LAYER
  5
C8D
330
B8B
100
AcDbSymbolTableRecord
100
AcDbLayerTableRecord
  2
Shape1003
 70
    0
 62
    7
  6
CONTINUOUS
  0
LAYER
  5
C8E
330
B8B
100
AcDbSymbolTableRecord
100
AcDbLayerTableRecord
  2
Shape1004
 70
    0
 62
    7
  6
CONTINUOUS
  0
LAYER
  5
C8F
330
B8B
100
AcDbSymbolTableRecord
100
AcDbLayerTableRecord
  2
Shape1005
 70
    0
 62
    7
  6
CONTINUOUS
  0
LAYER
  5
C90
330
B8B
100
AcDbSymbolTableRecord
100
AcDbLayerTableRecord
  2
Shape1006
 70
    0
 62
    7
  6
CONTINUOUS
  0
LAYER
  5
C91
330
B8B
100
AcDbSymbolTableRecord
100
AcDbLayerTableRecord
  2
Shape1007
 70
    0
 62
    7
  6
CONTINUOUS
  0
LAYER
  5
C92
330
B8B
100
AcDbSymbolTableRecord
100
AcDbLayerTableRecord
  2
Shape1008
 70
    0
 62
    7
  6
CONTINUOUS
  0
LAYER
  5
C93
330
B8B
100
AcDbSymbolTableRecord
100
AcDbLayerTableRecord
  2
Shape1009
 70
    0
 62
    7
  6
CONTINUOUS
  0
LAYER
  5
C94
330
B8B
100
AcDbSymbolTableRecord
100
AcDbLayerTableRecord
  2
Shape1010
 70
    0
 62
    7
  6
CONTINUOUS
  0
LAYER
  5
C95
330
B8B
100
AcDbSymbolTableRecord
100
AcDbLayerTableRecord
  2
Shape1011
 70
    0
 62
    7
  6
CONTINUOUS
  0
LAYER
  5
C96
330
B8B
100
AcDbSymbolTableRecord
100
AcDbLayerTableRecord
  2
Shape1012
 70
    0
 62
    7
  6
CONTINUOUS
  0
LAYER
  5
C97
330
B8B
100
AcDbSymbolTableRecord
100
AcDbLayerTableRecord
  2
Shape1013
 70
    0
 62
    7
  6
CONTINUOUS
  0
LAYER
  5
C98
330
B8B
100
AcDbSymbolTableRecord
100
AcDbLayerTableRecord
  2
Shape1014
 70
    0
 62
    7
  6
CONTINUOUS
  0
LAYER
  5
C99
330
B8B
100
AcDbSymbolTableRecord
100
AcDbLayerTableRecord
  2
Shape1015
 70
    0
 62
    7
  6
CONTINUOUS
  0
LAYER
  5
C9A
330
B8B
100
AcDbSymbolTableRecord
100
AcDbLayerTableRecord
  2
Shape1016
 70
    0
 62
    7
  6
CONTINUOUS
  0
LAYER
  5
C9B
330
B8B
100
AcDbSymbolTableRecord
100
AcDbLayerTableRecord
  2
Shape1017
 70
    0
 62
    7
  6
CONTINUOUS
  0
LAYER
  5
C9C
330
B8B
100
AcDbSymbolTableRecord
100
AcDbLayerTableRecord
  2
Shape1018
 70
    0
 62
    7
  6
CONTINUOUS
  0
LAYER
  5
C9D
330
B8B
100
AcDbSymbolTableRecord
100
AcDbLayerTableRecord
  2
Shape1019
 70
    0
 62
    7
  6
CONTINUOUS
  0
LAYER
  5
C9E
330
B8B
100
AcDbSymbolTableRecord
100
AcDbLayerTableRecord
  2
Shape1020
 70
    0
 62
    7
  6
CONTINUOUS
  0
LAYER
  5
C9F
330
B8B
100
AcDbSymbolTableRecord
100
AcDbLayerTableRecord
  2
Shape1021
 70
    0
 62
    7
  6
CONTINUOUS
  0
LAYER
  5
CA0
330
B8B
100
AcDbSymbolTableRecord
100
AcDbLayerTableRecord
  2
Shape1022
 70
    0
 62
    7
  6
CONTINUOUS
  0
LAYER
  5
CA1
330
B8B
100
AcDbSymbolTableRecord
100
AcDbLayerTableRecord
  2
Shape1023
 70
    0
 62
    7
  6
CONTINUOUS
  0
LAYER
  5
CA2
330
B8B
100
AcDbSymbolTableRecord
100
AcDbLayerTableRecord
  2
Shape1024
 70
    0
 62
    7
  6
CONTINUOUS
  0
LAYER
  5
CA3
330
B8B
100
AcDbSymbolTableRecord
100
AcDbLayerTableRecord
  2
Shape1025
 70
    0
 62
    7
  6
CONTINUOUS
  0
LAYER
  5
CA4
330
B8B
100
AcDbSymbolTableRecord
100
AcDbLayerTableRecord
  2
Shape1026
 70
    0
 62
    7
  6
CONTINUOUS
  0
LAYER
  5
CA5
330
B8B
100
AcDbSymbolTableRecord
100
AcDbLayerTableRecord
  2
Shape1027
 70
    0
 62
    7
  6
CONTINUOUS
  0
LAYER
  5
CA6
330
B8B
100
AcDbSymbolTableRecord
100
AcDbLayerTableRecord
  2
Shape1028
 70
    0
 62
    7
  6
CONTINUOUS
  0
LAYER
  5
CA7
330
B8B
100
AcDbSymbolTableRecord
100
AcDbLayerTableRecord
  2
Shape1029
 70
    0
 62
    7
  6
CONTINUOUS
  0
LAYER
  5
CA8
330
B8B
100
AcDbSymbolTableRecord
100
AcDbLayerTableRecord
  2
Shape1030
 70
    0
 62
    7
  6
CONTINUOUS
  0
LAYER
  5
CA9
330
B8B
100
AcDbSymbolTableRecord
100
AcDbLayerTableRecord
  2
Shape1031
 70
    0
 62
    7
  6
CONTINUOUS
  0
LAYER
  5
CAA
330
B8B
100
AcDbSymbolTableRecord
100
AcDbLayerTableRecord
  2
Shape1032
 70
    0
 62
    7
  6
CONTINUOUS
  0
LAYER
  5
CAB
330
B8B
100
AcDbSymbolTableRecord
100
AcDbLayerTableRecord
  2
Shape1033
 70
    0
 62
    7
  6
CONTINUOUS
  0
LAYER
  5
CAC
330
B8B
100
AcDbSymbolTableRecord
100
AcDbLayerTableRecord
  2
Shape1034
 70
    0
 62
    7
  6
CONTINUOUS
  0
LAYER
  5
CAD
330
B8B
100
AcDbSymbolTableRecord
100
AcDbLayerTableRecord
  2
Shape1035
 70
    0
 62
    7
  6
CONTINUOUS
  0
LAYER
  5
CAE
330
B8B
100
AcDbSymbolTableRecord
100
AcDbLayerTableRecord
  2
Shape1036
 70
    0
 62
    7
  6
CONTINUOUS
  0
LAYER
  5
CAF
330
B8B
100
AcDbSymbolTableRecord
100
AcDbLayerTableRecord
  2
Shape1037
 70
    0
 62
    7
  6
CONTINUOUS
  0
LAYER
  5
CB0
330
B8B
100
AcDbSymbolTableRecord
100
AcDbLayerTableRecord
  2
Shape1038
 70
    0
 62
    7
  6
CONTINUOUS
  0
LAYER
  5
CB1
330
B8B
100
AcDbSymbolTableRecord
100
AcDbLayerTableRecord
  2
Shape1039
 70
    0
 62
    7
  6
CONTINUOUS
  0
LAYER
  5
CB2
330
B8B
100
AcDbSymbolTableRecord
100
AcDbLayerTableRecord
  2
Shape1040
 70
    0
 62
    7
  6
CONTINUOUS
  0
LAYER
  5
CB3
330
B8B
100
AcDbSymbolTableRecord
100
AcDbLayerTableRecord
  2
Shape1041
 70
    0
 62
    7
  6
CONTINUOUS
  0
LAYER
  5
CB4
330
B8B
100
AcDbSymbolTableRecord
100
AcDbLayerTableRecord
  2
Shape1042
 70
    0
 62
    7
  6
CONTINUOUS
  0
LAYER
  5
CB5
330
B8B
100
AcDbSymbolTableRecord
100
AcDbLayerTableRecord
  2
Shape1043
 70
    0
 62
    7
  6
CONTINUOUS
  0
LAYER
  5
CB6
330
B8B
100
AcDbSymbolTableRecord
100
AcDbLayerTableRecord
  2
Shape1044
 70
    0
 62
    7
  6
CONTINUOUS
  0
LAYER
  5
CB7
330
B8B
100
AcDbSymbolTableRecord
100
AcDbLayerTableRecord
  2
Shape1045
 70
    0
 62
    7
  6
CONTINUOUS
  0
LAYER
  5
CB8
330
B8B
100
AcDbSymbolTableRecord
100
AcDbLayerTableRecord
  2
Shape1046
 70
    0
 62
    7
  6
CONTINUOUS
  0
LAYER
  5
CB9
330
B8B
100
AcDbSymbolTableRecord
100
AcDbLayerTableRecord
  2
Shape1047
 70
    0
 62
    7
  6
CONTINUOUS
  0
LAYER
  5
CBA
330
B8B
100
AcDbSymbolTableRecord
100
AcDbLayerTableRecord
  2
Shape1048
 70
    0
 62
    7
  6
CONTINUOUS
  0
LAYER
  5
CBB
330
B8B
100
AcDbSymbolTableRecord
100
AcDbLayerTableRecord
  2
Shape1049
 70
    0
 62
    7
  6
CONTINUOUS
  0
LAYER
  5
CBC
330
B8B
100
AcDbSymbolTableRecord
100
AcDbLayerTableRecord
  2
Shape1050
 70
    0
 62
    7
  6
CONTINUOUS
  0
LAYER
  5
CBD
330
B8B
100
AcDbSymbolTableRecord
100
AcDbLayerTableRecord
  2
Shape1051
 70
    0
 62
    7
  6
CONTINUOUS
  0
LAYER
  5
CBE
330
B8B
100
AcDbSymbolTableRecord
100
AcDbLayerTableRecord
  2
Shape1052
 70
    0
 62
    7
  6
CONTINUOUS
  0
LAYER
  5
CBF
330
B8B
100
AcDbSymbolTableRecord
100
AcDbLayerTableRecord
  2
Shape1053
 70
    0
 62
    7
  6
CONTINUOUS
  0
LAYER
  5
CC0
330
B8B
100
AcDbSymbolTableRecord
100
AcDbLayerTableRecord
  2
Shape1054
 70
    0
 62
    7
  6
CONTINUOUS
  0
LAYER
  5
CC1
330
B8B
100
AcDbSymbolTableRecord
100
AcDbLayerTableRecord
  2
Shape1055
 70
    0
 62
    7
  6
CONTINUOUS
  0
LAYER
  5
CC2
330
B8B
100
AcDbSymbolTableRecord
100
AcDbLayerTableRecord
  2
Shape1056
 70
    0
 62
    7
  6
CONTINUOUS
  0
LAYER
  5
CC3
330
B8B
100
AcDbSymbolTableRecord
100
AcDbLayerTableRecord
  2
Shape1057
 70
    0
 62
    7
  6
CONTINUOUS
  0
LAYER
  5
CC4
330
B8B
100
AcDbSymbolTableRecord
100
AcDbLayerTableRecord
  2
Shape1058
 70
    0
 62
    7
  6
CONTINUOUS
  0
LAYER
  5
CC5
330
B8B
100
AcDbSymbolTableRecord
100
AcDbLayerTableRecord
  2
Shape1059
 70
    0
 62
    7
  6
CONTINUOUS
  0
LAYER
  5
CC6
330
B8B
100
AcDbSymbolTableRecord
100
AcDbLayerTableRecord
  2
Shape1060
 70
    0
 62
    7
  6
CONTINUOUS
  0
LAYER
  5
CC7
330
B8B
100
AcDbSymbolTableRecord
100
AcDbLayerTableRecord
  2
Shape1061
 70
    0
 62
    7
  6
CONTINUOUS
  0
LAYER
  5
CC8
330
B8B
100
AcDbSymbolTableRecord
100
AcDbLayerTableRecord
  2
Shape1062
 70
    0
 62
    7
  6
CONTINUOUS
  0
LAYER
  5
CC9
330
B8B
100
AcDbSymbolTableRecord
100
AcDbLayerTableRecord
  2
Shape1063
 70
    0
 62
    7
  6
CONTINUOUS
  0
LAYER
  5
CCA
330
B8B
100
AcDbSymbolTableRecord
100
AcDbLayerTableRecord
  2
Shape1064
 70
    0
 62
    7
  6
CONTINUOUS
  0
LAYER
  5
CCB
330
B8B
100
AcDbSymbolTableRecord
100
AcDbLayerTableRecord
  2
Shape1065
 70
    0
 62
    7
  6
CONTINUOUS
  0
LAYER
  5
CCC
330
B8B
100
AcDbSymbolTableRecord
100
AcDbLayerTableRecord
  2
Shape1066
 70
    0
 62
    7
  6
CONTINUOUS
  0
LAYER
  5
CCD
330
B8B
100
AcDbSymbolTableRecord
100
AcDbLayerTableRecord
  2
Shape1067
 70
    0
 62
    7
  6
CONTINUOUS
  0
LAYER
  5
CCE
330
B8B
100
AcDbSymbolTableRecord
100
AcDbLayerTableRecord
  2
Shape1068
 70
    0
 62
    7
  6
CONTINUOUS
  0
LAYER
  5
CCF
330
B8B
100
AcDbSymbolTableRecord
100
AcDbLayerTableRecord
  2
Shape1069
 70
    0
 62
    7
  6
CONTINUOUS
  0
LAYER
  5
CD0
330
B8B
100
AcDbSymbolTableRecord
100
AcDbLayerTableRecord
  2
Shape1112
 70
    0
 62
    7
  6
CONTINUOUS
  0
LAYER
  5
CD1
330
B8B
100
AcDbSymbolTableRecord
100
AcDbLayerTableRecord
  2
Shape1113
 70
    0
 62
    7
  6
CONTINUOUS
  0
LAYER
  5
CD2
330
B8B
100
AcDbSymbolTableRecord
100
AcDbLayerTableRecord
  2
Shape1114
 70
    0
 62
    7
  6
CONTINUOUS
  0
LAYER
  5
CD3
330
B8B
100
AcDbSymbolTableRecord
100
AcDbLayerTableRecord
  2
Shape1115
 70
    0
 62
    7
  6
CONTINUOUS
  0
LAYER
  5
CD4
330
B8B
100
AcDbSymbolTableRecord
100
AcDbLayerTableRecord
  2
Shape1116
 70
    0
 62
    7
  6
CONTINUOUS
  0
LAYER
  5
CD5
330
B8B
100
AcDbSymbolTableRecord
100
AcDbLayerTableRecord
  2
Shape1117
 70
    0
 62
    7
  6
CONTINUOUS
  0
LAYER
  5
CD6
330
B8B
100
AcDbSymbolTableRecord
100
AcDbLayerTableRecord
  2
Shape1118
 70
    0
 62
    7
  6
CONTINUOUS
  0
LAYER
  5
CD7
330
B8B
100
AcDbSymbolTableRecord
100
AcDbLayerTableRecord
  2
Shape1119
 70
    0
 62
    7
  6
CONTINUOUS
  0
LAYER
  5
CD8
330
B8B
100
AcDbSymbolTableRecord
100
AcDbLayerTableRecord
  2
Shape1120
 70
    0
 62
    7
  6
CONTINUOUS
  0
LAYER
  5
CD9
330
B8B
100
AcDbSymbolTableRecord
100
AcDbLayerTableRecord
  2
Shape1121
 70
    0
 62
    7
  6
CONTINUOUS
  0
LAYER
  5
CDA
330
B8B
100
AcDbSymbolTableRecord
100
AcDbLayerTableRecord
  2
Shape1122
 70
    0
 62
    7
  6
CONTINUOUS
  0
LAYER
  5
CDB
330
B8B
100
AcDbSymbolTableRecord
100
AcDbLayerTableRecord
  2
Shape1123
 70
    0
 62
    7
  6
CONTINUOUS
  0
LAYER
  5
CDC
330
B8B
100
AcDbSymbolTableRecord
100
AcDbLayerTableRecord
  2
Shape1124
 70
    0
 62
    7
  6
CONTINUOUS
  0
LAYER
  5
CDD
330
B8B
100
AcDbSymbolTableRecord
100
AcDbLayerTableRecord
  2
Shape1125
 70
    0
 62
    7
  6
CONTINUOUS
  0
LAYER
  5
CDE
330
B8B
100
AcDbSymbolTableRecord
100
AcDbLayerTableRecord
  2
Shape1126
 70
    0
 62
    7
  6
CONTINUOUS
  0
LAYER
  5
CDF
330
B8B
100
AcDbSymbolTableRecord
100
AcDbLayerTableRecord
  2
Shape1127
 70
    0
 62
    7
  6
CONTINUOUS
  0
LAYER
  5
CE0
330
B8B
100
AcDbSymbolTableRecord
100
AcDbLayerTableRecord
  2
Shape1128
 70
    0
 62
    7
  6
CONTINUOUS
  0
LAYER
  5
CE1
330
B8B
100
AcDbSymbolTableRecord
100
AcDbLayerTableRecord
  2
Shape1129
 70
    0
 62
    7
  6
CONTINUOUS
  0
LAYER
  5
CE2
330
B8B
100
AcDbSymbolTableRecord
100
AcDbLayerTableRecord
  2
Shape1130
 70
    0
 62
    7
  6
CONTINUOUS
  0
LAYER
  5
CE3
330
B8B
100
AcDbSymbolTableRecord
100
AcDbLayerTableRecord
  2
Shape1131
 70
    0
 62
    7
  6
CONTINUOUS
  0
LAYER
  5
CE4
330
B8B
100
AcDbSymbolTableRecord
100
AcDbLayerTableRecord
  2
Shape1132
 70
    0
 62
    7
  6
CONTINUOUS
  0
LAYER
  5
CE5
330
B8B
100
AcDbSymbolTableRecord
100
AcDbLayerTableRecord
  2
Shape1133
 70
    0
 62
    7
  6
CONTINUOUS
  0
LAYER
  5
CE6
330
B8B
100
AcDbSymbolTableRecord
100
AcDbLayerTableRecord
  2
Shape1134
 70
    0
 62
    7
  6
CONTINUOUS
  0
LAYER
  5
CE7
330
B8B
100
AcDbSymbolTableRecord
100
AcDbLayerTableRecord
  2
Shape1135
 70
    0
 62
    7
  6
CONTINUOUS
  0
LAYER
  5
CE8
330
B8B
100
AcDbSymbolTableRecord
100
AcDbLayerTableRecord
  2
Shape1136
 70
    0
 62
    7
  6
CONTINUOUS
  0
LAYER
  5
CE9
330
B8B
100
AcDbSymbolTableRecord
100
AcDbLayerTableRecord
  2
Shape1137
 70
    0
 62
    7
  6
CONTINUOUS
  0
LAYER
  5
CEA
330
B8B
100
AcDbSymbolTableRecord
100
AcDbLayerTableRecord
  2
Shape1138
 70
    0
 62
    7
  6
CONTINUOUS
  0
LAYER
  5
CEB
330
B8B
100
AcDbSymbolTableRecord
100
AcDbLayerTableRecord
  2
Shape1139
 70
    0
 62
    7
  6
CONTINUOUS
  0
LAYER
  5
CEC
330
B8B
100
AcDbSymbolTableRecord
100
AcDbLayerTableRecord
  2
Shape1140
 70
    0
 62
    7
  6
CONTINUOUS
  0
LAYER
  5
CED
330
B8B
100
AcDbSymbolTableRecord
100
AcDbLayerTableRecord
  2
Shape1141
 70
    0
 62
    7
  6
CONTINUOUS
  0
LAYER
  5
CEE
330
B8B
100
AcDbSymbolTableRecord
100
AcDbLayerTableRecord
  2
Shape1142
 70
    0
 62
    7
  6
CONTINUOUS
  0
LAYER
  5
CEF
330
B8B
100
AcDbSymbolTableRecord
100
AcDbLayerTableRecord
  2
Shape1143
 70
    0
 62
    7
  6
CONTINUOUS
  0
LAYER
  5
CF0
330
B8B
100
AcDbSymbolTableRecord
100
AcDbLayerTableRecord
  2
Shape1144
 70
    0
 62
    7
  6
CONTINUOUS
  0
LAYER
  5
CF1
330
B8B
100
AcDbSymbolTableRecord
100
AcDbLayerTableRecord
  2
Shape1145
 70
    0
 62
    7
  6
CONTINUOUS
  0
LAYER
  5
CF2
330
B8B
100
AcDbSymbolTableRecord
100
AcDbLayerTableRecord
  2
Shape1146
 70
    0
 62
    7
  6
CONTINUOUS
  0
LAYER
  5
CF3
330
B8B
100
AcDbSymbolTableRecord
100
AcDbLayerTableRecord
  2
Shape1147
 70
    0
 62
    7
  6
CONTINUOUS
  0
LAYER
  5
CF4
330
B8B
100
AcDbSymbolTableRecord
100
AcDbLayerTableRecord
  2
Shape1148
 70
    0
 62
    7
  6
CONTINUOUS
  0
LAYER
  5
CF5
330
B8B
100
AcDbSymbolTableRecord
100
AcDbLayerTableRecord
  2
Shape1149
 70
    0
 62
    7
  6
CONTINUOUS
  0
LAYER
  5
CF6
330
B8B
100
AcDbSymbolTableRecord
100
AcDbLayerTableRecord
  2
Shape1150
 70
    0
 62
    7
  6
CONTINUOUS
  0
LAYER
  5
CF7
330
B8B
100
AcDbSymbolTableRecord
100
AcDbLayerTableRecord
  2
Shape1151
 70
    0
 62
    7
  6
CONTINUOUS
  0
LAYER
  5
CF8
330
B8B
100
AcDbSymbolTableRecord
100
AcDbLayerTableRecord
  2
Shape1152
 70
    0
 62
    7
  6
CONTINUOUS
  0
LAYER
  5
CF9
330
B8B
100
AcDbSymbolTableRecord
100
AcDbLayerTableRecord
  2
Shape1153
 70
    0
 62
    7
  6
CONTINUOUS
  0
LAYER
  5
CFA
330
B8B
100
AcDbSymbolTableRecord
100
AcDbLayerTableRecord
  2
Shape1154
 70
    0
 62
    7
  6
CONTINUOUS
  0
LAYER
  5
CFB
330
B8B
100
AcDbSymbolTableRecord
100
AcDbLayerTableRecord
  2
Shape1155
 70
    0
 62
    7
  6
CONTINUOUS
  0
LAYER
  5
CFC
330
B8B
100
AcDbSymbolTableRecord
100
AcDbLayerTableRecord
  2
Shape1156
 70
    0
 62
    7
  6
CONTINUOUS
  0
LAYER
  5
CFD
330
B8B
100
AcDbSymbolTableRecord
100
AcDbLayerTableRecord
  2
Shape1157
 70
    0
 62
    7
  6
CONTINUOUS
  0
LAYER
  5
CFE
330
B8B
100
AcDbSymbolTableRecord
100
AcDbLayerTableRecord
  2
Shape1158
 70
    0
 62
    7
  6
CONTINUOUS
  0
LAYER
  5
CFF
330
B8B
100
AcDbSymbolTableRecord
100
AcDbLayerTableRecord
  2
Shape1159
 70
    0
 62
    7
  6
CONTINUOUS
  0
LAYER
  5
D00
330
B8B
100
AcDbSymbolTableRecord
100
AcDbLayerTableRecord
  2
Shape1160
 70
    0
 62
    7
  6
CONTINUOUS
  0
LAYER
  5
D01
330
B8B
100
AcDbSymbolTableRecord
100
AcDbLayerTableRecord
  2
Shape1161
 70
    0
 62
    7
  6
CONTINUOUS
  0
LAYER
  5
D02
330
B8B
100
AcDbSymbolTableRecord
100
AcDbLayerTableRecord
  2
Shape1162
 70
    0
 62
    7
  6
CONTINUOUS
  0
LAYER
  5
D03
330
B8B
100
AcDbSymbolTableRecord
100
AcDbLayerTableRecord
  2
Shape1163
 70
    0
 62
    7
  6
CONTINUOUS
  0
LAYER
  5
D04
330
B8B
100
AcDbSymbolTableRecord
100
AcDbLayerTableRecord
  2
Shape1164
 70
    0
 62
    7
  6
CONTINUOUS
  0
LAYER
  5
D05
330
B8B
100
AcDbSymbolTableRecord
100
AcDbLayerTableRecord
  2
Shape1165
 70
    0
 62
    7
  6
CONTINUOUS
  0
LAYER
  5
D06
330
B8B
100
AcDbSymbolTableRecord
100
AcDbLayerTableRecord
  2
Shape1166
 70
    0
 62
    7
  6
CONTINUOUS
  0
LAYER
  5
D07
330
B8B
100
AcDbSymbolTableRecord
100
AcDbLayerTableRecord
  2
Shape1167
 70
    0
 62
    7
  6
CONTINUOUS
  0
LAYER
  5
D08
330
B8B
100
AcDbSymbolTableRecord
100
AcDbLayerTableRecord
  2
Shape1168
 70
    0
 62
    7
  6
CONTINUOUS
  0
LAYER
  5
D09
330
B8B
100
AcDbSymbolTableRecord
100
AcDbLayerTableRecord
  2
Shape1169
 70
    0
 62
    7
  6
CONTINUOUS
  0
LAYER
  5
D0A
330
B8B
100
AcDbSymbolTableRecord
100
AcDbLayerTableRecord
  2
Shape1170
 70
    0
 62
    7
  6
CONTINUOUS
  0
LAYER
  5
D0B
330
B8B
100
AcDbSymbolTableRecord
100
AcDbLayerTableRecord
  2
Shape1171
 70
    0
 62
    7
  6
CONTINUOUS
  0
LAYER
  5
D0C
330
B8B
100
AcDbSymbolTableRecord
100
AcDbLayerTableRecord
  2
Shape1172
 70
    0
 62
    7
  6
CONTINUOUS
  0
LAYER
  5
D0D
330
B8B
100
AcDbSymbolTableRecord
100
AcDbLayerTableRecord
  2
Shape1173
 70
    0
 62
    7
  6
CONTINUOUS
  0
LAYER
  5
D0E
330
B8B
100
AcDbSymbolTableRecord
100
AcDbLayerTableRecord
  2
Shape1174
 70
    0
 62
    7
  6
CONTINUOUS
  0
LAYER
  5
D0F
330
B8B
100
AcDbSymbolTableRecord
100
AcDbLayerTableRecord
  2
Shape1175
 70
    0
 62
    7
  6
CONTINUOUS
  0
LAYER
  5
D10
330
B8B
100
AcDbSymbolTableRecord
100
AcDbLayerTableRecord
  2
Shape2461
 70
    0
 62
    7
  6
CONTINUOUS
  0
ENDTAB
  0
TABLE
  2
STYLE
  5
70
330
0
100
AcDbSymbolTable
 70
     2
  0
STYLE
  5
71
330
70
100
AcDbSymbolTableRecord
100
AcDbTextStyleTableRecord
  2
STANDARD
 70
     0
 40
0.0
 41
1.0
 50
0.0
 71
     0
 42
2.5
  3
arial.ttf
  4

  0
STYLE
  5
72
330
70
100
AcDbSymbolTableRecord
100
AcDbTextStyleTableRecord
  2
ANNOTATIVE
 70
     0
 40
0.0
 41
1.0
 50
0.0
 71
     0
 42
2.5
  3
arial.ttf
  4

  0
ENDTAB
  0
TABLE
  2
VIEW
  5
73
330
0
100
AcDbSymbolTable
 70
     0
  0
ENDTAB
  0
TABLE
  2
UCS
  5
74
330
0
100
AcDbSymbolTable
 70
     0
  0
ENDTAB
  0
TABLE
  2
APPID
  5
75
330
0
100
AcDbSymbolTable
 70
     2
  0
APPID
  5
76
330
75
100
AcDbSymbolTableRecord
100
AcDbRegAppTableRecord
  2
ACAD
 70
     0
  0
APPID
  5
77
330
75
100
AcDbSymbolTableRecord
100
AcDbRegAppTableRecord
  2
ACADANNOTATIVE
 70
     0
  0
ENDTAB
  0
TABLE
  2
DIMSTYLE
  5
78
330
0
100
AcDbSymbolTable
 70
     2
  0
DIMSTYLE
105
79
330
78
100
AcDbSymbolTableRecord
100
AcDbDimStyleTableRecord
  2
STANDARD
 70
     0
  3

  4

  5

  6

  7

 40
0.0
 41
2.5
 42
0.625
 43
3.75
 44
1.25
 45
0.0
 46
0.0
 47
0.0
 48
0.0
140
2.5
141
2.5
142
0.0
143
0.03937007874016
144
1.0
145
0.0
146
1.0
147
0.625
 71
     0
 72
     0
 73
     0
 74
     0
 75
     0
 76
     0
 77
     1
 78
     8
170
     0
171
     3
172
     1
173
     0
174
     0
175
     0
176
     0
177
     0
178
     0
270
     2
271
     2
272
     2
273
     2
274
     3
340
71
275
     0
280
     0
281
     0
282
     0
283
     0
284
     8
285
     0
286
     0
287
     3
288
     0
  0
ENDTAB
  0
TABLE
  2
BLOCK_RECORD
  5
A01
330
0
100
AcDbSymbolTable
  70
5
  0
BLOCK_RECORD
  5
A02
330
A01
100
AcDbSymbolTableRecord
100
AcDbBlockTableRecord
  2
*MODEL_SPACE
  0
BLOCK_RECORD
  5
A03
330
A01
100
AcDbSymbolTableRecord
100
AcDbBlockTableRecord
  2
*PAPER_SPACE
  0
ENDTAB
  0
ENDSEC
  0
SECTION
  2
BLOCKS
  0
BLOCK
  5
A04
330
A02
100
AcDbEntity
  8
0
100
AcDbBlockBegin
  2
*MODEL_SPACE
 70
   0
 10
0
 20
0
 30
0
  3
*MODEL_SPACE
  1
 
  0
ENDBLK
  5
A05
330
A02
100
AcDbEntity
  8
0
100
AcDbBlockEnd
  0
BLOCK
  5
A06
330
A03
100
AcDbEntity
 67
1
  8
0
100
AcDbBlockBegin
  2
*PAPER_SPACE
 70
   0
 10
0
 20
0
 30
0
  3
*PAPER_SPACE
  1
 
  0
ENDBLK
  5
A07
330
A03
100
AcDbEntity
 67
    1
  8
0
100
AcDbBlockEnd
  0
ENDSEC
  0
SECTION
  2
ENTITIES
  0
CIRCLE
  5
A08
330
A02
100
AcDbEntity
  8
Shape548
100
AcDbCircle
 10
-218.025
 20
94.8949
 40
1.1
  0
CIRCLE
  5
A09
330
A02
100
AcDbEntity
  8
Shape549
100
AcDbCircle
 10
-128.025
 20
94.8949
 40
1.1
  0
CIRCLE
  5
A0A
330
A02
100
AcDbEntity
  8
Shape550
100
AcDbCircle
 10
-38.025
 20
94.8949
 40
1.1
  0
CIRCLE
  5
A0B
330
A02
100
AcDbEntity
  8
Shape551
100
AcDbCircle
 10
-218.025
 20
11.4969
 40
1.1
  0
CIRCLE
  5
A0C
330
A02
100
AcDbEntity
  8
Shape552
100
AcDbCircle
 10
-128.025
 20
11.4969
 40
1.1
  0
CIRCLE
  5
A0D
330
A02
100
AcDbEntity
  8
Shape553
100
AcDbCircle
 10
-38.025
 20
11.4969
 40
1.1
  0
LINE
  5
A0E
330
A02
100
AcDbEntity
  8
Shape754
100
AcDbLine
 10
-207.525
 20
14.9959
 30
0
 11
-138.525
 21
14.9959
 31
0
  0
ARC
  5
A0F
330
A02
100
AcDbEntity
  8
Shape755
100
AcDbCircle
 10
-138.525
 20
14.4959
 30
0
 40
0.5
100
AcDbArc
 50
0
 51
90
  0
LINE
  5
A10
330
A02
100
AcDbEntity
  8
Shape756
100
AcDbLine
 10
-138.025
 20
14.4959
 30
0
 11
-138.025
 21
14.2469
 31
0
  0
ARC
  5
A11
330
A02
100
AcDbEntity
  8
Shape757
100
AcDbCircle
 10
-138.525
 20
14.2469
 30
0
 40
0.5
100
AcDbArc
 50
-90
 51
0
  0
LINE
  5
A12
330
A02
100
AcDbEntity
  8
Shape758
100
AcDbLine
 10
-138.525
 20
13.7469
 30
0
 11
-149.025
 21
13.7469
 31
0
  0
ARC
  5
A13
330
A02
100
AcDbEntity
  8
Shape759
100
AcDbCircle
 10
-149.025
 20
12.7469
 30
0
 40
1
100
AcDbArc
 50
90
 51
180
  0
LINE
  5
A14
330
A02
100
AcDbEntity
  8
Shape760
100
AcDbLine
 10
-150.025
 20
12.7469
 30
0
 11
-150.025
 21
11.2469
 31
0
  0
ARC
  5
A15
330
A02
100
AcDbEntity
  8
Shape761
100
AcDbCircle
 10
-149.025
 20
11.2469
 30
0
 40
1
100
AcDbArc
 50
180
 51
-90
  0
LINE
  5
A16
330
A02
100
AcDbEntity
  8
Shape762
100
AcDbLine
 10
-149.025
 20
10.2469
 30
0
 11
-131.025
 21
10.2469
 31
0
  0
LINE
  5
A17
330
A02
100
AcDbEntity
  8
Shape763
100
AcDbLine
 10
-131.025
 20
10.2469
 30
0
 11
-131.025
 21
15.4969
 31
0
  0
ARC
  5
A18
330
A02
100
AcDbEntity
  8
Shape764
100
AcDbCircle
 10
-130.525
 20
15.4969
 30
0
 40
0.5
100
AcDbArc
 50
0
 51
180
  0
LINE
  5
A19
330
A02
100
AcDbEntity
  8
Shape765
100
AcDbLine
 10
-130.025
 20
15.4969
 30
0
 11
-130.025
 21
11.4969
 31
0
  0
ARC
  5
A1A
330
A02
100
AcDbEntity
  8
Shape766
100
AcDbCircle
 10
-128.025
 20
11.4969
 30
0
 40
2
100
AcDbArc
 50
180
 51
0
  0
LINE
  5
A1B
330
A02
100
AcDbEntity
  8
Shape767
100
AcDbLine
 10
-126.025
 20
11.4969
 30
0
 11
-126.025
 21
15.4969
 31
0
  0
ARC
  5
A1C
330
A02
100
AcDbEntity
  8
Shape768
100
AcDbCircle
 10
-125.525
 20
15.4969
 30
0
 40
0.5
100
AcDbArc
 50
0
 51
180
  0
LINE
  5
A1D
330
A02
100
AcDbEntity
  8
Shape769
100
AcDbLine
 10
-125.025
 20
15.4969
 30
0
 11
-125.025
 21
10.2469
 31
0
  0
LINE
  5
A1E
330
A02
100
AcDbEntity
  8
Shape770
100
AcDbLine
 10
-125.025
 20
10.2469
 30
0
 11
-107.025
 21
10.2469
 31
0
  0
ARC
  5
A1F
330
A02
100
AcDbEntity
  8
Shape771
100
AcDbCircle
 10
-107.025
 20
11.2469
 30
0
 40
1
100
AcDbArc
 50
-90
 51
0
  0
LINE
  5
A20
330
A02
100
AcDbEntity
  8
Shape772
100
AcDbLine
 10
-106.025
 20
11.2469
 30
0
 11
-106.025
 21
12.7469
 31
0
  0
LINE
  5
A21
330
A02
100
AcDbEntity
  8
Shape773
100
AcDbLine
 10
-17.025
 20
10.2469
 30
0
 11
-35.025
 21
10.2469
 31
0
  0
LINE
  5
A22
330
A02
100
AcDbEntity
  8
Shape774
100
AcDbLine
 10
-35.025
 20
10.2469
 30
0
 11
-35.025
 21
15.4969
 31
0
  0
ARC
  5
A23
330
A02
100
AcDbEntity
  8
Shape775
100
AcDbCircle
 10
-35.525
 20
15.4969
 30
0
 40
0.5
100
AcDbArc
 50
0
 51
180
  0
LINE
  5
A24
330
A02
100
AcDbEntity
  8
Shape776
100
AcDbLine
 10
-36.025
 20
15.4969
 30
0
 11
-36.025
 21
11.4969
 31
0
  0
ARC
  5
A25
330
A02
100
AcDbEntity
  8
Shape777
100
AcDbCircle
 10
-38.025
 20
11.4969
 30
0
 40
2
100
AcDbArc
 50
180
 51
0
  0
LINE
  5
A26
330
A02
100
AcDbEntity
  8
Shape778
100
AcDbLine
 10
-40.025
 20
11.4969
 30
0
 11
-40.025
 21
15.4969
 31
0
  0
ARC
  5
A27
330
A02
100
AcDbEntity
  8
Shape779
100
AcDbCircle
 10
-40.525
 20
15.4969
 30
0
 40
0.5
100
AcDbArc
 50
0
 51
180
  0
LINE
  5
A28
330
A02
100
AcDbEntity
  8
Shape780
100
AcDbLine
 10
-41.025
 20
15.4969
 30
0
 11
-41.025
 21
10.2469
 31
0
  0
LINE
  5
A29
330
A02
100
AcDbEntity
  8
Shape781
100
AcDbLine
 10
-41.025
 20
10.2469
 30
0
 11
-59.025
 21
10.2469
 31
0
  0
ARC
  5
A2A
330
A02
100
AcDbEntity
  8
Shape782
100
AcDbCircle
 10
-59.025
 20
11.2469
 30
0
 40
1
100
AcDbArc
 50
180
 51
-90
  0
LINE
  5
A2B
330
A02
100
AcDbEntity
  8
Shape783
100
AcDbLine
 10
-60.025
 20
11.2469
 30
0
 11
-60.025
 21
12.7469
 31
0
  0
ARC
  5
A2C
330
A02
100
AcDbEntity
  8
Shape784
100
AcDbCircle
 10
-59.025
 20
12.7469
 30
0
 40
1
100
AcDbArc
 50
90
 51
180
  0
LINE
  5
A2D
330
A02
100
AcDbEntity
  8
Shape785
100
AcDbLine
 10
-59.025
 20
13.7469
 30
0
 11
-48.525
 21
13.7469
 31
0
  0
ARC
  5
A2E
330
A02
100
AcDbEntity
  8
Shape786
100
AcDbCircle
 10
-48.525
 20
14.2469
 30
0
 40
0.5
100
AcDbArc
 50
-90
 51
0
  0
LINE
  5
A2F
330
A02
100
AcDbEntity
  8
Shape787
100
AcDbLine
 10
-48.025
 20
14.2469
 30
0
 11
-48.025
 21
14.4959
 31
0
  0
ARC
  5
A30
330
A02
100
AcDbEntity
  8
Shape788
100
AcDbCircle
 10
-48.525
 20
14.4959
 30
0
 40
0.5
100
AcDbArc
 50
0
 51
90
  0
LINE
  5
A31
330
A02
100
AcDbEntity
  8
Shape789
100
AcDbLine
 10
-48.525
 20
14.9959
 30
0
 11
-117.525
 21
14.9959
 31
0
  0
ARC
  5
A32
330
A02
100
AcDbEntity
  8
Shape790
100
AcDbCircle
 10
-117.525
 20
14.4959
 30
0
 40
0.5
100
AcDbArc
 50
90
 51
180
  0
LINE
  5
A33
330
A02
100
AcDbEntity
  8
Shape791
100
AcDbLine
 10
-118.025
 20
14.4959
 30
0
 11
-118.025
 21
14.2469
 31
0
  0
ARC
  5
A34
330
A02
100
AcDbEntity
  8
Shape792
100
AcDbCircle
 10
-117.525
 20
14.2469
 30
0
 40
0.5
100
AcDbArc
 50
180
 51
-90
  0
LINE
  5
A35
330
A02
100
AcDbEntity
  8
Shape793
100
AcDbLine
 10
-117.525
 20
13.7469
 30
0
 11
-107.025
 21
13.7469
 31
0
  0
ARC
  5
A36
330
A02
100
AcDbEntity
  8
Shape794
100
AcDbCircle
 10
-107.025
 20
12.7469
 30
0
 40
1
100
AcDbArc
 50
0
 51
90
  0
LINE
  5
A37
330
A02
100
AcDbEntity
  8
Shape795
100
AcDbLine
 10
-207.525
 20
91.3959
 30
0
 11
-138.525
 21
91.3959
 31
0
  0
ARC
  5
A38
330
A02
100
AcDbEntity
  8
Shape796
100
AcDbCircle
 10
-138.525
 20
91.8959
 30
0
 40
0.5
100
AcDbArc
 50
-90
 51
0
  0
LINE
  5
A39
330
A02
100
AcDbEntity
  8
Shape797
100
AcDbLine
 10
-138.025
 20
91.8959
 30
0
 11
-138.025
 21
92.1449
 31
0
  0
ARC
  5
A3A
330
A02
100
AcDbEntity
  8
Shape798
100
AcDbCircle
 10
-138.525
 20
92.1449
 30
0
 40
0.5
100
AcDbArc
 50
0
 51
90
  0
LINE
  5
A3B
330
A02
100
AcDbEntity
  8
Shape799
100
AcDbLine
 10
-138.525
 20
92.6449
 30
0
 11
-149.025
 21
92.6449
 31
0
  0
ARC
  5
A3C
330
A02
100
AcDbEntity
  8
Shape800
100
AcDbCircle
 10
-149.025
 20
93.6449
 30
0
 40
1
100
AcDbArc
 50
180
 51
-90
  0
LINE
  5
A3D
330
A02
100
AcDbEntity
  8
Shape801
100
AcDbLine
 10
-150.025
 20
93.6449
 30
0
 11
-150.025
 21
95.1449
 31
0
  0
ARC
  5
A3E
330
A02
100
AcDbEntity
  8
Shape802
100
AcDbCircle
 10
-149.025
 20
95.1449
 30
0
 40
1
100
AcDbArc
 50
90
 51
180
  0
LINE
  5
A3F
330
A02
100
AcDbEntity
  8
Shape803
100
AcDbLine
 10
-149.025
 20
96.1449
 30
0
 11
-131.025
 21
96.1449
 31
0
  0
LINE
  5
A40
330
A02
100
AcDbEntity
  8
Shape804
100
AcDbLine
 10
-131.025
 20
96.1449
 30
0
 11
-131.025
 21
90.8949
 31
0
  0
ARC
  5
A41
330
A02
100
AcDbEntity
  8
Shape805
100
AcDbCircle
 10
-130.525
 20
90.8949
 30
0
 40
0.5
100
AcDbArc
 50
180
 51
0
  0
LINE
  5
A42
330
A02
100
AcDbEntity
  8
Shape806
100
AcDbLine
 10
-130.025
 20
90.8949
 30
0
 11
-130.025
 21
94.8949
 31
0
  0
ARC
  5
A43
330
A02
100
AcDbEntity
  8
Shape807
100
AcDbCircle
 10
-128.025
 20
94.8949
 30
0
 40
2
100
AcDbArc
 50
0
 51
180
  0
LINE
  5
A44
330
A02
100
AcDbEntity
  8
Shape808
100
AcDbLine
 10
-126.025
 20
94.8949
 30
0
 11
-126.025
 21
90.8949
 31
0
  0
ARC
  5
A45
330
A02
100
AcDbEntity
  8
Shape809
100
AcDbCircle
 10
-125.525
 20
90.8949
 30
0
 40
0.5
100
AcDbArc
 50
180
 51
0
  0
LINE
  5
A46
330
A02
100
AcDbEntity
  8
Shape810
100
AcDbLine
 10
-125.025
 20
90.8949
 30
0
 11
-125.025
 21
96.1449
 31
0
  0
LINE
  5
A47
330
A02
100
AcDbEntity
  8
Shape811
100
AcDbLine
 10
-125.025
 20
96.1449
 30
0
 11
-107.025
 21
96.1449
 31
0
  0
ARC
  5
A48
330
A02
100
AcDbEntity
  8
Shape812
100
AcDbCircle
 10
-107.025
 20
95.1449
 30
0
 40
1
100
AcDbArc
 50
0
 51
90
  0
LINE
  5
A49
330
A02
100
AcDbEntity
  8
Shape813
100
AcDbLine
 10
-106.025
 20
95.1449
 30
0
 11
-106.025
 21
93.6449
 31
0
  0
LINE
  5
A4A
330
A02
100
AcDbEntity
  8
Shape814
100
AcDbLine
 10
-4.19498
 20
36.6209
 30
0
 11
-4.19498
 21
89.3959
 31
0
  0
ARC
  5
A4B
330
A02
100
AcDbEntity
  8
Shape815
100
AcDbCircle
 10
-6.19498
 20
89.3959
 30
0
 40
2
100
AcDbArc
 50
0
 51
90
  0
LINE
  5
A4C
330
A02
100
AcDbEntity
  8
Shape816
100
AcDbLine
 10
-6.19498
 20
91.3959
 30
0
 11
-27.525
 21
91.3959
 31
0
  0
ARC
  5
A4D
330
A02
100
AcDbEntity
  8
Shape817
100
AcDbCircle
 10
-27.525
 20
91.8959
 30
0
 40
0.5
100
AcDbArc
 50
180
 51
-90
  0
LINE
  5
A4E
330
A02
100
AcDbEntity
  8
Shape818
100
AcDbLine
 10
-28.025
 20
91.8959
 30
0
 11
-28.025
 21
92.1449
 31
0
  0
ARC
  5
A4F
330
A02
100
AcDbEntity
  8
Shape819
100
AcDbCircle
 10
-27.525
 20
92.1449
 30
0
 40
0.5
100
AcDbArc
 50
90
 51
180
  0
LINE
  5
A50
330
A02
100
AcDbEntity
  8
Shape820
100
AcDbLine
 10
-27.525
 20
92.6449
 30
0
 11
-17.025
 21
92.6449
 31
0
  0
ARC
  5
A51
330
A02
100
AcDbEntity
  8
Shape821
100
AcDbCircle
 10
-17.025
 20
93.6449
 30
0
 40
1
100
AcDbArc
 50
-90
 51
0
  0
LINE
  5
A52
330
A02
100
AcDbEntity
  8
Shape822
100
AcDbLine
 10
-16.025
 20
93.6449
 30
0
 11
-16.025
 21
95.1449
 31
0
  0
ARC
  5
A53
330
A02
100
AcDbEntity
  8
Shape823
100
AcDbCircle
 10
-17.025
 20
95.1449
 30
0
 40
1
100
AcDbArc
 50
0
 51
90
  0
LINE
  5
A54
330
A02
100
AcDbEntity
  8
Shape824
100
AcDbLine
 10
-17.025
 20
96.1449
 30
0
 11
-35.025
 21
96.1449
 31
0
  0
LINE
  5
A55
330
A02
100
AcDbEntity
  8
Shape825
100
AcDbLine
 10
-35.025
 20
96.1449
 30
0
 11
-35.025
 21
90.8949
 31
0
  0
ARC
  5
A56
330
A02
100
AcDbEntity
  8
Shape826
100
AcDbCircle
 10
-35.525
 20
90.8949
 30
0
 40
0.5
100
AcDbArc
 50
180
 51
0
  0
LINE
  5
A57
330
A02
100
AcDbEntity
  8
Shape827
100
AcDbLine
 10
-36.025
 20
90.8949
 30
0
 11
-36.025
 21
94.8949
 31
0
  0
ARC
  5
A58
330
A02
100
AcDbEntity
  8
Shape828
100
AcDbCircle
 10
-38.025
 20
94.8949
 30
0
 40
2
100
AcDbArc
 50
0
 51
180
  0
LINE
  5
A59
330
A02
100
AcDbEntity
  8
Shape829
100
AcDbLine
 10
-40.025
 20
94.8949
 30
0
 11
-40.025
 21
90.8949
 31
0
  0
ARC
  5
A5A
330
A02
100
AcDbEntity
  8
Shape830
100
AcDbCircle
 10
-40.525
 20
90.8949
 30
0
 40
0.5
100
AcDbArc
 50
180
 51
0
  0
LINE
  5
A5B
330
A02
100
AcDbEntity
  8
Shape831
100
AcDbLine
 10
-41.025
 20
90.8949
 30
0
 11
-41.025
 21
96.1449
 31
0
  0
LINE
  5
A5C
330
A02
100
AcDbEntity
  8
Shape832
100
AcDbLine
 10
-41.025
 20
96.1449
 30
0
 11
-59.025
 21
96.1449
 31
0
  0
ARC
  5
A5D
330
A02
100
AcDbEntity
  8
Shape833
100
AcDbCircle
 10
-59.025
 20
95.1449
 30
0
 40
1
100
AcDbArc
 50
90
 51
180
  0
LINE
  5
A5E
330
A02
100
AcDbEntity
  8
Shape834
100
AcDbLine
 10
-60.025
 20
95.1449
 30
0
 11
-60.025
 21
93.6449
 31
0
  0
ARC
  5
A5F
330
A02
100
AcDbEntity
  8
Shape835
100
AcDbCircle
 10
-59.025
 20
93.6449
 30
0
 40
1
100
AcDbArc
 50
180
 51
-90
  0
LINE
  5
A60
330
A02
100
AcDbEntity
  8
Shape836
100
AcDbLine
 10
-59.025
 20
92.6449
 30
0
 11
-48.525
 21
92.6449
 31
0
  0
ARC
  5
A61
330
A02
100
AcDbEntity
  8
Shape837
100
AcDbCircle
 10
-48.525
 20
92.1449
 30
0
 40
0.5
100
AcDbArc
 50
0
 51
90
  0
LINE
  5
A62
330
A02
100
AcDbEntity
  8
Shape838
100
AcDbLine
 10
-48.025
 20
92.1449
 30
0
 11
-48.025
 21
91.8959
 31
0
  0
ARC
  5
A63
330
A02
100
AcDbEntity
  8
Shape839
100
AcDbCircle
 10
-48.525
 20
91.8959
 30
0
 40
0.5
100
AcDbArc
 50
-90
 51
0
  0
LINE
  5
A64
330
A02
100
AcDbEntity
  8
Shape840
100
AcDbLine
 10
-48.525
 20
91.3959
 30
0
 11
-117.525
 21
91.3959
 31
0
  0
ARC
  5
A65
330
A02
100
AcDbEntity
  8
Shape841
100
AcDbCircle
 10
-117.525
 20
91.8959
 30
0
 40
0.5
100
AcDbArc
 50
180
 51
-90
  0
LINE
  5
A66
330
A02
100
AcDbEntity
  8
Shape842
100
AcDbLine
 10
-118.025
 20
91.8959
 30
0
 11
-118.025
 21
92.1449
 31
0
  0
ARC
  5
A67
330
A02
100
AcDbEntity
  8
Shape843
100
AcDbCircle
 10
-117.525
 20
92.1449
 30
0
 40
0.5
100
AcDbArc
 50
90
 51
180
  0
LINE
  5
A68
330
A02
100
AcDbEntity
  8
Shape844
100
AcDbLine
 10
-117.525
 20
92.6449
 30
0
 11
-107.025
 21
92.6449
 31
0
  0
ARC
  5
A69
330
A02
100
AcDbEntity
  8
Shape845
100
AcDbCircle
 10
-107.025
 20
93.6449
 30
0
 40
1
100
AcDbArc
 50
-90
 51
0
  0
ARC
  5
A6A
330
A02
100
AcDbEntity
  8
Shape846
100
AcDbCircle
 10
-207.525
 20
91.8959
 30
0
 40
0.5
100
AcDbArc
 50
180
 51
-90
  0
LINE
  5
A6B
330
A02
100
AcDbEntity
  8
Shape847
100
AcDbLine
 10
-208.025
 20
91.8959
 30
0
 11
-208.025
 21
92.1449
 31
0
  0
ARC
  5
A6C
330
A02
100
AcDbEntity
  8
Shape848
100
AcDbCircle
 10
-207.525
 20
92.1449
 30
0
 40
0.5
100
AcDbArc
 50
90
 51
180
  0
LINE
  5
A6D
330
A02
100
AcDbEntity
  8
Shape849
100
AcDbLine
 10
-207.525
 20
92.6449
 30
0
 11
-197.025
 21
92.6449
 31
0
  0
ARC
  5
A6E
330
A02
100
AcDbEntity
  8
Shape850
100
AcDbCircle
 10
-197.025
 20
93.6449
 30
0
 40
1
100
AcDbArc
 50
-90
 51
0
  0
LINE
  5
A6F
330
A02
100
AcDbEntity
  8
Shape851
100
AcDbLine
 10
-196.025
 20
93.6449
 30
0
 11
-196.025
 21
95.1449
 31
0
  0
ARC
  5
A70
330
A02
100
AcDbEntity
  8
Shape852
100
AcDbCircle
 10
-197.025
 20
95.1449
 30
0
 40
1
100
AcDbArc
 50
0
 51
90
  0
LINE
  5
A71
330
A02
100
AcDbEntity
  8
Shape853
100
AcDbLine
 10
-197.025
 20
96.1449
 30
0
 11
-215.025
 21
96.1449
 31
0
  0
LINE
  5
A72
330
A02
100
AcDbEntity
  8
Shape854
100
AcDbLine
 10
-215.025
 20
96.1449
 30
0
 11
-215.025
 21
90.8949
 31
0
  0
ARC
  5
A73
330
A02
100
AcDbEntity
  8
Shape855
100
AcDbCircle
 10
-215.525
 20
90.8949
 30
0
 40
0.5
100
AcDbArc
 50
180
 51
0
  0
LINE
  5
A74
330
A02
100
AcDbEntity
  8
Shape856
100
AcDbLine
 10
-216.025
 20
90.8949
 30
0
 11
-216.025
 21
94.8949
 31
0
  0
ARC
  5
A75
330
A02
100
AcDbEntity
  8
Shape857
100
AcDbCircle
 10
-218.025
 20
94.8949
 30
0
 40
2
100
AcDbArc
 50
0
 51
180
  0
LINE
  5
A76
330
A02
100
AcDbEntity
  8
Shape858
100
AcDbLine
 10
-220.025
 20
94.8949
 30
0
 11
-220.025
 21
90.8949
 31
0
  0
ARC
  5
A77
330
A02
100
AcDbEntity
  8
Shape859
100
AcDbCircle
 10
-220.525
 20
90.8949
 30
0
 40
0.5
100
AcDbArc
 50
180
 51
0
  0
LINE
  5
A78
330
A02
100
AcDbEntity
  8
Shape860
100
AcDbLine
 10
-221.025
 20
90.8949
 30
0
 11
-221.025
 21
96.1449
 31
0
  0
LINE
  5
A79
330
A02
100
AcDbEntity
  8
Shape861
100
AcDbLine
 10
-221.025
 20
96.1449
 30
0
 11
-239.025
 21
96.1449
 31
0
  0
ARC
  5
A7A
330
A02
100
AcDbEntity
  8
Shape862
100
AcDbCircle
 10
-239.025
 20
95.1449
 30
0
 40
1
100
AcDbArc
 50
90
 51
180
  0
LINE
  5
A7B
330
A02
100
AcDbEntity
  8
Shape863
100
AcDbLine
 10
-240.025
 20
95.1449
 30
0
 11
-240.025
 21
93.6449
 31
0
  0
ARC
  5
A7C
330
A02
100
AcDbEntity
  8
Shape864
100
AcDbCircle
 10
-239.025
 20
93.6449
 30
0
 40
1
100
AcDbArc
 50
180
 51
-90
  0
LINE
  5
A7D
330
A02
100
AcDbEntity
  8
Shape865
100
AcDbLine
 10
-239.025
 20
92.6449
 30
0
 11
-228.525
 21
92.6449
 31
0
  0
ARC
  5
A7E
330
A02
100
AcDbEntity
  8
Shape866
100
AcDbCircle
 10
-228.525
 20
92.1449
 30
0
 40
0.5
100
AcDbArc
 50
0
 51
90
  0
LINE
  5
A7F
330
A02
100
AcDbEntity
  8
Shape867
100
AcDbLine
 10
-228.025
 20
92.1449
 30
0
 11
-228.025
 21
91.8959
 31
0
  0
ARC
  5
A80
330
A02
100
AcDbEntity
  8
Shape868
100
AcDbCircle
 10
-228.525
 20
91.8959
 30
0
 40
0.5
100
AcDbArc
 50
-90
 51
0
  0
LINE
  5
A81
330
A02
100
AcDbEntity
  8
Shape869
100
AcDbLine
 10
-228.525
 20
91.3959
 30
0
 11
-249.845
 21
91.3959
 31
0
  0
ARC
  5
A82
330
A02
100
AcDbEntity
  8
Shape870
100
AcDbCircle
 10
-249.845
 20
89.3959
 30
0
 40
2
100
AcDbArc
 50
90
 51
180
  0
LINE
  5
A83
330
A02
100
AcDbEntity
  8
Shape871
100
AcDbLine
 10
-251.845
 20
89.3959
 30
0
 11
-251.845
 21
36.6209
 31
0
  0
ARC
  5
A84
330
A02
100
AcDbEntity
  8
Shape872
100
AcDbCircle
 10
-17.025
 20
11.2469
 30
0
 40
1
100
AcDbArc
 50
-90
 51
0
  0
LINE
  5
A85
330
A02
100
AcDbEntity
  8
Shape873
100
AcDbLine
 10
-16.025
 20
11.2469
 30
0
 11
-16.025
 21
12.7469
 31
0
  0
ARC
  5
A86
330
A02
100
AcDbEntity
  8
Shape874
100
AcDbCircle
 10
-17.025
 20
12.7469
 30
0
 40
1
100
AcDbArc
 50
0
 51
90
  0
LINE
  5
A87
330
A02
100
AcDbEntity
  8
Shape875
100
AcDbLine
 10
-17.025
 20
13.7469
 30
0
 11
-27.525
 21
13.7469
 31
0
  0
ARC
  5
A88
330
A02
100
AcDbEntity
  8
Shape876
100
AcDbCircle
 10
-27.525
 20
14.2469
 30
0
 40
0.5
100
AcDbArc
 50
180
 51
-90
  0
LINE
  5
A89
330
A02
100
AcDbEntity
  8
Shape877
100
AcDbLine
 10
-28.025
 20
14.2469
 30
0
 11
-28.025
 21
14.4959
 31
0
  0
ARC
  5
A8A
330
A02
100
AcDbEntity
  8
Shape878
100
AcDbCircle
 10
-27.525
 20
14.4959
 30
0
 40
0.5
100
AcDbArc
 50
90
 51
180
  0
LINE
  5
A8B
330
A02
100
AcDbEntity
  8
Shape879
100
AcDbLine
 10
-27.525
 20
14.9959
 30
0
 11
-26.605
 21
14.9959
 31
0
  0
ARC
  5
A8C
330
A02
100
AcDbEntity
  8
Shape880
100
AcDbCircle
 10
-26.605
 20
15.4959
 30
0
 40
0.5
100
AcDbArc
 50
-90
 51
0
  0
LINE
  5
A8D
330
A02
100
AcDbEntity
  8
Shape881
100
AcDbLine
 10
-26.105
 20
15.4959
 30
0
 11
-26.105
 21
31.6209
 31
0
  0
ARC
  5
A8E
330
A02
100
AcDbEntity
  8
Shape882
100
AcDbCircle
 10
-23.105
 20
31.6209
 30
0
 40
3
100
AcDbArc
 50
90
 51
180
  0
LINE
  5
A8F
330
A02
100
AcDbEntity
  8
Shape883
100
AcDbLine
 10
-23.105
 20
34.6209
 30
0
 11
-6.19498
 21
34.6209
 31
0
  0
ARC
  5
A90
330
A02
100
AcDbEntity
  8
Shape884
100
AcDbCircle
 10
-6.19498
 20
36.6209
 30
0
 40
2
100
AcDbArc
 50
-90
 51
0
  0
ARC
  5
A91
330
A02
100
AcDbEntity
  8
Shape885
100
AcDbCircle
 10
-249.845
 20
36.6209
 30
0
 40
2
100
AcDbArc
 50
180
 51
-90
  0
LINE
  5
A92
330
A02
100
AcDbEntity
  8
Shape886
100
AcDbLine
 10
-249.845
 20
34.6209
 30
0
 11
-232.945
 21
34.6209
 31
0
  0
ARC
  5
A93
330
A02
100
AcDbEntity
  8
Shape887
100
AcDbCircle
 10
-232.945
 20
31.6209
 30
0
 40
3
100
AcDbArc
 50
0
 51
90
  0
LINE
  5
A94
330
A02
100
AcDbEntity
  8
Shape888
100
AcDbLine
 10
-229.945
 20
31.6209
 30
0
 11
-229.945
 21
15.4959
 31
0
  0
ARC
  5
A95
330
A02
100
AcDbEntity
  8
Shape889
100
AcDbCircle
 10
-229.445
 20
15.4959
 30
0
 40
0.5
100
AcDbArc
 50
180
 51
-90
  0
LINE
  5
A96
330
A02
100
AcDbEntity
  8
Shape890
100
AcDbLine
 10
-229.445
 20
14.9959
 30
0
 11
-228.525
 21
14.9959
 31
0
  0
ARC
  5
A97
330
A02
100
AcDbEntity
  8
Shape891
100
AcDbCircle
 10
-228.525
 20
14.4959
 30
0
 40
0.5
100
AcDbArc
 50
0
 51
90
  0
LINE
  5
A98
330
A02
100
AcDbEntity
  8
Shape892
100
AcDbLine
 10
-228.025
 20
14.4959
 30
0
 11
-228.025
 21
14.2469
 31
0
  0
ARC
  5
A99
330
A02
100
AcDbEntity
  8
Shape893
100
AcDbCircle
 10
-228.525
 20
14.2469
 30
0
 40
0.5
100
AcDbArc
 50
-90
 51
0
  0
LINE
  5
A9A
330
A02
100
AcDbEntity
  8
Shape894
100
AcDbLine
 10
-228.525
 20
13.7469
 30
0
 11
-239.025
 21
13.7469
 31
0
  0
ARC
  5
A9B
330
A02
100
AcDbEntity
  8
Shape895
100
AcDbCircle
 10
-239.025
 20
12.7469
 30
0
 40
1
100
AcDbArc
 50
90
 51
180
  0
LINE
  5
A9C
330
A02
100
AcDbEntity
  8
Shape896
100
AcDbLine
 10
-240.025
 20
12.7469
 30
0
 11
-240.025
 21
11.2469
 31
0
  0
ARC
  5
A9D
330
A02
100
AcDbEntity
  8
Shape897
100
AcDbCircle
 10
-239.025
 20
11.2469
 30
0
 40
1
100
AcDbArc
 50
180
 51
-90
  0
LINE
  5
A9E
330
A02
100
AcDbEntity
  8
Shape898
100
AcDbLine
 10
-239.025
 20
10.2469
 30
0
 11
-221.025
 21
10.2469
 31
0
  0
LINE
  5
A9F
330
A02
100
AcDbEntity
  8
Shape899
100
AcDbLine
 10
-221.025
 20
10.2469
 30
0
 11
-221.025
 21
15.4969
 31
0
  0
ARC
  5
AA0
330
A02
100
AcDbEntity
  8
Shape900
100
AcDbCircle
 10
-220.525
 20
15.4969
 30
0
 40
0.5
100
AcDbArc
 50
0
 51
180
  0
LINE
  5
AA1
330
A02
100
AcDbEntity
  8
Shape901
100
AcDbLine
 10
-220.025
 20
15.4969
 30
0
 11
-220.025
 21
11.4969
 31
0
  0
ARC
  5
AA2
330
A02
100
AcDbEntity
  8
Shape902
100
AcDbCircle
 10
-218.025
 20
11.4969
 30
0
 40
2
100
AcDbArc
 50
180
 51
0
  0
LINE
  5
AA3
330
A02
100
AcDbEntity
  8
Shape903
100
AcDbLine
 10
-216.025
 20
11.4969
 30
0
 11
-216.025
 21
15.4969
 31
0
  0
ARC
  5
AA4
330
A02
100
AcDbEntity
  8
Shape904
100
AcDbCircle
 10
-215.525
 20
15.4969
 30
0
 40
0.5
100
AcDbArc
 50
0
 51
180
  0
LINE
  5
AA5
330
A02
100
AcDbEntity
  8
Shape905
100
AcDbLine
 10
-215.025
 20
15.4969
 30
0
 11
-215.025
 21
10.2469
 31
0
  0
LINE
  5
AA6
330
A02
100
AcDbEntity
  8
Shape906
100
AcDbLine
 10
-215.025
 20
10.2469
 30
0
 11
-197.025
 21
10.2469
 31
0
  0
ARC
  5
AA7
330
A02
100
AcDbEntity
  8
Shape907
100
AcDbCircle
 10
-197.025
 20
11.2469
 30
0
 40
1
100
AcDbArc
 50
-90
 51
0
  0
LINE
  5
AA8
330
A02
100
AcDbEntity
  8
Shape908
100
AcDbLine
 10
-196.025
 20
11.2469
 30
0
 11
-196.025
 21
12.7469
 31
0
  0
ARC
  5
AA9
330
A02
100
AcDbEntity
  8
Shape909
100
AcDbCircle
 10
-197.025
 20
12.7469
 30
0
 40
1
100
AcDbArc
 50
0
 51
90
  0
LINE
  5
AAA
330
A02
100
AcDbEntity
  8
Shape910
100
AcDbLine
 10
-197.025
 20
13.7469
 30
0
 11
-207.525
 21
13.7469
 31
0
  0
ARC
  5
AAB
330
A02
100
AcDbEntity
  8
Shape911
100
AcDbCircle
 10
-207.525
 20
14.2469
 30
0
 40
0.5
100
AcDbArc
 50
180
 51
-90
  0
LINE
  5
AAC
330
A02
100
AcDbEntity
  8
Shape912
100
AcDbLine
 10
-208.025
 20
14.2469
 30
0
 11
-208.025
 21
14.4959
 31
0
  0
ARC
  5
AAD
330
A02
100
AcDbEntity
  8
Shape913
100
AcDbCircle
 10
-207.525
 20
14.4959
 30
0
 40
0.5
100
AcDbArc
 50
90
 51
180
  0
LINE
  5
AAE
330
A02
100
AcDbEntity
  8
Shape914
100
AcDbLine
 10
-230.325
 20
74.7209
 30
0
 11
-230.325
 21
88.8209
 31
0
  0
LINE
  5
AAF
330
A02
100
AcDbEntity
  8
Shape915
100
AcDbLine
 10
-230.325
 20
88.8209
 30
0
 11
-216.225
 21
88.8209
 31
0
  0
LINE
  5
AB0
330
A02
100
AcDbEntity
  8
Shape916
100
AcDbLine
 10
-216.225
 20
88.8209
 30
0
 11
-216.225
 21
74.7209
 31
0
  0
LINE
  5
AB1
330
A02
100
AcDbEntity
  8
Shape917
100
AcDbLine
 10
-216.225
 20
74.7209
 30
0
 11
-230.325
 21
74.7209
 31
0
  0
LINE
  5
AB2
330
A02
100
AcDbEntity
  8
Shape918
100
AcDbLine
 10
-242.225
 20
36.6209
 30
0
 11
-242.225
 21
50.7209
 31
0
  0
LINE
  5
AB3
330
A02
100
AcDbEntity
  8
Shape919
100
AcDbLine
 10
-242.225
 20
50.7209
 30
0
 11
-228.125
 21
50.7209
 31
0
  0
LINE
  5
AB4
330
A02
100
AcDbEntity
  8
Shape920
100
AcDbLine
 10
-228.125
 20
50.7209
 30
0
 11
-228.125
 21
36.6209
 31
0
  0
LINE
  5
AB5
330
A02
100
AcDbEntity
  8
Shape921
100
AcDbLine
 10
-228.125
 20
36.6209
 30
0
 11
-242.225
 21
36.6209
 31
0
  0
LINE
  5
AB6
330
A02
100
AcDbEntity
  8
Shape922
100
AcDbLine
 10
-120.975
 20
88.8209
 30
0
 11
-120.975
 21
74.7209
 31
0
  0
LINE
  5
AB7
330
A02
100
AcDbEntity
  8
Shape923
100
AcDbLine
 10
-120.975
 20
74.7209
 30
0
 11
-135.075
 21
74.7209
 31
0
  0
LINE
  5
AB8
330
A02
100
AcDbEntity
  8
Shape924
100
AcDbLine
 10
-135.075
 20
74.7209
 30
0
 11
-135.075
 21
88.8209
 31
0
  0
LINE
  5
AB9
330
A02
100
AcDbEntity
  8
Shape925
100
AcDbLine
 10
-135.075
 20
88.8209
 30
0
 11
-120.975
 21
88.8209
 31
0
  0
LINE
  5
ABA
330
A02
100
AcDbEntity
  8
Shape926
100
AcDbLine
 10
-96.975
 20
88.8209
 30
0
 11
-82.875
 21
88.8209
 31
0
  0
LINE
  5
ABB
330
A02
100
AcDbEntity
  8
Shape927
100
AcDbLine
 10
-82.875
 20
88.8209
 30
0
 11
-82.875
 21
74.7209
 31
0
  0
LINE
  5
ABC
330
A02
100
AcDbEntity
  8
Shape928
100
AcDbLine
 10
-82.875
 20
74.7209
 30
0
 11
-96.975
 21
74.7209
 31
0
  0
LINE
  5
ABD
330
A02
100
AcDbEntity
  8
Shape929
100
AcDbLine
 10
-96.975
 20
74.7209
 30
0
 11
-96.975
 21
88.8209
 31
0
  0
LINE
  5
ABE
330
A02
100
AcDbEntity
  8
Shape930
100
AcDbLine
 10
-101.925
 20
74.7209
 30
0
 11
-116.025
 21
74.7209
 31
0
  0
LINE
  5
ABF
330
A02
100
AcDbEntity
  8
Shape931
100
AcDbLine
 10
-116.025
 20
74.7209
 30
0
 11
-116.025
 21
88.8209
 31
0
  0
LINE
  5
AC0
330
A02
100
AcDbEntity
  8
Shape932
100
AcDbLine
 10
-116.025
 20
88.8209
 30
0
 11
-101.925
 21
88.8209
 31
0
  0
LINE
  5
AC1
330
A02
100
AcDbEntity
  8
Shape933
100
AcDbLine
 10
-101.925
 20
88.8209
 30
0
 11
-101.925
 21
74.7209
 31
0
  0
LINE
  5
AC2
330
A02
100
AcDbEntity
  8
Shape934
100
AcDbLine
 10
-39.825
 20
88.8209
 30
0
 11
-25.725
 21
88.8209
 31
0
  0
LINE
  5
AC3
330
A02
100
AcDbEntity
  8
Shape935
100
AcDbLine
 10
-25.725
 20
88.8209
 30
0
 11
-25.725
 21
74.7209
 31
0
  0
LINE
  5
AC4
330
A02
100
AcDbEntity
  8
Shape936
100
AcDbLine
 10
-25.725
 20
74.7209
 30
0
 11
-39.825
 21
74.7209
 31
0
  0
LINE
  5
AC5
330
A02
100
AcDbEntity
  8
Shape937
100
AcDbLine
 10
-39.825
 20
74.7209
 30
0
 11
-39.825
 21
88.8209
 31
0
  0
LINE
  5
AC6
330
A02
100
AcDbEntity
  8
Shape938
100
AcDbLine
 10
-6.67498
 20
88.8209
 30
0
 11
-6.67498
 21
74.7209
 31
0
  0
LINE
  5
AC7
330
A02
100
AcDbEntity
  8
Shape939
100
AcDbLine
 10
-6.67498
 20
74.7209
 30
0
 11
-20.775
 21
74.7209
 31
0
  0
LINE
  5
AC8
330
A02
100
AcDbEntity
  8
Shape940
100
AcDbLine
 10
-20.775
 20
74.7209
 30
0
 11
-20.775
 21
88.8209
 31
0
  0
LINE
  5
AC9
330
A02
100
AcDbEntity
  8
Shape941
100
AcDbLine
 10
-20.775
 20
88.8209
 30
0
 11
-6.67498
 21
88.8209
 31
0
  0
LINE
  5
ACA
330
A02
100
AcDbEntity
  8
Shape942
100
AcDbLine
 10
-44.585
 20
50.7209
 30
0
 11
-30.485
 21
50.7209
 31
0
  0
LINE
  5
ACB
330
A02
100
AcDbEntity
  8
Shape943
100
AcDbLine
 10
-30.485
 20
50.7209
 30
0
 11
-30.485
 21
36.6209
 31
0
  0
LINE
  5
ACC
330
A02
100
AcDbEntity
  8
Shape944
100
AcDbLine
 10
-30.485
 20
36.6209
 30
0
 11
-44.585
 21
36.6209
 31
0
  0
LINE
  5
ACD
330
A02
100
AcDbEntity
  8
Shape945
100
AcDbLine
 10
-44.585
 20
36.6209
 30
0
 11
-44.585
 21
50.7209
 31
0
  0
LINE
  5
ACE
330
A02
100
AcDbEntity
  8
Shape946
100
AcDbLine
 10
-225.565
 20
55.6709
 30
0
 11
-225.565
 21
69.7709
 31
0
  0
LINE
  5
ACF
330
A02
100
AcDbEntity
  8
Shape947
100
AcDbLine
 10
-225.565
 20
69.7709
 30
0
 11
-211.465
 21
69.7709
 31
0
  0
LINE
  5
AD0
330
A02
100
AcDbEntity
  8
Shape948
100
AcDbLine
 10
-211.465
 20
69.7709
 30
0
 11
-211.465
 21
55.6709
 31
0
  0
LINE
  5
AD1
330
A02
100
AcDbEntity
  8
Shape949
100
AcDbLine
 10
-211.465
 20
55.6709
 30
0
 11
-225.565
 21
55.6709
 31
0
  0
LINE
  5
AD2
330
A02
100
AcDbEntity
  8
Shape950
100
AcDbLine
 10
-9.05498
 20
50.7209
 30
0
 11
-9.05498
 21
36.6209
 31
0
  0
LINE
  5
AD3
330
A02
100
AcDbEntity
  8
Shape951
100
AcDbLine
 10
-9.05498
 20
36.6209
 30
0
 11
-23.155
 21
36.6209
 31
0
  0
LINE
  5
AD4
330
A02
100
AcDbEntity
  8
Shape952
100
AcDbLine
 10
-23.155
 20
36.6209
 30
0
 11
-23.155
 21
50.7209
 31
0
  0
LINE
  5
AD5
330
A02
100
AcDbEntity
  8
Shape953
100
AcDbLine
 10
-23.155
 20
50.7209
 30
0
 11
-9.05498
 21
50.7209
 31
0
  0
LINE
  5
AD6
330
A02
100
AcDbEntity
  8
Shape954
100
AcDbLine
 10
-192.225
 20
74.7209
 30
0
 11
-192.225
 21
88.8209
 31
0
  0
LINE
  5
AD7
330
A02
100
AcDbEntity
  8
Shape955
100
AcDbLine
 10
-192.225
 20
88.8209
 30
0
 11
-178.125
 21
88.8209
 31
0
  0
LINE
  5
AD8
330
A02
100
AcDbEntity
  8
Shape956
100
AcDbLine
 10
-178.125
 20
88.8209
 30
0
 11
-178.125
 21
74.7209
 31
0
  0
LINE
  5
AD9
330
A02
100
AcDbEntity
  8
Shape957
100
AcDbLine
 10
-178.125
 20
74.7209
 30
0
 11
-192.225
 21
74.7209
 31
0
  0
LINE
  5
ADA
330
A02
100
AcDbEntity
  8
Shape958
100
AcDbLine
 10
-154.315
 20
55.6709
 30
0
 11
-168.415
 21
55.6709
 31
0
  0
LINE
  5
ADB
330
A02
100
AcDbEntity
  8
Shape959
100
AcDbLine
 10
-168.415
 20
55.6709
 30
0
 11
-168.415
 21
69.7709
 31
0
  0
LINE
  5
ADC
330
A02
100
AcDbEntity
  8
Shape960
100
AcDbLine
 10
-168.415
 20
69.7709
 30
0
 11
-154.315
 21
69.7709
 31
0
  0
LINE
  5
ADD
330
A02
100
AcDbEntity
  8
Shape961
100
AcDbLine
 10
-154.315
 20
69.7709
 30
0
 11
-154.315
 21
55.6709
 31
0
  0
LINE
  5
ADE
330
A02
100
AcDbEntity
  8
Shape962
100
AcDbLine
 10
-111.265
 20
55.6709
 30
0
 11
-111.265
 21
69.7709
 31
0
  0
LINE
  5
ADF
330
A02
100
AcDbEntity
  8
Shape963
100
AcDbLine
 10
-111.265
 20
69.7709
 30
0
 11
-97.165
 21
69.7709
 31
0
  0
LINE
  5
AE0
330
A02
100
AcDbEntity
  8
Shape964
100
AcDbLine
 10
-97.165
 20
69.7709
 30
0
 11
-97.165
 21
55.6709
 31
0
  0
LINE
  5
AE1
330
A02
100
AcDbEntity
  8
Shape965
100
AcDbLine
 10
-97.165
 20
55.6709
 30
0
 11
-111.265
 21
55.6709
 31
0
  0
LINE
  5
AE2
330
A02
100
AcDbEntity
  8
Shape966
100
AcDbLine
 10
-92.215
 20
55.6709
 30
0
 11
-92.215
 21
69.7709
 31
0
  0
LINE
  5
AE3
330
A02
100
AcDbEntity
  8
Shape967
100
AcDbLine
 10
-92.215
 20
69.7709
 30
0
 11
-78.115
 21
69.7709
 31
0
  0
LINE
  5
AE4
330
A02
100
AcDbEntity
  8
Shape968
100
AcDbLine
 10
-78.115
 20
69.7709
 30
0
 11
-78.115
 21
55.6709
 31
0
  0
LINE
  5
AE5
330
A02
100
AcDbEntity
  8
Shape969
100
AcDbLine
 10
-78.115
 20
55.6709
 30
0
 11
-92.215
 21
55.6709
 31
0
  0
LINE
  5
AE6
330
A02
100
AcDbEntity
  8
Shape970
100
AcDbLine
 10
-40.015
 20
69.7709
 30
0
 11
-40.015
 21
55.6709
 31
0
  0
LINE
  5
AE7
330
A02
100
AcDbEntity
  8
Shape971
100
AcDbLine
 10
-40.015
 20
55.6709
 30
0
 11
-54.115
 21
55.6709
 31
0
  0
LINE
  5
AE8
330
A02
100
AcDbEntity
  8
Shape972
100
AcDbLine
 10
-54.115
 20
55.6709
 30
0
 11
-54.115
 21
69.7709
 31
0
  0
LINE
  5
AE9
330
A02
100
AcDbEntity
  8
Shape973
100
AcDbLine
 10
-54.115
 20
69.7709
 30
0
 11
-40.015
 21
69.7709
 31
0
  0
LINE
  5
AEA
330
A02
100
AcDbEntity
  8
Shape974
100
AcDbLine
 10
-173.365
 20
55.6709
 30
0
 11
-187.465
 21
55.6709
 31
0
  0
LINE
  5
AEB
330
A02
100
AcDbEntity
  8
Shape975
100
AcDbLine
 10
-187.465
 20
55.6709
 30
0
 11
-187.465
 21
69.7709
 31
0
  0
LINE
  5
AEC
330
A02
100
AcDbEntity
  8
Shape976
100
AcDbLine
 10
-187.465
 20
69.7709
 30
0
 11
-173.365
 21
69.7709
 31
0
  0
LINE
  5
AED
330
A02
100
AcDbEntity
  8
Shape977
100
AcDbLine
 10
-173.365
 20
69.7709
 30
0
 11
-173.365
 21
55.6709
 31
0
  0
LINE
  5
AEE
330
A02
100
AcDbEntity
  8
Shape978
100
AcDbLine
 10
-106.685
 20
50.7209
 30
0
 11
-106.685
 21
36.6209
 31
0
  0
LINE
  5
AEF
330
A02
100
AcDbEntity
  8
Shape979
100
AcDbLine
 10
-106.685
 20
36.6209
 30
0
 11
-120.785
 21
36.6209
 31
0
  0
LINE
  5
AF0
330
A02
100
AcDbEntity
  8
Shape980
100
AcDbLine
 10
-120.785
 20
36.6209
 30
0
 11
-120.785
 21
50.7209
 31
0
  0
LINE
  5
AF1
330
A02
100
AcDbEntity
  8
Shape981
100
AcDbLine
 10
-120.785
 20
50.7209
 30
0
 11
-106.685
 21
50.7209
 31
0
  0
LINE
  5
AF2
330
A02
100
AcDbEntity
  8
Shape982
100
AcDbLine
 10
-196.985
 20
36.6209
 30
0
 11
-196.985
 21
50.7209
 31
0
  0
LINE
  5
AF3
330
A02
100
AcDbEntity
  8
Shape983
100
AcDbLine
 10
-196.985
 20
50.7209
 30
0
 11
-182.885
 21
50.7209
 31
0
  0
LINE
  5
AF4
330
A02
100
AcDbEntity
  8
Shape984
100
AcDbLine
 10
-182.885
 20
50.7209
 30
0
 11
-182.885
 21
36.6209
 31
0
  0
LINE
  5
AF5
330
A02
100
AcDbEntity
  8
Shape985
100
AcDbLine
 10
-182.885
 20
36.6209
 30
0
 11
-196.985
 21
36.6209
 31
0
  0
LINE
  5
AF6
330
A02
100
AcDbEntity
  8
Shape986
100
AcDbLine
 10
-140.025
 20
74.7209
 30
0
 11
-154.125
 21
74.7209
 31
0
  0
LINE
  5
AF7
330
A02
100
AcDbEntity
  8
Shape987
100
AcDbLine
 10
-154.125
 20
74.7209
 30
0
 11
-154.125
 21
88.8209
 31
0
  0
LINE
  5
AF8
330
A02
100
AcDbEntity
  8
Shape988
100
AcDbLine
 10
-154.125
 20
88.8209
 30
0
 11
-140.025
 21
88.8209
 31
0
  0
LINE
  5
AF9
330
A02
100
AcDbEntity
  8
Shape989
100
AcDbLine
 10
-140.025
 20
88.8209
 30
0
 11
-140.025
 21
74.7209
 31
0
  0
LINE
  5
AFA
330
A02
100
AcDbEntity
  8
Shape990
100
AcDbLine
 10
-197.175
 20
88.8209
 30
0
 11
-197.175
 21
74.7209
 31
0
  0
LINE
  5
AFB
330
A02
100
AcDbEntity
  8
Shape991
100
AcDbLine
 10
-197.175
 20
74.7209
 30
0
 11
-211.275
 21
74.7209
 31
0
  0
LINE
  5
AFC
330
A02
100
AcDbEntity
  8
Shape992
100
AcDbLine
 10
-211.275
 20
74.7209
 30
0
 11
-211.275
 21
88.8209
 31
0
  0
LINE
  5
AFD
330
A02
100
AcDbEntity
  8
Shape993
100
AcDbLine
 10
-211.275
 20
88.8209
 30
0
 11
-197.175
 21
88.8209
 31
0
  0
LINE
  5
AFE
330
A02
100
AcDbEntity
  8
Shape994
100
AcDbLine
 10
-159.075
 20
88.8209
 30
0
 11
-159.075
 21
74.7209
 31
0
  0
LINE
  5
AFF
330
A02
100
AcDbEntity
  8
Shape995
100
AcDbLine
 10
-159.075
 20
74.7209
 30
0
 11
-173.175
 21
74.7209
 31
0
  0
LINE
  5
B00
330
A02
100
AcDbEntity
  8
Shape996
100
AcDbLine
 10
-173.175
 20
74.7209
 30
0
 11
-173.175
 21
88.8209
 31
0
  0
LINE
  5
B01
330
A02
100
AcDbEntity
  8
Shape997
100
AcDbLine
 10
-173.175
 20
88.8209
 30
0
 11
-159.075
 21
88.8209
 31
0
  0
LINE
  5
B02
330
A02
100
AcDbEntity
  8
Shape998
100
AcDbLine
 10
-116.215
 20
69.7709
 30
0
 11
-116.215
 21
55.6709
 31
0
  0
LINE
  5
B03
330
A02
100
AcDbEntity
  8
Shape999
100
AcDbLine
 10
-116.215
 20
55.6709
 30
0
 11
-130.315
 21
55.6709
 31
0
  0
LINE
  5
B04
330
A02
100
AcDbEntity
  8
Shape1000
100
AcDbLine
 10
-130.315
 20
55.6709
 30
0
 11
-130.315
 21
69.7709
 31
0
  0
LINE
  5
B05
330
A02
100
AcDbEntity
  8
Shape1001
100
AcDbLine
 10
-130.315
 20
69.7709
 30
0
 11
-116.215
 21
69.7709
 31
0
  0
LINE
  5
B06
330
A02
100
AcDbEntity
  8
Shape1002
100
AcDbLine
 10
-206.515
 20
55.6709
 30
0
 11
-206.515
 21
69.7709
 31
0
  0
LINE
  5
B07
330
A02
100
AcDbEntity
  8
Shape1003
100
AcDbLine
 10
-206.515
 20
69.7709
 30
0
 11
-192.415
 21
69.7709
 31
0
  0
LINE
  5
B08
330
A02
100
AcDbEntity
  8
Shape1004
100
AcDbLine
 10
-192.415
 20
69.7709
 30
0
 11
-192.415
 21
55.6709
 31
0
  0
LINE
  5
B09
330
A02
100
AcDbEntity
  8
Shape1005
100
AcDbLine
 10
-192.415
 20
55.6709
 30
0
 11
-206.515
 21
55.6709
 31
0
  0
LINE
  5
B0A
330
A02
100
AcDbEntity
  8
Shape1006
100
AcDbLine
 10
-13.815
 20
69.7709
 30
0
 11
-13.815
 21
55.6709
 31
0
  0
LINE
  5
B0B
330
A02
100
AcDbEntity
  8
Shape1007
100
AcDbLine
 10
-13.815
 20
55.6709
 30
0
 11
-27.915
 21
55.6709
 31
0
  0
LINE
  5
B0C
330
A02
100
AcDbEntity
  8
Shape1008
100
AcDbLine
 10
-27.915
 20
55.6709
 30
0
 11
-27.915
 21
69.7709
 31
0
  0
LINE
  5
B0D
330
A02
100
AcDbEntity
  8
Shape1009
100
AcDbLine
 10
-27.915
 20
69.7709
 30
0
 11
-13.815
 21
69.7709
 31
0
  0
LINE
  5
B0E
330
A02
100
AcDbEntity
  8
Shape1010
100
AcDbLine
 10
-135.265
 20
69.7709
 30
0
 11
-135.265
 21
55.6709
 31
0
  0
LINE
  5
B0F
330
A02
100
AcDbEntity
  8
Shape1011
100
AcDbLine
 10
-135.265
 20
55.6709
 30
0
 11
-149.365
 21
55.6709
 31
0
  0
LINE
  5
B10
330
A02
100
AcDbEntity
  8
Shape1012
100
AcDbLine
 10
-149.365
 20
55.6709
 30
0
 11
-149.365
 21
69.7709
 31
0
  0
LINE
  5
B11
330
A02
100
AcDbEntity
  8
Shape1013
100
AcDbLine
 10
-149.365
 20
69.7709
 30
0
 11
-135.265
 21
69.7709
 31
0
  0
LINE
  5
B12
330
A02
100
AcDbEntity
  8
Shape1014
100
AcDbLine
 10
-59.065
 20
55.6709
 30
0
 11
-73.165
 21
55.6709
 31
0
  0
LINE
  5
B13
330
A02
100
AcDbEntity
  8
Shape1015
100
AcDbLine
 10
-73.165
 20
55.6709
 30
0
 11
-73.165
 21
69.7709
 31
0
  0
LINE
  5
B14
330
A02
100
AcDbEntity
  8
Shape1016
100
AcDbLine
 10
-73.165
 20
69.7709
 30
0
 11
-59.065
 21
69.7709
 31
0
  0
LINE
  5
B15
330
A02
100
AcDbEntity
  8
Shape1017
100
AcDbLine
 10
-59.065
 20
69.7709
 30
0
 11
-59.065
 21
55.6709
 31
0
  0
LINE
  5
B16
330
A02
100
AcDbEntity
  8
Shape1018
100
AcDbLine
 10
-139.835
 20
50.7209
 30
0
 11
-125.735
 21
50.7209
 31
0
  0
LINE
  5
B17
330
A02
100
AcDbEntity
  8
Shape1019
100
AcDbLine
 10
-125.735
 20
50.7209
 30
0
 11
-125.735
 21
36.6209
 31
0
  0
LINE
  5
B18
330
A02
100
AcDbEntity
  8
Shape1020
100
AcDbLine
 10
-125.735
 20
36.6209
 30
0
 11
-139.835
 21
36.6209
 31
0
  0
LINE
  5
B19
330
A02
100
AcDbEntity
  8
Shape1021
100
AcDbLine
 10
-139.835
 20
36.6209
 30
0
 11
-139.835
 21
50.7209
 31
0
  0
LINE
  5
B1A
330
A02
100
AcDbEntity
  8
Shape1022
100
AcDbLine
 10
-68.585
 20
50.7209
 30
0
 11
-68.585
 21
36.6209
 31
0
  0
LINE
  5
B1B
330
A02
100
AcDbEntity
  8
Shape1023
100
AcDbLine
 10
-68.585
 20
36.6209
 30
0
 11
-82.685
 21
36.6209
 31
0
  0
LINE
  5
B1C
330
A02
100
AcDbEntity
  8
Shape1024
100
AcDbLine
 10
-82.685
 20
36.6209
 30
0
 11
-82.685
 21
50.7209
 31
0
  0
LINE
  5
B1D
330
A02
100
AcDbEntity
  8
Shape1025
100
AcDbLine
 10
-82.685
 20
50.7209
 30
0
 11
-68.585
 21
50.7209
 31
0
  0
LINE
  5
B1E
330
A02
100
AcDbEntity
  8
Shape1026
100
AcDbLine
 10
-144.785
 20
36.6209
 30
0
 11
-158.885
 21
36.6209
 31
0
  0
LINE
  5
B1F
330
A02
100
AcDbEntity
  8
Shape1027
100
AcDbLine
 10
-158.885
 20
36.6209
 30
0
 11
-158.885
 21
50.7209
 31
0
  0
LINE
  5
B20
330
A02
100
AcDbEntity
  8
Shape1028
100
AcDbLine
 10
-158.885
 20
50.7209
 30
0
 11
-144.785
 21
50.7209
 31
0
  0
LINE
  5
B21
330
A02
100
AcDbEntity
  8
Shape1029
100
AcDbLine
 10
-144.785
 20
50.7209
 30
0
 11
-144.785
 21
36.6209
 31
0
  0
LINE
  5
B22
330
A02
100
AcDbEntity
  8
Shape1030
100
AcDbLine
 10
-63.635
 20
36.6209
 30
0
 11
-63.635
 21
50.7209
 31
0
  0
LINE
  5
B23
330
A02
100
AcDbEntity
  8
Shape1031
100
AcDbLine
 10
-63.635
 20
50.7209
 30
0
 11
-49.535
 21
50.7209
 31
0
  0
LINE
  5
B24
330
A02
100
AcDbEntity
  8
Shape1032
100
AcDbLine
 10
-49.535
 20
50.7209
 30
0
 11
-49.535
 21
36.6209
 31
0
  0
LINE
  5
B25
330
A02
100
AcDbEntity
  8
Shape1033
100
AcDbLine
 10
-49.535
 20
36.6209
 30
0
 11
-63.635
 21
36.6209
 31
0
  0
LINE
  5
B26
330
A02
100
AcDbEntity
  8
Shape1034
100
AcDbLine
 10
-44.775
 20
88.8209
 30
0
 11
-44.775
 21
74.7209
 31
0
  0
LINE
  5
B27
330
A02
100
AcDbEntity
  8
Shape1035
100
AcDbLine
 10
-44.775
 20
74.7209
 30
0
 11
-58.875
 21
74.7209
 31
0
  0
LINE
  5
B28
330
A02
100
AcDbEntity
  8
Shape1036
100
AcDbLine
 10
-58.875
 20
74.7209
 30
0
 11
-58.875
 21
88.8209
 31
0
  0
LINE
  5
B29
330
A02
100
AcDbEntity
  8
Shape1037
100
AcDbLine
 10
-58.875
 20
88.8209
 30
0
 11
-44.775
 21
88.8209
 31
0
  0
LINE
  5
B2A
330
A02
100
AcDbEntity
  8
Shape1038
100
AcDbLine
 10
-177.935
 20
50.7209
 30
0
 11
-163.835
 21
50.7209
 31
0
  0
LINE
  5
B2B
330
A02
100
AcDbEntity
  8
Shape1039
100
AcDbLine
 10
-163.835
 20
50.7209
 30
0
 11
-163.835
 21
36.6209
 31
0
  0
LINE
  5
B2C
330
A02
100
AcDbEntity
  8
Shape1040
100
AcDbLine
 10
-163.835
 20
36.6209
 30
0
 11
-177.935
 21
36.6209
 31
0
  0
LINE
  5
B2D
330
A02
100
AcDbEntity
  8
Shape1041
100
AcDbLine
 10
-177.935
 20
36.6209
 30
0
 11
-177.935
 21
50.7209
 31
0
  0
LINE
  5
B2E
330
A02
100
AcDbEntity
  8
Shape1042
100
AcDbLine
 10
-63.825
 20
74.7209
 30
0
 11
-77.925
 21
74.7209
 31
0
  0
LINE
  5
B2F
330
A02
100
AcDbEntity
  8
Shape1043
100
AcDbLine
 10
-77.925
 20
74.7209
 30
0
 11
-77.925
 21
88.8209
 31
0
  0
LINE
  5
B30
330
A02
100
AcDbEntity
  8
Shape1044
100
AcDbLine
 10
-77.925
 20
88.8209
 30
0
 11
-63.825
 21
88.8209
 31
0
  0
LINE
  5
B31
330
A02
100
AcDbEntity
  8
Shape1045
100
AcDbLine
 10
-63.825
 20
88.8209
 30
0
 11
-63.825
 21
74.7209
 31
0
  0
LINE
  5
B32
330
A02
100
AcDbEntity
  8
Shape1046
100
AcDbLine
 10
-201.935
 20
36.6209
 30
0
 11
-216.035
 21
36.6209
 31
0
  0
LINE
  5
B33
330
A02
100
AcDbEntity
  8
Shape1047
100
AcDbLine
 10
-216.035
 20
36.6209
 30
0
 11
-216.035
 21
50.7209
 31
0
  0
LINE
  5
B34
330
A02
100
AcDbEntity
  8
Shape1048
100
AcDbLine
 10
-216.035
 20
50.7209
 30
0
 11
-201.935
 21
50.7209
 31
0
  0
LINE
  5
B35
330
A02
100
AcDbEntity
  8
Shape1049
100
AcDbLine
 10
-201.935
 20
50.7209
 30
0
 11
-201.935
 21
36.6209
 31
0
  0
LINE
  5
B36
330
A02
100
AcDbEntity
  8
Shape1050
100
AcDbLine
 10
-87.635
 20
50.7209
 30
0
 11
-87.635
 21
36.6209
 31
0
  0
LINE
  5
B37
330
A02
100
AcDbEntity
  8
Shape1051
100
AcDbLine
 10
-87.635
 20
36.6209
 30
0
 11
-101.735
 21
36.6209
 31
0
  0
LINE
  5
B38
330
A02
100
AcDbEntity
  8
Shape1052
100
AcDbLine
 10
-101.735
 20
36.6209
 30
0
 11
-101.735
 21
50.7209
 31
0
  0
LINE
  5
B39
330
A02
100
AcDbEntity
  8
Shape1053
100
AcDbLine
 10
-101.735
 20
50.7209
 30
0
 11
-87.635
 21
50.7209
 31
0
  0
LINE
  5
B3A
330
A02
100
AcDbEntity
  8
Shape1054
100
AcDbLine
 10
-235.275
 20
74.7209
 30
0
 11
-249.375
 21
74.7209
 31
0
  0
LINE
  5
B3B
330
A02
100
AcDbEntity
  8
Shape1055
100
AcDbLine
 10
-249.375
 20
74.7209
 30
0
 11
-249.375
 21
88.8209
 31
0
  0
LINE
  5
B3C
330
A02
100
AcDbEntity
  8
Shape1056
100
AcDbLine
 10
-249.375
 20
88.8209
 30
0
 11
-235.275
 21
88.8209
 31
0
  0
LINE
  5
B3D
330
A02
100
AcDbEntity
  8
Shape1057
100
AcDbLine
 10
-235.275
 20
88.8209
 30
0
 11
-235.275
 21
74.7209
 31
0
  0
LINE
  5
B3E
330
A02
100
AcDbEntity
  8
Shape1058
100
AcDbLine
 10
-239.035
 20
73.2459
 30
0
 11
-239.035
 21
71.2459
 31
0
  0
LINE
  5
B3F
330
A02
100
AcDbEntity
  8
Shape1059
100
AcDbLine
 10
-239.035
 20
71.2459
 30
0
 11
-245.615
 21
71.2459
 31
0
  0
LINE
  5
B40
330
A02
100
AcDbEntity
  8
Shape1060
100
AcDbLine
 10
-245.615
 20
71.2459
 30
0
 11
-245.615
 21
73.2459
 31
0
  0
LINE
  5
B41
330
A02
100
AcDbEntity
  8
Shape1061
100
AcDbLine
 10
-245.615
 20
73.2459
 30
0
 11
-239.035
 21
73.2459
 31
0
  0
LINE
  5
B42
330
A02
100
AcDbEntity
  8
Shape1062
100
AcDbLine
 10
-232.895
 20
55.6709
 30
0
 11
-246.995
 21
55.6709
 31
0
  0
LINE
  5
B43
330
A02
100
AcDbEntity
  8
Shape1063
100
AcDbLine
 10
-246.995
 20
55.6709
 30
0
 11
-246.995
 21
69.7709
 31
0
  0
LINE
  5
B44
330
A02
100
AcDbEntity
  8
Shape1064
100
AcDbLine
 10
-246.995
 20
69.7709
 30
0
 11
-232.895
 21
69.7709
 31
0
  0
LINE
  5
B45
330
A02
100
AcDbEntity
  8
Shape1065
100
AcDbLine
 10
-232.895
 20
69.7709
 30
0
 11
-232.895
 21
55.6709
 31
0
  0
LINE
  5
B46
330
A02
100
AcDbEntity
  8
Shape1066
100
AcDbLine
 10
-227.945
 20
17.5709
 30
0
 11
-227.945
 21
31.6709
 31
0
  0
LINE
  5
B47
330
A02
100
AcDbEntity
  8
Shape1067
100
AcDbLine
 10
-227.945
 20
31.6709
 30
0
 11
-213.845
 21
31.6709
 31
0
  0
LINE
  5
B48
330
A02
100
AcDbEntity
  8
Shape1068
100
AcDbLine
 10
-213.845
 20
31.6709
 30
0
 11
-213.845
 21
17.5709
 31
0
  0
LINE
  5
B49
330
A02
100
AcDbEntity
  8
Shape1069
100
AcDbLine
 10
-213.845
 20
17.5709
 30
0
 11
-227.945
 21
17.5709
 31
0
  0
LINE
  5
B4A
330
A02
100
AcDbEntity
  8
Shape1112
100
AcDbLine
 10
-87.445
 20
31.6709
 30
0
 11
-87.445
 21
17.5709
 31
0
  0
LINE
  5
B4B
330
A02
100
AcDbEntity
  8
Shape1113
100
AcDbLine
 10
-87.445
 20
17.5709
 30
0
 11
-73.345
 21
17.5709
 31
0
  0
LINE
  5
B4C
330
A02
100
AcDbEntity
  8
Shape1114
100
AcDbLine
 10
-73.345
 20
17.5709
 30
0
 11
-73.345
 21
31.6709
 31
0
  0
LINE
  5
B4D
330
A02
100
AcDbEntity
  8
Shape1115
100
AcDbLine
 10
-182.695
 20
31.6709
 30
0
 11
-182.695
 21
17.5709
 31
0
  0
LINE
  5
B4E
330
A02
100
AcDbEntity
  8
Shape1116
100
AcDbLine
 10
-182.695
 20
17.5709
 30
0
 11
-168.595
 21
17.5709
 31
0
  0
LINE
  5
B4F
330
A02
100
AcDbEntity
  8
Shape1117
100
AcDbLine
 10
-168.595
 20
17.5709
 30
0
 11
-168.595
 21
31.6709
 31
0
  0
LINE
  5
B50
330
A02
100
AcDbEntity
  8
Shape1118
100
AcDbLine
 10
-42.205
 20
31.6709
 30
0
 11
-28.105
 21
31.6709
 31
0
  0
LINE
  5
B51
330
A02
100
AcDbEntity
  8
Shape1119
100
AcDbLine
 10
-28.105
 20
31.6709
 30
0
 11
-28.105
 21
17.5709
 31
0
  0
LINE
  5
B52
330
A02
100
AcDbEntity
  8
Shape1120
100
AcDbLine
 10
-28.105
 20
17.5709
 30
0
 11
-42.205
 21
17.5709
 31
0
  0
LINE
  5
B53
330
A02
100
AcDbEntity
  8
Shape1121
100
AcDbLine
 10
-42.205
 20
17.5709
 30
0
 11
-42.205
 21
31.6709
 31
0
  0
LINE
  5
B54
330
A02
100
AcDbEntity
  8
Shape1122
100
AcDbLine
 10
-63.635
 20
17.5709
 30
0
 11
-63.635
 21
31.6709
 31
0
  0
LINE
  5
B55
330
A02
100
AcDbEntity
  8
Shape1123
100
AcDbLine
 10
-63.635
 20
31.6709
 30
0
 11
-49.535
 21
31.6709
 31
0
  0
LINE
  5
B56
330
A02
100
AcDbEntity
  8
Shape1124
100
AcDbLine
 10
-49.535
 20
31.6709
 30
0
 11
-49.535
 21
17.5709
 31
0
  0
LINE
  5
B57
330
A02
100
AcDbEntity
  8
Shape1125
100
AcDbLine
 10
-49.535
 20
17.5709
 30
0
 11
-63.635
 21
17.5709
 31
0
  0
LINE
  5
B58
330
A02
100
AcDbEntity
  8
Shape1126
100
AcDbLine
 10
-206.515
 20
17.5709
 30
0
 11
-206.515
 21
31.6709
 31
0
  0
LINE
  5
B59
330
A02
100
AcDbEntity
  8
Shape1127
100
AcDbLine
 10
-206.515
 20
31.6709
 30
0
 11
-192.415
 21
31.6709
 31
0
  0
LINE
  5
B5A
330
A02
100
AcDbEntity
  8
Shape1128
100
AcDbLine
 10
-192.415
 20
31.6709
 30
0
 11
-192.415
 21
17.5709
 31
0
  0
LINE
  5
B5B
330
A02
100
AcDbEntity
  8
Shape1129
100
AcDbLine
 10
-192.415
 20
17.5709
 30
0
 11
-206.515
 21
17.5709
 31
0
  0
LINE
  5
B5C
330
A02
100
AcDbEntity
  8
Shape1130
100
AcDbLine
 10
-154.125
 20
31.6709
 30
0
 11
-140.025
 21
31.6709
 31
0
  0
LINE
  5
B5D
330
A02
100
AcDbEntity
  8
Shape1131
100
AcDbLine
 10
-140.025
 20
31.6709
 30
0
 11
-140.025
 21
17.5709
 31
0
  0
LINE
  5
B5E
330
A02
100
AcDbEntity
  8
Shape1132
100
AcDbLine
 10
-140.025
 20
17.5709
 30
0
 11
-154.125
 21
17.5709
 31
0
  0
LINE
  5
B5F
330
A02
100
AcDbEntity
  8
Shape1133
100
AcDbLine
 10
-154.125
 20
17.5709
 30
0
 11
-154.125
 21
31.6709
 31
0
  0
LINE
  5
B60
330
A02
100
AcDbEntity
  8
Shape1134
100
AcDbLine
 10
-118.355
 20
18.1709
 30
0
 11
-118.355
 21
22.3709
 31
0
  0
ARC
  5
B61
330
A02
100
AcDbEntity
  8
Shape1135
100
AcDbCircle
 10
-117.855
 20
18.1709
 30
0
 40
0.5
100
AcDbArc
 50
180
 51
-90
  0
LINE
  5
B62
330
A02
100
AcDbEntity
  8
Shape1136
100
AcDbLine
 10
-118.355
 20
22.3709
 30
0
 11
-119.875
 21
22.3709
 31
0
  0
LINE
  5
B63
330
A02
100
AcDbEntity
  8
Shape1137
100
AcDbLine
 10
-119.875
 20
22.3709
 30
0
 11
-119.875
 21
19.1419
 31
0
  0
LINE
  5
B64
330
A02
100
AcDbEntity
  8
Shape1138
100
AcDbLine
 10
-119.875
 20
19.1419
 30
0
 11
-126.625
 21
19.1419
 31
0
  0
LINE
  5
B65
330
A02
100
AcDbEntity
  8
Shape1139
100
AcDbLine
 10
-126.625
 20
19.1419
 30
0
 11
-126.625
 21
22.3709
 31
0
  0
LINE
  5
B66
330
A02
100
AcDbEntity
  8
Shape1140
100
AcDbLine
 10
-126.625
 20
22.3709
 30
0
 11
-127.455
 21
22.3709
 31
0
  0
LINE
  5
B67
330
A02
100
AcDbEntity
  8
Shape1141
100
AcDbLine
 10
-127.455
 20
22.3709
 30
0
 11
-127.455
 21
25.1709
 31
0
  0
LINE
  5
B68
330
A02
100
AcDbEntity
  8
Shape1142
100
AcDbLine
 10
-127.455
 20
25.1709
 30
0
 11
-126.625
 21
25.1709
 31
0
  0
LINE
  5
B69
330
A02
100
AcDbEntity
  8
Shape1143
100
AcDbLine
 10
-126.625
 20
25.1709
 30
0
 11
-126.625
 21
31.4409
 31
0
  0
LINE
  5
B6A
330
A02
100
AcDbEntity
  8
Shape1144
100
AcDbLine
 10
-126.625
 20
31.4409
 30
0
 11
-124.905
 21
31.4409
 31
0
  0
LINE
  5
B6B
330
A02
100
AcDbEntity
  8
Shape1145
100
AcDbLine
 10
-124.905
 20
31.4409
 30
0
 11
-124.905
 21
32.6409
 31
0
  0
LINE
  5
B6C
330
A02
100
AcDbEntity
  8
Shape1146
100
AcDbLine
 10
-124.905
 20
32.6409
 30
0
 11
-121.605
 21
32.6409
 31
0
  0
LINE
  5
B6D
330
A02
100
AcDbEntity
  8
Shape1147
100
AcDbLine
 10
-121.605
 20
32.6409
 30
0
 11
-121.605
 21
31.4409
 31
0
  0
LINE
  5
B6E
330
A02
100
AcDbEntity
  8
Shape1148
100
AcDbLine
 10
-121.605
 20
31.4409
 30
0
 11
-119.875
 21
31.4409
 31
0
  0
LINE
  5
B6F
330
A02
100
AcDbEntity
  8
Shape1149
100
AcDbLine
 10
-119.875
 20
31.4409
 30
0
 11
-119.875
 21
26.9719
 31
0
  0
LINE
  5
B70
330
A02
100
AcDbEntity
  8
Shape1150
100
AcDbLine
 10
-119.875
 20
26.9719
 30
0
 11
-118.355
 21
26.9719
 31
0
  0
LINE
  5
B71
330
A02
100
AcDbEntity
  8
Shape1151
100
AcDbLine
 10
-118.355
 20
26.9719
 30
0
 11
-118.355
 21
31.1709
 31
0
  0
LINE
  5
B72
330
A02
100
AcDbEntity
  8
Shape1152
100
AcDbLine
 10
-117.855
 20
31.6709
 30
0
 11
-104.855
 21
31.6709
 31
0
  0
ARC
  5
B73
330
A02
100
AcDbEntity
  8
Shape1153
100
AcDbCircle
 10
-117.855
 20
31.1709
 30
0
 40
0.5
100
AcDbArc
 50
90
 51
180
  0
LINE
  5
B74
330
A02
100
AcDbEntity
  8
Shape1154
100
AcDbLine
 10
-104.355
 20
31.1709
 30
0
 11
-104.355
 21
26.9719
 31
0
  0
ARC
  5
B75
330
A02
100
AcDbEntity
  8
Shape1155
100
AcDbCircle
 10
-104.855
 20
31.1709
 30
0
 40
0.5
100
AcDbArc
 50
0
 51
90
  0
LINE
  5
B76
330
A02
100
AcDbEntity
  8
Shape1156
100
AcDbLine
 10
-104.355
 20
26.9719
 30
0
 11
-102.825
 21
26.9719
 31
0
  0
LINE
  5
B77
330
A02
100
AcDbEntity
  8
Shape1157
100
AcDbLine
 10
-102.825
 20
26.9719
 30
0
 11
-102.825
 21
31.4409
 31
0
  0
LINE
  5
B78
330
A02
100
AcDbEntity
  8
Shape1158
100
AcDbLine
 10
-102.825
 20
31.4409
 30
0
 11
-101.105
 21
31.4409
 31
0
  0
LINE
  5
B79
330
A02
100
AcDbEntity
  8
Shape1159
100
AcDbLine
 10
-101.105
 20
31.4409
 30
0
 11
-101.105
 21
32.6409
 31
0
  0
LINE
  5
B7A
330
A02
100
AcDbEntity
  8
Shape1160
100
AcDbLine
 10
-101.105
 20
32.6409
 30
0
 11
-97.805
 21
32.6409
 31
0
  0
LINE
  5
B7B
330
A02
100
AcDbEntity
  8
Shape1161
100
AcDbLine
 10
-97.805
 20
32.6409
 30
0
 11
-97.805
 21
31.4409
 31
0
  0
LINE
  5
B7C
330
A02
100
AcDbEntity
  8
Shape1162
100
AcDbLine
 10
-97.805
 20
31.4409
 30
0
 11
-96.075
 21
31.4409
 31
0
  0
LINE
  5
B7D
330
A02
100
AcDbEntity
  8
Shape1163
100
AcDbLine
 10
-96.075
 20
31.4409
 30
0
 11
-96.075
 21
25.1709
 31
0
  0
LINE
  5
B7E
330
A02
100
AcDbEntity
  8
Shape1164
100
AcDbLine
 10
-96.075
 20
25.1709
 30
0
 11
-95.255
 21
25.1709
 31
0
  0
LINE
  5
B7F
330
A02
100
AcDbEntity
  8
Shape1165
100
AcDbLine
 10
-95.255
 20
25.1709
 30
0
 11
-95.255
 21
22.3709
 31
0
  0
LINE
  5
B80
330
A02
100
AcDbEntity
  8
Shape1166
100
AcDbLine
 10
-95.255
 20
22.3709
 30
0
 11
-96.075
 21
22.3709
 31
0
  0
LINE
  5
B81
330
A02
100
AcDbEntity
  8
Shape1167
100
AcDbLine
 10
-96.075
 20
22.3709
 30
0
 11
-96.075
 21
19.1419
 31
0
  0
LINE
  5
B82
330
A02
100
AcDbEntity
  8
Shape1168
100
AcDbLine
 10
-96.075
 20
19.1419
 30
0
 11
-102.825
 21
19.1419
 31
0
  0
LINE
  5
B83
330
A02
100
AcDbEntity
  8
Shape1169
100
AcDbLine
 10
-102.825
 20
19.1419
 30
0
 11
-102.825
 21
22.3709
 31
0
  0
LINE
  5
B84
330
A02
100
AcDbEntity
  8
Shape1170
100
AcDbLine
 10
-102.825
 20
22.3709
 30
0
 11
-104.355
 21
22.3709
 31
0
  0
LINE
  5
B85
330
A02
100
AcDbEntity
  8
Shape1171
100
AcDbLine
 10
-104.355
 20
22.3709
 30
0
 11
-104.355
 21
18.1709
 31
0
  0
ARC
  5
B86
330
A02
100
AcDbEntity
  8
Shape1172
100
AcDbCircle
 10
-104.855
 20
18.1709
 30
0
 40
0.5
100
AcDbArc
 50
-90
 51
0
  0
LINE
  5
B87
330
A02
100
AcDbEntity
  8
Shape1173
100
AcDbLine
 10
-104.855
 20
17.6709
 30
0
 11
-117.855
 21
17.6709
 31
0
  0
LINE
  5
B88
330
A02
100
AcDbEntity
  8
Shape1174
100
AcDbLine
 10
-182.695
 20
31.6709
 30
0
 11
-168.595
 21
31.6709
 31
0
  0
LINE
  5
B89
330
A02
100
AcDbEntity
  8
Shape1175
100
AcDbLine
 10
-87.445
 20
31.6709
 30
0
 11
-73.345
 21
31.6709
 31
0
  0
CIRCLE
  5
B8A
330
A02
100
AcDbEntity
  8
Shape2461
100
AcDbCircle
 10
-28.375
 20
72.2199
 40
1.5
  0
ENDSEC
  0
SECTION
  2
OBJECTS
  0
DICTIONARY
  5
F000
330
0
100
AcDbDictionary
  3
ACAD_GROUP
350
F001
  0
DICTIONARY
  5
F001
330
F000
100
AcDbDictionary
  0
ENDSEC
  0
EOF