999
FreeCAD v0.21 33771 (Git)
  0
SECTION
  2
HEADER
  9
$ACADVER
  1
AC1014
  9
$ACADMAINTVER
 70
     9
  9
$DWGCODEPAGE
  3
ANSI_1252
  9
$TEXTSTYLE
  7
STANDARD
  9
$DIMSTYLE
  2
STANDARD
  9
$DIMTXSTY
  7
STANDARD
  9
$CMLSTYLE
  2
STANDARD
  9
$LUNITS
 70
2
  9
$INSUNITS
 70
4
  9
$PEXTMAX
 10
50
 20
50
 30
50
  9
$PEXTMIN
 10
0
 20
0
 30
0
  9
$HANDSEED
  5
FFFF
  0
ENDSEC
  0
SECTION
  2
CLASSES
  0
CLASS
  1
ACDBDICTIONARYWDFLT
  2
AcDbDictionaryWithDefault
  3
ObjectDBX Classes
 90
        0
280
     0
281
     0
  0
CLASS
  1
XRECORD
  2
AcDbXrecord
  3
ObjectDBX Classes
 90
        0
280
     0
281
     0
  0
CLASS
  1
LWPOLYLINE
  2
AcDbPolyline
  3
ObjectDBX Classes
 90
        0
280
     0
281
     1
  0
ENDSEC
  0
SECTION
  2
TABLES
  0
TABLE
  2
VPORT
  5
20
330
0
100
AcDbSymbolTable
 70
     1
  0
VPORT
  5
21
330
20
100
AcDbSymbolTableRecord
100
AcDbViewportTableRecord
  2
*ACTIVE
 70
     0
  0
ENDTAB
  0
TABLE
  2
LTYPE
  5
22
330
0
100
AcDbSymbolTable
 70
     1
  0
LTYPE
  5
23
330
21
100
AcDbSymbolTableRecord
100
AcDbLinetypeTableRecord
  2
BYBLOCK
 70
     0
  3

 72
    65
 73
     0
 40
0.0
  0
LTYPE
  5
24
330
21
100
AcDbSymbolTableRecord
100
AcDbLinetypeTableRecord
  2
BYLAYER
 70
     0
  3

 72
    65
 73
     0
 40
0.0
  0
LTYPE
  5
25
330
21
100
AcDbSymbolTableRecord
100
AcDbLinetypeTableRecord
  2
CONTINUOUS
 70
     0
  3
Solid line
 72
    65
 73
     0
 40
0.0
  0
ENDTAB
  0
TABLE
  2
LAYER
  5
BAB
330
0
100
AcDbSymbolTable
 70
421
  0
LAYER
  5
BAC
330
BAB
100
AcDbSymbolTableRecord
100
AcDbLayerTableRecord
  2
0
 70
   0
 62
   7
  6
CONTINUOUS
  0
LAYER
  5
BAD
330
BAB
100
AcDbSymbolTableRecord
100
AcDbLayerTableRecord
  2
none
 70
    0
 62
    7
  6
CONTINUOUS
  0
LAYER
  5
BAE
330
BAB
100
AcDbSymbolTableRecord
100
AcDbLayerTableRecord
  2
Shape1118
 70
    0
 62
    7
  6
CONTINUOUS
  0
LAYER
  5
BAF
330
BAB
100
AcDbSymbolTableRecord
100
AcDbLayerTableRecord
  2
Shape1119
 70
    0
 62
    7
  6
CONTINUOUS
  0
LAYER
  5
BB0
330
BAB
100
AcDbSymbolTableRecord
100
AcDbLayerTableRecord
  2
Shape1120
 70
    0
 62
    7
  6
CONTINUOUS
  0
LAYER
  5
BB1
330
BAB
100
AcDbSymbolTableRecord
100
AcDbLayerTableRecord
  2
Shape1121
 70
    0
 62
    7
  6
CONTINUOUS
  0
LAYER
  5
BB2
330
BAB
100
AcDbSymbolTableRecord
100
AcDbLayerTableRecord
  2
Shape1122
 70
    0
 62
    7
  6
CONTINUOUS
  0
LAYER
  5
BB3
330
BAB
100
AcDbSymbolTableRecord
100
AcDbLayerTableRecord
  2
Shape1123
 70
    0
 62
    7
  6
CONTINUOUS
  0
LAYER
  5
BB4
330
BAB
100
AcDbSymbolTableRecord
100
AcDbLayerTableRecord
  2
Shape1124
 70
    0
 62
    7
  6
CONTINUOUS
  0
LAYER
  5
BB5
330
BAB
100
AcDbSymbolTableRecord
100
AcDbLayerTableRecord
  2
Shape1125
 70
    0
 62
    7
  6
CONTINUOUS
  0
LAYER
  5
BB6
330
BAB
100
AcDbSymbolTableRecord
100
AcDbLayerTableRecord
  2
Shape1126
 70
    0
 62
    7
  6
CONTINUOUS
  0
LAYER
  5
BB7
330
BAB
100
AcDbSymbolTableRecord
100
AcDbLayerTableRecord
  2
Shape1127
 70
    0
 62
    7
  6
CONTINUOUS
  0
LAYER
  5
BB8
330
BAB
100
AcDbSymbolTableRecord
100
AcDbLayerTableRecord
  2
Shape1128
 70
    0
 62
    7
  6
CONTINUOUS
  0
LAYER
  5
BB9
330
BAB
100
AcDbSymbolTableRecord
100
AcDbLayerTableRecord
  2
Shape1129
 70
    0
 62
    7
  6
CONTINUOUS
  0
LAYER
  5
BBA
330
BAB
100
AcDbSymbolTableRecord
100
AcDbLayerTableRecord
  2
Shape1130
 70
    0
 62
    7
  6
CONTINUOUS
  0
LAYER
  5
BBB
330
BAB
100
AcDbSymbolTableRecord
100
AcDbLayerTableRecord
  2
Shape1131
 70
    0
 62
    7
  6
CONTINUOUS
  0
LAYER
  5
BBC
330
BAB
100
AcDbSymbolTableRecord
100
AcDbLayerTableRecord
  2
Shape1132
 70
    0
 62
    7
  6
CONTINUOUS
  0
LAYER
  5
BBD
330
BAB
100
AcDbSymbolTableRecord
100
AcDbLayerTableRecord
  2
Shape1133
 70
    0
 62
    7
  6
CONTINUOUS
  0
LAYER
  5
BBE
330
BAB
100
AcDbSymbolTableRecord
100
AcDbLayerTableRecord
  2
Shape1134
 70
    0
 62
    7
  6
CONTINUOUS
  0
LAYER
  5
BBF
330
BAB
100
AcDbSymbolTableRecord
100
AcDbLayerTableRecord
  2
Shape1135
 70
    0
 62
    7
  6
CONTINUOUS
  0
LAYER
  5
BC0
330
BAB
100
AcDbSymbolTableRecord
100
AcDbLayerTableRecord
  2
Shape1136
 70
    0
 62
    7
  6
CONTINUOUS
  0
LAYER
  5
BC1
330
BAB
100
AcDbSymbolTableRecord
100
AcDbLayerTableRecord
  2
Shape1137
 70
    0
 62
    7
  6
CONTINUOUS
  0
LAYER
  5
BC2
330
BAB
100
AcDbSymbolTableRecord
100
AcDbLayerTableRecord
  2
Shape1138
 70
    0
 62
    7
  6
CONTINUOUS
  0
LAYER
  5
BC3
330
BAB
100
AcDbSymbolTableRecord
100
AcDbLayerTableRecord
  2
Shape1139
 70
    0
 62
    7
  6
CONTINUOUS
  0
LAYER
  5
BC4
330
BAB
100
AcDbSymbolTableRecord
100
AcDbLayerTableRecord
  2
Shape1140
 70
    0
 62
    7
  6
CONTINUOUS
  0
LAYER
  5
BC5
330
BAB
100
AcDbSymbolTableRecord
100
AcDbLayerTableRecord
  2
Shape1141
 70
    0
 62
    7
  6
CONTINUOUS
  0
LAYER
  5
BC6
330
BAB
100
AcDbSymbolTableRecord
100
AcDbLayerTableRecord
  2
Shape1142
 70
    0
 62
    7
  6
CONTINUOUS
  0
LAYER
  5
BC7
330
BAB
100
AcDbSymbolTableRecord
100
AcDbLayerTableRecord
  2
Shape1143
 70
    0
 62
    7
  6
CONTINUOUS
  0
LAYER
  5
BC8
330
BAB
100
AcDbSymbolTableRecord
100
AcDbLayerTableRecord
  2
Shape1144
 70
    0
 62
    7
  6
CONTINUOUS
  0
LAYER
  5
BC9
330
BAB
100
AcDbSymbolTableRecord
100
AcDbLayerTableRecord
  2
Shape1145
 70
    0
 62
    7
  6
CONTINUOUS
  0
LAYER
  5
BCA
330
BAB
100
AcDbSymbolTableRecord
100
AcDbLayerTableRecord
  2
Shape1146
 70
    0
 62
    7
  6
CONTINUOUS
  0
LAYER
  5
BCB
330
BAB
100
AcDbSymbolTableRecord
100
AcDbLayerTableRecord
  2
Shape1147
 70
    0
 62
    7
  6
CONTINUOUS
  0
LAYER
  5
BCC
330
BAB
100
AcDbSymbolTableRecord
100
AcDbLayerTableRecord
  2
Shape1148
 70
    0
 62
    7
  6
CONTINUOUS
  0
LAYER
  5
BCD
330
BAB
100
AcDbSymbolTableRecord
100
AcDbLayerTableRecord
  2
Shape1149
 70
    0
 62
    7
  6
CONTINUOUS
  0
LAYER
  5
BCE
330
BAB
100
AcDbSymbolTableRecord
100
AcDbLayerTableRecord
  2
Shape1150
 70
    0
 62
    7
  6
CONTINUOUS
  0
LAYER
  5
BCF
330
BAB
100
AcDbSymbolTableRecord
100
AcDbLayerTableRecord
  2
Shape1151
 70
    0
 62
    7
  6
CONTINUOUS
  0
LAYER
  5
BD0
330
BAB
100
AcDbSymbolTableRecord
100
AcDbLayerTableRecord
  2
Shape1152
 70
    0
 62
    7
  6
CONTINUOUS
  0
LAYER
  5
BD1
330
BAB
100
AcDbSymbolTableRecord
100
AcDbLayerTableRecord
  2
Shape1153
 70
    0
 62
    7
  6
CONTINUOUS
  0
LAYER
  5
BD2
330
BAB
100
AcDbSymbolTableRecord
100
AcDbLayerTableRecord
  2
Shape1154
 70
    0
 62
    7
  6
CONTINUOUS
  0
LAYER
  5
BD3
330
BAB
100
AcDbSymbolTableRecord
100
AcDbLayerTableRecord
  2
Shape1155
 70
    0
 62
    7
  6
CONTINUOUS
  0
LAYER
  5
BD4
330
BAB
100
AcDbSymbolTableRecord
100
AcDbLayerTableRecord
  2
Shape1156
 70
    0
 62
    7
  6
CONTINUOUS
  0
LAYER
  5
BD5
330
BAB
100
AcDbSymbolTableRecord
100
AcDbLayerTableRecord
  2
Shape1157
 70
    0
 62
    7
  6
CONTINUOUS
  0
LAYER
  5
BD6
330
BAB
100
AcDbSymbolTableRecord
100
AcDbLayerTableRecord
  2
Shape1158
 70
    0
 62
    7
  6
CONTINUOUS
  0
LAYER
  5
BD7
330
BAB
100
AcDbSymbolTableRecord
100
AcDbLayerTableRecord
  2
Shape1159
 70
    0
 62
    7
  6
CONTINUOUS
  0
LAYER
  5
BD8
330
BAB
100
AcDbSymbolTableRecord
100
AcDbLayerTableRecord
  2
Shape1160
 70
    0
 62
    7
  6
CONTINUOUS
  0
LAYER
  5
BD9
330
BAB
100
AcDbSymbolTableRecord
100
AcDbLayerTableRecord
  2
Shape1161
 70
    0
 62
    7
  6
CONTINUOUS
  0
LAYER
  5
BDA
330
BAB
100
AcDbSymbolTableRecord
100
AcDbLayerTableRecord
  2
Shape1162
 70
    0
 62
    7
  6
CONTINUOUS
  0
LAYER
  5
BDB
330
BAB
100
AcDbSymbolTableRecord
100
AcDbLayerTableRecord
  2
Shape1163
 70
    0
 62
    7
  6
CONTINUOUS
  0
LAYER
  5
BDC
330
BAB
100
AcDbSymbolTableRecord
100
AcDbLayerTableRecord
  2
Shape1164
 70
    0
 62
    7
  6
CONTINUOUS
  0
LAYER
  5
BDD
330
BAB
100
AcDbSymbolTableRecord
100
AcDbLayerTableRecord
  2
Shape1165
 70
    0
 62
    7
  6
CONTINUOUS
  0
LAYER
  5
BDE
330
BAB
100
AcDbSymbolTableRecord
100
AcDbLayerTableRecord
  2
Shape1166
 70
    0
 62
    7
  6
CONTINUOUS
  0
LAYER
  5
BDF
330
BAB
100
AcDbSymbolTableRecord
100
AcDbLayerTableRecord
  2
Shape1167
 70
    0
 62
    7
  6
CONTINUOUS
  0
LAYER
  5
BE0
330
BAB
100
AcDbSymbolTableRecord
100
AcDbLayerTableRecord
  2
Shape1168
 70
    0
 62
    7
  6
CONTINUOUS
  0
LAYER
  5
BE1
330
BAB
100
AcDbSymbolTableRecord
100
AcDbLayerTableRecord
  2
Shape1169
 70
    0
 62
    7
  6
CONTINUOUS
  0
LAYER
  5
BE2
330
BAB
100
AcDbSymbolTableRecord
100
AcDbLayerTableRecord
  2
Shape1170
 70
    0
 62
    7
  6
CONTINUOUS
  0
LAYER
  5
BE3
330
BAB
100
AcDbSymbolTableRecord
100
AcDbLayerTableRecord
  2
Shape1171
 70
    0
 62
    7
  6
CONTINUOUS
  0
LAYER
  5
BE4
330
BAB
100
AcDbSymbolTableRecord
100
AcDbLayerTableRecord
  2
Shape1172
 70
    0
 62
    7
  6
CONTINUOUS
  0
LAYER
  5
BE5
330
BAB
100
AcDbSymbolTableRecord
100
AcDbLayerTableRecord
  2
Shape1173
 70
    0
 62
    7
  6
CONTINUOUS
  0
LAYER
  5
BE6
330
BAB
100
AcDbSymbolTableRecord
100
AcDbLayerTableRecord
  2
Shape1174
 70
    0
 62
    7
  6
CONTINUOUS
  0
LAYER
  5
BE7
330
BAB
100
AcDbSymbolTableRecord
100
AcDbLayerTableRecord
  2
Shape1175
 70
    0
 62
    7
  6
CONTINUOUS
  0
LAYER
  5
BE8
330
BAB
100
AcDbSymbolTableRecord
100
AcDbLayerTableRecord
  2
Shape1176
 70
    0
 62
    7
  6
CONTINUOUS
  0
LAYER
  5
BE9
330
BAB
100
AcDbSymbolTableRecord
100
AcDbLayerTableRecord
  2
Shape1177
 70
    0
 62
    7
  6
CONTINUOUS
  0
LAYER
  5
BEA
330
BAB
100
AcDbSymbolTableRecord
100
AcDbLayerTableRecord
  2
Shape1178
 70
    0
 62
    7
  6
CONTINUOUS
  0
LAYER
  5
BEB
330
BAB
100
AcDbSymbolTableRecord
100
AcDbLayerTableRecord
  2
Shape1179
 70
    0
 62
    7
  6
CONTINUOUS
  0
LAYER
  5
BEC
330
BAB
100
AcDbSymbolTableRecord
100
AcDbLayerTableRecord
  2
Shape1180
 70
    0
 62
    7
  6
CONTINUOUS
  0
LAYER
  5
BED
330
BAB
100
AcDbSymbolTableRecord
100
AcDbLayerTableRecord
  2
Shape1181
 70
    0
 62
    7
  6
CONTINUOUS
  0
LAYER
  5
BEE
330
BAB
100
AcDbSymbolTableRecord
100
AcDbLayerTableRecord
  2
Shape1182
 70
    0
 62
    7
  6
CONTINUOUS
  0
LAYER
  5
BEF
330
BAB
100
AcDbSymbolTableRecord
100
AcDbLayerTableRecord
  2
Shape1183
 70
    0
 62
    7
  6
CONTINUOUS
  0
LAYER
  5
BF0
330
BAB
100
AcDbSymbolTableRecord
100
AcDbLayerTableRecord
  2
Shape1184
 70
    0
 62
    7
  6
CONTINUOUS
  0
LAYER
  5
BF1
330
BAB
100
AcDbSymbolTableRecord
100
AcDbLayerTableRecord
  2
Shape1185
 70
    0
 62
    7
  6
CONTINUOUS
  0
LAYER
  5
BF2
330
BAB
100
AcDbSymbolTableRecord
100
AcDbLayerTableRecord
  2
Shape1186
 70
    0
 62
    7
  6
CONTINUOUS
  0
LAYER
  5
BF3
330
BAB
100
AcDbSymbolTableRecord
100
AcDbLayerTableRecord
  2
Shape1187
 70
    0
 62
    7
  6
CONTINUOUS
  0
LAYER
  5
BF4
330
BAB
100
AcDbSymbolTableRecord
100
AcDbLayerTableRecord
  2
Shape1188
 70
    0
 62
    7
  6
CONTINUOUS
  0
LAYER
  5
BF5
330
BAB
100
AcDbSymbolTableRecord
100
AcDbLayerTableRecord
  2
Shape1189
 70
    0
 62
    7
  6
CONTINUOUS
  0
LAYER
  5
BF6
330
BAB
100
AcDbSymbolTableRecord
100
AcDbLayerTableRecord
  2
Shape1190
 70
    0
 62
    7
  6
CONTINUOUS
  0
LAYER
  5
BF7
330
BAB
100
AcDbSymbolTableRecord
100
AcDbLayerTableRecord
  2
Shape1191
 70
    0
 62
    7
  6
CONTINUOUS
  0
LAYER
  5
BF8
330
BAB
100
AcDbSymbolTableRecord
100
AcDbLayerTableRecord
  2
Shape1192
 70
    0
 62
    7
  6
CONTINUOUS
  0
LAYER
  5
BF9
330
BAB
100
AcDbSymbolTableRecord
100
AcDbLayerTableRecord
  2
Shape1193
 70
    0
 62
    7
  6
CONTINUOUS
  0
LAYER
  5
BFA
330
BAB
100
AcDbSymbolTableRecord
100
AcDbLayerTableRecord
  2
Shape1194
 70
    0
 62
    7
  6
CONTINUOUS
  0
LAYER
  5
BFB
330
BAB
100
AcDbSymbolTableRecord
100
AcDbLayerTableRecord
  2
Shape1195
 70
    0
 62
    7
  6
CONTINUOUS
  0
LAYER
  5
BFC
330
BAB
100
AcDbSymbolTableRecord
100
AcDbLayerTableRecord
  2
Shape1196
 70
    0
 62
    7
  6
CONTINUOUS
  0
LAYER
  5
BFD
330
BAB
100
AcDbSymbolTableRecord
100
AcDbLayerTableRecord
  2
Shape1197
 70
    0
 62
    7
  6
CONTINUOUS
  0
LAYER
  5
BFE
330
BAB
100
AcDbSymbolTableRecord
100
AcDbLayerTableRecord
  2
Shape1198
 70
    0
 62
    7
  6
CONTINUOUS
  0
LAYER
  5
BFF
330
BAB
100
AcDbSymbolTableRecord
100
AcDbLayerTableRecord
  2
Shape1199
 70
    0
 62
    7
  6
CONTINUOUS
  0
LAYER
  5
C00
330
BAB
100
AcDbSymbolTableRecord
100
AcDbLayerTableRecord
  2
Shape1200
 70
    0
 62
    7
  6
CONTINUOUS
  0
LAYER
  5
C01
330
BAB
100
AcDbSymbolTableRecord
100
AcDbLayerTableRecord
  2
Shape1201
 70
    0
 62
    7
  6
CONTINUOUS
  0
LAYER
  5
C02
330
BAB
100
AcDbSymbolTableRecord
100
AcDbLayerTableRecord
  2
Shape1202
 70
    0
 62
    7
  6
CONTINUOUS
  0
LAYER
  5
C03
330
BAB
100
AcDbSymbolTableRecord
100
AcDbLayerTableRecord
  2
Shape1203
 70
    0
 62
    7
  6
CONTINUOUS
  0
LAYER
  5
C04
330
BAB
100
AcDbSymbolTableRecord
100
AcDbLayerTableRecord
  2
Shape1204
 70
    0
 62
    7
  6
CONTINUOUS
  0
LAYER
  5
C05
330
BAB
100
AcDbSymbolTableRecord
100
AcDbLayerTableRecord
  2
Shape1205
 70
    0
 62
    7
  6
CONTINUOUS
  0
LAYER
  5
C06
330
BAB
100
AcDbSymbolTableRecord
100
AcDbLayerTableRecord
  2
Shape1206
 70
    0
 62
    7
  6
CONTINUOUS
  0
LAYER
  5
C07
330
BAB
100
AcDbSymbolTableRecord
100
AcDbLayerTableRecord
  2
Shape1207
 70
    0
 62
    7
  6
CONTINUOUS
  0
LAYER
  5
C08
330
BAB
100
AcDbSymbolTableRecord
100
AcDbLayerTableRecord
  2
Shape1208
 70
    0
 62
    7
  6
CONTINUOUS
  0
LAYER
  5
C09
330
BAB
100
AcDbSymbolTableRecord
100
AcDbLayerTableRecord
  2
Shape1209
 70
    0
 62
    7
  6
CONTINUOUS
  0
LAYER
  5
C0A
330
BAB
100
AcDbSymbolTableRecord
100
AcDbLayerTableRecord
  2
Shape1210
 70
    0
 62
    7
  6
CONTINUOUS
  0
LAYER
  5
C0B
330
BAB
100
AcDbSymbolTableRecord
100
AcDbLayerTableRecord
  2
Shape1211
 70
    0
 62
    7
  6
CONTINUOUS
  0
LAYER
  5
C0C
330
BAB
100
AcDbSymbolTableRecord
100
AcDbLayerTableRecord
  2
Shape1212
 70
    0
 62
    7
  6
CONTINUOUS
  0
LAYER
  5
C0D
330
BAB
100
AcDbSymbolTableRecord
100
AcDbLayerTableRecord
  2
Shape1213
 70
    0
 62
    7
  6
CONTINUOUS
  0
LAYER
  5
C0E
330
BAB
100
AcDbSymbolTableRecord
100
AcDbLayerTableRecord
  2
Shape1214
 70
    0
 62
    7
  6
CONTINUOUS
  0
LAYER
  5
C0F
330
BAB
100
AcDbSymbolTableRecord
100
AcDbLayerTableRecord
  2
Shape1215
 70
    0
 62
    7
  6
CONTINUOUS
  0
LAYER
  5
C10
330
BAB
100
AcDbSymbolTableRecord
100
AcDbLayerTableRecord
  2
Shape1216
 70
    0
 62
    7
  6
CONTINUOUS
  0
LAYER
  5
C11
330
BAB
100
AcDbSymbolTableRecord
100
AcDbLayerTableRecord
  2
Shape1217
 70
    0
 62
    7
  6
CONTINUOUS
  0
LAYER
  5
C12
330
BAB
100
AcDbSymbolTableRecord
100
AcDbLayerTableRecord
  2
Shape1218
 70
    0
 62
    7
  6
CONTINUOUS
  0
LAYER
  5
C13
330
BAB
100
AcDbSymbolTableRecord
100
AcDbLayerTableRecord
  2
Shape1219
 70
    0
 62
    7
  6
CONTINUOUS
  0
LAYER
  5
C14
330
BAB
100
AcDbSymbolTableRecord
100
AcDbLayerTableRecord
  2
Shape1220
 70
    0
 62
    7
  6
CONTINUOUS
  0
LAYER
  5
C15
330
BAB
100
AcDbSymbolTableRecord
100
AcDbLayerTableRecord
  2
Shape1221
 70
    0
 62
    7
  6
CONTINUOUS
  0
LAYER
  5
C16
330
BAB
100
AcDbSymbolTableRecord
100
AcDbLayerTableRecord
  2
Shape1222
 70
    0
 62
    7
  6
CONTINUOUS
  0
LAYER
  5
C17
330
BAB
100
AcDbSymbolTableRecord
100
AcDbLayerTableRecord
  2
Shape1223
 70
    0
 62
    7
  6
CONTINUOUS
  0
LAYER
  5
C18
330
BAB
100
AcDbSymbolTableRecord
100
AcDbLayerTableRecord
  2
Shape1224
 70
    0
 62
    7
  6
CONTINUOUS
  0
LAYER
  5
C19
330
BAB
100
AcDbSymbolTableRecord
100
AcDbLayerTableRecord
  2
Shape1225
 70
    0
 62
    7
  6
CONTINUOUS
  0
LAYER
  5
C1A
330
BAB
100
AcDbSymbolTableRecord
100
AcDbLayerTableRecord
  2
Shape1226
 70
    0
 62
    7
  6
CONTINUOUS
  0
LAYER
  5
C1B
330
BAB
100
AcDbSymbolTableRecord
100
AcDbLayerTableRecord
  2
Shape1227
 70
    0
 62
    7
  6
CONTINUOUS
  0
LAYER
  5
C1C
330
BAB
100
AcDbSymbolTableRecord
100
AcDbLayerTableRecord
  2
Shape1228
 70
    0
 62
    7
  6
CONTINUOUS
  0
LAYER
  5
C1D
330
BAB
100
AcDbSymbolTableRecord
100
AcDbLayerTableRecord
  2
Shape1229
 70
    0
 62
    7
  6
CONTINUOUS
  0
LAYER
  5
C1E
330
BAB
100
AcDbSymbolTableRecord
100
AcDbLayerTableRecord
  2
Shape1230
 70
    0
 62
    7
  6
CONTINUOUS
  0
LAYER
  5
C1F
330
BAB
100
AcDbSymbolTableRecord
100
AcDbLayerTableRecord
  2
Shape1231
 70
    0
 62
    7
  6
CONTINUOUS
  0
LAYER
  5
C20
330
BAB
100
AcDbSymbolTableRecord
100
AcDbLayerTableRecord
  2
Shape1232
 70
    0
 62
    7
  6
CONTINUOUS
  0
LAYER
  5
C21
330
BAB
100
AcDbSymbolTableRecord
100
AcDbLayerTableRecord
  2
Shape1233
 70
    0
 62
    7
  6
CONTINUOUS
  0
LAYER
  5
C22
330
BAB
100
AcDbSymbolTableRecord
100
AcDbLayerTableRecord
  2
Shape1234
 70
    0
 62
    7
  6
CONTINUOUS
  0
LAYER
  5
C23
330
BAB
100
AcDbSymbolTableRecord
100
AcDbLayerTableRecord
  2
Shape1235
 70
    0
 62
    7
  6
CONTINUOUS
  0
LAYER
  5
C24
330
BAB
100
AcDbSymbolTableRecord
100
AcDbLayerTableRecord
  2
Shape1236
 70
    0
 62
    7
  6
CONTINUOUS
  0
LAYER
  5
C25
330
BAB
100
AcDbSymbolTableRecord
100
AcDbLayerTableRecord
  2
Shape1237
 70
    0
 62
    7
  6
CONTINUOUS
  0
LAYER
  5
C26
330
BAB
100
AcDbSymbolTableRecord
100
AcDbLayerTableRecord
  2
Shape1238
 70
    0
 62
    7
  6
CONTINUOUS
  0
LAYER
  5
C27
330
BAB
100
AcDbSymbolTableRecord
100
AcDbLayerTableRecord
  2
Shape1239
 70
    0
 62
    7
  6
CONTINUOUS
  0
LAYER
  5
C28
330
BAB
100
AcDbSymbolTableRecord
100
AcDbLayerTableRecord
  2
Shape1240
 70
    0
 62
    7
  6
CONTINUOUS
  0
LAYER
  5
C29
330
BAB
100
AcDbSymbolTableRecord
100
AcDbLayerTableRecord
  2
Shape1241
 70
    0
 62
    7
  6
CONTINUOUS
  0
LAYER
  5
C2A
330
BAB
100
AcDbSymbolTableRecord
100
AcDbLayerTableRecord
  2
Shape1242
 70
    0
 62
    7
  6
CONTINUOUS
  0
LAYER
  5
C2B
330
BAB
100
AcDbSymbolTableRecord
100
AcDbLayerTableRecord
  2
Shape1243
 70
    0
 62
    7
  6
CONTINUOUS
  0
LAYER
  5
C2C
330
BAB
100
AcDbSymbolTableRecord
100
AcDbLayerTableRecord
  2
Shape1244
 70
    0
 62
    7
  6
CONTINUOUS
  0
LAYER
  5
C2D
330
BAB
100
AcDbSymbolTableRecord
100
AcDbLayerTableRecord
  2
Shape1245
 70
    0
 62
    7
  6
CONTINUOUS
  0
LAYER
  5
C2E
330
BAB
100
AcDbSymbolTableRecord
100
AcDbLayerTableRecord
  2
Shape1246
 70
    0
 62
    7
  6
CONTINUOUS
  0
LAYER
  5
C2F
330
BAB
100
AcDbSymbolTableRecord
100
AcDbLayerTableRecord
  2
Shape1247
 70
    0
 62
    7
  6
CONTINUOUS
  0
LAYER
  5
C30
330
BAB
100
AcDbSymbolTableRecord
100
AcDbLayerTableRecord
  2
Shape1248
 70
    0
 62
    7
  6
CONTINUOUS
  0
LAYER
  5
C31
330
BAB
100
AcDbSymbolTableRecord
100
AcDbLayerTableRecord
  2
Shape1249
 70
    0
 62
    7
  6
CONTINUOUS
  0
LAYER
  5
C32
330
BAB
100
AcDbSymbolTableRecord
100
AcDbLayerTableRecord
  2
Shape1250
 70
    0
 62
    7
  6
CONTINUOUS
  0
LAYER
  5
C33
330
BAB
100
AcDbSymbolTableRecord
100
AcDbLayerTableRecord
  2
Shape1251
 70
    0
 62
    7
  6
CONTINUOUS
  0
LAYER
  5
C34
330
BAB
100
AcDbSymbolTableRecord
100
AcDbLayerTableRecord
  2
Shape1252
 70
    0
 62
    7
  6
CONTINUOUS
  0
LAYER
  5
C35
330
BAB
100
AcDbSymbolTableRecord
100
AcDbLayerTableRecord
  2
Shape1253
 70
    0
 62
    7
  6
CONTINUOUS
  0
LAYER
  5
C36
330
BAB
100
AcDbSymbolTableRecord
100
AcDbLayerTableRecord
  2
Shape1254
 70
    0
 62
    7
  6
CONTINUOUS
  0
LAYER
  5
C37
330
BAB
100
AcDbSymbolTableRecord
100
AcDbLayerTableRecord
  2
Shape1255
 70
    0
 62
    7
  6
CONTINUOUS
  0
LAYER
  5
C38
330
BAB
100
AcDbSymbolTableRecord
100
AcDbLayerTableRecord
  2
Shape1256
 70
    0
 62
    7
  6
CONTINUOUS
  0
LAYER
  5
C39
330
BAB
100
AcDbSymbolTableRecord
100
AcDbLayerTableRecord
  2
Shape1257
 70
    0
 62
    7
  6
CONTINUOUS
  0
LAYER
  5
C3A
330
BAB
100
AcDbSymbolTableRecord
100
AcDbLayerTableRecord
  2
Shape1258
 70
    0
 62
    7
  6
CONTINUOUS
  0
LAYER
  5
C3B
330
BAB
100
AcDbSymbolTableRecord
100
AcDbLayerTableRecord
  2
Shape1259
 70
    0
 62
    7
  6
CONTINUOUS
  0
LAYER
  5
C3C
330
BAB
100
AcDbSymbolTableRecord
100
AcDbLayerTableRecord
  2
Shape1260
 70
    0
 62
    7
  6
CONTINUOUS
  0
LAYER
  5
C3D
330
BAB
100
AcDbSymbolTableRecord
100
AcDbLayerTableRecord
  2
Shape1261
 70
    0
 62
    7
  6
CONTINUOUS
  0
LAYER
  5
C3E
330
BAB
100
AcDbSymbolTableRecord
100
AcDbLayerTableRecord
  2
Shape1262
 70
    0
 62
    7
  6
CONTINUOUS
  0
LAYER
  5
C3F
330
BAB
100
AcDbSymbolTableRecord
100
AcDbLayerTableRecord
  2
Shape1263
 70
    0
 62
    7
  6
CONTINUOUS
  0
LAYER
  5
C40
330
BAB
100
AcDbSymbolTableRecord
100
AcDbLayerTableRecord
  2
Shape1264
 70
    0
 62
    7
  6
CONTINUOUS
  0
LAYER
  5
C41
330
BAB
100
AcDbSymbolTableRecord
100
AcDbLayerTableRecord
  2
Shape1265
 70
    0
 62
    7
  6
CONTINUOUS
  0
LAYER
  5
C42
330
BAB
100
AcDbSymbolTableRecord
100
AcDbLayerTableRecord
  2
Shape1266
 70
    0
 62
    7
  6
CONTINUOUS
  0
LAYER
  5
C43
330
BAB
100
AcDbSymbolTableRecord
100
AcDbLayerTableRecord
  2
Shape1267
 70
    0
 62
    7
  6
CONTINUOUS
  0
LAYER
  5
C44
330
BAB
100
AcDbSymbolTableRecord
100
AcDbLayerTableRecord
  2
Shape1268
 70
    0
 62
    7
  6
CONTINUOUS
  0
LAYER
  5
C45
330
BAB
100
AcDbSymbolTableRecord
100
AcDbLayerTableRecord
  2
Shape1269
 70
    0
 62
    7
  6
CONTINUOUS
  0
LAYER
  5
C46
330
BAB
100
AcDbSymbolTableRecord
100
AcDbLayerTableRecord
  2
Shape1276
 70
    0
 62
    7
  6
CONTINUOUS
  0
LAYER
  5
C47
330
BAB
100
AcDbSymbolTableRecord
100
AcDbLayerTableRecord
  2
Shape1277
 70
    0
 62
    7
  6
CONTINUOUS
  0
LAYER
  5
C48
330
BAB
100
AcDbSymbolTableRecord
100
AcDbLayerTableRecord
  2
Shape1278
 70
    0
 62
    7
  6
CONTINUOUS
  0
LAYER
  5
C49
330
BAB
100
AcDbSymbolTableRecord
100
AcDbLayerTableRecord
  2
Shape1279
 70
    0
 62
    7
  6
CONTINUOUS
  0
LAYER
  5
C4A
330
BAB
100
AcDbSymbolTableRecord
100
AcDbLayerTableRecord
  2
Shape1280
 70
    0
 62
    7
  6
CONTINUOUS
  0
LAYER
  5
C4B
330
BAB
100
AcDbSymbolTableRecord
100
AcDbLayerTableRecord
  2
Shape1281
 70
    0
 62
    7
  6
CONTINUOUS
  0
LAYER
  5
C4C
330
BAB
100
AcDbSymbolTableRecord
100
AcDbLayerTableRecord
  2
Shape2702
 70
    0
 62
    7
  6
CONTINUOUS
  0
LAYER
  5
C4D
330
BAB
100
AcDbSymbolTableRecord
100
AcDbLayerTableRecord
  2
Shape2703
 70
    0
 62
    7
  6
CONTINUOUS
  0
LAYER
  5
C4E
330
BAB
100
AcDbSymbolTableRecord
100
AcDbLayerTableRecord
  2
Shape2704
 70
    0
 62
    7
  6
CONTINUOUS
  0
LAYER
  5
C4F
330
BAB
100
AcDbSymbolTableRecord
100
AcDbLayerTableRecord
  2
Shape2705
 70
    0
 62
    7
  6
CONTINUOUS
  0
LAYER
  5
C50
330
BAB
100
AcDbSymbolTableRecord
100
AcDbLayerTableRecord
  2
Shape2706
 70
    0
 62
    7
  6
CONTINUOUS
  0
LAYER
  5
C51
330
BAB
100
AcDbSymbolTableRecord
100
AcDbLayerTableRecord
  2
Shape2707
 70
    0
 62
    7
  6
CONTINUOUS
  0
LAYER
  5
C52
330
BAB
100
AcDbSymbolTableRecord
100
AcDbLayerTableRecord
  2
Shape2708
 70
    0
 62
    7
  6
CONTINUOUS
  0
LAYER
  5
C53
330
BAB
100
AcDbSymbolTableRecord
100
AcDbLayerTableRecord
  2
Shape2709
 70
    0
 62
    7
  6
CONTINUOUS
  0
LAYER
  5
C54
330
BAB
100
AcDbSymbolTableRecord
100
AcDbLayerTableRecord
  2
Shape2710
 70
    0
 62
    7
  6
CONTINUOUS
  0
LAYER
  5
C55
330
BAB
100
AcDbSymbolTableRecord
100
AcDbLayerTableRecord
  2
Shape2711
 70
    0
 62
    7
  6
CONTINUOUS
  0
LAYER
  5
C56
330
BAB
100
AcDbSymbolTableRecord
100
AcDbLayerTableRecord
  2
Shape2712
 70
    0
 62
    7
  6
CONTINUOUS
  0
LAYER
  5
C57
330
BAB
100
AcDbSymbolTableRecord
100
AcDbLayerTableRecord
  2
Shape2713
 70
    0
 62
    7
  6
CONTINUOUS
  0
LAYER
  5
C58
330
BAB
100
AcDbSymbolTableRecord
100
AcDbLayerTableRecord
  2
Shape2714
 70
    0
 62
    7
  6
CONTINUOUS
  0
LAYER
  5
C59
330
BAB
100
AcDbSymbolTableRecord
100
AcDbLayerTableRecord
  2
Shape2715
 70
    0
 62
    7
  6
CONTINUOUS
  0
LAYER
  5
C5A
330
BAB
100
AcDbSymbolTableRecord
100
AcDbLayerTableRecord
  2
Shape2716
 70
    0
 62
    7
  6
CONTINUOUS
  0
LAYER
  5
C5B
330
BAB
100
AcDbSymbolTableRecord
100
AcDbLayerTableRecord
  2
Shape2717
 70
    0
 62
    7
  6
CONTINUOUS
  0
LAYER
  5
C5C
330
BAB
100
AcDbSymbolTableRecord
100
AcDbLayerTableRecord
  2
Shape2718
 70
    0
 62
    7
  6
CONTINUOUS
  0
LAYER
  5
C5D
330
BAB
100
AcDbSymbolTableRecord
100
AcDbLayerTableRecord
  2
Shape2719
 70
    0
 62
    7
  6
CONTINUOUS
  0
LAYER
  5
C5E
330
BAB
100
AcDbSymbolTableRecord
100
AcDbLayerTableRecord
  2
Shape2720
 70
    0
 62
    7
  6
CONTINUOUS
  0
LAYER
  5
C5F
330
BAB
100
AcDbSymbolTableRecord
100
AcDbLayerTableRecord
  2
Shape2721
 70
    0
 62
    7
  6
CONTINUOUS
  0
LAYER
  5
C60
330
BAB
100
AcDbSymbolTableRecord
100
AcDbLayerTableRecord
  2
Shape2722
 70
    0
 62
    7
  6
CONTINUOUS
  0
LAYER
  5
C61
330
BAB
100
AcDbSymbolTableRecord
100
AcDbLayerTableRecord
  2
Shape2723
 70
    0
 62
    7
  6
CONTINUOUS
  0
LAYER
  5
C62
330
BAB
100
AcDbSymbolTableRecord
100
AcDbLayerTableRecord
  2
Shape2724
 70
    0
 62
    7
  6
CONTINUOUS
  0
LAYER
  5
C63
330
BAB
100
AcDbSymbolTableRecord
100
AcDbLayerTableRecord
  2
Shape2725
 70
    0
 62
    7
  6
CONTINUOUS
  0
LAYER
  5
C64
330
BAB
100
AcDbSymbolTableRecord
100
AcDbLayerTableRecord
  2
Shape2726
 70
    0
 62
    7
  6
CONTINUOUS
  0
LAYER
  5
C65
330
BAB
100
AcDbSymbolTableRecord
100
AcDbLayerTableRecord
  2
Shape2727
 70
    0
 62
    7
  6
CONTINUOUS
  0
LAYER
  5
C66
330
BAB
100
AcDbSymbolTableRecord
100
AcDbLayerTableRecord
  2
Shape2728
 70
    0
 62
    7
  6
CONTINUOUS
  0
LAYER
  5
C67
330
BAB
100
AcDbSymbolTableRecord
100
AcDbLayerTableRecord
  2
Shape2729
 70
    0
 62
    7
  6
CONTINUOUS
  0
LAYER
  5
C68
330
BAB
100
AcDbSymbolTableRecord
100
AcDbLayerTableRecord
  2
Shape2730
 70
    0
 62
    7
  6
CONTINUOUS
  0
LAYER
  5
C69
330
BAB
100
AcDbSymbolTableRecord
100
AcDbLayerTableRecord
  2
Shape2731
 70
    0
 62
    7
  6
CONTINUOUS
  0
LAYER
  5
C6A
330
BAB
100
AcDbSymbolTableRecord
100
AcDbLayerTableRecord
  2
Shape2732
 70
    0
 62
    7
  6
CONTINUOUS
  0
LAYER
  5
C6B
330
BAB
100
AcDbSymbolTableRecord
100
AcDbLayerTableRecord
  2
Shape2733
 70
    0
 62
    7
  6
CONTINUOUS
  0
LAYER
  5
C6C
330
BAB
100
AcDbSymbolTableRecord
100
AcDbLayerTableRecord
  2
Shape2734
 70
    0
 62
    7
  6
CONTINUOUS
  0
LAYER
  5
C6D
330
BAB
100
AcDbSymbolTableRecord
100
AcDbLayerTableRecord
  2
Shape2735
 70
    0
 62
    7
  6
CONTINUOUS
  0
LAYER
  5
C6E
330
BAB
100
AcDbSymbolTableRecord
100
AcDbLayerTableRecord
  2
Shape2736
 70
    0
 62
    7
  6
CONTINUOUS
  0
LAYER
  5
C6F
330
BAB
100
AcDbSymbolTableRecord
100
AcDbLayerTableRecord
  2
Shape2737
 70
    0
 62
    7
  6
CONTINUOUS
  0
LAYER
  5
C70
330
BAB
100
AcDbSymbolTableRecord
100
AcDbLayerTableRecord
  2
Shape2738
 70
    0
 62
    7
  6
CONTINUOUS
  0
LAYER
  5
C71
330
BAB
100
AcDbSymbolTableRecord
100
AcDbLayerTableRecord
  2
Shape2739
 70
    0
 62
    7
  6
CONTINUOUS
  0
LAYER
  5
C72
330
BAB
100
AcDbSymbolTableRecord
100
AcDbLayerTableRecord
  2
Shape2740
 70
    0
 62
    7
  6
CONTINUOUS
  0
LAYER
  5
C73
330
BAB
100
AcDbSymbolTableRecord
100
AcDbLayerTableRecord
  2
Shape2741
 70
    0
 62
    7
  6
CONTINUOUS
  0
LAYER
  5
C74
330
BAB
100
AcDbSymbolTableRecord
100
AcDbLayerTableRecord
  2
Shape2742
 70
    0
 62
    7
  6
CONTINUOUS
  0
LAYER
  5
C75
330
BAB
100
AcDbSymbolTableRecord
100
AcDbLayerTableRecord
  2
Shape2743
 70
    0
 62
    7
  6
CONTINUOUS
  0
LAYER
  5
C76
330
BAB
100
AcDbSymbolTableRecord
100
AcDbLayerTableRecord
  2
Shape2744
 70
    0
 62
    7
  6
CONTINUOUS
  0
LAYER
  5
C77
330
BAB
100
AcDbSymbolTableRecord
100
AcDbLayerTableRecord
  2
Shape2745
 70
    0
 62
    7
  6
CONTINUOUS
  0
LAYER
  5
C78
330
BAB
100
AcDbSymbolTableRecord
100
AcDbLayerTableRecord
  2
Shape2746
 70
    0
 62
    7
  6
CONTINUOUS
  0
LAYER
  5
C79
330
BAB
100
AcDbSymbolTableRecord
100
AcDbLayerTableRecord
  2
Shape2747
 70
    0
 62
    7
  6
CONTINUOUS
  0
LAYER
  5
C7A
330
BAB
100
AcDbSymbolTableRecord
100
AcDbLayerTableRecord
  2
Shape2748
 70
    0
 62
    7
  6
CONTINUOUS
  0
LAYER
  5
C7B
330
BAB
100
AcDbSymbolTableRecord
100
AcDbLayerTableRecord
  2
Shape2749
 70
    0
 62
    7
  6
CONTINUOUS
  0
LAYER
  5
C7C
330
BAB
100
AcDbSymbolTableRecord
100
AcDbLayerTableRecord
  2
Shape2750
 70
    0
 62
    7
  6
CONTINUOUS
  0
LAYER
  5
C7D
330
BAB
100
AcDbSymbolTableRecord
100
AcDbLayerTableRecord
  2
Shape2751
 70
    0
 62
    7
  6
CONTINUOUS
  0
LAYER
  5
C7E
330
BAB
100
AcDbSymbolTableRecord
100
AcDbLayerTableRecord
  2
Shape2752
 70
    0
 62
    7
  6
CONTINUOUS
  0
LAYER
  5
C7F
330
BAB
100
AcDbSymbolTableRecord
100
AcDbLayerTableRecord
  2
Shape2753
 70
    0
 62
    7
  6
CONTINUOUS
  0
LAYER
  5
C80
330
BAB
100
AcDbSymbolTableRecord
100
AcDbLayerTableRecord
  2
Shape2754
 70
    0
 62
    7
  6
CONTINUOUS
  0
LAYER
  5
C81
330
BAB
100
AcDbSymbolTableRecord
100
AcDbLayerTableRecord
  2
Shape2755
 70
    0
 62
    7
  6
CONTINUOUS
  0
LAYER
  5
C82
330
BAB
100
AcDbSymbolTableRecord
100
AcDbLayerTableRecord
  2
Shape2756
 70
    0
 62
    7
  6
CONTINUOUS
  0
LAYER
  5
C83
330
BAB
100
AcDbSymbolTableRecord
100
AcDbLayerTableRecord
  2
Shape2757
 70
    0
 62
    7
  6
CONTINUOUS
  0
LAYER
  5
C84
330
BAB
100
AcDbSymbolTableRecord
100
AcDbLayerTableRecord
  2
Shape2758
 70
    0
 62
    7
  6
CONTINUOUS
  0
LAYER
  5
C85
330
BAB
100
AcDbSymbolTableRecord
100
AcDbLayerTableRecord
  2
Shape2759
 70
    0
 62
    7
  6
CONTINUOUS
  0
LAYER
  5
C86
330
BAB
100
AcDbSymbolTableRecord
100
AcDbLayerTableRecord
  2
Shape2760
 70
    0
 62
    7
  6
CONTINUOUS
  0
LAYER
  5
C87
330
BAB
100
AcDbSymbolTableRecord
100
AcDbLayerTableRecord
  2
Shape2761
 70
    0
 62
    7
  6
CONTINUOUS
  0
LAYER
  5
C88
330
BAB
100
AcDbSymbolTableRecord
100
AcDbLayerTableRecord
  2
Shape2762
 70
    0
 62
    7
  6
CONTINUOUS
  0
LAYER
  5
C89
330
BAB
100
AcDbSymbolTableRecord
100
AcDbLayerTableRecord
  2
Shape2763
 70
    0
 62
    7
  6
CONTINUOUS
  0
LAYER
  5
C8A
330
BAB
100
AcDbSymbolTableRecord
100
AcDbLayerTableRecord
  2
Shape2764
 70
    0
 62
    7
  6
CONTINUOUS
  0
LAYER
  5
C8B
330
BAB
100
AcDbSymbolTableRecord
100
AcDbLayerTableRecord
  2
Shape2765
 70
    0
 62
    7
  6
CONTINUOUS
  0
LAYER
  5
C8C
330
BAB
100
AcDbSymbolTableRecord
100
AcDbLayerTableRecord
  2
Shape2766
 70
    0
 62
    7
  6
CONTINUOUS
  0
LAYER
  5
C8D
330
BAB
100
AcDbSymbolTableRecord
100
AcDbLayerTableRecord
  2
Shape2767
 70
    0
 62
    7
  6
CONTINUOUS
  0
LAYER
  5
C8E
330
BAB
100
AcDbSymbolTableRecord
100
AcDbLayerTableRecord
  2
Shape2768
 70
    0
 62
    7
  6
CONTINUOUS
  0
LAYER
  5
C8F
330
BAB
100
AcDbSymbolTableRecord
100
AcDbLayerTableRecord
  2
Shape2769
 70
    0
 62
    7
  6
CONTINUOUS
  0
LAYER
  5
C90
330
BAB
100
AcDbSymbolTableRecord
100
AcDbLayerTableRecord
  2
Shape2770
 70
    0
 62
    7
  6
CONTINUOUS
  0
LAYER
  5
C91
330
BAB
100
AcDbSymbolTableRecord
100
AcDbLayerTableRecord
  2
Shape2771
 70
    0
 62
    7
  6
CONTINUOUS
  0
LAYER
  5
C92
330
BAB
100
AcDbSymbolTableRecord
100
AcDbLayerTableRecord
  2
Shape2772
 70
    0
 62
    7
  6
CONTINUOUS
  0
LAYER
  5
C93
330
BAB
100
AcDbSymbolTableRecord
100
AcDbLayerTableRecord
  2
Shape2773
 70
    0
 62
    7
  6
CONTINUOUS
  0
LAYER
  5
C94
330
BAB
100
AcDbSymbolTableRecord
100
AcDbLayerTableRecord
  2
Shape2774
 70
    0
 62
    7
  6
CONTINUOUS
  0
LAYER
  5
C95
330
BAB
100
AcDbSymbolTableRecord
100
AcDbLayerTableRecord
  2
Shape2775
 70
    0
 62
    7
  6
CONTINUOUS
  0
LAYER
  5
C96
330
BAB
100
AcDbSymbolTableRecord
100
AcDbLayerTableRecord
  2
Shape2776
 70
    0
 62
    7
  6
CONTINUOUS
  0
LAYER
  5
C97
330
BAB
100
AcDbSymbolTableRecord
100
AcDbLayerTableRecord
  2
Shape2777
 70
    0
 62
    7
  6
CONTINUOUS
  0
LAYER
  5
C98
330
BAB
100
AcDbSymbolTableRecord
100
AcDbLayerTableRecord
  2
Shape2778
 70
    0
 62
    7
  6
CONTINUOUS
  0
LAYER
  5
C99
330
BAB
100
AcDbSymbolTableRecord
100
AcDbLayerTableRecord
  2
Shape2779
 70
    0
 62
    7
  6
CONTINUOUS
  0
LAYER
  5
C9A
330
BAB
100
AcDbSymbolTableRecord
100
AcDbLayerTableRecord
  2
Shape2780
 70
    0
 62
    7
  6
CONTINUOUS
  0
LAYER
  5
C9B
330
BAB
100
AcDbSymbolTableRecord
100
AcDbLayerTableRecord
  2
Shape2781
 70
    0
 62
    7
  6
CONTINUOUS
  0
LAYER
  5
C9C
330
BAB
100
AcDbSymbolTableRecord
100
AcDbLayerTableRecord
  2
Shape2782
 70
    0
 62
    7
  6
CONTINUOUS
  0
LAYER
  5
C9D
330
BAB
100
AcDbSymbolTableRecord
100
AcDbLayerTableRecord
  2
Shape2783
 70
    0
 62
    7
  6
CONTINUOUS
  0
LAYER
  5
C9E
330
BAB
100
AcDbSymbolTableRecord
100
AcDbLayerTableRecord
  2
Shape2784
 70
    0
 62
    7
  6
CONTINUOUS
  0
LAYER
  5
C9F
330
BAB
100
AcDbSymbolTableRecord
100
AcDbLayerTableRecord
  2
Shape2785
 70
    0
 62
    7
  6
CONTINUOUS
  0
LAYER
  5
CA0
330
BAB
100
AcDbSymbolTableRecord
100
AcDbLayerTableRecord
  2
Shape2786
 70
    0
 62
    7
  6
CONTINUOUS
  0
LAYER
  5
CA1
330
BAB
100
AcDbSymbolTableRecord
100
AcDbLayerTableRecord
  2
Shape2787
 70
    0
 62
    7
  6
CONTINUOUS
  0
LAYER
  5
CA2
330
BAB
100
AcDbSymbolTableRecord
100
AcDbLayerTableRecord
  2
Shape2788
 70
    0
 62
    7
  6
CONTINUOUS
  0
LAYER
  5
CA3
330
BAB
100
AcDbSymbolTableRecord
100
AcDbLayerTableRecord
  2
Shape2789
 70
    0
 62
    7
  6
CONTINUOUS
  0
LAYER
  5
CA4
330
BAB
100
AcDbSymbolTableRecord
100
AcDbLayerTableRecord
  2
Shape2790
 70
    0
 62
    7
  6
CONTINUOUS
  0
LAYER
  5
CA5
330
BAB
100
AcDbSymbolTableRecord
100
AcDbLayerTableRecord
  2
Shape2791
 70
    0
 62
    7
  6
CONTINUOUS
  0
LAYER
  5
CA6
330
BAB
100
AcDbSymbolTableRecord
100
AcDbLayerTableRecord
  2
Shape2792
 70
    0
 62
    7
  6
CONTINUOUS
  0
LAYER
  5
CA7
330
BAB
100
AcDbSymbolTableRecord
100
AcDbLayerTableRecord
  2
Shape2793
 70
    0
 62
    7
  6
CONTINUOUS
  0
LAYER
  5
CA8
330
BAB
100
AcDbSymbolTableRecord
100
AcDbLayerTableRecord
  2
Shape2794
 70
    0
 62
    7
  6
CONTINUOUS
  0
LAYER
  5
CA9
330
BAB
100
AcDbSymbolTableRecord
100
AcDbLayerTableRecord
  2
Shape2795
 70
    0
 62
    7
  6
CONTINUOUS
  0
LAYER
  5
CAA
330
BAB
100
AcDbSymbolTableRecord
100
AcDbLayerTableRecord
  2
Shape2796
 70
    0
 62
    7
  6
CONTINUOUS
  0
LAYER
  5
CAB
330
BAB
100
AcDbSymbolTableRecord
100
AcDbLayerTableRecord
  2
Shape2797
 70
    0
 62
    7
  6
CONTINUOUS
  0
LAYER
  5
CAC
330
BAB
100
AcDbSymbolTableRecord
100
AcDbLayerTableRecord
  2
Shape2798
 70
    0
 62
    7
  6
CONTINUOUS
  0
LAYER
  5
CAD
330
BAB
100
AcDbSymbolTableRecord
100
AcDbLayerTableRecord
  2
Shape2799
 70
    0
 62
    7
  6
CONTINUOUS
  0
LAYER
  5
CAE
330
BAB
100
AcDbSymbolTableRecord
100
AcDbLayerTableRecord
  2
Shape2800
 70
    0
 62
    7
  6
CONTINUOUS
  0
LAYER
  5
CAF
330
BAB
100
AcDbSymbolTableRecord
100
AcDbLayerTableRecord
  2
Shape2801
 70
    0
 62
    7
  6
CONTINUOUS
  0
LAYER
  5
CB0
330
BAB
100
AcDbSymbolTableRecord
100
AcDbLayerTableRecord
  2
Shape2802
 70
    0
 62
    7
  6
CONTINUOUS
  0
LAYER
  5
CB1
330
BAB
100
AcDbSymbolTableRecord
100
AcDbLayerTableRecord
  2
Shape2803
 70
    0
 62
    7
  6
CONTINUOUS
  0
LAYER
  5
CB2
330
BAB
100
AcDbSymbolTableRecord
100
AcDbLayerTableRecord
  2
Shape2804
 70
    0
 62
    7
  6
CONTINUOUS
  0
LAYER
  5
CB3
330
BAB
100
AcDbSymbolTableRecord
100
AcDbLayerTableRecord
  2
Shape2805
 70
    0
 62
    7
  6
CONTINUOUS
  0
LAYER
  5
CB4
330
BAB
100
AcDbSymbolTableRecord
100
AcDbLayerTableRecord
  2
Shape2806
 70
    0
 62
    7
  6
CONTINUOUS
  0
LAYER
  5
CB5
330
BAB
100
AcDbSymbolTableRecord
100
AcDbLayerTableRecord
  2
Shape2807
 70
    0
 62
    7
  6
CONTINUOUS
  0
LAYER
  5
CB6
330
BAB
100
AcDbSymbolTableRecord
100
AcDbLayerTableRecord
  2
Shape2808
 70
    0
 62
    7
  6
CONTINUOUS
  0
LAYER
  5
CB7
330
BAB
100
AcDbSymbolTableRecord
100
AcDbLayerTableRecord
  2
Shape2809
 70
    0
 62
    7
  6
CONTINUOUS
  0
LAYER
  5
CB8
330
BAB
100
AcDbSymbolTableRecord
100
AcDbLayerTableRecord
  2
Shape2810
 70
    0
 62
    7
  6
CONTINUOUS
  0
LAYER
  5
CB9
330
BAB
100
AcDbSymbolTableRecord
100
AcDbLayerTableRecord
  2
Shape2811
 70
    0
 62
    7
  6
CONTINUOUS
  0
LAYER
  5
CBA
330
BAB
100
AcDbSymbolTableRecord
100
AcDbLayerTableRecord
  2
Shape2812
 70
    0
 62
    7
  6
CONTINUOUS
  0
LAYER
  5
CBB
330
BAB
100
AcDbSymbolTableRecord
100
AcDbLayerTableRecord
  2
Shape2813
 70
    0
 62
    7
  6
CONTINUOUS
  0
LAYER
  5
CBC
330
BAB
100
AcDbSymbolTableRecord
100
AcDbLayerTableRecord
  2
Shape2814
 70
    0
 62
    7
  6
CONTINUOUS
  0
LAYER
  5
CBD
330
BAB
100
AcDbSymbolTableRecord
100
AcDbLayerTableRecord
  2
Shape2815
 70
    0
 62
    7
  6
CONTINUOUS
  0
LAYER
  5
CBE
330
BAB
100
AcDbSymbolTableRecord
100
AcDbLayerTableRecord
  2
Shape2816
 70
    0
 62
    7
  6
CONTINUOUS
  0
LAYER
  5
CBF
330
BAB
100
AcDbSymbolTableRecord
100
AcDbLayerTableRecord
  2
Shape2817
 70
    0
 62
    7
  6
CONTINUOUS
  0
LAYER
  5
CC0
330
BAB
100
AcDbSymbolTableRecord
100
AcDbLayerTableRecord
  2
Shape2818
 70
    0
 62
    7
  6
CONTINUOUS
  0
LAYER
  5
CC1
330
BAB
100
AcDbSymbolTableRecord
100
AcDbLayerTableRecord
  2
Shape2819
 70
    0
 62
    7
  6
CONTINUOUS
  0
LAYER
  5
CC2
330
BAB
100
AcDbSymbolTableRecord
100
AcDbLayerTableRecord
  2
Shape2820
 70
    0
 62
    7
  6
CONTINUOUS
  0
LAYER
  5
CC3
330
BAB
100
AcDbSymbolTableRecord
100
AcDbLayerTableRecord
  2
Shape2821
 70
    0
 62
    7
  6
CONTINUOUS
  0
LAYER
  5
CC4
330
BAB
100
AcDbSymbolTableRecord
100
AcDbLayerTableRecord
  2
Shape2822
 70
    0
 62
    7
  6
CONTINUOUS
  0
LAYER
  5
CC5
330
BAB
100
AcDbSymbolTableRecord
100
AcDbLayerTableRecord
  2
Shape2823
 70
    0
 62
    7
  6
CONTINUOUS
  0
LAYER
  5
CC6
330
BAB
100
AcDbSymbolTableRecord
100
AcDbLayerTableRecord
  2
Shape2824
 70
    0
 62
    7
  6
CONTINUOUS
  0
LAYER
  5
CC7
330
BAB
100
AcDbSymbolTableRecord
100
AcDbLayerTableRecord
  2
Shape2825
 70
    0
 62
    7
  6
CONTINUOUS
  0
LAYER
  5
CC8
330
BAB
100
AcDbSymbolTableRecord
100
AcDbLayerTableRecord
  2
Shape2826
 70
    0
 62
    7
  6
CONTINUOUS
  0
LAYER
  5
CC9
330
BAB
100
AcDbSymbolTableRecord
100
AcDbLayerTableRecord
  2
Shape2827
 70
    0
 62
    7
  6
CONTINUOUS
  0
LAYER
  5
CCA
330
BAB
100
AcDbSymbolTableRecord
100
AcDbLayerTableRecord
  2
Shape2828
 70
    0
 62
    7
  6
CONTINUOUS
  0
LAYER
  5
CCB
330
BAB
100
AcDbSymbolTableRecord
100
AcDbLayerTableRecord
  2
Shape2829
 70
    0
 62
    7
  6
CONTINUOUS
  0
LAYER
  5
CCC
330
BAB
100
AcDbSymbolTableRecord
100
AcDbLayerTableRecord
  2
Shape2830
 70
    0
 62
    7
  6
CONTINUOUS
  0
LAYER
  5
CCD
330
BAB
100
AcDbSymbolTableRecord
100
AcDbLayerTableRecord
  2
Shape2831
 70
    0
 62
    7
  6
CONTINUOUS
  0
LAYER
  5
CCE
330
BAB
100
AcDbSymbolTableRecord
100
AcDbLayerTableRecord
  2
Shape2832
 70
    0
 62
    7
  6
CONTINUOUS
  0
LAYER
  5
CCF
330
BAB
100
AcDbSymbolTableRecord
100
AcDbLayerTableRecord
  2
Shape2833
 70
    0
 62
    7
  6
CONTINUOUS
  0
LAYER
  5
CD0
330
BAB
100
AcDbSymbolTableRecord
100
AcDbLayerTableRecord
  2
Shape2834
 70
    0
 62
    7
  6
CONTINUOUS
  0
LAYER
  5
CD1
330
BAB
100
AcDbSymbolTableRecord
100
AcDbLayerTableRecord
  2
Shape2835
 70
    0
 62
    7
  6
CONTINUOUS
  0
LAYER
  5
CD2
330
BAB
100
AcDbSymbolTableRecord
100
AcDbLayerTableRecord
  2
Shape2836
 70
    0
 62
    7
  6
CONTINUOUS
  0
LAYER
  5
CD3
330
BAB
100
AcDbSymbolTableRecord
100
AcDbLayerTableRecord
  2
Shape2837
 70
    0
 62
    7
  6
CONTINUOUS
  0
LAYER
  5
CD4
330
BAB
100
AcDbSymbolTableRecord
100
AcDbLayerTableRecord
  2
Shape2838
 70
    0
 62
    7
  6
CONTINUOUS
  0
LAYER
  5
CD5
330
BAB
100
AcDbSymbolTableRecord
100
AcDbLayerTableRecord
  2
Shape2839
 70
    0
 62
    7
  6
CONTINUOUS
  0
LAYER
  5
CD6
330
BAB
100
AcDbSymbolTableRecord
100
AcDbLayerTableRecord
  2
Shape2840
 70
    0
 62
    7
  6
CONTINUOUS
  0
LAYER
  5
CD7
330
BAB
100
AcDbSymbolTableRecord
100
AcDbLayerTableRecord
  2
Shape2841
 70
    0
 62
    7
  6
CONTINUOUS
  0
LAYER
  5
CD8
330
BAB
100
AcDbSymbolTableRecord
100
AcDbLayerTableRecord
  2
Shape2842
 70
    0
 62
    7
  6
CONTINUOUS
  0
LAYER
  5
CD9
330
BAB
100
AcDbSymbolTableRecord
100
AcDbLayerTableRecord
  2
Shape2843
 70
    0
 62
    7
  6
CONTINUOUS
  0
LAYER
  5
CDA
330
BAB
100
AcDbSymbolTableRecord
100
AcDbLayerTableRecord
  2
Shape2844
 70
    0
 62
    7
  6
CONTINUOUS
  0
LAYER
  5
CDB
330
BAB
100
AcDbSymbolTableRecord
100
AcDbLayerTableRecord
  2
Shape2845
 70
    0
 62
    7
  6
CONTINUOUS
  0
LAYER
  5
CDC
330
BAB
100
AcDbSymbolTableRecord
100
AcDbLayerTableRecord
  2
Shape2846
 70
    0
 62
    7
  6
CONTINUOUS
  0
LAYER
  5
CDD
330
BAB
100
AcDbSymbolTableRecord
100
AcDbLayerTableRecord
  2
Shape2847
 70
    0
 62
    7
  6
CONTINUOUS
  0
LAYER
  5
CDE
330
BAB
100
AcDbSymbolTableRecord
100
AcDbLayerTableRecord
  2
Shape2848
 70
    0
 62
    7
  6
CONTINUOUS
  0
LAYER
  5
CDF
330
BAB
100
AcDbSymbolTableRecord
100
AcDbLayerTableRecord
  2
Shape2849
 70
    0
 62
    7
  6
CONTINUOUS
  0
LAYER
  5
CE0
330
BAB
100
AcDbSymbolTableRecord
100
AcDbLayerTableRecord
  2
Shape2850
 70
    0
 62
    7
  6
CONTINUOUS
  0
LAYER
  5
CE1
330
BAB
100
AcDbSymbolTableRecord
100
AcDbLayerTableRecord
  2
Shape2851
 70
    0
 62
    7
  6
CONTINUOUS
  0
LAYER
  5
CE2
330
BAB
100
AcDbSymbolTableRecord
100
AcDbLayerTableRecord
  2
Shape2852
 70
    0
 62
    7
  6
CONTINUOUS
  0
LAYER
  5
CE3
330
BAB
100
AcDbSymbolTableRecord
100
AcDbLayerTableRecord
  2
Shape2853
 70
    0
 62
    7
  6
CONTINUOUS
  0
LAYER
  5
CE4
330
BAB
100
AcDbSymbolTableRecord
100
AcDbLayerTableRecord
  2
Shape2854
 70
    0
 62
    7
  6
CONTINUOUS
  0
LAYER
  5
CE5
330
BAB
100
AcDbSymbolTableRecord
100
AcDbLayerTableRecord
  2
Shape2855
 70
    0
 62
    7
  6
CONTINUOUS
  0
LAYER
  5
CE6
330
BAB
100
AcDbSymbolTableRecord
100
AcDbLayerTableRecord
  2
Shape2856
 70
    0
 62
    7
  6
CONTINUOUS
  0
LAYER
  5
CE7
330
BAB
100
AcDbSymbolTableRecord
100
AcDbLayerTableRecord
  2
Shape2857
 70
    0
 62
    7
  6
CONTINUOUS
  0
LAYER
  5
CE8
330
BAB
100
AcDbSymbolTableRecord
100
AcDbLayerTableRecord
  2
Shape2858
 70
    0
 62
    7
  6
CONTINUOUS
  0
LAYER
  5
CE9
330
BAB
100
AcDbSymbolTableRecord
100
AcDbLayerTableRecord
  2
Shape2859
 70
    0
 62
    7
  6
CONTINUOUS
  0
LAYER
  5
CEA
330
BAB
100
AcDbSymbolTableRecord
100
AcDbLayerTableRecord
  2
Shape2860
 70
    0
 62
    7
  6
CONTINUOUS
  0
LAYER
  5
CEB
330
BAB
100
AcDbSymbolTableRecord
100
AcDbLayerTableRecord
  2
Shape2861
 70
    0
 62
    7
  6
CONTINUOUS
  0
LAYER
  5
CEC
330
BAB
100
AcDbSymbolTableRecord
100
AcDbLayerTableRecord
  2
Shape2862
 70
    0
 62
    7
  6
CONTINUOUS
  0
LAYER
  5
CED
330
BAB
100
AcDbSymbolTableRecord
100
AcDbLayerTableRecord
  2
Shape2863
 70
    0
 62
    7
  6
CONTINUOUS
  0
LAYER
  5
CEE
330
BAB
100
AcDbSymbolTableRecord
100
AcDbLayerTableRecord
  2
Shape2864
 70
    0
 62
    7
  6
CONTINUOUS
  0
LAYER
  5
CEF
330
BAB
100
AcDbSymbolTableRecord
100
AcDbLayerTableRecord
  2
Shape2865
 70
    0
 62
    7
  6
CONTINUOUS
  0
LAYER
  5
CF0
330
BAB
100
AcDbSymbolTableRecord
100
AcDbLayerTableRecord
  2
Shape2866
 70
    0
 62
    7
  6
CONTINUOUS
  0
LAYER
  5
CF1
330
BAB
100
AcDbSymbolTableRecord
100
AcDbLayerTableRecord
  2
Shape2867
 70
    0
 62
    7
  6
CONTINUOUS
  0
LAYER
  5
CF2
330
BAB
100
AcDbSymbolTableRecord
100
AcDbLayerTableRecord
  2
Shape2868
 70
    0
 62
    7
  6
CONTINUOUS
  0
LAYER
  5
CF3
330
BAB
100
AcDbSymbolTableRecord
100
AcDbLayerTableRecord
  2
Shape2869
 70
    0
 62
    7
  6
CONTINUOUS
  0
LAYER
  5
CF4
330
BAB
100
AcDbSymbolTableRecord
100
AcDbLayerTableRecord
  2
Shape2870
 70
    0
 62
    7
  6
CONTINUOUS
  0
LAYER
  5
CF5
330
BAB
100
AcDbSymbolTableRecord
100
AcDbLayerTableRecord
  2
Shape2871
 70
    0
 62
    7
  6
CONTINUOUS
  0
LAYER
  5
CF6
330
BAB
100
AcDbSymbolTableRecord
100
AcDbLayerTableRecord
  2
Shape2872
 70
    0
 62
    7
  6
CONTINUOUS
  0
LAYER
  5
CF7
330
BAB
100
AcDbSymbolTableRecord
100
AcDbLayerTableRecord
  2
Shape2873
 70
    0
 62
    7
  6
CONTINUOUS
  0
LAYER
  5
CF8
330
BAB
100
AcDbSymbolTableRecord
100
AcDbLayerTableRecord
  2
Shape3386
 70
    0
 62
    7
  6
CONTINUOUS
  0
LAYER
  5
CF9
330
BAB
100
AcDbSymbolTableRecord
100
AcDbLayerTableRecord
  2
Shape3387
 70
    0
 62
    7
  6
CONTINUOUS
  0
LAYER
  5
CFA
330
BAB
100
AcDbSymbolTableRecord
100
AcDbLayerTableRecord
  2
Shape3388
 70
    0
 62
    7
  6
CONTINUOUS
  0
LAYER
  5
CFB
330
BAB
100
AcDbSymbolTableRecord
100
AcDbLayerTableRecord
  2
Shape3389
 70
    0
 62
    7
  6
CONTINUOUS
  0
LAYER
  5
CFC
330
BAB
100
AcDbSymbolTableRecord
100
AcDbLayerTableRecord
  2
Shape3390
 70
    0
 62
    7
  6
CONTINUOUS
  0
LAYER
  5
CFD
330
BAB
100
AcDbSymbolTableRecord
100
AcDbLayerTableRecord
  2
Shape3391
 70
    0
 62
    7
  6
CONTINUOUS
  0
LAYER
  5
CFE
330
BAB
100
AcDbSymbolTableRecord
100
AcDbLayerTableRecord
  2
Shape3392
 70
    0
 62
    7
  6
CONTINUOUS
  0
LAYER
  5
CFF
330
BAB
100
AcDbSymbolTableRecord
100
AcDbLayerTableRecord
  2
Shape3393
 70
    0
 62
    7
  6
CONTINUOUS
  0
LAYER
  5
D00
330
BAB
100
AcDbSymbolTableRecord
100
AcDbLayerTableRecord
  2
Shape3394
 70
    0
 62
    7
  6
CONTINUOUS
  0
LAYER
  5
D01
330
BAB
100
AcDbSymbolTableRecord
100
AcDbLayerTableRecord
  2
Shape3395
 70
    0
 62
    7
  6
CONTINUOUS
  0
LAYER
  5
D02
330
BAB
100
AcDbSymbolTableRecord
100
AcDbLayerTableRecord
  2
Shape3396
 70
    0
 62
    7
  6
CONTINUOUS
  0
LAYER
  5
D03
330
BAB
100
AcDbSymbolTableRecord
100
AcDbLayerTableRecord
  2
Shape3397
 70
    0
 62
    7
  6
CONTINUOUS
  0
LAYER
  5
D04
330
BAB
100
AcDbSymbolTableRecord
100
AcDbLayerTableRecord
  2
Shape3398
 70
    0
 62
    7
  6
CONTINUOUS
  0
LAYER
  5
D05
330
BAB
100
AcDbSymbolTableRecord
100
AcDbLayerTableRecord
  2
Shape3399
 70
    0
 62
    7
  6
CONTINUOUS
  0
LAYER
  5
D06
330
BAB
100
AcDbSymbolTableRecord
100
AcDbLayerTableRecord
  2
Shape3400
 70
    0
 62
    7
  6
CONTINUOUS
  0
LAYER
  5
D07
330
BAB
100
AcDbSymbolTableRecord
100
AcDbLayerTableRecord
  2
Shape3401
 70
    0
 62
    7
  6
CONTINUOUS
  0
LAYER
  5
D08
330
BAB
100
AcDbSymbolTableRecord
100
AcDbLayerTableRecord
  2
Shape3402
 70
    0
 62
    7
  6
CONTINUOUS
  0
LAYER
  5
D09
330
BAB
100
AcDbSymbolTableRecord
100
AcDbLayerTableRecord
  2
Shape3403
 70
    0
 62
    7
  6
CONTINUOUS
  0
LAYER
  5
D0A
330
BAB
100
AcDbSymbolTableRecord
100
AcDbLayerTableRecord
  2
Shape3404
 70
    0
 62
    7
  6
CONTINUOUS
  0
LAYER
  5
D0B
330
BAB
100
AcDbSymbolTableRecord
100
AcDbLayerTableRecord
  2
Shape3405
 70
    0
 62
    7
  6
CONTINUOUS
  0
LAYER
  5
D0C
330
BAB
100
AcDbSymbolTableRecord
100
AcDbLayerTableRecord
  2
Shape3406
 70
    0
 62
    7
  6
CONTINUOUS
  0
LAYER
  5
D0D
330
BAB
100
AcDbSymbolTableRecord
100
AcDbLayerTableRecord
  2
Shape3407
 70
    0
 62
    7
  6
CONTINUOUS
  0
LAYER
  5
D0E
330
BAB
100
AcDbSymbolTableRecord
100
AcDbLayerTableRecord
  2
Shape3408
 70
    0
 62
    7
  6
CONTINUOUS
  0
LAYER
  5
D0F
330
BAB
100
AcDbSymbolTableRecord
100
AcDbLayerTableRecord
  2
Shape3409
 70
    0
 62
    7
  6
CONTINUOUS
  0
LAYER
  5
D10
330
BAB
100
AcDbSymbolTableRecord
100
AcDbLayerTableRecord
  2
Shape3410
 70
    0
 62
    7
  6
CONTINUOUS
  0
LAYER
  5
D11
330
BAB
100
AcDbSymbolTableRecord
100
AcDbLayerTableRecord
  2
Shape3411
 70
    0
 62
    7
  6
CONTINUOUS
  0
LAYER
  5
D12
330
BAB
100
AcDbSymbolTableRecord
100
AcDbLayerTableRecord
  2
Shape3412
 70
    0
 62
    7
  6
CONTINUOUS
  0
LAYER
  5
D13
330
BAB
100
AcDbSymbolTableRecord
100
AcDbLayerTableRecord
  2
Shape3413
 70
    0
 62
    7
  6
CONTINUOUS
  0
LAYER
  5
D14
330
BAB
100
AcDbSymbolTableRecord
100
AcDbLayerTableRecord
  2
Shape3414
 70
    0
 62
    7
  6
CONTINUOUS
  0
LAYER
  5
D15
330
BAB
100
AcDbSymbolTableRecord
100
AcDbLayerTableRecord
  2
Shape3415
 70
    0
 62
    7
  6
CONTINUOUS
  0
LAYER
  5
D16
330
BAB
100
AcDbSymbolTableRecord
100
AcDbLayerTableRecord
  2
Shape3416
 70
    0
 62
    7
  6
CONTINUOUS
  0
LAYER
  5
D17
330
BAB
100
AcDbSymbolTableRecord
100
AcDbLayerTableRecord
  2
Shape3417
 70
    0
 62
    7
  6
CONTINUOUS
  0
LAYER
  5
D18
330
BAB
100
AcDbSymbolTableRecord
100
AcDbLayerTableRecord
  2
Shape3418
 70
    0
 62
    7
  6
CONTINUOUS
  0
LAYER
  5
D19
330
BAB
100
AcDbSymbolTableRecord
100
AcDbLayerTableRecord
  2
Shape3419
 70
    0
 62
    7
  6
CONTINUOUS
  0
LAYER
  5
D1A
330
BAB
100
AcDbSymbolTableRecord
100
AcDbLayerTableRecord
  2
Shape3420
 70
    0
 62
    7
  6
CONTINUOUS
  0
LAYER
  5
D1B
330
BAB
100
AcDbSymbolTableRecord
100
AcDbLayerTableRecord
  2
Shape3421
 70
    0
 62
    7
  6
CONTINUOUS
  0
LAYER
  5
D1C
330
BAB
100
AcDbSymbolTableRecord
100
AcDbLayerTableRecord
  2
Shape3422
 70
    0
 62
    7
  6
CONTINUOUS
  0
LAYER
  5
D1D
330
BAB
100
AcDbSymbolTableRecord
100
AcDbLayerTableRecord
  2
Shape3423
 70
    0
 62
    7
  6
CONTINUOUS
  0
LAYER
  5
D1E
330
BAB
100
AcDbSymbolTableRecord
100
AcDbLayerTableRecord
  2
Shape3424
 70
    0
 62
    7
  6
CONTINUOUS
  0
LAYER
  5
D1F
330
BAB
100
AcDbSymbolTableRecord
100
AcDbLayerTableRecord
  2
Shape3425
 70
    0
 62
    7
  6
CONTINUOUS
  0
LAYER
  5
D20
330
BAB
100
AcDbSymbolTableRecord
100
AcDbLayerTableRecord
  2
Shape3426
 70
    0
 62
    7
  6
CONTINUOUS
  0
LAYER
  5
D21
330
BAB
100
AcDbSymbolTableRecord
100
AcDbLayerTableRecord
  2
Shape3427
 70
    0
 62
    7
  6
CONTINUOUS
  0
LAYER
  5
D22
330
BAB
100
AcDbSymbolTableRecord
100
AcDbLayerTableRecord
  2
Shape3428
 70
    0
 62
    7
  6
CONTINUOUS
  0
LAYER
  5
D23
330
BAB
100
AcDbSymbolTableRecord
100
AcDbLayerTableRecord
  2
Shape3429
 70
    0
 62
    7
  6
CONTINUOUS
  0
LAYER
  5
D24
330
BAB
100
AcDbSymbolTableRecord
100
AcDbLayerTableRecord
  2
Shape3430
 70
    0
 62
    7
  6
CONTINUOUS
  0
LAYER
  5
D25
330
BAB
100
AcDbSymbolTableRecord
100
AcDbLayerTableRecord
  2
Shape3431
 70
    0
 62
    7
  6
CONTINUOUS
  0
LAYER
  5
D26
330
BAB
100
AcDbSymbolTableRecord
100
AcDbLayerTableRecord
  2
Shape3432
 70
    0
 62
    7
  6
CONTINUOUS
  0
LAYER
  5
D27
330
BAB
100
AcDbSymbolTableRecord
100
AcDbLayerTableRecord
  2
Shape3433
 70
    0
 62
    7
  6
CONTINUOUS
  0
LAYER
  5
D28
330
BAB
100
AcDbSymbolTableRecord
100
AcDbLayerTableRecord
  2
Shape3434
 70
    0
 62
    7
  6
CONTINUOUS
  0
LAYER
  5
D29
330
BAB
100
AcDbSymbolTableRecord
100
AcDbLayerTableRecord
  2
Shape3435
 70
    0
 62
    7
  6
CONTINUOUS
  0
LAYER
  5
D2A
330
BAB
100
AcDbSymbolTableRecord
100
AcDbLayerTableRecord
  2
Shape3436
 70
    0
 62
    7
  6
CONTINUOUS
  0
LAYER
  5
D2B
330
BAB
100
AcDbSymbolTableRecord
100
AcDbLayerTableRecord
  2
Shape3437
 70
    0
 62
    7
  6
CONTINUOUS
  0
LAYER
  5
D2C
330
BAB
100
AcDbSymbolTableRecord
100
AcDbLayerTableRecord
  2
Shape3438
 70
    0
 62
    7
  6
CONTINUOUS
  0
LAYER
  5
D2D
330
BAB
100
AcDbSymbolTableRecord
100
AcDbLayerTableRecord
  2
Shape3439
 70
    0
 62
    7
  6
CONTINUOUS
  0
LAYER
  5
D2E
330
BAB
100
AcDbSymbolTableRecord
100
AcDbLayerTableRecord
  2
Shape3440
 70
    0
 62
    7
  6
CONTINUOUS
  0
LAYER
  5
D2F
330
BAB
100
AcDbSymbolTableRecord
100
AcDbLayerTableRecord
  2
Shape3441
 70
    0
 62
    7
  6
CONTINUOUS
  0
LAYER
  5
D30
330
BAB
100
AcDbSymbolTableRecord
100
AcDbLayerTableRecord
  2
Shape3442
 70
    0
 62
    7
  6
CONTINUOUS
  0
LAYER
  5
D31
330
BAB
100
AcDbSymbolTableRecord
100
AcDbLayerTableRecord
  2
Shape3443
 70
    0
 62
    7
  6
CONTINUOUS
  0
LAYER
  5
D32
330
BAB
100
AcDbSymbolTableRecord
100
AcDbLayerTableRecord
  2
Shape3444
 70
    0
 62
    7
  6
CONTINUOUS
  0
LAYER
  5
D33
330
BAB
100
AcDbSymbolTableRecord
100
AcDbLayerTableRecord
  2
Shape3445
 70
    0
 62
    7
  6
CONTINUOUS
  0
LAYER
  5
D34
330
BAB
100
AcDbSymbolTableRecord
100
AcDbLayerTableRecord
  2
Shape3446
 70
    0
 62
    7
  6
CONTINUOUS
  0
LAYER
  5
D35
330
BAB
100
AcDbSymbolTableRecord
100
AcDbLayerTableRecord
  2
Shape3447
 70
    0
 62
    7
  6
CONTINUOUS
  0
LAYER
  5
D36
330
BAB
100
AcDbSymbolTableRecord
100
AcDbLayerTableRecord
  2
Shape3448
 70
    0
 62
    7
  6
CONTINUOUS
  0
LAYER
  5
D37
330
BAB
100
AcDbSymbolTableRecord
100
AcDbLayerTableRecord
  2
Shape3449
 70
    0
 62
    7
  6
CONTINUOUS
  0
LAYER
  5
D38
330
BAB
100
AcDbSymbolTableRecord
100
AcDbLayerTableRecord
  2
Shape3450
 70
    0
 62
    7
  6
CONTINUOUS
  0
LAYER
  5
D39
330
BAB
100
AcDbSymbolTableRecord
100
AcDbLayerTableRecord
  2
Shape3451
 70
    0
 62
    7
  6
CONTINUOUS
  0
LAYER
  5
D3A
330
BAB
100
AcDbSymbolTableRecord
100
AcDbLayerTableRecord
  2
Shape3452
 70
    0
 62
    7
  6
CONTINUOUS
  0
LAYER
  5
D3B
330
BAB
100
AcDbSymbolTableRecord
100
AcDbLayerTableRecord
  2
Shape3453
 70
    0
 62
    7
  6
CONTINUOUS
  0
LAYER
  5
D3C
330
BAB
100
AcDbSymbolTableRecord
100
AcDbLayerTableRecord
  2
Shape3454
 70
    0
 62
    7
  6
CONTINUOUS
  0
LAYER
  5
D3D
330
BAB
100
AcDbSymbolTableRecord
100
AcDbLayerTableRecord
  2
Shape3455
 70
    0
 62
    7
  6
CONTINUOUS
  0
LAYER
  5
D3E
330
BAB
100
AcDbSymbolTableRecord
100
AcDbLayerTableRecord
  2
Shape3456
 70
    0
 62
    7
  6
CONTINUOUS
  0
LAYER
  5
D3F
330
BAB
100
AcDbSymbolTableRecord
100
AcDbLayerTableRecord
  2
Shape3457
 70
    0
 62
    7
  6
CONTINUOUS
  0
LAYER
  5
D40
330
BAB
100
AcDbSymbolTableRecord
100
AcDbLayerTableRecord
  2
Shape3458
 70
    0
 62
    7
  6
CONTINUOUS
  0
LAYER
  5
D41
330
BAB
100
AcDbSymbolTableRecord
100
AcDbLayerTableRecord
  2
Shape3459
 70
    0
 62
    7
  6
CONTINUOUS
  0
LAYER
  5
D42
330
BAB
100
AcDbSymbolTableRecord
100
AcDbLayerTableRecord
  2
Shape3460
 70
    0
 62
    7
  6
CONTINUOUS
  0
LAYER
  5
D43
330
BAB
100
AcDbSymbolTableRecord
100
AcDbLayerTableRecord
  2
Shape3461
 70
    0
 62
    7
  6
CONTINUOUS
  0
LAYER
  5
D44
330
BAB
100
AcDbSymbolTableRecord
100
AcDbLayerTableRecord
  2
Shape3462
 70
    0
 62
    7
  6
CONTINUOUS
  0
LAYER
  5
D45
330
BAB
100
AcDbSymbolTableRecord
100
AcDbLayerTableRecord
  2
Shape3463
 70
    0
 62
    7
  6
CONTINUOUS
  0
LAYER
  5
D46
330
BAB
100
AcDbSymbolTableRecord
100
AcDbLayerTableRecord
  2
Shape3464
 70
    0
 62
    7
  6
CONTINUOUS
  0
LAYER
  5
D47
330
BAB
100
AcDbSymbolTableRecord
100
AcDbLayerTableRecord
  2
Shape3465
 70
    0
 62
    7
  6
CONTINUOUS
  0
LAYER
  5
D48
330
BAB
100
AcDbSymbolTableRecord
100
AcDbLayerTableRecord
  2
Shape3466
 70
    0
 62
    7
  6
CONTINUOUS
  0
LAYER
  5
D49
330
BAB
100
AcDbSymbolTableRecord
100
AcDbLayerTableRecord
  2
Shape3467
 70
    0
 62
    7
  6
CONTINUOUS
  0
LAYER
  5
D4A
330
BAB
100
AcDbSymbolTableRecord
100
AcDbLayerTableRecord
  2
Shape3468
 70
    0
 62
    7
  6
CONTINUOUS
  0
LAYER
  5
D4B
330
BAB
100
AcDbSymbolTableRecord
100
AcDbLayerTableRecord
  2
Shape3469
 70
    0
 62
    7
  6
CONTINUOUS
  0
LAYER
  5
D4C
330
BAB
100
AcDbSymbolTableRecord
100
AcDbLayerTableRecord
  2
Shape3470
 70
    0
 62
    7
  6
CONTINUOUS
  0
LAYER
  5
D4D
330
BAB
100
AcDbSymbolTableRecord
100
AcDbLayerTableRecord
  2
Shape3471
 70
    0
 62
    7
  6
CONTINUOUS
  0
LAYER
  5
D4E
330
BAB
100
AcDbSymbolTableRecord
100
AcDbLayerTableRecord
  2
Shape3472
 70
    0
 62
    7
  6
CONTINUOUS
  0
LAYER
  5
D4F
330
BAB
100
AcDbSymbolTableRecord
100
AcDbLayerTableRecord
  2
Shape3473
 70
    0
 62
    7
  6
CONTINUOUS
  0
LAYER
  5
D50
330
BAB
100
AcDbSymbolTableRecord
100
AcDbLayerTableRecord
  2
Shape12728
 70
    0
 62
    7
  6
CONTINUOUS
  0
ENDTAB
  0
TABLE
  2
STYLE
  5
70
330
0
100
AcDbSymbolTable
 70
     2
  0
STYLE
  5
71
330
70
100
AcDbSymbolTableRecord
100
AcDbTextStyleTableRecord
  2
STANDARD
 70
     0
 40
0.0
 41
1.0
 50
0.0
 71
     0
 42
2.5
  3
arial.ttf
  4

  0
STYLE
  5
72
330
70
100
AcDbSymbolTableRecord
100
AcDbTextStyleTableRecord
  2
ANNOTATIVE
 70
     0
 40
0.0
 41
1.0
 50
0.0
 71
     0
 42
2.5
  3
arial.ttf
  4

  0
ENDTAB
  0
TABLE
  2
VIEW
  5
73
330
0
100
AcDbSymbolTable
 70
     0
  0
ENDTAB
  0
TABLE
  2
UCS
  5
74
330
0
100
AcDbSymbolTable
 70
     0
  0
ENDTAB
  0
TABLE
  2
APPID
  5
75
330
0
100
AcDbSymbolTable
 70
     2
  0
APPID
  5
76
330
75
100
AcDbSymbolTableRecord
100
AcDbRegAppTableRecord
  2
ACAD
 70
     0
  0
APPID
  5
77
330
75
100
AcDbSymbolTableRecord
100
AcDbRegAppTableRecord
  2
ACADANNOTATIVE
 70
     0
  0
ENDTAB
  0
TABLE
  2
DIMSTYLE
  5
78
330
0
100
AcDbSymbolTable
 70
     2
  0
DIMSTYLE
105
79
330
78
100
AcDbSymbolTableRecord
100
AcDbDimStyleTableRecord
  2
STANDARD
 70
     0
  3

  4

  5

  6

  7

 40
0.0
 41
2.5
 42
0.625
 43
3.75
 44
1.25
 45
0.0
 46
0.0
 47
0.0
 48
0.0
140
2.5
141
2.5
142
0.0
143
0.03937007874016
144
1.0
145
0.0
146
1.0
147
0.625
 71
     0
 72
     0
 73
     0
 74
     0
 75
     0
 76
     0
 77
     1
 78
     8
170
     0
171
     3
172
     1
173
     0
174
     0
175
     0
176
     0
177
     0
178
     0
270
     2
271
     2
272
     2
273
     2
274
     3
340
71
275
     0
280
     0
281
     0
282
     0
283
     0
284
     8
285
     0
286
     0
287
     3
288
     0
  0
ENDTAB
  0
TABLE
  2
BLOCK_RECORD
  5
A01
330
0
100
AcDbSymbolTable
  70
5
  0
BLOCK_RECORD
  5
A02
330
A01
100
AcDbSymbolTableRecord
100
AcDbBlockTableRecord
  2
*MODEL_SPACE
  0
BLOCK_RECORD
  5
A03
330
A01
100
AcDbSymbolTableRecord
100
AcDbBlockTableRecord
  2
*PAPER_SPACE
  0
ENDTAB
  0
ENDSEC
  0
SECTION
  2
BLOCKS
  0
BLOCK
  5
A04
330
A02
100
AcDbEntity
  8
0
100
AcDbBlockBegin
  2
*MODEL_SPACE
 70
   0
 10
0
 20
0
 30
0
  3
*MODEL_SPACE
  1
 
  0
ENDBLK
  5
A05
330
A02
100
AcDbEntity
  8
0
100
AcDbBlockEnd
  0
BLOCK
  5
A06
330
A03
100
AcDbEntity
 67
1
  8
0
100
AcDbBlockBegin
  2
*PAPER_SPACE
 70
   0
 10
0
 20
0
 30
0
  3
*PAPER_SPACE
  1
 
  0
ENDBLK
  5
A07
330
A03
100
AcDbEntity
 67
    1
  8
0
100
AcDbBlockEnd
  0
ENDSEC
  0
SECTION
  2
ENTITIES
  0
LINE
  5
A08
330
A02
100
AcDbEntity
  8
Shape1118
100
AcDbLine
 10
-273.507
 20
-139.295
 30
0
 11
-273.507
 21
-134.045
 31
0
  0
ARC
  5
A09
330
A02
100
AcDbEntity
  8
Shape1119
100
AcDbCircle
 10
-274.007
 20
-134.045
 30
0
 40
0.5
100
AcDbArc
 50
0
 51
180
  0
LINE
  5
A0A
330
A02
100
AcDbEntity
  8
Shape1120
100
AcDbLine
 10
-274.507
 20
-134.045
 30
0
 11
-274.507
 21
-138.045
 31
0
  0
ARC
  5
A0B
330
A02
100
AcDbEntity
  8
Shape1121
100
AcDbCircle
 10
-276.507
 20
-138.045
 30
0
 40
2
100
AcDbArc
 50
180
 51
0
  0
LINE
  5
A0C
330
A02
100
AcDbEntity
  8
Shape1122
100
AcDbLine
 10
-278.507
 20
-138.045
 30
0
 11
-278.507
 21
-134.045
 31
0
  0
ARC
  5
A0D
330
A02
100
AcDbEntity
  8
Shape1123
100
AcDbCircle
 10
-279.007
 20
-134.045
 30
0
 40
0.5
100
AcDbArc
 50
0
 51
180
  0
LINE
  5
A0E
330
A02
100
AcDbEntity
  8
Shape1124
100
AcDbLine
 10
-279.507
 20
-134.045
 30
0
 11
-279.507
 21
-139.295
 31
0
  0
LINE
  5
A0F
330
A02
100
AcDbEntity
  8
Shape1125
100
AcDbLine
 10
-279.507
 20
-139.295
 30
0
 11
-297.507
 21
-139.295
 31
0
  0
ARC
  5
A10
330
A02
100
AcDbEntity
  8
Shape1126
100
AcDbCircle
 10
-297.507
 20
-138.295
 30
0
 40
1
100
AcDbArc
 50
180
 51
-90
  0
LINE
  5
A11
330
A02
100
AcDbEntity
  8
Shape1127
100
AcDbLine
 10
-298.507
 20
-138.295
 30
0
 11
-298.507
 21
-136.795
 31
0
  0
ARC
  5
A12
330
A02
100
AcDbEntity
  8
Shape1128
100
AcDbCircle
 10
-297.507
 20
-136.795
 30
0
 40
1
100
AcDbArc
 50
90
 51
180
  0
LINE
  5
A13
330
A02
100
AcDbEntity
  8
Shape1129
100
AcDbLine
 10
-297.507
 20
-135.795
 30
0
 11
-287.007
 21
-135.795
 31
0
  0
ARC
  5
A14
330
A02
100
AcDbEntity
  8
Shape1130
100
AcDbCircle
 10
-287.007
 20
-135.295
 30
0
 40
0.5
100
AcDbArc
 50
-90
 51
0
  0
LINE
  5
A15
330
A02
100
AcDbEntity
  8
Shape1131
100
AcDbLine
 10
-286.507
 20
-135.295
 30
0
 11
-286.507
 21
-135.046
 31
0
  0
ARC
  5
A16
330
A02
100
AcDbEntity
  8
Shape1132
100
AcDbCircle
 10
-287.007
 20
-135.046
 30
0
 40
0.5
100
AcDbArc
 50
0
 51
90
  0
LINE
  5
A17
330
A02
100
AcDbEntity
  8
Shape1133
100
AcDbLine
 10
-287.007
 20
-134.546
 30
0
 11
-356.007
 21
-134.546
 31
0
  0
ARC
  5
A18
330
A02
100
AcDbEntity
  8
Shape1134
100
AcDbCircle
 10
-356.007
 20
-135.046
 30
0
 40
0.5
100
AcDbArc
 50
90
 51
180
  0
LINE
  5
A19
330
A02
100
AcDbEntity
  8
Shape1135
100
AcDbLine
 10
-356.507
 20
-135.046
 30
0
 11
-356.507
 21
-135.295
 31
0
  0
ARC
  5
A1A
330
A02
100
AcDbEntity
  8
Shape1136
100
AcDbCircle
 10
-356.007
 20
-135.295
 30
0
 40
0.5
100
AcDbArc
 50
180
 51
-90
  0
LINE
  5
A1B
330
A02
100
AcDbEntity
  8
Shape1137
100
AcDbLine
 10
-356.007
 20
-135.795
 30
0
 11
-345.507
 21
-135.795
 31
0
  0
ARC
  5
A1C
330
A02
100
AcDbEntity
  8
Shape1138
100
AcDbCircle
 10
-345.507
 20
-136.795
 30
0
 40
1
100
AcDbArc
 50
0
 51
90
  0
LINE
  5
A1D
330
A02
100
AcDbEntity
  8
Shape1139
100
AcDbLine
 10
-344.507
 20
-136.795
 30
0
 11
-344.507
 21
-138.295
 31
0
  0
ARC
  5
A1E
330
A02
100
AcDbEntity
  8
Shape1140
100
AcDbCircle
 10
-345.507
 20
-138.295
 30
0
 40
1
100
AcDbArc
 50
-90
 51
0
  0
LINE
  5
A1F
330
A02
100
AcDbEntity
  8
Shape1141
100
AcDbLine
 10
-345.507
 20
-139.295
 30
0
 11
-363.507
 21
-139.295
 31
0
  0
LINE
  5
A20
330
A02
100
AcDbEntity
  8
Shape1142
100
AcDbLine
 10
-363.507
 20
-139.295
 30
0
 11
-363.507
 21
-134.045
 31
0
  0
ARC
  5
A21
330
A02
100
AcDbEntity
  8
Shape1143
100
AcDbCircle
 10
-364.007
 20
-134.045
 30
0
 40
0.5
100
AcDbArc
 50
0
 51
180
  0
LINE
  5
A22
330
A02
100
AcDbEntity
  8
Shape1144
100
AcDbLine
 10
-364.507
 20
-134.045
 30
0
 11
-364.507
 21
-138.045
 31
0
  0
ARC
  5
A23
330
A02
100
AcDbEntity
  8
Shape1145
100
AcDbCircle
 10
-366.507
 20
-138.045
 30
0
 40
2
100
AcDbArc
 50
180
 51
0
  0
LINE
  5
A24
330
A02
100
AcDbEntity
  8
Shape1146
100
AcDbLine
 10
-368.507
 20
-138.045
 30
0
 11
-368.507
 21
-134.045
 31
0
  0
ARC
  5
A25
330
A02
100
AcDbEntity
  8
Shape1147
100
AcDbCircle
 10
-369.007
 20
-134.045
 30
0
 40
0.5
100
AcDbArc
 50
0
 51
180
  0
LINE
  5
A26
330
A02
100
AcDbEntity
  8
Shape1148
100
AcDbLine
 10
-369.507
 20
-134.045
 30
0
 11
-369.507
 21
-139.295
 31
0
  0
LINE
  5
A27
330
A02
100
AcDbEntity
  8
Shape1149
100
AcDbLine
 10
-369.507
 20
-139.295
 30
0
 11
-387.507
 21
-139.295
 31
0
  0
ARC
  5
A28
330
A02
100
AcDbEntity
  8
Shape1150
100
AcDbCircle
 10
-387.507
 20
-138.295
 30
0
 40
1
100
AcDbArc
 50
180
 51
-90
  0
LINE
  5
A29
330
A02
100
AcDbEntity
  8
Shape1151
100
AcDbLine
 10
-388.507
 20
-138.295
 30
0
 11
-388.507
 21
-136.795
 31
0
  0
ARC
  5
A2A
330
A02
100
AcDbEntity
  8
Shape1152
100
AcDbCircle
 10
-387.507
 20
-136.795
 30
0
 40
1
100
AcDbArc
 50
90
 51
180
  0
LINE
  5
A2B
330
A02
100
AcDbEntity
  8
Shape1153
100
AcDbLine
 10
-387.507
 20
-135.795
 30
0
 11
-377.007
 21
-135.795
 31
0
  0
ARC
  5
A2C
330
A02
100
AcDbEntity
  8
Shape1154
100
AcDbCircle
 10
-377.007
 20
-135.295
 30
0
 40
0.5
100
AcDbArc
 50
-90
 51
0
  0
LINE
  5
A2D
330
A02
100
AcDbEntity
  8
Shape1155
100
AcDbLine
 10
-376.507
 20
-135.295
 30
0
 11
-376.507
 21
-135.046
 31
0
  0
ARC
  5
A2E
330
A02
100
AcDbEntity
  8
Shape1156
100
AcDbCircle
 10
-377.007
 20
-135.046
 30
0
 40
0.5
100
AcDbArc
 50
0
 51
90
  0
LINE
  5
A2F
330
A02
100
AcDbEntity
  8
Shape1157
100
AcDbLine
 10
-377.007
 20
-134.546
 30
0
 11
-446.007
 21
-134.546
 31
0
  0
ARC
  5
A30
330
A02
100
AcDbEntity
  8
Shape1158
100
AcDbCircle
 10
-446.007
 20
-135.046
 30
0
 40
0.5
100
AcDbArc
 50
90
 51
180
  0
LINE
  5
A31
330
A02
100
AcDbEntity
  8
Shape1159
100
AcDbLine
 10
-446.507
 20
-135.046
 30
0
 11
-446.507
 21
-135.295
 31
0
  0
ARC
  5
A32
330
A02
100
AcDbEntity
  8
Shape1160
100
AcDbCircle
 10
-446.007
 20
-135.295
 30
0
 40
0.5
100
AcDbArc
 50
180
 51
-90
  0
LINE
  5
A33
330
A02
100
AcDbEntity
  8
Shape1161
100
AcDbLine
 10
-446.007
 20
-135.795
 30
0
 11
-435.507
 21
-135.795
 31
0
  0
ARC
  5
A34
330
A02
100
AcDbEntity
  8
Shape1162
100
AcDbCircle
 10
-435.507
 20
-136.795
 30
0
 40
1
100
AcDbArc
 50
0
 51
90
  0
LINE
  5
A35
330
A02
100
AcDbEntity
  8
Shape1163
100
AcDbLine
 10
-434.507
 20
-136.795
 30
0
 11
-434.507
 21
-138.295
 31
0
  0
ARC
  5
A36
330
A02
100
AcDbEntity
  8
Shape1164
100
AcDbCircle
 10
-435.507
 20
-138.295
 30
0
 40
1
100
AcDbArc
 50
-90
 51
0
  0
LINE
  5
A37
330
A02
100
AcDbEntity
  8
Shape1165
100
AcDbLine
 10
-435.507
 20
-139.295
 30
0
 11
-453.507
 21
-139.295
 31
0
  0
LINE
  5
A38
330
A02
100
AcDbEntity
  8
Shape1166
100
AcDbLine
 10
-453.507
 20
-139.295
 30
0
 11
-453.507
 21
-134.045
 31
0
  0
ARC
  5
A39
330
A02
100
AcDbEntity
  8
Shape1167
100
AcDbCircle
 10
-454.007
 20
-134.045
 30
0
 40
0.5
100
AcDbArc
 50
0
 51
180
  0
LINE
  5
A3A
330
A02
100
AcDbEntity
  8
Shape1168
100
AcDbLine
 10
-454.507
 20
-134.045
 30
0
 11
-454.507
 21
-138.045
 31
0
  0
ARC
  5
A3B
330
A02
100
AcDbEntity
  8
Shape1169
100
AcDbCircle
 10
-456.507
 20
-138.045
 30
0
 40
2
100
AcDbArc
 50
180
 51
0
  0
LINE
  5
A3C
330
A02
100
AcDbEntity
  8
Shape1170
100
AcDbLine
 10
-458.507
 20
-138.045
 30
0
 11
-458.507
 21
-134.045
 31
0
  0
ARC
  5
A3D
330
A02
100
AcDbEntity
  8
Shape1171
100
AcDbCircle
 10
-459.007
 20
-134.045
 30
0
 40
0.5
100
AcDbArc
 50
0
 51
180
  0
LINE
  5
A3E
330
A02
100
AcDbEntity
  8
Shape1172
100
AcDbLine
 10
-459.507
 20
-134.045
 30
0
 11
-459.507
 21
-139.295
 31
0
  0
LINE
  5
A3F
330
A02
100
AcDbEntity
  8
Shape1173
100
AcDbLine
 10
-459.507
 20
-139.295
 30
0
 11
-477.507
 21
-139.295
 31
0
  0
ARC
  5
A40
330
A02
100
AcDbEntity
  8
Shape1174
100
AcDbCircle
 10
-477.507
 20
-138.295
 30
0
 40
1
100
AcDbArc
 50
180
 51
-90
  0
LINE
  5
A41
330
A02
100
AcDbEntity
  8
Shape1175
100
AcDbLine
 10
-478.507
 20
-138.295
 30
0
 11
-478.507
 21
-136.795
 31
0
  0
ARC
  5
A42
330
A02
100
AcDbEntity
  8
Shape1176
100
AcDbCircle
 10
-477.507
 20
-136.795
 30
0
 40
1
100
AcDbArc
 50
90
 51
180
  0
LINE
  5
A43
330
A02
100
AcDbEntity
  8
Shape1177
100
AcDbLine
 10
-477.507
 20
-135.795
 30
0
 11
-467.007
 21
-135.795
 31
0
  0
ARC
  5
A44
330
A02
100
AcDbEntity
  8
Shape1178
100
AcDbCircle
 10
-467.007
 20
-135.295
 30
0
 40
0.5
100
AcDbArc
 50
-90
 51
0
  0
LINE
  5
A45
330
A02
100
AcDbEntity
  8
Shape1179
100
AcDbLine
 10
-466.507
 20
-135.295
 30
0
 11
-466.507
 21
-135.046
 31
0
  0
ARC
  5
A46
330
A02
100
AcDbEntity
  8
Shape1180
100
AcDbCircle
 10
-467.007
 20
-135.046
 30
0
 40
0.5
100
AcDbArc
 50
0
 51
90
  0
LINE
  5
A47
330
A02
100
AcDbEntity
  8
Shape1181
100
AcDbLine
 10
-467.007
 20
-134.546
 30
0
 11
-488.332
 21
-134.546
 31
0
  0
ARC
  5
A48
330
A02
100
AcDbEntity
  8
Shape1182
100
AcDbCircle
 10
-488.332
 20
-132.546
 30
0
 40
2
100
AcDbArc
 50
180
 51
-90
  0
LINE
  5
A49
330
A02
100
AcDbEntity
  8
Shape1183
100
AcDbLine
 10
-490.332
 20
-132.546
 30
0
 11
-490.332
 21
-60.1455
 31
0
  0
ARC
  5
A4A
330
A02
100
AcDbEntity
  8
Shape1184
100
AcDbCircle
 10
-488.332
 20
-60.1455
 30
0
 40
2
100
AcDbArc
 50
90
 51
180
  0
LINE
  5
A4B
330
A02
100
AcDbEntity
  8
Shape1185
100
AcDbLine
 10
-488.332
 20
-58.1455
 30
0
 11
-467.007
 21
-58.1455
 31
0
  0
ARC
  5
A4C
330
A02
100
AcDbEntity
  8
Shape1186
100
AcDbCircle
 10
-467.007
 20
-57.6455
 30
0
 40
0.5
100
AcDbArc
 50
-90
 51
0
  0
LINE
  5
A4D
330
A02
100
AcDbEntity
  8
Shape1187
100
AcDbLine
 10
-466.507
 20
-57.6455
 30
0
 11
-466.507
 21
-57.3964
 31
0
  0
ARC
  5
A4E
330
A02
100
AcDbEntity
  8
Shape1188
100
AcDbCircle
 10
-467.007
 20
-57.3964
 30
0
 40
0.5
100
AcDbArc
 50
0
 51
90
  0
LINE
  5
A4F
330
A02
100
AcDbEntity
  8
Shape1189
100
AcDbLine
 10
-467.007
 20
-56.8964
 30
0
 11
-477.507
 21
-56.8964
 31
0
  0
ARC
  5
A50
330
A02
100
AcDbEntity
  8
Shape1190
100
AcDbCircle
 10
-477.507
 20
-55.8964
 30
0
 40
1
100
AcDbArc
 50
180
 51
-90
  0
LINE
  5
A51
330
A02
100
AcDbEntity
  8
Shape1191
100
AcDbLine
 10
-478.507
 20
-55.8964
 30
0
 11
-478.507
 21
-54.3964
 31
0
  0
ARC
  5
A52
330
A02
100
AcDbEntity
  8
Shape1192
100
AcDbCircle
 10
-477.507
 20
-54.3964
 30
0
 40
1
100
AcDbArc
 50
90
 51
180
  0
LINE
  5
A53
330
A02
100
AcDbEntity
  8
Shape1193
100
AcDbLine
 10
-477.507
 20
-53.3964
 30
0
 11
-459.507
 21
-53.3964
 31
0
  0
LINE
  5
A54
330
A02
100
AcDbEntity
  8
Shape1194
100
AcDbLine
 10
-459.507
 20
-53.3964
 30
0
 11
-459.507
 21
-58.6464
 31
0
  0
ARC
  5
A55
330
A02
100
AcDbEntity
  8
Shape1195
100
AcDbCircle
 10
-459.007
 20
-58.6464
 30
0
 40
0.5
100
AcDbArc
 50
180
 51
0
  0
LINE
  5
A56
330
A02
100
AcDbEntity
  8
Shape1196
100
AcDbLine
 10
-458.507
 20
-58.6464
 30
0
 11
-458.507
 21
-54.6464
 31
0
  0
ARC
  5
A57
330
A02
100
AcDbEntity
  8
Shape1197
100
AcDbCircle
 10
-456.507
 20
-54.6464
 30
0
 40
2
100
AcDbArc
 50
0
 51
180
  0
LINE
  5
A58
330
A02
100
AcDbEntity
  8
Shape1198
100
AcDbLine
 10
-454.507
 20
-54.6464
 30
0
 11
-454.507
 21
-58.6464
 31
0
  0
ARC
  5
A59
330
A02
100
AcDbEntity
  8
Shape1199
100
AcDbCircle
 10
-454.007
 20
-58.6464
 30
0
 40
0.5
100
AcDbArc
 50
180
 51
0
  0
LINE
  5
A5A
330
A02
100
AcDbEntity
  8
Shape1200
100
AcDbLine
 10
-453.507
 20
-58.6464
 30
0
 11
-453.507
 21
-53.3964
 31
0
  0
LINE
  5
A5B
330
A02
100
AcDbEntity
  8
Shape1201
100
AcDbLine
 10
-453.507
 20
-53.3964
 30
0
 11
-435.507
 21
-53.3964
 31
0
  0
ARC
  5
A5C
330
A02
100
AcDbEntity
  8
Shape1202
100
AcDbCircle
 10
-435.507
 20
-54.3964
 30
0
 40
1
100
AcDbArc
 50
0
 51
90
  0
LINE
  5
A5D
330
A02
100
AcDbEntity
  8
Shape1203
100
AcDbLine
 10
-434.507
 20
-54.3964
 30
0
 11
-434.507
 21
-55.8964
 31
0
  0
ARC
  5
A5E
330
A02
100
AcDbEntity
  8
Shape1204
100
AcDbCircle
 10
-435.507
 20
-55.8964
 30
0
 40
1
100
AcDbArc
 50
-90
 51
0
  0
LINE
  5
A5F
330
A02
100
AcDbEntity
  8
Shape1205
100
AcDbLine
 10
-435.507
 20
-56.8964
 30
0
 11
-446.007
 21
-56.8964
 31
0
  0
ARC
  5
A60
330
A02
100
AcDbEntity
  8
Shape1206
100
AcDbCircle
 10
-446.007
 20
-57.3964
 30
0
 40
0.5
100
AcDbArc
 50
90
 51
180
  0
LINE
  5
A61
330
A02
100
AcDbEntity
  8
Shape1207
100
AcDbLine
 10
-446.507
 20
-57.3964
 30
0
 11
-446.507
 21
-57.6455
 31
0
  0
ARC
  5
A62
330
A02
100
AcDbEntity
  8
Shape1208
100
AcDbCircle
 10
-446.007
 20
-57.6455
 30
0
 40
0.5
100
AcDbArc
 50
180
 51
-90
  0
LINE
  5
A63
330
A02
100
AcDbEntity
  8
Shape1209
100
AcDbLine
 10
-446.007
 20
-58.1455
 30
0
 11
-377.007
 21
-58.1455
 31
0
  0
ARC
  5
A64
330
A02
100
AcDbEntity
  8
Shape1210
100
AcDbCircle
 10
-377.007
 20
-57.6455
 30
0
 40
0.5
100
AcDbArc
 50
-90
 51
0
  0
LINE
  5
A65
330
A02
100
AcDbEntity
  8
Shape1211
100
AcDbLine
 10
-376.507
 20
-57.6455
 30
0
 11
-376.507
 21
-57.3964
 31
0
  0
ARC
  5
A66
330
A02
100
AcDbEntity
  8
Shape1212
100
AcDbCircle
 10
-377.007
 20
-57.3964
 30
0
 40
0.5
100
AcDbArc
 50
0
 51
90
  0
LINE
  5
A67
330
A02
100
AcDbEntity
  8
Shape1213
100
AcDbLine
 10
-377.007
 20
-56.8964
 30
0
 11
-387.507
 21
-56.8964
 31
0
  0
ARC
  5
A68
330
A02
100
AcDbEntity
  8
Shape1214
100
AcDbCircle
 10
-387.507
 20
-55.8964
 30
0
 40
1
100
AcDbArc
 50
180
 51
-90
  0
LINE
  5
A69
330
A02
100
AcDbEntity
  8
Shape1215
100
AcDbLine
 10
-388.507
 20
-55.8964
 30
0
 11
-388.507
 21
-54.3964
 31
0
  0
ARC
  5
A6A
330
A02
100
AcDbEntity
  8
Shape1216
100
AcDbCircle
 10
-387.507
 20
-54.3964
 30
0
 40
1
100
AcDbArc
 50
90
 51
180
  0
LINE
  5
A6B
330
A02
100
AcDbEntity
  8
Shape1217
100
AcDbLine
 10
-387.507
 20
-53.3964
 30
0
 11
-369.507
 21
-53.3964
 31
0
  0
LINE
  5
A6C
330
A02
100
AcDbEntity
  8
Shape1218
100
AcDbLine
 10
-369.507
 20
-53.3964
 30
0
 11
-369.507
 21
-58.6464
 31
0
  0
ARC
  5
A6D
330
A02
100
AcDbEntity
  8
Shape1219
100
AcDbCircle
 10
-369.007
 20
-58.6464
 30
0
 40
0.5
100
AcDbArc
 50
180
 51
0
  0
LINE
  5
A6E
330
A02
100
AcDbEntity
  8
Shape1220
100
AcDbLine
 10
-368.507
 20
-58.6464
 30
0
 11
-368.507
 21
-54.6464
 31
0
  0
ARC
  5
A6F
330
A02
100
AcDbEntity
  8
Shape1221
100
AcDbCircle
 10
-366.507
 20
-54.6464
 30
0
 40
2
100
AcDbArc
 50
0
 51
180
  0
LINE
  5
A70
330
A02
100
AcDbEntity
  8
Shape1222
100
AcDbLine
 10
-364.507
 20
-54.6464
 30
0
 11
-364.507
 21
-58.6464
 31
0
  0
ARC
  5
A71
330
A02
100
AcDbEntity
  8
Shape1223
100
AcDbCircle
 10
-364.007
 20
-58.6464
 30
0
 40
0.5
100
AcDbArc
 50
180
 51
0
  0
LINE
  5
A72
330
A02
100
AcDbEntity
  8
Shape1224
100
AcDbLine
 10
-363.507
 20
-58.6464
 30
0
 11
-363.507
 21
-53.3964
 31
0
  0
LINE
  5
A73
330
A02
100
AcDbEntity
  8
Shape1225
100
AcDbLine
 10
-363.507
 20
-53.3964
 30
0
 11
-345.507
 21
-53.3964
 31
0
  0
ARC
  5
A74
330
A02
100
AcDbEntity
  8
Shape1226
100
AcDbCircle
 10
-345.507
 20
-54.3964
 30
0
 40
1
100
AcDbArc
 50
0
 51
90
  0
LINE
  5
A75
330
A02
100
AcDbEntity
  8
Shape1227
100
AcDbLine
 10
-344.507
 20
-54.3964
 30
0
 11
-344.507
 21
-55.8964
 31
0
  0
ARC
  5
A76
330
A02
100
AcDbEntity
  8
Shape1228
100
AcDbCircle
 10
-345.507
 20
-55.8964
 30
0
 40
1
100
AcDbArc
 50
-90
 51
0
  0
LINE
  5
A77
330
A02
100
AcDbEntity
  8
Shape1229
100
AcDbLine
 10
-345.507
 20
-56.8964
 30
0
 11
-356.007
 21
-56.8964
 31
0
  0
ARC
  5
A78
330
A02
100
AcDbEntity
  8
Shape1230
100
AcDbCircle
 10
-356.007
 20
-57.3964
 30
0
 40
0.5
100
AcDbArc
 50
90
 51
180
  0
LINE
  5
A79
330
A02
100
AcDbEntity
  8
Shape1231
100
AcDbLine
 10
-356.507
 20
-57.3964
 30
0
 11
-356.507
 21
-57.6455
 31
0
  0
ARC
  5
A7A
330
A02
100
AcDbEntity
  8
Shape1232
100
AcDbCircle
 10
-356.007
 20
-57.6455
 30
0
 40
0.5
100
AcDbArc
 50
180
 51
-90
  0
LINE
  5
A7B
330
A02
100
AcDbEntity
  8
Shape1233
100
AcDbLine
 10
-356.007
 20
-58.1455
 30
0
 11
-287.007
 21
-58.1455
 31
0
  0
ARC
  5
A7C
330
A02
100
AcDbEntity
  8
Shape1234
100
AcDbCircle
 10
-287.007
 20
-57.6455
 30
0
 40
0.5
100
AcDbArc
 50
-90
 51
0
  0
LINE
  5
A7D
330
A02
100
AcDbEntity
  8
Shape1235
100
AcDbLine
 10
-286.507
 20
-57.6455
 30
0
 11
-286.507
 21
-57.3964
 31
0
  0
ARC
  5
A7E
330
A02
100
AcDbEntity
  8
Shape1236
100
AcDbCircle
 10
-287.007
 20
-57.3964
 30
0
 40
0.5
100
AcDbArc
 50
0
 51
90
  0
LINE
  5
A7F
330
A02
100
AcDbEntity
  8
Shape1237
100
AcDbLine
 10
-287.007
 20
-56.8964
 30
0
 11
-297.507
 21
-56.8964
 31
0
  0
ARC
  5
A80
330
A02
100
AcDbEntity
  8
Shape1238
100
AcDbCircle
 10
-297.507
 20
-55.8964
 30
0
 40
1
100
AcDbArc
 50
180
 51
-90
  0
LINE
  5
A81
330
A02
100
AcDbEntity
  8
Shape1239
100
AcDbLine
 10
-298.507
 20
-55.8964
 30
0
 11
-298.507
 21
-54.3964
 31
0
  0
ARC
  5
A82
330
A02
100
AcDbEntity
  8
Shape1240
100
AcDbCircle
 10
-297.507
 20
-54.3964
 30
0
 40
1
100
AcDbArc
 50
90
 51
180
  0
LINE
  5
A83
330
A02
100
AcDbEntity
  8
Shape1241
100
AcDbLine
 10
-297.507
 20
-53.3964
 30
0
 11
-279.507
 21
-53.3964
 31
0
  0
LINE
  5
A84
330
A02
100
AcDbEntity
  8
Shape1242
100
AcDbLine
 10
-279.507
 20
-53.3964
 30
0
 11
-279.507
 21
-58.6464
 31
0
  0
ARC
  5
A85
330
A02
100
AcDbEntity
  8
Shape1243
100
AcDbCircle
 10
-279.007
 20
-58.6464
 30
0
 40
0.5
100
AcDbArc
 50
180
 51
0
  0
LINE
  5
A86
330
A02
100
AcDbEntity
  8
Shape1244
100
AcDbLine
 10
-278.507
 20
-58.6464
 30
0
 11
-278.507
 21
-54.6464
 31
0
  0
ARC
  5
A87
330
A02
100
AcDbEntity
  8
Shape1245
100
AcDbCircle
 10
-276.507
 20
-54.6464
 30
0
 40
2
100
AcDbArc
 50
0
 51
180
  0
LINE
  5
A88
330
A02
100
AcDbEntity
  8
Shape1246
100
AcDbLine
 10
-274.507
 20
-54.6464
 30
0
 11
-274.507
 21
-58.6464
 31
0
  0
ARC
  5
A89
330
A02
100
AcDbEntity
  8
Shape1247
100
AcDbCircle
 10
-274.007
 20
-58.6464
 30
0
 40
0.5
100
AcDbArc
 50
180
 51
0
  0
LINE
  5
A8A
330
A02
100
AcDbEntity
  8
Shape1248
100
AcDbLine
 10
-273.507
 20
-58.6464
 30
0
 11
-273.507
 21
-53.3964
 31
0
  0
LINE
  5
A8B
330
A02
100
AcDbEntity
  8
Shape1249
100
AcDbLine
 10
-273.507
 20
-53.3964
 30
0
 11
-255.507
 21
-53.3964
 31
0
  0
ARC
  5
A8C
330
A02
100
AcDbEntity
  8
Shape1250
100
AcDbCircle
 10
-255.507
 20
-54.3964
 30
0
 40
1
100
AcDbArc
 50
0
 51
90
  0
LINE
  5
A8D
330
A02
100
AcDbEntity
  8
Shape1251
100
AcDbLine
 10
-254.507
 20
-54.3964
 30
0
 11
-254.507
 21
-55.8964
 31
0
  0
ARC
  5
A8E
330
A02
100
AcDbEntity
  8
Shape1252
100
AcDbCircle
 10
-255.507
 20
-55.8964
 30
0
 40
1
100
AcDbArc
 50
-90
 51
0
  0
LINE
  5
A8F
330
A02
100
AcDbEntity
  8
Shape1253
100
AcDbLine
 10
-255.507
 20
-56.8964
 30
0
 11
-266.007
 21
-56.8964
 31
0
  0
ARC
  5
A90
330
A02
100
AcDbEntity
  8
Shape1254
100
AcDbCircle
 10
-266.007
 20
-57.3964
 30
0
 40
0.5
100
AcDbArc
 50
90
 51
180
  0
LINE
  5
A91
330
A02
100
AcDbEntity
  8
Shape1255
100
AcDbLine
 10
-266.507
 20
-57.3964
 30
0
 11
-266.507
 21
-57.6455
 31
0
  0
ARC
  5
A92
330
A02
100
AcDbEntity
  8
Shape1256
100
AcDbCircle
 10
-266.007
 20
-57.6455
 30
0
 40
0.5
100
AcDbArc
 50
180
 51
-90
  0
LINE
  5
A93
330
A02
100
AcDbEntity
  8
Shape1257
100
AcDbLine
 10
-266.007
 20
-58.1455
 30
0
 11
-244.682
 21
-58.1455
 31
0
  0
ARC
  5
A94
330
A02
100
AcDbEntity
  8
Shape1258
100
AcDbCircle
 10
-244.682
 20
-60.1455
 30
0
 40
2
100
AcDbArc
 50
0
 51
90
  0
LINE
  5
A95
330
A02
100
AcDbEntity
  8
Shape1259
100
AcDbLine
 10
-242.682
 20
-60.1455
 30
0
 11
-242.682
 21
-132.546
 31
0
  0
ARC
  5
A96
330
A02
100
AcDbEntity
  8
Shape1260
100
AcDbCircle
 10
-244.682
 20
-132.546
 30
0
 40
2
100
AcDbArc
 50
-90
 51
0
  0
LINE
  5
A97
330
A02
100
AcDbEntity
  8
Shape1261
100
AcDbLine
 10
-244.682
 20
-134.546
 30
0
 11
-266.007
 21
-134.546
 31
0
  0
ARC
  5
A98
330
A02
100
AcDbEntity
  8
Shape1262
100
AcDbCircle
 10
-266.007
 20
-135.046
 30
0
 40
0.5
100
AcDbArc
 50
90
 51
180
  0
LINE
  5
A99
330
A02
100
AcDbEntity
  8
Shape1263
100
AcDbLine
 10
-266.507
 20
-135.046
 30
0
 11
-266.507
 21
-135.295
 31
0
  0
ARC
  5
A9A
330
A02
100
AcDbEntity
  8
Shape1264
100
AcDbCircle
 10
-266.007
 20
-135.295
 30
0
 40
0.5
100
AcDbArc
 50
180
 51
-90
  0
LINE
  5
A9B
330
A02
100
AcDbEntity
  8
Shape1265
100
AcDbLine
 10
-266.007
 20
-135.795
 30
0
 11
-255.507
 21
-135.795
 31
0
  0
ARC
  5
A9C
330
A02
100
AcDbEntity
  8
Shape1266
100
AcDbCircle
 10
-255.507
 20
-136.795
 30
0
 40
1
100
AcDbArc
 50
0
 51
90
  0
LINE
  5
A9D
330
A02
100
AcDbEntity
  8
Shape1267
100
AcDbLine
 10
-254.507
 20
-136.795
 30
0
 11
-254.507
 21
-138.295
 31
0
  0
ARC
  5
A9E
330
A02
100
AcDbEntity
  8
Shape1268
100
AcDbCircle
 10
-255.507
 20
-138.295
 30
0
 40
1
100
AcDbArc
 50
-90
 51
0
  0
LINE
  5
A9F
330
A02
100
AcDbEntity
  8
Shape1269
100
AcDbLine
 10
-255.507
 20
-139.295
 30
0
 11
-273.507
 21
-139.295
 31
0
  0
CIRCLE
  5
AA0
330
A02
100
AcDbEntity
  8
Shape1276
100
AcDbCircle
 10
-456.507
 20
-54.6464
 40
1.1
  0
CIRCLE
  5
AA1
330
A02
100
AcDbEntity
  8
Shape1277
100
AcDbCircle
 10
-366.507
 20
-54.6464
 40
1.1
  0
CIRCLE
  5
AA2
330
A02
100
AcDbEntity
  8
Shape1278
100
AcDbCircle
 10
-276.507
 20
-54.6464
 40
1.1
  0
CIRCLE
  5
AA3
330
A02
100
AcDbEntity
  8
Shape1279
100
AcDbCircle
 10
-456.507
 20
-138.045
 40
1.1
  0
CIRCLE
  5
AA4
330
A02
100
AcDbEntity
  8
Shape1280
100
AcDbCircle
 10
-366.507
 20
-138.045
 40
1.1
  0
CIRCLE
  5
AA5
330
A02
100
AcDbEntity
  8
Shape1281
100
AcDbCircle
 10
-276.507
 20
-138.045
 40
1.1
  0
LINE
  5
AA6
330
A02
100
AcDbEntity
  8
Shape2702
100
AcDbLine
 10
-247.589
 20
-117.971
 30
0
 11
-247.589
 21
-131.971
 31
0
  0
LINE
  5
AA7
330
A02
100
AcDbEntity
  8
Shape2703
100
AcDbLine
 10
-247.589
 20
-131.971
 30
0
 11
-261.589
 21
-131.971
 31
0
  0
LINE
  5
AA8
330
A02
100
AcDbEntity
  8
Shape2704
100
AcDbLine
 10
-261.589
 20
-131.971
 30
0
 11
-261.589
 21
-117.971
 31
0
  0
LINE
  5
AA9
330
A02
100
AcDbEntity
  8
Shape2705
100
AcDbLine
 10
-261.589
 20
-117.971
 30
0
 11
-247.589
 21
-117.971
 31
0
  0
LINE
  5
AAA
330
A02
100
AcDbEntity
  8
Shape2706
100
AcDbLine
 10
-269.021
 20
-117.971
 30
0
 11
-269.021
 21
-131.971
 31
0
  0
LINE
  5
AAB
330
A02
100
AcDbEntity
  8
Shape2707
100
AcDbLine
 10
-269.021
 20
-131.971
 30
0
 11
-283.021
 21
-131.971
 31
0
  0
LINE
  5
AAC
330
A02
100
AcDbEntity
  8
Shape2708
100
AcDbLine
 10
-283.021
 20
-131.971
 30
0
 11
-283.021
 21
-117.971
 31
0
  0
LINE
  5
AAD
330
A02
100
AcDbEntity
  8
Shape2709
100
AcDbLine
 10
-283.021
 20
-117.971
 30
0
 11
-269.021
 21
-117.971
 31
0
  0
LINE
  5
AAE
330
A02
100
AcDbEntity
  8
Shape2710
100
AcDbLine
 10
-290.452
 20
-117.971
 30
0
 11
-290.452
 21
-131.971
 31
0
  0
LINE
  5
AAF
330
A02
100
AcDbEntity
  8
Shape2711
100
AcDbLine
 10
-290.452
 20
-131.971
 30
0
 11
-304.452
 21
-131.971
 31
0
  0
LINE
  5
AB0
330
A02
100
AcDbEntity
  8
Shape2712
100
AcDbLine
 10
-304.452
 20
-131.971
 30
0
 11
-304.452
 21
-117.971
 31
0
  0
LINE
  5
AB1
330
A02
100
AcDbEntity
  8
Shape2713
100
AcDbLine
 10
-304.452
 20
-117.971
 30
0
 11
-290.452
 21
-117.971
 31
0
  0
LINE
  5
AB2
330
A02
100
AcDbEntity
  8
Shape2714
100
AcDbLine
 10
-428.564
 20
-117.971
 30
0
 11
-428.564
 21
-131.971
 31
0
  0
LINE
  5
AB3
330
A02
100
AcDbEntity
  8
Shape2715
100
AcDbLine
 10
-428.564
 20
-131.971
 30
0
 11
-442.564
 21
-131.971
 31
0
  0
LINE
  5
AB4
330
A02
100
AcDbEntity
  8
Shape2716
100
AcDbLine
 10
-442.564
 20
-131.971
 30
0
 11
-442.564
 21
-117.971
 31
0
  0
LINE
  5
AB5
330
A02
100
AcDbEntity
  8
Shape2717
100
AcDbLine
 10
-442.564
 20
-117.971
 30
0
 11
-428.564
 21
-117.971
 31
0
  0
LINE
  5
AB6
330
A02
100
AcDbEntity
  8
Shape2718
100
AcDbLine
 10
-449.996
 20
-117.971
 30
0
 11
-449.996
 21
-131.971
 31
0
  0
LINE
  5
AB7
330
A02
100
AcDbEntity
  8
Shape2719
100
AcDbLine
 10
-449.996
 20
-131.971
 30
0
 11
-463.996
 21
-131.971
 31
0
  0
LINE
  5
AB8
330
A02
100
AcDbEntity
  8
Shape2720
100
AcDbLine
 10
-463.996
 20
-131.971
 30
0
 11
-463.996
 21
-117.971
 31
0
  0
LINE
  5
AB9
330
A02
100
AcDbEntity
  8
Shape2721
100
AcDbLine
 10
-463.996
 20
-117.971
 30
0
 11
-449.996
 21
-117.971
 31
0
  0
LINE
  5
ABA
330
A02
100
AcDbEntity
  8
Shape2722
100
AcDbLine
 10
-471.427
 20
-117.971
 30
0
 11
-471.427
 21
-131.971
 31
0
  0
LINE
  5
ABB
330
A02
100
AcDbEntity
  8
Shape2723
100
AcDbLine
 10
-471.427
 20
-131.971
 30
0
 11
-485.427
 21
-131.971
 31
0
  0
LINE
  5
ABC
330
A02
100
AcDbEntity
  8
Shape2724
100
AcDbLine
 10
-485.427
 20
-131.971
 30
0
 11
-485.427
 21
-117.971
 31
0
  0
LINE
  5
ABD
330
A02
100
AcDbEntity
  8
Shape2725
100
AcDbLine
 10
-485.427
 20
-117.971
 30
0
 11
-471.427
 21
-117.971
 31
0
  0
LINE
  5
ABE
330
A02
100
AcDbEntity
  8
Shape2726
100
AcDbLine
 10
-471.376
 20
-79.7705
 30
0
 11
-471.376
 21
-93.8705
 31
0
  0
LINE
  5
ABF
330
A02
100
AcDbEntity
  8
Shape2727
100
AcDbLine
 10
-471.376
 20
-93.8705
 30
0
 11
-485.476
 21
-93.8705
 31
0
  0
LINE
  5
AC0
330
A02
100
AcDbEntity
  8
Shape2728
100
AcDbLine
 10
-485.476
 20
-93.8705
 30
0
 11
-485.476
 21
-79.7705
 31
0
  0
LINE
  5
AC1
330
A02
100
AcDbEntity
  8
Shape2729
100
AcDbLine
 10
-485.476
 20
-79.7705
 30
0
 11
-471.376
 21
-79.7705
 31
0
  0
LINE
  5
AC2
330
A02
100
AcDbEntity
  8
Shape2730
100
AcDbLine
 10
-473.757
 20
-60.7205
 30
0
 11
-473.757
 21
-74.8205
 31
0
  0
LINE
  5
AC3
330
A02
100
AcDbEntity
  8
Shape2731
100
AcDbLine
 10
-473.757
 20
-74.8205
 30
0
 11
-487.857
 21
-74.8205
 31
0
  0
LINE
  5
AC4
330
A02
100
AcDbEntity
  8
Shape2732
100
AcDbLine
 10
-487.857
 20
-74.8205
 30
0
 11
-487.857
 21
-60.7205
 31
0
  0
LINE
  5
AC5
330
A02
100
AcDbEntity
  8
Shape2733
100
AcDbLine
 10
-487.857
 20
-60.7205
 30
0
 11
-473.757
 21
-60.7205
 31
0
  0
LINE
  5
AC6
330
A02
100
AcDbEntity
  8
Shape2734
100
AcDbLine
 10
-340.219
 20
-98.8205
 30
0
 11
-326.119
 21
-98.8205
 31
0
  0
LINE
  5
AC7
330
A02
100
AcDbEntity
  8
Shape2735
100
AcDbLine
 10
-326.119
 20
-98.8205
 30
0
 11
-326.119
 21
-112.921
 31
0
  0
LINE
  5
AC8
330
A02
100
AcDbEntity
  8
Shape2736
100
AcDbLine
 10
-326.119
 20
-112.921
 30
0
 11
-340.219
 21
-112.921
 31
0
  0
LINE
  5
AC9
330
A02
100
AcDbEntity
  8
Shape2737
100
AcDbLine
 10
-340.219
 20
-112.921
 30
0
 11
-340.219
 21
-98.8205
 31
0
  0
LINE
  5
ACA
330
A02
100
AcDbEntity
  8
Shape2738
100
AcDbLine
 10
-440.419
 20
-98.8205
 30
0
 11
-440.419
 21
-112.921
 31
0
  0
LINE
  5
ACB
330
A02
100
AcDbEntity
  8
Shape2739
100
AcDbLine
 10
-440.419
 20
-112.921
 30
0
 11
-454.519
 21
-112.921
 31
0
  0
LINE
  5
ACC
330
A02
100
AcDbEntity
  8
Shape2740
100
AcDbLine
 10
-454.519
 20
-112.921
 30
0
 11
-454.519
 21
-98.8205
 31
0
  0
LINE
  5
ACD
330
A02
100
AcDbEntity
  8
Shape2741
100
AcDbLine
 10
-454.519
 20
-98.8205
 30
0
 11
-440.419
 21
-98.8205
 31
0
  0
LINE
  5
ACE
330
A02
100
AcDbEntity
  8
Shape2742
100
AcDbLine
 10
-302.307
 20
-60.7205
 30
0
 11
-302.307
 21
-74.8205
 31
0
  0
LINE
  5
ACF
330
A02
100
AcDbEntity
  8
Shape2743
100
AcDbLine
 10
-302.307
 20
-74.8205
 30
0
 11
-316.407
 21
-74.8205
 31
0
  0
LINE
  5
AD0
330
A02
100
AcDbEntity
  8
Shape2744
100
AcDbLine
 10
-316.407
 20
-74.8205
 30
0
 11
-316.407
 21
-60.7205
 31
0
  0
LINE
  5
AD1
330
A02
100
AcDbEntity
  8
Shape2745
100
AcDbLine
 10
-316.407
 20
-60.7205
 30
0
 11
-302.307
 21
-60.7205
 31
0
  0
LINE
  5
AD2
330
A02
100
AcDbEntity
  8
Shape2746
100
AcDbLine
 10
-416.419
 20
-112.921
 30
0
 11
-416.419
 21
-98.8205
 31
0
  0
LINE
  5
AD3
330
A02
100
AcDbEntity
  8
Shape2747
100
AcDbLine
 10
-416.419
 20
-98.8205
 30
0
 11
-402.32
 21
-98.8205
 31
0
  0
LINE
  5
AD4
330
A02
100
AcDbEntity
  8
Shape2748
100
AcDbLine
 10
-402.32
 20
-98.8205
 30
0
 11
-402.32
 21
-112.921
 31
0
  0
LINE
  5
AD5
330
A02
100
AcDbEntity
  8
Shape2749
100
AcDbLine
 10
-402.32
 20
-112.921
 30
0
 11
-416.419
 21
-112.921
 31
0
  0
LINE
  5
AD6
330
A02
100
AcDbEntity
  8
Shape2750
100
AcDbLine
 10
-297.357
 20
-60.7205
 30
0
 11
-283.257
 21
-60.7205
 31
0
  0
LINE
  5
AD7
330
A02
100
AcDbEntity
  8
Shape2751
100
AcDbLine
 10
-283.257
 20
-60.7205
 30
0
 11
-283.257
 21
-74.8205
 31
0
  0
LINE
  5
AD8
330
A02
100
AcDbEntity
  8
Shape2752
100
AcDbLine
 10
-283.257
 20
-74.8205
 30
0
 11
-297.357
 21
-74.8205
 31
0
  0
LINE
  5
AD9
330
A02
100
AcDbEntity
  8
Shape2753
100
AcDbLine
 10
-297.357
 20
-74.8205
 30
0
 11
-297.357
 21
-60.7205
 31
0
  0
LINE
  5
ADA
330
A02
100
AcDbEntity
  8
Shape2754
100
AcDbLine
 10
-288.02
 20
-112.921
 30
0
 11
-302.119
 21
-112.921
 31
0
  0
LINE
  5
ADB
330
A02
100
AcDbEntity
  8
Shape2755
100
AcDbLine
 10
-302.119
 20
-112.921
 30
0
 11
-302.119
 21
-98.8205
 31
0
  0
LINE
  5
ADC
330
A02
100
AcDbEntity
  8
Shape2756
100
AcDbLine
 10
-302.119
 20
-98.8205
 30
0
 11
-288.02
 21
-98.8205
 31
0
  0
LINE
  5
ADD
330
A02
100
AcDbEntity
  8
Shape2757
100
AcDbLine
 10
-288.02
 20
-98.8205
 30
0
 11
-288.02
 21
-112.921
 31
0
  0
LINE
  5
ADE
330
A02
100
AcDbEntity
  8
Shape2758
100
AcDbLine
 10
-383.27
 20
-98.8205
 30
0
 11
-383.27
 21
-112.921
 31
0
  0
LINE
  5
ADF
330
A02
100
AcDbEntity
  8
Shape2759
100
AcDbLine
 10
-383.27
 20
-112.921
 30
0
 11
-397.37
 21
-112.921
 31
0
  0
LINE
  5
AE0
330
A02
100
AcDbEntity
  8
Shape2760
100
AcDbLine
 10
-397.37
 20
-112.921
 30
0
 11
-397.37
 21
-98.8205
 31
0
  0
LINE
  5
AE1
330
A02
100
AcDbEntity
  8
Shape2761
100
AcDbLine
 10
-397.37
 20
-98.8205
 30
0
 11
-383.27
 21
-98.8205
 31
0
  0
LINE
  5
AE2
330
A02
100
AcDbEntity
  8
Shape2762
100
AcDbLine
 10
-321.17
 20
-98.8205
 30
0
 11
-307.07
 21
-98.8205
 31
0
  0
LINE
  5
AE3
330
A02
100
AcDbEntity
  8
Shape2763
100
AcDbLine
 10
-307.07
 20
-98.8205
 30
0
 11
-307.07
 21
-112.921
 31
0
  0
LINE
  5
AE4
330
A02
100
AcDbEntity
  8
Shape2764
100
AcDbLine
 10
-307.07
 20
-112.921
 30
0
 11
-321.17
 21
-112.921
 31
0
  0
LINE
  5
AE5
330
A02
100
AcDbEntity
  8
Shape2765
100
AcDbLine
 10
-321.17
 20
-112.921
 30
0
 11
-321.17
 21
-98.8205
 31
0
  0
LINE
  5
AE6
330
A02
100
AcDbEntity
  8
Shape2766
100
AcDbLine
 10
-378.32
 20
-112.921
 30
0
 11
-378.32
 21
-98.8205
 31
0
  0
LINE
  5
AE7
330
A02
100
AcDbEntity
  8
Shape2767
100
AcDbLine
 10
-378.32
 20
-98.8205
 30
0
 11
-364.219
 21
-98.8205
 31
0
  0
LINE
  5
AE8
330
A02
100
AcDbEntity
  8
Shape2768
100
AcDbLine
 10
-364.219
 20
-98.8205
 30
0
 11
-364.219
 21
-112.921
 31
0
  0
LINE
  5
AE9
330
A02
100
AcDbEntity
  8
Shape2769
100
AcDbLine
 10
-364.219
 20
-112.921
 30
0
 11
-378.32
 21
-112.921
 31
0
  0
LINE
  5
AEA
330
A02
100
AcDbEntity
  8
Shape2770
100
AcDbLine
 10
-297.545
 20
-79.7705
 30
0
 11
-297.545
 21
-93.8705
 31
0
  0
LINE
  5
AEB
330
A02
100
AcDbEntity
  8
Shape2771
100
AcDbLine
 10
-297.545
 20
-93.8705
 30
0
 11
-311.645
 21
-93.8705
 31
0
  0
LINE
  5
AEC
330
A02
100
AcDbEntity
  8
Shape2772
100
AcDbLine
 10
-311.645
 20
-93.8705
 30
0
 11
-311.645
 21
-79.7705
 31
0
  0
LINE
  5
AED
330
A02
100
AcDbEntity
  8
Shape2773
100
AcDbLine
 10
-311.645
 20
-79.7705
 30
0
 11
-297.545
 21
-79.7705
 31
0
  0
LINE
  5
AEE
330
A02
100
AcDbEntity
  8
Shape2774
100
AcDbLine
 10
-387.845
 20
-79.7705
 30
0
 11
-373.745
 21
-79.7705
 31
0
  0
LINE
  5
AEF
330
A02
100
AcDbEntity
  8
Shape2775
100
AcDbLine
 10
-373.745
 20
-79.7705
 30
0
 11
-373.745
 21
-93.8705
 31
0
  0
LINE
  5
AF0
330
A02
100
AcDbEntity
  8
Shape2776
100
AcDbLine
 10
-373.745
 20
-93.8705
 30
0
 11
-387.845
 21
-93.8705
 31
0
  0
LINE
  5
AF1
330
A02
100
AcDbEntity
  8
Shape2777
100
AcDbLine
 10
-387.845
 20
-93.8705
 30
0
 11
-387.845
 21
-79.7705
 31
0
  0
LINE
  5
AF2
330
A02
100
AcDbEntity
  8
Shape2778
100
AcDbLine
 10
-266.401
 20
-79.7705
 30
0
 11
-252.301
 21
-79.7705
 31
0
  0
LINE
  5
AF3
330
A02
100
AcDbEntity
  8
Shape2779
100
AcDbLine
 10
-252.301
 20
-79.7705
 30
0
 11
-252.301
 21
-93.8705
 31
0
  0
LINE
  5
AF4
330
A02
100
AcDbEntity
  8
Shape2780
100
AcDbLine
 10
-252.301
 20
-93.8705
 30
0
 11
-266.401
 21
-93.8705
 31
0
  0
LINE
  5
AF5
330
A02
100
AcDbEntity
  8
Shape2781
100
AcDbLine
 10
-266.401
 20
-93.8705
 30
0
 11
-266.401
 21
-79.7705
 31
0
  0
LINE
  5
AF6
330
A02
100
AcDbEntity
  8
Shape2782
100
AcDbLine
 10
-430.894
 20
-93.8705
 30
0
 11
-444.994
 21
-93.8705
 31
0
  0
LINE
  5
AF7
330
A02
100
AcDbEntity
  8
Shape2783
100
AcDbLine
 10
-444.994
 20
-93.8705
 30
0
 11
-444.994
 21
-79.7705
 31
0
  0
LINE
  5
AF8
330
A02
100
AcDbEntity
  8
Shape2784
100
AcDbLine
 10
-444.994
 20
-79.7705
 30
0
 11
-430.894
 21
-79.7705
 31
0
  0
LINE
  5
AF9
330
A02
100
AcDbEntity
  8
Shape2785
100
AcDbLine
 10
-430.894
 20
-79.7705
 30
0
 11
-430.894
 21
-93.8705
 31
0
  0
LINE
  5
AFA
330
A02
100
AcDbEntity
  8
Shape2786
100
AcDbLine
 10
-368.795
 20
-79.7705
 30
0
 11
-354.695
 21
-79.7705
 31
0
  0
LINE
  5
AFB
330
A02
100
AcDbEntity
  8
Shape2787
100
AcDbLine
 10
-354.695
 20
-79.7705
 30
0
 11
-354.695
 21
-93.8705
 31
0
  0
LINE
  5
AFC
330
A02
100
AcDbEntity
  8
Shape2788
100
AcDbLine
 10
-354.695
 20
-93.8705
 30
0
 11
-368.795
 21
-93.8705
 31
0
  0
LINE
  5
AFD
330
A02
100
AcDbEntity
  8
Shape2789
100
AcDbLine
 10
-368.795
 20
-93.8705
 30
0
 11
-368.795
 21
-79.7705
 31
0
  0
LINE
  5
AFE
330
A02
100
AcDbEntity
  8
Shape2790
100
AcDbLine
 10
-411.657
 20
-60.7205
 30
0
 11
-397.557
 21
-60.7205
 31
0
  0
LINE
  5
AFF
330
A02
100
AcDbEntity
  8
Shape2791
100
AcDbLine
 10
-397.557
 20
-60.7205
 30
0
 11
-397.557
 21
-74.8205
 31
0
  0
LINE
  5
B00
330
A02
100
AcDbEntity
  8
Shape2792
100
AcDbLine
 10
-397.557
 20
-74.8205
 30
0
 11
-411.657
 21
-74.8205
 31
0
  0
LINE
  5
B01
330
A02
100
AcDbEntity
  8
Shape2793
100
AcDbLine
 10
-411.657
 20
-74.8205
 30
0
 11
-411.657
 21
-60.7205
 31
0
  0
LINE
  5
B02
330
A02
100
AcDbEntity
  8
Shape2794
100
AcDbLine
 10
-449.757
 20
-60.7205
 30
0
 11
-435.657
 21
-60.7205
 31
0
  0
LINE
  5
B03
330
A02
100
AcDbEntity
  8
Shape2795
100
AcDbLine
 10
-435.657
 20
-60.7205
 30
0
 11
-435.657
 21
-74.8205
 31
0
  0
LINE
  5
B04
330
A02
100
AcDbEntity
  8
Shape2796
100
AcDbLine
 10
-435.657
 20
-74.8205
 30
0
 11
-449.757
 21
-74.8205
 31
0
  0
LINE
  5
B05
330
A02
100
AcDbEntity
  8
Shape2797
100
AcDbLine
 10
-449.757
 20
-74.8205
 30
0
 11
-449.757
 21
-60.7205
 31
0
  0
LINE
  5
B06
330
A02
100
AcDbEntity
  8
Shape2798
100
AcDbLine
 10
-378.507
 20
-60.7205
 30
0
 11
-378.507
 21
-74.8205
 31
0
  0
LINE
  5
B07
330
A02
100
AcDbEntity
  8
Shape2799
100
AcDbLine
 10
-378.507
 20
-74.8205
 30
0
 11
-392.607
 21
-74.8205
 31
0
  0
LINE
  5
B08
330
A02
100
AcDbEntity
  8
Shape2800
100
AcDbLine
 10
-392.607
 20
-74.8205
 30
0
 11
-392.607
 21
-60.7205
 31
0
  0
LINE
  5
B09
330
A02
100
AcDbEntity
  8
Shape2801
100
AcDbLine
 10
-392.607
 20
-60.7205
 30
0
 11
-378.507
 21
-60.7205
 31
0
  0
LINE
  5
B0A
330
A02
100
AcDbEntity
  8
Shape2802
100
AcDbLine
 10
-421.369
 20
-112.921
 30
0
 11
-435.469
 21
-112.921
 31
0
  0
LINE
  5
B0B
330
A02
100
AcDbEntity
  8
Shape2803
100
AcDbLine
 10
-435.469
 20
-112.921
 30
0
 11
-435.469
 21
-98.8205
 31
0
  0
LINE
  5
B0C
330
A02
100
AcDbEntity
  8
Shape2804
100
AcDbLine
 10
-435.469
 20
-98.8205
 30
0
 11
-421.369
 21
-98.8205
 31
0
  0
LINE
  5
B0D
330
A02
100
AcDbEntity
  8
Shape2805
100
AcDbLine
 10
-421.369
 20
-98.8205
 30
0
 11
-421.369
 21
-112.921
 31
0
  0
LINE
  5
B0E
330
A02
100
AcDbEntity
  8
Shape2806
100
AcDbLine
 10
-359.27
 20
-98.8205
 30
0
 11
-345.17
 21
-98.8205
 31
0
  0
LINE
  5
B0F
330
A02
100
AcDbEntity
  8
Shape2807
100
AcDbLine
 10
-345.17
 20
-98.8205
 30
0
 11
-345.17
 21
-112.921
 31
0
  0
LINE
  5
B10
330
A02
100
AcDbEntity
  8
Shape2808
100
AcDbLine
 10
-345.17
 20
-112.921
 30
0
 11
-359.27
 21
-112.921
 31
0
  0
LINE
  5
B11
330
A02
100
AcDbEntity
  8
Shape2809
100
AcDbLine
 10
-359.27
 20
-112.921
 30
0
 11
-359.27
 21
-98.8205
 31
0
  0
LINE
  5
B12
330
A02
100
AcDbEntity
  8
Shape2810
100
AcDbLine
 10
-411.844
 20
-79.7705
 30
0
 11
-411.844
 21
-93.8705
 31
0
  0
LINE
  5
B13
330
A02
100
AcDbEntity
  8
Shape2811
100
AcDbLine
 10
-411.844
 20
-93.8705
 30
0
 11
-425.944
 21
-93.8705
 31
0
  0
LINE
  5
B14
330
A02
100
AcDbEntity
  8
Shape2812
100
AcDbLine
 10
-425.944
 20
-93.8705
 30
0
 11
-425.944
 21
-79.7705
 31
0
  0
LINE
  5
B15
330
A02
100
AcDbEntity
  8
Shape2813
100
AcDbLine
 10
-425.944
 20
-79.7705
 30
0
 11
-411.844
 21
-79.7705
 31
0
  0
LINE
  5
B16
330
A02
100
AcDbEntity
  8
Shape2814
100
AcDbLine
 10
-292.595
 20
-79.7705
 30
0
 11
-278.495
 21
-79.7705
 31
0
  0
LINE
  5
B17
330
A02
100
AcDbEntity
  8
Shape2815
100
AcDbLine
 10
-278.495
 20
-79.7705
 30
0
 11
-278.495
 21
-93.8705
 31
0
  0
LINE
  5
B18
330
A02
100
AcDbEntity
  8
Shape2816
100
AcDbLine
 10
-278.495
 20
-93.8705
 30
0
 11
-292.595
 21
-93.8705
 31
0
  0
LINE
  5
B19
330
A02
100
AcDbEntity
  8
Shape2817
100
AcDbLine
 10
-292.595
 20
-93.8705
 30
0
 11
-292.595
 21
-79.7705
 31
0
  0
LINE
  5
B1A
330
A02
100
AcDbEntity
  8
Shape2818
100
AcDbLine
 10
-316.595
 20
-93.8705
 30
0
 11
-330.695
 21
-93.8705
 31
0
  0
LINE
  5
B1B
330
A02
100
AcDbEntity
  8
Shape2819
100
AcDbLine
 10
-330.695
 20
-93.8705
 30
0
 11
-330.695
 21
-79.7705
 31
0
  0
LINE
  5
B1C
330
A02
100
AcDbEntity
  8
Shape2820
100
AcDbLine
 10
-330.695
 20
-79.7705
 30
0
 11
-316.595
 21
-79.7705
 31
0
  0
LINE
  5
B1D
330
A02
100
AcDbEntity
  8
Shape2821
100
AcDbLine
 10
-316.595
 20
-79.7705
 30
0
 11
-316.595
 21
-93.8705
 31
0
  0
LINE
  5
B1E
330
A02
100
AcDbEntity
  8
Shape2822
100
AcDbLine
 10
-335.645
 20
-93.8705
 30
0
 11
-349.745
 21
-93.8705
 31
0
  0
LINE
  5
B1F
330
A02
100
AcDbEntity
  8
Shape2823
100
AcDbLine
 10
-349.745
 20
-93.8705
 30
0
 11
-349.745
 21
-79.7705
 31
0
  0
LINE
  5
B20
330
A02
100
AcDbEntity
  8
Shape2824
100
AcDbLine
 10
-349.745
 20
-79.7705
 30
0
 11
-335.645
 21
-79.7705
 31
0
  0
LINE
  5
B21
330
A02
100
AcDbEntity
  8
Shape2825
100
AcDbLine
 10
-335.645
 20
-79.7705
 30
0
 11
-335.645
 21
-93.8705
 31
0
  0
LINE
  5
B22
330
A02
100
AcDbEntity
  8
Shape2826
100
AcDbLine
 10
-392.795
 20
-79.7705
 30
0
 11
-392.795
 21
-93.8705
 31
0
  0
LINE
  5
B23
330
A02
100
AcDbEntity
  8
Shape2827
100
AcDbLine
 10
-392.795
 20
-93.8705
 30
0
 11
-406.895
 21
-93.8705
 31
0
  0
LINE
  5
B24
330
A02
100
AcDbEntity
  8
Shape2828
100
AcDbLine
 10
-406.895
 20
-93.8705
 30
0
 11
-406.895
 21
-79.7705
 31
0
  0
LINE
  5
B25
330
A02
100
AcDbEntity
  8
Shape2829
100
AcDbLine
 10
-406.895
 20
-79.7705
 30
0
 11
-392.795
 21
-79.7705
 31
0
  0
LINE
  5
B26
330
A02
100
AcDbEntity
  8
Shape2830
100
AcDbLine
 10
-416.607
 20
-74.8205
 30
0
 11
-430.707
 21
-74.8205
 31
0
  0
LINE
  5
B27
330
A02
100
AcDbEntity
  8
Shape2831
100
AcDbLine
 10
-430.707
 20
-74.8205
 30
0
 11
-430.707
 21
-60.7205
 31
0
  0
LINE
  5
B28
330
A02
100
AcDbEntity
  8
Shape2832
100
AcDbLine
 10
-430.707
 20
-60.7205
 30
0
 11
-416.607
 21
-60.7205
 31
0
  0
LINE
  5
B29
330
A02
100
AcDbEntity
  8
Shape2833
100
AcDbLine
 10
-416.607
 20
-60.7205
 30
0
 11
-416.607
 21
-74.8205
 31
0
  0
LINE
  5
B2A
330
A02
100
AcDbEntity
  8
Shape2834
100
AcDbLine
 10
-261.638
 20
-98.8205
 30
0
 11
-247.538
 21
-98.8205
 31
0
  0
LINE
  5
B2B
330
A02
100
AcDbEntity
  8
Shape2835
100
AcDbLine
 10
-247.538
 20
-98.8205
 30
0
 11
-247.538
 21
-112.921
 31
0
  0
LINE
  5
B2C
330
A02
100
AcDbEntity
  8
Shape2836
100
AcDbLine
 10
-247.538
 20
-112.921
 30
0
 11
-261.638
 21
-112.921
 31
0
  0
LINE
  5
B2D
330
A02
100
AcDbEntity
  8
Shape2837
100
AcDbLine
 10
-261.638
 20
-112.921
 30
0
 11
-261.638
 21
-98.8205
 31
0
  0
LINE
  5
B2E
330
A02
100
AcDbEntity
  8
Shape2838
100
AcDbLine
 10
-449.944
 20
-93.8705
 30
0
 11
-464.044
 21
-93.8705
 31
0
  0
LINE
  5
B2F
330
A02
100
AcDbEntity
  8
Shape2839
100
AcDbLine
 10
-464.044
 20
-93.8705
 30
0
 11
-464.044
 21
-79.7705
 31
0
  0
LINE
  5
B30
330
A02
100
AcDbEntity
  8
Shape2840
100
AcDbLine
 10
-464.044
 20
-79.7705
 30
0
 11
-449.944
 21
-79.7705
 31
0
  0
LINE
  5
B31
330
A02
100
AcDbEntity
  8
Shape2841
100
AcDbLine
 10
-449.944
 20
-79.7705
 30
0
 11
-449.944
 21
-93.8705
 31
0
  0
LINE
  5
B32
330
A02
100
AcDbEntity
  8
Shape2842
100
AcDbLine
 10
-283.07
 20
-112.921
 30
0
 11
-283.07
 21
-98.8205
 31
0
  0
LINE
  5
B33
330
A02
100
AcDbEntity
  8
Shape2843
100
AcDbLine
 10
-283.07
 20
-98.8205
 30
0
 11
-268.97
 21
-98.8205
 31
0
  0
LINE
  5
B34
330
A02
100
AcDbEntity
  8
Shape2844
100
AcDbLine
 10
-268.97
 20
-98.8205
 30
0
 11
-268.97
 21
-112.921
 31
0
  0
LINE
  5
B35
330
A02
100
AcDbEntity
  8
Shape2845
100
AcDbLine
 10
-268.97
 20
-112.921
 30
0
 11
-283.07
 21
-112.921
 31
0
  0
LINE
  5
B36
330
A02
100
AcDbEntity
  8
Shape2846
100
AcDbLine
 10
-259.257
 20
-60.7205
 30
0
 11
-245.157
 21
-60.7205
 31
0
  0
LINE
  5
B37
330
A02
100
AcDbEntity
  8
Shape2847
100
AcDbLine
 10
-245.157
 20
-60.7205
 30
0
 11
-245.157
 21
-74.8205
 31
0
  0
LINE
  5
B38
330
A02
100
AcDbEntity
  8
Shape2848
100
AcDbLine
 10
-245.157
 20
-74.8205
 30
0
 11
-259.257
 21
-74.8205
 31
0
  0
LINE
  5
B39
330
A02
100
AcDbEntity
  8
Shape2849
100
AcDbLine
 10
-259.257
 20
-74.8205
 30
0
 11
-259.257
 21
-60.7205
 31
0
  0
LINE
  5
B3A
330
A02
100
AcDbEntity
  8
Shape2850
100
AcDbLine
 10
-278.307
 20
-74.8205
 30
0
 11
-278.307
 21
-60.7205
 31
0
  0
LINE
  5
B3B
330
A02
100
AcDbEntity
  8
Shape2851
100
AcDbLine
 10
-278.307
 20
-60.7205
 30
0
 11
-264.207
 21
-60.7205
 31
0
  0
LINE
  5
B3C
330
A02
100
AcDbEntity
  8
Shape2852
100
AcDbLine
 10
-264.207
 20
-60.7205
 30
0
 11
-264.207
 21
-74.8205
 31
0
  0
LINE
  5
B3D
330
A02
100
AcDbEntity
  8
Shape2853
100
AcDbLine
 10
-264.207
 20
-74.8205
 30
0
 11
-278.307
 21
-74.8205
 31
0
  0
LINE
  5
B3E
330
A02
100
AcDbEntity
  8
Shape2854
100
AcDbLine
 10
-340.407
 20
-60.7205
 30
0
 11
-340.407
 21
-74.8205
 31
0
  0
LINE
  5
B3F
330
A02
100
AcDbEntity
  8
Shape2855
100
AcDbLine
 10
-340.407
 20
-74.8205
 30
0
 11
-354.507
 21
-74.8205
 31
0
  0
LINE
  5
B40
330
A02
100
AcDbEntity
  8
Shape2856
100
AcDbLine
 10
-354.507
 20
-74.8205
 30
0
 11
-354.507
 21
-60.7205
 31
0
  0
LINE
  5
B41
330
A02
100
AcDbEntity
  8
Shape2857
100
AcDbLine
 10
-354.507
 20
-60.7205
 30
0
 11
-340.407
 21
-60.7205
 31
0
  0
LINE
  5
B42
330
A02
100
AcDbEntity
  8
Shape2858
100
AcDbLine
 10
-335.457
 20
-74.8205
 30
0
 11
-335.457
 21
-60.7205
 31
0
  0
LINE
  5
B43
330
A02
100
AcDbEntity
  8
Shape2859
100
AcDbLine
 10
-335.457
 20
-60.7205
 30
0
 11
-321.357
 21
-60.7205
 31
0
  0
LINE
  5
B44
330
A02
100
AcDbEntity
  8
Shape2860
100
AcDbLine
 10
-321.357
 20
-60.7205
 30
0
 11
-321.357
 21
-74.8205
 31
0
  0
LINE
  5
B45
330
A02
100
AcDbEntity
  8
Shape2861
100
AcDbLine
 10
-321.357
 20
-74.8205
 30
0
 11
-335.457
 21
-74.8205
 31
0
  0
LINE
  5
B46
330
A02
100
AcDbEntity
  8
Shape2862
100
AcDbLine
 10
-373.557
 20
-60.7205
 30
0
 11
-359.457
 21
-60.7205
 31
0
  0
LINE
  5
B47
330
A02
100
AcDbEntity
  8
Shape2863
100
AcDbLine
 10
-359.457
 20
-60.7205
 30
0
 11
-359.457
 21
-74.8205
 31
0
  0
LINE
  5
B48
330
A02
100
AcDbEntity
  8
Shape2864
100
AcDbLine
 10
-359.457
 20
-74.8205
 30
0
 11
-373.557
 21
-74.8205
 31
0
  0
LINE
  5
B49
330
A02
100
AcDbEntity
  8
Shape2865
100
AcDbLine
 10
-373.557
 20
-74.8205
 30
0
 11
-373.557
 21
-60.7205
 31
0
  0
LINE
  5
B4A
330
A02
100
AcDbEntity
  8
Shape2866
100
AcDbLine
 10
-466.613
 20
-112.921
 30
0
 11
-480.713
 21
-112.921
 31
0
  0
LINE
  5
B4B
330
A02
100
AcDbEntity
  8
Shape2867
100
AcDbLine
 10
-480.713
 20
-112.921
 30
0
 11
-480.713
 21
-98.8205
 31
0
  0
LINE
  5
B4C
330
A02
100
AcDbEntity
  8
Shape2868
100
AcDbLine
 10
-480.713
 20
-98.8205
 30
0
 11
-466.613
 21
-98.8205
 31
0
  0
LINE
  5
B4D
330
A02
100
AcDbEntity
  8
Shape2869
100
AcDbLine
 10
-466.613
 20
-98.8205
 30
0
 11
-466.613
 21
-112.921
 31
0
  0
LINE
  5
B4E
330
A02
100
AcDbEntity
  8
Shape2870
100
AcDbLine
 10
-454.707
 20
-74.8205
 30
0
 11
-468.807
 21
-74.8205
 31
0
  0
LINE
  5
B4F
330
A02
100
AcDbEntity
  8
Shape2871
100
AcDbLine
 10
-468.807
 20
-74.8205
 30
0
 11
-468.807
 21
-60.7205
 31
0
  0
LINE
  5
B50
330
A02
100
AcDbEntity
  8
Shape2872
100
AcDbLine
 10
-468.807
 20
-60.7205
 30
0
 11
-454.707
 21
-60.7205
 31
0
  0
LINE
  5
B51
330
A02
100
AcDbEntity
  8
Shape2873
100
AcDbLine
 10
-454.707
 20
-60.7205
 30
0
 11
-454.707
 21
-74.8205
 31
0
  0
LINE
  5
B52
330
A02
100
AcDbEntity
  8
Shape3386
100
AcDbLine
 10
-409.227
 20
-131.47
 30
0
 11
-409.227
 21
-127.271
 31
0
  0
ARC
  5
B53
330
A02
100
AcDbEntity
  8
Shape3387
100
AcDbCircle
 10
-408.727
 20
-131.47
 30
0
 40
0.5
100
AcDbArc
 50
180
 51
-90
  0
LINE
  5
B54
330
A02
100
AcDbEntity
  8
Shape3388
100
AcDbLine
 10
-409.227
 20
-127.271
 30
0
 11
-410.752
 21
-127.271
 31
0
  0
LINE
  5
B55
330
A02
100
AcDbEntity
  8
Shape3389
100
AcDbLine
 10
-410.752
 20
-127.271
 30
0
 11
-410.752
 21
-130.5
 31
0
  0
LINE
  5
B56
330
A02
100
AcDbEntity
  8
Shape3390
100
AcDbLine
 10
-410.752
 20
-130.5
 30
0
 11
-417.502
 21
-130.5
 31
0
  0
LINE
  5
B57
330
A02
100
AcDbEntity
  8
Shape3391
100
AcDbLine
 10
-417.502
 20
-130.5
 30
0
 11
-417.502
 21
-127.271
 31
0
  0
LINE
  5
B58
330
A02
100
AcDbEntity
  8
Shape3392
100
AcDbLine
 10
-417.502
 20
-127.271
 30
0
 11
-418.327
 21
-127.271
 31
0
  0
LINE
  5
B59
330
A02
100
AcDbEntity
  8
Shape3393
100
AcDbLine
 10
-418.327
 20
-127.271
 30
0
 11
-418.327
 21
-124.471
 31
0
  0
LINE
  5
B5A
330
A02
100
AcDbEntity
  8
Shape3394
100
AcDbLine
 10
-418.327
 20
-124.471
 30
0
 11
-417.502
 21
-124.471
 31
0
  0
LINE
  5
B5B
330
A02
100
AcDbEntity
  8
Shape3395
100
AcDbLine
 10
-417.502
 20
-124.471
 30
0
 11
-417.502
 21
-118.201
 31
0
  0
LINE
  5
B5C
330
A02
100
AcDbEntity
  8
Shape3396
100
AcDbLine
 10
-417.502
 20
-118.201
 30
0
 11
-415.777
 21
-118.201
 31
0
  0
LINE
  5
B5D
330
A02
100
AcDbEntity
  8
Shape3397
100
AcDbLine
 10
-415.777
 20
-118.201
 30
0
 11
-415.777
 21
-117.001
 31
0
  0
LINE
  5
B5E
330
A02
100
AcDbEntity
  8
Shape3398
100
AcDbLine
 10
-415.777
 20
-117.001
 30
0
 11
-412.478
 21
-117.001
 31
0
  0
LINE
  5
B5F
330
A02
100
AcDbEntity
  8
Shape3399
100
AcDbLine
 10
-412.478
 20
-117.001
 30
0
 11
-412.478
 21
-118.201
 31
0
  0
LINE
  5
B60
330
A02
100
AcDbEntity
  8
Shape3400
100
AcDbLine
 10
-412.478
 20
-118.201
 30
0
 11
-410.752
 21
-118.201
 31
0
  0
LINE
  5
B61
330
A02
100
AcDbEntity
  8
Shape3401
100
AcDbLine
 10
-410.752
 20
-118.201
 30
0
 11
-410.752
 21
-122.67
 31
0
  0
LINE
  5
B62
330
A02
100
AcDbEntity
  8
Shape3402
100
AcDbLine
 10
-410.752
 20
-122.67
 30
0
 11
-409.227
 21
-122.67
 31
0
  0
LINE
  5
B63
330
A02
100
AcDbEntity
  8
Shape3403
100
AcDbLine
 10
-409.227
 20
-122.67
 30
0
 11
-409.227
 21
-118.471
 31
0
  0
LINE
  5
B64
330
A02
100
AcDbEntity
  8
Shape3404
100
AcDbLine
 10
-408.727
 20
-117.971
 30
0
 11
-395.727
 21
-117.971
 31
0
  0
ARC
  5
B65
330
A02
100
AcDbEntity
  8
Shape3405
100
AcDbCircle
 10
-408.727
 20
-118.471
 30
0
 40
0.5
100
AcDbArc
 50
90
 51
180
  0
LINE
  5
B66
330
A02
100
AcDbEntity
  8
Shape3406
100
AcDbLine
 10
-395.227
 20
-118.471
 30
0
 11
-395.227
 21
-122.67
 31
0
  0
ARC
  5
B67
330
A02
100
AcDbEntity
  8
Shape3407
100
AcDbCircle
 10
-395.727
 20
-118.471
 30
0
 40
0.5
100
AcDbArc
 50
0
 51
90
  0
LINE
  5
B68
330
A02
100
AcDbEntity
  8
Shape3408
100
AcDbLine
 10
-395.227
 20
-122.67
 30
0
 11
-393.702
 21
-122.67
 31
0
  0
LINE
  5
B69
330
A02
100
AcDbEntity
  8
Shape3409
100
AcDbLine
 10
-393.702
 20
-122.67
 30
0
 11
-393.702
 21
-118.201
 31
0
  0
LINE
  5
B6A
330
A02
100
AcDbEntity
  8
Shape3410
100
AcDbLine
 10
-393.702
 20
-118.201
 30
0
 11
-391.978
 21
-118.201
 31
0
  0
LINE
  5
B6B
330
A02
100
AcDbEntity
  8
Shape3411
100
AcDbLine
 10
-391.978
 20
-118.201
 30
0
 11
-391.978
 21
-117.001
 31
0
  0
LINE
  5
B6C
330
A02
100
AcDbEntity
  8
Shape3412
100
AcDbLine
 10
-391.978
 20
-117.001
 30
0
 11
-388.677
 21
-117.001
 31
0
  0
LINE
  5
B6D
330
A02
100
AcDbEntity
  8
Shape3413
100
AcDbLine
 10
-388.677
 20
-117.001
 30
0
 11
-388.677
 21
-118.201
 31
0
  0
LINE
  5
B6E
330
A02
100
AcDbEntity
  8
Shape3414
100
AcDbLine
 10
-388.677
 20
-118.201
 30
0
 11
-386.952
 21
-118.201
 31
0
  0
LINE
  5
B6F
330
A02
100
AcDbEntity
  8
Shape3415
100
AcDbLine
 10
-386.952
 20
-118.201
 30
0
 11
-386.952
 21
-124.471
 31
0
  0
LINE
  5
B70
330
A02
100
AcDbEntity
  8
Shape3416
100
AcDbLine
 10
-386.952
 20
-124.471
 30
0
 11
-386.127
 21
-124.471
 31
0
  0
LINE
  5
B71
330
A02
100
AcDbEntity
  8
Shape3417
100
AcDbLine
 10
-386.127
 20
-124.471
 30
0
 11
-386.127
 21
-127.271
 31
0
  0
LINE
  5
B72
330
A02
100
AcDbEntity
  8
Shape3418
100
AcDbLine
 10
-386.127
 20
-127.271
 30
0
 11
-386.952
 21
-127.271
 31
0
  0
LINE
  5
B73
330
A02
100
AcDbEntity
  8
Shape3419
100
AcDbLine
 10
-386.952
 20
-127.271
 30
0
 11
-386.952
 21
-130.5
 31
0
  0
LINE
  5
B74
330
A02
100
AcDbEntity
  8
Shape3420
100
AcDbLine
 10
-386.952
 20
-130.5
 30
0
 11
-393.702
 21
-130.5
 31
0
  0
LINE
  5
B75
330
A02
100
AcDbEntity
  8
Shape3421
100
AcDbLine
 10
-393.702
 20
-130.5
 30
0
 11
-393.702
 21
-127.271
 31
0
  0
LINE
  5
B76
330
A02
100
AcDbEntity
  8
Shape3422
100
AcDbLine
 10
-393.702
 20
-127.271
 30
0
 11
-395.227
 21
-127.271
 31
0
  0
LINE
  5
B77
330
A02
100
AcDbEntity
  8
Shape3423
100
AcDbLine
 10
-395.227
 20
-127.271
 30
0
 11
-395.227
 21
-131.47
 31
0
  0
ARC
  5
B78
330
A02
100
AcDbEntity
  8
Shape3424
100
AcDbCircle
 10
-395.727
 20
-131.47
 30
0
 40
0.5
100
AcDbArc
 50
-90
 51
0
  0
LINE
  5
B79
330
A02
100
AcDbEntity
  8
Shape3425
100
AcDbLine
 10
-395.727
 20
-131.97
 30
0
 11
-408.727
 21
-131.97
 31
0
  0
LINE
  5
B7A
330
A02
100
AcDbEntity
  8
Shape3426
100
AcDbLine
 10
-342.552
 20
-131.47
 30
0
 11
-342.552
 21
-127.271
 31
0
  0
ARC
  5
B7B
330
A02
100
AcDbEntity
  8
Shape3427
100
AcDbCircle
 10
-342.052
 20
-131.47
 30
0
 40
0.5
100
AcDbArc
 50
180
 51
-90
  0
LINE
  5
B7C
330
A02
100
AcDbEntity
  8
Shape3428
100
AcDbLine
 10
-342.552
 20
-127.271
 30
0
 11
-344.077
 21
-127.271
 31
0
  0
LINE
  5
B7D
330
A02
100
AcDbEntity
  8
Shape3429
100
AcDbLine
 10
-344.077
 20
-127.271
 30
0
 11
-344.077
 21
-130.5
 31
0
  0
LINE
  5
B7E
330
A02
100
AcDbEntity
  8
Shape3430
100
AcDbLine
 10
-344.077
 20
-130.5
 30
0
 11
-350.827
 21
-130.5
 31
0
  0
LINE
  5
B7F
330
A02
100
AcDbEntity
  8
Shape3431
100
AcDbLine
 10
-350.827
 20
-130.5
 30
0
 11
-350.827
 21
-127.271
 31
0
  0
LINE
  5
B80
330
A02
100
AcDbEntity
  8
Shape3432
100
AcDbLine
 10
-350.827
 20
-127.271
 30
0
 11
-351.653
 21
-127.271
 31
0
  0
LINE
  5
B81
330
A02
100
AcDbEntity
  8
Shape3433
100
AcDbLine
 10
-351.653
 20
-127.271
 30
0
 11
-351.653
 21
-124.471
 31
0
  0
LINE
  5
B82
330
A02
100
AcDbEntity
  8
Shape3434
100
AcDbLine
 10
-351.653
 20
-124.471
 30
0
 11
-350.827
 21
-124.471
 31
0
  0
LINE
  5
B83
330
A02
100
AcDbEntity
  8
Shape3435
100
AcDbLine
 10
-350.827
 20
-124.471
 30
0
 11
-350.827
 21
-118.201
 31
0
  0
LINE
  5
B84
330
A02
100
AcDbEntity
  8
Shape3436
100
AcDbLine
 10
-350.827
 20
-118.201
 30
0
 11
-349.102
 21
-118.201
 31
0
  0
LINE
  5
B85
330
A02
100
AcDbEntity
  8
Shape3437
100
AcDbLine
 10
-349.102
 20
-118.201
 30
0
 11
-349.102
 21
-117.001
 31
0
  0
LINE
  5
B86
330
A02
100
AcDbEntity
  8
Shape3438
100
AcDbLine
 10
-349.102
 20
-117.001
 30
0
 11
-345.803
 21
-117.001
 31
0
  0
LINE
  5
B87
330
A02
100
AcDbEntity
  8
Shape3439
100
AcDbLine
 10
-345.803
 20
-117.001
 30
0
 11
-345.803
 21
-118.201
 31
0
  0
LINE
  5
B88
330
A02
100
AcDbEntity
  8
Shape3440
100
AcDbLine
 10
-345.803
 20
-118.201
 30
0
 11
-344.077
 21
-118.201
 31
0
  0
LINE
  5
B89
330
A02
100
AcDbEntity
  8
Shape3441
100
AcDbLine
 10
-344.077
 20
-118.201
 30
0
 11
-344.077
 21
-122.67
 31
0
  0
LINE
  5
B8A
330
A02
100
AcDbEntity
  8
Shape3442
100
AcDbLine
 10
-344.077
 20
-122.67
 30
0
 11
-342.552
 21
-122.67
 31
0
  0
LINE
  5
B8B
330
A02
100
AcDbEntity
  8
Shape3443
100
AcDbLine
 10
-342.552
 20
-122.67
 30
0
 11
-342.552
 21
-118.471
 31
0
  0
LINE
  5
B8C
330
A02
100
AcDbEntity
  8
Shape3444
100
AcDbLine
 10
-342.052
 20
-117.971
 30
0
 11
-329.053
 21
-117.971
 31
0
  0
ARC
  5
B8D
330
A02
100
AcDbEntity
  8
Shape3445
100
AcDbCircle
 10
-329.053
 20
-118.471
 30
0
 40
0.5
100
AcDbArc
 50
0
 51
90
  0
ARC
  5
B8E
330
A02
100
AcDbEntity
  8
Shape3446
100
AcDbCircle
 10
-342.052
 20
-118.471
 30
0
 40
0.5
100
AcDbArc
 50
90
 51
180
  0
LINE
  5
B8F
330
A02
100
AcDbEntity
  8
Shape3447
100
AcDbLine
 10
-328.553
 20
-118.471
 30
0
 11
-328.553
 21
-122.67
 31
0
  0
LINE
  5
B90
330
A02
100
AcDbEntity
  8
Shape3448
100
AcDbLine
 10
-328.553
 20
-122.67
 30
0
 11
-327.027
 21
-122.67
 31
0
  0
LINE
  5
B91
330
A02
100
AcDbEntity
  8
Shape3449
100
AcDbLine
 10
-327.027
 20
-122.67
 30
0
 11
-327.027
 21
-118.201
 31
0
  0
LINE
  5
B92
330
A02
100
AcDbEntity
  8
Shape3450
100
AcDbLine
 10
-327.027
 20
-118.201
 30
0
 11
-325.303
 21
-118.201
 31
0
  0
LINE
  5
B93
330
A02
100
AcDbEntity
  8
Shape3451
100
AcDbLine
 10
-325.303
 20
-118.201
 30
0
 11
-325.303
 21
-117.001
 31
0
  0
LINE
  5
B94
330
A02
100
AcDbEntity
  8
Shape3452
100
AcDbLine
 10
-325.303
 20
-117.001
 30
0
 11
-322.003
 21
-117.001
 31
0
  0
LINE
  5
B95
330
A02
100
AcDbEntity
  8
Shape3453
100
AcDbLine
 10
-322.003
 20
-117.001
 30
0
 11
-322.003
 21
-118.201
 31
0
  0
LINE
  5
B96
330
A02
100
AcDbEntity
  8
Shape3454
100
AcDbLine
 10
-322.003
 20
-118.201
 30
0
 11
-320.278
 21
-118.201
 31
0
  0
LINE
  5
B97
330
A02
100
AcDbEntity
  8
Shape3455
100
AcDbLine
 10
-320.278
 20
-118.201
 30
0
 11
-320.278
 21
-124.471
 31
0
  0
LINE
  5
B98
330
A02
100
AcDbEntity
  8
Shape3456
100
AcDbLine
 10
-320.278
 20
-124.471
 30
0
 11
-319.452
 21
-124.471
 31
0
  0
LINE
  5
B99
330
A02
100
AcDbEntity
  8
Shape3457
100
AcDbLine
 10
-319.452
 20
-124.471
 30
0
 11
-319.452
 21
-127.271
 31
0
  0
LINE
  5
B9A
330
A02
100
AcDbEntity
  8
Shape3458
100
AcDbLine
 10
-319.452
 20
-127.271
 30
0
 11
-320.278
 21
-127.271
 31
0
  0
LINE
  5
B9B
330
A02
100
AcDbEntity
  8
Shape3459
100
AcDbLine
 10
-320.278
 20
-127.271
 30
0
 11
-320.278
 21
-130.5
 31
0
  0
LINE
  5
B9C
330
A02
100
AcDbEntity
  8
Shape3460
100
AcDbLine
 10
-320.278
 20
-130.5
 30
0
 11
-327.027
 21
-130.5
 31
0
  0
LINE
  5
B9D
330
A02
100
AcDbEntity
  8
Shape3461
100
AcDbLine
 10
-327.027
 20
-130.5
 30
0
 11
-327.027
 21
-127.271
 31
0
  0
LINE
  5
B9E
330
A02
100
AcDbEntity
  8
Shape3462
100
AcDbLine
 10
-327.027
 20
-127.271
 30
0
 11
-328.553
 21
-127.271
 31
0
  0
LINE
  5
B9F
330
A02
100
AcDbEntity
  8
Shape3463
100
AcDbLine
 10
-328.553
 20
-127.271
 30
0
 11
-328.553
 21
-131.47
 31
0
  0
ARC
  5
BA0
330
A02
100
AcDbEntity
  8
Shape3464
100
AcDbCircle
 10
-329.053
 20
-131.47
 30
0
 40
0.5
100
AcDbArc
 50
-90
 51
0
  0
LINE
  5
BA1
330
A02
100
AcDbEntity
  8
Shape3465
100
AcDbLine
 10
-329.053
 20
-131.97
 30
0
 11
-342.052
 21
-131.97
 31
0
  0
LINE
  5
BA2
330
A02
100
AcDbEntity
  8
Shape3466
100
AcDbLine
 10
-377.771
 20
-131.97
 30
0
 11
-364.771
 21
-131.97
 31
0
  0
ARC
  5
BA3
330
A02
100
AcDbEntity
  8
Shape3467
100
AcDbCircle
 10
-364.771
 20
-131.47
 30
0
 40
0.5
100
AcDbArc
 50
-90
 51
0
  0
LINE
  5
BA4
330
A02
100
AcDbEntity
  8
Shape3468
100
AcDbLine
 10
-364.271
 20
-131.47
 30
0
 11
-364.271
 21
-118.471
 31
0
  0
LINE
  5
BA5
330
A02
100
AcDbEntity
  8
Shape3469
100
AcDbLine
 10
-364.771
 20
-117.971
 30
0
 11
-377.771
 21
-117.971
 31
0
  0
ARC
  5
BA6
330
A02
100
AcDbEntity
  8
Shape3470
100
AcDbCircle
 10
-364.771
 20
-118.471
 30
0
 40
0.5
100
AcDbArc
 50
0
 51
90
  0
LINE
  5
BA7
330
A02
100
AcDbEntity
  8
Shape3471
100
AcDbLine
 10
-378.271
 20
-118.471
 30
0
 11
-378.271
 21
-131.47
 31
0
  0
ARC
  5
BA8
330
A02
100
AcDbEntity
  8
Shape3472
100
AcDbCircle
 10
-377.771
 20
-118.471
 30
0
 40
0.5
100
AcDbArc
 50
90
 51
180
  0
ARC
  5
BA9
330
A02
100
AcDbEntity
  8
Shape3473
100
AcDbCircle
 10
-377.771
 20
-131.47
 30
0
 40
0.5
100
AcDbArc
 50
180
 51
-90
  0
CIRCLE
  5
BAA
330
A02
100
AcDbEntity
  8
Shape12728
100
AcDbCircle
 10
-266.863
 20
-77.3211
 40
1.5
  0
ENDSEC
  0
SECTION
  2
OBJECTS
  0
DICTIONARY
  5
F000
330
0
100
AcDbDictionary
  3
ACAD_GROUP
350
F001
  0
DICTIONARY
  5
F001
330
F000
100
AcDbDictionary
  0
ENDSEC
  0
EOF