999
FreeCAD v0.21 33771 (Git)
  0
SECTION
  2
HEADER
  9
$ACADVER
  1
AC1014
  9
$ACADMAINTVER
 70
     9
  9
$DWGCODEPAGE
  3
ANSI_1252
  9
$TEXTSTYLE
  7
STANDARD
  9
$DIMSTYLE
  2
STANDARD
  9
$DIMTXSTY
  7
STANDARD
  9
$CMLSTYLE
  2
STANDARD
  9
$LUNITS
 70
2
  9
$INSUNITS
 70
4
  9
$PEXTMAX
 10
50
 20
50
 30
50
  9
$PEXTMIN
 10
0
 20
0
 30
0
  9
$HANDSEED
  5
FFFF
  0
ENDSEC
  0
SECTION
  2
CLASSES
  0
CLASS
  1
ACDBDICTIONARYWDFLT
  2
AcDbDictionaryWithDefault
  3
ObjectDBX Classes
 90
        0
280
     0
281
     0
  0
CLASS
  1
XRECORD
  2
AcDbXrecord
  3
ObjectDBX Classes
 90
        0
280
     0
281
     0
  0
CLASS
  1
LWPOLYLINE
  2
AcDbPolyline
  3
ObjectDBX Classes
 90
        0
280
     0
281
     1
  0
ENDSEC
  0
SECTION
  2
TABLES
  0
TABLE
  2
VPORT
  5
20
330
0
100
AcDbSymbolTable
 70
     1
  0
VPORT
  5
21
330
20
100
AcDbSymbolTableRecord
100
AcDbViewportTableRecord
  2
*ACTIVE
 70
     0
  0
ENDTAB
  0
TABLE
  2
LTYPE
  5
22
330
0
100
AcDbSymbolTable
 70
     1
  0
LTYPE
  5
23
330
21
100
AcDbSymbolTableRecord
100
AcDbLinetypeTableRecord
  2
BYBLOCK
 70
     0
  3

 72
    65
 73
     0
 40
0.0
  0
LTYPE
  5
24
330
21
100
AcDbSymbolTableRecord
100
AcDbLinetypeTableRecord
  2
BYLAYER
 70
     0
  3

 72
    65
 73
     0
 40
0.0
  0
LTYPE
  5
25
330
21
100
AcDbSymbolTableRecord
100
AcDbLinetypeTableRecord
  2
CONTINUOUS
 70
     0
  3
Solid line
 72
    65
 73
     0
 40
0.0
  0
ENDTAB
  0
TABLE
  2
LAYER
  5
B81
330
0
100
AcDbSymbolTable
 70
379
  0
LAYER
  5
B82
330
B81
100
AcDbSymbolTableRecord
100
AcDbLayerTableRecord
  2
0
 70
   0
 62
   7
  6
CONTINUOUS
  0
LAYER
  5
B83
330
B81
100
AcDbSymbolTableRecord
100
AcDbLayerTableRecord
  2
none
 70
    0
 62
    7
  6
CONTINUOUS
  0
LAYER
  5
B84
330
B81
100
AcDbSymbolTableRecord
100
AcDbLayerTableRecord
  2
Shape10731
 70
    0
 62
    7
  6
CONTINUOUS
  0
LAYER
  5
B85
330
B81
100
AcDbSymbolTableRecord
100
AcDbLayerTableRecord
  2
Shape10732
 70
    0
 62
    7
  6
CONTINUOUS
  0
LAYER
  5
B86
330
B81
100
AcDbSymbolTableRecord
100
AcDbLayerTableRecord
  2
Shape10733
 70
    0
 62
    7
  6
CONTINUOUS
  0
LAYER
  5
B87
330
B81
100
AcDbSymbolTableRecord
100
AcDbLayerTableRecord
  2
Shape10734
 70
    0
 62
    7
  6
CONTINUOUS
  0
LAYER
  5
B88
330
B81
100
AcDbSymbolTableRecord
100
AcDbLayerTableRecord
  2
Shape10735
 70
    0
 62
    7
  6
CONTINUOUS
  0
LAYER
  5
B89
330
B81
100
AcDbSymbolTableRecord
100
AcDbLayerTableRecord
  2
Shape10736
 70
    0
 62
    7
  6
CONTINUOUS
  0
LAYER
  5
B8A
330
B81
100
AcDbSymbolTableRecord
100
AcDbLayerTableRecord
  2
Shape10737
 70
    0
 62
    7
  6
CONTINUOUS
  0
LAYER
  5
B8B
330
B81
100
AcDbSymbolTableRecord
100
AcDbLayerTableRecord
  2
Shape10738
 70
    0
 62
    7
  6
CONTINUOUS
  0
LAYER
  5
B8C
330
B81
100
AcDbSymbolTableRecord
100
AcDbLayerTableRecord
  2
Shape10739
 70
    0
 62
    7
  6
CONTINUOUS
  0
LAYER
  5
B8D
330
B81
100
AcDbSymbolTableRecord
100
AcDbLayerTableRecord
  2
Shape10740
 70
    0
 62
    7
  6
CONTINUOUS
  0
LAYER
  5
B8E
330
B81
100
AcDbSymbolTableRecord
100
AcDbLayerTableRecord
  2
Shape10741
 70
    0
 62
    7
  6
CONTINUOUS
  0
LAYER
  5
B8F
330
B81
100
AcDbSymbolTableRecord
100
AcDbLayerTableRecord
  2
Shape10742
 70
    0
 62
    7
  6
CONTINUOUS
  0
LAYER
  5
B90
330
B81
100
AcDbSymbolTableRecord
100
AcDbLayerTableRecord
  2
Shape10743
 70
    0
 62
    7
  6
CONTINUOUS
  0
LAYER
  5
B91
330
B81
100
AcDbSymbolTableRecord
100
AcDbLayerTableRecord
  2
Shape10744
 70
    0
 62
    7
  6
CONTINUOUS
  0
LAYER
  5
B92
330
B81
100
AcDbSymbolTableRecord
100
AcDbLayerTableRecord
  2
Shape10745
 70
    0
 62
    7
  6
CONTINUOUS
  0
LAYER
  5
B93
330
B81
100
AcDbSymbolTableRecord
100
AcDbLayerTableRecord
  2
Shape10746
 70
    0
 62
    7
  6
CONTINUOUS
  0
LAYER
  5
B94
330
B81
100
AcDbSymbolTableRecord
100
AcDbLayerTableRecord
  2
Shape10747
 70
    0
 62
    7
  6
CONTINUOUS
  0
LAYER
  5
B95
330
B81
100
AcDbSymbolTableRecord
100
AcDbLayerTableRecord
  2
Shape10748
 70
    0
 62
    7
  6
CONTINUOUS
  0
LAYER
  5
B96
330
B81
100
AcDbSymbolTableRecord
100
AcDbLayerTableRecord
  2
Shape10749
 70
    0
 62
    7
  6
CONTINUOUS
  0
LAYER
  5
B97
330
B81
100
AcDbSymbolTableRecord
100
AcDbLayerTableRecord
  2
Shape10750
 70
    0
 62
    7
  6
CONTINUOUS
  0
LAYER
  5
B98
330
B81
100
AcDbSymbolTableRecord
100
AcDbLayerTableRecord
  2
Shape10751
 70
    0
 62
    7
  6
CONTINUOUS
  0
LAYER
  5
B99
330
B81
100
AcDbSymbolTableRecord
100
AcDbLayerTableRecord
  2
Shape10752
 70
    0
 62
    7
  6
CONTINUOUS
  0
LAYER
  5
B9A
330
B81
100
AcDbSymbolTableRecord
100
AcDbLayerTableRecord
  2
Shape10753
 70
    0
 62
    7
  6
CONTINUOUS
  0
LAYER
  5
B9B
330
B81
100
AcDbSymbolTableRecord
100
AcDbLayerTableRecord
  2
Shape10754
 70
    0
 62
    7
  6
CONTINUOUS
  0
LAYER
  5
B9C
330
B81
100
AcDbSymbolTableRecord
100
AcDbLayerTableRecord
  2
Shape10755
 70
    0
 62
    7
  6
CONTINUOUS
  0
LAYER
  5
B9D
330
B81
100
AcDbSymbolTableRecord
100
AcDbLayerTableRecord
  2
Shape10756
 70
    0
 62
    7
  6
CONTINUOUS
  0
LAYER
  5
B9E
330
B81
100
AcDbSymbolTableRecord
100
AcDbLayerTableRecord
  2
Shape10757
 70
    0
 62
    7
  6
CONTINUOUS
  0
LAYER
  5
B9F
330
B81
100
AcDbSymbolTableRecord
100
AcDbLayerTableRecord
  2
Shape10758
 70
    0
 62
    7
  6
CONTINUOUS
  0
LAYER
  5
BA0
330
B81
100
AcDbSymbolTableRecord
100
AcDbLayerTableRecord
  2
Shape10759
 70
    0
 62
    7
  6
CONTINUOUS
  0
LAYER
  5
BA1
330
B81
100
AcDbSymbolTableRecord
100
AcDbLayerTableRecord
  2
Shape10760
 70
    0
 62
    7
  6
CONTINUOUS
  0
LAYER
  5
BA2
330
B81
100
AcDbSymbolTableRecord
100
AcDbLayerTableRecord
  2
Shape10761
 70
    0
 62
    7
  6
CONTINUOUS
  0
LAYER
  5
BA3
330
B81
100
AcDbSymbolTableRecord
100
AcDbLayerTableRecord
  2
Shape10762
 70
    0
 62
    7
  6
CONTINUOUS
  0
LAYER
  5
BA4
330
B81
100
AcDbSymbolTableRecord
100
AcDbLayerTableRecord
  2
Shape10763
 70
    0
 62
    7
  6
CONTINUOUS
  0
LAYER
  5
BA5
330
B81
100
AcDbSymbolTableRecord
100
AcDbLayerTableRecord
  2
Shape10764
 70
    0
 62
    7
  6
CONTINUOUS
  0
LAYER
  5
BA6
330
B81
100
AcDbSymbolTableRecord
100
AcDbLayerTableRecord
  2
Shape10765
 70
    0
 62
    7
  6
CONTINUOUS
  0
LAYER
  5
BA7
330
B81
100
AcDbSymbolTableRecord
100
AcDbLayerTableRecord
  2
Shape10766
 70
    0
 62
    7
  6
CONTINUOUS
  0
LAYER
  5
BA8
330
B81
100
AcDbSymbolTableRecord
100
AcDbLayerTableRecord
  2
Shape10767
 70
    0
 62
    7
  6
CONTINUOUS
  0
LAYER
  5
BA9
330
B81
100
AcDbSymbolTableRecord
100
AcDbLayerTableRecord
  2
Shape10768
 70
    0
 62
    7
  6
CONTINUOUS
  0
LAYER
  5
BAA
330
B81
100
AcDbSymbolTableRecord
100
AcDbLayerTableRecord
  2
Shape10769
 70
    0
 62
    7
  6
CONTINUOUS
  0
LAYER
  5
BAB
330
B81
100
AcDbSymbolTableRecord
100
AcDbLayerTableRecord
  2
Shape10770
 70
    0
 62
    7
  6
CONTINUOUS
  0
LAYER
  5
BAC
330
B81
100
AcDbSymbolTableRecord
100
AcDbLayerTableRecord
  2
Shape10771
 70
    0
 62
    7
  6
CONTINUOUS
  0
LAYER
  5
BAD
330
B81
100
AcDbSymbolTableRecord
100
AcDbLayerTableRecord
  2
Shape10772
 70
    0
 62
    7
  6
CONTINUOUS
  0
LAYER
  5
BAE
330
B81
100
AcDbSymbolTableRecord
100
AcDbLayerTableRecord
  2
Shape10773
 70
    0
 62
    7
  6
CONTINUOUS
  0
LAYER
  5
BAF
330
B81
100
AcDbSymbolTableRecord
100
AcDbLayerTableRecord
  2
Shape10774
 70
    0
 62
    7
  6
CONTINUOUS
  0
LAYER
  5
BB0
330
B81
100
AcDbSymbolTableRecord
100
AcDbLayerTableRecord
  2
Shape10775
 70
    0
 62
    7
  6
CONTINUOUS
  0
LAYER
  5
BB1
330
B81
100
AcDbSymbolTableRecord
100
AcDbLayerTableRecord
  2
Shape10776
 70
    0
 62
    7
  6
CONTINUOUS
  0
LAYER
  5
BB2
330
B81
100
AcDbSymbolTableRecord
100
AcDbLayerTableRecord
  2
Shape10777
 70
    0
 62
    7
  6
CONTINUOUS
  0
LAYER
  5
BB3
330
B81
100
AcDbSymbolTableRecord
100
AcDbLayerTableRecord
  2
Shape10778
 70
    0
 62
    7
  6
CONTINUOUS
  0
LAYER
  5
BB4
330
B81
100
AcDbSymbolTableRecord
100
AcDbLayerTableRecord
  2
Shape10779
 70
    0
 62
    7
  6
CONTINUOUS
  0
LAYER
  5
BB5
330
B81
100
AcDbSymbolTableRecord
100
AcDbLayerTableRecord
  2
Shape10780
 70
    0
 62
    7
  6
CONTINUOUS
  0
LAYER
  5
BB6
330
B81
100
AcDbSymbolTableRecord
100
AcDbLayerTableRecord
  2
Shape10781
 70
    0
 62
    7
  6
CONTINUOUS
  0
LAYER
  5
BB7
330
B81
100
AcDbSymbolTableRecord
100
AcDbLayerTableRecord
  2
Shape10782
 70
    0
 62
    7
  6
CONTINUOUS
  0
LAYER
  5
BB8
330
B81
100
AcDbSymbolTableRecord
100
AcDbLayerTableRecord
  2
Shape10783
 70
    0
 62
    7
  6
CONTINUOUS
  0
LAYER
  5
BB9
330
B81
100
AcDbSymbolTableRecord
100
AcDbLayerTableRecord
  2
Shape10784
 70
    0
 62
    7
  6
CONTINUOUS
  0
LAYER
  5
BBA
330
B81
100
AcDbSymbolTableRecord
100
AcDbLayerTableRecord
  2
Shape10785
 70
    0
 62
    7
  6
CONTINUOUS
  0
LAYER
  5
BBB
330
B81
100
AcDbSymbolTableRecord
100
AcDbLayerTableRecord
  2
Shape10786
 70
    0
 62
    7
  6
CONTINUOUS
  0
LAYER
  5
BBC
330
B81
100
AcDbSymbolTableRecord
100
AcDbLayerTableRecord
  2
Shape10787
 70
    0
 62
    7
  6
CONTINUOUS
  0
LAYER
  5
BBD
330
B81
100
AcDbSymbolTableRecord
100
AcDbLayerTableRecord
  2
Shape10788
 70
    0
 62
    7
  6
CONTINUOUS
  0
LAYER
  5
BBE
330
B81
100
AcDbSymbolTableRecord
100
AcDbLayerTableRecord
  2
Shape10789
 70
    0
 62
    7
  6
CONTINUOUS
  0
LAYER
  5
BBF
330
B81
100
AcDbSymbolTableRecord
100
AcDbLayerTableRecord
  2
Shape10790
 70
    0
 62
    7
  6
CONTINUOUS
  0
LAYER
  5
BC0
330
B81
100
AcDbSymbolTableRecord
100
AcDbLayerTableRecord
  2
Shape10791
 70
    0
 62
    7
  6
CONTINUOUS
  0
LAYER
  5
BC1
330
B81
100
AcDbSymbolTableRecord
100
AcDbLayerTableRecord
  2
Shape10792
 70
    0
 62
    7
  6
CONTINUOUS
  0
LAYER
  5
BC2
330
B81
100
AcDbSymbolTableRecord
100
AcDbLayerTableRecord
  2
Shape10793
 70
    0
 62
    7
  6
CONTINUOUS
  0
LAYER
  5
BC3
330
B81
100
AcDbSymbolTableRecord
100
AcDbLayerTableRecord
  2
Shape10794
 70
    0
 62
    7
  6
CONTINUOUS
  0
LAYER
  5
BC4
330
B81
100
AcDbSymbolTableRecord
100
AcDbLayerTableRecord
  2
Shape10795
 70
    0
 62
    7
  6
CONTINUOUS
  0
LAYER
  5
BC5
330
B81
100
AcDbSymbolTableRecord
100
AcDbLayerTableRecord
  2
Shape10796
 70
    0
 62
    7
  6
CONTINUOUS
  0
LAYER
  5
BC6
330
B81
100
AcDbSymbolTableRecord
100
AcDbLayerTableRecord
  2
Shape10797
 70
    0
 62
    7
  6
CONTINUOUS
  0
LAYER
  5
BC7
330
B81
100
AcDbSymbolTableRecord
100
AcDbLayerTableRecord
  2
Shape10798
 70
    0
 62
    7
  6
CONTINUOUS
  0
LAYER
  5
BC8
330
B81
100
AcDbSymbolTableRecord
100
AcDbLayerTableRecord
  2
Shape10799
 70
    0
 62
    7
  6
CONTINUOUS
  0
LAYER
  5
BC9
330
B81
100
AcDbSymbolTableRecord
100
AcDbLayerTableRecord
  2
Shape10800
 70
    0
 62
    7
  6
CONTINUOUS
  0
LAYER
  5
BCA
330
B81
100
AcDbSymbolTableRecord
100
AcDbLayerTableRecord
  2
Shape10801
 70
    0
 62
    7
  6
CONTINUOUS
  0
LAYER
  5
BCB
330
B81
100
AcDbSymbolTableRecord
100
AcDbLayerTableRecord
  2
Shape10802
 70
    0
 62
    7
  6
CONTINUOUS
  0
LAYER
  5
BCC
330
B81
100
AcDbSymbolTableRecord
100
AcDbLayerTableRecord
  2
Shape10803
 70
    0
 62
    7
  6
CONTINUOUS
  0
LAYER
  5
BCD
330
B81
100
AcDbSymbolTableRecord
100
AcDbLayerTableRecord
  2
Shape10804
 70
    0
 62
    7
  6
CONTINUOUS
  0
LAYER
  5
BCE
330
B81
100
AcDbSymbolTableRecord
100
AcDbLayerTableRecord
  2
Shape10805
 70
    0
 62
    7
  6
CONTINUOUS
  0
LAYER
  5
BCF
330
B81
100
AcDbSymbolTableRecord
100
AcDbLayerTableRecord
  2
Shape10806
 70
    0
 62
    7
  6
CONTINUOUS
  0
LAYER
  5
BD0
330
B81
100
AcDbSymbolTableRecord
100
AcDbLayerTableRecord
  2
Shape10807
 70
    0
 62
    7
  6
CONTINUOUS
  0
LAYER
  5
BD1
330
B81
100
AcDbSymbolTableRecord
100
AcDbLayerTableRecord
  2
Shape10808
 70
    0
 62
    7
  6
CONTINUOUS
  0
LAYER
  5
BD2
330
B81
100
AcDbSymbolTableRecord
100
AcDbLayerTableRecord
  2
Shape10809
 70
    0
 62
    7
  6
CONTINUOUS
  0
LAYER
  5
BD3
330
B81
100
AcDbSymbolTableRecord
100
AcDbLayerTableRecord
  2
Shape10810
 70
    0
 62
    7
  6
CONTINUOUS
  0
LAYER
  5
BD4
330
B81
100
AcDbSymbolTableRecord
100
AcDbLayerTableRecord
  2
Shape10811
 70
    0
 62
    7
  6
CONTINUOUS
  0
LAYER
  5
BD5
330
B81
100
AcDbSymbolTableRecord
100
AcDbLayerTableRecord
  2
Shape10812
 70
    0
 62
    7
  6
CONTINUOUS
  0
LAYER
  5
BD6
330
B81
100
AcDbSymbolTableRecord
100
AcDbLayerTableRecord
  2
Shape10813
 70
    0
 62
    7
  6
CONTINUOUS
  0
LAYER
  5
BD7
330
B81
100
AcDbSymbolTableRecord
100
AcDbLayerTableRecord
  2
Shape10814
 70
    0
 62
    7
  6
CONTINUOUS
  0
LAYER
  5
BD8
330
B81
100
AcDbSymbolTableRecord
100
AcDbLayerTableRecord
  2
Shape10815
 70
    0
 62
    7
  6
CONTINUOUS
  0
LAYER
  5
BD9
330
B81
100
AcDbSymbolTableRecord
100
AcDbLayerTableRecord
  2
Shape10816
 70
    0
 62
    7
  6
CONTINUOUS
  0
LAYER
  5
BDA
330
B81
100
AcDbSymbolTableRecord
100
AcDbLayerTableRecord
  2
Shape10817
 70
    0
 62
    7
  6
CONTINUOUS
  0
LAYER
  5
BDB
330
B81
100
AcDbSymbolTableRecord
100
AcDbLayerTableRecord
  2
Shape10818
 70
    0
 62
    7
  6
CONTINUOUS
  0
LAYER
  5
BDC
330
B81
100
AcDbSymbolTableRecord
100
AcDbLayerTableRecord
  2
Shape10819
 70
    0
 62
    7
  6
CONTINUOUS
  0
LAYER
  5
BDD
330
B81
100
AcDbSymbolTableRecord
100
AcDbLayerTableRecord
  2
Shape10820
 70
    0
 62
    7
  6
CONTINUOUS
  0
LAYER
  5
BDE
330
B81
100
AcDbSymbolTableRecord
100
AcDbLayerTableRecord
  2
Shape10821
 70
    0
 62
    7
  6
CONTINUOUS
  0
LAYER
  5
BDF
330
B81
100
AcDbSymbolTableRecord
100
AcDbLayerTableRecord
  2
Shape10822
 70
    0
 62
    7
  6
CONTINUOUS
  0
LAYER
  5
BE0
330
B81
100
AcDbSymbolTableRecord
100
AcDbLayerTableRecord
  2
Shape10823
 70
    0
 62
    7
  6
CONTINUOUS
  0
LAYER
  5
BE1
330
B81
100
AcDbSymbolTableRecord
100
AcDbLayerTableRecord
  2
Shape10824
 70
    0
 62
    7
  6
CONTINUOUS
  0
LAYER
  5
BE2
330
B81
100
AcDbSymbolTableRecord
100
AcDbLayerTableRecord
  2
Shape10825
 70
    0
 62
    7
  6
CONTINUOUS
  0
LAYER
  5
BE3
330
B81
100
AcDbSymbolTableRecord
100
AcDbLayerTableRecord
  2
Shape10826
 70
    0
 62
    7
  6
CONTINUOUS
  0
LAYER
  5
BE4
330
B81
100
AcDbSymbolTableRecord
100
AcDbLayerTableRecord
  2
Shape10827
 70
    0
 62
    7
  6
CONTINUOUS
  0
LAYER
  5
BE5
330
B81
100
AcDbSymbolTableRecord
100
AcDbLayerTableRecord
  2
Shape10828
 70
    0
 62
    7
  6
CONTINUOUS
  0
LAYER
  5
BE6
330
B81
100
AcDbSymbolTableRecord
100
AcDbLayerTableRecord
  2
Shape10829
 70
    0
 62
    7
  6
CONTINUOUS
  0
LAYER
  5
BE7
330
B81
100
AcDbSymbolTableRecord
100
AcDbLayerTableRecord
  2
Shape10830
 70
    0
 62
    7
  6
CONTINUOUS
  0
LAYER
  5
BE8
330
B81
100
AcDbSymbolTableRecord
100
AcDbLayerTableRecord
  2
Shape10831
 70
    0
 62
    7
  6
CONTINUOUS
  0
LAYER
  5
BE9
330
B81
100
AcDbSymbolTableRecord
100
AcDbLayerTableRecord
  2
Shape10832
 70
    0
 62
    7
  6
CONTINUOUS
  0
LAYER
  5
BEA
330
B81
100
AcDbSymbolTableRecord
100
AcDbLayerTableRecord
  2
Shape10833
 70
    0
 62
    7
  6
CONTINUOUS
  0
LAYER
  5
BEB
330
B81
100
AcDbSymbolTableRecord
100
AcDbLayerTableRecord
  2
Shape10834
 70
    0
 62
    7
  6
CONTINUOUS
  0
LAYER
  5
BEC
330
B81
100
AcDbSymbolTableRecord
100
AcDbLayerTableRecord
  2
Shape10835
 70
    0
 62
    7
  6
CONTINUOUS
  0
LAYER
  5
BED
330
B81
100
AcDbSymbolTableRecord
100
AcDbLayerTableRecord
  2
Shape10836
 70
    0
 62
    7
  6
CONTINUOUS
  0
LAYER
  5
BEE
330
B81
100
AcDbSymbolTableRecord
100
AcDbLayerTableRecord
  2
Shape10837
 70
    0
 62
    7
  6
CONTINUOUS
  0
LAYER
  5
BEF
330
B81
100
AcDbSymbolTableRecord
100
AcDbLayerTableRecord
  2
Shape10838
 70
    0
 62
    7
  6
CONTINUOUS
  0
LAYER
  5
BF0
330
B81
100
AcDbSymbolTableRecord
100
AcDbLayerTableRecord
  2
Shape10839
 70
    0
 62
    7
  6
CONTINUOUS
  0
LAYER
  5
BF1
330
B81
100
AcDbSymbolTableRecord
100
AcDbLayerTableRecord
  2
Shape10840
 70
    0
 62
    7
  6
CONTINUOUS
  0
LAYER
  5
BF2
330
B81
100
AcDbSymbolTableRecord
100
AcDbLayerTableRecord
  2
Shape10841
 70
    0
 62
    7
  6
CONTINUOUS
  0
LAYER
  5
BF3
330
B81
100
AcDbSymbolTableRecord
100
AcDbLayerTableRecord
  2
Shape10842
 70
    0
 62
    7
  6
CONTINUOUS
  0
LAYER
  5
BF4
330
B81
100
AcDbSymbolTableRecord
100
AcDbLayerTableRecord
  2
Shape10843
 70
    0
 62
    7
  6
CONTINUOUS
  0
LAYER
  5
BF5
330
B81
100
AcDbSymbolTableRecord
100
AcDbLayerTableRecord
  2
Shape10844
 70
    0
 62
    7
  6
CONTINUOUS
  0
LAYER
  5
BF6
330
B81
100
AcDbSymbolTableRecord
100
AcDbLayerTableRecord
  2
Shape10845
 70
    0
 62
    7
  6
CONTINUOUS
  0
LAYER
  5
BF7
330
B81
100
AcDbSymbolTableRecord
100
AcDbLayerTableRecord
  2
Shape10846
 70
    0
 62
    7
  6
CONTINUOUS
  0
LAYER
  5
BF8
330
B81
100
AcDbSymbolTableRecord
100
AcDbLayerTableRecord
  2
Shape10847
 70
    0
 62
    7
  6
CONTINUOUS
  0
LAYER
  5
BF9
330
B81
100
AcDbSymbolTableRecord
100
AcDbLayerTableRecord
  2
Shape10848
 70
    0
 62
    7
  6
CONTINUOUS
  0
LAYER
  5
BFA
330
B81
100
AcDbSymbolTableRecord
100
AcDbLayerTableRecord
  2
Shape10849
 70
    0
 62
    7
  6
CONTINUOUS
  0
LAYER
  5
BFB
330
B81
100
AcDbSymbolTableRecord
100
AcDbLayerTableRecord
  2
Shape10850
 70
    0
 62
    7
  6
CONTINUOUS
  0
LAYER
  5
BFC
330
B81
100
AcDbSymbolTableRecord
100
AcDbLayerTableRecord
  2
Shape10851
 70
    0
 62
    7
  6
CONTINUOUS
  0
LAYER
  5
BFD
330
B81
100
AcDbSymbolTableRecord
100
AcDbLayerTableRecord
  2
Shape10852
 70
    0
 62
    7
  6
CONTINUOUS
  0
LAYER
  5
BFE
330
B81
100
AcDbSymbolTableRecord
100
AcDbLayerTableRecord
  2
Shape10853
 70
    0
 62
    7
  6
CONTINUOUS
  0
LAYER
  5
BFF
330
B81
100
AcDbSymbolTableRecord
100
AcDbLayerTableRecord
  2
Shape10854
 70
    0
 62
    7
  6
CONTINUOUS
  0
LAYER
  5
C00
330
B81
100
AcDbSymbolTableRecord
100
AcDbLayerTableRecord
  2
Shape10855
 70
    0
 62
    7
  6
CONTINUOUS
  0
LAYER
  5
C01
330
B81
100
AcDbSymbolTableRecord
100
AcDbLayerTableRecord
  2
Shape10856
 70
    0
 62
    7
  6
CONTINUOUS
  0
LAYER
  5
C02
330
B81
100
AcDbSymbolTableRecord
100
AcDbLayerTableRecord
  2
Shape10857
 70
    0
 62
    7
  6
CONTINUOUS
  0
LAYER
  5
C03
330
B81
100
AcDbSymbolTableRecord
100
AcDbLayerTableRecord
  2
Shape10858
 70
    0
 62
    7
  6
CONTINUOUS
  0
LAYER
  5
C04
330
B81
100
AcDbSymbolTableRecord
100
AcDbLayerTableRecord
  2
Shape10859
 70
    0
 62
    7
  6
CONTINUOUS
  0
LAYER
  5
C05
330
B81
100
AcDbSymbolTableRecord
100
AcDbLayerTableRecord
  2
Shape10860
 70
    0
 62
    7
  6
CONTINUOUS
  0
LAYER
  5
C06
330
B81
100
AcDbSymbolTableRecord
100
AcDbLayerTableRecord
  2
Shape10861
 70
    0
 62
    7
  6
CONTINUOUS
  0
LAYER
  5
C07
330
B81
100
AcDbSymbolTableRecord
100
AcDbLayerTableRecord
  2
Shape10862
 70
    0
 62
    7
  6
CONTINUOUS
  0
LAYER
  5
C08
330
B81
100
AcDbSymbolTableRecord
100
AcDbLayerTableRecord
  2
Shape10863
 70
    0
 62
    7
  6
CONTINUOUS
  0
LAYER
  5
C09
330
B81
100
AcDbSymbolTableRecord
100
AcDbLayerTableRecord
  2
Shape10864
 70
    0
 62
    7
  6
CONTINUOUS
  0
LAYER
  5
C0A
330
B81
100
AcDbSymbolTableRecord
100
AcDbLayerTableRecord
  2
Shape10865
 70
    0
 62
    7
  6
CONTINUOUS
  0
LAYER
  5
C0B
330
B81
100
AcDbSymbolTableRecord
100
AcDbLayerTableRecord
  2
Shape10866
 70
    0
 62
    7
  6
CONTINUOUS
  0
LAYER
  5
C0C
330
B81
100
AcDbSymbolTableRecord
100
AcDbLayerTableRecord
  2
Shape10867
 70
    0
 62
    7
  6
CONTINUOUS
  0
LAYER
  5
C0D
330
B81
100
AcDbSymbolTableRecord
100
AcDbLayerTableRecord
  2
Shape10868
 70
    0
 62
    7
  6
CONTINUOUS
  0
LAYER
  5
C0E
330
B81
100
AcDbSymbolTableRecord
100
AcDbLayerTableRecord
  2
Shape10869
 70
    0
 62
    7
  6
CONTINUOUS
  0
LAYER
  5
C0F
330
B81
100
AcDbSymbolTableRecord
100
AcDbLayerTableRecord
  2
Shape10870
 70
    0
 62
    7
  6
CONTINUOUS
  0
LAYER
  5
C10
330
B81
100
AcDbSymbolTableRecord
100
AcDbLayerTableRecord
  2
Shape10871
 70
    0
 62
    7
  6
CONTINUOUS
  0
LAYER
  5
C11
330
B81
100
AcDbSymbolTableRecord
100
AcDbLayerTableRecord
  2
Shape10872
 70
    0
 62
    7
  6
CONTINUOUS
  0
LAYER
  5
C12
330
B81
100
AcDbSymbolTableRecord
100
AcDbLayerTableRecord
  2
Shape10873
 70
    0
 62
    7
  6
CONTINUOUS
  0
LAYER
  5
C13
330
B81
100
AcDbSymbolTableRecord
100
AcDbLayerTableRecord
  2
Shape10874
 70
    0
 62
    7
  6
CONTINUOUS
  0
LAYER
  5
C14
330
B81
100
AcDbSymbolTableRecord
100
AcDbLayerTableRecord
  2
Shape10875
 70
    0
 62
    7
  6
CONTINUOUS
  0
LAYER
  5
C15
330
B81
100
AcDbSymbolTableRecord
100
AcDbLayerTableRecord
  2
Shape10876
 70
    0
 62
    7
  6
CONTINUOUS
  0
LAYER
  5
C16
330
B81
100
AcDbSymbolTableRecord
100
AcDbLayerTableRecord
  2
Shape10877
 70
    0
 62
    7
  6
CONTINUOUS
  0
LAYER
  5
C17
330
B81
100
AcDbSymbolTableRecord
100
AcDbLayerTableRecord
  2
Shape10878
 70
    0
 62
    7
  6
CONTINUOUS
  0
LAYER
  5
C18
330
B81
100
AcDbSymbolTableRecord
100
AcDbLayerTableRecord
  2
Shape10879
 70
    0
 62
    7
  6
CONTINUOUS
  0
LAYER
  5
C19
330
B81
100
AcDbSymbolTableRecord
100
AcDbLayerTableRecord
  2
Shape10880
 70
    0
 62
    7
  6
CONTINUOUS
  0
LAYER
  5
C1A
330
B81
100
AcDbSymbolTableRecord
100
AcDbLayerTableRecord
  2
Shape10881
 70
    0
 62
    7
  6
CONTINUOUS
  0
LAYER
  5
C1B
330
B81
100
AcDbSymbolTableRecord
100
AcDbLayerTableRecord
  2
Shape10882
 70
    0
 62
    7
  6
CONTINUOUS
  0
LAYER
  5
C1C
330
B81
100
AcDbSymbolTableRecord
100
AcDbLayerTableRecord
  2
Shape10883
 70
    0
 62
    7
  6
CONTINUOUS
  0
LAYER
  5
C1D
330
B81
100
AcDbSymbolTableRecord
100
AcDbLayerTableRecord
  2
Shape10884
 70
    0
 62
    7
  6
CONTINUOUS
  0
LAYER
  5
C1E
330
B81
100
AcDbSymbolTableRecord
100
AcDbLayerTableRecord
  2
Shape10885
 70
    0
 62
    7
  6
CONTINUOUS
  0
LAYER
  5
C1F
330
B81
100
AcDbSymbolTableRecord
100
AcDbLayerTableRecord
  2
Shape10886
 70
    0
 62
    7
  6
CONTINUOUS
  0
LAYER
  5
C20
330
B81
100
AcDbSymbolTableRecord
100
AcDbLayerTableRecord
  2
Shape10887
 70
    0
 62
    7
  6
CONTINUOUS
  0
LAYER
  5
C21
330
B81
100
AcDbSymbolTableRecord
100
AcDbLayerTableRecord
  2
Shape10888
 70
    0
 62
    7
  6
CONTINUOUS
  0
LAYER
  5
C22
330
B81
100
AcDbSymbolTableRecord
100
AcDbLayerTableRecord
  2
Shape10889
 70
    0
 62
    7
  6
CONTINUOUS
  0
LAYER
  5
C23
330
B81
100
AcDbSymbolTableRecord
100
AcDbLayerTableRecord
  2
Shape10890
 70
    0
 62
    7
  6
CONTINUOUS
  0
LAYER
  5
C24
330
B81
100
AcDbSymbolTableRecord
100
AcDbLayerTableRecord
  2
Shape10891
 70
    0
 62
    7
  6
CONTINUOUS
  0
LAYER
  5
C25
330
B81
100
AcDbSymbolTableRecord
100
AcDbLayerTableRecord
  2
Shape10892
 70
    0
 62
    7
  6
CONTINUOUS
  0
LAYER
  5
C26
330
B81
100
AcDbSymbolTableRecord
100
AcDbLayerTableRecord
  2
Shape10893
 70
    0
 62
    7
  6
CONTINUOUS
  0
LAYER
  5
C27
330
B81
100
AcDbSymbolTableRecord
100
AcDbLayerTableRecord
  2
Shape10894
 70
    0
 62
    7
  6
CONTINUOUS
  0
LAYER
  5
C28
330
B81
100
AcDbSymbolTableRecord
100
AcDbLayerTableRecord
  2
Shape10895
 70
    0
 62
    7
  6
CONTINUOUS
  0
LAYER
  5
C29
330
B81
100
AcDbSymbolTableRecord
100
AcDbLayerTableRecord
  2
Shape10896
 70
    0
 62
    7
  6
CONTINUOUS
  0
LAYER
  5
C2A
330
B81
100
AcDbSymbolTableRecord
100
AcDbLayerTableRecord
  2
Shape10897
 70
    0
 62
    7
  6
CONTINUOUS
  0
LAYER
  5
C2B
330
B81
100
AcDbSymbolTableRecord
100
AcDbLayerTableRecord
  2
Shape10898
 70
    0
 62
    7
  6
CONTINUOUS
  0
LAYER
  5
C2C
330
B81
100
AcDbSymbolTableRecord
100
AcDbLayerTableRecord
  2
Shape10899
 70
    0
 62
    7
  6
CONTINUOUS
  0
LAYER
  5
C2D
330
B81
100
AcDbSymbolTableRecord
100
AcDbLayerTableRecord
  2
Shape10900
 70
    0
 62
    7
  6
CONTINUOUS
  0
LAYER
  5
C2E
330
B81
100
AcDbSymbolTableRecord
100
AcDbLayerTableRecord
  2
Shape10901
 70
    0
 62
    7
  6
CONTINUOUS
  0
LAYER
  5
C2F
330
B81
100
AcDbSymbolTableRecord
100
AcDbLayerTableRecord
  2
Shape10902
 70
    0
 62
    7
  6
CONTINUOUS
  0
LAYER
  5
C30
330
B81
100
AcDbSymbolTableRecord
100
AcDbLayerTableRecord
  2
Shape10903
 70
    0
 62
    7
  6
CONTINUOUS
  0
LAYER
  5
C31
330
B81
100
AcDbSymbolTableRecord
100
AcDbLayerTableRecord
  2
Shape10904
 70
    0
 62
    7
  6
CONTINUOUS
  0
LAYER
  5
C32
330
B81
100
AcDbSymbolTableRecord
100
AcDbLayerTableRecord
  2
Shape10905
 70
    0
 62
    7
  6
CONTINUOUS
  0
LAYER
  5
C33
330
B81
100
AcDbSymbolTableRecord
100
AcDbLayerTableRecord
  2
Shape10906
 70
    0
 62
    7
  6
CONTINUOUS
  0
LAYER
  5
C34
330
B81
100
AcDbSymbolTableRecord
100
AcDbLayerTableRecord
  2
Shape10907
 70
    0
 62
    7
  6
CONTINUOUS
  0
LAYER
  5
C35
330
B81
100
AcDbSymbolTableRecord
100
AcDbLayerTableRecord
  2
Shape10908
 70
    0
 62
    7
  6
CONTINUOUS
  0
LAYER
  5
C36
330
B81
100
AcDbSymbolTableRecord
100
AcDbLayerTableRecord
  2
Shape10909
 70
    0
 62
    7
  6
CONTINUOUS
  0
LAYER
  5
C37
330
B81
100
AcDbSymbolTableRecord
100
AcDbLayerTableRecord
  2
Shape10910
 70
    0
 62
    7
  6
CONTINUOUS
  0
LAYER
  5
C38
330
B81
100
AcDbSymbolTableRecord
100
AcDbLayerTableRecord
  2
Shape10911
 70
    0
 62
    7
  6
CONTINUOUS
  0
LAYER
  5
C39
330
B81
100
AcDbSymbolTableRecord
100
AcDbLayerTableRecord
  2
Shape10912
 70
    0
 62
    7
  6
CONTINUOUS
  0
LAYER
  5
C3A
330
B81
100
AcDbSymbolTableRecord
100
AcDbLayerTableRecord
  2
Shape10913
 70
    0
 62
    7
  6
CONTINUOUS
  0
LAYER
  5
C3B
330
B81
100
AcDbSymbolTableRecord
100
AcDbLayerTableRecord
  2
Shape10914
 70
    0
 62
    7
  6
CONTINUOUS
  0
LAYER
  5
C3C
330
B81
100
AcDbSymbolTableRecord
100
AcDbLayerTableRecord
  2
Shape10915
 70
    0
 62
    7
  6
CONTINUOUS
  0
LAYER
  5
C3D
330
B81
100
AcDbSymbolTableRecord
100
AcDbLayerTableRecord
  2
Shape10916
 70
    0
 62
    7
  6
CONTINUOUS
  0
LAYER
  5
C3E
330
B81
100
AcDbSymbolTableRecord
100
AcDbLayerTableRecord
  2
Shape10917
 70
    0
 62
    7
  6
CONTINUOUS
  0
LAYER
  5
C3F
330
B81
100
AcDbSymbolTableRecord
100
AcDbLayerTableRecord
  2
Shape10918
 70
    0
 62
    7
  6
CONTINUOUS
  0
LAYER
  5
C40
330
B81
100
AcDbSymbolTableRecord
100
AcDbLayerTableRecord
  2
Shape10919
 70
    0
 62
    7
  6
CONTINUOUS
  0
LAYER
  5
C41
330
B81
100
AcDbSymbolTableRecord
100
AcDbLayerTableRecord
  2
Shape10920
 70
    0
 62
    7
  6
CONTINUOUS
  0
LAYER
  5
C42
330
B81
100
AcDbSymbolTableRecord
100
AcDbLayerTableRecord
  2
Shape10921
 70
    0
 62
    7
  6
CONTINUOUS
  0
LAYER
  5
C43
330
B81
100
AcDbSymbolTableRecord
100
AcDbLayerTableRecord
  2
Shape10922
 70
    0
 62
    7
  6
CONTINUOUS
  0
LAYER
  5
C44
330
B81
100
AcDbSymbolTableRecord
100
AcDbLayerTableRecord
  2
Shape10923
 70
    0
 62
    7
  6
CONTINUOUS
  0
LAYER
  5
C45
330
B81
100
AcDbSymbolTableRecord
100
AcDbLayerTableRecord
  2
Shape10924
 70
    0
 62
    7
  6
CONTINUOUS
  0
LAYER
  5
C46
330
B81
100
AcDbSymbolTableRecord
100
AcDbLayerTableRecord
  2
Shape10925
 70
    0
 62
    7
  6
CONTINUOUS
  0
LAYER
  5
C47
330
B81
100
AcDbSymbolTableRecord
100
AcDbLayerTableRecord
  2
Shape10926
 70
    0
 62
    7
  6
CONTINUOUS
  0
LAYER
  5
C48
330
B81
100
AcDbSymbolTableRecord
100
AcDbLayerTableRecord
  2
Shape10927
 70
    0
 62
    7
  6
CONTINUOUS
  0
LAYER
  5
C49
330
B81
100
AcDbSymbolTableRecord
100
AcDbLayerTableRecord
  2
Shape10928
 70
    0
 62
    7
  6
CONTINUOUS
  0
LAYER
  5
C4A
330
B81
100
AcDbSymbolTableRecord
100
AcDbLayerTableRecord
  2
Shape10929
 70
    0
 62
    7
  6
CONTINUOUS
  0
LAYER
  5
C4B
330
B81
100
AcDbSymbolTableRecord
100
AcDbLayerTableRecord
  2
Shape10930
 70
    0
 62
    7
  6
CONTINUOUS
  0
LAYER
  5
C4C
330
B81
100
AcDbSymbolTableRecord
100
AcDbLayerTableRecord
  2
Shape10931
 70
    0
 62
    7
  6
CONTINUOUS
  0
LAYER
  5
C4D
330
B81
100
AcDbSymbolTableRecord
100
AcDbLayerTableRecord
  2
Shape10932
 70
    0
 62
    7
  6
CONTINUOUS
  0
LAYER
  5
C4E
330
B81
100
AcDbSymbolTableRecord
100
AcDbLayerTableRecord
  2
Shape10933
 70
    0
 62
    7
  6
CONTINUOUS
  0
LAYER
  5
C4F
330
B81
100
AcDbSymbolTableRecord
100
AcDbLayerTableRecord
  2
Shape10934
 70
    0
 62
    7
  6
CONTINUOUS
  0
LAYER
  5
C50
330
B81
100
AcDbSymbolTableRecord
100
AcDbLayerTableRecord
  2
Shape10935
 70
    0
 62
    7
  6
CONTINUOUS
  0
LAYER
  5
C51
330
B81
100
AcDbSymbolTableRecord
100
AcDbLayerTableRecord
  2
Shape10936
 70
    0
 62
    7
  6
CONTINUOUS
  0
LAYER
  5
C52
330
B81
100
AcDbSymbolTableRecord
100
AcDbLayerTableRecord
  2
Shape10937
 70
    0
 62
    7
  6
CONTINUOUS
  0
LAYER
  5
C53
330
B81
100
AcDbSymbolTableRecord
100
AcDbLayerTableRecord
  2
Shape10938
 70
    0
 62
    7
  6
CONTINUOUS
  0
LAYER
  5
C54
330
B81
100
AcDbSymbolTableRecord
100
AcDbLayerTableRecord
  2
Shape10939
 70
    0
 62
    7
  6
CONTINUOUS
  0
LAYER
  5
C55
330
B81
100
AcDbSymbolTableRecord
100
AcDbLayerTableRecord
  2
Shape10940
 70
    0
 62
    7
  6
CONTINUOUS
  0
LAYER
  5
C56
330
B81
100
AcDbSymbolTableRecord
100
AcDbLayerTableRecord
  2
Shape10941
 70
    0
 62
    7
  6
CONTINUOUS
  0
LAYER
  5
C57
330
B81
100
AcDbSymbolTableRecord
100
AcDbLayerTableRecord
  2
Shape10942
 70
    0
 62
    7
  6
CONTINUOUS
  0
LAYER
  5
C58
330
B81
100
AcDbSymbolTableRecord
100
AcDbLayerTableRecord
  2
Shape10943
 70
    0
 62
    7
  6
CONTINUOUS
  0
LAYER
  5
C59
330
B81
100
AcDbSymbolTableRecord
100
AcDbLayerTableRecord
  2
Shape10944
 70
    0
 62
    7
  6
CONTINUOUS
  0
LAYER
  5
C5A
330
B81
100
AcDbSymbolTableRecord
100
AcDbLayerTableRecord
  2
Shape10945
 70
    0
 62
    7
  6
CONTINUOUS
  0
LAYER
  5
C5B
330
B81
100
AcDbSymbolTableRecord
100
AcDbLayerTableRecord
  2
Shape10946
 70
    0
 62
    7
  6
CONTINUOUS
  0
LAYER
  5
C5C
330
B81
100
AcDbSymbolTableRecord
100
AcDbLayerTableRecord
  2
Shape10947
 70
    0
 62
    7
  6
CONTINUOUS
  0
LAYER
  5
C5D
330
B81
100
AcDbSymbolTableRecord
100
AcDbLayerTableRecord
  2
Shape10948
 70
    0
 62
    7
  6
CONTINUOUS
  0
LAYER
  5
C5E
330
B81
100
AcDbSymbolTableRecord
100
AcDbLayerTableRecord
  2
Shape10949
 70
    0
 62
    7
  6
CONTINUOUS
  0
LAYER
  5
C5F
330
B81
100
AcDbSymbolTableRecord
100
AcDbLayerTableRecord
  2
Shape10950
 70
    0
 62
    7
  6
CONTINUOUS
  0
LAYER
  5
C60
330
B81
100
AcDbSymbolTableRecord
100
AcDbLayerTableRecord
  2
Shape10951
 70
    0
 62
    7
  6
CONTINUOUS
  0
LAYER
  5
C61
330
B81
100
AcDbSymbolTableRecord
100
AcDbLayerTableRecord
  2
Shape10952
 70
    0
 62
    7
  6
CONTINUOUS
  0
LAYER
  5
C62
330
B81
100
AcDbSymbolTableRecord
100
AcDbLayerTableRecord
  2
Shape10953
 70
    0
 62
    7
  6
CONTINUOUS
  0
LAYER
  5
C63
330
B81
100
AcDbSymbolTableRecord
100
AcDbLayerTableRecord
  2
Shape10954
 70
    0
 62
    7
  6
CONTINUOUS
  0
LAYER
  5
C64
330
B81
100
AcDbSymbolTableRecord
100
AcDbLayerTableRecord
  2
Shape10955
 70
    0
 62
    7
  6
CONTINUOUS
  0
LAYER
  5
C65
330
B81
100
AcDbSymbolTableRecord
100
AcDbLayerTableRecord
  2
Shape10956
 70
    0
 62
    7
  6
CONTINUOUS
  0
LAYER
  5
C66
330
B81
100
AcDbSymbolTableRecord
100
AcDbLayerTableRecord
  2
Shape10957
 70
    0
 62
    7
  6
CONTINUOUS
  0
LAYER
  5
C67
330
B81
100
AcDbSymbolTableRecord
100
AcDbLayerTableRecord
  2
Shape10958
 70
    0
 62
    7
  6
CONTINUOUS
  0
LAYER
  5
C68
330
B81
100
AcDbSymbolTableRecord
100
AcDbLayerTableRecord
  2
Shape10959
 70
    0
 62
    7
  6
CONTINUOUS
  0
LAYER
  5
C69
330
B81
100
AcDbSymbolTableRecord
100
AcDbLayerTableRecord
  2
Shape10960
 70
    0
 62
    7
  6
CONTINUOUS
  0
LAYER
  5
C6A
330
B81
100
AcDbSymbolTableRecord
100
AcDbLayerTableRecord
  2
Shape10961
 70
    0
 62
    7
  6
CONTINUOUS
  0
LAYER
  5
C6B
330
B81
100
AcDbSymbolTableRecord
100
AcDbLayerTableRecord
  2
Shape10962
 70
    0
 62
    7
  6
CONTINUOUS
  0
LAYER
  5
C6C
330
B81
100
AcDbSymbolTableRecord
100
AcDbLayerTableRecord
  2
Shape10963
 70
    0
 62
    7
  6
CONTINUOUS
  0
LAYER
  5
C6D
330
B81
100
AcDbSymbolTableRecord
100
AcDbLayerTableRecord
  2
Shape10964
 70
    0
 62
    7
  6
CONTINUOUS
  0
LAYER
  5
C6E
330
B81
100
AcDbSymbolTableRecord
100
AcDbLayerTableRecord
  2
Shape10965
 70
    0
 62
    7
  6
CONTINUOUS
  0
LAYER
  5
C6F
330
B81
100
AcDbSymbolTableRecord
100
AcDbLayerTableRecord
  2
Shape10966
 70
    0
 62
    7
  6
CONTINUOUS
  0
LAYER
  5
C70
330
B81
100
AcDbSymbolTableRecord
100
AcDbLayerTableRecord
  2
Shape10967
 70
    0
 62
    7
  6
CONTINUOUS
  0
LAYER
  5
C71
330
B81
100
AcDbSymbolTableRecord
100
AcDbLayerTableRecord
  2
Shape10968
 70
    0
 62
    7
  6
CONTINUOUS
  0
LAYER
  5
C72
330
B81
100
AcDbSymbolTableRecord
100
AcDbLayerTableRecord
  2
Shape10969
 70
    0
 62
    7
  6
CONTINUOUS
  0
LAYER
  5
C73
330
B81
100
AcDbSymbolTableRecord
100
AcDbLayerTableRecord
  2
Shape10970
 70
    0
 62
    7
  6
CONTINUOUS
  0
LAYER
  5
C74
330
B81
100
AcDbSymbolTableRecord
100
AcDbLayerTableRecord
  2
Shape10971
 70
    0
 62
    7
  6
CONTINUOUS
  0
LAYER
  5
C75
330
B81
100
AcDbSymbolTableRecord
100
AcDbLayerTableRecord
  2
Shape10972
 70
    0
 62
    7
  6
CONTINUOUS
  0
LAYER
  5
C76
330
B81
100
AcDbSymbolTableRecord
100
AcDbLayerTableRecord
  2
Shape10973
 70
    0
 62
    7
  6
CONTINUOUS
  0
LAYER
  5
C77
330
B81
100
AcDbSymbolTableRecord
100
AcDbLayerTableRecord
  2
Shape10974
 70
    0
 62
    7
  6
CONTINUOUS
  0
LAYER
  5
C78
330
B81
100
AcDbSymbolTableRecord
100
AcDbLayerTableRecord
  2
Shape10975
 70
    0
 62
    7
  6
CONTINUOUS
  0
LAYER
  5
C79
330
B81
100
AcDbSymbolTableRecord
100
AcDbLayerTableRecord
  2
Shape10976
 70
    0
 62
    7
  6
CONTINUOUS
  0
LAYER
  5
C7A
330
B81
100
AcDbSymbolTableRecord
100
AcDbLayerTableRecord
  2
Shape10977
 70
    0
 62
    7
  6
CONTINUOUS
  0
LAYER
  5
C7B
330
B81
100
AcDbSymbolTableRecord
100
AcDbLayerTableRecord
  2
Shape10978
 70
    0
 62
    7
  6
CONTINUOUS
  0
LAYER
  5
C7C
330
B81
100
AcDbSymbolTableRecord
100
AcDbLayerTableRecord
  2
Shape10979
 70
    0
 62
    7
  6
CONTINUOUS
  0
LAYER
  5
C7D
330
B81
100
AcDbSymbolTableRecord
100
AcDbLayerTableRecord
  2
Shape10980
 70
    0
 62
    7
  6
CONTINUOUS
  0
LAYER
  5
C7E
330
B81
100
AcDbSymbolTableRecord
100
AcDbLayerTableRecord
  2
Shape10981
 70
    0
 62
    7
  6
CONTINUOUS
  0
LAYER
  5
C7F
330
B81
100
AcDbSymbolTableRecord
100
AcDbLayerTableRecord
  2
Shape10982
 70
    0
 62
    7
  6
CONTINUOUS
  0
LAYER
  5
C80
330
B81
100
AcDbSymbolTableRecord
100
AcDbLayerTableRecord
  2
Shape10983
 70
    0
 62
    7
  6
CONTINUOUS
  0
LAYER
  5
C81
330
B81
100
AcDbSymbolTableRecord
100
AcDbLayerTableRecord
  2
Shape10984
 70
    0
 62
    7
  6
CONTINUOUS
  0
LAYER
  5
C82
330
B81
100
AcDbSymbolTableRecord
100
AcDbLayerTableRecord
  2
Shape10985
 70
    0
 62
    7
  6
CONTINUOUS
  0
LAYER
  5
C83
330
B81
100
AcDbSymbolTableRecord
100
AcDbLayerTableRecord
  2
Shape10986
 70
    0
 62
    7
  6
CONTINUOUS
  0
LAYER
  5
C84
330
B81
100
AcDbSymbolTableRecord
100
AcDbLayerTableRecord
  2
Shape10987
 70
    0
 62
    7
  6
CONTINUOUS
  0
LAYER
  5
C85
330
B81
100
AcDbSymbolTableRecord
100
AcDbLayerTableRecord
  2
Shape10988
 70
    0
 62
    7
  6
CONTINUOUS
  0
LAYER
  5
C86
330
B81
100
AcDbSymbolTableRecord
100
AcDbLayerTableRecord
  2
Shape10989
 70
    0
 62
    7
  6
CONTINUOUS
  0
LAYER
  5
C87
330
B81
100
AcDbSymbolTableRecord
100
AcDbLayerTableRecord
  2
Shape10990
 70
    0
 62
    7
  6
CONTINUOUS
  0
LAYER
  5
C88
330
B81
100
AcDbSymbolTableRecord
100
AcDbLayerTableRecord
  2
Shape10991
 70
    0
 62
    7
  6
CONTINUOUS
  0
LAYER
  5
C89
330
B81
100
AcDbSymbolTableRecord
100
AcDbLayerTableRecord
  2
Shape10992
 70
    0
 62
    7
  6
CONTINUOUS
  0
LAYER
  5
C8A
330
B81
100
AcDbSymbolTableRecord
100
AcDbLayerTableRecord
  2
Shape10993
 70
    0
 62
    7
  6
CONTINUOUS
  0
LAYER
  5
C8B
330
B81
100
AcDbSymbolTableRecord
100
AcDbLayerTableRecord
  2
Shape10994
 70
    0
 62
    7
  6
CONTINUOUS
  0
LAYER
  5
C8C
330
B81
100
AcDbSymbolTableRecord
100
AcDbLayerTableRecord
  2
Shape10995
 70
    0
 62
    7
  6
CONTINUOUS
  0
LAYER
  5
C8D
330
B81
100
AcDbSymbolTableRecord
100
AcDbLayerTableRecord
  2
Shape10996
 70
    0
 62
    7
  6
CONTINUOUS
  0
LAYER
  5
C8E
330
B81
100
AcDbSymbolTableRecord
100
AcDbLayerTableRecord
  2
Shape10997
 70
    0
 62
    7
  6
CONTINUOUS
  0
LAYER
  5
C8F
330
B81
100
AcDbSymbolTableRecord
100
AcDbLayerTableRecord
  2
Shape10998
 70
    0
 62
    7
  6
CONTINUOUS
  0
LAYER
  5
C90
330
B81
100
AcDbSymbolTableRecord
100
AcDbLayerTableRecord
  2
Shape10999
 70
    0
 62
    7
  6
CONTINUOUS
  0
LAYER
  5
C91
330
B81
100
AcDbSymbolTableRecord
100
AcDbLayerTableRecord
  2
Shape11000
 70
    0
 62
    7
  6
CONTINUOUS
  0
LAYER
  5
C92
330
B81
100
AcDbSymbolTableRecord
100
AcDbLayerTableRecord
  2
Shape11001
 70
    0
 62
    7
  6
CONTINUOUS
  0
LAYER
  5
C93
330
B81
100
AcDbSymbolTableRecord
100
AcDbLayerTableRecord
  2
Shape11002
 70
    0
 62
    7
  6
CONTINUOUS
  0
LAYER
  5
C94
330
B81
100
AcDbSymbolTableRecord
100
AcDbLayerTableRecord
  2
Shape11003
 70
    0
 62
    7
  6
CONTINUOUS
  0
LAYER
  5
C95
330
B81
100
AcDbSymbolTableRecord
100
AcDbLayerTableRecord
  2
Shape11004
 70
    0
 62
    7
  6
CONTINUOUS
  0
LAYER
  5
C96
330
B81
100
AcDbSymbolTableRecord
100
AcDbLayerTableRecord
  2
Shape11005
 70
    0
 62
    7
  6
CONTINUOUS
  0
LAYER
  5
C97
330
B81
100
AcDbSymbolTableRecord
100
AcDbLayerTableRecord
  2
Shape11006
 70
    0
 62
    7
  6
CONTINUOUS
  0
LAYER
  5
C98
330
B81
100
AcDbSymbolTableRecord
100
AcDbLayerTableRecord
  2
Shape11007
 70
    0
 62
    7
  6
CONTINUOUS
  0
LAYER
  5
C99
330
B81
100
AcDbSymbolTableRecord
100
AcDbLayerTableRecord
  2
Shape11008
 70
    0
 62
    7
  6
CONTINUOUS
  0
LAYER
  5
C9A
330
B81
100
AcDbSymbolTableRecord
100
AcDbLayerTableRecord
  2
Shape11009
 70
    0
 62
    7
  6
CONTINUOUS
  0
LAYER
  5
C9B
330
B81
100
AcDbSymbolTableRecord
100
AcDbLayerTableRecord
  2
Shape11010
 70
    0
 62
    7
  6
CONTINUOUS
  0
LAYER
  5
C9C
330
B81
100
AcDbSymbolTableRecord
100
AcDbLayerTableRecord
  2
Shape11011
 70
    0
 62
    7
  6
CONTINUOUS
  0
LAYER
  5
C9D
330
B81
100
AcDbSymbolTableRecord
100
AcDbLayerTableRecord
  2
Shape11012
 70
    0
 62
    7
  6
CONTINUOUS
  0
LAYER
  5
C9E
330
B81
100
AcDbSymbolTableRecord
100
AcDbLayerTableRecord
  2
Shape11013
 70
    0
 62
    7
  6
CONTINUOUS
  0
LAYER
  5
C9F
330
B81
100
AcDbSymbolTableRecord
100
AcDbLayerTableRecord
  2
Shape11014
 70
    0
 62
    7
  6
CONTINUOUS
  0
LAYER
  5
CA0
330
B81
100
AcDbSymbolTableRecord
100
AcDbLayerTableRecord
  2
Shape11015
 70
    0
 62
    7
  6
CONTINUOUS
  0
LAYER
  5
CA1
330
B81
100
AcDbSymbolTableRecord
100
AcDbLayerTableRecord
  2
Shape11016
 70
    0
 62
    7
  6
CONTINUOUS
  0
LAYER
  5
CA2
330
B81
100
AcDbSymbolTableRecord
100
AcDbLayerTableRecord
  2
Shape11017
 70
    0
 62
    7
  6
CONTINUOUS
  0
LAYER
  5
CA3
330
B81
100
AcDbSymbolTableRecord
100
AcDbLayerTableRecord
  2
Shape11018
 70
    0
 62
    7
  6
CONTINUOUS
  0
LAYER
  5
CA4
330
B81
100
AcDbSymbolTableRecord
100
AcDbLayerTableRecord
  2
Shape11019
 70
    0
 62
    7
  6
CONTINUOUS
  0
LAYER
  5
CA5
330
B81
100
AcDbSymbolTableRecord
100
AcDbLayerTableRecord
  2
Shape11020
 70
    0
 62
    7
  6
CONTINUOUS
  0
LAYER
  5
CA6
330
B81
100
AcDbSymbolTableRecord
100
AcDbLayerTableRecord
  2
Shape11021
 70
    0
 62
    7
  6
CONTINUOUS
  0
LAYER
  5
CA7
330
B81
100
AcDbSymbolTableRecord
100
AcDbLayerTableRecord
  2
Shape11022
 70
    0
 62
    7
  6
CONTINUOUS
  0
LAYER
  5
CA8
330
B81
100
AcDbSymbolTableRecord
100
AcDbLayerTableRecord
  2
Shape11023
 70
    0
 62
    7
  6
CONTINUOUS
  0
LAYER
  5
CA9
330
B81
100
AcDbSymbolTableRecord
100
AcDbLayerTableRecord
  2
Shape11024
 70
    0
 62
    7
  6
CONTINUOUS
  0
LAYER
  5
CAA
330
B81
100
AcDbSymbolTableRecord
100
AcDbLayerTableRecord
  2
Shape11025
 70
    0
 62
    7
  6
CONTINUOUS
  0
LAYER
  5
CAB
330
B81
100
AcDbSymbolTableRecord
100
AcDbLayerTableRecord
  2
Shape11026
 70
    0
 62
    7
  6
CONTINUOUS
  0
LAYER
  5
CAC
330
B81
100
AcDbSymbolTableRecord
100
AcDbLayerTableRecord
  2
Shape11027
 70
    0
 62
    7
  6
CONTINUOUS
  0
LAYER
  5
CAD
330
B81
100
AcDbSymbolTableRecord
100
AcDbLayerTableRecord
  2
Shape11028
 70
    0
 62
    7
  6
CONTINUOUS
  0
LAYER
  5
CAE
330
B81
100
AcDbSymbolTableRecord
100
AcDbLayerTableRecord
  2
Shape11029
 70
    0
 62
    7
  6
CONTINUOUS
  0
LAYER
  5
CAF
330
B81
100
AcDbSymbolTableRecord
100
AcDbLayerTableRecord
  2
Shape11030
 70
    0
 62
    7
  6
CONTINUOUS
  0
LAYER
  5
CB0
330
B81
100
AcDbSymbolTableRecord
100
AcDbLayerTableRecord
  2
Shape11031
 70
    0
 62
    7
  6
CONTINUOUS
  0
LAYER
  5
CB1
330
B81
100
AcDbSymbolTableRecord
100
AcDbLayerTableRecord
  2
Shape11032
 70
    0
 62
    7
  6
CONTINUOUS
  0
LAYER
  5
CB2
330
B81
100
AcDbSymbolTableRecord
100
AcDbLayerTableRecord
  2
Shape11033
 70
    0
 62
    7
  6
CONTINUOUS
  0
LAYER
  5
CB3
330
B81
100
AcDbSymbolTableRecord
100
AcDbLayerTableRecord
  2
Shape11034
 70
    0
 62
    7
  6
CONTINUOUS
  0
LAYER
  5
CB4
330
B81
100
AcDbSymbolTableRecord
100
AcDbLayerTableRecord
  2
Shape11035
 70
    0
 62
    7
  6
CONTINUOUS
  0
LAYER
  5
CB5
330
B81
100
AcDbSymbolTableRecord
100
AcDbLayerTableRecord
  2
Shape11036
 70
    0
 62
    7
  6
CONTINUOUS
  0
LAYER
  5
CB6
330
B81
100
AcDbSymbolTableRecord
100
AcDbLayerTableRecord
  2
Shape11037
 70
    0
 62
    7
  6
CONTINUOUS
  0
LAYER
  5
CB7
330
B81
100
AcDbSymbolTableRecord
100
AcDbLayerTableRecord
  2
Shape11038
 70
    0
 62
    7
  6
CONTINUOUS
  0
LAYER
  5
CB8
330
B81
100
AcDbSymbolTableRecord
100
AcDbLayerTableRecord
  2
Shape11039
 70
    0
 62
    7
  6
CONTINUOUS
  0
LAYER
  5
CB9
330
B81
100
AcDbSymbolTableRecord
100
AcDbLayerTableRecord
  2
Shape11040
 70
    0
 62
    7
  6
CONTINUOUS
  0
LAYER
  5
CBA
330
B81
100
AcDbSymbolTableRecord
100
AcDbLayerTableRecord
  2
Shape11041
 70
    0
 62
    7
  6
CONTINUOUS
  0
LAYER
  5
CBB
330
B81
100
AcDbSymbolTableRecord
100
AcDbLayerTableRecord
  2
Shape11042
 70
    0
 62
    7
  6
CONTINUOUS
  0
LAYER
  5
CBC
330
B81
100
AcDbSymbolTableRecord
100
AcDbLayerTableRecord
  2
Shape11043
 70
    0
 62
    7
  6
CONTINUOUS
  0
LAYER
  5
CBD
330
B81
100
AcDbSymbolTableRecord
100
AcDbLayerTableRecord
  2
Shape11044
 70
    0
 62
    7
  6
CONTINUOUS
  0
LAYER
  5
CBE
330
B81
100
AcDbSymbolTableRecord
100
AcDbLayerTableRecord
  2
Shape11045
 70
    0
 62
    7
  6
CONTINUOUS
  0
LAYER
  5
CBF
330
B81
100
AcDbSymbolTableRecord
100
AcDbLayerTableRecord
  2
Shape11046
 70
    0
 62
    7
  6
CONTINUOUS
  0
LAYER
  5
CC0
330
B81
100
AcDbSymbolTableRecord
100
AcDbLayerTableRecord
  2
Shape11047
 70
    0
 62
    7
  6
CONTINUOUS
  0
LAYER
  5
CC1
330
B81
100
AcDbSymbolTableRecord
100
AcDbLayerTableRecord
  2
Shape11048
 70
    0
 62
    7
  6
CONTINUOUS
  0
LAYER
  5
CC2
330
B81
100
AcDbSymbolTableRecord
100
AcDbLayerTableRecord
  2
Shape11049
 70
    0
 62
    7
  6
CONTINUOUS
  0
LAYER
  5
CC3
330
B81
100
AcDbSymbolTableRecord
100
AcDbLayerTableRecord
  2
Shape11050
 70
    0
 62
    7
  6
CONTINUOUS
  0
LAYER
  5
CC4
330
B81
100
AcDbSymbolTableRecord
100
AcDbLayerTableRecord
  2
Shape11051
 70
    0
 62
    7
  6
CONTINUOUS
  0
LAYER
  5
CC5
330
B81
100
AcDbSymbolTableRecord
100
AcDbLayerTableRecord
  2
Shape11052
 70
    0
 62
    7
  6
CONTINUOUS
  0
LAYER
  5
CC6
330
B81
100
AcDbSymbolTableRecord
100
AcDbLayerTableRecord
  2
Shape11053
 70
    0
 62
    7
  6
CONTINUOUS
  0
LAYER
  5
CC7
330
B81
100
AcDbSymbolTableRecord
100
AcDbLayerTableRecord
  2
Shape11054
 70
    0
 62
    7
  6
CONTINUOUS
  0
LAYER
  5
CC8
330
B81
100
AcDbSymbolTableRecord
100
AcDbLayerTableRecord
  2
Shape11055
 70
    0
 62
    7
  6
CONTINUOUS
  0
LAYER
  5
CC9
330
B81
100
AcDbSymbolTableRecord
100
AcDbLayerTableRecord
  2
Shape11056
 70
    0
 62
    7
  6
CONTINUOUS
  0
LAYER
  5
CCA
330
B81
100
AcDbSymbolTableRecord
100
AcDbLayerTableRecord
  2
Shape11057
 70
    0
 62
    7
  6
CONTINUOUS
  0
LAYER
  5
CCB
330
B81
100
AcDbSymbolTableRecord
100
AcDbLayerTableRecord
  2
Shape11058
 70
    0
 62
    7
  6
CONTINUOUS
  0
LAYER
  5
CCC
330
B81
100
AcDbSymbolTableRecord
100
AcDbLayerTableRecord
  2
Shape11059
 70
    0
 62
    7
  6
CONTINUOUS
  0
LAYER
  5
CCD
330
B81
100
AcDbSymbolTableRecord
100
AcDbLayerTableRecord
  2
Shape11060
 70
    0
 62
    7
  6
CONTINUOUS
  0
LAYER
  5
CCE
330
B81
100
AcDbSymbolTableRecord
100
AcDbLayerTableRecord
  2
Shape11061
 70
    0
 62
    7
  6
CONTINUOUS
  0
LAYER
  5
CCF
330
B81
100
AcDbSymbolTableRecord
100
AcDbLayerTableRecord
  2
Shape11062
 70
    0
 62
    7
  6
CONTINUOUS
  0
LAYER
  5
CD0
330
B81
100
AcDbSymbolTableRecord
100
AcDbLayerTableRecord
  2
Shape11063
 70
    0
 62
    7
  6
CONTINUOUS
  0
LAYER
  5
CD1
330
B81
100
AcDbSymbolTableRecord
100
AcDbLayerTableRecord
  2
Shape11064
 70
    0
 62
    7
  6
CONTINUOUS
  0
LAYER
  5
CD2
330
B81
100
AcDbSymbolTableRecord
100
AcDbLayerTableRecord
  2
Shape11065
 70
    0
 62
    7
  6
CONTINUOUS
  0
LAYER
  5
CD3
330
B81
100
AcDbSymbolTableRecord
100
AcDbLayerTableRecord
  2
Shape11066
 70
    0
 62
    7
  6
CONTINUOUS
  0
LAYER
  5
CD4
330
B81
100
AcDbSymbolTableRecord
100
AcDbLayerTableRecord
  2
Shape11067
 70
    0
 62
    7
  6
CONTINUOUS
  0
LAYER
  5
CD5
330
B81
100
AcDbSymbolTableRecord
100
AcDbLayerTableRecord
  2
Shape11068
 70
    0
 62
    7
  6
CONTINUOUS
  0
LAYER
  5
CD6
330
B81
100
AcDbSymbolTableRecord
100
AcDbLayerTableRecord
  2
Shape11069
 70
    0
 62
    7
  6
CONTINUOUS
  0
LAYER
  5
CD7
330
B81
100
AcDbSymbolTableRecord
100
AcDbLayerTableRecord
  2
Shape11070
 70
    0
 62
    7
  6
CONTINUOUS
  0
LAYER
  5
CD8
330
B81
100
AcDbSymbolTableRecord
100
AcDbLayerTableRecord
  2
Shape11071
 70
    0
 62
    7
  6
CONTINUOUS
  0
LAYER
  5
CD9
330
B81
100
AcDbSymbolTableRecord
100
AcDbLayerTableRecord
  2
Shape11072
 70
    0
 62
    7
  6
CONTINUOUS
  0
LAYER
  5
CDA
330
B81
100
AcDbSymbolTableRecord
100
AcDbLayerTableRecord
  2
Shape11073
 70
    0
 62
    7
  6
CONTINUOUS
  0
LAYER
  5
CDB
330
B81
100
AcDbSymbolTableRecord
100
AcDbLayerTableRecord
  2
Shape11074
 70
    0
 62
    7
  6
CONTINUOUS
  0
LAYER
  5
CDC
330
B81
100
AcDbSymbolTableRecord
100
AcDbLayerTableRecord
  2
Shape11075
 70
    0
 62
    7
  6
CONTINUOUS
  0
LAYER
  5
CDD
330
B81
100
AcDbSymbolTableRecord
100
AcDbLayerTableRecord
  2
Shape11076
 70
    0
 62
    7
  6
CONTINUOUS
  0
LAYER
  5
CDE
330
B81
100
AcDbSymbolTableRecord
100
AcDbLayerTableRecord
  2
Shape11077
 70
    0
 62
    7
  6
CONTINUOUS
  0
LAYER
  5
CDF
330
B81
100
AcDbSymbolTableRecord
100
AcDbLayerTableRecord
  2
Shape11078
 70
    0
 62
    7
  6
CONTINUOUS
  0
LAYER
  5
CE0
330
B81
100
AcDbSymbolTableRecord
100
AcDbLayerTableRecord
  2
Shape11079
 70
    0
 62
    7
  6
CONTINUOUS
  0
LAYER
  5
CE1
330
B81
100
AcDbSymbolTableRecord
100
AcDbLayerTableRecord
  2
Shape11080
 70
    0
 62
    7
  6
CONTINUOUS
  0
LAYER
  5
CE2
330
B81
100
AcDbSymbolTableRecord
100
AcDbLayerTableRecord
  2
Shape11081
 70
    0
 62
    7
  6
CONTINUOUS
  0
LAYER
  5
CE3
330
B81
100
AcDbSymbolTableRecord
100
AcDbLayerTableRecord
  2
Shape11082
 70
    0
 62
    7
  6
CONTINUOUS
  0
LAYER
  5
CE4
330
B81
100
AcDbSymbolTableRecord
100
AcDbLayerTableRecord
  2
Shape11083
 70
    0
 62
    7
  6
CONTINUOUS
  0
LAYER
  5
CE5
330
B81
100
AcDbSymbolTableRecord
100
AcDbLayerTableRecord
  2
Shape11084
 70
    0
 62
    7
  6
CONTINUOUS
  0
LAYER
  5
CE6
330
B81
100
AcDbSymbolTableRecord
100
AcDbLayerTableRecord
  2
Shape11085
 70
    0
 62
    7
  6
CONTINUOUS
  0
LAYER
  5
CE7
330
B81
100
AcDbSymbolTableRecord
100
AcDbLayerTableRecord
  2
Shape11086
 70
    0
 62
    7
  6
CONTINUOUS
  0
LAYER
  5
CE8
330
B81
100
AcDbSymbolTableRecord
100
AcDbLayerTableRecord
  2
Shape11087
 70
    0
 62
    7
  6
CONTINUOUS
  0
LAYER
  5
CE9
330
B81
100
AcDbSymbolTableRecord
100
AcDbLayerTableRecord
  2
Shape11088
 70
    0
 62
    7
  6
CONTINUOUS
  0
LAYER
  5
CEA
330
B81
100
AcDbSymbolTableRecord
100
AcDbLayerTableRecord
  2
Shape11089
 70
    0
 62
    7
  6
CONTINUOUS
  0
LAYER
  5
CEB
330
B81
100
AcDbSymbolTableRecord
100
AcDbLayerTableRecord
  2
Shape11090
 70
    0
 62
    7
  6
CONTINUOUS
  0
LAYER
  5
CEC
330
B81
100
AcDbSymbolTableRecord
100
AcDbLayerTableRecord
  2
Shape11091
 70
    0
 62
    7
  6
CONTINUOUS
  0
LAYER
  5
CED
330
B81
100
AcDbSymbolTableRecord
100
AcDbLayerTableRecord
  2
Shape11092
 70
    0
 62
    7
  6
CONTINUOUS
  0
LAYER
  5
CEE
330
B81
100
AcDbSymbolTableRecord
100
AcDbLayerTableRecord
  2
Shape11093
 70
    0
 62
    7
  6
CONTINUOUS
  0
LAYER
  5
CEF
330
B81
100
AcDbSymbolTableRecord
100
AcDbLayerTableRecord
  2
Shape11094
 70
    0
 62
    7
  6
CONTINUOUS
  0
LAYER
  5
CF0
330
B81
100
AcDbSymbolTableRecord
100
AcDbLayerTableRecord
  2
Shape11095
 70
    0
 62
    7
  6
CONTINUOUS
  0
LAYER
  5
CF1
330
B81
100
AcDbSymbolTableRecord
100
AcDbLayerTableRecord
  2
Shape11096
 70
    0
 62
    7
  6
CONTINUOUS
  0
LAYER
  5
CF2
330
B81
100
AcDbSymbolTableRecord
100
AcDbLayerTableRecord
  2
Shape11097
 70
    0
 62
    7
  6
CONTINUOUS
  0
LAYER
  5
CF3
330
B81
100
AcDbSymbolTableRecord
100
AcDbLayerTableRecord
  2
Shape11098
 70
    0
 62
    7
  6
CONTINUOUS
  0
LAYER
  5
CF4
330
B81
100
AcDbSymbolTableRecord
100
AcDbLayerTableRecord
  2
Shape11099
 70
    0
 62
    7
  6
CONTINUOUS
  0
LAYER
  5
CF5
330
B81
100
AcDbSymbolTableRecord
100
AcDbLayerTableRecord
  2
Shape11100
 70
    0
 62
    7
  6
CONTINUOUS
  0
LAYER
  5
CF6
330
B81
100
AcDbSymbolTableRecord
100
AcDbLayerTableRecord
  2
Shape11101
 70
    0
 62
    7
  6
CONTINUOUS
  0
LAYER
  5
CF7
330
B81
100
AcDbSymbolTableRecord
100
AcDbLayerTableRecord
  2
Shape11102
 70
    0
 62
    7
  6
CONTINUOUS
  0
LAYER
  5
CF8
330
B81
100
AcDbSymbolTableRecord
100
AcDbLayerTableRecord
  2
Shape11103
 70
    0
 62
    7
  6
CONTINUOUS
  0
LAYER
  5
CF9
330
B81
100
AcDbSymbolTableRecord
100
AcDbLayerTableRecord
  2
Shape11104
 70
    0
 62
    7
  6
CONTINUOUS
  0
LAYER
  5
CFA
330
B81
100
AcDbSymbolTableRecord
100
AcDbLayerTableRecord
  2
Shape11105
 70
    0
 62
    7
  6
CONTINUOUS
  0
LAYER
  5
CFB
330
B81
100
AcDbSymbolTableRecord
100
AcDbLayerTableRecord
  2
Shape11106
 70
    0
 62
    7
  6
CONTINUOUS
  0
LAYER
  5
CFC
330
B81
100
AcDbSymbolTableRecord
100
AcDbLayerTableRecord
  2
Shape12753
 70
    0
 62
    7
  6
CONTINUOUS
  0
ENDTAB
  0
TABLE
  2
STYLE
  5
70
330
0
100
AcDbSymbolTable
 70
     2
  0
STYLE
  5
71
330
70
100
AcDbSymbolTableRecord
100
AcDbTextStyleTableRecord
  2
STANDARD
 70
     0
 40
0.0
 41
1.0
 50
0.0
 71
     0
 42
2.5
  3
arial.ttf
  4

  0
STYLE
  5
72
330
70
100
AcDbSymbolTableRecord
100
AcDbTextStyleTableRecord
  2
ANNOTATIVE
 70
     0
 40
0.0
 41
1.0
 50
0.0
 71
     0
 42
2.5
  3
arial.ttf
  4

  0
ENDTAB
  0
TABLE
  2
VIEW
  5
73
330
0
100
AcDbSymbolTable
 70
     0
  0
ENDTAB
  0
TABLE
  2
UCS
  5
74
330
0
100
AcDbSymbolTable
 70
     0
  0
ENDTAB
  0
TABLE
  2
APPID
  5
75
330
0
100
AcDbSymbolTable
 70
     2
  0
APPID
  5
76
330
75
100
AcDbSymbolTableRecord
100
AcDbRegAppTableRecord
  2
ACAD
 70
     0
  0
APPID
  5
77
330
75
100
AcDbSymbolTableRecord
100
AcDbRegAppTableRecord
  2
ACADANNOTATIVE
 70
     0
  0
ENDTAB
  0
TABLE
  2
DIMSTYLE
  5
78
330
0
100
AcDbSymbolTable
 70
     2
  0
DIMSTYLE
105
79
330
78
100
AcDbSymbolTableRecord
100
AcDbDimStyleTableRecord
  2
STANDARD
 70
     0
  3

  4

  5

  6

  7

 40
0.0
 41
2.5
 42
0.625
 43
3.75
 44
1.25
 45
0.0
 46
0.0
 47
0.0
 48
0.0
140
2.5
141
2.5
142
0.0
143
0.03937007874016
144
1.0
145
0.0
146
1.0
147
0.625
 71
     0
 72
     0
 73
     0
 74
     0
 75
     0
 76
     0
 77
     1
 78
     8
170
     0
171
     3
172
     1
173
     0
174
     0
175
     0
176
     0
177
     0
178
     0
270
     2
271
     2
272
     2
273
     2
274
     3
340
71
275
     0
280
     0
281
     0
282
     0
283
     0
284
     8
285
     0
286
     0
287
     3
288
     0
  0
ENDTAB
  0
TABLE
  2
BLOCK_RECORD
  5
A01
330
0
100
AcDbSymbolTable
  70
5
  0
BLOCK_RECORD
  5
A02
330
A01
100
AcDbSymbolTableRecord
100
AcDbBlockTableRecord
  2
*MODEL_SPACE
  0
BLOCK_RECORD
  5
A03
330
A01
100
AcDbSymbolTableRecord
100
AcDbBlockTableRecord
  2
*PAPER_SPACE
  0
ENDTAB
  0
ENDSEC
  0
SECTION
  2
BLOCKS
  0
BLOCK
  5
A04
330
A02
100
AcDbEntity
  8
0
100
AcDbBlockBegin
  2
*MODEL_SPACE
 70
   0
 10
0
 20
0
 30
0
  3
*MODEL_SPACE
  1
 
  0
ENDBLK
  5
A05
330
A02
100
AcDbEntity
  8
0
100
AcDbBlockEnd
  0
BLOCK
  5
A06
330
A03
100
AcDbEntity
 67
1
  8
0
100
AcDbBlockBegin
  2
*PAPER_SPACE
 70
   0
 10
0
 20
0
 30
0
  3
*PAPER_SPACE
  1
 
  0
ENDBLK
  5
A07
330
A03
100
AcDbEntity
 67
    1
  8
0
100
AcDbBlockEnd
  0
ENDSEC
  0
SECTION
  2
ENTITIES
  0
CIRCLE
  5
A08
330
A02
100
AcDbEntity
  8
Shape10731
100
AcDbCircle
 10
-72.864
 20
153.599
 40
1.1
  0
CIRCLE
  5
A09
330
A02
100
AcDbEntity
  8
Shape10732
100
AcDbCircle
 10
-162.864
 20
153.599
 40
1.1
  0
CIRCLE
  5
A0A
330
A02
100
AcDbEntity
  8
Shape10733
100
AcDbCircle
 10
-252.864
 20
153.599
 40
1.1
  0
CIRCLE
  5
A0B
330
A02
100
AcDbEntity
  8
Shape10734
100
AcDbCircle
 10
-72.864
 20
70.2006
 40
1.1
  0
CIRCLE
  5
A0C
330
A02
100
AcDbEntity
  8
Shape10735
100
AcDbCircle
 10
-162.864
 20
70.2006
 40
1.1
  0
CIRCLE
  5
A0D
330
A02
100
AcDbEntity
  8
Shape10736
100
AcDbCircle
 10
-252.864
 20
70.2006
 40
1.1
  0
LINE
  5
A0E
330
A02
100
AcDbEntity
  8
Shape10737
100
AcDbLine
 10
-69.864
 20
68.9506
 30
0
 11
-69.864
 21
74.2006
 31
0
  0
ARC
  5
A0F
330
A02
100
AcDbEntity
  8
Shape10738
100
AcDbCircle
 10
-70.364
 20
74.2006
 30
0
 40
0.5
100
AcDbArc
 50
0
 51
180
  0
LINE
  5
A10
330
A02
100
AcDbEntity
  8
Shape10739
100
AcDbLine
 10
-70.864
 20
74.2006
 30
0
 11
-70.864
 21
70.2006
 31
0
  0
ARC
  5
A11
330
A02
100
AcDbEntity
  8
Shape10740
100
AcDbCircle
 10
-72.864
 20
70.2006
 30
0
 40
2
100
AcDbArc
 50
180
 51
0
  0
LINE
  5
A12
330
A02
100
AcDbEntity
  8
Shape10741
100
AcDbLine
 10
-74.864
 20
70.2006
 30
0
 11
-74.864
 21
74.2006
 31
0
  0
ARC
  5
A13
330
A02
100
AcDbEntity
  8
Shape10742
100
AcDbCircle
 10
-75.364
 20
74.2006
 30
0
 40
0.5
100
AcDbArc
 50
0
 51
180
  0
LINE
  5
A14
330
A02
100
AcDbEntity
  8
Shape10743
100
AcDbLine
 10
-75.864
 20
74.2006
 30
0
 11
-75.864
 21
68.9506
 31
0
  0
LINE
  5
A15
330
A02
100
AcDbEntity
  8
Shape10744
100
AcDbLine
 10
-75.864
 20
68.9506
 30
0
 11
-93.864
 21
68.9506
 31
0
  0
ARC
  5
A16
330
A02
100
AcDbEntity
  8
Shape10745
100
AcDbCircle
 10
-93.864
 20
69.9506
 30
0
 40
1
100
AcDbArc
 50
180
 51
-90
  0
LINE
  5
A17
330
A02
100
AcDbEntity
  8
Shape10746
100
AcDbLine
 10
-94.864
 20
69.9506
 30
0
 11
-94.864
 21
71.4506
 31
0
  0
ARC
  5
A18
330
A02
100
AcDbEntity
  8
Shape10747
100
AcDbCircle
 10
-93.864
 20
71.4506
 30
0
 40
1
100
AcDbArc
 50
90
 51
180
  0
LINE
  5
A19
330
A02
100
AcDbEntity
  8
Shape10748
100
AcDbLine
 10
-93.864
 20
72.4506
 30
0
 11
-83.364
 21
72.4506
 31
0
  0
ARC
  5
A1A
330
A02
100
AcDbEntity
  8
Shape10749
100
AcDbCircle
 10
-83.364
 20
72.9506
 30
0
 40
0.5
100
AcDbArc
 50
-90
 51
0
  0
LINE
  5
A1B
330
A02
100
AcDbEntity
  8
Shape10750
100
AcDbLine
 10
-82.864
 20
72.9506
 30
0
 11
-82.864
 21
73.1997
 31
0
  0
ARC
  5
A1C
330
A02
100
AcDbEntity
  8
Shape10751
100
AcDbCircle
 10
-83.364
 20
73.1997
 30
0
 40
0.5
100
AcDbArc
 50
0
 51
90
  0
LINE
  5
A1D
330
A02
100
AcDbEntity
  8
Shape10752
100
AcDbLine
 10
-83.364
 20
73.6997
 30
0
 11
-152.364
 21
73.6997
 31
0
  0
ARC
  5
A1E
330
A02
100
AcDbEntity
  8
Shape10753
100
AcDbCircle
 10
-152.364
 20
73.1997
 30
0
 40
0.5
100
AcDbArc
 50
90
 51
180
  0
LINE
  5
A1F
330
A02
100
AcDbEntity
  8
Shape10754
100
AcDbLine
 10
-152.864
 20
73.1997
 30
0
 11
-152.864
 21
72.9506
 31
0
  0
ARC
  5
A20
330
A02
100
AcDbEntity
  8
Shape10755
100
AcDbCircle
 10
-152.364
 20
72.9506
 30
0
 40
0.5
100
AcDbArc
 50
180
 51
-90
  0
LINE
  5
A21
330
A02
100
AcDbEntity
  8
Shape10756
100
AcDbLine
 10
-152.364
 20
72.4506
 30
0
 11
-141.864
 21
72.4506
 31
0
  0
ARC
  5
A22
330
A02
100
AcDbEntity
  8
Shape10757
100
AcDbCircle
 10
-141.864
 20
71.4506
 30
0
 40
1
100
AcDbArc
 50
0
 51
90
  0
LINE
  5
A23
330
A02
100
AcDbEntity
  8
Shape10758
100
AcDbLine
 10
-140.864
 20
71.4506
 30
0
 11
-140.864
 21
69.9506
 31
0
  0
ARC
  5
A24
330
A02
100
AcDbEntity
  8
Shape10759
100
AcDbCircle
 10
-141.864
 20
69.9506
 30
0
 40
1
100
AcDbArc
 50
-90
 51
0
  0
LINE
  5
A25
330
A02
100
AcDbEntity
  8
Shape10760
100
AcDbLine
 10
-141.864
 20
68.9506
 30
0
 11
-159.864
 21
68.9506
 31
0
  0
LINE
  5
A26
330
A02
100
AcDbEntity
  8
Shape10761
100
AcDbLine
 10
-159.864
 20
68.9506
 30
0
 11
-159.864
 21
74.2006
 31
0
  0
ARC
  5
A27
330
A02
100
AcDbEntity
  8
Shape10762
100
AcDbCircle
 10
-160.364
 20
74.2006
 30
0
 40
0.5
100
AcDbArc
 50
0
 51
180
  0
LINE
  5
A28
330
A02
100
AcDbEntity
  8
Shape10763
100
AcDbLine
 10
-160.864
 20
74.2006
 30
0
 11
-160.864
 21
70.2006
 31
0
  0
ARC
  5
A29
330
A02
100
AcDbEntity
  8
Shape10764
100
AcDbCircle
 10
-162.864
 20
70.2006
 30
0
 40
2
100
AcDbArc
 50
180
 51
0
  0
LINE
  5
A2A
330
A02
100
AcDbEntity
  8
Shape10765
100
AcDbLine
 10
-164.864
 20
70.2006
 30
0
 11
-164.864
 21
74.2006
 31
0
  0
ARC
  5
A2B
330
A02
100
AcDbEntity
  8
Shape10766
100
AcDbCircle
 10
-165.364
 20
74.2006
 30
0
 40
0.5
100
AcDbArc
 50
0
 51
180
  0
LINE
  5
A2C
330
A02
100
AcDbEntity
  8
Shape10767
100
AcDbLine
 10
-165.864
 20
74.2006
 30
0
 11
-165.864
 21
68.9506
 31
0
  0
LINE
  5
A2D
330
A02
100
AcDbEntity
  8
Shape10768
100
AcDbLine
 10
-165.864
 20
68.9506
 30
0
 11
-183.864
 21
68.9506
 31
0
  0
ARC
  5
A2E
330
A02
100
AcDbEntity
  8
Shape10769
100
AcDbCircle
 10
-183.864
 20
69.9506
 30
0
 40
1
100
AcDbArc
 50
180
 51
-90
  0
LINE
  5
A2F
330
A02
100
AcDbEntity
  8
Shape10770
100
AcDbLine
 10
-184.864
 20
69.9506
 30
0
 11
-184.864
 21
71.4506
 31
0
  0
ARC
  5
A30
330
A02
100
AcDbEntity
  8
Shape10771
100
AcDbCircle
 10
-183.864
 20
71.4506
 30
0
 40
1
100
AcDbArc
 50
90
 51
180
  0
LINE
  5
A31
330
A02
100
AcDbEntity
  8
Shape10772
100
AcDbLine
 10
-183.864
 20
72.4506
 30
0
 11
-173.364
 21
72.4506
 31
0
  0
ARC
  5
A32
330
A02
100
AcDbEntity
  8
Shape10773
100
AcDbCircle
 10
-173.364
 20
72.9506
 30
0
 40
0.5
100
AcDbArc
 50
-90
 51
0
  0
LINE
  5
A33
330
A02
100
AcDbEntity
  8
Shape10774
100
AcDbLine
 10
-172.864
 20
72.9506
 30
0
 11
-172.864
 21
73.1997
 31
0
  0
ARC
  5
A34
330
A02
100
AcDbEntity
  8
Shape10775
100
AcDbCircle
 10
-173.364
 20
73.1997
 30
0
 40
0.5
100
AcDbArc
 50
0
 51
90
  0
LINE
  5
A35
330
A02
100
AcDbEntity
  8
Shape10776
100
AcDbLine
 10
-173.364
 20
73.6997
 30
0
 11
-242.364
 21
73.6997
 31
0
  0
ARC
  5
A36
330
A02
100
AcDbEntity
  8
Shape10777
100
AcDbCircle
 10
-242.364
 20
73.1997
 30
0
 40
0.5
100
AcDbArc
 50
90
 51
180
  0
LINE
  5
A37
330
A02
100
AcDbEntity
  8
Shape10778
100
AcDbLine
 10
-242.864
 20
73.1997
 30
0
 11
-242.864
 21
72.9506
 31
0
  0
ARC
  5
A38
330
A02
100
AcDbEntity
  8
Shape10779
100
AcDbCircle
 10
-242.364
 20
72.9506
 30
0
 40
0.5
100
AcDbArc
 50
180
 51
-90
  0
LINE
  5
A39
330
A02
100
AcDbEntity
  8
Shape10780
100
AcDbLine
 10
-242.364
 20
72.4506
 30
0
 11
-231.864
 21
72.4506
 31
0
  0
ARC
  5
A3A
330
A02
100
AcDbEntity
  8
Shape10781
100
AcDbCircle
 10
-231.864
 20
71.4506
 30
0
 40
1
100
AcDbArc
 50
0
 51
90
  0
LINE
  5
A3B
330
A02
100
AcDbEntity
  8
Shape10782
100
AcDbLine
 10
-230.864
 20
71.4506
 30
0
 11
-230.864
 21
69.9506
 31
0
  0
ARC
  5
A3C
330
A02
100
AcDbEntity
  8
Shape10783
100
AcDbCircle
 10
-231.864
 20
69.9506
 30
0
 40
1
100
AcDbArc
 50
-90
 51
0
  0
LINE
  5
A3D
330
A02
100
AcDbEntity
  8
Shape10784
100
AcDbLine
 10
-231.864
 20
68.9506
 30
0
 11
-249.864
 21
68.9506
 31
0
  0
LINE
  5
A3E
330
A02
100
AcDbEntity
  8
Shape10785
100
AcDbLine
 10
-249.864
 20
68.9506
 30
0
 11
-249.864
 21
74.2006
 31
0
  0
ARC
  5
A3F
330
A02
100
AcDbEntity
  8
Shape10786
100
AcDbCircle
 10
-250.364
 20
74.2006
 30
0
 40
0.5
100
AcDbArc
 50
0
 51
180
  0
LINE
  5
A40
330
A02
100
AcDbEntity
  8
Shape10787
100
AcDbLine
 10
-250.864
 20
74.2006
 30
0
 11
-250.864
 21
70.2006
 31
0
  0
ARC
  5
A41
330
A02
100
AcDbEntity
  8
Shape10788
100
AcDbCircle
 10
-252.864
 20
70.2006
 30
0
 40
2
100
AcDbArc
 50
180
 51
0
  0
LINE
  5
A42
330
A02
100
AcDbEntity
  8
Shape10789
100
AcDbLine
 10
-254.864
 20
70.2006
 30
0
 11
-254.864
 21
74.2006
 31
0
  0
ARC
  5
A43
330
A02
100
AcDbEntity
  8
Shape10790
100
AcDbCircle
 10
-255.364
 20
74.2006
 30
0
 40
0.5
100
AcDbArc
 50
0
 51
180
  0
LINE
  5
A44
330
A02
100
AcDbEntity
  8
Shape10791
100
AcDbLine
 10
-255.864
 20
74.2006
 30
0
 11
-255.864
 21
68.9506
 31
0
  0
LINE
  5
A45
330
A02
100
AcDbEntity
  8
Shape10792
100
AcDbLine
 10
-255.864
 20
68.9506
 30
0
 11
-273.864
 21
68.9506
 31
0
  0
ARC
  5
A46
330
A02
100
AcDbEntity
  8
Shape10793
100
AcDbCircle
 10
-273.864
 20
69.9506
 30
0
 40
1
100
AcDbArc
 50
180
 51
-90
  0
LINE
  5
A47
330
A02
100
AcDbEntity
  8
Shape10794
100
AcDbLine
 10
-274.864
 20
69.9506
 30
0
 11
-274.864
 21
71.4506
 31
0
  0
ARC
  5
A48
330
A02
100
AcDbEntity
  8
Shape10795
100
AcDbCircle
 10
-273.864
 20
71.4506
 30
0
 40
1
100
AcDbArc
 50
90
 51
180
  0
LINE
  5
A49
330
A02
100
AcDbEntity
  8
Shape10796
100
AcDbLine
 10
-273.864
 20
72.4506
 30
0
 11
-263.364
 21
72.4506
 31
0
  0
ARC
  5
A4A
330
A02
100
AcDbEntity
  8
Shape10797
100
AcDbCircle
 10
-263.364
 20
72.9506
 30
0
 40
0.5
100
AcDbArc
 50
-90
 51
0
  0
LINE
  5
A4B
330
A02
100
AcDbEntity
  8
Shape10798
100
AcDbLine
 10
-262.864
 20
72.9506
 30
0
 11
-262.864
 21
73.1997
 31
0
  0
ARC
  5
A4C
330
A02
100
AcDbEntity
  8
Shape10799
100
AcDbCircle
 10
-263.364
 20
73.1997
 30
0
 40
0.5
100
AcDbArc
 50
0
 51
90
  0
LINE
  5
A4D
330
A02
100
AcDbEntity
  8
Shape10800
100
AcDbLine
 10
-263.364
 20
73.6997
 30
0
 11
-284.689
 21
73.6997
 31
0
  0
ARC
  5
A4E
330
A02
100
AcDbEntity
  8
Shape10801
100
AcDbCircle
 10
-284.689
 20
75.6997
 30
0
 40
2
100
AcDbArc
 50
180
 51
-90
  0
LINE
  5
A4F
330
A02
100
AcDbEntity
  8
Shape10802
100
AcDbLine
 10
-286.689
 20
75.6997
 30
0
 11
-286.689
 21
148.1
 31
0
  0
ARC
  5
A50
330
A02
100
AcDbEntity
  8
Shape10803
100
AcDbCircle
 10
-284.689
 20
148.1
 30
0
 40
2
100
AcDbArc
 50
90
 51
180
  0
LINE
  5
A51
330
A02
100
AcDbEntity
  8
Shape10804
100
AcDbLine
 10
-284.689
 20
150.1
 30
0
 11
-263.364
 21
150.1
 31
0
  0
ARC
  5
A52
330
A02
100
AcDbEntity
  8
Shape10805
100
AcDbCircle
 10
-263.364
 20
150.6
 30
0
 40
0.5
100
AcDbArc
 50
-90
 51
0
  0
LINE
  5
A53
330
A02
100
AcDbEntity
  8
Shape10806
100
AcDbLine
 10
-262.864
 20
150.6
 30
0
 11
-262.864
 21
150.849
 31
0
  0
ARC
  5
A54
330
A02
100
AcDbEntity
  8
Shape10807
100
AcDbCircle
 10
-263.364
 20
150.849
 30
0
 40
0.5
100
AcDbArc
 50
0
 51
90
  0
LINE
  5
A55
330
A02
100
AcDbEntity
  8
Shape10808
100
AcDbLine
 10
-263.364
 20
151.349
 30
0
 11
-273.864
 21
151.349
 31
0
  0
ARC
  5
A56
330
A02
100
AcDbEntity
  8
Shape10809
100
AcDbCircle
 10
-273.864
 20
152.349
 30
0
 40
1
100
AcDbArc
 50
180
 51
-90
  0
LINE
  5
A57
330
A02
100
AcDbEntity
  8
Shape10810
100
AcDbLine
 10
-274.864
 20
152.349
 30
0
 11
-274.864
 21
153.849
 31
0
  0
ARC
  5
A58
330
A02
100
AcDbEntity
  8
Shape10811
100
AcDbCircle
 10
-273.864
 20
153.849
 30
0
 40
1
100
AcDbArc
 50
90
 51
180
  0
LINE
  5
A59
330
A02
100
AcDbEntity
  8
Shape10812
100
AcDbLine
 10
-273.864
 20
154.849
 30
0
 11
-255.864
 21
154.849
 31
0
  0
LINE
  5
A5A
330
A02
100
AcDbEntity
  8
Shape10813
100
AcDbLine
 10
-255.864
 20
154.849
 30
0
 11
-255.864
 21
149.599
 31
0
  0
ARC
  5
A5B
330
A02
100
AcDbEntity
  8
Shape10814
100
AcDbCircle
 10
-255.364
 20
149.599
 30
0
 40
0.5
100
AcDbArc
 50
180
 51
0
  0
LINE
  5
A5C
330
A02
100
AcDbEntity
  8
Shape10815
100
AcDbLine
 10
-254.864
 20
149.599
 30
0
 11
-254.864
 21
153.599
 31
0
  0
ARC
  5
A5D
330
A02
100
AcDbEntity
  8
Shape10816
100
AcDbCircle
 10
-252.864
 20
153.599
 30
0
 40
2
100
AcDbArc
 50
0
 51
180
  0
LINE
  5
A5E
330
A02
100
AcDbEntity
  8
Shape10817
100
AcDbLine
 10
-250.864
 20
153.599
 30
0
 11
-250.864
 21
149.599
 31
0
  0
ARC
  5
A5F
330
A02
100
AcDbEntity
  8
Shape10818
100
AcDbCircle
 10
-250.364
 20
149.599
 30
0
 40
0.5
100
AcDbArc
 50
180
 51
0
  0
LINE
  5
A60
330
A02
100
AcDbEntity
  8
Shape10819
100
AcDbLine
 10
-249.864
 20
149.599
 30
0
 11
-249.864
 21
154.849
 31
0
  0
LINE
  5
A61
330
A02
100
AcDbEntity
  8
Shape10820
100
AcDbLine
 10
-249.864
 20
154.849
 30
0
 11
-231.864
 21
154.849
 31
0
  0
ARC
  5
A62
330
A02
100
AcDbEntity
  8
Shape10821
100
AcDbCircle
 10
-231.864
 20
153.849
 30
0
 40
1
100
AcDbArc
 50
0
 51
90
  0
LINE
  5
A63
330
A02
100
AcDbEntity
  8
Shape10822
100
AcDbLine
 10
-230.864
 20
153.849
 30
0
 11
-230.864
 21
152.349
 31
0
  0
ARC
  5
A64
330
A02
100
AcDbEntity
  8
Shape10823
100
AcDbCircle
 10
-231.864
 20
152.349
 30
0
 40
1
100
AcDbArc
 50
-90
 51
0
  0
LINE
  5
A65
330
A02
100
AcDbEntity
  8
Shape10824
100
AcDbLine
 10
-231.864
 20
151.349
 30
0
 11
-242.364
 21
151.349
 31
0
  0
ARC
  5
A66
330
A02
100
AcDbEntity
  8
Shape10825
100
AcDbCircle
 10
-242.364
 20
150.849
 30
0
 40
0.5
100
AcDbArc
 50
90
 51
180
  0
LINE
  5
A67
330
A02
100
AcDbEntity
  8
Shape10826
100
AcDbLine
 10
-242.864
 20
150.849
 30
0
 11
-242.864
 21
150.6
 31
0
  0
ARC
  5
A68
330
A02
100
AcDbEntity
  8
Shape10827
100
AcDbCircle
 10
-242.364
 20
150.6
 30
0
 40
0.5
100
AcDbArc
 50
180
 51
-90
  0
LINE
  5
A69
330
A02
100
AcDbEntity
  8
Shape10828
100
AcDbLine
 10
-242.364
 20
150.1
 30
0
 11
-173.364
 21
150.1
 31
0
  0
ARC
  5
A6A
330
A02
100
AcDbEntity
  8
Shape10829
100
AcDbCircle
 10
-173.364
 20
150.6
 30
0
 40
0.5
100
AcDbArc
 50
-90
 51
0
  0
LINE
  5
A6B
330
A02
100
AcDbEntity
  8
Shape10830
100
AcDbLine
 10
-172.864
 20
150.6
 30
0
 11
-172.864
 21
150.849
 31
0
  0
ARC
  5
A6C
330
A02
100
AcDbEntity
  8
Shape10831
100
AcDbCircle
 10
-173.364
 20
150.849
 30
0
 40
0.5
100
AcDbArc
 50
0
 51
90
  0
LINE
  5
A6D
330
A02
100
AcDbEntity
  8
Shape10832
100
AcDbLine
 10
-173.364
 20
151.349
 30
0
 11
-183.864
 21
151.349
 31
0
  0
ARC
  5
A6E
330
A02
100
AcDbEntity
  8
Shape10833
100
AcDbCircle
 10
-183.864
 20
152.349
 30
0
 40
1
100
AcDbArc
 50
180
 51
-90
  0
LINE
  5
A6F
330
A02
100
AcDbEntity
  8
Shape10834
100
AcDbLine
 10
-184.864
 20
152.349
 30
0
 11
-184.864
 21
153.849
 31
0
  0
ARC
  5
A70
330
A02
100
AcDbEntity
  8
Shape10835
100
AcDbCircle
 10
-183.864
 20
153.849
 30
0
 40
1
100
AcDbArc
 50
90
 51
180
  0
LINE
  5
A71
330
A02
100
AcDbEntity
  8
Shape10836
100
AcDbLine
 10
-183.864
 20
154.849
 30
0
 11
-165.864
 21
154.849
 31
0
  0
LINE
  5
A72
330
A02
100
AcDbEntity
  8
Shape10837
100
AcDbLine
 10
-165.864
 20
154.849
 30
0
 11
-165.864
 21
149.599
 31
0
  0
ARC
  5
A73
330
A02
100
AcDbEntity
  8
Shape10838
100
AcDbCircle
 10
-165.364
 20
149.599
 30
0
 40
0.5
100
AcDbArc
 50
180
 51
0
  0
LINE
  5
A74
330
A02
100
AcDbEntity
  8
Shape10839
100
AcDbLine
 10
-164.864
 20
149.599
 30
0
 11
-164.864
 21
153.599
 31
0
  0
ARC
  5
A75
330
A02
100
AcDbEntity
  8
Shape10840
100
AcDbCircle
 10
-162.864
 20
153.599
 30
0
 40
2
100
AcDbArc
 50
0
 51
180
  0
LINE
  5
A76
330
A02
100
AcDbEntity
  8
Shape10841
100
AcDbLine
 10
-160.864
 20
153.599
 30
0
 11
-160.864
 21
149.599
 31
0
  0
ARC
  5
A77
330
A02
100
AcDbEntity
  8
Shape10842
100
AcDbCircle
 10
-160.364
 20
149.599
 30
0
 40
0.5
100
AcDbArc
 50
180
 51
0
  0
LINE
  5
A78
330
A02
100
AcDbEntity
  8
Shape10843
100
AcDbLine
 10
-159.864
 20
149.599
 30
0
 11
-159.864
 21
154.849
 31
0
  0
LINE
  5
A79
330
A02
100
AcDbEntity
  8
Shape10844
100
AcDbLine
 10
-159.864
 20
154.849
 30
0
 11
-141.864
 21
154.849
 31
0
  0
ARC
  5
A7A
330
A02
100
AcDbEntity
  8
Shape10845
100
AcDbCircle
 10
-141.864
 20
153.849
 30
0
 40
1
100
AcDbArc
 50
0
 51
90
  0
LINE
  5
A7B
330
A02
100
AcDbEntity
  8
Shape10846
100
AcDbLine
 10
-140.864
 20
153.849
 30
0
 11
-140.864
 21
152.349
 31
0
  0
ARC
  5
A7C
330
A02
100
AcDbEntity
  8
Shape10847
100
AcDbCircle
 10
-141.864
 20
152.349
 30
0
 40
1
100
AcDbArc
 50
-90
 51
0
  0
LINE
  5
A7D
330
A02
100
AcDbEntity
  8
Shape10848
100
AcDbLine
 10
-141.864
 20
151.349
 30
0
 11
-152.364
 21
151.349
 31
0
  0
ARC
  5
A7E
330
A02
100
AcDbEntity
  8
Shape10849
100
AcDbCircle
 10
-152.364
 20
150.849
 30
0
 40
0.5
100
AcDbArc
 50
90
 51
180
  0
LINE
  5
A7F
330
A02
100
AcDbEntity
  8
Shape10850
100
AcDbLine
 10
-152.864
 20
150.849
 30
0
 11
-152.864
 21
150.6
 31
0
  0
ARC
  5
A80
330
A02
100
AcDbEntity
  8
Shape10851
100
AcDbCircle
 10
-152.364
 20
150.6
 30
0
 40
0.5
100
AcDbArc
 50
180
 51
-90
  0
LINE
  5
A81
330
A02
100
AcDbEntity
  8
Shape10852
100
AcDbLine
 10
-152.364
 20
150.1
 30
0
 11
-83.364
 21
150.1
 31
0
  0
ARC
  5
A82
330
A02
100
AcDbEntity
  8
Shape10853
100
AcDbCircle
 10
-83.364
 20
150.6
 30
0
 40
0.5
100
AcDbArc
 50
-90
 51
0
  0
LINE
  5
A83
330
A02
100
AcDbEntity
  8
Shape10854
100
AcDbLine
 10
-82.864
 20
150.6
 30
0
 11
-82.864
 21
150.849
 31
0
  0
ARC
  5
A84
330
A02
100
AcDbEntity
  8
Shape10855
100
AcDbCircle
 10
-83.364
 20
150.849
 30
0
 40
0.5
100
AcDbArc
 50
0
 51
90
  0
LINE
  5
A85
330
A02
100
AcDbEntity
  8
Shape10856
100
AcDbLine
 10
-83.364
 20
151.349
 30
0
 11
-93.864
 21
151.349
 31
0
  0
ARC
  5
A86
330
A02
100
AcDbEntity
  8
Shape10857
100
AcDbCircle
 10
-93.864
 20
152.349
 30
0
 40
1
100
AcDbArc
 50
180
 51
-90
  0
LINE
  5
A87
330
A02
100
AcDbEntity
  8
Shape10858
100
AcDbLine
 10
-94.864
 20
152.349
 30
0
 11
-94.864
 21
153.849
 31
0
  0
ARC
  5
A88
330
A02
100
AcDbEntity
  8
Shape10859
100
AcDbCircle
 10
-93.864
 20
153.849
 30
0
 40
1
100
AcDbArc
 50
90
 51
180
  0
LINE
  5
A89
330
A02
100
AcDbEntity
  8
Shape10860
100
AcDbLine
 10
-93.864
 20
154.849
 30
0
 11
-75.864
 21
154.849
 31
0
  0
LINE
  5
A8A
330
A02
100
AcDbEntity
  8
Shape10861
100
AcDbLine
 10
-75.864
 20
154.849
 30
0
 11
-75.864
 21
149.599
 31
0
  0
ARC
  5
A8B
330
A02
100
AcDbEntity
  8
Shape10862
100
AcDbCircle
 10
-75.364
 20
149.599
 30
0
 40
0.5
100
AcDbArc
 50
180
 51
0
  0
LINE
  5
A8C
330
A02
100
AcDbEntity
  8
Shape10863
100
AcDbLine
 10
-74.864
 20
149.599
 30
0
 11
-74.864
 21
153.599
 31
0
  0
ARC
  5
A8D
330
A02
100
AcDbEntity
  8
Shape10864
100
AcDbCircle
 10
-72.864
 20
153.599
 30
0
 40
2
100
AcDbArc
 50
0
 51
180
  0
LINE
  5
A8E
330
A02
100
AcDbEntity
  8
Shape10865
100
AcDbLine
 10
-70.864
 20
153.599
 30
0
 11
-70.864
 21
149.599
 31
0
  0
ARC
  5
A8F
330
A02
100
AcDbEntity
  8
Shape10866
100
AcDbCircle
 10
-70.364
 20
149.599
 30
0
 40
0.5
100
AcDbArc
 50
180
 51
0
  0
LINE
  5
A90
330
A02
100
AcDbEntity
  8
Shape10867
100
AcDbLine
 10
-69.864
 20
149.599
 30
0
 11
-69.864
 21
154.849
 31
0
  0
LINE
  5
A91
330
A02
100
AcDbEntity
  8
Shape10868
100
AcDbLine
 10
-69.864
 20
154.849
 30
0
 11
-51.864
 21
154.849
 31
0
  0
ARC
  5
A92
330
A02
100
AcDbEntity
  8
Shape10869
100
AcDbCircle
 10
-51.864
 20
153.849
 30
0
 40
1
100
AcDbArc
 50
0
 51
90
  0
LINE
  5
A93
330
A02
100
AcDbEntity
  8
Shape10870
100
AcDbLine
 10
-50.864
 20
153.849
 30
0
 11
-50.864
 21
152.349
 31
0
  0
ARC
  5
A94
330
A02
100
AcDbEntity
  8
Shape10871
100
AcDbCircle
 10
-51.864
 20
152.349
 30
0
 40
1
100
AcDbArc
 50
-90
 51
0
  0
LINE
  5
A95
330
A02
100
AcDbEntity
  8
Shape10872
100
AcDbLine
 10
-51.864
 20
151.349
 30
0
 11
-62.364
 21
151.349
 31
0
  0
ARC
  5
A96
330
A02
100
AcDbEntity
  8
Shape10873
100
AcDbCircle
 10
-62.364
 20
150.849
 30
0
 40
0.5
100
AcDbArc
 50
90
 51
180
  0
LINE
  5
A97
330
A02
100
AcDbEntity
  8
Shape10874
100
AcDbLine
 10
-62.864
 20
150.849
 30
0
 11
-62.864
 21
150.6
 31
0
  0
ARC
  5
A98
330
A02
100
AcDbEntity
  8
Shape10875
100
AcDbCircle
 10
-62.364
 20
150.6
 30
0
 40
0.5
100
AcDbArc
 50
180
 51
-90
  0
LINE
  5
A99
330
A02
100
AcDbEntity
  8
Shape10876
100
AcDbLine
 10
-62.364
 20
150.1
 30
0
 11
-41.039
 21
150.1
 31
0
  0
ARC
  5
A9A
330
A02
100
AcDbEntity
  8
Shape10877
100
AcDbCircle
 10
-41.039
 20
148.1
 30
0
 40
2
100
AcDbArc
 50
0
 51
90
  0
LINE
  5
A9B
330
A02
100
AcDbEntity
  8
Shape10878
100
AcDbLine
 10
-39.039
 20
148.1
 30
0
 11
-39.039
 21
75.6997
 31
0
  0
ARC
  5
A9C
330
A02
100
AcDbEntity
  8
Shape10879
100
AcDbCircle
 10
-41.039
 20
75.6997
 30
0
 40
2
100
AcDbArc
 50
-90
 51
0
  0
LINE
  5
A9D
330
A02
100
AcDbEntity
  8
Shape10880
100
AcDbLine
 10
-41.039
 20
73.6997
 30
0
 11
-62.364
 21
73.6997
 31
0
  0
ARC
  5
A9E
330
A02
100
AcDbEntity
  8
Shape10881
100
AcDbCircle
 10
-62.364
 20
73.1997
 30
0
 40
0.5
100
AcDbArc
 50
90
 51
180
  0
LINE
  5
A9F
330
A02
100
AcDbEntity
  8
Shape10882
100
AcDbLine
 10
-62.864
 20
73.1997
 30
0
 11
-62.864
 21
72.9506
 31
0
  0
ARC
  5
AA0
330
A02
100
AcDbEntity
  8
Shape10883
100
AcDbCircle
 10
-62.364
 20
72.9506
 30
0
 40
0.5
100
AcDbArc
 50
180
 51
-90
  0
LINE
  5
AA1
330
A02
100
AcDbEntity
  8
Shape10884
100
AcDbLine
 10
-62.364
 20
72.4506
 30
0
 11
-51.864
 21
72.4506
 31
0
  0
ARC
  5
AA2
330
A02
100
AcDbEntity
  8
Shape10885
100
AcDbCircle
 10
-51.864
 20
71.4506
 30
0
 40
1
100
AcDbArc
 50
0
 51
90
  0
LINE
  5
AA3
330
A02
100
AcDbEntity
  8
Shape10886
100
AcDbLine
 10
-50.864
 20
71.4506
 30
0
 11
-50.864
 21
69.9506
 31
0
  0
ARC
  5
AA4
330
A02
100
AcDbEntity
  8
Shape10887
100
AcDbCircle
 10
-51.864
 20
69.9506
 30
0
 40
1
100
AcDbArc
 50
-90
 51
0
  0
LINE
  5
AA5
330
A02
100
AcDbEntity
  8
Shape10888
100
AcDbLine
 10
-51.864
 20
68.9506
 30
0
 11
-69.864
 21
68.9506
 31
0
  0
LINE
  5
AA6
330
A02
100
AcDbEntity
  8
Shape10889
100
AcDbLine
 10
-281.784
 20
90.2747
 30
0
 11
-267.784
 21
90.2747
 31
0
  0
LINE
  5
AA7
330
A02
100
AcDbEntity
  8
Shape10890
100
AcDbLine
 10
-267.784
 20
90.2747
 30
0
 11
-267.784
 21
76.2747
 31
0
  0
LINE
  5
AA8
330
A02
100
AcDbEntity
  8
Shape10891
100
AcDbLine
 10
-267.784
 20
76.2747
 30
0
 11
-281.784
 21
76.2747
 31
0
  0
LINE
  5
AA9
330
A02
100
AcDbEntity
  8
Shape10892
100
AcDbLine
 10
-281.784
 20
76.2747
 30
0
 11
-281.784
 21
90.2747
 31
0
  0
LINE
  5
AAA
330
A02
100
AcDbEntity
  8
Shape10893
100
AcDbLine
 10
-246.353
 20
76.2747
 30
0
 11
-260.353
 21
76.2747
 31
0
  0
LINE
  5
AAB
330
A02
100
AcDbEntity
  8
Shape10894
100
AcDbLine
 10
-260.353
 20
76.2747
 30
0
 11
-260.353
 21
90.2747
 31
0
  0
LINE
  5
AAC
330
A02
100
AcDbEntity
  8
Shape10895
100
AcDbLine
 10
-260.353
 20
90.2747
 30
0
 11
-246.353
 21
90.2747
 31
0
  0
LINE
  5
AAD
330
A02
100
AcDbEntity
  8
Shape10896
100
AcDbLine
 10
-246.353
 20
90.2747
 30
0
 11
-246.353
 21
76.2747
 31
0
  0
LINE
  5
AAE
330
A02
100
AcDbEntity
  8
Shape10897
100
AcDbLine
 10
-224.922
 20
76.2747
 30
0
 11
-238.922
 21
76.2747
 31
0
  0
LINE
  5
AAF
330
A02
100
AcDbEntity
  8
Shape10898
100
AcDbLine
 10
-238.922
 20
76.2747
 30
0
 11
-238.922
 21
90.2747
 31
0
  0
LINE
  5
AB0
330
A02
100
AcDbEntity
  8
Shape10899
100
AcDbLine
 10
-238.922
 20
90.2747
 30
0
 11
-224.922
 21
90.2747
 31
0
  0
LINE
  5
AB1
330
A02
100
AcDbEntity
  8
Shape10900
100
AcDbLine
 10
-224.922
 20
90.2747
 30
0
 11
-224.922
 21
76.2747
 31
0
  0
LINE
  5
AB2
330
A02
100
AcDbEntity
  8
Shape10901
100
AcDbLine
 10
-86.809
 20
76.2747
 30
0
 11
-100.809
 21
76.2747
 31
0
  0
LINE
  5
AB3
330
A02
100
AcDbEntity
  8
Shape10902
100
AcDbLine
 10
-100.809
 20
76.2747
 30
0
 11
-100.809
 21
90.2747
 31
0
  0
LINE
  5
AB4
330
A02
100
AcDbEntity
  8
Shape10903
100
AcDbLine
 10
-100.809
 20
90.2747
 30
0
 11
-86.809
 21
90.2747
 31
0
  0
LINE
  5
AB5
330
A02
100
AcDbEntity
  8
Shape10904
100
AcDbLine
 10
-86.809
 20
90.2747
 30
0
 11
-86.809
 21
76.2747
 31
0
  0
LINE
  5
AB6
330
A02
100
AcDbEntity
  8
Shape10905
100
AcDbLine
 10
-65.3778
 20
76.2747
 30
0
 11
-79.3778
 21
76.2747
 31
0
  0
LINE
  5
AB7
330
A02
100
AcDbEntity
  8
Shape10906
100
AcDbLine
 10
-79.3778
 20
76.2747
 30
0
 11
-79.3778
 21
90.2747
 31
0
  0
LINE
  5
AB8
330
A02
100
AcDbEntity
  8
Shape10907
100
AcDbLine
 10
-79.3778
 20
90.2747
 30
0
 11
-65.3778
 21
90.2747
 31
0
  0
LINE
  5
AB9
330
A02
100
AcDbEntity
  8
Shape10908
100
AcDbLine
 10
-65.3778
 20
90.2747
 30
0
 11
-65.3778
 21
76.2747
 31
0
  0
LINE
  5
ABA
330
A02
100
AcDbEntity
  8
Shape10909
100
AcDbLine
 10
-43.9465
 20
76.2747
 30
0
 11
-57.9465
 21
76.2747
 31
0
  0
LINE
  5
ABB
330
A02
100
AcDbEntity
  8
Shape10910
100
AcDbLine
 10
-57.9465
 20
76.2747
 30
0
 11
-57.9465
 21
90.2747
 31
0
  0
LINE
  5
ABC
330
A02
100
AcDbEntity
  8
Shape10911
100
AcDbLine
 10
-57.9465
 20
90.2747
 30
0
 11
-43.9465
 21
90.2747
 31
0
  0
LINE
  5
ABD
330
A02
100
AcDbEntity
  8
Shape10912
100
AcDbLine
 10
-43.9465
 20
90.2747
 30
0
 11
-43.9465
 21
76.2747
 31
0
  0
LINE
  5
ABE
330
A02
100
AcDbEntity
  8
Shape10913
100
AcDbLine
 10
-265.164
 20
133.425
 30
0
 11
-265.164
 21
147.525
 31
0
  0
LINE
  5
ABF
330
A02
100
AcDbEntity
  8
Shape10914
100
AcDbLine
 10
-265.164
 20
147.525
 30
0
 11
-251.064
 21
147.525
 31
0
  0
LINE
  5
AC0
330
A02
100
AcDbEntity
  8
Shape10915
100
AcDbLine
 10
-251.064
 20
147.525
 30
0
 11
-251.064
 21
133.425
 31
0
  0
LINE
  5
AC1
330
A02
100
AcDbEntity
  8
Shape10916
100
AcDbLine
 10
-251.064
 20
133.425
 30
0
 11
-265.164
 21
133.425
 31
0
  0
LINE
  5
AC2
330
A02
100
AcDbEntity
  8
Shape10917
100
AcDbLine
 10
-155.814
 20
147.525
 30
0
 11
-155.814
 21
133.425
 31
0
  0
LINE
  5
AC3
330
A02
100
AcDbEntity
  8
Shape10918
100
AcDbLine
 10
-155.814
 20
133.425
 30
0
 11
-169.914
 21
133.425
 31
0
  0
LINE
  5
AC4
330
A02
100
AcDbEntity
  8
Shape10919
100
AcDbLine
 10
-169.914
 20
133.425
 30
0
 11
-169.914
 21
147.525
 31
0
  0
LINE
  5
AC5
330
A02
100
AcDbEntity
  8
Shape10920
100
AcDbLine
 10
-169.914
 20
147.525
 30
0
 11
-155.814
 21
147.525
 31
0
  0
LINE
  5
AC6
330
A02
100
AcDbEntity
  8
Shape10921
100
AcDbLine
 10
-131.814
 20
147.525
 30
0
 11
-117.714
 21
147.525
 31
0
  0
LINE
  5
AC7
330
A02
100
AcDbEntity
  8
Shape10922
100
AcDbLine
 10
-117.714
 20
147.525
 30
0
 11
-117.714
 21
133.425
 31
0
  0
LINE
  5
AC8
330
A02
100
AcDbEntity
  8
Shape10923
100
AcDbLine
 10
-117.714
 20
133.425
 30
0
 11
-131.814
 21
133.425
 31
0
  0
LINE
  5
AC9
330
A02
100
AcDbEntity
  8
Shape10924
100
AcDbLine
 10
-131.814
 20
133.425
 30
0
 11
-131.814
 21
147.525
 31
0
  0
LINE
  5
ACA
330
A02
100
AcDbEntity
  8
Shape10925
100
AcDbLine
 10
-136.764
 20
133.425
 30
0
 11
-150.864
 21
133.425
 31
0
  0
LINE
  5
ACB
330
A02
100
AcDbEntity
  8
Shape10926
100
AcDbLine
 10
-150.864
 20
133.425
 30
0
 11
-150.864
 21
147.525
 31
0
  0
LINE
  5
ACC
330
A02
100
AcDbEntity
  8
Shape10927
100
AcDbLine
 10
-150.864
 20
147.525
 30
0
 11
-136.764
 21
147.525
 31
0
  0
LINE
  5
ACD
330
A02
100
AcDbEntity
  8
Shape10928
100
AcDbLine
 10
-136.764
 20
147.525
 30
0
 11
-136.764
 21
133.425
 31
0
  0
LINE
  5
ACE
330
A02
100
AcDbEntity
  8
Shape10929
100
AcDbLine
 10
-74.664
 20
147.525
 30
0
 11
-60.564
 21
147.525
 31
0
  0
LINE
  5
ACF
330
A02
100
AcDbEntity
  8
Shape10930
100
AcDbLine
 10
-60.564
 20
147.525
 30
0
 11
-60.564
 21
133.425
 31
0
  0
LINE
  5
AD0
330
A02
100
AcDbEntity
  8
Shape10931
100
AcDbLine
 10
-60.564
 20
133.425
 30
0
 11
-74.664
 21
133.425
 31
0
  0
LINE
  5
AD1
330
A02
100
AcDbEntity
  8
Shape10932
100
AcDbLine
 10
-74.664
 20
133.425
 30
0
 11
-74.664
 21
147.525
 31
0
  0
LINE
  5
AD2
330
A02
100
AcDbEntity
  8
Shape10933
100
AcDbLine
 10
-41.514
 20
147.525
 30
0
 11
-41.514
 21
133.425
 31
0
  0
LINE
  5
AD3
330
A02
100
AcDbEntity
  8
Shape10934
100
AcDbLine
 10
-41.514
 20
133.425
 30
0
 11
-55.614
 21
133.425
 31
0
  0
LINE
  5
AD4
330
A02
100
AcDbEntity
  8
Shape10935
100
AcDbLine
 10
-55.614
 20
133.425
 30
0
 11
-55.614
 21
147.525
 31
0
  0
LINE
  5
AD5
330
A02
100
AcDbEntity
  8
Shape10936
100
AcDbLine
 10
-55.614
 20
147.525
 30
0
 11
-41.514
 21
147.525
 31
0
  0
LINE
  5
AD6
330
A02
100
AcDbEntity
  8
Shape10937
100
AcDbLine
 10
-227.064
 20
133.425
 30
0
 11
-227.064
 21
147.525
 31
0
  0
LINE
  5
AD7
330
A02
100
AcDbEntity
  8
Shape10938
100
AcDbLine
 10
-227.064
 20
147.525
 30
0
 11
-212.964
 21
147.525
 31
0
  0
LINE
  5
AD8
330
A02
100
AcDbEntity
  8
Shape10939
100
AcDbLine
 10
-212.964
 20
147.525
 30
0
 11
-212.964
 21
133.425
 31
0
  0
LINE
  5
AD9
330
A02
100
AcDbEntity
  8
Shape10940
100
AcDbLine
 10
-212.964
 20
133.425
 30
0
 11
-227.064
 21
133.425
 31
0
  0
LINE
  5
ADA
330
A02
100
AcDbEntity
  8
Shape10941
100
AcDbLine
 10
-174.864
 20
133.425
 30
0
 11
-188.964
 21
133.425
 31
0
  0
LINE
  5
ADB
330
A02
100
AcDbEntity
  8
Shape10942
100
AcDbLine
 10
-188.964
 20
133.425
 30
0
 11
-188.964
 21
147.525
 31
0
  0
LINE
  5
ADC
330
A02
100
AcDbEntity
  8
Shape10943
100
AcDbLine
 10
-188.964
 20
147.525
 30
0
 11
-174.864
 21
147.525
 31
0
  0
LINE
  5
ADD
330
A02
100
AcDbEntity
  8
Shape10944
100
AcDbLine
 10
-174.864
 20
147.525
 30
0
 11
-174.864
 21
133.425
 31
0
  0
LINE
  5
ADE
330
A02
100
AcDbEntity
  8
Shape10945
100
AcDbLine
 10
-232.014
 20
147.525
 30
0
 11
-232.014
 21
133.425
 31
0
  0
LINE
  5
ADF
330
A02
100
AcDbEntity
  8
Shape10946
100
AcDbLine
 10
-232.014
 20
133.425
 30
0
 11
-246.114
 21
133.425
 31
0
  0
LINE
  5
AE0
330
A02
100
AcDbEntity
  8
Shape10947
100
AcDbLine
 10
-246.114
 20
133.425
 30
0
 11
-246.114
 21
147.525
 31
0
  0
LINE
  5
AE1
330
A02
100
AcDbEntity
  8
Shape10948
100
AcDbLine
 10
-246.114
 20
147.525
 30
0
 11
-232.014
 21
147.525
 31
0
  0
LINE
  5
AE2
330
A02
100
AcDbEntity
  8
Shape10949
100
AcDbLine
 10
-193.914
 20
147.525
 30
0
 11
-193.914
 21
133.425
 31
0
  0
LINE
  5
AE3
330
A02
100
AcDbEntity
  8
Shape10950
100
AcDbLine
 10
-193.914
 20
133.425
 30
0
 11
-208.014
 21
133.425
 31
0
  0
LINE
  5
AE4
330
A02
100
AcDbEntity
  8
Shape10951
100
AcDbLine
 10
-208.014
 20
133.425
 30
0
 11
-208.014
 21
147.525
 31
0
  0
LINE
  5
AE5
330
A02
100
AcDbEntity
  8
Shape10952
100
AcDbLine
 10
-208.014
 20
147.525
 30
0
 11
-193.914
 21
147.525
 31
0
  0
LINE
  5
AE6
330
A02
100
AcDbEntity
  8
Shape10953
100
AcDbLine
 10
-79.614
 20
147.525
 30
0
 11
-79.614
 21
133.425
 31
0
  0
LINE
  5
AE7
330
A02
100
AcDbEntity
  8
Shape10954
100
AcDbLine
 10
-79.614
 20
133.425
 30
0
 11
-93.714
 21
133.425
 31
0
  0
LINE
  5
AE8
330
A02
100
AcDbEntity
  8
Shape10955
100
AcDbLine
 10
-93.714
 20
133.425
 30
0
 11
-93.714
 21
147.525
 31
0
  0
LINE
  5
AE9
330
A02
100
AcDbEntity
  8
Shape10956
100
AcDbLine
 10
-93.714
 20
147.525
 30
0
 11
-79.614
 21
147.525
 31
0
  0
LINE
  5
AEA
330
A02
100
AcDbEntity
  8
Shape10957
100
AcDbLine
 10
-98.664
 20
133.425
 30
0
 11
-112.764
 21
133.425
 31
0
  0
LINE
  5
AEB
330
A02
100
AcDbEntity
  8
Shape10958
100
AcDbLine
 10
-112.764
 20
133.425
 30
0
 11
-112.764
 21
147.525
 31
0
  0
LINE
  5
AEC
330
A02
100
AcDbEntity
  8
Shape10959
100
AcDbLine
 10
-112.764
 20
147.525
 30
0
 11
-98.664
 21
147.525
 31
0
  0
LINE
  5
AED
330
A02
100
AcDbEntity
  8
Shape10960
100
AcDbLine
 10
-98.664
 20
147.525
 30
0
 11
-98.664
 21
133.425
 31
0
  0
LINE
  5
AEE
330
A02
100
AcDbEntity
  8
Shape10961
100
AcDbLine
 10
-270.114
 20
133.425
 30
0
 11
-284.214
 21
133.425
 31
0
  0
LINE
  5
AEF
330
A02
100
AcDbEntity
  8
Shape10962
100
AcDbLine
 10
-284.214
 20
133.425
 30
0
 11
-284.214
 21
147.525
 31
0
  0
LINE
  5
AF0
330
A02
100
AcDbEntity
  8
Shape10963
100
AcDbLine
 10
-284.214
 20
147.525
 30
0
 11
-270.114
 21
147.525
 31
0
  0
LINE
  5
AF1
330
A02
100
AcDbEntity
  8
Shape10964
100
AcDbLine
 10
-270.114
 20
147.525
 30
0
 11
-270.114
 21
133.425
 31
0
  0
LINE
  5
AF2
330
A02
100
AcDbEntity
  8
Shape10965
100
AcDbLine
 10
-214.566
 20
83.7735
 30
0
 11
-214.566
 21
80.9748
 31
0
  0
LINE
  5
AF3
330
A02
100
AcDbEntity
  8
Shape10966
100
AcDbLine
 10
-169.865
 20
85.5747
 30
0
 11
-206.991
 21
85.5747
 31
0
  0
LINE
  5
AF4
330
A02
100
AcDbEntity
  8
Shape10967
100
AcDbLine
 10
-206.991
 20
85.5747
 30
0
 11
-206.991
 21
90.0436
 31
0
  0
LINE
  5
AF5
330
A02
100
AcDbEntity
  8
Shape10968
100
AcDbLine
 10
-206.991
 20
90.0436
 30
0
 11
-208.715
 21
90.0436
 31
0
  0
LINE
  5
AF6
330
A02
100
AcDbEntity
  8
Shape10969
100
AcDbLine
 10
-208.715
 20
90.0436
 30
0
 11
-208.715
 21
91.2439
 31
0
  0
LINE
  5
AF7
330
A02
100
AcDbEntity
  8
Shape10970
100
AcDbLine
 10
-208.715
 20
91.2439
 30
0
 11
-212.016
 21
91.2439
 31
0
  0
LINE
  5
AF8
330
A02
100
AcDbEntity
  8
Shape10971
100
AcDbLine
 10
-212.016
 20
91.2439
 30
0
 11
-212.016
 21
90.0436
 31
0
  0
LINE
  5
AF9
330
A02
100
AcDbEntity
  8
Shape10972
100
AcDbLine
 10
-212.016
 20
90.0436
 30
0
 11
-213.741
 21
90.0436
 31
0
  0
LINE
  5
AFA
330
A02
100
AcDbEntity
  8
Shape10973
100
AcDbLine
 10
-213.741
 20
90.0436
 30
0
 11
-213.741
 21
83.7735
 31
0
  0
LINE
  5
AFB
330
A02
100
AcDbEntity
  8
Shape10974
100
AcDbLine
 10
-213.741
 20
83.7735
 30
0
 11
-214.566
 21
83.7735
 31
0
  0
LINE
  5
AFC
330
A02
100
AcDbEntity
  8
Shape10975
100
AcDbLine
 10
-214.566
 20
80.9748
 30
0
 11
-213.741
 21
80.9748
 31
0
  0
LINE
  5
AFD
330
A02
100
AcDbEntity
  8
Shape10976
100
AcDbLine
 10
-213.741
 20
80.9748
 30
0
 11
-213.741
 21
77.7446
 31
0
  0
LINE
  5
AFE
330
A02
100
AcDbEntity
  8
Shape10977
100
AcDbLine
 10
-213.741
 20
77.7446
 30
0
 11
-206.991
 21
77.7446
 31
0
  0
LINE
  5
AFF
330
A02
100
AcDbEntity
  8
Shape10978
100
AcDbLine
 10
-206.991
 20
77.7446
 30
0
 11
-206.991
 21
80.9748
 31
0
  0
LINE
  5
B00
330
A02
100
AcDbEntity
  8
Shape10979
100
AcDbLine
 10
-206.991
 20
80.9748
 30
0
 11
-169.865
 21
80.9748
 31
0
  0
LINE
  5
B01
330
A02
100
AcDbEntity
  8
Shape10980
100
AcDbLine
 10
-146.341
 20
80.9748
 30
0
 11
-118.74
 21
80.9748
 31
0
  0
LINE
  5
B02
330
A02
100
AcDbEntity
  8
Shape10981
100
AcDbLine
 10
-118.74
 20
80.9748
 30
0
 11
-118.74
 21
77.7446
 31
0
  0
LINE
  5
B03
330
A02
100
AcDbEntity
  8
Shape10982
100
AcDbLine
 10
-118.74
 20
77.7446
 30
0
 11
-111.991
 21
77.7446
 31
0
  0
LINE
  5
B04
330
A02
100
AcDbEntity
  8
Shape10983
100
AcDbLine
 10
-111.991
 20
77.7446
 30
0
 11
-111.991
 21
80.9748
 31
0
  0
LINE
  5
B05
330
A02
100
AcDbEntity
  8
Shape10984
100
AcDbLine
 10
-111.991
 20
80.9748
 30
0
 11
-111.165
 21
80.9748
 31
0
  0
LINE
  5
B06
330
A02
100
AcDbEntity
  8
Shape10985
100
AcDbLine
 10
-111.165
 20
80.9748
 30
0
 11
-111.165
 21
83.7735
 31
0
  0
LINE
  5
B07
330
A02
100
AcDbEntity
  8
Shape10986
100
AcDbLine
 10
-111.165
 20
83.7735
 30
0
 11
-111.991
 21
83.7735
 31
0
  0
LINE
  5
B08
330
A02
100
AcDbEntity
  8
Shape10987
100
AcDbLine
 10
-111.991
 20
83.7735
 30
0
 11
-111.991
 21
90.0436
 31
0
  0
LINE
  5
B09
330
A02
100
AcDbEntity
  8
Shape10988
100
AcDbLine
 10
-111.991
 20
90.0436
 30
0
 11
-113.716
 21
90.0436
 31
0
  0
LINE
  5
B0A
330
A02
100
AcDbEntity
  8
Shape10989
100
AcDbLine
 10
-113.716
 20
90.0436
 30
0
 11
-113.716
 21
91.2439
 31
0
  0
LINE
  5
B0B
330
A02
100
AcDbEntity
  8
Shape10990
100
AcDbLine
 10
-113.716
 20
91.2439
 30
0
 11
-117.015
 21
91.2439
 31
0
  0
LINE
  5
B0C
330
A02
100
AcDbEntity
  8
Shape10991
100
AcDbLine
 10
-117.015
 20
91.2439
 30
0
 11
-117.015
 21
90.0436
 31
0
  0
LINE
  5
B0D
330
A02
100
AcDbEntity
  8
Shape10992
100
AcDbLine
 10
-117.015
 20
90.0436
 30
0
 11
-118.74
 21
90.0436
 31
0
  0
LINE
  5
B0E
330
A02
100
AcDbEntity
  8
Shape10993
100
AcDbLine
 10
-118.74
 20
90.0436
 30
0
 11
-118.74
 21
85.5747
 31
0
  0
LINE
  5
B0F
330
A02
100
AcDbEntity
  8
Shape10994
100
AcDbLine
 10
-118.74
 20
85.5747
 30
0
 11
-146.341
 21
85.5747
 31
0
  0
LINE
  5
B10
330
A02
100
AcDbEntity
  8
Shape10995
100
AcDbLine
 10
-146.341
 20
85.5747
 30
0
 11
-155.865
 21
85.5747
 31
0
  0
LINE
  5
B11
330
A02
100
AcDbEntity
  8
Shape10996
100
AcDbLine
 10
-146.341
 20
80.9748
 30
0
 11
-155.865
 21
80.9748
 31
0
  0
LINE
  5
B12
330
A02
100
AcDbEntity
  8
Shape10997
100
AcDbLine
 10
-169.865
 20
85.5747
 30
0
 11
-169.865
 21
90.2737
 31
0
  0
LINE
  5
B13
330
A02
100
AcDbEntity
  8
Shape10998
100
AcDbLine
 10
-155.865
 20
85.5747
 30
0
 11
-155.865
 21
90.2737
 31
0
  0
LINE
  5
B14
330
A02
100
AcDbEntity
  8
Shape10999
100
AcDbLine
 10
-169.865
 20
80.9748
 30
0
 11
-169.865
 21
76.2737
 31
0
  0
LINE
  5
B15
330
A02
100
AcDbEntity
  8
Shape11000
100
AcDbLine
 10
-155.865
 20
80.9748
 30
0
 11
-155.865
 21
76.2737
 31
0
  0
LINE
  5
B16
330
A02
100
AcDbEntity
  8
Shape11001
100
AcDbLine
 10
-169.865
 20
90.2737
 30
0
 11
-155.865
 21
90.2737
 31
0
  0
LINE
  5
B17
330
A02
100
AcDbEntity
  8
Shape11002
100
AcDbLine
 10
-169.865
 20
76.2737
 30
0
 11
-155.865
 21
76.2737
 31
0
  0
LINE
  5
B18
330
A02
100
AcDbEntity
  8
Shape11003
100
AcDbLine
 10
-265.164
 20
114.375
 30
0
 11
-265.164
 21
128.475
 31
0
  0
LINE
  5
B19
330
A02
100
AcDbEntity
  8
Shape11004
100
AcDbLine
 10
-265.164
 20
128.475
 30
0
 11
-251.064
 21
128.475
 31
0
  0
LINE
  5
B1A
330
A02
100
AcDbEntity
  8
Shape11005
100
AcDbLine
 10
-251.064
 20
128.475
 30
0
 11
-251.064
 21
114.375
 31
0
  0
LINE
  5
B1B
330
A02
100
AcDbEntity
  8
Shape11006
100
AcDbLine
 10
-251.064
 20
114.375
 30
0
 11
-265.164
 21
114.375
 31
0
  0
LINE
  5
B1C
330
A02
100
AcDbEntity
  8
Shape11007
100
AcDbLine
 10
-155.814
 20
128.475
 30
0
 11
-155.814
 21
114.375
 31
0
  0
LINE
  5
B1D
330
A02
100
AcDbEntity
  8
Shape11008
100
AcDbLine
 10
-155.814
 20
114.375
 30
0
 11
-169.914
 21
114.375
 31
0
  0
LINE
  5
B1E
330
A02
100
AcDbEntity
  8
Shape11009
100
AcDbLine
 10
-169.914
 20
114.375
 30
0
 11
-169.914
 21
128.475
 31
0
  0
LINE
  5
B1F
330
A02
100
AcDbEntity
  8
Shape11010
100
AcDbLine
 10
-169.914
 20
128.475
 30
0
 11
-155.814
 21
128.475
 31
0
  0
LINE
  5
B20
330
A02
100
AcDbEntity
  8
Shape11011
100
AcDbLine
 10
-131.814
 20
128.475
 30
0
 11
-117.714
 21
128.475
 31
0
  0
LINE
  5
B21
330
A02
100
AcDbEntity
  8
Shape11012
100
AcDbLine
 10
-117.714
 20
128.475
 30
0
 11
-117.714
 21
114.375
 31
0
  0
LINE
  5
B22
330
A02
100
AcDbEntity
  8
Shape11013
100
AcDbLine
 10
-117.714
 20
114.375
 30
0
 11
-131.814
 21
114.375
 31
0
  0
LINE
  5
B23
330
A02
100
AcDbEntity
  8
Shape11014
100
AcDbLine
 10
-131.814
 20
114.375
 30
0
 11
-131.814
 21
128.475
 31
0
  0
LINE
  5
B24
330
A02
100
AcDbEntity
  8
Shape11015
100
AcDbLine
 10
-136.764
 20
114.375
 30
0
 11
-150.864
 21
114.375
 31
0
  0
LINE
  5
B25
330
A02
100
AcDbEntity
  8
Shape11016
100
AcDbLine
 10
-150.864
 20
114.375
 30
0
 11
-150.864
 21
128.475
 31
0
  0
LINE
  5
B26
330
A02
100
AcDbEntity
  8
Shape11017
100
AcDbLine
 10
-150.864
 20
128.475
 30
0
 11
-136.764
 21
128.475
 31
0
  0
LINE
  5
B27
330
A02
100
AcDbEntity
  8
Shape11018
100
AcDbLine
 10
-136.764
 20
128.475
 30
0
 11
-136.764
 21
114.375
 31
0
  0
LINE
  5
B28
330
A02
100
AcDbEntity
  8
Shape11019
100
AcDbLine
 10
-74.664
 20
128.475
 30
0
 11
-60.564
 21
128.475
 31
0
  0
LINE
  5
B29
330
A02
100
AcDbEntity
  8
Shape11020
100
AcDbLine
 10
-60.564
 20
128.475
 30
0
 11
-60.564
 21
114.375
 31
0
  0
LINE
  5
B2A
330
A02
100
AcDbEntity
  8
Shape11021
100
AcDbLine
 10
-60.564
 20
114.375
 30
0
 11
-74.664
 21
114.375
 31
0
  0
LINE
  5
B2B
330
A02
100
AcDbEntity
  8
Shape11022
100
AcDbLine
 10
-74.664
 20
114.375
 30
0
 11
-74.664
 21
128.475
 31
0
  0
LINE
  5
B2C
330
A02
100
AcDbEntity
  8
Shape11023
100
AcDbLine
 10
-41.514
 20
128.475
 30
0
 11
-41.514
 21
114.375
 31
0
  0
LINE
  5
B2D
330
A02
100
AcDbEntity
  8
Shape11024
100
AcDbLine
 10
-41.514
 20
114.375
 30
0
 11
-55.614
 21
114.375
 31
0
  0
LINE
  5
B2E
330
A02
100
AcDbEntity
  8
Shape11025
100
AcDbLine
 10
-55.614
 20
114.375
 30
0
 11
-55.614
 21
128.475
 31
0
  0
LINE
  5
B2F
330
A02
100
AcDbEntity
  8
Shape11026
100
AcDbLine
 10
-55.614
 20
128.475
 30
0
 11
-41.514
 21
128.475
 31
0
  0
LINE
  5
B30
330
A02
100
AcDbEntity
  8
Shape11027
100
AcDbLine
 10
-227.064
 20
114.375
 30
0
 11
-227.064
 21
128.475
 31
0
  0
LINE
  5
B31
330
A02
100
AcDbEntity
  8
Shape11028
100
AcDbLine
 10
-227.064
 20
128.475
 30
0
 11
-212.964
 21
128.475
 31
0
  0
LINE
  5
B32
330
A02
100
AcDbEntity
  8
Shape11029
100
AcDbLine
 10
-212.964
 20
128.475
 30
0
 11
-212.964
 21
114.375
 31
0
  0
LINE
  5
B33
330
A02
100
AcDbEntity
  8
Shape11030
100
AcDbLine
 10
-212.964
 20
114.375
 30
0
 11
-227.064
 21
114.375
 31
0
  0
LINE
  5
B34
330
A02
100
AcDbEntity
  8
Shape11031
100
AcDbLine
 10
-174.864
 20
114.375
 30
0
 11
-188.964
 21
114.375
 31
0
  0
LINE
  5
B35
330
A02
100
AcDbEntity
  8
Shape11032
100
AcDbLine
 10
-188.964
 20
114.375
 30
0
 11
-188.964
 21
128.475
 31
0
  0
LINE
  5
B36
330
A02
100
AcDbEntity
  8
Shape11033
100
AcDbLine
 10
-188.964
 20
128.475
 30
0
 11
-174.864
 21
128.475
 31
0
  0
LINE
  5
B37
330
A02
100
AcDbEntity
  8
Shape11034
100
AcDbLine
 10
-174.864
 20
128.475
 30
0
 11
-174.864
 21
114.375
 31
0
  0
LINE
  5
B38
330
A02
100
AcDbEntity
  8
Shape11035
100
AcDbLine
 10
-232.014
 20
128.475
 30
0
 11
-232.014
 21
114.375
 31
0
  0
LINE
  5
B39
330
A02
100
AcDbEntity
  8
Shape11036
100
AcDbLine
 10
-232.014
 20
114.375
 30
0
 11
-246.114
 21
114.375
 31
0
  0
LINE
  5
B3A
330
A02
100
AcDbEntity
  8
Shape11037
100
AcDbLine
 10
-246.114
 20
114.375
 30
0
 11
-246.114
 21
128.475
 31
0
  0
LINE
  5
B3B
330
A02
100
AcDbEntity
  8
Shape11038
100
AcDbLine
 10
-246.114
 20
128.475
 30
0
 11
-232.014
 21
128.475
 31
0
  0
LINE
  5
B3C
330
A02
100
AcDbEntity
  8
Shape11039
100
AcDbLine
 10
-193.914
 20
128.475
 30
0
 11
-193.914
 21
114.375
 31
0
  0
LINE
  5
B3D
330
A02
100
AcDbEntity
  8
Shape11040
100
AcDbLine
 10
-193.914
 20
114.375
 30
0
 11
-208.014
 21
114.375
 31
0
  0
LINE
  5
B3E
330
A02
100
AcDbEntity
  8
Shape11041
100
AcDbLine
 10
-208.014
 20
114.375
 30
0
 11
-208.014
 21
128.475
 31
0
  0
LINE
  5
B3F
330
A02
100
AcDbEntity
  8
Shape11042
100
AcDbLine
 10
-208.014
 20
128.475
 30
0
 11
-193.914
 21
128.475
 31
0
  0
LINE
  5
B40
330
A02
100
AcDbEntity
  8
Shape11043
100
AcDbLine
 10
-79.614
 20
128.475
 30
0
 11
-79.614
 21
114.375
 31
0
  0
LINE
  5
B41
330
A02
100
AcDbEntity
  8
Shape11044
100
AcDbLine
 10
-79.614
 20
114.375
 30
0
 11
-93.714
 21
114.375
 31
0
  0
LINE
  5
B42
330
A02
100
AcDbEntity
  8
Shape11045
100
AcDbLine
 10
-93.714
 20
114.375
 30
0
 11
-93.714
 21
128.475
 31
0
  0
LINE
  5
B43
330
A02
100
AcDbEntity
  8
Shape11046
100
AcDbLine
 10
-93.714
 20
128.475
 30
0
 11
-79.614
 21
128.475
 31
0
  0
LINE
  5
B44
330
A02
100
AcDbEntity
  8
Shape11047
100
AcDbLine
 10
-98.664
 20
114.375
 30
0
 11
-112.764
 21
114.375
 31
0
  0
LINE
  5
B45
330
A02
100
AcDbEntity
  8
Shape11048
100
AcDbLine
 10
-112.764
 20
114.375
 30
0
 11
-112.764
 21
128.475
 31
0
  0
LINE
  5
B46
330
A02
100
AcDbEntity
  8
Shape11049
100
AcDbLine
 10
-112.764
 20
128.475
 30
0
 11
-98.664
 21
128.475
 31
0
  0
LINE
  5
B47
330
A02
100
AcDbEntity
  8
Shape11050
100
AcDbLine
 10
-98.664
 20
128.475
 30
0
 11
-98.664
 21
114.375
 31
0
  0
LINE
  5
B48
330
A02
100
AcDbEntity
  8
Shape11051
100
AcDbLine
 10
-270.114
 20
114.375
 30
0
 11
-284.214
 21
114.375
 31
0
  0
LINE
  5
B49
330
A02
100
AcDbEntity
  8
Shape11052
100
AcDbLine
 10
-284.214
 20
114.375
 30
0
 11
-284.214
 21
128.475
 31
0
  0
LINE
  5
B4A
330
A02
100
AcDbEntity
  8
Shape11053
100
AcDbLine
 10
-284.214
 20
128.475
 30
0
 11
-270.114
 21
128.475
 31
0
  0
LINE
  5
B4B
330
A02
100
AcDbEntity
  8
Shape11054
100
AcDbLine
 10
-270.114
 20
128.475
 30
0
 11
-270.114
 21
114.375
 31
0
  0
LINE
  5
B4C
330
A02
100
AcDbEntity
  8
Shape11055
100
AcDbLine
 10
-265.164
 20
95.3247
 30
0
 11
-265.164
 21
109.425
 31
0
  0
LINE
  5
B4D
330
A02
100
AcDbEntity
  8
Shape11056
100
AcDbLine
 10
-265.164
 20
109.425
 30
0
 11
-251.064
 21
109.425
 31
0
  0
LINE
  5
B4E
330
A02
100
AcDbEntity
  8
Shape11057
100
AcDbLine
 10
-251.064
 20
109.425
 30
0
 11
-251.064
 21
95.3247
 31
0
  0
LINE
  5
B4F
330
A02
100
AcDbEntity
  8
Shape11058
100
AcDbLine
 10
-251.064
 20
95.3247
 30
0
 11
-265.164
 21
95.3247
 31
0
  0
LINE
  5
B50
330
A02
100
AcDbEntity
  8
Shape11059
100
AcDbLine
 10
-155.814
 20
109.425
 30
0
 11
-155.814
 21
95.3247
 31
0
  0
LINE
  5
B51
330
A02
100
AcDbEntity
  8
Shape11060
100
AcDbLine
 10
-155.814
 20
95.3247
 30
0
 11
-169.914
 21
95.3247
 31
0
  0
LINE
  5
B52
330
A02
100
AcDbEntity
  8
Shape11061
100
AcDbLine
 10
-169.914
 20
95.3247
 30
0
 11
-169.914
 21
109.425
 31
0
  0
LINE
  5
B53
330
A02
100
AcDbEntity
  8
Shape11062
100
AcDbLine
 10
-169.914
 20
109.425
 30
0
 11
-155.814
 21
109.425
 31
0
  0
LINE
  5
B54
330
A02
100
AcDbEntity
  8
Shape11063
100
AcDbLine
 10
-131.814
 20
109.425
 30
0
 11
-117.714
 21
109.425
 31
0
  0
LINE
  5
B55
330
A02
100
AcDbEntity
  8
Shape11064
100
AcDbLine
 10
-117.714
 20
109.425
 30
0
 11
-117.714
 21
95.3247
 31
0
  0
LINE
  5
B56
330
A02
100
AcDbEntity
  8
Shape11065
100
AcDbLine
 10
-117.714
 20
95.3247
 30
0
 11
-131.814
 21
95.3247
 31
0
  0
LINE
  5
B57
330
A02
100
AcDbEntity
  8
Shape11066
100
AcDbLine
 10
-131.814
 20
95.3247
 30
0
 11
-131.814
 21
109.425
 31
0
  0
LINE
  5
B58
330
A02
100
AcDbEntity
  8
Shape11067
100
AcDbLine
 10
-136.764
 20
95.3247
 30
0
 11
-150.864
 21
95.3247
 31
0
  0
LINE
  5
B59
330
A02
100
AcDbEntity
  8
Shape11068
100
AcDbLine
 10
-150.864
 20
95.3247
 30
0
 11
-150.864
 21
109.425
 31
0
  0
LINE
  5
B5A
330
A02
100
AcDbEntity
  8
Shape11069
100
AcDbLine
 10
-150.864
 20
109.425
 30
0
 11
-136.764
 21
109.425
 31
0
  0
LINE
  5
B5B
330
A02
100
AcDbEntity
  8
Shape11070
100
AcDbLine
 10
-136.764
 20
109.425
 30
0
 11
-136.764
 21
95.3247
 31
0
  0
LINE
  5
B5C
330
A02
100
AcDbEntity
  8
Shape11071
100
AcDbLine
 10
-74.664
 20
109.425
 30
0
 11
-60.564
 21
109.425
 31
0
  0
LINE
  5
B5D
330
A02
100
AcDbEntity
  8
Shape11072
100
AcDbLine
 10
-60.564
 20
109.425
 30
0
 11
-60.564
 21
95.3247
 31
0
  0
LINE
  5
B5E
330
A02
100
AcDbEntity
  8
Shape11073
100
AcDbLine
 10
-60.564
 20
95.3247
 30
0
 11
-74.664
 21
95.3247
 31
0
  0
LINE
  5
B5F
330
A02
100
AcDbEntity
  8
Shape11074
100
AcDbLine
 10
-74.664
 20
95.3247
 30
0
 11
-74.664
 21
109.425
 31
0
  0
LINE
  5
B60
330
A02
100
AcDbEntity
  8
Shape11075
100
AcDbLine
 10
-41.514
 20
109.425
 30
0
 11
-41.514
 21
95.3247
 31
0
  0
LINE
  5
B61
330
A02
100
AcDbEntity
  8
Shape11076
100
AcDbLine
 10
-41.514
 20
95.3247
 30
0
 11
-55.614
 21
95.3247
 31
0
  0
LINE
  5
B62
330
A02
100
AcDbEntity
  8
Shape11077
100
AcDbLine
 10
-55.614
 20
95.3247
 30
0
 11
-55.614
 21
109.425
 31
0
  0
LINE
  5
B63
330
A02
100
AcDbEntity
  8
Shape11078
100
AcDbLine
 10
-55.614
 20
109.425
 30
0
 11
-41.514
 21
109.425
 31
0
  0
LINE
  5
B64
330
A02
100
AcDbEntity
  8
Shape11079
100
AcDbLine
 10
-227.064
 20
95.3247
 30
0
 11
-227.064
 21
109.425
 31
0
  0
LINE
  5
B65
330
A02
100
AcDbEntity
  8
Shape11080
100
AcDbLine
 10
-227.064
 20
109.425
 30
0
 11
-212.964
 21
109.425
 31
0
  0
LINE
  5
B66
330
A02
100
AcDbEntity
  8
Shape11081
100
AcDbLine
 10
-212.964
 20
109.425
 30
0
 11
-212.964
 21
95.3247
 31
0
  0
LINE
  5
B67
330
A02
100
AcDbEntity
  8
Shape11082
100
AcDbLine
 10
-212.964
 20
95.3247
 30
0
 11
-227.064
 21
95.3247
 31
0
  0
LINE
  5
B68
330
A02
100
AcDbEntity
  8
Shape11083
100
AcDbLine
 10
-174.864
 20
95.3247
 30
0
 11
-188.964
 21
95.3247
 31
0
  0
LINE
  5
B69
330
A02
100
AcDbEntity
  8
Shape11084
100
AcDbLine
 10
-188.964
 20
95.3247
 30
0
 11
-188.964
 21
109.425
 31
0
  0
LINE
  5
B6A
330
A02
100
AcDbEntity
  8
Shape11085
100
AcDbLine
 10
-188.964
 20
109.425
 30
0
 11
-174.864
 21
109.425
 31
0
  0
LINE
  5
B6B
330
A02
100
AcDbEntity
  8
Shape11086
100
AcDbLine
 10
-174.864
 20
109.425
 30
0
 11
-174.864
 21
95.3247
 31
0
  0
LINE
  5
B6C
330
A02
100
AcDbEntity
  8
Shape11087
100
AcDbLine
 10
-232.014
 20
109.425
 30
0
 11
-232.014
 21
95.3247
 31
0
  0
LINE
  5
B6D
330
A02
100
AcDbEntity
  8
Shape11088
100
AcDbLine
 10
-232.014
 20
95.3247
 30
0
 11
-246.114
 21
95.3247
 31
0
  0
LINE
  5
B6E
330
A02
100
AcDbEntity
  8
Shape11089
100
AcDbLine
 10
-246.114
 20
95.3247
 30
0
 11
-246.114
 21
109.425
 31
0
  0
LINE
  5
B6F
330
A02
100
AcDbEntity
  8
Shape11090
100
AcDbLine
 10
-246.114
 20
109.425
 30
0
 11
-232.014
 21
109.425
 31
0
  0
LINE
  5
B70
330
A02
100
AcDbEntity
  8
Shape11091
100
AcDbLine
 10
-193.914
 20
109.425
 30
0
 11
-193.914
 21
95.3247
 31
0
  0
LINE
  5
B71
330
A02
100
AcDbEntity
  8
Shape11092
100
AcDbLine
 10
-193.914
 20
95.3247
 30
0
 11
-208.014
 21
95.3247
 31
0
  0
LINE
  5
B72
330
A02
100
AcDbEntity
  8
Shape11093
100
AcDbLine
 10
-208.014
 20
95.3247
 30
0
 11
-208.014
 21
109.425
 31
0
  0
LINE
  5
B73
330
A02
100
AcDbEntity
  8
Shape11094
100
AcDbLine
 10
-208.014
 20
109.425
 30
0
 11
-193.914
 21
109.425
 31
0
  0
LINE
  5
B74
330
A02
100
AcDbEntity
  8
Shape11095
100
AcDbLine
 10
-79.614
 20
109.425
 30
0
 11
-79.614
 21
95.3247
 31
0
  0
LINE
  5
B75
330
A02
100
AcDbEntity
  8
Shape11096
100
AcDbLine
 10
-79.614
 20
95.3247
 30
0
 11
-93.714
 21
95.3247
 31
0
  0
LINE
  5
B76
330
A02
100
AcDbEntity
  8
Shape11097
100
AcDbLine
 10
-93.714
 20
95.3247
 30
0
 11
-93.714
 21
109.425
 31
0
  0
LINE
  5
B77
330
A02
100
AcDbEntity
  8
Shape11098
100
AcDbLine
 10
-93.714
 20
109.425
 30
0
 11
-79.614
 21
109.425
 31
0
  0
LINE
  5
B78
330
A02
100
AcDbEntity
  8
Shape11099
100
AcDbLine
 10
-98.664
 20
95.3247
 30
0
 11
-112.764
 21
95.3247
 31
0
  0
LINE
  5
B79
330
A02
100
AcDbEntity
  8
Shape11100
100
AcDbLine
 10
-112.764
 20
95.3247
 30
0
 11
-112.764
 21
109.425
 31
0
  0
LINE
  5
B7A
330
A02
100
AcDbEntity
  8
Shape11101
100
AcDbLine
 10
-112.764
 20
109.425
 30
0
 11
-98.664
 21
109.425
 31
0
  0
LINE
  5
B7B
330
A02
100
AcDbEntity
  8
Shape11102
100
AcDbLine
 10
-98.664
 20
109.425
 30
0
 11
-98.664
 21
95.3247
 31
0
  0
LINE
  5
B7C
330
A02
100
AcDbEntity
  8
Shape11103
100
AcDbLine
 10
-270.114
 20
95.3247
 30
0
 11
-284.214
 21
95.3247
 31
0
  0
LINE
  5
B7D
330
A02
100
AcDbEntity
  8
Shape11104
100
AcDbLine
 10
-284.214
 20
95.3247
 30
0
 11
-284.214
 21
109.425
 31
0
  0
LINE
  5
B7E
330
A02
100
AcDbEntity
  8
Shape11105
100
AcDbLine
 10
-284.214
 20
109.425
 30
0
 11
-270.114
 21
109.425
 31
0
  0
LINE
  5
B7F
330
A02
100
AcDbEntity
  8
Shape11106
100
AcDbLine
 10
-270.114
 20
109.425
 30
0
 11
-270.114
 21
95.3247
 31
0
  0
CIRCLE
  5
B80
330
A02
100
AcDbEntity
  8
Shape12753
100
AcDbCircle
 10
-63.2196
 20
130.924
 40
1.5
  0
ENDSEC
  0
SECTION
  2
OBJECTS
  0
DICTIONARY
  5
F000
330
0
100
AcDbDictionary
  3
ACAD_GROUP
350
F001
  0
DICTIONARY
  5
F001
330
F000
100
AcDbDictionary
  0
ENDSEC
  0
EOF