999
FreeCAD v0.21 33771 (Git)
  0
SECTION
  2
HEADER
  9
$ACADVER
  1
AC1014
  9
$ACADMAINTVER
 70
     9
  9
$DWGCODEPAGE
  3
ANSI_1252
  9
$TEXTSTYLE
  7
STANDARD
  9
$DIMSTYLE
  2
STANDARD
  9
$DIMTXSTY
  7
STANDARD
  9
$CMLSTYLE
  2
STANDARD
  9
$LUNITS
 70
2
  9
$INSUNITS
 70
4
  9
$PEXTMAX
 10
50
 20
50
 30
50
  9
$PEXTMIN
 10
0
 20
0
 30
0
  9
$HANDSEED
  5
FFFF
  0
ENDSEC
  0
SECTION
  2
CLASSES
  0
CLASS
  1
ACDBDICTIONARYWDFLT
  2
AcDbDictionaryWithDefault
  3
ObjectDBX Classes
 90
        0
280
     0
281
     0
  0
CLASS
  1
XRECORD
  2
AcDbXrecord
  3
ObjectDBX Classes
 90
        0
280
     0
281
     0
  0
CLASS
  1
LWPOLYLINE
  2
AcDbPolyline
  3
ObjectDBX Classes
 90
        0
280
     0
281
     1
  0
ENDSEC
  0
SECTION
  2
TABLES
  0
TABLE
  2
VPORT
  5
20
330
0
100
AcDbSymbolTable
 70
     1
  0
VPORT
  5
21
330
20
100
AcDbSymbolTableRecord
100
AcDbViewportTableRecord
  2
*ACTIVE
 70
     0
  0
ENDTAB
  0
TABLE
  2
LTYPE
  5
22
330
0
100
AcDbSymbolTable
 70
     1
  0
LTYPE
  5
23
330
21
100
AcDbSymbolTableRecord
100
AcDbLinetypeTableRecord
  2
BYBLOCK
 70
     0
  3

 72
    65
 73
     0
 40
0.0
  0
LTYPE
  5
24
330
21
100
AcDbSymbolTableRecord
100
AcDbLinetypeTableRecord
  2
BYLAYER
 70
     0
  3

 72
    65
 73
     0
 40
0.0
  0
LTYPE
  5
25
330
21
100
AcDbSymbolTableRecord
100
AcDbLinetypeTableRecord
  2
CONTINUOUS
 70
     0
  3
Solid line
 72
    65
 73
     0
 40
0.0
  0
ENDTAB
  0
TABLE
  2
LAYER
  5
BAB
330
0
100
AcDbSymbolTable
 70
421
  0
LAYER
  5
BAC
330
BAB
100
AcDbSymbolTableRecord
100
AcDbLayerTableRecord
  2
0
 70
   0
 62
   7
  6
CONTINUOUS
  0
LAYER
  5
BAD
330
BAB
100
AcDbSymbolTableRecord
100
AcDbLayerTableRecord
  2
none
 70
    0
 62
    7
  6
CONTINUOUS
  0
LAYER
  5
BAE
330
BAB
100
AcDbSymbolTableRecord
100
AcDbLayerTableRecord
  2
Shape11107
 70
    0
 62
    7
  6
CONTINUOUS
  0
LAYER
  5
BAF
330
BAB
100
AcDbSymbolTableRecord
100
AcDbLayerTableRecord
  2
Shape11108
 70
    0
 62
    7
  6
CONTINUOUS
  0
LAYER
  5
BB0
330
BAB
100
AcDbSymbolTableRecord
100
AcDbLayerTableRecord
  2
Shape11109
 70
    0
 62
    7
  6
CONTINUOUS
  0
LAYER
  5
BB1
330
BAB
100
AcDbSymbolTableRecord
100
AcDbLayerTableRecord
  2
Shape11110
 70
    0
 62
    7
  6
CONTINUOUS
  0
LAYER
  5
BB2
330
BAB
100
AcDbSymbolTableRecord
100
AcDbLayerTableRecord
  2
Shape11111
 70
    0
 62
    7
  6
CONTINUOUS
  0
LAYER
  5
BB3
330
BAB
100
AcDbSymbolTableRecord
100
AcDbLayerTableRecord
  2
Shape11112
 70
    0
 62
    7
  6
CONTINUOUS
  0
LAYER
  5
BB4
330
BAB
100
AcDbSymbolTableRecord
100
AcDbLayerTableRecord
  2
Shape11113
 70
    0
 62
    7
  6
CONTINUOUS
  0
LAYER
  5
BB5
330
BAB
100
AcDbSymbolTableRecord
100
AcDbLayerTableRecord
  2
Shape11114
 70
    0
 62
    7
  6
CONTINUOUS
  0
LAYER
  5
BB6
330
BAB
100
AcDbSymbolTableRecord
100
AcDbLayerTableRecord
  2
Shape11115
 70
    0
 62
    7
  6
CONTINUOUS
  0
LAYER
  5
BB7
330
BAB
100
AcDbSymbolTableRecord
100
AcDbLayerTableRecord
  2
Shape11116
 70
    0
 62
    7
  6
CONTINUOUS
  0
LAYER
  5
BB8
330
BAB
100
AcDbSymbolTableRecord
100
AcDbLayerTableRecord
  2
Shape11117
 70
    0
 62
    7
  6
CONTINUOUS
  0
LAYER
  5
BB9
330
BAB
100
AcDbSymbolTableRecord
100
AcDbLayerTableRecord
  2
Shape11118
 70
    0
 62
    7
  6
CONTINUOUS
  0
LAYER
  5
BBA
330
BAB
100
AcDbSymbolTableRecord
100
AcDbLayerTableRecord
  2
Shape11119
 70
    0
 62
    7
  6
CONTINUOUS
  0
LAYER
  5
BBB
330
BAB
100
AcDbSymbolTableRecord
100
AcDbLayerTableRecord
  2
Shape11120
 70
    0
 62
    7
  6
CONTINUOUS
  0
LAYER
  5
BBC
330
BAB
100
AcDbSymbolTableRecord
100
AcDbLayerTableRecord
  2
Shape11121
 70
    0
 62
    7
  6
CONTINUOUS
  0
LAYER
  5
BBD
330
BAB
100
AcDbSymbolTableRecord
100
AcDbLayerTableRecord
  2
Shape11122
 70
    0
 62
    7
  6
CONTINUOUS
  0
LAYER
  5
BBE
330
BAB
100
AcDbSymbolTableRecord
100
AcDbLayerTableRecord
  2
Shape11123
 70
    0
 62
    7
  6
CONTINUOUS
  0
LAYER
  5
BBF
330
BAB
100
AcDbSymbolTableRecord
100
AcDbLayerTableRecord
  2
Shape11124
 70
    0
 62
    7
  6
CONTINUOUS
  0
LAYER
  5
BC0
330
BAB
100
AcDbSymbolTableRecord
100
AcDbLayerTableRecord
  2
Shape11125
 70
    0
 62
    7
  6
CONTINUOUS
  0
LAYER
  5
BC1
330
BAB
100
AcDbSymbolTableRecord
100
AcDbLayerTableRecord
  2
Shape11126
 70
    0
 62
    7
  6
CONTINUOUS
  0
LAYER
  5
BC2
330
BAB
100
AcDbSymbolTableRecord
100
AcDbLayerTableRecord
  2
Shape11127
 70
    0
 62
    7
  6
CONTINUOUS
  0
LAYER
  5
BC3
330
BAB
100
AcDbSymbolTableRecord
100
AcDbLayerTableRecord
  2
Shape11128
 70
    0
 62
    7
  6
CONTINUOUS
  0
LAYER
  5
BC4
330
BAB
100
AcDbSymbolTableRecord
100
AcDbLayerTableRecord
  2
Shape11129
 70
    0
 62
    7
  6
CONTINUOUS
  0
LAYER
  5
BC5
330
BAB
100
AcDbSymbolTableRecord
100
AcDbLayerTableRecord
  2
Shape11130
 70
    0
 62
    7
  6
CONTINUOUS
  0
LAYER
  5
BC6
330
BAB
100
AcDbSymbolTableRecord
100
AcDbLayerTableRecord
  2
Shape11131
 70
    0
 62
    7
  6
CONTINUOUS
  0
LAYER
  5
BC7
330
BAB
100
AcDbSymbolTableRecord
100
AcDbLayerTableRecord
  2
Shape11132
 70
    0
 62
    7
  6
CONTINUOUS
  0
LAYER
  5
BC8
330
BAB
100
AcDbSymbolTableRecord
100
AcDbLayerTableRecord
  2
Shape11133
 70
    0
 62
    7
  6
CONTINUOUS
  0
LAYER
  5
BC9
330
BAB
100
AcDbSymbolTableRecord
100
AcDbLayerTableRecord
  2
Shape11134
 70
    0
 62
    7
  6
CONTINUOUS
  0
LAYER
  5
BCA
330
BAB
100
AcDbSymbolTableRecord
100
AcDbLayerTableRecord
  2
Shape11135
 70
    0
 62
    7
  6
CONTINUOUS
  0
LAYER
  5
BCB
330
BAB
100
AcDbSymbolTableRecord
100
AcDbLayerTableRecord
  2
Shape11136
 70
    0
 62
    7
  6
CONTINUOUS
  0
LAYER
  5
BCC
330
BAB
100
AcDbSymbolTableRecord
100
AcDbLayerTableRecord
  2
Shape11137
 70
    0
 62
    7
  6
CONTINUOUS
  0
LAYER
  5
BCD
330
BAB
100
AcDbSymbolTableRecord
100
AcDbLayerTableRecord
  2
Shape11138
 70
    0
 62
    7
  6
CONTINUOUS
  0
LAYER
  5
BCE
330
BAB
100
AcDbSymbolTableRecord
100
AcDbLayerTableRecord
  2
Shape11139
 70
    0
 62
    7
  6
CONTINUOUS
  0
LAYER
  5
BCF
330
BAB
100
AcDbSymbolTableRecord
100
AcDbLayerTableRecord
  2
Shape11140
 70
    0
 62
    7
  6
CONTINUOUS
  0
LAYER
  5
BD0
330
BAB
100
AcDbSymbolTableRecord
100
AcDbLayerTableRecord
  2
Shape11141
 70
    0
 62
    7
  6
CONTINUOUS
  0
LAYER
  5
BD1
330
BAB
100
AcDbSymbolTableRecord
100
AcDbLayerTableRecord
  2
Shape11142
 70
    0
 62
    7
  6
CONTINUOUS
  0
LAYER
  5
BD2
330
BAB
100
AcDbSymbolTableRecord
100
AcDbLayerTableRecord
  2
Shape11143
 70
    0
 62
    7
  6
CONTINUOUS
  0
LAYER
  5
BD3
330
BAB
100
AcDbSymbolTableRecord
100
AcDbLayerTableRecord
  2
Shape11144
 70
    0
 62
    7
  6
CONTINUOUS
  0
LAYER
  5
BD4
330
BAB
100
AcDbSymbolTableRecord
100
AcDbLayerTableRecord
  2
Shape11145
 70
    0
 62
    7
  6
CONTINUOUS
  0
LAYER
  5
BD5
330
BAB
100
AcDbSymbolTableRecord
100
AcDbLayerTableRecord
  2
Shape11146
 70
    0
 62
    7
  6
CONTINUOUS
  0
LAYER
  5
BD6
330
BAB
100
AcDbSymbolTableRecord
100
AcDbLayerTableRecord
  2
Shape11147
 70
    0
 62
    7
  6
CONTINUOUS
  0
LAYER
  5
BD7
330
BAB
100
AcDbSymbolTableRecord
100
AcDbLayerTableRecord
  2
Shape11148
 70
    0
 62
    7
  6
CONTINUOUS
  0
LAYER
  5
BD8
330
BAB
100
AcDbSymbolTableRecord
100
AcDbLayerTableRecord
  2
Shape11149
 70
    0
 62
    7
  6
CONTINUOUS
  0
LAYER
  5
BD9
330
BAB
100
AcDbSymbolTableRecord
100
AcDbLayerTableRecord
  2
Shape11150
 70
    0
 62
    7
  6
CONTINUOUS
  0
LAYER
  5
BDA
330
BAB
100
AcDbSymbolTableRecord
100
AcDbLayerTableRecord
  2
Shape11151
 70
    0
 62
    7
  6
CONTINUOUS
  0
LAYER
  5
BDB
330
BAB
100
AcDbSymbolTableRecord
100
AcDbLayerTableRecord
  2
Shape11152
 70
    0
 62
    7
  6
CONTINUOUS
  0
LAYER
  5
BDC
330
BAB
100
AcDbSymbolTableRecord
100
AcDbLayerTableRecord
  2
Shape11153
 70
    0
 62
    7
  6
CONTINUOUS
  0
LAYER
  5
BDD
330
BAB
100
AcDbSymbolTableRecord
100
AcDbLayerTableRecord
  2
Shape11154
 70
    0
 62
    7
  6
CONTINUOUS
  0
LAYER
  5
BDE
330
BAB
100
AcDbSymbolTableRecord
100
AcDbLayerTableRecord
  2
Shape11155
 70
    0
 62
    7
  6
CONTINUOUS
  0
LAYER
  5
BDF
330
BAB
100
AcDbSymbolTableRecord
100
AcDbLayerTableRecord
  2
Shape11156
 70
    0
 62
    7
  6
CONTINUOUS
  0
LAYER
  5
BE0
330
BAB
100
AcDbSymbolTableRecord
100
AcDbLayerTableRecord
  2
Shape11157
 70
    0
 62
    7
  6
CONTINUOUS
  0
LAYER
  5
BE1
330
BAB
100
AcDbSymbolTableRecord
100
AcDbLayerTableRecord
  2
Shape11158
 70
    0
 62
    7
  6
CONTINUOUS
  0
LAYER
  5
BE2
330
BAB
100
AcDbSymbolTableRecord
100
AcDbLayerTableRecord
  2
Shape11159
 70
    0
 62
    7
  6
CONTINUOUS
  0
LAYER
  5
BE3
330
BAB
100
AcDbSymbolTableRecord
100
AcDbLayerTableRecord
  2
Shape11160
 70
    0
 62
    7
  6
CONTINUOUS
  0
LAYER
  5
BE4
330
BAB
100
AcDbSymbolTableRecord
100
AcDbLayerTableRecord
  2
Shape11161
 70
    0
 62
    7
  6
CONTINUOUS
  0
LAYER
  5
BE5
330
BAB
100
AcDbSymbolTableRecord
100
AcDbLayerTableRecord
  2
Shape11162
 70
    0
 62
    7
  6
CONTINUOUS
  0
LAYER
  5
BE6
330
BAB
100
AcDbSymbolTableRecord
100
AcDbLayerTableRecord
  2
Shape11163
 70
    0
 62
    7
  6
CONTINUOUS
  0
LAYER
  5
BE7
330
BAB
100
AcDbSymbolTableRecord
100
AcDbLayerTableRecord
  2
Shape11164
 70
    0
 62
    7
  6
CONTINUOUS
  0
LAYER
  5
BE8
330
BAB
100
AcDbSymbolTableRecord
100
AcDbLayerTableRecord
  2
Shape11165
 70
    0
 62
    7
  6
CONTINUOUS
  0
LAYER
  5
BE9
330
BAB
100
AcDbSymbolTableRecord
100
AcDbLayerTableRecord
  2
Shape11166
 70
    0
 62
    7
  6
CONTINUOUS
  0
LAYER
  5
BEA
330
BAB
100
AcDbSymbolTableRecord
100
AcDbLayerTableRecord
  2
Shape11167
 70
    0
 62
    7
  6
CONTINUOUS
  0
LAYER
  5
BEB
330
BAB
100
AcDbSymbolTableRecord
100
AcDbLayerTableRecord
  2
Shape11168
 70
    0
 62
    7
  6
CONTINUOUS
  0
LAYER
  5
BEC
330
BAB
100
AcDbSymbolTableRecord
100
AcDbLayerTableRecord
  2
Shape11169
 70
    0
 62
    7
  6
CONTINUOUS
  0
LAYER
  5
BED
330
BAB
100
AcDbSymbolTableRecord
100
AcDbLayerTableRecord
  2
Shape11170
 70
    0
 62
    7
  6
CONTINUOUS
  0
LAYER
  5
BEE
330
BAB
100
AcDbSymbolTableRecord
100
AcDbLayerTableRecord
  2
Shape11171
 70
    0
 62
    7
  6
CONTINUOUS
  0
LAYER
  5
BEF
330
BAB
100
AcDbSymbolTableRecord
100
AcDbLayerTableRecord
  2
Shape11172
 70
    0
 62
    7
  6
CONTINUOUS
  0
LAYER
  5
BF0
330
BAB
100
AcDbSymbolTableRecord
100
AcDbLayerTableRecord
  2
Shape11173
 70
    0
 62
    7
  6
CONTINUOUS
  0
LAYER
  5
BF1
330
BAB
100
AcDbSymbolTableRecord
100
AcDbLayerTableRecord
  2
Shape11174
 70
    0
 62
    7
  6
CONTINUOUS
  0
LAYER
  5
BF2
330
BAB
100
AcDbSymbolTableRecord
100
AcDbLayerTableRecord
  2
Shape11175
 70
    0
 62
    7
  6
CONTINUOUS
  0
LAYER
  5
BF3
330
BAB
100
AcDbSymbolTableRecord
100
AcDbLayerTableRecord
  2
Shape11176
 70
    0
 62
    7
  6
CONTINUOUS
  0
LAYER
  5
BF4
330
BAB
100
AcDbSymbolTableRecord
100
AcDbLayerTableRecord
  2
Shape11177
 70
    0
 62
    7
  6
CONTINUOUS
  0
LAYER
  5
BF5
330
BAB
100
AcDbSymbolTableRecord
100
AcDbLayerTableRecord
  2
Shape11178
 70
    0
 62
    7
  6
CONTINUOUS
  0
LAYER
  5
BF6
330
BAB
100
AcDbSymbolTableRecord
100
AcDbLayerTableRecord
  2
Shape11179
 70
    0
 62
    7
  6
CONTINUOUS
  0
LAYER
  5
BF7
330
BAB
100
AcDbSymbolTableRecord
100
AcDbLayerTableRecord
  2
Shape11180
 70
    0
 62
    7
  6
CONTINUOUS
  0
LAYER
  5
BF8
330
BAB
100
AcDbSymbolTableRecord
100
AcDbLayerTableRecord
  2
Shape11181
 70
    0
 62
    7
  6
CONTINUOUS
  0
LAYER
  5
BF9
330
BAB
100
AcDbSymbolTableRecord
100
AcDbLayerTableRecord
  2
Shape11182
 70
    0
 62
    7
  6
CONTINUOUS
  0
LAYER
  5
BFA
330
BAB
100
AcDbSymbolTableRecord
100
AcDbLayerTableRecord
  2
Shape11183
 70
    0
 62
    7
  6
CONTINUOUS
  0
LAYER
  5
BFB
330
BAB
100
AcDbSymbolTableRecord
100
AcDbLayerTableRecord
  2
Shape11184
 70
    0
 62
    7
  6
CONTINUOUS
  0
LAYER
  5
BFC
330
BAB
100
AcDbSymbolTableRecord
100
AcDbLayerTableRecord
  2
Shape11185
 70
    0
 62
    7
  6
CONTINUOUS
  0
LAYER
  5
BFD
330
BAB
100
AcDbSymbolTableRecord
100
AcDbLayerTableRecord
  2
Shape11186
 70
    0
 62
    7
  6
CONTINUOUS
  0
LAYER
  5
BFE
330
BAB
100
AcDbSymbolTableRecord
100
AcDbLayerTableRecord
  2
Shape11187
 70
    0
 62
    7
  6
CONTINUOUS
  0
LAYER
  5
BFF
330
BAB
100
AcDbSymbolTableRecord
100
AcDbLayerTableRecord
  2
Shape11188
 70
    0
 62
    7
  6
CONTINUOUS
  0
LAYER
  5
C00
330
BAB
100
AcDbSymbolTableRecord
100
AcDbLayerTableRecord
  2
Shape11189
 70
    0
 62
    7
  6
CONTINUOUS
  0
LAYER
  5
C01
330
BAB
100
AcDbSymbolTableRecord
100
AcDbLayerTableRecord
  2
Shape11190
 70
    0
 62
    7
  6
CONTINUOUS
  0
LAYER
  5
C02
330
BAB
100
AcDbSymbolTableRecord
100
AcDbLayerTableRecord
  2
Shape11191
 70
    0
 62
    7
  6
CONTINUOUS
  0
LAYER
  5
C03
330
BAB
100
AcDbSymbolTableRecord
100
AcDbLayerTableRecord
  2
Shape11192
 70
    0
 62
    7
  6
CONTINUOUS
  0
LAYER
  5
C04
330
BAB
100
AcDbSymbolTableRecord
100
AcDbLayerTableRecord
  2
Shape11193
 70
    0
 62
    7
  6
CONTINUOUS
  0
LAYER
  5
C05
330
BAB
100
AcDbSymbolTableRecord
100
AcDbLayerTableRecord
  2
Shape11194
 70
    0
 62
    7
  6
CONTINUOUS
  0
LAYER
  5
C06
330
BAB
100
AcDbSymbolTableRecord
100
AcDbLayerTableRecord
  2
Shape11195
 70
    0
 62
    7
  6
CONTINUOUS
  0
LAYER
  5
C07
330
BAB
100
AcDbSymbolTableRecord
100
AcDbLayerTableRecord
  2
Shape11196
 70
    0
 62
    7
  6
CONTINUOUS
  0
LAYER
  5
C08
330
BAB
100
AcDbSymbolTableRecord
100
AcDbLayerTableRecord
  2
Shape11197
 70
    0
 62
    7
  6
CONTINUOUS
  0
LAYER
  5
C09
330
BAB
100
AcDbSymbolTableRecord
100
AcDbLayerTableRecord
  2
Shape11198
 70
    0
 62
    7
  6
CONTINUOUS
  0
LAYER
  5
C0A
330
BAB
100
AcDbSymbolTableRecord
100
AcDbLayerTableRecord
  2
Shape11199
 70
    0
 62
    7
  6
CONTINUOUS
  0
LAYER
  5
C0B
330
BAB
100
AcDbSymbolTableRecord
100
AcDbLayerTableRecord
  2
Shape11200
 70
    0
 62
    7
  6
CONTINUOUS
  0
LAYER
  5
C0C
330
BAB
100
AcDbSymbolTableRecord
100
AcDbLayerTableRecord
  2
Shape11201
 70
    0
 62
    7
  6
CONTINUOUS
  0
LAYER
  5
C0D
330
BAB
100
AcDbSymbolTableRecord
100
AcDbLayerTableRecord
  2
Shape11202
 70
    0
 62
    7
  6
CONTINUOUS
  0
LAYER
  5
C0E
330
BAB
100
AcDbSymbolTableRecord
100
AcDbLayerTableRecord
  2
Shape11203
 70
    0
 62
    7
  6
CONTINUOUS
  0
LAYER
  5
C0F
330
BAB
100
AcDbSymbolTableRecord
100
AcDbLayerTableRecord
  2
Shape11204
 70
    0
 62
    7
  6
CONTINUOUS
  0
LAYER
  5
C10
330
BAB
100
AcDbSymbolTableRecord
100
AcDbLayerTableRecord
  2
Shape11205
 70
    0
 62
    7
  6
CONTINUOUS
  0
LAYER
  5
C11
330
BAB
100
AcDbSymbolTableRecord
100
AcDbLayerTableRecord
  2
Shape11206
 70
    0
 62
    7
  6
CONTINUOUS
  0
LAYER
  5
C12
330
BAB
100
AcDbSymbolTableRecord
100
AcDbLayerTableRecord
  2
Shape11207
 70
    0
 62
    7
  6
CONTINUOUS
  0
LAYER
  5
C13
330
BAB
100
AcDbSymbolTableRecord
100
AcDbLayerTableRecord
  2
Shape11208
 70
    0
 62
    7
  6
CONTINUOUS
  0
LAYER
  5
C14
330
BAB
100
AcDbSymbolTableRecord
100
AcDbLayerTableRecord
  2
Shape11209
 70
    0
 62
    7
  6
CONTINUOUS
  0
LAYER
  5
C15
330
BAB
100
AcDbSymbolTableRecord
100
AcDbLayerTableRecord
  2
Shape11210
 70
    0
 62
    7
  6
CONTINUOUS
  0
LAYER
  5
C16
330
BAB
100
AcDbSymbolTableRecord
100
AcDbLayerTableRecord
  2
Shape11211
 70
    0
 62
    7
  6
CONTINUOUS
  0
LAYER
  5
C17
330
BAB
100
AcDbSymbolTableRecord
100
AcDbLayerTableRecord
  2
Shape11212
 70
    0
 62
    7
  6
CONTINUOUS
  0
LAYER
  5
C18
330
BAB
100
AcDbSymbolTableRecord
100
AcDbLayerTableRecord
  2
Shape11213
 70
    0
 62
    7
  6
CONTINUOUS
  0
LAYER
  5
C19
330
BAB
100
AcDbSymbolTableRecord
100
AcDbLayerTableRecord
  2
Shape11214
 70
    0
 62
    7
  6
CONTINUOUS
  0
LAYER
  5
C1A
330
BAB
100
AcDbSymbolTableRecord
100
AcDbLayerTableRecord
  2
Shape11215
 70
    0
 62
    7
  6
CONTINUOUS
  0
LAYER
  5
C1B
330
BAB
100
AcDbSymbolTableRecord
100
AcDbLayerTableRecord
  2
Shape11216
 70
    0
 62
    7
  6
CONTINUOUS
  0
LAYER
  5
C1C
330
BAB
100
AcDbSymbolTableRecord
100
AcDbLayerTableRecord
  2
Shape11217
 70
    0
 62
    7
  6
CONTINUOUS
  0
LAYER
  5
C1D
330
BAB
100
AcDbSymbolTableRecord
100
AcDbLayerTableRecord
  2
Shape11218
 70
    0
 62
    7
  6
CONTINUOUS
  0
LAYER
  5
C1E
330
BAB
100
AcDbSymbolTableRecord
100
AcDbLayerTableRecord
  2
Shape11219
 70
    0
 62
    7
  6
CONTINUOUS
  0
LAYER
  5
C1F
330
BAB
100
AcDbSymbolTableRecord
100
AcDbLayerTableRecord
  2
Shape11220
 70
    0
 62
    7
  6
CONTINUOUS
  0
LAYER
  5
C20
330
BAB
100
AcDbSymbolTableRecord
100
AcDbLayerTableRecord
  2
Shape11221
 70
    0
 62
    7
  6
CONTINUOUS
  0
LAYER
  5
C21
330
BAB
100
AcDbSymbolTableRecord
100
AcDbLayerTableRecord
  2
Shape11222
 70
    0
 62
    7
  6
CONTINUOUS
  0
LAYER
  5
C22
330
BAB
100
AcDbSymbolTableRecord
100
AcDbLayerTableRecord
  2
Shape11223
 70
    0
 62
    7
  6
CONTINUOUS
  0
LAYER
  5
C23
330
BAB
100
AcDbSymbolTableRecord
100
AcDbLayerTableRecord
  2
Shape11224
 70
    0
 62
    7
  6
CONTINUOUS
  0
LAYER
  5
C24
330
BAB
100
AcDbSymbolTableRecord
100
AcDbLayerTableRecord
  2
Shape11225
 70
    0
 62
    7
  6
CONTINUOUS
  0
LAYER
  5
C25
330
BAB
100
AcDbSymbolTableRecord
100
AcDbLayerTableRecord
  2
Shape11226
 70
    0
 62
    7
  6
CONTINUOUS
  0
LAYER
  5
C26
330
BAB
100
AcDbSymbolTableRecord
100
AcDbLayerTableRecord
  2
Shape11227
 70
    0
 62
    7
  6
CONTINUOUS
  0
LAYER
  5
C27
330
BAB
100
AcDbSymbolTableRecord
100
AcDbLayerTableRecord
  2
Shape11228
 70
    0
 62
    7
  6
CONTINUOUS
  0
LAYER
  5
C28
330
BAB
100
AcDbSymbolTableRecord
100
AcDbLayerTableRecord
  2
Shape11229
 70
    0
 62
    7
  6
CONTINUOUS
  0
LAYER
  5
C29
330
BAB
100
AcDbSymbolTableRecord
100
AcDbLayerTableRecord
  2
Shape11230
 70
    0
 62
    7
  6
CONTINUOUS
  0
LAYER
  5
C2A
330
BAB
100
AcDbSymbolTableRecord
100
AcDbLayerTableRecord
  2
Shape11231
 70
    0
 62
    7
  6
CONTINUOUS
  0
LAYER
  5
C2B
330
BAB
100
AcDbSymbolTableRecord
100
AcDbLayerTableRecord
  2
Shape11232
 70
    0
 62
    7
  6
CONTINUOUS
  0
LAYER
  5
C2C
330
BAB
100
AcDbSymbolTableRecord
100
AcDbLayerTableRecord
  2
Shape11233
 70
    0
 62
    7
  6
CONTINUOUS
  0
LAYER
  5
C2D
330
BAB
100
AcDbSymbolTableRecord
100
AcDbLayerTableRecord
  2
Shape11234
 70
    0
 62
    7
  6
CONTINUOUS
  0
LAYER
  5
C2E
330
BAB
100
AcDbSymbolTableRecord
100
AcDbLayerTableRecord
  2
Shape11235
 70
    0
 62
    7
  6
CONTINUOUS
  0
LAYER
  5
C2F
330
BAB
100
AcDbSymbolTableRecord
100
AcDbLayerTableRecord
  2
Shape11236
 70
    0
 62
    7
  6
CONTINUOUS
  0
LAYER
  5
C30
330
BAB
100
AcDbSymbolTableRecord
100
AcDbLayerTableRecord
  2
Shape11237
 70
    0
 62
    7
  6
CONTINUOUS
  0
LAYER
  5
C31
330
BAB
100
AcDbSymbolTableRecord
100
AcDbLayerTableRecord
  2
Shape11238
 70
    0
 62
    7
  6
CONTINUOUS
  0
LAYER
  5
C32
330
BAB
100
AcDbSymbolTableRecord
100
AcDbLayerTableRecord
  2
Shape11239
 70
    0
 62
    7
  6
CONTINUOUS
  0
LAYER
  5
C33
330
BAB
100
AcDbSymbolTableRecord
100
AcDbLayerTableRecord
  2
Shape11240
 70
    0
 62
    7
  6
CONTINUOUS
  0
LAYER
  5
C34
330
BAB
100
AcDbSymbolTableRecord
100
AcDbLayerTableRecord
  2
Shape11241
 70
    0
 62
    7
  6
CONTINUOUS
  0
LAYER
  5
C35
330
BAB
100
AcDbSymbolTableRecord
100
AcDbLayerTableRecord
  2
Shape11242
 70
    0
 62
    7
  6
CONTINUOUS
  0
LAYER
  5
C36
330
BAB
100
AcDbSymbolTableRecord
100
AcDbLayerTableRecord
  2
Shape11243
 70
    0
 62
    7
  6
CONTINUOUS
  0
LAYER
  5
C37
330
BAB
100
AcDbSymbolTableRecord
100
AcDbLayerTableRecord
  2
Shape11244
 70
    0
 62
    7
  6
CONTINUOUS
  0
LAYER
  5
C38
330
BAB
100
AcDbSymbolTableRecord
100
AcDbLayerTableRecord
  2
Shape11245
 70
    0
 62
    7
  6
CONTINUOUS
  0
LAYER
  5
C39
330
BAB
100
AcDbSymbolTableRecord
100
AcDbLayerTableRecord
  2
Shape11246
 70
    0
 62
    7
  6
CONTINUOUS
  0
LAYER
  5
C3A
330
BAB
100
AcDbSymbolTableRecord
100
AcDbLayerTableRecord
  2
Shape11247
 70
    0
 62
    7
  6
CONTINUOUS
  0
LAYER
  5
C3B
330
BAB
100
AcDbSymbolTableRecord
100
AcDbLayerTableRecord
  2
Shape11248
 70
    0
 62
    7
  6
CONTINUOUS
  0
LAYER
  5
C3C
330
BAB
100
AcDbSymbolTableRecord
100
AcDbLayerTableRecord
  2
Shape11249
 70
    0
 62
    7
  6
CONTINUOUS
  0
LAYER
  5
C3D
330
BAB
100
AcDbSymbolTableRecord
100
AcDbLayerTableRecord
  2
Shape11250
 70
    0
 62
    7
  6
CONTINUOUS
  0
LAYER
  5
C3E
330
BAB
100
AcDbSymbolTableRecord
100
AcDbLayerTableRecord
  2
Shape11251
 70
    0
 62
    7
  6
CONTINUOUS
  0
LAYER
  5
C3F
330
BAB
100
AcDbSymbolTableRecord
100
AcDbLayerTableRecord
  2
Shape11252
 70
    0
 62
    7
  6
CONTINUOUS
  0
LAYER
  5
C40
330
BAB
100
AcDbSymbolTableRecord
100
AcDbLayerTableRecord
  2
Shape11253
 70
    0
 62
    7
  6
CONTINUOUS
  0
LAYER
  5
C41
330
BAB
100
AcDbSymbolTableRecord
100
AcDbLayerTableRecord
  2
Shape11254
 70
    0
 62
    7
  6
CONTINUOUS
  0
LAYER
  5
C42
330
BAB
100
AcDbSymbolTableRecord
100
AcDbLayerTableRecord
  2
Shape11255
 70
    0
 62
    7
  6
CONTINUOUS
  0
LAYER
  5
C43
330
BAB
100
AcDbSymbolTableRecord
100
AcDbLayerTableRecord
  2
Shape11256
 70
    0
 62
    7
  6
CONTINUOUS
  0
LAYER
  5
C44
330
BAB
100
AcDbSymbolTableRecord
100
AcDbLayerTableRecord
  2
Shape11257
 70
    0
 62
    7
  6
CONTINUOUS
  0
LAYER
  5
C45
330
BAB
100
AcDbSymbolTableRecord
100
AcDbLayerTableRecord
  2
Shape11258
 70
    0
 62
    7
  6
CONTINUOUS
  0
LAYER
  5
C46
330
BAB
100
AcDbSymbolTableRecord
100
AcDbLayerTableRecord
  2
Shape11259
 70
    0
 62
    7
  6
CONTINUOUS
  0
LAYER
  5
C47
330
BAB
100
AcDbSymbolTableRecord
100
AcDbLayerTableRecord
  2
Shape11260
 70
    0
 62
    7
  6
CONTINUOUS
  0
LAYER
  5
C48
330
BAB
100
AcDbSymbolTableRecord
100
AcDbLayerTableRecord
  2
Shape11261
 70
    0
 62
    7
  6
CONTINUOUS
  0
LAYER
  5
C49
330
BAB
100
AcDbSymbolTableRecord
100
AcDbLayerTableRecord
  2
Shape11262
 70
    0
 62
    7
  6
CONTINUOUS
  0
LAYER
  5
C4A
330
BAB
100
AcDbSymbolTableRecord
100
AcDbLayerTableRecord
  2
Shape11263
 70
    0
 62
    7
  6
CONTINUOUS
  0
LAYER
  5
C4B
330
BAB
100
AcDbSymbolTableRecord
100
AcDbLayerTableRecord
  2
Shape11264
 70
    0
 62
    7
  6
CONTINUOUS
  0
LAYER
  5
C4C
330
BAB
100
AcDbSymbolTableRecord
100
AcDbLayerTableRecord
  2
Shape11265
 70
    0
 62
    7
  6
CONTINUOUS
  0
LAYER
  5
C4D
330
BAB
100
AcDbSymbolTableRecord
100
AcDbLayerTableRecord
  2
Shape11266
 70
    0
 62
    7
  6
CONTINUOUS
  0
LAYER
  5
C4E
330
BAB
100
AcDbSymbolTableRecord
100
AcDbLayerTableRecord
  2
Shape11267
 70
    0
 62
    7
  6
CONTINUOUS
  0
LAYER
  5
C4F
330
BAB
100
AcDbSymbolTableRecord
100
AcDbLayerTableRecord
  2
Shape11268
 70
    0
 62
    7
  6
CONTINUOUS
  0
LAYER
  5
C50
330
BAB
100
AcDbSymbolTableRecord
100
AcDbLayerTableRecord
  2
Shape11269
 70
    0
 62
    7
  6
CONTINUOUS
  0
LAYER
  5
C51
330
BAB
100
AcDbSymbolTableRecord
100
AcDbLayerTableRecord
  2
Shape11270
 70
    0
 62
    7
  6
CONTINUOUS
  0
LAYER
  5
C52
330
BAB
100
AcDbSymbolTableRecord
100
AcDbLayerTableRecord
  2
Shape11271
 70
    0
 62
    7
  6
CONTINUOUS
  0
LAYER
  5
C53
330
BAB
100
AcDbSymbolTableRecord
100
AcDbLayerTableRecord
  2
Shape11272
 70
    0
 62
    7
  6
CONTINUOUS
  0
LAYER
  5
C54
330
BAB
100
AcDbSymbolTableRecord
100
AcDbLayerTableRecord
  2
Shape11273
 70
    0
 62
    7
  6
CONTINUOUS
  0
LAYER
  5
C55
330
BAB
100
AcDbSymbolTableRecord
100
AcDbLayerTableRecord
  2
Shape11274
 70
    0
 62
    7
  6
CONTINUOUS
  0
LAYER
  5
C56
330
BAB
100
AcDbSymbolTableRecord
100
AcDbLayerTableRecord
  2
Shape11275
 70
    0
 62
    7
  6
CONTINUOUS
  0
LAYER
  5
C57
330
BAB
100
AcDbSymbolTableRecord
100
AcDbLayerTableRecord
  2
Shape11276
 70
    0
 62
    7
  6
CONTINUOUS
  0
LAYER
  5
C58
330
BAB
100
AcDbSymbolTableRecord
100
AcDbLayerTableRecord
  2
Shape11277
 70
    0
 62
    7
  6
CONTINUOUS
  0
LAYER
  5
C59
330
BAB
100
AcDbSymbolTableRecord
100
AcDbLayerTableRecord
  2
Shape11278
 70
    0
 62
    7
  6
CONTINUOUS
  0
LAYER
  5
C5A
330
BAB
100
AcDbSymbolTableRecord
100
AcDbLayerTableRecord
  2
Shape11279
 70
    0
 62
    7
  6
CONTINUOUS
  0
LAYER
  5
C5B
330
BAB
100
AcDbSymbolTableRecord
100
AcDbLayerTableRecord
  2
Shape11280
 70
    0
 62
    7
  6
CONTINUOUS
  0
LAYER
  5
C5C
330
BAB
100
AcDbSymbolTableRecord
100
AcDbLayerTableRecord
  2
Shape11281
 70
    0
 62
    7
  6
CONTINUOUS
  0
LAYER
  5
C5D
330
BAB
100
AcDbSymbolTableRecord
100
AcDbLayerTableRecord
  2
Shape11282
 70
    0
 62
    7
  6
CONTINUOUS
  0
LAYER
  5
C5E
330
BAB
100
AcDbSymbolTableRecord
100
AcDbLayerTableRecord
  2
Shape11283
 70
    0
 62
    7
  6
CONTINUOUS
  0
LAYER
  5
C5F
330
BAB
100
AcDbSymbolTableRecord
100
AcDbLayerTableRecord
  2
Shape11284
 70
    0
 62
    7
  6
CONTINUOUS
  0
LAYER
  5
C60
330
BAB
100
AcDbSymbolTableRecord
100
AcDbLayerTableRecord
  2
Shape11285
 70
    0
 62
    7
  6
CONTINUOUS
  0
LAYER
  5
C61
330
BAB
100
AcDbSymbolTableRecord
100
AcDbLayerTableRecord
  2
Shape11286
 70
    0
 62
    7
  6
CONTINUOUS
  0
LAYER
  5
C62
330
BAB
100
AcDbSymbolTableRecord
100
AcDbLayerTableRecord
  2
Shape11287
 70
    0
 62
    7
  6
CONTINUOUS
  0
LAYER
  5
C63
330
BAB
100
AcDbSymbolTableRecord
100
AcDbLayerTableRecord
  2
Shape11288
 70
    0
 62
    7
  6
CONTINUOUS
  0
LAYER
  5
C64
330
BAB
100
AcDbSymbolTableRecord
100
AcDbLayerTableRecord
  2
Shape11289
 70
    0
 62
    7
  6
CONTINUOUS
  0
LAYER
  5
C65
330
BAB
100
AcDbSymbolTableRecord
100
AcDbLayerTableRecord
  2
Shape11290
 70
    0
 62
    7
  6
CONTINUOUS
  0
LAYER
  5
C66
330
BAB
100
AcDbSymbolTableRecord
100
AcDbLayerTableRecord
  2
Shape11291
 70
    0
 62
    7
  6
CONTINUOUS
  0
LAYER
  5
C67
330
BAB
100
AcDbSymbolTableRecord
100
AcDbLayerTableRecord
  2
Shape11292
 70
    0
 62
    7
  6
CONTINUOUS
  0
LAYER
  5
C68
330
BAB
100
AcDbSymbolTableRecord
100
AcDbLayerTableRecord
  2
Shape11293
 70
    0
 62
    7
  6
CONTINUOUS
  0
LAYER
  5
C69
330
BAB
100
AcDbSymbolTableRecord
100
AcDbLayerTableRecord
  2
Shape11294
 70
    0
 62
    7
  6
CONTINUOUS
  0
LAYER
  5
C6A
330
BAB
100
AcDbSymbolTableRecord
100
AcDbLayerTableRecord
  2
Shape11295
 70
    0
 62
    7
  6
CONTINUOUS
  0
LAYER
  5
C6B
330
BAB
100
AcDbSymbolTableRecord
100
AcDbLayerTableRecord
  2
Shape11296
 70
    0
 62
    7
  6
CONTINUOUS
  0
LAYER
  5
C6C
330
BAB
100
AcDbSymbolTableRecord
100
AcDbLayerTableRecord
  2
Shape11297
 70
    0
 62
    7
  6
CONTINUOUS
  0
LAYER
  5
C6D
330
BAB
100
AcDbSymbolTableRecord
100
AcDbLayerTableRecord
  2
Shape11298
 70
    0
 62
    7
  6
CONTINUOUS
  0
LAYER
  5
C6E
330
BAB
100
AcDbSymbolTableRecord
100
AcDbLayerTableRecord
  2
Shape11299
 70
    0
 62
    7
  6
CONTINUOUS
  0
LAYER
  5
C6F
330
BAB
100
AcDbSymbolTableRecord
100
AcDbLayerTableRecord
  2
Shape11300
 70
    0
 62
    7
  6
CONTINUOUS
  0
LAYER
  5
C70
330
BAB
100
AcDbSymbolTableRecord
100
AcDbLayerTableRecord
  2
Shape11301
 70
    0
 62
    7
  6
CONTINUOUS
  0
LAYER
  5
C71
330
BAB
100
AcDbSymbolTableRecord
100
AcDbLayerTableRecord
  2
Shape11302
 70
    0
 62
    7
  6
CONTINUOUS
  0
LAYER
  5
C72
330
BAB
100
AcDbSymbolTableRecord
100
AcDbLayerTableRecord
  2
Shape11303
 70
    0
 62
    7
  6
CONTINUOUS
  0
LAYER
  5
C73
330
BAB
100
AcDbSymbolTableRecord
100
AcDbLayerTableRecord
  2
Shape11304
 70
    0
 62
    7
  6
CONTINUOUS
  0
LAYER
  5
C74
330
BAB
100
AcDbSymbolTableRecord
100
AcDbLayerTableRecord
  2
Shape11305
 70
    0
 62
    7
  6
CONTINUOUS
  0
LAYER
  5
C75
330
BAB
100
AcDbSymbolTableRecord
100
AcDbLayerTableRecord
  2
Shape11306
 70
    0
 62
    7
  6
CONTINUOUS
  0
LAYER
  5
C76
330
BAB
100
AcDbSymbolTableRecord
100
AcDbLayerTableRecord
  2
Shape11307
 70
    0
 62
    7
  6
CONTINUOUS
  0
LAYER
  5
C77
330
BAB
100
AcDbSymbolTableRecord
100
AcDbLayerTableRecord
  2
Shape11308
 70
    0
 62
    7
  6
CONTINUOUS
  0
LAYER
  5
C78
330
BAB
100
AcDbSymbolTableRecord
100
AcDbLayerTableRecord
  2
Shape11309
 70
    0
 62
    7
  6
CONTINUOUS
  0
LAYER
  5
C79
330
BAB
100
AcDbSymbolTableRecord
100
AcDbLayerTableRecord
  2
Shape11310
 70
    0
 62
    7
  6
CONTINUOUS
  0
LAYER
  5
C7A
330
BAB
100
AcDbSymbolTableRecord
100
AcDbLayerTableRecord
  2
Shape11311
 70
    0
 62
    7
  6
CONTINUOUS
  0
LAYER
  5
C7B
330
BAB
100
AcDbSymbolTableRecord
100
AcDbLayerTableRecord
  2
Shape11312
 70
    0
 62
    7
  6
CONTINUOUS
  0
LAYER
  5
C7C
330
BAB
100
AcDbSymbolTableRecord
100
AcDbLayerTableRecord
  2
Shape11313
 70
    0
 62
    7
  6
CONTINUOUS
  0
LAYER
  5
C7D
330
BAB
100
AcDbSymbolTableRecord
100
AcDbLayerTableRecord
  2
Shape11314
 70
    0
 62
    7
  6
CONTINUOUS
  0
LAYER
  5
C7E
330
BAB
100
AcDbSymbolTableRecord
100
AcDbLayerTableRecord
  2
Shape11315
 70
    0
 62
    7
  6
CONTINUOUS
  0
LAYER
  5
C7F
330
BAB
100
AcDbSymbolTableRecord
100
AcDbLayerTableRecord
  2
Shape11316
 70
    0
 62
    7
  6
CONTINUOUS
  0
LAYER
  5
C80
330
BAB
100
AcDbSymbolTableRecord
100
AcDbLayerTableRecord
  2
Shape11317
 70
    0
 62
    7
  6
CONTINUOUS
  0
LAYER
  5
C81
330
BAB
100
AcDbSymbolTableRecord
100
AcDbLayerTableRecord
  2
Shape11318
 70
    0
 62
    7
  6
CONTINUOUS
  0
LAYER
  5
C82
330
BAB
100
AcDbSymbolTableRecord
100
AcDbLayerTableRecord
  2
Shape11319
 70
    0
 62
    7
  6
CONTINUOUS
  0
LAYER
  5
C83
330
BAB
100
AcDbSymbolTableRecord
100
AcDbLayerTableRecord
  2
Shape11320
 70
    0
 62
    7
  6
CONTINUOUS
  0
LAYER
  5
C84
330
BAB
100
AcDbSymbolTableRecord
100
AcDbLayerTableRecord
  2
Shape11321
 70
    0
 62
    7
  6
CONTINUOUS
  0
LAYER
  5
C85
330
BAB
100
AcDbSymbolTableRecord
100
AcDbLayerTableRecord
  2
Shape11322
 70
    0
 62
    7
  6
CONTINUOUS
  0
LAYER
  5
C86
330
BAB
100
AcDbSymbolTableRecord
100
AcDbLayerTableRecord
  2
Shape11323
 70
    0
 62
    7
  6
CONTINUOUS
  0
LAYER
  5
C87
330
BAB
100
AcDbSymbolTableRecord
100
AcDbLayerTableRecord
  2
Shape11324
 70
    0
 62
    7
  6
CONTINUOUS
  0
LAYER
  5
C88
330
BAB
100
AcDbSymbolTableRecord
100
AcDbLayerTableRecord
  2
Shape11325
 70
    0
 62
    7
  6
CONTINUOUS
  0
LAYER
  5
C89
330
BAB
100
AcDbSymbolTableRecord
100
AcDbLayerTableRecord
  2
Shape11326
 70
    0
 62
    7
  6
CONTINUOUS
  0
LAYER
  5
C8A
330
BAB
100
AcDbSymbolTableRecord
100
AcDbLayerTableRecord
  2
Shape11327
 70
    0
 62
    7
  6
CONTINUOUS
  0
LAYER
  5
C8B
330
BAB
100
AcDbSymbolTableRecord
100
AcDbLayerTableRecord
  2
Shape11328
 70
    0
 62
    7
  6
CONTINUOUS
  0
LAYER
  5
C8C
330
BAB
100
AcDbSymbolTableRecord
100
AcDbLayerTableRecord
  2
Shape11329
 70
    0
 62
    7
  6
CONTINUOUS
  0
LAYER
  5
C8D
330
BAB
100
AcDbSymbolTableRecord
100
AcDbLayerTableRecord
  2
Shape11330
 70
    0
 62
    7
  6
CONTINUOUS
  0
LAYER
  5
C8E
330
BAB
100
AcDbSymbolTableRecord
100
AcDbLayerTableRecord
  2
Shape11331
 70
    0
 62
    7
  6
CONTINUOUS
  0
LAYER
  5
C8F
330
BAB
100
AcDbSymbolTableRecord
100
AcDbLayerTableRecord
  2
Shape11332
 70
    0
 62
    7
  6
CONTINUOUS
  0
LAYER
  5
C90
330
BAB
100
AcDbSymbolTableRecord
100
AcDbLayerTableRecord
  2
Shape11333
 70
    0
 62
    7
  6
CONTINUOUS
  0
LAYER
  5
C91
330
BAB
100
AcDbSymbolTableRecord
100
AcDbLayerTableRecord
  2
Shape11334
 70
    0
 62
    7
  6
CONTINUOUS
  0
LAYER
  5
C92
330
BAB
100
AcDbSymbolTableRecord
100
AcDbLayerTableRecord
  2
Shape11335
 70
    0
 62
    7
  6
CONTINUOUS
  0
LAYER
  5
C93
330
BAB
100
AcDbSymbolTableRecord
100
AcDbLayerTableRecord
  2
Shape11336
 70
    0
 62
    7
  6
CONTINUOUS
  0
LAYER
  5
C94
330
BAB
100
AcDbSymbolTableRecord
100
AcDbLayerTableRecord
  2
Shape11337
 70
    0
 62
    7
  6
CONTINUOUS
  0
LAYER
  5
C95
330
BAB
100
AcDbSymbolTableRecord
100
AcDbLayerTableRecord
  2
Shape11338
 70
    0
 62
    7
  6
CONTINUOUS
  0
LAYER
  5
C96
330
BAB
100
AcDbSymbolTableRecord
100
AcDbLayerTableRecord
  2
Shape11339
 70
    0
 62
    7
  6
CONTINUOUS
  0
LAYER
  5
C97
330
BAB
100
AcDbSymbolTableRecord
100
AcDbLayerTableRecord
  2
Shape11340
 70
    0
 62
    7
  6
CONTINUOUS
  0
LAYER
  5
C98
330
BAB
100
AcDbSymbolTableRecord
100
AcDbLayerTableRecord
  2
Shape11341
 70
    0
 62
    7
  6
CONTINUOUS
  0
LAYER
  5
C99
330
BAB
100
AcDbSymbolTableRecord
100
AcDbLayerTableRecord
  2
Shape11342
 70
    0
 62
    7
  6
CONTINUOUS
  0
LAYER
  5
C9A
330
BAB
100
AcDbSymbolTableRecord
100
AcDbLayerTableRecord
  2
Shape11343
 70
    0
 62
    7
  6
CONTINUOUS
  0
LAYER
  5
C9B
330
BAB
100
AcDbSymbolTableRecord
100
AcDbLayerTableRecord
  2
Shape11344
 70
    0
 62
    7
  6
CONTINUOUS
  0
LAYER
  5
C9C
330
BAB
100
AcDbSymbolTableRecord
100
AcDbLayerTableRecord
  2
Shape11345
 70
    0
 62
    7
  6
CONTINUOUS
  0
LAYER
  5
C9D
330
BAB
100
AcDbSymbolTableRecord
100
AcDbLayerTableRecord
  2
Shape11346
 70
    0
 62
    7
  6
CONTINUOUS
  0
LAYER
  5
C9E
330
BAB
100
AcDbSymbolTableRecord
100
AcDbLayerTableRecord
  2
Shape11347
 70
    0
 62
    7
  6
CONTINUOUS
  0
LAYER
  5
C9F
330
BAB
100
AcDbSymbolTableRecord
100
AcDbLayerTableRecord
  2
Shape11348
 70
    0
 62
    7
  6
CONTINUOUS
  0
LAYER
  5
CA0
330
BAB
100
AcDbSymbolTableRecord
100
AcDbLayerTableRecord
  2
Shape11349
 70
    0
 62
    7
  6
CONTINUOUS
  0
LAYER
  5
CA1
330
BAB
100
AcDbSymbolTableRecord
100
AcDbLayerTableRecord
  2
Shape11350
 70
    0
 62
    7
  6
CONTINUOUS
  0
LAYER
  5
CA2
330
BAB
100
AcDbSymbolTableRecord
100
AcDbLayerTableRecord
  2
Shape11351
 70
    0
 62
    7
  6
CONTINUOUS
  0
LAYER
  5
CA3
330
BAB
100
AcDbSymbolTableRecord
100
AcDbLayerTableRecord
  2
Shape11352
 70
    0
 62
    7
  6
CONTINUOUS
  0
LAYER
  5
CA4
330
BAB
100
AcDbSymbolTableRecord
100
AcDbLayerTableRecord
  2
Shape11353
 70
    0
 62
    7
  6
CONTINUOUS
  0
LAYER
  5
CA5
330
BAB
100
AcDbSymbolTableRecord
100
AcDbLayerTableRecord
  2
Shape11354
 70
    0
 62
    7
  6
CONTINUOUS
  0
LAYER
  5
CA6
330
BAB
100
AcDbSymbolTableRecord
100
AcDbLayerTableRecord
  2
Shape11355
 70
    0
 62
    7
  6
CONTINUOUS
  0
LAYER
  5
CA7
330
BAB
100
AcDbSymbolTableRecord
100
AcDbLayerTableRecord
  2
Shape11356
 70
    0
 62
    7
  6
CONTINUOUS
  0
LAYER
  5
CA8
330
BAB
100
AcDbSymbolTableRecord
100
AcDbLayerTableRecord
  2
Shape11357
 70
    0
 62
    7
  6
CONTINUOUS
  0
LAYER
  5
CA9
330
BAB
100
AcDbSymbolTableRecord
100
AcDbLayerTableRecord
  2
Shape11358
 70
    0
 62
    7
  6
CONTINUOUS
  0
LAYER
  5
CAA
330
BAB
100
AcDbSymbolTableRecord
100
AcDbLayerTableRecord
  2
Shape11359
 70
    0
 62
    7
  6
CONTINUOUS
  0
LAYER
  5
CAB
330
BAB
100
AcDbSymbolTableRecord
100
AcDbLayerTableRecord
  2
Shape11360
 70
    0
 62
    7
  6
CONTINUOUS
  0
LAYER
  5
CAC
330
BAB
100
AcDbSymbolTableRecord
100
AcDbLayerTableRecord
  2
Shape11361
 70
    0
 62
    7
  6
CONTINUOUS
  0
LAYER
  5
CAD
330
BAB
100
AcDbSymbolTableRecord
100
AcDbLayerTableRecord
  2
Shape11362
 70
    0
 62
    7
  6
CONTINUOUS
  0
LAYER
  5
CAE
330
BAB
100
AcDbSymbolTableRecord
100
AcDbLayerTableRecord
  2
Shape11363
 70
    0
 62
    7
  6
CONTINUOUS
  0
LAYER
  5
CAF
330
BAB
100
AcDbSymbolTableRecord
100
AcDbLayerTableRecord
  2
Shape11364
 70
    0
 62
    7
  6
CONTINUOUS
  0
LAYER
  5
CB0
330
BAB
100
AcDbSymbolTableRecord
100
AcDbLayerTableRecord
  2
Shape11365
 70
    0
 62
    7
  6
CONTINUOUS
  0
LAYER
  5
CB1
330
BAB
100
AcDbSymbolTableRecord
100
AcDbLayerTableRecord
  2
Shape11366
 70
    0
 62
    7
  6
CONTINUOUS
  0
LAYER
  5
CB2
330
BAB
100
AcDbSymbolTableRecord
100
AcDbLayerTableRecord
  2
Shape11367
 70
    0
 62
    7
  6
CONTINUOUS
  0
LAYER
  5
CB3
330
BAB
100
AcDbSymbolTableRecord
100
AcDbLayerTableRecord
  2
Shape11368
 70
    0
 62
    7
  6
CONTINUOUS
  0
LAYER
  5
CB4
330
BAB
100
AcDbSymbolTableRecord
100
AcDbLayerTableRecord
  2
Shape11369
 70
    0
 62
    7
  6
CONTINUOUS
  0
LAYER
  5
CB5
330
BAB
100
AcDbSymbolTableRecord
100
AcDbLayerTableRecord
  2
Shape11370
 70
    0
 62
    7
  6
CONTINUOUS
  0
LAYER
  5
CB6
330
BAB
100
AcDbSymbolTableRecord
100
AcDbLayerTableRecord
  2
Shape11371
 70
    0
 62
    7
  6
CONTINUOUS
  0
LAYER
  5
CB7
330
BAB
100
AcDbSymbolTableRecord
100
AcDbLayerTableRecord
  2
Shape11372
 70
    0
 62
    7
  6
CONTINUOUS
  0
LAYER
  5
CB8
330
BAB
100
AcDbSymbolTableRecord
100
AcDbLayerTableRecord
  2
Shape11373
 70
    0
 62
    7
  6
CONTINUOUS
  0
LAYER
  5
CB9
330
BAB
100
AcDbSymbolTableRecord
100
AcDbLayerTableRecord
  2
Shape11374
 70
    0
 62
    7
  6
CONTINUOUS
  0
LAYER
  5
CBA
330
BAB
100
AcDbSymbolTableRecord
100
AcDbLayerTableRecord
  2
Shape11375
 70
    0
 62
    7
  6
CONTINUOUS
  0
LAYER
  5
CBB
330
BAB
100
AcDbSymbolTableRecord
100
AcDbLayerTableRecord
  2
Shape11376
 70
    0
 62
    7
  6
CONTINUOUS
  0
LAYER
  5
CBC
330
BAB
100
AcDbSymbolTableRecord
100
AcDbLayerTableRecord
  2
Shape11377
 70
    0
 62
    7
  6
CONTINUOUS
  0
LAYER
  5
CBD
330
BAB
100
AcDbSymbolTableRecord
100
AcDbLayerTableRecord
  2
Shape11378
 70
    0
 62
    7
  6
CONTINUOUS
  0
LAYER
  5
CBE
330
BAB
100
AcDbSymbolTableRecord
100
AcDbLayerTableRecord
  2
Shape11379
 70
    0
 62
    7
  6
CONTINUOUS
  0
LAYER
  5
CBF
330
BAB
100
AcDbSymbolTableRecord
100
AcDbLayerTableRecord
  2
Shape11380
 70
    0
 62
    7
  6
CONTINUOUS
  0
LAYER
  5
CC0
330
BAB
100
AcDbSymbolTableRecord
100
AcDbLayerTableRecord
  2
Shape11381
 70
    0
 62
    7
  6
CONTINUOUS
  0
LAYER
  5
CC1
330
BAB
100
AcDbSymbolTableRecord
100
AcDbLayerTableRecord
  2
Shape11382
 70
    0
 62
    7
  6
CONTINUOUS
  0
LAYER
  5
CC2
330
BAB
100
AcDbSymbolTableRecord
100
AcDbLayerTableRecord
  2
Shape11383
 70
    0
 62
    7
  6
CONTINUOUS
  0
LAYER
  5
CC3
330
BAB
100
AcDbSymbolTableRecord
100
AcDbLayerTableRecord
  2
Shape11384
 70
    0
 62
    7
  6
CONTINUOUS
  0
LAYER
  5
CC4
330
BAB
100
AcDbSymbolTableRecord
100
AcDbLayerTableRecord
  2
Shape11385
 70
    0
 62
    7
  6
CONTINUOUS
  0
LAYER
  5
CC5
330
BAB
100
AcDbSymbolTableRecord
100
AcDbLayerTableRecord
  2
Shape11386
 70
    0
 62
    7
  6
CONTINUOUS
  0
LAYER
  5
CC6
330
BAB
100
AcDbSymbolTableRecord
100
AcDbLayerTableRecord
  2
Shape11387
 70
    0
 62
    7
  6
CONTINUOUS
  0
LAYER
  5
CC7
330
BAB
100
AcDbSymbolTableRecord
100
AcDbLayerTableRecord
  2
Shape11388
 70
    0
 62
    7
  6
CONTINUOUS
  0
LAYER
  5
CC8
330
BAB
100
AcDbSymbolTableRecord
100
AcDbLayerTableRecord
  2
Shape11389
 70
    0
 62
    7
  6
CONTINUOUS
  0
LAYER
  5
CC9
330
BAB
100
AcDbSymbolTableRecord
100
AcDbLayerTableRecord
  2
Shape11390
 70
    0
 62
    7
  6
CONTINUOUS
  0
LAYER
  5
CCA
330
BAB
100
AcDbSymbolTableRecord
100
AcDbLayerTableRecord
  2
Shape11391
 70
    0
 62
    7
  6
CONTINUOUS
  0
LAYER
  5
CCB
330
BAB
100
AcDbSymbolTableRecord
100
AcDbLayerTableRecord
  2
Shape11392
 70
    0
 62
    7
  6
CONTINUOUS
  0
LAYER
  5
CCC
330
BAB
100
AcDbSymbolTableRecord
100
AcDbLayerTableRecord
  2
Shape11393
 70
    0
 62
    7
  6
CONTINUOUS
  0
LAYER
  5
CCD
330
BAB
100
AcDbSymbolTableRecord
100
AcDbLayerTableRecord
  2
Shape11394
 70
    0
 62
    7
  6
CONTINUOUS
  0
LAYER
  5
CCE
330
BAB
100
AcDbSymbolTableRecord
100
AcDbLayerTableRecord
  2
Shape11395
 70
    0
 62
    7
  6
CONTINUOUS
  0
LAYER
  5
CCF
330
BAB
100
AcDbSymbolTableRecord
100
AcDbLayerTableRecord
  2
Shape11396
 70
    0
 62
    7
  6
CONTINUOUS
  0
LAYER
  5
CD0
330
BAB
100
AcDbSymbolTableRecord
100
AcDbLayerTableRecord
  2
Shape11397
 70
    0
 62
    7
  6
CONTINUOUS
  0
LAYER
  5
CD1
330
BAB
100
AcDbSymbolTableRecord
100
AcDbLayerTableRecord
  2
Shape11398
 70
    0
 62
    7
  6
CONTINUOUS
  0
LAYER
  5
CD2
330
BAB
100
AcDbSymbolTableRecord
100
AcDbLayerTableRecord
  2
Shape11399
 70
    0
 62
    7
  6
CONTINUOUS
  0
LAYER
  5
CD3
330
BAB
100
AcDbSymbolTableRecord
100
AcDbLayerTableRecord
  2
Shape11400
 70
    0
 62
    7
  6
CONTINUOUS
  0
LAYER
  5
CD4
330
BAB
100
AcDbSymbolTableRecord
100
AcDbLayerTableRecord
  2
Shape11401
 70
    0
 62
    7
  6
CONTINUOUS
  0
LAYER
  5
CD5
330
BAB
100
AcDbSymbolTableRecord
100
AcDbLayerTableRecord
  2
Shape11402
 70
    0
 62
    7
  6
CONTINUOUS
  0
LAYER
  5
CD6
330
BAB
100
AcDbSymbolTableRecord
100
AcDbLayerTableRecord
  2
Shape11403
 70
    0
 62
    7
  6
CONTINUOUS
  0
LAYER
  5
CD7
330
BAB
100
AcDbSymbolTableRecord
100
AcDbLayerTableRecord
  2
Shape11404
 70
    0
 62
    7
  6
CONTINUOUS
  0
LAYER
  5
CD8
330
BAB
100
AcDbSymbolTableRecord
100
AcDbLayerTableRecord
  2
Shape11405
 70
    0
 62
    7
  6
CONTINUOUS
  0
LAYER
  5
CD9
330
BAB
100
AcDbSymbolTableRecord
100
AcDbLayerTableRecord
  2
Shape11406
 70
    0
 62
    7
  6
CONTINUOUS
  0
LAYER
  5
CDA
330
BAB
100
AcDbSymbolTableRecord
100
AcDbLayerTableRecord
  2
Shape11407
 70
    0
 62
    7
  6
CONTINUOUS
  0
LAYER
  5
CDB
330
BAB
100
AcDbSymbolTableRecord
100
AcDbLayerTableRecord
  2
Shape11408
 70
    0
 62
    7
  6
CONTINUOUS
  0
LAYER
  5
CDC
330
BAB
100
AcDbSymbolTableRecord
100
AcDbLayerTableRecord
  2
Shape11409
 70
    0
 62
    7
  6
CONTINUOUS
  0
LAYER
  5
CDD
330
BAB
100
AcDbSymbolTableRecord
100
AcDbLayerTableRecord
  2
Shape11410
 70
    0
 62
    7
  6
CONTINUOUS
  0
LAYER
  5
CDE
330
BAB
100
AcDbSymbolTableRecord
100
AcDbLayerTableRecord
  2
Shape11411
 70
    0
 62
    7
  6
CONTINUOUS
  0
LAYER
  5
CDF
330
BAB
100
AcDbSymbolTableRecord
100
AcDbLayerTableRecord
  2
Shape11412
 70
    0
 62
    7
  6
CONTINUOUS
  0
LAYER
  5
CE0
330
BAB
100
AcDbSymbolTableRecord
100
AcDbLayerTableRecord
  2
Shape11413
 70
    0
 62
    7
  6
CONTINUOUS
  0
LAYER
  5
CE1
330
BAB
100
AcDbSymbolTableRecord
100
AcDbLayerTableRecord
  2
Shape11414
 70
    0
 62
    7
  6
CONTINUOUS
  0
LAYER
  5
CE2
330
BAB
100
AcDbSymbolTableRecord
100
AcDbLayerTableRecord
  2
Shape11415
 70
    0
 62
    7
  6
CONTINUOUS
  0
LAYER
  5
CE3
330
BAB
100
AcDbSymbolTableRecord
100
AcDbLayerTableRecord
  2
Shape11416
 70
    0
 62
    7
  6
CONTINUOUS
  0
LAYER
  5
CE4
330
BAB
100
AcDbSymbolTableRecord
100
AcDbLayerTableRecord
  2
Shape11417
 70
    0
 62
    7
  6
CONTINUOUS
  0
LAYER
  5
CE5
330
BAB
100
AcDbSymbolTableRecord
100
AcDbLayerTableRecord
  2
Shape11418
 70
    0
 62
    7
  6
CONTINUOUS
  0
LAYER
  5
CE6
330
BAB
100
AcDbSymbolTableRecord
100
AcDbLayerTableRecord
  2
Shape11419
 70
    0
 62
    7
  6
CONTINUOUS
  0
LAYER
  5
CE7
330
BAB
100
AcDbSymbolTableRecord
100
AcDbLayerTableRecord
  2
Shape11420
 70
    0
 62
    7
  6
CONTINUOUS
  0
LAYER
  5
CE8
330
BAB
100
AcDbSymbolTableRecord
100
AcDbLayerTableRecord
  2
Shape11421
 70
    0
 62
    7
  6
CONTINUOUS
  0
LAYER
  5
CE9
330
BAB
100
AcDbSymbolTableRecord
100
AcDbLayerTableRecord
  2
Shape11422
 70
    0
 62
    7
  6
CONTINUOUS
  0
LAYER
  5
CEA
330
BAB
100
AcDbSymbolTableRecord
100
AcDbLayerTableRecord
  2
Shape11423
 70
    0
 62
    7
  6
CONTINUOUS
  0
LAYER
  5
CEB
330
BAB
100
AcDbSymbolTableRecord
100
AcDbLayerTableRecord
  2
Shape11424
 70
    0
 62
    7
  6
CONTINUOUS
  0
LAYER
  5
CEC
330
BAB
100
AcDbSymbolTableRecord
100
AcDbLayerTableRecord
  2
Shape11425
 70
    0
 62
    7
  6
CONTINUOUS
  0
LAYER
  5
CED
330
BAB
100
AcDbSymbolTableRecord
100
AcDbLayerTableRecord
  2
Shape11426
 70
    0
 62
    7
  6
CONTINUOUS
  0
LAYER
  5
CEE
330
BAB
100
AcDbSymbolTableRecord
100
AcDbLayerTableRecord
  2
Shape11427
 70
    0
 62
    7
  6
CONTINUOUS
  0
LAYER
  5
CEF
330
BAB
100
AcDbSymbolTableRecord
100
AcDbLayerTableRecord
  2
Shape11428
 70
    0
 62
    7
  6
CONTINUOUS
  0
LAYER
  5
CF0
330
BAB
100
AcDbSymbolTableRecord
100
AcDbLayerTableRecord
  2
Shape11429
 70
    0
 62
    7
  6
CONTINUOUS
  0
LAYER
  5
CF1
330
BAB
100
AcDbSymbolTableRecord
100
AcDbLayerTableRecord
  2
Shape11430
 70
    0
 62
    7
  6
CONTINUOUS
  0
LAYER
  5
CF2
330
BAB
100
AcDbSymbolTableRecord
100
AcDbLayerTableRecord
  2
Shape11431
 70
    0
 62
    7
  6
CONTINUOUS
  0
LAYER
  5
CF3
330
BAB
100
AcDbSymbolTableRecord
100
AcDbLayerTableRecord
  2
Shape11432
 70
    0
 62
    7
  6
CONTINUOUS
  0
LAYER
  5
CF4
330
BAB
100
AcDbSymbolTableRecord
100
AcDbLayerTableRecord
  2
Shape11433
 70
    0
 62
    7
  6
CONTINUOUS
  0
LAYER
  5
CF5
330
BAB
100
AcDbSymbolTableRecord
100
AcDbLayerTableRecord
  2
Shape11434
 70
    0
 62
    7
  6
CONTINUOUS
  0
LAYER
  5
CF6
330
BAB
100
AcDbSymbolTableRecord
100
AcDbLayerTableRecord
  2
Shape11435
 70
    0
 62
    7
  6
CONTINUOUS
  0
LAYER
  5
CF7
330
BAB
100
AcDbSymbolTableRecord
100
AcDbLayerTableRecord
  2
Shape11436
 70
    0
 62
    7
  6
CONTINUOUS
  0
LAYER
  5
CF8
330
BAB
100
AcDbSymbolTableRecord
100
AcDbLayerTableRecord
  2
Shape11437
 70
    0
 62
    7
  6
CONTINUOUS
  0
LAYER
  5
CF9
330
BAB
100
AcDbSymbolTableRecord
100
AcDbLayerTableRecord
  2
Shape11438
 70
    0
 62
    7
  6
CONTINUOUS
  0
LAYER
  5
CFA
330
BAB
100
AcDbSymbolTableRecord
100
AcDbLayerTableRecord
  2
Shape11439
 70
    0
 62
    7
  6
CONTINUOUS
  0
LAYER
  5
CFB
330
BAB
100
AcDbSymbolTableRecord
100
AcDbLayerTableRecord
  2
Shape11440
 70
    0
 62
    7
  6
CONTINUOUS
  0
LAYER
  5
CFC
330
BAB
100
AcDbSymbolTableRecord
100
AcDbLayerTableRecord
  2
Shape11441
 70
    0
 62
    7
  6
CONTINUOUS
  0
LAYER
  5
CFD
330
BAB
100
AcDbSymbolTableRecord
100
AcDbLayerTableRecord
  2
Shape11442
 70
    0
 62
    7
  6
CONTINUOUS
  0
LAYER
  5
CFE
330
BAB
100
AcDbSymbolTableRecord
100
AcDbLayerTableRecord
  2
Shape11443
 70
    0
 62
    7
  6
CONTINUOUS
  0
LAYER
  5
CFF
330
BAB
100
AcDbSymbolTableRecord
100
AcDbLayerTableRecord
  2
Shape11444
 70
    0
 62
    7
  6
CONTINUOUS
  0
LAYER
  5
D00
330
BAB
100
AcDbSymbolTableRecord
100
AcDbLayerTableRecord
  2
Shape11783
 70
    0
 62
    7
  6
CONTINUOUS
  0
LAYER
  5
D01
330
BAB
100
AcDbSymbolTableRecord
100
AcDbLayerTableRecord
  2
Shape11784
 70
    0
 62
    7
  6
CONTINUOUS
  0
LAYER
  5
D02
330
BAB
100
AcDbSymbolTableRecord
100
AcDbLayerTableRecord
  2
Shape11785
 70
    0
 62
    7
  6
CONTINUOUS
  0
LAYER
  5
D03
330
BAB
100
AcDbSymbolTableRecord
100
AcDbLayerTableRecord
  2
Shape11786
 70
    0
 62
    7
  6
CONTINUOUS
  0
LAYER
  5
D04
330
BAB
100
AcDbSymbolTableRecord
100
AcDbLayerTableRecord
  2
Shape11787
 70
    0
 62
    7
  6
CONTINUOUS
  0
LAYER
  5
D05
330
BAB
100
AcDbSymbolTableRecord
100
AcDbLayerTableRecord
  2
Shape11788
 70
    0
 62
    7
  6
CONTINUOUS
  0
LAYER
  5
D06
330
BAB
100
AcDbSymbolTableRecord
100
AcDbLayerTableRecord
  2
Shape11789
 70
    0
 62
    7
  6
CONTINUOUS
  0
LAYER
  5
D07
330
BAB
100
AcDbSymbolTableRecord
100
AcDbLayerTableRecord
  2
Shape11790
 70
    0
 62
    7
  6
CONTINUOUS
  0
LAYER
  5
D08
330
BAB
100
AcDbSymbolTableRecord
100
AcDbLayerTableRecord
  2
Shape11791
 70
    0
 62
    7
  6
CONTINUOUS
  0
LAYER
  5
D09
330
BAB
100
AcDbSymbolTableRecord
100
AcDbLayerTableRecord
  2
Shape11792
 70
    0
 62
    7
  6
CONTINUOUS
  0
LAYER
  5
D0A
330
BAB
100
AcDbSymbolTableRecord
100
AcDbLayerTableRecord
  2
Shape11793
 70
    0
 62
    7
  6
CONTINUOUS
  0
LAYER
  5
D0B
330
BAB
100
AcDbSymbolTableRecord
100
AcDbLayerTableRecord
  2
Shape11794
 70
    0
 62
    7
  6
CONTINUOUS
  0
LAYER
  5
D0C
330
BAB
100
AcDbSymbolTableRecord
100
AcDbLayerTableRecord
  2
Shape11795
 70
    0
 62
    7
  6
CONTINUOUS
  0
LAYER
  5
D0D
330
BAB
100
AcDbSymbolTableRecord
100
AcDbLayerTableRecord
  2
Shape11796
 70
    0
 62
    7
  6
CONTINUOUS
  0
LAYER
  5
D0E
330
BAB
100
AcDbSymbolTableRecord
100
AcDbLayerTableRecord
  2
Shape11797
 70
    0
 62
    7
  6
CONTINUOUS
  0
LAYER
  5
D0F
330
BAB
100
AcDbSymbolTableRecord
100
AcDbLayerTableRecord
  2
Shape11798
 70
    0
 62
    7
  6
CONTINUOUS
  0
LAYER
  5
D10
330
BAB
100
AcDbSymbolTableRecord
100
AcDbLayerTableRecord
  2
Shape11799
 70
    0
 62
    7
  6
CONTINUOUS
  0
LAYER
  5
D11
330
BAB
100
AcDbSymbolTableRecord
100
AcDbLayerTableRecord
  2
Shape11800
 70
    0
 62
    7
  6
CONTINUOUS
  0
LAYER
  5
D12
330
BAB
100
AcDbSymbolTableRecord
100
AcDbLayerTableRecord
  2
Shape11801
 70
    0
 62
    7
  6
CONTINUOUS
  0
LAYER
  5
D13
330
BAB
100
AcDbSymbolTableRecord
100
AcDbLayerTableRecord
  2
Shape11802
 70
    0
 62
    7
  6
CONTINUOUS
  0
LAYER
  5
D14
330
BAB
100
AcDbSymbolTableRecord
100
AcDbLayerTableRecord
  2
Shape11803
 70
    0
 62
    7
  6
CONTINUOUS
  0
LAYER
  5
D15
330
BAB
100
AcDbSymbolTableRecord
100
AcDbLayerTableRecord
  2
Shape11804
 70
    0
 62
    7
  6
CONTINUOUS
  0
LAYER
  5
D16
330
BAB
100
AcDbSymbolTableRecord
100
AcDbLayerTableRecord
  2
Shape11805
 70
    0
 62
    7
  6
CONTINUOUS
  0
LAYER
  5
D17
330
BAB
100
AcDbSymbolTableRecord
100
AcDbLayerTableRecord
  2
Shape11806
 70
    0
 62
    7
  6
CONTINUOUS
  0
LAYER
  5
D18
330
BAB
100
AcDbSymbolTableRecord
100
AcDbLayerTableRecord
  2
Shape11807
 70
    0
 62
    7
  6
CONTINUOUS
  0
LAYER
  5
D19
330
BAB
100
AcDbSymbolTableRecord
100
AcDbLayerTableRecord
  2
Shape11808
 70
    0
 62
    7
  6
CONTINUOUS
  0
LAYER
  5
D1A
330
BAB
100
AcDbSymbolTableRecord
100
AcDbLayerTableRecord
  2
Shape11809
 70
    0
 62
    7
  6
CONTINUOUS
  0
LAYER
  5
D1B
330
BAB
100
AcDbSymbolTableRecord
100
AcDbLayerTableRecord
  2
Shape11810
 70
    0
 62
    7
  6
CONTINUOUS
  0
LAYER
  5
D1C
330
BAB
100
AcDbSymbolTableRecord
100
AcDbLayerTableRecord
  2
Shape11811
 70
    0
 62
    7
  6
CONTINUOUS
  0
LAYER
  5
D1D
330
BAB
100
AcDbSymbolTableRecord
100
AcDbLayerTableRecord
  2
Shape11812
 70
    0
 62
    7
  6
CONTINUOUS
  0
LAYER
  5
D1E
330
BAB
100
AcDbSymbolTableRecord
100
AcDbLayerTableRecord
  2
Shape11813
 70
    0
 62
    7
  6
CONTINUOUS
  0
LAYER
  5
D1F
330
BAB
100
AcDbSymbolTableRecord
100
AcDbLayerTableRecord
  2
Shape11814
 70
    0
 62
    7
  6
CONTINUOUS
  0
LAYER
  5
D20
330
BAB
100
AcDbSymbolTableRecord
100
AcDbLayerTableRecord
  2
Shape11815
 70
    0
 62
    7
  6
CONTINUOUS
  0
LAYER
  5
D21
330
BAB
100
AcDbSymbolTableRecord
100
AcDbLayerTableRecord
  2
Shape11816
 70
    0
 62
    7
  6
CONTINUOUS
  0
LAYER
  5
D22
330
BAB
100
AcDbSymbolTableRecord
100
AcDbLayerTableRecord
  2
Shape11817
 70
    0
 62
    7
  6
CONTINUOUS
  0
LAYER
  5
D23
330
BAB
100
AcDbSymbolTableRecord
100
AcDbLayerTableRecord
  2
Shape11818
 70
    0
 62
    7
  6
CONTINUOUS
  0
LAYER
  5
D24
330
BAB
100
AcDbSymbolTableRecord
100
AcDbLayerTableRecord
  2
Shape11819
 70
    0
 62
    7
  6
CONTINUOUS
  0
LAYER
  5
D25
330
BAB
100
AcDbSymbolTableRecord
100
AcDbLayerTableRecord
  2
Shape11820
 70
    0
 62
    7
  6
CONTINUOUS
  0
LAYER
  5
D26
330
BAB
100
AcDbSymbolTableRecord
100
AcDbLayerTableRecord
  2
Shape11821
 70
    0
 62
    7
  6
CONTINUOUS
  0
LAYER
  5
D27
330
BAB
100
AcDbSymbolTableRecord
100
AcDbLayerTableRecord
  2
Shape11822
 70
    0
 62
    7
  6
CONTINUOUS
  0
LAYER
  5
D28
330
BAB
100
AcDbSymbolTableRecord
100
AcDbLayerTableRecord
  2
Shape11823
 70
    0
 62
    7
  6
CONTINUOUS
  0
LAYER
  5
D29
330
BAB
100
AcDbSymbolTableRecord
100
AcDbLayerTableRecord
  2
Shape11824
 70
    0
 62
    7
  6
CONTINUOUS
  0
LAYER
  5
D2A
330
BAB
100
AcDbSymbolTableRecord
100
AcDbLayerTableRecord
  2
Shape11825
 70
    0
 62
    7
  6
CONTINUOUS
  0
LAYER
  5
D2B
330
BAB
100
AcDbSymbolTableRecord
100
AcDbLayerTableRecord
  2
Shape11826
 70
    0
 62
    7
  6
CONTINUOUS
  0
LAYER
  5
D2C
330
BAB
100
AcDbSymbolTableRecord
100
AcDbLayerTableRecord
  2
Shape11827
 70
    0
 62
    7
  6
CONTINUOUS
  0
LAYER
  5
D2D
330
BAB
100
AcDbSymbolTableRecord
100
AcDbLayerTableRecord
  2
Shape11828
 70
    0
 62
    7
  6
CONTINUOUS
  0
LAYER
  5
D2E
330
BAB
100
AcDbSymbolTableRecord
100
AcDbLayerTableRecord
  2
Shape11829
 70
    0
 62
    7
  6
CONTINUOUS
  0
LAYER
  5
D2F
330
BAB
100
AcDbSymbolTableRecord
100
AcDbLayerTableRecord
  2
Shape11830
 70
    0
 62
    7
  6
CONTINUOUS
  0
LAYER
  5
D30
330
BAB
100
AcDbSymbolTableRecord
100
AcDbLayerTableRecord
  2
Shape11831
 70
    0
 62
    7
  6
CONTINUOUS
  0
LAYER
  5
D31
330
BAB
100
AcDbSymbolTableRecord
100
AcDbLayerTableRecord
  2
Shape11832
 70
    0
 62
    7
  6
CONTINUOUS
  0
LAYER
  5
D32
330
BAB
100
AcDbSymbolTableRecord
100
AcDbLayerTableRecord
  2
Shape11833
 70
    0
 62
    7
  6
CONTINUOUS
  0
LAYER
  5
D33
330
BAB
100
AcDbSymbolTableRecord
100
AcDbLayerTableRecord
  2
Shape11834
 70
    0
 62
    7
  6
CONTINUOUS
  0
LAYER
  5
D34
330
BAB
100
AcDbSymbolTableRecord
100
AcDbLayerTableRecord
  2
Shape11835
 70
    0
 62
    7
  6
CONTINUOUS
  0
LAYER
  5
D35
330
BAB
100
AcDbSymbolTableRecord
100
AcDbLayerTableRecord
  2
Shape11836
 70
    0
 62
    7
  6
CONTINUOUS
  0
LAYER
  5
D36
330
BAB
100
AcDbSymbolTableRecord
100
AcDbLayerTableRecord
  2
Shape11837
 70
    0
 62
    7
  6
CONTINUOUS
  0
LAYER
  5
D37
330
BAB
100
AcDbSymbolTableRecord
100
AcDbLayerTableRecord
  2
Shape11838
 70
    0
 62
    7
  6
CONTINUOUS
  0
LAYER
  5
D38
330
BAB
100
AcDbSymbolTableRecord
100
AcDbLayerTableRecord
  2
Shape11839
 70
    0
 62
    7
  6
CONTINUOUS
  0
LAYER
  5
D39
330
BAB
100
AcDbSymbolTableRecord
100
AcDbLayerTableRecord
  2
Shape11840
 70
    0
 62
    7
  6
CONTINUOUS
  0
LAYER
  5
D3A
330
BAB
100
AcDbSymbolTableRecord
100
AcDbLayerTableRecord
  2
Shape11841
 70
    0
 62
    7
  6
CONTINUOUS
  0
LAYER
  5
D3B
330
BAB
100
AcDbSymbolTableRecord
100
AcDbLayerTableRecord
  2
Shape11842
 70
    0
 62
    7
  6
CONTINUOUS
  0
LAYER
  5
D3C
330
BAB
100
AcDbSymbolTableRecord
100
AcDbLayerTableRecord
  2
Shape11843
 70
    0
 62
    7
  6
CONTINUOUS
  0
LAYER
  5
D3D
330
BAB
100
AcDbSymbolTableRecord
100
AcDbLayerTableRecord
  2
Shape11844
 70
    0
 62
    7
  6
CONTINUOUS
  0
LAYER
  5
D3E
330
BAB
100
AcDbSymbolTableRecord
100
AcDbLayerTableRecord
  2
Shape11845
 70
    0
 62
    7
  6
CONTINUOUS
  0
LAYER
  5
D3F
330
BAB
100
AcDbSymbolTableRecord
100
AcDbLayerTableRecord
  2
Shape11846
 70
    0
 62
    7
  6
CONTINUOUS
  0
LAYER
  5
D40
330
BAB
100
AcDbSymbolTableRecord
100
AcDbLayerTableRecord
  2
Shape11847
 70
    0
 62
    7
  6
CONTINUOUS
  0
LAYER
  5
D41
330
BAB
100
AcDbSymbolTableRecord
100
AcDbLayerTableRecord
  2
Shape11848
 70
    0
 62
    7
  6
CONTINUOUS
  0
LAYER
  5
D42
330
BAB
100
AcDbSymbolTableRecord
100
AcDbLayerTableRecord
  2
Shape11849
 70
    0
 62
    7
  6
CONTINUOUS
  0
LAYER
  5
D43
330
BAB
100
AcDbSymbolTableRecord
100
AcDbLayerTableRecord
  2
Shape11850
 70
    0
 62
    7
  6
CONTINUOUS
  0
LAYER
  5
D44
330
BAB
100
AcDbSymbolTableRecord
100
AcDbLayerTableRecord
  2
Shape11851
 70
    0
 62
    7
  6
CONTINUOUS
  0
LAYER
  5
D45
330
BAB
100
AcDbSymbolTableRecord
100
AcDbLayerTableRecord
  2
Shape11852
 70
    0
 62
    7
  6
CONTINUOUS
  0
LAYER
  5
D46
330
BAB
100
AcDbSymbolTableRecord
100
AcDbLayerTableRecord
  2
Shape11853
 70
    0
 62
    7
  6
CONTINUOUS
  0
LAYER
  5
D47
330
BAB
100
AcDbSymbolTableRecord
100
AcDbLayerTableRecord
  2
Shape11854
 70
    0
 62
    7
  6
CONTINUOUS
  0
LAYER
  5
D48
330
BAB
100
AcDbSymbolTableRecord
100
AcDbLayerTableRecord
  2
Shape11855
 70
    0
 62
    7
  6
CONTINUOUS
  0
LAYER
  5
D49
330
BAB
100
AcDbSymbolTableRecord
100
AcDbLayerTableRecord
  2
Shape11856
 70
    0
 62
    7
  6
CONTINUOUS
  0
LAYER
  5
D4A
330
BAB
100
AcDbSymbolTableRecord
100
AcDbLayerTableRecord
  2
Shape11857
 70
    0
 62
    7
  6
CONTINUOUS
  0
LAYER
  5
D4B
330
BAB
100
AcDbSymbolTableRecord
100
AcDbLayerTableRecord
  2
Shape11858
 70
    0
 62
    7
  6
CONTINUOUS
  0
LAYER
  5
D4C
330
BAB
100
AcDbSymbolTableRecord
100
AcDbLayerTableRecord
  2
Shape11859
 70
    0
 62
    7
  6
CONTINUOUS
  0
LAYER
  5
D4D
330
BAB
100
AcDbSymbolTableRecord
100
AcDbLayerTableRecord
  2
Shape11860
 70
    0
 62
    7
  6
CONTINUOUS
  0
LAYER
  5
D4E
330
BAB
100
AcDbSymbolTableRecord
100
AcDbLayerTableRecord
  2
Shape11861
 70
    0
 62
    7
  6
CONTINUOUS
  0
LAYER
  5
D4F
330
BAB
100
AcDbSymbolTableRecord
100
AcDbLayerTableRecord
  2
Shape11862
 70
    0
 62
    7
  6
CONTINUOUS
  0
LAYER
  5
D50
330
BAB
100
AcDbSymbolTableRecord
100
AcDbLayerTableRecord
  2
Shape12754
 70
    0
 62
    7
  6
CONTINUOUS
  0
ENDTAB
  0
TABLE
  2
STYLE
  5
70
330
0
100
AcDbSymbolTable
 70
     2
  0
STYLE
  5
71
330
70
100
AcDbSymbolTableRecord
100
AcDbTextStyleTableRecord
  2
STANDARD
 70
     0
 40
0.0
 41
1.0
 50
0.0
 71
     0
 42
2.5
  3
arial.ttf
  4

  0
STYLE
  5
72
330
70
100
AcDbSymbolTableRecord
100
AcDbTextStyleTableRecord
  2
ANNOTATIVE
 70
     0
 40
0.0
 41
1.0
 50
0.0
 71
     0
 42
2.5
  3
arial.ttf
  4

  0
ENDTAB
  0
TABLE
  2
VIEW
  5
73
330
0
100
AcDbSymbolTable
 70
     0
  0
ENDTAB
  0
TABLE
  2
UCS
  5
74
330
0
100
AcDbSymbolTable
 70
     0
  0
ENDTAB
  0
TABLE
  2
APPID
  5
75
330
0
100
AcDbSymbolTable
 70
     2
  0
APPID
  5
76
330
75
100
AcDbSymbolTableRecord
100
AcDbRegAppTableRecord
  2
ACAD
 70
     0
  0
APPID
  5
77
330
75
100
AcDbSymbolTableRecord
100
AcDbRegAppTableRecord
  2
ACADANNOTATIVE
 70
     0
  0
ENDTAB
  0
TABLE
  2
DIMSTYLE
  5
78
330
0
100
AcDbSymbolTable
 70
     2
  0
DIMSTYLE
105
79
330
78
100
AcDbSymbolTableRecord
100
AcDbDimStyleTableRecord
  2
STANDARD
 70
     0
  3

  4

  5

  6

  7

 40
0.0
 41
2.5
 42
0.625
 43
3.75
 44
1.25
 45
0.0
 46
0.0
 47
0.0
 48
0.0
140
2.5
141
2.5
142
0.0
143
0.03937007874016
144
1.0
145
0.0
146
1.0
147
0.625
 71
     0
 72
     0
 73
     0
 74
     0
 75
     0
 76
     0
 77
     1
 78
     8
170
     0
171
     3
172
     1
173
     0
174
     0
175
     0
176
     0
177
     0
178
     0
270
     2
271
     2
272
     2
273
     2
274
     3
340
71
275
     0
280
     0
281
     0
282
     0
283
     0
284
     8
285
     0
286
     0
287
     3
288
     0
  0
ENDTAB
  0
TABLE
  2
BLOCK_RECORD
  5
A01
330
0
100
AcDbSymbolTable
  70
5
  0
BLOCK_RECORD
  5
A02
330
A01
100
AcDbSymbolTableRecord
100
AcDbBlockTableRecord
  2
*MODEL_SPACE
  0
BLOCK_RECORD
  5
A03
330
A01
100
AcDbSymbolTableRecord
100
AcDbBlockTableRecord
  2
*PAPER_SPACE
  0
ENDTAB
  0
ENDSEC
  0
SECTION
  2
BLOCKS
  0
BLOCK
  5
A04
330
A02
100
AcDbEntity
  8
0
100
AcDbBlockBegin
  2
*MODEL_SPACE
 70
   0
 10
0
 20
0
 30
0
  3
*MODEL_SPACE
  1
 
  0
ENDBLK
  5
A05
330
A02
100
AcDbEntity
  8
0
100
AcDbBlockEnd
  0
BLOCK
  5
A06
330
A03
100
AcDbEntity
 67
1
  8
0
100
AcDbBlockBegin
  2
*PAPER_SPACE
 70
   0
 10
0
 20
0
 30
0
  3
*PAPER_SPACE
  1
 
  0
ENDBLK
  5
A07
330
A03
100
AcDbEntity
 67
    1
  8
0
100
AcDbBlockEnd
  0
ENDSEC
  0
SECTION
  2
ENTITIES
  0
CIRCLE
  5
A08
330
A02
100
AcDbEntity
  8
Shape11107
100
AcDbCircle
 10
-84.2957
 20
29.5639
 40
1.1
  0
CIRCLE
  5
A09
330
A02
100
AcDbEntity
  8
Shape11108
100
AcDbCircle
 10
-174.296
 20
29.5639
 40
1.1
  0
CIRCLE
  5
A0A
330
A02
100
AcDbEntity
  8
Shape11109
100
AcDbCircle
 10
-264.296
 20
29.5639
 40
1.1
  0
CIRCLE
  5
A0B
330
A02
100
AcDbEntity
  8
Shape11110
100
AcDbCircle
 10
-84.2957
 20
-53.8343
 40
1.1
  0
CIRCLE
  5
A0C
330
A02
100
AcDbEntity
  8
Shape11111
100
AcDbCircle
 10
-174.296
 20
-53.8343
 40
1.1
  0
CIRCLE
  5
A0D
330
A02
100
AcDbEntity
  8
Shape11112
100
AcDbCircle
 10
-264.296
 20
-53.8343
 40
1.1
  0
LINE
  5
A0E
330
A02
100
AcDbEntity
  8
Shape11113
100
AcDbLine
 10
-81.2957
 20
-55.0843
 30
0
 11
-81.2957
 21
-49.8343
 31
0
  0
ARC
  5
A0F
330
A02
100
AcDbEntity
  8
Shape11114
100
AcDbCircle
 10
-81.7957
 20
-49.8343
 30
0
 40
0.5
100
AcDbArc
 50
0
 51
180
  0
LINE
  5
A10
330
A02
100
AcDbEntity
  8
Shape11115
100
AcDbLine
 10
-82.2957
 20
-49.8343
 30
0
 11
-82.2957
 21
-53.8343
 31
0
  0
ARC
  5
A11
330
A02
100
AcDbEntity
  8
Shape11116
100
AcDbCircle
 10
-84.2957
 20
-53.8343
 30
0
 40
2
100
AcDbArc
 50
180
 51
0
  0
LINE
  5
A12
330
A02
100
AcDbEntity
  8
Shape11117
100
AcDbLine
 10
-86.2957
 20
-53.8343
 30
0
 11
-86.2957
 21
-49.8343
 31
0
  0
ARC
  5
A13
330
A02
100
AcDbEntity
  8
Shape11118
100
AcDbCircle
 10
-86.7957
 20
-49.8343
 30
0
 40
0.5
100
AcDbArc
 50
0
 51
180
  0
LINE
  5
A14
330
A02
100
AcDbEntity
  8
Shape11119
100
AcDbLine
 10
-87.2957
 20
-49.8343
 30
0
 11
-87.2957
 21
-55.0843
 31
0
  0
LINE
  5
A15
330
A02
100
AcDbEntity
  8
Shape11120
100
AcDbLine
 10
-87.2957
 20
-55.0843
 30
0
 11
-105.296
 21
-55.0843
 31
0
  0
ARC
  5
A16
330
A02
100
AcDbEntity
  8
Shape11121
100
AcDbCircle
 10
-105.296
 20
-54.0843
 30
0
 40
1
100
AcDbArc
 50
180
 51
-90
  0
LINE
  5
A17
330
A02
100
AcDbEntity
  8
Shape11122
100
AcDbLine
 10
-106.296
 20
-54.0843
 30
0
 11
-106.296
 21
-52.5843
 31
0
  0
ARC
  5
A18
330
A02
100
AcDbEntity
  8
Shape11123
100
AcDbCircle
 10
-105.296
 20
-52.5843
 30
0
 40
1
100
AcDbArc
 50
90
 51
180
  0
LINE
  5
A19
330
A02
100
AcDbEntity
  8
Shape11124
100
AcDbLine
 10
-105.296
 20
-51.5843
 30
0
 11
-94.7957
 21
-51.5843
 31
0
  0
ARC
  5
A1A
330
A02
100
AcDbEntity
  8
Shape11125
100
AcDbCircle
 10
-94.7957
 20
-51.0843
 30
0
 40
0.5
100
AcDbArc
 50
-90
 51
0
  0
LINE
  5
A1B
330
A02
100
AcDbEntity
  8
Shape11126
100
AcDbLine
 10
-94.2957
 20
-51.0843
 30
0
 11
-94.2957
 21
-50.8352
 31
0
  0
ARC
  5
A1C
330
A02
100
AcDbEntity
  8
Shape11127
100
AcDbCircle
 10
-94.7957
 20
-50.8352
 30
0
 40
0.5
100
AcDbArc
 50
0
 51
90
  0
LINE
  5
A1D
330
A02
100
AcDbEntity
  8
Shape11128
100
AcDbLine
 10
-94.7957
 20
-50.3352
 30
0
 11
-163.796
 21
-50.3352
 31
0
  0
ARC
  5
A1E
330
A02
100
AcDbEntity
  8
Shape11129
100
AcDbCircle
 10
-163.796
 20
-50.8352
 30
0
 40
0.5
100
AcDbArc
 50
90
 51
180
  0
LINE
  5
A1F
330
A02
100
AcDbEntity
  8
Shape11130
100
AcDbLine
 10
-164.296
 20
-50.8352
 30
0
 11
-164.296
 21
-51.0843
 31
0
  0
ARC
  5
A20
330
A02
100
AcDbEntity
  8
Shape11131
100
AcDbCircle
 10
-163.796
 20
-51.0843
 30
0
 40
0.5
100
AcDbArc
 50
180
 51
-90
  0
LINE
  5
A21
330
A02
100
AcDbEntity
  8
Shape11132
100
AcDbLine
 10
-163.796
 20
-51.5843
 30
0
 11
-153.296
 21
-51.5843
 31
0
  0
ARC
  5
A22
330
A02
100
AcDbEntity
  8
Shape11133
100
AcDbCircle
 10
-153.296
 20
-52.5843
 30
0
 40
1
100
AcDbArc
 50
0
 51
90
  0
LINE
  5
A23
330
A02
100
AcDbEntity
  8
Shape11134
100
AcDbLine
 10
-152.296
 20
-52.5843
 30
0
 11
-152.296
 21
-54.0843
 31
0
  0
ARC
  5
A24
330
A02
100
AcDbEntity
  8
Shape11135
100
AcDbCircle
 10
-153.296
 20
-54.0843
 30
0
 40
1
100
AcDbArc
 50
-90
 51
0
  0
LINE
  5
A25
330
A02
100
AcDbEntity
  8
Shape11136
100
AcDbLine
 10
-153.296
 20
-55.0843
 30
0
 11
-171.296
 21
-55.0843
 31
0
  0
LINE
  5
A26
330
A02
100
AcDbEntity
  8
Shape11137
100
AcDbLine
 10
-171.296
 20
-55.0843
 30
0
 11
-171.296
 21
-49.8343
 31
0
  0
ARC
  5
A27
330
A02
100
AcDbEntity
  8
Shape11138
100
AcDbCircle
 10
-171.796
 20
-49.8343
 30
0
 40
0.5
100
AcDbArc
 50
0
 51
180
  0
LINE
  5
A28
330
A02
100
AcDbEntity
  8
Shape11139
100
AcDbLine
 10
-172.296
 20
-49.8343
 30
0
 11
-172.296
 21
-53.8343
 31
0
  0
ARC
  5
A29
330
A02
100
AcDbEntity
  8
Shape11140
100
AcDbCircle
 10
-174.296
 20
-53.8343
 30
0
 40
2
100
AcDbArc
 50
180
 51
0
  0
LINE
  5
A2A
330
A02
100
AcDbEntity
  8
Shape11141
100
AcDbLine
 10
-176.296
 20
-53.8343
 30
0
 11
-176.296
 21
-49.8343
 31
0
  0
ARC
  5
A2B
330
A02
100
AcDbEntity
  8
Shape11142
100
AcDbCircle
 10
-176.796
 20
-49.8343
 30
0
 40
0.5
100
AcDbArc
 50
0
 51
180
  0
LINE
  5
A2C
330
A02
100
AcDbEntity
  8
Shape11143
100
AcDbLine
 10
-177.296
 20
-49.8343
 30
0
 11
-177.296
 21
-55.0843
 31
0
  0
LINE
  5
A2D
330
A02
100
AcDbEntity
  8
Shape11144
100
AcDbLine
 10
-177.296
 20
-55.0843
 30
0
 11
-195.296
 21
-55.0843
 31
0
  0
ARC
  5
A2E
330
A02
100
AcDbEntity
  8
Shape11145
100
AcDbCircle
 10
-195.296
 20
-54.0843
 30
0
 40
1
100
AcDbArc
 50
180
 51
-90
  0
LINE
  5
A2F
330
A02
100
AcDbEntity
  8
Shape11146
100
AcDbLine
 10
-196.296
 20
-54.0843
 30
0
 11
-196.296
 21
-52.5843
 31
0
  0
ARC
  5
A30
330
A02
100
AcDbEntity
  8
Shape11147
100
AcDbCircle
 10
-195.296
 20
-52.5843
 30
0
 40
1
100
AcDbArc
 50
90
 51
180
  0
LINE
  5
A31
330
A02
100
AcDbEntity
  8
Shape11148
100
AcDbLine
 10
-195.296
 20
-51.5843
 30
0
 11
-184.796
 21
-51.5843
 31
0
  0
ARC
  5
A32
330
A02
100
AcDbEntity
  8
Shape11149
100
AcDbCircle
 10
-184.796
 20
-51.0843
 30
0
 40
0.5
100
AcDbArc
 50
-90
 51
0
  0
LINE
  5
A33
330
A02
100
AcDbEntity
  8
Shape11150
100
AcDbLine
 10
-184.296
 20
-51.0843
 30
0
 11
-184.296
 21
-50.8352
 31
0
  0
ARC
  5
A34
330
A02
100
AcDbEntity
  8
Shape11151
100
AcDbCircle
 10
-184.796
 20
-50.8352
 30
0
 40
0.5
100
AcDbArc
 50
0
 51
90
  0
LINE
  5
A35
330
A02
100
AcDbEntity
  8
Shape11152
100
AcDbLine
 10
-184.796
 20
-50.3352
 30
0
 11
-253.796
 21
-50.3352
 31
0
  0
ARC
  5
A36
330
A02
100
AcDbEntity
  8
Shape11153
100
AcDbCircle
 10
-253.796
 20
-50.8352
 30
0
 40
0.5
100
AcDbArc
 50
90
 51
180
  0
LINE
  5
A37
330
A02
100
AcDbEntity
  8
Shape11154
100
AcDbLine
 10
-254.296
 20
-50.8352
 30
0
 11
-254.296
 21
-51.0843
 31
0
  0
ARC
  5
A38
330
A02
100
AcDbEntity
  8
Shape11155
100
AcDbCircle
 10
-253.796
 20
-51.0843
 30
0
 40
0.5
100
AcDbArc
 50
180
 51
-90
  0
LINE
  5
A39
330
A02
100
AcDbEntity
  8
Shape11156
100
AcDbLine
 10
-253.796
 20
-51.5843
 30
0
 11
-243.296
 21
-51.5843
 31
0
  0
ARC
  5
A3A
330
A02
100
AcDbEntity
  8
Shape11157
100
AcDbCircle
 10
-243.296
 20
-52.5843
 30
0
 40
1
100
AcDbArc
 50
0
 51
90
  0
LINE
  5
A3B
330
A02
100
AcDbEntity
  8
Shape11158
100
AcDbLine
 10
-242.296
 20
-52.5843
 30
0
 11
-242.296
 21
-54.0843
 31
0
  0
ARC
  5
A3C
330
A02
100
AcDbEntity
  8
Shape11159
100
AcDbCircle
 10
-243.296
 20
-54.0843
 30
0
 40
1
100
AcDbArc
 50
-90
 51
0
  0
LINE
  5
A3D
330
A02
100
AcDbEntity
  8
Shape11160
100
AcDbLine
 10
-243.296
 20
-55.0843
 30
0
 11
-261.296
 21
-55.0843
 31
0
  0
LINE
  5
A3E
330
A02
100
AcDbEntity
  8
Shape11161
100
AcDbLine
 10
-261.296
 20
-55.0843
 30
0
 11
-261.296
 21
-49.8343
 31
0
  0
ARC
  5
A3F
330
A02
100
AcDbEntity
  8
Shape11162
100
AcDbCircle
 10
-261.796
 20
-49.8343
 30
0
 40
0.5
100
AcDbArc
 50
0
 51
180
  0
LINE
  5
A40
330
A02
100
AcDbEntity
  8
Shape11163
100
AcDbLine
 10
-262.296
 20
-49.8343
 30
0
 11
-262.296
 21
-53.8343
 31
0
  0
ARC
  5
A41
330
A02
100
AcDbEntity
  8
Shape11164
100
AcDbCircle
 10
-264.296
 20
-53.8343
 30
0
 40
2
100
AcDbArc
 50
180
 51
0
  0
LINE
  5
A42
330
A02
100
AcDbEntity
  8
Shape11165
100
AcDbLine
 10
-266.296
 20
-53.8343
 30
0
 11
-266.296
 21
-49.8343
 31
0
  0
ARC
  5
A43
330
A02
100
AcDbEntity
  8
Shape11166
100
AcDbCircle
 10
-266.796
 20
-49.8343
 30
0
 40
0.5
100
AcDbArc
 50
0
 51
180
  0
LINE
  5
A44
330
A02
100
AcDbEntity
  8
Shape11167
100
AcDbLine
 10
-267.296
 20
-49.8343
 30
0
 11
-267.296
 21
-55.0843
 31
0
  0
LINE
  5
A45
330
A02
100
AcDbEntity
  8
Shape11168
100
AcDbLine
 10
-267.296
 20
-55.0843
 30
0
 11
-285.296
 21
-55.0843
 31
0
  0
ARC
  5
A46
330
A02
100
AcDbEntity
  8
Shape11169
100
AcDbCircle
 10
-285.296
 20
-54.0843
 30
0
 40
1
100
AcDbArc
 50
180
 51
-90
  0
LINE
  5
A47
330
A02
100
AcDbEntity
  8
Shape11170
100
AcDbLine
 10
-286.296
 20
-54.0843
 30
0
 11
-286.296
 21
-52.5843
 31
0
  0
ARC
  5
A48
330
A02
100
AcDbEntity
  8
Shape11171
100
AcDbCircle
 10
-285.296
 20
-52.5843
 30
0
 40
1
100
AcDbArc
 50
90
 51
180
  0
LINE
  5
A49
330
A02
100
AcDbEntity
  8
Shape11172
100
AcDbLine
 10
-285.296
 20
-51.5843
 30
0
 11
-274.796
 21
-51.5843
 31
0
  0
ARC
  5
A4A
330
A02
100
AcDbEntity
  8
Shape11173
100
AcDbCircle
 10
-274.796
 20
-51.0843
 30
0
 40
0.5
100
AcDbArc
 50
-90
 51
0
  0
LINE
  5
A4B
330
A02
100
AcDbEntity
  8
Shape11174
100
AcDbLine
 10
-274.296
 20
-51.0843
 30
0
 11
-274.296
 21
-50.8352
 31
0
  0
ARC
  5
A4C
330
A02
100
AcDbEntity
  8
Shape11175
100
AcDbCircle
 10
-274.796
 20
-50.8352
 30
0
 40
0.5
100
AcDbArc
 50
0
 51
90
  0
LINE
  5
A4D
330
A02
100
AcDbEntity
  8
Shape11176
100
AcDbLine
 10
-274.796
 20
-50.3352
 30
0
 11
-296.121
 21
-50.3352
 31
0
  0
ARC
  5
A4E
330
A02
100
AcDbEntity
  8
Shape11177
100
AcDbCircle
 10
-296.121
 20
-48.3352
 30
0
 40
2
100
AcDbArc
 50
180
 51
-90
  0
LINE
  5
A4F
330
A02
100
AcDbEntity
  8
Shape11178
100
AcDbLine
 10
-298.121
 20
-48.3352
 30
0
 11
-298.121
 21
24.0648
 31
0
  0
ARC
  5
A50
330
A02
100
AcDbEntity
  8
Shape11179
100
AcDbCircle
 10
-296.121
 20
24.0648
 30
0
 40
2
100
AcDbArc
 50
90
 51
180
  0
LINE
  5
A51
330
A02
100
AcDbEntity
  8
Shape11180
100
AcDbLine
 10
-296.121
 20
26.0648
 30
0
 11
-274.796
 21
26.0648
 31
0
  0
ARC
  5
A52
330
A02
100
AcDbEntity
  8
Shape11181
100
AcDbCircle
 10
-274.796
 20
26.5648
 30
0
 40
0.5
100
AcDbArc
 50
-90
 51
0
  0
LINE
  5
A53
330
A02
100
AcDbEntity
  8
Shape11182
100
AcDbLine
 10
-274.296
 20
26.5648
 30
0
 11
-274.296
 21
26.8139
 31
0
  0
ARC
  5
A54
330
A02
100
AcDbEntity
  8
Shape11183
100
AcDbCircle
 10
-274.796
 20
26.8139
 30
0
 40
0.5
100
AcDbArc
 50
0
 51
90
  0
LINE
  5
A55
330
A02
100
AcDbEntity
  8
Shape11184
100
AcDbLine
 10
-274.796
 20
27.3139
 30
0
 11
-285.296
 21
27.3139
 31
0
  0
ARC
  5
A56
330
A02
100
AcDbEntity
  8
Shape11185
100
AcDbCircle
 10
-285.296
 20
28.3139
 30
0
 40
1
100
AcDbArc
 50
180
 51
-90
  0
LINE
  5
A57
330
A02
100
AcDbEntity
  8
Shape11186
100
AcDbLine
 10
-286.296
 20
28.3139
 30
0
 11
-286.296
 21
29.8139
 31
0
  0
ARC
  5
A58
330
A02
100
AcDbEntity
  8
Shape11187
100
AcDbCircle
 10
-285.296
 20
29.8139
 30
0
 40
1
100
AcDbArc
 50
90
 51
180
  0
LINE
  5
A59
330
A02
100
AcDbEntity
  8
Shape11188
100
AcDbLine
 10
-285.296
 20
30.8139
 30
0
 11
-267.296
 21
30.8139
 31
0
  0
LINE
  5
A5A
330
A02
100
AcDbEntity
  8
Shape11189
100
AcDbLine
 10
-267.296
 20
30.8139
 30
0
 11
-267.296
 21
25.5639
 31
0
  0
ARC
  5
A5B
330
A02
100
AcDbEntity
  8
Shape11190
100
AcDbCircle
 10
-266.796
 20
25.5639
 30
0
 40
0.5
100
AcDbArc
 50
180
 51
0
  0
LINE
  5
A5C
330
A02
100
AcDbEntity
  8
Shape11191
100
AcDbLine
 10
-266.296
 20
25.5639
 30
0
 11
-266.296
 21
29.5639
 31
0
  0
ARC
  5
A5D
330
A02
100
AcDbEntity
  8
Shape11192
100
AcDbCircle
 10
-264.296
 20
29.5639
 30
0
 40
2
100
AcDbArc
 50
0
 51
180
  0
LINE
  5
A5E
330
A02
100
AcDbEntity
  8
Shape11193
100
AcDbLine
 10
-262.296
 20
29.5639
 30
0
 11
-262.296
 21
25.5639
 31
0
  0
ARC
  5
A5F
330
A02
100
AcDbEntity
  8
Shape11194
100
AcDbCircle
 10
-261.796
 20
25.5639
 30
0
 40
0.5
100
AcDbArc
 50
180
 51
0
  0
LINE
  5
A60
330
A02
100
AcDbEntity
  8
Shape11195
100
AcDbLine
 10
-261.296
 20
25.5639
 30
0
 11
-261.296
 21
30.8139
 31
0
  0
LINE
  5
A61
330
A02
100
AcDbEntity
  8
Shape11196
100
AcDbLine
 10
-261.296
 20
30.8139
 30
0
 11
-243.296
 21
30.8139
 31
0
  0
ARC
  5
A62
330
A02
100
AcDbEntity
  8
Shape11197
100
AcDbCircle
 10
-243.296
 20
29.8139
 30
0
 40
1
100
AcDbArc
 50
0
 51
90
  0
LINE
  5
A63
330
A02
100
AcDbEntity
  8
Shape11198
100
AcDbLine
 10
-242.296
 20
29.8139
 30
0
 11
-242.296
 21
28.3139
 31
0
  0
ARC
  5
A64
330
A02
100
AcDbEntity
  8
Shape11199
100
AcDbCircle
 10
-243.296
 20
28.3139
 30
0
 40
1
100
AcDbArc
 50
-90
 51
0
  0
LINE
  5
A65
330
A02
100
AcDbEntity
  8
Shape11200
100
AcDbLine
 10
-243.296
 20
27.3139
 30
0
 11
-253.796
 21
27.3139
 31
0
  0
ARC
  5
A66
330
A02
100
AcDbEntity
  8
Shape11201
100
AcDbCircle
 10
-253.796
 20
26.8139
 30
0
 40
0.5
100
AcDbArc
 50
90
 51
180
  0
LINE
  5
A67
330
A02
100
AcDbEntity
  8
Shape11202
100
AcDbLine
 10
-254.296
 20
26.8139
 30
0
 11
-254.296
 21
26.5648
 31
0
  0
ARC
  5
A68
330
A02
100
AcDbEntity
  8
Shape11203
100
AcDbCircle
 10
-253.796
 20
26.5648
 30
0
 40
0.5
100
AcDbArc
 50
180
 51
-90
  0
LINE
  5
A69
330
A02
100
AcDbEntity
  8
Shape11204
100
AcDbLine
 10
-253.796
 20
26.0648
 30
0
 11
-184.796
 21
26.0648
 31
0
  0
ARC
  5
A6A
330
A02
100
AcDbEntity
  8
Shape11205
100
AcDbCircle
 10
-184.796
 20
26.5648
 30
0
 40
0.5
100
AcDbArc
 50
-90
 51
0
  0
LINE
  5
A6B
330
A02
100
AcDbEntity
  8
Shape11206
100
AcDbLine
 10
-184.296
 20
26.5648
 30
0
 11
-184.296
 21
26.8139
 31
0
  0
ARC
  5
A6C
330
A02
100
AcDbEntity
  8
Shape11207
100
AcDbCircle
 10
-184.796
 20
26.8139
 30
0
 40
0.5
100
AcDbArc
 50
0
 51
90
  0
LINE
  5
A6D
330
A02
100
AcDbEntity
  8
Shape11208
100
AcDbLine
 10
-184.796
 20
27.3139
 30
0
 11
-195.296
 21
27.3139
 31
0
  0
ARC
  5
A6E
330
A02
100
AcDbEntity
  8
Shape11209
100
AcDbCircle
 10
-195.296
 20
28.3139
 30
0
 40
1
100
AcDbArc
 50
180
 51
-90
  0
LINE
  5
A6F
330
A02
100
AcDbEntity
  8
Shape11210
100
AcDbLine
 10
-196.296
 20
28.3139
 30
0
 11
-196.296
 21
29.8139
 31
0
  0
ARC
  5
A70
330
A02
100
AcDbEntity
  8
Shape11211
100
AcDbCircle
 10
-195.296
 20
29.8139
 30
0
 40
1
100
AcDbArc
 50
90
 51
180
  0
LINE
  5
A71
330
A02
100
AcDbEntity
  8
Shape11212
100
AcDbLine
 10
-195.296
 20
30.8139
 30
0
 11
-177.296
 21
30.8139
 31
0
  0
LINE
  5
A72
330
A02
100
AcDbEntity
  8
Shape11213
100
AcDbLine
 10
-177.296
 20
30.8139
 30
0
 11
-177.296
 21
25.5639
 31
0
  0
ARC
  5
A73
330
A02
100
AcDbEntity
  8
Shape11214
100
AcDbCircle
 10
-176.796
 20
25.5639
 30
0
 40
0.5
100
AcDbArc
 50
180
 51
0
  0
LINE
  5
A74
330
A02
100
AcDbEntity
  8
Shape11215
100
AcDbLine
 10
-176.296
 20
25.5639
 30
0
 11
-176.296
 21
29.5639
 31
0
  0
ARC
  5
A75
330
A02
100
AcDbEntity
  8
Shape11216
100
AcDbCircle
 10
-174.296
 20
29.5639
 30
0
 40
2
100
AcDbArc
 50
0
 51
180
  0
LINE
  5
A76
330
A02
100
AcDbEntity
  8
Shape11217
100
AcDbLine
 10
-172.296
 20
29.5639
 30
0
 11
-172.296
 21
25.5639
 31
0
  0
ARC
  5
A77
330
A02
100
AcDbEntity
  8
Shape11218
100
AcDbCircle
 10
-171.796
 20
25.5639
 30
0
 40
0.5
100
AcDbArc
 50
180
 51
0
  0
LINE
  5
A78
330
A02
100
AcDbEntity
  8
Shape11219
100
AcDbLine
 10
-171.296
 20
25.5639
 30
0
 11
-171.296
 21
30.8139
 31
0
  0
LINE
  5
A79
330
A02
100
AcDbEntity
  8
Shape11220
100
AcDbLine
 10
-171.296
 20
30.8139
 30
0
 11
-153.296
 21
30.8139
 31
0
  0
ARC
  5
A7A
330
A02
100
AcDbEntity
  8
Shape11221
100
AcDbCircle
 10
-153.296
 20
29.8139
 30
0
 40
1
100
AcDbArc
 50
0
 51
90
  0
LINE
  5
A7B
330
A02
100
AcDbEntity
  8
Shape11222
100
AcDbLine
 10
-152.296
 20
29.8139
 30
0
 11
-152.296
 21
28.3139
 31
0
  0
ARC
  5
A7C
330
A02
100
AcDbEntity
  8
Shape11223
100
AcDbCircle
 10
-153.296
 20
28.3139
 30
0
 40
1
100
AcDbArc
 50
-90
 51
0
  0
LINE
  5
A7D
330
A02
100
AcDbEntity
  8
Shape11224
100
AcDbLine
 10
-153.296
 20
27.3139
 30
0
 11
-163.796
 21
27.3139
 31
0
  0
ARC
  5
A7E
330
A02
100
AcDbEntity
  8
Shape11225
100
AcDbCircle
 10
-163.796
 20
26.8139
 30
0
 40
0.5
100
AcDbArc
 50
90
 51
180
  0
LINE
  5
A7F
330
A02
100
AcDbEntity
  8
Shape11226
100
AcDbLine
 10
-164.296
 20
26.8139
 30
0
 11
-164.296
 21
26.5648
 31
0
  0
ARC
  5
A80
330
A02
100
AcDbEntity
  8
Shape11227
100
AcDbCircle
 10
-163.796
 20
26.5648
 30
0
 40
0.5
100
AcDbArc
 50
180
 51
-90
  0
LINE
  5
A81
330
A02
100
AcDbEntity
  8
Shape11228
100
AcDbLine
 10
-163.796
 20
26.0648
 30
0
 11
-94.7957
 21
26.0648
 31
0
  0
ARC
  5
A82
330
A02
100
AcDbEntity
  8
Shape11229
100
AcDbCircle
 10
-94.7957
 20
26.5648
 30
0
 40
0.5
100
AcDbArc
 50
-90
 51
0
  0
LINE
  5
A83
330
A02
100
AcDbEntity
  8
Shape11230
100
AcDbLine
 10
-94.2957
 20
26.5648
 30
0
 11
-94.2957
 21
26.8139
 31
0
  0
ARC
  5
A84
330
A02
100
AcDbEntity
  8
Shape11231
100
AcDbCircle
 10
-94.7957
 20
26.8139
 30
0
 40
0.5
100
AcDbArc
 50
0
 51
90
  0
LINE
  5
A85
330
A02
100
AcDbEntity
  8
Shape11232
100
AcDbLine
 10
-94.7957
 20
27.3139
 30
0
 11
-105.296
 21
27.3139
 31
0
  0
ARC
  5
A86
330
A02
100
AcDbEntity
  8
Shape11233
100
AcDbCircle
 10
-105.296
 20
28.3139
 30
0
 40
1
100
AcDbArc
 50
180
 51
-90
  0
LINE
  5
A87
330
A02
100
AcDbEntity
  8
Shape11234
100
AcDbLine
 10
-106.296
 20
28.3139
 30
0
 11
-106.296
 21
29.8139
 31
0
  0
ARC
  5
A88
330
A02
100
AcDbEntity
  8
Shape11235
100
AcDbCircle
 10
-105.296
 20
29.8139
 30
0
 40
1
100
AcDbArc
 50
90
 51
180
  0
LINE
  5
A89
330
A02
100
AcDbEntity
  8
Shape11236
100
AcDbLine
 10
-105.296
 20
30.8139
 30
0
 11
-87.2957
 21
30.8139
 31
0
  0
LINE
  5
A8A
330
A02
100
AcDbEntity
  8
Shape11237
100
AcDbLine
 10
-87.2957
 20
30.8139
 30
0
 11
-87.2957
 21
25.5639
 31
0
  0
ARC
  5
A8B
330
A02
100
AcDbEntity
  8
Shape11238
100
AcDbCircle
 10
-86.7957
 20
25.5639
 30
0
 40
0.5
100
AcDbArc
 50
180
 51
0
  0
LINE
  5
A8C
330
A02
100
AcDbEntity
  8
Shape11239
100
AcDbLine
 10
-86.2957
 20
25.5639
 30
0
 11
-86.2957
 21
29.5639
 31
0
  0
ARC
  5
A8D
330
A02
100
AcDbEntity
  8
Shape11240
100
AcDbCircle
 10
-84.2957
 20
29.5639
 30
0
 40
2
100
AcDbArc
 50
0
 51
180
  0
LINE
  5
A8E
330
A02
100
AcDbEntity
  8
Shape11241
100
AcDbLine
 10
-82.2957
 20
29.5639
 30
0
 11
-82.2957
 21
25.5639
 31
0
  0
ARC
  5
A8F
330
A02
100
AcDbEntity
  8
Shape11242
100
AcDbCircle
 10
-81.7957
 20
25.5639
 30
0
 40
0.5
100
AcDbArc
 50
180
 51
0
  0
LINE
  5
A90
330
A02
100
AcDbEntity
  8
Shape11243
100
AcDbLine
 10
-81.2957
 20
25.5639
 30
0
 11
-81.2957
 21
30.8139
 31
0
  0
LINE
  5
A91
330
A02
100
AcDbEntity
  8
Shape11244
100
AcDbLine
 10
-81.2957
 20
30.8139
 30
0
 11
-63.2957
 21
30.8139
 31
0
  0
ARC
  5
A92
330
A02
100
AcDbEntity
  8
Shape11245
100
AcDbCircle
 10
-63.2957
 20
29.8139
 30
0
 40
1
100
AcDbArc
 50
0
 51
90
  0
LINE
  5
A93
330
A02
100
AcDbEntity
  8
Shape11246
100
AcDbLine
 10
-62.2957
 20
29.8139
 30
0
 11
-62.2957
 21
28.3139
 31
0
  0
ARC
  5
A94
330
A02
100
AcDbEntity
  8
Shape11247
100
AcDbCircle
 10
-63.2957
 20
28.3139
 30
0
 40
1
100
AcDbArc
 50
-90
 51
0
  0
LINE
  5
A95
330
A02
100
AcDbEntity
  8
Shape11248
100
AcDbLine
 10
-63.2957
 20
27.3139
 30
0
 11
-73.7957
 21
27.3139
 31
0
  0
ARC
  5
A96
330
A02
100
AcDbEntity
  8
Shape11249
100
AcDbCircle
 10
-73.7957
 20
26.8139
 30
0
 40
0.5
100
AcDbArc
 50
90
 51
180
  0
LINE
  5
A97
330
A02
100
AcDbEntity
  8
Shape11250
100
AcDbLine
 10
-74.2957
 20
26.8139
 30
0
 11
-74.2957
 21
26.5648
 31
0
  0
ARC
  5
A98
330
A02
100
AcDbEntity
  8
Shape11251
100
AcDbCircle
 10
-73.7957
 20
26.5648
 30
0
 40
0.5
100
AcDbArc
 50
180
 51
-90
  0
LINE
  5
A99
330
A02
100
AcDbEntity
  8
Shape11252
100
AcDbLine
 10
-73.7957
 20
26.0648
 30
0
 11
-52.4707
 21
26.0648
 31
0
  0
ARC
  5
A9A
330
A02
100
AcDbEntity
  8
Shape11253
100
AcDbCircle
 10
-52.4707
 20
24.0648
 30
0
 40
2
100
AcDbArc
 50
0
 51
90
  0
LINE
  5
A9B
330
A02
100
AcDbEntity
  8
Shape11254
100
AcDbLine
 10
-50.4707
 20
24.0648
 30
0
 11
-50.4707
 21
-48.3352
 31
0
  0
ARC
  5
A9C
330
A02
100
AcDbEntity
  8
Shape11255
100
AcDbCircle
 10
-52.4707
 20
-48.3352
 30
0
 40
2
100
AcDbArc
 50
-90
 51
0
  0
LINE
  5
A9D
330
A02
100
AcDbEntity
  8
Shape11256
100
AcDbLine
 10
-52.4707
 20
-50.3352
 30
0
 11
-73.7957
 21
-50.3352
 31
0
  0
ARC
  5
A9E
330
A02
100
AcDbEntity
  8
Shape11257
100
AcDbCircle
 10
-73.7957
 20
-50.8352
 30
0
 40
0.5
100
AcDbArc
 50
90
 51
180
  0
LINE
  5
A9F
330
A02
100
AcDbEntity
  8
Shape11258
100
AcDbLine
 10
-74.2957
 20
-50.8352
 30
0
 11
-74.2957
 21
-51.0843
 31
0
  0
ARC
  5
AA0
330
A02
100
AcDbEntity
  8
Shape11259
100
AcDbCircle
 10
-73.7957
 20
-51.0843
 30
0
 40
0.5
100
AcDbArc
 50
180
 51
-90
  0
LINE
  5
AA1
330
A02
100
AcDbEntity
  8
Shape11260
100
AcDbLine
 10
-73.7957
 20
-51.5843
 30
0
 11
-63.2957
 21
-51.5843
 31
0
  0
ARC
  5
AA2
330
A02
100
AcDbEntity
  8
Shape11261
100
AcDbCircle
 10
-63.2957
 20
-52.5843
 30
0
 40
1
100
AcDbArc
 50
0
 51
90
  0
LINE
  5
AA3
330
A02
100
AcDbEntity
  8
Shape11262
100
AcDbLine
 10
-62.2957
 20
-52.5843
 30
0
 11
-62.2957
 21
-54.0843
 31
0
  0
ARC
  5
AA4
330
A02
100
AcDbEntity
  8
Shape11263
100
AcDbCircle
 10
-63.2957
 20
-54.0843
 30
0
 40
1
100
AcDbArc
 50
-90
 51
0
  0
LINE
  5
AA5
330
A02
100
AcDbEntity
  8
Shape11264
100
AcDbLine
 10
-63.2957
 20
-55.0843
 30
0
 11
-81.2957
 21
-55.0843
 31
0
  0
LINE
  5
AA6
330
A02
100
AcDbEntity
  8
Shape11265
100
AcDbLine
 10
-293.216
 20
-33.7602
 30
0
 11
-279.216
 21
-33.7602
 31
0
  0
LINE
  5
AA7
330
A02
100
AcDbEntity
  8
Shape11266
100
AcDbLine
 10
-279.216
 20
-33.7602
 30
0
 11
-279.216
 21
-47.7602
 31
0
  0
LINE
  5
AA8
330
A02
100
AcDbEntity
  8
Shape11267
100
AcDbLine
 10
-279.216
 20
-47.7602
 30
0
 11
-293.216
 21
-47.7602
 31
0
  0
LINE
  5
AA9
330
A02
100
AcDbEntity
  8
Shape11268
100
AcDbLine
 10
-293.216
 20
-47.7602
 30
0
 11
-293.216
 21
-33.7602
 31
0
  0
LINE
  5
AAA
330
A02
100
AcDbEntity
  8
Shape11269
100
AcDbLine
 10
-257.784
 20
-47.7602
 30
0
 11
-271.784
 21
-47.7602
 31
0
  0
LINE
  5
AAB
330
A02
100
AcDbEntity
  8
Shape11270
100
AcDbLine
 10
-271.784
 20
-47.7602
 30
0
 11
-271.784
 21
-33.7602
 31
0
  0
LINE
  5
AAC
330
A02
100
AcDbEntity
  8
Shape11271
100
AcDbLine
 10
-271.784
 20
-33.7602
 30
0
 11
-257.784
 21
-33.7602
 31
0
  0
LINE
  5
AAD
330
A02
100
AcDbEntity
  8
Shape11272
100
AcDbLine
 10
-257.784
 20
-33.7602
 30
0
 11
-257.784
 21
-47.7602
 31
0
  0
LINE
  5
AAE
330
A02
100
AcDbEntity
  8
Shape11273
100
AcDbLine
 10
-236.353
 20
-47.7602
 30
0
 11
-250.353
 21
-47.7602
 31
0
  0
LINE
  5
AAF
330
A02
100
AcDbEntity
  8
Shape11274
100
AcDbLine
 10
-250.353
 20
-47.7602
 30
0
 11
-250.353
 21
-33.7602
 31
0
  0
LINE
  5
AB0
330
A02
100
AcDbEntity
  8
Shape11275
100
AcDbLine
 10
-250.353
 20
-33.7602
 30
0
 11
-236.353
 21
-33.7602
 31
0
  0
LINE
  5
AB1
330
A02
100
AcDbEntity
  8
Shape11276
100
AcDbLine
 10
-236.353
 20
-33.7602
 30
0
 11
-236.353
 21
-47.7602
 31
0
  0
LINE
  5
AB2
330
A02
100
AcDbEntity
  8
Shape11277
100
AcDbLine
 10
-98.2407
 20
-47.7602
 30
0
 11
-112.241
 21
-47.7602
 31
0
  0
LINE
  5
AB3
330
A02
100
AcDbEntity
  8
Shape11278
100
AcDbLine
 10
-112.241
 20
-47.7602
 30
0
 11
-112.241
 21
-33.7602
 31
0
  0
LINE
  5
AB4
330
A02
100
AcDbEntity
  8
Shape11279
100
AcDbLine
 10
-112.241
 20
-33.7602
 30
0
 11
-98.2407
 21
-33.7602
 31
0
  0
LINE
  5
AB5
330
A02
100
AcDbEntity
  8
Shape11280
100
AcDbLine
 10
-98.2407
 20
-33.7602
 30
0
 11
-98.2407
 21
-47.7602
 31
0
  0
LINE
  5
AB6
330
A02
100
AcDbEntity
  8
Shape11281
100
AcDbLine
 10
-76.8094
 20
-47.7602
 30
0
 11
-90.8094
 21
-47.7602
 31
0
  0
LINE
  5
AB7
330
A02
100
AcDbEntity
  8
Shape11282
100
AcDbLine
 10
-90.8094
 20
-47.7602
 30
0
 11
-90.8094
 21
-33.7602
 31
0
  0
LINE
  5
AB8
330
A02
100
AcDbEntity
  8
Shape11283
100
AcDbLine
 10
-90.8094
 20
-33.7602
 30
0
 11
-76.8094
 21
-33.7602
 31
0
  0
LINE
  5
AB9
330
A02
100
AcDbEntity
  8
Shape11284
100
AcDbLine
 10
-76.8094
 20
-33.7602
 30
0
 11
-76.8094
 21
-47.7602
 31
0
  0
LINE
  5
ABA
330
A02
100
AcDbEntity
  8
Shape11285
100
AcDbLine
 10
-55.3782
 20
-47.7602
 30
0
 11
-69.3782
 21
-47.7602
 31
0
  0
LINE
  5
ABB
330
A02
100
AcDbEntity
  8
Shape11286
100
AcDbLine
 10
-69.3782
 20
-47.7602
 30
0
 11
-69.3782
 21
-33.7602
 31
0
  0
LINE
  5
ABC
330
A02
100
AcDbEntity
  8
Shape11287
100
AcDbLine
 10
-69.3782
 20
-33.7602
 30
0
 11
-55.3782
 21
-33.7602
 31
0
  0
LINE
  5
ABD
330
A02
100
AcDbEntity
  8
Shape11288
100
AcDbLine
 10
-55.3782
 20
-33.7602
 30
0
 11
-55.3782
 21
-47.7602
 31
0
  0
LINE
  5
ABE
330
A02
100
AcDbEntity
  8
Shape11289
100
AcDbLine
 10
-276.596
 20
9.3898
 30
0
 11
-276.596
 21
23.4898
 31
0
  0
LINE
  5
ABF
330
A02
100
AcDbEntity
  8
Shape11290
100
AcDbLine
 10
-276.596
 20
23.4898
 30
0
 11
-262.496
 21
23.4898
 31
0
  0
LINE
  5
AC0
330
A02
100
AcDbEntity
  8
Shape11291
100
AcDbLine
 10
-262.496
 20
23.4898
 30
0
 11
-262.496
 21
9.3898
 31
0
  0
LINE
  5
AC1
330
A02
100
AcDbEntity
  8
Shape11292
100
AcDbLine
 10
-262.496
 20
9.3898
 30
0
 11
-276.596
 21
9.3898
 31
0
  0
LINE
  5
AC2
330
A02
100
AcDbEntity
  8
Shape11293
100
AcDbLine
 10
-167.246
 20
23.4898
 30
0
 11
-167.246
 21
9.3898
 31
0
  0
LINE
  5
AC3
330
A02
100
AcDbEntity
  8
Shape11294
100
AcDbLine
 10
-167.246
 20
9.3898
 30
0
 11
-181.346
 21
9.3898
 31
0
  0
LINE
  5
AC4
330
A02
100
AcDbEntity
  8
Shape11295
100
AcDbLine
 10
-181.346
 20
9.3898
 30
0
 11
-181.346
 21
23.4898
 31
0
  0
LINE
  5
AC5
330
A02
100
AcDbEntity
  8
Shape11296
100
AcDbLine
 10
-181.346
 20
23.4898
 30
0
 11
-167.246
 21
23.4898
 31
0
  0
LINE
  5
AC6
330
A02
100
AcDbEntity
  8
Shape11297
100
AcDbLine
 10
-143.246
 20
23.4898
 30
0
 11
-129.146
 21
23.4898
 31
0
  0
LINE
  5
AC7
330
A02
100
AcDbEntity
  8
Shape11298
100
AcDbLine
 10
-129.146
 20
23.4898
 30
0
 11
-129.146
 21
9.3898
 31
0
  0
LINE
  5
AC8
330
A02
100
AcDbEntity
  8
Shape11299
100
AcDbLine
 10
-129.146
 20
9.3898
 30
0
 11
-143.246
 21
9.3898
 31
0
  0
LINE
  5
AC9
330
A02
100
AcDbEntity
  8
Shape11300
100
AcDbLine
 10
-143.246
 20
9.3898
 30
0
 11
-143.246
 21
23.4898
 31
0
  0
LINE
  5
ACA
330
A02
100
AcDbEntity
  8
Shape11301
100
AcDbLine
 10
-148.196
 20
9.3898
 30
0
 11
-162.296
 21
9.3898
 31
0
  0
LINE
  5
ACB
330
A02
100
AcDbEntity
  8
Shape11302
100
AcDbLine
 10
-162.296
 20
9.3898
 30
0
 11
-162.296
 21
23.4898
 31
0
  0
LINE
  5
ACC
330
A02
100
AcDbEntity
  8
Shape11303
100
AcDbLine
 10
-162.296
 20
23.4898
 30
0
 11
-148.196
 21
23.4898
 31
0
  0
LINE
  5
ACD
330
A02
100
AcDbEntity
  8
Shape11304
100
AcDbLine
 10
-148.196
 20
23.4898
 30
0
 11
-148.196
 21
9.3898
 31
0
  0
LINE
  5
ACE
330
A02
100
AcDbEntity
  8
Shape11305
100
AcDbLine
 10
-86.0957
 20
23.4898
 30
0
 11
-71.9957
 21
23.4898
 31
0
  0
LINE
  5
ACF
330
A02
100
AcDbEntity
  8
Shape11306
100
AcDbLine
 10
-71.9957
 20
23.4898
 30
0
 11
-71.9957
 21
9.3898
 31
0
  0
LINE
  5
AD0
330
A02
100
AcDbEntity
  8
Shape11307
100
AcDbLine
 10
-71.9957
 20
9.3898
 30
0
 11
-86.0957
 21
9.3898
 31
0
  0
LINE
  5
AD1
330
A02
100
AcDbEntity
  8
Shape11308
100
AcDbLine
 10
-86.0957
 20
9.3898
 30
0
 11
-86.0957
 21
23.4898
 31
0
  0
LINE
  5
AD2
330
A02
100
AcDbEntity
  8
Shape11309
100
AcDbLine
 10
-52.9457
 20
23.4898
 30
0
 11
-52.9457
 21
9.3898
 31
0
  0
LINE
  5
AD3
330
A02
100
AcDbEntity
  8
Shape11310
100
AcDbLine
 10
-52.9457
 20
9.3898
 30
0
 11
-67.0457
 21
9.3898
 31
0
  0
LINE
  5
AD4
330
A02
100
AcDbEntity
  8
Shape11311
100
AcDbLine
 10
-67.0457
 20
9.3898
 30
0
 11
-67.0457
 21
23.4898
 31
0
  0
LINE
  5
AD5
330
A02
100
AcDbEntity
  8
Shape11312
100
AcDbLine
 10
-67.0457
 20
23.4898
 30
0
 11
-52.9457
 21
23.4898
 31
0
  0
LINE
  5
AD6
330
A02
100
AcDbEntity
  8
Shape11313
100
AcDbLine
 10
-238.496
 20
9.3898
 30
0
 11
-238.496
 21
23.4898
 31
0
  0
LINE
  5
AD7
330
A02
100
AcDbEntity
  8
Shape11314
100
AcDbLine
 10
-238.496
 20
23.4898
 30
0
 11
-224.396
 21
23.4898
 31
0
  0
LINE
  5
AD8
330
A02
100
AcDbEntity
  8
Shape11315
100
AcDbLine
 10
-224.396
 20
23.4898
 30
0
 11
-224.396
 21
9.3898
 31
0
  0
LINE
  5
AD9
330
A02
100
AcDbEntity
  8
Shape11316
100
AcDbLine
 10
-224.396
 20
9.3898
 30
0
 11
-238.496
 21
9.3898
 31
0
  0
LINE
  5
ADA
330
A02
100
AcDbEntity
  8
Shape11317
100
AcDbLine
 10
-186.296
 20
9.3898
 30
0
 11
-200.396
 21
9.3898
 31
0
  0
LINE
  5
ADB
330
A02
100
AcDbEntity
  8
Shape11318
100
AcDbLine
 10
-200.396
 20
9.3898
 30
0
 11
-200.396
 21
23.4898
 31
0
  0
LINE
  5
ADC
330
A02
100
AcDbEntity
  8
Shape11319
100
AcDbLine
 10
-200.396
 20
23.4898
 30
0
 11
-186.296
 21
23.4898
 31
0
  0
LINE
  5
ADD
330
A02
100
AcDbEntity
  8
Shape11320
100
AcDbLine
 10
-186.296
 20
23.4898
 30
0
 11
-186.296
 21
9.3898
 31
0
  0
LINE
  5
ADE
330
A02
100
AcDbEntity
  8
Shape11321
100
AcDbLine
 10
-243.446
 20
23.4898
 30
0
 11
-243.446
 21
9.3898
 31
0
  0
LINE
  5
ADF
330
A02
100
AcDbEntity
  8
Shape11322
100
AcDbLine
 10
-243.446
 20
9.3898
 30
0
 11
-257.546
 21
9.3898
 31
0
  0
LINE
  5
AE0
330
A02
100
AcDbEntity
  8
Shape11323
100
AcDbLine
 10
-257.546
 20
9.3898
 30
0
 11
-257.546
 21
23.4898
 31
0
  0
LINE
  5
AE1
330
A02
100
AcDbEntity
  8
Shape11324
100
AcDbLine
 10
-257.546
 20
23.4898
 30
0
 11
-243.446
 21
23.4898
 31
0
  0
LINE
  5
AE2
330
A02
100
AcDbEntity
  8
Shape11325
100
AcDbLine
 10
-205.346
 20
23.4898
 30
0
 11
-205.346
 21
9.3898
 31
0
  0
LINE
  5
AE3
330
A02
100
AcDbEntity
  8
Shape11326
100
AcDbLine
 10
-205.346
 20
9.3898
 30
0
 11
-219.446
 21
9.3898
 31
0
  0
LINE
  5
AE4
330
A02
100
AcDbEntity
  8
Shape11327
100
AcDbLine
 10
-219.446
 20
9.3898
 30
0
 11
-219.446
 21
23.4898
 31
0
  0
LINE
  5
AE5
330
A02
100
AcDbEntity
  8
Shape11328
100
AcDbLine
 10
-219.446
 20
23.4898
 30
0
 11
-205.346
 21
23.4898
 31
0
  0
LINE
  5
AE6
330
A02
100
AcDbEntity
  8
Shape11329
100
AcDbLine
 10
-91.0457
 20
23.4898
 30
0
 11
-91.0457
 21
9.3898
 31
0
  0
LINE
  5
AE7
330
A02
100
AcDbEntity
  8
Shape11330
100
AcDbLine
 10
-91.0457
 20
9.3898
 30
0
 11
-105.146
 21
9.3898
 31
0
  0
LINE
  5
AE8
330
A02
100
AcDbEntity
  8
Shape11331
100
AcDbLine
 10
-105.146
 20
9.3898
 30
0
 11
-105.146
 21
23.4898
 31
0
  0
LINE
  5
AE9
330
A02
100
AcDbEntity
  8
Shape11332
100
AcDbLine
 10
-105.146
 20
23.4898
 30
0
 11
-91.0457
 21
23.4898
 31
0
  0
LINE
  5
AEA
330
A02
100
AcDbEntity
  8
Shape11333
100
AcDbLine
 10
-110.096
 20
9.3898
 30
0
 11
-124.196
 21
9.3898
 31
0
  0
LINE
  5
AEB
330
A02
100
AcDbEntity
  8
Shape11334
100
AcDbLine
 10
-124.196
 20
9.3898
 30
0
 11
-124.196
 21
23.4898
 31
0
  0
LINE
  5
AEC
330
A02
100
AcDbEntity
  8
Shape11335
100
AcDbLine
 10
-124.196
 20
23.4898
 30
0
 11
-110.096
 21
23.4898
 31
0
  0
LINE
  5
AED
330
A02
100
AcDbEntity
  8
Shape11336
100
AcDbLine
 10
-110.096
 20
23.4898
 30
0
 11
-110.096
 21
9.3898
 31
0
  0
LINE
  5
AEE
330
A02
100
AcDbEntity
  8
Shape11337
100
AcDbLine
 10
-281.546
 20
9.3898
 30
0
 11
-295.646
 21
9.3898
 31
0
  0
LINE
  5
AEF
330
A02
100
AcDbEntity
  8
Shape11338
100
AcDbLine
 10
-295.646
 20
9.3898
 30
0
 11
-295.646
 21
23.4898
 31
0
  0
LINE
  5
AF0
330
A02
100
AcDbEntity
  8
Shape11339
100
AcDbLine
 10
-295.646
 20
23.4898
 30
0
 11
-281.546
 21
23.4898
 31
0
  0
LINE
  5
AF1
330
A02
100
AcDbEntity
  8
Shape11340
100
AcDbLine
 10
-281.546
 20
23.4898
 30
0
 11
-281.546
 21
9.3898
 31
0
  0
LINE
  5
AF2
330
A02
100
AcDbEntity
  8
Shape11341
100
AcDbLine
 10
-276.596
 20
-9.6602
 30
0
 11
-276.596
 21
4.4398
 31
0
  0
LINE
  5
AF3
330
A02
100
AcDbEntity
  8
Shape11342
100
AcDbLine
 10
-276.596
 20
4.4398
 30
0
 11
-262.496
 21
4.4398
 31
0
  0
LINE
  5
AF4
330
A02
100
AcDbEntity
  8
Shape11343
100
AcDbLine
 10
-262.496
 20
4.4398
 30
0
 11
-262.496
 21
-9.6602
 31
0
  0
LINE
  5
AF5
330
A02
100
AcDbEntity
  8
Shape11344
100
AcDbLine
 10
-262.496
 20
-9.6602
 30
0
 11
-276.596
 21
-9.6602
 31
0
  0
LINE
  5
AF6
330
A02
100
AcDbEntity
  8
Shape11345
100
AcDbLine
 10
-167.246
 20
4.4398
 30
0
 11
-167.246
 21
-9.6602
 31
0
  0
LINE
  5
AF7
330
A02
100
AcDbEntity
  8
Shape11346
100
AcDbLine
 10
-167.246
 20
-9.6602
 30
0
 11
-181.346
 21
-9.6602
 31
0
  0
LINE
  5
AF8
330
A02
100
AcDbEntity
  8
Shape11347
100
AcDbLine
 10
-181.346
 20
-9.6602
 30
0
 11
-181.346
 21
4.4398
 31
0
  0
LINE
  5
AF9
330
A02
100
AcDbEntity
  8
Shape11348
100
AcDbLine
 10
-181.346
 20
4.4398
 30
0
 11
-167.246
 21
4.4398
 31
0
  0
LINE
  5
AFA
330
A02
100
AcDbEntity
  8
Shape11349
100
AcDbLine
 10
-143.246
 20
4.4398
 30
0
 11
-129.146
 21
4.4398
 31
0
  0
LINE
  5
AFB
330
A02
100
AcDbEntity
  8
Shape11350
100
AcDbLine
 10
-129.146
 20
4.4398
 30
0
 11
-129.146
 21
-9.6602
 31
0
  0
LINE
  5
AFC
330
A02
100
AcDbEntity
  8
Shape11351
100
AcDbLine
 10
-129.146
 20
-9.6602
 30
0
 11
-143.246
 21
-9.6602
 31
0
  0
LINE
  5
AFD
330
A02
100
AcDbEntity
  8
Shape11352
100
AcDbLine
 10
-143.246
 20
-9.6602
 30
0
 11
-143.246
 21
4.4398
 31
0
  0
LINE
  5
AFE
330
A02
100
AcDbEntity
  8
Shape11353
100
AcDbLine
 10
-148.196
 20
-9.6602
 30
0
 11
-162.296
 21
-9.6602
 31
0
  0
LINE
  5
AFF
330
A02
100
AcDbEntity
  8
Shape11354
100
AcDbLine
 10
-162.296
 20
-9.6602
 30
0
 11
-162.296
 21
4.4398
 31
0
  0
LINE
  5
B00
330
A02
100
AcDbEntity
  8
Shape11355
100
AcDbLine
 10
-162.296
 20
4.4398
 30
0
 11
-148.196
 21
4.4398
 31
0
  0
LINE
  5
B01
330
A02
100
AcDbEntity
  8
Shape11356
100
AcDbLine
 10
-148.196
 20
4.4398
 30
0
 11
-148.196
 21
-9.6602
 31
0
  0
LINE
  5
B02
330
A02
100
AcDbEntity
  8
Shape11357
100
AcDbLine
 10
-86.0957
 20
4.4398
 30
0
 11
-71.9957
 21
4.4398
 31
0
  0
LINE
  5
B03
330
A02
100
AcDbEntity
  8
Shape11358
100
AcDbLine
 10
-71.9957
 20
4.4398
 30
0
 11
-71.9957
 21
-9.6602
 31
0
  0
LINE
  5
B04
330
A02
100
AcDbEntity
  8
Shape11359
100
AcDbLine
 10
-71.9957
 20
-9.6602
 30
0
 11
-86.0957
 21
-9.6602
 31
0
  0
LINE
  5
B05
330
A02
100
AcDbEntity
  8
Shape11360
100
AcDbLine
 10
-86.0957
 20
-9.6602
 30
0
 11
-86.0957
 21
4.4398
 31
0
  0
LINE
  5
B06
330
A02
100
AcDbEntity
  8
Shape11361
100
AcDbLine
 10
-52.9457
 20
4.4398
 30
0
 11
-52.9457
 21
-9.6602
 31
0
  0
LINE
  5
B07
330
A02
100
AcDbEntity
  8
Shape11362
100
AcDbLine
 10
-52.9457
 20
-9.6602
 30
0
 11
-67.0457
 21
-9.6602
 31
0
  0
LINE
  5
B08
330
A02
100
AcDbEntity
  8
Shape11363
100
AcDbLine
 10
-67.0457
 20
-9.6602
 30
0
 11
-67.0457
 21
4.4398
 31
0
  0
LINE
  5
B09
330
A02
100
AcDbEntity
  8
Shape11364
100
AcDbLine
 10
-67.0457
 20
4.4398
 30
0
 11
-52.9457
 21
4.4398
 31
0
  0
LINE
  5
B0A
330
A02
100
AcDbEntity
  8
Shape11365
100
AcDbLine
 10
-238.496
 20
-9.6602
 30
0
 11
-238.496
 21
4.4398
 31
0
  0
LINE
  5
B0B
330
A02
100
AcDbEntity
  8
Shape11366
100
AcDbLine
 10
-238.496
 20
4.4398
 30
0
 11
-224.396
 21
4.4398
 31
0
  0
LINE
  5
B0C
330
A02
100
AcDbEntity
  8
Shape11367
100
AcDbLine
 10
-224.396
 20
4.4398
 30
0
 11
-224.396
 21
-9.6602
 31
0
  0
LINE
  5
B0D
330
A02
100
AcDbEntity
  8
Shape11368
100
AcDbLine
 10
-224.396
 20
-9.6602
 30
0
 11
-238.496
 21
-9.6602
 31
0
  0
LINE
  5
B0E
330
A02
100
AcDbEntity
  8
Shape11369
100
AcDbLine
 10
-186.296
 20
-9.6602
 30
0
 11
-200.396
 21
-9.6602
 31
0
  0
LINE
  5
B0F
330
A02
100
AcDbEntity
  8
Shape11370
100
AcDbLine
 10
-200.396
 20
-9.6602
 30
0
 11
-200.396
 21
4.4398
 31
0
  0
LINE
  5
B10
330
A02
100
AcDbEntity
  8
Shape11371
100
AcDbLine
 10
-200.396
 20
4.4398
 30
0
 11
-186.296
 21
4.4398
 31
0
  0
LINE
  5
B11
330
A02
100
AcDbEntity
  8
Shape11372
100
AcDbLine
 10
-186.296
 20
4.4398
 30
0
 11
-186.296
 21
-9.6602
 31
0
  0
LINE
  5
B12
330
A02
100
AcDbEntity
  8
Shape11373
100
AcDbLine
 10
-243.446
 20
4.4398
 30
0
 11
-243.446
 21
-9.6602
 31
0
  0
LINE
  5
B13
330
A02
100
AcDbEntity
  8
Shape11374
100
AcDbLine
 10
-243.446
 20
-9.6602
 30
0
 11
-257.546
 21
-9.6602
 31
0
  0
LINE
  5
B14
330
A02
100
AcDbEntity
  8
Shape11375
100
AcDbLine
 10
-257.546
 20
-9.6602
 30
0
 11
-257.546
 21
4.4398
 31
0
  0
LINE
  5
B15
330
A02
100
AcDbEntity
  8
Shape11376
100
AcDbLine
 10
-257.546
 20
4.4398
 30
0
 11
-243.446
 21
4.4398
 31
0
  0
LINE
  5
B16
330
A02
100
AcDbEntity
  8
Shape11377
100
AcDbLine
 10
-205.346
 20
4.4398
 30
0
 11
-205.346
 21
-9.6602
 31
0
  0
LINE
  5
B17
330
A02
100
AcDbEntity
  8
Shape11378
100
AcDbLine
 10
-205.346
 20
-9.6602
 30
0
 11
-219.446
 21
-9.6602
 31
0
  0
LINE
  5
B18
330
A02
100
AcDbEntity
  8
Shape11379
100
AcDbLine
 10
-219.446
 20
-9.6602
 30
0
 11
-219.446
 21
4.4398
 31
0
  0
LINE
  5
B19
330
A02
100
AcDbEntity
  8
Shape11380
100
AcDbLine
 10
-219.446
 20
4.4398
 30
0
 11
-205.346
 21
4.4398
 31
0
  0
LINE
  5
B1A
330
A02
100
AcDbEntity
  8
Shape11381
100
AcDbLine
 10
-91.0457
 20
4.4398
 30
0
 11
-91.0457
 21
-9.6602
 31
0
  0
LINE
  5
B1B
330
A02
100
AcDbEntity
  8
Shape11382
100
AcDbLine
 10
-91.0457
 20
-9.6602
 30
0
 11
-105.146
 21
-9.6602
 31
0
  0
LINE
  5
B1C
330
A02
100
AcDbEntity
  8
Shape11383
100
AcDbLine
 10
-105.146
 20
-9.6602
 30
0
 11
-105.146
 21
4.4398
 31
0
  0
LINE
  5
B1D
330
A02
100
AcDbEntity
  8
Shape11384
100
AcDbLine
 10
-105.146
 20
4.4398
 30
0
 11
-91.0457
 21
4.4398
 31
0
  0
LINE
  5
B1E
330
A02
100
AcDbEntity
  8
Shape11385
100
AcDbLine
 10
-110.096
 20
-9.6602
 30
0
 11
-124.196
 21
-9.6602
 31
0
  0
LINE
  5
B1F
330
A02
100
AcDbEntity
  8
Shape11386
100
AcDbLine
 10
-124.196
 20
-9.6602
 30
0
 11
-124.196
 21
4.4398
 31
0
  0
LINE
  5
B20
330
A02
100
AcDbEntity
  8
Shape11387
100
AcDbLine
 10
-124.196
 20
4.4398
 30
0
 11
-110.096
 21
4.4398
 31
0
  0
LINE
  5
B21
330
A02
100
AcDbEntity
  8
Shape11388
100
AcDbLine
 10
-110.096
 20
4.4398
 30
0
 11
-110.096
 21
-9.6602
 31
0
  0
LINE
  5
B22
330
A02
100
AcDbEntity
  8
Shape11389
100
AcDbLine
 10
-281.546
 20
-9.6602
 30
0
 11
-295.646
 21
-9.6602
 31
0
  0
LINE
  5
B23
330
A02
100
AcDbEntity
  8
Shape11390
100
AcDbLine
 10
-295.646
 20
-9.6602
 30
0
 11
-295.646
 21
4.4398
 31
0
  0
LINE
  5
B24
330
A02
100
AcDbEntity
  8
Shape11391
100
AcDbLine
 10
-295.646
 20
4.4398
 30
0
 11
-281.546
 21
4.4398
 31
0
  0
LINE
  5
B25
330
A02
100
AcDbEntity
  8
Shape11392
100
AcDbLine
 10
-281.546
 20
4.4398
 30
0
 11
-281.546
 21
-9.6602
 31
0
  0
LINE
  5
B26
330
A02
100
AcDbEntity
  8
Shape11393
100
AcDbLine
 10
-276.596
 20
-28.7102
 30
0
 11
-276.596
 21
-14.6102
 31
0
  0
LINE
  5
B27
330
A02
100
AcDbEntity
  8
Shape11394
100
AcDbLine
 10
-276.596
 20
-14.6102
 30
0
 11
-262.496
 21
-14.6102
 31
0
  0
LINE
  5
B28
330
A02
100
AcDbEntity
  8
Shape11395
100
AcDbLine
 10
-262.496
 20
-14.6102
 30
0
 11
-262.496
 21
-28.7102
 31
0
  0
LINE
  5
B29
330
A02
100
AcDbEntity
  8
Shape11396
100
AcDbLine
 10
-262.496
 20
-28.7102
 30
0
 11
-276.596
 21
-28.7102
 31
0
  0
LINE
  5
B2A
330
A02
100
AcDbEntity
  8
Shape11397
100
AcDbLine
 10
-167.246
 20
-14.6102
 30
0
 11
-167.246
 21
-28.7102
 31
0
  0
LINE
  5
B2B
330
A02
100
AcDbEntity
  8
Shape11398
100
AcDbLine
 10
-167.246
 20
-28.7102
 30
0
 11
-181.346
 21
-28.7102
 31
0
  0
LINE
  5
B2C
330
A02
100
AcDbEntity
  8
Shape11399
100
AcDbLine
 10
-181.346
 20
-28.7102
 30
0
 11
-181.346
 21
-14.6102
 31
0
  0
LINE
  5
B2D
330
A02
100
AcDbEntity
  8
Shape11400
100
AcDbLine
 10
-181.346
 20
-14.6102
 30
0
 11
-167.246
 21
-14.6102
 31
0
  0
LINE
  5
B2E
330
A02
100
AcDbEntity
  8
Shape11401
100
AcDbLine
 10
-143.246
 20
-14.6102
 30
0
 11
-129.146
 21
-14.6102
 31
0
  0
LINE
  5
B2F
330
A02
100
AcDbEntity
  8
Shape11402
100
AcDbLine
 10
-129.146
 20
-14.6102
 30
0
 11
-129.146
 21
-28.7102
 31
0
  0
LINE
  5
B30
330
A02
100
AcDbEntity
  8
Shape11403
100
AcDbLine
 10
-129.146
 20
-28.7102
 30
0
 11
-143.246
 21
-28.7102
 31
0
  0
LINE
  5
B31
330
A02
100
AcDbEntity
  8
Shape11404
100
AcDbLine
 10
-143.246
 20
-28.7102
 30
0
 11
-143.246
 21
-14.6102
 31
0
  0
LINE
  5
B32
330
A02
100
AcDbEntity
  8
Shape11405
100
AcDbLine
 10
-148.196
 20
-28.7102
 30
0
 11
-162.296
 21
-28.7102
 31
0
  0
LINE
  5
B33
330
A02
100
AcDbEntity
  8
Shape11406
100
AcDbLine
 10
-162.296
 20
-28.7102
 30
0
 11
-162.296
 21
-14.6102
 31
0
  0
LINE
  5
B34
330
A02
100
AcDbEntity
  8
Shape11407
100
AcDbLine
 10
-162.296
 20
-14.6102
 30
0
 11
-148.196
 21
-14.6102
 31
0
  0
LINE
  5
B35
330
A02
100
AcDbEntity
  8
Shape11408
100
AcDbLine
 10
-148.196
 20
-14.6102
 30
0
 11
-148.196
 21
-28.7102
 31
0
  0
LINE
  5
B36
330
A02
100
AcDbEntity
  8
Shape11409
100
AcDbLine
 10
-86.0957
 20
-14.6102
 30
0
 11
-71.9957
 21
-14.6102
 31
0
  0
LINE
  5
B37
330
A02
100
AcDbEntity
  8
Shape11410
100
AcDbLine
 10
-71.9957
 20
-14.6102
 30
0
 11
-71.9957
 21
-28.7102
 31
0
  0
LINE
  5
B38
330
A02
100
AcDbEntity
  8
Shape11411
100
AcDbLine
 10
-71.9957
 20
-28.7102
 30
0
 11
-86.0957
 21
-28.7102
 31
0
  0
LINE
  5
B39
330
A02
100
AcDbEntity
  8
Shape11412
100
AcDbLine
 10
-86.0957
 20
-28.7102
 30
0
 11
-86.0957
 21
-14.6102
 31
0
  0
LINE
  5
B3A
330
A02
100
AcDbEntity
  8
Shape11413
100
AcDbLine
 10
-52.9457
 20
-14.6102
 30
0
 11
-52.9457
 21
-28.7102
 31
0
  0
LINE
  5
B3B
330
A02
100
AcDbEntity
  8
Shape11414
100
AcDbLine
 10
-52.9457
 20
-28.7102
 30
0
 11
-67.0457
 21
-28.7102
 31
0
  0
LINE
  5
B3C
330
A02
100
AcDbEntity
  8
Shape11415
100
AcDbLine
 10
-67.0457
 20
-28.7102
 30
0
 11
-67.0457
 21
-14.6102
 31
0
  0
LINE
  5
B3D
330
A02
100
AcDbEntity
  8
Shape11416
100
AcDbLine
 10
-67.0457
 20
-14.6102
 30
0
 11
-52.9457
 21
-14.6102
 31
0
  0
LINE
  5
B3E
330
A02
100
AcDbEntity
  8
Shape11417
100
AcDbLine
 10
-238.496
 20
-28.7102
 30
0
 11
-238.496
 21
-14.6102
 31
0
  0
LINE
  5
B3F
330
A02
100
AcDbEntity
  8
Shape11418
100
AcDbLine
 10
-238.496
 20
-14.6102
 30
0
 11
-224.396
 21
-14.6102
 31
0
  0
LINE
  5
B40
330
A02
100
AcDbEntity
  8
Shape11419
100
AcDbLine
 10
-224.396
 20
-14.6102
 30
0
 11
-224.396
 21
-28.7102
 31
0
  0
LINE
  5
B41
330
A02
100
AcDbEntity
  8
Shape11420
100
AcDbLine
 10
-224.396
 20
-28.7102
 30
0
 11
-238.496
 21
-28.7102
 31
0
  0
LINE
  5
B42
330
A02
100
AcDbEntity
  8
Shape11421
100
AcDbLine
 10
-186.296
 20
-28.7102
 30
0
 11
-200.396
 21
-28.7102
 31
0
  0
LINE
  5
B43
330
A02
100
AcDbEntity
  8
Shape11422
100
AcDbLine
 10
-200.396
 20
-28.7102
 30
0
 11
-200.396
 21
-14.6102
 31
0
  0
LINE
  5
B44
330
A02
100
AcDbEntity
  8
Shape11423
100
AcDbLine
 10
-200.396
 20
-14.6102
 30
0
 11
-186.296
 21
-14.6102
 31
0
  0
LINE
  5
B45
330
A02
100
AcDbEntity
  8
Shape11424
100
AcDbLine
 10
-186.296
 20
-14.6102
 30
0
 11
-186.296
 21
-28.7102
 31
0
  0
LINE
  5
B46
330
A02
100
AcDbEntity
  8
Shape11425
100
AcDbLine
 10
-243.446
 20
-14.6102
 30
0
 11
-243.446
 21
-28.7102
 31
0
  0
LINE
  5
B47
330
A02
100
AcDbEntity
  8
Shape11426
100
AcDbLine
 10
-243.446
 20
-28.7102
 30
0
 11
-257.546
 21
-28.7102
 31
0
  0
LINE
  5
B48
330
A02
100
AcDbEntity
  8
Shape11427
100
AcDbLine
 10
-257.546
 20
-28.7102
 30
0
 11
-257.546
 21
-14.6102
 31
0
  0
LINE
  5
B49
330
A02
100
AcDbEntity
  8
Shape11428
100
AcDbLine
 10
-257.546
 20
-14.6102
 30
0
 11
-243.446
 21
-14.6102
 31
0
  0
LINE
  5
B4A
330
A02
100
AcDbEntity
  8
Shape11429
100
AcDbLine
 10
-205.346
 20
-14.6102
 30
0
 11
-205.346
 21
-28.7102
 31
0
  0
LINE
  5
B4B
330
A02
100
AcDbEntity
  8
Shape11430
100
AcDbLine
 10
-205.346
 20
-28.7102
 30
0
 11
-219.446
 21
-28.7102
 31
0
  0
LINE
  5
B4C
330
A02
100
AcDbEntity
  8
Shape11431
100
AcDbLine
 10
-219.446
 20
-28.7102
 30
0
 11
-219.446
 21
-14.6102
 31
0
  0
LINE
  5
B4D
330
A02
100
AcDbEntity
  8
Shape11432
100
AcDbLine
 10
-219.446
 20
-14.6102
 30
0
 11
-205.346
 21
-14.6102
 31
0
  0
LINE
  5
B4E
330
A02
100
AcDbEntity
  8
Shape11433
100
AcDbLine
 10
-91.0457
 20
-14.6102
 30
0
 11
-91.0457
 21
-28.7102
 31
0
  0
LINE
  5
B4F
330
A02
100
AcDbEntity
  8
Shape11434
100
AcDbLine
 10
-91.0457
 20
-28.7102
 30
0
 11
-105.146
 21
-28.7102
 31
0
  0
LINE
  5
B50
330
A02
100
AcDbEntity
  8
Shape11435
100
AcDbLine
 10
-105.146
 20
-28.7102
 30
0
 11
-105.146
 21
-14.6102
 31
0
  0
LINE
  5
B51
330
A02
100
AcDbEntity
  8
Shape11436
100
AcDbLine
 10
-105.146
 20
-14.6102
 30
0
 11
-91.0457
 21
-14.6102
 31
0
  0
LINE
  5
B52
330
A02
100
AcDbEntity
  8
Shape11437
100
AcDbLine
 10
-110.096
 20
-28.7102
 30
0
 11
-124.196
 21
-28.7102
 31
0
  0
LINE
  5
B53
330
A02
100
AcDbEntity
  8
Shape11438
100
AcDbLine
 10
-124.196
 20
-28.7102
 30
0
 11
-124.196
 21
-14.6102
 31
0
  0
LINE
  5
B54
330
A02
100
AcDbEntity
  8
Shape11439
100
AcDbLine
 10
-124.196
 20
-14.6102
 30
0
 11
-110.096
 21
-14.6102
 31
0
  0
LINE
  5
B55
330
A02
100
AcDbEntity
  8
Shape11440
100
AcDbLine
 10
-110.096
 20
-14.6102
 30
0
 11
-110.096
 21
-28.7102
 31
0
  0
LINE
  5
B56
330
A02
100
AcDbEntity
  8
Shape11441
100
AcDbLine
 10
-281.546
 20
-28.7102
 30
0
 11
-295.646
 21
-28.7102
 31
0
  0
LINE
  5
B57
330
A02
100
AcDbEntity
  8
Shape11442
100
AcDbLine
 10
-295.646
 20
-28.7102
 30
0
 11
-295.646
 21
-14.6102
 31
0
  0
LINE
  5
B58
330
A02
100
AcDbEntity
  8
Shape11443
100
AcDbLine
 10
-295.646
 20
-14.6102
 30
0
 11
-281.546
 21
-14.6102
 31
0
  0
LINE
  5
B59
330
A02
100
AcDbEntity
  8
Shape11444
100
AcDbLine
 10
-281.546
 20
-14.6102
 30
0
 11
-281.546
 21
-28.7102
 31
0
  0
LINE
  5
B5A
330
A02
100
AcDbEntity
  8
Shape11783
100
AcDbLine
 10
-209.872
 20
-47.2605
 30
0
 11
-209.872
 21
-43.0601
 31
0
  0
LINE
  5
B5B
330
A02
100
AcDbEntity
  8
Shape11784
100
AcDbLine
 10
-209.872
 20
-43.0601
 30
0
 11
-218.546
 21
-43.0601
 31
0
  0
LINE
  5
B5C
330
A02
100
AcDbEntity
  8
Shape11785
100
AcDbLine
 10
-218.546
 20
-43.0601
 30
0
 11
-218.546
 21
-46.2903
 31
0
  0
LINE
  5
B5D
330
A02
100
AcDbEntity
  8
Shape11786
100
AcDbLine
 10
-218.546
 20
-46.2903
 30
0
 11
-225.297
 21
-46.2903
 31
0
  0
LINE
  5
B5E
330
A02
100
AcDbEntity
  8
Shape11787
100
AcDbLine
 10
-225.297
 20
-46.2903
 30
0
 11
-225.297
 21
-43.0601
 31
0
  0
LINE
  5
B5F
330
A02
100
AcDbEntity
  8
Shape11788
100
AcDbLine
 10
-225.297
 20
-43.0601
 30
0
 11
-226.122
 21
-43.0601
 31
0
  0
LINE
  5
B60
330
A02
100
AcDbEntity
  8
Shape11789
100
AcDbLine
 10
-226.122
 20
-43.0601
 30
0
 11
-226.122
 21
-40.2613
 31
0
  0
LINE
  5
B61
330
A02
100
AcDbEntity
  8
Shape11790
100
AcDbLine
 10
-226.122
 20
-40.2613
 30
0
 11
-225.297
 21
-40.2613
 31
0
  0
LINE
  5
B62
330
A02
100
AcDbEntity
  8
Shape11791
100
AcDbLine
 10
-225.297
 20
-40.2613
 30
0
 11
-225.297
 21
-33.9913
 31
0
  0
LINE
  5
B63
330
A02
100
AcDbEntity
  8
Shape11792
100
AcDbLine
 10
-225.297
 20
-33.9913
 30
0
 11
-223.572
 21
-33.9913
 31
0
  0
LINE
  5
B64
330
A02
100
AcDbEntity
  8
Shape11793
100
AcDbLine
 10
-223.572
 20
-33.9913
 30
0
 11
-223.572
 21
-32.791
 31
0
  0
LINE
  5
B65
330
A02
100
AcDbEntity
  8
Shape11794
100
AcDbLine
 10
-223.572
 20
-32.791
 30
0
 11
-220.272
 21
-32.791
 31
0
  0
LINE
  5
B66
330
A02
100
AcDbEntity
  8
Shape11795
100
AcDbLine
 10
-220.272
 20
-32.791
 30
0
 11
-220.272
 21
-33.9913
 31
0
  0
LINE
  5
B67
330
A02
100
AcDbEntity
  8
Shape11796
100
AcDbLine
 10
-220.272
 20
-33.9913
 30
0
 11
-218.546
 21
-33.9913
 31
0
  0
LINE
  5
B68
330
A02
100
AcDbEntity
  8
Shape11797
100
AcDbLine
 10
-218.546
 20
-33.9913
 30
0
 11
-218.546
 21
-38.4602
 31
0
  0
LINE
  5
B69
330
A02
100
AcDbEntity
  8
Shape11798
100
AcDbLine
 10
-218.546
 20
-38.4602
 30
0
 11
-209.872
 21
-38.4602
 31
0
  0
LINE
  5
B6A
330
A02
100
AcDbEntity
  8
Shape11799
100
AcDbLine
 10
-209.872
 20
-38.4602
 30
0
 11
-209.872
 21
-34.2611
 31
0
  0
LINE
  5
B6B
330
A02
100
AcDbEntity
  8
Shape11800
100
AcDbLine
 10
-209.372
 20
-33.7611
 30
0
 11
-196.372
 21
-33.7611
 31
0
  0
ARC
  5
B6C
330
A02
100
AcDbEntity
  8
Shape11801
100
AcDbCircle
 10
-209.372
 20
-34.2611
 30
0
 40
0.5
100
AcDbArc
 50
90
 51
180
  0
ARC
  5
B6D
330
A02
100
AcDbEntity
  8
Shape11802
100
AcDbCircle
 10
-196.372
 20
-34.2611
 30
0
 40
0.5
100
AcDbArc
 50
0
 51
90
  0
LINE
  5
B6E
330
A02
100
AcDbEntity
  8
Shape11803
100
AcDbLine
 10
-195.872
 20
-34.2611
 30
0
 11
-195.872
 21
-38.4602
 31
0
  0
LINE
  5
B6F
330
A02
100
AcDbEntity
  8
Shape11804
100
AcDbLine
 10
-195.872
 20
-38.4602
 30
0
 11
-187.197
 21
-38.4602
 31
0
  0
LINE
  5
B70
330
A02
100
AcDbEntity
  8
Shape11805
100
AcDbLine
 10
-187.197
 20
-38.4602
 30
0
 11
-187.197
 21
-33.9913
 31
0
  0
LINE
  5
B71
330
A02
100
AcDbEntity
  8
Shape11806
100
AcDbLine
 10
-187.197
 20
-33.9913
 30
0
 11
-185.472
 21
-33.9913
 31
0
  0
LINE
  5
B72
330
A02
100
AcDbEntity
  8
Shape11807
100
AcDbLine
 10
-185.472
 20
-33.9913
 30
0
 11
-185.472
 21
-32.791
 31
0
  0
LINE
  5
B73
330
A02
100
AcDbEntity
  8
Shape11808
100
AcDbLine
 10
-185.472
 20
-32.791
 30
0
 11
-182.172
 21
-32.791
 31
0
  0
LINE
  5
B74
330
A02
100
AcDbEntity
  8
Shape11809
100
AcDbLine
 10
-182.172
 20
-32.791
 30
0
 11
-182.172
 21
-33.9913
 31
0
  0
LINE
  5
B75
330
A02
100
AcDbEntity
  8
Shape11810
100
AcDbLine
 10
-182.172
 20
-33.9913
 30
0
 11
-180.446
 21
-33.9913
 31
0
  0
LINE
  5
B76
330
A02
100
AcDbEntity
  8
Shape11811
100
AcDbLine
 10
-180.446
 20
-33.9913
 30
0
 11
-180.446
 21
-40.2613
 31
0
  0
LINE
  5
B77
330
A02
100
AcDbEntity
  8
Shape11812
100
AcDbLine
 10
-180.446
 20
-40.2613
 30
0
 11
-179.622
 21
-40.2613
 31
0
  0
LINE
  5
B78
330
A02
100
AcDbEntity
  8
Shape11813
100
AcDbLine
 10
-179.622
 20
-40.2613
 30
0
 11
-179.622
 21
-43.0601
 31
0
  0
LINE
  5
B79
330
A02
100
AcDbEntity
  8
Shape11814
100
AcDbLine
 10
-179.622
 20
-43.0601
 30
0
 11
-180.446
 21
-43.0601
 31
0
  0
LINE
  5
B7A
330
A02
100
AcDbEntity
  8
Shape11815
100
AcDbLine
 10
-180.446
 20
-43.0601
 30
0
 11
-180.446
 21
-46.2903
 31
0
  0
LINE
  5
B7B
330
A02
100
AcDbEntity
  8
Shape11816
100
AcDbLine
 10
-180.446
 20
-46.2903
 30
0
 11
-187.197
 21
-46.2903
 31
0
  0
LINE
  5
B7C
330
A02
100
AcDbEntity
  8
Shape11817
100
AcDbLine
 10
-187.197
 20
-46.2903
 30
0
 11
-187.197
 21
-43.0601
 31
0
  0
LINE
  5
B7D
330
A02
100
AcDbEntity
  8
Shape11818
100
AcDbLine
 10
-187.197
 20
-43.0601
 30
0
 11
-195.872
 21
-43.0601
 31
0
  0
LINE
  5
B7E
330
A02
100
AcDbEntity
  8
Shape11819
100
AcDbLine
 10
-195.872
 20
-43.0601
 30
0
 11
-195.872
 21
-47.2605
 31
0
  0
ARC
  5
B7F
330
A02
100
AcDbEntity
  8
Shape11820
100
AcDbCircle
 10
-196.372
 20
-47.2605
 30
0
 40
0.5
100
AcDbArc
 50
-90
 51
0
  0
LINE
  5
B80
330
A02
100
AcDbEntity
  8
Shape11821
100
AcDbLine
 10
-196.372
 20
-47.7605
 30
0
 11
-209.372
 21
-47.7605
 31
0
  0
ARC
  5
B81
330
A02
100
AcDbEntity
  8
Shape11822
100
AcDbCircle
 10
-209.372
 20
-47.2605
 30
0
 40
0.5
100
AcDbArc
 50
180
 51
-90
  0
LINE
  5
B82
330
A02
100
AcDbEntity
  8
Shape11823
100
AcDbLine
 10
-152.721
 20
-47.2605
 30
0
 11
-152.721
 21
-43.0601
 31
0
  0
ARC
  5
B83
330
A02
100
AcDbEntity
  8
Shape11824
100
AcDbCircle
 10
-152.221
 20
-47.2605
 30
0
 40
0.5
100
AcDbArc
 50
180
 51
-90
  0
LINE
  5
B84
330
A02
100
AcDbEntity
  8
Shape11825
100
AcDbLine
 10
-152.721
 20
-43.0601
 30
0
 11
-161.396
 21
-43.0601
 31
0
  0
LINE
  5
B85
330
A02
100
AcDbEntity
  8
Shape11826
100
AcDbLine
 10
-161.396
 20
-43.0601
 30
0
 11
-161.396
 21
-46.2903
 31
0
  0
LINE
  5
B86
330
A02
100
AcDbEntity
  8
Shape11827
100
AcDbLine
 10
-161.396
 20
-46.2903
 30
0
 11
-168.147
 21
-46.2903
 31
0
  0
LINE
  5
B87
330
A02
100
AcDbEntity
  8
Shape11828
100
AcDbLine
 10
-168.147
 20
-46.2903
 30
0
 11
-168.147
 21
-43.0601
 31
0
  0
LINE
  5
B88
330
A02
100
AcDbEntity
  8
Shape11829
100
AcDbLine
 10
-168.147
 20
-43.0601
 30
0
 11
-168.971
 21
-43.0601
 31
0
  0
LINE
  5
B89
330
A02
100
AcDbEntity
  8
Shape11830
100
AcDbLine
 10
-168.971
 20
-43.0601
 30
0
 11
-168.971
 21
-40.2613
 31
0
  0
LINE
  5
B8A
330
A02
100
AcDbEntity
  8
Shape11831
100
AcDbLine
 10
-168.971
 20
-40.2613
 30
0
 11
-168.147
 21
-40.2613
 31
0
  0
LINE
  5
B8B
330
A02
100
AcDbEntity
  8
Shape11832
100
AcDbLine
 10
-168.147
 20
-40.2613
 30
0
 11
-168.147
 21
-33.9913
 31
0
  0
LINE
  5
B8C
330
A02
100
AcDbEntity
  8
Shape11833
100
AcDbLine
 10
-168.147
 20
-33.9913
 30
0
 11
-166.422
 21
-33.9913
 31
0
  0
LINE
  5
B8D
330
A02
100
AcDbEntity
  8
Shape11834
100
AcDbLine
 10
-166.422
 20
-33.9913
 30
0
 11
-166.422
 21
-32.791
 31
0
  0
LINE
  5
B8E
330
A02
100
AcDbEntity
  8
Shape11835
100
AcDbLine
 10
-166.422
 20
-32.791
 30
0
 11
-163.122
 21
-32.791
 31
0
  0
LINE
  5
B8F
330
A02
100
AcDbEntity
  8
Shape11836
100
AcDbLine
 10
-163.122
 20
-32.791
 30
0
 11
-163.122
 21
-33.9913
 31
0
  0
LINE
  5
B90
330
A02
100
AcDbEntity
  8
Shape11837
100
AcDbLine
 10
-163.122
 20
-33.9913
 30
0
 11
-161.396
 21
-33.9913
 31
0
  0
LINE
  5
B91
330
A02
100
AcDbEntity
  8
Shape11838
100
AcDbLine
 10
-161.396
 20
-33.9913
 30
0
 11
-161.396
 21
-38.4602
 31
0
  0
LINE
  5
B92
330
A02
100
AcDbEntity
  8
Shape11839
100
AcDbLine
 10
-161.396
 20
-38.4602
 30
0
 11
-152.721
 21
-38.4602
 31
0
  0
LINE
  5
B93
330
A02
100
AcDbEntity
  8
Shape11840
100
AcDbLine
 10
-152.721
 20
-38.4602
 30
0
 11
-152.721
 21
-34.2611
 31
0
  0
LINE
  5
B94
330
A02
100
AcDbEntity
  8
Shape11841
100
AcDbLine
 10
-152.221
 20
-33.7611
 30
0
 11
-139.222
 21
-33.7611
 31
0
  0
ARC
  5
B95
330
A02
100
AcDbEntity
  8
Shape11842
100
AcDbCircle
 10
-152.221
 20
-34.2611
 30
0
 40
0.5
100
AcDbArc
 50
90
 51
180
  0
ARC
  5
B96
330
A02
100
AcDbEntity
  8
Shape11843
100
AcDbCircle
 10
-139.222
 20
-47.2605
 30
0
 40
0.5
100
AcDbArc
 50
-90
 51
0
  0
LINE
  5
B97
330
A02
100
AcDbEntity
  8
Shape11844
100
AcDbLine
 10
-138.722
 20
-47.2605
 30
0
 11
-138.722
 21
-43.0614
 31
0
  0
LINE
  5
B98
330
A02
100
AcDbEntity
  8
Shape11845
100
AcDbLine
 10
-138.722
 20
-38.4615
 30
0
 11
-138.722
 21
-34.2611
 31
0
  0
LINE
  5
B99
330
A02
100
AcDbEntity
  8
Shape11846
100
AcDbLine
 10
-139.222
 20
-47.7605
 30
0
 11
-152.221
 21
-47.7605
 31
0
  0
ARC
  5
B9A
330
A02
100
AcDbEntity
  8
Shape11847
100
AcDbCircle
 10
-139.222
 20
-34.2611
 30
0
 40
0.5
100
AcDbArc
 50
0
 51
90
  0
LINE
  5
B9B
330
A02
100
AcDbEntity
  8
Shape11848
100
AcDbLine
 10
-138.722
 20
-43.0601
 30
0
 11
-130.047
 21
-43.0601
 31
0
  0
LINE
  5
B9C
330
A02
100
AcDbEntity
  8
Shape11849
100
AcDbLine
 10
-130.047
 20
-43.0601
 30
0
 11
-130.047
 21
-46.2903
 31
0
  0
LINE
  5
B9D
330
A02
100
AcDbEntity
  8
Shape11850
100
AcDbLine
 10
-130.047
 20
-46.2903
 30
0
 11
-123.296
 21
-46.2903
 31
0
  0
LINE
  5
B9E
330
A02
100
AcDbEntity
  8
Shape11851
100
AcDbLine
 10
-123.296
 20
-46.2903
 30
0
 11
-123.296
 21
-43.0601
 31
0
  0
LINE
  5
B9F
330
A02
100
AcDbEntity
  8
Shape11852
100
AcDbLine
 10
-123.296
 20
-43.0601
 30
0
 11
-122.472
 21
-43.0601
 31
0
  0
LINE
  5
BA0
330
A02
100
AcDbEntity
  8
Shape11853
100
AcDbLine
 10
-122.472
 20
-43.0601
 30
0
 11
-122.472
 21
-40.2613
 31
0
  0
LINE
  5
BA1
330
A02
100
AcDbEntity
  8
Shape11854
100
AcDbLine
 10
-122.472
 20
-40.2613
 30
0
 11
-123.296
 21
-40.2613
 31
0
  0
LINE
  5
BA2
330
A02
100
AcDbEntity
  8
Shape11855
100
AcDbLine
 10
-123.296
 20
-40.2613
 30
0
 11
-123.296
 21
-33.9913
 31
0
  0
LINE
  5
BA3
330
A02
100
AcDbEntity
  8
Shape11856
100
AcDbLine
 10
-123.296
 20
-33.9913
 30
0
 11
-125.021
 21
-33.9913
 31
0
  0
LINE
  5
BA4
330
A02
100
AcDbEntity
  8
Shape11857
100
AcDbLine
 10
-125.021
 20
-33.9913
 30
0
 11
-125.021
 21
-32.791
 31
0
  0
LINE
  5
BA5
330
A02
100
AcDbEntity
  8
Shape11858
100
AcDbLine
 10
-125.021
 20
-32.791
 30
0
 11
-128.321
 21
-32.791
 31
0
  0
LINE
  5
BA6
330
A02
100
AcDbEntity
  8
Shape11859
100
AcDbLine
 10
-128.321
 20
-32.791
 30
0
 11
-128.321
 21
-33.9913
 31
0
  0
LINE
  5
BA7
330
A02
100
AcDbEntity
  8
Shape11860
100
AcDbLine
 10
-128.321
 20
-33.9913
 30
0
 11
-130.047
 21
-33.9913
 31
0
  0
LINE
  5
BA8
330
A02
100
AcDbEntity
  8
Shape11861
100
AcDbLine
 10
-130.047
 20
-33.9913
 30
0
 11
-130.047
 21
-38.4602
 31
0
  0
LINE
  5
BA9
330
A02
100
AcDbEntity
  8
Shape11862
100
AcDbLine
 10
-130.047
 20
-38.4602
 30
0
 11
-138.722
 21
-38.4602
 31
0
  0
CIRCLE
  5
BAA
330
A02
100
AcDbEntity
  8
Shape12754
100
AcDbCircle
 10
-74.6513
 20
6.88925
 40
1.5
  0
ENDSEC
  0
SECTION
  2
OBJECTS
  0
DICTIONARY
  5
F000
330
0
100
AcDbDictionary
  3
ACAD_GROUP
350
F001
  0
DICTIONARY
  5
F001
330
F000
100
AcDbDictionary
  0
ENDSEC
  0
EOF