  0
SECTION
  2
HEADER
  9
$ACADVER
  1
AC1009
  9
$INSBASE
 10
0.0
 20
0.0
 30
0.0
  9
$EXTMIN
 10
0.0
 20
0.0
 30
0.0
  9
$EXTMAX
 10
0.0
 20
0.0
 30
0.0
  0
ENDSEC
  0
SECTION
  2
TABLES
  0
TABLE
  2
VPORT
 70
0
  0
ENDTAB
  0
TABLE
  2
LTYPE
 70
1
  0
LTYPE
  2
CONTINUOUS
 70
0
  3
Solid line
 72
65
 73
0
 40
0.0
  0
ENDTAB
  0
TABLE
  2
LAYER
 70
1
  0
LAYER
  2
0
 70
64
 62
7
  6
continuous
  0
ENDTAB
  0
TABLE
  2
STYLE
 70
1
  0
STYLE
  2
STANDARD
 70
0
 40
0
 41
1.0
 50
0.0
 71
0
 42
1
 3
ARIAL.TTF
 4

  0
ENDTAB
  0
TABLE
  2
VIEW
 70
0
  0
ENDTAB
  0
ENDSEC
  0
SECTION
  2
BLOCKS
  0
BLOCK
  8
0
  2
FACEFEAT
 70
0
 10
0.0
 20
0.0
 30
0.0
  3
FACEFEAT
  0
ARC
  8
0
 62
0
 10
28.6687499999999
 20
-75.4375
 30
0.0
 40
3.0
 50
-180.0
 51
-90.0
  0
LINE
  8
0
 62
0
 10
25.6687499999999
 20
-67.4375
 30
0.0
 11
25.6687499999999
 21
-75.4375
 31
0.0
  0
ARC
  8
0
 62
0
 10
28.6687499999999
 20
-67.4375
 30
0.0
 40
3.0
 50
90.0
 51
-180.0
  0
LINE
  8
0
 62
0
 10
28.6687499999999
 20
-64.4375
 30
0.0
 11
29.3624999999999
 21
-64.4375
 31
0.0
  0
LINE
  8
0
 62
0
 10
29.362499999999898
 20
-78.4375
 30
0.0
 11
28.668749999999903
 21
-78.4375
 31
0.0
  0
LINE
  8
0
 62
0
 10
230.3375
 20
-98.4875
 30
0.0
 11
45.88750000000002
 21
-98.4875
 31
0.0
  0
ARC
  8
0
 62
0
 10
230.3375
 20
-96.9875
 30
0.0
 40
1.50000001490113
 50
-90.00000000000435
 51
-0.0
  0
LINE
  8
0
 62
0
 10
231.83750001490102
 20
-79.4375000149012
 30
0.0
 11
231.83750001490108
 21
-96.9875
 31
0.0
  0
LINE
  8
0
 62
0
 10
239.8625
 20
-79.43750001490119
 30
0.0
 11
231.837500014901
 21
-79.43750001490118
 31
0.0
  0
ARC
  8
0
 62
0
 10
239.8625
 20
-77.9375
 30
0.0
 40
1.50000001490121
 50
-90.0
 51
-0.0
  0
LINE
  8
0
 62
0
 10
241.362500014901
 20
-60.3875000149012
 30
0.0
 11
241.3625000149011
 21
-77.9375
 31
0.0
  0
LINE
  8
0
 62
0
 10
254.15
 20
-60.38750001490121
 30
0.0
 11
241.362500014901
 21
-60.38750001490118
 31
0.0
  0
ARC
  8
0
 62
0
 10
254.15
 20
-58.8875
 30
0.0
 40
1.50000001490121
 50
-90.0
 51
-0.0
  0
LINE
  8
0
 62
0
 10
255.65000001490097
 20
-45.8875
 30
0.0
 11
255.65000001490102
 21
-58.8875
 31
0.0
  0
ARC
  8
0
 62
0
 10
254.15
 20
-45.8875
 30
0.0
 40
1.5000000149011
 50
-0.0
 51
90.0
  0
LINE
  8
0
 62
0
 10
246.125000014901
 20
-44.38749998509885
 30
0.0
 11
254.15
 21
-44.38749998509882
 31
0.0
  0
LINE
  8
0
 62
0
 10
246.1250000149009
 20
-26.8375
 30
0.0
 11
246.125000014901
 21
-44.3874999850989
 31
0.0
  0
ARC
  8
0
 62
0
 10
244.625
 20
-26.8375
 30
0.0
 40
1.5000000149011
 50
-0.0
 51
90.0
  0
LINE
  8
0
 62
0
 10
22.075000000000003
 20
-25.337499985098017
 30
0.0
 11
244.625
 21
-25.33749998509885
 31
0.0
  0
ARC
  8
0
 62
0
 10
22.075
 20
-26.8375
 30
0.0
 40
1.50000001490116
 50
90.0
 51
-180.0
  0
LINE
  8
0
 62
0
 10
20.57499998509889
 20
-39.8375
 30
0.0
 11
20.574999985098884
 21
-26.8375
 31
0.0
  0
ARC
  8
0
 62
0
 10
22.075
 20
-39.8375
 30
0.0
 40
1.50000001490114
 50
-180.0
 51
-90.0
  0
LINE
  8
0
 62
0
 10
30.099999985098805
 20
-41.33750001490115
 30
0.0
 11
22.075000000000003
 21
-41.33750001490116
 31
0.0
  0
LINE
  8
0
 62
0
 10
30.0999999850988
 20
-58.8875
 30
0.0
 11
30.099999985098787
 21
-41.3375000149012
 31
0.0
  0
ARC
  8
0
 62
0
 10
31.6
 20
-58.8875
 30
0.0
 40
1.50000001490116
 50
-180.0
 51
-90.0
  0
LINE
  8
0
 62
0
 10
34.86249998509879
 20
-60.3875000149012
 30
0.0
 11
31.599999999999994
 21
-60.3875000149012
 31
0.0
  0
LINE
  8
0
 62
0
 10
34.8624999850988
 20
-77.9375
 30
0.0
 11
34.8624999850988
 21
-60.3875000149012
 31
0.0
  0
ARC
  8
0
 62
0
 10
36.3625
 20
-77.9375
 30
0.0
 40
1.50000001490116
 50
-180.0
 51
-90.0
  0
LINE
  8
0
 62
0
 10
44.3875
 20
-79.4375000149012
 30
0.0
 11
36.3625
 21
-79.4375000149012
 31
0.0
  0
LINE
  8
0
 62
0
 10
44.3875
 20
-96.9875
 30
0.0
 11
44.3875
 21
-79.4375000149012
 31
0.0
  0
ARC
  8
0
 62
0
 10
45.8875
 20
-96.9875
 30
0.0
 40
1.49999999999998
 50
-180.0
 51
-90.0
  0
ARC
  8
0
 62
0
 10
29.3624999999999
 20
-75.4375
 30
0.0
 40
3.0
 50
-90.0
 51
-0.0
  0
ARC
  8
0
 62
0
 10
29.3624999999999
 20
-67.4375
 30
0.0
 40
3.0
 50
-0.0
 51
90.0
  0
LINE
  8
0
 62
0
 10
32.3624999999999
 20
-67.4375
 30
0.0
 11
32.362499999999905
 21
-75.4375
 31
0.0
  0
ARC
  8
0
 62
0
 10
7.11331721618821
 20
-122.123881858792
 30
0.0
 40
2.0
 50
-180.0
 51
-90.0
  0
LINE
  8
0
 62
0
 10
13.157744835372398
 20
-124.123881858792
 30
0.0
 11
7.113317216188207
 21
-124.123881858792
 31
0.0
  0
ARC
  8
0
 62
0
 10
13.1577448353727
 20
-129.123881858792
 30
0.0
 40
5.0
 50
47.00405896252901
 51
90.0000000000034
  0
ARC
  8
0
 62
0
 10
18.6133172161882
 20
-123.272665746078
 30
0.0
 40
3.00000000000001
 50
-132.9959410374864
 51
-90.0
  0
LINE
  8
0
 62
0
 10
18.6133172161882
 20
-126.272665746078
 30
0.0
 11
24.6133172161882
 21
-126.272665746078
 31
0.0
  0
ARC
  8
0
 62
0
 10
24.6133172161882
 20
-123.272665746078
 30
0.0
 40
3.00000000000001
 50
-90.0
 51
-0.0
  0
LINE
  8
0
 62
0
 10
27.6133172161882
 20
-123.272665746078
 30
0.0
 11
27.6133172161882
 21
-120.6635
 31
0.0
  0
ARC
  8
0
 62
0
 10
29.6133172161882
 20
-120.6635
 30
0.0
 40
2.0
 50
90.0
 51
-180.0
  0
LINE
  8
0
 62
0
 10
29.613317216188193
 20
-118.6635
 30
0.0
 11
48.18511188823899
 21
-118.6635
 31
0.0
  0
ARC
  8
0
 62
0
 10
48.185111888239
 20
-116.6635
 30
0.0
 40
2.0
 50
-90.0
 51
-50.220349669765426
  0
ARC
  8
0
 62
0
 10
52.3440510156146
 20
-121.65882034356
 30
0.0
 40
4.5
 50
50.22034966977258
 51
129.7796503302275
  0
ARC
  8
0
 62
0
 10
56.5029901429902
 20
-116.6635
 30
0.0
 40
2.0
 50
-129.77965033023457
 51
-90.0
  0
LINE
  8
0
 62
0
 10
56.5029901429902
 20
-118.6635
 30
0.0
 11
57.3858022898349
 21
-118.6635
 31
0.0
  0
ARC
  8
0
 62
0
 10
57.3858022898349
 20
-123.6635
 30
0.0
 40
5.0
 50
45.0000000000023
 51
90.0
  0
LINE
  8
0
 62
0
 10
63.452785866423994
 20
-122.6594157647229
 30
0.0
 11
60.92133619576785
 21
-120.12796609406675
 31
0.0
  0
ARC
  8
0
 62
0
 10
66.9883197723567
 20
-119.12388185879
 30
0.0
 40
5.0
 50
-134.9999999999984
 51
-90.00000000000227
  0
LINE
  8
0
 62
0
 10
66.9883197723565
 20
-124.12388185878783
 30
0.0
 11
76.7694276191808
 21
-124.12388185878731
 31
0.0
  0
ARC
  8
0
 62
0
 10
76.7694276191811
 20
-129.123881858788
 30
0.0
 40
5.0
 50
47.00405896249747
 51
90.00000000000342
  0
ARC
  8
0
 62
0
 10
82.2249999999997
 20
-123.272665746077
 30
0.0
 40
3.00000000000001
 50
-132.99594103751596
 51
-90.0
  0
LINE
  8
0
 62
0
 10
82.2249999999997
 20
-126.272665746077
 30
0.0
 11
88.2249999999997
 21
-126.272665746077
 31
0.0
  0
ARC
  8
0
 62
0
 10
88.2249999999997
 20
-123.272665746077
 30
0.0
 40
3.00000000000001
 50
-90.0
 51
-7.994811507075272
  0
ARC
  8
0
 62
0
 10
93.1764033384008
 20
-123.968082873038
 30
0.0
 40
1.99999999999999
 50
90.0
 51
172.00518849294386
  0
LINE
  8
0
 62
0
 10
93.1764033384008
 20
-121.968082873038
 30
0.0
 11
109.225
 21
-121.968082873038
 31
0.0
  0
ARC
  8
0
 62
0
 10
109.225
 20
-119.968082873038
 30
0.0
 40
2.0
 50
-90.0
 51
-10.01199128612124
  0
ARC
  8
0
 62
0
 10
113.164085556259
 20
-120.6635
 30
0.0
 40
1.99999999999999
 50
90.0
 51
169.98800871388406
  0
LINE
  8
0
 62
0
 10
113.164085556259
 20
-118.6635
 30
0.0
 11
160.103861888239
 21
-118.6635
 31
0.0
  0
ARC
  8
0
 62
0
 10
160.103861888239
 20
-116.6635
 30
0.0
 40
2.00000000000005
 50
-90.0
 51
-50.220349669765596
  0
ARC
  8
0
 62
0
 10
164.262801015615
 20
-121.65882034356
 30
0.0
 40
4.49999999999999
 50
50.220349669769824
 51
129.7796503302312
  0
ARC
  8
0
 62
0
 10
168.421740142991
 20
-116.6635
 30
0.0
 40
2.00000000000019
 50
-129.77965033025671
 51
-90.0
  0
LINE
  8
0
 62
0
 10
168.421740142991
 20
-118.6635
 30
0.0
 11
172.525
 21
-118.6635
 31
0.0
  0
ARC
  8
0
 62
0
 10
172.525
 20
-120.6635
 30
0.0
 40
2.0
 50
10.011991286115826
 51
90.0
  0
ARC
  8
0
 62
0
 10
176.464085556259
 20
-119.968082873038
 30
0.0
 40
1.99999999999999
 50
-169.98800871387877
 51
-90.0
  0
LINE
  8
0
 62
0
 10
192.573596661599
 20
-121.968082873038
 30
0.0
 11
176.464085556259
 21
-121.968082873038
 31
0.0
  0
ARC
  8
0
 62
0
 10
192.573596661599
 20
-123.968082873038
 30
0.0
 40
1.99999999999999
 50
7.994811507058167
 51
90.0
  0
ARC
  8
0
 62
0
 10
197.525
 20
-123.272665746077
 30
0.0
 40
3.00000000000004
 50
-172.00518849292587
 51
-90.0
  0
LINE
  8
0
 62
0
 10
203.525
 20
-126.272665746077
 30
0.0
 11
197.525
 21
-126.272665746077
 31
0.0
  0
ARC
  8
0
 62
0
 10
203.525
 20
-123.272665746077
 30
0.0
 40
3.00000000000001
 50
-90.0
 51
-47.00405896251109
  0
ARC
  8
0
 62
0
 10
208.980572380816
 20
-129.123881858791
 30
0.0
 40
5.0
 50
90.0
 51
132.9959410374734
  0
LINE
  8
0
 62
0
 10
208.980572380816
 20
-124.12388185878154
 30
0.0
 11
218.76168022764
 21
-124.12388185878105
 31
0.0
  0
ARC
  8
0
 62
0
 10
218.76168022764
 20
-119.12388185879
 30
0.0
 40
5.0
 50
-90.0
 51
-45.00000000000794
  0
LINE
  8
0
 62
0
 10
222.2972141335725
 20
-122.65941576472349
 30
0.0
 11
224.828663804229
 21
-120.127966094067
 31
0.0
  0
ARC
  8
0
 62
0
 10
228.364197710161
 20
-123.6635
 30
0.0
 40
5.0
 50
90.0
 51
134.99999999999184
  0
LINE
  8
0
 62
0
 10
228.364197710161
 20
-118.6635
 30
0.0
 11
256.165840780771
 21
-118.6635
 31
0.0
  0
ARC
  8
0
 62
0
 10
256.165840780771
 20
-120.6635
 30
0.0
 40
2.0
 50
-0.0
 51
90.0
  0
LINE
  8
0
 62
0
 10
258.165840780771
 20
-120.6635
 30
0.0
 11
258.165840780771
 21
-123.689916022254
 31
0.0
  0
ARC
  8
0
 62
0
 10
261.136682783812
 20
-123.272665746078
 30
0.0
 40
3.00000000000005
 50
-172.0051884929327
 51
-90.0
  0
LINE
  8
0
 62
0
 10
261.136682783812
 20
-126.272665746078
 30
0.0
 11
267.136682783812
 21
-126.27266574607798
 31
0.0
  0
ARC
  8
0
 62
0
 10
267.136682783812
 20
-123.272665746078
 30
0.0
 40
3.00000000000001
 50
-90.0
 51
-47.004058962564095
  0
ARC
  8
0
 62
0
 10
272.592255164623
 20
-129.123881858796
 30
0.0
 40
5.0
 50
90.0
 51
132.99594103743246
  0
LINE
  8
0
 62
0
 10
272.592255164623
 20
-124.12388185877776
 30
0.0
 11
278.636682783812
 21
-124.12388185877745
 31
0.0
  0
ARC
  8
0
 62
0
 10
278.636682783812
 20
-122.123881858796
 30
0.0
 40
2.0
 50
-90.0
 51
-0.0
  0
LINE
  8
0
 62
0
 10
280.636682783812
 20
-120.6635
 30
0.0
 11
280.6366827838119
 21
-122.123881858796
 31
0.0
  0
ARC
  8
0
 62
0
 10
282.636682783812
 20
-120.6635
 30
0.0
 40
1.99999999999999
 50
90.0
 51
-180.0
  0
LINE
  8
0
 62
0
 10
282.636682783812
 20
-118.6635
 30
0.0
 11
305.360111888239
 21
-118.6635
 31
0.0
  0
ARC
  8
0
 62
0
 10
305.360111888239
 20
-116.6635
 30
0.0
 40
2.0
 50
-90.0
 51
-50.22034966978336
  0
ARC
  8
0
 62
0
 10
309.519051015615
 20
-121.65882034356
 30
0.0
 40
4.49999999999999
 50
50.22034966976881
 51
129.77965033023958
  0
ARC
  8
0
 62
0
 10
313.677990142991
 20
-116.6635
 30
0.0
 40
2.0
 50
-129.77965033023548
 51
-90.0
  0
LINE
  8
0
 62
0
 10
313.677990142991
 20
-118.6635
 30
0.0
 11
317.754975213147
 21
-118.6635
 31
0.0
  0
ARC
  8
0
 62
0
 10
317.754975213147
 20
-120.6635
 30
0.0
 40
2.0
 50
-0.0
 51
90.0
  0
LINE
  8
0
 62
0
 10
319.754975213147
 20
-120.6635
 30
0.0
 11
319.754975213147
 21
-123.689916022252
 31
0.0
  0
ARC
  8
0
 62
0
 10
322.725817216188
 20
-123.272665746076
 30
0.0
 40
3.00000000000005
 50
-172.0051884929327
 51
-90.0
  0
LINE
  8
0
 62
0
 10
322.725817216188
 20
-126.272665746076
 30
0.0
 11
328.725817216188
 21
-126.27266574607597
 31
0.0
  0
ARC
  8
0
 62
0
 10
328.725817216188
 20
-123.272665746076
 30
0.0
 40
3.00000000000001
 50
-90.0
 51
-47.00405896261846
  0
ARC
  8
0
 62
0
 10
334.181389596993
 20
-129.1238818588
 30
0.0
 40
5.0
 50
90.0
 51
132.99594103736797
  0
LINE
  8
0
 62
0
 10
340.225817216188
 20
-124.12388185879
 30
0.0
 11
334.181389596993
 21
-124.12388185879
 31
0.0
  0
ARC
  8
0
 62
0
 10
340.225817216188
 20
-122.123881858801
 30
0.0
 40
2.0
 50
-90.0
 51
-0.0
  0
LINE
  8
0
 62
0
 10
342.225817216188
 20
-122.123881858801
 30
0.0
 11
342.225817216188
 21
-120.6635
 31
0.0
  0
ARC
  8
0
 62
0
 10
344.225817216188
 20
-120.6635
 30
0.0
 40
1.99999999999996
 50
90.0
 51
-180.0
  0
LINE
  8
0
 62
0
 10
344.225817216188
 20
-118.6635
 30
0.0
 11
345.8875
 21
-118.6635
 31
0.0
  0
ARC
  8
0
 62
0
 10
345.8875
 20
-116.6635
 30
0.0
 40
2.0
 50
-90.0
 51
-0.0
  0
LINE
  8
0
 62
0
 10
347.88750000000005
 20
-116.6635
 30
0.0
 11
347.88749999999993
 21
-2.399000000000001
 31
0.0
  0
ARC
  8
0
 62
0
 10
345.8875
 20
-2.399
 30
0.0
 40
2.0
 50
0.0
 51
90.0
  0
LINE
  8
0
 62
0
 10
345.8875
 20
-0.39899999999999386
 30
0.0
 11
344.225817216188
 21
-0.3989999999999939
 31
0.0
  0
ARC
  8
0
 62
0
 10
344.225817216188
 20
1.60100000000066
 30
0.0
 40
1.99999999999999
 50
-180.0
 51
-90.0
  0
LINE
  8
0
 62
0
 10
342.225817216188
 20
1.60100000000066
 30
0.0
 11
342.225817216188
 21
3.06138185879093
 31
0.0
  0
ARC
  8
0
 62
0
 10
340.225817216188
 20
3.06138185879093
 30
0.0
 40
2.0
 50
0.0
 51
90.0
  0
LINE
  8
0
 62
0
 10
340.225817216188
 20
5.06138185879088
 30
0.0
 11
334.181389597004
 21
5.06138185879088
 31
0.0
  0
ARC
  8
0
 62
0
 10
334.181389597004
 20
10.0613818587909
 30
0.0
 40
5.0
 50
-132.99594103749286
 51
-90.0
  0
ARC
  8
0
 62
0
 10
328.725817216187
 20
4.21016574607803
 30
0.0
 40
3.00000000000002
 50
47.004058962514826
 51
90.0
  0
LINE
  8
0
 62
0
 10
328.725817216187
 20
7.21016574607804
 30
0.0
 11
322.725817216187
 21
7.21016574607804
 31
0.0
  0
ARC
  8
0
 62
0
 10
322.725817216187
 20
4.21016574607803
 30
0.0
 40
3.00000000000001
 50
90.0
 51
-180.0
  0
LINE
  8
0
 62
0
 10
319.725817216187
 20
4.21016574607803
 30
0.0
 11
319.725817216187
 21
1.60100000000002
 31
0.0
  0
ARC
  8
0
 62
0
 10
317.725817216187
 20
1.60100000000002
 30
0.0
 40
1.99999999999999
 50
-90.0
 51
-0.0
  0
LINE
  8
0
 62
0
 10
317.725817216187
 20
-0.3989999999999882
 30
0.0
 11
313.677990142991
 21
-0.39899999999998836
 31
0.0
  0
ARC
  8
0
 62
0
 10
313.677990142991
 20
-2.39899999999999
 30
0.0
 40
2.0
 50
90.0
 51
129.77965033023145
  0
ARC
  8
0
 62
0
 10
309.519051015615
 20
2.59632034355969
 30
0.0
 40
4.49999999999999
 50
-129.7796503302357
 51
-50.22034966976425
  0
ARC
  8
0
 62
0
 10
305.360111888239
 20
-2.39899999999999
 30
0.0
 40
2.0
 50
50.22034966976852
 51
90.0
  0
LINE
  8
0
 62
0
 10
305.360111888239
 20
-0.3989999999999959
 30
0.0
 11
295.044950503496
 21
-0.3989999999999964
 31
0.0
  0
ARC
  8
0
 62
0
 10
295.044950503496
 20
-2.39899999999999
 30
0.0
 40
2.0
 50
90.0
 51
131.4096221092881
  0
ARC
  8
0
 62
0
 10
292.399199192431
 20
0.600999999999942
 30
0.0
 40
1.99999999999999
 50
-90.0
 51
-48.59037789073553
  0
LINE
  8
0
 62
0
 10
292.399199192431
 20
-1.39900000000006
 30
0.0
 11
283.863300807569
 21
-1.39900000000006
 31
0.0
  0
ARC
  8
0
 62
0
 10
283.863300807569
 20
0.600999999999942
 30
0.0
 40
1.99999999999999
 50
-131.40962210926457
 51
-90.0
  0
ARC
  8
0
 62
0
 10
281.217549496504
 20
-2.399
 30
0.0
 40
2.0
 50
48.59037789071329
 51
90.0
  0
LINE
  8
0
 62
0
 10
281.217549496504
 20
-0.39899999999999713
 30
0.0
 11
244.027514926352
 21
-0.398999999999999
 31
0.0
  0
ARC
  8
0
 62
0
 10
244.027514926352
 20
4.60099999999978
 30
0.0
 40
5.00000000000002
 50
-135.00000000000026
 51
-90.0
  0
LINE
  8
0
 62
0
 10
240.49198102042
 20
1.06546609406705
 30
0.0
 11
237.96053134976336
 21
3.5969157647237315
 31
0.0
  0
ARC
  8
0
 62
0
 10
234.42499744383
 20
0.0613818587906412
 30
0.0
 40
5.00000000000002
 50
44.999999999999744
 51
89.9999999999886
  0
LINE
  8
0
 62
0
 10
234.424997443831
 20
5.06138185879088
 30
0.0
 11
224.643889597003
 21
5.06138185879088
 31
0.0
  0
ARC
  8
0
 62
0
 10
224.643889597003
 20
10.0613818587909
 30
0.0
 40
5.0
 50
-132.99594103747904
 51
-90.0
  0
ARC
  8
0
 62
0
 10
219.188317216188
 20
4.21016574607685
 30
0.0
 40
2.99999999999999
 50
47.00405896253456
 51
90.0
  0
LINE
  8
0
 62
0
 10
219.188317216188
 20
7.21016574607686
 30
0.0
 11
213.188317216188
 21
7.21016574607686
 31
0.0
  0
ARC
  8
0
 62
0
 10
213.188317216188
 20
4.21016574607685
 30
0.0
 40
3.00000000000001
 50
90.0
 51
172.0051884929336
  0
LINE
  8
0
 62
0
 10
210.217475213147
 20
4.62741602225344
 30
0.0
 11
210.21747521314705
 21
1.60100000000004
 31
0.0
  0
ARC
  8
0
 62
0
 10
208.217475213147
 20
1.601
 30
0.0
 40
2.0
 50
-90.0
 51
0.0
  0
LINE
  8
0
 62
0
 10
208.217475213147
 20
-0.39899999999999375
 30
0.0
 11
185.090490142991
 21
-0.3989999999999949
 31
0.0
  0
ARC
  8
0
 62
0
 10
185.090490142991
 20
-2.399
 30
0.0
 40
2.0
 50
90.0
 51
129.77965033023048
  0
ARC
  8
0
 62
0
 10
180.931551015615
 20
2.59632034355969
 30
0.0
 40
4.49999999999999
 50
-129.77965033023585
 51
-50.22034966976452
  0
ARC
  8
0
 62
0
 10
176.772611888239
 20
-2.399
 30
0.0
 40
2.0
 50
50.22034966976952
 51
90.0
  0
LINE
  8
0
 62
0
 10
139.121659219228
 20
-0.39900000000000446
 30
0.0
 11
176.772611888239
 21
-0.3990000000000025
 31
0.0
  0
ARC
  8
0
 62
0
 10
139.121659219228
 20
1.601
 30
0.0
 40
2.0
 50
180.0
 51
-90.0
  0
LINE
  8
0
 62
0
 10
137.121659219228
 20
4.62741602225344
 30
0.0
 11
137.12165921922798
 21
1.60100000000002
 31
0.0
  0
ARC
  8
0
 62
0
 10
134.150817216188
 20
4.21016574607685
 30
0.0
 40
3.00000000000002
 50
7.994811507067315
 51
90.0
  0
LINE
  8
0
 62
0
 10
128.150817216188
 20
7.21016574607686
 30
0.0
 11
134.150817216188
 21
7.21016574607686
 31
0.0
  0
ARC
  8
0
 62
0
 10
128.150817216188
 20
4.21016574607685
 30
0.0
 40
3.00000000000001
 50
90.0
 51
132.9959410374807
  0
ARC
  8
0
 62
0
 10
122.695244835372
 20
10.0613818587905
 30
0.0
 40
5.0
 50
-90.0
 51
-47.00405896251874
  0
LINE
  8
0
 62
0
 10
112.914136988544
 20
5.061381858791522
 30
0.0
 11
122.695244835372
 21
5.061381858790894
 31
0.0
  0
ARC
  8
0
 62
0
 10
112.914136988545
 20
0.0613818587906412
 30
0.0
 40
5.0
 50
90.00000000000196
 51
135.00000000000227
  0
LINE
  8
0
 62
0
 10
106.847153411956
 20
1.06546609406705
 30
0.0
 11
109.37860308261214
 21
3.596915764723215
 31
0.0
  0
ARC
  8
0
 62
0
 10
103.311619506023
 20
4.60099999999978
 30
0.0
 40
5.0
 50
-90.0
 51
-44.9999999999979
  0
LINE
  8
0
 62
0
 10
103.311619506023
 20
-0.3989999999999992
 30
0.0
 11
61.2654901429905
 21
-0.3990000000000013
 31
0.0
  0
ARC
  8
0
 62
0
 10
61.2654901429905
 20
-2.399
 30
0.0
 40
2.0
 50
90.0
 51
129.7796503302329
  0
ARC
  8
0
 62
0
 10
57.1065510156146
 20
2.59632034355969
 30
0.0
 40
4.5
 50
-129.7796503302336
 51
-50.22034966976635
  0
ARC
  8
0
 62
0
 10
52.9476118882387
 20
-2.39900000000001
 30
0.0
 40
2.0
 50
50.22034966976718
 51
90.0
  0
LINE
  8
0
 62
0
 10
29.6133172161882
 20
-0.39900000000001
 30
0.0
 11
52.9476118882387
 21
-0.39900000000000885
 31
0.0
  0
ARC
  8
0
 62
0
 10
29.6133172161882
 20
1.60100000000002
 30
0.0
 40
2.00000000000003
 50
-180.0
 51
-90.0
  0
LINE
  8
0
 62
0
 10
27.6133172161882
 20
4.21016574607803
 30
0.0
 11
27.6133172161882
 21
1.60100000000002
 31
0.0
  0
ARC
  8
0
 62
0
 10
24.6133172161882
 20
4.21016574607803
 30
0.0
 40
3.00000000000001
 50
-0.0
 51
90.0
  0
LINE
  8
0
 62
0
 10
18.6133172161882
 20
7.21016574607804
 30
0.0
 11
24.6133172161882
 21
7.21016574607804
 31
0.0
  0
ARC
  8
0
 62
0
 10
18.6133172161882
 20
4.21016574607803
 30
0.0
 40
3.00000000000001
 50
90.0
 51
132.9959410374892
  0
ARC
  8
0
 62
0
 10
13.1577448353715
 20
10.0613818587909
 30
0.0
 40
5.0
 50
-90.0
 51
-47.00405896251177
  0
LINE
  8
0
 62
0
 10
7.11331721618821
 20
5.061381858790872
 30
0.0
 11
13.1577448353715
 21
5.0613818587908534
 31
0.0
  0
ARC
  8
0
 62
0
 10
7.1133172161882
 20
3.0613818587909
 30
0.0
 40
2.0
 50
89.99999999999972
 51
180.0
  0
LINE
  8
0
 62
0
 10
5.1133172161882054
 20
3.061381858791
 30
0.0
 11
5.113317216188129
 21
1.60100000000066
 31
0.0
  0
ARC
  8
0
 62
0
 10
3.11331721618814
 20
1.60100000000067
 30
0.0
 40
1.99999999999999
 50
-90.0
 51
-0.0
  0
LINE
  8
0
 62
0
 10
3.113317216188136
 20
-0.3990000000000043
 30
0.0
 11
1.7749999999999773
 21
-0.39900000000000435
 31
0.0
  0
ARC
  8
0
 62
0
 10
1.77499999999998
 20
-2.39900000000001
 30
0.0
 40
2.0
 50
90.00000000000003
 51
-180.0
  0
LINE
  8
0
 62
0
 10
-0.225000000000007
 20
-2.399000000000008
 30
0.0
 11
-0.225000000000007
 21
-116.6635
 31
0.0
  0
ARC
  8
0
 62
0
 10
1.77499999999998
 20
-116.6635
 30
0.0
 40
2.0
 50
-180.0
 51
-90.00000000000001
  0
LINE
  8
0
 62
0
 10
1.7749999999999773
 20
-118.6635
 30
0.0
 11
3.113317216188136
 21
-118.6635
 31
0.0
  0
ARC
  8
0
 62
0
 10
3.11331721618814
 20
-120.6635
 30
0.0
 40
1.99999999999999
 50
-0.0
 51
90.0
  0
LINE
  8
0
 62
0
 10
5.113317216188129
 20
-120.6635
 30
0.0
 11
5.1133172161882054
 21
-122.123881858792
 31
0.0
  0
ARC
  8
0
 62
0
 10
23.16875
 20
-64.9375
 30
0.0
 40
0.499999999999998
 50
-0.0
 51
90.0
  0
LINE
  8
0
 62
0
 10
23.66875
 20
-64.9375
 30
0.0
 11
23.66875
 21
-77.9375
 31
0.0
  0
ARC
  8
0
 62
0
 10
23.16875
 20
-77.9375
 30
0.0
 40
0.499999999999998
 50
-90.0
 51
-0.0
  0
LINE
  8
0
 62
0
 10
23.16875
 20
-78.4375
 30
0.0
 11
5.40625
 21
-78.4375
 31
0.0
  0
ARC
  8
0
 62
0
 10
5.40625
 20
-77.9375
 30
0.0
 40
0.5
 50
-180.0
 51
-90.0
  0
LINE
  8
0
 62
0
 10
4.90625
 20
-77.9375
 30
0.0
 11
4.90625
 21
-64.9375
 31
0.0
  0
ARC
  8
0
 62
0
 10
5.40625
 20
-64.9375
 30
0.0
 40
0.499999999999998
 50
90.0
 51
-180.0
  0
LINE
  8
0
 62
0
 10
5.40625
 20
-64.4375
 30
0.0
 11
23.16875
 21
-64.4375
 31
0.0
  0
CIRCLE
  8
0
 62
0
 10
261.136682783812
 20
-123.272665746078
 30
0.0
 40
1.6
  0
CIRCLE
  8
0
 62
0
 10
322.725817216187
 20
4.21016574607803
 30
0.0
 40
1.59999999999997
  0
CIRCLE
  8
0
 62
0
 10
213.188317216188
 20
4.21016574607685
 30
0.0
 40
1.59999999999997
  0
CIRCLE
  8
0
 62
0
 10
134.150817216188
 20
4.21016574607685
 30
0.0
 40
1.59999999999998
  0
ARC
  8
0
 62
0
 10
293.5375
 20
-3.025
 30
0.0
 40
0.5
 50
90.0
 51
-180.0
  0
LINE
  8
0
 62
0
 10
293.5375
 20
-2.525
 30
0.0
 11
306.5375
 21
-2.525
 31
0.0
  0
ARC
  8
0
 62
0
 10
306.5375
 20
-3.025
 30
0.0
 40
0.500000000000007
 50
-0.0
 51
90.0
  0
LINE
  8
0
 62
0
 10
307.0375
 20
-3.025
 30
0.0
 11
307.0375
 21
-16.025
 31
0.0
  0
ARC
  8
0
 62
0
 10
306.5375
 20
-16.025
 30
0.0
 40
0.5
 50
-90.0
 51
-0.0
  0
LINE
  8
0
 62
0
 10
306.5375
 20
-16.525
 30
0.0
 11
293.5375
 21
-16.525
 31
0.0
  0
ARC
  8
0
 62
0
 10
293.5375
 20
-16.025
 30
0.0
 40
0.500000000000007
 50
-180.0
 51
-90.0
  0
LINE
  8
0
 62
0
 10
293.0375
 20
-16.025
 30
0.0
 11
293.0375
 21
-3.025
 31
0.0
  0
ARC
  8
0
 62
0
 10
225.575
 20
-3.025
 30
0.0
 40
0.500000000000007
 50
-0.0
 51
90.0
  0
LINE
  8
0
 62
0
 10
226.075
 20
-3.025
 30
0.0
 11
226.075
 21
-16.025
 31
0.0
  0
ARC
  8
0
 62
0
 10
225.575
 20
-16.025
 30
0.0
 40
0.5
 50
-90.0
 51
-0.0
  0
LINE
  8
0
 62
0
 10
225.575
 20
-16.525
 30
0.0
 11
212.575
 21
-16.525
 31
0.0
  0
ARC
  8
0
 62
0
 10
212.575
 20
-16.025
 30
0.0
 40
0.500000000000007
 50
-180.0
 51
-90.0
  0
LINE
  8
0
 62
0
 10
212.075
 20
-16.025
 30
0.0
 11
212.075
 21
-3.025
 31
0.0
  0
ARC
  8
0
 62
0
 10
212.575
 20
-3.025
 30
0.0
 40
0.5
 50
90.0
 51
-180.0
  0
LINE
  8
0
 62
0
 10
212.575
 20
-2.525
 30
0.0
 11
225.575
 21
-2.525
 31
0.0
  0
ARC
  8
0
 62
0
 10
275.638
 20
-27.8375
 30
0.0
 40
0.499999999999998
 50
90.0
 51
-180.0
  0
LINE
  8
0
 62
0
 10
275.638
 20
-27.3375
 30
0.0
 11
281.638
 21
-27.3375
 31
0.0
  0
ARC
  8
0
 62
0
 10
281.638
 20
-27.8375
 30
0.0
 40
0.500000000000007
 50
-0.0
 51
90.0
  0
LINE
  8
0
 62
0
 10
282.138
 20
-27.8375
 30
0.0
 11
282.138
 21
-41.8375
 31
0.0
  0
ARC
  8
0
 62
0
 10
281.638
 20
-41.8375
 30
0.0
 40
0.499999999999998
 50
-90.0
 51
-0.0
  0
LINE
  8
0
 62
0
 10
281.638
 20
-42.3375
 30
0.0
 11
275.638
 21
-42.3375
 31
0.0
  0
ARC
  8
0
 62
0
 10
275.638
 20
-41.8375
 30
0.0
 40
0.500000000000007
 50
-180.0
 51
-90.0
  0
LINE
  8
0
 62
0
 10
275.138
 20
-41.8375
 30
0.0
 11
275.138
 21
-27.8375
 31
0.0
  0
ARC
  8
0
 62
0
 10
126.85
 20
-3.025
 30
0.0
 40
0.5
 50
90.0
 51
-180.0
  0
LINE
  8
0
 62
0
 10
126.85
 20
-2.525
 30
0.0
 11
139.85
 21
-2.525
 31
0.0
  0
ARC
  8
0
 62
0
 10
139.85
 20
-3.025
 30
0.0
 40
0.500000000000007
 50
-0.0
 51
90.0
  0
LINE
  8
0
 62
0
 10
140.35
 20
-3.025
 30
0.0
 11
140.35
 21
-16.025
 31
0.0
  0
ARC
  8
0
 62
0
 10
139.85
 20
-16.025
 30
0.0
 40
0.5
 50
-90.0
 51
-0.0
  0
LINE
  8
0
 62
0
 10
139.85
 20
-16.525
 30
0.0
 11
126.85
 21
-16.525
 31
0.0
  0
ARC
  8
0
 62
0
 10
126.85
 20
-16.025
 30
0.0
 40
0.500000000000007
 50
-180.0
 51
-90.0
  0
LINE
  8
0
 62
0
 10
126.35
 20
-16.025
 30
0.0
 11
126.35
 21
-3.025
 31
0.0
  0
ARC
  8
0
 62
0
 10
260.2
 20
-26.8375
 30
0.0
 40
0.499999999999998
 50
90.0
 51
-180.0
  0
LINE
  8
0
 62
0
 10
260.2
 20
-26.3375
 30
0.0
 11
273.2
 21
-26.3375
 31
0.0
  0
ARC
  8
0
 62
0
 10
273.2
 20
-26.8375
 30
0.0
 40
0.500000000000007
 50
-0.0
 51
90.0
  0
LINE
  8
0
 62
0
 10
273.7
 20
-26.8375
 30
0.0
 11
273.7
 21
-39.8375
 31
0.0
  0
ARC
  8
0
 62
0
 10
273.2
 20
-39.8375
 30
0.0
 40
0.500000000000003
 50
-90.0
 51
-0.0
  0
LINE
  8
0
 62
0
 10
273.2
 20
-40.3375
 30
0.0
 11
260.2
 21
-40.3375
 31
0.0
  0
ARC
  8
0
 62
0
 10
260.2
 20
-39.8375
 30
0.0
 40
0.500000000000007
 50
-180.0
 51
-90.0
  0
LINE
  8
0
 62
0
 10
259.7
 20
-39.8375
 30
0.0
 11
259.7
 21
-26.8375
 31
0.0
  0
ARC
  8
0
 62
0
 10
268.49425
 20
-84.9875
 30
0.0
 40
0.500000000000007
 50
90.0
 51
-180.0
  0
LINE
  8
0
 62
0
 10
268.49425
 20
-84.4875
 30
0.0
 11
274.49425
 21
-84.48750000000001
 31
0.0
  0
ARC
  8
0
 62
0
 10
274.49425
 20
-84.9875
 30
0.0
 40
0.500000000000007
 50
-0.0
 51
90.0
  0
LINE
  8
0
 62
0
 10
274.99425
 20
-84.9875
 30
0.0
 11
274.99425
 21
-98.9875
 31
0.0
  0
ARC
  8
0
 62
0
 10
274.49425
 20
-98.9875
 30
0.0
 40
0.500000000000007
 50
-90.0
 51
-0.0
  0
LINE
  8
0
 62
0
 10
274.49425
 20
-99.4875
 30
0.0
 11
268.49425
 21
-99.4875
 31
0.0
  0
ARC
  8
0
 62
0
 10
268.49425
 20
-98.9875
 30
0.0
 40
0.500000000000007
 50
-180.0
 51
-90.0
  0
LINE
  8
0
 62
0
 10
267.99425
 20
-98.9875
 30
0.0
 11
267.99425
 21
-84.9875
 31
0.0
  0
ARC
  8
0
 62
0
 10
293.5375
 20
-26.8375
 30
0.0
 40
0.499999999999998
 50
90.0
 51
-180.0
  0
LINE
  8
0
 62
0
 10
293.5375
 20
-26.3375
 30
0.0
 11
306.5375
 21
-26.3375
 31
0.0
  0
ARC
  8
0
 62
0
 10
306.5375
 20
-26.8375
 30
0.0
 40
0.500000000000007
 50
-0.0
 51
90.0
  0
LINE
  8
0
 62
0
 10
307.0375
 20
-26.8375
 30
0.0
 11
307.0375
 21
-39.8375
 31
0.0
  0
ARC
  8
0
 62
0
 10
306.5375
 20
-39.8375
 30
0.0
 40
0.500000000000003
 50
-90.0
 51
-0.0
  0
LINE
  8
0
 62
0
 10
306.5375
 20
-40.3375
 30
0.0
 11
293.5375
 21
-40.3375
 31
0.0
  0
ARC
  8
0
 62
0
 10
293.5375
 20
-39.8375
 30
0.0
 40
0.500000000000007
 50
-180.0
 51
-90.0
  0
LINE
  8
0
 62
0
 10
293.0375
 20
-39.8375
 30
0.0
 11
293.0375
 21
-26.8375
 31
0.0
  0
ARC
  8
0
 62
0
 10
277.9625
 20
-103.0375
 30
0.0
 40
0.500000000000007
 50
-0.0
 51
90.0
  0
LINE
  8
0
 62
0
 10
278.4625
 20
-103.0375
 30
0.0
 11
278.46250000000003
 21
-116.0375
 31
0.0
  0
ARC
  8
0
 62
0
 10
277.9625
 20
-116.0375
 30
0.0
 40
0.500000000000007
 50
-90.0
 51
-0.0
  0
LINE
  8
0
 62
0
 10
277.9625
 20
-116.5375
 30
0.0
 11
264.9625
 21
-116.5375
 31
0.0
  0
ARC
  8
0
 62
0
 10
264.9625
 20
-116.0375
 30
0.0
 40
0.500000000000007
 50
-180.0
 51
-90.0
  0
LINE
  8
0
 62
0
 10
264.4625
 20
-116.0375
 30
0.0
 11
264.4625
 21
-103.0375
 31
0.0
  0
ARC
  8
0
 62
0
 10
264.9625
 20
-103.0375
 30
0.0
 40
0.500000000000007
 50
90.0
 51
-180.0
  0
LINE
  8
0
 62
0
 10
264.9625
 20
-102.5375
 30
0.0
 11
277.9625
 21
-102.5375
 31
0.0
  0
ARC
  8
0
 62
0
 10
331.6375
 20
-103.0375
 30
0.0
 40
0.500000000000007
 50
90.0
 51
-180.0
  0
LINE
  8
0
 62
0
 10
331.6375
 20
-102.5375
 30
0.0
 11
344.6375
 21
-102.5375
 31
0.0
  0
ARC
  8
0
 62
0
 10
344.6375
 20
-103.0375
 30
0.0
 40
0.499999999999972
 50
-0.0
 51
90.0
  0
LINE
  8
0
 62
0
 10
345.1375
 20
-103.0375
 30
0.0
 11
345.1375
 21
-116.0375
 31
0.0
  0
ARC
  8
0
 62
0
 10
344.6375
 20
-116.0375
 30
0.0
 40
0.500000000000007
 50
-90.0
 51
-0.0
  0
LINE
  8
0
 62
0
 10
344.6375
 20
-116.5375
 30
0.0
 11
331.6375
 21
-116.5375
 31
0.0
  0
ARC
  8
0
 62
0
 10
331.6375
 20
-116.0375
 30
0.0
 40
0.499999999999972
 50
-180.0
 51
-90.0
  0
LINE
  8
0
 62
0
 10
331.1375
 20
-116.0375
 30
0.0
 11
331.1375
 21
-103.0375
 31
0.0
  0
ARC
  8
0
 62
0
 10
217.3375
 20
-103.0375
 30
0.0
 40
0.500000000000007
 50
90.0
 51
-180.0
  0
LINE
  8
0
 62
0
 10
217.3375
 20
-102.5375
 30
0.0
 11
230.3375
 21
-102.5375
 31
0.0
  0
ARC
  8
0
 62
0
 10
230.3375
 20
-103.0375
 30
0.0
 40
0.500000000000007
 50
-0.0
 51
90.0
  0
LINE
  8
0
 62
0
 10
230.8375
 20
-103.0375
 30
0.0
 11
230.8375
 21
-116.0375
 31
0.0
  0
ARC
  8
0
 62
0
 10
230.3375
 20
-116.0375
 30
0.0
 40
0.500000000000007
 50
-90.0
 51
-0.0
  0
LINE
  8
0
 62
0
 10
230.3375
 20
-116.5375
 30
0.0
 11
217.3375
 21
-116.5375
 31
0.0
  0
ARC
  8
0
 62
0
 10
217.3375
 20
-116.0375
 30
0.0
 40
0.500000000000007
 50
-180.0
 51
-90.0
  0
LINE
  8
0
 62
0
 10
216.8375
 20
-116.0375
 30
0.0
 11
216.8375
 21
-103.0375
 31
0.0
  0
LINE
  8
0
 62
0
 10
59.675
 20
-16.025
 30
0.0
 11
59.675
 21
-3.025
 31
0.0
  0
ARC
  8
0
 62
0
 10
60.175
 20
-3.025
 30
0.0
 40
0.5
 50
90.0
 51
-180.0
  0
LINE
  8
0
 62
0
 10
60.175
 20
-2.525
 30
0.0
 11
73.175
 21
-2.525
 31
0.0
  0
ARC
  8
0
 62
0
 10
73.175
 20
-3.025
 30
0.0
 40
0.499999999999998
 50
-0.0
 51
90.0
  0
LINE
  8
0
 62
0
 10
73.675
 20
-3.025
 30
0.0
 11
73.675
 21
-16.025
 31
0.0
  0
ARC
  8
0
 62
0
 10
73.175
 20
-16.025
 30
0.0
 40
0.5
 50
-90.0
 51
-0.0
  0
LINE
  8
0
 62
0
 10
73.175
 20
-16.525000000000002
 30
0.0
 11
60.175
 21
-16.525
 31
0.0
  0
ARC
  8
0
 62
0
 10
60.175
 20
-16.025
 30
0.0
 40
0.499999999999998
 50
-180.0
 51
-90.0
  0
ARC
  8
0
 62
0
 10
269.725
 20
-3.025
 30
0.0
 40
0.5
 50
90.0
 51
-180.0
  0
LINE
  8
0
 62
0
 10
269.725
 20
-2.525
 30
0.0
 11
282.725
 21
-2.525
 31
0.0
  0
ARC
  8
0
 62
0
 10
282.725
 20
-3.025
 30
0.0
 40
0.500000000000007
 50
-0.0
 51
90.0
  0
LINE
  8
0
 62
0
 10
283.225
 20
-3.025
 30
0.0
 11
283.225
 21
-16.025
 31
0.0
  0
ARC
  8
0
 62
0
 10
282.725
 20
-16.025
 30
0.0
 40
0.5
 50
-90.0
 51
-0.0
  0
LINE
  8
0
 62
0
 10
282.725
 20
-16.525
 30
0.0
 11
269.725
 21
-16.525
 31
0.0
  0
ARC
  8
0
 62
0
 10
269.725
 20
-16.025
 30
0.0
 40
0.500000000000007
 50
-180.0
 51
-90.0
  0
LINE
  8
0
 62
0
 10
269.225
 20
-16.025
 30
0.0
 11
269.225
 21
-3.025
 31
0.0
  0
ARC
  8
0
 62
0
 10
7.7875
 20
-45.8875
 30
0.0
 40
0.499999999999998
 50
90.0
 51
-180.0
  0
LINE
  8
0
 62
0
 10
7.7875
 20
-45.3875
 30
0.0
 11
20.7875
 21
-45.3875
 31
0.0
  0
ARC
  8
0
 62
0
 10
20.7875
 20
-45.8875
 30
0.0
 40
0.499999999999998
 50
-0.0
 51
90.0
  0
LINE
  8
0
 62
0
 10
21.2875
 20
-45.8875
 30
0.0
 11
21.2875
 21
-58.8875
 31
0.0
  0
ARC
  8
0
 62
0
 10
20.7875
 20
-58.8875
 30
0.0
 40
0.499999999999998
 50
-90.0
 51
-0.0
  0
LINE
  8
0
 62
0
 10
20.7875
 20
-59.3875
 30
0.0
 11
7.7875
 21
-59.3875
 31
0.0
  0
ARC
  8
0
 62
0
 10
7.7875
 20
-58.8875
 30
0.0
 40
0.5
 50
-180.0
 51
-90.0
  0
LINE
  8
0
 62
0
 10
7.2875
 20
-58.8875
 30
0.0
 11
7.2875
 21
-45.8875
 31
0.0
  0
ARC
  8
0
 62
0
 10
3.025
 20
-26.8375
 30
0.0
 40
0.499999999999998
 50
90.0
 51
-180.0
  0
LINE
  8
0
 62
0
 10
3.025
 20
-26.3375
 30
0.0
 11
16.025
 21
-26.3375
 31
0.0
  0
ARC
  8
0
 62
0
 10
16.025
 20
-26.8375
 30
0.0
 40
0.5
 50
-0.0
 51
90.0
  0
LINE
  8
0
 62
0
 10
16.525
 20
-26.8375
 30
0.0
 11
16.525
 21
-39.8375
 31
0.0
  0
ARC
  8
0
 62
0
 10
16.025
 20
-39.8375
 30
0.0
 40
0.500000000000003
 50
-90.0
 51
-0.0
  0
LINE
  8
0
 62
0
 10
16.025
 20
-40.3375
 30
0.0
 11
3.025
 21
-40.3375
 31
0.0
  0
ARC
  8
0
 62
0
 10
3.025
 20
-39.8375
 30
0.0
 40
0.5
 50
-180.0
 51
-90.0
  0
LINE
  8
0
 62
0
 10
2.525
 20
-39.8375
 30
0.0
 11
2.525
 21
-26.8375
 31
0.0
  0
ARC
  8
0
 62
0
 10
253.05625
 20
-83.9875
 30
0.0
 40
0.500000000000007
 50
90.0
 51
-180.0
  0
LINE
  8
0
 62
0
 10
253.05625
 20
-83.4875
 30
0.0
 11
266.05625
 21
-83.4875
 31
0.0
  0
ARC
  8
0
 62
0
 10
266.05625
 20
-83.9875
 30
0.0
 40
0.500000000000007
 50
-0.0
 51
90.0
  0
LINE
  8
0
 62
0
 10
266.55625
 20
-83.9875
 30
0.0
 11
266.55625
 21
-96.9875
 31
0.0
  0
ARC
  8
0
 62
0
 10
266.05625
 20
-96.9875
 30
0.0
 40
0.500000000000007
 50
-90.0
 51
-0.0
  0
LINE
  8
0
 62
0
 10
266.05625
 20
-97.4875
 30
0.0
 11
253.05625
 21
-97.4875
 31
0.0
  0
ARC
  8
0
 62
0
 10
253.05625
 20
-96.9875
 30
0.0
 40
0.500000000000007
 50
-180.0
 51
-90.0
  0
LINE
  8
0
 62
0
 10
252.55625
 20
-96.9875
 30
0.0
 11
252.55625
 21
-83.9875
 31
0.0
  0
ARC
  8
0
 62
0
 10
264.9625
 20
-45.8875
 30
0.0
 40
0.499999999999998
 50
90.0
 51
-180.0
  0
LINE
  8
0
 62
0
 10
264.9625
 20
-45.3875
 30
0.0
 11
277.9625
 21
-45.3875
 31
0.0
  0
ARC
  8
0
 62
0
 10
277.9625
 20
-45.8875
 30
0.0
 40
0.500000000000007
 50
-0.0
 51
90.0
  0
LINE
  8
0
 62
0
 10
278.4625
 20
-45.8875
 30
0.0
 11
278.4625
 21
-58.8875
 31
0.0
  0
ARC
  8
0
 62
0
 10
277.9625
 20
-58.8875
 30
0.0
 40
0.499999999999998
 50
-90.0
 51
-0.0
  0
LINE
  8
0
 62
0
 10
277.9625
 20
-59.3875
 30
0.0
 11
264.9625
 21
-59.3875
 31
0.0
  0
ARC
  8
0
 62
0
 10
264.9625
 20
-58.8875
 30
0.0
 40
0.500000000000007
 50
-180.0
 51
-90.0
  0
LINE
  8
0
 62
0
 10
264.4625
 20
-58.8875
 30
0.0
 11
264.4625
 21
-45.8875
 31
0.0
  0
ARC
  8
0
 62
0
 10
331.6375
 20
-45.8875
 30
0.0
 40
0.499999999999998
 50
90.0
 51
-180.0
  0
LINE
  8
0
 62
0
 10
331.6375
 20
-45.3875
 30
0.0
 11
344.6375
 21
-45.3875
 31
0.0
  0
ARC
  8
0
 62
0
 10
344.6375
 20
-45.8875
 30
0.0
 40
0.499999999999972
 50
-0.0
 51
90.0
  0
LINE
  8
0
 62
0
 10
345.1375
 20
-45.8875
 30
0.0
 11
345.13750000000005
 21
-58.8875
 31
0.0
  0
ARC
  8
0
 62
0
 10
344.6375
 20
-58.8875
 30
0.0
 40
0.499999999999998
 50
-90.0
 51
-0.0
  0
LINE
  8
0
 62
0
 10
344.6375
 20
-59.3875
 30
0.0
 11
331.6375
 21
-59.3875
 31
0.0
  0
ARC
  8
0
 62
0
 10
331.6375
 20
-58.8875
 30
0.0
 40
0.499999999999972
 50
-180.0
 51
-90.0
  0
LINE
  8
0
 62
0
 10
331.1375
 20
-58.8875
 30
0.0
 11
331.1375
 21
-45.8875
 31
0.0
  0
ARC
  8
0
 62
0
 10
7.7875
 20
-103.0375
 30
0.0
 40
0.500000000000007
 50
90.0
 51
-180.0
  0
LINE
  8
0
 62
0
 10
7.7875
 20
-102.5375
 30
0.0
 11
20.7875
 21
-102.5375
 31
0.0
  0
ARC
  8
0
 62
0
 10
20.7875
 20
-103.0375
 30
0.0
 40
0.499999999999998
 50
-0.0
 51
90.0
  0
LINE
  8
0
 62
0
 10
21.2875
 20
-103.0375
 30
0.0
 11
21.2875
 21
-116.0375
 31
0.0
  0
ARC
  8
0
 62
0
 10
20.7875
 20
-116.0375
 30
0.0
 40
0.500000000000007
 50
-90.0
 51
-0.0
  0
LINE
  8
0
 62
0
 10
20.7875
 20
-116.5375
 30
0.0
 11
7.7875
 21
-116.5375
 31
0.0
  0
ARC
  8
0
 62
0
 10
7.7875
 20
-116.0375
 30
0.0
 40
0.5
 50
-180.0
 51
-90.0
  0
LINE
  8
0
 62
0
 10
7.2875
 20
-116.0375
 30
0.0
 11
7.2875
 21
-103.0375
 31
0.0
  0
ARC
  8
0
 62
0
 10
325.5875
 20
-83.9875
 30
0.0
 40
0.499999999999972
 50
-0.0
 51
90.0
  0
LINE
  8
0
 62
0
 10
326.0875
 20
-83.9875
 30
0.0
 11
326.0875
 21
-96.9875
 31
0.0
  0
ARC
  8
0
 62
0
 10
325.5875
 20
-96.9875
 30
0.0
 40
0.500000000000007
 50
-90.0
 51
-0.0
  0
LINE
  8
0
 62
0
 10
325.5875
 20
-97.4875
 30
0.0
 11
312.5875
 21
-97.4875
 31
0.0
  0
ARC
  8
0
 62
0
 10
312.5875
 20
-96.9875
 30
0.0
 40
0.500000000000007
 50
-180.0
 51
-90.0
  0
LINE
  8
0
 62
0
 10
312.0875
 20
-96.9875
 30
0.0
 11
312.0875
 21
-83.9875
 31
0.0
  0
ARC
  8
0
 62
0
 10
312.5875
 20
-83.9875
 30
0.0
 40
0.500000000000007
 50
90.0
 51
-180.0
  0
LINE
  8
0
 62
0
 10
312.5875
 20
-83.4875
 30
0.0
 11
325.5875
 21
-83.48749999999998
 31
0.0
  0
ARC
  8
0
 62
0
 10
312.5875
 20
-26.8375
 30
0.0
 40
0.499999999999998
 50
90.0
 51
-180.0
  0
LINE
  8
0
 62
0
 10
312.5875
 20
-26.3375
 30
0.0
 11
325.5875
 21
-26.3375
 31
0.0
  0
ARC
  8
0
 62
0
 10
325.5875
 20
-26.8375
 30
0.0
 40
0.499999999999972
 50
-0.0
 51
90.0
  0
LINE
  8
0
 62
0
 10
326.0875
 20
-26.8375
 30
0.0
 11
326.0874999999999
 21
-39.8375
 31
0.0
  0
ARC
  8
0
 62
0
 10
325.5875
 20
-39.8375
 30
0.0
 40
0.500000000000003
 50
-90.0
 51
-0.0
  0
LINE
  8
0
 62
0
 10
325.5875
 20
-40.3375
 30
0.0
 11
312.5875
 21
-40.3375
 31
0.0
  0
ARC
  8
0
 62
0
 10
312.5875
 20
-39.8375
 30
0.0
 40
0.500000000000007
 50
-180.0
 51
-90.0
  0
LINE
  8
0
 62
0
 10
312.0875
 20
-39.8375
 30
0.0
 11
312.0875
 21
-26.8375
 31
0.0
  0
ARC
  8
0
 62
0
 10
257.81875
 20
-64.9375
 30
0.0
 40
0.499999999999998
 50
90.0
 51
-180.0
  0
LINE
  8
0
 62
0
 10
257.81875
 20
-64.4375
 30
0.0
 11
270.81875
 21
-64.4375
 31
0.0
  0
ARC
  8
0
 62
0
 10
270.81875
 20
-64.9375
 30
0.0
 40
0.500000000000007
 50
-0.0
 51
90.0
  0
LINE
  8
0
 62
0
 10
271.31875
 20
-64.9375
 30
0.0
 11
271.31875
 21
-77.9375
 31
0.0
  0
ARC
  8
0
 62
0
 10
270.81875
 20
-77.9375
 30
0.0
 40
0.499999999999998
 50
-90.0
 51
-0.0
  0
LINE
  8
0
 62
0
 10
270.81875
 20
-78.4375
 30
0.0
 11
257.81875
 21
-78.4375
 31
0.0
  0
ARC
  8
0
 62
0
 10
257.81875
 20
-77.9375
 30
0.0
 40
0.500000000000007
 50
-180.0
 51
-90.0
  0
LINE
  8
0
 62
0
 10
257.31875
 20
-77.9375
 30
0.0
 11
257.31875
 21
-64.9375
 31
0.0
  0
ARC
  8
0
 62
0
 10
331.6375
 20
-26.8375
 30
0.0
 40
0.499999999999998
 50
90.0
 51
-180.0
  0
LINE
  8
0
 62
0
 10
331.6375
 20
-26.3375
 30
0.0
 11
344.6375
 21
-26.3375
 31
0.0
  0
ARC
  8
0
 62
0
 10
344.6375
 20
-26.8375
 30
0.0
 40
0.499999999999972
 50
-0.0
 51
90.0
  0
LINE
  8
0
 62
0
 10
345.1375
 20
-26.8375
 30
0.0
 11
345.1375
 21
-39.8375
 31
0.0
  0
ARC
  8
0
 62
0
 10
344.6375
 20
-39.8375
 30
0.0
 40
0.500000000000003
 50
-90.0
 51
-0.0
  0
LINE
  8
0
 62
0
 10
344.6375
 20
-40.3375
 30
0.0
 11
331.6375
 21
-40.3375
 31
0.0
  0
ARC
  8
0
 62
0
 10
331.6375
 20
-39.8375
 30
0.0
 40
0.499999999999972
 50
-180.0
 51
-90.0
  0
LINE
  8
0
 62
0
 10
331.1375
 20
-39.8375
 30
0.0
 11
331.1375
 21
-26.8375
 31
0.0
  0
ARC
  8
0
 62
0
 10
6.49325
 20
-84.9875
 30
0.0
 40
0.500000000000007
 50
90.0
 51
-180.0
  0
LINE
  8
0
 62
0
 10
6.49325
 20
-84.4875
 30
0.0
 11
12.49325
 21
-84.48749999999998
 31
0.0
  0
ARC
  8
0
 62
0
 10
12.49325
 20
-84.9875
 30
0.0
 40
0.5
 50
-0.0
 51
90.0
  0
LINE
  8
0
 62
0
 10
12.99325
 20
-84.9875
 30
0.0
 11
12.99325
 21
-98.9875
 31
0.0
  0
ARC
  8
0
 62
0
 10
12.49325
 20
-98.9875
 30
0.0
 40
0.500000000000007
 50
-90.0
 51
-0.0
  0
LINE
  8
0
 62
0
 10
12.49325
 20
-99.4875
 30
0.0
 11
6.49325
 21
-99.4875
 31
0.0
  0
ARC
  8
0
 62
0
 10
6.49325
 20
-98.9875
 30
0.0
 40
0.5
 50
-180.0
 51
-90.0
  0
LINE
  8
0
 62
0
 10
5.99325
 20
-98.9875
 30
0.0
 11
5.99325
 21
-84.9875
 31
0.0
  0
LINE
  8
0
 62
0
 10
248.88074999999998
 20
-76.9375
 30
0.0
 11
248.88075
 21
-62.9375
 31
0.0
  0
ARC
  8
0
 62
0
 10
249.38075
 20
-62.9375
 30
0.0
 40
0.499999999999998
 50
90.0
 51
-180.0
  0
LINE
  8
0
 62
0
 10
249.38075
 20
-62.4375
 30
0.0
 11
255.38075
 21
-62.4375
 31
0.0
  0
ARC
  8
0
 62
0
 10
255.38075
 20
-62.9375
 30
0.0
 40
0.500000000000007
 50
-0.0
 51
90.0
  0
LINE
  8
0
 62
0
 10
255.88075
 20
-62.9375
 30
0.0
 11
255.88075
 21
-76.9375
 31
0.0
  0
ARC
  8
0
 62
0
 10
255.38075
 20
-76.9375000000001
 30
0.0
 40
0.499999999999963
 50
-90.00000000000325
 51
0.0
  0
LINE
  8
0
 62
0
 10
249.38075
 20
-77.4375
 30
0.0
 11
255.38075
 21
-77.4375
 31
0.0
  0
ARC
  8
0
 62
0
 10
249.38075
 20
-76.9375
 30
0.0
 40
0.500000000000043
 50
-180.0
 51
-90.0
  0
ARC
  8
0
 62
0
 10
41.125
 20
-3.025
 30
0.0
 40
0.5
 50
90.0
 51
-180.0
  0
LINE
  8
0
 62
0
 10
41.125
 20
-2.525
 30
0.0
 11
54.125
 21
-2.525
 31
0.0
  0
ARC
  8
0
 62
0
 10
54.125
 20
-3.025
 30
0.0
 40
0.499999999999998
 50
-0.0
 51
90.0
  0
LINE
  8
0
 62
0
 10
54.625
 20
-3.025
 30
0.0
 11
54.625
 21
-16.025
 31
0.0
  0
ARC
  8
0
 62
0
 10
54.125
 20
-16.025
 30
0.0
 40
0.5
 50
-90.0
 51
-0.0
  0
LINE
  8
0
 62
0
 10
54.125
 20
-16.525
 30
0.0
 11
41.125
 21
-16.525
 31
0.0
  0
ARC
  8
0
 62
0
 10
41.125
 20
-16.025
 30
0.0
 40
0.499999999999998
 50
-180.0
 51
-90.0
  0
LINE
  8
0
 62
0
 10
40.625
 20
-16.025
 30
0.0
 11
40.625
 21
-3.025
 31
0.0
  0
ARC
  8
0
 62
0
 10
244.61825
 20
-84.9875
 30
0.0
 40
0.500000000000007
 50
90.0
 51
-180.0
  0
LINE
  8
0
 62
0
 10
244.61825
 20
-84.4875
 30
0.0
 11
250.61825
 21
-84.4875
 31
0.0
  0
ARC
  8
0
 62
0
 10
250.61825
 20
-84.9875
 30
0.0
 40
0.500000000000007
 50
-0.0
 51
90.0
  0
LINE
  8
0
 62
0
 10
251.11825
 20
-84.9875
 30
0.0
 11
251.11825
 21
-98.9875
 31
0.0
  0
ARC
  8
0
 62
0
 10
250.61825
 20
-98.9875
 30
0.0
 40
0.500000000000007
 50
-90.0
 51
-0.0
  0
LINE
  8
0
 62
0
 10
250.61825
 20
-99.4875
 30
0.0
 11
244.61825
 21
-99.4875
 31
0.0
  0
ARC
  8
0
 62
0
 10
244.61825
 20
-98.9875
 30
0.0
 40
0.500000000000007
 50
-180.0
 51
-90.0
  0
LINE
  8
0
 62
0
 10
244.11825
 20
-98.9875
 30
0.0
 11
244.11825
 21
-84.9875
 31
0.0
  0
ARC
  8
0
 62
0
 10
14.93125
 20
-83.9875
 30
0.0
 40
0.500000000000007
 50
90.0
 51
-180.0
  0
LINE
  8
0
 62
0
 10
14.93125
 20
-83.4875
 30
0.0
 11
27.93125
 21
-83.48750000000001
 31
0.0
  0
ARC
  8
0
 62
0
 10
27.93125
 20
-83.9875
 30
0.0
 40
0.499999999999998
 50
-0.0
 51
90.0
  0
LINE
  8
0
 62
0
 10
28.43125
 20
-83.9875
 30
0.0
 11
28.43125
 21
-96.9875
 31
0.0
  0
ARC
  8
0
 62
0
 10
27.93125
 20
-96.9875
 30
0.0
 40
0.500000000000007
 50
-90.0
 51
-0.0
  0
LINE
  8
0
 62
0
 10
27.93125
 20
-97.4875
 30
0.0
 11
14.93125
 21
-97.4875
 31
0.0
  0
ARC
  8
0
 62
0
 10
14.93125
 20
-96.9875
 30
0.0
 40
0.5
 50
-180.0
 51
-90.0
  0
LINE
  8
0
 62
0
 10
14.43125
 20
-96.9875
 30
0.0
 11
14.43125
 21
-83.9875
 31
0.0
  0
ARC
  8
0
 62
0
 10
30.36925
 20
-84.9875
 30
0.0
 40
0.500000000000007
 50
90.0
 51
-180.0
  0
LINE
  8
0
 62
0
 10
30.36925
 20
-84.4875
 30
0.0
 11
36.36925
 21
-84.48750000000001
 31
0.0
  0
ARC
  8
0
 62
0
 10
36.36925
 20
-84.9875
 30
0.0
 40
0.499999999999998
 50
-0.0
 51
90.0
  0
LINE
  8
0
 62
0
 10
36.86925
 20
-84.9875
 30
0.0
 11
36.869249999999994
 21
-98.9875
 31
0.0
  0
ARC
  8
0
 62
0
 10
36.36925
 20
-98.9875
 30
0.0
 40
0.500000000000007
 50
-90.0
 51
-0.0
  0
LINE
  8
0
 62
0
 10
36.36925
 20
-99.4875
 30
0.0
 11
30.36925
 21
-99.4875
 31
0.0
  0
ARC
  8
0
 62
0
 10
30.36925
 20
-98.9875
 30
0.0
 40
0.499999999999998
 50
-180.0
 51
-90.0
  0
LINE
  8
0
 62
0
 10
29.86925
 20
-98.9875
 30
0.0
 11
29.86925
 21
-84.9875
 31
0.0
  0
LINE
  8
0
 62
0
 10
2.525
 20
-16.025
 30
0.0
 11
2.525
 21
-3.025
 31
0.0
  0
ARC
  8
0
 62
0
 10
3.025
 20
-3.025
 30
0.0
 40
0.5
 50
90.0
 51
-180.0
  0
LINE
  8
0
 62
0
 10
3.025
 20
-2.525
 30
0.0
 11
16.025
 21
-2.525
 31
0.0
  0
ARC
  8
0
 62
0
 10
16.025
 20
-3.025
 30
0.0
 40
0.5
 50
-0.0
 51
90.0
  0
LINE
  8
0
 62
0
 10
16.525
 20
-3.025
 30
0.0
 11
16.525
 21
-16.025
 31
0.0
  0
ARC
  8
0
 62
0
 10
16.025
 20
-16.025
 30
0.0
 40
0.5
 50
-90.0
 51
-0.0
  0
LINE
  8
0
 62
0
 10
16.025
 20
-16.525
 30
0.0
 11
3.025
 21
-16.525
 31
0.0
  0
ARC
  8
0
 62
0
 10
3.025
 20
-16.025
 30
0.0
 40
0.5
 50
-180.0
 51
-90.0
  0
ARC
  8
0
 62
0
 10
251.762
 20
-27.8375
 30
0.0
 40
0.499999999999998
 50
90.0
 51
-180.0
  0
LINE
  8
0
 62
0
 10
251.762
 20
-27.3375
 30
0.0
 11
257.762
 21
-27.3375
 31
0.0
  0
ARC
  8
0
 62
0
 10
257.762
 20
-27.8375
 30
0.0
 40
0.500000000000007
 50
-0.0
 51
90.0
  0
LINE
  8
0
 62
0
 10
258.262
 20
-27.8375
 30
0.0
 11
258.26200000000006
 21
-41.8375
 31
0.0
  0
ARC
  8
0
 62
0
 10
257.762
 20
-41.8375
 30
0.0
 40
0.499999999999998
 50
-90.0
 51
-0.0
  0
LINE
  8
0
 62
0
 10
257.762
 20
-42.3375
 30
0.0
 11
251.762
 21
-42.3375
 31
0.0
  0
ARC
  8
0
 62
0
 10
251.762
 20
-41.8375
 30
0.0
 40
0.500000000000007
 50
-180.0
 51
-90.0
  0
LINE
  8
0
 62
0
 10
251.262
 20
-41.8375
 30
0.0
 11
251.262
 21
-27.8375
 31
0.0
  0
ARC
  8
0
 62
0
 10
293.5375
 20
-45.8875
 30
0.0
 40
0.499999999999998
 50
90.0
 51
-180.0
  0
LINE
  8
0
 62
0
 10
293.5375
 20
-45.3875
 30
0.0
 11
306.5375
 21
-45.3875
 31
0.0
  0
ARC
  8
0
 62
0
 10
306.5375
 20
-45.8875
 30
0.0
 40
0.500000000000007
 50
-0.0
 51
90.0
  0
LINE
  8
0
 62
0
 10
307.0375
 20
-45.8875
 30
0.0
 11
307.0375
 21
-58.8875
 31
0.0
  0
ARC
  8
0
 62
0
 10
306.5375
 20
-58.8875
 30
0.0
 40
0.499999999999998
 50
-90.0
 51
-0.0
  0
LINE
  8
0
 62
0
 10
306.5375
 20
-59.3875
 30
0.0
 11
293.5375
 21
-59.3875
 31
0.0
  0
ARC
  8
0
 62
0
 10
293.5375
 20
-58.8875
 30
0.0
 40
0.500000000000007
 50
-180.0
 51
-90.0
  0
LINE
  8
0
 62
0
 10
293.0375
 20
-58.8875
 30
0.0
 11
293.0375
 21
-45.8875
 31
0.0
  0
LINE
  8
0
 62
0
 10
272.75675
 20
-76.9375
 30
0.0
 11
272.75675
 21
-62.9375
 31
0.0
  0
ARC
  8
0
 62
0
 10
273.25675
 20
-62.9375
 30
0.0
 40
0.500000000000016
 50
90.0
 51
-180.0
  0
LINE
  8
0
 62
0
 10
273.25675
 20
-62.4375
 30
0.0
 11
279.25675
 21
-62.4375
 31
0.0
  0
ARC
  8
0
 62
0
 10
279.25675
 20
-62.9375
 30
0.0
 40
0.500000000000007
 50
-0.0
 51
90.0
  0
LINE
  8
0
 62
0
 10
279.75675
 20
-62.9375
 30
0.0
 11
279.75675
 21
-76.9375
 31
0.0
  0
ARC
  8
0
 62
0
 10
279.25675
 20
-76.9375000000001
 30
0.0
 40
0.499999999999963
 50
-90.00000000000651
 51
0.0
  0
LINE
  8
0
 62
0
 10
273.25675
 20
-77.4375
 30
0.0
 11
279.25675
 21
-77.4375
 31
0.0
  0
ARC
  8
0
 62
0
 10
273.25675
 20
-76.9375
 30
0.0
 40
0.500000000000078
 50
-180.0
 51
-90.0
  0
ARC
  8
0
 62
0
 10
145.9
 20
-3.025
 30
0.0
 40
0.5
 50
90.0
 51
-180.0
  0
LINE
  8
0
 62
0
 10
145.9
 20
-2.525
 30
0.0
 11
158.9
 21
-2.525
 31
0.0
  0
ARC
  8
0
 62
0
 10
158.9
 20
-3.025
 30
0.0
 40
0.500000000000007
 50
-0.0
 51
90.0
  0
LINE
  8
0
 62
0
 10
159.4
 20
-3.025
 30
0.0
 11
159.4
 21
-16.025
 31
0.0
  0
ARC
  8
0
 62
0
 10
158.9
 20
-16.025
 30
0.0
 40
0.5
 50
-90.0
 51
-0.0
  0
LINE
  8
0
 62
0
 10
158.9
 20
-16.525000000000002
 30
0.0
 11
145.9
 21
-16.525
 31
0.0
  0
ARC
  8
0
 62
0
 10
145.9
 20
-16.025
 30
0.0
 40
0.500000000000007
 50
-180.0
 51
-90.0
  0
LINE
  8
0
 62
0
 10
145.4
 20
-16.025
 30
0.0
 11
145.4
 21
-3.025
 31
0.0
  0
ARC
  8
0
 62
0
 10
293.5375
 20
-103.0375
 30
0.0
 40
0.500000000000007
 50
90.0
 51
-180.0
  0
LINE
  8
0
 62
0
 10
293.5375
 20
-102.5375
 30
0.0
 11
306.5375
 21
-102.5375
 31
0.0
  0
ARC
  8
0
 62
0
 10
306.5375
 20
-103.0375
 30
0.0
 40
0.500000000000007
 50
-0.0
 51
90.0
  0
LINE
  8
0
 62
0
 10
307.0375
 20
-103.0375
 30
0.0
 11
307.0375
 21
-116.0375
 31
0.0
  0
ARC
  8
0
 62
0
 10
306.5375
 20
-116.0375
 30
0.0
 40
0.500000000000007
 50
-90.0
 51
-0.0
  0
LINE
  8
0
 62
0
 10
306.5375
 20
-116.5375
 30
0.0
 11
293.5375
 21
-116.5375
 31
0.0
  0
ARC
  8
0
 62
0
 10
293.5375
 20
-116.0375
 30
0.0
 40
0.500000000000007
 50
-180.0
 51
-90.0
  0
LINE
  8
0
 62
0
 10
293.0375
 20
-116.0375
 30
0.0
 11
293.0375
 21
-103.0375
 31
0.0
  0
LINE
  8
0
 62
0
 10
54.9125
 20
-116.0375
 30
0.0
 11
54.9125
 21
-103.0375
 31
0.0
  0
ARC
  8
0
 62
0
 10
55.4125
 20
-103.0375
 30
0.0
 40
0.500000000000007
 50
90.0
 51
-180.0
  0
LINE
  8
0
 62
0
 10
55.4125
 20
-102.5375
 30
0.0
 11
68.4125
 21
-102.5375
 31
0.0
  0
ARC
  8
0
 62
0
 10
68.4125
 20
-103.0375
 30
0.0
 40
0.499999999999998
 50
-0.0
 51
90.0
  0
LINE
  8
0
 62
0
 10
68.9125
 20
-103.0375
 30
0.0
 11
68.9125
 21
-116.0375
 31
0.0
  0
ARC
  8
0
 62
0
 10
68.4125
 20
-116.0375
 30
0.0
 40
0.500000000000007
 50
-90.0
 51
-0.0
  0
LINE
  8
0
 62
0
 10
68.4125
 20
-116.5375
 30
0.0
 11
55.4125
 21
-116.5375
 31
0.0
  0
ARC
  8
0
 62
0
 10
55.4125
 20
-116.0375
 30
0.0
 40
0.499999999999998
 50
-180.0
 51
-90.0
  0
ARC
  8
0
 62
0
 10
197.0
 20
-3.025
 30
0.0
 40
0.500000000000007
 50
-0.0
 51
90.0
  0
LINE
  8
0
 62
0
 10
197.5
 20
-3.025
 30
0.0
 11
197.49999999999997
 21
-16.025
 31
0.0
  0
ARC
  8
0
 62
0
 10
197.0
 20
-16.025
 30
0.0
 40
0.5
 50
-90.0
 51
-0.0
  0
LINE
  8
0
 62
0
 10
197.0
 20
-16.525
 30
0.0
 11
184.0
 21
-16.525
 31
0.0
  0
ARC
  8
0
 62
0
 10
184.0
 20
-16.025
 30
0.0
 40
0.500000000000007
 50
-180.0
 51
-90.0
  0
LINE
  8
0
 62
0
 10
183.5
 20
-16.025
 30
0.0
 11
183.5
 21
-3.025
 31
0.0
  0
ARC
  8
0
 62
0
 10
184.0
 20
-3.025
 30
0.0
 40
0.5
 50
90.0
 51
-180.0
  0
LINE
  8
0
 62
0
 10
184.0
 20
-2.525
 30
0.0
 11
197.0
 21
-2.525
 31
0.0
  0
ARC
  8
0
 62
0
 10
312.5875
 20
-45.8875
 30
0.0
 40
0.499999999999998
 50
90.0
 51
-180.0
  0
LINE
  8
0
 62
0
 10
312.5875
 20
-45.3875
 30
0.0
 11
325.5875
 21
-45.3875
 31
0.0
  0
ARC
  8
0
 62
0
 10
325.5875
 20
-45.8875
 30
0.0
 40
0.499999999999972
 50
-0.0
 51
90.0
  0
LINE
  8
0
 62
0
 10
326.0875
 20
-45.8875
 30
0.0
 11
326.0874999999999
 21
-58.8875
 31
0.0
  0
ARC
  8
0
 62
0
 10
325.5875
 20
-58.8875
 30
0.0
 40
0.499999999999998
 50
-90.0
 51
-0.0
  0
LINE
  8
0
 62
0
 10
325.5875
 20
-59.3875
 30
0.0
 11
312.5875
 21
-59.3875
 31
0.0
  0
ARC
  8
0
 62
0
 10
312.5875
 20
-58.8875
 30
0.0
 40
0.500000000000007
 50
-180.0
 51
-90.0
  0
LINE
  8
0
 62
0
 10
312.0875
 20
-58.8875
 30
0.0
 11
312.0875
 21
-45.8875
 31
0.0
  0
ARC
  8
0
 62
0
 10
344.6375
 20
-3.025
 30
0.0
 40
0.499999999999972
 50
-0.0
 51
90.0
  0
LINE
  8
0
 62
0
 10
345.1375
 20
-3.025
 30
0.0
 11
345.1375
 21
-16.025
 31
0.0
  0
ARC
  8
0
 62
0
 10
344.6375
 20
-16.025
 30
0.0
 40
0.5
 50
-90.0
 51
-0.0
  0
LINE
  8
0
 62
0
 10
344.6375
 20
-16.524999999999995
 30
0.0
 11
331.6375
 21
-16.525
 31
0.0
  0
ARC
  8
0
 62
0
 10
331.6375
 20
-16.025
 30
0.0
 40
0.499999999999972
 50
-180.0
 51
-90.0
  0
LINE
  8
0
 62
0
 10
331.1375
 20
-16.025
 30
0.0
 11
331.1375
 21
-3.025
 31
0.0
  0
ARC
  8
0
 62
0
 10
331.6375
 20
-3.025
 30
0.0
 40
0.5
 50
90.0
 51
-180.0
  0
LINE
  8
0
 62
0
 10
331.6375
 20
-2.525
 30
0.0
 11
344.6375
 21
-2.525
 31
0.0
  0
LINE
  8
0
 62
0
 10
196.525
 20
-115.0375
 30
0.0
 11
196.525
 21
-100.9115
 31
0.0
  0
ARC
  8
0
 62
0
 10
197.025
 20
-100.9115
 30
0.0
 40
0.500000000000007
 50
90.0
 51
-180.0
  0
LINE
  8
0
 62
0
 10
197.025
 20
-100.4115
 30
0.0
 11
203.025
 21
-100.4115
 31
0.0
  0
ARC
  8
0
 62
0
 10
203.025
 20
-100.9115
 30
0.0
 40
0.500000000000007
 50
-0.0
 51
90.0
  0
LINE
  8
0
 62
0
 10
203.525
 20
-100.9115
 30
0.0
 11
203.525
 21
-115.0375
 31
0.0
  0
ARC
  8
0
 62
0
 10
203.025
 20
-115.0375
 30
0.0
 40
0.500000000000025
 50
-90.0
 51
-0.0
  0
LINE
  8
0
 62
0
 10
197.025
 20
-115.5375
 30
0.0
 11
203.025
 21
-115.5375
 31
0.0
  0
ARC
  8
0
 62
0
 10
197.025
 20
-115.0375
 30
0.0
 40
0.499999999999972
 50
-180.0
 51
-90.0
  0
LINE
  8
0
 62
0
 10
149.375
 20
-116.5375
 30
0.0
 11
136.375
 21
-116.5375
 31
0.0
  0
ARC
  8
0
 62
0
 10
136.375
 20
-116.0375
 30
0.0
 40
0.5
 50
-180.0
 51
-90.0
  0
LINE
  8
0
 62
0
 10
135.875
 20
-116.0375
 30
0.0
 11
135.875
 21
-103.0375
 31
0.0
  0
ARC
  8
0
 62
0
 10
136.375
 20
-103.0375
 30
0.0
 40
0.500000000000007
 50
90.0
 51
-180.0
  0
LINE
  8
0
 62
0
 10
136.375
 20
-102.5375
 30
0.0
 11
149.375
 21
-102.5375
 31
0.0
  0
ARC
  8
0
 62
0
 10
149.375
 20
-103.0375
 30
0.0
 40
0.500000000000007
 50
-0.0
 51
90.0
  0
LINE
  8
0
 62
0
 10
149.875
 20
-103.0375
 30
0.0
 11
149.875
 21
-116.0375
 31
0.0
  0
ARC
  8
0
 62
0
 10
149.375
 20
-116.0375
 30
0.0
 40
0.5
 50
-90.0
 51
-0.0
  0
LINE
  8
0
 62
0
 10
164.95
 20
-2.525
 30
0.0
 11
178.45
 21
-2.525
 31
0.0
  0
LINE
  8
0
 62
0
 10
178.45
 20
-2.5249999999999986
 30
0.0
 11
178.45
 21
-16.025
 31
0.0
  0
ARC
  8
0
 62
0
 10
177.95
 20
-16.025
 30
0.0
 40
0.5
 50
-90.0
 51
-0.0
  0
LINE
  8
0
 62
0
 10
177.95
 20
-16.525
 30
0.0
 11
164.95
 21
-16.525
 31
0.0
  0
ARC
  8
0
 62
0
 10
164.95
 20
-16.025
 30
0.0
 40
0.500000000000007
 50
-180.0
 51
-90.0
  0
LINE
  8
0
 62
0
 10
164.45
 20
-16.025
 30
0.0
 11
164.45
 21
-3.025
 31
0.0
  0
ARC
  8
0
 62
0
 10
164.95
 20
-3.025
 30
0.0
 40
0.5
 50
90.0
 51
-180.0
  0
LINE
  8
0
 62
0
 10
245.125
 20
-3.025
 30
0.0
 11
245.125
 21
-16.025
 31
0.0
  0
ARC
  8
0
 62
0
 10
244.625
 20
-16.025
 30
0.0
 40
0.5
 50
-90.0
 51
-0.0
  0
LINE
  8
0
 62
0
 10
244.625
 20
-16.525
 30
0.0
 11
231.625
 21
-16.525
 31
0.0
  0
ARC
  8
0
 62
0
 10
231.625
 20
-16.025
 30
0.0
 40
0.500000000000007
 50
-180.0
 51
-90.0
  0
LINE
  8
0
 62
0
 10
231.125
 20
-16.025
 30
0.0
 11
231.125
 21
-3.025
 31
0.0
  0
ARC
  8
0
 62
0
 10
231.625
 20
-3.025
 30
0.0
 40
0.5
 50
90.0
 51
-180.0
  0
LINE
  8
0
 62
0
 10
231.625
 20
-2.525
 30
0.0
 11
244.625
 21
-2.525
 31
0.0
  0
ARC
  8
0
 62
0
 10
244.625
 20
-3.025
 30
0.0
 40
0.5
 50
-0.0
 51
90.0
  0
LINE
  8
0
 62
0
 10
312.5875
 20
-2.525
 30
0.0
 11
325.5875
 21
-2.525
 31
0.0
  0
ARC
  8
0
 62
0
 10
325.5875
 20
-3.025
 30
0.0
 40
0.499999999999972
 50
-0.0
 51
90.0
  0
LINE
  8
0
 62
0
 10
326.0875
 20
-3.025
 30
0.0
 11
326.0875
 21
-16.025
 31
0.0
  0
ARC
  8
0
 62
0
 10
325.5875
 20
-16.025
 30
0.0
 40
0.5
 50
-90.0
 51
-0.0
  0
LINE
  8
0
 62
0
 10
325.5875
 20
-16.525
 30
0.0
 11
312.5875
 21
-16.525
 31
0.0
  0
ARC
  8
0
 62
0
 10
312.5875
 20
-16.025
 30
0.0
 40
0.500000000000007
 50
-180.0
 51
-90.0
  0
LINE
  8
0
 62
0
 10
312.0875
 20
-16.025
 30
0.0
 11
312.0875
 21
-3.025
 31
0.0
  0
ARC
  8
0
 62
0
 10
312.5875
 20
-3.025
 30
0.0
 40
0.5
 50
90.0
 51
-180.0
  0
LINE
  8
0
 62
0
 10
325.5875
 20
-116.5375
 30
0.0
 11
312.5875
 21
-116.5375
 31
0.0
  0
ARC
  8
0
 62
0
 10
312.5875
 20
-116.0375
 30
0.0
 40
0.500000000000007
 50
-180.0
 51
-90.0
  0
LINE
  8
0
 62
0
 10
312.0875
 20
-116.0375
 30
0.0
 11
312.0875
 21
-103.0375
 31
0.0
  0
ARC
  8
0
 62
0
 10
312.5875
 20
-103.0375
 30
0.0
 40
0.500000000000007
 50
90.0
 51
-180.0
  0
LINE
  8
0
 62
0
 10
312.5875
 20
-102.5375
 30
0.0
 11
325.5875
 21
-102.5375
 31
0.0
  0
ARC
  8
0
 62
0
 10
325.5875
 20
-103.0375
 30
0.0
 40
0.499999999999972
 50
-0.0
 51
90.0
  0
LINE
  8
0
 62
0
 10
326.0875
 20
-103.0375
 30
0.0
 11
326.0875
 21
-116.0375
 31
0.0
  0
ARC
  8
0
 62
0
 10
325.5875
 20
-116.0375
 30
0.0
 40
0.500000000000007
 50
-90.0
 51
-0.0
  0
LINE
  8
0
 62
0
 10
92.725
 20
-3.025
 30
0.0
 11
92.725
 21
-16.025
 31
0.0
  0
ARC
  8
0
 62
0
 10
92.225
 20
-16.025
 30
0.0
 40
0.5
 50
-90.0
 51
-0.0
  0
LINE
  8
0
 62
0
 10
92.225
 20
-16.524999999999995
 30
0.0
 11
79.225
 21
-16.525
 31
0.0
  0
ARC
  8
0
 62
0
 10
79.225
 20
-16.025
 30
0.0
 40
0.499999999999998
 50
-180.0
 51
-90.0
  0
LINE
  8
0
 62
0
 10
78.725
 20
-16.025
 30
0.0
 11
78.725
 21
-3.025
 31
0.0
  0
ARC
  8
0
 62
0
 10
79.225
 20
-3.025
 30
0.0
 40
0.5
 50
90.0
 51
-180.0
  0
LINE
  8
0
 62
0
 10
79.225
 20
-2.525
 30
0.0
 11
92.225
 21
-2.525
 31
0.0
  0
ARC
  8
0
 62
0
 10
92.225
 20
-3.025
 30
0.0
 40
0.5
 50
-0.0
 51
90.0
  0
LINE
  8
0
 62
0
 10
250.675
 20
-2.525
 30
0.0
 11
263.675
 21
-2.525
 31
0.0
  0
ARC
  8
0
 62
0
 10
263.675
 20
-3.025
 30
0.0
 40
0.500000000000007
 50
-0.0
 51
90.0
  0
LINE
  8
0
 62
0
 10
264.175
 20
-3.025
 30
0.0
 11
264.175
 21
-16.025
 31
0.0
  0
ARC
  8
0
 62
0
 10
263.675
 20
-16.025
 30
0.0
 40
0.5
 50
-90.0
 51
-0.0
  0
LINE
  8
0
 62
0
 10
263.675
 20
-16.524999999999995
 30
0.0
 11
250.675
 21
-16.525
 31
0.0
  0
ARC
  8
0
 62
0
 10
250.675
 20
-16.025
 30
0.0
 40
0.500000000000007
 50
-180.0
 51
-90.0
  0
LINE
  8
0
 62
0
 10
250.175
 20
-16.025
 30
0.0
 11
250.175
 21
-3.025
 31
0.0
  0
ARC
  8
0
 62
0
 10
250.675
 20
-3.025
 30
0.0
 40
0.5
 50
90.0
 51
-180.0
  0
LINE
  8
0
 62
0
 10
98.275
 20
-2.525
 30
0.0
 11
111.275
 21
-2.525
 31
0.0
  0
ARC
  8
0
 62
0
 10
111.275
 20
-3.025
 30
0.0
 40
0.500000000000007
 50
-0.0
 51
90.0
  0
LINE
  8
0
 62
0
 10
111.775
 20
-3.025
 30
0.0
 11
111.775
 21
-16.025
 31
0.0
  0
ARC
  8
0
 62
0
 10
111.275
 20
-16.025
 30
0.0
 40
0.5
 50
-90.0
 51
-0.0
  0
LINE
  8
0
 62
0
 10
111.275
 20
-16.525
 30
0.0
 11
98.275
 21
-16.525
 31
0.0
  0
ARC
  8
0
 62
0
 10
98.275
 20
-16.025
 30
0.0
 40
0.500000000000007
 50
-180.0
 51
-90.0
  0
LINE
  8
0
 62
0
 10
97.775
 20
-16.025
 30
0.0
 11
97.775
 21
-3.025
 31
0.0
  0
ARC
  8
0
 62
0
 10
98.275
 20
-3.025
 30
0.0
 40
0.5
 50
90.0
 51
-180.0
  0
LINE
  8
0
 62
0
 10
82.22499999999998
 20
-115.0375
 30
0.0
 11
82.225
 21
-100.9115
 31
0.0
  0
ARC
  8
0
 62
0
 10
82.725
 20
-100.9115
 30
0.0
 40
0.500000000000007
 50
90.0
 51
-180.0
  0
LINE
  8
0
 62
0
 10
82.725
 20
-100.4115
 30
0.0
 11
88.725
 21
-100.4115
 31
0.0
  0
ARC
  8
0
 62
0
 10
88.725
 20
-100.9115
 30
0.0
 40
0.500000000000007
 50
-0.0
 51
90.0
  0
LINE
  8
0
 62
0
 10
89.225
 20
-100.9115
 30
0.0
 11
89.225
 21
-115.0375
 31
0.0
  0
ARC
  8
0
 62
0
 10
88.725
 20
-115.0375
 30
0.0
 40
0.500000000000025
 50
-90.0
 51
-0.0
  0
LINE
  8
0
 62
0
 10
88.725
 20
-115.5375
 30
0.0
 11
82.725
 21
-115.5375
 31
0.0
  0
ARC
  8
0
 62
0
 10
82.725
 20
-115.0375
 30
0.0
 40
0.500000000000007
 50
-180.0
 51
-90.0
  0
CIRCLE
  8
0
 62
0
 10
24.6133172161882
 20
4.21016574607803
 30
0.0
 40
1.59999999999999
  0
CIRCLE
  8
0
 62
0
 10
24.6133172161882
 20
-123.272665746078
 30
0.0
 40
1.59999999999999
  0
CIRCLE
  8
0
 62
0
 10
322.725817216188
 20
-123.272665746076
 30
0.0
 40
1.59999999999997
  0
CIRCLE
  8
0
 62
0
 10
197.525
 20
-123.272665746077
 30
0.0
 40
1.6
  0
CIRCLE
  8
0
 62
0
 10
88.2249999999997
 20
-123.272665746077
 30
0.0
 40
1.59999999999998
  0
ENDBLK
  0
ENDSEC
  0
SECTION
  2
ENTITIES
  0
INSERT
  2
FACEFEAT
  8
0
 62
0
 10
0.0
 20
0.0
 30
0.0
  0
ENDSEC
  0
EOF
