0
SECTION
2
HEADER
9
$INSUNITS
70
4
9
$ACADVER
1
AC1014
9
$HANDSEED
5
FFFF
0
ENDSEC
0
SECTION
2
TABLES
0
TABLE
2
VPORT
5
8
100
AcDbSymbolTable
0
ENDTAB
0
TABLE
2
LTYPE
5
5
100
AcDbSymbolTable
0
LTYPE
5
14
100
AcDbSymbolTableRecord
100
AcDbLinetypeTableRecord
2
BYBLOCK
70
0
0
LTYPE
5
15
100
AcDbSymbolTableRecord
100
AcDbLinetypeTableRecord
2
BYLAYER
70
0
0
ENDTAB
0
TABLE
2
LAYER
5
2
100
AcDbSymbolTable
70
2
0
LAYER
5
50
100
AcDbSymbolTableRecord
100
AcDbLayerTableRecord
2
0
70
0
6
CONTINUOUS
0
ENDTAB
0
TABLE
2
STYLE
5
3
100
AcDbSymbolTable
70
1
0
STYLE
5
11
100
AcDbSymbolTableRecord
100
AcDbTextStyleTableRecord
2
STANDARD
70
0
0
ENDTAB
0
TABLE
2
VIEW
5
6
100
AcDbSymbolTable
70
0
0
ENDTAB
0
TABLE
2
UCS
5
7
100
AcDbSymbolTable
70
0
0
ENDTAB
0
TABLE
2
APPID
5
9
100
AcDbSymbolTable
70
2
0
APPID
5
12
100
AcDbSymbolTableRecord
100
AcDbRegAppTableRecord
2
ACAD
70
0
0
ENDTAB
0
TABLE
2
DIMSTYLE
5
A
100
AcDbSymbolTable
70
1
0
ENDTAB
0
TABLE
2
BLOCK_RECORD
5
1
100
AcDbSymbolTable
70
1
0
BLOCK_RECORD
5
1F
100
AcDbSymbolTableRecord
100
AcDbBlockTableRecord
2
*MODEL_SPACE
0
BLOCK_RECORD
5
1B
100
AcDbSymbolTableRecord
100
AcDbBlockTableRecord
2
*PAPER_SPACE
0
ENDTAB
0
ENDSEC
0
SECTION
2
BLOCKS
0
BLOCK
5
20
100
AcDbEntity
100
AcDbBlockBegin
2
*MODEL_SPACE
0
ENDBLK
5
21
100
AcDbEntity
100
AcDbBlockEnd
0
BLOCK
5
1C
100
AcDbEntity
100
AcDbBlockBegin
2
*PAPER_SPACE
0
ENDBLK
5
1D
100
AcDbEntity
100
AcDbBlockEnd
0
ENDSEC
0
SECTION
2
ENTITIES
0
LWPOLYLINE
5
100
100
AcDbEntity
8
0
100
AcDbPolyline
90
130
70
1
43
0.0
10
-55.451346011694405
20
-14.387777174674207
42
0.41421356237306639
10
-54.45134601169439
20
-13.387777174674309
10
-54.451346009140821
20
-12.637776779704515
42
-0.20156585725470713
10
-53.400835761237282
20
-10.137776788829491
42
-1.0000000105367122
10
-52.176090880532833
20
-11.387776779704652
42
2.4494897427822986
10
-49.726601128435952
20
-11.387776788829783
42
-1.0000000074505806
10
-48.501856266357315
20
-10.137776779704952
42
-0.20156585822386372
10
-47.451346009141105
20
-12.637776779705261
10
-47.451346011655744
20
-13.38777717467417
42
0.41421356237313078
10
-46.451346011655801
20
-14.38777717467425
10
-35.477002260940544
20
-14.387777174674241
42
-0.41421356237306317
10
-34.477002260940559
20
-15.387777174674138
10
-34.47700226094036
20
-17.387777163714272
42
0.99999999999999989
10
-30.477002260940402
20
-17.38777716371386
10
-30.477002260940292
20
-15.387777174674209
42
-0.4142135623730846
10
-29.477002260940282
20
-14.387777174674252
10
-7.9998022616818805
20
-14.387777174674316
42
-0.41421356444704294
10
-5.9998022583033617
20
-16.387777188836115
10
-5.9998022558918818
20
-134.40012676671185
42
-0.41421356427646994
10
-7.9998022558918969
20
-136.40012677970785
10
-46.451346005892219
20
-136.40012677970878
42
0.41421356237310025
10
-47.45134600589229
20
-137.4001267797089
10
-47.451346009143023
20
-138.15012717467059
42
-0.20156585822387041
10
-48.501856266359198
20
-140.65012717466993
42
-0.99999999999999989
10
-49.726601137750315
20
-139.40012717467118
42
2.4494897558216944
10
-52.176090871220133
20
-139.400127183796
42
-0.99999999999999989
10
-53.400835751925236
20
-140.65012717467124
42
-0.20156585822382986
10
-54.451346009142007
20
-138.15012717467121
10
-54.451346005892169
20
-137.4001267797089
42
0.41421356237310542
10
-55.451346005892134
20
-136.40012677970896
10
-61.624477262740044
20
-136.40012715467347
42
-0.41421356237306123
10
-62.624477262740058
20
-135.40012715467353
10
-62.624477262740221
20
-133.40012716563342
42
0.99999999999999989
10
-66.624477262740214
20
-133.4001271656316
10
-66.624477262740299
20
-135.40012715467344
42
-0.41421356237308721
10
-67.624477262740342
20
-136.40012715467344
10
-133.35443350589202
20
-136.40012677970785
42
0.41421356237312623
10
-134.35443350589202
20
-137.40012677970788
10
-134.35443350914315
20
-138.15012717467019
42
-0.20156585919301706
10
-135.40494377567245
20
-140.65012718379452
42
-0.9999999925494194
10
-136.62968863775018
20
-139.40012717467079
42
2.4494897427831752
10
-139.07917838053368
20
-139.40012717467101
42
-0.9999999925494194
10
-140.30392325192497
20
-140.65012717467081
42
-0.20156585822386208
10
-141.35443350914187
20
-138.15012717467079
10
-141.35443350589205
20
-137.40012677970788
42
0.41421356237309503
10
-142.35443350589202
20
-136.40012677970785
10
-170.7079109183023
20
-136.40012677970842
42
-0.26794722041898933
10
-171.14092178026954
20
-136.15012996652496
42
0.26794722041892605
10
-173.30597609010528
20
-134.90014590060787
10
-189.30597609010516
20
-134.90014590060824
42
0.267947220418915
10
-191.47103039994079
20
-136.15012996652501
42
-0.2679472204189064
10
-191.90404126190799
20
-136.40012677970756
10
-220.25752100589202
20
-136.40012677970785
42
0.41421356237309503
10
-221.25752100589204
20
-137.40012677970785
10
-221.25752100914326
20
-138.15012717466973
42
-0.20156585862530138
10
-222.3080312702169
20
-140.65012717844888
42
-0.99999998946328783
10
-223.53277613775009
20
-139.40012717467036
42
2.4494897427828519
10
-225.9822658805335
20
-139.40012717467047
42
-0.99999999999999989
10
-227.20701075192494
20
-140.65012717467036
42
-0.2015658582238673
10
-228.25752100914173
20
-138.15012717467039
10
-228.25752100589199
20
-137.40012677970785
42
0.41421356237311585
10
-229.25752100589199
20
-136.40012677970779
10
-233.07465226010279
20
-136.40012699146124
42
-0.41421356237306384
10
-234.07465226010282
20
-135.40012699146132
10
-234.07465226010294
20
-133.40012700242116
42
0.99999999999999989
10
-238.07465226010294
20
-133.40012700241934
10
-238.07465226010305
20
-135.40012699146124
42
-0.4142135623730846
10
-239.07465226010314
20
-136.40012699146121
10
-307.16060850589201
20
-136.40012677970788
42
0.41421356237310542
10
-308.16060850589201
20
-137.40012677970785
10
-308.160608509143
20
-138.15012717466934
42
-0.2015658572547151
10
-309.21111875704599
20
-140.65012716554367
42
-0.99999999999999989
10
-310.43586363775012
20
-139.4001271746699
42
2.4494897427831552
10
-312.8853533898465
20
-139.40012716554483
42
-0.99999999999999989
10
-314.11009825192491
20
-140.65012717467002
42
-0.2015658582238429
10
-315.16060850914175
20
-138.15012717467002
10
-315.16060850589201
20
-137.40012677970785
42
0.41421356237310542
10
-316.16060850589207
20
-136.40012677970782
10
-333.07777576826174
20
-136.40012715469692
42
-0.4142135623730534
10
-334.07777576826174
20
-135.40012715469703
10
-334.07777576826209
20
-133.4001271656569
42
0.99999999999999989
10
-338.07777576826209
20
-133.40012716565317
10
-338.07777576826197
20
-135.40012715469692
42
-0.4142135623730378
10
-339.07777576826214
20
-136.40012715469689
10
-354.61215225589086
20
-136.4001267797079
42
-0.41421356513916591
10
-356.61215226031982
20
-134.40012676081983
10
-356.61215226168196
20
-16.38777718483707
42
-0.4142135638615323
10
-354.61215226168201
20
-14.387777174673568
10
-339.0978727837844
20
-14.387777174673491
42
-0.41421356237308204
10
-338.09787278378445
20
-15.387777174673388
10
-338.09787278378428
20
-17.38777716371359
42
0.99999999999999989
10
-334.09787278378411
20
-17.387777163712688
10
-334.09787278378411
20
-15.387777174673463
42
-0.41421356237303908
10
-333.09787278378406
20
-14.387777174673509
10
-316.16060851168993
20
-14.387777174673595
42
0.41421356237304757
10
-315.16060851169004
20
-13.387777174673779
10
-315.16060850914067
20
-12.637776779701777
42
-0.20156585822384776
10
-314.11009825192406
20
-10.137776779701779
42
-0.99999999999999989
10
-312.88535338053259
20
-11.387776779701962
42
2.4494897427825628
10
-310.43586363774915
20
-11.387776779701909
42
-0.99999999999999989
10
-309.21111876635729
20
-10.137776779702232
42
-0.20156585822387618
10
-308.16060850914096
20
-12.637776779702525
10
-308.16060851165093
20
-13.387777174673513
42
0.41421356237314122
10
-307.16060851165093
20
-14.387777174673653
10
-229.25752101168999
20
-14.387777174673793
42
0.41421356237307355
10
-228.25752101169002
20
-13.387777174673888
10
-228.2575210091411
20
-12.637776779702659
42
-0.20156585822386197
10
-227.20701075192412
20
-10.137776779702651
42
-0.99999999999999989
10
-225.98226588053268
20
-11.387776779702843
42
2.4494897427829825
10
-223.53277613774932
20
-11.387776779702762
42
-0.99999999999999989
10
-222.30803126635752
20
-10.137776779703053
42
-0.20156585822386233
10
-221.25752100914104
20
-12.637776779703405
10
-221.25752101165901
20
-13.387777174673754
42
0.4142135623731204
10
-220.25752101165898
20
-14.387777174673797
10
-200.44965226273956
20
-14.387777174675307
42
-0.41421356237308593
10
-199.44965226273956
20
-15.387777174675183
10
-199.44965226273936
20
-17.387777163715313
42
0.99999999999999989
10
-195.44965226273945
20
-17.387777163712773
10
-195.44965226273928
20
-15.387777174675254
42
-0.41421356237305212
10
-194.44965226273925
20
-14.3877771746753
10
-142.35443351169204
20
-14.387777174673985
42
0.41421356237307488
10
-141.35443351169204
20
-13.387777174674094
10
-141.35443350914105
20
-12.6377767797036
42
-0.20156585822389836
10
-140.30392325192378
20
-10.137776779703394
42
-0.99999999999999989
10
-139.07917838053271
20
-11.387776779703744
42
2.4494897297445646
10
-136.62968862843633
20
-11.387776788828907
42
-0.99999999999999989
10
-135.40494376635741
20
-10.137776779704023
42
-0.20156585822384743
10
-134.35443350914102
20
-12.637776779704348
10
-134.35443351165196
20
-13.387777174673932
42
0.41421356237315549
10
-133.35443351165196
20
-14.387777174674074
0
LWPOLYLINE
5
101
100
AcDbEntity
8
0
100
AcDbPolyline
90
32
70
1
43
0.0
10
-316.55965225914235
20
-18.867221445098437
42
0.99999999999999989
10
-317.55965225914235
20
-18.867221445098401
10
-317.55965225914269
20
-33.891821445097456
42
-0.41421356237315227
10
-318.05965225914247
20
-34.391821445097285
10
-335.10965225914242
20
-34.391821445096468
42
-0.41421356237312362
10
-335.6096522591414
20
-33.891821445097449
10
-335.60965225914128
20
-20.867221445097492
42
0.99999999999999989
10
-336.6096522591414
20
-20.867221445097385
10
-336.6096522591414
20
-33.891821445096497
42
-0.41421356237309243
10
-337.10965225914123
20
-34.391821445096326
10
-352.11230225914079
20
-34.39182144509725
42
0.99999999999999989
10
-352.11230225914096
20
-35.392121445096237
10
-337.11035225914344
20
-35.39212144509618
42
-0.41421356237313928
10
-336.61035225914355
20
-35.892121445096159
10
-336.61035225914338
20
-50.916721445096186
42
0.99999999999999989
10
-335.61035225914344
20
-50.916721445096201
10
-335.61035225914338
20
-35.892121445096151
42
-0.41421356237298318
10
-335.11035225914338
20
-35.392121445096251
10
-318.06035225914337
20
-35.392121445096343
42
-0.41421356237308982
10
-317.56035225914354
20
-35.892121445096166
10
-317.56035225914343
20
-50.916721445096236
42
0.99999999999999989
10
-316.56035225914354
20
-50.916721445096236
10
-316.56035225829237
20
-35.892121445096159
42
-0.41419648315853269
10
-316.06038141536237
20
-35.392121446797312
10
-299.0097647904858
20
-35.391127183777684
42
0.41419648315867452
10
-297.50985225914224
20
-33.891127186327942
10
-297.50985225914206
20
-18.867221445098409
42
0.99999999999999989
10
-298.50985225914206
20
-18.867221445098373
10
-298.50985225914246
20
-33.891821445097435
42
-0.41421356237312101
10
-299.00985225914229
20
-34.391821445097257
10
-316.05965225914144
20
-34.391821445097499
42
-0.41421356237369855
10
-316.55965225914247
20
-33.891821445097456
0
LWPOLYLINE
5
102
100
AcDbEntity
8
0
100
AcDbPolyline
90
26
70
1
43
0.0
10
-196.4496522591416
20
-34.412027174667301
10
-81.62690225914146
20
-34.412027174666775
42
0.41421356237310025
10
-81.126902259141488
20
-33.912027174666797
10
-81.126902259141062
20
-18.887777236000176
42
-0.99999999999999989
10
-80.126902259140905
20
-18.887777236000225
10
-80.126902259141545
20
-33.912027174666768
42
0.41421356237309243
10
-79.626902259141559
20
-34.412027174666797
10
-57.279553752739687
20
-34.412027174666768
42
0.41421356237308721
10
-56.779553752739709
20
-33.912035090743366
10
-56.779553752739325
20
-18.888210090745467
42
-0.99999999999999989
10
-55.779553752739226
20
-18.888210090745595
10
-55.77954583666164
20
-33.912035090764299
42
-0.41421356236930862
10
-57.279553752741243
20
-35.412035090744837
10
-237.78715225914041
20
-35.412027174667259
42
-0.99999999999999989
10
-237.78715225914041
20
-34.412027174665582
10
-221.5970022591421
20
-34.412027174665596
42
0.41421356237315227
10
-221.0970022591421
20
-33.912027174665639
10
-221.0970022591417
20
-18.888202174665054
42
-0.99999999999999989
10
-220.09700225914156
20
-18.88820217466515
10
-220.0970022591423
20
-33.912027174665582
42
0.41421356237311063
10
-219.59700225914219
20
-34.412027174665582
10
-198.44965225914154
20
-34.412027174667315
42
0.41421356237311585
10
-197.94965225914154
20
-33.912027174667365
10
-197.94965225914112
20
-20.888202174667825
42
-0.99999999999999989
10
-196.94965225914103
20
-20.888202174667967
10
-196.94965225914163
20
-33.912027174667287
42
0.41421356237307944
0
LWPOLYLINE
5
103
100
AcDbEntity
8
0
100
AcDbPolyline
90
10
70
1
43
0.0
10
-49.692952259140299
20
-34.412027174666704
10
-33.477002259141457
20
-34.412027174666676
42
0.41421356237309243
10
-32.977002259141457
20
-33.912027174666683
10
-32.977002259141138
20
-20.888202174668223
42
-0.99999999999999989
10
-31.977002259141049
20
-20.888202174668365
10
-31.977002259141486
20
-33.912027174666648
42
0.41421356237309503
10
-31.477002259141496
20
-34.412027174666669
10
-12.881062259142205
20
-34.412027174666598
42
-0.99999999999999989
10
-12.881062259142341
20
-35.412027174668388
10
-49.692952259140313
20
-35.412027174668388
42
-0.99999999999999989
0
LWPOLYLINE
5
104
100
AcDbEntity
8
0
100
AcDbPolyline
90
30
70
1
43
0.0
10
-293.69915226010329
20
-33.912027174666498
42
0.41421356237310542
10
-292.19915226010346
20
-35.412027174666434
10
-286.03142312846609
20
-35.412027174666477
42
-0.41421356237311585
10
-285.53142312846609
20
-35.91202717466652
10
-285.53142312846649
20
-50.935627174665576
42
0.99999999999999989
10
-284.5314231284666
20
-50.935627174665505
10
-284.53142312846609
20
-35.912027174666505
42
-0.41421356237306123
10
-284.03142312846614
20
-35.41202717466652
10
-250.03309225914245
20
-35.41202717466664
42
-0.4142135623730222
10
-249.53309225914242
20
-35.912027174666662
10
-249.53309225914268
20
-50.935627174666578
42
0.99999999999999989
10
-248.53309225914273
20
-50.935627174666564
10
-248.53309225914245
20
-35.91202717466664
42
-0.4142135623730846
10
-248.03309225914248
20
-35.412027174666612
10
-245.40890226273007
20
-35.412027174663436
42
0.41421356237291385
10
-243.90890226272899
20
-33.912027174663393
10
-243.90890226272944
20
-18.888202174664336
42
0.99999999999999989
10
-244.90890226272953
20
-18.888202174664215
10
-244.90890226272995
20
-33.912027174662413
42
-0.41421356237312623
10
-245.40890226273007
20
-34.412027174662363
10
-267.22115225914177
20
-34.412027174665212
42
-0.41421356237308721
10
-267.72115225914172
20
-33.912027174665184
10
-267.72115225914115
20
-18.888202174666542
42
0.99999999999999989
10
-268.72115225914121
20
-18.888202174666453
10
-268.72115225914172
20
-33.912027174665184
42
-0.41421356237306123
10
-269.22115225914172
20
-34.412027174665134
10
-292.19915226010329
20
-34.412027174666385
42
-0.41421356237437751
10
-292.69915226010323
20
-33.912027174664502
10
-292.69915226010329
20
-18.887777236001249
42
0.99999999999999989
10
-293.69915226010329
20
-18.887777236001213
0
LWPOLYLINE
5
105
100
AcDbEntity
8
0
100
AcDbPolyline
90
30
70
1
43
0.0
10
-256.12465225914173
20
-116.37552717466704
10
-273.17465225914157
20
-116.37552717466633
42
0.41421356237315748
10
-273.67465225914168
20
-116.87552717466627
10
-273.67465225914174
20
-131.90012717466587
42
-0.99999999999999989
10
-274.67465225914168
20
-131.90012717466587
10
-274.67465225914157
20
-116.87552717466627
42
0.41421356237309503
10
-275.17465225914157
20
-116.37552717466633
10
-292.22465225914141
20
-116.37552717466627
42
0.41421356237312623
10
-292.72465225914141
20
-116.87552717466627
10
-292.72465225914152
20
-131.90012717466533
42
-0.99999999999999989
10
-293.72465225914141
20
-131.90012717466539
10
-293.72465225914141
20
-116.87552717466627
42
-0.41421356237310542
10
-292.22465225914141
20
-115.37552717466627
10
-218.02465225914219
20
-115.3755271746666
42
-0.41421356237313323
10
-216.52465225914224
20
-116.87552717466646
10
-216.52465225914221
20
-131.90012717466649
42
-0.99999999999999989
10
-217.52465225914227
20
-131.90012717466649
10
-217.52465225914219
20
-116.87552717466644
42
0.4142135623731783
10
-218.02465225914216
20
-116.3755271746665
10
-235.07465225914203
20
-116.3755271746671
42
0.4142135623730846
10
-235.574652259142
20
-116.87552717466704
10
-235.57465225914214
20
-129.90012717466647
42
-0.99999999999999989
10
-236.574652259142
20
-129.90012717466649
10
-236.57465225914197
20
-116.87552717466704
42
0.41421356237300139
10
-237.07465225914189
20
-116.3755271746671
10
-254.12465225914175
20
-116.37552717466644
42
0.4142135623730846
10
-254.62465225914173
20
-116.87552717466698
10
-254.6246522591419
20
-131.90012723599901
42
-0.99999999999999989
10
-255.62465225914178
20
-131.90012723599898
10
-255.62465225914173
20
-116.87552717466698
42
0.41421356237309503
0
LWPOLYLINE
5
106
100
AcDbEntity
8
0
100
AcDbPolyline
90
28
70
1
43
0.0
10
-335.60965225914174
20
-76.017121445097388
42
0.99999999999999989
10
-336.60965225914168
20
-76.017121445097359
10
-336.60965225914168
20
-91.041721445097451
42
-0.41421356237310542
10
-337.10965225914151
20
-91.541721445097309
10
-352.11199927485939
20
-91.54172144509738
42
0.99999999999999989
10
-352.11199927485961
20
-92.542021445096253
10
-337.11035225914361
20
-92.542021445096253
42
-0.41421356237315748
10
-336.61035225914367
20
-93.042021445096182
10
-336.61035225914367
20
-108.06662144509633
42
0.99999999999999989
10
-335.61035225914389
20
-108.06662144509627
10
-335.6103522591435
20
-93.042021445096239
42
-0.41421356237310542
10
-335.11035225914361
20
-92.54202144509631
10
-318.06035225914366
20
-92.542021445096481
42
-0.41421356237303258
10
-317.56035225914394
20
-93.042021445096239
10
-317.56035225914366
20
-108.06662144509622
42
0.99999999999999989
10
-316.56035225914366
20
-108.06662144509629
10
-316.5603522582926
20
-93.042021445096182
42
-0.41419648315848068
10
-316.0603814153626
20
-92.542021446797378
10
-301.01168840837738
20
-92.54114392082397
42
0.99997084420590943
10
-301.0117175477576
20
-91.541721445097323
10
-316.05965225914167
20
-91.541721445097565
42
-0.41421356237364654
10
-316.55965225914269
20
-91.041721445097537
10
-316.55965225914258
20
-76.017121445098454
42
0.99999999999999989
10
-317.55965225914258
20
-76.017121445098425
10
-317.55965225914287
20
-91.04172144509748
42
-0.41421356237310542
10
-318.05965225914281
20
-91.541721445097309
10
-335.10965225914265
20
-91.541721445096442
42
-0.41421356237312623
10
-335.60965225914168
20
-91.04172144509748
0
LWPOLYLINE
5
107
100
AcDbEntity
8
0
100
AcDbPolyline
90
8
70
1
43
0.0
10
-52.552955242739756
20
-31.88857718675056
10
-52.552955242739685
20
-18.887727186750563
42
-0.41421356237312101
10
-52.052955242739628
20
-18.387727186750563
10
-36.672455242739403
20
-18.387727186752279
42
-0.33393684805358659
10
-36.192152259141231
20
-18.748770200793196
10
-36.192152259141068
20
-32.027534172710183
42
-0.33393684805418505
10
-36.67245524273946
20
-32.388577186752286
10
-52.05295524273982
20
-32.388577186750595
42
-0.41421356237308982
0
LWPOLYLINE
5
108
100
AcDbEntity
8
0
100
AcDbPolyline
90
8
70
1
43
0.0
10
-352.61214927826217
20
-108.0878271765377
42
0.4142135623730534
10
-352.11214927826239
20
-108.58782717653781
10
-339.11259927826228
20
-108.58782717653921
42
0.4142135623731783
10
-338.61259927826217
20
-108.08782717653921
10
-338.61259927826205
20
-95.087827176537715
42
0.41421356237299095
10
-339.11259927826211
20
-94.587827176537701
10
-352.11214927826211
20
-94.587827176537772
42
0.41421356237293894
10
-352.61214927826217
20
-95.087827176537715
0
LWPOLYLINE
5
109
100
AcDbEntity
8
0
100
AcDbPolyline
90
6
70
1
43
0.0
10
-322.11275225914176
20
-110.61382717466591
10
-301.00746323964609
20
-110.61382717466594
42
-0.99569838883450179
10
-301.01177406259927
20
-111.61380859112609
10
-352.112163323902
20
-111.61314462311752
42
-0.99552053683258657
10
-352.11663064544183
20
-110.61316467984423
10
-336.13750033849527
20
-110.61383129631366
0
LWPOLYLINE
5
110
100
AcDbEntity
8
0
100
AcDbPolyline
90
8
70
1
43
0.0
10
-338.61259927826239
20
-118.90012717653781
10
-338.61259927826239
20
-131.90012717653929
42
-0.41421356237321988
10
-339.11259927826251
20
-132.40012717653931
10
-352.11214927826262
20
-132.40012717653778
42
-0.4142135623730534
10
-352.61214927826239
20
-131.90012717653781
10
-352.61214927826234
20
-118.90012717653781
42
-0.41421356237295975
10
-352.11214927826239
20
-118.40012717653781
10
-339.11259927826251
20
-118.40012717653775
42
-0.41421356237314705
0
LWPOLYLINE
5
111
100
AcDbEntity
8
0
100
AcDbPolyline
90
8
70
1
43
0.0
10
-271.6491522582628
20
-131.90012718675092
42
0.41421356237310542
10
-271.14915225826286
20
-132.40012718675095
10
-258.1496022582628
20
-132.40012718675243
42
0.40054017419811899
10
-257.65015225914226
20
-131.92357283407719
10
-257.65015225914198
20
-118.87668153942853
42
0.40054017419958188
10
-258.14960225826263
20
-118.40012718675095
10
-271.14915225826269
20
-118.40012718675095
42
0.41421356237312623
10
-271.64915225826257
20
-118.90012718675089
0
LWPOLYLINE
5
112
100
AcDbEntity
8
0
100
AcDbPolyline
90
8
70
1
43
0.0
10
-81.149152259142198
20
-131.9142680352613
10
-81.149152259142184
20
-118.88598633824655
42
-0.40595299840421062
10
-80.649352262740166
20
-118.40012718675199
10
-67.649802262740167
20
-118.40012718675197
42
-0.41007758087659874
10
-67.149852259142122
20
-118.89305655012234
10
-67.14985225914225
20
-131.9071978233905
42
-0.41007758087231838
10
-67.649802262740224
20
-132.40012718675348
10
-80.649352262740337
20
-132.400127186752
42
-0.4059529984019134
0
LWPOLYLINE
5
113
100
AcDbEntity
8
0
100
AcDbPolyline
90
8
70
1
43
0.0
10
-10.499802262740197
20
-132.40012718675413
10
-23.499352262740256
20
-132.40012718675271
42
-0.41421356237311324
10
-23.999352262740178
20
-131.90012718675266
10
-23.999352262740068
20
-118.90012718675266
42
-0.41421356237305862
10
-23.499352262740125
20
-118.40012718675268
10
-10.499802262740143
20
-118.4001271867526
42
-0.41421356237308854
10
-9.9998022627401308
20
-118.90012718675266
10
-9.9998022627401166
20
-131.9001271867541
42
-0.41421356237310675
0
LWPOLYLINE
5
114
100
AcDbEntity
8
0
100
AcDbPolyline
90
4
70
1
43
0.0
10
-23.499802259142982
20
-110.61202717466784
42
0.99999999999999989
10
-23.499802259142982
20
-111.61202717466793
10
-10.499802259142072
20
-111.61202717466784
42
0.99999999999999989
10
-10.499802259142088
20
-110.61202717466793
0
LWPOLYLINE
5
115
100
AcDbEntity
8
0
100
AcDbPolyline
90
8
70
1
43
0.0
10
-9.9998022627396121
20
-95.087827186752364
10
-9.9998022627396139
20
-108.08782718675388
42
-0.41421356237314055
10
-10.499802262739681
20
-108.58782718675387
10
-23.499352262739741
20
-108.58782718675243
42
-0.41421356237308721
10
-23.999352262739674
20
-108.08782718675243
10
-23.999352262739549
20
-95.087827186752349
42
-0.414213562373069
10
-23.49935226273962
20
-94.587827186752449
10
-10.499802262739619
20
-94.587827186752364
42
-0.41421356237307294
0
LWPOLYLINE
5
116
100
AcDbEntity
8
0
100
AcDbPolyline
90
8
70
1
43
0.0
10
-202.88115226273919
20
-18.887777186752825
42
0.41421356237313534
10
-203.38115226273919
20
-18.387777186752821
10
-216.38015226273922
20
-18.387777186752697
42
0.41421356237315093
10
-216.88015226273919
20
-18.887777186752746
10
-216.8801522627395
20
-31.888627186752643
42
0.41421356237316009
10
-216.3801522627395
20
-32.388627186752622
10
-203.38115226273945
20
-32.388627186752849
42
0.41421356237314705
10
-202.88115226273945
20
-31.888627186752828
0
LWPOLYLINE
5
117
100
AcDbEntity
8
0
100
AcDbPolyline
90
8
70
1
43
0.0
10
-224.81215226273963
20
-32.388627186750945
10
-240.19315226273946
20
-32.388627186752458
42
-0.4142135623730222
10
-240.69315226273946
20
-31.888627186752437
10
-240.69315226273915
20
-18.887777186752423
42
-0.4142135623730846
10
-240.19315226273932
20
-18.387777186752455
10
-224.8121522627394
20
-18.387777186750981
42
-0.41421356237306384
10
-224.31215226273932
20
-18.887777186751006
10
-224.31215226273963
20
-31.888627186750924
42
-0.41421356237315227
0
LWPOLYLINE
5
118
100
AcDbEntity
8
0
100
AcDbPolyline
90
8
70
1
43
0.0
10
-248.62465226271976
20
-32.38862718677251
42
0.41421356237316009
10
-248.12465226271968
20
-31.888627186772535
10
-248.12465226271968
20
-18.887777186772567
42
0.41421356237306772
10
-248.62465226271965
20
-18.387777186772581
10
-264.00515226271966
20
-18.387777186770883
42
0.41421356237309764
10
-264.50515226271966
20
-18.887777186770965
10
-264.50515226271995
20
-31.888627186770847
42
0.41421356237314444
10
-264.00515226271995
20
-32.388627186770861
0
LWPOLYLINE
5
119
100
AcDbEntity
8
0
100
AcDbPolyline
90
8
70
1
43
0.0
10
-287.81815226273909
20
-18.387777186752274
42
0.4142135623730222
10
-288.31815226273886
20
-18.887777186752228
10
-288.3181522627392
20
-31.888627186752245
42
0.41421356237301438
10
-287.81815226273926
20
-32.388627186752259
10
-272.4371522627394
20
-32.388627186750746
42
0.41421356237301177
10
-271.9371522627394
20
-31.888627186750739
10
-271.93715226273912
20
-18.887777186750807
42
0.41421356237313273
10
-272.43715226273923
20
-18.387777186750807
0
LWPOLYLINE
5
120
100
AcDbEntity
8
0
100
AcDbPolyline
90
8
70
1
43
0.0
10
-352.63224629378442
20
-31.888627567959475
42
0.41421356237293372
10
-352.13224629378442
20
-32.388627567959439
10
-339.13269629378419
20
-32.388627567960945
42
0.41421356237314444
10
-338.63269629378431
20
-31.888627567960963
10
-338.63269629378419
20
-18.888627567959503
42
0.41421356237311324
10
-339.13269629378419
20
-18.388627567959524
10
-352.13224629378431
20
-18.388627567959503
42
0.4142135623728791
10
-352.63224629378408
20
-18.88862756795946
0
LWPOLYLINE
5
121
100
AcDbEntity
8
0
100
AcDbPolyline
90
8
70
1
43
0.0
10
-314.51324927378425
20
-31.88862756795967
42
0.41421356237313406
10
-314.0132492737842
20
-32.388627567959688
10
-301.0136992737842
20
-32.388627567961166
42
0.41421356237323032
10
-300.51369927378414
20
-31.888627567961176
10
-300.51369927378425
20
-18.888627567959691
42
0.41421356237299489
10
-301.0136992737842
20
-18.388627567959666
10
-314.01324927378425
20
-18.388627567959759
42
0.41421356237315093
10
-314.51324927378414
20
-18.888627567959684
0
LWPOLYLINE
5
122
100
AcDbEntity
8
0
100
AcDbPolyline
90
8
70
1
43
0.0
10
-99.699152262740242
20
-118.40012718675206
10
-86.699602262740228
20
-118.40012718675204
42
-0.40498118768636177
10
-86.199852259142148
20
-118.88431788873811
10
-86.199852259142233
20
-131.91593648477098
42
-0.40498118768434488
10
-86.699602262740299
20
-132.40012718675354
10
-99.699152262740455
20
-132.40012718675206
42
-0.41421356237306384
10
-100.19915226274034
20
-131.90012718675203
10
-100.19915226274017
20
-118.900127186752
42
-0.4142135623730534
0
LWPOLYLINE
5
123
100
AcDbEntity
8
0
100
AcDbPolyline
90
8
70
1
43
0.0
10
-134.32460226274011
20
-132.40012718675334
10
-147.32415226274017
20
-132.40012718675183
42
-0.41421356237303258
10
-147.82415226274009
20
-131.9001271867518
10
-147.82415226273994
20
-118.90012718675179
42
-0.41421356237310542
10
-147.32415226274
20
-118.40012718675183
10
-134.32460226274
20
-118.40012718675183
42
-0.40054022959940594
10
-133.8251522591421
20
-118.87668163480583
10
-133.82515225914224
20
-131.92357273870175
42
-0.40054022959806473
0
LWPOLYLINE
5
124
100
AcDbEntity
8
0
100
AcDbPolyline
90
8
70
1
43
0.0
10
-185.42415226274002
20
-118.40012718675143
42
0.4142135623730846
10
-185.92415226273999
20
-118.90012718675139
10
-185.92415226274025
20
-131.90012718675143
42
0.41421356237307422
10
-185.42415226274034
20
-132.40012718675143
10
-172.42460226274031
20
-132.4001271867528
42
0.40054022960109936
10
-171.92515225914212
20
-131.92357273869595
10
-171.92515225914192
20
-118.87668163481064
42
0.40054022960244984
10
-172.42460226274002
20
-118.40012718675135
0
LWPOLYLINE
5
125
100
AcDbEntity
8
0
100
AcDbPolyline
90
8
70
1
43
0.0
10
-219.55015225914195
20
-118.87668153942441
42
0.40054017419695076
10
-220.04960225826241
20
-118.40012718675138
10
-233.04915225826247
20
-118.40012718675138
42
0.41421356237303258
10
-233.54915225826232
20
-118.90012718675135
10
-233.54915225826255
20
-131.90012718675138
42
0.41421356237314705
10
-233.04915225826264
20
-132.40012718675138
10
-220.04960225826264
20
-132.4001271867528
42
0.40054017419550947
10
-219.55015225914218
20
-131.92357283408211
0
LWPOLYLINE
5
126
100
AcDbEntity
8
0
100
AcDbPolyline
90
8
70
1
43
0.0
10
-239.09980225826274
20
-132.4001271867524
10
-252.09935225826285
20
-132.40012718675081
42
-0.40595309060777224
10
-252.5991522591423
20
-131.91426787700274
10
-252.59915225914204
20
-118.88598649649987
42
-0.40595309060836227
10
-252.09935225826254
20
-118.40012718675082
10
-239.09980225826249
20
-118.40012718675084
42
-0.40329583448488021
10
-238.60015225914202
20
-118.88142215056189
10
-238.60015225914219
20
-131.91883222294334
42
-0.40329583448374517
0
LWPOLYLINE
5
127
100
AcDbEntity
8
0
100
AcDbPolyline
90
4
70
1
43
0.0
10
-261.62577225914208
20
-72.512027174665675
10
-43.838772259141678
20
-72.512027174667068
42
-0.99999999999999989
10
-43.838772259141834
20
-73.512027174668276
10
-261.62577225914208
20
-73.512027174667182
42
-0.99999999999999989
0
LWPOLYLINE
5
128
100
AcDbEntity
8
0
100
AcDbPolyline
90
5
70
1
43
0.0
10
-289.17688902177804
20
-110.61202717466406
42
0.97419606655338831
10
-289.15078332390232
20
-111.61134462311657
10
-289.15078333900686
20
-111.61202717466625
10
-29.551172259142312
20
-111.6120271746688
42
0.99999999999999989
10
-29.551172259142184
20
-110.61202717466698
0
LWPOLYLINE
5
129
100
AcDbEntity
8
0
100
AcDbPolyline
90
8
70
1
43
0.0
10
-300.493602258262
20
-76.037827176537817
10
-300.493602258262
20
-89.037827176539338
42
-0.41421356237303258
10
-300.99360225826206
20
-89.537827176539352
10
-313.99315225826206
20
-89.537827176537832
42
-0.41421356237304302
10
-314.49315225826206
20
-89.037827176537846
10
-314.49315225826189
20
-76.037827176537775
42
-0.41421356237307944
10
-313.993152258262
20
-75.537827176537903
10
-300.99360225826194
20
-75.537827176537789
42
-0.41421356237300139
0
LWPOLYLINE
5
130
100
AcDbEntity
8
0
100
AcDbPolyline
90
8
70
1
43
0.0
10
-333.56425091133201
20
-50.93812755305806
10
-333.56425091133195
20
-37.938127553058067
42
-0.41421356237299617
10
-333.06425091133184
20
-37.438127553058116
10
-320.06470091133195
20
-37.438127553058166
42
-0.41421356237311585
10
-319.56470091133207
20
-37.938127553058067
10
-319.56470091133201
20
-50.938127553059537
42
-0.41421356237323032
10
-320.06470091133212
20
-51.438127553059559
10
-333.06425091133207
20
-51.438127553057988
42
-0.41421356237323553
0
LWPOLYLINE
5
131
100
AcDbEntity
8
0
100
AcDbPolyline
90
8
70
1
43
0.0
10
-319.54340225826223
20
-76.037827176537888
10
-319.54340225826195
20
-89.037827176539338
42
-0.41421356237327195
10
-320.04340225826195
20
-89.537827176539366
10
-333.04295225826206
20
-89.537827176538016
42
-0.4142135623730222
10
-333.54295225826206
20
-89.037827176537888
10
-333.54295225826206
20
-76.037827176537846
42
-0.41421356237325113
10
-333.04295225826201
20
-75.537827176537974
10
-320.04340225826189
20
-75.537827176537874
42
-0.41421356237304302
0
LWPOLYLINE
5
132
100
AcDbEntity
8
0
100
AcDbPolyline
90
8
70
1
43
0.0
10
-300.493602258262
20
-95.087827176537957
10
-300.493602258262
20
-108.08782717653943
42
-0.4142135623730534
10
-300.99360225826206
20
-108.58782717653945
10
-313.99315225826206
20
-108.58782717653793
42
-0.41421356237303258
10
-314.49315225826206
20
-108.08782717653796
10
-314.49315225826189
20
-95.087827176537886
42
-0.4142135623730846
10
-313.993152258262
20
-94.587827176538013
10
-300.99360225826211
20
-94.587827176537928
42
-0.41421356237314705
0
LWPOLYLINE
5
133
100
AcDbEntity
8
0
100
AcDbPolyline
90
8
70
1
43
0.0
10
-320.04340225826229
20
-108.58782717653949
10
-333.0429522582624
20
-108.58782717653797
42
-0.41421356237312623
10
-333.54295225826235
20
-108.08782717653796
10
-333.54295225826218
20
-95.087827176537957
42
-0.41421356237303258
10
-333.04295225826223
20
-94.587827176538099
10
-320.04340225826206
20
-94.587827176537886
42
-0.41421356237295975
10
-319.54340225826218
20
-95.087827176537985
10
-319.54340225826218
20
-108.08782717653943
42
-0.41421356237307422
0
LWPOLYLINE
5
134
100
AcDbEntity
8
0
100
AcDbPolyline
90
8
70
1
43
0.0
10
-339.11259927826194
20
-89.537827176539082
10
-352.11214927826211
20
-89.537827176537789
42
-0.41421356237313667
10
-352.61214927826217
20
-89.037827176537675
10
-352.61214927826211
20
-76.037827176537547
42
-0.41421356237311585
10
-352.11214927826205
20
-75.537827176537618
10
-339.11259927826188
20
-75.537827176537519
42
-0.414213562373069
10
-338.61259927826205
20
-76.03782717653759
10
-338.61259927826205
20
-89.037827176539082
42
-0.41421356237315748
0
LWPOLYLINE
5
135
100
AcDbEntity
8
0
100
AcDbPolyline
90
138
70
1
43
0.0
10
-240.33842225914103
20
-37.937427174666134
10
-240.33842225914105
20
-52.96202717466619
42
0.41421356237306384
10
-239.83842225914091
20
-53.462027174666211
10
-222.78842225914099
20
-53.462027174666019
42
0.41421356237307944
10
-222.28842225914121
20
-52.962027174666204
10
-222.28842225914107
20
-37.937427174666112
42
-0.99999999999999989
10
-221.28842225914099
20
-37.937427174666148
10
-221.28842225914104
20
-52.96202717466619
42
0.41421356237295975
10
-220.78842225914113
20
-53.462027174666318
10
-203.73842225914109
20
-53.462027174666019
42
0.41421356237298579
10
-203.23842225914143
20
-52.962027174666233
10
-203.23842225914106
20
-37.937427174667128
42
-0.99999999999999989
10
-202.23842225914098
20
-37.937427174667107
10
-202.23842225914126
20
-52.962027174666233
42
0.4142135623730534
10
-201.73842225914115
20
-53.462027174666275
10
-184.68842225914108
20
-53.462027174666069
42
0.41421356237309503
10
-184.18842225914125
20
-52.96202717466624
10
-184.18842225914105
20
-37.937427174667178
42
-0.99999999999999989
10
-183.18842225914111
20
-37.937427174667064
10
-183.18842225914125
20
-52.96202717466624
42
0.41421356237313145
10
-182.68842225914119
20
-53.462027174666346
10
-165.63842225914127
20
-53.46202717466609
42
0.41421356237308982
10
-165.13842225914144
20
-52.962027174666268
10
-165.13842225914118
20
-37.937427174667199
42
-0.99999999999999989
10
-164.13842225914124
20
-37.937427174667185
10
-164.13842225914127
20
-52.962027174666268
42
0.41421356237312101
10
-163.63842225914118
20
-53.462027174666105
10
-146.58842225914125
20
-53.462027174666119
42
0.41421356237318346
10
-146.08842225914145
20
-52.962027174666289
10
-146.08842225914125
20
-37.937427174667185
42
-0.99999999999999989
10
-145.08842225914131
20
-37.937427174667235
10
-145.0884222591414
20
-52.962027174666275
42
0.41421356237310542
10
-144.58842225914128
20
-53.462027174666403
10
-127.53842225914133
20
-53.462027174666133
42
0.41421356237368817
10
-127.03842225914229
20
-52.96202717466624
10
-127.03842225914144
20
-37.937427174667228
42
-0.99999999999999989
10
-126.03842225914129
20
-37.937427174667214
10
-126.03842225914144
20
-52.962027174667199
42
0.41421356237315748
10
-125.53842225914141
20
-53.462027174667043
10
-108.48842225914134
20
-53.462027174667
42
0.41421356237325113
10
-107.98842225914136
20
-52.962027174667256
10
-107.98842225914136
20
-37.937427174667263
42
-0.99999999999999989
10
-106.98842225914142
20
-37.937427174667263
10
-106.98842225914149
20
-52.962027174667263
42
0.41421356237311585
10
-106.48842225914137
20
-53.462027174667377
10
-89.438422259141603
20
-53.462027174667028
42
0.41421356237311585
10
-88.938422259141774
20
-52.962027174667277
10
-88.938422259141561
20
-37.937427174667313
42
-0.99999999999999989
10
-87.938422259141504
20
-37.937427174667214
10
-87.938422259141461
20
-52.962027174667277
42
0.41421356237320428
10
-87.438422259141376
20
-53.462027174667156
10
-70.38842225914162
20
-53.462027174667035
42
0.41421356237318346
10
-69.888422259141691
20
-52.962027174667277
10
-69.888422259141478
20
-37.937427174667313
42
-0.99999999999999989
10
-68.88842225914145
20
-37.93742717466732
10
-68.888422259141592
20
-52.962027174667298
42
0.41421356237300661
10
-68.388422259141592
20
-53.462027174667391
10
-51.338422259141424
20
-53.462027174667035
42
0.4142135623730846
10
-50.838422259141751
20
-52.962027174667277
10
-50.838422259141581
20
-37.937427174668287
42
-0.99999999999999989
10
-49.838422259141637
20
-37.937427174668315
10
-49.838422259141652
20
-52.962027174668293
42
0.41421356237311585
10
-49.338422259141538
20
-53.462027174668336
10
-41.813422259141987
20
-53.462027174668918
42
-0.41421356237309159
10
-40.313422259141788
20
-54.962027174668961
10
-40.313422259142015
20
-69.986627174667944
42
-0.99999999999999989
10
-41.313422259142115
20
-69.986627174667845
10
-41.313422259141781
20
-54.962027174668961
42
0.4142135623730846
10
-41.813422259141987
20
-54.462027174668926
10
-58.863422259141828
20
-54.462027174669039
42
0.41421356237390666
10
-59.363422259140968
20
-54.962027174668876
10
-59.363422259141814
20
-69.986627174667973
42
-0.99999999999999989
10
-60.363422259142041
20
-69.986627174667973
10
-60.363422259141799
20
-54.962027174667931
42
0.414213562373069
10
-60.863422259141807
20
-54.462027174667952
10
-77.913422259141797
20
-54.462027174667973
42
0.41421356237302737
10
-78.413422259141811
20
-54.962027174667931
10
-78.413422259141825
20
-69.986627174667987
42
-0.99999999999999989
10
-79.413422259141825
20
-69.98662717466803
10
-79.413422259141782
20
-54.962027174667945
42
0.41421356237314189
10
-79.91342225914174
20
-54.462027174668101
10
-96.963422259141723
20
-54.462027174667959
42
0.41421356237310025
10
-97.463422259141694
20
-54.962027174667931
10
-97.463422259141709
20
-69.986627174667973
42
-0.99999999999999989
10
-98.463422259141694
20
-69.986627174667873
10
-98.463422259141709
20
-54.962027174667931
42
0.41421356237309503
10
-98.963422259141694
20
-54.462027174667938
10
-116.01342225914169
20
-54.462027174667909
42
0.41421356237309503
10
-116.51342225914171
20
-54.962027174667881
10
-116.51342225914171
20
-69.986627174667959
42
-0.99999999999999989
10
-117.51342225914165
20
-69.986627174667902
10
-117.51342225914171
20
-54.962027174667909
42
0.414213562373069
10
-118.01342225914168
20
-54.46202717466781
10
-135.0634222591417
20
-54.462027174667909
42
0.41421356237311063
10
-135.5634222591417
20
-54.962027174667881
10
-135.5634222591417
20
-69.986627174666765
42
-0.99999999999999989
10
-136.56342225914162
20
-69.986627174666779
10
-136.56342225914159
20
-54.962027174667881
42
0.41421356237306384
10
-137.0634222591417
20
-54.462027174667682
10
-154.1134222591416
20
-54.462027174667888
42
0.41421356237312623
10
-154.61342225914166
20
-54.962027174667853
10
-154.61342225914166
20
-69.986627174666808
42
-0.99999999999999989
10
-155.6134222591416
20
-69.986627174666808
10
-155.6134222591416
20
-54.962027174667853
42
0.41421356237315748
10
-156.11342225914166
20
-54.462027174667966
10
-173.16342225914158
20
-54.462027174667888
42
0.41421356237318868
10
-173.66342225914161
20
-54.962027174667853
10
-173.66342225914161
20
-69.986627174666808
42
-0.99999999999999989
10
-174.66342225914147
20
-69.986627174666779
10
-174.66342225914158
20
-54.962027174667853
42
0.41421356237307422
10
-175.16342225914141
20
-54.462027174667838
10
-192.21342225914157
20
-54.46202717466786
42
0.41421356237310025
10
-192.71342225914145
20
-54.962027174667831
10
-192.71342225914142
20
-69.986627174666808
42
-0.99999999999999989
10
-193.71342225914165
20
-69.986627174666765
10
-193.71342225914159
20
-54.962027174667824
42
0.41421356237379742
10
-194.21342225914159
20
-54.4620271746669
10
-211.26342225914158
20
-54.462027174667796
42
0.4142135623730846
10
-211.76342225914141
20
-54.962027174667767
10
-211.76342225914144
20
-69.986627174666737
42
-0.99999999999999989
10
-212.76342225914138
20
-69.986627174666836
10
-212.76342225914161
20
-54.962027174666815
42
0.41421356237310542
10
-213.26342225914149
20
-54.462027174666758
10
-230.31342225914105
20
-54.462027174666822
42
0.41421356237304818
10
-230.81342225914099
20
-54.962027174666801
10
-230.81342225914111
20
-69.986627174666737
42
-0.99999999999999989
10
-231.81342225914111
20
-69.986627174666822
10
-231.81342225914108
20
-54.962027174666815
42
0.41421356237307422
10
-232.31342225914096
20
-54.462027174666815
10
-249.363422259141
20
-54.462027174666801
42
0.41421356237369333
10
-249.86342225913987
20
-54.962027174666702
10
-249.86342225914112
20
-69.986627174666737
42
-0.99999999999999989
10
-250.86342225914092
20
-69.986627174666694
10
-250.8634222591408
20
-54.962027174665728
42
-0.41421356237310375
10
-249.363422259141
20
-53.462027174665856
10
-241.83842225914103
20
-53.462027174666019
42
0.41421356237307422
10
-241.33842225914091
20
-52.962027174666211
10
-241.33842225914091
20
-37.937427174666126
42
-0.99999999999999989
0
LWPOLYLINE
5
136
100
AcDbEntity
8
0
100
AcDbPolyline
90
6
70
1
43
0.0
10
-301.00767387284168
20
-73.513189669487133
42
0.99552053683270358
10
-301.01214119438129
20
-72.513209726213844
10
-352.11253045568407
20
-72.512545758205221
42
0.99569838883453388
10
-352.11684127863714
20
-73.512527174665351
10
-331.01155225914158
20
-73.512527174665379
10
-316.98680417978807
20
-73.512523053017674
0
LWPOLYLINE
5
137
100
AcDbEntity
8
0
100
AcDbPolyline
90
8
70
1
43
0.0
10
-32.671041389817873
20
-54.461227174668636
42
0.41421356237309243
10
-33.171041389817887
20
-54.961227174668636
10
-33.171041389818107
20
-69.98742717466817
42
-0.99999999999999989
10
-34.171041389818051
20
-69.987427174668142
10
-34.171041389818029
20
-54.961227174668501
42
-0.41421356237314622
10
-32.671041389817475
20
-53.461227174668494
10
-12.883335193408005
20
-53.461227174668622
42
-0.99999999999999989
10
-12.883335193408143
20
-54.461227174668707
0
LWPOLYLINE
5
138
100
AcDbEntity
8
0
100
AcDbPolyline
90
4
70
1
43
0.0
10
-11.738332259142144
20
-76.037827174667868
42
0.99999999999999989
10
-12.738332259142087
20
-76.037827174667868
10
-12.73833225914213
20
-89.037427174668295
42
0.99999999999999989
10
-11.738332259142163
20
-89.037427174668196
0
LWPOLYLINE
5
139
100
AcDbEntity
8
0
100
AcDbPolyline
90
156
70
1
43
0.0
10
-235.57592225914215
20
-93.062027174666909
10
-235.57592225914203
20
-108.08662717466706
42
-0.99999999999999989
10
-236.57592225914198
20
-108.0866271746671
10
-236.57592225914215
20
-93.062027174666909
42
0.41421356237309503
10
-237.07592225914212
20
-92.562027174666866
10
-254.1259222591421
20
-92.562027174666895
42
0.4142135623730222
10
-254.62592225914207
20
-93.062027174666895
10
-254.62592225914199
20
-108.08662717466601
42
-0.99999999999999989
10
-255.62592225914193
20
-108.08662717466601
10
-255.62592225914204
20
-93.062027174666909
42
0.41421356237300139
10
-256.1259222591421
20
-92.562027174666895
10
-263.65092225914105
20
-92.562027174665346
42
-0.41421356237308116
10
-265.15092225914117
20
-91.062027174665317
10
-265.15092225914105
20
-76.03742717466605
42
-0.99999999999999989
10
-264.150922259141
20
-76.037427174666078
10
-264.15092225914111
20
-91.062027174665317
42
0.41421356237301177
10
-263.65092225914117
20
-91.562027174665275
10
-246.6009222591411
20
-91.562027174665161
42
0.41421356237303258
10
-246.1009222591413
20
-91.062027174665332
10
-246.10092225914104
20
-76.037427174666107
42
-0.99999999999999989
10
-245.10092225914076
20
-76.037427174666163
10
-245.10092225914107
20
-91.062027174665317
42
0.4142135623730222
10
-244.60092225914113
20
-91.562027174665346
10
-227.55092225914112
20
-91.562027174665161
42
0.41421356237310542
10
-227.05092225914129
20
-91.062027174665317
10
-227.05092225914089
20
-76.037427174666135
42
-0.99999999999999989
10
-226.05092225914103
20
-76.037427174666078
10
-226.05092225914109
20
-91.062027174665332
42
0.41421356237425005
10
-225.55092225914112
20
-91.56202717466536
10
-208.50092225914153
20
-91.562027174666099
42
0.41421356237294937
10
-208.00092225914085
20
-91.06202717466536
10
-208.0009222591413
20
-76.037427174666135
42
-0.99999999999999989
10
-207.00092225914136
20
-76.037427174666135
10
-207.00092225914145
20
-91.062027174666298
42
0.41421356237306384
10
-206.50092225914153
20
-91.562027174666355
10
-189.45092225914163
20
-91.562027174666127
42
0.4142135623730534
10
-188.95092225914169
20
-91.062027174666355
10
-188.95092225914144
20
-76.037427174666078
42
-0.99999999999999989
10
-187.95092225914149
20
-76.037427174666078
10
-187.95092225914158
20
-91.062027174666355
42
0.41421356237299095
10
-187.45092225914161
20
-91.562027174666426
10
-170.40092225914162
20
-91.562027174666184
42
0.4142135623732095
10
-169.90092225914168
20
-91.062027174666412
10
-169.9009222591414
20
-76.037427174666178
42
-0.99999999999999989
10
-168.90092225914145
20
-76.037427174666178
10
-168.90092225914157
20
-91.062027174666355
42
0.41421356237291812
10
-168.40092225914165
20
-91.562027174666525
10
-151.35092225914164
20
-91.562027174666184
42
0.41421356237306384
10
-150.85092225914184
20
-91.062027174666426
10
-150.85092225914164
20
-76.037427174666206
42
-0.99999999999999989
10
-149.85092225914173
20
-76.037427174666135
10
-149.85092225914158
20
-91.062027174666412
42
0.41421356237311585
10
-149.35092225914164
20
-91.562027174666397
10
-132.30092225914166
20
-91.562027174666184
42
0.41421356237293894
10
-131.80092225914208
20
-91.062027174666426
10
-131.80092225914163
20
-76.037427174667414
42
-0.99999999999999989
10
-130.80092225914169
20
-76.037427174667357
10
-130.80092225914177
20
-91.062027174666426
42
0.4142135623730534
10
-130.30092225914177
20
-91.562027174666355
10
-113.2509222591417
20
-91.562027174666213
42
0.4142135623731783
10
-112.75092225914199
20
-91.062027174666426
10
-112.75092225914167
20
-76.037427174667457
42
-0.99999999999999989
10
-111.75092225914163
20
-76.037427174667499
10
-111.75092225914173
20
-91.062027174667406
42
0.41421356237255391
10
-111.25092225914175
20
-91.562027174666355
10
-94.20092225914189
20
-91.562027174666213
42
0.4142135623726268
10
-93.700922259141805
20
-91.062027174667463
10
-93.700922259141777
20
-76.037427174667471
42
-0.99999999999999989
10
-92.700922259141805
20
-76.037427174667428
10
-92.700922259141862
20
-91.062027174667406
42
0.41421356237251233
10
-92.200922259141862
20
-91.562027174666625
10
-75.150922259141865
20
-91.562027174667293
42
0.41421356237297013
10
-74.650922259142064
20
-91.062027174667435
10
-74.650922259141836
20
-76.037427174667499
42
-0.99999999999999989
10
-73.650922259141751
20
-76.037427174667428
10
-73.650922259141836
20
-91.062027174667421
42
0.4142135623731783
10
-73.150922259141836
20
-91.562027174667193
10
-56.100922259141896
20
-91.562027174667321
42
0.414213562373069
10
-55.600922259142038
20
-91.062027174667492
10
-55.600922259141832
20
-76.037427174667499
42
-0.99999999999999989
10
-54.600922259142031
20
-76.037427174667428
10
-54.600922259141754
20
-91.062027174667435
42
0.41421356237311585
10
-54.100922259141868
20
-91.562027174667435
10
-37.050922259141863
20
-91.562027174667264
42
0.41421356237319129
10
-36.550922259142105
20
-91.062027174667449
10
-36.550922259141821
20
-76.037427174667428
42
-0.99999999999999989
10
-35.550922259141885
20
-76.037427174667528
10
-35.550922259142105
20
-91.062027174668557
42
0.41421356237296497
10
-35.050922259141998
20
-91.5620271746687
10
-27.525922259142227
20
-91.562027174668145
42
-0.41421356237302831
10
-26.025922259142213
20
-93.06202717466816
10
-26.025922259142341
20
-108.08662717466831
42
-0.99999999999999989
10
-27.025922259142284
20
-108.08662717466824
10
-27.025922259142266
20
-93.062027174668117
42
0.41421356237287388
10
-27.525922259142227
20
-92.562027174668202
10
-44.575922259142196
20
-92.562027174668202
42
0.41421356237323032
10
-45.075922259142295
20
-93.062027174668103
10
-45.075922259142338
20
-108.08662717466829
42
-0.99999999999999989
10
-46.07592225914226
20
-108.08662717466825
10
-46.075922259142189
20
-93.062027174668117
42
0.4142135623732251
10
-46.57592225914216
20
-92.562027174668344
10
-63.625922259142186
20
-92.562027174668202
42
0.41421356237319906
10
-64.1259222591423
20
-93.062027174668103
10
-64.1259222591422
20
-108.08662717466829
42
-0.99999999999999989
10
-65.125922259142143
20
-108.08662717466825
10
-65.125922259142214
20
-93.062027174668103
42
0.41421356237308982
10
-65.625922259142172
20
-92.562027174668088
10
-82.675922259142155
20
-92.562027174668188
42
0.4142135623731783
10
-83.175922259142197
20
-93.062027174668088
10
-83.175922259142126
20
-108.08662717466822
42
-0.99999999999999989
10
-84.175922259142212
20
-108.08662717466822
10
-84.175922259142197
20
-93.062027174668088
42
0.41421356237319906
10
-84.675922259142169
20
-92.562027174668117
10
-101.72592225914217
20
-92.562027174668188
42
0.41421356237310542
10
-102.2259222591421
20
-93.062027174668046
10
-102.22592225914211
20
-108.08662717466723
42
-0.99999999999999989
10
-103.22592225914219
20
-108.08662717466723
10
-103.22592225914212
20
-93.062027174668088
42
0.41421356237313667
10
-103.72592225914211
20
-92.562027174668202
10
-120.77592225914208
20
-92.562027174668145
42
0.41421356237309503
10
-121.27592225914205
20
-93.062027174668046
10
-121.27592225914211
20
-108.08662717466723
42
-0.99999999999999989
10
-122.27592225914208
20
-108.08662717466716
10
-122.27592225914208
20
-93.062027174668032
42
0.41421356237310542
10
-122.77592225914205
20
-92.562027174667975
10
-139.82592225914203
20
-92.562027174668088
42
0.4142135623732095
10
-140.32592225914217
20
-93.062027174668032
10
-140.325922259142
20
-108.08662717466719
42
-0.99999999999999989
10
-141.32592225914192
20
-108.08662717466719
10
-141.32592225914192
20
-93.062027174667037
42
0.41421356237330315
10
-141.82592225914206
20
-92.562027174667321
10
-158.87592225914193
20
-92.562027174668088
42
0.41421356237282447
10
-159.37592225914213
20
-93.062027174667065
10
-159.37592225914193
20
-108.08662717466714
42
-0.99999999999999989
10
-160.37592225914187
20
-108.08662717466714
10
-160.37592225914193
20
-93.062027174667037
42
0.41421356237260598
10
-160.8759222591419
20
-92.562027174668188
10
-177.92592225914188
20
-92.562027174668088
42
0.414213562372658
10
-178.425922259142
20
-93.062027174667037
10
-178.42592225914186
20
-108.08662717466714
42
-0.99999999999999989
10
-179.42592225914171
20
-108.0866271746671
10
-179.42592225914194
20
-93.062027174666966
42
0.41421356237319906
10
-179.92592225914208
20
-92.562027174666994
10
-196.97592225914192
20
-92.562027174666937
42
0.41421356237301177
10
-197.4759222591419
20
-93.062027174666923
10
-197.47592225914175
20
-108.08662717466714
42
-0.99999999999999989
10
-198.47592225914184
20
-108.08662717466714
10
-198.47592225914184
20
-93.062027174666966
42
0.4142135623730846
10
-198.9759222591417
20
-92.56202717466698
10
-216.02592225914194
20
-92.562027174666909
42
0.41421356237307422
10
-216.52592225914196
20
-93.062027174666923
10
-216.52592225914188
20
-108.08662717466704
42
-0.99999999999999989
10
-217.52592225914174
20
-108.08662717466704
10
-217.52592225914185
20
-93.062027174666923
42
0.41421356237315748
10
-218.02592225914194
20
-92.562027174667037
10
-235.07592225914212
20
-92.562027174666895
42
0.41421356237313667
0
LWPOLYLINE
5
140
100
AcDbEntity
8
0
100
AcDbPolyline
90
4
70
1
43
0.0
10
-30.788522259142191
20
-76.037427174667513
10
-30.788522259142411
20
-89.037427174668281
42
-0.99999999999999989
10
-31.788522259142344
20
-89.037427174668281
10
-31.78852225914185
20
-76.037427174667513
42
-0.99999999999999989
0
LWPOLYLINE
5
141
100
AcDbEntity
8
0
100
AcDbPolyline
90
8
70
1
43
0.0
10
-110.49290524273978
20
-51.436327186754141
42
0.33484207458835985
10
-110.01215225914152
20
-51.073719212583207
10
-110.0121522591415
20
-37.798935160923641
42
0.31415864442679942
10
-110.45551503078329
20
-37.437727174668993
10
-123.52984545469342
20
-37.437727174668829
42
0.39245651741817605
10
-123.99245524273965
20
-37.936327186752656
10
-123.99245524273977
20
-50.936327186752649
42
0.41421356237306384
10
-123.49245524273985
20
-51.436327186752642
0
LWPOLYLINE
5
142
100
AcDbEntity
8
0
100
AcDbPolyline
90
8
70
1
43
0.0
10
-72.392905242739573
20
-51.436327186754589
42
0.33443842423361059
10
-71.912352259141301
20
-51.074417121054168
10
-71.912352259141201
20
-37.798237252453859
42
0.31375986324179456
10
-72.355515030785028
20
-37.437727174669263
10
-85.42984545469109
20
-37.437727174669121
42
0.39245651741939513
10
-85.892455242739402
20
-37.936327186753061
10
-85.892455242739558
20
-50.936327186753083
42
0.41421356237312101
10
-85.392455242739643
20
-51.436327186753118
0
LWPOLYLINE
5
143
100
AcDbEntity
8
0
100
AcDbPolyline
90
8
70
1
43
0.0
10
-12.381062262739306
20
-56.987427186753607
42
0.41421356237306772
10
-12.881062262739267
20
-56.487427186753578
10
-30.644372231694899
20
-56.487427186752342
42
0.41421358055878432
10
-31.144372231694941
20
-56.987427217797219
10
-31.144371424460225
20
-69.988527217797241
42
0.41421354418742418
10
-30.644371424460239
20
-70.48852718675235
10
-12.881062262739329
20
-70.488527186752748
42
0.41421356237310802
10
-12.381062262739304
20
-69.988527186752719
0
LWPOLYLINE
5
144
100
AcDbEntity
8
0
100
AcDbPolyline
90
8
70
1
43
0.0
10
-29.049852259141616
20
-95.072017888735218
42
0.40498118768438679
10
-29.549602262739626
20
-94.587827186752506
10
-42.549152262739618
20
-94.587827186752506
42
0.4142135623730846
10
-43.049152262739554
20
-95.087827186752492
10
-43.049152262739668
20
-108.08782718675249
42
0.414213562373069
10
-42.549152262739739
20
-108.58782718675251
10
-29.549602262739711
20
-108.58782718675393
42
0.4049811876818869
10
-29.04985225914178
20
-108.10363648477549
0
LWPOLYLINE
5
145
100
AcDbEntity
8
0
100
AcDbPolyline
90
8
70
1
43
0.0
10
-67.649802262739726
20
-108.58782718675342
10
-80.649352262739754
20
-108.58782718675187
42
-0.40595299840262783
10
-81.149152259141729
20
-108.10196803525997
10
-81.149152259141658
20
-95.07368633824467
42
-0.40595299840316529
10
-80.649352262739669
20
-94.587827186751923
10
-67.649802262739655
20
-94.587827186751937
42
-0.41007758087625096
10
-67.149852259141653
20
-95.080756550121691
10
-67.149852259141738
20
-108.09489782338859
42
-0.41007758087340274
0
LWPOLYLINE
5
146
100
AcDbEntity
8
0
100
AcDbPolyline
90
8
70
1
43
0.0
10
-128.27395226273939
20
-75.53782718675221
10
-115.27440226273933
20
-75.537827186752168
42
-0.39825868000201403
10
-114.77515225914161
20
-76.010451396212417
10
-114.77515225914172
20
-89.065202977295556
42
-0.39825868000078501
10
-115.27440226273939
20
-89.537827186753788
10
-128.27395226273947
20
-89.537827186752281
42
-0.41421356237310542
10
-128.77395226273939
20
-89.037827186752281
10
-128.7739522627393
20
-76.037827186752168
42
-0.41421356237312101
0
LWPOLYLINE
5
147
100
AcDbEntity
8
0
100
AcDbPolyline
90
8
70
1
43
0.0
10
-214.49895226273958
20
-108.08782718675118
42
0.41421356237307422
10
-213.99895226273969
20
-108.58782718675121
10
-200.99940226273961
20
-108.58782718675265
42
0.39825868000432812
10
-200.50015225914166
20
-108.1152029772884
10
-200.50015225914169
20
-95.060451396213708
42
0.39825868000345038
10
-200.99940226273969
20
-94.587827186751184
10
-213.99895226273955
20
-94.587827186751298
42
0.41421356237304302
10
-214.49895226273946
20
-95.087827186751184
0
LWPOLYLINE
5
148
100
AcDbEntity
8
0
100
AcDbPolyline
90
8
70
1
43
0.0
10
-185.42395226273931
20
-75.537827186751727
42
0.41421356237312101
10
-185.92395226273919
20
-76.037827186751642
10
-185.92395226273936
20
-89.037827186751713
42
0.4142135623730534
10
-185.42395226273948
20
-89.537827186751741
10
-172.42440226273939
20
-89.537827186753162
42
0.3982586800028749
10
-171.9251522591415
20
-89.065202977291477
10
-171.9251522591415
20
-76.010451396212886
42
0.39825868000255626
10
-172.42440226273931
20
-75.53782718675167
0
LWPOLYLINE
5
149
100
AcDbEntity
8
0
100
AcDbPolyline
90
8
70
1
43
0.0
10
-171.61745524273985
20
-69.987427186751347
10
-171.61745524273965
20
-56.98742718675134
42
-0.402545174964208
10
-171.1374509404472
20
-56.487827174668539
10
-158.09790954503006
20
-56.487827174668574
42
-0.32375705856727338
10
-157.63715225914149
20
-56.850035160922864
10
-157.63715225914157
20
-70.124819212581855
42
-0.33484207458838028
10
-158.11790524273991
20
-70.487427186752811
10
-171.11745524273994
20
-70.487427186751333
42
-0.41421356237310542
0
LWPOLYLINE
5
150
100
AcDbEntity
8
0
100
AcDbPolyline
90
8
70
1
43
0.0
10
-210.5244022627393
20
-89.537827186752835
42
0.39825868000249243
10
-210.02515225914155
20
-89.065202977291761
10
-210.02515225914146
20
-76.010451396213114
42
0.39825868000300219
10
-210.5244022627393
20
-75.537827186751258
10
-223.52395226273927
20
-75.537827186751286
42
0.41421356237312101
10
-224.02395226273921
20
-76.037827186751258
10
-224.02395226273933
20
-89.037827186751329
42
0.41421356237307422
10
-223.52395226273941
20
-89.537827186751343
0
LWPOLYLINE
5
151
100
AcDbEntity
8
0
100
AcDbPolyline
90
8
70
1
43
0.0
10
-219.5501522591417
20
-95.064381634805471
10
-219.5501522591417
20
-108.11127273869681
42
-0.40054022960023156
10
-220.04960226273968
20
-108.58782718675221
10
-233.04915226273982
20
-108.5878271867507
42
-0.41421356237310542
10
-233.54915226273974
20
-108.0878271867507
10
-233.5491522627396
20
-95.087827186750701
42
-0.41421356237311585
10
-233.04915226273971
20
-94.587827186750758
10
-220.04960226273982
20
-94.587827186750687
42
-0.4005402295999434
0
LWPOLYLINE
5
152
100
AcDbEntity
8
0
100
AcDbPolyline
90
8
70
1
43
0.0
10
-229.07515225914159
20
-76.014381634803328
10
-229.07515225914159
20
-89.061272738700723
42
-0.40054022959803387
10
-229.57460226273949
20
-89.537827186752267
10
-242.57415226273949
20
-89.53782718675086
42
-0.41421356237312623
10
-243.07415226273946
20
-89.037827186750874
10
-243.07415226273932
20
-76.037827186750761
42
-0.41421356237308982
10
-242.57415226273937
20
-75.537827186750832
10
-229.57460226273938
20
-75.537827186750789
42
-0.40054022959853408
0
LWPOLYLINE
5
153
100
AcDbEntity
8
0
100
AcDbPolyline
90
8
70
1
43
0.0
10
-237.82964545469247
20
-37.437727174667998
42
0.39245651741867293
10
-238.29225524273949
20
-37.93632718675191
10
-238.29225524273969
20
-50.936327186751889
42
0.4142135623730534
10
-237.79225524273983
20
-51.43632718675191
10
-224.79270524273971
20
-51.436327186753381
42
0.33443842423338355
10
-224.31215225914158
20
-51.074417121053401
10
-224.31215225914139
20
-37.798237252452182
42
0.31375986324174299
10
-224.75531503078545
20
-37.437727174668048
0
LWPOLYLINE
5
154
100
AcDbEntity
8
0
100
AcDbPolyline
90
8
70
1
43
0.0
10
-148.59270524273956
20
-51.436327186754184
42
0.33443842423306508
10
-148.11215225914157
20
-51.074417121054708
10
-148.11215225914145
20
-37.798237252452502
42
0.31375986324351002
10
-148.55531503078919
20
-37.437727174668609
10
-161.62964545468861
20
-37.437727174668566
42
0.39245651742079801
10
-162.09225524273933
20
-37.936327186752699
10
-162.09225524273958
20
-50.936327186752727
42
0.41421356237307944
10
-161.59225524273961
20
-51.436327186752742
0
LWPOLYLINE
5
155
100
AcDbEntity
8
0
100
AcDbPolyline
90
8
70
1
43
0.0
10
-204.4739522627394
20
-75.5378271867514
42
0.4142135623730846
10
-204.97395226273932
20
-76.037827186751358
10
-204.97395226273949
20
-89.037827186751443
42
0.41421356237313667
10
-204.47395226273954
20
-89.537827186751443
10
-191.47440226273946
20
-89.537827186752935
42
0.39825868000362719
10
-190.97515225914154
20
-89.065202977289914
10
-190.97515225914151
20
-76.010451396213881
42
0.39825868000336401
10
-191.4744022627394
20
-75.537827186751343
0
LWPOLYLINE
5
156
100
AcDbEntity
8
0
100
AcDbPolyline
90
8
70
1
43
0.0
10
-181.94940226273968
20
-108.58782718675275
10
-194.94895226273968
20
-108.5878271867513
42
-0.41421356237314705
10
-195.44895226273974
20
-108.08782718675127
10
-195.44895226273962
20
-95.087827186751269
42
-0.41421356237295975
10
-194.94895226273982
20
-94.587827186751355
10
-181.94940226273982
20
-94.587827186751255
42
-0.39825868000457376
10
-181.4501522591417
20
-95.060451396215711
10
-181.4501522591417
20
-108.11520297728784
42
-0.39825868000469911
0
LWPOLYLINE
5
157
100
AcDbEntity
8
0
100
AcDbPolyline
90
8
70
1
43
0.0
10
-124.29940226273955
20
-95.087827186752037
42
0.41421356237310542
10
-124.79940226273955
20
-94.587827186752037
10
-137.79895226273953
20
-94.587827186752065
42
0.4142135623730534
10
-138.29895226273945
20
-95.08782718675198
10
-138.29895226273956
20
-108.08782718675204
42
0.41421356237310542
10
-137.79895226273965
20
-108.58782718675204
10
-124.79940226273959
20
-108.58782718675349
42
0.41421356237311585
10
-124.29940226273955
20
-108.08782718675351
0
LWPOLYLINE
5
158
100
AcDbEntity
8
0
100
AcDbPolyline
90
8
70
1
43
0.0
10
-95.724852259141514
20
-76.0220178887337
10
-95.724852259141556
20
-89.053636484775012
42
-0.40498118768201818
10
-96.224602262739509
20
-89.537827186753617
10
-109.22415226273958
20
-89.537827186752111
42
-0.41421356237310542
10
-109.72415226273951
20
-89.037827186752097
10
-109.72415226273939
20
-76.037827186751997
42
-0.41421356237310025
10
-109.22415226273947
20
-75.537827186752097
10
-96.224602262739467
20
-75.537827186751997
42
-0.40498118768373581
0
LWPOLYLINE
5
159
100
AcDbEntity
8
0
100
AcDbPolyline
90
8
70
1
43
0.0
10
-57.624852259141612
20
-76.022017888722672
42
0.40498118767709995
10
-58.124602262739231
20
-75.537827186752452
10
-71.12415226273923
20
-75.537827186752494
42
0.41421356237311585
10
-71.624152262739159
20
-76.037827186752452
10
-71.624152262739273
20
-89.03782718675258
42
0.4142135623730534
10
-71.124152262739344
20
-89.537827186752551
10
-58.124602262739288
20
-89.537827186754015
42
0.40498118767691382
10
-57.624852259141626
20
-89.053636484784164
0
LWPOLYLINE
5
160
100
AcDbEntity
8
0
100
AcDbPolyline
90
8
70
1
43
0.0
10
-14.762302262739626
20
-76.03782718675231
42
0.41421356237307944
10
-15.262302262739624
20
-75.537827186752352
10
-28.261852262739637
20
-75.537827186752352
42
0.41421356237310802
10
-28.761852262739559
20
-76.03782718675231
10
-28.761852262739676
20
-89.037827186752423
42
0.41421356237309764
10
-28.261852262739751
20
-89.537827186752409
10
-15.262302262739706
20
-89.537827186753901
42
0.41421356237315227
10
-14.762302262739642
20
-89.037827186753859
0
LWPOLYLINE
5
161
100
AcDbEntity
8
0
100
AcDbPolyline
90
8
70
1
43
0.0
10
-95.417655242739855
20
-69.987427186751731
10
-95.41765524273977
20
-56.987427186751695
42
-0.40254517496197256
10
-94.937650940451078
20
-56.487827174669071
10
-81.898109545025619
20
-56.487827174669142
42
-0.3237570585652994
10
-81.437352259141193
20
-56.850035160924037
10
-81.437352259141406
20
-70.124819212581556
42
-0.33484207458876752
10
-81.918105242739884
20
-70.487427186753195
10
-94.91765524273994
20
-70.487427186751745
42
-0.41421356237304818
0
LWPOLYLINE
5
162
100
AcDbEntity
8
0
100
AcDbPolyline
90
8
70
1
43
0.0
10
-133.03725094043867
20
-56.487827174668759
10
-119.99770954503759
20
-56.487827174668851
42
-0.3233560563934087
10
-119.53715225914145
20
-56.849337252452855
10
-119.53715225914159
20
-70.125517121052994
42
-0.33443842423360698
10
-120.01770524273986
20
-70.487427186753408
10
-133.01725524273994
20
-70.487427186751944
42
-0.41421356237308982
10
-133.51725524273985
20
-69.987427186751901
10
-133.51725524273971
20
-56.987427186751837
42
-0.40254517496919667
0
LWPOLYLINE
5
163
100
AcDbEntity
8
0
100
AcDbPolyline
90
8
70
1
43
0.0
10
-152.56725524273972
20
-69.987427186751844
10
-152.56725524273963
20
-56.987427186751781
42
-0.40254517497011633
10
-152.08725094043697
20
-56.487827174668624
10
-139.04770954503857
20
-56.487827174668737
42
-0.32335605639374371
10
-138.58715225914148
20
-56.849337252452329
10
-138.58715225914159
20
-70.125517121053392
42
-0.33443842423333725
10
-139.06770524273978
20
-70.487427186753322
10
-152.0672552427398
20
-70.487427186751859
42
-0.41421356237304818
0
LWPOLYLINE
5
164
100
AcDbEntity
8
0
100
AcDbPolyline
90
8
70
1
43
0.0
10
-100.96790524273996
20
-70.487427186753237
42
0.33443842423382675
10
-100.4873522591416
20
-70.125517121052468
10
-100.48735225914145
20
-56.849337252453019
42
0.32335605638870019
10
-100.94790954502884
20
-56.487827174669036
10
-113.98745094044544
20
-56.487827174668872
42
0.40254517496533437
10
-114.46745524273986
20
-56.987427186751759
10
-114.46745524273993
20
-69.987427186751773
42
0.41421356237306384
10
-113.96745524274004
20
-70.487427186751788
0
LWPOLYLINE
5
165
100
AcDbEntity
8
0
100
AcDbPolyline
90
8
70
1
43
0.0
10
-66.379845454692514
20
-37.437727174669298
42
0.39245651741867543
10
-66.842455242739547
20
-37.936327186753182
10
-66.842455242739661
20
-50.936327186753196
42
0.41421356237307944
10
-66.342455242739746
20
-51.436327186753196
10
-53.342905242739683
20
-51.436327186754639
42
0.33443842423397119
10
-52.862352259141232
20
-51.074417121053592
10
-52.862352259141218
20
-37.798237252454271
42
0.31375986324207666
10
-53.305515030785308
20
-37.437727174669348
0
LWPOLYLINE
5
166
100
AcDbEntity
8
0
100
AcDbPolyline
90
8
70
1
43
0.0
10
-43.817905242739897
20
-70.487427186753777
10
-56.817455242739932
20
-70.487427186752313
42
-0.41421356237310025
10
-57.317455242739854
20
-69.987427186752299
10
-57.317455242739726
20
-56.987427186752235
42
-0.40254517496624764
10
-56.837450940443766
20
-56.487827174669334
10
-43.797909545031317
20
-56.487827174669469
42
-0.32335605639007037
10
-43.33735225914139
20
-56.849337252453502
10
-43.337352259141333
20
-70.12551712105234
42
-0.3344384242342075
0
LWPOLYLINE
5
167
100
AcDbEntity
8
0
100
AcDbPolyline
90
8
70
1
43
0.0
10
-38.574852259141608
20
-76.022017888726211
10
-38.574852259141672
20
-89.053636484782658
42
-0.40498118767782187
10
-39.074602262739397
20
-89.537827186754129
10
-52.074152262739453
20
-89.53782718675258
42
-0.41421356237306384
10
-52.574152262739375
20
-89.03782718675258
10
-52.574152262739261
20
-76.037827186752509
42
-0.41421356237307944
10
-52.074152262739339
20
-75.537827186752608
10
-39.074602262739347
20
-75.537827186752537
42
-0.40498118767911939
0
LWPOLYLINE
5
168
100
AcDbEntity
8
0
100
AcDbPolyline
90
8
70
1
43
0.0
10
-77.174802262739405
20
-89.537827186753475
10
-90.174352262739461
20
-89.537827186752054
42
-0.4059529984066535
10
-90.674152259141607
20
-89.051968035253267
10
-90.674152259141465
20
-76.023686338250457
42
-0.40595299840644639
10
-90.174352262739333
20
-75.537827186752025
10
-77.174802262739377
20
-75.537827186751969
42
-0.41007758087036789
10
-76.674852259141474
20
-76.03075655011169
10
-76.674852259141602
20
-89.044897823401897
42
-0.41007758086562573
0
LWPOLYLINE
5
169
100
AcDbEntity
8
0
100
AcDbPolyline
90
8
70
1
43
0.0
10
-105.74940226273968
20
-108.5878271867536
10
-118.74895226273975
20
-108.58782718675214
42
-0.41421356237307422
10
-119.24895226273969
20
-108.08782718675211
10
-119.24895226273959
20
-95.087827186752079
42
-0.41421356237306384
10
-118.74895226273965
20
-94.587827186752165
10
-105.74940226273964
20
-94.587827186752079
42
-0.41421356237309503
10
-105.24940226273964
20
-95.087827186752094
10
-105.24940226273964
20
-108.08782718675359
42
-0.41421356237312623
0
LWPOLYLINE
5
170
100
AcDbEntity
8
0
100
AcDbPolyline
90
8
70
1
43
0.0
10
-157.34915226273966
20
-108.08782718675153
10
-157.34915226273964
20
-95.087827186751468
42
-0.4142135623730222
10
-156.84915226273964
20
-94.587827186751582
10
-143.84960226273964
20
-94.587827186751539
42
-0.40054022959918928
10
-143.35015225914179
20
-95.064381634805187
10
-143.35015225914177
20
-108.11127273870029
42
-0.4005402295986446
10
-143.84960226273972
20
-108.58782718675302
10
-156.84915226273978
20
-108.58782718675155
42
-0.41421356237310542
0
LWPOLYLINE
5
171
100
AcDbEntity
8
0
100
AcDbPolyline
90
8
70
1
43
0.0
10
-153.37460226273944
20
-89.537827186753162
42
0.40054022959562086
10
-152.87515225914174
20
-89.061272738705696
10
-152.8751522591416
20
-76.014381634802206
42
0.40054022959745061
10
-153.37460226273933
20
-75.537827186751585
10
-166.37415226273919
20
-75.53782718675167
42
0.41421356237310025
10
-166.87415226273913
20
-76.037827186751613
10
-166.87415226273927
20
-89.037827186751713
42
0.41421356237310542
10
-166.3741522627393
20
-89.537827186751699
0
LWPOLYLINE
5
172
100
AcDbEntity
8
0
100
AcDbPolyline
90
8
70
1
43
0.0
10
-176.68715225914139
20
-56.849337252452521
10
-176.68715225914158
20
-70.125517121052056
42
-0.33443842423385284
10
-177.16770524273994
20
-70.487427186752882
10
-190.16725524273997
20
-70.487427186751447
42
-0.41421356237311063
10
-190.66725524274
20
-69.987427186751404
10
-190.66725524273974
20
-56.987427186751383
42
-0.40254517496790676
10
-190.18725094044086
20
-56.487827174668325
10
-177.14770954503362
20
-56.487827174668496
42
-0.32335605639128501
0
LWPOLYLINE
5
173
100
AcDbEntity
8
0
100
AcDbPolyline
90
8
70
1
43
0.0
10
-205.74270524273985
20
-51.436327186753488
10
-218.74225524273987
20
-51.436327186751988
42
-0.41421356237309503
10
-219.24225524273982
20
-50.936327186751981
10
-219.24225524273962
20
-37.936327186751981
42
-0.39245651741890081
10
-218.77964545469212
20
-37.437727174668069
10
-205.70531503078428
20
-37.437727174668254
42
-0.31375986324141847
10
-205.26215225914126
20
-37.798237252453134
10
-205.26215225914143
20
-51.074417121052626
42
-0.33443842423379722
0
LWPOLYLINE
5
174
100
AcDbEntity
8
0
100
AcDbPolyline
90
8
70
1
43
0.0
10
-247.33745094045148
20
-56.487827174667864
10
-234.29790954502326
20
-56.487827174668013
42
-0.32375705856352571
10
-233.83715225914148
20
-56.850035160922118
10
-233.83715225914159
20
-70.124819212580462
42
-0.33484207458868376
10
-234.31790524274004
20
-70.487427186752001
10
-247.3174552427401
20
-70.487427186750537
42
-0.41421356237307422
10
-247.81745524274001
20
-69.987427186750523
10
-247.81745524273987
20
-56.987427186750509
42
-0.40254517496181769
0
LWPOLYLINE
5
175
100
AcDbEntity
8
0
100
AcDbPolyline
90
8
70
1
43
0.0
10
-350.61215226299873
20
-55.613383290447693
42
0.41421356237310197
10
-352.11215226299879
20
-57.113383290447644
10
-352.1121522629989
20
-65.862971062394891
42
0.41421356237307599
10
-350.61215226299902
20
-67.362971062394877
10
-343.18325339092246
20
-67.362971062394934
42
0.41421356237311585
10
-341.68325339092229
20
-65.862971062394905
10
-341.6832533909224
20
-57.113383290447658
42
0.41421356237308293
10
-343.18325339092223
20
-55.613383290447736
0
LWPOLYLINE
5
176
100
AcDbEntity
8
0
100
AcDbPolyline
90
8
70
1
43
0.0
10
-262.12395226273952
20
-89.037827186750874
42
0.4142135623730534
10
-261.62395226273964
20
-89.537827186750917
10
-248.62440226273952
20
-89.537827186752352
42
0.39825868000364667
10
-248.12515225914157
20
-89.065202977289402
10
-248.12515225914157
20
-76.010451396214606
42
0.39825868000407016
10
-248.62440226273949
20
-75.537827186750818
10
-261.62395226273952
20
-75.537827186750874
42
0.4142135623730846
10
-262.12395226273941
20
-76.037827186750832
0
LWPOLYLINE
5
177
100
AcDbEntity
8
0
100
AcDbPolyline
90
8
70
1
43
0.0
10
-239.09940226273986
20
-108.58782718675224
10
-252.09895226273986
20
-108.58782718675072
42
-0.41421356237309503
10
-252.59895226273983
20
-108.08782718675074
10
-252.59895226273969
20
-95.087827186750729
42
-0.41421356237314705
10
-252.09895226273977
20
-94.587827186750744
10
-239.09940226273989
20
-94.587827186750729
42
-0.39825868000526665
10
-238.60015225914168
20
-95.060451396216479
10
-238.60015225914168
20
-108.11520297728603
42
-0.3982586800055235
0
LWPOLYLINE
5
178
100
AcDbEntity
8
0
100
AcDbPolyline
90
8
70
1
43
0.0
10
-214.78715225914141
20
-56.849337252452003
10
-214.78715225914158
20
-70.125517121051772
42
-0.33443842423374837
10
-215.26770524273991
20
-70.487427186752512
10
-228.26725524273996
20
-70.487427186750992
42
-0.41421356237304302
10
-228.76725524273994
20
-69.987427186751006
10
-228.76725524273968
20
-56.987427186750999
42
-0.40254517496616971
10
-228.28725094044393
20
-56.48782717466807
10
-215.24770954503339
20
-56.487827174668091
42
-0.32335605639103143
0
LWPOLYLINE
5
179
100
AcDbEntity
8
0
100
AcDbPolyline
90
8
70
1
43
0.0
10
-186.21215225914125
20
-37.798237252453291
42
0.3137598632431064
10
-186.65531503078734
20
-37.43772717466836
10
-199.72964545469029
20
-37.437727174668268
42
0.3924565174199906
10
-200.19225524273949
20
-37.936327186752294
10
-200.19225524273978
20
-50.936327186752301
42
0.41421356237307422
10
-199.69225524273983
20
-51.436327186752322
10
-186.69270524273972
20
-51.436327186753772
42
0.3344384242334737
10
-186.21215225914159
20
-51.074417121053663
0
LWPOLYLINE
5
180
100
AcDbEntity
8
0
100
AcDbPolyline
90
8
70
1
43
0.0
10
-167.16215225914129
20
-37.798935160923094
42
0.31415864442703029
10
-167.60551503078358
20
-37.437727174668524
10
-180.67984545469241
20
-37.437727174668368
42
0.39245651741865484
10
-181.1424552427394
20
-37.936327186752251
10
-181.14245524273966
20
-50.93632718675223
42
0.41421356237312623
10
-180.64245524273969
20
-51.436327186752266
10
-167.64290524273972
20
-51.436327186753743
42
0.33484207458820359
10
-167.16215225914155
20
-51.073719212583185
0
LWPOLYLINE
5
181
100
AcDbEntity
8
0
100
AcDbPolyline
90
8
70
1
43
0.0
10
-209.71725524274004
20
-69.98742718675112
42
0.41421356237313667
10
-209.21725524274009
20
-70.48742718675112
10
-196.21770524273998
20
-70.487427186752541
42
0.33443842423398235
10
-195.73715225914157
20
-70.125517121051473
10
-195.73715225914142
20
-56.849337252452436
42
0.32335605638951681
10
-196.19770954503011
20
-56.48782717466829
10
-209.23725094044588
20
-56.487827174668226
42
0.40254517496509118
10
-209.71725524273984
20
-56.987427186751077
0
LWPOLYLINE
5
182
100
AcDbEntity
8
0
100
AcDbPolyline
90
8
70
1
43
0.0
10
-176.39895226273964
20
-108.0878271867516
10
-176.3989522627395
20
-95.087827186751568
42
-0.41421356237300139
10
-175.89895226273967
20
-94.58782718675161
10
-162.8994022627397
20
-94.58782718675161
42
-0.39825868000397552
10
-162.40015225914166
20
-95.060451396215029
10
-162.40015225914166
20
-108.11520297728941
42
-0.39825868000407938
10
-162.8994022627397
20
-108.58782718675306
10
-175.89895226273967
20
-108.5878271867516
42
-0.41421356237311585
0
LWPOLYLINE
5
183
100
AcDbEntity
8
0
100
AcDbPolyline
90
8
70
1
43
0.0
10
-134.32440226273931
20
-89.537827186753645
10
-147.32395226273937
20
-89.537827186752139
42
-0.41421356237310542
10
-147.82395226273928
20
-89.037827186752139
10
-147.82395226273914
20
-76.037827186752082
42
-0.4142135623730534
10
-147.32395226273928
20
-75.537827186752139
10
-134.32440226273926
20
-75.537827186752097
42
-0.39825868000108022
10
-133.82515225914162
20
-76.010451396210684
10
-133.82515225914173
20
-89.065202977297432
42
-0.39825867999973086
0
LWPOLYLINE
5
184
100
AcDbEntity
8
0
100
AcDbPolyline
90
8
70
1
43
0.0
10
-86.199852259141636
20
-95.072017888737989
42
0.40498118768635172
10
-86.699602262739745
20
-94.587827186751937
10
-99.699152262739759
20
-94.58782718675198
42
0.41421356237312623
10
-100.19915226273973
20
-95.087827186751937
10
-100.19915226273982
20
-108.08782718675195
42
0.41421356237307422
10
-99.699152262739858
20
-108.58782718675198
10
-86.699602262739788
20
-108.58782718675344
42
0.40498118768300151
10
-86.199852259141807
20
-108.10363648477306
0
LWPOLYLINE
5
185
100
AcDbEntity
8
0
100
AcDbPolyline
90
8
70
1
43
0.0
10
-61.599152262739523
20
-94.587827186752449
42
0.4142135623730534
10
-62.099152262739452
20
-95.087827186752335
10
-62.099152262739572
20
-108.08782718675239
42
0.4142135623730846
10
-61.599152262739636
20
-108.58782718675238
10
-48.59960226273958
20
-108.58782718675388
42
0.40498118768102553
10
-48.099852259141691
20
-108.10363648477697
10
-48.099852259141613
20
-95.07201788873148
42
0.40498118768228669
10
-48.599602262739523
20
-94.587827186752435
0
LWPOLYLINE
5
186
100
AcDbEntity
8
0
100
AcDbPolyline
90
8
70
1
43
0.0
10
-62.387352259141302
20
-56.849337252453218
10
-62.387352259141437
20
-70.125517121053051
42
-0.33443842423373266
10
-62.867905242739759
20
-70.487427186753663
10
-75.867455242739823
20
-70.487427186752171
42
-0.41421356237307944
10
-76.367455242739737
20
-69.9874271867522
10
-76.367455242739638
20
-56.987427186752186
42
-0.40254517496577785
10
-75.887450940444538
20
-56.487827174669249
10
-62.847909545033041
20
-56.487827174669306
42
-0.32335605639096399
0
LWPOLYLINE
5
187
100
AcDbEntity
8
0
100
AcDbPolyline
90
8
70
1
43
0.0
10
-91.443105242739691
20
-51.436327186754092
10
-104.44265524273976
20
-51.436327186752628
42
-0.41421356237312101
10
-104.9426552427397
20
-50.936327186752628
10
-104.94265524273956
20
-37.936327186752621
42
-0.39245651741634408
10
-104.48004545469658
20
-37.43772717466905
10
-91.405715030780939
20
-37.437727174669064
42
-0.31415864442585684
10
-90.962352259141227
20
-37.798935160924017
10
-90.962352259141412
20
-51.073719212583029
42
-0.33484207458843857
0
LWPOLYLINE
5
188
100
AcDbEntity
8
0
100
AcDbPolyline
90
8
70
1
43
0.0
10
-142.57964545468982
20
-37.437727174668737
10
-129.50531503078778
20
-37.437727174668794
42
-0.31375986324291083
10
-129.06215225914144
20
-37.798237252453028
10
-129.0621522591415
20
-51.074417121054083
42
-0.33443842423346526
10
-129.54270524273969
20
-51.436327186754298
10
-142.54225524273974
20
-51.436327186752834
42
-0.41421356237311063
10
-143.04225524273966
20
-50.936327186752813
10
-143.04225524273954
20
-37.93632718675277
42
-0.39245651742018217
0
LWPOLYLINE
5
189
100
AcDbEntity
8
0
100
AcDbPolyline
90
4
70
1
43
0.0
10
-293.69915226009869
20
-108.08562717466475
10
-293.69915226010323
20
-37.936327174667767
42
-0.99999999999999989
10
-292.69915226012364
20
-37.936327174667284
10
-292.69915226009869
20
-108.08562717466475
42
-0.99999999999999989
0
LWPOLYLINE
5
190
100
AcDbEntity
8
0
100
AcDbPolyline
90
4
70
1
43
0.0
10
-298.51215226006593
20
-108.08562717466513
42
0.99999999999999989
10
-297.51215226006599
20
-108.08562717466513
10
-297.51215226009089
20
-37.936327174667696
42
0.99999999999999989
10
-298.51215226007048
20
-37.936327174668193
0
LWPOLYLINE
5
191
100
AcDbEntity
8
0
100
AcDbPolyline
90
8
70
1
43
0.0
10
-191.49379928274018
20
-132.40012718675266
42
0.41421356237309503
10
-190.9937992827401
20
-131.90012718675266
10
-190.99379928273999
20
-118.90012718675115
42
0.4142135623730846
10
-191.49379928273999
20
-118.40012718675111
10
-204.49334928273998
20
-118.40012718675118
42
0.33494330880139261
10
-204.97415225914207
20
-118.76291021300921
10
-204.97415225914233
20
-132.03734416049318
42
0.33494330880135853
10
-204.49334928274027
20
-132.40012718675121
0
LWPOLYLINE
5
192
100
AcDbEntity
8
0
100
AcDbPolyline
90
8
70
1
43
0.0
10
-153.37480226274025
20
-132.4001271867528
10
-166.37435226274022
20
-132.40012718675138
42
-0.40595299840334165
10
-166.87415225914219
20
-131.91426803525826
10
-166.87415225914205
20
-118.88598633824542
42
-0.40595299840389037
10
-166.37435226273996
20
-118.4001271867514
10
-153.37480226274013
20
-118.40012718675135
42
-0.40329590406101751
10
-152.87515225914217
20
-118.88142227016422
10
-152.87515225914217
20
-131.91883210334163
42
-0.40329590406012938
0
LWPOLYLINE
5
193
100
AcDbEntity
8
0
100
AcDbPolyline
90
8
70
1
43
0.0
10
-118.76834928274019
20
-118.4001271867518
42
0.33494330880147505
10
-119.24915225914222
20
-118.76291021300993
10
-119.24915225914236
20
-132.03734416049349
42
0.3349433088015224
10
-118.76834928274033
20
-132.40012718675183
10
-105.76879928274032
20
-132.40012718675322
42
0.41421356237315748
10
-105.26879928274016
20
-131.90012718675322
10
-105.26879928274015
20
-118.90012718675175
42
0.41421356237310542
10
-105.76879928274013
20
-118.40012718675175
0
LWPOLYLINE
5
194
100
AcDbEntity
8
0
100
AcDbPolyline
90
8
70
1
43
0.0
10
-333.56304927378432
20
-31.888627567959755
42
0.4142135623731939
10
-333.06304927378449
20
-32.388627567959723
10
-320.06349927378437
20
-32.388627567961208
42
0.41421356237323553
10
-319.56349927378432
20
-31.888627567961212
10
-319.56349927378437
20
-18.888627567959769
42
0.41421356237309503
10
-320.06349927378437
20
-18.388627567959809
10
-333.0630492737842
20
-18.388627567959748
42
0.41421356237294804
10
-333.56304927378432
20
-18.888627567959752
0
LWPOLYLINE
5
195
100
AcDbEntity
8
0
100
AcDbPolyline
90
8
70
1
43
0.0
10
-60.506152262739278
20
-32.388627186753801
10
-75.886652262739574
20
-32.388627186752188
42
-0.41421356237309764
10
-76.386652262739503
20
-31.888627186752156
10
-76.386652262739432
20
-18.887777186752153
42
-0.41421356237311974
10
-75.886652262739375
20
-18.387777186752153
10
-60.506152262739157
20
-18.387777186753866
42
-0.4142135623730781
10
-60.006152262739221
20
-18.88777718675388
10
-60.006152262739256
20
-31.888627186753844
42
-0.41421356237314966
0
LWPOLYLINE
5
196
100
AcDbEntity
8
0
100
AcDbPolyline
90
8
70
1
43
0.0
10
-28.261852262739431
20
-18.387777186752523
42
0.41421356237312362
10
-28.761852262739495
20
-18.887777186752508
10
-28.76185226273947
20
-31.888627186752526
42
0.41421356237308721
10
-28.261852262739531
20
-32.38862718675248
10
-12.881062262739164
20
-32.388627186754128
42
0.41421356237308593
10
-12.381062262739118
20
-31.888627186754192
10
-12.381062262739137
20
-18.887777186754185
42
0.4142135623730625
10
-12.88106226273908
20
-18.387777186754192
0
LWPOLYLINE
5
197
100
AcDbEntity
8
0
100
AcDbPolyline
90
8
70
1
43
0.0
10
-61.599152262740034
20
-118.40012718675248
42
0.41421356237305862
10
-62.099152262739963
20
-118.90012718675237
10
-62.099152262740077
20
-131.90012718675246
42
0.41421356237307944
10
-61.599152262740155
20
-132.40012718675248
10
-48.599602262740106
20
-132.40012718675396
42
0.40498118768183189
10
-48.099852259142168
20
-131.91593648477573
10
-48.099852259142175
20
-118.88431788873078
42
0.40498118768181618
10
-48.599602262740042
20
-118.40012718675251
0
LWPOLYLINE
5
198
100
AcDbEntity
8
0
100
AcDbPolyline
90
8
70
1
43
0.0
10
-277.21879927826274
20
-132.40012718675209
10
-290.21834927826285
20
-132.40012718675064
42
-0.33494331787425707
10
-290.69915225914224
20
-132.03734414480371
10
-290.69915225914207
20
-118.76291022869763
42
-0.33494331787427356
10
-290.21834927826256
20
-118.40012718675069
10
-277.21879927826257
20
-118.40012718675061
42
-0.41421356237307422
10
-276.71879927826251
20
-118.90012718675061
10
-276.71879927826268
20
-131.90012718675212
42
-0.41421356237303258
0
LWPOLYLINE
5
199
100
AcDbEntity
8
0
100
AcDbPolyline
90
8
70
1
43
0.0
10
-300.99360225826246
20
-132.40012717653951
10
-313.99315225826246
20
-132.40012717653806
42
-0.41421356237301177
10
-314.49315225826246
20
-131.90012717653806
10
-314.49315225826228
20
-118.90012717653798
42
-0.41421356237312623
10
-313.99315225826234
20
-118.40012717653804
10
-300.99360225826229
20
-118.40012717653804
42
-0.4142135623730222
10
-300.49360225826234
20
-118.90012717653802
10
-300.49360225826234
20
-131.90012717653951
42
-0.4142135623730534
0
LWPOLYLINE
5
200
100
AcDbEntity
8
0
100
AcDbPolyline
90
8
70
1
43
0.0
10
-333.04295225826246
20
-118.40012717653813
42
0.4142135623730846
10
-333.54295225826235
20
-118.90012717653804
10
-333.54295225826263
20
-131.90012717653806
42
0.4142135623732095
10
-333.04295225826263
20
-132.40012717653809
10
-320.04340225826246
20
-132.40012717653963
42
0.41421356237311585
10
-319.54340225826257
20
-131.90012717653957
10
-319.54340225826235
20
-118.90012717653809
42
0.41421356237318868
10
-320.04340225826246
20
-118.40012717653809
0
LWPOLYLINE
5
201
100
AcDbEntity
8
0
100
AcDbPolyline
90
8
70
1
43
0.0
10
-25.526022259142394
20
-115.37552717466859
10
-10.499802259142154
20
-115.37552717466987
42
-0.99999999999999989
10
-10.499802259142296
20
-116.37552717466974
10
-25.526022259142465
20
-116.37552717466953
42
0.41421356237378182
10
-26.02602225914152
20
-116.87552717466957
10
-26.026022259142827
20
-131.90012717466968
42
-0.99999999999999989
10
-27.026022259142621
20
-131.90012717466973
10
-27.026022259142451
20
-116.87552717466858
42
-0.41421356237314361
0
LWPOLYLINE
5
202
100
AcDbEntity
8
0
100
AcDbPolyline
90
30
70
1
43
0.0
10
-149.34965225914206
20
-116.37552717466711
42
0.41421356237319906
10
-149.84965225914206
20
-116.87552717466707
10
-149.84965225914198
20
-131.90012717466712
42
-0.99999999999999989
10
-150.84965225914198
20
-131.90012717466712
10
-150.84965225914192
20
-116.87552717466707
42
0.41421356237312623
10
-151.34965225914192
20
-116.37552717466707
10
-168.39965225914176
20
-116.37552717466706
42
0.4142135623730534
10
-168.89965225914179
20
-116.87552717466707
10
-168.89965225914187
20
-131.90012717466706
42
-0.99999999999999989
10
-169.89965225914182
20
-131.90012717466706
10
-169.89965225914176
20
-116.87552717466707
42
0.41421356237303258
10
-170.39965225914162
20
-116.37552717466711
10
-187.44965225914157
20
-116.37552717466697
42
0.41421356237315748
10
-187.94965225914157
20
-116.87552717466694
10
-187.94965225914169
20
-131.90012717466655
42
-0.99999999999999989
10
-188.94965225914163
20
-131.90012717466655
10
-188.94965225914149
20
-116.87552717466696
42
0.4142135623730846
10
-189.44965225914154
20
-116.37552717466698
10
-206.49965225914141
20
-116.37552717466703
42
0.41421356237307422
10
-206.99965225914141
20
-116.87552717466693
10
-206.9996522591415
20
-131.90012717466601
42
-0.99999999999999989
10
-207.99965225914144
20
-131.90012717466598
10
-207.9996522591415
20
-116.87552717466694
42
-0.41421356237309853
10
-206.49965225914139
20
-115.37552717466696
10
-132.29965225914225
20
-115.37552717466723
42
-0.41421356237311585
10
-130.79965225914225
20
-116.87552717466713
10
-130.79965225914225
20
-131.90012717466712
42
-0.99999999999999989
10
-131.79965225914225
20
-131.90012717466712
10
-131.79965225914225
20
-116.87552717466713
42
0.41421356237315748
10
-132.29965225914225
20
-116.37552717466717
0
LWPOLYLINE
5
203
100
AcDbEntity
8
0
100
AcDbPolyline
90
30
70
1
43
0.0
10
-46.074352259142266
20
-131.90012717466783
10
-46.074352259142238
20
-116.87552717466775
42
0.41421356237313667
10
-46.574352259142238
20
-116.37552717466789
10
-63.624352259142086
20
-116.37552717466784
42
0.41421356237305862
10
-64.124352259142071
20
-116.87552717466778
10
-64.124352259142
20
-129.90012717466777
42
-0.99999999999999989
10
-65.124352259142043
20
-129.90012717466774
10
-65.124352259141972
20
-116.87552717466779
42
0.41421356237307944
10
-65.624352259141986
20
-116.37552717466782
10
-82.674352259141841
20
-116.37552717466774
42
0.41421356237310542
10
-83.174352259141827
20
-116.87552717466771
10
-83.174352259141926
20
-131.90012723600032
42
-0.99999999999999989
10
-84.17435225914187
20
-131.90012723600032
10
-84.17435225914187
20
-116.87552717466771
42
0.41421356237309503
10
-84.674352259141841
20
-116.37552717466774
10
-101.72435225914165
20
-116.37552717466767
42
0.4142135623730846
10
-102.22435225914175
20
-116.87552717466757
10
-102.22435225914174
20
-131.9001271746672
42
-0.99999999999999989
10
-103.22435225914168
20
-131.9001271746672
10
-103.22435225914157
20
-116.87552717466764
42
0.41421356237311585
10
-103.72435225914161
20
-116.37552717466767
10
-120.77435225914147
20
-116.37552717466762
42
0.41421356237310542
10
-121.27435225914149
20
-116.87552717466757
10
-121.27435225914155
20
-131.90012717466664
42
-0.99999999999999989
10
-122.27435225914149
20
-131.90012717466661
10
-122.27435225914151
20
-116.87552717466757
42
-0.41421356237309853
10
-120.77435225914147
20
-115.37552717466761
10
-46.574352259142245
20
-115.37552717466795
42
-0.41421356237311063
10
-45.074352259142294
20
-116.87552717466775
10
-45.074352259142231
20
-131.90012717466777
42
-0.99999999999999989
0
LWPOLYLINE
5
204
100
AcDbEntity
8
0
100
AcDbPolyline
90
22
70
1
43
0.0
10
-317.56035225914422
20
-116.85432144509626
42
0.4142135623730222
10
-318.06035225914405
20
-116.35432144509637
10
-335.11035225914407
20
-116.35432144509625
42
0.41421356237310542
10
-335.61035225914395
20
-116.85432144509616
10
-335.61035225914407
20
-129.87892144509632
42
-0.99999999999999989
10
-336.61035225914418
20
-129.87892144509624
10
-336.61035225914412
20
-116.8543214450962
42
0.4142135623730222
10
-337.11035225914407
20
-116.35432144509622
10
-352.11230225914159
20
-116.35432144509623
42
-0.40405453829073812
10
-352.61214927826182
20
-115.87157776509576
10
-352.61214927826188
20
-115.83676512509794
42
-0.40405453829070864
10
-352.11230225914159
20
-115.35402144509743
10
-299.01055225820772
20
-115.35402144521079
42
-0.41421356237308815
10
-297.51055225829282
20
-116.85402144529576
10
-297.51055225914394
20
-131.87892144509632
42
-0.99999999999999989
10
-298.51055225914388
20
-131.87892144509632
10
-298.51055225914411
20
-116.85332723054798
42
0.41423064179378949
10
-299.01058141536282
20
-116.35332723139805
10
-316.06038141536305
20
-116.3543214467974
42
0.41419648315856389
10
-316.56035225829294
20
-116.85432144509628
10
-316.56035225914411
20
-131.87892144509638
42
-0.99999999999999989
10
-317.560352259144
20
-131.87892144509627
0
LWPOLYLINE
5
205
100
AcDbEntity
8
0
100
AcDbPolyline
90
8
70
1
43
0.0
10
-112.60765226273902
20
-18.138202186753393
42
0.4142135623730846
10
-113.10765226273901
20
-18.6382021867534
10
-113.10765226273908
20
-20.638202186753393
42
0.41421356237311846
10
-112.60765226273907
20
-21.138202186753404
10
-109.60765226273907
20
-21.1382021867534
42
0.41421356237310281
10
-109.10765226273907
20
-20.638202186753411
10
-109.10765226273902
20
-18.6382021867534
42
0.41421356237307161
10
-109.60765226273907
20
-18.138202186753404
0
LWPOLYLINE
5
206
100
AcDbEntity
8
0
100
AcDbPolyline
90
56
70
1
43
0.0
10
-35.408092262739935
20
-37.434427186751414
10
-22.408592262739763
20
-37.434427186751456
42
-0.4142135623730534
10
-21.908592262739862
20
-37.934427186751428
10
-21.908592262739862
20
-42.134927186751426
10
-20.383092262739883
20
-42.134927186751426
10
-20.383092262739918
20
-38.164627186751446
42
-0.4142135623732589
10
-19.883092262739911
20
-37.664627186751446
10
-18.657792262739864
20
-37.664627186751439
10
-18.6577922627399
20
-36.964327186751447
42
-0.41421356237309243
10
-18.157792262739893
20
-36.464327186751447
10
-15.858782262739769
20
-36.46432718675149
42
-0.4142135623730534
10
-15.358782262739869
20
-36.964327186751461
10
-15.358782262739869
20
-37.664627186751446
10
-14.133492262739864
20
-37.664627186751488
42
-0.41421356237309243
10
-13.633492262739896
20
-38.16462718675146
10
-13.633492262739892
20
-43.934727186751431
10
-13.308022262739811
20
-43.934727186751431
42
-0.41421356237305079
10
-12.808022262739915
20
-44.434727186751402
10
-12.808022262739883
20
-46.234827186751403
42
-0.41421356237309503
10
-13.30802226273989
20
-46.734827186751403
10
-13.633492262739901
20
-46.734827186751403
10
-13.633492262739935
20
-49.46502718675147
42
-0.41421356237307422
10
-14.133492262739942
20
-49.965027186751442
10
-19.883092262739773
20
-49.965027186751399
42
-0.41421356237317697
10
-20.383092262739886
20
-49.465027186751428
10
-20.383092262739883
20
-46.734827186751403
10
-21.908592262739862
20
-46.734827186751403
10
-21.908592262739862
20
-50.935227186751405
42
-0.41421356237313667
10
-22.408592262739905
20
-51.435227186751376
10
-35.408092262739935
20
-51.435227186751447
42
-0.41421356237313667
10
-35.908092262739906
20
-50.935227186751405
10
-35.908092262739906
20
-46.734827186751403
10
-37.433592262739886
20
-46.734827186751396
10
-37.433592262739921
20
-49.465027186751421
42
-0.41421356237309503
10
-37.933592262739928
20
-49.965027186751428
10
-43.683092262739798
20
-49.965027186751392
42
-0.41421356237313667
10
-44.183092262739841
20
-49.465027186751421
10
-44.183092262739841
20
-46.734827186751396
10
-44.508592262739846
20
-46.73482718675136
42
-0.41421356237313667
10
-45.008592262739889
20
-46.234827186751389
10
-45.008592262739924
20
-44.434727186751431
42
-0.41421356237309503
10
-44.508592262739917
20
-43.934727186751424
10
-44.183092262739841
20
-43.934727186751424
10
-44.183092262739947
20
-38.164627186751446
42
-0.41421356237311324
10
-43.68309226273994
20
-37.66462718675141
10
-42.457892262739854
20
-37.664627186751403
10
-42.45789226273989
20
-36.964327186751412
42
-0.41421356237309243
10
-41.957892262739882
20
-36.464327186751412
10
-39.657492262739858
20
-36.464327186751447
42
-0.41421356237309503
10
-39.157492262739886
20
-36.964327186751419
10
-39.157492262739886
20
-37.664627186751403
10
-37.933592262739857
20
-37.664627186751446
42
-0.41421356237326151
10
-37.433592262739886
20
-38.164627186751417
10
-37.433592262739886
20
-42.134927186751419
10
-35.908092262739906
20
-42.134927186751426
10
-35.908092262739942
20
-37.934427186751456
42
-0.41421356237311324
0
LWPOLYLINE
5
207
100
AcDbEntity
8
0
100
AcDbPolyline
90
56
70
1
43
0.0
10
-273.5321922627399
20
-37.43442718674963
10
-260.53269226273972
20
-37.434427186749673
42
-0.4142135623730534
10
-260.03269226273983
20
-37.934427186749645
10
-260.03269226273983
20
-42.134927186749636
10
-258.50719226273986
20
-42.134927186749636
10
-258.50719226273986
20
-38.164627186749669
42
-0.41421356237326151
10
-258.00719226273986
20
-37.664627186749662
10
-256.7818922627398
20
-37.664627186749662
10
-256.78189226273986
20
-36.964327186749671
42
-0.41421356237309503
10
-256.28189226273986
20
-36.464327186749664
10
-253.98288226273974
20
-36.464327186749699
42
-0.4142135623730534
10
-253.48288226273982
20
-36.964327186749671
10
-253.48288226273982
20
-37.664627186749662
10
-252.25759226273982
20
-37.664627186749698
42
-0.41421356237309503
10
-251.75759226273985
20
-38.164627186749669
10
-251.75759226273985
20
-43.934727186749647
10
-251.43212226273977
20
-43.934727186749647
42
-0.4142135623730534
10
-250.93212226273988
20
-44.434727186749619
10
-250.93212226273982
20
-46.234827186749612
42
-0.41421356237309503
10
-251.43212226273985
20
-46.734827186749619
10
-251.75759226273985
20
-46.734827186749619
10
-251.75759226273988
20
-49.46502718674968
42
-0.41421356237307422
10
-252.25759226273991
20
-49.965027186749651
10
-258.00719226273975
20
-49.965027186749609
42
-0.4142135623731783
10
-258.50719226273986
20
-49.465027186749637
10
-258.50719226273986
20
-46.734827186749612
10
-260.03269226273983
20
-46.734827186749612
10
-260.03269226273983
20
-50.935227186749614
42
-0.41421356237313667
10
-260.53269226273989
20
-51.435227186749586
10
-273.5321922627399
20
-51.435227186749657
42
-0.41421356237313667
10
-274.03219226273984
20
-50.935227186749614
10
-274.03219226273984
20
-46.734827186749612
10
-275.55769226273986
20
-46.734827186749612
10
-275.55769226273986
20
-49.465027186749637
42
-0.41421356237309503
10
-276.05769226273986
20
-49.965027186749644
10
-281.80719226273976
20
-49.965027186749609
42
-0.41421356237313667
10
-282.30719226273982
20
-49.465027186749637
10
-282.30719226273982
20
-46.734827186749612
10
-282.63269226273979
20
-46.734827186749577
42
-0.41421356237313667
10
-283.13269226273985
20
-46.234827186749605
10
-283.13269226273985
20
-44.434727186749647
42
-0.41421356237309503
10
-282.63269226273985
20
-43.93472718674964
10
-282.30719226273982
20
-43.93472718674964
10
-282.30719226273993
20
-38.164627186749662
42
-0.41421356237311324
10
-281.80719226273987
20
-37.664627186749627
10
-280.58199226273979
20
-37.66462718674962
10
-280.58199226273985
20
-36.964327186749628
42
-0.41421356237309243
10
-280.08199226273985
20
-36.464327186749628
10
-277.78159226273982
20
-36.464327186749664
42
-0.41421356237309503
10
-277.28159226273982
20
-36.964327186749635
10
-277.28159226273982
20
-37.66462718674962
10
-276.05769226273981
20
-37.664627186749662
42
-0.41421356237326151
10
-275.55769226273986
20
-38.164627186749634
10
-275.55769226273986
20
-42.134927186749636
10
-274.03219226273984
20
-42.134927186749636
10
-274.0321922627399
20
-37.934427186749673
42
-0.41421356237311324
0
LWPOLYLINE
5
208
100
AcDbEntity
8
0
100
AcDbPolyline
90
56
70
1
43
0.0
10
-267.67769226274038
20
-108.58532718674972
10
-280.67719226274056
20
-108.58532718674968
42
-0.4142135623730534
10
-281.1771922627405
20
-108.08532718674971
10
-281.1771922627405
20
-103.88482718674972
10
-282.70269226274047
20
-103.88482718674972
10
-282.70269226274041
20
-107.85512718674968
42
-0.41421356237326151
10
-283.20269226274041
20
-108.3551271867497
10
-284.42799226274047
20
-108.3551271867497
10
-284.42799226274042
20
-109.05542718674968
42
-0.41421356237309503
10
-284.92799226274042
20
-109.5554271867497
10
-287.2270022627406
20
-109.55542718674965
42
-0.4142135623730534
10
-287.72700226274048
20
-109.05542718674968
10
-287.72700226274048
20
-108.3551271867497
10
-288.95229226274046
20
-108.35512718674966
42
-0.41421356237309503
10
-289.45229226274046
20
-107.85512718674968
10
-289.45229226274046
20
-102.08502718674971
10
-289.77776226274051
20
-102.08502718674971
42
-0.4142135623730534
10
-290.27776226274045
20
-101.58502718674974
10
-290.27776226274045
20
-99.784927186749741
42
-0.41421356237309503
10
-289.77776226274045
20
-99.284927186749741
10
-289.45229226274046
20
-99.284927186749741
10
-289.4522922627404
20
-96.554727186749687
42
-0.41421356237307422
10
-288.9522922627404
20
-96.054727186749716
10
-283.20269226274058
20
-96.054727186749744
42
-0.4142135623731783
10
-282.70269226274047
20
-96.554727186749716
10
-282.70269226274047
20
-99.284927186749741
10
-281.1771922627405
20
-99.284927186749741
10
-281.1771922627405
20
-95.084527186749739
42
-0.41421356237313667
10
-280.67719226274045
20
-94.584527186749767
10
-267.67769226274038
20
-94.584527186749696
42
-0.41421356237313667
10
-267.17769226274044
20
-95.084527186749739
10
-267.17769226274044
20
-99.284927186749741
10
-265.65219226274047
20
-99.284927186749741
10
-265.65219226274041
20
-96.554727186749716
42
-0.41421356237309503
10
-265.15219226274041
20
-96.054727186749716
10
-259.40269226274052
20
-96.054727186749744
42
-0.41421356237313667
10
-258.90269226274052
20
-96.554727186749716
10
-258.90269226274052
20
-99.284927186749741
10
-258.57719226274048
20
-99.284927186749769
42
-0.41421356237313667
10
-258.07719226274048
20
-99.784927186749741
10
-258.07719226274043
20
-101.5850271867497
42
-0.41421356237309503
10
-258.57719226274043
20
-102.08502718674971
10
-258.90269226274052
20
-102.08502718674971
10
-258.9026922627404
20
-107.85512718674968
42
-0.41421356237311585
10
-259.4026922627404
20
-108.35512718674974
10
-260.62789226274049
20
-108.35512718674974
10
-260.62789226274043
20
-109.05542718674972
42
-0.41421356237309503
10
-261.12789226274049
20
-109.55542718674974
10
-263.42829226274046
20
-109.5554271867497
42
-0.41421356237309503
10
-263.92829226274046
20
-109.05542718674972
10
-263.92829226274046
20
-108.35512718674974
10
-265.15219226274047
20
-108.3551271867497
42
-0.41421356237326151
10
-265.65219226274047
20
-107.85512718674973
10
-265.65219226274047
20
-103.88482718674972
10
-267.17769226274044
20
-103.88482718674972
10
-267.17769226274038
20
-108.08532718674968
42
-0.41421356237311585
0
LWPOLYLINE
5
209
100
AcDbEntity
8
0
100
AcDbPolyline
90
8
70
1
43
0.0
10
-285.43695226273957
20
-75.537127186750951
10
-272.43695226273962
20
-75.537127186750936
42
-0.41421356237309503
10
-271.93695226273962
20
-76.037127186750951
10
-271.93695226273962
20
-89.03782718675096
42
-0.41421356237307422
10
-272.43695226273962
20
-89.537827186750931
10
-285.43695226273957
20
-89.537827186750931
42
-0.41421356237313667
10
-285.93695226273957
20
-89.037827186750917
10
-285.93695226273957
20
-76.037127186750951
42
-0.41421356237309503
0
LWPOLYLINE
5
210
100
AcDbEntity
8
0
100
AcDbPolyline
90
56
70
1
43
0.0
10
-278.2941922627399
20
-56.484427186749627
42
0.41421356237313667
10
-278.79419226273995
20
-56.984427186749599
10
-278.79419226273995
20
-61.184827186749601
10
-280.31969226273992
20
-61.184827186749601
10
-280.31969226273992
20
-58.454627186749576
42
0.4142135623731783
10
-280.81969226274003
20
-57.954627186749534
10
-286.56929226273985
20
-57.954627186749605
42
0.41421356237309503
10
-287.06929226273991
20
-58.454627186749576
10
-287.06929226273991
20
-61.184827186749601
10
-287.39476226273996
20
-61.184827186749601
42
0.41421356237309503
10
-287.8947622627399
20
-61.684827186749644
10
-287.8947622627399
20
-63.484927186749601
42
0.4142135623730534
10
-287.39476226274002
20
-63.984927186749573
10
-287.06929226273991
20
-63.984927186749573
10
-287.06929226273991
20
-69.755027186749544
42
0.41421356237309503
10
-286.56929226273996
20
-70.255027186749558
10
-285.34400226273993
20
-70.255027186749558
10
-285.34400226273993
20
-70.955327186749543
42
0.4142135623730534
10
-284.84400226274005
20
-71.455327186749514
10
-282.54499226273992
20
-71.455327186749557
42
0.41421356237309503
10
-282.04499226273992
20
-70.955327186749543
10
-282.04499226273992
20
-70.255027186749558
10
-280.81969226273992
20
-70.255027186749558
42
0.41421356237326151
10
-280.31969226273986
20
-69.755027186749544
10
-280.31969226273992
20
-65.784727186749578
10
-278.79419226273995
20
-65.784727186749578
10
-278.79419226273995
20
-69.985227186749569
42
0.4142135623730534
10
-278.29419226274007
20
-70.48522718674954
10
-265.29469226273989
20
-70.485227186749583
42
0.41421356237311585
10
-264.79469226274
20
-69.98522718674954
10
-264.79469226273989
20
-65.784727186749578
10
-263.26919226273992
20
-65.784727186749578
10
-263.26919226273992
20
-69.755027186749587
42
0.41421356237326151
10
-262.76919226273998
20
-70.255027186749558
10
-261.54529226273996
20
-70.255027186749587
10
-261.54529226273996
20
-70.955327186749585
42
0.41421356237309503
10
-261.04529226273996
20
-71.455327186749585
10
-258.74489226273994
20
-71.455327186749585
42
0.41421356237309503
10
-258.24489226274
20
-70.955327186749585
10
-258.24489226274
20
-70.255027186749587
10
-257.01969226273991
20
-70.255027186749587
42
0.41421356237311585
10
-256.51969226273997
20
-69.755027186749544
10
-256.51969226273997
20
-63.984927186749573
10
-256.19419226273988
20
-63.984927186749573
42
0.41421356237309503
10
-255.69419226273993
20
-63.484927186749601
10
-255.69419226273993
20
-61.684827186749644
42
0.41421356237313667
10
-256.19419226273999
20
-61.184827186749601
10
-256.51969226273997
20
-61.184827186749601
10
-256.51969226273997
20
-58.454627186749576
42
0.41421356237313667
10
-257.01969226274002
20
-57.954627186749605
10
-262.76919226273992
20
-57.954627186749605
42
0.41421356237309503
10
-263.26919226273986
20
-58.454627186749576
10
-263.26919226273992
20
-61.184827186749601
10
-264.79469226273989
20
-61.184827186749601
10
-264.79469226273989
20
-56.984427186749599
42
0.41421356237313667
10
-265.29469226273989
20
-56.484427186749556
0
LWPOLYLINE
5
211
100
AcDbEntity
8
0
100
AcDbPolyline
90
56
70
1
43
0.0
10
-144.92370524273966
20
-18.386377186752899
10
-131.92270524273962
20
-18.386377186752934
42
-0.41421356237309503
10
-131.4227052427396
20
-18.886377186752942
10
-131.4227052427396
20
-23.086877186752922
10
-91.798705242739587
20
-23.086877186752915
10
-91.798705242739587
20
-20.35667718675289
42
-0.41421356237307422
10
-91.298705242739572
20
-19.856677186752918
10
-85.547705242739553
20
-19.856677186752918
42
-0.41421356237307422
10
-85.047705242739582
20
-20.356677186752925
10
-85.047705242739582
20
-23.086877186752915
10
-84.723705242739626
20
-23.086877186752915
42
-0.41421356237311585
10
-84.223705242739584
20
-23.586877186752922
10
-84.223705242739584
20
-25.387027186752917
42
-0.4142135623730846
10
-84.723705242739584
20
-25.887027186752903
10
-85.047705242739582
20
-25.887027186752903
10
-85.047705242739582
20
-31.657097186752907
42
-0.4142135623730846
10
-85.547705242739596
20
-32.157097186752893
10
-86.772705242739576
20
-32.157097186752893
10
-86.772705242739576
20
-32.857367186752889
42
-0.41421356237309503
10
-87.27270524273959
20
-33.357367186752896
10
-89.573705242739578
20
-33.357367186752896
42
-0.41421356237309503
10
-90.073705242739592
20
-32.857367186752889
10
-90.073705242739592
20
-32.157097186752893
10
-91.298705242739572
20
-32.157097186752893
42
-0.41421356237313667
10
-91.798705242739587
20
-31.657097186752885
10
-91.798705242739587
20
-27.686757186752907
10
-131.4227052427396
20
-27.686757186752896
10
-131.4227052427396
20
-31.887227186752849
42
-0.41421356237310542
10
-131.92270524273962
20
-32.387227186752874
10
-144.92370524273963
20
-32.387227186752867
42
-0.41421356237309503
10
-145.42370524273963
20
-31.88722718675286
10
-145.42370524273963
20
-27.686757186752896
10
-185.04760524273956
20
-27.686757186752864
10
-185.04760524273956
20
-31.657097186752861
42
-0.41421356237309503
10
-185.54760524273956
20
-32.157097186752864
10
-186.77310524273958
20
-32.157097186752864
10
-186.77310524273958
20
-32.857367186752825
42
-0.41421356237311585
10
-187.27310524273958
20
-33.357367186752867
10
-189.57370524273952
20
-33.357367186752867
42
-0.41421356237309503
10
-190.07370524273952
20
-32.857367186752867
10
-190.07370524273952
20
-32.157097186752864
10
-191.29870524273957
20
-32.157097186752864
42
-0.4142135623730534
10
-191.79870524273952
20
-31.657097186752861
10
-191.79870524273952
20
-25.887027186752857
10
-192.1228052427395
20
-25.887027186752839
42
-0.41421356237311585
10
-192.62280524273956
20
-25.387027186752832
10
-192.62280524273956
20
-23.586877186752876
42
-0.41421356237309503
10
-192.12280524273953
20
-23.086877186752869
10
-191.79870524273952
20
-23.086877186752869
10
-191.79870524273952
20
-20.356677186752879
42
-0.4142135623730846
10
-191.29870524273952
20
-19.85667718675289
10
-185.54760524273959
20
-19.856677186752894
42
-0.41421356237311585
10
-185.04760524273956
20
-20.356677186752901
10
-185.04760524273956
20
-23.08687718675289
10
-145.42370524273963
20
-23.086877186752904
10
-145.42370524273966
20
-18.886377186752942
42
-0.41421356237307422
0
ENDSEC
0
SECTION
2
OBJECTS
0
DICTIONARY
5
C
100
AcDbDictionary
3
ACAD_GROUP
350
D
3
ACAD_MLINESTYLE
350
17
0
DICTIONARY
5
D
100
AcDbDictionary
0
DICTIONARY
5
1A
330
C
100
AcDbDictionary
0
DICTIONARY
5
17
100
AcDbDictionary
0
ENDSEC
0
EOF
