0
SECTION
2
HEADER
9
$INSUNITS
70
4
9
$ACADVER
1
AC1014
9
$HANDSEED
5
FFFF
0
ENDSEC
0
SECTION
2
TABLES
0
TABLE
2
VPORT
5
8
100
AcDbSymbolTable
0
ENDTAB
0
TABLE
2
LTYPE
5
5
100
AcDbSymbolTable
0
LTYPE
5
14
100
AcDbSymbolTableRecord
100
AcDbLinetypeTableRecord
2
BYBLOCK
70
0
0
LTYPE
5
15
100
AcDbSymbolTableRecord
100
AcDbLinetypeTableRecord
2
BYLAYER
70
0
0
ENDTAB
0
TABLE
2
LAYER
5
2
100
AcDbSymbolTable
70
2
0
LAYER
5
50
100
AcDbSymbolTableRecord
100
AcDbLayerTableRecord
2
0
70
0
6
CONTINUOUS
0
ENDTAB
0
TABLE
2
STYLE
5
3
100
AcDbSymbolTable
70
1
0
STYLE
5
11
100
AcDbSymbolTableRecord
100
AcDbTextStyleTableRecord
2
STANDARD
70
0
0
ENDTAB
0
TABLE
2
VIEW
5
6
100
AcDbSymbolTable
70
0
0
ENDTAB
0
TABLE
2
UCS
5
7
100
AcDbSymbolTable
70
0
0
ENDTAB
0
TABLE
2
APPID
5
9
100
AcDbSymbolTable
70
2
0
APPID
5
12
100
AcDbSymbolTableRecord
100
AcDbRegAppTableRecord
2
ACAD
70
0
0
ENDTAB
0
TABLE
2
DIMSTYLE
5
A
100
AcDbSymbolTable
70
1
0
ENDTAB
0
TABLE
2
BLOCK_RECORD
5
1
100
AcDbSymbolTable
70
1
0
BLOCK_RECORD
5
1F
100
AcDbSymbolTableRecord
100
AcDbBlockTableRecord
2
*MODEL_SPACE
0
BLOCK_RECORD
5
1B
100
AcDbSymbolTableRecord
100
AcDbBlockTableRecord
2
*PAPER_SPACE
0
ENDTAB
0
ENDSEC
0
SECTION
2
BLOCKS
0
BLOCK
5
20
100
AcDbEntity
100
AcDbBlockBegin
2
*MODEL_SPACE
0
ENDBLK
5
21
100
AcDbEntity
100
AcDbBlockEnd
0
BLOCK
5
1C
100
AcDbEntity
100
AcDbBlockBegin
2
*PAPER_SPACE
0
ENDBLK
5
1D
100
AcDbEntity
100
AcDbBlockEnd
0
ENDSEC
0
SECTION
2
ENTITIES
0
CIRCLE
5
100
100
AcDbEntity
8
0
100
AcDbCircle
10
172.8021135679823
20
-115.25691109700689
30
-1.3072876114961218e-13
40
1.4999999999999858
210
-3.9236770115295309e-18
220
-1.124100812432971e-15
230
1
0
LWPOLYLINE
5
101
100
AcDbEntity
8
0
100
AcDbPolyline
90
18
70
1
43
0.0
10
251.4628615030137
20
-32.974085679353252
10
283.71286150301381
20
-32.974085679353585
42
-0.41421356237311868
10
284.26286150301382
20
-33.524085679353519
10
284.26286150301371
20
-49.56108567935356
42
-0.41421356237307422
10
283.76286150301365
20
-50.06108567935356
10
276.13786150301382
20
-50.061085679353525
42
-0.41421356237308637
10
275.83786150301381
20
-49.761085679353521
10
275.83786150301376
20
-47.274085677996226
42
0.41421356237311241
10
275.53786150301374
20
-46.974085677996236
10
270.62048143968764
20
-46.974085694843566
10
264.5124794396877
20
-46.974085694843524
10
259.88786150301377
20
-46.974085677996101
42
0.41421356237304302
10
259.58786150301376
20
-47.274085677996098
10
259.58786150301376
20
-49.761085679353315
42
-0.41421356237307771
10
259.28786150301374
20
-50.061085679353326
10
251.41286150301363
20
-50.061085679353354
42
-0.41421356237299095
10
250.9128615030136
20
-49.561085679353312
10
250.9128615030138
20
-33.52408567935322
42
-0.41421356237307849
0
LWPOLYLINE
5
102
100
AcDbEntity
8
0
100
AcDbPolyline
90
80
70
1
43
0.0
10
285.90786150301324
20
-104.51701609794281
10
285.90786150301381
20
-32.590972464790951
42
0.41421356237308571
10
284.50786150301377
20
-31.190972464790924
10
250.71244904392489
20
-31.190972464790498
42
0.41421356210947552
10
249.71244904392483
20
-32.190972463890645
10
249.71244904176484
20
-34.59097624062106
42
-0.41421356237307611
10
249.16244904126987
20
-35.140976240126065
10
247.76244904433369
20
-35.14097623886606
42
-0.4142135623730927
10
247.2124490448287
20
-34.59097623837107
10
247.21244904698867
20
-32.190972465690628
42
0.41421356263668985
10
246.21244904698864
20
-31.190972464790644
10
193.68844904392489
20
-31.190972464790072
42
0.41421356210947552
10
192.68844904392483
20
-32.190972463890198
10
192.68844904176484
20
-34.590976240620655
42
-0.41421356237307611
10
192.13844904126987
20
-35.140976240125653
10
190.73844904433369
20
-35.140976238865647
42
-0.4142135623730927
10
190.1884490448287
20
-34.590976238370658
10
190.18844904698867
20
-32.190972465690173
42
0.41421356263665865
10
189.18844904698861
20
-31.190972464790153
10
98.387770996678427
20
-31.190972464789372
42
0.4142135623730846
10
97.387770996678398
20
-32.190972464789439
10
97.387770996678341
20
-34.590976196609759
42
-0.4142135623730927
10
96.837770996678344
20
-35.140976196609756
10
95.437770999742142
20
-35.140976196609735
42
-0.41421356237309742
10
94.887770999742145
20
-34.590976196609738
10
94.887770999742159
20
-32.190972464789411
42
0.41421356237309503
10
93.887770999742187
20
-31.190972464789418
10
22.187861730496181
20
-31.190972464788711
42
0.41421356237310025
10
21.187861730496167
20
-32.190972464788743
10
21.187861730496181
20
-34.59103015401061
42
-0.4142135623730927
10
20.637861730496184
20
-35.141030154010608
10
19.237861730496174
20
-35.141030154010615
42
-0.41421356237309503
10
18.68786173049617
20
-34.591030154010618
10
18.687861730496156
20
-32.190972464788693
42
0.41421356237308982
10
17.68786173049617
20
-31.190972464788697
10
3.0173650202181546
20
-31.190972464788569
42
0.41421356237309248
10
1.6173650202181344
20
-32.590972464788564
10
1.6173650202175058
20
-104.51701609794014
42
0.41421356237309176
10
3.0173650202175062
20
-105.91701609794016
10
28.793250287463039
20
-105.91701609794015
42
-0.41421356237309503
10
30.193250287463037
20
-107.31701609794015
10
30.193250287463034
20
-123.61043321940308
42
0.41421356237308571
10
31.593250287463036
20
-125.01043321940308
10
48.643861548356284
20
-125.01043321940317
42
0.41421356237311063
10
49.643861548356284
20
-124.01043321940318
10
49.643861548356284
20
-121.71043423904918
42
-0.4142135623730856
10
50.19386154835626
20
-121.16043423904918
10
51.593861548356259
20
-121.16043423904915
42
-0.41421356237309975
10
52.14386154835627
20
-121.71043423904916
10
52.143861548356284
20
-124.01043321940321
42
0.41421356237310025
10
53.143861548356284
20
-125.01043321940323
10
81.191361503013042
20
-125.01043321940347
42
0.41421356237310025
10
82.191361503013042
20
-124.01043321940344
10
82.191361503013113
20
-108.32408569619913
42
-0.41421356237309503
10
83.191361503013127
20
-107.32408569619912
10
89.991861503013141
20
-107.32408569619919
42
-0.41421356237309503
10
90.991861503013126
20
-108.32408569619921
10
90.991861503012984
20
-124.01043321940365
42
0.4142135623730846
10
91.991861503013027
20
-125.01043321940372
10
195.49211150301349
20
-125.01043321940443
42
0.414213562373069
10
196.49211150301352
20
-124.01043321940443
10
196.49211150301366
20
-107.72408569620015
42
-0.4142135623730856
10
197.04211150301364
20
-107.17408569620018
10
204.79186150301308
20
-107.17408569620028
42
-0.41421356237307422
10
205.29186150301311
20
-107.67408569620025
10
205.29186150301302
20
-124.0104332194049
42
0.41421356237307944
10
206.29186150301305
20
-125.01043321940493
10
234.3818614576696
20
-125.01043321940502
42
0.41421356237307944
10
235.3818614576696
20
-124.01043321940506
10
235.38186145766971
20
-121.71043423905084
42
-0.41421356237310453
10
235.9318614576697
20
-121.16043423905083
10
237.33186145766973
20
-121.16043423905089
42
-0.4142135623730856
10
237.88186145766969
20
-121.7104342390509
10
237.8818614576696
20
-124.01043321940503
42
0.41421356237306384
10
238.88186145766957
20
-125.01043321940503
10
255.93247271856282
20
-125.01043321940512
42
0.41421356237309132
10
257.33247271856283
20
-123.61043321940514
10
257.33247271856317
20
-107.31701609794229
42
-0.4142135623730876
10
258.73247271856314
20
-105.91701609794231
10
284.50786150301332
20
-105.91701609794279
42
0.41421356237309132
0
CIRCLE
5
103
100
AcDbEntity
8
0
100
AcDbCircle
10
237.82223650301324
20
-90.324085696200527
30
-9.8532293435482643e-14
40
3.5999999999999943
210
-3.9236770115296911e-18
220
-1.1102230246251565e-15
230
1
0
LWPOLYLINE
5
104
100
AcDbEntity
8
0
100
AcDbPolyline
90
24
70
1
43
0.0
10
41.107111503012874
20
-104.12408569484236
10
5.8311115030129201
20
-104.12408569484205
42
-0.41421356237307672
10
5.2811115030129541
20
-103.57408569484205
10
5.2811115030130509
20
-90.674085694841551
42
-0.4142135623731063
10
5.8311115030130694
20
-90.12408569484154
10
6.0811115030131973
20
-90.124085694841526
42
0.41421356237311219
10
6.6311115030132264
20
-89.574085694841528
10
6.6311115030132317
20
-87.72408569484125
42
-0.41421356237309687
10
7.1811115030132324
20
-87.174085694841239
10
14.081111503013348
20
-87.174085694841281
42
-0.4142135623730927
10
14.631111503013344
20
-87.724085694841278
10
14.631111503013337
20
-89.574085694841955
42
0.41421356237308676
10
15.181111503013314
20
-90.124085694841952
10
29.457111503013284
20
-90.124085696198662
42
0.41421356237310919
10
30.007111503013309
20
-89.57408569484258
10
30.007111503013327
20
-87.724085694841406
42
-0.4142135623730856
10
30.557111503013324
20
-87.174085694841423
10
37.457111503013294
20
-87.17408569484148
42
-0.4142135623730927
10
38.007111503013292
20
-87.724085694841477
10
38.007111503013263
20
-89.574085694842211
42
0.41421356237314705
10
38.557111503013331
20
-90.124085694842208
10
41.107111503012923
20
-90.124085694841924
42
-0.41421356237312812
10
41.657111503012985
20
-90.674085694841921
10
41.657111503012906
20
-103.57408569484235
42
-0.41421356237310453
0
LWPOLYLINE
5
105
100
AcDbEntity
8
0
100
AcDbPolyline
90
8
70
1
43
0.0
10
46.275361503013166
20
-103.57408569619884
42
0.41421356237307144
10
46.825361503013156
20
-104.12408569619883
10
59.725361503013154
20
-104.12408569619893
42
0.41421356237309975
10
60.275361503013158
20
-103.57408569619891
10
60.275361503013265
20
-90.674085696198915
42
0.41421356237307611
10
59.725361503013275
20
-90.124085696198918
10
46.825361503013269
20
-90.124085696198819
42
0.41421356237308082
10
46.275361503013272
20
-90.674085696198787
0
LWPOLYLINE
5
106
100
AcDbEntity
8
0
100
AcDbPolyline
90
8
70
1
43
0.0
10
150.76286150301311
20
-109.72408569619967
10
150.76286150301297
20
-122.62408569619966
42
-0.41421356237309503
10
150.21286150301299
20
-123.17408569619965
10
137.31286150301301
20
-123.17408569619957
42
-0.41421356237309503
10
136.76286150301303
20
-122.62408569619957
10
136.76286150301314
20
-109.72408569619955
42
-0.4142135623730856
10
137.31286150301312
20
-109.17408569619954
10
150.21286150301313
20
-109.17408569619965
42
-0.41421356237307611
0
LWPOLYLINE
5
107
100
AcDbEntity
8
0
100
AcDbPolyline
90
8
70
1
43
0.0
10
242.08786150301313
20
-109.17408569620045
10
254.98786150301314
20
-109.17408569620052
42
-0.41421356237310453
10
255.53786150301312
20
-109.72408569620055
10
255.53786150301306
20
-122.62408569620055
42
-0.41421356237312346
10
254.98786150301302
20
-123.17408569620055
10
242.08786150301304
20
-123.17408569620044
42
-0.41421356237309503
10
241.53786150301303
20
-122.62408569620044
10
241.53786150301315
20
-109.72408569620045
42
-0.41421356237305718
0
LWPOLYLINE
5
108
100
AcDbEntity
8
0
100
AcDbPolyline
90
8
70
1
43
0.0
10
56.350361503013112
20
-109.17408569619886
10
69.25036150301311
20
-109.17408569619894
42
-0.41421356237308082
10
69.800361503013107
20
-109.72408569619898
10
69.800361503012994
20
-122.62408569619899
42
-0.41421356237305718
10
69.250361503013011
20
-123.17408569619897
10
56.350361503013005
20
-123.17408569619884
42
-0.41421356237307611
10
55.800361503013008
20
-122.62408569619885
10
55.800361503013164
20
-109.72408569619887
42
-0.41421356237310919
0
LWPOLYLINE
5
109
100
AcDbEntity
8
0
100
AcDbPolyline
90
8
70
1
43
0.0
10
218.27536150301313
20
-109.17408569620024
10
231.17536150301311
20
-109.17408569620035
42
-0.41421356237311396
10
231.72536150301315
20
-109.72408569620035
10
231.72536150301306
20
-122.62408569620035
42
-0.4142135623730383
10
231.17536150301305
20
-123.17408569620031
10
218.27536150301302
20
-123.17408569620027
42
-0.41421356237311396
10
217.72536150301303
20
-122.62408569620023
10
217.72536150301312
20
-109.72408569620026
42
-0.4142135623730383
0
LWPOLYLINE
5
110
100
AcDbEntity
8
0
100
AcDbPolyline
90
8
70
1
43
0.0
10
32.537861503013119
20
-109.17408569619867
10
45.437861503013096
20
-109.17408569619877
42
-0.41421356237309975
10
45.987861503013107
20
-109.72408569619876
10
45.987861503012972
20
-122.62408569619878
42
-0.4142135623730856
10
45.437861503013011
20
-123.17408569619874
10
32.537861503012998
20
-123.17408569619866
42
-0.41421356237307611
10
31.987861503013018
20
-122.62408569619865
10
31.987861503013129
20
-109.7240856961987
42
-0.41421356237309037
0
LWPOLYLINE
5
111
100
AcDbEntity
8
0
100
AcDbPolyline
90
8
70
1
43
0.0
10
244.46911150301329
20
-90.124085696200481
10
257.3691115030133
20
-90.124085696200581
42
-0.41421356237309503
10
257.91911150301326
20
-90.674085696200578
10
257.91911150301314
20
-103.57408569620057
42
-0.41421356237309503
10
257.36911150301319
20
-104.12408569620057
10
244.46911150301327
20
-104.12408569620044
42
-0.41421356237310453
10
243.9191115030132
20
-103.57408569620047
10
243.91911150301328
20
-90.674085696200436
42
-0.41421356237307611
0
LWPOLYLINE
5
112
100
AcDbEntity
8
0
100
AcDbPolyline
90
8
70
1
43
0.0
10
270.66286150301329
20
-90.124085696200709
10
283.56286150301321
20
-90.124085696200794
42
-0.41421356237310453
10
284.11286150301328
20
-90.674085696200777
10
284.11286150301316
20
-103.57408569620078
42
-0.4142135623730856
10
283.56286150301321
20
-104.12408569620077
10
270.66286150301323
20
-104.12408569620068
42
-0.41421356237310453
10
270.11286150301316
20
-103.5740856962007
10
270.11286150301328
20
-90.674085696200692
42
-0.41421356237309503
0
LWPOLYLINE
5
113
100
AcDbEntity
8
0
100
AcDbPolyline
90
8
70
1
43
0.0
10
232.01286150301371
20
-46.424085696200464
10
232.01286150301377
20
-33.524085696200459
42
-0.41421356237315182
10
232.56286150301378
20
-32.974085696200483
10
245.46286150301376
20
-32.974085696200589
42
-0.41421356237311635
10
246.01286150301374
20
-33.524085696200594
10
246.01286150301365
20
-46.424085696200592
42
-0.41421356237312812
10
245.46286150301367
20
-46.974085696200575
10
232.56286150301372
20
-46.974085696200454
42
-0.41421356237312812
0
LWPOLYLINE
5
114
100
AcDbEntity
8
0
100
AcDbPolyline
90
8
70
1
43
0.0
10
79.612861503013647
20
-46.424085696199057
10
79.612861503013775
20
-33.524085696199059
42
-0.41421356237310214
10
80.162861503013772
20
-32.974085696199083
10
93.06286150301375
20
-32.974085696199204
42
-0.41421356237309037
10
93.612861503013747
20
-33.524085696199194
10
93.612861503013647
20
-46.424085696199199
42
-0.4142135623730856
10
93.062861503013622
20
-46.974085696199204
10
80.162861503013659
20
-46.97408569619909
42
-0.41421356237309037
0
LWPOLYLINE
5
115
100
AcDbEntity
8
0
100
AcDbPolyline
90
8
70
1
43
0.0
10
74.56286150301375
20
-33.524085696199023
10
74.562861503013636
20
-46.424085696199029
42
-0.41421356237309037
10
74.012861503013625
20
-46.974085696199019
10
61.11286150301364
20
-46.974085696198877
42
-0.4142135623730856
10
60.562861503013643
20
-46.42408569619888
10
60.56286150301375
20
-33.524085696198888
42
-0.41421356237309742
10
61.112861503013761
20
-32.974085696198891
10
74.012861503013752
20
-32.974085696199019
42
-0.41421356237309975
0
LWPOLYLINE
5
116
100
AcDbEntity
8
0
100
AcDbPolyline
90
8
70
1
43
0.0
10
55.512861503013752
20
-33.524085696198853
10
55.512861503013646
20
-46.424085696198851
42
-0.41421356237309037
10
54.962861503013627
20
-46.974085696198841
10
42.062861503013629
20
-46.974085696198713
42
-0.4142135623730856
10
41.512861503013632
20
-46.424085696198716
10
41.512861503013738
20
-33.524085696198711
42
-0.41421356237309503
10
42.06286150301375
20
-32.974085696198721
10
54.962861503013755
20
-32.974085696198841
42
-0.41421356237309037
0
LWPOLYLINE
5
117
100
AcDbEntity
8
0
100
AcDbPolyline
90
8
70
1
43
0.0
10
94.450361503013426
20
-71.074085696199205
10
107.35036150301346
20
-71.074085696199333
42
-0.41421356237309503
10
107.90036150301347
20
-71.624085696199344
10
107.90036150301334
20
-84.52408569619935
42
-0.41421356237309503
10
107.35036150301333
20
-85.074085696199333
10
94.450361503013312
20
-85.074085696199205
42
-0.41421356237306667
10
93.900361503013329
20
-84.524085696199208
10
93.900361503013443
20
-71.624085696199216
42
-0.41421356237309037
0
LWPOLYLINE
5
118
100
AcDbEntity
8
0
100
AcDbPolyline
90
8
70
1
43
0.0
10
89.687861503013579
20
-52.024085696199151
10
102.58786150301361
20
-52.024085696199279
42
-0.41421356237309975
10
103.13786150301361
20
-52.57408569619929
10
103.13786150301351
20
-65.474085696199296
42
-0.41421356237309503
10
102.58786150301349
20
-66.024085696199279
10
89.687861503013494
20
-66.024085696199165
42
-0.41421356237306195
10
89.137861503013497
20
-65.474085696199154
10
89.13786150301361
20
-52.574085696199155
42
-0.41421356237307144
0
LWPOLYLINE
5
119
100
AcDbEntity
8
0
100
AcDbPolyline
90
8
70
1
43
0.0
10
3.9628615030137491
20
-32.974085694841129
10
16.862861503013747
20
-32.9740856961985
42
-0.41421356237309387
10
17.412861503013744
20
-33.524085696198505
10
17.412861503013637
20
-46.424085696198503
42
-0.41421356237310097
10
16.86286150301363
20
-46.9740856961985
10
3.9628615030136305
20
-46.974085696198387
42
-0.41421356237309559
10
3.41286150301364
20
-46.424085696198382
10
3.4128615030137395
20
-33.524085694841126
42
-0.41421356237309004
0
LWPOLYLINE
5
120
100
AcDbEntity
8
0
100
AcDbPolyline
90
8
70
1
43
0.0
10
193.07536150301314
20
-104.12408569620013
42
0.41421356237311396
10
193.62536150301315
20
-103.57408569620011
10
193.62536150301324
20
-90.674085696200137
42
0.41421356237305718
10
193.07536150301326
20
-90.12408569620014
10
180.17536150301325
20
-90.124085696200012
42
0.41421356237313289
10
179.62536150301327
20
-90.674085696199995
10
179.62536150301318
20
-103.57408569619999
42
0.41421356237305718
10
180.17536150301316
20
-104.12408569620004
0
LWPOLYLINE
5
121
100
AcDbEntity
8
0
100
AcDbPolyline
90
8
70
1
43
0.0
10
103.97536150301329
20
-90.124085696199302
42
0.41421356237307611
10
103.42536150301329
20
-90.674085696199299
10
103.42536150301316
20
-103.57408569619929
42
0.4142135623730856
10
103.97536150301318
20
-104.12408569619933
10
116.87536150301315
20
-104.12408569619944
42
0.41421356237310453
10
117.42536150301318
20
-103.57408569619943
10
117.42536150301331
20
-90.674085696199455
42
0.41421356237302881
10
116.87536150301328
20
-90.12408569619943
0
LWPOLYLINE
5
122
100
AcDbEntity
8
0
100
AcDbPolyline
90
8
70
1
43
0.0
10
8.7253615030135894
20
-52.024085696198405
42
0.41421356237308676
10
8.1753615030135816
20
-52.574085696198395
10
8.1753615030134803
20
-65.474085696198415
42
0.41421356237308499
10
8.7253615030134704
20
-66.024085696198412
10
21.62536150301348
20
-66.024085696198554
42
0.41421356237309503
10
22.175361503013477
20
-65.474085696198557
10
22.175361503013583
20
-52.574085696198544
42
0.41421356237309742
10
21.625361503013593
20
-52.024085696198547
0
LWPOLYLINE
5
123
100
AcDbEntity
8
0
100
AcDbPolyline
90
8
70
1
43
0.0
10
227.80036150301342
20
-71.074085696200441
42
0.41421356237312812
10
227.25036150301344
20
-71.624085696200424
10
227.25036150301332
20
-84.524085696200416
42
0.41421356237309503
10
227.80036150301331
20
-85.074085696200456
10
240.70036150301331
20
-85.074085696200598
42
0.41421356237309503
10
241.25036150301338
20
-84.524085696200558
10
241.25036150301344
20
-71.624085696200538
42
0.41421356237307611
10
240.70036150301348
20
-71.074085696200569
0
LWPOLYLINE
5
124
100
AcDbEntity
8
0
100
AcDbPolyline
90
8
70
1
43
0.0
10
218.27536150301324
20
-90.124085696200382
42
0.41421356237312346
10
217.72536150301323
20
-90.674085696200365
10
217.72536150301318
20
-103.57408569620036
42
0.41421356237309503
10
218.27536150301316
20
-104.12408569620038
10
231.17536150301316
20
-104.12408569620048
42
0.41421356237311396
10
231.72536150301323
20
-103.57408569620047
10
231.72536150301326
20
-90.674085696200493
42
0.41421356237311396
10
231.17536150301331
20
-90.124085696200481
0
LWPOLYLINE
5
125
100
AcDbEntity
8
0
100
AcDbPolyline
90
8
70
1
43
0.0
10
121.63786150301348
20
-66.024085696199464
42
0.41421356237309975
10
122.18786150301348
20
-65.474085696199452
10
122.18786150301358
20
-52.574085696199461
42
0.41421356237308082
10
121.63786150301361
20
-52.024085696199471
10
108.73786150301359
20
-52.02408569619935
42
0.41421356237309503
10
108.18786150301361
20
-52.574085696199347
10
108.18786150301348
20
-65.47408569619931
42
0.41421356237309975
10
108.73786150301348
20
-66.02408569619935
0
LWPOLYLINE
5
126
100
AcDbEntity
8
0
100
AcDbPolyline
90
8
70
1
43
0.0
10
69.250361503013309
20
-85.074085696198992
42
0.4142135623730856
10
69.80036150301332
20
-84.524085696198995
10
69.80036150301342
20
-71.624085696198975
42
0.41421356237308082
10
69.250361503013437
20
-71.074085696198992
10
56.350361503013445
20
-71.074085696198836
42
0.41421356237310919
10
55.800361503013434
20
-71.624085696198847
10
55.800361503013328
20
-84.524085696198881
42
0.41421356237308082
10
56.350361503013318
20
-85.074085696198864
0
LWPOLYLINE
5
127
100
AcDbEntity
8
0
100
AcDbPolyline
90
8
70
1
43
0.0
10
64.487861503013463
20
-66.024085696198938
42
0.41421356237307611
10
65.037861503013474
20
-65.474085696198941
10
65.037861503013588
20
-52.574085696198942
42
0.41421356237308082
10
64.48786150301359
20
-52.024085696198924
10
51.587861503013599
20
-52.024085696198803
42
0.4142135623730856
10
51.037861503013588
20
-52.5740856961988
10
51.037861503013467
20
-65.474085696198813
42
0.41421356237309503
10
51.587861503013471
20
-66.024085696198824
0
LWPOLYLINE
5
128
100
AcDbEntity
8
0
100
AcDbPolyline
90
8
70
1
43
0.0
10
24.006611503013325
20
-85.07408569619858
42
0.41421356237309975
10
24.556611503013333
20
-84.524085696198597
10
24.556611503013428
20
-71.624085696198549
42
0.4142135623730927
10
24.006611503013428
20
-71.07408569619858
10
6.344111503013421
20
-71.074085696198409
42
0.41421356237311929
10
5.7941115030134238
20
-71.624085696198421
10
5.7941115030133172
20
-84.524085696198412
42
0.41421356237307966
10
6.3441115030133099
20
-85.074085696198424
0
LWPOLYLINE
5
129
100
AcDbEntity
8
0
100
AcDbPolyline
90
8
70
1
43
0.0
10
223.03786150301366
20
-52.024085696200338
42
0.4142135623730856
10
222.48786150301362
20
-52.574085696200356
10
222.48786150301351
20
-65.474085696200362
42
0.41421356237315182
10
223.03786150301352
20
-66.024085696200373
10
235.93786150301349
20
-66.024085696200487
42
0.41421356237313289
10
236.48786150301351
20
-65.47408569620049
10
236.48786150301362
20
-52.574085696200505
42
0.41421356237311868
10
235.93786150301366
20
-52.024085696200501
0
LWPOLYLINE
5
130
100
AcDbEntity
8
0
100
AcDbPolyline
90
8
70
1
43
0.0
10
79.325361503013269
20
-90.674085696199086
42
0.41421356237307144
10
78.775361503013272
20
-90.124085696199089
10
65.875361503013281
20
-90.124085696198961
42
0.41421356237315182
10
65.325361503013269
20
-90.674085696199
10
65.32536150301317
20
-103.57408569619899
42
0.4142135623730856
10
65.875361503013153
20
-104.12408569619896
10
78.775361503013158
20
-104.1240856961991
42
0.41421356237309503
10
79.325361503013156
20
-103.57408569619909
0
LWPOLYLINE
5
131
100
AcDbEntity
8
0
100
AcDbPolyline
90
8
70
1
43
0.0
10
126.40036150301333
20
-85.074085696199518
42
0.4142135623730856
10
126.95036150301331
20
-84.524085696199506
10
126.95036150301345
20
-71.624085696199529
42
0.41421356237307611
10
126.40036150301344
20
-71.074085696199504
10
113.50036150301344
20
-71.07408569619939
42
0.41421356237309975
10
112.95036150301344
20
-71.624085696199387
10
112.9503615030133
20
-84.524085696199407
42
0.4142135623730856
10
113.50036150301329
20
-85.074085696199404
0
LWPOLYLINE
5
132
100
AcDbEntity
8
0
100
AcDbPolyline
90
8
70
1
43
0.0
10
75.400361503013457
20
-71.074085696199035
42
0.41421356237311396
10
74.850361503013431
20
-71.624085696199018
10
74.850361503013332
20
-84.524085696199052
42
0.41421356237309037
10
75.400361503013329
20
-85.074085696199063
10
88.300361503013278
20
-85.074085696199148
42
0.4142135623730856
10
88.850361503013303
20
-84.52408569619918
10
88.850361503013431
20
-71.62408569619916
42
0.41421356237309503
10
88.30036150301342
20
-71.074085696199177
0
LWPOLYLINE
5
133
100
AcDbEntity
8
0
100
AcDbPolyline
90
8
70
1
43
0.0
10
70.637861503013596
20
-52.024085696198988
42
0.41421356237309037
10
70.087861503013599
20
-52.574085696198978
10
70.087861503013485
20
-65.474085696198983
42
0.41421356237309037
10
70.637861503013482
20
-66.024085696198981
10
83.537861503013474
20
-66.024085696199094
42
0.41421356237310919
10
84.087861503013499
20
-65.474085696199111
10
84.087861503013613
20
-52.574085696199106
42
0.4142135623730856
10
83.537861503013602
20
-52.024085696199116
0
LWPOLYLINE
5
134
100
AcDbEntity
8
0
100
AcDbPolyline
90
8
70
1
43
0.0
10
132.55036150301345
20
-71.074085696199575
42
0.41421356237309975
10
132.00036150301341
20
-71.624085696199558
10
132.00036150301332
20
-84.524085696199563
42
0.41421356237306667
10
132.55036150301328
20
-85.074085696199575
10
145.45036150301331
20
-85.074085696199674
42
0.41421356237311396
10
146.00036150301332
20
-84.524085696199705
10
146.00036150301347
20
-71.624085696199685
42
0.4142135623730856
10
145.45036150301345
20
-71.074085696199688
0
LWPOLYLINE
5
135
100
AcDbEntity
8
0
100
AcDbPolyline
90
8
70
1
43
0.0
10
97.82536150301317
20
-104.12408569619924
42
0.4142135623730856
10
98.375361503013167
20
-103.57408569619926
10
98.375361503013309
20
-90.674085696199271
42
0.4142135623730856
10
97.825361503013283
20
-90.124085696199273
10
84.925361503013264
20
-90.12408569619916
42
0.41421356237312346
10
84.375361503013266
20
-90.674085696199171
10
84.375361503013153
20
-103.57408569619915
42
0.4142135623730856
10
84.925361503013164
20
-104.12408569619913
0
LWPOLYLINE
5
136
100
AcDbEntity
8
0
100
AcDbPolyline
90
8
70
1
43
0.0
10
151.60036150301346
20
-71.074085696199717
42
0.4142135623730856
10
151.05036150301342
20
-71.624085696199714
10
151.05036150301333
20
-84.524085696199734
42
0.4142135623730856
10
151.60036150301332
20
-85.074085696199774
10
164.50036150301327
20
-85.074085696199901
42
0.41421356237313289
10
165.05036150301333
20
-84.524085696199876
10
165.05036150301345
20
-71.624085696199842
42
0.41421356237305718
10
164.50036150301344
20
-71.074085696199859
0
LWPOLYLINE
5
137
100
AcDbEntity
8
0
100
AcDbPolyline
90
8
70
1
43
0.0
10
221.6503615030133
20
-85.074085696200399
42
0.41421356237311396
10
222.20036150301331
20
-84.524085696200387
10
222.20036150301343
20
-71.624085696200368
42
0.41421356237307611
10
221.65036150301347
20
-71.074085696200385
10
208.75036150301344
20
-71.074085696200243
42
0.41421356237314705
10
208.20036150301345
20
-71.624085696200254
10
208.20036150301334
20
-84.52408569620026
42
0.41421356237305718
10
208.75036150301332
20
-85.074085696200257
0
LWPOLYLINE
5
138
100
AcDbEntity
8
0
100
AcDbPolyline
90
8
70
1
43
0.0
10
127.7878615030136
20
-52.024085696199542
42
0.41421356237309975
10
127.23786150301359
20
-52.574085696199532
10
127.23786150301349
20
-65.474085696199495
42
0.41421356237307611
10
127.78786150301349
20
-66.024085696199521
10
140.68786150301352
20
-66.024085696199634
42
0.41421356237308082
10
141.23786150301351
20
-65.474085696199623
10
141.23786150301362
20
-52.574085696199631
42
0.4142135623730856
10
140.68786150301361
20
-52.024085696199634
0
LWPOLYLINE
5
139
100
AcDbEntity
8
0
100
AcDbPolyline
90
8
70
1
43
0.0
10
37.300361503013434
20
-71.074085696198665
42
0.41421356237309503
10
36.75036150301343
20
-71.624085696198662
10
36.750361503013323
20
-84.524085696198696
42
0.41421356237307611
10
37.300361503013313
20
-85.074085696198694
10
50.200361503013312
20
-85.074085696198821
42
0.4142135623730856
10
50.750361503013323
20
-84.524085696198824
10
50.75036150301343
20
-71.624085696198804
42
0.4142135623730856
10
50.20036150301344
20
-71.074085696198793
0
LWPOLYLINE
5
140
100
AcDbEntity
8
0
100
AcDbPolyline
90
8
70
1
43
0.0
10
32.537861503013588
20
-52.024085696198625
42
0.41421356237307144
10
31.987861503013583
20
-52.574085696198622
10
31.987861503013491
20
-65.474085696198628
42
0.41421356237309503
10
32.537861503013474
20
-66.02408569619864
10
45.43786150301348
20
-66.024085696198767
42
0.41421356237307611
10
45.987861503013477
20
-65.474085696198756
10
45.987861503013583
20
-52.574085696198757
42
0.41421356237308082
10
45.437861503013593
20
-52.024085696198767
0
LWPOLYLINE
5
141
100
AcDbEntity
8
0
100
AcDbPolyline
90
8
70
1
43
0.0
10
254.98786150301345
20
-66.024085696200657
42
0.41421356237312812
10
255.53786150301346
20
-65.474085696200675
10
255.5378615030136
20
-52.574085696200669
42
0.41421356237309975
10
254.98786150301368
20
-52.024085696200686
10
242.08786150301367
20
-52.02408569620053
42
0.41421356237314239
10
241.53786150301363
20
-52.574085696200541
10
241.53786150301343
20
-65.474085696200547
42
0.41421356237309037
10
242.08786150301347
20
-66.024085696200558
0
LWPOLYLINE
5
142
100
AcDbEntity
8
0
100
AcDbPolyline
90
8
70
1
43
0.0
10
161.12536150301327
20
-90.124085696199813
42
0.41421356237310453
10
160.57536150301331
20
-90.674085696199825
10
160.57536150301317
20
-103.57408569619983
42
0.41421356237310453
10
161.12536150301321
20
-104.12408569619983
10
174.02536150301313
20
-104.12408569619996
42
0.4142135623730856
10
174.57536150301314
20
-103.57408569619999
10
174.57536150301323
20
-90.674085696199981
42
0.41421356237311396
10
174.02536150301324
20
-90.124085696199941
0
LWPOLYLINE
5
143
100
AcDbEntity
8
0
100
AcDbPolyline
90
8
70
1
43
0.0
10
154.97536150301318
20
-104.12408569619976
42
0.41421356237311396
10
155.52536150301313
20
-103.57408569619977
10
155.5253615030133
20
-90.674085696199782
42
0.41421356237309503
10
154.97536150301329
20
-90.124085696199799
10
142.07536150301326
20
-90.124085696199657
42
0.41421356237312346
10
141.52536150301327
20
-90.674085696199683
10
141.52536150301316
20
-103.57408569619966
42
0.41421356237309503
10
142.07536150301314
20
-104.12408569619969
0
LWPOLYLINE
5
144
100
AcDbEntity
8
0
100
AcDbPolyline
90
8
70
1
43
0.0
10
146.83786150301361
20
-52.024085696199684
42
0.41421356237310919
10
146.28786150301357
20
-52.57408569619966
10
146.28786150301349
20
-65.474085696199666
42
0.41421356237309975
10
146.83786150301347
20
-66.024085696199677
10
159.73786150301348
20
-66.024085696199805
42
0.41421356237307611
10
160.28786150301352
20
-65.474085696199779
10
160.28786150301357
20
-52.574085696199802
42
0.41421356237309037
10
159.73786150301359
20
-52.024085696199819
0
LWPOLYLINE
5
145
100
AcDbEntity
8
0
100
AcDbPolyline
90
8
70
1
43
0.0
10
189.70036150301343
20
-71.074085696200086
42
0.41421356237312812
10
189.15036150301344
20
-71.624085696200069
10
189.15036150301333
20
-84.524085696200117
42
0.41421356237305718
10
189.70036150301331
20
-85.074085696200115
10
202.60036150301329
20
-85.074085696200228
42
0.41421356237309503
10
203.1503615030133
20
-84.524085696200245
10
203.15036150301341
20
-71.624085696200183
42
0.41421356237309503
10
202.60036150301343
20
-71.074085696200214
0
LWPOLYLINE
5
146
100
AcDbEntity
8
0
100
AcDbPolyline
90
8
70
1
43
0.0
10
170.65036150301341
20
-71.074085696199901
42
0.41421356237312812
10
170.10036150301343
20
-71.624085696199884
10
170.10036150301332
20
-84.524085696199933
42
0.41421356237305718
10
170.6503615030133
20
-85.074085696199944
10
183.55036150301328
20
-85.074085696200086
42
0.41421356237312346
10
184.10036150301329
20
-84.524085696200046
10
184.1003615030134
20
-71.624085696200012
42
0.41421356237309503
10
183.55036150301342
20
-71.074085696200029
0
LWPOLYLINE
5
147
100
AcDbEntity
8
0
100
AcDbPolyline
90
8
70
1
43
0.0
10
216.88786150301343
20
-66.024085696200302
42
0.41421356237310919
10
217.43786150301347
20
-65.474085696200319
10
217.43786150301361
20
-52.574085696200314
42
0.41421356237310919
10
216.88786150301365
20
-52.024085696200331
10
203.98786150301365
20
-52.024085696200174
42
0.41421356237311396
10
203.43786150301361
20
-52.574085696200186
10
203.43786150301344
20
-65.474085696200191
42
0.41421356237309975
10
203.98786150301348
20
-66.024085696200217
0
LWPOLYLINE
5
148
100
AcDbEntity
8
0
100
AcDbPolyline
90
8
70
1
43
0.0
10
197.83786150301341
20
-66.024085696200132
42
0.41421356237310919
10
198.38786150301345
20
-65.474085696200163
10
198.3878615030136
20
-52.574085696200157
42
0.4142135623730856
10
197.83786150301364
20
-52.024085696200174
10
184.93786150301364
20
-52.024085696200004
42
0.41421356237309503
10
184.3878615030136
20
-52.574085696200029
10
184.38786150301343
20
-65.474085696200007
42
0.41421356237309975
10
184.93786150301347
20
-66.024085696200046
0
LWPOLYLINE
5
149
100
AcDbEntity
8
0
100
AcDbPolyline
90
8
70
1
43
0.0
10
212.12536150301315
20
-104.12408569620032
42
0.4142135623730856
10
212.67536150301316
20
-103.57408569620031
10
212.67536150301325
20
-90.674085696200308
42
0.41421356237305718
10
212.12536150301327
20
-90.124085696200325
10
199.22536150301326
20
-90.124085696200211
42
0.41421356237311396
10
198.67536150301328
20
-90.674085696200166
10
198.67536150301319
20
-103.57408569620019
42
0.41421356237305718
10
199.22536150301318
20
-104.1240856962002
0
LWPOLYLINE
5
150
100
AcDbEntity
8
0
100
AcDbPolyline
90
8
70
1
43
0.0
10
123.02536150301329
20
-90.124085696199487
42
0.41421356237315182
10
122.47536150301329
20
-90.674085696199484
10
122.47536150301315
20
-103.57408569619948
42
0.41421356237307611
10
123.02536150301316
20
-104.1240856961995
10
135.92536150301316
20
-104.12408569619959
42
0.41421356237309503
10
136.47536150301318
20
-103.5740856961996
10
136.47536150301332
20
-90.674085696199597
42
0.4142135623730856
10
135.92536150301328
20
-90.124085696199629
0
LWPOLYLINE
5
151
100
AcDbEntity
8
0
100
AcDbPolyline
90
8
70
1
43
0.0
10
165.88786150301362
20
-52.024085696199826
42
0.4142135623730856
10
165.33786150301358
20
-52.574085696199838
10
165.33786150301347
20
-65.474085696199836
42
0.41421356237313761
10
165.88786150301345
20
-66.024085696199847
10
178.78786150301349
20
-66.024085696199947
42
0.41421356237312346
10
179.33786150301347
20
-65.474085696199978
10
179.33786150301361
20
-52.57408569619998
42
0.41421356237311396
10
178.78786150301366
20
-52.02408569619999
0
CIRCLE
5
152
100
AcDbEntity
8
0
100
AcDbCircle
10
27.258343737782464
20
-51.847453992359917
30
-5.8009153036664429e-14
40
3.600000000000001
210
-3.9236770115299053e-18
220
-1.124100812432971e-15
230
1
0
LWPOLYLINE
5
153
100
AcDbEntity
8
0
100
AcDbPolyline
90
8
70
1
43
0.0
10
36.462861503013755
20
-33.524085696198675
10
36.462861503013627
20
-46.424085696198674
42
-0.4142135623730927
10
35.91286150301363
20
-46.974085696198671
10
23.012861503013635
20
-46.974085696198557
42
-0.41421356237310214
10
22.462861503013634
20
-46.424085696198546
10
22.462861503013748
20
-33.52408569619854
42
-0.41421356237308793
10
23.01286150301376
20
-32.974085696198557
10
35.912861503013758
20
-32.974085696198671
42
-0.41421356237309975
0
LWPOLYLINE
5
154
100
AcDbEntity
8
0
100
AcDbPolyline
90
8
70
1
43
0.0
10
212.9628615030137
20
-46.424085696200294
10
212.96286150301376
20
-33.524085696200288
42
-0.41421356237315654
10
213.51286150301377
20
-32.974085696200305
10
226.41286150301374
20
-32.974085696200419
42
-0.41421356237313289
10
226.96286150301376
20
-33.524085696200416
10
226.9628615030137
20
-46.424085696200422
42
-0.41421356237312346
10
226.41286150301369
20
-46.97408569620039
10
213.51286150301371
20
-46.974085696200298
42
-0.41421356237313761
0
LWPOLYLINE
5
155
100
AcDbEntity
8
0
100
AcDbPolyline
90
8
70
1
43
0.0
10
193.91286150301369
20
-46.424085696200109
10
193.91286150301374
20
-33.524085696200117
42
-0.41421356237316126
10
194.46286150301376
20
-32.974085696200127
10
207.36286150301373
20
-32.974085696200248
42
-0.41421356237313056
10
207.91286150301374
20
-33.524085696200238
10
207.91286150301369
20
-46.424085696200237
42
-0.41421356237313289
10
207.36286150301368
20
-46.974085696200227
10
194.4628615030137
20
-46.97408569620012
42
-0.41421356237313761
0
LWPOLYLINE
5
156
100
AcDbEntity
8
0
100
AcDbPolyline
90
8
70
1
43
0.0
10
174.86286150301368
20
-46.424085696199946
10
174.86286150301373
20
-33.524085696199947
42
-0.41421356237315654
10
175.41286150301374
20
-32.974085696199957
10
188.31286150301378
20
-32.974085696200071
42
-0.41421356237313289
10
188.86286150301376
20
-33.524085696200068
10
188.8628615030137
20
-46.424085696200059
42
-0.41421356237312812
10
188.31286150301369
20
-46.974085696200035
10
175.41286150301369
20
-46.974085696199921
42
-0.41421356237312346
0
LWPOLYLINE
5
157
100
AcDbEntity
8
0
100
AcDbPolyline
90
8
70
1
43
0.0
10
155.81286150301366
20
-46.424085696199754
10
155.81286150301375
20
-33.524085696199762
42
-0.41421356237311635
10
156.36286150301376
20
-32.974085696199779
10
169.26286150301377
20
-32.974085696199886
42
-0.41421356237313522
10
169.81286150301375
20
-33.52408569619989
10
169.81286150301369
20
-46.424085696199882
42
-0.41421356237313289
10
169.26286150301368
20
-46.974085696199872
10
156.36286150301368
20
-46.974085696199765
42
-0.41421356237311868
0
LWPOLYLINE
5
158
100
AcDbEntity
8
0
100
AcDbPolyline
90
8
70
1
43
0.0
10
136.76286150301368
20
-46.424085696199597
10
136.76286150301377
20
-33.524085696199599
42
-0.41421356237311868
10
137.31286150301378
20
-32.974085696199602
10
150.21286150301376
20
-32.974085696199722
42
-0.41421356237310214
10
150.76286150301374
20
-33.524085696199712
10
150.76286150301365
20
-46.424085696199711
42
-0.41421356237309037
10
150.21286150301364
20
-46.974085696199722
10
137.31286150301366
20
-46.97408569619958
42
-0.41421356237307611
0
LWPOLYLINE
5
159
100
AcDbEntity
8
0
100
AcDbPolyline
90
8
70
1
43
0.0
10
117.71286150301367
20
-46.424085696199413
10
117.71286150301377
20
-33.524085696199421
42
-0.41421356237311396
10
118.26286150301378
20
-32.974085696199438
10
131.16286150301377
20
-32.974085696199559
42
-0.41421356237308793
10
131.71286150301376
20
-33.524085696199542
10
131.71286150301367
20
-46.424085696199541
42
-0.4142135623730856
10
131.16286150301366
20
-46.974085696199538
10
118.26286150301368
20
-46.974085696199417
42
-0.41421356237309037
0
LWPOLYLINE
5
160
100
AcDbEntity
8
0
100
AcDbPolyline
90
8
70
1
43
0.0
10
98.662861503013701
20
-46.424085696199249
10
98.662861503013772
20
-33.524085696199258
42
-0.41421356237310686
10
99.212861503013784
20
-32.974085696199246
10
112.11286150301376
20
-32.974085696199381
42
-0.41421356237308793
10
112.66286150301376
20
-33.524085696199364
10
112.66286150301367
20
-46.42408569619937
42
-0.41421356237309503
10
112.11286150301365
20
-46.974085696199381
10
99.21286150301367
20
-46.974085696199239
42
-0.41421356237307144
0
LWPOLYLINE
5
161
100
AcDbEntity
8
0
100
AcDbPolyline
90
48
70
1
43
0.0
10
282.281211503012
20
-84.287085704653407
42
0.41421356237309503
10
281.73121150301199
20
-84.837085704653404
10
281.73121150301193
20
-86.974085697415944
42
-0.41421356237309503
10
281.18121150301198
20
-87.524085697415927
10
273.75661150301391
20
-87.524085697415629
42
-0.41421356237309503
10
273.20661150301396
20
-86.974085697415632
10
273.20661150301396
20
-85.624085694843615
42
0.41421356237312346
10
272.65661150301389
20
-85.074085694843603
10
257.75661150301397
20
-85.074085694843475
42
0.41421356237312346
10
257.20661150301396
20
-85.624085694843473
10
257.2066115030139
20
-86.974085697414964
42
-0.4142135623730856
10
256.65661150301395
20
-87.524085697414932
10
249.81861150301327
20
-87.524085697414677
42
-0.41421356237309503
10
249.26861150301329
20
-86.974085697414679
10
249.26861150301329
20
-85.424085704653407
42
0.41421356237311396
10
248.71861150301331
20
-84.874085704653368
10
246.80036150301308
20
-84.874085704653425
42
-0.41421356237311396
10
246.25036150301304
20
-84.324085704653427
10
246.25036150301312
20
-71.624085696201576
42
-0.41421356237307144
10
246.80036150301308
20
-71.074085696201593
10
248.71861150301345
20
-71.074085696201465
42
0.41421356237306667
10
249.2686115030134
20
-70.524085696201467
10
249.26861150301346
20
-68.644085694843668
42
-0.41421356237309503
10
249.81861150301344
20
-68.09408569484367
10
256.71861150301345
20
-68.094085694843727
42
-0.41421356237310453
10
257.26861150301346
20
-68.644085694843739
10
257.26861150301323
20
-70.274085695796003
42
0.41421356237310453
10
257.81861150301341
20
-70.824085695796015
10
264.7503615030131
20
-70.824085695796072
42
0.41421356237312346
10
265.30036150301311
20
-70.274085695796089
10
265.30036150301322
20
-52.574085696200754
42
-0.41421356237309037
10
265.85036150301323
20
-52.024085696200764
10
283.71321150301344
20
-52.024085696200927
42
-0.41421356237308082
10
284.26321150301339
20
-52.574085696200932
10
284.26321150301334
20
-59.72408569397394
42
-0.41421356237309037
10
283.71321150301333
20
-60.27408569397393
10
280.03121150301331
20
-60.274085693973873
42
0.41421356237314239
10
279.4812115030133
20
-60.824085693973863
10
279.4812115030133
20
-61.124085694843941
42
0.41421356237313761
10
280.03121150301331
20
-61.674085694843946
10
281.23121150301336
20
-61.674085694843981
42
-0.41421356237309503
10
281.78121150301331
20
-62.224085694843978
10
281.78121150301291
20
-76.137085704653359
42
0.41421356237314239
10
282.33121150301292
20
-76.687085704653384
10
283.7132115030131
20
-76.687085704653398
42
-0.41421356237308082
10
284.26321150301311
20
-77.23708570465341
10
284.263211503013
20
-83.737085704653424
42
-0.41421356237309503
10
283.71321150301304
20
-84.287085704653435
0
ENDSEC
0
SECTION
2
OBJECTS
0
DICTIONARY
5
C
100
AcDbDictionary
3
ACAD_GROUP
350
D
3
ACAD_MLINESTYLE
350
17
0
DICTIONARY
5
D
100
AcDbDictionary
0
DICTIONARY
5
1A
330
C
100
AcDbDictionary
0
DICTIONARY
5
17
100
AcDbDictionary
0
ENDSEC
0
EOF
