0
SECTION
2
HEADER
9
$INSUNITS
70
4
9
$ACADVER
1
AC1014
9
$HANDSEED
5
FFFF
0
ENDSEC
0
SECTION
2
TABLES
0
TABLE
2
VPORT
5
8
100
AcDbSymbolTable
0
ENDTAB
0
TABLE
2
LTYPE
5
5
100
AcDbSymbolTable
0
LTYPE
5
14
100
AcDbSymbolTableRecord
100
AcDbLinetypeTableRecord
2
BYBLOCK
70
0
0
LTYPE
5
15
100
AcDbSymbolTableRecord
100
AcDbLinetypeTableRecord
2
BYLAYER
70
0
0
ENDTAB
0
TABLE
2
LAYER
5
2
100
AcDbSymbolTable
70
2
0
LAYER
5
50
100
AcDbSymbolTableRecord
100
AcDbLayerTableRecord
2
0
70
0
6
CONTINUOUS
0
ENDTAB
0
TABLE
2
STYLE
5
3
100
AcDbSymbolTable
70
1
0
STYLE
5
11
100
AcDbSymbolTableRecord
100
AcDbTextStyleTableRecord
2
STANDARD
70
0
0
ENDTAB
0
TABLE
2
VIEW
5
6
100
AcDbSymbolTable
70
0
0
ENDTAB
0
TABLE
2
UCS
5
7
100
AcDbSymbolTable
70
0
0
ENDTAB
0
TABLE
2
APPID
5
9
100
AcDbSymbolTable
70
2
0
APPID
5
12
100
AcDbSymbolTableRecord
100
AcDbRegAppTableRecord
2
ACAD
70
0
0
ENDTAB
0
TABLE
2
DIMSTYLE
5
A
100
AcDbSymbolTable
70
1
0
ENDTAB
0
TABLE
2
BLOCK_RECORD
5
1
100
AcDbSymbolTable
70
1
0
BLOCK_RECORD
5
1F
100
AcDbSymbolTableRecord
100
AcDbBlockTableRecord
2
*MODEL_SPACE
0
BLOCK_RECORD
5
1B
100
AcDbSymbolTableRecord
100
AcDbBlockTableRecord
2
*PAPER_SPACE
0
ENDTAB
0
ENDSEC
0
SECTION
2
BLOCKS
0
BLOCK
5
20
100
AcDbEntity
100
AcDbBlockBegin
2
*MODEL_SPACE
0
ENDBLK
5
21
100
AcDbEntity
100
AcDbBlockEnd
0
BLOCK
5
1C
100
AcDbEntity
100
AcDbBlockBegin
2
*PAPER_SPACE
0
ENDBLK
5
1D
100
AcDbEntity
100
AcDbBlockEnd
0
ENDSEC
0
SECTION
2
ENTITIES
0
LWPOLYLINE
5
100
100
AcDbEntity
8
0
100
AcDbPolyline
90
38
70
1
43
0.0
10
60.263269810020574
20
19.574999999999992
42
-0.22973480258652579
10
60.538143327340272
20
19.441666909047729
42
0.48507070543719383
10
63.286876992659685
20
19.441666909047726
42
-0.229734802586544
10
63.561750509979369
20
19.574999999999992
10
98.363264730020546
20
19.575000000000003
42
-0.22973480258651433
10
98.638138247340251
20
19.441666909047722
42
0.48507070543719838
10
101.38687191265964
20
19.441666909047715
42
-0.22973480258651829
10
101.66174542997935
20
19.574999999999992
10
193.6132647300206
20
19.574999999999982
42
-0.22973480258662676
10
193.88813824734027
20
19.441666909047736
42
0.48507070543719022
10
196.63687191265967
20
19.441666909047751
42
-0.22973480258651466
10
196.91174542997936
20
19.574999999999992
10
231.71326473002054
20
19.574999999999982
42
-0.22973480258662676
10
231.9881382473402
20
19.441666909047736
42
1.4571791431437686
10
233.65416748666703
20
22.250523876519349
42
-0.36597805544909173
10
233.36250000000001
20
22.595628669137859
10
233.36249999999995
20
37.549999999999983
42
-0.41421356237309503
10
233.91249999999997
20
38.099999999999994
10
242.33749999999998
20
38.10000000000003
42
0.41421356237310919
10
242.88749999999996
20
38.649999999999991
10
242.88749999999996
20
56.599999999999994
42
-0.41421356237309503
10
243.43749999999997
20
57.149999999999999
10
256.625
20
57.150000000000041
42
0.41421356237317547
10
257.17499999999995
20
57.700000000000003
10
257.17499999999995
20
75.125000000000014
42
0.41421356237309037
10
256.62499999999994
20
75.675000000000011
10
29.124999999999961
20
75.675000000000011
42
0.41421356237310919
10
28.574999999999953
20
75.125000000000014
10
28.57499999999995
20
57.700000000000003
42
0.41421356237308793
10
29.124999999999957
20
57.149999999999999
10
32.787499999999959
20
57.149999999999991
42
-0.41421356237309503
10
33.337499999999956
20
56.599999999999994
10
33.337499999999963
20
38.649999999999991
42
0.4142135623730927
10
33.88749999999996
20
38.099999999999994
10
42.312499999999957
20
38.09999999999998
42
-0.41421356237309037
10
42.862499999999955
20
37.549999999999997
10
42.862499999999983
20
20.124999999999993
42
0.41421356237311635
10
43.412499999999987
20
19.574999999999992
0
LWPOLYLINE
5
101
100
AcDbEntity
8
0
100
AcDbPolyline
90
8
70
1
43
0.0
10
243.03125
20
35.025000000000148
42
-0.41421356237303358
10
243.58125000000001
20
35.575000000000152
10
256.48124999999999
20
35.57500000000018
42
-0.41421356237307377
10
257.03124999999994
20
35.025000000000155
10
257.03124999999994
20
22.125000000000146
42
-0.41421356237302648
10
256.48124999999999
20
21.575000000000149
10
243.58125000000001
20
21.575000000000113
42
-0.41421356237311396
10
243.03125
20
22.125000000000146
0
LWPOLYLINE
5
102
100
AcDbEntity
8
0
100
AcDbPolyline
90
8
70
1
43
0.0
10
12.443249999999983
20
35.575000000000031
42
-0.4142135623730962
10
12.993249999999982
20
35.025000000000034
10
12.993249999999996
20
20.125000000000021
42
-0.41421356237309503
10
12.44324999999999
20
19.575000000000031
10
6.5432499999999907
20
19.575000000000028
42
-0.41421356237309687
10
5.9932499999999891
20
20.125000000000025
10
5.9932499999999811
20
35.025000000000034
42
-0.4142135623730927
10
6.5432499999999827
20
35.575000000000031
0
LWPOLYLINE
5
103
100
AcDbEntity
8
0
100
AcDbPolyline
90
8
70
1
43
0.0
10
44.549999999999997
20
16.525000000000034
10
29.268749999999997
20
16.525000000000027
42
0.4142135623730962
10
28.71875
20
15.975000000000028
10
28.718750000000011
20
3.0750000000000162
42
0.41421356237309237
10
29.268750000000008
20
2.5250000000000181
10
44.550000000000011
20
2.5250000000000279
42
0.4142135623730841
10
45.100000000000009
20
3.0750000000000233
10
45.099999999999994
20
15.975000000000035
42
0.41421356237307966
0
LWPOLYLINE
5
104
100
AcDbEntity
8
0
100
AcDbPolyline
90
8
70
1
43
0.0
10
263.625
20
16.525000000000084
42
-0.41421356237312462
10
264.17499999999995
20
15.975000000000136
10
264.17499999999995
20
3.0750000000001254
42
-0.41421356237310719
10
263.625
20
2.5250000000001274
10
250.72500000000002
20
2.5250000000001203
42
-0.41421356237313345
10
250.17500000000001
20
3.0750000000001187
10
250.17500000000001
20
15.975000000000133
42
-0.41421356237313289
10
250.72500000000002
20
16.52500000000013
0
LWPOLYLINE
5
105
100
AcDbEntity
8
0
100
AcDbPolyline
90
8
70
1
43
0.0
10
98.32499999999996
20
78.725000000000108
42
-0.41421356237306667
10
97.774999999999977
20
79.275000000000105
10
97.774999999999963
20
92.175000000000082
42
-0.41421356237310453
10
98.32499999999996
20
92.725000000000136
10
111.22499999999995
20
92.725000000000108
42
-0.41421356237312346
10
111.77499999999996
20
92.175000000000082
10
111.77499999999998
20
79.275000000000105
42
-0.41421356237311868
10
111.22499999999997
20
78.725000000000108
0
LWPOLYLINE
5
106
100
AcDbEntity
8
0
100
AcDbPolyline
90
8
70
1
43
0.0
10
301.72499999999997
20
92.725000000000222
42
-0.4142135623730856
10
302.27499999999998
20
92.175000000000168
10
302.27499999999992
20
79.27500000000019
42
-0.41421356237308082
10
301.72500000000002
20
78.725000000000207
10
288.82499999999999
20
78.725000000000193
42
-0.41421356237312812
10
288.27499999999998
20
79.27500000000019
10
288.27499999999998
20
92.175000000000168
42
-0.41421356237315182
10
288.82499999999999
20
92.725000000000207
0
LWPOLYLINE
5
107
100
AcDbEntity
8
0
100
AcDbPolyline
90
8
70
1
43
0.0
10
54.624999999999972
20
79.275000000000077
10
54.624999999999957
20
92.175000000000082
42
0.41421356237307611
10
54.07499999999996
20
92.72500000000008
10
41.174999999999955
20
92.725000000000094
42
0.4142135623730856
10
40.624999999999957
20
92.17500000000004
10
40.624999999999964
20
79.275000000000063
42
0.41421356237309037
10
41.174999999999962
20
78.725000000000065
10
54.074999999999974
20
78.72500000000008
42
0.41421356237309503
0
LWPOLYLINE
5
108
100
AcDbEntity
8
0
100
AcDbPolyline
90
8
70
1
43
0.0
10
264.46249999999998
20
73.125000000000199
42
-0.41421356237316126
10
265.01249999999993
20
73.675000000000196
10
277.91250000000002
20
73.675000000000196
42
-0.41421356237312812
10
278.46249999999992
20
73.125000000000199
10
278.46249999999992
20
60.225000000000186
42
-0.4142135623730856
10
277.91250000000002
20
59.675000000000189
10
265.01249999999993
20
59.675000000000146
42
-0.41421356237311396
10
264.46249999999998
20
60.225000000000179
0
LWPOLYLINE
5
109
100
AcDbEntity
8
0
100
AcDbPolyline
90
14
70
1
43
0.0
10
196.52500000000003
20
17.975000000000108
42
-0.414213562373069
10
197.07500000000007
20
18.525000000000105
10
202.97499999999999
20
18.525000000000073
42
-0.41421356237315182
10
203.52500000000006
20
17.975000000000112
10
203.52500000000006
20
16.525000000000112
10
211.23750000000004
20
16.52500000000008
42
-0.41421356237309742
10
211.78750000000008
20
15.975000000000115
10
211.78750000000008
20
3.0750000000001076
42
-0.41421356237313289
10
211.23750000000001
20
2.5250000000001083
10
195.95625000000001
20
2.5250000000001243
42
-0.41421356237310242
10
195.40625000000006
20
3.0750000000000988
10
195.40625000000009
20
15.975000000000108
42
-0.41421356237321094
10
195.95625000000001
20
16.525000000000109
10
196.52500000000003
20
16.525000000000109
0
LWPOLYLINE
5
110
100
AcDbEntity
8
0
100
AcDbPolyline
90
8
70
1
43
0.0
10
269.22500000000008
20
15.975000000000142
10
269.22500000000002
20
3.0750000000001281
42
0.4142135623730554
10
269.77499999999998
20
2.5250000000001203
10
282.6749999999999
20
2.5250000000001376
42
0.41421356237313173
10
283.22500000000002
20
3.0750000000001365
10
283.22500000000002
20
15.975000000000151
42
0.41421356237313522
10
282.6749999999999
20
16.525000000000137
10
269.77499999999998
20
16.525000000000137
42
0.41421356237302648
0
LWPOLYLINE
5
111
100
AcDbEntity
8
0
100
AcDbPolyline
90
8
70
1
43
0.0
10
79.274999999999977
20
78.72500000000008
10
92.174999999999955
20
78.725000000000094
42
0.41421356237309975
10
92.724999999999994
20
79.275000000000105
10
92.724999999999966
20
92.175000000000082
42
0.41421356237309503
10
92.17499999999994
20
92.725000000000108
10
79.274999999999963
20
92.725000000000108
42
0.41421356237312812
10
78.72499999999998
20
92.17500000000004
10
78.724999999999994
20
79.275000000000077
42
0.41421356237307611
0
LWPOLYLINE
5
112
100
AcDbEntity
8
0
100
AcDbPolyline
90
8
70
1
43
0.0
10
235.0500000000001
20
16.525000000000137
10
217.38750000000007
20
16.525000000000119
42
0.41421356237306783
10
216.83750000000003
20
15.975000000000122
10
216.83750000000003
20
3.0750000000001112
42
0.41421356237309592
10
217.38750000000007
20
2.5250000000001362
10
235.0500000000001
20
2.5250000000001189
42
0.41421356237307583
10
235.60000000000002
20
3.0750000000001187
10
235.60000000000005
20
15.975000000000128
42
0.41421356237305718
0
LWPOLYLINE
5
113
100
AcDbEntity
8
0
100
AcDbPolyline
90
8
70
1
43
0.0
10
149.32499999999999
20
92.725000000000136
10
136.42499999999995
20
92.725000000000151
42
0.41421356237307611
10
135.87499999999994
20
92.175000000000097
10
135.87499999999997
20
79.275000000000119
42
0.41421356237311868
10
136.42499999999998
20
78.725000000000122
10
149.32500000000002
20
78.725000000000136
42
0.41421356237309503
10
149.87499999999997
20
79.275000000000119
10
149.87499999999994
20
92.175000000000097
42
0.41421356237312346
0
LWPOLYLINE
5
114
100
AcDbEntity
8
0
100
AcDbPolyline
90
8
70
1
43
0.0
10
14.431249999999983
20
35.025000000000041
10
14.431249999999991
20
22.125000000000036
42
0.41421356237310686
10
14.981249999999989
20
21.575000000000028
10
27.881250000000001
20
21.575000000000038
42
0.41421356237308082
10
28.431250000000002
20
22.125000000000039
10
28.431249999999991
20
35.025000000000041
42
0.41421356237308793
10
27.881249999999991
20
35.575000000000038
10
14.981249999999982
20
35.575000000000038
42
0.41421356237309387
0
LWPOLYLINE
5
115
100
AcDbEntity
8
0
100
AcDbPolyline
90
8
70
1
43
0.0
10
35.574999999999946
20
79.275000000000063
42
-0.41421356237311163
10
35.024999999999956
20
78.72500000000008
10
22.124999999999964
20
78.72500000000008
42
-0.4142135623730927
10
21.574999999999967
20
79.275000000000063
10
21.57499999999996
20
92.17500000000004
42
-0.41421356237310453
10
22.124999999999957
20
92.725000000000094
10
35.024999999999949
20
92.725000000000094
42
-0.41421356237309503
10
35.574999999999946
20
92.175000000000068
0
LWPOLYLINE
5
116
100
AcDbEntity
8
0
100
AcDbPolyline
90
8
70
1
43
0.0
10
123.96875000000001
20
15.975000000000072
10
123.96875000000001
20
3.075000000000065
42
0.41421356237308943
10
124.51875000000001
20
2.5250000000000745
10
149.32500000000005
20
2.5250000000000767
42
0.41421356237311513
10
149.87500000000006
20
3.0750000000000766
10
149.87500000000006
20
15.975000000000083
42
0.41421356237309037
10
149.32500000000005
20
16.525000000000073
10
124.51875000000001
20
16.525000000000066
42
0.41421356237311513
0
LWPOLYLINE
5
117
100
AcDbEntity
8
0
100
AcDbPolyline
90
8
70
1
43
0.0
10
288.82499999999999
20
21.575000000000152
42
-0.41421356237313522
10
288.27499999999998
20
22.125000000000156
10
288.27499999999998
20
35.025000000000155
42
-0.41421356237303592
10
288.82499999999999
20
35.575000000000166
10
301.72500000000002
20
35.575000000000159
42
-0.41421356237312346
10
302.27499999999998
20
35.025000000000183
10
302.27499999999998
20
22.12500000000016
42
-0.41421356237310686
10
301.72500000000002
20
21.575000000000166
0
LWPOLYLINE
5
118
100
AcDbEntity
8
0
100
AcDbPolyline
90
8
70
1
43
0.0
10
168.92499999999998
20
79.275000000000119
10
168.92499999999998
20
92.175000000000125
42
0.41421356237311396
10
168.375
20
92.725000000000165
10
155.47499999999994
20
92.725000000000136
42
0.41421356237312346
10
154.92499999999995
20
92.175000000000097
10
154.92499999999998
20
79.275000000000119
42
0.41421356237313289
10
155.47499999999997
20
78.725000000000136
10
168.375
20
78.725000000000136
42
0.41421356237313761
0
LWPOLYLINE
5
119
100
AcDbEntity
8
0
100
AcDbPolyline
90
8
70
1
43
0.0
10
255.88075000000001
20
39.175000000000168
10
255.88075000000001
20
54.075000000000173
42
0.41421356237312812
10
255.33074999999994
20
54.625000000000142
10
249.43074999999996
20
54.625000000000142
42
0.41421356237306195
10
248.88074999999998
20
54.075000000000166
10
248.88074999999998
20
39.175000000000153
42
0.41421356237311635
10
249.43074999999996
20
38.625000000000128
10
255.33074999999997
20
38.625000000000156
42
0.41421356237308321
0
LWPOLYLINE
5
120
100
AcDbEntity
8
0
100
AcDbPolyline
90
8
70
1
43
0.0
10
288.82499999999999
20
40.625000000000135
10
301.72500000000002
20
40.625000000000156
42
0.4142135623730856
10
302.27499999999998
20
41.175000000000175
10
302.27499999999998
20
54.075000000000188
42
0.41421356237307611
10
301.72500000000002
20
54.625000000000142
10
288.82499999999999
20
54.625000000000171
42
0.41421356237316598
10
288.27499999999998
20
54.075000000000166
10
288.27499999999998
20
41.175000000000153
42
0.41421356237311396
0
LWPOLYLINE
5
121
100
AcDbEntity
8
0
100
AcDbPolyline
90
8
70
1
43
0.0
10
53.081250000000004
20
2.5250000000000368
42
-0.4142135623731113
10
52.531250000000007
20
3.0750000000000277
10
52.531250000000007
20
15.975000000000035
42
-0.41421356237310336
10
53.081249999999997
20
16.525000000000038
10
68.362499999999997
20
16.525000000000041
42
-0.41421356237307849
10
68.912500000000009
20
15.975000000000041
10
68.912500000000009
20
3.0750000000000388
42
-0.41421356237308621
10
68.362500000000011
20
2.5250000000000394
0
LWPOLYLINE
5
122
100
AcDbEntity
8
0
100
AcDbPolyline
90
8
70
1
43
0.0
10
183.91874999999999
20
18.525000000000105
10
178.01875000000001
20
18.525000000000098
42
0.41421356237313173
10
177.46875000000003
20
17.975000000000101
10
177.46875000000003
20
3.0750000000000917
42
0.41421356237313323
10
178.01875000000001
20
2.525000000000106
10
183.91874999999999
20
2.5250000000000949
42
0.41421356237310919
10
184.46875000000003
20
3.0750000000000943
10
184.46875000000003
20
17.975000000000101
42
0.41421356237308321
0
LWPOLYLINE
5
123
100
AcDbEntity
8
0
100
AcDbPolyline
90
8
70
1
43
0.0
10
21.287499999999994
20
3.0750000000000122
10
21.287499999999994
20
15.975000000000023
42
0.41421356237309037
10
20.737499999999997
20
16.52500000000002
10
5.4562500000000034
20
16.525000000000013
42
0.41421356237309803
10
4.9062499999999893
20
15.975000000000017
10
4.9062500000000009
20
3.0750000000000055
42
0.41421356237309476
10
5.4562500000000025
20
2.5250000000000079
10
20.737500000000004
20
2.5250000000000123
42
0.4142135623730977
0
LWPOLYLINE
5
124
100
AcDbEntity
8
0
100
AcDbPolyline
90
8
70
1
43
0.0
10
283.22500000000002
20
22.125000000000167
42
-0.41421356237313289
10
282.6749999999999
20
21.575000000000166
10
269.77499999999998
20
21.575000000000127
42
-0.41421356237305718
10
269.22500000000002
20
22.12500000000016
10
269.22500000000008
20
35.025000000000162
42
-0.41421356237307611
10
269.77499999999998
20
35.575000000000166
10
282.6749999999999
20
35.575000000000173
42
-0.41421356237315654
10
283.22500000000002
20
35.025000000000169
0
LWPOLYLINE
5
125
100
AcDbEntity
8
0
100
AcDbPolyline
90
20
70
1
43
0.0
10
282.13799999999998
20
78.725000000000193
10
282.67499999999995
20
78.725000000000193
42
0.41421356237308082
10
283.22500000000002
20
79.27500000000019
10
283.22500000000002
20
92.175000000000168
42
0.41421356237310453
10
282.67499999999995
20
92.725000000000222
10
250.72499999999997
20
92.725000000000193
42
0.41421356237310453
10
250.17499999999995
20
92.175000000000153
10
250.17499999999998
20
79.275000000000176
42
0.41421356237310919
10
250.72500000000002
20
78.725000000000193
10
251.26200000000009
20
78.725000000000179
10
251.26200000000009
20
77.275000000000176
42
0.41421356237315182
10
251.81200000000001
20
76.725000000000179
10
257.71199999999999
20
76.725000000000179
42
0.41421356237307611
10
258.26200000000006
20
77.275000000000176
10
258.26200000000006
20
78.725000000000193
10
275.13799999999998
20
78.725000000000193
10
275.13799999999998
20
77.27500000000019
42
0.41421356237313761
10
275.68799999999999
20
76.725000000000193
10
281.58799999999997
20
76.725000000000207
42
0.41421356237307611
10
282.13799999999998
20
77.27500000000019
0
LWPOLYLINE
5
126
100
AcDbEntity
8
0
100
AcDbPolyline
90
8
70
1
43
0.0
10
207.02499999999998
20
79.275000000000148
10
207.02499999999998
20
92.175000000000139
42
0.41421356237311396
10
206.47499999999997
20
92.725000000000165
10
193.57499999999999
20
92.725000000000165
42
0.41421356237305718
10
193.02500000000003
20
92.175000000000125
10
193.02500000000003
20
79.275000000000148
42
0.41421356237310453
10
193.57499999999999
20
78.725000000000136
10
206.47499999999997
20
78.725000000000165
42
0.41421356237312812
0
LWPOLYLINE
5
127
100
AcDbEntity
8
0
100
AcDbPolyline
90
8
70
1
43
0.0
10
5.4562499999999812
20
40.625000000000036
42
-0.4142135623731063
10
4.9062499999999805
20
41.175000000000011
10
4.9062499999999707
20
54.075000000000045
42
-0.41421356237309037
10
5.456249999999967
20
54.625000000000028
10
23.118749999999984
20
54.625000000000043
42
-0.41421356237307377
10
23.668749999999982
20
54.07500000000006
10
23.668749999999996
20
41.175000000000033
42
-0.41421356237309975
10
23.118749999999988
20
40.625000000000036
0
LWPOLYLINE
5
128
100
AcDbEntity
8
0
100
AcDbPolyline
90
8
70
1
43
0.0
10
288.27499999999998
20
73.125000000000185
42
-0.41421356237315654
10
288.82499999999999
20
73.675000000000196
10
301.72500000000002
20
73.675000000000225
42
-0.41421356237305718
10
302.27499999999998
20
73.125000000000199
10
302.27499999999992
20
60.225000000000186
42
-0.41421356237321327
10
301.72500000000002
20
59.675000000000182
10
288.82499999999999
20
59.675000000000161
42
-0.41421356237310453
10
288.27499999999998
20
60.225000000000179
0
LWPOLYLINE
5
129
100
AcDbEntity
8
0
100
AcDbPolyline
90
8
70
1
43
0.0
10
231.12499999999997
20
92.175000000000153
42
-0.41421356237305718
10
231.67500000000001
20
92.725000000000193
10
244.57499999999993
20
92.725000000000165
42
-0.4142135623730856
10
245.125
20
92.175000000000153
10
245.12499999999994
20
79.275000000000162
42
-0.41421356237308082
10
244.57499999999996
20
78.725000000000179
10
231.67500000000001
20
78.725000000000165
42
-0.41421356237307611
10
231.12499999999997
20
79.275000000000162
0
LWPOLYLINE
5
130
100
AcDbEntity
8
0
100
AcDbPolyline
90
8
70
1
43
0.0
10
257.31874999999997
20
54.075000000000166
10
257.31874999999997
20
41.175000000000139
42
0.41421356237306667
10
257.86874999999998
20
40.625000000000171
10
270.76874999999995
20
40.625000000000156
42
0.41421356237302881
10
271.31875000000002
20
41.175000000000153
10
271.31875000000002
20
54.075000000000188
42
0.41421356237315182
10
270.76874999999995
20
54.625000000000163
10
257.86874999999998
20
54.625000000000185
42
0.41421356237309037
0
LWPOLYLINE
5
131
100
AcDbEntity
8
0
100
AcDbPolyline
90
8
70
1
43
0.0
10
89.224999999999966
20
3.0750000000000455
10
89.224999999999966
20
17.975000000000055
42
0.41421356237307966
10
88.674999999999955
20
18.525000000000063
10
78.018749999999983
20
18.525000000000048
42
0.4142135623730856
10
77.468749999999986
20
17.975000000000051
10
77.46875
20
3.0750000000000406
42
0.41421356237309359
10
78.018749999999983
20
2.5250000000000403
10
88.674999999999983
20
2.5250000000000465
42
0.4142135623730871
0
LWPOLYLINE
5
132
100
AcDbEntity
8
0
100
AcDbPolyline
90
8
70
1
43
0.0
10
225.52500000000003
20
92.725000000000193
10
212.625
20
92.725000000000193
42
0.41421356237309503
10
212.07500000000005
20
92.175000000000139
10
212.07500000000005
20
79.275000000000148
42
0.41421356237310453
10
212.625
20
78.725000000000136
10
225.52500000000003
20
78.725000000000179
42
0.41421356237308082
10
226.07499999999999
20
79.275000000000148
10
226.07499999999999
20
92.175000000000139
42
0.41421356237306667
0
LWPOLYLINE
5
133
100
AcDbEntity
8
0
100
AcDbPolyline
90
8
70
1
43
0.0
10
117.37499999999997
20
78.725000000000108
10
130.27499999999998
20
78.725000000000108
42
0.41421356237306195
10
130.82499999999996
20
79.275000000000119
10
130.82499999999993
20
92.175000000000097
42
0.41421356237309503
10
130.27499999999998
20
92.725000000000136
10
117.37499999999996
20
92.725000000000136
42
0.41421356237310453
10
116.82499999999996
20
92.175000000000082
10
116.82499999999997
20
79.275000000000105
42
0.41421356237309975
0
LWPOLYLINE
5
134
100
AcDbEntity
8
0
100
AcDbPolyline
90
8
70
1
43
0.0
10
73.124999999999957
20
92.725000000000108
42
-0.41421356237309037
10
73.674999999999983
20
92.175000000000082
10
73.674999999999997
20
79.275000000000091
42
-0.41421356237309503
10
73.124999999999972
20
78.725000000000094
10
60.224999999999973
20
78.725000000000094
42
-0.41421356237310919
10
59.674999999999969
20
79.275000000000077
10
59.674999999999955
20
92.175000000000082
42
-0.41421356237306195
10
60.224999999999966
20
92.725000000000108
0
LWPOLYLINE
5
135
100
AcDbEntity
8
0
100
AcDbPolyline
90
8
70
1
43
0.0
10
272.75674999999995
20
54.075000000000173
10
272.7567499999999
20
39.175000000000168
42
0.41421356237308793
10
273.30675000000002
20
38.625000000000149
10
279.20674999999994
20
38.625000000000171
42
0.41421356237313522
10
279.7567499999999
20
39.175000000000175
10
279.7567499999999
20
54.075000000000195
42
0.41421356237313289
10
279.20674999999994
20
54.625000000000171
10
273.30674999999997
20
54.625000000000185
42
0.41421356237306667
0
LWPOLYLINE
5
136
100
AcDbEntity
8
0
100
AcDbPolyline
90
8
70
1
43
0.0
10
173.97500000000002
20
92.175000000000125
10
173.97500000000002
20
79.275000000000134
42
0.41421356237310453
10
174.52499999999998
20
78.725000000000122
10
187.42500000000001
20
78.725000000000151
42
0.41421356237308082
10
187.97499999999997
20
79.275000000000134
10
187.97499999999997
20
92.175000000000125
42
0.41421356237306667
10
187.42500000000001
20
92.725000000000165
10
174.52499999999998
20
92.725000000000165
42
0.41421356237305718
0
LWPOLYLINE
5
137
100
AcDbEntity
8
0
100
AcDbPolyline
90
8
70
1
43
0.0
10
301.72500000000002
20
16.525000000000134
10
288.82499999999999
20
16.525000000000148
42
0.41421356237313289
10
288.27499999999998
20
15.975000000000152
10
288.27499999999998
20
3.0750000000001378
42
0.41421356237313345
10
288.82499999999999
20
2.5250000000001531
10
301.72500000000002
20
2.5250000000001469
42
0.41421356237310836
10
302.27499999999998
20
3.0750000000001476
10
302.27499999999998
20
15.97500000000016
42
0.41421356237312462
0
LWPOLYLINE
5
138
100
AcDbEntity
8
0
100
AcDbPolyline
90
8
70
1
43
0.0
10
30.419249999999998
20
19.575000000000035
42
-0.41421356237309503
10
29.869250000000001
20
20.125000000000032
10
29.869249999999997
20
35.025000000000041
42
-0.41421356237309742
10
30.419249999999991
20
35.575000000000045
10
36.319249999999997
20
35.575000000000038
42
-0.41421356237310686
10
36.869249999999994
20
35.025000000000041
10
36.869250000000001
20
20.125000000000036
42
-0.41421356237309742
10
36.319250000000004
20
19.575000000000045
0
LWPOLYLINE
5
139
100
AcDbEntity
8
0
100
AcDbPolyline
90
8
70
1
43
0.0
10
7.8374999999999755
20
59.675000000000047
42
-0.41421356237310686
10
7.2874999999999694
20
60.225000000000044
10
7.2874999999999623
20
73.125000000000071
42
-0.41421356237308027
10
7.8374999999999595
20
73.675000000000054
10
20.737499999999969
20
73.675000000000068
42
-0.41421356237307849
10
21.287499999999966
20
73.125000000000071
10
21.287499999999962
20
60.225000000000065
42
-0.41421356237310453
10
20.737499999999972
20
59.675000000000054
0
LWPOLYLINE
5
140
100
AcDbEntity
8
0
100
AcDbPolyline
90
8
70
1
43
0.0
10
2.5249999999999435
20
92.175000000000026
10
2.5249999999999555
20
79.275000000000048
42
0.41421356237308204
10
3.0749999999999611
20
78.725000000000037
10
15.974999999999962
20
78.725000000000065
42
0.41421356237310569
10
16.524999999999963
20
79.275000000000077
10
16.524999999999956
20
92.17500000000004
42
0.41421356237308082
10
15.974999999999955
20
92.725000000000065
10
3.0749999999999456
20
92.72500000000008
42
0.41421356237308737
0
CIRCLE
5
141
100
AcDbEntity
8
0
100
AcDbCircle
10
285.74999999999989
20
93.774498760000014
30
0
40
1.7499990399999998
210
1.5407439555097812e-33
220
-2.7755575615628901e-17
230
1
0
CIRCLE
5
142
100
AcDbEntity
8
0
100
AcDbCircle
10
190.49999999999994
20
93.774498760000014
30
0
40
1.7499990399999998
210
1.5407439555097812e-33
220
-2.7755575615628901e-17
230
1
0
CIRCLE
5
143
100
AcDbEntity
8
0
100
AcDbCircle
10
114.29999999999994
20
93.774498760000014
30
0
40
1.7499990399999998
210
1.5407439555097812e-33
220
-2.7755575615628901e-17
230
1
0
CIRCLE
5
144
100
AcDbEntity
8
0
100
AcDbCircle
10
19.049999999999994
20
93.774498760000014
30
0
40
1.7499990400000018
210
-1.2325951644078309e-32
220
-6.1580498920524115e-48
230
1
0
LWPOLYLINE
5
145
100
AcDbEntity
8
0
100
AcDbPolyline
90
56
70
1
43
0.0
10
109.94999999999996
20
101.00000000000011
42
-0.41421356237308021
10
110.29999999999994
20
100.65000000000012
10
110.29999999999994
20
97.812500000000128
42
0.41421356237309503
10
110.64999999999995
20
97.462500000000119
10
117.94999999999995
20
97.462500000000119
42
0.41421356237309503
10
118.29999999999995
20
97.812500000000128
10
118.29999999999993
20
100.65000000000012
42
-0.41421356237306534
10
118.64999999999993
20
101.00000000000011
10
186.15000000000003
20
101.0000000000002
42
-0.41421356237305046
10
186.50000000000003
20
100.65000000000018
10
186.50000000000003
20
97.812500000000142
42
0.41421356237309503
10
186.85000000000002
20
97.462500000000148
10
194.14999999999998
20
97.462500000000148
42
0.41421356237309503
10
194.5
20
97.812500000000142
10
194.49999999999994
20
100.65000000000015
42
-0.41421356237309503
10
194.84999999999997
20
101.00000000000016
10
296.44999999999999
20
101.00000000000021
42
-0.41421356237309503
10
296.80000000000001
20
100.6500000000002
10
296.80000000000001
20
100.08750000000018
42
0.99999999999999989
10
296.80000000000001
20
96.912500000000165
10
296.80000000000001
20
95.600000000000293
42
0.41421356237312473
10
297.15000000000003
20
95.250000000000284
10
304.44999999999999
20
95.250000000000256
42
-0.41421356237306534
10
304.80000000000001
20
94.900000000000219
10
304.80000000000007
20
0.35000000000015402
42
-0.4142135623730534
10
304.45000000000005
20
1.5210332993120802e-13
10
278.02813000000003
20
1.3891665595622271e-13
42
0.41421356237309254
10
277.67813000000001
20
-0.3499999999998582
10
277.67813000000001
20
-1.6624999999998482
42
0.99999999999999989
10
277.67812999999995
20
-4.837499999999876
10
277.67812999999995
20
-5.3999999999998654
42
-0.41421356237301238
10
277.32812999999999
20
-5.7499999999998632
10
156.75
20
-5.7499999999999174
42
-0.41421356237308948
10
156.40000000000001
20
-5.3999999999999222
10
156.40000000000001
20
-2.4694638625167822
42
0.41421356237309481
10
156.05000000000001
20
-2.1194638625167825
10
148.75
20
-2.1194638625167865
42
0.41421356237309503
10
148.40000000000001
20
-2.4694638625167862
10
148.40000000000001
20
-5.3999999999999275
42
-0.41421356237308948
10
148.05000000000001
20
-5.7499999999999272
10
27.471870000000056
20
-5.7499999999999858
42
-0.41421356237308204
10
27.121870000000058
20
-5.399999999999987
10
27.121870000000055
20
-4.8374999999999879
42
0.99999999999999989
10
27.121870000000055
20
-1.6624999999999872
10
27.121870000000055
20
-0.34999999999998654
42
0.4142135623731098
10
26.771870000000035
20
1.3375235918822186e-14
10
0.35000000000000142
20
-1.3183898417423734e-15
42
-0.4142135623731113
10
-1.7486012637846089e-16
20
0.35000000000001918
10
-4.3715031594615539e-14
20
94.900000000000077
42
-0.41421356237309076
10
0.34999999999995257
20
95.250000000000071
10
7.6499999999999524
20
95.250000000000071
42
0.41421356237308948
10
7.9999999999999467
20
95.60000000000008
10
7.9999999999999529
20
96.91250000000008
42
0.99999999999999989
10
7.9999999999999503
20
100.08750000000006
10
7.9999999999999405
20
100.65000000000006
42
-0.41421356237307649
10
8.3499999999999552
20
101.00000000000007
0
ENDSEC
0
SECTION
2
OBJECTS
0
DICTIONARY
5
C
100
AcDbDictionary
3
ACAD_GROUP
350
D
3
ACAD_MLINESTYLE
350
17
0
DICTIONARY
5
D
100
AcDbDictionary
0
DICTIONARY
5
1A
330
C
100
AcDbDictionary
0
DICTIONARY
5
17
100
AcDbDictionary
0
ENDSEC
0
EOF
