  0
SECTION
  2
HEADER
  9
$ACADVER
  1
AC1027
  9
$ACADMAINTVER
 70
   125
  9
$DWGCODEPAGE
  3
ANSI_949
  9
$LASTSAVEDBY
  1
junkibeom
  9
$REQUIREDVERSIONS
160
                 0
  9
$INSBASE
 10
0.0
 20
0.0
 30
0.0
  9
$EXTMIN
 10
-1.000000000000011
 20
-101.3108186766242
 30
-0.00000001
  9
$EXTMAX
 10
286.7500000000001
 20
6.060818676624403
 30
0.00000001
  9
$LIMMIN
 10
0.0
 20
0.0
  9
$LIMMAX
 10
12.0
 20
9.0
  9
$ORTHOMODE
 70
     0
  9
$REGENMODE
 70
     1
  9
$FILLMODE
 70
     1
  9
$QTEXTMODE
 70
     0
  9
$MIRRTEXT
 70
     0
  9
$LTSCALE
 40
1.0
  9
$ATTMODE
 70
     1
  9
$TEXTSIZE
 40
0.2
  9
$TRACEWID
 40
0.05
  9
$TEXTSTYLE
  7
STANDARD
  9
$CLAYER
  8
0
  9
$CELTYPE
  6
Continuous
  9
$CECOLOR
 62
   256
  9
$CELTSCALE
 40
1.0
  9
$DISPSILH
 70
     0
  9
$DIMSCALE
 40
1.0
  9
$DIMASZ
 40
0.18
  9
$DIMEXO
 40
0.0625
  9
$DIMDLI
 40
0.38
  9
$DIMRND
 40
0.0
  9
$DIMDLE
 40
0.0
  9
$DIMEXE
 40
0.18
  9
$DIMTP
 40
0.0
  9
$DIMTM
 40
0.0
  9
$DIMTXT
 40
0.18
  9
$DIMCEN
 40
0.09
  9
$DIMTSZ
 40
0.0
  9
$DIMTOL
 70
     0
  9
$DIMLIM
 70
     0
  9
$DIMTIH
 70
     1
  9
$DIMTOH
 70
     1
  9
$DIMSE1
 70
     0
  9
$DIMSE2
 70
     0
  9
$DIMTAD
 70
     0
  9
$DIMZIN
 70
     0
  9
$DIMBLK
  1

  9
$DIMASO
 70
     1
  9
$DIMSHO
 70
     1
  9
$DIMPOST
  1

  9
$DIMAPOST
  1

  9
$DIMALT
 70
     0
  9
$DIMALTD
 70
     2
  9
$DIMALTF
 40
25.4
  9
$DIMLFAC
 40
1.0
  9
$DIMTOFL
 70
     0
  9
$DIMTVP
 40
0.0
  9
$DIMTIX
 70
     0
  9
$DIMSOXD
 70
     0
  9
$DIMSAH
 70
     0
  9
$DIMBLK1
  1

  9
$DIMBLK2
  1

  9
$DIMSTYLE
  2
Standard
  9
$DIMCLRD
 70
     0
  9
$DIMCLRE
 70
     0
  9
$DIMCLRT
 70
     0
  9
$DIMTFAC
 40
1.0
  9
$DIMGAP
 40
0.09
  9
$DIMJUST
 70
     0
  9
$DIMSD1
 70
     0
  9
$DIMSD2
 70
     0
  9
$DIMTOLJ
 70
     1
  9
$DIMTZIN
 70
     0
  9
$DIMALTZ
 70
     0
  9
$DIMALTTZ
 70
     0
  9
$DIMUPT
 70
     0
  9
$DIMDEC
 70
     4
  9
$DIMTDEC
 70
     4
  9
$DIMALTU
 70
     2
  9
$DIMALTTD
 70
     2
  9
$DIMTXSTY
  7
STANDARD
  9
$DIMAUNIT
 70
     0
  9
$DIMADEC
 70
     0
  9
$DIMALTRND
 40
0.0
  9
$DIMAZIN
 70
     0
  9
$DIMDSEP
 70
    46
  9
$DIMATFIT
 70
     3
  9
$DIMFRAC
 70
     0
  9
$DIMLDRBLK
  1

  9
$DIMLUNIT
 70
     2
  9
$DIMLWD
 70
    -2
  9
$DIMLWE
 70
    -2
  9
$DIMTMOVE
 70
     0
  9
$DIMFXL
 40
1.0
  9
$DIMFXLON
 70
     0
  9
$DIMJOGANG
 40
0.7853981633974483
  9
$DIMTFILL
 70
     0
  9
$DIMTFILLCLR
 70
     0
  9
$DIMARCSYM
 70
     0
  9
$DIMLTYPE
  6

  9
$DIMLTEX1
  6

  9
$DIMLTEX2
  6

  9
$DIMTXTDIRECTION
 70
     0
  9
$LUNITS
 70
     2
  9
$LUPREC
 70
     4
  9
$SKETCHINC
 40
0.1
  9
$FILLETRAD
 40
0.0
  9
$AUNITS
 70
     0
  9
$AUPREC
 70
     0
  9
$MENU
  1
.
  9
$ELEVATION
 40
0.0
  9
$PELEVATION
 40
0.0
  9
$THICKNESS
 40
0.0
  9
$LIMCHECK
 70
     0
  9
$CHAMFERA
 40
0.0
  9
$CHAMFERB
 40
0.0
  9
$CHAMFERC
 40
0.0
  9
$CHAMFERD
 40
0.0
  9
$SKPOLY
 70
     0
  9
$TDCREATE
 40
2460947.613020833
  9
$TDUCREATE
 40
2460947.238020833
  9
$TDUPDATE
 40
2460947.613564815
  9
$TDUUPDATE
 40
2460947.238564815
  9
$TDINDWG
 40
0.0005439815
  9
$TDUSRTIMER
 40
0.0005439815
  9
$USRTIMER
 70
     1
  9
$ANGBASE
 50
0.0
  9
$ANGDIR
 70
     0
  9
$PDMODE
 70
     0
  9
$PDSIZE
 40
0.0
  9
$PLINEWID
 40
0.0
  9
$SPLFRAME
 70
     0
  9
$SPLINETYPE
 70
     6
  9
$SPLINESEGS
 70
     8
  9
$HANDSEED
  5
1009B
  9
$SURFTAB1
 70
     6
  9
$SURFTAB2
 70
     6
  9
$SURFTYPE
 70
     6
  9
$SURFU
 70
     6
  9
$SURFV
 70
     6
  9
$UCSBASE
  2

  9
$UCSNAME
  2

  9
$UCSORG
 10
0.0
 20
0.0
 30
0.0
  9
$UCSXDIR
 10
1.0
 20
0.0
 30
0.0
  9
$UCSYDIR
 10
0.0
 20
1.0
 30
0.0
  9
$UCSORTHOREF
  2

  9
$UCSORTHOVIEW
 70
     0
  9
$UCSORGTOP
 10
0.0
 20
0.0
 30
0.0
  9
$UCSORGBOTTOM
 10
0.0
 20
0.0
 30
0.0
  9
$UCSORGLEFT
 10
0.0
 20
0.0
 30
0.0
  9
$UCSORGRIGHT
 10
0.0
 20
0.0
 30
0.0
  9
$UCSORGFRONT
 10
0.0
 20
0.0
 30
0.0
  9
$UCSORGBACK
 10
0.0
 20
0.0
 30
0.0
  9
$PUCSBASE
  2

  9
$PUCSNAME
  2

  9
$PUCSORG
 10
0.0
 20
0.0
 30
0.0
  9
$PUCSXDIR
 10
1.0
 20
0.0
 30
0.0
  9
$PUCSYDIR
 10
0.0
 20
1.0
 30
0.0
  9
$PUCSORTHOREF
  2

  9
$PUCSORTHOVIEW
 70
     0
  9
$PUCSORGTOP
 10
0.0
 20
0.0
 30
0.0
  9
$PUCSORGBOTTOM
 10
0.0
 20
0.0
 30
0.0
  9
$PUCSORGLEFT
 10
0.0
 20
0.0
 30
0.0
  9
$PUCSORGRIGHT
 10
0.0
 20
0.0
 30
0.0
  9
$PUCSORGFRONT
 10
0.0
 20
0.0
 30
0.0
  9
$PUCSORGBACK
 10
0.0
 20
0.0
 30
0.0
  9
$USERI1
 70
     0
  9
$USERI2
 70
     0
  9
$USERI3
 70
     0
  9
$USERI4
 70
     0
  9
$USERI5
 70
     0
  9
$USERR1
 40
0.0
  9
$USERR2
 40
0.0
  9
$USERR3
 40
0.0
  9
$USERR4
 40
0.0
  9
$USERR5
 40
0.0
  9
$WORLDVIEW
 70
     1
  9
$SHADEDGE
 70
     3
  9
$SHADEDIF
 70
    70
  9
$TILEMODE
 70
     1
  9
$MAXACTVP
 70
    64
  9
$PINSBASE
 10
0.0
 20
0.0
 30
0.0
  9
$PLIMCHECK
 70
     0
  9
$PEXTMIN
 10
1.000000000000000E+20
 20
1.000000000000000E+20
 30
1.000000000000000E+20
  9
$PEXTMAX
 10
-1.000000000000000E+20
 20
-1.000000000000000E+20
 30
-1.000000000000000E+20
  9
$PLIMMIN
 10
0.0
 20
0.0
  9
$PLIMMAX
 10
12.0
 20
9.0
  9
$UNITMODE
 70
     0
  9
$VISRETAIN
 70
     1
  9
$PLINEGEN
 70
     0
  9
$PSLTSCALE
 70
     1
  9
$TREEDEPTH
 70
  3020
  9
$CMLSTYLE
  2
Standard
  9
$CMLJUST
 70
     0
  9
$CMLSCALE
 40
1.0
  9
$PROXYGRAPHICS
 70
     1
  9
$MEASUREMENT
 70
     0
  9
$CELWEIGHT
370
    -1
  9
$ENDCAPS
280
     0
  9
$JOINSTYLE
280
     0
  9
$LWDISPLAY
290
     0
  9
$INSUNITS
 70
     4
  9
$HYPERLINKBASE
  1

  9
$STYLESHEET
  1

  9
$XEDIT
290
     1
  9
$CEPSNTYPE
380
     0
  9
$PSTYLEMODE
290
     1
  9
$FINGERPRINTGUID
  2
{279CD57B-6F90-A148-A942-9E3BBADD69E4}
  9
$VERSIONGUID
  2
{867D5AB3-330E-D44A-A1EF-C6F453342E83}
  9
$EXTNAMES
290
     1
  9
$PSVPSCALE
 40
0.0
  9
$OLESTARTUP
290
     0
  9
$SORTENTS
280
   127
  9
$INDEXCTL
280
     0
  9
$HIDETEXT
280
     0
  9
$XCLIPFRAME
280
     2
  9
$HALOGAP
280
     0
  9
$OBSCOLOR
 70
   257
  9
$OBSLTYPE
280
     0
  9
$INTERSECTIONDISPLAY
280
     0
  9
$INTERSECTIONCOLOR
 70
   257
  9
$DIMASSOC
280
     1
  9
$PROJECTNAME
  1

  9
$CAMERADISPLAY
290
     0
  9
$LENSLENGTH
 40
50.0
  9
$CAMERAHEIGHT
 40
0.0
  9
$STEPSPERSEC
 40
2.0
  9
$STEPSIZE
 40
6.0
  9
$3DDWFPREC
 40
2.0
  9
$PSOLWIDTH
 40
0.25
  9
$PSOLHEIGHT
 40
4.0
  9
$LOFTANG1
 40
1.570796326794896
  9
$LOFTANG2
 40
1.570796326794896
  9
$LOFTMAG1
 40
0.0
  9
$LOFTMAG2
 40
0.0
  9
$LOFTPARAM
 70
     7
  9
$LOFTNORMALS
280
     1
  9
$LATITUDE
 40
37.795
  9
$LONGITUDE
 40
-122.394
  9
$NORTHDIRECTION
 40
0.0
  9
$TIMEZONE
 70
 -8000
  9
$LIGHTGLYPHDISPLAY
280
     1
  9
$TILEMODELIGHTSYNCH
280
     1
  9
$CMATERIAL
347
10005
  9
$SOLIDHIST
280
     0
  9
$SHOWHIST
280
     1
  9
$DWFFRAME
280
     2
  9
$DGNFRAME
280
     0
  9
$REALWORLDSCALE
290
     1
  9
$INTERFERECOLOR
 62
     1
  9
$INTERFEREOBJVS
345
10027
  9
$INTERFEREVPVS
346
10024
  9
$CSHADOW
280
     0
  9
$SHADOWPLANELOCATION
 40
0.0
  0
ENDSEC
  0
SECTION
  2
CLASSES
  0
CLASS
  1
ACDBDICTIONARYWDFLT
  2
AcDbDictionaryWithDefault
  3
ObjectDBX Classes
 90
        0
 91
        1
280
     0
281
     0
  0
CLASS
  1
MATERIAL
  2
AcDbMaterial
  3
ObjectDBX Classes
 90
     1153
 91
        3
280
     0
281
     0
  0
CLASS
  1
VISUALSTYLE
  2
AcDbVisualStyle
  3
ObjectDBX Classes
 90
     4095
 91
       24
280
     0
281
     0
  0
CLASS
  1
TABLESTYLE
  2
AcDbTableStyle
  3
ObjectDBX Classes
 90
     4095
 91
        1
280
     0
281
     0
  0
CLASS
  1
SCALE
  2
AcDbScale
  3
ObjectDBX Classes
 90
     1153
 91
       17
280
     0
281
     0
  0
CLASS
  1
MLEADERSTYLE
  2
AcDbMLeaderStyle
  3
ACDB_MLEADERSTYLE_CLASS
 90
     4095
 91
        1
280
     0
281
     0
  0
CLASS
  1
ACDBSECTIONVIEWSTYLE
  2
AcDbSectionViewStyle
  3
ObjectDBX Classes
 90
     1025
 91
        1
280
     0
281
     0
  0
CLASS
  1
ACDBDETAILVIEWSTYLE
  2
AcDbDetailViewStyle
  3
ObjectDBX Classes
 90
     1025
 91
        1
280
     0
281
     0
  0
CLASS
  1
SOLID_BACKGROUND
  2
AcDbSolidBackground
  3
SCENEOE
 90
     4095
 91
        1
280
     0
281
     0
  0
CLASS
  1
NPOCOLLECTION
  2
AcDbImpNonPersistentObjectsCollection
  3
ObjectDBX Classes
 90
     1153
 91
        1
280
     0
281
     0
  0
CLASS
  1
GROUND_PLANE_BACKGROUND
  2
AcDbGroundPlaneBackground
  3
SCENEOE
 90
     4095
 91
        1
280
     0
281
     0
  0
CLASS
  1
DICTIONARYVAR
  2
AcDbDictionaryVar
  3
ObjectDBX Classes
 90
        0
 91
        9
280
     0
281
     0
  0
CLASS
  1
CELLSTYLEMAP
  2
AcDbCellStyleMap
  3
ObjectDBX Classes
 90
     1152
 91
        2
280
     0
281
     0
  0
ENDSEC
  0
SECTION
  2
TABLES
  0
TABLE
  2
VPORT
  5
8
330
0
100
AcDbSymbolTable
 70
     1
1001
ACAD
1000
DbSaveVer
1071
      316
  0
VPORT
  5
10059
330
8
100
AcDbSymbolTableRecord
100
AcDbViewportTableRecord
  2
*Active
 70
     0
 10
0.0
 20
0.0
 11
1.0
 21
1.0
 12
0.0
 22
0.0
 13
0.0
 23
0.0
 14
1.0
 24
1.0
 15
0.0
 25
0.0
 16
-0.0000000000001421
 26
0.0
 36
670.84776055146
 17
142.875
 27
-47.62500119209289
 37
0.0
 40
307.1290979640134
 41
1.479861910241656
 42
50.0
 43
0.0
 44
0.0
 50
0.0
 51
0.0
 71
     0
 72
  1000
 73
     1
 74
     3
 75
     0
 76
     0
 77
     0
 78
     0
281
     0
 65
     1
110
0.0
120
0.0
130
0.0
111
1.0
121
0.0
131
0.0
112
0.0
122
1.0
132
0.0
 79
     0
146
0.0
348
10023
 60
     3
 61
     5
292
     1
282
     1
141
0.0
142
0.0
 63
   250
421
  3355443
1001
ACAD_NAV_VCDISPLAY
1070
     3
  0
ENDTAB
  0
TABLE
  2
LTYPE
  5
5
330
0
100
AcDbSymbolTable
 70
     2
  0
LTYPE
  5
14
330
5
100
AcDbSymbolTableRecord
100
AcDbLinetypeTableRecord
  2
BYBLOCK
 70
     0
  3

 72
    65
 73
     0
 40
0.0
  0
LTYPE
  5
15
330
5
100
AcDbSymbolTableRecord
100
AcDbLinetypeTableRecord
  2
BYLAYER
 70
     0
  3

 72
    65
 73
     0
 40
0.0
  0
LTYPE
  5
10001
330
5
100
AcDbSymbolTableRecord
100
AcDbLinetypeTableRecord
  2
Continuous
 70
     0
  3
Solid line
 72
    65
 73
     0
 40
0.0
  0
LTYPE
  5
16
330
5
100
AcDbSymbolTableRecord
100
AcDbLinetypeTableRecord
  2
DASHED
 70
     0
  3
Dashed __ __ __ __ __ __ __ __ __ __ __ __ __ _
 72
    65
 73
     2
 40
0.75
 49
0.5
 74
     0
 49
-0.25
 74
     0
  0
ENDTAB
  0
TABLE
  2
LAYER
  5
2
102
{ACAD_XDICTIONARY
360
10065
102
}
330
0
100
AcDbSymbolTable
 70
     1
  0
LAYER
  5
50
102
{ACAD_XDICTIONARY
360
10060
102
}
330
2
100
AcDbSymbolTableRecord
100
AcDbLayerTableRecord
  2
0
 70
     0
 62
     7
  6
Continuous
370
    -3
390
10003
347
10015
348
0
  0
ENDTAB
  0
TABLE
  2
STYLE
  5
3
330
0
100
AcDbSymbolTable
 70
     1
  0
STYLE
  5
11
330
3
100
AcDbSymbolTableRecord
100
AcDbTextStyleTableRecord
  2
STANDARD
 70
     0
 40
0.0
 41
1.0
 50
0.0
 71
     0
 42
0.2
  3

  4

  0
ENDTAB
  0
TABLE
  2
VIEW
  5
6
330
0
100
AcDbSymbolTable
 70
     2
  0
ENDTAB
  0
TABLE
  2
UCS
  5
7
330
0
100
AcDbSymbolTable
 70
     0
  0
ENDTAB
  0
TABLE
  2
APPID
  5
9
330
0
100
AcDbSymbolTable
 70
     3
  0
APPID
  5
12
330
9
100
AcDbSymbolTableRecord
100
AcDbRegAppTableRecord
  2
ACAD
 70
     0
  0
APPID
  5
10058
330
9
100
AcDbSymbolTableRecord
100
AcDbRegAppTableRecord
  2
ACAD_NAV_VCDISPLAY
 70
     0
  0
APPID
  5
10084
330
9
100
AcDbSymbolTableRecord
100
AcDbRegAppTableRecord
  2
Acad_TC
 70
     0
  0
ENDTAB
  0
TABLE
  2
DIMSTYLE
  5
A
330
0
100
AcDbSymbolTable
 70
     1
100
AcDbDimStyleTable
 71
     1
340
10053
  0
DIMSTYLE
105
10053
330
A
100
AcDbSymbolTableRecord
100
AcDbDimStyleTableRecord
  2
Standard
 70
     0
340
11
  0
ENDTAB
  0
TABLE
  2
BLOCK_RECORD
  5
1
330
0
100
AcDbSymbolTable
 70
     0
  0
BLOCK_RECORD
  5
1F
330
1
100
AcDbSymbolTableRecord
100
AcDbBlockTableRecord
  2
*MODEL_SPACE
340
10055
 70
     0
280
     1
281
     0
  0
BLOCK_RECORD
  5
1B
330
1
100
AcDbSymbolTableRecord
100
AcDbBlockTableRecord
  2
*PAPER_SPACE
340
10056
 70
     0
280
     1
281
     0
  0
ENDTAB
  0
ENDSEC
  0
SECTION
  2
BLOCKS
  0
BLOCK
  5
20
330
1F
100
AcDbEntity
  8
0
100
AcDbBlockBegin
  2
*MODEL_SPACE
 70
     0
 10
0.0
 20
0.0
 30
0.0
  3
*MODEL_SPACE
  1

  0
ENDBLK
  5
21
330
1F
100
AcDbEntity
  8
0
100
AcDbBlockEnd
  0
BLOCK
  5
1C
330
1B
100
AcDbEntity
 67
     1
  8
0
100
AcDbBlockBegin
  2
*PAPER_SPACE
 70
     0
 10
0.0
 20
0.0
 30
0.0
  3
*PAPER_SPACE
  1

  0
ENDBLK
  5
1D
330
1B
100
AcDbEntity
 67
     1
  8
0
100
AcDbBlockEnd
  0
ENDSEC
  0
SECTION
  2
ENTITIES
  0
LWPOLYLINE
  5
100
330
1F
100
AcDbEntity
  8
0
100
AcDbPolyline
 90
      100
 70
     1
 43
0.0
 10
149.875
 20
-91.22500000000004
 42
0.4142135623730951
 10
150.875
 20
-92.22500000000001
 10
195.525
 20
-92.2250000000001
 42
0.4142135623731055
 10
196.525
 20
-91.22500000000011
 10
196.525
 20
-77.16591800998372
 42
-0.4142135623730222
 10
197.025
 20
-76.66591800998372
 10
203.025
 20
-76.66591800998372
 42
-0.414213562373121
 10
203.525
 20
-77.16591800998372
 10
203.525
 20
-91.22500000000011
 42
0.4142135623731055
 10
204.525
 20
-92.2250000000001
 10
212.29764973081
 20
-92.22500000000012
 42
-0.2679491924311931
 10
213.1636751345946
 20
-92.72500000000034
 10
214.910159698893
 20
-95.75000000000002
 42
0.2679491924312007
 10
215.776185102678
 20
-96.25000000000003
 10
243.377998127341
 20
-96.25000000000003
 42
-0.3410921099815376
 10
244.3454269662924
 20
-96.99685687533472
 10
245.231427902622
 20
-100.382857811664
 42
0.0826266979827553
 10
245.5666666666666
 20
-101.1319269959813
 42
0.7429545911563192
 10
246.3
 20
-100.910818676624
 10
246.3
 20
-96.60000000000003
 42
-1.0
 10
249.0
 20
-96.60000000000003
 10
249.0
 20
-100.910818676624
 42
0.7429545911562611
 10
249.7333333333332
 20
-101.1319269959812
 42
0.0826266979827555
 10
250.068572097378
 20
-100.382857811664
 10
250.9545730337077
 20
-96.99685687533438
 42
-0.3410921099814383
 10
251.922001872659
 20
-96.25000000000003
 10
285.75
 20
-96.25000000000003
 42
0.4142135623730898
 10
286.7500000000001
 20
-95.25000000000003
 10
286.75
 20
-0.0000000000000351
 42
0.4142135623731054
 10
285.75
 20
0.9999999999999429
 10
270.972001872659
 20
0.9999999999999808
 42
-0.3410921099814486
 10
270.0045730337078
 20
1.74685687533434
 10
269.1185720982161
 20
5.132857808461096
 42
0.0826266983161164
 10
268.7833333333332
 20
5.881926995981515
 42
0.7429545911562562
 10
268.05
 20
5.660818676624328
 10
268.05
 20
1.349999999999967
 42
-1.0
 10
265.35
 20
1.349999999999967
 10
265.35
 20
5.660818676624387
 42
0.7429545911562644
 10
264.6166666666668
 20
5.881926995981556
 42
0.0826266983161186
 10
264.2814279017839
 20
5.132857808461136
 10
263.3954269662923
 20
1.746856875334358
 42
-0.3410921099814546
 10
262.4279981273411
 20
0.9999999999999678
 10
147.147001872659
 20
0.9999999999999841
 42
-0.3410921099814552
 10
146.1795730337077
 20
1.746856875334375
 10
145.293572098216
 20
5.132857808460261
 42
0.0826266983162009
 10
144.9583333333332
 20
5.881926995981549
 42
0.7429545911562605
 10
144.225
 20
5.660818676624373
 10
144.225
 20
1.349999999999972
 42
-1.0
 10
141.525
 20
1.349999999999992
 10
141.525
 20
5.660818676624373
 42
0.7429545911562416
 10
140.7916666666667
 20
5.881926995981559
 42
0.0826266983162023
 10
140.4564279017836
 20
5.132857808460352
 10
139.5704269662923
 20
1.746856875334625
 42
-0.3410921099815273
 10
138.602998127341
 20
0.9999999999999829
 10
23.32200187265879
 20
0.9999999999999975
 42
-0.3410921099814767
 10
22.35457303370754
 20
1.746856875334468
 10
21.4685720973781
 20
5.132857811663846
 42
0.0826266979827906
 10
21.13333333333333
 20
5.881926995981429
 42
0.742954591156405
 10
20.4
 20
5.660818676624388
 10
20.4
 20
1.349999999999997
 42
-1.0
 10
17.7
 20
1.349999999999998
 10
17.7
 20
5.660818676624389
 42
0.742954591156403
 10
16.96666666666668
 20
5.881926995981431
 42
0.0826266979827907
 10
16.63142790262187
 20
5.132857811663855
 10
15.74542696629245
 20
1.74685687533447
 42
-0.3410921099814782
 10
14.7779981273412
 20
0.9999999999999982
 10
0.0000000000000001
 20
1.0
 42
0.4142135623730951
 10
-1.0
 20
0.0
 10
-1.000000000000011
 20
-95.25
 42
0.4142135623730942
 10
-0.0000000000000117
 20
-96.25
 10
33.82799812734119
 20
-96.25
 42
-0.3410921099814907
 10
34.79542696629245
 20
-96.99685687533454
 10
35.6814278219444
 20
-100.382857503341
 42
0.082626730070678
 10
36.01666666666648
 20
-101.1319269959811
 42
0.7429545911564191
 10
36.74999999999998
 20
-100.910818676624
 10
36.74999999999999
 20
-96.6
 42
-1.0
 10
39.44999999999999
 20
-96.6
 10
39.44999999999999
 20
-100.910818676624
 42
0.7429545911564675
 10
40.18333333333333
 20
-101.131926995981
 42
0.0826267300706741
 10
40.51857217805567
 20
-100.382857503341
 10
41.40457303370752
 20
-96.99685687533454
 42
-0.3410921099814877
 10
42.37200187265878
 20
-96.25
 10
69.97381489732219
 20
-96.25000000000001
 42
0.2679491924311428
 10
70.83984030110663
 20
-95.74999999999997
 10
72.58632486540516
 20
-92.72500000000009
 42
-0.2679491924311157
 10
73.45235026918956
 20
-92.2250000000001
 10
81.225
 20
-92.22500000000009
 42
0.4142135623730951
 10
82.22499999999996
 20
-91.22500000000009
 10
82.22499999999996
 20
-77.16591800998371
 42
-0.4142135623730744
 10
82.72499999999997
 20
-76.66591800998372
 10
88.725
 20
-76.66591800998372
 42
-0.4142135623730744
 10
89.22500000000001
 20
-77.16591800998371
 10
89.22499999999997
 20
-91.22500000000009
 42
0.4142135623730951
 10
90.22499999999999
 20
-92.22500000000009
 10
134.875
 20
-92.22500000000001
 42
0.4142135623730951
 10
135.875
 20
-91.22500000000004
 10
135.875
 20
-79.22499999999999
 42
-0.4142135623731055
 10
136.375
 20
-78.72499999999999
 10
149.375
 20
-78.72499999999999
 42
-0.4142135623731002
 10
149.875
 20
-79.22499999999999
  0
SPLINE
  5
101
330
1F
100
AcDbEntity
  8
0
100
AcDbSpline
210
0.0
220
0.0
230
1.0
 70
     8
 71
     5
 72
    21
 73
    15
 74
     0
 42
0.000000001
 43
0.0000000001
 40
0.0764966239365078
 40
0.0764966239365078
 40
0.0764966239365078
 40
0.0764966239365078
 40
0.0764966239365078
 40
0.0764966239365078
 40
0.1
 40
0.2
 40
0.3
 40
0.4
 40
0.5
 40
0.6
 40
0.7
 40
0.8
 40
0.9
 40
0.9235271659634619
 40
0.9235271659634619
 40
0.9235271659634619
 40
0.9235271659634619
 40
0.9235271659634619
 40
0.9235271659634619
 10
133.144119457337
 20
-81.3605956363253
 30
0.0
 10
133.101069077536
 20
-81.3993090351626
 30
0.0
 10
132.876441784137
 20
-81.60246484800405
 30
0.0
 10
132.485381551799
 20
-81.96755129292602
 30
0.0
 10
131.964902227053
 20
-82.48959736161582
 30
0.0
 10
131.396434802201
 20
-83.16263042421022
 30
0.0
 10
130.953972376213
 20
-83.94657745740319
 30
0.0
 10
130.797082746487
 20
-84.72501540720644
 30
0.0
 10
130.953723899021
 20
-85.50339022552321
 30
0.0
 10
131.396000773616
 20
-86.28719294407911
 30
0.0
 10
131.964446890064
 20
-86.96015522249323
 30
0.0
 10
132.485021859456
 20
-87.48222598074141
 30
0.0
 10
132.876216758522
 20
-87.84739358037832
 30
0.0
 10
133.100956377865
 20
-88.05062994202993
 30
0.0
 10
133.144064372342
 20
-88.08939112458542
 30
0.0
  0
SPLINE
  5
102
330
1F
100
AcDbEntity
  8
0
100
AcDbSpline
210
0.0
220
0.0
230
1.0
 70
     8
 71
     3
 72
     9
 73
     5
 74
     0
 42
0.000000001
 43
0.0000000001
 40
0.0
 40
0.0
 40
0.0
 40
0.0
 40
0.0661742007114039
 40
0.154406468326609
 40
0.154406468326609
 40
0.154406468326609
 40
0.154406468326609
 10
133.23971652305
 20
-89.4778862095378
 30
0.0
 10
133.381530614906
 20
-89.30981970387461
 30
0.0
 10
133.5787561463577
 20
-88.8040222045423
 30
0.0
 10
133.362092313621
 20
-88.28543413091511
 30
0.0
 10
133.14406437234
 20
-88.08939112458359
 30
0.0
  0
LINE
  5
103
330
1F
100
AcDbEntity
  8
0
100
AcDbLine
 10
133.23971652305
 20
-89.4778862095378
 30
0.0
 11
133.239100634079
 21
-89.47861611095841
 31
0.0
  0
SPLINE
  5
104
330
1F
100
AcDbEntity
  8
0
100
AcDbSpline
210
0.0
220
0.0
230
1.0
 70
     8
 71
     3
 72
     9
 73
     5
 74
     0
 42
0.000000001
 43
0.0000000001
 40
0.0
 40
0.0
 40
0.0
 40
0.0
 40
0.0688234909575742
 40
0.160588145567673
 40
0.160588145567673
 40
0.160588145567673
 40
0.160588145567673
 10
131.806568847181
 20
-89.57765341213653
 30
0.0
 10
131.976798939083
 20
-89.73056798607222
 30
0.0
 10
132.5019486654056
 20
-89.94603495227293
 30
0.0
 10
133.042343536846
 20
-89.7117965894545
 30
0.0
 10
133.239100634079
 20
-89.47861611095841
 30
0.0
  0
SPLINE
  5
105
330
1F
100
AcDbEntity
  8
0
100
AcDbSpline
210
0.0
220
0.0
230
1.0
 70
     8
 71
     3
 72
    16
 73
    12
 74
     0
 42
0.000000001
 43
0.0000000001
 40
-0.923590359892349
 40
-0.923590359892349
 40
-0.923590359892349
 40
-0.923590359892349
 40
-0.8240347149920919
 40
-0.8240347149920919
 40
-0.597604339691178
 40
-0.597604339691178
 40
-0.438117264882084
 40
-0.438117264882084
 40
-0.25
 40
-0.25
 40
-0.0761548241377016
 40
-0.0761548241377016
 40
-0.0761548241377016
 40
-0.0761548241377016
 10
131.806568847174
 20
-89.57765341213031
 30
0.0
 10
131.47862951208
 20
-89.2830715133445
 30
0.0
 10
131.1639334052
 20
-88.9851440167812
 30
0.0
 10
130.175720376333
 20
-87.97312080388721
 30
0.0
 10
129.525532389522
 20
-87.21594015820292
 30
0.0
 10
128.872220011093
 20
-85.45064836394759
 30
0.0
 10
128.800658671515
 20
-84.56115313112791
 30
0.0
 10
129.208423686175
 20
-82.85437562877001
 30
0.0
 10
129.691723146046
 20
-82.12232771456735
 30
0.0
 10
130.699254349878
 20
-80.90399308077524
 30
0.0
 10
131.233121094283
 20
-80.38093468092682
 30
0.0
 10
131.80761665491
 20
-79.86836472174371
 30
0.0
  0
SPLINE
  5
106
330
1F
100
AcDbEntity
  8
0
100
AcDbSpline
210
0.0
220
0.0
230
1.0
 70
     8
 71
     3
 72
     9
 73
     5
 74
     0
 42
0.000000001
 43
0.0000000001
 40
0.0
 40
0.0
 40
0.0
 40
0.0
 40
0.0686785510354414
 40
0.16024995241603
 40
0.16024995241603
 40
0.16024995241603
 40
0.16024995241603
 10
133.237636127172
 20
-79.96964980739803
 30
0.0
 10
133.090378794767
 20
-79.79513277068402
 30
0.0
 10
132.6012450253023
 20
-79.50976835258697
 30
0.0
 10
132.034796867899
 20
-79.66567255059411
 30
0.0
 10
131.807616654905
 20
-79.86836472174821
 30
0.0
  0
LINE
  5
107
330
1F
100
AcDbEntity
  8
0
100
AcDbLine
 10
133.237636127172
 20
-79.96964980739803
 30
0.0
 11
133.239732558024
 21
-79.9721343213706
 31
0.0
  0
SPLINE
  5
108
330
1F
100
AcDbEntity
  8
0
100
AcDbSpline
210
0.0
220
0.0
230
1.0
 70
     8
 71
     3
 72
     9
 73
     5
 74
     0
 42
0.000000001
 43
0.0000000001
 40
0.0
 40
0.0
 40
0.0
 40
0.0
 40
0.0661720114803492
 40
0.154401360120815
 40
0.154401360120815
 40
0.154401360120815
 40
0.154401360120815
 10
133.144119457339
 20
-81.36059563632331
 30
0.0
 10
133.307627438994
 20
-81.21355977424142
 30
0.0
 10
133.5723218203603
 20
-80.739592329863
 30
0.0
 10
133.428812016434
 20
-80.19621543330082
 30
0.0
 10
133.239732558024
 20
-79.9721343213706
 30
0.0
  0
SPLINE
  5
109
330
1F
100
AcDbEntity
  8
0
100
AcDbSpline
210
0.0
220
0.0
230
1.0
 70
     8
 71
     3
 72
    16
 73
    12
 74
     0
 42
0.000000001
 43
0.0000000001
 40
0.0761548241376978
 40
0.0761548241376978
 40
0.0761548241376978
 40
0.0761548241376978
 40
0.25
 40
0.25
 40
0.438117264882084
 40
0.438117264882084
 40
0.597604339691178
 40
0.597604339691178
 40
0.8240347149920919
 40
0.8240347149920919
 40
0.9235903598923499
 40
0.9235903598923499
 40
0.9235903598923499
 40
0.9235903598923499
 10
153.94238334509
 20
-79.8683647217436
 30
0.0
 10
154.516878905717
 20
-80.38093468092682
 30
0.0
 10
155.050745650122
 20
-80.90399308077524
 30
0.0
 10
156.058276853954
 20
-82.12232771456735
 30
0.0
 10
156.541576313826
 20
-82.85437562877001
 30
0.0
 10
156.949341328485
 20
-84.56115313112791
 30
0.0
 10
156.877779988907
 20
-85.45064836394759
 30
0.0
 10
156.224467610478
 20
-87.21594015820292
 30
0.0
 10
155.574279623667
 20
-87.97312080388721
 30
0.0
 10
154.5860665948
 20
-88.9851440167812
 30
0.0
 10
154.27137048792
 20
-89.2830715133445
 30
0.0
 10
153.943431152826
 20
-89.57765341213043
 30
0.0
  0
SPLINE
  5
110
330
1F
100
AcDbEntity
  8
0
100
AcDbSpline
210
0.0
220
0.0
230
1.0
 70
     8
 71
     3
 72
     9
 73
     5
 74
     0
 42
0.000000001
 43
0.0000000001
 40
0.0
 40
0.0
 40
0.0
 40
0.0
 40
0.0688234909575732
 40
0.160588145567671
 40
0.160588145567671
 40
0.160588145567671
 40
0.160588145567671
 10
152.510899365921
 20
-89.47861611095841
 30
0.0
 10
152.658467188846
 20
-89.6535014698305
 30
0.0
 10
153.1489711290357
 20
-89.93917901145108
 30
0.0
 10
153.71645769695
 20
-89.78153951071741
 30
0.0
 10
153.943431152819
 20
-89.57765341213653
 30
0.0
  0
LINE
  5
111
330
1F
100
AcDbEntity
  8
0
100
AcDbLine
 10
152.510899365921
 20
-89.47861611095841
 30
0.0
 11
152.51028347695
 21
-89.47788620953792
 31
0.0
  0
SPLINE
  5
112
330
1F
100
AcDbEntity
  8
0
100
AcDbSpline
210
0.0
220
0.0
230
1.0
 70
     8
 71
     3
 72
     9
 73
     5
 74
     0
 42
0.000000001
 43
0.0000000001
 40
0.0
 40
0.0
 40
0.0
 40
0.0
 40
0.0661742007114071
 40
0.154406468326617
 40
0.154406468326617
 40
0.154406468326617
 40
0.154406468326617
 10
152.60593562766
 20
-88.08939112458372
 30
0.0
 10
152.442414671699
 20
-88.23642337933231
 30
0.0
 10
152.1776983780017
 20
-88.71039856391311
 30
0.0
 10
152.321198021142
 20
-89.25379753532032
 30
0.0
 10
152.51028347695
 20
-89.47788620953792
 30
0.0
  0
SPLINE
  5
113
330
1F
100
AcDbEntity
  8
0
100
AcDbSpline
210
0.0
220
0.0
230
1.0
 70
     8
 71
     5
 72
    21
 73
    15
 74
     0
 42
0.000000001
 43
0.0000000001
 40
-0.9235271659634689
 40
-0.9235271659634689
 40
-0.9235271659634689
 40
-0.9235271659634689
 40
-0.9235271659634689
 40
-0.9235271659634689
 40
-0.9
 40
-0.8
 40
-0.7
 40
-0.6
 40
-0.5
 40
-0.4
 40
-0.3
 40
-0.2
 40
-0.1
 40
-0.0764966239365068
 40
-0.0764966239365068
 40
-0.0764966239365068
 40
-0.0764966239365068
 40
-0.0764966239365068
 40
-0.0764966239365068
 10
152.605935627658
 20
-88.08939112458551
 30
0.0
 10
152.649043622135
 20
-88.05062994202993
 30
0.0
 10
152.873783241478
 20
-87.84739358037832
 30
0.0
 10
153.264978140544
 20
-87.48222598074141
 30
0.0
 10
153.785553109936
 20
-86.96015522249323
 30
0.0
 10
154.353999226385
 20
-86.28719294407911
 30
0.0
 10
154.796276100979
 20
-85.50339022552321
 30
0.0
 10
154.952917253513
 20
-84.72501540720644
 30
0.0
 10
154.796027623787
 20
-83.94657745740319
 30
0.0
 10
154.353565197799
 20
-83.16263042421022
 30
0.0
 10
153.785097772947
 20
-82.48959736161582
 30
0.0
 10
153.264618448202
 20
-81.96755129292602
 30
0.0
 10
152.873558215863
 20
-81.60246484800405
 30
0.0
 10
152.648930922464
 20
-81.3993090351626
 30
0.0
 10
152.605880542663
 20
-81.3605956363253
 30
0.0
  0
SPLINE
  5
114
330
1F
100
AcDbEntity
  8
0
100
AcDbSpline
210
0.0
220
0.0
230
1.0
 70
     8
 71
     3
 72
     9
 73
     5
 74
     0
 42
0.000000001
 43
0.0000000001
 40
0.0
 40
0.0
 40
0.0
 40
0.0
 40
0.0661720114803481
 40
0.154401360120812
 40
0.154401360120812
 40
0.154401360120812
 40
0.154401360120812
 10
152.510267441976
 20
-79.9721343213706
 30
0.0
 10
152.368457848168
 20
-80.14019515531831
 30
0.0
 10
152.1712364933387
 20
-80.64597180104863
 30
0.0
 10
152.387869900454
 20
-81.16454782021412
 30
0.0
 10
152.605880542661
 20
-81.36059563632331
 30
0.0
  0
LINE
  5
115
330
1F
100
AcDbEntity
  8
0
100
AcDbLine
 10
152.510267441976
 20
-79.9721343213706
 30
0.0
 11
152.512363872828
 21
-79.96964980739803
 31
0.0
  0
SPLINE
  5
116
330
1F
100
AcDbEntity
  8
0
100
AcDbSpline
210
0.0
220
0.0
230
1.0
 70
     8
 71
     3
 72
     9
 73
     5
 74
     0
 42
0.000000001
 43
0.0000000001
 40
0.0
 40
0.0
 40
0.0
 40
0.0
 40
0.0686785510354391
 40
0.160249952416024
 40
0.160249952416024
 40
0.160249952416024
 40
0.160249952416024
 10
153.942383345095
 20
-79.86836472174811
 30
0.0
 10
153.77199818535
 20
-79.71634559338262
 30
0.0
 10
153.2475256551297
 20
-79.50277912276324
 30
0.0
 10
152.708706982702
 20
-79.73696042511271
 30
0.0
 10
152.512363872828
 20
-79.96964980739803
 30
0.0
  0
LWPOLYLINE
  5
117
330
1F
100
AcDbEntity
  8
0
100
AcDbPolyline
 90
        8
 70
     1
 43
0.0
 10
72.81874999999996
 20
-89.725
 10
72.81875000000001
 20
-79.22499999999999
 42
-0.4142135623730951
 10
73.31874999999996
 20
-78.72499999999999
 10
74.31874999999997
 20
-78.72499999999999
 42
-0.4142135623730951
 10
74.81874999999996
 20
-79.22499999999999
 10
74.81875000000001
 20
-89.725
 42
-0.4142135623730951
 10
74.31874999999997
 20
-90.22500000000004
 10
73.31874999999996
 20
-90.22500000000004
 42
-0.4142135623730951
  0
LWPOLYLINE
  5
118
330
1F
100
AcDbEntity
  8
0
100
AcDbPolyline
 90
        8
 70
     1
 43
0.0
 10
210.93125
 20
-89.72500000000012
 10
210.93125
 20
-79.22500000000001
 42
-0.4142135623730951
 10
211.43125
 20
-78.72500000000001
 10
212.43125
 20
-78.72500000000001
 42
-0.4142135623730951
 10
212.93125
 20
-79.22500000000001
 10
212.93125
 20
-89.72500000000012
 42
-0.4142135623730951
 10
212.43125
 20
-90.22500000000011
 10
211.43125
 20
-90.22500000000011
 42
-0.4142135623730951
  0
LWPOLYLINE
  5
119
330
1F
100
AcDbEntity
  8
0
100
AcDbPolyline
 90
        8
 70
     1
 43
0.0
 10
234.74375
 20
-92.22500000000001
 10
234.74375
 20
-79.22500000000001
 42
-0.4142135623730951
 10
235.24375
 20
-78.72500000000001
 10
236.24375
 20
-78.72500000000001
 42
-0.4142135623730951
 10
236.74375
 20
-79.22500000000001
 10
236.74375
 20
-92.22500000000001
 42
-0.4142135623730951
 10
236.24375
 20
-92.72500000000006
 10
235.24375
 20
-92.72500000000006
 42
-0.4142135623730951
  0
LWPOLYLINE
  5
120
330
1F
100
AcDbEntity
  8
0
100
AcDbPolyline
 90
        8
 70
     1
 43
0.0
 10
258.55625
 20
-35.07500000000003
 10
258.55625
 20
-22.07500000000003
 42
-0.4142135623730951
 10
259.05625
 20
-21.57500000000004
 10
260.05625
 20
-21.57500000000002
 42
-0.4142135623730951
 10
260.55625
 20
-22.07500000000003
 10
260.55625
 20
-35.07500000000003
 42
-0.4142135623730951
 10
260.05625
 20
-35.57500000000004
 10
259.05625
 20
-35.57500000000004
 42
-0.4142135623730951
  0
LWPOLYLINE
  5
121
330
1F
100
AcDbEntity
  8
0
100
AcDbPolyline
 90
        8
 70
     1
 43
0.0
 10
40.12837499999998
 20
-73.17499999999999
 10
40.12837499999998
 20
-60.175
 42
-0.4142135623730951
 10
40.62837499999999
 20
-59.67500000000001
 10
41.62837500000001
 20
-59.67500000000001
 42
-0.4142135623730951
 10
42.12837499999999
 20
-60.175
 10
42.12837499999999
 20
-73.17499999999999
 42
-0.4142135623730951
 10
41.62837500000001
 20
-73.67499999999998
 10
40.62837499999999
 20
-73.67499999999998
 42
-0.4142135623730951
  0
LWPOLYLINE
  5
122
330
1F
100
AcDbEntity
  8
0
100
AcDbPolyline
 90
        8
 70
     1
 43
0.0
 10
2.143749999999995
 20
-35.075
 10
2.143749999999998
 20
-22.075
 42
-0.4142135623730951
 10
2.643749999999997
 20
-21.57500000000001
 10
3.643749999999997
 20
-21.57500000000001
 42
-0.4142135623730951
 10
4.143749999999997
 20
-22.075
 10
4.143749999999993
 20
-35.075
 42
-0.4142135623730951
 10
3.643749999999995
 20
-35.57500000000001
 10
2.643749999999995
 20
-35.57500000000001
 42
-0.4142135623730951
  0
LWPOLYLINE
  5
123
330
1F
100
AcDbEntity
  8
0
100
AcDbPolyline
 90
        8
 70
     1
 43
0.0
 10
1.496624999999988
 20
-92.225
 10
1.496624999999994
 20
-60.175
 42
-0.4142135623730951
 10
1.996624999999992
 20
-59.675
 10
2.996624999999992
 20
-59.675
 42
-0.4142135623730951
 10
3.496624999999992
 20
-60.175
 10
3.496624999999995
 20
-92.225
 42
-0.4142135623730951
 10
2.996624999999988
 20
-92.72500000000002
 10
1.996624999999989
 20
-92.72500000000002
 42
-0.4142135623730951
  0
LWPOLYLINE
  5
124
330
1F
100
AcDbEntity
  8
0
100
AcDbPolyline
 90
        8
 70
     1
 43
0.0
 10
282.253375
 20
-54.12500000000004
 10
282.253375
 20
-22.07500000000004
 42
-0.4142135623730951
 10
282.753375
 20
-21.57500000000004
 10
283.753375
 20
-21.57500000000003
 42
-0.4142135623730951
 10
284.253375
 20
-22.07500000000004
 10
284.253375
 20
-54.12500000000004
 42
-0.4142135623730951
 10
283.753375
 20
-54.62500000000003
 10
282.753375
 20
-54.62500000000005
 42
-0.4142135623730951
  0
LWPOLYLINE
  5
125
330
1F
100
AcDbEntity
  8
0
100
AcDbPolyline
 90
        8
 70
     1
 43
0.0
 10
258.55625
 20
-92.22500000000001
 10
258.55625
 20
-79.22500000000001
 42
-0.4142135623730951
 10
259.05625
 20
-78.72500000000001
 10
260.05625
 20
-78.72500000000001
 42
-0.4142135623730951
 10
260.55625
 20
-79.22500000000001
 10
260.55625
 20
-92.22500000000001
 42
-0.4142135623730951
 10
260.05625
 20
-92.72500000000006
 10
259.05625
 20
-92.72500000000006
 42
-0.4142135623730951
  0
LWPOLYLINE
  5
126
330
1F
100
AcDbEntity
  8
0
100
AcDbPolyline
 90
        8
 70
     1
 43
0.0
 10
235.934375
 20
-73.17500000000001
 10
235.934375
 20
-60.17500000000002
 42
-0.4142135623730951
 10
236.434375
 20
-59.67500000000002
 10
237.434375
 20
-59.67500000000002
 42
-0.4142135623730951
 10
237.934375
 20
-60.17500000000002
 10
237.934375
 20
-73.17500000000001
 42
-0.4142135623730951
 10
237.434375
 20
-73.67500000000001
 10
236.434375
 20
-73.67500000000005
 42
-0.4142135623730951
  0
LWPOLYLINE
  5
127
330
1F
100
AcDbEntity
  8
0
100
AcDbPolyline
 90
        8
 70
     1
 43
0.0
 10
49.00624999999999
 20
-92.225
 10
49.00625
 20
-79.22499999999998
 42
-0.4142135623730951
 10
49.50625
 20
-78.72499999999998
 10
50.50625
 20
-78.72499999999998
 42
-0.4142135623730951
 10
51.00624999999999
 20
-79.22499999999998
 10
51.00624999999999
 20
-92.225
 42
-0.4142135623730951
 10
50.50624999999999
 20
-92.72500000000002
 10
49.50624999999999
 20
-92.72500000000002
 42
-0.4142135623730951
  0
LWPOLYLINE
  5
128
330
1F
100
AcDbEntity
  8
0
100
AcDbPolyline
 90
        8
 70
     1
 43
0.0
 10
28.765625
 20
-54.12500000000001
 10
28.765625
 20
-41.12499999999999
 42
-0.4142135623730951
 10
29.265625
 20
-40.625
 10
30.265625
 20
-40.625
 42
-0.4142135623730951
 10
30.765625
 20
-41.125
 10
30.765625
 20
-54.12500000000001
 42
-0.4142135623730951
 10
30.265625
 20
-54.62500000000001
 10
29.26562499999999
 20
-54.62500000000001
 42
-0.4142135623730951
  0
LWPOLYLINE
  5
129
330
1F
100
AcDbEntity
  8
0
100
AcDbPolyline
 90
        8
 70
     1
 43
0.0
 10
25.19375
 20
-35.075
 10
25.19375
 20
-22.075
 42
-0.4142135623730951
 10
25.69375
 20
-21.57500000000001
 10
26.69375
 20
-21.57500000000001
 42
-0.4142135623730951
 10
27.19375
 20
-22.075
 10
27.19375
 20
-35.075
 42
-0.4142135623730951
 10
26.69375
 20
-35.57500000000001
 10
25.69375
 20
-35.57500000000001
 42
-0.4142135623730951
  0
LWPOLYLINE
  5
130
330
1F
100
AcDbEntity
  8
0
100
AcDbPolyline
 90
        8
 70
     1
 43
0.0
 10
25.19374999999999
 20
-92.225
 10
25.19375
 20
-79.22499999999998
 42
-0.4142135623730951
 10
25.69374999999999
 20
-78.72499999999998
 10
26.69375
 20
-78.72499999999998
 42
-0.4142135623730951
 10
27.19374999999999
 20
-79.22499999999998
 10
27.19375
 20
-92.225
 42
-0.4142135623730951
 10
26.69375
 20
-92.72500000000002
 10
25.69374999999999
 20
-92.72500000000002
 42
-0.4142135623730951
  0
LWPOLYLINE
  5
131
330
1F
100
AcDbEntity
  8
0
100
AcDbPolyline
 90
        8
 70
     1
 43
0.0
 10
243.621625
 20
-54.12500000000004
 10
243.621625
 20
-41.12500000000003
 42
-0.4142135623730951
 10
244.121625
 20
-40.62500000000002
 10
245.121625
 20
-40.62500000000002
 42
-0.4142135623730951
 10
245.621625
 20
-41.12500000000003
 10
245.621625
 20
-54.12500000000004
 42
-0.4142135623730951
 10
245.121625
 20
-54.62500000000003
 10
244.121625
 20
-54.62500000000005
 42
-0.4142135623730951
  0
LWPOLYLINE
  5
132
330
1F
100
AcDbEntity
  8
0
100
AcDbPolyline
 90
        8
 70
     1
 43
0.0
 10
281.60625
 20
-92.22500000000001
 10
281.60625
 20
-79.22500000000001
 42
-0.4142135623730951
 10
282.10625
 20
-78.72500000000001
 10
283.1062500000001
 20
-78.72500000000001
 42
-0.4142135623730951
 10
283.6062500000001
 20
-79.22500000000001
 10
283.6062500000001
 20
-92.22500000000001
 42
-0.4142135623730951
 10
283.1062500000001
 20
-92.72500000000006
 10
282.10625
 20
-92.72500000000006
 42
-0.4142135623730951
  0
LINE
  5
133
330
1F
100
AcDbEntity
  8
0
100
AcDbLine
 10
164.133630955938
 20
-86.51193237952863
 30
0.0
 11
160.042682359752
 21
-87.40413918605311
 31
0.0
  0
ELLIPSE
  5
134
330
1F
100
AcDbEntity
  8
0
100
AcDbEllipse
 10
159.9164863021212
 20
-86.61641196561149
 30
0.0
 11
-0.1721128209590069
 21
0.7827113430496779
 31
0.0
210
0.0
220
0.0
230
1.0
 40
0.5157193066910448
 41
0.1113410143412807
 42
3.030251639248568
  0
LINE
  5
135
330
1F
100
AcDbEntity
  8
0
100
AcDbLine
 10
159.700588166451
 20
-85.84840961288051
 30
0.0
 11
163.788447319736
 21
-84.942153056961
 31
0.0
  0
ARC
  5
136
330
1F
100
AcDbEntity
  8
0
100
AcDbCircle
 10
163.799269300433
 20
-84.99096785731699
 30
0.0
 40
0.0500000000000104
100
AcDbArc
 50
12.40157605162066
 51
102.5000000000928
  0
LINE
  5
137
330
1F
100
AcDbEntity
  8
0
100
AcDbLine
 10
163.8481026189919
 20
-84.98022974768234
 30
0.0
 11
164.171810067612
 21
-86.45234257723492
 31
0.0
  0
ARC
  5
138
330
1F
100
AcDbEntity
  8
0
100
AcDbCircle
 10
164.122976749053
 20
-86.46308068686963
 30
0.0
 40
0.0499999999999699
100
AcDbArc
 50
282.3031521030159
 51
12.40157605164745
  0
SPLINE
  5
139
330
1F
100
AcDbEntity
  8
0
100
AcDbSpline
210
0.0
220
0.0
230
1.0
 70
     8
 71
     5
 72
    15
 73
     9
 74
     0
 42
0.000000001
 43
0.0000000001
 40
0.007350555045093
 40
0.007350555045093
 40
0.007350555045093
 40
0.007350555045093
 40
0.007350555045093
 40
0.007350555045093
 40
0.1
 40
0.2
 40
0.3
 40
0.389299938421622
 40
0.389299938421622
 40
0.389299938421622
 40
0.389299938421622
 40
0.389299938421622
 40
0.389299938421622
 10
119.758652518657
 20
-82.70523067647712
 30
0.0
 10
119.811974378754
 20
-82.6779200795636
 30
0.0
 10
119.926684470676
 20
-82.6268826756514
 30
0.0
 10
120.113067442651
 20
-82.56744970340001
 30
0.0
 10
120.380747048334
 20
-82.52380832126521
 30
0.0
 10
120.682133980336
 20
-82.51679898047282
 30
0.0
 10
120.930999067531
 20
-82.52760907909761
 30
0.0
 10
121.1029296811179
 20
-82.54039571503861
 30
0.0
 10
121.186070108447
 20
-82.54759975565121
 30
0.0
  0
LINE
  5
140
330
1F
100
AcDbEntity
  8
0
100
AcDbLine
 10
121.186070108447
 20
-82.54759975565123
 30
0.0
 11
121.730211759434
 21
-81.67433462073519
 31
0.0
  0
ARC
  5
141
330
1F
100
AcDbEntity
  8
0
100
AcDbCircle
 10
121.772647651287
 20
-81.700776917961
 30
0.0
 40
0.0499999999999981
100
AcDbArc
 50
91.92751306406261
 51
148.0724869353625
  0
LINE
  5
142
330
1F
100
AcDbEntity
  8
0
100
AcDbLine
 10
121.770965896082
 20
-81.65080520897054
 30
0.0
 11
122.981530546378
 21
-81.61006468912733
 31
0.0
  0
ARC
  5
143
330
1F
100
AcDbEntity
  8
0
100
AcDbCircle
 10
122.983212301583
 20
-81.66003639811782
 30
0.0
 40
0.049999999999998
100
AcDbArc
 50
328.0724869353806
 51
91.92751306406261
  0
LINE
  5
144
330
1F
100
AcDbEntity
  8
0
100
AcDbLine
 10
123.0256481934365
 20
-81.68647869534394
 30
0.0
 11
122.3850835431419
 21
-82.71448817550073
 31
0.0
  0
ARC
  5
145
330
1F
100
AcDbEntity
  8
0
100
AcDbCircle
 10
122.3426476512879
 20
-82.68804587827503
 30
0.0
 40
0.0499999999999981
100
AcDbArc
 50
271.9275130640631
 51
328.0724869360846
  0
LINE
  5
146
330
1F
100
AcDbEntity
  8
0
100
AcDbLine
 10
122.344329406493
 20
-82.73801758726552
 30
0.0
 11
121.363797013384
 21
-82.77101656787211
 31
0.0
  0
LINE
  5
147
330
1F
100
AcDbEntity
  8
0
100
AcDbLine
 10
121.363797013384
 20
-82.77101656787211
 30
0.0
 11
120.162957557657
 21
-88.23203137165839
 31
0.0
  0
LINE
  5
148
330
1F
100
AcDbEntity
  8
0
100
AcDbLine
 10
120.162957557657
 20
-88.23203137165839
 30
0.0
 11
121.039197013885
 21
-88.67332166387672
 31
0.0
  0
ARC
  5
149
330
1F
100
AcDbEntity
  8
0
100
AcDbCircle
 10
121.016707160191
 20
-88.71797820293695
 30
0.0
 40
0.0499999999999983
100
AcDbArc
 50
7.124360960823167
 51
63.26933483243149
  0
LINE
  5
150
330
1F
100
AcDbEntity
  8
0
100
AcDbLine
 10
121.0663211249631
 20
-88.71177703372532
 30
0.0
 11
121.216544449116
 21
-89.91367533032949
 31
0.0
  0
ARC
  5
151
330
1F
100
AcDbEntity
  8
0
100
AcDbCircle
 10
121.166930484344
 20
-89.91987649954122
 30
0.0
 40
0.0500000000000058
100
AcDbArc
 50
243.2693348323947
 51
7.124360960952449
  0
LINE
  5
152
330
1F
100
AcDbEntity
  8
0
100
AcDbLine
 10
121.14444063065
 20
-89.96453303860132
 30
0.0
 11
120.062635971917
 21
-89.41971633286863
 31
0.0
  0
ARC
  5
153
330
1F
100
AcDbEntity
  8
0
100
AcDbCircle
 10
120.085125825611
 20
-89.37505979380851
 30
0.0
 40
0.0500000000000005
100
AcDbArc
 50
187.1243609608393
 51
243.2693348323729
  0
LINE
  5
154
330
1F
100
AcDbEntity
  8
0
100
AcDbLine
 10
120.0355118608388
 20
-89.38126096302015
 30
0.0
 11
119.907901372837
 21
-88.36028217012311
 31
0.0
  0
SPLINE
  5
155
330
1F
100
AcDbEntity
  8
0
100
AcDbSpline
210
0.0
220
0.0
230
1.0
 70
     8
 71
     5
 72
    15
 73
     9
 74
     0
 42
0.000000001
 43
0.0000000001
 40
-0.38929993842183
 40
-0.38929993842183
 40
-0.38929993842183
 40
-0.38929993842183
 40
-0.38929993842183
 40
-0.38929993842183
 40
-0.3
 40
-0.2
 40
-0.1
 40
-0.0073505550450174
 40
-0.0073505550450174
 40
-0.0073505550450174
 40
-0.0073505550450174
 40
-0.0073505550450174
 40
-0.0073505550450174
 10
119.907901372837
 20
-88.36028217012282
 30
0.0
 10
119.829408174403
 20
-88.33194409225393
 30
0.0
 10
119.667973383579
 20
-88.27142597712471
 30
0.0
 10
119.437530147137
 20
-88.17683948424532
 30
0.0
 10
119.1668852657939
 20
-88.04404429666911
 30
0.0
 10
118.942205573714
 20
-87.89213650391172
 30
0.0
 10
118.797947862682
 20
-87.75999792801261
 30
0.0
 10
118.71522956606
 20
-87.66554738438792
 30
0.0
 10
118.678283263527
 20
-87.61838744167022
 30
0.0
  0
ELLIPSE
  5
156
330
1F
100
AcDbEntity
  8
0
100
AcDbEllipse
 10
118.7057645628403
 20
-87.59025890748475
 30
0.0
 11
0.0098055635139944
 21
-0.0430298772977069
 31
0.0
210
0.0
220
0.0
230
1.0
 40
0.8551365170631203
 41
4.208223824324607
 42
5.216554137610837
  0
LINE
  5
157
330
1F
100
AcDbEntity
  8
0
100
AcDbLine
 10
118.6688095861899
 20
-87.57681398473941
 30
0.0
 11
119.732612597081
 21
-82.73899493817211
 31
0.0
  0
ELLIPSE
  5
158
330
1F
100
AcDbEntity
  8
0
100
AcDbEllipse
 10
119.7717988120672
 20
-82.74229293782353
 30
0.0
 11
-0.0269521640217641
 21
-0.0349471067501326
 31
0.0
210
0.0
220
0.0
230
1.0
 40
0.8551365169775058
 41
4.20822382379919
 42
5.216554137213506
  0
SPLINE
  5
159
330
1F
100
AcDbEntity
  8
0
100
AcDbSpline
210
0.0
220
0.0
230
1.0
 70
     8
 71
     5
 72
    15
 73
     9
 74
     0
 42
0.000000001
 43
0.0000000001
 40
0.0073505550450772
 40
0.0073505550450772
 40
0.0073505550450772
 40
0.0073505550450772
 40
0.0073505550450772
 40
0.0073505550450772
 40
0.1
 40
0.2
 40
0.3
 40
0.389299938421827
 40
0.389299938421827
 40
0.389299938421827
 40
0.389299938421827
 40
0.389299938421827
 40
0.389299938421827
 10
167.071716736473
 20
-87.6183874416704
 30
0.0
 10
167.03477043394
 20
-87.66554738438802
 30
0.0
 10
166.952052137318
 20
-87.75999792801272
 30
0.0
 10
166.807794426286
 20
-87.89213650391182
 30
0.0
 10
166.583114734206
 20
-88.04404429666922
 30
0.0
 10
166.312469852863
 20
-88.17683948424532
 30
0.0
 10
166.082026616421
 20
-88.27142597712471
 30
0.0
 10
165.920591825597
 20
-88.33194409225393
 30
0.0
 10
165.842098627164
 20
-88.36028217012282
 30
0.0
  0
LINE
  5
160
330
1F
100
AcDbEntity
  8
0
100
AcDbLine
 10
165.842098627164
 20
-88.36028217012279
 30
0.0
 11
165.714488139161
 21
-89.38126096302012
 31
0.0
  0
ARC
  5
161
330
1F
100
AcDbEntity
  8
0
100
AcDbCircle
 10
165.664874174389
 20
-89.37505979380842
 30
0.0
 40
0.0499999999999978
100
AcDbArc
 50
296.7306651675836
 51
352.8756390390617
  0
LINE
  5
162
330
1F
100
AcDbEntity
  8
0
100
AcDbLine
 10
165.6873640280829
 20
-89.41971633286852
 30
0.0
 11
164.60555936935
 21
-89.96453303860132
 31
0.0
  0
ARC
  5
163
330
1F
100
AcDbEntity
  8
0
100
AcDbCircle
 10
164.583069515656
 20
-89.91987649954122
 30
0.0
 40
0.0499999999999961
100
AcDbArc
 50
172.8756390390455
 51
296.7306651676562
  0
LINE
  5
164
330
1F
100
AcDbEntity
  8
0
100
AcDbLine
 10
164.5334555508839
 20
-89.91367533032949
 30
0.0
 11
164.683678875036
 21
-88.71177703372532
 31
0.0
  0
ARC
  5
165
330
1F
100
AcDbEntity
  8
0
100
AcDbCircle
 10
164.733292839809
 20
-88.71797820293695
 30
0.0
 40
0.0499999999999979
100
AcDbArc
 50
116.7306651676417
 51
172.8756390392838
  0
LINE
  5
166
330
1F
100
AcDbEntity
  8
0
100
AcDbLine
 10
164.710802986115
 20
-88.67332166387683
 30
0.0
 11
165.587042442343
 21
-88.23203137165839
 31
0.0
  0
LINE
  5
167
330
1F
100
AcDbEntity
  8
0
100
AcDbLine
 10
165.587042442343
 20
-88.23203137165839
 30
0.0
 11
164.386202986616
 21
-82.77101656787211
 31
0.0
  0
LINE
  5
168
330
1F
100
AcDbEntity
  8
0
100
AcDbLine
 10
164.386202986616
 20
-82.77101656787211
 30
0.0
 11
163.405670593507
 21
-82.73801758726552
 31
0.0
  0
ARC
  5
169
330
1F
100
AcDbEntity
  8
0
100
AcDbCircle
 10
163.407352348712
 20
-82.68804587827503
 30
0.0
 40
0.0499999999999969
100
AcDbArc
 50
211.92751306391
 51
268.0724869359368
  0
LINE
  5
170
330
1F
100
AcDbEntity
  8
0
100
AcDbLine
 10
163.3649164568581
 20
-82.71448817550064
 30
0.0
 11
162.724351806564
 21
-81.68647869534359
 31
0.0
  0
ARC
  5
171
330
1F
100
AcDbEntity
  8
0
100
AcDbCircle
 10
162.766787698417
 20
-81.66003639811782
 30
0.0
 40
0.0499999999999981
100
AcDbArc
 50
88.07248693596937
 51
211.9275130645891
  0
LINE
  5
172
330
1F
100
AcDbEntity
  8
0
100
AcDbLine
 10
162.768469453622
 20
-81.61006468912733
 30
0.0
 11
163.979034103918
 21
-81.65080520897051
 31
0.0
  0
ARC
  5
173
330
1F
100
AcDbEntity
  8
0
100
AcDbCircle
 10
163.977352348713
 20
-81.700776917961
 30
0.0
 40
0.0500000000000073
100
AcDbArc
 50
31.92751306462798
 51
88.07248693593791
  0
LINE
  5
174
330
1F
100
AcDbEntity
  8
0
100
AcDbLine
 10
164.0197882405665
 20
-81.67433462073487
 30
0.0
 11
164.563929891552
 21
-82.5475997556513
 31
0.0
  0
SPLINE
  5
175
330
1F
100
AcDbEntity
  8
0
100
AcDbSpline
210
0.0
220
0.0
230
1.0
 70
     8
 71
     5
 72
    15
 73
     9
 74
     0
 42
0.000000001
 43
0.0000000001
 40
-0.3892999384216311
 40
-0.3892999384216311
 40
-0.3892999384216311
 40
-0.3892999384216311
 40
-0.3892999384216311
 40
-0.3892999384216311
 40
-0.3
 40
-0.2
 40
-0.1
 40
-0.0073505550450401
 40
-0.0073505550450401
 40
-0.0073505550450401
 40
-0.0073505550450401
 40
-0.0073505550450401
 40
-0.0073505550450401
 10
164.563929891553
 20
-82.54759975565121
 30
0.0
 10
164.647070318882
 20
-82.54039571503861
 30
0.0
 10
164.819000932469
 20
-82.52760907909761
 30
0.0
 10
165.067866019664
 20
-82.51679898047282
 30
0.0
 10
165.369252951666
 20
-82.52380832126521
 30
0.0
 10
165.63693255735
 20
-82.56744970339992
 30
0.0
 10
165.823315529324
 20
-82.6268826756514
 30
0.0
 10
165.938025621247
 20
-82.67792007956375
 30
0.0
 10
165.991347481343
 20
-82.70523067647724
 30
0.0
  0
ELLIPSE
  5
176
330
1F
100
AcDbEntity
  8
0
100
AcDbEllipse
 10
165.978201187929
 20
-82.74229293782836
 30
0.0
 11
0.0269521640196798
 21
-0.0349471067556608
 31
0.0
210
0.0
220
0.0
230
1.0
 40
0.8551365170522716
 41
1.066631170141312
 42
2.074961483475776
  0
LINE
  5
177
330
1F
100
AcDbEntity
  8
0
100
AcDbLine
 10
166.017387402919
 20
-82.73899493817211
 30
0.0
 11
167.08119041381
 21
-87.57681398473964
 31
0.0
  0
ELLIPSE
  5
178
330
1F
100
AcDbEntity
  8
0
100
AcDbEllipse
 10
167.0442354371747
 20
-87.59025890749565
 30
0.0
 11
-0.0098055635372324
 21
-0.0430298772842813
 31
0.0
210
0.0
220
0.0
230
1.0
 40
0.855136516823183
 41
1.066631170150257
 42
2.074961483633745
  0
LWPOLYLINE
  5
179
330
1F
100
AcDbEntity
  8
0
100
AcDbPolyline
 90
        8
 70
     1
 43
0.0
 10
94.45622695664239
 20
-79.66672514760452
 10
98.22497563063107
 20
-79.67988061564462
 10
118.34925212413
 20
-84.1413253038039
 42
-0.4137105134303187
 10
118.3872634619928
 20
-84.200878213795
 10
118.0608259789239
 20
-85.68540632372998
 42
-0.4137105134231818
 10
118.00133845348
 20
-85.72351990675445
 10
97.86185282463279
 20
-81.33124126147592
 10
94.43523588342799
 20
-79.76218550329535
 42
-0.8068755714093725
  0
LINE
  5
180
330
1F
100
AcDbEntity
  8
0
100
AcDbLine
 10
121.961552680264
 20
-84.942153056961
 30
0.0
 11
126.049411833549
 21
-85.84840961288051
 31
0.0
  0
ELLIPSE
  5
181
330
1F
100
AcDbEntity
  8
0
100
AcDbEllipse
 10
125.8335136978789
 20
-86.61641196561156
 30
0.0
 11
0.1721128209590032
 21
0.7827113430496389
 31
0.0
210
0.0
220
0.0
230
1.0
 40
0.5157193066907473
 41
3.252933667930503
 42
6.171844292838764
  0
LINE
  5
182
330
1F
100
AcDbEntity
  8
0
100
AcDbLine
 10
125.707317640248
 20
-87.40413918605311
 30
0.0
 11
121.616369044062
 21
-86.51193237952863
 31
0.0
  0
ARC
  5
183
330
1F
100
AcDbEntity
  8
0
100
AcDbCircle
 10
121.627023250947
 20
-86.46308068686963
 30
0.0
 40
0.0499999999999969
100
AcDbArc
 50
167.5984239483564
 51
257.6968478970159
  0
LINE
  5
184
330
1F
100
AcDbEntity
  8
0
100
AcDbLine
 10
121.5781899323881
 20
-86.45234257723494
 30
0.0
 11
121.901897381008
 21
-84.98022974768231
 31
0.0
  0
ARC
  5
185
330
1F
100
AcDbEntity
  8
0
100
AcDbCircle
 10
121.9507306995669
 20
-84.99096785731699
 30
0.0
 40
0.0500000000000252
100
AcDbArc
 50
77.49999999987543
 51
167.5984239483879
  0
LWPOLYLINE
  5
186
330
1F
100
AcDbEntity
  8
0
100
AcDbPolyline
 90
        8
 70
     1
 43
0.0
 10
191.314764116572
 20
-79.76218550329534
 10
187.888147175367
 20
-81.33124126147594
 10
167.74866154652
 20
-85.72351990675445
 42
-0.4137105134229683
 10
167.6891740210761
 20
-85.68540632372998
 10
167.3627365380081
 20
-84.2008782137948
 42
-0.4137105134233921
 10
167.40074787587
 20
-84.14132530380413
 10
187.525024369369
 20
-79.67988061564463
 10
191.293773043358
 20
-79.66672514760441
 42
-0.806875571399987
  0
LWPOLYLINE
  5
187
330
1F
100
AcDbEntity
  8
0
100
AcDbPolyline
 90
        8
 70
     1
 43
0.0
 10
69.7
 20
-21.57500000000001
 42
0.4142135623730976
 10
69.20000000000001
 20
-22.07500000000001
 10
69.2
 20
-35.07500000000001
 42
0.4142135623730976
 10
69.7
 20
-35.57500000000002
 10
82.70000000000001
 20
-35.57500000000002
 42
0.4142135623730717
 10
83.2
 20
-35.07500000000001
 10
83.2
 20
-22.07500000000001
 42
0.4142135623730976
 10
82.70000000000001
 20
-21.57500000000002
  0
LWPOLYLINE
  5
188
330
1F
100
AcDbEntity
  8
0
100
AcDbPolyline
 90
        8
 70
     1
 43
0.0
 10
164.95
 20
-21.57500000000003
 42
0.4142135623730822
 10
164.45
 20
-22.07500000000002
 10
164.45
 20
-35.07500000000002
 42
0.4142135623731315
 10
164.95
 20
-35.57500000000003
 10
177.95
 20
-35.57500000000003
 42
0.4142135623731315
 10
178.45
 20
-35.07500000000002
 10
178.45
 20
-22.07500000000002
 42
0.4142135623731341
 10
177.95
 20
-21.57500000000003
  0
LWPOLYLINE
  5
189
330
1F
100
AcDbEntity
  8
0
100
AcDbPolyline
 90
        8
 70
     1
 43
0.0
 10
31.6
 20
-21.57500000000001
 42
0.4142135623730951
 10
31.1
 20
-22.075
 10
31.1
 20
-35.07500000000001
 42
0.4142135623730951
 10
31.6
 20
-35.57500000000002
 10
44.59999999999999
 20
-35.57500000000002
 42
0.4142135623730822
 10
45.1
 20
-35.07500000000001
 10
45.1
 20
-22.07500000000001
 42
0.4142135623730976
 10
44.59999999999999
 20
-21.57500000000001
  0
LWPOLYLINE
  5
190
330
1F
100
AcDbEntity
  8
0
100
AcDbPolyline
 90
        8
 70
     1
 43
0.0
 10
6.493249999999993
 20
-60.67499999999999
 42
0.4142135623730958
 10
5.993249999999994
 20
-61.17499999999999
 10
5.99324999999999
 20
-75.17499999999998
 42
0.4142135623730965
 10
6.493249999999991
 20
-75.67499999999999
 10
12.49324999999999
 20
-75.67499999999999
 42
0.4142135623730976
 10
12.99324999999999
 20
-75.17499999999998
 10
12.99324999999999
 20
-61.17499999999999
 42
0.4142135623730965
 10
12.49324999999999
 20
-60.67499999999999
  0
LWPOLYLINE
  5
191
330
1F
100
AcDbEntity
  8
0
100
AcDbPolyline
 90
        8
 70
     1
 43
0.0
 10
193.525
 20
-2.525000000000023
 42
0.4142135623730775
 10
193.025
 20
-3.025000000000023
 10
193.025
 20
-16.02500000000002
 42
0.4142135623731341
 10
193.525
 20
-16.52500000000002
 10
206.525
 20
-16.52500000000002
 42
0.4142135623730235
 10
207.025
 20
-16.02500000000002
 10
207.0250000000001
 20
-3.025000000000025
 42
0.4142135623731015
 10
206.525
 20
-2.525000000000015
  0
LWPOLYLINE
  5
192
330
1F
100
AcDbEntity
  8
0
100
AcDbPolyline
 90
        8
 70
     1
 43
0.0
 10
2.524999999999998
 20
-16.025
 10
2.524999999999999
 20
-3.025
 42
-0.4142135623730944
 10
3.024999999999999
 20
-2.525
 10
16.025
 20
-2.525000000000001
 42
-0.4142135623730948
 10
16.525
 20
-3.025000000000002
 10
16.52499999999999
 20
-16.025
 42
-0.4142135623730976
 10
16.02499999999999
 20
-16.525
 10
3.024999999999997
 20
-16.525
 42
-0.4142135623730948
  0
LWPOLYLINE
  5
193
330
1F
100
AcDbEntity
  8
0
100
AcDbPolyline
 90
        8
 70
     1
 43
0.0
 10
203.05
 20
-21.57500000000003
 42
0.4142135623730822
 10
202.55
 20
-22.07500000000003
 10
202.55
 20
-35.07500000000002
 42
0.4142135623731315
 10
203.05
 20
-35.57500000000003
 10
216.05
 20
-35.57500000000004
 42
0.4142135623730456
 10
216.55
 20
-35.07500000000003
 10
216.55
 20
-22.07500000000003
 42
0.4142135623730976
 10
216.05
 20
-21.57500000000003
  0
LWPOLYLINE
  5
194
330
1F
100
AcDbEntity
  8
0
100
AcDbPolyline
 90
        8
 70
     1
 43
0.0
 10
264.9625
 20
-78.72500000000001
 42
0.4142135623730744
 10
264.4625
 20
-79.22500000000001
 10
264.4625
 20
-92.22500000000001
 42
0.4142135623731368
 10
264.9625
 20
-92.72500000000002
 10
277.9625
 20
-92.72500000000002
 42
0.4142135623730744
 10
278.4625
 20
-92.22500000000001
 10
278.4625000000001
 20
-79.22500000000001
 42
0.4142135623731263
 10
277.9625
 20
-78.72500000000001
  0
LWPOLYLINE
  5
195
330
1F
100
AcDbEntity
  8
0
100
AcDbPolyline
 90
        8
 70
     1
 43
0.0
 10
41.12499999999999
 20
-2.525000000000004
 42
0.4142135623730942
 10
40.625
 20
-3.025000000000004
 10
40.625
 20
-16.025
 42
0.4142135623730951
 10
41.12499999999999
 20
-16.525
 10
54.12500000000001
 20
-16.52500000000001
 42
0.4142135623730937
 10
54.625
 20
-16.025
 10
54.625
 20
-3.025000000000006
 42
0.4142135623730944
 10
54.12500000000001
 20
-2.525000000000006
  0
LWPOLYLINE
  5
196
330
1F
100
AcDbEntity
  8
0
100
AcDbPolyline
 90
        8
 70
     1
 43
0.0
 10
5.406249999999994
 20
-40.625
 42
0.4142135623730931
 10
4.906249999999999
 20
-41.12499999999999
 10
4.906249999999993
 20
-54.12500000000001
 42
0.4142135623730937
 10
5.406249999999992
 20
-54.625
 10
23.16874999999999
 20
-54.625
 42
0.4142135623730951
 10
23.66874999999999
 20
-54.12500000000001
 10
23.66875
 20
-41.12499999999999
 42
0.4142135623730951
 10
23.16875
 20
-40.625
  0
LWPOLYLINE
  5
197
330
1F
100
AcDbEntity
  8
0
100
AcDbPolyline
 90
        8
 70
     1
 43
0.0
 10
150.6625
 20
-40.62500000000002
 42
0.4142135623731159
 10
150.1625
 20
-41.12500000000002
 10
150.1625
 20
-54.12500000000003
 42
0.4142135623730951
 10
150.6625
 20
-54.62500000000002
 10
163.6625
 20
-54.62500000000002
 42
0.4142135623730222
 10
164.1625
 20
-54.12500000000003
 10
164.1625
 20
-41.12500000000002
 42
0.414213562373121
 10
163.6625
 20
-40.62500000000002
  0
LWPOLYLINE
  5
198
330
1F
100
AcDbEntity
  8
0
100
AcDbPolyline
 90
        8
 70
     1
 43
0.0
 10
7.287499999999987
 20
-92.225
 10
7.287499999999988
 20
-79.22499999999998
 42
-0.4142135623730965
 10
7.787499999999989
 20
-78.72499999999998
 10
20.78749999999999
 20
-78.72500000000002
 42
-0.4142135623730976
 10
21.28749999999999
 20
-79.22499999999998
 10
21.28749999999998
 20
-92.225
 42
-0.4142135623731133
 10
20.78749999999999
 20
-92.72499999999999
 10
7.787499999999988
 20
-92.72500000000002
 42
-0.4142135623731055
  0
LWPOLYLINE
  5
199
330
1F
100
AcDbEntity
  8
0
100
AcDbPolyline
 90
        8
 70
     1
 43
0.0
 10
60.175
 20
-2.525000000000007
 42
0.4142135623730967
 10
59.675
 20
-3.025000000000007
 10
59.675
 20
-16.025
 42
0.4142135623730976
 10
60.175
 20
-16.525
 10
73.17499999999999
 20
-16.52500000000001
 42
0.4142135623730951
 10
73.67499999999998
 20
-16.02500000000001
 10
73.67499999999998
 20
-3.025000000000008
 42
0.4142135623730944
 10
73.17499999999999
 20
-2.525000000000008
  0
LWPOLYLINE
  5
200
330
1F
100
AcDbEntity
  8
0
100
AcDbPolyline
 90
        8
 70
     1
 43
0.0
 10
217.3375
 20
-78.72500000000001
 42
0.4142135623730222
 10
216.8375000000001
 20
-79.22500000000001
 10
216.8375000000001
 20
-92.22500000000001
 42
0.4142135623730951
 10
217.3375
 20
-92.72500000000002
 10
230.3375
 20
-92.72500000000006
 42
0.4142135623731368
 10
230.8375
 20
-92.22500000000001
 10
230.8375
 20
-79.22500000000001
 42
0.4142135623731368
 10
230.3375
 20
-78.72500000000001
  0
LWPOLYLINE
  5
201
330
1F
100
AcDbEntity
  8
0
100
AcDbPolyline
 90
        8
 70
     1
 43
0.0
 10
30.36925
 20
-60.675
 42
0.4142135623730976
 10
29.86924999999999
 20
-61.175
 10
29.86924999999999
 20
-75.17499999999998
 42
0.4142135623730976
 10
30.36924999999999
 20
-75.67499999999999
 10
36.36925
 20
-75.67499999999999
 42
0.4142135623730976
 10
36.86925
 20
-75.17499999999998
 10
36.86925
 20
-61.175
 42
0.4142135623730976
 10
36.36925
 20
-60.675
  0
LWPOLYLINE
  5
202
330
1F
100
AcDbEntity
  8
0
100
AcDbPolyline
 90
       14
 70
     1
 43
0.0
 10
282.725
 20
-73.67500000000001
 10
274.99425
 20
-73.67500000000001
 10
274.99425
 20
-75.17500000000001
 42
-0.4142135623730222
 10
274.4942500000001
 20
-75.67500000000001
 10
268.49425
 20
-75.67500000000001
 42
-0.4142135623731263
 10
267.99425
 20
-75.17500000000001
 10
267.9942500000001
 20
-61.17500000000003
 42
-0.4142135623730222
 10
268.49425
 20
-60.67500000000003
 10
269.225
 20
-60.67500000000003
 10
269.2250000000001
 20
-60.17500000000003
 42
-0.4142135623730222
 10
269.725
 20
-59.67500000000003
 10
282.725
 20
-59.67500000000003
 42
-0.4142135623731368
 10
283.225
 20
-60.17500000000003
 10
283.2250000000001
 20
-73.17500000000001
 42
-0.4142135623730744
  0
LWPOLYLINE
  5
203
330
1F
100
AcDbEntity
  8
0
100
AcDbPolyline
 90
        8
 70
     1
 43
0.0
 10
187.975
 20
-3.025000000000023
 42
0.4142135623731328
 10
187.475
 20
-2.525000000000022
 10
174.475
 20
-2.525000000000021
 42
0.4142135623730775
 10
173.975
 20
-3.025000000000021
 10
173.975
 20
-16.02500000000002
 42
0.4142135623731341
 10
174.475
 20
-16.52500000000002
 10
187.475
 20
-16.52500000000002
 42
0.4142135623730768
 10
187.975
 20
-16.02500000000002
  0
LWPOLYLINE
  5
204
330
1F
100
AcDbEntity
  8
0
100
AcDbPolyline
 90
        8
 70
     1
 43
0.0
 10
159.6875
 20
-73.17499999999999
 10
159.6875
 20
-60.17500000000001
 42
-0.4142135623731315
 10
160.1875
 20
-59.67500000000002
 10
173.1875
 20
-59.67500000000003
 42
-0.4142135623731263
 10
173.6875
 20
-60.17500000000001
 10
173.6875
 20
-73.17499999999999
 42
-0.4142135623730222
 10
173.1875
 20
-73.67499999999999
 10
160.1875
 20
-73.67500000000004
 42
-0.4142135623730951
  0
LWPOLYLINE
  5
205
330
1F
100
AcDbEntity
  8
0
100
AcDbPolyline
 90
        8
 70
     1
 43
0.0
 10
31.59999999999999
 20
-78.72499999999998
 42
0.4142135623730976
 10
31.09999999999999
 20
-79.22499999999998
 10
31.09999999999999
 20
-92.225
 42
0.4142135623731159
 10
31.59999999999999
 20
-92.72499999999999
 10
44.59999999999999
 20
-92.72499999999999
 42
0.4142135623731159
 10
45.09999999999999
 20
-92.225
 10
45.1
 20
-79.22499999999998
 42
0.4142135623731106
 10
44.59999999999999
 20
-78.72499999999998
  0
LWPOLYLINE
  5
206
330
1F
100
AcDbEntity
  8
0
100
AcDbPolyline
 90
        8
 70
     1
 43
0.0
 10
131.6125
 20
-40.62500000000001
 42
0.4142135623731159
 10
131.1125
 20
-41.12500000000001
 10
131.1125
 20
-54.12500000000002
 42
0.4142135623730951
 10
131.6125
 20
-54.62500000000002
 10
144.6125
 20
-54.62500000000002
 42
0.4142135623731002
 10
145.1125
 20
-54.12500000000003
 10
145.1125
 20
-41.12500000000002
 42
0.4142135623730744
 10
144.6125
 20
-40.62500000000001
  0
LWPOLYLINE
  5
207
330
1F
100
AcDbEntity
  8
0
100
AcDbPolyline
 90
        8
 70
     1
 43
0.0
 10
222.1
 20
-21.57500000000004
 42
0.4142135623730508
 10
221.6
 20
-22.07500000000003
 10
221.6
 20
-35.07500000000003
 42
0.4142135623731002
 10
222.1
 20
-35.57500000000004
 10
235.1
 20
-35.57500000000004
 42
0.4142135623731315
 10
235.6
 20
-35.07500000000003
 10
235.6
 20
-22.07500000000003
 42
0.4142135623731341
 10
235.1
 20
-21.57500000000004
  0
LWPOLYLINE
  5
208
330
1F
100
AcDbEntity
  8
0
100
AcDbPolyline
 90
        8
 70
     1
 43
0.0
 10
107.8
 20
-21.57500000000002
 42
0.4142135623731106
 10
107.3
 20
-22.07500000000001
 10
107.3
 20
-35.07500000000002
 42
0.4142135623730925
 10
107.8
 20
-35.57500000000003
 10
120.8
 20
-35.57500000000003
 42
0.4142135623731002
 10
121.3
 20
-35.07500000000002
 10
121.3
 20
-22.07500000000001
 42
0.4142135623730744
 10
120.8
 20
-21.57500000000002
  0
LWPOLYLINE
  5
209
330
1F
100
AcDbEntity
  8
0
100
AcDbPolyline
 90
        8
 70
     1
 43
0.0
 10
36.36249999999999
 20
-40.625
 42
0.4142135623730951
 10
35.86250000000001
 20
-41.125
 10
35.86250000000001
 20
-54.12500000000001
 42
0.4142135623730951
 10
36.36249999999999
 20
-54.62500000000001
 10
49.36249999999999
 20
-54.62500000000001
 42
0.4142135623730951
 10
49.86249999999999
 20
-54.12500000000001
 10
49.86249999999999
 20
-41.125
 42
0.4142135623730951
 10
49.36249999999999
 20
-40.625
  0
LWPOLYLINE
  5
210
330
1F
100
AcDbEntity
  8
0
100
AcDbPolyline
 90
        8
 70
     1
 43
0.0
 10
121.5875
 20
-73.17499999999999
 10
121.5875
 20
-60.17500000000001
 42
-0.414213562373121
 10
122.0875
 20
-59.67500000000001
 10
135.0875
 20
-59.675
 42
-0.4142135623730793
 10
135.5875
 20
-60.17500000000001
 10
135.5875
 20
-73.17499999999999
 42
-0.4142135623731002
 10
135.0875
 20
-73.67499999999999
 10
122.0875
 20
-73.67500000000004
 42
-0.4142135623730951
  0
LWPOLYLINE
  5
211
330
1F
100
AcDbEntity
  8
0
100
AcDbPolyline
 90
        8
 70
     1
 43
0.0
 10
98.275
 20
-2.525000000000011
 42
0.4142135623731055
 10
97.77499999999996
 20
-3.025000000000011
 10
97.77500000000003
 20
-16.02500000000001
 42
0.4142135623731146
 10
98.275
 20
-16.52500000000001
 10
111.275
 20
-16.52500000000001
 42
0.4142135623731133
 10
111.775
 20
-16.02500000000001
 10
111.775
 20
-3.025000000000013
 42
0.4142135623730944
 10
111.275
 20
-2.525000000000013
  0
LWPOLYLINE
  5
212
330
1F
100
AcDbEntity
  8
0
100
AcDbPolyline
 90
        8
 70
     1
 43
0.0
 10
272.75675
 20
-56.12500000000004
 42
0.4142135623731263
 10
273.25675
 20
-56.62500000000004
 10
279.25675
 20
-56.62500000000004
 42
0.4142135623730744
 10
279.75675
 20
-56.12500000000004
 10
279.75675
 20
-39.12500000000004
 42
0.4142135623731341
 10
279.25675
 20
-38.62500000000004
 10
273.25675
 20
-38.62500000000004
 42
0.4142135623730508
 10
272.75675
 20
-39.12500000000004
  0
LWPOLYLINE
  5
213
330
1F
100
AcDbEntity
  8
0
100
AcDbPolyline
 90
        8
 70
     1
 43
0.0
 10
145.9
 20
-21.57500000000002
 42
0.4142135623730847
 10
145.4
 20
-22.07500000000002
 10
145.4
 20
-35.07500000000002
 42
0.4142135623730717
 10
145.9
 20
-35.57500000000003
 10
158.9
 20
-35.57500000000003
 42
0.4142135623731159
 10
159.4
 20
-35.07500000000002
 10
159.4
 20
-22.07500000000002
 42
0.4142135623730951
 10
158.9
 20
-21.57500000000002
  0
LWPOLYLINE
  5
214
330
1F
100
AcDbEntity
  8
0
100
AcDbPolyline
 90
        8
 70
     1
 43
0.0
 10
136.375
 20
-2.525000000000016
 42
0.4142135623730744
 10
135.875
 20
-3.025000000000016
 10
135.875
 20
-16.02500000000001
 42
0.4142135623730755
 10
136.375
 20
-16.52500000000001
 10
149.375
 20
-16.52500000000001
 42
0.4142135623731133
 10
149.875
 20
-16.02500000000001
 10
149.875
 20
-3.025000000000018
 42
0.4142135623730944
 10
149.375
 20
-2.525000000000018
  0
LWPOLYLINE
  5
215
330
1F
100
AcDbEntity
  8
0
100
AcDbPolyline
 90
        8
 70
     1
 43
0.0
 10
73.96250000000001
 20
-54.12500000000001
 10
73.96250000000001
 20
-41.125
 42
-0.4142135623730951
 10
74.4625
 20
-40.625
 10
87.46250000000001
 20
-40.62500000000001
 42
-0.4142135623731002
 10
87.9625
 20
-41.12500000000001
 10
87.9625
 20
-54.12500000000002
 42
-0.4142135623731002
 10
87.46250000000001
 20
-54.62500000000002
 10
74.4625
 20
-54.62500000000001
 42
-0.4142135623730951
  0
LWPOLYLINE
  5
216
330
1F
100
AcDbEntity
  8
0
100
AcDbPolyline
 90
        8
 70
     1
 43
0.0
 10
241.15
 20
-21.57500000000004
 42
0.4142135623730508
 10
240.65
 20
-22.07500000000003
 10
240.65
 20
-35.07500000000003
 42
0.4142135623731002
 10
241.15
 20
-35.57500000000004
 10
254.15
 20
-35.57500000000004
 42
0.4142135623731315
 10
254.65
 20
-35.07500000000003
 10
254.65
 20
-22.07500000000003
 42
0.4142135623731341
 10
254.15
 20
-21.57500000000004
  0
LWPOLYLINE
  5
217
330
1F
100
AcDbEntity
  8
0
100
AcDbPolyline
 90
        8
 70
     1
 43
0.0
 10
117.325
 20
-2.525000000000014
 42
0.4142135623731055
 10
116.825
 20
-3.025000000000014
 10
116.825
 20
-16.02500000000001
 42
0.4142135623730965
 10
117.325
 20
-16.52500000000001
 10
130.325
 20
-16.52500000000001
 42
0.4142135623731133
 10
130.825
 20
-16.02500000000001
 10
130.825
 20
-3.025000000000015
 42
0.4142135623730944
 10
130.325
 20
-2.525000000000006
  0
LWPOLYLINE
  5
218
330
1F
100
AcDbEntity
  8
0
100
AcDbPolyline
 90
        8
 70
     1
 43
0.0
 10
241.15
 20
-78.72500000000001
 42
0.4142135623730222
 10
240.65
 20
-79.22500000000001
 10
240.65
 20
-92.22500000000001
 42
0.4142135623731055
 10
241.15
 20
-92.72500000000002
 10
254.15
 20
-92.72500000000006
 42
0.4142135623731368
 10
254.65
 20
-92.22500000000001
 10
254.65
 20
-79.22500000000001
 42
0.4142135623731368
 10
254.15
 20
-78.72500000000001
  0
LWPOLYLINE
  5
219
330
1F
100
AcDbEntity
  8
0
100
AcDbPolyline
 90
       20
 70
     1
 43
0.0
 10
250.675
 20
-2.52500000000003
 42
0.4142135623730463
 10
250.175
 20
-3.02500000000003
 10
250.175
 20
-16.02500000000003
 42
0.4142135623731237
 10
250.675
 20
-16.52500000000003
 10
251.262
 20
-16.52500000000003
 10
251.262
 20
-18.02500000000003
 42
0.4142135623731224
 10
251.762
 20
-18.52500000000003
 10
257.762
 20
-18.52500000000003
 42
0.4142135623730249
 10
258.262
 20
-18.02500000000003
 10
258.262
 20
-16.52500000000003
 10
275.138
 20
-16.52500000000003
 10
275.138
 20
-18.02500000000003
 42
0.4142135623731224
 10
275.638
 20
-18.52500000000003
 10
281.638
 20
-18.52500000000003
 42
0.4142135623730768
 10
282.138
 20
-18.02500000000003
 10
282.138
 20
-16.52500000000003
 10
282.725
 20
-16.52500000000004
 42
0.4142135623730755
 10
283.225
 20
-16.02500000000003
 10
283.225
 20
-3.025000000000034
 42
0.4142135623731328
 10
282.725
 20
-2.525000000000024
  0
LWPOLYLINE
  5
220
330
1F
100
AcDbEntity
  8
0
100
AcDbPolyline
 90
       14
 70
     1
 43
0.0
 10
243.53125
 20
-59.67500000000002
 42
0.4142135623730744
 10
243.03125
 20
-60.17500000000002
 10
243.03125
 20
-73.17500000000001
 42
0.4142135623731315
 10
243.53125
 20
-73.67500000000001
 10
244.11825
 20
-73.67500000000001
 10
244.11825
 20
-75.17500000000001
 42
0.4142135623731368
 10
244.61825
 20
-75.67500000000001
 10
250.61825
 20
-75.67500000000001
 42
0.4142135623730222
 10
251.11825
 20
-75.17500000000001
 10
251.11825
 20
-73.67500000000001
 10
266.05625
 20
-73.67500000000001
 42
0.4142135623730744
 10
266.55625
 20
-73.17500000000001
 10
266.55625
 20
-60.17500000000003
 42
0.4142135623731368
 10
266.05625
 20
-59.67500000000003
  0
LWPOLYLINE
  5
221
330
1F
100
AcDbEntity
  8
0
100
AcDbPolyline
 90
        8
 70
     1
 43
0.0
 10
68.91249999999998
 20
-79.22499999999999
 42
0.4142135623730951
 10
68.41249999999998
 20
-78.72499999999999
 10
55.4125
 20
-78.72499999999998
 42
0.4142135623730951
 10
54.9125
 20
-79.22499999999998
 10
54.91249999999999
 20
-92.225
 42
0.4142135623731159
 10
55.41249999999999
 20
-92.72499999999999
 10
68.41249999999998
 20
-92.72500000000004
 42
0.4142135623730951
 10
68.91249999999998
 20
-92.22500000000001
  0
LWPOLYLINE
  5
222
330
1F
100
AcDbEntity
  8
0
100
AcDbPolyline
 90
        8
 70
     1
 43
0.0
 10
264.9625
 20
-21.57500000000004
 42
0.4142135623730822
 10
264.4625
 20
-22.07500000000003
 10
264.4625
 20
-35.07500000000004
 42
0.4142135623731315
 10
264.9625
 20
-35.57500000000004
 10
277.9625
 20
-35.57500000000004
 42
0.4142135623730456
 10
278.4625
 20
-35.07500000000004
 10
278.4625000000001
 20
-22.07500000000004
 42
0.4142135623731029
 10
277.9625
 20
-21.57500000000004
  0
LWPOLYLINE
  5
223
330
1F
100
AcDbEntity
  8
0
100
AcDbPolyline
 90
        8
 70
     1
 43
0.0
 10
169.7125
 20
-40.62500000000002
 42
0.4142135623730744
 10
169.2124999999999
 20
-41.12500000000002
 10
169.2125
 20
-54.12500000000003
 42
0.4142135623731315
 10
169.7125
 20
-54.62500000000002
 10
182.7125
 20
-54.62500000000002
 42
0.4142135623730222
 10
183.2125
 20
-54.12500000000003
 10
183.2125
 20
-41.12500000000002
 42
0.414213562373121
 10
182.7125
 20
-40.62500000000002
  0
LWPOLYLINE
  5
224
330
1F
100
AcDbEntity
  8
0
100
AcDbPolyline
 90
        8
 70
     1
 43
0.0
 10
231.625
 20
-2.525000000000028
 42
0.4142135623730463
 10
231.125
 20
-3.025000000000028
 10
231.125
 20
-16.02500000000002
 42
0.4142135623731237
 10
231.625
 20
-16.52500000000002
 10
244.625
 20
-16.52500000000003
 42
0.4142135623730755
 10
245.125
 20
-16.02500000000002
 10
245.125
 20
-3.02500000000003
 42
0.4142135623731328
 10
244.625
 20
-2.525000000000019
  0
LWPOLYLINE
  5
225
330
1F
100
AcDbEntity
  8
0
100
AcDbPolyline
 90
        8
 70
     1
 43
0.0
 10
240.3625
 20
-41.12500000000003
 42
0.4142135623731315
 10
239.8625
 20
-40.62500000000002
 10
226.8625
 20
-40.62500000000002
 42
0.4142135623730222
 10
226.3625000000001
 20
-41.12500000000003
 10
226.3625000000001
 20
-54.12500000000004
 42
0.4142135623731002
 10
226.8625
 20
-54.62500000000003
 10
239.8625
 20
-54.62500000000003
 42
0.4142135623730744
 10
240.3625
 20
-54.12500000000004
  0
LWPOLYLINE
  5
226
330
1F
100
AcDbEntity
  8
0
100
AcDbPolyline
 90
        8
 70
     1
 43
0.0
 10
217.3375
 20
-59.67500000000002
 42
0.4142135623730222
 10
216.8375000000001
 20
-60.17500000000002
 10
216.8375000000001
 20
-73.17500000000001
 42
0.4142135623731002
 10
217.3375
 20
-73.67500000000001
 10
230.3375
 20
-73.67500000000001
 42
0.4142135623730744
 10
230.8375
 20
-73.17500000000001
 10
230.8375
 20
-60.17500000000002
 42
0.4142135623731368
 10
230.3375
 20
-59.67500000000002
  0
LWPOLYLINE
  5
227
330
1F
100
AcDbEntity
  8
0
100
AcDbPolyline
 90
        8
 70
     1
 43
0.0
 10
83.4875
 20
-73.17499999999999
 10
83.4875
 20
-60.175
 42
-0.414213562373121
 10
83.98749999999997
 20
-59.67500000000001
 10
96.98749999999998
 20
-59.675
 42
-0.4142135623731002
 10
97.48749999999999
 20
-60.17500000000001
 10
97.48749999999999
 20
-73.17499999999999
 42
-0.4142135623731159
 10
96.98749999999998
 20
-73.67499999999999
 10
83.98749999999997
 20
-73.67499999999999
 42
-0.4142135623730951
  0
LWPOLYLINE
  5
228
330
1F
100
AcDbEntity
  8
0
100
AcDbPolyline
 90
        8
 70
     1
 43
0.0
 10
45.8875
 20
-59.67500000000001
 42
0.4142135623730951
 10
45.38749999999999
 20
-60.175
 10
45.38749999999999
 20
-73.17499999999999
 42
0.4142135623730951
 10
45.8875
 20
-73.67499999999998
 10
58.8875
 20
-73.67499999999999
 42
0.4142135623730951
 10
59.38749999999999
 20
-73.17499999999999
 10
59.38749999999999
 20
-60.175
 42
0.4142135623730951
 10
58.8875
 20
-59.67500000000001
  0
LWPOLYLINE
  5
229
330
1F
100
AcDbEntity
  8
0
100
AcDbPolyline
 90
        8
 70
     1
 43
0.0
 10
207.8125
 20
-40.62500000000002
 42
0.4142135623730222
 10
207.3125
 20
-41.12500000000003
 10
207.3125
 20
-54.12500000000004
 42
0.414213562373121
 10
207.8125
 20
-54.62500000000003
 10
220.8125
 20
-54.62500000000003
 42
0.4142135623730744
 10
221.3125
 20
-54.12500000000004
 10
221.3125
 20
-41.12500000000003
 42
0.4142135623731315
 10
220.8125
 20
-40.62500000000002
  0
LWPOLYLINE
  5
230
330
1F
100
AcDbEntity
  8
0
100
AcDbPolyline
 90
        8
 70
     1
 43
0.0
 10
78.43749999999999
 20
-60.175
 42
0.4142135623730951
 10
77.93749999999999
 20
-59.67500000000001
 10
64.93749999999998
 20
-59.67500000000001
 42
0.4142135623731055
 10
64.43749999999998
 20
-60.175
 10
64.43749999999998
 20
-73.17499999999999
 42
0.4142135623730951
 10
64.93749999999998
 20
-73.67499999999999
 10
77.93749999999999
 20
-73.67499999999999
 42
0.4142135623730951
 10
78.43749999999999
 20
-73.17499999999999
  0
LWPOLYLINE
  5
231
330
1F
100
AcDbEntity
  8
0
100
AcDbPolyline
 90
        8
 70
     1
 43
0.0
 10
93.5125
 20
-40.62500000000001
 42
0.4142135623731159
 10
93.01250000000001
 20
-41.12500000000001
 10
93.01250000000001
 20
-54.12500000000002
 42
0.4142135623730951
 10
93.5125
 20
-54.62500000000002
 10
106.5125
 20
-54.62500000000002
 42
0.4142135623731159
 10
107.0125
 20
-54.12500000000002
 10
107.0125
 20
-41.12500000000001
 42
0.4142135623730951
 10
106.5125
 20
-40.62500000000001
  0
LWPOLYLINE
  5
232
330
1F
100
AcDbEntity
  8
0
100
AcDbPolyline
 90
        8
 70
     1
 43
0.0
 10
78.72499999999998
 20
-16.02500000000001
 10
78.72499999999998
 20
-3.025000000000009
 42
-0.4142135623730967
 10
79.22499999999998
 20
-2.525000000000009
 10
92.225
 20
-2.525000000000023
 42
-0.4142135623731146
 10
92.72499999999999
 20
-3.025000000000011
 10
92.72500000000002
 20
-16.02500000000001
 42
-0.4142135623731133
 10
92.225
 20
-16.52500000000001
 10
79.22499999999998
 20
-16.52500000000001
 42
-0.4142135623730976
  0
LWPOLYLINE
  5
233
330
1F
100
AcDbEntity
  8
0
100
AcDbPolyline
 90
        8
 70
     1
 43
0.0
 10
198.2875
 20
-59.67500000000002
 42
0.4142135623730222
 10
197.7875
 20
-60.17500000000001
 10
197.7875
 20
-73.17500000000001
 42
0.414213562373121
 10
198.2875
 20
-73.67500000000001
 10
211.2875
 20
-73.67500000000001
 42
0.4142135623730744
 10
211.7875
 20
-73.17500000000001
 10
211.7875
 20
-60.17500000000002
 42
0.4142135623731368
 10
211.2875
 20
-59.67500000000002
  0
LWPOLYLINE
  5
234
330
1F
100
AcDbEntity
  8
0
100
AcDbPolyline
 90
        8
 70
     1
 43
0.0
 10
188.7625
 20
-40.62500000000002
 42
0.4142135623730222
 10
188.2625
 20
-41.12500000000002
 10
188.2625
 20
-54.12500000000003
 42
0.414213562373121
 10
188.7625
 20
-54.62500000000002
 10
201.7625
 20
-54.62500000000002
 42
0.4142135623730744
 10
202.2625
 20
-54.12500000000003
 10
202.2625
 20
-41.12500000000002
 42
0.4142135623731315
 10
201.7625
 20
-40.62500000000002
  0
LWPOLYLINE
  5
235
330
1F
100
AcDbEntity
  8
0
100
AcDbPolyline
 90
        8
 70
     1
 43
0.0
 10
126.85
 20
-21.57500000000002
 42
0.4142135623730847
 10
126.35
 20
-22.07500000000001
 10
126.35
 20
-35.07500000000002
 42
0.4142135623730717
 10
126.85
 20
-35.57500000000003
 10
139.85
 20
-35.57500000000003
 42
0.4142135623731159
 10
140.35
 20
-35.07500000000002
 10
140.35
 20
-22.07500000000002
 42
0.4142135623730951
 10
139.85
 20
-21.57500000000002
  0
LWPOLYLINE
  5
236
330
1F
100
AcDbEntity
  8
0
100
AcDbPolyline
 90
        8
 70
     1
 43
0.0
 10
212.575
 20
-2.525000000000026
 42
0.4142135623730463
 10
212.075
 20
-3.025000000000025
 10
212.075
 20
-16.02500000000002
 42
0.4142135623731237
 10
212.575
 20
-16.52500000000002
 10
225.575
 20
-16.52500000000003
 42
0.4142135623730755
 10
226.075
 20
-16.02500000000002
 10
226.075
 20
-3.025000000000027
 42
0.4142135623731328
 10
225.575
 20
-2.525000000000027
  0
LWPOLYLINE
  5
237
330
1F
100
AcDbEntity
  8
0
100
AcDbPolyline
 90
        8
 70
     1
 43
0.0
 10
55.4125
 20
-40.625
 42
0.4142135623730951
 10
54.9125
 20
-41.125
 10
54.9125
 20
-54.12500000000001
 42
0.4142135623730951
 10
55.4125
 20
-54.62500000000001
 10
68.41249999999999
 20
-54.62500000000001
 42
0.4142135623730951
 10
68.91249999999999
 20
-54.12500000000001
 10
68.91249999999999
 20
-41.125
 42
0.4142135623730951
 10
68.41249999999999
 20
-40.625
  0
LWPOLYLINE
  5
238
330
1F
100
AcDbEntity
  8
0
100
AcDbPolyline
 90
        8
 70
     1
 43
0.0
 10
88.75
 20
-21.57500000000002
 42
0.4142135623731106
 10
88.25000000000001
 20
-22.07500000000001
 10
88.25000000000001
 20
-35.07500000000002
 42
0.4142135623731133
 10
88.75
 20
-35.57500000000003
 10
101.75
 20
-35.57500000000003
 42
0.4142135623730925
 10
102.25
 20
-35.07500000000002
 10
102.25
 20
-22.07500000000001
 42
0.4142135623730951
 10
101.75
 20
-21.57500000000002
  0
LWPOLYLINE
  5
239
330
1F
100
AcDbEntity
  8
0
100
AcDbPolyline
 90
        8
 70
     1
 43
0.0
 10
112.5625
 20
-40.62500000000001
 42
0.4142135623731159
 10
112.0625
 20
-41.12500000000001
 10
112.0625
 20
-54.12500000000002
 42
0.4142135623730951
 10
112.5625
 20
-54.62500000000002
 10
125.5625
 20
-54.62500000000002
 42
0.4142135623731002
 10
126.0625
 20
-54.12500000000002
 10
126.0625
 20
-41.12500000000001
 42
0.4142135623730744
 10
125.5625
 20
-40.62500000000001
  0
LWPOLYLINE
  5
240
330
1F
100
AcDbEntity
  8
0
100
AcDbPolyline
 90
        8
 70
     1
 43
0.0
 10
154.6375
 20
-60.17500000000001
 42
0.4142135623731106
 10
154.1375
 20
-59.67500000000004
 10
141.1375
 20
-59.67500000000001
 42
0.414213562373121
 10
140.6375
 20
-60.17500000000001
 10
140.6375
 20
-73.17499999999999
 42
0.4142135623730951
 10
141.1375
 20
-73.67499999999999
 10
154.1375
 20
-73.67499999999999
 42
0.4142135623731159
 10
154.6375
 20
-73.17499999999999
  0
LWPOLYLINE
  5
241
330
1F
100
AcDbEntity
  8
0
100
AcDbPolyline
 90
        8
 70
     1
 43
0.0
 10
116.5375
 20
-60.17500000000001
 42
0.414213562373069
 10
116.0375
 20
-59.675
 10
103.0375
 20
-59.67500000000001
 42
0.414213562373121
 10
102.5375
 20
-60.17500000000001
 10
102.5375
 20
-73.17499999999999
 42
0.4142135623730951
 10
103.0375
 20
-73.67499999999999
 10
116.0375
 20
-73.67499999999999
 42
0.4142135623731002
 10
116.5375
 20
-73.17499999999999
  0
LWPOLYLINE
  5
242
330
1F
100
AcDbEntity
  8
0
100
AcDbPolyline
 90
        8
 70
     1
 43
0.0
 10
257.81875
 20
-40.62500000000002
 42
0.4142135623730744
 10
257.31875
 20
-41.12500000000003
 10
257.31875
 20
-54.12500000000004
 42
0.4142135623731315
 10
257.81875
 20
-54.62500000000003
 10
270.81875
 20
-54.62500000000003
 42
0.4142135623730222
 10
271.31875
 20
-54.12500000000004
 10
271.31875
 20
-41.12500000000003
 42
0.414213562373121
 10
270.81875
 20
-40.62500000000003
  0
LWPOLYLINE
  5
243
330
1F
100
AcDbEntity
  8
0
100
AcDbPolyline
 90
        8
 70
     1
 43
0.0
 10
179.2375
 20
-59.67500000000002
 42
0.4142135623730744
 10
178.7374999999999
 20
-60.17500000000001
 10
178.7375
 20
-73.17500000000001
 42
0.4142135623731315
 10
179.2375
 20
-73.67500000000001
 10
192.2375
 20
-73.67500000000001
 42
0.4142135623730222
 10
192.7375
 20
-73.17500000000001
 10
192.7375
 20
-60.17500000000001
 42
0.4142135623731263
 10
192.2375
 20
-59.67500000000002
  0
LWPOLYLINE
  5
244
330
1F
100
AcDbEntity
  8
0
100
AcDbPolyline
 90
        8
 70
     1
 43
0.0
 10
248.88075
 20
-56.12500000000004
 42
0.4142135623731368
 10
249.38075
 20
-56.62500000000004
 10
255.38075
 20
-56.62500000000004
 42
0.4142135623730744
 10
255.88075
 20
-56.12500000000004
 10
255.88075
 20
-39.12500000000003
 42
0.4142135623731341
 10
255.38075
 20
-38.62500000000003
 10
249.38075
 20
-38.62500000000003
 42
0.4142135623730822
 10
248.88075
 20
-39.12500000000003
  0
LWPOLYLINE
  5
245
330
1F
100
AcDbEntity
  8
0
100
AcDbPolyline
 90
        8
 70
     1
 43
0.0
 10
50.15
 20
-35.07500000000001
 10
50.15000000000001
 20
-22.07500000000001
 42
-0.4142135623730951
 10
50.65000000000001
 20
-21.57500000000001
 10
63.65000000000001
 20
-21.57500000000001
 42
-0.4142135623731029
 10
64.15
 20
-22.07500000000001
 10
64.14999999999999
 20
-35.07500000000001
 42
-0.4142135623730976
 10
63.65000000000001
 20
-35.57500000000002
 10
50.65000000000001
 20
-35.57500000000002
 42
-0.4142135623730951
  0
LWPOLYLINE
  5
246
330
1F
100
AcDbEntity
  8
0
100
AcDbPolyline
 90
        8
 70
     1
 43
0.0
 10
22.075
 20
-2.525000000000002
 42
0.4142135623730954
 10
21.57500000000001
 20
-3.025000000000002
 10
21.575
 20
-16.025
 42
0.4142135623730965
 10
22.075
 20
-16.525
 10
35.075
 20
-16.525
 42
0.4142135623730951
 10
35.57500000000001
 20
-16.025
 10
35.57500000000001
 20
-3.025000000000004
 42
0.4142135623730958
 10
35.075
 20
-2.525000000000004
  0
LWPOLYLINE
  5
247
330
1F
100
AcDbEntity
  8
0
100
AcDbPolyline
 90
        8
 70
     1
 43
0.0
 10
155.425
 20
-2.525000000000019
 42
0.4142135623730744
 10
154.925
 20
-3.025000000000019
 10
154.925
 20
-16.02500000000001
 42
0.4142135623730755
 10
155.425
 20
-16.52500000000001
 10
168.425
 20
-16.52500000000002
 42
0.4142135623730456
 10
168.925
 20
-16.02500000000002
 10
168.925
 20
-3.02500000000002
 42
0.4142135623731015
 10
168.425
 20
-2.52500000000001
  0
LWPOLYLINE
  5
248
330
1F
100
AcDbEntity
  8
0
100
AcDbPolyline
 90
        8
 70
     1
 43
0.0
 10
184.0
 20
-21.57500000000003
 42
0.4142135623730822
 10
183.5
 20
-22.07500000000002
 10
183.5
 20
-35.07500000000002
 42
0.4142135623731315
 10
184.0
 20
-35.57500000000003
 10
197.0
 20
-35.57500000000003
 42
0.414213562373121
 10
197.5
 20
-35.07500000000002
 10
197.5
 20
-22.07500000000003
 42
0.4142135623730976
 10
197.0
 20
-21.57500000000003
  0
LWPOLYLINE
  5
249
330
1F
100
AcDbEntity
  8
0
100
AcDbPolyline
 90
        8
 70
     1
 43
0.0
 10
7.787499999999996
 20
-21.57500000000001
 42
0.4142135623730951
 10
7.287499999999998
 20
-22.075
 10
7.287499999999994
 20
-35.075
 42
0.4142135623730951
 10
7.787499999999995
 20
-35.57500000000001
 10
20.7875
 20
-35.57500000000001
 42
0.4142135623731002
 10
21.2875
 20
-35.075
 10
21.2875
 20
-22.075
 42
0.4142135623730951
 10
20.7875
 20
-21.57500000000001
  0
LWPOLYLINE
  5
250
330
1F
100
AcDbEntity
  8
0
100
AcDbPolyline
 90
        8
 70
     1
 43
0.0
 10
14.93124999999999
 20
-59.675
 42
0.4142135623730976
 10
14.43124999999999
 20
-60.175
 10
14.43124999999999
 20
-73.17499999999999
 42
0.4142135623730951
 10
14.93124999999999
 20
-73.67499999999998
 10
27.93124999999999
 20
-73.67499999999998
 42
0.4142135623730951
 10
28.43124999999999
 20
-73.17499999999999
 10
28.43124999999999
 20
-60.175
 42
0.4142135623730822
 10
27.93124999999999
 20
-59.675
  0
ENDSEC
  0
SECTION
  2
OBJECTS
  0
DICTIONARY
  5
C
330
0
100
AcDbDictionary
281
     1
  3
ACAD_BACKGROUND
350
1005B
  3
ACAD_CIP_PREVIOUS_PRODUCT_INFO
350
1005A
  3
ACAD_COLOR
350
10036
  3
ACAD_DETAILVIEWSTYLE
350
10051
  3
ACAD_GROUP
350
D
  3
ACAD_LAST_SAVED_VERSION_INFO
350
1005F
  3
ACAD_LAYOUT
350
10037
  3
ACAD_MATERIAL
350
10004
  3
ACAD_MLEADERSTYLE
350
1004D
  3
ACAD_MLINESTYLE
350
17
  3
ACAD_PLOTSETTINGS
350
10054
  3
ACAD_PLOTSTYLENAME
350
10002
  3
ACAD_SCALELIST
350
1003B
  3
ACAD_SECTIONVIEWSTYLE
350
1004F
  3
ACAD_TABLESTYLE
350
10038
  3
ACAD_VISUALSTYLE
350
1001D
  3
ACDB_RECOMPOSE_DATA
350
1008E
  3
AcDbVariableDictionary
350
1006B
  3
AcDsDecomposeData
350
10094
  0
DICTIONARY
  5
10065
330
2
100
AcDbDictionary
280
     1
281
     1
  3
ACAD_LAYERSTATES
360
10066
  0
DICTIONARY
  5
10060
330
50
100
AcDbDictionary
280
     1
281
     1
  3
ADSK_XREC_LAYER_RECONCILED
360
10061
  0
DICTIONARY
  5
1005B
102
{ACAD_REACTORS
330
C
102
}
330
C
100
AcDbDictionary
281
     1
  0
XRECORD
  5
1005A
102
{ACAD_REACTORS
330
C
102
}
330
C
100
AcDbXrecord
280
     1
300
ACDMAC
300
2025
300

  0
DICTIONARY
  5
10036
102
{ACAD_REACTORS
330
C
102
}
330
C
100
AcDbDictionary
281
     1
  0
DICTIONARY
  5
10051
102
{ACAD_REACTORS
330
C
102
}
330
C
100
AcDbDictionary
281
     1
  3
Imperial24
350
10052
  0
DICTIONARY
  5
D
330
C
100
AcDbDictionary
281
     1
  0
XRECORD
  5
1005F
102
{ACAD_REACTORS
330
C
102
}
330
C
100
AcDbXrecord
280
     1
300
{867D5AB3-330E-D44A-A1EF-C6F453342E83}
301
{0F4FA204-1A8D-354D-97ED-1A3949CF1BCE}
302
{867D5AB3-330E-D44A-A1EF-C6F453342E83}
303
/Users/junkibeom/Downloads/flash_plate.dxf
  0
DICTIONARY
  5
10037
102
{ACAD_REACTORS
330
C
102
}
330
C
100
AcDbDictionary
281
     1
  3
Model
350
10055
  3
1
350
10056
  0
DICTIONARY
  5
10004
102
{ACAD_REACTORS
330
C
102
}
330
C
100
AcDbDictionary
281
     1
  3
ByBlock
350
1000D
  3
ByLayer
350
10005
  3
Global
350
10015
  0
DICTIONARY
  5
1004D
102
{ACAD_REACTORS
330
C
102
}
330
C
100
AcDbDictionary
281
     1
  3
Standard
350
1004E
  0
DICTIONARY
  5
17
330
C
100
AcDbDictionary
281
     1
  3
Standard
350
1003A
  0
DICTIONARY
  5
10054
102
{ACAD_REACTORS
330
C
102
}
330
C
100
AcDbDictionary
281
     1
  0
ACDBDICTIONARYWDFLT
  5
10002
102
{ACAD_REACTORS
330
C
102
}
330
C
100
AcDbDictionary
281
     1
  3
Normal
350
10003
100
AcDbDictionaryWithDefault
340
10003
  0
DICTIONARY
  5
1003B
102
{ACAD_REACTORS
330
C
102
}
330
C
100
AcDbDictionary
281
     1
  3
A0
350
1003C
  3
A1
350
1003D
  3
A2
350
1003E
  3
A3
350
1003F
  3
A4
350
10040
  3
A5
350
10041
  3
A6
350
10042
  3
A7
350
10043
  3
A8
350
10044
  3
A9
350
10045
  3
B0
350
10046
  3
B1
350
10047
  3
B2
350
10048
  3
B3
350
10049
  3
B4
350
1004A
  3
B5
350
1004B
  3
B6
350
1004C
  0
DICTIONARY
  5
1004F
102
{ACAD_REACTORS
330
C
102
}
330
C
100
AcDbDictionary
281
     1
  3
Imperial24
350
10050
  0
DICTIONARY
  5
10038
102
{ACAD_REACTORS
330
C
102
}
330
C
100
AcDbDictionary
281
     1
  3
Standard
350
10039
  0
DICTIONARY
  5
1001D
102
{ACAD_REACTORS
330
C
102
}
330
C
100
AcDbDictionary
281
     1
  3
2dWireframe
350
10023
  3
Basic
350
10022
  3
Brighten
350
10029
  3
ColorChange
350
1002D
  3
Conceptual
350
10026
  3
Dim
350
10028
  3
EdgeColorOff
350
10035
  3
Facepattern
350
1002C
  3
Flat
350
1001E
  3
FlatWithEdges
350
1001F
  3
Gouraud
350
10020
  3
GouraudWithEdges
350
10021
  3
Hidden
350
10025
  3
JitterOff
350
10033
  3
Linepattern
350
1002B
  3
OverhangOff
350
10034
  3
Realistic
350
10027
  3
Shaded
350
10032
  3
Shaded with edges
350
10031
  3
Shades of Gray
350
1002E
  3
Sketchy
350
1002F
  3
Thicken
350
1002A
  3
Wireframe
350
10024
  3
X-Ray
350
10030
  0
XRECORD
  5
1008E
102
{ACAD_REACTORS
330
C
102
}
330
C
100
AcDbXrecord
280
     1
 90
        1
330
10039
  0
DICTIONARY
  5
1006B
102
{ACAD_REACTORS
330
C
102
}
330
C
100
AcDbDictionary
281
     1
  3
CANNOSCALE
350
10071
  3
CMLEADERSTYLE
350
1006D
  3
CTABLESTYLE
350
1006C
  3
CVIEWDETAILSTYLE
350
1006E
  3
CVIEWSECTIONSTYLE
350
1006F
  3
LAYEREVAL
350
10073
  3
LAYERNOTIFY
350
10074
  3
LIGHTINGUNITS
350
10072
  3
MSLTSCALE
350
10070
  0
DICTIONARY
  5
10094
102
{ACAD_REACTORS
330
C
102
}
330
C
100
AcDbDictionary
281
     1
  3
AcDsRecords
350
10096
  3
AcDsSchemas
350
10095
1001
ACAD
1070
     2
  0
DICTIONARY
  5
10066
102
{ACAD_REACTORS
330
10065
102
}
330
10065
100
AcDbDictionary
281
     1
  0
XRECORD
  5
10061
102
{ACAD_REACTORS
330
10060
102
}
330
10060
100
AcDbXrecord
280
     1
290
     1
  0
ACDBDETAILVIEWSTYLE
  5
10052
102
{ACAD_XDICTIONARY
360
10099
102
}
102
{ACAD_REACTORS
330
10051
102
}
330
10051
100
AcDbModelDocViewStyle
 70
     0
  3
Imperial24
290
     0
100
AcDbDetailViewStyle
 70
     0
 71
     0
 90
        3
 71
     1
340
11
 62
   256
 40
0.24
340
0
 62
   256
 40
0.24
300

 40
0.36
280
     3
 71
     2
340
10001
 90
       25
 62
   256
 71
     3
340
11
 62
   256
 40
0.24
 90
        1
 40
0.75
 90
        1
300
%<\AcVar ViewType \f "%tc1">% %<\AcVar ViewDetailId>%\PSCALE %<\AcVar ViewScale \f "%sn">%
 71
     4
340
10001
 90
       25
 62
   256
340
10001
 90
       25
 62
   256
280
     0
  0
LAYOUT
  5
10055
102
{ACAD_REACTORS
330
10037
102
}
330
10037
100
AcDbPlotSettings
  1

  2

  4

  6

 40
0.0
 41
0.0
 42
0.0
 43
0.0
 44
0.0
 45
0.0
 46
0.0
 47
0.0
 48
0.0
 49
0.0
140
0.0
141
0.0
142
1.0
143
1.0
 70
  1712
 72
     0
 73
     0
 74
     0
  7

 75
     0
147
1.0
 76
     0
 77
     2
 78
   300
148
0.0
149
0.0
100
AcDbLayout
  1
Model
 70
     1
 71
     0
 10
0.0
 20
0.0
 11
12.0
 21
9.0
 12
0.0
 22
0.0
 32
0.0
 14
0.0
 24
0.0
 34
0.0
 15
0.0
 25
0.0
 35
0.0
146
0.0
 13
0.0
 23
0.0
 33
0.0
 16
1.0
 26
0.0
 36
0.0
 17
0.0
 27
1.0
 37
0.0
 76
     0
330
1F
331
10059
  0
LAYOUT
  5
10056
102
{ACAD_REACTORS
330
10037
102
}
330
10037
100
AcDbPlotSettings
  1

  2

  4

  6

 40
0.0
 41
0.0
 42
0.0
 43
0.0
 44
0.0
 45
0.0
 46
0.0
 47
0.0
 48
0.0
 49
0.0
140
0.0
141
0.0
142
1.0
143
1.0
 70
   688
 72
     0
 73
     0
 74
     5
  7

 75
    16
147
1.0
 76
     0
 77
     2
 78
   300
148
0.0
149
0.0
100
AcDbLayout
  1
1
 70
     1
 71
     1
 10
0.0
 20
0.0
 11
12.0
 21
9.0
 12
0.0
 22
0.0
 32
0.0
 14
1.000000000000000E+20
 24
1.000000000000000E+20
 34
1.000000000000000E+20
 15
-1.000000000000000E+20
 25
-1.000000000000000E+20
 35
-1.000000000000000E+20
146
0.0
 13
0.0
 23
0.0
 33
0.0
 16
1.0
 26
0.0
 36
0.0
 17
0.0
 27
1.0
 37
0.0
 76
     0
330
1B
  0
MATERIAL
  5
1000D
102
{ACAD_XDICTIONARY
360
1000E
102
}
102
{ACAD_REACTORS
330
10004
102
}
330
10004
100
AcDbMaterial
  1
ByBlock
 72
     0
 43
0.0008202099737533
 43
0.0
 43
0.0
 43
0.0
 43
0.0
 43
0.0008202099737533
 43
0.0
 43
0.0
 43
0.0
 43
0.0
 43
1.0
 43
0.0
 43
0.0
 43
0.0
 43
0.0
 43
1.0
 77
     0
 47
0.0008202099737533
 47
0.0
 47
0.0
 47
0.0
 47
0.0
 47
0.0008202099737533
 47
0.0
 47
0.0
 47
0.0
 47
0.0
 47
1.0
 47
0.0
 47
0.0
 47
0.0
 47
0.0
 47
1.0
171
     0
 49
0.0008202099737533
 49
0.0
 49
0.0
 49
0.0
 49
0.0
 49
0.0008202099737533
 49
0.0
 49
0.0
 49
0.0
 49
0.0
 49
1.0
 49
0.0
 49
0.0
 49
0.0
 49
0.0
 49
1.0
175
     0
142
0.0008202099737533
142
0.0
142
0.0
142
0.0
142
0.0
142
0.0008202099737533
142
0.0
142
0.0
142
0.0
142
0.0
142
1.0
142
0.0
142
0.0
142
0.0
142
0.0
142
1.0
179
     0
144
0.0008202099737533
144
0.0
144
0.0
144
0.0
144
0.0
144
0.0008202099737533
144
0.0
144
0.0
144
0.0
144
0.0
144
1.0
144
0.0
144
0.0
144
0.0
144
0.0
144
1.0
147
0.0008202099737533
147
0.0
147
0.0
147
0.0
147
0.0
147
0.0008202099737533
147
0.0
147
0.0
147
0.0
147
0.0
147
1.0
147
0.0
147
0.0
147
0.0
147
0.0
147
1.0
  0
MATERIAL
  5
10005
102
{ACAD_XDICTIONARY
360
10006
102
}
102
{ACAD_REACTORS
330
10004
102
}
330
10004
100
AcDbMaterial
  1
ByLayer
 72
     0
 43
0.0008202099737533
 43
0.0
 43
0.0
 43
0.0
 43
0.0
 43
0.0008202099737533
 43
0.0
 43
0.0
 43
0.0
 43
0.0
 43
1.0
 43
0.0
 43
0.0
 43
0.0
 43
0.0
 43
1.0
 77
     0
 47
0.0008202099737533
 47
0.0
 47
0.0
 47
0.0
 47
0.0
 47
0.0008202099737533
 47
0.0
 47
0.0
 47
0.0
 47
0.0
 47
1.0
 47
0.0
 47
0.0
 47
0.0
 47
0.0
 47
1.0
171
     0
 49
0.0008202099737533
 49
0.0
 49
0.0
 49
0.0
 49
0.0
 49
0.0008202099737533
 49
0.0
 49
0.0
 49
0.0
 49
0.0
 49
1.0
 49
0.0
 49
0.0
 49
0.0
 49
0.0
 49
1.0
175
     0
142
0.0008202099737533
142
0.0
142
0.0
142
0.0
142
0.0
142
0.0008202099737533
142
0.0
142
0.0
142
0.0
142
0.0
142
1.0
142
0.0
142
0.0
142
0.0
142
0.0
142
1.0
179
     0
144
0.0008202099737533
144
0.0
144
0.0
144
0.0
144
0.0
144
0.0008202099737533
144
0.0
144
0.0
144
0.0
144
0.0
144
1.0
144
0.0
144
0.0
144
0.0
144
0.0
144
1.0
147
0.0008202099737533
147
0.0
147
0.0
147
0.0
147
0.0
147
0.0008202099737533
147
0.0
147
0.0
147
0.0
147
0.0
147
1.0
147
0.0
147
0.0
147
0.0
147
0.0
147
1.0
  0
MATERIAL
  5
10015
102
{ACAD_XDICTIONARY
360
10016
102
}
102
{ACAD_REACTORS
330
10004
102
}
330
10004
100
AcDbMaterial
  1
Global
 72
     0
 43
0.0008202099737533
 43
0.0
 43
0.0
 43
0.0
 43
0.0
 43
0.0008202099737533
 43
0.0
 43
0.0
 43
0.0
 43
0.0
 43
1.0
 43
0.0
 43
0.0
 43
0.0
 43
0.0
 43
1.0
 77
     0
 47
0.0008202099737533
 47
0.0
 47
0.0
 47
0.0
 47
0.0
 47
0.0008202099737533
 47
0.0
 47
0.0
 47
0.0
 47
0.0
 47
1.0
 47
0.0
 47
0.0
 47
0.0
 47
0.0
 47
1.0
171
     0
 49
0.0008202099737533
 49
0.0
 49
0.0
 49
0.0
 49
0.0
 49
0.0008202099737533
 49
0.0
 49
0.0
 49
0.0
 49
0.0
 49
1.0
 49
0.0
 49
0.0
 49
0.0
 49
0.0
 49
1.0
175
     0
142
0.0008202099737533
142
0.0
142
0.0
142
0.0
142
0.0
142
0.0008202099737533
142
0.0
142
0.0
142
0.0
142
0.0
142
1.0
142
0.0
142
0.0
142
0.0
142
0.0
142
1.0
179
     0
144
0.0008202099737533
144
0.0
144
0.0
144
0.0
144
0.0
144
0.0008202099737533
144
0.0
144
0.0
144
0.0
144
0.0
144
1.0
144
0.0
144
0.0
144
0.0
144
0.0
144
1.0
147
0.0008202099737533
147
0.0
147
0.0
147
0.0
147
0.0
147
0.0008202099737533
147
0.0
147
0.0
147
0.0
147
0.0
147
1.0
147
0.0
147
0.0
147
0.0
147
0.0
147
1.0
  0
MLEADERSTYLE
  5
1004E
102
{ACAD_REACTORS
330
1004D
102
}
330
1004D
100
AcDbMLeaderStyle
179
     2
170
     2
171
     1
172
     0
 90
        2
 40
0.0
 41
0.0
173
     1
 91
-1056964608
340
14
 92
       -2
290
     1
 42
0.09
291
     1
 43
0.36
  3
Standard
 44
0.18
300

342
11
174
     1
178
     6
175
     1
176
     0
 93
-1056964608
 45
0.18
292
     0
297
     0
 46
0.18
 94
-1056964608
 47
1.0
 49
1.0
140
1.0
293
     1
141
0.0
294
     1
177
     0
142
1.0
295
     0
296
     0
143
0.125
271
     0
272
     9
273
     9
298
     0
  0
MLINESTYLE
  5
1003A
102
{ACAD_REACTORS
330
17
102
}
330
17
100
AcDbMlineStyle
  2
STANDARD
 70
     0
  3

 62
   256
 51
90.0
 52
90.0
 71
     2
 49
0.5
 62
   256
  6
BYLAYER
 49
-0.5
 62
   256
  6
BYLAYER
  0
ACDBPLACEHOLDER
  5
10003
102
{ACAD_REACTORS
330
10002
102
}
330
10002
  0
SCALE
  5
1003C
102
{ACAD_REACTORS
330
1003B
102
}
330
1003B
100
AcDbScale
 70
     0
300
1:1
140
1.0
141
1.0
290
     1
  0
SCALE
  5
1003D
102
{ACAD_REACTORS
330
1003B
102
}
330
1003B
100
AcDbScale
 70
     0
300
1/128" = 1'-0"
140
0.0078125
141
12.0
290
     0
  0
SCALE
  5
1003E
102
{ACAD_REACTORS
330
1003B
102
}
330
1003B
100
AcDbScale
 70
     0
300
1/64" = 1'-0"
140
0.015625
141
12.0
290
     0
  0
SCALE
  5
1003F
102
{ACAD_REACTORS
330
1003B
102
}
330
1003B
100
AcDbScale
 70
     0
300
1/32" = 1'-0"
140
0.03125
141
12.0
290
     0
  0
SCALE
  5
10040
102
{ACAD_REACTORS
330
1003B
102
}
330
1003B
100
AcDbScale
 70
     0
300
1/16" = 1'-0"
140
0.0625
141
12.0
290
     0
  0
SCALE
  5
10041
102
{ACAD_REACTORS
330
1003B
102
}
330
1003B
100
AcDbScale
 70
     0
300
3/32" = 1'-0"
140
0.09375
141
12.0
290
     0
  0
SCALE
  5
10042
102
{ACAD_REACTORS
330
1003B
102
}
330
1003B
100
AcDbScale
 70
     0
300
1/8" = 1'-0"
140
0.125
141
12.0
290
     0
  0
SCALE
  5
10043
102
{ACAD_REACTORS
330
1003B
102
}
330
1003B
100
AcDbScale
 70
     0
300
3/16" = 1'-0"
140
0.1875
141
12.0
290
     0
  0
SCALE
  5
10044
102
{ACAD_REACTORS
330
1003B
102
}
330
1003B
100
AcDbScale
 70
     0
300
1/4" = 1'-0"
140
0.25
141
12.0
290
     0
  0
SCALE
  5
10045
102
{ACAD_REACTORS
330
1003B
102
}
330
1003B
100
AcDbScale
 70
     0
300
3/8" = 1'-0"
140
0.375
141
12.0
290
     0
  0
SCALE
  5
10046
102
{ACAD_REACTORS
330
1003B
102
}
330
1003B
100
AcDbScale
 70
     0
300
1/2" = 1'-0"
140
0.5
141
12.0
290
     0
  0
SCALE
  5
10047
102
{ACAD_REACTORS
330
1003B
102
}
330
1003B
100
AcDbScale
 70
     0
300
3/4" = 1'-0"
140
0.75
141
12.0
290
     0
  0
SCALE
  5
10048
102
{ACAD_REACTORS
330
1003B
102
}
330
1003B
100
AcDbScale
 70
     0
300
1" = 1'-0"
140
1.0
141
12.0
290
     0
  0
SCALE
  5
10049
102
{ACAD_REACTORS
330
1003B
102
}
330
1003B
100
AcDbScale
 70
     0
300
1-1/2" = 1'-0"
140
1.5
141
12.0
290
     0
  0
SCALE
  5
1004A
102
{ACAD_REACTORS
330
1003B
102
}
330
1003B
100
AcDbScale
 70
     0
300
3" = 1'-0"
140
3.0
141
12.0
290
     0
  0
SCALE
  5
1004B
102
{ACAD_REACTORS
330
1003B
102
}
330
1003B
100
AcDbScale
 70
     0
300
6" = 1'-0"
140
6.0
141
12.0
290
     0
  0
SCALE
  5
1004C
102
{ACAD_REACTORS
330
1003B
102
}
330
1003B
100
AcDbScale
 70
     0
300
1'-0" = 1'-0"
140
12.0
141
12.0
290
     0
  0
ACDBSECTIONVIEWSTYLE
  5
10050
102
{ACAD_XDICTIONARY
360
10097
102
}
102
{ACAD_REACTORS
330
1004F
102
}
330
1004F
100
AcDbModelDocViewStyle
 70
     0
  3
Imperial24
290
     0
100
AcDbSectionViewStyle
 70
     0
 71
     0
 90
       78
 71
     1
340
11
 62
   256
 40
0.24
340
0
340
0
 62
   256
 40
0.24
300
I, O, Q, S, X, Z
 40
0.48
 90
        3
 40
0.18
 90
        1
 71
     2
340
10001
 90
       25
 62
   256
340
10001
 90
       50
 62
   256
 40
0.24
 40
0.0
 40
0.24
 71
     3
340
11
 62
   256
 40
0.24
 90
        1
 40
0.75
 90
        1
300
%<\AcVar ViewType \f "%tc1">% %<\AcVar ViewSectionStartId>%-%<\AcVar ViewSectionEndId>%\PSCALE %<\AcVar ViewScale \f "%sn">%
 71
     4
 62
   256
 62
   257
300
ANSI31
 40
1.0
 90
        0
290
     0
290
     0
 90
        6
 40
0.0
 40
1.570796326794896
 40
0.2617993877991494
 40
1.308996938995747
 40
-0.2617993877991494
 40
1.832595714594046
  0
TABLESTYLE
  5
10039
102
{ACAD_XDICTIONARY
360
1008C
102
}
102
{ACAD_REACTORS
330
10038
102
}
330
10038
100
AcDbTableStyle
280
     0
  3
Standard
 70
     0
 71
     0
 40
0.06
 41
0.06
280
     0
281
     0
  7
STANDARD
140
0.18
170
     2
 62
     0
 63
     7
283
     0
 90
      512
 91
        0
  1

274
    -2
284
     1
 64
     0
275
    -2
285
     1
 65
     0
276
    -2
286
     1
 66
     0
277
    -2
287
     1
 67
     0
278
    -2
288
     1
 68
     0
279
    -2
289
     1
 69
     0
  7
STANDARD
140
0.25
170
     5
 62
     0
 63
     7
283
     0
 90
      512
 91
        0
  1

274
    -2
284
     1
 64
     0
275
    -2
285
     1
 65
     0
276
    -2
286
     1
 66
     0
277
    -2
287
     1
 67
     0
278
    -2
288
     1
 68
     0
279
    -2
289
     1
 69
     0
  7
STANDARD
140
0.18
170
     5
 62
     0
 63
     7
283
     0
 90
      512
 91
        0
  1

274
    -2
284
     1
 64
     0
275
    -2
285
     1
 65
     0
276
    -2
286
     1
 66
     0
277
    -2
287
     1
 67
     0
278
    -2
288
     1
 68
     0
279
    -2
289
     1
 69
     0
  0
VISUALSTYLE
  5
10023
102
{ACAD_REACTORS
330
1001D
102
}
330
1001D
100
AcDbVisualStyle
  2
2dWireframe
 70
     4
177
     3
291
     0
 70
    58
 90
        0
176
     1
 90
        2
176
     1
 90
        0
176
     1
 90
        0
176
     1
 40
0.6
176
     1
 40
30.0
176
     1
 62
     7
420
 16777215
176
     1
 90
        1
176
     1
 90
        4
176
     1
 62
     7
176
     1
 62
   257
176
     1
 90
        1
176
     1
 90
        1
176
     1
 40
1.0
176
     1
 90
        0
176
     1
 62
   257
176
     1
 40
1.0
176
     1
 90
        1
176
     1
 90
        6
176
     1
 90
        2
176
     1
 62
     7
176
     1
 90
        5
176
     1
 90
        0
176
     1
 90
        0
176
     1
290
     0
176
     1
 90
        1
176
     1
 40
0.0
176
     1
 90
        0
176
     1
290
     1
176
     1
290
     1
176
     1
290
     0
176
     1
290
     0
176
     1
290
     0
176
     1
290
     0
176
     1
290
     0
176
     1
290
     0
176
     1
290
     0
176
     1
 90
       50
176
     1
 40
0.0
176
     1
 40
1.0
176
     1
 90
        0
176
     1
 62
    18
420
        0
176
     1
 90
       50
176
     1
 90
        3
176
     1
 62
     5
420
      255
176
     1
290
     0
176
     1
 90
       50
176
     1
 90
       50
176
     1
 90
       50
176
     1
290
     0
176
     1
 90
       50
176
     1
 62
   256
176
     0
 40
1.0
176
     0
 90
        2
176
     1
  1
strokes_ogs.tif
176
     1
290
     0
176
     1
 40
1.0
176
     1
 40
1.0
176
     1
1001
ACAD
1000
AcDbSavedByObjectVersion
1070
     0
  0
VISUALSTYLE
  5
10022
102
{ACAD_REACTORS
330
1001D
102
}
330
1001D
100
AcDbVisualStyle
  2
Basic
 70
     7
177
     3
291
     1
 70
    58
 90
        1
176
     1
 90
        0
176
     1
 90
        1
176
     1
 90
        0
176
     1
 40
0.6
176
     1
 40
30.0
176
     1
 62
     7
420
 16777215
176
     1
 90
        0
176
     1
 90
        4
176
     1
 62
     7
176
     1
 62
   257
176
     1
 90
        1
176
     1
 90
        1
176
     1
 40
1.0
176
     1
 90
        8
176
     1
 62
     7
176
     1
 40
1.0
176
     1
 90
        1
176
     1
 90
        6
176
     1
 90
        2
176
     1
 62
     7
176
     1
 90
        5
176
     1
 90
        0
176
     1
 90
        0
176
     1
290
     0
176
     1
 90
        1
176
     1
 40
0.0
176
     1
 90
        0
176
     1
290
     0
176
     1
290
     1
176
     1
290
     1
176
     1
290
     0
176
     1
290
     0
176
     1
290
     0
176
     1
290
     0
176
     1
290
     0
176
     1
290
     0
176
     1
 90
       50
176
     1
 40
0.0
176
     1
 40
1.0
176
     1
 90
        0
176
     1
 62
    18
420
        0
176
     1
 90
       50
176
     1
 90
        3
176
     1
 62
     5
420
      255
176
     1
290
     0
176
     1
 90
       50
176
     1
 90
       50
176
     1
 90
       50
176
     1
290
     0
176
     1
 90
       50
176
     1
 62
   256
176
     0
 40
1.0
176
     0
 90
        2
176
     1
  1
strokes_ogs.tif
176
     1
290
     0
176
     1
 40
1.0
176
     1
 40
1.0
176
     1
1001
ACAD
1000
AcDbSavedByObjectVersion
1070
     0
  0
VISUALSTYLE
  5
10029
102
{ACAD_REACTORS
330
1001D
102
}
330
1001D
100
AcDbVisualStyle
  2
Brighten
 70
    12
177
     3
291
     1
 70
    58
 90
        2
176
     1
 90
        2
176
     1
 90
        0
176
     1
 90
        0
176
     1
 40
0.6
176
     1
 40
30.0
176
     1
 62
     7
420
 16777215
176
     1
 90
        1
176
     1
 90
        4
176
     1
 62
     7
176
     1
 62
   257
176
     1
 90
        1
176
     1
 90
        1
176
     1
 40
1.0
176
     1
 90
        8
176
     1
 62
     7
176
     1
 40
1.0
176
     1
 90
        1
176
     1
 90
        6
176
     1
 90
        2
176
     1
 62
     7
176
     1
 90
        5
176
     1
 90
        0
176
     1
 90
        0
176
     1
290
     0
176
     1
 90
        1
176
     1
 40
50.0
176
     1
 90
        0
176
     1
290
     0
176
     1
290
     1
176
     1
290
     1
176
     1
290
     0
176
     1
290
     0
176
     1
290
     0
176
     1
290
     0
176
     1
290
     0
176
     1
290
     0
176
     1
 90
       50
176
     1
 40
0.0
176
     1
 40
1.0
176
     1
 90
        0
176
     1
 62
    18
420
        0
176
     1
 90
       50
176
     1
 90
        3
176
     1
 62
     5
420
      255
176
     1
290
     0
176
     1
 90
       50
176
     1
 90
       50
176
     1
 90
       50
176
     1
290
     0
176
     1
 90
       50
176
     1
 62
   256
176
     0
 40
1.0
176
     0
 90
        2
176
     1
  1
strokes_ogs.tif
176
     1
290
     0
176
     1
 40
1.0
176
     1
 40
1.0
176
     1
1001
ACAD
1000
AcDbSavedByObjectVersion
1070
     0
  0
VISUALSTYLE
  5
1002D
102
{ACAD_REACTORS
330
1001D
102
}
330
1001D
100
AcDbVisualStyle
  2
ColorChange
 70
    16
177
     3
291
     1
 70
    58
 90
        2
176
     1
 90
        2
176
     1
 90
        3
176
     1
 90
        0
176
     1
 40
0.6
176
     1
 40
30.0
176
     1
 62
     8
420
  8421504
176
     1
 90
        1
176
     1
 90
        4
176
     1
 62
     7
176
     1
 62
   257
176
     1
 90
        1
176
     1
 90
        1
176
     1
 40
1.0
176
     1
 90
        8
176
     1
 62
     8
420
  8421504
176
     1
 40
1.0
176
     1
 90
        1
176
     1
 90
        6
176
     1
 90
        2
176
     1
 62
     7
176
     1
 90
        5
176
     1
 90
        0
176
     1
 90
        0
176
     1
290
     0
176
     1
 90
        1
176
     1
 40
0.0
176
     1
 90
        0
176
     1
290
     0
176
     1
290
     1
176
     1
290
     1
176
     1
290
     0
176
     1
290
     0
176
     1
290
     0
176
     1
290
     0
176
     1
290
     0
176
     1
290
     0
176
     1
 90
       50
176
     1
 40
0.0
176
     1
 40
1.0
176
     1
 90
        0
176
     1
 62
    18
420
        0
176
     1
 90
       50
176
     1
 90
        3
176
     1
 62
     5
420
      255
176
     1
290
     0
176
     1
 90
       50
176
     1
 90
       50
176
     1
 90
       50
176
     1
290
     0
176
     1
 90
       50
176
     1
 62
   256
176
     0
 40
1.0
176
     0
 90
        2
176
     1
  1
strokes_ogs.tif
176
     1
290
     0
176
     1
 40
1.0
176
     1
 40
1.0
176
     1
1001
ACAD
1000
AcDbSavedByObjectVersion
1070
     0
  0
VISUALSTYLE
  5
10026
102
{ACAD_REACTORS
330
1001D
102
}
330
1001D
100
AcDbVisualStyle
  2
Conceptual
 70
     9
177
     3
291
     0
 70
    58
 90
        3
176
     1
 90
        2
176
     1
 90
        0
176
     1
 90
        0
176
     1
 40
0.6
176
     1
 40
30.0
176
     1
 62
     7
420
 16777215
176
     1
 90
        2
176
     1
 90
        2
176
     1
 62
     7
176
     1
 62
   257
176
     1
 90
        1
176
     1
 90
        1
176
     1
 40
179.0
176
     1
 90
        8
176
     1
 62
     7
176
     1
 40
1.0
176
     1
 90
        1
176
     1
 90
        6
176
     1
 90
        2
176
     1
 62
     7
176
     1
 90
        3
176
     1
 90
        0
176
     1
 90
        0
176
     1
290
     0
176
     1
 90
        1
176
     1
 40
0.0
176
     1
 90
        0
176
     1
290
     0
176
     1
290
     1
176
     1
290
     1
176
     1
290
     0
176
     1
290
     0
176
     1
290
     0
176
     1
290
     0
176
     1
290
     0
176
     1
290
     0
176
     1
 90
       50
176
     1
 40
0.0
176
     1
 40
1.0
176
     1
 90
        0
176
     1
 62
    18
420
        0
176
     1
 90
       50
176
     1
 90
        3
176
     1
 62
     5
420
      255
176
     1
290
     0
176
     1
 90
       50
176
     1
 90
       50
176
     1
 90
       50
176
     1
290
     0
176
     1
 90
       50
176
     1
 62
   256
176
     0
 40
1.0
176
     0
 90
        2
176
     1
  1
strokes_ogs.tif
176
     1
290
     0
176
     1
 40
1.0
176
     1
 40
1.0
176
     1
1001
ACAD
1000
AcDbSavedByObjectVersion
1070
     0
  0
VISUALSTYLE
  5
10028
102
{ACAD_REACTORS
330
1001D
102
}
330
1001D
100
AcDbVisualStyle
  2
Dim
 70
    11
177
     3
291
     1
 70
    58
 90
        2
176
     1
 90
        2
176
     1
 90
        0
176
     1
 90
        0
176
     1
 40
0.6
176
     1
 40
30.0
176
     1
 62
     7
420
 16777215
176
     1
 90
        1
176
     1
 90
        4
176
     1
 62
     7
176
     1
 62
   257
176
     1
 90
        1
176
     1
 90
        1
176
     1
 40
1.0
176
     1
 90
        8
176
     1
 62
     7
176
     1
 40
1.0
176
     1
 90
        1
176
     1
 90
        6
176
     1
 90
        2
176
     1
 62
     7
176
     1
 90
        5
176
     1
 90
        0
176
     1
 90
        0
176
     1
290
     0
176
     1
 90
        1
176
     1
 40
-50.0
176
     1
 90
        0
176
     1
290
     0
176
     1
290
     1
176
     1
290
     1
176
     1
290
     0
176
     1
290
     0
176
     1
290
     0
176
     1
290
     0
176
     1
290
     0
176
     1
290
     0
176
     1
 90
       50
176
     1
 40
0.0
176
     1
 40
1.0
176
     1
 90
        0
176
     1
 62
    18
420
        0
176
     1
 90
       50
176
     1
 90
        3
176
     1
 62
     5
420
      255
176
     1
290
     0
176
     1
 90
       50
176
     1
 90
       50
176
     1
 90
       50
176
     1
290
     0
176
     1
 90
       50
176
     1
 62
   256
176
     0
 40
1.0
176
     0
 90
        2
176
     1
  1
strokes_ogs.tif
176
     1
290
     0
176
     1
 40
1.0
176
     1
 40
1.0
176
     1
1001
ACAD
1000
AcDbSavedByObjectVersion
1070
     0
  0
VISUALSTYLE
  5
10035
102
{ACAD_REACTORS
330
1001D
102
}
330
1001D
100
AcDbVisualStyle
  2
EdgeColorOff
 70
    22
177
     3
291
     1
 70
    58
 90
        2
176
     0
 90
        2
176
     0
 90
        0
176
     0
 90
        0
176
     0
 40
0.6
176
     0
 40
30.0
176
     0
 62
     7
420
 16777215
176
     0
 90
        1
176
     0
 90
        4
176
     0
 62
     7
176
     0
 62
   257
176
     0
 90
        1
176
     0
 90
        1
176
     0
 40
1.0
176
     0
 90
        8
176
     2
 62
     7
176
     0
 40
1.0
176
     0
 90
        1
176
     0
 90
        6
176
     0
 90
        2
176
     0
 62
     7
176
     0
 90
        5
176
     0
 90
        0
176
     0
 90
        0
176
     0
290
     0
176
     0
 90
        1
176
     0
 40
0.0
176
     0
 90
        0
176
     0
290
     0
176
     1
290
     1
176
     1
290
     1
176
     1
290
     0
176
     1
290
     0
176
     1
290
     0
176
     1
290
     0
176
     1
290
     0
176
     1
290
     0
176
     1
 90
       50
176
     0
 40
0.0
176
     0
 40
1.0
176
     0
 90
        0
176
     0
 62
    18
420
        0
176
     0
 90
       50
176
     0
 90
        3
176
     0
 62
     5
420
      255
176
     0
290
     0
176
     1
 90
       50
176
     0
 90
       50
176
     0
 90
       50
176
     0
290
     0
176
     1
 90
       50
176
     0
 62
   256
176
     0
 40
1.0
176
     0
 90
        2
176
     0
  1
strokes_ogs.tif
176
     0
290
     0
176
     1
 40
1.0
176
     0
 40
1.0
176
     0
1001
ACAD
1000
AcDbSavedByObjectVersion
1070
     0
  0
VISUALSTYLE
  5
1002C
102
{ACAD_REACTORS
330
1001D
102
}
330
1001D
100
AcDbVisualStyle
  2
Facepattern
 70
    15
177
     3
291
     1
 70
    58
 90
        2
176
     1
 90
        2
176
     1
 90
        0
176
     1
 90
        0
176
     1
 40
0.6
176
     1
 40
30.0
176
     1
 62
     7
420
 16777215
176
     1
 90
        1
176
     1
 90
        4
176
     1
 62
     7
176
     1
 62
   257
176
     1
 90
        1
176
     1
 90
        1
176
     1
 40
1.0
176
     1
 90
        8
176
     1
 62
     7
176
     1
 40
1.0
176
     1
 90
        1
176
     1
 90
        6
176
     1
 90
        2
176
     1
 62
     7
176
     1
 90
        5
176
     1
 90
        0
176
     1
 90
        0
176
     1
290
     0
176
     1
 90
        1
176
     1
 40
0.0
176
     1
 90
        0
176
     1
290
     0
176
     1
290
     1
176
     1
290
     1
176
     1
290
     0
176
     1
290
     0
176
     1
290
     0
176
     1
290
     0
176
     1
290
     0
176
     1
290
     0
176
     1
 90
       50
176
     1
 40
0.0
176
     1
 40
1.0
176
     1
 90
        0
176
     1
 62
    18
420
        0
176
     1
 90
       50
176
     1
 90
        3
176
     1
 62
     5
420
      255
176
     1
290
     0
176
     1
 90
       50
176
     1
 90
       50
176
     1
 90
       50
176
     1
290
     0
176
     1
 90
       50
176
     1
 62
   256
176
     0
 40
1.0
176
     0
 90
        2
176
     1
  1
strokes_ogs.tif
176
     1
290
     0
176
     1
 40
1.0
176
     1
 40
1.0
176
     1
1001
ACAD
1000
AcDbSavedByObjectVersion
1070
     0
  0
VISUALSTYLE
  5
1001E
102
{ACAD_REACTORS
330
1001D
102
}
330
1001D
100
AcDbVisualStyle
  2
Flat
 70
     0
177
     3
291
     1
 70
    58
 90
        2
176
     1
 90
        1
176
     1
 90
        1
176
     1
 90
        2
176
     1
 40
0.6
176
     1
 40
30.0
176
     1
 62
     7
420
 16777215
176
     1
 90
        0
176
     1
 90
        0
176
     1
 62
     7
176
     1
 62
   257
176
     1
 90
        1
176
     1
 90
        1
176
     1
 40
1.0
176
     1
 90
        8
176
     1
 62
     7
176
     1
 40
1.0
176
     1
 90
        1
176
     1
 90
        6
176
     1
 90
        2
176
     1
 62
     7
176
     1
 90
        5
176
     1
 90
        0
176
     1
 90
        0
176
     1
290
     0
176
     1
 90
       13
176
     1
 40
0.0
176
     1
 90
        0
176
     1
290
     0
176
     1
290
     1
176
     1
290
     1
176
     1
290
     0
176
     1
290
     0
176
     1
290
     0
176
     1
290
     0
176
     1
290
     0
176
     1
290
     0
176
     1
 90
       50
176
     1
 40
0.0
176
     1
 40
1.0
176
     1
 90
        0
176
     1
 62
    18
420
        0
176
     1
 90
       50
176
     1
 90
        3
176
     1
 62
     5
420
      255
176
     1
290
     0
176
     1
 90
       50
176
     1
 90
       50
176
     1
 90
       50
176
     1
290
     0
176
     1
 90
       50
176
     1
 62
   256
176
     0
 40
1.0
176
     0
 90
        2
176
     1
  1
strokes_ogs.tif
176
     1
290
     0
176
     1
 40
1.0
176
     1
 40
1.0
176
     1
1001
ACAD
1000
AcDbSavedByObjectVersion
1070
     0
  0
VISUALSTYLE
  5
1001F
102
{ACAD_REACTORS
330
1001D
102
}
330
1001D
100
AcDbVisualStyle
  2
FlatWithEdges
 70
     1
177
     3
291
     1
 70
    58
 90
        2
176
     1
 90
        1
176
     1
 90
        1
176
     1
 90
        2
176
     1
 40
0.6
176
     1
 40
30.0
176
     1
 62
     7
420
 16777215
176
     1
 90
        1
176
     1
 90
        0
176
     1
 62
     7
176
     1
 62
   257
176
     1
 90
        1
176
     1
 90
        1
176
     1
 40
1.0
176
     1
 90
        0
176
     1
 62
   257
176
     1
 40
1.0
176
     1
 90
        1
176
     1
 90
        6
176
     1
 90
        2
176
     1
 62
     7
176
     1
 90
        5
176
     1
 90
        0
176
     1
 90
        0
176
     1
290
     0
176
     1
 90
       13
176
     1
 40
0.0
176
     1
 90
        0
176
     1
290
     0
176
     1
290
     1
176
     1
290
     1
176
     1
290
     0
176
     1
290
     0
176
     1
290
     0
176
     1
290
     0
176
     1
290
     0
176
     1
290
     0
176
     1
 90
       50
176
     1
 40
0.0
176
     1
 40
1.0
176
     1
 90
        0
176
     1
 62
    18
420
        0
176
     1
 90
       50
176
     1
 90
        3
176
     1
 62
     5
420
      255
176
     1
290
     0
176
     1
 90
       50
176
     1
 90
       50
176
     1
 90
       50
176
     1
290
     0
176
     1
 90
       50
176
     1
 62
   256
176
     0
 40
1.0
176
     0
 90
        2
176
     1
  1
strokes_ogs.tif
176
     1
290
     0
176
     1
 40
1.0
176
     1
 40
1.0
176
     1
1001
ACAD
1000
AcDbSavedByObjectVersion
1070
     0
  0
VISUALSTYLE
  5
10020
102
{ACAD_REACTORS
330
1001D
102
}
330
1001D
100
AcDbVisualStyle
  2
Gouraud
 70
     2
177
     3
291
     1
 70
    58
 90
        2
176
     1
 90
        2
176
     1
 90
        1
176
     1
 90
        2
176
     1
 40
0.6
176
     1
 40
30.0
176
     1
 62
     7
420
 16777215
176
     1
 90
        0
176
     1
 90
        0
176
     1
 62
     7
176
     1
 62
   257
176
     1
 90
        1
176
     1
 90
        1
176
     1
 40
1.0
176
     1
 90
        0
176
     1
 62
     7
176
     1
 40
1.0
176
     1
 90
        1
176
     1
 90
        6
176
     1
 90
        2
176
     1
 62
     7
176
     1
 90
        5
176
     1
 90
        0
176
     1
 90
        0
176
     1
290
     0
176
     1
 90
       13
176
     1
 40
0.0
176
     1
 90
        0
176
     1
290
     0
176
     1
290
     1
176
     1
290
     1
176
     1
290
     0
176
     1
290
     0
176
     1
290
     0
176
     1
290
     0
176
     1
290
     0
176
     1
290
     0
176
     1
 90
       50
176
     1
 40
0.0
176
     1
 40
1.0
176
     1
 90
        0
176
     1
 62
    18
420
        0
176
     1
 90
       50
176
     1
 90
        3
176
     1
 62
     5
420
      255
176
     1
290
     0
176
     1
 90
       50
176
     1
 90
       50
176
     1
 90
       50
176
     1
290
     0
176
     1
 90
       50
176
     1
 62
   256
176
     0
 40
1.0
176
     0
 90
        2
176
     1
  1
strokes_ogs.tif
176
     1
290
     0
176
     1
 40
1.0
176
     1
 40
1.0
176
     1
1001
ACAD
1000
AcDbSavedByObjectVersion
1070
     0
  0
VISUALSTYLE
  5
10021
102
{ACAD_REACTORS
330
1001D
102
}
330
1001D
100
AcDbVisualStyle
  2
GouraudWithEdges
 70
     3
177
     3
291
     1
 70
    58
 90
        2
176
     1
 90
        2
176
     1
 90
        1
176
     1
 90
        2
176
     1
 40
0.6
176
     1
 40
30.0
176
     1
 62
     7
420
 16777215
176
     1
 90
        1
176
     1
 90
        0
176
     1
 62
     7
176
     1
 62
   257
176
     1
 90
        1
176
     1
 90
        1
176
     1
 40
1.0
176
     1
 90
        0
176
     1
 62
   257
176
     1
 40
1.0
176
     1
 90
        1
176
     1
 90
        6
176
     1
 90
        2
176
     1
 62
     7
176
     1
 90
        5
176
     1
 90
        0
176
     1
 90
        0
176
     1
290
     0
176
     1
 90
       13
176
     1
 40
0.0
176
     1
 90
        0
176
     1
290
     0
176
     1
290
     1
176
     1
290
     1
176
     1
290
     0
176
     1
290
     0
176
     1
290
     0
176
     1
290
     0
176
     1
290
     0
176
     1
290
     0
176
     1
 90
       50
176
     1
 40
0.0
176
     1
 40
1.0
176
     1
 90
        0
176
     1
 62
    18
420
        0
176
     1
 90
       50
176
     1
 90
        3
176
     1
 62
     5
420
      255
176
     1
290
     0
176
     1
 90
       50
176
     1
 90
       50
176
     1
 90
       50
176
     1
290
     0
176
     1
 90
       50
176
     1
 62
   256
176
     0
 40
1.0
176
     0
 90
        2
176
     1
  1
strokes_ogs.tif
176
     1
290
     0
176
     1
 40
1.0
176
     1
 40
1.0
176
     1
1001
ACAD
1000
AcDbSavedByObjectVersion
1070
     0
  0
VISUALSTYLE
  5
10025
102
{ACAD_REACTORS
330
1001D
102
}
330
1001D
100
AcDbVisualStyle
  2
Hidden
 70
     6
177
     3
291
     0
 70
    58
 90
        1
176
     1
 90
        2
176
     1
 90
        2
176
     1
 90
        0
176
     1
 40
0.6
176
     1
 40
30.0
176
     1
 62
     7
420
 16777215
176
     1
 90
        2
176
     1
 90
        2
176
     1
 62
     7
176
     1
 62
   257
176
     1
 90
        2
176
     1
 90
        1
176
     1
 40
40.0
176
     1
 90
        0
176
     1
 62
   257
176
     1
 40
1.0
176
     1
 90
        1
176
     1
 90
        6
176
     1
 90
        2
176
     1
 62
     7
176
     1
 90
        3
176
     1
 90
        0
176
     1
 90
        0
176
     1
290
     0
176
     1
 90
        1
176
     1
 40
0.0
176
     1
 90
        0
176
     1
290
     0
176
     1
290
     1
176
     1
290
     1
176
     1
290
     0
176
     1
290
     0
176
     1
290
     0
176
     1
290
     0
176
     1
290
     0
176
     1
290
     0
176
     1
 90
       50
176
     1
 40
0.0
176
     1
 40
1.0
176
     1
 90
        0
176
     1
 62
    18
420
        0
176
     1
 90
       50
176
     1
 90
        3
176
     1
 62
     5
420
      255
176
     1
290
     0
176
     1
 90
       50
176
     1
 90
       50
176
     1
 90
       50
176
     1
290
     0
176
     1
 90
       50
176
     1
 62
   256
176
     0
 40
1.0
176
     0
 90
        2
176
     1
  1
strokes_ogs.tif
176
     1
290
     0
176
     1
 40
1.0
176
     1
 40
1.0
176
     1
1001
ACAD
1000
AcDbSavedByObjectVersion
1070
     0
  0
VISUALSTYLE
  5
10033
102
{ACAD_REACTORS
330
1001D
102
}
330
1001D
100
AcDbVisualStyle
  2
JitterOff
 70
    20
177
     3
291
     1
 70
    58
 90
        2
176
     0
 90
        2
176
     0
 90
        0
176
     0
 90
        0
176
     0
 40
0.6
176
     0
 40
30.0
176
     0
 62
     7
420
 16777215
176
     0
 90
        1
176
     0
 90
        4
176
     0
 62
     7
176
     0
 62
   257
176
     0
 90
        1
176
     0
 90
        1
176
     0
 40
1.0
176
     0
 90
       10
176
     2
 62
     7
176
     0
 40
1.0
176
     0
 90
        1
176
     0
 90
        6
176
     0
 90
        2
176
     0
 62
     7
176
     0
 90
        5
176
     0
 90
        0
176
     0
 90
        0
176
     0
290
     0
176
     0
 90
        1
176
     0
 40
0.0
176
     0
 90
        0
176
     0
290
     0
176
     1
290
     1
176
     1
290
     1
176
     1
290
     0
176
     1
290
     0
176
     1
290
     0
176
     1
290
     0
176
     1
290
     0
176
     1
290
     0
176
     1
 90
       50
176
     0
 40
0.0
176
     0
 40
1.0
176
     0
 90
        0
176
     0
 62
    18
420
        0
176
     0
 90
       50
176
     0
 90
        3
176
     0
 62
     5
420
      255
176
     0
290
     0
176
     1
 90
       50
176
     0
 90
       50
176
     0
 90
       50
176
     0
290
     0
176
     1
 90
       50
176
     0
 62
   256
176
     0
 40
1.0
176
     0
 90
        2
176
     0
  1
strokes_ogs.tif
176
     0
290
     0
176
     1
 40
1.0
176
     0
 40
1.0
176
     0
1001
ACAD
1000
AcDbSavedByObjectVersion
1070
     0
  0
VISUALSTYLE
  5
1002B
102
{ACAD_REACTORS
330
1001D
102
}
330
1001D
100
AcDbVisualStyle
  2
Linepattern
 70
    14
177
     3
291
     1
 70
    58
 90
        2
176
     1
 90
        2
176
     1
 90
        0
176
     1
 90
        0
176
     1
 40
0.6
176
     1
 40
30.0
176
     1
 62
     7
420
 16777215
176
     1
 90
        1
176
     1
 90
        4
176
     1
 62
     7
176
     1
 62
   257
176
     1
 90
        7
176
     1
 90
        7
176
     1
 40
1.0
176
     1
 90
        8
176
     1
 62
     7
176
     1
 40
1.0
176
     1
 90
        1
176
     1
 90
        6
176
     1
 90
        2
176
     1
 62
     7
176
     1
 90
        5
176
     1
 90
        0
176
     1
 90
        0
176
     1
290
     0
176
     1
 90
        1
176
     1
 40
0.0
176
     1
 90
        0
176
     1
290
     0
176
     1
290
     1
176
     1
290
     1
176
     1
290
     0
176
     1
290
     0
176
     1
290
     0
176
     1
290
     0
176
     1
290
     0
176
     1
290
     0
176
     1
 90
       50
176
     1
 40
0.0
176
     1
 40
1.0
176
     1
 90
        0
176
     1
 62
    18
420
        0
176
     1
 90
       50
176
     1
 90
        3
176
     1
 62
     5
420
      255
176
     1
290
     0
176
     1
 90
       50
176
     1
 90
       50
176
     1
 90
       50
176
     1
290
     0
176
     1
 90
       50
176
     1
 62
   256
176
     0
 40
1.0
176
     0
 90
        2
176
     1
  1
strokes_ogs.tif
176
     1
290
     0
176
     1
 40
1.0
176
     1
 40
1.0
176
     1
1001
ACAD
1000
AcDbSavedByObjectVersion
1070
     0
  0
VISUALSTYLE
  5
10034
102
{ACAD_REACTORS
330
1001D
102
}
330
1001D
100
AcDbVisualStyle
  2
OverhangOff
 70
    21
177
     3
291
     1
 70
    58
 90
        2
176
     0
 90
        2
176
     0
 90
        0
176
     0
 90
        0
176
     0
 40
0.6
176
     0
 40
30.0
176
     0
 62
     7
420
 16777215
176
     0
 90
        1
176
     0
 90
        4
176
     0
 62
     7
176
     0
 62
   257
176
     0
 90
        1
176
     0
 90
        1
176
     0
 40
1.0
176
     0
 90
        9
176
     2
 62
     7
176
     0
 40
1.0
176
     0
 90
        1
176
     0
 90
        6
176
     0
 90
        2
176
     0
 62
     7
176
     0
 90
        5
176
     0
 90
        0
176
     0
 90
        0
176
     0
290
     0
176
     0
 90
        1
176
     0
 40
0.0
176
     0
 90
        0
176
     0
290
     0
176
     1
290
     1
176
     1
290
     1
176
     1
290
     0
176
     1
290
     0
176
     1
290
     0
176
     1
290
     0
176
     1
290
     0
176
     1
290
     0
176
     1
 90
       50
176
     0
 40
0.0
176
     0
 40
1.0
176
     0
 90
        0
176
     0
 62
    18
420
        0
176
     0
 90
       50
176
     0
 90
        3
176
     0
 62
     5
420
      255
176
     0
290
     0
176
     1
 90
       50
176
     0
 90
       50
176
     0
 90
       50
176
     0
290
     0
176
     1
 90
       50
176
     0
 62
   256
176
     0
 40
1.0
176
     0
 90
        2
176
     0
  1
strokes_ogs.tif
176
     0
290
     0
176
     1
 40
1.0
176
     0
 40
1.0
176
     0
1001
ACAD
1000
AcDbSavedByObjectVersion
1070
     0
  0
VISUALSTYLE
  5
10027
102
{ACAD_REACTORS
330
1001D
102
}
330
1001D
100
AcDbVisualStyle
  2
Realistic
 70
     8
177
     3
291
     0
 70
    58
 90
        2
176
     1
 90
        3
176
     1
 90
        0
176
     1
 90
        2
176
     1
 40
0.6
176
     1
 40
30.0
176
     1
 62
     7
420
 16777215
176
     1
 90
        0
176
     1
 90
        0
176
     1
 62
     7
176
     1
 62
   257
176
     1
 90
        1
176
     1
 90
        1
176
     1
 40
1.0
176
     1
 90
        8
176
     1
 62
   257
176
     1
 40
1.0
176
     1
 90
        1
176
     1
 90
        6
176
     1
 90
        2
176
     1
 62
     7
176
     1
 90
        3
176
     1
 90
        0
176
     1
 90
        0
176
     1
290
     0
176
     1
 90
       13
176
     1
 40
0.0
176
     1
 90
        0
176
     1
290
     0
176
     1
290
     1
176
     1
290
     1
176
     1
290
     0
176
     1
290
     0
176
     1
290
     0
176
     1
290
     0
176
     1
290
     0
176
     1
290
     0
176
     1
 90
       50
176
     1
 40
0.0
176
     1
 40
1.0
176
     1
 90
        0
176
     1
 62
    18
420
        0
176
     1
 90
       50
176
     1
 90
        3
176
     1
 62
     5
420
      255
176
     1
290
     0
176
     1
 90
       50
176
     1
 90
       50
176
     1
 90
       50
176
     1
290
     0
176
     1
 90
       50
176
     1
 62
   256
176
     0
 40
1.0
176
     0
 90
        2
176
     1
  1
strokes_ogs.tif
176
     1
290
     0
176
     1
 40
1.0
176
     1
 40
1.0
176
     1
1001
ACAD
1000
AcDbSavedByObjectVersion
1070
     0
  0
VISUALSTYLE
  5
10032
102
{ACAD_REACTORS
330
1001D
102
}
330
1001D
100
AcDbVisualStyle
  2
Shaded
 70
    27
177
     3
291
     0
 70
    58
 90
        2
176
     1
 90
        2
176
     1
 90
        1
176
     1
 90
        2
176
     1
 40
0.6
176
     1
 40
30.0
176
     1
 62
     7
420
 16777215
176
     1
 90
        0
176
     1
 90
        4
176
     1
 62
     7
176
     1
 62
   257
176
     1
 90
        1
176
     1
 90
        1
176
     1
 40
1.0
176
     1
 90
        8
176
     1
 62
   257
176
     1
 40
1.0
176
     1
 90
        1
176
     1
 90
        6
176
     1
 90
        2
176
     1
 62
     8
420
  7895160
176
     1
 90
        3
176
     1
 90
        0
176
     1
 90
        0
176
     1
290
     0
176
     1
 90
        5
176
     1
 40
0.0
176
     1
 90
        0
176
     1
290
     0
176
     1
290
     1
176
     1
290
     1
176
     1
290
     0
176
     1
290
     0
176
     1
290
     0
176
     1
290
     0
176
     1
290
     0
176
     1
290
     0
176
     1
 90
       50
176
     1
 40
0.0
176
     1
 40
1.0
176
     1
 90
        0
176
     1
 62
    18
420
        0
176
     1
 90
       50
176
     1
 90
        3
176
     1
 62
     5
420
      255
176
     1
290
     0
176
     1
 90
       50
176
     1
 90
       50
176
     1
 90
       50
176
     1
290
     0
176
     1
 90
       50
176
     1
 62
   256
176
     0
 40
1.0
176
     0
 90
        2
176
     1
  1
strokes_ogs.tif
176
     1
290
     0
176
     1
 40
1.0
176
     1
 40
1.0
176
     1
1001
ACAD
1000
AcDbSavedByObjectVersion
1070
     0
  0
VISUALSTYLE
  5
10031
102
{ACAD_REACTORS
330
1001D
102
}
330
1001D
100
AcDbVisualStyle
  2
Shaded with edges
 70
    26
177
     3
291
     0
 70
    58
 90
        2
176
     1
 90
        2
176
     1
 90
        1
176
     1
 90
        2
176
     1
 40
0.6
176
     1
 40
30.0
176
     1
 62
     7
420
 16777215
176
     1
 90
        1
176
     1
 90
        2
176
     1
 62
     7
176
     1
 62
   257
176
     1
 90
        2
176
     1
 90
        1
176
     1
 40
1.0
176
     1
 90
        8
176
     1
 62
   257
176
     1
 40
1.0
176
     1
 90
        1
176
     1
 90
        6
176
     1
 90
        2
176
     1
 62
     7
176
     1
 90
        3
176
     1
 90
        0
176
     1
 90
        0
176
     1
290
     0
176
     1
 90
        5
176
     1
 40
0.0
176
     1
 90
        0
176
     1
290
     0
176
     1
290
     1
176
     1
290
     1
176
     1
290
     0
176
     1
290
     0
176
     1
290
     0
176
     1
290
     0
176
     1
290
     0
176
     1
290
     0
176
     1
 90
       50
176
     1
 40
0.0
176
     1
 40
1.0
176
     1
 90
        0
176
     1
 62
    18
420
        0
176
     1
 90
       50
176
     1
 90
        3
176
     1
 62
     5
420
      255
176
     1
290
     0
176
     1
 90
       50
176
     1
 90
       50
176
     1
 90
       50
176
     1
290
     0
176
     1
 90
       50
176
     1
 62
   256
176
     0
 40
1.0
176
     0
 90
        2
176
     1
  1
strokes_ogs.tif
176
     1
290
     0
176
     1
 40
1.0
176
     1
 40
1.0
176
     1
1001
ACAD
1000
AcDbSavedByObjectVersion
1070
     0
  0
VISUALSTYLE
  5
1002E
102
{ACAD_REACTORS
330
1001D
102
}
330
1001D
100
AcDbVisualStyle
  2
Shades of Gray
 70
    23
177
     3
291
     0
 70
    58
 90
        2
176
     1
 90
        2
176
     1
 90
        3
176
     1
 90
        0
176
     1
 40
0.6
176
     1
 40
30.0
176
     1
 62
     7
420
 16777215
176
     1
 90
        2
176
     1
 90
        2
176
     1
 62
     7
176
     1
 62
     7
176
     1
 90
        1
176
     1
 90
        1
176
     1
 40
40.0
176
     1
 90
        8
176
     1
 62
     7
176
     1
 40
1.0
176
     1
 90
        1
176
     1
 90
        6
176
     1
 90
        2
176
     1
 62
     7
176
     1
 90
        3
176
     1
 90
        0
176
     1
 90
        0
176
     1
290
     0
176
     1
 90
        1
176
     1
 40
0.0
176
     1
 90
        0
176
     1
290
     0
176
     1
290
     1
176
     1
290
     1
176
     1
290
     0
176
     1
290
     0
176
     1
290
     0
176
     1
290
     0
176
     1
290
     0
176
     1
290
     0
176
     1
 90
       50
176
     1
 40
0.0
176
     1
 40
1.0
176
     1
 90
        0
176
     1
 62
    18
420
        0
176
     1
 90
       50
176
     1
 90
        3
176
     1
 62
     5
420
      255
176
     1
290
     0
176
     1
 90
       50
176
     1
 90
       50
176
     1
 90
       50
176
     1
290
     0
176
     1
 90
       50
176
     1
 62
   256
176
     0
 40
1.0
176
     0
 90
        2
176
     1
  1
strokes_ogs.tif
176
     1
290
     0
176
     1
 40
1.0
176
     1
 40
1.0
176
     1
1001
ACAD
1000
AcDbSavedByObjectVersion
1070
     0
  0
VISUALSTYLE
  5
1002F
102
{ACAD_REACTORS
330
1001D
102
}
330
1001D
100
AcDbVisualStyle
  2
Sketchy
 70
    24
177
     3
291
     0
 70
    58
 90
        1
176
     1
 90
        2
176
     1
 90
        2
176
     1
 90
        0
176
     1
 40
0.6
176
     1
 40
30.0
176
     1
 62
     7
420
 16777215
176
     1
 90
        2
176
     1
 90
        2
176
     1
 62
     7
176
     1
 62
     7
176
     1
 90
        1
176
     1
 90
        1
176
     1
 40
40.0
176
     1
 90
       11
176
     1
 62
     7
176
     1
 40
1.0
176
     1
 90
        1
176
     1
 90
        6
176
     1
 90
        2
176
     1
 62
     7
176
     1
 90
        6
176
     1
 90
        0
176
     1
 90
        0
176
     1
290
     0
176
     1
 90
        1
176
     1
 40
0.0
176
     1
 90
        0
176
     1
290
     0
176
     1
290
     1
176
     1
290
     1
176
     1
290
     0
176
     1
290
     0
176
     1
290
     0
176
     1
290
     0
176
     1
290
     0
176
     1
290
     0
176
     1
 90
       50
176
     1
 40
0.0
176
     1
 40
1.0
176
     1
 90
        0
176
     1
 62
    18
420
        0
176
     1
 90
       50
176
     1
 90
        3
176
     1
 62
     5
420
      255
176
     1
290
     0
176
     1
 90
       50
176
     1
 90
       50
176
     1
 90
       50
176
     1
290
     0
176
     1
 90
       50
176
     1
 62
   256
176
     0
 40
1.0
176
     0
 90
        2
176
     1
  1
strokes_ogs.tif
176
     1
290
     0
176
     1
 40
1.0
176
     1
 40
1.0
176
     1
1001
ACAD
1000
AcDbSavedByObjectVersion
1070
     0
  0
VISUALSTYLE
  5
1002A
102
{ACAD_REACTORS
330
1001D
102
}
330
1001D
100
AcDbVisualStyle
  2
Thicken
 70
    13
177
     3
291
     1
 70
    58
 90
        2
176
     1
 90
        2
176
     1
 90
        0
176
     1
 90
        0
176
     1
 40
0.6
176
     1
 40
30.0
176
     1
 62
     7
420
 16777215
176
     1
 90
        1
176
     1
 90
        4
176
     1
 62
     7
176
     1
 62
   257
176
     1
 90
        1
176
     1
 90
        1
176
     1
 40
1.0
176
     1
 90
       12
176
     1
 62
     7
176
     1
 40
1.0
176
     1
 90
        1
176
     1
 90
        6
176
     1
 90
        2
176
     1
 62
     7
176
     1
 90
        5
176
     1
 90
        0
176
     1
 90
        0
176
     1
290
     0
176
     1
 90
        1
176
     1
 40
0.0
176
     1
 90
        0
176
     1
290
     0
176
     1
290
     1
176
     1
290
     1
176
     1
290
     0
176
     1
290
     0
176
     1
290
     0
176
     1
290
     0
176
     1
290
     0
176
     1
290
     0
176
     1
 90
       50
176
     1
 40
0.0
176
     1
 40
1.0
176
     1
 90
        0
176
     1
 62
    18
420
        0
176
     1
 90
       50
176
     1
 90
        3
176
     1
 62
     5
420
      255
176
     1
290
     0
176
     1
 90
       50
176
     1
 90
       50
176
     1
 90
       50
176
     1
290
     0
176
     1
 90
       50
176
     1
 62
   256
176
     0
 40
1.0
176
     0
 90
        2
176
     1
  1
strokes_ogs.tif
176
     1
290
     0
176
     1
 40
1.0
176
     1
 40
1.0
176
     1
1001
ACAD
1000
AcDbSavedByObjectVersion
1070
     0
  0
VISUALSTYLE
  5
10024
102
{ACAD_REACTORS
330
1001D
102
}
330
1001D
100
AcDbVisualStyle
  2
Wireframe
 70
     5
177
     3
291
     0
 70
    58
 90
        0
176
     1
 90
        2
176
     1
 90
        0
176
     1
 90
        0
176
     1
 40
0.6
176
     1
 40
30.0
176
     1
 62
     7
420
 16777215
176
     1
 90
        1
176
     1
 90
        4
176
     1
 62
     7
176
     1
 62
   257
176
     1
 90
        1
176
     1
 90
        1
176
     1
 40
1.0
176
     1
 90
        0
176
     1
 62
   257
176
     1
 40
1.0
176
     1
 90
        1
176
     1
 90
        6
176
     1
 90
        2
176
     1
 62
     7
176
     1
 90
        3
176
     1
 90
        0
176
     1
 90
        0
176
     1
290
     0
176
     1
 90
        1
176
     1
 40
0.0
176
     1
 90
        0
176
     1
290
     0
176
     1
290
     1
176
     1
290
     1
176
     1
290
     0
176
     1
290
     0
176
     1
290
     0
176
     1
290
     0
176
     1
290
     0
176
     1
290
     0
176
     1
 90
       50
176
     1
 40
0.0
176
     1
 40
1.0
176
     1
 90
        0
176
     1
 62
    18
420
        0
176
     1
 90
       50
176
     1
 90
        3
176
     1
 62
     5
420
      255
176
     1
290
     0
176
     1
 90
       50
176
     1
 90
       50
176
     1
 90
       50
176
     1
290
     0
176
     1
 90
       50
176
     1
 62
   256
176
     0
 40
1.0
176
     0
 90
        2
176
     1
  1
strokes_ogs.tif
176
     1
290
     0
176
     1
 40
1.0
176
     1
 40
1.0
176
     1
1001
ACAD
1000
AcDbSavedByObjectVersion
1070
     0
  0
VISUALSTYLE
  5
10030
102
{ACAD_REACTORS
330
1001D
102
}
330
1001D
100
AcDbVisualStyle
  2
X-Ray
 70
    25
177
     3
291
     0
 70
    58
 90
        2
176
     1
 90
        2
176
     1
 90
        1
176
     1
 90
        1
176
     1
 40
0.5
176
     1
 40
30.0
176
     1
 62
     7
420
 16777215
176
     1
 90
        1
176
     1
 90
        0
176
     1
 62
     7
176
     1
 62
   257
176
     1
 90
        1
176
     1
 90
        1
176
     1
 40
1.0
176
     1
 90
        8
176
     1
 62
     7
176
     1
 40
1.0
176
     1
 90
        1
176
     1
 90
        6
176
     1
 90
        2
176
     1
 62
     7
176
     1
 90
        3
176
     1
 90
        0
176
     1
 90
        0
176
     1
290
     0
176
     1
 90
       13
176
     1
 40
0.0
176
     1
 90
        0
176
     1
290
     0
176
     1
290
     1
176
     1
290
     1
176
     1
290
     0
176
     1
290
     0
176
     1
290
     0
176
     1
290
     0
176
     1
290
     0
176
     1
290
     0
176
     1
 90
       50
176
     1
 40
0.0
176
     1
 40
1.0
176
     1
 90
        0
176
     1
 62
    18
420
        0
176
     1
 90
       50
176
     1
 90
        3
176
     1
 62
     5
420
      255
176
     1
290
     0
176
     1
 90
       50
176
     1
 90
       50
176
     1
 90
       50
176
     1
290
     0
176
     1
 90
       50
176
     1
 62
   256
176
     0
 40
1.0
176
     0
 90
        2
176
     1
  1
strokes_ogs.tif
176
     1
290
     0
176
     1
 40
1.0
176
     1
 40
1.0
176
     1
1001
ACAD
1000
AcDbSavedByObjectVersion
1070
     0
  0
DICTIONARYVAR
  5
10071
102
{ACAD_REACTORS
330
1006B
102
}
330
1006B
100
DictionaryVariables
280
     0
  1
1:1
  0
DICTIONARYVAR
  5
1006D
102
{ACAD_REACTORS
330
1006B
102
}
330
1006B
100
DictionaryVariables
280
     0
  1
STANDARD
  0
DICTIONARYVAR
  5
1006C
102
{ACAD_REACTORS
330
1006B
102
}
330
1006B
100
DictionaryVariables
280
     0
  1
STANDARD
  0
DICTIONARYVAR
  5
1006E
102
{ACAD_REACTORS
330
1006B
102
}
330
1006B
100
DictionaryVariables
280
     0
  1
Imperial24
  0
DICTIONARYVAR
  5
1006F
102
{ACAD_REACTORS
330
1006B
102
}
330
1006B
100
DictionaryVariables
280
     0
  1
Imperial24
  0
DICTIONARYVAR
  5
10073
102
{ACAD_REACTORS
330
1006B
102
}
330
1006B
100
DictionaryVariables
280
     0
  1
1
  0
DICTIONARYVAR
  5
10074
102
{ACAD_REACTORS
330
1006B
102
}
330
1006B
100
DictionaryVariables
280
     0
  1
15
  0
DICTIONARYVAR
  5
10072
102
{ACAD_REACTORS
330
1006B
102
}
330
1006B
100
DictionaryVariables
280
     0
  1
0
  0
DICTIONARYVAR
  5
10070
102
{ACAD_REACTORS
330
1006B
102
}
330
1006B
100
DictionaryVariables
280
     0
  1
0
  0
DICTIONARY
  5
10096
102
{ACAD_REACTORS
330
10094
102
}
330
10094
100
AcDbDictionary
281
     1
  0
DICTIONARY
  5
10095
102
{ACAD_REACTORS
330
10094
102
}
330
10094
100
AcDbDictionary
281
     1
  3
140439966938480
350
1008F
  3
140439966938496
350
10090
  3
140439966938512
350
10091
  3
140439966938528
350
10092
  3
140439966938544
350
10093
  0
DICTIONARY
  5
10099
330
10052
100
AcDbDictionary
280
     1
281
     1
  3
ACAD_XREC_ROUNDTRIP
360
1009A
  0
DICTIONARY
  5
1000E
330
1000D
100
AcDbDictionary
280
     1
281
     1
  3
BUMPTILE
360
10010
  3
DIFFUSETILE
360
1000F
  3
OPACITYTILE
360
10013
  3
REFLECTIONTILE
360
10012
  3
REFRACTIONTILE
360
10014
  3
SPECULARTILE
360
10011
  0
DICTIONARY
  5
10006
330
10005
100
AcDbDictionary
280
     1
281
     1
  3
BUMPTILE
360
10008
  3
DIFFUSETILE
360
10007
  3
OPACITYTILE
360
1000B
  3
REFLECTIONTILE
360
1000A
  3
REFRACTIONTILE
360
1000C
  3
SPECULARTILE
360
10009
  0
DICTIONARY
  5
10016
330
10015
100
AcDbDictionary
280
     1
281
     1
  3
BUMPTILE
360
10018
  3
DIFFUSETILE
360
10017
  3
OPACITYTILE
360
1001B
  3
REFLECTIONTILE
360
1001A
  3
REFRACTIONTILE
360
1001C
  3
SPECULARTILE
360
10019
  0
DICTIONARY
  5
10097
330
10050
100
AcDbDictionary
280
     1
281
     1
  3
ACAD_XREC_ROUNDTRIP
360
10098
  0
DICTIONARY
  5
1008C
330
10039
100
AcDbDictionary
280
     1
281
     1
  3
ACAD_ROUNDTRIP_2008_TABLESTYLE_CELLSTYLEMAP
360
1008D
  0
XRECORD
  5
1008F
102
{ACAD_REACTORS
330
10095
102
}
330
10095
100
AcDbXrecord
280
     1
  1
AcDb_Thumbnail_Schema
102
{ATTRRECORD
341
10090
  2
AcDbDs::TreatedAsObjectData
280
     1
291
     1
102
ATTRRECORD}
102
{ATTRRECORD
341
10091
  2
AcDbDs::Legacy
280
     1
291
     1
102
ATTRRECORD}
  2
AcDbDs::ID
280
    10
 91
        8
102
{ATTRRECORD
341
10092
  2
AcDs:Indexable
280
     1
291
     1
102
ATTRRECORD}
102
{ATTRRECORD
341
10093
  2
AcDbDs::HandleAttribute
280
     7
282
     1
102
ATTRRECORD}
  2
Thumbnail_Data
280
    15
 91
        0
  0
XRECORD
  5
10090
102
{ACAD_REACTORS
330
10095
102
}
330
10095
100
AcDbXrecord
280
     1
  1
AcDbDs::TreatedAsObjectDataSchema
  2
AcDbDs::TreatedAsObjectData
280
     1
 91
        0
  0
XRECORD
  5
10091
102
{ACAD_REACTORS
330
10095
102
}
330
10095
100
AcDbXrecord
280
     1
  1
AcDbDs::LegacySchema
  2
AcDbDs::Legacy
280
     1
 91
        0
  0
XRECORD
  5
10092
102
{ACAD_REACTORS
330
10095
102
}
330
10095
100
AcDbXrecord
280
     1
  1
AcDbDs::IndexedPropertySchema
  2
AcDs:Indexable
280
     1
 91
        0
  0
XRECORD
  5
10093
102
{ACAD_REACTORS
330
10095
102
}
330
10095
100
AcDbXrecord
280
     1
  1
AcDbDs::HandleAttributeSchema
  2
AcDbDs::HandleAttribute
280
     7
 91
        1
284
     1
  0
XRECORD
  5
1009A
102
{ACAD_REACTORS
330
10099
102
}
330
10099
100
AcDbXrecord
280
     1
102
DISPLAYNAME
  1
Imperial24
102
FLAGS
 90
        0
  0
XRECORD
  5
10010
102
{ACAD_REACTORS
330
1000E
102
}
330
1000E
100
AcDbXrecord
280
     1
270
     1
271
     1
  0
XRECORD
  5
1000F
102
{ACAD_REACTORS
330
1000E
102
}
330
1000E
100
AcDbXrecord
280
     1
270
     1
271
     1
  0
XRECORD
  5
10013
102
{ACAD_REACTORS
330
1000E
102
}
330
1000E
100
AcDbXrecord
280
     1
270
     1
271
     1
  0
XRECORD
  5
10012
102
{ACAD_REACTORS
330
1000E
102
}
330
1000E
100
AcDbXrecord
280
     1
270
     1
271
     1
  0
XRECORD
  5
10014
102
{ACAD_REACTORS
330
1000E
102
}
330
1000E
100
AcDbXrecord
280
     1
270
     1
271
     1
  0
XRECORD
  5
10011
102
{ACAD_REACTORS
330
1000E
102
}
330
1000E
100
AcDbXrecord
280
     1
270
     1
271
     1
  0
XRECORD
  5
10008
102
{ACAD_REACTORS
330
10006
102
}
330
10006
100
AcDbXrecord
280
     1
270
     1
271
     1
  0
XRECORD
  5
10007
102
{ACAD_REACTORS
330
10006
102
}
330
10006
100
AcDbXrecord
280
     1
270
     1
271
     1
  0
XRECORD
  5
1000B
102
{ACAD_REACTORS
330
10006
102
}
330
10006
100
AcDbXrecord
280
     1
270
     1
271
     1
  0
XRECORD
  5
1000A
102
{ACAD_REACTORS
330
10006
102
}
330
10006
100
AcDbXrecord
280
     1
270
     1
271
     1
  0
XRECORD
  5
1000C
102
{ACAD_REACTORS
330
10006
102
}
330
10006
100
AcDbXrecord
280
     1
270
     1
271
     1
  0
XRECORD
  5
10009
102
{ACAD_REACTORS
330
10006
102
}
330
10006
100
AcDbXrecord
280
     1
270
     1
271
     1
  0
XRECORD
  5
10018
102
{ACAD_REACTORS
330
10016
102
}
330
10016
100
AcDbXrecord
280
     1
270
     1
271
     1
  0
XRECORD
  5
10017
102
{ACAD_REACTORS
330
10016
102
}
330
10016
100
AcDbXrecord
280
     1
270
     1
271
     1
  0
XRECORD
  5
1001B
102
{ACAD_REACTORS
330
10016
102
}
330
10016
100
AcDbXrecord
280
     1
270
     1
271
     1
  0
XRECORD
  5
1001A
102
{ACAD_REACTORS
330
10016
102
}
330
10016
100
AcDbXrecord
280
     1
270
     1
271
     1
  0
XRECORD
  5
1001C
102
{ACAD_REACTORS
330
10016
102
}
330
10016
100
AcDbXrecord
280
     1
270
     1
271
     1
  0
XRECORD
  5
10019
102
{ACAD_REACTORS
330
10016
102
}
330
10016
100
AcDbXrecord
280
     1
270
     1
271
     1
  0
XRECORD
  5
10098
102
{ACAD_REACTORS
330
10097
102
}
330
10097
100
AcDbXrecord
280
     1
102
DISPLAYNAME
  1
Imperial24
102
FLAGS
 90
        0
  0
CELLSTYLEMAP
  5
1008D
102
{ACAD_REACTORS
330
1008C
102
}
330
1008C
100
AcDbCellStyleMap
 90
        3
300
CELLSTYLE
  1
TABLEFORMAT_BEGIN
 90
        5
170
     1
 91
        0
 92
    32768
 62
   257
 93
        1
300
CONTENTFORMAT
  1
CONTENTFORMAT_BEGIN
 90
        0
 91
        0
 92
      512
 93
        0
300

 40
0.0
140
1.0
 94
        5
 62
     0
340
11
144
0.25
309
CONTENTFORMAT_END
171
     0
 94
        0
309
TABLEFORMAT_END
  1
CELLSTYLE_BEGIN
 90
        1
 91
        1
300
_TITLE
309
CELLSTYLE_END
300
CELLSTYLE
  1
TABLEFORMAT_BEGIN
 90
        5
170
     1
 91
        0
 92
        0
 62
   257
 93
        1
300
CONTENTFORMAT
  1
CONTENTFORMAT_BEGIN
 90
        0
 91
        0
 92
      512
 93
        0
300

 40
0.0
140
1.0
 94
        5
 62
     0
340
11
144
0.18
309
CONTENTFORMAT_END
171
     0
 94
        0
309
TABLEFORMAT_END
  1
CELLSTYLE_BEGIN
 90
        2
 91
        1
300
_HEADER
309
CELLSTYLE_END
300
CELLSTYLE
  1
TABLEFORMAT_BEGIN
 90
        5
170
     1
 91
        0
 92
        0
 62
   257
 93
        1
300
CONTENTFORMAT
  1
CONTENTFORMAT_BEGIN
 90
        0
 91
        0
 92
      512
 93
        0
300

 40
0.0
140
1.0
 94
        2
 62
     0
340
11
144
0.18
309
CONTENTFORMAT_END
171
     0
 94
        0
309
TABLEFORMAT_END
  1
CELLSTYLE_BEGIN
 90
        3
 91
        2
300
_DATA
309
CELLSTYLE_END
  0
ENDSEC
  0
SECTION
  2
ACDSDATA
 70
     2
 71
     8
  0
ACDSSCHEMA
 90
        0
  1
AcDb_Thumbnail_Schema
  2
AcDbDs::ID
280
    10
 91
        8
  2
Thumbnail_Data
280
    15
 91
        0
101
ACDSRECORD
 95
        0
 90
        1
  2
AcDbDs::TreatedAsObjectData
280
     1
291
     1
101
ACDSRECORD
 95
        0
 90
        2
  2
AcDbDs::Legacy
280
     1
291
     1
101
ACDSRECORD
  1
AcDbDs::ID
 90
        3
  2
AcDs:Indexable
280
     1
291
     1
101
ACDSRECORD
  1
AcDbDs::ID
 90
        4
  2
AcDbDs::HandleAttribute
280
     7
282
     1
  0
ACDSSCHEMA
 90
        1
  1
AcDbDs::TreatedAsObjectDataSchema
  2
AcDbDs::TreatedAsObjectData
280
     1
 91
        0
  0
ACDSSCHEMA
 90
        2
  1
AcDbDs::LegacySchema
  2
AcDbDs::Legacy
280
     1
 91
        0
  0
ACDSSCHEMA
 90
        3
  1
AcDbDs::IndexedPropertySchema
  2
AcDs:Indexable
280
     1
 91
        0
  0
ACDSSCHEMA
 90
        4
  1
AcDbDs::HandleAttributeSchema
  2
AcDbDs::HandleAttribute
280
     7
 91
        1
284
     1
  0
ACDSRECORD
 90
        0
  2
AcDbDs::ID
280
    10
320
10055
  2
Thumbnail_Data
280
    15
 94
     1581
310
89504E470D0A1A0A0000000D4948445200000100000000AD0803000000685951D000000300504C5445212830FFFFFF2128300000000000000000000000000000000000000000000000000000330000660000990000CC0000FF0033000033330033660033990033CC0033FF0066000066330066660066990066CC0066FF0099
310
000099330099660099990099CC0099FF00CC0000CC3300CC6600CC9900CCCC00CCFF00FF0000FF3300FF6600FF9900FFCC00FFFF3300003300333300663300993300CC3300FF3333003333333333663333993333CC3333FF3366003366333366663366993366CC3366FF3399003399333399663399993399CC3399FF33CC00
310
33CC3333CC6633CC9933CCCC33CCFF33FF0033FF3333FF6633FF9933FFCC33FFFF6600006600336600666600996600CC6600FF6633006633336633666633996633CC6633FF6666006666336666666666996666CC6666FF6699006699336699666699996699CC6699FF66CC0066CC3366CC6666CC9966CCCC66CCFF66FF0066
310
FF3366FF6666FF9966FFCC66FFFF9900009900339900669900999900CC9900FF9933009933339933669933999933CC9933FF9966009966339966669966999966CC9966FF9999009999339999669999999999CC9999FF99CC0099CC3399CC6699CC9999CCCC99CCFF99FF0099FF3399FF6699FF9999FFCC99FFFFCC0000CC00
310
33CC0066CC0099CC00CCCC00FFCC3300CC3333CC3366CC3399CC33CCCC33FFCC6600CC6633CC6666CC6699CC66CCCC66FFCC9900CC9933CC9966CC9999CC99CCCC99FFCCCC00CCCC33CCCC66CCCC99CCCCCCCCCCFFCCFF00CCFF33CCFF66CCFF99CCFFCCCCFFFFFF0000FF0033FF0066FF0099FF00CCFF00FFFF3300FF3333
310
FF3366FF3399FF33CCFF33FFFF6600FF6633FF6666FF6699FF66CCFF66FFFF9900FF9933FF9966FF9999FF99CCFF99FFFFCC00FFCC33FFCC66FFCC99FFCCCCFFCCFFFFFF00FFFF33FFFF66FFFF99FFFFCCFFFFFF0000000D0D0D1A1A1A2828283535354343435050505D5D5D6B6B6B787878868686939393A1A1A1AEAEAEBB
310
BBBBC9C9C9D6D6D6E4E4E4F1F1F1FFFFFF0000000000000000000000000000000000000000000000000000000000002E4550F1000002E84944415478DAED9BDB9A9D200C46F3FEEFFBDF77FA4D1D120E1E31DAD96BF5C65D2CC69F9840A06600000000000000000000000000000000000000000000000000000000FAFA73BD
310
932F5E62CA71D3EDBAEDD20C05A698B25F6C6FBA2E8FDCDF3E3443455506DE36EE85F0E32433FAA8BB49FAF2E52FCDE95FFE7257BBF6DF3A6A0F17B23417B08BA36BF3BACA730037EC25F2F4874D1BC31ADB373C40EB1E90980FE40CE898327C813BDB11000110E001013E3608FE4B342A1301977DCAA5BEA7793BDBD7BB5A
310
6D979FA4E6A4C1926FCBA5DACB43ED27BBB266BE90F009BC6A45EA47BCF6881B63801F8369237EDA23AA9B33A6C2E5833C1913DA5B8FC484F8286F425A0C70D727B382AE6405FFA8DA841401CC2F08F3E705D543C32F044000042008A615052757802654882CA9221486E7600D7074EB56FBA09C58EC51561A8CCB8FCB15CD
310
132F1E9624AA3D336D31547CEEB1E26855A4B57C0F580448AA0BC4E0F7ED11AE9B7C019A2C9499FEA2008600088000084016B04F9F07889960C6622894879D77DEFBC2A15DD5B9022D6B94D4F3012F3B1790E7010A816FB172565D60D796585DFFF7258A844F403EFBC8C7E4ACCA502B80250B600880009F2E8006023C1404
310
2D3F08AA845F0D37EEEE3A171077827F7EA4A6C12A59A79E0BE89F0D9871EE769F07D4BBF25AD5EBAADE7B9A54CF50EF9D0A0F37E7CD8F47B58DB232AD5C7F7F59A7EB9109493160B8395F1FE0F106F6DE7EE443E1ED7A31E0B9F301ABFB52B160E1962B71AA2E974EDC327E7467586C2D1B205D139497067BF5A01501AC5E
310
BAF7D26167453314A06FC2BB0568575341806E3CF8850298B95252F0E3DE07FC2B0468035C15FA5C38ECDDFA42017604C1B259DDDAA4A688B444F8B600698D773C1F048F9667B68B3767FFFD4315A1CEF900995F20CC77C6EA604EF360678F1E7000BB7F288E940C6F2F8B0F760AB6EE9BFB608D963E8FFC1FD2844FEF254F
310
BD67C9F73F3D150000000000000000000000000000000000000000000000000000005ECC1FBF1D89384F8B56F70000000049454E44AE426082
  0
ENDSEC
  0
EOF
