0
SECTION
2
HEADER
9
$INSUNITS
70
4
9
$ACADVER
1
AC1014
9
$HANDSEED
5
FFFF
0
ENDSEC
0
SECTION
2
TABLES
0
TABLE
2
VPORT
5
8
100
AcDbSymbolTable
0
ENDTAB
0
TABLE
2
LTYPE
5
5
100
AcDbSymbolTable
0
LTYPE
5
14
100
AcDbSymbolTableRecord
100
AcDbLinetypeTableRecord
2
BYBLOCK
70
0
0
LTYPE
5
15
100
AcDbSymbolTableRecord
100
AcDbLinetypeTableRecord
2
BYLAYER
70
0
0
LTYPE
5
16
100
AcDbSymbolTableRecord
100
AcDbLinetypeTableRecord
2
DASHED
70
0
3
Dashed __ __ __ __ __ __ __ __ __ __ __ __ __ _
72
65
73
2
40
0.75
49
0.5
74
0
49
-0.25
74
0
0
ENDTAB
0
TABLE
2
LAYER
5
2
100
AcDbSymbolTable
70
2
0
LAYER
5
50
100
AcDbSymbolTableRecord
100
AcDbLayerTableRecord
2
0
70
0
62
7
6
CONTINUOUS
0
ENDTAB
0
TABLE
2
STYLE
5
3
100
AcDbSymbolTable
70
1
0
STYLE
5
11
100
AcDbSymbolTableRecord
100
AcDbTextStyleTableRecord
2
STANDARD
70
0
0
ENDTAB
0
TABLE
2
VIEW
5
6
100
AcDbSymbolTable
70
0
0
ENDTAB
0
TABLE
2
UCS
5
7
100
AcDbSymbolTable
70
0
0
ENDTAB
0
TABLE
2
APPID
5
9
100
AcDbSymbolTable
70
2
0
APPID
5
12
100
AcDbSymbolTableRecord
100
AcDbRegAppTableRecord
2
ACAD
70
0
0
ENDTAB
0
TABLE
2
DIMSTYLE
5
A
100
AcDbSymbolTable
70
1
0
ENDTAB
0
TABLE
2
BLOCK_RECORD
5
1
100
AcDbSymbolTable
70
1
0
BLOCK_RECORD
5
1F
100
AcDbSymbolTableRecord
100
AcDbBlockTableRecord
2
*MODEL_SPACE
0
BLOCK_RECORD
5
1B
100
AcDbSymbolTableRecord
100
AcDbBlockTableRecord
2
*PAPER_SPACE
0
ENDTAB
0
ENDSEC
0
SECTION
2
BLOCKS
0
BLOCK
5
20
100
AcDbEntity
100
AcDbBlockBegin
2
*MODEL_SPACE
0
ENDBLK
5
21
100
AcDbEntity
100
AcDbBlockEnd
0
BLOCK
5
1C
100
AcDbEntity
100
AcDbBlockBegin
2
*PAPER_SPACE
0
ENDBLK
5
1D
100
AcDbEntity
100
AcDbBlockEnd
0
ENDSEC
0
SECTION
2
ENTITIES
0
LWPOLYLINE
5
100
100
AcDbEntity
8
0
100
AcDbPolyline
90
14
70
1
43
0.0
10
266.5312500000083
20
22.050000000017071
10
251.59325000000834
20
22.050000000016055
10
251.59325000000837
20
20.550000000016091
42
-0.41421356237305601
10
251.0932500000084
20
20.050000000016034
10
245.09325000000837
20
20.05000000001564
42
-0.41421356237308465
10
244.59325000000834
20
20.550000000015629
10
244.59325000000828
20
22.050000000015594
10
244.00625000000073
20
22.04999999999368
42
-0.41421356237312101
10
243.5062500000007
20
22.549999999993734
10
243.50625000000107
20
35.54999999999373
42
-0.41421356237306645
10
244.00625000000107
20
36.049999999993702
10
266.53125000000733
20
36.050000000017107
42
-0.41421356237307683
10
267.03125000000733
20
35.550000000017128
10
267.03125000000824
20
22.550000000017118
42
-0.41421356237309243
0
LWPOLYLINE
5
101
100
AcDbEntity
8
0
100
AcDbPolyline
90
14
70
1
43
0.0
10
268.96925000000743
20
35.05000000001727
10
269.70000000000738
20
35.05000000001732
10
269.70000000000101
20
35.549999999993041
42
-0.41421356237304296
10
270.20000000000107
20
36.04999999999302
10
283.20000000000113
20
36.049999999992686
42
-0.41421356237308982
10
283.70000000000107
20
35.54999999999265
10
283.70000000000073
20
22.549999999992654
42
-0.41421356237297013
10
283.20000000000073
20
22.049999999992679
10
275.46925000000829
20
22.050000000017683
10
275.4692500000084
20
20.550000000017697
42
-0.41421356237300916
10
274.9692500000084
20
20.050000000017651
10
268.9692500000084
20
20.050000000017256
42
-0.41421356237307944
10
268.4692500000084
20
20.550000000017235
10
268.46925000000743
20
34.550000000017235
42
-0.41421356237303525
0
LINE
5
102
100
AcDbEntity
8
0
100
AcDbLine
10
14.570081503350753
20
-2.125000000003523
30
0
11
14.570081503350782
21
-4.9250000000035321
31
1.5265566588595902e-15
0
ARC
5
103
100
AcDbEntity
8
0
100
AcDbCircle
10
16.170081503350783
20
-4.9250000000035579
30
2.2204460492503131e-15
40
1.6000000000000014
210
-4.3368086899419295e-16
220
5.2735593669695636e-16
230
1
100
AcDbArc
50
180
51
269.99999999999795
0
LINE
5
104
100
AcDbEntity
8
0
100
AcDbLine
10
16.170081503350726
20
-6.5250000000035593
30
3.064215547965433e-15
11
62.970081503350755
21
-6.5250000000042512
31
4.440892098500989e-15
0
ARC
5
105
100
AcDbEntity
8
0
100
AcDbCircle
10
62.970081503350784
20
-4.9250000000042862
30
2.2204460492503131e-15
40
1.5999999999999648
210
1.3843725029643301e-29
220
1.387778780781703e-15
230
1
100
AcDbArc
50
-90.000000000001009
51
0
0
LINE
5
106
100
AcDbEntity
8
0
100
AcDbLine
10
64.57008150335075
20
-4.9250000000042657
30
2.2204460492503032e-15
11
64.570081503350721
21
-2.1250000000043192
31
7.6327832942979512e-16
0
ARC
5
107
100
AcDbEntity
8
0
100
AcDbCircle
10
62.970081503350748
20
-2.1250000000042761
30
0
40
1.5999999999999659
210
-4.770489558936187e-16
220
4.9960036108133336e-16
230
1
100
AcDbArc
50
0
51
76.22585300197467
0
ARC
5
108
100
AcDbEntity
8
0
100
AcDbCircle
10
63.470081503350698
20
-0.085392194567175395
30
0
40
0.49999999999999822
210
1.1229191141217723e-30
220
5.5511151231257827e-16
230
1
100
AcDbArc
50
180
51
256.22585300197397
0
LINE
5
109
100
AcDbEntity
8
0
100
AcDbLine
10
62.970081503350698
20
-0.085392194567216917
30
2.3614840991376097e-29
11
62.970081503350684
21
-0.025000000002600355
31
-2.2540563165973637e-15
0
ARC
5
110
100
AcDbEntity
8
0
100
AcDbCircle
10
63.470081503350684
20
-0.025000000002558531
30
0
40
0.5
210
1.2227060172599351e-30
220
5.5511151231257827e-16
230
1
100
AcDbArc
50
90.000000000004889
51
180
0
LINE
5
111
100
AcDbEntity
8
0
100
AcDbLine
10
63.470081503350642
20
0.47499999999744147
30
-2.7755575615628914e-16
11
73.009025208811778
21
0.47499999999816833
31
-3.7865323450608567e-28
0
SPLINE
5
112
100
AcDbEntity
8
0
100
AcDbSpline
70
0
71
3
72
12
73
8
74
0
42
0.000000001
43
0.0000000001
44
0.0000000001
40
0
40
0
40
0
40
0
40
0.062503115741907853
40
0.062503115741907853
40
0.12500623148381632
40
0.12500623148381632
40
0.18397262132684639
40
0.18397262132684639
40
0.18397262132684639
40
0.18397262132684639
10
74.467049343662211
20
1.4160875458786937
30
-2.2204460492503131e-15
10
74.381249174113009
20
1.226231189097341
30
-2.2204460492503131e-15
10
74.259186132692378
20
1.0549486435915514
30
-2.2204460492503131e-15
10
73.956275431281796
20
0.7688131368979868
30
-2.2204460492503131e-15
10
73.778323762696388
20
0.65669578711010113
30
0
10
73.400462394521441
20
0.51121911594732128
30
-2.2204460492503131e-15
10
73.205579841621869
20
0.47499999999816012
30
-2.2204460492503131e-15
10
73.009025208811764
20
0.47499999999816633
30
0
0
SPLINE
5
113
100
AcDbEntity
8
0
100
AcDbSpline
70
0
71
3
72
20
73
16
74
0
42
0.000000001
43
0.0000000001
44
0.0000000001
40
0.11952017763193153
40
0.11952017763193153
40
0.11952017763193153
40
0.11952017763193153
40
0.17130809447195774
40
0.17130809447195774
40
0.30526486851742207
40
0.30526486851742207
40
0.41271305108007533
40
0.41271305108007533
40
0.50910068585854251
40
0.50910068585854251
40
0.60557338822351947
40
0.60557338822351947
40
0.72094773421411551
40
0.72094773421411551
40
0.83602065573182105
40
0.83602065573182105
40
0.83602065573182105
40
0.83602065573182105
10
74.467049343662211
20
1.4160875458786943
30
-2.2204460492503131e-15
10
74.53366534326392
20
1.5634936763581648
30
-2.2204460492503131e-15
10
74.608248991977902
20
1.7045047163223181
30
-2.2204460492503131e-15
10
74.903002400030573
20
2.1828767680305883
30
0
10
75.160396747631665
20
2.4674627402314151
30
-2.2204460492503131e-15
10
75.682944330368414
20
2.8486520112147762
30
-2.2204460492503131e-15
10
75.942102416913485
20
2.9752027470433196
30
-4.4408920985006262e-15
10
76.471903570472136
20
3.1029637289916829
30
-4.4408920985006262e-15
10
76.728612309361949
20
3.1131817819529117
30
-2.2204460492503131e-15
10
77.237496229852752
20
3.0306019740468724
30
-4.4408920985006262e-15
10
77.479100795689405
20
2.9395094205610284
30
-2.2204460492503131e-15
10
77.968252106312548
20
2.6525766284667034
30
-2.2204460492503131e-15
10
78.200910488008546
20
2.4439191612438127
30
-2.2204460492503131e-15
10
78.594310928568802
20
1.9667172443847121
30
-2.2204460492503131e-15
10
78.755391249427163
20
1.6983476439210059
30
0
10
78.882950656336575
20
1.4160875458785713
30
-2.2204460492503131e-15
0
SPLINE
5
114
100
AcDbEntity
8
0
100
AcDbSpline
70
0
71
3
72
12
73
8
74
0
42
0.000000001
43
0.0000000001
44
0.0000000001
40
0
40
0
40
0
40
0
40
0.062503115741908061
40
0.062503115741908061
40
0.12500623148381629
40
0.12500623148381629
40
0.18397262132684403
40
0.18397262132684403
40
0.18397262132684403
40
0.18397262132684403
10
80.340974791186937
20
0.47499999999798159
30
0
10
80.132631072047246
20
0.4749999999979862
30
0
10
79.926279232418665
20
0.515694161221391
30
0
10
79.540789164767162
20
0.67388970149323058
30
-2.2204460492503131e-15
10
79.365336431899379
20
0.78987864495343663
30
0
10
79.077157645003041
20
1.0743002724619961
30
-2.2204460492503131e-15
10
78.963895841007485
20
1.2369741718449583
30
-4.4408920985006262e-15
10
78.882950656336575
20
1.41608754587857
30
-2.2204460492503131e-15
0
LINE
5
115
100
AcDbEntity
8
0
100
AcDbLine
10
80.340974791186937
20
0.47499999999798159
30
0
11
89.879918496648017
21
0.47499999999701081
31
-2.2204460492498082e-15
0
ARC
5
116
100
AcDbEntity
8
0
100
AcDbCircle
10
89.879918496647974
20
-0.025000000002989298
30
-2.2204460492503131e-15
40
0.50000000000000711
210
4.301564530788824e-30
220
5.5511151231257827e-16
230
1
100
AcDbArc
50
0
51
89.999999999995111
0
LINE
5
117
100
AcDbEntity
8
0
100
AcDbLine
10
90.379918496647988
20
-0.025000000003041579
30
-2.2204460492502863e-15
11
90.379918496647974
21
-0.085392194567631141
31
3.2526065174565133e-17
0
ARC
5
118
100
AcDbEntity
8
0
100
AcDbCircle
10
89.87991849664796
20
-0.085392194567579516
30
0
40
0.49999999999999856
210
2.4865965877167903e-18
220
5.4358036991324638e-16
230
1
100
AcDbArc
50
283.77414699802529
51
360
0
ARC
5
119
100
AcDbEntity
8
0
100
AcDbCircle
10
90.379918496647932
20
-2.1250000000046629
30
0
40
1.5999999999999654
210
1.7402467069480165e-16
220
-1.2701706544727654e-16
230
1
100
AcDbArc
50
103.77414699802645
51
180
0
LINE
5
120
100
AcDbEntity
8
0
100
AcDbLine
10
88.779918496647966
20
-2.1250000000046425
30
4.1879521477249419e-18
11
88.77991849664788
21
-4.9250000000046139
31
1.457167719820518e-15
0
ARC
5
121
100
AcDbEntity
8
0
100
AcDbCircle
10
90.379918496647846
20
-4.9250000000047063
30
0
40
1.5999999999999659
210
9.1072982488787362e-16
220
5.273559366968967e-16
230
1
100
AcDbArc
50
180
51
269.99999999999795
0
LINE
5
122
100
AcDbEntity
8
0
100
AcDbLine
10
90.37991849664779
20
-6.5250000000046713
30
8.4376949871510098e-16
11
137.17991849664784
21
-6.5250000000053472
31
4.440892098500989e-15
0
ARC
5
123
100
AcDbEntity
8
0
100
AcDbCircle
10
137.17991849664782
20
-4.9250000000053511
30
2.2204460492503131e-15
40
1.599999999999997
210
-1.7994208067020778e-29
220
1.387778780781675e-15
230
1
100
AcDbArc
50
270.00000000000102
51
360
0
LINE
5
124
100
AcDbEntity
8
0
100
AcDbLine
10
138.77991849664781
20
-4.9250000000053662
30
2.2204460492503194e-15
11
138.77991849664792
21
-2.125000000005381
31
7.6327832942979512e-16
0
ARC
5
125
100
AcDbEntity
8
0
100
AcDbCircle
10
137.17991849664793
20
-2.1250000000053388
30
0
40
1.6000000000000014
210
-4.7704895589360775e-16
220
5.2735593669696198e-16
230
1
100
AcDbArc
50
0
51
76.225853001970208
0
ARC
5
126
100
AcDbEntity
8
0
100
AcDbCircle
10
137.67991849664804
20
-0.08539219456824787
30
-2.2204460492503131e-15
40
0.50000000000000711
210
3.9288970865499051e-31
220
5.5511151231257827e-16
230
1
100
AcDbArc
50
180
51
256.22585300196977
0
LINE
5
127
100
AcDbEntity
8
0
100
AcDbLine
10
137.17991849664801
20
-0.085392194568213758
30
-2.220446049250332e-15
11
137.17991849664801
21
-0.025000000004113579
31
-2.2540563165973637e-15
0
ARC
5
128
100
AcDbEntity
8
0
100
AcDbCircle
10
137.67991849664804
20
-0.025000000004147815
30
0
40
0.50000000000000022
210
1.2347560542836287e-30
220
5.2735593669694955e-16
230
1
100
AcDbArc
50
89.999999999996746
51
180
0
LINE
5
129
100
AcDbEntity
8
0
100
AcDbLine
10
137.67991849664807
20
0.47499999999585241
30
-2.6367796834847488e-16
11
149.02008150335246
21
0.47499999999518755
31
-2.2204460492499344e-15
0
ARC
5
130
100
AcDbEntity
8
0
100
AcDbCircle
10
149.02008150335243
20
-0.025000000004812561
30
-2.2204460492503131e-15
40
0.50000000000000711
210
3.2432660263480547e-30
220
5.5511151231257827e-16
230
1
100
AcDbArc
50
0
51
89.999999999996746
0
LINE
5
131
100
AcDbEntity
8
0
100
AcDbLine
10
149.52008150335243
20
-0.025000000004847013
30
-2.2204460492502957e-15
11
149.52008150335243
21
-0.085392194568501084
31
-2.1879199840757479e-15
0
ARC
5
132
100
AcDbEntity
8
0
100
AcDbCircle
10
149.0200815033524
20
-0.085392194568466862
30
0
40
0.49999999999999856
210
-1.0861217686246185e-17
220
5.6888562787423843e-16
230
1
100
AcDbArc
50
283.77414699802688
51
360
0
ARC
5
133
100
AcDbEntity
8
0
100
AcDbCircle
10
149.52008150335243
20
-2.1250000000055804
30
0
40
1.6000000000000025
210
1.6935047380072321e-16
220
-1.3709336290505082e-16
230
1
100
AcDbArc
50
103.77414699802769
51
180
0
LINE
5
134
100
AcDbEntity
8
0
100
AcDbLine
10
147.92008150335243
20
-2.1250000000055609
30
1.4552107155802872e-17
11
147.92008150335243
21
-4.92500000000555
31
1.457167719820518e-15
0
ARC
5
135
100
AcDbEntity
8
0
100
AcDbCircle
10
149.52008150335243
20
-4.9250000000055891
30
0
40
1.6000000000000014
210
9.1072982488783575e-16
220
5.2735593669692737e-16
230
1
100
AcDbArc
50
180
51
269.99999999999795
0
LINE
5
136
100
AcDbEntity
8
0
100
AcDbLine
10
149.52008150335237
20
-6.5250000000055906
30
8.4376949871511972e-16
11
196.32008150335238
21
-6.5250000000063402
31
3.7865323450608567e-28
0
ARC
5
137
100
AcDbEntity
8
0
100
AcDbCircle
10
196.32008150335236
20
-4.9250000000063547
30
0
40
1.5999999999999859
210
1.4266139548245537e-29
220
2.3665827156630592e-28
230
1
100
AcDbArc
50
-89.999999999998991
51
0
0
LINE
5
138
100
AcDbEntity
8
0
100
AcDbLine
10
197.92008150335235
20
-4.925000000006353
30
-4.1265775547334406e-30
11
197.92008150335238
21
-2.1250000000063505
31
-1.5265566588595902e-15
0
ARC
5
139
100
AcDbEntity
8
0
100
AcDbCircle
10
196.32008150335238
20
-2.1250000000063278
30
0
40
1.6000000000000014
210
9.540979117872508e-16
220
5.2735593669693575e-16
230
1
100
AcDbArc
50
0
51
76.22585300197089
0
ARC
5
140
100
AcDbEntity
8
0
100
AcDbCircle
10
196.8200815033525
20
-0.085392194569271773
30
0
40
0.50000000000000711
210
6.3912551209168186e-31
220
5.5511151231257827e-16
230
1
100
AcDbArc
50
180
51
256.2258530019667
0
LINE
5
141
100
AcDbEntity
8
0
100
AcDbLine
10
196.3200815033525
20
-0.085392194569264807
30
-3.5515564321724982e-30
11
196.32008150335247
21
-0.025000000005059447
31
-2.2540563165973637e-15
0
ARC
5
142
100
AcDbEntity
8
0
100
AcDbCircle
10
196.82008150335247
20
-0.02500000000506708
30
0
40
0.5
210
6.0651770642451779e-31
220
5.2735593669694946e-16
230
1
100
AcDbArc
50
90
51
180
0
LINE
5
143
100
AcDbEntity
8
0
100
AcDbLine
10
196.82008150335247
20
0.47499999999493292
30
-2.6367796834847473e-16
11
206.35902520881217
21
0.47499999999468384
31
1.2621774483536189e-28
0
SPLINE
5
144
100
AcDbEntity
8
0
100
AcDbSpline
70
0
71
3
72
12
73
8
74
0
42
0.000000001
43
0.0000000001
44
0.0000000001
40
0
40
0
40
0
40
0
40
0.062503115741909351
40
0.062503115741909351
40
0.1250062314838164
40
0.1250062314838164
40
0.18397262132685027
40
0.18397262132685027
40
0.18397262132685027
40
0.18397262132685027
10
207.81704934366263
20
1.4160875458752713
30
-2.2204460492503131e-15
10
207.73124917411343
20
1.2262311890939102
30
-2.2204460492503131e-15
10
207.60918613269286
20
1.0549486435881248
30
0
10
207.30627543128224
20
0.76881313689454855
30
-2.2204460492503131e-15
10
207.12832376269685
20
0.65669578710665311
30
-2.2204460492503131e-15
10
206.75046239452186
20
0.51121911594385683
30
-2.2204460492503131e-15
10
206.55557984162229
20
0.47499999999468645
30
-2.2204460492503131e-15
10
206.35902520881217
20
0.47499999999469134
30
0
0
SPLINE
5
145
100
AcDbEntity
8
0
100
AcDbSpline
70
0
71
3
72
20
73
16
74
0
42
0.000000001
43
0.0000000001
44
0.0000000001
40
0.1195201776318937
40
0.1195201776318937
40
0.1195201776318937
40
0.1195201776318937
40
0.17130809447218287
40
0.17130809447218287
40
0.30526486851734524
40
0.30526486851734524
40
0.41271305107927236
40
0.41271305107927236
40
0.509100685857096
40
0.509100685857096
40
0.60557338822144302
40
0.60557338822144302
40
0.72094773421129466
40
0.72094773421129466
40
0.83602065572816231
40
0.83602065572816231
40
0.83602065572816231
40
0.83602065572816231
10
207.81704934366263
20
1.4160875458752602
30
-2.2204460492503131e-15
10
207.88366534326454
20
1.5634936763551719
30
-2.2204460492503131e-15
10
207.95824899197873
20
1.7045047163196889
30
-2.2204460492503131e-15
10
208.2530024000306
20
2.1828767680263352
30
-2.2204460492503131e-15
10
208.5103967476314
20
2.4674627402277389
30
-2.2204460492503131e-15
10
209.03294433036956
20
2.8486520112118834
30
-4.4408920985006262e-15
10
209.29210241691462
20
2.9752027470403086
30
-2.2204460492503131e-15
10
209.82190357047324
20
3.1029637289884926
30
-2.2204460492503131e-15
10
210.07861230936302
20
3.1131817819496446
30
-2.2204460492503131e-15
10
210.5874962298538
20
3.0306019740434631
30
-2.2204460492503131e-15
10
210.82910079569047
20
2.9395094205575392
30
-4.4408920985006262e-15
10
211.31825210631354
20
2.6525766284630636
30
-2.2204460492503131e-15
10
211.55091048800955
20
2.4439191612401121
30
-4.4408920985006262e-15
10
211.94431092856962
20
1.9667172443809284
30
-2.2204460492503131e-15
10
212.10539124942787
20
1.6983476439173009
30
-2.2204460492503131e-15
10
212.23295065633715
20
1.4160875458751623
30
-2.2204460492503131e-15
0
SPLINE
5
146
100
AcDbEntity
8
0
100
AcDbSpline
70
0
71
3
72
12
73
8
74
0
42
0.000000001
43
0.0000000001
44
0.0000000001
40
0
40
0
40
0
40
0
40
0.062503115741909171
40
0.062503115741909171
40
0.12500623148381637
40
0.12500623148381637
40
0.18397262132685144
40
0.18397262132685144
40
0.18397262132685144
40
0.18397262132685144
10
213.69097479118753
20
0.47499999999450415
30
-2.2204460492503131e-15
10
213.48263107204784
20
0.47499999999450898
30
-2.2204460492503131e-15
10
213.27627923241923
20
0.51569416121791212
30
-2.2204460492503131e-15
10
212.89078916476774
20
0.67388970148975202
30
-2.2204460492503131e-15
10
212.71533643189994
20
0.78987864494996041
30
-2.2204460492503131e-15
10
212.42715764500363
20
1.0743002724585347
30
-2.2204460492503131e-15
10
212.31389584100805
20
1.236974171841523
30
-2.2204460492503131e-15
10
212.23295065633715
20
1.4160875458751612
30
-2.2204460492503131e-15
0
LINE
5
147
100
AcDbEntity
8
0
100
AcDbLine
10
213.69097479118753
20
0.47499999999450415
30
-2.2204460492503131e-15
11
223.22991849664959
21
0.47499999999393555
31
-2.2204460492499975e-15
0
ARC
5
148
100
AcDbEntity
8
0
100
AcDbCircle
10
223.22991849664956
20
-0.025000000006064338
30
-2.2204460492503131e-15
40
0.50000000000000711
210
1.5234105860102867e-30
220
5.5511151231257827e-16
230
1
100
AcDbArc
50
0
51
89.999999999996746
0
LINE
5
149
100
AcDbEntity
8
0
100
AcDbLine
10
223.72991849664956
20
-0.025000000006089693
30
-2.2204460492502997e-15
11
223.72991849664956
21
-0.08539219456970705
31
-2.1868357819032624e-15
0
ARC
5
150
100
AcDbEntity
8
0
100
AcDbCircle
10
223.22991849664959
20
-0.085392194569681168
30
0
40
0.50000000000000278
210
2.4865965877180964e-18
220
5.4358036991324629e-16
230
1
100
AcDbArc
50
283.77414699802688
51
360
0
ARC
5
151
100
AcDbEntity
8
0
100
AcDbCircle
10
223.72991849664956
20
-2.1250000000067581
30
0
40
1.5999999999999546
210
1.6728532680549968e-16
220
-1.2866918304345013e-16
230
1
100
AcDbArc
50
103.77414699802601
51
180
0
LINE
5
152
100
AcDbEntity
8
0
100
AcDbLine
10
222.12991849664959
20
-2.1250000000067377
30
1.4552107155806108e-17
11
222.12991849664942
21
-4.9250000000067251
31
3.7470027081099033e-15
0
ARC
5
153
100
AcDbEntity
8
0
100
AcDbCircle
10
223.72991849664942
20
-4.9250000000067846
30
2.2204460492503131e-15
40
1.6000000000000014
210
9.5409791178726283e-16
220
5.2735593669691366e-16
230
1
100
AcDbArc
50
180
51
269.99999999999898
0
LINE
5
154
100
AcDbEntity
8
0
100
AcDbLine
10
223.72991849664939
20
-6.5250000000067505
30
3.0642155479654141e-15
11
270.52991849664949
21
-6.5250000000074815
31
2.2204460492507075e-15
0
ARC
5
155
100
AcDbEntity
8
0
100
AcDbCircle
10
270.52991849664943
20
-4.9250000000074632
30
2.2204460492503131e-15
40
1.6000000000000187
210
2.5380815768485025e-29
220
2.4651903288156444e-28
230
1
100
AcDbArc
50
270.00000000000205
51
360
0
LINE
5
156
100
AcDbEntity
8
0
100
AcDbLine
10
272.12991849664945
20
-4.9250000000075156
30
2.2204460492503375e-15
11
272.12991849664957
21
-2.1250000000074767
31
-1.457167719820518e-15
0
ARC
5
157
100
AcDbEntity
8
0
100
AcDbCircle
10
270.52991849664954
20
-2.1250000000074536
30
0
40
1.6000000000000369
210
9.1072982488781031e-16
220
5.2735593669693654e-16
230
1
100
AcDbArc
50
0
51
76.225853001972268
0
ARC
5
158
100
AcDbEntity
8
0
100
AcDbCircle
10
271.02991849664966
20
-0.085392194570355351
30
0
40
0.50000000000000711
210
6.1832546869229971e-31
220
5.5511151231257827e-16
230
1
100
AcDbArc
50
180
51
256.2258530019634
0
LINE
5
159
100
AcDbEntity
8
0
100
AcDbLine
10
270.52991849664966
20
-0.085392194570347593
30
-3.9952906913593174e-30
11
270.5299184966496
21
-0.025000000007250237
31
-2.2529721144248782e-15
0
ARC
5
160
100
AcDbEntity
8
0
100
AcDbCircle
10
271.0299184966496
20
-0.025000000007257828
30
-2.2204460492503131e-15
40
0.5
210
2.1208725381401201e-31
220
5.2735593669694896e-16
230
1
100
AcDbArc
50
90
51
180
0
LINE
5
161
100
AcDbEntity
8
0
100
AcDbLine
10
271.0299184966496
20
0.47499999999274223
30
-2.4841240175987878e-15
11
284.62500000000011
21
0.47499999999263565
31
5.9164567891575885e-29
0
ARC
5
162
100
AcDbEntity
8
0
100
AcDbCircle
10
284.62500000000023
20
2.074999999992611
30
-2.2204460492503131e-15
40
1.5999999999999752
210
3.7241713412816278e-29
220
1.3877787807815044e-15
230
1
100
AcDbArc
50
269.99999999999591
51
360
0
LINE
5
163
100
AcDbEntity
8
0
100
AcDbLine
10
286.22500000000014
20
2.0749999999925812
30
-2.2204460492502969e-15
11
286.22500000000252
21
94.124999999992724
31
-5.1070259132757201e-14
0
ARC
5
164
100
AcDbEntity
8
0
100
AcDbCircle
10
284.62500000000256
20
94.124999999992752
30
-5.1070259132757201e-14
40
1.6000000000000014
210
5.8548270309371928e-30
220
5.2735593669694946e-16
230
1
100
AcDbArc
50
0
51
90
0
LINE
5
165
100
AcDbEntity
8
0
100
AcDbLine
10
284.62500000000256
20
95.724999999992747
30
-5.1914028631472316e-14
11
271.02991849665096
21
95.724999999993102
31
-5.551115123125801e-14
0
ARC
5
166
100
AcDbEntity
8
0
100
AcDbCircle
10
271.02991849665102
20
96.224999999993088
30
-5.3290705182007514e-14
40
0.50000000000000711
210
-1.5777218104420012e-29
220
5.2735593669694946e-16
230
1
100
AcDbArc
50
180
51
269.99999999999346
0
LINE
5
167
100
AcDbEntity
8
0
100
AcDbLine
10
270.52991849665102
20
96.224999999993088
30
-5.329070518200752e-14
11
270.52991849665102
21
96.285392194556195
31
-5.3324315449354565e-14
0
ARC
5
168
100
AcDbEntity
8
0
100
AcDbCircle
10
271.02991849665102
20
96.285392194556181
30
-5.5511151231257827e-14
40
0.50000000000000711
210
1.5834410861680823e-17
220
5.1827511195225286e-16
230
1
100
AcDbArc
50
103.77414699803009
51
180
0
ARC
5
169
100
AcDbEntity
8
0
100
AcDbCircle
10
270.52991849665108
20
98.324999999993295
30
-5.773159728050814e-14
40
1.5999999999999817
210
-1.584639955340356e-16
220
1.2292758922723788e-15
230
1
100
AcDbArc
50
283.7741469980237
51
360
0
LINE
5
170
100
AcDbEntity
8
0
100
AcDbLine
10
272.1299184966511
20
98.324999999993281
30
-5.7746358785271379e-14
11
272.1299184966511
21
101.12499999999329
31
-5.6968318951078345e-14
0
ARC
5
171
100
AcDbEntity
8
0
100
AcDbCircle
10
270.52991849665102
20
101.12499999999329
30
-5.3290705182007514e-14
40
1.6000000000000725
210
2.2985086056691653e-15
220
5.5511151231257837e-16
230
1
100
AcDbArc
50
0
51
89.999999999997954
0
LINE
5
172
100
AcDbEntity
8
0
100
AcDbLine
10
270.52991849665108
20
102.72499999999337
30
-5.4178883601707683e-14
11
223.72991849665115
21
102.72499999999404
31
-5.3290705182007905e-14
0
ARC
5
173
100
AcDbEntity
8
0
100
AcDbCircle
10
223.72991849665107
20
101.12499999999406
30
-5.9952043329758453e-14
40
1.5999999999999837
210
-3.1414984821927478e-28
220
-4.1633363423441327e-15
230
1
100
AcDbArc
50
89.999999999996945
51
180
0
LINE
5
174
100
AcDbEntity
8
0
100
AcDbLine
10
222.12991849665104
20
101.12499999999407
30
-5.9952043329758466e-14
11
222.12991849665104
21
98.32499999999402
31
-5.4053983511437309e-14
0
ARC
5
175
100
AcDbEntity
8
0
100
AcDbCircle
10
223.72991849665109
20
98.32499999999402
30
-5.773159728050814e-14
40
1.6000000000000369
210
2.2985086056692165e-15
220
5.5511151231257837e-16
230
1
100
AcDbArc
50
180
51
256.22585300197062
0
ARC
5
176
100
AcDbEntity
8
0
100
AcDbCircle
10
223.22991849665101
20
96.285392194556891
30
-5.3290705182007514e-14
40
0.50000000000000711
210
-0
220
5.2735593669694946e-16
230
1
100
AcDbArc
50
0
51
76.225853001972681
0
LINE
5
177
100
AcDbEntity
8
0
100
AcDbLine
10
223.72991849665101
20
96.285392194556891
30
-5.3290705182007514e-14
11
223.72991849665107
21
96.224999999994324
31
-5.3259263319005434e-14
0
ARC
5
178
100
AcDbEntity
8
0
100
AcDbCircle
10
223.22991849665104
20
96.22499999999431
30
-4.6629367034256575e-14
40
0.50000000000000711
210
4.7236371092664564e-31
220
5.5511151231257038e-16
230
1
100
AcDbArc
50
-90
51
0
0
LINE
5
179
100
AcDbEntity
8
0
100
AcDbLine
10
223.22991849665104
20
95.724999999994296
30
-4.6351811278100286e-14
11
213.6909747911898
21
95.724999999994651
31
-5.5511151231257985e-14
0
SPLINE
5
180
100
AcDbEntity
8
0
100
AcDbSpline
70
0
71
3
72
12
73
8
74
0
42
0.000000001
43
0.0000000001
44
0.0000000001
40
0
40
0
40
0
40
0
40
0.062503115741910684
40
0.062503115741910684
40
0.12500623148381607
40
0.12500623148381607
40
0.18397262132688491
40
0.18397262132688491
40
0.18397262132688491
40
0.18397262132688491
10
212.23295065633931
20
94.783912454113732
30
-5.5511151231257827e-14
10
212.31875082588846
20
94.973768810895095
30
-5.3290705182007514e-14
10
212.440813867309
20
95.145051356400927
30
-5.5511151231257827e-14
10
212.74372456871953
20
95.431186863094538
30
-5.5511151231257827e-14
10
212.92167623730484
20
95.543304212882532
30
-4.8849813083506888e-14
10
213.29953760547988
20
95.688780884045443
30
-5.5511151231257827e-14
10
213.49442015837957
20
95.724999999994623
30
-5.3290705182007514e-14
10
213.6909747911898
20
95.724999999994594
30
-5.3290705182007514e-14
0
SPLINE
5
181
100
AcDbEntity
8
0
100
AcDbSpline
70
0
71
3
72
20
73
16
74
0
42
0.000000001
43
0.0000000001
44
0.0000000001
40
0.11952017763162127
40
0.11952017763162127
40
0.11952017763162127
40
0.11952017763162127
40
0.17130809447179465
40
0.17130809447179465
40
0.30526486851660173
40
0.30526486851660173
40
0.41271305107841794
40
0.41271305107841794
40
0.50910068585613688
40
0.50910068585613688
40
0.60557338822037254
40
0.60557338822037254
40
0.72094773421008507
40
0.72094773421008507
40
0.83602065572690798
40
0.83602065572690798
40
0.83602065572690798
40
0.83602065572690798
10
212.23295065633931
20
94.783912454113732
30
-5.5511151231257827e-14
10
212.16633465673738
20
94.636506323633711
30
-5.3290705182007514e-14
10
212.09175100802304
20
94.495495283668944
30
-4.8849813083506888e-14
10
211.79699759997061
20
94.017123231961392
30
-4.8849813083506888e-14
10
211.53960325236977
20
93.732537259760278
30
-5.3290705182007514e-14
10
211.01705566963207
20
93.351347988776539
30
-5.3290705182007514e-14
10
210.75789758308701
20
93.224797252948036
30
-5.1070259132757201e-14
10
210.22809642952842
20
93.097036270999894
30
-5.3290705182007514e-14
10
209.97138769063866
20
93.086818218038701
30
-5.3290705182007514e-14
10
209.46250377014786
20
93.169398025944886
30
-4.8849813083506888e-14
10
209.22089920431119
20
93.26049057943078
30
-4.8849813083506888e-14
10
208.73174789368804
20
93.547423371525298
30
-5.1070259132757201e-14
10
208.49908951199205
20
93.756080838748304
30
-4.6629367034256575e-14
10
208.10568907143187
20
94.233282755607547
30
-5.1070259132757201e-14
10
207.94460875057356
20
94.501652356071304
30
-5.3290705182007514e-14
10
207.81704934366417
20
94.78391245411386
30
-5.5511151231257827e-14
0
SPLINE
5
182
100
AcDbEntity
8
0
100
AcDbSpline
70
0
71
3
72
12
73
8
74
0
42
0.000000001
43
0.0000000001
44
0.0000000001
40
0
40
0
40
0
40
0
40
0.062503115741909171
40
0.062503115741909171
40
0.12500623148381676
40
0.12500623148381676
40
0.18397262132688308
40
0.18397262132688308
40
0.18397262132688308
40
0.18397262132688308
10
206.35902520881353
20
95.724999999994793
30
-5.3290705182007514e-14
10
206.56736892795323
20
95.724999999994793
30
-5.3290705182007514e-14
10
206.77372076758184
20
95.684305838771422
30
-5.3290705182007514e-14
10
207.1592108352333
20
95.526110298499574
30
-5.1070259132757201e-14
10
207.33466356810118
20
95.410121355039337
30
-5.5511151231257827e-14
10
207.6228423549976
20
95.125699727530687
30
-5.3290705182007514e-14
10
207.73610415899324
20
94.963025828147636
30
-5.1070259132757201e-14
10
207.81704934366417
20
94.78391245411386
30
-5.5511151231257827e-14
0
LINE
5
183
100
AcDbEntity
8
0
100
AcDbLine
10
206.35902520881353
20
95.724999999994793
30
-5.3290705182007514e-14
11
196.8200815033538
21
95.724999999994779
31
-5.329070518200752e-14
0
ARC
5
184
100
AcDbEntity
8
0
100
AcDbCircle
10
196.82008150335383
20
96.224999999994765
30
-5.3290705182007514e-14
40
0.50000000000000711
210
-1.5777218104420012e-29
220
5.2735593669694946e-16
230
1
100
AcDbArc
50
180
51
269.99999999999676
0
LINE
5
185
100
AcDbEntity
8
0
100
AcDbLine
10
196.32008150335383
20
96.224999999994765
30
-5.329070518200752e-14
11
196.32008150335383
21
96.285392194557303
31
-5.7764123345682705e-14
0
ARC
5
186
100
AcDbEntity
8
0
100
AcDbCircle
10
196.82008150335383
20
96.285392194557303
30
-5.3290705182007514e-14
40
0.50000000000000711
210
9.0950669723910063e-18
220
5.1662299435608445e-16
230
1
100
AcDbArc
50
103.77414699802694
51
180
0
ARC
5
187
100
AcDbEntity
8
0
100
AcDbCircle
10
196.32008150335392
20
98.324999999994432
30
-5.1070259132757201e-14
40
1.599999999999999
210
4.9564369904391205e-16
220
-1.4681137810398705e-15
230
1
100
AcDbArc
50
283.77414699802358
51
360
0
LINE
5
188
100
AcDbEntity
8
0
100
AcDbLine
10
197.92008150335394
20
98.324999999994404
30
-5.1095384792528524e-14
11
197.92008150335397
21
101.12499999999436
31
-5.2666204730655863e-14
0
ARC
5
189
100
AcDbEntity
8
0
100
AcDbCircle
10
196.32008150335398
20
101.12499999999449
30
-5.3290705182007514e-14
40
1.6000000000000014
210
-3.9031278209474028e-16
220
5.2735593669697983e-16
230
1
100
AcDbArc
50
0
51
89.999999999998991
0
LINE
5
190
100
AcDbEntity
8
0
100
AcDbLine
10
196.320081503354
20
102.72499999999448
30
-5.4134474680722629e-14
11
149.52008150335405
21
102.72499999999509
31
-5.9952043329758807e-14
0
ARC
5
191
100
AcDbEntity
8
0
100
AcDbCircle
10
149.52008150335405
20
101.12499999999511
30
-5.5511151231257827e-14
40
1.5999999999999837
210
2.5060341025752817e-29
220
2.7755575615631367e-15
230
1
100
AcDbArc
50
90
51
180
0
LINE
5
192
100
AcDbEntity
8
0
100
AcDbLine
10
147.92008150335406
20
101.12499999999513
30
-5.5511151231257833e-14
11
147.92008150335394
21
98.324999999995114
31
-5.1694759584108851e-14
0
ARC
5
193
100
AcDbEntity
8
0
100
AcDbCircle
10
149.52008150335394
20
98.3249999999951
30
-5.3290705182007514e-14
40
1.6000000000000014
210
9.9746599868666921e-16
220
5.2735593669693841e-16
230
1
100
AcDbArc
50
180
51
256.22585300197238
0
ARC
5
194
100
AcDbEntity
8
0
100
AcDbCircle
10
149.02008150335391
20
96.285392194558014
30
-5.1070259132757201e-14
40
0.50000000000000711
210
3.944304526105003e-30
220
5.5511151231257827e-16
230
1
100
AcDbArc
50
0
51
76.225853001972297
0
LINE
5
195
100
AcDbEntity
8
0
100
AcDbLine
10
149.52008150335391
20
96.285392194558
30
-5.1070259132757195e-14
11
149.52008150335391
21
96.224999999995035
31
-5.5478625166083262e-14
0
ARC
5
196
100
AcDbEntity
8
0
100
AcDbCircle
10
149.02008150335391
20
96.224999999995049
30
-5.3290705182007514e-14
40
0.50000000000000711
210
-5.0358831352078084e-31
220
5.2735593669693555e-16
230
1
100
AcDbArc
50
269.99999999999676
51
360
0
LINE
5
197
100
AcDbEntity
8
0
100
AcDbLine
10
149.02008150335388
20
95.724999999995049
30
-5.3027027213659039e-14
11
137.67991849664944
21
95.724999999995191
31
-5.5511151231257915e-14
0
ARC
5
198
100
AcDbEntity
8
0
100
AcDbCircle
10
137.67991849664946
20
96.224999999995191
30
-5.3290705182007514e-14
40
0.50000000000000711
210
2.958228394578755e-30
220
5.2735593669694946e-16
230
1
100
AcDbArc
50
180
51
269.99999999999676
0
LINE
5
199
100
AcDbEntity
8
0
100
AcDbLine
10
137.17991849664944
20
96.224999999995205
30
-5.329070518200752e-14
11
137.17991849664944
21
96.285392194558085
31
-5.5543677296432392e-14
0
ARC
5
200
100
AcDbEntity
8
0
100
AcDbCircle
10
137.67991849664946
20
96.285392194558057
30
-5.3290705182007514e-14
40
0.50000000000000278
210
2.4865965877207334e-18
220
5.4358036991323554e-16
230
1
100
AcDbArc
50
103.77414699802655
51
180
0
ARC
5
201
100
AcDbEntity
8
0
100
AcDbCircle
10
137.17991849664946
20
98.3249999999952
30
-5.3290705182007514e-14
40
1.6000000000000159
210
1.8076401458409554e-16
220
-1.2536494785109921e-16
230
1
100
AcDbArc
50
283.77414699802659
51
360
0
LINE
5
202
100
AcDbEntity
8
0
100
AcDbLine
10
138.77991849664949
20
98.324999999995185
30
-5.332682318960907e-14
11
138.77991849664943
21
101.12499999999521
31
-5.7037707890117417e-14
0
ARC
5
203
100
AcDbEntity
8
0
100
AcDbCircle
10
137.17991849664944
20
101.12499999999523
30
-5.5511151231257827e-14
40
1.6000000000000014
210
9.5409791178724903e-16
220
5.273559366969389e-16
230
1
100
AcDbArc
50
0
51
89.999999999998991
0
LINE
5
204
100
AcDbEntity
8
0
100
AcDbLine
10
137.17991849664946
20
102.72499999999523
30
-5.6354920729972942e-14
11
90.379918496649481
21
102.72499999999597
31
-5.7731597280508531e-14
0
ARC
5
205
100
AcDbEntity
8
0
100
AcDbCircle
10
90.379918496649466
20
101.12499999999601
30
-5.773159728050814e-14
40
1.5999999999999659
210
-5.8531456975960161e-30
220
2.4651903288157148e-28
230
1
100
AcDbArc
50
89.999999999999503
51
180
0
LINE
5
206
100
AcDbEntity
8
0
100
AcDbLine
10
88.779918496649501
20
101.12499999999596
30
-5.7731597280508115e-14
11
88.779918496649515
21
98.324999999995981
31
-5.1694759584108851e-14
0
ARC
5
207
100
AcDbEntity
8
0
100
AcDbCircle
10
90.379918496649481
20
98.324999999995953
30
-5.773159728050814e-14
40
1.5999999999999659
210
3.7730235602496477e-15
220
5.2735593669686564e-16
230
1
100
AcDbArc
50
180
51
256.22585300196999
0
ARC
5
208
100
AcDbEntity
8
0
100
AcDbCircle
10
89.879918496649367
20
96.285392194558909
30
-5.773159728050814e-14
40
0.50000000000000711
210
-7.888609052210006e-30
220
5.5511151231257827e-16
230
1
100
AcDbArc
50
0
51
76.225853001969128
0
LINE
5
209
100
AcDbEntity
8
0
100
AcDbLine
10
90.379918496649367
20
96.285392194558881
30
-5.7731597280508115e-14
11
90.379918496649367
21
96.224999999997166
31
-5.3258179116832949e-14
0
ARC
5
210
100
AcDbEntity
8
0
100
AcDbCircle
10
89.879918496649367
20
96.224999999997209
30
-5.773159728050814e-14
40
0.50000000000000711
210
3.6663259306975744e-30
220
5.5511151231257038e-16
230
1
100
AcDbArc
50
269.99999999999346
51
360
0
LINE
5
211
100
AcDbEntity
8
0
100
AcDbLine
10
89.87991849664931
20
95.724999999997209
30
-5.7454041524351851e-14
11
80.340974791190007
21
95.724999999998062
31
-5.3290705182007956e-14
0
SPLINE
5
212
100
AcDbEntity
8
0
100
AcDbSpline
70
0
71
3
72
12
73
8
74
0
42
0.000000001
43
0.0000000001
44
0.0000000001
40
0
40
0
40
0
40
0
40
0.062503115741908283
40
0.062503115741908283
40
0.12500623148381784
40
0.12500623148381784
40
0.18397262132692738
40
0.18397262132692738
40
0.18397262132692738
40
0.18397262132692738
10
78.882950656339247
20
94.78391245411683
30
-5.3290705182007514e-14
10
78.968750825888364
20
94.973768810898193
30
-5.5511151231257827e-14
10
79.090813867308867
20
95.145051356404068
30
-5.5511151231257827e-14
10
79.393724568719307
20
95.431186863097793
30
-5.3290705182007514e-14
10
79.571676237304672
20
95.543304212885772
30
-5.5511151231257827e-14
10
79.949537605479833
20
95.688780884048796
30
-5.5511151231257827e-14
10
80.144420158379646
20
95.724999999998062
30
-5.1070259132757201e-14
10
80.340974791190007
20
95.724999999998047
30
-5.3290705182007514e-14
0
SPLINE
5
213
100
AcDbEntity
8
0
100
AcDbSpline
70
0
71
3
72
20
73
16
74
0
42
0.000000001
43
0.0000000001
44
0.0000000001
40
0.11952017763166831
40
0.11952017763166831
40
0.11952017763166831
40
0.11952017763166831
40
0.17130809447186049
40
0.17130809447186049
40
0.30526486851733964
40
0.30526486851733964
40
0.41271305108012724
40
0.41271305108012724
40
0.50910068585872148
40
0.50910068585872148
40
0.60557338822382012
40
0.60557338822382012
40
0.72094773421453462
40
0.72094773421453462
40
0.83602065573260009
40
0.83602065573260009
40
0.83602065573260009
40
0.83602065573260009
10
78.882950656339261
20
94.783912454116845
30
-5.773159728050814e-14
10
78.81633465673734
20
94.636506323636695
30
-5.5511151231257827e-14
10
78.741751008023058
20
94.495495283671929
30
-5.3290705182007514e-14
10
78.446997599969762
20
94.017123231962614
30
-5.3290705182007514e-14
10
78.189603252368613
20
93.732537259761983
30
-5.3290705182007514e-14
10
77.667055669632177
20
93.351347988778826
30
-5.1070259132757201e-14
10
77.407897583087106
20
93.224797252950367
30
-5.3290705182007514e-14
10
76.878096429528441
20
93.09703627100204
30
-5.1070259132757201e-14
10
76.621387690638642
20
93.086818218040776
30
-5.5511151231257827e-14
10
76.112503770147853
20
93.169398025946776
30
-5.3290705182007514e-14
10
75.870899204311229
20
93.26049057943257
30
-5.5511151231257827e-14
10
75.381747893688114
20
93.547423371526918
30
-5.1070259132757201e-14
10
75.149089511992116
20
93.756080838749767
30
-5.5511151231257827e-14
10
74.755689071431334
20
94.233282755609451
30
-5.5511151231257827e-14
10
74.594608750572718
20
94.50165235607389
30
-5.5511151231257827e-14
10
74.46704934366322
20
94.783912454116916
30
-5.3290705182007514e-14
0
SPLINE
5
214
100
AcDbEntity
8
0
100
AcDbSpline
70
0
71
3
72
12
73
8
74
0
42
0.000000001
43
0.0000000001
44
0.0000000001
40
0
40
0
40
0
40
0
40
0.062503115741908033
40
0.062503115741908033
40
0.12500623148381734
40
0.12500623148381734
40
0.18397262132692815
40
0.18397262132692815
40
0.18397262132692815
40
0.18397262132692815
10
73.009025208812488
20
95.724999999998275
30
-5.3290705182007514e-14
10
73.21736892795218
20
95.724999999998275
30
-5.3290705182007514e-14
10
73.423720767580804
20
95.684305838774847
30
-5.3290705182007514e-14
10
73.80921083523225
20
95.526110298502971
30
-5.3290705182007514e-14
10
73.984663568100061
20
95.410121355042776
30
-5.5511151231257827e-14
10
74.27284235499657
20
95.125699727534027
30
-5.3290705182007514e-14
10
74.38610415899231
20
94.963025828150833
30
-5.3290705182007514e-14
10
74.46704934366322
20
94.783912454116887
30
-5.5511151231257827e-14
0
LINE
5
215
100
AcDbEntity
8
0
100
AcDbLine
10
73.009025208812488
20
95.724999999998275
30
-5.3290705182007514e-14
11
63.470081503352276
21
95.724999999997706
31
-5.5511151231257575e-14
0
ARC
5
216
100
AcDbEntity
8
0
100
AcDbCircle
10
63.470081503352247
20
96.224999999997721
30
-5.5511151231257827e-14
40
0.49999999999999822
210
1.2818989709841484e-29
220
5.2735593669694946e-16
230
1
100
AcDbArc
50
180
51
270.00000000000324
0
LINE
5
217
100
AcDbEntity
8
0
100
AcDbLine
10
62.970081503352247
20
96.224999999997692
30
-5.5511151231257814e-14
11
62.970081503352247
21
96.285392194559307
31
-5.5542593094259907e-14
0
ARC
5
218
100
AcDbEntity
8
0
100
AcDbCircle
10
63.470081503352247
20
96.285392194559336
30
-5.773159728050814e-14
40
0.500000000000005
210
2.4865965877199453e-18
220
5.4358036991323534e-16
230
1
100
AcDbArc
50
103.77414699802655
51
180
0
ARC
5
219
100
AcDbEntity
8
0
100
AcDbCircle
10
62.970081503352276
20
98.324999999996407
30
-5.9952043329758453e-14
40
1.5999999999999406
210
-1.6313819242816909e-16
220
1.2191995948146248e-15
230
1
100
AcDbArc
50
283.7741469980262
51
360
0
LINE
5
220
100
AcDbEntity
8
0
100
AcDbLine
10
64.570081503352228
20
98.324999999996393
30
-5.9966595436914269e-14
11
64.57008150335237
21
101.1249999999964
31
-6.1409211049578971e-14
0
ARC
5
221
100
AcDbEntity
8
0
100
AcDbCircle
10
62.970081503352404
20
101.1249999999964
30
-5.5511151231257827e-14
40
1.5999999999999659
210
3.686287386450794e-15
220
5.2735593669694946e-16
230
1
100
AcDbArc
50
0
51
89.999999999999744
0
LINE
5
222
100
AcDbEntity
8
0
100
AcDbLine
10
62.970081503352411
20
102.72499999999637
30
-5.635492072997293e-14
11
16.170081503352385
21
102.72499999999712
31
-5.3290705182007924e-14
0
ARC
5
223
100
AcDbEntity
8
0
100
AcDbCircle
10
16.170081503352399
20
101.12499999999713
30
-5.773159728050814e-14
40
1.6000000000000014
210
2.278337213430752e-29
220
-2.7755575615626326e-15
230
1
100
AcDbArc
50
90.000000000000512
51
180
0
LINE
5
224
100
AcDbEntity
8
0
100
AcDbLine
10
14.570081503352361
20
101.12499999999714
30
-5.7731597280508153e-14
11
14.570081503352279
21
98.324999999997146
31
-5.6135651682609478e-14
0
ARC
5
225
100
AcDbEntity
8
0
100
AcDbCircle
10
16.170081503352282
20
98.324999999997118
30
-5.3290705182007514e-14
40
1.6000000000000036
210
-1.7780915628762115e-15
220
5.273559366969889e-16
230
1
100
AcDbArc
50
180
51
256.22585300197147
0
ARC
5
226
100
AcDbEntity
8
0
100
AcDbCircle
10
15.670081503352215
20
96.285392194560004
30
-5.3290705182007514e-14
40
0.50000000000000044
210
-9.8607613152626308e-30
220
5.2735593669694946e-16
230
1
100
AcDbArc
50
0
51
76.225853001971487
0
LINE
5
227
100
AcDbEntity
8
0
100
AcDbLine
10
16.170081503352215
20
96.285392194559961
30
-5.3290705182007489e-14
11
16.170081503352208
21
96.224999999998602
31
-5.5478625166083262e-14
0
ARC
5
228
100
AcDbEntity
8
0
100
AcDbCircle
10
15.670081503352208
20
96.22499999999863
30
-5.5511151231257827e-14
40
0.50000000000000711
210
7.4661613500655846e-31
220
5.5511151231257038e-16
230
1
100
AcDbArc
50
269.99999999999409
51
360
0
LINE
5
229
100
AcDbEntity
8
0
100
AcDbLine
10
15.670081503352156
20
95.72499999999863
30
-5.5233595475101538e-14
11
2.0750000000023827
21
95.725000000000037
31
-5.107025913275799e-14
0
ARC
5
230
100
AcDbEntity
8
0
100
AcDbCircle
10
2.0750000000023423
20
94.125000000000085
30
-5.5511151231257827e-14
40
1.5999999999999481
210
-8.2644209626187626e-29
220
-2.7755575615624882e-15
230
1
100
AcDbArc
50
89.99999999999855
51
180
0
LINE
5
231
100
AcDbEntity
8
0
100
AcDbLine
10
0.47500000000239434
20
94.125000000000099
30
-5.551115123125784e-14
11
0.47499999999997267
21
2.0750000000000846
31
-2.2204460492503131e-15
0
ARC
5
232
100
AcDbEntity
8
0
100
AcDbCircle
10
2.0749999999999718
20
2.0750000000000313
30
-2.2204460492503131e-15
40
1.5999999999999992
210
1.8488927466117475e-29
220
5.5511151231257827e-16
230
1
100
AcDbArc
50
180
51
269.99999999999858
0
LINE
5
233
100
AcDbEntity
8
0
100
AcDbLine
10
2.0749999999999322
20
0.47500000000003206
30
-1.3322676295501882e-15
11
15.670081503350897
21
0.47499999999842379
31
-2.2204460492494296e-15
0
ARC
5
234
100
AcDbEntity
8
0
100
AcDbCircle
10
15.67008150335084
20
-0.025000000001576261
30
-2.2204460492503131e-15
40
0.50000000000000044
210
4.3044534257054721e-31
220
5.5511151231257827e-16
230
1
100
AcDbArc
50
0
51
89.999999999993491
0
LINE
5
235
100
AcDbEntity
8
0
100
AcDbLine
10
16.17008150335084
20
-0.025000000001636158
30
-2.2204460492502799e-15
11
16.170081503350833
21
-0.085392194566472693
31
-2.1879199840757479e-15
0
ARC
5
236
100
AcDbEntity
8
0
100
AcDbCircle
10
15.670081503350833
20
-0.085392194566413226
30
-2.2204460492503131e-15
40
0.50000000000000022
210
2.4865965877351806e-18
220
5.4358036991324619e-16
230
1
100
AcDbArc
50
283.77414699802461
51
360
0
ARC
5
237
100
AcDbEntity
8
0
100
AcDbCircle
10
16.170081503350755
20
-2.1250000000035469
30
-2.2204460492503131e-15
40
1.600000000000001
210
1.7402467069479648e-16
220
-1.2701706544727839e-16
230
1
100
AcDbArc
50
103.77414699802451
51
180
0
LWPOLYLINE
5
238
100
AcDbEntity
8
0
100
AcDbPolyline
90
8
70
1
43
0.0
10
155.40000000000214
20
79.699999999996052
42
0.41421356237307944
10
155.90000000000208
20
79.199999999996038
10
168.90000000000208
20
79.199999999995683
42
0.41421356237300133
10
169.40000000000208
20
79.69999999999564
10
169.40000000000239
20
92.69999999999564
42
0.4142135623730534
10
168.90000000000245
20
93.199999999995612
10
155.90000000000248
20
93.199999999996038
42
0.41421356237304296
10
155.40000000000245
20
92.699999999996052
0
LWPOLYLINE
5
239
100
AcDbEntity
8
0
100
AcDbPolyline
90
8
70
1
43
0.0
10
78.412500000000563
20
22.049999999998047
42
0.41421356237308465
10
78.912500000000563
20
22.549999999998033
10
78.912500000000918
20
35.549999999998022
42
0.4142135623731002
10
78.412500000000918
20
36.049999999998043
10
65.412500000000932
20
36.049999999998398
42
0.41421356237307944
10
64.912500000000918
20
35.549999999998413
10
64.912500000000563
20
22.54999999999842
42
0.41421356237308982
10
65.412500000000534
20
22.049999999998391
0
LWPOLYLINE
5
240
100
AcDbEntity
8
0
100
AcDbPolyline
90
8
70
1
43
0.0
10
64.625000000001904
20
73.649999999998442
42
0.41421356237310542
10
64.125000000001918
20
74.149999999998471
10
51.125000000001918
20
74.149999999998769
42
0.41421356237310542
10
50.625000000001904
20
73.649999999998784
10
50.625000000001563
20
60.649999999998805
42
0.4142135623731002
10
51.125000000001535
20
60.149999999998784
10
64.125000000001549
20
60.149999999998442
42
0.4142135623731002
10
64.625000000001563
20
60.649999999998428
0
LWPOLYLINE
5
241
100
AcDbEntity
8
0
100
AcDbPolyline
90
8
70
1
43
0.0
10
170.18750000000139
20
55.099999999995646
42
0.41421356237310542
10
169.68750000000136
20
54.599999999995667
10
169.68750000000108
20
41.599999999995646
42
0.41421356237309509
10
170.18750000000102
20
41.099999999995603
10
183.18750000000108
20
41.099999999995298
42
0.41421356237300661
10
183.68750000000105
20
41.599999999995276
10
183.68750000000142
20
54.599999999995283
42
0.41421356237311063
10
183.18750000000148
20
55.099999999995354
0
LWPOLYLINE
5
242
100
AcDbEntity
8
0
100
AcDbPolyline
90
9
70
1
43
0.0
10
196.99818491149745
20
2.5238095238044416
42
0.011909828720842364
10
197.00000000000006
20
2.5999999999949126
10
197.00000000000051
20
17.499999999994941
42
-0.41421356237307161
10
197.50000000000054
20
17.99999999999492
10
203.50000000000054
20
17.999999999994788
42
-0.41421356237311457
10
204.00000000000057
20
17.499999999994749
10
204.00000000000011
20
2.4999999999947442
42
-0.41421356237313067
10
203.50000000000011
20
1.9999999999947493
10
197.49761769634037
20
1.9999999999948921
42
-0.42823597016994058
0
LWPOLYLINE
5
243
100
AcDbEntity
8
0
100
AcDbPolyline
90
8
70
1
43
0.0
10
126.0375000000011
20
41.099999999996797
42
0.41421356237306384
10
126.5375000000011
20
41.599999999996783
10
126.53750000000144
20
54.599999999996776
42
0.41421356237308982
10
126.03750000000144
20
55.099999999996811
10
113.03750000000143
20
55.099999999997138
42
0.41421356237304296
10
112.53750000000142
20
54.599999999997152
10
112.53750000000109
20
41.599999999997152
42
0.41421356237312101
10
113.03750000000113
20
41.099999999997124
0
LWPOLYLINE
5
244
100
AcDbEntity
8
0
100
AcDbPolyline
90
8
70
1
43
0.0
10
221.78750000000144
20
54.599999999994282
42
0.41421356237308465
10
221.28750000000153
20
55.099999999994303
10
208.28750000000142
20
55.099999999994644
42
0.41421356237310542
10
207.78750000000142
20
54.599999999994672
10
207.7875000000011
20
41.599999999994651
42
0.4142135623731002
10
208.28750000000105
20
41.099999999994623
10
221.2875000000011
20
41.09999999999431
42
0.41421356237300661
10
221.78750000000107
20
41.599999999994282
0
LWPOLYLINE
5
245
100
AcDbEntity
8
0
100
AcDbPolyline
90
8
70
1
43
0.0
10
49.981250000000408
20
16.999999999998789
42
0.41421356237310802
10
49.481250000000365
20
16.499999999998799
10
49.481250000000074
20
3.4999999999987859
42
0.41421356237306445
10
49.981250000000045
20
2.9999999999987614
10
50.981250000000045
20
2.9999999999987379
42
0.41421356237311552
10
51.48125000000006
20
3.4999999999987241
10
51.481250000000387
20
16.499999999998746
42
0.41421356237307161
10
50.981250000000415
20
16.999999999998757
0
LWPOLYLINE
5
246
100
AcDbEntity
8
0
100
AcDbPolyline
90
16
70
1
43
0.0
10
103.83850809664624
20
18.000000423400838
42
0.34199871687993066
10
105.77499977648301
20
16.500000397323696
10
109.53844569615694
20
16.500000397323685
42
-0.10314796225363669
10
110.33775095004243
20
16.333333730656999
42
0.10314796225363863
10
111.93636145781333
20
16.000000397323632
10
118.77500000000049
20
16.000000397323525
42
0.99999999999999989
10
118.77500000000049
20
17.000000397323522
10
112.91142905583057
20
17.000000397323664
42
-0.34199871687995376
10
110.97493737599382
20
18.500000423400763
42
0.34199871687994599
10
109.03844569615705
20
20.000000449477881
10
105.27499977648313
20
20.000000449477934
42
-0.10314796225362906
10
104.47569452259765
20
20.166667116144609
42
0.1031479622536428
10
102.87708401482674
20
20.500000449477952
10
94.749997064471927
20
20.500000449477952
42
0.99999999999999989
10
94.749997064471955
20
19.500000449478044
10
101.9020164168095
20
19.500000449477966
42
-0.34199871687994887
0
LWPOLYLINE
5
247
100
AcDbEntity
8
0
100
AcDbPolyline
90
8
70
1
43
0.0
10
46.362500000000907
20
36.049999999998889
42
0.41421356237307161
10
45.862500000000885
20
35.549999999998903
10
45.862500000000551
20
22.549999999998906
42
0.41421356237308726
10
46.362500000000509
20
22.049999999998889
10
59.362500000000544
20
22.049999999998555
42
0.41421356237307427
10
59.862500000000558
20
22.54999999999853
10
59.862500000000907
20
35.549999999998519
42
0.4142135623731002
10
59.362500000000907
20
36.049999999998541
0
LWPOLYLINE
5
248
100
AcDbEntity
8
0
100
AcDbPolyline
90
8
70
1
43
0.0
10
121.77500000000195
20
73.649999999996922
42
0.41421356237311585
10
121.27500000000197
20
74.14999999999695
10
108.27500000000194
20
74.149999999997249
42
0.41421356237304296
10
107.77500000000191
20
73.649999999997306
10
107.77500000000158
20
60.649999999997306
42
0.41421356237311063
10
108.27500000000163
20
60.14999999999727
10
121.2750000000016
20
60.14999999999695
42
0.41421356237304818
10
121.77500000000163
20
60.649999999996922
0
LWPOLYLINE
5
249
100
AcDbEntity
8
0
100
AcDbPolyline
90
8
70
1
43
0.0
10
89.225000000001913
20
74.149999999997775
42
0.4142135623731002
10
88.725000000001899
20
73.649999999997803
10
88.725000000001558
20
60.649999999997803
42
0.41421356237316787
10
89.225000000001586
20
60.149999999997775
10
102.22500000000159
20
60.149999999997448
42
0.414213562373069
10
102.72500000000159
20
60.649999999997419
10
102.72500000000194
20
73.649999999997419
42
0.4142135623731002
10
102.22500000000193
20
74.149999999997448
0
LWPOLYLINE
5
250
100
AcDbEntity
8
0
100
AcDbPolyline
90
16
70
1
43
0.0
10
167.92500000000041
20
17.000000397322779
42
0.99999999999999989
10
167.92500000000041
20
16.000000397322779
10
174.76363854218749
20
16.00000039732268
42
0.10314796225365627
10
176.36224904995854
20
16.333333730656001
42
-0.10314796225361772
10
177.16155430384393
20
16.500000397322641
10
180.92500022351788
20
16.50000039732258
42
0.34199871687993455
10
182.86149190335468
20
18.000000423399662
42
-0.34199871687993794
10
184.79798358319147
20
19.500000449476708
10
191.95000293552906
20
19.50000044947658
42
0.99999999999999989
10
191.95000293552906
20
20.500000449476477
10
183.82291598517426
20
20.500000449476744
42
0.10314796225364602
10
182.22430547740328
20
20.166667116143401
42
-0.10314796225363501
10
181.42500022351783
20
20.000000449476786
10
177.66155430384399
20
20.000000449476847
42
0.3419987168799532
10
175.72506262400719
20
18.500000423399761
42
-0.34199871687996009
10
173.78857094417032
20
17.000000397322687
0
LWPOLYLINE
5
251
100
AcDbEntity
8
0
100
AcDbPolyline
90
8
70
1
43
0.0
10
236.90937500000101
20
36.049999999993894
42
0.41421356237307683
10
236.40937500000098
20
35.549999999993901
10
236.40937500000067
20
22.549999999993915
42
0.41421356237314189
10
236.90937500000069
20
22.049999999993876
10
237.90937500000058
20
22.049999999993865
42
0.41421356237304296
10
238.40937500000064
20
22.549999999993851
10
238.40937500000098
20
35.549999999993844
42
0.41421356237308982
10
237.90937500000101
20
36.049999999993886
0
LWPOLYLINE
5
252
100
AcDbEntity
8
0
100
AcDbPolyline
90
8
70
1
43
0.0
10
3.5000000000018394
20
74.15000000000002
42
0.41421356237306217
10
3.0000000000018261
20
73.650000000000034
10
3.0000000000014864
20
60.650000000000041
42
0.41421356237309509
10
3.5000000000014744
20
60.15000000000002
10
4.5000000000014664
20
60.149999999999999
42
0.41421356237307227
10
5.0000000000014957
20
60.649999999999977
10
5.0000000000018279
20
73.649999999999977
42
0.41421356237310836
10
4.5000000000018412
20
74.149999999999991
0
LWPOLYLINE
5
253
100
AcDbEntity
8
0
100
AcDbPolyline
90
8
70
1
43
0.0
10
45.075000000000045
20
2.9999999999988924
42
0.41421356237309731
10
45.575000000000053
20
3.499999999998884
10
45.575000000000372
20
16.499999999998895
42
0.41421356237307289
10
45.075000000000394
20
16.999999999998913
10
32.075000000000387
20
16.999999999999257
42
0.41421356237310281
10
31.575000000000365
20
16.499999999999268
10
31.575000000000028
20
3.4999999999992464
42
0.41421356237309337
10
32.075000000000017
20
2.9999999999992353
0
LWPOLYLINE
5
254
100
AcDbEntity
8
0
100
AcDbPolyline
90
8
70
1
43
0.0
10
212.55000000000209
20
79.699999999994532
42
0.41421356237312101
10
213.05000000000209
20
79.199999999994489
10
226.05000000000211
20
79.199999999994176
42
0.41421356237309509
10
226.55000000000211
20
79.699999999994162
10
226.55000000000243
20
92.699999999994191
42
0.4142135623730534
10
226.05000000000257
20
93.199999999994191
10
213.05000000000246
20
93.199999999994532
42
0.41421356237312629
10
212.55000000000248
20
92.699999999994546
0
LWPOLYLINE
5
255
100
AcDbEntity
8
0
100
AcDbPolyline
90
8
70
1
43
0.0
10
92.700000000002063
20
79.199999999997686
42
0.41421356237305862
10
93.200000000002063
20
79.69999999999763
10
93.200000000002404
20
92.699999999997658
42
0.41421356237306384
10
92.700000000002404
20
93.199999999997658
10
79.700000000002433
20
93.199999999998013
42
0.41421356237306384
10
79.200000000002404
20
92.699999999998084
10
79.200000000002063
20
79.699999999998042
42
0.41421356237309509
10
79.700000000002035
20
79.199999999998028
0
LWPOLYLINE
5
256
100
AcDbEntity
8
0
100
AcDbPolyline
90
8
70
1
43
0.0
10
283.20000000000169
20
60.14999999999268
42
0.41421356237312629
10
283.70000000000169
20
60.649999999992659
10
283.70000000000209
20
73.649999999992673
42
0.4142135623731471
10
283.20000000000209
20
74.149999999992744
10
282.20000000000203
20
74.14999999999273
42
0.41421356237308465
10
281.70000000000203
20
73.64999999999273
10
281.70000000000169
20
60.649999999992723
42
0.41421356237311585
10
282.20000000000169
20
60.14999999999268
0
LWPOLYLINE
5
257
100
AcDbEntity
8
0
100
AcDbPolyline
90
8
70
1
43
0.0
10
184.47500000000201
20
74.149999999995259
42
0.41421356237313145
10
183.97500000000196
20
73.649999999995288
10
183.97500000000161
20
60.649999999995302
42
0.4142135623731471
10
184.47500000000164
20
60.149999999995252
10
197.47500000000167
20
60.149999999994932
42
0.41421356237313667
10
197.97500000000167
20
60.649999999994932
10
197.97500000000198
20
73.649999999994918
42
0.41421356237313667
10
197.47500000000198
20
74.149999999994904
0
LWPOLYLINE
5
258
100
AcDbEntity
8
0
100
AcDbPolyline
90
8
70
1
43
0.0
10
240.83750000000146
20
54.599999999993798
42
0.41421356237308465
10
240.33750000000154
20
55.099999999993827
10
227.33750000000143
20
55.099999999994154
42
0.41421356237310542
10
226.83750000000143
20
54.599999999994175
10
226.83750000000111
20
41.599999999994168
42
0.41421356237310542
10
227.33750000000106
20
41.099999999994132
10
240.33750000000111
20
41.099999999993813
42
0.41421356237299617
10
240.83750000000111
20
41.59999999999377
0
LWPOLYLINE
5
259
100
AcDbEntity
8
0
100
AcDbPolyline
90
14
70
1
43
0.0
10
214.28750000000011
20
4.5249999999945114
42
0.41421356237307616
10
214.78750000000016
20
5.0249999999945079
10
214.78750000000034
20
16.769351637918163
42
0.21953238677635725
10
214.61204188381726
20
17.149710107849589
10
210.79646817086311
20
20.405358604037605
42
0.17845378542154289
10
210.47192628704622
20
20.525000134106204
10
197.00000293552907
20
20.525000134106406
42
0.99999999999999989
10
197.00000293552907
20
19.525000134106417
10
203.63059216540094
20
19.525000134106275
42
-0.19037512800479775
10
203.97232360031762
20
19.389992772922156
10
206.3667314349172
20
17.148182012715679
42
-0.20747758985080775
10
206.52500000000046
20
16.783189373899816
10
206.52500000000029
20
5.0249999999946384
42
0.41421356237310542
10
207.02500000000029
20
4.5249999999946153
0
LWPOLYLINE
5
260
100
AcDbEntity
8
0
100
AcDbPolyline
90
8
70
1
43
0.0
10
26.168750000000387
20
16.99999999999941
42
0.41421356237309759
10
25.668750000000369
20
16.499999999999421
10
25.668750000000028
20
3.4999999999993996
42
0.41421356237309309
10
26.168750000000006
20
2.9999999999993938
10
27.168750000000014
20
2.9999999999993623
42
0.41421356237310319
10
27.668750000000021
20
3.4999999999993481
10
27.668750000000372
20
16.499999999999385
42
0.41421356237308854
10
27.16875000000039
20
16.999999999999385
0
LWPOLYLINE
5
261
100
AcDbEntity
8
0
100
AcDbPolyline
90
8
70
1
43
0.0
10
30.740625000001017
20
41.099999999999284
42
0.41421356237308982
10
31.240625000001025
20
41.599999999999284
10
31.240625000001366
20
54.599999999999284
42
0.41421356237308465
10
30.740625000001383
20
55.099999999999277
10
29.740625000001387
20
55.099999999999326
42
0.41421356237308204
10
29.240625000001369
20
54.599999999999369
10
29.240625000001028
20
41.599999999999326
42
0.41421356237308726
10
29.740625000001017
20
41.099999999999326
0
LWPOLYLINE
5
262
100
AcDbEntity
8
0
100
AcDbPolyline
90
8
70
1
43
0.0
10
178.92500000000194
20
73.649999999995416
42
0.41421356237312101
10
178.42500000000194
20
74.149999999995472
10
165.425000000002
20
74.149999999995771
42
0.41421356237313145
10
164.92500000000194
20
73.649999999995799
10
164.9250000000016
20
60.649999999995799
42
0.41421356237312101
10
165.4250000000016
20
60.149999999995742
10
178.42500000000157
20
60.149999999995451
42
0.414213562373069
10
178.92500000000157
20
60.649999999995416
0
LWPOLYLINE
5
263
100
AcDbEntity
8
0
100
AcDbPolyline
90
8
70
1
43
0.0
10
16.500000000002007
20
79.199999999999676
42
0.41421356237305862
10
17.000000000002014
20
79.699999999999648
10
17.000000000002355
20
92.699999999999676
42
0.41421356237314444
10
16.50000000000237
20
93.199999999999676
10
3.5000000000023652
20
93.20000000000006
42
0.414213562373072
10
3.0000000000023448
20
92.700000000000031
10
3.0000000000020046
20
79.700000000000031
42
0.41421356237309731
10
3.5000000000019926
20
79.200000000000003
0
LWPOLYLINE
5
264
100
AcDbEntity
8
0
100
AcDbPolyline
90
7
70
1
43
0.0
10
133.32500000000024
20
3.4999999999963576
42
0.99999999999999989
10
134.32500000000044
20
3.4999999999963793
10
134.32500000000047
20
16.499999999996316
42
0.41421356237306772
10
133.82500000000047
20
16.999999999996344
10
123.82500000000049
20
16.999999999996426
42
0.99999999999999989
10
123.82500000000039
20
15.999999999996426
10
133.32500000000044
20
15.999999999996328
0
LWPOLYLINE
5
265
100
AcDbEntity
8
0
100
AcDbPolyline
90
4
70
1
43
0.0
10
62.070081503350764
20
-2.2750000000043409
42
0.99999999999999989
10
62.070081503350764
20
-1.7750000000042985
10
17.07008150335076
20
-1.7750000000035939
42
0.99999999999999989
10
17.07008150335076
20
-2.2750000000036734
0
LWPOLYLINE
5
266
100
AcDbEntity
8
0
100
AcDbPolyline
90
4
70
1
43
0.0
10
269.6299184966511
20
97.974999999993315
42
0.99999999999999989
10
269.62991849665104
20
98.474999999993315
10
224.6299184966511
20
98.474999999994054
42
0.99999999999999989
10
224.6299184966511
20
97.974999999994026
0
LWPOLYLINE
5
267
100
AcDbEntity
8
0
100
AcDbPolyline
90
8
70
1
43
0.0
10
136.85000000000048
20
16.999999999996515
42
0.41421356237307289
10
136.35000000000045
20
16.499999999996525
10
136.35000000000011
20
3.4999999999965059
42
0.41421356237312235
10
136.85000000000011
20
2.9999999999964837
10
149.85000000000011
20
2.9999999999961373
42
0.41421356237310447
10
150.35000000000014
20
3.4999999999961329
10
150.35000000000048
20
16.499999999996152
42
0.41421356237311319
10
149.85000000000045
20
16.999999999996177
0
LWPOLYLINE
5
268
100
AcDbEntity
8
0
100
AcDbPolyline
90
8
70
1
43
0.0
10
5.0000000000003331
20
16.499999999999972
42
0.41421356237309637
10
4.5000000000003464
20
16.999999999999986
10
3.5000000000003464
20
17.000000000000007
42
0.4142135623730937
10
3.0000000000003331
20
16.500000000000021
10
2.9999999999999916
20
3.4999999999999956
42
0.41421356237309598
10
3.4999999999999787
20
2.9999999999999827
10
4.4999999999999805
20
2.9999999999999565
42
0.41421356237308887
10
4.9999999999999938
20
3.4999999999999365
0
LWPOLYLINE
5
269
100
AcDbEntity
8
0
100
AcDbPolyline
90
8
70
1
43
0.0
10
150.35000000000247
20
92.699999999996152
42
0.41421356237309509
10
149.85000000000244
20
93.199999999996166
10
136.85000000000244
20
93.199999999996521
42
0.41421356237309509
10
136.35000000000244
20
92.69999999999655
10
136.3500000000021
20
79.69999999999655
42
0.41421356237313667
10
136.8500000000021
20
79.199999999996521
10
149.8500000000021
20
79.19999999999618
42
0.41421356237308982
10
150.35000000000213
20
79.699999999996152
0
LWPOLYLINE
5
270
100
AcDbEntity
8
0
100
AcDbPolyline
90
4
70
1
43
0.0
10
136.27991849664949
20
97.974999999995319
42
0.99999999999999989
10
136.27991849664943
20
98.474999999995262
10
91.279918496649486
20
98.474999999995916
42
0.99999999999999989
10
91.279918496649444
20
97.974999999996001
0
LWPOLYLINE
5
271
100
AcDbEntity
8
0
100
AcDbPolyline
90
7
70
1
43
0.0
10
91.725000000000293
20
2.500000184798334
42
0.41421367062741005
10
92.225000000000335
20
1.9999999999965179
10
102.22500000000034
20
1.9999999999965323
42
0.99999999999999989
10
102.22500000000042
20
2.9999999999965503
10
92.725000000000378
20
2.9999999999966942
10
92.725000000000477
20
17.49999999999654
42
0.99999999999999989
10
91.725000000000449
20
17.499999999996525
0
LWPOLYLINE
5
272
100
AcDbEntity
8
0
100
AcDbPolyline
90
8
70
1
43
0.0
10
174.45000000000206
20
79.699999999995541
42
0.4142135623731783
10
174.95000000000209
20
79.199999999995498
10
187.95000000000209
20
79.199999999995171
42
0.41421356237299095
10
188.45000000000209
20
79.699999999995157
10
188.4500000000024
20
92.699999999995185
42
0.41421356237311585
10
187.95000000000243
20
93.199999999995242
10
174.95000000000246
20
93.199999999995512
42
0.41421356237315743
10
174.45000000000238
20
92.699999999995555
0
LWPOLYLINE
5
273
100
AcDbEntity
8
0
100
AcDbPolyline
90
9
70
1
43
0.0
10
83.200000000000429
20
17.999999999997915
42
0.41421356237308726
10
82.700000000000387
20
17.499999999997925
10
82.700000000000031
20
2.4999999999979092
42
0.41421356237307161
10
83.200000000000017
20
1.9999999999978897
10
89.202382303659476
20
1.9999999999977383
42
0.42823597016993298
10
89.7018150885024
20
2.5238095238072482
42
-0.011909828720847589
10
89.699999999999775
20
2.5999999999977552
10
89.700000000000429
20
17.499999999997744
42
0.41421356237308204
10
89.2000000000005
20
17.999999999997772
0
LWPOLYLINE
5
274
100
AcDbEntity
8
0
100
AcDbPolyline
90
8
70
1
43
0.0
10
174.16250000000099
20
35.549999999995535
42
0.41421356237314444
10
173.66250000000096
20
36.049999999995556
10
160.66250000000096
20
36.04999999999589
42
0.41421356237300916
10
160.16250000000099
20
35.549999999995897
10
160.16250000000065
20
22.549999999995908
42
0.41421356237312101
10
160.66250000000065
20
22.049999999995869
10
173.66250000000065
20
22.049999999995556
42
0.41421356237312101
10
174.16250000000062
20
22.549999999995535
0
LWPOLYLINE
5
275
100
AcDbEntity
8
0
100
AcDbPolyline
90
4
70
1
43
0.0
10
127.347226379321
20
5.9999999999963833
42
0.99999999999999989
10
127.34722637932103
20
13.999999999996376
10
99.347226379321
20
13.999999999996508
42
0.99999999999999989
10
99.347226379320972
20
5.999999999996481
0
LWPOLYLINE
5
276
100
AcDbEntity
8
0
100
AcDbPolyline
90
8
70
1
43
0.0
10
217.02500000000202
20
73.649999999994421
42
0.41421356237312101
10
216.52500000000202
20
74.149999999994478
10
203.52500000000202
20
74.149999999994776
42
0.41421356237294932
10
203.02500000000205
20
73.649999999994805
10
203.02500000000165
20
60.649999999994797
42
0.41421356237312629
10
203.52500000000165
20
60.149999999994762
10
216.52500000000168
20
60.149999999994428
42
0.41421356237316787
10
217.02500000000168
20
60.649999999994435
0
LWPOLYLINE
5
277
100
AcDbEntity
8
0
100
AcDbPolyline
90
4
70
1
43
0.0
10
159.35277362067978
20
13.999999999995902
42
0.99999999999999989
10
159.35277362067956
20
5.9999999999958948
10
187.35277362067961
20
5.9999999999951452
42
0.99999999999999989
10
187.35277362067978
20
13.999999999995172
0
LWPOLYLINE
5
278
100
AcDbEntity
8
0
100
AcDbPolyline
90
8
70
1
43
0.0
10
278.93750000000045
20
16.499999999992784
42
0.41421356237308327
10
278.43750000000051
20
16.999999999992845
10
265.43750000000045
20
16.999999999993143
42
0.41421356237307289
10
264.9375000000004
20
16.49999999999315
10
264.93750000000011
20
3.4999999999931362
42
0.41421356237313472
10
265.43750000000011
20
2.9999999999931233
10
278.43750000000011
20
2.9999999999927764
42
0.41421356237303908
10
278.93750000000011
20
3.4999999999927645
0
LWPOLYLINE
5
279
100
AcDbEntity
8
0
100
AcDbPolyline
90
4
70
1
43
0.0
10
269.62991849664951
20
-2.2750000000074806
42
0.99999999999999989
10
269.62991849664951
20
-1.7750000000074735
10
224.62991849664951
20
-1.7750000000067891
42
0.99999999999999989
10
224.62991849664951
20
-2.2750000000067963
0
LWPOLYLINE
5
280
100
AcDbEntity
8
0
100
AcDbPolyline
90
8
70
1
43
0.0
10
26.168750000001886
20
74.149999999999437
42
0.41421356237311319
10
25.668750000001875
20
73.649999999999451
10
25.668750000001527
20
60.649999999999444
42
0.41421356237308726
10
26.168750000001516
20
60.149999999999451
10
27.168750000001506
20
60.149999999999409
42
0.41421356237309509
10
27.668750000001523
20
60.649999999999395
10
27.668750000001864
20
73.649999999999395
42
0.41421356237308982
10
27.168750000001882
20
74.149999999999395
0
LWPOLYLINE
5
281
100
AcDbEntity
8
0
100
AcDbPolyline
90
8
70
1
43
0.0
10
135.5625000000006
20
22.049999999996551
42
0.41421356237312362
10
136.0625000000006
20
22.54999999999653
10
136.06250000000097
20
35.54999999999653
42
0.4142135623730222
10
135.56250000000097
20
36.049999999996544
10
122.56250000000095
20
36.049999999996899
42
0.41421356237314444
10
122.06250000000095
20
35.549999999996906
10
122.06250000000061
20
22.549999999996913
42
0.41421356237311585
10
122.56250000000064
20
22.049999999996896
0
LWPOLYLINE
5
282
100
AcDbEntity
8
0
100
AcDbPolyline
90
4
70
1
43
0.0
10
17.070081503352288
20
98.474999999997138
42
0.99999999999999989
10
17.070081503352277
20
97.974999999997095
10
62.070081503352277
20
97.974999999996442
42
0.99999999999999989
10
62.07008150335227
20
98.47499999999647
0
LWPOLYLINE
5
283
100
AcDbEntity
8
0
100
AcDbPolyline
90
8
70
1
43
0.0
10
202.73750000000143
20
54.599999999994779
42
0.41421356237305862
10
202.23750000000152
20
55.099999999994829
10
189.23750000000143
20
55.099999999995141
42
0.4142135623730378
10
188.7375000000014
20
54.599999999995163
10
188.73750000000109
20
41.599999999995148
42
0.41421356237309509
10
189.23750000000103
20
41.099999999995106
10
202.23750000000106
20
41.099999999994807
42
0.41421356237303264
10
202.73750000000109
20
41.599999999994772
0
LWPOLYLINE
5
284
100
AcDbEntity
8
0
100
AcDbPolyline
90
8
70
1
43
0.0
10
68.88750000000104
20
41.099999999998289
42
0.41421356237311063
10
69.387500000001069
20
41.599999999998289
10
69.38750000000141
20
54.599999999998289
42
0.41421356237310542
10
68.88750000000141
20
55.099999999998289
10
55.887500000001452
20
55.099999999998637
42
0.41421356237310542
10
55.38750000000141
20
54.599999999998666
10
55.387500000001069
20
41.599999999998651
42
0.41421356237308465
10
55.88750000000104
20
41.09999999999863
0
LWPOLYLINE
5
285
100
AcDbEntity
8
0
100
AcDbPolyline
90
8
70
1
43
0.0
10
255.12500000000048
20
16.499999999993403
42
0.4142135623731002
10
254.62500000000057
20
16.999999999993417
10
241.62500000000051
20
16.999999999993765
42
0.414213562373069
10
241.12500000000045
20
16.499999999993776
10
241.12500000000011
20
3.4999999999937597
42
0.41421356237312362
10
241.62500000000011
20
2.999999999993705
10
254.62500000000011
20
2.9999999999933995
42
0.41421356237298546
10
255.12500000000017
20
3.499999999993384
0
LWPOLYLINE
5
286
100
AcDbEntity
8
0
100
AcDbPolyline
90
8
70
1
43
0.0
10
88.437500000001421
20
54.599999999997792
42
0.41421356237308982
10
87.93750000000145
20
55.09999999999782
10
74.937500000001464
20
55.099999999998126
42
0.414213562373069
10
74.437500000001435
20
54.599999999998161
10
74.437500000001094
20
41.599999999998161
42
0.41421356237307944
10
74.937500000001066
20
41.099999999998147
10
87.93750000000108
20
41.099999999997806
42
0.41421356237308465
10
88.43750000000108
20
41.599999999997792
0
LWPOLYLINE
5
287
100
AcDbEntity
8
0
100
AcDbPolyline
90
8
70
1
43
0.0
10
212.26250000000101
20
35.549999999994533
42
0.41421356237315227
10
211.76250000000098
20
36.049999999994569
10
198.76250000000101
20
36.049999999994888
42
0.414213562373069
10
198.26250000000101
20
35.54999999999491
10
198.26250000000067
20
22.549999999994906
42
0.41421356237312101
10
198.76250000000067
20
22.049999999994867
10
211.76250000000067
20
22.049999999994551
42
0.41421356237298318
10
212.26250000000067
20
22.549999999994526
0
LWPOLYLINE
5
288
100
AcDbEntity
8
0
100
AcDbPolyline
90
4
70
1
43
0.0
10
150.42008150335238
20
-1.7750000000056816
42
0.99999999999999989
10
150.42008150335243
20
-2.2750000000056176
10
195.42008150335238
20
-2.2750000000062842
42
0.99999999999999989
10
195.42008150335226
20
-1.7750000000063828
0
LWPOLYLINE
5
289
100
AcDbEntity
8
0
100
AcDbPolyline
90
8
70
1
43
0.0
10
116.51250000000059
20
22.049999999997038
42
0.41421356237311846
10
117.01250000000059
20
22.549999999997024
10
117.01250000000093
20
35.54999999999702
42
0.41421356237311063
10
116.51250000000093
20
36.049999999997041
10
103.51250000000093
20
36.049999999997389
42
0.41421356237307944
10
103.01250000000095
20
35.549999999997411
10
103.01250000000059
20
22.549999999997411
42
0.41421356237304818
10
103.51250000000059
20
22.049999999997389
0
LWPOLYLINE
5
290
100
AcDbEntity
8
0
100
AcDbPolyline
90
8
70
1
43
0.0
10
193.21250000000103
20
35.54999999999503
42
0.41421356237304296
10
192.712500000001
20
36.049999999995094
10
179.71250000000097
20
36.049999999995386
42
0.41421356237300133
10
179.212500000001
20
35.549999999995407
10
179.21250000000066
20
22.549999999995403
42
0.41421356237306117
10
179.71250000000069
20
22.049999999995364
10
192.71250000000072
20
22.049999999995048
42
0.41421356237306384
10
193.21250000000066
20
22.54999999999503
0
LWPOLYLINE
5
291
100
AcDbEntity
8
0
100
AcDbPolyline
90
8
70
1
43
0.0
10
83.962500000000546
20
22.549999999997908
42
0.41421356237311585
10
84.462500000000574
20
22.049999999997883
10
97.462500000000588
20
22.049999999997546
42
0.41421356237308204
10
97.96250000000056
20
22.549999999997535
10
97.962500000000929
20
35.549999999997524
42
0.41421356237308726
10
97.462500000000915
20
36.049999999997546
10
84.462500000000915
20
36.049999999997894
42
0.41421356237308204
10
83.962500000000873
20
35.549999999997915
0
LWPOLYLINE
5
292
100
AcDbEntity
8
0
100
AcDbPolyline
90
8
70
1
43
0.0
10
245.60000000000247
20
92.699999999993722
42
0.41421356237301177
10
245.10000000000252
20
93.199999999993736
10
232.10000000000247
20
93.199999999994091
42
0.4142135623731783
10
231.6000000000025
20
92.699999999994048
10
231.6000000000021
20
79.699999999994034
42
0.41421356237315743
10
232.1000000000021
20
79.199999999993977
10
245.10000000000215
20
79.199999999993693
42
0.41421356237315227
10
245.60000000000213
20
79.699999999993665
0
LWPOLYLINE
5
293
100
AcDbEntity
8
0
100
AcDbPolyline
90
8
70
1
43
0.0
10
131.30000000000243
20
92.699999999996663
42
0.41421356237308465
10
130.8000000000024
20
93.199999999996663
10
117.80000000000243
20
93.199999999997019
42
0.41421356237306384
10
117.30000000000243
20
92.699999999997033
10
117.30000000000209
20
79.699999999997019
42
0.41421356237312629
10
117.80000000000209
20
79.199999999997019
10
130.80000000000209
20
79.19999999999672
42
0.41421356237305862
10
131.30000000000209
20
79.699999999996663
0
LWPOLYLINE
5
294
100
AcDbEntity
8
0
100
AcDbPolyline
90
14
70
1
43
0.0
10
89.699997064471916
20
19.525000134108037
42
0.99999999999999989
10
89.699997064471916
20
20.525000134108033
10
76.228073712954796
20
20.52500013410825
42
0.1784537854215468
10
75.903531829137847
20
20.405358604039648
10
72.087958116183614
20
17.14971010785175
42
0.21953238677636058
10
71.912500000000549
20
16.769351637920337
10
71.912500000000406
20
5.0249999999966803
42
0.41421356237310092
10
72.412500000000421
20
4.5249999999966635
10
79.675000000000225
20
4.5249999999965151
42
0.41421356237308204
10
80.175000000000281
20
5.0249999999965533
10
80.175000000000438
20
16.783189373901738
42
-0.2074775898508058
10
80.333268565083742
20
17.148182012717609
10
82.727676399683361
20
19.389992772924021
42
-0.19037512800480039
10
83.069407834600071
20
19.52500013410814
0
LWPOLYLINE
5
295
100
AcDbEntity
8
0
100
AcDbPolyline
90
10
70
1
43
0.0
10
105.60435677585355
20
2.4431645887803533
42
0.99999999999999989
10
105.95548021744195
20
1.5068354112113103
10
109.87058578753027
20
2.9749999999943584
10
117.68925120576499
20
2.9749999999949339
10
121.60435677585352
20
1.5068354112124316
42
0.99999999999999989
10
121.95548021744179
20
2.4431645887815643
10
117.95548021744199
20
3.9431645887807516
42
0.089933963163298061
10
117.77991849664733
20
3.9749999999962942
10
109.7799184966477
20
3.9749999999943575
42
0.089933963163267377
10
109.60435677585406
20
3.9431645887789655
0
LWPOLYLINE
5
296
100
AcDbEntity
8
0
100
AcDbPolyline
90
4
70
1
43
0.0
10
119.35000000000053
20
20.024999999996965
42
0.99999999999999989
10
119.35000000000053
20
19.024999999996972
10
167.35000000000053
20
19.024999999995636
42
0.99999999999999989
10
167.35000000000045
20
20.024999999995615
0
LWPOLYLINE
5
297
100
AcDbEntity
8
0
100
AcDbPolyline
90
8
70
1
43
0.0
10
74.150000000002407
20
92.699999999998141
42
0.41421356237311063
10
73.650000000002422
20
93.199999999998198
10
60.650000000002436
20
93.199999999998525
42
0.41421356237309509
10
60.150000000002407
20
92.699999999998568
10
60.150000000002066
20
79.699999999998553
42
0.4142135623731002
10
60.650000000002038
20
79.199999999998539
10
73.650000000002038
20
79.199999999998184
42
0.4142135623731002
10
74.150000000002066
20
79.69999999999817
0
LWPOLYLINE
5
298
100
AcDbEntity
8
0
100
AcDbPolyline
90
4
70
1
43
0.0
10
91.279918496647966
20
-1.7750000000047814
42
0.99999999999999989
10
91.279918496647937
20
-2.2750000000046464
10
136.27991849664792
20
-2.2750000000053849
42
0.99999999999999989
10
136.27991849664798
20
-1.7750000000054833
0
LWPOLYLINE
5
299
100
AcDbEntity
8
0
100
AcDbPolyline
90
20
70
1
43
0.0
10
275.6130000000021
20
78.699999999992883
42
0.41421356237318346
10
276.1130000000021
20
78.199999999992841
10
282.11300000000205
20
78.199999999992713
42
0.4142135623730378
10
282.6130000000021
20
78.699999999992684
10
282.6130000000021
20
79.199999999992698
10
283.20000000000215
20
79.199999999992684
42
0.41421356237310542
10
283.70000000000221
20
79.69999999999267
10
283.70000000000249
20
92.699999999992727
42
0.41421356237293894
10
283.20000000000266
20
93.199999999992684
10
251.15000000000251
20
93.199999999993551
42
0.41421356237311585
10
250.65000000000242
20
92.699999999993551
10
250.65000000000214
20
79.699999999993523
42
0.41421356237308982
10
251.15000000000211
20
79.199999999993466
10
251.7370000000021
20
79.199999999993508
10
251.7370000000021
20
78.699999999993508
42
0.41421356237320428
10
252.23700000000218
20
78.19999999999348
10
258.23700000000213
20
78.199999999993366
42
0.41421356237304818
10
258.73700000000218
20
78.699999999993338
10
258.73700000000207
20
79.199999999993324
10
275.6130000000021
20
79.199999999992883
0
LWPOLYLINE
5
300
100
AcDbEntity
8
0
100
AcDbPolyline
90
8
70
1
43
0.0
10
260.53125000000011
20
2.9999999999932445
42
0.41421356237298507
10
261.03125000000011
20
3.4999999999932285
10
261.03125000000045
20
16.499999999993253
42
0.4142135623731002
10
260.53125000000051
20
16.99999999999325
10
259.53125000000051
20
16.9999999999933
42
0.41421356237306772
10
259.03125000000045
20
16.499999999993307
10
259.03125000000011
20
3.4999999999932911
42
0.41421356237312362
10
259.53125000000011
20
2.9999999999932356
0
LWPOLYLINE
5
301
100
AcDbEntity
8
0
100
AcDbPolyline
90
8
70
1
43
0.0
10
145.08750000000109
20
41.099999999996292
42
0.41421356237309509
10
145.58750000000111
20
41.599999999996271
10
145.58750000000146
20
54.599999999996285
42
0.41421356237307944
10
145.08750000000148
20
55.099999999996292
10
132.08750000000146
20
55.099999999996648
42
0.41421356237307944
10
131.58750000000146
20
54.599999999996669
10
131.58750000000111
20
41.599999999996641
42
0.41421356237312629
10
132.08750000000111
20
41.099999999996619
0
LWPOLYLINE
5
302
100
AcDbEntity
8
0
100
AcDbPolyline
90
8
70
1
43
0.0
10
140.32500000000155
20
60.149999999996446
42
0.41421356237311585
10
140.82500000000158
20
60.649999999996417
10
140.82500000000195
20
73.649999999996439
42
0.41421356237312629
10
140.32500000000195
20
74.149999999996439
10
127.32500000000195
20
74.149999999996766
42
0.41421356237306384
10
126.82500000000192
20
73.649999999996794
10
126.82500000000159
20
60.649999999996794
42
0.4142135623731471
10
127.32500000000161
20
60.149999999996773
0
LWPOLYLINE
5
303
100
AcDbEntity
8
0
100
AcDbPolyline
90
8
70
1
43
0.0
10
68.887500000000045
20
2.9999999999982685
42
0.41421356237311679
10
69.387500000000074
20
3.4999999999982556
10
69.387500000000387
20
16.499999999998277
42
0.41421356237308854
10
68.887500000000415
20
16.999999999998295
10
55.887500000000408
20
16.999999999998636
42
0.41421356237308854
10
55.387500000000415
20
16.49999999999865
10
55.387500000000074
20
3.4999999999986304
42
0.41421356237309276
10
55.887500000000038
20
2.9999999999986153
0
LWPOLYLINE
5
304
100
AcDbEntity
8
0
100
AcDbPolyline
90
8
70
1
43
0.0
10
24.143750000001354
20
54.599999999999504
42
0.41421356237308465
10
23.643750000001372
20
55.099999999999497
10
5.881250000001371
20
55.099999999999952
42
0.41421356237311258
10
5.3812500000013568
20
54.599999999999973
10
5.3812500000010086
20
41.599999999999973
42
0.4142135623731269
10
5.8812500000009926
20
41.099999999999959
10
23.643750000001006
20
41.099999999999483
42
0.41421356237309759
10
24.143750000001024
20
41.599999999999469
0
LWPOLYLINE
5
305
100
AcDbEntity
8
0
100
AcDbPolyline
90
8
70
1
43
0.0
10
237.21875000000043
20
16.499999999993872
42
0.41421356237308465
10
236.71875000000051
20
16.999999999993861
10
235.71875000000048
20
16.999999999993921
42
0.41421356237306645
10
235.21875000000045
20
16.499999999993928
10
235.21875000000009
20
3.4999999999939146
42
0.41421356237312301
10
235.71875000000009
20
2.9999999999938605
10
236.71875000000006
20
2.9999999999938689
42
0.41421356237307516
10
237.21875000000011
20
3.4999999999938614
0
LWPOLYLINE
5
306
100
AcDbEntity
8
0
100
AcDbPolyline
90
8
70
1
43
0.0
10
259.53125000000205
20
74.149999999993298
42
0.41421356237294416
10
259.03125000000205
20
73.649999999993327
10
259.03125000000165
20
60.649999999993327
42
0.41421356237311585
10
259.53125000000165
20
60.149999999993298
10
260.53125000000159
20
60.149999999993284
42
0.4142135623731002
10
261.03125000000165
20
60.649999999993284
10
261.03125000000199
20
73.64999999999327
42
0.41421356237311063
10
260.53125000000199
20
74.149999999993327
0
LWPOLYLINE
5
307
100
AcDbEntity
8
0
100
AcDbPolyline
90
8
70
1
43
0.0
10
217.81250000000099
20
36.049999999994398
42
0.414213562373004
10
217.31250000000099
20
35.549999999994398
10
217.31250000000068
20
22.549999999994412
42
0.41421356237312101
10
217.81250000000068
20
22.049999999994384
10
230.81250000000068
20
22.04999999999405
42
0.41421356237298834
10
231.31250000000065
20
22.549999999994036
10
231.31250000000102
20
35.549999999994036
42
0.41421356237312362
10
230.81250000000102
20
36.049999999994064
0
LWPOLYLINE
5
308
100
AcDbEntity
8
0
100
AcDbPolyline
90
8
70
1
43
0.0
10
141.61250000000095
20
36.049999999996388
42
0.41421356237312884
10
141.11250000000092
20
35.549999999996409
10
141.11250000000058
20
22.549999999996416
42
0.41421356237311585
10
141.61250000000061
20
22.049999999996395
10
154.61250000000061
20
22.049999999996047
42
0.41421356237310281
10
155.11250000000061
20
22.549999999996039
10
155.11250000000098
20
35.549999999996032
42
0.41421356237308726
10
154.61250000000095
20
36.049999999996054
0
LWPOLYLINE
5
309
100
AcDbEntity
8
0
100
AcDbPolyline
90
8
70
1
43
0.0
10
93.487500000001077
20
41.599999999997664
42
0.41421356237308982
10
93.987500000001063
20
41.09999999999765
10
106.98750000000109
20
41.099999999997287
42
0.41421356237307427
10
107.48750000000108
20
41.599999999997266
10
107.48750000000143
20
54.599999999997294
42
0.41421356237308982
10
106.98750000000146
20
55.099999999997316
10
93.987500000001418
20
55.09999999999765
42
0.41421356237305862
10
93.48750000000139
20
54.599999999997671
0
LWPOLYLINE
5
310
100
AcDbEntity
8
0
100
AcDbPolyline
90
8
70
1
43
0.0
10
283.20000000000016
20
2.9999999999926503
42
0.41421356237307327
10
283.70000000000016
20
3.4999999999926401
10
283.7000000000005
20
16.499999999992657
42
0.4142135623731002
10
283.20000000000056
20
16.99999999999266
10
282.2000000000005
20
16.999999999992699
42
0.41421356237307033
10
281.70000000000044
20
16.499999999992717
10
281.7000000000001
20
3.4999999999926983
42
0.41421356237313373
10
282.20000000000016
20
2.999999999992685
0
LWPOLYLINE
5
311
100
AcDbEntity
8
0
100
AcDbPolyline
90
8
70
1
43
0.0
10
150.6375000000011
20
41.599999999996143
42
0.41421356237311063
10
151.1375000000011
20
41.099999999996129
10
164.13750000000107
20
41.099999999995788
42
0.41421356237309509
10
164.63750000000107
20
41.599999999995774
10
164.63750000000141
20
54.599999999995774
42
0.41421356237311585
10
164.13750000000149
20
55.099999999995795
10
151.13750000000149
20
55.09999999999615
42
0.41421356237310542
10
150.63750000000144
20
54.599999999996157
0
LWPOLYLINE
5
312
100
AcDbEntity
8
0
100
AcDbPolyline
90
8
70
1
43
0.0
10
35.550000000002015
20
79.199999999999179
42
0.41421356237307427
10
36.050000000002029
20
79.69999999999915
10
36.05000000000237
20
92.699999999999164
42
0.41421356237313406
10
35.55000000000237
20
93.199999999999193
10
22.550000000002377
20
93.19999999999952
42
0.41421356237312101
10
22.05000000000236
20
92.69999999999952
10
22.050000000002015
20
79.69999999999952
42
0.41421356237309509
10
22.550000000002008
20
79.199999999999534
0
LWPOLYLINE
5
313
100
AcDbEntity
8
0
100
AcDbPolyline
90
8
70
1
43
0.0
10
69.675000000001575
20
60.6499999999983
42
0.4142135623731002
10
70.17500000000156
20
60.149999999998293
10
83.175000000001575
20
60.149999999997945
42
0.4142135623730378
10
83.675000000001603
20
60.649999999997917
10
83.67500000000193
20
73.649999999997917
42
0.4142135623731002
10
83.175000000001916
20
74.149999999997959
10
70.17500000000193
20
74.1499999999983
42
0.41421356237312101
10
69.675000000001916
20
73.649999999998272
0
LWPOLYLINE
5
314
100
AcDbEntity
8
0
100
AcDbPolyline
90
8
70
1
43
0.0
10
50.337500000001405
20
54.599999999998793
42
0.41421356237310542
10
49.83750000000142
20
55.099999999998815
10
36.837500000001391
20
55.099999999999142
42
0.41421356237308982
10
36.33750000000137
20
54.599999999999163
10
36.337500000001029
20
41.599999999999149
42
0.41421356237310802
10
36.837500000001022
20
41.09999999999917
10
49.837500000001043
20
41.099999999998793
42
0.4142135623731002
10
50.337500000001057
20
41.599999999998786
0
LWPOLYLINE
5
315
100
AcDbEntity
8
0
100
AcDbPolyline
90
8
70
1
43
0.0
10
145.87500000000159
20
60.649999999996275
42
0.41421356237312629
10
146.37500000000165
20
60.149999999996247
10
159.37500000000162
20
60.149999999995956
42
0.41421356237302742
10
159.87500000000165
20
60.649999999995892
10
159.87500000000199
20
73.649999999995913
42
0.41421356237311063
10
159.37500000000196
20
74.149999999995927
10
146.37500000000196
20
74.149999999996254
42
0.41421356237307427
10
145.87500000000196
20
73.649999999996311
0
LWPOLYLINE
5
316
100
AcDbEntity
8
0
100
AcDbPolyline
90
8
70
1
43
0.0
10
222.07500000000164
20
60.649999999994286
42
0.41421356237312629
10
222.57500000000158
20
60.149999999994222
10
235.57500000000164
20
60.149999999993931
42
0.41421356237304296
10
236.07500000000164
20
60.649999999993938
10
236.07500000000201
20
73.649999999993909
42
0.41421356237312101
10
235.57500000000201
20
74.149999999993938
10
222.57500000000198
20
74.149999999994279
42
0.41421356237312101
10
222.07500000000198
20
73.649999999994321
0
LWPOLYLINE
5
317
100
AcDbEntity
8
0
100
AcDbPolyline
90
8
70
1
43
0.0
10
217.81250000000043
20
16.999999999994394
42
0.41421356237307289
10
217.3125000000004
20
16.499999999994401
10
217.31250000000006
20
3.499999999994384
42
0.41421356237313472
10
217.81250000000006
20
2.9999999999943721
10
230.81250000000009
20
2.9999999999940243
42
0.41421356237303941
10
231.31250000000009
20
3.4999999999940123
10
231.31250000000045
20
16.499999999994031
42
0.41421356237308327
10
230.81250000000051
20
16.999999999994092
0
LWPOLYLINE
5
318
100
AcDbEntity
8
0
100
AcDbPolyline
90
7
70
1
43
0.0
10
162.87500000000037
20
15.999999999995833
42
0.99999999999999989
10
162.87500000000037
20
16.999999999995833
10
152.87500000000045
20
16.999999999996042
42
0.41421356237304296
10
152.37500000000043
20
16.499999999996049
10
152.37500000000006
20
3.4999999999960663
42
0.99999999999999989
10
153.37500000000023
20
3.4999999999960707
10
153.37500000000043
20
15.999999999996033
0
LWPOLYLINE
5
319
100
AcDbEntity
8
0
100
AcDbPolyline
90
7
70
1
43
0.0
10
184.47500000000008
20
2.9999999999952975
42
0.99999999999999989
10
184.47500000000008
20
1.9999999999952811
10
194.47500000000014
20
1.9999999999949516
42
0.41421367062744369
10
194.97500000000016
20
2.5000001847967579
10
194.97500000000048
20
17.499999999994984
42
0.99999999999999989
10
193.97500000000048
20
17.499999999994976
10
193.97500000000008
20
2.9999999999951528
0
LWPOLYLINE
5
320
100
AcDbEntity
8
0
100
AcDbPolyline
90
8
70
1
43
0.0
10
194.0000000000025
20
93.199999999995015
42
0.41421356237307427
10
193.50000000000244
20
92.699999999995015
10
193.5000000000021
20
79.699999999995029
42
0.41421356237308982
10
194.00000000000207
20
79.199999999994986
10
207.00000000000213
20
79.199999999994688
42
0.41421356237315227
10
207.50000000000213
20
79.69999999999466
10
207.50000000000244
20
92.699999999994674
42
0.4142135623730222
10
207.00000000000256
20
93.19999999999466
0
LWPOLYLINE
5
321
100
AcDbEntity
8
0
100
AcDbPolyline
90
8
70
1
43
0.0
10
31.575000000001531
20
60.649999999999309
42
0.41421356237311063
10
32.075000000001509
20
60.149999999999309
10
45.075000000001523
20
60.149999999998947
42
0.414213562373069
10
45.575000000001538
20
60.649999999998911
10
45.575000000001886
20
73.649999999998926
42
0.41421356237308465
10
45.075000000001907
20
74.14999999999894
10
32.075000000001893
20
74.149999999999281
42
0.41421356237310542
10
31.575000000001868
20
73.649999999999295
0
LWPOLYLINE
5
322
100
AcDbEntity
8
0
100
AcDbPolyline
90
8
70
1
43
0.0
10
254.62500000000171
20
60.14999999999344
42
0.41421356237312629
10
255.12500000000171
20
60.649999999993426
10
255.12500000000205
20
73.64999999999344
42
0.41421356237311585
10
254.62500000000205
20
74.149999999993497
10
241.62500000000205
20
74.149999999993767
42
0.41421356237304818
10
241.12500000000207
20
73.64999999999381
10
241.12500000000168
20
60.649999999993781
42
0.41421356237312101
10
241.62500000000168
20
60.149999999993753
0
LWPOLYLINE
5
323
100
AcDbEntity
8
0
100
AcDbPolyline
90
4
70
1
43
0.0
10
195.42008150335391
20
97.974999999994466
42
0.99999999999999989
10
195.42008150335391
20
98.474999999994438
10
150.42008150335394
20
98.47499999999512
42
0.99999999999999989
10
150.42008150335394
20
97.974999999995177
0
LWPOLYLINE
5
324
100
AcDbEntity
8
0
100
AcDbPolyline
90
8
70
1
43
0.0
10
7.7625000000015127
20
60.649999999999906
42
0.41421356237310675
10
8.2625000000014985
20
60.149999999999906
10
21.262500000001499
20
60.149999999999551
42
0.41421356237310802
10
21.76250000000152
20
60.649999999999537
10
21.762500000001857
20
73.649999999999551
42
0.4142135623731002
10
21.262500000001872
20
74.149999999999523
10
8.2625000000018751
20
74.149999999999892
42
0.41421356237310353
10
7.7625000000018431
20
73.64999999999992
0
LWPOLYLINE
5
325
100
AcDbEntity
8
0
100
AcDbPolyline
90
8
70
1
43
0.0
10
111.75000000000207
20
79.199999999997175
42
0.41421356237310542
10
112.25000000000209
20
79.699999999997146
10
112.25000000000243
20
92.699999999997175
42
0.41421356237306384
10
111.75000000000244
20
93.199999999997161
10
98.750000000002416
20
93.199999999997516
42
0.41421356237307427
10
98.250000000002416
20
92.699999999997544
10
98.250000000002089
20
79.69999999999753
42
0.41421356237310542
10
98.750000000002075
20
79.199999999997516
0
LWPOLYLINE
5
326
100
AcDbEntity
8
0
100
AcDbPolyline
90
10
70
1
43
0.0
10
177.09564322414644
20
3.9431645887779352
42
0.089933963163293995
10
176.9200815033528
20
3.9749999999933272
10
168.92008150335315
20
3.9749999999955143
42
0.089933963163246325
10
168.74451978255851
20
3.9431645887799838
10
164.74451978255865
20
2.4431645887809039
42
0.99999998709521598
10
165.09564321428115
20
1.5068354075120931
10
169.0107487942355
20
2.9749999999941528
10
176.82941421247023
20
2.9749999999933396
10
180.74451978255854
20
1.5068354112101587
42
0.99999999999999989
10
181.09564322414687
20
2.4431645887792093
0
LWPOLYLINE
5
327
100
AcDbEntity
8
0
100
AcDbPolyline
90
8
70
1
43
0.0
10
54.600000000002055
20
79.199999999998695
42
0.41421356237307427
10
55.100000000002048
20
79.699999999998653
10
55.100000000002403
20
92.699999999998667
42
0.41421356237315227
10
54.600000000002396
20
93.19999999999871
10
41.60000000000241
20
93.199999999999022
42
0.41421356237313145
10
41.100000000002375
20
92.699999999999022
10
41.100000000002048
20
79.699999999999037
42
0.41421356237309509
10
41.600000000002019
20
79.199999999999037
0
LWPOLYLINE
5
328
100
AcDbEntity
8
0
100
AcDbPolyline
90
8
70
1
43
0.0
10
21.762500000000365
20
16.499999999999531
42
0.41421356237308854
10
21.262500000000387
20
16.999999999999542
10
8.2625000000003705
20
16.999999999999883
42
0.41421356237309176
10
7.7625000000003546
20
16.499999999999897
10
7.7625000000000179
20
3.4999999999998703
42
0.41421356237308787
10
8.2624999999999957
20
2.9999999999998566
10
21.262500000000006
20
2.9999999999995168
42
0.41421356237310636
10
21.762500000000024
20
3.4999999999995079
0
LWPOLYLINE
5
329
100
AcDbEntity
8
0
100
AcDbPolyline
90
20
70
1
43
0.0
10
6.4682500000011522
20
22.049999999999699
10
5.8812500000019385
20
22.049999999999727
42
-0.4142135623731002
10
5.3812500000019581
20
22.54999999999977
10
5.38125000000257
20
35.549999999999756
42
-0.41421356237310092
10
5.8812500000025958
20
36.049999999999741
10
40.312500000002586
20
36.049999999998121
42
-0.41421356237310281
10
40.812500000002593
20
35.549999999998072
10
40.812500000001961
20
22.549999999998079
42
-0.41421356237308204
10
40.312500000001933
20
22.049999999998107
10
37.344250000001168
20
22.049999999998249
10
37.344250000000507
20
21.54999999999912
42
-0.41421356237309509
10
36.844250000000486
20
21.04999999999913
10
30.844250000000489
20
21.049999999999297
42
-0.41421356237308982
10
30.344250000000493
20
21.549999999999308
10
30.344250000001164
20
22.049999999998583
10
13.468250000001154
20
22.049999999999383
10
13.468250000000488
20
21.549999999999748
42
-0.4142135623731002
10
12.968250000000477
20
21.049999999999763
10
6.9682500000004755
20
21.049999999999919
42
-0.41421356237311002
10
6.4682500000004879
20
21.549999999999926
0
LWPOLYLINE
5
330
100
AcDbEntity
8
0
100
AcDbPolyline
90
44
70
1
43
0.0
10
256.3557500000033
20
55.099999999987915
10
267.31875000000349
20
55.099999999984561
10
267.31875000000366
20
60.149999999984502
10
265.43750000000165
20
60.149999999993121
42
-0.41421356237312101
10
264.93750000000165
20
60.64999999999317
10
264.93750000000205
20
73.649999999993142
42
-0.41421356237315743
10
265.43750000000205
20
74.149999999993156
10
278.43750000000205
20
74.149999999992843
42
-0.41421356237311585
10
278.93750000000205
20
73.649999999992815
10
278.93750000000432
20
73.062999999986829
10
279.81875000000434
20
73.062999999986729
42
-0.41421356237312101
10
280.31875000000429
20
72.562999999986786
10
280.31875000000406
20
66.562999999986786
42
-0.41421356237307944
10
279.818750000004
20
66.062999999986801
10
278.93750000000392
20
66.062999999986843
10
278.93750000000381
20
64.624999999986841
10
280.81875000000394
20
64.624999999986741
42
-0.41421356237308465
10
281.31875000000389
20
64.124999999986755
10
281.31875000000332
20
51.124999999986727
42
-0.4142135623730378
10
280.81875000000332
20
50.624999999986727
10
280.31875000000304
20
50.624999999986777
10
280.31875000000213
20
40.59999999998616
42
-0.4142135623731002
10
279.81875000000207
20
40.099999999986181
10
273.73175000000123
20
40.099999999992917
42
-0.41421356237319912
10
273.23175000000111
20
40.59999999999296
10
273.23175000000253
20
42.186999999987115
10
271.79375000000243
20
42.186999999987179
10
271.79375000000118
20
41.599999999992967
42
-0.41421356237299095
10
271.29375000000118
20
41.099999999992988
10
256.35575000000239
20
41.099999999987915
10
256.35575000000119
20
40.599999999993351
42
-0.41421356237308982
10
255.85575000000114
20
40.0999999999934
10
249.85575000000119
20
40.099999999993521
42
-0.41421356237316265
10
249.35575000000111
20
40.599999999993571
10
249.35575000000239
20
41.099999999988235
10
246.38750000000286
20
41.099999999988377
42
-0.41421356237310542
10
245.88750000000289
20
41.599999999988398
10
245.88750000000346
20
54.599999999988412
42
-0.41421356237306384
10
246.38750000000346
20
55.09999999998837
10
249.35575000000324
20
55.099999999988249
10
249.35575000000154
20
55.599999999993571
42
-0.41421356237303264
10
249.85575000000156
20
56.099999999993571
10
255.85575000000154
20
56.09999999999345
42
-0.41421356237312629
10
256.35575000000159
20
55.599999999993386
0
ENDSEC
0
SECTION
2
OBJECTS
0
DICTIONARY
5
C
100
AcDbDictionary
3
ACAD_GROUP
350
D
3
ACAD_MLINESTYLE
350
17
0
DICTIONARY
5
D
100
AcDbDictionary
0
DICTIONARY
5
1A
330
C
100
AcDbDictionary
0
DICTIONARY
5
17
100
AcDbDictionary
0
ENDSEC
0
EOF
