  0
SECTION
  2
HEADER
  9
$ACADVER
  1
AC1014
  9
$ACADMAINTVER
 70
     9
  9
$DWGCODEPAGE
  3
ANSI_949
  9
$INSBASE
 10
0.0
 20
0.0
 30
0.0
  9
$EXTMIN
 10
0.475
 20
-4.2
 30
0.0
  9
$EXTMAX
 10
286.225
 20
100.4
 30
0.0
  9
$LIMMIN
 10
0.0
 20
0.0
  9
$LIMMAX
 10
12.0
 20
9.0
  9
$ORTHOMODE
 70
     0
  9
$REGENMODE
 70
     1
  9
$FILLMODE
 70
     1
  9
$QTEXTMODE
 70
     0
  9
$MIRRTEXT
 70
     1
  9
$DRAGMODE
 70
     2
  9
$LTSCALE
 40
1.0
  9
$OSMODE
 70
    37
  9
$ATTMODE
 70
     1
  9
$TEXTSIZE
 40
0.2
  9
$TRACEWID
 40
0.05
  9
$TEXTSTYLE
  7
STANDARD
  9
$CLAYER
  8
0
  9
$CELTYPE
  6
BYBLOCK
  9
$CECOLOR
 62
   256
  9
$CELTSCALE
 40
1.0
  9
$DELOBJ
 70
     1
  9
$DISPSILH
 70
     0
  9
$DIMSCALE
 40
1.0
  9
$DIMASZ
 40
0.18
  9
$DIMEXO
 40
0.0625
  9
$DIMDLI
 40
0.38
  9
$DIMRND
 40
0.0
  9
$DIMDLE
 40
0.0
  9
$DIMEXE
 40
0.18
  9
$DIMTP
 40
0.0
  9
$DIMTM
 40
0.0
  9
$DIMTXT
 40
0.18
  9
$DIMCEN
 40
0.09
  9
$DIMTSZ
 40
0.0
  9
$DIMTOL
 70
     0
  9
$DIMLIM
 70
     0
  9
$DIMTIH
 70
     1
  9
$DIMTOH
 70
     1
  9
$DIMSE1
 70
     0
  9
$DIMSE2
 70
     0
  9
$DIMTAD
 70
     0
  9
$DIMZIN
 70
     0
  9
$DIMBLK
  1

  9
$DIMASO
 70
     1
  9
$DIMSHO
 70
     1
  9
$DIMPOST
  1

  9
$DIMAPOST
  1

  9
$DIMALT
 70
     0
  9
$DIMALTD
 70
     2
  9
$DIMALTF
 40
25.4
  9
$DIMLFAC
 40
1.0
  9
$DIMTOFL
 70
     0
  9
$DIMTVP
 40
0.0
  9
$DIMTIX
 70
     0
  9
$DIMSOXD
 70
     0
  9
$DIMSAH
 70
     0
  9
$DIMBLK1
  1

  9
$DIMBLK2
  1

  9
$DIMSTYLE
  2
STANDARD
  9
$DIMCLRD
 70
     0
  9
$DIMCLRE
 70
     0
  9
$DIMCLRT
 70
     0
  9
$DIMTFAC
 40
1.0
  9
$DIMGAP
 40
0.09
  9
$DIMJUST
 70
     0
  9
$DIMSD1
 70
     0
  9
$DIMSD2
 70
     0
  9
$DIMTOLJ
 70
     1
  9
$DIMTZIN
 70
     0
  9
$DIMALTZ
 70
     0
  9
$DIMALTTZ
 70
     0
  9
$DIMFIT
 70
     5
  9
$DIMUPT
 70
     0
  9
$DIMUNIT
 70
     2
  9
$DIMDEC
 70
     4
  9
$DIMTDEC
 70
     4
  9
$DIMALTU
 70
     2
  9
$DIMALTTD
 70
     2
  9
$DIMTXSTY
  7
STANDARD
  9
$DIMAUNIT
 70
     0
  9
$LUNITS
 70
     2
  9
$LUPREC
 70
     4
  9
$SKETCHINC
 40
0.1
  9
$FILLETRAD
 40
0.5
  9
$AUNITS
 70
     0
  9
$AUPREC
 70
     0
  9
$MENU
  1
.
  9
$ELEVATION
 40
0.0
  9
$PELEVATION
 40
0.0
  9
$THICKNESS
 40
0.0
  9
$LIMCHECK
 70
     0
  9
$CHAMFERA
 40
0.0
  9
$CHAMFERB
 40
0.0
  9
$CHAMFERC
 40
0.0
  9
$CHAMFERD
 40
0.0
  9
$SKPOLY
 70
     0
  9
$TDCREATE
 40
2447893.375
  9
$TDUPDATE
 40
2461086.09621125
  9
$TDINDWG
 40
0.0
  9
$TDUSRTIMER
 40
0.0
  9
$USRTIMER
 70
     1
  9
$ANGBASE
 50
0.0
  9
$ANGDIR
 70
     0
  9
$PDMODE
 70
     0
  9
$PDSIZE
 40
0.0
  9
$PLINEWID
 40
0.0
  9
$COORDS
 70
     1
  9
$SPLFRAME
 70
     0
  9
$SPLINETYPE
 70
     6
  9
$SPLINESEGS
 70
     8
  9
$ATTDIA
 70
     0
  9
$ATTREQ
 70
     1
  9
$HANDLING
 70
     1
  9
$HANDSEED
  5
10085
  9
$SURFTAB1
 70
     6
  9
$SURFTAB2
 70
     6
  9
$SURFTYPE
 70
     6
  9
$SURFU
 70
     6
  9
$SURFV
 70
     6
  9
$UCSNAME
  2

  9
$UCSORG
 10
0.0
 20
0.0
 30
0.0
  9
$UCSXDIR
 10
1.0
 20
0.0
 30
0.0
  9
$UCSYDIR
 10
0.0
 20
1.0
 30
0.0
  9
$PUCSNAME
  2

  9
$PUCSORG
 10
0.0
 20
0.0
 30
0.0
  9
$PUCSXDIR
 10
1.0
 20
0.0
 30
0.0
  9
$PUCSYDIR
 10
0.0
 20
1.0
 30
0.0
  9
$USERI1
 70
     0
  9
$USERI2
 70
     0
  9
$USERI3
 70
     0
  9
$USERI4
 70
     0
  9
$USERI5
 70
     0
  9
$USERR1
 40
0.0
  9
$USERR2
 40
0.0
  9
$USERR3
 40
0.0
  9
$USERR4
 40
0.0
  9
$USERR5
 40
0.0
  9
$WORLDVIEW
 70
     1
  9
$SHADEDGE
 70
     3
  9
$SHADEDIF
 70
    70
  9
$TILEMODE
 70
     1
  9
$MAXACTVP
 70
    64
  9
$PINSBASE
 10
0.0
 20
0.0
 30
0.0
  9
$PLIMCHECK
 70
     0
  9
$PEXTMIN
 10
1.000000E+20
 20
1.000000E+20
 30
1.000000E+20
  9
$PEXTMAX
 10
-1.000000E+20
 20
-1.000000E+20
 30
-1.000000E+20
  9
$PLIMMIN
 10
0.0
 20
0.0
  9
$PLIMMAX
 10
12.0
 20
9.0
  9
$UNITMODE
 70
     0
  9
$VISRETAIN
 70
     1
  9
$PLINEGEN
 70
     0
  9
$PSLTSCALE
 70
     0
  9
$TREEDEPTH
 70
  3020
  9
$PICKSTYLE
 70
     1
  9
$CMLSTYLE
  2

  9
$CMLJUST
 70
     0
  9
$CMLSCALE
 40
1.0
  9
$PROXYGRAPHICS
 70
     1
  9
$MEASUREMENT
 70
     0
  0
ENDSEC
  0
SECTION
  2
CLASSES
  0
CLASS
  1
SCALE
  2
AcDbScale
  3
ObjectDBX Classes
 90
     1153
280
     0
281
     0
  0
CLASS
  1
MATERIAL
  2
AcDbMaterial
  3
ObjectDBX Classes
 90
     1153
280
     0
281
     0
  0
CLASS
  1
VISUALSTYLE
  2
AcDbVisualStyle
  3
ObjectDBX Classes
 90
     4095
280
     0
281
     0
  0
CLASS
  1
SUN
  2
AcDbSun
  3
SCENEOE
 90
     1153
280
     0
281
     0
  0
CLASS
  1
TABLESTYLE
  2
AcDbTableStyle
  3
ObjectDBX Classes
 90
     4095
280
     0
281
     0
  0
CLASS
  1
CSACDOCUMENTOPTIONS
  2
CDocDataContainer
  3
"DERU003_CSAPP"
 90
     4095
280
     0
281
     0
  0
CLASS
  1
DICTIONARYVAR
  2
AcDbDictionaryVar
  3
ObjectDBX Classes
 90
        0
280
     0
281
     0
  0
CLASS
  1
XRECORD
  2
AcDbXrecord
  3
ObjectDBX Classes
 90
        0
280
     0
281
     0
  0
CLASS
  1
LWPOLYLINE
  2
AcDbPolyline
  3
ObjectDBX Classes
 90
        0
280
     0
281
     1
  0
CLASS
  1
HATCH
  2
AcDbHatch
  3
ObjectDBX Classes
 90
        0
280
     0
281
     1
  0
CLASS
  1
ACDBPLACEHOLDER
  2
AcDbPlaceHolder
  3
ObjectDBX Classes
 90
        0
280
     0
281
     0
  0
CLASS
  1
LAYOUT
  2
AcDbLayout
  3
ObjectDBX Classes
 90
        0
280
     0
281
     0
  0
ENDSEC
  0
SECTION
  2
TABLES
  0
TABLE
  2
VPORT
  5
8
102
{ACAD_XDICTIONARY
360
1007D
102
}
330
0
100
AcDbSymbolTable
 70
     1
  0
VPORT
  5
10001
330
8
100
AcDbSymbolTableRecord
100
AcDbViewportTableRecord
  2
*ACTIVE
 70
     0
 10
0.0
 20
0.0
 11
1.0
 21
1.0
 12
143.35
 22
48.1
 13
0.0
 23
0.0
 14
0.5
 24
0.5
 15
0.5
 25
0.5
 16
0.0
 26
0.0
 36
1.0
 17
0.0
 27
0.0
 37
0.0
 40
145.7325
 41
2.0
 42
50.0
 43
0.0
 44
0.0
 50
0.0
 51
0.0
 71
    16
 72
   100
 73
     1
 74
     3
 75
     0
 76
     0
 77
     0
 78
     0
  0
ENDTAB
  0
TABLE
  2
LTYPE
  5
5
330
0
100
AcDbSymbolTable
 70
     1
  0
LTYPE
  5
14
330
5
100
AcDbSymbolTableRecord
100
AcDbLinetypeTableRecord
  2
BYBLOCK
 70
     0
  3

 72
    65
 73
     0
 40
0.0
  0
LTYPE
  5
15
330
5
100
AcDbSymbolTableRecord
100
AcDbLinetypeTableRecord
  2
BYLAYER
 70
     0
  3

 72
    65
 73
     0
 40
0.0
  0
LTYPE
  5
FFFF
330
5
100
AcDbSymbolTableRecord
100
AcDbLinetypeTableRecord
  2
CONTINUOUS
 70
     0
  3
Solid line
 72
    65
 73
     0
 40
0.0
  0
ENDTAB
  0
TABLE
  2
LAYER
  5
2
330
0
100
AcDbSymbolTable
 70
     1
  0
LAYER
  5
50
330
2
100
AcDbSymbolTableRecord
100
AcDbLayerTableRecord
  2
0
 70
     0
 62
     7
  6
CONTINUOUS
  0
ENDTAB
  0
TABLE
  2
STYLE
  5
3
330
0
100
AcDbSymbolTable
 70
     1
  0
STYLE
  5
11
330
3
100
AcDbSymbolTableRecord
100
AcDbTextStyleTableRecord
  2
STANDARD
 70
     0
 40
0.2
 41
1.0
 50
0.0
 71
     0
 42
0.2
  3

  4

  0
ENDTAB
  0
TABLE
  2
VIEW
  5
6
330
0
100
AcDbSymbolTable
 70
     0
  0
ENDTAB
  0
TABLE
  2
UCS
  5
7
330
0
100
AcDbSymbolTable
 70
     0
  0
ENDTAB
  0
TABLE
  2
APPID
  5
9
330
0
100
AcDbSymbolTable
 70
     6
  0
APPID
  5
12
330
9
100
AcDbSymbolTableRecord
100
AcDbRegAppTableRecord
  2
ACAD
 70
     0
  0
APPID
  5
10045
330
9
100
AcDbSymbolTableRecord
100
AcDbRegAppTableRecord
  2
MCS_DIM1
 70
     0
  0
APPID
  5
10046
330
9
100
AcDbSymbolTableRecord
100
AcDbRegAppTableRecord
  2
MCSXDATA5
 70
     0
  0
APPID
  5
10049
330
9
100
AcDbSymbolTableRecord
100
AcDbRegAppTableRecord
  2
MCS_DOCUMENT_ID
 70
     0
  0
APPID
  5
10050
330
9
100
AcDbSymbolTableRecord
100
AcDbRegAppTableRecord
  2
MC_VERSION_DATA
 70
     0
  0
APPID
  5
1005A
330
9
100
AcDbSymbolTableRecord
100
AcDbRegAppTableRecord
  2
MCS_PARAMS_DATA
 70
     0
  0
ENDTAB
  0
TABLE
  2
DIMSTYLE
  5
A
330
0
100
AcDbSymbolTable
 70
     1
  0
DIMSTYLE
105
10000
330
A
100
AcDbSymbolTableRecord
100
AcDbDimStyleTableRecord
  2
STANDARD
 70
     0
  3

  4

  5

  6

  7

 40
1.0
 41
0.18
 42
0.0625
 43
0.38
 44
0.18
 45
0.0
 46
0.0
 47
0.0
 48
0.0
140
0.18
141
0.09
142
0.0
143
25.4
144
1.0
145
0.0
146
1.0
147
0.09
 71
     0
 72
     0
 73
     1
 74
     1
 75
     0
 76
     0
 77
     0
 78
     0
170
     0
171
     2
172
     0
173
     0
174
     0
175
     0
176
     0
177
     0
178
     0
270
     2
271
     4
272
     4
273
     2
274
     2
340
11
275
     0
280
     0
281
     0
282
     0
283
     1
284
     0
285
     0
286
     0
287
     3
288
     0
  0
ENDTAB
  0
TABLE
  2
BLOCK_RECORD
  5
1
330
0
100
AcDbSymbolTable
 70
     0
  0
BLOCK_RECORD
  5
1F
330
1
100
AcDbSymbolTableRecord
100
AcDbBlockTableRecord
  2
*MODEL_SPACE
  0
BLOCK_RECORD
  5
1B
330
1
100
AcDbSymbolTableRecord
100
AcDbBlockTableRecord
  2
*PAPER_SPACE
  0
ENDTAB
  0
ENDSEC
  0
SECTION
  2
BLOCKS
  0
BLOCK
  5
20
330
1F
100
AcDbEntity
  8
0
100
AcDbBlockBegin
  2
*MODEL_SPACE
 70
     0
 10
0.0
 20
0.0
 30
0.0
  3
*MODEL_SPACE
  1

  0
ENDBLK
  5
21
330
1F
100
AcDbEntity
  8
0
100
AcDbBlockEnd
  0
BLOCK
  5
1C
330
1B
100
AcDbEntity
 67
     1
  8
0
100
AcDbBlockBegin
  2
*PAPER_SPACE
 70
     0
 10
0.0
 20
0.0
 30
0.0
  3
*PAPER_SPACE
  1

  0
ENDBLK
  5
1D
330
1B
100
AcDbEntity
 67
     1
  8
0
100
AcDbBlockEnd
  0
ENDSEC
  0
SECTION
  2
ENTITIES
  0
LWPOLYLINE
  5
100
330
1F
100
AcDbEntity
  8
0
100
AcDbPolyline
 90
        4
 70
     1
 43
0.0
 10
177.795795
 20
95.426303
 42
1.0
 10
177.193751
 20
96.224765
 42
-0.334755
 10
173.461077
 20
96.224765
 42
1.0
 10
172.859032
 20
95.426303
 42
0.334755
  0
LWPOLYLINE
  5
101
330
1F
100
AcDbEntity
  8
0
100
AcDbPolyline
 90
        4
 70
     1
 43
0.0
 10
36.106619
 20
0.773697
 42
1.0
 10
36.708663
 20
-0.024765
 42
-0.334755
 10
40.441337
 20
-0.024765
 42
1.0
 10
41.043381
 20
0.773697
 42
0.334755
  0
LWPOLYLINE
  5
102
330
1F
100
AcDbEntity
  8
0
100
AcDbPolyline
 90
        4
 70
     1
 43
0.0
 10
245.656619
 20
0.773697
 42
1.0
 10
246.258663
 20
-0.024765
 42
-0.334755
 10
249.991337
 20
-0.024765
 42
1.0
 10
250.593381
 20
0.773697
 42
0.334755
  0
LWPOLYLINE
  5
103
330
1F
100
AcDbEntity
  8
0
100
AcDbPolyline
 90
        4
 70
     1
 43
0.0
 10
108.903956
 20
95.426303
 42
0.334755
 10
113.840719
 20
95.426303
 42
1.0
 10
113.238674
 20
96.224765
 42
-0.334755
 10
109.506
 20
96.224765
 42
1.0
  0
LWPOLYLINE
  5
104
330
1F
100
AcDbEntity
  8
0
100
AcDbPolyline
 90
        4
 70
     1
 43
0.0
 10
21.993381
 20
95.426303
 42
1.0
 10
21.391337
 20
96.224765
 42
-0.334755
 10
17.658663
 20
96.224765
 42
1.0
 10
17.056619
 20
95.426303
 42
0.334755
  0
LWPOLYLINE
  5
105
330
1F
100
AcDbEntity
  8
0
100
AcDbPolyline
 90
        4
 70
     1
 43
0.0
 10
269.643381
 20
95.426303
 42
1.0
 10
269.041337
 20
96.224765
 42
-0.334755
 10
265.308663
 20
96.224765
 42
1.0
 10
264.706619
 20
95.426303
 42
0.334755
  0
ARC
  5
106
330
1F
100
AcDbEntity
  8
0
100
AcDbCircle
 10
265.075
 20
99.9
 30
0.0
 40
0.5000000000000426
100
AcDbArc
 50
0.0
 51
90.0
  0
LINE
  5
107
330
1F
100
AcDbEntity
  8
0
100
AcDbLine
 10
265.075
 20
100.4
 30
0.0
 11
264.682107
 21
100.4
 31
0.0
  0
ARC
  5
108
330
1F
100
AcDbEntity
  8
0
100
AcDbCircle
 10
264.682107
 20
99.9
 30
0.0
 40
0.5000000000000071
100
AcDbArc
 50
90.0
 51
135.0
  0
LINE
  5
109
330
1F
100
AcDbEntity
  8
0
100
AcDbLine
 10
264.328553
 20
100.253553
 30
0.0
 11
259.775
 21
95.7
 31
0.0
  0
ARC
  5
110
330
1F
100
AcDbEntity
  8
0
100
AcDbCircle
 10
259.067893
 20
96.407107
 30
0.0
 40
0.9999999999999855
100
AcDbArc
 50
225.0
 51
315.0
  0
LINE
  5
111
330
1F
100
AcDbEntity
  8
0
100
AcDbLine
 10
258.360786
 20
95.7
 30
0.0
 11
257.804416
 21
96.256371
 31
0.0
  0
ARC
  5
112
330
1F
100
AcDbEntity
  8
0
100
AcDbCircle
 10
256.673045
 20
95.125
 30
0.0
 40
1.599999999999994
100
AcDbArc
 50
45.0
 51
90.0
  0
LINE
  5
113
330
1F
100
AcDbEntity
  8
0
100
AcDbLine
 10
256.673045
 20
96.725
 30
0.0
 11
254.48224
 21
96.725
 31
0.0
  0
ARC
  5
114
330
1F
100
AcDbEntity
  8
0
100
AcDbCircle
 10
254.48224
 20
95.6
 30
0.0
 40
1.125000000000025
100
AcDbArc
 50
90.0
 51
136.567463
  0
ARC
  5
115
330
1F
100
AcDbEntity
  8
0
100
AcDbCircle
 10
252.15845
 20
97.8
 30
0.0
 40
2.074999999999889
100
AcDbArc
 50
270.0
 51
316.567463
  0
LINE
  5
116
330
1F
100
AcDbEntity
  8
0
100
AcDbLine
 10
252.15845
 20
95.725
 30
0.0
 11
251.694281
 21
95.725
 31
0.0
  0
SPLINE
  5
117
330
1F
100
AcDbEntity
  8
0
100
AcDbSpline
210
0.0
220
0.0
230
1.0
 70
     8
 71
     3
 72
    12
 73
     8
 74
     0
 42
0.000000001
 43
0.0000000001
 40
0.0
 40
0.0
 40
0.0
 40
0.0
 40
0.06250311574191
 40
0.06250311574191
 40
0.108927883725064
 40
0.108927883725064
 40
0.1553526517082186
 40
0.1553526517082186
 40
0.1553526517082186
 40
0.1553526517082186
 10
250.3756252772453
 20
95.0311714448753
 30
-0.0000000000000067
 10
250.4936222328725
 20
95.20287998795826
 30
-0.0000000000000089
 10
250.644029569985
 20
95.34989947448483
 30
-0.0000000000000044
 10
250.9478826803745
 20
95.5486701326821
 30
-0.0000000000000067
 10
251.0889920394973
 20
95.61415157557704
 30
-0.0000000000000044
 10
251.3855980406391
 20
95.70254938455945
 30
-0.0000000000000067
 10
251.53953192405
 20
95.72499999999998
 30
-0.0000000000000111
 10
251.6942811506606
 20
95.72499999999998
 30
-0.0000000000000111
  0
SPLINE
  5
118
330
1F
100
AcDbEntity
  8
0
100
AcDbSpline
210
0.0
220
0.0
230
1.0
 70
     8
 71
     3
 72
    11
 73
     7
 74
     0
 42
0.000000001
 43
0.0000000001
 40
2.341913378398689
 40
2.341913378398689
 40
2.341913378398689
 40
2.341913378398689
 40
3.156886777718682
 40
3.156886777718682
 40
3.156886777718682
 40
3.941271928780904
 40
3.941271928780904
 40
3.941271928780904
 40
3.941271928780904
 10
250.3756252772453
 20
95.0311714448753
 30
-0.0000000000000022
 10
249.808174535789
 20
94.20542013994633
 30
-0.0000000000000044
 10
248.9466533998917
 20
93.68111751279935
 30
-0.0000000000000067
 10
248.0484244839546
 20
93.700546962673
 30
-0.0000000000000044
 10
247.1839086304265
 20
93.71924717054102
 30
-0.0000000000000044
 10
246.3683924529726
 20
94.23661094276405
 30
-0.0000000000000044
 10
245.8223758213746
 20
95.03117144487531
 30
-0.0000000000000067
  0
SPLINE
  5
119
330
1F
100
AcDbEntity
  8
0
100
AcDbSpline
210
0.0
220
0.0
230
1.0
 70
     8
 71
     3
 72
    12
 73
     8
 74
     0
 42
0.000000001
 43
0.0000000001
 40
0.0
 40
0.0
 40
0.0
 40
0.0
 40
0.0625031157419051
 40
0.0625031157419051
 40
0.1089278837250613
 40
0.1089278837250613
 40
0.1553526517082165
 40
0.1553526517082165
 40
0.1553526517082165
 40
0.1553526517082165
 10
244.5037199479594
 20
95.72500000000002
 30
-0.0000000000000067
 10
244.7120636670991
 20
95.72500000000002
 30
-0.0000000000000067
 10
244.9184155067277
 20
95.68430583877658
 30
-0.0000000000000089
 10
245.2543236992065
 20
95.5464574674433
 30
-0.0000000000000067
 10
245.3882091749032
 20
95.46724667276803
 30
-0.0000000000000089
 10
245.6290480365439
 20
95.272860625764
 30
-0.0000000000000044
 10
245.7347324899553
 20
95.15870955523559
 30
-0.0000000000000089
 10
245.8223758213747
 20
95.03117144487533
 30
-0.0000000000000089
  0
LINE
  5
120
330
1F
100
AcDbEntity
  8
0
100
AcDbLine
 10
244.50372
 20
95.725
 30
0.0
 11
244.039551
 21
95.725
 31
0.0
  0
ARC
  5
121
330
1F
100
AcDbEntity
  8
0
100
AcDbCircle
 10
244.039551
 20
97.8
 30
0.0
 40
2.074999999999662
100
AcDbArc
 50
223.432537
 51
270.0
  0
ARC
  5
122
330
1F
100
AcDbEntity
  8
0
100
AcDbCircle
 10
241.715761
 20
95.6
 30
0.0
 40
1.125000000000071
100
AcDbArc
 50
43.432537
 51
90.0
  0
LINE
  5
123
330
1F
100
AcDbEntity
  8
0
100
AcDbLine
 10
241.715761
 20
96.725
 30
0.0
 11
196.358168
 21
96.725
 31
0.0
  0
ARC
  5
124
330
1F
100
AcDbEntity
  8
0
100
AcDbCircle
 10
196.358168
 20
95.6
 30
0.0
 40
1.124999999999901
100
AcDbArc
 50
90.0
 51
136.567463
  0
ARC
  5
125
330
1F
100
AcDbEntity
  8
0
100
AcDbCircle
 10
194.034378
 20
97.8
 30
0.0
 40
2.074999999999978
100
AcDbArc
 50
270.0
 51
316.567463
  0
LINE
  5
126
330
1F
100
AcDbEntity
  8
0
100
AcDbLine
 10
194.034378
 20
95.725
 30
0.0
 11
193.570209
 21
95.725
 31
0.0
  0
SPLINE
  5
127
330
1F
100
AcDbEntity
  8
0
100
AcDbSpline
210
0.0
220
0.0
230
1.0
 70
     8
 71
     3
 72
    12
 73
     8
 74
     0
 42
0.000000001
 43
0.0000000001
 40
0.0
 40
0.0
 40
0.0
 40
0.0
 40
0.0625031157419068
 40
0.0625031157419068
 40
0.1089278837250656
 40
0.1089278837250656
 40
0.1553526517082201
 40
0.1553526517082201
 40
0.1553526517082201
 40
0.1553526517082201
 10
192.2515534931713
 20
95.03117144487527
 30
-0.0000000000000044
 10
192.3695504487985
 20
95.20287998795823
 30
-0.0000000000000089
 10
192.5199577859109
 20
95.3498994744848
 30
-0.0000000000000067
 10
192.8238108963005
 20
95.54867013268209
 30
-0.0000000000000044
 10
192.9649202554232
 20
95.61415157557703
 30
-0.0000000000000067
 10
193.261526256565
 20
95.70254938455945
 30
-0.0000000000000067
 10
193.415460139976
 20
95.72499999999998
 30
-0.0000000000000111
 10
193.5702093665866
 20
95.72499999999998
 30
-0.0000000000000111
  0
SPLINE
  5
128
330
1F
100
AcDbEntity
  8
0
100
AcDbSpline
210
0.0
220
0.0
230
1.0
 70
     8
 71
     3
 72
    11
 73
     7
 74
     0
 42
0.000000001
 43
0.0000000001
 40
2.341913378398677
 40
2.341913378398677
 40
2.341913378398677
 40
2.341913378398677
 40
3.156886777718682
 40
3.156886777718682
 40
3.156886777718682
 40
3.941271928780912
 40
3.941271928780912
 40
3.941271928780912
 40
3.941271928780912
 10
192.2515534931713
 20
95.03117144487527
 30
-0.0000000000000044
 10
191.684102751715
 20
94.20542013994628
 30
-0.0000000000000044
 10
190.8225816158177
 20
93.68111751279928
 30
-0.0000000000000067
 10
189.9243526998806
 20
93.70054696267295
 30
-0.0000000000000022
 10
189.0598368463525
 20
93.71924717054097
 30
-0.0000000000000044
 10
188.2443206688985
 20
94.23661094276403
 30
-0.0000000000000022
 10
187.6983040373006
 20
95.0311714448753
 30
-0.0000000000000022
  0
SPLINE
  5
129
330
1F
100
AcDbEntity
  8
0
100
AcDbSpline
210
0.0
220
0.0
230
1.0
 70
     8
 71
     3
 72
    12
 73
     8
 74
     0
 42
0.000000001
 43
0.0000000001
 40
0.0
 40
0.0
 40
0.0
 40
0.0
 40
0.0625031157419049
 40
0.0625031157419049
 40
0.108927883725062
 40
0.108927883725062
 40
0.1553526517082158
 40
0.1553526517082158
 40
0.1553526517082158
 40
0.1553526517082158
 10
186.3796481638853
 20
95.72500000000002
 30
-0.0000000000000067
 10
186.587991883025
 20
95.72500000000002
 30
-0.0000000000000067
 10
186.7943437226536
 20
95.68430583877658
 30
-0.0000000000000089
 10
187.1302519151324
 20
95.54645746744329
 30
-0.0000000000000089
 10
187.2641373908291
 20
95.46724667276803
 30
-0.0000000000000089
 10
187.5049762524698
 20
95.27286062576397
 30
-0.0000000000000067
 10
187.6106607058812
 20
95.15870955523559
 30
-0.0000000000000089
 10
187.6983040373006
 20
95.03117144487533
 30
-0.0000000000000089
  0
LINE
  5
130
330
1F
100
AcDbEntity
  8
0
100
AcDbLine
 10
186.379648
 20
95.725
 30
0.0
 11
185.915479
 21
95.725
 31
0.0
  0
ARC
  5
131
330
1F
100
AcDbEntity
  8
0
100
AcDbCircle
 10
185.915479
 20
97.8
 30
0.0
 40
2.074999999999694
100
AcDbArc
 50
254.103144
 51
270.0
  0
ARC
  5
132
330
1F
100
AcDbEntity
  8
0
100
AcDbCircle
 10
184.908873
 20
94.265545
 30
0.0
 40
1.59999999999996
100
AcDbArc
 50
74.103144
 51
124.545368
  0
ARC
  5
133
330
1F
100
AcDbEntity
  8
0
100
AcDbCircle
 10
183.43452
 20
96.407107
 30
0.0
 40
0.9999999999999604
100
AcDbArc
 50
225.0
 51
304.545368
  0
LINE
  5
134
330
1F
100
AcDbEntity
  8
0
100
AcDbLine
 10
182.727414
 20
95.7
 30
0.0
 11
178.17386
 21
100.253553
 31
0.0
  0
ARC
  5
135
330
1F
100
AcDbEntity
  8
0
100
AcDbCircle
 10
177.820307
 20
99.9
 30
0.0
 40
0.5000000000000366
100
AcDbArc
 50
45.0
 51
90.0
  0
LINE
  5
136
330
1F
100
AcDbEntity
  8
0
100
AcDbLine
 10
177.820307
 20
100.4
 30
0.0
 11
177.427414
 21
100.4
 31
0.0
  0
ARC
  5
137
330
1F
100
AcDbEntity
  8
0
100
AcDbCircle
 10
177.427414
 20
99.9
 30
0.0
 40
0.4999999999906279
100
AcDbArc
 50
90.0
 51
180.0
  0
LINE
  5
138
330
1F
100
AcDbEntity
  8
0
100
AcDbLine
 10
176.927414
 20
99.9
 30
0.0
 11
176.927414
 21
98.7
 31
0.0
  0
ARC
  5
139
330
1F
100
AcDbEntity
  8
0
100
AcDbCircle
 10
175.327414
 20
98.7
 30
0.0
 40
1.599999999999966
100
AcDbArc
 50
-180.0
 51
0.0
  0
LINE
  5
140
330
1F
100
AcDbEntity
  8
0
100
AcDbLine
 10
173.727414
 20
98.7
 30
0.0
 11
173.727414
 21
99.9
 31
0.0
  0
ARC
  5
141
330
1F
100
AcDbEntity
  8
0
100
AcDbCircle
 10
173.227414
 20
99.9
 30
0.0
 40
0.5000000000000071
100
AcDbArc
 50
0.0
 51
90.0
  0
LINE
  5
142
330
1F
100
AcDbEntity
  8
0
100
AcDbLine
 10
173.227414
 20
100.4
 30
0.0
 11
172.83452
 21
100.4
 31
0.0
  0
ARC
  5
143
330
1F
100
AcDbEntity
  8
0
100
AcDbCircle
 10
172.83452
 20
99.9
 30
0.0
 40
0.4999999999999893
100
AcDbArc
 50
90.0
 51
135.0
  0
LINE
  5
144
330
1F
100
AcDbEntity
  8
0
100
AcDbLine
 10
172.480967
 20
100.253553
 30
0.0
 11
167.927414
 21
95.7
 31
0.0
  0
ARC
  5
145
330
1F
100
AcDbEntity
  8
0
100
AcDbCircle
 10
167.220307
 20
96.407107
 30
0.0
 40
0.9999999999999855
100
AcDbArc
 50
225.0
 51
315.0
  0
LINE
  5
146
330
1F
100
AcDbEntity
  8
0
100
AcDbLine
 10
166.5132
 20
95.7
 30
0.0
 11
165.956829
 21
96.256371
 31
0.0
  0
ARC
  5
147
330
1F
100
AcDbEntity
  8
0
100
AcDbCircle
 10
164.825458
 20
95.125
 30
0.0
 40
1.599999999999982
100
AcDbArc
 50
45.0
 51
90.0
  0
LINE
  5
148
330
1F
100
AcDbEntity
  8
0
100
AcDbLine
 10
164.825458
 20
96.725
 30
0.0
 11
121.874293
 21
96.725
 31
0.0
  0
ARC
  5
149
330
1F
100
AcDbEntity
  8
0
100
AcDbCircle
 10
121.874293
 20
95.125
 30
0.0
 40
1.599999999999966
100
AcDbArc
 50
90.0
 51
135.0
  0
LINE
  5
150
330
1F
100
AcDbEntity
  8
0
100
AcDbLine
 10
120.742922
 20
96.256371
 30
0.0
 11
120.186551
 21
95.7
 31
0.0
  0
ARC
  5
151
330
1F
100
AcDbEntity
  8
0
100
AcDbCircle
 10
119.479444
 20
96.407107
 30
0.0
 40
0.999999999999998
100
AcDbArc
 50
225.0
 51
315.0
  0
LINE
  5
152
330
1F
100
AcDbEntity
  8
0
100
AcDbLine
 10
118.772337
 20
95.7
 30
0.0
 11
114.218784
 21
100.253553
 31
0.0
  0
ARC
  5
153
330
1F
100
AcDbEntity
  8
0
100
AcDbCircle
 10
113.865231
 20
99.9
 30
0.0
 40
0.499999999999999
100
AcDbArc
 50
45.0
 51
90.0
  0
LINE
  5
154
330
1F
100
AcDbEntity
  8
0
100
AcDbLine
 10
113.865231
 20
100.4
 30
0.0
 11
113.472337
 21
100.4
 31
0.0
  0
ARC
  5
155
330
1F
100
AcDbEntity
  8
0
100
AcDbCircle
 10
113.472337
 20
99.9
 30
0.0
 40
0.4999999999944293
100
AcDbArc
 50
90.0
 51
180.0
  0
LINE
  5
156
330
1F
100
AcDbEntity
  8
0
100
AcDbLine
 10
112.972337
 20
99.9
 30
0.0
 11
112.972337
 21
98.7
 31
0.0
  0
ARC
  5
157
330
1F
100
AcDbEntity
  8
0
100
AcDbCircle
 10
111.372337
 20
98.7
 30
0.0
 40
1.600000000000037
100
AcDbArc
 50
180.0
 51
360.0
  0
LINE
  5
158
330
1F
100
AcDbEntity
  8
0
100
AcDbLine
 10
109.772337
 20
98.7
 30
0.0
 11
109.772337
 21
99.9
 31
0.0
  0
ARC
  5
159
330
1F
100
AcDbEntity
  8
0
100
AcDbCircle
 10
109.272337
 20
99.9
 30
0.0
 40
0.5000000000000071
100
AcDbArc
 50
0.0
 51
90.0
  0
LINE
  5
160
330
1F
100
AcDbEntity
  8
0
100
AcDbLine
 10
109.272337
 20
100.4
 30
0.0
 11
108.879444
 21
100.4
 31
0.0
  0
ARC
  5
161
330
1F
100
AcDbEntity
  8
0
100
AcDbCircle
 10
108.879444
 20
99.9
 30
0.0
 40
0.5000000000000071
100
AcDbArc
 50
90.0
 51
135.0
  0
LINE
  5
162
330
1F
100
AcDbEntity
  8
0
100
AcDbLine
 10
108.525891
 20
100.253553
 30
0.0
 11
103.972337
 21
95.7
 31
0.0
  0
ARC
  5
163
330
1F
100
AcDbEntity
  8
0
100
AcDbCircle
 10
103.265231
 20
96.407107
 30
0.0
 40
1.00000000000005
100
AcDbArc
 50
235.454632
 51
315.0
  0
ARC
  5
164
330
1F
100
AcDbEntity
  8
0
100
AcDbCircle
 10
101.790878
 20
94.265545
 30
0.0
 40
1.599999999999976
100
AcDbArc
 50
55.454632
 51
105.896856
  0
ARC
  5
165
330
1F
100
AcDbEntity
  8
0
100
AcDbCircle
 10
100.784272
 20
97.8
 30
0.0
 40
2.074999999999818
100
AcDbArc
 50
270.0
 51
285.896856
  0
LINE
  5
166
330
1F
100
AcDbEntity
  8
0
100
AcDbLine
 10
100.784272
 20
95.725
 30
0.0
 11
100.320103
 21
95.725
 31
0.0
  0
SPLINE
  5
167
330
1F
100
AcDbEntity
  8
0
100
AcDbSpline
210
0.0
220
0.0
230
1.0
 70
     8
 71
     3
 72
    12
 73
     8
 74
     0
 42
0.000000001
 43
0.0000000001
 40
0.0
 40
0.0
 40
0.0
 40
0.0
 40
0.0625031157419068
 40
0.0625031157419068
 40
0.1089278837250619
 40
0.1089278837250619
 40
0.1553526517082163
 40
0.1553526517082163
 40
0.1553526517082163
 40
0.1553526517082163
 10
99.00144699995528
 20
95.0311714448753
 30
-0.0000000000000067
 10
99.11944395558248
 20
95.20287998795824
 30
-0.0000000000000067
 10
99.2698512926949
 20
95.3498994744848
 30
-0.0000000000000067
 10
99.57370440308443
 20
95.54867013268209
 30
-0.0000000000000044
 10
99.71481376220721
 20
95.61415157557704
 30
-0.0000000000000044
 10
100.011419763349
 20
95.70254938455943
 30
-0.0000000000000044
 10
100.16535364676
 20
95.72499999999997
 30
-0.0000000000000067
 10
100.3201028733705
 20
95.72499999999997
 30
-0.0000000000000067
  0
SPLINE
  5
168
330
1F
100
AcDbEntity
  8
0
100
AcDbSpline
210
0.0
220
0.0
230
1.0
 70
     8
 71
     3
 72
    11
 73
     7
 74
     0
 42
0.000000001
 43
0.0000000001
 40
2.341913378398689
 40
2.341913378398689
 40
2.341913378398689
 40
2.341913378398689
 40
3.156886777718682
 40
3.156886777718682
 40
3.156886777718682
 40
3.941271928780903
 40
3.941271928780903
 40
3.941271928780903
 40
3.941271928780903
 10
99.00144699995529
 20
95.0311714448753
 30
-0.0000000000000022
 10
98.43399625849898
 20
94.20542013994631
 30
-0.0000000000000022
 10
97.5724751226017
 20
93.68111751279935
 30
-0.0000000000000067
 10
96.6742462066646
 20
93.700546962673
 30
-0.0000000000000044
 10
95.80973035313656
 20
93.71924717054105
 30
-0.0000000000000067
 10
94.99421417568259
 20
94.23661094276406
 30
-0.0000000000000022
 10
94.44819754408468
 20
95.03117144487531
 30
-0.0000000000000067
  0
SPLINE
  5
169
330
1F
100
AcDbEntity
  8
0
100
AcDbSpline
210
0.0
220
0.0
230
1.0
 70
     8
 71
     3
 72
    12
 73
     8
 74
     0
 42
0.000000001
 43
0.0000000001
 40
0.0
 40
0.0
 40
0.0
 40
0.0
 40
0.06250311574191
 40
0.06250311574191
 40
0.1089278837250645
 40
0.1089278837250645
 40
0.1553526517082179
 40
0.1553526517082179
 40
0.1553526517082179
 40
0.1553526517082179
 10
93.12954167066941
 20
95.72500000000002
 30
-0.0000000000000067
 10
93.33788538980912
 20
95.72500000000002
 30
-0.0000000000000067
 10
93.54423722943773
 20
95.68430583877658
 30
-0.0000000000000089
 10
93.88014542191647
 20
95.5464574674433
 30
-0.0000000000000067
 10
94.01403089761325
 20
95.46724667276803
 30
-0.0000000000000089
 10
94.25486975925389
 20
95.272860625764
 30
-0.0000000000000044
 10
94.3605542126653
 20
95.15870955523559
 30
-0.0000000000000089
 10
94.44819754408468
 20
95.03117144487533
 30
-0.0000000000000089
  0
LINE
  5
170
330
1F
100
AcDbEntity
  8
0
100
AcDbLine
 10
93.129542
 20
95.725
 30
0.0
 11
92.665373
 21
95.725
 31
0.0
  0
ARC
  5
171
330
1F
100
AcDbEntity
  8
0
100
AcDbCircle
 10
92.665373
 20
97.8
 30
0.0
 40
2.074999999999962
100
AcDbArc
 50
223.432537
 51
270.0
  0
ARC
  5
172
330
1F
100
AcDbEntity
  8
0
100
AcDbCircle
 10
90.341583
 20
95.6
 30
0.0
 40
1.125000000000132
100
AcDbArc
 50
43.432537
 51
90.0
  0
LINE
  5
173
330
1F
100
AcDbEntity
  8
0
100
AcDbLine
 10
90.341583
 20
96.725
 30
0.0
 11
44.984239
 21
96.725
 31
0.0
  0
ARC
  5
174
330
1F
100
AcDbEntity
  8
0
100
AcDbCircle
 10
44.984239
 20
95.6
 30
0.0
 40
1.124999999999918
100
AcDbArc
 50
90.0
 51
136.567463
  0
ARC
  5
175
330
1F
100
AcDbEntity
  8
0
100
AcDbCircle
 10
42.660449
 20
97.8
 30
0.0
 40
2.075000000000138
100
AcDbArc
 50
270.0
 51
316.567463
  0
LINE
  5
176
330
1F
100
AcDbEntity
  8
0
100
AcDbLine
 10
42.660449
 20
95.725
 30
0.0
 11
42.19628
 21
95.725
 31
0.0
  0
SPLINE
  5
177
330
1F
100
AcDbEntity
  8
0
100
AcDbSpline
210
0.0
220
0.0
230
1.0
 70
     8
 71
     3
 72
    12
 73
     8
 74
     0
 42
0.000000001
 43
0.0000000001
 40
0.0
 40
0.0
 40
0.0
 40
0.0
 40
0.0625031157419097
 40
0.0625031157419097
 40
0.1089278837250652
 40
0.1089278837250652
 40
0.1553526517082214
 40
0.1553526517082214
 40
0.1553526517082214
 40
0.1553526517082214
 10
40.87762417863524
 20
95.0311714448753
 30
-0.0000000000000022
 10
40.99562113426244
 20
95.20287998795826
 30
-0.0000000000000044
 10
41.14602847137488
 20
95.34989947448483
 30
-0.0000000000000044
 10
41.44988158176442
 20
95.5486701326821
 30
-0.0000000000000067
 10
41.59099094088721
 20
95.61415157557704
 30
-0.0000000000000044
 10
41.88759694202901
 20
95.70254938455945
 30
-0.0000000000000067
 10
42.04153082544001
 20
95.72499999999997
 30
-0.0000000000000067
 10
42.19628005205053
 20
95.72499999999997
 30
-0.0000000000000067
  0
SPLINE
  5
178
330
1F
100
AcDbEntity
  8
0
100
AcDbSpline
210
0.0
220
0.0
230
1.0
 70
     8
 71
     3
 72
    11
 73
     7
 74
     0
 42
0.000000001
 43
0.0000000001
 40
2.341913378398695
 40
2.341913378398695
 40
2.341913378398695
 40
2.341913378398695
 40
3.156886777718682
 40
3.156886777718682
 40
3.156886777718682
 40
3.941271928780905
 40
3.941271928780905
 40
3.941271928780905
 40
3.941271928780905
 10
40.87762417863524
 20
95.03117144487527
 30
-0.0000000000000044
 10
40.31017343717892
 20
94.20542013994631
 30
-0.0000000000000022
 10
39.44865230128164
 20
93.68111751279933
 30
-0.0000000000000044
 10
38.55042338534456
 20
93.70054696267297
 30
-0.0000000000000022
 10
37.68590753181651
 20
93.71924717054101
 30
-0.0000000000000067
 10
36.87039135436254
 20
94.23661094276405
 30
-0.0000000000000044
 10
36.3243747227646
 20
95.03117144487531
 30
-0.0000000000000067
  0
SPLINE
  5
179
330
1F
100
AcDbEntity
  8
0
100
AcDbSpline
210
0.0
220
0.0
230
1.0
 70
     8
 71
     3
 72
    12
 73
     8
 74
     0
 42
0.000000001
 43
0.0000000001
 40
0.0
 40
0.0
 40
0.0
 40
0.0
 40
0.0625031157419094
 40
0.0625031157419094
 40
0.1089278837250653
 40
0.1089278837250653
 40
0.1553526517082182
 40
0.1553526517082182
 40
0.1553526517082182
 40
0.1553526517082182
 10
35.00571884934934
 20
95.72500000000004
 30
-0.0000000000000044
 10
35.21406256848903
 20
95.72500000000004
 30
-0.0000000000000044
 10
35.42041440811766
 20
95.6843058387766
 30
-0.0000000000000067
 10
35.75632260059639
 20
95.54645746744333
 30
-0.0000000000000044
 10
35.89020807629318
 20
95.46724667276803
 30
-0.0000000000000044
 10
36.13104693793382
 20
95.272860625764
 30
-0.0000000000000044
 10
36.23673139134524
 20
95.1587095552356
 30
-0.0000000000000022
 10
36.32437472276461
 20
95.03117144487534
 30
-0.0000000000000022
  0
LINE
  5
180
330
1F
100
AcDbEntity
  8
0
100
AcDbLine
 10
35.005719
 20
95.725
 30
0.0
 11
34.54155
 21
95.725
 31
0.0
  0
ARC
  5
181
330
1F
100
AcDbEntity
  8
0
100
AcDbCircle
 10
34.54155
 20
97.8
 30
0.0
 40
2.075000000000064
100
AcDbArc
 50
223.432537
 51
270.0
  0
ARC
  5
182
330
1F
100
AcDbEntity
  8
0
100
AcDbCircle
 10
32.21776
 20
95.6
 30
0.0
 40
1.12499999999999
100
AcDbArc
 50
43.432537
 51
90.0
  0
LINE
  5
183
330
1F
100
AcDbEntity
  8
0
100
AcDbLine
 10
32.21776
 20
96.725
 30
0.0
 11
30.026955
 21
96.725
 31
0.0
  0
ARC
  5
184
330
1F
100
AcDbEntity
  8
0
100
AcDbCircle
 10
30.026955
 20
95.125
 30
0.0
 40
1.599999999999593
100
AcDbArc
 50
90.0
 51
135.0
  0
LINE
  5
185
330
1F
100
AcDbEntity
  8
0
100
AcDbLine
 10
28.895584
 20
96.256371
 30
0.0
 11
28.339214
 21
95.7
 31
0.0
  0
ARC
  5
186
330
1F
100
AcDbEntity
  8
0
100
AcDbCircle
 10
27.632107
 20
96.407107
 30
0.0
 40
1.000000000000011
100
AcDbArc
 50
225.0
 51
315.0
  0
LINE
  5
187
330
1F
100
AcDbEntity
  8
0
100
AcDbLine
 10
26.925
 20
95.7
 30
0.0
 11
22.371447
 21
100.253553
 31
0.0
  0
ARC
  5
188
330
1F
100
AcDbEntity
  8
0
100
AcDbCircle
 10
22.017893
 20
99.9
 30
0.0
 40
0.5000000000000117
100
AcDbArc
 50
45.0
 51
90.0
  0
LINE
  5
189
330
1F
100
AcDbEntity
  8
0
100
AcDbLine
 10
22.017893
 20
100.4
 30
0.0
 11
21.625
 21
100.4
 31
0.0
  0
ARC
  5
190
330
1F
100
AcDbEntity
  8
0
100
AcDbCircle
 10
21.625
 20
99.9
 30
0.0
 40
0.4999999999999893
100
AcDbArc
 50
90.0
 51
180.0
  0
LINE
  5
191
330
1F
100
AcDbEntity
  8
0
100
AcDbLine
 10
21.125
 20
99.9
 30
0.0
 11
21.125
 21
98.7
 31
0.0
  0
ARC
  5
192
330
1F
100
AcDbEntity
  8
0
100
AcDbCircle
 10
19.525
 20
98.7
 30
0.0
 40
1.600000000000013
100
AcDbArc
 50
180.0
 51
360.0
  0
LINE
  5
193
330
1F
100
AcDbEntity
  8
0
100
AcDbLine
 10
17.925
 20
98.7
 30
0.0
 11
17.925
 21
99.9
 31
0.0
  0
ARC
  5
194
330
1F
100
AcDbEntity
  8
0
100
AcDbCircle
 10
17.425
 20
99.9
 30
0.0
 40
0.4999999999999782
100
AcDbArc
 50
0.0
 51
90.0
  0
LINE
  5
195
330
1F
100
AcDbEntity
  8
0
100
AcDbLine
 10
17.425
 20
100.4
 30
0.0
 11
17.032107
 21
100.4
 31
0.0
  0
ARC
  5
196
330
1F
100
AcDbEntity
  8
0
100
AcDbCircle
 10
17.032107
 20
99.9
 30
0.0
 40
0.4999999999999893
100
AcDbArc
 50
90.0
 51
135.0
  0
LINE
  5
197
330
1F
100
AcDbEntity
  8
0
100
AcDbLine
 10
16.678553
 20
100.253553
 30
0.0
 11
12.125
 21
95.7
 31
0.0
  0
ARC
  5
198
330
1F
100
AcDbEntity
  8
0
100
AcDbCircle
 10
11.417893
 20
96.407107
 30
0.0
 40
1.000000000000012
100
AcDbArc
 50
225.0
 51
315.0
  0
LINE
  5
199
330
1F
100
AcDbEntity
  8
0
100
AcDbLine
 10
10.710786
 20
95.7
 30
0.0
 11
10.154416
 21
96.256371
 31
0.0
  0
ARC
  5
200
330
1F
100
AcDbEntity
  8
0
100
AcDbCircle
 10
9.023045
 20
95.125
 30
0.0
 40
1.599999999999975
100
AcDbArc
 50
45.0
 51
90.0
  0
LINE
  5
201
330
1F
100
AcDbEntity
  8
0
100
AcDbLine
 10
9.023045
 20
96.725
 30
0.0
 11
2.075
 21
96.725
 31
0.0
  0
ARC
  5
202
330
1F
100
AcDbEntity
  8
0
100
AcDbCircle
 10
2.075
 20
95.125
 30
0.0
 40
1.599999999999984
100
AcDbArc
 50
90.0
 51
180.0
  0
LINE
  5
203
330
1F
100
AcDbEntity
  8
0
100
AcDbLine
 10
0.475
 20
95.125
 30
0.0
 11
0.475
 21
1.075
 31
0.0
  0
ARC
  5
204
330
1F
100
AcDbEntity
  8
0
100
AcDbCircle
 10
2.075
 20
1.075
 30
0.0
 40
1.6
100
AcDbArc
 50
180.0
 51
270.0
  0
LINE
  5
205
330
1F
100
AcDbEntity
  8
0
100
AcDbLine
 10
2.075
 20
-0.525
 30
0.0
 11
28.073045
 21
-0.525
 31
0.0
  0
ARC
  5
206
330
1F
100
AcDbEntity
  8
0
100
AcDbCircle
 10
28.073045
 20
1.075
 30
0.0
 40
1.599999999999571
100
AcDbArc
 50
270.0
 51
315.0
  0
LINE
  5
207
330
1F
100
AcDbEntity
  8
0
100
AcDbLine
 10
29.204416
 20
-0.056371
 30
0.0
 11
29.760786
 21
0.5
 31
0.0
  0
ARC
  5
208
330
1F
100
AcDbEntity
  8
0
100
AcDbCircle
 10
30.467893
 20
-0.207107
 30
0.0
 40
0.9999999999999993
100
AcDbArc
 50
45.0
 51
135.0
  0
LINE
  5
209
330
1F
100
AcDbEntity
  8
0
100
AcDbLine
 10
31.175
 20
0.5
 30
0.0
 11
35.728553
 21
-4.053553
 31
0.0
  0
ARC
  5
210
330
1F
100
AcDbEntity
  8
0
100
AcDbCircle
 10
36.082107
 20
-3.7
 30
0.0
 40
0.5000000000000029
100
AcDbArc
 50
225.0
 51
270.0
  0
LINE
  5
211
330
1F
100
AcDbEntity
  8
0
100
AcDbLine
 10
36.082107
 20
-4.2
 30
0.0
 11
36.475
 21
-4.2
 31
0.0
  0
ARC
  5
212
330
1F
100
AcDbEntity
  8
0
100
AcDbCircle
 10
36.475
 20
-3.7
 30
0.0
 40
0.4999999999999982
100
AcDbArc
 50
270.0
 51
360.0
  0
LINE
  5
213
330
1F
100
AcDbEntity
  8
0
100
AcDbLine
 10
36.975
 20
-3.7
 30
0.0
 11
36.975
 21
-2.5
 31
0.0
  0
ARC
  5
214
330
1F
100
AcDbEntity
  8
0
100
AcDbCircle
 10
38.575
 20
-2.5
 30
0.0
 40
1.600000000000006
100
AcDbArc
 50
0.0
 51
180.0
  0
LINE
  5
215
330
1F
100
AcDbEntity
  8
0
100
AcDbLine
 10
40.175
 20
-2.5
 30
0.0
 11
40.175
 21
-3.7
 31
0.0
  0
ARC
  5
216
330
1F
100
AcDbEntity
  8
0
100
AcDbCircle
 10
40.675
 20
-3.7
 30
0.0
 40
0.4999999999999982
100
AcDbArc
 50
180.0
 51
270.0
  0
LINE
  5
217
330
1F
100
AcDbEntity
  8
0
100
AcDbLine
 10
40.675
 20
-4.2
 30
0.0
 11
41.067893
 21
-4.2
 31
0.0
  0
ARC
  5
218
330
1F
100
AcDbEntity
  8
0
100
AcDbCircle
 10
41.067893
 20
-3.7
 30
0.0
 40
0.5000000000000016
100
AcDbArc
 50
270.0
 51
315.0
  0
LINE
  5
219
330
1F
100
AcDbEntity
  8
0
100
AcDbLine
 10
41.421447
 20
-4.053553
 30
0.0
 11
45.975
 21
0.5
 31
0.0
  0
ARC
  5
220
330
1F
100
AcDbEntity
  8
0
100
AcDbCircle
 10
46.682107
 20
-0.207107
 30
0.0
 40
0.9999999999999999
100
AcDbArc
 50
45.681508
 51
135.0
  0
ARC
  5
221
330
1F
100
AcDbEntity
  8
0
100
AcDbCircle
 10
48.498587
 20
1.653108
 30
0.0
 40
1.599999999999999
100
AcDbArc
 50
225.681508
 51
297.723918
  0
ARC
  5
222
330
1F
100
AcDbEntity
  8
0
100
AcDbCircle
 10
50.20824
 20
-1.6
 30
0.0
 40
2.074999999999976
100
AcDbArc
 50
92.832459
 51
117.723918
  0
SPLINE
  5
223
330
1F
100
AcDbEntity
  8
0
100
AcDbSpline
210
0.0
220
0.0
230
1.0
 70
     8
 71
     3
 72
    12
 73
     8
 74
     0
 42
0.000000001
 43
0.0000000001
 40
0.0
 40
0.0
 40
0.0
 40
0.0
 40
0.0625031157419084
 40
0.0625031157419084
 40
0.1050332217595029
 40
0.1050332217595029
 40
0.1475633277770976
 40
0.1475633277770976
 40
0.1475633277770976
 40
0.1475633277770976
 10
51.34618532770561
 20
1.16563839365436
 30
0.0
 10
51.22835759622732
 20
0.9938136835581732
 30
0.0
 10
51.07809517538784
 20
0.8466460873990658
 30
0.0
 10
50.78529514974939
 20
0.654693815497593
 30
0.0
 10
50.65692834261703
 20
0.5930695235880405
 30
0.0
 10
50.38733290369561
 20
0.5052637651321927
 30
0.0
 10
50.24729613338798
 20
0.4794704813451028
 30
0.0
 10
50.10570230973696
 20
0.472464977780624
 30
0.0
  0
SPLINE
  5
224
330
1F
100
AcDbEntity
  8
0
100
AcDbSpline
210
0.0
220
0.0
230
1.0
 70
     8
 71
     3
 72
    11
 73
     7
 74
     0
 42
0.000000001
 43
0.0000000001
 40
-3.942327203866961
 40
-3.942327203866961
 40
-3.942327203866961
 40
-3.942327203866961
 40
-3.126298529460903
 40
-3.126298529460903
 40
-3.126298529460903
 40
-2.341913378398615
 40
-2.341913378398615
 40
-2.341913378398615
 40
-2.341913378398615
 10
51.34618532770561
 20
1.165638393654361
 30
0.0
 10
51.91367612063117
 20
1.993193501041394
 30
0.0
 10
52.77618407023391
 20
2.518907645585712
 30
0.0
 10
53.67557606535538
 20
2.499453037327258
 30
0.0
 10
54.5400919188835
 20
2.48075282945923
 30
0.0
 10
55.35560809633754
 20
1.963389057236121
 30
0.0
 10
55.90162472793548
 20
1.168828555124737
 30
0.0000000000000022
  0
SPLINE
  5
225
330
1F
100
AcDbEntity
  8
0
100
AcDbSpline
210
0.0
220
0.0
230
1.0
 70
     8
 71
     3
 72
    12
 73
     8
 74
     0
 42
0.000000001
 43
0.0000000001
 40
0.0
 40
0.0
 40
0.0
 40
0.0
 40
0.062503115741908
 40
0.062503115741908
 40
0.1089278837250694
 40
0.1089278837250694
 40
0.1553526517082298
 40
0.1553526517082298
 40
0.1553526517082298
 40
0.1553526517082298
 10
57.22028060135079
 20
0.4749999999999817
 30
0.0
 10
57.0119368822111
 20
0.4749999999999817
 30
0.0
 10
56.80558504258248
 20
0.5156941612233822
 30
0.0
 10
56.46967685010372
 20
0.653542532556658
 30
0.0
 10
56.33579137440692
 20
0.7327533272319704
 30
0.0
 10
56.09495251276624
 20
0.9271393742360237
 30
0.0
 10
55.98926805935484
 20
1.041290444764454
 30
0.0
 10
55.90162472793547
 20
1.168828555124741
 30
0.0
  0
LINE
  5
226
330
1F
100
AcDbEntity
  8
0
100
AcDbLine
 10
57.220281
 20
0.475
 30
0.0
 11
57.68445
 21
0.475
 31
0.0
  0
ARC
  5
227
330
1F
100
AcDbEntity
  8
0
100
AcDbCircle
 10
57.68445
 20
-1.6
 30
0.0
 40
2.074999999999973
100
AcDbArc
 50
43.432537
 51
90.0
  0
ARC
  5
228
330
1F
100
AcDbEntity
  8
0
100
AcDbCircle
 10
60.00824
 20
0.6
 30
0.0
 40
1.125000000000012
100
AcDbArc
 50
223.432537
 51
270.0
  0
LINE
  5
229
330
1F
100
AcDbEntity
  8
0
100
AcDbLine
 10
60.00824
 20
-0.525
 30
0.0
 11
82.2
 21
-0.525
 31
0.0
  0
ARC
  5
230
330
1F
100
AcDbEntity
  8
0
100
AcDbCircle
 10
82.2
 20
-0.025
 30
0.0
 40
0.4999999999999996
100
AcDbArc
 50
270.0
 51
360.0
  0
LINE
  5
231
330
1F
100
AcDbEntity
  8
0
100
AcDbLine
 10
82.7
 20
-0.025
 30
0.0
 11
82.7
 21
17.5
 31
0.0
  0
ARC
  5
232
330
1F
100
AcDbEntity
  8
0
100
AcDbCircle
 10
83.2
 20
17.5
 30
0.0
 40
0.5000000000000004
100
AcDbArc
 50
90.0
 51
180.0
  0
LINE
  5
233
330
1F
100
AcDbEntity
  8
0
100
AcDbLine
 10
83.2
 20
18.0
 30
0.0
 11
89.2
 21
18.0
 31
0.0
  0
ARC
  5
234
330
1F
100
AcDbEntity
  8
0
100
AcDbCircle
 10
89.2
 20
17.5
 30
0.0
 40
0.5000000000000071
100
AcDbArc
 50
0.0
 51
90.0
  0
LINE
  5
235
330
1F
100
AcDbEntity
  8
0
100
AcDbLine
 10
89.7
 20
17.5
 30
0.0
 11
89.7
 21
-0.025
 31
0.0
  0
ARC
  5
236
330
1F
100
AcDbEntity
  8
0
100
AcDbCircle
 10
90.2
 20
-0.025
 30
0.0
 40
0.5000000000000071
100
AcDbArc
 50
180.0
 51
270.0
  0
LINE
  5
237
330
1F
100
AcDbEntity
  8
0
100
AcDbLine
 10
90.2
 20
-0.525
 30
0.0
 11
90.341357
 21
-0.525
 31
0.0
  0
ARC
  5
238
330
1F
100
AcDbEntity
  8
0
100
AcDbCircle
 10
90.341357
 20
0.6
 30
0.0
 40
1.124999999999982
100
AcDbArc
 50
270.0
 51
316.567463
  0
ARC
  5
239
330
1F
100
AcDbEntity
  8
0
100
AcDbCircle
 10
92.665147
 20
-1.6
 30
0.0
 40
2.074999999999971
100
AcDbArc
 50
90.0
 51
136.567463
  0
LINE
  5
240
330
1F
100
AcDbEntity
  8
0
100
AcDbLine
 10
92.665147
 20
0.475
 30
0.0
 11
92.824758
 21
0.475
 31
0.0
  0
ARC
  5
241
330
1F
100
AcDbEntity
  8
0
100
AcDbCircle
 10
92.824758
 20
2.075
 30
0.0
 40
1.59999999999998
100
AcDbArc
 50
270.0
 51
315.0
  0
LINE
  5
242
330
1F
100
AcDbEntity
  8
0
100
AcDbLine
 10
93.956129
 20
0.943629
 30
0.0
 11
95.543871
 21
2.531371
 31
0.0
  0
ARC
  5
243
330
1F
100
AcDbEntity
  8
0
100
AcDbCircle
 10
96.675242
 20
1.4
 30
0.0
 40
1.6
100
AcDbArc
 50
90.0
 51
135.0
  0
LINE
  5
244
330
1F
100
AcDbEntity
  8
0
100
AcDbLine
 10
96.675242
 20
3.0
 30
0.0
 11
135.85
 21
3.0
 31
0.0
  0
ARC
  5
245
330
1F
100
AcDbEntity
  8
0
100
AcDbCircle
 10
135.85
 20
3.5
 30
0.0
 40
0.4999999999999988
100
AcDbArc
 50
-90.0
 51
0.0
  0
LINE
  5
246
330
1F
100
AcDbEntity
  8
0
100
AcDbLine
 10
136.35
 20
3.5
 30
0.0
 11
136.35
 21
16.5
 31
0.0
  0
ARC
  5
247
330
1F
100
AcDbEntity
  8
0
100
AcDbCircle
 10
136.85
 20
16.5
 30
0.0
 40
0.5000000000000004
100
AcDbArc
 50
90.0
 51
180.0
  0
LINE
  5
248
330
1F
100
AcDbEntity
  8
0
100
AcDbLine
 10
136.85
 20
17.0
 30
0.0
 11
149.85
 21
17.0
 31
0.0
  0
ARC
  5
249
330
1F
100
AcDbEntity
  8
0
100
AcDbCircle
 10
149.85
 20
16.5
 30
0.0
 40
0.5000000000000071
100
AcDbArc
 50
0.0
 51
90.0
  0
LINE
  5
250
330
1F
100
AcDbEntity
  8
0
100
AcDbLine
 10
150.35
 20
16.5
 30
0.0
 11
150.35
 21
3.5
 31
0.0
  0
ARC
  5
251
330
1F
100
AcDbEntity
  8
0
100
AcDbCircle
 10
150.85
 20
3.5
 30
0.0
 40
0.5000000000000071
100
AcDbArc
 50
180.0
 51
270.0
  0
LINE
  5
252
330
1F
100
AcDbEntity
  8
0
100
AcDbLine
 10
150.85
 20
3.0
 30
0.0
 11
190.024758
 21
3.0
 31
0.0
  0
ARC
  5
253
330
1F
100
AcDbEntity
  8
0
100
AcDbCircle
 10
190.024758
 20
1.4
 30
0.0
 40
1.599999999999995
100
AcDbArc
 50
45.0
 51
90.0
  0
LINE
  5
254
330
1F
100
AcDbEntity
  8
0
100
AcDbLine
 10
191.156129
 20
2.531371
 30
0.0
 11
192.743871
 21
0.943629
 31
0.0
  0
ARC
  5
255
330
1F
100
AcDbEntity
  8
0
100
AcDbCircle
 10
193.875242
 20
2.075
 30
0.0
 40
1.599999999999393
100
AcDbArc
 50
225.0
 51
270.0
  0
LINE
  5
256
330
1F
100
AcDbEntity
  8
0
100
AcDbLine
 10
193.875242
 20
0.475
 30
0.0
 11
194.034595
 21
0.475
 31
0.0
  0
ARC
  5
257
330
1F
100
AcDbEntity
  8
0
100
AcDbCircle
 10
194.034595
 20
-1.6
 30
0.0
 40
2.075000000000064
100
AcDbArc
 50
43.432537
 51
90.0
  0
ARC
  5
258
330
1F
100
AcDbEntity
  8
0
100
AcDbCircle
 10
196.358385
 20
0.6
 30
0.0
 40
1.124999999999979
100
AcDbArc
 50
223.432537
 51
270.0
  0
LINE
  5
259
330
1F
100
AcDbEntity
  8
0
100
AcDbLine
 10
196.358385
 20
-0.525
 30
0.0
 11
196.5
 21
-0.525
 31
0.0
  0
ARC
  5
260
330
1F
100
AcDbEntity
  8
0
100
AcDbCircle
 10
196.5
 20
-0.025
 30
0.0
 40
0.5
100
AcDbArc
 50
270.0
 51
360.0
  0
LINE
  5
261
330
1F
100
AcDbEntity
  8
0
100
AcDbLine
 10
197.0
 20
-0.025
 30
0.0
 11
197.0
 21
17.5
 31
0.0
  0
ARC
  5
262
330
1F
100
AcDbEntity
  8
0
100
AcDbCircle
 10
197.5
 20
17.5
 30
0.0
 40
0.5000000000000004
100
AcDbArc
 50
90.0
 51
180.0
  0
LINE
  5
263
330
1F
100
AcDbEntity
  8
0
100
AcDbLine
 10
197.5
 20
18.0
 30
0.0
 11
203.5
 21
18.0
 31
0.0
  0
ARC
  5
264
330
1F
100
AcDbEntity
  8
0
100
AcDbCircle
 10
203.5
 20
17.5
 30
0.0
 40
0.5000000000000071
100
AcDbArc
 50
0.0
 51
90.0
  0
LINE
  5
265
330
1F
100
AcDbEntity
  8
0
100
AcDbLine
 10
204.0
 20
17.5
 30
0.0
 11
204.0
 21
-0.025
 31
0.0
  0
ARC
  5
266
330
1F
100
AcDbEntity
  8
0
100
AcDbCircle
 10
204.5
 20
-0.025
 30
0.0
 40
0.5000000000000071
100
AcDbArc
 50
180.0
 51
270.0
  0
LINE
  5
267
330
1F
100
AcDbEntity
  8
0
100
AcDbLine
 10
204.5
 20
-0.525
 30
0.0
 11
226.69176
 21
-0.525
 31
0.0
  0
ARC
  5
268
330
1F
100
AcDbEntity
  8
0
100
AcDbCircle
 10
226.69176
 20
0.6
 30
0.0
 40
1.124999999999984
100
AcDbArc
 50
270.0
 51
316.567463
  0
ARC
  5
269
330
1F
100
AcDbEntity
  8
0
100
AcDbCircle
 10
229.01555
 20
-1.6
 30
0.0
 40
2.074999999999915
100
AcDbArc
 50
90.0
 51
136.567463
  0
LINE
  5
270
330
1F
100
AcDbEntity
  8
0
100
AcDbLine
 10
229.01555
 20
0.475
 30
0.0
 11
229.479719
 21
0.475
 31
0.0
  0
SPLINE
  5
271
330
1F
100
AcDbEntity
  8
0
100
AcDbSpline
210
0.0
220
0.0
230
1.0
 70
     8
 71
     3
 72
    12
 73
     8
 74
     0
 42
0.000000001
 43
0.0000000001
 40
0.0
 40
0.0
 40
0.0
 40
0.0
 40
0.0625031157419086
 40
0.0625031157419086
 40
0.1089278837250683
 40
0.1089278837250683
 40
0.1553526517082263
 40
0.1553526517082263
 40
0.1553526517082263
 40
0.1553526517082263
 10
230.7983752720646
 20
1.16882855512473
 30
0.0
 10
230.6803783164374
 20
0.997120012041762
 30
0.0
 10
230.529970979325
 20
0.8501005255151775
 30
0.0
 10
230.2261178689355
 20
0.651329867317896
 30
0.0
 10
230.0850085098127
 20
0.5858484244229312
 30
0.0
 10
229.7884025086708
 20
0.4974506154405114
 30
0.0
 10
229.6344686252598
 20
0.4749999999999874
 30
0.0
 10
229.4797193986493
 20
0.4749999999999874
 30
0.0
  0
SPLINE
  5
272
330
1F
100
AcDbEntity
  8
0
100
AcDbSpline
210
0.0
220
0.0
230
1.0
 70
     8
 71
     3
 72
    11
 73
     7
 74
     0
 42
0.000000001
 43
0.0000000001
 40
-3.941271928780966
 40
-3.941271928780966
 40
-3.941271928780966
 40
-3.941271928780966
 40
-3.126298529460904
 40
-3.126298529460904
 40
-3.126298529460904
 40
-2.341913378398618
 40
-2.341913378398618
 40
-2.341913378398618
 40
-2.341913378398618
 10
230.7983752720646
 20
1.168828555124739
 30
0.0
 10
231.3658260135209
 20
1.994579860053842
 30
0.0000000000000022
 10
232.2273471494183
 20
2.518882487200879
 30
0.0
 10
233.1255760653554
 20
2.499453037327231
 30
0.0
 10
233.9900919188835
 20
2.480752829459204
 30
0.0000000000000022
 10
234.8056080963376
 20
1.963389057236124
 30
0.0
 10
235.3516247279355
 20
1.168828555124733
 30
0.0
  0
SPLINE
  5
273
330
1F
100
AcDbEntity
  8
0
100
AcDbSpline
210
0.0
220
0.0
230
1.0
 70
     8
 71
     3
 72
    12
 73
     8
 74
     0
 42
0.000000001
 43
0.0000000001
 40
0.0
 40
0.0
 40
0.0
 40
0.0
 40
0.0625031157419085
 40
0.0625031157419085
 40
0.1089278837250698
 40
0.1089278837250698
 40
0.1553526517082298
 40
0.1553526517082298
 40
0.1553526517082298
 40
0.1553526517082298
 10
236.6702806013508
 20
0.4749999999999875
 30
0.0
 10
236.4619368822111
 20
0.4749999999999828
 30
0.0
 10
236.2555850425825
 20
0.5156941612233832
 30
0.0
 10
235.9196768501037
 20
0.6535425325566566
 30
0.0
 10
235.7857913744069
 20
0.7327533272319671
 30
0.0
 10
235.5449525127663
 20
0.9271393742360172
 30
0.0
 10
235.4392680593548
 20
1.041290444764446
 30
0.0000000000000022
 10
235.3516247279355
 20
1.168828555124731
 30
0.0
  0
LINE
  5
274
330
1F
100
AcDbEntity
  8
0
100
AcDbLine
 10
236.670281
 20
0.475
 30
0.0
 11
237.03445
 21
0.475
 31
0.0
  0
ARC
  5
275
330
1F
100
AcDbEntity
  8
0
100
AcDbCircle
 10
237.03445
 20
-1.6
 30
0.0
 40
2.07500000000023
100
AcDbArc
 50
68.415411
 51
90.0
  0
ARC
  5
276
330
1F
100
AcDbEntity
  8
0
100
AcDbCircle
 10
238.386388
 20
1.817292
 30
0.0
 40
1.59999999999999
100
AcDbArc
 50
248.415411
 51
308.866055
  0
ARC
  5
277
330
1F
100
AcDbEntity
  8
0
100
AcDbCircle
 10
240.017893
 20
-0.207107
 30
0.0
 40
0.9999999999999959
100
AcDbArc
 50
45.0
 51
128.866055
  0
LINE
  5
278
330
1F
100
AcDbEntity
  8
0
100
AcDbLine
 10
240.725
 20
0.5
 30
0.0
 11
245.278553
 21
-4.053553
 31
0.0
  0
ARC
  5
279
330
1F
100
AcDbEntity
  8
0
100
AcDbCircle
 10
245.632107
 20
-3.7
 30
0.0
 40
0.5000000000000151
100
AcDbArc
 50
225.0
 51
270.0
  0
LINE
  5
280
330
1F
100
AcDbEntity
  8
0
100
AcDbLine
 10
245.632107
 20
-4.2
 30
0.0
 11
246.025
 21
-4.2
 31
0.0
  0
ARC
  5
281
330
1F
100
AcDbEntity
  8
0
100
AcDbCircle
 10
246.025
 20
-3.7
 30
0.0
 40
0.5000000000000276
100
AcDbArc
 50
270.0
 51
360.0
  0
LINE
  5
282
330
1F
100
AcDbEntity
  8
0
100
AcDbLine
 10
246.525
 20
-3.7
 30
0.0
 11
246.525
 21
-2.5
 31
0.0
  0
ARC
  5
283
330
1F
100
AcDbEntity
  8
0
100
AcDbCircle
 10
248.125
 20
-2.5
 30
0.0
 40
1.600000000000037
100
AcDbArc
 50
0.0
 51
180.0
  0
LINE
  5
284
330
1F
100
AcDbEntity
  8
0
100
AcDbLine
 10
249.725
 20
-2.5
 30
0.0
 11
249.725
 21
-3.7
 31
0.0
  0
ARC
  5
285
330
1F
100
AcDbEntity
  8
0
100
AcDbCircle
 10
250.225
 20
-3.7
 30
0.0
 40
0.5000000000000071
100
AcDbArc
 50
180.0
 51
270.0
  0
LINE
  5
286
330
1F
100
AcDbEntity
  8
0
100
AcDbLine
 10
250.225
 20
-4.2
 30
0.0
 11
250.617893
 21
-4.2
 31
0.0
  0
ARC
  5
287
330
1F
100
AcDbEntity
  8
0
100
AcDbCircle
 10
250.617893
 20
-3.7
 30
0.0
 40
0.5000000000000021
100
AcDbArc
 50
270.0
 51
315.0
  0
LINE
  5
288
330
1F
100
AcDbEntity
  8
0
100
AcDbLine
 10
250.971447
 20
-4.053553
 30
0.0
 11
255.525
 21
0.5
 31
0.0
  0
ARC
  5
289
330
1F
100
AcDbEntity
  8
0
100
AcDbCircle
 10
256.232107
 20
-0.207107
 30
0.0
 40
1.000000000000011
100
AcDbArc
 50
45.0
 51
135.0
  0
LINE
  5
290
330
1F
100
AcDbEntity
  8
0
100
AcDbLine
 10
256.939214
 20
0.5
 30
0.0
 11
257.495584
 21
-0.056371
 31
0.0
  0
ARC
  5
291
330
1F
100
AcDbEntity
  8
0
100
AcDbCircle
 10
258.626955
 20
1.075
 30
0.0
 40
1.599999999999974
100
AcDbArc
 50
225.0
 51
270.0
  0
LINE
  5
292
330
1F
100
AcDbEntity
  8
0
100
AcDbLine
 10
258.626955
 20
-0.525
 30
0.0
 11
284.625
 21
-0.525
 31
0.0
  0
ARC
  5
293
330
1F
100
AcDbEntity
  8
0
100
AcDbCircle
 10
284.625
 20
1.075
 30
0.0
 40
1.6
100
AcDbArc
 50
-90.0
 51
0.0
  0
LINE
  5
294
330
1F
100
AcDbEntity
  8
0
100
AcDbLine
 10
286.225
 20
1.075
 30
0.0
 11
286.225
 21
95.125
 31
0.0
  0
ARC
  5
295
330
1F
100
AcDbEntity
  8
0
100
AcDbCircle
 10
284.625
 20
95.125
 30
0.0
 40
1.600000000000037
100
AcDbArc
 50
0.0
 51
90.0
  0
LINE
  5
296
330
1F
100
AcDbEntity
  8
0
100
AcDbLine
 10
284.625
 20
96.725
 30
0.0
 11
277.676955
 21
96.725
 31
0.0
  0
ARC
  5
297
330
1F
100
AcDbEntity
  8
0
100
AcDbCircle
 10
277.676955
 20
95.125
 30
0.0
 40
1.599999999999984
100
AcDbArc
 50
90.0
 51
135.0
  0
LINE
  5
298
330
1F
100
AcDbEntity
  8
0
100
AcDbLine
 10
276.545584
 20
96.256371
 30
0.0
 11
275.989214
 21
95.7
 31
0.0
  0
ARC
  5
299
330
1F
100
AcDbEntity
  8
0
100
AcDbCircle
 10
275.282107
 20
96.407107
 30
0.0
 40
1.000000000000073
100
AcDbArc
 50
225.0
 51
315.0
  0
LINE
  5
300
330
1F
100
AcDbEntity
  8
0
100
AcDbLine
 10
274.575
 20
95.7
 30
0.0
 11
270.021447
 21
100.253553
 31
0.0
  0
ARC
  5
301
330
1F
100
AcDbEntity
  8
0
100
AcDbCircle
 10
269.667893
 20
99.9
 30
0.0
 40
0.5000000000000241
100
AcDbArc
 50
45.0
 51
90.0
  0
LINE
  5
302
330
1F
100
AcDbEntity
  8
0
100
AcDbLine
 10
269.667893
 20
100.4
 30
0.0
 11
269.275
 21
100.4
 31
0.0
  0
ARC
  5
303
330
1F
100
AcDbEntity
  8
0
100
AcDbCircle
 10
269.275
 20
99.9
 30
0.0
 40
0.4999999999850679
100
AcDbArc
 50
90.0
 51
180.0
  0
LINE
  5
304
330
1F
100
AcDbEntity
  8
0
100
AcDbLine
 10
268.775
 20
99.9
 30
0.0
 11
268.775
 21
98.7
 31
0.0
  0
ARC
  5
305
330
1F
100
AcDbEntity
  8
0
100
AcDbCircle
 10
267.175
 20
98.7
 30
0.0
 40
1.600000000000001
100
AcDbArc
 50
180.0
 51
360.0
  0
LINE
  5
306
330
1F
100
AcDbEntity
  8
0
100
AcDbLine
 10
265.575
 20
98.7
 30
0.0
 11
265.575
 21
99.9
 31
0.0
  0
LWPOLYLINE
  5
307
330
1F
100
AcDbEntity
  8
0
100
AcDbPolyline
 90
        8
 70
     1
 43
0.0
 10
213.525
 20
17.5
 10
213.525
 20
2.5
 42
-0.414214
 10
213.025
 20
2.0
 10
207.025
 20
2.0
 42
-0.414214
 10
206.525
 20
2.5
 10
206.525
 20
17.5
 42
-0.414214
 10
207.025
 20
18.0
 10
213.025
 20
18.0
 42
-0.414214
  0
LWPOLYLINE
  5
308
330
1F
100
AcDbEntity
  8
0
100
AcDbPolyline
 90
        8
 70
     1
 43
0.0
 10
217.3125
 20
3.5
 42
0.414214
 10
217.8125
 20
3.0
 10
230.8125
 20
3.0
 42
0.414214
 10
231.3125
 20
3.5
 10
231.3125
 20
16.5
 42
0.414214
 10
230.8125
 20
17.0
 10
217.8125
 20
17.0
 42
0.414214
 10
217.3125
 20
16.5
  0
LWPOLYLINE
  5
309
330
1F
100
AcDbEntity
  8
0
100
AcDbPolyline
 90
        8
 70
     1
 43
0.0
 10
235.21875
 20
3.5
 42
0.414214
 10
235.71875
 20
3.0
 10
236.71875
 20
3.0
 42
0.414214
 10
237.21875
 20
3.5
 10
237.21875
 20
16.5
 42
0.414214
 10
236.71875
 20
17.0
 10
235.71875
 20
17.0
 42
0.414214
 10
235.21875
 20
16.5
  0
LWPOLYLINE
  5
310
330
1F
100
AcDbEntity
  8
0
100
AcDbPolyline
 90
        8
 70
     1
 43
0.0
 10
241.125
 20
3.5
 42
0.414214
 10
241.625
 20
3.0
 10
254.625
 20
3.0
 42
0.414214
 10
255.125
 20
3.5
 10
255.125
 20
16.5
 42
0.414214
 10
254.625
 20
17.0
 10
241.625
 20
17.0
 42
0.414214
 10
241.125
 20
16.5
  0
LWPOLYLINE
  5
311
330
1F
100
AcDbEntity
  8
0
100
AcDbPolyline
 90
        8
 70
     1
 43
0.0
 10
259.03125
 20
3.5
 42
0.414214
 10
259.53125
 20
3.0
 10
260.53125
 20
3.0
 42
0.414214
 10
261.03125
 20
3.5
 10
261.03125
 20
16.5
 42
0.414214
 10
260.53125
 20
17.0
 10
259.53125
 20
17.0
 42
0.414214
 10
259.03125
 20
16.5
  0
LWPOLYLINE
  5
312
330
1F
100
AcDbEntity
  8
0
100
AcDbPolyline
 90
        8
 70
     1
 43
0.0
 10
264.9375
 20
3.5
 42
0.414214
 10
265.4375
 20
3.0
 10
278.4375
 20
3.0
 42
0.414214
 10
278.9375
 20
3.5
 10
278.9375
 20
16.5
 42
0.414214
 10
278.4375
 20
17.0
 10
265.4375
 20
17.0
 42
0.414214
 10
264.9375
 20
16.5
  0
LWPOLYLINE
  5
313
330
1F
100
AcDbEntity
  8
0
100
AcDbPolyline
 90
        8
 70
     1
 43
0.0
 10
281.7
 20
3.5
 42
0.414214
 10
282.2
 20
3.0
 10
283.2
 20
3.0
 42
0.414214
 10
283.7
 20
3.5
 10
283.7
 20
16.5
 42
0.414214
 10
283.2
 20
17.0
 10
282.2
 20
17.0
 42
0.414214
 10
281.7
 20
16.5
  0
LWPOLYLINE
  5
314
330
1F
100
AcDbEntity
  8
0
100
AcDbPolyline
 90
        8
 70
     1
 43
0.0
 10
54.6
 20
79.2
 42
0.414214
 10
55.1
 20
79.7
 10
55.1
 20
92.7
 42
0.414214
 10
54.6
 20
93.2
 10
41.6
 20
93.2
 42
0.414214
 10
41.1
 20
92.7
 10
41.1
 20
79.7
 42
0.414214
 10
41.6
 20
79.2
  0
LWPOLYLINE
  5
315
330
1F
100
AcDbEntity
  8
0
100
AcDbPolyline
 90
        8
 70
     1
 43
0.0
 10
79.2
 20
79.7
 10
79.2
 20
92.7
 42
-0.414214
 10
79.7
 20
93.2
 10
92.7
 20
93.2
 42
-0.414214
 10
93.2
 20
92.7
 10
93.2
 20
79.7
 42
-0.414214
 10
92.7
 20
79.2
 10
79.7
 20
79.2
 42
-0.414214
  0
LWPOLYLINE
  5
316
330
1F
100
AcDbEntity
  8
0
100
AcDbPolyline
 90
        8
 70
     1
 43
0.0
 10
150.35
 20
92.7
 42
0.414214
 10
149.85
 20
93.2
 10
136.85
 20
93.2
 42
0.414214
 10
136.35
 20
92.7
 10
136.35
 20
79.7
 42
0.414214
 10
136.85
 20
79.2
 10
149.85
 20
79.2
 42
0.414214
 10
150.35
 20
79.7
  0
LWPOLYLINE
  5
317
330
1F
100
AcDbEntity
  8
0
100
AcDbPolyline
 90
        8
 70
     1
 43
0.0
 10
245.6
 20
92.7
 42
0.414214
 10
245.1
 20
93.2
 10
232.1
 20
93.2
 42
0.414214
 10
231.6
 20
92.7
 10
231.6
 20
79.7
 42
0.414214
 10
232.1
 20
79.2
 10
245.1
 20
79.2
 42
0.414214
 10
245.6
 20
79.7
  0
LWPOLYLINE
  5
318
330
1F
100
AcDbEntity
  8
0
100
AcDbPolyline
 90
        8
 70
     1
 43
0.0
 10
240.3375
 20
41.1
 10
227.3375
 20
41.1
 42
-0.414214
 10
226.8375
 20
41.6
 10
226.8375
 20
54.6
 42
-0.414214
 10
227.3375
 20
55.1
 10
240.3375
 20
55.1
 42
-0.414214
 10
240.8375
 20
54.6
 10
240.8375
 20
41.6
 42
-0.414214
  0
LWPOLYLINE
  5
319
330
1F
100
AcDbEntity
  8
0
100
AcDbPolyline
 90
        8
 70
     1
 43
0.0
 10
112.5375
 20
41.6
 10
112.5375
 20
54.6
 42
-0.414214
 10
113.0375
 20
55.1
 10
126.0375
 20
55.1
 42
-0.414214
 10
126.5375
 20
54.6
 10
126.5375
 20
41.6
 42
-0.414214
 10
126.0375
 20
41.1
 10
113.0375
 20
41.1
 42
-0.414214
  0
LWPOLYLINE
  5
320
330
1F
100
AcDbEntity
  8
0
100
AcDbPolyline
 90
        8
 70
     1
 43
0.0
 10
153.375
 20
17.0
 10
173.175
 20
17.0
 42
-0.414214
 10
173.675
 20
16.5
 10
173.675
 20
6.025
 42
-0.414214
 10
173.175
 20
5.525
 10
153.375
 20
5.525
 42
-0.414214
 10
152.875
 20
6.025
 10
152.875
 20
16.5
 42
-0.414214
  0
LWPOLYLINE
  5
321
330
1F
100
AcDbEntity
  8
0
100
AcDbPolyline
 90
        8
 70
     1
 43
0.0
 10
283.7
 20
35.55
 42
0.414214
 10
283.2
 20
36.05
 10
270.2
 20
36.05
 42
0.414214
 10
269.7
 20
35.55
 10
269.7
 20
22.55
 42
0.414214
 10
270.2
 20
22.05
 10
283.2
 20
22.05
 42
0.414214
 10
283.7
 20
22.55
  0
LWPOLYLINE
  5
322
330
1F
100
AcDbEntity
  8
0
100
AcDbPolyline
 90
        8
 70
     1
 43
0.0
 10
41.103375
 20
36.05
 42
0.414214
 10
40.603375
 20
35.55
 10
40.603375
 20
22.55
 42
0.414214
 10
41.103375
 20
22.05
 10
42.103375
 20
22.05
 42
0.414214
 10
42.603375
 20
22.55
 10
42.603375
 20
35.55
 42
0.414214
 10
42.103375
 20
36.05
  0
LWPOLYLINE
  5
323
330
1F
100
AcDbEntity
  8
0
100
AcDbPolyline
 90
        8
 70
     1
 43
0.0
 10
84.4625
 20
36.05
 10
97.4625
 20
36.05
 42
-0.414214
 10
97.9625
 20
35.55
 10
97.9625
 20
22.55
 42
-0.414214
 10
97.4625
 20
22.05
 10
84.4625
 20
22.05
 42
-0.414214
 10
83.9625
 20
22.55
 10
83.9625
 20
35.55
 42
-0.414214
  0
LWPOLYLINE
  5
324
330
1F
100
AcDbEntity
  8
0
100
AcDbPolyline
 90
        8
 70
     1
 43
0.0
 10
49.8375
 20
41.1
 10
36.8375
 20
41.1
 42
-0.414214
 10
36.3375
 20
41.6
 10
36.3375
 20
54.6
 42
-0.414214
 10
36.8375
 20
55.1
 10
49.8375
 20
55.1
 42
-0.414214
 10
50.3375
 20
54.6
 10
50.3375
 20
41.6
 42
-0.414214
  0
LWPOLYLINE
  5
325
330
1F
100
AcDbEntity
  8
0
100
AcDbPolyline
 90
        8
 70
     1
 43
0.0
 10
26.16875
 20
17.0
 42
0.414214
 10
25.66875
 20
16.5
 10
25.66875
 20
3.5
 42
0.414214
 10
26.16875
 20
3.0
 10
27.16875
 20
3.0
 42
0.414214
 10
27.66875
 20
3.5
 10
27.66875
 20
16.5
 42
0.414214
 10
27.16875
 20
17.0
  0
LWPOLYLINE
  5
326
330
1F
100
AcDbEntity
  8
0
100
AcDbPolyline
 90
        8
 70
     1
 43
0.0
 10
283.2
 20
60.15
 42
0.414214
 10
283.7
 20
60.65
 10
283.7
 20
73.65
 42
0.414214
 10
283.2
 20
74.15
 10
282.2
 20
74.15
 42
0.414214
 10
281.7
 20
73.65
 10
281.7
 20
60.65
 42
0.414214
 10
282.2
 20
60.15
  0
LWPOLYLINE
  5
327
330
1F
100
AcDbEntity
  8
0
100
AcDbPolyline
 90
        8
 70
     1
 43
0.0
 10
31.575
 20
3.5
 10
31.575
 20
16.5
 42
-0.414214
 10
32.075
 20
17.0
 10
45.075
 20
17.0
 42
-0.414214
 10
45.575
 20
16.5
 10
45.575
 20
3.5
 42
-0.414214
 10
45.075
 20
3.0
 10
32.075
 20
3.0
 42
-0.414214
  0
LWPOLYLINE
  5
328
330
1F
100
AcDbEntity
  8
0
100
AcDbPolyline
 90
        8
 70
     1
 43
0.0
 10
271.29375
 20
41.1
 10
258.29375
 20
41.1
 42
-0.414214
 10
257.79375
 20
41.6
 10
257.79375
 20
54.6
 42
-0.414214
 10
258.29375
 20
55.1
 10
271.29375
 20
55.1
 42
-0.414214
 10
271.79375
 20
54.6
 10
271.79375
 20
41.6
 42
-0.414214
  0
LWPOLYLINE
  5
329
330
1F
100
AcDbEntity
  8
0
100
AcDbPolyline
 90
        8
 70
     1
 43
0.0
 10
197.975
 20
73.65
 10
197.975
 20
60.65
 42
-0.414214
 10
197.475
 20
60.15
 10
184.475
 20
60.15
 42
-0.414214
 10
183.975
 20
60.65
 10
183.975
 20
73.65
 42
-0.414214
 10
184.475
 20
74.15
 10
197.475
 20
74.15
 42
-0.414214
  0
LWPOLYLINE
  5
330
330
1F
100
AcDbEntity
  8
0
100
AcDbPolyline
 90
        8
 70
     1
 43
0.0
 10
23.64375
 20
41.1
 10
5.88125
 20
41.1
 42
-0.414214
 10
5.38125
 20
41.6
 10
5.38125
 20
54.6
 42
-0.414214
 10
5.88125
 20
55.1
 10
23.64375
 20
55.1
 42
-0.414214
 10
24.14375
 20
54.6
 10
24.14375
 20
41.6
 42
-0.414214
  0
LWPOLYLINE
  5
331
330
1F
100
AcDbEntity
  8
0
100
AcDbPolyline
 90
        8
 70
     1
 43
0.0
 10
173.6625
 20
22.05
 10
160.6625
 20
22.05
 42
-0.414214
 10
160.1625
 20
22.55
 10
160.1625
 20
35.55
 42
-0.414214
 10
160.6625
 20
36.05
 10
173.6625
 20
36.05
 42
-0.414214
 10
174.1625
 20
35.55
 10
174.1625
 20
22.55
 42
-0.414214
  0
LWPOLYLINE
  5
332
330
1F
100
AcDbEntity
  8
0
100
AcDbPolyline
 90
        8
 70
     1
 43
0.0
 10
212.55
 20
79.7
 42
0.414214
 10
213.05
 20
79.2
 10
226.05
 20
79.2
 42
0.414214
 10
226.55
 20
79.7
 10
226.55
 20
92.7
 42
0.414214
 10
226.05
 20
93.2
 10
213.05
 20
93.2
 42
0.414214
 10
212.55
 20
92.7
  0
LWPOLYLINE
  5
333
330
1F
100
AcDbEntity
  8
0
100
AcDbPolyline
 90
        8
 70
     1
 43
0.0
 10
89.225
 20
74.15
 42
0.414214
 10
88.725
 20
73.65
 10
88.725
 20
60.65
 42
0.414214
 10
89.225
 20
60.15
 10
102.225
 20
60.15
 42
0.414214
 10
102.725
 20
60.65
 10
102.725
 20
73.65
 42
0.414214
 10
102.225
 20
74.15
  0
LWPOLYLINE
  5
334
330
1F
100
AcDbEntity
  8
0
100
AcDbPolyline
 90
       20
 70
     1
 43
0.0
 10
251.737
 20
79.2
 10
251.15
 20
79.2
 42
-0.414214
 10
250.65
 20
79.7
 10
250.65
 20
92.7
 42
-0.414214
 10
251.15
 20
93.2
 10
283.2
 20
93.2
 42
-0.414214
 10
283.7
 20
92.7
 10
283.7
 20
79.7
 42
-0.414214
 10
283.2
 20
79.2
 10
282.613
 20
79.2
 10
282.613
 20
78.7
 42
-0.414214
 10
282.113
 20
78.2
 10
276.113
 20
78.2
 42
-0.414214
 10
275.613
 20
78.7
 10
275.613
 20
79.2
 10
258.737
 20
79.2
 10
258.737
 20
78.7
 42
-0.414214
 10
258.237
 20
78.2
 10
252.237
 20
78.2
 42
-0.414214
 10
251.737
 20
78.7
  0
LWPOLYLINE
  5
335
330
1F
100
AcDbEntity
  8
0
100
AcDbPolyline
 90
        8
 70
     1
 43
0.0
 10
244.596625
 20
55.1
 42
0.414214
 10
244.096625
 20
54.6
 10
244.096625
 20
41.6
 42
0.414214
 10
244.596625
 20
41.1
 10
245.596625
 20
41.1
 42
0.414214
 10
246.096625
 20
41.6
 10
246.096625
 20
54.6
 42
0.414214
 10
245.596625
 20
55.1
  0
LWPOLYLINE
  5
336
330
1F
100
AcDbEntity
  8
0
100
AcDbPolyline
 90
        8
 70
     1
 43
0.0
 10
135.5625
 20
22.05
 42
0.414214
 10
136.0625
 20
22.55
 10
136.0625
 20
35.55
 42
0.414214
 10
135.5625
 20
36.05
 10
122.5625
 20
36.05
 42
0.414214
 10
122.0625
 20
35.55
 10
122.0625
 20
22.55
 42
0.414214
 10
122.5625
 20
22.05
  0
LWPOLYLINE
  5
337
330
1F
100
AcDbEntity
  8
0
100
AcDbPolyline
 90
        8
 70
     1
 43
0.0
 10
110.0
 20
13.7875
 10
92.725
 20
13.7875
 42
-0.414214
 10
92.225
 20
14.2875
 10
92.225
 20
16.5
 42
-0.414214
 10
92.725
 20
17.0
 10
110.0
 20
17.0
 42
-0.414214
 10
110.5
 20
16.5
 10
110.5
 20
14.2875
 42
-0.414214
  0
LWPOLYLINE
  5
338
330
1F
100
AcDbEntity
  8
0
100
AcDbPolyline
 90
        8
 70
     1
 43
0.0
 10
21.2625
 20
3.0
 10
8.2625
 20
3.0
 42
-0.414214
 10
7.7625
 20
3.5
 10
7.7625
 20
16.5
 42
-0.414214
 10
8.2625
 20
17.0
 10
21.2625
 20
17.0
 42
-0.414214
 10
21.7625
 20
16.5
 10
21.7625
 20
3.5
 42
-0.414214
  0
LWPOLYLINE
  5
339
330
1F
100
AcDbEntity
  8
0
100
AcDbPolyline
 90
        8
 70
     1
 43
0.0
 10
113.525
 20
17.0
 42
0.414214
 10
113.025
 20
16.5
 10
113.025
 20
6.025
 42
0.414214
 10
113.525
 20
5.525
 10
133.325
 20
5.525
 42
0.414214
 10
133.825
 20
6.025
 10
133.825
 20
16.5
 42
0.414214
 10
133.325
 20
17.0
  0
LWPOLYLINE
  5
340
330
1F
100
AcDbEntity
  8
0
100
AcDbPolyline
 90
        8
 70
     1
 43
0.0
 10
3.5
 20
74.15
 42
0.414214
 10
3.0
 20
73.65
 10
3.0
 20
60.65
 42
0.414214
 10
3.5
 20
60.15
 10
4.5
 20
60.15
 42
0.414214
 10
5.0
 20
60.65
 10
5.0
 20
73.65
 42
0.414214
 10
4.5
 20
74.15
  0
LWPOLYLINE
  5
341
330
1F
100
AcDbEntity
  8
0
100
AcDbPolyline
 90
        8
 70
     1
 43
0.0
 10
183.6875
 20
54.6
 10
183.6875
 20
41.6
 42
-0.414214
 10
183.1875
 20
41.1
 10
170.1875
 20
41.1
 42
-0.414214
 10
169.6875
 20
41.6
 10
169.6875
 20
54.6
 42
-0.414214
 10
170.1875
 20
55.1
 10
183.1875
 20
55.1
 42
-0.414214
  0
LWPOLYLINE
  5
342
330
1F
100
AcDbEntity
  8
0
100
AcDbPolyline
 90
        8
 70
     1
 43
0.0
 10
150.6375
 20
41.6
 42
0.414214
 10
151.1375
 20
41.1
 10
164.1375
 20
41.1
 42
0.414214
 10
164.6375
 20
41.6
 10
164.6375
 20
54.6
 42
0.414214
 10
164.1375
 20
55.1
 10
151.1375
 20
55.1
 42
0.414214
 10
150.6375
 20
54.6
  0
LWPOLYLINE
  5
343
330
1F
100
AcDbEntity
  8
0
100
AcDbPolyline
 90
        8
 70
     1
 43
0.0
 10
87.9375
 20
41.1
 10
74.9375
 20
41.1
 42
-0.414214
 10
74.4375
 20
41.6
 10
74.4375
 20
54.6
 42
-0.414214
 10
74.9375
 20
55.1
 10
87.9375
 20
55.1
 42
-0.414214
 10
88.4375
 20
54.6
 10
88.4375
 20
41.6
 42
-0.414214
  0
LWPOLYLINE
  5
344
330
1F
100
AcDbEntity
  8
0
100
AcDbPolyline
 90
        8
 70
     1
 43
0.0
 10
26.16875
 20
74.15
 42
0.414214
 10
25.66875
 20
73.65
 10
25.66875
 20
60.65
 42
0.414214
 10
26.16875
 20
60.15
 10
27.16875
 20
60.15
 42
0.414214
 10
27.66875
 20
60.65
 10
27.66875
 20
73.65
 42
0.414214
 10
27.16875
 20
74.15
  0
LWPOLYLINE
  5
345
330
1F
100
AcDbEntity
  8
0
100
AcDbPolyline
 90
        8
 70
     1
 43
0.0
 10
29.240625
 20
41.6
 10
29.240625
 20
54.6
 42
-0.414214
 10
29.740625
 20
55.1
 10
30.740625
 20
55.1
 42
-0.414214
 10
31.240625
 20
54.6
 10
31.240625
 20
41.6
 42
-0.414214
 10
30.740625
 20
41.1
 10
29.740625
 20
41.1
 42
-0.414214
  0
LWPOLYLINE
  5
346
330
1F
100
AcDbEntity
  8
0
100
AcDbPolyline
 90
        8
 70
     1
 43
0.0
 10
231.3125
 20
35.55
 10
231.3125
 20
22.55
 42
-0.414214
 10
230.8125
 20
22.05
 10
217.8125
 20
22.05
 42
-0.414214
 10
217.3125
 20
22.55
 10
217.3125
 20
35.55
 42
-0.414214
 10
217.8125
 20
36.05
 10
230.8125
 20
36.05
 42
-0.414214
  0
LWPOLYLINE
  5
347
330
1F
100
AcDbEntity
  8
0
100
AcDbPolyline
 90
        8
 70
     1
 43
0.0
 10
93.9875
 20
55.1
 10
106.9875
 20
55.1
 42
-0.414214
 10
107.4875
 20
54.6
 10
107.4875
 20
41.6
 42
-0.414214
 10
106.9875
 20
41.1
 10
93.9875
 20
41.1
 42
-0.414214
 10
93.4875
 20
41.6
 10
93.4875
 20
54.6
 42
-0.414214
  0
LWPOLYLINE
  5
348
330
1F
100
AcDbEntity
  8
0
100
AcDbPolyline
 90
        8
 70
     1
 43
0.0
 10
262.603125
 20
22.55
 10
262.603125
 20
35.55
 42
-0.414214
 10
263.103125
 20
36.05
 10
264.103125
 20
36.05
 42
-0.414214
 10
264.603125
 20
35.55
 10
264.603125
 20
22.55
 42
-0.414214
 10
264.103125
 20
22.05
 10
263.103125
 20
22.05
 42
-0.414214
  0
LWPOLYLINE
  5
349
330
1F
100
AcDbEntity
  8
0
100
AcDbPolyline
 90
        8
 70
     1
 43
0.0
 10
79.675
 20
2.0
 10
73.675
 20
2.0
 42
-0.414214
 10
73.175
 20
2.5
 10
73.175
 20
17.5
 42
-0.414214
 10
73.675
 20
18.0
 10
79.675
 20
18.0
 42
-0.414214
 10
80.175
 20
17.5
 10
80.175
 20
2.5
 42
-0.414214
  0
LWPOLYLINE
  5
350
330
1F
100
AcDbEntity
  8
0
100
AcDbPolyline
 90
        8
 70
     1
 43
0.0
 10
202.2375
 20
41.1
 10
189.2375
 20
41.1
 42
-0.414214
 10
188.7375
 20
41.6
 10
188.7375
 20
54.6
 42
-0.414214
 10
189.2375
 20
55.1
 10
202.2375
 20
55.1
 42
-0.414214
 10
202.7375
 20
54.6
 10
202.7375
 20
41.6
 42
-0.414214
  0
LWPOLYLINE
  5
351
330
1F
100
AcDbEntity
  8
0
100
AcDbPolyline
 90
        8
 70
     1
 43
0.0
 10
13.46825
 20
35.55
 42
0.414214
 10
12.96825
 20
36.05
 10
6.96825
 20
36.05
 42
0.414214
 10
6.46825
 20
35.55
 10
6.46825
 20
21.55
 42
0.414214
 10
6.96825
 20
21.05
 10
12.96825
 20
21.05
 42
0.414214
 10
13.46825
 20
21.55
  0
LWPOLYLINE
  5
352
330
1F
100
AcDbEntity
  8
0
100
AcDbPolyline
 90
        8
 70
     1
 43
0.0
 10
55.3875
 20
41.6
 10
55.3875
 20
54.6
 42
-0.414214
 10
55.8875
 20
55.1
 10
68.8875
 20
55.1
 42
-0.414214
 10
69.3875
 20
54.6
 10
69.3875
 20
41.6
 42
-0.414214
 10
68.8875
 20
41.1
 10
55.8875
 20
41.1
 42
-0.414214
  0
LWPOLYLINE
  5
353
330
1F
100
AcDbEntity
  8
0
100
AcDbPolyline
 90
        8
 70
     1
 43
0.0
 10
259.53125
 20
74.15
 42
0.414214
 10
259.03125
 20
73.65
 10
259.03125
 20
60.65
 42
0.414214
 10
259.53125
 20
60.15
 10
260.53125
 20
60.15
 42
0.414214
 10
261.03125
 20
60.65
 10
261.03125
 20
73.65
 42
0.414214
 10
260.53125
 20
74.15
  0
LWPOLYLINE
  5
354
330
1F
100
AcDbEntity
  8
0
100
AcDbPolyline
 90
        8
 70
     1
 43
0.0
 10
14.90625
 20
22.55
 10
14.90625
 20
35.55
 42
-0.414214
 10
15.40625
 20
36.05
 10
28.40625
 20
36.05
 42
-0.414214
 10
28.90625
 20
35.55
 10
28.90625
 20
22.55
 42
-0.414214
 10
28.40625
 20
22.05
 10
15.40625
 20
22.05
 42
-0.414214
  0
LWPOLYLINE
  5
355
330
1F
100
AcDbEntity
  8
0
100
AcDbPolyline
 90
        8
 70
     1
 43
0.0
 10
278.9375
 20
73.65
 42
0.414214
 10
278.4375
 20
74.15
 10
265.4375
 20
74.15
 42
0.414214
 10
264.9375
 20
73.65
 10
264.9375
 20
60.65
 42
0.414214
 10
265.4375
 20
60.15
 10
278.4375
 20
60.15
 42
0.414214
 10
278.9375
 20
60.65
  0
LWPOLYLINE
  5
356
330
1F
100
AcDbEntity
  8
0
100
AcDbPolyline
 90
        8
 70
     1
 43
0.0
 10
249.35575
 20
40.6
 10
249.35575
 20
55.6
 42
-0.414214
 10
249.85575
 20
56.1
 10
255.85575
 20
56.1
 42
-0.414214
 10
256.35575
 20
55.6
 10
256.35575
 20
40.6
 42
-0.414214
 10
255.85575
 20
40.1
 10
249.85575
 20
40.1
 42
-0.414214
  0
LWPOLYLINE
  5
357
330
1F
100
AcDbEntity
  8
0
100
AcDbPolyline
 90
        8
 70
     1
 43
0.0
 10
30.34425
 20
21.55
 10
30.34425
 20
35.55
 42
-0.414214
 10
30.84425
 20
36.05
 10
36.84425
 20
36.05
 42
-0.414214
 10
37.34425
 20
35.55
 10
37.34425
 20
21.55
 42
-0.414214
 10
36.84425
 20
21.05
 10
30.84425
 20
21.05
 42
-0.414214
  0
LWPOLYLINE
  5
358
330
1F
100
AcDbEntity
  8
0
100
AcDbPolyline
 90
        8
 70
     1
 43
0.0
 10
5.0
 20
16.5
 42
0.414214
 10
4.5
 20
17.0
 10
3.5
 20
17.0
 42
0.414214
 10
3.0
 20
16.5
 10
3.0
 20
3.5
 42
0.414214
 10
3.5
 20
3.0
 10
4.5
 20
3.0
 42
0.414214
 10
5.0
 20
3.5
  0
LWPOLYLINE
  5
359
330
1F
100
AcDbEntity
  8
0
100
AcDbPolyline
 90
        8
 70
     1
 43
0.0
 10
78.4125
 20
22.05
 42
0.414214
 10
78.9125
 20
22.55
 10
78.9125
 20
35.55
 42
0.414214
 10
78.4125
 20
36.05
 10
65.4125
 20
36.05
 42
0.414214
 10
64.9125
 20
35.55
 10
64.9125
 20
22.55
 42
0.414214
 10
65.4125
 20
22.05
  0
LWPOLYLINE
  5
360
330
1F
100
AcDbEntity
  8
0
100
AcDbPolyline
 90
        8
 70
     1
 43
0.0
 10
146.375
 20
74.15
 10
159.375
 20
74.15
 42
-0.414214
 10
159.875
 20
73.65
 10
159.875
 20
60.65
 42
-0.414214
 10
159.375
 20
60.15
 10
146.375
 20
60.15
 42
-0.414214
 10
145.875
 20
60.65
 10
145.875
 20
73.65
 42
-0.414214
  0
LWPOLYLINE
  5
361
330
1F
100
AcDbEntity
  8
0
100
AcDbPolyline
 90
        8
 70
     1
 43
0.0
 10
145.0875
 20
41.1
 42
0.414214
 10
145.5875
 20
41.6
 10
145.5875
 20
54.6
 42
0.414214
 10
145.0875
 20
55.1
 10
132.0875
 20
55.1
 42
0.414214
 10
131.5875
 20
54.6
 10
131.5875
 20
41.6
 42
0.414214
 10
132.0875
 20
41.1
  0
LWPOLYLINE
  5
362
330
1F
100
AcDbEntity
  8
0
100
AcDbPolyline
 90
        8
 70
     1
 43
0.0
 10
221.2875
 20
41.1
 10
208.2875
 20
41.1
 42
-0.414214
 10
207.7875
 20
41.6
 10
207.7875
 20
54.6
 42
-0.414214
 10
208.2875
 20
55.1
 10
221.2875
 20
55.1
 42
-0.414214
 10
221.7875
 20
54.6
 10
221.7875
 20
41.6
 42
-0.414214
  0
LWPOLYLINE
  5
363
330
1F
100
AcDbEntity
  8
0
100
AcDbPolyline
 90
        8
 70
     1
 43
0.0
 10
68.8875
 20
3.0
 42
0.414214
 10
69.3875
 20
3.5
 10
69.3875
 20
16.5
 42
0.414214
 10
68.8875
 20
17.0
 10
55.8875
 20
17.0
 42
0.414214
 10
55.3875
 20
16.5
 10
55.3875
 20
3.5
 42
0.414214
 10
55.8875
 20
3.0
  0
LWPOLYLINE
  5
364
330
1F
100
AcDbEntity
  8
0
100
AcDbPolyline
 90
        8
 70
     1
 43
0.0
 10
254.625
 20
60.15
 42
0.414214
 10
255.125
 20
60.65
 10
255.125
 20
73.65
 42
0.414214
 10
254.625
 20
74.15
 10
241.625
 20
74.15
 42
0.414214
 10
241.125
 20
73.65
 10
241.125
 20
60.65
 42
0.414214
 10
241.625
 20
60.15
  0
LWPOLYLINE
  5
365
330
1F
100
AcDbEntity
  8
0
100
AcDbPolyline
 90
        8
 70
     1
 43
0.0
 10
176.7
 20
11.2625
 42
0.414214
 10
176.2
 20
10.7625
 10
176.2
 20
6.025
 42
0.414214
 10
176.7
 20
5.525
 10
193.975
 20
5.525
 42
0.414214
 10
194.475
 20
6.025
 10
194.475
 20
10.7625
 42
0.414214
 10
193.975
 20
11.2625
  0
LWPOLYLINE
  5
366
330
1F
100
AcDbEntity
  8
0
100
AcDbPolyline
 90
        8
 70
     1
 43
0.0
 10
49.98125
 20
17.0
 42
0.414214
 10
49.48125
 20
16.5
 10
49.48125
 20
3.5
 42
0.414214
 10
49.98125
 20
3.0
 10
50.98125
 20
3.0
 42
0.414214
 10
51.48125
 20
3.5
 10
51.48125
 20
16.5
 42
0.414214
 10
50.98125
 20
17.0
  0
LWPOLYLINE
  5
367
330
1F
100
AcDbEntity
  8
0
100
AcDbPolyline
 90
        8
 70
     1
 43
0.0
 10
216.525
 20
60.15
 10
203.525
 20
60.15
 42
-0.414214
 10
203.025
 20
60.65
 10
203.025
 20
73.65
 42
-0.414214
 10
203.525
 20
74.15
 10
216.525
 20
74.15
 42
-0.414214
 10
217.025
 20
73.65
 10
217.025
 20
60.65
 42
-0.414214
  0
LWPOLYLINE
  5
368
330
1F
100
AcDbEntity
  8
0
100
AcDbPolyline
 90
        8
 70
     1
 43
0.0
 10
193.975
 20
13.7875
 42
0.414214
 10
194.475
 20
14.2875
 10
194.475
 20
16.5
 42
0.414214
 10
193.975
 20
17.0
 10
176.7
 20
17.0
 42
0.414214
 10
176.2
 20
16.5
 10
176.2
 20
14.2875
 42
0.414214
 10
176.7
 20
13.7875
  0
LWPOLYLINE
  5
369
330
1F
100
AcDbEntity
  8
0
100
AcDbPolyline
 90
        8
 70
     1
 43
0.0
 10
222.075
 20
60.65
 42
0.414214
 10
222.575
 20
60.15
 10
235.575
 20
60.15
 42
0.414214
 10
236.075
 20
60.65
 10
236.075
 20
73.65
 42
0.414214
 10
235.575
 20
74.15
 10
222.575
 20
74.15
 42
0.414214
 10
222.075
 20
73.65
  0
LWPOLYLINE
  5
370
330
1F
100
AcDbEntity
  8
0
100
AcDbPolyline
 90
        8
 70
     1
 43
0.0
 10
236.909375
 20
36.05
 42
0.414214
 10
236.409375
 20
35.55
 10
236.409375
 20
22.55
 42
0.414214
 10
236.909375
 20
22.05
 10
237.909375
 20
22.05
 42
0.414214
 10
238.409375
 20
22.55
 10
238.409375
 20
35.55
 42
0.414214
 10
237.909375
 20
36.05
  0
LWPOLYLINE
  5
371
330
1F
100
AcDbEntity
  8
0
100
AcDbPolyline
 90
        8
 70
     1
 43
0.0
 10
273.23175
 20
40.6
 42
0.414214
 10
273.73175
 20
40.1
 10
279.73175
 20
40.1
 42
0.414214
 10
280.23175
 20
40.6
 10
280.23175
 20
55.6
 42
0.414214
 10
279.73175
 20
56.1
 10
273.73175
 20
56.1
 42
0.414214
 10
273.23175
 20
55.6
  0
LWPOLYLINE
  5
372
330
1F
100
AcDbEntity
  8
0
100
AcDbPolyline
 90
        8
 70
     1
 43
0.0
 10
116.5125
 20
22.05
 42
0.414214
 10
117.0125
 20
22.55
 10
117.0125
 20
35.55
 42
0.414214
 10
116.5125
 20
36.05
 10
103.5125
 20
36.05
 42
0.414214
 10
103.0125
 20
35.55
 10
103.0125
 20
22.55
 42
0.414214
 10
103.5125
 20
22.05
  0
LWPOLYLINE
  5
373
330
1F
100
AcDbEntity
  8
0
100
AcDbPolyline
 90
        8
 70
     1
 43
0.0
 10
243.50625
 20
22.55
 10
243.50625
 20
35.55
 42
-0.414214
 10
244.00625
 20
36.05
 10
257.00625
 20
36.05
 42
-0.414214
 10
257.50625
 20
35.55
 10
257.50625
 20
22.55
 42
-0.414214
 10
257.00625
 20
22.05
 10
244.00625
 20
22.05
 42
-0.414214
  0
LWPOLYLINE
  5
374
330
1F
100
AcDbEntity
  8
0
100
AcDbPolyline
 90
        8
 70
     1
 43
0.0
 10
212.2625
 20
35.55
 42
0.414214
 10
211.7625
 20
36.05
 10
198.7625
 20
36.05
 42
0.414214
 10
198.2625
 20
35.55
 10
198.2625
 20
22.55
 42
0.414214
 10
198.7625
 20
22.05
 10
211.7625
 20
22.05
 42
0.414214
 10
212.2625
 20
22.55
  0
LWPOLYLINE
  5
375
330
1F
100
AcDbEntity
  8
0
100
AcDbPolyline
 90
        8
 70
     1
 43
0.0
 10
141.6125
 20
36.05
 42
0.414214
 10
141.1125
 20
35.55
 10
141.1125
 20
22.55
 42
0.414214
 10
141.6125
 20
22.05
 10
154.6125
 20
22.05
 42
0.414214
 10
155.1125
 20
22.55
 10
155.1125
 20
35.55
 42
0.414214
 10
154.6125
 20
36.05
  0
LWPOLYLINE
  5
376
330
1F
100
AcDbEntity
  8
0
100
AcDbPolyline
 90
        8
 70
     1
 43
0.0
 10
110.5
 20
10.7625
 42
0.414214
 10
110.0
 20
11.2625
 10
92.725
 20
11.2625
 42
0.414214
 10
92.225
 20
10.7625
 10
92.225
 20
6.025
 42
0.414214
 10
92.725
 20
5.525
 10
110.0
 20
5.525
 42
0.414214
 10
110.5
 20
6.025
  0
LWPOLYLINE
  5
377
330
1F
100
AcDbEntity
  8
0
100
AcDbPolyline
 90
        8
 70
     1
 43
0.0
 10
155.9
 20
93.2
 10
168.9
 20
93.2
 42
-0.414214
 10
169.4
 20
92.7
 10
169.4
 20
79.7
 42
-0.414214
 10
168.9
 20
79.2
 10
155.9
 20
79.2
 42
-0.414214
 10
155.4
 20
79.7
 10
155.4
 20
92.7
 42
-0.414214
  0
LWPOLYLINE
  5
378
330
1F
100
AcDbEntity
  8
0
100
AcDbPolyline
 90
        8
 70
     1
 43
0.0
 10
98.25
 20
79.7
 10
98.25
 20
92.7
 42
-0.414214
 10
98.75
 20
93.2
 10
111.75
 20
93.2
 42
-0.414214
 10
112.25
 20
92.7
 10
112.25
 20
79.7
 42
-0.414214
 10
111.75
 20
79.2
 10
98.75
 20
79.2
 42
-0.414214
  0
LWPOLYLINE
  5
379
330
1F
100
AcDbEntity
  8
0
100
AcDbPolyline
 90
        8
 70
     1
 43
0.0
 10
64.625
 20
73.65
 42
0.414214
 10
64.125
 20
74.15
 10
51.125
 20
74.15
 42
0.414214
 10
50.625
 20
73.65
 10
50.625
 20
60.65
 42
0.414214
 10
51.125
 20
60.15
 10
64.125
 20
60.15
 42
0.414214
 10
64.625
 20
60.65
  0
LWPOLYLINE
  5
380
330
1F
100
AcDbEntity
  8
0
100
AcDbPolyline
 90
        8
 70
     1
 43
0.0
 10
194.0
 20
93.2
 42
0.414214
 10
193.5
 20
92.7
 10
193.5
 20
79.7
 42
0.414214
 10
194.0
 20
79.2
 10
207.0
 20
79.2
 42
0.414214
 10
207.5
 20
79.7
 10
207.5
 20
92.7
 42
0.414214
 10
207.0
 20
93.2
  0
LWPOLYLINE
  5
381
330
1F
100
AcDbEntity
  8
0
100
AcDbPolyline
 90
        8
 70
     1
 43
0.0
 10
174.95
 20
93.2
 10
187.95
 20
93.2
 42
-0.414214
 10
188.45
 20
92.7
 10
188.45
 20
79.7
 42
-0.414214
 10
187.95
 20
79.2
 10
174.95
 20
79.2
 42
-0.414214
 10
174.45
 20
79.7
 10
174.45
 20
92.7
 42
-0.414214
  0
LWPOLYLINE
  5
382
330
1F
100
AcDbEntity
  8
0
100
AcDbPolyline
 90
        8
 70
     1
 43
0.0
 10
126.825
 20
60.65
 10
126.825
 20
73.65
 42
-0.414214
 10
127.325
 20
74.15
 10
140.325
 20
74.15
 42
-0.414214
 10
140.825
 20
73.65
 10
140.825
 20
60.65
 42
-0.414214
 10
140.325
 20
60.15
 10
127.325
 20
60.15
 42
-0.414214
  0
LWPOLYLINE
  5
383
330
1F
100
AcDbEntity
  8
0
100
AcDbPolyline
 90
        8
 70
     1
 43
0.0
 10
8.2625
 20
74.15
 10
21.2625
 20
74.15
 42
-0.414214
 10
21.7625
 20
73.65
 10
21.7625
 20
60.65
 42
-0.414214
 10
21.2625
 20
60.15
 10
8.2625
 20
60.15
 42
-0.414214
 10
7.7625
 20
60.65
 10
7.7625
 20
73.65
 42
-0.414214
  0
LWPOLYLINE
  5
384
330
1F
100
AcDbEntity
  8
0
100
AcDbPolyline
 90
        8
 70
     1
 43
0.0
 10
16.5
 20
79.2
 42
0.414214
 10
17.0
 20
79.7
 10
17.0
 20
92.7
 42
0.414214
 10
16.5
 20
93.2
 10
3.5
 20
93.2
 42
0.414214
 10
3.0
 20
92.7
 10
3.0
 20
79.7
 42
0.414214
 10
3.5
 20
79.2
  0
LWPOLYLINE
  5
385
330
1F
100
AcDbEntity
  8
0
100
AcDbPolyline
 90
        8
 70
     1
 43
0.0
 10
121.775
 20
73.65
 42
0.414214
 10
121.275
 20
74.15
 10
108.275
 20
74.15
 42
0.414214
 10
107.775
 20
73.65
 10
107.775
 20
60.65
 42
0.414214
 10
108.275
 20
60.15
 10
121.275
 20
60.15
 42
0.414214
 10
121.775
 20
60.65
  0
LWPOLYLINE
  5
386
330
1F
100
AcDbEntity
  8
0
100
AcDbPolyline
 90
        8
 70
     1
 43
0.0
 10
178.925
 20
73.65
 42
0.414214
 10
178.425
 20
74.15
 10
165.425
 20
74.15
 42
0.414214
 10
164.925
 20
73.65
 10
164.925
 20
60.65
 42
0.414214
 10
165.425
 20
60.15
 10
178.425
 20
60.15
 42
0.414214
 10
178.925
 20
60.65
  0
LWPOLYLINE
  5
387
330
1F
100
AcDbEntity
  8
0
100
AcDbPolyline
 90
        8
 70
     1
 43
0.0
 10
22.05
 20
79.7
 10
22.05
 20
92.7
 42
-0.414214
 10
22.55
 20
93.2
 10
35.55
 20
93.2
 42
-0.414214
 10
36.05
 20
92.7
 10
36.05
 20
79.7
 42
-0.414214
 10
35.55
 20
79.2
 10
22.55
 20
79.2
 42
-0.414214
  0
LWPOLYLINE
  5
388
330
1F
100
AcDbEntity
  8
0
100
AcDbPolyline
 90
        8
 70
     1
 43
0.0
 10
69.675
 20
60.65
 42
0.414214
 10
70.175
 20
60.15
 10
83.175
 20
60.15
 42
0.414214
 10
83.675
 20
60.65
 10
83.675
 20
73.65
 42
0.414214
 10
83.175
 20
74.15
 10
70.175
 20
74.15
 42
0.414214
 10
69.675
 20
73.65
  0
LWPOLYLINE
  5
389
330
1F
100
AcDbEntity
  8
0
100
AcDbPolyline
 90
        8
 70
     1
 43
0.0
 10
59.8625
 20
35.55
 10
59.8625
 20
22.55
 42
-0.414214
 10
59.3625
 20
22.05
 10
46.3625
 20
22.05
 42
-0.414214
 10
45.8625
 20
22.55
 10
45.8625
 20
35.55
 42
-0.414214
 10
46.3625
 20
36.05
 10
59.3625
 20
36.05
 42
-0.414214
  0
LWPOLYLINE
  5
390
330
1F
100
AcDbEntity
  8
0
100
AcDbPolyline
 90
        8
 70
     1
 43
0.0
 10
73.65
 20
79.2
 10
60.65
 20
79.2
 42
-0.414214
 10
60.15
 20
79.7
 10
60.15
 20
92.7
 42
-0.414214
 10
60.65
 20
93.2
 10
73.65
 20
93.2
 42
-0.414214
 10
74.15
 20
92.7
 10
74.15
 20
79.7
 42
-0.414214
  0
LWPOLYLINE
  5
391
330
1F
100
AcDbEntity
  8
0
100
AcDbPolyline
 90
        8
 70
     1
 43
0.0
 10
192.7125
 20
22.05
 10
179.7125
 20
22.05
 42
-0.414214
 10
179.2125
 20
22.55
 10
179.2125
 20
35.55
 42
-0.414214
 10
179.7125
 20
36.05
 10
192.7125
 20
36.05
 42
-0.414214
 10
193.2125
 20
35.55
 10
193.2125
 20
22.55
 42
-0.414214
  0
LWPOLYLINE
  5
392
330
1F
100
AcDbEntity
  8
0
100
AcDbPolyline
 90
        8
 70
     1
 43
0.0
 10
32.075
 20
74.15
 10
45.075
 20
74.15
 42
-0.414214
 10
45.575
 20
73.65
 10
45.575
 20
60.65
 42
-0.414214
 10
45.075
 20
60.15
 10
32.075
 20
60.15
 42
-0.414214
 10
31.575
 20
60.65
 10
31.575
 20
73.65
 42
-0.414214
  0
LWPOLYLINE
  5
393
330
1F
100
AcDbEntity
  8
0
100
AcDbPolyline
 90
        8
 70
     1
 43
0.0
 10
130.8
 20
79.2
 10
117.8
 20
79.2
 42
-0.414214
 10
117.3
 20
79.7
 10
117.3
 20
92.7
 42
-0.414214
 10
117.8
 20
93.2
 10
130.8
 20
93.2
 42
-0.414214
 10
131.3
 20
92.7
 10
131.3
 20
79.7
 42
-0.414214
  0
ENDSEC
  0
SECTION
  2
OBJECTS
  0
DICTIONARY
  5
C
330
0
100
AcDbDictionary
  3
ACAD_GROUP
350
D
  3
ACAD_IMAGE_DICT
350
10058
  3
ACAD_LAYOUT
350
10025
  3
ACAD_MATERIAL
350
10028
  3
ACAD_MLEADERSTYLE
350
10053
  3
ACAD_MLINESTYLE
350
17
  3
ACAD_PLOTSETTINGS
350
10057
  3
ACAD_SCALELIST
350
10003
  3
ACAD_VISUALSTYLE
350
1002C
  3
ACDBHEADERROUNDTRIPXREC
350
1005B
  3
ACDBVARIABLEDICTIONARY
350
10051
  3
HOST_DOC_SETTINGS
350
1004D
  3
MCS_STREAM_DICT
350
10047
  0
DICTIONARY
  5
1007D
330
8
100
AcDbDictionary
280
     1
  3
ACAD_XREC_ROUNDTRIP
360
1007E
  0
DICTIONARY
  5
D
330
C
100
AcDbDictionary
  0
DICTIONARY
  5
10058
102
{ACAD_REACTORS
330
C
102
}
330
C
100
AcDbDictionary
  0
DICTIONARY
  5
10025
102
{ACAD_REACTORS
330
C
102
}
330
C
100
AcDbDictionary
  0
DICTIONARY
  5
10028
102
{ACAD_REACTORS
330
C
102
}
330
C
100
AcDbDictionary
  3
BYBLOCK
350
1002A
  3
BYLAYER
350
10029
  3
GLOBAL
350
1002B
  0
DICTIONARY
  5
10053
102
{ACAD_REACTORS
330
C
102
}
330
C
100
AcDbDictionary
  0
DICTIONARY
  5
17
330
C
100
AcDbDictionary
  3
STANDARD
350
10002
  0
DICTIONARY
  5
10057
102
{ACAD_REACTORS
330
C
102
}
330
C
100
AcDbDictionary
  0
DICTIONARY
  5
10003
102
{ACAD_REACTORS
330
C
102
}
330
C
100
AcDbDictionary
  3
A0
350
10004
  3
A1
350
10005
  3
A2
350
10006
  3
A3
350
10007
  3
A4
350
10008
  3
A5
350
10009
  3
A6
350
1000A
  3
A7
350
1000B
  3
A8
350
1000C
  3
A9
350
1000D
  3
B0
350
1000E
  3
B1
350
1000F
  3
B2
350
10010
  3
B3
350
10011
  3
B4
350
10012
  3
B5
350
10013
  3
B6
350
10014
  3
B7
350
10015
  3
B8
350
10016
  3
B9
350
10017
  3
C0
350
10018
  3
C1
350
10019
  3
C2
350
1001A
  3
C3
350
1001B
  3
C4
350
1001C
  3
C5
350
1001D
  3
C6
350
1001E
  3
C7
350
1001F
  3
C8
350
10020
  3
C9
350
10021
  3
D0
350
10022
  3
D1
350
10023
  3
D2
350
10024
  0
DICTIONARY
  5
1002C
102
{ACAD_REACTORS
330
C
102
}
330
C
100
AcDbDictionary
  3
2DWIREFRAME
350
10031
  3
BASIC
350
10034
  3
BRIGHTEN
350
10038
  3
COLORCHANGE
350
1003C
  3
CONCEPTUAL
350
10036
  3
DIM
350
10037
  3
EDGECOLOROFF
350
1003F
  3
FACEPATTERN
350
1003B
  3
FLAT
350
1002D
  3
FLATWITHEDGES
350
1002E
  3
GOURAUD
350
1002F
  3
GOURAUDWITHEDGES
350
10030
  3
HIDDEN
350
10033
  3
JITTEROFF
350
1003D
  3
LINEPATTERN
350
1003A
  3
OVERHANGOFF
350
1003E
  3
REALISTIC
350
10035
  3
SHADED
350
10044
  3
SHADED_WITH_EDGES
350
10043
  3
SHADES_OF_GRAY
350
10040
  3
SKETCHY
350
10041
  3
THICKEN
350
10039
  3
WIREFRAME
350
10032
  3
X-RAY
350
10042
  0
DICTIONARY
  5
1005B
102
{ACAD_REACTORS
330
C
102
}
330
C
100
AcDbDictionary
  3
CEPSNTYPE
350
10064
  3
DIMSTYLEDATA
350
1007A
  3
FINGERPRINTGUID
350
10065
  3
HYPERLINKBASE
350
1005E
  3
INSUNITS
350
10063
  3
LAYOUTDICT
350
10060
  3
LWETCUNION
350
10062
  3
PLOTSETDICT
350
10061
  3
PSVPSCALE
350
10067
  3
PUCSBASE
350
1006A
  3
PUCSORGBACK
350
10070
  3
PUCSORGBOTTOM
350
1006C
  3
PUCSORGFRONT
350
1006F
  3
PUCSORGLEFT
350
1006D
  3
PUCSORGRIGHT
350
1006E
  3
PUCSORGTOP
350
1006B
  3
PUCSORTHOREF
350
10068
  3
PUCSORTHOVIEW
350
10069
  3
STYLESHEET
350
1005F
  3
TSTACKALIGN
350
1005C
  3
TSTACKSIZE
350
1005D
  3
UCSBASE
350
10073
  3
UCSORGBACK
350
10079
  3
UCSORGBOTTOM
350
10075
  3
UCSORGFRONT
350
10078
  3
UCSORGLEFT
350
10076
  3
UCSORGRIGHT
350
10077
  3
UCSORGTOP
350
10074
  3
UCSORTHOREF
350
10071
  3
UCSORTHOVIEW
350
10072
  3
VERSIONGUID
350
10066
  0
DICTIONARY
  5
10051
102
{ACAD_REACTORS
330
C
102
}
330
C
100
AcDbDictionary
  3
CANNOSCALE
350
10052
  3
DIMASSOC
350
1007B
  3
HIDETEXT
350
1007C
  3
MSLTSCALE
350
10054
  0
DICTIONARY
  5
1004D
102
{ACAD_REACTORS
330
C
102
}
330
C
100
AcDbDictionary
  3
NCDOCPARAMETERS
350
1004E
  0
DICTIONARY
  5
10047
102
{ACAD_REACTORS
330
C
102
}
330
C
100
AcDbDictionary
  3
MC_VERSION_DATA
350
1004F
  3
MCS_DOCUMENT_ID
350
10048
  3
MCS_PARAMS_DATA
350
10059
  0
XRECORD
  5
1007E
102
{ACAD_REACTORS
330
1007D
102
}
330
1007D
100
AcDbXrecord
102
VTR_0.000_0.000_1.000_1.000_GRIDDISPLAY
 70
     3
102
VTR_0.000_0.000_1.000_1.000_GRIDMAJOR
 70
     5
102
VTR_0.000_0.000_1.000_1.000_DEFAULTLIGHTING
280
     1
102
VTR_0.000_0.000_1.000_1.000_DEFAULTLIGHTINGTYPE
 70
     1
102
VTR_0.000_0.000_1.000_1.000_BRIGHTNESS
141
0.0
102
VTR_0.000_0.000_1.000_1.000_CONTRAST
142
0.0
  0
MATERIAL
  5
1002A
102
{ACAD_REACTORS
330
10028
102
}
102
{ACAD_XDICTIONARY
360
10081
102
}
330
10028
100
AcDbMaterial
  1
BYBLOCK
  0
MATERIAL
  5
10029
102
{ACAD_REACTORS
330
10028
102
}
102
{ACAD_XDICTIONARY
360
1007F
102
}
330
10028
100
AcDbMaterial
  1
BYLAYER
  0
MATERIAL
  5
1002B
102
{ACAD_REACTORS
330
10028
102
}
102
{ACAD_XDICTIONARY
360
10083
102
}
330
10028
100
AcDbMaterial
  1
GLOBAL
  0
MLINESTYLE
  5
10002
102
{ACAD_REACTORS
330
17
102
}
330
17
100
AcDbMlineStyle
  2
Standard
 70
     0
  3

 62
   256
 51
90.0
 52
90.0
 71
     2
 49
0.5
 62
   256
  6
BYLAYER
 49
-0.5
 62
   256
  6
BYLAYER
  0
ACAD_PROXY_OBJECT
  5
10004
102
{ACAD_REACTORS
330
10003
102
}
330
10003
100
AcDbProxyObject
 90
      499
 91
      500
 93
       41
310
903313A31580
  0
ACAD_PROXY_OBJECT
  5
10005
102
{ACAD_REACTORS
330
10003
102
}
330
10003
100
AcDbProxyObject
 90
      499
 91
      500
 93
      105
310
903313A324000000000000004000
  0
ACAD_PROXY_OBJECT
  5
10006
102
{ACAD_REACTORS
330
10003
102
}
330
10003
100
AcDbProxyObject
 90
      499
 91
      500
 93
      105
310
903313A344000000000000104000
  0
ACAD_PROXY_OBJECT
  5
10007
102
{ACAD_REACTORS
330
10003
102
}
330
10003
100
AcDbProxyObject
 90
      499
 91
      500
 93
      105
310
903313A354000000000000144000
  0
ACAD_PROXY_OBJECT
  5
10008
102
{ACAD_REACTORS
330
10003
102
}
330
10003
100
AcDbProxyObject
 90
      499
 91
      500
 93
      105
310
903313A384000000000000204000
  0
ACAD_PROXY_OBJECT
  5
10009
102
{ACAD_REACTORS
330
10003
102
}
330
10003
100
AcDbProxyObject
 90
      499
 91
      500
 93
      113
310
904313A31304000000000000244000
  0
ACAD_PROXY_OBJECT
  5
1000A
102
{ACAD_REACTORS
330
10003
102
}
330
10003
100
AcDbProxyObject
 90
      499
 91
      500
 93
      113
310
904313A31364000000000000304000
  0
ACAD_PROXY_OBJECT
  5
1000B
102
{ACAD_REACTORS
330
10003
102
}
330
10003
100
AcDbProxyObject
 90
      499
 91
      500
 93
      113
310
904313A32304000000000000344000
  0
ACAD_PROXY_OBJECT
  5
1000C
102
{ACAD_REACTORS
330
10003
102
}
330
10003
100
AcDbProxyObject
 90
      499
 91
      500
 93
      113
310
904313A333040000000000003E4000
  0
ACAD_PROXY_OBJECT
  5
1000D
102
{ACAD_REACTORS
330
10003
102
}
330
10003
100
AcDbProxyObject
 90
      499
 91
      500
 93
      113
310
904313A34304000000000000444000
  0
ACAD_PROXY_OBJECT
  5
1000E
102
{ACAD_REACTORS
330
10003
102
}
330
10003
100
AcDbProxyObject
 90
      499
 91
      500
 93
      113
310
904313A35304000000000000494000
  0
ACAD_PROXY_OBJECT
  5
1000F
102
{ACAD_REACTORS
330
10003
102
}
330
10003
100
AcDbProxyObject
 90
      499
 91
      500
 93
      121
310
905313A3130304000000000000594000
  0
ACAD_PROXY_OBJECT
  5
10010
102
{ACAD_REACTORS
330
10003
102
}
330
10003
100
AcDbProxyObject
 90
      499
 91
      500
 93
      105
310
903323A310000000000000010100
  0
ACAD_PROXY_OBJECT
  5
10011
102
{ACAD_REACTORS
330
10003
102
}
330
10003
100
AcDbProxyObject
 90
      499
 91
      500
 93
      105
310
903343A310000000000000410100
  0
ACAD_PROXY_OBJECT
  5
10012
102
{ACAD_REACTORS
330
10003
102
}
330
10003
100
AcDbProxyObject
 90
      499
 91
      500
 93
      105
310
903383A310000000000000810100
  0
ACAD_PROXY_OBJECT
  5
10013
102
{ACAD_REACTORS
330
10003
102
}
330
10003
100
AcDbProxyObject
 90
      499
 91
      500
 93
      113
310
90431303A310000000000000910100
  0
ACAD_PROXY_OBJECT
  5
10014
102
{ACAD_REACTORS
330
10003
102
}
330
10003
100
AcDbProxyObject
 90
      499
 91
      500
 93
      121
310
9053130303A310000000000001650100
  0
ACAD_PROXY_OBJECT
  5
10015
102
{ACAD_REACTORS
330
10003
102
}
330
10003
100
AcDbProxyObject
 90
      499
 91
      500
 93
      257
310
90E312F31323822203D2031272D3022000000000000200FC000000000000284000
  0
ACAD_PROXY_OBJECT
  5
10016
102
{ACAD_REACTORS
330
10003
102
}
330
10003
100
AcDbProxyObject
 90
      499
 91
      500
 93
      249
310
90D312F363422203D2031272D3022000000000000240FC000000000000284000
  0
ACAD_PROXY_OBJECT
  5
10017
102
{ACAD_REACTORS
330
10003
102
}
330
10003
100
AcDbProxyObject
 90
      499
 91
      500
 93
      249
310
90D312F333222203D2031272D3022000000000000280FC000000000000284000
  0
ACAD_PROXY_OBJECT
  5
10018
102
{ACAD_REACTORS
330
10003
102
}
330
10003
100
AcDbProxyObject
 90
      499
 91
      500
 93
      249
310
90D312F313622203D2031272D30220000000000002C0FC000000000000284000
  0
ACAD_PROXY_OBJECT
  5
10019
102
{ACAD_REACTORS
330
10003
102
}
330
10003
100
AcDbProxyObject
 90
      499
 91
      500
 93
      249
310
90D332F333222203D2031272D30220000000000002E0FC000000000000284000
  0
ACAD_PROXY_OBJECT
  5
1001A
102
{ACAD_REACTORS
330
10003
102
}
330
10003
100
AcDbProxyObject
 90
      499
 91
      500
 93
      241
310
90C312F3822203D2031272D3022000000000000300FC000000000000284000
  0
ACAD_PROXY_OBJECT
  5
1001B
102
{ACAD_REACTORS
330
10003
102
}
330
10003
100
AcDbProxyObject
 90
      499
 91
      500
 93
      249
310
90D332F313622203D2031272D3022000000000000320FC000000000000284000
  0
ACAD_PROXY_OBJECT
  5
1001C
102
{ACAD_REACTORS
330
10003
102
}
330
10003
100
AcDbProxyObject
 90
      499
 91
      500
 93
      241
310
90C312F3422203D2031272D3022000000000000340FC000000000000284000
  0
ACAD_PROXY_OBJECT
  5
1001D
102
{ACAD_REACTORS
330
10003
102
}
330
10003
100
AcDbProxyObject
 90
      499
 91
      500
 93
      241
310
90C332F3822203D2031272D3022000000000000360FC000000000000284000
  0
ACAD_PROXY_OBJECT
  5
1001E
102
{ACAD_REACTORS
330
10003
102
}
330
10003
100
AcDbProxyObject
 90
      499
 91
      500
 93
      241
310
90C312F3222203D2031272D3022000000000000380FC000000000000284000
  0
ACAD_PROXY_OBJECT
  5
1001F
102
{ACAD_REACTORS
330
10003
102
}
330
10003
100
AcDbProxyObject
 90
      499
 91
      500
 93
      241
310
90C332F3422203D2031272D30220000000000003A0FC000000000000284000
  0
ACAD_PROXY_OBJECT
  5
10020
102
{ACAD_REACTORS
330
10003
102
}
330
10003
100
AcDbProxyObject
 90
      499
 91
      500
 93
      161
310
90A3122203D2031272D30224000000000000284000
  0
ACAD_PROXY_OBJECT
  5
10021
102
{ACAD_REACTORS
330
10003
102
}
330
10003
100
AcDbProxyObject
 90
      499
 91
      500
 93
      257
310
90E312D312F3222203D2031272D30220000000000003E0FC000000000000284000
  0
ACAD_PROXY_OBJECT
  5
10022
102
{ACAD_REACTORS
330
10003
102
}
330
10003
100
AcDbProxyObject
 90
      499
 91
      500
 93
      225
310
90A3322203D2031272D302200000000000002100000000000000284000
  0
ACAD_PROXY_OBJECT
  5
10023
102
{ACAD_REACTORS
330
10003
102
}
330
10003
100
AcDbProxyObject
 90
      499
 91
      500
 93
      225
310
90A3622203D2031272D302200000000000006100000000000000284000
  0
ACAD_PROXY_OBJECT
  5
10024
102
{ACAD_REACTORS
330
10003
102
}
330
10003
100
AcDbProxyObject
 90
      499
 91
      500
 93
      249
310
90D31272D3022203D2031272D30220000000000000A100000000000000284000
  0
ACAD_PROXY_OBJECT
  5
10031
102
{ACAD_REACTORS
330
1002C
102
}
330
1002C
100
AcDbProxyObject
 90
      499
 91
      502
 93
      436
310
42CC9915DA5C99599C985B595049028333333333333E33F0000000000000F90107901411070040501600405405064090741402480A0340
1001
ACAD
1000
AcDbSavedByObjectVersion
1070
     0
  0
ACAD_PROXY_OBJECT
  5
10034
102
{ACAD_REACTORS
330
1002C
102
}
330
1002C
100
AcDbProxyObject
 90
      499
 91
      502
 93
      388
310
4150985CDA58D07406404333333333333E33F0000000000000F90107A41107004050150841D405064090741402480A0350
1001
ACAD
1000
AcDbSavedByObjectVersion
1070
     0
  0
ACAD_PROXY_OBJECT
  5
10038
102
{ACAD_REACTORS
330
1002C
102
}
330
1002C
100
AcDbProxyObject
 90
      499
 91
      502
 93
      428
310
42109C9A59DA1D195B90C409028333333333333E33F0000000000000F9010790141107004050150841D405064090741402480A029950
1001
ACAD
1000
AcDbSavedByObjectVersion
1070
     0
  0
ACAD_PROXY_OBJECT
  5
1003C
102
{ACAD_REACTORS
330
1002C
102
}
330
1002C
100
AcDbProxyObject
 90
      499
 91
      502
 93
      452
310
42D0DBDB1BDC90DA185B99D95104090240C333333333333E33F0000000000000F90108901411070040501508421405064090741402480A0350
1001
ACAD
1000
AcDbSavedByObjectVersion
1070
     0
  0
ACAD_PROXY_OBJECT
  5
10036
102
{ACAD_REACTORS
330
1002C
102
}
330
1002C
100
AcDbProxyObject
 90
      499
 91
      502
 93
      500
310
4290DBDB98D95C1D1D585B10940D028333333333333E33F0000000000000F90107902409070040501000000000018199010841D405064090740C02480A0340
1001
ACAD
1000
AcDbSavedByObjectVersion
1070
     0
  0
ACAD_PROXY_OBJECT
  5
10037
102
{ACAD_REACTORS
330
1002C
102
}
330
1002C
100
AcDbProxyObject
 90
      499
 91
      502
 93
      412
310
40D11A5B50B409028333333333333E33F0000000000000F9010790141107004050150841D405064090741402480A02677FFFFFD0
1001
ACAD
1000
AcDbSavedByObjectVersion
1070
     0
  0
ACAD_PROXY_OBJECT
  5
1003F
102
{ACAD_REACTORS
330
1002C
102
}
330
1002C
100
AcDbProxyObject
 90
      499
 91
      502
 93
      452
310
43115919D950DBDB1BDC93D999916409028333333333333E33F0000000000000F9010790141107004050150841D405064090741402480A0350
1001
ACAD
1000
AcDbSavedByObjectVersion
1070
     0
  0
ACAD_PROXY_OBJECT
  5
1003B
102
{ACAD_REACTORS
330
1002C
102
}
330
1002C
100
AcDbProxyObject
 90
      499
 91
      502
 93
      444
310
42D19858D95C185D1D195C9B90F409028333333333333E33F0000000000000F9010790141107004050150841D405064090741402480A0350
1001
ACAD
1000
AcDbSavedByObjectVersion
1070
     0
  0
ACAD_PROXY_OBJECT
  5
1002D
102
{ACAD_REACTORS
330
1002C
102
}
330
1002C
100
AcDbProxyObject
 90
      499
 91
      502
 93
      380
310
41119B185D240901404333333333333E33F0000000000000F9010740A907004050150841D405064090741402480A1B50
1001
ACAD
1000
AcDbSavedByObjectVersion
1070
     0
  0
ACAD_PROXY_OBJECT
  5
1002E
102
{ACAD_REACTORS
330
1002C
102
}
330
1002C
100
AcDbProxyObject
 90
      499
 91
      502
 93
      468
310
43519B185D15DA5D1A115919D95CD0140901404333333333333E33F0000000000000F90107409019070040501600405405064090741402480A1B50
1001
ACAD
1000
AcDbSavedByObjectVersion
1070
     0
  0
ACAD_PROXY_OBJECT
  5
1002F
102
{ACAD_REACTORS
330
1002C
102
}
330
1002C
100
AcDbProxyObject
 90
      499
 91
      502
 93
      404
310
41D1DBDD5C985D5910240902404333333333333E33F0000000000000F9010740A9070040501641D405064090741402480A1B50
1001
ACAD
1000
AcDbSavedByObjectVersion
1070
     0
  0
ACAD_PROXY_OBJECT
  5
10030
102
{ACAD_REACTORS
330
1002C
102
}
330
1002C
100
AcDbProxyObject
 90
      499
 91
      502
 93
      492
310
4411DBDD5C985D5915DA5D1A115919D95CD0340902404333333333333E33F0000000000000F90107409019070040501600405405064090741402480A1B50
1001
ACAD
1000
AcDbSavedByObjectVersion
1070
     0
  0
ACAD_PROXY_OBJECT
  5
10033
102
{ACAD_REACTORS
330
1002C
102
}
330
1002C
100
AcDbProxyObject
 90
      499
 91
      502
 93
      476
310
41921A5919195B90640502408333333333333E33F0000000000000F901079024090700405020000000000001110200405405064090740C02480A0340
1001
ACAD
1000
AcDbSavedByObjectVersion
1070
     0
  0
ACAD_PROXY_OBJECT
  5
1003D
102
{ACAD_REACTORS
330
1002C
102
}
330
1002C
100
AcDbProxyObject
 90
      499
 91
      502
 93
      428
310
42529A5D1D195C93D999914409028333333333333E33F0000000000000F9010790141107004050150A41D405064090741402480A0350
1001
ACAD
1000
AcDbSavedByObjectVersion
1070
     0
  0
ACAD_PROXY_OBJECT
  5
1003A
102
{ACAD_REACTORS
330
1002C
102
}
330
1002C
100
AcDbProxyObject
 90
      499
 91
      502
 93
      444
310
42D31A5B995C185D1D195C9B90E409028333333333333E33F0000000000000F9010790141107004050750841D405064090741402483A0350
1001
ACAD
1000
AcDbSavedByObjectVersion
1070
     0
  0
ACAD_PROXY_OBJECT
  5
1003E
102
{ACAD_REACTORS
330
1002C
102
}
330
1002C
100
AcDbProxyObject
 90
      499
 91
      502
 93
      444
310
42D3DD995C9A185B99D3D999915409028333333333333E33F0000000000000F9010790141107004050150941D405064090741402480A0350
1001
ACAD
1000
AcDbSavedByObjectVersion
1070
     0
  0
ACAD_PROXY_OBJECT
  5
10035
102
{ACAD_REACTORS
330
1002C
102
}
330
1002C
100
AcDbProxyObject
 90
      499
 91
      502
 93
      428
310
425499585B1A5CDD1A58D08409038333333333333E33F0000000000000F9010740A907004050150800405405064090740C02480A1B40
1001
ACAD
1000
AcDbSavedByObjectVersion
1070
     0
  0
ACAD_PROXY_OBJECT
  5
10044
102
{ACAD_REACTORS
330
1002C
102
}
330
1002C
100
AcDbProxyObject
 90
      499
 91
      502
 93
      420
310
4194DA1859195911B40902404333333333333E33F0000000000000F9010740A41107004050150800405405064090840C02480A0B40
1001
ACAD
1000
AcDbSavedByObjectVersion
1070
     0
  0
ACAD_PROXY_OBJECT
  5
10043
102
{ACAD_REACTORS
330
1002C
102
}
330
1002C
100
AcDbProxyObject
 90
      499
 91
      502
 93
      516
310
4454DA18591959081DDA5D1A08195919D95CD1A40902404333333333333E33F0000000000000F901074090142907004050250800405405064090740C02480A0B40
1001
ACAD
1000
AcDbSavedByObjectVersion
1070
     0
  0
ACAD_PROXY_OBJECT
  5
10040
102
{ACAD_REACTORS
330
1002C
102
}
330
1002C
100
AcDbProxyObject
 90
      499
 91
      502
 93
      532
310
4394DA1859195CC81BD98811DC985E5174090240C333333333333E33F0000000000000F901079024090741D01000000000000111010841D405064090740C02480A0340
1001
ACAD
1000
AcDbSavedByObjectVersion
1070
     0
  0
ACAD_PROXY_OBJECT
  5
10041
102
{ACAD_REACTORS
330
1002C
102
}
330
1002C
100
AcDbProxyObject
 90
      499
 91
      502
 93
      476
310
41D4DAD95D18DA1E51840502408333333333333E33F0000000000000F901079024090741D01000000000000111010B41D405064090741802480A0340
1001
ACAD
1000
AcDbSavedByObjectVersion
1070
     0
  0
ACAD_PROXY_OBJECT
  5
10039
102
{ACAD_REACTORS
330
1002C
102
}
330
1002C
100
AcDbProxyObject
 90
      499
 91
      502
 93
      412
310
41D51A1A58DAD95B90D409028333333333333E33F0000000000000F9010790141107004050150C41D405064090741402480A0350
1001
ACAD
1000
AcDbSavedByObjectVersion
1070
     0
  0
ACAD_PROXY_OBJECT
  5
10032
102
{ACAD_REACTORS
330
1002C
102
}
330
1002C
100
AcDbProxyObject
 90
      499
 91
      502
 93
      420
310
4255DA5C99599C985B595059028333333333333E33F0000000000000F90107901411070040501600405405064090740C02480A0340
1001
ACAD
1000
AcDbSavedByObjectVersion
1070
     0
  0
ACAD_PROXY_OBJECT
  5
10042
102
{ACAD_REACTORS
330
1002C
102
}
330
1002C
100
AcDbProxyObject
 90
      499
 91
      502
 93
      404
310
41560B54985E51940902404000000000000E03F0000000000000F9010740501907004050150841D405064090740C02480A1B40
1001
ACAD
1000
AcDbSavedByObjectVersion
1070
     0
  0
XRECORD
  5
10064
102
{ACAD_REACTORS
330
1005B
102
}
330
1005B
100
AcDbXrecord
 90
        0
  0
XRECORD
  5
1007A
102
{ACAD_REACTORS
330
1005B
102
}
330
1005B
100
AcDbXrecord
1000
DSTYLE
1002
{
1070
   279
 70
     2
1070
   340
340
11
1002
}
  0
XRECORD
  5
10065
102
{ACAD_REACTORS
330
1005B
102
}
330
1005B
100
AcDbXrecord
  1
{3B0C853F-F42B-4E13-A80A-0876ADB46001}
  0
XRECORD
  5
1005E
102
{ACAD_REACTORS
330
1005B
102
}
330
1005B
100
AcDbXrecord
  1

  0
XRECORD
  5
10063
102
{ACAD_REACTORS
330
1005B
102
}
330
1005B
100
AcDbXrecord
 90
        4
  0
XRECORD
  5
10060
102
{ACAD_REACTORS
330
1005B
102
}
330
1005B
100
AcDbXrecord
340
10025
  0
XRECORD
  5
10062
102
{ACAD_REACTORS
330
1005B
102
}
330
1005B
100
AcDbXrecord
 90
    10781
  0
XRECORD
  5
10061
102
{ACAD_REACTORS
330
1005B
102
}
330
1005B
100
AcDbXrecord
340
10057
  0
XRECORD
  5
10067
102
{ACAD_REACTORS
330
1005B
102
}
330
1005B
100
AcDbXrecord
 40
0.0
  0
XRECORD
  5
1006A
102
{ACAD_REACTORS
330
1005B
102
}
330
1005B
100
AcDbXrecord
340
0
  0
XRECORD
  5
10070
102
{ACAD_REACTORS
330
1005B
102
}
330
1005B
100
AcDbXrecord
 10
0.0
 20
0.0
 30
0.0
  0
XRECORD
  5
1006C
102
{ACAD_REACTORS
330
1005B
102
}
330
1005B
100
AcDbXrecord
 10
0.0
 20
0.0
 30
0.0
  0
XRECORD
  5
1006F
102
{ACAD_REACTORS
330
1005B
102
}
330
1005B
100
AcDbXrecord
 10
0.0
 20
0.0
 30
0.0
  0
XRECORD
  5
1006D
102
{ACAD_REACTORS
330
1005B
102
}
330
1005B
100
AcDbXrecord
 10
0.0
 20
0.0
 30
0.0
  0
XRECORD
  5
1006E
102
{ACAD_REACTORS
330
1005B
102
}
330
1005B
100
AcDbXrecord
 10
0.0
 20
0.0
 30
0.0
  0
XRECORD
  5
1006B
102
{ACAD_REACTORS
330
1005B
102
}
330
1005B
100
AcDbXrecord
 10
0.0
 20
0.0
 30
0.0
  0
XRECORD
  5
10068
102
{ACAD_REACTORS
330
1005B
102
}
330
1005B
100
AcDbXrecord
340
0
  0
XRECORD
  5
10069
102
{ACAD_REACTORS
330
1005B
102
}
330
1005B
100
AcDbXrecord
 70
     0
  0
XRECORD
  5
1005F
102
{ACAD_REACTORS
330
1005B
102
}
330
1005B
100
AcDbXrecord
  1

  0
XRECORD
  5
1005C
102
{ACAD_REACTORS
330
1005B
102
}
330
1005B
100
AcDbXrecord
 90
        1
  0
XRECORD
  5
1005D
102
{ACAD_REACTORS
330
1005B
102
}
330
1005B
100
AcDbXrecord
 90
       70
  0
XRECORD
  5
10073
102
{ACAD_REACTORS
330
1005B
102
}
330
1005B
100
AcDbXrecord
340
0
  0
XRECORD
  5
10079
102
{ACAD_REACTORS
330
1005B
102
}
330
1005B
100
AcDbXrecord
 10
0.0
 20
0.0
 30
0.0
  0
XRECORD
  5
10075
102
{ACAD_REACTORS
330
1005B
102
}
330
1005B
100
AcDbXrecord
 10
0.0
 20
0.0
 30
0.0
  0
XRECORD
  5
10078
102
{ACAD_REACTORS
330
1005B
102
}
330
1005B
100
AcDbXrecord
 10
0.0
 20
0.0
 30
0.0
  0
XRECORD
  5
10076
102
{ACAD_REACTORS
330
1005B
102
}
330
1005B
100
AcDbXrecord
 10
0.0
 20
0.0
 30
0.0
  0
XRECORD
  5
10077
102
{ACAD_REACTORS
330
1005B
102
}
330
1005B
100
AcDbXrecord
 10
0.0
 20
0.0
 30
0.0
  0
XRECORD
  5
10074
102
{ACAD_REACTORS
330
1005B
102
}
330
1005B
100
AcDbXrecord
 10
0.0
 20
0.0
 30
0.0
  0
XRECORD
  5
10071
102
{ACAD_REACTORS
330
1005B
102
}
330
1005B
100
AcDbXrecord
340
0
  0
XRECORD
  5
10072
102
{ACAD_REACTORS
330
1005B
102
}
330
1005B
100
AcDbXrecord
 70
     0
  0
XRECORD
  5
10066
102
{ACAD_REACTORS
330
1005B
102
}
330
1005B
100
AcDbXrecord
  1
{FAEB1C32-E019-11D5-929B-00C0DF256EC4}
  0
DICTIONARYVAR
  5
10052
102
{ACAD_REACTORS
330
10051
102
}
330
10051
100
DictionaryVariables
280
     0
  1
1:1
  0
DICTIONARYVAR
  5
1007B
102
{ACAD_REACTORS
330
10051
102
}
330
10051
100
DictionaryVariables
280
     0
  1
2
  0
DICTIONARYVAR
  5
1007C
102
{ACAD_REACTORS
330
10051
102
}
330
10051
100
DictionaryVariables
280
     0
  1
1
  0
DICTIONARYVAR
  5
10054
102
{ACAD_REACTORS
330
10051
102
}
330
10051
100
DictionaryVariables
280
     0
  1
0
  0
CSACDOCUMENTOPTIONS
  5
1004E
102
{ACAD_REACTORS
330
1004D
102
}
330
1004D
  0
XRECORD
  5
1004F
102
{ACAD_REACTORS
330
10047
102
}
330
10047
100
AcDbXrecord
300
MC_VERSION_DATA
 90
       95
310
0600000002000000570000001C000000B503000000000000000000007801936764E5D8CFFA9993818115C460606066E0646662626666706006F218793899F8DE3171E725E6E53B3BBA2878E6951050AF75FEFFFFFF520036E40F2657000000
  0
XRECORD
  5
10048
102
{ACAD_REACTORS
330
10047
102
}
330
10047
100
AcDbXrecord
300
MCS_DOCUMENT_ID
 90
       60
310
0600000002000000150000001C000000B503000000000000000000007801E39D2EEAFC632607BB7BDFA2E0C8A887E7E7FD070200608E0B6415000000
  0
XRECORD
  5
10059
102
{ACAD_REACTORS
330
10047
102
}
330
10047
100
AcDbXrecord
300
MCS_PARAMS_DATA
 90
     3313
310
0600000002000000F64B00001C000000B503000000000000000000007801C55C5B6C5CC519DE9D595FD6B9DF494B53970A1A6F4A58DF92A6426A1A1210527090E23EF0543976A2BA75E25CAC160A6DA92AF5A55255A96AD556551F4A49A0CF15A03EC0438190865E482021147221409310B6900B3826B1FB7F7366CEFC73E6
310
1CAFBDDE3D9B07D8FF3F73CEF7DFE6FB67E6ECBA757EA3143929F767A4FCCE8636299AA49C90529036BB402C105929F279912F89C6DEAF6FD8BC69AB14A46C51EAC2B9898909BA39945F872C1FCD848A834A91A13B1AD51D6D5266E8A9FAF627E9AABE92BD45CA6F03BD81A3CFC24D59D990C96408C7E066656E0232E13A03
310
14B0AB01724443F05CC3F08780DFC8F19B03FC710A073DC8486413411B49060E3311A05C24C45064703B01D7CCE196A818E5C59C9268B967CBD6DED68ED59DC52EEB78BEF08E09F8223D745649346F1DE9DB35D0B777C089FC5FC3C8EB60BF1A286CF47FE3467F17CC59C5CD990B0CD948C1A77FB9F5CA0E4F479188EA541E
310
3C25A2E22BC99C8892456878B2821857F6B05492C2AD881B41409C21325211340605C9C6DC6006EC49AC088A0CCBB25B1159B72248E415019155047D5453031360047082A7405D92B72AB0F03379693EAB50870260AC609E2C6F6510BB3D081DFE4EF5EFECD71494A7B3590EC7F12C5B25CB32539229914732934ECE22AF1D
310
D259AC8B7B7649E437DE7BDFA69EADF76EE95186E95A7ED74C032DBFA66A9BF1CEF341B19B78E45DDED9EF56FE29189043E4814BF734E1FF34659991678231F23A51010DA578E8294D435524988818E84710A7B2643B4F7C134F5CC6936D1E4176D01398C4D0A83AE0A6BDC86B0BB5C3E1E8299D70A5A945AC12322FE697C4
310
9C8DC3BBBE34D2BA77FBEEA1BEFEED79D15C120DF70F0FEE1A093EF60C8FF47F4BCAB3B0ED666EDB17F5733E2B445B5E2C298985C507BB8BEBBA3A3A3774178B1D777FA5B36B9D327BBE1ED84C030BC74C9EDAB5B64D88BC405AEF1E1CD9D73A34B88F70838775AD5DDBD1B9B6BBABBB73A0ABA37F5D7BE0E757F57D1DB80F
310
037BFBB60D6D6F1DDED1DA3B3CB47D6FDF2EF8A0AD5933506CEF2FF6F7ADD9D6B56D5DFF9A60D6A95222FF670B51F8295953F8455019945B7EE9315C7A8AFEC352DE9D4B4A5050256AA6D1B42D5F0C265BEED4473538E9811F770DEFDCDD3732B86D706870E4A1D69DC303E45F6349C807B6EFCB8B8692103DC352AE816545
310
9E9E798813B5E9A692C86DD9B1A355A5424F8E0BF018466AF90D150136590E2905AA568F782650907D5A7180140B84AD0159F8156902B8F63BDA8BE1A72E29AF48322EA98B5F578631B6F5489B26184C63434803DB221A328E6B58DEAED6DB808FEB6DC068BD0DF8A4DE065CABB7018B3045EB390B3EAD7704C6EA6DC07518
310
10B79C17773A0DB6C361F03BDD064B22C8C7303844629E5064B47323116EB9039777E096BB70247238880C6E39831B9F221C81B3E543C57019D4736C30574EE2DD4AD73B12B9771099772B997713E97A974DF4CECD5D9582B938116EC00926492C777A7F676A8F441E4C882C98032C983211AE26DE8974E196022EC7174366
310
F9AE62C95769E105B5C4B012E2E82ED8CD3516C5E34D519CF0D1F6765A8551C6CC0505130A3E8ABEC46EF81CED54DC1DA04AB7BC4DB0CA082453194AB29B82400C2B438BA6322032B88FE093B3E13470C11297490C8EEF78E88158D51A8AD42283A38F61044E78707A57F8BBDFE2DF2167F36975041D1DA7FCF59430C35792
310
05112533A905D5D3CAAB4759DBB4CA160F3E9309466F934A1794E7E1154C402D3088858048DCDF7EA3E7FECD5B7A7B376D5480CBF43A7E5E49CCBE6BEB37D945B2402FC65F52AB73B67E7F3A58AE93F37A04F6B7011D680556EBCCA2819BC8A21C320F385BBDB4EE56E6E32CE2CB18E358AD7676B4C7C096B1674BAF7B1278
310
1E906198B0DF8681EA696AF34D20563061CAB731C0DB01185B8B0DCA46538BD880EB0E2C6FC3120B40E62289BC162112587895C11513E18290E892090EBF46A9321968C513E0BB89A0AE8F2431B88A7DFC9E07A7BD0A8E668E3AF3CDEA083A3A8ECFB770A00AB53712018F2859D8DB3D93C2E4D422CB77A40BB73A5DB807A7
310
0857A5727AC8838BE45965D0D3D5B29CBEEF99145F4E558AC0C3E9C23D922EDC0FD285FBA107E7958EEDE721E98018A3E3AAC64E7F5C166D7ABA81B65C437BB31D766C74A6ED6E1FBC2766B7AFDAD87156F9771BF44A2A724C461AB43EE729AAFB710D63E2111810BBA3ABC9AE6037E09AB9BF3AB40BE8309F8736AB64CAB2
310
BE7E3364E5AC569CA6976081AF5A311628A8EF68C5B3A4609E3E86AC3AA156E3E83562F4B5A292099A878C61EB3B549CF92354989982613F016CE7AD5A4D09AA1F5126387AAD451EE384D9C035A925859E39C1AA865EE9A9B8DA21CEE289167F7CF1D4C4BC7A125EC5AED5D8BB0B5A9D9144D134CFA71BF85A8D44BE568348
310
F6AA55A2F3CAEACF6982FD29118CC249D3CBF852A586F278BA70FBD3853B90085793EDE51E143F0AD06C6B4CB2242BDDBDD1419166C2865E85F9CE1648F3CBF54B2E655D5432557AB8C599EEE6E763403914E55050D879E2BFFA30F366F009F0CB378371CA9B99D05949929DD07465EA8797A3808B6B06B9536E64AF9C844C
310
903AF2F3709D3783A318A078E4F37AEBBCEC2DD1B228B722F785DC2DB9D64C476675A63353CC74E937B1FA39BFA7DB58A6AFC19E49583A4A9B6110A6BA038D3C80418F79D091B18A763C1D8524AA5361F194EC4CC4B23EDBA3192533E95398E41423EB6DCA1C239B4DBF91D13F6D762A6897D7013D496371DC8BECCAA7D45E
310
0C251095ABC98AA38E1B6540CD3DACF829EF15C38D27C2B92DA64A071D13897001094F16523EC1C9E5A99FF465029665AB5B13C49AF8984D174EA40B273D389D33BB29A272F6749622C2719C22AC925104534E7A8CF33714555C6B3CF3BE4BE0AF28994CA9B8353E0F28878DD26D8D2F007FBAAD11BD305CEB4EAB35BE08B8
310
B8D678FEB81BD9134AB6ADF10A644BBEF9C2334A81E4EAA6772450D87DD2AF49C178F020A0EBD3055FF292CC5B8AB3FC4114C86BA708ACDB15F49C43C04EBBE7FCBD0CA8A1CB2AF59CC3897035E1E39713E16AD873FE91085A131FFF19C04DBEDBF8D75406FD3B3A2842E56C8ABE82A171BC3BF89ECB0E0F287926BC7B0450
310
75E4DDA3C09F2EEF56BE2579157071BCBBE7881BD93E255BDE7D04B225A07C61BD5230DE1DBA8C1158736B225E412358525F03747D78F79897E472BCCBAF5BAF2BA0DDE3804E9B765F2F035A65DA3D910857134A7A2311AE52DA8D6E0E9C1341735A873DD47F12A16BE2E99BE9C275792B70532835F1AEDB838B7404B509F7
310
74C449519D9AA19EB28205FF5B08785CE3F9307262735AC933693C270155C7C6730AF8E9359ED3808B6B3CA387DDC6734EC9B6F1C897238DE72006D89713F9C2E58B91C6F3388D608DE70CA0A7DA7866D30F8008DC16BEAA2D26A2AAB848F4108A0CF46D0F54D7A73989E2C56D75B6B8431D2F6EAB64C5CD94644C04869974
310
1626C5B6A280378D1BEE62BCE2C3917700E714386FAA719B1D7E7D464DF7DD444F8317374E8CAA75BEF65E19D0F8F0523EC21D7470DCC60B8CAEF29753FC38EF4760CFDBF99B4673F680D0869F6742513F06849341B61DF57EE3400A02734628D75C0DBC8B68A868B98655ECA330208EA3C6F1B52E3DF1E8849E2433679564
310
431A886148B568E62C4406F75F64308EFD2F9D7039EA6D259B5B2BF91AD8396F72B01004EFC5CD6C88F911E8CCDF849C077E5C64E9488747967101058B73015D99FA9B900B808B63FFB117DCC85E50324556799F2F34BC086EC70CD18A4318C0D9FF2AB6807CDB718046B0A4BE0FE8B4D9FFA207EA504E3D7E65FA014C7226
310
B329B0E8D703AAFEBAA304E869379E693123CD68457958A4FF2F11AE86ECFF6119D078F6E7138AD87FF2370F86D6E1E34789702D76FED2134932CCA824CB8C811832A3160D33426421BD940847AF6F0C11D33DEECB1CFE9B7175D1F926045DE5BD8DBFBDBE9C081764D0049324E6DDB40A8607F34A225C4D16463974B5B836
310
F3B3A32E193EACE499B49986C93A780A6DA631A981D7A6CD34012EAECDFCF23937B23F51B26D337F80CCDBCC36A5C0ECD07DE7E7A7236D663D8D6033A419D0536D33E07F56B8C4CA7C0D48229F9610695A461A0883CE7B494E8DD95B004DF38E8247AB09FE45AC1A52EDAC32A0861DD8DA85D8A76276989D08579353913989
310
700119397510D9BB4CAB9DF096393711B4263ECE4B176E7EBA700B3C389DB3F0B5335AA6A7234288EA142D784A9083AFB414616018456CF64C3293C4CD2F49D3E5A5F0410CEE3E0F2E6A6FEA11580893E29AEE529C2FC11C4DF48D4AA628982DB44A422820F8563073C8F989CF2240392BED74F7768B819FDEDE6E09E0E29A
310
EE0AFA030B3CB273954C91D5916E83CC9BEE074FAB1E6B73B11CFB6CBEB73B4C23589D2D05F4CC9AAE2E4C768646F0614DBB4BD40606BDCC4B726A4DF72640A7DD749797013521AB4ED3C5971C1BF2225712D922FD192CAA82F186C253F467B664EED8B163100EA1787299890C1D4314EEF90B040C236113FD72905624B8F0
310
99FF03A92412CEF64B0000
  0
DICTIONARY
  5
10081
330
1002A
100
AcDbDictionary
280
     1
  3
ACAD_XREC_ROUNDTRIP
360
10082
  0
DICTIONARY
  5
1007F
330
10029
100
AcDbDictionary
280
     1
  3
ACAD_XREC_ROUNDTRIP
360
10080
  0
DICTIONARY
  5
10083
330
1002B
100
AcDbDictionary
280
     1
  3
ACAD_XREC_ROUNDTRIP
360
10084
  0
XRECORD
  5
10082
102
{ACAD_REACTORS
330
10081
102
}
330
10081
100
AcDbXrecord
102
MATERIAL
148
0.0
149
0.0
149
0.0
 93
        0
 94
      127
282
     0
 72
     1
 77
     1
171
     1
175
     1
179
     1
273
     0
  0
XRECORD
  5
10080
102
{ACAD_REACTORS
330
1007F
102
}
330
1007F
100
AcDbXrecord
102
MATERIAL
148
0.0
149
0.0
149
0.0
 93
        0
 94
      127
282
     0
 72
     1
 77
     1
171
     1
175
     1
179
     1
273
     0
  0
XRECORD
  5
10084
102
{ACAD_REACTORS
330
10083
102
}
330
10083
100
AcDbXrecord
102
MATERIAL
148
0.0
149
0.0
149
0.0
 93
        0
 94
      127
282
     0
 72
     1
 77
     1
171
     1
175
     1
179
     1
273
     0
  0
ENDSEC
  0
EOF
