0
SECTION
2
HEADER
9
$INSUNITS
70
4
9
$ACADVER
1
AC1014
9
$HANDSEED
5
FFFF
0
ENDSEC
0
SECTION
2
TABLES
0
TABLE
2
VPORT
5
8
100
AcDbSymbolTable
0
ENDTAB
0
TABLE
2
LTYPE
5
5
100
AcDbSymbolTable
0
LTYPE
5
14
100
AcDbSymbolTableRecord
100
AcDbLinetypeTableRecord
2
BYBLOCK
70
0
0
LTYPE
5
15
100
AcDbSymbolTableRecord
100
AcDbLinetypeTableRecord
2
BYLAYER
70
0
0
ENDTAB
0
TABLE
2
LAYER
5
2
100
AcDbSymbolTable
70
2
0
LAYER
5
50
100
AcDbSymbolTableRecord
100
AcDbLayerTableRecord
2
0
70
0
6
CONTINUOUS
0
ENDTAB
0
TABLE
2
STYLE
5
3
100
AcDbSymbolTable
70
1
0
STYLE
5
11
100
AcDbSymbolTableRecord
100
AcDbTextStyleTableRecord
2
STANDARD
70
0
0
ENDTAB
0
TABLE
2
VIEW
5
6
100
AcDbSymbolTable
70
0
0
ENDTAB
0
TABLE
2
UCS
5
7
100
AcDbSymbolTable
70
0
0
ENDTAB
0
TABLE
2
APPID
5
9
100
AcDbSymbolTable
70
2
0
APPID
5
12
100
AcDbSymbolTableRecord
100
AcDbRegAppTableRecord
2
ACAD
70
0
0
ENDTAB
0
TABLE
2
DIMSTYLE
5
A
100
AcDbSymbolTable
70
1
0
ENDTAB
0
TABLE
2
BLOCK_RECORD
5
1
100
AcDbSymbolTable
70
1
0
BLOCK_RECORD
5
1F
100
AcDbSymbolTableRecord
100
AcDbBlockTableRecord
2
*MODEL_SPACE
0
BLOCK_RECORD
5
1B
100
AcDbSymbolTableRecord
100
AcDbBlockTableRecord
2
*PAPER_SPACE
0
ENDTAB
0
ENDSEC
0
SECTION
2
BLOCKS
0
BLOCK
5
20
100
AcDbEntity
100
AcDbBlockBegin
2
*MODEL_SPACE
0
ENDBLK
5
21
100
AcDbEntity
100
AcDbBlockEnd
0
BLOCK
5
1C
100
AcDbEntity
100
AcDbBlockBegin
2
*PAPER_SPACE
0
ENDBLK
5
1D
100
AcDbEntity
100
AcDbBlockEnd
0
ENDSEC
0
SECTION
2
ENTITIES
0
LWPOLYLINE
5
100
100
AcDbEntity
8
0
100
AcDbPolyline
90
99
70
1
43
0.0
10
-193.2513867613761
20
6.0954730636560228
10
-129.84486599803407
20
6.0954730636560086
42
0.58534813359985272
10
-129.41795412526298
20
6.8557541672479205
42
-1.7808853585089977
10
-125.35119162524461
20
6.8557541672479285
42
0.5853481335998284
10
-124.92427975247351
20
6.0954730636560051
10
-123.8219768765471
20
6.0954730636560051
42
0.30176020665577141
10
-123.36115731908913
20
6.4014490046729957
42
0.10393843603337199
10
-123.01961455690424
20
8.1642417271019934
42
-0.41883519235167299
10
-120.01998680405806
20
11.211500000000001
10
-63.952427124746087
20
11.211500000000015
42
-0.19891236737966284
10
-62.53821356237296
20
10.625713562373083
10
-58.300866282469066
20
6.3883662824689882
42
0.19891236737949758
10
-57.593759501283053
20
6.0954730636560406
10
-37.575720247526085
20
6.0954730636560308
42
0.58534813359992666
10
-37.148808374755092
20
6.8557541672480387
42
-1.7808853585090456
10
-33.08204587473692
20
6.8557541672479152
42
0.58534813359998439
10
-32.655134001966104
20
6.0954730636562005
10
-31.552831126039074
20
6.0954730636560104
42
0.30176020665561554
10
-31.092011568581199
20
6.4014490046726618
42
0.034977947746420379
10
-30.895149406115952
20
6.9788503755299613
42
-0.3403303248974987
10
-27.994947102625076
20
9.211500000000008
10
-8.7516016151380427
20
9.2115000000000204
42
0.26794919243112869
10
-7.0195508075691748
20
10.211500000000022
42
-0.26794919243112453
10
-5.2875000000000227
20
11.211499999999983
10
11.397413928804951
20
11.211499999999969
42
-0.41883519235167321
10
14.397041681650791
20
8.1642417271019792
42
0.10393843603339557
10
14.738584443835659
20
6.401449004672858
42
0.30176020665554909
10
15.199404001292969
20
6.0954730636563781
10
16.301706877219928
20
6.0954730636560424
42
0.58534813359986126
10
16.728618749991007
20
6.8557541672480093
42
-1.7808853585090272
10
20.795381250009115
20
6.8557541672478521
42
0.58534813359989712
10
21.222293122779945
20
6.0954730636562182
10
92.502206877220033
20
6.095473063655982
42
0.58534813359986659
10
92.929118749990991
20
6.8557541672480307
42
-1.7808853585090512
10
96.99588125000902
20
6.8557541672479196
42
0.58534813359994831
10
97.422793122780007
20
6.0954730636561472
10
98.525095998706931
20
6.0954730636559926
42
0.30176020665551878
10
98.985915556164713
20
6.401449004672644
42
0.10393843603342082
10
99.327458318349713
20
8.1642417271019774
42
-0.41883519235168243
10
102.32708607119498
20
11.211499999999983
10
121.76249999999989
20
11.211499999999983
42
0.41421356237310025
10
123.76249999999985
20
13.211499999999976
10
123.76249999999992
20
127.47599999999998
42
0.41421356237307394
10
121.76249999999989
20
129.476
10
102.32708607119498
20
129.47599999999994
42
-0.40960698661906314
10
99.327458318349215
20
132.42874172710162
42
0.095982986364166356
10
98.98591555616413
20
134.05399712263909
42
0.30176020665531084
10
98.525095998706931
20
134.35997306365516
10
97.422793122780007
20
134.35997306365567
42
0.58534813359977778
10
96.995881250008779
20
133.59969196006369
42
-1.7808853585091253
10
92.929118749990892
20
133.59969196006384
42
0.58534813359977178
10
92.502206877220033
20
134.35997306365542
10
25.985293122779929
20
134.35997306365567
42
0.58534813359983062
10
25.558381250008793
20
133.59969196006369
42
-1.780885358509154
10
21.491618749990856
20
133.59969196006381
42
0.5853481335998344
10
21.064706877219948
20
134.35997306365545
10
19.962404001292953
20
134.35997306365573
42
0.30176020665540559
10
19.501584443835213
20
134.05399712263923
42
0.095982986364176334
10
19.160041681650096
20
132.42874172710162
42
-0.4096069866190914
10
16.160413928804935
20
129.476
10
-12.050503870883027
20
129.476
42
-0.40960698661907441
10
-15.050131623728904
20
132.42874172710162
42
0.095982986364189102
10
-15.391674385913952
20
134.05399712263903
42
0.3017602066553603
10
-15.85249394337108
20
134.35997306365527
10
-16.954796819298039
20
134.35997306365567
42
0.58534813359983018
10
-17.381708692069218
20
133.59969196006372
42
-1.7808853584939586
10
-21.448471192105206
20
133.59969196003422
42
0.58534813359482141
10
-21.875383064880083
20
134.35997306361961
10
-64.815500000000057
20
134.35997306365567
42
0.41421356237308415
10
-66.815500000000029
20
132.35997306365573
10
-66.815500000000071
20
131.47599999999991
42
-0.41421356237307994
10
-68.815500000000057
20
129.476
10
-121.51041392880508
20
129.476
42
-0.40960698661908534
10
-124.51004168165085
20
132.42874172710162
42
0.095982986364176112
10
-124.85158444383588
20
134.05399712263889
42
0.30176020665557513
10
-125.31240400129349
20
134.35997306365567
10
-126.41470687721977
20
134.35997306365567
42
0.58534813359971694
10
-126.84161874999097
20
133.59969196006384
42
-1.7808853585090874
10
-130.90838125000917
20
133.59969196006381
42
0.58534813359972349
10
-131.33529312278037
20
134.35997306365573
10
-193.2513867613761
20
134.35997306365567
42
0.58534813359975268
10
-193.67829863414727
20
133.59969196006381
42
-1.7808853585090836
10
-197.74506113416547
20
133.59969196006381
42
0.58534813359973925
10
-198.17197300693667
20
134.3599730636557
10
-199.2742758828629
20
134.3599730636557
42
0.30176020665559206
10
-199.73509544032072
20
134.05399712263898
42
0.09598298636418541
10
-200.07663820250573
20
132.42874172710165
42
-0.4096069866190844
10
-203.07626595535157
20
129.476
10
-222.35000000000011
20
129.476
42
0.41421356237309503
10
-224.35000000000008
20
127.47600000000003
10
-224.35000000000014
20
13.211500000000012
42
0.41421356237309559
10
-222.35000000000014
20
11.211500000000019
10
-203.07626595535163
20
11.211500000000022
42
-0.41883519235167016
10
-200.07663820250576
20
8.1642417271020147
42
0.10393843603338547
10
-199.73509544032089
20
6.4014490046729655
42
0.30176020665574621
10
-199.2742758828629
20
6.0954730636559518
10
-198.1719730069367
20
6.0954730636560095
42
0.58534813359986582
10
-197.74506113416552
20
6.8557541672479596
42
-1.7808853585089883
10
-193.67829863414721
20
6.855754167247964
42
0.5853481335998596
0
LWPOLYLINE
5
101
100
AcDbEntity
8
0
100
AcDbPolyline
90
8
70
1
43
0.0
10
-117.11250000000007
20
64.937500000000014
42
0.41421356237310542
10
-117.61250000000005
20
65.437500000000014
10
-130.61250000000007
20
65.4375
42
0.41421356237307944
10
-131.11250000000007
20
64.937500000000014
10
-131.1125000000001
20
51.937500000000014
42
0.41421356237310542
10
-130.6125000000001
20
51.4375
10
-117.6125000000001
20
51.437500000000014
42
0.41421356237310025
10
-117.11250000000008
20
51.937500000000014
0
LWPOLYLINE
5
102
100
AcDbEntity
8
0
100
AcDbPolyline
90
8
70
1
43
0.0
10
-111.56250000000009
20
51.437499999999986
10
-98.562500000000099
20
51.437500000000007
42
0.41421356237305862
10
-98.062500000000085
20
51.937500000000007
10
-98.062500000000028
20
64.9375
42
0.41421356237312101
10
-98.562500000000085
20
65.437500000000028
10
-111.56250000000006
20
65.437499999999986
42
0.41421356237307944
10
-112.06250000000004
20
64.9375
10
-112.06250000000009
20
51.937500000000007
42
0.41421356237310542
0
LWPOLYLINE
5
103
100
AcDbEntity
8
0
100
AcDbPolyline
90
8
70
1
43
0.0
10
-16.812500000000092
20
64.9375
10
-16.81250000000005
20
51.9375
42
0.41421356237310025
10
-16.312500000000085
20
51.437500000000028
10
-3.3125000000000426
20
51.437499999999936
42
0.41421356237306384
10
-2.8125
20
51.9375
10
-2.8125000000000711
20
64.9375
42
0.41421356237316787
10
-3.3125000000000782
20
65.437499999999986
10
-16.312500000000085
20
65.437499999999943
42
0.41421356237305862
0
LWPOLYLINE
5
104
100
AcDbEntity
8
0
100
AcDbPolyline
90
8
70
1
43
0.0
10
-25.837500000000091
20
46.387500000000003
42
0.41421356237309503
10
-26.337500000000063
20
45.887500000000031
10
-26.337500000000045
20
32.887500000000003
42
0.4142135623730846
10
-25.837500000000091
20
32.387499999999996
10
-12.837500000000048
20
32.387500000000017
42
0.4142135623730222
10
-12.337500000000077
20
32.887500000000003
10
-12.337500000000077
20
45.887500000000031
42
0.41421356237314705
10
-12.837500000000084
20
46.387499999999982
0
LWPOLYLINE
5
105
100
AcDbEntity
8
0
100
AcDbPolyline
90
8
70
1
43
0.0
10
-108.08750000000011
20
32.387499999999974
42
0.41421356237309503
10
-107.58750000000008
20
32.887500000000003
10
-107.58750000000008
20
45.887500000000031
42
0.41421356237309503
10
-108.08750000000011
20
46.387500000000017
10
-121.08750000000009
20
46.387500000000017
42
0.41421356237310542
10
-121.58750000000011
20
45.887500000000031
10
-121.58750000000011
20
32.887500000000003
42
0.41421356237309503
10
-121.08750000000009
20
32.387499999999996
0
LWPOLYLINE
5
106
100
AcDbEntity
8
0
100
AcDbPolyline
90
16
70
1
43
0.0
10
-34.925000000000104
20
24.969000000000001
42
-0.99999999999999989
10
-34.925000000000104
20
21.968999999999994
10
-48.326923788646106
20
21.969000000000037
42
0.26794919243104953
10
-49.625961894322622
20
21.219000000000321
42
-0.57735026918971077
10
-52.224038105675831
20
21.219000000000129
42
0.26794919243104076
10
-53.52307621135207
20
21.96899999999971
10
-54.947951085525091
20
21.968999999999998
42
0.10951781168319301
10
-55.581878478136097
20
21.828461680554998
10
-57.123614601352031
20
21.109538319444976
42
-0.10951781168322021
10
-57.757541993963066
20
20.9690000000003
10
-66.924999999999116
20
20.968999999999998
42
-0.99999999999999989
10
-66.924999999999116
20
23.96899999999901
10
-40.902048914474065
20
23.968999999999991
42
0.10951781168319256
10
-40.268121521863094
20
24.109538319444983
10
-38.726385398647132
20
24.828461680554987
42
-0.10951781168320773
10
-38.09245800603609
20
24.969000000000001
0
LWPOLYLINE
5
107
100
AcDbEntity
8
0
100
AcDbPolyline
90
16
70
1
43
0.0
10
-112.8740381056778
20
21.219000000000147
42
0.57735026918969012
10
-110.27596189432438
20
21.219000000000158
42
-0.26794919243105753
10
-108.97692378864807
20
21.968999999999994
10
-107.55204891447507
20
21.968999999999763
42
-0.1095178116832302
10
-106.91812152186409
20
21.828461680554998
10
-105.37638539864798
20
21.109538319445242
42
0.10951781168325088
10
-104.74245800603711
20
20.9690000000003
10
-95.575000000001069
20
20.969000000000015
42
0.99999999999999989
10
-95.575000000001069
20
23.968999999999987
10
-121.59795108552609
20
23.969000000000236
42
-0.10951781168322795
10
-122.23187847813708
20
24.109538319445001
10
-123.77361460135317
20
24.828461680554849
42
0.10951781168329762
10
-124.40754199396446
20
24.969000000000001
10
-127.57500000000006
20
24.969000000000001
42
0.99999999999999989
10
-127.57500000000009
20
21.968999999999994
10
-114.17307621135409
20
21.96900000000003
42
-0.26794919243106385
0
LWPOLYLINE
5
108
100
AcDbEntity
8
0
100
AcDbPolyline
90
8
70
1
43
0.0
10
-45.38750000000006
20
32.887500000000003
42
0.41421356237313667
10
-44.887500000000067
20
32.387500000000017
10
-31.88750000000006
20
32.387499999999974
42
0.41421356237310542
10
-31.387500000000053
20
32.887500000000003
10
-31.387500000000017
20
45.887500000000031
42
0.41421356237306384
10
-31.88750000000006
20
46.387500000000017
10
-44.887500000000067
20
46.38749999999996
42
0.41421356237311585
10
-45.387500000000038
20
45.887500000000031
0
LWPOLYLINE
5
109
100
AcDbEntity
8
0
100
AcDbPolyline
90
8
70
1
43
0.0
10
-21.862500000000082
20
64.9375
42
0.41421356237316787
10
-22.36250000000009
20
65.437499999999986
10
-35.362500000000097
20
65.437499999999943
42
0.41421356237305862
10
-35.862500000000104
20
64.9375
10
-35.862500000000097
20
51.9375
42
0.4142135623730378
10
-35.362500000000097
20
51.437500000000028
10
-22.36250000000009
20
51.437499999999936
42
0.4142135623730846
10
-21.862500000000011
20
51.9375
0
LWPOLYLINE
5
110
100
AcDbEntity
8
0
100
AcDbPolyline
90
8
70
1
43
0.0
10
-7.2875000000000512
20
45.887500000000031
10
-7.2875000000000334
20
32.887500000000003
42
0.4142135623730846
10
-6.7875000000000796
20
32.387499999999996
10
6.2124999999999275
20
32.387499999999996
42
0.41421356237304302
10
6.7124999999999346
20
32.887499999999989
10
6.7124999999999346
20
45.88750000000001
42
0.41421356237314705
10
6.2124999999999275
20
46.38749999999996
10
-6.7875000000000796
20
46.387500000000003
42
0.41421356237309503
0
LWPOLYLINE
5
111
100
AcDbEntity
8
0
100
AcDbPolyline
90
8
70
1
43
0.0
10
-122.3750000000001
20
70.487500000000011
42
0.414213562373069
10
-121.87500000000013
20
70.987499999999997
10
-121.87500000000007
20
83.987499999999997
42
0.41421356237308982
10
-122.37500000000009
20
84.487500000000011
10
-135.37500000000009
20
84.487500000000011
42
0.41421356237311585
10
-135.87500000000003
20
83.987500000000011
10
-135.87500000000009
20
70.987499999999997
42
0.41421356237310542
10
-135.37500000000009
20
70.487499999999997
0
LWPOLYLINE
5
112
100
AcDbEntity
8
0
100
AcDbPolyline
90
8
70
1
43
0.0
10
-27.125000000000057
20
70.487499999999955
42
0.41421356237311063
10
-26.624999999999979
20
70.987499999999983
10
-26.625000000000092
20
83.987499999999983
42
0.41421356237310025
10
-27.125000000000057
20
84.487499999999969
10
-40.125000000000064
20
84.487500000000026
42
0.41421356237310542
10
-40.625000000000071
20
83.987499999999997
10
-40.624999999999986
20
70.987499999999983
42
0.41421356237304302
10
-40.125000000000064
20
70.487500000000011
0
LWPOLYLINE
5
113
100
AcDbEntity
8
0
100
AcDbPolyline
90
8
70
1
43
0.0
10
-88.537500000000065
20
45.887500000000031
42
0.41421356237309503
10
-89.037500000000094
20
46.387500000000017
10
-102.03750000000008
20
46.387500000000017
42
0.41421356237310542
10
-102.53750000000009
20
45.887500000000031
10
-102.53750000000009
20
32.887500000000003
42
0.41421356237309503
10
-102.03750000000008
20
32.387499999999996
10
-89.037500000000094
20
32.387499999999974
42
0.41421356237309503
10
-88.537500000000065
20
32.887500000000003
0
LWPOLYLINE
5
114
100
AcDbEntity
8
0
100
AcDbPolyline
90
8
70
1
43
0.0
10
-21.574999999999982
20
70.987499999999983
42
0.41421356237310025
10
-21.075000000000017
20
70.487500000000011
10
-8.0750000000000455
20
70.487499999999955
42
0.41421356237304818
10
-7.5750000000000028
20
70.987499999999983
10
-7.5750000000000828
20
83.987499999999983
42
0.41421356237310025
10
-8.0750000000000455
20
84.487499999999969
10
-21.075000000000017
20
84.48750000000004
42
0.41421356237308982
10
-21.57500000000006
20
83.987499999999997
0
LWPOLYLINE
5
115
100
AcDbEntity
8
0
100
AcDbPolyline
90
8
70
1
43
0.0
10
-97.775000000000105
20
70.987499999999983
42
0.41421356237309503
10
-97.275000000000077
20
70.487499999999969
10
-84.275000000000105
20
70.487500000000011
42
0.41421356237310025
10
-83.775000000000119
20
70.987499999999983
10
-83.775000000000091
20
83.987499999999997
42
0.41421356237308982
10
-84.275000000000091
20
84.487500000000011
10
-97.275000000000077
20
84.487500000000011
42
0.41421356237310542
10
-97.775000000000048
20
83.987499999999997
0
LWPOLYLINE
5
116
100
AcDbEntity
8
0
100
AcDbPolyline
90
8
70
1
43
0.0
10
-46.175000000000104
20
70.487499999999955
42
0.41421356237311585
10
-45.675000000000026
20
70.987499999999983
10
-45.675000000000104
20
83.987499999999997
42
0.41421356237312101
10
-46.175000000000104
20
84.487499999999969
10
-59.17500000000004
20
84.487500000000011
42
0.41421356237313667
10
-59.675000000000118
20
83.987499999999997
10
-59.67500000000004
20
70.987499999999983
42
0.4142135623730378
10
-59.17500000000004
20
70.487500000000011
0
LWPOLYLINE
5
117
100
AcDbEntity
8
0
100
AcDbPolyline
90
8
70
1
43
0.0
10
-126.63750000000009
20
45.887500000000031
42
0.41421356237310542
10
-127.1375000000001
20
46.387500000000017
10
-140.13750000000013
20
46.387500000000017
42
0.41421356237309503
10
-140.6375000000001
20
45.887500000000031
10
-140.6375000000001
20
32.887500000000003
42
0.4142135623730534
10
-140.13750000000013
20
32.387499999999996
10
-127.1375000000001
20
32.387499999999996
42
0.41421356237309503
10
-126.63750000000009
20
32.887500000000003
0
LWPOLYLINE
5
118
100
AcDbEntity
8
0
100
AcDbPolyline
90
8
70
1
43
0.0
10
-92.512500000000045
20
65.4375
42
0.41421356237310025
10
-93.012500000000017
20
64.9375
10
-93.012500000000074
20
51.937500000000007
42
0.41421356237310542
10
-92.512500000000074
20
51.437499999999986
10
-79.512500000000088
20
51.437500000000007
42
0.414213562373069
10
-79.012500000000074
20
51.937500000000007
10
-79.01250000000006
20
64.9375
42
0.4142135623730378
10
-79.512500000000074
20
65.437500000000028
0
LWPOLYLINE
5
119
100
AcDbEntity
8
0
100
AcDbPolyline
90
8
70
1
43
0.0
10
-116.82500000000007
20
70.987499999999997
42
0.41421356237310025
10
-116.32500000000007
20
70.487499999999997
10
-103.32500000000009
20
70.487499999999997
42
0.41421356237309503
10
-102.8250000000001
20
70.987499999999983
10
-102.82500000000002
20
83.987500000000011
42
0.41421356237313667
10
-103.32500000000009
20
84.48750000000004
10
-116.32500000000007
20
84.487500000000011
42
0.4142135623730846
10
-116.82500000000005
20
83.987500000000011
0
LWPOLYLINE
5
120
100
AcDbEntity
8
0
100
AcDbPolyline
90
8
70
1
43
0.0
10
-36.150000000000091
20
103.03749999999999
42
0.41421356237315227
10
-36.650000000000098
20
103.53749999999997
10
-49.650000000000027
20
103.53750000000004
42
0.41421356237310802
10
-50.150000000000112
20
103.03750000000001
10
-50.150000000000034
20
90.037499999999994
42
0.41421356237304041
10
-49.650000000000034
20
89.537500000000023
10
-36.650000000000063
20
89.537500000000051
42
0.41421356237304302
10
-36.150000000000091
20
90.037499999999994
0
LWPOLYLINE
5
121
100
AcDbEntity
8
0
100
AcDbPolyline
90
8
70
1
43
0.0
10
55.631749999999933
20
52.937499999999986
42
-0.4142135623731783
10
55.131749999999933
20
52.437499999999915
10
49.131749999999954
20
52.4375
42
-0.41421356237312101
10
48.631749999999947
20
52.937499999999986
10
48.631749999999919
20
66.937499999999986
42
-0.41421356237312101
10
49.131749999999954
20
67.4375
10
55.131749999999933
20
67.437500000000014
42
-0.41421356237310542
10
55.63174999999994
20
66.937499999999986
0
LWPOLYLINE
5
122
100
AcDbEntity
8
0
100
AcDbPolyline
90
8
70
1
43
0.0
10
-17.10000000000008
20
90.037499999999994
10
-17.100000000000051
20
103.03749999999999
42
0.41421356237310025
10
-17.600000000000051
20
103.53750000000002
10
-30.600000000000023
20
103.53750000000002
42
0.41421356237308204
10
-31.100000000000065
20
103.03750000000001
10
-31.099999999999987
20
90.037499999999994
42
0.41421356237310281
10
-30.600000000000023
20
89.537500000000023
10
-17.600000000000051
20
89.53749999999998
42
0.41421356237307944
0
LWPOLYLINE
5
123
100
AcDbEntity
8
0
100
AcDbPolyline
90
8
70
1
43
0.0
10
-88.250000000000099
20
26.837499999999999
42
-0.41421356237307422
10
-87.750000000000085
20
27.337500000000006
10
-74.750000000000099
20
27.337500000000006
42
-0.41421356237309503
10
-74.250000000000099
20
26.837499999999999
10
-74.250000000000099
20
13.837500000000009
42
-0.41421356237307422
10
-74.750000000000099
20
13.337500000000002
10
-87.750000000000085
20
13.337500000000002
42
-0.4142135623730534
10
-88.250000000000099
20
13.837500000000009
0
LWPOLYLINE
5
124
100
AcDbEntity
8
0
100
AcDbPolyline
90
8
70
1
43
0.0
10
53.83749999999992
20
27.337499999999988
10
40.837499999999913
20
27.337499999999988
42
0.41421356237313667
10
40.337499999999906
20
26.837499999999981
10
40.33749999999992
20
13.837499999999991
42
0.41421356237314705
10
40.837499999999913
20
13.337499999999984
10
53.83749999999992
20
13.337499999999967
42
0.4142135623730846
10
54.337499999999963
20
13.837499999999991
10
54.337499999999963
20
26.837499999999981
42
0.41421356237307422
0
LWPOLYLINE
5
125
100
AcDbEntity
8
0
100
AcDbPolyline
90
8
70
1
43
0.0
10
-6.7875000000000796
20
27.337500000000023
42
0.4142135623730846
10
-7.2875000000000512
20
26.837499999999999
10
-7.2875000000000512
20
13.837500000000009
42
0.41421356237307422
10
-6.7875000000000796
20
13.337500000000002
10
6.2124999999999275
20
13.337499999999984
42
0.41421356237303258
10
6.7124999999999702
20
13.837499999999991
10
6.7124999999999524
20
26.837499999999981
42
0.4142135623730846
10
6.2124999999999275
20
27.337499999999988
0
LWPOLYLINE
5
126
100
AcDbEntity
8
0
100
AcDbPolyline
90
8
70
1
43
0.0
10
-12.049999999999992
20
90.037499999999994
42
0.41421356237313406
10
-11.550000000000082
20
89.537500000000023
10
1.4499999999999602
20
89.537500000000051
42
0.41421356237304302
10
1.9499999999999318
20
90.037499999999994
10
1.9499999999999318
20
103.03749999999999
42
0.41421356237315227
10
1.4499999999999247
20
103.53749999999997
10
-11.550000000000082
20
103.53750000000004
42
0.41421356237311324
10
-12.05000000000009
20
103.03750000000001
0
LWPOLYLINE
5
127
100
AcDbEntity
8
0
100
AcDbPolyline
90
8
70
1
43
0.0
10
33.693749999999945
20
51.437499999999972
10
46.693749999999952
20
51.437500000000007
42
0.41421356237312101
10
47.193749999999959
20
51.937499999999986
10
47.19374999999993
20
64.937499999999986
42
0.4142135623730222
10
46.693749999999952
20
65.437499999999986
10
33.693749999999945
20
65.4375
42
0.41421356237310025
10
33.193749999999937
20
64.937499999999986
10
33.193749999999952
20
51.937499999999986
42
0.41421356237311063
0
LWPOLYLINE
5
128
100
AcDbEntity
8
0
100
AcDbPolyline
90
8
70
1
43
0.0
10
40.837499999999913
20
70.487499999999969
10
53.83749999999992
20
70.487499999999969
42
0.41421356237307422
10
54.337499999999963
20
70.987499999999969
10
54.337499999999963
20
83.987499999999983
42
0.41421356237311063
10
53.83749999999992
20
84.487499999999983
10
40.837499999999913
20
84.487500000000011
42
0.41421356237310542
10
40.337499999999906
20
83.987499999999997
10
40.33749999999992
20
70.987499999999969
42
0.41421356237314705
0
LWPOLYLINE
5
129
100
AcDbEntity
8
0
100
AcDbPolyline
90
8
70
1
43
0.0
10
-93.800000000000097
20
103.53750000000002
10
-106.80000000000007
20
103.53749999999998
42
0.41421356237309764
10
-107.30000000000004
20
103.03750000000001
10
-107.30000000000004
20
90.037499999999994
42
0.4142135623730846
10
-106.80000000000007
20
89.537500000000009
10
-93.800000000000111
20
89.537500000000009
42
0.41421356237311063
10
-93.300000000000097
20
90.037499999999994
10
-93.300000000000097
20
103.03750000000001
42
0.41421356237309243
0
LWPOLYLINE
5
130
100
AcDbEntity
8
0
100
AcDbPolyline
90
8
70
1
43
0.0
10
-131.40000000000006
20
103.03750000000001
42
0.41421356237310542
10
-131.90000000000009
20
103.53750000000002
10
-144.90000000000006
20
103.53750000000002
42
0.41421356237311063
10
-145.40000000000006
20
103.03750000000001
10
-145.40000000000009
20
90.037500000000023
42
0.41421356237307422
10
-144.90000000000012
20
89.537500000000023
10
-131.90000000000009
20
89.537500000000009
42
0.41421356237313667
10
-131.40000000000009
20
90.037499999999994
0
LWPOLYLINE
5
131
100
AcDbEntity
8
0
100
AcDbPolyline
90
8
70
1
43
0.0
10
-20.600000000000041
20
14.837500000000006
42
-0.41421356237311585
10
-21.10000000000003
20
14.337499999999981
10
-27.10000000000008
20
14.337499999999981
42
-0.4142135623730846
10
-27.600000000000051
20
14.837500000000006
10
-27.600000000000051
20
28.9635
42
-0.41421356237310542
10
-27.10000000000008
20
29.463499999999989
10
-21.099999999999994
20
29.463499999999989
42
-0.41421356237310542
10
-20.600000000000023
20
28.9635
0
LWPOLYLINE
5
132
100
AcDbEntity
8
0
100
AcDbPolyline
90
8
70
1
43
0.0
10
-125.85000000000008
20
89.537500000000023
10
-112.85000000000009
20
89.537500000000009
42
0.41421356237311063
10
-112.35000000000007
20
90.037499999999994
10
-112.35000000000007
20
103.03750000000001
42
0.41421356237309243
10
-112.85000000000008
20
103.53750000000002
10
-125.85000000000008
20
103.53749999999998
42
0.41421356237309764
10
-126.35000000000005
20
103.03750000000001
10
-126.35000000000005
20
90.037499999999994
42
0.4142135623730846
0
LWPOLYLINE
5
133
100
AcDbEntity
8
0
100
AcDbPolyline
90
8
70
1
43
0.0
10
50.869250000000008
20
30.887499999999992
10
50.869249999999994
20
44.887499999999996
42
0.41421356237314705
10
50.369250000000001
20
45.387500000000003
10
44.369249999999951
20
45.387499999999989
42
0.4142135623730846
10
43.869249999999944
20
44.887499999999996
10
43.869249999999965
20
30.887499999999992
42
0.41421356237310542
10
44.369249999999951
20
30.387499999999985
10
50.369250000000001
20
30.387499999999985
42
0.41421356237313667
0
LWPOLYLINE
5
134
100
AcDbEntity
8
0
100
AcDbPolyline
90
8
70
1
43
0.0
10
26.993249999999911
20
30.887499999999992
10
26.993249999999929
20
44.887499999999996
42
0.4142135623730846
10
26.493249999999904
20
45.387500000000003
10
20.493249999999925
20
45.387500000000003
42
0.41421356237309503
10
19.993249999999918
20
44.887499999999996
10
19.993249999999936
20
30.887499999999992
42
0.41421356237314705
10
20.493249999999925
20
30.387499999999985
10
26.493249999999904
20
30.387499999999967
42
0.41421356237310542
0
LWPOLYLINE
5
135
100
AcDbEntity
8
0
100
AcDbPolyline
90
8
70
1
43
0.0
10
-141.40000000000012
20
14.337499999999999
42
-0.41421356237307422
10
-141.90000000000012
20
14.837500000000006
10
-141.90000000000012
20
28.9635
42
-0.4142135623730846
10
-141.40000000000012
20
29.463499999999989
10
-135.40000000000009
20
29.463499999999989
42
-0.41421356237310542
10
-134.90000000000006
20
28.9635
10
-134.89999999999998
20
14.837500000000006
42
-0.41421356237311585
10
-135.40000000000009
20
14.337499999999981
0
LWPOLYLINE
5
136
100
AcDbEntity
8
0
100
AcDbPolyline
90
8
70
1
43
0.0
10
24.755749999999921
20
52.937499999999993
10
24.755749999999928
20
66.9375
42
-0.41421356237313667
10
25.255749999999928
20
67.4375
10
31.255749999999978
20
67.437500000000028
42
-0.41421356237304818
10
31.755749999999949
20
66.937499999999986
10
31.755749999999949
20
52.937499999999986
42
-0.41421356237315227
10
31.255749999999978
20
52.437499999999915
10
25.255749999999928
20
52.437499999999972
42
-0.41421356237310542
0
LWPOLYLINE
5
137
100
AcDbEntity
8
0
100
AcDbPolyline
90
8
70
1
43
0.0
10
-136.16250000000011
20
51.937500000000014
10
-136.16250000000005
20
64.937500000000014
42
0.4142135623730378
10
-136.66250000000008
20
65.437500000000043
10
-149.66250000000008
20
65.4375
42
0.41421356237307422
10
-150.16250000000008
20
64.937500000000014
10
-150.16250000000011
20
51.937500000000014
42
0.41421356237309503
10
-149.66250000000008
20
51.437500000000014
10
-136.66250000000008
20
51.437500000000014
42
0.41421356237308982
0
LWPOLYLINE
5
138
100
AcDbEntity
8
0
100
AcDbPolyline
90
8
70
1
43
0.0
10
2.7374999999999261
20
51.437500000000028
10
15.737499999999933
20
51.437499999999936
42
0.4142135623730846
10
16.237500000000011
20
51.9375
10
16.23749999999994
20
64.9375
42
0.41421356237316787
10
15.737499999999933
20
65.437499999999986
10
2.7374999999999261
20
65.437499999999943
42
0.41421356237299617
10
2.2374999999998835
20
64.9375
10
2.2374999999999634
20
51.9375
42
0.41421356237310025
0
LWPOLYLINE
5
139
100
AcDbEntity
8
0
100
AcDbPolyline
90
8
70
1
43
0.0
10
-41.41250000000003
20
51.437500000000036
42
0.41421356237302737
10
-40.912500000000023
20
51.9375
10
-40.912500000000037
20
64.9375
42
0.41421356237309503
10
-41.41250000000003
20
65.437499999999986
10
-54.412500000000072
20
65.437500000000014
42
0.41421356237307944
10
-54.912500000000115
20
64.9375
10
-54.912500000000072
20
51.937500000000007
42
0.41421356237312101
10
-54.412500000000072
20
51.437500000000036
0
LWPOLYLINE
5
140
100
AcDbEntity
8
0
100
AcDbPolyline
90
8
70
1
43
0.0
10
-159.18750000000011
20
32.387500000000031
10
-146.18750000000009
20
32.387500000000003
42
0.41421356237310542
10
-145.68750000000009
20
32.887500000000003
10
-145.68750000000011
20
45.887500000000031
42
0.41421356237309503
10
-146.18750000000009
20
46.387499999999982
10
-159.18750000000009
20
46.387500000000024
42
0.41421356237310542
10
-159.68750000000009
20
45.887500000000045
10
-159.68750000000006
20
32.887500000000017
42
0.41421356237311063
0
LWPOLYLINE
5
141
100
AcDbEntity
8
0
100
AcDbPolyline
90
8
70
1
43
0.0
10
-200.95625000000013
20
51.437500000000028
42
0.41421356237307161
10
-200.45625000000007
20
51.937500000000021
10
-200.45625000000007
20
64.937500000000014
42
0.41421356237309764
10
-200.9562500000001
20
65.437500000000014
10
-218.71875000000006
20
65.437500000000014
42
0.41421356237310542
10
-219.21875000000011
20
64.937500000000028
10
-219.21875000000011
20
51.937500000000021
42
0.41421356237309698
10
-218.71875000000011
20
51.437500000000028
0
LWPOLYLINE
5
142
100
AcDbEntity
8
0
100
AcDbPolyline
90
8
70
1
43
0.0
10
-55.200000000000138
20
90.037499999999994
10
-55.200000000000074
20
103.03749999999999
42
0.41421356237310025
10
-55.700000000000074
20
103.53750000000002
10
-68.70000000000006
20
103.53749999999999
42
0.41421356237308982
10
-69.200000000000031
20
103.03750000000001
10
-69.200000000000074
20
90.037500000000023
42
0.41421356237311063
10
-68.70000000000006
20
89.537499999999966
10
-55.700000000000074
20
89.537500000000023
42
0.41421356237303258
0
LWPOLYLINE
5
143
100
AcDbEntity
8
0
100
AcDbPolyline
90
8
70
1
43
0.0
10
-82.987500000000111
20
46.387500000000017
42
0.41421356237310542
10
-83.487500000000111
20
45.887500000000031
10
-83.487500000000111
20
32.887500000000003
42
0.41421356237309503
10
-82.987500000000111
20
32.387499999999996
10
-69.987500000000097
20
32.387499999999996
42
0.41421356237309503
10
-69.487500000000054
20
32.887500000000003
10
-69.48750000000004
20
45.887500000000031
42
0.41421356237307422
10
-69.987500000000097
20
46.387500000000017
0
LWPOLYLINE
5
144
100
AcDbEntity
8
0
100
AcDbPolyline
90
4
70
1
43
0.0
10
-197.1687500000001
20
59.589999999999918
42
-0.99999999999999989
10
-193.1687500000001
20
59.590000000000025
10
-193.1687500000001
20
57.05000000000004
42
-0.99999999999999989
10
-197.1687500000001
20
57.050000000000018
0
LWPOLYLINE
5
145
100
AcDbEntity
8
0
100
AcDbPolyline
90
8
70
1
43
0.0
10
-187.25575000000009
20
30.887500000000028
10
-187.25575000000015
20
44.887500000000024
42
0.41421356237308721
10
-187.75575000000009
20
45.387500000000003
10
-193.75575000000009
20
45.387500000000038
42
0.41421356237307161
10
-194.25575000000009
20
44.887500000000031
10
-194.25575000000009
20
30.887500000000028
42
0.41421356237310542
10
-193.75575000000009
20
30.387500000000021
10
-187.75575000000009
20
30.387500000000021
42
0.41421356237309503
0
LWPOLYLINE
5
146
100
AcDbEntity
8
0
100
AcDbPolyline
90
8
70
1
43
0.0
10
-40.125000000000064
20
113.34999999999999
10
-27.125000000000057
20
113.35000000000001
42
0.41421356237312362
10
-26.62500000000005
20
113.84999999999999
10
-26.625000000000057
20
126.84999999999999
42
0.41421356237310153
10
-27.125000000000057
20
127.35000000000001
10
-40.125000000000064
20
127.35000000000001
42
0.41421356237310053
10
-40.625000000000071
20
126.85000000000001
10
-40.625000000000057
20
113.84999999999999
42
0.41421356237314577
0
LWPOLYLINE
5
147
100
AcDbEntity
8
0
100
AcDbPolyline
90
8
70
1
43
0.0
10
-202.83750000000012
20
83.987500000000011
42
0.41421356237310281
10
-203.33750000000009
20
84.487500000000026
10
-216.33750000000006
20
84.487500000000011
42
0.41421356237307422
10
-216.83750000000009
20
83.98750000000004
10
-216.83750000000009
20
70.987500000000011
42
0.41421356237310414
10
-216.33750000000009
20
70.487500000000011
10
-203.33750000000012
20
70.487500000000011
42
0.41421356237311063
10
-202.83750000000009
20
70.987500000000011
0
LWPOLYLINE
5
148
100
AcDbEntity
8
0
100
AcDbPolyline
90
8
70
1
43
0.0
10
-188.26250000000005
20
51.937500000000014
42
0.41421356237310542
10
-187.76250000000007
20
51.437500000000014
10
-174.76250000000007
20
51.437500000000014
42
0.41421356237309503
10
-174.2625000000001
20
51.937500000000014
10
-174.2625000000001
20
64.937500000000014
42
0.4142135623730846
10
-174.76250000000007
20
65.437500000000014
10
-187.76250000000007
20
65.437500000000014
42
0.41421356237310802
10
-188.2625000000001
20
64.937500000000028
0
LWPOLYLINE
5
149
100
AcDbEntity
8
0
100
AcDbPolyline
90
8
70
1
43
0.0
10
-221.60000000000008
20
103.03750000000002
10
-221.60000000000008
20
90.037500000000037
42
0.41421356237309209
10
-221.10000000000011
20
89.537500000000009
10
-208.10000000000008
20
89.537500000000009
42
0.4142135623730937
10
-207.60000000000008
20
90.037500000000023
10
-207.60000000000008
20
103.03750000000002
42
0.41421356237309115
10
-208.10000000000008
20
103.53750000000002
10
-221.10000000000011
20
103.53750000000002
42
0.4142135623730957
0
LWPOLYLINE
5
150
100
AcDbEntity
8
0
100
AcDbPolyline
90
8
70
1
43
0.0
10
-64.437500000000099
20
45.887500000000031
10
-64.437500000000085
20
32.887500000000003
42
0.41421356237309503
10
-63.937500000000078
20
32.387499999999996
10
-50.937500000000071
20
32.387499999999974
42
0.41421356237310542
10
-50.437500000000064
20
32.887500000000003
10
-50.437500000000064
20
45.887500000000031
42
0.41421356237304302
10
-50.937500000000071
20
46.387500000000017
10
-63.937500000000078
20
46.387500000000003
42
0.41421356237311585
0
LWPOLYLINE
5
151
100
AcDbEntity
8
0
100
AcDbPolyline
90
8
70
1
43
0.0
10
-169.50000000000011
20
126.85000000000002
42
0.41421356237310902
10
-170.00000000000006
20
127.35000000000001
10
-183.00000000000009
20
127.35000000000002
42
0.41421356237309243
10
-183.50000000000009
20
126.85000000000002
10
-183.50000000000009
20
113.85000000000002
42
0.41421356237307422
10
-183.00000000000009
20
113.35000000000002
10
-170.00000000000006
20
113.35000000000001
42
0.41421356237310281
10
-169.50000000000011
20
113.85000000000002
0
LWPOLYLINE
5
152
100
AcDbEntity
8
0
100
AcDbPolyline
90
8
70
1
43
0.0
10
-221.60000000000011
20
126.85000000000002
42
-0.41421356237309437
10
-221.10000000000011
20
127.35000000000002
10
-208.10000000000008
20
127.35000000000002
42
-0.4142135623730937
10
-207.60000000000008
20
126.85000000000002
10
-207.60000000000008
20
113.85000000000002
42
-0.4142135623730937
10
-208.10000000000008
20
113.35000000000002
10
-221.10000000000011
20
113.35000000000001
42
-0.4142135623730957
10
-221.60000000000008
20
113.85000000000002
0
LWPOLYLINE
5
153
100
AcDbEntity
8
0
100
AcDbPolyline
90
8
70
1
43
0.0
10
33.636999999999979
20
102.53749999999999
10
27.636999999999929
20
102.53749999999998
42
0.41421356237312623
10
27.136999999999922
20
102.03749999999999
10
27.136999999999922
20
88.037500000000009
42
0.41421356237301699
10
27.636999999999929
20
87.53749999999998
10
33.636999999999979
20
87.537499999999966
42
0.41421356237310025
10
34.136999999999986
20
88.037499999999994
10
34.136999999999972
20
102.03749999999999
42
0.41421356237314444
0
LWPOLYLINE
5
154
100
AcDbEntity
8
0
100
AcDbPolyline
90
8
70
1
43
0.0
10
-145.40000000000009
20
113.85000000000002
10
-145.40000000000009
20
126.85000000000002
42
-0.41421356237307522
10
-144.90000000000009
20
127.35000000000001
10
-131.90000000000009
20
127.35000000000001
42
-0.41421356237312074
10
-131.40000000000009
20
126.85000000000002
10
-131.40000000000009
20
113.85000000000002
42
-0.41421356237305729
10
-131.90000000000009
20
113.35000000000001
10
-144.90000000000009
20
113.35000000000002
42
-0.41421356237310153
0
LWPOLYLINE
5
155
100
AcDbEntity
8
0
100
AcDbPolyline
90
8
70
1
43
0.0
10
87.962499999999892
20
45.88750000000001
10
87.96249999999992
20
32.887499999999989
42
0.41421356237310542
10
88.462499999999906
20
32.387499999999974
10
101.46249999999988
20
32.387500000000017
42
0.41421356237313667
10
101.96249999999992
20
32.887499999999989
10
101.96249999999981
20
45.88750000000001
42
0.4142135623730222
10
101.46249999999988
20
46.38749999999996
10
88.462499999999906
20
46.387499999999982
42
0.41421356237311585
0
LWPOLYLINE
5
156
100
AcDbEntity
8
0
100
AcDbPolyline
90
8
70
1
43
0.0
10
-154.42500000000007
20
84.487500000000011
42
0.4142135623730846
10
-154.9250000000001
20
83.987500000000011
10
-154.92500000000007
20
70.987499999999997
42
0.41421356237311063
10
-154.4250000000001
20
70.487500000000011
10
-141.42500000000007
20
70.487500000000011
42
0.41421356237309503
10
-140.92500000000007
20
70.987499999999997
10
-140.92500000000004
20
83.987500000000011
42
0.41421356237301699
10
-141.42500000000007
20
84.48750000000004
0
LWPOLYLINE
5
157
100
AcDbEntity
8
0
100
AcDbPolyline
90
8
70
1
43
0.0
10
-65.22500000000008
20
70.487500000000011
42
0.414213562373069
10
-64.725000000000122
20
70.987499999999983
10
-64.72500000000008
20
83.987499999999997
42
0.41421356237308982
10
-65.22500000000008
20
84.487500000000011
10
-78.225000000000065
20
84.487500000000011
42
0.41421356237310542
10
-78.725000000000037
20
83.987499999999997
10
-78.725000000000136
20
70.987499999999983
42
0.41421356237311063
10
-78.225000000000065
20
70.487499999999969
0
LWPOLYLINE
5
158
100
AcDbEntity
8
0
100
AcDbPolyline
90
8
70
1
43
0.0
10
-169.50000000000011
20
90.037500000000023
10
-169.50000000000011
20
103.03750000000001
42
0.41421356237311063
10
-170.00000000000006
20
103.53750000000002
10
-183.00000000000011
20
103.53750000000002
42
0.41421356237309764
10
-183.50000000000009
20
103.03750000000002
10
-183.50000000000009
20
90.037500000000023
42
0.41421356237311324
10
-183.00000000000011
20
89.537500000000023
10
-170.00000000000006
20
89.537499999999994
42
0.41421356237310025
0
LWPOLYLINE
5
159
100
AcDbEntity
8
0
100
AcDbPolyline
90
8
70
1
43
0.0
10
20.99999999999994
20
103.03749999999999
42
0.41421356237309243
10
20.499999999999972
20
103.53749999999997
10
7.4999999999999289
20
103.53750000000004
42
0.41421356237311324
10
6.9999999999999218
20
103.03750000000001
10
7.0000000000000329
20
90.037499999999994
42
0.41421356237310025
10
7.4999999999999289
20
89.537500000000023
10
20.499999999999972
20
89.537500000000023
42
0.41421356237309503
10
20.999999999999943
20
90.037499999999994
0
LWPOLYLINE
5
160
100
AcDbEntity
8
0
100
AcDbPolyline
90
8
70
1
43
0.0
10
-217.63175000000012
20
30.387500000000021
10
-211.6317500000001
20
30.387500000000021
42
0.41421356237309503
10
-211.1317500000001
20
30.887500000000028
10
-211.13175000000007
20
44.887500000000031
42
0.41421356237307555
10
-211.6317500000001
20
45.387500000000038
10
-217.63175000000007
20
45.387500000000038
42
0.41421356237307422
10
-218.13175000000012
20
44.887500000000031
10
-218.13175000000007
20
30.887500000000028
42
0.41421356237310608
0
LWPOLYLINE
5
161
100
AcDbEntity
8
0
100
AcDbPolyline
90
8
70
1
43
0.0
10
51.512999999999955
20
87.537499999999966
10
57.512999999999899
20
87.537499999999966
42
0.41421356237310025
10
58.012999999999906
20
88.037499999999994
10
58.012999999999892
20
102.03749999999998
42
0.41421356237314444
10
57.512999999999899
20
102.53749999999999
10
51.512999999999963
20
102.53749999999999
42
0.41421356237307683
10
51.012999999999913
20
102.03749999999999
10
51.012999999999906
20
88.037499999999994
42
0.41421356237307422
0
LWPOLYLINE
5
162
100
AcDbEntity
8
0
100
AcDbPolyline
90
8
70
1
43
0.0
10
41.931249999999913
20
46.387500000000003
10
28.931249999999977
20
46.387499999999982
42
0.41421356237311585
10
28.43124999999997
20
45.88750000000001
10
28.431249999999988
20
32.887499999999989
42
0.41421356237310542
10
28.931249999999977
20
32.387499999999974
10
41.931249999999913
20
32.387499999999974
42
0.41421356237313667
10
42.43124999999992
20
32.887499999999989
10
42.43124999999992
20
45.88750000000001
42
0.41421356237312623
0
LWPOLYLINE
5
163
100
AcDbEntity
8
0
100
AcDbPolyline
90
8
70
1
43
0.0
10
88.462499999999906
20
70.487499999999969
10
101.46249999999988
20
70.487499999999983
42
0.41421356237318868
10
101.96249999999985
20
70.987499999999969
10
101.96249999999984
20
83.987499999999983
42
0.4142135623730222
10
101.46249999999988
20
84.487499999999969
10
88.46249999999992
20
84.487499999999969
42
0.41421356237312101
10
87.962499999999892
20
83.987499999999997
10
87.962499999999878
20
70.987499999999969
42
0.41421356237312623
0
LWPOLYLINE
5
164
100
AcDbEntity
8
0
100
AcDbPolyline
90
8
70
1
43
0.0
10
-59.962500000000034
20
51.937500000000007
10
-59.962500000000119
20
64.9375
42
0.4142135623730534
10
-60.462500000000041
20
65.4375
10
-73.462500000000091
20
65.4375
42
0.4142135623730846
10
-73.96250000000002
20
64.9375
10
-73.962500000000105
20
51.937500000000007
42
0.41421356237310542
10
-73.462500000000105
20
51.437499999999986
10
-60.462500000000041
20
51.437500000000043
42
0.41421356237302737
0
LWPOLYLINE
5
165
100
AcDbEntity
8
0
100
AcDbPolyline
90
8
70
1
43
0.0
10
-84.275000000000091
20
113.35000000000001
42
0.41421356237309503
10
-83.775000000000091
20
113.85000000000002
10
-83.775000000000091
20
126.85000000000001
42
0.41421356237309437
10
-84.275000000000091
20
127.35000000000001
10
-97.275000000000077
20
127.35000000000001
42
0.41421356237307422
10
-97.775000000000091
20
126.85000000000001
10
-97.775000000000091
20
113.84999999999999
42
0.41421356237307555
10
-97.275000000000077
20
113.35000000000001
0
LWPOLYLINE
5
166
100
AcDbEntity
8
0
100
AcDbPolyline
90
8
70
1
43
0.0
10
-11.550000000000082
20
127.34999999999998
42
0.41421356237312335
10
-12.05000000000009
20
126.85000000000001
10
-12.050000000000111
20
113.84999999999999
42
0.41421356237312362
10
-11.550000000000082
20
113.34999999999999
10
1.4499999999999247
20
113.34999999999999
42
0.41421356237309892
10
1.9499999999999318
20
113.84999999999999
10
1.9499999999999167
20
126.84999999999999
42
0.41421356237314544
10
1.4499999999999247
20
127.35000000000001
0
LWPOLYLINE
5
167
100
AcDbEntity
8
0
100
AcDbPolyline
90
8
70
1
43
0.0
10
-163.9500000000001
20
127.35000000000001
10
-150.9500000000001
20
127.35000000000002
42
-0.41421356237309664
10
-150.4500000000001
20
126.85000000000002
10
-150.4500000000001
20
113.85000000000002
42
-0.41421356237309631
10
-150.9500000000001
20
113.35000000000001
10
-163.9500000000001
20
113.35000000000001
42
-0.41421356237309764
10
-164.45000000000007
20
113.85000000000002
10
-164.4500000000001
20
126.85000000000002
42
-0.41421356237309698
0
LWPOLYLINE
5
168
100
AcDbEntity
8
0
100
AcDbPolyline
90
8
70
1
43
0.0
10
-193.02500000000009
20
83.98750000000004
10
-193.02500000000009
20
70.987500000000011
42
0.41421356237307944
10
-192.52500000000009
20
70.487500000000011
10
-179.52500000000009
20
70.487500000000011
42
0.41421356237309503
10
-179.02500000000009
20
70.987499999999997
10
-179.02500000000006
20
83.987500000000011
42
0.41421356237309503
10
-179.52500000000009
20
84.487500000000011
10
-192.52500000000012
20
84.487500000000026
42
0.41421356237308204
0
LWPOLYLINE
5
169
100
AcDbEntity
8
0
100
AcDbPolyline
90
8
70
1
43
0.0
10
-150.9500000000001
20
89.537499999999994
42
0.41421356237309243
10
-150.4500000000001
20
90.037500000000023
10
-150.4500000000001
20
103.03750000000002
42
0.41421356237309764
10
-150.9500000000001
20
103.53750000000002
10
-163.9500000000001
20
103.53750000000002
42
0.41421356237308204
10
-164.45000000000007
20
103.03750000000001
10
-164.45000000000007
20
90.037500000000023
42
0.41421356237309503
10
-163.9500000000001
20
89.537500000000023
0
LWPOLYLINE
5
170
100
AcDbEntity
8
0
100
AcDbPolyline
90
8
70
1
43
0.0
10
-65.22500000000008
20
113.34999999999999
42
0.41421356237309503
10
-64.72500000000008
20
113.84999999999999
10
-64.72500000000008
20
126.85000000000001
42
0.41421356237309437
10
-65.22500000000008
20
127.35000000000001
10
-78.225000000000065
20
127.35000000000001
42
0.41421356237307422
10
-78.72500000000008
20
126.85000000000001
10
-78.72500000000008
20
113.84999999999999
42
0.41421356237307555
10
-78.225000000000065
20
113.35000000000001
0
LWPOLYLINE
5
171
100
AcDbEntity
8
0
100
AcDbPolyline
90
8
70
1
43
0.0
10
-155.21250000000009
20
64.937500000000014
42
0.4142135623730846
10
-155.71250000000009
20
65.437500000000014
10
-168.71250000000006
20
65.437500000000014
42
0.41421356237313145
10
-169.21250000000009
20
64.937500000000014
10
-169.21250000000009
20
51.937500000000014
42
0.41421356237307944
10
-168.71250000000006
20
51.437500000000014
10
-155.71250000000009
20
51.437500000000014
42
0.41421356237309503
10
-155.21250000000009
20
51.937500000000014
0
LWPOLYLINE
5
172
100
AcDbEntity
8
0
100
AcDbPolyline
90
8
70
1
43
0.0
10
30.524999999999942
20
83.987499999999983
42
0.41421356237310025
10
30.024999999999977
20
84.487499999999969
10
17.02499999999997
20
84.487499999999926
42
0.41421356237303258
10
16.524999999999928
20
83.987499999999997
10
16.524999999999956
20
70.987499999999983
42
0.41421356237315227
10
17.02499999999997
20
70.487500000000011
10
30.024999999999977
20
70.48749999999994
42
0.41421356237311063
10
30.524999999999984
20
70.987499999999969
0
LWPOLYLINE
5
173
100
AcDbEntity
8
0
100
AcDbPolyline
90
8
70
1
43
0.0
10
40.04999999999999
20
126.84999999999999
10
40.050000000000011
20
113.84999999999999
42
-0.41421356237310542
10
39.549999999999947
20
113.34999999999999
10
26.54999999999994
20
113.35000000000001
42
-0.41421356237312235
10
26.049999999999933
20
113.84999999999999
10
26.049999999999912
20
126.85000000000001
42
-0.4142135623731204
10
26.54999999999994
20
127.34999999999999
10
39.549999999999983
20
127.35000000000001
42
-0.41421356237306384
0
LWPOLYLINE
5
174
100
AcDbEntity
8
0
100
AcDbPolyline
90
8
70
1
43
0.0
10
-188.55000000000007
20
103.03750000000001
42
0.41421356237309243
10
-189.05000000000007
20
103.53750000000002
10
-202.0500000000001
20
103.53750000000002
42
0.41421356237308721
10
-202.5500000000001
20
103.03750000000002
10
-202.5500000000001
20
90.037500000000023
42
0.41421356237308721
10
-202.0500000000001
20
89.537500000000023
10
-189.05000000000007
20
89.537500000000023
42
0.4142135623730846
10
-188.55000000000007
20
90.037500000000023
0
LWPOLYLINE
5
175
100
AcDbEntity
8
0
100
AcDbPolyline
90
8
70
1
43
0.0
10
11.474999999999937
20
83.987499999999997
42
0.41421356237315748
10
10.97499999999993
20
84.487499999999969
10
-2.0250000000000767
20
84.487499999999926
42
0.4142135623730534
10
-2.5250000000000838
20
83.987499999999997
10
-2.525000000000075
20
70.987499999999983
42
0.4142135623730378
10
-2.0250000000000767
20
70.487500000000011
10
10.97499999999993
20
70.487499999999969
42
0.41421356237307944
10
11.474999999999973
20
70.987499999999983
0
LWPOLYLINE
5
176
100
AcDbEntity
8
0
100
AcDbPolyline
90
8
70
1
43
0.0
10
7.4999999999999289
20
113.35000000000001
42
-0.41421356237312235
10
6.9999999999999218
20
113.84999999999999
10
6.9999999999999023
20
126.85000000000001
42
-0.4142135623731204
10
7.4999999999999289
20
127.34999999999999
10
20.499999999999972
20
127.34999999999999
42
-0.41421356237307355
10
20.999999999999943
20
126.84999999999999
10
20.999999999999925
20
113.84999999999999
42
-0.41421356237308332
10
20.499999999999972
20
113.34999999999999
0
LWPOLYLINE
5
177
100
AcDbEntity
8
0
100
AcDbPolyline
90
8
70
1
43
0.0
10
-74.250000000000085
20
90.037499999999994
10
-74.250000000000085
20
103.03750000000001
42
0.41421356237309243
10
-74.750000000000085
20
103.53750000000002
10
-87.750000000000071
20
103.53749999999999
42
0.41421356237307944
10
-88.250000000000043
20
103.03750000000001
10
-88.250000000000085
20
90.037500000000023
42
0.41421356237311063
10
-87.750000000000071
20
89.537499999999966
10
-74.750000000000085
20
89.537500000000009
42
0.41421356237311063
0
LWPOLYLINE
5
178
100
AcDbEntity
8
0
100
AcDbPolyline
90
7
70
1
43
0.0
10
-59.17500000000004
20
113.34999999999999
42
-0.41421356237307422
10
-59.675000000000082
20
113.84999999999999
10
-59.67500000000009
20
126.85000000000001
42
-0.41421356237310414
10
-59.17500000000004
20
127.35000000000001
10
-45.675000000000097
20
127.35000000000001
10
-45.675000000000111
20
113.84999999999999
42
-0.41421356237314577
10
-46.175000000000104
20
113.35000000000001
0
LWPOLYLINE
5
179
100
AcDbEntity
8
0
100
AcDbPolyline
90
8
70
1
43
0.0
10
-216.33750000000009
20
13.33750000000002
10
-203.33750000000012
20
13.337500000000016
42
0.41421356237307161
10
-202.83750000000009
20
13.837500000000027
10
-202.83750000000012
20
26.837500000000016
42
0.41421356237310542
10
-203.33750000000009
20
27.337500000000023
10
-216.33750000000009
20
27.337500000000023
42
0.4142135623730937
10
-216.83750000000009
20
26.837500000000016
10
-216.83750000000009
20
13.837500000000029
42
0.41421356237307488
0
LWPOLYLINE
5
180
100
AcDbEntity
8
0
100
AcDbPolyline
90
8
70
1
43
0.0
10
87.962499999999892
20
13.837499999999991
10
87.96249999999992
20
26.837499999999981
42
-0.41421356237310542
10
88.462499999999906
20
27.337499999999988
10
101.46249999999988
20
27.337500000000006
42
-0.4142135623732095
10
101.96249999999985
20
26.837499999999981
10
101.96249999999993
20
13.837499999999991
42
-0.41421356237306384
10
101.46249999999988
20
13.337499999999984
10
88.462499999999906
20
13.337500000000002
42
-0.4142135623730846
0
LWPOLYLINE
5
181
100
AcDbEntity
8
0
100
AcDbPolyline
90
8
70
1
43
0.0
10
120.51249999999989
20
127.34999999999997
10
107.51249999999992
20
127.34999999999997
42
0.41421356237305018
10
107.01250000000002
20
126.84999999999999
10
107.01249999999999
20
113.84999999999998
42
0.41421356237311846
10
107.51249999999992
20
113.35000000000001
10
120.51249999999989
20
113.34999999999999
42
0.41421356237319257
10
121.01249999999986
20
113.84999999999998
10
121.01249999999985
20
126.84999999999997
42
0.41421356237301926
0
LWPOLYLINE
5
182
100
AcDbEntity
8
0
100
AcDbPolyline
90
8
70
1
43
0.0
10
35.574999999999903
20
103.03749999999999
10
35.574999999999925
20
90.037499999999994
42
0.41421356237311063
10
36.07499999999991
20
89.53749999999998
10
49.07499999999991
20
89.53749999999998
42
0.41421356237313928
10
49.574999999999925
20
90.03749999999998
10
49.574999999999918
20
103.03749999999999
42
0.41421356237310025
10
49.074999999999918
20
103.53749999999999
10
36.07499999999991
20
103.53750000000002
42
0.41421356237310025
0
LWPOLYLINE
5
183
100
AcDbEntity
8
0
100
AcDbPolyline
90
8
70
1
43
0.0
10
-196.19375000000008
20
46.387500000000031
10
-209.19375000000005
20
46.387500000000017
42
0.41421356237309243
10
-209.69375000000011
20
45.887500000000045
10
-209.69375000000008
20
32.887500000000024
42
0.41421356237310414
10
-209.19375000000008
20
32.387500000000017
10
-196.19375000000014
20
32.387500000000017
42
0.41421356237311846
10
-195.69375000000008
20
32.887500000000017
10
-195.69375000000008
20
45.887500000000045
42
0.41421356237308982
0
LWPOLYLINE
5
184
100
AcDbEntity
8
0
100
AcDbPolyline
90
8
70
1
43
0.0
10
-160.47500000000008
20
84.487500000000011
10
-173.47500000000008
20
84.487500000000011
42
0.4142135623730846
10
-173.97500000000008
20
83.987500000000011
10
-173.97500000000008
20
70.987499999999997
42
0.41421356237311063
10
-173.47500000000008
20
70.487500000000011
10
-160.47500000000011
20
70.487500000000011
42
0.41421356237307422
10
-159.97500000000008
20
70.987499999999997
10
-159.97500000000008
20
83.987499999999997
42
0.41421356237311063
0
LWPOLYLINE
5
185
100
AcDbEntity
8
0
100
AcDbPolyline
90
8
70
1
43
0.0
10
82.412499999999937
20
27.337499999999988
10
69.412499999999966
20
27.337500000000006
42
0.41421356237310542
10
68.912499999999966
20
26.837499999999981
10
68.912499999999937
20
13.837499999999991
42
0.4142135623730846
10
69.412499999999966
20
13.337499999999984
10
82.412499999999937
20
13.337500000000002
42
0.4142135623730846
10
82.912499999999937
20
13.837499999999991
10
82.912499999999923
20
26.837499999999981
42
0.41421356237310542
0
LWPOLYLINE
5
186
100
AcDbEntity
8
0
100
AcDbPolyline
90
8
70
1
43
0.0
10
69.412499999999966
20
127.34999999999998
42
0.41421356237312335
10
68.912499999999966
20
126.84999999999999
10
68.912499999999937
20
113.84999999999999
42
0.41421356237312362
10
69.412499999999966
20
113.34999999999997
10
82.412499999999937
20
113.35000000000001
42
0.41421356237312362
10
82.912499999999937
20
113.84999999999998
10
82.912499999999923
20
126.84999999999999
42
0.41421356237310153
10
82.412499999999937
20
127.34999999999999
0
LWPOLYLINE
5
187
100
AcDbEntity
8
0
100
AcDbPolyline
90
8
70
1
43
0.0
10
107.01249999999987
20
26.837499999999981
10
107.0125
20
13.837499999999991
42
0.41421356237312623
10
107.51249999999992
20
13.33750000000002
10
120.51249999999989
20
13.337499999999967
42
0.41421356237312623
10
121.0125
20
13.837499999999991
10
121.01249999999985
20
26.837499999999981
42
0.4142135623730222
10
120.51249999999989
20
27.337499999999952
10
107.51249999999992
20
27.337499999999952
42
0.41421356237313667
0
LWPOLYLINE
5
188
100
AcDbEntity
8
0
100
AcDbPolyline
90
8
70
1
43
0.0
10
107.01250000000002
20
103.03749999999999
10
107.01249999999999
20
90.03749999999998
42
0.41421356237311585
10
107.51249999999992
20
89.537499999999994
10
120.51249999999989
20
89.537499999999994
42
0.41421356237319129
10
121.01249999999986
20
90.03749999999998
10
121.01249999999985
20
103.03749999999997
42
0.41421356237301699
10
120.51249999999989
20
103.53749999999994
10
107.51249999999992
20
103.53749999999994
42
0.41421356237305079
0
LWPOLYLINE
5
189
100
AcDbEntity
8
0
100
AcDbPolyline
90
8
70
1
43
0.0
10
101.96249999999998
20
113.84999999999999
42
-0.41421356237312362
10
101.46249999999988
20
113.34999999999997
10
88.462499999999906
20
113.35000000000001
42
-0.41421356237312235
10
87.962499999999892
20
113.84999999999998
10
87.962499999999878
20
126.84999999999999
42
-0.4142135623731204
10
88.462499999999906
20
127.34999999999999
10
101.46249999999988
20
127.34999999999998
42
-0.41421356237319223
10
101.96249999999985
20
126.84999999999999
0
LWPOLYLINE
5
190
100
AcDbEntity
8
0
100
AcDbPolyline
90
8
70
1
43
0.0
10
82.912499999999937
20
103.03749999999999
42
0.41421356237310025
10
82.412499999999937
20
103.53749999999999
10
69.41249999999998
20
103.53749999999998
42
0.41421356237312362
10
68.912499999999966
20
103.03749999999999
10
68.912499999999966
20
90.03749999999998
42
0.41421356237301177
10
69.412499999999966
20
89.53749999999998
10
82.412499999999937
20
89.53749999999998
42
0.41421356237313928
10
82.912499999999937
20
90.03749999999998
0
LWPOLYLINE
5
191
100
AcDbEntity
8
0
100
AcDbPolyline
90
8
70
1
43
0.0
10
101.96249999999985
20
90.03749999999998
10
101.96249999999984
20
103.03749999999997
42
0.41421356237301699
10
101.46249999999988
20
103.53749999999994
10
88.462499999999906
20
103.53749999999998
42
0.41421356237312362
10
87.962499999999892
20
103.03749999999999
10
87.962499999999892
20
90.03749999999998
42
0.41421356237301177
10
88.462499999999906
20
89.53749999999998
10
101.46249999999988
20
89.537499999999994
42
0.41421356237319129
0
LWPOLYLINE
5
192
100
AcDbEntity
8
0
100
AcDbPolyline
90
8
70
1
43
0.0
10
45.099999999999945
20
126.84999999999999
10
45.099999999999923
20
113.84999999999999
42
0.41421356237312362
10
45.599999999999952
20
113.34999999999999
10
58.599999999999959
20
113.34999999999997
42
0.41421356237309892
10
59.099999999999966
20
113.84999999999998
10
59.099999999999952
20
126.84999999999999
42
0.41421356237314544
10
58.599999999999959
20
127.34999999999999
10
45.599999999999952
20
127.34999999999998
42
0.41421356237312335
0
LWPOLYLINE
5
193
100
AcDbEntity
8
0
100
AcDbPolyline
90
8
70
1
43
0.0
10
107.01250000000002
20
83.987499999999983
10
107.01249999999999
20
70.987499999999969
42
0.41421356237312101
10
107.51249999999992
20
70.487499999999997
10
120.51249999999989
20
70.487499999999969
42
0.41421356237318868
10
121.01249999999986
20
70.987499999999969
10
121.01249999999985
20
83.987499999999983
42
0.4142135623730222
10
120.51249999999989
20
84.487499999999955
10
107.51249999999993
20
84.487499999999926
42
0.41421356237304818
0
LWPOLYLINE
5
194
100
AcDbEntity
8
0
100
AcDbPolyline
90
8
70
1
43
0.0
10
-178.73750000000007
20
32.887500000000017
42
0.41421356237313145
10
-178.23750000000013
20
32.387500000000031
10
-165.23750000000007
20
32.387500000000024
42
0.41421356237310025
10
-164.73750000000007
20
32.887500000000017
10
-164.7375000000001
20
45.887500000000045
42
0.41421356237310025
10
-165.23750000000007
20
46.387500000000003
10
-178.23750000000013
20
46.387500000000031
42
0.41421356237310025
10
-178.73750000000007
20
45.887500000000045
0
LWPOLYLINE
5
195
100
AcDbEntity
8
0
100
AcDbPolyline
90
8
70
1
43
0.0
10
-169.21250000000012
20
26.837500000000016
42
-0.41421356237310025
10
-168.71250000000006
20
27.337500000000023
10
-155.71250000000009
20
27.337500000000023
42
-0.41421356237308982
10
-155.21250000000009
20
26.837500000000016
10
-155.21250000000012
20
13.837500000000009
42
-0.41421356237305862
10
-155.71250000000009
20
13.33750000000002
10
-168.71250000000009
20
13.337500000000029
42
-0.41421356237307944
10
-169.21250000000009
20
13.837500000000027
0
LWPOLYLINE
5
196
100
AcDbEntity
8
0
100
AcDbPolyline
90
8
70
1
43
0.0
10
82.912499999999937
20
70.987499999999969
10
82.912499999999966
20
83.987499999999983
42
0.41421356237312101
10
82.412499999999937
20
84.487499999999983
10
69.412499999999966
20
84.487499999999969
42
0.41421356237312101
10
68.912499999999966
20
83.987499999999997
10
68.912499999999937
20
70.987499999999969
42
0.41421356237312623
10
69.412499999999966
20
70.487499999999969
10
82.412499999999937
20
70.487499999999983
42
0.41421356237312623
0
LWPOLYLINE
5
197
100
AcDbEntity
8
0
100
AcDbPolyline
90
8
70
1
43
0.0
10
-126.35000000000007
20
113.85000000000002
10
-126.35000000000005
20
126.85000000000002
42
-0.41421356237308721
10
-125.85000000000008
20
127.35000000000001
10
-112.85000000000008
20
127.35000000000001
42
-0.41421356237309437
10
-112.35000000000007
20
126.85000000000001
10
-112.35000000000007
20
113.85000000000002
42
-0.41421356237309243
10
-112.85000000000008
20
113.35000000000001
10
-125.85000000000008
20
113.35000000000001
42
-0.41421356237311974
0
ENDSEC
0
SECTION
2
OBJECTS
0
DICTIONARY
5
C
100
AcDbDictionary
3
ACAD_GROUP
350
D
3
ACAD_MLINESTYLE
350
17
0
DICTIONARY
5
D
100
AcDbDictionary
0
DICTIONARY
5
1A
330
C
100
AcDbDictionary
0
DICTIONARY
5
17
100
AcDbDictionary
0
ENDSEC
0
EOF
