0
SECTION
2
HEADER
9
$INSUNITS
70
4
9
$ACADVER
1
AC1014
9
$HANDSEED
5
FFFF
0
ENDSEC
0
SECTION
2
TABLES
0
TABLE
2
VPORT
5
8
100
AcDbSymbolTable
0
ENDTAB
0
TABLE
2
LTYPE
5
5
100
AcDbSymbolTable
0
LTYPE
5
14
100
AcDbSymbolTableRecord
100
AcDbLinetypeTableRecord
2
BYBLOCK
70
0
0
LTYPE
5
15
100
AcDbSymbolTableRecord
100
AcDbLinetypeTableRecord
2
BYLAYER
70
0
0
ENDTAB
0
TABLE
2
LAYER
5
2
100
AcDbSymbolTable
70
2
0
LAYER
5
50
100
AcDbSymbolTableRecord
100
AcDbLayerTableRecord
2
0
70
0
6
CONTINUOUS
0
ENDTAB
0
TABLE
2
STYLE
5
3
100
AcDbSymbolTable
70
1
0
STYLE
5
11
100
AcDbSymbolTableRecord
100
AcDbTextStyleTableRecord
2
STANDARD
70
0
0
ENDTAB
0
TABLE
2
VIEW
5
6
100
AcDbSymbolTable
70
0
0
ENDTAB
0
TABLE
2
UCS
5
7
100
AcDbSymbolTable
70
0
0
ENDTAB
0
TABLE
2
APPID
5
9
100
AcDbSymbolTable
70
2
0
APPID
5
12
100
AcDbSymbolTableRecord
100
AcDbRegAppTableRecord
2
ACAD
70
0
0
ENDTAB
0
TABLE
2
DIMSTYLE
5
A
100
AcDbSymbolTable
70
1
0
ENDTAB
0
TABLE
2
BLOCK_RECORD
5
1
100
AcDbSymbolTable
70
1
0
BLOCK_RECORD
5
1F
100
AcDbSymbolTableRecord
100
AcDbBlockTableRecord
2
*MODEL_SPACE
0
BLOCK_RECORD
5
1B
100
AcDbSymbolTableRecord
100
AcDbBlockTableRecord
2
*PAPER_SPACE
0
ENDTAB
0
ENDSEC
0
SECTION
2
BLOCKS
0
BLOCK
5
20
100
AcDbEntity
100
AcDbBlockBegin
2
*MODEL_SPACE
0
ENDBLK
5
21
100
AcDbEntity
100
AcDbBlockEnd
0
BLOCK
5
1C
100
AcDbEntity
100
AcDbBlockBegin
2
*PAPER_SPACE
0
ENDBLK
5
1D
100
AcDbEntity
100
AcDbBlockEnd
0
ENDSEC
0
SECTION
2
ENTITIES
0
LWPOLYLINE
5
100
100
AcDbEntity
8
0
100
AcDbPolyline
90
8
70
1
43
0.0
10
-339.81824999999992
20
3.2375000000000398
42
-0.41421356237312101
10
-340.31824999999998
20
3.7375000000000203
10
-340.31824999999998
20
17.737500000000026
42
-0.41421356237312101
10
-339.81825000000003
20
18.237500000000033
10
-333.81825000000003
20
18.237500000000047
42
-0.4142135623730846
10
-333.31825000000003
20
17.737500000000026
10
-333.31825000000003
20
3.7375000000000203
42
-0.4142135623731783
10
-333.81825000000003
20
3.237499999999951
0
LWPOLYLINE
5
101
100
AcDbEntity
8
0
100
AcDbPolyline
90
8
70
1
43
0.0
10
-306.53750000000002
20
54.337500000000034
10
-319.53750000000002
20
54.33750000000002
42
0.41421356237312362
10
-320.03749999999997
20
53.837500000000027
10
-320.03750000000002
20
40.83750000000002
42
0.41421356237301177
10
-319.53750000000002
20
40.337500000000013
10
-306.53750000000002
20
40.337500000000013
42
0.41421356237313928
10
-306.03750000000002
20
40.83750000000002
10
-306.03750000000002
20
53.837500000000027
42
0.41421356237310025
0
LWPOLYLINE
5
102
100
AcDbEntity
8
0
100
AcDbPolyline
90
234
70
1
43
0.0
10
-362.90000000000009
20
64.650000000000034
10
-362.89999999999998
20
76.599907115054322
42
0.50488839217132653
10
-363.54747651299999
20
77.077662992164562
42
-0.15083163032026314
10
-367.30252348700003
20
77.077662992164534
42
0.5048883921713464
10
-367.95000000000005
20
76.599907115054293
10
-367.95000000000005
20
64.650000000000034
42
-0.41421356237308332
10
-368.44999999999999
20
64.150000000000034
10
-381.45000000000005
20
64.150000000000048
42
-0.41421356237312235
10
-381.95000000000005
20
64.650000000000034
10
-381.95000000000005
20
77.650000000000034
42
-0.4142135623731204
10
-381.45000000000005
20
78.150000000000034
10
-378.95000000000005
20
78.150000000000034
42
0.41421356237307344
10
-378.44999999999999
20
78.650000000000034
10
-378.44999999999993
20
79.776000000000039
42
0.41421356237310542
10
-378.95000000000005
20
80.276000000000053
10
-401.57330097572401
20
80.276000000000039
42
0.2413717552511051
10
-403.19706260774956
20
79.443646420095504
42
-0.51260823232165509
10
-413.53311727640676
20
79.443646420096016
42
0.24137175525101759
10
-415.15687890843196
20
80.276000000000124
10
-431.14232805031907
20
80.276000000000039
42
-0.99999999999999989
10
-431.14232805031907
20
81.276000000000039
10
-413.40833725812308
20
81.276000000000025
42
-0.23270237637043797
10
-411.82378072178011
20
80.49631986918719
42
0.87876914792292438
10
-404.34167438591379
20
84.8539971226391
42
0.3017602066554243
10
-404.80249394337108
20
85.159973063655315
10
-405.9047968192981
20
85.159973063655698
42
0.58534813359983051
10
-406.33170869206913
20
84.399691960063748
42
-1.7808853584939586
10
-410.39847119210515
20
84.399691960034261
42
0.58534813359482141
10
-410.82538306488004
20
85.159973063619645
10
-453.76550000000003
20
85.159973063655713
42
0.41421356237308415
10
-455.76549999999997
20
83.159973063655769
10
-455.76549999999997
20
82.275999999999954
42
-0.41421356237307994
10
-457.76549999999997
20
80.276000000000053
10
-504.30000000000001
20
80.276000000000039
42
0.41421356237312085
10
-504.80000000000007
20
79.776000000000039
10
-504.80000000000013
20
78.650000000000048
42
0.41421356237309426
10
-504.30000000000007
20
78.150000000000034
10
-501.80000000000007
20
78.150000000000063
42
-0.41421356237309437
10
-501.30000000000001
20
77.650000000000048
10
-501.30000000000007
20
64.650000000000048
42
-0.41421356237309243
10
-501.80000000000007
20
64.150000000000048
10
-514.79999999999995
20
64.150000000000048
42
-0.41421356237311974
10
-515.29999999999995
20
64.650000000000048
10
-515.29999999999995
20
76.599907115054279
42
0.50488839217123338
10
-515.94747651299986
20
77.077662992164591
42
-0.15083163032028085
10
-519.70252348700024
20
77.077662992164576
42
0.50488839217124948
10
-520.35000000000002
20
76.599907115054293
10
-520.35000000000002
20
64.650000000000048
42
-0.41421356237305729
10
-520.85000000000014
20
64.150000000000048
10
-533.85000000000002
20
64.150000000000063
42
-0.41421356237310153
10
-534.35000000000002
20
64.650000000000048
10
-534.35000000000014
20
77.650000000000048
42
-0.41421356237307522
10
-533.85000000000002
20
78.150000000000048
10
-531.35000000000002
20
78.150000000000034
42
0.41421356237307444
10
-530.85000000000014
20
78.650000000000048
10
-530.85000000000002
20
79.776000000000039
42
0.41421356237307339
10
-531.35000000000002
20
80.276000000000053
10
-540.60223810824129
20
80.276000000000039
42
-0.99999999999999989
10
-540.60223810824129
20
81.276000000000039
10
-522.86824731604531
20
81.276000000000039
42
-0.23270237637041552
10
-521.2836907797024
20
80.496319869187289
42
0.87876914792292826
10
-513.80158444383574
20
84.853997122639043
42
0.30176020665553877
10
-514.26240400129348
20
85.159973063655698
10
-515.36470687721976
20
85.159973063655713
42
0.58534813359971694
10
-515.7916187499909
20
84.399691960063876
42
-1.7808853585090874
10
-519.85838125000919
20
84.399691960063848
42
0.58534813359972349
10
-520.28529312278033
20
85.159973063655755
10
-582.20138676137606
20
85.159973063655713
42
0.58534813359975268
10
-582.6282986341472
20
84.399691960063862
42
-1.7808853585090836
10
-586.69506113416548
20
84.399691960063862
42
0.58534813359973925
10
-587.12197300693663
20
85.159973063655741
10
-588.2242758828628
20
85.159973063655741
42
0.30176020665559206
10
-588.68509544032065
20
84.853997122639015
42
0.8787691479229246
10
-581.2029891044541
20
80.496319869187289
42
-0.23270237637042451
10
-579.61843256811119
20
81.276000000000039
10
-561.88444177591509
20
81.276000000000039
42
-0.99999999999999989
10
-561.88444177591509
20
80.276000000000053
10
-577.86989091780254
20
80.276000000000053
42
0.24137175525104732
10
-579.49365254982786
20
79.443646420095845
42
-0.51260823232164732
10
-589.82970721848483
20
79.443646420095831
42
0.24137175525104695
10
-591.45346885051015
20
80.276000000000039
10
-611.30000000000007
20
80.276000000000053
42
0.41421356237309503
10
-613.30000000000007
20
78.276000000000039
10
-613.30000000000018
20
-35.988499999999952
42
0.41421356237309559
10
-611.30000000000007
20
-37.988499999999945
10
-591.28043041855472
20
-37.988499999999945
42
0.2322355331853817
10
-589.69803832378489
20
-37.211625201445003
42
-0.49094962059197089
10
-579.62532144452769
20
-37.211625201444882
42
0.23223553318538803
10
-578.04292934975797
20
-37.988499999999732
10
-562.10423546406025
20
-37.988499999999945
42
-0.99999999999999989
10
-562.10423546406025
20
-38.988499999999995
10
-579.8059706147202
20
-38.988499999999945
42
-0.22038184184262244
10
-581.33160387823034
20
-38.281729734143035
42
0.8582111272612909
10
-588.68509544032065
20
-42.798550995326906
42
0.30176020665577424
10
-588.22427588286291
20
-43.104526936344016
10
-587.12197300693663
20
-43.104526936343959
42
0.58534813359986571
10
-586.69506113416548
20
-42.344245832752001
42
-1.7808853585089939
10
-582.6282986341472
20
-42.344245832752009
42
0.58534813359985105
10
-582.20138676137606
20
-43.104526936343944
10
-518.79486599803397
20
-43.104526936343973
42
0.58534813359985671
10
-518.36795412526283
20
-42.34424583275203
42
-1.7808853585089939
10
-514.30119162524454
20
-42.344245832752037
42
0.5853481335998284
10
-513.87427975247351
20
-43.104526936343959
10
-512.77197687654711
20
-43.104526936343959
42
0.30176020665577141
10
-512.31115731908903
20
-42.798550995326956
42
0.85821112726128634
10
-519.66464888118014
20
-38.281729734142807
42
-0.22038184184263443
10
-521.19028214468983
20
-38.988499999999959
10
-538.89201729534989
20
-38.988499999999945
42
-0.99999999999999989
10
-538.89201729534989
20
-37.988499999999959
10
-522.95332340965217
20
-37.988499999999952
42
0.23223553318538359
10
-521.37093131488234
20
-37.211625201445017
42
-0.48190914986343225
10
-511.41419012990787
20
-37.066034161891807
42
0.44325356701693569
10
-509.93410671760984
20
-37.138706448623182
10
-509.66257992542603
20
-36.867179656439951
42
-0.19891236737965545
10
-508.95547314423908
20
-36.574286437626981
10
-484.78390026898501
20
-36.574286437626974
42
-0.19891236737947379
10
-484.07679348779902
20
-36.867179656439916
10
-483.24836636305304
20
-37.695606781186989
42
0.19891236737962129
10
-482.54125958186603
20
-37.98850000000062
10
-462.07400000000007
20
-37.988499999999959
42
0.4142135623730846
10
-461.07400000000007
20
-36.988499999999966
42
-0.41421356237309293
10
-456.07400000000007
20
-31.988499999999966
10
-439.99974746830696
20
-31.988499999999984
42
-0.99999999999999989
10
-439.99974746830702
20
-32.988499999999959
10
-454.65978643762696
20
-32.988499999999959
42
0.66817863791955967
10
-455.36689321881312
20
-34.695606781187003
10
-447.25086628246908
20
-42.811633717530981
42
0.19891236737949758
10
-446.54375950128298
20
-43.104526936343923
10
-426.52572024752601
20
-43.10452693634393
42
0.58534813359992666
10
-426.09880837475498
20
-42.344245832751923
42
-1.7808853585090456
10
-422.03204587473687
20
-42.344245832752051
42
0.58534813359998439
10
-421.60513400196606
20
-43.10452693634376
10
-420.50283112603898
20
-43.104526936343952
42
0.30176020665561554
10
-420.04201156858124
20
-42.79855099532729
42
0.85821112726129978
10
-427.39550313067264
20
-38.28172973414253
42
-0.22038184184262583
10
-428.92113639418199
20
-38.988499999999959
10
-442.38380639541401
20
-38.988499999999945
42
-0.99999999999999989
10
-442.38380639541401
20
-37.988499999999959
10
-430.6841776591441
20
-37.988499999999895
42
0.23223553318531293
10
-429.1017855643745
20
-37.211625201445379
42
-0.57984554132780142
10
-418.15800100044316
20
-38.733470877137023
42
0.30635589684325304
10
-416.30192492651304
20
-39.988499999999462
10
-397.70160161513797
20
-39.988499999999945
42
0.26794919243112869
10
-395.96955080756914
20
-38.988499999999945
42
-0.26794919243112453
10
-394.23749999999995
20
-37.988499999999981
10
-376.80675053439808
20
-37.988499999999981
42
0.23223553318532672
10
-375.22435843962853
20
-37.211625201445401
42
-0.49094962059200586
10
-365.15164156037116
20
-37.211625201445116
42
0.23223553318531479
10
-363.56924946560196
20
-37.988499999999462
10
-347.6305555799039
20
-37.988499999999981
42
-0.99999999999999989
10
-347.63055557990401
20
-38.98850000000003
10
-365.33229073056407
20
-38.988499999999966
42
-0.22038184184262663
10
-366.85792399407404
20
-38.28172973414302
42
0.85821112726129756
10
-374.21141555616418
20
-42.798550995327048
42
0.30176020665555492
10
-373.75059599870696
20
-43.104526936343589
10
-372.64829312278005
20
-43.104526936343966
42
0.58534813359985882
10
-372.2213812500089
20
-42.344245832751959
42
-1.780885358509029
10
-368.15461874999085
20
-42.344245832752108
42
0.58534813359989712
10
-367.72770687722004
20
-43.104526936343746
10
-296.44779312277996
20
-43.104526936343973
42
0.58534813359986659
10
-296.02088125000893
20
-42.34424583275193
42
-1.7808853585090512
10
-291.95411874999093
20
-42.344245832752051
42
0.58534813359994831
10
-291.52720687721995
20
-43.104526936343817
10
-290.42490400129304
20
-43.104526936343973
42
0.30176020665551878
10
-289.96408444383525
20
-42.798550995327325
42
0.85821112726129245
10
-297.31757600592658
20
-38.281729734142488
42
-0.22038184184262849
10
-298.84320926943599
20
-38.988499999999974
10
-316.5449444200961
20
-38.988499999999959
42
-0.99999999999999989
10
-316.54494442009604
20
-37.988499999999981
10
-299.82354655958403
20
-37.988499999999974
42
0.25963059147711587
10
-299.39851949967681
20
-37.751847675795133
42
-0.051985146138886856
10
-298.59063359279844
20
-36.707851899813534
42
0.65991607725580281
10
-298.95220248705607
20
-35.862500000000495
10
-300.48750000000007
20
-35.862499999999962
42
-0.4142135623730846
10
-300.98750000000007
20
-35.362499999999969
10
-300.98750000000001
20
-22.362499999999983
42
-0.41421356237310542
10
-300.48750000000007
20
-21.862499999999976
10
-287.48750000000007
20
-21.862499999999958
42
-0.4142135623732095
10
-286.98750000000013
20
-22.362499999999983
10
-286.98750000000007
20
-35.362499999999969
42
-0.41421356237306384
10
-287.48750000000007
20
-35.862499999999983
10
-289.02279751294401
20
-35.862499999999955
42
0.65991607725567247
10
-289.38436640720198
20
-36.707851899813946
42
-0.051985146138846
10
-288.5764805003231
20
-37.751847675795055
42
0.25963059147715839
10
-288.15145344041605
20
-37.98849999999991
10
-267.1875
20
-37.988499999999981
42
0.41421356237308982
10
-265.18750000000011
20
-35.988499999999981
10
-265.18750000000006
20
78.27600000000001
42
0.41421356237307394
10
-267.18750000000006
20
80.276000000000053
10
-288.01390673007796
20
80.276000000000039
42
0.27014342626989302
10
-288.4489510291038
20
80.022447677784143
42
-0.050365169442092766
10
-289.18807596966298
20
78.978451901802899
42
0.64361748938225782
10
-288.81108877067311
20
78.149999999999835
10
-287.48750000000007
20
78.150000000000006
42
-0.41421356237319223
10
-286.98750000000013
20
77.65000000000002
10
-286.98749999999995
20
64.65000000000002
42
-0.41421356237312362
10
-287.48750000000007
20
64.15000000000002
10
-300.48750000000007
20
64.150000000000048
42
-0.41421356237312235
10
-300.98750000000007
20
64.65000000000002
10
-300.98750000000007
20
77.65000000000002
42
-0.4142135623731204
10
-300.48750000000007
20
78.15000000000002
10
-299.16391122932691
20
78.150000000000034
42
0.64361748938212948
10
-298.78692403033722
20
78.978451901802742
42
-0.050365169442151761
10
-299.52604897089594
20
80.022447677784299
42
0.27014342626996213
10
-299.96109326992206
20
80.276000000000337
10
-316.76473810824109
20
80.27600000000001
42
-0.99999999999999989
10
-316.76473810824103
20
81.27600000000001
10
-299.03074731604511
20
81.276000000000025
42
-0.23270237637042523
10
-297.44619077970219
20
80.496319869187104
42
0.87876914792291927
10
-289.96408444383582
20
84.853997122639058
42
0.30176020665554298
10
-290.42490400129304
20
85.159973063655201
10
-291.52720687721995
20
85.159973063655713
42
0.58534813359977778
10
-291.95411874999115
20
84.39969196006372
42
-1.7808853585091271
10
-296.0208812500091
20
84.399691960063876
42
0.585348133599769
10
-296.44779312277996
20
85.159973063655457
10
-362.96470687722007
20
85.159973063655741
42
0.5853481335998274
10
-363.39161874999115
20
84.399691960063734
42
-1.7808853585091569
10
-367.4583812500091
20
84.399691960063862
42
0.5853481335998344
10
-367.88529312278001
20
85.159973063655471
10
-368.98759599870709
20
85.159973063655741
42
0.30176020665539838
10
-369.44841555616472
20
84.853997122639285
42
0.8787691479229135
10
-361.96630922029749
20
80.496319869186891
42
-0.23270237637043586
10
-360.38175268395503
20
81.276000000000025
10
-342.64776189175905
20
81.276000000000039
42
-0.99999999999999989
10
-342.64776189175905
20
80.276000000000039
10
-351.89999999999998
20
80.276000000000053
42
0.41421356237309992
10
-352.40000000000003
20
79.776000000000039
10
-352.40000000000003
20
78.650000000000034
42
0.41421356237313273
10
-351.89999999999998
20
78.15000000000002
10
-349.39999999999992
20
78.150000000000063
42
-0.41421356237306384
10
-348.89999999999998
20
77.650000000000034
10
-348.89999999999992
20
64.65000000000002
42
-0.41421356237310542
10
-349.39999999999998
20
64.150000000000034
10
-362.40000000000003
20
64.150000000000048
42
-0.41421356237312235
0
LWPOLYLINE
5
103
100
AcDbEntity
8
0
100
AcDbPolyline
90
8
70
1
43
0.0
10
-345.08075000000008
20
-4.312499999999968
10
-345.08074999999997
20
-18.312499999999972
42
0.41421356237310542
10
-344.58075000000002
20
-18.812499999999979
10
-338.58074999999997
20
-18.812499999999979
42
0.41421356237313667
10
-338.08074999999997
20
-18.312499999999972
10
-338.08074999999997
20
-4.312499999999968
42
0.41421356237314705
10
-338.58074999999997
20
-3.8124999999999609
10
-344.58075000000002
20
-3.8124999999999787
42
0.4142135623730846
0
LWPOLYLINE
5
104
100
AcDbEntity
8
0
100
AcDbPolyline
90
8
70
1
43
0.0
10
-481.46250000000003
20
2.2375000000000256
10
-468.46249999999998
20
2.2375000000000433
42
0.414213562373069
10
-467.96249999999998
20
2.7375000000000416
10
-467.96249999999998
20
15.73750000000004
42
0.41421356237307422
10
-468.46250000000003
20
16.23750000000004
10
-481.46249999999998
20
16.237500000000047
42
0.41421356237311585
10
-481.96250000000009
20
15.73750000000004
10
-481.96249999999998
20
2.7375000000000416
42
0.41421356237310542
0
LWPOLYLINE
5
105
100
AcDbEntity
8
0
100
AcDbPolyline
90
8
70
1
43
0.0
10
-486.22500000000002
20
21.287500000000019
10
-473.22500000000002
20
21.287500000000037
42
0.41421356237310542
10
-472.72500000000008
20
21.787500000000026
10
-472.72500000000008
20
34.787500000000044
42
0.41421356237308982
10
-473.22500000000002
20
35.287500000000037
10
-486.22500000000002
20
35.287500000000037
42
0.41421356237308982
10
-486.72500000000002
20
34.787500000000044
10
-486.72500000000008
20
21.787500000000026
42
0.41421356237307944
0
LWPOLYLINE
5
106
100
AcDbEntity
8
0
100
AcDbPolyline
90
8
70
1
43
0.0
10
-381.95000000000005
20
53.837500000000034
42
-0.41421356237312101
10
-381.45000000000005
20
54.337500000000034
10
-368.44999999999999
20
54.337500000000034
42
-0.41421356237307422
10
-367.95000000000005
20
53.837500000000027
10
-367.95000000000005
20
40.837500000000027
42
-0.4142135623730534
10
-368.44999999999999
20
40.33750000000002
10
-381.4500000000001
20
40.33750000000002
42
-0.41421356237313928
10
-381.95000000000005
20
40.837500000000034
0
LWPOLYLINE
5
107
100
AcDbEntity
8
0
100
AcDbPolyline
90
8
70
1
43
0.0
10
-400.50000000000011
20
40.33750000000002
42
-0.41421356237313928
10
-401.00000000000011
20
40.837500000000034
10
-401.00000000000011
20
53.837500000000034
42
-0.41421356237312101
10
-400.50000000000006
20
54.337500000000034
10
-387.5
20
54.337500000000048
42
-0.41421356237310025
10
-387
20
53.837500000000034
10
-387
20
40.837500000000027
42
-0.41421356237311063
10
-387.5
20
40.33750000000002
0
LWPOLYLINE
5
108
100
AcDbEntity
8
0
100
AcDbPolyline
90
8
70
1
43
0.0
10
-477.98750000000007
20
-2.8124999999999467
10
-490.98750000000007
20
-2.8124999999999467
42
0.41421356237310542
10
-491.48750000000007
20
-3.3124999999999361
10
-491.48750000000007
20
-16.312499999999961
42
0.41421356237309503
10
-490.98750000000001
20
-16.812499999999968
10
-477.98750000000007
20
-16.812499999999968
42
0.41421356237307422
10
-477.48750000000001
20
-16.312499999999961
10
-477.48750000000001
20
-3.3124999999999361
42
0.4142135623730846
0
LWPOLYLINE
5
109
100
AcDbEntity
8
0
100
AcDbPolyline
90
8
70
1
43
0.0
10
-405.76250000000005
20
15.737500000000031
10
-405.76250000000005
20
2.7375000000000327
42
0.41421356237305862
10
-405.26250000000005
20
2.2375000000000167
10
-392.26250000000005
20
2.2375000000000078
42
0.4142135623730846
10
-391.76250000000005
20
2.7375000000000327
10
-391.76250000000005
20
15.737500000000031
42
0.41421356237314183
10
-392.26250000000005
20
16.237500000000029
10
-405.26250000000005
20
16.23750000000004
42
0.41421356237307422
0
LWPOLYLINE
5
110
100
AcDbEntity
8
0
100
AcDbPolyline
90
8
70
1
43
0.0
10
-486.22500000000002
20
64.150000000000034
10
-473.22500000000002
20
64.150000000000034
42
0.41421356237309503
10
-472.72500000000008
20
64.650000000000048
10
-472.72500000000002
20
77.650000000000034
42
0.41421356237309437
10
-473.22500000000002
20
78.150000000000048
10
-486.22500000000002
20
78.150000000000048
42
0.41421356237307422
10
-486.72500000000008
20
77.650000000000034
10
-486.72500000000008
20
64.650000000000048
42
0.41421356237307555
0
LWPOLYLINE
5
111
100
AcDbEntity
8
0
100
AcDbPolyline
90
8
70
1
43
0.0
10
-429.57500000000005
20
21.787500000000016
42
0.41421356237314705
10
-429.07499999999999
20
21.287500000000009
10
-416.0750000000001
20
21.28750000000003
42
0.41421356237312623
10
-415.57500000000005
20
21.787500000000016
10
-415.57500000000005
20
34.787500000000037
42
0.41421356237312101
10
-416.07500000000005
20
35.28750000000003
10
-429.07499999999999
20
35.287500000000058
42
0.4142135623730846
10
-429.57500000000005
20
34.787500000000037
0
LWPOLYLINE
5
112
100
AcDbEntity
8
0
100
AcDbPolyline
90
8
70
1
43
0.0
10
-496.53750000000002
20
-16.312499999999961
10
-496.53750000000002
20
-3.3124999999999361
42
0.4142135623730846
10
-497.03750000000008
20
-2.8124999999999467
10
-510.03750000000014
20
-2.8124999999999467
42
0.41421356237310542
10
-510.53750000000008
20
-3.3124999999999361
10
-510.53750000000008
20
-16.312499999999961
42
0.41421356237309503
10
-510.03750000000002
20
-16.812499999999968
10
-497.03750000000008
20
-16.812499999999968
42
0.41421356237307422
0
LWPOLYLINE
5
113
100
AcDbEntity
8
0
100
AcDbPolyline
90
8
70
1
43
0.0
10
-334.61250000000001
20
-22.362499999999983
42
0.41421356237307422
10
-335.11250000000007
20
-21.862499999999976
10
-348.11250000000001
20
-21.862499999999976
42
0.41421356237313667
10
-348.61250000000007
20
-22.362499999999983
10
-348.61250000000007
20
-35.362499999999969
42
0.41421356237314705
10
-348.11250000000001
20
-35.862499999999983
10
-335.11250000000007
20
-35.862499999999997
42
0.4142135623730846
10
-334.61250000000001
20
-35.362499999999969
0
LWPOLYLINE
5
114
100
AcDbEntity
8
0
100
AcDbPolyline
90
8
70
1
43
0.0
10
-495.75
20
40.337500000000034
10
-482.75000000000006
20
40.337500000000041
42
0.41421356237309243
10
-482.25000000000011
20
40.837500000000034
10
-482.25
20
53.837500000000048
42
0.41421356237309243
10
-482.75000000000006
20
54.337500000000048
10
-495.74999999999994
20
54.337500000000048
42
0.41421356237312101
10
-496.25
20
53.837500000000048
10
-496.25
20
40.837500000000048
42
0.41421356237310802
0
LWPOLYLINE
5
115
100
AcDbEntity
8
0
100
AcDbPolyline
90
8
70
1
43
0.0
10
-591.78750000000014
20
21.787500000000044
10
-591.78750000000014
20
34.787500000000065
42
0.41421356237309764
10
-592.28750000000002
20
35.287500000000058
10
-605.28750000000002
20
35.287500000000058
42
0.41421356237307422
10
-605.78750000000002
20
34.787500000000058
10
-605.78750000000002
20
21.787500000000048
42
0.41421356237310414
10
-605.28750000000002
20
21.287500000000055
10
-592.28750000000002
20
21.287500000000055
42
0.41421356237311063
0
LWPOLYLINE
5
116
100
AcDbEntity
8
0
100
AcDbPolyline
90
8
70
1
43
0.0
10
-300.98750000000007
20
-3.3124999999999538
10
-300.98750000000001
20
-16.312499999999979
42
0.41421356237310542
10
-300.48750000000007
20
-16.812499999999986
10
-287.48750000000007
20
-16.81249999999995
42
0.41421356237313667
10
-286.98750000000007
20
-16.312499999999979
10
-286.98750000000013
20
-3.3124999999999538
42
0.4142135623730222
10
-287.48750000000007
20
-2.8125
10
-300.48750000000007
20
-2.8124999999999822
42
0.41421356237311585
0
LWPOLYLINE
5
117
100
AcDbEntity
8
0
100
AcDbPolyline
90
8
70
1
43
0.0
10
-281.43750000000006
20
21.28750000000003
10
-268.43750000000011
20
21.287500000000009
42
0.41421356237318868
10
-267.93750000000011
20
21.787500000000001
10
-267.93750000000011
20
34.787500000000016
42
0.4142135623730222
10
-268.43750000000006
20
35.287499999999987
10
-281.43750000000006
20
35.28749999999998
42
0.41421356237304818
10
-281.93749999999994
20
34.787500000000016
10
-281.9375
20
21.787500000000001
42
0.41421356237312101
0
LWPOLYLINE
5
118
100
AcDbEntity
8
0
100
AcDbPolyline
90
8
70
1
43
0.0
10
-410.02499999999998
20
35.28750000000003
42
0.414213562373069
10
-410.52500000000003
20
34.787500000000037
10
-410.52500000000003
20
21.787500000000016
42
0.41421356237307944
10
-410.02499999999998
20
21.287500000000009
10
-397.02500000000009
20
21.28750000000003
42
0.41421356237312623
10
-396.52500000000003
20
21.787500000000016
10
-396.52500000000003
20
34.787500000000037
42
0.41421356237312101
10
-397.02499999999998
20
35.28750000000003
0
LWPOLYLINE
5
119
100
AcDbEntity
8
0
100
AcDbPolyline
90
8
70
1
43
0.0
10
-420.04999999999995
20
40.837500000000034
10
-420.04999999999995
20
53.837500000000034
42
-0.41421356237312101
10
-419.54999999999995
20
54.337500000000034
10
-406.55000000000007
20
54.33750000000002
42
-0.41421356237312362
10
-406.05000000000007
20
53.837500000000034
10
-406.05000000000007
20
40.837500000000034
42
-0.4142135623730534
10
-406.55000000000001
20
40.33750000000002
10
-419.54999999999995
20
40.337500000000034
42
-0.41421356237313928
0
LWPOLYLINE
5
120
100
AcDbEntity
8
0
100
AcDbPolyline
90
8
70
1
43
0.0
10
-390.97500000000002
20
35.287500000000016
42
0.41421356237312101
10
-391.47500000000008
20
34.787500000000037
10
-391.47500000000008
20
21.787500000000016
42
0.41421356237312623
10
-390.97500000000002
20
21.287500000000009
10
-377.97500000000008
20
21.287500000000037
42
0.41421356237312101
10
-377.47500000000002
20
21.787500000000016
10
-377.47500000000002
20
34.787500000000037
42
0.41421356237313667
10
-377.97500000000002
20
35.28750000000003
0
LWPOLYLINE
5
121
100
AcDbEntity
8
0
100
AcDbPolyline
90
16
70
1
43
0.0
10
-427.67638539864714
20
-24.371538319444976
42
-0.10951781168320773
10
-427.04245800603599
20
-24.230999999999963
10
-423.875
20
-24.230999999999963
42
-0.99999999999999989
10
-423.875
20
-27.23099999999997
10
-437.27692378864612
20
-27.23099999999997
42
0.26794919243105192
10
-438.57596189432263
20
-27.980999999999664
42
-0.57735026918971188
10
-441.17403810567572
20
-27.980999999999817
42
0.26794919243103754
10
-442.47307621135207
20
-27.231000000000254
10
-443.89795108552505
20
-27.230999999999966
42
0.10951781168319301
10
-444.53187847813609
20
-27.371538319444966
10
-446.07361460135195
20
-28.090461680554988
42
-0.10951781168322021
10
-446.70754199396299
20
-28.230999999999664
10
-455.87499999999909
20
-28.230999999999966
42
-0.99999999999999989
10
-455.87499999999909
20
-25.231000000000954
10
-429.85204891447404
20
-25.230999999999973
42
0.10951781168319256
10
-429.21812152186305
20
-25.090461680554981
0
LWPOLYLINE
5
122
100
AcDbEntity
8
0
100
AcDbPolyline
90
8
70
1
43
0.0
10
-429.57500000000005
20
64.650000000000048
42
0.41421356237314577
10
-429.07499999999999
20
64.150000000000034
10
-416.0750000000001
20
64.150000000000048
42
0.41421356237312362
10
-415.57500000000005
20
64.650000000000034
10
-415.57500000000005
20
77.650000000000034
42
0.41421356237310153
10
-416.07500000000005
20
78.150000000000048
10
-429.07499999999999
20
78.150000000000063
42
0.41421356237310053
10
-429.57500000000005
20
77.650000000000034
0
LWPOLYLINE
5
123
100
AcDbEntity
8
0
100
AcDbPolyline
90
8
70
1
43
0.0
10
-319.53750000000002
20
64.15000000000002
10
-306.53750000000002
20
64.150000000000034
42
0.41421356237312362
10
-306.03750000000002
20
64.65000000000002
10
-306.03750000000002
20
77.65000000000002
42
0.41421356237310153
10
-306.53750000000002
20
78.150000000000034
10
-319.53750000000002
20
78.150000000000006
42
0.41421356237312335
10
-320.03749999999997
20
77.65000000000002
10
-320.03750000000002
20
64.650000000000034
42
0.41421356237312362
0
LWPOLYLINE
5
124
100
AcDbEntity
8
0
100
AcDbPolyline
90
8
70
1
43
0.0
10
-306.53750000000002
20
35.287500000000023
10
-319.53750000000002
20
35.287500000000009
42
0.41421356237312101
10
-320.03749999999997
20
34.787500000000023
10
-320.03750000000002
20
21.787500000000009
42
0.41421356237312623
10
-319.53750000000002
20
21.287500000000001
10
-306.53750000000008
20
21.287500000000019
42
0.41421356237312623
10
-306.03750000000002
20
21.787500000000009
10
-306.03749999999997
20
34.787500000000023
42
0.41421356237312101
0
LWPOLYLINE
5
125
100
AcDbEntity
8
0
100
AcDbPolyline
90
8
70
1
43
0.0
10
-401.28750000000002
20
-3.3124999999999361
42
0.41421356237312623
10
-401.78750000000008
20
-2.8124999999999467
10
-414.78750000000002
20
-2.8124999999999467
42
0.41421356237310542
10
-415.28750000000002
20
-3.3124999999999361
10
-415.28750000000002
20
-16.312499999999961
42
0.4142135623730846
10
-414.78750000000002
20
-16.812499999999968
10
-401.78750000000008
20
-16.812499999999968
42
0.41421356237313667
10
-401.28750000000002
20
-16.312499999999961
0
LWPOLYLINE
5
126
100
AcDbEntity
8
0
100
AcDbPolyline
90
8
70
1
43
0.0
10
-420.33749999999998
20
-3.3124999999999361
42
0.41421356237306384
10
-420.83750000000003
20
-2.8124999999999467
10
-433.83749999999998
20
-2.8124999999999467
42
0.41421356237312623
10
-434.33750000000003
20
-3.3124999999999361
10
-434.33750000000003
20
-16.312499999999961
42
0.41421356237314705
10
-433.83750000000009
20
-16.812499999999968
10
-420.83750000000003
20
-16.812499999999986
42
0.4142135623730846
10
-420.33749999999998
20
-16.312499999999961
0
LWPOLYLINE
5
127
100
AcDbEntity
8
0
100
AcDbPolyline
90
8
70
1
43
0.0
10
-562.92500000000007
20
34.787500000000051
10
-562.92500000000007
20
21.787500000000037
42
0.41421356237311063
10
-562.42500000000007
20
21.287500000000044
10
-549.42500000000007
20
21.287500000000044
42
0.41421356237307422
10
-548.92500000000007
20
21.787500000000037
10
-548.92500000000007
20
34.787500000000051
42
0.41421356237311063
10
-549.42500000000007
20
35.287500000000051
10
-562.42500000000007
20
35.287500000000051
42
0.4142135623730846
0
LWPOLYLINE
5
128
100
AcDbEntity
8
0
100
AcDbPolyline
90
8
70
1
43
0.0
10
-424.8125
20
2.7375000000000327
10
-424.8125
20
15.737500000000031
42
-0.4142135623730222
10
-424.31250000000006
20
16.237500000000029
10
-411.31250000000011
20
16.237500000000047
42
-0.41421356237310025
10
-410.81250000000006
20
15.737500000000031
10
-410.81250000000006
20
2.7375000000000327
42
-0.41421356237313667
10
-411.31250000000011
20
2.2375000000000345
10
-424.3125
20
2.2375000000000522
42
-0.41421356237312101
0
LWPOLYLINE
5
129
100
AcDbEntity
8
0
100
AcDbPolyline
90
8
70
1
43
0.0
10
-416.05000000000007
20
-34.862499999999983
42
-0.4142135623730846
10
-416.55000000000001
20
-34.362499999999955
10
-416.55000000000001
20
-20.236499999999964
42
-0.41421356237310542
10
-416.05000000000007
20
-19.736499999999975
10
-410.05000000000001
20
-19.736499999999975
42
-0.41421356237312623
10
-409.54999999999995
20
-20.236499999999964
10
-409.54999999999995
20
-34.362499999999955
42
-0.41421356237311585
10
-410.04999999999995
20
-34.862499999999983
0
LWPOLYLINE
5
130
100
AcDbEntity
8
0
100
AcDbPolyline
90
8
70
1
43
0.0
10
-524.82500000000005
20
34.787500000000051
10
-524.82500000000005
20
21.787500000000037
42
0.41421356237310542
10
-524.32500000000005
20
21.28750000000003
10
-511.32499999999999
20
21.287500000000044
42
0.41421356237310542
10
-510.82500000000005
20
21.787500000000037
10
-510.8250000000001
20
34.787500000000051
42
0.41421356237308982
10
-511.32500000000005
20
35.287500000000051
10
-524.32499999999993
20
35.287500000000037
42
0.41421356237311585
0
LWPOLYLINE
5
131
100
AcDbEntity
8
0
100
AcDbPolyline
90
8
70
1
43
0.0
10
-387
20
77.650000000000034
42
0.41421356237314544
10
-387.5
20
78.150000000000034
10
-400.50000000000006
20
78.15000000000002
42
0.41421356237312335
10
-401.00000000000011
20
77.650000000000034
10
-401.00000000000011
20
64.650000000000034
42
0.41421356237312362
10
-400.50000000000006
20
64.150000000000034
10
-387.5
20
64.15000000000002
42
0.41421356237309892
10
-387
20
64.650000000000034
0
LWPOLYLINE
5
132
100
AcDbEntity
8
0
100
AcDbPolyline
90
8
70
1
43
0.0
10
-361.8130000000001
20
52.837500000000034
10
-361.8130000000001
20
38.837500000000034
42
0.41421356237301699
10
-361.31300000000005
20
38.33750000000002
10
-355.31299999999999
20
38.337500000000013
42
0.41421356237310025
10
-354.81299999999999
20
38.837500000000027
10
-354.81299999999999
20
52.837500000000034
42
0.41421356237314444
10
-355.31299999999999
20
53.337500000000034
10
-361.31300000000005
20
53.33750000000002
42
0.41421356237312623
0
LWPOLYLINE
5
133
100
AcDbEntity
8
0
100
AcDbPolyline
90
8
70
1
43
0.0
10
-357.69425000000001
20
18.237500000000058
42
-0.41421356237304818
10
-357.19425000000001
20
17.737500000000026
10
-357.19425000000001
20
3.7375000000000203
42
-0.41421356237315227
10
-357.69425000000001
20
3.237499999999951
10
-363.69425000000007
20
3.2375000000000043
42
-0.41421356237310542
10
-364.19425000000001
20
3.7375000000000291
10
-364.19425000000001
20
17.737500000000033
42
-0.41421356237313667
10
-363.69425000000007
20
18.237500000000033
0
LWPOLYLINE
5
134
100
AcDbEntity
8
0
100
AcDbPolyline
90
16
70
1
43
0.0
10
-503.12307621135409
20
-27.230999999999934
42
-0.26794919243106385
10
-501.8240381056778
20
-27.980999999999817
42
0.57735026918969012
10
-499.22596189432431
20
-27.980999999999806
42
-0.26794919243105753
10
-497.92692378864797
20
-27.23099999999997
10
-496.50204891447504
20
-27.231000000000201
42
-0.1095178116832302
10
-495.86812152186405
20
-27.371538319444966
10
-494.32638539864791
20
-28.090461680554721
42
0.10951781168325088
10
-493.6924580060371
20
-28.230999999999664
10
-484.525000000001
20
-28.230999999999948
42
0.99999999999999989
10
-484.525000000001
20
-25.230999999999977
10
-510.54795108552605
20
-25.230999999999728
42
-0.10951781168322795
10
-511.18187847813704
20
-25.090461680554963
10
-512.72361460135312
20
-24.371538319445115
42
0.10951781168329762
10
-513.35754199396445
20
-24.230999999999963
10
-516.52500000000009
20
-24.230999999999963
42
0.99999999999999989
10
-516.52500000000009
20
-27.23099999999997
0
LWPOLYLINE
5
135
100
AcDbEntity
8
0
100
AcDbPolyline
90
8
70
1
43
0.0
10
-425.10000000000002
20
40.837500000000034
10
-425.10000000000002
20
53.837500000000034
42
0.41421356237314444
10
-425.60000000000002
20
54.337500000000048
10
-438.59999999999991
20
54.337500000000027
42
0.41421356237312362
10
-439.09999999999997
20
53.837500000000048
10
-439.10000000000002
20
40.837500000000034
42
0.41421356237301177
10
-438.60000000000002
20
40.337500000000034
10
-425.60000000000002
20
40.337500000000006
42
0.41421356237311063
0
LWPOLYLINE
5
136
100
AcDbEntity
8
0
100
AcDbPolyline
90
8
70
1
43
0.0
10
-487.51249999999999
20
2.2375000000000433
42
0.41421356237305862
10
-487.01250000000005
20
2.7375000000000416
10
-487.01250000000005
20
15.73750000000004
42
0.41421356237307422
10
-487.51250000000005
20
16.23750000000004
10
-500.51249999999993
20
16.237500000000047
42
0.41421356237311585
10
-501.01250000000005
20
15.73750000000004
10
-501.01249999999999
20
2.7375000000000416
42
0.41421356237310542
10
-500.51250000000005
20
2.2375000000000256
0
LWPOLYLINE
5
137
100
AcDbEntity
8
0
100
AcDbPolyline
90
8
70
1
43
0.0
10
-300.48750000000007
20
21.287500000000001
10
-287.48750000000013
20
21.287500000000019
42
0.41421356237318868
10
-286.98750000000013
20
21.787500000000009
10
-286.98750000000013
20
34.787500000000023
42
0.4142135623730222
10
-287.48750000000007
20
35.287499999999994
10
-300.48750000000007
20
35.287500000000009
42
0.41421356237312101
10
-300.98750000000007
20
34.787500000000023
10
-300.98750000000007
20
21.787500000000009
42
0.41421356237312623
0
LWPOLYLINE
5
138
100
AcDbEntity
8
0
100
AcDbPolyline
90
8
70
1
43
0.0
10
-335.11250000000013
20
21.287500000000001
42
0.41421356237307422
10
-334.61250000000001
20
21.787500000000009
10
-334.61250000000007
20
34.787500000000023
42
0.41421356237311063
10
-335.11250000000007
20
35.287500000000023
10
-348.11250000000001
20
35.287500000000051
42
0.41421356237310542
10
-348.61250000000007
20
34.787500000000023
10
-348.61250000000007
20
21.787500000000009
42
0.41421356237314705
10
-348.11250000000001
20
21.287500000000001
0
LWPOLYLINE
5
139
100
AcDbEntity
8
0
100
AcDbPolyline
90
8
70
1
43
0.0
10
-516.08750000000009
20
-2.8124999999999645
42
-0.4142135623730534
10
-515.58750000000009
20
-3.3124999999999361
10
-515.58750000000009
20
-16.312499999999961
42
-0.41421356237309503
10
-516.08750000000009
20
-16.812499999999968
10
-529.08750000000009
20
-16.812499999999968
42
-0.41421356237312623
10
-529.58749999999998
20
-16.312499999999961
10
-529.58749999999998
20
-3.3124999999999361
42
-0.41421356237309503
10
-529.08750000000009
20
-2.8124999999999467
0
LWPOLYLINE
5
140
100
AcDbEntity
8
0
100
AcDbPolyline
90
8
70
1
43
0.0
10
-342.25625000000002
20
16.237500000000018
10
-355.25625000000002
20
16.23750000000004
42
0.41421356237310025
10
-355.75625000000002
20
15.737500000000022
10
-355.75625000000002
20
2.7375000000000238
42
0.41421356237311063
10
-355.25625000000002
20
2.2375000000000078
10
-342.25625000000002
20
2.2375000000000433
42
0.41421356237312101
10
-341.75624999999997
20
2.7375000000000238
10
-341.75625000000002
20
15.737500000000022
42
0.4142135623730222
0
LWPOLYLINE
5
141
100
AcDbEntity
8
0
100
AcDbPolyline
90
8
70
1
43
0.0
10
-358.92499999999995
20
35.287500000000023
10
-371.92499999999995
20
35.28750000000003
42
0.414213562373069
10
-372.42500000000007
20
34.787500000000037
10
-372.42500000000001
20
21.787500000000016
42
0.4142135623730846
10
-371.92499999999995
20
21.287500000000009
10
-358.9249999999999
20
21.287500000000009
42
0.414213562373069
10
-358.42500000000001
20
21.787500000000009
10
-358.42500000000001
20
34.787500000000023
42
0.4142135623730846
0
LWPOLYLINE
5
142
100
AcDbEntity
8
0
100
AcDbPolyline
90
8
70
1
43
0.0
10
-382.23750000000001
20
-3.3124999999999538
42
0.41421356237306384
10
-382.73750000000007
20
-2.8124999999999645
10
-395.73750000000007
20
-2.8124999999999467
42
0.41421356237310542
10
-396.23750000000001
20
-3.3124999999999361
10
-396.23750000000001
20
-16.312499999999961
42
0.4142135623730846
10
-395.73750000000007
20
-16.812499999999968
10
-382.73750000000013
20
-16.812499999999986
42
0.41421356237307422
10
-382.23749999999995
20
-16.312499999999979
0
LWPOLYLINE
5
143
100
AcDbEntity
8
0
100
AcDbPolyline
90
8
70
1
43
0.0
10
-386.21250000000003
20
16.23750000000004
42
0.41421356237307422
10
-386.71249999999998
20
15.737500000000031
10
-386.71249999999998
20
2.7375000000000327
42
0.41421356237305862
10
-386.21250000000003
20
2.2375000000000167
10
-373.21250000000009
20
2.2375000000000078
42
0.4142135623730846
10
-372.71250000000003
20
2.7375000000000327
10
-372.71250000000003
20
15.737500000000031
42
0.41421356237314183
10
-373.21250000000009
20
16.237500000000029
0
LWPOLYLINE
5
144
100
AcDbEntity
8
0
100
AcDbPolyline
90
8
70
1
43
0.0
10
-435.125
20
64.150000000000034
10
-448.125
20
64.150000000000034
42
-0.41421356237307422
10
-448.62500000000006
20
64.650000000000048
10
-448.62500000000006
20
77.650000000000034
42
-0.41421356237310414
10
-448.125
20
78.150000000000034
10
-435.125
20
78.150000000000063
42
-0.41421356237310053
10
-434.62500000000006
20
77.650000000000034
10
-434.62500000000006
20
64.650000000000048
42
-0.41421356237314577
0
LWPOLYLINE
5
145
100
AcDbEntity
8
0
100
AcDbPolyline
90
8
70
1
43
0.0
10
-281.93749999999994
20
77.65000000000002
10
-281.9375
20
64.65000000000002
42
0.41421356237311846
10
-281.43750000000006
20
64.150000000000048
10
-268.43750000000006
20
64.150000000000034
42
0.41421356237319257
10
-267.93750000000011
20
64.65000000000002
10
-267.93750000000011
20
77.65000000000002
42
0.41421356237301926
10
-268.43750000000006
20
78.149999999999991
10
-281.43750000000006
20
78.149999999999991
42
0.41421356237305018
0
LWPOLYLINE
5
146
100
AcDbEntity
8
0
100
AcDbPolyline
90
8
70
1
43
0.0
10
-567.6875
20
-3.3124999999999183
10
-567.68750000000011
20
-16.312499999999943
42
0.41421356237308982
10
-567.18750000000011
20
-16.81249999999995
10
-554.1875
20
-16.812499999999943
42
0.41421356237310025
10
-553.6875
20
-16.312499999999943
10
-553.6875
20
-3.3124999999999183
42
0.41421356237309503
10
-554.1875
20
-2.8124999999999289
10
-567.18750000000011
20
-2.8124999999999289
42
0.41421356237310025
0
LWPOLYLINE
5
147
100
AcDbEntity
8
0
100
AcDbPolyline
90
8
70
1
43
0.0
10
-506.0625
20
15.737500000000049
42
0.41421356237310542
10
-506.5625
20
16.237500000000047
10
-519.56250000000011
20
16.237500000000047
42
0.41421356237314183
10
-520.0625
20
15.737500000000049
10
-520.0625
20
2.7375000000000504
42
0.41421356237310542
10
-519.5625
20
2.2375000000000345
10
-506.56250000000006
20
2.2375000000000433
42
0.4142135623730846
10
-506.0625
20
2.7375000000000504
0
LWPOLYLINE
5
148
100
AcDbEntity
8
0
100
AcDbPolyline
90
8
70
1
43
0.0
10
-534.63750000000005
20
-16.312499999999961
10
-534.63750000000005
20
-3.3124999999999361
42
0.4142135623730846
10
-535.13750000000005
20
-2.8124999999999467
10
-548.13750000000005
20
-2.8124999999999378
42
0.41421356237310542
10
-548.63750000000005
20
-3.3124999999999183
10
-548.63750000000005
20
-16.312499999999943
42
0.41421356237311585
10
-548.13750000000005
20
-16.81249999999995
10
-535.13750000000005
20
-16.812499999999957
42
0.41421356237310542
0
LWPOLYLINE
5
149
100
AcDbEntity
8
0
100
AcDbPolyline
90
8
70
1
43
0.0
10
-600.08175000000006
20
-18.312499999999936
10
-600.08175000000006
20
-4.3124999999999325
42
0.41421356237307555
10
-600.58175000000006
20
-3.8124999999999254
10
-606.58175000000006
20
-3.8124999999999245
42
0.41421356237307422
10
-607.08175000000006
20
-4.3124999999999325
10
-607.08175000000006
20
-18.312499999999932
42
0.41421356237310608
10
-606.58175000000006
20
-18.812499999999943
10
-600.58175000000006
20
-18.812499999999943
42
0.41421356237309503
0
LWPOLYLINE
5
150
100
AcDbEntity
8
0
100
AcDbPolyline
90
8
70
1
43
0.0
10
-463.20000000000005
20
-22.362499999999965
10
-463.19999999999999
20
-35.362499999999955
42
-0.41421356237307422
10
-463.70000000000005
20
-35.862499999999962
10
-476.7000000000001
20
-35.862499999999962
42
-0.4142135623730534
10
-477.20000000000005
20
-35.362499999999955
10
-477.20000000000005
20
-22.362499999999965
42
-0.41421356237307422
10
-476.70000000000005
20
-21.862499999999958
10
-463.70000000000005
20
-21.862499999999958
42
-0.41421356237309503
0
LWPOLYLINE
5
151
100
AcDbEntity
8
0
100
AcDbPolyline
90
8
70
1
43
0.0
10
-533.85000000000002
20
54.337500000000048
42
0.41421356237310281
10
-534.35000000000002
20
53.837500000000055
10
-534.35000000000002
20
40.837500000000048
42
0.41421356237308982
10
-533.85000000000002
20
40.337500000000055
10
-520.85000000000014
20
40.337500000000034
42
0.41421356237308982
10
-520.35000000000002
20
40.837500000000048
10
-520.34999999999991
20
53.837500000000048
42
0.41421356237310542
10
-520.85000000000014
20
54.337500000000048
0
LWPOLYLINE
5
152
100
AcDbEntity
8
0
100
AcDbPolyline
90
8
70
1
43
0.0
10
-329.85000000000002
20
77.65000000000002
42
0.41421356237314544
10
-330.34999999999997
20
78.150000000000034
10
-343.35000000000002
20
78.150000000000006
42
0.41421356237312335
10
-343.85000000000002
20
77.650000000000034
10
-343.85000000000002
20
64.650000000000034
42
0.41421356237312362
10
-343.35000000000002
20
64.15000000000002
10
-330.34999999999997
20
64.150000000000006
42
0.41421356237309892
10
-329.85000000000002
20
64.65000000000002
0
LWPOLYLINE
5
153
100
AcDbEntity
8
0
100
AcDbPolyline
90
8
70
1
43
0.0
10
-458.93750000000006
20
-16.812499999999968
42
0.41421356237309503
10
-458.4375
20
-16.312499999999961
10
-458.4375
20
-3.3124999999999361
42
0.41421356237307422
10
-458.93750000000006
20
-2.8124999999999467
10
-471.93750000000011
20
-2.8124999999999467
42
0.41421356237310542
10
-472.43750000000006
20
-3.3124999999999361
10
-472.43750000000006
20
-16.312499999999961
42
0.41421356237309503
10
-471.93750000000011
20
-16.812499999999968
0
LWPOLYLINE
5
154
100
AcDbEntity
8
0
100
AcDbPolyline
90
8
70
1
43
0.0
10
-596.54999999999995
20
40.837500000000055
10
-596.55000000000007
20
53.83750000000007
42
0.41421356237309115
10
-597.05000000000007
20
54.337500000000063
10
-610.05000000000007
20
54.337500000000063
42
0.4142135623730957
10
-610.55000000000007
20
53.837500000000063
10
-610.55000000000007
20
40.837500000000055
42
0.41421356237309209
10
-610.05000000000007
20
40.337500000000048
10
-597.05000000000007
20
40.337500000000048
42
0.4142135623730937
0
LWPOLYLINE
5
155
100
AcDbEntity
8
0
100
AcDbPolyline
90
8
70
1
43
0.0
10
-530.375
20
21.287500000000044
42
0.41421356237309503
10
-529.875
20
21.787500000000037
10
-529.875
20
34.787500000000051
42
0.414213562373069
10
-530.375
20
35.287500000000051
10
-543.375
20
35.287500000000051
42
0.4142135623730846
10
-543.875
20
34.787500000000051
10
-543.875
20
21.787500000000037
42
0.41421356237311063
10
-543.375
20
21.287500000000044
0
LWPOLYLINE
5
156
100
AcDbEntity
8
0
100
AcDbPolyline
90
8
70
1
43
0.0
10
-597.05000000000007
20
64.150000000000048
10
-610.05000000000007
20
64.150000000000063
42
-0.4142135623730957
10
-610.55000000000007
20
64.650000000000063
10
-610.54999999999995
20
77.650000000000063
42
-0.41421356237309437
10
-610.05000000000007
20
78.150000000000063
10
-597.05000000000007
20
78.150000000000063
42
-0.4142135623730937
10
-596.54999999999995
20
77.650000000000063
10
-596.55000000000007
20
64.650000000000063
42
-0.4142135623730937
0
LWPOLYLINE
5
157
100
AcDbEntity
8
0
100
AcDbPolyline
90
8
70
1
43
0.0
10
-584.64375000000007
20
-16.312499999999943
10
-584.64375000000007
20
-3.3124999999999005
42
0.41421356237307944
10
-585.14375000000007
20
-2.8124999999999289
10
-598.14375000000007
20
-2.8124999999999423
42
0.41421356237309243
10
-598.64375000000007
20
-3.3124999999999183
10
-598.64375000000007
20
-16.312499999999943
42
0.41421356237310414
10
-598.14375000000007
20
-16.81249999999995
10
-585.14375000000007
20
-16.81249999999995
42
0.41421356237311846
0
LWPOLYLINE
5
158
100
AcDbEntity
8
0
100
AcDbPolyline
90
8
70
1
43
0.0
10
-591.5
20
40.837500000000055
42
0.4142135623730846
10
-591.00000000000011
20
40.337500000000063
10
-578
20
40.337500000000048
42
0.41421356237309503
10
-577.50000000000011
20
40.837500000000055
10
-577.50000000000011
20
53.837500000000055
42
0.41421356237309243
10
-578
20
54.337500000000048
10
-591
20
54.337500000000048
42
0.41421356237308721
10
-591.5
20
53.837500000000063
0
LWPOLYLINE
5
159
100
AcDbEntity
8
0
100
AcDbPolyline
90
8
70
1
43
0.0
10
-501.80000000000007
20
54.337500000000048
10
-514.79999999999995
20
54.337500000000048
42
0.41421356237312101
10
-515.29999999999995
20
53.837500000000048
10
-515.29999999999995
20
40.837500000000048
42
0.41421356237310802
10
-514.80000000000007
20
40.337500000000041
10
-501.80000000000007
20
40.337500000000048
42
0.41421356237309243
10
-501.30000000000001
20
40.837500000000048
10
-501.30000000000001
20
53.837500000000048
42
0.41421356237309243
0
LWPOLYLINE
5
160
100
AcDbEntity
8
0
100
AcDbPolyline
90
8
70
1
43
0.0
10
-454.17500000000007
20
64.150000000000034
42
0.41421356237309503
10
-453.67500000000007
20
64.650000000000048
10
-453.67500000000001
20
77.650000000000034
42
0.41421356237309437
10
-454.17500000000007
20
78.150000000000048
10
-467.17500000000001
20
78.150000000000048
42
0.41421356237307422
10
-467.67500000000007
20
77.650000000000034
10
-467.67500000000007
20
64.650000000000048
42
0.41421356237307555
10
-467.17500000000001
20
64.150000000000034
0
LWPOLYLINE
5
161
100
AcDbEntity
8
0
100
AcDbPolyline
90
8
70
1
43
0.0
10
-467.67500000000007
20
21.787500000000026
42
0.41421356237307944
10
-467.17500000000001
20
21.287500000000019
10
-454.17500000000007
20
21.287500000000037
42
0.41421356237310542
10
-453.67500000000007
20
21.787500000000026
10
-453.67500000000007
20
34.787500000000044
42
0.41421356237308982
10
-454.17500000000007
20
35.287500000000037
10
-467.17500000000001
20
35.287500000000037
42
0.41421356237307944
10
-467.67499999999995
20
34.787500000000044
0
LWPOLYLINE
5
162
100
AcDbEntity
8
0
100
AcDbPolyline
90
8
70
1
43
0.0
10
-281.43750000000006
20
54.337499999999991
42
0.41421356237305079
10
-281.93749999999994
20
53.837500000000027
10
-281.9375
20
40.83750000000002
42
0.41421356237311585
10
-281.43750000000006
20
40.337500000000041
10
-268.43750000000006
20
40.33750000000002
42
0.41421356237319129
10
-267.93750000000011
20
40.83750000000002
10
-267.93750000000011
20
53.83750000000002
42
0.41421356237301699
10
-268.43750000000006
20
54.337499999999977
0
LWPOLYLINE
5
163
100
AcDbEntity
8
0
100
AcDbPolyline
90
8
70
1
43
0.0
10
-544.16250000000002
20
15.737500000000049
42
0.4142135623730846
10
-544.66250000000002
20
16.237500000000047
10
-557.66250000000002
20
16.237500000000047
42
0.41421356237313145
10
-558.16250000000002
20
15.737500000000049
10
-558.16250000000002
20
2.7375000000000504
42
0.41421356237307944
10
-557.66250000000002
20
2.2375000000000522
10
-544.66250000000002
20
2.2375000000000522
42
0.41421356237309503
10
-544.16250000000002
20
2.7375000000000504
0
LWPOLYLINE
5
164
100
AcDbEntity
8
0
100
AcDbPolyline
90
8
70
1
43
0.0
10
-525.61249999999995
20
16.237500000000047
10
-538.61250000000007
20
16.237500000000047
42
0.41421356237310542
10
-539.11250000000007
20
15.737500000000049
10
-539.11250000000007
20
2.7375000000000504
42
0.41421356237309503
10
-538.61250000000007
20
2.2375000000000522
10
-525.61250000000007
20
2.2375000000000433
42
0.4142135623730846
10
-525.11250000000007
20
2.7375000000000504
10
-525.11249999999995
20
15.737500000000049
42
0.41421356237307422
0
LWPOLYLINE
5
165
100
AcDbEntity
8
0
100
AcDbPolyline
90
8
70
1
43
0.0
10
-553.40000000000009
20
64.650000000000048
10
-553.40000000000009
20
77.650000000000063
42
-0.41421356237309698
10
-552.90000000000009
20
78.150000000000063
10
-539.90000000000009
20
78.150000000000063
42
-0.41421356237309664
10
-539.40000000000009
20
77.650000000000048
10
-539.40000000000009
20
64.650000000000048
42
-0.41421356237309631
10
-539.90000000000009
20
64.150000000000048
10
-552.90000000000009
20
64.150000000000048
42
-0.41421356237309764
0
LWPOLYLINE
5
166
100
AcDbEntity
8
0
100
AcDbPolyline
90
8
70
1
43
0.0
10
-448.125
20
35.287500000000037
42
0.414213562373069
10
-448.62500000000006
20
34.787500000000044
10
-448.62500000000006
20
21.787500000000026
42
0.41421356237307944
10
-448.125
20
21.287500000000019
10
-435.12500000000011
20
21.287500000000044
42
0.41421356237312101
10
-434.62500000000006
20
21.787500000000026
10
-434.62500000000006
20
34.787500000000044
42
0.41421356237313667
10
-435.125
20
35.287500000000037
0
LWPOLYLINE
5
167
100
AcDbEntity
8
0
100
AcDbPolyline
90
8
70
1
43
0.0
10
-439.38749999999999
20
-16.312499999999961
10
-439.38750000000005
20
-3.3124999999999361
42
0.41421356237304302
10
-439.88750000000005
20
-2.8124999999999467
10
-452.88749999999999
20
-2.8124999999999645
42
0.41421356237311585
10
-453.38750000000005
20
-3.3124999999999361
10
-453.38750000000005
20
-16.312499999999961
42
0.41421356237309503
10
-452.88750000000005
20
-16.812499999999968
10
-439.88750000000005
20
-16.812499999999986
42
0.41421356237310542
0
LWPOLYLINE
5
168
100
AcDbEntity
8
0
100
AcDbPolyline
90
8
70
1
43
0.0
10
-267.93750000000011
20
-22.362499999999983
42
0.4142135623730222
10
-268.43750000000006
20
-21.862500000000011
10
-281.43750000000006
20
-21.862500000000011
42
0.41421356237313667
10
-281.93750000000011
20
-22.362499999999983
10
-281.93749999999994
20
-35.362499999999969
42
0.41421356237312623
10
-281.43750000000006
20
-35.86249999999994
10
-268.43750000000011
20
-35.862499999999997
42
0.41421356237312623
10
-267.93749999999994
20
-35.362499999999969
0
LWPOLYLINE
5
169
100
AcDbEntity
8
0
100
AcDbPolyline
90
8
70
1
43
0.0
10
-458.15000000000003
20
40.837500000000048
42
0.41421356237306123
10
-457.64999999999998
20
40.337500000000034
10
-444.65000000000003
20
40.337500000000034
42
0.41421356237313928
10
-444.15000000000009
20
40.837500000000034
10
-444.15000000000009
20
53.837500000000034
42
0.41421356237310025
10
-444.65000000000003
20
54.337500000000048
10
-457.64999999999998
20
54.337500000000048
42
0.41421356237309243
10
-458.14999999999998
20
53.837500000000048
0
LWPOLYLINE
5
170
100
AcDbEntity
8
0
100
AcDbPolyline
90
8
70
1
43
0.0
10
-306.03750000000002
20
-35.362499999999969
10
-306.03750000000002
20
-22.362499999999983
42
0.41421356237310542
10
-306.53750000000002
20
-21.862499999999976
10
-319.53749999999997
20
-21.862499999999958
42
0.41421356237310542
10
-320.03749999999997
20
-22.362499999999983
10
-320.03750000000002
20
-35.362499999999969
42
0.4142135623730846
10
-319.53750000000002
20
-35.862499999999983
10
-306.53750000000008
20
-35.862499999999962
42
0.4142135623730846
0
LWPOLYLINE
5
171
100
AcDbEntity
8
0
100
AcDbPolyline
90
8
70
1
43
0.0
10
-347.01875000000007
20
-16.812499999999986
42
0.41421356237313667
10
-346.51875000000007
20
-16.312499999999979
10
-346.51875000000007
20
-3.3124999999999538
42
0.41421356237312623
10
-347.01875000000001
20
-2.8124999999999645
10
-360.0187499999999
20
-2.8124999999999822
42
0.41421356237311585
10
-360.51874999999995
20
-3.3124999999999538
10
-360.51874999999995
20
-16.312499999999979
42
0.41421356237310542
10
-360.01874999999995
20
-16.812499999999986
0
LWPOLYLINE
5
172
100
AcDbEntity
8
0
100
AcDbPolyline
90
8
70
1
43
0.0
10
-462.41250000000008
20
2.2375000000000256
10
-449.41249999999997
20
2.2375000000000167
42
0.4142135623730846
10
-448.91250000000002
20
2.7375000000000416
10
-448.91250000000002
20
15.73750000000004
42
0.41421356237314183
10
-449.41249999999997
20
16.23750000000004
10
-462.41250000000002
20
16.237500000000047
42
0.41421356237311585
10
-462.91250000000002
20
15.73750000000004
10
-462.91250000000002
20
2.7375000000000416
42
0.41421356237310542
0
LWPOLYLINE
5
173
100
AcDbEntity
8
0
100
AcDbPolyline
90
8
70
1
43
0.0
10
-477.19999999999999
20
53.837500000000048
10
-477.20000000000005
20
40.837500000000048
42
0.41421356237306123
10
-476.70000000000005
20
40.337500000000034
10
-463.70000000000005
20
40.337500000000041
42
0.41421356237309243
10
-463.20000000000005
20
40.837500000000034
10
-463.19999999999999
20
53.837500000000048
42
0.41421356237309243
10
-463.70000000000005
20
54.337500000000048
10
-476.70000000000005
20
54.337500000000048
42
0.41421356237309243
0
LWPOLYLINE
5
174
100
AcDbEntity
8
0
100
AcDbPolyline
90
8
70
1
43
0.0
10
-339.37500000000006
20
53.837500000000027
42
0.41421356237310025
10
-339.87500000000006
20
54.337500000000034
10
-352.87500000000011
20
54.337500000000048
42
0.41421356237310025
10
-353.37500000000006
20
53.837500000000027
10
-353.37500000000006
20
40.837500000000027
42
0.41421356237311063
10
-352.87500000000011
20
40.337500000000013
10
-339.875
20
40.337500000000013
42
0.41421356237313928
10
-339.375
20
40.83750000000002
0
LWPOLYLINE
5
175
100
AcDbEntity
8
0
100
AcDbPolyline
90
8
70
1
43
0.0
10
-337.43700000000001
20
53.337500000000034
42
0.41421356237307683
10
-337.93700000000001
20
52.837500000000034
10
-337.93700000000007
20
38.837500000000027
42
0.41421356237307422
10
-337.43700000000001
20
38.337500000000013
10
-331.43700000000013
20
38.337500000000013
42
0.41421356237310025
10
-330.93700000000007
20
38.837500000000027
10
-330.93700000000007
20
52.83750000000002
42
0.41421356237314444
10
-331.43700000000013
20
53.337500000000034
0
LWPOLYLINE
5
176
100
AcDbEntity
8
0
100
AcDbPolyline
90
8
70
1
43
0.0
10
-443.36250000000007
20
16.237500000000054
42
0.41421356237310025
10
-443.86250000000007
20
15.73750000000004
10
-443.86250000000007
20
2.7375000000000416
42
0.41421356237311063
10
-443.36250000000007
20
2.2375000000000256
10
-430.36249999999995
20
2.2375000000000345
42
0.414213562373069
10
-429.86249999999995
20
2.7375000000000327
10
-429.86249999999995
20
15.737500000000031
42
0.41421356237310542
10
-430.36249999999995
20
16.237500000000029
0
LWPOLYLINE
5
177
100
AcDbEntity
8
0
100
AcDbPolyline
90
8
70
1
43
0.0
10
-567.97500000000002
20
21.787500000000037
10
-567.97500000000002
20
34.787500000000051
42
0.41421356237309503
10
-568.47500000000002
20
35.287500000000051
10
-581.47500000000002
20
35.287500000000065
42
0.41421356237308204
10
-581.97500000000002
20
34.787500000000058
10
-581.97500000000002
20
21.787500000000044
42
0.41421356237307944
10
-581.47500000000014
20
21.287500000000055
10
-568.47500000000002
20
21.287500000000044
42
0.41421356237309503
0
LWPOLYLINE
5
178
100
AcDbEntity
8
0
100
AcDbPolyline
90
8
70
1
43
0.0
10
-300.98750000000007
20
40.83750000000002
42
0.41421356237301177
10
-300.48750000000007
20
40.337500000000013
10
-287.48750000000007
20
40.337500000000034
42
0.41421356237319129
10
-286.98750000000013
20
40.83750000000002
10
-286.98750000000013
20
53.83750000000002
42
0.41421356237301699
10
-287.48750000000007
20
54.337499999999977
10
-300.48750000000007
20
54.337500000000006
42
0.41421356237312362
10
-300.98750000000007
20
53.837500000000027
0
LWPOLYLINE
5
179
100
AcDbEntity
8
0
100
AcDbPolyline
90
8
70
1
43
0.0
10
-571.95000000000005
20
64.150000000000063
10
-558.95000000000005
20
64.150000000000048
42
0.41421356237310281
10
-558.45000000000005
20
64.650000000000048
10
-558.45000000000005
20
77.650000000000048
42
0.41421356237310902
10
-558.95000000000005
20
78.150000000000048
10
-571.95000000000005
20
78.150000000000063
42
0.41421356237309764
10
-572.45000000000005
20
77.650000000000063
10
-572.45000000000005
20
64.650000000000048
42
0.41421356237307422
0
LWPOLYLINE
5
180
100
AcDbEntity
8
0
100
AcDbPolyline
90
8
70
1
43
0.0
10
-505.77499999999998
20
34.787500000000051
10
-505.77499999999998
20
21.787500000000037
42
0.41421356237310025
10
-505.27500000000003
20
21.28750000000003
10
-492.27500000000009
20
21.287500000000037
42
0.41421356237309503
10
-491.77500000000009
20
21.787500000000026
10
-491.77500000000003
20
34.787500000000044
42
0.414213562373069
10
-492.27500000000009
20
35.287500000000037
10
-505.27500000000003
20
35.287500000000051
42
0.41421356237308982
0
LWPOLYLINE
5
181
100
AcDbEntity
8
0
100
AcDbPolyline
90
8
70
1
43
0.0
10
-563.21250000000009
20
15.737500000000049
42
0.4142135623730846
10
-563.71250000000009
20
16.237500000000047
10
-576.71250000000009
20
16.237500000000047
42
0.41421356237310802
10
-577.21250000000009
20
15.737500000000058
10
-577.21250000000009
20
2.7375000000000504
42
0.41421356237310542
10
-576.71250000000009
20
2.2375000000000522
10
-563.71250000000009
20
2.2375000000000522
42
0.41421356237309503
10
-563.21250000000009
20
2.7375000000000504
0
LWPOLYLINE
5
182
100
AcDbEntity
8
0
100
AcDbPolyline
90
8
70
1
43
0.0
10
-558.95000000000005
20
54.337500000000048
10
-571.95000000000005
20
54.337500000000048
42
0.41421356237309764
10
-572.45000000000005
20
53.837500000000063
10
-572.45000000000005
20
40.837500000000055
42
0.41421356237308982
10
-571.95000000000005
20
40.337500000000055
10
-558.95000000000005
20
40.337500000000041
42
0.41421356237310025
10
-558.45000000000005
20
40.837500000000055
10
-558.45000000000005
20
53.837500000000063
42
0.41421356237311063
0
LWPOLYLINE
5
183
100
AcDbEntity
8
0
100
AcDbPolyline
90
8
70
1
43
0.0
10
-576.20575000000008
20
-18.312499999999936
10
-576.20575000000008
20
-4.3124999999999325
42
0.41421356237308721
10
-576.70575000000008
20
-3.8124999999999609
10
-582.70575000000008
20
-3.812499999999921
42
0.41421356237307161
10
-583.20575000000008
20
-4.3124999999999325
10
-583.20575000000008
20
-18.312499999999936
42
0.41421356237310542
10
-582.70575000000008
20
-18.812499999999943
10
-576.70575000000008
20
-18.812499999999943
42
0.41421356237309503
0
LWPOLYLINE
5
184
100
AcDbEntity
8
0
100
AcDbPolyline
90
8
70
1
43
0.0
10
-553.40000000000009
20
40.837500000000055
42
0.41421356237309243
10
-552.90000000000009
20
40.337500000000055
10
-539.90000000000009
20
40.337500000000041
42
0.41421356237309243
10
-539.40000000000009
20
40.837500000000055
10
-539.40000000000009
20
53.837500000000055
42
0.41421356237309764
10
-539.90000000000009
20
54.337500000000048
10
-552.90000000000009
20
54.337500000000063
42
0.41421356237309764
10
-553.40000000000009
20
53.837500000000055
0
LWPOLYLINE
5
185
100
AcDbEntity
8
0
100
AcDbPolyline
90
8
70
1
43
0.0
10
-395.73750000000007
20
-21.86249999999994
42
0.4142135623730846
10
-396.23750000000001
20
-22.362499999999965
10
-396.23750000000001
20
-35.362499999999955
42
0.41421356237307422
10
-395.73750000000007
20
-35.862499999999962
10
-382.73750000000007
20
-35.862499999999983
42
0.41421356237303258
10
-382.23749999999995
20
-35.362499999999969
10
-382.23750000000001
20
-22.362499999999983
42
0.4142135623730846
10
-382.73750000000007
20
-21.862499999999976
0
LWPOLYLINE
5
186
100
AcDbEntity
8
0
100
AcDbPolyline
90
8
70
1
43
0.0
10
-368.45675
20
-18.812499999999979
10
-362.45675000000006
20
-18.812499999999996
42
0.41421356237310542
10
-361.95675000000006
20
-18.312499999999972
10
-361.95675
20
-4.312499999999968
42
0.4142135623730846
10
-362.45675000000006
20
-3.8124999999999609
10
-368.45675
20
-3.8124999999999609
42
0.41421356237309503
10
-368.95675000000006
20
-4.312499999999968
10
-368.95675000000006
20
-18.312499999999972
42
0.41421356237314705
0
LWPOLYLINE
5
187
100
AcDbEntity
8
0
100
AcDbPolyline
90
8
70
1
43
0.0
10
-591.78750000000014
20
-22.362499999999947
42
0.41421356237310542
10
-592.28750000000002
20
-21.86249999999994
10
-605.28750000000002
20
-21.86249999999994
42
0.4142135623730937
10
-605.78750000000002
20
-22.362499999999947
10
-605.78750000000002
20
-35.36249999999994
42
0.41421356237307488
10
-605.28750000000014
20
-35.86249999999994
10
-592.28750000000002
20
-35.862499999999947
42
0.41421356237307161
10
-591.78750000000014
20
-35.36249999999994
0
LWPOLYLINE
5
188
100
AcDbEntity
8
0
100
AcDbPolyline
90
8
70
1
43
0.0
10
-530.85000000000014
20
-34.362499999999955
10
-530.85000000000014
20
-20.236499999999964
42
-0.4142135623730846
10
-530.35000000000014
20
-19.736499999999975
10
-524.35000000000002
20
-19.736499999999975
42
-0.41421356237310542
10
-523.85000000000002
20
-20.236499999999964
10
-523.85000000000002
20
-34.362499999999955
42
-0.41421356237311585
10
-524.35000000000002
20
-34.862499999999983
10
-530.35000000000002
20
-34.862499999999969
42
-0.41421356237307422
0
LWPOLYLINE
5
189
100
AcDbEntity
8
0
100
AcDbPolyline
90
4
70
1
43
0.0
10
-586.11875000000009
20
10.389999999999953
42
-0.99999999999999989
10
-582.11875000000009
20
10.390000000000059
10
-582.11874999999998
20
7.8500000000000725
42
-0.99999999999999989
10
-586.11875000000009
20
7.8500000000000547
0
LWPOLYLINE
5
190
100
AcDbEntity
8
0
100
AcDbPolyline
90
8
70
1
43
0.0
10
-607.66875000000005
20
2.2375000000000611
10
-589.90625
20
2.2375000000000567
42
0.41421356237307161
10
-589.40625
20
2.7375000000000593
10
-589.40625000000011
20
15.737500000000058
42
0.41421356237309764
10
-589.90625000000011
20
16.237500000000054
10
-607.66875000000005
20
16.237500000000054
42
0.41421356237310542
10
-608.16875000000005
20
15.737500000000058
10
-608.16875000000005
20
2.7375000000000593
42
0.41421356237309698
0
LWPOLYLINE
5
191
100
AcDbEntity
8
0
100
AcDbPolyline
90
8
70
1
43
0.0
10
-544.16250000000002
20
-22.362499999999947
10
-544.16250000000002
20
-35.36249999999994
42
-0.414213562373069
10
-544.66250000000014
20
-35.86249999999994
10
-557.66250000000002
20
-35.862499999999933
42
-0.41421356237307944
10
-558.16250000000002
20
-35.36249999999994
10
-558.16250000000014
20
-22.362499999999947
42
-0.41421356237310025
10
-557.66250000000002
20
-21.86249999999994
10
-544.66250000000014
20
-21.86249999999994
42
-0.41421356237308982
0
ENDSEC
0
SECTION
2
OBJECTS
0
DICTIONARY
5
C
100
AcDbDictionary
3
ACAD_GROUP
350
D
3
ACAD_MLINESTYLE
350
17
0
DICTIONARY
5
D
100
AcDbDictionary
0
DICTIONARY
5
1A
330
C
100
AcDbDictionary
0
DICTIONARY
5
17
100
AcDbDictionary
0
ENDSEC
0
EOF
