999
FreeCAD v0.21 33771 (Git)
  0
SECTION
  2
HEADER
  9
$ACADVER
  1
AC1014
  9
$ACADMAINTVER
 70
     9
  9
$DWGCODEPAGE
  3
ANSI_1252
  9
$TEXTSTYLE
  7
STANDARD
  9
$DIMSTYLE
  2
STANDARD
  9
$DIMTXSTY
  7
STANDARD
  9
$CMLSTYLE
  2
STANDARD
  9
$LUNITS
 70
2
  9
$INSUNITS
 70
4
  9
$PEXTMAX
 10
50
 20
50
 30
50
  9
$PEXTMIN
 10
0
 20
0
 30
0
  9
$HANDSEED
  5
FFFF
  0
ENDSEC
  0
SECTION
  2
CLASSES
  0
CLASS
  1
ACDBDICTIONARYWDFLT
  2
AcDbDictionaryWithDefault
  3
ObjectDBX Classes
 90
        0
280
     0
281
     0
  0
CLASS
  1
XRECORD
  2
AcDbXrecord
  3
ObjectDBX Classes
 90
        0
280
     0
281
     0
  0
CLASS
  1
LWPOLYLINE
  2
AcDbPolyline
  3
ObjectDBX Classes
 90
        0
280
     0
281
     1
  0
ENDSEC
  0
SECTION
  2
TABLES
  0
TABLE
  2
VPORT
  5
20
330
0
100
AcDbSymbolTable
 70
     1
  0
VPORT
  5
21
330
20
100
AcDbSymbolTableRecord
100
AcDbViewportTableRecord
  2
*ACTIVE
 70
     0
  0
ENDTAB
  0
TABLE
  2
LTYPE
  5
22
330
0
100
AcDbSymbolTable
 70
     1
  0
LTYPE
  5
23
330
21
100
AcDbSymbolTableRecord
100
AcDbLinetypeTableRecord
  2
BYBLOCK
 70
     0
  3

 72
    65
 73
     0
 40
0.0
  0
LTYPE
  5
24
330
21
100
AcDbSymbolTableRecord
100
AcDbLinetypeTableRecord
  2
BYLAYER
 70
     0
  3

 72
    65
 73
     0
 40
0.0
  0
LTYPE
  5
25
330
21
100
AcDbSymbolTableRecord
100
AcDbLinetypeTableRecord
  2
CONTINUOUS
 70
     0
  3
Solid line
 72
    65
 73
     0
 40
0.0
  0
ENDTAB
  0
TABLE
  2
LAYER
  5
BB3
330
0
100
AcDbSymbolTable
 70
429
  0
LAYER
  5
BB4
330
BB3
100
AcDbSymbolTableRecord
100
AcDbLayerTableRecord
  2
0
 70
   0
 62
   7
  6
CONTINUOUS
  0
LAYER
  5
BB5
330
BB3
100
AcDbSymbolTableRecord
100
AcDbLayerTableRecord
  2
none
 70
    0
 62
    7
  6
CONTINUOUS
  0
LAYER
  5
BB6
330
BB3
100
AcDbSymbolTableRecord
100
AcDbLayerTableRecord
  2
Shape11445
 70
    0
 62
    7
  6
CONTINUOUS
  0
LAYER
  5
BB7
330
BB3
100
AcDbSymbolTableRecord
100
AcDbLayerTableRecord
  2
Shape11446
 70
    0
 62
    7
  6
CONTINUOUS
  0
LAYER
  5
BB8
330
BB3
100
AcDbSymbolTableRecord
100
AcDbLayerTableRecord
  2
Shape11447
 70
    0
 62
    7
  6
CONTINUOUS
  0
LAYER
  5
BB9
330
BB3
100
AcDbSymbolTableRecord
100
AcDbLayerTableRecord
  2
Shape11448
 70
    0
 62
    7
  6
CONTINUOUS
  0
LAYER
  5
BBA
330
BB3
100
AcDbSymbolTableRecord
100
AcDbLayerTableRecord
  2
Shape11449
 70
    0
 62
    7
  6
CONTINUOUS
  0
LAYER
  5
BBB
330
BB3
100
AcDbSymbolTableRecord
100
AcDbLayerTableRecord
  2
Shape11450
 70
    0
 62
    7
  6
CONTINUOUS
  0
LAYER
  5
BBC
330
BB3
100
AcDbSymbolTableRecord
100
AcDbLayerTableRecord
  2
Shape11451
 70
    0
 62
    7
  6
CONTINUOUS
  0
LAYER
  5
BBD
330
BB3
100
AcDbSymbolTableRecord
100
AcDbLayerTableRecord
  2
Shape11452
 70
    0
 62
    7
  6
CONTINUOUS
  0
LAYER
  5
BBE
330
BB3
100
AcDbSymbolTableRecord
100
AcDbLayerTableRecord
  2
Shape11453
 70
    0
 62
    7
  6
CONTINUOUS
  0
LAYER
  5
BBF
330
BB3
100
AcDbSymbolTableRecord
100
AcDbLayerTableRecord
  2
Shape11454
 70
    0
 62
    7
  6
CONTINUOUS
  0
LAYER
  5
BC0
330
BB3
100
AcDbSymbolTableRecord
100
AcDbLayerTableRecord
  2
Shape11455
 70
    0
 62
    7
  6
CONTINUOUS
  0
LAYER
  5
BC1
330
BB3
100
AcDbSymbolTableRecord
100
AcDbLayerTableRecord
  2
Shape11456
 70
    0
 62
    7
  6
CONTINUOUS
  0
LAYER
  5
BC2
330
BB3
100
AcDbSymbolTableRecord
100
AcDbLayerTableRecord
  2
Shape11457
 70
    0
 62
    7
  6
CONTINUOUS
  0
LAYER
  5
BC3
330
BB3
100
AcDbSymbolTableRecord
100
AcDbLayerTableRecord
  2
Shape11458
 70
    0
 62
    7
  6
CONTINUOUS
  0
LAYER
  5
BC4
330
BB3
100
AcDbSymbolTableRecord
100
AcDbLayerTableRecord
  2
Shape11459
 70
    0
 62
    7
  6
CONTINUOUS
  0
LAYER
  5
BC5
330
BB3
100
AcDbSymbolTableRecord
100
AcDbLayerTableRecord
  2
Shape11460
 70
    0
 62
    7
  6
CONTINUOUS
  0
LAYER
  5
BC6
330
BB3
100
AcDbSymbolTableRecord
100
AcDbLayerTableRecord
  2
Shape11461
 70
    0
 62
    7
  6
CONTINUOUS
  0
LAYER
  5
BC7
330
BB3
100
AcDbSymbolTableRecord
100
AcDbLayerTableRecord
  2
Shape11462
 70
    0
 62
    7
  6
CONTINUOUS
  0
LAYER
  5
BC8
330
BB3
100
AcDbSymbolTableRecord
100
AcDbLayerTableRecord
  2
Shape11463
 70
    0
 62
    7
  6
CONTINUOUS
  0
LAYER
  5
BC9
330
BB3
100
AcDbSymbolTableRecord
100
AcDbLayerTableRecord
  2
Shape11464
 70
    0
 62
    7
  6
CONTINUOUS
  0
LAYER
  5
BCA
330
BB3
100
AcDbSymbolTableRecord
100
AcDbLayerTableRecord
  2
Shape11465
 70
    0
 62
    7
  6
CONTINUOUS
  0
LAYER
  5
BCB
330
BB3
100
AcDbSymbolTableRecord
100
AcDbLayerTableRecord
  2
Shape11466
 70
    0
 62
    7
  6
CONTINUOUS
  0
LAYER
  5
BCC
330
BB3
100
AcDbSymbolTableRecord
100
AcDbLayerTableRecord
  2
Shape11467
 70
    0
 62
    7
  6
CONTINUOUS
  0
LAYER
  5
BCD
330
BB3
100
AcDbSymbolTableRecord
100
AcDbLayerTableRecord
  2
Shape11468
 70
    0
 62
    7
  6
CONTINUOUS
  0
LAYER
  5
BCE
330
BB3
100
AcDbSymbolTableRecord
100
AcDbLayerTableRecord
  2
Shape11469
 70
    0
 62
    7
  6
CONTINUOUS
  0
LAYER
  5
BCF
330
BB3
100
AcDbSymbolTableRecord
100
AcDbLayerTableRecord
  2
Shape11470
 70
    0
 62
    7
  6
CONTINUOUS
  0
LAYER
  5
BD0
330
BB3
100
AcDbSymbolTableRecord
100
AcDbLayerTableRecord
  2
Shape11471
 70
    0
 62
    7
  6
CONTINUOUS
  0
LAYER
  5
BD1
330
BB3
100
AcDbSymbolTableRecord
100
AcDbLayerTableRecord
  2
Shape11472
 70
    0
 62
    7
  6
CONTINUOUS
  0
LAYER
  5
BD2
330
BB3
100
AcDbSymbolTableRecord
100
AcDbLayerTableRecord
  2
Shape11473
 70
    0
 62
    7
  6
CONTINUOUS
  0
LAYER
  5
BD3
330
BB3
100
AcDbSymbolTableRecord
100
AcDbLayerTableRecord
  2
Shape11474
 70
    0
 62
    7
  6
CONTINUOUS
  0
LAYER
  5
BD4
330
BB3
100
AcDbSymbolTableRecord
100
AcDbLayerTableRecord
  2
Shape11475
 70
    0
 62
    7
  6
CONTINUOUS
  0
LAYER
  5
BD5
330
BB3
100
AcDbSymbolTableRecord
100
AcDbLayerTableRecord
  2
Shape11476
 70
    0
 62
    7
  6
CONTINUOUS
  0
LAYER
  5
BD6
330
BB3
100
AcDbSymbolTableRecord
100
AcDbLayerTableRecord
  2
Shape11477
 70
    0
 62
    7
  6
CONTINUOUS
  0
LAYER
  5
BD7
330
BB3
100
AcDbSymbolTableRecord
100
AcDbLayerTableRecord
  2
Shape11478
 70
    0
 62
    7
  6
CONTINUOUS
  0
LAYER
  5
BD8
330
BB3
100
AcDbSymbolTableRecord
100
AcDbLayerTableRecord
  2
Shape11479
 70
    0
 62
    7
  6
CONTINUOUS
  0
LAYER
  5
BD9
330
BB3
100
AcDbSymbolTableRecord
100
AcDbLayerTableRecord
  2
Shape11480
 70
    0
 62
    7
  6
CONTINUOUS
  0
LAYER
  5
BDA
330
BB3
100
AcDbSymbolTableRecord
100
AcDbLayerTableRecord
  2
Shape11481
 70
    0
 62
    7
  6
CONTINUOUS
  0
LAYER
  5
BDB
330
BB3
100
AcDbSymbolTableRecord
100
AcDbLayerTableRecord
  2
Shape11482
 70
    0
 62
    7
  6
CONTINUOUS
  0
LAYER
  5
BDC
330
BB3
100
AcDbSymbolTableRecord
100
AcDbLayerTableRecord
  2
Shape11483
 70
    0
 62
    7
  6
CONTINUOUS
  0
LAYER
  5
BDD
330
BB3
100
AcDbSymbolTableRecord
100
AcDbLayerTableRecord
  2
Shape11484
 70
    0
 62
    7
  6
CONTINUOUS
  0
LAYER
  5
BDE
330
BB3
100
AcDbSymbolTableRecord
100
AcDbLayerTableRecord
  2
Shape11485
 70
    0
 62
    7
  6
CONTINUOUS
  0
LAYER
  5
BDF
330
BB3
100
AcDbSymbolTableRecord
100
AcDbLayerTableRecord
  2
Shape11486
 70
    0
 62
    7
  6
CONTINUOUS
  0
LAYER
  5
BE0
330
BB3
100
AcDbSymbolTableRecord
100
AcDbLayerTableRecord
  2
Shape11487
 70
    0
 62
    7
  6
CONTINUOUS
  0
LAYER
  5
BE1
330
BB3
100
AcDbSymbolTableRecord
100
AcDbLayerTableRecord
  2
Shape11488
 70
    0
 62
    7
  6
CONTINUOUS
  0
LAYER
  5
BE2
330
BB3
100
AcDbSymbolTableRecord
100
AcDbLayerTableRecord
  2
Shape11489
 70
    0
 62
    7
  6
CONTINUOUS
  0
LAYER
  5
BE3
330
BB3
100
AcDbSymbolTableRecord
100
AcDbLayerTableRecord
  2
Shape11490
 70
    0
 62
    7
  6
CONTINUOUS
  0
LAYER
  5
BE4
330
BB3
100
AcDbSymbolTableRecord
100
AcDbLayerTableRecord
  2
Shape11491
 70
    0
 62
    7
  6
CONTINUOUS
  0
LAYER
  5
BE5
330
BB3
100
AcDbSymbolTableRecord
100
AcDbLayerTableRecord
  2
Shape11492
 70
    0
 62
    7
  6
CONTINUOUS
  0
LAYER
  5
BE6
330
BB3
100
AcDbSymbolTableRecord
100
AcDbLayerTableRecord
  2
Shape11493
 70
    0
 62
    7
  6
CONTINUOUS
  0
LAYER
  5
BE7
330
BB3
100
AcDbSymbolTableRecord
100
AcDbLayerTableRecord
  2
Shape11494
 70
    0
 62
    7
  6
CONTINUOUS
  0
LAYER
  5
BE8
330
BB3
100
AcDbSymbolTableRecord
100
AcDbLayerTableRecord
  2
Shape11495
 70
    0
 62
    7
  6
CONTINUOUS
  0
LAYER
  5
BE9
330
BB3
100
AcDbSymbolTableRecord
100
AcDbLayerTableRecord
  2
Shape11496
 70
    0
 62
    7
  6
CONTINUOUS
  0
LAYER
  5
BEA
330
BB3
100
AcDbSymbolTableRecord
100
AcDbLayerTableRecord
  2
Shape11497
 70
    0
 62
    7
  6
CONTINUOUS
  0
LAYER
  5
BEB
330
BB3
100
AcDbSymbolTableRecord
100
AcDbLayerTableRecord
  2
Shape11498
 70
    0
 62
    7
  6
CONTINUOUS
  0
LAYER
  5
BEC
330
BB3
100
AcDbSymbolTableRecord
100
AcDbLayerTableRecord
  2
Shape11499
 70
    0
 62
    7
  6
CONTINUOUS
  0
LAYER
  5
BED
330
BB3
100
AcDbSymbolTableRecord
100
AcDbLayerTableRecord
  2
Shape11500
 70
    0
 62
    7
  6
CONTINUOUS
  0
LAYER
  5
BEE
330
BB3
100
AcDbSymbolTableRecord
100
AcDbLayerTableRecord
  2
Shape11501
 70
    0
 62
    7
  6
CONTINUOUS
  0
LAYER
  5
BEF
330
BB3
100
AcDbSymbolTableRecord
100
AcDbLayerTableRecord
  2
Shape11502
 70
    0
 62
    7
  6
CONTINUOUS
  0
LAYER
  5
BF0
330
BB3
100
AcDbSymbolTableRecord
100
AcDbLayerTableRecord
  2
Shape11503
 70
    0
 62
    7
  6
CONTINUOUS
  0
LAYER
  5
BF1
330
BB3
100
AcDbSymbolTableRecord
100
AcDbLayerTableRecord
  2
Shape11504
 70
    0
 62
    7
  6
CONTINUOUS
  0
LAYER
  5
BF2
330
BB3
100
AcDbSymbolTableRecord
100
AcDbLayerTableRecord
  2
Shape11505
 70
    0
 62
    7
  6
CONTINUOUS
  0
LAYER
  5
BF3
330
BB3
100
AcDbSymbolTableRecord
100
AcDbLayerTableRecord
  2
Shape11506
 70
    0
 62
    7
  6
CONTINUOUS
  0
LAYER
  5
BF4
330
BB3
100
AcDbSymbolTableRecord
100
AcDbLayerTableRecord
  2
Shape11507
 70
    0
 62
    7
  6
CONTINUOUS
  0
LAYER
  5
BF5
330
BB3
100
AcDbSymbolTableRecord
100
AcDbLayerTableRecord
  2
Shape11508
 70
    0
 62
    7
  6
CONTINUOUS
  0
LAYER
  5
BF6
330
BB3
100
AcDbSymbolTableRecord
100
AcDbLayerTableRecord
  2
Shape11509
 70
    0
 62
    7
  6
CONTINUOUS
  0
LAYER
  5
BF7
330
BB3
100
AcDbSymbolTableRecord
100
AcDbLayerTableRecord
  2
Shape11510
 70
    0
 62
    7
  6
CONTINUOUS
  0
LAYER
  5
BF8
330
BB3
100
AcDbSymbolTableRecord
100
AcDbLayerTableRecord
  2
Shape11511
 70
    0
 62
    7
  6
CONTINUOUS
  0
LAYER
  5
BF9
330
BB3
100
AcDbSymbolTableRecord
100
AcDbLayerTableRecord
  2
Shape11512
 70
    0
 62
    7
  6
CONTINUOUS
  0
LAYER
  5
BFA
330
BB3
100
AcDbSymbolTableRecord
100
AcDbLayerTableRecord
  2
Shape11513
 70
    0
 62
    7
  6
CONTINUOUS
  0
LAYER
  5
BFB
330
BB3
100
AcDbSymbolTableRecord
100
AcDbLayerTableRecord
  2
Shape11514
 70
    0
 62
    7
  6
CONTINUOUS
  0
LAYER
  5
BFC
330
BB3
100
AcDbSymbolTableRecord
100
AcDbLayerTableRecord
  2
Shape11515
 70
    0
 62
    7
  6
CONTINUOUS
  0
LAYER
  5
BFD
330
BB3
100
AcDbSymbolTableRecord
100
AcDbLayerTableRecord
  2
Shape11516
 70
    0
 62
    7
  6
CONTINUOUS
  0
LAYER
  5
BFE
330
BB3
100
AcDbSymbolTableRecord
100
AcDbLayerTableRecord
  2
Shape11517
 70
    0
 62
    7
  6
CONTINUOUS
  0
LAYER
  5
BFF
330
BB3
100
AcDbSymbolTableRecord
100
AcDbLayerTableRecord
  2
Shape11518
 70
    0
 62
    7
  6
CONTINUOUS
  0
LAYER
  5
C00
330
BB3
100
AcDbSymbolTableRecord
100
AcDbLayerTableRecord
  2
Shape11519
 70
    0
 62
    7
  6
CONTINUOUS
  0
LAYER
  5
C01
330
BB3
100
AcDbSymbolTableRecord
100
AcDbLayerTableRecord
  2
Shape11520
 70
    0
 62
    7
  6
CONTINUOUS
  0
LAYER
  5
C02
330
BB3
100
AcDbSymbolTableRecord
100
AcDbLayerTableRecord
  2
Shape11521
 70
    0
 62
    7
  6
CONTINUOUS
  0
LAYER
  5
C03
330
BB3
100
AcDbSymbolTableRecord
100
AcDbLayerTableRecord
  2
Shape11522
 70
    0
 62
    7
  6
CONTINUOUS
  0
LAYER
  5
C04
330
BB3
100
AcDbSymbolTableRecord
100
AcDbLayerTableRecord
  2
Shape11523
 70
    0
 62
    7
  6
CONTINUOUS
  0
LAYER
  5
C05
330
BB3
100
AcDbSymbolTableRecord
100
AcDbLayerTableRecord
  2
Shape11524
 70
    0
 62
    7
  6
CONTINUOUS
  0
LAYER
  5
C06
330
BB3
100
AcDbSymbolTableRecord
100
AcDbLayerTableRecord
  2
Shape11525
 70
    0
 62
    7
  6
CONTINUOUS
  0
LAYER
  5
C07
330
BB3
100
AcDbSymbolTableRecord
100
AcDbLayerTableRecord
  2
Shape11526
 70
    0
 62
    7
  6
CONTINUOUS
  0
LAYER
  5
C08
330
BB3
100
AcDbSymbolTableRecord
100
AcDbLayerTableRecord
  2
Shape11527
 70
    0
 62
    7
  6
CONTINUOUS
  0
LAYER
  5
C09
330
BB3
100
AcDbSymbolTableRecord
100
AcDbLayerTableRecord
  2
Shape11528
 70
    0
 62
    7
  6
CONTINUOUS
  0
LAYER
  5
C0A
330
BB3
100
AcDbSymbolTableRecord
100
AcDbLayerTableRecord
  2
Shape11529
 70
    0
 62
    7
  6
CONTINUOUS
  0
LAYER
  5
C0B
330
BB3
100
AcDbSymbolTableRecord
100
AcDbLayerTableRecord
  2
Shape11530
 70
    0
 62
    7
  6
CONTINUOUS
  0
LAYER
  5
C0C
330
BB3
100
AcDbSymbolTableRecord
100
AcDbLayerTableRecord
  2
Shape11531
 70
    0
 62
    7
  6
CONTINUOUS
  0
LAYER
  5
C0D
330
BB3
100
AcDbSymbolTableRecord
100
AcDbLayerTableRecord
  2
Shape11532
 70
    0
 62
    7
  6
CONTINUOUS
  0
LAYER
  5
C0E
330
BB3
100
AcDbSymbolTableRecord
100
AcDbLayerTableRecord
  2
Shape11533
 70
    0
 62
    7
  6
CONTINUOUS
  0
LAYER
  5
C0F
330
BB3
100
AcDbSymbolTableRecord
100
AcDbLayerTableRecord
  2
Shape11534
 70
    0
 62
    7
  6
CONTINUOUS
  0
LAYER
  5
C10
330
BB3
100
AcDbSymbolTableRecord
100
AcDbLayerTableRecord
  2
Shape11535
 70
    0
 62
    7
  6
CONTINUOUS
  0
LAYER
  5
C11
330
BB3
100
AcDbSymbolTableRecord
100
AcDbLayerTableRecord
  2
Shape11536
 70
    0
 62
    7
  6
CONTINUOUS
  0
LAYER
  5
C12
330
BB3
100
AcDbSymbolTableRecord
100
AcDbLayerTableRecord
  2
Shape11537
 70
    0
 62
    7
  6
CONTINUOUS
  0
LAYER
  5
C13
330
BB3
100
AcDbSymbolTableRecord
100
AcDbLayerTableRecord
  2
Shape11538
 70
    0
 62
    7
  6
CONTINUOUS
  0
LAYER
  5
C14
330
BB3
100
AcDbSymbolTableRecord
100
AcDbLayerTableRecord
  2
Shape11539
 70
    0
 62
    7
  6
CONTINUOUS
  0
LAYER
  5
C15
330
BB3
100
AcDbSymbolTableRecord
100
AcDbLayerTableRecord
  2
Shape11540
 70
    0
 62
    7
  6
CONTINUOUS
  0
LAYER
  5
C16
330
BB3
100
AcDbSymbolTableRecord
100
AcDbLayerTableRecord
  2
Shape11541
 70
    0
 62
    7
  6
CONTINUOUS
  0
LAYER
  5
C17
330
BB3
100
AcDbSymbolTableRecord
100
AcDbLayerTableRecord
  2
Shape11542
 70
    0
 62
    7
  6
CONTINUOUS
  0
LAYER
  5
C18
330
BB3
100
AcDbSymbolTableRecord
100
AcDbLayerTableRecord
  2
Shape11543
 70
    0
 62
    7
  6
CONTINUOUS
  0
LAYER
  5
C19
330
BB3
100
AcDbSymbolTableRecord
100
AcDbLayerTableRecord
  2
Shape11544
 70
    0
 62
    7
  6
CONTINUOUS
  0
LAYER
  5
C1A
330
BB3
100
AcDbSymbolTableRecord
100
AcDbLayerTableRecord
  2
Shape11545
 70
    0
 62
    7
  6
CONTINUOUS
  0
LAYER
  5
C1B
330
BB3
100
AcDbSymbolTableRecord
100
AcDbLayerTableRecord
  2
Shape11546
 70
    0
 62
    7
  6
CONTINUOUS
  0
LAYER
  5
C1C
330
BB3
100
AcDbSymbolTableRecord
100
AcDbLayerTableRecord
  2
Shape11547
 70
    0
 62
    7
  6
CONTINUOUS
  0
LAYER
  5
C1D
330
BB3
100
AcDbSymbolTableRecord
100
AcDbLayerTableRecord
  2
Shape11548
 70
    0
 62
    7
  6
CONTINUOUS
  0
LAYER
  5
C1E
330
BB3
100
AcDbSymbolTableRecord
100
AcDbLayerTableRecord
  2
Shape11549
 70
    0
 62
    7
  6
CONTINUOUS
  0
LAYER
  5
C1F
330
BB3
100
AcDbSymbolTableRecord
100
AcDbLayerTableRecord
  2
Shape11550
 70
    0
 62
    7
  6
CONTINUOUS
  0
LAYER
  5
C20
330
BB3
100
AcDbSymbolTableRecord
100
AcDbLayerTableRecord
  2
Shape11551
 70
    0
 62
    7
  6
CONTINUOUS
  0
LAYER
  5
C21
330
BB3
100
AcDbSymbolTableRecord
100
AcDbLayerTableRecord
  2
Shape11552
 70
    0
 62
    7
  6
CONTINUOUS
  0
LAYER
  5
C22
330
BB3
100
AcDbSymbolTableRecord
100
AcDbLayerTableRecord
  2
Shape11553
 70
    0
 62
    7
  6
CONTINUOUS
  0
LAYER
  5
C23
330
BB3
100
AcDbSymbolTableRecord
100
AcDbLayerTableRecord
  2
Shape11554
 70
    0
 62
    7
  6
CONTINUOUS
  0
LAYER
  5
C24
330
BB3
100
AcDbSymbolTableRecord
100
AcDbLayerTableRecord
  2
Shape11555
 70
    0
 62
    7
  6
CONTINUOUS
  0
LAYER
  5
C25
330
BB3
100
AcDbSymbolTableRecord
100
AcDbLayerTableRecord
  2
Shape11556
 70
    0
 62
    7
  6
CONTINUOUS
  0
LAYER
  5
C26
330
BB3
100
AcDbSymbolTableRecord
100
AcDbLayerTableRecord
  2
Shape11557
 70
    0
 62
    7
  6
CONTINUOUS
  0
LAYER
  5
C27
330
BB3
100
AcDbSymbolTableRecord
100
AcDbLayerTableRecord
  2
Shape11558
 70
    0
 62
    7
  6
CONTINUOUS
  0
LAYER
  5
C28
330
BB3
100
AcDbSymbolTableRecord
100
AcDbLayerTableRecord
  2
Shape11559
 70
    0
 62
    7
  6
CONTINUOUS
  0
LAYER
  5
C29
330
BB3
100
AcDbSymbolTableRecord
100
AcDbLayerTableRecord
  2
Shape11560
 70
    0
 62
    7
  6
CONTINUOUS
  0
LAYER
  5
C2A
330
BB3
100
AcDbSymbolTableRecord
100
AcDbLayerTableRecord
  2
Shape11561
 70
    0
 62
    7
  6
CONTINUOUS
  0
LAYER
  5
C2B
330
BB3
100
AcDbSymbolTableRecord
100
AcDbLayerTableRecord
  2
Shape11562
 70
    0
 62
    7
  6
CONTINUOUS
  0
LAYER
  5
C2C
330
BB3
100
AcDbSymbolTableRecord
100
AcDbLayerTableRecord
  2
Shape11563
 70
    0
 62
    7
  6
CONTINUOUS
  0
LAYER
  5
C2D
330
BB3
100
AcDbSymbolTableRecord
100
AcDbLayerTableRecord
  2
Shape11564
 70
    0
 62
    7
  6
CONTINUOUS
  0
LAYER
  5
C2E
330
BB3
100
AcDbSymbolTableRecord
100
AcDbLayerTableRecord
  2
Shape11565
 70
    0
 62
    7
  6
CONTINUOUS
  0
LAYER
  5
C2F
330
BB3
100
AcDbSymbolTableRecord
100
AcDbLayerTableRecord
  2
Shape11566
 70
    0
 62
    7
  6
CONTINUOUS
  0
LAYER
  5
C30
330
BB3
100
AcDbSymbolTableRecord
100
AcDbLayerTableRecord
  2
Shape11567
 70
    0
 62
    7
  6
CONTINUOUS
  0
LAYER
  5
C31
330
BB3
100
AcDbSymbolTableRecord
100
AcDbLayerTableRecord
  2
Shape11568
 70
    0
 62
    7
  6
CONTINUOUS
  0
LAYER
  5
C32
330
BB3
100
AcDbSymbolTableRecord
100
AcDbLayerTableRecord
  2
Shape11569
 70
    0
 62
    7
  6
CONTINUOUS
  0
LAYER
  5
C33
330
BB3
100
AcDbSymbolTableRecord
100
AcDbLayerTableRecord
  2
Shape11570
 70
    0
 62
    7
  6
CONTINUOUS
  0
LAYER
  5
C34
330
BB3
100
AcDbSymbolTableRecord
100
AcDbLayerTableRecord
  2
Shape11571
 70
    0
 62
    7
  6
CONTINUOUS
  0
LAYER
  5
C35
330
BB3
100
AcDbSymbolTableRecord
100
AcDbLayerTableRecord
  2
Shape11572
 70
    0
 62
    7
  6
CONTINUOUS
  0
LAYER
  5
C36
330
BB3
100
AcDbSymbolTableRecord
100
AcDbLayerTableRecord
  2
Shape11573
 70
    0
 62
    7
  6
CONTINUOUS
  0
LAYER
  5
C37
330
BB3
100
AcDbSymbolTableRecord
100
AcDbLayerTableRecord
  2
Shape11574
 70
    0
 62
    7
  6
CONTINUOUS
  0
LAYER
  5
C38
330
BB3
100
AcDbSymbolTableRecord
100
AcDbLayerTableRecord
  2
Shape11575
 70
    0
 62
    7
  6
CONTINUOUS
  0
LAYER
  5
C39
330
BB3
100
AcDbSymbolTableRecord
100
AcDbLayerTableRecord
  2
Shape11576
 70
    0
 62
    7
  6
CONTINUOUS
  0
LAYER
  5
C3A
330
BB3
100
AcDbSymbolTableRecord
100
AcDbLayerTableRecord
  2
Shape11577
 70
    0
 62
    7
  6
CONTINUOUS
  0
LAYER
  5
C3B
330
BB3
100
AcDbSymbolTableRecord
100
AcDbLayerTableRecord
  2
Shape11578
 70
    0
 62
    7
  6
CONTINUOUS
  0
LAYER
  5
C3C
330
BB3
100
AcDbSymbolTableRecord
100
AcDbLayerTableRecord
  2
Shape11579
 70
    0
 62
    7
  6
CONTINUOUS
  0
LAYER
  5
C3D
330
BB3
100
AcDbSymbolTableRecord
100
AcDbLayerTableRecord
  2
Shape11580
 70
    0
 62
    7
  6
CONTINUOUS
  0
LAYER
  5
C3E
330
BB3
100
AcDbSymbolTableRecord
100
AcDbLayerTableRecord
  2
Shape11581
 70
    0
 62
    7
  6
CONTINUOUS
  0
LAYER
  5
C3F
330
BB3
100
AcDbSymbolTableRecord
100
AcDbLayerTableRecord
  2
Shape11582
 70
    0
 62
    7
  6
CONTINUOUS
  0
LAYER
  5
C40
330
BB3
100
AcDbSymbolTableRecord
100
AcDbLayerTableRecord
  2
Shape11583
 70
    0
 62
    7
  6
CONTINUOUS
  0
LAYER
  5
C41
330
BB3
100
AcDbSymbolTableRecord
100
AcDbLayerTableRecord
  2
Shape11584
 70
    0
 62
    7
  6
CONTINUOUS
  0
LAYER
  5
C42
330
BB3
100
AcDbSymbolTableRecord
100
AcDbLayerTableRecord
  2
Shape11585
 70
    0
 62
    7
  6
CONTINUOUS
  0
LAYER
  5
C43
330
BB3
100
AcDbSymbolTableRecord
100
AcDbLayerTableRecord
  2
Shape11586
 70
    0
 62
    7
  6
CONTINUOUS
  0
LAYER
  5
C44
330
BB3
100
AcDbSymbolTableRecord
100
AcDbLayerTableRecord
  2
Shape11587
 70
    0
 62
    7
  6
CONTINUOUS
  0
LAYER
  5
C45
330
BB3
100
AcDbSymbolTableRecord
100
AcDbLayerTableRecord
  2
Shape11588
 70
    0
 62
    7
  6
CONTINUOUS
  0
LAYER
  5
C46
330
BB3
100
AcDbSymbolTableRecord
100
AcDbLayerTableRecord
  2
Shape11589
 70
    0
 62
    7
  6
CONTINUOUS
  0
LAYER
  5
C47
330
BB3
100
AcDbSymbolTableRecord
100
AcDbLayerTableRecord
  2
Shape11590
 70
    0
 62
    7
  6
CONTINUOUS
  0
LAYER
  5
C48
330
BB3
100
AcDbSymbolTableRecord
100
AcDbLayerTableRecord
  2
Shape11591
 70
    0
 62
    7
  6
CONTINUOUS
  0
LAYER
  5
C49
330
BB3
100
AcDbSymbolTableRecord
100
AcDbLayerTableRecord
  2
Shape11592
 70
    0
 62
    7
  6
CONTINUOUS
  0
LAYER
  5
C4A
330
BB3
100
AcDbSymbolTableRecord
100
AcDbLayerTableRecord
  2
Shape11593
 70
    0
 62
    7
  6
CONTINUOUS
  0
LAYER
  5
C4B
330
BB3
100
AcDbSymbolTableRecord
100
AcDbLayerTableRecord
  2
Shape11594
 70
    0
 62
    7
  6
CONTINUOUS
  0
LAYER
  5
C4C
330
BB3
100
AcDbSymbolTableRecord
100
AcDbLayerTableRecord
  2
Shape11595
 70
    0
 62
    7
  6
CONTINUOUS
  0
LAYER
  5
C4D
330
BB3
100
AcDbSymbolTableRecord
100
AcDbLayerTableRecord
  2
Shape11596
 70
    0
 62
    7
  6
CONTINUOUS
  0
LAYER
  5
C4E
330
BB3
100
AcDbSymbolTableRecord
100
AcDbLayerTableRecord
  2
Shape11597
 70
    0
 62
    7
  6
CONTINUOUS
  0
LAYER
  5
C4F
330
BB3
100
AcDbSymbolTableRecord
100
AcDbLayerTableRecord
  2
Shape11598
 70
    0
 62
    7
  6
CONTINUOUS
  0
LAYER
  5
C50
330
BB3
100
AcDbSymbolTableRecord
100
AcDbLayerTableRecord
  2
Shape11599
 70
    0
 62
    7
  6
CONTINUOUS
  0
LAYER
  5
C51
330
BB3
100
AcDbSymbolTableRecord
100
AcDbLayerTableRecord
  2
Shape11600
 70
    0
 62
    7
  6
CONTINUOUS
  0
LAYER
  5
C52
330
BB3
100
AcDbSymbolTableRecord
100
AcDbLayerTableRecord
  2
Shape11601
 70
    0
 62
    7
  6
CONTINUOUS
  0
LAYER
  5
C53
330
BB3
100
AcDbSymbolTableRecord
100
AcDbLayerTableRecord
  2
Shape11602
 70
    0
 62
    7
  6
CONTINUOUS
  0
LAYER
  5
C54
330
BB3
100
AcDbSymbolTableRecord
100
AcDbLayerTableRecord
  2
Shape11603
 70
    0
 62
    7
  6
CONTINUOUS
  0
LAYER
  5
C55
330
BB3
100
AcDbSymbolTableRecord
100
AcDbLayerTableRecord
  2
Shape11604
 70
    0
 62
    7
  6
CONTINUOUS
  0
LAYER
  5
C56
330
BB3
100
AcDbSymbolTableRecord
100
AcDbLayerTableRecord
  2
Shape11605
 70
    0
 62
    7
  6
CONTINUOUS
  0
LAYER
  5
C57
330
BB3
100
AcDbSymbolTableRecord
100
AcDbLayerTableRecord
  2
Shape11606
 70
    0
 62
    7
  6
CONTINUOUS
  0
LAYER
  5
C58
330
BB3
100
AcDbSymbolTableRecord
100
AcDbLayerTableRecord
  2
Shape11607
 70
    0
 62
    7
  6
CONTINUOUS
  0
LAYER
  5
C59
330
BB3
100
AcDbSymbolTableRecord
100
AcDbLayerTableRecord
  2
Shape11608
 70
    0
 62
    7
  6
CONTINUOUS
  0
LAYER
  5
C5A
330
BB3
100
AcDbSymbolTableRecord
100
AcDbLayerTableRecord
  2
Shape11609
 70
    0
 62
    7
  6
CONTINUOUS
  0
LAYER
  5
C5B
330
BB3
100
AcDbSymbolTableRecord
100
AcDbLayerTableRecord
  2
Shape11610
 70
    0
 62
    7
  6
CONTINUOUS
  0
LAYER
  5
C5C
330
BB3
100
AcDbSymbolTableRecord
100
AcDbLayerTableRecord
  2
Shape11611
 70
    0
 62
    7
  6
CONTINUOUS
  0
LAYER
  5
C5D
330
BB3
100
AcDbSymbolTableRecord
100
AcDbLayerTableRecord
  2
Shape11612
 70
    0
 62
    7
  6
CONTINUOUS
  0
LAYER
  5
C5E
330
BB3
100
AcDbSymbolTableRecord
100
AcDbLayerTableRecord
  2
Shape11613
 70
    0
 62
    7
  6
CONTINUOUS
  0
LAYER
  5
C5F
330
BB3
100
AcDbSymbolTableRecord
100
AcDbLayerTableRecord
  2
Shape11614
 70
    0
 62
    7
  6
CONTINUOUS
  0
LAYER
  5
C60
330
BB3
100
AcDbSymbolTableRecord
100
AcDbLayerTableRecord
  2
Shape11615
 70
    0
 62
    7
  6
CONTINUOUS
  0
LAYER
  5
C61
330
BB3
100
AcDbSymbolTableRecord
100
AcDbLayerTableRecord
  2
Shape11616
 70
    0
 62
    7
  6
CONTINUOUS
  0
LAYER
  5
C62
330
BB3
100
AcDbSymbolTableRecord
100
AcDbLayerTableRecord
  2
Shape11617
 70
    0
 62
    7
  6
CONTINUOUS
  0
LAYER
  5
C63
330
BB3
100
AcDbSymbolTableRecord
100
AcDbLayerTableRecord
  2
Shape11618
 70
    0
 62
    7
  6
CONTINUOUS
  0
LAYER
  5
C64
330
BB3
100
AcDbSymbolTableRecord
100
AcDbLayerTableRecord
  2
Shape11619
 70
    0
 62
    7
  6
CONTINUOUS
  0
LAYER
  5
C65
330
BB3
100
AcDbSymbolTableRecord
100
AcDbLayerTableRecord
  2
Shape11620
 70
    0
 62
    7
  6
CONTINUOUS
  0
LAYER
  5
C66
330
BB3
100
AcDbSymbolTableRecord
100
AcDbLayerTableRecord
  2
Shape11621
 70
    0
 62
    7
  6
CONTINUOUS
  0
LAYER
  5
C67
330
BB3
100
AcDbSymbolTableRecord
100
AcDbLayerTableRecord
  2
Shape11622
 70
    0
 62
    7
  6
CONTINUOUS
  0
LAYER
  5
C68
330
BB3
100
AcDbSymbolTableRecord
100
AcDbLayerTableRecord
  2
Shape11623
 70
    0
 62
    7
  6
CONTINUOUS
  0
LAYER
  5
C69
330
BB3
100
AcDbSymbolTableRecord
100
AcDbLayerTableRecord
  2
Shape11624
 70
    0
 62
    7
  6
CONTINUOUS
  0
LAYER
  5
C6A
330
BB3
100
AcDbSymbolTableRecord
100
AcDbLayerTableRecord
  2
Shape11625
 70
    0
 62
    7
  6
CONTINUOUS
  0
LAYER
  5
C6B
330
BB3
100
AcDbSymbolTableRecord
100
AcDbLayerTableRecord
  2
Shape11626
 70
    0
 62
    7
  6
CONTINUOUS
  0
LAYER
  5
C6C
330
BB3
100
AcDbSymbolTableRecord
100
AcDbLayerTableRecord
  2
Shape11627
 70
    0
 62
    7
  6
CONTINUOUS
  0
LAYER
  5
C6D
330
BB3
100
AcDbSymbolTableRecord
100
AcDbLayerTableRecord
  2
Shape11628
 70
    0
 62
    7
  6
CONTINUOUS
  0
LAYER
  5
C6E
330
BB3
100
AcDbSymbolTableRecord
100
AcDbLayerTableRecord
  2
Shape11629
 70
    0
 62
    7
  6
CONTINUOUS
  0
LAYER
  5
C6F
330
BB3
100
AcDbSymbolTableRecord
100
AcDbLayerTableRecord
  2
Shape11630
 70
    0
 62
    7
  6
CONTINUOUS
  0
LAYER
  5
C70
330
BB3
100
AcDbSymbolTableRecord
100
AcDbLayerTableRecord
  2
Shape11631
 70
    0
 62
    7
  6
CONTINUOUS
  0
LAYER
  5
C71
330
BB3
100
AcDbSymbolTableRecord
100
AcDbLayerTableRecord
  2
Shape11632
 70
    0
 62
    7
  6
CONTINUOUS
  0
LAYER
  5
C72
330
BB3
100
AcDbSymbolTableRecord
100
AcDbLayerTableRecord
  2
Shape11633
 70
    0
 62
    7
  6
CONTINUOUS
  0
LAYER
  5
C73
330
BB3
100
AcDbSymbolTableRecord
100
AcDbLayerTableRecord
  2
Shape11634
 70
    0
 62
    7
  6
CONTINUOUS
  0
LAYER
  5
C74
330
BB3
100
AcDbSymbolTableRecord
100
AcDbLayerTableRecord
  2
Shape11635
 70
    0
 62
    7
  6
CONTINUOUS
  0
LAYER
  5
C75
330
BB3
100
AcDbSymbolTableRecord
100
AcDbLayerTableRecord
  2
Shape11636
 70
    0
 62
    7
  6
CONTINUOUS
  0
LAYER
  5
C76
330
BB3
100
AcDbSymbolTableRecord
100
AcDbLayerTableRecord
  2
Shape11637
 70
    0
 62
    7
  6
CONTINUOUS
  0
LAYER
  5
C77
330
BB3
100
AcDbSymbolTableRecord
100
AcDbLayerTableRecord
  2
Shape11638
 70
    0
 62
    7
  6
CONTINUOUS
  0
LAYER
  5
C78
330
BB3
100
AcDbSymbolTableRecord
100
AcDbLayerTableRecord
  2
Shape11639
 70
    0
 62
    7
  6
CONTINUOUS
  0
LAYER
  5
C79
330
BB3
100
AcDbSymbolTableRecord
100
AcDbLayerTableRecord
  2
Shape11640
 70
    0
 62
    7
  6
CONTINUOUS
  0
LAYER
  5
C7A
330
BB3
100
AcDbSymbolTableRecord
100
AcDbLayerTableRecord
  2
Shape11641
 70
    0
 62
    7
  6
CONTINUOUS
  0
LAYER
  5
C7B
330
BB3
100
AcDbSymbolTableRecord
100
AcDbLayerTableRecord
  2
Shape11642
 70
    0
 62
    7
  6
CONTINUOUS
  0
LAYER
  5
C7C
330
BB3
100
AcDbSymbolTableRecord
100
AcDbLayerTableRecord
  2
Shape11643
 70
    0
 62
    7
  6
CONTINUOUS
  0
LAYER
  5
C7D
330
BB3
100
AcDbSymbolTableRecord
100
AcDbLayerTableRecord
  2
Shape11644
 70
    0
 62
    7
  6
CONTINUOUS
  0
LAYER
  5
C7E
330
BB3
100
AcDbSymbolTableRecord
100
AcDbLayerTableRecord
  2
Shape11645
 70
    0
 62
    7
  6
CONTINUOUS
  0
LAYER
  5
C7F
330
BB3
100
AcDbSymbolTableRecord
100
AcDbLayerTableRecord
  2
Shape11646
 70
    0
 62
    7
  6
CONTINUOUS
  0
LAYER
  5
C80
330
BB3
100
AcDbSymbolTableRecord
100
AcDbLayerTableRecord
  2
Shape11647
 70
    0
 62
    7
  6
CONTINUOUS
  0
LAYER
  5
C81
330
BB3
100
AcDbSymbolTableRecord
100
AcDbLayerTableRecord
  2
Shape11648
 70
    0
 62
    7
  6
CONTINUOUS
  0
LAYER
  5
C82
330
BB3
100
AcDbSymbolTableRecord
100
AcDbLayerTableRecord
  2
Shape11649
 70
    0
 62
    7
  6
CONTINUOUS
  0
LAYER
  5
C83
330
BB3
100
AcDbSymbolTableRecord
100
AcDbLayerTableRecord
  2
Shape11650
 70
    0
 62
    7
  6
CONTINUOUS
  0
LAYER
  5
C84
330
BB3
100
AcDbSymbolTableRecord
100
AcDbLayerTableRecord
  2
Shape11651
 70
    0
 62
    7
  6
CONTINUOUS
  0
LAYER
  5
C85
330
BB3
100
AcDbSymbolTableRecord
100
AcDbLayerTableRecord
  2
Shape11652
 70
    0
 62
    7
  6
CONTINUOUS
  0
LAYER
  5
C86
330
BB3
100
AcDbSymbolTableRecord
100
AcDbLayerTableRecord
  2
Shape11653
 70
    0
 62
    7
  6
CONTINUOUS
  0
LAYER
  5
C87
330
BB3
100
AcDbSymbolTableRecord
100
AcDbLayerTableRecord
  2
Shape11654
 70
    0
 62
    7
  6
CONTINUOUS
  0
LAYER
  5
C88
330
BB3
100
AcDbSymbolTableRecord
100
AcDbLayerTableRecord
  2
Shape11655
 70
    0
 62
    7
  6
CONTINUOUS
  0
LAYER
  5
C89
330
BB3
100
AcDbSymbolTableRecord
100
AcDbLayerTableRecord
  2
Shape11656
 70
    0
 62
    7
  6
CONTINUOUS
  0
LAYER
  5
C8A
330
BB3
100
AcDbSymbolTableRecord
100
AcDbLayerTableRecord
  2
Shape11657
 70
    0
 62
    7
  6
CONTINUOUS
  0
LAYER
  5
C8B
330
BB3
100
AcDbSymbolTableRecord
100
AcDbLayerTableRecord
  2
Shape11658
 70
    0
 62
    7
  6
CONTINUOUS
  0
LAYER
  5
C8C
330
BB3
100
AcDbSymbolTableRecord
100
AcDbLayerTableRecord
  2
Shape11659
 70
    0
 62
    7
  6
CONTINUOUS
  0
LAYER
  5
C8D
330
BB3
100
AcDbSymbolTableRecord
100
AcDbLayerTableRecord
  2
Shape11660
 70
    0
 62
    7
  6
CONTINUOUS
  0
LAYER
  5
C8E
330
BB3
100
AcDbSymbolTableRecord
100
AcDbLayerTableRecord
  2
Shape11661
 70
    0
 62
    7
  6
CONTINUOUS
  0
LAYER
  5
C8F
330
BB3
100
AcDbSymbolTableRecord
100
AcDbLayerTableRecord
  2
Shape11662
 70
    0
 62
    7
  6
CONTINUOUS
  0
LAYER
  5
C90
330
BB3
100
AcDbSymbolTableRecord
100
AcDbLayerTableRecord
  2
Shape11663
 70
    0
 62
    7
  6
CONTINUOUS
  0
LAYER
  5
C91
330
BB3
100
AcDbSymbolTableRecord
100
AcDbLayerTableRecord
  2
Shape11664
 70
    0
 62
    7
  6
CONTINUOUS
  0
LAYER
  5
C92
330
BB3
100
AcDbSymbolTableRecord
100
AcDbLayerTableRecord
  2
Shape11665
 70
    0
 62
    7
  6
CONTINUOUS
  0
LAYER
  5
C93
330
BB3
100
AcDbSymbolTableRecord
100
AcDbLayerTableRecord
  2
Shape11666
 70
    0
 62
    7
  6
CONTINUOUS
  0
LAYER
  5
C94
330
BB3
100
AcDbSymbolTableRecord
100
AcDbLayerTableRecord
  2
Shape11667
 70
    0
 62
    7
  6
CONTINUOUS
  0
LAYER
  5
C95
330
BB3
100
AcDbSymbolTableRecord
100
AcDbLayerTableRecord
  2
Shape11668
 70
    0
 62
    7
  6
CONTINUOUS
  0
LAYER
  5
C96
330
BB3
100
AcDbSymbolTableRecord
100
AcDbLayerTableRecord
  2
Shape11669
 70
    0
 62
    7
  6
CONTINUOUS
  0
LAYER
  5
C97
330
BB3
100
AcDbSymbolTableRecord
100
AcDbLayerTableRecord
  2
Shape11670
 70
    0
 62
    7
  6
CONTINUOUS
  0
LAYER
  5
C98
330
BB3
100
AcDbSymbolTableRecord
100
AcDbLayerTableRecord
  2
Shape11671
 70
    0
 62
    7
  6
CONTINUOUS
  0
LAYER
  5
C99
330
BB3
100
AcDbSymbolTableRecord
100
AcDbLayerTableRecord
  2
Shape11672
 70
    0
 62
    7
  6
CONTINUOUS
  0
LAYER
  5
C9A
330
BB3
100
AcDbSymbolTableRecord
100
AcDbLayerTableRecord
  2
Shape11673
 70
    0
 62
    7
  6
CONTINUOUS
  0
LAYER
  5
C9B
330
BB3
100
AcDbSymbolTableRecord
100
AcDbLayerTableRecord
  2
Shape11674
 70
    0
 62
    7
  6
CONTINUOUS
  0
LAYER
  5
C9C
330
BB3
100
AcDbSymbolTableRecord
100
AcDbLayerTableRecord
  2
Shape11675
 70
    0
 62
    7
  6
CONTINUOUS
  0
LAYER
  5
C9D
330
BB3
100
AcDbSymbolTableRecord
100
AcDbLayerTableRecord
  2
Shape11676
 70
    0
 62
    7
  6
CONTINUOUS
  0
LAYER
  5
C9E
330
BB3
100
AcDbSymbolTableRecord
100
AcDbLayerTableRecord
  2
Shape11677
 70
    0
 62
    7
  6
CONTINUOUS
  0
LAYER
  5
C9F
330
BB3
100
AcDbSymbolTableRecord
100
AcDbLayerTableRecord
  2
Shape11678
 70
    0
 62
    7
  6
CONTINUOUS
  0
LAYER
  5
CA0
330
BB3
100
AcDbSymbolTableRecord
100
AcDbLayerTableRecord
  2
Shape11679
 70
    0
 62
    7
  6
CONTINUOUS
  0
LAYER
  5
CA1
330
BB3
100
AcDbSymbolTableRecord
100
AcDbLayerTableRecord
  2
Shape11680
 70
    0
 62
    7
  6
CONTINUOUS
  0
LAYER
  5
CA2
330
BB3
100
AcDbSymbolTableRecord
100
AcDbLayerTableRecord
  2
Shape11681
 70
    0
 62
    7
  6
CONTINUOUS
  0
LAYER
  5
CA3
330
BB3
100
AcDbSymbolTableRecord
100
AcDbLayerTableRecord
  2
Shape11682
 70
    0
 62
    7
  6
CONTINUOUS
  0
LAYER
  5
CA4
330
BB3
100
AcDbSymbolTableRecord
100
AcDbLayerTableRecord
  2
Shape11683
 70
    0
 62
    7
  6
CONTINUOUS
  0
LAYER
  5
CA5
330
BB3
100
AcDbSymbolTableRecord
100
AcDbLayerTableRecord
  2
Shape11684
 70
    0
 62
    7
  6
CONTINUOUS
  0
LAYER
  5
CA6
330
BB3
100
AcDbSymbolTableRecord
100
AcDbLayerTableRecord
  2
Shape11685
 70
    0
 62
    7
  6
CONTINUOUS
  0
LAYER
  5
CA7
330
BB3
100
AcDbSymbolTableRecord
100
AcDbLayerTableRecord
  2
Shape11686
 70
    0
 62
    7
  6
CONTINUOUS
  0
LAYER
  5
CA8
330
BB3
100
AcDbSymbolTableRecord
100
AcDbLayerTableRecord
  2
Shape11687
 70
    0
 62
    7
  6
CONTINUOUS
  0
LAYER
  5
CA9
330
BB3
100
AcDbSymbolTableRecord
100
AcDbLayerTableRecord
  2
Shape11688
 70
    0
 62
    7
  6
CONTINUOUS
  0
LAYER
  5
CAA
330
BB3
100
AcDbSymbolTableRecord
100
AcDbLayerTableRecord
  2
Shape11689
 70
    0
 62
    7
  6
CONTINUOUS
  0
LAYER
  5
CAB
330
BB3
100
AcDbSymbolTableRecord
100
AcDbLayerTableRecord
  2
Shape11690
 70
    0
 62
    7
  6
CONTINUOUS
  0
LAYER
  5
CAC
330
BB3
100
AcDbSymbolTableRecord
100
AcDbLayerTableRecord
  2
Shape11691
 70
    0
 62
    7
  6
CONTINUOUS
  0
LAYER
  5
CAD
330
BB3
100
AcDbSymbolTableRecord
100
AcDbLayerTableRecord
  2
Shape11692
 70
    0
 62
    7
  6
CONTINUOUS
  0
LAYER
  5
CAE
330
BB3
100
AcDbSymbolTableRecord
100
AcDbLayerTableRecord
  2
Shape11693
 70
    0
 62
    7
  6
CONTINUOUS
  0
LAYER
  5
CAF
330
BB3
100
AcDbSymbolTableRecord
100
AcDbLayerTableRecord
  2
Shape11694
 70
    0
 62
    7
  6
CONTINUOUS
  0
LAYER
  5
CB0
330
BB3
100
AcDbSymbolTableRecord
100
AcDbLayerTableRecord
  2
Shape11695
 70
    0
 62
    7
  6
CONTINUOUS
  0
LAYER
  5
CB1
330
BB3
100
AcDbSymbolTableRecord
100
AcDbLayerTableRecord
  2
Shape11696
 70
    0
 62
    7
  6
CONTINUOUS
  0
LAYER
  5
CB2
330
BB3
100
AcDbSymbolTableRecord
100
AcDbLayerTableRecord
  2
Shape11697
 70
    0
 62
    7
  6
CONTINUOUS
  0
LAYER
  5
CB3
330
BB3
100
AcDbSymbolTableRecord
100
AcDbLayerTableRecord
  2
Shape11698
 70
    0
 62
    7
  6
CONTINUOUS
  0
LAYER
  5
CB4
330
BB3
100
AcDbSymbolTableRecord
100
AcDbLayerTableRecord
  2
Shape11699
 70
    0
 62
    7
  6
CONTINUOUS
  0
LAYER
  5
CB5
330
BB3
100
AcDbSymbolTableRecord
100
AcDbLayerTableRecord
  2
Shape11700
 70
    0
 62
    7
  6
CONTINUOUS
  0
LAYER
  5
CB6
330
BB3
100
AcDbSymbolTableRecord
100
AcDbLayerTableRecord
  2
Shape11701
 70
    0
 62
    7
  6
CONTINUOUS
  0
LAYER
  5
CB7
330
BB3
100
AcDbSymbolTableRecord
100
AcDbLayerTableRecord
  2
Shape11702
 70
    0
 62
    7
  6
CONTINUOUS
  0
LAYER
  5
CB8
330
BB3
100
AcDbSymbolTableRecord
100
AcDbLayerTableRecord
  2
Shape11703
 70
    0
 62
    7
  6
CONTINUOUS
  0
LAYER
  5
CB9
330
BB3
100
AcDbSymbolTableRecord
100
AcDbLayerTableRecord
  2
Shape11704
 70
    0
 62
    7
  6
CONTINUOUS
  0
LAYER
  5
CBA
330
BB3
100
AcDbSymbolTableRecord
100
AcDbLayerTableRecord
  2
Shape11705
 70
    0
 62
    7
  6
CONTINUOUS
  0
LAYER
  5
CBB
330
BB3
100
AcDbSymbolTableRecord
100
AcDbLayerTableRecord
  2
Shape11706
 70
    0
 62
    7
  6
CONTINUOUS
  0
LAYER
  5
CBC
330
BB3
100
AcDbSymbolTableRecord
100
AcDbLayerTableRecord
  2
Shape11707
 70
    0
 62
    7
  6
CONTINUOUS
  0
LAYER
  5
CBD
330
BB3
100
AcDbSymbolTableRecord
100
AcDbLayerTableRecord
  2
Shape11708
 70
    0
 62
    7
  6
CONTINUOUS
  0
LAYER
  5
CBE
330
BB3
100
AcDbSymbolTableRecord
100
AcDbLayerTableRecord
  2
Shape11709
 70
    0
 62
    7
  6
CONTINUOUS
  0
LAYER
  5
CBF
330
BB3
100
AcDbSymbolTableRecord
100
AcDbLayerTableRecord
  2
Shape11710
 70
    0
 62
    7
  6
CONTINUOUS
  0
LAYER
  5
CC0
330
BB3
100
AcDbSymbolTableRecord
100
AcDbLayerTableRecord
  2
Shape11711
 70
    0
 62
    7
  6
CONTINUOUS
  0
LAYER
  5
CC1
330
BB3
100
AcDbSymbolTableRecord
100
AcDbLayerTableRecord
  2
Shape11712
 70
    0
 62
    7
  6
CONTINUOUS
  0
LAYER
  5
CC2
330
BB3
100
AcDbSymbolTableRecord
100
AcDbLayerTableRecord
  2
Shape11713
 70
    0
 62
    7
  6
CONTINUOUS
  0
LAYER
  5
CC3
330
BB3
100
AcDbSymbolTableRecord
100
AcDbLayerTableRecord
  2
Shape11714
 70
    0
 62
    7
  6
CONTINUOUS
  0
LAYER
  5
CC4
330
BB3
100
AcDbSymbolTableRecord
100
AcDbLayerTableRecord
  2
Shape11715
 70
    0
 62
    7
  6
CONTINUOUS
  0
LAYER
  5
CC5
330
BB3
100
AcDbSymbolTableRecord
100
AcDbLayerTableRecord
  2
Shape11716
 70
    0
 62
    7
  6
CONTINUOUS
  0
LAYER
  5
CC6
330
BB3
100
AcDbSymbolTableRecord
100
AcDbLayerTableRecord
  2
Shape11717
 70
    0
 62
    7
  6
CONTINUOUS
  0
LAYER
  5
CC7
330
BB3
100
AcDbSymbolTableRecord
100
AcDbLayerTableRecord
  2
Shape11718
 70
    0
 62
    7
  6
CONTINUOUS
  0
LAYER
  5
CC8
330
BB3
100
AcDbSymbolTableRecord
100
AcDbLayerTableRecord
  2
Shape11719
 70
    0
 62
    7
  6
CONTINUOUS
  0
LAYER
  5
CC9
330
BB3
100
AcDbSymbolTableRecord
100
AcDbLayerTableRecord
  2
Shape11720
 70
    0
 62
    7
  6
CONTINUOUS
  0
LAYER
  5
CCA
330
BB3
100
AcDbSymbolTableRecord
100
AcDbLayerTableRecord
  2
Shape11721
 70
    0
 62
    7
  6
CONTINUOUS
  0
LAYER
  5
CCB
330
BB3
100
AcDbSymbolTableRecord
100
AcDbLayerTableRecord
  2
Shape11722
 70
    0
 62
    7
  6
CONTINUOUS
  0
LAYER
  5
CCC
330
BB3
100
AcDbSymbolTableRecord
100
AcDbLayerTableRecord
  2
Shape11723
 70
    0
 62
    7
  6
CONTINUOUS
  0
LAYER
  5
CCD
330
BB3
100
AcDbSymbolTableRecord
100
AcDbLayerTableRecord
  2
Shape11724
 70
    0
 62
    7
  6
CONTINUOUS
  0
LAYER
  5
CCE
330
BB3
100
AcDbSymbolTableRecord
100
AcDbLayerTableRecord
  2
Shape11725
 70
    0
 62
    7
  6
CONTINUOUS
  0
LAYER
  5
CCF
330
BB3
100
AcDbSymbolTableRecord
100
AcDbLayerTableRecord
  2
Shape11726
 70
    0
 62
    7
  6
CONTINUOUS
  0
LAYER
  5
CD0
330
BB3
100
AcDbSymbolTableRecord
100
AcDbLayerTableRecord
  2
Shape11727
 70
    0
 62
    7
  6
CONTINUOUS
  0
LAYER
  5
CD1
330
BB3
100
AcDbSymbolTableRecord
100
AcDbLayerTableRecord
  2
Shape11728
 70
    0
 62
    7
  6
CONTINUOUS
  0
LAYER
  5
CD2
330
BB3
100
AcDbSymbolTableRecord
100
AcDbLayerTableRecord
  2
Shape11729
 70
    0
 62
    7
  6
CONTINUOUS
  0
LAYER
  5
CD3
330
BB3
100
AcDbSymbolTableRecord
100
AcDbLayerTableRecord
  2
Shape11730
 70
    0
 62
    7
  6
CONTINUOUS
  0
LAYER
  5
CD4
330
BB3
100
AcDbSymbolTableRecord
100
AcDbLayerTableRecord
  2
Shape11731
 70
    0
 62
    7
  6
CONTINUOUS
  0
LAYER
  5
CD5
330
BB3
100
AcDbSymbolTableRecord
100
AcDbLayerTableRecord
  2
Shape11732
 70
    0
 62
    7
  6
CONTINUOUS
  0
LAYER
  5
CD6
330
BB3
100
AcDbSymbolTableRecord
100
AcDbLayerTableRecord
  2
Shape11733
 70
    0
 62
    7
  6
CONTINUOUS
  0
LAYER
  5
CD7
330
BB3
100
AcDbSymbolTableRecord
100
AcDbLayerTableRecord
  2
Shape11734
 70
    0
 62
    7
  6
CONTINUOUS
  0
LAYER
  5
CD8
330
BB3
100
AcDbSymbolTableRecord
100
AcDbLayerTableRecord
  2
Shape11735
 70
    0
 62
    7
  6
CONTINUOUS
  0
LAYER
  5
CD9
330
BB3
100
AcDbSymbolTableRecord
100
AcDbLayerTableRecord
  2
Shape11736
 70
    0
 62
    7
  6
CONTINUOUS
  0
LAYER
  5
CDA
330
BB3
100
AcDbSymbolTableRecord
100
AcDbLayerTableRecord
  2
Shape11737
 70
    0
 62
    7
  6
CONTINUOUS
  0
LAYER
  5
CDB
330
BB3
100
AcDbSymbolTableRecord
100
AcDbLayerTableRecord
  2
Shape11738
 70
    0
 62
    7
  6
CONTINUOUS
  0
LAYER
  5
CDC
330
BB3
100
AcDbSymbolTableRecord
100
AcDbLayerTableRecord
  2
Shape11739
 70
    0
 62
    7
  6
CONTINUOUS
  0
LAYER
  5
CDD
330
BB3
100
AcDbSymbolTableRecord
100
AcDbLayerTableRecord
  2
Shape11740
 70
    0
 62
    7
  6
CONTINUOUS
  0
LAYER
  5
CDE
330
BB3
100
AcDbSymbolTableRecord
100
AcDbLayerTableRecord
  2
Shape11741
 70
    0
 62
    7
  6
CONTINUOUS
  0
LAYER
  5
CDF
330
BB3
100
AcDbSymbolTableRecord
100
AcDbLayerTableRecord
  2
Shape11742
 70
    0
 62
    7
  6
CONTINUOUS
  0
LAYER
  5
CE0
330
BB3
100
AcDbSymbolTableRecord
100
AcDbLayerTableRecord
  2
Shape11743
 70
    0
 62
    7
  6
CONTINUOUS
  0
LAYER
  5
CE1
330
BB3
100
AcDbSymbolTableRecord
100
AcDbLayerTableRecord
  2
Shape11744
 70
    0
 62
    7
  6
CONTINUOUS
  0
LAYER
  5
CE2
330
BB3
100
AcDbSymbolTableRecord
100
AcDbLayerTableRecord
  2
Shape11745
 70
    0
 62
    7
  6
CONTINUOUS
  0
LAYER
  5
CE3
330
BB3
100
AcDbSymbolTableRecord
100
AcDbLayerTableRecord
  2
Shape11746
 70
    0
 62
    7
  6
CONTINUOUS
  0
LAYER
  5
CE4
330
BB3
100
AcDbSymbolTableRecord
100
AcDbLayerTableRecord
  2
Shape11747
 70
    0
 62
    7
  6
CONTINUOUS
  0
LAYER
  5
CE5
330
BB3
100
AcDbSymbolTableRecord
100
AcDbLayerTableRecord
  2
Shape11748
 70
    0
 62
    7
  6
CONTINUOUS
  0
LAYER
  5
CE6
330
BB3
100
AcDbSymbolTableRecord
100
AcDbLayerTableRecord
  2
Shape11749
 70
    0
 62
    7
  6
CONTINUOUS
  0
LAYER
  5
CE7
330
BB3
100
AcDbSymbolTableRecord
100
AcDbLayerTableRecord
  2
Shape11750
 70
    0
 62
    7
  6
CONTINUOUS
  0
LAYER
  5
CE8
330
BB3
100
AcDbSymbolTableRecord
100
AcDbLayerTableRecord
  2
Shape11751
 70
    0
 62
    7
  6
CONTINUOUS
  0
LAYER
  5
CE9
330
BB3
100
AcDbSymbolTableRecord
100
AcDbLayerTableRecord
  2
Shape11752
 70
    0
 62
    7
  6
CONTINUOUS
  0
LAYER
  5
CEA
330
BB3
100
AcDbSymbolTableRecord
100
AcDbLayerTableRecord
  2
Shape11753
 70
    0
 62
    7
  6
CONTINUOUS
  0
LAYER
  5
CEB
330
BB3
100
AcDbSymbolTableRecord
100
AcDbLayerTableRecord
  2
Shape11754
 70
    0
 62
    7
  6
CONTINUOUS
  0
LAYER
  5
CEC
330
BB3
100
AcDbSymbolTableRecord
100
AcDbLayerTableRecord
  2
Shape11755
 70
    0
 62
    7
  6
CONTINUOUS
  0
LAYER
  5
CED
330
BB3
100
AcDbSymbolTableRecord
100
AcDbLayerTableRecord
  2
Shape11756
 70
    0
 62
    7
  6
CONTINUOUS
  0
LAYER
  5
CEE
330
BB3
100
AcDbSymbolTableRecord
100
AcDbLayerTableRecord
  2
Shape11757
 70
    0
 62
    7
  6
CONTINUOUS
  0
LAYER
  5
CEF
330
BB3
100
AcDbSymbolTableRecord
100
AcDbLayerTableRecord
  2
Shape11758
 70
    0
 62
    7
  6
CONTINUOUS
  0
LAYER
  5
CF0
330
BB3
100
AcDbSymbolTableRecord
100
AcDbLayerTableRecord
  2
Shape11759
 70
    0
 62
    7
  6
CONTINUOUS
  0
LAYER
  5
CF1
330
BB3
100
AcDbSymbolTableRecord
100
AcDbLayerTableRecord
  2
Shape11760
 70
    0
 62
    7
  6
CONTINUOUS
  0
LAYER
  5
CF2
330
BB3
100
AcDbSymbolTableRecord
100
AcDbLayerTableRecord
  2
Shape11761
 70
    0
 62
    7
  6
CONTINUOUS
  0
LAYER
  5
CF3
330
BB3
100
AcDbSymbolTableRecord
100
AcDbLayerTableRecord
  2
Shape11762
 70
    0
 62
    7
  6
CONTINUOUS
  0
LAYER
  5
CF4
330
BB3
100
AcDbSymbolTableRecord
100
AcDbLayerTableRecord
  2
Shape11763
 70
    0
 62
    7
  6
CONTINUOUS
  0
LAYER
  5
CF5
330
BB3
100
AcDbSymbolTableRecord
100
AcDbLayerTableRecord
  2
Shape11764
 70
    0
 62
    7
  6
CONTINUOUS
  0
LAYER
  5
CF6
330
BB3
100
AcDbSymbolTableRecord
100
AcDbLayerTableRecord
  2
Shape11765
 70
    0
 62
    7
  6
CONTINUOUS
  0
LAYER
  5
CF7
330
BB3
100
AcDbSymbolTableRecord
100
AcDbLayerTableRecord
  2
Shape11766
 70
    0
 62
    7
  6
CONTINUOUS
  0
LAYER
  5
CF8
330
BB3
100
AcDbSymbolTableRecord
100
AcDbLayerTableRecord
  2
Shape11767
 70
    0
 62
    7
  6
CONTINUOUS
  0
LAYER
  5
CF9
330
BB3
100
AcDbSymbolTableRecord
100
AcDbLayerTableRecord
  2
Shape11768
 70
    0
 62
    7
  6
CONTINUOUS
  0
LAYER
  5
CFA
330
BB3
100
AcDbSymbolTableRecord
100
AcDbLayerTableRecord
  2
Shape11769
 70
    0
 62
    7
  6
CONTINUOUS
  0
LAYER
  5
CFB
330
BB3
100
AcDbSymbolTableRecord
100
AcDbLayerTableRecord
  2
Shape11770
 70
    0
 62
    7
  6
CONTINUOUS
  0
LAYER
  5
CFC
330
BB3
100
AcDbSymbolTableRecord
100
AcDbLayerTableRecord
  2
Shape11771
 70
    0
 62
    7
  6
CONTINUOUS
  0
LAYER
  5
CFD
330
BB3
100
AcDbSymbolTableRecord
100
AcDbLayerTableRecord
  2
Shape11772
 70
    0
 62
    7
  6
CONTINUOUS
  0
LAYER
  5
CFE
330
BB3
100
AcDbSymbolTableRecord
100
AcDbLayerTableRecord
  2
Shape11773
 70
    0
 62
    7
  6
CONTINUOUS
  0
LAYER
  5
CFF
330
BB3
100
AcDbSymbolTableRecord
100
AcDbLayerTableRecord
  2
Shape11774
 70
    0
 62
    7
  6
CONTINUOUS
  0
LAYER
  5
D00
330
BB3
100
AcDbSymbolTableRecord
100
AcDbLayerTableRecord
  2
Shape11775
 70
    0
 62
    7
  6
CONTINUOUS
  0
LAYER
  5
D01
330
BB3
100
AcDbSymbolTableRecord
100
AcDbLayerTableRecord
  2
Shape11776
 70
    0
 62
    7
  6
CONTINUOUS
  0
LAYER
  5
D02
330
BB3
100
AcDbSymbolTableRecord
100
AcDbLayerTableRecord
  2
Shape11777
 70
    0
 62
    7
  6
CONTINUOUS
  0
LAYER
  5
D03
330
BB3
100
AcDbSymbolTableRecord
100
AcDbLayerTableRecord
  2
Shape11778
 70
    0
 62
    7
  6
CONTINUOUS
  0
LAYER
  5
D04
330
BB3
100
AcDbSymbolTableRecord
100
AcDbLayerTableRecord
  2
Shape11779
 70
    0
 62
    7
  6
CONTINUOUS
  0
LAYER
  5
D05
330
BB3
100
AcDbSymbolTableRecord
100
AcDbLayerTableRecord
  2
Shape11780
 70
    0
 62
    7
  6
CONTINUOUS
  0
LAYER
  5
D06
330
BB3
100
AcDbSymbolTableRecord
100
AcDbLayerTableRecord
  2
Shape11781
 70
    0
 62
    7
  6
CONTINUOUS
  0
LAYER
  5
D07
330
BB3
100
AcDbSymbolTableRecord
100
AcDbLayerTableRecord
  2
Shape11782
 70
    0
 62
    7
  6
CONTINUOUS
  0
LAYER
  5
D08
330
BB3
100
AcDbSymbolTableRecord
100
AcDbLayerTableRecord
  2
Shape11863
 70
    0
 62
    7
  6
CONTINUOUS
  0
LAYER
  5
D09
330
BB3
100
AcDbSymbolTableRecord
100
AcDbLayerTableRecord
  2
Shape11864
 70
    0
 62
    7
  6
CONTINUOUS
  0
LAYER
  5
D0A
330
BB3
100
AcDbSymbolTableRecord
100
AcDbLayerTableRecord
  2
Shape11865
 70
    0
 62
    7
  6
CONTINUOUS
  0
LAYER
  5
D0B
330
BB3
100
AcDbSymbolTableRecord
100
AcDbLayerTableRecord
  2
Shape11866
 70
    0
 62
    7
  6
CONTINUOUS
  0
LAYER
  5
D0C
330
BB3
100
AcDbSymbolTableRecord
100
AcDbLayerTableRecord
  2
Shape11867
 70
    0
 62
    7
  6
CONTINUOUS
  0
LAYER
  5
D0D
330
BB3
100
AcDbSymbolTableRecord
100
AcDbLayerTableRecord
  2
Shape11868
 70
    0
 62
    7
  6
CONTINUOUS
  0
LAYER
  5
D0E
330
BB3
100
AcDbSymbolTableRecord
100
AcDbLayerTableRecord
  2
Shape11869
 70
    0
 62
    7
  6
CONTINUOUS
  0
LAYER
  5
D0F
330
BB3
100
AcDbSymbolTableRecord
100
AcDbLayerTableRecord
  2
Shape11870
 70
    0
 62
    7
  6
CONTINUOUS
  0
LAYER
  5
D10
330
BB3
100
AcDbSymbolTableRecord
100
AcDbLayerTableRecord
  2
Shape11871
 70
    0
 62
    7
  6
CONTINUOUS
  0
LAYER
  5
D11
330
BB3
100
AcDbSymbolTableRecord
100
AcDbLayerTableRecord
  2
Shape11872
 70
    0
 62
    7
  6
CONTINUOUS
  0
LAYER
  5
D12
330
BB3
100
AcDbSymbolTableRecord
100
AcDbLayerTableRecord
  2
Shape11873
 70
    0
 62
    7
  6
CONTINUOUS
  0
LAYER
  5
D13
330
BB3
100
AcDbSymbolTableRecord
100
AcDbLayerTableRecord
  2
Shape11874
 70
    0
 62
    7
  6
CONTINUOUS
  0
LAYER
  5
D14
330
BB3
100
AcDbSymbolTableRecord
100
AcDbLayerTableRecord
  2
Shape11875
 70
    0
 62
    7
  6
CONTINUOUS
  0
LAYER
  5
D15
330
BB3
100
AcDbSymbolTableRecord
100
AcDbLayerTableRecord
  2
Shape11876
 70
    0
 62
    7
  6
CONTINUOUS
  0
LAYER
  5
D16
330
BB3
100
AcDbSymbolTableRecord
100
AcDbLayerTableRecord
  2
Shape11877
 70
    0
 62
    7
  6
CONTINUOUS
  0
LAYER
  5
D17
330
BB3
100
AcDbSymbolTableRecord
100
AcDbLayerTableRecord
  2
Shape11878
 70
    0
 62
    7
  6
CONTINUOUS
  0
LAYER
  5
D18
330
BB3
100
AcDbSymbolTableRecord
100
AcDbLayerTableRecord
  2
Shape11879
 70
    0
 62
    7
  6
CONTINUOUS
  0
LAYER
  5
D19
330
BB3
100
AcDbSymbolTableRecord
100
AcDbLayerTableRecord
  2
Shape11880
 70
    0
 62
    7
  6
CONTINUOUS
  0
LAYER
  5
D1A
330
BB3
100
AcDbSymbolTableRecord
100
AcDbLayerTableRecord
  2
Shape11881
 70
    0
 62
    7
  6
CONTINUOUS
  0
LAYER
  5
D1B
330
BB3
100
AcDbSymbolTableRecord
100
AcDbLayerTableRecord
  2
Shape11882
 70
    0
 62
    7
  6
CONTINUOUS
  0
LAYER
  5
D1C
330
BB3
100
AcDbSymbolTableRecord
100
AcDbLayerTableRecord
  2
Shape11883
 70
    0
 62
    7
  6
CONTINUOUS
  0
LAYER
  5
D1D
330
BB3
100
AcDbSymbolTableRecord
100
AcDbLayerTableRecord
  2
Shape11884
 70
    0
 62
    7
  6
CONTINUOUS
  0
LAYER
  5
D1E
330
BB3
100
AcDbSymbolTableRecord
100
AcDbLayerTableRecord
  2
Shape11885
 70
    0
 62
    7
  6
CONTINUOUS
  0
LAYER
  5
D1F
330
BB3
100
AcDbSymbolTableRecord
100
AcDbLayerTableRecord
  2
Shape11886
 70
    0
 62
    7
  6
CONTINUOUS
  0
LAYER
  5
D20
330
BB3
100
AcDbSymbolTableRecord
100
AcDbLayerTableRecord
  2
Shape11887
 70
    0
 62
    7
  6
CONTINUOUS
  0
LAYER
  5
D21
330
BB3
100
AcDbSymbolTableRecord
100
AcDbLayerTableRecord
  2
Shape11888
 70
    0
 62
    7
  6
CONTINUOUS
  0
LAYER
  5
D22
330
BB3
100
AcDbSymbolTableRecord
100
AcDbLayerTableRecord
  2
Shape11889
 70
    0
 62
    7
  6
CONTINUOUS
  0
LAYER
  5
D23
330
BB3
100
AcDbSymbolTableRecord
100
AcDbLayerTableRecord
  2
Shape11890
 70
    0
 62
    7
  6
CONTINUOUS
  0
LAYER
  5
D24
330
BB3
100
AcDbSymbolTableRecord
100
AcDbLayerTableRecord
  2
Shape11891
 70
    0
 62
    7
  6
CONTINUOUS
  0
LAYER
  5
D25
330
BB3
100
AcDbSymbolTableRecord
100
AcDbLayerTableRecord
  2
Shape11892
 70
    0
 62
    7
  6
CONTINUOUS
  0
LAYER
  5
D26
330
BB3
100
AcDbSymbolTableRecord
100
AcDbLayerTableRecord
  2
Shape11893
 70
    0
 62
    7
  6
CONTINUOUS
  0
LAYER
  5
D27
330
BB3
100
AcDbSymbolTableRecord
100
AcDbLayerTableRecord
  2
Shape11894
 70
    0
 62
    7
  6
CONTINUOUS
  0
LAYER
  5
D28
330
BB3
100
AcDbSymbolTableRecord
100
AcDbLayerTableRecord
  2
Shape11895
 70
    0
 62
    7
  6
CONTINUOUS
  0
LAYER
  5
D29
330
BB3
100
AcDbSymbolTableRecord
100
AcDbLayerTableRecord
  2
Shape11896
 70
    0
 62
    7
  6
CONTINUOUS
  0
LAYER
  5
D2A
330
BB3
100
AcDbSymbolTableRecord
100
AcDbLayerTableRecord
  2
Shape11897
 70
    0
 62
    7
  6
CONTINUOUS
  0
LAYER
  5
D2B
330
BB3
100
AcDbSymbolTableRecord
100
AcDbLayerTableRecord
  2
Shape11898
 70
    0
 62
    7
  6
CONTINUOUS
  0
LAYER
  5
D2C
330
BB3
100
AcDbSymbolTableRecord
100
AcDbLayerTableRecord
  2
Shape11899
 70
    0
 62
    7
  6
CONTINUOUS
  0
LAYER
  5
D2D
330
BB3
100
AcDbSymbolTableRecord
100
AcDbLayerTableRecord
  2
Shape11900
 70
    0
 62
    7
  6
CONTINUOUS
  0
LAYER
  5
D2E
330
BB3
100
AcDbSymbolTableRecord
100
AcDbLayerTableRecord
  2
Shape11901
 70
    0
 62
    7
  6
CONTINUOUS
  0
LAYER
  5
D2F
330
BB3
100
AcDbSymbolTableRecord
100
AcDbLayerTableRecord
  2
Shape11902
 70
    0
 62
    7
  6
CONTINUOUS
  0
LAYER
  5
D30
330
BB3
100
AcDbSymbolTableRecord
100
AcDbLayerTableRecord
  2
Shape11903
 70
    0
 62
    7
  6
CONTINUOUS
  0
LAYER
  5
D31
330
BB3
100
AcDbSymbolTableRecord
100
AcDbLayerTableRecord
  2
Shape11904
 70
    0
 62
    7
  6
CONTINUOUS
  0
LAYER
  5
D32
330
BB3
100
AcDbSymbolTableRecord
100
AcDbLayerTableRecord
  2
Shape11905
 70
    0
 62
    7
  6
CONTINUOUS
  0
LAYER
  5
D33
330
BB3
100
AcDbSymbolTableRecord
100
AcDbLayerTableRecord
  2
Shape11906
 70
    0
 62
    7
  6
CONTINUOUS
  0
LAYER
  5
D34
330
BB3
100
AcDbSymbolTableRecord
100
AcDbLayerTableRecord
  2
Shape11907
 70
    0
 62
    7
  6
CONTINUOUS
  0
LAYER
  5
D35
330
BB3
100
AcDbSymbolTableRecord
100
AcDbLayerTableRecord
  2
Shape11908
 70
    0
 62
    7
  6
CONTINUOUS
  0
LAYER
  5
D36
330
BB3
100
AcDbSymbolTableRecord
100
AcDbLayerTableRecord
  2
Shape11909
 70
    0
 62
    7
  6
CONTINUOUS
  0
LAYER
  5
D37
330
BB3
100
AcDbSymbolTableRecord
100
AcDbLayerTableRecord
  2
Shape11910
 70
    0
 62
    7
  6
CONTINUOUS
  0
LAYER
  5
D38
330
BB3
100
AcDbSymbolTableRecord
100
AcDbLayerTableRecord
  2
Shape11911
 70
    0
 62
    7
  6
CONTINUOUS
  0
LAYER
  5
D39
330
BB3
100
AcDbSymbolTableRecord
100
AcDbLayerTableRecord
  2
Shape11912
 70
    0
 62
    7
  6
CONTINUOUS
  0
LAYER
  5
D3A
330
BB3
100
AcDbSymbolTableRecord
100
AcDbLayerTableRecord
  2
Shape11913
 70
    0
 62
    7
  6
CONTINUOUS
  0
LAYER
  5
D3B
330
BB3
100
AcDbSymbolTableRecord
100
AcDbLayerTableRecord
  2
Shape11914
 70
    0
 62
    7
  6
CONTINUOUS
  0
LAYER
  5
D3C
330
BB3
100
AcDbSymbolTableRecord
100
AcDbLayerTableRecord
  2
Shape11915
 70
    0
 62
    7
  6
CONTINUOUS
  0
LAYER
  5
D3D
330
BB3
100
AcDbSymbolTableRecord
100
AcDbLayerTableRecord
  2
Shape11916
 70
    0
 62
    7
  6
CONTINUOUS
  0
LAYER
  5
D3E
330
BB3
100
AcDbSymbolTableRecord
100
AcDbLayerTableRecord
  2
Shape11917
 70
    0
 62
    7
  6
CONTINUOUS
  0
LAYER
  5
D3F
330
BB3
100
AcDbSymbolTableRecord
100
AcDbLayerTableRecord
  2
Shape11918
 70
    0
 62
    7
  6
CONTINUOUS
  0
LAYER
  5
D40
330
BB3
100
AcDbSymbolTableRecord
100
AcDbLayerTableRecord
  2
Shape11919
 70
    0
 62
    7
  6
CONTINUOUS
  0
LAYER
  5
D41
330
BB3
100
AcDbSymbolTableRecord
100
AcDbLayerTableRecord
  2
Shape11920
 70
    0
 62
    7
  6
CONTINUOUS
  0
LAYER
  5
D42
330
BB3
100
AcDbSymbolTableRecord
100
AcDbLayerTableRecord
  2
Shape11921
 70
    0
 62
    7
  6
CONTINUOUS
  0
LAYER
  5
D43
330
BB3
100
AcDbSymbolTableRecord
100
AcDbLayerTableRecord
  2
Shape11922
 70
    0
 62
    7
  6
CONTINUOUS
  0
LAYER
  5
D44
330
BB3
100
AcDbSymbolTableRecord
100
AcDbLayerTableRecord
  2
Shape11923
 70
    0
 62
    7
  6
CONTINUOUS
  0
LAYER
  5
D45
330
BB3
100
AcDbSymbolTableRecord
100
AcDbLayerTableRecord
  2
Shape11924
 70
    0
 62
    7
  6
CONTINUOUS
  0
LAYER
  5
D46
330
BB3
100
AcDbSymbolTableRecord
100
AcDbLayerTableRecord
  2
Shape11925
 70
    0
 62
    7
  6
CONTINUOUS
  0
LAYER
  5
D47
330
BB3
100
AcDbSymbolTableRecord
100
AcDbLayerTableRecord
  2
Shape11926
 70
    0
 62
    7
  6
CONTINUOUS
  0
LAYER
  5
D48
330
BB3
100
AcDbSymbolTableRecord
100
AcDbLayerTableRecord
  2
Shape11927
 70
    0
 62
    7
  6
CONTINUOUS
  0
LAYER
  5
D49
330
BB3
100
AcDbSymbolTableRecord
100
AcDbLayerTableRecord
  2
Shape11928
 70
    0
 62
    7
  6
CONTINUOUS
  0
LAYER
  5
D4A
330
BB3
100
AcDbSymbolTableRecord
100
AcDbLayerTableRecord
  2
Shape11929
 70
    0
 62
    7
  6
CONTINUOUS
  0
LAYER
  5
D4B
330
BB3
100
AcDbSymbolTableRecord
100
AcDbLayerTableRecord
  2
Shape11930
 70
    0
 62
    7
  6
CONTINUOUS
  0
LAYER
  5
D4C
330
BB3
100
AcDbSymbolTableRecord
100
AcDbLayerTableRecord
  2
Shape11931
 70
    0
 62
    7
  6
CONTINUOUS
  0
LAYER
  5
D4D
330
BB3
100
AcDbSymbolTableRecord
100
AcDbLayerTableRecord
  2
Shape11932
 70
    0
 62
    7
  6
CONTINUOUS
  0
LAYER
  5
D4E
330
BB3
100
AcDbSymbolTableRecord
100
AcDbLayerTableRecord
  2
Shape11933
 70
    0
 62
    7
  6
CONTINUOUS
  0
LAYER
  5
D4F
330
BB3
100
AcDbSymbolTableRecord
100
AcDbLayerTableRecord
  2
Shape11934
 70
    0
 62
    7
  6
CONTINUOUS
  0
LAYER
  5
D50
330
BB3
100
AcDbSymbolTableRecord
100
AcDbLayerTableRecord
  2
Shape11935
 70
    0
 62
    7
  6
CONTINUOUS
  0
LAYER
  5
D51
330
BB3
100
AcDbSymbolTableRecord
100
AcDbLayerTableRecord
  2
Shape11936
 70
    0
 62
    7
  6
CONTINUOUS
  0
LAYER
  5
D52
330
BB3
100
AcDbSymbolTableRecord
100
AcDbLayerTableRecord
  2
Shape11937
 70
    0
 62
    7
  6
CONTINUOUS
  0
LAYER
  5
D53
330
BB3
100
AcDbSymbolTableRecord
100
AcDbLayerTableRecord
  2
Shape11938
 70
    0
 62
    7
  6
CONTINUOUS
  0
LAYER
  5
D54
330
BB3
100
AcDbSymbolTableRecord
100
AcDbLayerTableRecord
  2
Shape11939
 70
    0
 62
    7
  6
CONTINUOUS
  0
LAYER
  5
D55
330
BB3
100
AcDbSymbolTableRecord
100
AcDbLayerTableRecord
  2
Shape11940
 70
    0
 62
    7
  6
CONTINUOUS
  0
LAYER
  5
D56
330
BB3
100
AcDbSymbolTableRecord
100
AcDbLayerTableRecord
  2
Shape11941
 70
    0
 62
    7
  6
CONTINUOUS
  0
LAYER
  5
D57
330
BB3
100
AcDbSymbolTableRecord
100
AcDbLayerTableRecord
  2
Shape11942
 70
    0
 62
    7
  6
CONTINUOUS
  0
LAYER
  5
D58
330
BB3
100
AcDbSymbolTableRecord
100
AcDbLayerTableRecord
  2
Shape11943
 70
    0
 62
    7
  6
CONTINUOUS
  0
LAYER
  5
D59
330
BB3
100
AcDbSymbolTableRecord
100
AcDbLayerTableRecord
  2
Shape11944
 70
    0
 62
    7
  6
CONTINUOUS
  0
LAYER
  5
D5A
330
BB3
100
AcDbSymbolTableRecord
100
AcDbLayerTableRecord
  2
Shape11945
 70
    0
 62
    7
  6
CONTINUOUS
  0
LAYER
  5
D5B
330
BB3
100
AcDbSymbolTableRecord
100
AcDbLayerTableRecord
  2
Shape11946
 70
    0
 62
    7
  6
CONTINUOUS
  0
LAYER
  5
D5C
330
BB3
100
AcDbSymbolTableRecord
100
AcDbLayerTableRecord
  2
Shape11947
 70
    0
 62
    7
  6
CONTINUOUS
  0
LAYER
  5
D5D
330
BB3
100
AcDbSymbolTableRecord
100
AcDbLayerTableRecord
  2
Shape11948
 70
    0
 62
    7
  6
CONTINUOUS
  0
LAYER
  5
D5E
330
BB3
100
AcDbSymbolTableRecord
100
AcDbLayerTableRecord
  2
Shape11949
 70
    0
 62
    7
  6
CONTINUOUS
  0
LAYER
  5
D5F
330
BB3
100
AcDbSymbolTableRecord
100
AcDbLayerTableRecord
  2
Shape11950
 70
    0
 62
    7
  6
CONTINUOUS
  0
LAYER
  5
D60
330
BB3
100
AcDbSymbolTableRecord
100
AcDbLayerTableRecord
  2
Shape12755
 70
    0
 62
    7
  6
CONTINUOUS
  0
ENDTAB
  0
TABLE
  2
STYLE
  5
70
330
0
100
AcDbSymbolTable
 70
     2
  0
STYLE
  5
71
330
70
100
AcDbSymbolTableRecord
100
AcDbTextStyleTableRecord
  2
STANDARD
 70
     0
 40
0.0
 41
1.0
 50
0.0
 71
     0
 42
2.5
  3
arial.ttf
  4

  0
STYLE
  5
72
330
70
100
AcDbSymbolTableRecord
100
AcDbTextStyleTableRecord
  2
ANNOTATIVE
 70
     0
 40
0.0
 41
1.0
 50
0.0
 71
     0
 42
2.5
  3
arial.ttf
  4

  0
ENDTAB
  0
TABLE
  2
VIEW
  5
73
330
0
100
AcDbSymbolTable
 70
     0
  0
ENDTAB
  0
TABLE
  2
UCS
  5
74
330
0
100
AcDbSymbolTable
 70
     0
  0
ENDTAB
  0
TABLE
  2
APPID
  5
75
330
0
100
AcDbSymbolTable
 70
     2
  0
APPID
  5
76
330
75
100
AcDbSymbolTableRecord
100
AcDbRegAppTableRecord
  2
ACAD
 70
     0
  0
APPID
  5
77
330
75
100
AcDbSymbolTableRecord
100
AcDbRegAppTableRecord
  2
ACADANNOTATIVE
 70
     0
  0
ENDTAB
  0
TABLE
  2
DIMSTYLE
  5
78
330
0
100
AcDbSymbolTable
 70
     2
  0
DIMSTYLE
105
79
330
78
100
AcDbSymbolTableRecord
100
AcDbDimStyleTableRecord
  2
STANDARD
 70
     0
  3

  4

  5

  6

  7

 40
0.0
 41
2.5
 42
0.625
 43
3.75
 44
1.25
 45
0.0
 46
0.0
 47
0.0
 48
0.0
140
2.5
141
2.5
142
0.0
143
0.03937007874016
144
1.0
145
0.0
146
1.0
147
0.625
 71
     0
 72
     0
 73
     0
 74
     0
 75
     0
 76
     0
 77
     1
 78
     8
170
     0
171
     3
172
     1
173
     0
174
     0
175
     0
176
     0
177
     0
178
     0
270
     2
271
     2
272
     2
273
     2
274
     3
340
71
275
     0
280
     0
281
     0
282
     0
283
     0
284
     8
285
     0
286
     0
287
     3
288
     0
  0
ENDTAB
  0
TABLE
  2
BLOCK_RECORD
  5
A01
330
0
100
AcDbSymbolTable
  70
5
  0
BLOCK_RECORD
  5
A02
330
A01
100
AcDbSymbolTableRecord
100
AcDbBlockTableRecord
  2
*MODEL_SPACE
  0
BLOCK_RECORD
  5
A03
330
A01
100
AcDbSymbolTableRecord
100
AcDbBlockTableRecord
  2
*PAPER_SPACE
  0
ENDTAB
  0
ENDSEC
  0
SECTION
  2
BLOCKS
  0
BLOCK
  5
A04
330
A02
100
AcDbEntity
  8
0
100
AcDbBlockBegin
  2
*MODEL_SPACE
 70
   0
 10
0
 20
0
 30
0
  3
*MODEL_SPACE
  1
 
  0
ENDBLK
  5
A05
330
A02
100
AcDbEntity
  8
0
100
AcDbBlockEnd
  0
BLOCK
  5
A06
330
A03
100
AcDbEntity
 67
1
  8
0
100
AcDbBlockBegin
  2
*PAPER_SPACE
 70
   0
 10
0
 20
0
 30
0
  3
*PAPER_SPACE
  1
 
  0
ENDBLK
  5
A07
330
A03
100
AcDbEntity
 67
    1
  8
0
100
AcDbBlockEnd
  0
ENDSEC
  0
SECTION
  2
ENTITIES
  0
CIRCLE
  5
A08
330
A02
100
AcDbEntity
  8
Shape11445
100
AcDbCircle
 10
-64.7014
 20
-92.5714
 40
1.1
  0
CIRCLE
  5
A09
330
A02
100
AcDbEntity
  8
Shape11446
100
AcDbCircle
 10
-154.701
 20
-92.5714
 40
1.1
  0
CIRCLE
  5
A0A
330
A02
100
AcDbEntity
  8
Shape11447
100
AcDbCircle
 10
-244.701
 20
-92.5714
 40
1.1
  0
CIRCLE
  5
A0B
330
A02
100
AcDbEntity
  8
Shape11448
100
AcDbCircle
 10
-64.7014
 20
-175.97
 40
1.1
  0
CIRCLE
  5
A0C
330
A02
100
AcDbEntity
  8
Shape11449
100
AcDbCircle
 10
-154.701
 20
-175.97
 40
1.1
  0
CIRCLE
  5
A0D
330
A02
100
AcDbEntity
  8
Shape11450
100
AcDbCircle
 10
-244.701
 20
-175.97
 40
1.1
  0
LINE
  5
A0E
330
A02
100
AcDbEntity
  8
Shape11451
100
AcDbLine
 10
-61.7014
 20
-177.22
 30
0
 11
-61.7014
 21
-171.97
 31
0
  0
ARC
  5
A0F
330
A02
100
AcDbEntity
  8
Shape11452
100
AcDbCircle
 10
-62.2014
 20
-171.97
 30
0
 40
0.5
100
AcDbArc
 50
0
 51
180
  0
LINE
  5
A10
330
A02
100
AcDbEntity
  8
Shape11453
100
AcDbLine
 10
-62.7014
 20
-171.97
 30
0
 11
-62.7014
 21
-175.97
 31
0
  0
ARC
  5
A11
330
A02
100
AcDbEntity
  8
Shape11454
100
AcDbCircle
 10
-64.7014
 20
-175.97
 30
0
 40
2
100
AcDbArc
 50
180
 51
0
  0
LINE
  5
A12
330
A02
100
AcDbEntity
  8
Shape11455
100
AcDbLine
 10
-66.7014
 20
-175.97
 30
0
 11
-66.7014
 21
-171.97
 31
0
  0
ARC
  5
A13
330
A02
100
AcDbEntity
  8
Shape11456
100
AcDbCircle
 10
-67.2014
 20
-171.97
 30
0
 40
0.5
100
AcDbArc
 50
0
 51
180
  0
LINE
  5
A14
330
A02
100
AcDbEntity
  8
Shape11457
100
AcDbLine
 10
-67.7014
 20
-171.97
 30
0
 11
-67.7014
 21
-177.22
 31
0
  0
LINE
  5
A15
330
A02
100
AcDbEntity
  8
Shape11458
100
AcDbLine
 10
-67.7014
 20
-177.22
 30
0
 11
-85.7014
 21
-177.22
 31
0
  0
ARC
  5
A16
330
A02
100
AcDbEntity
  8
Shape11459
100
AcDbCircle
 10
-85.7014
 20
-176.22
 30
0
 40
1
100
AcDbArc
 50
180
 51
-90
  0
LINE
  5
A17
330
A02
100
AcDbEntity
  8
Shape11460
100
AcDbLine
 10
-86.7014
 20
-176.22
 30
0
 11
-86.7014
 21
-174.72
 31
0
  0
ARC
  5
A18
330
A02
100
AcDbEntity
  8
Shape11461
100
AcDbCircle
 10
-85.7014
 20
-174.72
 30
0
 40
1
100
AcDbArc
 50
90
 51
180
  0
LINE
  5
A19
330
A02
100
AcDbEntity
  8
Shape11462
100
AcDbLine
 10
-85.7014
 20
-173.72
 30
0
 11
-75.2014
 21
-173.72
 31
0
  0
ARC
  5
A1A
330
A02
100
AcDbEntity
  8
Shape11463
100
AcDbCircle
 10
-75.2014
 20
-173.22
 30
0
 40
0.5
100
AcDbArc
 50
-90
 51
0
  0
LINE
  5
A1B
330
A02
100
AcDbEntity
  8
Shape11464
100
AcDbLine
 10
-74.7014
 20
-173.22
 30
0
 11
-74.7014
 21
-172.971
 31
0
  0
ARC
  5
A1C
330
A02
100
AcDbEntity
  8
Shape11465
100
AcDbCircle
 10
-75.2014
 20
-172.971
 30
0
 40
0.5
100
AcDbArc
 50
0
 51
90
  0
LINE
  5
A1D
330
A02
100
AcDbEntity
  8
Shape11466
100
AcDbLine
 10
-75.2014
 20
-172.471
 30
0
 11
-144.201
 21
-172.471
 31
0
  0
ARC
  5
A1E
330
A02
100
AcDbEntity
  8
Shape11467
100
AcDbCircle
 10
-144.201
 20
-172.971
 30
0
 40
0.5
100
AcDbArc
 50
90
 51
180
  0
LINE
  5
A1F
330
A02
100
AcDbEntity
  8
Shape11468
100
AcDbLine
 10
-144.701
 20
-172.971
 30
0
 11
-144.701
 21
-173.22
 31
0
  0
ARC
  5
A20
330
A02
100
AcDbEntity
  8
Shape11469
100
AcDbCircle
 10
-144.201
 20
-173.22
 30
0
 40
0.5
100
AcDbArc
 50
180
 51
-90
  0
LINE
  5
A21
330
A02
100
AcDbEntity
  8
Shape11470
100
AcDbLine
 10
-144.201
 20
-173.72
 30
0
 11
-133.701
 21
-173.72
 31
0
  0
ARC
  5
A22
330
A02
100
AcDbEntity
  8
Shape11471
100
AcDbCircle
 10
-133.701
 20
-174.72
 30
0
 40
1
100
AcDbArc
 50
0
 51
90
  0
LINE
  5
A23
330
A02
100
AcDbEntity
  8
Shape11472
100
AcDbLine
 10
-132.701
 20
-174.72
 30
0
 11
-132.701
 21
-176.22
 31
0
  0
ARC
  5
A24
330
A02
100
AcDbEntity
  8
Shape11473
100
AcDbCircle
 10
-133.701
 20
-176.22
 30
0
 40
1
100
AcDbArc
 50
-90
 51
0
  0
LINE
  5
A25
330
A02
100
AcDbEntity
  8
Shape11474
100
AcDbLine
 10
-133.701
 20
-177.22
 30
0
 11
-151.701
 21
-177.22
 31
0
  0
LINE
  5
A26
330
A02
100
AcDbEntity
  8
Shape11475
100
AcDbLine
 10
-151.701
 20
-177.22
 30
0
 11
-151.701
 21
-171.97
 31
0
  0
ARC
  5
A27
330
A02
100
AcDbEntity
  8
Shape11476
100
AcDbCircle
 10
-152.201
 20
-171.97
 30
0
 40
0.5
100
AcDbArc
 50
0
 51
180
  0
LINE
  5
A28
330
A02
100
AcDbEntity
  8
Shape11477
100
AcDbLine
 10
-152.701
 20
-171.97
 30
0
 11
-152.701
 21
-175.97
 31
0
  0
ARC
  5
A29
330
A02
100
AcDbEntity
  8
Shape11478
100
AcDbCircle
 10
-154.701
 20
-175.97
 30
0
 40
2
100
AcDbArc
 50
180
 51
0
  0
LINE
  5
A2A
330
A02
100
AcDbEntity
  8
Shape11479
100
AcDbLine
 10
-156.701
 20
-175.97
 30
0
 11
-156.701
 21
-171.97
 31
0
  0
ARC
  5
A2B
330
A02
100
AcDbEntity
  8
Shape11480
100
AcDbCircle
 10
-157.201
 20
-171.97
 30
0
 40
0.5
100
AcDbArc
 50
0
 51
180
  0
LINE
  5
A2C
330
A02
100
AcDbEntity
  8
Shape11481
100
AcDbLine
 10
-157.701
 20
-171.97
 30
0
 11
-157.701
 21
-177.22
 31
0
  0
LINE
  5
A2D
330
A02
100
AcDbEntity
  8
Shape11482
100
AcDbLine
 10
-157.701
 20
-177.22
 30
0
 11
-175.701
 21
-177.22
 31
0
  0
ARC
  5
A2E
330
A02
100
AcDbEntity
  8
Shape11483
100
AcDbCircle
 10
-175.701
 20
-176.22
 30
0
 40
1
100
AcDbArc
 50
180
 51
-90
  0
LINE
  5
A2F
330
A02
100
AcDbEntity
  8
Shape11484
100
AcDbLine
 10
-176.701
 20
-176.22
 30
0
 11
-176.701
 21
-174.72
 31
0
  0
ARC
  5
A30
330
A02
100
AcDbEntity
  8
Shape11485
100
AcDbCircle
 10
-175.701
 20
-174.72
 30
0
 40
1
100
AcDbArc
 50
90
 51
180
  0
LINE
  5
A31
330
A02
100
AcDbEntity
  8
Shape11486
100
AcDbLine
 10
-175.701
 20
-173.72
 30
0
 11
-165.201
 21
-173.72
 31
0
  0
ARC
  5
A32
330
A02
100
AcDbEntity
  8
Shape11487
100
AcDbCircle
 10
-165.201
 20
-173.22
 30
0
 40
0.5
100
AcDbArc
 50
-90
 51
0
  0
LINE
  5
A33
330
A02
100
AcDbEntity
  8
Shape11488
100
AcDbLine
 10
-164.701
 20
-173.22
 30
0
 11
-164.701
 21
-172.971
 31
0
  0
ARC
  5
A34
330
A02
100
AcDbEntity
  8
Shape11489
100
AcDbCircle
 10
-165.201
 20
-172.971
 30
0
 40
0.5
100
AcDbArc
 50
0
 51
90
  0
LINE
  5
A35
330
A02
100
AcDbEntity
  8
Shape11490
100
AcDbLine
 10
-165.201
 20
-172.471
 30
0
 11
-234.201
 21
-172.471
 31
0
  0
ARC
  5
A36
330
A02
100
AcDbEntity
  8
Shape11491
100
AcDbCircle
 10
-234.201
 20
-172.971
 30
0
 40
0.5
100
AcDbArc
 50
90
 51
180
  0
LINE
  5
A37
330
A02
100
AcDbEntity
  8
Shape11492
100
AcDbLine
 10
-234.701
 20
-172.971
 30
0
 11
-234.701
 21
-173.22
 31
0
  0
ARC
  5
A38
330
A02
100
AcDbEntity
  8
Shape11493
100
AcDbCircle
 10
-234.201
 20
-173.22
 30
0
 40
0.5
100
AcDbArc
 50
180
 51
-90
  0
LINE
  5
A39
330
A02
100
AcDbEntity
  8
Shape11494
100
AcDbLine
 10
-234.201
 20
-173.72
 30
0
 11
-223.701
 21
-173.72
 31
0
  0
ARC
  5
A3A
330
A02
100
AcDbEntity
  8
Shape11495
100
AcDbCircle
 10
-223.701
 20
-174.72
 30
0
 40
1
100
AcDbArc
 50
0
 51
90
  0
LINE
  5
A3B
330
A02
100
AcDbEntity
  8
Shape11496
100
AcDbLine
 10
-222.701
 20
-174.72
 30
0
 11
-222.701
 21
-176.22
 31
0
  0
ARC
  5
A3C
330
A02
100
AcDbEntity
  8
Shape11497
100
AcDbCircle
 10
-223.701
 20
-176.22
 30
0
 40
1
100
AcDbArc
 50
-90
 51
0
  0
LINE
  5
A3D
330
A02
100
AcDbEntity
  8
Shape11498
100
AcDbLine
 10
-223.701
 20
-177.22
 30
0
 11
-241.701
 21
-177.22
 31
0
  0
LINE
  5
A3E
330
A02
100
AcDbEntity
  8
Shape11499
100
AcDbLine
 10
-241.701
 20
-177.22
 30
0
 11
-241.701
 21
-171.97
 31
0
  0
ARC
  5
A3F
330
A02
100
AcDbEntity
  8
Shape11500
100
AcDbCircle
 10
-242.201
 20
-171.97
 30
0
 40
0.5
100
AcDbArc
 50
0
 51
180
  0
LINE
  5
A40
330
A02
100
AcDbEntity
  8
Shape11501
100
AcDbLine
 10
-242.701
 20
-171.97
 30
0
 11
-242.701
 21
-175.97
 31
0
  0
ARC
  5
A41
330
A02
100
AcDbEntity
  8
Shape11502
100
AcDbCircle
 10
-244.701
 20
-175.97
 30
0
 40
2
100
AcDbArc
 50
180
 51
0
  0
LINE
  5
A42
330
A02
100
AcDbEntity
  8
Shape11503
100
AcDbLine
 10
-246.701
 20
-175.97
 30
0
 11
-246.701
 21
-171.97
 31
0
  0
ARC
  5
A43
330
A02
100
AcDbEntity
  8
Shape11504
100
AcDbCircle
 10
-247.201
 20
-171.97
 30
0
 40
0.5
100
AcDbArc
 50
0
 51
180
  0
LINE
  5
A44
330
A02
100
AcDbEntity
  8
Shape11505
100
AcDbLine
 10
-247.701
 20
-171.97
 30
0
 11
-247.701
 21
-177.22
 31
0
  0
LINE
  5
A45
330
A02
100
AcDbEntity
  8
Shape11506
100
AcDbLine
 10
-247.701
 20
-177.22
 30
0
 11
-265.701
 21
-177.22
 31
0
  0
ARC
  5
A46
330
A02
100
AcDbEntity
  8
Shape11507
100
AcDbCircle
 10
-265.701
 20
-176.22
 30
0
 40
1
100
AcDbArc
 50
180
 51
-90
  0
LINE
  5
A47
330
A02
100
AcDbEntity
  8
Shape11508
100
AcDbLine
 10
-266.701
 20
-176.22
 30
0
 11
-266.701
 21
-174.72
 31
0
  0
ARC
  5
A48
330
A02
100
AcDbEntity
  8
Shape11509
100
AcDbCircle
 10
-265.701
 20
-174.72
 30
0
 40
1
100
AcDbArc
 50
90
 51
180
  0
LINE
  5
A49
330
A02
100
AcDbEntity
  8
Shape11510
100
AcDbLine
 10
-265.701
 20
-173.72
 30
0
 11
-255.201
 21
-173.72
 31
0
  0
ARC
  5
A4A
330
A02
100
AcDbEntity
  8
Shape11511
100
AcDbCircle
 10
-255.201
 20
-173.22
 30
0
 40
0.5
100
AcDbArc
 50
-90
 51
0
  0
LINE
  5
A4B
330
A02
100
AcDbEntity
  8
Shape11512
100
AcDbLine
 10
-254.701
 20
-173.22
 30
0
 11
-254.701
 21
-172.971
 31
0
  0
ARC
  5
A4C
330
A02
100
AcDbEntity
  8
Shape11513
100
AcDbCircle
 10
-255.201
 20
-172.971
 30
0
 40
0.5
100
AcDbArc
 50
0
 51
90
  0
LINE
  5
A4D
330
A02
100
AcDbEntity
  8
Shape11514
100
AcDbLine
 10
-255.201
 20
-172.471
 30
0
 11
-276.526
 21
-172.471
 31
0
  0
ARC
  5
A4E
330
A02
100
AcDbEntity
  8
Shape11515
100
AcDbCircle
 10
-276.526
 20
-170.471
 30
0
 40
2
100
AcDbArc
 50
180
 51
-90
  0
LINE
  5
A4F
330
A02
100
AcDbEntity
  8
Shape11516
100
AcDbLine
 10
-278.526
 20
-170.471
 30
0
 11
-278.526
 21
-98.0706
 31
0
  0
ARC
  5
A50
330
A02
100
AcDbEntity
  8
Shape11517
100
AcDbCircle
 10
-276.526
 20
-98.0706
 30
0
 40
2
100
AcDbArc
 50
90
 51
180
  0
LINE
  5
A51
330
A02
100
AcDbEntity
  8
Shape11518
100
AcDbLine
 10
-276.526
 20
-96.0706
 30
0
 11
-255.201
 21
-96.0706
 31
0
  0
ARC
  5
A52
330
A02
100
AcDbEntity
  8
Shape11519
100
AcDbCircle
 10
-255.201
 20
-95.5706
 30
0
 40
0.5
100
AcDbArc
 50
-90
 51
0
  0
LINE
  5
A53
330
A02
100
AcDbEntity
  8
Shape11520
100
AcDbLine
 10
-254.701
 20
-95.5706
 30
0
 11
-254.701
 21
-95.3214
 31
0
  0
ARC
  5
A54
330
A02
100
AcDbEntity
  8
Shape11521
100
AcDbCircle
 10
-255.201
 20
-95.3214
 30
0
 40
0.5
100
AcDbArc
 50
0
 51
90
  0
LINE
  5
A55
330
A02
100
AcDbEntity
  8
Shape11522
100
AcDbLine
 10
-255.201
 20
-94.8214
 30
0
 11
-265.701
 21
-94.8214
 31
0
  0
ARC
  5
A56
330
A02
100
AcDbEntity
  8
Shape11523
100
AcDbCircle
 10
-265.701
 20
-93.8214
 30
0
 40
1
100
AcDbArc
 50
180
 51
-90
  0
LINE
  5
A57
330
A02
100
AcDbEntity
  8
Shape11524
100
AcDbLine
 10
-266.701
 20
-93.8214
 30
0
 11
-266.701
 21
-92.3214
 31
0
  0
ARC
  5
A58
330
A02
100
AcDbEntity
  8
Shape11525
100
AcDbCircle
 10
-265.701
 20
-92.3214
 30
0
 40
1
100
AcDbArc
 50
90
 51
180
  0
LINE
  5
A59
330
A02
100
AcDbEntity
  8
Shape11526
100
AcDbLine
 10
-265.701
 20
-91.3214
 30
0
 11
-247.701
 21
-91.3214
 31
0
  0
LINE
  5
A5A
330
A02
100
AcDbEntity
  8
Shape11527
100
AcDbLine
 10
-247.701
 20
-91.3214
 30
0
 11
-247.701
 21
-96.5714
 31
0
  0
ARC
  5
A5B
330
A02
100
AcDbEntity
  8
Shape11528
100
AcDbCircle
 10
-247.201
 20
-96.5714
 30
0
 40
0.5
100
AcDbArc
 50
180
 51
0
  0
LINE
  5
A5C
330
A02
100
AcDbEntity
  8
Shape11529
100
AcDbLine
 10
-246.701
 20
-96.5714
 30
0
 11
-246.701
 21
-92.5714
 31
0
  0
ARC
  5
A5D
330
A02
100
AcDbEntity
  8
Shape11530
100
AcDbCircle
 10
-244.701
 20
-92.5714
 30
0
 40
2
100
AcDbArc
 50
0
 51
180
  0
LINE
  5
A5E
330
A02
100
AcDbEntity
  8
Shape11531
100
AcDbLine
 10
-242.701
 20
-92.5714
 30
0
 11
-242.701
 21
-96.5714
 31
0
  0
ARC
  5
A5F
330
A02
100
AcDbEntity
  8
Shape11532
100
AcDbCircle
 10
-242.201
 20
-96.5714
 30
0
 40
0.5
100
AcDbArc
 50
180
 51
0
  0
LINE
  5
A60
330
A02
100
AcDbEntity
  8
Shape11533
100
AcDbLine
 10
-241.701
 20
-96.5714
 30
0
 11
-241.701
 21
-91.3214
 31
0
  0
LINE
  5
A61
330
A02
100
AcDbEntity
  8
Shape11534
100
AcDbLine
 10
-241.701
 20
-91.3214
 30
0
 11
-223.701
 21
-91.3214
 31
0
  0
ARC
  5
A62
330
A02
100
AcDbEntity
  8
Shape11535
100
AcDbCircle
 10
-223.701
 20
-92.3214
 30
0
 40
1
100
AcDbArc
 50
0
 51
90
  0
LINE
  5
A63
330
A02
100
AcDbEntity
  8
Shape11536
100
AcDbLine
 10
-222.701
 20
-92.3214
 30
0
 11
-222.701
 21
-93.8214
 31
0
  0
ARC
  5
A64
330
A02
100
AcDbEntity
  8
Shape11537
100
AcDbCircle
 10
-223.701
 20
-93.8214
 30
0
 40
1
100
AcDbArc
 50
-90
 51
0
  0
LINE
  5
A65
330
A02
100
AcDbEntity
  8
Shape11538
100
AcDbLine
 10
-223.701
 20
-94.8214
 30
0
 11
-234.201
 21
-94.8214
 31
0
  0
ARC
  5
A66
330
A02
100
AcDbEntity
  8
Shape11539
100
AcDbCircle
 10
-234.201
 20
-95.3214
 30
0
 40
0.5
100
AcDbArc
 50
90
 51
180
  0
LINE
  5
A67
330
A02
100
AcDbEntity
  8
Shape11540
100
AcDbLine
 10
-234.701
 20
-95.3214
 30
0
 11
-234.701
 21
-95.5706
 31
0
  0
ARC
  5
A68
330
A02
100
AcDbEntity
  8
Shape11541
100
AcDbCircle
 10
-234.201
 20
-95.5706
 30
0
 40
0.5
100
AcDbArc
 50
180
 51
-90
  0
LINE
  5
A69
330
A02
100
AcDbEntity
  8
Shape11542
100
AcDbLine
 10
-234.201
 20
-96.0706
 30
0
 11
-165.201
 21
-96.0706
 31
0
  0
ARC
  5
A6A
330
A02
100
AcDbEntity
  8
Shape11543
100
AcDbCircle
 10
-165.201
 20
-95.5706
 30
0
 40
0.5
100
AcDbArc
 50
-90
 51
0
  0
LINE
  5
A6B
330
A02
100
AcDbEntity
  8
Shape11544
100
AcDbLine
 10
-164.701
 20
-95.5706
 30
0
 11
-164.701
 21
-95.3214
 31
0
  0
ARC
  5
A6C
330
A02
100
AcDbEntity
  8
Shape11545
100
AcDbCircle
 10
-165.201
 20
-95.3214
 30
0
 40
0.5
100
AcDbArc
 50
0
 51
90
  0
LINE
  5
A6D
330
A02
100
AcDbEntity
  8
Shape11546
100
AcDbLine
 10
-165.201
 20
-94.8214
 30
0
 11
-175.701
 21
-94.8214
 31
0
  0
ARC
  5
A6E
330
A02
100
AcDbEntity
  8
Shape11547
100
AcDbCircle
 10
-175.701
 20
-93.8214
 30
0
 40
1
100
AcDbArc
 50
180
 51
-90
  0
LINE
  5
A6F
330
A02
100
AcDbEntity
  8
Shape11548
100
AcDbLine
 10
-176.701
 20
-93.8214
 30
0
 11
-176.701
 21
-92.3214
 31
0
  0
ARC
  5
A70
330
A02
100
AcDbEntity
  8
Shape11549
100
AcDbCircle
 10
-175.701
 20
-92.3214
 30
0
 40
1
100
AcDbArc
 50
90
 51
180
  0
LINE
  5
A71
330
A02
100
AcDbEntity
  8
Shape11550
100
AcDbLine
 10
-175.701
 20
-91.3214
 30
0
 11
-157.701
 21
-91.3214
 31
0
  0
LINE
  5
A72
330
A02
100
AcDbEntity
  8
Shape11551
100
AcDbLine
 10
-157.701
 20
-91.3214
 30
0
 11
-157.701
 21
-96.5714
 31
0
  0
ARC
  5
A73
330
A02
100
AcDbEntity
  8
Shape11552
100
AcDbCircle
 10
-157.201
 20
-96.5714
 30
0
 40
0.5
100
AcDbArc
 50
180
 51
0
  0
LINE
  5
A74
330
A02
100
AcDbEntity
  8
Shape11553
100
AcDbLine
 10
-156.701
 20
-96.5714
 30
0
 11
-156.701
 21
-92.5714
 31
0
  0
ARC
  5
A75
330
A02
100
AcDbEntity
  8
Shape11554
100
AcDbCircle
 10
-154.701
 20
-92.5714
 30
0
 40
2
100
AcDbArc
 50
0
 51
180
  0
LINE
  5
A76
330
A02
100
AcDbEntity
  8
Shape11555
100
AcDbLine
 10
-152.701
 20
-92.5714
 30
0
 11
-152.701
 21
-96.5714
 31
0
  0
ARC
  5
A77
330
A02
100
AcDbEntity
  8
Shape11556
100
AcDbCircle
 10
-152.201
 20
-96.5714
 30
0
 40
0.5
100
AcDbArc
 50
180
 51
0
  0
LINE
  5
A78
330
A02
100
AcDbEntity
  8
Shape11557
100
AcDbLine
 10
-151.701
 20
-96.5714
 30
0
 11
-151.701
 21
-91.3214
 31
0
  0
LINE
  5
A79
330
A02
100
AcDbEntity
  8
Shape11558
100
AcDbLine
 10
-151.701
 20
-91.3214
 30
0
 11
-133.701
 21
-91.3214
 31
0
  0
ARC
  5
A7A
330
A02
100
AcDbEntity
  8
Shape11559
100
AcDbCircle
 10
-133.701
 20
-92.3214
 30
0
 40
1
100
AcDbArc
 50
0
 51
90
  0
LINE
  5
A7B
330
A02
100
AcDbEntity
  8
Shape11560
100
AcDbLine
 10
-132.701
 20
-92.3214
 30
0
 11
-132.701
 21
-93.8214
 31
0
  0
ARC
  5
A7C
330
A02
100
AcDbEntity
  8
Shape11561
100
AcDbCircle
 10
-133.701
 20
-93.8214
 30
0
 40
1
100
AcDbArc
 50
-90
 51
0
  0
LINE
  5
A7D
330
A02
100
AcDbEntity
  8
Shape11562
100
AcDbLine
 10
-133.701
 20
-94.8214
 30
0
 11
-144.201
 21
-94.8214
 31
0
  0
ARC
  5
A7E
330
A02
100
AcDbEntity
  8
Shape11563
100
AcDbCircle
 10
-144.201
 20
-95.3214
 30
0
 40
0.5
100
AcDbArc
 50
90
 51
180
  0
LINE
  5
A7F
330
A02
100
AcDbEntity
  8
Shape11564
100
AcDbLine
 10
-144.701
 20
-95.3214
 30
0
 11
-144.701
 21
-95.5706
 31
0
  0
ARC
  5
A80
330
A02
100
AcDbEntity
  8
Shape11565
100
AcDbCircle
 10
-144.201
 20
-95.5706
 30
0
 40
0.5
100
AcDbArc
 50
180
 51
-90
  0
LINE
  5
A81
330
A02
100
AcDbEntity
  8
Shape11566
100
AcDbLine
 10
-144.201
 20
-96.0706
 30
0
 11
-75.2014
 21
-96.0706
 31
0
  0
ARC
  5
A82
330
A02
100
AcDbEntity
  8
Shape11567
100
AcDbCircle
 10
-75.2014
 20
-95.5706
 30
0
 40
0.5
100
AcDbArc
 50
-90
 51
0
  0
LINE
  5
A83
330
A02
100
AcDbEntity
  8
Shape11568
100
AcDbLine
 10
-74.7014
 20
-95.5706
 30
0
 11
-74.7014
 21
-95.3214
 31
0
  0
ARC
  5
A84
330
A02
100
AcDbEntity
  8
Shape11569
100
AcDbCircle
 10
-75.2014
 20
-95.3214
 30
0
 40
0.5
100
AcDbArc
 50
0
 51
90
  0
LINE
  5
A85
330
A02
100
AcDbEntity
  8
Shape11570
100
AcDbLine
 10
-75.2014
 20
-94.8214
 30
0
 11
-85.7014
 21
-94.8214
 31
0
  0
ARC
  5
A86
330
A02
100
AcDbEntity
  8
Shape11571
100
AcDbCircle
 10
-85.7014
 20
-93.8214
 30
0
 40
1
100
AcDbArc
 50
180
 51
-90
  0
LINE
  5
A87
330
A02
100
AcDbEntity
  8
Shape11572
100
AcDbLine
 10
-86.7014
 20
-93.8214
 30
0
 11
-86.7014
 21
-92.3214
 31
0
  0
ARC
  5
A88
330
A02
100
AcDbEntity
  8
Shape11573
100
AcDbCircle
 10
-85.7014
 20
-92.3214
 30
0
 40
1
100
AcDbArc
 50
90
 51
180
  0
LINE
  5
A89
330
A02
100
AcDbEntity
  8
Shape11574
100
AcDbLine
 10
-85.7014
 20
-91.3214
 30
0
 11
-67.7014
 21
-91.3214
 31
0
  0
LINE
  5
A8A
330
A02
100
AcDbEntity
  8
Shape11575
100
AcDbLine
 10
-67.7014
 20
-91.3214
 30
0
 11
-67.7014
 21
-96.5714
 31
0
  0
ARC
  5
A8B
330
A02
100
AcDbEntity
  8
Shape11576
100
AcDbCircle
 10
-67.2014
 20
-96.5714
 30
0
 40
0.5
100
AcDbArc
 50
180
 51
0
  0
LINE
  5
A8C
330
A02
100
AcDbEntity
  8
Shape11577
100
AcDbLine
 10
-66.7014
 20
-96.5714
 30
0
 11
-66.7014
 21
-92.5714
 31
0
  0
ARC
  5
A8D
330
A02
100
AcDbEntity
  8
Shape11578
100
AcDbCircle
 10
-64.7014
 20
-92.5714
 30
0
 40
2
100
AcDbArc
 50
0
 51
180
  0
LINE
  5
A8E
330
A02
100
AcDbEntity
  8
Shape11579
100
AcDbLine
 10
-62.7014
 20
-92.5714
 30
0
 11
-62.7014
 21
-96.5714
 31
0
  0
ARC
  5
A8F
330
A02
100
AcDbEntity
  8
Shape11580
100
AcDbCircle
 10
-62.2014
 20
-96.5714
 30
0
 40
0.5
100
AcDbArc
 50
180
 51
0
  0
LINE
  5
A90
330
A02
100
AcDbEntity
  8
Shape11581
100
AcDbLine
 10
-61.7014
 20
-96.5714
 30
0
 11
-61.7014
 21
-91.3214
 31
0
  0
LINE
  5
A91
330
A02
100
AcDbEntity
  8
Shape11582
100
AcDbLine
 10
-61.7014
 20
-91.3214
 30
0
 11
-43.7014
 21
-91.3214
 31
0
  0
ARC
  5
A92
330
A02
100
AcDbEntity
  8
Shape11583
100
AcDbCircle
 10
-43.7014
 20
-92.3214
 30
0
 40
1
100
AcDbArc
 50
0
 51
90
  0
LINE
  5
A93
330
A02
100
AcDbEntity
  8
Shape11584
100
AcDbLine
 10
-42.7014
 20
-92.3214
 30
0
 11
-42.7014
 21
-93.8214
 31
0
  0
ARC
  5
A94
330
A02
100
AcDbEntity
  8
Shape11585
100
AcDbCircle
 10
-43.7014
 20
-93.8214
 30
0
 40
1
100
AcDbArc
 50
-90
 51
0
  0
LINE
  5
A95
330
A02
100
AcDbEntity
  8
Shape11586
100
AcDbLine
 10
-43.7014
 20
-94.8214
 30
0
 11
-54.2014
 21
-94.8214
 31
0
  0
ARC
  5
A96
330
A02
100
AcDbEntity
  8
Shape11587
100
AcDbCircle
 10
-54.2014
 20
-95.3214
 30
0
 40
0.5
100
AcDbArc
 50
90
 51
180
  0
LINE
  5
A97
330
A02
100
AcDbEntity
  8
Shape11588
100
AcDbLine
 10
-54.7014
 20
-95.3214
 30
0
 11
-54.7014
 21
-95.5706
 31
0
  0
ARC
  5
A98
330
A02
100
AcDbEntity
  8
Shape11589
100
AcDbCircle
 10
-54.2014
 20
-95.5706
 30
0
 40
0.5
100
AcDbArc
 50
180
 51
-90
  0
LINE
  5
A99
330
A02
100
AcDbEntity
  8
Shape11590
100
AcDbLine
 10
-54.2014
 20
-96.0706
 30
0
 11
-32.8764
 21
-96.0706
 31
0
  0
ARC
  5
A9A
330
A02
100
AcDbEntity
  8
Shape11591
100
AcDbCircle
 10
-32.8764
 20
-98.0706
 30
0
 40
2
100
AcDbArc
 50
0
 51
90
  0
LINE
  5
A9B
330
A02
100
AcDbEntity
  8
Shape11592
100
AcDbLine
 10
-30.8764
 20
-98.0706
 30
0
 11
-30.8764
 21
-170.471
 31
0
  0
ARC
  5
A9C
330
A02
100
AcDbEntity
  8
Shape11593
100
AcDbCircle
 10
-32.8764
 20
-170.471
 30
0
 40
2
100
AcDbArc
 50
-90
 51
0
  0
LINE
  5
A9D
330
A02
100
AcDbEntity
  8
Shape11594
100
AcDbLine
 10
-32.8764
 20
-172.471
 30
0
 11
-54.2014
 21
-172.471
 31
0
  0
ARC
  5
A9E
330
A02
100
AcDbEntity
  8
Shape11595
100
AcDbCircle
 10
-54.2014
 20
-172.971
 30
0
 40
0.5
100
AcDbArc
 50
90
 51
180
  0
LINE
  5
A9F
330
A02
100
AcDbEntity
  8
Shape11596
100
AcDbLine
 10
-54.7014
 20
-172.971
 30
0
 11
-54.7014
 21
-173.22
 31
0
  0
ARC
  5
AA0
330
A02
100
AcDbEntity
  8
Shape11597
100
AcDbCircle
 10
-54.2014
 20
-173.22
 30
0
 40
0.5
100
AcDbArc
 50
180
 51
-90
  0
LINE
  5
AA1
330
A02
100
AcDbEntity
  8
Shape11598
100
AcDbLine
 10
-54.2014
 20
-173.72
 30
0
 11
-43.7014
 21
-173.72
 31
0
  0
ARC
  5
AA2
330
A02
100
AcDbEntity
  8
Shape11599
100
AcDbCircle
 10
-43.7014
 20
-174.72
 30
0
 40
1
100
AcDbArc
 50
0
 51
90
  0
LINE
  5
AA3
330
A02
100
AcDbEntity
  8
Shape11600
100
AcDbLine
 10
-42.7014
 20
-174.72
 30
0
 11
-42.7014
 21
-176.22
 31
0
  0
ARC
  5
AA4
330
A02
100
AcDbEntity
  8
Shape11601
100
AcDbCircle
 10
-43.7014
 20
-176.22
 30
0
 40
1
100
AcDbArc
 50
-90
 51
0
  0
LINE
  5
AA5
330
A02
100
AcDbEntity
  8
Shape11602
100
AcDbLine
 10
-43.7014
 20
-177.22
 30
0
 11
-61.7014
 21
-177.22
 31
0
  0
LINE
  5
AA6
330
A02
100
AcDbEntity
  8
Shape11603
100
AcDbLine
 10
-273.621
 20
-155.896
 30
0
 11
-259.621
 21
-155.896
 31
0
  0
LINE
  5
AA7
330
A02
100
AcDbEntity
  8
Shape11604
100
AcDbLine
 10
-259.621
 20
-155.896
 30
0
 11
-259.621
 21
-169.896
 31
0
  0
LINE
  5
AA8
330
A02
100
AcDbEntity
  8
Shape11605
100
AcDbLine
 10
-259.621
 20
-169.896
 30
0
 11
-273.621
 21
-169.896
 31
0
  0
LINE
  5
AA9
330
A02
100
AcDbEntity
  8
Shape11606
100
AcDbLine
 10
-273.621
 20
-169.896
 30
0
 11
-273.621
 21
-155.896
 31
0
  0
LINE
  5
AAA
330
A02
100
AcDbEntity
  8
Shape11607
100
AcDbLine
 10
-238.19
 20
-169.896
 30
0
 11
-252.19
 21
-169.896
 31
0
  0
LINE
  5
AAB
330
A02
100
AcDbEntity
  8
Shape11608
100
AcDbLine
 10
-252.19
 20
-169.896
 30
0
 11
-252.19
 21
-155.896
 31
0
  0
LINE
  5
AAC
330
A02
100
AcDbEntity
  8
Shape11609
100
AcDbLine
 10
-252.19
 20
-155.896
 30
0
 11
-238.19
 21
-155.896
 31
0
  0
LINE
  5
AAD
330
A02
100
AcDbEntity
  8
Shape11610
100
AcDbLine
 10
-238.19
 20
-155.896
 30
0
 11
-238.19
 21
-169.896
 31
0
  0
LINE
  5
AAE
330
A02
100
AcDbEntity
  8
Shape11611
100
AcDbLine
 10
-216.759
 20
-169.896
 30
0
 11
-230.759
 21
-169.896
 31
0
  0
LINE
  5
AAF
330
A02
100
AcDbEntity
  8
Shape11612
100
AcDbLine
 10
-230.759
 20
-169.896
 30
0
 11
-230.759
 21
-155.896
 31
0
  0
LINE
  5
AB0
330
A02
100
AcDbEntity
  8
Shape11613
100
AcDbLine
 10
-230.759
 20
-155.896
 30
0
 11
-216.759
 21
-155.896
 31
0
  0
LINE
  5
AB1
330
A02
100
AcDbEntity
  8
Shape11614
100
AcDbLine
 10
-216.759
 20
-155.896
 30
0
 11
-216.759
 21
-169.896
 31
0
  0
LINE
  5
AB2
330
A02
100
AcDbEntity
  8
Shape11615
100
AcDbLine
 10
-78.6464
 20
-169.896
 30
0
 11
-92.6464
 21
-169.896
 31
0
  0
LINE
  5
AB3
330
A02
100
AcDbEntity
  8
Shape11616
100
AcDbLine
 10
-92.6464
 20
-169.896
 30
0
 11
-92.6464
 21
-155.896
 31
0
  0
LINE
  5
AB4
330
A02
100
AcDbEntity
  8
Shape11617
100
AcDbLine
 10
-92.6464
 20
-155.896
 30
0
 11
-78.6464
 21
-155.896
 31
0
  0
LINE
  5
AB5
330
A02
100
AcDbEntity
  8
Shape11618
100
AcDbLine
 10
-78.6464
 20
-155.896
 30
0
 11
-78.6464
 21
-169.896
 31
0
  0
LINE
  5
AB6
330
A02
100
AcDbEntity
  8
Shape11619
100
AcDbLine
 10
-57.2151
 20
-169.896
 30
0
 11
-71.2151
 21
-169.896
 31
0
  0
LINE
  5
AB7
330
A02
100
AcDbEntity
  8
Shape11620
100
AcDbLine
 10
-71.2151
 20
-169.896
 30
0
 11
-71.2151
 21
-155.896
 31
0
  0
LINE
  5
AB8
330
A02
100
AcDbEntity
  8
Shape11621
100
AcDbLine
 10
-71.2151
 20
-155.896
 30
0
 11
-57.2151
 21
-155.896
 31
0
  0
LINE
  5
AB9
330
A02
100
AcDbEntity
  8
Shape11622
100
AcDbLine
 10
-57.2151
 20
-155.896
 30
0
 11
-57.2151
 21
-169.896
 31
0
  0
LINE
  5
ABA
330
A02
100
AcDbEntity
  8
Shape11623
100
AcDbLine
 10
-35.7839
 20
-169.896
 30
0
 11
-49.7839
 21
-169.896
 31
0
  0
LINE
  5
ABB
330
A02
100
AcDbEntity
  8
Shape11624
100
AcDbLine
 10
-49.7839
 20
-169.896
 30
0
 11
-49.7839
 21
-155.896
 31
0
  0
LINE
  5
ABC
330
A02
100
AcDbEntity
  8
Shape11625
100
AcDbLine
 10
-49.7839
 20
-155.896
 30
0
 11
-35.7839
 21
-155.896
 31
0
  0
LINE
  5
ABD
330
A02
100
AcDbEntity
  8
Shape11626
100
AcDbLine
 10
-35.7839
 20
-155.896
 30
0
 11
-35.7839
 21
-169.896
 31
0
  0
LINE
  5
ABE
330
A02
100
AcDbEntity
  8
Shape11627
100
AcDbLine
 10
-257.001
 20
-112.746
 30
0
 11
-257.001
 21
-98.6456
 31
0
  0
LINE
  5
ABF
330
A02
100
AcDbEntity
  8
Shape11628
100
AcDbLine
 10
-257.001
 20
-98.6456
 30
0
 11
-242.901
 21
-98.6456
 31
0
  0
LINE
  5
AC0
330
A02
100
AcDbEntity
  8
Shape11629
100
AcDbLine
 10
-242.901
 20
-98.6456
 30
0
 11
-242.901
 21
-112.746
 31
0
  0
LINE
  5
AC1
330
A02
100
AcDbEntity
  8
Shape11630
100
AcDbLine
 10
-242.901
 20
-112.746
 30
0
 11
-257.001
 21
-112.746
 31
0
  0
LINE
  5
AC2
330
A02
100
AcDbEntity
  8
Shape11631
100
AcDbLine
 10
-147.651
 20
-98.6456
 30
0
 11
-147.651
 21
-112.746
 31
0
  0
LINE
  5
AC3
330
A02
100
AcDbEntity
  8
Shape11632
100
AcDbLine
 10
-147.651
 20
-112.746
 30
0
 11
-161.751
 21
-112.746
 31
0
  0
LINE
  5
AC4
330
A02
100
AcDbEntity
  8
Shape11633
100
AcDbLine
 10
-161.751
 20
-112.746
 30
0
 11
-161.751
 21
-98.6456
 31
0
  0
LINE
  5
AC5
330
A02
100
AcDbEntity
  8
Shape11634
100
AcDbLine
 10
-161.751
 20
-98.6456
 30
0
 11
-147.651
 21
-98.6456
 31
0
  0
LINE
  5
AC6
330
A02
100
AcDbEntity
  8
Shape11635
100
AcDbLine
 10
-123.651
 20
-98.6456
 30
0
 11
-109.551
 21
-98.6456
 31
0
  0
LINE
  5
AC7
330
A02
100
AcDbEntity
  8
Shape11636
100
AcDbLine
 10
-109.551
 20
-98.6456
 30
0
 11
-109.551
 21
-112.746
 31
0
  0
LINE
  5
AC8
330
A02
100
AcDbEntity
  8
Shape11637
100
AcDbLine
 10
-109.551
 20
-112.746
 30
0
 11
-123.651
 21
-112.746
 31
0
  0
LINE
  5
AC9
330
A02
100
AcDbEntity
  8
Shape11638
100
AcDbLine
 10
-123.651
 20
-112.746
 30
0
 11
-123.651
 21
-98.6456
 31
0
  0
LINE
  5
ACA
330
A02
100
AcDbEntity
  8
Shape11639
100
AcDbLine
 10
-128.601
 20
-112.746
 30
0
 11
-142.701
 21
-112.746
 31
0
  0
LINE
  5
ACB
330
A02
100
AcDbEntity
  8
Shape11640
100
AcDbLine
 10
-142.701
 20
-112.746
 30
0
 11
-142.701
 21
-98.6456
 31
0
  0
LINE
  5
ACC
330
A02
100
AcDbEntity
  8
Shape11641
100
AcDbLine
 10
-142.701
 20
-98.6456
 30
0
 11
-128.601
 21
-98.6456
 31
0
  0
LINE
  5
ACD
330
A02
100
AcDbEntity
  8
Shape11642
100
AcDbLine
 10
-128.601
 20
-98.6456
 30
0
 11
-128.601
 21
-112.746
 31
0
  0
LINE
  5
ACE
330
A02
100
AcDbEntity
  8
Shape11643
100
AcDbLine
 10
-66.5014
 20
-98.6456
 30
0
 11
-52.4014
 21
-98.6456
 31
0
  0
LINE
  5
ACF
330
A02
100
AcDbEntity
  8
Shape11644
100
AcDbLine
 10
-52.4014
 20
-98.6456
 30
0
 11
-52.4014
 21
-112.746
 31
0
  0
LINE
  5
AD0
330
A02
100
AcDbEntity
  8
Shape11645
100
AcDbLine
 10
-52.4014
 20
-112.746
 30
0
 11
-66.5014
 21
-112.746
 31
0
  0
LINE
  5
AD1
330
A02
100
AcDbEntity
  8
Shape11646
100
AcDbLine
 10
-66.5014
 20
-112.746
 30
0
 11
-66.5014
 21
-98.6456
 31
0
  0
LINE
  5
AD2
330
A02
100
AcDbEntity
  8
Shape11647
100
AcDbLine
 10
-33.3514
 20
-98.6456
 30
0
 11
-33.3514
 21
-112.746
 31
0
  0
LINE
  5
AD3
330
A02
100
AcDbEntity
  8
Shape11648
100
AcDbLine
 10
-33.3514
 20
-112.746
 30
0
 11
-47.4514
 21
-112.746
 31
0
  0
LINE
  5
AD4
330
A02
100
AcDbEntity
  8
Shape11649
100
AcDbLine
 10
-47.4514
 20
-112.746
 30
0
 11
-47.4514
 21
-98.6456
 31
0
  0
LINE
  5
AD5
330
A02
100
AcDbEntity
  8
Shape11650
100
AcDbLine
 10
-47.4514
 20
-98.6456
 30
0
 11
-33.3514
 21
-98.6456
 31
0
  0
LINE
  5
AD6
330
A02
100
AcDbEntity
  8
Shape11651
100
AcDbLine
 10
-218.901
 20
-112.746
 30
0
 11
-218.901
 21
-98.6456
 31
0
  0
LINE
  5
AD7
330
A02
100
AcDbEntity
  8
Shape11652
100
AcDbLine
 10
-218.901
 20
-98.6456
 30
0
 11
-204.801
 21
-98.6456
 31
0
  0
LINE
  5
AD8
330
A02
100
AcDbEntity
  8
Shape11653
100
AcDbLine
 10
-204.801
 20
-98.6456
 30
0
 11
-204.801
 21
-112.746
 31
0
  0
LINE
  5
AD9
330
A02
100
AcDbEntity
  8
Shape11654
100
AcDbLine
 10
-204.801
 20
-112.746
 30
0
 11
-218.901
 21
-112.746
 31
0
  0
LINE
  5
ADA
330
A02
100
AcDbEntity
  8
Shape11655
100
AcDbLine
 10
-166.701
 20
-112.746
 30
0
 11
-180.801
 21
-112.746
 31
0
  0
LINE
  5
ADB
330
A02
100
AcDbEntity
  8
Shape11656
100
AcDbLine
 10
-180.801
 20
-112.746
 30
0
 11
-180.801
 21
-98.6456
 31
0
  0
LINE
  5
ADC
330
A02
100
AcDbEntity
  8
Shape11657
100
AcDbLine
 10
-180.801
 20
-98.6456
 30
0
 11
-166.701
 21
-98.6456
 31
0
  0
LINE
  5
ADD
330
A02
100
AcDbEntity
  8
Shape11658
100
AcDbLine
 10
-166.701
 20
-98.6456
 30
0
 11
-166.701
 21
-112.746
 31
0
  0
LINE
  5
ADE
330
A02
100
AcDbEntity
  8
Shape11659
100
AcDbLine
 10
-223.851
 20
-98.6456
 30
0
 11
-223.851
 21
-112.746
 31
0
  0
LINE
  5
ADF
330
A02
100
AcDbEntity
  8
Shape11660
100
AcDbLine
 10
-223.851
 20
-112.746
 30
0
 11
-237.951
 21
-112.746
 31
0
  0
LINE
  5
AE0
330
A02
100
AcDbEntity
  8
Shape11661
100
AcDbLine
 10
-237.951
 20
-112.746
 30
0
 11
-237.951
 21
-98.6456
 31
0
  0
LINE
  5
AE1
330
A02
100
AcDbEntity
  8
Shape11662
100
AcDbLine
 10
-237.951
 20
-98.6456
 30
0
 11
-223.851
 21
-98.6456
 31
0
  0
LINE
  5
AE2
330
A02
100
AcDbEntity
  8
Shape11663
100
AcDbLine
 10
-185.751
 20
-98.6456
 30
0
 11
-185.751
 21
-112.746
 31
0
  0
LINE
  5
AE3
330
A02
100
AcDbEntity
  8
Shape11664
100
AcDbLine
 10
-185.751
 20
-112.746
 30
0
 11
-199.851
 21
-112.746
 31
0
  0
LINE
  5
AE4
330
A02
100
AcDbEntity
  8
Shape11665
100
AcDbLine
 10
-199.851
 20
-112.746
 30
0
 11
-199.851
 21
-98.6456
 31
0
  0
LINE
  5
AE5
330
A02
100
AcDbEntity
  8
Shape11666
100
AcDbLine
 10
-199.851
 20
-98.6456
 30
0
 11
-185.751
 21
-98.6456
 31
0
  0
LINE
  5
AE6
330
A02
100
AcDbEntity
  8
Shape11667
100
AcDbLine
 10
-71.4514
 20
-98.6456
 30
0
 11
-71.4514
 21
-112.746
 31
0
  0
LINE
  5
AE7
330
A02
100
AcDbEntity
  8
Shape11668
100
AcDbLine
 10
-71.4514
 20
-112.746
 30
0
 11
-85.5514
 21
-112.746
 31
0
  0
LINE
  5
AE8
330
A02
100
AcDbEntity
  8
Shape11669
100
AcDbLine
 10
-85.5514
 20
-112.746
 30
0
 11
-85.5514
 21
-98.6456
 31
0
  0
LINE
  5
AE9
330
A02
100
AcDbEntity
  8
Shape11670
100
AcDbLine
 10
-85.5514
 20
-98.6456
 30
0
 11
-71.4514
 21
-98.6456
 31
0
  0
LINE
  5
AEA
330
A02
100
AcDbEntity
  8
Shape11671
100
AcDbLine
 10
-90.5014
 20
-112.746
 30
0
 11
-104.601
 21
-112.746
 31
0
  0
LINE
  5
AEB
330
A02
100
AcDbEntity
  8
Shape11672
100
AcDbLine
 10
-104.601
 20
-112.746
 30
0
 11
-104.601
 21
-98.6456
 31
0
  0
LINE
  5
AEC
330
A02
100
AcDbEntity
  8
Shape11673
100
AcDbLine
 10
-104.601
 20
-98.6456
 30
0
 11
-90.5014
 21
-98.6456
 31
0
  0
LINE
  5
AED
330
A02
100
AcDbEntity
  8
Shape11674
100
AcDbLine
 10
-90.5014
 20
-98.6456
 30
0
 11
-90.5014
 21
-112.746
 31
0
  0
LINE
  5
AEE
330
A02
100
AcDbEntity
  8
Shape11675
100
AcDbLine
 10
-261.951
 20
-112.746
 30
0
 11
-276.051
 21
-112.746
 31
0
  0
LINE
  5
AEF
330
A02
100
AcDbEntity
  8
Shape11676
100
AcDbLine
 10
-276.051
 20
-112.746
 30
0
 11
-276.051
 21
-98.6456
 31
0
  0
LINE
  5
AF0
330
A02
100
AcDbEntity
  8
Shape11677
100
AcDbLine
 10
-276.051
 20
-98.6456
 30
0
 11
-261.951
 21
-98.6456
 31
0
  0
LINE
  5
AF1
330
A02
100
AcDbEntity
  8
Shape11678
100
AcDbLine
 10
-261.951
 20
-98.6456
 30
0
 11
-261.951
 21
-112.746
 31
0
  0
LINE
  5
AF2
330
A02
100
AcDbEntity
  8
Shape11679
100
AcDbLine
 10
-257.001
 20
-131.796
 30
0
 11
-257.001
 21
-117.696
 31
0
  0
LINE
  5
AF3
330
A02
100
AcDbEntity
  8
Shape11680
100
AcDbLine
 10
-257.001
 20
-117.696
 30
0
 11
-242.901
 21
-117.696
 31
0
  0
LINE
  5
AF4
330
A02
100
AcDbEntity
  8
Shape11681
100
AcDbLine
 10
-242.901
 20
-117.696
 30
0
 11
-242.901
 21
-131.796
 31
0
  0
LINE
  5
AF5
330
A02
100
AcDbEntity
  8
Shape11682
100
AcDbLine
 10
-242.901
 20
-131.796
 30
0
 11
-257.001
 21
-131.796
 31
0
  0
LINE
  5
AF6
330
A02
100
AcDbEntity
  8
Shape11683
100
AcDbLine
 10
-147.651
 20
-117.696
 30
0
 11
-147.651
 21
-131.796
 31
0
  0
LINE
  5
AF7
330
A02
100
AcDbEntity
  8
Shape11684
100
AcDbLine
 10
-147.651
 20
-131.796
 30
0
 11
-161.751
 21
-131.796
 31
0
  0
LINE
  5
AF8
330
A02
100
AcDbEntity
  8
Shape11685
100
AcDbLine
 10
-161.751
 20
-131.796
 30
0
 11
-161.751
 21
-117.696
 31
0
  0
LINE
  5
AF9
330
A02
100
AcDbEntity
  8
Shape11686
100
AcDbLine
 10
-161.751
 20
-117.696
 30
0
 11
-147.651
 21
-117.696
 31
0
  0
LINE
  5
AFA
330
A02
100
AcDbEntity
  8
Shape11687
100
AcDbLine
 10
-123.651
 20
-117.696
 30
0
 11
-109.551
 21
-117.696
 31
0
  0
LINE
  5
AFB
330
A02
100
AcDbEntity
  8
Shape11688
100
AcDbLine
 10
-109.551
 20
-117.696
 30
0
 11
-109.551
 21
-131.796
 31
0
  0
LINE
  5
AFC
330
A02
100
AcDbEntity
  8
Shape11689
100
AcDbLine
 10
-109.551
 20
-131.796
 30
0
 11
-123.651
 21
-131.796
 31
0
  0
LINE
  5
AFD
330
A02
100
AcDbEntity
  8
Shape11690
100
AcDbLine
 10
-123.651
 20
-131.796
 30
0
 11
-123.651
 21
-117.696
 31
0
  0
LINE
  5
AFE
330
A02
100
AcDbEntity
  8
Shape11691
100
AcDbLine
 10
-128.601
 20
-131.796
 30
0
 11
-142.701
 21
-131.796
 31
0
  0
LINE
  5
AFF
330
A02
100
AcDbEntity
  8
Shape11692
100
AcDbLine
 10
-142.701
 20
-131.796
 30
0
 11
-142.701
 21
-117.696
 31
0
  0
LINE
  5
B00
330
A02
100
AcDbEntity
  8
Shape11693
100
AcDbLine
 10
-142.701
 20
-117.696
 30
0
 11
-128.601
 21
-117.696
 31
0
  0
LINE
  5
B01
330
A02
100
AcDbEntity
  8
Shape11694
100
AcDbLine
 10
-128.601
 20
-117.696
 30
0
 11
-128.601
 21
-131.796
 31
0
  0
LINE
  5
B02
330
A02
100
AcDbEntity
  8
Shape11695
100
AcDbLine
 10
-66.5014
 20
-117.696
 30
0
 11
-52.4014
 21
-117.696
 31
0
  0
LINE
  5
B03
330
A02
100
AcDbEntity
  8
Shape11696
100
AcDbLine
 10
-52.4014
 20
-117.696
 30
0
 11
-52.4014
 21
-131.796
 31
0
  0
LINE
  5
B04
330
A02
100
AcDbEntity
  8
Shape11697
100
AcDbLine
 10
-52.4014
 20
-131.796
 30
0
 11
-66.5014
 21
-131.796
 31
0
  0
LINE
  5
B05
330
A02
100
AcDbEntity
  8
Shape11698
100
AcDbLine
 10
-66.5014
 20
-131.796
 30
0
 11
-66.5014
 21
-117.696
 31
0
  0
LINE
  5
B06
330
A02
100
AcDbEntity
  8
Shape11699
100
AcDbLine
 10
-33.3514
 20
-117.696
 30
0
 11
-33.3514
 21
-131.796
 31
0
  0
LINE
  5
B07
330
A02
100
AcDbEntity
  8
Shape11700
100
AcDbLine
 10
-33.3514
 20
-131.796
 30
0
 11
-47.4514
 21
-131.796
 31
0
  0
LINE
  5
B08
330
A02
100
AcDbEntity
  8
Shape11701
100
AcDbLine
 10
-47.4514
 20
-131.796
 30
0
 11
-47.4514
 21
-117.696
 31
0
  0
LINE
  5
B09
330
A02
100
AcDbEntity
  8
Shape11702
100
AcDbLine
 10
-47.4514
 20
-117.696
 30
0
 11
-33.3514
 21
-117.696
 31
0
  0
LINE
  5
B0A
330
A02
100
AcDbEntity
  8
Shape11703
100
AcDbLine
 10
-218.901
 20
-131.796
 30
0
 11
-218.901
 21
-117.696
 31
0
  0
LINE
  5
B0B
330
A02
100
AcDbEntity
  8
Shape11704
100
AcDbLine
 10
-218.901
 20
-117.696
 30
0
 11
-204.801
 21
-117.696
 31
0
  0
LINE
  5
B0C
330
A02
100
AcDbEntity
  8
Shape11705
100
AcDbLine
 10
-204.801
 20
-117.696
 30
0
 11
-204.801
 21
-131.796
 31
0
  0
LINE
  5
B0D
330
A02
100
AcDbEntity
  8
Shape11706
100
AcDbLine
 10
-204.801
 20
-131.796
 30
0
 11
-218.901
 21
-131.796
 31
0
  0
LINE
  5
B0E
330
A02
100
AcDbEntity
  8
Shape11707
100
AcDbLine
 10
-166.701
 20
-131.796
 30
0
 11
-180.801
 21
-131.796
 31
0
  0
LINE
  5
B0F
330
A02
100
AcDbEntity
  8
Shape11708
100
AcDbLine
 10
-180.801
 20
-131.796
 30
0
 11
-180.801
 21
-117.696
 31
0
  0
LINE
  5
B10
330
A02
100
AcDbEntity
  8
Shape11709
100
AcDbLine
 10
-180.801
 20
-117.696
 30
0
 11
-166.701
 21
-117.696
 31
0
  0
LINE
  5
B11
330
A02
100
AcDbEntity
  8
Shape11710
100
AcDbLine
 10
-166.701
 20
-117.696
 30
0
 11
-166.701
 21
-131.796
 31
0
  0
LINE
  5
B12
330
A02
100
AcDbEntity
  8
Shape11711
100
AcDbLine
 10
-223.851
 20
-117.696
 30
0
 11
-223.851
 21
-131.796
 31
0
  0
LINE
  5
B13
330
A02
100
AcDbEntity
  8
Shape11712
100
AcDbLine
 10
-223.851
 20
-131.796
 30
0
 11
-237.951
 21
-131.796
 31
0
  0
LINE
  5
B14
330
A02
100
AcDbEntity
  8
Shape11713
100
AcDbLine
 10
-237.951
 20
-131.796
 30
0
 11
-237.951
 21
-117.696
 31
0
  0
LINE
  5
B15
330
A02
100
AcDbEntity
  8
Shape11714
100
AcDbLine
 10
-237.951
 20
-117.696
 30
0
 11
-223.851
 21
-117.696
 31
0
  0
LINE
  5
B16
330
A02
100
AcDbEntity
  8
Shape11715
100
AcDbLine
 10
-185.751
 20
-117.696
 30
0
 11
-185.751
 21
-131.796
 31
0
  0
LINE
  5
B17
330
A02
100
AcDbEntity
  8
Shape11716
100
AcDbLine
 10
-185.751
 20
-131.796
 30
0
 11
-199.851
 21
-131.796
 31
0
  0
LINE
  5
B18
330
A02
100
AcDbEntity
  8
Shape11717
100
AcDbLine
 10
-199.851
 20
-131.796
 30
0
 11
-199.851
 21
-117.696
 31
0
  0
LINE
  5
B19
330
A02
100
AcDbEntity
  8
Shape11718
100
AcDbLine
 10
-199.851
 20
-117.696
 30
0
 11
-185.751
 21
-117.696
 31
0
  0
LINE
  5
B1A
330
A02
100
AcDbEntity
  8
Shape11719
100
AcDbLine
 10
-71.4514
 20
-117.696
 30
0
 11
-71.4514
 21
-131.796
 31
0
  0
LINE
  5
B1B
330
A02
100
AcDbEntity
  8
Shape11720
100
AcDbLine
 10
-71.4514
 20
-131.796
 30
0
 11
-85.5514
 21
-131.796
 31
0
  0
LINE
  5
B1C
330
A02
100
AcDbEntity
  8
Shape11721
100
AcDbLine
 10
-85.5514
 20
-131.796
 30
0
 11
-85.5514
 21
-117.696
 31
0
  0
LINE
  5
B1D
330
A02
100
AcDbEntity
  8
Shape11722
100
AcDbLine
 10
-85.5514
 20
-117.696
 30
0
 11
-71.4514
 21
-117.696
 31
0
  0
LINE
  5
B1E
330
A02
100
AcDbEntity
  8
Shape11723
100
AcDbLine
 10
-90.5014
 20
-131.796
 30
0
 11
-104.601
 21
-131.796
 31
0
  0
LINE
  5
B1F
330
A02
100
AcDbEntity
  8
Shape11724
100
AcDbLine
 10
-104.601
 20
-131.796
 30
0
 11
-104.601
 21
-117.696
 31
0
  0
LINE
  5
B20
330
A02
100
AcDbEntity
  8
Shape11725
100
AcDbLine
 10
-104.601
 20
-117.696
 30
0
 11
-90.5014
 21
-117.696
 31
0
  0
LINE
  5
B21
330
A02
100
AcDbEntity
  8
Shape11726
100
AcDbLine
 10
-90.5014
 20
-117.696
 30
0
 11
-90.5014
 21
-131.796
 31
0
  0
LINE
  5
B22
330
A02
100
AcDbEntity
  8
Shape11727
100
AcDbLine
 10
-261.951
 20
-131.796
 30
0
 11
-276.051
 21
-131.796
 31
0
  0
LINE
  5
B23
330
A02
100
AcDbEntity
  8
Shape11728
100
AcDbLine
 10
-276.051
 20
-131.796
 30
0
 11
-276.051
 21
-117.696
 31
0
  0
LINE
  5
B24
330
A02
100
AcDbEntity
  8
Shape11729
100
AcDbLine
 10
-276.051
 20
-117.696
 30
0
 11
-261.951
 21
-117.696
 31
0
  0
LINE
  5
B25
330
A02
100
AcDbEntity
  8
Shape11730
100
AcDbLine
 10
-261.951
 20
-117.696
 30
0
 11
-261.951
 21
-131.796
 31
0
  0
LINE
  5
B26
330
A02
100
AcDbEntity
  8
Shape11731
100
AcDbLine
 10
-257.001
 20
-150.846
 30
0
 11
-257.001
 21
-136.746
 31
0
  0
LINE
  5
B27
330
A02
100
AcDbEntity
  8
Shape11732
100
AcDbLine
 10
-257.001
 20
-136.746
 30
0
 11
-242.901
 21
-136.746
 31
0
  0
LINE
  5
B28
330
A02
100
AcDbEntity
  8
Shape11733
100
AcDbLine
 10
-242.901
 20
-136.746
 30
0
 11
-242.901
 21
-150.846
 31
0
  0
LINE
  5
B29
330
A02
100
AcDbEntity
  8
Shape11734
100
AcDbLine
 10
-242.901
 20
-150.846
 30
0
 11
-257.001
 21
-150.846
 31
0
  0
LINE
  5
B2A
330
A02
100
AcDbEntity
  8
Shape11735
100
AcDbLine
 10
-147.651
 20
-136.746
 30
0
 11
-147.651
 21
-150.846
 31
0
  0
LINE
  5
B2B
330
A02
100
AcDbEntity
  8
Shape11736
100
AcDbLine
 10
-147.651
 20
-150.846
 30
0
 11
-161.751
 21
-150.846
 31
0
  0
LINE
  5
B2C
330
A02
100
AcDbEntity
  8
Shape11737
100
AcDbLine
 10
-161.751
 20
-150.846
 30
0
 11
-161.751
 21
-136.746
 31
0
  0
LINE
  5
B2D
330
A02
100
AcDbEntity
  8
Shape11738
100
AcDbLine
 10
-161.751
 20
-136.746
 30
0
 11
-147.651
 21
-136.746
 31
0
  0
LINE
  5
B2E
330
A02
100
AcDbEntity
  8
Shape11739
100
AcDbLine
 10
-123.651
 20
-136.746
 30
0
 11
-109.551
 21
-136.746
 31
0
  0
LINE
  5
B2F
330
A02
100
AcDbEntity
  8
Shape11740
100
AcDbLine
 10
-109.551
 20
-136.746
 30
0
 11
-109.551
 21
-150.846
 31
0
  0
LINE
  5
B30
330
A02
100
AcDbEntity
  8
Shape11741
100
AcDbLine
 10
-109.551
 20
-150.846
 30
0
 11
-123.651
 21
-150.846
 31
0
  0
LINE
  5
B31
330
A02
100
AcDbEntity
  8
Shape11742
100
AcDbLine
 10
-123.651
 20
-150.846
 30
0
 11
-123.651
 21
-136.746
 31
0
  0
LINE
  5
B32
330
A02
100
AcDbEntity
  8
Shape11743
100
AcDbLine
 10
-128.601
 20
-150.846
 30
0
 11
-142.701
 21
-150.846
 31
0
  0
LINE
  5
B33
330
A02
100
AcDbEntity
  8
Shape11744
100
AcDbLine
 10
-142.701
 20
-150.846
 30
0
 11
-142.701
 21
-136.746
 31
0
  0
LINE
  5
B34
330
A02
100
AcDbEntity
  8
Shape11745
100
AcDbLine
 10
-142.701
 20
-136.746
 30
0
 11
-128.601
 21
-136.746
 31
0
  0
LINE
  5
B35
330
A02
100
AcDbEntity
  8
Shape11746
100
AcDbLine
 10
-128.601
 20
-136.746
 30
0
 11
-128.601
 21
-150.846
 31
0
  0
LINE
  5
B36
330
A02
100
AcDbEntity
  8
Shape11747
100
AcDbLine
 10
-66.5014
 20
-136.746
 30
0
 11
-52.4014
 21
-136.746
 31
0
  0
LINE
  5
B37
330
A02
100
AcDbEntity
  8
Shape11748
100
AcDbLine
 10
-52.4014
 20
-136.746
 30
0
 11
-52.4014
 21
-150.846
 31
0
  0
LINE
  5
B38
330
A02
100
AcDbEntity
  8
Shape11749
100
AcDbLine
 10
-52.4014
 20
-150.846
 30
0
 11
-66.5014
 21
-150.846
 31
0
  0
LINE
  5
B39
330
A02
100
AcDbEntity
  8
Shape11750
100
AcDbLine
 10
-66.5014
 20
-150.846
 30
0
 11
-66.5014
 21
-136.746
 31
0
  0
LINE
  5
B3A
330
A02
100
AcDbEntity
  8
Shape11751
100
AcDbLine
 10
-33.3514
 20
-136.746
 30
0
 11
-33.3514
 21
-150.846
 31
0
  0
LINE
  5
B3B
330
A02
100
AcDbEntity
  8
Shape11752
100
AcDbLine
 10
-33.3514
 20
-150.846
 30
0
 11
-47.4514
 21
-150.846
 31
0
  0
LINE
  5
B3C
330
A02
100
AcDbEntity
  8
Shape11753
100
AcDbLine
 10
-47.4514
 20
-150.846
 30
0
 11
-47.4514
 21
-136.746
 31
0
  0
LINE
  5
B3D
330
A02
100
AcDbEntity
  8
Shape11754
100
AcDbLine
 10
-47.4514
 20
-136.746
 30
0
 11
-33.3514
 21
-136.746
 31
0
  0
LINE
  5
B3E
330
A02
100
AcDbEntity
  8
Shape11755
100
AcDbLine
 10
-218.901
 20
-150.846
 30
0
 11
-218.901
 21
-136.746
 31
0
  0
LINE
  5
B3F
330
A02
100
AcDbEntity
  8
Shape11756
100
AcDbLine
 10
-218.901
 20
-136.746
 30
0
 11
-204.801
 21
-136.746
 31
0
  0
LINE
  5
B40
330
A02
100
AcDbEntity
  8
Shape11757
100
AcDbLine
 10
-204.801
 20
-136.746
 30
0
 11
-204.801
 21
-150.846
 31
0
  0
LINE
  5
B41
330
A02
100
AcDbEntity
  8
Shape11758
100
AcDbLine
 10
-204.801
 20
-150.846
 30
0
 11
-218.901
 21
-150.846
 31
0
  0
LINE
  5
B42
330
A02
100
AcDbEntity
  8
Shape11759
100
AcDbLine
 10
-166.701
 20
-150.846
 30
0
 11
-180.801
 21
-150.846
 31
0
  0
LINE
  5
B43
330
A02
100
AcDbEntity
  8
Shape11760
100
AcDbLine
 10
-180.801
 20
-150.846
 30
0
 11
-180.801
 21
-136.746
 31
0
  0
LINE
  5
B44
330
A02
100
AcDbEntity
  8
Shape11761
100
AcDbLine
 10
-180.801
 20
-136.746
 30
0
 11
-166.701
 21
-136.746
 31
0
  0
LINE
  5
B45
330
A02
100
AcDbEntity
  8
Shape11762
100
AcDbLine
 10
-166.701
 20
-136.746
 30
0
 11
-166.701
 21
-150.846
 31
0
  0
LINE
  5
B46
330
A02
100
AcDbEntity
  8
Shape11763
100
AcDbLine
 10
-223.851
 20
-136.746
 30
0
 11
-223.851
 21
-150.846
 31
0
  0
LINE
  5
B47
330
A02
100
AcDbEntity
  8
Shape11764
100
AcDbLine
 10
-223.851
 20
-150.846
 30
0
 11
-237.951
 21
-150.846
 31
0
  0
LINE
  5
B48
330
A02
100
AcDbEntity
  8
Shape11765
100
AcDbLine
 10
-237.951
 20
-150.846
 30
0
 11
-237.951
 21
-136.746
 31
0
  0
LINE
  5
B49
330
A02
100
AcDbEntity
  8
Shape11766
100
AcDbLine
 10
-237.951
 20
-136.746
 30
0
 11
-223.851
 21
-136.746
 31
0
  0
LINE
  5
B4A
330
A02
100
AcDbEntity
  8
Shape11767
100
AcDbLine
 10
-185.751
 20
-136.746
 30
0
 11
-185.751
 21
-150.846
 31
0
  0
LINE
  5
B4B
330
A02
100
AcDbEntity
  8
Shape11768
100
AcDbLine
 10
-185.751
 20
-150.846
 30
0
 11
-199.851
 21
-150.846
 31
0
  0
LINE
  5
B4C
330
A02
100
AcDbEntity
  8
Shape11769
100
AcDbLine
 10
-199.851
 20
-150.846
 30
0
 11
-199.851
 21
-136.746
 31
0
  0
LINE
  5
B4D
330
A02
100
AcDbEntity
  8
Shape11770
100
AcDbLine
 10
-199.851
 20
-136.746
 30
0
 11
-185.751
 21
-136.746
 31
0
  0
LINE
  5
B4E
330
A02
100
AcDbEntity
  8
Shape11771
100
AcDbLine
 10
-71.4514
 20
-136.746
 30
0
 11
-71.4514
 21
-150.846
 31
0
  0
LINE
  5
B4F
330
A02
100
AcDbEntity
  8
Shape11772
100
AcDbLine
 10
-71.4514
 20
-150.846
 30
0
 11
-85.5514
 21
-150.846
 31
0
  0
LINE
  5
B50
330
A02
100
AcDbEntity
  8
Shape11773
100
AcDbLine
 10
-85.5514
 20
-150.846
 30
0
 11
-85.5514
 21
-136.746
 31
0
  0
LINE
  5
B51
330
A02
100
AcDbEntity
  8
Shape11774
100
AcDbLine
 10
-85.5514
 20
-136.746
 30
0
 11
-71.4514
 21
-136.746
 31
0
  0
LINE
  5
B52
330
A02
100
AcDbEntity
  8
Shape11775
100
AcDbLine
 10
-90.5014
 20
-150.846
 30
0
 11
-104.601
 21
-150.846
 31
0
  0
LINE
  5
B53
330
A02
100
AcDbEntity
  8
Shape11776
100
AcDbLine
 10
-104.601
 20
-150.846
 30
0
 11
-104.601
 21
-136.746
 31
0
  0
LINE
  5
B54
330
A02
100
AcDbEntity
  8
Shape11777
100
AcDbLine
 10
-104.601
 20
-136.746
 30
0
 11
-90.5014
 21
-136.746
 31
0
  0
LINE
  5
B55
330
A02
100
AcDbEntity
  8
Shape11778
100
AcDbLine
 10
-90.5014
 20
-136.746
 30
0
 11
-90.5014
 21
-150.846
 31
0
  0
LINE
  5
B56
330
A02
100
AcDbEntity
  8
Shape11779
100
AcDbLine
 10
-261.951
 20
-150.846
 30
0
 11
-276.051
 21
-150.846
 31
0
  0
LINE
  5
B57
330
A02
100
AcDbEntity
  8
Shape11780
100
AcDbLine
 10
-276.051
 20
-150.846
 30
0
 11
-276.051
 21
-136.746
 31
0
  0
LINE
  5
B58
330
A02
100
AcDbEntity
  8
Shape11781
100
AcDbLine
 10
-276.051
 20
-136.746
 30
0
 11
-261.951
 21
-136.746
 31
0
  0
LINE
  5
B59
330
A02
100
AcDbEntity
  8
Shape11782
100
AcDbLine
 10
-261.951
 20
-136.746
 30
0
 11
-261.951
 21
-150.846
 31
0
  0
LINE
  5
B5A
330
A02
100
AcDbEntity
  8
Shape11863
100
AcDbLine
 10
-197.421
 20
-169.395
 30
0
 11
-197.421
 21
-165.196
 31
0
  0
ARC
  5
B5B
330
A02
100
AcDbEntity
  8
Shape11864
100
AcDbCircle
 10
-196.921
 20
-169.395
 30
0
 40
0.5
100
AcDbArc
 50
180
 51
-90
  0
LINE
  5
B5C
330
A02
100
AcDbEntity
  8
Shape11865
100
AcDbLine
 10
-197.421
 20
-165.196
 30
0
 11
-198.947
 21
-165.196
 31
0
  0
LINE
  5
B5D
330
A02
100
AcDbEntity
  8
Shape11866
100
AcDbLine
 10
-198.947
 20
-165.196
 30
0
 11
-198.947
 21
-168.425
 31
0
  0
LINE
  5
B5E
330
A02
100
AcDbEntity
  8
Shape11867
100
AcDbLine
 10
-198.947
 20
-168.425
 30
0
 11
-205.696
 21
-168.425
 31
0
  0
LINE
  5
B5F
330
A02
100
AcDbEntity
  8
Shape11868
100
AcDbLine
 10
-205.696
 20
-168.425
 30
0
 11
-205.696
 21
-165.196
 31
0
  0
LINE
  5
B60
330
A02
100
AcDbEntity
  8
Shape11869
100
AcDbLine
 10
-205.696
 20
-165.196
 30
0
 11
-206.522
 21
-165.196
 31
0
  0
LINE
  5
B61
330
A02
100
AcDbEntity
  8
Shape11870
100
AcDbLine
 10
-206.522
 20
-165.196
 30
0
 11
-206.522
 21
-162.396
 31
0
  0
LINE
  5
B62
330
A02
100
AcDbEntity
  8
Shape11871
100
AcDbLine
 10
-206.522
 20
-162.396
 30
0
 11
-205.696
 21
-162.396
 31
0
  0
LINE
  5
B63
330
A02
100
AcDbEntity
  8
Shape11872
100
AcDbLine
 10
-205.696
 20
-162.396
 30
0
 11
-205.696
 21
-156.126
 31
0
  0
LINE
  5
B64
330
A02
100
AcDbEntity
  8
Shape11873
100
AcDbLine
 10
-205.696
 20
-156.126
 30
0
 11
-203.971
 21
-156.126
 31
0
  0
LINE
  5
B65
330
A02
100
AcDbEntity
  8
Shape11874
100
AcDbLine
 10
-203.971
 20
-156.126
 30
0
 11
-203.971
 21
-154.926
 31
0
  0
LINE
  5
B66
330
A02
100
AcDbEntity
  8
Shape11875
100
AcDbLine
 10
-203.971
 20
-154.926
 30
0
 11
-200.672
 21
-154.926
 31
0
  0
LINE
  5
B67
330
A02
100
AcDbEntity
  8
Shape11876
100
AcDbLine
 10
-200.672
 20
-154.926
 30
0
 11
-200.672
 21
-156.126
 31
0
  0
LINE
  5
B68
330
A02
100
AcDbEntity
  8
Shape11877
100
AcDbLine
 10
-200.672
 20
-156.126
 30
0
 11
-198.947
 21
-156.126
 31
0
  0
LINE
  5
B69
330
A02
100
AcDbEntity
  8
Shape11878
100
AcDbLine
 10
-198.947
 20
-156.126
 30
0
 11
-198.947
 21
-160.595
 31
0
  0
LINE
  5
B6A
330
A02
100
AcDbEntity
  8
Shape11879
100
AcDbLine
 10
-198.947
 20
-160.595
 30
0
 11
-197.421
 21
-160.595
 31
0
  0
LINE
  5
B6B
330
A02
100
AcDbEntity
  8
Shape11880
100
AcDbLine
 10
-197.421
 20
-160.595
 30
0
 11
-197.421
 21
-156.396
 31
0
  0
LINE
  5
B6C
330
A02
100
AcDbEntity
  8
Shape11881
100
AcDbLine
 10
-196.921
 20
-155.896
 30
0
 11
-183.922
 21
-155.896
 31
0
  0
ARC
  5
B6D
330
A02
100
AcDbEntity
  8
Shape11882
100
AcDbCircle
 10
-196.921
 20
-156.396
 30
0
 40
0.5
100
AcDbArc
 50
90
 51
180
  0
LINE
  5
B6E
330
A02
100
AcDbEntity
  8
Shape11883
100
AcDbLine
 10
-183.422
 20
-156.396
 30
0
 11
-183.422
 21
-160.595
 31
0
  0
ARC
  5
B6F
330
A02
100
AcDbEntity
  8
Shape11884
100
AcDbCircle
 10
-183.922
 20
-156.396
 30
0
 40
0.5
100
AcDbArc
 50
0
 51
90
  0
LINE
  5
B70
330
A02
100
AcDbEntity
  8
Shape11885
100
AcDbLine
 10
-183.422
 20
-160.595
 30
0
 11
-181.896
 21
-160.595
 31
0
  0
LINE
  5
B71
330
A02
100
AcDbEntity
  8
Shape11886
100
AcDbLine
 10
-181.896
 20
-160.595
 30
0
 11
-181.896
 21
-156.126
 31
0
  0
LINE
  5
B72
330
A02
100
AcDbEntity
  8
Shape11887
100
AcDbLine
 10
-181.896
 20
-156.126
 30
0
 11
-180.172
 21
-156.126
 31
0
  0
LINE
  5
B73
330
A02
100
AcDbEntity
  8
Shape11888
100
AcDbLine
 10
-180.172
 20
-156.126
 30
0
 11
-180.172
 21
-154.926
 31
0
  0
LINE
  5
B74
330
A02
100
AcDbEntity
  8
Shape11889
100
AcDbLine
 10
-180.172
 20
-154.926
 30
0
 11
-176.872
 21
-154.926
 31
0
  0
LINE
  5
B75
330
A02
100
AcDbEntity
  8
Shape11890
100
AcDbLine
 10
-176.872
 20
-154.926
 30
0
 11
-176.872
 21
-156.126
 31
0
  0
LINE
  5
B76
330
A02
100
AcDbEntity
  8
Shape11891
100
AcDbLine
 10
-176.872
 20
-156.126
 30
0
 11
-175.147
 21
-156.126
 31
0
  0
LINE
  5
B77
330
A02
100
AcDbEntity
  8
Shape11892
100
AcDbLine
 10
-175.147
 20
-156.126
 30
0
 11
-175.147
 21
-162.396
 31
0
  0
LINE
  5
B78
330
A02
100
AcDbEntity
  8
Shape11893
100
AcDbLine
 10
-175.147
 20
-162.396
 30
0
 11
-174.321
 21
-162.396
 31
0
  0
LINE
  5
B79
330
A02
100
AcDbEntity
  8
Shape11894
100
AcDbLine
 10
-174.321
 20
-162.396
 30
0
 11
-174.321
 21
-165.196
 31
0
  0
LINE
  5
B7A
330
A02
100
AcDbEntity
  8
Shape11895
100
AcDbLine
 10
-174.321
 20
-165.196
 30
0
 11
-175.147
 21
-165.196
 31
0
  0
LINE
  5
B7B
330
A02
100
AcDbEntity
  8
Shape11896
100
AcDbLine
 10
-175.147
 20
-165.196
 30
0
 11
-175.147
 21
-168.425
 31
0
  0
LINE
  5
B7C
330
A02
100
AcDbEntity
  8
Shape11897
100
AcDbLine
 10
-175.147
 20
-168.425
 30
0
 11
-181.896
 21
-168.425
 31
0
  0
LINE
  5
B7D
330
A02
100
AcDbEntity
  8
Shape11898
100
AcDbLine
 10
-181.896
 20
-168.425
 30
0
 11
-181.896
 21
-165.196
 31
0
  0
LINE
  5
B7E
330
A02
100
AcDbEntity
  8
Shape11899
100
AcDbLine
 10
-181.896
 20
-165.196
 30
0
 11
-183.422
 21
-165.196
 31
0
  0
LINE
  5
B7F
330
A02
100
AcDbEntity
  8
Shape11900
100
AcDbLine
 10
-183.422
 20
-165.196
 30
0
 11
-183.422
 21
-169.395
 31
0
  0
ARC
  5
B80
330
A02
100
AcDbEntity
  8
Shape11901
100
AcDbCircle
 10
-183.922
 20
-169.395
 30
0
 40
0.5
100
AcDbArc
 50
-90
 51
0
  0
LINE
  5
B81
330
A02
100
AcDbEntity
  8
Shape11902
100
AcDbLine
 10
-183.922
 20
-169.895
 30
0
 11
-196.921
 21
-169.895
 31
0
  0
LINE
  5
B82
330
A02
100
AcDbEntity
  8
Shape11903
100
AcDbLine
 10
-130.746
 20
-169.395
 30
0
 11
-130.746
 21
-165.196
 31
0
  0
ARC
  5
B83
330
A02
100
AcDbEntity
  8
Shape11904
100
AcDbCircle
 10
-130.246
 20
-169.395
 30
0
 40
0.5
100
AcDbArc
 50
180
 51
-90
  0
LINE
  5
B84
330
A02
100
AcDbEntity
  8
Shape11905
100
AcDbLine
 10
-130.746
 20
-165.196
 30
0
 11
-132.271
 21
-165.196
 31
0
  0
LINE
  5
B85
330
A02
100
AcDbEntity
  8
Shape11906
100
AcDbLine
 10
-132.271
 20
-165.196
 30
0
 11
-132.271
 21
-168.425
 31
0
  0
LINE
  5
B86
330
A02
100
AcDbEntity
  8
Shape11907
100
AcDbLine
 10
-132.271
 20
-168.425
 30
0
 11
-139.021
 21
-168.425
 31
0
  0
LINE
  5
B87
330
A02
100
AcDbEntity
  8
Shape11908
100
AcDbLine
 10
-139.021
 20
-168.425
 30
0
 11
-139.021
 21
-165.196
 31
0
  0
LINE
  5
B88
330
A02
100
AcDbEntity
  8
Shape11909
100
AcDbLine
 10
-139.021
 20
-165.196
 30
0
 11
-139.847
 21
-165.196
 31
0
  0
LINE
  5
B89
330
A02
100
AcDbEntity
  8
Shape11910
100
AcDbLine
 10
-139.847
 20
-165.196
 30
0
 11
-139.847
 21
-162.396
 31
0
  0
LINE
  5
B8A
330
A02
100
AcDbEntity
  8
Shape11911
100
AcDbLine
 10
-139.847
 20
-162.396
 30
0
 11
-139.021
 21
-162.396
 31
0
  0
LINE
  5
B8B
330
A02
100
AcDbEntity
  8
Shape11912
100
AcDbLine
 10
-139.021
 20
-162.396
 30
0
 11
-139.021
 21
-156.126
 31
0
  0
LINE
  5
B8C
330
A02
100
AcDbEntity
  8
Shape11913
100
AcDbLine
 10
-139.021
 20
-156.126
 30
0
 11
-137.296
 21
-156.126
 31
0
  0
LINE
  5
B8D
330
A02
100
AcDbEntity
  8
Shape11914
100
AcDbLine
 10
-137.296
 20
-156.126
 30
0
 11
-137.296
 21
-154.926
 31
0
  0
LINE
  5
B8E
330
A02
100
AcDbEntity
  8
Shape11915
100
AcDbLine
 10
-137.296
 20
-154.926
 30
0
 11
-133.997
 21
-154.926
 31
0
  0
LINE
  5
B8F
330
A02
100
AcDbEntity
  8
Shape11916
100
AcDbLine
 10
-133.997
 20
-154.926
 30
0
 11
-133.997
 21
-156.126
 31
0
  0
LINE
  5
B90
330
A02
100
AcDbEntity
  8
Shape11917
100
AcDbLine
 10
-133.997
 20
-156.126
 30
0
 11
-132.271
 21
-156.126
 31
0
  0
LINE
  5
B91
330
A02
100
AcDbEntity
  8
Shape11918
100
AcDbLine
 10
-132.271
 20
-156.126
 30
0
 11
-132.271
 21
-160.595
 31
0
  0
LINE
  5
B92
330
A02
100
AcDbEntity
  8
Shape11919
100
AcDbLine
 10
-132.271
 20
-160.595
 30
0
 11
-130.746
 21
-160.595
 31
0
  0
LINE
  5
B93
330
A02
100
AcDbEntity
  8
Shape11920
100
AcDbLine
 10
-130.746
 20
-160.595
 30
0
 11
-130.746
 21
-156.396
 31
0
  0
LINE
  5
B94
330
A02
100
AcDbEntity
  8
Shape11921
100
AcDbLine
 10
-130.246
 20
-155.896
 30
0
 11
-117.247
 21
-155.896
 31
0
  0
ARC
  5
B95
330
A02
100
AcDbEntity
  8
Shape11922
100
AcDbCircle
 10
-117.247
 20
-156.396
 30
0
 40
0.5
100
AcDbArc
 50
0
 51
90
  0
ARC
  5
B96
330
A02
100
AcDbEntity
  8
Shape11923
100
AcDbCircle
 10
-130.246
 20
-156.396
 30
0
 40
0.5
100
AcDbArc
 50
90
 51
180
  0
LINE
  5
B97
330
A02
100
AcDbEntity
  8
Shape11924
100
AcDbLine
 10
-116.747
 20
-156.396
 30
0
 11
-116.747
 21
-160.595
 31
0
  0
LINE
  5
B98
330
A02
100
AcDbEntity
  8
Shape11925
100
AcDbLine
 10
-116.747
 20
-160.595
 30
0
 11
-115.221
 21
-160.595
 31
0
  0
LINE
  5
B99
330
A02
100
AcDbEntity
  8
Shape11926
100
AcDbLine
 10
-115.221
 20
-160.595
 30
0
 11
-115.221
 21
-156.126
 31
0
  0
LINE
  5
B9A
330
A02
100
AcDbEntity
  8
Shape11927
100
AcDbLine
 10
-115.221
 20
-156.126
 30
0
 11
-113.497
 21
-156.126
 31
0
  0
LINE
  5
B9B
330
A02
100
AcDbEntity
  8
Shape11928
100
AcDbLine
 10
-113.497
 20
-156.126
 30
0
 11
-113.497
 21
-154.926
 31
0
  0
LINE
  5
B9C
330
A02
100
AcDbEntity
  8
Shape11929
100
AcDbLine
 10
-113.497
 20
-154.926
 30
0
 11
-110.197
 21
-154.926
 31
0
  0
LINE
  5
B9D
330
A02
100
AcDbEntity
  8
Shape11930
100
AcDbLine
 10
-110.197
 20
-154.926
 30
0
 11
-110.197
 21
-156.126
 31
0
  0
LINE
  5
B9E
330
A02
100
AcDbEntity
  8
Shape11931
100
AcDbLine
 10
-110.197
 20
-156.126
 30
0
 11
-108.472
 21
-156.126
 31
0
  0
LINE
  5
B9F
330
A02
100
AcDbEntity
  8
Shape11932
100
AcDbLine
 10
-108.472
 20
-156.126
 30
0
 11
-108.472
 21
-162.396
 31
0
  0
LINE
  5
BA0
330
A02
100
AcDbEntity
  8
Shape11933
100
AcDbLine
 10
-108.472
 20
-162.396
 30
0
 11
-107.646
 21
-162.396
 31
0
  0
LINE
  5
BA1
330
A02
100
AcDbEntity
  8
Shape11934
100
AcDbLine
 10
-107.646
 20
-162.396
 30
0
 11
-107.646
 21
-165.196
 31
0
  0
LINE
  5
BA2
330
A02
100
AcDbEntity
  8
Shape11935
100
AcDbLine
 10
-107.646
 20
-165.196
 30
0
 11
-108.472
 21
-165.196
 31
0
  0
LINE
  5
BA3
330
A02
100
AcDbEntity
  8
Shape11936
100
AcDbLine
 10
-108.472
 20
-165.196
 30
0
 11
-108.472
 21
-168.425
 31
0
  0
LINE
  5
BA4
330
A02
100
AcDbEntity
  8
Shape11937
100
AcDbLine
 10
-108.472
 20
-168.425
 30
0
 11
-115.221
 21
-168.425
 31
0
  0
LINE
  5
BA5
330
A02
100
AcDbEntity
  8
Shape11938
100
AcDbLine
 10
-115.221
 20
-168.425
 30
0
 11
-115.221
 21
-165.196
 31
0
  0
LINE
  5
BA6
330
A02
100
AcDbEntity
  8
Shape11939
100
AcDbLine
 10
-115.221
 20
-165.196
 30
0
 11
-116.747
 21
-165.196
 31
0
  0
LINE
  5
BA7
330
A02
100
AcDbEntity
  8
Shape11940
100
AcDbLine
 10
-116.747
 20
-165.196
 30
0
 11
-116.747
 21
-169.395
 31
0
  0
ARC
  5
BA8
330
A02
100
AcDbEntity
  8
Shape11941
100
AcDbCircle
 10
-117.247
 20
-169.395
 30
0
 40
0.5
100
AcDbArc
 50
-90
 51
0
  0
LINE
  5
BA9
330
A02
100
AcDbEntity
  8
Shape11942
100
AcDbLine
 10
-117.247
 20
-169.895
 30
0
 11
-130.246
 21
-169.895
 31
0
  0
LINE
  5
BAA
330
A02
100
AcDbEntity
  8
Shape11943
100
AcDbLine
 10
-165.965
 20
-169.895
 30
0
 11
-152.965
 21
-169.895
 31
0
  0
ARC
  5
BAB
330
A02
100
AcDbEntity
  8
Shape11944
100
AcDbCircle
 10
-152.965
 20
-169.395
 30
0
 40
0.5
100
AcDbArc
 50
-90
 51
0
  0
LINE
  5
BAC
330
A02
100
AcDbEntity
  8
Shape11945
100
AcDbLine
 10
-152.465
 20
-169.395
 30
0
 11
-152.465
 21
-156.396
 31
0
  0
LINE
  5
BAD
330
A02
100
AcDbEntity
  8
Shape11946
100
AcDbLine
 10
-152.965
 20
-155.896
 30
0
 11
-165.965
 21
-155.896
 31
0
  0
ARC
  5
BAE
330
A02
100
AcDbEntity
  8
Shape11947
100
AcDbCircle
 10
-152.965
 20
-156.396
 30
0
 40
0.5
100
AcDbArc
 50
0
 51
90
  0
LINE
  5
BAF
330
A02
100
AcDbEntity
  8
Shape11948
100
AcDbLine
 10
-166.465
 20
-156.396
 30
0
 11
-166.465
 21
-169.395
 31
0
  0
ARC
  5
BB0
330
A02
100
AcDbEntity
  8
Shape11949
100
AcDbCircle
 10
-165.965
 20
-156.396
 30
0
 40
0.5
100
AcDbArc
 50
90
 51
180
  0
ARC
  5
BB1
330
A02
100
AcDbEntity
  8
Shape11950
100
AcDbCircle
 10
-165.965
 20
-169.395
 30
0
 40
0.5
100
AcDbArc
 50
180
 51
-90
  0
CIRCLE
  5
BB2
330
A02
100
AcDbEntity
  8
Shape12755
100
AcDbCircle
 10
-55.057
 20
-115.246
 40
1.5
  0
ENDSEC
  0
SECTION
  2
OBJECTS
  0
DICTIONARY
  5
F000
330
0
100
AcDbDictionary
  3
ACAD_GROUP
350
F001
  0
DICTIONARY
  5
F001
330
F000
100
AcDbDictionary
  0
ENDSEC
  0
EOF