999
FreeCAD v0.21 33771 (Git)
  0
SECTION
  2
HEADER
  9
$ACADVER
  1
AC1014
  9
$ACADMAINTVER
 70
     9
  9
$DWGCODEPAGE
  3
ANSI_1252
  9
$TEXTSTYLE
  7
STANDARD
  9
$DIMSTYLE
  2
STANDARD
  9
$DIMTXSTY
  7
STANDARD
  9
$CMLSTYLE
  2
STANDARD
  9
$LUNITS
 70
2
  9
$INSUNITS
 70
4
  9
$PEXTMAX
 10
50
 20
50
 30
50
  9
$PEXTMIN
 10
0
 20
0
 30
0
  9
$HANDSEED
  5
FFFF
  0
ENDSEC
  0
SECTION
  2
CLASSES
  0
CLASS
  1
ACDBDICTIONARYWDFLT
  2
AcDbDictionaryWithDefault
  3
ObjectDBX Classes
 90
        0
280
     0
281
     0
  0
CLASS
  1
XRECORD
  2
AcDbXrecord
  3
ObjectDBX Classes
 90
        0
280
     0
281
     0
  0
CLASS
  1
LWPOLYLINE
  2
AcDbPolyline
  3
ObjectDBX Classes
 90
        0
280
     0
281
     1
  0
ENDSEC
  0
SECTION
  2
TABLES
  0
TABLE
  2
VPORT
  5
20
330
0
100
AcDbSymbolTable
 70
     1
  0
VPORT
  5
21
330
20
100
AcDbSymbolTableRecord
100
AcDbViewportTableRecord
  2
*ACTIVE
 70
     0
  0
ENDTAB
  0
TABLE
  2
LTYPE
  5
22
330
0
100
AcDbSymbolTable
 70
     1
  0
LTYPE
  5
23
330
21
100
AcDbSymbolTableRecord
100
AcDbLinetypeTableRecord
  2
BYBLOCK
 70
     0
  3

 72
    65
 73
     0
 40
0.0
  0
LTYPE
  5
24
330
21
100
AcDbSymbolTableRecord
100
AcDbLinetypeTableRecord
  2
BYLAYER
 70
     0
  3

 72
    65
 73
     0
 40
0.0
  0
LTYPE
  5
25
330
21
100
AcDbSymbolTableRecord
100
AcDbLinetypeTableRecord
  2
CONTINUOUS
 70
     0
  3
Solid line
 72
    65
 73
     0
 40
0.0
  0
ENDTAB
  0
TABLE
  2
LAYER
  5
BE3
330
0
100
AcDbSymbolTable
 70
477
  0
LAYER
  5
BE4
330
BE3
100
AcDbSymbolTableRecord
100
AcDbLayerTableRecord
  2
0
 70
   0
 62
   7
  6
CONTINUOUS
  0
LAYER
  5
BE5
330
BE3
100
AcDbSymbolTableRecord
100
AcDbLayerTableRecord
  2
none
 70
    0
 62
    7
  6
CONTINUOUS
  0
LAYER
  5
BE6
330
BE3
100
AcDbSymbolTableRecord
100
AcDbLayerTableRecord
  2
Shape342
 70
    0
 62
    7
  6
CONTINUOUS
  0
LAYER
  5
BE7
330
BE3
100
AcDbSymbolTableRecord
100
AcDbLayerTableRecord
  2
Shape343
 70
    0
 62
    7
  6
CONTINUOUS
  0
LAYER
  5
BE8
330
BE3
100
AcDbSymbolTableRecord
100
AcDbLayerTableRecord
  2
Shape344
 70
    0
 62
    7
  6
CONTINUOUS
  0
LAYER
  5
BE9
330
BE3
100
AcDbSymbolTableRecord
100
AcDbLayerTableRecord
  2
Shape345
 70
    0
 62
    7
  6
CONTINUOUS
  0
LAYER
  5
BEA
330
BE3
100
AcDbSymbolTableRecord
100
AcDbLayerTableRecord
  2
Shape346
 70
    0
 62
    7
  6
CONTINUOUS
  0
LAYER
  5
BEB
330
BE3
100
AcDbSymbolTableRecord
100
AcDbLayerTableRecord
  2
Shape347
 70
    0
 62
    7
  6
CONTINUOUS
  0
LAYER
  5
BEC
330
BE3
100
AcDbSymbolTableRecord
100
AcDbLayerTableRecord
  2
Shape348
 70
    0
 62
    7
  6
CONTINUOUS
  0
LAYER
  5
BED
330
BE3
100
AcDbSymbolTableRecord
100
AcDbLayerTableRecord
  2
Shape349
 70
    0
 62
    7
  6
CONTINUOUS
  0
LAYER
  5
BEE
330
BE3
100
AcDbSymbolTableRecord
100
AcDbLayerTableRecord
  2
Shape350
 70
    0
 62
    7
  6
CONTINUOUS
  0
LAYER
  5
BEF
330
BE3
100
AcDbSymbolTableRecord
100
AcDbLayerTableRecord
  2
Shape351
 70
    0
 62
    7
  6
CONTINUOUS
  0
LAYER
  5
BF0
330
BE3
100
AcDbSymbolTableRecord
100
AcDbLayerTableRecord
  2
Shape352
 70
    0
 62
    7
  6
CONTINUOUS
  0
LAYER
  5
BF1
330
BE3
100
AcDbSymbolTableRecord
100
AcDbLayerTableRecord
  2
Shape353
 70
    0
 62
    7
  6
CONTINUOUS
  0
LAYER
  5
BF2
330
BE3
100
AcDbSymbolTableRecord
100
AcDbLayerTableRecord
  2
Shape354
 70
    0
 62
    7
  6
CONTINUOUS
  0
LAYER
  5
BF3
330
BE3
100
AcDbSymbolTableRecord
100
AcDbLayerTableRecord
  2
Shape355
 70
    0
 62
    7
  6
CONTINUOUS
  0
LAYER
  5
BF4
330
BE3
100
AcDbSymbolTableRecord
100
AcDbLayerTableRecord
  2
Shape356
 70
    0
 62
    7
  6
CONTINUOUS
  0
LAYER
  5
BF5
330
BE3
100
AcDbSymbolTableRecord
100
AcDbLayerTableRecord
  2
Shape357
 70
    0
 62
    7
  6
CONTINUOUS
  0
LAYER
  5
BF6
330
BE3
100
AcDbSymbolTableRecord
100
AcDbLayerTableRecord
  2
Shape358
 70
    0
 62
    7
  6
CONTINUOUS
  0
LAYER
  5
BF7
330
BE3
100
AcDbSymbolTableRecord
100
AcDbLayerTableRecord
  2
Shape359
 70
    0
 62
    7
  6
CONTINUOUS
  0
LAYER
  5
BF8
330
BE3
100
AcDbSymbolTableRecord
100
AcDbLayerTableRecord
  2
Shape360
 70
    0
 62
    7
  6
CONTINUOUS
  0
LAYER
  5
BF9
330
BE3
100
AcDbSymbolTableRecord
100
AcDbLayerTableRecord
  2
Shape361
 70
    0
 62
    7
  6
CONTINUOUS
  0
LAYER
  5
BFA
330
BE3
100
AcDbSymbolTableRecord
100
AcDbLayerTableRecord
  2
Shape362
 70
    0
 62
    7
  6
CONTINUOUS
  0
LAYER
  5
BFB
330
BE3
100
AcDbSymbolTableRecord
100
AcDbLayerTableRecord
  2
Shape363
 70
    0
 62
    7
  6
CONTINUOUS
  0
LAYER
  5
BFC
330
BE3
100
AcDbSymbolTableRecord
100
AcDbLayerTableRecord
  2
Shape364
 70
    0
 62
    7
  6
CONTINUOUS
  0
LAYER
  5
BFD
330
BE3
100
AcDbSymbolTableRecord
100
AcDbLayerTableRecord
  2
Shape365
 70
    0
 62
    7
  6
CONTINUOUS
  0
LAYER
  5
BFE
330
BE3
100
AcDbSymbolTableRecord
100
AcDbLayerTableRecord
  2
Shape390
 70
    0
 62
    7
  6
CONTINUOUS
  0
LAYER
  5
BFF
330
BE3
100
AcDbSymbolTableRecord
100
AcDbLayerTableRecord
  2
Shape391
 70
    0
 62
    7
  6
CONTINUOUS
  0
LAYER
  5
C00
330
BE3
100
AcDbSymbolTableRecord
100
AcDbLayerTableRecord
  2
Shape392
 70
    0
 62
    7
  6
CONTINUOUS
  0
LAYER
  5
C01
330
BE3
100
AcDbSymbolTableRecord
100
AcDbLayerTableRecord
  2
Shape393
 70
    0
 62
    7
  6
CONTINUOUS
  0
LAYER
  5
C02
330
BE3
100
AcDbSymbolTableRecord
100
AcDbLayerTableRecord
  2
Shape394
 70
    0
 62
    7
  6
CONTINUOUS
  0
LAYER
  5
C03
330
BE3
100
AcDbSymbolTableRecord
100
AcDbLayerTableRecord
  2
Shape395
 70
    0
 62
    7
  6
CONTINUOUS
  0
LAYER
  5
C04
330
BE3
100
AcDbSymbolTableRecord
100
AcDbLayerTableRecord
  2
Shape396
 70
    0
 62
    7
  6
CONTINUOUS
  0
LAYER
  5
C05
330
BE3
100
AcDbSymbolTableRecord
100
AcDbLayerTableRecord
  2
Shape397
 70
    0
 62
    7
  6
CONTINUOUS
  0
LAYER
  5
C06
330
BE3
100
AcDbSymbolTableRecord
100
AcDbLayerTableRecord
  2
Shape398
 70
    0
 62
    7
  6
CONTINUOUS
  0
LAYER
  5
C07
330
BE3
100
AcDbSymbolTableRecord
100
AcDbLayerTableRecord
  2
Shape399
 70
    0
 62
    7
  6
CONTINUOUS
  0
LAYER
  5
C08
330
BE3
100
AcDbSymbolTableRecord
100
AcDbLayerTableRecord
  2
Shape400
 70
    0
 62
    7
  6
CONTINUOUS
  0
LAYER
  5
C09
330
BE3
100
AcDbSymbolTableRecord
100
AcDbLayerTableRecord
  2
Shape401
 70
    0
 62
    7
  6
CONTINUOUS
  0
LAYER
  5
C0A
330
BE3
100
AcDbSymbolTableRecord
100
AcDbLayerTableRecord
  2
Shape402
 70
    0
 62
    7
  6
CONTINUOUS
  0
LAYER
  5
C0B
330
BE3
100
AcDbSymbolTableRecord
100
AcDbLayerTableRecord
  2
Shape403
 70
    0
 62
    7
  6
CONTINUOUS
  0
LAYER
  5
C0C
330
BE3
100
AcDbSymbolTableRecord
100
AcDbLayerTableRecord
  2
Shape404
 70
    0
 62
    7
  6
CONTINUOUS
  0
LAYER
  5
C0D
330
BE3
100
AcDbSymbolTableRecord
100
AcDbLayerTableRecord
  2
Shape405
 70
    0
 62
    7
  6
CONTINUOUS
  0
LAYER
  5
C0E
330
BE3
100
AcDbSymbolTableRecord
100
AcDbLayerTableRecord
  2
Shape406
 70
    0
 62
    7
  6
CONTINUOUS
  0
LAYER
  5
C0F
330
BE3
100
AcDbSymbolTableRecord
100
AcDbLayerTableRecord
  2
Shape407
 70
    0
 62
    7
  6
CONTINUOUS
  0
LAYER
  5
C10
330
BE3
100
AcDbSymbolTableRecord
100
AcDbLayerTableRecord
  2
Shape408
 70
    0
 62
    7
  6
CONTINUOUS
  0
LAYER
  5
C11
330
BE3
100
AcDbSymbolTableRecord
100
AcDbLayerTableRecord
  2
Shape409
 70
    0
 62
    7
  6
CONTINUOUS
  0
LAYER
  5
C12
330
BE3
100
AcDbSymbolTableRecord
100
AcDbLayerTableRecord
  2
Shape410
 70
    0
 62
    7
  6
CONTINUOUS
  0
LAYER
  5
C13
330
BE3
100
AcDbSymbolTableRecord
100
AcDbLayerTableRecord
  2
Shape411
 70
    0
 62
    7
  6
CONTINUOUS
  0
LAYER
  5
C14
330
BE3
100
AcDbSymbolTableRecord
100
AcDbLayerTableRecord
  2
Shape412
 70
    0
 62
    7
  6
CONTINUOUS
  0
LAYER
  5
C15
330
BE3
100
AcDbSymbolTableRecord
100
AcDbLayerTableRecord
  2
Shape413
 70
    0
 62
    7
  6
CONTINUOUS
  0
LAYER
  5
C16
330
BE3
100
AcDbSymbolTableRecord
100
AcDbLayerTableRecord
  2
Shape414
 70
    0
 62
    7
  6
CONTINUOUS
  0
LAYER
  5
C17
330
BE3
100
AcDbSymbolTableRecord
100
AcDbLayerTableRecord
  2
Shape415
 70
    0
 62
    7
  6
CONTINUOUS
  0
LAYER
  5
C18
330
BE3
100
AcDbSymbolTableRecord
100
AcDbLayerTableRecord
  2
Shape416
 70
    0
 62
    7
  6
CONTINUOUS
  0
LAYER
  5
C19
330
BE3
100
AcDbSymbolTableRecord
100
AcDbLayerTableRecord
  2
Shape417
 70
    0
 62
    7
  6
CONTINUOUS
  0
LAYER
  5
C1A
330
BE3
100
AcDbSymbolTableRecord
100
AcDbLayerTableRecord
  2
Shape418
 70
    0
 62
    7
  6
CONTINUOUS
  0
LAYER
  5
C1B
330
BE3
100
AcDbSymbolTableRecord
100
AcDbLayerTableRecord
  2
Shape419
 70
    0
 62
    7
  6
CONTINUOUS
  0
LAYER
  5
C1C
330
BE3
100
AcDbSymbolTableRecord
100
AcDbLayerTableRecord
  2
Shape420
 70
    0
 62
    7
  6
CONTINUOUS
  0
LAYER
  5
C1D
330
BE3
100
AcDbSymbolTableRecord
100
AcDbLayerTableRecord
  2
Shape421
 70
    0
 62
    7
  6
CONTINUOUS
  0
LAYER
  5
C1E
330
BE3
100
AcDbSymbolTableRecord
100
AcDbLayerTableRecord
  2
Shape422
 70
    0
 62
    7
  6
CONTINUOUS
  0
LAYER
  5
C1F
330
BE3
100
AcDbSymbolTableRecord
100
AcDbLayerTableRecord
  2
Shape423
 70
    0
 62
    7
  6
CONTINUOUS
  0
LAYER
  5
C20
330
BE3
100
AcDbSymbolTableRecord
100
AcDbLayerTableRecord
  2
Shape424
 70
    0
 62
    7
  6
CONTINUOUS
  0
LAYER
  5
C21
330
BE3
100
AcDbSymbolTableRecord
100
AcDbLayerTableRecord
  2
Shape425
 70
    0
 62
    7
  6
CONTINUOUS
  0
LAYER
  5
C22
330
BE3
100
AcDbSymbolTableRecord
100
AcDbLayerTableRecord
  2
Shape426
 70
    0
 62
    7
  6
CONTINUOUS
  0
LAYER
  5
C23
330
BE3
100
AcDbSymbolTableRecord
100
AcDbLayerTableRecord
  2
Shape427
 70
    0
 62
    7
  6
CONTINUOUS
  0
LAYER
  5
C24
330
BE3
100
AcDbSymbolTableRecord
100
AcDbLayerTableRecord
  2
Shape428
 70
    0
 62
    7
  6
CONTINUOUS
  0
LAYER
  5
C25
330
BE3
100
AcDbSymbolTableRecord
100
AcDbLayerTableRecord
  2
Shape429
 70
    0
 62
    7
  6
CONTINUOUS
  0
LAYER
  5
C26
330
BE3
100
AcDbSymbolTableRecord
100
AcDbLayerTableRecord
  2
Shape430
 70
    0
 62
    7
  6
CONTINUOUS
  0
LAYER
  5
C27
330
BE3
100
AcDbSymbolTableRecord
100
AcDbLayerTableRecord
  2
Shape431
 70
    0
 62
    7
  6
CONTINUOUS
  0
LAYER
  5
C28
330
BE3
100
AcDbSymbolTableRecord
100
AcDbLayerTableRecord
  2
Shape432
 70
    0
 62
    7
  6
CONTINUOUS
  0
LAYER
  5
C29
330
BE3
100
AcDbSymbolTableRecord
100
AcDbLayerTableRecord
  2
Shape433
 70
    0
 62
    7
  6
CONTINUOUS
  0
LAYER
  5
C2A
330
BE3
100
AcDbSymbolTableRecord
100
AcDbLayerTableRecord
  2
Shape434
 70
    0
 62
    7
  6
CONTINUOUS
  0
LAYER
  5
C2B
330
BE3
100
AcDbSymbolTableRecord
100
AcDbLayerTableRecord
  2
Shape435
 70
    0
 62
    7
  6
CONTINUOUS
  0
LAYER
  5
C2C
330
BE3
100
AcDbSymbolTableRecord
100
AcDbLayerTableRecord
  2
Shape436
 70
    0
 62
    7
  6
CONTINUOUS
  0
LAYER
  5
C2D
330
BE3
100
AcDbSymbolTableRecord
100
AcDbLayerTableRecord
  2
Shape437
 70
    0
 62
    7
  6
CONTINUOUS
  0
LAYER
  5
C2E
330
BE3
100
AcDbSymbolTableRecord
100
AcDbLayerTableRecord
  2
Shape438
 70
    0
 62
    7
  6
CONTINUOUS
  0
LAYER
  5
C2F
330
BE3
100
AcDbSymbolTableRecord
100
AcDbLayerTableRecord
  2
Shape439
 70
    0
 62
    7
  6
CONTINUOUS
  0
LAYER
  5
C30
330
BE3
100
AcDbSymbolTableRecord
100
AcDbLayerTableRecord
  2
Shape440
 70
    0
 62
    7
  6
CONTINUOUS
  0
LAYER
  5
C31
330
BE3
100
AcDbSymbolTableRecord
100
AcDbLayerTableRecord
  2
Shape441
 70
    0
 62
    7
  6
CONTINUOUS
  0
LAYER
  5
C32
330
BE3
100
AcDbSymbolTableRecord
100
AcDbLayerTableRecord
  2
Shape442
 70
    0
 62
    7
  6
CONTINUOUS
  0
LAYER
  5
C33
330
BE3
100
AcDbSymbolTableRecord
100
AcDbLayerTableRecord
  2
Shape443
 70
    0
 62
    7
  6
CONTINUOUS
  0
LAYER
  5
C34
330
BE3
100
AcDbSymbolTableRecord
100
AcDbLayerTableRecord
  2
Shape444
 70
    0
 62
    7
  6
CONTINUOUS
  0
LAYER
  5
C35
330
BE3
100
AcDbSymbolTableRecord
100
AcDbLayerTableRecord
  2
Shape445
 70
    0
 62
    7
  6
CONTINUOUS
  0
LAYER
  5
C36
330
BE3
100
AcDbSymbolTableRecord
100
AcDbLayerTableRecord
  2
Shape446
 70
    0
 62
    7
  6
CONTINUOUS
  0
LAYER
  5
C37
330
BE3
100
AcDbSymbolTableRecord
100
AcDbLayerTableRecord
  2
Shape447
 70
    0
 62
    7
  6
CONTINUOUS
  0
LAYER
  5
C38
330
BE3
100
AcDbSymbolTableRecord
100
AcDbLayerTableRecord
  2
Shape448
 70
    0
 62
    7
  6
CONTINUOUS
  0
LAYER
  5
C39
330
BE3
100
AcDbSymbolTableRecord
100
AcDbLayerTableRecord
  2
Shape449
 70
    0
 62
    7
  6
CONTINUOUS
  0
LAYER
  5
C3A
330
BE3
100
AcDbSymbolTableRecord
100
AcDbLayerTableRecord
  2
Shape450
 70
    0
 62
    7
  6
CONTINUOUS
  0
LAYER
  5
C3B
330
BE3
100
AcDbSymbolTableRecord
100
AcDbLayerTableRecord
  2
Shape451
 70
    0
 62
    7
  6
CONTINUOUS
  0
LAYER
  5
C3C
330
BE3
100
AcDbSymbolTableRecord
100
AcDbLayerTableRecord
  2
Shape452
 70
    0
 62
    7
  6
CONTINUOUS
  0
LAYER
  5
C3D
330
BE3
100
AcDbSymbolTableRecord
100
AcDbLayerTableRecord
  2
Shape453
 70
    0
 62
    7
  6
CONTINUOUS
  0
LAYER
  5
C3E
330
BE3
100
AcDbSymbolTableRecord
100
AcDbLayerTableRecord
  2
Shape454
 70
    0
 62
    7
  6
CONTINUOUS
  0
LAYER
  5
C3F
330
BE3
100
AcDbSymbolTableRecord
100
AcDbLayerTableRecord
  2
Shape455
 70
    0
 62
    7
  6
CONTINUOUS
  0
LAYER
  5
C40
330
BE3
100
AcDbSymbolTableRecord
100
AcDbLayerTableRecord
  2
Shape456
 70
    0
 62
    7
  6
CONTINUOUS
  0
LAYER
  5
C41
330
BE3
100
AcDbSymbolTableRecord
100
AcDbLayerTableRecord
  2
Shape457
 70
    0
 62
    7
  6
CONTINUOUS
  0
LAYER
  5
C42
330
BE3
100
AcDbSymbolTableRecord
100
AcDbLayerTableRecord
  2
Shape458
 70
    0
 62
    7
  6
CONTINUOUS
  0
LAYER
  5
C43
330
BE3
100
AcDbSymbolTableRecord
100
AcDbLayerTableRecord
  2
Shape459
 70
    0
 62
    7
  6
CONTINUOUS
  0
LAYER
  5
C44
330
BE3
100
AcDbSymbolTableRecord
100
AcDbLayerTableRecord
  2
Shape460
 70
    0
 62
    7
  6
CONTINUOUS
  0
LAYER
  5
C45
330
BE3
100
AcDbSymbolTableRecord
100
AcDbLayerTableRecord
  2
Shape461
 70
    0
 62
    7
  6
CONTINUOUS
  0
LAYER
  5
C46
330
BE3
100
AcDbSymbolTableRecord
100
AcDbLayerTableRecord
  2
Shape462
 70
    0
 62
    7
  6
CONTINUOUS
  0
LAYER
  5
C47
330
BE3
100
AcDbSymbolTableRecord
100
AcDbLayerTableRecord
  2
Shape463
 70
    0
 62
    7
  6
CONTINUOUS
  0
LAYER
  5
C48
330
BE3
100
AcDbSymbolTableRecord
100
AcDbLayerTableRecord
  2
Shape464
 70
    0
 62
    7
  6
CONTINUOUS
  0
LAYER
  5
C49
330
BE3
100
AcDbSymbolTableRecord
100
AcDbLayerTableRecord
  2
Shape465
 70
    0
 62
    7
  6
CONTINUOUS
  0
LAYER
  5
C4A
330
BE3
100
AcDbSymbolTableRecord
100
AcDbLayerTableRecord
  2
Shape466
 70
    0
 62
    7
  6
CONTINUOUS
  0
LAYER
  5
C4B
330
BE3
100
AcDbSymbolTableRecord
100
AcDbLayerTableRecord
  2
Shape467
 70
    0
 62
    7
  6
CONTINUOUS
  0
LAYER
  5
C4C
330
BE3
100
AcDbSymbolTableRecord
100
AcDbLayerTableRecord
  2
Shape468
 70
    0
 62
    7
  6
CONTINUOUS
  0
LAYER
  5
C4D
330
BE3
100
AcDbSymbolTableRecord
100
AcDbLayerTableRecord
  2
Shape469
 70
    0
 62
    7
  6
CONTINUOUS
  0
LAYER
  5
C4E
330
BE3
100
AcDbSymbolTableRecord
100
AcDbLayerTableRecord
  2
Shape470
 70
    0
 62
    7
  6
CONTINUOUS
  0
LAYER
  5
C4F
330
BE3
100
AcDbSymbolTableRecord
100
AcDbLayerTableRecord
  2
Shape471
 70
    0
 62
    7
  6
CONTINUOUS
  0
LAYER
  5
C50
330
BE3
100
AcDbSymbolTableRecord
100
AcDbLayerTableRecord
  2
Shape472
 70
    0
 62
    7
  6
CONTINUOUS
  0
LAYER
  5
C51
330
BE3
100
AcDbSymbolTableRecord
100
AcDbLayerTableRecord
  2
Shape473
 70
    0
 62
    7
  6
CONTINUOUS
  0
LAYER
  5
C52
330
BE3
100
AcDbSymbolTableRecord
100
AcDbLayerTableRecord
  2
Shape474
 70
    0
 62
    7
  6
CONTINUOUS
  0
LAYER
  5
C53
330
BE3
100
AcDbSymbolTableRecord
100
AcDbLayerTableRecord
  2
Shape475
 70
    0
 62
    7
  6
CONTINUOUS
  0
LAYER
  5
C54
330
BE3
100
AcDbSymbolTableRecord
100
AcDbLayerTableRecord
  2
Shape476
 70
    0
 62
    7
  6
CONTINUOUS
  0
LAYER
  5
C55
330
BE3
100
AcDbSymbolTableRecord
100
AcDbLayerTableRecord
  2
Shape477
 70
    0
 62
    7
  6
CONTINUOUS
  0
LAYER
  5
C56
330
BE3
100
AcDbSymbolTableRecord
100
AcDbLayerTableRecord
  2
Shape478
 70
    0
 62
    7
  6
CONTINUOUS
  0
LAYER
  5
C57
330
BE3
100
AcDbSymbolTableRecord
100
AcDbLayerTableRecord
  2
Shape479
 70
    0
 62
    7
  6
CONTINUOUS
  0
LAYER
  5
C58
330
BE3
100
AcDbSymbolTableRecord
100
AcDbLayerTableRecord
  2
Shape480
 70
    0
 62
    7
  6
CONTINUOUS
  0
LAYER
  5
C59
330
BE3
100
AcDbSymbolTableRecord
100
AcDbLayerTableRecord
  2
Shape481
 70
    0
 62
    7
  6
CONTINUOUS
  0
LAYER
  5
C5A
330
BE3
100
AcDbSymbolTableRecord
100
AcDbLayerTableRecord
  2
Shape482
 70
    0
 62
    7
  6
CONTINUOUS
  0
LAYER
  5
C5B
330
BE3
100
AcDbSymbolTableRecord
100
AcDbLayerTableRecord
  2
Shape483
 70
    0
 62
    7
  6
CONTINUOUS
  0
LAYER
  5
C5C
330
BE3
100
AcDbSymbolTableRecord
100
AcDbLayerTableRecord
  2
Shape484
 70
    0
 62
    7
  6
CONTINUOUS
  0
LAYER
  5
C5D
330
BE3
100
AcDbSymbolTableRecord
100
AcDbLayerTableRecord
  2
Shape485
 70
    0
 62
    7
  6
CONTINUOUS
  0
LAYER
  5
C5E
330
BE3
100
AcDbSymbolTableRecord
100
AcDbLayerTableRecord
  2
Shape486
 70
    0
 62
    7
  6
CONTINUOUS
  0
LAYER
  5
C5F
330
BE3
100
AcDbSymbolTableRecord
100
AcDbLayerTableRecord
  2
Shape487
 70
    0
 62
    7
  6
CONTINUOUS
  0
LAYER
  5
C60
330
BE3
100
AcDbSymbolTableRecord
100
AcDbLayerTableRecord
  2
Shape488
 70
    0
 62
    7
  6
CONTINUOUS
  0
LAYER
  5
C61
330
BE3
100
AcDbSymbolTableRecord
100
AcDbLayerTableRecord
  2
Shape489
 70
    0
 62
    7
  6
CONTINUOUS
  0
LAYER
  5
C62
330
BE3
100
AcDbSymbolTableRecord
100
AcDbLayerTableRecord
  2
Shape490
 70
    0
 62
    7
  6
CONTINUOUS
  0
LAYER
  5
C63
330
BE3
100
AcDbSymbolTableRecord
100
AcDbLayerTableRecord
  2
Shape491
 70
    0
 62
    7
  6
CONTINUOUS
  0
LAYER
  5
C64
330
BE3
100
AcDbSymbolTableRecord
100
AcDbLayerTableRecord
  2
Shape492
 70
    0
 62
    7
  6
CONTINUOUS
  0
LAYER
  5
C65
330
BE3
100
AcDbSymbolTableRecord
100
AcDbLayerTableRecord
  2
Shape493
 70
    0
 62
    7
  6
CONTINUOUS
  0
LAYER
  5
C66
330
BE3
100
AcDbSymbolTableRecord
100
AcDbLayerTableRecord
  2
Shape494
 70
    0
 62
    7
  6
CONTINUOUS
  0
LAYER
  5
C67
330
BE3
100
AcDbSymbolTableRecord
100
AcDbLayerTableRecord
  2
Shape495
 70
    0
 62
    7
  6
CONTINUOUS
  0
LAYER
  5
C68
330
BE3
100
AcDbSymbolTableRecord
100
AcDbLayerTableRecord
  2
Shape496
 70
    0
 62
    7
  6
CONTINUOUS
  0
LAYER
  5
C69
330
BE3
100
AcDbSymbolTableRecord
100
AcDbLayerTableRecord
  2
Shape497
 70
    0
 62
    7
  6
CONTINUOUS
  0
LAYER
  5
C6A
330
BE3
100
AcDbSymbolTableRecord
100
AcDbLayerTableRecord
  2
Shape498
 70
    0
 62
    7
  6
CONTINUOUS
  0
LAYER
  5
C6B
330
BE3
100
AcDbSymbolTableRecord
100
AcDbLayerTableRecord
  2
Shape499
 70
    0
 62
    7
  6
CONTINUOUS
  0
LAYER
  5
C6C
330
BE3
100
AcDbSymbolTableRecord
100
AcDbLayerTableRecord
  2
Shape500
 70
    0
 62
    7
  6
CONTINUOUS
  0
LAYER
  5
C6D
330
BE3
100
AcDbSymbolTableRecord
100
AcDbLayerTableRecord
  2
Shape501
 70
    0
 62
    7
  6
CONTINUOUS
  0
LAYER
  5
C6E
330
BE3
100
AcDbSymbolTableRecord
100
AcDbLayerTableRecord
  2
Shape502
 70
    0
 62
    7
  6
CONTINUOUS
  0
LAYER
  5
C6F
330
BE3
100
AcDbSymbolTableRecord
100
AcDbLayerTableRecord
  2
Shape503
 70
    0
 62
    7
  6
CONTINUOUS
  0
LAYER
  5
C70
330
BE3
100
AcDbSymbolTableRecord
100
AcDbLayerTableRecord
  2
Shape504
 70
    0
 62
    7
  6
CONTINUOUS
  0
LAYER
  5
C71
330
BE3
100
AcDbSymbolTableRecord
100
AcDbLayerTableRecord
  2
Shape505
 70
    0
 62
    7
  6
CONTINUOUS
  0
LAYER
  5
C72
330
BE3
100
AcDbSymbolTableRecord
100
AcDbLayerTableRecord
  2
Shape506
 70
    0
 62
    7
  6
CONTINUOUS
  0
LAYER
  5
C73
330
BE3
100
AcDbSymbolTableRecord
100
AcDbLayerTableRecord
  2
Shape507
 70
    0
 62
    7
  6
CONTINUOUS
  0
LAYER
  5
C74
330
BE3
100
AcDbSymbolTableRecord
100
AcDbLayerTableRecord
  2
Shape508
 70
    0
 62
    7
  6
CONTINUOUS
  0
LAYER
  5
C75
330
BE3
100
AcDbSymbolTableRecord
100
AcDbLayerTableRecord
  2
Shape509
 70
    0
 62
    7
  6
CONTINUOUS
  0
LAYER
  5
C76
330
BE3
100
AcDbSymbolTableRecord
100
AcDbLayerTableRecord
  2
Shape510
 70
    0
 62
    7
  6
CONTINUOUS
  0
LAYER
  5
C77
330
BE3
100
AcDbSymbolTableRecord
100
AcDbLayerTableRecord
  2
Shape511
 70
    0
 62
    7
  6
CONTINUOUS
  0
LAYER
  5
C78
330
BE3
100
AcDbSymbolTableRecord
100
AcDbLayerTableRecord
  2
Shape512
 70
    0
 62
    7
  6
CONTINUOUS
  0
LAYER
  5
C79
330
BE3
100
AcDbSymbolTableRecord
100
AcDbLayerTableRecord
  2
Shape513
 70
    0
 62
    7
  6
CONTINUOUS
  0
LAYER
  5
C7A
330
BE3
100
AcDbSymbolTableRecord
100
AcDbLayerTableRecord
  2
Shape514
 70
    0
 62
    7
  6
CONTINUOUS
  0
LAYER
  5
C7B
330
BE3
100
AcDbSymbolTableRecord
100
AcDbLayerTableRecord
  2
Shape515
 70
    0
 62
    7
  6
CONTINUOUS
  0
LAYER
  5
C7C
330
BE3
100
AcDbSymbolTableRecord
100
AcDbLayerTableRecord
  2
Shape516
 70
    0
 62
    7
  6
CONTINUOUS
  0
LAYER
  5
C7D
330
BE3
100
AcDbSymbolTableRecord
100
AcDbLayerTableRecord
  2
Shape517
 70
    0
 62
    7
  6
CONTINUOUS
  0
LAYER
  5
C7E
330
BE3
100
AcDbSymbolTableRecord
100
AcDbLayerTableRecord
  2
Shape518
 70
    0
 62
    7
  6
CONTINUOUS
  0
LAYER
  5
C7F
330
BE3
100
AcDbSymbolTableRecord
100
AcDbLayerTableRecord
  2
Shape519
 70
    0
 62
    7
  6
CONTINUOUS
  0
LAYER
  5
C80
330
BE3
100
AcDbSymbolTableRecord
100
AcDbLayerTableRecord
  2
Shape520
 70
    0
 62
    7
  6
CONTINUOUS
  0
LAYER
  5
C81
330
BE3
100
AcDbSymbolTableRecord
100
AcDbLayerTableRecord
  2
Shape521
 70
    0
 62
    7
  6
CONTINUOUS
  0
LAYER
  5
C82
330
BE3
100
AcDbSymbolTableRecord
100
AcDbLayerTableRecord
  2
Shape2214
 70
    0
 62
    7
  6
CONTINUOUS
  0
LAYER
  5
C83
330
BE3
100
AcDbSymbolTableRecord
100
AcDbLayerTableRecord
  2
Shape2215
 70
    0
 62
    7
  6
CONTINUOUS
  0
LAYER
  5
C84
330
BE3
100
AcDbSymbolTableRecord
100
AcDbLayerTableRecord
  2
Shape2216
 70
    0
 62
    7
  6
CONTINUOUS
  0
LAYER
  5
C85
330
BE3
100
AcDbSymbolTableRecord
100
AcDbLayerTableRecord
  2
Shape2217
 70
    0
 62
    7
  6
CONTINUOUS
  0
LAYER
  5
C86
330
BE3
100
AcDbSymbolTableRecord
100
AcDbLayerTableRecord
  2
Shape2218
 70
    0
 62
    7
  6
CONTINUOUS
  0
LAYER
  5
C87
330
BE3
100
AcDbSymbolTableRecord
100
AcDbLayerTableRecord
  2
Shape2219
 70
    0
 62
    7
  6
CONTINUOUS
  0
LAYER
  5
C88
330
BE3
100
AcDbSymbolTableRecord
100
AcDbLayerTableRecord
  2
Shape2220
 70
    0
 62
    7
  6
CONTINUOUS
  0
LAYER
  5
C89
330
BE3
100
AcDbSymbolTableRecord
100
AcDbLayerTableRecord
  2
Shape2221
 70
    0
 62
    7
  6
CONTINUOUS
  0
LAYER
  5
C8A
330
BE3
100
AcDbSymbolTableRecord
100
AcDbLayerTableRecord
  2
Shape2222
 70
    0
 62
    7
  6
CONTINUOUS
  0
LAYER
  5
C8B
330
BE3
100
AcDbSymbolTableRecord
100
AcDbLayerTableRecord
  2
Shape2223
 70
    0
 62
    7
  6
CONTINUOUS
  0
LAYER
  5
C8C
330
BE3
100
AcDbSymbolTableRecord
100
AcDbLayerTableRecord
  2
Shape2224
 70
    0
 62
    7
  6
CONTINUOUS
  0
LAYER
  5
C8D
330
BE3
100
AcDbSymbolTableRecord
100
AcDbLayerTableRecord
  2
Shape2225
 70
    0
 62
    7
  6
CONTINUOUS
  0
LAYER
  5
C8E
330
BE3
100
AcDbSymbolTableRecord
100
AcDbLayerTableRecord
  2
Shape2226
 70
    0
 62
    7
  6
CONTINUOUS
  0
LAYER
  5
C8F
330
BE3
100
AcDbSymbolTableRecord
100
AcDbLayerTableRecord
  2
Shape2227
 70
    0
 62
    7
  6
CONTINUOUS
  0
LAYER
  5
C90
330
BE3
100
AcDbSymbolTableRecord
100
AcDbLayerTableRecord
  2
Shape2228
 70
    0
 62
    7
  6
CONTINUOUS
  0
LAYER
  5
C91
330
BE3
100
AcDbSymbolTableRecord
100
AcDbLayerTableRecord
  2
Shape2229
 70
    0
 62
    7
  6
CONTINUOUS
  0
LAYER
  5
C92
330
BE3
100
AcDbSymbolTableRecord
100
AcDbLayerTableRecord
  2
Shape2230
 70
    0
 62
    7
  6
CONTINUOUS
  0
LAYER
  5
C93
330
BE3
100
AcDbSymbolTableRecord
100
AcDbLayerTableRecord
  2
Shape2231
 70
    0
 62
    7
  6
CONTINUOUS
  0
LAYER
  5
C94
330
BE3
100
AcDbSymbolTableRecord
100
AcDbLayerTableRecord
  2
Shape2232
 70
    0
 62
    7
  6
CONTINUOUS
  0
LAYER
  5
C95
330
BE3
100
AcDbSymbolTableRecord
100
AcDbLayerTableRecord
  2
Shape2233
 70
    0
 62
    7
  6
CONTINUOUS
  0
LAYER
  5
C96
330
BE3
100
AcDbSymbolTableRecord
100
AcDbLayerTableRecord
  2
Shape2234
 70
    0
 62
    7
  6
CONTINUOUS
  0
LAYER
  5
C97
330
BE3
100
AcDbSymbolTableRecord
100
AcDbLayerTableRecord
  2
Shape2235
 70
    0
 62
    7
  6
CONTINUOUS
  0
LAYER
  5
C98
330
BE3
100
AcDbSymbolTableRecord
100
AcDbLayerTableRecord
  2
Shape2236
 70
    0
 62
    7
  6
CONTINUOUS
  0
LAYER
  5
C99
330
BE3
100
AcDbSymbolTableRecord
100
AcDbLayerTableRecord
  2
Shape2237
 70
    0
 62
    7
  6
CONTINUOUS
  0
LAYER
  5
C9A
330
BE3
100
AcDbSymbolTableRecord
100
AcDbLayerTableRecord
  2
Shape2238
 70
    0
 62
    7
  6
CONTINUOUS
  0
LAYER
  5
C9B
330
BE3
100
AcDbSymbolTableRecord
100
AcDbLayerTableRecord
  2
Shape2239
 70
    0
 62
    7
  6
CONTINUOUS
  0
LAYER
  5
C9C
330
BE3
100
AcDbSymbolTableRecord
100
AcDbLayerTableRecord
  2
Shape2240
 70
    0
 62
    7
  6
CONTINUOUS
  0
LAYER
  5
C9D
330
BE3
100
AcDbSymbolTableRecord
100
AcDbLayerTableRecord
  2
Shape2241
 70
    0
 62
    7
  6
CONTINUOUS
  0
LAYER
  5
C9E
330
BE3
100
AcDbSymbolTableRecord
100
AcDbLayerTableRecord
  2
Shape2242
 70
    0
 62
    7
  6
CONTINUOUS
  0
LAYER
  5
C9F
330
BE3
100
AcDbSymbolTableRecord
100
AcDbLayerTableRecord
  2
Shape2243
 70
    0
 62
    7
  6
CONTINUOUS
  0
LAYER
  5
CA0
330
BE3
100
AcDbSymbolTableRecord
100
AcDbLayerTableRecord
  2
Shape2244
 70
    0
 62
    7
  6
CONTINUOUS
  0
LAYER
  5
CA1
330
BE3
100
AcDbSymbolTableRecord
100
AcDbLayerTableRecord
  2
Shape2245
 70
    0
 62
    7
  6
CONTINUOUS
  0
LAYER
  5
CA2
330
BE3
100
AcDbSymbolTableRecord
100
AcDbLayerTableRecord
  2
Shape2246
 70
    0
 62
    7
  6
CONTINUOUS
  0
LAYER
  5
CA3
330
BE3
100
AcDbSymbolTableRecord
100
AcDbLayerTableRecord
  2
Shape2247
 70
    0
 62
    7
  6
CONTINUOUS
  0
LAYER
  5
CA4
330
BE3
100
AcDbSymbolTableRecord
100
AcDbLayerTableRecord
  2
Shape2248
 70
    0
 62
    7
  6
CONTINUOUS
  0
LAYER
  5
CA5
330
BE3
100
AcDbSymbolTableRecord
100
AcDbLayerTableRecord
  2
Shape2249
 70
    0
 62
    7
  6
CONTINUOUS
  0
LAYER
  5
CA6
330
BE3
100
AcDbSymbolTableRecord
100
AcDbLayerTableRecord
  2
Shape2250
 70
    0
 62
    7
  6
CONTINUOUS
  0
LAYER
  5
CA7
330
BE3
100
AcDbSymbolTableRecord
100
AcDbLayerTableRecord
  2
Shape2251
 70
    0
 62
    7
  6
CONTINUOUS
  0
LAYER
  5
CA8
330
BE3
100
AcDbSymbolTableRecord
100
AcDbLayerTableRecord
  2
Shape2252
 70
    0
 62
    7
  6
CONTINUOUS
  0
LAYER
  5
CA9
330
BE3
100
AcDbSymbolTableRecord
100
AcDbLayerTableRecord
  2
Shape2253
 70
    0
 62
    7
  6
CONTINUOUS
  0
LAYER
  5
CAA
330
BE3
100
AcDbSymbolTableRecord
100
AcDbLayerTableRecord
  2
Shape2254
 70
    0
 62
    7
  6
CONTINUOUS
  0
LAYER
  5
CAB
330
BE3
100
AcDbSymbolTableRecord
100
AcDbLayerTableRecord
  2
Shape2255
 70
    0
 62
    7
  6
CONTINUOUS
  0
LAYER
  5
CAC
330
BE3
100
AcDbSymbolTableRecord
100
AcDbLayerTableRecord
  2
Shape2256
 70
    0
 62
    7
  6
CONTINUOUS
  0
LAYER
  5
CAD
330
BE3
100
AcDbSymbolTableRecord
100
AcDbLayerTableRecord
  2
Shape2257
 70
    0
 62
    7
  6
CONTINUOUS
  0
LAYER
  5
CAE
330
BE3
100
AcDbSymbolTableRecord
100
AcDbLayerTableRecord
  2
Shape2258
 70
    0
 62
    7
  6
CONTINUOUS
  0
LAYER
  5
CAF
330
BE3
100
AcDbSymbolTableRecord
100
AcDbLayerTableRecord
  2
Shape2259
 70
    0
 62
    7
  6
CONTINUOUS
  0
LAYER
  5
CB0
330
BE3
100
AcDbSymbolTableRecord
100
AcDbLayerTableRecord
  2
Shape2260
 70
    0
 62
    7
  6
CONTINUOUS
  0
LAYER
  5
CB1
330
BE3
100
AcDbSymbolTableRecord
100
AcDbLayerTableRecord
  2
Shape2261
 70
    0
 62
    7
  6
CONTINUOUS
  0
LAYER
  5
CB2
330
BE3
100
AcDbSymbolTableRecord
100
AcDbLayerTableRecord
  2
Shape2262
 70
    0
 62
    7
  6
CONTINUOUS
  0
LAYER
  5
CB3
330
BE3
100
AcDbSymbolTableRecord
100
AcDbLayerTableRecord
  2
Shape2263
 70
    0
 62
    7
  6
CONTINUOUS
  0
LAYER
  5
CB4
330
BE3
100
AcDbSymbolTableRecord
100
AcDbLayerTableRecord
  2
Shape2264
 70
    0
 62
    7
  6
CONTINUOUS
  0
LAYER
  5
CB5
330
BE3
100
AcDbSymbolTableRecord
100
AcDbLayerTableRecord
  2
Shape2265
 70
    0
 62
    7
  6
CONTINUOUS
  0
LAYER
  5
CB6
330
BE3
100
AcDbSymbolTableRecord
100
AcDbLayerTableRecord
  2
Shape2266
 70
    0
 62
    7
  6
CONTINUOUS
  0
LAYER
  5
CB7
330
BE3
100
AcDbSymbolTableRecord
100
AcDbLayerTableRecord
  2
Shape2267
 70
    0
 62
    7
  6
CONTINUOUS
  0
LAYER
  5
CB8
330
BE3
100
AcDbSymbolTableRecord
100
AcDbLayerTableRecord
  2
Shape2268
 70
    0
 62
    7
  6
CONTINUOUS
  0
LAYER
  5
CB9
330
BE3
100
AcDbSymbolTableRecord
100
AcDbLayerTableRecord
  2
Shape2269
 70
    0
 62
    7
  6
CONTINUOUS
  0
LAYER
  5
CBA
330
BE3
100
AcDbSymbolTableRecord
100
AcDbLayerTableRecord
  2
Shape2270
 70
    0
 62
    7
  6
CONTINUOUS
  0
LAYER
  5
CBB
330
BE3
100
AcDbSymbolTableRecord
100
AcDbLayerTableRecord
  2
Shape2271
 70
    0
 62
    7
  6
CONTINUOUS
  0
LAYER
  5
CBC
330
BE3
100
AcDbSymbolTableRecord
100
AcDbLayerTableRecord
  2
Shape2272
 70
    0
 62
    7
  6
CONTINUOUS
  0
LAYER
  5
CBD
330
BE3
100
AcDbSymbolTableRecord
100
AcDbLayerTableRecord
  2
Shape2273
 70
    0
 62
    7
  6
CONTINUOUS
  0
LAYER
  5
CBE
330
BE3
100
AcDbSymbolTableRecord
100
AcDbLayerTableRecord
  2
Shape2274
 70
    0
 62
    7
  6
CONTINUOUS
  0
LAYER
  5
CBF
330
BE3
100
AcDbSymbolTableRecord
100
AcDbLayerTableRecord
  2
Shape2275
 70
    0
 62
    7
  6
CONTINUOUS
  0
LAYER
  5
CC0
330
BE3
100
AcDbSymbolTableRecord
100
AcDbLayerTableRecord
  2
Shape2276
 70
    0
 62
    7
  6
CONTINUOUS
  0
LAYER
  5
CC1
330
BE3
100
AcDbSymbolTableRecord
100
AcDbLayerTableRecord
  2
Shape2277
 70
    0
 62
    7
  6
CONTINUOUS
  0
LAYER
  5
CC2
330
BE3
100
AcDbSymbolTableRecord
100
AcDbLayerTableRecord
  2
Shape2278
 70
    0
 62
    7
  6
CONTINUOUS
  0
LAYER
  5
CC3
330
BE3
100
AcDbSymbolTableRecord
100
AcDbLayerTableRecord
  2
Shape2279
 70
    0
 62
    7
  6
CONTINUOUS
  0
LAYER
  5
CC4
330
BE3
100
AcDbSymbolTableRecord
100
AcDbLayerTableRecord
  2
Shape2280
 70
    0
 62
    7
  6
CONTINUOUS
  0
LAYER
  5
CC5
330
BE3
100
AcDbSymbolTableRecord
100
AcDbLayerTableRecord
  2
Shape2281
 70
    0
 62
    7
  6
CONTINUOUS
  0
LAYER
  5
CC6
330
BE3
100
AcDbSymbolTableRecord
100
AcDbLayerTableRecord
  2
Shape2282
 70
    0
 62
    7
  6
CONTINUOUS
  0
LAYER
  5
CC7
330
BE3
100
AcDbSymbolTableRecord
100
AcDbLayerTableRecord
  2
Shape2283
 70
    0
 62
    7
  6
CONTINUOUS
  0
LAYER
  5
CC8
330
BE3
100
AcDbSymbolTableRecord
100
AcDbLayerTableRecord
  2
Shape2284
 70
    0
 62
    7
  6
CONTINUOUS
  0
LAYER
  5
CC9
330
BE3
100
AcDbSymbolTableRecord
100
AcDbLayerTableRecord
  2
Shape2285
 70
    0
 62
    7
  6
CONTINUOUS
  0
LAYER
  5
CCA
330
BE3
100
AcDbSymbolTableRecord
100
AcDbLayerTableRecord
  2
Shape2286
 70
    0
 62
    7
  6
CONTINUOUS
  0
LAYER
  5
CCB
330
BE3
100
AcDbSymbolTableRecord
100
AcDbLayerTableRecord
  2
Shape2287
 70
    0
 62
    7
  6
CONTINUOUS
  0
LAYER
  5
CCC
330
BE3
100
AcDbSymbolTableRecord
100
AcDbLayerTableRecord
  2
Shape2288
 70
    0
 62
    7
  6
CONTINUOUS
  0
LAYER
  5
CCD
330
BE3
100
AcDbSymbolTableRecord
100
AcDbLayerTableRecord
  2
Shape2289
 70
    0
 62
    7
  6
CONTINUOUS
  0
LAYER
  5
CCE
330
BE3
100
AcDbSymbolTableRecord
100
AcDbLayerTableRecord
  2
Shape2290
 70
    0
 62
    7
  6
CONTINUOUS
  0
LAYER
  5
CCF
330
BE3
100
AcDbSymbolTableRecord
100
AcDbLayerTableRecord
  2
Shape2291
 70
    0
 62
    7
  6
CONTINUOUS
  0
LAYER
  5
CD0
330
BE3
100
AcDbSymbolTableRecord
100
AcDbLayerTableRecord
  2
Shape2292
 70
    0
 62
    7
  6
CONTINUOUS
  0
LAYER
  5
CD1
330
BE3
100
AcDbSymbolTableRecord
100
AcDbLayerTableRecord
  2
Shape2293
 70
    0
 62
    7
  6
CONTINUOUS
  0
LAYER
  5
CD2
330
BE3
100
AcDbSymbolTableRecord
100
AcDbLayerTableRecord
  2
Shape2294
 70
    0
 62
    7
  6
CONTINUOUS
  0
LAYER
  5
CD3
330
BE3
100
AcDbSymbolTableRecord
100
AcDbLayerTableRecord
  2
Shape2295
 70
    0
 62
    7
  6
CONTINUOUS
  0
LAYER
  5
CD4
330
BE3
100
AcDbSymbolTableRecord
100
AcDbLayerTableRecord
  2
Shape2296
 70
    0
 62
    7
  6
CONTINUOUS
  0
LAYER
  5
CD5
330
BE3
100
AcDbSymbolTableRecord
100
AcDbLayerTableRecord
  2
Shape2297
 70
    0
 62
    7
  6
CONTINUOUS
  0
LAYER
  5
CD6
330
BE3
100
AcDbSymbolTableRecord
100
AcDbLayerTableRecord
  2
Shape2298
 70
    0
 62
    7
  6
CONTINUOUS
  0
LAYER
  5
CD7
330
BE3
100
AcDbSymbolTableRecord
100
AcDbLayerTableRecord
  2
Shape2299
 70
    0
 62
    7
  6
CONTINUOUS
  0
LAYER
  5
CD8
330
BE3
100
AcDbSymbolTableRecord
100
AcDbLayerTableRecord
  2
Shape2300
 70
    0
 62
    7
  6
CONTINUOUS
  0
LAYER
  5
CD9
330
BE3
100
AcDbSymbolTableRecord
100
AcDbLayerTableRecord
  2
Shape2301
 70
    0
 62
    7
  6
CONTINUOUS
  0
LAYER
  5
CDA
330
BE3
100
AcDbSymbolTableRecord
100
AcDbLayerTableRecord
  2
Shape2302
 70
    0
 62
    7
  6
CONTINUOUS
  0
LAYER
  5
CDB
330
BE3
100
AcDbSymbolTableRecord
100
AcDbLayerTableRecord
  2
Shape2303
 70
    0
 62
    7
  6
CONTINUOUS
  0
LAYER
  5
CDC
330
BE3
100
AcDbSymbolTableRecord
100
AcDbLayerTableRecord
  2
Shape2304
 70
    0
 62
    7
  6
CONTINUOUS
  0
LAYER
  5
CDD
330
BE3
100
AcDbSymbolTableRecord
100
AcDbLayerTableRecord
  2
Shape2305
 70
    0
 62
    7
  6
CONTINUOUS
  0
LAYER
  5
CDE
330
BE3
100
AcDbSymbolTableRecord
100
AcDbLayerTableRecord
  2
Shape2306
 70
    0
 62
    7
  6
CONTINUOUS
  0
LAYER
  5
CDF
330
BE3
100
AcDbSymbolTableRecord
100
AcDbLayerTableRecord
  2
Shape2307
 70
    0
 62
    7
  6
CONTINUOUS
  0
LAYER
  5
CE0
330
BE3
100
AcDbSymbolTableRecord
100
AcDbLayerTableRecord
  2
Shape2308
 70
    0
 62
    7
  6
CONTINUOUS
  0
LAYER
  5
CE1
330
BE3
100
AcDbSymbolTableRecord
100
AcDbLayerTableRecord
  2
Shape2309
 70
    0
 62
    7
  6
CONTINUOUS
  0
LAYER
  5
CE2
330
BE3
100
AcDbSymbolTableRecord
100
AcDbLayerTableRecord
  2
Shape2310
 70
    0
 62
    7
  6
CONTINUOUS
  0
LAYER
  5
CE3
330
BE3
100
AcDbSymbolTableRecord
100
AcDbLayerTableRecord
  2
Shape2311
 70
    0
 62
    7
  6
CONTINUOUS
  0
LAYER
  5
CE4
330
BE3
100
AcDbSymbolTableRecord
100
AcDbLayerTableRecord
  2
Shape2312
 70
    0
 62
    7
  6
CONTINUOUS
  0
LAYER
  5
CE5
330
BE3
100
AcDbSymbolTableRecord
100
AcDbLayerTableRecord
  2
Shape2313
 70
    0
 62
    7
  6
CONTINUOUS
  0
LAYER
  5
CE6
330
BE3
100
AcDbSymbolTableRecord
100
AcDbLayerTableRecord
  2
Shape2314
 70
    0
 62
    7
  6
CONTINUOUS
  0
LAYER
  5
CE7
330
BE3
100
AcDbSymbolTableRecord
100
AcDbLayerTableRecord
  2
Shape2315
 70
    0
 62
    7
  6
CONTINUOUS
  0
LAYER
  5
CE8
330
BE3
100
AcDbSymbolTableRecord
100
AcDbLayerTableRecord
  2
Shape2316
 70
    0
 62
    7
  6
CONTINUOUS
  0
LAYER
  5
CE9
330
BE3
100
AcDbSymbolTableRecord
100
AcDbLayerTableRecord
  2
Shape2317
 70
    0
 62
    7
  6
CONTINUOUS
  0
LAYER
  5
CEA
330
BE3
100
AcDbSymbolTableRecord
100
AcDbLayerTableRecord
  2
Shape2318
 70
    0
 62
    7
  6
CONTINUOUS
  0
LAYER
  5
CEB
330
BE3
100
AcDbSymbolTableRecord
100
AcDbLayerTableRecord
  2
Shape2319
 70
    0
 62
    7
  6
CONTINUOUS
  0
LAYER
  5
CEC
330
BE3
100
AcDbSymbolTableRecord
100
AcDbLayerTableRecord
  2
Shape2320
 70
    0
 62
    7
  6
CONTINUOUS
  0
LAYER
  5
CED
330
BE3
100
AcDbSymbolTableRecord
100
AcDbLayerTableRecord
  2
Shape2321
 70
    0
 62
    7
  6
CONTINUOUS
  0
LAYER
  5
CEE
330
BE3
100
AcDbSymbolTableRecord
100
AcDbLayerTableRecord
  2
Shape2322
 70
    0
 62
    7
  6
CONTINUOUS
  0
LAYER
  5
CEF
330
BE3
100
AcDbSymbolTableRecord
100
AcDbLayerTableRecord
  2
Shape2323
 70
    0
 62
    7
  6
CONTINUOUS
  0
LAYER
  5
CF0
330
BE3
100
AcDbSymbolTableRecord
100
AcDbLayerTableRecord
  2
Shape2324
 70
    0
 62
    7
  6
CONTINUOUS
  0
LAYER
  5
CF1
330
BE3
100
AcDbSymbolTableRecord
100
AcDbLayerTableRecord
  2
Shape2325
 70
    0
 62
    7
  6
CONTINUOUS
  0
LAYER
  5
CF2
330
BE3
100
AcDbSymbolTableRecord
100
AcDbLayerTableRecord
  2
Shape2326
 70
    0
 62
    7
  6
CONTINUOUS
  0
LAYER
  5
CF3
330
BE3
100
AcDbSymbolTableRecord
100
AcDbLayerTableRecord
  2
Shape2327
 70
    0
 62
    7
  6
CONTINUOUS
  0
LAYER
  5
CF4
330
BE3
100
AcDbSymbolTableRecord
100
AcDbLayerTableRecord
  2
Shape2328
 70
    0
 62
    7
  6
CONTINUOUS
  0
LAYER
  5
CF5
330
BE3
100
AcDbSymbolTableRecord
100
AcDbLayerTableRecord
  2
Shape2329
 70
    0
 62
    7
  6
CONTINUOUS
  0
LAYER
  5
CF6
330
BE3
100
AcDbSymbolTableRecord
100
AcDbLayerTableRecord
  2
Shape2330
 70
    0
 62
    7
  6
CONTINUOUS
  0
LAYER
  5
CF7
330
BE3
100
AcDbSymbolTableRecord
100
AcDbLayerTableRecord
  2
Shape2331
 70
    0
 62
    7
  6
CONTINUOUS
  0
LAYER
  5
CF8
330
BE3
100
AcDbSymbolTableRecord
100
AcDbLayerTableRecord
  2
Shape2332
 70
    0
 62
    7
  6
CONTINUOUS
  0
LAYER
  5
CF9
330
BE3
100
AcDbSymbolTableRecord
100
AcDbLayerTableRecord
  2
Shape2333
 70
    0
 62
    7
  6
CONTINUOUS
  0
LAYER
  5
CFA
330
BE3
100
AcDbSymbolTableRecord
100
AcDbLayerTableRecord
  2
Shape2334
 70
    0
 62
    7
  6
CONTINUOUS
  0
LAYER
  5
CFB
330
BE3
100
AcDbSymbolTableRecord
100
AcDbLayerTableRecord
  2
Shape2335
 70
    0
 62
    7
  6
CONTINUOUS
  0
LAYER
  5
CFC
330
BE3
100
AcDbSymbolTableRecord
100
AcDbLayerTableRecord
  2
Shape2336
 70
    0
 62
    7
  6
CONTINUOUS
  0
LAYER
  5
CFD
330
BE3
100
AcDbSymbolTableRecord
100
AcDbLayerTableRecord
  2
Shape2337
 70
    0
 62
    7
  6
CONTINUOUS
  0
LAYER
  5
CFE
330
BE3
100
AcDbSymbolTableRecord
100
AcDbLayerTableRecord
  2
Shape2338
 70
    0
 62
    7
  6
CONTINUOUS
  0
LAYER
  5
CFF
330
BE3
100
AcDbSymbolTableRecord
100
AcDbLayerTableRecord
  2
Shape2339
 70
    0
 62
    7
  6
CONTINUOUS
  0
LAYER
  5
D00
330
BE3
100
AcDbSymbolTableRecord
100
AcDbLayerTableRecord
  2
Shape2340
 70
    0
 62
    7
  6
CONTINUOUS
  0
LAYER
  5
D01
330
BE3
100
AcDbSymbolTableRecord
100
AcDbLayerTableRecord
  2
Shape2341
 70
    0
 62
    7
  6
CONTINUOUS
  0
LAYER
  5
D02
330
BE3
100
AcDbSymbolTableRecord
100
AcDbLayerTableRecord
  2
Shape2342
 70
    0
 62
    7
  6
CONTINUOUS
  0
LAYER
  5
D03
330
BE3
100
AcDbSymbolTableRecord
100
AcDbLayerTableRecord
  2
Shape2343
 70
    0
 62
    7
  6
CONTINUOUS
  0
LAYER
  5
D04
330
BE3
100
AcDbSymbolTableRecord
100
AcDbLayerTableRecord
  2
Shape2344
 70
    0
 62
    7
  6
CONTINUOUS
  0
LAYER
  5
D05
330
BE3
100
AcDbSymbolTableRecord
100
AcDbLayerTableRecord
  2
Shape2345
 70
    0
 62
    7
  6
CONTINUOUS
  0
LAYER
  5
D06
330
BE3
100
AcDbSymbolTableRecord
100
AcDbLayerTableRecord
  2
Shape2346
 70
    0
 62
    7
  6
CONTINUOUS
  0
LAYER
  5
D07
330
BE3
100
AcDbSymbolTableRecord
100
AcDbLayerTableRecord
  2
Shape2347
 70
    0
 62
    7
  6
CONTINUOUS
  0
LAYER
  5
D08
330
BE3
100
AcDbSymbolTableRecord
100
AcDbLayerTableRecord
  2
Shape2348
 70
    0
 62
    7
  6
CONTINUOUS
  0
LAYER
  5
D09
330
BE3
100
AcDbSymbolTableRecord
100
AcDbLayerTableRecord
  2
Shape2349
 70
    0
 62
    7
  6
CONTINUOUS
  0
LAYER
  5
D0A
330
BE3
100
AcDbSymbolTableRecord
100
AcDbLayerTableRecord
  2
Shape2350
 70
    0
 62
    7
  6
CONTINUOUS
  0
LAYER
  5
D0B
330
BE3
100
AcDbSymbolTableRecord
100
AcDbLayerTableRecord
  2
Shape2351
 70
    0
 62
    7
  6
CONTINUOUS
  0
LAYER
  5
D0C
330
BE3
100
AcDbSymbolTableRecord
100
AcDbLayerTableRecord
  2
Shape2352
 70
    0
 62
    7
  6
CONTINUOUS
  0
LAYER
  5
D0D
330
BE3
100
AcDbSymbolTableRecord
100
AcDbLayerTableRecord
  2
Shape2353
 70
    0
 62
    7
  6
CONTINUOUS
  0
LAYER
  5
D0E
330
BE3
100
AcDbSymbolTableRecord
100
AcDbLayerTableRecord
  2
Shape2354
 70
    0
 62
    7
  6
CONTINUOUS
  0
LAYER
  5
D0F
330
BE3
100
AcDbSymbolTableRecord
100
AcDbLayerTableRecord
  2
Shape2355
 70
    0
 62
    7
  6
CONTINUOUS
  0
LAYER
  5
D10
330
BE3
100
AcDbSymbolTableRecord
100
AcDbLayerTableRecord
  2
Shape2356
 70
    0
 62
    7
  6
CONTINUOUS
  0
LAYER
  5
D11
330
BE3
100
AcDbSymbolTableRecord
100
AcDbLayerTableRecord
  2
Shape2357
 70
    0
 62
    7
  6
CONTINUOUS
  0
LAYER
  5
D12
330
BE3
100
AcDbSymbolTableRecord
100
AcDbLayerTableRecord
  2
Shape2358
 70
    0
 62
    7
  6
CONTINUOUS
  0
LAYER
  5
D13
330
BE3
100
AcDbSymbolTableRecord
100
AcDbLayerTableRecord
  2
Shape2359
 70
    0
 62
    7
  6
CONTINUOUS
  0
LAYER
  5
D14
330
BE3
100
AcDbSymbolTableRecord
100
AcDbLayerTableRecord
  2
Shape2360
 70
    0
 62
    7
  6
CONTINUOUS
  0
LAYER
  5
D15
330
BE3
100
AcDbSymbolTableRecord
100
AcDbLayerTableRecord
  2
Shape2361
 70
    0
 62
    7
  6
CONTINUOUS
  0
LAYER
  5
D16
330
BE3
100
AcDbSymbolTableRecord
100
AcDbLayerTableRecord
  2
Shape2362
 70
    0
 62
    7
  6
CONTINUOUS
  0
LAYER
  5
D17
330
BE3
100
AcDbSymbolTableRecord
100
AcDbLayerTableRecord
  2
Shape2363
 70
    0
 62
    7
  6
CONTINUOUS
  0
LAYER
  5
D18
330
BE3
100
AcDbSymbolTableRecord
100
AcDbLayerTableRecord
  2
Shape2364
 70
    0
 62
    7
  6
CONTINUOUS
  0
LAYER
  5
D19
330
BE3
100
AcDbSymbolTableRecord
100
AcDbLayerTableRecord
  2
Shape2365
 70
    0
 62
    7
  6
CONTINUOUS
  0
LAYER
  5
D1A
330
BE3
100
AcDbSymbolTableRecord
100
AcDbLayerTableRecord
  2
Shape2366
 70
    0
 62
    7
  6
CONTINUOUS
  0
LAYER
  5
D1B
330
BE3
100
AcDbSymbolTableRecord
100
AcDbLayerTableRecord
  2
Shape2367
 70
    0
 62
    7
  6
CONTINUOUS
  0
LAYER
  5
D1C
330
BE3
100
AcDbSymbolTableRecord
100
AcDbLayerTableRecord
  2
Shape2368
 70
    0
 62
    7
  6
CONTINUOUS
  0
LAYER
  5
D1D
330
BE3
100
AcDbSymbolTableRecord
100
AcDbLayerTableRecord
  2
Shape2369
 70
    0
 62
    7
  6
CONTINUOUS
  0
LAYER
  5
D1E
330
BE3
100
AcDbSymbolTableRecord
100
AcDbLayerTableRecord
  2
Shape2370
 70
    0
 62
    7
  6
CONTINUOUS
  0
LAYER
  5
D1F
330
BE3
100
AcDbSymbolTableRecord
100
AcDbLayerTableRecord
  2
Shape2371
 70
    0
 62
    7
  6
CONTINUOUS
  0
LAYER
  5
D20
330
BE3
100
AcDbSymbolTableRecord
100
AcDbLayerTableRecord
  2
Shape3810
 70
    0
 62
    7
  6
CONTINUOUS
  0
LAYER
  5
D21
330
BE3
100
AcDbSymbolTableRecord
100
AcDbLayerTableRecord
  2
Shape3811
 70
    0
 62
    7
  6
CONTINUOUS
  0
LAYER
  5
D22
330
BE3
100
AcDbSymbolTableRecord
100
AcDbLayerTableRecord
  2
Shape3812
 70
    0
 62
    7
  6
CONTINUOUS
  0
LAYER
  5
D23
330
BE3
100
AcDbSymbolTableRecord
100
AcDbLayerTableRecord
  2
Shape3813
 70
    0
 62
    7
  6
CONTINUOUS
  0
LAYER
  5
D24
330
BE3
100
AcDbSymbolTableRecord
100
AcDbLayerTableRecord
  2
Shape3814
 70
    0
 62
    7
  6
CONTINUOUS
  0
LAYER
  5
D25
330
BE3
100
AcDbSymbolTableRecord
100
AcDbLayerTableRecord
  2
Shape3815
 70
    0
 62
    7
  6
CONTINUOUS
  0
LAYER
  5
D26
330
BE3
100
AcDbSymbolTableRecord
100
AcDbLayerTableRecord
  2
Shape3816
 70
    0
 62
    7
  6
CONTINUOUS
  0
LAYER
  5
D27
330
BE3
100
AcDbSymbolTableRecord
100
AcDbLayerTableRecord
  2
Shape3817
 70
    0
 62
    7
  6
CONTINUOUS
  0
LAYER
  5
D28
330
BE3
100
AcDbSymbolTableRecord
100
AcDbLayerTableRecord
  2
Shape3818
 70
    0
 62
    7
  6
CONTINUOUS
  0
LAYER
  5
D29
330
BE3
100
AcDbSymbolTableRecord
100
AcDbLayerTableRecord
  2
Shape3819
 70
    0
 62
    7
  6
CONTINUOUS
  0
LAYER
  5
D2A
330
BE3
100
AcDbSymbolTableRecord
100
AcDbLayerTableRecord
  2
Shape3820
 70
    0
 62
    7
  6
CONTINUOUS
  0
LAYER
  5
D2B
330
BE3
100
AcDbSymbolTableRecord
100
AcDbLayerTableRecord
  2
Shape3821
 70
    0
 62
    7
  6
CONTINUOUS
  0
LAYER
  5
D2C
330
BE3
100
AcDbSymbolTableRecord
100
AcDbLayerTableRecord
  2
Shape3822
 70
    0
 62
    7
  6
CONTINUOUS
  0
LAYER
  5
D2D
330
BE3
100
AcDbSymbolTableRecord
100
AcDbLayerTableRecord
  2
Shape3823
 70
    0
 62
    7
  6
CONTINUOUS
  0
LAYER
  5
D2E
330
BE3
100
AcDbSymbolTableRecord
100
AcDbLayerTableRecord
  2
Shape3824
 70
    0
 62
    7
  6
CONTINUOUS
  0
LAYER
  5
D2F
330
BE3
100
AcDbSymbolTableRecord
100
AcDbLayerTableRecord
  2
Shape3825
 70
    0
 62
    7
  6
CONTINUOUS
  0
LAYER
  5
D30
330
BE3
100
AcDbSymbolTableRecord
100
AcDbLayerTableRecord
  2
Shape3826
 70
    0
 62
    7
  6
CONTINUOUS
  0
LAYER
  5
D31
330
BE3
100
AcDbSymbolTableRecord
100
AcDbLayerTableRecord
  2
Shape3827
 70
    0
 62
    7
  6
CONTINUOUS
  0
LAYER
  5
D32
330
BE3
100
AcDbSymbolTableRecord
100
AcDbLayerTableRecord
  2
Shape3828
 70
    0
 62
    7
  6
CONTINUOUS
  0
LAYER
  5
D33
330
BE3
100
AcDbSymbolTableRecord
100
AcDbLayerTableRecord
  2
Shape3829
 70
    0
 62
    7
  6
CONTINUOUS
  0
LAYER
  5
D34
330
BE3
100
AcDbSymbolTableRecord
100
AcDbLayerTableRecord
  2
Shape3830
 70
    0
 62
    7
  6
CONTINUOUS
  0
LAYER
  5
D35
330
BE3
100
AcDbSymbolTableRecord
100
AcDbLayerTableRecord
  2
Shape3831
 70
    0
 62
    7
  6
CONTINUOUS
  0
LAYER
  5
D36
330
BE3
100
AcDbSymbolTableRecord
100
AcDbLayerTableRecord
  2
Shape3832
 70
    0
 62
    7
  6
CONTINUOUS
  0
LAYER
  5
D37
330
BE3
100
AcDbSymbolTableRecord
100
AcDbLayerTableRecord
  2
Shape3833
 70
    0
 62
    7
  6
CONTINUOUS
  0
LAYER
  5
D38
330
BE3
100
AcDbSymbolTableRecord
100
AcDbLayerTableRecord
  2
Shape3834
 70
    0
 62
    7
  6
CONTINUOUS
  0
LAYER
  5
D39
330
BE3
100
AcDbSymbolTableRecord
100
AcDbLayerTableRecord
  2
Shape3835
 70
    0
 62
    7
  6
CONTINUOUS
  0
LAYER
  5
D3A
330
BE3
100
AcDbSymbolTableRecord
100
AcDbLayerTableRecord
  2
Shape3836
 70
    0
 62
    7
  6
CONTINUOUS
  0
LAYER
  5
D3B
330
BE3
100
AcDbSymbolTableRecord
100
AcDbLayerTableRecord
  2
Shape3837
 70
    0
 62
    7
  6
CONTINUOUS
  0
LAYER
  5
D3C
330
BE3
100
AcDbSymbolTableRecord
100
AcDbLayerTableRecord
  2
Shape3838
 70
    0
 62
    7
  6
CONTINUOUS
  0
LAYER
  5
D3D
330
BE3
100
AcDbSymbolTableRecord
100
AcDbLayerTableRecord
  2
Shape3839
 70
    0
 62
    7
  6
CONTINUOUS
  0
LAYER
  5
D3E
330
BE3
100
AcDbSymbolTableRecord
100
AcDbLayerTableRecord
  2
Shape3840
 70
    0
 62
    7
  6
CONTINUOUS
  0
LAYER
  5
D3F
330
BE3
100
AcDbSymbolTableRecord
100
AcDbLayerTableRecord
  2
Shape3841
 70
    0
 62
    7
  6
CONTINUOUS
  0
LAYER
  5
D40
330
BE3
100
AcDbSymbolTableRecord
100
AcDbLayerTableRecord
  2
Shape3842
 70
    0
 62
    7
  6
CONTINUOUS
  0
LAYER
  5
D41
330
BE3
100
AcDbSymbolTableRecord
100
AcDbLayerTableRecord
  2
Shape3843
 70
    0
 62
    7
  6
CONTINUOUS
  0
LAYER
  5
D42
330
BE3
100
AcDbSymbolTableRecord
100
AcDbLayerTableRecord
  2
Shape3844
 70
    0
 62
    7
  6
CONTINUOUS
  0
LAYER
  5
D43
330
BE3
100
AcDbSymbolTableRecord
100
AcDbLayerTableRecord
  2
Shape3845
 70
    0
 62
    7
  6
CONTINUOUS
  0
LAYER
  5
D44
330
BE3
100
AcDbSymbolTableRecord
100
AcDbLayerTableRecord
  2
Shape3846
 70
    0
 62
    7
  6
CONTINUOUS
  0
LAYER
  5
D45
330
BE3
100
AcDbSymbolTableRecord
100
AcDbLayerTableRecord
  2
Shape3847
 70
    0
 62
    7
  6
CONTINUOUS
  0
LAYER
  5
D46
330
BE3
100
AcDbSymbolTableRecord
100
AcDbLayerTableRecord
  2
Shape3848
 70
    0
 62
    7
  6
CONTINUOUS
  0
LAYER
  5
D47
330
BE3
100
AcDbSymbolTableRecord
100
AcDbLayerTableRecord
  2
Shape3849
 70
    0
 62
    7
  6
CONTINUOUS
  0
LAYER
  5
D48
330
BE3
100
AcDbSymbolTableRecord
100
AcDbLayerTableRecord
  2
Shape3850
 70
    0
 62
    7
  6
CONTINUOUS
  0
LAYER
  5
D49
330
BE3
100
AcDbSymbolTableRecord
100
AcDbLayerTableRecord
  2
Shape3851
 70
    0
 62
    7
  6
CONTINUOUS
  0
LAYER
  5
D4A
330
BE3
100
AcDbSymbolTableRecord
100
AcDbLayerTableRecord
  2
Shape3852
 70
    0
 62
    7
  6
CONTINUOUS
  0
LAYER
  5
D4B
330
BE3
100
AcDbSymbolTableRecord
100
AcDbLayerTableRecord
  2
Shape3853
 70
    0
 62
    7
  6
CONTINUOUS
  0
LAYER
  5
D4C
330
BE3
100
AcDbSymbolTableRecord
100
AcDbLayerTableRecord
  2
Shape3854
 70
    0
 62
    7
  6
CONTINUOUS
  0
LAYER
  5
D4D
330
BE3
100
AcDbSymbolTableRecord
100
AcDbLayerTableRecord
  2
Shape3855
 70
    0
 62
    7
  6
CONTINUOUS
  0
LAYER
  5
D4E
330
BE3
100
AcDbSymbolTableRecord
100
AcDbLayerTableRecord
  2
Shape3856
 70
    0
 62
    7
  6
CONTINUOUS
  0
LAYER
  5
D4F
330
BE3
100
AcDbSymbolTableRecord
100
AcDbLayerTableRecord
  2
Shape3857
 70
    0
 62
    7
  6
CONTINUOUS
  0
LAYER
  5
D50
330
BE3
100
AcDbSymbolTableRecord
100
AcDbLayerTableRecord
  2
Shape3858
 70
    0
 62
    7
  6
CONTINUOUS
  0
LAYER
  5
D51
330
BE3
100
AcDbSymbolTableRecord
100
AcDbLayerTableRecord
  2
Shape3859
 70
    0
 62
    7
  6
CONTINUOUS
  0
LAYER
  5
D52
330
BE3
100
AcDbSymbolTableRecord
100
AcDbLayerTableRecord
  2
Shape3860
 70
    0
 62
    7
  6
CONTINUOUS
  0
LAYER
  5
D53
330
BE3
100
AcDbSymbolTableRecord
100
AcDbLayerTableRecord
  2
Shape3861
 70
    0
 62
    7
  6
CONTINUOUS
  0
LAYER
  5
D54
330
BE3
100
AcDbSymbolTableRecord
100
AcDbLayerTableRecord
  2
Shape3862
 70
    0
 62
    7
  6
CONTINUOUS
  0
LAYER
  5
D55
330
BE3
100
AcDbSymbolTableRecord
100
AcDbLayerTableRecord
  2
Shape3863
 70
    0
 62
    7
  6
CONTINUOUS
  0
LAYER
  5
D56
330
BE3
100
AcDbSymbolTableRecord
100
AcDbLayerTableRecord
  2
Shape3864
 70
    0
 62
    7
  6
CONTINUOUS
  0
LAYER
  5
D57
330
BE3
100
AcDbSymbolTableRecord
100
AcDbLayerTableRecord
  2
Shape3865
 70
    0
 62
    7
  6
CONTINUOUS
  0
LAYER
  5
D58
330
BE3
100
AcDbSymbolTableRecord
100
AcDbLayerTableRecord
  2
Shape3866
 70
    0
 62
    7
  6
CONTINUOUS
  0
LAYER
  5
D59
330
BE3
100
AcDbSymbolTableRecord
100
AcDbLayerTableRecord
  2
Shape3867
 70
    0
 62
    7
  6
CONTINUOUS
  0
LAYER
  5
D5A
330
BE3
100
AcDbSymbolTableRecord
100
AcDbLayerTableRecord
  2
Shape3868
 70
    0
 62
    7
  6
CONTINUOUS
  0
LAYER
  5
D5B
330
BE3
100
AcDbSymbolTableRecord
100
AcDbLayerTableRecord
  2
Shape3869
 70
    0
 62
    7
  6
CONTINUOUS
  0
LAYER
  5
D5C
330
BE3
100
AcDbSymbolTableRecord
100
AcDbLayerTableRecord
  2
Shape3870
 70
    0
 62
    7
  6
CONTINUOUS
  0
LAYER
  5
D5D
330
BE3
100
AcDbSymbolTableRecord
100
AcDbLayerTableRecord
  2
Shape3871
 70
    0
 62
    7
  6
CONTINUOUS
  0
LAYER
  5
D5E
330
BE3
100
AcDbSymbolTableRecord
100
AcDbLayerTableRecord
  2
Shape3872
 70
    0
 62
    7
  6
CONTINUOUS
  0
LAYER
  5
D5F
330
BE3
100
AcDbSymbolTableRecord
100
AcDbLayerTableRecord
  2
Shape3873
 70
    0
 62
    7
  6
CONTINUOUS
  0
LAYER
  5
D60
330
BE3
100
AcDbSymbolTableRecord
100
AcDbLayerTableRecord
  2
Shape3874
 70
    0
 62
    7
  6
CONTINUOUS
  0
LAYER
  5
D61
330
BE3
100
AcDbSymbolTableRecord
100
AcDbLayerTableRecord
  2
Shape3875
 70
    0
 62
    7
  6
CONTINUOUS
  0
LAYER
  5
D62
330
BE3
100
AcDbSymbolTableRecord
100
AcDbLayerTableRecord
  2
Shape3876
 70
    0
 62
    7
  6
CONTINUOUS
  0
LAYER
  5
D63
330
BE3
100
AcDbSymbolTableRecord
100
AcDbLayerTableRecord
  2
Shape3877
 70
    0
 62
    7
  6
CONTINUOUS
  0
LAYER
  5
D64
330
BE3
100
AcDbSymbolTableRecord
100
AcDbLayerTableRecord
  2
Shape3878
 70
    0
 62
    7
  6
CONTINUOUS
  0
LAYER
  5
D65
330
BE3
100
AcDbSymbolTableRecord
100
AcDbLayerTableRecord
  2
Shape3879
 70
    0
 62
    7
  6
CONTINUOUS
  0
LAYER
  5
D66
330
BE3
100
AcDbSymbolTableRecord
100
AcDbLayerTableRecord
  2
Shape3880
 70
    0
 62
    7
  6
CONTINUOUS
  0
LAYER
  5
D67
330
BE3
100
AcDbSymbolTableRecord
100
AcDbLayerTableRecord
  2
Shape3881
 70
    0
 62
    7
  6
CONTINUOUS
  0
LAYER
  5
D68
330
BE3
100
AcDbSymbolTableRecord
100
AcDbLayerTableRecord
  2
Shape3882
 70
    0
 62
    7
  6
CONTINUOUS
  0
LAYER
  5
D69
330
BE3
100
AcDbSymbolTableRecord
100
AcDbLayerTableRecord
  2
Shape3883
 70
    0
 62
    7
  6
CONTINUOUS
  0
LAYER
  5
D6A
330
BE3
100
AcDbSymbolTableRecord
100
AcDbLayerTableRecord
  2
Shape3884
 70
    0
 62
    7
  6
CONTINUOUS
  0
LAYER
  5
D6B
330
BE3
100
AcDbSymbolTableRecord
100
AcDbLayerTableRecord
  2
Shape3885
 70
    0
 62
    7
  6
CONTINUOUS
  0
LAYER
  5
D6C
330
BE3
100
AcDbSymbolTableRecord
100
AcDbLayerTableRecord
  2
Shape3886
 70
    0
 62
    7
  6
CONTINUOUS
  0
LAYER
  5
D6D
330
BE3
100
AcDbSymbolTableRecord
100
AcDbLayerTableRecord
  2
Shape3887
 70
    0
 62
    7
  6
CONTINUOUS
  0
LAYER
  5
D6E
330
BE3
100
AcDbSymbolTableRecord
100
AcDbLayerTableRecord
  2
Shape3888
 70
    0
 62
    7
  6
CONTINUOUS
  0
LAYER
  5
D6F
330
BE3
100
AcDbSymbolTableRecord
100
AcDbLayerTableRecord
  2
Shape3889
 70
    0
 62
    7
  6
CONTINUOUS
  0
LAYER
  5
D70
330
BE3
100
AcDbSymbolTableRecord
100
AcDbLayerTableRecord
  2
Shape4283
 70
    0
 62
    7
  6
CONTINUOUS
  0
LAYER
  5
D71
330
BE3
100
AcDbSymbolTableRecord
100
AcDbLayerTableRecord
  2
Shape4284
 70
    0
 62
    7
  6
CONTINUOUS
  0
LAYER
  5
D72
330
BE3
100
AcDbSymbolTableRecord
100
AcDbLayerTableRecord
  2
Shape4285
 70
    0
 62
    7
  6
CONTINUOUS
  0
LAYER
  5
D73
330
BE3
100
AcDbSymbolTableRecord
100
AcDbLayerTableRecord
  2
Shape4286
 70
    0
 62
    7
  6
CONTINUOUS
  0
LAYER
  5
D74
330
BE3
100
AcDbSymbolTableRecord
100
AcDbLayerTableRecord
  2
Shape4287
 70
    0
 62
    7
  6
CONTINUOUS
  0
LAYER
  5
D75
330
BE3
100
AcDbSymbolTableRecord
100
AcDbLayerTableRecord
  2
Shape4288
 70
    0
 62
    7
  6
CONTINUOUS
  0
LAYER
  5
D76
330
BE3
100
AcDbSymbolTableRecord
100
AcDbLayerTableRecord
  2
Shape4289
 70
    0
 62
    7
  6
CONTINUOUS
  0
LAYER
  5
D77
330
BE3
100
AcDbSymbolTableRecord
100
AcDbLayerTableRecord
  2
Shape4290
 70
    0
 62
    7
  6
CONTINUOUS
  0
LAYER
  5
D78
330
BE3
100
AcDbSymbolTableRecord
100
AcDbLayerTableRecord
  2
Shape4291
 70
    0
 62
    7
  6
CONTINUOUS
  0
LAYER
  5
D79
330
BE3
100
AcDbSymbolTableRecord
100
AcDbLayerTableRecord
  2
Shape4292
 70
    0
 62
    7
  6
CONTINUOUS
  0
LAYER
  5
D7A
330
BE3
100
AcDbSymbolTableRecord
100
AcDbLayerTableRecord
  2
Shape4293
 70
    0
 62
    7
  6
CONTINUOUS
  0
LAYER
  5
D7B
330
BE3
100
AcDbSymbolTableRecord
100
AcDbLayerTableRecord
  2
Shape4294
 70
    0
 62
    7
  6
CONTINUOUS
  0
LAYER
  5
D7C
330
BE3
100
AcDbSymbolTableRecord
100
AcDbLayerTableRecord
  2
Shape4295
 70
    0
 62
    7
  6
CONTINUOUS
  0
LAYER
  5
D7D
330
BE3
100
AcDbSymbolTableRecord
100
AcDbLayerTableRecord
  2
Shape4296
 70
    0
 62
    7
  6
CONTINUOUS
  0
LAYER
  5
D7E
330
BE3
100
AcDbSymbolTableRecord
100
AcDbLayerTableRecord
  2
Shape4297
 70
    0
 62
    7
  6
CONTINUOUS
  0
LAYER
  5
D7F
330
BE3
100
AcDbSymbolTableRecord
100
AcDbLayerTableRecord
  2
Shape4298
 70
    0
 62
    7
  6
CONTINUOUS
  0
LAYER
  5
D80
330
BE3
100
AcDbSymbolTableRecord
100
AcDbLayerTableRecord
  2
Shape4299
 70
    0
 62
    7
  6
CONTINUOUS
  0
LAYER
  5
D81
330
BE3
100
AcDbSymbolTableRecord
100
AcDbLayerTableRecord
  2
Shape4300
 70
    0
 62
    7
  6
CONTINUOUS
  0
LAYER
  5
D82
330
BE3
100
AcDbSymbolTableRecord
100
AcDbLayerTableRecord
  2
Shape4301
 70
    0
 62
    7
  6
CONTINUOUS
  0
LAYER
  5
D83
330
BE3
100
AcDbSymbolTableRecord
100
AcDbLayerTableRecord
  2
Shape4302
 70
    0
 62
    7
  6
CONTINUOUS
  0
LAYER
  5
D84
330
BE3
100
AcDbSymbolTableRecord
100
AcDbLayerTableRecord
  2
Shape4303
 70
    0
 62
    7
  6
CONTINUOUS
  0
LAYER
  5
D85
330
BE3
100
AcDbSymbolTableRecord
100
AcDbLayerTableRecord
  2
Shape4304
 70
    0
 62
    7
  6
CONTINUOUS
  0
LAYER
  5
D86
330
BE3
100
AcDbSymbolTableRecord
100
AcDbLayerTableRecord
  2
Shape4305
 70
    0
 62
    7
  6
CONTINUOUS
  0
LAYER
  5
D87
330
BE3
100
AcDbSymbolTableRecord
100
AcDbLayerTableRecord
  2
Shape4306
 70
    0
 62
    7
  6
CONTINUOUS
  0
LAYER
  5
D88
330
BE3
100
AcDbSymbolTableRecord
100
AcDbLayerTableRecord
  2
Shape4307
 70
    0
 62
    7
  6
CONTINUOUS
  0
LAYER
  5
D89
330
BE3
100
AcDbSymbolTableRecord
100
AcDbLayerTableRecord
  2
Shape4308
 70
    0
 62
    7
  6
CONTINUOUS
  0
LAYER
  5
D8A
330
BE3
100
AcDbSymbolTableRecord
100
AcDbLayerTableRecord
  2
Shape4309
 70
    0
 62
    7
  6
CONTINUOUS
  0
LAYER
  5
D8B
330
BE3
100
AcDbSymbolTableRecord
100
AcDbLayerTableRecord
  2
Shape4310
 70
    0
 62
    7
  6
CONTINUOUS
  0
LAYER
  5
D8C
330
BE3
100
AcDbSymbolTableRecord
100
AcDbLayerTableRecord
  2
Shape4311
 70
    0
 62
    7
  6
CONTINUOUS
  0
LAYER
  5
D8D
330
BE3
100
AcDbSymbolTableRecord
100
AcDbLayerTableRecord
  2
Shape4312
 70
    0
 62
    7
  6
CONTINUOUS
  0
LAYER
  5
D8E
330
BE3
100
AcDbSymbolTableRecord
100
AcDbLayerTableRecord
  2
Shape4313
 70
    0
 62
    7
  6
CONTINUOUS
  0
LAYER
  5
D8F
330
BE3
100
AcDbSymbolTableRecord
100
AcDbLayerTableRecord
  2
Shape4314
 70
    0
 62
    7
  6
CONTINUOUS
  0
LAYER
  5
D90
330
BE3
100
AcDbSymbolTableRecord
100
AcDbLayerTableRecord
  2
Shape4315
 70
    0
 62
    7
  6
CONTINUOUS
  0
LAYER
  5
D91
330
BE3
100
AcDbSymbolTableRecord
100
AcDbLayerTableRecord
  2
Shape4316
 70
    0
 62
    7
  6
CONTINUOUS
  0
LAYER
  5
D92
330
BE3
100
AcDbSymbolTableRecord
100
AcDbLayerTableRecord
  2
Shape4317
 70
    0
 62
    7
  6
CONTINUOUS
  0
LAYER
  5
D93
330
BE3
100
AcDbSymbolTableRecord
100
AcDbLayerTableRecord
  2
Shape4318
 70
    0
 62
    7
  6
CONTINUOUS
  0
LAYER
  5
D94
330
BE3
100
AcDbSymbolTableRecord
100
AcDbLayerTableRecord
  2
Shape4319
 70
    0
 62
    7
  6
CONTINUOUS
  0
LAYER
  5
D95
330
BE3
100
AcDbSymbolTableRecord
100
AcDbLayerTableRecord
  2
Shape4320
 70
    0
 62
    7
  6
CONTINUOUS
  0
LAYER
  5
D96
330
BE3
100
AcDbSymbolTableRecord
100
AcDbLayerTableRecord
  2
Shape4321
 70
    0
 62
    7
  6
CONTINUOUS
  0
LAYER
  5
D97
330
BE3
100
AcDbSymbolTableRecord
100
AcDbLayerTableRecord
  2
Shape4322
 70
    0
 62
    7
  6
CONTINUOUS
  0
LAYER
  5
D98
330
BE3
100
AcDbSymbolTableRecord
100
AcDbLayerTableRecord
  2
Shape4403
 70
    0
 62
    7
  6
CONTINUOUS
  0
LAYER
  5
D99
330
BE3
100
AcDbSymbolTableRecord
100
AcDbLayerTableRecord
  2
Shape4404
 70
    0
 62
    7
  6
CONTINUOUS
  0
LAYER
  5
D9A
330
BE3
100
AcDbSymbolTableRecord
100
AcDbLayerTableRecord
  2
Shape4405
 70
    0
 62
    7
  6
CONTINUOUS
  0
LAYER
  5
D9B
330
BE3
100
AcDbSymbolTableRecord
100
AcDbLayerTableRecord
  2
Shape4406
 70
    0
 62
    7
  6
CONTINUOUS
  0
LAYER
  5
D9C
330
BE3
100
AcDbSymbolTableRecord
100
AcDbLayerTableRecord
  2
Shape4407
 70
    0
 62
    7
  6
CONTINUOUS
  0
LAYER
  5
D9D
330
BE3
100
AcDbSymbolTableRecord
100
AcDbLayerTableRecord
  2
Shape4408
 70
    0
 62
    7
  6
CONTINUOUS
  0
LAYER
  5
D9E
330
BE3
100
AcDbSymbolTableRecord
100
AcDbLayerTableRecord
  2
Shape4409
 70
    0
 62
    7
  6
CONTINUOUS
  0
LAYER
  5
D9F
330
BE3
100
AcDbSymbolTableRecord
100
AcDbLayerTableRecord
  2
Shape4410
 70
    0
 62
    7
  6
CONTINUOUS
  0
LAYER
  5
DA0
330
BE3
100
AcDbSymbolTableRecord
100
AcDbLayerTableRecord
  2
Shape4411
 70
    0
 62
    7
  6
CONTINUOUS
  0
LAYER
  5
DA1
330
BE3
100
AcDbSymbolTableRecord
100
AcDbLayerTableRecord
  2
Shape4412
 70
    0
 62
    7
  6
CONTINUOUS
  0
LAYER
  5
DA2
330
BE3
100
AcDbSymbolTableRecord
100
AcDbLayerTableRecord
  2
Shape4413
 70
    0
 62
    7
  6
CONTINUOUS
  0
LAYER
  5
DA3
330
BE3
100
AcDbSymbolTableRecord
100
AcDbLayerTableRecord
  2
Shape4414
 70
    0
 62
    7
  6
CONTINUOUS
  0
LAYER
  5
DA4
330
BE3
100
AcDbSymbolTableRecord
100
AcDbLayerTableRecord
  2
Shape4415
 70
    0
 62
    7
  6
CONTINUOUS
  0
LAYER
  5
DA5
330
BE3
100
AcDbSymbolTableRecord
100
AcDbLayerTableRecord
  2
Shape4416
 70
    0
 62
    7
  6
CONTINUOUS
  0
LAYER
  5
DA6
330
BE3
100
AcDbSymbolTableRecord
100
AcDbLayerTableRecord
  2
Shape4417
 70
    0
 62
    7
  6
CONTINUOUS
  0
LAYER
  5
DA7
330
BE3
100
AcDbSymbolTableRecord
100
AcDbLayerTableRecord
  2
Shape4418
 70
    0
 62
    7
  6
CONTINUOUS
  0
LAYER
  5
DA8
330
BE3
100
AcDbSymbolTableRecord
100
AcDbLayerTableRecord
  2
Shape4419
 70
    0
 62
    7
  6
CONTINUOUS
  0
LAYER
  5
DA9
330
BE3
100
AcDbSymbolTableRecord
100
AcDbLayerTableRecord
  2
Shape4420
 70
    0
 62
    7
  6
CONTINUOUS
  0
LAYER
  5
DAA
330
BE3
100
AcDbSymbolTableRecord
100
AcDbLayerTableRecord
  2
Shape4421
 70
    0
 62
    7
  6
CONTINUOUS
  0
LAYER
  5
DAB
330
BE3
100
AcDbSymbolTableRecord
100
AcDbLayerTableRecord
  2
Shape4422
 70
    0
 62
    7
  6
CONTINUOUS
  0
LAYER
  5
DAC
330
BE3
100
AcDbSymbolTableRecord
100
AcDbLayerTableRecord
  2
Shape4423
 70
    0
 62
    7
  6
CONTINUOUS
  0
LAYER
  5
DAD
330
BE3
100
AcDbSymbolTableRecord
100
AcDbLayerTableRecord
  2
Shape4424
 70
    0
 62
    7
  6
CONTINUOUS
  0
LAYER
  5
DAE
330
BE3
100
AcDbSymbolTableRecord
100
AcDbLayerTableRecord
  2
Shape4425
 70
    0
 62
    7
  6
CONTINUOUS
  0
LAYER
  5
DAF
330
BE3
100
AcDbSymbolTableRecord
100
AcDbLayerTableRecord
  2
Shape4426
 70
    0
 62
    7
  6
CONTINUOUS
  0
LAYER
  5
DB0
330
BE3
100
AcDbSymbolTableRecord
100
AcDbLayerTableRecord
  2
Shape4427
 70
    0
 62
    7
  6
CONTINUOUS
  0
LAYER
  5
DB1
330
BE3
100
AcDbSymbolTableRecord
100
AcDbLayerTableRecord
  2
Shape4428
 70
    0
 62
    7
  6
CONTINUOUS
  0
LAYER
  5
DB2
330
BE3
100
AcDbSymbolTableRecord
100
AcDbLayerTableRecord
  2
Shape4429
 70
    0
 62
    7
  6
CONTINUOUS
  0
LAYER
  5
DB3
330
BE3
100
AcDbSymbolTableRecord
100
AcDbLayerTableRecord
  2
Shape4430
 70
    0
 62
    7
  6
CONTINUOUS
  0
LAYER
  5
DB4
330
BE3
100
AcDbSymbolTableRecord
100
AcDbLayerTableRecord
  2
Shape4431
 70
    0
 62
    7
  6
CONTINUOUS
  0
LAYER
  5
DB5
330
BE3
100
AcDbSymbolTableRecord
100
AcDbLayerTableRecord
  2
Shape4432
 70
    0
 62
    7
  6
CONTINUOUS
  0
LAYER
  5
DB6
330
BE3
100
AcDbSymbolTableRecord
100
AcDbLayerTableRecord
  2
Shape4433
 70
    0
 62
    7
  6
CONTINUOUS
  0
LAYER
  5
DB7
330
BE3
100
AcDbSymbolTableRecord
100
AcDbLayerTableRecord
  2
Shape4434
 70
    0
 62
    7
  6
CONTINUOUS
  0
LAYER
  5
DB8
330
BE3
100
AcDbSymbolTableRecord
100
AcDbLayerTableRecord
  2
Shape4435
 70
    0
 62
    7
  6
CONTINUOUS
  0
LAYER
  5
DB9
330
BE3
100
AcDbSymbolTableRecord
100
AcDbLayerTableRecord
  2
Shape4436
 70
    0
 62
    7
  6
CONTINUOUS
  0
LAYER
  5
DBA
330
BE3
100
AcDbSymbolTableRecord
100
AcDbLayerTableRecord
  2
Shape4437
 70
    0
 62
    7
  6
CONTINUOUS
  0
LAYER
  5
DBB
330
BE3
100
AcDbSymbolTableRecord
100
AcDbLayerTableRecord
  2
Shape4438
 70
    0
 62
    7
  6
CONTINUOUS
  0
LAYER
  5
DBC
330
BE3
100
AcDbSymbolTableRecord
100
AcDbLayerTableRecord
  2
Shape4439
 70
    0
 62
    7
  6
CONTINUOUS
  0
LAYER
  5
DBD
330
BE3
100
AcDbSymbolTableRecord
100
AcDbLayerTableRecord
  2
Shape4440
 70
    0
 62
    7
  6
CONTINUOUS
  0
LAYER
  5
DBE
330
BE3
100
AcDbSymbolTableRecord
100
AcDbLayerTableRecord
  2
Shape4441
 70
    0
 62
    7
  6
CONTINUOUS
  0
LAYER
  5
DBF
330
BE3
100
AcDbSymbolTableRecord
100
AcDbLayerTableRecord
  2
Shape4442
 70
    0
 62
    7
  6
CONTINUOUS
  0
LAYER
  5
DC0
330
BE3
100
AcDbSymbolTableRecord
100
AcDbLayerTableRecord
  2
Shape12735
 70
    0
 62
    7
  6
CONTINUOUS
  0
ENDTAB
  0
TABLE
  2
STYLE
  5
70
330
0
100
AcDbSymbolTable
 70
     2
  0
STYLE
  5
71
330
70
100
AcDbSymbolTableRecord
100
AcDbTextStyleTableRecord
  2
STANDARD
 70
     0
 40
0.0
 41
1.0
 50
0.0
 71
     0
 42
2.5
  3
arial.ttf
  4

  0
STYLE
  5
72
330
70
100
AcDbSymbolTableRecord
100
AcDbTextStyleTableRecord
  2
ANNOTATIVE
 70
     0
 40
0.0
 41
1.0
 50
0.0
 71
     0
 42
2.5
  3
arial.ttf
  4

  0
ENDTAB
  0
TABLE
  2
VIEW
  5
73
330
0
100
AcDbSymbolTable
 70
     0
  0
ENDTAB
  0
TABLE
  2
UCS
  5
74
330
0
100
AcDbSymbolTable
 70
     0
  0
ENDTAB
  0
TABLE
  2
APPID
  5
75
330
0
100
AcDbSymbolTable
 70
     2
  0
APPID
  5
76
330
75
100
AcDbSymbolTableRecord
100
AcDbRegAppTableRecord
  2
ACAD
 70
     0
  0
APPID
  5
77
330
75
100
AcDbSymbolTableRecord
100
AcDbRegAppTableRecord
  2
ACADANNOTATIVE
 70
     0
  0
ENDTAB
  0
TABLE
  2
DIMSTYLE
  5
78
330
0
100
AcDbSymbolTable
 70
     2
  0
DIMSTYLE
105
79
330
78
100
AcDbSymbolTableRecord
100
AcDbDimStyleTableRecord
  2
STANDARD
 70
     0
  3

  4

  5

  6

  7

 40
0.0
 41
2.5
 42
0.625
 43
3.75
 44
1.25
 45
0.0
 46
0.0
 47
0.0
 48
0.0
140
2.5
141
2.5
142
0.0
143
0.03937007874016
144
1.0
145
0.0
146
1.0
147
0.625
 71
     0
 72
     0
 73
     0
 74
     0
 75
     0
 76
     0
 77
     1
 78
     8
170
     0
171
     3
172
     1
173
     0
174
     0
175
     0
176
     0
177
     0
178
     0
270
     2
271
     2
272
     2
273
     2
274
     3
340
71
275
     0
280
     0
281
     0
282
     0
283
     0
284
     8
285
     0
286
     0
287
     3
288
     0
  0
ENDTAB
  0
TABLE
  2
BLOCK_RECORD
  5
A01
330
0
100
AcDbSymbolTable
  70
5
  0
BLOCK_RECORD
  5
A02
330
A01
100
AcDbSymbolTableRecord
100
AcDbBlockTableRecord
  2
*MODEL_SPACE
  0
BLOCK_RECORD
  5
A03
330
A01
100
AcDbSymbolTableRecord
100
AcDbBlockTableRecord
  2
*PAPER_SPACE
  0
ENDTAB
  0
ENDSEC
  0
SECTION
  2
BLOCKS
  0
BLOCK
  5
A04
330
A02
100
AcDbEntity
  8
0
100
AcDbBlockBegin
  2
*MODEL_SPACE
 70
   0
 10
0
 20
0
 30
0
  3
*MODEL_SPACE
  1
 
  0
ENDBLK
  5
A05
330
A02
100
AcDbEntity
  8
0
100
AcDbBlockEnd
  0
BLOCK
  5
A06
330
A03
100
AcDbEntity
 67
1
  8
0
100
AcDbBlockBegin
  2
*PAPER_SPACE
 70
   0
 10
0
 20
0
 30
0
  3
*PAPER_SPACE
  1
 
  0
ENDBLK
  5
A07
330
A03
100
AcDbEntity
 67
    1
  8
0
100
AcDbBlockEnd
  0
ENDSEC
  0
SECTION
  2
ENTITIES
  0
LINE
  5
A08
330
A02
100
AcDbEntity
  8
Shape342
100
AcDbLine
 10
396.592
 20
-5.85638
 30
0
 11
396.592
 21
-19.8564
 31
0
  0
LINE
  5
A09
330
A02
100
AcDbEntity
  8
Shape343
100
AcDbLine
 10
396.592
 20
-19.8564
 30
0
 11
382.592
 21
-19.8564
 31
0
  0
LINE
  5
A0A
330
A02
100
AcDbEntity
  8
Shape344
100
AcDbLine
 10
382.592
 20
-19.8564
 30
0
 11
382.592
 21
-5.85638
 31
0
  0
LINE
  5
A0B
330
A02
100
AcDbEntity
  8
Shape345
100
AcDbLine
 10
382.592
 20
-5.85638
 30
0
 11
396.592
 21
-5.85638
 31
0
  0
LINE
  5
A0C
330
A02
100
AcDbEntity
  8
Shape346
100
AcDbLine
 10
375.161
 20
-5.85638
 30
0
 11
375.161
 21
-19.8564
 31
0
  0
LINE
  5
A0D
330
A02
100
AcDbEntity
  8
Shape347
100
AcDbLine
 10
375.161
 20
-19.8564
 30
0
 11
361.161
 21
-19.8564
 31
0
  0
LINE
  5
A0E
330
A02
100
AcDbEntity
  8
Shape348
100
AcDbLine
 10
361.161
 20
-19.8564
 30
0
 11
361.161
 21
-5.85638
 31
0
  0
LINE
  5
A0F
330
A02
100
AcDbEntity
  8
Shape349
100
AcDbLine
 10
361.161
 20
-5.85638
 30
0
 11
375.161
 21
-5.85638
 31
0
  0
LINE
  5
A10
330
A02
100
AcDbEntity
  8
Shape350
100
AcDbLine
 10
353.73
 20
-5.85638
 30
0
 11
353.73
 21
-19.8564
 31
0
  0
LINE
  5
A11
330
A02
100
AcDbEntity
  8
Shape351
100
AcDbLine
 10
353.73
 20
-19.8564
 30
0
 11
339.73
 21
-19.8564
 31
0
  0
LINE
  5
A12
330
A02
100
AcDbEntity
  8
Shape352
100
AcDbLine
 10
339.73
 20
-19.8564
 30
0
 11
339.73
 21
-5.85638
 31
0
  0
LINE
  5
A13
330
A02
100
AcDbEntity
  8
Shape353
100
AcDbLine
 10
339.73
 20
-5.85638
 30
0
 11
353.73
 21
-5.85638
 31
0
  0
LINE
  5
A14
330
A02
100
AcDbEntity
  8
Shape354
100
AcDbLine
 10
215.617
 20
-5.85638
 30
0
 11
215.617
 21
-19.8564
 31
0
  0
LINE
  5
A15
330
A02
100
AcDbEntity
  8
Shape355
100
AcDbLine
 10
215.617
 20
-19.8564
 30
0
 11
201.617
 21
-19.8564
 31
0
  0
LINE
  5
A16
330
A02
100
AcDbEntity
  8
Shape356
100
AcDbLine
 10
201.617
 20
-19.8564
 30
0
 11
201.617
 21
-5.85638
 31
0
  0
LINE
  5
A17
330
A02
100
AcDbEntity
  8
Shape357
100
AcDbLine
 10
201.617
 20
-5.85638
 30
0
 11
215.617
 21
-5.85638
 31
0
  0
LINE
  5
A18
330
A02
100
AcDbEntity
  8
Shape358
100
AcDbLine
 10
194.186
 20
-5.85638
 30
0
 11
194.186
 21
-19.8564
 31
0
  0
LINE
  5
A19
330
A02
100
AcDbEntity
  8
Shape359
100
AcDbLine
 10
194.186
 20
-19.8564
 30
0
 11
180.186
 21
-19.8564
 31
0
  0
LINE
  5
A1A
330
A02
100
AcDbEntity
  8
Shape360
100
AcDbLine
 10
180.186
 20
-19.8564
 30
0
 11
180.186
 21
-5.85638
 31
0
  0
LINE
  5
A1B
330
A02
100
AcDbEntity
  8
Shape361
100
AcDbLine
 10
180.186
 20
-5.85638
 30
0
 11
194.186
 21
-5.85638
 31
0
  0
LINE
  5
A1C
330
A02
100
AcDbEntity
  8
Shape362
100
AcDbLine
 10
158.755
 20
-5.85638
 30
0
 11
172.755
 21
-5.85638
 31
0
  0
LINE
  5
A1D
330
A02
100
AcDbEntity
  8
Shape363
100
AcDbLine
 10
172.755
 20
-5.85638
 30
0
 11
172.755
 21
-19.8564
 31
0
  0
LINE
  5
A1E
330
A02
100
AcDbEntity
  8
Shape364
100
AcDbLine
 10
172.755
 20
-19.8564
 30
0
 11
158.755
 21
-19.8564
 31
0
  0
LINE
  5
A1F
330
A02
100
AcDbEntity
  8
Shape365
100
AcDbLine
 10
158.755
 20
-19.8564
 30
0
 11
158.755
 21
-5.85638
 31
0
  0
LINE
  5
A20
330
A02
100
AcDbEntity
  8
Shape390
100
AcDbLine
 10
158.706
 20
23.9754
 30
0
 11
158.706
 21
32.3436
 31
0
  0
LINE
  5
A21
330
A02
100
AcDbEntity
  8
Shape391
100
AcDbLine
 10
158.706
 20
32.3436
 30
0
 11
177.569
 21
32.3436
 31
0
  0
LINE
  5
A22
330
A02
100
AcDbEntity
  8
Shape392
100
AcDbLine
 10
177.569
 20
32.3436
 30
0
 11
177.569
 21
18.2436
 31
0
  0
LINE
  5
A23
330
A02
100
AcDbEntity
  8
Shape393
100
AcDbLine
 10
177.569
 20
18.2436
 30
0
 11
158.706
 21
18.2436
 31
0
  0
LINE
  5
A24
330
A02
100
AcDbEntity
  8
Shape394
100
AcDbLine
 10
158.706
 20
18.2436
 30
0
 11
158.706
 21
22.0754
 31
0
  0
LINE
  5
A25
330
A02
100
AcDbEntity
  8
Shape395
100
AcDbLine
 10
158.706
 20
22.0754
 30
0
 11
156.668
 21
22.0754
 31
0
  0
LINE
  5
A26
330
A02
100
AcDbEntity
  8
Shape396
100
AcDbLine
 10
156.668
 20
22.0754
 30
0
 11
156.668
 21
23.9754
 31
0
  0
LINE
  5
A27
330
A02
100
AcDbEntity
  8
Shape397
100
AcDbLine
 10
156.668
 20
23.9754
 30
0
 11
158.706
 21
23.9754
 31
0
  0
LINE
  5
A28
330
A02
100
AcDbEntity
  8
Shape398
100
AcDbLine
 10
375.212
 20
32.3436
 30
0
 11
375.212
 21
18.2436
 31
0
  0
LINE
  5
A29
330
A02
100
AcDbEntity
  8
Shape399
100
AcDbLine
 10
375.212
 20
18.2436
 30
0
 11
361.112
 21
18.2436
 31
0
  0
LINE
  5
A2A
330
A02
100
AcDbEntity
  8
Shape400
100
AcDbLine
 10
361.112
 20
18.2436
 30
0
 11
361.112
 21
32.3436
 31
0
  0
LINE
  5
A2B
330
A02
100
AcDbEntity
  8
Shape401
100
AcDbLine
 10
361.112
 20
32.3436
 30
0
 11
375.212
 21
32.3436
 31
0
  0
LINE
  5
A2C
330
A02
100
AcDbEntity
  8
Shape402
100
AcDbLine
 10
342.063
 20
32.3436
 30
0
 11
356.162
 21
32.3436
 31
0
  0
LINE
  5
A2D
330
A02
100
AcDbEntity
  8
Shape403
100
AcDbLine
 10
356.162
 20
32.3436
 30
0
 11
356.162
 21
18.2436
 31
0
  0
LINE
  5
A2E
330
A02
100
AcDbEntity
  8
Shape404
100
AcDbLine
 10
356.162
 20
18.2436
 30
0
 11
342.063
 21
18.2436
 31
0
  0
LINE
  5
A2F
330
A02
100
AcDbEntity
  8
Shape405
100
AcDbLine
 10
342.063
 20
18.2436
 30
0
 11
342.063
 21
32.3436
 31
0
  0
LINE
  5
A30
330
A02
100
AcDbEntity
  8
Shape406
100
AcDbLine
 10
323.012
 20
18.2436
 30
0
 11
323.012
 21
32.3436
 31
0
  0
LINE
  5
A31
330
A02
100
AcDbEntity
  8
Shape407
100
AcDbLine
 10
323.012
 20
32.3436
 30
0
 11
337.112
 21
32.3436
 31
0
  0
LINE
  5
A32
330
A02
100
AcDbEntity
  8
Shape408
100
AcDbLine
 10
337.112
 20
32.3436
 30
0
 11
337.112
 21
18.2436
 31
0
  0
LINE
  5
A33
330
A02
100
AcDbEntity
  8
Shape409
100
AcDbLine
 10
337.112
 20
18.2436
 30
0
 11
323.012
 21
18.2436
 31
0
  0
LINE
  5
A34
330
A02
100
AcDbEntity
  8
Shape410
100
AcDbLine
 10
303.963
 20
32.3436
 30
0
 11
318.063
 21
32.3436
 31
0
  0
LINE
  5
A35
330
A02
100
AcDbEntity
  8
Shape411
100
AcDbLine
 10
318.063
 20
32.3436
 30
0
 11
318.063
 21
18.2436
 31
0
  0
LINE
  5
A36
330
A02
100
AcDbEntity
  8
Shape412
100
AcDbLine
 10
318.063
 20
18.2436
 30
0
 11
303.963
 21
18.2436
 31
0
  0
LINE
  5
A37
330
A02
100
AcDbEntity
  8
Shape413
100
AcDbLine
 10
303.963
 20
18.2436
 30
0
 11
303.963
 21
32.3436
 31
0
  0
LINE
  5
A38
330
A02
100
AcDbEntity
  8
Shape414
100
AcDbLine
 10
284.912
 20
18.2436
 30
0
 11
284.912
 21
32.3436
 31
0
  0
LINE
  5
A39
330
A02
100
AcDbEntity
  8
Shape415
100
AcDbLine
 10
284.912
 20
32.3436
 30
0
 11
299.012
 21
32.3436
 31
0
  0
LINE
  5
A3A
330
A02
100
AcDbEntity
  8
Shape416
100
AcDbLine
 10
299.012
 20
32.3436
 30
0
 11
299.012
 21
18.2436
 31
0
  0
LINE
  5
A3B
330
A02
100
AcDbEntity
  8
Shape417
100
AcDbLine
 10
299.012
 20
18.2436
 30
0
 11
284.912
 21
18.2436
 31
0
  0
LINE
  5
A3C
330
A02
100
AcDbEntity
  8
Shape418
100
AcDbLine
 10
265.862
 20
18.2436
 30
0
 11
265.862
 21
32.3436
 31
0
  0
LINE
  5
A3D
330
A02
100
AcDbEntity
  8
Shape419
100
AcDbLine
 10
265.862
 20
32.3436
 30
0
 11
279.963
 21
32.3436
 31
0
  0
LINE
  5
A3E
330
A02
100
AcDbEntity
  8
Shape420
100
AcDbLine
 10
279.963
 20
32.3436
 30
0
 11
279.963
 21
18.2436
 31
0
  0
LINE
  5
A3F
330
A02
100
AcDbEntity
  8
Shape421
100
AcDbLine
 10
279.963
 20
18.2436
 30
0
 11
265.862
 21
18.2436
 31
0
  0
LINE
  5
A40
330
A02
100
AcDbEntity
  8
Shape422
100
AcDbLine
 10
246.812
 20
32.3436
 30
0
 11
260.912
 21
32.3436
 31
0
  0
LINE
  5
A41
330
A02
100
AcDbEntity
  8
Shape423
100
AcDbLine
 10
260.912
 20
32.3436
 30
0
 11
260.912
 21
18.2436
 31
0
  0
LINE
  5
A42
330
A02
100
AcDbEntity
  8
Shape424
100
AcDbLine
 10
260.912
 20
18.2436
 30
0
 11
246.812
 21
18.2436
 31
0
  0
LINE
  5
A43
330
A02
100
AcDbEntity
  8
Shape425
100
AcDbLine
 10
246.812
 20
18.2436
 30
0
 11
246.812
 21
32.3436
 31
0
  0
LINE
  5
A44
330
A02
100
AcDbEntity
  8
Shape426
100
AcDbLine
 10
227.762
 20
18.2436
 30
0
 11
227.762
 21
32.3436
 31
0
  0
LINE
  5
A45
330
A02
100
AcDbEntity
  8
Shape427
100
AcDbLine
 10
227.762
 20
32.3436
 30
0
 11
241.862
 21
32.3436
 31
0
  0
LINE
  5
A46
330
A02
100
AcDbEntity
  8
Shape428
100
AcDbLine
 10
241.862
 20
32.3436
 30
0
 11
241.862
 21
18.2436
 31
0
  0
LINE
  5
A47
330
A02
100
AcDbEntity
  8
Shape429
100
AcDbLine
 10
241.862
 20
18.2436
 30
0
 11
227.762
 21
18.2436
 31
0
  0
LINE
  5
A48
330
A02
100
AcDbEntity
  8
Shape430
100
AcDbLine
 10
208.712
 20
18.2436
 30
0
 11
208.712
 21
32.3436
 31
0
  0
LINE
  5
A49
330
A02
100
AcDbEntity
  8
Shape431
100
AcDbLine
 10
208.712
 20
32.3436
 30
0
 11
222.812
 21
32.3436
 31
0
  0
LINE
  5
A4A
330
A02
100
AcDbEntity
  8
Shape432
100
AcDbLine
 10
222.812
 20
32.3436
 30
0
 11
222.812
 21
18.2436
 31
0
  0
LINE
  5
A4B
330
A02
100
AcDbEntity
  8
Shape433
100
AcDbLine
 10
222.812
 20
18.2436
 30
0
 11
208.712
 21
18.2436
 31
0
  0
LINE
  5
A4C
330
A02
100
AcDbEntity
  8
Shape434
100
AcDbLine
 10
189.662
 20
18.2436
 30
0
 11
189.662
 21
32.3436
 31
0
  0
LINE
  5
A4D
330
A02
100
AcDbEntity
  8
Shape435
100
AcDbLine
 10
189.662
 20
32.3436
 30
0
 11
203.762
 21
32.3436
 31
0
  0
LINE
  5
A4E
330
A02
100
AcDbEntity
  8
Shape436
100
AcDbLine
 10
203.762
 20
32.3436
 30
0
 11
203.762
 21
18.2436
 31
0
  0
LINE
  5
A4F
330
A02
100
AcDbEntity
  8
Shape437
100
AcDbLine
 10
203.762
 20
18.2436
 30
0
 11
189.662
 21
18.2436
 31
0
  0
LINE
  5
A50
330
A02
100
AcDbEntity
  8
Shape438
100
AcDbLine
 10
161.087
 20
51.3936
 30
0
 11
175.187
 21
51.3936
 31
0
  0
LINE
  5
A51
330
A02
100
AcDbEntity
  8
Shape439
100
AcDbLine
 10
175.187
 20
51.3936
 30
0
 11
175.187
 21
37.2936
 31
0
  0
LINE
  5
A52
330
A02
100
AcDbEntity
  8
Shape440
100
AcDbLine
 10
175.187
 20
37.2936
 30
0
 11
161.087
 21
37.2936
 31
0
  0
LINE
  5
A53
330
A02
100
AcDbEntity
  8
Shape441
100
AcDbLine
 10
161.087
 20
37.2936
 30
0
 11
161.087
 21
51.3936
 31
0
  0
LINE
  5
A54
330
A02
100
AcDbEntity
  8
Shape442
100
AcDbLine
 10
184.9
 20
51.3936
 30
0
 11
199
 21
51.3936
 31
0
  0
LINE
  5
A55
330
A02
100
AcDbEntity
  8
Shape443
100
AcDbLine
 10
199
 20
51.3936
 30
0
 11
199
 21
37.2936
 31
0
  0
LINE
  5
A56
330
A02
100
AcDbEntity
  8
Shape444
100
AcDbLine
 10
199
 20
37.2936
 30
0
 11
184.9
 21
37.2936
 31
0
  0
LINE
  5
A57
330
A02
100
AcDbEntity
  8
Shape445
100
AcDbLine
 10
184.9
 20
37.2936
 30
0
 11
184.9
 21
51.3936
 31
0
  0
LINE
  5
A58
330
A02
100
AcDbEntity
  8
Shape446
100
AcDbLine
 10
203.95
 20
51.3936
 30
0
 11
218.05
 21
51.3936
 31
0
  0
LINE
  5
A59
330
A02
100
AcDbEntity
  8
Shape447
100
AcDbLine
 10
218.05
 20
51.3936
 30
0
 11
218.05
 21
37.2936
 31
0
  0
LINE
  5
A5A
330
A02
100
AcDbEntity
  8
Shape448
100
AcDbLine
 10
218.05
 20
37.2936
 30
0
 11
203.95
 21
37.2936
 31
0
  0
LINE
  5
A5B
330
A02
100
AcDbEntity
  8
Shape449
100
AcDbLine
 10
203.95
 20
37.2936
 30
0
 11
203.95
 21
51.3936
 31
0
  0
LINE
  5
A5C
330
A02
100
AcDbEntity
  8
Shape450
100
AcDbLine
 10
242.05
 20
51.3936
 30
0
 11
256.15
 21
51.3936
 31
0
  0
LINE
  5
A5D
330
A02
100
AcDbEntity
  8
Shape451
100
AcDbLine
 10
256.15
 20
51.3936
 30
0
 11
256.15
 21
37.2936
 31
0
  0
LINE
  5
A5E
330
A02
100
AcDbEntity
  8
Shape452
100
AcDbLine
 10
256.15
 20
37.2936
 30
0
 11
242.05
 21
37.2936
 31
0
  0
LINE
  5
A5F
330
A02
100
AcDbEntity
  8
Shape453
100
AcDbLine
 10
242.05
 20
37.2936
 30
0
 11
242.05
 21
51.3936
 31
0
  0
LINE
  5
A60
330
A02
100
AcDbEntity
  8
Shape454
100
AcDbLine
 10
261.1
 20
51.3936
 30
0
 11
275.2
 21
51.3936
 31
0
  0
LINE
  5
A61
330
A02
100
AcDbEntity
  8
Shape455
100
AcDbLine
 10
275.2
 20
51.3936
 30
0
 11
275.2
 21
37.2936
 31
0
  0
LINE
  5
A62
330
A02
100
AcDbEntity
  8
Shape456
100
AcDbLine
 10
275.2
 20
37.2936
 30
0
 11
261.1
 21
37.2936
 31
0
  0
LINE
  5
A63
330
A02
100
AcDbEntity
  8
Shape457
100
AcDbLine
 10
261.1
 20
37.2936
 30
0
 11
261.1
 21
51.3936
 31
0
  0
LINE
  5
A64
330
A02
100
AcDbEntity
  8
Shape458
100
AcDbLine
 10
280.15
 20
51.3936
 30
0
 11
294.25
 21
51.3936
 31
0
  0
LINE
  5
A65
330
A02
100
AcDbEntity
  8
Shape459
100
AcDbLine
 10
294.25
 20
51.3936
 30
0
 11
294.25
 21
37.2936
 31
0
  0
LINE
  5
A66
330
A02
100
AcDbEntity
  8
Shape460
100
AcDbLine
 10
294.25
 20
37.2936
 30
0
 11
280.15
 21
37.2936
 31
0
  0
LINE
  5
A67
330
A02
100
AcDbEntity
  8
Shape461
100
AcDbLine
 10
280.15
 20
37.2936
 30
0
 11
280.15
 21
51.3936
 31
0
  0
LINE
  5
A68
330
A02
100
AcDbEntity
  8
Shape462
100
AcDbLine
 10
299.2
 20
51.3936
 30
0
 11
313.3
 21
51.3936
 31
0
  0
LINE
  5
A69
330
A02
100
AcDbEntity
  8
Shape463
100
AcDbLine
 10
313.3
 20
51.3936
 30
0
 11
313.3
 21
37.2936
 31
0
  0
LINE
  5
A6A
330
A02
100
AcDbEntity
  8
Shape464
100
AcDbLine
 10
313.3
 20
37.2936
 30
0
 11
299.2
 21
37.2936
 31
0
  0
LINE
  5
A6B
330
A02
100
AcDbEntity
  8
Shape465
100
AcDbLine
 10
299.2
 20
37.2936
 30
0
 11
299.2
 21
51.3936
 31
0
  0
LINE
  5
A6C
330
A02
100
AcDbEntity
  8
Shape466
100
AcDbLine
 10
318.25
 20
51.3936
 30
0
 11
332.35
 21
51.3936
 31
0
  0
LINE
  5
A6D
330
A02
100
AcDbEntity
  8
Shape467
100
AcDbLine
 10
332.35
 20
51.3936
 30
0
 11
332.35
 21
37.2936
 31
0
  0
LINE
  5
A6E
330
A02
100
AcDbEntity
  8
Shape468
100
AcDbLine
 10
332.35
 20
37.2936
 30
0
 11
318.25
 21
37.2936
 31
0
  0
LINE
  5
A6F
330
A02
100
AcDbEntity
  8
Shape469
100
AcDbLine
 10
318.25
 20
37.2936
 30
0
 11
318.25
 21
51.3936
 31
0
  0
LINE
  5
A70
330
A02
100
AcDbEntity
  8
Shape470
100
AcDbLine
 10
337.3
 20
51.3936
 30
0
 11
351.4
 21
51.3936
 31
0
  0
LINE
  5
A71
330
A02
100
AcDbEntity
  8
Shape471
100
AcDbLine
 10
351.4
 20
51.3936
 30
0
 11
351.4
 21
37.2936
 31
0
  0
LINE
  5
A72
330
A02
100
AcDbEntity
  8
Shape472
100
AcDbLine
 10
351.4
 20
37.2936
 30
0
 11
337.3
 21
37.2936
 31
0
  0
LINE
  5
A73
330
A02
100
AcDbEntity
  8
Shape473
100
AcDbLine
 10
337.3
 20
37.2936
 30
0
 11
337.3
 21
51.3936
 31
0
  0
LINE
  5
A74
330
A02
100
AcDbEntity
  8
Shape474
100
AcDbLine
 10
356.35
 20
51.3936
 30
0
 11
370.45
 21
51.3936
 31
0
  0
LINE
  5
A75
330
A02
100
AcDbEntity
  8
Shape475
100
AcDbLine
 10
370.45
 20
51.3936
 30
0
 11
370.45
 21
37.2936
 31
0
  0
LINE
  5
A76
330
A02
100
AcDbEntity
  8
Shape476
100
AcDbLine
 10
370.45
 20
37.2936
 30
0
 11
356.35
 21
37.2936
 31
0
  0
LINE
  5
A77
330
A02
100
AcDbEntity
  8
Shape477
100
AcDbLine
 10
356.35
 20
37.2936
 30
0
 11
356.35
 21
51.3936
 31
0
  0
LINE
  5
A78
330
A02
100
AcDbEntity
  8
Shape478
100
AcDbLine
 10
199.187
 20
13.2936
 30
0
 11
213.287
 21
13.2936
 31
0
  0
LINE
  5
A79
330
A02
100
AcDbEntity
  8
Shape479
100
AcDbLine
 10
213.287
 20
13.2936
 30
0
 11
213.287
 21
-0.80638
 31
0
  0
LINE
  5
A7A
330
A02
100
AcDbEntity
  8
Shape480
100
AcDbLine
 10
213.287
 20
-0.80638
 30
0
 11
199.187
 21
-0.80638
 31
0
  0
LINE
  5
A7B
330
A02
100
AcDbEntity
  8
Shape481
100
AcDbLine
 10
199.187
 20
-0.80638
 30
0
 11
199.187
 21
13.2936
 31
0
  0
LINE
  5
A7C
330
A02
100
AcDbEntity
  8
Shape482
100
AcDbLine
 10
218.237
 20
13.2936
 30
0
 11
232.337
 21
13.2936
 31
0
  0
LINE
  5
A7D
330
A02
100
AcDbEntity
  8
Shape483
100
AcDbLine
 10
232.337
 20
13.2936
 30
0
 11
232.337
 21
-0.80638
 31
0
  0
LINE
  5
A7E
330
A02
100
AcDbEntity
  8
Shape484
100
AcDbLine
 10
232.337
 20
-0.80638
 30
0
 11
218.237
 21
-0.80638
 31
0
  0
LINE
  5
A7F
330
A02
100
AcDbEntity
  8
Shape485
100
AcDbLine
 10
218.237
 20
-0.80638
 30
0
 11
218.237
 21
13.2936
 31
0
  0
LINE
  5
A80
330
A02
100
AcDbEntity
  8
Shape486
100
AcDbLine
 10
237.287
 20
13.2936
 30
0
 11
251.387
 21
13.2936
 31
0
  0
LINE
  5
A81
330
A02
100
AcDbEntity
  8
Shape487
100
AcDbLine
 10
251.387
 20
13.2936
 30
0
 11
251.387
 21
-0.80638
 31
0
  0
LINE
  5
A82
330
A02
100
AcDbEntity
  8
Shape488
100
AcDbLine
 10
251.387
 20
-0.80638
 30
0
 11
237.287
 21
-0.80638
 31
0
  0
LINE
  5
A83
330
A02
100
AcDbEntity
  8
Shape489
100
AcDbLine
 10
237.287
 20
-0.80638
 30
0
 11
237.287
 21
13.2936
 31
0
  0
LINE
  5
A84
330
A02
100
AcDbEntity
  8
Shape490
100
AcDbLine
 10
256.337
 20
13.2936
 30
0
 11
270.437
 21
13.2936
 31
0
  0
LINE
  5
A85
330
A02
100
AcDbEntity
  8
Shape491
100
AcDbLine
 10
270.437
 20
13.2936
 30
0
 11
270.437
 21
-0.80638
 31
0
  0
LINE
  5
A86
330
A02
100
AcDbEntity
  8
Shape492
100
AcDbLine
 10
270.437
 20
-0.80638
 30
0
 11
256.337
 21
-0.80638
 31
0
  0
LINE
  5
A87
330
A02
100
AcDbEntity
  8
Shape493
100
AcDbLine
 10
256.337
 20
-0.80638
 30
0
 11
256.337
 21
13.2936
 31
0
  0
LINE
  5
A88
330
A02
100
AcDbEntity
  8
Shape494
100
AcDbLine
 10
275.387
 20
13.2936
 30
0
 11
289.487
 21
13.2936
 31
0
  0
LINE
  5
A89
330
A02
100
AcDbEntity
  8
Shape495
100
AcDbLine
 10
289.487
 20
13.2936
 30
0
 11
289.487
 21
-0.80638
 31
0
  0
LINE
  5
A8A
330
A02
100
AcDbEntity
  8
Shape496
100
AcDbLine
 10
289.487
 20
-0.80638
 30
0
 11
275.387
 21
-0.80638
 31
0
  0
LINE
  5
A8B
330
A02
100
AcDbEntity
  8
Shape497
100
AcDbLine
 10
275.387
 20
-0.80638
 30
0
 11
275.387
 21
13.2936
 31
0
  0
LINE
  5
A8C
330
A02
100
AcDbEntity
  8
Shape498
100
AcDbLine
 10
294.437
 20
13.2936
 30
0
 11
308.537
 21
13.2936
 31
0
  0
LINE
  5
A8D
330
A02
100
AcDbEntity
  8
Shape499
100
AcDbLine
 10
308.537
 20
13.2936
 30
0
 11
308.537
 21
-0.80638
 31
0
  0
LINE
  5
A8E
330
A02
100
AcDbEntity
  8
Shape500
100
AcDbLine
 10
308.537
 20
-0.80638
 30
0
 11
294.437
 21
-0.80638
 31
0
  0
LINE
  5
A8F
330
A02
100
AcDbEntity
  8
Shape501
100
AcDbLine
 10
294.437
 20
-0.80638
 30
0
 11
294.437
 21
13.2936
 31
0
  0
LINE
  5
A90
330
A02
100
AcDbEntity
  8
Shape502
100
AcDbLine
 10
313.487
 20
13.2936
 30
0
 11
327.587
 21
13.2936
 31
0
  0
LINE
  5
A91
330
A02
100
AcDbEntity
  8
Shape503
100
AcDbLine
 10
327.587
 20
13.2936
 30
0
 11
327.587
 21
-0.80638
 31
0
  0
LINE
  5
A92
330
A02
100
AcDbEntity
  8
Shape504
100
AcDbLine
 10
327.587
 20
-0.80638
 30
0
 11
313.487
 21
-0.80638
 31
0
  0
LINE
  5
A93
330
A02
100
AcDbEntity
  8
Shape505
100
AcDbLine
 10
313.487
 20
-0.80638
 30
0
 11
313.487
 21
13.2936
 31
0
  0
LINE
  5
A94
330
A02
100
AcDbEntity
  8
Shape506
100
AcDbLine
 10
332.537
 20
13.2936
 30
0
 11
346.637
 21
13.2936
 31
0
  0
LINE
  5
A95
330
A02
100
AcDbEntity
  8
Shape507
100
AcDbLine
 10
346.637
 20
13.2936
 30
0
 11
346.637
 21
-0.80638
 31
0
  0
LINE
  5
A96
330
A02
100
AcDbEntity
  8
Shape508
100
AcDbLine
 10
346.637
 20
-0.80638
 30
0
 11
332.537
 21
-0.80638
 31
0
  0
LINE
  5
A97
330
A02
100
AcDbEntity
  8
Shape509
100
AcDbLine
 10
332.537
 20
-0.80638
 30
0
 11
332.537
 21
13.2936
 31
0
  0
LINE
  5
A98
330
A02
100
AcDbEntity
  8
Shape510
100
AcDbLine
 10
351.587
 20
13.2936
 30
0
 11
365.687
 21
13.2936
 31
0
  0
LINE
  5
A99
330
A02
100
AcDbEntity
  8
Shape511
100
AcDbLine
 10
365.687
 20
13.2936
 30
0
 11
365.687
 21
-0.80638
 31
0
  0
LINE
  5
A9A
330
A02
100
AcDbEntity
  8
Shape512
100
AcDbLine
 10
365.687
 20
-0.80638
 30
0
 11
351.587
 21
-0.80638
 31
0
  0
LINE
  5
A9B
330
A02
100
AcDbEntity
  8
Shape513
100
AcDbLine
 10
351.587
 20
-0.80638
 30
0
 11
351.587
 21
13.2936
 31
0
  0
LINE
  5
A9C
330
A02
100
AcDbEntity
  8
Shape514
100
AcDbLine
 10
377.781
 20
13.2936
 30
0
 11
391.881
 21
13.2936
 31
0
  0
LINE
  5
A9D
330
A02
100
AcDbEntity
  8
Shape515
100
AcDbLine
 10
391.881
 20
13.2936
 30
0
 11
391.881
 21
-0.80638
 31
0
  0
LINE
  5
A9E
330
A02
100
AcDbEntity
  8
Shape516
100
AcDbLine
 10
391.881
 20
-0.80638
 30
0
 11
377.781
 21
-0.80638
 31
0
  0
LINE
  5
A9F
330
A02
100
AcDbEntity
  8
Shape517
100
AcDbLine
 10
377.781
 20
-0.80638
 30
0
 11
377.781
 21
13.2936
 31
0
  0
LINE
  5
AA0
330
A02
100
AcDbEntity
  8
Shape518
100
AcDbLine
 10
223
 20
51.3936
 30
0
 11
237.1
 21
51.3936
 31
0
  0
LINE
  5
AA1
330
A02
100
AcDbEntity
  8
Shape519
100
AcDbLine
 10
237.1
 20
51.3936
 30
0
 11
237.1
 21
37.2936
 31
0
  0
LINE
  5
AA2
330
A02
100
AcDbEntity
  8
Shape520
100
AcDbLine
 10
237.1
 20
37.2936
 30
0
 11
223
 21
37.2936
 31
0
  0
LINE
  5
AA3
330
A02
100
AcDbEntity
  8
Shape521
100
AcDbLine
 10
223
 20
37.2936
 30
0
 11
223
 21
51.3936
 31
0
  0
ARC
  5
AA4
330
A02
100
AcDbEntity
  8
Shape2214
100
AcDbCircle
 10
298.675
 20
56.2177
 30
0
 40
1
100
AcDbArc
 50
-90
 51
0
  0
LINE
  5
AA5
330
A02
100
AcDbEntity
  8
Shape2215
100
AcDbLine
 10
298.675
 20
55.2177
 30
0
 11
288.175
 21
55.2177
 31
0
  0
ARC
  5
AA6
330
A02
100
AcDbEntity
  8
Shape2216
100
AcDbCircle
 10
288.175
 20
54.7177
 30
0
 40
0.5
100
AcDbArc
 50
90
 51
180
  0
LINE
  5
AA7
330
A02
100
AcDbEntity
  8
Shape2217
100
AcDbLine
 10
287.675
 20
54.7177
 30
0
 11
287.675
 21
54.4686
 31
0
  0
ARC
  5
AA8
330
A02
100
AcDbEntity
  8
Shape2218
100
AcDbCircle
 10
288.175
 20
54.4686
 30
0
 40
0.5
100
AcDbArc
 50
180
 51
-90
  0
LINE
  5
AA9
330
A02
100
AcDbEntity
  8
Shape2219
100
AcDbLine
 10
288.175
 20
53.9686
 30
0
 11
357.175
 21
53.9686
 31
0
  0
ARC
  5
AAA
330
A02
100
AcDbEntity
  8
Shape2220
100
AcDbCircle
 10
357.175
 20
54.4686
 30
0
 40
0.5
100
AcDbArc
 50
-90
 51
0
  0
LINE
  5
AAB
330
A02
100
AcDbEntity
  8
Shape2221
100
AcDbLine
 10
357.675
 20
54.4686
 30
0
 11
357.675
 21
54.7177
 31
0
  0
ARC
  5
AAC
330
A02
100
AcDbEntity
  8
Shape2222
100
AcDbCircle
 10
357.175
 20
54.7177
 30
0
 40
0.5
100
AcDbArc
 50
0
 51
90
  0
LINE
  5
AAD
330
A02
100
AcDbEntity
  8
Shape2223
100
AcDbLine
 10
357.175
 20
55.2177
 30
0
 11
346.675
 21
55.2177
 31
0
  0
ARC
  5
AAE
330
A02
100
AcDbEntity
  8
Shape2224
100
AcDbCircle
 10
346.675
 20
56.2177
 30
0
 40
1
100
AcDbArc
 50
180
 51
-90
  0
LINE
  5
AAF
330
A02
100
AcDbEntity
  8
Shape2225
100
AcDbLine
 10
345.675
 20
56.2177
 30
0
 11
345.675
 21
57.7177
 31
0
  0
ARC
  5
AB0
330
A02
100
AcDbEntity
  8
Shape2226
100
AcDbCircle
 10
346.675
 20
57.7177
 30
0
 40
1
100
AcDbArc
 50
90
 51
180
  0
LINE
  5
AB1
330
A02
100
AcDbEntity
  8
Shape2227
100
AcDbLine
 10
346.675
 20
58.7177
 30
0
 11
364.675
 21
58.7177
 31
0
  0
LINE
  5
AB2
330
A02
100
AcDbEntity
  8
Shape2228
100
AcDbLine
 10
364.675
 20
58.7177
 30
0
 11
364.675
 21
53.4677
 31
0
  0
ARC
  5
AB3
330
A02
100
AcDbEntity
  8
Shape2229
100
AcDbCircle
 10
365.175
 20
53.4677
 30
0
 40
0.5
100
AcDbArc
 50
180
 51
0
  0
LINE
  5
AB4
330
A02
100
AcDbEntity
  8
Shape2230
100
AcDbLine
 10
365.675
 20
53.4677
 30
0
 11
365.675
 21
57.4677
 31
0
  0
ARC
  5
AB5
330
A02
100
AcDbEntity
  8
Shape2231
100
AcDbCircle
 10
367.675
 20
57.4677
 30
0
 40
2
100
AcDbArc
 50
0
 51
180
  0
LINE
  5
AB6
330
A02
100
AcDbEntity
  8
Shape2232
100
AcDbLine
 10
369.675
 20
57.4677
 30
0
 11
369.675
 21
53.4677
 31
0
  0
ARC
  5
AB7
330
A02
100
AcDbEntity
  8
Shape2233
100
AcDbCircle
 10
370.175
 20
53.4677
 30
0
 40
0.5
100
AcDbArc
 50
180
 51
0
  0
LINE
  5
AB8
330
A02
100
AcDbEntity
  8
Shape2234
100
AcDbLine
 10
370.675
 20
53.4677
 30
0
 11
370.675
 21
58.7177
 31
0
  0
LINE
  5
AB9
330
A02
100
AcDbEntity
  8
Shape2235
100
AcDbLine
 10
370.675
 20
58.7177
 30
0
 11
388.675
 21
58.7177
 31
0
  0
ARC
  5
ABA
330
A02
100
AcDbEntity
  8
Shape2236
100
AcDbCircle
 10
388.675
 20
57.7177
 30
0
 40
1
100
AcDbArc
 50
0
 51
90
  0
LINE
  5
ABB
330
A02
100
AcDbEntity
  8
Shape2237
100
AcDbLine
 10
389.675
 20
57.7177
 30
0
 11
389.675
 21
56.2177
 31
0
  0
ARC
  5
ABC
330
A02
100
AcDbEntity
  8
Shape2238
100
AcDbCircle
 10
388.675
 20
56.2177
 30
0
 40
1
100
AcDbArc
 50
-90
 51
0
  0
LINE
  5
ABD
330
A02
100
AcDbEntity
  8
Shape2239
100
AcDbLine
 10
388.675
 20
55.2177
 30
0
 11
378.175
 21
55.2177
 31
0
  0
ARC
  5
ABE
330
A02
100
AcDbEntity
  8
Shape2240
100
AcDbCircle
 10
378.175
 20
54.7177
 30
0
 40
0.5
100
AcDbArc
 50
90
 51
180
  0
LINE
  5
ABF
330
A02
100
AcDbEntity
  8
Shape2241
100
AcDbLine
 10
377.675
 20
54.7177
 30
0
 11
377.675
 21
54.4686
 31
0
  0
ARC
  5
AC0
330
A02
100
AcDbEntity
  8
Shape2242
100
AcDbCircle
 10
378.175
 20
54.4686
 30
0
 40
0.5
100
AcDbArc
 50
180
 51
-90
  0
LINE
  5
AC1
330
A02
100
AcDbEntity
  8
Shape2243
100
AcDbLine
 10
378.175
 20
53.9686
 30
0
 11
399.5
 21
53.9686
 31
0
  0
ARC
  5
AC2
330
A02
100
AcDbEntity
  8
Shape2244
100
AcDbCircle
 10
399.5
 20
51.9686
 30
0
 40
2
100
AcDbArc
 50
0
 51
90
  0
LINE
  5
AC3
330
A02
100
AcDbEntity
  8
Shape2245
100
AcDbLine
 10
401.5
 20
51.9686
 30
0
 11
401.5
 21
-20.4314
 31
0
  0
ARC
  5
AC4
330
A02
100
AcDbEntity
  8
Shape2246
100
AcDbCircle
 10
399.5
 20
-20.4314
 30
0
 40
2
100
AcDbArc
 50
-90
 51
0
  0
LINE
  5
AC5
330
A02
100
AcDbEntity
  8
Shape2247
100
AcDbLine
 10
399.5
 20
-22.4314
 30
0
 11
378.175
 21
-22.4314
 31
0
  0
ARC
  5
AC6
330
A02
100
AcDbEntity
  8
Shape2248
100
AcDbCircle
 10
378.175
 20
-22.9314
 30
0
 40
0.5
100
AcDbArc
 50
90
 51
180
  0
LINE
  5
AC7
330
A02
100
AcDbEntity
  8
Shape2249
100
AcDbLine
 10
377.675
 20
-22.9314
 30
0
 11
377.675
 21
-23.1805
 31
0
  0
ARC
  5
AC8
330
A02
100
AcDbEntity
  8
Shape2250
100
AcDbCircle
 10
378.175
 20
-23.1805
 30
0
 40
0.5
100
AcDbArc
 50
180
 51
-90
  0
LINE
  5
AC9
330
A02
100
AcDbEntity
  8
Shape2251
100
AcDbLine
 10
378.175
 20
-23.6805
 30
0
 11
388.675
 21
-23.6805
 31
0
  0
ARC
  5
ACA
330
A02
100
AcDbEntity
  8
Shape2252
100
AcDbCircle
 10
388.675
 20
-24.6805
 30
0
 40
1
100
AcDbArc
 50
0
 51
90
  0
LINE
  5
ACB
330
A02
100
AcDbEntity
  8
Shape2253
100
AcDbLine
 10
389.675
 20
-24.6805
 30
0
 11
389.675
 21
-26.1805
 31
0
  0
ARC
  5
ACC
330
A02
100
AcDbEntity
  8
Shape2254
100
AcDbCircle
 10
388.675
 20
-26.1805
 30
0
 40
1
100
AcDbArc
 50
-90
 51
0
  0
LINE
  5
ACD
330
A02
100
AcDbEntity
  8
Shape2255
100
AcDbLine
 10
388.675
 20
-27.1805
 30
0
 11
370.675
 21
-27.1805
 31
0
  0
LINE
  5
ACE
330
A02
100
AcDbEntity
  8
Shape2256
100
AcDbLine
 10
370.675
 20
-27.1805
 30
0
 11
370.675
 21
-21.9305
 31
0
  0
ARC
  5
ACF
330
A02
100
AcDbEntity
  8
Shape2257
100
AcDbCircle
 10
370.175
 20
-21.9305
 30
0
 40
0.5
100
AcDbArc
 50
0
 51
180
  0
LINE
  5
AD0
330
A02
100
AcDbEntity
  8
Shape2258
100
AcDbLine
 10
369.675
 20
-21.9305
 30
0
 11
369.675
 21
-25.9305
 31
0
  0
ARC
  5
AD1
330
A02
100
AcDbEntity
  8
Shape2259
100
AcDbCircle
 10
367.675
 20
-25.9305
 30
0
 40
2
100
AcDbArc
 50
180
 51
0
  0
LINE
  5
AD2
330
A02
100
AcDbEntity
  8
Shape2260
100
AcDbLine
 10
365.675
 20
-25.9305
 30
0
 11
365.675
 21
-21.9305
 31
0
  0
ARC
  5
AD3
330
A02
100
AcDbEntity
  8
Shape2261
100
AcDbCircle
 10
365.175
 20
-21.9305
 30
0
 40
0.5
100
AcDbArc
 50
0
 51
180
  0
LINE
  5
AD4
330
A02
100
AcDbEntity
  8
Shape2262
100
AcDbLine
 10
364.675
 20
-21.9305
 30
0
 11
364.675
 21
-27.1805
 31
0
  0
LINE
  5
AD5
330
A02
100
AcDbEntity
  8
Shape2263
100
AcDbLine
 10
364.675
 20
-27.1805
 30
0
 11
346.675
 21
-27.1805
 31
0
  0
ARC
  5
AD6
330
A02
100
AcDbEntity
  8
Shape2264
100
AcDbCircle
 10
346.675
 20
-26.1805
 30
0
 40
1
100
AcDbArc
 50
180
 51
-90
  0
LINE
  5
AD7
330
A02
100
AcDbEntity
  8
Shape2265
100
AcDbLine
 10
345.675
 20
-26.1805
 30
0
 11
345.675
 21
-24.6805
 31
0
  0
ARC
  5
AD8
330
A02
100
AcDbEntity
  8
Shape2266
100
AcDbCircle
 10
346.675
 20
-24.6805
 30
0
 40
1
100
AcDbArc
 50
90
 51
180
  0
LINE
  5
AD9
330
A02
100
AcDbEntity
  8
Shape2267
100
AcDbLine
 10
346.675
 20
-23.6805
 30
0
 11
357.175
 21
-23.6805
 31
0
  0
ARC
  5
ADA
330
A02
100
AcDbEntity
  8
Shape2268
100
AcDbCircle
 10
357.175
 20
-23.1805
 30
0
 40
0.5
100
AcDbArc
 50
-90
 51
0
  0
LINE
  5
ADB
330
A02
100
AcDbEntity
  8
Shape2269
100
AcDbLine
 10
357.675
 20
-23.1805
 30
0
 11
357.675
 21
-22.9314
 31
0
  0
ARC
  5
ADC
330
A02
100
AcDbEntity
  8
Shape2270
100
AcDbCircle
 10
357.175
 20
-22.9314
 30
0
 40
0.5
100
AcDbArc
 50
0
 51
90
  0
LINE
  5
ADD
330
A02
100
AcDbEntity
  8
Shape2271
100
AcDbLine
 10
357.175
 20
-22.4314
 30
0
 11
288.175
 21
-22.4314
 31
0
  0
ARC
  5
ADE
330
A02
100
AcDbEntity
  8
Shape2272
100
AcDbCircle
 10
288.175
 20
-22.9314
 30
0
 40
0.5
100
AcDbArc
 50
90
 51
180
  0
LINE
  5
ADF
330
A02
100
AcDbEntity
  8
Shape2273
100
AcDbLine
 10
287.675
 20
-22.9314
 30
0
 11
287.675
 21
-23.1805
 31
0
  0
ARC
  5
AE0
330
A02
100
AcDbEntity
  8
Shape2274
100
AcDbCircle
 10
288.175
 20
-23.1805
 30
0
 40
0.5
100
AcDbArc
 50
180
 51
-90
  0
LINE
  5
AE1
330
A02
100
AcDbEntity
  8
Shape2275
100
AcDbLine
 10
288.175
 20
-23.6805
 30
0
 11
298.675
 21
-23.6805
 31
0
  0
ARC
  5
AE2
330
A02
100
AcDbEntity
  8
Shape2276
100
AcDbCircle
 10
298.675
 20
-24.6805
 30
0
 40
1
100
AcDbArc
 50
0
 51
90
  0
LINE
  5
AE3
330
A02
100
AcDbEntity
  8
Shape2277
100
AcDbLine
 10
299.675
 20
-24.6805
 30
0
 11
299.675
 21
-26.1805
 31
0
  0
ARC
  5
AE4
330
A02
100
AcDbEntity
  8
Shape2278
100
AcDbCircle
 10
298.675
 20
-26.1805
 30
0
 40
1
100
AcDbArc
 50
-90
 51
0
  0
LINE
  5
AE5
330
A02
100
AcDbEntity
  8
Shape2279
100
AcDbLine
 10
298.675
 20
-27.1805
 30
0
 11
280.675
 21
-27.1805
 31
0
  0
LINE
  5
AE6
330
A02
100
AcDbEntity
  8
Shape2280
100
AcDbLine
 10
280.675
 20
-27.1805
 30
0
 11
280.675
 21
-21.9305
 31
0
  0
ARC
  5
AE7
330
A02
100
AcDbEntity
  8
Shape2281
100
AcDbCircle
 10
280.175
 20
-21.9305
 30
0
 40
0.5
100
AcDbArc
 50
0
 51
180
  0
LINE
  5
AE8
330
A02
100
AcDbEntity
  8
Shape2282
100
AcDbLine
 10
279.675
 20
-21.9305
 30
0
 11
279.675
 21
-25.9305
 31
0
  0
ARC
  5
AE9
330
A02
100
AcDbEntity
  8
Shape2283
100
AcDbCircle
 10
277.675
 20
-25.9305
 30
0
 40
2
100
AcDbArc
 50
180
 51
0
  0
LINE
  5
AEA
330
A02
100
AcDbEntity
  8
Shape2284
100
AcDbLine
 10
275.675
 20
-25.9305
 30
0
 11
275.675
 21
-21.9305
 31
0
  0
ARC
  5
AEB
330
A02
100
AcDbEntity
  8
Shape2285
100
AcDbCircle
 10
275.175
 20
-21.9305
 30
0
 40
0.5
100
AcDbArc
 50
0
 51
180
  0
LINE
  5
AEC
330
A02
100
AcDbEntity
  8
Shape2286
100
AcDbLine
 10
274.675
 20
-21.9305
 30
0
 11
274.675
 21
-27.1805
 31
0
  0
LINE
  5
AED
330
A02
100
AcDbEntity
  8
Shape2287
100
AcDbLine
 10
274.675
 20
-27.1805
 30
0
 11
256.675
 21
-27.1805
 31
0
  0
ARC
  5
AEE
330
A02
100
AcDbEntity
  8
Shape2288
100
AcDbCircle
 10
256.675
 20
-26.1805
 30
0
 40
1
100
AcDbArc
 50
180
 51
-90
  0
LINE
  5
AEF
330
A02
100
AcDbEntity
  8
Shape2289
100
AcDbLine
 10
255.675
 20
-26.1805
 30
0
 11
255.675
 21
-24.6805
 31
0
  0
ARC
  5
AF0
330
A02
100
AcDbEntity
  8
Shape2290
100
AcDbCircle
 10
256.675
 20
-24.6805
 30
0
 40
1
100
AcDbArc
 50
90
 51
180
  0
LINE
  5
AF1
330
A02
100
AcDbEntity
  8
Shape2291
100
AcDbLine
 10
256.675
 20
-23.6805
 30
0
 11
267.175
 21
-23.6805
 31
0
  0
ARC
  5
AF2
330
A02
100
AcDbEntity
  8
Shape2292
100
AcDbCircle
 10
267.175
 20
-23.1805
 30
0
 40
0.5
100
AcDbArc
 50
-90
 51
0
  0
LINE
  5
AF3
330
A02
100
AcDbEntity
  8
Shape2293
100
AcDbLine
 10
267.675
 20
-23.1805
 30
0
 11
267.675
 21
-22.9314
 31
0
  0
ARC
  5
AF4
330
A02
100
AcDbEntity
  8
Shape2294
100
AcDbCircle
 10
267.175
 20
-22.9314
 30
0
 40
0.5
100
AcDbArc
 50
0
 51
90
  0
LINE
  5
AF5
330
A02
100
AcDbEntity
  8
Shape2295
100
AcDbLine
 10
267.175
 20
-22.4314
 30
0
 11
198.175
 21
-22.4314
 31
0
  0
ARC
  5
AF6
330
A02
100
AcDbEntity
  8
Shape2296
100
AcDbCircle
 10
198.175
 20
-22.9314
 30
0
 40
0.5
100
AcDbArc
 50
90
 51
180
  0
LINE
  5
AF7
330
A02
100
AcDbEntity
  8
Shape2297
100
AcDbLine
 10
197.675
 20
-22.9314
 30
0
 11
197.675
 21
-23.1805
 31
0
  0
ARC
  5
AF8
330
A02
100
AcDbEntity
  8
Shape2298
100
AcDbCircle
 10
198.175
 20
-23.1805
 30
0
 40
0.5
100
AcDbArc
 50
180
 51
-90
  0
LINE
  5
AF9
330
A02
100
AcDbEntity
  8
Shape2299
100
AcDbLine
 10
198.175
 20
-23.6805
 30
0
 11
208.675
 21
-23.6805
 31
0
  0
ARC
  5
AFA
330
A02
100
AcDbEntity
  8
Shape2300
100
AcDbCircle
 10
208.675
 20
-24.6805
 30
0
 40
1
100
AcDbArc
 50
0
 51
90
  0
LINE
  5
AFB
330
A02
100
AcDbEntity
  8
Shape2301
100
AcDbLine
 10
209.675
 20
-24.6805
 30
0
 11
209.675
 21
-26.1805
 31
0
  0
ARC
  5
AFC
330
A02
100
AcDbEntity
  8
Shape2302
100
AcDbCircle
 10
208.675
 20
-26.1805
 30
0
 40
1
100
AcDbArc
 50
-90
 51
0
  0
LINE
  5
AFD
330
A02
100
AcDbEntity
  8
Shape2303
100
AcDbLine
 10
208.675
 20
-27.1805
 30
0
 11
190.675
 21
-27.1805
 31
0
  0
LINE
  5
AFE
330
A02
100
AcDbEntity
  8
Shape2304
100
AcDbLine
 10
190.675
 20
-27.1805
 30
0
 11
190.675
 21
-21.9305
 31
0
  0
ARC
  5
AFF
330
A02
100
AcDbEntity
  8
Shape2305
100
AcDbCircle
 10
190.175
 20
-21.9305
 30
0
 40
0.5
100
AcDbArc
 50
0
 51
180
  0
LINE
  5
B00
330
A02
100
AcDbEntity
  8
Shape2306
100
AcDbLine
 10
189.675
 20
-21.9305
 30
0
 11
189.675
 21
-25.9305
 31
0
  0
ARC
  5
B01
330
A02
100
AcDbEntity
  8
Shape2307
100
AcDbCircle
 10
187.675
 20
-25.9305
 30
0
 40
2
100
AcDbArc
 50
180
 51
0
  0
LINE
  5
B02
330
A02
100
AcDbEntity
  8
Shape2308
100
AcDbLine
 10
185.675
 20
-25.9305
 30
0
 11
185.675
 21
-21.9305
 31
0
  0
ARC
  5
B03
330
A02
100
AcDbEntity
  8
Shape2309
100
AcDbCircle
 10
185.175
 20
-21.9305
 30
0
 40
0.5
100
AcDbArc
 50
0
 51
180
  0
LINE
  5
B04
330
A02
100
AcDbEntity
  8
Shape2310
100
AcDbLine
 10
184.675
 20
-21.9305
 30
0
 11
184.675
 21
-27.1805
 31
0
  0
LINE
  5
B05
330
A02
100
AcDbEntity
  8
Shape2311
100
AcDbLine
 10
184.675
 20
-27.1805
 30
0
 11
166.675
 21
-27.1805
 31
0
  0
ARC
  5
B06
330
A02
100
AcDbEntity
  8
Shape2312
100
AcDbCircle
 10
166.675
 20
-26.1805
 30
0
 40
1
100
AcDbArc
 50
180
 51
-90
  0
LINE
  5
B07
330
A02
100
AcDbEntity
  8
Shape2313
100
AcDbLine
 10
165.675
 20
-26.1805
 30
0
 11
165.675
 21
-24.6805
 31
0
  0
ARC
  5
B08
330
A02
100
AcDbEntity
  8
Shape2314
100
AcDbCircle
 10
166.675
 20
-24.6805
 30
0
 40
1
100
AcDbArc
 50
90
 51
180
  0
LINE
  5
B09
330
A02
100
AcDbEntity
  8
Shape2315
100
AcDbLine
 10
166.675
 20
-23.6805
 30
0
 11
177.175
 21
-23.6805
 31
0
  0
ARC
  5
B0A
330
A02
100
AcDbEntity
  8
Shape2316
100
AcDbCircle
 10
177.175
 20
-23.1805
 30
0
 40
0.5
100
AcDbArc
 50
-90
 51
0
  0
LINE
  5
B0B
330
A02
100
AcDbEntity
  8
Shape2317
100
AcDbLine
 10
177.675
 20
-23.1805
 30
0
 11
177.675
 21
-22.9314
 31
0
  0
ARC
  5
B0C
330
A02
100
AcDbEntity
  8
Shape2318
100
AcDbCircle
 10
177.175
 20
-22.9314
 30
0
 40
0.5
100
AcDbArc
 50
0
 51
90
  0
LINE
  5
B0D
330
A02
100
AcDbEntity
  8
Shape2319
100
AcDbLine
 10
177.175
 20
-22.4314
 30
0
 11
155.85
 21
-22.4314
 31
0
  0
ARC
  5
B0E
330
A02
100
AcDbEntity
  8
Shape2320
100
AcDbCircle
 10
155.85
 20
-20.4314
 30
0
 40
2
100
AcDbArc
 50
180
 51
-90
  0
LINE
  5
B0F
330
A02
100
AcDbEntity
  8
Shape2321
100
AcDbLine
 10
153.85
 20
-20.4314
 30
0
 11
153.85
 21
51.9686
 31
0
  0
ARC
  5
B10
330
A02
100
AcDbEntity
  8
Shape2322
100
AcDbCircle
 10
155.85
 20
51.9686
 30
0
 40
2
100
AcDbArc
 50
90
 51
180
  0
LINE
  5
B11
330
A02
100
AcDbEntity
  8
Shape2323
100
AcDbLine
 10
155.85
 20
53.9686
 30
0
 11
177.175
 21
53.9686
 31
0
  0
ARC
  5
B12
330
A02
100
AcDbEntity
  8
Shape2324
100
AcDbCircle
 10
177.175
 20
54.4686
 30
0
 40
0.5
100
AcDbArc
 50
-90
 51
0
  0
LINE
  5
B13
330
A02
100
AcDbEntity
  8
Shape2325
100
AcDbLine
 10
177.675
 20
54.4686
 30
0
 11
177.675
 21
54.7177
 31
0
  0
ARC
  5
B14
330
A02
100
AcDbEntity
  8
Shape2326
100
AcDbCircle
 10
177.175
 20
54.7177
 30
0
 40
0.5
100
AcDbArc
 50
0
 51
90
  0
LINE
  5
B15
330
A02
100
AcDbEntity
  8
Shape2327
100
AcDbLine
 10
177.175
 20
55.2177
 30
0
 11
166.675
 21
55.2177
 31
0
  0
ARC
  5
B16
330
A02
100
AcDbEntity
  8
Shape2328
100
AcDbCircle
 10
166.675
 20
56.2177
 30
0
 40
1
100
AcDbArc
 50
180
 51
-90
  0
LINE
  5
B17
330
A02
100
AcDbEntity
  8
Shape2329
100
AcDbLine
 10
165.675
 20
56.2177
 30
0
 11
165.675
 21
57.7177
 31
0
  0
ARC
  5
B18
330
A02
100
AcDbEntity
  8
Shape2330
100
AcDbCircle
 10
166.675
 20
57.7177
 30
0
 40
1
100
AcDbArc
 50
90
 51
180
  0
LINE
  5
B19
330
A02
100
AcDbEntity
  8
Shape2331
100
AcDbLine
 10
166.675
 20
58.7177
 30
0
 11
184.675
 21
58.7177
 31
0
  0
LINE
  5
B1A
330
A02
100
AcDbEntity
  8
Shape2332
100
AcDbLine
 10
184.675
 20
58.7177
 30
0
 11
184.675
 21
53.4677
 31
0
  0
ARC
  5
B1B
330
A02
100
AcDbEntity
  8
Shape2333
100
AcDbCircle
 10
185.175
 20
53.4677
 30
0
 40
0.5
100
AcDbArc
 50
180
 51
0
  0
LINE
  5
B1C
330
A02
100
AcDbEntity
  8
Shape2334
100
AcDbLine
 10
185.675
 20
53.4677
 30
0
 11
185.675
 21
57.4677
 31
0
  0
ARC
  5
B1D
330
A02
100
AcDbEntity
  8
Shape2335
100
AcDbCircle
 10
187.675
 20
57.4677
 30
0
 40
2
100
AcDbArc
 50
0
 51
180
  0
LINE
  5
B1E
330
A02
100
AcDbEntity
  8
Shape2336
100
AcDbLine
 10
189.675
 20
57.4677
 30
0
 11
189.675
 21
53.4677
 31
0
  0
ARC
  5
B1F
330
A02
100
AcDbEntity
  8
Shape2337
100
AcDbCircle
 10
190.175
 20
53.4677
 30
0
 40
0.5
100
AcDbArc
 50
180
 51
0
  0
LINE
  5
B20
330
A02
100
AcDbEntity
  8
Shape2338
100
AcDbLine
 10
190.675
 20
53.4677
 30
0
 11
190.675
 21
58.7177
 31
0
  0
LINE
  5
B21
330
A02
100
AcDbEntity
  8
Shape2339
100
AcDbLine
 10
190.675
 20
58.7177
 30
0
 11
208.675
 21
58.7177
 31
0
  0
ARC
  5
B22
330
A02
100
AcDbEntity
  8
Shape2340
100
AcDbCircle
 10
208.675
 20
57.7177
 30
0
 40
1
100
AcDbArc
 50
0
 51
90
  0
LINE
  5
B23
330
A02
100
AcDbEntity
  8
Shape2341
100
AcDbLine
 10
209.675
 20
57.7177
 30
0
 11
209.675
 21
56.2177
 31
0
  0
ARC
  5
B24
330
A02
100
AcDbEntity
  8
Shape2342
100
AcDbCircle
 10
208.675
 20
56.2177
 30
0
 40
1
100
AcDbArc
 50
-90
 51
0
  0
LINE
  5
B25
330
A02
100
AcDbEntity
  8
Shape2343
100
AcDbLine
 10
208.675
 20
55.2177
 30
0
 11
198.175
 21
55.2177
 31
0
  0
ARC
  5
B26
330
A02
100
AcDbEntity
  8
Shape2344
100
AcDbCircle
 10
198.175
 20
54.7177
 30
0
 40
0.5
100
AcDbArc
 50
90
 51
180
  0
LINE
  5
B27
330
A02
100
AcDbEntity
  8
Shape2345
100
AcDbLine
 10
197.675
 20
54.7177
 30
0
 11
197.675
 21
54.4686
 31
0
  0
ARC
  5
B28
330
A02
100
AcDbEntity
  8
Shape2346
100
AcDbCircle
 10
198.175
 20
54.4686
 30
0
 40
0.5
100
AcDbArc
 50
180
 51
-90
  0
LINE
  5
B29
330
A02
100
AcDbEntity
  8
Shape2347
100
AcDbLine
 10
198.175
 20
53.9686
 30
0
 11
267.175
 21
53.9686
 31
0
  0
ARC
  5
B2A
330
A02
100
AcDbEntity
  8
Shape2348
100
AcDbCircle
 10
267.175
 20
54.4686
 30
0
 40
0.5
100
AcDbArc
 50
-90
 51
0
  0
LINE
  5
B2B
330
A02
100
AcDbEntity
  8
Shape2349
100
AcDbLine
 10
267.675
 20
54.4686
 30
0
 11
267.675
 21
54.7177
 31
0
  0
ARC
  5
B2C
330
A02
100
AcDbEntity
  8
Shape2350
100
AcDbCircle
 10
267.175
 20
54.7177
 30
0
 40
0.5
100
AcDbArc
 50
0
 51
90
  0
LINE
  5
B2D
330
A02
100
AcDbEntity
  8
Shape2351
100
AcDbLine
 10
267.175
 20
55.2177
 30
0
 11
256.675
 21
55.2177
 31
0
  0
ARC
  5
B2E
330
A02
100
AcDbEntity
  8
Shape2352
100
AcDbCircle
 10
256.675
 20
56.2177
 30
0
 40
1
100
AcDbArc
 50
180
 51
-90
  0
LINE
  5
B2F
330
A02
100
AcDbEntity
  8
Shape2353
100
AcDbLine
 10
255.675
 20
56.2177
 30
0
 11
255.675
 21
57.7177
 31
0
  0
ARC
  5
B30
330
A02
100
AcDbEntity
  8
Shape2354
100
AcDbCircle
 10
256.675
 20
57.7177
 30
0
 40
1
100
AcDbArc
 50
90
 51
180
  0
LINE
  5
B31
330
A02
100
AcDbEntity
  8
Shape2355
100
AcDbLine
 10
256.675
 20
58.7177
 30
0
 11
274.675
 21
58.7177
 31
0
  0
LINE
  5
B32
330
A02
100
AcDbEntity
  8
Shape2356
100
AcDbLine
 10
274.675
 20
58.7177
 30
0
 11
274.675
 21
53.4677
 31
0
  0
ARC
  5
B33
330
A02
100
AcDbEntity
  8
Shape2357
100
AcDbCircle
 10
275.175
 20
53.4677
 30
0
 40
0.5
100
AcDbArc
 50
180
 51
0
  0
LINE
  5
B34
330
A02
100
AcDbEntity
  8
Shape2358
100
AcDbLine
 10
275.675
 20
53.4677
 30
0
 11
275.675
 21
57.4677
 31
0
  0
ARC
  5
B35
330
A02
100
AcDbEntity
  8
Shape2359
100
AcDbCircle
 10
277.675
 20
57.4677
 30
0
 40
2
100
AcDbArc
 50
0
 51
180
  0
LINE
  5
B36
330
A02
100
AcDbEntity
  8
Shape2360
100
AcDbLine
 10
279.675
 20
57.4677
 30
0
 11
279.675
 21
53.4677
 31
0
  0
ARC
  5
B37
330
A02
100
AcDbEntity
  8
Shape2361
100
AcDbCircle
 10
280.175
 20
53.4677
 30
0
 40
0.5
100
AcDbArc
 50
180
 51
0
  0
LINE
  5
B38
330
A02
100
AcDbEntity
  8
Shape2362
100
AcDbLine
 10
280.675
 20
53.4677
 30
0
 11
280.675
 21
58.7177
 31
0
  0
LINE
  5
B39
330
A02
100
AcDbEntity
  8
Shape2363
100
AcDbLine
 10
280.675
 20
58.7177
 30
0
 11
298.675
 21
58.7177
 31
0
  0
ARC
  5
B3A
330
A02
100
AcDbEntity
  8
Shape2364
100
AcDbCircle
 10
298.675
 20
57.7177
 30
0
 40
1
100
AcDbArc
 50
0
 51
90
  0
LINE
  5
B3B
330
A02
100
AcDbEntity
  8
Shape2365
100
AcDbLine
 10
299.675
 20
57.7177
 30
0
 11
299.675
 21
56.2177
 31
0
  0
CIRCLE
  5
B3C
330
A02
100
AcDbEntity
  8
Shape2366
100
AcDbCircle
 10
367.675
 20
57.4677
 40
1.1
  0
CIRCLE
  5
B3D
330
A02
100
AcDbEntity
  8
Shape2367
100
AcDbCircle
 10
277.675
 20
57.4677
 40
1.1
  0
CIRCLE
  5
B3E
330
A02
100
AcDbEntity
  8
Shape2368
100
AcDbCircle
 10
187.675
 20
57.4677
 40
1.1
  0
CIRCLE
  5
B3F
330
A02
100
AcDbEntity
  8
Shape2369
100
AcDbCircle
 10
367.675
 20
-25.9305
 40
1.1
  0
CIRCLE
  5
B40
330
A02
100
AcDbEntity
  8
Shape2370
100
AcDbCircle
 10
277.675
 20
-25.9305
 40
1.1
  0
CIRCLE
  5
B41
330
A02
100
AcDbEntity
  8
Shape2371
100
AcDbCircle
 10
187.675
 20
-25.9305
 40
1.1
  0
LINE
  5
B42
330
A02
100
AcDbEntity
  8
Shape3810
100
AcDbLine
 10
242.099
 20
-19.3567
 30
0
 11
242.099
 21
-15.1563
 31
0
  0
LINE
  5
B43
330
A02
100
AcDbEntity
  8
Shape3811
100
AcDbLine
 10
242.099
 20
-15.1563
 30
0
 11
233.424
 21
-15.1563
 31
0
  0
LINE
  5
B44
330
A02
100
AcDbEntity
  8
Shape3812
100
AcDbLine
 10
233.424
 20
-15.1563
 30
0
 11
233.424
 21
-18.3865
 31
0
  0
LINE
  5
B45
330
A02
100
AcDbEntity
  8
Shape3813
100
AcDbLine
 10
233.424
 20
-18.3865
 30
0
 11
226.673
 21
-18.3865
 31
0
  0
LINE
  5
B46
330
A02
100
AcDbEntity
  8
Shape3814
100
AcDbLine
 10
226.673
 20
-18.3865
 30
0
 11
226.673
 21
-15.1563
 31
0
  0
LINE
  5
B47
330
A02
100
AcDbEntity
  8
Shape3815
100
AcDbLine
 10
226.673
 20
-15.1563
 30
0
 11
225.849
 21
-15.1563
 31
0
  0
LINE
  5
B48
330
A02
100
AcDbEntity
  8
Shape3816
100
AcDbLine
 10
225.849
 20
-15.1563
 30
0
 11
225.849
 21
-12.3575
 31
0
  0
LINE
  5
B49
330
A02
100
AcDbEntity
  8
Shape3817
100
AcDbLine
 10
225.849
 20
-12.3575
 30
0
 11
226.673
 21
-12.3575
 31
0
  0
LINE
  5
B4A
330
A02
100
AcDbEntity
  8
Shape3818
100
AcDbLine
 10
226.673
 20
-12.3575
 30
0
 11
226.673
 21
-6.08753
 31
0
  0
LINE
  5
B4B
330
A02
100
AcDbEntity
  8
Shape3819
100
AcDbLine
 10
226.673
 20
-6.08753
 30
0
 11
228.399
 21
-6.08753
 31
0
  0
LINE
  5
B4C
330
A02
100
AcDbEntity
  8
Shape3820
100
AcDbLine
 10
228.399
 20
-6.08753
 30
0
 11
228.399
 21
-4.88723
 31
0
  0
LINE
  5
B4D
330
A02
100
AcDbEntity
  8
Shape3821
100
AcDbLine
 10
228.399
 20
-4.88723
 30
0
 11
231.699
 21
-4.88723
 31
0
  0
LINE
  5
B4E
330
A02
100
AcDbEntity
  8
Shape3822
100
AcDbLine
 10
231.699
 20
-4.88723
 30
0
 11
231.699
 21
-6.08753
 31
0
  0
LINE
  5
B4F
330
A02
100
AcDbEntity
  8
Shape3823
100
AcDbLine
 10
231.699
 20
-6.08753
 30
0
 11
233.424
 21
-6.08753
 31
0
  0
LINE
  5
B50
330
A02
100
AcDbEntity
  8
Shape3824
100
AcDbLine
 10
233.424
 20
-6.08753
 30
0
 11
233.424
 21
-10.5564
 31
0
  0
LINE
  5
B51
330
A02
100
AcDbEntity
  8
Shape3825
100
AcDbLine
 10
233.424
 20
-10.5564
 30
0
 11
242.099
 21
-10.5564
 31
0
  0
LINE
  5
B52
330
A02
100
AcDbEntity
  8
Shape3826
100
AcDbLine
 10
242.099
 20
-10.5564
 30
0
 11
242.099
 21
-6.35733
 31
0
  0
LINE
  5
B53
330
A02
100
AcDbEntity
  8
Shape3827
100
AcDbLine
 10
242.599
 20
-5.85733
 30
0
 11
255.598
 21
-5.85733
 31
0
  0
ARC
  5
B54
330
A02
100
AcDbEntity
  8
Shape3828
100
AcDbCircle
 10
242.599
 20
-6.35733
 30
0
 40
0.5
100
AcDbArc
 50
90
 51
180
  0
ARC
  5
B55
330
A02
100
AcDbEntity
  8
Shape3829
100
AcDbCircle
 10
255.598
 20
-6.35733
 30
0
 40
0.5
100
AcDbArc
 50
0
 51
90
  0
LINE
  5
B56
330
A02
100
AcDbEntity
  8
Shape3830
100
AcDbLine
 10
256.098
 20
-6.35733
 30
0
 11
256.098
 21
-10.5564
 31
0
  0
LINE
  5
B57
330
A02
100
AcDbEntity
  8
Shape3831
100
AcDbLine
 10
256.098
 20
-10.5564
 30
0
 11
264.773
 21
-10.5564
 31
0
  0
LINE
  5
B58
330
A02
100
AcDbEntity
  8
Shape3832
100
AcDbLine
 10
264.773
 20
-10.5564
 30
0
 11
264.773
 21
-6.08753
 31
0
  0
LINE
  5
B59
330
A02
100
AcDbEntity
  8
Shape3833
100
AcDbLine
 10
264.773
 20
-6.08753
 30
0
 11
266.498
 21
-6.08753
 31
0
  0
LINE
  5
B5A
330
A02
100
AcDbEntity
  8
Shape3834
100
AcDbLine
 10
266.498
 20
-6.08753
 30
0
 11
266.498
 21
-4.88723
 31
0
  0
LINE
  5
B5B
330
A02
100
AcDbEntity
  8
Shape3835
100
AcDbLine
 10
266.498
 20
-4.88723
 30
0
 11
269.798
 21
-4.88723
 31
0
  0
LINE
  5
B5C
330
A02
100
AcDbEntity
  8
Shape3836
100
AcDbLine
 10
269.798
 20
-4.88723
 30
0
 11
269.798
 21
-6.08753
 31
0
  0
LINE
  5
B5D
330
A02
100
AcDbEntity
  8
Shape3837
100
AcDbLine
 10
269.798
 20
-6.08753
 30
0
 11
271.524
 21
-6.08753
 31
0
  0
LINE
  5
B5E
330
A02
100
AcDbEntity
  8
Shape3838
100
AcDbLine
 10
271.524
 20
-6.08753
 30
0
 11
271.524
 21
-12.3575
 31
0
  0
LINE
  5
B5F
330
A02
100
AcDbEntity
  8
Shape3839
100
AcDbLine
 10
271.524
 20
-12.3575
 30
0
 11
272.348
 21
-12.3575
 31
0
  0
LINE
  5
B60
330
A02
100
AcDbEntity
  8
Shape3840
100
AcDbLine
 10
272.348
 20
-12.3575
 30
0
 11
272.348
 21
-15.1563
 31
0
  0
LINE
  5
B61
330
A02
100
AcDbEntity
  8
Shape3841
100
AcDbLine
 10
272.348
 20
-15.1563
 30
0
 11
271.524
 21
-15.1563
 31
0
  0
LINE
  5
B62
330
A02
100
AcDbEntity
  8
Shape3842
100
AcDbLine
 10
271.524
 20
-15.1563
 30
0
 11
271.524
 21
-18.3865
 31
0
  0
LINE
  5
B63
330
A02
100
AcDbEntity
  8
Shape3843
100
AcDbLine
 10
271.524
 20
-18.3865
 30
0
 11
264.773
 21
-18.3865
 31
0
  0
LINE
  5
B64
330
A02
100
AcDbEntity
  8
Shape3844
100
AcDbLine
 10
264.773
 20
-18.3865
 30
0
 11
264.773
 21
-15.1563
 31
0
  0
LINE
  5
B65
330
A02
100
AcDbEntity
  8
Shape3845
100
AcDbLine
 10
264.773
 20
-15.1563
 30
0
 11
256.098
 21
-15.1563
 31
0
  0
LINE
  5
B66
330
A02
100
AcDbEntity
  8
Shape3846
100
AcDbLine
 10
256.098
 20
-15.1563
 30
0
 11
256.098
 21
-19.3567
 31
0
  0
ARC
  5
B67
330
A02
100
AcDbEntity
  8
Shape3847
100
AcDbCircle
 10
255.598
 20
-19.3567
 30
0
 40
0.5
100
AcDbArc
 50
-90
 51
0
  0
LINE
  5
B68
330
A02
100
AcDbEntity
  8
Shape3848
100
AcDbLine
 10
255.598
 20
-19.8567
 30
0
 11
242.599
 21
-19.8567
 31
0
  0
ARC
  5
B69
330
A02
100
AcDbEntity
  8
Shape3849
100
AcDbCircle
 10
242.599
 20
-19.3567
 30
0
 40
0.5
100
AcDbArc
 50
180
 51
-90
  0
LINE
  5
B6A
330
A02
100
AcDbEntity
  8
Shape3850
100
AcDbLine
 10
299.249
 20
-19.3567
 30
0
 11
299.249
 21
-15.1563
 31
0
  0
ARC
  5
B6B
330
A02
100
AcDbEntity
  8
Shape3851
100
AcDbCircle
 10
299.749
 20
-19.3567
 30
0
 40
0.5
100
AcDbArc
 50
180
 51
-90
  0
LINE
  5
B6C
330
A02
100
AcDbEntity
  8
Shape3852
100
AcDbLine
 10
299.249
 20
-15.1563
 30
0
 11
290.574
 21
-15.1563
 31
0
  0
LINE
  5
B6D
330
A02
100
AcDbEntity
  8
Shape3853
100
AcDbLine
 10
290.574
 20
-15.1563
 30
0
 11
290.574
 21
-18.3865
 31
0
  0
LINE
  5
B6E
330
A02
100
AcDbEntity
  8
Shape3854
100
AcDbLine
 10
290.574
 20
-18.3865
 30
0
 11
283.823
 21
-18.3865
 31
0
  0
LINE
  5
B6F
330
A02
100
AcDbEntity
  8
Shape3855
100
AcDbLine
 10
283.823
 20
-18.3865
 30
0
 11
283.823
 21
-15.1563
 31
0
  0
LINE
  5
B70
330
A02
100
AcDbEntity
  8
Shape3856
100
AcDbLine
 10
283.823
 20
-15.1563
 30
0
 11
282.999
 21
-15.1563
 31
0
  0
LINE
  5
B71
330
A02
100
AcDbEntity
  8
Shape3857
100
AcDbLine
 10
282.999
 20
-15.1563
 30
0
 11
282.999
 21
-12.3575
 31
0
  0
LINE
  5
B72
330
A02
100
AcDbEntity
  8
Shape3858
100
AcDbLine
 10
282.999
 20
-12.3575
 30
0
 11
283.823
 21
-12.3575
 31
0
  0
LINE
  5
B73
330
A02
100
AcDbEntity
  8
Shape3859
100
AcDbLine
 10
283.823
 20
-12.3575
 30
0
 11
283.823
 21
-6.08753
 31
0
  0
LINE
  5
B74
330
A02
100
AcDbEntity
  8
Shape3860
100
AcDbLine
 10
283.823
 20
-6.08753
 30
0
 11
285.548
 21
-6.08753
 31
0
  0
LINE
  5
B75
330
A02
100
AcDbEntity
  8
Shape3861
100
AcDbLine
 10
285.548
 20
-6.08753
 30
0
 11
285.548
 21
-4.88723
 31
0
  0
LINE
  5
B76
330
A02
100
AcDbEntity
  8
Shape3862
100
AcDbLine
 10
285.548
 20
-4.88723
 30
0
 11
288.848
 21
-4.88723
 31
0
  0
LINE
  5
B77
330
A02
100
AcDbEntity
  8
Shape3863
100
AcDbLine
 10
288.848
 20
-4.88723
 30
0
 11
288.848
 21
-6.08753
 31
0
  0
LINE
  5
B78
330
A02
100
AcDbEntity
  8
Shape3864
100
AcDbLine
 10
288.848
 20
-6.08753
 30
0
 11
290.574
 21
-6.08753
 31
0
  0
LINE
  5
B79
330
A02
100
AcDbEntity
  8
Shape3865
100
AcDbLine
 10
290.574
 20
-6.08753
 30
0
 11
290.574
 21
-10.5564
 31
0
  0
LINE
  5
B7A
330
A02
100
AcDbEntity
  8
Shape3866
100
AcDbLine
 10
290.574
 20
-10.5564
 30
0
 11
299.249
 21
-10.5564
 31
0
  0
LINE
  5
B7B
330
A02
100
AcDbEntity
  8
Shape3867
100
AcDbLine
 10
299.249
 20
-10.5564
 30
0
 11
299.249
 21
-6.35733
 31
0
  0
LINE
  5
B7C
330
A02
100
AcDbEntity
  8
Shape3868
100
AcDbLine
 10
299.749
 20
-5.85733
 30
0
 11
312.748
 21
-5.85733
 31
0
  0
ARC
  5
B7D
330
A02
100
AcDbEntity
  8
Shape3869
100
AcDbCircle
 10
299.749
 20
-6.35733
 30
0
 40
0.5
100
AcDbArc
 50
90
 51
180
  0
ARC
  5
B7E
330
A02
100
AcDbEntity
  8
Shape3870
100
AcDbCircle
 10
312.748
 20
-19.3567
 30
0
 40
0.5
100
AcDbArc
 50
-90
 51
0
  0
LINE
  5
B7F
330
A02
100
AcDbEntity
  8
Shape3871
100
AcDbLine
 10
313.248
 20
-19.3567
 30
0
 11
313.248
 21
-15.1576
 31
0
  0
LINE
  5
B80
330
A02
100
AcDbEntity
  8
Shape3872
100
AcDbLine
 10
313.248
 20
-10.5577
 30
0
 11
313.248
 21
-6.35733
 31
0
  0
LINE
  5
B81
330
A02
100
AcDbEntity
  8
Shape3873
100
AcDbLine
 10
312.748
 20
-19.8567
 30
0
 11
299.749
 21
-19.8567
 31
0
  0
ARC
  5
B82
330
A02
100
AcDbEntity
  8
Shape3874
100
AcDbCircle
 10
312.748
 20
-6.35733
 30
0
 40
0.5
100
AcDbArc
 50
0
 51
90
  0
LINE
  5
B83
330
A02
100
AcDbEntity
  8
Shape3875
100
AcDbLine
 10
313.248
 20
-15.1563
 30
0
 11
321.923
 21
-15.1563
 31
0
  0
LINE
  5
B84
330
A02
100
AcDbEntity
  8
Shape3876
100
AcDbLine
 10
321.923
 20
-15.1563
 30
0
 11
321.923
 21
-18.3865
 31
0
  0
LINE
  5
B85
330
A02
100
AcDbEntity
  8
Shape3877
100
AcDbLine
 10
321.923
 20
-18.3865
 30
0
 11
328.674
 21
-18.3865
 31
0
  0
LINE
  5
B86
330
A02
100
AcDbEntity
  8
Shape3878
100
AcDbLine
 10
328.674
 20
-18.3865
 30
0
 11
328.674
 21
-15.1563
 31
0
  0
LINE
  5
B87
330
A02
100
AcDbEntity
  8
Shape3879
100
AcDbLine
 10
328.674
 20
-15.1563
 30
0
 11
329.498
 21
-15.1563
 31
0
  0
LINE
  5
B88
330
A02
100
AcDbEntity
  8
Shape3880
100
AcDbLine
 10
329.498
 20
-15.1563
 30
0
 11
329.498
 21
-12.3575
 31
0
  0
LINE
  5
B89
330
A02
100
AcDbEntity
  8
Shape3881
100
AcDbLine
 10
329.498
 20
-12.3575
 30
0
 11
328.674
 21
-12.3575
 31
0
  0
LINE
  5
B8A
330
A02
100
AcDbEntity
  8
Shape3882
100
AcDbLine
 10
328.674
 20
-12.3575
 30
0
 11
328.674
 21
-6.08753
 31
0
  0
LINE
  5
B8B
330
A02
100
AcDbEntity
  8
Shape3883
100
AcDbLine
 10
328.674
 20
-6.08753
 30
0
 11
326.949
 21
-6.08753
 31
0
  0
LINE
  5
B8C
330
A02
100
AcDbEntity
  8
Shape3884
100
AcDbLine
 10
326.949
 20
-6.08753
 30
0
 11
326.949
 21
-4.88723
 31
0
  0
LINE
  5
B8D
330
A02
100
AcDbEntity
  8
Shape3885
100
AcDbLine
 10
326.949
 20
-4.88723
 30
0
 11
323.649
 21
-4.88723
 31
0
  0
LINE
  5
B8E
330
A02
100
AcDbEntity
  8
Shape3886
100
AcDbLine
 10
323.649
 20
-4.88723
 30
0
 11
323.649
 21
-6.08753
 31
0
  0
LINE
  5
B8F
330
A02
100
AcDbEntity
  8
Shape3887
100
AcDbLine
 10
323.649
 20
-6.08753
 30
0
 11
321.923
 21
-6.08753
 31
0
  0
LINE
  5
B90
330
A02
100
AcDbEntity
  8
Shape3888
100
AcDbLine
 10
321.923
 20
-6.08753
 30
0
 11
321.923
 21
-10.5564
 31
0
  0
LINE
  5
B91
330
A02
100
AcDbEntity
  8
Shape3889
100
AcDbLine
 10
321.923
 20
-10.5564
 30
0
 11
313.248
 21
-10.5564
 31
0
  0
LINE
  5
B92
330
A02
100
AcDbEntity
  8
Shape4283
100
AcDbLine
 10
168.282
 20
-0.256115
 30
0
 11
168.282
 21
3.94299
 31
0
  0
ARC
  5
B93
330
A02
100
AcDbEntity
  8
Shape4284
100
AcDbCircle
 10
168.782
 20
-0.256115
 30
0
 40
0.5
100
AcDbArc
 50
180
 51
-90
  0
LINE
  5
B94
330
A02
100
AcDbEntity
  8
Shape4285
100
AcDbLine
 10
168.282
 20
3.94299
 30
0
 11
166.756
 21
3.94299
 31
0
  0
LINE
  5
B95
330
A02
100
AcDbEntity
  8
Shape4286
100
AcDbLine
 10
166.756
 20
3.94299
 30
0
 11
166.756
 21
0.714185
 31
0
  0
LINE
  5
B96
330
A02
100
AcDbEntity
  8
Shape4287
100
AcDbLine
 10
166.756
 20
0.714185
 30
0
 11
160.006
 21
0.714185
 31
0
  0
LINE
  5
B97
330
A02
100
AcDbEntity
  8
Shape4288
100
AcDbLine
 10
160.006
 20
0.714185
 30
0
 11
160.006
 21
3.94299
 31
0
  0
LINE
  5
B98
330
A02
100
AcDbEntity
  8
Shape4289
100
AcDbLine
 10
160.006
 20
3.94299
 30
0
 11
159.181
 21
3.94299
 31
0
  0
LINE
  5
B99
330
A02
100
AcDbEntity
  8
Shape4290
100
AcDbLine
 10
159.181
 20
3.94299
 30
0
 11
159.181
 21
6.74315
 31
0
  0
LINE
  5
B9A
330
A02
100
AcDbEntity
  8
Shape4291
100
AcDbLine
 10
159.181
 20
6.74315
 30
0
 11
160.006
 21
6.74315
 31
0
  0
LINE
  5
B9B
330
A02
100
AcDbEntity
  8
Shape4292
100
AcDbLine
 10
160.006
 20
6.74315
 30
0
 11
160.006
 21
13.0132
 31
0
  0
LINE
  5
B9C
330
A02
100
AcDbEntity
  8
Shape4293
100
AcDbLine
 10
160.006
 20
13.0132
 30
0
 11
161.732
 21
13.0132
 31
0
  0
LINE
  5
B9D
330
A02
100
AcDbEntity
  8
Shape4294
100
AcDbLine
 10
161.732
 20
13.0132
 30
0
 11
161.732
 21
14.2135
 31
0
  0
LINE
  5
B9E
330
A02
100
AcDbEntity
  8
Shape4295
100
AcDbLine
 10
161.732
 20
14.2135
 30
0
 11
165.031
 21
14.2135
 31
0
  0
LINE
  5
B9F
330
A02
100
AcDbEntity
  8
Shape4296
100
AcDbLine
 10
165.031
 20
14.2135
 30
0
 11
165.031
 21
13.0132
 31
0
  0
LINE
  5
BA0
330
A02
100
AcDbEntity
  8
Shape4297
100
AcDbLine
 10
165.031
 20
13.0132
 30
0
 11
166.756
 21
13.0132
 31
0
  0
LINE
  5
BA1
330
A02
100
AcDbEntity
  8
Shape4298
100
AcDbLine
 10
166.756
 20
13.0132
 30
0
 11
166.756
 21
8.54426
 31
0
  0
LINE
  5
BA2
330
A02
100
AcDbEntity
  8
Shape4299
100
AcDbLine
 10
166.756
 20
8.54426
 30
0
 11
168.282
 21
8.54426
 31
0
  0
LINE
  5
BA3
330
A02
100
AcDbEntity
  8
Shape4300
100
AcDbLine
 10
168.282
 20
8.54426
 30
0
 11
168.282
 21
12.7433
 31
0
  0
LINE
  5
BA4
330
A02
100
AcDbEntity
  8
Shape4301
100
AcDbLine
 10
168.782
 20
13.2433
 30
0
 11
181.781
 21
13.2433
 31
0
  0
ARC
  5
BA5
330
A02
100
AcDbEntity
  8
Shape4302
100
AcDbCircle
 10
168.782
 20
12.7433
 30
0
 40
0.5
100
AcDbArc
 50
90
 51
180
  0
LINE
  5
BA6
330
A02
100
AcDbEntity
  8
Shape4303
100
AcDbLine
 10
182.281
 20
12.7433
 30
0
 11
182.281
 21
8.54426
 31
0
  0
ARC
  5
BA7
330
A02
100
AcDbEntity
  8
Shape4304
100
AcDbCircle
 10
181.781
 20
12.7433
 30
0
 40
0.5
100
AcDbArc
 50
0
 51
90
  0
LINE
  5
BA8
330
A02
100
AcDbEntity
  8
Shape4305
100
AcDbLine
 10
182.281
 20
8.54426
 30
0
 11
183.807
 21
8.54426
 31
0
  0
LINE
  5
BA9
330
A02
100
AcDbEntity
  8
Shape4306
100
AcDbLine
 10
183.807
 20
8.54426
 30
0
 11
183.807
 21
13.0132
 31
0
  0
LINE
  5
BAA
330
A02
100
AcDbEntity
  8
Shape4307
100
AcDbLine
 10
183.807
 20
13.0132
 30
0
 11
185.53
 21
13.0132
 31
0
  0
LINE
  5
BAB
330
A02
100
AcDbEntity
  8
Shape4308
100
AcDbLine
 10
185.53
 20
13.0132
 30
0
 11
185.53
 21
14.2135
 31
0
  0
LINE
  5
BAC
330
A02
100
AcDbEntity
  8
Shape4309
100
AcDbLine
 10
185.53
 20
14.2135
 30
0
 11
188.831
 21
14.2135
 31
0
  0
LINE
  5
BAD
330
A02
100
AcDbEntity
  8
Shape4310
100
AcDbLine
 10
188.831
 20
14.2135
 30
0
 11
188.831
 21
13.0132
 31
0
  0
LINE
  5
BAE
330
A02
100
AcDbEntity
  8
Shape4311
100
AcDbLine
 10
188.831
 20
13.0132
 30
0
 11
190.556
 21
13.0132
 31
0
  0
LINE
  5
BAF
330
A02
100
AcDbEntity
  8
Shape4312
100
AcDbLine
 10
190.556
 20
13.0132
 30
0
 11
190.556
 21
6.74315
 31
0
  0
LINE
  5
BB0
330
A02
100
AcDbEntity
  8
Shape4313
100
AcDbLine
 10
190.556
 20
6.74315
 30
0
 11
191.381
 21
6.74315
 31
0
  0
LINE
  5
BB1
330
A02
100
AcDbEntity
  8
Shape4314
100
AcDbLine
 10
191.381
 20
6.74315
 30
0
 11
191.381
 21
3.94299
 31
0
  0
LINE
  5
BB2
330
A02
100
AcDbEntity
  8
Shape4315
100
AcDbLine
 10
191.381
 20
3.94299
 30
0
 11
190.556
 21
3.94299
 31
0
  0
LINE
  5
BB3
330
A02
100
AcDbEntity
  8
Shape4316
100
AcDbLine
 10
190.556
 20
3.94299
 30
0
 11
190.556
 21
0.714185
 31
0
  0
LINE
  5
BB4
330
A02
100
AcDbEntity
  8
Shape4317
100
AcDbLine
 10
190.556
 20
0.714185
 30
0
 11
183.807
 21
0.714185
 31
0
  0
LINE
  5
BB5
330
A02
100
AcDbEntity
  8
Shape4318
100
AcDbLine
 10
183.807
 20
0.714185
 30
0
 11
183.807
 21
3.94299
 31
0
  0
LINE
  5
BB6
330
A02
100
AcDbEntity
  8
Shape4319
100
AcDbLine
 10
183.807
 20
3.94299
 30
0
 11
182.281
 21
3.94299
 31
0
  0
LINE
  5
BB7
330
A02
100
AcDbEntity
  8
Shape4320
100
AcDbLine
 10
182.281
 20
3.94299
 30
0
 11
182.281
 21
-0.256115
 31
0
  0
ARC
  5
BB8
330
A02
100
AcDbEntity
  8
Shape4321
100
AcDbCircle
 10
181.781
 20
-0.256115
 30
0
 40
0.5
100
AcDbArc
 50
-90
 51
0
  0
LINE
  5
BB9
330
A02
100
AcDbEntity
  8
Shape4322
100
AcDbLine
 10
181.781
 20
-0.756115
 30
0
 11
168.782
 21
-0.756115
 31
0
  0
LINE
  5
BBA
330
A02
100
AcDbEntity
  8
Shape4403
100
AcDbLine
 10
396.043
 20
27.819
 30
0
 11
391.844
 21
27.819
 31
0
  0
ARC
  5
BBB
330
A02
100
AcDbEntity
  8
Shape4404
100
AcDbCircle
 10
396.043
 20
28.319
 30
0
 40
0.5
100
AcDbArc
 50
-90
 51
0
  0
LINE
  5
BBC
330
A02
100
AcDbEntity
  8
Shape4405
100
AcDbLine
 10
391.844
 20
27.819
 30
0
 11
391.844
 21
26.2936
 31
0
  0
LINE
  5
BBD
330
A02
100
AcDbEntity
  8
Shape4406
100
AcDbLine
 10
391.844
 20
26.2936
 30
0
 11
395.073
 21
26.2936
 31
0
  0
LINE
  5
BBE
330
A02
100
AcDbEntity
  8
Shape4407
100
AcDbLine
 10
395.073
 20
26.2936
 30
0
 11
395.073
 21
19.5439
 31
0
  0
LINE
  5
BBF
330
A02
100
AcDbEntity
  8
Shape4408
100
AcDbLine
 10
395.073
 20
19.5439
 30
0
 11
391.844
 21
19.5439
 31
0
  0
LINE
  5
BC0
330
A02
100
AcDbEntity
  8
Shape4409
100
AcDbLine
 10
391.844
 20
19.5439
 30
0
 11
391.844
 21
18.7184
 31
0
  0
LINE
  5
BC1
330
A02
100
AcDbEntity
  8
Shape4410
100
AcDbLine
 10
391.844
 20
18.7184
 30
0
 11
389.044
 21
18.7184
 31
0
  0
LINE
  5
BC2
330
A02
100
AcDbEntity
  8
Shape4411
100
AcDbLine
 10
389.044
 20
18.7184
 30
0
 11
389.044
 21
19.5439
 31
0
  0
LINE
  5
BC3
330
A02
100
AcDbEntity
  8
Shape4412
100
AcDbLine
 10
389.044
 20
19.5439
 30
0
 11
382.774
 21
19.5439
 31
0
  0
LINE
  5
BC4
330
A02
100
AcDbEntity
  8
Shape4413
100
AcDbLine
 10
382.774
 20
19.5439
 30
0
 11
382.774
 21
21.269
 31
0
  0
LINE
  5
BC5
330
A02
100
AcDbEntity
  8
Shape4414
100
AcDbLine
 10
382.774
 20
21.269
 30
0
 11
381.574
 21
21.269
 31
0
  0
LINE
  5
BC6
330
A02
100
AcDbEntity
  8
Shape4415
100
AcDbLine
 10
381.574
 20
21.269
 30
0
 11
381.574
 21
24.5681
 31
0
  0
LINE
  5
BC7
330
A02
100
AcDbEntity
  8
Shape4416
100
AcDbLine
 10
381.574
 20
24.5681
 30
0
 11
382.774
 21
24.5681
 31
0
  0
LINE
  5
BC8
330
A02
100
AcDbEntity
  8
Shape4417
100
AcDbLine
 10
382.774
 20
24.5681
 30
0
 11
382.774
 21
26.2936
 31
0
  0
LINE
  5
BC9
330
A02
100
AcDbEntity
  8
Shape4418
100
AcDbLine
 10
382.774
 20
26.2936
 30
0
 11
387.243
 21
26.2936
 31
0
  0
LINE
  5
BCA
330
A02
100
AcDbEntity
  8
Shape4419
100
AcDbLine
 10
387.243
 20
26.2936
 30
0
 11
387.243
 21
27.819
 31
0
  0
LINE
  5
BCB
330
A02
100
AcDbEntity
  8
Shape4420
100
AcDbLine
 10
387.243
 20
27.819
 30
0
 11
383.044
 21
27.819
 31
0
  0
LINE
  5
BCC
330
A02
100
AcDbEntity
  8
Shape4421
100
AcDbLine
 10
382.544
 20
28.319
 30
0
 11
382.544
 21
41.3183
 31
0
  0
ARC
  5
BCD
330
A02
100
AcDbEntity
  8
Shape4422
100
AcDbCircle
 10
383.044
 20
28.319
 30
0
 40
0.5
100
AcDbArc
 50
180
 51
-90
  0
LINE
  5
BCE
330
A02
100
AcDbEntity
  8
Shape4423
100
AcDbLine
 10
383.044
 20
41.8183
 30
0
 11
387.243
 21
41.8183
 31
0
  0
ARC
  5
BCF
330
A02
100
AcDbEntity
  8
Shape4424
100
AcDbCircle
 10
383.044
 20
41.3183
 30
0
 40
0.5
100
AcDbArc
 50
90
 51
180
  0
LINE
  5
BD0
330
A02
100
AcDbEntity
  8
Shape4425
100
AcDbLine
 10
387.243
 20
41.8183
 30
0
 11
387.243
 21
43.344
 31
0
  0
LINE
  5
BD1
330
A02
100
AcDbEntity
  8
Shape4426
100
AcDbLine
 10
387.243
 20
43.344
 30
0
 11
382.774
 21
43.344
 31
0
  0
LINE
  5
BD2
330
A02
100
AcDbEntity
  8
Shape4427
100
AcDbLine
 10
382.774
 20
43.344
 30
0
 11
382.774
 21
45.0677
 31
0
  0
LINE
  5
BD3
330
A02
100
AcDbEntity
  8
Shape4428
100
AcDbLine
 10
382.774
 20
45.0677
 30
0
 11
381.574
 21
45.0677
 31
0
  0
LINE
  5
BD4
330
A02
100
AcDbEntity
  8
Shape4429
100
AcDbLine
 10
381.574
 20
45.0677
 30
0
 11
381.574
 21
48.3683
 31
0
  0
LINE
  5
BD5
330
A02
100
AcDbEntity
  8
Shape4430
100
AcDbLine
 10
381.574
 20
48.3683
 30
0
 11
382.774
 21
48.3683
 31
0
  0
LINE
  5
BD6
330
A02
100
AcDbEntity
  8
Shape4431
100
AcDbLine
 10
382.774
 20
48.3683
 30
0
 11
382.774
 21
50.0934
 31
0
  0
LINE
  5
BD7
330
A02
100
AcDbEntity
  8
Shape4432
100
AcDbLine
 10
382.774
 20
50.0934
 30
0
 11
389.044
 21
50.0934
 31
0
  0
LINE
  5
BD8
330
A02
100
AcDbEntity
  8
Shape4433
100
AcDbLine
 10
389.044
 20
50.0934
 30
0
 11
389.044
 21
50.9189
 31
0
  0
LINE
  5
BD9
330
A02
100
AcDbEntity
  8
Shape4434
100
AcDbLine
 10
389.044
 20
50.9189
 30
0
 11
391.844
 21
50.9189
 31
0
  0
LINE
  5
BDA
330
A02
100
AcDbEntity
  8
Shape4435
100
AcDbLine
 10
391.844
 20
50.9189
 30
0
 11
391.844
 21
50.0934
 31
0
  0
LINE
  5
BDB
330
A02
100
AcDbEntity
  8
Shape4436
100
AcDbLine
 10
391.844
 20
50.0934
 30
0
 11
395.073
 21
50.0934
 31
0
  0
LINE
  5
BDC
330
A02
100
AcDbEntity
  8
Shape4437
100
AcDbLine
 10
395.073
 20
50.0934
 30
0
 11
395.073
 21
43.344
 31
0
  0
LINE
  5
BDD
330
A02
100
AcDbEntity
  8
Shape4438
100
AcDbLine
 10
395.073
 20
43.344
 30
0
 11
391.844
 21
43.344
 31
0
  0
LINE
  5
BDE
330
A02
100
AcDbEntity
  8
Shape4439
100
AcDbLine
 10
391.844
 20
43.344
 30
0
 11
391.844
 21
41.8183
 31
0
  0
LINE
  5
BDF
330
A02
100
AcDbEntity
  8
Shape4440
100
AcDbLine
 10
391.844
 20
41.8183
 30
0
 11
396.043
 21
41.8183
 31
0
  0
ARC
  5
BE0
330
A02
100
AcDbEntity
  8
Shape4441
100
AcDbCircle
 10
396.043
 20
41.3183
 30
0
 40
0.5
100
AcDbArc
 50
0
 51
90
  0
LINE
  5
BE1
330
A02
100
AcDbEntity
  8
Shape4442
100
AcDbLine
 10
396.543
 20
41.3183
 30
0
 11
396.543
 21
28.319
 31
0
  0
CIRCLE
  5
BE2
330
A02
100
AcDbEntity
  8
Shape12735
100
AcDbCircle
 10
377.319
 20
34.7931
 40
1.5
  0
ENDSEC
  0
SECTION
  2
OBJECTS
  0
DICTIONARY
  5
F000
330
0
100
AcDbDictionary
  3
ACAD_GROUP
350
F001
  0
DICTIONARY
  5
F001
330
F000
100
AcDbDictionary
  0
ENDSEC
  0
EOF